# Blender 5.2.0 LTS
# www.blender.org
mtllib FN_Appliance_Dishwasher.mtl
o FN_Appliance_Dishwasher
v -0.290000 0.000000 0.249000
v -0.290000 0.000000 -0.335000
v 0.290000 0.000000 -0.335000
v 0.290000 0.000000 0.249000
v -0.290000 0.062000 0.249000
v 0.290000 0.062000 0.249000
v 0.290000 0.062000 -0.335000
v -0.290000 0.062000 -0.335000
v -0.300000 0.062000 0.285000
v -0.300000 0.062000 -0.335000
v 0.300000 0.062000 -0.335000
v 0.300000 0.062000 0.285000
v -0.300000 0.850000 0.285000
v 0.300000 0.850000 0.285000
v 0.300000 0.850000 -0.335000
v -0.300000 0.850000 -0.335000
v -0.294000 0.074000 0.309000
v -0.294000 0.074000 0.285000
v 0.294000 0.074000 0.285000
v 0.294000 0.074000 0.309000
v -0.294000 0.756000 0.309000
v 0.294000 0.756000 0.309000
v 0.294000 0.756000 0.285000
v -0.294000 0.756000 0.285000
v -0.294000 0.764000 0.303000
v -0.294000 0.764000 0.285000
v 0.294000 0.764000 0.285000
v 0.294000 0.764000 0.303000
v -0.294000 0.838000 0.303000
v 0.294000 0.838000 0.303000
v 0.294000 0.838000 0.285000
v -0.294000 0.838000 0.285000
v -0.196000 0.784000 0.307000
v -0.196000 0.784000 0.301000
v -0.026000 0.784000 0.301000
v -0.026000 0.784000 0.307000
v -0.196000 0.818000 0.307000
v -0.026000 0.818000 0.307000
v -0.026000 0.818000 0.301000
v -0.196000 0.818000 0.301000
v 0.026000 0.788000 0.307000
v 0.026000 0.788000 0.300000
v 0.064000 0.788000 0.300000
v 0.064000 0.788000 0.307000
v 0.026000 0.814000 0.307000
v 0.064000 0.814000 0.307000
v 0.064000 0.814000 0.300000
v 0.026000 0.814000 0.300000
v 0.084000 0.788000 0.307000
v 0.084000 0.788000 0.300000
v 0.122000 0.788000 0.300000
v 0.122000 0.788000 0.307000
v 0.084000 0.814000 0.307000
v 0.122000 0.814000 0.307000
v 0.122000 0.814000 0.300000
v 0.084000 0.814000 0.300000
v 0.142000 0.788000 0.307000
v 0.142000 0.788000 0.300000
v 0.180000 0.788000 0.300000
v 0.180000 0.788000 0.307000
v 0.142000 0.814000 0.307000
v 0.180000 0.814000 0.307000
v 0.180000 0.814000 0.300000
v 0.142000 0.814000 0.300000
v 0.200000 0.788000 0.307000
v 0.200000 0.788000 0.300000
v 0.238000 0.788000 0.300000
v 0.238000 0.788000 0.307000
v 0.200000 0.814000 0.307000
v 0.238000 0.814000 0.307000
v 0.238000 0.814000 0.300000
v 0.200000 0.814000 0.300000
v -0.229056 0.791595 0.311000
v -0.237056 0.785783 0.311000
v -0.246944 0.785783 0.311000
v -0.254944 0.791595 0.311000
v -0.258000 0.801000 0.311000
v -0.254944 0.810405 0.311000
v -0.246944 0.816217 0.311000
v -0.237056 0.816217 0.311000
v -0.229056 0.810405 0.311000
v -0.226000 0.801000 0.311000
v -0.226000 0.801000 0.301000
v -0.229056 0.810405 0.301000
v -0.237056 0.816217 0.301000
v -0.246944 0.816217 0.301000
v -0.254944 0.810405 0.301000
v -0.258000 0.801000 0.301000
v -0.254944 0.791595 0.301000
v -0.246944 0.785783 0.301000
v -0.237056 0.785783 0.301000
v -0.229056 0.791595 0.301000
v -0.272000 0.704000 0.335000
v -0.272000 0.704000 0.317000
v 0.272000 0.704000 0.317000
v 0.272000 0.704000 0.335000
v -0.272000 0.742000 0.335000
v 0.272000 0.742000 0.335000
v 0.272000 0.742000 0.317000
v -0.272000 0.742000 0.317000
v -0.233000 0.710000 0.319000
v -0.233000 0.710000 0.307000
v -0.211000 0.710000 0.307000
v -0.211000 0.710000 0.319000
v -0.233000 0.736000 0.319000
v -0.211000 0.736000 0.319000
v -0.211000 0.736000 0.307000
v -0.233000 0.736000 0.307000
v 0.211000 0.710000 0.319000
v 0.211000 0.710000 0.307000
v 0.233000 0.710000 0.307000
v 0.233000 0.710000 0.319000
v 0.211000 0.736000 0.319000
v 0.233000 0.736000 0.319000
v 0.233000 0.736000 0.307000
v 0.211000 0.736000 0.307000
vn -0.0000 -1.0000 -0.0000
vn -0.0000 1.0000 -0.0000
vn -0.0000 -0.0000 1.0000
vn -0.0000 -0.0000 -1.0000
vn -1.0000 -0.0000 -0.0000
vn 1.0000 -0.0000 -0.0000
vn 0.9511 0.3090 -0.0000
vn 0.5878 0.8090 -0.0000
vn -0.5878 0.8090 -0.0000
vn -0.9511 0.3090 -0.0000
vn -0.9511 -0.3090 -0.0000
vn -0.5878 -0.8090 -0.0000
vn 0.5878 -0.8090 -0.0000
vn 0.9511 -0.3090 -0.0000
vt 0.812500 0.312500
vt 0.437500 0.812500
vt 0.937500 0.312500
vt 0.937500 0.062500
vt 0.062500 0.312500
s 0
usemtl FN_Atlas
f 1/1/1 2/1/1 3/1/1 4/1/1
f 5/1/2 6/1/2 7/1/2 8/1/2
f 1/1/3 4/1/3 6/1/3 5/1/3
f 3/1/4 2/1/4 8/1/4 7/1/4
f 1/1/5 5/1/5 8/1/5 2/1/5
f 4/1/6 3/1/6 7/1/6 6/1/6
f 9/2/1 10/2/1 11/2/1 12/2/1
f 13/2/2 14/2/2 15/2/2 16/2/2
f 9/1/3 12/1/3 14/1/3 13/1/3
f 11/2/4 10/2/4 16/2/4 15/2/4
f 9/2/5 13/2/5 16/2/5 10/2/5
f 12/2/6 11/2/6 15/2/6 14/2/6
f 17/3/1 18/3/1 19/3/1 20/3/1
f 21/3/2 22/3/2 23/3/2 24/3/2
f 17/3/3 20/3/3 22/3/3 21/3/3
f 19/3/4 18/3/4 24/3/4 23/3/4
f 17/3/5 21/3/5 24/3/5 18/3/5
f 20/3/6 19/3/6 23/3/6 22/3/6
f 25/1/1 26/1/1 27/1/1 28/1/1
f 29/1/2 30/1/2 31/1/2 32/1/2
f 25/1/3 28/1/3 30/1/3 29/1/3
f 27/1/4 26/1/4 32/1/4 31/1/4
f 25/1/5 29/1/5 32/1/5 26/1/5
f 28/1/6 27/1/6 31/1/6 30/1/6
f 41/5/1 42/5/1 43/5/1 44/5/1
f 45/5/2 46/5/2 47/5/2 48/5/2
f 41/5/3 44/5/3 46/5/3 45/5/3
f 43/5/4 42/5/4 48/5/4 47/5/4
f 41/5/5 45/5/5 48/5/5 42/5/5
f 44/5/6 43/5/6 47/5/6 46/5/6
f 49/5/1 50/5/1 51/5/1 52/5/1
f 53/5/2 54/5/2 55/5/2 56/5/2
f 49/5/3 52/5/3 54/5/3 53/5/3
f 51/5/4 50/5/4 56/5/4 55/5/4
f 49/5/5 53/5/5 56/5/5 50/5/5
f 52/5/6 51/5/6 55/5/6 54/5/6
f 57/5/1 58/5/1 59/5/1 60/5/1
f 61/5/2 62/5/2 63/5/2 64/5/2
f 57/5/3 60/5/3 62/5/3 61/5/3
f 59/5/4 58/5/4 64/5/4 63/5/4
f 57/5/5 61/5/5 64/5/5 58/5/5
f 60/5/6 59/5/6 63/5/6 62/5/6
f 65/5/1 66/5/1 67/5/1 68/5/1
f 69/5/2 70/5/2 71/5/2 72/5/2
f 65/5/3 68/5/3 70/5/3 69/5/3
f 67/5/4 66/5/4 72/5/4 71/5/4
f 65/5/5 69/5/5 72/5/5 66/5/5
f 68/5/6 67/5/6 71/5/6 70/5/6
f 73/5/4 74/5/4 75/5/4 76/5/4 77/5/4 78/5/4 79/5/4 80/5/4 81/5/4 82/5/4
f 83/5/3 84/5/3 85/5/3 86/5/3 87/5/3 88/5/3 89/5/3 90/5/3 91/5/3 92/5/3
f 83/5/7 84/5/7 81/5/7 82/5/7
f 84/5/8 85/5/8 80/5/8 81/5/8
f 85/5/2 86/5/2 79/5/2 80/5/2
f 86/5/9 87/5/9 78/5/9 79/5/9
f 87/5/10 88/5/10 77/5/10 78/5/10
f 88/5/11 89/5/11 76/5/11 77/5/11
f 89/5/12 90/5/12 75/5/12 76/5/12
f 90/5/1 91/5/1 74/5/1 75/5/1
f 91/5/13 92/5/13 73/5/13 74/5/13
f 92/5/14 83/5/14 82/5/14 73/5/14
f 93/5/1 94/5/1 95/5/1 96/5/1
f 97/5/2 98/5/2 99/5/2 100/5/2
f 93/5/3 96/5/3 98/5/3 97/5/3
f 95/5/4 94/5/4 100/5/4 99/5/4
f 93/5/5 97/5/5 100/5/5 94/5/5
f 96/5/6 95/5/6 99/5/6 98/5/6
f 101/5/1 102/5/1 103/5/1 104/5/1
f 105/5/2 106/5/2 107/5/2 108/5/2
f 101/5/3 104/5/3 106/5/3 105/5/3
f 103/5/4 102/5/4 108/5/4 107/5/4
f 101/5/5 105/5/5 108/5/5 102/5/5
f 104/5/6 103/5/6 107/5/6 106/5/6
f 109/5/1 110/5/1 111/5/1 112/5/1
f 113/5/2 114/5/2 115/5/2 116/5/2
f 109/5/3 112/5/3 114/5/3 113/5/3
f 111/5/4 110/5/4 116/5/4 115/5/4
f 109/5/5 113/5/5 116/5/5 110/5/5
f 112/5/6 111/5/6 115/5/6 114/5/6
usemtl FN_Glow
f 33/4/1 34/4/1 35/4/1 36/4/1
f 37/4/2 38/4/2 39/4/2 40/4/2
f 33/4/3 36/4/3 38/4/3 37/4/3
f 35/4/4 34/4/4 40/4/4 39/4/4
f 33/4/5 37/4/5 40/4/5 34/4/5
f 36/4/6 35/4/6 39/4/6 38/4/6
