# Blender 5.2.0 LTS
# www.blender.org
mtllib FN_Appliance_Microwave.mtl
o FN_Appliance_Microwave
v -0.250000 0.014000 0.168000
v -0.250000 0.014000 -0.212000
v 0.250000 0.014000 -0.212000
v 0.250000 0.014000 0.168000
v -0.250000 0.290000 0.168000
v 0.250000 0.290000 0.168000
v 0.250000 0.290000 -0.212000
v -0.250000 0.290000 -0.212000
v -0.232000 0.000000 0.150000
v -0.232000 0.000000 0.098000
v -0.180000 0.000000 0.098000
v -0.180000 0.000000 0.150000
v -0.232000 0.018000 0.150000
v -0.180000 0.018000 0.150000
v -0.180000 0.018000 0.098000
v -0.232000 0.018000 0.098000
v -0.232000 0.000000 -0.142000
v -0.232000 0.000000 -0.194000
v -0.180000 0.000000 -0.194000
v -0.180000 0.000000 -0.142000
v -0.232000 0.018000 -0.142000
v -0.180000 0.018000 -0.142000
v -0.180000 0.018000 -0.194000
v -0.232000 0.018000 -0.194000
v 0.180000 0.000000 0.150000
v 0.180000 0.000000 0.098000
v 0.232000 0.000000 0.098000
v 0.232000 0.000000 0.150000
v 0.180000 0.018000 0.150000
v 0.232000 0.018000 0.150000
v 0.232000 0.018000 0.098000
v 0.180000 0.018000 0.098000
v 0.180000 0.000000 -0.142000
v 0.180000 0.000000 -0.194000
v 0.232000 0.000000 -0.194000
v 0.232000 0.000000 -0.142000
v 0.180000 0.018000 -0.142000
v 0.232000 0.018000 -0.142000
v 0.232000 0.018000 -0.194000
v 0.180000 0.018000 -0.194000
v -0.244000 0.024000 0.182000
v -0.244000 0.024000 0.168000
v 0.096000 0.024000 0.168000
v 0.096000 0.024000 0.182000
v -0.244000 0.054000 0.182000
v 0.096000 0.054000 0.182000
v 0.096000 0.054000 0.168000
v -0.244000 0.054000 0.168000
v -0.244000 0.236000 0.182000
v -0.244000 0.236000 0.168000
v 0.096000 0.236000 0.168000
v 0.096000 0.236000 0.182000
v -0.244000 0.266000 0.182000
v 0.096000 0.266000 0.182000
v 0.096000 0.266000 0.168000
v -0.244000 0.266000 0.168000
v -0.214000 0.054000 0.168000
v -0.214000 0.054000 0.182000
v -0.214000 0.236000 0.182000
v -0.214000 0.236000 0.168000
v 0.066000 0.054000 0.182000
v 0.066000 0.054000 0.168000
v 0.066000 0.236000 0.182000
v 0.066000 0.236000 0.168000
v -0.218000 0.050000 0.178000
v -0.218000 0.050000 0.168000
v 0.070000 0.050000 0.168000
v 0.070000 0.050000 0.178000
v -0.218000 0.240000 0.178000
v 0.070000 0.240000 0.178000
v 0.070000 0.240000 0.168000
v -0.218000 0.240000 0.168000
v 0.080000 0.078000 0.212000
v 0.080000 0.078000 0.196000
v 0.102000 0.078000 0.196000
v 0.102000 0.078000 0.212000
v 0.080000 0.212000 0.212000
v 0.102000 0.212000 0.212000
v 0.102000 0.212000 0.196000
v 0.080000 0.212000 0.196000
v 0.084000 0.083000 0.198000
v 0.084000 0.083000 0.180000
v 0.098000 0.083000 0.180000
v 0.098000 0.083000 0.198000
v 0.084000 0.101000 0.198000
v 0.098000 0.101000 0.198000
v 0.098000 0.101000 0.180000
v 0.084000 0.101000 0.180000
v 0.084000 0.189000 0.198000
v 0.084000 0.189000 0.180000
v 0.098000 0.189000 0.180000
v 0.098000 0.189000 0.198000
v 0.084000 0.207000 0.198000
v 0.098000 0.207000 0.198000
v 0.098000 0.207000 0.180000
v 0.084000 0.207000 0.180000
v 0.110000 0.024000 0.178000
v 0.110000 0.024000 0.168000
v 0.236000 0.024000 0.168000
v 0.236000 0.024000 0.178000
v 0.110000 0.266000 0.178000
v 0.236000 0.266000 0.178000
v 0.236000 0.266000 0.168000
v 0.110000 0.266000 0.168000
v 0.124000 0.214000 0.181000
v 0.124000 0.214000 0.177000
v 0.222000 0.214000 0.177000
v 0.222000 0.214000 0.181000
v 0.124000 0.252000 0.181000
v 0.222000 0.252000 0.181000
v 0.222000 0.252000 0.177000
v 0.124000 0.252000 0.177000
v 0.132000 0.054000 0.181000
v 0.132000 0.054000 0.176000
v 0.170000 0.054000 0.176000
v 0.170000 0.054000 0.181000
v 0.132000 0.084000 0.181000
v 0.170000 0.084000 0.181000
v 0.170000 0.084000 0.176000
v 0.132000 0.084000 0.176000
v 0.186000 0.054000 0.181000
v 0.186000 0.054000 0.176000
v 0.224000 0.054000 0.176000
v 0.224000 0.054000 0.181000
v 0.186000 0.084000 0.181000
v 0.224000 0.084000 0.181000
v 0.224000 0.084000 0.176000
v 0.186000 0.084000 0.176000
v 0.132000 0.102000 0.181000
v 0.132000 0.102000 0.176000
v 0.170000 0.102000 0.176000
v 0.170000 0.102000 0.181000
v 0.132000 0.132000 0.181000
v 0.170000 0.132000 0.181000
v 0.170000 0.132000 0.176000
v 0.132000 0.132000 0.176000
v 0.186000 0.102000 0.181000
v 0.186000 0.102000 0.176000
v 0.224000 0.102000 0.176000
v 0.224000 0.102000 0.181000
v 0.186000 0.132000 0.181000
v 0.224000 0.132000 0.181000
v 0.224000 0.132000 0.176000
v 0.186000 0.132000 0.176000
v 0.132000 0.150000 0.181000
v 0.132000 0.150000 0.176000
v 0.170000 0.150000 0.176000
v 0.170000 0.150000 0.181000
v 0.132000 0.180000 0.181000
v 0.170000 0.180000 0.181000
v 0.170000 0.180000 0.176000
v 0.132000 0.180000 0.176000
v 0.186000 0.150000 0.181000
v 0.186000 0.150000 0.176000
v 0.224000 0.150000 0.176000
v 0.224000 0.150000 0.181000
v 0.186000 0.180000 0.181000
v 0.224000 0.180000 0.181000
v 0.224000 0.180000 0.176000
v 0.186000 0.180000 0.176000
vn -0.0000 -1.0000 -0.0000
vn -0.0000 1.0000 -0.0000
vn -0.0000 -0.0000 1.0000
vn -0.0000 -0.0000 -1.0000
vn -1.0000 -0.0000 -0.0000
vn 1.0000 -0.0000 -0.0000
vt 0.937500 0.312500
vt 0.937500 0.187500
vt 0.937500 0.687500
vt 0.062500 0.312500
vt 0.812500 0.312500
vt 0.937500 0.062500
s 0
usemtl FN_Atlas
f 1/1/1 2/1/1 3/1/1 4/1/1
f 5/1/2 6/1/2 7/1/2 8/1/2
f 1/1/3 4/1/3 6/1/3 5/1/3
f 3/1/4 2/1/4 8/1/4 7/1/4
f 1/1/5 5/1/5 8/1/5 2/1/5
f 4/1/6 3/1/6 7/1/6 6/1/6
f 9/2/1 10/2/1 11/2/1 12/2/1
f 13/2/2 14/2/2 15/2/2 16/2/2
f 9/2/3 12/2/3 14/2/3 13/2/3
f 11/2/4 10/2/4 16/2/4 15/2/4
f 9/2/5 13/2/5 16/2/5 10/2/5
f 12/2/6 11/2/6 15/2/6 14/2/6
f 17/2/1 18/2/1 19/2/1 20/2/1
f 21/2/2 22/2/2 23/2/2 24/2/2
f 17/2/3 20/2/3 22/2/3 21/2/3
f 19/2/4 18/2/4 24/2/4 23/2/4
f 17/2/5 21/2/5 24/2/5 18/2/5
f 20/2/6 19/2/6 23/2/6 22/2/6
f 25/2/1 26/2/1 27/2/1 28/2/1
f 29/2/2 30/2/2 31/2/2 32/2/2
f 25/2/3 28/2/3 30/2/3 29/2/3
f 27/2/4 26/2/4 32/2/4 31/2/4
f 25/2/5 29/2/5 32/2/5 26/2/5
f 28/2/6 27/2/6 31/2/6 30/2/6
f 33/2/1 34/2/1 35/2/1 36/2/1
f 37/2/2 38/2/2 39/2/2 40/2/2
f 33/2/3 36/2/3 38/2/3 37/2/3
f 35/2/4 34/2/4 40/2/4 39/2/4
f 33/2/5 37/2/5 40/2/5 34/2/5
f 36/2/6 35/2/6 39/2/6 38/2/6
f 41/1/1 42/1/1 43/1/1 44/1/1
f 45/1/2 46/1/2 47/1/2 48/1/2
f 41/1/3 44/1/3 46/1/3 45/1/3
f 43/1/4 42/1/4 48/1/4 47/1/4
f 41/1/5 45/1/5 48/1/5 42/1/5
f 44/1/6 43/1/6 47/1/6 46/1/6
f 49/1/1 50/1/1 51/1/1 52/1/1
f 53/1/2 54/1/2 55/1/2 56/1/2
f 49/1/3 52/1/3 54/1/3 53/1/3
f 51/1/4 50/1/4 56/1/4 55/1/4
f 49/1/5 53/1/5 56/1/5 50/1/5
f 52/1/6 51/1/6 55/1/6 54/1/6
f 45/1/1 48/1/1 57/1/1 58/1/1
f 49/1/2 59/1/2 60/1/2 50/1/2
f 45/1/3 58/1/3 59/1/3 49/1/3
f 57/1/4 48/1/4 50/1/4 60/1/4
f 45/1/5 49/1/5 50/1/5 48/1/5
f 58/1/6 57/1/6 60/1/6 59/1/6
f 61/1/1 62/1/1 47/1/1 46/1/1
f 63/1/2 52/1/2 51/1/2 64/1/2
f 61/1/3 46/1/3 52/1/3 63/1/3
f 47/1/4 62/1/4 64/1/4 51/1/4
f 61/1/5 63/1/5 64/1/5 62/1/5
f 46/1/6 47/1/6 51/1/6 52/1/6
f 65/3/1 66/3/1 67/3/1 68/3/1
f 69/3/2 70/3/2 71/3/2 72/3/2
f 65/3/3 68/3/3 70/3/3 69/3/3
f 67/3/4 66/3/4 72/3/4 71/3/4
f 65/3/5 69/3/5 72/3/5 66/3/5
f 68/3/6 67/3/6 71/3/6 70/3/6
f 73/4/1 74/4/1 75/4/1 76/4/1
f 77/4/2 78/4/2 79/4/2 80/4/2
f 73/4/3 76/4/3 78/4/3 77/4/3
f 75/4/4 74/4/4 80/4/4 79/4/4
f 73/4/5 77/4/5 80/4/5 74/4/5
f 76/4/6 75/4/6 79/4/6 78/4/6
f 81/4/1 82/4/1 83/4/1 84/4/1
f 85/4/2 86/4/2 87/4/2 88/4/2
f 81/4/3 84/4/3 86/4/3 85/4/3
f 83/4/4 82/4/4 88/4/4 87/4/4
f 81/4/5 85/4/5 88/4/5 82/4/5
f 84/4/6 83/4/6 87/4/6 86/4/6
f 89/4/1 90/4/1 91/4/1 92/4/1
f 93/4/2 94/4/2 95/4/2 96/4/2
f 89/4/3 92/4/3 94/4/3 93/4/3
f 91/4/4 90/4/4 96/4/4 95/4/4
f 89/4/5 93/4/5 96/4/5 90/4/5
f 92/4/6 91/4/6 95/4/6 94/4/6
f 97/5/1 98/5/1 99/5/1 100/5/1
f 101/5/2 102/5/2 103/5/2 104/5/2
f 97/5/3 100/5/3 102/5/3 101/5/3
f 99/5/4 98/5/4 104/5/4 103/5/4
f 97/5/5 101/5/5 104/5/5 98/5/5
f 100/5/6 99/5/6 103/5/6 102/5/6
f 113/4/1 114/4/1 115/4/1 116/4/1
f 117/4/2 118/4/2 119/4/2 120/4/2
f 113/4/3 116/4/3 118/4/3 117/4/3
f 115/4/4 114/4/4 120/4/4 119/4/4
f 113/4/5 117/4/5 120/4/5 114/4/5
f 116/4/6 115/4/6 119/4/6 118/4/6
f 121/4/1 122/4/1 123/4/1 124/4/1
f 125/4/2 126/4/2 127/4/2 128/4/2
f 121/4/3 124/4/3 126/4/3 125/4/3
f 123/4/4 122/4/4 128/4/4 127/4/4
f 121/4/5 125/4/5 128/4/5 122/4/5
f 124/4/6 123/4/6 127/4/6 126/4/6
f 129/4/1 130/4/1 131/4/1 132/4/1
f 133/4/2 134/4/2 135/4/2 136/4/2
f 129/4/3 132/4/3 134/4/3 133/4/3
f 131/4/4 130/4/4 136/4/4 135/4/4
f 129/4/5 133/4/5 136/4/5 130/4/5
f 132/4/6 131/4/6 135/4/6 134/4/6
f 137/4/1 138/4/1 139/4/1 140/4/1
f 141/4/2 142/4/2 143/4/2 144/4/2
f 137/4/3 140/4/3 142/4/3 141/4/3
f 139/4/4 138/4/4 144/4/4 143/4/4
f 137/4/5 141/4/5 144/4/5 138/4/5
f 140/4/6 139/4/6 143/4/6 142/4/6
f 145/4/1 146/4/1 147/4/1 148/4/1
f 149/4/2 150/4/2 151/4/2 152/4/2
f 145/4/3 148/4/3 150/4/3 149/4/3
f 147/4/4 146/4/4 152/4/4 151/4/4
f 145/4/5 149/4/5 152/4/5 146/4/5
f 148/4/6 147/4/6 151/4/6 150/4/6
f 153/4/1 154/4/1 155/4/1 156/4/1
f 157/4/2 158/4/2 159/4/2 160/4/2
f 153/4/3 156/4/3 158/4/3 157/4/3
f 155/4/4 154/4/4 160/4/4 159/4/4
f 153/4/5 157/4/5 160/4/5 154/4/5
f 156/4/6 155/4/6 159/4/6 158/4/6
usemtl FN_Glow
f 105/6/1 106/6/1 107/6/1 108/6/1
f 109/6/2 110/6/2 111/6/2 112/6/2
f 105/6/3 108/6/3 110/6/3 109/6/3
f 107/6/4 106/6/4 112/6/4 111/6/4
f 105/6/5 109/6/5 112/6/5 106/6/5
f 108/6/6 107/6/6 111/6/6 110/6/6
