# Blender 5.2.0 LTS
# www.blender.org
mtllib FN_Art_Framed.mtl
o FN_Art_Framed
v -0.350000 0.000000 0.000000
v -0.350000 0.000000 -0.012000
v 0.350000 0.000000 -0.012000
v 0.350000 0.000000 0.000000
v -0.350000 0.900000 0.000000
v 0.350000 0.900000 0.000000
v 0.350000 0.900000 -0.012000
v -0.350000 0.900000 -0.012000
v -0.350000 0.000000 -0.045000
v 0.350000 0.000000 -0.045000
v -0.350000 0.070000 0.000000
v 0.350000 0.070000 0.000000
v 0.350000 0.070000 -0.045000
v -0.350000 0.070000 -0.045000
v -0.350000 0.830000 0.000000
v -0.350000 0.830000 -0.045000
v 0.350000 0.830000 -0.045000
v 0.350000 0.830000 0.000000
v 0.350000 0.900000 -0.045000
v -0.350000 0.900000 -0.045000
v -0.280000 0.070000 -0.045000
v -0.280000 0.070000 0.000000
v -0.280000 0.830000 0.000000
v -0.280000 0.830000 -0.045000
v 0.280000 0.070000 0.000000
v 0.280000 0.070000 -0.045000
v 0.280000 0.830000 0.000000
v 0.280000 0.830000 -0.045000
v -0.286000 0.064000 -0.028000
v -0.286000 0.064000 -0.033000
v 0.286000 0.064000 -0.033000
v 0.286000 0.064000 -0.028000
v -0.286000 0.836000 -0.028000
v 0.286000 0.836000 -0.028000
v 0.286000 0.836000 -0.033000
v -0.286000 0.836000 -0.033000
v -0.222000 0.150000 -0.031000
v -0.222000 0.150000 -0.035000
v 0.020000 0.150000 -0.035000
v 0.020000 0.150000 -0.031000
v -0.222000 0.520000 -0.031000
v 0.020000 0.520000 -0.031000
v 0.020000 0.520000 -0.035000
v -0.222000 0.520000 -0.035000
v -0.060000 0.400000 -0.031000
v -0.060000 0.400000 -0.037000
v 0.222000 0.400000 -0.037000
v 0.222000 0.400000 -0.031000
v -0.060000 0.760000 -0.031000
v 0.222000 0.760000 -0.031000
v 0.222000 0.760000 -0.037000
v -0.060000 0.760000 -0.037000
v 0.056000 0.196000 -0.031000
v 0.056000 0.196000 -0.039000
v 0.176000 0.196000 -0.039000
v 0.176000 0.196000 -0.031000
v 0.056000 0.372000 -0.031000
v 0.176000 0.372000 -0.031000
v 0.176000 0.372000 -0.039000
v 0.056000 0.372000 -0.039000
v -0.222000 0.560000 -0.031000
v -0.222000 0.560000 -0.041000
v -0.104000 0.560000 -0.041000
v -0.104000 0.560000 -0.031000
v -0.222000 0.760000 -0.031000
v -0.104000 0.760000 -0.031000
v -0.104000 0.760000 -0.041000
v -0.222000 0.760000 -0.041000
vn -0.0000 -1.0000 -0.0000
vn -0.0000 1.0000 -0.0000
vn -0.0000 -0.0000 1.0000
vn -0.0000 -0.0000 -1.0000
vn -1.0000 -0.0000 -0.0000
vn 1.0000 -0.0000 -0.0000
vt 0.812500 0.937500
vt 0.687500 0.937500
vt 0.187500 0.687500
vt 0.312500 0.562500
vt 0.812500 0.562500
vt 0.062500 0.562500
vt 0.562500 0.562500
s 0
usemtl FN_Atlas
f 1/1/1 2/1/1 3/1/1 4/1/1
f 5/1/2 6/1/2 7/1/2 8/1/2
f 1/1/3 4/1/3 6/1/3 5/1/3
f 3/1/4 2/1/4 8/1/4 7/1/4
f 1/1/5 5/1/5 8/1/5 2/1/5
f 4/1/6 3/1/6 7/1/6 6/1/6
f 1/2/1 9/2/1 10/2/1 4/2/1
f 11/2/2 12/2/2 13/2/2 14/2/2
f 1/2/3 4/2/3 12/2/3 11/2/3
f 10/2/4 9/2/4 14/2/4 13/2/4
f 1/2/5 11/2/5 14/2/5 9/2/5
f 4/2/6 10/2/6 13/2/6 12/2/6
f 15/2/1 16/2/1 17/2/1 18/2/1
f 5/2/2 6/2/2 19/2/2 20/2/2
f 15/2/3 18/2/3 6/2/3 5/2/3
f 17/2/4 16/2/4 20/2/4 19/2/4
f 15/2/5 5/2/5 20/2/5 16/2/5
f 18/2/6 17/2/6 19/2/6 6/2/6
f 11/2/1 14/2/1 21/2/1 22/2/1
f 15/2/2 23/2/2 24/2/2 16/2/2
f 11/2/3 22/2/3 23/2/3 15/2/3
f 21/2/4 14/2/4 16/2/4 24/2/4
f 11/2/5 15/2/5 16/2/5 14/2/5
f 22/2/6 21/2/6 24/2/6 23/2/6
f 25/2/1 26/2/1 13/2/1 12/2/1
f 27/2/2 18/2/2 17/2/2 28/2/2
f 25/2/3 12/2/3 18/2/3 27/2/3
f 13/2/4 26/2/4 28/2/4 17/2/4
f 25/2/5 27/2/5 28/2/5 26/2/5
f 12/2/6 13/2/6 17/2/6 18/2/6
f 29/3/1 30/3/1 31/3/1 32/3/1
f 33/3/2 34/3/2 35/3/2 36/3/2
f 29/3/3 32/3/3 34/3/3 33/3/3
f 31/3/4 30/3/4 36/3/4 35/3/4
f 29/3/5 33/3/5 36/3/5 30/3/5
f 32/3/6 31/3/6 35/3/6 34/3/6
f 37/4/1 38/4/1 39/4/1 40/4/1
f 41/4/2 42/4/2 43/4/2 44/4/2
f 37/4/3 40/4/3 42/4/3 41/4/3
f 39/4/4 38/4/4 44/4/4 43/4/4
f 37/4/5 41/4/5 44/4/5 38/4/5
f 40/4/6 39/4/6 43/4/6 42/4/6
f 45/5/1 46/5/1 47/5/1 48/5/1
f 49/5/2 50/5/2 51/5/2 52/5/2
f 45/5/3 48/5/3 50/5/3 49/5/3
f 47/5/4 46/5/4 52/5/4 51/5/4
f 45/5/5 49/5/5 52/5/5 46/5/5
f 48/5/6 47/5/6 51/5/6 50/5/6
f 53/6/1 54/6/1 55/6/1 56/6/1
f 57/6/2 58/6/2 59/6/2 60/6/2
f 53/6/3 56/6/3 58/6/3 57/6/3
f 55/6/4 54/6/4 60/6/4 59/6/4
f 53/6/5 57/6/5 60/6/5 54/6/5
f 56/6/6 55/6/6 59/6/6 58/6/6
f 61/7/1 62/7/1 63/7/1 64/7/1
f 65/7/2 66/7/2 67/7/2 68/7/2
f 61/7/3 64/7/3 66/7/3 65/7/3
f 63/7/4 62/7/4 68/7/4 67/7/4
f 61/7/5 65/7/5 68/7/5 62/7/5
f 64/7/6 63/7/6 67/7/6 66/7/6
