# Blender 5.2.0 LTS
# www.blender.org
mtllib FN_Bench_Gym.mtl
o FN_Bench_Gym
v -0.045000 0.360000 0.580936
v -0.045000 0.360000 -0.499064
v 0.045000 0.360000 -0.499064
v 0.045000 0.360000 0.580936
v -0.045000 0.420000 0.580936
v 0.045000 0.420000 0.580936
v 0.045000 0.420000 -0.499064
v -0.045000 0.420000 -0.499064
v -0.300000 0.000000 0.520936
v -0.300000 0.000000 0.460936
v 0.300000 0.000000 0.460936
v 0.300000 0.000000 0.520936
v -0.300000 0.050000 0.520936
v 0.300000 0.050000 0.520936
v 0.300000 0.050000 0.460936
v -0.300000 0.050000 0.460936
v -0.300000 0.000000 -0.419064
v -0.300000 0.000000 -0.479064
v 0.300000 0.000000 -0.479064
v 0.300000 0.000000 -0.419064
v -0.300000 0.050000 -0.419064
v 0.300000 0.050000 -0.419064
v 0.300000 0.050000 -0.479064
v -0.300000 0.050000 -0.479064
v -0.292000 0.030000 0.512936
v -0.248000 0.030000 0.512936
v -0.023000 0.400000 0.512936
v -0.067000 0.400000 0.512936
v -0.067000 0.400000 0.468936
v -0.023000 0.400000 0.468936
v -0.248000 0.030000 0.468936
v -0.292000 0.030000 0.468936
v 0.248000 0.030000 0.512936
v 0.292000 0.030000 0.512936
v 0.067000 0.400000 0.512936
v 0.023000 0.400000 0.512936
v 0.023000 0.400000 0.468936
v 0.067000 0.400000 0.468936
v 0.292000 0.030000 0.468936
v 0.248000 0.030000 0.468936
v -0.292000 0.030000 -0.427064
v -0.248000 0.030000 -0.427064
v -0.023000 0.400000 -0.427064
v -0.067000 0.400000 -0.427064
v -0.067000 0.400000 -0.471064
v -0.023000 0.400000 -0.471064
v -0.248000 0.030000 -0.471064
v -0.292000 0.030000 -0.471064
v 0.248000 0.030000 -0.427064
v 0.292000 0.030000 -0.427064
v 0.067000 0.400000 -0.427064
v 0.023000 0.400000 -0.427064
v 0.023000 0.400000 -0.471064
v 0.067000 0.400000 -0.471064
v 0.292000 0.030000 -0.471064
v 0.248000 0.030000 -0.471064
v -0.150000 0.420000 0.490936
v -0.150000 0.420000 -0.119064
v 0.150000 0.420000 -0.119064
v 0.150000 0.420000 0.490936
v -0.150000 0.474000 0.490936
v 0.150000 0.474000 0.490936
v 0.150000 0.474000 -0.119064
v -0.150000 0.474000 -0.119064
v -0.150000 0.453383 -0.155564
v -0.150000 0.683383 -0.553936
v -0.150000 0.636617 -0.580936
v -0.150000 0.406617 -0.182564
v 0.150000 0.406617 -0.182564
v 0.150000 0.636617 -0.580936
v 0.150000 0.683383 -0.553936
v 0.150000 0.453383 -0.155564
v -0.160000 0.416144 -0.177064
v -0.160000 0.416144 -0.161064
v -0.160000 0.430000 -0.153064
v -0.160000 0.443856 -0.161064
v -0.160000 0.443856 -0.177064
v -0.160000 0.430000 -0.185064
v 0.160000 0.430000 -0.185064
v 0.160000 0.443856 -0.177064
v 0.160000 0.443856 -0.161064
v 0.160000 0.430000 -0.153064
v 0.160000 0.416144 -0.161064
v 0.160000 0.416144 -0.177064
v -0.012000 0.418000 -0.204064
v -0.012000 0.418000 -0.224064
v 0.012000 0.418000 -0.224064
v 0.012000 0.418000 -0.204064
v -0.012000 0.452000 -0.204064
v 0.012000 0.452000 -0.204064
v 0.012000 0.452000 -0.224064
v -0.012000 0.452000 -0.224064
v -0.012000 0.418000 -0.259064
v -0.012000 0.418000 -0.279064
v 0.012000 0.418000 -0.279064
v 0.012000 0.418000 -0.259064
v -0.012000 0.452000 -0.259064
v 0.012000 0.452000 -0.259064
v 0.012000 0.452000 -0.279064
v -0.012000 0.452000 -0.279064
v -0.012000 0.418000 -0.339064
v -0.012000 0.418000 -0.359064
v 0.012000 0.418000 -0.359064
v 0.012000 0.418000 -0.339064
v -0.012000 0.452000 -0.339064
v 0.012000 0.452000 -0.339064
v 0.012000 0.452000 -0.359064
v -0.012000 0.452000 -0.359064
v -0.012000 0.418000 -0.394064
v -0.012000 0.418000 -0.414064
v 0.012000 0.418000 -0.414064
v 0.012000 0.418000 -0.394064
v -0.012000 0.452000 -0.394064
v 0.012000 0.452000 -0.394064
v 0.012000 0.452000 -0.414064
v -0.012000 0.452000 -0.414064
v -0.168000 0.551617 -0.447271
v -0.168000 0.421000 -0.313963
v -0.168000 0.431000 -0.304165
v -0.168000 0.561617 -0.437473
v -0.146000 0.561617 -0.437473
v -0.146000 0.431000 -0.304165
v -0.146000 0.421000 -0.313963
v -0.146000 0.551617 -0.447271
v 0.146000 0.551617 -0.447271
v 0.146000 0.421000 -0.313963
v 0.146000 0.431000 -0.304165
v 0.146000 0.561617 -0.437473
v 0.168000 0.561617 -0.437473
v 0.168000 0.431000 -0.304165
v 0.168000 0.421000 -0.313963
v 0.168000 0.551617 -0.447271
v -0.180000 0.419072 -0.313064
v -0.180000 0.419072 -0.305064
v -0.180000 0.426000 -0.301064
v -0.180000 0.432928 -0.305064
v -0.180000 0.432928 -0.313064
v -0.180000 0.426000 -0.317064
v 0.180000 0.426000 -0.317064
v 0.180000 0.432928 -0.313064
v 0.180000 0.432928 -0.305064
v 0.180000 0.426000 -0.301064
v 0.180000 0.419072 -0.305064
v 0.180000 0.419072 -0.313064
v -0.198000 0.412144 -0.317064
v -0.198000 0.412144 -0.301064
v -0.198000 0.426000 -0.293064
v -0.198000 0.439856 -0.301064
v -0.198000 0.439856 -0.317064
v -0.198000 0.426000 -0.325064
v -0.180000 0.426000 -0.325064
v -0.180000 0.439856 -0.317064
v -0.180000 0.439856 -0.301064
v -0.180000 0.426000 -0.293064
v -0.180000 0.412144 -0.301064
v -0.180000 0.412144 -0.317064
v 0.180000 0.412144 -0.317064
v 0.180000 0.412144 -0.301064
v 0.180000 0.426000 -0.293064
v 0.180000 0.439856 -0.301064
v 0.180000 0.439856 -0.317064
v 0.180000 0.426000 -0.325064
v 0.198000 0.426000 -0.325064
v 0.198000 0.439856 -0.317064
v 0.198000 0.439856 -0.301064
v 0.198000 0.426000 -0.293064
v 0.198000 0.412144 -0.301064
v 0.198000 0.412144 -0.317064
vn -0.0000 -1.0000 -0.0000
vn -0.0000 1.0000 -0.0000
vn -0.0000 -0.0000 1.0000
vn -0.0000 -0.0000 -1.0000
vn -1.0000 -0.0000 -0.0000
vn 1.0000 -0.0000 -0.0000
vn 0.8544 -0.5196 -0.0000
vn -0.8544 0.5196 -0.0000
vn 0.8544 0.5196 -0.0000
vn -0.8544 -0.5196 -0.0000
vn -0.0000 -0.8660 -0.5000
vn -0.0000 0.5000 -0.8660
vn -0.0000 0.8660 0.5000
vn -0.0000 -0.5000 0.8660
vn -0.0000 0.5000 0.8660
vn -0.0000 -0.5000 -0.8660
vn -0.0000 -0.7143 -0.6999
vn -0.0000 -0.6999 0.7143
vn -0.0000 0.7143 0.6999
vn -0.0000 0.6999 -0.7143
vt 0.812500 0.312500
vt 0.562500 0.687500
vt 0.312500 0.312500
s 0
usemtl FN_Atlas
f 1/1/1 2/1/1 3/1/1 4/1/1
f 5/1/2 6/1/2 7/1/2 8/1/2
f 1/1/3 4/1/3 6/1/3 5/1/3
f 3/1/4 2/1/4 8/1/4 7/1/4
f 1/1/5 5/1/5 8/1/5 2/1/5
f 4/1/6 3/1/6 7/1/6 6/1/6
f 9/1/1 10/1/1 11/1/1 12/1/1
f 13/1/2 14/1/2 15/1/2 16/1/2
f 9/1/3 12/1/3 14/1/3 13/1/3
f 11/1/4 10/1/4 16/1/4 15/1/4
f 9/1/5 13/1/5 16/1/5 10/1/5
f 12/1/6 11/1/6 15/1/6 14/1/6
f 17/1/1 18/1/1 19/1/1 20/1/1
f 21/1/2 22/1/2 23/1/2 24/1/2
f 17/1/3 20/1/3 22/1/3 21/1/3
f 19/1/4 18/1/4 24/1/4 23/1/4
f 17/1/5 21/1/5 24/1/5 18/1/5
f 20/1/6 19/1/6 23/1/6 22/1/6
f 25/1/3 26/1/3 27/1/3 28/1/3
f 29/1/4 30/1/4 31/1/4 32/1/4
f 28/1/2 27/1/2 30/1/2 29/1/2
f 27/1/7 26/1/7 31/1/7 30/1/7
f 26/1/1 25/1/1 32/1/1 31/1/1
f 25/1/8 28/1/8 29/1/8 32/1/8
f 33/1/3 34/1/3 35/1/3 36/1/3
f 37/1/4 38/1/4 39/1/4 40/1/4
f 36/1/2 35/1/2 38/1/2 37/1/2
f 35/1/9 34/1/9 39/1/9 38/1/9
f 34/1/1 33/1/1 40/1/1 39/1/1
f 33/1/10 36/1/10 37/1/10 40/1/10
f 41/1/3 42/1/3 43/1/3 44/1/3
f 45/1/4 46/1/4 47/1/4 48/1/4
f 44/1/2 43/1/2 46/1/2 45/1/2
f 43/1/7 42/1/7 47/1/7 46/1/7
f 42/1/1 41/1/1 48/1/1 47/1/1
f 41/1/8 44/1/8 45/1/8 48/1/8
f 49/1/3 50/1/3 51/1/3 52/1/3
f 53/1/4 54/1/4 55/1/4 56/1/4
f 52/1/2 51/1/2 54/1/2 53/1/2
f 51/1/9 50/1/9 55/1/9 54/1/9
f 50/1/1 49/1/1 56/1/1 55/1/1
f 49/1/10 52/1/10 53/1/10 56/1/10
f 57/2/1 58/2/1 59/2/1 60/2/1
f 61/2/2 62/2/2 63/2/2 64/2/2
f 57/2/3 60/2/3 62/2/3 61/2/3
f 59/2/4 58/2/4 64/2/4 63/2/4
f 57/2/5 61/2/5 64/2/5 58/2/5
f 60/2/6 59/2/6 63/2/6 62/2/6
f 65/2/5 66/2/5 67/2/5 68/2/5
f 69/2/6 70/2/6 71/2/6 72/2/6
f 68/2/11 67/2/11 70/2/11 69/2/11
f 67/2/12 66/2/12 71/2/12 70/2/12
f 66/2/13 65/2/13 72/2/13 71/2/13
f 65/2/14 68/2/14 69/2/14 72/2/14
f 73/3/5 74/3/5 75/3/5 76/3/5 77/3/5 78/3/5
f 79/3/6 80/3/6 81/3/6 82/3/6 83/3/6 84/3/6
f 78/3/12 77/3/12 80/3/12 79/3/12
f 77/3/2 76/3/2 81/3/2 80/3/2
f 76/3/15 75/3/15 82/3/15 81/3/15
f 75/3/14 74/3/14 83/3/14 82/3/14
f 74/3/1 73/3/1 84/3/1 83/3/1
f 73/3/16 78/3/16 79/3/16 84/3/16
f 85/3/1 86/3/1 87/3/1 88/3/1
f 89/3/2 90/3/2 91/3/2 92/3/2
f 85/3/3 88/3/3 90/3/3 89/3/3
f 87/3/4 86/3/4 92/3/4 91/3/4
f 85/3/5 89/3/5 92/3/5 86/3/5
f 88/3/6 87/3/6 91/3/6 90/3/6
f 93/3/1 94/3/1 95/3/1 96/3/1
f 97/3/2 98/3/2 99/3/2 100/3/2
f 93/3/3 96/3/3 98/3/3 97/3/3
f 95/3/4 94/3/4 100/3/4 99/3/4
f 93/3/5 97/3/5 100/3/5 94/3/5
f 96/3/6 95/3/6 99/3/6 98/3/6
f 101/3/1 102/3/1 103/3/1 104/3/1
f 105/3/2 106/3/2 107/3/2 108/3/2
f 101/3/3 104/3/3 106/3/3 105/3/3
f 103/3/4 102/3/4 108/3/4 107/3/4
f 101/3/5 105/3/5 108/3/5 102/3/5
f 104/3/6 103/3/6 107/3/6 106/3/6
f 109/3/1 110/3/1 111/3/1 112/3/1
f 113/3/2 114/3/2 115/3/2 116/3/2
f 109/3/3 112/3/3 114/3/3 113/3/3
f 111/3/4 110/3/4 116/3/4 115/3/4
f 109/3/5 113/3/5 116/3/5 110/3/5
f 112/3/6 111/3/6 115/3/6 114/3/6
f 117/3/5 118/3/5 119/3/5 120/3/5
f 121/3/6 122/3/6 123/3/6 124/3/6
f 124/3/17 123/3/17 118/3/17 117/3/17
f 123/3/18 122/3/18 119/3/18 118/3/18
f 122/3/19 121/3/19 120/3/19 119/3/19
f 121/3/20 124/3/20 117/3/20 120/3/20
f 125/3/5 126/3/5 127/3/5 128/3/5
f 129/3/6 130/3/6 131/3/6 132/3/6
f 132/3/17 131/3/17 126/3/17 125/3/17
f 131/3/18 130/3/18 127/3/18 126/3/18
f 130/3/19 129/3/19 128/3/19 127/3/19
f 129/3/20 132/3/20 125/3/20 128/3/20
f 133/3/5 134/3/5 135/3/5 136/3/5 137/3/5 138/3/5
f 139/3/6 140/3/6 141/3/6 142/3/6 143/3/6 144/3/6
f 138/3/12 137/3/12 140/3/12 139/3/12
f 137/3/2 136/3/2 141/3/2 140/3/2
f 136/3/15 135/3/15 142/3/15 141/3/15
f 135/3/14 134/3/14 143/3/14 142/3/14
f 134/3/1 133/3/1 144/3/1 143/3/1
f 133/3/16 138/3/16 139/3/16 144/3/16
f 145/3/5 146/3/5 147/3/5 148/3/5 149/3/5 150/3/5
f 151/3/6 152/3/6 153/3/6 154/3/6 155/3/6 156/3/6
f 150/3/12 149/3/12 152/3/12 151/3/12
f 149/3/2 148/3/2 153/3/2 152/3/2
f 148/3/15 147/3/15 154/3/15 153/3/15
f 147/3/14 146/3/14 155/3/14 154/3/14
f 146/3/1 145/3/1 156/3/1 155/3/1
f 145/3/16 150/3/16 151/3/16 156/3/16
f 157/3/5 158/3/5 159/3/5 160/3/5 161/3/5 162/3/5
f 163/3/6 164/3/6 165/3/6 166/3/6 167/3/6 168/3/6
f 162/3/12 161/3/12 164/3/12 163/3/12
f 161/3/2 160/3/2 165/3/2 164/3/2
f 160/3/15 159/3/15 166/3/15 165/3/15
f 159/3/14 158/3/14 167/3/14 166/3/14
f 158/3/1 157/3/1 168/3/1 167/3/1
f 157/3/16 162/3/16 163/3/16 168/3/16
