# Blender 5.2.0 LTS
# www.blender.org
mtllib FN_Board_Ironing.mtl
o FN_Board_Ironing
v -0.600000 0.870000 -0.190000
v 0.300000 0.870000 -0.190000
v 0.560000 0.870000 -0.100000
v 0.600000 0.870000 -0.055000
v 0.600000 0.870000 0.055000
v 0.560000 0.870000 0.100000
v 0.300000 0.870000 0.190000
v -0.600000 0.870000 0.190000
v -0.600000 0.890000 0.190000
v 0.300000 0.890000 0.190000
v 0.560000 0.890000 0.100000
v 0.600000 0.890000 0.055000
v 0.600000 0.890000 -0.055000
v 0.560000 0.890000 -0.100000
v 0.300000 0.890000 -0.190000
v -0.600000 0.890000 -0.190000
v -0.610000 0.878000 -0.200000
v 0.302000 0.878000 -0.200000
v 0.567000 0.878000 -0.106000
v 0.610000 0.878000 -0.060000
v 0.610000 0.878000 0.060000
v 0.567000 0.878000 0.106000
v 0.302000 0.878000 0.200000
v -0.610000 0.878000 0.200000
v -0.610000 0.900000 0.200000
v 0.302000 0.900000 0.200000
v 0.567000 0.900000 0.106000
v 0.610000 0.900000 0.060000
v 0.610000 0.900000 -0.060000
v 0.567000 0.900000 -0.106000
v 0.302000 0.900000 -0.200000
v -0.610000 0.900000 -0.200000
v -0.320000 0.846000 0.202000
v -0.320000 0.846000 0.186000
v 0.120000 0.846000 0.186000
v 0.120000 0.846000 0.202000
v -0.320000 0.872000 0.202000
v 0.120000 0.872000 0.202000
v 0.120000 0.872000 0.186000
v -0.320000 0.872000 0.186000
v -0.320000 0.846000 -0.186000
v -0.320000 0.846000 -0.202000
v 0.120000 0.846000 -0.202000
v 0.120000 0.846000 -0.186000
v -0.320000 0.872000 -0.186000
v 0.120000 0.872000 -0.186000
v 0.120000 0.872000 -0.202000
v -0.320000 0.872000 -0.202000
v 0.172000 0.876000 0.132000
v 0.128000 0.876000 0.132000
v -0.402000 0.000000 0.132000
v -0.358000 0.000000 0.132000
v -0.358000 0.000000 0.110000
v -0.402000 0.000000 0.110000
v 0.128000 0.876000 0.110000
v 0.172000 0.876000 0.110000
v -0.128000 0.876000 0.162000
v -0.172000 0.876000 0.162000
v 0.278000 0.000000 0.162000
v 0.322000 0.000000 0.162000
v 0.322000 0.000000 0.140000
v 0.278000 0.000000 0.140000
v -0.172000 0.876000 0.140000
v -0.128000 0.876000 0.140000
v -0.408000 0.000000 0.138000
v -0.408000 0.000000 0.104000
v -0.352000 0.000000 0.104000
v -0.352000 0.000000 0.138000
v -0.408000 0.012000 0.138000
v -0.352000 0.012000 0.138000
v -0.352000 0.012000 0.104000
v -0.408000 0.012000 0.104000
v 0.272000 0.000000 0.168000
v 0.272000 0.000000 0.134000
v 0.328000 0.000000 0.134000
v 0.328000 0.000000 0.168000
v 0.272000 0.012000 0.168000
v 0.328000 0.012000 0.168000
v 0.328000 0.012000 0.134000
v 0.272000 0.012000 0.134000
v 0.172000 0.876000 -0.110000
v 0.128000 0.876000 -0.110000
v -0.402000 0.000000 -0.110000
v -0.358000 0.000000 -0.110000
v -0.358000 0.000000 -0.132000
v -0.402000 0.000000 -0.132000
v 0.128000 0.876000 -0.132000
v 0.172000 0.876000 -0.132000
v -0.128000 0.876000 -0.140000
v -0.172000 0.876000 -0.140000
v 0.278000 0.000000 -0.140000
v 0.322000 0.000000 -0.140000
v 0.322000 0.000000 -0.162000
v 0.278000 0.000000 -0.162000
v -0.172000 0.876000 -0.162000
v -0.128000 0.876000 -0.162000
v -0.408000 0.000000 -0.104000
v -0.408000 0.000000 -0.138000
v -0.352000 0.000000 -0.138000
v -0.352000 0.000000 -0.104000
v -0.408000 0.012000 -0.104000
v -0.352000 0.012000 -0.104000
v -0.352000 0.012000 -0.138000
v -0.408000 0.012000 -0.138000
v 0.272000 0.000000 -0.134000
v 0.272000 0.000000 -0.168000
v 0.328000 0.000000 -0.168000
v 0.328000 0.000000 -0.134000
v 0.272000 0.012000 -0.134000
v 0.328000 0.012000 -0.134000
v 0.328000 0.012000 -0.168000
v 0.272000 0.012000 -0.168000
v -0.315000 0.135000 0.132000
v -0.315000 0.135000 -0.132000
v -0.263000 0.135000 -0.132000
v -0.263000 0.135000 0.132000
v -0.315000 0.165000 0.132000
v -0.263000 0.165000 0.132000
v -0.263000 0.165000 -0.132000
v -0.315000 0.165000 -0.132000
v 0.197000 0.135000 0.162000
v 0.197000 0.135000 -0.162000
v 0.249000 0.135000 -0.162000
v 0.249000 0.135000 0.162000
v 0.197000 0.165000 0.162000
v 0.249000 0.165000 0.162000
v 0.249000 0.165000 -0.162000
v 0.197000 0.165000 -0.162000
v -0.002000 0.608000 0.180000
v -0.007000 0.616660 0.180000
v -0.017000 0.616660 0.180000
v -0.022000 0.608000 0.180000
v -0.017000 0.599340 0.180000
v -0.007000 0.599340 0.180000
v -0.007000 0.599340 -0.180000
v -0.017000 0.599340 -0.180000
v -0.022000 0.608000 -0.180000
v -0.017000 0.616660 -0.180000
v -0.007000 0.616660 -0.180000
v -0.002000 0.608000 -0.180000
v 0.160000 0.868000 0.140000
v 0.155000 0.876660 0.140000
v 0.145000 0.876660 0.140000
v 0.140000 0.868000 0.140000
v 0.145000 0.859340 0.140000
v 0.155000 0.859340 0.140000
v 0.155000 0.859340 -0.140000
v 0.145000 0.859340 -0.140000
v 0.140000 0.868000 -0.140000
v 0.145000 0.876660 -0.140000
v 0.155000 0.876660 -0.140000
v 0.160000 0.868000 -0.140000
v -0.141000 0.858000 0.208000
v -0.145500 0.865794 0.208000
v -0.154500 0.865794 0.208000
v -0.159000 0.858000 0.208000
v -0.154500 0.850206 0.208000
v -0.145500 0.850206 0.208000
v -0.145500 0.850206 -0.208000
v -0.154500 0.850206 -0.208000
v -0.159000 0.858000 -0.208000
v -0.154500 0.865794 -0.208000
v -0.145500 0.865794 -0.208000
v -0.141000 0.858000 -0.208000
vn -0.0000 -1.0000 -0.0000
vn -0.0000 1.0000 -0.0000
vn -0.0000 -0.0000 1.0000
vn 0.3271 -0.0000 0.9450
vn 0.7474 -0.0000 0.6644
vn 1.0000 -0.0000 -0.0000
vn 0.7474 -0.0000 -0.6644
vn 0.3271 -0.0000 -0.9450
vn -0.0000 -0.0000 -1.0000
vn -1.0000 -0.0000 -0.0000
vn 0.3343 -0.0000 0.9425
vn 0.7305 -0.0000 0.6829
vn 0.7305 -0.0000 -0.6829
vn 0.3343 -0.0000 -0.9425
vn -0.8556 0.5177 -0.0000
vn 0.8556 -0.5177 -0.0000
vn -0.8895 -0.4569 -0.0000
vn 0.8895 0.4569 -0.0000
vn 0.8660 0.5000 -0.0000
vn -0.8660 0.5000 -0.0000
vn -0.8660 -0.5000 -0.0000
vn 0.8660 -0.5000 -0.0000
vt 0.812500 0.312500
vt 0.687500 0.687500
vt 0.312500 0.312500
s 0
usemtl FN_Atlas
f 1/1/1 2/1/1 3/1/1 4/1/1 5/1/1 6/1/1 7/1/1 8/1/1
f 9/1/2 10/1/2 11/1/2 12/1/2 13/1/2 14/1/2 15/1/2 16/1/2
f 8/1/3 7/1/3 10/1/3 9/1/3
f 7/1/4 6/1/4 11/1/4 10/1/4
f 6/1/5 5/1/5 12/1/5 11/1/5
f 5/1/6 4/1/6 13/1/6 12/1/6
f 4/1/7 3/1/7 14/1/7 13/1/7
f 3/1/8 2/1/8 15/1/8 14/1/8
f 2/1/9 1/1/9 16/1/9 15/1/9
f 1/1/10 8/1/10 9/1/10 16/1/10
f 17/2/1 18/2/1 19/2/1 20/2/1 21/2/1 22/2/1 23/2/1 24/2/1
f 25/2/2 26/2/2 27/2/2 28/2/2 29/2/2 30/2/2 31/2/2 32/2/2
f 24/2/3 23/2/3 26/2/3 25/2/3
f 23/2/11 22/2/11 27/2/11 26/2/11
f 22/2/12 21/2/12 28/2/12 27/2/12
f 21/2/6 20/2/6 29/2/6 28/2/6
f 20/2/13 19/2/13 30/2/13 29/2/13
f 19/2/14 18/2/14 31/2/14 30/2/14
f 18/2/9 17/2/9 32/2/9 31/2/9
f 17/2/10 24/2/10 25/2/10 32/2/10
f 33/1/1 34/1/1 35/1/1 36/1/1
f 37/1/2 38/1/2 39/1/2 40/1/2
f 33/1/3 36/1/3 38/1/3 37/1/3
f 35/1/9 34/1/9 40/1/9 39/1/9
f 33/1/10 37/1/10 40/1/10 34/1/10
f 36/1/6 35/1/6 39/1/6 38/1/6
f 41/1/1 42/1/1 43/1/1 44/1/1
f 45/1/2 46/1/2 47/1/2 48/1/2
f 41/1/3 44/1/3 46/1/3 45/1/3
f 43/1/9 42/1/9 48/1/9 47/1/9
f 41/1/10 45/1/10 48/1/10 42/1/10
f 44/1/6 43/1/6 47/1/6 46/1/6
f 49/1/3 50/1/3 51/1/3 52/1/3
f 53/1/9 54/1/9 55/1/9 56/1/9
f 56/1/2 55/1/2 50/1/2 49/1/2
f 55/1/15 54/1/15 51/1/15 50/1/15
f 54/1/1 53/1/1 52/1/1 51/1/1
f 53/1/16 56/1/16 49/1/16 52/1/16
f 57/1/3 58/1/3 59/1/3 60/1/3
f 61/1/9 62/1/9 63/1/9 64/1/9
f 64/1/2 63/1/2 58/1/2 57/1/2
f 63/1/17 62/1/17 59/1/17 58/1/17
f 62/1/1 61/1/1 60/1/1 59/1/1
f 61/1/18 64/1/18 57/1/18 60/1/18
f 65/3/1 66/3/1 67/3/1 68/3/1
f 69/3/2 70/3/2 71/3/2 72/3/2
f 65/3/3 68/3/3 70/3/3 69/3/3
f 67/3/9 66/3/9 72/3/9 71/3/9
f 65/3/10 69/3/10 72/3/10 66/3/10
f 68/3/6 67/3/6 71/3/6 70/3/6
f 73/3/1 74/3/1 75/3/1 76/3/1
f 77/3/2 78/3/2 79/3/2 80/3/2
f 73/3/3 76/3/3 78/3/3 77/3/3
f 75/3/9 74/3/9 80/3/9 79/3/9
f 73/3/10 77/3/10 80/3/10 74/3/10
f 76/3/6 75/3/6 79/3/6 78/3/6
f 81/1/3 82/1/3 83/1/3 84/1/3
f 85/1/9 86/1/9 87/1/9 88/1/9
f 88/1/2 87/1/2 82/1/2 81/1/2
f 87/1/15 86/1/15 83/1/15 82/1/15
f 86/1/1 85/1/1 84/1/1 83/1/1
f 85/1/16 88/1/16 81/1/16 84/1/16
f 89/1/3 90/1/3 91/1/3 92/1/3
f 93/1/9 94/1/9 95/1/9 96/1/9
f 96/1/2 95/1/2 90/1/2 89/1/2
f 95/1/17 94/1/17 91/1/17 90/1/17
f 94/1/1 93/1/1 92/1/1 91/1/1
f 93/1/18 96/1/18 89/1/18 92/1/18
f 97/3/1 98/3/1 99/3/1 100/3/1
f 101/3/2 102/3/2 103/3/2 104/3/2
f 97/3/3 100/3/3 102/3/3 101/3/3
f 99/3/9 98/3/9 104/3/9 103/3/9
f 97/3/10 101/3/10 104/3/10 98/3/10
f 100/3/6 99/3/6 103/3/6 102/3/6
f 105/3/1 106/3/1 107/3/1 108/3/1
f 109/3/2 110/3/2 111/3/2 112/3/2
f 105/3/3 108/3/3 110/3/3 109/3/3
f 107/3/9 106/3/9 112/3/9 111/3/9
f 105/3/10 109/3/10 112/3/10 106/3/10
f 108/3/6 107/3/6 111/3/6 110/3/6
f 113/1/1 114/1/1 115/1/1 116/1/1
f 117/1/2 118/1/2 119/1/2 120/1/2
f 113/1/3 116/1/3 118/1/3 117/1/3
f 115/1/9 114/1/9 120/1/9 119/1/9
f 113/1/10 117/1/10 120/1/10 114/1/10
f 116/1/6 115/1/6 119/1/6 118/1/6
f 121/1/1 122/1/1 123/1/1 124/1/1
f 125/1/2 126/1/2 127/1/2 128/1/2
f 121/1/3 124/1/3 126/1/3 125/1/3
f 123/1/9 122/1/9 128/1/9 127/1/9
f 121/1/10 125/1/10 128/1/10 122/1/10
f 124/1/6 123/1/6 127/1/6 126/1/6
f 129/3/3 130/3/3 131/3/3 132/3/3 133/3/3 134/3/3
f 135/3/9 136/3/9 137/3/9 138/3/9 139/3/9 140/3/9
f 130/3/19 129/3/19 140/3/19 139/3/19
f 131/3/2 130/3/2 139/3/2 138/3/2
f 132/3/20 131/3/20 138/3/20 137/3/20
f 133/3/21 132/3/21 137/3/21 136/3/21
f 134/3/1 133/3/1 136/3/1 135/3/1
f 129/3/22 134/3/22 135/3/22 140/3/22
f 141/3/3 142/3/3 143/3/3 144/3/3 145/3/3 146/3/3
f 147/3/9 148/3/9 149/3/9 150/3/9 151/3/9 152/3/9
f 142/3/19 141/3/19 152/3/19 151/3/19
f 143/3/2 142/3/2 151/3/2 150/3/2
f 144/3/20 143/3/20 150/3/20 149/3/20
f 145/3/21 144/3/21 149/3/21 148/3/21
f 146/3/1 145/3/1 148/3/1 147/3/1
f 141/3/22 146/3/22 147/3/22 152/3/22
f 153/3/3 154/3/3 155/3/3 156/3/3 157/3/3 158/3/3
f 159/3/9 160/3/9 161/3/9 162/3/9 163/3/9 164/3/9
f 154/3/19 153/3/19 164/3/19 163/3/19
f 155/3/2 154/3/2 163/3/2 162/3/2
f 156/3/20 155/3/20 162/3/20 161/3/20
f 157/3/21 156/3/21 161/3/21 160/3/21
f 158/3/1 157/3/1 160/3/1 159/3/1
f 153/3/22 158/3/22 159/3/22 164/3/22
