# Blender 5.2.0 LTS
# www.blender.org
mtllib FN_Booth_Bar.mtl
o FN_Booth_Bar
v -0.780000 0.000000 0.760000
v -0.780000 0.000000 0.400000
v 0.780000 0.000000 0.400000
v 0.780000 0.000000 0.760000
v -0.780000 0.350000 0.760000
v 0.780000 0.350000 0.760000
v 0.780000 0.350000 0.400000
v -0.780000 0.350000 0.400000
v -0.780000 0.000000 0.840000
v -0.780000 0.000000 0.740000
v 0.780000 0.000000 0.740000
v 0.780000 0.000000 0.840000
v -0.780000 1.150000 0.840000
v 0.780000 1.150000 0.840000
v 0.780000 1.150000 0.740000
v -0.780000 1.150000 0.740000
v -0.800000 1.150000 0.860000
v -0.800000 1.150000 0.720000
v 0.800000 1.150000 0.720000
v 0.800000 1.150000 0.860000
v -0.800000 1.196000 0.860000
v 0.800000 1.196000 0.860000
v 0.800000 1.196000 0.720000
v -0.800000 1.196000 0.720000
v -0.750000 0.350000 0.415000
v 0.750000 0.350000 0.415000
v 0.750000 0.350000 0.745000
v -0.750000 0.350000 0.745000
v -0.738000 0.470000 0.732000
v 0.738000 0.470000 0.732000
v 0.738000 0.470000 0.428000
v -0.738000 0.470000 0.428000
v -0.750000 0.455000 0.660000
v 0.750000 0.455000 0.660000
v 0.750000 0.455000 0.745000
v -0.750000 0.455000 0.745000
v -0.738000 1.020000 0.745000
v 0.738000 1.020000 0.745000
v 0.738000 1.020000 0.672000
v -0.738000 1.020000 0.672000
v -0.780000 0.000000 -0.400000
v -0.780000 0.000000 -0.760000
v 0.780000 0.000000 -0.760000
v 0.780000 0.000000 -0.400000
v -0.780000 0.350000 -0.400000
v 0.780000 0.350000 -0.400000
v 0.780000 0.350000 -0.760000
v -0.780000 0.350000 -0.760000
v -0.780000 0.000000 -0.740000
v -0.780000 0.000000 -0.840000
v 0.780000 0.000000 -0.840000
v 0.780000 0.000000 -0.740000
v -0.780000 1.150000 -0.740000
v 0.780000 1.150000 -0.740000
v 0.780000 1.150000 -0.840000
v -0.780000 1.150000 -0.840000
v -0.800000 1.150000 -0.720000
v -0.800000 1.150000 -0.860000
v 0.800000 1.150000 -0.860000
v 0.800000 1.150000 -0.720000
v -0.800000 1.196000 -0.720000
v 0.800000 1.196000 -0.720000
v 0.800000 1.196000 -0.860000
v -0.800000 1.196000 -0.860000
v -0.750000 0.350000 -0.745000
v 0.750000 0.350000 -0.745000
v 0.750000 0.350000 -0.415000
v -0.750000 0.350000 -0.415000
v -0.738000 0.470000 -0.428000
v 0.738000 0.470000 -0.428000
v 0.738000 0.470000 -0.732000
v -0.738000 0.470000 -0.732000
v -0.750000 0.455000 -0.745000
v 0.750000 0.455000 -0.745000
v 0.750000 0.455000 -0.660000
v -0.750000 0.455000 -0.660000
v -0.738000 1.020000 -0.672000
v 0.738000 1.020000 -0.672000
v 0.738000 1.020000 -0.745000
v -0.738000 1.020000 -0.745000
v -0.560000 0.700000 0.480000
v -0.560000 0.700000 -0.480000
v 0.560000 0.700000 -0.480000
v 0.560000 0.700000 0.480000
v -0.560000 0.740000 0.480000
v 0.560000 0.740000 0.480000
v 0.560000 0.740000 -0.480000
v -0.560000 0.740000 -0.480000
v -0.470000 0.000000 0.420000
v -0.470000 0.000000 -0.420000
v -0.170000 0.000000 -0.420000
v -0.170000 0.000000 0.420000
v -0.470000 0.040000 0.420000
v -0.170000 0.040000 0.420000
v -0.170000 0.040000 -0.420000
v -0.470000 0.040000 -0.420000
v -0.380000 0.040000 0.060000
v -0.380000 0.040000 -0.060000
v -0.260000 0.040000 -0.060000
v -0.260000 0.040000 0.060000
v -0.380000 0.700000 0.060000
v -0.260000 0.700000 0.060000
v -0.260000 0.700000 -0.060000
v -0.380000 0.700000 -0.060000
v 0.170000 0.000000 0.420000
v 0.170000 0.000000 -0.420000
v 0.470000 0.000000 -0.420000
v 0.470000 0.000000 0.420000
v 0.170000 0.040000 0.420000
v 0.470000 0.040000 0.420000
v 0.470000 0.040000 -0.420000
v 0.170000 0.040000 -0.420000
v 0.260000 0.040000 0.060000
v 0.260000 0.040000 -0.060000
v 0.380000 0.040000 -0.060000
v 0.380000 0.040000 0.060000
v 0.260000 0.700000 0.060000
v 0.380000 0.700000 0.060000
v 0.380000 0.700000 -0.060000
v 0.260000 0.700000 -0.060000
vn -0.0000 -1.0000 -0.0000
vn -0.0000 1.0000 -0.0000
vn -0.0000 -0.0000 1.0000
vn -0.0000 -0.0000 -1.0000
vn -1.0000 -0.0000 -0.0000
vn 1.0000 -0.0000 -0.0000
vn -0.0000 0.1077 0.9942
vn 0.9950 0.0995 -0.0000
vn -0.0000 0.1077 -0.9942
vn -0.9950 0.0995 -0.0000
vn 0.9998 0.0212 -0.0000
vn -0.0000 0.0212 -0.9998
vn -0.9998 0.0212 -0.0000
vn -0.0000 0.0212 0.9998
vt 0.812500 0.937500
vt 0.437500 0.937500
vt 0.312500 0.562500
vt 0.812500 0.312500
s 0
usemtl FN_Atlas
f 1/1/1 2/1/1 3/1/1 4/1/1
f 5/1/2 6/1/2 7/1/2 8/1/2
f 1/1/3 4/1/3 6/1/3 5/1/3
f 3/1/4 2/1/4 8/1/4 7/1/4
f 1/1/5 5/1/5 8/1/5 2/1/5
f 4/1/6 3/1/6 7/1/6 6/1/6
f 9/1/1 10/1/1 11/1/1 12/1/1
f 13/1/2 14/1/2 15/1/2 16/1/2
f 9/1/3 12/1/3 14/1/3 13/1/3
f 11/1/4 10/1/4 16/1/4 15/1/4
f 9/1/5 13/1/5 16/1/5 10/1/5
f 12/1/6 11/1/6 15/1/6 14/1/6
f 17/2/1 18/2/1 19/2/1 20/2/1
f 21/2/2 22/2/2 23/2/2 24/2/2
f 17/2/3 20/2/3 22/2/3 21/2/3
f 19/2/4 18/2/4 24/2/4 23/2/4
f 17/2/5 21/2/5 24/2/5 18/2/5
f 20/2/6 19/2/6 23/2/6 22/2/6
f 25/3/1 26/3/1 27/3/1 28/3/1
f 29/3/2 30/3/2 31/3/2 32/3/2
f 28/3/7 27/3/7 30/3/7 29/3/7
f 27/3/8 26/3/8 31/3/8 30/3/8
f 26/3/9 25/3/9 32/3/9 31/3/9
f 25/3/10 28/3/10 29/3/10 32/3/10
f 33/3/1 34/3/1 35/3/1 36/3/1
f 37/3/2 38/3/2 39/3/2 40/3/2
f 36/3/3 35/3/3 38/3/3 37/3/3
f 35/3/11 34/3/11 39/3/11 38/3/11
f 34/3/12 33/3/12 40/3/12 39/3/12
f 33/3/13 36/3/13 37/3/13 40/3/13
f 41/1/1 42/1/1 43/1/1 44/1/1
f 45/1/2 46/1/2 47/1/2 48/1/2
f 41/1/3 44/1/3 46/1/3 45/1/3
f 43/1/4 42/1/4 48/1/4 47/1/4
f 41/1/5 45/1/5 48/1/5 42/1/5
f 44/1/6 43/1/6 47/1/6 46/1/6
f 49/1/1 50/1/1 51/1/1 52/1/1
f 53/1/2 54/1/2 55/1/2 56/1/2
f 49/1/3 52/1/3 54/1/3 53/1/3
f 51/1/4 50/1/4 56/1/4 55/1/4
f 49/1/5 53/1/5 56/1/5 50/1/5
f 52/1/6 51/1/6 55/1/6 54/1/6
f 57/2/1 58/2/1 59/2/1 60/2/1
f 61/2/2 62/2/2 63/2/2 64/2/2
f 57/2/3 60/2/3 62/2/3 61/2/3
f 59/2/4 58/2/4 64/2/4 63/2/4
f 57/2/5 61/2/5 64/2/5 58/2/5
f 60/2/6 59/2/6 63/2/6 62/2/6
f 65/3/1 66/3/1 67/3/1 68/3/1
f 69/3/2 70/3/2 71/3/2 72/3/2
f 68/3/7 67/3/7 70/3/7 69/3/7
f 67/3/8 66/3/8 71/3/8 70/3/8
f 66/3/9 65/3/9 72/3/9 71/3/9
f 65/3/10 68/3/10 69/3/10 72/3/10
f 73/3/1 74/3/1 75/3/1 76/3/1
f 77/3/2 78/3/2 79/3/2 80/3/2
f 76/3/14 75/3/14 78/3/14 77/3/14
f 75/3/11 74/3/11 79/3/11 78/3/11
f 74/3/4 73/3/4 80/3/4 79/3/4
f 73/3/13 76/3/13 77/3/13 80/3/13
f 81/2/1 82/2/1 83/2/1 84/2/1
f 85/2/2 86/2/2 87/2/2 88/2/2
f 81/2/3 84/2/3 86/2/3 85/2/3
f 83/2/4 82/2/4 88/2/4 87/2/4
f 81/2/5 85/2/5 88/2/5 82/2/5
f 84/2/6 83/2/6 87/2/6 86/2/6
f 89/4/1 90/4/1 91/4/1 92/4/1
f 93/4/2 94/4/2 95/4/2 96/4/2
f 89/4/3 92/4/3 94/4/3 93/4/3
f 91/4/4 90/4/4 96/4/4 95/4/4
f 89/4/5 93/4/5 96/4/5 90/4/5
f 92/4/6 91/4/6 95/4/6 94/4/6
f 97/4/1 98/4/1 99/4/1 100/4/1
f 101/4/2 102/4/2 103/4/2 104/4/2
f 97/4/3 100/4/3 102/4/3 101/4/3
f 99/4/4 98/4/4 104/4/4 103/4/4
f 97/4/5 101/4/5 104/4/5 98/4/5
f 100/4/6 99/4/6 103/4/6 102/4/6
f 105/4/1 106/4/1 107/4/1 108/4/1
f 109/4/2 110/4/2 111/4/2 112/4/2
f 105/4/3 108/4/3 110/4/3 109/4/3
f 107/4/4 106/4/4 112/4/4 111/4/4
f 105/4/5 109/4/5 112/4/5 106/4/5
f 108/4/6 107/4/6 111/4/6 110/4/6
f 113/4/1 114/4/1 115/4/1 116/4/1
f 117/4/2 118/4/2 119/4/2 120/4/2
f 113/4/3 116/4/3 118/4/3 117/4/3
f 115/4/4 114/4/4 120/4/4 119/4/4
f 113/4/5 117/4/5 120/4/5 114/4/5
f 116/4/6 115/4/6 119/4/6 118/4/6
