# Blender 5.2.0 LTS
# www.blender.org
mtllib FN_Bench_Stacking.mtl
o FN_Bench_Stacking
v -0.455858 0.044142 0.170000
v -0.470000 0.050000 0.170000
v -0.484142 0.044142 0.170000
v -0.490000 0.030000 0.170000
v -0.484142 0.015858 0.170000
v -0.470000 0.010000 0.170000
v -0.455858 0.015858 0.170000
v -0.450000 0.030000 0.170000
v -0.450000 0.030000 -0.170000
v -0.455858 0.015858 -0.170000
v -0.470000 0.010000 -0.170000
v -0.484142 0.015858 -0.170000
v -0.490000 0.030000 -0.170000
v -0.484142 0.044142 -0.170000
v -0.470000 0.050000 -0.170000
v -0.455858 0.044142 -0.170000
v -0.484142 0.030000 -0.184142
v -0.470000 0.030000 -0.190000
v -0.455858 0.030000 -0.184142
v -0.455858 0.030000 -0.155858
v -0.470000 0.030000 -0.150000
v -0.484142 0.030000 -0.155858
v -0.490000 0.420000 -0.170000
v -0.484142 0.420000 -0.155858
v -0.470000 0.420000 -0.150000
v -0.455858 0.420000 -0.155858
v -0.450000 0.420000 -0.170000
v -0.455858 0.420000 -0.184142
v -0.470000 0.420000 -0.190000
v -0.484142 0.420000 -0.184142
v -0.484142 0.434142 -0.170000
v -0.470000 0.440000 -0.170000
v -0.455858 0.434142 -0.170000
v -0.455858 0.405858 -0.170000
v -0.470000 0.400000 -0.170000
v -0.484142 0.405858 -0.170000
v -0.490000 0.420000 0.170000
v -0.484142 0.405858 0.170000
v -0.470000 0.400000 0.170000
v -0.455858 0.405858 0.170000
v -0.450000 0.420000 0.170000
v -0.455858 0.434142 0.170000
v -0.470000 0.440000 0.170000
v -0.484142 0.434142 0.170000
v -0.496000 0.000000 0.196000
v -0.496000 0.000000 0.144000
v -0.444000 0.000000 0.144000
v -0.444000 0.000000 0.196000
v -0.496000 0.014000 0.196000
v -0.444000 0.014000 0.196000
v -0.444000 0.014000 0.144000
v -0.496000 0.014000 0.144000
v -0.496000 0.000000 -0.144000
v -0.496000 0.000000 -0.196000
v -0.444000 0.000000 -0.196000
v -0.444000 0.000000 -0.144000
v -0.496000 0.014000 -0.144000
v -0.444000 0.014000 -0.144000
v -0.444000 0.014000 -0.196000
v -0.496000 0.014000 -0.196000
v 0.484142 0.044142 0.170000
v 0.470000 0.050000 0.170000
v 0.455858 0.044142 0.170000
v 0.450000 0.030000 0.170000
v 0.455858 0.015858 0.170000
v 0.470000 0.010000 0.170000
v 0.484142 0.015858 0.170000
v 0.490000 0.030000 0.170000
v 0.490000 0.030000 -0.170000
v 0.484142 0.015858 -0.170000
v 0.470000 0.010000 -0.170000
v 0.455858 0.015858 -0.170000
v 0.450000 0.030000 -0.170000
v 0.455858 0.044142 -0.170000
v 0.470000 0.050000 -0.170000
v 0.484142 0.044142 -0.170000
v 0.455858 0.030000 -0.184142
v 0.470000 0.030000 -0.190000
v 0.484142 0.030000 -0.184142
v 0.484142 0.030000 -0.155858
v 0.470000 0.030000 -0.150000
v 0.455858 0.030000 -0.155858
v 0.450000 0.420000 -0.170000
v 0.455858 0.420000 -0.155858
v 0.470000 0.420000 -0.150000
v 0.484142 0.420000 -0.155858
v 0.490000 0.420000 -0.170000
v 0.484142 0.420000 -0.184142
v 0.470000 0.420000 -0.190000
v 0.455858 0.420000 -0.184142
v 0.455858 0.434142 -0.170000
v 0.470000 0.440000 -0.170000
v 0.484142 0.434142 -0.170000
v 0.484142 0.405858 -0.170000
v 0.470000 0.400000 -0.170000
v 0.455858 0.405858 -0.170000
v 0.450000 0.420000 0.170000
v 0.455858 0.405858 0.170000
v 0.470000 0.400000 0.170000
v 0.484142 0.405858 0.170000
v 0.490000 0.420000 0.170000
v 0.484142 0.434142 0.170000
v 0.470000 0.440000 0.170000
v 0.455858 0.434142 0.170000
v 0.444000 0.000000 0.196000
v 0.444000 0.000000 0.144000
v 0.496000 0.000000 0.144000
v 0.496000 0.000000 0.196000
v 0.444000 0.014000 0.196000
v 0.496000 0.014000 0.196000
v 0.496000 0.014000 0.144000
v 0.444000 0.014000 0.144000
v 0.444000 0.000000 -0.144000
v 0.444000 0.000000 -0.196000
v 0.496000 0.000000 -0.196000
v 0.496000 0.000000 -0.144000
v 0.444000 0.014000 -0.144000
v 0.496000 0.014000 -0.144000
v 0.496000 0.014000 -0.196000
v 0.444000 0.014000 -0.196000
v -0.460000 0.209900 -0.160101
v -0.460000 0.214000 -0.170000
v -0.460000 0.209900 -0.179899
v -0.460000 0.200000 -0.184000
v -0.460000 0.190101 -0.179899
v -0.460000 0.186000 -0.170000
v -0.460000 0.190101 -0.160101
v -0.460000 0.200000 -0.156000
v 0.460000 0.200000 -0.156000
v 0.460000 0.190101 -0.160101
v 0.460000 0.186000 -0.170000
v 0.460000 0.190101 -0.179899
v 0.460000 0.200000 -0.184000
v 0.460000 0.209900 -0.179899
v 0.460000 0.214000 -0.170000
v 0.460000 0.209900 -0.160101
v -0.600000 0.410000 0.180000
v -0.600000 0.410000 -0.180000
v 0.600000 0.410000 -0.180000
v 0.600000 0.410000 0.180000
v -0.600000 0.444000 0.180000
v 0.600000 0.444000 0.180000
v 0.600000 0.444000 -0.180000
v -0.600000 0.444000 -0.180000
v -0.594000 0.450000 0.174000
v 0.594000 0.450000 0.174000
v 0.594000 0.450000 -0.174000
v -0.594000 0.450000 -0.174000
vn -0.0000 -0.0000 1.0000
vn -0.0000 -0.0000 -1.0000
vn 0.9239 -0.3827 -0.0000
vn 0.3827 -0.9239 -0.0000
vn -0.3827 -0.9239 -0.0000
vn -0.9239 -0.3827 -0.0000
vn -0.9239 0.3827 -0.0000
vn -0.3827 0.9239 -0.0000
vn 0.3827 0.9239 -0.0000
vn 0.9239 0.3827 -0.0000
vn -0.0000 -1.0000 -0.0000
vn -0.0000 1.0000 -0.0000
vn -0.9239 -0.0000 0.3827
vn -0.3827 -0.0000 0.9239
vn 0.3827 -0.0000 0.9239
vn 0.9239 -0.0000 0.3827
vn 0.9239 -0.0000 -0.3827
vn 0.3827 -0.0000 -0.9239
vn -0.3827 -0.0000 -0.9239
vn -0.9239 -0.0000 -0.3827
vn -1.0000 -0.0000 -0.0000
vn 1.0000 -0.0000 -0.0000
vn -0.0000 -0.3827 0.9239
vn -0.0000 -0.9239 0.3827
vn -0.0000 -0.9239 -0.3827
vn -0.0000 -0.3827 -0.9239
vn -0.0000 0.3827 -0.9239
vn -0.0000 0.9239 -0.3827
vn -0.0000 0.9239 0.3827
vn -0.0000 0.3827 0.9239
vn -0.0000 0.7071 0.7071
vn 0.7071 0.7071 -0.0000
vn -0.0000 0.7071 -0.7071
vn -0.7071 0.7071 -0.0000
vt 0.687500 0.312500
vt 0.937500 0.187500
vt 0.062500 0.812500
s 0
usemtl FN_Atlas
f 1/1/1 2/1/1 3/1/1 4/1/1 5/1/1 6/1/1 7/1/1 8/1/1
f 9/1/2 10/1/2 11/1/2 12/1/2 13/1/2 14/1/2 15/1/2 16/1/2
f 8/1/3 7/1/3 10/1/3 9/1/3
f 7/1/4 6/1/4 11/1/4 10/1/4
f 6/1/5 5/1/5 12/1/5 11/1/5
f 5/1/6 4/1/6 13/1/6 12/1/6
f 4/1/7 3/1/7 14/1/7 13/1/7
f 3/1/8 2/1/8 15/1/8 14/1/8
f 2/1/9 1/1/9 16/1/9 15/1/9
f 1/1/10 8/1/10 9/1/10 16/1/10
f 17/1/11 18/1/11 19/1/11 9/1/11 20/1/11 21/1/11 22/1/11 13/1/11
f 23/1/12 24/1/12 25/1/12 26/1/12 27/1/12 28/1/12 29/1/12 30/1/12
f 13/1/13 22/1/13 24/1/13 23/1/13
f 22/1/14 21/1/14 25/1/14 24/1/14
f 21/1/15 20/1/15 26/1/15 25/1/15
f 20/1/16 9/1/16 27/1/16 26/1/16
f 9/1/17 19/1/17 28/1/17 27/1/17
f 19/1/18 18/1/18 29/1/18 28/1/18
f 18/1/19 17/1/19 30/1/19 29/1/19
f 17/1/20 13/1/20 23/1/20 30/1/20
f 31/1/2 32/1/2 33/1/2 27/1/2 34/1/2 35/1/2 36/1/2 23/1/2
f 37/1/1 38/1/1 39/1/1 40/1/1 41/1/1 42/1/1 43/1/1 44/1/1
f 23/1/6 36/1/6 38/1/6 37/1/6
f 36/1/5 35/1/5 39/1/5 38/1/5
f 35/1/4 34/1/4 40/1/4 39/1/4
f 34/1/3 27/1/3 41/1/3 40/1/3
f 27/1/10 33/1/10 42/1/10 41/1/10
f 33/1/9 32/1/9 43/1/9 42/1/9
f 32/1/8 31/1/8 44/1/8 43/1/8
f 31/1/7 23/1/7 37/1/7 44/1/7
f 45/2/11 46/2/11 47/2/11 48/2/11
f 49/2/12 50/2/12 51/2/12 52/2/12
f 45/2/1 48/2/1 50/2/1 49/2/1
f 47/2/2 46/2/2 52/2/2 51/2/2
f 45/2/21 49/2/21 52/2/21 46/2/21
f 48/2/22 47/2/22 51/2/22 50/2/22
f 53/2/11 54/2/11 55/2/11 56/2/11
f 57/2/12 58/2/12 59/2/12 60/2/12
f 53/2/1 56/2/1 58/2/1 57/2/1
f 55/2/2 54/2/2 60/2/2 59/2/2
f 53/2/21 57/2/21 60/2/21 54/2/21
f 56/2/22 55/2/22 59/2/22 58/2/22
f 61/1/1 62/1/1 63/1/1 64/1/1 65/1/1 66/1/1 67/1/1 68/1/1
f 69/1/2 70/1/2 71/1/2 72/1/2 73/1/2 74/1/2 75/1/2 76/1/2
f 68/1/3 67/1/3 70/1/3 69/1/3
f 67/1/4 66/1/4 71/1/4 70/1/4
f 66/1/5 65/1/5 72/1/5 71/1/5
f 65/1/6 64/1/6 73/1/6 72/1/6
f 64/1/7 63/1/7 74/1/7 73/1/7
f 63/1/8 62/1/8 75/1/8 74/1/8
f 62/1/9 61/1/9 76/1/9 75/1/9
f 61/1/10 68/1/10 69/1/10 76/1/10
f 77/1/11 78/1/11 79/1/11 69/1/11 80/1/11 81/1/11 82/1/11 73/1/11
f 83/1/12 84/1/12 85/1/12 86/1/12 87/1/12 88/1/12 89/1/12 90/1/12
f 73/1/13 82/1/13 84/1/13 83/1/13
f 82/1/14 81/1/14 85/1/14 84/1/14
f 81/1/15 80/1/15 86/1/15 85/1/15
f 80/1/16 69/1/16 87/1/16 86/1/16
f 69/1/17 79/1/17 88/1/17 87/1/17
f 79/1/18 78/1/18 89/1/18 88/1/18
f 78/1/19 77/1/19 90/1/19 89/1/19
f 77/1/20 73/1/20 83/1/20 90/1/20
f 91/1/2 92/1/2 93/1/2 87/1/2 94/1/2 95/1/2 96/1/2 83/1/2
f 97/1/1 98/1/1 99/1/1 100/1/1 101/1/1 102/1/1 103/1/1 104/1/1
f 83/1/6 96/1/6 98/1/6 97/1/6
f 96/1/5 95/1/5 99/1/5 98/1/5
f 95/1/4 94/1/4 100/1/4 99/1/4
f 94/1/3 87/1/3 101/1/3 100/1/3
f 87/1/10 93/1/10 102/1/10 101/1/10
f 93/1/9 92/1/9 103/1/9 102/1/9
f 92/1/8 91/1/8 104/1/8 103/1/8
f 91/1/7 83/1/7 97/1/7 104/1/7
f 105/2/11 106/2/11 107/2/11 108/2/11
f 109/2/12 110/2/12 111/2/12 112/2/12
f 105/2/1 108/2/1 110/2/1 109/2/1
f 107/2/2 106/2/2 112/2/2 111/2/2
f 105/2/21 109/2/21 112/2/21 106/2/21
f 108/2/22 107/2/22 111/2/22 110/2/22
f 113/2/11 114/2/11 115/2/11 116/2/11
f 117/2/12 118/2/12 119/2/12 120/2/12
f 113/2/1 116/2/1 118/2/1 117/2/1
f 115/2/2 114/2/2 120/2/2 119/2/2
f 113/2/21 117/2/21 120/2/21 114/2/21
f 116/2/22 115/2/22 119/2/22 118/2/22
f 121/1/21 122/1/21 123/1/21 124/1/21 125/1/21 126/1/21 127/1/21 128/1/21
f 129/1/22 130/1/22 131/1/22 132/1/22 133/1/22 134/1/22 135/1/22 136/1/22
f 128/1/23 127/1/23 130/1/23 129/1/23
f 127/1/24 126/1/24 131/1/24 130/1/24
f 126/1/25 125/1/25 132/1/25 131/1/25
f 125/1/26 124/1/26 133/1/26 132/1/26
f 124/1/27 123/1/27 134/1/27 133/1/27
f 123/1/28 122/1/28 135/1/28 134/1/28
f 122/1/29 121/1/29 136/1/29 135/1/29
f 121/1/30 128/1/30 129/1/30 136/1/30
f 137/3/11 138/3/11 139/3/11 140/3/11
f 141/3/12 142/3/12 143/3/12 144/3/12
f 137/3/1 140/3/1 142/3/1 141/3/1
f 139/3/2 138/3/2 144/3/2 143/3/2
f 137/3/21 141/3/21 144/3/21 138/3/21
f 140/3/22 139/3/22 143/3/22 142/3/22
f 145/3/12 146/3/12 147/3/12 148/3/12
f 141/3/31 142/3/31 146/3/31 145/3/31
f 142/3/32 143/3/32 147/3/32 146/3/32
f 143/3/33 144/3/33 148/3/33 147/3/33
f 144/3/34 141/3/34 145/3/34 148/3/34
