# Blender 5.2.0 LTS
# www.blender.org
mtllib FN_Bench_Bar.mtl
o FN_Bench_Bar
v -0.576000 0.000000 0.150000
v -0.536000 0.000000 0.150000
v -0.536000 0.000000 0.190000
v -0.576000 0.000000 0.190000
v -0.540000 0.700000 0.160000
v -0.500000 0.700000 0.160000
v -0.500000 0.700000 0.120000
v -0.540000 0.700000 0.120000
v -0.576000 0.000000 -0.190000
v -0.536000 0.000000 -0.190000
v -0.536000 0.000000 -0.150000
v -0.576000 0.000000 -0.150000
v -0.540000 0.700000 -0.120000
v -0.500000 0.700000 -0.120000
v -0.500000 0.700000 -0.160000
v -0.540000 0.700000 -0.160000
v 0.536000 0.000000 0.150000
v 0.576000 0.000000 0.150000
v 0.576000 0.000000 0.190000
v 0.536000 0.000000 0.190000
v 0.500000 0.700000 0.160000
v 0.540000 0.700000 0.160000
v 0.540000 0.700000 0.120000
v 0.500000 0.700000 0.120000
v 0.536000 0.000000 -0.190000
v 0.576000 0.000000 -0.190000
v 0.576000 0.000000 -0.150000
v 0.536000 0.000000 -0.150000
v 0.500000 0.700000 -0.120000
v 0.540000 0.700000 -0.120000
v 0.540000 0.700000 -0.160000
v 0.500000 0.700000 -0.160000
v -0.560000 0.690000 0.156000
v -0.560000 0.690000 0.124000
v 0.560000 0.690000 0.124000
v 0.560000 0.690000 0.156000
v -0.560000 0.720000 0.156000
v 0.560000 0.720000 0.156000
v 0.560000 0.720000 0.124000
v -0.560000 0.720000 0.124000
v -0.560000 0.690000 -0.124000
v -0.560000 0.690000 -0.156000
v 0.560000 0.690000 -0.156000
v 0.560000 0.690000 -0.124000
v -0.560000 0.720000 -0.124000
v 0.560000 0.720000 -0.124000
v 0.560000 0.720000 -0.156000
v -0.560000 0.720000 -0.156000
v -0.550789 0.200000 0.178657
v -0.550789 0.200000 0.142657
v 0.550789 0.200000 0.142657
v 0.550789 0.200000 0.178657
v -0.550789 0.236000 0.178657
v 0.550789 0.236000 0.178657
v 0.550789 0.236000 0.142657
v -0.550789 0.236000 0.142657
v -0.550789 0.200000 -0.142657
v -0.550789 0.200000 -0.178657
v 0.550789 0.200000 -0.178657
v 0.550789 0.200000 -0.142657
v -0.550789 0.236000 -0.142657
v 0.550789 0.236000 -0.142657
v 0.550789 0.236000 -0.178657
v -0.550789 0.236000 -0.178657
v -0.562789 0.200000 0.166657
v -0.562789 0.200000 -0.166657
v -0.526789 0.200000 -0.166657
v -0.526789 0.200000 0.166657
v -0.562789 0.236000 0.166657
v -0.526789 0.236000 0.166657
v -0.526789 0.236000 -0.166657
v -0.562789 0.236000 -0.166657
v 0.526789 0.200000 0.166657
v 0.526789 0.200000 -0.166657
v 0.562789 0.200000 -0.166657
v 0.562789 0.200000 0.166657
v 0.526789 0.236000 0.166657
v 0.562789 0.236000 0.166657
v 0.562789 0.236000 -0.166657
v 0.526789 0.236000 -0.166657
v -0.598000 0.714000 0.190000
v -0.598000 0.714000 -0.190000
v -0.474000 0.714000 -0.190000
v -0.474000 0.714000 0.190000
v -0.598000 0.745000 0.190000
v -0.474000 0.745000 0.190000
v -0.474000 0.745000 -0.190000
v -0.598000 0.745000 -0.190000
v -0.593000 0.750000 0.185000
v -0.479000 0.750000 0.185000
v -0.479000 0.750000 -0.185000
v -0.593000 0.750000 -0.185000
v -0.464000 0.714000 0.190000
v -0.464000 0.714000 -0.190000
v -0.340000 0.714000 -0.190000
v -0.340000 0.714000 0.190000
v -0.464000 0.745000 0.190000
v -0.340000 0.745000 0.190000
v -0.340000 0.745000 -0.190000
v -0.464000 0.745000 -0.190000
v -0.459000 0.750000 0.185000
v -0.345000 0.750000 0.185000
v -0.345000 0.750000 -0.185000
v -0.459000 0.750000 -0.185000
v -0.330000 0.714000 0.190000
v -0.330000 0.714000 -0.190000
v -0.206000 0.714000 -0.190000
v -0.206000 0.714000 0.190000
v -0.330000 0.745000 0.190000
v -0.206000 0.745000 0.190000
v -0.206000 0.745000 -0.190000
v -0.330000 0.745000 -0.190000
v -0.325000 0.750000 0.185000
v -0.211000 0.750000 0.185000
v -0.211000 0.750000 -0.185000
v -0.325000 0.750000 -0.185000
v -0.196000 0.714000 0.190000
v -0.196000 0.714000 -0.190000
v -0.072000 0.714000 -0.190000
v -0.072000 0.714000 0.190000
v -0.196000 0.745000 0.190000
v -0.072000 0.745000 0.190000
v -0.072000 0.745000 -0.190000
v -0.196000 0.745000 -0.190000
v -0.191000 0.750000 0.185000
v -0.077000 0.750000 0.185000
v -0.077000 0.750000 -0.185000
v -0.191000 0.750000 -0.185000
v -0.062000 0.714000 0.190000
v -0.062000 0.714000 -0.190000
v 0.062000 0.714000 -0.190000
v 0.062000 0.714000 0.190000
v -0.062000 0.745000 0.190000
v 0.062000 0.745000 0.190000
v 0.062000 0.745000 -0.190000
v -0.062000 0.745000 -0.190000
v -0.057000 0.750000 0.185000
v 0.057000 0.750000 0.185000
v 0.057000 0.750000 -0.185000
v -0.057000 0.750000 -0.185000
v 0.072000 0.714000 0.190000
v 0.072000 0.714000 -0.190000
v 0.196000 0.714000 -0.190000
v 0.196000 0.714000 0.190000
v 0.072000 0.745000 0.190000
v 0.196000 0.745000 0.190000
v 0.196000 0.745000 -0.190000
v 0.072000 0.745000 -0.190000
v 0.077000 0.750000 0.185000
v 0.191000 0.750000 0.185000
v 0.191000 0.750000 -0.185000
v 0.077000 0.750000 -0.185000
v 0.206000 0.714000 0.190000
v 0.206000 0.714000 -0.190000
v 0.330000 0.714000 -0.190000
v 0.330000 0.714000 0.190000
v 0.206000 0.745000 0.190000
v 0.330000 0.745000 0.190000
v 0.330000 0.745000 -0.190000
v 0.206000 0.745000 -0.190000
v 0.211000 0.750000 0.185000
v 0.325000 0.750000 0.185000
v 0.325000 0.750000 -0.185000
v 0.211000 0.750000 -0.185000
v 0.340000 0.714000 0.190000
v 0.340000 0.714000 -0.190000
v 0.464000 0.714000 -0.190000
v 0.464000 0.714000 0.190000
v 0.340000 0.745000 0.190000
v 0.464000 0.745000 0.190000
v 0.464000 0.745000 -0.190000
v 0.340000 0.745000 -0.190000
v 0.345000 0.750000 0.185000
v 0.459000 0.750000 0.185000
v 0.459000 0.750000 -0.185000
v 0.345000 0.750000 -0.185000
v 0.474000 0.714000 0.190000
v 0.474000 0.714000 -0.190000
v 0.598000 0.714000 -0.190000
v 0.598000 0.714000 0.190000
v 0.474000 0.745000 0.190000
v 0.598000 0.745000 0.190000
v 0.598000 0.745000 -0.190000
v 0.474000 0.745000 -0.190000
v 0.479000 0.750000 0.185000
v 0.593000 0.750000 0.185000
v 0.593000 0.750000 -0.185000
v 0.479000 0.750000 -0.185000
vn -0.0000 -1.0000 -0.0000
vn -0.0000 1.0000 -0.0000
vn -0.0000 0.0428 0.9991
vn 0.9987 -0.0514 -0.0000
vn -0.0000 -0.0428 -0.9991
vn -0.9987 0.0514 -0.0000
vn -0.0000 -0.0428 0.9991
vn -0.0000 0.0428 -0.9991
vn 0.9987 0.0514 -0.0000
vn -0.9987 -0.0514 -0.0000
vn -0.0000 -0.0000 1.0000
vn -0.0000 -0.0000 -1.0000
vn -1.0000 -0.0000 -0.0000
vn 1.0000 -0.0000 -0.0000
vn -0.0000 0.7071 0.7071
vn 0.7071 0.7071 -0.0000
vn -0.0000 0.7071 -0.7071
vn -0.7071 0.7071 -0.0000
vt 0.937500 0.812500
vt 0.437500 0.937500
s 0
usemtl FN_Atlas
f 1/1/1 2/1/1 3/1/1 4/1/1
f 5/1/2 6/1/2 7/1/2 8/1/2
f 4/1/3 3/1/3 6/1/3 5/1/3
f 3/1/4 2/1/4 7/1/4 6/1/4
f 2/1/5 1/1/5 8/1/5 7/1/5
f 1/1/6 4/1/6 5/1/6 8/1/6
f 9/1/1 10/1/1 11/1/1 12/1/1
f 13/1/2 14/1/2 15/1/2 16/1/2
f 12/1/7 11/1/7 14/1/7 13/1/7
f 11/1/4 10/1/4 15/1/4 14/1/4
f 10/1/8 9/1/8 16/1/8 15/1/8
f 9/1/6 12/1/6 13/1/6 16/1/6
f 17/1/1 18/1/1 19/1/1 20/1/1
f 21/1/2 22/1/2 23/1/2 24/1/2
f 20/1/3 19/1/3 22/1/3 21/1/3
f 19/1/9 18/1/9 23/1/9 22/1/9
f 18/1/5 17/1/5 24/1/5 23/1/5
f 17/1/10 20/1/10 21/1/10 24/1/10
f 25/1/1 26/1/1 27/1/1 28/1/1
f 29/1/2 30/1/2 31/1/2 32/1/2
f 28/1/7 27/1/7 30/1/7 29/1/7
f 27/1/9 26/1/9 31/1/9 30/1/9
f 26/1/8 25/1/8 32/1/8 31/1/8
f 25/1/10 28/1/10 29/1/10 32/1/10
f 33/1/1 34/1/1 35/1/1 36/1/1
f 37/1/2 38/1/2 39/1/2 40/1/2
f 33/1/11 36/1/11 38/1/11 37/1/11
f 35/1/12 34/1/12 40/1/12 39/1/12
f 33/1/13 37/1/13 40/1/13 34/1/13
f 36/1/14 35/1/14 39/1/14 38/1/14
f 41/1/1 42/1/1 43/1/1 44/1/1
f 45/1/2 46/1/2 47/1/2 48/1/2
f 41/1/11 44/1/11 46/1/11 45/1/11
f 43/1/12 42/1/12 48/1/12 47/1/12
f 41/1/13 45/1/13 48/1/13 42/1/13
f 44/1/14 43/1/14 47/1/14 46/1/14
f 49/1/1 50/1/1 51/1/1 52/1/1
f 53/1/2 54/1/2 55/1/2 56/1/2
f 49/1/11 52/1/11 54/1/11 53/1/11
f 51/1/12 50/1/12 56/1/12 55/1/12
f 49/1/13 53/1/13 56/1/13 50/1/13
f 52/1/14 51/1/14 55/1/14 54/1/14
f 57/1/1 58/1/1 59/1/1 60/1/1
f 61/1/2 62/1/2 63/1/2 64/1/2
f 57/1/11 60/1/11 62/1/11 61/1/11
f 59/1/12 58/1/12 64/1/12 63/1/12
f 57/1/13 61/1/13 64/1/13 58/1/13
f 60/1/14 59/1/14 63/1/14 62/1/14
f 65/1/1 66/1/1 67/1/1 68/1/1
f 69/1/2 70/1/2 71/1/2 72/1/2
f 65/1/11 68/1/11 70/1/11 69/1/11
f 67/1/12 66/1/12 72/1/12 71/1/12
f 65/1/13 69/1/13 72/1/13 66/1/13
f 68/1/14 67/1/14 71/1/14 70/1/14
f 73/1/1 74/1/1 75/1/1 76/1/1
f 77/1/2 78/1/2 79/1/2 80/1/2
f 73/1/11 76/1/11 78/1/11 77/1/11
f 75/1/12 74/1/12 80/1/12 79/1/12
f 73/1/13 77/1/13 80/1/13 74/1/13
f 76/1/14 75/1/14 79/1/14 78/1/14
f 81/2/1 82/2/1 83/2/1 84/2/1
f 85/2/2 86/2/2 87/2/2 88/2/2
f 81/2/11 84/2/11 86/2/11 85/2/11
f 83/2/12 82/2/12 88/2/12 87/2/12
f 81/2/13 85/2/13 88/2/13 82/2/13
f 84/2/14 83/2/14 87/2/14 86/2/14
f 89/2/2 90/2/2 91/2/2 92/2/2
f 85/2/15 86/2/15 90/2/15 89/2/15
f 86/2/16 87/2/16 91/2/16 90/2/16
f 87/2/17 88/2/17 92/2/17 91/2/17
f 88/2/18 85/2/18 89/2/18 92/2/18
f 93/2/1 94/2/1 95/2/1 96/2/1
f 97/2/2 98/2/2 99/2/2 100/2/2
f 93/2/11 96/2/11 98/2/11 97/2/11
f 95/2/12 94/2/12 100/2/12 99/2/12
f 93/2/13 97/2/13 100/2/13 94/2/13
f 96/2/14 95/2/14 99/2/14 98/2/14
f 101/2/2 102/2/2 103/2/2 104/2/2
f 97/2/15 98/2/15 102/2/15 101/2/15
f 98/2/16 99/2/16 103/2/16 102/2/16
f 99/2/17 100/2/17 104/2/17 103/2/17
f 100/2/18 97/2/18 101/2/18 104/2/18
f 105/2/1 106/2/1 107/2/1 108/2/1
f 109/2/2 110/2/2 111/2/2 112/2/2
f 105/2/11 108/2/11 110/2/11 109/2/11
f 107/2/12 106/2/12 112/2/12 111/2/12
f 105/2/13 109/2/13 112/2/13 106/2/13
f 108/2/14 107/2/14 111/2/14 110/2/14
f 113/2/2 114/2/2 115/2/2 116/2/2
f 109/2/15 110/2/15 114/2/15 113/2/15
f 110/2/16 111/2/16 115/2/16 114/2/16
f 111/2/17 112/2/17 116/2/17 115/2/17
f 112/2/18 109/2/18 113/2/18 116/2/18
f 117/2/1 118/2/1 119/2/1 120/2/1
f 121/2/2 122/2/2 123/2/2 124/2/2
f 117/2/11 120/2/11 122/2/11 121/2/11
f 119/2/12 118/2/12 124/2/12 123/2/12
f 117/2/13 121/2/13 124/2/13 118/2/13
f 120/2/14 119/2/14 123/2/14 122/2/14
f 125/2/2 126/2/2 127/2/2 128/2/2
f 121/2/15 122/2/15 126/2/15 125/2/15
f 122/2/16 123/2/16 127/2/16 126/2/16
f 123/2/17 124/2/17 128/2/17 127/2/17
f 124/2/18 121/2/18 125/2/18 128/2/18
f 129/2/1 130/2/1 131/2/1 132/2/1
f 133/2/2 134/2/2 135/2/2 136/2/2
f 129/2/11 132/2/11 134/2/11 133/2/11
f 131/2/12 130/2/12 136/2/12 135/2/12
f 129/2/13 133/2/13 136/2/13 130/2/13
f 132/2/14 131/2/14 135/2/14 134/2/14
f 137/2/2 138/2/2 139/2/2 140/2/2
f 133/2/15 134/2/15 138/2/15 137/2/15
f 134/2/16 135/2/16 139/2/16 138/2/16
f 135/2/17 136/2/17 140/2/17 139/2/17
f 136/2/18 133/2/18 137/2/18 140/2/18
f 141/2/1 142/2/1 143/2/1 144/2/1
f 145/2/2 146/2/2 147/2/2 148/2/2
f 141/2/11 144/2/11 146/2/11 145/2/11
f 143/2/12 142/2/12 148/2/12 147/2/12
f 141/2/13 145/2/13 148/2/13 142/2/13
f 144/2/14 143/2/14 147/2/14 146/2/14
f 149/2/2 150/2/2 151/2/2 152/2/2
f 145/2/15 146/2/15 150/2/15 149/2/15
f 146/2/16 147/2/16 151/2/16 150/2/16
f 147/2/17 148/2/17 152/2/17 151/2/17
f 148/2/18 145/2/18 149/2/18 152/2/18
f 153/2/1 154/2/1 155/2/1 156/2/1
f 157/2/2 158/2/2 159/2/2 160/2/2
f 153/2/11 156/2/11 158/2/11 157/2/11
f 155/2/12 154/2/12 160/2/12 159/2/12
f 153/2/13 157/2/13 160/2/13 154/2/13
f 156/2/14 155/2/14 159/2/14 158/2/14
f 161/2/2 162/2/2 163/2/2 164/2/2
f 157/2/15 158/2/15 162/2/15 161/2/15
f 158/2/16 159/2/16 163/2/16 162/2/16
f 159/2/17 160/2/17 164/2/17 163/2/17
f 160/2/18 157/2/18 161/2/18 164/2/18
f 165/2/1 166/2/1 167/2/1 168/2/1
f 169/2/2 170/2/2 171/2/2 172/2/2
f 165/2/11 168/2/11 170/2/11 169/2/11
f 167/2/12 166/2/12 172/2/12 171/2/12
f 165/2/13 169/2/13 172/2/13 166/2/13
f 168/2/14 167/2/14 171/2/14 170/2/14
f 173/2/2 174/2/2 175/2/2 176/2/2
f 169/2/15 170/2/15 174/2/15 173/2/15
f 170/2/16 171/2/16 175/2/16 174/2/16
f 171/2/17 172/2/17 176/2/17 175/2/17
f 172/2/18 169/2/18 173/2/18 176/2/18
f 177/2/1 178/2/1 179/2/1 180/2/1
f 181/2/2 182/2/2 183/2/2 184/2/2
f 177/2/11 180/2/11 182/2/11 181/2/11
f 179/2/12 178/2/12 184/2/12 183/2/12
f 177/2/13 181/2/13 184/2/13 178/2/13
f 180/2/14 179/2/14 183/2/14 182/2/14
f 185/2/2 186/2/2 187/2/2 188/2/2
f 181/2/15 182/2/15 186/2/15 185/2/15
f 182/2/16 183/2/16 187/2/16 186/2/16
f 183/2/17 184/2/17 188/2/17 187/2/17
f 184/2/18 181/2/18 185/2/18 188/2/18
