# Blender 5.2.0 LTS
# www.blender.org
mtllib FN_Board_White.mtl
o FN_Board_White
v -0.900000 0.000000 0.000000
v -0.900000 0.000000 -0.030000
v 0.900000 0.000000 -0.030000
v 0.900000 0.000000 0.000000
v -0.900000 0.028000 0.000000
v 0.900000 0.028000 0.000000
v 0.900000 0.028000 -0.030000
v -0.900000 0.028000 -0.030000
v -0.900000 0.972000 0.000000
v -0.900000 0.972000 -0.030000
v 0.900000 0.972000 -0.030000
v 0.900000 0.972000 0.000000
v -0.900000 1.000000 0.000000
v 0.900000 1.000000 0.000000
v 0.900000 1.000000 -0.030000
v -0.900000 1.000000 -0.030000
v -0.872000 0.000000 -0.030000
v -0.872000 0.000000 0.000000
v -0.872000 1.000000 0.000000
v -0.872000 1.000000 -0.030000
v 0.872000 0.000000 0.000000
v 0.872000 0.000000 -0.030000
v 0.872000 1.000000 0.000000
v 0.872000 1.000000 -0.030000
v -0.872000 0.028000 -0.004000
v -0.872000 0.028000 -0.022000
v 0.872000 0.028000 -0.022000
v 0.872000 0.028000 -0.004000
v -0.872000 0.972000 -0.004000
v 0.872000 0.972000 -0.004000
v 0.872000 0.972000 -0.022000
v -0.872000 0.972000 -0.022000
v -0.420000 0.038000 -0.024000
v -0.420000 0.038000 -0.090000
v 0.420000 0.038000 -0.090000
v 0.420000 0.038000 -0.024000
v -0.420000 0.070000 -0.024000
v 0.420000 0.070000 -0.024000
v 0.420000 0.070000 -0.090000
v -0.420000 0.070000 -0.090000
v -0.330000 0.079526 -0.052500
v -0.330000 0.079526 -0.063500
v -0.330000 0.070000 -0.069000
v -0.330000 0.060474 -0.063500
v -0.330000 0.060474 -0.052500
v -0.330000 0.070000 -0.047000
v -0.200000 0.070000 -0.047000
v -0.200000 0.060474 -0.052500
v -0.200000 0.060474 -0.063500
v -0.200000 0.070000 -0.069000
v -0.200000 0.079526 -0.063500
v -0.200000 0.079526 -0.052500
v -0.180000 0.079526 -0.052500
v -0.180000 0.079526 -0.063500
v -0.180000 0.070000 -0.069000
v -0.180000 0.060474 -0.063500
v -0.180000 0.060474 -0.052500
v -0.180000 0.070000 -0.047000
v -0.050000 0.070000 -0.047000
v -0.050000 0.060474 -0.052500
v -0.050000 0.060474 -0.063500
v -0.050000 0.070000 -0.069000
v -0.050000 0.079526 -0.063500
v -0.050000 0.079526 -0.052500
v -0.030000 0.079526 -0.052500
v -0.030000 0.079526 -0.063500
v -0.030000 0.070000 -0.069000
v -0.030000 0.060474 -0.063500
v -0.030000 0.060474 -0.052500
v -0.030000 0.070000 -0.047000
v 0.100000 0.070000 -0.047000
v 0.100000 0.060474 -0.052500
v 0.100000 0.060474 -0.063500
v 0.100000 0.070000 -0.069000
v 0.100000 0.079526 -0.063500
v 0.100000 0.079526 -0.052500
v 0.180000 0.058000 -0.036000
v 0.180000 0.058000 -0.082000
v 0.320000 0.058000 -0.082000
v 0.320000 0.058000 -0.036000
v 0.180000 0.104000 -0.036000
v 0.320000 0.104000 -0.036000
v 0.320000 0.104000 -0.082000
v 0.180000 0.104000 -0.082000
vn -0.0000 -1.0000 -0.0000
vn -0.0000 1.0000 -0.0000
vn -0.0000 -0.0000 1.0000
vn -0.0000 -0.0000 -1.0000
vn -1.0000 -0.0000 -0.0000
vn 1.0000 -0.0000 -0.0000
vn -0.0000 -0.5000 0.8660
vn -0.0000 -0.5000 -0.8660
vn -0.0000 0.5000 -0.8660
vn -0.0000 0.5000 0.8660
vt 0.062500 0.312500
vt 0.437500 0.812500
vt 0.312500 0.062500
vt 0.437500 0.062500
vt 0.812500 0.312500
vt 0.812500 0.687500
s 0
usemtl FN_Atlas
f 1/1/1 2/1/1 3/1/1 4/1/1
f 5/1/2 6/1/2 7/1/2 8/1/2
f 1/1/3 4/1/3 6/1/3 5/1/3
f 3/1/4 2/1/4 8/1/4 7/1/4
f 1/1/5 5/1/5 8/1/5 2/1/5
f 4/1/6 3/1/6 7/1/6 6/1/6
f 9/1/1 10/1/1 11/1/1 12/1/1
f 13/1/2 14/1/2 15/1/2 16/1/2
f 9/1/3 12/1/3 14/1/3 13/1/3
f 11/1/4 10/1/4 16/1/4 15/1/4
f 9/1/5 13/1/5 16/1/5 10/1/5
f 12/1/6 11/1/6 15/1/6 14/1/6
f 1/1/1 2/1/1 17/1/1 18/1/1
f 13/1/2 19/1/2 20/1/2 16/1/2
f 1/1/3 18/1/3 19/1/3 13/1/3
f 17/1/4 2/1/4 16/1/4 20/1/4
f 1/1/5 13/1/5 16/1/5 2/1/5
f 18/1/6 17/1/6 20/1/6 19/1/6
f 21/1/1 22/1/1 3/1/1 4/1/1
f 23/1/2 14/1/2 15/1/2 24/1/2
f 21/1/3 4/1/3 14/1/3 23/1/3
f 3/1/4 22/1/4 24/1/4 15/1/4
f 21/1/5 23/1/5 24/1/5 22/1/5
f 4/1/6 3/1/6 15/1/6 14/1/6
f 25/2/1 26/2/1 27/2/1 28/2/1
f 29/2/2 30/2/2 31/2/2 32/2/2
f 25/2/3 28/2/3 30/2/3 29/2/3
f 27/2/4 26/2/4 32/2/4 31/2/4
f 25/2/5 29/2/5 32/2/5 26/2/5
f 28/2/6 27/2/6 31/2/6 30/2/6
f 33/1/1 34/1/1 35/1/1 36/1/1
f 37/1/2 38/1/2 39/1/2 40/1/2
f 33/1/3 36/1/3 38/1/3 37/1/3
f 35/1/4 34/1/4 40/1/4 39/1/4
f 33/1/5 37/1/5 40/1/5 34/1/5
f 36/1/6 35/1/6 39/1/6 38/1/6
f 41/3/5 42/3/5 43/3/5 44/3/5 45/3/5 46/3/5
f 47/3/6 48/3/6 49/3/6 50/3/6 51/3/6 52/3/6
f 46/3/7 45/3/7 48/3/7 47/3/7
f 45/3/1 44/3/1 49/3/1 48/3/1
f 44/3/8 43/3/8 50/3/8 49/3/8
f 43/3/9 42/3/9 51/3/9 50/3/9
f 42/3/2 41/3/2 52/3/2 51/3/2
f 41/3/10 46/3/10 47/3/10 52/3/10
f 53/4/5 54/4/5 55/4/5 56/4/5 57/4/5 58/4/5
f 59/4/6 60/4/6 61/4/6 62/4/6 63/4/6 64/4/6
f 58/4/7 57/4/7 60/4/7 59/4/7
f 57/4/1 56/4/1 61/4/1 60/4/1
f 56/4/8 55/4/8 62/4/8 61/4/8
f 55/4/9 54/4/9 63/4/9 62/4/9
f 54/4/2 53/4/2 64/4/2 63/4/2
f 53/4/10 58/4/10 59/4/10 64/4/10
f 65/5/5 66/5/5 67/5/5 68/5/5 69/5/5 70/5/5
f 71/5/6 72/5/6 73/5/6 74/5/6 75/5/6 76/5/6
f 70/5/7 69/5/7 72/5/7 71/5/7
f 69/5/1 68/5/1 73/5/1 72/5/1
f 68/5/8 67/5/8 74/5/8 73/5/8
f 67/5/9 66/5/9 75/5/9 74/5/9
f 66/5/2 65/5/2 76/5/2 75/5/2
f 65/5/10 70/5/10 71/5/10 76/5/10
f 77/6/1 78/6/1 79/6/1 80/6/1
f 81/6/2 82/6/2 83/6/2 84/6/2
f 77/6/3 80/6/3 82/6/3 81/6/3
f 79/6/4 78/6/4 84/6/4 83/6/4
f 77/6/5 81/6/5 84/6/5 78/6/5
f 80/6/6 79/6/6 83/6/6 82/6/6
