# Blender 5.2.0 LTS
# www.blender.org
mtllib FN_Basket_Laundry.mtl
o FN_Basket_Laundry
v 0.164545 0.000000 0.095000
v 0.095000 0.000000 0.164545
v -0.000000 0.000000 0.190000
v -0.095000 0.000000 0.164545
v -0.164545 0.000000 0.095000
v -0.190000 0.000000 -0.000000
v -0.164545 0.000000 -0.095000
v -0.095000 0.000000 -0.164545
v 0.000000 0.000000 -0.190000
v 0.095000 0.000000 -0.164545
v 0.164545 0.000000 -0.095000
v 0.190000 0.000000 0.000000
v 0.164545 0.030000 -0.095000
v 0.190000 0.030000 0.000000
v 0.095000 0.030000 -0.164545
v 0.000000 0.030000 -0.190000
v -0.095000 0.030000 -0.164545
v -0.164545 0.030000 -0.095000
v -0.190000 0.030000 -0.000000
v -0.164545 0.030000 0.095000
v -0.095000 0.030000 0.164545
v -0.000000 0.030000 0.190000
v 0.095000 0.030000 0.164545
v 0.164545 0.030000 0.095000
v 0.185000 0.030000 0.000000
v 0.160215 0.030000 -0.092500
v 0.174529 0.176000 -0.100764
v 0.201528 0.176000 0.000000
v 0.092500 0.030000 -0.160215
v 0.100764 0.176000 -0.174529
v 0.000000 0.030000 -0.185000
v 0.000000 0.176000 -0.201528
v -0.092500 0.030000 -0.160215
v -0.100764 0.176000 -0.174529
v -0.160215 0.030000 -0.092500
v -0.174529 0.176000 -0.100764
v -0.185000 0.030000 -0.000000
v -0.201528 0.176000 -0.000000
v -0.160215 0.030000 0.092500
v -0.174529 0.176000 0.100764
v -0.092500 0.030000 0.160215
v -0.100764 0.176000 0.174529
v -0.000000 0.030000 0.185000
v -0.000000 0.176000 0.201528
v 0.092500 0.030000 0.160215
v 0.100764 0.176000 0.174529
v 0.160215 0.030000 0.092500
v 0.174529 0.176000 0.100764
v 0.179725 0.176000 -0.103764
v 0.207528 0.176000 0.000000
v 0.103764 0.176000 -0.179725
v 0.000000 0.176000 -0.207528
v -0.103764 0.176000 -0.179725
v -0.179725 0.176000 -0.103764
v -0.207528 0.176000 -0.000000
v -0.179725 0.176000 0.103764
v -0.103764 0.176000 0.179725
v -0.000000 0.176000 0.207528
v 0.103764 0.176000 0.179725
v 0.179725 0.176000 0.103764
v 0.182470 0.204000 -0.105349
v 0.210698 0.204000 0.000000
v 0.105349 0.204000 -0.182470
v 0.000000 0.204000 -0.210698
v -0.105349 0.204000 -0.182470
v -0.182470 0.204000 -0.105349
v -0.210698 0.204000 -0.000000
v -0.182470 0.204000 0.105349
v -0.105349 0.204000 0.182470
v -0.000000 0.204000 0.210698
v 0.105349 0.204000 0.182470
v 0.182470 0.204000 0.105349
v 0.177274 0.204000 -0.102349
v 0.204698 0.204000 0.000000
v 0.102349 0.204000 -0.177274
v 0.000000 0.204000 -0.204698
v -0.102349 0.204000 -0.177274
v -0.177274 0.204000 -0.102349
v -0.204698 0.204000 -0.000000
v -0.177274 0.204000 0.102349
v -0.102349 0.204000 0.177274
v -0.000000 0.204000 0.204698
v 0.102349 0.204000 0.177274
v 0.177274 0.204000 0.102349
v 0.192176 0.356000 -0.110953
v 0.221906 0.356000 0.000000
v 0.110953 0.356000 -0.192176
v 0.000000 0.356000 -0.221906
v -0.110953 0.356000 -0.192176
v -0.192176 0.356000 -0.110953
v -0.221906 0.356000 -0.000000
v -0.192176 0.356000 0.110953
v -0.110953 0.356000 0.192176
v -0.000000 0.356000 0.221906
v 0.110953 0.356000 0.192176
v 0.192176 0.356000 0.110953
v 0.197372 0.356000 -0.113953
v 0.227906 0.356000 0.000000
v 0.113953 0.356000 -0.197372
v 0.000000 0.356000 -0.227906
v -0.113953 0.356000 -0.197372
v -0.197372 0.356000 -0.113953
v -0.227906 0.356000 -0.000000
v -0.197372 0.356000 0.113953
v -0.113953 0.356000 0.197372
v -0.000000 0.356000 0.227906
v 0.113953 0.356000 0.197372
v 0.197372 0.356000 0.113953
v 0.200117 0.384000 -0.115538
v 0.231075 0.384000 0.000000
v 0.115538 0.384000 -0.200117
v 0.000000 0.384000 -0.231075
v -0.115538 0.384000 -0.200117
v -0.200117 0.384000 -0.115538
v -0.231075 0.384000 -0.000000
v -0.200117 0.384000 0.115538
v -0.115538 0.384000 0.200117
v -0.000000 0.384000 0.231075
v 0.115538 0.384000 0.200117
v 0.200117 0.384000 0.115538
v 0.194921 0.384000 -0.112538
v 0.225075 0.384000 0.000000
v 0.112538 0.384000 -0.194921
v 0.000000 0.384000 -0.225075
v -0.112538 0.384000 -0.194921
v -0.194921 0.384000 -0.112538
v -0.225075 0.384000 -0.000000
v -0.194921 0.384000 0.112538
v -0.112538 0.384000 0.194921
v -0.000000 0.384000 0.225075
v 0.112538 0.384000 0.194921
v 0.194921 0.384000 0.112538
v 0.208255 0.520000 -0.120236
v 0.240472 0.520000 0.000000
v 0.120236 0.520000 -0.208255
v 0.000000 0.520000 -0.240472
v -0.120236 0.520000 -0.208255
v -0.208255 0.520000 -0.120236
v -0.240472 0.520000 -0.000000
v -0.208255 0.520000 0.120236
v -0.120236 0.520000 0.208255
v -0.000000 0.520000 0.240472
v 0.120236 0.520000 0.208255
v 0.208255 0.520000 0.120236
v 0.207846 0.560000 -0.120000
v 0.240000 0.560000 0.000000
v 0.120000 0.560000 -0.207846
v 0.000000 0.560000 -0.240000
v -0.120000 0.560000 -0.207846
v -0.207846 0.560000 -0.120000
v -0.240000 0.560000 -0.000000
v -0.207846 0.560000 0.120000
v -0.120000 0.560000 0.207846
v -0.000000 0.560000 0.240000
v 0.120000 0.560000 0.207846
v 0.207846 0.560000 0.120000
v 0.214774 0.548000 0.124000
v 0.124000 0.548000 0.214774
v -0.000000 0.548000 0.248000
v -0.124000 0.548000 0.214774
v -0.214774 0.548000 0.124000
v -0.248000 0.548000 -0.000000
v -0.214774 0.548000 -0.124000
v -0.124000 0.548000 -0.214774
v 0.000000 0.548000 -0.248000
v 0.124000 0.548000 -0.214774
v 0.214774 0.548000 -0.124000
v 0.248000 0.548000 0.000000
v 0.214774 0.586000 -0.124000
v 0.248000 0.586000 0.000000
v 0.124000 0.586000 -0.214774
v 0.000000 0.586000 -0.248000
v -0.124000 0.586000 -0.214774
v -0.214774 0.586000 -0.124000
v -0.248000 0.586000 -0.000000
v -0.214774 0.586000 0.124000
v -0.124000 0.586000 0.214774
v -0.000000 0.586000 0.248000
v 0.124000 0.586000 0.214774
v 0.214774 0.586000 0.124000
v 0.236000 0.598000 0.000000
v 0.204382 0.598000 -0.118000
v 0.118000 0.598000 -0.204382
v 0.000000 0.598000 -0.236000
v -0.118000 0.598000 -0.204382
v -0.204382 0.598000 -0.118000
v -0.236000 0.598000 -0.000000
v -0.204382 0.598000 0.118000
v -0.118000 0.598000 0.204382
v -0.000000 0.598000 0.236000
v 0.118000 0.598000 0.204382
v 0.204382 0.598000 0.118000
v 0.034000 0.628000 0.000000
v 0.024042 0.628000 -0.024042
v 0.000000 0.628000 -0.034000
v -0.024042 0.628000 -0.024042
v -0.034000 0.628000 -0.000000
v -0.024042 0.628000 0.024042
v -0.000000 0.628000 0.034000
v 0.024042 0.628000 0.024042
v 0.024000 0.594000 0.000000
v 0.016971 0.594000 -0.016971
v 0.000000 0.594000 -0.024000
v -0.016971 0.594000 -0.016971
v -0.024000 0.594000 -0.000000
v -0.016971 0.594000 0.016971
v -0.000000 0.594000 0.024000
v 0.016971 0.594000 0.016971
v -0.248000 0.400000 0.075000
v -0.248000 0.400000 -0.075000
v -0.196000 0.400000 -0.075000
v -0.196000 0.400000 0.075000
v -0.248000 0.460000 0.075000
v -0.196000 0.460000 0.075000
v -0.196000 0.460000 -0.075000
v -0.248000 0.460000 -0.075000
v 0.196000 0.400000 0.075000
v 0.196000 0.400000 -0.075000
v 0.248000 0.400000 -0.075000
v 0.248000 0.400000 0.075000
v 0.196000 0.460000 0.075000
v 0.248000 0.460000 0.075000
v 0.248000 0.460000 -0.075000
v 0.196000 0.460000 -0.075000
vn -0.0000 -1.0000 -0.0000
vn 0.9659 -0.0000 -0.2588
vn 0.7071 -0.0000 -0.7071
vn 0.2588 -0.0000 -0.9659
vn -0.2588 -0.0000 -0.9659
vn -0.7071 -0.0000 -0.7071
vn -0.9659 -0.0000 -0.2588
vn -0.9659 -0.0000 0.2588
vn -0.7071 -0.0000 0.7071
vn -0.2588 -0.0000 0.9659
vn 0.2588 -0.0000 0.9659
vn 0.7071 -0.0000 0.7071
vn 0.9659 -0.0000 0.2588
vn 0.9602 -0.1087 -0.2573
vn 0.7029 -0.1087 -0.7029
vn 0.2573 -0.1087 -0.9602
vn -0.2573 -0.1087 -0.9602
vn -0.7029 -0.1087 -0.7029
vn -0.9602 -0.1087 -0.2573
vn -0.9602 -0.1087 0.2573
vn -0.7029 -0.1087 0.7029
vn -0.2573 -0.1087 0.9602
vn 0.2573 -0.1087 0.9602
vn 0.7029 -0.1087 0.7029
vn 0.9602 -0.1087 0.2573
vn -0.0000 1.0000 -0.0000
vn 0.9659 0.0114 -0.2588
vn 0.7071 0.0114 -0.7071
vn 0.2588 0.0114 -0.9659
vn -0.2588 0.0114 -0.9659
vn -0.7071 0.0114 -0.7071
vn -0.9659 0.0114 -0.2588
vn -0.9659 0.0114 0.2588
vn -0.7071 0.0114 0.7071
vn -0.2588 0.0114 0.9659
vn 0.2588 0.0114 0.9659
vn 0.7071 0.0114 0.7071
vn 0.9659 0.0114 0.2588
vn 0.6947 0.6947 -0.1862
vn 0.5086 0.6947 -0.5086
vn 0.1862 0.6947 -0.6947
vn -0.1862 0.6947 -0.6947
vn -0.5086 0.6947 -0.5086
vn -0.6947 0.6947 -0.1862
vn -0.6947 0.6947 0.1862
vn -0.5086 0.6947 0.5086
vn -0.1862 0.6947 0.6947
vn 0.1862 0.6947 0.6947
vn 0.5086 0.6947 0.5086
vn 0.6947 0.6947 0.1862
vn 0.8916 -0.2622 -0.3693
vn 0.3693 -0.2622 -0.8916
vn -0.3693 -0.2622 -0.8916
vn -0.8916 -0.2622 -0.3693
vn -0.8916 -0.2622 0.3693
vn -0.3693 -0.2622 0.8916
vn 0.3693 -0.2622 0.8916
vn 0.8916 -0.2622 0.3693
vn -0.0000 -0.0000 1.0000
vn -0.0000 -0.0000 -1.0000
vn -1.0000 -0.0000 -0.0000
vn 1.0000 -0.0000 -0.0000
vt 0.812500 0.937500
vt 0.687500 0.187500
s 0
usemtl FN_Atlas
f 1/1/1 2/1/1 3/1/1 4/1/1 5/1/1 6/1/1 7/1/1 8/1/1 9/1/1 10/1/1 11/1/1 12/1/1
f 12/1/2 11/1/2 13/1/2 14/1/2
f 11/1/3 10/1/3 15/1/3 13/1/3
f 10/1/4 9/1/4 16/1/4 15/1/4
f 9/1/5 8/1/5 17/1/5 16/1/5
f 8/1/6 7/1/6 18/1/6 17/1/6
f 7/1/7 6/1/7 19/1/7 18/1/7
f 6/1/8 5/1/8 20/1/8 19/1/8
f 5/1/9 4/1/9 21/1/9 20/1/9
f 4/1/10 3/1/10 22/1/10 21/1/10
f 3/1/11 2/1/11 23/1/11 22/1/11
f 2/1/12 1/1/12 24/1/12 23/1/12
f 1/1/13 12/1/13 14/1/13 24/1/13
f 25/2/14 26/2/14 27/2/14 28/2/14
f 26/2/15 29/2/15 30/2/15 27/2/15
f 29/2/16 31/2/16 32/2/16 30/2/16
f 31/2/17 33/2/17 34/2/17 32/2/17
f 33/2/18 35/2/18 36/2/18 34/2/18
f 35/2/19 37/2/19 38/2/19 36/2/19
f 37/2/20 39/2/20 40/2/20 38/2/20
f 39/2/21 41/2/21 42/2/21 40/2/21
f 41/2/22 43/2/22 44/2/22 42/2/22
f 43/2/23 45/2/23 46/2/23 44/2/23
f 45/2/24 47/2/24 48/2/24 46/2/24
f 47/2/25 25/2/25 28/2/25 48/2/25
f 28/2/1 27/2/1 49/2/1 50/2/1
f 27/2/1 30/2/1 51/2/1 49/2/1
f 30/2/1 32/2/1 52/2/1 51/2/1
f 32/2/1 34/2/1 53/2/1 52/2/1
f 34/2/1 36/2/1 54/2/1 53/2/1
f 36/2/1 38/2/1 55/2/1 54/2/1
f 38/2/1 40/2/1 56/2/1 55/2/1
f 40/2/1 42/2/1 57/2/1 56/2/1
f 42/2/1 44/2/1 58/2/1 57/2/1
f 44/2/1 46/2/1 59/2/1 58/2/1
f 46/2/1 48/2/1 60/2/1 59/2/1
f 48/2/1 28/2/1 50/2/1 60/2/1
f 50/2/14 49/2/14 61/2/14 62/2/14
f 49/2/15 51/2/15 63/2/15 61/2/15
f 51/2/16 52/2/16 64/2/16 63/2/16
f 52/2/17 53/2/17 65/2/17 64/2/17
f 53/2/18 54/2/18 66/2/18 65/2/18
f 54/2/19 55/2/19 67/2/19 66/2/19
f 55/2/20 56/2/20 68/2/20 67/2/20
f 56/2/21 57/2/21 69/2/21 68/2/21
f 57/2/22 58/2/22 70/2/22 69/2/22
f 58/2/23 59/2/23 71/2/23 70/2/23
f 59/2/24 60/2/24 72/2/24 71/2/24
f 60/2/25 50/2/25 62/2/25 72/2/25
f 62/2/26 61/2/26 73/2/26 74/2/26
f 61/2/26 63/2/26 75/2/26 73/2/26
f 63/2/26 64/2/26 76/2/26 75/2/26
f 64/2/26 65/2/26 77/2/26 76/2/26
f 65/2/26 66/2/26 78/2/26 77/2/26
f 66/2/26 67/2/26 79/2/26 78/2/26
f 67/2/26 68/2/26 80/2/26 79/2/26
f 68/2/26 69/2/26 81/2/26 80/2/26
f 69/2/26 70/2/26 82/2/26 81/2/26
f 70/2/26 71/2/26 83/2/26 82/2/26
f 71/2/26 72/2/26 84/2/26 83/2/26
f 72/2/26 62/2/26 74/2/26 84/2/26
f 74/2/14 73/2/14 85/2/14 86/2/14
f 73/2/15 75/2/15 87/2/15 85/2/15
f 75/2/16 76/2/16 88/2/16 87/2/16
f 76/2/17 77/2/17 89/2/17 88/2/17
f 77/2/18 78/2/18 90/2/18 89/2/18
f 78/2/19 79/2/19 91/2/19 90/2/19
f 79/2/20 80/2/20 92/2/20 91/2/20
f 80/2/21 81/2/21 93/2/21 92/2/21
f 81/2/22 82/2/22 94/2/22 93/2/22
f 82/2/23 83/2/23 95/2/23 94/2/23
f 83/2/24 84/2/24 96/2/24 95/2/24
f 84/2/25 74/2/25 86/2/25 96/2/25
f 86/2/1 85/2/1 97/2/1 98/2/1
f 85/2/1 87/2/1 99/2/1 97/2/1
f 87/2/1 88/2/1 100/2/1 99/2/1
f 88/2/1 89/2/1 101/2/1 100/2/1
f 89/2/1 90/2/1 102/2/1 101/2/1
f 90/2/1 91/2/1 103/2/1 102/2/1
f 91/2/1 92/2/1 104/2/1 103/2/1
f 92/2/1 93/2/1 105/2/1 104/2/1
f 93/2/1 94/2/1 106/2/1 105/2/1
f 94/2/1 95/2/1 107/2/1 106/2/1
f 95/2/1 96/2/1 108/2/1 107/2/1
f 96/2/1 86/2/1 98/2/1 108/2/1
f 98/2/14 97/2/14 109/2/14 110/2/14
f 97/2/15 99/2/15 111/2/15 109/2/15
f 99/2/16 100/2/16 112/2/16 111/2/16
f 100/2/17 101/2/17 113/2/17 112/2/17
f 101/2/18 102/2/18 114/2/18 113/2/18
f 102/2/19 103/2/19 115/2/19 114/2/19
f 103/2/20 104/2/20 116/2/20 115/2/20
f 104/2/21 105/2/21 117/2/21 116/2/21
f 105/2/22 106/2/22 118/2/22 117/2/22
f 106/2/23 107/2/23 119/2/23 118/2/23
f 107/2/24 108/2/24 120/2/24 119/2/24
f 108/2/25 98/2/25 110/2/25 120/2/25
f 110/2/26 109/2/26 121/2/26 122/2/26
f 109/2/26 111/2/26 123/2/26 121/2/26
f 111/2/26 112/2/26 124/2/26 123/2/26
f 112/2/26 113/2/26 125/2/26 124/2/26
f 113/2/26 114/2/26 126/2/26 125/2/26
f 114/2/26 115/2/26 127/2/26 126/2/26
f 115/2/26 116/2/26 128/2/26 127/2/26
f 116/2/26 117/2/26 129/2/26 128/2/26
f 117/2/26 118/2/26 130/2/26 129/2/26
f 118/2/26 119/2/26 131/2/26 130/2/26
f 119/2/26 120/2/26 132/2/26 131/2/26
f 120/2/26 110/2/26 122/2/26 132/2/26
f 122/2/14 121/2/14 133/2/14 134/2/14
f 121/2/15 123/2/15 135/2/15 133/2/15
f 123/2/16 124/2/16 136/2/16 135/2/16
f 124/2/17 125/2/17 137/2/17 136/2/17
f 125/2/18 126/2/18 138/2/18 137/2/18
f 126/2/19 127/2/19 139/2/19 138/2/19
f 127/2/20 128/2/20 140/2/20 139/2/20
f 128/2/21 129/2/21 141/2/21 140/2/21
f 129/2/22 130/2/22 142/2/22 141/2/22
f 130/2/23 131/2/23 143/2/23 142/2/23
f 131/2/24 132/2/24 144/2/24 143/2/24
f 132/2/25 122/2/25 134/2/25 144/2/25
f 134/1/27 133/1/27 145/1/27 146/1/27
f 133/1/28 135/1/28 147/1/28 145/1/28
f 135/1/29 136/1/29 148/1/29 147/1/29
f 136/1/30 137/1/30 149/1/30 148/1/30
f 137/1/31 138/1/31 150/1/31 149/1/31
f 138/1/32 139/1/32 151/1/32 150/1/32
f 139/1/33 140/1/33 152/1/33 151/1/33
f 140/1/34 141/1/34 153/1/34 152/1/34
f 141/1/35 142/1/35 154/1/35 153/1/35
f 142/1/36 143/1/36 155/1/36 154/1/36
f 143/1/37 144/1/37 156/1/37 155/1/37
f 144/1/38 134/1/38 146/1/38 156/1/38
f 157/2/1 158/2/1 159/2/1 160/2/1 161/2/1 162/2/1 163/2/1 164/2/1 165/2/1 166/2/1 167/2/1 168/2/1
f 168/2/2 167/2/2 169/2/2 170/2/2
f 167/2/3 166/2/3 171/2/3 169/2/3
f 166/2/4 165/2/4 172/2/4 171/2/4
f 165/2/5 164/2/5 173/2/5 172/2/5
f 164/2/6 163/2/6 174/2/6 173/2/6
f 163/2/7 162/2/7 175/2/7 174/2/7
f 162/2/8 161/2/8 176/2/8 175/2/8
f 161/2/9 160/2/9 177/2/9 176/2/9
f 160/2/10 159/2/10 178/2/10 177/2/10
f 159/2/11 158/2/11 179/2/11 178/2/11
f 158/2/12 157/2/12 180/2/12 179/2/12
f 157/2/13 168/2/13 170/2/13 180/2/13
f 181/2/26 182/2/26 183/2/26 184/2/26 185/2/26 186/2/26 187/2/26 188/2/26 189/2/26 190/2/26 191/2/26 192/2/26
f 170/2/39 169/2/39 182/2/39 181/2/39
f 169/2/40 171/2/40 183/2/40 182/2/40
f 171/2/41 172/2/41 184/2/41 183/2/41
f 172/2/42 173/2/42 185/2/42 184/2/42
f 173/2/43 174/2/43 186/2/43 185/2/43
f 174/2/44 175/2/44 187/2/44 186/2/44
f 175/2/45 176/2/45 188/2/45 187/2/45
f 176/2/46 177/2/46 189/2/46 188/2/46
f 177/2/47 178/2/47 190/2/47 189/2/47
f 178/2/48 179/2/48 191/2/48 190/2/48
f 179/2/49 180/2/49 192/2/49 191/2/49
f 180/2/50 170/2/50 181/2/50 192/2/50
f 193/1/26 194/1/26 195/1/26 196/1/26 197/1/26 198/1/26 199/1/26 200/1/26
f 201/1/51 202/1/51 194/1/51 193/1/51
f 202/1/52 203/1/52 195/1/52 194/1/52
f 203/1/53 204/1/53 196/1/53 195/1/53
f 204/1/54 205/1/54 197/1/54 196/1/54
f 205/1/55 206/1/55 198/1/55 197/1/55
f 206/1/56 207/1/56 199/1/56 198/1/56
f 207/1/57 208/1/57 200/1/57 199/1/57
f 208/1/58 201/1/58 193/1/58 200/1/58
f 209/1/1 210/1/1 211/1/1 212/1/1
f 213/1/26 214/1/26 215/1/26 216/1/26
f 209/1/59 212/1/59 214/1/59 213/1/59
f 211/1/60 210/1/60 216/1/60 215/1/60
f 209/1/61 213/1/61 216/1/61 210/1/61
f 212/1/62 211/1/62 215/1/62 214/1/62
f 217/1/1 218/1/1 219/1/1 220/1/1
f 221/1/26 222/1/26 223/1/26 224/1/26
f 217/1/59 220/1/59 222/1/59 221/1/59
f 219/1/60 218/1/60 224/1/60 223/1/60
f 217/1/61 221/1/61 224/1/61 218/1/61
f 220/1/62 219/1/62 223/1/62 222/1/62
