# Blender 5.2.0 LTS
# www.blender.org
mtllib FN_Bed_Double.mtl
o FN_Bed_Double
v -0.730000 0.000000 0.941000
v -0.674000 0.000000 0.941000
v -0.674000 0.000000 0.997000
v -0.730000 0.000000 0.997000
v -0.736000 0.330000 1.003000
v -0.668000 0.330000 1.003000
v -0.668000 0.330000 0.935000
v -0.736000 0.330000 0.935000
v -0.730000 0.000000 -0.983000
v -0.674000 0.000000 -0.983000
v -0.674000 0.000000 -0.927000
v -0.730000 0.000000 -0.927000
v -0.736000 0.330000 -0.921000
v -0.668000 0.330000 -0.921000
v -0.668000 0.330000 -0.989000
v -0.736000 0.330000 -0.989000
v 0.674000 0.000000 0.941000
v 0.730000 0.000000 0.941000
v 0.730000 0.000000 0.997000
v 0.674000 0.000000 0.997000
v 0.668000 0.330000 1.003000
v 0.736000 0.330000 1.003000
v 0.736000 0.330000 0.935000
v 0.668000 0.330000 0.935000
v 0.674000 0.000000 -0.983000
v 0.730000 0.000000 -0.983000
v 0.730000 0.000000 -0.927000
v 0.674000 0.000000 -0.927000
v 0.668000 0.330000 -0.921000
v 0.736000 0.330000 -0.921000
v 0.736000 0.330000 -0.989000
v 0.668000 0.330000 -0.989000
v -0.750000 0.212000 1.017000
v -0.750000 0.212000 -1.003000
v -0.730000 0.212000 -1.003000
v -0.730000 0.212000 1.017000
v -0.750000 0.330000 1.017000
v -0.730000 0.330000 1.017000
v -0.730000 0.330000 -1.003000
v -0.750000 0.330000 -1.003000
v 0.730000 0.212000 1.017000
v 0.730000 0.212000 -1.003000
v 0.750000 0.212000 -1.003000
v 0.750000 0.212000 1.017000
v 0.730000 0.330000 1.017000
v 0.750000 0.330000 1.017000
v 0.750000 0.330000 -1.003000
v 0.730000 0.330000 -1.003000
v -0.750000 0.212000 0.997000
v 0.750000 0.212000 0.997000
v -0.750000 0.430000 1.017000
v 0.750000 0.430000 1.017000
v 0.750000 0.430000 0.997000
v -0.750000 0.430000 0.997000
v -0.750000 0.212000 -0.983000
v 0.750000 0.212000 -0.983000
v -0.750000 0.330000 -0.983000
v 0.750000 0.330000 -0.983000
v -0.734000 0.314000 1.001000
v -0.734000 0.314000 -0.987000
v 0.734000 0.314000 -0.987000
v 0.734000 0.314000 1.001000
v -0.734000 0.330000 1.001000
v 0.734000 0.330000 1.001000
v 0.734000 0.330000 -0.987000
v -0.734000 0.330000 -0.987000
v -0.639378 0.336000 0.948720
v -0.677930 0.336000 0.932751
v -0.693899 0.336000 0.894199
v -0.693899 0.336000 -0.880199
v -0.677930 0.336000 -0.918751
v -0.639378 0.336000 -0.934720
v 0.639378 0.336000 -0.934720
v 0.677930 0.336000 -0.918751
v 0.693899 0.336000 -0.880199
v 0.693899 0.336000 0.894199
v 0.677930 0.336000 0.932751
v 0.639378 0.336000 0.948720
v 0.683891 0.346000 0.940891
v 0.645000 0.346000 0.957000
v 0.700000 0.346000 0.902000
v 0.700000 0.346000 -0.888000
v 0.683891 0.346000 -0.926891
v 0.645000 0.346000 -0.943000
v -0.645000 0.346000 -0.943000
v -0.683891 0.346000 -0.926891
v -0.700000 0.346000 -0.888000
v -0.700000 0.346000 0.902000
v -0.683891 0.346000 0.940891
v -0.645000 0.346000 0.957000
v 0.683891 0.504000 0.940891
v 0.645000 0.504000 0.957000
v 0.700000 0.504000 0.902000
v 0.700000 0.504000 -0.888000
v 0.683891 0.504000 -0.926891
v 0.645000 0.504000 -0.943000
v -0.645000 0.504000 -0.943000
v -0.683891 0.504000 -0.926891
v -0.700000 0.504000 -0.888000
v -0.700000 0.504000 0.902000
v -0.683891 0.504000 0.940891
v -0.645000 0.504000 0.957000
v 0.631508 0.520000 0.937128
v 0.669585 0.520000 0.921356
v 0.685357 0.520000 0.883278
v 0.685357 0.520000 -0.869278
v 0.669585 0.520000 -0.907356
v 0.631508 0.520000 -0.923128
v -0.631508 0.520000 -0.923128
v -0.669585 0.520000 -0.907356
v -0.685357 0.520000 -0.869278
v -0.685357 0.520000 0.883278
v -0.669585 0.520000 0.921356
v -0.631508 0.520000 0.937128
v -0.661361 0.402000 0.992808
v -0.710293 0.402000 0.972540
v -0.730562 0.402000 0.923607
v -0.730562 0.402000 -0.529607
v -0.710293 0.402000 -0.578540
v -0.661361 0.402000 -0.598808
v 0.661361 0.402000 -0.598808
v 0.710293 0.402000 -0.578540
v 0.730562 0.402000 -0.529607
v 0.730562 0.402000 0.923607
v 0.710293 0.402000 0.972540
v 0.661361 0.402000 0.992808
v 0.718497 0.416000 0.981498
v 0.669000 0.416000 1.002000
v 0.739000 0.416000 0.932000
v 0.739000 0.416000 -0.538000
v 0.718497 0.416000 -0.587497
v 0.669000 0.416000 -0.608000
v -0.669000 0.416000 -0.608000
v -0.718497 0.416000 -0.587497
v -0.739000 0.416000 -0.538000
v -0.739000 0.416000 0.932000
v -0.718497 0.416000 0.981498
v -0.669000 0.416000 1.002000
v 0.696841 0.532000 0.949841
v 0.653000 0.532000 0.968000
v 0.715000 0.532000 0.906000
v 0.715000 0.532000 -0.536000
v 0.696841 0.532000 -0.579841
v 0.653000 0.532000 -0.598000
v -0.653000 0.532000 -0.598000
v -0.696841 0.532000 -0.579841
v -0.715000 0.532000 -0.536000
v -0.715000 0.532000 0.906000
v -0.696841 0.532000 0.949841
v -0.653000 0.532000 0.968000
v 0.690012 0.572000 0.940012
v 0.649000 0.572000 0.957000
v 0.707000 0.572000 0.899000
v 0.707000 0.572000 -0.535000
v 0.690012 0.572000 -0.576012
v 0.649000 0.572000 -0.593000
v -0.649000 0.572000 -0.593000
v -0.690012 0.572000 -0.576012
v -0.707000 0.572000 -0.535000
v -0.707000 0.572000 0.899000
v -0.690012 0.572000 0.940012
v -0.649000 0.572000 0.957000
v 0.632364 0.592000 0.937134
v 0.672324 0.592000 0.920581
v 0.688877 0.592000 0.880620
v 0.688877 0.592000 -0.516620
v 0.672324 0.592000 -0.556581
v 0.632364 0.592000 -0.573134
v -0.632364 0.592000 -0.573134
v -0.672324 0.592000 -0.556581
v -0.688877 0.592000 -0.516620
v -0.688877 0.592000 0.880620
v -0.672324 0.592000 0.920581
v -0.632364 0.592000 0.937134
v -0.560786 0.514000 -0.523258
v -0.611514 0.514000 -0.544270
v -0.632526 0.514000 -0.594998
v -0.632526 0.514000 -0.815002
v -0.611514 0.514000 -0.865730
v -0.560786 0.514000 -0.886742
v -0.111214 0.514000 -0.886742
v -0.060486 0.514000 -0.865730
v -0.039474 0.514000 -0.815002
v -0.039474 0.514000 -0.594998
v -0.060486 0.514000 -0.544270
v -0.111214 0.514000 -0.523258
v -0.047967 0.528000 -0.536967
v -0.101000 0.528000 -0.515000
v -0.026000 0.528000 -0.590000
v -0.026000 0.528000 -0.820000
v -0.047967 0.528000 -0.873033
v -0.101000 0.528000 -0.895000
v -0.571000 0.528000 -0.895000
v -0.624033 0.528000 -0.873033
v -0.646000 0.528000 -0.820000
v -0.646000 0.528000 -0.590000
v -0.624033 0.528000 -0.536967
v -0.571000 0.528000 -0.515000
v -0.047967 0.576000 -0.536967
v -0.101000 0.576000 -0.515000
v -0.026000 0.576000 -0.590000
v -0.026000 0.576000 -0.820000
v -0.047967 0.576000 -0.873033
v -0.101000 0.576000 -0.895000
v -0.571000 0.576000 -0.895000
v -0.624033 0.576000 -0.873033
v -0.646000 0.576000 -0.820000
v -0.646000 0.576000 -0.590000
v -0.624033 0.576000 -0.536967
v -0.571000 0.576000 -0.515000
v -0.127265 0.600000 -0.536235
v -0.080159 0.600000 -0.555747
v -0.060647 0.600000 -0.602853
v -0.060647 0.600000 -0.807147
v -0.080159 0.600000 -0.854253
v -0.127265 0.600000 -0.873765
v -0.544735 0.600000 -0.873765
v -0.591841 0.600000 -0.854253
v -0.611353 0.600000 -0.807147
v -0.611353 0.600000 -0.602853
v -0.591841 0.600000 -0.555747
v -0.544735 0.600000 -0.536235
v 0.111214 0.514000 -0.523258
v 0.060486 0.514000 -0.544270
v 0.039474 0.514000 -0.594998
v 0.039474 0.514000 -0.815002
v 0.060486 0.514000 -0.865730
v 0.111214 0.514000 -0.886742
v 0.560786 0.514000 -0.886742
v 0.611514 0.514000 -0.865730
v 0.632526 0.514000 -0.815002
v 0.632526 0.514000 -0.594998
v 0.611514 0.514000 -0.544270
v 0.560786 0.514000 -0.523258
v 0.624033 0.528000 -0.536967
v 0.571000 0.528000 -0.515000
v 0.646000 0.528000 -0.590000
v 0.646000 0.528000 -0.820000
v 0.624033 0.528000 -0.873033
v 0.571000 0.528000 -0.895000
v 0.101000 0.528000 -0.895000
v 0.047967 0.528000 -0.873033
v 0.026000 0.528000 -0.820000
v 0.026000 0.528000 -0.590000
v 0.047967 0.528000 -0.536967
v 0.101000 0.528000 -0.515000
v 0.624033 0.576000 -0.536967
v 0.571000 0.576000 -0.515000
v 0.646000 0.576000 -0.590000
v 0.646000 0.576000 -0.820000
v 0.624033 0.576000 -0.873033
v 0.571000 0.576000 -0.895000
v 0.101000 0.576000 -0.895000
v 0.047967 0.576000 -0.873033
v 0.026000 0.576000 -0.820000
v 0.026000 0.576000 -0.590000
v 0.047967 0.576000 -0.536967
v 0.101000 0.576000 -0.515000
v 0.544735 0.600000 -0.536235
v 0.591841 0.600000 -0.555747
v 0.611353 0.600000 -0.602853
v 0.611353 0.600000 -0.807147
v 0.591841 0.600000 -0.854253
v 0.544735 0.600000 -0.873765
v 0.127265 0.600000 -0.873765
v 0.080159 0.600000 -0.854253
v 0.060647 0.600000 -0.807147
v 0.060647 0.600000 -0.602853
v 0.080159 0.600000 -0.555747
v 0.127265 0.600000 -0.536235
v -0.750000 0.240000 -0.983000
v -0.750000 0.240000 -1.017000
v 0.750000 0.240000 -1.017000
v 0.750000 0.240000 -0.983000
v -0.750000 0.332000 -0.983000
v 0.750000 0.332000 -0.983000
v 0.750000 0.332000 -1.017000
v -0.750000 0.332000 -1.017000
v -0.750000 0.928000 -0.983000
v -0.750000 0.928000 -1.017000
v 0.750000 0.928000 -1.017000
v 0.750000 0.928000 -0.983000
v -0.750000 1.020000 -0.983000
v 0.750000 1.020000 -0.983000
v 0.750000 1.020000 -1.017000
v -0.750000 1.020000 -1.017000
v -0.658000 0.240000 -1.017000
v -0.658000 0.240000 -0.983000
v -0.658000 1.020000 -0.983000
v -0.658000 1.020000 -1.017000
v 0.658000 0.240000 -0.983000
v 0.658000 0.240000 -1.017000
v 0.658000 1.020000 -0.983000
v 0.658000 1.020000 -1.017000
v -0.662000 0.328000 -0.991000
v -0.662000 0.328000 -1.017000
v 0.662000 0.328000 -1.017000
v 0.662000 0.328000 -0.991000
v -0.662000 0.932000 -0.991000
v 0.662000 0.932000 -0.991000
v 0.662000 0.932000 -1.017000
v -0.662000 0.932000 -1.017000
vn -0.0000 -1.0000 -0.0000
vn -0.0000 1.0000 -0.0000
vn -0.0000 -0.0182 0.9998
vn 0.9998 -0.0182 -0.0000
vn -0.0000 -0.0182 -0.9998
vn -0.9998 -0.0182 -0.0000
vn -0.0000 -0.0000 1.0000
vn -0.0000 -0.0000 -1.0000
vn -1.0000 -0.0000 -0.0000
vn 1.0000 -0.0000 -0.0000
vn 0.2733 -0.7000 0.6598
vn 0.6997 -0.6530 0.2898
vn 0.8537 -0.5208 -0.0000
vn 0.6997 -0.6530 -0.2898
vn 0.2733 -0.7000 -0.6598
vn -0.0000 -0.6378 -0.7702
vn -0.2733 -0.7000 -0.6598
vn -0.6997 -0.6530 -0.2898
vn -0.8537 -0.5208 -0.0000
vn -0.6997 -0.6530 0.2898
vn -0.2733 -0.7000 0.6598
vn -0.0000 -0.6378 0.7702
vn 0.3827 -0.0000 0.9239
vn 0.9239 -0.0000 0.3827
vn 0.9239 -0.0000 -0.3827
vn 0.3827 -0.0000 -0.9239
vn -0.3827 -0.0000 -0.9239
vn -0.9239 -0.0000 -0.3827
vn -0.9239 -0.0000 0.3827
vn -0.3827 -0.0000 0.9239
vn 0.2152 0.8269 0.5196
vn 0.5651 0.7911 0.2341
vn 0.7377 0.6751 -0.0000
vn 0.5651 0.7911 -0.2341
vn 0.2152 0.8269 -0.5196
vn -0.0000 0.7789 -0.6271
vn -0.2152 0.8269 -0.5196
vn -0.5651 0.7911 -0.2341
vn -0.7377 0.6751 -0.0000
vn -0.5651 0.7911 0.2341
vn -0.2152 0.8269 0.5196
vn -0.0000 0.7789 0.6271
vn 0.2966 -0.6319 0.7160
vn 0.7263 -0.6181 0.3008
vn 0.8565 -0.5162 -0.0000
vn 0.7263 -0.6181 -0.3008
vn 0.2966 -0.6319 -0.7160
vn -0.0000 -0.5488 -0.8359
vn -0.2966 -0.6319 -0.7160
vn -0.7263 -0.6181 -0.3008
vn -0.8565 -0.5162 -0.0000
vn -0.7263 -0.6181 0.3008
vn -0.2966 -0.6319 0.7160
vn -0.0000 -0.5488 0.8359
vn 0.3641 0.3079 0.8790
vn 0.8904 0.2669 0.3688
vn 0.9793 0.2026 -0.0000
vn 0.9063 0.1940 -0.3754
vn 0.3794 0.1313 -0.9159
vn -0.0000 0.0859 -0.9963
vn -0.3794 0.1313 -0.9159
vn -0.9063 0.1940 -0.3754
vn -0.9793 0.2026 -0.0000
vn -0.8904 0.2669 0.3688
vn -0.3641 0.3079 0.8790
vn -0.0000 0.2813 0.9596
vn 0.3673 0.2806 0.8868
vn 0.8959 0.2441 0.3711
vn 0.9806 0.1961 -0.0000
vn 0.9069 0.1908 -0.3757
vn 0.3782 0.1520 -0.9131
vn -0.0000 0.1240 -0.9923
vn -0.3782 0.1520 -0.9131
vn -0.9069 0.1908 -0.3757
vn -0.9806 0.1961 -0.0000
vn -0.8959 0.2441 0.3711
vn -0.3673 0.2806 0.8868
vn -0.0000 0.2652 0.9642
vn 0.2407 0.7774 0.5811
vn 0.5947 0.7653 0.2463
vn 0.7410 0.6715 -0.0000
vn 0.5947 0.7653 -0.2463
vn 0.2407 0.7774 -0.5811
vn -0.0000 0.7047 -0.7095
vn -0.2407 0.7774 -0.5811
vn -0.5947 0.7653 -0.2463
vn -0.7410 0.6715 -0.0000
vn -0.5947 0.7653 0.2463
vn -0.2407 0.7774 0.5811
vn -0.0000 0.7047 0.7095
vn 0.2953 -0.6360 0.7129
vn 0.6449 -0.7161 0.2671
vn 0.7205 -0.6934 -0.0000
vn 0.6449 -0.7161 -0.2671
vn 0.2953 -0.6360 -0.7129
vn -0.0000 -0.5081 -0.8613
vn -0.2953 -0.6360 -0.7129
vn -0.6449 -0.7161 -0.2671
vn -0.7205 -0.6934 -0.0000
vn -0.6449 -0.7161 0.2671
vn -0.2953 -0.6360 0.7129
vn -0.0000 -0.5081 0.8613
vn 0.2407 0.7775 0.5810
vn 0.5035 0.8385 0.2085
vn 0.5694 0.8220 -0.0000
vn 0.5035 0.8385 -0.2085
vn 0.2407 0.7775 -0.5810
vn -0.0000 0.6627 -0.7489
vn -0.2407 0.7775 -0.5810
vn -0.5035 0.8385 -0.2085
vn -0.5694 0.8220 -0.0000
vn -0.5035 0.8385 0.2085
vn -0.2407 0.7775 0.5810
vn -0.0000 0.6627 0.7489
vt 0.437500 0.937500
vt 0.687500 0.937500
vt 0.562500 0.937500
vt 0.062500 0.687500
vt 0.812500 0.562500
vt 0.187500 0.687500
s 0
usemtl FN_Atlas
f 1/1/1 2/1/1 3/1/1 4/1/1
f 5/1/2 6/1/2 7/1/2 8/1/2
f 4/1/3 3/1/3 6/1/3 5/1/3
f 3/1/4 2/1/4 7/1/4 6/1/4
f 2/1/5 1/1/5 8/1/5 7/1/5
f 1/1/6 4/1/6 5/1/6 8/1/6
f 9/1/1 10/1/1 11/1/1 12/1/1
f 13/1/2 14/1/2 15/1/2 16/1/2
f 12/1/3 11/1/3 14/1/3 13/1/3
f 11/1/4 10/1/4 15/1/4 14/1/4
f 10/1/5 9/1/5 16/1/5 15/1/5
f 9/1/6 12/1/6 13/1/6 16/1/6
f 17/1/1 18/1/1 19/1/1 20/1/1
f 21/1/2 22/1/2 23/1/2 24/1/2
f 20/1/3 19/1/3 22/1/3 21/1/3
f 19/1/4 18/1/4 23/1/4 22/1/4
f 18/1/5 17/1/5 24/1/5 23/1/5
f 17/1/6 20/1/6 21/1/6 24/1/6
f 25/1/1 26/1/1 27/1/1 28/1/1
f 29/1/2 30/1/2 31/1/2 32/1/2
f 28/1/3 27/1/3 30/1/3 29/1/3
f 27/1/4 26/1/4 31/1/4 30/1/4
f 26/1/5 25/1/5 32/1/5 31/1/5
f 25/1/6 28/1/6 29/1/6 32/1/6
f 33/1/1 34/1/1 35/1/1 36/1/1
f 37/1/2 38/1/2 39/1/2 40/1/2
f 33/1/7 36/1/7 38/1/7 37/1/7
f 35/1/8 34/1/8 40/1/8 39/1/8
f 33/2/9 37/2/9 40/2/9 34/2/9
f 36/2/10 35/2/10 39/2/10 38/2/10
f 41/1/1 42/1/1 43/1/1 44/1/1
f 45/1/2 46/1/2 47/1/2 48/1/2
f 41/1/7 44/1/7 46/1/7 45/1/7
f 43/1/8 42/1/8 48/1/8 47/1/8
f 41/2/9 45/2/9 48/2/9 42/2/9
f 44/2/10 43/2/10 47/2/10 46/2/10
f 33/1/1 49/1/1 50/1/1 44/1/1
f 51/1/2 52/1/2 53/1/2 54/1/2
f 33/2/7 44/2/7 52/2/7 51/2/7
f 50/1/8 49/1/8 54/1/8 53/1/8
f 33/1/9 51/1/9 54/1/9 49/1/9
f 44/1/10 50/1/10 53/1/10 52/1/10
f 55/1/1 34/1/1 43/1/1 56/1/1
f 57/1/2 58/1/2 47/1/2 40/1/2
f 55/1/7 56/1/7 58/1/7 57/1/7
f 43/1/8 34/1/8 40/1/8 47/1/8
f 55/1/9 57/1/9 40/1/9 34/1/9
f 56/1/10 43/1/10 47/1/10 58/1/10
f 59/3/1 60/3/1 61/3/1 62/3/1
f 63/3/2 64/3/2 65/3/2 66/3/2
f 59/3/7 62/3/7 64/3/7 63/3/7
f 61/3/8 60/3/8 66/3/8 65/3/8
f 59/3/9 63/3/9 66/3/9 60/3/9
f 62/3/10 61/3/10 65/3/10 64/3/10
f 67/4/1 68/4/1 69/4/1 70/4/1 71/4/1 72/4/1 73/4/1 74/4/1 75/4/1 76/4/1 77/4/1 78/4/1
f 78/4/11 77/4/11 79/4/11 80/4/11
f 77/4/12 76/4/12 81/4/12 79/4/12
f 76/4/13 75/4/13 82/4/13 81/4/13
f 75/4/14 74/4/14 83/4/14 82/4/14
f 74/4/15 73/4/15 84/4/15 83/4/15
f 73/4/16 72/4/16 85/4/16 84/4/16
f 72/4/17 71/4/17 86/4/17 85/4/17
f 71/4/18 70/4/18 87/4/18 86/4/18
f 70/4/19 69/4/19 88/4/19 87/4/19
f 69/4/20 68/4/20 89/4/20 88/4/20
f 68/4/21 67/4/21 90/4/21 89/4/21
f 67/4/22 78/4/22 80/4/22 90/4/22
f 80/4/23 79/4/23 91/4/23 92/4/23
f 79/4/24 81/4/24 93/4/24 91/4/24
f 81/4/10 82/4/10 94/4/10 93/4/10
f 82/4/25 83/4/25 95/4/25 94/4/25
f 83/4/26 84/4/26 96/4/26 95/4/26
f 84/4/8 85/4/8 97/4/8 96/4/8
f 85/4/27 86/4/27 98/4/27 97/4/27
f 86/4/28 87/4/28 99/4/28 98/4/28
f 87/4/9 88/4/9 100/4/9 99/4/9
f 88/4/29 89/4/29 101/4/29 100/4/29
f 89/4/30 90/4/30 102/4/30 101/4/30
f 90/4/7 80/4/7 92/4/7 102/4/7
f 103/4/2 104/4/2 105/4/2 106/4/2 107/4/2 108/4/2 109/4/2 110/4/2 111/4/2 112/4/2 113/4/2 114/4/2
f 92/4/31 91/4/31 104/4/31 103/4/31
f 91/4/32 93/4/32 105/4/32 104/4/32
f 93/4/33 94/4/33 106/4/33 105/4/33
f 94/4/34 95/4/34 107/4/34 106/4/34
f 95/4/35 96/4/35 108/4/35 107/4/35
f 96/4/36 97/4/36 109/4/36 108/4/36
f 97/4/37 98/4/37 110/4/37 109/4/37
f 98/4/38 99/4/38 111/4/38 110/4/38
f 99/4/39 100/4/39 112/4/39 111/4/39
f 100/4/40 101/4/40 113/4/40 112/4/40
f 101/4/41 102/4/41 114/4/41 113/4/41
f 102/4/42 92/4/42 103/4/42 114/4/42
f 115/5/1 116/5/1 117/5/1 118/5/1 119/5/1 120/5/1 121/5/1 122/5/1 123/5/1 124/5/1 125/5/1 126/5/1
f 126/5/43 125/5/43 127/5/43 128/5/43
f 125/5/44 124/5/44 129/5/44 127/5/44
f 124/5/45 123/5/45 130/5/45 129/5/45
f 123/5/46 122/5/46 131/5/46 130/5/46
f 122/5/47 121/5/47 132/5/47 131/5/47
f 121/5/48 120/5/48 133/5/48 132/5/48
f 120/5/49 119/5/49 134/5/49 133/5/49
f 119/5/50 118/5/50 135/5/50 134/5/50
f 118/5/51 117/5/51 136/5/51 135/5/51
f 117/5/52 116/5/52 137/5/52 136/5/52
f 116/5/53 115/5/53 138/5/53 137/5/53
f 115/5/54 126/5/54 128/5/54 138/5/54
f 128/5/55 127/5/55 139/5/55 140/5/55
f 127/5/56 129/5/56 141/5/56 139/5/56
f 129/5/57 130/5/57 142/5/57 141/5/57
f 130/5/58 131/5/58 143/5/58 142/5/58
f 131/5/59 132/5/59 144/5/59 143/5/59
f 132/5/60 133/5/60 145/5/60 144/5/60
f 133/5/61 134/5/61 146/5/61 145/5/61
f 134/5/62 135/5/62 147/5/62 146/5/62
f 135/5/63 136/5/63 148/5/63 147/5/63
f 136/5/64 137/5/64 149/5/64 148/5/64
f 137/5/65 138/5/65 150/5/65 149/5/65
f 138/5/66 128/5/66 140/5/66 150/5/66
f 140/5/67 139/5/67 151/5/67 152/5/67
f 139/5/68 141/5/68 153/5/68 151/5/68
f 141/5/69 142/5/69 154/5/69 153/5/69
f 142/5/70 143/5/70 155/5/70 154/5/70
f 143/5/71 144/5/71 156/5/71 155/5/71
f 144/5/72 145/5/72 157/5/72 156/5/72
f 145/5/73 146/5/73 158/5/73 157/5/73
f 146/5/74 147/5/74 159/5/74 158/5/74
f 147/5/75 148/5/75 160/5/75 159/5/75
f 148/5/76 149/5/76 161/5/76 160/5/76
f 149/5/77 150/5/77 162/5/77 161/5/77
f 150/5/78 140/5/78 152/5/78 162/5/78
f 163/5/2 164/5/2 165/5/2 166/5/2 167/5/2 168/5/2 169/5/2 170/5/2 171/5/2 172/5/2 173/5/2 174/5/2
f 152/5/79 151/5/79 164/5/79 163/5/79
f 151/5/80 153/5/80 165/5/80 164/5/80
f 153/5/81 154/5/81 166/5/81 165/5/81
f 154/5/82 155/5/82 167/5/82 166/5/82
f 155/5/83 156/5/83 168/5/83 167/5/83
f 156/5/84 157/5/84 169/5/84 168/5/84
f 157/5/85 158/5/85 170/5/85 169/5/85
f 158/5/86 159/5/86 171/5/86 170/5/86
f 159/5/87 160/5/87 172/5/87 171/5/87
f 160/5/88 161/5/88 173/5/88 172/5/88
f 161/5/89 162/5/89 174/5/89 173/5/89
f 162/5/90 152/5/90 163/5/90 174/5/90
f 175/6/1 176/6/1 177/6/1 178/6/1 179/6/1 180/6/1 181/6/1 182/6/1 183/6/1 184/6/1 185/6/1 186/6/1
f 186/6/91 185/6/91 187/6/91 188/6/91
f 185/6/92 184/6/92 189/6/92 187/6/92
f 184/6/93 183/6/93 190/6/93 189/6/93
f 183/6/94 182/6/94 191/6/94 190/6/94
f 182/6/95 181/6/95 192/6/95 191/6/95
f 181/6/96 180/6/96 193/6/96 192/6/96
f 180/6/97 179/6/97 194/6/97 193/6/97
f 179/6/98 178/6/98 195/6/98 194/6/98
f 178/6/99 177/6/99 196/6/99 195/6/99
f 177/6/100 176/6/100 197/6/100 196/6/100
f 176/6/101 175/6/101 198/6/101 197/6/101
f 175/6/102 186/6/102 188/6/102 198/6/102
f 188/6/23 187/6/23 199/6/23 200/6/23
f 187/6/24 189/6/24 201/6/24 199/6/24
f 189/6/10 190/6/10 202/6/10 201/6/10
f 190/6/25 191/6/25 203/6/25 202/6/25
f 191/6/26 192/6/26 204/6/26 203/6/26
f 192/6/8 193/6/8 205/6/8 204/6/8
f 193/6/27 194/6/27 206/6/27 205/6/27
f 194/6/28 195/6/28 207/6/28 206/6/28
f 195/6/9 196/6/9 208/6/9 207/6/9
f 196/6/29 197/6/29 209/6/29 208/6/29
f 197/6/30 198/6/30 210/6/30 209/6/30
f 198/6/7 188/6/7 200/6/7 210/6/7
f 211/6/2 212/6/2 213/6/2 214/6/2 215/6/2 216/6/2 217/6/2 218/6/2 219/6/2 220/6/2 221/6/2 222/6/2
f 200/6/103 199/6/103 212/6/103 211/6/103
f 199/6/104 201/6/104 213/6/104 212/6/104
f 201/6/105 202/6/105 214/6/105 213/6/105
f 202/6/106 203/6/106 215/6/106 214/6/106
f 203/6/107 204/6/107 216/6/107 215/6/107
f 204/6/108 205/6/108 217/6/108 216/6/108
f 205/6/109 206/6/109 218/6/109 217/6/109
f 206/6/110 207/6/110 219/6/110 218/6/110
f 207/6/111 208/6/111 220/6/111 219/6/111
f 208/6/112 209/6/112 221/6/112 220/6/112
f 209/6/113 210/6/113 222/6/113 221/6/113
f 210/6/114 200/6/114 211/6/114 222/6/114
f 223/6/1 224/6/1 225/6/1 226/6/1 227/6/1 228/6/1 229/6/1 230/6/1 231/6/1 232/6/1 233/6/1 234/6/1
f 234/6/91 233/6/91 235/6/91 236/6/91
f 233/6/92 232/6/92 237/6/92 235/6/92
f 232/6/93 231/6/93 238/6/93 237/6/93
f 231/6/94 230/6/94 239/6/94 238/6/94
f 230/6/95 229/6/95 240/6/95 239/6/95
f 229/6/96 228/6/96 241/6/96 240/6/96
f 228/6/97 227/6/97 242/6/97 241/6/97
f 227/6/98 226/6/98 243/6/98 242/6/98
f 226/6/99 225/6/99 244/6/99 243/6/99
f 225/6/100 224/6/100 245/6/100 244/6/100
f 224/6/101 223/6/101 246/6/101 245/6/101
f 223/6/102 234/6/102 236/6/102 246/6/102
f 236/6/23 235/6/23 247/6/23 248/6/23
f 235/6/24 237/6/24 249/6/24 247/6/24
f 237/6/10 238/6/10 250/6/10 249/6/10
f 238/6/25 239/6/25 251/6/25 250/6/25
f 239/6/26 240/6/26 252/6/26 251/6/26
f 240/6/8 241/6/8 253/6/8 252/6/8
f 241/6/27 242/6/27 254/6/27 253/6/27
f 242/6/28 243/6/28 255/6/28 254/6/28
f 243/6/9 244/6/9 256/6/9 255/6/9
f 244/6/29 245/6/29 257/6/29 256/6/29
f 245/6/30 246/6/30 258/6/30 257/6/30
f 246/6/7 236/6/7 248/6/7 258/6/7
f 259/6/2 260/6/2 261/6/2 262/6/2 263/6/2 264/6/2 265/6/2 266/6/2 267/6/2 268/6/2 269/6/2 270/6/2
f 248/6/103 247/6/103 260/6/103 259/6/103
f 247/6/104 249/6/104 261/6/104 260/6/104
f 249/6/105 250/6/105 262/6/105 261/6/105
f 250/6/106 251/6/106 263/6/106 262/6/106
f 251/6/107 252/6/107 264/6/107 263/6/107
f 252/6/108 253/6/108 265/6/108 264/6/108
f 253/6/109 254/6/109 266/6/109 265/6/109
f 254/6/110 255/6/110 267/6/110 266/6/110
f 255/6/111 256/6/111 268/6/111 267/6/111
f 256/6/112 257/6/112 269/6/112 268/6/112
f 257/6/113 258/6/113 270/6/113 269/6/113
f 258/6/114 248/6/114 259/6/114 270/6/114
f 271/1/1 272/1/1 273/1/1 274/1/1
f 275/1/2 276/1/2 277/1/2 278/1/2
f 271/1/7 274/1/7 276/1/7 275/1/7
f 273/1/8 272/1/8 278/1/8 277/1/8
f 271/1/9 275/1/9 278/1/9 272/1/9
f 274/1/10 273/1/10 277/1/10 276/1/10
f 279/1/1 280/1/1 281/1/1 282/1/1
f 283/1/2 284/1/2 285/1/2 286/1/2
f 279/1/7 282/1/7 284/1/7 283/1/7
f 281/1/8 280/1/8 286/1/8 285/1/8
f 279/1/9 283/1/9 286/1/9 280/1/9
f 282/1/10 281/1/10 285/1/10 284/1/10
f 271/1/1 272/1/1 287/1/1 288/1/1
f 283/1/2 289/1/2 290/1/2 286/1/2
f 271/1/7 288/1/7 289/1/7 283/1/7
f 287/1/8 272/1/8 286/1/8 290/1/8
f 271/1/9 283/1/9 286/1/9 272/1/9
f 288/1/10 287/1/10 290/1/10 289/1/10
f 291/1/1 292/1/1 273/1/1 274/1/1
f 293/1/2 284/1/2 285/1/2 294/1/2
f 291/1/7 274/1/7 284/1/7 293/1/7
f 273/1/8 292/1/8 294/1/8 285/1/8
f 291/1/9 293/1/9 294/1/9 292/1/9
f 274/1/10 273/1/10 285/1/10 284/1/10
f 295/3/1 296/3/1 297/3/1 298/3/1
f 299/3/2 300/3/2 301/3/2 302/3/2
f 295/3/7 298/3/7 300/3/7 299/3/7
f 297/3/8 296/3/8 302/3/8 301/3/8
f 295/3/9 299/3/9 302/3/9 296/3/9
f 298/3/10 297/3/10 301/3/10 300/3/10
