# Blender 5.2.0 LTS
# www.blender.org
mtllib FN_Bookcase_Tall.mtl
o FN_Bookcase_Tall
v -0.380000 0.000000 0.140000
v -0.380000 0.000000 -0.154000
v 0.380000 0.000000 -0.154000
v 0.380000 0.000000 0.140000
v -0.380000 0.080000 0.140000
v 0.380000 0.080000 0.140000
v 0.380000 0.080000 -0.154000
v -0.380000 0.080000 -0.154000
v -0.400000 0.080000 0.160000
v -0.400000 0.080000 -0.160000
v -0.380000 0.080000 -0.160000
v -0.380000 0.080000 0.160000
v -0.400000 1.980000 0.160000
v -0.380000 1.980000 0.160000
v -0.380000 1.980000 -0.160000
v -0.400000 1.980000 -0.160000
v 0.380000 0.080000 0.160000
v 0.380000 0.080000 -0.160000
v 0.400000 0.080000 -0.160000
v 0.400000 0.080000 0.160000
v 0.380000 1.980000 0.160000
v 0.400000 1.980000 0.160000
v 0.400000 1.980000 -0.160000
v 0.380000 1.980000 -0.160000
v -0.400000 0.100000 0.160000
v 0.400000 0.100000 0.160000
v 0.400000 0.100000 -0.160000
v -0.400000 0.100000 -0.160000
v -0.400000 1.960000 0.160000
v -0.400000 1.960000 -0.160000
v 0.400000 1.960000 -0.160000
v 0.400000 1.960000 0.160000
v -0.380000 0.080000 -0.148000
v 0.380000 0.080000 -0.148000
v -0.380000 1.980000 -0.148000
v 0.380000 1.980000 -0.148000
v -0.377371 0.462000 -0.154110
v 0.377371 0.462000 -0.154110
v 0.377371 0.462000 0.154110
v -0.377371 0.462000 0.154110
v 0.382000 0.467000 0.156000
v -0.382000 0.467000 0.156000
v 0.382000 0.467000 -0.156000
v -0.382000 0.467000 -0.156000
v 0.382000 0.477000 0.156000
v -0.382000 0.477000 0.156000
v 0.382000 0.477000 -0.156000
v -0.382000 0.477000 -0.156000
v -0.377371 0.482000 0.154110
v 0.377371 0.482000 0.154110
v 0.377371 0.482000 -0.154110
v -0.377371 0.482000 -0.154110
v -0.377371 0.834000 -0.154110
v 0.377371 0.834000 -0.154110
v 0.377371 0.834000 0.154110
v -0.377371 0.834000 0.154110
v 0.382000 0.839000 0.156000
v -0.382000 0.839000 0.156000
v 0.382000 0.839000 -0.156000
v -0.382000 0.839000 -0.156000
v 0.382000 0.849000 0.156000
v -0.382000 0.849000 0.156000
v 0.382000 0.849000 -0.156000
v -0.382000 0.849000 -0.156000
v -0.377371 0.854000 0.154110
v 0.377371 0.854000 0.154110
v 0.377371 0.854000 -0.154110
v -0.377371 0.854000 -0.154110
v -0.377371 1.206000 -0.154110
v 0.377371 1.206000 -0.154110
v 0.377371 1.206000 0.154110
v -0.377371 1.206000 0.154110
v 0.382000 1.211000 0.156000
v -0.382000 1.211000 0.156000
v 0.382000 1.211000 -0.156000
v -0.382000 1.211000 -0.156000
v 0.382000 1.221000 0.156000
v -0.382000 1.221000 0.156000
v 0.382000 1.221000 -0.156000
v -0.382000 1.221000 -0.156000
v -0.377371 1.226000 0.154110
v 0.377371 1.226000 0.154110
v 0.377371 1.226000 -0.154110
v -0.377371 1.226000 -0.154110
v -0.377371 1.578000 -0.154110
v 0.377371 1.578000 -0.154110
v 0.377371 1.578000 0.154110
v -0.377371 1.578000 0.154110
v 0.382000 1.583000 0.156000
v -0.382000 1.583000 0.156000
v 0.382000 1.583000 -0.156000
v -0.382000 1.583000 -0.156000
v 0.382000 1.593000 0.156000
v -0.382000 1.593000 0.156000
v 0.382000 1.593000 -0.156000
v -0.382000 1.593000 -0.156000
v -0.377371 1.598000 0.154110
v 0.377371 1.598000 0.154110
v 0.377371 1.598000 -0.154110
v -0.377371 1.598000 -0.154110
vn -0.0000 -1.0000 -0.0000
vn -0.0000 1.0000 -0.0000
vn -0.0000 -0.0000 1.0000
vn -0.0000 -0.0000 -1.0000
vn -1.0000 -0.0000 -0.0000
vn 1.0000 -0.0000 -0.0000
vn -0.0000 -0.3536 0.9354
vn 0.7338 -0.6794 -0.0000
vn -0.0000 -0.3536 -0.9354
vn -0.7338 -0.6794 -0.0000
vn -0.0000 0.3536 0.9354
vn 0.7338 0.6794 -0.0000
vn -0.0000 0.3536 -0.9354
vn -0.7338 0.6794 -0.0000
vn 0.7338 -0.6793 -0.0000
vn -0.7338 -0.6793 -0.0000
vn 0.7338 0.6793 -0.0000
vn -0.7338 0.6793 -0.0000
vt 0.687500 0.937500
vt 0.437500 0.937500
vt 0.812500 0.937500
s 0
usemtl FN_Atlas
f 1/1/1 2/1/1 3/1/1 4/1/1
f 5/1/2 6/1/2 7/1/2 8/1/2
f 1/1/3 4/1/3 6/1/3 5/1/3
f 3/1/4 2/1/4 8/1/4 7/1/4
f 1/1/5 5/1/5 8/1/5 2/1/5
f 4/1/6 3/1/6 7/1/6 6/1/6
f 9/2/1 10/2/1 11/2/1 12/2/1
f 13/2/2 14/2/2 15/2/2 16/2/2
f 9/1/3 12/1/3 14/1/3 13/1/3
f 11/2/4 10/2/4 16/2/4 15/2/4
f 9/2/5 13/2/5 16/2/5 10/2/5
f 12/2/6 11/2/6 15/2/6 14/2/6
f 17/2/1 18/2/1 19/2/1 20/2/1
f 21/2/2 22/2/2 23/2/2 24/2/2
f 17/1/3 20/1/3 22/1/3 21/1/3
f 19/2/4 18/2/4 24/2/4 23/2/4
f 17/2/5 21/2/5 24/2/5 18/2/5
f 20/2/6 19/2/6 23/2/6 22/2/6
f 9/2/1 10/2/1 19/2/1 20/2/1
f 25/2/2 26/2/2 27/2/2 28/2/2
f 9/1/3 20/1/3 26/1/3 25/1/3
f 19/2/4 10/2/4 28/2/4 27/2/4
f 9/2/5 25/2/5 28/2/5 10/2/5
f 20/2/6 19/2/6 27/2/6 26/2/6
f 29/2/1 30/2/1 31/2/1 32/2/1
f 13/2/2 22/2/2 23/2/2 16/2/2
f 29/1/3 32/1/3 22/1/3 13/1/3
f 31/2/4 30/2/4 16/2/4 23/2/4
f 29/2/5 13/2/5 16/2/5 30/2/5
f 32/2/6 31/2/6 23/2/6 22/2/6
f 33/3/1 11/3/1 18/3/1 34/3/1
f 35/3/2 36/3/2 24/3/2 15/3/2
f 33/3/3 34/3/3 36/3/3 35/3/3
f 18/3/4 11/3/4 15/3/4 24/3/4
f 33/3/5 35/3/5 15/3/5 11/3/5
f 34/3/6 18/3/6 24/3/6 36/3/6
f 37/1/1 38/1/1 39/1/1 40/1/1
f 40/1/7 39/1/7 41/1/7 42/1/7
f 39/1/8 38/1/8 43/1/8 41/1/8
f 38/1/9 37/1/9 44/1/9 43/1/9
f 37/1/10 40/1/10 42/1/10 44/1/10
f 42/1/3 41/1/3 45/1/3 46/1/3
f 41/1/6 43/1/6 47/1/6 45/1/6
f 43/1/4 44/1/4 48/1/4 47/1/4
f 44/1/5 42/1/5 46/1/5 48/1/5
f 49/2/2 50/2/2 51/2/2 52/2/2
f 46/1/11 45/1/11 50/1/11 49/1/11
f 45/1/12 47/1/12 51/1/12 50/1/12
f 47/1/13 48/1/13 52/1/13 51/1/13
f 48/1/14 46/1/14 49/1/14 52/1/14
f 53/1/1 54/1/1 55/1/1 56/1/1
f 56/1/7 55/1/7 57/1/7 58/1/7
f 55/1/15 54/1/15 59/1/15 57/1/15
f 54/1/9 53/1/9 60/1/9 59/1/9
f 53/1/16 56/1/16 58/1/16 60/1/16
f 58/1/3 57/1/3 61/1/3 62/1/3
f 57/1/6 59/1/6 63/1/6 61/1/6
f 59/1/4 60/1/4 64/1/4 63/1/4
f 60/1/5 58/1/5 62/1/5 64/1/5
f 65/2/2 66/2/2 67/2/2 68/2/2
f 62/1/11 61/1/11 66/1/11 65/1/11
f 61/1/17 63/1/17 67/1/17 66/1/17
f 63/1/13 64/1/13 68/1/13 67/1/13
f 64/1/18 62/1/18 65/1/18 68/1/18
f 69/1/1 70/1/1 71/1/1 72/1/1
f 72/1/7 71/1/7 73/1/7 74/1/7
f 71/1/15 70/1/15 75/1/15 73/1/15
f 70/1/9 69/1/9 76/1/9 75/1/9
f 69/1/16 72/1/16 74/1/16 76/1/16
f 74/1/3 73/1/3 77/1/3 78/1/3
f 73/1/6 75/1/6 79/1/6 77/1/6
f 75/1/4 76/1/4 80/1/4 79/1/4
f 76/1/5 74/1/5 78/1/5 80/1/5
f 81/2/2 82/2/2 83/2/2 84/2/2
f 78/1/11 77/1/11 82/1/11 81/1/11
f 77/1/12 79/1/12 83/1/12 82/1/12
f 79/1/13 80/1/13 84/1/13 83/1/13
f 80/1/14 78/1/14 81/1/14 84/1/14
f 85/1/1 86/1/1 87/1/1 88/1/1
f 88/1/7 87/1/7 89/1/7 90/1/7
f 87/1/8 86/1/8 91/1/8 89/1/8
f 86/1/9 85/1/9 92/1/9 91/1/9
f 85/1/10 88/1/10 90/1/10 92/1/10
f 90/1/3 89/1/3 93/1/3 94/1/3
f 89/1/6 91/1/6 95/1/6 93/1/6
f 91/1/4 92/1/4 96/1/4 95/1/4
f 92/1/5 90/1/5 94/1/5 96/1/5
f 97/2/2 98/2/2 99/2/2 100/2/2
f 94/1/11 93/1/11 98/1/11 97/1/11
f 93/1/17 95/1/17 99/1/17 98/1/17
f 95/1/13 96/1/13 100/1/13 99/1/13
f 96/1/18 94/1/18 97/1/18 100/1/18
