# Blender 5.2.0 LTS
# www.blender.org
mtllib FN_Bed_Four_Poster.mtl
o FN_Bed_Four_Poster
v -0.800000 0.000000 1.050000
v -0.800000 0.000000 0.960000
v -0.710000 0.000000 0.960000
v -0.710000 0.000000 1.050000
v -0.800000 2.050000 1.050000
v -0.710000 2.050000 1.050000
v -0.710000 2.050000 0.960000
v -0.800000 2.050000 0.960000
v -0.815000 2.010000 1.065000
v -0.815000 2.010000 0.945000
v -0.695000 2.010000 0.945000
v -0.695000 2.010000 1.065000
v -0.815000 2.050000 1.065000
v -0.695000 2.050000 1.065000
v -0.695000 2.050000 0.945000
v -0.815000 2.050000 0.945000
v -0.800000 0.000000 -0.960000
v -0.800000 0.000000 -1.050000
v -0.710000 0.000000 -1.050000
v -0.710000 0.000000 -0.960000
v -0.800000 2.050000 -0.960000
v -0.710000 2.050000 -0.960000
v -0.710000 2.050000 -1.050000
v -0.800000 2.050000 -1.050000
v -0.815000 2.010000 -0.945000
v -0.815000 2.010000 -1.065000
v -0.695000 2.010000 -1.065000
v -0.695000 2.010000 -0.945000
v -0.815000 2.050000 -0.945000
v -0.695000 2.050000 -0.945000
v -0.695000 2.050000 -1.065000
v -0.815000 2.050000 -1.065000
v 0.710000 0.000000 1.050000
v 0.710000 0.000000 0.960000
v 0.800000 0.000000 0.960000
v 0.800000 0.000000 1.050000
v 0.710000 2.050000 1.050000
v 0.800000 2.050000 1.050000
v 0.800000 2.050000 0.960000
v 0.710000 2.050000 0.960000
v 0.695000 2.010000 1.065000
v 0.695000 2.010000 0.945000
v 0.815000 2.010000 0.945000
v 0.815000 2.010000 1.065000
v 0.695000 2.050000 1.065000
v 0.815000 2.050000 1.065000
v 0.815000 2.050000 0.945000
v 0.695000 2.050000 0.945000
v 0.710000 0.000000 -0.960000
v 0.710000 0.000000 -1.050000
v 0.800000 0.000000 -1.050000
v 0.800000 0.000000 -0.960000
v 0.710000 2.050000 -0.960000
v 0.800000 2.050000 -0.960000
v 0.800000 2.050000 -1.050000
v 0.710000 2.050000 -1.050000
v 0.695000 2.010000 -0.945000
v 0.695000 2.010000 -1.065000
v 0.815000 2.010000 -1.065000
v 0.815000 2.010000 -0.945000
v 0.695000 2.050000 -0.945000
v 0.815000 2.050000 -0.945000
v 0.815000 2.050000 -1.065000
v 0.695000 2.050000 -1.065000
v -0.755000 0.300000 1.005000
v -0.755000 0.300000 -1.005000
v -0.705000 0.300000 -1.005000
v -0.705000 0.300000 1.005000
v -0.755000 0.400000 1.005000
v -0.705000 0.400000 1.005000
v -0.705000 0.400000 -1.005000
v -0.755000 0.400000 -1.005000
v 0.705000 0.300000 1.005000
v 0.705000 0.300000 -1.005000
v 0.755000 0.300000 -1.005000
v 0.755000 0.300000 1.005000
v 0.705000 0.400000 1.005000
v 0.755000 0.400000 1.005000
v 0.755000 0.400000 -1.005000
v 0.705000 0.400000 -1.005000
v -0.730000 0.310000 1.005000
v -0.730000 0.310000 0.955000
v 0.730000 0.310000 0.955000
v 0.730000 0.310000 1.005000
v -0.730000 0.390000 1.005000
v 0.730000 0.390000 1.005000
v 0.730000 0.390000 0.955000
v -0.730000 0.390000 0.955000
v -0.730000 0.310000 -0.955000
v -0.730000 0.310000 -1.005000
v 0.730000 0.310000 -1.005000
v 0.730000 0.310000 -0.955000
v -0.730000 0.390000 -0.955000
v 0.730000 0.390000 -0.955000
v 0.730000 0.390000 -1.005000
v -0.730000 0.390000 -1.005000
v -0.755000 1.930000 1.005000
v -0.755000 1.930000 -1.005000
v -0.705000 1.930000 -1.005000
v -0.705000 1.930000 1.005000
v -0.755000 1.990000 1.005000
v -0.705000 1.990000 1.005000
v -0.705000 1.990000 -1.005000
v -0.755000 1.990000 -1.005000
v 0.705000 1.930000 1.005000
v 0.705000 1.930000 -1.005000
v 0.755000 1.930000 -1.005000
v 0.755000 1.930000 1.005000
v 0.705000 1.990000 1.005000
v 0.755000 1.990000 1.005000
v 0.755000 1.990000 -1.005000
v 0.705000 1.990000 -1.005000
v -0.730000 1.940000 1.005000
v -0.730000 1.940000 0.955000
v 0.730000 1.940000 0.955000
v 0.730000 1.940000 1.005000
v -0.730000 1.980000 1.005000
v 0.730000 1.980000 1.005000
v 0.730000 1.980000 0.955000
v -0.730000 1.980000 0.955000
v -0.730000 1.940000 -0.955000
v -0.730000 1.940000 -1.005000
v 0.730000 1.940000 -1.005000
v 0.730000 1.940000 -0.955000
v -0.730000 1.980000 -0.955000
v 0.730000 1.980000 -0.955000
v 0.730000 1.980000 -1.005000
v -0.730000 1.980000 -1.005000
v -0.730000 0.500000 -0.960000
v -0.730000 0.500000 -0.996000
v 0.730000 0.500000 -0.996000
v 0.730000 0.500000 -0.960000
v -0.730000 0.980000 -0.960000
v 0.730000 0.980000 -0.960000
v 0.730000 0.980000 -0.996000
v -0.730000 0.980000 -0.996000
v -0.720000 0.390000 0.970000
v -0.720000 0.390000 -0.970000
v 0.720000 0.390000 -0.970000
v 0.720000 0.390000 0.970000
v -0.720000 0.420000 0.970000
v 0.720000 0.420000 0.970000
v 0.720000 0.420000 -0.970000
v -0.720000 0.420000 -0.970000
v -0.700000 0.420000 0.950000
v -0.700000 0.420000 -0.950000
v 0.700000 0.420000 -0.950000
v 0.700000 0.420000 0.950000
v -0.700000 0.520000 0.950000
v 0.700000 0.520000 0.950000
v 0.700000 0.520000 -0.950000
v -0.700000 0.520000 -0.950000
v -0.706000 0.508000 -0.600000
v 0.706000 0.508000 -0.600000
v 0.706000 0.508000 0.950000
v -0.706000 0.508000 0.950000
v -0.686000 0.596000 0.930000
v 0.686000 0.596000 0.930000
v 0.686000 0.596000 -0.580000
v -0.686000 0.596000 -0.580000
v -0.690000 0.588000 -0.540000
v -0.690000 0.588000 -0.640000
v 0.690000 0.588000 -0.640000
v 0.690000 0.588000 -0.540000
v -0.690000 0.614000 -0.540000
v 0.690000 0.614000 -0.540000
v 0.690000 0.614000 -0.640000
v -0.690000 0.614000 -0.640000
v -0.660000 0.516000 -0.660000
v -0.660000 0.516000 -0.910000
v -0.060000 0.516000 -0.910000
v -0.060000 0.516000 -0.660000
v -0.660000 0.596000 -0.660000
v -0.060000 0.596000 -0.660000
v -0.060000 0.596000 -0.910000
v -0.660000 0.596000 -0.910000
v 0.060000 0.516000 -0.660000
v 0.060000 0.516000 -0.910000
v 0.660000 0.516000 -0.910000
v 0.660000 0.516000 -0.660000
v 0.060000 0.596000 -0.660000
v 0.660000 0.596000 -0.660000
v 0.660000 0.596000 -0.910000
v 0.060000 0.596000 -0.910000
vn -0.0000 -1.0000 -0.0000
vn -0.0000 1.0000 -0.0000
vn -0.0000 -0.0000 1.0000
vn -0.0000 -0.0000 -1.0000
vn -1.0000 -0.0000 -0.0000
vn 1.0000 -0.0000 -0.0000
vn -0.0000 0.2216 0.9751
vn 0.9751 0.2216 -0.0000
vn -0.0000 0.2216 -0.9751
vn -0.9751 0.2216 -0.0000
vt 0.812500 0.937500
vt 0.562500 0.687500
vt 0.562500 0.562500
vt 0.187500 0.687500
s 0
usemtl FN_Atlas
f 1/1/1 2/1/1 3/1/1 4/1/1
f 5/1/2 6/1/2 7/1/2 8/1/2
f 1/1/3 4/1/3 6/1/3 5/1/3
f 3/1/4 2/1/4 8/1/4 7/1/4
f 1/1/5 5/1/5 8/1/5 2/1/5
f 4/1/6 3/1/6 7/1/6 6/1/6
f 9/1/1 10/1/1 11/1/1 12/1/1
f 13/1/2 14/1/2 15/1/2 16/1/2
f 9/1/3 12/1/3 14/1/3 13/1/3
f 11/1/4 10/1/4 16/1/4 15/1/4
f 9/1/5 13/1/5 16/1/5 10/1/5
f 12/1/6 11/1/6 15/1/6 14/1/6
f 17/1/1 18/1/1 19/1/1 20/1/1
f 21/1/2 22/1/2 23/1/2 24/1/2
f 17/1/3 20/1/3 22/1/3 21/1/3
f 19/1/4 18/1/4 24/1/4 23/1/4
f 17/1/5 21/1/5 24/1/5 18/1/5
f 20/1/6 19/1/6 23/1/6 22/1/6
f 25/1/1 26/1/1 27/1/1 28/1/1
f 29/1/2 30/1/2 31/1/2 32/1/2
f 25/1/3 28/1/3 30/1/3 29/1/3
f 27/1/4 26/1/4 32/1/4 31/1/4
f 25/1/5 29/1/5 32/1/5 26/1/5
f 28/1/6 27/1/6 31/1/6 30/1/6
f 33/1/1 34/1/1 35/1/1 36/1/1
f 37/1/2 38/1/2 39/1/2 40/1/2
f 33/1/3 36/1/3 38/1/3 37/1/3
f 35/1/4 34/1/4 40/1/4 39/1/4
f 33/1/5 37/1/5 40/1/5 34/1/5
f 36/1/6 35/1/6 39/1/6 38/1/6
f 41/1/1 42/1/1 43/1/1 44/1/1
f 45/1/2 46/1/2 47/1/2 48/1/2
f 41/1/3 44/1/3 46/1/3 45/1/3
f 43/1/4 42/1/4 48/1/4 47/1/4
f 41/1/5 45/1/5 48/1/5 42/1/5
f 44/1/6 43/1/6 47/1/6 46/1/6
f 49/1/1 50/1/1 51/1/1 52/1/1
f 53/1/2 54/1/2 55/1/2 56/1/2
f 49/1/3 52/1/3 54/1/3 53/1/3
f 51/1/4 50/1/4 56/1/4 55/1/4
f 49/1/5 53/1/5 56/1/5 50/1/5
f 52/1/6 51/1/6 55/1/6 54/1/6
f 57/1/1 58/1/1 59/1/1 60/1/1
f 61/1/2 62/1/2 63/1/2 64/1/2
f 57/1/3 60/1/3 62/1/3 61/1/3
f 59/1/4 58/1/4 64/1/4 63/1/4
f 57/1/5 61/1/5 64/1/5 58/1/5
f 60/1/6 59/1/6 63/1/6 62/1/6
f 65/1/1 66/1/1 67/1/1 68/1/1
f 69/1/2 70/1/2 71/1/2 72/1/2
f 65/1/3 68/1/3 70/1/3 69/1/3
f 67/1/4 66/1/4 72/1/4 71/1/4
f 65/1/5 69/1/5 72/1/5 66/1/5
f 68/1/6 67/1/6 71/1/6 70/1/6
f 73/1/1 74/1/1 75/1/1 76/1/1
f 77/1/2 78/1/2 79/1/2 80/1/2
f 73/1/3 76/1/3 78/1/3 77/1/3
f 75/1/4 74/1/4 80/1/4 79/1/4
f 73/1/5 77/1/5 80/1/5 74/1/5
f 76/1/6 75/1/6 79/1/6 78/1/6
f 81/1/1 82/1/1 83/1/1 84/1/1
f 85/1/2 86/1/2 87/1/2 88/1/2
f 81/1/3 84/1/3 86/1/3 85/1/3
f 83/1/4 82/1/4 88/1/4 87/1/4
f 81/1/5 85/1/5 88/1/5 82/1/5
f 84/1/6 83/1/6 87/1/6 86/1/6
f 89/1/1 90/1/1 91/1/1 92/1/1
f 93/1/2 94/1/2 95/1/2 96/1/2
f 89/1/3 92/1/3 94/1/3 93/1/3
f 91/1/4 90/1/4 96/1/4 95/1/4
f 89/1/5 93/1/5 96/1/5 90/1/5
f 92/1/6 91/1/6 95/1/6 94/1/6
f 97/1/1 98/1/1 99/1/1 100/1/1
f 101/1/2 102/1/2 103/1/2 104/1/2
f 97/1/3 100/1/3 102/1/3 101/1/3
f 99/1/4 98/1/4 104/1/4 103/1/4
f 97/1/5 101/1/5 104/1/5 98/1/5
f 100/1/6 99/1/6 103/1/6 102/1/6
f 105/1/1 106/1/1 107/1/1 108/1/1
f 109/1/2 110/1/2 111/1/2 112/1/2
f 105/1/3 108/1/3 110/1/3 109/1/3
f 107/1/4 106/1/4 112/1/4 111/1/4
f 105/1/5 109/1/5 112/1/5 106/1/5
f 108/1/6 107/1/6 111/1/6 110/1/6
f 113/1/1 114/1/1 115/1/1 116/1/1
f 117/1/2 118/1/2 119/1/2 120/1/2
f 113/1/3 116/1/3 118/1/3 117/1/3
f 115/1/4 114/1/4 120/1/4 119/1/4
f 113/1/5 117/1/5 120/1/5 114/1/5
f 116/1/6 115/1/6 119/1/6 118/1/6
f 121/1/1 122/1/1 123/1/1 124/1/1
f 125/1/2 126/1/2 127/1/2 128/1/2
f 121/1/3 124/1/3 126/1/3 125/1/3
f 123/1/4 122/1/4 128/1/4 127/1/4
f 121/1/5 125/1/5 128/1/5 122/1/5
f 124/1/6 123/1/6 127/1/6 126/1/6
f 129/1/1 130/1/1 131/1/1 132/1/1
f 133/1/2 134/1/2 135/1/2 136/1/2
f 129/1/3 132/1/3 134/1/3 133/1/3
f 131/1/4 130/1/4 136/1/4 135/1/4
f 129/1/5 133/1/5 136/1/5 130/1/5
f 132/1/6 131/1/6 135/1/6 134/1/6
f 137/1/1 138/1/1 139/1/1 140/1/1
f 141/1/2 142/1/2 143/1/2 144/1/2
f 137/1/3 140/1/3 142/1/3 141/1/3
f 139/1/4 138/1/4 144/1/4 143/1/4
f 137/1/5 141/1/5 144/1/5 138/1/5
f 140/1/6 139/1/6 143/1/6 142/1/6
f 145/2/1 146/2/1 147/2/1 148/2/1
f 149/2/2 150/2/2 151/2/2 152/2/2
f 145/2/3 148/2/3 150/2/3 149/2/3
f 147/2/4 146/2/4 152/2/4 151/2/4
f 145/2/5 149/2/5 152/2/5 146/2/5
f 148/2/6 147/2/6 151/2/6 150/2/6
f 153/3/1 154/3/1 155/3/1 156/3/1
f 157/3/2 158/3/2 159/3/2 160/3/2
f 156/3/7 155/3/7 158/3/7 157/3/7
f 155/3/8 154/3/8 159/3/8 158/3/8
f 154/3/9 153/3/9 160/3/9 159/3/9
f 153/3/10 156/3/10 157/3/10 160/3/10
f 161/4/1 162/4/1 163/4/1 164/4/1
f 165/4/2 166/4/2 167/4/2 168/4/2
f 161/4/3 164/4/3 166/4/3 165/4/3
f 163/4/4 162/4/4 168/4/4 167/4/4
f 161/4/5 165/4/5 168/4/5 162/4/5
f 164/4/6 163/4/6 167/4/6 166/4/6
f 169/4/1 170/4/1 171/4/1 172/4/1
f 173/4/2 174/4/2 175/4/2 176/4/2
f 169/4/3 172/4/3 174/4/3 173/4/3
f 171/4/4 170/4/4 176/4/4 175/4/4
f 169/4/5 173/4/5 176/4/5 170/4/5
f 172/4/6 171/4/6 175/4/6 174/4/6
f 177/4/1 178/4/1 179/4/1 180/4/1
f 181/4/2 182/4/2 183/4/2 184/4/2
f 177/4/3 180/4/3 182/4/3 181/4/3
f 179/4/4 178/4/4 184/4/4 183/4/4
f 177/4/5 181/4/5 184/4/5 178/4/5
f 180/4/6 179/4/6 183/4/6 182/4/6
