# Blender 5.2.0 LTS
# www.blender.org
mtllib FN_Bench_Shoe.mtl
o FN_Bench_Shoe
v -0.450000 0.000000 0.180000
v -0.450000 0.000000 -0.180000
v -0.426000 0.000000 -0.180000
v -0.426000 0.000000 0.180000
v -0.450000 0.436000 0.180000
v -0.426000 0.436000 0.180000
v -0.426000 0.436000 -0.180000
v -0.450000 0.436000 -0.180000
v -0.451000 0.000000 0.106000
v -0.451000 0.000000 -0.106000
v -0.425000 0.000000 -0.106000
v -0.425000 0.000000 0.106000
v -0.451000 0.044000 0.106000
v -0.425000 0.044000 0.106000
v -0.425000 0.044000 -0.106000
v -0.451000 0.044000 -0.106000
v 0.426000 0.000000 0.180000
v 0.426000 0.000000 -0.180000
v 0.450000 0.000000 -0.180000
v 0.450000 0.000000 0.180000
v 0.426000 0.436000 0.180000
v 0.450000 0.436000 0.180000
v 0.450000 0.436000 -0.180000
v 0.426000 0.436000 -0.180000
v 0.425000 0.000000 0.106000
v 0.425000 0.000000 -0.106000
v 0.451000 0.000000 -0.106000
v 0.451000 0.000000 0.106000
v 0.425000 0.044000 0.106000
v 0.451000 0.044000 0.106000
v 0.451000 0.044000 -0.106000
v 0.425000 0.044000 -0.106000
v -0.425007 0.126000 0.082242
v 0.425007 0.126000 0.082242
v 0.425007 0.126000 0.133758
v -0.425007 0.126000 0.133758
v 0.429000 0.130000 0.134000
v -0.429000 0.130000 0.134000
v 0.429000 0.130000 0.082000
v -0.429000 0.130000 0.082000
v 0.429000 0.140000 0.134000
v -0.429000 0.140000 0.134000
v 0.429000 0.140000 0.082000
v -0.429000 0.140000 0.082000
v -0.425007 0.144000 0.133758
v 0.425007 0.144000 0.133758
v 0.425007 0.144000 0.082242
v -0.425007 0.144000 0.082242
v -0.425007 0.126000 0.010242
v 0.425007 0.126000 0.010242
v 0.425007 0.126000 0.061758
v -0.425007 0.126000 0.061758
v 0.429000 0.130000 0.062000
v -0.429000 0.130000 0.062000
v 0.429000 0.130000 0.010000
v -0.429000 0.130000 0.010000
v 0.429000 0.140000 0.062000
v -0.429000 0.140000 0.062000
v 0.429000 0.140000 0.010000
v -0.429000 0.140000 0.010000
v -0.425007 0.144000 0.061758
v 0.425007 0.144000 0.061758
v 0.425007 0.144000 0.010242
v -0.425007 0.144000 0.010242
v -0.425007 0.126000 -0.061758
v 0.425007 0.126000 -0.061758
v 0.425007 0.126000 -0.010242
v -0.425007 0.126000 -0.010242
v 0.429000 0.130000 -0.010000
v -0.429000 0.130000 -0.010000
v 0.429000 0.130000 -0.062000
v -0.429000 0.130000 -0.062000
v 0.429000 0.140000 -0.010000
v -0.429000 0.140000 -0.010000
v 0.429000 0.140000 -0.062000
v -0.429000 0.140000 -0.062000
v -0.425007 0.144000 -0.010242
v 0.425007 0.144000 -0.010242
v 0.425007 0.144000 -0.061758
v -0.425007 0.144000 -0.061758
v -0.425007 0.126000 -0.133758
v 0.425007 0.126000 -0.133758
v 0.425007 0.126000 -0.082242
v -0.425007 0.126000 -0.082242
v 0.429000 0.130000 -0.082000
v -0.429000 0.130000 -0.082000
v 0.429000 0.130000 -0.134000
v -0.429000 0.130000 -0.134000
v 0.429000 0.140000 -0.082000
v -0.429000 0.140000 -0.082000
v 0.429000 0.140000 -0.134000
v -0.429000 0.140000 -0.134000
v -0.425007 0.144000 -0.082242
v 0.425007 0.144000 -0.082242
v 0.425007 0.144000 -0.133758
v -0.425007 0.144000 -0.133758
v -0.425007 0.272000 0.082242
v 0.425007 0.272000 0.082242
v 0.425007 0.272000 0.133758
v -0.425007 0.272000 0.133758
v 0.429000 0.276000 0.134000
v -0.429000 0.276000 0.134000
v 0.429000 0.276000 0.082000
v -0.429000 0.276000 0.082000
v 0.429000 0.286000 0.134000
v -0.429000 0.286000 0.134000
v 0.429000 0.286000 0.082000
v -0.429000 0.286000 0.082000
v -0.425007 0.290000 0.133758
v 0.425007 0.290000 0.133758
v 0.425007 0.290000 0.082242
v -0.425007 0.290000 0.082242
v -0.425007 0.272000 0.010242
v 0.425007 0.272000 0.010242
v 0.425007 0.272000 0.061758
v -0.425007 0.272000 0.061758
v 0.429000 0.276000 0.062000
v -0.429000 0.276000 0.062000
v 0.429000 0.276000 0.010000
v -0.429000 0.276000 0.010000
v 0.429000 0.286000 0.062000
v -0.429000 0.286000 0.062000
v 0.429000 0.286000 0.010000
v -0.429000 0.286000 0.010000
v -0.425007 0.290000 0.061758
v 0.425007 0.290000 0.061758
v 0.425007 0.290000 0.010242
v -0.425007 0.290000 0.010242
v -0.425007 0.272000 -0.061758
v 0.425007 0.272000 -0.061758
v 0.425007 0.272000 -0.010242
v -0.425007 0.272000 -0.010242
v 0.429000 0.276000 -0.010000
v -0.429000 0.276000 -0.010000
v 0.429000 0.276000 -0.062000
v -0.429000 0.276000 -0.062000
v 0.429000 0.286000 -0.010000
v -0.429000 0.286000 -0.010000
v 0.429000 0.286000 -0.062000
v -0.429000 0.286000 -0.062000
v -0.425007 0.290000 -0.010242
v 0.425007 0.290000 -0.010242
v 0.425007 0.290000 -0.061758
v -0.425007 0.290000 -0.061758
v -0.425007 0.272000 -0.133758
v 0.425007 0.272000 -0.133758
v 0.425007 0.272000 -0.082242
v -0.425007 0.272000 -0.082242
v 0.429000 0.276000 -0.082000
v -0.429000 0.276000 -0.082000
v 0.429000 0.276000 -0.134000
v -0.429000 0.276000 -0.134000
v 0.429000 0.286000 -0.082000
v -0.429000 0.286000 -0.082000
v 0.429000 0.286000 -0.134000
v -0.429000 0.286000 -0.134000
v -0.425007 0.290000 -0.082242
v 0.425007 0.290000 -0.082242
v 0.425007 0.290000 -0.133758
v -0.425007 0.290000 -0.133758
v -0.444429 0.404000 -0.177772
v 0.444429 0.404000 -0.177772
v 0.444429 0.404000 0.177772
v -0.444429 0.404000 0.177772
v 0.450000 0.410000 0.180000
v -0.450000 0.410000 0.180000
v 0.450000 0.410000 -0.180000
v -0.450000 0.410000 -0.180000
v 0.450000 0.430000 0.180000
v -0.450000 0.430000 0.180000
v 0.450000 0.430000 -0.180000
v -0.450000 0.430000 -0.180000
v -0.444429 0.436000 0.177772
v 0.444429 0.436000 0.177772
v 0.444429 0.436000 -0.177772
v -0.444429 0.436000 -0.177772
v -0.419540 0.436000 -0.156338
v 0.419540 0.436000 -0.156338
v 0.419540 0.436000 0.156338
v -0.419540 0.436000 0.156338
v 0.424000 0.440760 0.158000
v -0.424000 0.440760 0.158000
v 0.424000 0.440760 -0.158000
v -0.424000 0.440760 -0.158000
v 0.424000 0.445240 0.158000
v -0.424000 0.445240 0.158000
v 0.424000 0.445240 -0.158000
v -0.424000 0.445240 -0.158000
v -0.419540 0.450000 0.156338
v 0.419540 0.450000 0.156338
v 0.419540 0.450000 -0.156338
v -0.419540 0.450000 -0.156338
vn -0.0000 -1.0000 -0.0000
vn -0.0000 1.0000 -0.0000
vn -0.0000 -0.0000 1.0000
vn -0.0000 -0.0000 -1.0000
vn -1.0000 -0.0000 -0.0000
vn 1.0000 -0.0000 -0.0000
vn -0.0000 -0.0604 0.9982
vn 0.7078 -0.7065 -0.0000
vn -0.0000 -0.0604 -0.9982
vn -0.7078 -0.7065 -0.0000
vn -0.0000 0.0604 0.9982
vn 0.7078 0.7065 -0.0000
vn -0.0000 0.0604 -0.9982
vn -0.7078 0.7065 -0.0000
vn -0.0000 -0.3482 0.9374
vn 0.7328 -0.6804 -0.0000
vn -0.0000 -0.3482 -0.9374
vn -0.7328 -0.6804 -0.0000
vn -0.0000 0.3482 0.9374
vn 0.7328 0.6804 -0.0000
vn -0.0000 0.3482 -0.9374
vn -0.7328 0.6804 -0.0000
vn -0.0000 -0.3297 0.9441
vn 0.7297 -0.6838 -0.0000
vn -0.0000 -0.3297 -0.9441
vn -0.7297 -0.6838 -0.0000
vn -0.0000 0.3297 0.9441
vn 0.7297 0.6838 -0.0000
vn -0.0000 0.3297 -0.9441
vn -0.7297 0.6838 -0.0000
vt 0.437500 0.937500
vt 0.687500 0.937500
vt 0.312500 0.687500
s 0
usemtl FN_Atlas
f 1/1/1 2/1/1 3/1/1 4/1/1
f 5/1/2 6/1/2 7/1/2 8/1/2
f 1/2/3 4/2/3 6/2/3 5/2/3
f 3/2/4 2/2/4 8/2/4 7/2/4
f 1/1/5 5/1/5 8/1/5 2/1/5
f 4/1/6 3/1/6 7/1/6 6/1/6
f 9/2/1 10/2/1 11/2/1 12/2/1
f 13/2/2 14/2/2 15/2/2 16/2/2
f 9/2/3 12/2/3 14/2/3 13/2/3
f 11/2/4 10/2/4 16/2/4 15/2/4
f 9/2/5 13/2/5 16/2/5 10/2/5
f 12/2/6 11/2/6 15/2/6 14/2/6
f 17/1/1 18/1/1 19/1/1 20/1/1
f 21/1/2 22/1/2 23/1/2 24/1/2
f 17/2/3 20/2/3 22/2/3 21/2/3
f 19/2/4 18/2/4 24/2/4 23/2/4
f 17/1/5 21/1/5 24/1/5 18/1/5
f 20/1/6 19/1/6 23/1/6 22/1/6
f 25/2/1 26/2/1 27/2/1 28/2/1
f 29/2/2 30/2/2 31/2/2 32/2/2
f 25/2/3 28/2/3 30/2/3 29/2/3
f 27/2/4 26/2/4 32/2/4 31/2/4
f 25/2/5 29/2/5 32/2/5 26/2/5
f 28/2/6 27/2/6 31/2/6 30/2/6
f 33/2/1 34/2/1 35/2/1 36/2/1
f 36/2/7 35/2/7 37/2/7 38/2/7
f 35/2/8 34/2/8 39/2/8 37/2/8
f 34/2/9 33/2/9 40/2/9 39/2/9
f 33/2/10 36/2/10 38/2/10 40/2/10
f 38/2/3 37/2/3 41/2/3 42/2/3
f 37/2/6 39/2/6 43/2/6 41/2/6
f 39/2/4 40/2/4 44/2/4 43/2/4
f 40/2/5 38/2/5 42/2/5 44/2/5
f 45/1/2 46/1/2 47/1/2 48/1/2
f 42/2/11 41/2/11 46/2/11 45/2/11
f 41/2/12 43/2/12 47/2/12 46/2/12
f 43/2/13 44/2/13 48/2/13 47/2/13
f 44/2/14 42/2/14 45/2/14 48/2/14
f 49/2/1 50/2/1 51/2/1 52/2/1
f 52/2/7 51/2/7 53/2/7 54/2/7
f 51/2/8 50/2/8 55/2/8 53/2/8
f 50/2/9 49/2/9 56/2/9 55/2/9
f 49/2/10 52/2/10 54/2/10 56/2/10
f 54/2/3 53/2/3 57/2/3 58/2/3
f 53/2/6 55/2/6 59/2/6 57/2/6
f 55/2/4 56/2/4 60/2/4 59/2/4
f 56/2/5 54/2/5 58/2/5 60/2/5
f 61/1/2 62/1/2 63/1/2 64/1/2
f 58/2/11 57/2/11 62/2/11 61/2/11
f 57/2/12 59/2/12 63/2/12 62/2/12
f 59/2/13 60/2/13 64/2/13 63/2/13
f 60/2/14 58/2/14 61/2/14 64/2/14
f 65/2/1 66/2/1 67/2/1 68/2/1
f 68/2/7 67/2/7 69/2/7 70/2/7
f 67/2/8 66/2/8 71/2/8 69/2/8
f 66/2/9 65/2/9 72/2/9 71/2/9
f 65/2/10 68/2/10 70/2/10 72/2/10
f 70/2/3 69/2/3 73/2/3 74/2/3
f 69/2/6 71/2/6 75/2/6 73/2/6
f 71/2/4 72/2/4 76/2/4 75/2/4
f 72/2/5 70/2/5 74/2/5 76/2/5
f 77/1/2 78/1/2 79/1/2 80/1/2
f 74/2/11 73/2/11 78/2/11 77/2/11
f 73/2/12 75/2/12 79/2/12 78/2/12
f 75/2/13 76/2/13 80/2/13 79/2/13
f 76/2/14 74/2/14 77/2/14 80/2/14
f 81/2/1 82/2/1 83/2/1 84/2/1
f 84/2/7 83/2/7 85/2/7 86/2/7
f 83/2/8 82/2/8 87/2/8 85/2/8
f 82/2/9 81/2/9 88/2/9 87/2/9
f 81/2/10 84/2/10 86/2/10 88/2/10
f 86/2/3 85/2/3 89/2/3 90/2/3
f 85/2/6 87/2/6 91/2/6 89/2/6
f 87/2/4 88/2/4 92/2/4 91/2/4
f 88/2/5 86/2/5 90/2/5 92/2/5
f 93/1/2 94/1/2 95/1/2 96/1/2
f 90/2/11 89/2/11 94/2/11 93/2/11
f 89/2/12 91/2/12 95/2/12 94/2/12
f 91/2/13 92/2/13 96/2/13 95/2/13
f 92/2/14 90/2/14 93/2/14 96/2/14
f 97/2/1 98/2/1 99/2/1 100/2/1
f 100/2/7 99/2/7 101/2/7 102/2/7
f 99/2/8 98/2/8 103/2/8 101/2/8
f 98/2/9 97/2/9 104/2/9 103/2/9
f 97/2/10 100/2/10 102/2/10 104/2/10
f 102/2/3 101/2/3 105/2/3 106/2/3
f 101/2/6 103/2/6 107/2/6 105/2/6
f 103/2/4 104/2/4 108/2/4 107/2/4
f 104/2/5 102/2/5 106/2/5 108/2/5
f 109/1/2 110/1/2 111/1/2 112/1/2
f 106/2/11 105/2/11 110/2/11 109/2/11
f 105/2/12 107/2/12 111/2/12 110/2/12
f 107/2/13 108/2/13 112/2/13 111/2/13
f 108/2/14 106/2/14 109/2/14 112/2/14
f 113/2/1 114/2/1 115/2/1 116/2/1
f 116/2/7 115/2/7 117/2/7 118/2/7
f 115/2/8 114/2/8 119/2/8 117/2/8
f 114/2/9 113/2/9 120/2/9 119/2/9
f 113/2/10 116/2/10 118/2/10 120/2/10
f 118/2/3 117/2/3 121/2/3 122/2/3
f 117/2/6 119/2/6 123/2/6 121/2/6
f 119/2/4 120/2/4 124/2/4 123/2/4
f 120/2/5 118/2/5 122/2/5 124/2/5
f 125/1/2 126/1/2 127/1/2 128/1/2
f 122/2/11 121/2/11 126/2/11 125/2/11
f 121/2/12 123/2/12 127/2/12 126/2/12
f 123/2/13 124/2/13 128/2/13 127/2/13
f 124/2/14 122/2/14 125/2/14 128/2/14
f 129/2/1 130/2/1 131/2/1 132/2/1
f 132/2/7 131/2/7 133/2/7 134/2/7
f 131/2/8 130/2/8 135/2/8 133/2/8
f 130/2/9 129/2/9 136/2/9 135/2/9
f 129/2/10 132/2/10 134/2/10 136/2/10
f 134/2/3 133/2/3 137/2/3 138/2/3
f 133/2/6 135/2/6 139/2/6 137/2/6
f 135/2/4 136/2/4 140/2/4 139/2/4
f 136/2/5 134/2/5 138/2/5 140/2/5
f 141/1/2 142/1/2 143/1/2 144/1/2
f 138/2/11 137/2/11 142/2/11 141/2/11
f 137/2/12 139/2/12 143/2/12 142/2/12
f 139/2/13 140/2/13 144/2/13 143/2/13
f 140/2/14 138/2/14 141/2/14 144/2/14
f 145/2/1 146/2/1 147/2/1 148/2/1
f 148/2/7 147/2/7 149/2/7 150/2/7
f 147/2/8 146/2/8 151/2/8 149/2/8
f 146/2/9 145/2/9 152/2/9 151/2/9
f 145/2/10 148/2/10 150/2/10 152/2/10
f 150/2/3 149/2/3 153/2/3 154/2/3
f 149/2/6 151/2/6 155/2/6 153/2/6
f 151/2/4 152/2/4 156/2/4 155/2/4
f 152/2/5 150/2/5 154/2/5 156/2/5
f 157/1/2 158/1/2 159/1/2 160/1/2
f 154/2/11 153/2/11 158/2/11 157/2/11
f 153/2/12 155/2/12 159/2/12 158/2/12
f 155/2/13 156/2/13 160/2/13 159/2/13
f 156/2/14 154/2/14 157/2/14 160/2/14
f 161/2/1 162/2/1 163/2/1 164/2/1
f 164/2/15 163/2/15 165/2/15 166/2/15
f 163/2/16 162/2/16 167/2/16 165/2/16
f 162/2/17 161/2/17 168/2/17 167/2/17
f 161/2/18 164/2/18 166/2/18 168/2/18
f 166/2/3 165/2/3 169/2/3 170/2/3
f 165/2/6 167/2/6 171/2/6 169/2/6
f 167/2/4 168/2/4 172/2/4 171/2/4
f 168/2/5 166/2/5 170/2/5 172/2/5
f 173/1/2 174/1/2 175/1/2 176/1/2
f 170/2/19 169/2/19 174/2/19 173/2/19
f 169/2/20 171/2/20 175/2/20 174/2/20
f 171/2/21 172/2/21 176/2/21 175/2/21
f 172/2/22 170/2/22 173/2/22 176/2/22
f 177/3/1 178/3/1 179/3/1 180/3/1
f 180/3/23 179/3/23 181/3/23 182/3/23
f 179/3/24 178/3/24 183/3/24 181/3/24
f 178/3/25 177/3/25 184/3/25 183/3/25
f 177/3/26 180/3/26 182/3/26 184/3/26
f 182/3/3 181/3/3 185/3/3 186/3/3
f 181/3/6 183/3/6 187/3/6 185/3/6
f 183/3/4 184/3/4 188/3/4 187/3/4
f 184/3/5 182/3/5 186/3/5 188/3/5
f 189/3/2 190/3/2 191/3/2 192/3/2
f 186/3/27 185/3/27 190/3/27 189/3/27
f 185/3/28 187/3/28 191/3/28 190/3/28
f 187/3/29 188/3/29 192/3/29 191/3/29
f 188/3/30 186/3/30 189/3/30 192/3/30
