# Blender 5.2.0 LTS
# www.blender.org
mtllib FN_Block_Knife.mtl
o FN_Block_Knife
v -0.073000 0.000000 0.053000
v -0.073000 0.000000 -0.115000
v 0.111000 0.000000 -0.115000
v 0.111000 0.000000 0.053000
v -0.073000 0.018000 0.053000
v 0.111000 0.018000 0.053000
v 0.111000 0.018000 -0.115000
v -0.073000 0.018000 -0.115000
v -0.068500 0.140000 0.044000
v -0.068500 0.240000 -0.106000
v -0.068500 0.010000 -0.106000
v -0.068500 0.010000 0.044000
v -0.048500 0.010000 0.044000
v -0.048500 0.010000 -0.106000
v -0.048500 0.240000 -0.106000
v -0.048500 0.140000 0.044000
v -0.037500 0.140000 0.044000
v -0.037500 0.240000 -0.106000
v -0.037500 0.010000 -0.106000
v -0.037500 0.010000 0.044000
v -0.017500 0.010000 0.044000
v -0.017500 0.010000 -0.106000
v -0.017500 0.240000 -0.106000
v -0.017500 0.140000 0.044000
v -0.006500 0.140000 0.044000
v -0.006500 0.240000 -0.106000
v -0.006500 0.010000 -0.106000
v -0.006500 0.010000 0.044000
v 0.013500 0.010000 0.044000
v 0.013500 0.010000 -0.106000
v 0.013500 0.240000 -0.106000
v 0.013500 0.140000 0.044000
v 0.024500 0.140000 0.044000
v 0.024500 0.240000 -0.106000
v 0.024500 0.010000 -0.106000
v 0.024500 0.010000 0.044000
v 0.044500 0.010000 0.044000
v 0.044500 0.010000 -0.106000
v 0.044500 0.240000 -0.106000
v 0.044500 0.140000 0.044000
v 0.055500 0.140000 0.044000
v 0.055500 0.240000 -0.106000
v 0.055500 0.010000 -0.106000
v 0.055500 0.010000 0.044000
v 0.075500 0.010000 0.044000
v 0.075500 0.010000 -0.106000
v 0.075500 0.240000 -0.106000
v 0.075500 0.140000 0.044000
v 0.086500 0.140000 0.044000
v 0.086500 0.240000 -0.106000
v 0.086500 0.010000 -0.106000
v 0.086500 0.010000 0.044000
v 0.106500 0.010000 0.044000
v 0.106500 0.010000 -0.106000
v 0.106500 0.240000 -0.106000
v 0.106500 0.140000 0.044000
v -0.068500 0.010000 -0.091000
v 0.106500 0.010000 -0.091000
v -0.068500 0.238000 -0.091000
v 0.106500 0.238000 -0.091000
v 0.106500 0.238000 -0.106000
v -0.068500 0.238000 -0.106000
v -0.068500 0.010000 0.027000
v 0.106500 0.010000 0.027000
v 0.106500 0.140000 0.027000
v -0.068500 0.140000 0.027000
v -0.046500 0.017189 -0.070005
v -0.046500 0.189189 0.033995
v -0.046500 0.192811 0.028005
v -0.046500 0.020811 -0.075995
v -0.039500 0.020811 -0.075995
v -0.039500 0.192811 0.028005
v -0.039500 0.189189 0.033995
v -0.039500 0.017189 -0.070005
v -0.048800 0.178016 0.029973
v -0.048800 0.238016 0.065973
v -0.048800 0.243984 0.056027
v -0.048800 0.183984 0.020027
v -0.037200 0.183984 0.020027
v -0.037200 0.243984 0.056027
v -0.037200 0.238016 0.065973
v -0.037200 0.178016 0.029973
v -0.015500 0.017189 -0.070005
v -0.015500 0.189189 0.033995
v -0.015500 0.192811 0.028005
v -0.015500 0.020811 -0.075995
v -0.008500 0.020811 -0.075995
v -0.008500 0.192811 0.028005
v -0.008500 0.189189 0.033995
v -0.008500 0.017189 -0.070005
v -0.017800 0.178027 0.029980
v -0.017800 0.245027 0.069980
v -0.017800 0.250973 0.060020
v -0.017800 0.183973 0.020020
v -0.006200 0.183973 0.020020
v -0.006200 0.250973 0.060020
v -0.006200 0.245027 0.069980
v -0.006200 0.178027 0.029980
v 0.046500 0.017189 -0.070005
v 0.046500 0.189189 0.033995
v 0.046500 0.192811 0.028005
v 0.046500 0.020811 -0.075995
v 0.053500 0.020811 -0.075995
v 0.053500 0.192811 0.028005
v 0.053500 0.189189 0.033995
v 0.053500 0.017189 -0.070005
v 0.044200 0.177956 0.029937
v 0.044200 0.250956 0.074937
v 0.044200 0.257044 0.065063
v 0.044200 0.184044 0.020063
v 0.055800 0.184044 0.020063
v 0.055800 0.257044 0.065063
v 0.055800 0.250956 0.074937
v 0.055800 0.177956 0.029937
v 0.077500 0.017189 -0.070005
v 0.077500 0.189189 0.033995
v 0.077500 0.192811 0.028005
v 0.077500 0.020811 -0.075995
v 0.084500 0.020811 -0.075995
v 0.084500 0.192811 0.028005
v 0.084500 0.189189 0.033995
v 0.084500 0.017189 -0.070005
v 0.075200 0.177971 0.029946
v 0.075200 0.257971 0.078946
v 0.075200 0.264029 0.069054
v 0.075200 0.184029 0.020054
v 0.086800 0.184029 0.020054
v 0.086800 0.264029 0.069054
v 0.086800 0.257971 0.078946
v 0.086800 0.177971 0.029946
v -0.131000 0.000000 0.111000
v -0.131000 0.000000 0.085000
v 0.025000 0.000000 0.085000
v 0.025000 0.000000 0.111000
v -0.131000 0.006000 0.111000
v 0.025000 0.006000 0.111000
v 0.025000 0.006000 0.085000
v -0.131000 0.006000 0.085000
v 0.015000 0.000000 0.115000
v 0.015000 0.000000 0.081000
v 0.131000 0.000000 0.081000
v 0.131000 0.000000 0.115000
v 0.015000 0.013000 0.115000
v 0.131000 0.013000 0.115000
v 0.131000 0.013000 0.081000
v 0.015000 0.013000 0.081000
vn -0.0000 -1.0000 -0.0000
vn -0.0000 1.0000 -0.0000
vn -0.0000 -0.0000 1.0000
vn -0.0000 -0.0000 -1.0000
vn -1.0000 -0.0000 -0.0000
vn 1.0000 -0.0000 -0.0000
vn -0.0000 0.8321 0.5547
vn -0.0000 -0.5174 0.8557
vn -0.0000 0.8557 0.5174
vn -0.0000 0.5174 -0.8557
vn -0.0000 -0.8557 -0.5174
vn -0.0000 -0.5145 0.8575
vn -0.0000 0.8575 0.5145
vn -0.0000 0.5145 -0.8575
vn -0.0000 -0.8575 -0.5145
vn -0.0000 -0.5126 0.8586
vn -0.0000 0.8586 0.5126
vn -0.0000 0.5126 -0.8586
vn -0.0000 -0.8586 -0.5126
vn -0.0000 -0.5247 0.8513
vn -0.0000 0.8513 0.5247
vn -0.0000 0.5247 -0.8513
vn -0.0000 -0.8513 -0.5247
vn -0.0000 -0.5223 0.8528
vn -0.0000 0.8528 0.5223
vn -0.0000 0.5223 -0.8528
vn -0.0000 -0.8528 -0.5223
vt 0.687500 0.312500
vt 0.312500 0.937500
vt 0.812500 0.312500
vt 0.687500 0.812500
s 0
usemtl FN_Atlas
f 1/1/1 2/1/1 3/1/1 4/1/1
f 5/1/2 6/1/2 7/1/2 8/1/2
f 1/1/3 4/1/3 6/1/3 5/1/3
f 3/1/4 2/1/4 8/1/4 7/1/4
f 1/1/5 5/1/5 8/1/5 2/1/5
f 4/1/6 3/1/6 7/1/6 6/1/6
f 9/2/5 10/2/5 11/2/5 12/2/5
f 13/2/6 14/2/6 15/2/6 16/2/6
f 12/2/1 11/2/1 14/2/1 13/2/1
f 11/2/4 10/2/4 15/2/4 14/2/4
f 10/2/7 9/2/7 16/2/7 15/2/7
f 9/2/3 12/2/3 13/2/3 16/2/3
f 17/2/5 18/2/5 19/2/5 20/2/5
f 21/2/6 22/2/6 23/2/6 24/2/6
f 20/2/1 19/2/1 22/2/1 21/2/1
f 19/2/4 18/2/4 23/2/4 22/2/4
f 18/2/7 17/2/7 24/2/7 23/2/7
f 17/2/3 20/2/3 21/2/3 24/2/3
f 25/2/5 26/2/5 27/2/5 28/2/5
f 29/2/6 30/2/6 31/2/6 32/2/6
f 28/2/1 27/2/1 30/2/1 29/2/1
f 27/2/4 26/2/4 31/2/4 30/2/4
f 26/2/7 25/2/7 32/2/7 31/2/7
f 25/2/3 28/2/3 29/2/3 32/2/3
f 33/2/5 34/2/5 35/2/5 36/2/5
f 37/2/6 38/2/6 39/2/6 40/2/6
f 36/2/1 35/2/1 38/2/1 37/2/1
f 35/2/4 34/2/4 39/2/4 38/2/4
f 34/2/7 33/2/7 40/2/7 39/2/7
f 33/2/3 36/2/3 37/2/3 40/2/3
f 41/2/5 42/2/5 43/2/5 44/2/5
f 45/2/6 46/2/6 47/2/6 48/2/6
f 44/2/1 43/2/1 46/2/1 45/2/1
f 43/2/4 42/2/4 47/2/4 46/2/4
f 42/2/7 41/2/7 48/2/7 47/2/7
f 41/2/3 44/2/3 45/2/3 48/2/3
f 49/2/5 50/2/5 51/2/5 52/2/5
f 53/2/6 54/2/6 55/2/6 56/2/6
f 52/2/1 51/2/1 54/2/1 53/2/1
f 51/2/4 50/2/4 55/2/4 54/2/4
f 50/2/7 49/2/7 56/2/7 55/2/7
f 49/2/3 52/2/3 53/2/3 56/2/3
f 57/2/1 11/2/1 54/2/1 58/2/1
f 59/2/2 60/2/2 61/2/2 62/2/2
f 57/2/3 58/2/3 60/2/3 59/2/3
f 54/2/4 11/2/4 62/2/4 61/2/4
f 57/2/5 59/2/5 62/2/5 11/2/5
f 58/2/6 54/2/6 61/2/6 60/2/6
f 12/2/1 63/2/1 64/2/1 53/2/1
f 9/2/2 56/2/2 65/2/2 66/2/2
f 12/2/3 53/2/3 56/2/3 9/2/3
f 64/2/4 63/2/4 66/2/4 65/2/4
f 12/2/5 9/2/5 66/2/5 63/2/5
f 53/2/6 64/2/6 65/2/6 56/2/6
f 67/3/5 68/3/5 69/3/5 70/3/5
f 71/3/6 72/3/6 73/3/6 74/3/6
f 74/3/8 73/3/8 68/3/8 67/3/8
f 73/3/9 72/3/9 69/3/9 68/3/9
f 72/3/10 71/3/10 70/3/10 69/3/10
f 71/3/11 74/3/11 67/3/11 70/3/11
f 75/4/5 76/4/5 77/4/5 78/4/5
f 79/4/6 80/4/6 81/4/6 82/4/6
f 82/4/12 81/4/12 76/4/12 75/4/12
f 81/4/13 80/4/13 77/4/13 76/4/13
f 80/4/14 79/4/14 78/4/14 77/4/14
f 79/4/15 82/4/15 75/4/15 78/4/15
f 83/3/5 84/3/5 85/3/5 86/3/5
f 87/3/6 88/3/6 89/3/6 90/3/6
f 90/3/8 89/3/8 84/3/8 83/3/8
f 89/3/9 88/3/9 85/3/9 84/3/9
f 88/3/10 87/3/10 86/3/10 85/3/10
f 87/3/11 90/3/11 83/3/11 86/3/11
f 91/4/5 92/4/5 93/4/5 94/4/5
f 95/4/6 96/4/6 97/4/6 98/4/6
f 98/4/16 97/4/16 92/4/16 91/4/16
f 97/4/17 96/4/17 93/4/17 92/4/17
f 96/4/18 95/4/18 94/4/18 93/4/18
f 95/4/19 98/4/19 91/4/19 94/4/19
f 99/3/5 100/3/5 101/3/5 102/3/5
f 103/3/6 104/3/6 105/3/6 106/3/6
f 106/3/8 105/3/8 100/3/8 99/3/8
f 105/3/9 104/3/9 101/3/9 100/3/9
f 104/3/10 103/3/10 102/3/10 101/3/10
f 103/3/11 106/3/11 99/3/11 102/3/11
f 107/4/5 108/4/5 109/4/5 110/4/5
f 111/4/6 112/4/6 113/4/6 114/4/6
f 114/4/20 113/4/20 108/4/20 107/4/20
f 113/4/21 112/4/21 109/4/21 108/4/21
f 112/4/22 111/4/22 110/4/22 109/4/22
f 111/4/23 114/4/23 107/4/23 110/4/23
f 115/3/5 116/3/5 117/3/5 118/3/5
f 119/3/6 120/3/6 121/3/6 122/3/6
f 122/3/8 121/3/8 116/3/8 115/3/8
f 121/3/9 120/3/9 117/3/9 116/3/9
f 120/3/10 119/3/10 118/3/10 117/3/10
f 119/3/11 122/3/11 115/3/11 118/3/11
f 123/4/5 124/4/5 125/4/5 126/4/5
f 127/4/6 128/4/6 129/4/6 130/4/6
f 130/4/24 129/4/24 124/4/24 123/4/24
f 129/4/25 128/4/25 125/4/25 124/4/25
f 128/4/26 127/4/26 126/4/26 125/4/26
f 127/4/27 130/4/27 123/4/27 126/4/27
f 131/3/1 132/3/1 133/3/1 134/3/1
f 135/3/2 136/3/2 137/3/2 138/3/2
f 131/3/3 134/3/3 136/3/3 135/3/3
f 133/3/4 132/3/4 138/3/4 137/3/4
f 131/3/5 135/3/5 138/3/5 132/3/5
f 134/3/6 133/3/6 137/3/6 136/3/6
f 139/4/1 140/4/1 141/4/1 142/4/1
f 143/4/2 144/4/2 145/4/2 146/4/2
f 139/4/3 142/4/3 144/4/3 143/4/3
f 141/4/4 140/4/4 146/4/4 145/4/4
f 139/4/5 143/4/5 146/4/5 140/4/5
f 142/4/6 141/4/6 145/4/6 144/4/6
