# Blender 5.2.0 LTS
# www.blender.org
mtllib FN_Bench_Tree.mtl
o FN_Bench_Tree
v 0.419744 0.418000 -0.014658
v 0.222566 0.418000 -0.356180
v 0.529919 0.418000 -0.848048
v 0.999391 0.418000 -0.034899
v 0.999391 0.450000 -0.034899
v 0.529919 0.450000 -0.848048
v 0.222566 0.450000 -0.356180
v 0.419744 0.450000 -0.014658
v 0.380000 0.386000 -0.060000
v 0.860000 0.386000 -0.060000
v 0.860000 0.386000 0.060000
v 0.380000 0.386000 0.060000
v 0.380000 0.432000 0.060000
v 0.860000 0.432000 0.060000
v 0.860000 0.432000 -0.060000
v 0.380000 0.432000 -0.060000
v 0.735000 0.000000 0.035000
v 0.665000 0.000000 0.035000
v 0.665000 0.000000 -0.035000
v 0.735000 0.000000 -0.035000
v 0.735000 0.400000 -0.035000
v 0.665000 0.400000 -0.035000
v 0.665000 0.400000 0.035000
v 0.735000 0.400000 0.035000
v 0.197178 0.418000 -0.370838
v -0.197178 0.418000 -0.370838
v -0.469472 0.418000 -0.882948
v 0.469472 0.418000 -0.882948
v 0.469472 0.450000 -0.882948
v -0.469472 0.450000 -0.882948
v -0.197178 0.450000 -0.370838
v 0.197178 0.450000 -0.370838
v 0.138038 0.386000 -0.359090
v 0.378038 0.386000 -0.774782
v 0.481962 0.386000 -0.714782
v 0.241962 0.386000 -0.299090
v 0.241962 0.432000 -0.299090
v 0.481962 0.432000 -0.714782
v 0.378038 0.432000 -0.774782
v 0.138038 0.432000 -0.359090
v 0.397811 0.000000 -0.619029
v 0.362811 0.000000 -0.558407
v 0.302189 0.000000 -0.593407
v 0.337189 0.000000 -0.654029
v 0.337189 0.400000 -0.654029
v 0.302189 0.400000 -0.593407
v 0.362811 0.400000 -0.558407
v 0.397811 0.400000 -0.619029
v -0.222566 0.418000 -0.356180
v -0.419744 0.418000 -0.014658
v -0.999391 0.418000 -0.034899
v -0.529919 0.418000 -0.848048
v -0.529919 0.450000 -0.848048
v -0.999391 0.450000 -0.034899
v -0.419744 0.450000 -0.014658
v -0.222566 0.450000 -0.356180
v -0.241962 0.386000 -0.299090
v -0.481962 0.386000 -0.714782
v -0.378038 0.386000 -0.774782
v -0.138038 0.386000 -0.359090
v -0.138038 0.432000 -0.359090
v -0.378038 0.432000 -0.774782
v -0.481962 0.432000 -0.714782
v -0.241962 0.432000 -0.299090
v -0.337189 0.000000 -0.654029
v -0.302189 0.000000 -0.593407
v -0.362811 0.000000 -0.558407
v -0.397811 0.000000 -0.619029
v -0.397811 0.400000 -0.619029
v -0.362811 0.400000 -0.558407
v -0.302189 0.400000 -0.593407
v -0.337189 0.400000 -0.654029
v -0.419744 0.418000 0.014658
v -0.222566 0.418000 0.356180
v -0.529919 0.418000 0.848048
v -0.999391 0.418000 0.034899
v -0.999391 0.450000 0.034899
v -0.529919 0.450000 0.848048
v -0.222566 0.450000 0.356180
v -0.419744 0.450000 0.014658
v -0.380000 0.386000 0.060000
v -0.860000 0.386000 0.060000
v -0.860000 0.386000 -0.060000
v -0.380000 0.386000 -0.060000
v -0.380000 0.432000 -0.060000
v -0.860000 0.432000 -0.060000
v -0.860000 0.432000 0.060000
v -0.380000 0.432000 0.060000
v -0.735000 0.000000 -0.035000
v -0.665000 0.000000 -0.035000
v -0.665000 0.000000 0.035000
v -0.735000 0.000000 0.035000
v -0.735000 0.400000 0.035000
v -0.665000 0.400000 0.035000
v -0.665000 0.400000 -0.035000
v -0.735000 0.400000 -0.035000
v -0.197178 0.418000 0.370838
v 0.197178 0.418000 0.370838
v 0.469472 0.418000 0.882948
v -0.469472 0.418000 0.882948
v -0.469472 0.450000 0.882948
v 0.469472 0.450000 0.882948
v 0.197178 0.450000 0.370838
v -0.197178 0.450000 0.370838
v -0.138038 0.386000 0.359090
v -0.378038 0.386000 0.774782
v -0.481962 0.386000 0.714782
v -0.241962 0.386000 0.299090
v -0.241962 0.432000 0.299090
v -0.481962 0.432000 0.714782
v -0.378038 0.432000 0.774782
v -0.138038 0.432000 0.359090
v -0.397811 0.000000 0.619029
v -0.362811 0.000000 0.558407
v -0.302189 0.000000 0.593407
v -0.337189 0.000000 0.654029
v -0.337189 0.400000 0.654029
v -0.302189 0.400000 0.593407
v -0.362811 0.400000 0.558407
v -0.397811 0.400000 0.619029
v 0.222566 0.418000 0.356180
v 0.419744 0.418000 0.014658
v 0.999391 0.418000 0.034899
v 0.529919 0.418000 0.848048
v 0.529919 0.450000 0.848048
v 0.999391 0.450000 0.034899
v 0.419744 0.450000 0.014658
v 0.222566 0.450000 0.356180
v 0.241962 0.386000 0.299090
v 0.481962 0.386000 0.714782
v 0.378038 0.386000 0.774782
v 0.138038 0.386000 0.359090
v 0.138038 0.432000 0.359090
v 0.378038 0.432000 0.774782
v 0.481962 0.432000 0.714782
v 0.241962 0.432000 0.299090
v 0.337189 0.000000 0.654029
v 0.302189 0.000000 0.593407
v 0.362811 0.000000 0.558407
v 0.397811 0.000000 0.619029
v 0.397811 0.400000 0.619029
v 0.362811 0.400000 0.558407
v 0.302189 0.400000 0.593407
v 0.337189 0.400000 0.654029
vn -0.0000 -1.0000 -0.0000
vn -0.0000 1.0000 -0.0000
vn 0.8660 -0.0000 -0.5000
vn -0.8480 -0.0000 -0.5299
vn -0.8660 -0.0000 0.5000
vn 0.0349 -0.0000 0.9994
vn -0.0000 -0.0000 -1.0000
vn 1.0000 -0.0000 -0.0000
vn -0.0000 -0.0000 1.0000
vn -1.0000 -0.0000 -0.0000
vn -0.8829 -0.0000 0.4695
vn 0.8829 -0.0000 0.4695
vn -0.8660 -0.0000 -0.5000
vn 0.5000 -0.0000 -0.8660
vn 0.8660 -0.0000 0.5000
vn -0.5000 -0.0000 0.8660
vn -0.0349 -0.0000 0.9994
vn 0.8480 -0.0000 -0.5299
vn -0.5000 -0.0000 -0.8660
vn 0.5000 -0.0000 0.8660
vn 0.8480 -0.0000 0.5299
vn -0.0349 -0.0000 -0.9994
vn 0.8829 -0.0000 -0.4695
vn -0.8829 -0.0000 -0.4695
vn 0.0349 -0.0000 -0.9994
vn -0.8480 -0.0000 0.5299
vt 0.562500 0.937500
vt 0.812500 0.312500
s 0
usemtl FN_Atlas
f 1/1/1 2/1/1 3/1/1 4/1/1
f 5/1/2 6/1/2 7/1/2 8/1/2
f 4/1/3 3/1/3 6/1/3 5/1/3
f 3/1/4 2/1/4 7/1/4 6/1/4
f 2/1/5 1/1/5 8/1/5 7/1/5
f 1/1/6 4/1/6 5/1/6 8/1/6
f 9/2/1 10/2/1 11/2/1 12/2/1
f 13/2/2 14/2/2 15/2/2 16/2/2
f 16/2/7 15/2/7 10/2/7 9/2/7
f 15/2/8 14/2/8 11/2/8 10/2/8
f 14/2/9 13/2/9 12/2/9 11/2/9
f 13/2/10 16/2/10 9/2/10 12/2/10
f 17/2/1 18/2/1 19/2/1 20/2/1
f 21/2/2 22/2/2 23/2/2 24/2/2
f 20/2/7 19/2/7 22/2/7 21/2/7
f 19/2/10 18/2/10 23/2/10 22/2/10
f 18/2/9 17/2/9 24/2/9 23/2/9
f 17/2/8 20/2/8 21/2/8 24/2/8
f 25/1/1 26/1/1 27/1/1 28/1/1
f 29/1/2 30/1/2 31/1/2 32/1/2
f 28/1/7 27/1/7 30/1/7 29/1/7
f 27/1/11 26/1/11 31/1/11 30/1/11
f 26/1/9 25/1/9 32/1/9 31/1/9
f 25/1/12 28/1/12 29/1/12 32/1/12
f 33/2/1 34/2/1 35/2/1 36/2/1
f 37/2/2 38/2/2 39/2/2 40/2/2
f 40/2/13 39/2/13 34/2/13 33/2/13
f 39/2/14 38/2/14 35/2/14 34/2/14
f 38/2/15 37/2/15 36/2/15 35/2/15
f 37/2/16 40/2/16 33/2/16 36/2/16
f 41/2/1 42/2/1 43/2/1 44/2/1
f 45/2/2 46/2/2 47/2/2 48/2/2
f 44/2/13 43/2/13 46/2/13 45/2/13
f 43/2/16 42/2/16 47/2/16 46/2/16
f 42/2/15 41/2/15 48/2/15 47/2/15
f 41/2/14 44/2/14 45/2/14 48/2/14
f 49/1/1 50/1/1 51/1/1 52/1/1
f 53/1/2 54/1/2 55/1/2 56/1/2
f 52/1/13 51/1/13 54/1/13 53/1/13
f 51/1/17 50/1/17 55/1/17 54/1/17
f 50/1/15 49/1/15 56/1/15 55/1/15
f 49/1/18 52/1/18 53/1/18 56/1/18
f 57/2/1 58/2/1 59/2/1 60/2/1
f 61/2/2 62/2/2 63/2/2 64/2/2
f 64/2/5 63/2/5 58/2/5 57/2/5
f 63/2/19 62/2/19 59/2/19 58/2/19
f 62/2/3 61/2/3 60/2/3 59/2/3
f 61/2/20 64/2/20 57/2/20 60/2/20
f 65/2/1 66/2/1 67/2/1 68/2/1
f 69/2/2 70/2/2 71/2/2 72/2/2
f 68/2/5 67/2/5 70/2/5 69/2/5
f 67/2/20 66/2/20 71/2/20 70/2/20
f 66/2/3 65/2/3 72/2/3 71/2/3
f 65/2/19 68/2/19 69/2/19 72/2/19
f 73/1/1 74/1/1 75/1/1 76/1/1
f 77/1/2 78/1/2 79/1/2 80/1/2
f 76/1/5 75/1/5 78/1/5 77/1/5
f 75/1/21 74/1/21 79/1/21 78/1/21
f 74/1/3 73/1/3 80/1/3 79/1/3
f 73/1/22 76/1/22 77/1/22 80/1/22
f 81/2/1 82/2/1 83/2/1 84/2/1
f 85/2/2 86/2/2 87/2/2 88/2/2
f 88/2/9 87/2/9 82/2/9 81/2/9
f 87/2/10 86/2/10 83/2/10 82/2/10
f 86/2/7 85/2/7 84/2/7 83/2/7
f 85/2/8 88/2/8 81/2/8 84/2/8
f 89/2/1 90/2/1 91/2/1 92/2/1
f 93/2/2 94/2/2 95/2/2 96/2/2
f 92/2/9 91/2/9 94/2/9 93/2/9
f 91/2/8 90/2/8 95/2/8 94/2/8
f 90/2/7 89/2/7 96/2/7 95/2/7
f 89/2/10 92/2/10 93/2/10 96/2/10
f 97/1/1 98/1/1 99/1/1 100/1/1
f 101/1/2 102/1/2 103/1/2 104/1/2
f 100/1/9 99/1/9 102/1/9 101/1/9
f 99/1/23 98/1/23 103/1/23 102/1/23
f 98/1/7 97/1/7 104/1/7 103/1/7
f 97/1/24 100/1/24 101/1/24 104/1/24
f 105/2/1 106/2/1 107/2/1 108/2/1
f 109/2/2 110/2/2 111/2/2 112/2/2
f 112/2/15 111/2/15 106/2/15 105/2/15
f 111/2/16 110/2/16 107/2/16 106/2/16
f 110/2/13 109/2/13 108/2/13 107/2/13
f 109/2/14 112/2/14 105/2/14 108/2/14
f 113/2/1 114/2/1 115/2/1 116/2/1
f 117/2/2 118/2/2 119/2/2 120/2/2
f 116/2/15 115/2/15 118/2/15 117/2/15
f 115/2/14 114/2/14 119/2/14 118/2/14
f 114/2/13 113/2/13 120/2/13 119/2/13
f 113/2/16 116/2/16 117/2/16 120/2/16
f 121/1/1 122/1/1 123/1/1 124/1/1
f 125/1/2 126/1/2 127/1/2 128/1/2
f 124/1/15 123/1/15 126/1/15 125/1/15
f 123/1/25 122/1/25 127/1/25 126/1/25
f 122/1/13 121/1/13 128/1/13 127/1/13
f 121/1/26 124/1/26 125/1/26 128/1/26
f 129/2/1 130/2/1 131/2/1 132/2/1
f 133/2/2 134/2/2 135/2/2 136/2/2
f 136/2/3 135/2/3 130/2/3 129/2/3
f 135/2/20 134/2/20 131/2/20 130/2/20
f 134/2/5 133/2/5 132/2/5 131/2/5
f 133/2/19 136/2/19 129/2/19 132/2/19
f 137/2/1 138/2/1 139/2/1 140/2/1
f 141/2/2 142/2/2 143/2/2 144/2/2
f 140/2/3 139/2/3 142/2/3 141/2/3
f 139/2/19 138/2/19 143/2/19 142/2/19
f 138/2/5 137/2/5 144/2/5 143/2/5
f 137/2/20 140/2/20 141/2/20 144/2/20
