# Blender 5.2.0 LTS
# www.blender.org
mtllib FN_Bed_Single.mtl
o FN_Bed_Single
v -0.492142 0.010000 -0.974142
v -0.478000 0.010000 -0.980000
v -0.463858 0.010000 -0.974142
v -0.458000 0.010000 -0.960000
v -0.463858 0.010000 -0.945858
v -0.478000 0.010000 -0.940000
v -0.492142 0.010000 -0.945858
v -0.498000 0.010000 -0.960000
v -0.498000 0.900000 -0.960000
v -0.492142 0.900000 -0.945858
v -0.478000 0.900000 -0.940000
v -0.463858 0.900000 -0.945858
v -0.458000 0.900000 -0.960000
v -0.463858 0.900000 -0.974142
v -0.478000 0.900000 -0.980000
v -0.492142 0.900000 -0.974142
v -0.491000 0.000000 -0.982517
v -0.465000 0.000000 -0.982517
v -0.452000 0.000000 -0.960000
v -0.465000 0.000000 -0.937483
v -0.491000 0.000000 -0.937483
v -0.504000 0.000000 -0.960000
v -0.504000 0.018000 -0.960000
v -0.491000 0.018000 -0.937483
v -0.465000 0.018000 -0.937483
v -0.452000 0.018000 -0.960000
v -0.465000 0.018000 -0.982517
v -0.491000 0.018000 -0.982517
v 0.463858 0.010000 -0.974142
v 0.478000 0.010000 -0.980000
v 0.492142 0.010000 -0.974142
v 0.498000 0.010000 -0.960000
v 0.492142 0.010000 -0.945858
v 0.478000 0.010000 -0.940000
v 0.463858 0.010000 -0.945858
v 0.458000 0.010000 -0.960000
v 0.458000 0.900000 -0.960000
v 0.463858 0.900000 -0.945858
v 0.478000 0.900000 -0.940000
v 0.492142 0.900000 -0.945858
v 0.498000 0.900000 -0.960000
v 0.492142 0.900000 -0.974142
v 0.478000 0.900000 -0.980000
v 0.463858 0.900000 -0.974142
v 0.465000 0.000000 -0.982517
v 0.491000 0.000000 -0.982517
v 0.504000 0.000000 -0.960000
v 0.491000 0.000000 -0.937483
v 0.465000 0.000000 -0.937483
v 0.452000 0.000000 -0.960000
v 0.452000 0.018000 -0.960000
v 0.465000 0.018000 -0.937483
v 0.491000 0.018000 -0.937483
v 0.504000 0.018000 -0.960000
v 0.491000 0.018000 -0.982517
v 0.465000 0.018000 -0.982517
v -0.478000 0.352021 -0.947979
v -0.478000 0.357000 -0.960000
v -0.478000 0.352021 -0.972021
v -0.478000 0.340000 -0.977000
v -0.478000 0.327979 -0.972021
v -0.478000 0.323000 -0.960000
v -0.478000 0.327979 -0.947979
v -0.478000 0.340000 -0.943000
v 0.478000 0.340000 -0.943000
v 0.478000 0.327979 -0.947979
v 0.478000 0.323000 -0.960000
v 0.478000 0.327979 -0.972021
v 0.478000 0.340000 -0.977000
v 0.478000 0.352021 -0.972021
v 0.478000 0.357000 -0.960000
v 0.478000 0.352021 -0.947979
v -0.478000 0.892021 -0.947979
v -0.478000 0.897000 -0.960000
v -0.478000 0.892021 -0.972021
v -0.478000 0.880000 -0.977000
v -0.478000 0.867979 -0.972021
v -0.478000 0.863000 -0.960000
v -0.478000 0.867979 -0.947979
v -0.478000 0.880000 -0.943000
v 0.478000 0.880000 -0.943000
v 0.478000 0.867979 -0.947979
v 0.478000 0.863000 -0.960000
v 0.478000 0.867979 -0.972021
v 0.478000 0.880000 -0.977000
v 0.478000 0.892021 -0.972021
v 0.478000 0.897000 -0.960000
v 0.478000 0.892021 -0.947979
v -0.245000 0.340000 -0.970392
v -0.233000 0.340000 -0.970392
v -0.227000 0.340000 -0.960000
v -0.233000 0.340000 -0.949608
v -0.245000 0.340000 -0.949608
v -0.251000 0.340000 -0.960000
v -0.251000 0.880000 -0.960000
v -0.245000 0.880000 -0.949608
v -0.233000 0.880000 -0.949608
v -0.227000 0.880000 -0.960000
v -0.233000 0.880000 -0.970392
v -0.245000 0.880000 -0.970392
v -0.006000 0.340000 -0.970392
v 0.006000 0.340000 -0.970392
v 0.012000 0.340000 -0.960000
v 0.006000 0.340000 -0.949608
v -0.006000 0.340000 -0.949608
v -0.012000 0.340000 -0.960000
v -0.012000 0.880000 -0.960000
v -0.006000 0.880000 -0.949608
v 0.006000 0.880000 -0.949608
v 0.012000 0.880000 -0.960000
v 0.006000 0.880000 -0.970392
v -0.006000 0.880000 -0.970392
v 0.233000 0.340000 -0.970392
v 0.245000 0.340000 -0.970392
v 0.251000 0.340000 -0.960000
v 0.245000 0.340000 -0.949608
v 0.233000 0.340000 -0.949608
v 0.227000 0.340000 -0.960000
v 0.227000 0.880000 -0.960000
v 0.233000 0.880000 -0.949608
v 0.245000 0.880000 -0.949608
v 0.251000 0.880000 -0.960000
v 0.245000 0.880000 -0.970392
v 0.233000 0.880000 -0.970392
v -0.492142 0.010000 0.945858
v -0.478000 0.010000 0.940000
v -0.463858 0.010000 0.945858
v -0.458000 0.010000 0.960000
v -0.463858 0.010000 0.974142
v -0.478000 0.010000 0.980000
v -0.492142 0.010000 0.974142
v -0.498000 0.010000 0.960000
v -0.498000 0.620000 0.960000
v -0.492142 0.620000 0.974142
v -0.478000 0.620000 0.980000
v -0.463858 0.620000 0.974142
v -0.458000 0.620000 0.960000
v -0.463858 0.620000 0.945858
v -0.478000 0.620000 0.940000
v -0.492142 0.620000 0.945858
v -0.491000 0.000000 0.937483
v -0.465000 0.000000 0.937483
v -0.452000 0.000000 0.960000
v -0.465000 0.000000 0.982517
v -0.491000 0.000000 0.982517
v -0.504000 0.000000 0.960000
v -0.504000 0.018000 0.960000
v -0.491000 0.018000 0.982517
v -0.465000 0.018000 0.982517
v -0.452000 0.018000 0.960000
v -0.465000 0.018000 0.937483
v -0.491000 0.018000 0.937483
v 0.463858 0.010000 0.945858
v 0.478000 0.010000 0.940000
v 0.492142 0.010000 0.945858
v 0.498000 0.010000 0.960000
v 0.492142 0.010000 0.974142
v 0.478000 0.010000 0.980000
v 0.463858 0.010000 0.974142
v 0.458000 0.010000 0.960000
v 0.458000 0.620000 0.960000
v 0.463858 0.620000 0.974142
v 0.478000 0.620000 0.980000
v 0.492142 0.620000 0.974142
v 0.498000 0.620000 0.960000
v 0.492142 0.620000 0.945858
v 0.478000 0.620000 0.940000
v 0.463858 0.620000 0.945858
v 0.465000 0.000000 0.937483
v 0.491000 0.000000 0.937483
v 0.504000 0.000000 0.960000
v 0.491000 0.000000 0.982517
v 0.465000 0.000000 0.982517
v 0.452000 0.000000 0.960000
v 0.452000 0.018000 0.960000
v 0.465000 0.018000 0.982517
v 0.491000 0.018000 0.982517
v 0.504000 0.018000 0.960000
v 0.491000 0.018000 0.937483
v 0.465000 0.018000 0.937483
v -0.478000 0.352021 0.972021
v -0.478000 0.357000 0.960000
v -0.478000 0.352021 0.947979
v -0.478000 0.340000 0.943000
v -0.478000 0.327979 0.947979
v -0.478000 0.323000 0.960000
v -0.478000 0.327979 0.972021
v -0.478000 0.340000 0.977000
v 0.478000 0.340000 0.977000
v 0.478000 0.327979 0.972021
v 0.478000 0.323000 0.960000
v 0.478000 0.327979 0.947979
v 0.478000 0.340000 0.943000
v 0.478000 0.352021 0.947979
v 0.478000 0.357000 0.960000
v 0.478000 0.352021 0.972021
v -0.478000 0.612021 0.972021
v -0.478000 0.617000 0.960000
v -0.478000 0.612021 0.947979
v -0.478000 0.600000 0.943000
v -0.478000 0.587979 0.947979
v -0.478000 0.583000 0.960000
v -0.478000 0.587979 0.972021
v -0.478000 0.600000 0.977000
v 0.478000 0.600000 0.977000
v 0.478000 0.587979 0.972021
v 0.478000 0.583000 0.960000
v 0.478000 0.587979 0.947979
v 0.478000 0.600000 0.943000
v 0.478000 0.612021 0.947979
v 0.478000 0.617000 0.960000
v 0.478000 0.612021 0.972021
v -0.165333 0.340000 0.949608
v -0.153333 0.340000 0.949608
v -0.147333 0.340000 0.960000
v -0.153333 0.340000 0.970392
v -0.165333 0.340000 0.970392
v -0.171333 0.340000 0.960000
v -0.171333 0.600000 0.960000
v -0.165333 0.600000 0.970392
v -0.153333 0.600000 0.970392
v -0.147333 0.600000 0.960000
v -0.153333 0.600000 0.949608
v -0.165333 0.600000 0.949608
v 0.153333 0.340000 0.949608
v 0.165333 0.340000 0.949608
v 0.171333 0.340000 0.960000
v 0.165333 0.340000 0.970392
v 0.153333 0.340000 0.970392
v 0.147333 0.340000 0.960000
v 0.147333 0.600000 0.960000
v 0.153333 0.600000 0.970392
v 0.165333 0.600000 0.970392
v 0.171333 0.600000 0.960000
v 0.165333 0.600000 0.949608
v 0.153333 0.600000 0.949608
v -0.464565 0.313435 0.960000
v -0.478000 0.319000 0.960000
v -0.491435 0.313435 0.960000
v -0.497000 0.300000 0.960000
v -0.491435 0.286565 0.960000
v -0.478000 0.281000 0.960000
v -0.464565 0.286565 0.960000
v -0.459000 0.300000 0.960000
v -0.459000 0.300000 -0.960000
v -0.464565 0.286565 -0.960000
v -0.478000 0.281000 -0.960000
v -0.491435 0.286565 -0.960000
v -0.497000 0.300000 -0.960000
v -0.491435 0.313435 -0.960000
v -0.478000 0.319000 -0.960000
v -0.464565 0.313435 -0.960000
v 0.491435 0.313435 0.960000
v 0.478000 0.319000 0.960000
v 0.464565 0.313435 0.960000
v 0.459000 0.300000 0.960000
v 0.464565 0.286565 0.960000
v 0.478000 0.281000 0.960000
v 0.491435 0.286565 0.960000
v 0.497000 0.300000 0.960000
v 0.497000 0.300000 -0.960000
v 0.491435 0.286565 -0.960000
v 0.478000 0.281000 -0.960000
v 0.464565 0.286565 -0.960000
v 0.459000 0.300000 -0.960000
v 0.464565 0.313435 -0.960000
v 0.478000 0.319000 -0.960000
v 0.491435 0.313435 -0.960000
v -0.440000 0.304000 0.932000
v -0.440000 0.304000 -0.932000
v 0.440000 0.304000 -0.932000
v 0.440000 0.304000 0.932000
v -0.440000 0.320000 0.932000
v 0.440000 0.320000 0.932000
v 0.440000 0.320000 -0.932000
v -0.440000 0.320000 -0.932000
v -0.383426 0.316000 0.938802
v -0.414061 0.316000 0.930593
v -0.436487 0.316000 0.908167
v -0.444696 0.316000 0.877532
v -0.444696 0.316000 -0.877532
v -0.436487 0.316000 -0.908167
v -0.414061 0.316000 -0.930593
v -0.383426 0.316000 -0.938802
v 0.383426 0.316000 -0.938802
v 0.414061 0.316000 -0.930593
v 0.436487 0.316000 -0.908167
v 0.444696 0.316000 -0.877532
v 0.444696 0.316000 0.877532
v 0.436487 0.316000 0.908167
v 0.414061 0.316000 0.930593
v 0.383426 0.316000 0.938802
v 0.419000 0.328000 0.941694
v 0.388000 0.328000 0.950000
v 0.441694 0.328000 0.919000
v 0.450000 0.328000 0.888000
v 0.450000 0.328000 -0.888000
v 0.441694 0.328000 -0.919000
v 0.419000 0.328000 -0.941694
v 0.388000 0.328000 -0.950000
v -0.388000 0.328000 -0.950000
v -0.419000 0.328000 -0.941694
v -0.441694 0.328000 -0.919000
v -0.450000 0.328000 -0.888000
v -0.450000 0.328000 0.888000
v -0.441694 0.328000 0.919000
v -0.419000 0.328000 0.941694
v -0.388000 0.328000 0.950000
v 0.419000 0.502000 0.941694
v 0.388000 0.502000 0.950000
v 0.441694 0.502000 0.919000
v 0.450000 0.502000 0.888000
v 0.450000 0.502000 -0.888000
v 0.441694 0.502000 -0.919000
v 0.419000 0.502000 -0.941694
v 0.388000 0.502000 -0.950000
v -0.388000 0.502000 -0.950000
v -0.419000 0.502000 -0.941694
v -0.441694 0.502000 -0.919000
v -0.450000 0.502000 -0.888000
v -0.450000 0.502000 0.888000
v -0.441694 0.502000 0.919000
v -0.419000 0.502000 0.941694
v -0.388000 0.502000 0.950000
v 0.378395 0.520000 0.926483
v 0.408628 0.520000 0.918383
v 0.430760 0.520000 0.896251
v 0.438861 0.520000 0.866018
v 0.438861 0.520000 -0.866018
v 0.430760 0.520000 -0.896251
v 0.408628 0.520000 -0.918383
v 0.378395 0.520000 -0.926483
v -0.378395 0.520000 -0.926483
v -0.408628 0.520000 -0.918383
v -0.430760 0.520000 -0.896251
v -0.438861 0.520000 -0.866018
v -0.438861 0.520000 0.866018
v -0.430760 0.520000 0.896251
v -0.408628 0.520000 0.918383
v -0.378395 0.520000 0.926483
v -0.423838 0.425000 0.946208
v -0.452291 0.425000 0.938585
v -0.473119 0.425000 0.917756
v -0.480743 0.425000 0.889304
v -0.480743 0.425000 -0.429304
v -0.473119 0.425000 -0.457756
v -0.452291 0.425000 -0.478585
v -0.423838 0.425000 -0.486208
v 0.423838 0.425000 -0.486208
v 0.452291 0.425000 -0.478585
v 0.473119 0.425000 -0.457756
v 0.480743 0.425000 -0.429304
v 0.480743 0.425000 0.889304
v 0.473119 0.425000 0.917756
v 0.452291 0.425000 0.938585
v 0.423838 0.425000 0.946208
v 0.461000 0.441000 0.952229
v 0.432000 0.441000 0.960000
v 0.482229 0.441000 0.931000
v 0.490000 0.441000 0.902000
v 0.490000 0.441000 -0.442000
v 0.482229 0.441000 -0.471000
v 0.461000 0.441000 -0.492229
v 0.432000 0.441000 -0.500000
v -0.432000 0.441000 -0.500000
v -0.461000 0.441000 -0.492229
v -0.482229 0.441000 -0.471000
v -0.490000 0.441000 -0.442000
v -0.490000 0.441000 0.902000
v -0.482229 0.441000 0.931000
v -0.461000 0.441000 0.952229
v -0.432000 0.441000 0.960000
v 0.461000 0.506000 0.952229
v 0.432000 0.506000 0.960000
v 0.482229 0.506000 0.931000
v 0.490000 0.506000 0.902000
v 0.490000 0.506000 -0.442000
v 0.482229 0.506000 -0.471000
v 0.461000 0.506000 -0.492229
v 0.432000 0.506000 -0.500000
v -0.432000 0.506000 -0.500000
v -0.461000 0.506000 -0.492229
v -0.482229 0.506000 -0.471000
v -0.490000 0.506000 -0.442000
v -0.490000 0.506000 0.902000
v -0.482229 0.506000 0.931000
v -0.461000 0.506000 0.952229
v -0.432000 0.506000 0.960000
v 0.414861 0.530000 0.931038
v 0.442710 0.530000 0.923576
v 0.463097 0.530000 0.903188
v 0.470560 0.530000 0.875339
v 0.470560 0.530000 -0.415339
v 0.463097 0.530000 -0.443188
v 0.442710 0.530000 -0.463576
v 0.414861 0.530000 -0.471038
v -0.414861 0.530000 -0.471038
v -0.442710 0.530000 -0.463576
v -0.463097 0.530000 -0.443188
v -0.470560 0.530000 -0.415339
v -0.470560 0.530000 0.875339
v -0.463097 0.530000 0.903188
v -0.442710 0.530000 0.923576
v -0.414861 0.530000 0.931038
v -0.430511 0.514000 -0.388282
v -0.452135 0.514000 -0.394076
v -0.467965 0.514000 -0.409906
v -0.473759 0.514000 -0.431530
v -0.473759 0.514000 -0.492470
v -0.467965 0.514000 -0.514094
v -0.452135 0.514000 -0.529924
v -0.430511 0.514000 -0.535718
v 0.430511 0.514000 -0.535718
v 0.452135 0.514000 -0.529924
v 0.467965 0.514000 -0.514094
v 0.473759 0.514000 -0.492470
v 0.473759 0.514000 -0.431530
v 0.467965 0.514000 -0.409906
v 0.452135 0.514000 -0.394076
v 0.430511 0.514000 -0.388282
v 0.460000 0.522000 -0.392895
v 0.438000 0.522000 -0.387000
v 0.476105 0.522000 -0.409000
v 0.482000 0.522000 -0.431000
v 0.482000 0.522000 -0.493000
v 0.476105 0.522000 -0.515000
v 0.460000 0.522000 -0.531105
v 0.438000 0.522000 -0.537000
v -0.438000 0.522000 -0.537000
v -0.460000 0.522000 -0.531105
v -0.476105 0.522000 -0.515000
v -0.482000 0.522000 -0.493000
v -0.482000 0.522000 -0.431000
v -0.476105 0.522000 -0.409000
v -0.460000 0.522000 -0.392895
v -0.438000 0.522000 -0.387000
v 0.460000 0.528000 -0.392895
v 0.438000 0.528000 -0.387000
v 0.476105 0.528000 -0.409000
v 0.482000 0.528000 -0.431000
v 0.482000 0.528000 -0.493000
v 0.476105 0.528000 -0.515000
v 0.460000 0.528000 -0.531105
v 0.438000 0.528000 -0.537000
v -0.438000 0.528000 -0.537000
v -0.460000 0.528000 -0.531105
v -0.476105 0.528000 -0.515000
v -0.482000 0.528000 -0.493000
v -0.482000 0.528000 -0.431000
v -0.476105 0.528000 -0.409000
v -0.460000 0.528000 -0.392895
v -0.438000 0.528000 -0.387000
v 0.424894 0.538000 -0.389244
v 0.446236 0.538000 -0.394963
v 0.461859 0.538000 -0.410586
v 0.467578 0.538000 -0.431928
v 0.467578 0.538000 -0.492072
v 0.461859 0.538000 -0.513414
v 0.446236 0.538000 -0.529037
v 0.424894 0.538000 -0.534756
v -0.424894 0.538000 -0.534756
v -0.446236 0.538000 -0.529037
v -0.461859 0.538000 -0.513414
v -0.467578 0.538000 -0.492072
v -0.467578 0.538000 -0.431928
v -0.461859 0.538000 -0.410586
v -0.446236 0.538000 -0.394963
v -0.424894 0.538000 -0.389244
v -0.228059 0.516000 -0.534956
v -0.261318 0.516000 -0.543867
v -0.285665 0.516000 -0.568214
v -0.294576 0.516000 -0.601473
v -0.294576 0.516000 -0.810527
v -0.285665 0.516000 -0.843786
v -0.261318 0.516000 -0.868133
v -0.228059 0.516000 -0.877044
v 0.228059 0.516000 -0.877044
v 0.261318 0.516000 -0.868133
v 0.285665 0.516000 -0.843786
v 0.294576 0.516000 -0.810527
v 0.294576 0.516000 -0.601473
v 0.285665 0.516000 -0.568214
v 0.261318 0.516000 -0.543867
v 0.228059 0.516000 -0.534956
v 0.275000 0.532000 -0.535378
v 0.240000 0.532000 -0.526000
v 0.300622 0.532000 -0.561000
v 0.310000 0.532000 -0.596000
v 0.310000 0.532000 -0.816000
v 0.300622 0.532000 -0.851000
v 0.275000 0.532000 -0.876622
v 0.240000 0.532000 -0.886000
v -0.240000 0.532000 -0.886000
v -0.275000 0.532000 -0.876622
v -0.300622 0.532000 -0.851000
v -0.310000 0.532000 -0.816000
v -0.310000 0.532000 -0.596000
v -0.300622 0.532000 -0.561000
v -0.275000 0.532000 -0.535378
v -0.240000 0.532000 -0.526000
v 0.275000 0.574000 -0.535378
v 0.240000 0.574000 -0.526000
v 0.300622 0.574000 -0.561000
v 0.310000 0.574000 -0.596000
v 0.310000 0.574000 -0.816000
v 0.300622 0.574000 -0.851000
v 0.275000 0.574000 -0.876622
v 0.240000 0.574000 -0.886000
v -0.240000 0.574000 -0.886000
v -0.275000 0.574000 -0.876622
v -0.300622 0.574000 -0.851000
v -0.310000 0.574000 -0.816000
v -0.310000 0.574000 -0.596000
v -0.300622 0.574000 -0.561000
v -0.275000 0.574000 -0.535378
v -0.240000 0.574000 -0.526000
v 0.204476 0.608000 -0.552643
v 0.234295 0.608000 -0.560633
v 0.256124 0.608000 -0.582463
v 0.264114 0.608000 -0.612282
v 0.264114 0.608000 -0.799718
v 0.256124 0.608000 -0.829537
v 0.234295 0.608000 -0.851367
v 0.204476 0.608000 -0.859357
v -0.204476 0.608000 -0.859357
v -0.234295 0.608000 -0.851367
v -0.256124 0.608000 -0.829537
v -0.264114 0.608000 -0.799718
v -0.264114 0.608000 -0.612282
v -0.256124 0.608000 -0.582463
v -0.234295 0.608000 -0.560633
v -0.204476 0.608000 -0.552643
vn -0.0000 -1.0000 -0.0000
vn -0.0000 1.0000 -0.0000
vn -0.9239 -0.0000 0.3827
vn -0.3827 -0.0000 0.9239
vn 0.3827 -0.0000 0.9239
vn 0.9239 -0.0000 0.3827
vn 0.9239 -0.0000 -0.3827
vn 0.3827 -0.0000 -0.9239
vn -0.3827 -0.0000 -0.9239
vn -0.9239 -0.0000 -0.3827
vn -0.8660 -0.0000 0.5000
vn -0.0000 -0.0000 1.0000
vn 0.8660 -0.0000 0.5000
vn 0.8660 -0.0000 -0.5000
vn -0.0000 -0.0000 -1.0000
vn -0.8660 -0.0000 -0.5000
vn -1.0000 -0.0000 -0.0000
vn 1.0000 -0.0000 -0.0000
vn -0.0000 -0.3827 0.9239
vn -0.0000 -0.9239 0.3827
vn -0.0000 -0.9239 -0.3827
vn -0.0000 -0.3827 -0.9239
vn -0.0000 0.3827 -0.9239
vn -0.0000 0.9239 -0.3827
vn -0.0000 0.9239 0.3827
vn -0.0000 0.3827 0.9239
vn 0.9239 -0.3827 -0.0000
vn 0.3827 -0.9239 -0.0000
vn -0.3827 -0.9239 -0.0000
vn -0.9239 -0.3827 -0.0000
vn -0.9239 0.3827 -0.0000
vn -0.3827 0.9239 -0.0000
vn 0.3827 0.9239 -0.0000
vn 0.9239 0.3827 -0.0000
vn 0.1830 -0.7071 0.6830
vn 0.5139 -0.6869 0.5139
vn 0.8089 -0.5466 0.2167
vn 0.9146 -0.4043 -0.0000
vn 0.8089 -0.5466 -0.2167
vn 0.5139 -0.6869 -0.5139
vn 0.1830 -0.7071 -0.6830
vn -0.0000 -0.6823 -0.7311
vn -0.1830 -0.7071 -0.6830
vn -0.5139 -0.6869 -0.5139
vn -0.8089 -0.5466 -0.2167
vn -0.9146 -0.4043 -0.0000
vn -0.8089 -0.5466 0.2167
vn -0.5139 -0.6869 0.5139
vn -0.1830 -0.7071 0.6830
vn -0.0000 -0.6823 0.7311
vn 0.2588 -0.0000 0.9659
vn 0.7071 -0.0000 0.7071
vn 0.9659 -0.0000 0.2588
vn 0.9659 -0.0000 -0.2588
vn 0.7071 -0.0000 -0.7071
vn 0.2588 -0.0000 -0.9659
vn -0.2588 -0.0000 -0.9659
vn -0.7071 -0.0000 -0.7071
vn -0.9659 -0.0000 -0.2588
vn -0.9659 -0.0000 0.2588
vn -0.7071 -0.0000 0.7071
vn -0.2588 -0.0000 0.9659
vn 0.1504 0.8137 0.5614
vn 0.4263 0.7978 0.4263
vn 0.7130 0.6746 0.1911
vn 0.8503 0.5262 -0.0000
vn 0.7130 0.6746 -0.1911
vn 0.4263 0.7978 -0.4263
vn 0.1504 0.8137 -0.5614
vn -0.0000 0.7941 -0.6078
vn -0.1504 0.8137 -0.5614
vn -0.4263 0.7978 -0.4263
vn -0.7130 0.6746 -0.1911
vn -0.8503 0.5262 -0.0000
vn -0.7130 0.6746 0.1911
vn -0.4263 0.7978 0.4263
vn -0.1504 0.8137 0.5614
vn -0.0000 0.7941 0.6078
vn 0.1863 -0.6943 0.6952
vn 0.5030 -0.7028 0.5030
vn 0.7675 -0.6072 0.2056
vn 0.8656 -0.5008 -0.0000
vn 0.7675 -0.6072 -0.2056
vn 0.5030 -0.7028 -0.5030
vn 0.1863 -0.6943 -0.6952
vn -0.0000 -0.6529 -0.7574
vn -0.1863 -0.6943 -0.6952
vn -0.5030 -0.7028 -0.5030
vn -0.7675 -0.6072 -0.2056
vn -0.8656 -0.5008 -0.0000
vn -0.7675 -0.6072 0.2056
vn -0.5030 -0.7028 0.5030
vn -0.1863 -0.6943 0.6952
vn -0.0000 -0.6529 0.7574
vn 0.1540 0.8037 0.5748
vn 0.4143 0.8104 0.4143
vn 0.6596 0.7306 0.1767
vn 0.7771 0.6294 -0.0000
vn 0.6596 0.7306 -0.1767
vn 0.4143 0.8104 -0.4143
vn 0.1540 0.8037 -0.5748
vn -0.0000 0.7700 -0.6381
vn -0.1540 0.8037 -0.5748
vn -0.4143 0.8104 -0.4143
vn -0.6596 0.7306 -0.1767
vn -0.7771 0.6294 -0.0000
vn -0.6596 0.7306 0.1767
vn -0.4143 0.8104 0.4143
vn -0.1540 0.8037 0.5748
vn -0.0000 0.7700 0.6381
vn 0.2405 -0.3691 0.8977
vn 0.5523 -0.6245 0.5523
vn 0.6789 -0.7114 0.1819
vn 0.6965 -0.7175 -0.0000
vn 0.6789 -0.7114 -0.1819
vn 0.5523 -0.6245 -0.5523
vn 0.2405 -0.3691 -0.8977
vn -0.0000 -0.1583 -0.9874
vn -0.2405 -0.3691 -0.8977
vn -0.5523 -0.6245 -0.5523
vn -0.6789 -0.7114 -0.1819
vn -0.6965 -0.7175 -0.0000
vn -0.6789 -0.7114 0.1819
vn -0.5523 -0.6245 0.5523
vn -0.2405 -0.3691 0.8977
vn -0.0000 -0.1583 0.9874
vn 0.2262 0.4859 0.8442
vn 0.4711 0.7458 0.4711
vn 0.5569 0.8170 0.1492
vn 0.5698 0.8218 -0.0000
vn 0.5569 0.8170 -0.1492
vn 0.4711 0.7458 -0.4711
vn 0.2262 0.4859 -0.8442
vn -0.0000 0.2190 -0.9757
vn -0.2262 0.4859 -0.8442
vn -0.4711 0.7458 -0.4711
vn -0.5569 0.8170 -0.1492
vn -0.5698 0.8218 -0.0000
vn -0.5569 0.8170 0.1492
vn -0.4711 0.7458 0.4711
vn -0.2262 0.4859 0.8442
vn -0.0000 0.2190 0.9757
vn 0.2087 -0.5916 0.7787
vn 0.5051 -0.6999 0.5051
vn 0.6763 -0.7140 0.1812
vn 0.7200 -0.6940 -0.0000
vn 0.6763 -0.7140 -0.1812
vn 0.5051 -0.6999 -0.5051
vn 0.2087 -0.5916 -0.7787
vn -0.0000 -0.4884 -0.8726
vn -0.2087 -0.5916 -0.7787
vn -0.5051 -0.6999 -0.5051
vn -0.6763 -0.7140 -0.1812
vn -0.7200 -0.6940 -0.0000
vn -0.6763 -0.7140 0.1812
vn -0.5051 -0.6999 0.5051
vn -0.2087 -0.5916 0.7787
vn -0.0000 -0.4884 0.8726
vn 0.1805 0.7166 0.6737
vn 0.4165 0.8081 0.4165
vn 0.5542 0.8190 0.1485
vn 0.5953 0.8035 -0.0000
vn 0.5542 0.8190 -0.1485
vn 0.4165 0.8081 -0.4165
vn 0.1805 0.7166 -0.6737
vn -0.0000 0.6168 -0.7871
vn -0.1805 0.7166 -0.6737
vn -0.4165 0.8081 -0.4165
vn -0.5542 0.8190 -0.1485
vn -0.5953 0.8035 -0.0000
vn -0.5542 0.8190 0.1485
vn -0.4165 0.8081 0.4165
vn -0.1805 0.7166 0.6737
vn -0.0000 0.6168 0.7871
vt 0.812500 0.312500
vt 0.937500 0.187500
vt 0.062500 0.687500
vt 0.437500 0.562500
vt 0.187500 0.687500
s 0
usemtl FN_Atlas
f 1/1/1 2/1/1 3/1/1 4/1/1 5/1/1 6/1/1 7/1/1 8/1/1
f 9/1/2 10/1/2 11/1/2 12/1/2 13/1/2 14/1/2 15/1/2 16/1/2
f 8/1/3 7/1/3 10/1/3 9/1/3
f 7/1/4 6/1/4 11/1/4 10/1/4
f 6/1/5 5/1/5 12/1/5 11/1/5
f 5/1/6 4/1/6 13/1/6 12/1/6
f 4/1/7 3/1/7 14/1/7 13/1/7
f 3/1/8 2/1/8 15/1/8 14/1/8
f 2/1/9 1/1/9 16/1/9 15/1/9
f 1/1/10 8/1/10 9/1/10 16/1/10
f 17/2/1 18/2/1 19/2/1 20/2/1 21/2/1 22/2/1
f 23/2/2 24/2/2 25/2/2 26/2/2 27/2/2 28/2/2
f 22/2/11 21/2/11 24/2/11 23/2/11
f 21/2/12 20/2/12 25/2/12 24/2/12
f 20/2/13 19/2/13 26/2/13 25/2/13
f 19/2/14 18/2/14 27/2/14 26/2/14
f 18/2/15 17/2/15 28/2/15 27/2/15
f 17/2/16 22/2/16 23/2/16 28/2/16
f 29/1/1 30/1/1 31/1/1 32/1/1 33/1/1 34/1/1 35/1/1 36/1/1
f 37/1/2 38/1/2 39/1/2 40/1/2 41/1/2 42/1/2 43/1/2 44/1/2
f 36/1/3 35/1/3 38/1/3 37/1/3
f 35/1/4 34/1/4 39/1/4 38/1/4
f 34/1/5 33/1/5 40/1/5 39/1/5
f 33/1/6 32/1/6 41/1/6 40/1/6
f 32/1/7 31/1/7 42/1/7 41/1/7
f 31/1/8 30/1/8 43/1/8 42/1/8
f 30/1/9 29/1/9 44/1/9 43/1/9
f 29/1/10 36/1/10 37/1/10 44/1/10
f 45/2/1 46/2/1 47/2/1 48/2/1 49/2/1 50/2/1
f 51/2/2 52/2/2 53/2/2 54/2/2 55/2/2 56/2/2
f 50/2/11 49/2/11 52/2/11 51/2/11
f 49/2/12 48/2/12 53/2/12 52/2/12
f 48/2/13 47/2/13 54/2/13 53/2/13
f 47/2/14 46/2/14 55/2/14 54/2/14
f 46/2/15 45/2/15 56/2/15 55/2/15
f 45/2/16 50/2/16 51/2/16 56/2/16
f 57/1/17 58/1/17 59/1/17 60/1/17 61/1/17 62/1/17 63/1/17 64/1/17
f 65/1/18 66/1/18 67/1/18 68/1/18 69/1/18 70/1/18 71/1/18 72/1/18
f 64/1/19 63/1/19 66/1/19 65/1/19
f 63/1/20 62/1/20 67/1/20 66/1/20
f 62/1/21 61/1/21 68/1/21 67/1/21
f 61/1/22 60/1/22 69/1/22 68/1/22
f 60/1/23 59/1/23 70/1/23 69/1/23
f 59/1/24 58/1/24 71/1/24 70/1/24
f 58/1/25 57/1/25 72/1/25 71/1/25
f 57/1/26 64/1/26 65/1/26 72/1/26
f 73/1/17 74/1/17 75/1/17 76/1/17 77/1/17 78/1/17 79/1/17 80/1/17
f 81/1/18 82/1/18 83/1/18 84/1/18 85/1/18 86/1/18 87/1/18 88/1/18
f 80/1/19 79/1/19 82/1/19 81/1/19
f 79/1/20 78/1/20 83/1/20 82/1/20
f 78/1/21 77/1/21 84/1/21 83/1/21
f 77/1/22 76/1/22 85/1/22 84/1/22
f 76/1/23 75/1/23 86/1/23 85/1/23
f 75/1/24 74/1/24 87/1/24 86/1/24
f 74/1/25 73/1/25 88/1/25 87/1/25
f 73/1/26 80/1/26 81/1/26 88/1/26
f 89/1/1 90/1/1 91/1/1 92/1/1 93/1/1 94/1/1
f 95/1/2 96/1/2 97/1/2 98/1/2 99/1/2 100/1/2
f 94/1/11 93/1/11 96/1/11 95/1/11
f 93/1/12 92/1/12 97/1/12 96/1/12
f 92/1/13 91/1/13 98/1/13 97/1/13
f 91/1/14 90/1/14 99/1/14 98/1/14
f 90/1/15 89/1/15 100/1/15 99/1/15
f 89/1/16 94/1/16 95/1/16 100/1/16
f 101/1/1 102/1/1 103/1/1 104/1/1 105/1/1 106/1/1
f 107/1/2 108/1/2 109/1/2 110/1/2 111/1/2 112/1/2
f 106/1/11 105/1/11 108/1/11 107/1/11
f 105/1/12 104/1/12 109/1/12 108/1/12
f 104/1/13 103/1/13 110/1/13 109/1/13
f 103/1/14 102/1/14 111/1/14 110/1/14
f 102/1/15 101/1/15 112/1/15 111/1/15
f 101/1/16 106/1/16 107/1/16 112/1/16
f 113/1/1 114/1/1 115/1/1 116/1/1 117/1/1 118/1/1
f 119/1/2 120/1/2 121/1/2 122/1/2 123/1/2 124/1/2
f 118/1/11 117/1/11 120/1/11 119/1/11
f 117/1/12 116/1/12 121/1/12 120/1/12
f 116/1/13 115/1/13 122/1/13 121/1/13
f 115/1/14 114/1/14 123/1/14 122/1/14
f 114/1/15 113/1/15 124/1/15 123/1/15
f 113/1/16 118/1/16 119/1/16 124/1/16
f 125/1/1 126/1/1 127/1/1 128/1/1 129/1/1 130/1/1 131/1/1 132/1/1
f 133/1/2 134/1/2 135/1/2 136/1/2 137/1/2 138/1/2 139/1/2 140/1/2
f 132/1/3 131/1/3 134/1/3 133/1/3
f 131/1/4 130/1/4 135/1/4 134/1/4
f 130/1/5 129/1/5 136/1/5 135/1/5
f 129/1/6 128/1/6 137/1/6 136/1/6
f 128/1/7 127/1/7 138/1/7 137/1/7
f 127/1/8 126/1/8 139/1/8 138/1/8
f 126/1/9 125/1/9 140/1/9 139/1/9
f 125/1/10 132/1/10 133/1/10 140/1/10
f 141/2/1 142/2/1 143/2/1 144/2/1 145/2/1 146/2/1
f 147/2/2 148/2/2 149/2/2 150/2/2 151/2/2 152/2/2
f 146/2/11 145/2/11 148/2/11 147/2/11
f 145/2/12 144/2/12 149/2/12 148/2/12
f 144/2/13 143/2/13 150/2/13 149/2/13
f 143/2/14 142/2/14 151/2/14 150/2/14
f 142/2/15 141/2/15 152/2/15 151/2/15
f 141/2/16 146/2/16 147/2/16 152/2/16
f 153/1/1 154/1/1 155/1/1 156/1/1 157/1/1 158/1/1 159/1/1 160/1/1
f 161/1/2 162/1/2 163/1/2 164/1/2 165/1/2 166/1/2 167/1/2 168/1/2
f 160/1/3 159/1/3 162/1/3 161/1/3
f 159/1/4 158/1/4 163/1/4 162/1/4
f 158/1/5 157/1/5 164/1/5 163/1/5
f 157/1/6 156/1/6 165/1/6 164/1/6
f 156/1/7 155/1/7 166/1/7 165/1/7
f 155/1/8 154/1/8 167/1/8 166/1/8
f 154/1/9 153/1/9 168/1/9 167/1/9
f 153/1/10 160/1/10 161/1/10 168/1/10
f 169/2/1 170/2/1 171/2/1 172/2/1 173/2/1 174/2/1
f 175/2/2 176/2/2 177/2/2 178/2/2 179/2/2 180/2/2
f 174/2/11 173/2/11 176/2/11 175/2/11
f 173/2/12 172/2/12 177/2/12 176/2/12
f 172/2/13 171/2/13 178/2/13 177/2/13
f 171/2/14 170/2/14 179/2/14 178/2/14
f 170/2/15 169/2/15 180/2/15 179/2/15
f 169/2/16 174/2/16 175/2/16 180/2/16
f 181/1/17 182/1/17 183/1/17 184/1/17 185/1/17 186/1/17 187/1/17 188/1/17
f 189/1/18 190/1/18 191/1/18 192/1/18 193/1/18 194/1/18 195/1/18 196/1/18
f 188/1/19 187/1/19 190/1/19 189/1/19
f 187/1/20 186/1/20 191/1/20 190/1/20
f 186/1/21 185/1/21 192/1/21 191/1/21
f 185/1/22 184/1/22 193/1/22 192/1/22
f 184/1/23 183/1/23 194/1/23 193/1/23
f 183/1/24 182/1/24 195/1/24 194/1/24
f 182/1/25 181/1/25 196/1/25 195/1/25
f 181/1/26 188/1/26 189/1/26 196/1/26
f 197/1/17 198/1/17 199/1/17 200/1/17 201/1/17 202/1/17 203/1/17 204/1/17
f 205/1/18 206/1/18 207/1/18 208/1/18 209/1/18 210/1/18 211/1/18 212/1/18
f 204/1/19 203/1/19 206/1/19 205/1/19
f 203/1/20 202/1/20 207/1/20 206/1/20
f 202/1/21 201/1/21 208/1/21 207/1/21
f 201/1/22 200/1/22 209/1/22 208/1/22
f 200/1/23 199/1/23 210/1/23 209/1/23
f 199/1/24 198/1/24 211/1/24 210/1/24
f 198/1/25 197/1/25 212/1/25 211/1/25
f 197/1/26 204/1/26 205/1/26 212/1/26
f 213/1/1 214/1/1 215/1/1 216/1/1 217/1/1 218/1/1
f 219/1/2 220/1/2 221/1/2 222/1/2 223/1/2 224/1/2
f 218/1/11 217/1/11 220/1/11 219/1/11
f 217/1/12 216/1/12 221/1/12 220/1/12
f 216/1/13 215/1/13 222/1/13 221/1/13
f 215/1/14 214/1/14 223/1/14 222/1/14
f 214/1/15 213/1/15 224/1/15 223/1/15
f 213/1/16 218/1/16 219/1/16 224/1/16
f 225/1/1 226/1/1 227/1/1 228/1/1 229/1/1 230/1/1
f 231/1/2 232/1/2 233/1/2 234/1/2 235/1/2 236/1/2
f 230/1/11 229/1/11 232/1/11 231/1/11
f 229/1/12 228/1/12 233/1/12 232/1/12
f 228/1/13 227/1/13 234/1/13 233/1/13
f 227/1/14 226/1/14 235/1/14 234/1/14
f 226/1/15 225/1/15 236/1/15 235/1/15
f 225/1/16 230/1/16 231/1/16 236/1/16
f 237/1/12 238/1/12 239/1/12 240/1/12 241/1/12 242/1/12 243/1/12 244/1/12
f 245/1/15 246/1/15 247/1/15 248/1/15 249/1/15 250/1/15 251/1/15 252/1/15
f 244/1/27 243/1/27 246/1/27 245/1/27
f 243/1/28 242/1/28 247/1/28 246/1/28
f 242/1/29 241/1/29 248/1/29 247/1/29
f 241/1/30 240/1/30 249/1/30 248/1/30
f 240/1/31 239/1/31 250/1/31 249/1/31
f 239/1/32 238/1/32 251/1/32 250/1/32
f 238/1/33 237/1/33 252/1/33 251/1/33
f 237/1/34 244/1/34 245/1/34 252/1/34
f 253/1/12 254/1/12 255/1/12 256/1/12 257/1/12 258/1/12 259/1/12 260/1/12
f 261/1/15 262/1/15 263/1/15 264/1/15 265/1/15 266/1/15 267/1/15 268/1/15
f 260/1/27 259/1/27 262/1/27 261/1/27
f 259/1/28 258/1/28 263/1/28 262/1/28
f 258/1/29 257/1/29 264/1/29 263/1/29
f 257/1/30 256/1/30 265/1/30 264/1/30
f 256/1/31 255/1/31 266/1/31 265/1/31
f 255/1/32 254/1/32 267/1/32 266/1/32
f 254/1/33 253/1/33 268/1/33 267/1/33
f 253/1/34 260/1/34 261/1/34 268/1/34
f 269/1/1 270/1/1 271/1/1 272/1/1
f 273/1/2 274/1/2 275/1/2 276/1/2
f 269/1/12 272/1/12 274/1/12 273/1/12
f 271/1/15 270/1/15 276/1/15 275/1/15
f 269/1/17 273/1/17 276/1/17 270/1/17
f 272/1/18 271/1/18 275/1/18 274/1/18
f 277/3/1 278/3/1 279/3/1 280/3/1 281/3/1 282/3/1 283/3/1 284/3/1 285/3/1 286/3/1 287/3/1 288/3/1 289/3/1 290/3/1 291/3/1 292/3/1
f 292/3/35 291/3/35 293/3/35 294/3/35
f 291/3/36 290/3/36 295/3/36 293/3/36
f 290/3/37 289/3/37 296/3/37 295/3/37
f 289/3/38 288/3/38 297/3/38 296/3/38
f 288/3/39 287/3/39 298/3/39 297/3/39
f 287/3/40 286/3/40 299/3/40 298/3/40
f 286/3/41 285/3/41 300/3/41 299/3/41
f 285/3/42 284/3/42 301/3/42 300/3/42
f 284/3/43 283/3/43 302/3/43 301/3/43
f 283/3/44 282/3/44 303/3/44 302/3/44
f 282/3/45 281/3/45 304/3/45 303/3/45
f 281/3/46 280/3/46 305/3/46 304/3/46
f 280/3/47 279/3/47 306/3/47 305/3/47
f 279/3/48 278/3/48 307/3/48 306/3/48
f 278/3/49 277/3/49 308/3/49 307/3/49
f 277/3/50 292/3/50 294/3/50 308/3/50
f 294/3/51 293/3/51 309/3/51 310/3/51
f 293/3/52 295/3/52 311/3/52 309/3/52
f 295/3/53 296/3/53 312/3/53 311/3/53
f 296/3/18 297/3/18 313/3/18 312/3/18
f 297/3/54 298/3/54 314/3/54 313/3/54
f 298/3/55 299/3/55 315/3/55 314/3/55
f 299/3/56 300/3/56 316/3/56 315/3/56
f 300/3/15 301/3/15 317/3/15 316/3/15
f 301/3/57 302/3/57 318/3/57 317/3/57
f 302/3/58 303/3/58 319/3/58 318/3/58
f 303/3/59 304/3/59 320/3/59 319/3/59
f 304/3/17 305/3/17 321/3/17 320/3/17
f 305/3/60 306/3/60 322/3/60 321/3/60
f 306/3/61 307/3/61 323/3/61 322/3/61
f 307/3/62 308/3/62 324/3/62 323/3/62
f 308/3/12 294/3/12 310/3/12 324/3/12
f 325/3/2 326/3/2 327/3/2 328/3/2 329/3/2 330/3/2 331/3/2 332/3/2 333/3/2 334/3/2 335/3/2 336/3/2 337/3/2 338/3/2 339/3/2 340/3/2
f 310/3/63 309/3/63 326/3/63 325/3/63
f 309/3/64 311/3/64 327/3/64 326/3/64
f 311/3/65 312/3/65 328/3/65 327/3/65
f 312/3/66 313/3/66 329/3/66 328/3/66
f 313/3/67 314/3/67 330/3/67 329/3/67
f 314/3/68 315/3/68 331/3/68 330/3/68
f 315/3/69 316/3/69 332/3/69 331/3/69
f 316/3/70 317/3/70 333/3/70 332/3/70
f 317/3/71 318/3/71 334/3/71 333/3/71
f 318/3/72 319/3/72 335/3/72 334/3/72
f 319/3/73 320/3/73 336/3/73 335/3/73
f 320/3/74 321/3/74 337/3/74 336/3/74
f 321/3/75 322/3/75 338/3/75 337/3/75
f 322/3/76 323/3/76 339/3/76 338/3/76
f 323/3/77 324/3/77 340/3/77 339/3/77
f 324/3/78 310/3/78 325/3/78 340/3/78
f 341/4/1 342/4/1 343/4/1 344/4/1 345/4/1 346/4/1 347/4/1 348/4/1 349/4/1 350/4/1 351/4/1 352/4/1 353/4/1 354/4/1 355/4/1 356/4/1
f 356/4/79 355/4/79 357/4/79 358/4/79
f 355/4/80 354/4/80 359/4/80 357/4/80
f 354/4/81 353/4/81 360/4/81 359/4/81
f 353/4/82 352/4/82 361/4/82 360/4/82
f 352/4/83 351/4/83 362/4/83 361/4/83
f 351/4/84 350/4/84 363/4/84 362/4/84
f 350/4/85 349/4/85 364/4/85 363/4/85
f 349/4/86 348/4/86 365/4/86 364/4/86
f 348/4/87 347/4/87 366/4/87 365/4/87
f 347/4/88 346/4/88 367/4/88 366/4/88
f 346/4/89 345/4/89 368/4/89 367/4/89
f 345/4/90 344/4/90 369/4/90 368/4/90
f 344/4/91 343/4/91 370/4/91 369/4/91
f 343/4/92 342/4/92 371/4/92 370/4/92
f 342/4/93 341/4/93 372/4/93 371/4/93
f 341/4/94 356/4/94 358/4/94 372/4/94
f 358/4/51 357/4/51 373/4/51 374/4/51
f 357/4/52 359/4/52 375/4/52 373/4/52
f 359/4/53 360/4/53 376/4/53 375/4/53
f 360/4/18 361/4/18 377/4/18 376/4/18
f 361/4/54 362/4/54 378/4/54 377/4/54
f 362/4/55 363/4/55 379/4/55 378/4/55
f 363/4/56 364/4/56 380/4/56 379/4/56
f 364/4/15 365/4/15 381/4/15 380/4/15
f 365/4/57 366/4/57 382/4/57 381/4/57
f 366/4/58 367/4/58 383/4/58 382/4/58
f 367/4/59 368/4/59 384/4/59 383/4/59
f 368/4/17 369/4/17 385/4/17 384/4/17
f 369/4/60 370/4/60 386/4/60 385/4/60
f 370/4/61 371/4/61 387/4/61 386/4/61
f 371/4/62 372/4/62 388/4/62 387/4/62
f 372/4/12 358/4/12 374/4/12 388/4/12
f 389/4/2 390/4/2 391/4/2 392/4/2 393/4/2 394/4/2 395/4/2 396/4/2 397/4/2 398/4/2 399/4/2 400/4/2 401/4/2 402/4/2 403/4/2 404/4/2
f 374/4/95 373/4/95 390/4/95 389/4/95
f 373/4/96 375/4/96 391/4/96 390/4/96
f 375/4/97 376/4/97 392/4/97 391/4/97
f 376/4/98 377/4/98 393/4/98 392/4/98
f 377/4/99 378/4/99 394/4/99 393/4/99
f 378/4/100 379/4/100 395/4/100 394/4/100
f 379/4/101 380/4/101 396/4/101 395/4/101
f 380/4/102 381/4/102 397/4/102 396/4/102
f 381/4/103 382/4/103 398/4/103 397/4/103
f 382/4/104 383/4/104 399/4/104 398/4/104
f 383/4/105 384/4/105 400/4/105 399/4/105
f 384/4/106 385/4/106 401/4/106 400/4/106
f 385/4/107 386/4/107 402/4/107 401/4/107
f 386/4/108 387/4/108 403/4/108 402/4/108
f 387/4/109 388/4/109 404/4/109 403/4/109
f 388/4/110 374/4/110 389/4/110 404/4/110
f 405/5/1 406/5/1 407/5/1 408/5/1 409/5/1 410/5/1 411/5/1 412/5/1 413/5/1 414/5/1 415/5/1 416/5/1 417/5/1 418/5/1 419/5/1 420/5/1
f 420/5/111 419/5/111 421/5/111 422/5/111
f 419/5/112 418/5/112 423/5/112 421/5/112
f 418/5/113 417/5/113 424/5/113 423/5/113
f 417/5/114 416/5/114 425/5/114 424/5/114
f 416/5/115 415/5/115 426/5/115 425/5/115
f 415/5/116 414/5/116 427/5/116 426/5/116
f 414/5/117 413/5/117 428/5/117 427/5/117
f 413/5/118 412/5/118 429/5/118 428/5/118
f 412/5/119 411/5/119 430/5/119 429/5/119
f 411/5/120 410/5/120 431/5/120 430/5/120
f 410/5/121 409/5/121 432/5/121 431/5/121
f 409/5/122 408/5/122 433/5/122 432/5/122
f 408/5/123 407/5/123 434/5/123 433/5/123
f 407/5/124 406/5/124 435/5/124 434/5/124
f 406/5/125 405/5/125 436/5/125 435/5/125
f 405/5/126 420/5/126 422/5/126 436/5/126
f 422/5/51 421/5/51 437/5/51 438/5/51
f 421/5/52 423/5/52 439/5/52 437/5/52
f 423/5/53 424/5/53 440/5/53 439/5/53
f 424/5/18 425/5/18 441/5/18 440/5/18
f 425/5/54 426/5/54 442/5/54 441/5/54
f 426/5/55 427/5/55 443/5/55 442/5/55
f 427/5/56 428/5/56 444/5/56 443/5/56
f 428/5/15 429/5/15 445/5/15 444/5/15
f 429/5/57 430/5/57 446/5/57 445/5/57
f 430/5/58 431/5/58 447/5/58 446/5/58
f 431/5/59 432/5/59 448/5/59 447/5/59
f 432/5/17 433/5/17 449/5/17 448/5/17
f 433/5/60 434/5/60 450/5/60 449/5/60
f 434/5/61 435/5/61 451/5/61 450/5/61
f 435/5/62 436/5/62 452/5/62 451/5/62
f 436/5/12 422/5/12 438/5/12 452/5/12
f 453/5/2 454/5/2 455/5/2 456/5/2 457/5/2 458/5/2 459/5/2 460/5/2 461/5/2 462/5/2 463/5/2 464/5/2 465/5/2 466/5/2 467/5/2 468/5/2
f 438/5/127 437/5/127 454/5/127 453/5/127
f 437/5/128 439/5/128 455/5/128 454/5/128
f 439/5/129 440/5/129 456/5/129 455/5/129
f 440/5/130 441/5/130 457/5/130 456/5/130
f 441/5/131 442/5/131 458/5/131 457/5/131
f 442/5/132 443/5/132 459/5/132 458/5/132
f 443/5/133 444/5/133 460/5/133 459/5/133
f 444/5/134 445/5/134 461/5/134 460/5/134
f 445/5/135 446/5/135 462/5/135 461/5/135
f 446/5/136 447/5/136 463/5/136 462/5/136
f 447/5/137 448/5/137 464/5/137 463/5/137
f 448/5/138 449/5/138 465/5/138 464/5/138
f 449/5/139 450/5/139 466/5/139 465/5/139
f 450/5/140 451/5/140 467/5/140 466/5/140
f 451/5/141 452/5/141 468/5/141 467/5/141
f 452/5/142 438/5/142 453/5/142 468/5/142
f 469/5/1 470/5/1 471/5/1 472/5/1 473/5/1 474/5/1 475/5/1 476/5/1 477/5/1 478/5/1 479/5/1 480/5/1 481/5/1 482/5/1 483/5/1 484/5/1
f 484/5/143 483/5/143 485/5/143 486/5/143
f 483/5/144 482/5/144 487/5/144 485/5/144
f 482/5/145 481/5/145 488/5/145 487/5/145
f 481/5/146 480/5/146 489/5/146 488/5/146
f 480/5/147 479/5/147 490/5/147 489/5/147
f 479/5/148 478/5/148 491/5/148 490/5/148
f 478/5/149 477/5/149 492/5/149 491/5/149
f 477/5/150 476/5/150 493/5/150 492/5/150
f 476/5/151 475/5/151 494/5/151 493/5/151
f 475/5/152 474/5/152 495/5/152 494/5/152
f 474/5/153 473/5/153 496/5/153 495/5/153
f 473/5/154 472/5/154 497/5/154 496/5/154
f 472/5/155 471/5/155 498/5/155 497/5/155
f 471/5/156 470/5/156 499/5/156 498/5/156
f 470/5/157 469/5/157 500/5/157 499/5/157
f 469/5/158 484/5/158 486/5/158 500/5/158
f 486/5/51 485/5/51 501/5/51 502/5/51
f 485/5/52 487/5/52 503/5/52 501/5/52
f 487/5/53 488/5/53 504/5/53 503/5/53
f 488/5/18 489/5/18 505/5/18 504/5/18
f 489/5/54 490/5/54 506/5/54 505/5/54
f 490/5/55 491/5/55 507/5/55 506/5/55
f 491/5/56 492/5/56 508/5/56 507/5/56
f 492/5/15 493/5/15 509/5/15 508/5/15
f 493/5/57 494/5/57 510/5/57 509/5/57
f 494/5/58 495/5/58 511/5/58 510/5/58
f 495/5/59 496/5/59 512/5/59 511/5/59
f 496/5/17 497/5/17 513/5/17 512/5/17
f 497/5/60 498/5/60 514/5/60 513/5/60
f 498/5/61 499/5/61 515/5/61 514/5/61
f 499/5/62 500/5/62 516/5/62 515/5/62
f 500/5/12 486/5/12 502/5/12 516/5/12
f 517/5/2 518/5/2 519/5/2 520/5/2 521/5/2 522/5/2 523/5/2 524/5/2 525/5/2 526/5/2 527/5/2 528/5/2 529/5/2 530/5/2 531/5/2 532/5/2
f 502/5/159 501/5/159 518/5/159 517/5/159
f 501/5/160 503/5/160 519/5/160 518/5/160
f 503/5/161 504/5/161 520/5/161 519/5/161
f 504/5/162 505/5/162 521/5/162 520/5/162
f 505/5/163 506/5/163 522/5/163 521/5/163
f 506/5/164 507/5/164 523/5/164 522/5/164
f 507/5/165 508/5/165 524/5/165 523/5/165
f 508/5/166 509/5/166 525/5/166 524/5/166
f 509/5/167 510/5/167 526/5/167 525/5/167
f 510/5/168 511/5/168 527/5/168 526/5/168
f 511/5/169 512/5/169 528/5/169 527/5/169
f 512/5/170 513/5/170 529/5/170 528/5/170
f 513/5/171 514/5/171 530/5/171 529/5/171
f 514/5/172 515/5/172 531/5/172 530/5/172
f 515/5/173 516/5/173 532/5/173 531/5/173
f 516/5/174 502/5/174 517/5/174 532/5/174
