# Blender 5.2.0 LTS
# www.blender.org
mtllib FN_Bench_Potting.mtl
o FN_Bench_Potting
v -0.534000 0.000000 0.264000
v -0.534000 0.000000 0.216000
v -0.486000 0.000000 0.216000
v -0.486000 0.000000 0.264000
v -0.534000 0.900000 0.264000
v -0.486000 0.900000 0.264000
v -0.486000 0.900000 0.216000
v -0.534000 0.900000 0.216000
v -0.534000 0.000000 -0.216000
v -0.534000 0.000000 -0.264000
v -0.486000 0.000000 -0.264000
v -0.486000 0.000000 -0.216000
v -0.534000 1.500000 -0.216000
v -0.486000 1.500000 -0.216000
v -0.486000 1.500000 -0.264000
v -0.534000 1.500000 -0.264000
v 0.486000 0.000000 0.264000
v 0.486000 0.000000 0.216000
v 0.534000 0.000000 0.216000
v 0.534000 0.000000 0.264000
v 0.486000 0.900000 0.264000
v 0.534000 0.900000 0.264000
v 0.534000 0.900000 0.216000
v 0.486000 0.900000 0.216000
v 0.486000 0.000000 -0.216000
v 0.486000 0.000000 -0.264000
v 0.534000 0.000000 -0.264000
v 0.534000 0.000000 -0.216000
v 0.486000 1.500000 -0.216000
v 0.534000 1.500000 -0.216000
v 0.534000 1.500000 -0.264000
v 0.486000 1.500000 -0.264000
v -0.530000 0.222000 0.230000
v -0.530000 0.222000 -0.230000
v -0.490000 0.222000 -0.230000
v -0.490000 0.222000 0.230000
v -0.530000 0.252000 0.230000
v -0.490000 0.252000 0.230000
v -0.490000 0.252000 -0.230000
v -0.530000 0.252000 -0.230000
v 0.490000 0.222000 0.230000
v 0.490000 0.222000 -0.230000
v 0.530000 0.222000 -0.230000
v 0.530000 0.222000 0.230000
v 0.490000 0.252000 0.230000
v 0.530000 0.252000 0.230000
v 0.530000 0.252000 -0.230000
v 0.490000 0.252000 -0.230000
v -0.520000 0.244000 0.212000
v -0.520000 0.244000 0.148000
v 0.520000 0.244000 0.148000
v 0.520000 0.244000 0.212000
v -0.520000 0.272000 0.212000
v 0.520000 0.272000 0.212000
v 0.520000 0.272000 0.148000
v -0.520000 0.272000 0.148000
v -0.520000 0.244000 0.122000
v -0.520000 0.244000 0.058000
v 0.520000 0.244000 0.058000
v 0.520000 0.244000 0.122000
v -0.520000 0.272000 0.122000
v 0.520000 0.272000 0.122000
v 0.520000 0.272000 0.058000
v -0.520000 0.272000 0.058000
v -0.520000 0.244000 0.032000
v -0.520000 0.244000 -0.032000
v 0.520000 0.244000 -0.032000
v 0.520000 0.244000 0.032000
v -0.520000 0.272000 0.032000
v 0.520000 0.272000 0.032000
v 0.520000 0.272000 -0.032000
v -0.520000 0.272000 -0.032000
v -0.520000 0.244000 -0.058000
v -0.520000 0.244000 -0.122000
v 0.520000 0.244000 -0.122000
v 0.520000 0.244000 -0.058000
v -0.520000 0.272000 -0.058000
v 0.520000 0.272000 -0.058000
v 0.520000 0.272000 -0.122000
v -0.520000 0.272000 -0.122000
v -0.520000 0.244000 -0.148000
v -0.520000 0.244000 -0.212000
v 0.520000 0.244000 -0.212000
v 0.520000 0.244000 -0.148000
v -0.520000 0.272000 -0.148000
v 0.520000 0.272000 -0.148000
v 0.520000 0.272000 -0.212000
v -0.520000 0.272000 -0.212000
v -0.550000 0.888000 0.275000
v -0.550000 0.888000 0.185000
v 0.550000 0.888000 0.185000
v 0.550000 0.888000 0.275000
v -0.550000 0.920000 0.275000
v 0.550000 0.920000 0.275000
v 0.550000 0.920000 0.185000
v -0.550000 0.920000 0.185000
v -0.550000 0.888000 -0.185000
v -0.550000 0.888000 -0.275000
v 0.550000 0.888000 -0.275000
v 0.550000 0.888000 -0.185000
v -0.550000 0.920000 -0.185000
v 0.550000 0.920000 -0.185000
v 0.550000 0.920000 -0.275000
v -0.550000 0.920000 -0.275000
v -0.550000 0.888000 0.200000
v -0.550000 0.888000 -0.200000
v -0.460000 0.888000 -0.200000
v -0.460000 0.888000 0.200000
v -0.550000 0.920000 0.200000
v -0.460000 0.920000 0.200000
v -0.460000 0.920000 -0.200000
v -0.550000 0.920000 -0.200000
v 0.460000 0.888000 0.200000
v 0.460000 0.888000 -0.200000
v 0.550000 0.888000 -0.200000
v 0.550000 0.888000 0.200000
v 0.460000 0.920000 0.200000
v 0.550000 0.920000 0.200000
v 0.550000 0.920000 -0.200000
v 0.460000 0.920000 -0.200000
v -0.470000 0.820000 0.195000
v -0.470000 0.820000 0.175000
v 0.470000 0.820000 0.175000
v 0.470000 0.820000 0.195000
v -0.470000 0.900000 0.195000
v 0.470000 0.900000 0.195000
v 0.470000 0.900000 0.175000
v -0.470000 0.900000 0.175000
v -0.470000 0.820000 -0.175000
v -0.470000 0.820000 -0.195000
v 0.470000 0.820000 -0.195000
v 0.470000 0.820000 -0.175000
v -0.470000 0.900000 -0.175000
v 0.470000 0.900000 -0.175000
v 0.470000 0.900000 -0.195000
v -0.470000 0.900000 -0.195000
v -0.470000 0.820000 0.180000
v -0.470000 0.820000 -0.180000
v -0.450000 0.820000 -0.180000
v -0.450000 0.820000 0.180000
v -0.470000 0.900000 0.180000
v -0.450000 0.900000 0.180000
v -0.450000 0.900000 -0.180000
v -0.470000 0.900000 -0.180000
v 0.450000 0.820000 0.180000
v 0.450000 0.820000 -0.180000
v 0.470000 0.820000 -0.180000
v 0.470000 0.820000 0.180000
v 0.450000 0.900000 0.180000
v 0.470000 0.900000 0.180000
v 0.470000 0.900000 -0.180000
v 0.450000 0.900000 -0.180000
v -0.470000 0.826000 0.195000
v -0.470000 0.826000 -0.195000
v 0.470000 0.826000 -0.195000
v 0.470000 0.826000 0.195000
v -0.470000 0.854000 0.195000
v 0.470000 0.854000 0.195000
v 0.470000 0.854000 -0.195000
v -0.470000 0.854000 -0.195000
v -0.550000 0.800000 0.275000
v -0.550000 0.800000 0.245000
v 0.550000 0.800000 0.245000
v 0.550000 0.800000 0.275000
v -0.550000 0.894000 0.275000
v 0.550000 0.894000 0.275000
v 0.550000 0.894000 0.245000
v -0.550000 0.894000 0.245000
v -0.550000 0.800000 -0.245000
v -0.550000 0.800000 -0.275000
v 0.550000 0.800000 -0.275000
v 0.550000 0.800000 -0.245000
v -0.550000 0.894000 -0.245000
v 0.550000 0.894000 -0.245000
v 0.550000 0.894000 -0.275000
v -0.550000 0.894000 -0.275000
v -0.544000 0.800000 0.250000
v -0.544000 0.800000 -0.250000
v -0.520000 0.800000 -0.250000
v -0.520000 0.800000 0.250000
v -0.544000 0.894000 0.250000
v -0.520000 0.894000 0.250000
v -0.520000 0.894000 -0.250000
v -0.544000 0.894000 -0.250000
v 0.520000 0.800000 0.250000
v 0.520000 0.800000 -0.250000
v 0.544000 0.800000 -0.250000
v 0.544000 0.800000 0.250000
v 0.520000 0.894000 0.250000
v 0.544000 0.894000 0.250000
v 0.544000 0.894000 -0.250000
v 0.520000 0.894000 -0.250000
v -0.470000 0.845000 -0.190000
v 0.110000 0.845000 -0.190000
v 0.110000 0.845000 0.190000
v -0.470000 0.845000 0.190000
v -0.440000 0.895000 0.150000
v 0.070000 0.895000 0.150000
v 0.070000 0.895000 -0.150000
v -0.440000 0.895000 -0.150000
v -0.510000 0.920000 -0.244000
v -0.510000 0.920000 -0.268000
v 0.510000 0.920000 -0.268000
v 0.510000 0.920000 -0.244000
v -0.510000 1.400000 -0.244000
v 0.510000 1.400000 -0.244000
v 0.510000 1.400000 -0.268000
v -0.510000 1.400000 -0.268000
v -0.540000 1.388000 -0.150000
v -0.540000 1.388000 -0.275000
v 0.540000 1.388000 -0.275000
v 0.540000 1.388000 -0.150000
v -0.540000 1.416000 -0.150000
v 0.540000 1.416000 -0.150000
v 0.540000 1.416000 -0.275000
v -0.540000 1.416000 -0.275000
v -0.290000 1.180000 -0.196000
v -0.290000 1.180000 -0.252000
v -0.270000 1.180000 -0.252000
v -0.270000 1.180000 -0.196000
v -0.290000 1.200000 -0.196000
v -0.270000 1.200000 -0.196000
v -0.270000 1.200000 -0.252000
v -0.290000 1.200000 -0.252000
v -0.010000 1.180000 -0.196000
v -0.010000 1.180000 -0.252000
v 0.010000 1.180000 -0.252000
v 0.010000 1.180000 -0.196000
v -0.010000 1.200000 -0.196000
v 0.010000 1.200000 -0.196000
v 0.010000 1.200000 -0.252000
v -0.010000 1.200000 -0.252000
v 0.270000 1.180000 -0.196000
v 0.270000 1.180000 -0.252000
v 0.290000 1.180000 -0.252000
v 0.290000 1.180000 -0.196000
v 0.270000 1.200000 -0.196000
v 0.290000 1.200000 -0.196000
v 0.290000 1.200000 -0.252000
v 0.270000 1.200000 -0.252000
v -0.292000 1.168000 -0.204000
v -0.292000 1.168000 -0.226000
v -0.268000 1.168000 -0.226000
v -0.268000 1.168000 -0.204000
v -0.292000 1.240000 -0.204000
v -0.268000 1.240000 -0.204000
v -0.268000 1.240000 -0.226000
v -0.292000 1.240000 -0.226000
v -0.290000 1.010000 -0.208000
v -0.270000 1.010000 -0.208000
v -0.248000 1.176000 -0.208000
v -0.312000 1.176000 -0.208000
v -0.312000 1.176000 -0.222000
v -0.248000 1.176000 -0.222000
v -0.270000 1.010000 -0.222000
v -0.290000 1.010000 -0.222000
v 0.268000 1.168000 -0.204000
v 0.268000 1.168000 -0.226000
v 0.292000 1.168000 -0.226000
v 0.292000 1.168000 -0.204000
v 0.268000 1.240000 -0.204000
v 0.292000 1.240000 -0.204000
v 0.292000 1.240000 -0.226000
v 0.268000 1.240000 -0.226000
v 0.272000 1.048000 -0.208000
v 0.288000 1.048000 -0.208000
v 0.306000 1.176000 -0.208000
v 0.254000 1.176000 -0.208000
v 0.254000 1.176000 -0.222000
v 0.306000 1.176000 -0.222000
v 0.288000 1.048000 -0.222000
v 0.272000 1.048000 -0.222000
vn -0.0000 -1.0000 -0.0000
vn -0.0000 1.0000 -0.0000
vn -0.0000 -0.0000 1.0000
vn -0.0000 -0.0000 -1.0000
vn -1.0000 -0.0000 -0.0000
vn 1.0000 -0.0000 -0.0000
vn -0.0000 0.6247 0.7809
vn 0.7809 0.6247 -0.0000
vn -0.0000 0.6247 -0.7809
vn -0.8575 0.5145 -0.0000
vn 0.9913 -0.1314 -0.0000
vn -0.9913 -0.1314 -0.0000
vn 0.9903 -0.1393 -0.0000
vn -0.9903 -0.1393 -0.0000
vt 0.687500 0.937500
vt 0.687500 0.062500
vt 0.812500 0.937500
vt 0.562500 0.937500
vt 0.062500 0.312500
s 0
usemtl FN_Atlas
f 1/1/1 2/1/1 3/1/1 4/1/1
f 5/1/2 6/1/2 7/1/2 8/1/2
f 1/1/3 4/1/3 6/1/3 5/1/3
f 3/1/4 2/1/4 8/1/4 7/1/4
f 1/1/5 5/1/5 8/1/5 2/1/5
f 4/1/6 3/1/6 7/1/6 6/1/6
f 9/1/1 10/1/1 11/1/1 12/1/1
f 13/1/2 14/1/2 15/1/2 16/1/2
f 9/1/3 12/1/3 14/1/3 13/1/3
f 11/1/4 10/1/4 16/1/4 15/1/4
f 9/1/5 13/1/5 16/1/5 10/1/5
f 12/1/6 11/1/6 15/1/6 14/1/6
f 17/1/1 18/1/1 19/1/1 20/1/1
f 21/1/2 22/1/2 23/1/2 24/1/2
f 17/1/3 20/1/3 22/1/3 21/1/3
f 19/1/4 18/1/4 24/1/4 23/1/4
f 17/1/5 21/1/5 24/1/5 18/1/5
f 20/1/6 19/1/6 23/1/6 22/1/6
f 25/1/1 26/1/1 27/1/1 28/1/1
f 29/1/2 30/1/2 31/1/2 32/1/2
f 25/1/3 28/1/3 30/1/3 29/1/3
f 27/1/4 26/1/4 32/1/4 31/1/4
f 25/1/5 29/1/5 32/1/5 26/1/5
f 28/1/6 27/1/6 31/1/6 30/1/6
f 33/1/1 34/1/1 35/1/1 36/1/1
f 37/1/2 38/1/2 39/1/2 40/1/2
f 33/1/3 36/1/3 38/1/3 37/1/3
f 35/1/4 34/1/4 40/1/4 39/1/4
f 33/1/5 37/1/5 40/1/5 34/1/5
f 36/1/6 35/1/6 39/1/6 38/1/6
f 41/1/1 42/1/1 43/1/1 44/1/1
f 45/1/2 46/1/2 47/1/2 48/1/2
f 41/1/3 44/1/3 46/1/3 45/1/3
f 43/1/4 42/1/4 48/1/4 47/1/4
f 41/1/5 45/1/5 48/1/5 42/1/5
f 44/1/6 43/1/6 47/1/6 46/1/6
f 49/1/1 50/1/1 51/1/1 52/1/1
f 53/1/2 54/1/2 55/1/2 56/1/2
f 49/1/3 52/1/3 54/1/3 53/1/3
f 51/1/4 50/1/4 56/1/4 55/1/4
f 49/1/5 53/1/5 56/1/5 50/1/5
f 52/1/6 51/1/6 55/1/6 54/1/6
f 57/1/1 58/1/1 59/1/1 60/1/1
f 61/1/2 62/1/2 63/1/2 64/1/2
f 57/1/3 60/1/3 62/1/3 61/1/3
f 59/1/4 58/1/4 64/1/4 63/1/4
f 57/1/5 61/1/5 64/1/5 58/1/5
f 60/1/6 59/1/6 63/1/6 62/1/6
f 65/1/1 66/1/1 67/1/1 68/1/1
f 69/1/2 70/1/2 71/1/2 72/1/2
f 65/1/3 68/1/3 70/1/3 69/1/3
f 67/1/4 66/1/4 72/1/4 71/1/4
f 65/1/5 69/1/5 72/1/5 66/1/5
f 68/1/6 67/1/6 71/1/6 70/1/6
f 73/1/1 74/1/1 75/1/1 76/1/1
f 77/1/2 78/1/2 79/1/2 80/1/2
f 73/1/3 76/1/3 78/1/3 77/1/3
f 75/1/4 74/1/4 80/1/4 79/1/4
f 73/1/5 77/1/5 80/1/5 74/1/5
f 76/1/6 75/1/6 79/1/6 78/1/6
f 81/1/1 82/1/1 83/1/1 84/1/1
f 85/1/2 86/1/2 87/1/2 88/1/2
f 81/1/3 84/1/3 86/1/3 85/1/3
f 83/1/4 82/1/4 88/1/4 87/1/4
f 81/1/5 85/1/5 88/1/5 82/1/5
f 84/1/6 83/1/6 87/1/6 86/1/6
f 89/1/1 90/1/1 91/1/1 92/1/1
f 93/1/2 94/1/2 95/1/2 96/1/2
f 89/1/3 92/1/3 94/1/3 93/1/3
f 91/1/4 90/1/4 96/1/4 95/1/4
f 89/1/5 93/1/5 96/1/5 90/1/5
f 92/1/6 91/1/6 95/1/6 94/1/6
f 97/1/1 98/1/1 99/1/1 100/1/1
f 101/1/2 102/1/2 103/1/2 104/1/2
f 97/1/3 100/1/3 102/1/3 101/1/3
f 99/1/4 98/1/4 104/1/4 103/1/4
f 97/1/5 101/1/5 104/1/5 98/1/5
f 100/1/6 99/1/6 103/1/6 102/1/6
f 105/1/1 106/1/1 107/1/1 108/1/1
f 109/1/2 110/1/2 111/1/2 112/1/2
f 105/1/3 108/1/3 110/1/3 109/1/3
f 107/1/4 106/1/4 112/1/4 111/1/4
f 105/1/5 109/1/5 112/1/5 106/1/5
f 108/1/6 107/1/6 111/1/6 110/1/6
f 113/1/1 114/1/1 115/1/1 116/1/1
f 117/1/2 118/1/2 119/1/2 120/1/2
f 113/1/3 116/1/3 118/1/3 117/1/3
f 115/1/4 114/1/4 120/1/4 119/1/4
f 113/1/5 117/1/5 120/1/5 114/1/5
f 116/1/6 115/1/6 119/1/6 118/1/6
f 121/2/1 122/2/1 123/2/1 124/2/1
f 125/2/2 126/2/2 127/2/2 128/2/2
f 121/2/3 124/2/3 126/2/3 125/2/3
f 123/2/4 122/2/4 128/2/4 127/2/4
f 121/2/5 125/2/5 128/2/5 122/2/5
f 124/2/6 123/2/6 127/2/6 126/2/6
f 129/2/1 130/2/1 131/2/1 132/2/1
f 133/2/2 134/2/2 135/2/2 136/2/2
f 129/2/3 132/2/3 134/2/3 133/2/3
f 131/2/4 130/2/4 136/2/4 135/2/4
f 129/2/5 133/2/5 136/2/5 130/2/5
f 132/2/6 131/2/6 135/2/6 134/2/6
f 137/2/1 138/2/1 139/2/1 140/2/1
f 141/2/2 142/2/2 143/2/2 144/2/2
f 137/2/3 140/2/3 142/2/3 141/2/3
f 139/2/4 138/2/4 144/2/4 143/2/4
f 137/2/5 141/2/5 144/2/5 138/2/5
f 140/2/6 139/2/6 143/2/6 142/2/6
f 145/2/1 146/2/1 147/2/1 148/2/1
f 149/2/2 150/2/2 151/2/2 152/2/2
f 145/2/3 148/2/3 150/2/3 149/2/3
f 147/2/4 146/2/4 152/2/4 151/2/4
f 145/2/5 149/2/5 152/2/5 146/2/5
f 148/2/6 147/2/6 151/2/6 150/2/6
f 153/2/1 154/2/1 155/2/1 156/2/1
f 157/2/2 158/2/2 159/2/2 160/2/2
f 153/2/3 156/2/3 158/2/3 157/2/3
f 155/2/4 154/2/4 160/2/4 159/2/4
f 153/2/5 157/2/5 160/2/5 154/2/5
f 156/2/6 155/2/6 159/2/6 158/2/6
f 161/1/1 162/1/1 163/1/1 164/1/1
f 165/1/2 166/1/2 167/1/2 168/1/2
f 161/1/3 164/1/3 166/1/3 165/1/3
f 163/1/4 162/1/4 168/1/4 167/1/4
f 161/1/5 165/1/5 168/1/5 162/1/5
f 164/1/6 163/1/6 167/1/6 166/1/6
f 169/1/1 170/1/1 171/1/1 172/1/1
f 173/1/2 174/1/2 175/1/2 176/1/2
f 169/1/3 172/1/3 174/1/3 173/1/3
f 171/1/4 170/1/4 176/1/4 175/1/4
f 169/1/5 173/1/5 176/1/5 170/1/5
f 172/1/6 171/1/6 175/1/6 174/1/6
f 177/1/1 178/1/1 179/1/1 180/1/1
f 181/1/2 182/1/2 183/1/2 184/1/2
f 177/1/3 180/1/3 182/1/3 181/1/3
f 179/1/4 178/1/4 184/1/4 183/1/4
f 177/1/5 181/1/5 184/1/5 178/1/5
f 180/1/6 179/1/6 183/1/6 182/1/6
f 185/1/1 186/1/1 187/1/1 188/1/1
f 189/1/2 190/1/2 191/1/2 192/1/2
f 185/1/3 188/1/3 190/1/3 189/1/3
f 187/1/4 186/1/4 192/1/4 191/1/4
f 185/1/5 189/1/5 192/1/5 186/1/5
f 188/1/6 187/1/6 191/1/6 190/1/6
f 193/3/1 194/3/1 195/3/1 196/3/1
f 197/3/2 198/3/2 199/3/2 200/3/2
f 196/3/7 195/3/7 198/3/7 197/3/7
f 195/3/8 194/3/8 199/3/8 198/3/8
f 194/3/9 193/3/9 200/3/9 199/3/9
f 193/3/10 196/3/10 197/3/10 200/3/10
f 201/1/1 202/1/1 203/1/1 204/1/1
f 205/1/2 206/1/2 207/1/2 208/1/2
f 201/1/3 204/1/3 206/1/3 205/1/3
f 203/1/4 202/1/4 208/1/4 207/1/4
f 201/1/5 205/1/5 208/1/5 202/1/5
f 204/1/6 203/1/6 207/1/6 206/1/6
f 209/1/1 210/1/1 211/1/1 212/1/1
f 213/1/2 214/1/2 215/1/2 216/1/2
f 209/1/3 212/1/3 214/1/3 213/1/3
f 211/1/4 210/1/4 216/1/4 215/1/4
f 209/1/5 213/1/5 216/1/5 210/1/5
f 212/1/6 211/1/6 215/1/6 214/1/6
f 217/2/1 218/2/1 219/2/1 220/2/1
f 221/2/2 222/2/2 223/2/2 224/2/2
f 217/2/3 220/2/3 222/2/3 221/2/3
f 219/2/4 218/2/4 224/2/4 223/2/4
f 217/2/5 221/2/5 224/2/5 218/2/5
f 220/2/6 219/2/6 223/2/6 222/2/6
f 225/2/1 226/2/1 227/2/1 228/2/1
f 229/2/2 230/2/2 231/2/2 232/2/2
f 225/2/3 228/2/3 230/2/3 229/2/3
f 227/2/4 226/2/4 232/2/4 231/2/4
f 225/2/5 229/2/5 232/2/5 226/2/5
f 228/2/6 227/2/6 231/2/6 230/2/6
f 233/2/1 234/2/1 235/2/1 236/2/1
f 237/2/2 238/2/2 239/2/2 240/2/2
f 233/2/3 236/2/3 238/2/3 237/2/3
f 235/2/4 234/2/4 240/2/4 239/2/4
f 233/2/5 237/2/5 240/2/5 234/2/5
f 236/2/6 235/2/6 239/2/6 238/2/6
f 241/4/1 242/4/1 243/4/1 244/4/1
f 245/4/2 246/4/2 247/4/2 248/4/2
f 241/4/3 244/4/3 246/4/3 245/4/3
f 243/4/4 242/4/4 248/4/4 247/4/4
f 241/4/5 245/4/5 248/4/5 242/4/5
f 244/4/6 243/4/6 247/4/6 246/4/6
f 249/5/3 250/5/3 251/5/3 252/5/3
f 253/5/4 254/5/4 255/5/4 256/5/4
f 252/5/2 251/5/2 254/5/2 253/5/2
f 251/5/11 250/5/11 255/5/11 254/5/11
f 250/5/1 249/5/1 256/5/1 255/5/1
f 249/5/12 252/5/12 253/5/12 256/5/12
f 257/4/1 258/4/1 259/4/1 260/4/1
f 261/4/2 262/4/2 263/4/2 264/4/2
f 257/4/3 260/4/3 262/4/3 261/4/3
f 259/4/4 258/4/4 264/4/4 263/4/4
f 257/4/5 261/4/5 264/4/5 258/4/5
f 260/4/6 259/4/6 263/4/6 262/4/6
f 265/5/3 266/5/3 267/5/3 268/5/3
f 269/5/4 270/5/4 271/5/4 272/5/4
f 268/5/2 267/5/2 270/5/2 269/5/2
f 267/5/13 266/5/13 271/5/13 270/5/13
f 266/5/1 265/5/1 272/5/1 271/5/1
f 265/5/14 268/5/14 269/5/14 272/5/14
