# Blender 5.2.0 LTS
# www.blender.org
mtllib FN_Box_Garden.mtl
o FN_Box_Garden
v -0.545000 0.000000 0.230000
v -0.545000 0.000000 0.120000
v -0.395000 0.000000 0.120000
v -0.395000 0.000000 0.230000
v -0.545000 0.060000 0.230000
v -0.395000 0.060000 0.230000
v -0.395000 0.060000 0.120000
v -0.545000 0.060000 0.120000
v -0.545000 0.000000 -0.120000
v -0.545000 0.000000 -0.230000
v -0.395000 0.000000 -0.230000
v -0.395000 0.000000 -0.120000
v -0.545000 0.060000 -0.120000
v -0.395000 0.060000 -0.120000
v -0.395000 0.060000 -0.230000
v -0.545000 0.060000 -0.230000
v 0.395000 0.000000 0.230000
v 0.395000 0.000000 0.120000
v 0.545000 0.000000 0.120000
v 0.545000 0.000000 0.230000
v 0.395000 0.060000 0.230000
v 0.545000 0.060000 0.230000
v 0.545000 0.060000 0.120000
v 0.395000 0.060000 0.120000
v 0.395000 0.000000 -0.120000
v 0.395000 0.000000 -0.230000
v 0.545000 0.000000 -0.230000
v 0.545000 0.000000 -0.120000
v 0.395000 0.060000 -0.120000
v 0.545000 0.060000 -0.120000
v 0.545000 0.060000 -0.230000
v 0.395000 0.060000 -0.230000
v -0.560000 0.048000 0.245000
v -0.560000 0.048000 -0.245000
v 0.560000 0.048000 -0.245000
v 0.560000 0.048000 0.245000
v -0.560000 0.520000 0.245000
v 0.560000 0.520000 0.245000
v 0.560000 0.520000 -0.245000
v -0.560000 0.520000 -0.245000
v -0.510000 0.060000 0.259000
v -0.510000 0.060000 0.235000
v -0.450000 0.060000 0.235000
v -0.450000 0.060000 0.259000
v -0.510000 0.505000 0.259000
v -0.450000 0.505000 0.259000
v -0.450000 0.505000 0.235000
v -0.510000 0.505000 0.235000
v -0.350000 0.060000 0.259000
v -0.350000 0.060000 0.235000
v -0.290000 0.060000 0.235000
v -0.290000 0.060000 0.259000
v -0.350000 0.505000 0.259000
v -0.290000 0.505000 0.259000
v -0.290000 0.505000 0.235000
v -0.350000 0.505000 0.235000
v -0.190000 0.060000 0.259000
v -0.190000 0.060000 0.235000
v -0.130000 0.060000 0.235000
v -0.130000 0.060000 0.259000
v -0.190000 0.505000 0.259000
v -0.130000 0.505000 0.259000
v -0.130000 0.505000 0.235000
v -0.190000 0.505000 0.235000
v -0.030000 0.060000 0.259000
v -0.030000 0.060000 0.235000
v 0.030000 0.060000 0.235000
v 0.030000 0.060000 0.259000
v -0.030000 0.505000 0.259000
v 0.030000 0.505000 0.259000
v 0.030000 0.505000 0.235000
v -0.030000 0.505000 0.235000
v 0.130000 0.060000 0.259000
v 0.130000 0.060000 0.235000
v 0.190000 0.060000 0.235000
v 0.190000 0.060000 0.259000
v 0.130000 0.505000 0.259000
v 0.190000 0.505000 0.259000
v 0.190000 0.505000 0.235000
v 0.130000 0.505000 0.235000
v 0.290000 0.060000 0.259000
v 0.290000 0.060000 0.235000
v 0.350000 0.060000 0.235000
v 0.350000 0.060000 0.259000
v 0.290000 0.505000 0.259000
v 0.350000 0.505000 0.259000
v 0.350000 0.505000 0.235000
v 0.290000 0.505000 0.235000
v 0.450000 0.060000 0.259000
v 0.450000 0.060000 0.235000
v 0.510000 0.060000 0.235000
v 0.510000 0.060000 0.259000
v 0.450000 0.505000 0.259000
v 0.510000 0.505000 0.259000
v 0.510000 0.505000 0.235000
v 0.450000 0.505000 0.235000
v -0.510000 0.060000 -0.235000
v -0.510000 0.060000 -0.259000
v -0.450000 0.060000 -0.259000
v -0.450000 0.060000 -0.235000
v -0.510000 0.505000 -0.235000
v -0.450000 0.505000 -0.235000
v -0.450000 0.505000 -0.259000
v -0.510000 0.505000 -0.259000
v -0.350000 0.060000 -0.235000
v -0.350000 0.060000 -0.259000
v -0.290000 0.060000 -0.259000
v -0.290000 0.060000 -0.235000
v -0.350000 0.505000 -0.235000
v -0.290000 0.505000 -0.235000
v -0.290000 0.505000 -0.259000
v -0.350000 0.505000 -0.259000
v -0.190000 0.060000 -0.235000
v -0.190000 0.060000 -0.259000
v -0.130000 0.060000 -0.259000
v -0.130000 0.060000 -0.235000
v -0.190000 0.505000 -0.235000
v -0.130000 0.505000 -0.235000
v -0.130000 0.505000 -0.259000
v -0.190000 0.505000 -0.259000
v -0.030000 0.060000 -0.235000
v -0.030000 0.060000 -0.259000
v 0.030000 0.060000 -0.259000
v 0.030000 0.060000 -0.235000
v -0.030000 0.505000 -0.235000
v 0.030000 0.505000 -0.235000
v 0.030000 0.505000 -0.259000
v -0.030000 0.505000 -0.259000
v 0.130000 0.060000 -0.235000
v 0.130000 0.060000 -0.259000
v 0.190000 0.060000 -0.259000
v 0.190000 0.060000 -0.235000
v 0.130000 0.505000 -0.235000
v 0.190000 0.505000 -0.235000
v 0.190000 0.505000 -0.259000
v 0.130000 0.505000 -0.259000
v 0.290000 0.060000 -0.235000
v 0.290000 0.060000 -0.259000
v 0.350000 0.060000 -0.259000
v 0.350000 0.060000 -0.235000
v 0.290000 0.505000 -0.235000
v 0.350000 0.505000 -0.235000
v 0.350000 0.505000 -0.259000
v 0.290000 0.505000 -0.259000
v 0.450000 0.060000 -0.235000
v 0.450000 0.060000 -0.259000
v 0.510000 0.060000 -0.259000
v 0.510000 0.060000 -0.235000
v 0.450000 0.505000 -0.235000
v 0.510000 0.505000 -0.235000
v 0.510000 0.505000 -0.259000
v 0.450000 0.505000 -0.259000
v -0.588000 0.400000 0.104000
v -0.588000 0.400000 0.076000
v -0.548000 0.400000 0.076000
v -0.548000 0.400000 0.104000
v -0.588000 0.440000 0.104000
v -0.548000 0.440000 0.104000
v -0.548000 0.440000 0.076000
v -0.588000 0.440000 0.076000
v -0.588000 0.400000 -0.076000
v -0.588000 0.400000 -0.104000
v -0.548000 0.400000 -0.104000
v -0.548000 0.400000 -0.076000
v -0.588000 0.440000 -0.076000
v -0.548000 0.440000 -0.076000
v -0.548000 0.440000 -0.104000
v -0.588000 0.440000 -0.104000
v -0.594000 0.404000 0.115000
v -0.594000 0.404000 -0.115000
v -0.578000 0.404000 -0.115000
v -0.578000 0.404000 0.115000
v -0.594000 0.436000 0.115000
v -0.578000 0.436000 0.115000
v -0.578000 0.436000 -0.115000
v -0.594000 0.436000 -0.115000
v 0.548000 0.400000 0.104000
v 0.548000 0.400000 0.076000
v 0.588000 0.400000 0.076000
v 0.588000 0.400000 0.104000
v 0.548000 0.440000 0.104000
v 0.588000 0.440000 0.104000
v 0.588000 0.440000 0.076000
v 0.548000 0.440000 0.076000
v 0.548000 0.400000 -0.076000
v 0.548000 0.400000 -0.104000
v 0.588000 0.400000 -0.104000
v 0.588000 0.400000 -0.076000
v 0.548000 0.440000 -0.076000
v 0.588000 0.440000 -0.076000
v 0.588000 0.440000 -0.104000
v 0.548000 0.440000 -0.104000
v 0.578000 0.404000 0.115000
v 0.578000 0.404000 -0.115000
v 0.594000 0.404000 -0.115000
v 0.594000 0.404000 0.115000
v 0.578000 0.436000 0.115000
v 0.594000 0.436000 0.115000
v 0.594000 0.436000 -0.115000
v 0.578000 0.436000 -0.115000
v -0.582000 0.505000 0.267000
v -0.582000 0.505000 -0.267000
v 0.582000 0.505000 -0.267000
v 0.582000 0.505000 0.267000
v -0.582000 0.545000 0.267000
v 0.582000 0.545000 0.267000
v 0.582000 0.545000 -0.267000
v -0.582000 0.545000 -0.267000
v -0.560000 0.539000 0.245000
v -0.560000 0.539000 -0.245000
v 0.560000 0.539000 -0.245000
v 0.560000 0.539000 0.245000
v -0.560000 0.578000 0.245000
v 0.560000 0.578000 0.245000
v 0.560000 0.578000 -0.245000
v -0.560000 0.578000 -0.245000
vn -0.0000 -1.0000 -0.0000
vn -0.0000 1.0000 -0.0000
vn -0.0000 -0.0000 1.0000
vn -0.0000 -0.0000 -1.0000
vn -1.0000 -0.0000 -0.0000
vn 1.0000 -0.0000 -0.0000
vt 0.687500 0.312500
vt 0.062500 0.312500
vt 0.687500 0.062500
s 0
usemtl FN_Atlas
f 1/1/1 2/1/1 3/1/1 4/1/1
f 5/1/2 6/1/2 7/1/2 8/1/2
f 1/1/3 4/1/3 6/1/3 5/1/3
f 3/1/4 2/1/4 8/1/4 7/1/4
f 1/1/5 5/1/5 8/1/5 2/1/5
f 4/1/6 3/1/6 7/1/6 6/1/6
f 9/1/1 10/1/1 11/1/1 12/1/1
f 13/1/2 14/1/2 15/1/2 16/1/2
f 9/1/3 12/1/3 14/1/3 13/1/3
f 11/1/4 10/1/4 16/1/4 15/1/4
f 9/1/5 13/1/5 16/1/5 10/1/5
f 12/1/6 11/1/6 15/1/6 14/1/6
f 17/1/1 18/1/1 19/1/1 20/1/1
f 21/1/2 22/1/2 23/1/2 24/1/2
f 17/1/3 20/1/3 22/1/3 21/1/3
f 19/1/4 18/1/4 24/1/4 23/1/4
f 17/1/5 21/1/5 24/1/5 18/1/5
f 20/1/6 19/1/6 23/1/6 22/1/6
f 25/1/1 26/1/1 27/1/1 28/1/1
f 29/1/2 30/1/2 31/1/2 32/1/2
f 25/1/3 28/1/3 30/1/3 29/1/3
f 27/1/4 26/1/4 32/1/4 31/1/4
f 25/1/5 29/1/5 32/1/5 26/1/5
f 28/1/6 27/1/6 31/1/6 30/1/6
f 33/1/1 34/1/1 35/1/1 36/1/1
f 37/1/2 38/1/2 39/1/2 40/1/2
f 33/1/3 36/1/3 38/1/3 37/1/3
f 35/1/4 34/1/4 40/1/4 39/1/4
f 33/1/5 37/1/5 40/1/5 34/1/5
f 36/1/6 35/1/6 39/1/6 38/1/6
f 41/1/1 42/1/1 43/1/1 44/1/1
f 45/1/2 46/1/2 47/1/2 48/1/2
f 41/1/3 44/1/3 46/1/3 45/1/3
f 43/1/4 42/1/4 48/1/4 47/1/4
f 41/1/5 45/1/5 48/1/5 42/1/5
f 44/1/6 43/1/6 47/1/6 46/1/6
f 49/1/1 50/1/1 51/1/1 52/1/1
f 53/1/2 54/1/2 55/1/2 56/1/2
f 49/1/3 52/1/3 54/1/3 53/1/3
f 51/1/4 50/1/4 56/1/4 55/1/4
f 49/1/5 53/1/5 56/1/5 50/1/5
f 52/1/6 51/1/6 55/1/6 54/1/6
f 57/1/1 58/1/1 59/1/1 60/1/1
f 61/1/2 62/1/2 63/1/2 64/1/2
f 57/1/3 60/1/3 62/1/3 61/1/3
f 59/1/4 58/1/4 64/1/4 63/1/4
f 57/1/5 61/1/5 64/1/5 58/1/5
f 60/1/6 59/1/6 63/1/6 62/1/6
f 65/1/1 66/1/1 67/1/1 68/1/1
f 69/1/2 70/1/2 71/1/2 72/1/2
f 65/1/3 68/1/3 70/1/3 69/1/3
f 67/1/4 66/1/4 72/1/4 71/1/4
f 65/1/5 69/1/5 72/1/5 66/1/5
f 68/1/6 67/1/6 71/1/6 70/1/6
f 73/1/1 74/1/1 75/1/1 76/1/1
f 77/1/2 78/1/2 79/1/2 80/1/2
f 73/1/3 76/1/3 78/1/3 77/1/3
f 75/1/4 74/1/4 80/1/4 79/1/4
f 73/1/5 77/1/5 80/1/5 74/1/5
f 76/1/6 75/1/6 79/1/6 78/1/6
f 81/1/1 82/1/1 83/1/1 84/1/1
f 85/1/2 86/1/2 87/1/2 88/1/2
f 81/1/3 84/1/3 86/1/3 85/1/3
f 83/1/4 82/1/4 88/1/4 87/1/4
f 81/1/5 85/1/5 88/1/5 82/1/5
f 84/1/6 83/1/6 87/1/6 86/1/6
f 89/1/1 90/1/1 91/1/1 92/1/1
f 93/1/2 94/1/2 95/1/2 96/1/2
f 89/1/3 92/1/3 94/1/3 93/1/3
f 91/1/4 90/1/4 96/1/4 95/1/4
f 89/1/5 93/1/5 96/1/5 90/1/5
f 92/1/6 91/1/6 95/1/6 94/1/6
f 97/1/1 98/1/1 99/1/1 100/1/1
f 101/1/2 102/1/2 103/1/2 104/1/2
f 97/1/3 100/1/3 102/1/3 101/1/3
f 99/1/4 98/1/4 104/1/4 103/1/4
f 97/1/5 101/1/5 104/1/5 98/1/5
f 100/1/6 99/1/6 103/1/6 102/1/6
f 105/1/1 106/1/1 107/1/1 108/1/1
f 109/1/2 110/1/2 111/1/2 112/1/2
f 105/1/3 108/1/3 110/1/3 109/1/3
f 107/1/4 106/1/4 112/1/4 111/1/4
f 105/1/5 109/1/5 112/1/5 106/1/5
f 108/1/6 107/1/6 111/1/6 110/1/6
f 113/1/1 114/1/1 115/1/1 116/1/1
f 117/1/2 118/1/2 119/1/2 120/1/2
f 113/1/3 116/1/3 118/1/3 117/1/3
f 115/1/4 114/1/4 120/1/4 119/1/4
f 113/1/5 117/1/5 120/1/5 114/1/5
f 116/1/6 115/1/6 119/1/6 118/1/6
f 121/1/1 122/1/1 123/1/1 124/1/1
f 125/1/2 126/1/2 127/1/2 128/1/2
f 121/1/3 124/1/3 126/1/3 125/1/3
f 123/1/4 122/1/4 128/1/4 127/1/4
f 121/1/5 125/1/5 128/1/5 122/1/5
f 124/1/6 123/1/6 127/1/6 126/1/6
f 129/1/1 130/1/1 131/1/1 132/1/1
f 133/1/2 134/1/2 135/1/2 136/1/2
f 129/1/3 132/1/3 134/1/3 133/1/3
f 131/1/4 130/1/4 136/1/4 135/1/4
f 129/1/5 133/1/5 136/1/5 130/1/5
f 132/1/6 131/1/6 135/1/6 134/1/6
f 137/1/1 138/1/1 139/1/1 140/1/1
f 141/1/2 142/1/2 143/1/2 144/1/2
f 137/1/3 140/1/3 142/1/3 141/1/3
f 139/1/4 138/1/4 144/1/4 143/1/4
f 137/1/5 141/1/5 144/1/5 138/1/5
f 140/1/6 139/1/6 143/1/6 142/1/6
f 145/1/1 146/1/1 147/1/1 148/1/1
f 149/1/2 150/1/2 151/1/2 152/1/2
f 145/1/3 148/1/3 150/1/3 149/1/3
f 147/1/4 146/1/4 152/1/4 151/1/4
f 145/1/5 149/1/5 152/1/5 146/1/5
f 148/1/6 147/1/6 151/1/6 150/1/6
f 153/2/1 154/2/1 155/2/1 156/2/1
f 157/2/2 158/2/2 159/2/2 160/2/2
f 153/2/3 156/2/3 158/2/3 157/2/3
f 155/2/4 154/2/4 160/2/4 159/2/4
f 153/2/5 157/2/5 160/2/5 154/2/5
f 156/2/6 155/2/6 159/2/6 158/2/6
f 161/2/1 162/2/1 163/2/1 164/2/1
f 165/2/2 166/2/2 167/2/2 168/2/2
f 161/2/3 164/2/3 166/2/3 165/2/3
f 163/2/4 162/2/4 168/2/4 167/2/4
f 161/2/5 165/2/5 168/2/5 162/2/5
f 164/2/6 163/2/6 167/2/6 166/2/6
f 169/2/1 170/2/1 171/2/1 172/2/1
f 173/2/2 174/2/2 175/2/2 176/2/2
f 169/2/3 172/2/3 174/2/3 173/2/3
f 171/2/4 170/2/4 176/2/4 175/2/4
f 169/2/5 173/2/5 176/2/5 170/2/5
f 172/2/6 171/2/6 175/2/6 174/2/6
f 177/2/1 178/2/1 179/2/1 180/2/1
f 181/2/2 182/2/2 183/2/2 184/2/2
f 177/2/3 180/2/3 182/2/3 181/2/3
f 179/2/4 178/2/4 184/2/4 183/2/4
f 177/2/5 181/2/5 184/2/5 178/2/5
f 180/2/6 179/2/6 183/2/6 182/2/6
f 185/2/1 186/2/1 187/2/1 188/2/1
f 189/2/2 190/2/2 191/2/2 192/2/2
f 185/2/3 188/2/3 190/2/3 189/2/3
f 187/2/4 186/2/4 192/2/4 191/2/4
f 185/2/5 189/2/5 192/2/5 186/2/5
f 188/2/6 187/2/6 191/2/6 190/2/6
f 193/2/1 194/2/1 195/2/1 196/2/1
f 197/2/2 198/2/2 199/2/2 200/2/2
f 193/2/3 196/2/3 198/2/3 197/2/3
f 195/2/4 194/2/4 200/2/4 199/2/4
f 193/2/5 197/2/5 200/2/5 194/2/5
f 196/2/6 195/2/6 199/2/6 198/2/6
f 201/3/1 202/3/1 203/3/1 204/3/1
f 205/3/2 206/3/2 207/3/2 208/3/2
f 201/3/3 204/3/3 206/3/3 205/3/3
f 203/3/4 202/3/4 208/3/4 207/3/4
f 201/3/5 205/3/5 208/3/5 202/3/5
f 204/3/6 203/3/6 207/3/6 206/3/6
f 209/3/1 210/3/1 211/3/1 212/3/1
f 213/3/2 214/3/2 215/3/2 216/3/2
f 209/3/3 212/3/3 214/3/3 213/3/3
f 211/3/4 210/3/4 216/3/4 215/3/4
f 209/3/5 213/3/5 216/3/5 210/3/5
f 212/3/6 211/3/6 215/3/6 214/3/6
