# Blender 5.2.0 LTS
# www.blender.org
mtllib FN_Cabinet_Bedside.mtl
o FN_Cabinet_Bedside
v -0.208000 0.000000 0.136000
v -0.184000 0.000000 0.136000
v -0.184000 0.000000 0.160000
v -0.208000 0.000000 0.160000
v -0.216000 0.202000 0.168000
v -0.176000 0.202000 0.168000
v -0.176000 0.202000 0.128000
v -0.216000 0.202000 0.128000
v -0.208000 0.000000 -0.196000
v -0.184000 0.000000 -0.196000
v -0.184000 0.000000 -0.172000
v -0.208000 0.000000 -0.172000
v -0.216000 0.202000 -0.164000
v -0.176000 0.202000 -0.164000
v -0.176000 0.202000 -0.204000
v -0.216000 0.202000 -0.204000
v 0.184000 0.000000 0.136000
v 0.208000 0.000000 0.136000
v 0.208000 0.000000 0.160000
v 0.184000 0.000000 0.160000
v 0.176000 0.202000 0.168000
v 0.216000 0.202000 0.168000
v 0.216000 0.202000 0.128000
v 0.176000 0.202000 0.128000
v 0.184000 0.000000 -0.196000
v 0.208000 0.000000 -0.196000
v 0.208000 0.000000 -0.172000
v 0.184000 0.000000 -0.172000
v 0.176000 0.202000 -0.164000
v 0.216000 0.202000 -0.164000
v 0.216000 0.202000 -0.204000
v 0.176000 0.202000 -0.204000
v -0.215000 0.190000 0.172000
v -0.215000 0.190000 -0.208000
v -0.190000 0.190000 -0.208000
v -0.190000 0.190000 0.172000
v -0.215000 0.520000 0.172000
v -0.190000 0.520000 0.172000
v -0.190000 0.520000 -0.208000
v -0.215000 0.520000 -0.208000
v 0.190000 0.190000 0.172000
v 0.190000 0.190000 -0.208000
v 0.215000 0.190000 -0.208000
v 0.215000 0.190000 0.172000
v 0.190000 0.520000 0.172000
v 0.215000 0.520000 0.172000
v 0.215000 0.520000 -0.208000
v 0.190000 0.520000 -0.208000
v -0.202000 0.196000 -0.178000
v -0.202000 0.196000 -0.202000
v 0.202000 0.196000 -0.202000
v 0.202000 0.196000 -0.178000
v -0.202000 0.514000 -0.178000
v 0.202000 0.514000 -0.178000
v 0.202000 0.514000 -0.202000
v -0.202000 0.514000 -0.202000
v -0.202000 0.196000 0.166000
v -0.202000 0.196000 -0.196000
v 0.202000 0.196000 -0.196000
v 0.202000 0.196000 0.166000
v -0.202000 0.218000 0.166000
v 0.202000 0.218000 0.166000
v 0.202000 0.218000 -0.196000
v -0.202000 0.218000 -0.196000
v -0.202000 0.320000 0.166000
v -0.202000 0.320000 -0.196000
v 0.202000 0.320000 -0.196000
v 0.202000 0.320000 0.166000
v -0.202000 0.340000 0.166000
v 0.202000 0.340000 0.166000
v 0.202000 0.340000 -0.196000
v -0.202000 0.340000 -0.196000
v -0.225000 0.514000 0.182000
v -0.225000 0.514000 -0.218000
v 0.225000 0.514000 -0.218000
v 0.225000 0.514000 0.182000
v -0.225000 0.550000 0.182000
v 0.225000 0.550000 0.182000
v 0.225000 0.550000 -0.218000
v -0.225000 0.550000 -0.218000
v -0.208000 0.346000 0.194000
v -0.208000 0.346000 0.168000
v 0.208000 0.346000 0.168000
v 0.208000 0.346000 0.194000
v -0.208000 0.508000 0.194000
v 0.208000 0.508000 0.194000
v 0.208000 0.508000 0.168000
v -0.208000 0.508000 0.168000
v -0.075000 0.412000 0.218000
v -0.075000 0.412000 0.188000
v 0.075000 0.412000 0.188000
v 0.075000 0.412000 0.218000
v -0.075000 0.432000 0.218000
v 0.075000 0.432000 0.218000
v 0.075000 0.432000 0.188000
v -0.075000 0.432000 0.188000
vn -0.0000 -1.0000 -0.0000
vn -0.0000 1.0000 -0.0000
vn -0.0000 -0.0396 0.9992
vn 0.9992 -0.0396 -0.0000
vn -0.0000 -0.0396 -0.9992
vn -0.9992 -0.0396 -0.0000
vn -0.0000 -0.0000 1.0000
vn -0.0000 -0.0000 -1.0000
vn -1.0000 -0.0000 -0.0000
vn 1.0000 -0.0000 -0.0000
vt 0.687500 0.937500
vt 0.437500 0.812500
vt 0.937500 0.687500
vt 0.812500 0.312500
s 0
usemtl FN_Atlas
f 1/1/1 2/1/1 3/1/1 4/1/1
f 5/1/2 6/1/2 7/1/2 8/1/2
f 4/1/3 3/1/3 6/1/3 5/1/3
f 3/1/4 2/1/4 7/1/4 6/1/4
f 2/1/5 1/1/5 8/1/5 7/1/5
f 1/1/6 4/1/6 5/1/6 8/1/6
f 9/1/1 10/1/1 11/1/1 12/1/1
f 13/1/2 14/1/2 15/1/2 16/1/2
f 12/1/3 11/1/3 14/1/3 13/1/3
f 11/1/4 10/1/4 15/1/4 14/1/4
f 10/1/5 9/1/5 16/1/5 15/1/5
f 9/1/6 12/1/6 13/1/6 16/1/6
f 17/1/1 18/1/1 19/1/1 20/1/1
f 21/1/2 22/1/2 23/1/2 24/1/2
f 20/1/3 19/1/3 22/1/3 21/1/3
f 19/1/4 18/1/4 23/1/4 22/1/4
f 18/1/5 17/1/5 24/1/5 23/1/5
f 17/1/6 20/1/6 21/1/6 24/1/6
f 25/1/1 26/1/1 27/1/1 28/1/1
f 29/1/2 30/1/2 31/1/2 32/1/2
f 28/1/3 27/1/3 30/1/3 29/1/3
f 27/1/4 26/1/4 31/1/4 30/1/4
f 26/1/5 25/1/5 32/1/5 31/1/5
f 25/1/6 28/1/6 29/1/6 32/1/6
f 33/2/1 34/2/1 35/2/1 36/2/1
f 37/2/2 38/2/2 39/2/2 40/2/2
f 33/2/7 36/2/7 38/2/7 37/2/7
f 35/2/8 34/2/8 40/2/8 39/2/8
f 33/2/9 37/2/9 40/2/9 34/2/9
f 36/3/10 35/3/10 39/3/10 38/3/10
f 41/2/1 42/2/1 43/2/1 44/2/1
f 45/2/2 46/2/2 47/2/2 48/2/2
f 41/2/7 44/2/7 46/2/7 45/2/7
f 43/2/8 42/2/8 48/2/8 47/2/8
f 41/3/9 45/3/9 48/3/9 42/3/9
f 44/2/10 43/2/10 47/2/10 46/2/10
f 49/2/1 50/2/1 51/2/1 52/2/1
f 53/2/2 54/2/2 55/2/2 56/2/2
f 49/3/7 52/3/7 54/3/7 53/3/7
f 51/2/8 50/2/8 56/2/8 55/2/8
f 49/2/9 53/2/9 56/2/9 50/2/9
f 52/2/10 51/2/10 55/2/10 54/2/10
f 57/2/1 58/2/1 59/2/1 60/2/1
f 61/3/2 62/3/2 63/3/2 64/3/2
f 57/2/7 60/2/7 62/2/7 61/2/7
f 59/2/8 58/2/8 64/2/8 63/2/8
f 57/2/9 61/2/9 64/2/9 58/2/9
f 60/2/10 59/2/10 63/2/10 62/2/10
f 65/3/1 66/3/1 67/3/1 68/3/1
f 69/2/2 70/2/2 71/2/2 72/2/2
f 65/2/7 68/2/7 70/2/7 69/2/7
f 67/2/8 66/2/8 72/2/8 71/2/8
f 65/2/9 69/2/9 72/2/9 66/2/9
f 68/2/10 67/2/10 71/2/10 70/2/10
f 73/1/1 74/1/1 75/1/1 76/1/1
f 77/1/2 78/1/2 79/1/2 80/1/2
f 73/1/7 76/1/7 78/1/7 77/1/7
f 75/1/8 74/1/8 80/1/8 79/1/8
f 73/1/9 77/1/9 80/1/9 74/1/9
f 76/1/10 75/1/10 79/1/10 78/1/10
f 81/2/1 82/2/1 83/2/1 84/2/1
f 85/2/2 86/2/2 87/2/2 88/2/2
f 81/2/7 84/2/7 86/2/7 85/2/7
f 83/2/8 82/2/8 88/2/8 87/2/8
f 81/2/9 85/2/9 88/2/9 82/2/9
f 84/2/10 83/2/10 87/2/10 86/2/10
f 89/4/1 90/4/1 91/4/1 92/4/1
f 93/4/2 94/4/2 95/4/2 96/4/2
f 89/4/7 92/4/7 94/4/7 93/4/7
f 91/4/8 90/4/8 96/4/8 95/4/8
f 89/4/9 93/4/9 96/4/9 90/4/9
f 92/4/10 91/4/10 95/4/10 94/4/10
