# Blender 5.2.0 LTS
# www.blender.org
mtllib FN_Crate_Pet.mtl
o FN_Crate_Pet
v -0.380000 0.000000 0.050810
v -0.380000 0.000000 -0.449190
v 0.380000 0.000000 -0.449190
v 0.380000 0.000000 0.050810
v -0.380000 0.062000 0.050810
v 0.380000 0.062000 0.050810
v 0.380000 0.062000 -0.449190
v -0.380000 0.062000 -0.449190
v -0.380000 0.050000 0.050810
v -0.380000 0.050000 0.038810
v -0.368000 0.050000 0.038810
v -0.368000 0.050000 0.050810
v -0.380000 0.550000 0.050810
v -0.368000 0.550000 0.050810
v -0.368000 0.550000 0.038810
v -0.380000 0.550000 0.038810
v -0.380000 0.050000 -0.437190
v -0.380000 0.050000 -0.449190
v -0.368000 0.050000 -0.449190
v -0.368000 0.050000 -0.437190
v -0.380000 0.550000 -0.437190
v -0.368000 0.550000 -0.437190
v -0.368000 0.550000 -0.449190
v -0.380000 0.550000 -0.449190
v 0.368000 0.050000 0.050810
v 0.368000 0.050000 0.038810
v 0.380000 0.050000 0.038810
v 0.380000 0.050000 0.050810
v 0.368000 0.550000 0.050810
v 0.380000 0.550000 0.050810
v 0.380000 0.550000 0.038810
v 0.368000 0.550000 0.038810
v 0.368000 0.050000 -0.437190
v 0.368000 0.050000 -0.449190
v 0.380000 0.050000 -0.449190
v 0.380000 0.050000 -0.437190
v 0.368000 0.550000 -0.437190
v 0.380000 0.550000 -0.437190
v 0.380000 0.550000 -0.449190
v 0.368000 0.550000 -0.449190
v -0.374000 0.050000 0.050810
v -0.374000 0.050000 0.038810
v 0.374000 0.050000 0.038810
v 0.374000 0.050000 0.050810
v -0.374000 0.062000 0.050810
v 0.374000 0.062000 0.050810
v 0.374000 0.062000 0.038810
v -0.374000 0.062000 0.038810
v -0.374000 0.050000 -0.437190
v -0.374000 0.050000 -0.449190
v 0.374000 0.050000 -0.449190
v 0.374000 0.050000 -0.437190
v -0.374000 0.062000 -0.437190
v 0.374000 0.062000 -0.437190
v 0.374000 0.062000 -0.449190
v -0.374000 0.062000 -0.449190
v -0.380000 0.050000 0.044810
v -0.380000 0.050000 -0.443190
v -0.368000 0.050000 -0.443190
v -0.368000 0.050000 0.044810
v -0.380000 0.062000 0.044810
v -0.368000 0.062000 0.044810
v -0.368000 0.062000 -0.443190
v -0.380000 0.062000 -0.443190
v 0.368000 0.050000 0.044810
v 0.368000 0.050000 -0.443190
v 0.380000 0.050000 -0.443190
v 0.380000 0.050000 0.044810
v 0.368000 0.062000 0.044810
v 0.380000 0.062000 0.044810
v 0.380000 0.062000 -0.443190
v 0.368000 0.062000 -0.443190
v -0.374000 0.538000 0.050810
v -0.374000 0.538000 0.038810
v 0.374000 0.538000 0.038810
v 0.374000 0.538000 0.050810
v -0.374000 0.550000 0.050810
v 0.374000 0.550000 0.050810
v 0.374000 0.550000 0.038810
v -0.374000 0.550000 0.038810
v -0.374000 0.538000 -0.437190
v -0.374000 0.538000 -0.449190
v 0.374000 0.538000 -0.449190
v 0.374000 0.538000 -0.437190
v -0.374000 0.550000 -0.437190
v 0.374000 0.550000 -0.437190
v 0.374000 0.550000 -0.449190
v -0.374000 0.550000 -0.449190
v -0.380000 0.538000 0.044810
v -0.380000 0.538000 -0.443190
v -0.368000 0.538000 -0.443190
v -0.368000 0.538000 0.044810
v -0.380000 0.550000 0.044810
v -0.368000 0.550000 0.044810
v -0.368000 0.550000 -0.443190
v -0.380000 0.550000 -0.443190
v 0.368000 0.538000 0.044810
v 0.368000 0.538000 -0.443190
v 0.380000 0.538000 -0.443190
v 0.380000 0.538000 0.044810
v 0.368000 0.550000 0.044810
v 0.380000 0.550000 0.044810
v 0.380000 0.550000 -0.443190
v 0.368000 0.550000 -0.443190
v -0.334000 0.056000 -0.439190
v -0.334000 0.056000 -0.447190
v -0.326000 0.056000 -0.447190
v -0.326000 0.056000 -0.439190
v -0.334000 0.544000 -0.439190
v -0.326000 0.544000 -0.439190
v -0.326000 0.544000 -0.447190
v -0.334000 0.544000 -0.447190
v -0.252000 0.056000 -0.439190
v -0.252000 0.056000 -0.447190
v -0.244000 0.056000 -0.447190
v -0.244000 0.056000 -0.439190
v -0.252000 0.544000 -0.439190
v -0.244000 0.544000 -0.439190
v -0.244000 0.544000 -0.447190
v -0.252000 0.544000 -0.447190
v -0.169000 0.056000 -0.439190
v -0.169000 0.056000 -0.447190
v -0.161000 0.056000 -0.447190
v -0.161000 0.056000 -0.439190
v -0.169000 0.544000 -0.439190
v -0.161000 0.544000 -0.439190
v -0.161000 0.544000 -0.447190
v -0.169000 0.544000 -0.447190
v -0.087000 0.056000 -0.439190
v -0.087000 0.056000 -0.447190
v -0.079000 0.056000 -0.447190
v -0.079000 0.056000 -0.439190
v -0.087000 0.544000 -0.439190
v -0.079000 0.544000 -0.439190
v -0.079000 0.544000 -0.447190
v -0.087000 0.544000 -0.447190
v -0.004000 0.056000 -0.439190
v -0.004000 0.056000 -0.447190
v 0.004000 0.056000 -0.447190
v 0.004000 0.056000 -0.439190
v -0.004000 0.544000 -0.439190
v 0.004000 0.544000 -0.439190
v 0.004000 0.544000 -0.447190
v -0.004000 0.544000 -0.447190
v 0.079000 0.056000 -0.439190
v 0.079000 0.056000 -0.447190
v 0.087000 0.056000 -0.447190
v 0.087000 0.056000 -0.439190
v 0.079000 0.544000 -0.439190
v 0.087000 0.544000 -0.439190
v 0.087000 0.544000 -0.447190
v 0.079000 0.544000 -0.447190
v 0.161000 0.056000 -0.439190
v 0.161000 0.056000 -0.447190
v 0.169000 0.056000 -0.447190
v 0.169000 0.056000 -0.439190
v 0.161000 0.544000 -0.439190
v 0.169000 0.544000 -0.439190
v 0.169000 0.544000 -0.447190
v 0.161000 0.544000 -0.447190
v 0.244000 0.056000 -0.439190
v 0.244000 0.056000 -0.447190
v 0.252000 0.056000 -0.447190
v 0.252000 0.056000 -0.439190
v 0.244000 0.544000 -0.439190
v 0.252000 0.544000 -0.439190
v 0.252000 0.544000 -0.447190
v 0.244000 0.544000 -0.447190
v 0.326000 0.056000 -0.439190
v 0.326000 0.056000 -0.447190
v 0.334000 0.056000 -0.447190
v 0.334000 0.056000 -0.439190
v 0.326000 0.544000 -0.439190
v 0.334000 0.544000 -0.439190
v 0.334000 0.544000 -0.447190
v 0.326000 0.544000 -0.447190
v -0.334000 0.056000 0.048810
v -0.334000 0.056000 0.040810
v -0.326000 0.056000 0.040810
v -0.326000 0.056000 0.048810
v -0.334000 0.544000 0.048810
v -0.326000 0.544000 0.048810
v -0.326000 0.544000 0.040810
v -0.334000 0.544000 0.040810
v -0.252000 0.056000 0.048810
v -0.252000 0.056000 0.040810
v -0.244000 0.056000 0.040810
v -0.244000 0.056000 0.048810
v -0.252000 0.544000 0.048810
v -0.244000 0.544000 0.048810
v -0.244000 0.544000 0.040810
v -0.252000 0.544000 0.040810
v 0.244000 0.056000 0.048810
v 0.244000 0.056000 0.040810
v 0.252000 0.056000 0.040810
v 0.252000 0.056000 0.048810
v 0.244000 0.544000 0.048810
v 0.252000 0.544000 0.048810
v 0.252000 0.544000 0.040810
v 0.244000 0.544000 0.040810
v 0.326000 0.056000 0.048810
v 0.326000 0.056000 0.040810
v 0.334000 0.056000 0.040810
v 0.334000 0.056000 0.048810
v 0.326000 0.544000 0.048810
v 0.334000 0.544000 0.048810
v 0.334000 0.544000 0.040810
v 0.326000 0.544000 0.040810
v -0.378000 0.056000 -0.032190
v -0.378000 0.056000 -0.040190
v -0.370000 0.056000 -0.040190
v -0.370000 0.056000 -0.032190
v -0.378000 0.544000 -0.032190
v -0.370000 0.544000 -0.032190
v -0.370000 0.544000 -0.040190
v -0.378000 0.544000 -0.040190
v -0.378000 0.056000 -0.114190
v -0.378000 0.056000 -0.122190
v -0.370000 0.056000 -0.122190
v -0.370000 0.056000 -0.114190
v -0.378000 0.544000 -0.114190
v -0.370000 0.544000 -0.114190
v -0.370000 0.544000 -0.122190
v -0.378000 0.544000 -0.122190
v -0.378000 0.056000 -0.195190
v -0.378000 0.056000 -0.203190
v -0.370000 0.056000 -0.203190
v -0.370000 0.056000 -0.195190
v -0.378000 0.544000 -0.195190
v -0.370000 0.544000 -0.195190
v -0.370000 0.544000 -0.203190
v -0.378000 0.544000 -0.203190
v -0.378000 0.056000 -0.276190
v -0.378000 0.056000 -0.284190
v -0.370000 0.056000 -0.284190
v -0.370000 0.056000 -0.276190
v -0.378000 0.544000 -0.276190
v -0.370000 0.544000 -0.276190
v -0.370000 0.544000 -0.284190
v -0.378000 0.544000 -0.284190
v -0.378000 0.056000 -0.358190
v -0.378000 0.056000 -0.366190
v -0.370000 0.056000 -0.366190
v -0.370000 0.056000 -0.358190
v -0.378000 0.544000 -0.358190
v -0.370000 0.544000 -0.358190
v -0.370000 0.544000 -0.366190
v -0.378000 0.544000 -0.366190
v 0.370000 0.056000 -0.032190
v 0.370000 0.056000 -0.040190
v 0.378000 0.056000 -0.040190
v 0.378000 0.056000 -0.032190
v 0.370000 0.544000 -0.032190
v 0.378000 0.544000 -0.032190
v 0.378000 0.544000 -0.040190
v 0.370000 0.544000 -0.040190
v 0.370000 0.056000 -0.114190
v 0.370000 0.056000 -0.122190
v 0.378000 0.056000 -0.122190
v 0.378000 0.056000 -0.114190
v 0.370000 0.544000 -0.114190
v 0.378000 0.544000 -0.114190
v 0.378000 0.544000 -0.122190
v 0.370000 0.544000 -0.122190
v 0.370000 0.056000 -0.195190
v 0.370000 0.056000 -0.203190
v 0.378000 0.056000 -0.203190
v 0.378000 0.056000 -0.195190
v 0.370000 0.544000 -0.195190
v 0.378000 0.544000 -0.195190
v 0.378000 0.544000 -0.203190
v 0.370000 0.544000 -0.203190
v 0.370000 0.056000 -0.276190
v 0.370000 0.056000 -0.284190
v 0.378000 0.056000 -0.284190
v 0.378000 0.056000 -0.276190
v 0.370000 0.544000 -0.276190
v 0.378000 0.544000 -0.276190
v 0.378000 0.544000 -0.284190
v 0.370000 0.544000 -0.284190
v 0.370000 0.056000 -0.358190
v 0.370000 0.056000 -0.366190
v 0.378000 0.056000 -0.366190
v 0.378000 0.056000 -0.358190
v 0.370000 0.544000 -0.358190
v 0.378000 0.544000 -0.358190
v 0.378000 0.544000 -0.366190
v 0.370000 0.544000 -0.366190
v -0.209000 0.056000 0.051810
v -0.209000 0.056000 0.037810
v -0.195000 0.056000 0.037810
v -0.195000 0.056000 0.051810
v -0.209000 0.544000 0.051810
v -0.195000 0.544000 0.051810
v -0.195000 0.544000 0.037810
v -0.209000 0.544000 0.037810
v 0.195000 0.056000 0.051810
v 0.195000 0.056000 0.037810
v 0.209000 0.056000 0.037810
v 0.209000 0.056000 0.051810
v 0.195000 0.544000 0.051810
v 0.209000 0.544000 0.051810
v 0.209000 0.544000 0.037810
v 0.195000 0.544000 0.037810
v -0.254000 0.538000 0.044810
v -0.254000 0.538000 -0.443190
v -0.246000 0.538000 -0.443190
v -0.246000 0.538000 0.044810
v -0.254000 0.550000 0.044810
v -0.246000 0.550000 0.044810
v -0.246000 0.550000 -0.443190
v -0.254000 0.550000 -0.443190
v -0.129000 0.538000 0.044810
v -0.129000 0.538000 -0.443190
v -0.121000 0.538000 -0.443190
v -0.121000 0.538000 0.044810
v -0.129000 0.550000 0.044810
v -0.121000 0.550000 0.044810
v -0.121000 0.550000 -0.443190
v -0.129000 0.550000 -0.443190
v -0.004000 0.538000 0.044810
v -0.004000 0.538000 -0.443190
v 0.004000 0.538000 -0.443190
v 0.004000 0.538000 0.044810
v -0.004000 0.550000 0.044810
v 0.004000 0.550000 0.044810
v 0.004000 0.550000 -0.443190
v -0.004000 0.550000 -0.443190
v 0.121000 0.538000 0.044810
v 0.121000 0.538000 -0.443190
v 0.129000 0.538000 -0.443190
v 0.129000 0.538000 0.044810
v 0.121000 0.550000 0.044810
v 0.129000 0.550000 0.044810
v 0.129000 0.550000 -0.443190
v 0.121000 0.550000 -0.443190
v 0.246000 0.538000 0.044810
v 0.246000 0.538000 -0.443190
v 0.254000 0.538000 -0.443190
v 0.254000 0.538000 0.044810
v 0.246000 0.550000 0.044810
v 0.254000 0.550000 0.044810
v 0.254000 0.550000 -0.443190
v 0.246000 0.550000 -0.443190
v 0.190046 0.070000 0.045856
v 0.191266 0.070000 0.059803
v 0.203220 0.070000 0.058757
v 0.202000 0.070000 0.044810
v 0.202000 0.530000 0.044810
v 0.203220 0.530000 0.058757
v 0.191266 0.530000 0.059803
v 0.190046 0.530000 0.045856
v 0.222991 0.070000 0.422417
v 0.224211 0.070000 0.436364
v 0.236165 0.070000 0.435318
v 0.234945 0.070000 0.421372
v 0.234945 0.530000 0.421372
v 0.236165 0.530000 0.435318
v 0.224211 0.530000 0.436364
v 0.222991 0.530000 0.422417
v 0.192735 0.078000 0.053651
v 0.225506 0.078000 0.428220
v 0.233475 0.078000 0.427523
v 0.200705 0.078000 0.052954
v 0.200705 0.094000 0.052954
v 0.233475 0.094000 0.427523
v 0.225506 0.094000 0.428220
v 0.192735 0.094000 0.053651
v 0.192735 0.506000 0.053651
v 0.225506 0.506000 0.428220
v 0.233475 0.506000 0.427523
v 0.200705 0.506000 0.052954
v 0.200705 0.522000 0.052954
v 0.233475 0.522000 0.427523
v 0.225506 0.522000 0.428220
v 0.192735 0.522000 0.053651
v 0.199484 0.084000 0.119313
v 0.200181 0.084000 0.127282
v 0.206158 0.084000 0.126759
v 0.205461 0.084000 0.118790
v 0.205461 0.516000 0.118790
v 0.206158 0.516000 0.126759
v 0.200181 0.516000 0.127282
v 0.199484 0.516000 0.119313
v 0.204887 0.084000 0.181077
v 0.205585 0.084000 0.189046
v 0.211562 0.084000 0.188523
v 0.210865 0.084000 0.180554
v 0.210865 0.516000 0.180554
v 0.211562 0.516000 0.188523
v 0.205585 0.516000 0.189046
v 0.204887 0.516000 0.181077
v 0.209768 0.084000 0.236864
v 0.210465 0.084000 0.244833
v 0.216443 0.084000 0.244310
v 0.215745 0.084000 0.236341
v 0.215745 0.516000 0.236341
v 0.216443 0.516000 0.244310
v 0.210465 0.516000 0.244833
v 0.209768 0.516000 0.236864
v 0.214649 0.084000 0.292651
v 0.215346 0.084000 0.300620
v 0.221323 0.084000 0.300097
v 0.220626 0.084000 0.292128
v 0.220626 0.516000 0.292128
v 0.221323 0.516000 0.300097
v 0.215346 0.516000 0.300620
v 0.214649 0.516000 0.292651
v 0.220053 0.084000 0.354415
v 0.220750 0.084000 0.362384
v 0.226727 0.084000 0.361861
v 0.226030 0.084000 0.353892
v 0.226030 0.516000 0.353892
v 0.226727 0.516000 0.361861
v 0.220750 0.516000 0.362384
v 0.220053 0.516000 0.354415
v 0.207500 0.140000 0.054336
v 0.196500 0.140000 0.054336
v 0.191000 0.140000 0.044810
v 0.196500 0.140000 0.035284
v 0.207500 0.140000 0.035284
v 0.213000 0.140000 0.044810
v 0.213000 0.196000 0.044810
v 0.207500 0.196000 0.035284
v 0.196500 0.196000 0.035284
v 0.191000 0.196000 0.044810
v 0.196500 0.196000 0.054336
v 0.207500 0.196000 0.054336
v 0.207500 0.404000 0.054336
v 0.196500 0.404000 0.054336
v 0.191000 0.404000 0.044810
v 0.196500 0.404000 0.035284
v 0.207500 0.404000 0.035284
v 0.213000 0.404000 0.044810
v 0.213000 0.460000 0.044810
v 0.207500 0.460000 0.035284
v 0.196500 0.460000 0.035284
v 0.191000 0.460000 0.044810
v 0.196500 0.460000 0.054336
v 0.207500 0.460000 0.054336
v 0.212157 0.272000 0.413327
v 0.215295 0.272000 0.449190
v 0.247173 0.272000 0.446401
v 0.244035 0.272000 0.410538
v 0.244035 0.328000 0.410538
v 0.247173 0.328000 0.446401
v 0.215295 0.328000 0.449190
v 0.212157 0.328000 0.413327
vn -0.0000 -1.0000 -0.0000
vn -0.0000 1.0000 -0.0000
vn -0.0000 -0.0000 1.0000
vn -0.0000 -0.0000 -1.0000
vn -1.0000 -0.0000 -0.0000
vn 1.0000 -0.0000 -0.0000
vn -0.9962 -0.0000 0.0872
vn -0.0872 -0.0000 -0.9962
vn 0.9962 -0.0000 -0.0872
vn 0.0872 -0.0000 0.9962
vn -0.0871 -0.0000 -0.9962
vn 0.8660 -0.0000 -0.5000
vn -0.8660 -0.0000 -0.5000
vn -0.8660 -0.0000 0.5000
vn 0.8660 -0.0000 0.5000
vt 0.687500 0.062500
vt 0.812500 0.312500
vt 0.062500 0.312500
s 0
usemtl FN_Atlas
f 1/1/1 2/1/1 3/1/1 4/1/1
f 5/1/2 6/1/2 7/1/2 8/1/2
f 1/1/3 4/1/3 6/1/3 5/1/3
f 3/1/4 2/1/4 8/1/4 7/1/4
f 1/1/5 5/1/5 8/1/5 2/1/5
f 4/1/6 3/1/6 7/1/6 6/1/6
f 9/2/1 10/2/1 11/2/1 12/2/1
f 13/2/2 14/2/2 15/2/2 16/2/2
f 9/2/3 12/2/3 14/2/3 13/2/3
f 11/2/4 10/2/4 16/2/4 15/2/4
f 9/2/5 13/2/5 16/2/5 10/2/5
f 12/2/6 11/2/6 15/2/6 14/2/6
f 17/2/1 18/2/1 19/2/1 20/2/1
f 21/2/2 22/2/2 23/2/2 24/2/2
f 17/2/3 20/2/3 22/2/3 21/2/3
f 19/2/4 18/2/4 24/2/4 23/2/4
f 17/2/5 21/2/5 24/2/5 18/2/5
f 20/2/6 19/2/6 23/2/6 22/2/6
f 25/2/1 26/2/1 27/2/1 28/2/1
f 29/2/2 30/2/2 31/2/2 32/2/2
f 25/2/3 28/2/3 30/2/3 29/2/3
f 27/2/4 26/2/4 32/2/4 31/2/4
f 25/2/5 29/2/5 32/2/5 26/2/5
f 28/2/6 27/2/6 31/2/6 30/2/6
f 33/2/1 34/2/1 35/2/1 36/2/1
f 37/2/2 38/2/2 39/2/2 40/2/2
f 33/2/3 36/2/3 38/2/3 37/2/3
f 35/2/4 34/2/4 40/2/4 39/2/4
f 33/2/5 37/2/5 40/2/5 34/2/5
f 36/2/6 35/2/6 39/2/6 38/2/6
f 41/2/1 42/2/1 43/2/1 44/2/1
f 45/2/2 46/2/2 47/2/2 48/2/2
f 41/2/3 44/2/3 46/2/3 45/2/3
f 43/2/4 42/2/4 48/2/4 47/2/4
f 41/2/5 45/2/5 48/2/5 42/2/5
f 44/2/6 43/2/6 47/2/6 46/2/6
f 49/2/1 50/2/1 51/2/1 52/2/1
f 53/2/2 54/2/2 55/2/2 56/2/2
f 49/2/3 52/2/3 54/2/3 53/2/3
f 51/2/4 50/2/4 56/2/4 55/2/4
f 49/2/5 53/2/5 56/2/5 50/2/5
f 52/2/6 51/2/6 55/2/6 54/2/6
f 57/2/1 58/2/1 59/2/1 60/2/1
f 61/2/2 62/2/2 63/2/2 64/2/2
f 57/2/3 60/2/3 62/2/3 61/2/3
f 59/2/4 58/2/4 64/2/4 63/2/4
f 57/2/5 61/2/5 64/2/5 58/2/5
f 60/2/6 59/2/6 63/2/6 62/2/6
f 65/2/1 66/2/1 67/2/1 68/2/1
f 69/2/2 70/2/2 71/2/2 72/2/2
f 65/2/3 68/2/3 70/2/3 69/2/3
f 67/2/4 66/2/4 72/2/4 71/2/4
f 65/2/5 69/2/5 72/2/5 66/2/5
f 68/2/6 67/2/6 71/2/6 70/2/6
f 73/2/1 74/2/1 75/2/1 76/2/1
f 77/2/2 78/2/2 79/2/2 80/2/2
f 73/2/3 76/2/3 78/2/3 77/2/3
f 75/2/4 74/2/4 80/2/4 79/2/4
f 73/2/5 77/2/5 80/2/5 74/2/5
f 76/2/6 75/2/6 79/2/6 78/2/6
f 81/2/1 82/2/1 83/2/1 84/2/1
f 85/2/2 86/2/2 87/2/2 88/2/2
f 81/2/3 84/2/3 86/2/3 85/2/3
f 83/2/4 82/2/4 88/2/4 87/2/4
f 81/2/5 85/2/5 88/2/5 82/2/5
f 84/2/6 83/2/6 87/2/6 86/2/6
f 89/2/1 90/2/1 91/2/1 92/2/1
f 93/2/2 94/2/2 95/2/2 96/2/2
f 89/2/3 92/2/3 94/2/3 93/2/3
f 91/2/4 90/2/4 96/2/4 95/2/4
f 89/2/5 93/2/5 96/2/5 90/2/5
f 92/2/6 91/2/6 95/2/6 94/2/6
f 97/2/1 98/2/1 99/2/1 100/2/1
f 101/2/2 102/2/2 103/2/2 104/2/2
f 97/2/3 100/2/3 102/2/3 101/2/3
f 99/2/4 98/2/4 104/2/4 103/2/4
f 97/2/5 101/2/5 104/2/5 98/2/5
f 100/2/6 99/2/6 103/2/6 102/2/6
f 105/2/1 106/2/1 107/2/1 108/2/1
f 109/2/2 110/2/2 111/2/2 112/2/2
f 105/2/3 108/2/3 110/2/3 109/2/3
f 107/2/4 106/2/4 112/2/4 111/2/4
f 105/2/5 109/2/5 112/2/5 106/2/5
f 108/2/6 107/2/6 111/2/6 110/2/6
f 113/2/1 114/2/1 115/2/1 116/2/1
f 117/2/2 118/2/2 119/2/2 120/2/2
f 113/2/3 116/2/3 118/2/3 117/2/3
f 115/2/4 114/2/4 120/2/4 119/2/4
f 113/2/5 117/2/5 120/2/5 114/2/5
f 116/2/6 115/2/6 119/2/6 118/2/6
f 121/2/1 122/2/1 123/2/1 124/2/1
f 125/2/2 126/2/2 127/2/2 128/2/2
f 121/2/3 124/2/3 126/2/3 125/2/3
f 123/2/4 122/2/4 128/2/4 127/2/4
f 121/2/5 125/2/5 128/2/5 122/2/5
f 124/2/6 123/2/6 127/2/6 126/2/6
f 129/2/1 130/2/1 131/2/1 132/2/1
f 133/2/2 134/2/2 135/2/2 136/2/2
f 129/2/3 132/2/3 134/2/3 133/2/3
f 131/2/4 130/2/4 136/2/4 135/2/4
f 129/2/5 133/2/5 136/2/5 130/2/5
f 132/2/6 131/2/6 135/2/6 134/2/6
f 137/2/1 138/2/1 139/2/1 140/2/1
f 141/2/2 142/2/2 143/2/2 144/2/2
f 137/2/3 140/2/3 142/2/3 141/2/3
f 139/2/4 138/2/4 144/2/4 143/2/4
f 137/2/5 141/2/5 144/2/5 138/2/5
f 140/2/6 139/2/6 143/2/6 142/2/6
f 145/2/1 146/2/1 147/2/1 148/2/1
f 149/2/2 150/2/2 151/2/2 152/2/2
f 145/2/3 148/2/3 150/2/3 149/2/3
f 147/2/4 146/2/4 152/2/4 151/2/4
f 145/2/5 149/2/5 152/2/5 146/2/5
f 148/2/6 147/2/6 151/2/6 150/2/6
f 153/2/1 154/2/1 155/2/1 156/2/1
f 157/2/2 158/2/2 159/2/2 160/2/2
f 153/2/3 156/2/3 158/2/3 157/2/3
f 155/2/4 154/2/4 160/2/4 159/2/4
f 153/2/5 157/2/5 160/2/5 154/2/5
f 156/2/6 155/2/6 159/2/6 158/2/6
f 161/2/1 162/2/1 163/2/1 164/2/1
f 165/2/2 166/2/2 167/2/2 168/2/2
f 161/2/3 164/2/3 166/2/3 165/2/3
f 163/2/4 162/2/4 168/2/4 167/2/4
f 161/2/5 165/2/5 168/2/5 162/2/5
f 164/2/6 163/2/6 167/2/6 166/2/6
f 169/2/1 170/2/1 171/2/1 172/2/1
f 173/2/2 174/2/2 175/2/2 176/2/2
f 169/2/3 172/2/3 174/2/3 173/2/3
f 171/2/4 170/2/4 176/2/4 175/2/4
f 169/2/5 173/2/5 176/2/5 170/2/5
f 172/2/6 171/2/6 175/2/6 174/2/6
f 177/2/1 178/2/1 179/2/1 180/2/1
f 181/2/2 182/2/2 183/2/2 184/2/2
f 177/2/3 180/2/3 182/2/3 181/2/3
f 179/2/4 178/2/4 184/2/4 183/2/4
f 177/2/5 181/2/5 184/2/5 178/2/5
f 180/2/6 179/2/6 183/2/6 182/2/6
f 185/2/1 186/2/1 187/2/1 188/2/1
f 189/2/2 190/2/2 191/2/2 192/2/2
f 185/2/3 188/2/3 190/2/3 189/2/3
f 187/2/4 186/2/4 192/2/4 191/2/4
f 185/2/5 189/2/5 192/2/5 186/2/5
f 188/2/6 187/2/6 191/2/6 190/2/6
f 193/2/1 194/2/1 195/2/1 196/2/1
f 197/2/2 198/2/2 199/2/2 200/2/2
f 193/2/3 196/2/3 198/2/3 197/2/3
f 195/2/4 194/2/4 200/2/4 199/2/4
f 193/2/5 197/2/5 200/2/5 194/2/5
f 196/2/6 195/2/6 199/2/6 198/2/6
f 201/2/1 202/2/1 203/2/1 204/2/1
f 205/2/2 206/2/2 207/2/2 208/2/2
f 201/2/3 204/2/3 206/2/3 205/2/3
f 203/2/4 202/2/4 208/2/4 207/2/4
f 201/2/5 205/2/5 208/2/5 202/2/5
f 204/2/6 203/2/6 207/2/6 206/2/6
f 209/2/1 210/2/1 211/2/1 212/2/1
f 213/2/2 214/2/2 215/2/2 216/2/2
f 209/2/3 212/2/3 214/2/3 213/2/3
f 211/2/4 210/2/4 216/2/4 215/2/4
f 209/2/5 213/2/5 216/2/5 210/2/5
f 212/2/6 211/2/6 215/2/6 214/2/6
f 217/2/1 218/2/1 219/2/1 220/2/1
f 221/2/2 222/2/2 223/2/2 224/2/2
f 217/2/3 220/2/3 222/2/3 221/2/3
f 219/2/4 218/2/4 224/2/4 223/2/4
f 217/2/5 221/2/5 224/2/5 218/2/5
f 220/2/6 219/2/6 223/2/6 222/2/6
f 225/2/1 226/2/1 227/2/1 228/2/1
f 229/2/2 230/2/2 231/2/2 232/2/2
f 225/2/3 228/2/3 230/2/3 229/2/3
f 227/2/4 226/2/4 232/2/4 231/2/4
f 225/2/5 229/2/5 232/2/5 226/2/5
f 228/2/6 227/2/6 231/2/6 230/2/6
f 233/2/1 234/2/1 235/2/1 236/2/1
f 237/2/2 238/2/2 239/2/2 240/2/2
f 233/2/3 236/2/3 238/2/3 237/2/3
f 235/2/4 234/2/4 240/2/4 239/2/4
f 233/2/5 237/2/5 240/2/5 234/2/5
f 236/2/6 235/2/6 239/2/6 238/2/6
f 241/2/1 242/2/1 243/2/1 244/2/1
f 245/2/2 246/2/2 247/2/2 248/2/2
f 241/2/3 244/2/3 246/2/3 245/2/3
f 243/2/4 242/2/4 248/2/4 247/2/4
f 241/2/5 245/2/5 248/2/5 242/2/5
f 244/2/6 243/2/6 247/2/6 246/2/6
f 249/2/1 250/2/1 251/2/1 252/2/1
f 253/2/2 254/2/2 255/2/2 256/2/2
f 249/2/3 252/2/3 254/2/3 253/2/3
f 251/2/4 250/2/4 256/2/4 255/2/4
f 249/2/5 253/2/5 256/2/5 250/2/5
f 252/2/6 251/2/6 255/2/6 254/2/6
f 257/2/1 258/2/1 259/2/1 260/2/1
f 261/2/2 262/2/2 263/2/2 264/2/2
f 257/2/3 260/2/3 262/2/3 261/2/3
f 259/2/4 258/2/4 264/2/4 263/2/4
f 257/2/5 261/2/5 264/2/5 258/2/5
f 260/2/6 259/2/6 263/2/6 262/2/6
f 265/2/1 266/2/1 267/2/1 268/2/1
f 269/2/2 270/2/2 271/2/2 272/2/2
f 265/2/3 268/2/3 270/2/3 269/2/3
f 267/2/4 266/2/4 272/2/4 271/2/4
f 265/2/5 269/2/5 272/2/5 266/2/5
f 268/2/6 267/2/6 271/2/6 270/2/6
f 273/2/1 274/2/1 275/2/1 276/2/1
f 277/2/2 278/2/2 279/2/2 280/2/2
f 273/2/3 276/2/3 278/2/3 277/2/3
f 275/2/4 274/2/4 280/2/4 279/2/4
f 273/2/5 277/2/5 280/2/5 274/2/5
f 276/2/6 275/2/6 279/2/6 278/2/6
f 281/2/1 282/2/1 283/2/1 284/2/1
f 285/2/2 286/2/2 287/2/2 288/2/2
f 281/2/3 284/2/3 286/2/3 285/2/3
f 283/2/4 282/2/4 288/2/4 287/2/4
f 281/2/5 285/2/5 288/2/5 282/2/5
f 284/2/6 283/2/6 287/2/6 286/2/6
f 289/2/1 290/2/1 291/2/1 292/2/1
f 293/2/2 294/2/2 295/2/2 296/2/2
f 289/2/3 292/2/3 294/2/3 293/2/3
f 291/2/4 290/2/4 296/2/4 295/2/4
f 289/2/5 293/2/5 296/2/5 290/2/5
f 292/2/6 291/2/6 295/2/6 294/2/6
f 297/2/1 298/2/1 299/2/1 300/2/1
f 301/2/2 302/2/2 303/2/2 304/2/2
f 297/2/3 300/2/3 302/2/3 301/2/3
f 299/2/4 298/2/4 304/2/4 303/2/4
f 297/2/5 301/2/5 304/2/5 298/2/5
f 300/2/6 299/2/6 303/2/6 302/2/6
f 305/2/1 306/2/1 307/2/1 308/2/1
f 309/2/2 310/2/2 311/2/2 312/2/2
f 305/2/3 308/2/3 310/2/3 309/2/3
f 307/2/4 306/2/4 312/2/4 311/2/4
f 305/2/5 309/2/5 312/2/5 306/2/5
f 308/2/6 307/2/6 311/2/6 310/2/6
f 313/2/1 314/2/1 315/2/1 316/2/1
f 317/2/2 318/2/2 319/2/2 320/2/2
f 313/2/3 316/2/3 318/2/3 317/2/3
f 315/2/4 314/2/4 320/2/4 319/2/4
f 313/2/5 317/2/5 320/2/5 314/2/5
f 316/2/6 315/2/6 319/2/6 318/2/6
f 321/2/1 322/2/1 323/2/1 324/2/1
f 325/2/2 326/2/2 327/2/2 328/2/2
f 321/2/3 324/2/3 326/2/3 325/2/3
f 323/2/4 322/2/4 328/2/4 327/2/4
f 321/2/5 325/2/5 328/2/5 322/2/5
f 324/2/6 323/2/6 327/2/6 326/2/6
f 329/2/1 330/2/1 331/2/1 332/2/1
f 333/2/2 334/2/2 335/2/2 336/2/2
f 329/2/3 332/2/3 334/2/3 333/2/3
f 331/2/4 330/2/4 336/2/4 335/2/4
f 329/2/5 333/2/5 336/2/5 330/2/5
f 332/2/6 331/2/6 335/2/6 334/2/6
f 337/2/1 338/2/1 339/2/1 340/2/1
f 341/2/2 342/2/2 343/2/2 344/2/2
f 337/2/3 340/2/3 342/2/3 341/2/3
f 339/2/4 338/2/4 344/2/4 343/2/4
f 337/2/5 341/2/5 344/2/5 338/2/5
f 340/2/6 339/2/6 343/2/6 342/2/6
f 345/2/2 346/2/2 347/2/2 348/2/2
f 349/2/1 350/2/1 351/2/1 352/2/1
f 348/2/7 347/2/7 350/2/7 349/2/7
f 347/2/8 346/2/8 351/2/8 350/2/8
f 346/2/9 345/2/9 352/2/9 351/2/9
f 345/2/10 348/2/10 349/2/10 352/2/10
f 353/2/2 354/2/2 355/2/2 356/2/2
f 357/2/1 358/2/1 359/2/1 360/2/1
f 356/2/7 355/2/7 358/2/7 357/2/7
f 355/2/8 354/2/8 359/2/8 358/2/8
f 354/2/9 353/2/9 360/2/9 359/2/9
f 353/2/10 356/2/10 357/2/10 360/2/10
f 361/2/2 362/2/2 363/2/2 364/2/2
f 365/2/1 366/2/1 367/2/1 368/2/1
f 364/2/7 363/2/7 366/2/7 365/2/7
f 363/2/11 362/2/11 367/2/11 366/2/11
f 362/2/9 361/2/9 368/2/9 367/2/9
f 361/2/10 364/2/10 365/2/10 368/2/10
f 369/2/2 370/2/2 371/2/2 372/2/2
f 373/2/1 374/2/1 375/2/1 376/2/1
f 372/2/7 371/2/7 374/2/7 373/2/7
f 371/2/11 370/2/11 375/2/11 374/2/11
f 370/2/9 369/2/9 376/2/9 375/2/9
f 369/2/10 372/2/10 373/2/10 376/2/10
f 377/2/2 378/2/2 379/2/2 380/2/2
f 381/2/1 382/2/1 383/2/1 384/2/1
f 380/2/7 379/2/7 382/2/7 381/2/7
f 379/2/8 378/2/8 383/2/8 382/2/8
f 378/2/9 377/2/9 384/2/9 383/2/9
f 377/2/10 380/2/10 381/2/10 384/2/10
f 385/2/2 386/2/2 387/2/2 388/2/2
f 389/2/1 390/2/1 391/2/1 392/2/1
f 388/2/7 387/2/7 390/2/7 389/2/7
f 387/2/8 386/2/8 391/2/8 390/2/8
f 386/2/9 385/2/9 392/2/9 391/2/9
f 385/2/10 388/2/10 389/2/10 392/2/10
f 393/2/2 394/2/2 395/2/2 396/2/2
f 397/2/1 398/2/1 399/2/1 400/2/1
f 396/2/7 395/2/7 398/2/7 397/2/7
f 395/2/8 394/2/8 399/2/8 398/2/8
f 394/2/9 393/2/9 400/2/9 399/2/9
f 393/2/10 396/2/10 397/2/10 400/2/10
f 401/2/2 402/2/2 403/2/2 404/2/2
f 405/2/1 406/2/1 407/2/1 408/2/1
f 404/2/7 403/2/7 406/2/7 405/2/7
f 403/2/8 402/2/8 407/2/8 406/2/8
f 402/2/9 401/2/9 408/2/9 407/2/9
f 401/2/10 404/2/10 405/2/10 408/2/10
f 409/2/2 410/2/2 411/2/2 412/2/2
f 413/2/1 414/2/1 415/2/1 416/2/1
f 412/2/7 411/2/7 414/2/7 413/2/7
f 411/2/8 410/2/8 415/2/8 414/2/8
f 410/2/9 409/2/9 416/2/9 415/2/9
f 409/2/10 412/2/10 413/2/10 416/2/10
f 417/3/1 418/3/1 419/3/1 420/3/1 421/3/1 422/3/1
f 423/3/2 424/3/2 425/3/2 426/3/2 427/3/2 428/3/2
f 422/3/12 421/3/12 424/3/12 423/3/12
f 421/3/4 420/3/4 425/3/4 424/3/4
f 420/3/13 419/3/13 426/3/13 425/3/13
f 419/3/14 418/3/14 427/3/14 426/3/14
f 418/3/3 417/3/3 428/3/3 427/3/3
f 417/3/15 422/3/15 423/3/15 428/3/15
f 429/3/1 430/3/1 431/3/1 432/3/1 433/3/1 434/3/1
f 435/3/2 436/3/2 437/3/2 438/3/2 439/3/2 440/3/2
f 434/3/12 433/3/12 436/3/12 435/3/12
f 433/3/4 432/3/4 437/3/4 436/3/4
f 432/3/13 431/3/13 438/3/13 437/3/13
f 431/3/14 430/3/14 439/3/14 438/3/14
f 430/3/3 429/3/3 440/3/3 439/3/3
f 429/3/15 434/3/15 435/3/15 440/3/15
f 441/3/2 442/3/2 443/3/2 444/3/2
f 445/3/1 446/3/1 447/3/1 448/3/1
f 444/3/7 443/3/7 446/3/7 445/3/7
f 443/3/8 442/3/8 447/3/8 446/3/8
f 442/3/9 441/3/9 448/3/9 447/3/9
f 441/3/10 444/3/10 445/3/10 448/3/10
