# Blender 5.2.0 LTS
# www.blender.org
mtllib FN_Chair_Cafe.mtl
o FN_Chair_Cafe
v 0.190319 0.412000 0.078833
v 0.145664 0.412000 0.145664
v 0.078833 0.412000 0.190319
v -0.000000 0.412000 0.206000
v -0.078833 0.412000 0.190319
v -0.145664 0.412000 0.145664
v -0.190319 0.412000 0.078833
v -0.206000 0.412000 -0.000000
v -0.190319 0.412000 -0.078833
v -0.145664 0.412000 -0.145664
v -0.078833 0.412000 -0.190319
v 0.000000 0.412000 -0.206000
v 0.078833 0.412000 -0.190319
v 0.145664 0.412000 -0.145664
v 0.190319 0.412000 -0.078833
v 0.206000 0.412000 0.000000
v 0.196786 0.419000 -0.081512
v 0.213000 0.419000 0.000000
v 0.150614 0.419000 -0.150614
v 0.081512 0.419000 -0.196786
v 0.000000 0.419000 -0.213000
v -0.081512 0.419000 -0.196786
v -0.150614 0.419000 -0.150614
v -0.196786 0.419000 -0.081512
v -0.213000 0.419000 -0.000000
v -0.196786 0.419000 0.081512
v -0.150614 0.419000 0.150614
v -0.081512 0.419000 0.196786
v -0.000000 0.419000 0.213000
v 0.081512 0.419000 0.196786
v 0.150614 0.419000 0.150614
v 0.196786 0.419000 0.081512
v 0.196786 0.443000 -0.081512
v 0.213000 0.443000 0.000000
v 0.150614 0.443000 -0.150614
v 0.081512 0.443000 -0.196786
v 0.000000 0.443000 -0.213000
v -0.081512 0.443000 -0.196786
v -0.150614 0.443000 -0.150614
v -0.196786 0.443000 -0.081512
v -0.213000 0.443000 -0.000000
v -0.196786 0.443000 0.081512
v -0.150614 0.443000 0.150614
v -0.081512 0.443000 0.196786
v -0.000000 0.443000 0.213000
v 0.081512 0.443000 0.196786
v 0.150614 0.443000 0.150614
v 0.196786 0.443000 0.081512
v 0.206000 0.450000 0.000000
v 0.190319 0.450000 -0.078833
v 0.145664 0.450000 -0.145664
v 0.078833 0.450000 -0.190319
v 0.000000 0.450000 -0.206000
v -0.078833 0.450000 -0.190319
v -0.145664 0.450000 -0.145664
v -0.190319 0.450000 -0.078833
v -0.206000 0.450000 -0.000000
v -0.190319 0.450000 0.078833
v -0.145664 0.450000 0.145664
v -0.078833 0.450000 0.190319
v -0.000000 0.450000 0.206000
v 0.078833 0.450000 0.190319
v 0.145664 0.450000 0.145664
v 0.190319 0.450000 0.078833
v 0.159831 0.436000 0.066204
v 0.122329 0.436000 0.122329
v 0.066204 0.436000 0.159831
v -0.000000 0.436000 0.173000
v -0.066204 0.436000 0.159831
v -0.122329 0.436000 0.122329
v -0.159831 0.436000 0.066204
v -0.173000 0.436000 -0.000000
v -0.159831 0.436000 -0.066204
v -0.122329 0.436000 -0.122329
v -0.066204 0.436000 -0.159831
v 0.000000 0.436000 -0.173000
v 0.066204 0.436000 -0.159831
v 0.122329 0.436000 -0.122329
v 0.159831 0.436000 -0.066204
v 0.173000 0.436000 0.000000
v 0.162603 0.439000 -0.067352
v 0.176000 0.439000 0.000000
v 0.124451 0.439000 -0.124451
v 0.067352 0.439000 -0.162603
v 0.000000 0.439000 -0.176000
v -0.067352 0.439000 -0.162603
v -0.124451 0.439000 -0.124451
v -0.162603 0.439000 -0.067352
v -0.176000 0.439000 -0.000000
v -0.162603 0.439000 0.067352
v -0.124451 0.439000 0.124451
v -0.067352 0.439000 0.162603
v -0.000000 0.439000 0.176000
v 0.067352 0.439000 0.162603
v 0.124451 0.439000 0.124451
v 0.162603 0.439000 0.067352
v 0.162603 0.443000 -0.067352
v 0.176000 0.443000 0.000000
v 0.124451 0.443000 -0.124451
v 0.067352 0.443000 -0.162603
v 0.000000 0.443000 -0.176000
v -0.067352 0.443000 -0.162603
v -0.124451 0.443000 -0.124451
v -0.162603 0.443000 -0.067352
v -0.176000 0.443000 -0.000000
v -0.162603 0.443000 0.067352
v -0.124451 0.443000 0.124451
v -0.067352 0.443000 0.162603
v -0.000000 0.443000 0.176000
v 0.067352 0.443000 0.162603
v 0.124451 0.443000 0.124451
v 0.162603 0.443000 0.067352
v 0.173000 0.446000 0.000000
v 0.159831 0.446000 -0.066204
v 0.122329 0.446000 -0.122329
v 0.066204 0.446000 -0.159831
v 0.000000 0.446000 -0.173000
v -0.066204 0.446000 -0.159831
v -0.122329 0.446000 -0.122329
v -0.159831 0.446000 -0.066204
v -0.173000 0.446000 -0.000000
v -0.159831 0.446000 0.066204
v -0.122329 0.446000 0.122329
v -0.066204 0.446000 0.159831
v -0.000000 0.446000 0.173000
v 0.066204 0.446000 0.159831
v 0.122329 0.446000 0.122329
v 0.159831 0.446000 0.066204
v -0.138329 0.428708 0.114806
v -0.158180 0.431141 0.114806
v -0.167852 0.434432 0.132000
v -0.157671 0.435292 0.149194
v -0.137820 0.432859 0.149194
v -0.128148 0.429568 0.132000
v -0.188138 0.006969 0.187027
v -0.195355 0.009717 0.199886
v -0.210217 0.011748 0.199859
v -0.217862 0.011031 0.186973
v -0.210644 0.008283 0.174114
v -0.195783 0.006252 0.174141
v -0.163837 0.230796 0.171789
v -0.155396 0.227746 0.156766
v -0.181191 0.233051 0.171773
v -0.190104 0.232254 0.156734
v -0.181663 0.229204 0.141711
v -0.164309 0.226949 0.141727
v -0.194500 0.000000 0.201722
v -0.211500 0.000000 0.201722
v -0.220000 0.000000 0.187000
v -0.211500 0.000000 0.172278
v -0.194500 0.000000 0.172278
v -0.186000 0.000000 0.187000
v -0.188720 0.009000 0.187000
v -0.195860 0.009000 0.174633
v -0.210140 0.009000 0.174633
v -0.217280 0.009000 0.187000
v -0.210140 0.009000 0.199367
v -0.195860 0.009000 0.199367
v -0.194500 0.004950 0.172278
v -0.186000 0.004950 0.187000
v -0.211500 0.004950 0.172278
v -0.220000 0.004950 0.187000
v -0.211500 0.004950 0.201722
v -0.194500 0.004950 0.201722
v 0.158180 0.431141 0.114806
v 0.138329 0.428708 0.114806
v 0.128148 0.429568 0.132000
v 0.137820 0.432859 0.149194
v 0.157671 0.435292 0.149194
v 0.167852 0.434432 0.132000
v 0.217862 0.011031 0.186973
v 0.210217 0.011748 0.199859
v 0.195355 0.009717 0.199886
v 0.188138 0.006969 0.187027
v 0.195783 0.006252 0.174141
v 0.210644 0.008283 0.174114
v 0.181191 0.233051 0.171773
v 0.190104 0.232254 0.156734
v 0.163837 0.230796 0.171789
v 0.155396 0.227746 0.156766
v 0.164309 0.226949 0.141727
v 0.181663 0.229204 0.141711
v 0.211500 0.000000 0.201722
v 0.194500 0.000000 0.201722
v 0.186000 0.000000 0.187000
v 0.194500 0.000000 0.172278
v 0.211500 0.000000 0.172278
v 0.220000 0.000000 0.187000
v 0.217280 0.009000 0.187000
v 0.210140 0.009000 0.174633
v 0.195860 0.009000 0.174633
v 0.188720 0.009000 0.187000
v 0.195860 0.009000 0.199367
v 0.210140 0.009000 0.199367
v 0.211500 0.004950 0.172278
v 0.220000 0.004950 0.187000
v 0.194500 0.004950 0.172278
v 0.186000 0.004950 0.187000
v 0.194500 0.004950 0.201722
v 0.211500 0.004950 0.201722
v -0.137894 0.432668 -0.149246
v -0.157807 0.434531 -0.149246
v -0.167913 0.433863 -0.132000
v -0.158106 0.431332 -0.114754
v -0.138193 0.429469 -0.114754
v -0.128087 0.430137 -0.132000
v -0.175081 0.007442 -0.174016
v -0.182666 0.006884 -0.161087
v -0.197585 0.008441 -0.161071
v -0.204919 0.010558 -0.173984
v -0.197334 0.011116 -0.186913
v -0.182415 0.009559 -0.186929
v -0.158332 0.227652 -0.135823
v -0.149486 0.228272 -0.150909
v -0.175746 0.229380 -0.135813
v -0.184314 0.231728 -0.150891
v -0.175468 0.232348 -0.165977
v -0.158054 0.230620 -0.165987
v -0.181500 0.000000 -0.159278
v -0.198500 0.000000 -0.159278
v -0.207000 0.000000 -0.174000
v -0.198500 0.000000 -0.188722
v -0.181500 0.000000 -0.188722
v -0.173000 0.000000 -0.174000
v -0.175720 0.009000 -0.174000
v -0.182860 0.009000 -0.186367
v -0.197140 0.009000 -0.186367
v -0.204280 0.009000 -0.174000
v -0.197140 0.009000 -0.161633
v -0.182860 0.009000 -0.161633
v -0.181500 0.004950 -0.188722
v -0.173000 0.004950 -0.174000
v -0.198500 0.004950 -0.188722
v -0.207000 0.004950 -0.174000
v -0.198500 0.004950 -0.159278
v -0.181500 0.004950 -0.159278
v 0.157807 0.434531 -0.149246
v 0.137894 0.432668 -0.149246
v 0.128087 0.430137 -0.132000
v 0.138193 0.429469 -0.114754
v 0.158106 0.431332 -0.114754
v 0.167913 0.433863 -0.132000
v 0.204919 0.010558 -0.173984
v 0.197585 0.008441 -0.161071
v 0.182666 0.006884 -0.161087
v 0.175081 0.007442 -0.174016
v 0.182415 0.009559 -0.186929
v 0.197334 0.011116 -0.186913
v 0.175746 0.229380 -0.135813
v 0.184314 0.231728 -0.150891
v 0.158332 0.227652 -0.135823
v 0.149486 0.228272 -0.150909
v 0.158054 0.230620 -0.165987
v 0.175468 0.232348 -0.165977
v 0.198500 0.000000 -0.159278
v 0.181500 0.000000 -0.159278
v 0.173000 0.000000 -0.174000
v 0.181500 0.000000 -0.188722
v 0.198500 0.000000 -0.188722
v 0.207000 0.000000 -0.174000
v 0.204280 0.009000 -0.174000
v 0.197140 0.009000 -0.186367
v 0.182860 0.009000 -0.186367
v 0.175720 0.009000 -0.174000
v 0.182860 0.009000 -0.161633
v 0.197140 0.009000 -0.161633
v 0.198500 0.004950 -0.188722
v 0.207000 0.004950 -0.174000
v 0.181500 0.004950 -0.188722
v 0.173000 0.004950 -0.174000
v 0.181500 0.004950 -0.159278
v 0.198500 0.004950 -0.159278
v -0.182059 0.430541 -0.121887
v -0.161195 0.432926 -0.121887
v -0.151136 0.437384 -0.104000
v -0.161941 0.439459 -0.086113
v -0.182805 0.437074 -0.086113
v -0.192864 0.432616 -0.104000
v 0.192864 0.432616 -0.104000
v 0.182805 0.437074 -0.086113
v 0.161941 0.439459 -0.086113
v 0.151136 0.437384 -0.104000
v 0.161195 0.432926 -0.121887
v 0.182059 0.430541 -0.121887
v -0.190832 0.507330 -0.099110
v -0.200915 0.503110 -0.117041
v -0.169917 0.509220 -0.099019
v -0.159085 0.506890 -0.116859
v -0.169169 0.502670 -0.134790
v -0.190083 0.500780 -0.134881
v -0.197221 0.598018 -0.115888
v -0.207287 0.593627 -0.133787
v -0.176341 0.600261 -0.115862
v -0.165527 0.598114 -0.133735
v -0.175594 0.593723 -0.151634
v -0.196473 0.591480 -0.151661
v -0.206667 0.655235 -0.126473
v -0.216781 0.651486 -0.144491
v -0.185689 0.656148 -0.126201
v -0.174824 0.653312 -0.143947
v -0.184938 0.649563 -0.161965
v -0.205916 0.648650 -0.162237
v -0.201737 0.715040 -0.137537
v -0.211651 0.713697 -0.156000
v -0.181171 0.710963 -0.136341
v -0.170520 0.705541 -0.153609
v -0.180435 0.704198 -0.172072
v -0.201001 0.708276 -0.173268
v -0.182382 0.771339 -0.147952
v -0.191490 0.772333 -0.166848
v -0.163488 0.762414 -0.145860
v -0.153703 0.754483 -0.162663
v -0.162812 0.755477 -0.181559
v -0.181705 0.764402 -0.183651
v -0.149907 0.820132 -0.156979
v -0.157578 0.823280 -0.176273
v -0.133997 0.806740 -0.154060
v -0.125758 0.796495 -0.170435
v -0.133428 0.799643 -0.189729
v -0.149338 0.813035 -0.192648
v -0.106539 0.857886 -0.163963
v -0.112135 0.862833 -0.183590
v -0.094933 0.840761 -0.160354
v -0.088921 0.828583 -0.176372
v -0.094517 0.833530 -0.195999
v -0.106124 0.850655 -0.199608
v -0.055329 0.881779 -0.168383
v -0.058295 0.887948 -0.188237
v -0.049178 0.862119 -0.164305
v -0.045992 0.848628 -0.180080
v -0.048957 0.854797 -0.199933
v -0.055109 0.874457 -0.204011
v 0.000000 0.889960 -0.169897
v 0.000000 0.896566 -0.189831
v 0.000000 0.869394 -0.165651
v 0.000000 0.855434 -0.181339
v 0.000000 0.862040 -0.201273
v 0.000000 0.882606 -0.205519
v 0.055329 0.881779 -0.168383
v 0.058295 0.887948 -0.188237
v 0.049178 0.862119 -0.164305
v 0.045992 0.848628 -0.180080
v 0.048957 0.854797 -0.199933
v 0.055109 0.874457 -0.204011
v 0.106539 0.857886 -0.163963
v 0.112135 0.862833 -0.183590
v 0.094933 0.840761 -0.160354
v 0.088921 0.828583 -0.176372
v 0.094517 0.833530 -0.195999
v 0.106124 0.850655 -0.199608
v 0.149908 0.820132 -0.156979
v 0.157578 0.823280 -0.176273
v 0.133997 0.806740 -0.154060
v 0.125758 0.796495 -0.170435
v 0.133428 0.799643 -0.189729
v 0.149338 0.813035 -0.192648
v 0.182382 0.771339 -0.147952
v 0.191490 0.772333 -0.166848
v 0.163488 0.762414 -0.145860
v 0.153703 0.754483 -0.162663
v 0.162812 0.755477 -0.181559
v 0.181705 0.764402 -0.183651
v 0.201737 0.715040 -0.137537
v 0.211651 0.713697 -0.156000
v 0.181171 0.710963 -0.136341
v 0.170520 0.705541 -0.153609
v 0.180435 0.704198 -0.172072
v 0.201001 0.708276 -0.173268
v 0.206667 0.655235 -0.126473
v 0.216781 0.651486 -0.144491
v 0.185689 0.656148 -0.126201
v 0.174824 0.653312 -0.143947
v 0.184938 0.649563 -0.161965
v 0.205916 0.648650 -0.162237
v 0.197221 0.598018 -0.115888
v 0.207287 0.593627 -0.133787
v 0.176341 0.600261 -0.115862
v 0.165527 0.598114 -0.133735
v 0.175594 0.593723 -0.151634
v 0.196473 0.591480 -0.151661
v 0.190832 0.507330 -0.099110
v 0.200915 0.503110 -0.117041
v 0.169917 0.509220 -0.099019
v 0.159085 0.506890 -0.116859
v 0.169169 0.502670 -0.134790
v 0.190083 0.500780 -0.134881
v 0.091222 0.703609 -0.153860
v 0.097240 0.706784 -0.142783
v 0.091303 0.739126 -0.148766
v 0.085582 0.734903 -0.159649
v 0.110019 0.709175 -0.142783
v 0.103449 0.743741 -0.149178
v 0.116778 0.708391 -0.153860
v 0.109874 0.744133 -0.160472
v 0.110760 0.705216 -0.164936
v 0.104153 0.739910 -0.171355
v 0.097981 0.702825 -0.164936
v 0.092007 0.735295 -0.170943
v 0.074498 0.766548 -0.153839
v 0.069894 0.760498 -0.164384
v 0.084273 0.775044 -0.154969
v 0.089444 0.777489 -0.166643
v 0.084840 0.771438 -0.177187
v 0.075065 0.762943 -0.176058
v 0.048673 0.786964 -0.157616
v 0.045710 0.779612 -0.167920
v 0.054963 0.798222 -0.159257
v 0.058290 0.802129 -0.171201
v 0.055327 0.794777 -0.181505
v 0.049037 0.783519 -0.179865
v 0.016914 0.797855 -0.159631
v 0.015895 0.789835 -0.169811
v 0.019079 0.810531 -0.161534
v 0.020224 0.815188 -0.173617
v 0.019205 0.807168 -0.183797
v 0.017040 0.794491 -0.181895
v -0.016914 0.797855 -0.159631
v -0.015895 0.789835 -0.169811
v -0.019079 0.810531 -0.161534
v -0.020224 0.815188 -0.173617
v -0.019205 0.807168 -0.183797
v -0.017040 0.794491 -0.181895
v -0.048673 0.786964 -0.157616
v -0.045710 0.779612 -0.167920
v -0.054963 0.798222 -0.159257
v -0.058290 0.802129 -0.171201
v -0.055327 0.794777 -0.181505
v -0.049037 0.783519 -0.179865
v -0.074498 0.766548 -0.153839
v -0.069894 0.760498 -0.164384
v -0.084273 0.775044 -0.154969
v -0.089444 0.777489 -0.166643
v -0.084840 0.771438 -0.177187
v -0.075065 0.762943 -0.176058
v -0.091303 0.739126 -0.148766
v -0.085582 0.734903 -0.159649
v -0.103449 0.743741 -0.149178
v -0.109874 0.744133 -0.160472
v -0.104153 0.739910 -0.171355
v -0.092007 0.735295 -0.170943
v -0.097127 0.708007 -0.143009
v -0.091007 0.705921 -0.154287
v -0.110120 0.708086 -0.142581
v -0.116993 0.706079 -0.153432
v -0.110873 0.703993 -0.164710
v -0.097880 0.703914 -0.165138
v -0.091303 0.676889 -0.137252
v -0.085582 0.676939 -0.148926
v -0.103449 0.672432 -0.135985
v -0.109874 0.668025 -0.146392
v -0.104153 0.668075 -0.158065
v -0.092007 0.672532 -0.159332
v -0.074498 0.649466 -0.132179
v -0.069894 0.651344 -0.144191
v -0.084273 0.641129 -0.130194
v -0.089444 0.634670 -0.140221
v -0.084840 0.636547 -0.152233
v -0.075065 0.644885 -0.154217
v -0.048673 0.629050 -0.128402
v -0.045710 0.632229 -0.140654
v -0.054963 0.617951 -0.125906
v -0.058290 0.610030 -0.135663
v -0.055327 0.613209 -0.147915
v -0.049037 0.624308 -0.150411
v -0.016914 0.618160 -0.126387
v -0.015895 0.622007 -0.138763
v -0.019079 0.605642 -0.123629
v -0.020224 0.596971 -0.133247
v -0.019205 0.600818 -0.145623
v -0.017040 0.613336 -0.148381
v 0.016914 0.618160 -0.126387
v 0.015895 0.622007 -0.138763
v 0.019079 0.605642 -0.123629
v 0.020224 0.596971 -0.133247
v 0.019205 0.600818 -0.145623
v 0.017040 0.613336 -0.148381
v 0.048673 0.629050 -0.128402
v 0.045710 0.632229 -0.140654
v 0.054963 0.617951 -0.125906
v 0.058290 0.610030 -0.135663
v 0.055327 0.613209 -0.147915
v 0.049037 0.624308 -0.150411
v 0.074498 0.649466 -0.132179
v 0.069894 0.651344 -0.144191
v 0.084273 0.641129 -0.130194
v 0.089444 0.634670 -0.140221
v 0.084840 0.636547 -0.152233
v 0.075065 0.644885 -0.154217
v 0.091303 0.676889 -0.137252
v 0.085582 0.676939 -0.148926
v 0.103449 0.672432 -0.135985
v 0.109874 0.668025 -0.146392
v 0.104153 0.668075 -0.158065
v 0.092007 0.672532 -0.159332
v 0.097240 0.709230 -0.143235
v 0.091222 0.708233 -0.154715
v 0.110019 0.706998 -0.142380
v 0.116778 0.703767 -0.153004
v 0.110760 0.702770 -0.164484
v 0.097981 0.705002 -0.165339
v 0.187692 0.212000 -0.002700
v 0.181846 0.201608 -0.001350
v 0.166185 0.201608 -0.068504
v 0.171587 0.212000 -0.071117
v 0.170154 0.201608 0.001350
v 0.155383 0.201608 -0.063279
v 0.164308 0.212000 0.002700
v 0.149981 0.212000 -0.060666
v 0.170154 0.222392 0.001350
v 0.155383 0.222392 -0.063279
v 0.181846 0.222392 -0.001350
v 0.166185 0.222392 -0.068504
v 0.121596 0.201608 -0.125009
v 0.125424 0.212000 -0.129629
v 0.113938 0.201608 -0.115770
v 0.110110 0.212000 -0.111150
v 0.113938 0.222392 -0.115770
v 0.121596 0.222392 -0.125009
v 0.056106 0.201608 -0.159820
v 0.057825 0.212000 -0.165568
v 0.052668 0.201608 -0.148323
v 0.050949 0.212000 -0.142574
v 0.052668 0.222392 -0.148323
v 0.056106 0.222392 -0.159820
v -0.018975 0.201608 -0.167085
v -0.019553 0.212000 -0.173057
v -0.017819 0.201608 -0.155140
v -0.017241 0.212000 -0.149168
v -0.017819 0.222392 -0.155140
v -0.018975 0.222392 -0.167085
v -0.090816 0.201608 -0.145594
v -0.093631 0.212000 -0.150893
v -0.085184 0.201608 -0.134998
v -0.082369 0.212000 -0.129699
v -0.085184 0.222392 -0.134998
v -0.090816 0.222392 -0.145594
v -0.147097 0.201608 -0.098939
v -0.151806 0.212000 -0.102656
v -0.137677 0.201608 -0.091504
v -0.132968 0.212000 -0.087786
v -0.137677 0.222392 -0.091504
v -0.147097 0.222392 -0.098939
v -0.178000 0.201608 -0.035032
v -0.183846 0.212000 -0.036382
v -0.166308 0.201608 -0.032332
v -0.160462 0.212000 -0.030982
v -0.166308 0.222392 -0.032332
v -0.178000 0.222392 -0.035032
v -0.178000 0.201608 0.035032
v -0.183846 0.212000 0.036382
v -0.166308 0.201608 0.032332
v -0.160462 0.212000 0.030982
v -0.166308 0.222392 0.032332
v -0.178000 0.222392 0.035032
v -0.147097 0.201608 0.098939
v -0.151806 0.212000 0.102656
v -0.137677 0.201608 0.091504
v -0.132968 0.212000 0.087786
v -0.137677 0.222392 0.091504
v -0.147097 0.222392 0.098939
v -0.090816 0.201608 0.145594
v -0.093631 0.212000 0.150893
v -0.085184 0.201608 0.134998
v -0.082369 0.212000 0.129699
v -0.085184 0.222392 0.134998
v -0.090816 0.222392 0.145594
v -0.018975 0.201608 0.167085
v -0.019553 0.212000 0.173057
v -0.017819 0.201608 0.155140
v -0.017241 0.212000 0.149168
v -0.017819 0.222392 0.155140
v -0.018975 0.222392 0.167085
v 0.056106 0.201608 0.159820
v 0.057825 0.212000 0.165568
v 0.052668 0.201608 0.148323
v 0.050949 0.212000 0.142574
v 0.052668 0.222392 0.148323
v 0.056106 0.222392 0.159820
v 0.121596 0.201608 0.125009
v 0.125424 0.212000 0.129629
v 0.113938 0.201608 0.115770
v 0.110110 0.212000 0.111150
v 0.113938 0.222392 0.115770
v 0.121596 0.222392 0.125009
v 0.166185 0.201608 0.068504
v 0.171587 0.212000 0.071117
v 0.155383 0.201608 0.063279
v 0.149981 0.212000 0.060666
v 0.155383 0.222392 0.063279
v 0.166185 0.222392 0.068504
v 0.181846 0.201608 0.001350
v 0.187692 0.212000 0.002700
v 0.170154 0.201608 -0.001350
v 0.164308 0.212000 -0.002700
v 0.170154 0.222392 -0.001350
v 0.181846 0.222392 0.001350
vn -0.0000 -1.0000 -0.0000
vn 0.7002 -0.7002 -0.1393
vn 0.5936 -0.7002 -0.3966
vn 0.3966 -0.7002 -0.5936
vn 0.1393 -0.7002 -0.7002
vn -0.1393 -0.7002 -0.7002
vn -0.3966 -0.7002 -0.5936
vn -0.5936 -0.7002 -0.3966
vn -0.7002 -0.7002 -0.1393
vn -0.7002 -0.7002 0.1393
vn -0.5936 -0.7002 0.3966
vn -0.3966 -0.7002 0.5936
vn -0.1393 -0.7002 0.7002
vn 0.1393 -0.7002 0.7002
vn 0.3966 -0.7002 0.5936
vn 0.5936 -0.7002 0.3966
vn 0.7002 -0.7002 0.1393
vn 0.9808 -0.0000 -0.1951
vn 0.8315 -0.0000 -0.5556
vn 0.5556 -0.0000 -0.8315
vn 0.1951 -0.0000 -0.9808
vn -0.1951 -0.0000 -0.9808
vn -0.5556 -0.0000 -0.8315
vn -0.8315 -0.0000 -0.5556
vn -0.9808 -0.0000 -0.1951
vn -0.9808 -0.0000 0.1951
vn -0.8315 -0.0000 0.5556
vn -0.5556 -0.0000 0.8315
vn -0.1951 -0.0000 0.9808
vn 0.1951 -0.0000 0.9808
vn 0.5556 -0.0000 0.8315
vn 0.8315 -0.0000 0.5556
vn 0.9808 -0.0000 0.1951
vn -0.0000 1.0000 -0.0000
vn 0.7002 0.7002 -0.1393
vn 0.5936 0.7002 -0.3966
vn 0.3966 0.7002 -0.5936
vn 0.1393 0.7002 -0.7002
vn -0.1393 0.7002 -0.7002
vn -0.3966 0.7002 -0.5936
vn -0.5936 0.7002 -0.3966
vn -0.7002 0.7002 -0.1393
vn -0.7002 0.7002 0.1393
vn -0.5936 0.7002 0.3966
vn -0.3966 0.7002 0.5936
vn -0.1393 0.7002 0.7002
vn 0.1393 0.7002 0.7002
vn 0.3966 0.7002 0.5936
vn 0.5936 0.7002 0.3966
vn 0.7002 0.7002 0.1393
vn 0.1207 0.9853 -0.1207
vn -0.1344 -0.9818 0.1344
vn 0.8656 -0.0558 0.4976
vn 0.0134 0.1094 0.9939
vn -0.8535 0.1548 0.4976
vn -0.8682 0.0350 -0.4950
vn -0.0160 -0.1302 -0.9914
vn 0.8509 -0.1756 -0.4950
vn 0.8650 -0.0600 0.4982
vn 0.0152 0.1239 0.9922
vn -0.8511 0.1745 0.4952
vn -0.8675 0.0411 -0.4957
vn -0.0177 -0.1428 -0.9896
vn 0.8485 -0.1934 -0.4926
vn 0.8660 -0.0000 -0.5000
vn -0.0000 -0.0000 -1.0000
vn -0.8660 -0.0000 -0.5000
vn -0.8660 -0.0000 0.5000
vn -0.0000 -0.0000 1.0000
vn 0.8660 -0.0000 0.5000
vn 0.7486 0.5028 -0.4322
vn -0.0000 0.5028 -0.8644
vn -0.7486 0.5028 -0.4322
vn -0.7486 0.5028 0.4322
vn -0.0000 0.5028 0.8644
vn 0.7486 0.5028 0.4322
vn -0.1207 0.9853 -0.1207
vn 0.1344 -0.9818 0.1344
vn 0.8535 0.1548 0.4976
vn -0.0134 0.1094 0.9939
vn -0.8656 -0.0558 0.4976
vn -0.8509 -0.1756 -0.4950
vn 0.0160 -0.1302 -0.9914
vn 0.8682 0.0350 -0.4950
vn 0.8511 0.1745 0.4952
vn -0.0152 0.1239 0.9922
vn -0.8650 -0.0600 0.4982
vn -0.8485 -0.1934 -0.4926
vn 0.0177 -0.1428 -0.9896
vn 0.8675 0.0411 -0.4957
vn 0.0928 0.9914 0.0928
vn -0.1034 -0.9893 -0.1034
vn 0.8569 -0.1374 0.4968
vn -0.0096 -0.1029 0.9946
vn -0.8675 0.0240 0.4968
vn -0.8589 0.1163 -0.4988
vn 0.0076 0.0818 -0.9966
vn 0.8655 -0.0450 -0.4988
vn 0.8554 -0.1510 0.4954
vn -0.0107 -0.1125 0.9936
vn -0.8671 0.0289 0.4972
vn -0.8575 0.1318 -0.4974
vn 0.0087 0.0934 -0.9956
vn 0.8652 -0.0480 -0.4992
vn -0.0928 0.9914 0.0928
vn 0.1034 -0.9893 -0.1034
vn 0.8675 0.0240 0.4968
vn 0.0096 -0.1029 0.9946
vn -0.8569 -0.1374 0.4968
vn -0.8655 -0.0450 -0.4988
vn -0.0076 0.0818 -0.9966
vn 0.8589 0.1163 -0.4988
vn 0.8671 0.0289 0.4972
vn 0.0107 -0.1125 0.9936
vn -0.8554 -0.1510 0.4954
vn -0.8652 -0.0480 -0.4992
vn -0.0087 0.0934 -0.9956
vn 0.8575 0.1318 -0.4974
vn 0.1117 -0.9772 0.1808
vn -0.1117 -0.9772 0.1808
vn -0.8707 -0.0085 0.4917
vn -0.0205 0.1796 0.9835
vn 0.8502 0.1882 0.4917
vn 0.8707 0.0086 -0.4917
vn 0.0205 -0.1796 -0.9835
vn -0.8502 -0.1881 -0.4917
vn -0.8742 0.0281 0.4848
vn -0.0206 0.1805 0.9834
vn 0.8536 0.1524 0.4982
vn 0.8741 -0.0280 -0.4849
vn 0.0206 -0.1805 -0.9834
vn -0.8536 -0.1523 -0.4982
vn -0.8658 -0.0504 0.4979
vn -0.0205 0.1786 0.9837
vn 0.8451 0.2310 0.4820
vn 0.8654 0.0531 -0.4983
vn 0.0205 -0.1786 -0.9837
vn -0.8455 -0.2285 -0.4826
vn -0.8748 0.1569 0.4584
vn -0.0207 0.1835 0.9828
vn 0.8544 0.0256 0.5190
vn 0.8748 -0.1569 -0.4584
vn 0.0207 -0.1835 -0.9828
vn -0.8544 -0.0256 -0.5190
vn -0.8315 0.3636 0.4200
vn -0.0197 0.1884 0.9819
vn 0.8122 -0.1762 0.5562
vn 0.8315 -0.3635 -0.4200
vn 0.0197 -0.1884 -0.9819
vn -0.8121 0.1763 -0.5562
vn -0.7345 0.5598 0.3834
vn -0.0174 0.1931 0.9810
vn 0.7176 -0.3679 0.5914
vn 0.7347 -0.5597 -0.3835
vn 0.0174 -0.1931 -0.9810
vn -0.7174 0.3681 -0.5914
vn -0.5820 0.7336 0.3509
vn -0.0138 0.1972 0.9803
vn 0.5687 -0.5378 0.6224
vn 0.5822 -0.7334 -0.3510
vn 0.0138 -0.1972 -0.9803
vn -0.5685 0.5379 -0.6225
vn -0.3765 0.8672 0.3258
vn -0.0089 0.2004 0.9797
vn 0.3679 -0.6686 0.6462
vn 0.3767 -0.8671 -0.3258
vn 0.0089 -0.2004 -0.9797
vn -0.3677 0.6687 -0.6463
vn -0.1306 0.9411 0.3119
vn -0.0031 0.2022 0.9793
vn 0.1277 -0.7409 0.6594
vn 0.1307 -0.9411 -0.3119
vn 0.0031 -0.2022 -0.9793
vn -0.1276 0.7409 -0.6594
vn 0.1306 0.9411 0.3119
vn 0.0031 0.2022 0.9793
vn -0.1277 -0.7409 0.6594
vn -0.1307 -0.9411 -0.3119
vn -0.0031 -0.2022 -0.9793
vn 0.1276 0.7409 -0.6594
vn 0.3765 0.8672 0.3258
vn 0.0089 0.2004 0.9797
vn -0.3679 -0.6686 0.6462
vn -0.3767 -0.8671 -0.3258
vn -0.0089 -0.2004 -0.9797
vn 0.3677 0.6687 -0.6463
vn 0.5820 0.7336 0.3509
vn 0.0138 0.1972 0.9803
vn -0.5687 -0.5378 0.6224
vn -0.5822 -0.7334 -0.3510
vn -0.0138 -0.1972 -0.9803
vn 0.5685 0.5379 -0.6225
vn 0.7345 0.5598 0.3834
vn 0.0174 0.1931 0.9810
vn -0.7176 -0.3679 0.5914
vn -0.7347 -0.5597 -0.3835
vn -0.0174 -0.1931 -0.9810
vn 0.7174 0.3681 -0.5914
vn 0.8315 0.3636 0.4200
vn 0.0197 0.1884 0.9819
vn -0.8122 -0.1762 0.5562
vn -0.8315 -0.3635 -0.4200
vn -0.0197 -0.1884 -0.9819
vn 0.8121 0.1763 -0.5562
vn 0.8748 0.1569 0.4584
vn 0.0207 0.1835 0.9828
vn -0.8544 0.0256 0.5190
vn -0.8748 -0.1569 -0.4584
vn -0.0207 -0.1835 -0.9828
vn 0.8544 -0.0256 -0.5190
vn 0.8658 -0.0504 0.4979
vn 0.0205 0.1786 0.9837
vn -0.8451 0.2310 0.4820
vn -0.8654 0.0531 -0.4983
vn -0.0205 -0.1786 -0.9837
vn 0.8455 -0.2285 -0.4826
vn 0.8742 0.0281 0.4848
vn 0.0206 0.1805 0.9834
vn -0.8536 0.1524 0.4982
vn -0.8741 -0.0280 -0.4849
vn -0.0206 -0.1805 -0.9834
vn 0.8536 -0.1523 -0.4982
vn 0.8707 -0.0085 0.4917
vn 0.0205 0.1796 0.9835
vn -0.8502 0.1882 0.4917
vn -0.8707 0.0086 -0.4917
vn -0.0205 -0.1796 -0.9835
vn 0.8502 -0.1881 -0.4917
vn -0.8701 -0.0680 0.4881
vn -0.0332 0.1758 0.9839
vn 0.8359 0.2505 0.4883
vn 0.8685 0.0760 -0.4899
vn 0.0332 -0.1758 -0.9839
vn -0.8375 -0.2431 -0.4894
vn -0.7583 -0.3648 0.5403
vn -0.0291 0.1646 0.9859
vn 0.7303 0.5276 0.4339
vn 0.7584 0.3646 -0.5403
vn 0.0291 -0.1646 -0.9859
vn -0.7302 -0.5278 -0.4339
vn -0.5546 -0.5938 0.5830
vn -0.0213 0.1558 0.9876
vn 0.5342 0.7482 0.3934
vn 0.5548 0.5936 -0.5830
vn 0.0213 -0.1558 -0.9876
vn -0.5340 -0.7484 -0.3934
vn -0.2914 -0.7371 0.6098
vn -0.0112 0.1503 0.9886
vn 0.2807 0.8864 0.3681
vn 0.2915 0.7370 -0.6097
vn 0.0112 -0.1503 -0.9886
vn -0.2806 -0.8864 -0.3681
vn -0.0000 -0.7855 0.6188
vn -0.0000 0.1484 0.9889
vn -0.0000 0.9331 0.3596
vn -0.0000 0.7855 -0.6188
vn -0.0000 -0.1484 -0.9889
vn -0.0000 -0.9331 -0.3596
vn 0.2914 -0.7371 0.6098
vn 0.0112 0.1503 0.9886
vn -0.2807 0.8864 0.3681
vn -0.2915 0.7370 -0.6097
vn -0.0112 -0.1503 -0.9886
vn 0.2806 -0.8864 -0.3681
vn 0.5546 -0.5938 0.5830
vn 0.0213 0.1558 0.9876
vn -0.5342 0.7482 0.3934
vn -0.5548 0.5936 -0.5830
vn -0.0213 -0.1558 -0.9876
vn 0.5340 -0.7484 -0.3934
vn 0.7583 -0.3648 0.5403
vn 0.0291 0.1646 0.9859
vn -0.7303 0.5276 0.4339
vn -0.7584 0.3646 -0.5403
vn -0.0291 -0.1646 -0.9859
vn 0.7302 -0.5278 -0.4339
vn 0.8708 -0.0731 0.4861
vn 0.0335 0.1758 0.9839
vn -0.8386 0.2467 0.4856
vn -0.8709 0.0730 -0.4861
vn -0.0335 -0.1758 -0.9839
vn 0.8386 -0.2468 -0.4856
vn 0.8708 0.2421 0.4278
vn 0.0335 0.1879 0.9816
vn -0.8386 -0.0567 0.5417
vn -0.8709 -0.2421 -0.4278
vn -0.0335 -0.1879 -0.9816
vn 0.8386 0.0567 -0.5418
vn 0.7583 0.5339 0.3740
vn 0.0291 0.1991 0.9796
vn -0.7303 -0.3375 0.5939
vn -0.7584 -0.5338 -0.3741
vn -0.0291 -0.1991 -0.9796
vn 0.7302 0.3376 -0.5940
vn 0.5546 0.7630 0.3320
vn 0.0213 0.2078 0.9779
vn -0.5342 -0.5580 0.6351
vn -0.5548 -0.7629 -0.3320
vn -0.0213 -0.2078 -0.9779
vn 0.5340 0.5581 -0.6351
vn 0.2914 0.9064 0.3057
vn 0.0112 0.2133 0.9769
vn -0.2807 -0.6960 0.6609
vn -0.2915 -0.9064 -0.3057
vn -0.0112 -0.2133 -0.9769
vn 0.2806 0.6961 -0.6609
vn -0.0000 0.9549 0.2968
vn -0.0000 0.2152 0.9766
vn -0.0000 -0.7427 0.6696
vn -0.0000 -0.9549 -0.2968
vn -0.0000 -0.2152 -0.9766
vn -0.0000 0.7427 -0.6696
vn -0.2914 0.9064 0.3057
vn -0.0112 0.2133 0.9769
vn 0.2807 -0.6960 0.6609
vn 0.2915 -0.9064 -0.3057
vn 0.0112 -0.2133 -0.9769
vn -0.2806 0.6961 -0.6609
vn -0.5546 0.7630 0.3320
vn -0.0213 0.2078 0.9779
vn 0.5342 -0.5580 0.6351
vn 0.5548 -0.7629 -0.3320
vn 0.0213 -0.2078 -0.9779
vn -0.5340 0.5581 -0.6351
vn -0.7583 0.5339 0.3740
vn -0.0291 0.1991 0.9796
vn 0.7303 -0.3375 0.5939
vn 0.7584 -0.5338 -0.3741
vn 0.0291 -0.1991 -0.9796
vn -0.7302 0.3376 -0.5940
vn -0.8701 0.2381 0.4315
vn -0.0332 0.1878 0.9816
vn 0.8359 -0.0593 0.5456
vn 0.8685 -0.2462 -0.4303
vn 0.0332 -0.1878 -0.9816
vn -0.8375 0.0519 -0.5439
vn 0.8457 -0.4954 -0.1982
vn -0.8472 -0.4952 0.1926
vn -0.8472 0.4952 0.1926
vn 0.8457 0.4954 -0.1982
vn 0.6837 -0.4914 -0.5395
vn -0.6835 -0.4914 0.5398
vn -0.6835 0.4914 0.5398
vn 0.6837 0.4914 -0.5395
vn 0.4085 -0.4924 -0.7685
vn -0.4083 -0.4924 0.7686
vn -0.4083 0.4924 0.7686
vn 0.4085 0.4924 -0.7685
vn 0.0838 -0.4930 -0.8660
vn -0.0838 -0.4930 0.8660
vn -0.0838 0.4929 0.8660
vn 0.0838 0.4930 -0.8660
vn -0.2494 -0.4928 -0.8337
vn 0.2493 -0.4928 0.8337
vn 0.2493 0.4928 0.8337
vn -0.2494 0.4928 -0.8337
vn -0.5557 -0.4919 -0.6702
vn 0.5554 -0.4919 0.6704
vn 0.5554 0.4919 0.6704
vn -0.5557 0.4919 -0.6702
vn -0.7844 -0.4908 -0.3793
vn 0.7843 -0.4908 0.3795
vn 0.7843 0.4908 0.3795
vn -0.7844 0.4908 -0.3793
vn -0.8716 -0.4903 -0.0000
vn 0.8716 -0.4903 -0.0000
vn 0.8716 0.4903 -0.0000
vn -0.8716 0.4903 -0.0000
vn -0.7844 -0.4908 0.3793
vn 0.7843 -0.4908 -0.3795
vn 0.7843 0.4908 -0.3795
vn -0.7844 0.4908 0.3793
vn -0.5557 -0.4919 0.6702
vn 0.5554 -0.4919 -0.6704
vn 0.5554 0.4919 -0.6704
vn -0.5557 0.4919 0.6702
vn -0.2494 -0.4928 0.8337
vn 0.2493 -0.4928 -0.8337
vn 0.2493 0.4928 -0.8337
vn -0.2494 0.4928 0.8337
vn 0.0838 -0.4930 0.8660
vn -0.0838 -0.4929 -0.8660
vn -0.0838 0.4929 -0.8660
vn 0.0838 0.4929 0.8660
vn 0.4085 -0.4924 0.7685
vn -0.4083 -0.4924 -0.7686
vn -0.4083 0.4924 -0.7686
vn 0.4085 0.4924 0.7685
vn 0.6837 -0.4914 0.5395
vn -0.6835 -0.4914 -0.5398
vn -0.6835 0.4914 -0.5398
vn 0.6837 0.4914 0.5395
vn 0.8457 -0.4954 0.1982
vn -0.8472 -0.4952 -0.1926
vn -0.8472 0.4952 -0.1926
vn 0.8457 0.4954 0.1982
vt 0.687500 0.937500
vt 0.312500 0.937500
vt 0.187500 0.812500
vt 0.062500 0.812500
vt 0.812500 0.312500
vt 0.562500 0.937500
s 0
usemtl FN_Atlas
f 1/1/1 2/1/1 3/1/1 4/1/1 5/1/1 6/1/1 7/1/1 8/1/1 9/1/1 10/1/1 11/1/1 12/1/1 13/1/1 14/1/1 15/1/1 16/1/1
f 16/1/2 15/1/2 17/1/2 18/1/2
f 15/1/3 14/1/3 19/1/3 17/1/3
f 14/1/4 13/1/4 20/1/4 19/1/4
f 13/1/5 12/1/5 21/1/5 20/1/5
f 12/1/6 11/1/6 22/1/6 21/1/6
f 11/1/7 10/1/7 23/1/7 22/1/7
f 10/1/8 9/1/8 24/1/8 23/1/8
f 9/1/9 8/1/9 25/1/9 24/1/9
f 8/1/10 7/1/10 26/1/10 25/1/10
f 7/1/11 6/1/11 27/1/11 26/1/11
f 6/1/12 5/1/12 28/1/12 27/1/12
f 5/1/13 4/1/13 29/1/13 28/1/13
f 4/1/14 3/1/14 30/1/14 29/1/14
f 3/1/15 2/1/15 31/1/15 30/1/15
f 2/1/16 1/1/16 32/1/16 31/1/16
f 1/1/17 16/1/17 18/1/17 32/1/17
f 18/1/18 17/1/18 33/1/18 34/1/18
f 17/1/19 19/1/19 35/1/19 33/1/19
f 19/1/20 20/1/20 36/1/20 35/1/20
f 20/1/21 21/1/21 37/1/21 36/1/21
f 21/1/22 22/1/22 38/1/22 37/1/22
f 22/1/23 23/1/23 39/1/23 38/1/23
f 23/1/24 24/1/24 40/1/24 39/1/24
f 24/1/25 25/1/25 41/1/25 40/1/25
f 25/1/26 26/1/26 42/1/26 41/1/26
f 26/1/27 27/1/27 43/1/27 42/1/27
f 27/1/28 28/1/28 44/1/28 43/1/28
f 28/1/29 29/1/29 45/1/29 44/1/29
f 29/1/30 30/1/30 46/1/30 45/1/30
f 30/1/31 31/1/31 47/1/31 46/1/31
f 31/1/32 32/1/32 48/1/32 47/1/32
f 32/1/33 18/1/33 34/1/33 48/1/33
f 49/2/34 50/2/34 51/2/34 52/2/34 53/2/34 54/2/34 55/2/34 56/2/34 57/2/34 58/2/34 59/2/34 60/2/34 61/2/34 62/2/34 63/2/34 64/2/34
f 34/1/35 33/1/35 50/1/35 49/1/35
f 33/1/36 35/1/36 51/1/36 50/1/36
f 35/1/37 36/1/37 52/1/37 51/1/37
f 36/1/38 37/1/38 53/1/38 52/1/38
f 37/1/39 38/1/39 54/1/39 53/1/39
f 38/1/40 39/1/40 55/1/40 54/1/40
f 39/1/41 40/1/41 56/1/41 55/1/41
f 40/1/42 41/1/42 57/1/42 56/1/42
f 41/1/43 42/1/43 58/1/43 57/1/43
f 42/1/44 43/1/44 59/1/44 58/1/44
f 43/1/45 44/1/45 60/1/45 59/1/45
f 44/1/46 45/1/46 61/1/46 60/1/46
f 45/1/47 46/1/47 62/1/47 61/1/47
f 46/1/48 47/1/48 63/1/48 62/1/48
f 47/1/49 48/1/49 64/1/49 63/1/49
f 48/1/50 34/1/50 49/1/50 64/1/50
f 65/3/1 66/3/1 67/3/1 68/3/1 69/3/1 70/3/1 71/3/1 72/3/1 73/3/1 74/3/1 75/3/1 76/3/1 77/3/1 78/3/1 79/3/1 80/3/1
f 80/3/2 79/3/2 81/3/2 82/3/2
f 79/3/3 78/3/3 83/3/3 81/3/3
f 78/3/4 77/3/4 84/3/4 83/3/4
f 77/3/5 76/3/5 85/3/5 84/3/5
f 76/3/6 75/3/6 86/3/6 85/3/6
f 75/3/7 74/3/7 87/3/7 86/3/7
f 74/3/8 73/3/8 88/3/8 87/3/8
f 73/3/9 72/3/9 89/3/9 88/3/9
f 72/3/10 71/3/10 90/3/10 89/3/10
f 71/3/11 70/3/11 91/3/11 90/3/11
f 70/3/12 69/3/12 92/3/12 91/3/12
f 69/3/13 68/3/13 93/3/13 92/3/13
f 68/3/14 67/3/14 94/3/14 93/3/14
f 67/3/15 66/3/15 95/3/15 94/3/15
f 66/3/16 65/3/16 96/3/16 95/3/16
f 65/3/17 80/3/17 82/3/17 96/3/17
f 82/3/18 81/3/18 97/3/18 98/3/18
f 81/3/19 83/3/19 99/3/19 97/3/19
f 83/3/20 84/3/20 100/3/20 99/3/20
f 84/3/21 85/3/21 101/3/21 100/3/21
f 85/3/22 86/3/22 102/3/22 101/3/22
f 86/3/23 87/3/23 103/3/23 102/3/23
f 87/3/24 88/3/24 104/3/24 103/3/24
f 88/3/25 89/3/25 105/3/25 104/3/25
f 89/3/26 90/3/26 106/3/26 105/3/26
f 90/3/27 91/3/27 107/3/27 106/3/27
f 91/3/28 92/3/28 108/3/28 107/3/28
f 92/3/29 93/3/29 109/3/29 108/3/29
f 93/3/30 94/3/30 110/3/30 109/3/30
f 94/3/31 95/3/31 111/3/31 110/3/31
f 95/3/32 96/3/32 112/3/32 111/3/32
f 96/3/33 82/3/33 98/3/33 112/3/33
f 113/4/34 114/4/34 115/4/34 116/4/34 117/4/34 118/4/34 119/4/34 120/4/34 121/4/34 122/4/34 123/4/34 124/4/34 125/4/34 126/4/34 127/4/34 128/4/34
f 98/3/35 97/3/35 114/3/35 113/3/35
f 97/3/36 99/3/36 115/3/36 114/3/36
f 99/3/37 100/3/37 116/3/37 115/3/37
f 100/3/38 101/3/38 117/3/38 116/3/38
f 101/3/39 102/3/39 118/3/39 117/3/39
f 102/3/40 103/3/40 119/3/40 118/3/40
f 103/3/41 104/3/41 120/3/41 119/3/41
f 104/3/42 105/3/42 121/3/42 120/3/42
f 105/3/43 106/3/43 122/3/43 121/3/43
f 106/3/44 107/3/44 123/3/44 122/3/44
f 107/3/45 108/3/45 124/3/45 123/3/45
f 108/3/46 109/3/46 125/3/46 124/3/46
f 109/3/47 110/3/47 126/3/47 125/3/47
f 110/3/48 111/3/48 127/3/48 126/3/48
f 111/3/49 112/3/49 128/3/49 127/3/49
f 112/3/50 98/3/50 113/3/50 128/3/50
f 129/2/51 130/2/51 131/2/51 132/2/51 133/2/51 134/2/51
f 135/2/52 136/2/52 137/2/52 138/2/52 139/2/52 140/2/52
f 134/2/53 133/2/53 141/2/53 142/2/53
f 133/2/54 132/2/54 143/2/54 141/2/54
f 132/2/55 131/2/55 144/2/55 143/2/55
f 131/2/56 130/2/56 145/2/56 144/2/56
f 130/2/57 129/2/57 146/2/57 145/2/57
f 129/2/58 134/2/58 142/2/58 146/2/58
f 142/2/59 141/2/59 136/2/59 135/2/59
f 141/2/60 143/2/60 137/2/60 136/2/60
f 143/2/61 144/2/61 138/2/61 137/2/61
f 144/2/62 145/2/62 139/2/62 138/2/62
f 145/2/63 146/2/63 140/2/63 139/2/63
f 146/2/64 142/2/64 135/2/64 140/2/64
f 147/5/1 148/5/1 149/5/1 150/5/1 151/5/1 152/5/1
f 153/5/34 154/5/34 155/5/34 156/5/34 157/5/34 158/5/34
f 152/5/65 151/5/65 159/5/65 160/5/65
f 151/5/66 150/5/66 161/5/66 159/5/66
f 150/5/67 149/5/67 162/5/67 161/5/67
f 149/5/68 148/5/68 163/5/68 162/5/68
f 148/5/69 147/5/69 164/5/69 163/5/69
f 147/5/70 152/5/70 160/5/70 164/5/70
f 160/5/71 159/5/71 154/5/71 153/5/71
f 159/5/72 161/5/72 155/5/72 154/5/72
f 161/5/73 162/5/73 156/5/73 155/5/73
f 162/5/74 163/5/74 157/5/74 156/5/74
f 163/5/75 164/5/75 158/5/75 157/5/75
f 164/5/76 160/5/76 153/5/76 158/5/76
f 165/2/77 166/2/77 167/2/77 168/2/77 169/2/77 170/2/77
f 171/2/78 172/2/78 173/2/78 174/2/78 175/2/78 176/2/78
f 170/2/79 169/2/79 177/2/79 178/2/79
f 169/2/80 168/2/80 179/2/80 177/2/80
f 168/2/81 167/2/81 180/2/81 179/2/81
f 167/2/82 166/2/82 181/2/82 180/2/82
f 166/2/83 165/2/83 182/2/83 181/2/83
f 165/2/84 170/2/84 178/2/84 182/2/84
f 178/2/85 177/2/85 172/2/85 171/2/85
f 177/2/86 179/2/86 173/2/86 172/2/86
f 179/2/87 180/2/87 174/2/87 173/2/87
f 180/2/88 181/2/88 175/2/88 174/2/88
f 181/2/89 182/2/89 176/2/89 175/2/89
f 182/2/90 178/2/90 171/2/90 176/2/90
f 183/5/1 184/5/1 185/5/1 186/5/1 187/5/1 188/5/1
f 189/5/34 190/5/34 191/5/34 192/5/34 193/5/34 194/5/34
f 188/5/65 187/5/65 195/5/65 196/5/65
f 187/5/66 186/5/66 197/5/66 195/5/66
f 186/5/67 185/5/67 198/5/67 197/5/67
f 185/5/68 184/5/68 199/5/68 198/5/68
f 184/5/69 183/5/69 200/5/69 199/5/69
f 183/5/70 188/5/70 196/5/70 200/5/70
f 196/5/71 195/5/71 190/5/71 189/5/71
f 195/5/72 197/5/72 191/5/72 190/5/72
f 197/5/73 198/5/73 192/5/73 191/5/73
f 198/5/74 199/5/74 193/5/74 192/5/74
f 199/5/75 200/5/75 194/5/75 193/5/75
f 200/5/76 196/5/76 189/5/76 194/5/76
f 201/2/91 202/2/91 203/2/91 204/2/91 205/2/91 206/2/91
f 207/2/92 208/2/92 209/2/92 210/2/92 211/2/92 212/2/92
f 206/2/93 205/2/93 213/2/93 214/2/93
f 205/2/94 204/2/94 215/2/94 213/2/94
f 204/2/95 203/2/95 216/2/95 215/2/95
f 203/2/96 202/2/96 217/2/96 216/2/96
f 202/2/97 201/2/97 218/2/97 217/2/97
f 201/2/98 206/2/98 214/2/98 218/2/98
f 214/2/99 213/2/99 208/2/99 207/2/99
f 213/2/100 215/2/100 209/2/100 208/2/100
f 215/2/101 216/2/101 210/2/101 209/2/101
f 216/2/102 217/2/102 211/2/102 210/2/102
f 217/2/103 218/2/103 212/2/103 211/2/103
f 218/2/104 214/2/104 207/2/104 212/2/104
f 219/5/1 220/5/1 221/5/1 222/5/1 223/5/1 224/5/1
f 225/5/34 226/5/34 227/5/34 228/5/34 229/5/34 230/5/34
f 224/5/65 223/5/65 231/5/65 232/5/65
f 223/5/66 222/5/66 233/5/66 231/5/66
f 222/5/67 221/5/67 234/5/67 233/5/67
f 221/5/68 220/5/68 235/5/68 234/5/68
f 220/5/69 219/5/69 236/5/69 235/5/69
f 219/5/70 224/5/70 232/5/70 236/5/70
f 232/5/71 231/5/71 226/5/71 225/5/71
f 231/5/72 233/5/72 227/5/72 226/5/72
f 233/5/73 234/5/73 228/5/73 227/5/73
f 234/5/74 235/5/74 229/5/74 228/5/74
f 235/5/75 236/5/75 230/5/75 229/5/75
f 236/5/76 232/5/76 225/5/76 230/5/76
f 237/2/105 238/2/105 239/2/105 240/2/105 241/2/105 242/2/105
f 243/2/106 244/2/106 245/2/106 246/2/106 247/2/106 248/2/106
f 242/2/107 241/2/107 249/2/107 250/2/107
f 241/2/108 240/2/108 251/2/108 249/2/108
f 240/2/109 239/2/109 252/2/109 251/2/109
f 239/2/110 238/2/110 253/2/110 252/2/110
f 238/2/111 237/2/111 254/2/111 253/2/111
f 237/2/112 242/2/112 250/2/112 254/2/112
f 250/2/113 249/2/113 244/2/113 243/2/113
f 249/2/114 251/2/114 245/2/114 244/2/114
f 251/2/115 252/2/115 246/2/115 245/2/115
f 252/2/116 253/2/116 247/2/116 246/2/116
f 253/2/117 254/2/117 248/2/117 247/2/117
f 254/2/118 250/2/118 243/2/118 248/2/118
f 255/5/1 256/5/1 257/5/1 258/5/1 259/5/1 260/5/1
f 261/5/34 262/5/34 263/5/34 264/5/34 265/5/34 266/5/34
f 260/5/65 259/5/65 267/5/65 268/5/65
f 259/5/66 258/5/66 269/5/66 267/5/66
f 258/5/67 257/5/67 270/5/67 269/5/67
f 257/5/68 256/5/68 271/5/68 270/5/68
f 256/5/69 255/5/69 272/5/69 271/5/69
f 255/5/70 260/5/70 268/5/70 272/5/70
f 268/5/71 267/5/71 262/5/71 261/5/71
f 267/5/72 269/5/72 263/5/72 262/5/72
f 269/5/73 270/5/73 264/5/73 263/5/73
f 270/5/74 271/5/74 265/5/74 264/5/74
f 271/5/75 272/5/75 266/5/75 265/5/75
f 272/5/76 268/5/76 261/5/76 266/5/76
f 273/2/119 274/2/119 275/2/119 276/2/119 277/2/119 278/2/119
f 279/2/120 280/2/120 281/2/120 282/2/120 283/2/120 284/2/120
f 278/2/121 277/2/121 285/2/121 286/2/121
f 277/2/122 276/2/122 287/2/122 285/2/122
f 276/2/123 275/2/123 288/2/123 287/2/123
f 275/2/124 274/2/124 289/2/124 288/2/124
f 274/2/125 273/2/125 290/2/125 289/2/125
f 273/2/126 278/2/126 286/2/126 290/2/126
f 286/2/127 285/2/127 291/2/127 292/2/127
f 285/2/128 287/2/128 293/2/128 291/2/128
f 287/2/129 288/2/129 294/2/129 293/2/129
f 288/2/130 289/2/130 295/2/130 294/2/130
f 289/2/131 290/2/131 296/2/131 295/2/131
f 290/2/132 286/2/132 292/2/132 296/2/132
f 292/2/133 291/2/133 297/2/133 298/2/133
f 291/2/134 293/2/134 299/2/134 297/2/134
f 293/2/135 294/2/135 300/2/135 299/2/135
f 294/2/136 295/2/136 301/2/136 300/2/136
f 295/2/137 296/2/137 302/2/137 301/2/137
f 296/2/138 292/2/138 298/2/138 302/2/138
f 298/2/139 297/2/139 303/2/139 304/2/139
f 297/2/140 299/2/140 305/2/140 303/2/140
f 299/2/141 300/2/141 306/2/141 305/2/141
f 300/2/142 301/2/142 307/2/142 306/2/142
f 301/2/143 302/2/143 308/2/143 307/2/143
f 302/2/144 298/2/144 304/2/144 308/2/144
f 304/2/145 303/2/145 309/2/145 310/2/145
f 303/2/146 305/2/146 311/2/146 309/2/146
f 305/2/147 306/2/147 312/2/147 311/2/147
f 306/2/148 307/2/148 313/2/148 312/2/148
f 307/2/149 308/2/149 314/2/149 313/2/149
f 308/2/150 304/2/150 310/2/150 314/2/150
f 310/2/151 309/2/151 315/2/151 316/2/151
f 309/2/152 311/2/152 317/2/152 315/2/152
f 311/2/153 312/2/153 318/2/153 317/2/153
f 312/2/154 313/2/154 319/2/154 318/2/154
f 313/2/155 314/2/155 320/2/155 319/2/155
f 314/2/156 310/2/156 316/2/156 320/2/156
f 316/2/157 315/2/157 321/2/157 322/2/157
f 315/2/158 317/2/158 323/2/158 321/2/158
f 317/2/159 318/2/159 324/2/159 323/2/159
f 318/2/160 319/2/160 325/2/160 324/2/160
f 319/2/161 320/2/161 326/2/161 325/2/161
f 320/2/162 316/2/162 322/2/162 326/2/162
f 322/2/163 321/2/163 327/2/163 328/2/163
f 321/2/164 323/2/164 329/2/164 327/2/164
f 323/2/165 324/2/165 330/2/165 329/2/165
f 324/2/166 325/2/166 331/2/166 330/2/166
f 325/2/167 326/2/167 332/2/167 331/2/167
f 326/2/168 322/2/168 328/2/168 332/2/168
f 328/2/169 327/2/169 333/2/169 334/2/169
f 327/2/170 329/2/170 335/2/170 333/2/170
f 329/2/171 330/2/171 336/2/171 335/2/171
f 330/2/172 331/2/172 337/2/172 336/2/172
f 331/2/173 332/2/173 338/2/173 337/2/173
f 332/2/174 328/2/174 334/2/174 338/2/174
f 334/2/175 333/2/175 339/2/175 340/2/175
f 333/2/176 335/2/176 341/2/176 339/2/176
f 335/2/177 336/2/177 342/2/177 341/2/177
f 336/2/178 337/2/178 343/2/178 342/2/178
f 337/2/179 338/2/179 344/2/179 343/2/179
f 338/2/180 334/2/180 340/2/180 344/2/180
f 340/2/181 339/2/181 345/2/181 346/2/181
f 339/2/182 341/2/182 347/2/182 345/2/182
f 341/2/183 342/2/183 348/2/183 347/2/183
f 342/2/184 343/2/184 349/2/184 348/2/184
f 343/2/185 344/2/185 350/2/185 349/2/185
f 344/2/186 340/2/186 346/2/186 350/2/186
f 346/2/187 345/2/187 351/2/187 352/2/187
f 345/2/188 347/2/188 353/2/188 351/2/188
f 347/2/189 348/2/189 354/2/189 353/2/189
f 348/2/190 349/2/190 355/2/190 354/2/190
f 349/2/191 350/2/191 356/2/191 355/2/191
f 350/2/192 346/2/192 352/2/192 356/2/192
f 352/2/193 351/2/193 357/2/193 358/2/193
f 351/2/194 353/2/194 359/2/194 357/2/194
f 353/2/195 354/2/195 360/2/195 359/2/195
f 354/2/196 355/2/196 361/2/196 360/2/196
f 355/2/197 356/2/197 362/2/197 361/2/197
f 356/2/198 352/2/198 358/2/198 362/2/198
f 358/2/199 357/2/199 363/2/199 364/2/199
f 357/2/200 359/2/200 365/2/200 363/2/200
f 359/2/201 360/2/201 366/2/201 365/2/201
f 360/2/202 361/2/202 367/2/202 366/2/202
f 361/2/203 362/2/203 368/2/203 367/2/203
f 362/2/204 358/2/204 364/2/204 368/2/204
f 364/2/205 363/2/205 369/2/205 370/2/205
f 363/2/206 365/2/206 371/2/206 369/2/206
f 365/2/207 366/2/207 372/2/207 371/2/207
f 366/2/208 367/2/208 373/2/208 372/2/208
f 367/2/209 368/2/209 374/2/209 373/2/209
f 368/2/210 364/2/210 370/2/210 374/2/210
f 370/2/211 369/2/211 375/2/211 376/2/211
f 369/2/212 371/2/212 377/2/212 375/2/212
f 371/2/213 372/2/213 378/2/213 377/2/213
f 372/2/214 373/2/214 379/2/214 378/2/214
f 373/2/215 374/2/215 380/2/215 379/2/215
f 374/2/216 370/2/216 376/2/216 380/2/216
f 376/2/217 375/2/217 381/2/217 382/2/217
f 375/2/218 377/2/218 383/2/218 381/2/218
f 377/2/219 378/2/219 384/2/219 383/2/219
f 378/2/220 379/2/220 385/2/220 384/2/220
f 379/2/221 380/2/221 386/2/221 385/2/221
f 380/2/222 376/2/222 382/2/222 386/2/222
f 382/2/223 381/2/223 280/2/223 279/2/223
f 381/2/224 383/2/224 281/2/224 280/2/224
f 383/2/225 384/2/225 282/2/225 281/2/225
f 384/2/226 385/2/226 283/2/226 282/2/226
f 385/2/227 386/2/227 284/2/227 283/2/227
f 386/2/228 382/2/228 279/2/228 284/2/228
f 387/6/229 388/6/229 389/6/229 390/6/229
f 388/6/230 391/6/230 392/6/230 389/6/230
f 391/6/231 393/6/231 394/6/231 392/6/231
f 393/6/232 395/6/232 396/6/232 394/6/232
f 395/6/233 397/6/233 398/6/233 396/6/233
f 397/6/234 387/6/234 390/6/234 398/6/234
f 390/6/235 389/6/235 399/6/235 400/6/235
f 389/6/236 392/6/236 401/6/236 399/6/236
f 392/6/237 394/6/237 402/6/237 401/6/237
f 394/6/238 396/6/238 403/6/238 402/6/238
f 396/6/239 398/6/239 404/6/239 403/6/239
f 398/6/240 390/6/240 400/6/240 404/6/240
f 400/6/241 399/6/241 405/6/241 406/6/241
f 399/6/242 401/6/242 407/6/242 405/6/242
f 401/6/243 402/6/243 408/6/243 407/6/243
f 402/6/244 403/6/244 409/6/244 408/6/244
f 403/6/245 404/6/245 410/6/245 409/6/245
f 404/6/246 400/6/246 406/6/246 410/6/246
f 406/6/247 405/6/247 411/6/247 412/6/247
f 405/6/248 407/6/248 413/6/248 411/6/248
f 407/6/249 408/6/249 414/6/249 413/6/249
f 408/6/250 409/6/250 415/6/250 414/6/250
f 409/6/251 410/6/251 416/6/251 415/6/251
f 410/6/252 406/6/252 412/6/252 416/6/252
f 412/6/253 411/6/253 417/6/253 418/6/253
f 411/6/254 413/6/254 419/6/254 417/6/254
f 413/6/255 414/6/255 420/6/255 419/6/255
f 414/6/256 415/6/256 421/6/256 420/6/256
f 415/6/257 416/6/257 422/6/257 421/6/257
f 416/6/258 412/6/258 418/6/258 422/6/258
f 418/6/259 417/6/259 423/6/259 424/6/259
f 417/6/260 419/6/260 425/6/260 423/6/260
f 419/6/261 420/6/261 426/6/261 425/6/261
f 420/6/262 421/6/262 427/6/262 426/6/262
f 421/6/263 422/6/263 428/6/263 427/6/263
f 422/6/264 418/6/264 424/6/264 428/6/264
f 424/6/265 423/6/265 429/6/265 430/6/265
f 423/6/266 425/6/266 431/6/266 429/6/266
f 425/6/267 426/6/267 432/6/267 431/6/267
f 426/6/268 427/6/268 433/6/268 432/6/268
f 427/6/269 428/6/269 434/6/269 433/6/269
f 428/6/270 424/6/270 430/6/270 434/6/270
f 430/6/271 429/6/271 435/6/271 436/6/271
f 429/6/272 431/6/272 437/6/272 435/6/272
f 431/6/273 432/6/273 438/6/273 437/6/273
f 432/6/274 433/6/274 439/6/274 438/6/274
f 433/6/275 434/6/275 440/6/275 439/6/275
f 434/6/276 430/6/276 436/6/276 440/6/276
f 436/6/277 435/6/277 441/6/277 442/6/277
f 435/6/278 437/6/278 443/6/278 441/6/278
f 437/6/279 438/6/279 444/6/279 443/6/279
f 438/6/280 439/6/280 445/6/280 444/6/280
f 439/6/281 440/6/281 446/6/281 445/6/281
f 440/6/282 436/6/282 442/6/282 446/6/282
f 442/6/283 441/6/283 447/6/283 448/6/283
f 441/6/284 443/6/284 449/6/284 447/6/284
f 443/6/285 444/6/285 450/6/285 449/6/285
f 444/6/286 445/6/286 451/6/286 450/6/286
f 445/6/287 446/6/287 452/6/287 451/6/287
f 446/6/288 442/6/288 448/6/288 452/6/288
f 448/6/289 447/6/289 453/6/289 454/6/289
f 447/6/290 449/6/290 455/6/290 453/6/290
f 449/6/291 450/6/291 456/6/291 455/6/291
f 450/6/292 451/6/292 457/6/292 456/6/292
f 451/6/293 452/6/293 458/6/293 457/6/293
f 452/6/294 448/6/294 454/6/294 458/6/294
f 454/6/295 453/6/295 459/6/295 460/6/295
f 453/6/296 455/6/296 461/6/296 459/6/296
f 455/6/297 456/6/297 462/6/297 461/6/297
f 456/6/298 457/6/298 463/6/298 462/6/298
f 457/6/299 458/6/299 464/6/299 463/6/299
f 458/6/300 454/6/300 460/6/300 464/6/300
f 460/6/301 459/6/301 465/6/301 466/6/301
f 459/6/302 461/6/302 467/6/302 465/6/302
f 461/6/303 462/6/303 468/6/303 467/6/303
f 462/6/304 463/6/304 469/6/304 468/6/304
f 463/6/305 464/6/305 470/6/305 469/6/305
f 464/6/306 460/6/306 466/6/306 470/6/306
f 466/6/307 465/6/307 471/6/307 472/6/307
f 465/6/308 467/6/308 473/6/308 471/6/308
f 467/6/309 468/6/309 474/6/309 473/6/309
f 468/6/310 469/6/310 475/6/310 474/6/310
f 469/6/311 470/6/311 476/6/311 475/6/311
f 470/6/312 466/6/312 472/6/312 476/6/312
f 472/6/313 471/6/313 477/6/313 478/6/313
f 471/6/314 473/6/314 479/6/314 477/6/314
f 473/6/315 474/6/315 480/6/315 479/6/315
f 474/6/316 475/6/316 481/6/316 480/6/316
f 475/6/317 476/6/317 482/6/317 481/6/317
f 476/6/318 472/6/318 478/6/318 482/6/318
f 478/6/319 477/6/319 483/6/319 484/6/319
f 477/6/320 479/6/320 485/6/320 483/6/320
f 479/6/321 480/6/321 486/6/321 485/6/321
f 480/6/322 481/6/322 487/6/322 486/6/322
f 481/6/323 482/6/323 488/6/323 487/6/323
f 482/6/324 478/6/324 484/6/324 488/6/324
f 484/6/325 483/6/325 489/6/325 490/6/325
f 483/6/326 485/6/326 491/6/326 489/6/326
f 485/6/327 486/6/327 492/6/327 491/6/327
f 486/6/328 487/6/328 493/6/328 492/6/328
f 487/6/329 488/6/329 494/6/329 493/6/329
f 488/6/330 484/6/330 490/6/330 494/6/330
f 490/6/331 489/6/331 495/6/331 496/6/331
f 489/6/332 491/6/332 497/6/332 495/6/332
f 491/6/333 492/6/333 498/6/333 497/6/333
f 492/6/334 493/6/334 499/6/334 498/6/334
f 493/6/335 494/6/335 500/6/335 499/6/335
f 494/6/336 490/6/336 496/6/336 500/6/336
f 501/6/337 502/6/337 503/6/337 504/6/337
f 502/6/1 505/6/1 506/6/1 503/6/1
f 505/6/338 507/6/338 508/6/338 506/6/338
f 507/6/339 509/6/339 510/6/339 508/6/339
f 509/6/34 511/6/34 512/6/34 510/6/34
f 511/6/340 501/6/340 504/6/340 512/6/340
f 504/6/341 503/6/341 513/6/341 514/6/341
f 503/6/1 506/6/1 515/6/1 513/6/1
f 506/6/342 508/6/342 516/6/342 515/6/342
f 508/6/343 510/6/343 517/6/343 516/6/343
f 510/6/34 512/6/34 518/6/34 517/6/34
f 512/6/344 504/6/344 514/6/344 518/6/344
f 514/6/345 513/6/345 519/6/345 520/6/345
f 513/6/1 515/6/1 521/6/1 519/6/1
f 515/6/346 516/6/346 522/6/346 521/6/346
f 516/6/347 517/6/347 523/6/347 522/6/347
f 517/6/34 518/6/34 524/6/34 523/6/34
f 518/6/348 514/6/348 520/6/348 524/6/348
f 520/6/349 519/6/349 525/6/349 526/6/349
f 519/6/1 521/6/1 527/6/1 525/6/1
f 521/6/350 522/6/350 528/6/350 527/6/350
f 522/6/351 523/6/351 529/6/351 528/6/351
f 523/6/34 524/6/34 530/6/34 529/6/34
f 524/6/352 520/6/352 526/6/352 530/6/352
f 526/6/353 525/6/353 531/6/353 532/6/353
f 525/6/1 527/6/1 533/6/1 531/6/1
f 527/6/354 528/6/354 534/6/354 533/6/354
f 528/6/355 529/6/355 535/6/355 534/6/355
f 529/6/34 530/6/34 536/6/34 535/6/34
f 530/6/356 526/6/356 532/6/356 536/6/356
f 532/6/357 531/6/357 537/6/357 538/6/357
f 531/6/1 533/6/1 539/6/1 537/6/1
f 533/6/358 534/6/358 540/6/358 539/6/358
f 534/6/359 535/6/359 541/6/359 540/6/359
f 535/6/34 536/6/34 542/6/34 541/6/34
f 536/6/360 532/6/360 538/6/360 542/6/360
f 538/6/361 537/6/361 543/6/361 544/6/361
f 537/6/1 539/6/1 545/6/1 543/6/1
f 539/6/362 540/6/362 546/6/362 545/6/362
f 540/6/363 541/6/363 547/6/363 546/6/363
f 541/6/34 542/6/34 548/6/34 547/6/34
f 542/6/364 538/6/364 544/6/364 548/6/364
f 544/6/365 543/6/365 549/6/365 550/6/365
f 543/6/1 545/6/1 551/6/1 549/6/1
f 545/6/366 546/6/366 552/6/366 551/6/366
f 546/6/367 547/6/367 553/6/367 552/6/367
f 547/6/34 548/6/34 554/6/34 553/6/34
f 548/6/368 544/6/368 550/6/368 554/6/368
f 550/6/369 549/6/369 555/6/369 556/6/369
f 549/6/1 551/6/1 557/6/1 555/6/1
f 551/6/370 552/6/370 558/6/370 557/6/370
f 552/6/371 553/6/371 559/6/371 558/6/371
f 553/6/34 554/6/34 560/6/34 559/6/34
f 554/6/372 550/6/372 556/6/372 560/6/372
f 556/6/373 555/6/373 561/6/373 562/6/373
f 555/6/1 557/6/1 563/6/1 561/6/1
f 557/6/374 558/6/374 564/6/374 563/6/374
f 558/6/375 559/6/375 565/6/375 564/6/375
f 559/6/34 560/6/34 566/6/34 565/6/34
f 560/6/376 556/6/376 562/6/376 566/6/376
f 562/6/377 561/6/377 567/6/377 568/6/377
f 561/6/1 563/6/1 569/6/1 567/6/1
f 563/6/378 564/6/378 570/6/378 569/6/378
f 564/6/379 565/6/379 571/6/379 570/6/379
f 565/6/34 566/6/34 572/6/34 571/6/34
f 566/6/380 562/6/380 568/6/380 572/6/380
f 568/6/381 567/6/381 573/6/381 574/6/381
f 567/6/1 569/6/1 575/6/1 573/6/1
f 569/6/382 570/6/382 576/6/382 575/6/382
f 570/6/383 571/6/383 577/6/383 576/6/383
f 571/6/34 572/6/34 578/6/34 577/6/34
f 572/6/384 568/6/384 574/6/384 578/6/384
f 574/6/385 573/6/385 579/6/385 580/6/385
f 573/6/1 575/6/1 581/6/1 579/6/1
f 575/6/386 576/6/386 582/6/386 581/6/386
f 576/6/387 577/6/387 583/6/387 582/6/387
f 577/6/34 578/6/34 584/6/34 583/6/34
f 578/6/388 574/6/388 580/6/388 584/6/388
f 580/6/389 579/6/389 585/6/389 586/6/389
f 579/6/1 581/6/1 587/6/1 585/6/1
f 581/6/390 582/6/390 588/6/390 587/6/390
f 582/6/391 583/6/391 589/6/391 588/6/391
f 583/6/34 584/6/34 590/6/34 589/6/34
f 584/6/392 580/6/392 586/6/392 590/6/392
f 586/6/393 585/6/393 591/6/393 592/6/393
f 585/6/1 587/6/1 593/6/1 591/6/1
f 587/6/394 588/6/394 594/6/394 593/6/394
f 588/6/395 589/6/395 595/6/395 594/6/395
f 589/6/34 590/6/34 596/6/34 595/6/34
f 590/6/396 586/6/396 592/6/396 596/6/396
