# Blender 5.2.0 LTS
# www.blender.org
mtllib FN_Chair_Hanging_Egg.mtl
o FN_Chair_Hanging_Egg
v -0.225958 0.058042 0.480000
v -0.250000 0.068000 0.480000
v -0.274042 0.058042 0.480000
v -0.284000 0.034000 0.480000
v -0.274042 0.009958 0.480000
v -0.250000 0.000000 0.480000
v -0.225958 0.009958 0.480000
v -0.216000 0.034000 0.480000
v -0.216000 0.034000 -0.480000
v -0.225958 0.009958 -0.480000
v -0.250000 0.000000 -0.480000
v -0.274042 0.009958 -0.480000
v -0.284000 0.034000 -0.480000
v -0.274042 0.058042 -0.480000
v -0.250000 0.068000 -0.480000
v -0.225958 0.058042 -0.480000
v 0.274042 0.058042 0.480000
v 0.250000 0.068000 0.480000
v 0.225958 0.058042 0.480000
v 0.216000 0.034000 0.480000
v 0.225958 0.009958 0.480000
v 0.250000 0.000000 0.480000
v 0.274042 0.009958 0.480000
v 0.284000 0.034000 0.480000
v 0.284000 0.034000 -0.480000
v 0.274042 0.009958 -0.480000
v 0.250000 0.000000 -0.480000
v 0.225958 0.009958 -0.480000
v 0.216000 0.034000 -0.480000
v 0.225958 0.058042 -0.480000
v 0.250000 0.068000 -0.480000
v 0.274042 0.058042 -0.480000
v -0.250000 0.058042 0.464042
v -0.250000 0.068000 0.440000
v -0.250000 0.058042 0.415958
v -0.250000 0.034000 0.406000
v -0.250000 0.009958 0.415958
v -0.250000 0.000000 0.440000
v -0.250000 0.009958 0.464042
v -0.250000 0.034000 0.474000
v 0.250000 0.034000 0.474000
v 0.250000 0.009958 0.464042
v 0.250000 0.000000 0.440000
v 0.250000 0.009958 0.415958
v 0.250000 0.034000 0.406000
v 0.250000 0.058042 0.415958
v 0.250000 0.068000 0.440000
v 0.250000 0.058042 0.464042
v -0.250000 0.058042 -0.415958
v -0.250000 0.068000 -0.440000
v -0.250000 0.058042 -0.464042
v -0.250000 0.034000 -0.474000
v -0.250000 0.009958 -0.464042
v -0.250000 0.000000 -0.440000
v -0.250000 0.009958 -0.415958
v -0.250000 0.034000 -0.406000
v 0.250000 0.034000 -0.406000
v 0.250000 0.009958 -0.415958
v 0.250000 0.000000 -0.440000
v 0.250000 0.009958 -0.464042
v 0.250000 0.034000 -0.474000
v 0.250000 0.058042 -0.464042
v 0.250000 0.068000 -0.440000
v 0.250000 0.058042 -0.415958
v -0.019000 0.024496 -0.473056
v 0.019000 0.024496 -0.473056
v 0.038000 0.024001 -0.440150
v 0.019000 0.023506 -0.407245
v -0.019000 0.023506 -0.407245
v -0.038000 0.024001 -0.440150
v -0.036000 0.708999 -0.429850
v -0.018000 0.708530 -0.398676
v 0.018000 0.708530 -0.398676
v 0.036000 0.708999 -0.429850
v 0.018000 0.709468 -0.461023
v -0.018000 0.709468 -0.461023
v -0.018000 0.693384 -0.462256
v 0.018000 0.693384 -0.462256
v 0.036000 0.689095 -0.431376
v 0.018000 0.684806 -0.400495
v -0.018000 0.684806 -0.400495
v -0.036000 0.689095 -0.431376
v -0.034000 1.068905 -0.378624
v -0.017000 1.064854 -0.349459
v 0.017000 1.064854 -0.349459
v 0.034000 1.068905 -0.378624
v 0.017000 1.072956 -0.407789
v -0.017000 1.072956 -0.407789
v -0.017000 1.059975 -0.411081
v 0.017000 1.059975 -0.411081
v 0.034000 1.049637 -0.383511
v 0.017000 1.039298 -0.355941
v -0.017000 1.039298 -0.355941
v -0.034000 1.049637 -0.383511
v -0.032000 1.308363 -0.286489
v -0.016000 1.298633 -0.260540
v 0.016000 1.298633 -0.260540
v 0.032000 1.308363 -0.286489
v 0.016000 1.318094 -0.312437
v -0.016000 1.318094 -0.312437
v -0.016000 1.311525 -0.316667
v 0.016000 1.311525 -0.316667
v 0.032000 1.291929 -0.297071
v 0.016000 1.272333 -0.277475
v -0.016000 1.272333 -0.277475
v -0.032000 1.291929 -0.297071
v -0.030000 1.466071 -0.122929
v -0.015000 1.447700 -0.104558
v 0.015000 1.447700 -0.104558
v 0.030000 1.466071 -0.122929
v 0.015000 1.484442 -0.141300
v -0.015000 1.484442 -0.141300
v -0.015000 1.479331 -0.149017
v 0.015000 1.479331 -0.149017
v 0.030000 1.455248 -0.139269
v 0.015000 1.431165 -0.129522
v -0.015000 1.431165 -0.129522
v -0.030000 1.455248 -0.139269
v -0.028000 1.547752 0.089269
v -0.014000 1.525275 0.098367
v 0.014000 1.525275 0.098367
v 0.028000 1.547752 0.089269
v 0.014000 1.570229 0.080172
v -0.014000 1.570229 0.080172
v -0.014000 1.566965 0.067326
v 0.014000 1.566965 0.067326
v 0.028000 1.542871 0.070064
v 0.014000 1.518777 0.072802
v -0.014000 1.518777 0.072802
v -0.028000 1.542871 0.070064
v -0.028000 1.570129 0.309936
v -0.014000 1.546035 0.312674
v 0.014000 1.546035 0.312674
v 0.028000 1.570129 0.309936
v 0.014000 1.594223 0.307198
v -0.014000 1.594223 0.307198
v -0.006000 1.149000 0.239608
v 0.006000 1.149000 0.239608
v 0.012000 1.149000 0.250000
v 0.006000 1.149000 0.260392
v -0.006000 1.149000 0.260392
v -0.012000 1.149000 0.250000
v -0.012000 1.559000 0.250000
v -0.006000 1.559000 0.260392
v 0.006000 1.559000 0.260392
v 0.012000 1.559000 0.250000
v 0.006000 1.559000 0.239608
v -0.006000 1.559000 0.239608
v 0.070000 0.779000 -0.280000
v 0.060622 0.814000 -0.280000
v 0.233827 0.914000 -0.170000
v 0.270000 0.779000 -0.170000
v 0.035000 0.839622 -0.280000
v 0.135000 1.012827 -0.170000
v 0.000000 0.849000 -0.280000
v 0.000000 1.049000 -0.170000
v -0.035000 0.839622 -0.280000
v -0.135000 1.012827 -0.170000
v -0.060622 0.814000 -0.280000
v -0.233827 0.914000 -0.170000
v -0.070000 0.779000 -0.280000
v -0.270000 0.779000 -0.170000
v -0.060622 0.744000 -0.280000
v -0.233827 0.644000 -0.170000
v -0.035000 0.718378 -0.280000
v -0.135000 0.545173 -0.170000
v -0.000000 0.709000 -0.280000
v -0.000000 0.509000 -0.170000
v 0.035000 0.718378 -0.280000
v 0.135000 0.545173 -0.170000
v 0.060622 0.744000 -0.280000
v 0.233827 0.644000 -0.170000
v 0.210000 0.779000 -0.170000
v 0.181865 0.884000 -0.170000
v 0.008660 0.784000 -0.280000
v 0.010000 0.779000 -0.280000
v 0.105000 0.960865 -0.170000
v 0.005000 0.787660 -0.280000
v 0.000000 0.989000 -0.170000
v 0.000000 0.789000 -0.280000
v -0.105000 0.960865 -0.170000
v -0.005000 0.787660 -0.280000
v -0.181865 0.884000 -0.170000
v -0.008660 0.784000 -0.280000
v -0.210000 0.779000 -0.170000
v -0.010000 0.779000 -0.280000
v -0.181865 0.674000 -0.170000
v -0.008660 0.774000 -0.280000
v -0.105000 0.597135 -0.170000
v -0.005000 0.770340 -0.280000
v -0.000000 0.569000 -0.170000
v -0.000000 0.769000 -0.280000
v 0.105000 0.597135 -0.170000
v 0.005000 0.770340 -0.280000
v 0.181865 0.674000 -0.170000
v 0.008660 0.774000 -0.280000
v 0.346410 0.979000 -0.010000
v 0.400000 0.779000 -0.010000
v 0.200000 1.125410 -0.010000
v 0.000000 1.179000 -0.010000
v -0.200000 1.125410 -0.010000
v -0.346410 0.979000 -0.010000
v -0.400000 0.779000 -0.010000
v -0.346410 0.579000 -0.010000
v -0.200000 0.432590 -0.010000
v -0.000000 0.379000 -0.010000
v 0.200000 0.432590 -0.010000
v 0.346410 0.579000 -0.010000
v 0.340000 0.779000 -0.010000
v 0.294449 0.949000 -0.010000
v 0.170000 1.073449 -0.010000
v 0.000000 1.119000 -0.010000
v -0.170000 1.073449 -0.010000
v -0.294449 0.949000 -0.010000
v -0.340000 0.779000 -0.010000
v -0.294449 0.609000 -0.010000
v -0.170000 0.484551 -0.010000
v -0.000000 0.439000 -0.010000
v 0.170000 0.484551 -0.010000
v 0.294449 0.609000 -0.010000
v 0.370659 0.993000 0.140000
v 0.428000 0.779000 0.140000
v 0.214000 1.149659 0.140000
v 0.000000 1.207000 0.140000
v -0.214000 1.149659 0.140000
v -0.370659 0.993000 0.140000
v -0.428000 0.779000 0.140000
v -0.370659 0.565000 0.140000
v -0.214000 0.408341 0.140000
v -0.000000 0.351000 0.140000
v 0.214000 0.408341 0.140000
v 0.370659 0.565000 0.140000
v 0.368000 0.779000 0.140000
v 0.318697 0.963000 0.140000
v 0.184000 1.097697 0.140000
v 0.000000 1.147000 0.140000
v -0.184000 1.097697 0.140000
v -0.318697 0.963000 0.140000
v -0.368000 0.779000 0.140000
v -0.318697 0.595000 0.140000
v -0.184000 0.460303 0.140000
v -0.000000 0.411000 0.140000
v 0.184000 0.460303 0.140000
v 0.318697 0.595000 0.140000
v 0.346410 0.979000 0.310000
v 0.400000 0.779000 0.310000
v 0.200000 1.125410 0.310000
v 0.000000 1.179000 0.310000
v -0.200000 1.125410 0.310000
v -0.346410 0.979000 0.310000
v -0.400000 0.779000 0.310000
v -0.346410 0.579000 0.310000
v -0.200000 0.432590 0.310000
v -0.000000 0.379000 0.310000
v 0.200000 0.432590 0.310000
v 0.346410 0.579000 0.310000
v 0.340000 0.779000 0.310000
v 0.294449 0.949000 0.310000
v 0.170000 1.073449 0.310000
v 0.000000 1.119000 0.310000
v -0.170000 1.073449 0.310000
v -0.294449 0.949000 0.310000
v -0.340000 0.779000 0.310000
v -0.294449 0.609000 0.310000
v -0.170000 0.484551 0.310000
v -0.000000 0.439000 0.310000
v 0.170000 0.484551 0.310000
v 0.294449 0.609000 0.310000
v 0.194164 0.509000 0.223130
v 0.074164 0.509000 0.308498
v -0.074164 0.509000 0.308498
v -0.194164 0.509000 0.223130
v -0.240000 0.509000 0.085000
v -0.194164 0.509000 -0.053130
v -0.074164 0.509000 -0.138498
v 0.074164 0.509000 -0.138498
v 0.194164 0.509000 -0.053130
v 0.240000 0.509000 0.085000
v 0.240000 0.599000 0.085000
v 0.194164 0.599000 -0.053130
v 0.074164 0.599000 -0.138498
v -0.074164 0.599000 -0.138498
v -0.194164 0.599000 -0.053130
v -0.240000 0.599000 0.085000
v -0.194164 0.599000 0.223130
v -0.074164 0.599000 0.308498
v 0.074164 0.599000 0.308498
v 0.194164 0.599000 0.223130
vn -0.0000 -0.0000 1.0000
vn -0.0000 -0.0000 -1.0000
vn 0.9239 -0.3827 -0.0000
vn 0.3827 -0.9239 -0.0000
vn -0.3827 -0.9239 -0.0000
vn -0.9239 -0.3827 -0.0000
vn -0.9239 0.3827 -0.0000
vn -0.3827 0.9239 -0.0000
vn 0.3827 0.9239 -0.0000
vn 0.9239 0.3827 -0.0000
vn -1.0000 -0.0000 -0.0000
vn 1.0000 -0.0000 -0.0000
vn -0.0000 -0.3827 0.9239
vn -0.0000 -0.9239 0.3827
vn -0.0000 -0.9239 -0.3827
vn -0.0000 -0.3827 -0.9239
vn -0.0000 0.3827 -0.9239
vn -0.0000 0.9239 -0.3827
vn -0.0000 0.9239 0.3827
vn -0.0000 0.3827 0.9239
vn -0.0000 -0.9999 -0.0150
vn -0.0000 0.9999 0.0150
vn -0.8660 -0.0050 0.5000
vn -0.0000 -0.0125 0.9999
vn 0.8660 -0.0050 0.5000
vn 0.8660 0.0100 -0.4999
vn -0.0000 0.0176 -0.9998
vn -0.8660 0.0100 -0.4999
vn -0.0000 -0.9905 -0.1376
vn -0.0000 0.9905 0.1376
vn -0.8660 -0.0643 0.4959
vn -0.0000 -0.1331 0.9911
vn 0.8660 -0.0643 0.4959
vn 0.8660 0.0733 -0.4946
vn -0.0000 0.1420 -0.9899
vn -0.8660 0.0733 -0.4946
vn -0.0000 -0.9363 -0.3511
vn -0.0000 0.9363 0.3511
vn -0.8660 -0.1697 0.4704
vn -0.0000 -0.3452 0.9385
vn 0.8660 -0.1697 0.4704
vn 0.8660 0.1814 -0.4660
vn -0.0000 0.3570 -0.9341
vn -0.8660 0.1814 -0.4660
vn -0.0000 -0.7071 -0.7071
vn -0.0000 0.7071 0.7071
vn -0.8660 -0.3486 0.3585
vn -0.0000 -0.7021 0.7121
vn 0.8660 -0.3486 0.3585
vn 0.8660 0.3585 -0.3486
vn -0.0000 0.7121 -0.7021
vn -0.8660 0.3585 -0.3486
vn -0.0000 -0.3752 -0.9269
vn -0.0000 0.3752 0.9269
vn -0.8660 -0.4608 0.1941
vn -0.0000 -0.9243 0.3817
vn 0.8660 -0.4608 0.1941
vn 0.8660 0.4661 -0.1811
vn -0.0000 0.9296 -0.3687
vn -0.8660 0.4661 -0.1811
vn -0.0000 -0.1129 -0.9936
vn -0.0000 0.1129 0.9936
vn -0.8660 -0.4968 0.0565
vn -0.0000 -0.9936 0.1129
vn 0.8660 -0.4968 0.0565
vn 0.8660 0.4968 -0.0565
vn -0.0000 0.9936 -0.1129
vn -0.8660 0.4968 -0.0565
vn -0.0000 -1.0000 -0.0000
vn -0.0000 1.0000 -0.0000
vn -0.8660 -0.0000 0.5000
vn 0.8660 -0.0000 0.5000
vn 0.8660 -0.0000 -0.5000
vn -0.8660 -0.0000 -0.5000
vn 0.4780 0.1281 -0.8690
vn 0.3499 0.3499 -0.8690
vn 0.1281 0.4780 -0.8690
vn -0.1281 0.4780 -0.8690
vn -0.3499 0.3499 -0.8690
vn -0.4780 0.1281 -0.8690
vn -0.4780 -0.1281 -0.8690
vn -0.3499 -0.3499 -0.8690
vn -0.1281 -0.4780 -0.8690
vn 0.1281 -0.4780 -0.8690
vn 0.3499 -0.3499 -0.8690
vn 0.4780 -0.1281 -0.8690
vn -0.4780 -0.1281 0.8690
vn -0.3499 -0.3499 0.8690
vn -0.1281 -0.4780 0.8690
vn 0.1281 -0.4780 0.8690
vn 0.3499 -0.3499 0.8690
vn 0.4780 -0.1281 0.8690
vn 0.4780 0.1281 0.8690
vn 0.3499 0.3499 0.8690
vn 0.1281 0.4780 0.8690
vn -0.1281 0.4780 0.8690
vn -0.3499 0.3499 0.8690
vn -0.4780 0.1281 0.8690
vn 0.7599 0.2036 -0.6174
vn 0.5563 0.5563 -0.6174
vn 0.2036 0.7599 -0.6174
vn -0.2036 0.7599 -0.6174
vn -0.5563 0.5563 -0.6174
vn -0.7599 0.2036 -0.6174
vn -0.7599 -0.2036 -0.6174
vn -0.5563 -0.5563 -0.6174
vn -0.2036 -0.7599 -0.6174
vn 0.2036 -0.7599 -0.6174
vn 0.5563 -0.5563 -0.6174
vn 0.7599 -0.2036 -0.6174
vn -0.7599 -0.2036 0.6174
vn -0.5563 -0.5563 0.6174
vn -0.2036 -0.7599 0.6174
vn 0.2036 -0.7599 0.6174
vn 0.5563 -0.5563 0.6174
vn 0.7599 -0.2036 0.6174
vn 0.7599 0.2036 0.6174
vn 0.5563 0.5563 0.6174
vn 0.2036 0.7599 0.6174
vn -0.2036 0.7599 0.6174
vn -0.5563 0.5563 0.6174
vn -0.7599 0.2036 0.6174
vn 0.9506 0.2547 -0.1774
vn 0.6959 0.6959 -0.1774
vn 0.2547 0.9506 -0.1774
vn -0.2547 0.9506 -0.1774
vn -0.6959 0.6959 -0.1774
vn -0.9506 0.2547 -0.1774
vn -0.9506 -0.2547 -0.1774
vn -0.6959 -0.6959 -0.1774
vn -0.2547 -0.9506 -0.1774
vn 0.2547 -0.9506 -0.1774
vn 0.6959 -0.6959 -0.1774
vn 0.9506 -0.2547 -0.1774
vn -0.9506 -0.2547 0.1774
vn -0.6959 -0.6959 0.1774
vn -0.2547 -0.9506 0.1774
vn 0.2547 -0.9506 0.1774
vn 0.6959 -0.6959 0.1774
vn 0.9506 -0.2547 0.1774
vn 0.9506 0.2547 0.1774
vn 0.6959 0.6959 0.1774
vn 0.2547 0.9506 0.1774
vn -0.2547 0.9506 0.1774
vn -0.6959 0.6959 0.1774
vn -0.9506 0.2547 0.1774
vn 0.9539 0.2556 0.1571
vn 0.6983 0.6983 0.1571
vn 0.2556 0.9539 0.1571
vn -0.2556 0.9539 0.1571
vn -0.6983 0.6983 0.1571
vn -0.9539 0.2556 0.1571
vn -0.9539 -0.2556 0.1571
vn -0.6983 -0.6983 0.1571
vn -0.2556 -0.9539 0.1571
vn 0.2556 -0.9539 0.1571
vn 0.6983 -0.6983 0.1571
vn 0.9539 -0.2556 0.1571
vn -0.9539 -0.2556 -0.1571
vn -0.6983 -0.6983 -0.1571
vn -0.2556 -0.9539 -0.1571
vn 0.2556 -0.9539 -0.1571
vn 0.6983 -0.6983 -0.1571
vn 0.9539 -0.2556 -0.1571
vn 0.9539 0.2556 -0.1571
vn 0.6983 0.6983 -0.1571
vn 0.2556 0.9539 -0.1571
vn -0.2556 0.9539 -0.1571
vn -0.6983 0.6983 -0.1571
vn -0.9539 0.2556 -0.1571
vn 0.9491 -0.0000 -0.3149
vn 0.5797 -0.0000 -0.8148
vn -0.5797 -0.0000 -0.8148
vn -0.9491 -0.0000 -0.3149
vn -0.9491 -0.0000 0.3149
vn -0.5797 -0.0000 0.8148
vn 0.5797 -0.0000 0.8148
vn 0.9491 -0.0000 0.3149
vt 0.812500 0.312500
vt 0.687500 0.187500
vt 0.562500 0.937500
vt 0.812500 0.687500
s 0
usemtl FN_Atlas
f 1/1/1 2/1/1 3/1/1 4/1/1 5/1/1 6/1/1 7/1/1 8/1/1
f 9/1/2 10/1/2 11/1/2 12/1/2 13/1/2 14/1/2 15/1/2 16/1/2
f 8/1/3 7/1/3 10/1/3 9/1/3
f 7/1/4 6/1/4 11/1/4 10/1/4
f 6/1/5 5/1/5 12/1/5 11/1/5
f 5/1/6 4/1/6 13/1/6 12/1/6
f 4/1/7 3/1/7 14/1/7 13/1/7
f 3/1/8 2/1/8 15/1/8 14/1/8
f 2/1/9 1/1/9 16/1/9 15/1/9
f 1/1/10 8/1/10 9/1/10 16/1/10
f 17/1/1 18/1/1 19/1/1 20/1/1 21/1/1 22/1/1 23/1/1 24/1/1
f 25/1/2 26/1/2 27/1/2 28/1/2 29/1/2 30/1/2 31/1/2 32/1/2
f 24/1/3 23/1/3 26/1/3 25/1/3
f 23/1/4 22/1/4 27/1/4 26/1/4
f 22/1/5 21/1/5 28/1/5 27/1/5
f 21/1/6 20/1/6 29/1/6 28/1/6
f 20/1/7 19/1/7 30/1/7 29/1/7
f 19/1/8 18/1/8 31/1/8 30/1/8
f 18/1/9 17/1/9 32/1/9 31/1/9
f 17/1/10 24/1/10 25/1/10 32/1/10
f 33/1/11 34/1/11 35/1/11 36/1/11 37/1/11 38/1/11 39/1/11 40/1/11
f 41/1/12 42/1/12 43/1/12 44/1/12 45/1/12 46/1/12 47/1/12 48/1/12
f 40/1/13 39/1/13 42/1/13 41/1/13
f 39/1/14 38/1/14 43/1/14 42/1/14
f 38/1/15 37/1/15 44/1/15 43/1/15
f 37/1/16 36/1/16 45/1/16 44/1/16
f 36/1/17 35/1/17 46/1/17 45/1/17
f 35/1/18 34/1/18 47/1/18 46/1/18
f 34/1/19 33/1/19 48/1/19 47/1/19
f 33/1/20 40/1/20 41/1/20 48/1/20
f 49/1/11 50/1/11 51/1/11 52/1/11 53/1/11 54/1/11 55/1/11 56/1/11
f 57/1/12 58/1/12 59/1/12 60/1/12 61/1/12 62/1/12 63/1/12 64/1/12
f 56/1/13 55/1/13 58/1/13 57/1/13
f 55/1/14 54/1/14 59/1/14 58/1/14
f 54/1/15 53/1/15 60/1/15 59/1/15
f 53/1/16 52/1/16 61/1/16 60/1/16
f 52/1/17 51/1/17 62/1/17 61/1/17
f 51/1/18 50/1/18 63/1/18 62/1/18
f 50/1/19 49/1/19 64/1/19 63/1/19
f 49/1/20 56/1/20 57/1/20 64/1/20
f 65/1/21 66/1/21 67/1/21 68/1/21 69/1/21 70/1/21
f 71/1/22 72/1/22 73/1/22 74/1/22 75/1/22 76/1/22
f 70/1/23 69/1/23 72/1/23 71/1/23
f 69/1/24 68/1/24 73/1/24 72/1/24
f 68/1/25 67/1/25 74/1/25 73/1/25
f 67/1/26 66/1/26 75/1/26 74/1/26
f 66/1/27 65/1/27 76/1/27 75/1/27
f 65/1/28 70/1/28 71/1/28 76/1/28
f 77/1/29 78/1/29 79/1/29 80/1/29 81/1/29 82/1/29
f 83/1/30 84/1/30 85/1/30 86/1/30 87/1/30 88/1/30
f 82/1/31 81/1/31 84/1/31 83/1/31
f 81/1/32 80/1/32 85/1/32 84/1/32
f 80/1/33 79/1/33 86/1/33 85/1/33
f 79/1/34 78/1/34 87/1/34 86/1/34
f 78/1/35 77/1/35 88/1/35 87/1/35
f 77/1/36 82/1/36 83/1/36 88/1/36
f 89/1/37 90/1/37 91/1/37 92/1/37 93/1/37 94/1/37
f 95/1/38 96/1/38 97/1/38 98/1/38 99/1/38 100/1/38
f 94/1/39 93/1/39 96/1/39 95/1/39
f 93/1/40 92/1/40 97/1/40 96/1/40
f 92/1/41 91/1/41 98/1/41 97/1/41
f 91/1/42 90/1/42 99/1/42 98/1/42
f 90/1/43 89/1/43 100/1/43 99/1/43
f 89/1/44 94/1/44 95/1/44 100/1/44
f 101/1/45 102/1/45 103/1/45 104/1/45 105/1/45 106/1/45
f 107/1/46 108/1/46 109/1/46 110/1/46 111/1/46 112/1/46
f 106/1/47 105/1/47 108/1/47 107/1/47
f 105/1/48 104/1/48 109/1/48 108/1/48
f 104/1/49 103/1/49 110/1/49 109/1/49
f 103/1/50 102/1/50 111/1/50 110/1/50
f 102/1/51 101/1/51 112/1/51 111/1/51
f 101/1/52 106/1/52 107/1/52 112/1/52
f 113/1/53 114/1/53 115/1/53 116/1/53 117/1/53 118/1/53
f 119/1/54 120/1/54 121/1/54 122/1/54 123/1/54 124/1/54
f 118/1/55 117/1/55 120/1/55 119/1/55
f 117/1/56 116/1/56 121/1/56 120/1/56
f 116/1/57 115/1/57 122/1/57 121/1/57
f 115/1/58 114/1/58 123/1/58 122/1/58
f 114/1/59 113/1/59 124/1/59 123/1/59
f 113/1/60 118/1/60 119/1/60 124/1/60
f 125/1/61 126/1/61 127/1/61 128/1/61 129/1/61 130/1/61
f 131/1/62 132/1/62 133/1/62 134/1/62 135/1/62 136/1/62
f 130/1/63 129/1/63 132/1/63 131/1/63
f 129/1/64 128/1/64 133/1/64 132/1/64
f 128/1/65 127/1/65 134/1/65 133/1/65
f 127/1/66 126/1/66 135/1/66 134/1/66
f 126/1/67 125/1/67 136/1/67 135/1/67
f 125/1/68 130/1/68 131/1/68 136/1/68
f 137/1/69 138/1/69 139/1/69 140/1/69 141/1/69 142/1/69
f 143/1/70 144/1/70 145/1/70 146/1/70 147/1/70 148/1/70
f 142/1/71 141/1/71 144/1/71 143/1/71
f 141/1/1 140/1/1 145/1/1 144/1/1
f 140/1/72 139/1/72 146/1/72 145/1/72
f 139/1/73 138/1/73 147/1/73 146/1/73
f 138/1/2 137/1/2 148/1/2 147/1/2
f 137/1/74 142/1/74 143/1/74 148/1/74
f 149/2/75 150/2/75 151/2/75 152/2/75
f 150/2/76 153/2/76 154/2/76 151/2/76
f 153/2/77 155/2/77 156/2/77 154/2/77
f 155/2/78 157/2/78 158/2/78 156/2/78
f 157/2/79 159/2/79 160/2/79 158/2/79
f 159/2/80 161/2/80 162/2/80 160/2/80
f 161/2/81 163/2/81 164/2/81 162/2/81
f 163/2/82 165/2/82 166/2/82 164/2/82
f 165/2/83 167/2/83 168/2/83 166/2/83
f 167/2/84 169/2/84 170/2/84 168/2/84
f 169/2/85 171/2/85 172/2/85 170/2/85
f 171/2/86 149/2/86 152/2/86 172/2/86
f 173/3/87 174/3/87 175/3/87 176/3/87
f 174/3/88 177/3/88 178/3/88 175/3/88
f 177/3/89 179/3/89 180/3/89 178/3/89
f 179/3/90 181/3/90 182/3/90 180/3/90
f 181/3/91 183/3/91 184/3/91 182/3/91
f 183/3/92 185/3/92 186/3/92 184/3/92
f 185/3/93 187/3/93 188/3/93 186/3/93
f 187/3/94 189/3/94 190/3/94 188/3/94
f 189/3/95 191/3/95 192/3/95 190/3/95
f 191/3/96 193/3/96 194/3/96 192/3/96
f 193/3/97 195/3/97 196/3/97 194/3/97
f 195/3/98 173/3/98 176/3/98 196/3/98
f 152/2/99 151/2/99 197/2/99 198/2/99
f 151/2/100 154/2/100 199/2/100 197/2/100
f 154/2/101 156/2/101 200/2/101 199/2/101
f 156/2/102 158/2/102 201/2/102 200/2/102
f 158/2/103 160/2/103 202/2/103 201/2/103
f 160/2/104 162/2/104 203/2/104 202/2/104
f 162/2/105 164/2/105 204/2/105 203/2/105
f 164/2/106 166/2/106 205/2/106 204/2/106
f 166/2/107 168/2/107 206/2/107 205/2/107
f 168/2/108 170/2/108 207/2/108 206/2/108
f 170/2/109 172/2/109 208/2/109 207/2/109
f 172/2/110 152/2/110 198/2/110 208/2/110
f 209/3/111 210/3/111 174/3/111 173/3/111
f 210/3/112 211/3/112 177/3/112 174/3/112
f 211/3/113 212/3/113 179/3/113 177/3/113
f 212/3/114 213/3/114 181/3/114 179/3/114
f 213/3/115 214/3/115 183/3/115 181/3/115
f 214/3/116 215/3/116 185/3/116 183/3/116
f 215/3/117 216/3/117 187/3/117 185/3/117
f 216/3/118 217/3/118 189/3/118 187/3/118
f 217/3/119 218/3/119 191/3/119 189/3/119
f 218/3/120 219/3/120 193/3/120 191/3/120
f 219/3/121 220/3/121 195/3/121 193/3/121
f 220/3/122 209/3/122 173/3/122 195/3/122
f 198/2/123 197/2/123 221/2/123 222/2/123
f 197/2/124 199/2/124 223/2/124 221/2/124
f 199/2/125 200/2/125 224/2/125 223/2/125
f 200/2/126 201/2/126 225/2/126 224/2/126
f 201/2/127 202/2/127 226/2/127 225/2/127
f 202/2/128 203/2/128 227/2/128 226/2/128
f 203/2/129 204/2/129 228/2/129 227/2/129
f 204/2/130 205/2/130 229/2/130 228/2/130
f 205/2/131 206/2/131 230/2/131 229/2/131
f 206/2/132 207/2/132 231/2/132 230/2/132
f 207/2/133 208/2/133 232/2/133 231/2/133
f 208/2/134 198/2/134 222/2/134 232/2/134
f 233/3/135 234/3/135 210/3/135 209/3/135
f 234/3/136 235/3/136 211/3/136 210/3/136
f 235/3/137 236/3/137 212/3/137 211/3/137
f 236/3/138 237/3/138 213/3/138 212/3/138
f 237/3/139 238/3/139 214/3/139 213/3/139
f 238/3/140 239/3/140 215/3/140 214/3/140
f 239/3/141 240/3/141 216/3/141 215/3/141
f 240/3/142 241/3/142 217/3/142 216/3/142
f 241/3/143 242/3/143 218/3/143 217/3/143
f 242/3/144 243/3/144 219/3/144 218/3/144
f 243/3/145 244/3/145 220/3/145 219/3/145
f 244/3/146 233/3/146 209/3/146 220/3/146
f 222/2/147 221/2/147 245/2/147 246/2/147
f 221/2/148 223/2/148 247/2/148 245/2/148
f 223/2/149 224/2/149 248/2/149 247/2/149
f 224/2/150 225/2/150 249/2/150 248/2/150
f 225/2/151 226/2/151 250/2/151 249/2/151
f 226/2/152 227/2/152 251/2/152 250/2/152
f 227/2/153 228/2/153 252/2/153 251/2/153
f 228/2/154 229/2/154 253/2/154 252/2/154
f 229/2/155 230/2/155 254/2/155 253/2/155
f 230/2/156 231/2/156 255/2/156 254/2/156
f 231/2/157 232/2/157 256/2/157 255/2/157
f 232/2/158 222/2/158 246/2/158 256/2/158
f 257/3/159 258/3/159 234/3/159 233/3/159
f 258/3/160 259/3/160 235/3/160 234/3/160
f 259/3/161 260/3/161 236/3/161 235/3/161
f 260/3/162 261/3/162 237/3/162 236/3/162
f 261/3/163 262/3/163 238/3/163 237/3/163
f 262/3/164 263/3/164 239/3/164 238/3/164
f 263/3/165 264/3/165 240/3/165 239/3/165
f 264/3/166 265/3/166 241/3/166 240/3/166
f 265/3/167 266/3/167 242/3/167 241/3/167
f 266/3/168 267/3/168 243/3/168 242/3/168
f 267/3/169 268/3/169 244/3/169 243/3/169
f 268/3/170 257/3/170 233/3/170 244/3/170
f 257/2/2 258/2/2 245/2/2 246/2/2
f 258/2/2 259/2/2 247/2/2 245/2/2
f 259/2/2 260/2/2 248/2/2 247/2/2
f 260/2/2 261/2/2 249/2/2 248/2/2
f 261/2/2 262/2/2 250/2/2 249/2/2
f 262/2/2 263/2/2 251/2/2 250/2/2
f 263/2/2 264/2/2 252/2/2 251/2/2
f 264/2/2 265/2/2 253/2/2 252/2/2
f 265/2/2 266/2/2 254/2/2 253/2/2
f 266/2/2 267/2/2 255/2/2 254/2/2
f 267/2/2 268/2/2 256/2/2 255/2/2
f 268/2/2 257/2/2 246/2/2 256/2/2
f 149/2/1 150/2/1 175/2/1 176/2/1
f 150/2/1 153/2/1 178/2/1 175/2/1
f 153/2/1 155/2/1 180/2/1 178/2/1
f 155/2/1 157/2/1 182/2/1 180/2/1
f 157/2/1 159/2/1 184/2/1 182/2/1
f 159/2/1 161/2/1 186/2/1 184/2/1
f 161/2/1 163/2/1 188/2/1 186/2/1
f 163/2/1 165/2/1 190/2/1 188/2/1
f 165/2/1 167/2/1 192/2/1 190/2/1
f 167/2/1 169/2/1 194/2/1 192/2/1
f 169/2/1 171/2/1 196/2/1 194/2/1
f 171/2/1 149/2/1 176/2/1 196/2/1
f 176/3/1 175/3/1 178/3/1 180/3/1 182/3/1 184/3/1 186/3/1 188/3/1 190/3/1 192/3/1 194/3/1 196/3/1
f 269/4/69 270/4/69 271/4/69 272/4/69 273/4/69 274/4/69 275/4/69 276/4/69 277/4/69 278/4/69
f 279/4/70 280/4/70 281/4/70 282/4/70 283/4/70 284/4/70 285/4/70 286/4/70 287/4/70 288/4/70
f 278/4/171 277/4/171 280/4/171 279/4/171
f 277/4/172 276/4/172 281/4/172 280/4/172
f 276/4/2 275/4/2 282/4/2 281/4/2
f 275/4/173 274/4/173 283/4/173 282/4/173
f 274/4/174 273/4/174 284/4/174 283/4/174
f 273/4/175 272/4/175 285/4/175 284/4/175
f 272/4/176 271/4/176 286/4/176 285/4/176
f 271/4/1 270/4/1 287/4/1 286/4/1
f 270/4/177 269/4/177 288/4/177 287/4/177
f 269/4/178 278/4/178 279/4/178 288/4/178
