# Blender 5.2.0 LTS
# www.blender.org
mtllib FN_Chair_Dining.mtl
o FN_Chair_Dining
v -0.213000 0.000000 0.215124
v -0.183000 0.000000 0.215124
v -0.183000 0.000000 0.245124
v -0.213000 0.000000 0.245124
v -0.207000 0.440000 0.242124
v -0.165000 0.440000 0.242124
v -0.165000 0.440000 0.200124
v -0.207000 0.440000 0.200124
v 0.183000 0.000000 0.215124
v 0.213000 0.000000 0.215124
v 0.213000 0.000000 0.245124
v 0.183000 0.000000 0.245124
v 0.165000 0.440000 0.242124
v 0.207000 0.440000 0.242124
v 0.207000 0.440000 0.200124
v 0.165000 0.440000 0.200124
v -0.205000 0.000000 -0.185876
v -0.175000 0.000000 -0.185876
v -0.175000 0.000000 -0.155876
v -0.205000 0.000000 -0.155876
v -0.199000 0.440000 -0.143876
v -0.157000 0.440000 -0.143876
v -0.157000 0.440000 -0.185876
v -0.199000 0.440000 -0.185876
v -0.183000 0.878000 -0.211124
v -0.149000 0.878000 -0.211124
v -0.149000 0.878000 -0.245124
v -0.183000 0.878000 -0.245124
v 0.175000 0.000000 -0.185876
v 0.205000 0.000000 -0.185876
v 0.205000 0.000000 -0.155876
v 0.175000 0.000000 -0.155876
v 0.157000 0.440000 -0.143876
v 0.199000 0.440000 -0.143876
v 0.199000 0.440000 -0.185876
v 0.157000 0.440000 -0.185876
v 0.149000 0.878000 -0.211124
v 0.183000 0.878000 -0.211124
v 0.183000 0.878000 -0.245124
v 0.149000 0.878000 -0.245124
v -0.169003 0.197000 0.201374
v -0.190997 0.197000 0.200874
v -0.190997 0.219000 0.200874
v -0.169003 0.219000 0.201374
v -0.161003 0.219000 -0.150626
v -0.182997 0.219000 -0.151126
v -0.182997 0.197000 -0.151126
v -0.161003 0.197000 -0.150626
v 0.190997 0.197000 0.200874
v 0.169003 0.197000 0.201374
v 0.169003 0.219000 0.201374
v 0.190997 0.219000 0.200874
v 0.182997 0.219000 -0.151126
v 0.161003 0.219000 -0.150626
v 0.161003 0.197000 -0.150626
v 0.182997 0.197000 -0.151126
v -0.182000 0.175000 0.036124
v -0.182000 0.175000 0.014124
v -0.182000 0.197000 0.014124
v -0.182000 0.197000 0.036124
v 0.182000 0.197000 0.036124
v 0.182000 0.197000 0.014124
v 0.182000 0.175000 0.014124
v 0.182000 0.175000 0.036124
v -0.192604 0.404000 -0.185263
v 0.192604 0.404000 -0.185263
v 0.214005 0.404000 0.215510
v -0.214005 0.404000 0.215510
v 0.220000 0.412000 0.221124
v -0.220000 0.412000 0.221124
v 0.198000 0.412000 -0.190876
v -0.198000 0.412000 -0.190876
v 0.220000 0.432000 0.221124
v -0.220000 0.432000 0.221124
v 0.198000 0.432000 -0.190876
v -0.198000 0.432000 -0.190876
v -0.214005 0.440000 0.215510
v 0.214005 0.440000 0.215510
v 0.192604 0.440000 -0.185263
v -0.192604 0.440000 -0.185263
v -0.180868 0.440000 -0.173052
v 0.180868 0.440000 -0.173052
v 0.200965 0.440000 0.203300
v -0.200965 0.440000 0.203300
v 0.203513 0.443400 0.205685
v -0.203513 0.443400 0.205685
v 0.183161 0.443400 -0.175438
v -0.183161 0.443400 -0.175438
v 0.203513 0.446600 0.205685
v -0.203513 0.446600 0.205685
v 0.183161 0.446600 -0.175438
v -0.183161 0.446600 -0.175438
v -0.200965 0.450000 0.203300
v 0.200965 0.450000 0.203300
v 0.180868 0.450000 -0.173052
v -0.180868 0.450000 -0.173052
v -0.187000 0.826000 -0.209391
v -0.100000 0.816000 -0.209391
v 0.100000 0.816000 -0.209391
v 0.187000 0.826000 -0.209391
v 0.187000 0.880000 -0.209391
v 0.100000 0.906000 -0.209391
v -0.100000 0.906000 -0.209391
v -0.187000 0.880000 -0.209391
v -0.187000 0.880000 -0.239391
v -0.100000 0.906000 -0.239391
v 0.100000 0.906000 -0.239391
v 0.187000 0.880000 -0.239391
v 0.187000 0.826000 -0.239391
v 0.100000 0.816000 -0.239391
v -0.100000 0.816000 -0.239391
v -0.187000 0.826000 -0.239391
v -0.154010 0.560000 -0.187891
v 0.154010 0.560000 -0.187891
v 0.154010 0.560000 -0.168518
v -0.154010 0.560000 -0.168518
v 0.159000 0.565000 -0.168204
v -0.159000 0.565000 -0.168204
v 0.159000 0.565000 -0.188204
v -0.159000 0.565000 -0.188204
v 0.159000 0.601000 -0.168204
v -0.159000 0.601000 -0.168204
v 0.159000 0.601000 -0.188204
v -0.159000 0.601000 -0.188204
v -0.154010 0.606000 -0.168518
v 0.154010 0.606000 -0.168518
v 0.154010 0.606000 -0.187891
v -0.154010 0.606000 -0.187891
v -0.154010 0.650000 -0.200887
v 0.154010 0.650000 -0.200887
v 0.154010 0.650000 -0.181514
v -0.154010 0.650000 -0.181514
v 0.159000 0.655000 -0.181200
v -0.159000 0.655000 -0.181200
v 0.159000 0.655000 -0.201200
v -0.159000 0.655000 -0.201200
v 0.159000 0.691000 -0.181200
v -0.159000 0.691000 -0.181200
v 0.159000 0.691000 -0.201200
v -0.159000 0.691000 -0.201200
v -0.154010 0.696000 -0.181514
v 0.154010 0.696000 -0.181514
v 0.154010 0.696000 -0.200887
v -0.154010 0.696000 -0.200887
v -0.154010 0.740000 -0.213883
v 0.154010 0.740000 -0.213883
v 0.154010 0.740000 -0.194510
v -0.154010 0.740000 -0.194510
v 0.159000 0.745000 -0.194196
v -0.159000 0.745000 -0.194196
v 0.159000 0.745000 -0.214196
v -0.159000 0.745000 -0.214196
v 0.159000 0.781000 -0.194196
v -0.159000 0.781000 -0.194196
v 0.159000 0.781000 -0.214196
v -0.159000 0.781000 -0.214196
v -0.154010 0.786000 -0.194510
v 0.154010 0.786000 -0.194510
v 0.154010 0.786000 -0.213883
v -0.154010 0.786000 -0.213883
vn -0.0000 -1.0000 -0.0000
vn -0.0000 1.0000 -0.0000
vn -0.0000 0.0068 1.0000
vn 0.9992 -0.0409 -0.0000
vn -0.0000 -0.0341 -0.9994
vn -0.9999 0.0136 -0.0000
vn 0.9999 0.0136 -0.0000
vn -0.9992 -0.0409 -0.0000
vn -0.0000 -0.0273 0.9996
vn -0.0000 -0.0000 -1.0000
vn -0.0000 0.1518 0.9884
vn 0.9998 -0.0183 -0.0000
vn -0.0000 -0.1340 -0.9910
vn -0.9993 0.0365 -0.0000
vn 0.9993 0.0365 -0.0000
vn -0.9998 -0.0183 -0.0000
vn 0.0227 -0.0000 -0.9997
vn -0.0227 -0.0000 0.9997
vn 0.9997 -0.0000 0.0227
vn -0.9997 -0.0000 -0.0227
vn -0.0227 -0.0000 -0.9997
vn 0.0227 -0.0000 0.9997
vn 0.9997 -0.0000 -0.0227
vn -0.9997 -0.0000 0.0227
vn 1.0000 -0.0000 -0.0000
vn -1.0000 -0.0000 -0.0000
vn -0.0000 -0.0000 1.0000
vn -0.0000 -0.5744 0.8186
vn 0.8139 -0.5794 -0.0435
vn -0.0000 -0.5744 -0.8186
vn -0.8139 -0.5794 -0.0435
vn 0.9986 -0.0000 -0.0533
vn -0.9986 -0.0000 -0.0533
vn -0.0000 0.5744 0.8186
vn 0.8139 0.5794 -0.0435
vn -0.0000 0.5744 -0.8186
vn -0.8139 0.5794 -0.0435
vn -0.1142 -0.9935 -0.0000
vn 0.1142 -0.9935 -0.0000
vn 0.2863 0.9581 -0.0000
vn -0.2863 0.9581 -0.0000
vn -0.0000 -0.0626 0.9980
vn 0.7078 -0.7064 -0.0000
vn -0.0000 -0.0626 -0.9980
vn -0.7078 -0.7064 -0.0000
vn -0.0000 0.0626 0.9980
vn 0.7078 0.7064 -0.0000
vn -0.0000 0.0626 -0.9980
vn -0.7078 0.7064 -0.0000
vt 0.437500 0.937500
vt 0.687500 0.937500
vt 0.312500 0.687500
vt 0.187500 0.937500
s 0
usemtl FN_Atlas
f 1/1/1 2/1/1 3/1/1 4/1/1
f 5/1/2 6/1/2 7/1/2 8/1/2
f 4/1/3 3/1/3 6/1/3 5/1/3
f 3/1/4 2/1/4 7/1/4 6/1/4
f 2/1/5 1/1/5 8/1/5 7/1/5
f 1/1/6 4/1/6 5/1/6 8/1/6
f 9/1/1 10/1/1 11/1/1 12/1/1
f 13/1/2 14/1/2 15/1/2 16/1/2
f 12/1/3 11/1/3 14/1/3 13/1/3
f 11/1/7 10/1/7 15/1/7 14/1/7
f 10/1/5 9/1/5 16/1/5 15/1/5
f 9/1/8 12/1/8 13/1/8 16/1/8
f 17/1/1 18/1/1 19/1/1 20/1/1
f 21/1/2 22/1/2 23/1/2 24/1/2
f 20/1/9 19/1/9 22/1/9 21/1/9
f 19/1/4 18/1/4 23/1/4 22/1/4
f 18/1/10 17/1/10 24/1/10 23/1/10
f 17/1/6 20/1/6 21/1/6 24/1/6
f 25/1/2 26/1/2 27/1/2 28/1/2
f 21/1/11 22/1/11 26/1/11 25/1/11
f 22/1/12 23/1/12 27/1/12 26/1/12
f 23/1/13 24/1/13 28/1/13 27/1/13
f 24/1/14 21/1/14 25/1/14 28/1/14
f 29/1/1 30/1/1 31/1/1 32/1/1
f 33/1/2 34/1/2 35/1/2 36/1/2
f 32/1/9 31/1/9 34/1/9 33/1/9
f 31/1/7 30/1/7 35/1/7 34/1/7
f 30/1/10 29/1/10 36/1/10 35/1/10
f 29/1/8 32/1/8 33/1/8 36/1/8
f 37/1/2 38/1/2 39/1/2 40/1/2
f 33/1/11 34/1/11 38/1/11 37/1/11
f 34/1/15 35/1/15 39/1/15 38/1/15
f 35/1/13 36/1/13 40/1/13 39/1/13
f 36/1/16 33/1/16 37/1/16 40/1/16
f 41/2/17 42/2/17 43/2/17 44/2/17
f 45/2/18 46/2/18 47/2/18 48/2/18
f 44/2/1 43/2/1 46/2/1 45/2/1
f 43/2/19 42/2/19 47/2/19 46/2/19
f 42/2/2 41/2/2 48/2/2 47/2/2
f 41/2/20 44/2/20 45/2/20 48/2/20
f 49/2/21 50/2/21 51/2/21 52/2/21
f 53/2/22 54/2/22 55/2/22 56/2/22
f 52/2/1 51/2/1 54/2/1 53/2/1
f 51/2/23 50/2/23 55/2/23 54/2/23
f 50/2/2 49/2/2 56/2/2 55/2/2
f 49/2/24 52/2/24 53/2/24 56/2/24
f 57/2/25 58/2/25 59/2/25 60/2/25
f 61/2/26 62/2/26 63/2/26 64/2/26
f 60/2/1 59/2/1 62/2/1 61/2/1
f 59/2/27 58/2/27 63/2/27 62/2/27
f 58/2/2 57/2/2 64/2/2 63/2/2
f 57/2/10 60/2/10 61/2/10 64/2/10
f 65/2/1 66/2/1 67/2/1 68/2/1
f 68/2/28 67/2/28 69/2/28 70/2/28
f 67/2/29 66/2/29 71/2/29 69/2/29
f 66/2/30 65/2/30 72/2/30 71/2/30
f 65/2/31 68/2/31 70/2/31 72/2/31
f 70/2/27 69/2/27 73/2/27 74/2/27
f 69/2/32 71/2/32 75/2/32 73/2/32
f 71/2/10 72/2/10 76/2/10 75/2/10
f 72/2/33 70/2/33 74/2/33 76/2/33
f 77/1/2 78/1/2 79/1/2 80/1/2
f 74/2/34 73/2/34 78/2/34 77/2/34
f 73/2/35 75/2/35 79/2/35 78/2/35
f 75/2/36 76/2/36 80/2/36 79/2/36
f 76/2/37 74/2/37 77/2/37 80/2/37
f 81/3/1 82/3/1 83/3/1 84/3/1
f 84/3/28 83/3/28 85/3/28 86/3/28
f 83/3/29 82/3/29 87/3/29 85/3/29
f 82/3/30 81/3/30 88/3/30 87/3/30
f 81/3/31 84/3/31 86/3/31 88/3/31
f 86/3/27 85/3/27 89/3/27 90/3/27
f 85/3/32 87/3/32 91/3/32 89/3/32
f 87/3/10 88/3/10 92/3/10 91/3/10
f 88/3/33 86/3/33 90/3/33 92/3/33
f 93/3/2 94/3/2 95/3/2 96/3/2
f 90/3/34 89/3/34 94/3/34 93/3/34
f 89/3/35 91/3/35 95/3/35 94/3/35
f 91/3/36 92/3/36 96/3/36 95/3/36
f 92/3/37 90/3/37 93/3/37 96/3/37
f 97/1/27 98/1/27 99/1/27 100/1/27 101/1/27 102/1/27 103/1/27 104/1/27
f 105/1/10 106/1/10 107/1/10 108/1/10 109/1/10 110/1/10 111/1/10 112/1/10
f 97/1/38 112/1/38 111/1/38 98/1/38
f 98/1/1 111/1/1 110/1/1 99/1/1
f 99/1/39 110/1/39 109/1/39 100/1/39
f 100/1/25 109/1/25 108/1/25 101/1/25
f 101/1/40 108/1/40 107/1/40 102/1/40
f 102/1/2 107/1/2 106/1/2 103/1/2
f 103/1/41 106/1/41 105/1/41 104/1/41
f 104/1/26 105/1/26 112/1/26 97/1/26
f 113/2/1 114/2/1 115/2/1 116/2/1
f 116/2/42 115/2/42 117/2/42 118/2/42
f 115/2/43 114/2/43 119/2/43 117/2/43
f 114/2/44 113/2/44 120/2/44 119/2/44
f 113/2/45 116/2/45 118/2/45 120/2/45
f 118/2/27 117/2/27 121/2/27 122/2/27
f 117/2/25 119/2/25 123/2/25 121/2/25
f 119/2/10 120/2/10 124/2/10 123/2/10
f 120/2/26 118/2/26 122/2/26 124/2/26
f 125/4/2 126/4/2 127/4/2 128/4/2
f 122/2/46 121/2/46 126/2/46 125/2/46
f 121/2/47 123/2/47 127/2/47 126/2/47
f 123/2/48 124/2/48 128/2/48 127/2/48
f 124/2/49 122/2/49 125/2/49 128/2/49
f 129/2/1 130/2/1 131/2/1 132/2/1
f 132/2/42 131/2/42 133/2/42 134/2/42
f 131/2/43 130/2/43 135/2/43 133/2/43
f 130/2/44 129/2/44 136/2/44 135/2/44
f 129/2/45 132/2/45 134/2/45 136/2/45
f 134/2/27 133/2/27 137/2/27 138/2/27
f 133/2/25 135/2/25 139/2/25 137/2/25
f 135/2/10 136/2/10 140/2/10 139/2/10
f 136/2/26 134/2/26 138/2/26 140/2/26
f 141/4/2 142/4/2 143/4/2 144/4/2
f 138/2/46 137/2/46 142/2/46 141/2/46
f 137/2/47 139/2/47 143/2/47 142/2/47
f 139/2/48 140/2/48 144/2/48 143/2/48
f 140/2/49 138/2/49 141/2/49 144/2/49
f 145/2/1 146/2/1 147/2/1 148/2/1
f 148/2/42 147/2/42 149/2/42 150/2/42
f 147/2/43 146/2/43 151/2/43 149/2/43
f 146/2/44 145/2/44 152/2/44 151/2/44
f 145/2/45 148/2/45 150/2/45 152/2/45
f 150/2/27 149/2/27 153/2/27 154/2/27
f 149/2/25 151/2/25 155/2/25 153/2/25
f 151/2/10 152/2/10 156/2/10 155/2/10
f 152/2/26 150/2/26 154/2/26 156/2/26
f 157/4/2 158/4/2 159/4/2 160/4/2
f 154/2/46 153/2/46 158/2/46 157/2/46
f 153/2/47 155/2/47 159/2/47 158/2/47
f 155/2/48 156/2/48 160/2/48 159/2/48
f 156/2/49 154/2/49 157/2/49 160/2/49
