# Blender 5.2.0 LTS
# www.blender.org
mtllib FN_Cushion_Floor.mtl
o FN_Cushion_Floor
v 0.264326 0.000000 -0.170119
v 0.275000 0.000000 0.000000
v 0.000000 0.028000 0.000000
v 0.231247 0.000000 -0.231247
v 0.170119 0.000000 -0.264326
v 0.000000 0.000000 -0.275000
v -0.170119 0.000000 -0.264326
v -0.231247 0.000000 -0.231247
v -0.264326 0.000000 -0.170119
v -0.275000 0.000000 -0.000000
v -0.264326 0.000000 0.170119
v -0.231247 0.000000 0.231247
v -0.170119 0.000000 0.264326
v -0.000000 0.000000 0.275000
v 0.170119 0.000000 0.264326
v 0.231247 0.000000 0.231247
v 0.264326 0.000000 0.170119
v 0.331609 0.065000 -0.213422
v 0.345000 0.065000 0.000000
v 0.290109 0.065000 -0.290109
v 0.213422 0.065000 -0.331609
v 0.000000 0.065000 -0.345000
v -0.213422 0.065000 -0.331609
v -0.290109 0.065000 -0.290109
v -0.331609 0.065000 -0.213422
v -0.345000 0.065000 -0.000000
v -0.331609 0.065000 0.213422
v -0.290109 0.065000 0.290109
v -0.213422 0.065000 0.331609
v -0.000000 0.065000 0.345000
v 0.213422 0.065000 0.331609
v 0.290109 0.065000 0.290109
v 0.331609 0.065000 0.213422
v 0.338338 0.075000 -0.217752
v 0.352000 0.075000 0.000000
v 0.295996 0.075000 -0.295996
v 0.217752 0.075000 -0.338338
v 0.000000 0.075000 -0.352000
v -0.217752 0.075000 -0.338338
v -0.295996 0.075000 -0.295996
v -0.338338 0.075000 -0.217752
v -0.352000 0.075000 -0.000000
v -0.338338 0.075000 0.217752
v -0.295996 0.075000 0.295996
v -0.217752 0.075000 0.338338
v -0.000000 0.075000 0.352000
v 0.217752 0.075000 0.338338
v 0.295996 0.075000 0.295996
v 0.338338 0.075000 0.217752
v 0.331609 0.085000 -0.213422
v 0.345000 0.085000 0.000000
v 0.290109 0.085000 -0.290109
v 0.213422 0.085000 -0.331609
v 0.000000 0.085000 -0.345000
v -0.213422 0.085000 -0.331609
v -0.290109 0.085000 -0.290109
v -0.331609 0.085000 -0.213422
v -0.345000 0.085000 -0.000000
v -0.331609 0.085000 0.213422
v -0.290109 0.085000 0.290109
v -0.213422 0.085000 0.331609
v -0.000000 0.085000 0.345000
v 0.213422 0.085000 0.331609
v 0.290109 0.085000 0.290109
v 0.331609 0.085000 0.213422
v 0.278744 0.150000 -0.179398
v 0.290000 0.150000 0.000000
v 0.243860 0.150000 -0.243860
v 0.179398 0.150000 -0.278744
v 0.000000 0.150000 -0.290000
v -0.179398 0.150000 -0.278744
v -0.243860 0.150000 -0.243860
v -0.278744 0.150000 -0.179398
v -0.290000 0.150000 -0.000000
v -0.278744 0.150000 0.179398
v -0.243860 0.150000 0.243860
v -0.179398 0.150000 0.278744
v -0.000000 0.150000 0.290000
v 0.179398 0.150000 0.278744
v 0.243860 0.150000 0.243860
v 0.278744 0.150000 0.179398
v 0.000000 0.106000 0.000000
v 0.034560 0.120000 0.000000
v 0.024438 0.120000 -0.024438
v 0.000000 0.120000 -0.034560
v -0.024438 0.120000 -0.024438
v -0.034560 0.120000 -0.000000
v -0.024438 0.120000 0.024438
v -0.000000 0.120000 0.034560
v 0.024438 0.120000 0.024438
v 0.048000 0.096000 0.000000
v 0.033941 0.096000 -0.033941
v 0.000000 0.096000 -0.048000
v -0.033941 0.096000 -0.033941
v -0.048000 0.096000 -0.000000
v -0.033941 0.096000 0.033941
v -0.000000 0.096000 0.048000
v 0.033941 0.096000 0.033941
vn -0.1013 -0.9948 0.0064
vn -0.0783 -0.9960 0.0423
vn -0.0423 -0.9960 0.0783
vn -0.0064 -0.9948 0.1013
vn 0.0064 -0.9948 0.1013
vn 0.0423 -0.9960 0.0783
vn 0.0783 -0.9960 0.0423
vn 0.1013 -0.9948 0.0064
vn 0.1013 -0.9948 -0.0064
vn 0.0783 -0.9960 -0.0423
vn 0.0423 -0.9960 -0.0783
vn 0.0064 -0.9948 -0.1013
vn -0.0064 -0.9948 -0.1013
vn -0.0423 -0.9960 -0.0783
vn -0.0783 -0.9960 -0.0423
vn -0.1013 -0.9948 -0.0064
vn 0.6798 -0.7321 -0.0427
vn 0.5555 -0.7753 -0.3006
vn 0.3006 -0.7753 -0.5555
vn 0.0427 -0.7321 -0.6798
vn -0.0427 -0.7321 -0.6798
vn -0.3006 -0.7753 -0.5555
vn -0.5555 -0.7753 -0.3006
vn -0.6798 -0.7321 -0.0427
vn -0.6798 -0.7321 0.0427
vn -0.5555 -0.7753 0.3006
vn -0.3006 -0.7753 0.5555
vn -0.0427 -0.7321 0.6798
vn 0.0427 -0.7321 0.6798
vn 0.3006 -0.7753 0.5555
vn 0.5555 -0.7753 0.3006
vn 0.6798 -0.7321 0.0427
vn 0.8182 -0.5727 -0.0513
vn 0.6875 -0.6237 -0.3720
vn 0.3720 -0.6237 -0.6875
vn 0.0513 -0.5727 -0.8182
vn -0.0513 -0.5727 -0.8182
vn -0.3720 -0.6237 -0.6875
vn -0.6875 -0.6237 -0.3720
vn -0.8182 -0.5727 -0.0513
vn -0.8182 -0.5727 0.0513
vn -0.6875 -0.6237 0.3720
vn -0.3720 -0.6237 0.6875
vn -0.0513 -0.5727 0.8182
vn 0.0513 -0.5727 0.8182
vn 0.3720 -0.6237 0.6875
vn 0.6875 -0.6237 0.3720
vn 0.8182 -0.5727 0.0513
vn 0.8182 0.5727 -0.0513
vn 0.6875 0.6237 -0.3720
vn 0.3720 0.6237 -0.6875
vn 0.0513 0.5727 -0.8182
vn -0.0513 0.5727 -0.8182
vn -0.3720 0.6237 -0.6875
vn -0.6875 0.6237 -0.3720
vn -0.8182 0.5727 -0.0513
vn -0.8182 0.5727 0.0513
vn -0.6875 0.6237 0.3720
vn -0.3720 0.6237 0.6875
vn -0.0513 0.5727 0.8182
vn 0.0513 0.5727 0.8182
vn 0.3720 0.6237 0.6875
vn 0.6875 0.6237 0.3720
vn 0.8182 0.5727 0.0513
vn 0.7625 0.6452 -0.0478
vn 0.6330 0.6942 -0.3426
vn 0.3426 0.6942 -0.6330
vn 0.0478 0.6452 -0.7625
vn -0.0478 0.6452 -0.7625
vn -0.3426 0.6942 -0.6330
vn -0.6330 0.6942 -0.3426
vn -0.7625 0.6452 -0.0478
vn -0.7625 0.6452 0.0478
vn -0.6330 0.6942 0.3426
vn -0.3426 0.6942 0.6330
vn -0.0478 0.6452 0.7625
vn 0.0478 0.6452 0.7625
vn 0.3426 0.6942 0.6330
vn 0.6330 0.6942 0.3426
vn 0.7625 0.6452 0.0478
vn -0.1500 0.9886 0.0094
vn -0.1161 0.9913 0.0628
vn -0.0628 0.9913 0.1161
vn -0.0094 0.9886 0.1500
vn 0.0094 0.9886 0.1500
vn 0.0628 0.9913 0.1161
vn 0.1161 0.9913 0.0628
vn 0.1500 0.9886 0.0094
vn 0.1500 0.9886 -0.0094
vn 0.1161 0.9913 -0.0628
vn 0.0628 0.9913 -0.1161
vn 0.0094 0.9886 -0.1500
vn -0.0094 0.9886 -0.1500
vn -0.0628 0.9913 -0.1161
vn -0.1161 0.9913 -0.0628
vn -0.1500 0.9886 -0.0094
vn -0.0000 1.0000 -0.0000
vn 0.8206 0.4595 -0.3399
vn 0.3399 0.4595 -0.8206
vn -0.3399 0.4595 -0.8206
vn -0.8206 0.4595 -0.3399
vn -0.8206 0.4595 0.3399
vn -0.3399 0.4595 0.8206
vn 0.3399 0.4595 0.8206
vn 0.8206 0.4595 0.3399
vt 0.312500 0.562500
vt 0.187500 0.687500
s 0
usemtl FN_Atlas
f 1/1/1 2/1/1 3/1/1
f 4/1/2 1/1/2 3/1/2
f 5/1/3 4/1/3 3/1/3
f 6/1/4 5/1/4 3/1/4
f 7/1/5 6/1/5 3/1/5
f 8/1/6 7/1/6 3/1/6
f 9/1/7 8/1/7 3/1/7
f 10/1/8 9/1/8 3/1/8
f 11/1/9 10/1/9 3/1/9
f 12/1/10 11/1/10 3/1/10
f 13/1/11 12/1/11 3/1/11
f 14/1/12 13/1/12 3/1/12
f 15/1/13 14/1/13 3/1/13
f 16/1/14 15/1/14 3/1/14
f 17/1/15 16/1/15 3/1/15
f 2/1/16 17/1/16 3/1/16
f 2/1/17 1/1/17 18/1/17 19/1/17
f 1/1/18 4/1/18 20/1/18 18/1/18
f 4/1/19 5/1/19 21/1/19 20/1/19
f 5/1/20 6/1/20 22/1/20 21/1/20
f 6/1/21 7/1/21 23/1/21 22/1/21
f 7/1/22 8/1/22 24/1/22 23/1/22
f 8/1/23 9/1/23 25/1/23 24/1/23
f 9/1/24 10/1/24 26/1/24 25/1/24
f 10/1/25 11/1/25 27/1/25 26/1/25
f 11/1/26 12/1/26 28/1/26 27/1/26
f 12/1/27 13/1/27 29/1/27 28/1/27
f 13/1/28 14/1/28 30/1/28 29/1/28
f 14/1/29 15/1/29 31/1/29 30/1/29
f 15/1/30 16/1/30 32/1/30 31/1/30
f 16/1/31 17/1/31 33/1/31 32/1/31
f 17/1/32 2/1/32 19/1/32 33/1/32
f 19/2/33 18/2/33 34/2/33 35/2/33
f 18/2/34 20/2/34 36/2/34 34/2/34
f 20/2/35 21/2/35 37/2/35 36/2/35
f 21/2/36 22/2/36 38/2/36 37/2/36
f 22/2/37 23/2/37 39/2/37 38/2/37
f 23/2/38 24/2/38 40/2/38 39/2/38
f 24/2/39 25/2/39 41/2/39 40/2/39
f 25/2/40 26/2/40 42/2/40 41/2/40
f 26/2/41 27/2/41 43/2/41 42/2/41
f 27/2/42 28/2/42 44/2/42 43/2/42
f 28/2/43 29/2/43 45/2/43 44/2/43
f 29/2/44 30/2/44 46/2/44 45/2/44
f 30/2/45 31/2/45 47/2/45 46/2/45
f 31/2/46 32/2/46 48/2/46 47/2/46
f 32/2/47 33/2/47 49/2/47 48/2/47
f 33/2/48 19/2/48 35/2/48 49/2/48
f 35/2/49 34/2/49 50/2/49 51/2/49
f 34/2/50 36/2/50 52/2/50 50/2/50
f 36/2/51 37/2/51 53/2/51 52/2/51
f 37/2/52 38/2/52 54/2/52 53/2/52
f 38/2/53 39/2/53 55/2/53 54/2/53
f 39/2/54 40/2/54 56/2/54 55/2/54
f 40/2/55 41/2/55 57/2/55 56/2/55
f 41/2/56 42/2/56 58/2/56 57/2/56
f 42/2/57 43/2/57 59/2/57 58/2/57
f 43/2/58 44/2/58 60/2/58 59/2/58
f 44/2/59 45/2/59 61/2/59 60/2/59
f 45/2/60 46/2/60 62/2/60 61/2/60
f 46/2/61 47/2/61 63/2/61 62/2/61
f 47/2/62 48/2/62 64/2/62 63/2/62
f 48/2/63 49/2/63 65/2/63 64/2/63
f 49/2/64 35/2/64 51/2/64 65/2/64
f 51/1/65 50/1/65 66/1/65 67/1/65
f 50/1/66 52/1/66 68/1/66 66/1/66
f 52/1/67 53/1/67 69/1/67 68/1/67
f 53/1/68 54/1/68 70/1/68 69/1/68
f 54/1/69 55/1/69 71/1/69 70/1/69
f 55/1/70 56/1/70 72/1/70 71/1/70
f 56/1/71 57/1/71 73/1/71 72/1/71
f 57/1/72 58/1/72 74/1/72 73/1/72
f 58/1/73 59/1/73 75/1/73 74/1/73
f 59/1/74 60/1/74 76/1/74 75/1/74
f 60/1/75 61/1/75 77/1/75 76/1/75
f 61/1/76 62/1/76 78/1/76 77/1/76
f 62/1/77 63/1/77 79/1/77 78/1/77
f 63/1/78 64/1/78 80/1/78 79/1/78
f 64/1/79 65/1/79 81/1/79 80/1/79
f 65/1/80 51/1/80 67/1/80 81/1/80
f 67/1/81 66/1/81 82/1/81
f 66/1/82 68/1/82 82/1/82
f 68/1/83 69/1/83 82/1/83
f 69/1/84 70/1/84 82/1/84
f 70/1/85 71/1/85 82/1/85
f 71/1/86 72/1/86 82/1/86
f 72/1/87 73/1/87 82/1/87
f 73/1/88 74/1/88 82/1/88
f 74/1/89 75/1/89 82/1/89
f 75/1/90 76/1/90 82/1/90
f 76/1/91 77/1/91 82/1/91
f 77/1/92 78/1/92 82/1/92
f 78/1/93 79/1/93 82/1/93
f 79/1/94 80/1/94 82/1/94
f 80/1/95 81/1/95 82/1/95
f 81/1/96 67/1/96 82/1/96
f 83/2/97 84/2/97 85/2/97 86/2/97 87/2/97 88/2/97 89/2/97 90/2/97
f 91/2/98 92/2/98 84/2/98 83/2/98
f 92/2/99 93/2/99 85/2/99 84/2/99
f 93/2/100 94/2/100 86/2/100 85/2/100
f 94/2/101 95/2/101 87/2/101 86/2/101
f 95/2/102 96/2/102 88/2/102 87/2/102
f 96/2/103 97/2/103 89/2/103 88/2/103
f 97/2/104 98/2/104 90/2/104 89/2/104
f 98/2/105 91/2/105 83/2/105 90/2/105
