# Blender 5.2.0 LTS
# www.blender.org
mtllib FN_Chair_Stacking.mtl
o FN_Chair_Stacking
v -0.149129 0.436000 0.254071
v -0.179544 0.436000 0.245922
v -0.201809 0.436000 0.223657
v -0.209958 0.436000 0.193242
v -0.209958 0.436000 -0.093242
v -0.201809 0.436000 -0.123657
v -0.179544 0.436000 -0.145922
v -0.149129 0.436000 -0.154071
v 0.149129 0.436000 -0.154071
v 0.179544 0.436000 -0.145922
v 0.201809 0.436000 -0.123657
v 0.209958 0.436000 -0.093242
v 0.209958 0.436000 0.193242
v 0.201809 0.436000 0.223657
v 0.179544 0.436000 0.245922
v 0.149129 0.436000 0.254071
v 0.183000 0.441000 0.249694
v 0.152000 0.441000 0.258000
v 0.205694 0.441000 0.227000
v 0.214000 0.441000 0.196000
v 0.214000 0.441000 -0.096000
v 0.205694 0.441000 -0.127000
v 0.183000 0.441000 -0.149694
v 0.152000 0.441000 -0.158000
v -0.152000 0.441000 -0.158000
v -0.183000 0.441000 -0.149694
v -0.205694 0.441000 -0.127000
v -0.214000 0.441000 -0.096000
v -0.214000 0.441000 0.196000
v -0.205694 0.441000 0.227000
v -0.183000 0.441000 0.249694
v -0.152000 0.441000 0.258000
v 0.183000 0.445000 0.249694
v 0.152000 0.445000 0.258000
v 0.205694 0.445000 0.227000
v 0.214000 0.445000 0.196000
v 0.214000 0.445000 -0.096000
v 0.205694 0.445000 -0.127000
v 0.183000 0.445000 -0.149694
v 0.152000 0.445000 -0.158000
v -0.152000 0.445000 -0.158000
v -0.183000 0.445000 -0.149694
v -0.205694 0.445000 -0.127000
v -0.214000 0.445000 -0.096000
v -0.214000 0.445000 0.196000
v -0.205694 0.445000 0.227000
v -0.183000 0.445000 0.249694
v -0.152000 0.445000 0.258000
v 0.148555 0.450000 0.253286
v 0.178852 0.450000 0.245168
v 0.201032 0.450000 0.222988
v 0.209150 0.450000 0.192691
v 0.209150 0.450000 -0.092691
v 0.201032 0.450000 -0.122988
v 0.178852 0.450000 -0.145168
v 0.148555 0.450000 -0.153286
v -0.148555 0.450000 -0.153286
v -0.178852 0.450000 -0.145168
v -0.201032 0.450000 -0.122988
v -0.209150 0.450000 -0.092691
v -0.209150 0.450000 0.192691
v -0.201032 0.450000 0.222988
v -0.178852 0.450000 0.245168
v -0.148555 0.450000 0.253286
v -0.212000 0.442000 -0.150000
v -0.141333 0.442000 -0.161111
v -0.070667 0.442000 -0.167778
v 0.000000 0.442000 -0.170000
v 0.070667 0.442000 -0.167778
v 0.141333 0.442000 -0.161111
v 0.212000 0.442000 -0.150000
v 0.212000 0.442000 -0.110000
v 0.141333 0.442000 -0.121111
v 0.070667 0.442000 -0.127778
v 0.000000 0.442000 -0.130000
v -0.070667 0.442000 -0.127778
v -0.141333 0.442000 -0.121111
v -0.212000 0.442000 -0.110000
v -0.138667 0.560000 -0.133333
v -0.208000 0.560000 -0.120000
v -0.069333 0.560000 -0.141333
v 0.000000 0.560000 -0.144000
v 0.069333 0.560000 -0.141333
v 0.138667 0.560000 -0.133333
v 0.208000 0.560000 -0.120000
v 0.208000 0.560000 -0.158000
v 0.138667 0.560000 -0.171333
v 0.069333 0.560000 -0.179333
v 0.000000 0.560000 -0.182000
v -0.069333 0.560000 -0.179333
v -0.138667 0.560000 -0.171333
v -0.208000 0.560000 -0.158000
v -0.133333 0.664000 -0.154556
v -0.200000 0.664000 -0.139000
v -0.066667 0.664000 -0.163889
v 0.000000 0.664000 -0.167000
v 0.066667 0.664000 -0.163889
v 0.133333 0.664000 -0.154556
v 0.200000 0.664000 -0.139000
v 0.200000 0.664000 -0.175000
v 0.133333 0.664000 -0.190556
v 0.066667 0.664000 -0.199889
v 0.000000 0.664000 -0.203000
v -0.066667 0.664000 -0.199889
v -0.133333 0.664000 -0.190556
v -0.200000 0.664000 -0.175000
v -0.126667 0.744000 -0.181778
v -0.190000 0.744000 -0.164000
v -0.063333 0.744000 -0.192444
v 0.000000 0.744000 -0.196000
v 0.063333 0.744000 -0.192444
v 0.126667 0.744000 -0.181778
v 0.190000 0.744000 -0.164000
v 0.190000 0.744000 -0.198000
v 0.126667 0.744000 -0.215778
v 0.063333 0.744000 -0.226444
v 0.000000 0.744000 -0.230000
v -0.063333 0.744000 -0.226444
v -0.126667 0.744000 -0.215778
v -0.190000 0.744000 -0.198000
v -0.118667 0.802000 -0.210000
v -0.178000 0.802000 -0.190000
v -0.059333 0.802000 -0.222000
v 0.000000 0.802000 -0.226000
v 0.059333 0.802000 -0.222000
v 0.118667 0.802000 -0.210000
v 0.178000 0.802000 -0.190000
v 0.178000 0.802000 -0.222000
v 0.118667 0.802000 -0.242000
v 0.059333 0.802000 -0.254000
v 0.000000 0.802000 -0.258000
v -0.059333 0.802000 -0.254000
v -0.118667 0.802000 -0.242000
v -0.178000 0.802000 -0.222000
v -0.166217 0.809000 -0.192383
v -0.110811 0.809000 -0.211059
v -0.055406 0.809000 -0.222265
v -0.000000 0.809000 -0.226000
v 0.055406 0.809000 -0.222265
v 0.110811 0.809000 -0.211059
v 0.166217 0.809000 -0.192383
v 0.166217 0.809000 -0.222265
v 0.110811 0.809000 -0.240941
v 0.055406 0.809000 -0.252146
v -0.000000 0.809000 -0.255882
v -0.055406 0.809000 -0.252146
v -0.110811 0.809000 -0.240941
v -0.166217 0.809000 -0.222265
v -0.160668 0.439913 0.181081
v -0.175597 0.441371 0.181081
v -0.182929 0.443458 0.194000
v -0.175332 0.444087 0.206919
v -0.160403 0.442629 0.206919
v -0.153071 0.440542 0.194000
v -0.201086 0.009511 0.244026
v -0.207405 0.011643 0.255185
v -0.220320 0.013131 0.255159
v -0.226914 0.012489 0.243974
v -0.220595 0.010357 0.232815
v -0.207680 0.008869 0.232841
v -0.181604 0.230641 0.228551
v -0.174779 0.228516 0.216514
v -0.195525 0.232125 0.228538
v -0.202621 0.231484 0.216486
v -0.195796 0.229359 0.204449
v -0.181875 0.227875 0.204462
v -0.207000 0.000000 0.256124
v -0.221000 0.000000 0.256124
v -0.228000 0.000000 0.244000
v -0.221000 0.000000 0.231876
v -0.207000 0.000000 0.231876
v -0.200000 0.000000 0.244000
v -0.202240 0.011000 0.244000
v -0.208120 0.011000 0.233816
v -0.219880 0.011000 0.233816
v -0.225760 0.011000 0.244000
v -0.219880 0.011000 0.254184
v -0.208120 0.011000 0.254184
v -0.207000 0.006050 0.231876
v -0.200000 0.006050 0.244000
v -0.221000 0.006050 0.231876
v -0.228000 0.006050 0.244000
v -0.221000 0.006050 0.256124
v -0.207000 0.006050 0.256124
v 0.175597 0.441371 0.181081
v 0.160668 0.439913 0.181081
v 0.153071 0.440542 0.194000
v 0.160403 0.442629 0.206919
v 0.175332 0.444087 0.206919
v 0.182929 0.443458 0.194000
v 0.226914 0.012489 0.243974
v 0.220320 0.013131 0.255159
v 0.207405 0.011643 0.255185
v 0.201086 0.009511 0.244026
v 0.207680 0.008869 0.232841
v 0.220595 0.010357 0.232815
v 0.195525 0.232125 0.228538
v 0.202621 0.231484 0.216486
v 0.181604 0.230641 0.228551
v 0.174779 0.228516 0.216514
v 0.181875 0.227875 0.204462
v 0.195796 0.229359 0.204449
v 0.221000 0.000000 0.256124
v 0.207000 0.000000 0.256124
v 0.200000 0.000000 0.244000
v 0.207000 0.000000 0.231876
v 0.221000 0.000000 0.231876
v 0.228000 0.000000 0.244000
v 0.225760 0.011000 0.244000
v 0.219880 0.011000 0.233816
v 0.208120 0.011000 0.233816
v 0.202240 0.011000 0.244000
v 0.208120 0.011000 0.254184
v 0.219880 0.011000 0.254184
v 0.221000 0.006050 0.231876
v 0.228000 0.006050 0.244000
v 0.207000 0.006050 0.231876
v 0.200000 0.006050 0.244000
v 0.207000 0.006050 0.256124
v 0.221000 0.006050 0.256124
v -0.160419 0.442468 -0.128935
v -0.175348 0.443925 -0.128935
v -0.182929 0.443458 -0.116000
v -0.175581 0.441532 -0.103065
v -0.160652 0.440075 -0.103065
v -0.153071 0.440542 -0.116000
v -0.201086 0.009511 -0.160023
v -0.207664 0.009033 -0.148820
v -0.220578 0.010522 -0.148797
v -0.226914 0.012489 -0.159977
v -0.220336 0.012967 -0.171180
v -0.207422 0.011478 -0.171203
v -0.181859 0.228039 -0.123744
v -0.174779 0.228515 -0.135812
v -0.195780 0.229524 -0.123732
v -0.202621 0.231485 -0.135788
v -0.195541 0.231961 -0.147856
v -0.181620 0.230476 -0.147868
v -0.207000 0.000000 -0.147876
v -0.221000 0.000000 -0.147876
v -0.228000 0.000000 -0.160000
v -0.221000 0.000000 -0.172124
v -0.207000 0.000000 -0.172124
v -0.200000 0.000000 -0.160000
v -0.202240 0.011000 -0.160000
v -0.208120 0.011000 -0.170184
v -0.219880 0.011000 -0.170184
v -0.225760 0.011000 -0.160000
v -0.219880 0.011000 -0.149816
v -0.208120 0.011000 -0.149816
v -0.207000 0.006050 -0.172124
v -0.200000 0.006050 -0.160000
v -0.221000 0.006050 -0.172124
v -0.228000 0.006050 -0.160000
v -0.221000 0.006050 -0.147876
v -0.207000 0.006050 -0.147876
v 0.175348 0.443925 -0.128935
v 0.160419 0.442468 -0.128935
v 0.153071 0.440542 -0.116000
v 0.160652 0.440075 -0.103065
v 0.175581 0.441532 -0.103065
v 0.182929 0.443458 -0.116000
v 0.226914 0.012489 -0.159977
v 0.220578 0.010522 -0.148797
v 0.207664 0.009033 -0.148820
v 0.201086 0.009511 -0.160023
v 0.207422 0.011478 -0.171203
v 0.220336 0.012967 -0.171180
v 0.195780 0.229524 -0.123732
v 0.202621 0.231485 -0.135788
v 0.181859 0.228039 -0.123744
v 0.174779 0.228515 -0.135812
v 0.181620 0.230476 -0.147868
v 0.195541 0.231961 -0.147856
v 0.221000 0.000000 -0.147876
v 0.207000 0.000000 -0.147876
v 0.200000 0.000000 -0.160000
v 0.207000 0.000000 -0.172124
v 0.221000 0.000000 -0.172124
v 0.228000 0.000000 -0.160000
v 0.225760 0.011000 -0.160000
v 0.219880 0.011000 -0.170184
v 0.208120 0.011000 -0.170184
v 0.202240 0.011000 -0.160000
v 0.208120 0.011000 -0.149816
v 0.219880 0.011000 -0.149816
v 0.221000 0.006050 -0.172124
v 0.228000 0.006050 -0.160000
v 0.207000 0.006050 -0.172124
v 0.200000 0.006050 -0.160000
v 0.207000 0.006050 -0.147876
v 0.221000 0.006050 -0.147876
v -0.190001 0.206392 0.176131
v -0.201999 0.206392 0.175869
v -0.207997 0.196000 0.175738
v -0.201999 0.185608 0.175869
v -0.190001 0.185608 0.176131
v -0.184003 0.196000 0.176262
v -0.178003 0.196000 -0.098738
v -0.184001 0.185608 -0.098869
v -0.195999 0.185608 -0.099131
v -0.201997 0.196000 -0.099262
v -0.195999 0.206392 -0.099131
v -0.184001 0.206392 -0.098869
v 0.201999 0.206392 0.175869
v 0.190001 0.206392 0.176131
v 0.184003 0.196000 0.176262
v 0.190001 0.185608 0.176131
v 0.201999 0.185608 0.175869
v 0.207997 0.196000 0.175738
v 0.201997 0.196000 -0.099262
v 0.195999 0.185608 -0.099131
v 0.184001 0.185608 -0.098869
v 0.178003 0.196000 -0.098738
v 0.184001 0.206392 -0.098869
v 0.195999 0.206392 -0.099131
v -0.196000 0.206392 0.182000
v -0.196000 0.206392 0.170000
v -0.196000 0.196000 0.164000
v -0.196000 0.185608 0.170000
v -0.196000 0.185608 0.182000
v -0.196000 0.196000 0.188000
v 0.196000 0.196000 0.188000
v 0.196000 0.185608 0.182000
v 0.196000 0.185608 0.170000
v 0.196000 0.196000 0.164000
v 0.196000 0.206392 0.170000
v 0.196000 0.206392 0.182000
vn -0.0000 -1.0000 -0.0000
vn 0.1917 -0.6720 0.7153
vn 0.4945 -0.7148 0.4945
vn 0.7096 -0.6785 0.1901
vn 0.7777 -0.6287 -0.0000
vn 0.7096 -0.6785 -0.1901
vn 0.4945 -0.7148 -0.4945
vn 0.1917 -0.6720 -0.7153
vn -0.0000 -0.6178 -0.7863
vn -0.1917 -0.6720 -0.7153
vn -0.4945 -0.7148 -0.4945
vn -0.7096 -0.6785 -0.1901
vn -0.7777 -0.6287 -0.0000
vn -0.7096 -0.6785 0.1901
vn -0.4945 -0.7148 0.4945
vn -0.1917 -0.6720 0.7153
vn -0.0000 -0.6178 0.7863
vn 0.2588 -0.0000 0.9659
vn 0.7071 -0.0000 0.7071
vn 0.9659 -0.0000 0.2588
vn 1.0000 -0.0000 -0.0000
vn 0.9659 -0.0000 -0.2588
vn 0.7071 -0.0000 -0.7071
vn 0.2588 -0.0000 -0.9659
vn -0.0000 -0.0000 -1.0000
vn -0.2588 -0.0000 -0.9659
vn -0.7071 -0.0000 -0.7071
vn -0.9659 -0.0000 -0.2588
vn -1.0000 -0.0000 -0.0000
vn -0.9659 -0.0000 0.2588
vn -0.7071 -0.0000 0.7071
vn -0.2588 -0.0000 0.9659
vn -0.0000 -0.0000 1.0000
vn -0.0000 1.0000 -0.0000
vn 0.1751 0.7366 0.6533
vn 0.4468 0.7751 0.4468
vn 0.6471 0.7425 0.1734
vn 0.7178 0.6963 -0.0000
vn 0.6471 0.7425 -0.1734
vn 0.4468 0.7751 -0.4468
vn 0.1751 0.7366 -0.6533
vn -0.0000 0.6860 -0.7276
vn -0.1751 0.7366 -0.6533
vn -0.4468 0.7751 -0.4468
vn -0.6471 0.7425 -0.1734
vn -0.7178 0.6963 -0.0000
vn -0.6471 0.7425 0.1734
vn -0.4468 0.7751 0.4468
vn -0.1751 0.7366 0.6533
vn -0.0000 0.6860 0.7276
vn 0.1713 0.0876 0.9813
vn 0.1036 0.1063 0.9889
vn 0.0347 0.1157 0.9927
vn -0.0347 0.1157 0.9927
vn -0.1036 0.1063 0.9889
vn -0.1713 0.0876 0.9813
vn 0.9994 0.0339 -0.0000
vn 0.1716 -0.0710 -0.9826
vn 0.1038 -0.0896 -0.9906
vn 0.0347 -0.0991 -0.9945
vn -0.0347 -0.0991 -0.9945
vn -0.1038 -0.0896 -0.9906
vn -0.1716 -0.0710 -0.9826
vn -0.9994 0.0339 -0.0000
vn 0.2046 0.1732 0.9634
vn 0.1239 0.1998 0.9720
vn 0.0415 0.2133 0.9761
vn -0.0415 0.2133 0.9761
vn -0.1239 0.1998 0.9720
vn -0.2046 0.1732 0.9634
vn 0.9971 0.0767 -0.0000
vn 0.2053 -0.1551 -0.9663
vn 0.1243 -0.1818 -0.9755
vn 0.0416 -0.1952 -0.9799
vn -0.0416 -0.1952 -0.9799
vn -0.1243 -0.1818 -0.9755
vn -0.2053 -0.1551 -0.9663
vn -0.9971 0.0767 -0.0000
vn 0.2385 0.2788 0.9303
vn 0.1442 0.3177 0.9372
vn 0.0482 0.3372 0.9402
vn -0.0482 0.3372 0.9402
vn -0.1442 0.3177 0.9372
vn -0.2385 0.2788 0.9303
vn 0.9923 0.1240 -0.0000
vn 0.2400 -0.2571 -0.9361
vn 0.1452 -0.2964 -0.9440
vn 0.0486 -0.3161 -0.9475
vn -0.0486 -0.3161 -0.9475
vn -0.1452 -0.2964 -0.9440
vn -0.2400 -0.2571 -0.9361
vn -0.9923 0.1240 -0.0000
vn 0.2737 0.3682 0.8886
vn 0.1644 0.4261 0.8896
vn 0.0548 0.4546 0.8890
vn -0.0548 0.4546 0.8890
vn -0.1644 0.4261 0.8896
vn -0.2737 0.3682 0.8886
vn 0.9793 0.2026 -0.0000
vn 0.2767 -0.3412 -0.8983
vn 0.1665 -0.4005 -0.9010
vn 0.0555 -0.4297 -0.9013
vn -0.0555 -0.4297 -0.9013
vn -0.1665 -0.4005 -0.9010
vn -0.2767 -0.3412 -0.8983
vn -0.9793 0.2026 -0.0000
vn 0.3123 -0.2103 0.9264
vn 0.1977 -0.0739 0.9775
vn 0.0673 -0.0000 0.9977
vn -0.0673 -0.0000 0.9977
vn -0.1977 -0.0739 0.9775
vn -0.3123 -0.2103 0.9264
vn 0.5107 0.8597 -0.0000
vn 0.2855 0.4485 -0.8469
vn 0.1859 0.3476 -0.9190
vn 0.0644 0.2890 -0.9551
vn -0.0644 0.2890 -0.9551
vn -0.1859 0.3476 -0.9190
vn -0.2855 0.4485 -0.8469
vn -0.5107 0.8597 -0.0000
vn 0.0966 0.9898 -0.1050
vn -0.1139 -0.9858 0.1238
vn 0.8666 -0.0359 0.4977
vn 0.0098 0.1005 0.9949
vn -0.8572 0.1324 0.4977
vn -0.8674 0.0279 -0.4968
vn -0.0106 -0.1085 -0.9940
vn 0.8564 -0.1404 -0.4968
vn 0.8660 -0.0414 0.4983
vn 0.0117 0.1194 0.9928
vn -0.8547 0.1569 0.4949
vn -0.8669 0.0337 -0.4974
vn -0.0126 -0.1270 -0.9918
vn 0.8538 -0.1646 -0.4939
vn 0.8660 -0.0000 -0.5000
vn -0.8660 -0.0000 -0.5000
vn -0.8660 -0.0000 0.5000
vn 0.8660 -0.0000 0.5000
vn 0.8063 0.3649 -0.4655
vn -0.0000 0.3649 -0.9311
vn -0.8063 0.3649 -0.4655
vn -0.8063 0.3649 0.4655
vn -0.0000 0.3649 0.9311
vn 0.8063 0.3649 0.4655
vn -0.0966 0.9898 -0.1050
vn 0.1139 -0.9858 0.1238
vn 0.8572 0.1324 0.4977
vn -0.0098 0.1005 0.9949
vn -0.8666 -0.0359 0.4977
vn -0.8564 -0.1404 -0.4968
vn 0.0106 -0.1085 -0.9940
vn 0.8674 0.0279 -0.4968
vn 0.8547 0.1569 0.4949
vn -0.0117 0.1194 0.9928
vn -0.8660 -0.0414 0.4983
vn -0.8538 -0.1646 -0.4939
vn 0.0126 -0.1270 -0.9918
vn 0.8669 0.0337 -0.4974
vn 0.0968 0.9910 0.0926
vn -0.1141 -0.9875 -0.1091
vn 0.8570 -0.1342 0.4975
vn -0.0094 -0.0961 0.9953
vn -0.8668 0.0341 0.4974
vn -0.8578 0.1262 -0.4982
vn 0.0086 0.0881 -0.9961
vn 0.8660 -0.0421 -0.4982
vn 0.8545 -0.1574 0.4951
vn -0.0112 -0.1125 0.9936
vn -0.8661 0.0411 0.4981
vn -0.8554 0.1497 -0.4959
vn 0.0103 0.1047 -0.9944
vn 0.8653 -0.0488 -0.4989
vn -0.0968 0.9910 0.0926
vn 0.1141 -0.9875 -0.1091
vn 0.8668 0.0341 0.4974
vn 0.0094 -0.0961 0.9953
vn -0.8570 -0.1342 0.4975
vn -0.8660 -0.0421 -0.4982
vn -0.0086 0.0881 -0.9961
vn 0.8578 0.1262 -0.4982
vn 0.8661 0.0411 0.4981
vn 0.0112 -0.1125 0.9936
vn -0.8545 -0.1574 0.4951
vn -0.8653 -0.0488 -0.4989
vn -0.0103 0.1047 -0.9944
vn 0.8554 0.1497 -0.4959
vn -0.0218 -0.0000 0.9998
vn 0.0218 -0.0000 -0.9998
vn 0.8658 -0.5000 0.0189
vn -0.8658 -0.5000 -0.0189
vn -0.8658 0.5000 -0.0189
vn 0.8658 0.5000 0.0189
vn 0.0218 -0.0000 0.9998
vn -0.0218 -0.0000 -0.9998
vn 0.8658 -0.5000 -0.0189
vn -0.8658 -0.5000 0.0189
vn -0.8658 0.5000 0.0189
vn 0.8658 0.5000 -0.0189
vn -0.0000 -0.5000 0.8660
vn -0.0000 -0.5000 -0.8660
vn -0.0000 0.5000 -0.8660
vn -0.0000 0.5000 0.8660
vt 0.437500 0.062500
vt 0.187500 0.312500
vt 0.812500 0.312500
s 0
usemtl FN_Atlas
f 1/1/1 2/1/1 3/1/1 4/1/1 5/1/1 6/1/1 7/1/1 8/1/1 9/1/1 10/1/1 11/1/1 12/1/1 13/1/1 14/1/1 15/1/1 16/1/1
f 16/1/2 15/1/2 17/1/2 18/1/2
f 15/1/3 14/1/3 19/1/3 17/1/3
f 14/1/4 13/1/4 20/1/4 19/1/4
f 13/1/5 12/1/5 21/1/5 20/1/5
f 12/1/6 11/1/6 22/1/6 21/1/6
f 11/1/7 10/1/7 23/1/7 22/1/7
f 10/1/8 9/1/8 24/1/8 23/1/8
f 9/1/9 8/1/9 25/1/9 24/1/9
f 8/1/10 7/1/10 26/1/10 25/1/10
f 7/1/11 6/1/11 27/1/11 26/1/11
f 6/1/12 5/1/12 28/1/12 27/1/12
f 5/1/13 4/1/13 29/1/13 28/1/13
f 4/1/14 3/1/14 30/1/14 29/1/14
f 3/1/15 2/1/15 31/1/15 30/1/15
f 2/1/16 1/1/16 32/1/16 31/1/16
f 1/1/17 16/1/17 18/1/17 32/1/17
f 18/1/18 17/1/18 33/1/18 34/1/18
f 17/1/19 19/1/19 35/1/19 33/1/19
f 19/1/20 20/1/20 36/1/20 35/1/20
f 20/1/21 21/1/21 37/1/21 36/1/21
f 21/1/22 22/1/22 38/1/22 37/1/22
f 22/1/23 23/1/23 39/1/23 38/1/23
f 23/1/24 24/1/24 40/1/24 39/1/24
f 24/1/25 25/1/25 41/1/25 40/1/25
f 25/1/26 26/1/26 42/1/26 41/1/26
f 26/1/27 27/1/27 43/1/27 42/1/27
f 27/1/28 28/1/28 44/1/28 43/1/28
f 28/1/29 29/1/29 45/1/29 44/1/29
f 29/1/30 30/1/30 46/1/30 45/1/30
f 30/1/31 31/1/31 47/1/31 46/1/31
f 31/1/32 32/1/32 48/1/32 47/1/32
f 32/1/33 18/1/33 34/1/33 48/1/33
f 49/1/34 50/1/34 51/1/34 52/1/34 53/1/34 54/1/34 55/1/34 56/1/34 57/1/34 58/1/34 59/1/34 60/1/34 61/1/34 62/1/34 63/1/34 64/1/34
f 34/1/35 33/1/35 50/1/35 49/1/35
f 33/1/36 35/1/36 51/1/36 50/1/36
f 35/1/37 36/1/37 52/1/37 51/1/37
f 36/1/38 37/1/38 53/1/38 52/1/38
f 37/1/39 38/1/39 54/1/39 53/1/39
f 38/1/40 39/1/40 55/1/40 54/1/40
f 39/1/41 40/1/41 56/1/41 55/1/41
f 40/1/42 41/1/42 57/1/42 56/1/42
f 41/1/43 42/1/43 58/1/43 57/1/43
f 42/1/44 43/1/44 59/1/44 58/1/44
f 43/1/45 44/1/45 60/1/45 59/1/45
f 44/1/46 45/1/46 61/1/46 60/1/46
f 45/1/47 46/1/47 62/1/47 61/1/47
f 46/1/48 47/1/48 63/1/48 62/1/48
f 47/1/49 48/1/49 64/1/49 63/1/49
f 48/1/50 34/1/50 49/1/50 64/1/50
f 65/1/1 66/1/1 67/1/1 68/1/1 69/1/1 70/1/1 71/1/1 72/1/1 73/1/1 74/1/1 75/1/1 76/1/1 77/1/1 78/1/1
f 78/1/51 77/1/51 79/1/51 80/1/51
f 77/1/52 76/1/52 81/1/52 79/1/52
f 76/1/53 75/1/53 82/1/53 81/1/53
f 75/1/54 74/1/54 83/1/54 82/1/54
f 74/1/55 73/1/55 84/1/55 83/1/55
f 73/1/56 72/1/56 85/1/56 84/1/56
f 72/1/57 71/1/57 86/1/57 85/1/57
f 71/1/58 70/1/58 87/1/58 86/1/58
f 70/1/59 69/1/59 88/1/59 87/1/59
f 69/1/60 68/1/60 89/1/60 88/1/60
f 68/1/61 67/1/61 90/1/61 89/1/61
f 67/1/62 66/1/62 91/1/62 90/1/62
f 66/1/63 65/1/63 92/1/63 91/1/63
f 65/1/64 78/1/64 80/1/64 92/1/64
f 80/1/65 79/1/65 93/1/65 94/1/65
f 79/1/66 81/1/66 95/1/66 93/1/66
f 81/1/67 82/1/67 96/1/67 95/1/67
f 82/1/68 83/1/68 97/1/68 96/1/68
f 83/1/69 84/1/69 98/1/69 97/1/69
f 84/1/70 85/1/70 99/1/70 98/1/70
f 85/1/71 86/1/71 100/1/71 99/1/71
f 86/1/72 87/1/72 101/1/72 100/1/72
f 87/1/73 88/1/73 102/1/73 101/1/73
f 88/1/74 89/1/74 103/1/74 102/1/74
f 89/1/75 90/1/75 104/1/75 103/1/75
f 90/1/76 91/1/76 105/1/76 104/1/76
f 91/1/77 92/1/77 106/1/77 105/1/77
f 92/1/78 80/1/78 94/1/78 106/1/78
f 94/1/79 93/1/79 107/1/79 108/1/79
f 93/1/80 95/1/80 109/1/80 107/1/80
f 95/1/81 96/1/81 110/1/81 109/1/81
f 96/1/82 97/1/82 111/1/82 110/1/82
f 97/1/83 98/1/83 112/1/83 111/1/83
f 98/1/84 99/1/84 113/1/84 112/1/84
f 99/1/85 100/1/85 114/1/85 113/1/85
f 100/1/86 101/1/86 115/1/86 114/1/86
f 101/1/87 102/1/87 116/1/87 115/1/87
f 102/1/88 103/1/88 117/1/88 116/1/88
f 103/1/89 104/1/89 118/1/89 117/1/89
f 104/1/90 105/1/90 119/1/90 118/1/90
f 105/1/91 106/1/91 120/1/91 119/1/91
f 106/1/92 94/1/92 108/1/92 120/1/92
f 108/1/93 107/1/93 121/1/93 122/1/93
f 107/1/94 109/1/94 123/1/94 121/1/94
f 109/1/95 110/1/95 124/1/95 123/1/95
f 110/1/96 111/1/96 125/1/96 124/1/96
f 111/1/97 112/1/97 126/1/97 125/1/97
f 112/1/98 113/1/98 127/1/98 126/1/98
f 113/1/99 114/1/99 128/1/99 127/1/99
f 114/1/100 115/1/100 129/1/100 128/1/100
f 115/1/101 116/1/101 130/1/101 129/1/101
f 116/1/102 117/1/102 131/1/102 130/1/102
f 117/1/103 118/1/103 132/1/103 131/1/103
f 118/1/104 119/1/104 133/1/104 132/1/104
f 119/1/105 120/1/105 134/1/105 133/1/105
f 120/1/106 108/1/106 122/1/106 134/1/106
f 135/1/34 136/1/34 137/1/34 138/1/34 139/1/34 140/1/34 141/1/34 142/1/34 143/1/34 144/1/34 145/1/34 146/1/34 147/1/34 148/1/34
f 122/1/107 121/1/107 136/1/107 135/1/107
f 121/1/108 123/1/108 137/1/108 136/1/108
f 123/1/109 124/1/109 138/1/109 137/1/109
f 124/1/110 125/1/110 139/1/110 138/1/110
f 125/1/111 126/1/111 140/1/111 139/1/111
f 126/1/112 127/1/112 141/1/112 140/1/112
f 127/1/113 128/1/113 142/1/113 141/1/113
f 128/1/114 129/1/114 143/1/114 142/1/114
f 129/1/115 130/1/115 144/1/115 143/1/115
f 130/1/116 131/1/116 145/1/116 144/1/116
f 131/1/117 132/1/117 146/1/117 145/1/117
f 132/1/118 133/1/118 147/1/118 146/1/118
f 133/1/119 134/1/119 148/1/119 147/1/119
f 134/1/120 122/1/120 135/1/120 148/1/120
f 149/2/121 150/2/121 151/2/121 152/2/121 153/2/121 154/2/121
f 155/2/122 156/2/122 157/2/122 158/2/122 159/2/122 160/2/122
f 154/2/123 153/2/123 161/2/123 162/2/123
f 153/2/124 152/2/124 163/2/124 161/2/124
f 152/2/125 151/2/125 164/2/125 163/2/125
f 151/2/126 150/2/126 165/2/126 164/2/126
f 150/2/127 149/2/127 166/2/127 165/2/127
f 149/2/128 154/2/128 162/2/128 166/2/128
f 162/2/129 161/2/129 156/2/129 155/2/129
f 161/2/130 163/2/130 157/2/130 156/2/130
f 163/2/131 164/2/131 158/2/131 157/2/131
f 164/2/132 165/2/132 159/2/132 158/2/132
f 165/2/133 166/2/133 160/2/133 159/2/133
f 166/2/134 162/2/134 155/2/134 160/2/134
f 167/3/1 168/3/1 169/3/1 170/3/1 171/3/1 172/3/1
f 173/3/34 174/3/34 175/3/34 176/3/34 177/3/34 178/3/34
f 172/3/135 171/3/135 179/3/135 180/3/135
f 171/3/25 170/3/25 181/3/25 179/3/25
f 170/3/136 169/3/136 182/3/136 181/3/136
f 169/3/137 168/3/137 183/3/137 182/3/137
f 168/3/33 167/3/33 184/3/33 183/3/33
f 167/3/138 172/3/138 180/3/138 184/3/138
f 180/3/139 179/3/139 174/3/139 173/3/139
f 179/3/140 181/3/140 175/3/140 174/3/140
f 181/3/141 182/3/141 176/3/141 175/3/141
f 182/3/142 183/3/142 177/3/142 176/3/142
f 183/3/143 184/3/143 178/3/143 177/3/143
f 184/3/144 180/3/144 173/3/144 178/3/144
f 185/2/145 186/2/145 187/2/145 188/2/145 189/2/145 190/2/145
f 191/2/146 192/2/146 193/2/146 194/2/146 195/2/146 196/2/146
f 190/2/147 189/2/147 197/2/147 198/2/147
f 189/2/148 188/2/148 199/2/148 197/2/148
f 188/2/149 187/2/149 200/2/149 199/2/149
f 187/2/150 186/2/150 201/2/150 200/2/150
f 186/2/151 185/2/151 202/2/151 201/2/151
f 185/2/152 190/2/152 198/2/152 202/2/152
f 198/2/153 197/2/153 192/2/153 191/2/153
f 197/2/154 199/2/154 193/2/154 192/2/154
f 199/2/155 200/2/155 194/2/155 193/2/155
f 200/2/156 201/2/156 195/2/156 194/2/156
f 201/2/157 202/2/157 196/2/157 195/2/157
f 202/2/158 198/2/158 191/2/158 196/2/158
f 203/3/1 204/3/1 205/3/1 206/3/1 207/3/1 208/3/1
f 209/3/34 210/3/34 211/3/34 212/3/34 213/3/34 214/3/34
f 208/3/135 207/3/135 215/3/135 216/3/135
f 207/3/25 206/3/25 217/3/25 215/3/25
f 206/3/136 205/3/136 218/3/136 217/3/136
f 205/3/137 204/3/137 219/3/137 218/3/137
f 204/3/33 203/3/33 220/3/33 219/3/33
f 203/3/138 208/3/138 216/3/138 220/3/138
f 216/3/139 215/3/139 210/3/139 209/3/139
f 215/3/140 217/3/140 211/3/140 210/3/140
f 217/3/141 218/3/141 212/3/141 211/3/141
f 218/3/142 219/3/142 213/3/142 212/3/142
f 219/3/143 220/3/143 214/3/143 213/3/143
f 220/3/144 216/3/144 209/3/144 214/3/144
f 221/2/159 222/2/159 223/2/159 224/2/159 225/2/159 226/2/159
f 227/2/160 228/2/160 229/2/160 230/2/160 231/2/160 232/2/160
f 226/2/161 225/2/161 233/2/161 234/2/161
f 225/2/162 224/2/162 235/2/162 233/2/162
f 224/2/163 223/2/163 236/2/163 235/2/163
f 223/2/164 222/2/164 237/2/164 236/2/164
f 222/2/165 221/2/165 238/2/165 237/2/165
f 221/2/166 226/2/166 234/2/166 238/2/166
f 234/2/167 233/2/167 228/2/167 227/2/167
f 233/2/168 235/2/168 229/2/168 228/2/168
f 235/2/169 236/2/169 230/2/169 229/2/169
f 236/2/170 237/2/170 231/2/170 230/2/170
f 237/2/171 238/2/171 232/2/171 231/2/171
f 238/2/172 234/2/172 227/2/172 232/2/172
f 239/3/1 240/3/1 241/3/1 242/3/1 243/3/1 244/3/1
f 245/3/34 246/3/34 247/3/34 248/3/34 249/3/34 250/3/34
f 244/3/135 243/3/135 251/3/135 252/3/135
f 243/3/25 242/3/25 253/3/25 251/3/25
f 242/3/136 241/3/136 254/3/136 253/3/136
f 241/3/137 240/3/137 255/3/137 254/3/137
f 240/3/33 239/3/33 256/3/33 255/3/33
f 239/3/138 244/3/138 252/3/138 256/3/138
f 252/3/139 251/3/139 246/3/139 245/3/139
f 251/3/140 253/3/140 247/3/140 246/3/140
f 253/3/141 254/3/141 248/3/141 247/3/141
f 254/3/142 255/3/142 249/3/142 248/3/142
f 255/3/143 256/3/143 250/3/143 249/3/143
f 256/3/144 252/3/144 245/3/144 250/3/144
f 257/2/173 258/2/173 259/2/173 260/2/173 261/2/173 262/2/173
f 263/2/174 264/2/174 265/2/174 266/2/174 267/2/174 268/2/174
f 262/2/175 261/2/175 269/2/175 270/2/175
f 261/2/176 260/2/176 271/2/176 269/2/176
f 260/2/177 259/2/177 272/2/177 271/2/177
f 259/2/178 258/2/178 273/2/178 272/2/178
f 258/2/179 257/2/179 274/2/179 273/2/179
f 257/2/180 262/2/180 270/2/180 274/2/180
f 270/2/181 269/2/181 264/2/181 263/2/181
f 269/2/182 271/2/182 265/2/182 264/2/182
f 271/2/183 272/2/183 266/2/183 265/2/183
f 272/2/184 273/2/184 267/2/184 266/2/184
f 273/2/185 274/2/185 268/2/185 267/2/185
f 274/2/186 270/2/186 263/2/186 268/2/186
f 275/3/1 276/3/1 277/3/1 278/3/1 279/3/1 280/3/1
f 281/3/34 282/3/34 283/3/34 284/3/34 285/3/34 286/3/34
f 280/3/135 279/3/135 287/3/135 288/3/135
f 279/3/25 278/3/25 289/3/25 287/3/25
f 278/3/136 277/3/136 290/3/136 289/3/136
f 277/3/137 276/3/137 291/3/137 290/3/137
f 276/3/33 275/3/33 292/3/33 291/3/33
f 275/3/138 280/3/138 288/3/138 292/3/138
f 288/3/139 287/3/139 282/3/139 281/3/139
f 287/3/140 289/3/140 283/3/140 282/3/140
f 289/3/141 290/3/141 284/3/141 283/3/141
f 290/3/142 291/3/142 285/3/142 284/3/142
f 291/3/143 292/3/143 286/3/143 285/3/143
f 292/3/144 288/3/144 281/3/144 286/3/144
f 293/2/187 294/2/187 295/2/187 296/2/187 297/2/187 298/2/187
f 299/2/188 300/2/188 301/2/188 302/2/188 303/2/188 304/2/188
f 298/2/189 297/2/189 300/2/189 299/2/189
f 297/2/1 296/2/1 301/2/1 300/2/1
f 296/2/190 295/2/190 302/2/190 301/2/190
f 295/2/191 294/2/191 303/2/191 302/2/191
f 294/2/34 293/2/34 304/2/34 303/2/34
f 293/2/192 298/2/192 299/2/192 304/2/192
f 305/2/193 306/2/193 307/2/193 308/2/193 309/2/193 310/2/193
f 311/2/194 312/2/194 313/2/194 314/2/194 315/2/194 316/2/194
f 310/2/195 309/2/195 312/2/195 311/2/195
f 309/2/1 308/2/1 313/2/1 312/2/1
f 308/2/196 307/2/196 314/2/196 313/2/196
f 307/2/197 306/2/197 315/2/197 314/2/197
f 306/2/34 305/2/34 316/2/34 315/2/34
f 305/2/198 310/2/198 311/2/198 316/2/198
f 317/2/29 318/2/29 319/2/29 320/2/29 321/2/29 322/2/29
f 323/2/21 324/2/21 325/2/21 326/2/21 327/2/21 328/2/21
f 322/2/199 321/2/199 324/2/199 323/2/199
f 321/2/1 320/2/1 325/2/1 324/2/1
f 320/2/200 319/2/200 326/2/200 325/2/200
f 319/2/201 318/2/201 327/2/201 326/2/201
f 318/2/34 317/2/34 328/2/34 327/2/34
f 317/2/202 322/2/202 323/2/202 328/2/202
