# Blender 5.2.0 LTS
# www.blender.org
mtllib FN_Crate_Fruit.mtl
o FN_Crate_Fruit
v -0.250000 0.000000 0.170000
v -0.250000 0.000000 0.130000
v -0.210000 0.000000 0.130000
v -0.210000 0.000000 0.170000
v -0.250000 0.180000 0.170000
v -0.210000 0.180000 0.170000
v -0.210000 0.180000 0.130000
v -0.250000 0.180000 0.130000
v -0.250000 0.000000 -0.130000
v -0.250000 0.000000 -0.170000
v -0.210000 0.000000 -0.170000
v -0.210000 0.000000 -0.130000
v -0.250000 0.180000 -0.130000
v -0.210000 0.180000 -0.130000
v -0.210000 0.180000 -0.170000
v -0.250000 0.180000 -0.170000
v 0.210000 0.000000 0.170000
v 0.210000 0.000000 0.130000
v 0.250000 0.000000 0.130000
v 0.250000 0.000000 0.170000
v 0.210000 0.180000 0.170000
v 0.250000 0.180000 0.170000
v 0.250000 0.180000 0.130000
v 0.210000 0.180000 0.130000
v 0.210000 0.000000 -0.130000
v 0.210000 0.000000 -0.170000
v 0.250000 0.000000 -0.170000
v 0.250000 0.000000 -0.130000
v 0.210000 0.180000 -0.130000
v 0.250000 0.180000 -0.130000
v 0.250000 0.180000 -0.170000
v 0.210000 0.180000 -0.170000
v -0.250000 0.018000 0.165000
v -0.250000 0.018000 0.151000
v 0.250000 0.018000 0.151000
v 0.250000 0.018000 0.165000
v -0.250000 0.058000 0.165000
v 0.250000 0.058000 0.165000
v 0.250000 0.058000 0.151000
v -0.250000 0.058000 0.151000
v -0.250000 0.070000 0.165000
v -0.250000 0.070000 0.151000
v 0.250000 0.070000 0.151000
v 0.250000 0.070000 0.165000
v -0.250000 0.110000 0.165000
v 0.250000 0.110000 0.165000
v 0.250000 0.110000 0.151000
v -0.250000 0.110000 0.151000
v -0.250000 0.122000 0.165000
v -0.250000 0.122000 0.151000
v 0.250000 0.122000 0.151000
v 0.250000 0.122000 0.165000
v -0.250000 0.162000 0.165000
v 0.250000 0.162000 0.165000
v 0.250000 0.162000 0.151000
v -0.250000 0.162000 0.151000
v -0.250000 0.018000 -0.151000
v -0.250000 0.018000 -0.165000
v 0.250000 0.018000 -0.165000
v 0.250000 0.018000 -0.151000
v -0.250000 0.058000 -0.151000
v 0.250000 0.058000 -0.151000
v 0.250000 0.058000 -0.165000
v -0.250000 0.058000 -0.165000
v -0.250000 0.070000 -0.151000
v -0.250000 0.070000 -0.165000
v 0.250000 0.070000 -0.165000
v 0.250000 0.070000 -0.151000
v -0.250000 0.110000 -0.151000
v 0.250000 0.110000 -0.151000
v 0.250000 0.110000 -0.165000
v -0.250000 0.110000 -0.165000
v -0.250000 0.122000 -0.151000
v -0.250000 0.122000 -0.165000
v 0.250000 0.122000 -0.165000
v 0.250000 0.122000 -0.151000
v -0.250000 0.162000 -0.151000
v 0.250000 0.162000 -0.151000
v 0.250000 0.162000 -0.165000
v -0.250000 0.162000 -0.165000
v -0.250000 0.018000 0.160000
v -0.250000 0.018000 -0.160000
v -0.236000 0.018000 -0.160000
v -0.236000 0.018000 0.160000
v -0.250000 0.058000 0.160000
v -0.236000 0.058000 0.160000
v -0.236000 0.058000 -0.160000
v -0.250000 0.058000 -0.160000
v -0.250000 0.122000 0.160000
v -0.250000 0.122000 -0.160000
v -0.236000 0.122000 -0.160000
v -0.236000 0.122000 0.160000
v -0.250000 0.162000 0.160000
v -0.236000 0.162000 0.160000
v -0.236000 0.162000 -0.160000
v -0.250000 0.162000 -0.160000
v 0.236000 0.018000 0.160000
v 0.236000 0.018000 -0.160000
v 0.250000 0.018000 -0.160000
v 0.250000 0.018000 0.160000
v 0.236000 0.058000 0.160000
v 0.250000 0.058000 0.160000
v 0.250000 0.058000 -0.160000
v 0.236000 0.058000 -0.160000
v 0.236000 0.122000 0.160000
v 0.236000 0.122000 -0.160000
v 0.250000 0.122000 -0.160000
v 0.250000 0.122000 0.160000
v 0.236000 0.162000 0.160000
v 0.250000 0.162000 0.160000
v 0.250000 0.162000 -0.160000
v 0.236000 0.162000 -0.160000
v -0.240000 0.006000 0.148000
v -0.240000 0.006000 0.092000
v 0.240000 0.006000 0.092000
v 0.240000 0.006000 0.148000
v -0.240000 0.024000 0.148000
v 0.240000 0.024000 0.148000
v 0.240000 0.024000 0.092000
v -0.240000 0.024000 0.092000
v -0.240000 0.006000 0.068000
v -0.240000 0.006000 0.012000
v 0.240000 0.006000 0.012000
v 0.240000 0.006000 0.068000
v -0.240000 0.024000 0.068000
v 0.240000 0.024000 0.068000
v 0.240000 0.024000 0.012000
v -0.240000 0.024000 0.012000
v -0.240000 0.006000 -0.012000
v -0.240000 0.006000 -0.068000
v 0.240000 0.006000 -0.068000
v 0.240000 0.006000 -0.012000
v -0.240000 0.024000 -0.012000
v 0.240000 0.024000 -0.012000
v 0.240000 0.024000 -0.068000
v -0.240000 0.024000 -0.068000
v -0.240000 0.006000 -0.092000
v -0.240000 0.006000 -0.148000
v 0.240000 0.006000 -0.148000
v 0.240000 0.006000 -0.092000
v -0.240000 0.024000 -0.092000
v 0.240000 0.024000 -0.092000
v 0.240000 0.024000 -0.148000
v -0.240000 0.024000 -0.148000
v -0.114475 0.037600 -0.026890
v -0.098950 0.037600 0.000000
v -0.130000 0.025000 0.000000
v -0.098950 0.102400 0.000000
v -0.114475 0.102400 -0.026890
v -0.130000 0.115000 0.000000
v -0.145525 0.037600 -0.026890
v -0.145525 0.102400 -0.026890
v -0.161050 0.037600 -0.000000
v -0.161050 0.102400 -0.000000
v -0.145525 0.037600 0.026890
v -0.145525 0.102400 0.026890
v -0.114475 0.037600 0.026890
v -0.114475 0.102400 0.026890
v -0.108175 0.058300 -0.037802
v -0.086350 0.058300 0.000000
v -0.151825 0.058300 -0.037802
v -0.173650 0.058300 -0.000000
v -0.151825 0.058300 0.037802
v -0.108175 0.058300 0.037802
v -0.108175 0.081700 -0.037802
v -0.086350 0.081700 0.000000
v -0.151825 0.081700 -0.037802
v -0.173650 0.081700 -0.000000
v -0.151825 0.081700 0.037802
v -0.108175 0.081700 0.037802
v 0.015525 0.037600 0.033110
v 0.031050 0.037600 0.060000
v 0.000000 0.025000 0.060000
v 0.031050 0.102400 0.060000
v 0.015525 0.102400 0.033110
v 0.000000 0.115000 0.060000
v -0.015525 0.037600 0.033110
v -0.015525 0.102400 0.033110
v -0.031050 0.037600 0.060000
v -0.031050 0.102400 0.060000
v -0.015525 0.037600 0.086890
v -0.015525 0.102400 0.086890
v 0.015525 0.037600 0.086890
v 0.015525 0.102400 0.086890
v 0.021825 0.058300 0.022198
v 0.043650 0.058300 0.060000
v -0.021825 0.058300 0.022198
v -0.043650 0.058300 0.060000
v -0.021825 0.058300 0.097802
v 0.021825 0.058300 0.097802
v 0.021825 0.081700 0.022198
v 0.043650 0.081700 0.060000
v -0.021825 0.081700 0.022198
v -0.043650 0.081700 0.060000
v -0.021825 0.081700 0.097802
v 0.021825 0.081700 0.097802
v 0.145525 0.037600 -0.066890
v 0.161050 0.037600 -0.040000
v 0.130000 0.025000 -0.040000
v 0.161050 0.102400 -0.040000
v 0.145525 0.102400 -0.066890
v 0.130000 0.115000 -0.040000
v 0.114475 0.037600 -0.066890
v 0.114475 0.102400 -0.066890
v 0.098950 0.037600 -0.040000
v 0.098950 0.102400 -0.040000
v 0.114475 0.037600 -0.013110
v 0.114475 0.102400 -0.013110
v 0.145525 0.037600 -0.013110
v 0.145525 0.102400 -0.013110
v 0.151825 0.058300 -0.077802
v 0.173650 0.058300 -0.040000
v 0.108175 0.058300 -0.077802
v 0.086350 0.058300 -0.040000
v 0.108175 0.058300 -0.002198
v 0.151825 0.058300 -0.002198
v 0.151825 0.081700 -0.077802
v 0.173650 0.081700 -0.040000
v 0.108175 0.081700 -0.077802
v 0.086350 0.081700 -0.040000
v 0.108175 0.081700 -0.002198
v 0.151825 0.081700 -0.002198
v -0.084475 0.102600 -0.011890
v -0.068950 0.102600 0.015000
v -0.100000 0.090000 0.015000
v -0.068950 0.167400 0.015000
v -0.084475 0.167400 -0.011890
v -0.100000 0.180000 0.015000
v -0.115525 0.102600 -0.011890
v -0.115525 0.167400 -0.011890
v -0.131050 0.102600 0.015000
v -0.131050 0.167400 0.015000
v -0.115525 0.102600 0.041890
v -0.115525 0.167400 0.041890
v -0.084475 0.102600 0.041890
v -0.084475 0.167400 0.041890
v -0.078175 0.123300 -0.022802
v -0.056350 0.123300 0.015000
v -0.121825 0.123300 -0.022802
v -0.143650 0.123300 0.015000
v -0.121825 0.123300 0.052802
v -0.078175 0.123300 0.052802
v -0.078175 0.146700 -0.022802
v -0.056350 0.146700 0.015000
v -0.121825 0.146700 -0.022802
v -0.143650 0.146700 0.015000
v -0.121825 0.146700 0.052802
v -0.078175 0.146700 0.052802
v 0.110525 0.102600 -0.046890
v 0.126050 0.102600 -0.020000
v 0.095000 0.090000 -0.020000
v 0.126050 0.167400 -0.020000
v 0.110525 0.167400 -0.046890
v 0.095000 0.180000 -0.020000
v 0.079475 0.102600 -0.046890
v 0.079475 0.167400 -0.046890
v 0.063950 0.102600 -0.020000
v 0.063950 0.167400 -0.020000
v 0.079475 0.102600 0.006890
v 0.079475 0.167400 0.006890
v 0.110525 0.102600 0.006890
v 0.110525 0.167400 0.006890
v 0.116825 0.123300 -0.057802
v 0.138650 0.123300 -0.020000
v 0.073175 0.123300 -0.057802
v 0.051350 0.123300 -0.020000
v 0.073175 0.123300 0.017802
v 0.116825 0.123300 0.017802
v 0.116825 0.146700 -0.057802
v 0.138650 0.146700 -0.020000
v 0.073175 0.146700 -0.057802
v 0.051350 0.146700 -0.020000
v 0.073175 0.146700 0.017802
v 0.116825 0.146700 0.017802
vn -0.0000 -1.0000 -0.0000
vn -0.0000 1.0000 -0.0000
vn -0.0000 -0.0000 1.0000
vn -0.0000 -0.0000 -1.0000
vn -1.0000 -0.0000 -0.0000
vn 1.0000 -0.0000 -0.0000
vn 0.3675 -0.9055 -0.2122
vn 0.3675 0.9055 -0.2122
vn -0.0000 -0.9055 -0.4243
vn -0.0000 0.9055 -0.4243
vn -0.3675 -0.9055 -0.2122
vn -0.3675 0.9055 -0.2122
vn -0.3675 -0.9055 0.2122
vn -0.3675 0.9055 0.2122
vn -0.0000 -0.9055 0.4243
vn -0.0000 0.9055 0.4243
vn 0.3675 -0.9055 0.2122
vn 0.3675 0.9055 0.2122
vn 0.7661 -0.4663 -0.4423
vn -0.0000 -0.4663 -0.8846
vn -0.7661 -0.4663 -0.4423
vn -0.7661 -0.4663 0.4423
vn -0.0000 -0.4663 0.8846
vn 0.7661 -0.4663 0.4423
vn 0.8660 -0.0000 -0.5000
vn -0.8660 -0.0000 -0.5000
vn -0.8660 -0.0000 0.5000
vn 0.8660 -0.0000 0.5000
vn 0.7661 0.4663 -0.4423
vn -0.0000 0.4663 -0.8846
vn -0.7661 0.4663 -0.4423
vn -0.7661 0.4663 0.4423
vn -0.0000 0.4663 0.8846
vn 0.7661 0.4663 0.4423
vt 0.062500 0.937500
vt 0.312500 0.062500
vt 0.562500 0.062500
s 0
usemtl FN_Atlas
f 1/1/1 2/1/1 3/1/1 4/1/1
f 5/1/2 6/1/2 7/1/2 8/1/2
f 1/1/3 4/1/3 6/1/3 5/1/3
f 3/1/4 2/1/4 8/1/4 7/1/4
f 1/1/5 5/1/5 8/1/5 2/1/5
f 4/1/6 3/1/6 7/1/6 6/1/6
f 9/1/1 10/1/1 11/1/1 12/1/1
f 13/1/2 14/1/2 15/1/2 16/1/2
f 9/1/3 12/1/3 14/1/3 13/1/3
f 11/1/4 10/1/4 16/1/4 15/1/4
f 9/1/5 13/1/5 16/1/5 10/1/5
f 12/1/6 11/1/6 15/1/6 14/1/6
f 17/1/1 18/1/1 19/1/1 20/1/1
f 21/1/2 22/1/2 23/1/2 24/1/2
f 17/1/3 20/1/3 22/1/3 21/1/3
f 19/1/4 18/1/4 24/1/4 23/1/4
f 17/1/5 21/1/5 24/1/5 18/1/5
f 20/1/6 19/1/6 23/1/6 22/1/6
f 25/1/1 26/1/1 27/1/1 28/1/1
f 29/1/2 30/1/2 31/1/2 32/1/2
f 25/1/3 28/1/3 30/1/3 29/1/3
f 27/1/4 26/1/4 32/1/4 31/1/4
f 25/1/5 29/1/5 32/1/5 26/1/5
f 28/1/6 27/1/6 31/1/6 30/1/6
f 33/1/1 34/1/1 35/1/1 36/1/1
f 37/1/2 38/1/2 39/1/2 40/1/2
f 33/1/3 36/1/3 38/1/3 37/1/3
f 35/1/4 34/1/4 40/1/4 39/1/4
f 33/1/5 37/1/5 40/1/5 34/1/5
f 36/1/6 35/1/6 39/1/6 38/1/6
f 41/1/1 42/1/1 43/1/1 44/1/1
f 45/1/2 46/1/2 47/1/2 48/1/2
f 41/1/3 44/1/3 46/1/3 45/1/3
f 43/1/4 42/1/4 48/1/4 47/1/4
f 41/1/5 45/1/5 48/1/5 42/1/5
f 44/1/6 43/1/6 47/1/6 46/1/6
f 49/1/1 50/1/1 51/1/1 52/1/1
f 53/1/2 54/1/2 55/1/2 56/1/2
f 49/1/3 52/1/3 54/1/3 53/1/3
f 51/1/4 50/1/4 56/1/4 55/1/4
f 49/1/5 53/1/5 56/1/5 50/1/5
f 52/1/6 51/1/6 55/1/6 54/1/6
f 57/1/1 58/1/1 59/1/1 60/1/1
f 61/1/2 62/1/2 63/1/2 64/1/2
f 57/1/3 60/1/3 62/1/3 61/1/3
f 59/1/4 58/1/4 64/1/4 63/1/4
f 57/1/5 61/1/5 64/1/5 58/1/5
f 60/1/6 59/1/6 63/1/6 62/1/6
f 65/1/1 66/1/1 67/1/1 68/1/1
f 69/1/2 70/1/2 71/1/2 72/1/2
f 65/1/3 68/1/3 70/1/3 69/1/3
f 67/1/4 66/1/4 72/1/4 71/1/4
f 65/1/5 69/1/5 72/1/5 66/1/5
f 68/1/6 67/1/6 71/1/6 70/1/6
f 73/1/1 74/1/1 75/1/1 76/1/1
f 77/1/2 78/1/2 79/1/2 80/1/2
f 73/1/3 76/1/3 78/1/3 77/1/3
f 75/1/4 74/1/4 80/1/4 79/1/4
f 73/1/5 77/1/5 80/1/5 74/1/5
f 76/1/6 75/1/6 79/1/6 78/1/6
f 81/1/1 82/1/1 83/1/1 84/1/1
f 85/1/2 86/1/2 87/1/2 88/1/2
f 81/1/3 84/1/3 86/1/3 85/1/3
f 83/1/4 82/1/4 88/1/4 87/1/4
f 81/1/5 85/1/5 88/1/5 82/1/5
f 84/1/6 83/1/6 87/1/6 86/1/6
f 89/1/1 90/1/1 91/1/1 92/1/1
f 93/1/2 94/1/2 95/1/2 96/1/2
f 89/1/3 92/1/3 94/1/3 93/1/3
f 91/1/4 90/1/4 96/1/4 95/1/4
f 89/1/5 93/1/5 96/1/5 90/1/5
f 92/1/6 91/1/6 95/1/6 94/1/6
f 97/1/1 98/1/1 99/1/1 100/1/1
f 101/1/2 102/1/2 103/1/2 104/1/2
f 97/1/3 100/1/3 102/1/3 101/1/3
f 99/1/4 98/1/4 104/1/4 103/1/4
f 97/1/5 101/1/5 104/1/5 98/1/5
f 100/1/6 99/1/6 103/1/6 102/1/6
f 105/1/1 106/1/1 107/1/1 108/1/1
f 109/1/2 110/1/2 111/1/2 112/1/2
f 105/1/3 108/1/3 110/1/3 109/1/3
f 107/1/4 106/1/4 112/1/4 111/1/4
f 105/1/5 109/1/5 112/1/5 106/1/5
f 108/1/6 107/1/6 111/1/6 110/1/6
f 113/1/1 114/1/1 115/1/1 116/1/1
f 117/1/2 118/1/2 119/1/2 120/1/2
f 113/1/3 116/1/3 118/1/3 117/1/3
f 115/1/4 114/1/4 120/1/4 119/1/4
f 113/1/5 117/1/5 120/1/5 114/1/5
f 116/1/6 115/1/6 119/1/6 118/1/6
f 121/1/1 122/1/1 123/1/1 124/1/1
f 125/1/2 126/1/2 127/1/2 128/1/2
f 121/1/3 124/1/3 126/1/3 125/1/3
f 123/1/4 122/1/4 128/1/4 127/1/4
f 121/1/5 125/1/5 128/1/5 122/1/5
f 124/1/6 123/1/6 127/1/6 126/1/6
f 129/1/1 130/1/1 131/1/1 132/1/1
f 133/1/2 134/1/2 135/1/2 136/1/2
f 129/1/3 132/1/3 134/1/3 133/1/3
f 131/1/4 130/1/4 136/1/4 135/1/4
f 129/1/5 133/1/5 136/1/5 130/1/5
f 132/1/6 131/1/6 135/1/6 134/1/6
f 137/1/1 138/1/1 139/1/1 140/1/1
f 141/1/2 142/1/2 143/1/2 144/1/2
f 137/1/3 140/1/3 142/1/3 141/1/3
f 139/1/4 138/1/4 144/1/4 143/1/4
f 137/1/5 141/1/5 144/1/5 138/1/5
f 140/1/6 139/1/6 143/1/6 142/1/6
f 145/2/7 146/2/7 147/2/7
f 148/2/8 149/2/8 150/2/8
f 151/2/9 145/2/9 147/2/9
f 149/2/10 152/2/10 150/2/10
f 153/2/11 151/2/11 147/2/11
f 152/2/12 154/2/12 150/2/12
f 155/2/13 153/2/13 147/2/13
f 154/2/14 156/2/14 150/2/14
f 157/2/15 155/2/15 147/2/15
f 156/2/16 158/2/16 150/2/16
f 146/2/17 157/2/17 147/2/17
f 158/2/18 148/2/18 150/2/18
f 146/2/19 145/2/19 159/2/19 160/2/19
f 145/2/20 151/2/20 161/2/20 159/2/20
f 151/2/21 153/2/21 162/2/21 161/2/21
f 153/2/22 155/2/22 163/2/22 162/2/22
f 155/2/23 157/2/23 164/2/23 163/2/23
f 157/2/24 146/2/24 160/2/24 164/2/24
f 160/2/25 159/2/25 165/2/25 166/2/25
f 159/2/4 161/2/4 167/2/4 165/2/4
f 161/2/26 162/2/26 168/2/26 167/2/26
f 162/2/27 163/2/27 169/2/27 168/2/27
f 163/2/3 164/2/3 170/2/3 169/2/3
f 164/2/28 160/2/28 166/2/28 170/2/28
f 166/2/29 165/2/29 149/2/29 148/2/29
f 165/2/30 167/2/30 152/2/30 149/2/30
f 167/2/31 168/2/31 154/2/31 152/2/31
f 168/2/32 169/2/32 156/2/32 154/2/32
f 169/2/33 170/2/33 158/2/33 156/2/33
f 170/2/34 166/2/34 148/2/34 158/2/34
f 171/3/7 172/3/7 173/3/7
f 174/3/8 175/3/8 176/3/8
f 177/3/9 171/3/9 173/3/9
f 175/3/10 178/3/10 176/3/10
f 179/3/11 177/3/11 173/3/11
f 178/3/12 180/3/12 176/3/12
f 181/3/13 179/3/13 173/3/13
f 180/3/14 182/3/14 176/3/14
f 183/3/15 181/3/15 173/3/15
f 182/3/16 184/3/16 176/3/16
f 172/3/17 183/3/17 173/3/17
f 184/3/18 174/3/18 176/3/18
f 172/3/19 171/3/19 185/3/19 186/3/19
f 171/3/20 177/3/20 187/3/20 185/3/20
f 177/3/21 179/3/21 188/3/21 187/3/21
f 179/3/22 181/3/22 189/3/22 188/3/22
f 181/3/23 183/3/23 190/3/23 189/3/23
f 183/3/24 172/3/24 186/3/24 190/3/24
f 186/3/25 185/3/25 191/3/25 192/3/25
f 185/3/4 187/3/4 193/3/4 191/3/4
f 187/3/26 188/3/26 194/3/26 193/3/26
f 188/3/27 189/3/27 195/3/27 194/3/27
f 189/3/3 190/3/3 196/3/3 195/3/3
f 190/3/28 186/3/28 192/3/28 196/3/28
f 192/3/29 191/3/29 175/3/29 174/3/29
f 191/3/30 193/3/30 178/3/30 175/3/30
f 193/3/31 194/3/31 180/3/31 178/3/31
f 194/3/32 195/3/32 182/3/32 180/3/32
f 195/3/33 196/3/33 184/3/33 182/3/33
f 196/3/34 192/3/34 174/3/34 184/3/34
f 197/2/7 198/2/7 199/2/7
f 200/2/8 201/2/8 202/2/8
f 203/2/9 197/2/9 199/2/9
f 201/2/10 204/2/10 202/2/10
f 205/2/11 203/2/11 199/2/11
f 204/2/12 206/2/12 202/2/12
f 207/2/13 205/2/13 199/2/13
f 206/2/14 208/2/14 202/2/14
f 209/2/15 207/2/15 199/2/15
f 208/2/16 210/2/16 202/2/16
f 198/2/17 209/2/17 199/2/17
f 210/2/18 200/2/18 202/2/18
f 198/2/19 197/2/19 211/2/19 212/2/19
f 197/2/20 203/2/20 213/2/20 211/2/20
f 203/2/21 205/2/21 214/2/21 213/2/21
f 205/2/22 207/2/22 215/2/22 214/2/22
f 207/2/23 209/2/23 216/2/23 215/2/23
f 209/2/24 198/2/24 212/2/24 216/2/24
f 212/2/25 211/2/25 217/2/25 218/2/25
f 211/2/4 213/2/4 219/2/4 217/2/4
f 213/2/26 214/2/26 220/2/26 219/2/26
f 214/2/27 215/2/27 221/2/27 220/2/27
f 215/2/3 216/2/3 222/2/3 221/2/3
f 216/2/28 212/2/28 218/2/28 222/2/28
f 218/2/29 217/2/29 201/2/29 200/2/29
f 217/2/30 219/2/30 204/2/30 201/2/30
f 219/2/31 220/2/31 206/2/31 204/2/31
f 220/2/32 221/2/32 208/2/32 206/2/32
f 221/2/33 222/2/33 210/2/33 208/2/33
f 222/2/34 218/2/34 200/2/34 210/2/34
f 223/3/7 224/3/7 225/3/7
f 226/3/8 227/3/8 228/3/8
f 229/3/9 223/3/9 225/3/9
f 227/3/10 230/3/10 228/3/10
f 231/3/11 229/3/11 225/3/11
f 230/3/12 232/3/12 228/3/12
f 233/3/13 231/3/13 225/3/13
f 232/3/14 234/3/14 228/3/14
f 235/3/15 233/3/15 225/3/15
f 234/3/16 236/3/16 228/3/16
f 224/3/17 235/3/17 225/3/17
f 236/3/18 226/3/18 228/3/18
f 224/3/19 223/3/19 237/3/19 238/3/19
f 223/3/20 229/3/20 239/3/20 237/3/20
f 229/3/21 231/3/21 240/3/21 239/3/21
f 231/3/22 233/3/22 241/3/22 240/3/22
f 233/3/23 235/3/23 242/3/23 241/3/23
f 235/3/24 224/3/24 238/3/24 242/3/24
f 238/3/25 237/3/25 243/3/25 244/3/25
f 237/3/4 239/3/4 245/3/4 243/3/4
f 239/3/26 240/3/26 246/3/26 245/3/26
f 240/3/27 241/3/27 247/3/27 246/3/27
f 241/3/3 242/3/3 248/3/3 247/3/3
f 242/3/28 238/3/28 244/3/28 248/3/28
f 244/3/29 243/3/29 227/3/29 226/3/29
f 243/3/30 245/3/30 230/3/30 227/3/30
f 245/3/31 246/3/31 232/3/31 230/3/31
f 246/3/32 247/3/32 234/3/32 232/3/32
f 247/3/33 248/3/33 236/3/33 234/3/33
f 248/3/34 244/3/34 226/3/34 236/3/34
f 249/2/7 250/2/7 251/2/7
f 252/2/8 253/2/8 254/2/8
f 255/2/9 249/2/9 251/2/9
f 253/2/10 256/2/10 254/2/10
f 257/2/11 255/2/11 251/2/11
f 256/2/12 258/2/12 254/2/12
f 259/2/13 257/2/13 251/2/13
f 258/2/14 260/2/14 254/2/14
f 261/2/15 259/2/15 251/2/15
f 260/2/16 262/2/16 254/2/16
f 250/2/17 261/2/17 251/2/17
f 262/2/18 252/2/18 254/2/18
f 250/2/19 249/2/19 263/2/19 264/2/19
f 249/2/20 255/2/20 265/2/20 263/2/20
f 255/2/21 257/2/21 266/2/21 265/2/21
f 257/2/22 259/2/22 267/2/22 266/2/22
f 259/2/23 261/2/23 268/2/23 267/2/23
f 261/2/24 250/2/24 264/2/24 268/2/24
f 264/2/25 263/2/25 269/2/25 270/2/25
f 263/2/4 265/2/4 271/2/4 269/2/4
f 265/2/26 266/2/26 272/2/26 271/2/26
f 266/2/27 267/2/27 273/2/27 272/2/27
f 267/2/3 268/2/3 274/2/3 273/2/3
f 268/2/28 264/2/28 270/2/28 274/2/28
f 270/2/29 269/2/29 253/2/29 252/2/29
f 269/2/30 271/2/30 256/2/30 253/2/30
f 271/2/31 272/2/31 258/2/31 256/2/31
f 272/2/32 273/2/32 260/2/32 258/2/32
f 273/2/33 274/2/33 262/2/33 260/2/33
f 274/2/34 270/2/34 252/2/34 262/2/34
