# Blender 5.2.0 LTS
# www.blender.org
mtllib FN_Cabinet_Kitchen_Base.mtl
o FN_Cabinet_Kitchen_Base
v -0.290000 0.000000 0.233000
v -0.290000 0.000000 -0.312000
v 0.290000 0.000000 -0.312000
v 0.290000 0.000000 0.233000
v -0.290000 0.100000 0.233000
v 0.290000 0.100000 0.233000
v 0.290000 0.100000 -0.312000
v -0.290000 0.100000 -0.312000
v -0.300000 0.100000 0.276000
v -0.300000 0.100000 -0.312000
v 0.300000 0.100000 -0.312000
v 0.300000 0.100000 0.276000
v -0.300000 0.880000 0.276000
v 0.300000 0.880000 0.276000
v 0.300000 0.880000 -0.312000
v -0.300000 0.880000 -0.312000
v -0.298000 0.104000 0.279000
v -0.298000 0.104000 0.276000
v 0.298000 0.104000 0.276000
v 0.298000 0.104000 0.279000
v -0.298000 0.876000 0.279000
v 0.298000 0.876000 0.279000
v 0.298000 0.876000 0.276000
v -0.298000 0.876000 0.276000
v -0.294000 0.746000 0.291000
v -0.294000 0.746000 0.279000
v 0.294000 0.746000 0.279000
v 0.294000 0.746000 0.291000
v -0.294000 0.872000 0.291000
v 0.294000 0.872000 0.291000
v 0.294000 0.872000 0.279000
v -0.294000 0.872000 0.279000
v -0.084000 0.798000 0.306000
v -0.084000 0.798000 0.292000
v 0.084000 0.798000 0.292000
v 0.084000 0.798000 0.306000
v -0.084000 0.814000 0.306000
v 0.084000 0.814000 0.306000
v 0.084000 0.814000 0.292000
v -0.084000 0.814000 0.292000
v -0.080000 0.798000 0.293000
v -0.080000 0.798000 0.286000
v -0.064000 0.798000 0.286000
v -0.064000 0.798000 0.293000
v -0.080000 0.814000 0.293000
v -0.064000 0.814000 0.293000
v -0.064000 0.814000 0.286000
v -0.080000 0.814000 0.286000
v 0.064000 0.798000 0.293000
v 0.064000 0.798000 0.286000
v 0.080000 0.798000 0.286000
v 0.080000 0.798000 0.293000
v 0.064000 0.814000 0.293000
v 0.080000 0.814000 0.293000
v 0.080000 0.814000 0.286000
v 0.064000 0.814000 0.286000
v -0.294000 0.108000 0.291000
v -0.294000 0.108000 0.279000
v -0.005000 0.108000 0.279000
v -0.005000 0.108000 0.291000
v -0.294000 0.738000 0.291000
v -0.005000 0.738000 0.291000
v -0.005000 0.738000 0.279000
v -0.294000 0.738000 0.279000
v -0.294000 0.108000 0.297000
v -0.294000 0.108000 0.290000
v -0.005000 0.108000 0.290000
v -0.005000 0.108000 0.297000
v -0.294000 0.163000 0.297000
v -0.005000 0.163000 0.297000
v -0.005000 0.163000 0.290000
v -0.294000 0.163000 0.290000
v -0.294000 0.683000 0.297000
v -0.294000 0.683000 0.290000
v -0.005000 0.683000 0.290000
v -0.005000 0.683000 0.297000
v -0.294000 0.738000 0.297000
v -0.005000 0.738000 0.297000
v -0.005000 0.738000 0.290000
v -0.294000 0.738000 0.290000
v -0.239000 0.163000 0.290000
v -0.239000 0.163000 0.297000
v -0.239000 0.683000 0.297000
v -0.239000 0.683000 0.290000
v -0.060000 0.163000 0.297000
v -0.060000 0.163000 0.290000
v -0.060000 0.683000 0.297000
v -0.060000 0.683000 0.290000
v -0.038000 0.508000 0.312000
v -0.038000 0.508000 0.298000
v -0.022000 0.508000 0.298000
v -0.022000 0.508000 0.312000
v -0.038000 0.700000 0.312000
v -0.022000 0.700000 0.312000
v -0.022000 0.700000 0.298000
v -0.038000 0.700000 0.298000
v -0.038000 0.512000 0.299000
v -0.038000 0.512000 0.292000
v -0.022000 0.512000 0.292000
v -0.022000 0.512000 0.299000
v -0.038000 0.528000 0.299000
v -0.022000 0.528000 0.299000
v -0.022000 0.528000 0.292000
v -0.038000 0.528000 0.292000
v -0.038000 0.680000 0.299000
v -0.038000 0.680000 0.292000
v -0.022000 0.680000 0.292000
v -0.022000 0.680000 0.299000
v -0.038000 0.696000 0.299000
v -0.022000 0.696000 0.299000
v -0.022000 0.696000 0.292000
v -0.038000 0.696000 0.292000
v 0.005000 0.108000 0.291000
v 0.005000 0.108000 0.279000
v 0.294000 0.108000 0.279000
v 0.294000 0.108000 0.291000
v 0.005000 0.738000 0.291000
v 0.294000 0.738000 0.291000
v 0.294000 0.738000 0.279000
v 0.005000 0.738000 0.279000
v 0.005000 0.108000 0.297000
v 0.005000 0.108000 0.290000
v 0.294000 0.108000 0.290000
v 0.294000 0.108000 0.297000
v 0.005000 0.163000 0.297000
v 0.294000 0.163000 0.297000
v 0.294000 0.163000 0.290000
v 0.005000 0.163000 0.290000
v 0.005000 0.683000 0.297000
v 0.005000 0.683000 0.290000
v 0.294000 0.683000 0.290000
v 0.294000 0.683000 0.297000
v 0.005000 0.738000 0.297000
v 0.294000 0.738000 0.297000
v 0.294000 0.738000 0.290000
v 0.005000 0.738000 0.290000
v 0.060000 0.163000 0.290000
v 0.060000 0.163000 0.297000
v 0.060000 0.683000 0.297000
v 0.060000 0.683000 0.290000
v 0.239000 0.163000 0.297000
v 0.239000 0.163000 0.290000
v 0.239000 0.683000 0.297000
v 0.239000 0.683000 0.290000
v 0.022000 0.508000 0.312000
v 0.022000 0.508000 0.298000
v 0.038000 0.508000 0.298000
v 0.038000 0.508000 0.312000
v 0.022000 0.700000 0.312000
v 0.038000 0.700000 0.312000
v 0.038000 0.700000 0.298000
v 0.022000 0.700000 0.298000
v 0.022000 0.512000 0.299000
v 0.022000 0.512000 0.292000
v 0.038000 0.512000 0.292000
v 0.038000 0.512000 0.299000
v 0.022000 0.528000 0.299000
v 0.038000 0.528000 0.299000
v 0.038000 0.528000 0.292000
v 0.022000 0.528000 0.292000
v 0.022000 0.680000 0.299000
v 0.022000 0.680000 0.292000
v 0.038000 0.680000 0.292000
v 0.038000 0.680000 0.299000
v 0.022000 0.696000 0.299000
v 0.038000 0.696000 0.299000
v 0.038000 0.696000 0.292000
v 0.022000 0.696000 0.292000
v -0.305050 0.880000 -0.307050
v 0.305050 0.880000 -0.307050
v 0.305050 0.880000 0.303050
v -0.305050 0.880000 0.303050
v 0.310000 0.887000 0.308000
v -0.310000 0.887000 0.308000
v 0.310000 0.887000 -0.312000
v -0.310000 0.887000 -0.312000
v 0.310000 0.913000 0.308000
v -0.310000 0.913000 0.308000
v 0.310000 0.913000 -0.312000
v -0.310000 0.913000 -0.312000
v -0.305050 0.920000 0.303050
v 0.305050 0.920000 0.303050
v 0.305050 0.920000 -0.307050
v -0.305050 0.920000 -0.307050
vn -0.0000 -1.0000 -0.0000
vn -0.0000 1.0000 -0.0000
vn -0.0000 -0.0000 1.0000
vn -0.0000 -0.0000 -1.0000
vn -1.0000 -0.0000 -0.0000
vn 1.0000 -0.0000 -0.0000
vn -0.0000 -0.5773 0.8165
vn 0.8165 -0.5773 -0.0000
vn -0.0000 -0.5773 -0.8165
vn -0.8165 -0.5773 -0.0000
vn -0.0000 0.5773 0.8165
vn 0.8165 0.5773 -0.0000
vn -0.0000 0.5773 -0.8165
vn -0.8165 0.5773 -0.0000
vt 0.687500 0.312500
vt 0.437500 0.812500
vt 0.812500 0.812500
vt 0.437500 0.312500
vt 0.812500 0.937500
vt 0.437500 0.937500
s 0
usemtl FN_Atlas
f 1/1/1 2/1/1 3/1/1 4/1/1
f 5/1/2 6/1/2 7/1/2 8/1/2
f 1/1/3 4/1/3 6/1/3 5/1/3
f 3/1/4 2/1/4 8/1/4 7/1/4
f 1/1/5 5/1/5 8/1/5 2/1/5
f 4/1/6 3/1/6 7/1/6 6/1/6
f 9/2/1 10/2/1 11/2/1 12/2/1
f 13/2/2 14/2/2 15/2/2 16/2/2
f 9/1/3 12/1/3 14/1/3 13/1/3
f 11/2/4 10/2/4 16/2/4 15/2/4
f 9/2/5 13/2/5 16/2/5 10/2/5
f 12/2/6 11/2/6 15/2/6 14/2/6
f 17/1/1 18/1/1 19/1/1 20/1/1
f 21/1/2 22/1/2 23/1/2 24/1/2
f 17/1/3 20/1/3 22/1/3 21/1/3
f 19/1/4 18/1/4 24/1/4 23/1/4
f 17/1/5 21/1/5 24/1/5 18/1/5
f 20/1/6 19/1/6 23/1/6 22/1/6
f 25/3/1 26/3/1 27/3/1 28/3/1
f 29/3/2 30/3/2 31/3/2 32/3/2
f 25/3/3 28/3/3 30/3/3 29/3/3
f 27/3/4 26/3/4 32/3/4 31/3/4
f 25/3/5 29/3/5 32/3/5 26/3/5
f 28/3/6 27/3/6 31/3/6 30/3/6
f 33/4/1 34/4/1 35/4/1 36/4/1
f 37/4/2 38/4/2 39/4/2 40/4/2
f 33/4/3 36/4/3 38/4/3 37/4/3
f 35/4/4 34/4/4 40/4/4 39/4/4
f 33/4/5 37/4/5 40/4/5 34/4/5
f 36/4/6 35/4/6 39/4/6 38/4/6
f 41/4/1 42/4/1 43/4/1 44/4/1
f 45/4/2 46/4/2 47/4/2 48/4/2
f 41/4/3 44/4/3 46/4/3 45/4/3
f 43/4/4 42/4/4 48/4/4 47/4/4
f 41/4/5 45/4/5 48/4/5 42/4/5
f 44/4/6 43/4/6 47/4/6 46/4/6
f 49/4/1 50/4/1 51/4/1 52/4/1
f 53/4/2 54/4/2 55/4/2 56/4/2
f 49/4/3 52/4/3 54/4/3 53/4/3
f 51/4/4 50/4/4 56/4/4 55/4/4
f 49/4/5 53/4/5 56/4/5 50/4/5
f 52/4/6 51/4/6 55/4/6 54/4/6
f 57/3/1 58/3/1 59/3/1 60/3/1
f 61/3/2 62/3/2 63/3/2 64/3/2
f 57/3/3 60/3/3 62/3/3 61/3/3
f 59/3/4 58/3/4 64/3/4 63/3/4
f 57/3/5 61/3/5 64/3/5 58/3/5
f 60/3/6 59/3/6 63/3/6 62/3/6
f 65/3/1 66/3/1 67/3/1 68/3/1
f 69/3/2 70/3/2 71/3/2 72/3/2
f 65/3/3 68/3/3 70/3/3 69/3/3
f 67/3/4 66/3/4 72/3/4 71/3/4
f 65/3/5 69/3/5 72/3/5 66/3/5
f 68/3/6 67/3/6 71/3/6 70/3/6
f 73/3/1 74/3/1 75/3/1 76/3/1
f 77/3/2 78/3/2 79/3/2 80/3/2
f 73/3/3 76/3/3 78/3/3 77/3/3
f 75/3/4 74/3/4 80/3/4 79/3/4
f 73/3/5 77/3/5 80/3/5 74/3/5
f 76/3/6 75/3/6 79/3/6 78/3/6
f 69/3/1 72/3/1 81/3/1 82/3/1
f 73/3/2 83/3/2 84/3/2 74/3/2
f 69/3/3 82/3/3 83/3/3 73/3/3
f 81/3/4 72/3/4 74/3/4 84/3/4
f 69/3/5 73/3/5 74/3/5 72/3/5
f 82/3/6 81/3/6 84/3/6 83/3/6
f 85/3/1 86/3/1 71/3/1 70/3/1
f 87/3/2 76/3/2 75/3/2 88/3/2
f 85/3/3 70/3/3 76/3/3 87/3/3
f 71/3/4 86/3/4 88/3/4 75/3/4
f 85/3/5 87/3/5 88/3/5 86/3/5
f 70/3/6 71/3/6 75/3/6 76/3/6
f 89/4/1 90/4/1 91/4/1 92/4/1
f 93/4/2 94/4/2 95/4/2 96/4/2
f 89/4/3 92/4/3 94/4/3 93/4/3
f 91/4/4 90/4/4 96/4/4 95/4/4
f 89/4/5 93/4/5 96/4/5 90/4/5
f 92/4/6 91/4/6 95/4/6 94/4/6
f 97/4/1 98/4/1 99/4/1 100/4/1
f 101/4/2 102/4/2 103/4/2 104/4/2
f 97/4/3 100/4/3 102/4/3 101/4/3
f 99/4/4 98/4/4 104/4/4 103/4/4
f 97/4/5 101/4/5 104/4/5 98/4/5
f 100/4/6 99/4/6 103/4/6 102/4/6
f 105/4/1 106/4/1 107/4/1 108/4/1
f 109/4/2 110/4/2 111/4/2 112/4/2
f 105/4/3 108/4/3 110/4/3 109/4/3
f 107/4/4 106/4/4 112/4/4 111/4/4
f 105/4/5 109/4/5 112/4/5 106/4/5
f 108/4/6 107/4/6 111/4/6 110/4/6
f 113/3/1 114/3/1 115/3/1 116/3/1
f 117/3/2 118/3/2 119/3/2 120/3/2
f 113/3/3 116/3/3 118/3/3 117/3/3
f 115/3/4 114/3/4 120/3/4 119/3/4
f 113/3/5 117/3/5 120/3/5 114/3/5
f 116/3/6 115/3/6 119/3/6 118/3/6
f 121/3/1 122/3/1 123/3/1 124/3/1
f 125/3/2 126/3/2 127/3/2 128/3/2
f 121/3/3 124/3/3 126/3/3 125/3/3
f 123/3/4 122/3/4 128/3/4 127/3/4
f 121/3/5 125/3/5 128/3/5 122/3/5
f 124/3/6 123/3/6 127/3/6 126/3/6
f 129/3/1 130/3/1 131/3/1 132/3/1
f 133/3/2 134/3/2 135/3/2 136/3/2
f 129/3/3 132/3/3 134/3/3 133/3/3
f 131/3/4 130/3/4 136/3/4 135/3/4
f 129/3/5 133/3/5 136/3/5 130/3/5
f 132/3/6 131/3/6 135/3/6 134/3/6
f 125/3/1 128/3/1 137/3/1 138/3/1
f 129/3/2 139/3/2 140/3/2 130/3/2
f 125/3/3 138/3/3 139/3/3 129/3/3
f 137/3/4 128/3/4 130/3/4 140/3/4
f 125/3/5 129/3/5 130/3/5 128/3/5
f 138/3/6 137/3/6 140/3/6 139/3/6
f 141/3/1 142/3/1 127/3/1 126/3/1
f 143/3/2 132/3/2 131/3/2 144/3/2
f 141/3/3 126/3/3 132/3/3 143/3/3
f 127/3/4 142/3/4 144/3/4 131/3/4
f 141/3/5 143/3/5 144/3/5 142/3/5
f 126/3/6 127/3/6 131/3/6 132/3/6
f 145/4/1 146/4/1 147/4/1 148/4/1
f 149/4/2 150/4/2 151/4/2 152/4/2
f 145/4/3 148/4/3 150/4/3 149/4/3
f 147/4/4 146/4/4 152/4/4 151/4/4
f 145/4/5 149/4/5 152/4/5 146/4/5
f 148/4/6 147/4/6 151/4/6 150/4/6
f 153/4/1 154/4/1 155/4/1 156/4/1
f 157/4/2 158/4/2 159/4/2 160/4/2
f 153/4/3 156/4/3 158/4/3 157/4/3
f 155/4/4 154/4/4 160/4/4 159/4/4
f 153/4/5 157/4/5 160/4/5 154/4/5
f 156/4/6 155/4/6 159/4/6 158/4/6
f 161/4/1 162/4/1 163/4/1 164/4/1
f 165/4/2 166/4/2 167/4/2 168/4/2
f 161/4/3 164/4/3 166/4/3 165/4/3
f 163/4/4 162/4/4 168/4/4 167/4/4
f 161/4/5 165/4/5 168/4/5 162/4/5
f 164/4/6 163/4/6 167/4/6 166/4/6
f 169/5/1 170/5/1 171/5/1 172/5/1
f 172/5/7 171/5/7 173/5/7 174/5/7
f 171/5/8 170/5/8 175/5/8 173/5/8
f 170/5/9 169/5/9 176/5/9 175/5/9
f 169/5/10 172/5/10 174/5/10 176/5/10
f 174/5/3 173/5/3 177/5/3 178/5/3
f 173/5/6 175/5/6 179/5/6 177/5/6
f 175/5/4 176/5/4 180/5/4 179/5/4
f 176/5/5 174/5/5 178/5/5 180/5/5
f 181/6/2 182/6/2 183/6/2 184/6/2
f 178/5/11 177/5/11 182/5/11 181/5/11
f 177/5/12 179/5/12 183/5/12 182/5/12
f 179/5/13 180/5/13 184/5/13 183/5/13
f 180/5/14 178/5/14 181/5/14 184/5/14
