# Blender 5.2.0 LTS
# www.blender.org
mtllib FN_Coatstand.mtl
o FN_Coatstand
v 0.194016 0.000000 0.063039
v 0.165039 0.000000 0.119908
v 0.119908 0.000000 0.165039
v 0.063039 0.000000 0.194016
v -0.000000 0.000000 0.204000
v -0.063039 0.000000 0.194016
v -0.119908 0.000000 0.165039
v -0.165039 0.000000 0.119908
v -0.194016 0.000000 0.063039
v -0.204000 0.000000 -0.000000
v -0.194016 0.000000 -0.063039
v -0.165039 0.000000 -0.119908
v -0.119908 0.000000 -0.165039
v -0.063039 0.000000 -0.194016
v 0.000000 0.000000 -0.204000
v 0.063039 0.000000 -0.194016
v 0.119908 0.000000 -0.165039
v 0.165039 0.000000 -0.119908
v 0.194016 0.000000 -0.063039
v 0.204000 0.000000 0.000000
v 0.052000 0.028000 0.000000
v 0.049455 0.028000 -0.016069
v 0.042069 0.028000 -0.030565
v 0.030565 0.028000 -0.042069
v 0.016069 0.028000 -0.049455
v 0.000000 0.028000 -0.052000
v -0.016069 0.028000 -0.049455
v -0.030565 0.028000 -0.042069
v -0.042069 0.028000 -0.030565
v -0.049455 0.028000 -0.016069
v -0.052000 0.028000 -0.000000
v -0.049455 0.028000 0.016069
v -0.042069 0.028000 0.030565
v -0.030565 0.028000 0.042069
v -0.016069 0.028000 0.049455
v -0.000000 0.028000 0.052000
v 0.016069 0.028000 0.049455
v 0.030565 0.028000 0.042069
v 0.042069 0.028000 0.030565
v 0.049455 0.028000 0.016069
v 0.201624 0.006000 -0.065512
v 0.212000 0.006000 0.000000
v 0.171512 0.006000 -0.124610
v 0.124610 0.006000 -0.171512
v 0.065512 0.006000 -0.201624
v 0.000000 0.006000 -0.212000
v -0.065512 0.006000 -0.201624
v -0.124610 0.006000 -0.171512
v -0.171512 0.006000 -0.124610
v -0.201624 0.006000 -0.065512
v -0.212000 0.006000 -0.000000
v -0.201624 0.006000 0.065512
v -0.171512 0.006000 0.124610
v -0.124610 0.006000 0.171512
v -0.065512 0.006000 0.201624
v -0.000000 0.006000 0.212000
v 0.065512 0.006000 0.201624
v 0.124610 0.006000 0.171512
v 0.171512 0.006000 0.124610
v 0.201624 0.006000 0.065512
v 0.201624 0.022000 -0.065512
v 0.212000 0.022000 0.000000
v 0.171512 0.022000 -0.124610
v 0.124610 0.022000 -0.171512
v 0.065512 0.022000 -0.201624
v 0.000000 0.022000 -0.212000
v -0.065512 0.022000 -0.201624
v -0.124610 0.022000 -0.171512
v -0.171512 0.022000 -0.124610
v -0.201624 0.022000 -0.065512
v -0.212000 0.022000 -0.000000
v -0.201624 0.022000 0.065512
v -0.171512 0.022000 0.124610
v -0.124610 0.022000 0.171512
v -0.065512 0.022000 0.201624
v -0.000000 0.022000 0.212000
v 0.065512 0.022000 0.201624
v 0.124610 0.022000 0.171512
v 0.171512 0.022000 0.124610
v 0.201624 0.022000 0.065512
v 0.190211 0.028000 -0.061803
v 0.200000 0.028000 0.000000
v 0.161803 0.028000 -0.117557
v 0.117557 0.028000 -0.161803
v 0.061803 0.028000 -0.190211
v 0.000000 0.028000 -0.200000
v -0.061803 0.028000 -0.190211
v -0.117557 0.028000 -0.161803
v -0.161803 0.028000 -0.117557
v -0.190211 0.028000 -0.061803
v -0.200000 0.028000 -0.000000
v -0.190211 0.028000 0.061803
v -0.161803 0.028000 0.117557
v -0.117557 0.028000 0.161803
v -0.061803 0.028000 0.190211
v -0.000000 0.028000 0.200000
v 0.061803 0.028000 0.190211
v 0.117557 0.028000 0.161803
v 0.161803 0.028000 0.117557
v 0.190211 0.028000 0.061803
v 0.039837 0.026000 0.023000
v 0.023000 0.026000 0.039837
v -0.000000 0.026000 0.046000
v -0.023000 0.026000 0.039837
v -0.039837 0.026000 0.023000
v -0.046000 0.026000 -0.000000
v -0.039837 0.026000 -0.023000
v -0.023000 0.026000 -0.039837
v 0.000000 0.026000 -0.046000
v 0.023000 0.026000 -0.039837
v 0.039837 0.026000 -0.023000
v 0.046000 0.026000 0.000000
v 0.022000 1.700000 0.000000
v 0.019053 1.700000 -0.011000
v 0.011000 1.700000 -0.019053
v 0.000000 1.700000 -0.022000
v -0.011000 1.700000 -0.019053
v -0.019053 1.700000 -0.011000
v -0.022000 1.700000 -0.000000
v -0.019053 1.700000 0.011000
v -0.011000 1.700000 0.019053
v -0.000000 1.700000 0.022000
v 0.011000 1.700000 0.019053
v 0.019053 1.700000 0.011000
v 0.039837 0.052000 -0.023000
v 0.046000 0.052000 0.000000
v 0.023000 0.052000 -0.039837
v 0.000000 0.052000 -0.046000
v -0.023000 0.052000 -0.039837
v -0.039837 0.052000 -0.023000
v -0.046000 0.052000 -0.000000
v -0.039837 0.052000 0.023000
v -0.023000 0.052000 0.039837
v -0.000000 0.052000 0.046000
v 0.023000 0.052000 0.039837
v 0.039837 0.052000 0.023000
v 0.025981 0.064000 -0.015000
v 0.030000 0.064000 0.000000
v 0.015000 0.064000 -0.025981
v 0.000000 0.064000 -0.030000
v -0.015000 0.064000 -0.025981
v -0.025981 0.064000 -0.015000
v -0.030000 0.064000 -0.000000
v -0.025981 0.064000 0.015000
v -0.015000 0.064000 0.025981
v -0.000000 0.064000 0.030000
v 0.015000 0.064000 0.025981
v 0.025981 0.064000 0.015000
v 0.024249 0.300000 -0.014000
v 0.028000 0.300000 0.000000
v 0.014000 0.300000 -0.024249
v 0.000000 0.300000 -0.028000
v -0.014000 0.300000 -0.024249
v -0.024249 0.300000 -0.014000
v -0.028000 0.300000 -0.000000
v -0.024249 0.300000 0.014000
v -0.014000 0.300000 0.024249
v -0.000000 0.300000 0.028000
v 0.014000 0.300000 0.024249
v 0.024249 0.300000 0.014000
v 0.020785 1.360000 -0.012000
v 0.024000 1.360000 0.000000
v 0.012000 1.360000 -0.020785
v 0.000000 1.360000 -0.024000
v -0.012000 1.360000 -0.020785
v -0.020785 1.360000 -0.012000
v -0.024000 1.360000 -0.000000
v -0.020785 1.360000 0.012000
v -0.012000 1.360000 0.020785
v -0.000000 1.360000 0.024000
v 0.012000 1.360000 0.020785
v 0.020785 1.360000 0.012000
v 0.026847 1.380000 -0.015500
v 0.031000 1.380000 0.000000
v 0.015500 1.380000 -0.026847
v 0.000000 1.380000 -0.031000
v -0.015500 1.380000 -0.026847
v -0.026847 1.380000 -0.015500
v -0.031000 1.380000 -0.000000
v -0.026847 1.380000 0.015500
v -0.015500 1.380000 0.026847
v -0.000000 1.380000 0.031000
v 0.015500 1.380000 0.026847
v 0.026847 1.380000 0.015500
v 0.026847 1.400000 -0.015500
v 0.031000 1.400000 0.000000
v 0.015500 1.400000 -0.026847
v 0.000000 1.400000 -0.031000
v -0.015500 1.400000 -0.026847
v -0.026847 1.400000 -0.015500
v -0.031000 1.400000 -0.000000
v -0.026847 1.400000 0.015500
v -0.015500 1.400000 0.026847
v -0.000000 1.400000 0.031000
v 0.015500 1.400000 0.026847
v 0.026847 1.400000 0.015500
v 0.019919 1.416000 -0.011500
v 0.023000 1.416000 0.000000
v 0.011500 1.416000 -0.019919
v 0.000000 1.416000 -0.023000
v -0.011500 1.416000 -0.019919
v -0.019919 1.416000 -0.011500
v -0.023000 1.416000 -0.000000
v -0.019919 1.416000 0.011500
v -0.011500 1.416000 0.019919
v -0.000000 1.416000 0.023000
v 0.011500 1.416000 0.019919
v 0.019919 1.416000 0.011500
v 0.019053 1.690000 0.011000
v 0.011000 1.690000 0.019053
v -0.000000 1.690000 0.022000
v -0.011000 1.690000 0.019053
v -0.019053 1.690000 0.011000
v -0.022000 1.690000 -0.000000
v -0.019053 1.690000 -0.011000
v -0.011000 1.690000 -0.019053
v 0.000000 1.690000 -0.022000
v 0.011000 1.690000 -0.019053
v 0.019053 1.690000 -0.011000
v 0.022000 1.690000 0.000000
v 0.010000 1.780000 0.000000
v 0.008660 1.780000 -0.005000
v 0.005000 1.780000 -0.008660
v 0.000000 1.780000 -0.010000
v -0.005000 1.780000 -0.008660
v -0.008660 1.780000 -0.005000
v -0.010000 1.780000 -0.000000
v -0.008660 1.780000 0.005000
v -0.005000 1.780000 0.008660
v -0.000000 1.780000 0.010000
v 0.005000 1.780000 0.008660
v 0.008660 1.780000 0.005000
v 0.025981 1.706000 -0.015000
v 0.030000 1.706000 0.000000
v 0.015000 1.706000 -0.025981
v 0.000000 1.706000 -0.030000
v -0.015000 1.706000 -0.025981
v -0.025981 1.706000 -0.015000
v -0.030000 1.706000 -0.000000
v -0.025981 1.706000 0.015000
v -0.015000 1.706000 0.025981
v -0.000000 1.706000 0.030000
v 0.015000 1.706000 0.025981
v 0.025981 1.706000 0.015000
v 0.029445 1.738000 -0.017000
v 0.034000 1.738000 0.000000
v 0.017000 1.738000 -0.029445
v 0.000000 1.738000 -0.034000
v -0.017000 1.738000 -0.029445
v -0.029445 1.738000 -0.017000
v -0.034000 1.738000 -0.000000
v -0.029445 1.738000 0.017000
v -0.017000 1.738000 0.029445
v -0.000000 1.738000 0.034000
v 0.017000 1.738000 0.029445
v 0.029445 1.738000 0.017000
v 0.020785 1.766000 -0.012000
v 0.024000 1.766000 0.000000
v 0.012000 1.766000 -0.020785
v 0.000000 1.766000 -0.024000
v -0.012000 1.766000 -0.020785
v -0.020785 1.766000 -0.012000
v -0.024000 1.766000 -0.000000
v -0.020785 1.766000 0.012000
v -0.012000 1.766000 0.020785
v -0.000000 1.766000 0.024000
v 0.012000 1.766000 0.020785
v 0.020785 1.766000 0.012000
v 0.018717 1.576127 0.004750
v 0.018717 1.576127 -0.004750
v 0.020000 1.568000 -0.009500
v 0.021283 1.559873 -0.004750
v 0.021283 1.559873 0.004750
v 0.020000 1.568000 0.009500
v 0.078000 1.508000 0.007500
v 0.077412 1.514469 0.003750
v 0.077412 1.514469 -0.003750
v 0.078000 1.508000 -0.007500
v 0.078588 1.501531 -0.003750
v 0.078588 1.501531 0.003750
v 0.057346 1.566146 0.004550
v 0.058000 1.574000 0.009100
v 0.057346 1.566146 -0.004550
v 0.058000 1.574000 -0.009100
v 0.058654 1.581854 -0.004550
v 0.058654 1.581854 0.004550
v 0.087293 1.556117 0.004350
v 0.092000 1.562000 0.008700
v 0.087293 1.556117 -0.004350
v 0.092000 1.562000 -0.008700
v 0.096707 1.567883 -0.004350
v 0.096707 1.567883 0.004350
v 0.100896 1.532907 0.004150
v 0.108000 1.534000 0.008300
v 0.100896 1.532907 -0.004150
v 0.108000 1.534000 -0.008300
v 0.115104 1.535093 -0.004150
v 0.115104 1.535093 0.004150
v 0.095519 1.515170 0.003950
v 0.100000 1.510000 0.007900
v 0.095519 1.515170 -0.003950
v 0.100000 1.510000 -0.007900
v 0.104481 1.504830 -0.003950
v 0.104481 1.504830 0.003950
v -0.005245 1.576127 -0.018584
v -0.013472 1.576127 -0.013834
v -0.018227 1.568000 -0.012571
v -0.014755 1.559873 -0.016057
v -0.006528 1.559873 -0.020807
v -0.001773 1.568000 -0.022071
v -0.032505 1.508000 -0.071300
v -0.035458 1.514469 -0.068916
v -0.041954 1.514469 -0.065166
v -0.045495 1.508000 -0.063800
v -0.042542 1.501531 -0.066184
v -0.036046 1.501531 -0.069934
v -0.024732 1.566146 -0.051938
v -0.021119 1.574000 -0.054779
v -0.032613 1.566146 -0.047388
v -0.036881 1.574000 -0.045679
v -0.033268 1.581854 -0.048521
v -0.025387 1.581854 -0.053071
v -0.039879 1.556117 -0.077773
v -0.038466 1.562000 -0.084024
v -0.047414 1.556117 -0.073423
v -0.053534 1.562000 -0.075324
v -0.052121 1.567883 -0.081575
v -0.044586 1.567883 -0.085925
v -0.046854 1.532907 -0.089453
v -0.046812 1.534000 -0.097681
v -0.054042 1.532907 -0.085303
v -0.061188 1.534000 -0.089381
v -0.061146 1.535093 -0.097608
v -0.053958 1.535093 -0.101758
v -0.044339 1.515170 -0.084697
v -0.043158 1.510000 -0.090553
v -0.051180 1.515170 -0.080747
v -0.056842 1.510000 -0.082653
v -0.055661 1.504830 -0.088508
v -0.048820 1.504830 -0.092458
v -0.013472 1.576127 0.013834
v -0.005245 1.576127 0.018584
v -0.001773 1.568000 0.022071
v -0.006528 1.559873 0.020807
v -0.014755 1.559873 0.016057
v -0.018227 1.568000 0.012571
v -0.045495 1.508000 0.063800
v -0.041954 1.514469 0.065166
v -0.035458 1.514469 0.068916
v -0.032505 1.508000 0.071300
v -0.036046 1.501531 0.069934
v -0.042542 1.501531 0.066184
v -0.032613 1.566146 0.047388
v -0.036881 1.574000 0.045679
v -0.024732 1.566146 0.051938
v -0.021119 1.574000 0.054779
v -0.025387 1.581854 0.053071
v -0.033268 1.581854 0.048521
v -0.047414 1.556117 0.073423
v -0.053534 1.562000 0.075324
v -0.039879 1.556117 0.077773
v -0.038466 1.562000 0.084024
v -0.044586 1.567883 0.085925
v -0.052121 1.567883 0.081575
v -0.054042 1.532907 0.085303
v -0.061188 1.534000 0.089381
v -0.046854 1.532907 0.089453
v -0.046812 1.534000 0.097681
v -0.053958 1.535093 0.101758
v -0.061146 1.535093 0.097608
v -0.051180 1.515170 0.080747
v -0.056842 1.510000 0.082653
v -0.044339 1.515170 0.084697
v -0.043158 1.510000 0.090553
v -0.048820 1.504830 0.092458
v -0.055661 1.504830 0.088508
v 0.013472 1.446127 -0.013834
v 0.005245 1.446127 -0.018584
v 0.001773 1.438000 -0.022071
v 0.006528 1.429873 -0.020807
v 0.014755 1.429873 -0.016057
v 0.018227 1.438000 -0.012571
v 0.045495 1.378000 -0.063800
v 0.041954 1.384469 -0.065166
v 0.035458 1.384469 -0.068916
v 0.032505 1.378000 -0.071300
v 0.036046 1.371531 -0.069934
v 0.042542 1.371531 -0.066184
v 0.032613 1.436146 -0.047388
v 0.036881 1.444000 -0.045679
v 0.024732 1.436146 -0.051938
v 0.021119 1.444000 -0.054779
v 0.025387 1.451854 -0.053071
v 0.033268 1.451854 -0.048521
v 0.047414 1.426117 -0.073423
v 0.053534 1.432000 -0.075324
v 0.039879 1.426117 -0.077773
v 0.038466 1.432000 -0.084024
v 0.044586 1.437883 -0.085925
v 0.052121 1.437883 -0.081575
v 0.054042 1.402907 -0.085303
v 0.061188 1.404000 -0.089381
v 0.046854 1.402907 -0.089453
v 0.046812 1.404000 -0.097681
v 0.053958 1.405093 -0.101758
v 0.061146 1.405093 -0.097608
v 0.051180 1.385170 -0.080747
v 0.056842 1.380000 -0.082653
v 0.044339 1.385170 -0.084697
v 0.043158 1.380000 -0.090553
v 0.048820 1.374830 -0.092458
v 0.055661 1.374830 -0.088508
v -0.018717 1.446127 -0.004750
v -0.018717 1.446127 0.004750
v -0.020000 1.438000 0.009500
v -0.021283 1.429873 0.004750
v -0.021283 1.429873 -0.004750
v -0.020000 1.438000 -0.009500
v -0.078000 1.378000 -0.007500
v -0.077412 1.384469 -0.003750
v -0.077412 1.384469 0.003750
v -0.078000 1.378000 0.007500
v -0.078588 1.371531 0.003750
v -0.078588 1.371531 -0.003750
v -0.057346 1.436146 -0.004550
v -0.058000 1.444000 -0.009100
v -0.057346 1.436146 0.004550
v -0.058000 1.444000 0.009100
v -0.058654 1.451854 0.004550
v -0.058654 1.451854 -0.004550
v -0.087293 1.426117 -0.004350
v -0.092000 1.432000 -0.008700
v -0.087293 1.426117 0.004350
v -0.092000 1.432000 0.008700
v -0.096707 1.437883 0.004350
v -0.096707 1.437883 -0.004350
v -0.100896 1.402907 -0.004150
v -0.108000 1.404000 -0.008300
v -0.100896 1.402907 0.004150
v -0.108000 1.404000 0.008300
v -0.115104 1.405093 0.004150
v -0.115104 1.405093 -0.004150
v -0.095519 1.385170 -0.003950
v -0.100000 1.380000 -0.007900
v -0.095519 1.385170 0.003950
v -0.100000 1.380000 0.007900
v -0.104481 1.374830 0.003950
v -0.104481 1.374830 -0.003950
v 0.005245 1.446127 0.018584
v 0.013472 1.446127 0.013834
v 0.018227 1.438000 0.012571
v 0.014755 1.429873 0.016057
v 0.006528 1.429873 0.020807
v 0.001773 1.438000 0.022071
v 0.032505 1.378000 0.071300
v 0.035458 1.384469 0.068916
v 0.041954 1.384469 0.065166
v 0.045495 1.378000 0.063800
v 0.042542 1.371531 0.066184
v 0.036046 1.371531 0.069934
v 0.024732 1.436146 0.051938
v 0.021119 1.444000 0.054779
v 0.032613 1.436146 0.047388
v 0.036881 1.444000 0.045679
v 0.033268 1.451854 0.048521
v 0.025387 1.451854 0.053071
v 0.039879 1.426117 0.077773
v 0.038466 1.432000 0.084024
v 0.047414 1.426117 0.073423
v 0.053534 1.432000 0.075324
v 0.052121 1.437883 0.081575
v 0.044586 1.437883 0.085925
v 0.046854 1.402907 0.089453
v 0.046812 1.404000 0.097681
v 0.054042 1.402907 0.085303
v 0.061188 1.404000 0.089381
v 0.061146 1.405093 0.097608
v 0.053958 1.405093 0.101758
v 0.044339 1.385170 0.084697
v 0.043158 1.380000 0.090553
v 0.051180 1.385170 0.080747
v 0.056842 1.380000 0.082653
v 0.055661 1.374830 0.088508
v 0.048820 1.374830 0.092458
v 0.161781 0.240000 -0.002079
v 0.156891 0.231340 -0.001040
v 0.143427 0.231340 -0.063858
v 0.147994 0.240000 -0.065891
v 0.147109 0.231340 0.001040
v 0.134291 0.231340 -0.059790
v 0.142219 0.240000 0.002079
v 0.129723 0.240000 -0.057757
v 0.147109 0.248660 0.001040
v 0.134291 0.248660 -0.059790
v 0.156891 0.248660 -0.001040
v 0.143427 0.248660 -0.063858
v 0.105054 0.231340 -0.116674
v 0.108399 0.240000 -0.120389
v 0.098362 0.231340 -0.109242
v 0.095017 0.240000 -0.105527
v 0.098362 0.248660 -0.109242
v 0.105054 0.248660 -0.116674
v 0.048516 0.231340 -0.149316
v 0.050061 0.240000 -0.154071
v 0.045425 0.231340 -0.139805
v 0.043880 0.240000 -0.135050
v 0.045425 0.248660 -0.139805
v 0.048516 0.248660 -0.149316
v -0.016411 0.231340 -0.156140
v -0.016934 0.240000 -0.161113
v -0.015366 0.231340 -0.146195
v -0.014843 0.240000 -0.141222
v -0.015366 0.248660 -0.146195
v -0.016411 0.248660 -0.156140
v -0.078500 0.231340 -0.135966
v -0.081000 0.240000 -0.140296
v -0.073500 0.231340 -0.127306
v -0.071000 0.240000 -0.122976
v -0.073500 0.248660 -0.127306
v -0.078500 0.248660 -0.135966
v -0.127016 0.231340 -0.092282
v -0.131061 0.240000 -0.095221
v -0.118925 0.231340 -0.086404
v -0.114880 0.240000 -0.083466
v -0.118925 0.248660 -0.086404
v -0.127016 0.248660 -0.092282
v -0.153569 0.231340 -0.032642
v -0.158460 0.240000 -0.033682
v -0.143788 0.231340 -0.030563
v -0.138897 0.240000 -0.029523
v -0.143788 0.248660 -0.030563
v -0.153569 0.248660 -0.032642
v -0.153569 0.231340 0.032642
v -0.158460 0.240000 0.033682
v -0.143788 0.231340 0.030563
v -0.138897 0.240000 0.029523
v -0.143788 0.248660 0.030563
v -0.153569 0.248660 0.032642
v -0.127016 0.231340 0.092282
v -0.131061 0.240000 0.095221
v -0.118925 0.231340 0.086404
v -0.114880 0.240000 0.083466
v -0.118925 0.248660 0.086404
v -0.127016 0.248660 0.092282
v -0.078500 0.231340 0.135966
v -0.081000 0.240000 0.140296
v -0.073500 0.231340 0.127306
v -0.071000 0.240000 0.122976
v -0.073500 0.248660 0.127306
v -0.078500 0.248660 0.135966
v -0.016411 0.231340 0.156140
v -0.016934 0.240000 0.161113
v -0.015366 0.231340 0.146195
v -0.014843 0.240000 0.141222
v -0.015366 0.248660 0.146195
v -0.016411 0.248660 0.156140
v 0.048516 0.231340 0.149316
v 0.050061 0.240000 0.154071
v 0.045425 0.231340 0.139805
v 0.043880 0.240000 0.135050
v 0.045425 0.248660 0.139805
v 0.048516 0.248660 0.149316
v 0.105054 0.231340 0.116674
v 0.108399 0.240000 0.120389
v 0.098362 0.231340 0.109242
v 0.095017 0.240000 0.105527
v 0.098362 0.248660 0.109242
v 0.105054 0.248660 0.116674
v 0.143427 0.231340 0.063858
v 0.147994 0.240000 0.065891
v 0.134291 0.231340 0.059790
v 0.129723 0.240000 0.057757
v 0.134291 0.248660 0.059790
v 0.143427 0.248660 0.063858
v 0.156891 0.231340 0.001040
v 0.161781 0.240000 0.002079
v 0.147109 0.231340 -0.001040
v 0.142219 0.240000 -0.002079
v 0.147109 0.248660 -0.001040
v 0.156891 0.248660 0.001040
v 0.022785 0.246928 -0.008536
v 0.018785 0.246928 -0.015464
v 0.016785 0.240000 -0.018928
v 0.018785 0.233072 -0.015464
v 0.022785 0.233072 -0.008536
v 0.024785 0.240000 -0.005072
v 0.135636 0.240000 -0.069072
v 0.133636 0.233072 -0.072536
v 0.129636 0.233072 -0.079464
v 0.127636 0.240000 -0.082928
v 0.129636 0.246928 -0.079464
v 0.133636 0.246928 -0.072536
v -0.018785 0.246928 -0.015464
v -0.022785 0.246928 -0.008536
v -0.024785 0.240000 -0.005072
v -0.022785 0.233072 -0.008536
v -0.018785 0.233072 -0.015464
v -0.016785 0.240000 -0.018928
v -0.127636 0.240000 -0.082928
v -0.129636 0.233072 -0.079464
v -0.133636 0.233072 -0.072536
v -0.135636 0.240000 -0.069072
v -0.133636 0.246928 -0.072536
v -0.129636 0.246928 -0.079464
v -0.004000 0.246928 0.024000
v 0.004000 0.246928 0.024000
v 0.008000 0.240000 0.024000
v 0.004000 0.233072 0.024000
v -0.004000 0.233072 0.024000
v -0.008000 0.240000 0.024000
v -0.008000 0.240000 0.152000
v -0.004000 0.233072 0.152000
v 0.004000 0.233072 0.152000
v 0.008000 0.240000 0.152000
v 0.004000 0.246928 0.152000
v -0.004000 0.246928 0.152000
vn -0.0000 -1.0000 -0.0000
vn -0.0000 1.0000 -0.0000
vn 0.5973 -0.7964 -0.0946
vn 0.5388 -0.7964 -0.2746
vn 0.4276 -0.7964 -0.4276
vn 0.2746 -0.7964 -0.5388
vn 0.0946 -0.7964 -0.5973
vn -0.0946 -0.7964 -0.5973
vn -0.2746 -0.7964 -0.5388
vn -0.4276 -0.7964 -0.4276
vn -0.5388 -0.7964 -0.2746
vn -0.5973 -0.7964 -0.0946
vn -0.5973 -0.7964 0.0946
vn -0.5388 -0.7964 0.2746
vn -0.4276 -0.7964 0.4276
vn -0.2746 -0.7964 0.5388
vn -0.0946 -0.7964 0.5973
vn 0.0946 -0.7964 0.5973
vn 0.2746 -0.7964 0.5388
vn 0.4276 -0.7964 0.4276
vn 0.5388 -0.7964 0.2746
vn 0.5973 -0.7964 0.0946
vn 0.9877 -0.0000 -0.1564
vn 0.8910 -0.0000 -0.4540
vn 0.7071 -0.0000 -0.7071
vn 0.4540 -0.0000 -0.8910
vn 0.1564 -0.0000 -0.9877
vn -0.1564 -0.0000 -0.9877
vn -0.4540 -0.0000 -0.8910
vn -0.7071 -0.0000 -0.7071
vn -0.8910 -0.0000 -0.4540
vn -0.9877 -0.0000 -0.1564
vn -0.9877 -0.0000 0.1564
vn -0.8910 -0.0000 0.4540
vn -0.7071 -0.0000 0.7071
vn -0.4540 -0.0000 0.8910
vn -0.1564 -0.0000 0.9877
vn 0.1564 -0.0000 0.9877
vn 0.4540 -0.0000 0.8910
vn 0.7071 -0.0000 0.7071
vn 0.8910 -0.0000 0.4540
vn 0.9877 -0.0000 0.1564
vn 0.4461 0.8922 -0.0707
vn 0.4024 0.8922 -0.2050
vn 0.3194 0.8922 -0.3194
vn 0.2050 0.8922 -0.4024
vn 0.0707 0.8922 -0.4461
vn -0.0707 0.8922 -0.4461
vn -0.2050 0.8922 -0.4024
vn -0.3194 0.8922 -0.3194
vn -0.4024 0.8922 -0.2050
vn -0.4461 0.8922 -0.0707
vn -0.4461 0.8922 0.0707
vn -0.4024 0.8922 0.2050
vn -0.3194 0.8922 0.3194
vn -0.2050 0.8922 0.4024
vn -0.0707 0.8922 0.4461
vn 0.0707 0.8922 0.4461
vn 0.2050 0.8922 0.4024
vn 0.3194 0.8922 0.3194
vn 0.4024 0.8922 0.2050
vn 0.4461 0.8922 0.0707
vn 0.9659 -0.0000 -0.2588
vn 0.2588 -0.0000 -0.9659
vn -0.2588 -0.0000 -0.9659
vn -0.9659 -0.0000 -0.2588
vn -0.9659 -0.0000 0.2588
vn -0.2588 -0.0000 0.9659
vn 0.2588 -0.0000 0.9659
vn 0.9659 -0.0000 0.2588
vn 0.5924 0.7899 -0.1587
vn 0.4337 0.7899 -0.4337
vn 0.1587 0.7899 -0.5924
vn -0.1587 0.7899 -0.5924
vn -0.4337 0.7899 -0.4337
vn -0.5924 0.7899 -0.1587
vn -0.5924 0.7899 0.1587
vn -0.4337 0.7899 0.4337
vn -0.1587 0.7899 0.5924
vn 0.1587 0.7899 0.5924
vn 0.4337 0.7899 0.4337
vn 0.5924 0.7899 0.1587
vn 0.9659 0.0082 -0.2588
vn 0.7071 0.0082 -0.7071
vn 0.2588 0.0082 -0.9659
vn -0.2588 0.0082 -0.9659
vn -0.7071 0.0082 -0.7071
vn -0.9659 0.0082 -0.2588
vn -0.9659 0.0082 0.2588
vn -0.7071 0.0082 0.7071
vn -0.2588 0.0082 0.9659
vn 0.2588 0.0082 0.9659
vn 0.7071 0.0082 0.7071
vn 0.9659 0.0082 0.2588
vn 0.9659 0.0036 -0.2588
vn 0.7071 0.0036 -0.7071
vn 0.2588 0.0036 -0.9659
vn -0.2588 0.0036 -0.9659
vn -0.7071 0.0036 -0.7071
vn -0.9659 0.0036 -0.2588
vn -0.9659 0.0036 0.2588
vn -0.7071 0.0036 0.7071
vn -0.2588 0.0036 0.9659
vn 0.2588 0.0036 0.9659
vn 0.7071 0.0036 0.7071
vn 0.9659 0.0036 0.2588
vn 0.9150 -0.3203 -0.2452
vn 0.6699 -0.3203 -0.6699
vn 0.2452 -0.3203 -0.9150
vn -0.2452 -0.3203 -0.9150
vn -0.6699 -0.3203 -0.6699
vn -0.9150 -0.3203 -0.2452
vn -0.9150 -0.3203 0.2452
vn -0.6699 -0.3203 0.6699
vn -0.2452 -0.3203 0.9150
vn 0.2452 -0.3203 0.9150
vn 0.6699 -0.3203 0.6699
vn 0.9150 -0.3203 0.2452
vn 0.8698 0.4349 -0.2331
vn 0.6367 0.4349 -0.6367
vn 0.2331 0.4349 -0.8698
vn -0.2331 0.4349 -0.8698
vn -0.6367 0.4349 -0.6367
vn -0.8698 0.4349 -0.2331
vn -0.8698 0.4349 0.2331
vn -0.6367 0.4349 0.6367
vn -0.2331 0.4349 0.8698
vn 0.2331 0.4349 0.8698
vn 0.6367 0.4349 0.6367
vn 0.8698 0.4349 0.2331
vn 0.9659 0.0034 -0.2588
vn 0.7071 0.0034 -0.7071
vn 0.2588 0.0034 -0.9659
vn -0.2588 0.0034 -0.9659
vn -0.7071 0.0034 -0.7071
vn -0.9659 0.0034 -0.2588
vn -0.9659 0.0034 0.2588
vn -0.7071 0.0034 0.7071
vn -0.2588 0.0034 0.9659
vn 0.2588 0.0034 0.9659
vn 0.7071 0.0034 0.7071
vn 0.9659 0.0034 0.2588
vn 0.8698 -0.4349 -0.2331
vn 0.6367 -0.4349 -0.6367
vn 0.2331 -0.4349 -0.8698
vn -0.2331 -0.4349 -0.8698
vn -0.6367 -0.4349 -0.6367
vn -0.8698 -0.4349 -0.2331
vn -0.8698 -0.4349 0.2331
vn -0.6367 -0.4349 0.6367
vn -0.2331 -0.4349 0.8698
vn 0.2331 -0.4349 0.8698
vn 0.6367 -0.4349 0.6367
vn 0.8698 -0.4349 0.2331
vn 0.9590 -0.1199 -0.2570
vn 0.7020 -0.1199 -0.7020
vn 0.2570 -0.1199 -0.9590
vn -0.2570 -0.1199 -0.9590
vn -0.7020 -0.1199 -0.7020
vn -0.9590 -0.1199 -0.2570
vn -0.9590 -0.1199 0.2570
vn -0.7020 -0.1199 0.7020
vn -0.2570 -0.1199 0.9590
vn 0.2570 -0.1199 0.9590
vn 0.7020 -0.1199 0.7020
vn 0.9590 -0.1199 0.2570
vn 0.9131 0.3261 -0.2447
vn 0.6684 0.3261 -0.6685
vn 0.2447 0.3261 -0.9131
vn -0.2447 0.3261 -0.9131
vn -0.6684 0.3261 -0.6685
vn -0.9131 0.3261 -0.2447
vn -0.9131 0.3261 0.2447
vn -0.6684 0.3261 0.6685
vn -0.2447 0.3261 0.9131
vn 0.2447 0.3261 0.9131
vn 0.6684 0.3261 0.6685
vn 0.9131 0.3261 0.2447
vn 0.6947 0.6948 -0.1862
vn 0.5086 0.6947 -0.5086
vn 0.1861 0.6947 -0.6947
vn -0.1861 0.6947 -0.6947
vn -0.5086 0.6947 -0.5086
vn -0.6947 0.6948 -0.1862
vn -0.6947 0.6948 0.1862
vn -0.5086 0.6947 0.5086
vn -0.1861 0.6947 0.6947
vn 0.1861 0.6947 0.6947
vn 0.5086 0.6947 0.5086
vn 0.6947 0.6948 0.1862
vn -0.9878 -0.1560 -0.0000
vn -0.9959 -0.0905 -0.0000
vn 0.0896 -0.4983 0.8623
vn 0.1714 -0.9852 -0.0000
vn 0.0896 -0.4983 -0.8623
vn -0.0686 0.4998 -0.8634
vn -0.1419 0.9899 -0.0000
vn -0.0686 0.4998 0.8634
vn -0.1613 -0.4915 0.8558
vn -0.3176 -0.9482 -0.0000
vn -0.1613 -0.4915 -0.8558
vn 0.1815 0.4838 -0.8561
vn 0.3446 0.9387 -0.0000
vn 0.1815 0.4838 0.8561
vn -0.4516 -0.2710 0.8500
vn -0.8628 -0.5056 -0.0000
vn -0.4516 -0.2710 -0.8500
vn 0.4621 0.2531 -0.8499
vn 0.8721 0.4893 -0.0000
vn 0.4621 0.2531 0.8499
vn -0.5281 0.1573 0.8345
vn -0.9570 0.2901 -0.0000
vn -0.5281 0.1573 -0.8345
vn 0.5179 -0.1870 -0.8348
vn 0.9436 -0.3312 -0.0000
vn 0.5179 -0.1870 0.8348
vn -0.0487 0.5363 0.8426
vn -0.0387 0.9993 -0.0000
vn -0.0487 0.5363 -0.8426
vn 0.0488 -0.5362 -0.8426
vn 0.1264 -0.9920 -0.0000
vn 0.0488 -0.5362 0.8426
vn 0.4939 -0.1560 0.8554
vn 0.4979 -0.0905 0.8625
vn 0.7020 -0.4983 -0.5087
vn -0.0857 -0.9852 -0.1484
vn -0.7916 -0.4983 0.3536
vn -0.7135 0.4998 0.4911
vn 0.0710 0.9899 0.1229
vn 0.7820 0.4998 -0.3723
vn 0.8218 -0.4915 -0.2882
vn 0.1588 -0.9482 0.2750
vn -0.6605 -0.4915 0.5676
vn -0.8322 0.4838 0.2709
vn -0.1723 0.9387 -0.2985
vn 0.6507 0.4838 -0.5853
vn 0.9620 -0.2710 -0.0339
vn 0.4314 -0.5056 0.7472
vn -0.5103 -0.2710 0.8162
vn -0.9671 0.2531 0.0247
vn -0.4361 0.4893 -0.7553
vn 0.5050 0.2531 -0.8252
vn 0.9867 0.1573 0.0401
vn 0.4785 0.2901 0.8288
vn -0.4586 0.1573 0.8746
vn -0.9819 -0.1870 -0.0311
vn -0.4718 -0.3312 -0.8171
vn 0.4640 -0.1870 -0.8659
vn 0.7541 0.5363 -0.3791
vn 0.0194 0.9993 0.0335
vn -0.7054 0.5363 0.4635
vn -0.7541 -0.5362 0.3791
vn -0.0632 -0.9920 -0.1094
vn 0.7054 -0.5362 -0.4636
vn 0.4939 -0.1560 -0.8554
vn 0.4979 -0.0905 -0.8625
vn -0.7916 -0.4983 -0.3536
vn -0.0857 -0.9852 0.1484
vn 0.7020 -0.4983 0.5087
vn 0.7820 0.4998 0.3723
vn 0.0710 0.9899 -0.1229
vn -0.7135 0.4998 -0.4911
vn -0.6605 -0.4915 -0.5676
vn 0.1588 -0.9482 -0.2750
vn 0.8218 -0.4915 0.2882
vn 0.6507 0.4838 0.5853
vn -0.1723 0.9387 0.2985
vn -0.8322 0.4838 -0.2709
vn -0.5103 -0.2710 -0.8162
vn 0.4314 -0.5056 -0.7472
vn 0.9620 -0.2710 0.0339
vn 0.5050 0.2531 0.8252
vn -0.4361 0.4893 0.7553
vn -0.9671 0.2531 -0.0247
vn -0.4586 0.1573 -0.8746
vn 0.4785 0.2901 -0.8288
vn 0.9867 0.1573 -0.0401
vn 0.4640 -0.1870 0.8659
vn -0.4718 -0.3312 0.8171
vn -0.9819 -0.1870 0.0311
vn -0.7054 0.5363 -0.4635
vn 0.0194 0.9993 -0.0335
vn 0.7541 0.5363 0.3791
vn 0.7054 -0.5362 0.4636
vn -0.0632 -0.9920 0.1094
vn -0.7541 -0.5363 -0.3791
vn -0.4939 -0.1560 0.8554
vn -0.4979 -0.0905 0.8625
vn 0.7916 -0.4983 0.3536
vn 0.0857 -0.9852 -0.1484
vn -0.7020 -0.4983 -0.5087
vn -0.7820 0.4998 -0.3723
vn -0.0710 0.9899 0.1229
vn 0.7135 0.4998 0.4911
vn 0.6605 -0.4915 0.5676
vn -0.1588 -0.9482 0.2750
vn -0.8218 -0.4915 -0.2882
vn -0.6507 0.4838 -0.5853
vn 0.1723 0.9387 -0.2985
vn 0.8322 0.4838 0.2709
vn 0.5103 -0.2710 0.8162
vn -0.4314 -0.5056 0.7472
vn -0.9620 -0.2710 -0.0339
vn -0.5050 0.2531 -0.8252
vn 0.4361 0.4893 -0.7553
vn 0.9671 0.2531 0.0247
vn 0.4586 0.1573 0.8746
vn -0.4785 0.2901 0.8288
vn -0.9867 0.1573 0.0401
vn -0.4640 -0.1870 -0.8659
vn 0.4718 -0.3312 -0.8171
vn 0.9819 -0.1870 -0.0311
vn 0.7054 0.5363 0.4635
vn -0.0193 0.9993 0.0335
vn -0.7541 0.5363 -0.3791
vn -0.7054 -0.5362 -0.4636
vn 0.0632 -0.9920 -0.1094
vn 0.7541 -0.5362 0.3791
vn 0.9878 -0.1560 -0.0000
vn 0.9959 -0.0905 -0.0000
vn -0.0896 -0.4983 -0.8623
vn -0.1714 -0.9852 -0.0000
vn -0.0896 -0.4983 0.8623
vn 0.0686 0.4998 0.8634
vn 0.1419 0.9899 -0.0000
vn 0.0686 0.4998 -0.8634
vn 0.1613 -0.4915 -0.8558
vn 0.3176 -0.9482 -0.0000
vn 0.1613 -0.4915 0.8558
vn -0.1815 0.4838 0.8561
vn -0.3446 0.9387 -0.0000
vn -0.1815 0.4838 -0.8561
vn 0.4516 -0.2710 -0.8500
vn 0.8628 -0.5056 -0.0000
vn 0.4516 -0.2710 0.8500
vn -0.4621 0.2531 0.8499
vn -0.8721 0.4893 -0.0000
vn -0.4621 0.2531 -0.8499
vn 0.5281 0.1573 -0.8345
vn 0.9570 0.2901 -0.0000
vn 0.5281 0.1573 0.8345
vn -0.5179 -0.1870 0.8348
vn -0.9436 -0.3312 -0.0000
vn -0.5179 -0.1870 -0.8348
vn 0.0487 0.5363 -0.8426
vn 0.0387 0.9993 -0.0000
vn 0.0487 0.5363 0.8426
vn -0.0488 -0.5362 0.8426
vn -0.1264 -0.9920 -0.0000
vn -0.0488 -0.5362 -0.8426
vn -0.4939 -0.1560 -0.8554
vn -0.4979 -0.0905 -0.8625
vn -0.7020 -0.4983 0.5087
vn 0.0857 -0.9852 0.1484
vn 0.7916 -0.4983 -0.3536
vn 0.7135 0.4998 -0.4911
vn -0.0710 0.9899 -0.1229
vn -0.7820 0.4998 0.3723
vn -0.8218 -0.4915 0.2882
vn -0.1588 -0.9482 -0.2750
vn 0.6605 -0.4915 -0.5676
vn 0.8322 0.4838 -0.2709
vn 0.1723 0.9387 0.2985
vn -0.6507 0.4838 0.5853
vn -0.9620 -0.2710 0.0339
vn -0.4314 -0.5056 -0.7472
vn 0.5103 -0.2710 -0.8162
vn 0.9671 0.2531 -0.0247
vn 0.4361 0.4893 0.7553
vn -0.5050 0.2531 0.8252
vn -0.9867 0.1573 -0.0401
vn -0.4785 0.2901 -0.8288
vn 0.4586 0.1573 -0.8746
vn 0.9819 -0.1870 0.0311
vn 0.4718 -0.3312 0.8171
vn -0.4640 -0.1870 0.8659
vn -0.7541 0.5363 0.3791
vn -0.0193 0.9993 -0.0335
vn 0.7054 0.5363 -0.4635
vn 0.7541 -0.5362 -0.3791
vn 0.0632 -0.9920 0.1094
vn -0.7054 -0.5362 0.4636
vn 0.8489 -0.4960 -0.1827
vn -0.8499 -0.4958 0.1783
vn -0.8499 0.4958 0.1783
vn 0.8489 0.4960 -0.1827
vn 0.7044 -0.4917 -0.5118
vn -0.7044 -0.4917 0.5118
vn -0.7044 0.4917 0.5118
vn 0.7044 0.4917 -0.5118
vn 0.4354 -0.4917 -0.7541
vn -0.4354 -0.4917 0.7541
vn -0.4354 0.4917 0.7541
vn 0.4354 0.4917 -0.7541
vn 0.0910 -0.4917 -0.8660
vn -0.0910 -0.4917 0.8660
vn -0.0910 0.4917 0.8660
vn 0.0910 0.4917 -0.8660
vn -0.2691 -0.4917 -0.8281
vn 0.2691 -0.4917 0.8281
vn 0.2691 0.4917 0.8281
vn -0.2691 0.4917 -0.8281
vn -0.5826 -0.4917 -0.6471
vn 0.5826 -0.4917 0.6471
vn 0.5826 0.4917 0.6471
vn -0.5826 0.4917 -0.6471
vn -0.7955 -0.4917 -0.3542
vn 0.7955 -0.4917 0.3542
vn 0.7955 0.4917 0.3542
vn -0.7955 0.4917 -0.3542
vn -0.8707 -0.4917 -0.0000
vn 0.8707 -0.4917 -0.0000
vn 0.8707 0.4917 -0.0000
vn -0.8707 0.4917 -0.0000
vn -0.7955 -0.4917 0.3542
vn 0.7955 -0.4917 -0.3542
vn 0.7955 0.4917 -0.3542
vn -0.7955 0.4917 0.3542
vn -0.5826 -0.4917 0.6471
vn 0.5826 -0.4917 -0.6471
vn 0.5826 0.4917 -0.6471
vn -0.5826 0.4917 0.6471
vn -0.2691 -0.4917 0.8281
vn 0.2691 -0.4917 -0.8281
vn 0.2691 0.4917 -0.8281
vn -0.2691 0.4917 0.8281
vn 0.0910 -0.4917 0.8660
vn -0.0910 -0.4917 -0.8660
vn -0.0910 0.4917 -0.8660
vn 0.0910 0.4917 0.8660
vn 0.4354 -0.4917 0.7541
vn -0.4354 -0.4917 -0.7541
vn -0.4354 0.4917 -0.7541
vn 0.4354 0.4917 0.7541
vn 0.7044 -0.4917 0.5118
vn -0.7044 -0.4917 -0.5118
vn -0.7044 0.4917 -0.5118
vn 0.7044 0.4917 0.5118
vn 0.8489 -0.4960 0.1827
vn -0.8499 -0.4958 -0.1783
vn -0.8499 0.4958 -0.1783
vn 0.8489 0.4960 0.1827
vn -0.8660 -0.0000 0.5000
vn 0.8660 -0.0000 -0.5000
vn 0.4330 -0.5000 0.7500
vn -0.4330 -0.5000 -0.7500
vn -0.4330 0.5000 -0.7500
vn 0.4330 0.5000 0.7500
vn 0.8660 -0.0000 0.5000
vn -0.8660 -0.0000 -0.5000
vn 0.4330 -0.5000 -0.7500
vn -0.4330 -0.5000 0.7500
vn -0.4330 0.5000 0.7500
vn 0.4330 0.5000 -0.7500
vn -0.0000 -0.0000 -1.0000
vn -0.0000 -0.0000 1.0000
vn -0.8660 -0.5000 -0.0000
vn 0.8660 -0.5000 -0.0000
vn 0.8660 0.5000 -0.0000
vn -0.8660 0.5000 -0.0000
vt 0.812500 0.937500
vt 0.687500 0.937500
vt 0.437500 0.312500
s 0
usemtl FN_Atlas
f 1/1/1 2/1/1 3/1/1 4/1/1 5/1/1 6/1/1 7/1/1 8/1/1 9/1/1 10/1/1 11/1/1 12/1/1 13/1/1 14/1/1 15/1/1 16/1/1 17/1/1 18/1/1 19/1/1 20/1/1
f 21/1/2 22/1/2 23/1/2 24/1/2 25/1/2 26/1/2 27/1/2 28/1/2 29/1/2 30/1/2 31/1/2 32/1/2 33/1/2 34/1/2 35/1/2 36/1/2 37/1/2 38/1/2 39/1/2 40/1/2
f 20/1/3 19/1/3 41/1/3 42/1/3
f 19/1/4 18/1/4 43/1/4 41/1/4
f 18/1/5 17/1/5 44/1/5 43/1/5
f 17/1/6 16/1/6 45/1/6 44/1/6
f 16/1/7 15/1/7 46/1/7 45/1/7
f 15/1/8 14/1/8 47/1/8 46/1/8
f 14/1/9 13/1/9 48/1/9 47/1/9
f 13/1/10 12/1/10 49/1/10 48/1/10
f 12/1/11 11/1/11 50/1/11 49/1/11
f 11/1/12 10/1/12 51/1/12 50/1/12
f 10/1/13 9/1/13 52/1/13 51/1/13
f 9/1/14 8/1/14 53/1/14 52/1/14
f 8/1/15 7/1/15 54/1/15 53/1/15
f 7/1/16 6/1/16 55/1/16 54/1/16
f 6/1/17 5/1/17 56/1/17 55/1/17
f 5/1/18 4/1/18 57/1/18 56/1/18
f 4/1/19 3/1/19 58/1/19 57/1/19
f 3/1/20 2/1/20 59/1/20 58/1/20
f 2/1/21 1/1/21 60/1/21 59/1/21
f 1/1/22 20/1/22 42/1/22 60/1/22
f 42/1/23 41/1/23 61/1/23 62/1/23
f 41/1/24 43/1/24 63/1/24 61/1/24
f 43/1/25 44/1/25 64/1/25 63/1/25
f 44/1/26 45/1/26 65/1/26 64/1/26
f 45/1/27 46/1/27 66/1/27 65/1/27
f 46/1/28 47/1/28 67/1/28 66/1/28
f 47/1/29 48/1/29 68/1/29 67/1/29
f 48/1/30 49/1/30 69/1/30 68/1/30
f 49/1/31 50/1/31 70/1/31 69/1/31
f 50/1/32 51/1/32 71/1/32 70/1/32
f 51/1/33 52/1/33 72/1/33 71/1/33
f 52/1/34 53/1/34 73/1/34 72/1/34
f 53/1/35 54/1/35 74/1/35 73/1/35
f 54/1/36 55/1/36 75/1/36 74/1/36
f 55/1/37 56/1/37 76/1/37 75/1/37
f 56/1/38 57/1/38 77/1/38 76/1/38
f 57/1/39 58/1/39 78/1/39 77/1/39
f 58/1/40 59/1/40 79/1/40 78/1/40
f 59/1/41 60/1/41 80/1/41 79/1/41
f 60/1/42 42/1/42 62/1/42 80/1/42
f 62/1/43 61/1/43 81/1/43 82/1/43
f 61/1/44 63/1/44 83/1/44 81/1/44
f 63/1/45 64/1/45 84/1/45 83/1/45
f 64/1/46 65/1/46 85/1/46 84/1/46
f 65/1/47 66/1/47 86/1/47 85/1/47
f 66/1/48 67/1/48 87/1/48 86/1/48
f 67/1/49 68/1/49 88/1/49 87/1/49
f 68/1/50 69/1/50 89/1/50 88/1/50
f 69/1/51 70/1/51 90/1/51 89/1/51
f 70/1/52 71/1/52 91/1/52 90/1/52
f 71/1/53 72/1/53 92/1/53 91/1/53
f 72/1/54 73/1/54 93/1/54 92/1/54
f 73/1/55 74/1/55 94/1/55 93/1/55
f 74/1/56 75/1/56 95/1/56 94/1/56
f 75/1/57 76/1/57 96/1/57 95/1/57
f 76/1/58 77/1/58 97/1/58 96/1/58
f 77/1/59 78/1/59 98/1/59 97/1/59
f 78/1/60 79/1/60 99/1/60 98/1/60
f 79/1/61 80/1/61 100/1/61 99/1/61
f 80/1/62 62/1/62 82/1/62 100/1/62
f 82/1/2 81/1/2 22/1/2 21/1/2
f 81/1/2 83/1/2 23/1/2 22/1/2
f 83/1/2 84/1/2 24/1/2 23/1/2
f 84/1/2 85/1/2 25/1/2 24/1/2
f 85/1/2 86/1/2 26/1/2 25/1/2
f 86/1/2 87/1/2 27/1/2 26/1/2
f 87/1/2 88/1/2 28/1/2 27/1/2
f 88/1/2 89/1/2 29/1/2 28/1/2
f 89/1/2 90/1/2 30/1/2 29/1/2
f 90/1/2 91/1/2 31/1/2 30/1/2
f 91/1/2 92/1/2 32/1/2 31/1/2
f 92/1/2 93/1/2 33/1/2 32/1/2
f 93/1/2 94/1/2 34/1/2 33/1/2
f 94/1/2 95/1/2 35/1/2 34/1/2
f 95/1/2 96/1/2 36/1/2 35/1/2
f 96/1/2 97/1/2 37/1/2 36/1/2
f 97/1/2 98/1/2 38/1/2 37/1/2
f 98/1/2 99/1/2 39/1/2 38/1/2
f 99/1/2 100/1/2 40/1/2 39/1/2
f 100/1/2 82/1/2 21/1/2 40/1/2
f 101/2/1 102/2/1 103/2/1 104/2/1 105/2/1 106/2/1 107/2/1 108/2/1 109/2/1 110/2/1 111/2/1 112/2/1
f 113/2/2 114/2/2 115/2/2 116/2/2 117/2/2 118/2/2 119/2/2 120/2/2 121/2/2 122/2/2 123/2/2 124/2/2
f 112/2/63 111/2/63 125/2/63 126/2/63
f 111/2/25 110/2/25 127/2/25 125/2/25
f 110/2/64 109/2/64 128/2/64 127/2/64
f 109/2/65 108/2/65 129/2/65 128/2/65
f 108/2/30 107/2/30 130/2/30 129/2/30
f 107/2/66 106/2/66 131/2/66 130/2/66
f 106/2/67 105/2/67 132/2/67 131/2/67
f 105/2/35 104/2/35 133/2/35 132/2/35
f 104/2/68 103/2/68 134/2/68 133/2/68
f 103/2/69 102/2/69 135/2/69 134/2/69
f 102/2/40 101/2/40 136/2/40 135/2/40
f 101/2/70 112/2/70 126/2/70 136/2/70
f 126/2/71 125/2/71 137/2/71 138/2/71
f 125/2/72 127/2/72 139/2/72 137/2/72
f 127/2/73 128/2/73 140/2/73 139/2/73
f 128/2/74 129/2/74 141/2/74 140/2/74
f 129/2/75 130/2/75 142/2/75 141/2/75
f 130/2/76 131/2/76 143/2/76 142/2/76
f 131/2/77 132/2/77 144/2/77 143/2/77
f 132/2/78 133/2/78 145/2/78 144/2/78
f 133/2/79 134/2/79 146/2/79 145/2/79
f 134/2/80 135/2/80 147/2/80 146/2/80
f 135/2/81 136/2/81 148/2/81 147/2/81
f 136/2/82 126/2/82 138/2/82 148/2/82
f 138/2/83 137/2/83 149/2/83 150/2/83
f 137/2/84 139/2/84 151/2/84 149/2/84
f 139/2/85 140/2/85 152/2/85 151/2/85
f 140/2/86 141/2/86 153/2/86 152/2/86
f 141/2/87 142/2/87 154/2/87 153/2/87
f 142/2/88 143/2/88 155/2/88 154/2/88
f 143/2/89 144/2/89 156/2/89 155/2/89
f 144/2/90 145/2/90 157/2/90 156/2/90
f 145/2/91 146/2/91 158/2/91 157/2/91
f 146/2/92 147/2/92 159/2/92 158/2/92
f 147/2/93 148/2/93 160/2/93 159/2/93
f 148/2/94 138/2/94 150/2/94 160/2/94
f 150/2/95 149/2/95 161/2/95 162/2/95
f 149/2/96 151/2/96 163/2/96 161/2/96
f 151/2/97 152/2/97 164/2/97 163/2/97
f 152/2/98 153/2/98 165/2/98 164/2/98
f 153/2/99 154/2/99 166/2/99 165/2/99
f 154/2/100 155/2/100 167/2/100 166/2/100
f 155/2/101 156/2/101 168/2/101 167/2/101
f 156/2/102 157/2/102 169/2/102 168/2/102
f 157/2/103 158/2/103 170/2/103 169/2/103
f 158/2/104 159/2/104 171/2/104 170/2/104
f 159/2/105 160/2/105 172/2/105 171/2/105
f 160/2/106 150/2/106 162/2/106 172/2/106
f 162/2/107 161/2/107 173/2/107 174/2/107
f 161/2/108 163/2/108 175/2/108 173/2/108
f 163/2/109 164/2/109 176/2/109 175/2/109
f 164/2/110 165/2/110 177/2/110 176/2/110
f 165/2/111 166/2/111 178/2/111 177/2/111
f 166/2/112 167/2/112 179/2/112 178/2/112
f 167/2/113 168/2/113 180/2/113 179/2/113
f 168/2/114 169/2/114 181/2/114 180/2/114
f 169/2/115 170/2/115 182/2/115 181/2/115
f 170/2/116 171/2/116 183/2/116 182/2/116
f 171/2/117 172/2/117 184/2/117 183/2/117
f 172/2/118 162/2/118 174/2/118 184/2/118
f 174/2/63 173/2/63 185/2/63 186/2/63
f 173/2/25 175/2/25 187/2/25 185/2/25
f 175/2/64 176/2/64 188/2/64 187/2/64
f 176/2/65 177/2/65 189/2/65 188/2/65
f 177/2/30 178/2/30 190/2/30 189/2/30
f 178/2/66 179/2/66 191/2/66 190/2/66
f 179/2/67 180/2/67 192/2/67 191/2/67
f 180/2/35 181/2/35 193/2/35 192/2/35
f 181/2/68 182/2/68 194/2/68 193/2/68
f 182/2/69 183/2/69 195/2/69 194/2/69
f 183/2/40 184/2/40 196/2/40 195/2/40
f 184/2/70 174/2/70 186/2/70 196/2/70
f 186/2/119 185/2/119 197/2/119 198/2/119
f 185/2/120 187/2/120 199/2/120 197/2/120
f 187/2/121 188/2/121 200/2/121 199/2/121
f 188/2/122 189/2/122 201/2/122 200/2/122
f 189/2/123 190/2/123 202/2/123 201/2/123
f 190/2/124 191/2/124 203/2/124 202/2/124
f 191/2/125 192/2/125 204/2/125 203/2/125
f 192/2/126 193/2/126 205/2/126 204/2/126
f 193/2/127 194/2/127 206/2/127 205/2/127
f 194/2/128 195/2/128 207/2/128 206/2/128
f 195/2/129 196/2/129 208/2/129 207/2/129
f 196/2/130 186/2/130 198/2/130 208/2/130
f 198/2/131 197/2/131 114/2/131 113/2/131
f 197/2/132 199/2/132 115/2/132 114/2/132
f 199/2/133 200/2/133 116/2/133 115/2/133
f 200/2/134 201/2/134 117/2/134 116/2/134
f 201/2/135 202/2/135 118/2/135 117/2/135
f 202/2/136 203/2/136 119/2/136 118/2/136
f 203/2/137 204/2/137 120/2/137 119/2/137
f 204/2/138 205/2/138 121/2/138 120/2/138
f 205/2/139 206/2/139 122/2/139 121/2/139
f 206/2/140 207/2/140 123/2/140 122/2/140
f 207/2/141 208/2/141 124/2/141 123/2/141
f 208/2/142 198/2/142 113/2/142 124/2/142
f 209/3/1 210/3/1 211/3/1 212/3/1 213/3/1 214/3/1 215/3/1 216/3/1 217/3/1 218/3/1 219/3/1 220/3/1
f 221/3/2 222/3/2 223/3/2 224/3/2 225/3/2 226/3/2 227/3/2 228/3/2 229/3/2 230/3/2 231/3/2 232/3/2
f 220/3/143 219/3/143 233/3/143 234/3/143
f 219/3/144 218/3/144 235/3/144 233/3/144
f 218/3/145 217/3/145 236/3/145 235/3/145
f 217/3/146 216/3/146 237/3/146 236/3/146
f 216/3/147 215/3/147 238/3/147 237/3/147
f 215/3/148 214/3/148 239/3/148 238/3/148
f 214/3/149 213/3/149 240/3/149 239/3/149
f 213/3/150 212/3/150 241/3/150 240/3/150
f 212/3/151 211/3/151 242/3/151 241/3/151
f 211/3/152 210/3/152 243/3/152 242/3/152
f 210/3/153 209/3/153 244/3/153 243/3/153
f 209/3/154 220/3/154 234/3/154 244/3/154
f 234/3/155 233/3/155 245/3/155 246/3/155
f 233/3/156 235/3/156 247/3/156 245/3/156
f 235/3/157 236/3/157 248/3/157 247/3/157
f 236/3/158 237/3/158 249/3/158 248/3/158
f 237/3/159 238/3/159 250/3/159 249/3/159
f 238/3/160 239/3/160 251/3/160 250/3/160
f 239/3/161 240/3/161 252/3/161 251/3/161
f 240/3/162 241/3/162 253/3/162 252/3/162
f 241/3/163 242/3/163 254/3/163 253/3/163
f 242/3/164 243/3/164 255/3/164 254/3/164
f 243/3/165 244/3/165 256/3/165 255/3/165
f 244/3/166 234/3/166 246/3/166 256/3/166
f 246/3/167 245/3/167 257/3/167 258/3/167
f 245/3/168 247/3/168 259/3/168 257/3/168
f 247/3/169 248/3/169 260/3/169 259/3/169
f 248/3/170 249/3/170 261/3/170 260/3/170
f 249/3/171 250/3/171 262/3/171 261/3/171
f 250/3/172 251/3/172 263/3/172 262/3/172
f 251/3/173 252/3/173 264/3/173 263/3/173
f 252/3/174 253/3/174 265/3/174 264/3/174
f 253/3/175 254/3/175 266/3/175 265/3/175
f 254/3/176 255/3/176 267/3/176 266/3/176
f 255/3/177 256/3/177 268/3/177 267/3/177
f 256/3/178 246/3/178 258/3/178 268/3/178
f 258/3/179 257/3/179 222/3/179 221/3/179
f 257/3/180 259/3/180 223/3/180 222/3/180
f 259/3/181 260/3/181 224/3/181 223/3/181
f 260/3/182 261/3/182 225/3/182 224/3/182
f 261/3/183 262/3/183 226/3/183 225/3/183
f 262/3/184 263/3/184 227/3/184 226/3/184
f 263/3/185 264/3/185 228/3/185 227/3/185
f 264/3/186 265/3/186 229/3/186 228/3/186
f 265/3/187 266/3/187 230/3/187 229/3/187
f 266/3/188 267/3/188 231/3/188 230/3/188
f 267/3/189 268/3/189 232/3/189 231/3/189
f 268/3/190 258/3/190 221/3/190 232/3/190
f 269/3/191 270/3/191 271/3/191 272/3/191 273/3/191 274/3/191
f 275/3/192 276/3/192 277/3/192 278/3/192 279/3/192 280/3/192
f 274/3/193 273/3/193 281/3/193 282/3/193
f 273/3/194 272/3/194 283/3/194 281/3/194
f 272/3/195 271/3/195 284/3/195 283/3/195
f 271/3/196 270/3/196 285/3/196 284/3/196
f 270/3/197 269/3/197 286/3/197 285/3/197
f 269/3/198 274/3/198 282/3/198 286/3/198
f 282/3/199 281/3/199 287/3/199 288/3/199
f 281/3/200 283/3/200 289/3/200 287/3/200
f 283/3/201 284/3/201 290/3/201 289/3/201
f 284/3/202 285/3/202 291/3/202 290/3/202
f 285/3/203 286/3/203 292/3/203 291/3/203
f 286/3/204 282/3/204 288/3/204 292/3/204
f 288/3/205 287/3/205 293/3/205 294/3/205
f 287/3/206 289/3/206 295/3/206 293/3/206
f 289/3/207 290/3/207 296/3/207 295/3/207
f 290/3/208 291/3/208 297/3/208 296/3/208
f 291/3/209 292/3/209 298/3/209 297/3/209
f 292/3/210 288/3/210 294/3/210 298/3/210
f 294/3/211 293/3/211 299/3/211 300/3/211
f 293/3/212 295/3/212 301/3/212 299/3/212
f 295/3/213 296/3/213 302/3/213 301/3/213
f 296/3/214 297/3/214 303/3/214 302/3/214
f 297/3/215 298/3/215 304/3/215 303/3/215
f 298/3/216 294/3/216 300/3/216 304/3/216
f 300/3/217 299/3/217 276/3/217 275/3/217
f 299/3/218 301/3/218 277/3/218 276/3/218
f 301/3/219 302/3/219 278/3/219 277/3/219
f 302/3/220 303/3/220 279/3/220 278/3/220
f 303/3/221 304/3/221 280/3/221 279/3/221
f 304/3/222 300/3/222 275/3/222 280/3/222
f 305/3/223 306/3/223 307/3/223 308/3/223 309/3/223 310/3/223
f 311/3/224 312/3/224 313/3/224 314/3/224 315/3/224 316/3/224
f 310/3/225 309/3/225 317/3/225 318/3/225
f 309/3/226 308/3/226 319/3/226 317/3/226
f 308/3/227 307/3/227 320/3/227 319/3/227
f 307/3/228 306/3/228 321/3/228 320/3/228
f 306/3/229 305/3/229 322/3/229 321/3/229
f 305/3/230 310/3/230 318/3/230 322/3/230
f 318/3/231 317/3/231 323/3/231 324/3/231
f 317/3/232 319/3/232 325/3/232 323/3/232
f 319/3/233 320/3/233 326/3/233 325/3/233
f 320/3/234 321/3/234 327/3/234 326/3/234
f 321/3/235 322/3/235 328/3/235 327/3/235
f 322/3/236 318/3/236 324/3/236 328/3/236
f 324/3/237 323/3/237 329/3/237 330/3/237
f 323/3/238 325/3/238 331/3/238 329/3/238
f 325/3/239 326/3/239 332/3/239 331/3/239
f 326/3/240 327/3/240 333/3/240 332/3/240
f 327/3/241 328/3/241 334/3/241 333/3/241
f 328/3/242 324/3/242 330/3/242 334/3/242
f 330/3/243 329/3/243 335/3/243 336/3/243
f 329/3/244 331/3/244 337/3/244 335/3/244
f 331/3/245 332/3/245 338/3/245 337/3/245
f 332/3/246 333/3/246 339/3/246 338/3/246
f 333/3/247 334/3/247 340/3/247 339/3/247
f 334/3/248 330/3/248 336/3/248 340/3/248
f 336/3/249 335/3/249 312/3/249 311/3/249
f 335/3/250 337/3/250 313/3/250 312/3/250
f 337/3/251 338/3/251 314/3/251 313/3/251
f 338/3/252 339/3/252 315/3/252 314/3/252
f 339/3/253 340/3/253 316/3/253 315/3/253
f 340/3/254 336/3/254 311/3/254 316/3/254
f 341/3/255 342/3/255 343/3/255 344/3/255 345/3/255 346/3/255
f 347/3/256 348/3/256 349/3/256 350/3/256 351/3/256 352/3/256
f 346/3/257 345/3/257 353/3/257 354/3/257
f 345/3/258 344/3/258 355/3/258 353/3/258
f 344/3/259 343/3/259 356/3/259 355/3/259
f 343/3/260 342/3/260 357/3/260 356/3/260
f 342/3/261 341/3/261 358/3/261 357/3/261
f 341/3/262 346/3/262 354/3/262 358/3/262
f 354/3/263 353/3/263 359/3/263 360/3/263
f 353/3/264 355/3/264 361/3/264 359/3/264
f 355/3/265 356/3/265 362/3/265 361/3/265
f 356/3/266 357/3/266 363/3/266 362/3/266
f 357/3/267 358/3/267 364/3/267 363/3/267
f 358/3/268 354/3/268 360/3/268 364/3/268
f 360/3/269 359/3/269 365/3/269 366/3/269
f 359/3/270 361/3/270 367/3/270 365/3/270
f 361/3/271 362/3/271 368/3/271 367/3/271
f 362/3/272 363/3/272 369/3/272 368/3/272
f 363/3/273 364/3/273 370/3/273 369/3/273
f 364/3/274 360/3/274 366/3/274 370/3/274
f 366/3/275 365/3/275 371/3/275 372/3/275
f 365/3/276 367/3/276 373/3/276 371/3/276
f 367/3/277 368/3/277 374/3/277 373/3/277
f 368/3/278 369/3/278 375/3/278 374/3/278
f 369/3/279 370/3/279 376/3/279 375/3/279
f 370/3/280 366/3/280 372/3/280 376/3/280
f 372/3/281 371/3/281 348/3/281 347/3/281
f 371/3/282 373/3/282 349/3/282 348/3/282
f 373/3/283 374/3/283 350/3/283 349/3/283
f 374/3/284 375/3/284 351/3/284 350/3/284
f 375/3/285 376/3/285 352/3/285 351/3/285
f 376/3/286 372/3/286 347/3/286 352/3/286
f 377/3/287 378/3/287 379/3/287 380/3/287 381/3/287 382/3/287
f 383/3/288 384/3/288 385/3/288 386/3/288 387/3/288 388/3/288
f 382/3/289 381/3/289 389/3/289 390/3/289
f 381/3/290 380/3/290 391/3/290 389/3/290
f 380/3/291 379/3/291 392/3/291 391/3/291
f 379/3/292 378/3/292 393/3/292 392/3/292
f 378/3/293 377/3/293 394/3/293 393/3/293
f 377/3/294 382/3/294 390/3/294 394/3/294
f 390/3/295 389/3/295 395/3/295 396/3/295
f 389/3/296 391/3/296 397/3/296 395/3/296
f 391/3/297 392/3/297 398/3/297 397/3/297
f 392/3/298 393/3/298 399/3/298 398/3/298
f 393/3/299 394/3/299 400/3/299 399/3/299
f 394/3/300 390/3/300 396/3/300 400/3/300
f 396/3/301 395/3/301 401/3/301 402/3/301
f 395/3/302 397/3/302 403/3/302 401/3/302
f 397/3/303 398/3/303 404/3/303 403/3/303
f 398/3/304 399/3/304 405/3/304 404/3/304
f 399/3/305 400/3/305 406/3/305 405/3/305
f 400/3/306 396/3/306 402/3/306 406/3/306
f 402/3/307 401/3/307 407/3/307 408/3/307
f 401/3/308 403/3/308 409/3/308 407/3/308
f 403/3/309 404/3/309 410/3/309 409/3/309
f 404/3/310 405/3/310 411/3/310 410/3/310
f 405/3/311 406/3/311 412/3/311 411/3/311
f 406/3/312 402/3/312 408/3/312 412/3/312
f 408/3/313 407/3/313 384/3/313 383/3/313
f 407/3/314 409/3/314 385/3/314 384/3/314
f 409/3/315 410/3/315 386/3/315 385/3/315
f 410/3/316 411/3/316 387/3/316 386/3/316
f 411/3/317 412/3/317 388/3/317 387/3/317
f 412/3/318 408/3/318 383/3/318 388/3/318
f 413/3/319 414/3/319 415/3/319 416/3/319 417/3/319 418/3/319
f 419/3/320 420/3/320 421/3/320 422/3/320 423/3/320 424/3/320
f 418/3/321 417/3/321 425/3/321 426/3/321
f 417/3/322 416/3/322 427/3/322 425/3/322
f 416/3/323 415/3/323 428/3/323 427/3/323
f 415/3/324 414/3/324 429/3/324 428/3/324
f 414/3/325 413/3/325 430/3/325 429/3/325
f 413/3/326 418/3/326 426/3/326 430/3/326
f 426/3/327 425/3/327 431/3/327 432/3/327
f 425/3/328 427/3/328 433/3/328 431/3/328
f 427/3/329 428/3/329 434/3/329 433/3/329
f 428/3/330 429/3/330 435/3/330 434/3/330
f 429/3/331 430/3/331 436/3/331 435/3/331
f 430/3/332 426/3/332 432/3/332 436/3/332
f 432/3/333 431/3/333 437/3/333 438/3/333
f 431/3/334 433/3/334 439/3/334 437/3/334
f 433/3/335 434/3/335 440/3/335 439/3/335
f 434/3/336 435/3/336 441/3/336 440/3/336
f 435/3/337 436/3/337 442/3/337 441/3/337
f 436/3/338 432/3/338 438/3/338 442/3/338
f 438/3/339 437/3/339 443/3/339 444/3/339
f 437/3/340 439/3/340 445/3/340 443/3/340
f 439/3/341 440/3/341 446/3/341 445/3/341
f 440/3/342 441/3/342 447/3/342 446/3/342
f 441/3/343 442/3/343 448/3/343 447/3/343
f 442/3/344 438/3/344 444/3/344 448/3/344
f 444/3/345 443/3/345 420/3/345 419/3/345
f 443/3/346 445/3/346 421/3/346 420/3/346
f 445/3/347 446/3/347 422/3/347 421/3/347
f 446/3/348 447/3/348 423/3/348 422/3/348
f 447/3/349 448/3/349 424/3/349 423/3/349
f 448/3/350 444/3/350 419/3/350 424/3/350
f 449/3/351 450/3/351 451/3/351 452/3/351 453/3/351 454/3/351
f 455/3/352 456/3/352 457/3/352 458/3/352 459/3/352 460/3/352
f 454/3/353 453/3/353 461/3/353 462/3/353
f 453/3/354 452/3/354 463/3/354 461/3/354
f 452/3/355 451/3/355 464/3/355 463/3/355
f 451/3/356 450/3/356 465/3/356 464/3/356
f 450/3/357 449/3/357 466/3/357 465/3/357
f 449/3/358 454/3/358 462/3/358 466/3/358
f 462/3/359 461/3/359 467/3/359 468/3/359
f 461/3/360 463/3/360 469/3/360 467/3/360
f 463/3/361 464/3/361 470/3/361 469/3/361
f 464/3/362 465/3/362 471/3/362 470/3/362
f 465/3/363 466/3/363 472/3/363 471/3/363
f 466/3/364 462/3/364 468/3/364 472/3/364
f 468/3/365 467/3/365 473/3/365 474/3/365
f 467/3/366 469/3/366 475/3/366 473/3/366
f 469/3/367 470/3/367 476/3/367 475/3/367
f 470/3/368 471/3/368 477/3/368 476/3/368
f 471/3/369 472/3/369 478/3/369 477/3/369
f 472/3/370 468/3/370 474/3/370 478/3/370
f 474/3/371 473/3/371 479/3/371 480/3/371
f 473/3/372 475/3/372 481/3/372 479/3/372
f 475/3/373 476/3/373 482/3/373 481/3/373
f 476/3/374 477/3/374 483/3/374 482/3/374
f 477/3/375 478/3/375 484/3/375 483/3/375
f 478/3/376 474/3/376 480/3/376 484/3/376
f 480/3/377 479/3/377 456/3/377 455/3/377
f 479/3/378 481/3/378 457/3/378 456/3/378
f 481/3/379 482/3/379 458/3/379 457/3/379
f 482/3/380 483/3/380 459/3/380 458/3/380
f 483/3/381 484/3/381 460/3/381 459/3/381
f 484/3/382 480/3/382 455/3/382 460/3/382
f 485/3/383 486/3/383 487/3/383 488/3/383
f 486/3/1 489/3/1 490/3/1 487/3/1
f 489/3/384 491/3/384 492/3/384 490/3/384
f 491/3/385 493/3/385 494/3/385 492/3/385
f 493/3/2 495/3/2 496/3/2 494/3/2
f 495/3/386 485/3/386 488/3/386 496/3/386
f 488/3/387 487/3/387 497/3/387 498/3/387
f 487/3/1 490/3/1 499/3/1 497/3/1
f 490/3/388 492/3/388 500/3/388 499/3/388
f 492/3/389 494/3/389 501/3/389 500/3/389
f 494/3/2 496/3/2 502/3/2 501/3/2
f 496/3/390 488/3/390 498/3/390 502/3/390
f 498/3/391 497/3/391 503/3/391 504/3/391
f 497/3/1 499/3/1 505/3/1 503/3/1
f 499/3/392 500/3/392 506/3/392 505/3/392
f 500/3/393 501/3/393 507/3/393 506/3/393
f 501/3/2 502/3/2 508/3/2 507/3/2
f 502/3/394 498/3/394 504/3/394 508/3/394
f 504/3/395 503/3/395 509/3/395 510/3/395
f 503/3/1 505/3/1 511/3/1 509/3/1
f 505/3/396 506/3/396 512/3/396 511/3/396
f 506/3/397 507/3/397 513/3/397 512/3/397
f 507/3/2 508/3/2 514/3/2 513/3/2
f 508/3/398 504/3/398 510/3/398 514/3/398
f 510/3/399 509/3/399 515/3/399 516/3/399
f 509/3/1 511/3/1 517/3/1 515/3/1
f 511/3/400 512/3/400 518/3/400 517/3/400
f 512/3/401 513/3/401 519/3/401 518/3/401
f 513/3/2 514/3/2 520/3/2 519/3/2
f 514/3/402 510/3/402 516/3/402 520/3/402
f 516/3/403 515/3/403 521/3/403 522/3/403
f 515/3/1 517/3/1 523/3/1 521/3/1
f 517/3/404 518/3/404 524/3/404 523/3/404
f 518/3/405 519/3/405 525/3/405 524/3/405
f 519/3/2 520/3/2 526/3/2 525/3/2
f 520/3/406 516/3/406 522/3/406 526/3/406
f 522/3/407 521/3/407 527/3/407 528/3/407
f 521/3/1 523/3/1 529/3/1 527/3/1
f 523/3/408 524/3/408 530/3/408 529/3/408
f 524/3/409 525/3/409 531/3/409 530/3/409
f 525/3/2 526/3/2 532/3/2 531/3/2
f 526/3/410 522/3/410 528/3/410 532/3/410
f 528/3/411 527/3/411 533/3/411 534/3/411
f 527/3/1 529/3/1 535/3/1 533/3/1
f 529/3/412 530/3/412 536/3/412 535/3/412
f 530/3/413 531/3/413 537/3/413 536/3/413
f 531/3/2 532/3/2 538/3/2 537/3/2
f 532/3/414 528/3/414 534/3/414 538/3/414
f 534/3/415 533/3/415 539/3/415 540/3/415
f 533/3/1 535/3/1 541/3/1 539/3/1
f 535/3/416 536/3/416 542/3/416 541/3/416
f 536/3/417 537/3/417 543/3/417 542/3/417
f 537/3/2 538/3/2 544/3/2 543/3/2
f 538/3/418 534/3/418 540/3/418 544/3/418
f 540/3/419 539/3/419 545/3/419 546/3/419
f 539/3/1 541/3/1 547/3/1 545/3/1
f 541/3/420 542/3/420 548/3/420 547/3/420
f 542/3/421 543/3/421 549/3/421 548/3/421
f 543/3/2 544/3/2 550/3/2 549/3/2
f 544/3/422 540/3/422 546/3/422 550/3/422
f 546/3/423 545/3/423 551/3/423 552/3/423
f 545/3/1 547/3/1 553/3/1 551/3/1
f 547/3/424 548/3/424 554/3/424 553/3/424
f 548/3/425 549/3/425 555/3/425 554/3/425
f 549/3/2 550/3/2 556/3/2 555/3/2
f 550/3/426 546/3/426 552/3/426 556/3/426
f 552/3/427 551/3/427 557/3/427 558/3/427
f 551/3/1 553/3/1 559/3/1 557/3/1
f 553/3/428 554/3/428 560/3/428 559/3/428
f 554/3/429 555/3/429 561/3/429 560/3/429
f 555/3/2 556/3/2 562/3/2 561/3/2
f 556/3/430 552/3/430 558/3/430 562/3/430
f 558/3/431 557/3/431 563/3/431 564/3/431
f 557/3/1 559/3/1 565/3/1 563/3/1
f 559/3/432 560/3/432 566/3/432 565/3/432
f 560/3/433 561/3/433 567/3/433 566/3/433
f 561/3/2 562/3/2 568/3/2 567/3/2
f 562/3/434 558/3/434 564/3/434 568/3/434
f 564/3/435 563/3/435 569/3/435 570/3/435
f 563/3/1 565/3/1 571/3/1 569/3/1
f 565/3/436 566/3/436 572/3/436 571/3/436
f 566/3/437 567/3/437 573/3/437 572/3/437
f 567/3/2 568/3/2 574/3/2 573/3/2
f 568/3/438 564/3/438 570/3/438 574/3/438
f 570/3/439 569/3/439 575/3/439 576/3/439
f 569/3/1 571/3/1 577/3/1 575/3/1
f 571/3/440 572/3/440 578/3/440 577/3/440
f 572/3/441 573/3/441 579/3/441 578/3/441
f 573/3/2 574/3/2 580/3/2 579/3/2
f 574/3/442 570/3/442 576/3/442 580/3/442
f 581/3/443 582/3/443 583/3/443 584/3/443 585/3/443 586/3/443
f 587/3/444 588/3/444 589/3/444 590/3/444 591/3/444 592/3/444
f 586/3/445 585/3/445 588/3/445 587/3/445
f 585/3/1 584/3/1 589/3/1 588/3/1
f 584/3/446 583/3/446 590/3/446 589/3/446
f 583/3/447 582/3/447 591/3/447 590/3/447
f 582/3/2 581/3/2 592/3/2 591/3/2
f 581/3/448 586/3/448 587/3/448 592/3/448
f 593/3/449 594/3/449 595/3/449 596/3/449 597/3/449 598/3/449
f 599/3/450 600/3/450 601/3/450 602/3/450 603/3/450 604/3/450
f 598/3/451 597/3/451 600/3/451 599/3/451
f 597/3/1 596/3/1 601/3/1 600/3/1
f 596/3/452 595/3/452 602/3/452 601/3/452
f 595/3/453 594/3/453 603/3/453 602/3/453
f 594/3/2 593/3/2 604/3/2 603/3/2
f 593/3/454 598/3/454 599/3/454 604/3/454
f 605/3/455 606/3/455 607/3/455 608/3/455 609/3/455 610/3/455
f 611/3/456 612/3/456 613/3/456 614/3/456 615/3/456 616/3/456
f 610/3/457 609/3/457 612/3/457 611/3/457
f 609/3/1 608/3/1 613/3/1 612/3/1
f 608/3/458 607/3/458 614/3/458 613/3/458
f 607/3/459 606/3/459 615/3/459 614/3/459
f 606/3/2 605/3/2 616/3/2 615/3/2
f 605/3/460 610/3/460 611/3/460 616/3/460
