# Blender 5.2.0 LTS
# www.blender.org
mtllib FN_Cabinet_Kitchen_Sink.mtl
o FN_Cabinet_Kitchen_Sink
v -0.490000 0.000000 0.221000
v -0.490000 0.000000 -0.312000
v 0.490000 0.000000 -0.312000
v 0.490000 0.000000 0.221000
v -0.490000 0.100000 0.221000
v 0.490000 0.100000 0.221000
v 0.490000 0.100000 -0.312000
v -0.490000 0.100000 -0.312000
v -0.500000 0.100000 0.276000
v -0.500000 0.100000 -0.312000
v 0.500000 0.100000 -0.312000
v 0.500000 0.100000 0.276000
v -0.500000 0.690000 0.276000
v 0.500000 0.690000 0.276000
v 0.500000 0.690000 -0.312000
v -0.500000 0.690000 -0.312000
v -0.500000 0.686000 0.276000
v -0.500000 0.686000 0.188000
v 0.500000 0.686000 0.188000
v 0.500000 0.686000 0.276000
v -0.500000 0.884000 0.276000
v 0.500000 0.884000 0.276000
v 0.500000 0.884000 0.188000
v -0.500000 0.884000 0.188000
v -0.500000 0.686000 -0.202000
v -0.500000 0.686000 -0.312000
v 0.500000 0.686000 -0.312000
v 0.500000 0.686000 -0.202000
v -0.500000 0.884000 -0.202000
v 0.500000 0.884000 -0.202000
v 0.500000 0.884000 -0.312000
v -0.500000 0.884000 -0.312000
v -0.430000 0.686000 -0.312000
v -0.430000 0.686000 0.276000
v -0.430000 0.884000 0.276000
v -0.430000 0.884000 -0.312000
v -0.010000 0.686000 0.276000
v -0.010000 0.686000 -0.312000
v -0.010000 0.884000 0.276000
v -0.010000 0.884000 -0.312000
v -0.498000 0.104000 0.279000
v -0.498000 0.104000 0.276000
v 0.498000 0.104000 0.276000
v 0.498000 0.104000 0.279000
v -0.498000 0.880000 0.279000
v 0.498000 0.880000 0.279000
v 0.498000 0.880000 0.276000
v -0.498000 0.880000 0.276000
v -0.494000 0.112000 0.291000
v -0.494000 0.112000 0.279000
v -0.005000 0.112000 0.279000
v -0.005000 0.112000 0.291000
v -0.494000 0.872000 0.291000
v -0.005000 0.872000 0.291000
v -0.005000 0.872000 0.279000
v -0.494000 0.872000 0.279000
v -0.494000 0.112000 0.297000
v -0.494000 0.112000 0.290000
v -0.005000 0.112000 0.290000
v -0.005000 0.112000 0.297000
v -0.494000 0.167000 0.297000
v -0.005000 0.167000 0.297000
v -0.005000 0.167000 0.290000
v -0.494000 0.167000 0.290000
v -0.494000 0.817000 0.297000
v -0.494000 0.817000 0.290000
v -0.005000 0.817000 0.290000
v -0.005000 0.817000 0.297000
v -0.494000 0.872000 0.297000
v -0.005000 0.872000 0.297000
v -0.005000 0.872000 0.290000
v -0.494000 0.872000 0.290000
v -0.439000 0.167000 0.290000
v -0.439000 0.167000 0.297000
v -0.439000 0.817000 0.297000
v -0.439000 0.817000 0.290000
v -0.060000 0.167000 0.297000
v -0.060000 0.167000 0.290000
v -0.060000 0.817000 0.297000
v -0.060000 0.817000 0.290000
v -0.038000 0.642000 0.312000
v -0.038000 0.642000 0.298000
v -0.022000 0.642000 0.298000
v -0.022000 0.642000 0.312000
v -0.038000 0.832000 0.312000
v -0.022000 0.832000 0.312000
v -0.022000 0.832000 0.298000
v -0.038000 0.832000 0.298000
v -0.038000 0.646000 0.299000
v -0.038000 0.646000 0.292000
v -0.022000 0.646000 0.292000
v -0.022000 0.646000 0.299000
v -0.038000 0.662000 0.299000
v -0.022000 0.662000 0.299000
v -0.022000 0.662000 0.292000
v -0.038000 0.662000 0.292000
v -0.038000 0.812000 0.299000
v -0.038000 0.812000 0.292000
v -0.022000 0.812000 0.292000
v -0.022000 0.812000 0.299000
v -0.038000 0.828000 0.299000
v -0.022000 0.828000 0.299000
v -0.022000 0.828000 0.292000
v -0.038000 0.828000 0.292000
v 0.005000 0.112000 0.291000
v 0.005000 0.112000 0.279000
v 0.494000 0.112000 0.279000
v 0.494000 0.112000 0.291000
v 0.005000 0.872000 0.291000
v 0.494000 0.872000 0.291000
v 0.494000 0.872000 0.279000
v 0.005000 0.872000 0.279000
v 0.005000 0.112000 0.297000
v 0.005000 0.112000 0.290000
v 0.494000 0.112000 0.290000
v 0.494000 0.112000 0.297000
v 0.005000 0.167000 0.297000
v 0.494000 0.167000 0.297000
v 0.494000 0.167000 0.290000
v 0.005000 0.167000 0.290000
v 0.005000 0.817000 0.297000
v 0.005000 0.817000 0.290000
v 0.494000 0.817000 0.290000
v 0.494000 0.817000 0.297000
v 0.005000 0.872000 0.297000
v 0.494000 0.872000 0.297000
v 0.494000 0.872000 0.290000
v 0.005000 0.872000 0.290000
v 0.060000 0.167000 0.290000
v 0.060000 0.167000 0.297000
v 0.060000 0.817000 0.297000
v 0.060000 0.817000 0.290000
v 0.439000 0.167000 0.297000
v 0.439000 0.167000 0.290000
v 0.439000 0.817000 0.297000
v 0.439000 0.817000 0.290000
v 0.022000 0.642000 0.312000
v 0.022000 0.642000 0.298000
v 0.038000 0.642000 0.298000
v 0.038000 0.642000 0.312000
v 0.022000 0.832000 0.312000
v 0.038000 0.832000 0.312000
v 0.038000 0.832000 0.298000
v 0.022000 0.832000 0.298000
v 0.022000 0.646000 0.299000
v 0.022000 0.646000 0.292000
v 0.038000 0.646000 0.292000
v 0.038000 0.646000 0.299000
v 0.022000 0.662000 0.299000
v 0.038000 0.662000 0.299000
v 0.038000 0.662000 0.292000
v 0.022000 0.662000 0.292000
v 0.022000 0.812000 0.299000
v 0.022000 0.812000 0.292000
v 0.038000 0.812000 0.292000
v 0.038000 0.812000 0.299000
v 0.022000 0.828000 0.299000
v 0.038000 0.828000 0.299000
v 0.038000 0.828000 0.292000
v 0.022000 0.828000 0.292000
v -0.509282 0.884000 -0.307052
v -0.420718 0.884000 -0.307052
v -0.420718 0.884000 0.303052
v -0.509282 0.884000 0.303052
v -0.420000 0.889000 0.308000
v -0.510000 0.889000 0.308000
v -0.420000 0.889000 -0.312000
v -0.510000 0.889000 -0.312000
v -0.420000 0.915000 0.308000
v -0.510000 0.915000 0.308000
v -0.420000 0.915000 -0.312000
v -0.510000 0.915000 -0.312000
v -0.509282 0.920000 0.303052
v -0.420718 0.920000 0.303052
v -0.420718 0.920000 -0.307052
v -0.509282 0.920000 -0.307052
v -0.016751 0.884000 -0.308199
v 0.506751 0.884000 -0.308199
v 0.506751 0.884000 0.304199
v -0.016751 0.884000 0.304199
v 0.510000 0.889000 0.308000
v -0.020000 0.889000 0.308000
v 0.510000 0.889000 -0.312000
v -0.020000 0.889000 -0.312000
v 0.510000 0.915000 0.308000
v -0.020000 0.915000 0.308000
v 0.510000 0.915000 -0.312000
v -0.020000 0.915000 -0.312000
v -0.016751 0.920000 0.304199
v 0.506751 0.920000 0.304199
v 0.506751 0.920000 -0.308199
v -0.016751 0.920000 -0.308199
v -0.415245 0.884000 0.179545
v -0.024755 0.884000 0.179545
v -0.024755 0.884000 0.306455
v -0.415245 0.884000 0.306455
v -0.020000 0.889000 0.178000
v -0.420000 0.889000 0.178000
v -0.020000 0.915000 0.178000
v -0.420000 0.915000 0.178000
v -0.415245 0.920000 0.306455
v -0.024755 0.920000 0.306455
v -0.024755 0.920000 0.179545
v -0.415245 0.920000 0.179545
v -0.415211 0.884000 -0.310563
v -0.024789 0.884000 -0.310563
v -0.024789 0.884000 -0.193437
v -0.415211 0.884000 -0.193437
v -0.020000 0.889000 -0.192000
v -0.420000 0.889000 -0.192000
v -0.020000 0.915000 -0.192000
v -0.420000 0.915000 -0.192000
v -0.415211 0.920000 -0.193437
v -0.024789 0.920000 -0.193437
v -0.024789 0.920000 -0.310563
v -0.415211 0.920000 -0.310563
v -0.420000 0.884000 0.178000
v -0.020000 0.884000 0.178000
v -0.050000 0.700000 0.150000
v -0.390000 0.700000 0.150000
v -0.020000 0.884000 -0.192000
v -0.050000 0.700000 -0.164000
v -0.420000 0.884000 -0.192000
v -0.390000 0.700000 -0.164000
v -0.344452 0.704000 0.107936
v -0.095548 0.704000 0.107936
v -0.095548 0.704000 -0.121936
v -0.344452 0.704000 -0.121936
v -0.344452 0.700000 0.107936
v -0.095548 0.700000 0.107936
v -0.095548 0.700000 -0.121936
v -0.344452 0.700000 -0.121936
v 0.032000 0.917000 0.125000
v 0.032000 0.917000 0.111000
v 0.436000 0.917000 0.111000
v 0.436000 0.917000 0.125000
v 0.032000 0.920000 0.125000
v 0.436000 0.920000 0.125000
v 0.436000 0.920000 0.111000
v 0.032000 0.920000 0.111000
v 0.032000 0.917000 0.039000
v 0.032000 0.917000 0.025000
v 0.436000 0.917000 0.025000
v 0.436000 0.917000 0.039000
v 0.032000 0.920000 0.039000
v 0.436000 0.920000 0.039000
v 0.436000 0.920000 0.025000
v 0.032000 0.920000 0.025000
v 0.032000 0.917000 -0.047000
v 0.032000 0.917000 -0.061000
v 0.436000 0.917000 -0.061000
v 0.436000 0.917000 -0.047000
v 0.032000 0.920000 -0.047000
v 0.436000 0.920000 -0.047000
v 0.436000 0.920000 -0.061000
v 0.032000 0.920000 -0.061000
v 0.032000 0.917000 -0.133000
v 0.032000 0.917000 -0.147000
v 0.436000 0.917000 -0.147000
v 0.436000 0.917000 -0.133000
v 0.032000 0.920000 -0.133000
v 0.436000 0.920000 -0.133000
v 0.436000 0.920000 -0.147000
v 0.032000 0.920000 -0.147000
v -0.232021 0.910000 -0.270021
v -0.220000 0.910000 -0.275000
v -0.207979 0.910000 -0.270021
v -0.203000 0.910000 -0.258000
v -0.207979 0.910000 -0.245979
v -0.220000 0.910000 -0.241000
v -0.232021 0.910000 -0.245979
v -0.237000 0.910000 -0.258000
v -0.237000 1.056000 -0.258000
v -0.232021 1.056000 -0.245979
v -0.220000 1.056000 -0.241000
v -0.207979 1.056000 -0.245979
v -0.203000 1.056000 -0.258000
v -0.207979 1.056000 -0.270021
v -0.220000 1.056000 -0.275000
v -0.232021 1.056000 -0.270021
v -0.229899 1.059899 -0.262000
v -0.220000 1.064000 -0.262000
v -0.210101 1.059899 -0.262000
v -0.206000 1.050000 -0.262000
v -0.210101 1.040100 -0.262000
v -0.220000 1.036000 -0.262000
v -0.229899 1.040100 -0.262000
v -0.234000 1.050000 -0.262000
v -0.234000 1.050000 -0.042000
v -0.229899 1.040100 -0.042000
v -0.220000 1.036000 -0.042000
v -0.210101 1.040100 -0.042000
v -0.206000 1.050000 -0.042000
v -0.210101 1.059899 -0.042000
v -0.220000 1.064000 -0.042000
v -0.229899 1.059899 -0.042000
v -0.211515 1.056000 -0.052485
v -0.220000 1.056000 -0.056000
v -0.228485 1.056000 -0.052485
v -0.232000 1.056000 -0.044000
v -0.228485 1.056000 -0.035515
v -0.220000 1.056000 -0.032000
v -0.211515 1.056000 -0.035515
v -0.208000 1.056000 -0.044000
v -0.208000 0.992000 -0.044000
v -0.211515 0.992000 -0.035515
v -0.220000 0.992000 -0.032000
v -0.228485 0.992000 -0.035515
v -0.232000 0.992000 -0.044000
v -0.228485 0.992000 -0.052485
v -0.220000 0.992000 -0.056000
v -0.211515 0.992000 -0.052485
v -0.233000 1.056000 -0.200000
v -0.233000 1.056000 -0.264000
v -0.207000 1.056000 -0.264000
v -0.207000 1.056000 -0.200000
v -0.233000 1.070000 -0.200000
v -0.207000 1.070000 -0.200000
v -0.207000 1.070000 -0.264000
v -0.233000 1.070000 -0.264000
vn -0.0000 -1.0000 -0.0000
vn -0.0000 1.0000 -0.0000
vn -0.0000 -0.0000 1.0000
vn -0.0000 -0.0000 -1.0000
vn -1.0000 -0.0000 -0.0000
vn 1.0000 -0.0000 -0.0000
vn -0.0000 -0.7034 0.7108
vn 0.9898 -0.1422 -0.0000
vn -0.0000 -0.7034 -0.7108
vn -0.9898 -0.1422 -0.0000
vn -0.0000 0.7034 0.7108
vn 0.9898 0.1422 -0.0000
vn -0.0000 0.7034 -0.7108
vn -0.9898 0.1422 -0.0000
vn -0.0000 -0.6051 0.7961
vn 0.8385 -0.5449 -0.0000
vn -0.0000 -0.6051 -0.7961
vn -0.8385 -0.5449 -0.0000
vn -0.0000 0.6051 0.7961
vn 0.8385 0.5449 -0.0000
vn -0.0000 0.6051 -0.7961
vn -0.8385 0.5449 -0.0000
vn -0.0000 -0.2953 0.9554
vn 0.7246 -0.6891 -0.0000
vn -0.0000 -0.2953 -0.9554
vn -0.7246 -0.6891 -0.0000
vn -0.0000 0.2953 0.9554
vn 0.7246 0.6891 -0.0000
vn -0.0000 0.2953 -0.9554
vn -0.7246 0.6891 -0.0000
vn -0.0000 -0.2762 0.9611
vn 0.7222 -0.6917 -0.0000
vn -0.0000 -0.2762 -0.9611
vn -0.7222 -0.6917 -0.0000
vn -0.0000 0.2762 0.9611
vn 0.7222 0.6917 -0.0000
vn -0.0000 0.2762 -0.9611
vn -0.7222 0.6917 -0.0000
vn -0.0000 0.1504 -0.9886
vn -0.9870 0.1609 -0.0000
vn -0.0000 0.1504 0.9886
vn 0.9870 0.1609 -0.0000
vn -0.9239 -0.0000 0.3827
vn -0.3827 -0.0000 0.9239
vn 0.3827 -0.0000 0.9239
vn 0.9239 -0.0000 0.3827
vn 0.9239 -0.0000 -0.3827
vn 0.3827 -0.0000 -0.9239
vn -0.3827 -0.0000 -0.9239
vn -0.9239 -0.0000 -0.3827
vn -0.9239 -0.3827 -0.0000
vn -0.3827 -0.9239 -0.0000
vn 0.3827 -0.9239 -0.0000
vn 0.9239 -0.3827 -0.0000
vn 0.9239 0.3827 -0.0000
vn 0.3827 0.9239 -0.0000
vn -0.3827 0.9239 -0.0000
vn -0.9239 0.3827 -0.0000
vt 0.687500 0.312500
vt 0.437500 0.812500
vt 0.812500 0.812500
vt 0.437500 0.312500
vt 0.062500 0.312500
vt 0.937500 0.312500
vt 0.187500 0.312500
s 0
usemtl FN_Atlas
f 1/1/1 2/1/1 3/1/1 4/1/1
f 5/1/2 6/1/2 7/1/2 8/1/2
f 1/1/3 4/1/3 6/1/3 5/1/3
f 3/1/4 2/1/4 8/1/4 7/1/4
f 1/1/5 5/1/5 8/1/5 2/1/5
f 4/1/6 3/1/6 7/1/6 6/1/6
f 9/2/1 10/2/1 11/2/1 12/2/1
f 13/2/2 14/2/2 15/2/2 16/2/2
f 9/1/3 12/1/3 14/1/3 13/1/3
f 11/2/4 10/2/4 16/2/4 15/2/4
f 9/2/5 13/2/5 16/2/5 10/2/5
f 12/2/6 11/2/6 15/2/6 14/2/6
f 17/2/1 18/2/1 19/2/1 20/2/1
f 21/2/2 22/2/2 23/2/2 24/2/2
f 17/1/3 20/1/3 22/1/3 21/1/3
f 19/2/4 18/2/4 24/2/4 23/2/4
f 17/2/5 21/2/5 24/2/5 18/2/5
f 20/2/6 19/2/6 23/2/6 22/2/6
f 25/2/1 26/2/1 27/2/1 28/2/1
f 29/2/2 30/2/2 31/2/2 32/2/2
f 25/1/3 28/1/3 30/1/3 29/1/3
f 27/2/4 26/2/4 32/2/4 31/2/4
f 25/2/5 29/2/5 32/2/5 26/2/5
f 28/2/6 27/2/6 31/2/6 30/2/6
f 17/2/1 26/2/1 33/2/1 34/2/1
f 21/2/2 35/2/2 36/2/2 32/2/2
f 17/1/3 34/1/3 35/1/3 21/1/3
f 33/2/4 26/2/4 32/2/4 36/2/4
f 17/2/5 21/2/5 32/2/5 26/2/5
f 34/2/6 33/2/6 36/2/6 35/2/6
f 37/2/1 38/2/1 27/2/1 20/2/1
f 39/2/2 22/2/2 31/2/2 40/2/2
f 37/1/3 20/1/3 22/1/3 39/1/3
f 27/2/4 38/2/4 40/2/4 31/2/4
f 37/2/5 39/2/5 40/2/5 38/2/5
f 20/2/6 27/2/6 31/2/6 22/2/6
f 41/1/1 42/1/1 43/1/1 44/1/1
f 45/1/2 46/1/2 47/1/2 48/1/2
f 41/1/3 44/1/3 46/1/3 45/1/3
f 43/1/4 42/1/4 48/1/4 47/1/4
f 41/1/5 45/1/5 48/1/5 42/1/5
f 44/1/6 43/1/6 47/1/6 46/1/6
f 49/3/1 50/3/1 51/3/1 52/3/1
f 53/3/2 54/3/2 55/3/2 56/3/2
f 49/3/3 52/3/3 54/3/3 53/3/3
f 51/3/4 50/3/4 56/3/4 55/3/4
f 49/3/5 53/3/5 56/3/5 50/3/5
f 52/3/6 51/3/6 55/3/6 54/3/6
f 57/3/1 58/3/1 59/3/1 60/3/1
f 61/3/2 62/3/2 63/3/2 64/3/2
f 57/3/3 60/3/3 62/3/3 61/3/3
f 59/3/4 58/3/4 64/3/4 63/3/4
f 57/3/5 61/3/5 64/3/5 58/3/5
f 60/3/6 59/3/6 63/3/6 62/3/6
f 65/3/1 66/3/1 67/3/1 68/3/1
f 69/3/2 70/3/2 71/3/2 72/3/2
f 65/3/3 68/3/3 70/3/3 69/3/3
f 67/3/4 66/3/4 72/3/4 71/3/4
f 65/3/5 69/3/5 72/3/5 66/3/5
f 68/3/6 67/3/6 71/3/6 70/3/6
f 61/3/1 64/3/1 73/3/1 74/3/1
f 65/3/2 75/3/2 76/3/2 66/3/2
f 61/3/3 74/3/3 75/3/3 65/3/3
f 73/3/4 64/3/4 66/3/4 76/3/4
f 61/3/5 65/3/5 66/3/5 64/3/5
f 74/3/6 73/3/6 76/3/6 75/3/6
f 77/3/1 78/3/1 63/3/1 62/3/1
f 79/3/2 68/3/2 67/3/2 80/3/2
f 77/3/3 62/3/3 68/3/3 79/3/3
f 63/3/4 78/3/4 80/3/4 67/3/4
f 77/3/5 79/3/5 80/3/5 78/3/5
f 62/3/6 63/3/6 67/3/6 68/3/6
f 81/4/1 82/4/1 83/4/1 84/4/1
f 85/4/2 86/4/2 87/4/2 88/4/2
f 81/4/3 84/4/3 86/4/3 85/4/3
f 83/4/4 82/4/4 88/4/4 87/4/4
f 81/4/5 85/4/5 88/4/5 82/4/5
f 84/4/6 83/4/6 87/4/6 86/4/6
f 89/4/1 90/4/1 91/4/1 92/4/1
f 93/4/2 94/4/2 95/4/2 96/4/2
f 89/4/3 92/4/3 94/4/3 93/4/3
f 91/4/4 90/4/4 96/4/4 95/4/4
f 89/4/5 93/4/5 96/4/5 90/4/5
f 92/4/6 91/4/6 95/4/6 94/4/6
f 97/4/1 98/4/1 99/4/1 100/4/1
f 101/4/2 102/4/2 103/4/2 104/4/2
f 97/4/3 100/4/3 102/4/3 101/4/3
f 99/4/4 98/4/4 104/4/4 103/4/4
f 97/4/5 101/4/5 104/4/5 98/4/5
f 100/4/6 99/4/6 103/4/6 102/4/6
f 105/3/1 106/3/1 107/3/1 108/3/1
f 109/3/2 110/3/2 111/3/2 112/3/2
f 105/3/3 108/3/3 110/3/3 109/3/3
f 107/3/4 106/3/4 112/3/4 111/3/4
f 105/3/5 109/3/5 112/3/5 106/3/5
f 108/3/6 107/3/6 111/3/6 110/3/6
f 113/3/1 114/3/1 115/3/1 116/3/1
f 117/3/2 118/3/2 119/3/2 120/3/2
f 113/3/3 116/3/3 118/3/3 117/3/3
f 115/3/4 114/3/4 120/3/4 119/3/4
f 113/3/5 117/3/5 120/3/5 114/3/5
f 116/3/6 115/3/6 119/3/6 118/3/6
f 121/3/1 122/3/1 123/3/1 124/3/1
f 125/3/2 126/3/2 127/3/2 128/3/2
f 121/3/3 124/3/3 126/3/3 125/3/3
f 123/3/4 122/3/4 128/3/4 127/3/4
f 121/3/5 125/3/5 128/3/5 122/3/5
f 124/3/6 123/3/6 127/3/6 126/3/6
f 117/3/1 120/3/1 129/3/1 130/3/1
f 121/3/2 131/3/2 132/3/2 122/3/2
f 117/3/3 130/3/3 131/3/3 121/3/3
f 129/3/4 120/3/4 122/3/4 132/3/4
f 117/3/5 121/3/5 122/3/5 120/3/5
f 130/3/6 129/3/6 132/3/6 131/3/6
f 133/3/1 134/3/1 119/3/1 118/3/1
f 135/3/2 124/3/2 123/3/2 136/3/2
f 133/3/3 118/3/3 124/3/3 135/3/3
f 119/3/4 134/3/4 136/3/4 123/3/4
f 133/3/5 135/3/5 136/3/5 134/3/5
f 118/3/6 119/3/6 123/3/6 124/3/6
f 137/4/1 138/4/1 139/4/1 140/4/1
f 141/4/2 142/4/2 143/4/2 144/4/2
f 137/4/3 140/4/3 142/4/3 141/4/3
f 139/4/4 138/4/4 144/4/4 143/4/4
f 137/4/5 141/4/5 144/4/5 138/4/5
f 140/4/6 139/4/6 143/4/6 142/4/6
f 145/4/1 146/4/1 147/4/1 148/4/1
f 149/4/2 150/4/2 151/4/2 152/4/2
f 145/4/3 148/4/3 150/4/3 149/4/3
f 147/4/4 146/4/4 152/4/4 151/4/4
f 145/4/5 149/4/5 152/4/5 146/4/5
f 148/4/6 147/4/6 151/4/6 150/4/6
f 153/4/1 154/4/1 155/4/1 156/4/1
f 157/4/2 158/4/2 159/4/2 160/4/2
f 153/4/3 156/4/3 158/4/3 157/4/3
f 155/4/4 154/4/4 160/4/4 159/4/4
f 153/4/5 157/4/5 160/4/5 154/4/5
f 156/4/6 155/4/6 159/4/6 158/4/6
f 161/5/1 162/5/1 163/5/1 164/5/1
f 164/5/7 163/5/7 165/5/7 166/5/7
f 163/5/8 162/5/8 167/5/8 165/5/8
f 162/5/9 161/5/9 168/5/9 167/5/9
f 161/5/10 164/5/10 166/5/10 168/5/10
f 166/5/3 165/5/3 169/5/3 170/5/3
f 165/5/6 167/5/6 171/5/6 169/5/6
f 167/5/4 168/5/4 172/5/4 171/5/4
f 168/5/5 166/5/5 170/5/5 172/5/5
f 173/5/2 174/5/2 175/5/2 176/5/2
f 170/5/11 169/5/11 174/5/11 173/5/11
f 169/5/12 171/5/12 175/5/12 174/5/12
f 171/5/13 172/5/13 176/5/13 175/5/13
f 172/5/14 170/5/14 173/5/14 176/5/14
f 177/5/1 178/5/1 179/5/1 180/5/1
f 180/5/15 179/5/15 181/5/15 182/5/15
f 179/5/16 178/5/16 183/5/16 181/5/16
f 178/5/17 177/5/17 184/5/17 183/5/17
f 177/5/18 180/5/18 182/5/18 184/5/18
f 182/5/3 181/5/3 185/5/3 186/5/3
f 181/5/6 183/5/6 187/5/6 185/5/6
f 183/5/4 184/5/4 188/5/4 187/5/4
f 184/5/5 182/5/5 186/5/5 188/5/5
f 189/5/2 190/5/2 191/5/2 192/5/2
f 186/5/19 185/5/19 190/5/19 189/5/19
f 185/5/20 187/5/20 191/5/20 190/5/20
f 187/5/21 188/5/21 192/5/21 191/5/21
f 188/5/22 186/5/22 189/5/22 192/5/22
f 193/5/1 194/5/1 195/5/1 196/5/1
f 196/5/23 195/5/23 182/5/23 165/5/23
f 195/5/24 194/5/24 197/5/24 182/5/24
f 194/5/25 193/5/25 198/5/25 197/5/25
f 193/5/26 196/5/26 165/5/26 198/5/26
f 165/5/3 182/5/3 186/5/3 169/5/3
f 182/5/6 197/5/6 199/5/6 186/5/6
f 197/5/4 198/5/4 200/5/4 199/5/4
f 198/5/5 165/5/5 169/5/5 200/5/5
f 201/5/2 202/5/2 203/5/2 204/5/2
f 169/5/27 186/5/27 202/5/27 201/5/27
f 186/5/28 199/5/28 203/5/28 202/5/28
f 199/5/29 200/5/29 204/5/29 203/5/29
f 200/5/30 169/5/30 201/5/30 204/5/30
f 205/5/1 206/5/1 207/5/1 208/5/1
f 208/5/31 207/5/31 209/5/31 210/5/31
f 207/5/32 206/5/32 184/5/32 209/5/32
f 206/5/33 205/5/33 167/5/33 184/5/33
f 205/5/34 208/5/34 210/5/34 167/5/34
f 210/5/3 209/5/3 211/5/3 212/5/3
f 209/5/6 184/5/6 188/5/6 211/5/6
f 184/5/4 167/5/4 171/5/4 188/5/4
f 167/5/5 210/5/5 212/5/5 171/5/5
f 213/5/2 214/5/2 215/5/2 216/5/2
f 212/5/35 211/5/35 214/5/35 213/5/35
f 211/5/36 188/5/36 215/5/36 214/5/36
f 188/5/37 171/5/37 216/5/37 215/5/37
f 171/5/38 212/5/38 213/5/38 216/5/38
f 217/6/39 218/6/39 219/6/39 220/6/39
f 218/6/40 221/6/40 222/6/40 219/6/40
f 221/6/41 223/6/41 224/6/41 222/6/41
f 223/6/42 217/6/42 220/6/42 224/6/42
f 220/6/2 219/6/2 222/6/2 224/6/2
f 225/6/2 226/6/2 227/6/2 228/6/2
f 229/6/3 230/6/3 226/6/3 225/6/3
f 230/6/6 231/6/6 227/6/6 226/6/6
f 231/6/4 232/6/4 228/6/4 227/6/4
f 232/6/5 229/6/5 225/6/5 228/6/5
f 233/6/1 234/6/1 235/6/1 236/6/1
f 237/6/2 238/6/2 239/6/2 240/6/2
f 233/6/3 236/6/3 238/6/3 237/6/3
f 235/6/4 234/6/4 240/6/4 239/6/4
f 233/6/5 237/6/5 240/6/5 234/6/5
f 236/6/6 235/6/6 239/6/6 238/6/6
f 241/6/1 242/6/1 243/6/1 244/6/1
f 245/6/2 246/6/2 247/6/2 248/6/2
f 241/6/3 244/6/3 246/6/3 245/6/3
f 243/6/4 242/6/4 248/6/4 247/6/4
f 241/6/5 245/6/5 248/6/5 242/6/5
f 244/6/6 243/6/6 247/6/6 246/6/6
f 249/6/1 250/6/1 251/6/1 252/6/1
f 253/6/2 254/6/2 255/6/2 256/6/2
f 249/6/3 252/6/3 254/6/3 253/6/3
f 251/6/4 250/6/4 256/6/4 255/6/4
f 249/6/5 253/6/5 256/6/5 250/6/5
f 252/6/6 251/6/6 255/6/6 254/6/6
f 257/6/1 258/6/1 259/6/1 260/6/1
f 261/6/2 262/6/2 263/6/2 264/6/2
f 257/6/3 260/6/3 262/6/3 261/6/3
f 259/6/4 258/6/4 264/6/4 263/6/4
f 257/6/5 261/6/5 264/6/5 258/6/5
f 260/6/6 259/6/6 263/6/6 262/6/6
f 265/7/1 266/7/1 267/7/1 268/7/1 269/7/1 270/7/1 271/7/1 272/7/1
f 273/7/2 274/7/2 275/7/2 276/7/2 277/7/2 278/7/2 279/7/2 280/7/2
f 272/7/43 271/7/43 274/7/43 273/7/43
f 271/7/44 270/7/44 275/7/44 274/7/44
f 270/7/45 269/7/45 276/7/45 275/7/45
f 269/7/46 268/7/46 277/7/46 276/7/46
f 268/7/47 267/7/47 278/7/47 277/7/47
f 267/7/48 266/7/48 279/7/48 278/7/48
f 266/7/49 265/7/49 280/7/49 279/7/49
f 265/7/50 272/7/50 273/7/50 280/7/50
f 281/7/4 282/7/4 283/7/4 284/7/4 285/7/4 286/7/4 287/7/4 288/7/4
f 289/7/3 290/7/3 291/7/3 292/7/3 293/7/3 294/7/3 295/7/3 296/7/3
f 288/7/51 287/7/51 290/7/51 289/7/51
f 287/7/52 286/7/52 291/7/52 290/7/52
f 286/7/53 285/7/53 292/7/53 291/7/53
f 285/7/54 284/7/54 293/7/54 292/7/54
f 284/7/55 283/7/55 294/7/55 293/7/55
f 283/7/56 282/7/56 295/7/56 294/7/56
f 282/7/57 281/7/57 296/7/57 295/7/57
f 281/7/58 288/7/58 289/7/58 296/7/58
f 297/7/2 298/7/2 299/7/2 300/7/2 301/7/2 302/7/2 303/7/2 304/7/2
f 305/7/1 306/7/1 307/7/1 308/7/1 309/7/1 310/7/1 311/7/1 312/7/1
f 304/7/46 303/7/46 306/7/46 305/7/46
f 303/7/45 302/7/45 307/7/45 306/7/45
f 302/7/44 301/7/44 308/7/44 307/7/44
f 301/7/43 300/7/43 309/7/43 308/7/43
f 300/7/50 299/7/50 310/7/50 309/7/50
f 299/7/49 298/7/49 311/7/49 310/7/49
f 298/7/48 297/7/48 312/7/48 311/7/48
f 297/7/47 304/7/47 305/7/47 312/7/47
f 313/7/1 314/7/1 315/7/1 316/7/1
f 317/7/2 318/7/2 319/7/2 320/7/2
f 313/7/3 316/7/3 318/7/3 317/7/3
f 315/7/4 314/7/4 320/7/4 319/7/4
f 313/7/5 317/7/5 320/7/5 314/7/5
f 316/7/6 315/7/6 319/7/6 318/7/6
