# Blender 5.2.0 LTS
# www.blender.org
mtllib FN_Chair_Recliner.mtl
o FN_Chair_Recliner
v -0.430000 0.000000 0.175521
v -0.430000 0.000000 -0.484479
v 0.430000 0.000000 -0.484479
v 0.430000 0.000000 0.175521
v -0.430000 0.190000 0.175521
v 0.430000 0.190000 0.175521
v 0.430000 0.190000 -0.484479
v -0.430000 0.190000 -0.484479
v -0.450000 0.170000 0.225521
v -0.450000 0.170000 -0.514479
v -0.300000 0.170000 -0.514479
v -0.300000 0.170000 0.225521
v -0.450000 0.650000 0.225521
v -0.300000 0.650000 0.225521
v -0.300000 0.650000 -0.514479
v -0.450000 0.650000 -0.514479
v 0.300000 0.170000 0.225521
v 0.300000 0.170000 -0.514479
v 0.450000 0.170000 -0.514479
v 0.450000 0.170000 0.225521
v 0.300000 0.650000 0.225521
v 0.450000 0.650000 0.225521
v 0.450000 0.650000 -0.514479
v 0.300000 0.650000 -0.514479
v -0.296000 0.180000 0.225521
v -0.296000 0.180000 -0.494479
v 0.296000 0.180000 -0.494479
v 0.296000 0.180000 0.225521
v -0.296000 0.330000 0.225521
v 0.296000 0.330000 0.225521
v 0.296000 0.330000 -0.494479
v -0.296000 0.330000 -0.494479
v -0.296000 0.318000 -0.414479
v 0.296000 0.318000 -0.414479
v 0.296000 0.318000 0.225521
v -0.296000 0.318000 0.225521
v 0.296000 0.438000 0.225521
v -0.296000 0.438000 0.225521
v 0.296000 0.438000 -0.414479
v -0.296000 0.438000 -0.414479
v -0.284000 0.450000 0.213521
v 0.284000 0.450000 0.213521
v 0.284000 0.450000 -0.402479
v -0.284000 0.450000 -0.402479
v -0.296000 0.400000 -0.564479
v 0.296000 0.400000 -0.564479
v 0.296000 0.400000 -0.404479
v -0.296000 0.400000 -0.404479
v -0.296000 1.020000 -0.524479
v 0.296000 1.020000 -0.524479
v 0.296000 1.020000 -0.684479
v -0.296000 1.020000 -0.684479
v -0.268000 0.440000 -0.422221
v 0.268000 0.440000 -0.422221
v 0.268000 0.440000 -0.322221
v -0.268000 0.440000 -0.322221
v -0.268000 0.960000 -0.422867
v 0.268000 0.960000 -0.422867
v 0.268000 0.960000 -0.522866
v -0.268000 0.960000 -0.522866
v -0.290000 0.281507 0.184479
v -0.290000 0.361507 0.684479
v -0.290000 0.480000 0.665521
v -0.290000 0.400000 0.165521
v 0.290000 0.400000 0.165521
v 0.290000 0.480000 0.665521
v 0.290000 0.361507 0.684479
v 0.290000 0.281507 0.184479
v -0.444000 0.642000 0.219521
v -0.444000 0.642000 -0.508479
v -0.306000 0.642000 -0.508479
v -0.306000 0.642000 0.219521
v -0.444000 0.662000 0.219521
v -0.306000 0.662000 0.219521
v -0.306000 0.662000 -0.508479
v -0.444000 0.662000 -0.508479
v 0.306000 0.642000 0.219521
v 0.306000 0.642000 -0.508479
v 0.444000 0.642000 -0.508479
v 0.444000 0.642000 0.219521
v 0.306000 0.662000 0.219521
v 0.444000 0.662000 0.219521
v 0.444000 0.662000 -0.508479
v 0.306000 0.662000 -0.508479
v -0.290000 0.420000 0.235521
v -0.290000 0.420000 0.215521
v 0.290000 0.420000 0.215521
v 0.290000 0.420000 0.235521
v -0.290000 0.440000 0.235521
v 0.290000 0.440000 0.235521
v 0.290000 0.440000 0.215521
v -0.290000 0.440000 0.215521
v -0.290000 0.310000 0.235521
v -0.290000 0.310000 0.215521
v 0.290000 0.310000 0.215521
v 0.290000 0.310000 0.235521
v -0.290000 0.330000 0.235521
v 0.290000 0.330000 0.235521
v 0.290000 0.330000 0.215521
v -0.290000 0.330000 0.215521
vn -0.0000 -1.0000 -0.0000
vn -0.0000 1.0000 -0.0000
vn -0.0000 -0.0000 1.0000
vn -0.0000 -0.0000 -1.0000
vn -1.0000 -0.0000 -0.0000
vn 1.0000 -0.0000 -0.0000
vn -0.0000 0.7071 0.7071
vn 0.7071 0.7071 -0.0000
vn -0.0000 0.7071 -0.7071
vn -0.7071 0.7071 -0.0000
vn -0.0000 0.1900 0.9818
vn -0.0000 -0.1900 -0.9818
vn -0.0000 0.9874 -0.1580
vn -0.0000 0.1580 0.9874
vn -0.0000 -0.9874 0.1580
vn -0.0000 -0.1580 -0.9874
vt 0.812500 0.312500
vt 0.187500 0.437500
vt 0.062500 0.687500
s 0
usemtl FN_Atlas
f 1/1/1 2/1/1 3/1/1 4/1/1
f 5/1/2 6/1/2 7/1/2 8/1/2
f 1/1/3 4/1/3 6/1/3 5/1/3
f 3/1/4 2/1/4 8/1/4 7/1/4
f 1/1/5 5/1/5 8/1/5 2/1/5
f 4/1/6 3/1/6 7/1/6 6/1/6
f 9/2/1 10/2/1 11/2/1 12/2/1
f 13/2/2 14/2/2 15/2/2 16/2/2
f 9/2/3 12/2/3 14/2/3 13/2/3
f 11/2/4 10/2/4 16/2/4 15/2/4
f 9/2/5 13/2/5 16/2/5 10/2/5
f 12/2/6 11/2/6 15/2/6 14/2/6
f 17/2/1 18/2/1 19/2/1 20/2/1
f 21/2/2 22/2/2 23/2/2 24/2/2
f 17/2/3 20/2/3 22/2/3 21/2/3
f 19/2/4 18/2/4 24/2/4 23/2/4
f 17/2/5 21/2/5 24/2/5 18/2/5
f 20/2/6 19/2/6 23/2/6 22/2/6
f 25/2/1 26/2/1 27/2/1 28/2/1
f 29/2/2 30/2/2 31/2/2 32/2/2
f 25/2/3 28/2/3 30/2/3 29/2/3
f 27/2/4 26/2/4 32/2/4 31/2/4
f 25/2/5 29/2/5 32/2/5 26/2/5
f 28/2/6 27/2/6 31/2/6 30/2/6
f 33/2/1 34/2/1 35/2/1 36/2/1
f 36/2/3 35/2/3 37/2/3 38/2/3
f 35/2/6 34/2/6 39/2/6 37/2/6
f 34/2/4 33/2/4 40/2/4 39/2/4
f 33/2/5 36/2/5 38/2/5 40/2/5
f 41/2/2 42/2/2 43/2/2 44/2/2
f 38/2/7 37/2/7 42/2/7 41/2/7
f 37/2/8 39/2/8 43/2/8 42/2/8
f 39/2/9 40/2/9 44/2/9 43/2/9
f 40/2/10 38/2/10 41/2/10 44/2/10
f 45/2/1 46/2/1 47/2/1 48/2/1
f 49/2/2 50/2/2 51/2/2 52/2/2
f 48/2/11 47/2/11 50/2/11 49/2/11
f 47/2/6 46/2/6 51/2/6 50/2/6
f 46/2/12 45/2/12 52/2/12 51/2/12
f 45/2/5 48/2/5 49/2/5 52/2/5
f 53/2/1 54/2/1 55/2/1 56/2/1
f 57/2/2 58/2/2 59/2/2 60/2/2
f 56/2/11 55/2/11 58/2/11 57/2/11
f 55/2/6 54/2/6 59/2/6 58/2/6
f 54/2/12 53/2/12 60/2/12 59/2/12
f 53/2/5 56/2/5 57/2/5 60/2/5
f 61/2/5 62/2/5 63/2/5 64/2/5
f 65/2/6 66/2/6 67/2/6 68/2/6
f 64/2/13 63/2/13 66/2/13 65/2/13
f 63/2/14 62/2/14 67/2/14 66/2/14
f 62/2/15 61/2/15 68/2/15 67/2/15
f 61/2/16 64/2/16 65/2/16 68/2/16
f 69/3/1 70/3/1 71/3/1 72/3/1
f 73/3/2 74/3/2 75/3/2 76/3/2
f 69/3/3 72/3/3 74/3/3 73/3/3
f 71/3/4 70/3/4 76/3/4 75/3/4
f 69/3/5 73/3/5 76/3/5 70/3/5
f 72/3/6 71/3/6 75/3/6 74/3/6
f 77/3/1 78/3/1 79/3/1 80/3/1
f 81/3/2 82/3/2 83/3/2 84/3/2
f 77/3/3 80/3/3 82/3/3 81/3/3
f 79/3/4 78/3/4 84/3/4 83/3/4
f 77/3/5 81/3/5 84/3/5 78/3/5
f 80/3/6 79/3/6 83/3/6 82/3/6
f 85/3/1 86/3/1 87/3/1 88/3/1
f 89/3/2 90/3/2 91/3/2 92/3/2
f 85/3/3 88/3/3 90/3/3 89/3/3
f 87/3/4 86/3/4 92/3/4 91/3/4
f 85/3/5 89/3/5 92/3/5 86/3/5
f 88/3/6 87/3/6 91/3/6 90/3/6
f 93/3/1 94/3/1 95/3/1 96/3/1
f 97/3/2 98/3/2 99/3/2 100/3/2
f 93/3/3 96/3/3 98/3/3 97/3/3
f 95/3/4 94/3/4 100/3/4 99/3/4
f 93/3/5 97/3/5 100/3/5 94/3/5
f 96/3/6 95/3/6 99/3/6 98/3/6
