# Blender 5.2.0 LTS
# www.blender.org
mtllib FN_Chair_Deck.mtl
o FN_Chair_Deck
v -0.237272 0.022193 0.206120
v -0.250000 0.024758 0.210726
v -0.262728 0.022193 0.206120
v -0.268000 0.016000 0.195000
v -0.262728 0.009807 0.183880
v -0.250000 0.007242 0.179274
v -0.237272 0.009807 0.183880
v -0.232000 0.016000 0.195000
v -0.232000 0.842000 -0.265000
v -0.237272 0.835807 -0.276120
v -0.250000 0.833242 -0.280726
v -0.262728 0.835807 -0.276120
v -0.268000 0.842000 -0.265000
v -0.262728 0.848193 -0.253880
v -0.250000 0.850758 -0.249274
v -0.237272 0.848193 -0.253880
v 0.262728 0.022193 0.206120
v 0.250000 0.024758 0.210726
v 0.237272 0.022193 0.206120
v 0.232000 0.016000 0.195000
v 0.237272 0.009807 0.183880
v 0.250000 0.007242 0.179274
v 0.262728 0.009807 0.183880
v 0.268000 0.016000 0.195000
v 0.268000 0.842000 -0.265000
v 0.262728 0.835807 -0.276120
v 0.250000 0.833242 -0.280726
v 0.237272 0.835807 -0.276120
v 0.232000 0.842000 -0.265000
v 0.237272 0.848193 -0.253880
v 0.250000 0.850758 -0.249274
v 0.262728 0.848193 -0.253880
v -0.250000 0.027314 0.206314
v -0.250000 0.032000 0.195000
v -0.250000 0.027314 0.183686
v -0.250000 0.016000 0.179000
v -0.250000 0.004686 0.183686
v -0.250000 0.000000 0.195000
v -0.250000 0.004686 0.206314
v -0.250000 0.016000 0.211000
v 0.250000 0.016000 0.211000
v 0.250000 0.004686 0.206314
v 0.250000 0.000000 0.195000
v 0.250000 0.004686 0.183686
v 0.250000 0.016000 0.179000
v 0.250000 0.027314 0.183686
v 0.250000 0.032000 0.195000
v 0.250000 0.027314 0.206314
v -0.250000 0.853314 -0.253686
v -0.250000 0.858000 -0.265000
v -0.250000 0.853314 -0.276314
v -0.250000 0.842000 -0.281000
v -0.250000 0.830686 -0.276314
v -0.250000 0.826000 -0.265000
v -0.250000 0.830686 -0.253686
v -0.250000 0.842000 -0.249000
v 0.250000 0.842000 -0.249000
v 0.250000 0.830686 -0.253686
v 0.250000 0.826000 -0.265000
v 0.250000 0.830686 -0.276314
v 0.250000 0.842000 -0.281000
v 0.250000 0.853314 -0.276314
v 0.250000 0.858000 -0.265000
v 0.250000 0.853314 -0.253686
v -0.224728 0.026755 -0.311806
v -0.212000 0.031210 -0.314625
v -0.199272 0.026755 -0.311806
v -0.194000 0.016000 -0.305000
v -0.199272 0.005245 -0.298194
v -0.212000 0.000790 -0.295375
v -0.224728 0.005245 -0.298194
v -0.230000 0.016000 -0.305000
v -0.230000 0.402000 0.305000
v -0.224728 0.391245 0.311806
v -0.212000 0.386790 0.314625
v -0.199272 0.391245 0.311806
v -0.194000 0.402000 0.305000
v -0.199272 0.412755 0.298194
v -0.212000 0.417210 0.295375
v -0.224728 0.412755 0.298194
v 0.199272 0.026755 -0.311806
v 0.212000 0.031210 -0.314625
v 0.224728 0.026755 -0.311806
v 0.230000 0.016000 -0.305000
v 0.224728 0.005245 -0.298194
v 0.212000 0.000790 -0.295375
v 0.199272 0.005245 -0.298194
v 0.194000 0.016000 -0.305000
v 0.194000 0.402000 0.305000
v 0.199272 0.391245 0.311806
v 0.212000 0.386790 0.314625
v 0.224728 0.391245 0.311806
v 0.230000 0.402000 0.305000
v 0.224728 0.412755 0.298194
v 0.212000 0.417210 0.295375
v 0.199272 0.412755 0.298194
v -0.212000 0.027314 -0.293686
v -0.212000 0.032000 -0.305000
v -0.212000 0.027314 -0.316314
v -0.212000 0.016000 -0.321000
v -0.212000 0.004686 -0.316314
v -0.212000 0.000000 -0.305000
v -0.212000 0.004686 -0.293686
v -0.212000 0.016000 -0.289000
v 0.212000 0.016000 -0.289000
v 0.212000 0.004686 -0.293686
v 0.212000 0.000000 -0.305000
v 0.212000 0.004686 -0.316314
v 0.212000 0.016000 -0.321000
v 0.212000 0.027314 -0.316314
v 0.212000 0.032000 -0.305000
v 0.212000 0.027314 -0.293686
v -0.212000 0.413314 0.316314
v -0.212000 0.418000 0.305000
v -0.212000 0.413314 0.293686
v -0.212000 0.402000 0.289000
v -0.212000 0.390686 0.293686
v -0.212000 0.386000 0.305000
v -0.212000 0.390686 0.316314
v -0.212000 0.402000 0.321000
v 0.212000 0.402000 0.321000
v 0.212000 0.390686 0.316314
v 0.212000 0.386000 0.305000
v 0.212000 0.390686 0.293686
v 0.212000 0.402000 0.289000
v 0.212000 0.413314 0.293686
v 0.212000 0.418000 0.305000
v 0.212000 0.413314 0.316314
v -0.236000 0.832000 -0.269000
v -0.141600 0.832000 -0.269000
v -0.141600 0.832000 -0.229000
v -0.236000 0.832000 -0.229000
v -0.236000 0.249950 0.084713
v -0.141600 0.249950 0.084713
v -0.141600 0.249950 0.044713
v -0.236000 0.249950 0.044713
v -0.047200 0.832000 -0.269000
v -0.047200 0.832000 -0.229000
v -0.047200 0.249950 0.084713
v -0.047200 0.249950 0.044713
v 0.047200 0.832000 -0.269000
v 0.047200 0.832000 -0.229000
v 0.047200 0.249950 0.084713
v 0.047200 0.249950 0.044713
v 0.141600 0.832000 -0.269000
v 0.141600 0.832000 -0.229000
v 0.141600 0.249950 0.084713
v 0.141600 0.249950 0.044713
v 0.236000 0.832000 -0.269000
v 0.236000 0.832000 -0.229000
v 0.236000 0.249950 0.084713
v 0.236000 0.249950 0.044713
v -0.200000 0.249950 0.044713
v -0.120000 0.249950 0.044713
v -0.120000 0.249950 0.084713
v -0.200000 0.249950 0.084713
v -0.200000 0.394000 0.311000
v -0.120000 0.394000 0.311000
v -0.120000 0.394000 0.271000
v -0.200000 0.394000 0.271000
v -0.040000 0.249950 0.044713
v -0.040000 0.249950 0.084713
v -0.040000 0.394000 0.311000
v -0.040000 0.394000 0.271000
v 0.040000 0.249950 0.044713
v 0.040000 0.249950 0.084713
v 0.040000 0.394000 0.311000
v 0.040000 0.394000 0.271000
v 0.120000 0.249950 0.044713
v 0.120000 0.249950 0.084713
v 0.120000 0.394000 0.311000
v 0.120000 0.394000 0.271000
v 0.200000 0.249950 0.044713
v 0.200000 0.249950 0.084713
v 0.200000 0.394000 0.311000
v 0.200000 0.394000 0.271000
vn -0.0000 -0.8737 0.4865
vn -0.0000 0.8737 -0.4865
vn 0.9239 -0.1862 -0.3343
vn 0.3827 -0.4495 -0.8072
vn -0.3827 -0.4495 -0.8072
vn -0.9239 -0.1862 -0.3343
vn -0.9239 0.1862 0.3343
vn -0.3827 0.4495 0.8072
vn 0.3827 0.4495 0.8072
vn 0.9239 0.1862 0.3343
vn -1.0000 -0.0000 -0.0000
vn 1.0000 -0.0000 -0.0000
vn -0.0000 -0.3827 0.9239
vn -0.0000 -0.9239 0.3827
vn -0.0000 -0.9239 -0.3827
vn -0.0000 -0.3827 -0.9239
vn -0.0000 0.3827 -0.9239
vn -0.0000 0.9239 -0.3827
vn -0.0000 0.9239 0.3827
vn -0.0000 0.3827 0.9239
vn -0.0000 -0.5347 -0.8450
vn -0.0000 0.5347 0.8450
vn -0.9239 -0.3234 0.2046
vn -0.3827 -0.7807 0.4940
vn 0.3827 -0.7807 0.4940
vn 0.9239 -0.3234 0.2046
vn 0.9239 0.3234 -0.2046
vn 0.3827 0.7807 -0.4940
vn -0.3827 0.7807 -0.4940
vn -0.9239 0.3234 -0.2046
vn -0.0000 -1.0000 -0.0000
vn -0.0000 1.0000 -0.0000
vn -0.0000 -0.4745 -0.8803
vn -0.0000 0.4745 0.8803
vn -0.0000 -0.8436 0.5370
vn -0.0000 0.8436 -0.5370
vt 0.312500 0.937500
vt 0.812500 0.562500
vt 0.062500 0.687500
s 0
usemtl FN_Atlas
f 1/1/1 2/1/1 3/1/1 4/1/1 5/1/1 6/1/1 7/1/1 8/1/1
f 9/1/2 10/1/2 11/1/2 12/1/2 13/1/2 14/1/2 15/1/2 16/1/2
f 8/1/3 7/1/3 10/1/3 9/1/3
f 7/1/4 6/1/4 11/1/4 10/1/4
f 6/1/5 5/1/5 12/1/5 11/1/5
f 5/1/6 4/1/6 13/1/6 12/1/6
f 4/1/7 3/1/7 14/1/7 13/1/7
f 3/1/8 2/1/8 15/1/8 14/1/8
f 2/1/9 1/1/9 16/1/9 15/1/9
f 1/1/10 8/1/10 9/1/10 16/1/10
f 17/1/1 18/1/1 19/1/1 20/1/1 21/1/1 22/1/1 23/1/1 24/1/1
f 25/1/2 26/1/2 27/1/2 28/1/2 29/1/2 30/1/2 31/1/2 32/1/2
f 24/1/3 23/1/3 26/1/3 25/1/3
f 23/1/4 22/1/4 27/1/4 26/1/4
f 22/1/5 21/1/5 28/1/5 27/1/5
f 21/1/6 20/1/6 29/1/6 28/1/6
f 20/1/7 19/1/7 30/1/7 29/1/7
f 19/1/8 18/1/8 31/1/8 30/1/8
f 18/1/9 17/1/9 32/1/9 31/1/9
f 17/1/10 24/1/10 25/1/10 32/1/10
f 33/1/11 34/1/11 35/1/11 36/1/11 37/1/11 38/1/11 39/1/11 40/1/11
f 41/1/12 42/1/12 43/1/12 44/1/12 45/1/12 46/1/12 47/1/12 48/1/12
f 40/1/13 39/1/13 42/1/13 41/1/13
f 39/1/14 38/1/14 43/1/14 42/1/14
f 38/1/15 37/1/15 44/1/15 43/1/15
f 37/1/16 36/1/16 45/1/16 44/1/16
f 36/1/17 35/1/17 46/1/17 45/1/17
f 35/1/18 34/1/18 47/1/18 46/1/18
f 34/1/19 33/1/19 48/1/19 47/1/19
f 33/1/20 40/1/20 41/1/20 48/1/20
f 49/1/11 50/1/11 51/1/11 52/1/11 53/1/11 54/1/11 55/1/11 56/1/11
f 57/1/12 58/1/12 59/1/12 60/1/12 61/1/12 62/1/12 63/1/12 64/1/12
f 56/1/13 55/1/13 58/1/13 57/1/13
f 55/1/14 54/1/14 59/1/14 58/1/14
f 54/1/15 53/1/15 60/1/15 59/1/15
f 53/1/16 52/1/16 61/1/16 60/1/16
f 52/1/17 51/1/17 62/1/17 61/1/17
f 51/1/18 50/1/18 63/1/18 62/1/18
f 50/1/19 49/1/19 64/1/19 63/1/19
f 49/1/20 56/1/20 57/1/20 64/1/20
f 65/1/21 66/1/21 67/1/21 68/1/21 69/1/21 70/1/21 71/1/21 72/1/21
f 73/1/22 74/1/22 75/1/22 76/1/22 77/1/22 78/1/22 79/1/22 80/1/22
f 72/1/23 71/1/23 74/1/23 73/1/23
f 71/1/24 70/1/24 75/1/24 74/1/24
f 70/1/25 69/1/25 76/1/25 75/1/25
f 69/1/26 68/1/26 77/1/26 76/1/26
f 68/1/27 67/1/27 78/1/27 77/1/27
f 67/1/28 66/1/28 79/1/28 78/1/28
f 66/1/29 65/1/29 80/1/29 79/1/29
f 65/1/30 72/1/30 73/1/30 80/1/30
f 81/1/21 82/1/21 83/1/21 84/1/21 85/1/21 86/1/21 87/1/21 88/1/21
f 89/1/22 90/1/22 91/1/22 92/1/22 93/1/22 94/1/22 95/1/22 96/1/22
f 88/1/23 87/1/23 90/1/23 89/1/23
f 87/1/24 86/1/24 91/1/24 90/1/24
f 86/1/25 85/1/25 92/1/25 91/1/25
f 85/1/26 84/1/26 93/1/26 92/1/26
f 84/1/27 83/1/27 94/1/27 93/1/27
f 83/1/28 82/1/28 95/1/28 94/1/28
f 82/1/29 81/1/29 96/1/29 95/1/29
f 81/1/30 88/1/30 89/1/30 96/1/30
f 97/1/11 98/1/11 99/1/11 100/1/11 101/1/11 102/1/11 103/1/11 104/1/11
f 105/1/12 106/1/12 107/1/12 108/1/12 109/1/12 110/1/12 111/1/12 112/1/12
f 104/1/13 103/1/13 106/1/13 105/1/13
f 103/1/14 102/1/14 107/1/14 106/1/14
f 102/1/15 101/1/15 108/1/15 107/1/15
f 101/1/16 100/1/16 109/1/16 108/1/16
f 100/1/17 99/1/17 110/1/17 109/1/17
f 99/1/18 98/1/18 111/1/18 110/1/18
f 98/1/19 97/1/19 112/1/19 111/1/19
f 97/1/20 104/1/20 105/1/20 112/1/20
f 113/1/11 114/1/11 115/1/11 116/1/11 117/1/11 118/1/11 119/1/11 120/1/11
f 121/1/12 122/1/12 123/1/12 124/1/12 125/1/12 126/1/12 127/1/12 128/1/12
f 120/1/13 119/1/13 122/1/13 121/1/13
f 119/1/14 118/1/14 123/1/14 122/1/14
f 118/1/15 117/1/15 124/1/15 123/1/15
f 117/1/16 116/1/16 125/1/16 124/1/16
f 116/1/17 115/1/17 126/1/17 125/1/17
f 115/1/18 114/1/18 127/1/18 126/1/18
f 114/1/19 113/1/19 128/1/19 127/1/19
f 113/1/20 120/1/20 121/1/20 128/1/20
f 129/2/31 130/2/31 131/2/31 132/2/31
f 133/2/32 134/2/32 135/2/32 136/2/32
f 132/2/33 131/2/33 134/2/33 133/2/33
f 131/2/11 130/2/11 135/2/11 134/2/11
f 130/2/34 129/2/34 136/2/34 135/2/34
f 129/2/12 132/2/12 133/2/12 136/2/12
f 130/3/31 137/3/31 138/3/31 131/3/31
f 134/3/32 139/3/32 140/3/32 135/3/32
f 131/3/33 138/3/33 139/3/33 134/3/33
f 138/3/11 137/3/11 140/3/11 139/3/11
f 137/3/34 130/3/34 135/3/34 140/3/34
f 137/2/31 141/2/31 142/2/31 138/2/31
f 139/2/32 143/2/32 144/2/32 140/2/32
f 138/2/33 142/2/33 143/2/33 139/2/33
f 142/2/11 141/2/11 144/2/11 143/2/11
f 141/2/34 137/2/34 140/2/34 144/2/34
f 141/3/31 145/3/31 146/3/31 142/3/31
f 143/3/32 147/3/32 148/3/32 144/3/32
f 142/3/33 146/3/33 147/3/33 143/3/33
f 146/3/11 145/3/11 148/3/11 147/3/11
f 145/3/34 141/3/34 144/3/34 148/3/34
f 145/2/31 149/2/31 150/2/31 146/2/31
f 147/2/32 151/2/32 152/2/32 148/2/32
f 146/2/33 150/2/33 151/2/33 147/2/33
f 150/2/11 149/2/11 152/2/11 151/2/11
f 149/2/34 145/2/34 148/2/34 152/2/34
f 153/2/31 154/2/31 155/2/31 156/2/31
f 157/2/32 158/2/32 159/2/32 160/2/32
f 156/2/35 155/2/35 158/2/35 157/2/35
f 155/2/12 154/2/12 159/2/12 158/2/12
f 154/2/36 153/2/36 160/2/36 159/2/36
f 153/2/11 156/2/11 157/2/11 160/2/11
f 154/3/31 161/3/31 162/3/31 155/3/31
f 158/3/32 163/3/32 164/3/32 159/3/32
f 155/3/35 162/3/35 163/3/35 158/3/35
f 162/3/12 161/3/12 164/3/12 163/3/12
f 161/3/36 154/3/36 159/3/36 164/3/36
f 161/2/31 165/2/31 166/2/31 162/2/31
f 163/2/32 167/2/32 168/2/32 164/2/32
f 162/2/35 166/2/35 167/2/35 163/2/35
f 166/2/12 165/2/12 168/2/12 167/2/12
f 165/2/36 161/2/36 164/2/36 168/2/36
f 165/3/31 169/3/31 170/3/31 166/3/31
f 167/3/32 171/3/32 172/3/32 168/3/32
f 166/3/35 170/3/35 171/3/35 167/3/35
f 170/3/12 169/3/12 172/3/12 171/3/12
f 169/3/36 165/3/36 168/3/36 172/3/36
f 169/2/31 173/2/31 174/2/31 170/2/31
f 171/2/32 175/2/32 176/2/32 172/2/32
f 170/2/35 174/2/35 175/2/35 171/2/35
f 174/2/12 173/2/12 176/2/12 175/2/12
f 173/2/36 169/2/36 172/2/36 176/2/36
