# Blender 5.2.0 LTS
# www.blender.org
mtllib FN_Chair_Armchair.mtl
o FN_Chair_Armchair
v -0.329000 0.000000 0.320000
v -0.291000 0.000000 0.320000
v -0.291000 0.000000 0.358000
v -0.329000 0.000000 0.358000
v -0.338000 0.148000 0.367000
v -0.282000 0.148000 0.367000
v -0.282000 0.148000 0.311000
v -0.338000 0.148000 0.311000
v -0.329000 0.000000 -0.316000
v -0.291000 0.000000 -0.316000
v -0.291000 0.000000 -0.278000
v -0.329000 0.000000 -0.278000
v -0.338000 0.148000 -0.269000
v -0.282000 0.148000 -0.269000
v -0.282000 0.148000 -0.325000
v -0.338000 0.148000 -0.325000
v 0.291000 0.000000 0.320000
v 0.329000 0.000000 0.320000
v 0.329000 0.000000 0.358000
v 0.291000 0.000000 0.358000
v 0.282000 0.148000 0.367000
v 0.338000 0.148000 0.367000
v 0.338000 0.148000 0.311000
v 0.282000 0.148000 0.311000
v 0.291000 0.000000 -0.316000
v 0.329000 0.000000 -0.316000
v 0.329000 0.000000 -0.278000
v 0.291000 0.000000 -0.278000
v 0.282000 0.148000 -0.269000
v 0.338000 0.148000 -0.269000
v 0.338000 0.148000 -0.325000
v 0.282000 0.148000 -0.325000
v -0.310146 0.148000 0.408682
v -0.344068 0.148000 0.399593
v -0.368901 0.148000 0.374760
v -0.377990 0.148000 0.340838
v -0.377990 0.148000 -0.298838
v -0.368901 0.148000 -0.332760
v -0.344068 0.148000 -0.357593
v -0.310146 0.148000 -0.366682
v 0.310146 0.148000 -0.366682
v 0.344068 0.148000 -0.357593
v 0.368901 0.148000 -0.332760
v 0.377990 0.148000 -0.298838
v 0.377990 0.148000 0.340838
v 0.368901 0.148000 0.374760
v 0.344068 0.148000 0.399593
v 0.310146 0.148000 0.408682
v 0.355000 0.168000 0.411622
v 0.320000 0.168000 0.421000
v 0.380622 0.168000 0.386000
v 0.390000 0.168000 0.351000
v 0.390000 0.168000 -0.309000
v 0.380622 0.168000 -0.344000
v 0.355000 0.168000 -0.369622
v 0.320000 0.168000 -0.379000
v -0.320000 0.168000 -0.379000
v -0.355000 0.168000 -0.369622
v -0.380622 0.168000 -0.344000
v -0.390000 0.168000 -0.309000
v -0.390000 0.168000 0.351000
v -0.380622 0.168000 0.386000
v -0.355000 0.168000 0.411622
v -0.320000 0.168000 0.421000
v 0.355000 0.348000 0.411622
v 0.320000 0.348000 0.421000
v 0.380622 0.348000 0.386000
v 0.390000 0.348000 0.351000
v 0.390000 0.348000 -0.309000
v 0.380622 0.348000 -0.344000
v 0.355000 0.348000 -0.369622
v 0.320000 0.348000 -0.379000
v -0.320000 0.348000 -0.379000
v -0.355000 0.348000 -0.369622
v -0.380622 0.348000 -0.344000
v -0.390000 0.348000 -0.309000
v -0.390000 0.348000 0.351000
v -0.380622 0.348000 0.386000
v -0.355000 0.348000 0.411622
v -0.320000 0.348000 0.421000
v 0.320000 0.356000 0.421000
v 0.355000 0.356000 0.411622
v 0.380622 0.356000 0.386000
v 0.390000 0.356000 0.351000
v 0.390000 0.356000 -0.309000
v 0.380622 0.356000 -0.344000
v 0.355000 0.356000 -0.369622
v 0.320000 0.356000 -0.379000
v -0.320000 0.356000 -0.379000
v -0.355000 0.356000 -0.369622
v -0.380622 0.356000 -0.344000
v -0.390000 0.356000 -0.309000
v -0.390000 0.356000 0.351000
v -0.380622 0.356000 0.386000
v -0.355000 0.356000 0.411622
v -0.320000 0.356000 0.421000
v -0.318000 0.326000 0.412000
v -0.290000 0.326000 0.404497
v -0.290000 0.586000 0.404497
v -0.318000 0.586000 0.412000
v -0.269503 0.326000 0.384000
v -0.269503 0.586000 0.384000
v -0.262000 0.326000 0.356000
v -0.262000 0.586000 0.356000
v -0.262000 0.326000 -0.302000
v -0.262000 0.586000 -0.302000
v -0.269503 0.326000 -0.330000
v -0.269503 0.586000 -0.330000
v -0.290000 0.326000 -0.350497
v -0.290000 0.586000 -0.350497
v -0.318000 0.326000 -0.358000
v -0.318000 0.586000 -0.358000
v -0.334000 0.326000 -0.358000
v -0.334000 0.586000 -0.358000
v -0.362000 0.326000 -0.350497
v -0.362000 0.586000 -0.350497
v -0.382497 0.326000 -0.330000
v -0.382497 0.586000 -0.330000
v -0.390000 0.326000 -0.302000
v -0.390000 0.586000 -0.302000
v -0.390000 0.326000 0.356000
v -0.390000 0.586000 0.356000
v -0.382497 0.326000 0.384000
v -0.382497 0.586000 0.384000
v -0.362000 0.326000 0.404497
v -0.362000 0.586000 0.404497
v -0.334000 0.326000 0.412000
v -0.334000 0.586000 0.412000
v -0.318657 0.628000 0.380376
v -0.292957 0.628000 0.373489
v -0.274143 0.628000 0.354676
v -0.267257 0.628000 0.328976
v -0.267257 0.628000 -0.274976
v -0.274143 0.628000 -0.300676
v -0.292957 0.628000 -0.319489
v -0.318657 0.628000 -0.326376
v -0.333343 0.628000 -0.326376
v -0.359043 0.628000 -0.319489
v -0.377857 0.628000 -0.300676
v -0.384743 0.628000 -0.274976
v -0.384743 0.628000 0.328976
v -0.377857 0.628000 0.354676
v -0.359043 0.628000 0.373489
v -0.333343 0.628000 0.380376
v 0.334000 0.326000 0.412000
v 0.362000 0.326000 0.404497
v 0.362000 0.586000 0.404497
v 0.334000 0.586000 0.412000
v 0.382497 0.326000 0.384000
v 0.382497 0.586000 0.384000
v 0.390000 0.326000 0.356000
v 0.390000 0.586000 0.356000
v 0.390000 0.326000 -0.302000
v 0.390000 0.586000 -0.302000
v 0.382497 0.326000 -0.330000
v 0.382497 0.586000 -0.330000
v 0.362000 0.326000 -0.350497
v 0.362000 0.586000 -0.350497
v 0.334000 0.326000 -0.358000
v 0.334000 0.586000 -0.358000
v 0.318000 0.326000 -0.358000
v 0.318000 0.586000 -0.358000
v 0.290000 0.326000 -0.350497
v 0.290000 0.586000 -0.350497
v 0.269503 0.326000 -0.330000
v 0.269503 0.586000 -0.330000
v 0.262000 0.326000 -0.302000
v 0.262000 0.586000 -0.302000
v 0.262000 0.326000 0.356000
v 0.262000 0.586000 0.356000
v 0.269503 0.326000 0.384000
v 0.269503 0.586000 0.384000
v 0.290000 0.326000 0.404497
v 0.290000 0.586000 0.404497
v 0.318000 0.326000 0.412000
v 0.318000 0.586000 0.412000
v 0.333343 0.628000 0.380376
v 0.359043 0.628000 0.373489
v 0.377857 0.628000 0.354676
v 0.384743 0.628000 0.328976
v 0.384743 0.628000 -0.274976
v 0.377857 0.628000 -0.300676
v 0.359043 0.628000 -0.319489
v 0.333343 0.628000 -0.326376
v 0.318657 0.628000 -0.326376
v 0.292957 0.628000 -0.319489
v 0.274143 0.628000 -0.300676
v 0.267257 0.628000 -0.274976
v 0.267257 0.628000 0.328976
v 0.274143 0.628000 0.354676
v 0.292957 0.628000 0.373489
v 0.318657 0.628000 0.380376
v 0.332000 0.326000 -0.247000
v 0.361000 0.326000 -0.254771
v 0.349000 0.736000 -0.304235
v 0.322000 0.736000 -0.297000
v 0.382229 0.326000 -0.276000
v 0.368765 0.736000 -0.324000
v 0.390000 0.326000 -0.305000
v 0.376000 0.736000 -0.351000
v 0.390000 0.326000 -0.321000
v 0.376000 0.736000 -0.367000
v 0.382229 0.326000 -0.350000
v 0.368765 0.736000 -0.394000
v 0.361000 0.326000 -0.371229
v 0.349000 0.736000 -0.413765
v 0.332000 0.326000 -0.379000
v 0.322000 0.736000 -0.421000
v -0.332000 0.326000 -0.379000
v -0.322000 0.736000 -0.421000
v -0.361000 0.326000 -0.371229
v -0.349000 0.736000 -0.413765
v -0.382229 0.326000 -0.350000
v -0.368765 0.736000 -0.394000
v -0.390000 0.326000 -0.321000
v -0.376000 0.736000 -0.367000
v -0.390000 0.326000 -0.305000
v -0.376000 0.736000 -0.351000
v -0.382229 0.326000 -0.276000
v -0.368765 0.736000 -0.324000
v -0.361000 0.326000 -0.254771
v -0.349000 0.736000 -0.304235
v -0.332000 0.326000 -0.247000
v -0.322000 0.736000 -0.297000
v 0.293131 0.782000 -0.302559
v 0.317710 0.782000 -0.309145
v 0.335704 0.782000 -0.327138
v 0.342290 0.782000 -0.351717
v 0.342290 0.782000 -0.366283
v 0.335704 0.782000 -0.390862
v 0.317710 0.782000 -0.408855
v 0.293131 0.782000 -0.415441
v -0.293131 0.782000 -0.415441
v -0.317710 0.782000 -0.408855
v -0.335704 0.782000 -0.390862
v -0.342290 0.782000 -0.366283
v -0.342290 0.782000 -0.351717
v -0.335704 0.782000 -0.327138
v -0.317710 0.782000 -0.309145
v -0.293131 0.782000 -0.302559
v -0.220575 0.356000 0.334966
v -0.245950 0.356000 0.328167
v -0.264527 0.356000 0.309590
v -0.271326 0.356000 0.284215
v -0.271326 0.356000 -0.186215
v -0.264527 0.356000 -0.211590
v -0.245950 0.356000 -0.230167
v -0.220575 0.356000 -0.236966
v 0.220575 0.356000 -0.236966
v 0.245950 0.356000 -0.230167
v 0.264527 0.356000 -0.211590
v 0.271326 0.356000 -0.186215
v 0.271326 0.356000 0.284215
v 0.264527 0.356000 0.309590
v 0.245950 0.356000 0.328167
v 0.220575 0.356000 0.334966
v 0.252000 0.365000 0.335033
v 0.226000 0.365000 0.342000
v 0.271033 0.365000 0.316000
v 0.278000 0.365000 0.290000
v 0.278000 0.365000 -0.192000
v 0.271033 0.365000 -0.218000
v 0.252000 0.365000 -0.237033
v 0.226000 0.365000 -0.244000
v -0.226000 0.365000 -0.244000
v -0.252000 0.365000 -0.237033
v -0.271033 0.365000 -0.218000
v -0.278000 0.365000 -0.192000
v -0.278000 0.365000 0.290000
v -0.271033 0.365000 0.316000
v -0.252000 0.365000 0.335033
v -0.226000 0.365000 0.342000
v 0.252000 0.406000 0.335033
v 0.226000 0.406000 0.342000
v 0.271033 0.406000 0.316000
v 0.278000 0.406000 0.290000
v 0.278000 0.406000 -0.192000
v 0.271033 0.406000 -0.218000
v 0.252000 0.406000 -0.237033
v 0.226000 0.406000 -0.244000
v -0.226000 0.406000 -0.244000
v -0.252000 0.406000 -0.237033
v -0.271033 0.406000 -0.218000
v -0.278000 0.406000 -0.192000
v -0.278000 0.406000 0.290000
v -0.271033 0.406000 0.316000
v -0.252000 0.406000 0.335033
v -0.226000 0.406000 0.342000
v 0.214185 0.420000 0.326682
v 0.238825 0.420000 0.320080
v 0.256864 0.420000 0.302041
v 0.263466 0.420000 0.277401
v 0.263466 0.420000 -0.179401
v 0.256864 0.420000 -0.204041
v 0.238825 0.420000 -0.222080
v 0.214185 0.420000 -0.228682
v -0.214185 0.420000 -0.228682
v -0.238825 0.420000 -0.222080
v -0.256864 0.420000 -0.204041
v -0.263466 0.420000 -0.179401
v -0.263466 0.420000 0.277401
v -0.256864 0.420000 0.302041
v -0.238825 0.420000 0.320080
v -0.214185 0.420000 0.326682
v -0.199818 0.416000 -0.108462
v -0.229599 0.416000 -0.116441
v -0.251399 0.416000 -0.138242
v -0.259379 0.416000 -0.168023
v -0.259379 0.416000 -0.217977
v -0.251399 0.416000 -0.247758
v -0.229599 0.416000 -0.269559
v -0.199818 0.416000 -0.277538
v 0.199818 0.416000 -0.277538
v 0.229599 0.416000 -0.269559
v 0.251399 0.416000 -0.247758
v 0.259379 0.416000 -0.217977
v 0.259379 0.416000 -0.168023
v 0.251399 0.416000 -0.138242
v 0.229599 0.416000 -0.116441
v 0.199818 0.416000 -0.108462
v 0.239000 0.430000 -0.113306
v 0.208000 0.430000 -0.105000
v 0.261694 0.430000 -0.136000
v 0.270000 0.430000 -0.167000
v 0.270000 0.430000 -0.219000
v 0.261694 0.430000 -0.250000
v 0.239000 0.430000 -0.272694
v 0.208000 0.430000 -0.281000
v -0.208000 0.430000 -0.281000
v -0.239000 0.430000 -0.272694
v -0.261694 0.430000 -0.250000
v -0.270000 0.430000 -0.219000
v -0.270000 0.430000 -0.167000
v -0.261694 0.430000 -0.136000
v -0.239000 0.430000 -0.113306
v -0.208000 0.430000 -0.105000
v 0.229000 0.700000 -0.171771
v 0.200000 0.700000 -0.164000
v 0.250229 0.700000 -0.193000
v 0.258000 0.700000 -0.222000
v 0.258000 0.700000 -0.268000
v 0.250229 0.700000 -0.297000
v 0.229000 0.700000 -0.318229
v 0.200000 0.700000 -0.326000
v -0.200000 0.700000 -0.326000
v -0.229000 0.700000 -0.318229
v -0.250229 0.700000 -0.297000
v -0.258000 0.700000 -0.268000
v -0.258000 0.700000 -0.222000
v -0.250229 0.700000 -0.193000
v -0.229000 0.700000 -0.171771
v -0.200000 0.700000 -0.164000
v 0.176926 0.726000 -0.173345
v 0.202581 0.726000 -0.180219
v 0.221361 0.726000 -0.198999
v 0.228235 0.726000 -0.224653
v 0.228235 0.726000 -0.265347
v 0.221361 0.726000 -0.291001
v 0.202581 0.726000 -0.309781
v 0.176926 0.726000 -0.316655
v -0.176926 0.726000 -0.316655
v -0.202581 0.726000 -0.309781
v -0.221361 0.726000 -0.291001
v -0.228235 0.726000 -0.265347
v -0.228235 0.726000 -0.224653
v -0.221361 0.726000 -0.198999
v -0.202581 0.726000 -0.180219
v -0.176926 0.726000 -0.173345
vn -0.0000 -1.0000 -0.0000
vn -0.0000 1.0000 -0.0000
vn -0.0000 -0.0607 0.9982
vn 0.9982 -0.0607 -0.0000
vn -0.0000 -0.0607 -0.9982
vn -0.9982 -0.0607 -0.0000
vn 0.2098 -0.5856 0.7830
vn 0.5490 -0.6303 0.5490
vn 0.7870 -0.5798 0.2109
vn 0.8573 -0.5148 -0.0000
vn 0.7870 -0.5798 -0.2109
vn 0.5490 -0.6303 -0.5490
vn 0.2098 -0.5856 -0.7830
vn -0.0000 -0.5244 -0.8515
vn -0.2098 -0.5856 -0.7830
vn -0.5490 -0.6303 -0.5490
vn -0.7870 -0.5798 -0.2109
vn -0.8573 -0.5148 -0.0000
vn -0.7870 -0.5798 0.2109
vn -0.5490 -0.6303 0.5490
vn -0.2098 -0.5856 0.7830
vn -0.0000 -0.5244 0.8515
vn 0.2588 -0.0000 0.9659
vn 0.7071 -0.0000 0.7071
vn 0.9659 -0.0000 0.2588
vn 1.0000 -0.0000 -0.0000
vn 0.9659 -0.0000 -0.2588
vn 0.7071 -0.0000 -0.7071
vn 0.2588 -0.0000 -0.9659
vn -0.0000 -0.0000 -1.0000
vn -0.2588 -0.0000 -0.9659
vn -0.7071 -0.0000 -0.7071
vn -0.9659 -0.0000 -0.2588
vn -1.0000 -0.0000 -0.0000
vn -0.9659 -0.0000 0.2588
vn -0.7071 -0.0000 0.7071
vn -0.2588 -0.0000 0.9659
vn -0.0000 -0.0000 1.0000
vn 0.2089 0.5903 0.7797
vn 0.6138 0.4964 0.6138
vn 0.9283 0.2763 0.2487
vn 0.9923 0.1242 -0.0000
vn 0.9283 0.2763 -0.2487
vn 0.6138 0.4964 -0.6138
vn 0.2089 0.5903 -0.7797
vn -0.0000 0.6015 -0.7989
vn -0.2089 0.5903 -0.7797
vn -0.6138 0.4964 -0.6138
vn -0.9283 0.2763 -0.2487
vn -0.9923 0.1242 -0.0000
vn -0.9283 0.2763 0.2487
vn -0.6138 0.4964 0.6138
vn -0.2089 0.5903 0.7797
vn -0.0000 0.6015 0.7989
vn 0.2568 0.1232 0.9586
vn 0.7032 0.1054 0.7032
vn 0.9641 0.0619 0.2583
vn 0.9994 0.0341 -0.0000
vn 0.9659 0.0039 -0.2588
vn 0.7061 -0.0526 -0.7061
vn 0.2577 -0.0922 -0.9618
vn -0.0000 -0.1019 -0.9948
vn -0.2577 -0.0922 -0.9618
vn -0.7061 -0.0526 -0.7061
vn -0.9659 0.0039 -0.2588
vn -0.9994 0.0341 -0.0000
vn -0.9641 0.0619 0.2583
vn -0.7032 0.1054 0.7032
vn -0.2568 0.1232 0.9586
vn -0.0000 0.1211 0.9926
vn 0.2493 0.2689 0.9304
vn 0.6179 0.4862 0.6179
vn 0.7869 0.5799 0.2108
vn 0.8066 0.5911 -0.0000
vn 0.7869 0.5799 -0.2108
vn 0.6179 0.4862 -0.6179
vn 0.2493 0.2689 -0.9304
vn -0.0000 0.1200 -0.9928
vn -0.2493 0.2689 -0.9304
vn -0.6179 0.4862 -0.6179
vn -0.7869 0.5799 -0.2108
vn -0.8066 0.5911 -0.0000
vn -0.7869 0.5799 0.2108
vn -0.6179 0.4862 0.6179
vn -0.2493 0.2689 0.9304
vn -0.0000 0.1200 0.9928
vn 0.1913 -0.6734 0.7141
vn 0.4963 -0.7123 0.4963
vn 0.7242 -0.6617 0.1940
vn 0.8033 -0.5956 -0.0000
vn 0.7242 -0.6617 -0.1940
vn 0.4963 -0.7123 -0.4963
vn 0.1913 -0.6734 -0.7141
vn -0.0000 -0.6158 -0.7879
vn -0.1913 -0.6734 -0.7141
vn -0.4963 -0.7123 -0.4963
vn -0.7242 -0.6617 -0.1940
vn -0.8033 -0.5956 -0.0000
vn -0.7242 -0.6617 0.1940
vn -0.4963 -0.7123 0.4963
vn -0.1913 -0.6734 0.7141
vn -0.0000 -0.6158 0.7879
vn 0.1597 0.7869 0.5960
vn 0.4070 0.8177 0.4070
vn 0.6076 0.7773 0.1628
vn 0.6938 0.7202 -0.0000
vn 0.6076 0.7773 -0.1628
vn 0.4070 0.8177 -0.4070
vn 0.1597 0.7869 -0.5960
vn -0.0000 0.7381 -0.6746
vn -0.1597 0.7869 -0.5960
vn -0.4070 0.8177 -0.4070
vn -0.6076 0.7773 -0.1628
vn -0.6938 0.7202 -0.0000
vn -0.6076 0.7773 0.1628
vn -0.4070 0.8177 0.4070
vn -0.1597 0.7869 0.5960
vn -0.0000 0.7382 0.6746
vn 0.2411 -0.3634 0.8999
vn 0.5974 -0.5350 0.5974
vn 0.7721 -0.6009 0.2069
vn 0.7967 -0.6044 -0.0000
vn 0.7721 -0.6009 -0.2069
vn 0.5974 -0.5350 -0.5974
vn 0.2411 -0.3634 -0.8999
vn -0.0000 -0.2400 -0.9708
vn -0.2411 -0.3634 -0.8999
vn -0.5974 -0.5350 -0.5974
vn -0.7721 -0.6009 -0.2069
vn -0.7967 -0.6044 -0.0000
vn -0.7721 -0.6009 0.2069
vn -0.5974 -0.5350 0.5974
vn -0.2411 -0.3634 0.8999
vn -0.0000 -0.2400 0.9708
vn 0.2528 0.2137 0.9436
vn 0.6960 0.1765 0.6960
vn 0.9615 0.0952 0.2576
vn 0.9990 0.0444 -0.0000
vn 0.9659 -0.0040 -0.2588
vn 0.7041 -0.0927 -0.7041
vn 0.2558 -0.1515 -0.9548
vn -0.0000 -0.1644 -0.9864
vn -0.2558 -0.1515 -0.9548
vn -0.7041 -0.0927 -0.7041
vn -0.9659 -0.0040 -0.2588
vn -0.9990 0.0444 -0.0000
vn -0.9615 0.0952 0.2576
vn -0.6960 0.1765 0.6960
vn -0.2528 0.2137 0.9436
vn -0.0000 0.2135 0.9769
vn 0.2242 0.4997 0.8367
vn 0.5131 0.6881 0.5131
vn 0.6394 0.7495 0.1713
vn 0.6579 0.7531 -0.0000
vn 0.6394 0.7495 -0.1713
vn 0.5131 0.6881 -0.5131
vn 0.2242 0.4997 -0.8367
vn -0.0000 0.3382 -0.9411
vn -0.2242 0.4997 -0.8367
vn -0.5131 0.6881 -0.5131
vn -0.6394 0.7495 -0.1713
vn -0.6579 0.7531 -0.0000
vn -0.6394 0.7495 0.1713
vn -0.5131 0.6881 0.5131
vn -0.2242 0.4997 0.8367
vn -0.0000 0.3382 0.9411
vt 0.687500 0.937500
vt 0.437500 0.562500
vt 0.562500 0.562500
vt 0.312500 0.687500
s 0
usemtl FN_Atlas
f 1/1/1 2/1/1 3/1/1 4/1/1
f 5/1/2 6/1/2 7/1/2 8/1/2
f 4/1/3 3/1/3 6/1/3 5/1/3
f 3/1/4 2/1/4 7/1/4 6/1/4
f 2/1/5 1/1/5 8/1/5 7/1/5
f 1/1/6 4/1/6 5/1/6 8/1/6
f 9/1/1 10/1/1 11/1/1 12/1/1
f 13/1/2 14/1/2 15/1/2 16/1/2
f 12/1/3 11/1/3 14/1/3 13/1/3
f 11/1/4 10/1/4 15/1/4 14/1/4
f 10/1/5 9/1/5 16/1/5 15/1/5
f 9/1/6 12/1/6 13/1/6 16/1/6
f 17/1/1 18/1/1 19/1/1 20/1/1
f 21/1/2 22/1/2 23/1/2 24/1/2
f 20/1/3 19/1/3 22/1/3 21/1/3
f 19/1/4 18/1/4 23/1/4 22/1/4
f 18/1/5 17/1/5 24/1/5 23/1/5
f 17/1/6 20/1/6 21/1/6 24/1/6
f 25/1/1 26/1/1 27/1/1 28/1/1
f 29/1/2 30/1/2 31/1/2 32/1/2
f 28/1/3 27/1/3 30/1/3 29/1/3
f 27/1/4 26/1/4 31/1/4 30/1/4
f 26/1/5 25/1/5 32/1/5 31/1/5
f 25/1/6 28/1/6 29/1/6 32/1/6
f 33/2/1 34/2/1 35/2/1 36/2/1 37/2/1 38/2/1 39/2/1 40/2/1 41/2/1 42/2/1 43/2/1 44/2/1 45/2/1 46/2/1 47/2/1 48/2/1
f 48/2/7 47/2/7 49/2/7 50/2/7
f 47/2/8 46/2/8 51/2/8 49/2/8
f 46/2/9 45/2/9 52/2/9 51/2/9
f 45/2/10 44/2/10 53/2/10 52/2/10
f 44/2/11 43/2/11 54/2/11 53/2/11
f 43/2/12 42/2/12 55/2/12 54/2/12
f 42/2/13 41/2/13 56/2/13 55/2/13
f 41/2/14 40/2/14 57/2/14 56/2/14
f 40/2/15 39/2/15 58/2/15 57/2/15
f 39/2/16 38/2/16 59/2/16 58/2/16
f 38/2/17 37/2/17 60/2/17 59/2/17
f 37/2/18 36/2/18 61/2/18 60/2/18
f 36/2/19 35/2/19 62/2/19 61/2/19
f 35/2/20 34/2/20 63/2/20 62/2/20
f 34/2/21 33/2/21 64/2/21 63/2/21
f 33/2/22 48/2/22 50/2/22 64/2/22
f 50/2/23 49/2/23 65/2/23 66/2/23
f 49/2/24 51/2/24 67/2/24 65/2/24
f 51/2/25 52/2/25 68/2/25 67/2/25
f 52/2/26 53/2/26 69/2/26 68/2/26
f 53/2/27 54/2/27 70/2/27 69/2/27
f 54/2/28 55/2/28 71/2/28 70/2/28
f 55/2/29 56/2/29 72/2/29 71/2/29
f 56/2/30 57/2/30 73/2/30 72/2/30
f 57/2/31 58/2/31 74/2/31 73/2/31
f 58/2/32 59/2/32 75/2/32 74/2/32
f 59/2/33 60/2/33 76/2/33 75/2/33
f 60/2/34 61/2/34 77/2/34 76/2/34
f 61/2/35 62/2/35 78/2/35 77/2/35
f 62/2/36 63/2/36 79/2/36 78/2/36
f 63/2/37 64/2/37 80/2/37 79/2/37
f 64/2/38 50/2/38 66/2/38 80/2/38
f 81/3/2 82/3/2 83/3/2 84/3/2 85/3/2 86/3/2 87/3/2 88/3/2 89/3/2 90/3/2 91/3/2 92/3/2 93/3/2 94/3/2 95/3/2 96/3/2
f 66/3/23 65/3/23 82/3/23 81/3/23
f 65/3/24 67/3/24 83/3/24 82/3/24
f 67/3/25 68/3/25 84/3/25 83/3/25
f 68/3/26 69/3/26 85/3/26 84/3/26
f 69/3/27 70/3/27 86/3/27 85/3/27
f 70/3/28 71/3/28 87/3/28 86/3/28
f 71/3/29 72/3/29 88/3/29 87/3/29
f 72/3/30 73/3/30 89/3/30 88/3/30
f 73/3/31 74/3/31 90/3/31 89/3/31
f 74/3/32 75/3/32 91/3/32 90/3/32
f 75/3/33 76/3/33 92/3/33 91/3/33
f 76/3/34 77/3/34 93/3/34 92/3/34
f 77/3/35 78/3/35 94/3/35 93/3/35
f 78/3/36 79/3/36 95/3/36 94/3/36
f 79/3/37 80/3/37 96/3/37 95/3/37
f 80/3/38 66/3/38 81/3/38 96/3/38
f 97/2/23 98/2/23 99/2/23 100/2/23
f 98/2/24 101/2/24 102/2/24 99/2/24
f 101/2/25 103/2/25 104/2/25 102/2/25
f 103/2/26 105/2/26 106/2/26 104/2/26
f 105/2/27 107/2/27 108/2/27 106/2/27
f 107/2/28 109/2/28 110/2/28 108/2/28
f 109/2/29 111/2/29 112/2/29 110/2/29
f 111/2/30 113/2/30 114/2/30 112/2/30
f 113/2/31 115/2/31 116/2/31 114/2/31
f 115/2/32 117/2/32 118/2/32 116/2/32
f 117/2/33 119/2/33 120/2/33 118/2/33
f 119/2/34 121/2/34 122/2/34 120/2/34
f 121/2/35 123/2/35 124/2/35 122/2/35
f 123/2/36 125/2/36 126/2/36 124/2/36
f 125/2/37 127/2/37 128/2/37 126/2/37
f 127/2/38 97/2/38 100/2/38 128/2/38
f 129/2/2 130/2/2 131/2/2 132/2/2 133/2/2 134/2/2 135/2/2 136/2/2 137/2/2 138/2/2 139/2/2 140/2/2 141/2/2 142/2/2 143/2/2 144/2/2
f 100/2/39 99/2/39 130/2/39 129/2/39
f 99/2/40 102/2/40 131/2/40 130/2/40
f 102/2/41 104/2/41 132/2/41 131/2/41
f 104/2/42 106/2/42 133/2/42 132/2/42
f 106/2/43 108/2/43 134/2/43 133/2/43
f 108/2/44 110/2/44 135/2/44 134/2/44
f 110/2/45 112/2/45 136/2/45 135/2/45
f 112/2/46 114/2/46 137/2/46 136/2/46
f 114/2/47 116/2/47 138/2/47 137/2/47
f 116/2/48 118/2/48 139/2/48 138/2/48
f 118/2/49 120/2/49 140/2/49 139/2/49
f 120/2/50 122/2/50 141/2/50 140/2/50
f 122/2/51 124/2/51 142/2/51 141/2/51
f 124/2/52 126/2/52 143/2/52 142/2/52
f 126/2/53 128/2/53 144/2/53 143/2/53
f 128/2/54 100/2/54 129/2/54 144/2/54
f 145/2/23 146/2/23 147/2/23 148/2/23
f 146/2/24 149/2/24 150/2/24 147/2/24
f 149/2/25 151/2/25 152/2/25 150/2/25
f 151/2/26 153/2/26 154/2/26 152/2/26
f 153/2/27 155/2/27 156/2/27 154/2/27
f 155/2/28 157/2/28 158/2/28 156/2/28
f 157/2/29 159/2/29 160/2/29 158/2/29
f 159/2/30 161/2/30 162/2/30 160/2/30
f 161/2/31 163/2/31 164/2/31 162/2/31
f 163/2/32 165/2/32 166/2/32 164/2/32
f 165/2/33 167/2/33 168/2/33 166/2/33
f 167/2/34 169/2/34 170/2/34 168/2/34
f 169/2/35 171/2/35 172/2/35 170/2/35
f 171/2/36 173/2/36 174/2/36 172/2/36
f 173/2/37 175/2/37 176/2/37 174/2/37
f 175/2/38 145/2/38 148/2/38 176/2/38
f 177/2/2 178/2/2 179/2/2 180/2/2 181/2/2 182/2/2 183/2/2 184/2/2 185/2/2 186/2/2 187/2/2 188/2/2 189/2/2 190/2/2 191/2/2 192/2/2
f 148/2/39 147/2/39 178/2/39 177/2/39
f 147/2/40 150/2/40 179/2/40 178/2/40
f 150/2/41 152/2/41 180/2/41 179/2/41
f 152/2/42 154/2/42 181/2/42 180/2/42
f 154/2/43 156/2/43 182/2/43 181/2/43
f 156/2/44 158/2/44 183/2/44 182/2/44
f 158/2/45 160/2/45 184/2/45 183/2/45
f 160/2/46 162/2/46 185/2/46 184/2/46
f 162/2/47 164/2/47 186/2/47 185/2/47
f 164/2/48 166/2/48 187/2/48 186/2/48
f 166/2/49 168/2/49 188/2/49 187/2/49
f 168/2/50 170/2/50 189/2/50 188/2/50
f 170/2/51 172/2/51 190/2/51 189/2/51
f 172/2/52 174/2/52 191/2/52 190/2/52
f 174/2/53 176/2/53 192/2/53 191/2/53
f 176/2/54 148/2/54 177/2/54 192/2/54
f 193/2/55 194/2/55 195/2/55 196/2/55
f 194/2/56 197/2/56 198/2/56 195/2/56
f 197/2/57 199/2/57 200/2/57 198/2/57
f 199/2/58 201/2/58 202/2/58 200/2/58
f 201/2/59 203/2/59 204/2/59 202/2/59
f 203/2/60 205/2/60 206/2/60 204/2/60
f 205/2/61 207/2/61 208/2/61 206/2/61
f 207/2/62 209/2/62 210/2/62 208/2/62
f 209/2/63 211/2/63 212/2/63 210/2/63
f 211/2/64 213/2/64 214/2/64 212/2/64
f 213/2/65 215/2/65 216/2/65 214/2/65
f 215/2/66 217/2/66 218/2/66 216/2/66
f 217/2/67 219/2/67 220/2/67 218/2/67
f 219/2/68 221/2/68 222/2/68 220/2/68
f 221/2/69 223/2/69 224/2/69 222/2/69
f 223/2/70 193/2/70 196/2/70 224/2/70
f 225/2/2 226/2/2 227/2/2 228/2/2 229/2/2 230/2/2 231/2/2 232/2/2 233/2/2 234/2/2 235/2/2 236/2/2 237/2/2 238/2/2 239/2/2 240/2/2
f 196/2/71 195/2/71 226/2/71 225/2/71
f 195/2/72 198/2/72 227/2/72 226/2/72
f 198/2/73 200/2/73 228/2/73 227/2/73
f 200/2/74 202/2/74 229/2/74 228/2/74
f 202/2/75 204/2/75 230/2/75 229/2/75
f 204/2/76 206/2/76 231/2/76 230/2/76
f 206/2/77 208/2/77 232/2/77 231/2/77
f 208/2/78 210/2/78 233/2/78 232/2/78
f 210/2/79 212/2/79 234/2/79 233/2/79
f 212/2/80 214/2/80 235/2/80 234/2/80
f 214/2/81 216/2/81 236/2/81 235/2/81
f 216/2/82 218/2/82 237/2/82 236/2/82
f 218/2/83 220/2/83 238/2/83 237/2/83
f 220/2/84 222/2/84 239/2/84 238/2/84
f 222/2/85 224/2/85 240/2/85 239/2/85
f 224/2/86 196/2/86 225/2/86 240/2/86
f 241/4/1 242/4/1 243/4/1 244/4/1 245/4/1 246/4/1 247/4/1 248/4/1 249/4/1 250/4/1 251/4/1 252/4/1 253/4/1 254/4/1 255/4/1 256/4/1
f 256/4/87 255/4/87 257/4/87 258/4/87
f 255/4/88 254/4/88 259/4/88 257/4/88
f 254/4/89 253/4/89 260/4/89 259/4/89
f 253/4/90 252/4/90 261/4/90 260/4/90
f 252/4/91 251/4/91 262/4/91 261/4/91
f 251/4/92 250/4/92 263/4/92 262/4/92
f 250/4/93 249/4/93 264/4/93 263/4/93
f 249/4/94 248/4/94 265/4/94 264/4/94
f 248/4/95 247/4/95 266/4/95 265/4/95
f 247/4/96 246/4/96 267/4/96 266/4/96
f 246/4/97 245/4/97 268/4/97 267/4/97
f 245/4/98 244/4/98 269/4/98 268/4/98
f 244/4/99 243/4/99 270/4/99 269/4/99
f 243/4/100 242/4/100 271/4/100 270/4/100
f 242/4/101 241/4/101 272/4/101 271/4/101
f 241/4/102 256/4/102 258/4/102 272/4/102
f 258/4/23 257/4/23 273/4/23 274/4/23
f 257/4/24 259/4/24 275/4/24 273/4/24
f 259/4/25 260/4/25 276/4/25 275/4/25
f 260/4/26 261/4/26 277/4/26 276/4/26
f 261/4/27 262/4/27 278/4/27 277/4/27
f 262/4/28 263/4/28 279/4/28 278/4/28
f 263/4/29 264/4/29 280/4/29 279/4/29
f 264/4/30 265/4/30 281/4/30 280/4/30
f 265/4/31 266/4/31 282/4/31 281/4/31
f 266/4/32 267/4/32 283/4/32 282/4/32
f 267/4/33 268/4/33 284/4/33 283/4/33
f 268/4/34 269/4/34 285/4/34 284/4/34
f 269/4/35 270/4/35 286/4/35 285/4/35
f 270/4/36 271/4/36 287/4/36 286/4/36
f 271/4/37 272/4/37 288/4/37 287/4/37
f 272/4/38 258/4/38 274/4/38 288/4/38
f 289/4/2 290/4/2 291/4/2 292/4/2 293/4/2 294/4/2 295/4/2 296/4/2 297/4/2 298/4/2 299/4/2 300/4/2 301/4/2 302/4/2 303/4/2 304/4/2
f 274/4/103 273/4/103 290/4/103 289/4/103
f 273/4/104 275/4/104 291/4/104 290/4/104
f 275/4/105 276/4/105 292/4/105 291/4/105
f 276/4/106 277/4/106 293/4/106 292/4/106
f 277/4/107 278/4/107 294/4/107 293/4/107
f 278/4/108 279/4/108 295/4/108 294/4/108
f 279/4/109 280/4/109 296/4/109 295/4/109
f 280/4/110 281/4/110 297/4/110 296/4/110
f 281/4/111 282/4/111 298/4/111 297/4/111
f 282/4/112 283/4/112 299/4/112 298/4/112
f 283/4/113 284/4/113 300/4/113 299/4/113
f 284/4/114 285/4/114 301/4/114 300/4/114
f 285/4/115 286/4/115 302/4/115 301/4/115
f 286/4/116 287/4/116 303/4/116 302/4/116
f 287/4/117 288/4/117 304/4/117 303/4/117
f 288/4/118 274/4/118 289/4/118 304/4/118
f 305/4/1 306/4/1 307/4/1 308/4/1 309/4/1 310/4/1 311/4/1 312/4/1 313/4/1 314/4/1 315/4/1 316/4/1 317/4/1 318/4/1 319/4/1 320/4/1
f 320/4/119 319/4/119 321/4/119 322/4/119
f 319/4/120 318/4/120 323/4/120 321/4/120
f 318/4/121 317/4/121 324/4/121 323/4/121
f 317/4/122 316/4/122 325/4/122 324/4/122
f 316/4/123 315/4/123 326/4/123 325/4/123
f 315/4/124 314/4/124 327/4/124 326/4/124
f 314/4/125 313/4/125 328/4/125 327/4/125
f 313/4/126 312/4/126 329/4/126 328/4/126
f 312/4/127 311/4/127 330/4/127 329/4/127
f 311/4/128 310/4/128 331/4/128 330/4/128
f 310/4/129 309/4/129 332/4/129 331/4/129
f 309/4/130 308/4/130 333/4/130 332/4/130
f 308/4/131 307/4/131 334/4/131 333/4/131
f 307/4/132 306/4/132 335/4/132 334/4/132
f 306/4/133 305/4/133 336/4/133 335/4/133
f 305/4/134 320/4/134 322/4/134 336/4/134
f 322/4/135 321/4/135 337/4/135 338/4/135
f 321/4/136 323/4/136 339/4/136 337/4/136
f 323/4/137 324/4/137 340/4/137 339/4/137
f 324/4/138 325/4/138 341/4/138 340/4/138
f 325/4/139 326/4/139 342/4/139 341/4/139
f 326/4/140 327/4/140 343/4/140 342/4/140
f 327/4/141 328/4/141 344/4/141 343/4/141
f 328/4/142 329/4/142 345/4/142 344/4/142
f 329/4/143 330/4/143 346/4/143 345/4/143
f 330/4/144 331/4/144 347/4/144 346/4/144
f 331/4/145 332/4/145 348/4/145 347/4/145
f 332/4/146 333/4/146 349/4/146 348/4/146
f 333/4/147 334/4/147 350/4/147 349/4/147
f 334/4/148 335/4/148 351/4/148 350/4/148
f 335/4/149 336/4/149 352/4/149 351/4/149
f 336/4/150 322/4/150 338/4/150 352/4/150
f 353/4/2 354/4/2 355/4/2 356/4/2 357/4/2 358/4/2 359/4/2 360/4/2 361/4/2 362/4/2 363/4/2 364/4/2 365/4/2 366/4/2 367/4/2 368/4/2
f 338/4/151 337/4/151 354/4/151 353/4/151
f 337/4/152 339/4/152 355/4/152 354/4/152
f 339/4/153 340/4/153 356/4/153 355/4/153
f 340/4/154 341/4/154 357/4/154 356/4/154
f 341/4/155 342/4/155 358/4/155 357/4/155
f 342/4/156 343/4/156 359/4/156 358/4/156
f 343/4/157 344/4/157 360/4/157 359/4/157
f 344/4/158 345/4/158 361/4/158 360/4/158
f 345/4/159 346/4/159 362/4/159 361/4/159
f 346/4/160 347/4/160 363/4/160 362/4/160
f 347/4/161 348/4/161 364/4/161 363/4/161
f 348/4/162 349/4/162 365/4/162 364/4/162
f 349/4/163 350/4/163 366/4/163 365/4/163
f 350/4/164 351/4/164 367/4/164 366/4/164
f 351/4/165 352/4/165 368/4/165 367/4/165
f 352/4/166 338/4/166 353/4/166 368/4/166
