# Blender 5.2.0 LTS
# www.blender.org
mtllib FN_Chair_Directors.mtl
o FN_Chair_Directors
v -0.288000 0.490000 -0.152000
v -0.288000 0.490000 -0.188000
v -0.288000 0.000000 0.212000
v -0.288000 0.000000 0.248000
v -0.252000 0.000000 0.248000
v -0.252000 0.000000 0.212000
v -0.252000 0.490000 -0.188000
v -0.252000 0.490000 -0.152000
v -0.288000 0.490000 0.188000
v -0.288000 0.490000 0.152000
v -0.288000 0.000000 -0.248000
v -0.288000 0.000000 -0.212000
v -0.252000 0.000000 -0.212000
v -0.252000 0.000000 -0.248000
v -0.252000 0.490000 0.152000
v -0.252000 0.490000 0.188000
v -0.296000 0.270742 -0.006500
v -0.296000 0.270742 0.006500
v -0.296000 0.282000 0.013000
v -0.296000 0.293258 0.006500
v -0.296000 0.293258 -0.006500
v -0.296000 0.282000 -0.013000
v -0.244000 0.282000 -0.013000
v -0.244000 0.293258 -0.006500
v -0.244000 0.293258 0.006500
v -0.244000 0.282000 0.013000
v -0.244000 0.270742 0.006500
v -0.244000 0.270742 -0.006500
v -0.288000 0.474000 0.186000
v -0.288000 0.474000 -0.186000
v -0.252000 0.474000 -0.186000
v -0.252000 0.474000 0.186000
v -0.288000 0.506000 0.186000
v -0.252000 0.506000 0.186000
v -0.252000 0.506000 -0.186000
v -0.288000 0.506000 -0.186000
v -0.288000 0.860000 -0.132000
v -0.288000 0.860000 -0.168000
v -0.288000 0.470000 -0.186000
v -0.288000 0.470000 -0.150000
v -0.252000 0.470000 -0.150000
v -0.252000 0.470000 -0.186000
v -0.252000 0.860000 -0.168000
v -0.252000 0.860000 -0.132000
v -0.288000 0.674000 0.188000
v -0.252000 0.674000 0.188000
v -0.252000 0.674000 0.152000
v -0.288000 0.674000 0.152000
v -0.290000 0.660000 0.190000
v -0.290000 0.660000 -0.170000
v -0.250000 0.660000 -0.170000
v -0.250000 0.660000 0.190000
v -0.290000 0.688000 0.190000
v -0.250000 0.688000 0.190000
v -0.250000 0.688000 -0.170000
v -0.290000 0.688000 -0.170000
v 0.252000 0.490000 -0.152000
v 0.252000 0.490000 -0.188000
v 0.252000 0.000000 0.212000
v 0.252000 0.000000 0.248000
v 0.288000 0.000000 0.248000
v 0.288000 0.000000 0.212000
v 0.288000 0.490000 -0.188000
v 0.288000 0.490000 -0.152000
v 0.252000 0.490000 0.188000
v 0.252000 0.490000 0.152000
v 0.252000 0.000000 -0.248000
v 0.252000 0.000000 -0.212000
v 0.288000 0.000000 -0.212000
v 0.288000 0.000000 -0.248000
v 0.288000 0.490000 0.152000
v 0.288000 0.490000 0.188000
v 0.244000 0.270742 -0.006500
v 0.244000 0.270742 0.006500
v 0.244000 0.282000 0.013000
v 0.244000 0.293258 0.006500
v 0.244000 0.293258 -0.006500
v 0.244000 0.282000 -0.013000
v 0.296000 0.282000 -0.013000
v 0.296000 0.293258 -0.006500
v 0.296000 0.293258 0.006500
v 0.296000 0.282000 0.013000
v 0.296000 0.270742 0.006500
v 0.296000 0.270742 -0.006500
v 0.252000 0.474000 0.186000
v 0.252000 0.474000 -0.186000
v 0.288000 0.474000 -0.186000
v 0.288000 0.474000 0.186000
v 0.252000 0.506000 0.186000
v 0.288000 0.506000 0.186000
v 0.288000 0.506000 -0.186000
v 0.252000 0.506000 -0.186000
v 0.252000 0.860000 -0.132000
v 0.252000 0.860000 -0.168000
v 0.252000 0.470000 -0.186000
v 0.252000 0.470000 -0.150000
v 0.288000 0.470000 -0.150000
v 0.288000 0.470000 -0.186000
v 0.288000 0.860000 -0.168000
v 0.288000 0.860000 -0.132000
v 0.252000 0.674000 0.188000
v 0.288000 0.674000 0.188000
v 0.288000 0.674000 0.152000
v 0.252000 0.674000 0.152000
v 0.250000 0.660000 0.190000
v 0.250000 0.660000 -0.170000
v 0.290000 0.660000 -0.170000
v 0.290000 0.660000 0.190000
v 0.250000 0.688000 0.190000
v 0.290000 0.688000 0.190000
v 0.290000 0.688000 -0.170000
v 0.250000 0.688000 -0.170000
v -0.288000 0.000000 0.242000
v -0.288000 0.000000 0.182000
v 0.288000 0.000000 0.182000
v 0.288000 0.000000 0.242000
v -0.288000 0.040000 0.242000
v 0.288000 0.040000 0.242000
v 0.288000 0.040000 0.182000
v -0.288000 0.040000 0.182000
v -0.288000 0.000000 -0.182000
v -0.288000 0.000000 -0.242000
v 0.288000 0.000000 -0.242000
v 0.288000 0.000000 -0.182000
v -0.288000 0.040000 -0.182000
v 0.288000 0.040000 -0.182000
v 0.288000 0.040000 -0.242000
v -0.288000 0.040000 -0.242000
v -0.262000 0.483000 0.176000
v -0.130000 0.443000 0.176000
v -0.130000 0.455000 0.176000
v -0.262000 0.495000 0.176000
v -0.262000 0.495000 -0.176000
v -0.130000 0.455000 -0.176000
v -0.130000 0.443000 -0.176000
v -0.262000 0.483000 -0.176000
v 0.130000 0.443000 0.176000
v 0.130000 0.455000 0.176000
v 0.130000 0.455000 -0.176000
v 0.130000 0.443000 -0.176000
v 0.262000 0.483000 0.176000
v 0.262000 0.495000 0.176000
v 0.262000 0.495000 -0.176000
v 0.262000 0.483000 -0.176000
v -0.262000 0.700000 -0.158000
v -0.130000 0.700000 -0.184000
v -0.130000 0.700000 -0.172000
v -0.262000 0.700000 -0.146000
v -0.262000 0.840000 -0.146000
v -0.130000 0.840000 -0.172000
v -0.130000 0.840000 -0.184000
v -0.262000 0.840000 -0.158000
v 0.130000 0.700000 -0.184000
v 0.130000 0.700000 -0.172000
v 0.130000 0.840000 -0.172000
v 0.130000 0.840000 -0.184000
v 0.262000 0.700000 -0.158000
v 0.262000 0.700000 -0.146000
v 0.262000 0.840000 -0.146000
v 0.262000 0.840000 -0.158000
vn -1.0000 -0.0000 -0.0000
vn 1.0000 -0.0000 -0.0000
vn -0.0000 -1.0000 -0.0000
vn -0.0000 -0.6324 -0.7747
vn -0.0000 1.0000 -0.0000
vn -0.0000 0.6324 0.7747
vn -0.0000 0.6324 -0.7747
vn -0.0000 -0.6324 0.7747
vn -0.0000 0.5000 -0.8660
vn -0.0000 0.5000 0.8660
vn -0.0000 -0.5000 0.8660
vn -0.0000 -0.5000 -0.8660
vn -0.0000 -0.0000 1.0000
vn -0.0000 -0.0000 -1.0000
vn -0.0000 0.0461 -0.9989
vn -0.0000 -0.0461 0.9989
vn 0.2900 0.9570 -0.0000
vn -0.2900 -0.9570 -0.0000
vn -0.2900 0.9570 -0.0000
vn 0.2900 -0.9570 -0.0000
vn 0.1933 -0.0000 0.9811
vn -0.1933 -0.0000 -0.9811
vn -0.1933 -0.0000 0.9811
vn 0.1933 -0.0000 -0.9811
vt 0.312500 0.937500
vt 0.812500 0.312500
vt 0.937500 0.687500
s 0
usemtl FN_Atlas
f 1/1/1 2/1/1 3/1/1 4/1/1
f 5/1/2 6/1/2 7/1/2 8/1/2
f 4/1/3 3/1/3 6/1/3 5/1/3
f 3/1/4 2/1/4 7/1/4 6/1/4
f 2/1/5 1/1/5 8/1/5 7/1/5
f 1/1/6 4/1/6 5/1/6 8/1/6
f 9/1/1 10/1/1 11/1/1 12/1/1
f 13/1/2 14/1/2 15/1/2 16/1/2
f 12/1/3 11/1/3 14/1/3 13/1/3
f 11/1/7 10/1/7 15/1/7 14/1/7
f 10/1/5 9/1/5 16/1/5 15/1/5
f 9/1/8 12/1/8 13/1/8 16/1/8
f 17/2/1 18/2/1 19/2/1 20/2/1 21/2/1 22/2/1
f 23/2/2 24/2/2 25/2/2 26/2/2 27/2/2 28/2/2
f 22/2/9 21/2/9 24/2/9 23/2/9
f 21/2/5 20/2/5 25/2/5 24/2/5
f 20/2/10 19/2/10 26/2/10 25/2/10
f 19/2/11 18/2/11 27/2/11 26/2/11
f 18/2/3 17/2/3 28/2/3 27/2/3
f 17/2/12 22/2/12 23/2/12 28/2/12
f 29/1/3 30/1/3 31/1/3 32/1/3
f 33/1/5 34/1/5 35/1/5 36/1/5
f 29/1/13 32/1/13 34/1/13 33/1/13
f 31/1/14 30/1/14 36/1/14 35/1/14
f 29/1/1 33/1/1 36/1/1 30/1/1
f 32/1/2 31/1/2 35/1/2 34/1/2
f 37/1/1 38/1/1 39/1/1 40/1/1
f 41/1/2 42/1/2 43/1/2 44/1/2
f 40/1/3 39/1/3 42/1/3 41/1/3
f 39/1/15 38/1/15 43/1/15 42/1/15
f 38/1/5 37/1/5 44/1/5 43/1/5
f 37/1/16 40/1/16 41/1/16 44/1/16
f 45/1/5 46/1/5 47/1/5 48/1/5
f 9/1/13 16/1/13 46/1/13 45/1/13
f 15/1/14 10/1/14 48/1/14 47/1/14
f 9/1/1 45/1/1 48/1/1 10/1/1
f 16/1/2 15/1/2 47/1/2 46/1/2
f 49/1/3 50/1/3 51/1/3 52/1/3
f 53/1/5 54/1/5 55/1/5 56/1/5
f 49/1/13 52/1/13 54/1/13 53/1/13
f 51/1/14 50/1/14 56/1/14 55/1/14
f 49/1/1 53/1/1 56/1/1 50/1/1
f 52/1/2 51/1/2 55/1/2 54/1/2
f 57/1/1 58/1/1 59/1/1 60/1/1
f 61/1/2 62/1/2 63/1/2 64/1/2
f 60/1/3 59/1/3 62/1/3 61/1/3
f 59/1/4 58/1/4 63/1/4 62/1/4
f 58/1/5 57/1/5 64/1/5 63/1/5
f 57/1/6 60/1/6 61/1/6 64/1/6
f 65/1/1 66/1/1 67/1/1 68/1/1
f 69/1/2 70/1/2 71/1/2 72/1/2
f 68/1/3 67/1/3 70/1/3 69/1/3
f 67/1/7 66/1/7 71/1/7 70/1/7
f 66/1/5 65/1/5 72/1/5 71/1/5
f 65/1/8 68/1/8 69/1/8 72/1/8
f 73/2/1 74/2/1 75/2/1 76/2/1 77/2/1 78/2/1
f 79/2/2 80/2/2 81/2/2 82/2/2 83/2/2 84/2/2
f 78/2/9 77/2/9 80/2/9 79/2/9
f 77/2/5 76/2/5 81/2/5 80/2/5
f 76/2/10 75/2/10 82/2/10 81/2/10
f 75/2/11 74/2/11 83/2/11 82/2/11
f 74/2/3 73/2/3 84/2/3 83/2/3
f 73/2/12 78/2/12 79/2/12 84/2/12
f 85/1/3 86/1/3 87/1/3 88/1/3
f 89/1/5 90/1/5 91/1/5 92/1/5
f 85/1/13 88/1/13 90/1/13 89/1/13
f 87/1/14 86/1/14 92/1/14 91/1/14
f 85/1/1 89/1/1 92/1/1 86/1/1
f 88/1/2 87/1/2 91/1/2 90/1/2
f 93/1/1 94/1/1 95/1/1 96/1/1
f 97/1/2 98/1/2 99/1/2 100/1/2
f 96/1/3 95/1/3 98/1/3 97/1/3
f 95/1/15 94/1/15 99/1/15 98/1/15
f 94/1/5 93/1/5 100/1/5 99/1/5
f 93/1/16 96/1/16 97/1/16 100/1/16
f 101/1/5 102/1/5 103/1/5 104/1/5
f 65/1/13 72/1/13 102/1/13 101/1/13
f 71/1/14 66/1/14 104/1/14 103/1/14
f 65/1/1 101/1/1 104/1/1 66/1/1
f 72/1/2 71/1/2 103/1/2 102/1/2
f 105/1/3 106/1/3 107/1/3 108/1/3
f 109/1/5 110/1/5 111/1/5 112/1/5
f 105/1/13 108/1/13 110/1/13 109/1/13
f 107/1/14 106/1/14 112/1/14 111/1/14
f 105/1/1 109/1/1 112/1/1 106/1/1
f 108/1/2 107/1/2 111/1/2 110/1/2
f 113/1/3 114/1/3 115/1/3 116/1/3
f 117/1/5 118/1/5 119/1/5 120/1/5
f 113/1/13 116/1/13 118/1/13 117/1/13
f 115/1/14 114/1/14 120/1/14 119/1/14
f 113/1/1 117/1/1 120/1/1 114/1/1
f 116/1/2 115/1/2 119/1/2 118/1/2
f 121/1/3 122/1/3 123/1/3 124/1/3
f 125/1/5 126/1/5 127/1/5 128/1/5
f 121/1/13 124/1/13 126/1/13 125/1/13
f 123/1/14 122/1/14 128/1/14 127/1/14
f 121/1/1 125/1/1 128/1/1 122/1/1
f 124/1/2 123/1/2 127/1/2 126/1/2
f 129/3/13 130/3/13 131/3/13 132/3/13
f 133/3/14 134/3/14 135/3/14 136/3/14
f 132/3/17 131/3/17 134/3/17 133/3/17
f 131/3/2 130/3/2 135/3/2 134/3/2
f 130/3/18 129/3/18 136/3/18 135/3/18
f 129/3/1 132/3/1 133/3/1 136/3/1
f 130/3/13 137/3/13 138/3/13 131/3/13
f 134/3/14 139/3/14 140/3/14 135/3/14
f 131/3/5 138/3/5 139/3/5 134/3/5
f 138/3/2 137/3/2 140/3/2 139/3/2
f 137/3/3 130/3/3 135/3/3 140/3/3
f 137/3/13 141/3/13 142/3/13 138/3/13
f 139/3/14 143/3/14 144/3/14 140/3/14
f 138/3/19 142/3/19 143/3/19 139/3/19
f 142/3/2 141/3/2 144/3/2 143/3/2
f 141/3/20 137/3/20 140/3/20 144/3/20
f 145/3/3 146/3/3 147/3/3 148/3/3
f 149/3/5 150/3/5 151/3/5 152/3/5
f 148/3/21 147/3/21 150/3/21 149/3/21
f 147/3/2 146/3/2 151/3/2 150/3/2
f 146/3/22 145/3/22 152/3/22 151/3/22
f 145/3/1 148/3/1 149/3/1 152/3/1
f 146/3/3 153/3/3 154/3/3 147/3/3
f 150/3/5 155/3/5 156/3/5 151/3/5
f 147/3/13 154/3/13 155/3/13 150/3/13
f 154/3/2 153/3/2 156/3/2 155/3/2
f 153/3/14 146/3/14 151/3/14 156/3/14
f 153/3/3 157/3/3 158/3/3 154/3/3
f 155/3/5 159/3/5 160/3/5 156/3/5
f 154/3/23 158/3/23 159/3/23 155/3/23
f 158/3/2 157/3/2 160/3/2 159/3/2
f 157/3/24 153/3/24 156/3/24 160/3/24
