# Blender 5.2.0 LTS
# www.blender.org
mtllib FN_Clock_Wall.mtl
o FN_Clock_Wall
v 0.152169 0.110557 0.000000
v 0.129443 0.065954 0.000000
v 0.094046 0.030557 0.000000
v 0.049443 0.007831 0.000000
v -0.000000 0.000000 0.000000
v -0.049443 0.007831 0.000000
v -0.094046 0.030557 0.000000
v -0.129443 0.065954 0.000000
v -0.152169 0.110557 0.000000
v -0.160000 0.160000 0.000000
v -0.152169 0.209443 0.000000
v -0.129443 0.254046 0.000000
v -0.094046 0.289443 0.000000
v -0.049443 0.312169 0.000000
v 0.000000 0.320000 0.000000
v 0.049443 0.312169 0.000000
v 0.094046 0.289443 0.000000
v 0.129443 0.254046 0.000000
v 0.152169 0.209443 0.000000
v 0.160000 0.160000 0.000000
v 0.160000 0.160000 -0.055000
v 0.152169 0.209443 -0.055000
v 0.129443 0.254046 -0.055000
v 0.094046 0.289443 -0.055000
v 0.049443 0.312169 -0.055000
v 0.000000 0.320000 -0.055000
v -0.049443 0.312169 -0.055000
v -0.094046 0.289443 -0.055000
v -0.129443 0.254046 -0.055000
v -0.152169 0.209443 -0.055000
v -0.160000 0.160000 -0.055000
v -0.152169 0.110557 -0.055000
v -0.129443 0.065954 -0.055000
v -0.094046 0.030557 -0.055000
v -0.049443 0.007831 -0.055000
v -0.000000 0.000000 -0.055000
v 0.049443 0.007831 -0.055000
v 0.094046 0.030557 -0.055000
v 0.129443 0.065954 -0.055000
v 0.152169 0.110557 -0.055000
v 0.134000 0.160000 -0.055000
v 0.127442 0.201408 -0.055000
v 0.108408 0.238763 -0.055000
v 0.078763 0.268408 -0.055000
v 0.041408 0.287442 -0.055000
v 0.000000 0.294000 -0.055000
v -0.041408 0.287442 -0.055000
v -0.078763 0.268408 -0.055000
v -0.108408 0.238763 -0.055000
v -0.127442 0.201408 -0.055000
v -0.134000 0.160000 -0.055000
v -0.127442 0.118592 -0.055000
v -0.108408 0.081237 -0.055000
v -0.078763 0.051592 -0.055000
v -0.041408 0.032558 -0.055000
v -0.000000 0.026000 -0.055000
v 0.041408 0.032558 -0.055000
v 0.078763 0.051592 -0.055000
v 0.108408 0.081237 -0.055000
v 0.127442 0.118592 -0.055000
v 0.134000 0.160000 -0.045000
v 0.127442 0.201408 -0.045000
v 0.108408 0.238763 -0.045000
v 0.078763 0.268408 -0.045000
v 0.041408 0.287442 -0.045000
v 0.000000 0.294000 -0.045000
v -0.041408 0.287442 -0.045000
v -0.078763 0.268408 -0.045000
v -0.108408 0.238763 -0.045000
v -0.127442 0.201408 -0.045000
v -0.134000 0.160000 -0.045000
v -0.127442 0.118592 -0.045000
v -0.108408 0.081237 -0.045000
v -0.078763 0.051592 -0.045000
v -0.041408 0.032558 -0.045000
v -0.000000 0.026000 -0.045000
v 0.041408 0.032558 -0.045000
v 0.078763 0.051592 -0.045000
v 0.108408 0.081237 -0.045000
v 0.127442 0.118592 -0.045000
v 0.008000 0.250000 -0.048000
v 0.008000 0.280000 -0.048000
v -0.008000 0.280000 -0.048000
v -0.008000 0.250000 -0.048000
v -0.008000 0.250000 -0.045000
v -0.008000 0.280000 -0.045000
v 0.008000 0.280000 -0.045000
v 0.008000 0.250000 -0.045000
v 0.059196 0.250531 -0.048000
v 0.065196 0.260923 -0.048000
v 0.054804 0.266923 -0.048000
v 0.048804 0.256531 -0.048000
v 0.048804 0.256531 -0.045000
v 0.054804 0.266923 -0.045000
v 0.065196 0.260923 -0.045000
v 0.059196 0.250531 -0.045000
v 0.096531 0.208804 -0.048000
v 0.106923 0.214804 -0.048000
v 0.100923 0.225196 -0.048000
v 0.090531 0.219196 -0.048000
v 0.090531 0.219196 -0.045000
v 0.100923 0.225196 -0.045000
v 0.106923 0.214804 -0.045000
v 0.096531 0.208804 -0.045000
v 0.090000 0.152000 -0.048000
v 0.120000 0.152000 -0.048000
v 0.120000 0.168000 -0.048000
v 0.090000 0.168000 -0.048000
v 0.090000 0.168000 -0.045000
v 0.120000 0.168000 -0.045000
v 0.120000 0.152000 -0.045000
v 0.090000 0.152000 -0.045000
v 0.090531 0.100804 -0.048000
v 0.100923 0.094804 -0.048000
v 0.106923 0.105196 -0.048000
v 0.096531 0.111196 -0.048000
v 0.096531 0.111196 -0.045000
v 0.106923 0.105196 -0.045000
v 0.100923 0.094804 -0.045000
v 0.090531 0.100804 -0.045000
v 0.048804 0.063469 -0.048000
v 0.054804 0.053077 -0.048000
v 0.065196 0.059077 -0.048000
v 0.059196 0.069469 -0.048000
v 0.059196 0.069469 -0.045000
v 0.065196 0.059077 -0.045000
v 0.054804 0.053077 -0.045000
v 0.048804 0.063469 -0.045000
v -0.008000 0.070000 -0.048000
v -0.008000 0.040000 -0.048000
v 0.008000 0.040000 -0.048000
v 0.008000 0.070000 -0.048000
v 0.008000 0.070000 -0.045000
v 0.008000 0.040000 -0.045000
v -0.008000 0.040000 -0.045000
v -0.008000 0.070000 -0.045000
v -0.059196 0.069469 -0.048000
v -0.065196 0.059077 -0.048000
v -0.054804 0.053077 -0.048000
v -0.048804 0.063469 -0.048000
v -0.048804 0.063469 -0.045000
v -0.054804 0.053077 -0.045000
v -0.065196 0.059077 -0.045000
v -0.059196 0.069469 -0.045000
v -0.096531 0.111196 -0.048000
v -0.106923 0.105196 -0.048000
v -0.100923 0.094804 -0.048000
v -0.090531 0.100804 -0.048000
v -0.090531 0.100804 -0.045000
v -0.100923 0.094804 -0.045000
v -0.106923 0.105196 -0.045000
v -0.096531 0.111196 -0.045000
v -0.090000 0.168000 -0.048000
v -0.120000 0.168000 -0.048000
v -0.120000 0.152000 -0.048000
v -0.090000 0.152000 -0.048000
v -0.090000 0.152000 -0.045000
v -0.120000 0.152000 -0.045000
v -0.120000 0.168000 -0.045000
v -0.090000 0.168000 -0.045000
v -0.090531 0.219196 -0.048000
v -0.100923 0.225196 -0.048000
v -0.106923 0.214804 -0.048000
v -0.096531 0.208804 -0.048000
v -0.096531 0.208804 -0.045000
v -0.106923 0.214804 -0.045000
v -0.100923 0.225196 -0.045000
v -0.090531 0.219196 -0.045000
v -0.048804 0.256531 -0.048000
v -0.054804 0.266923 -0.048000
v -0.065196 0.260923 -0.048000
v -0.059196 0.250531 -0.048000
v -0.059196 0.250531 -0.045000
v -0.065196 0.260923 -0.045000
v -0.054804 0.266923 -0.045000
v -0.048804 0.256531 -0.045000
v 0.018275 0.158259 -0.052000
v -0.052344 0.207340 -0.052000
v -0.062617 0.192560 -0.052000
v 0.008002 0.143478 -0.052000
v 0.008002 0.143478 -0.048000
v -0.062617 0.192560 -0.048000
v -0.052344 0.207340 -0.048000
v 0.018275 0.158259 -0.048000
v -0.010356 0.145938 -0.056000
v 0.088370 0.202938 -0.056000
v 0.081370 0.215062 -0.056000
v -0.017356 0.158062 -0.056000
v -0.017356 0.158062 -0.052000
v 0.081370 0.215062 -0.052000
v 0.088370 0.202938 -0.052000
v -0.010356 0.145938 -0.052000
v 0.005181 0.185655 -0.059000
v -0.034991 0.062017 -0.059000
v -0.029285 0.060163 -0.059000
v 0.010888 0.183800 -0.059000
v 0.010888 0.183800 -0.056000
v -0.029285 0.060163 -0.056000
v -0.034991 0.062017 -0.056000
v 0.005181 0.185655 -0.056000
v 0.013000 0.160000 -0.061000
v 0.009192 0.169192 -0.061000
v 0.000000 0.173000 -0.061000
v -0.009192 0.169192 -0.061000
v -0.013000 0.160000 -0.061000
v -0.009192 0.150808 -0.061000
v -0.000000 0.147000 -0.061000
v 0.009192 0.150808 -0.061000
v 0.009192 0.150808 -0.056000
v -0.000000 0.147000 -0.056000
v -0.009192 0.150808 -0.056000
v -0.013000 0.160000 -0.056000
v -0.009192 0.169192 -0.056000
v 0.000000 0.173000 -0.056000
v 0.009192 0.169192 -0.056000
v 0.013000 0.160000 -0.056000
vn -0.0000 -0.0000 -1.0000
vn 0.9877 0.1564 -0.0000
vn 0.8910 0.4540 -0.0000
vn 0.7071 0.7071 -0.0000
vn 0.4540 0.8910 -0.0000
vn 0.1564 0.9877 -0.0000
vn -0.1564 0.9877 -0.0000
vn -0.4540 0.8910 -0.0000
vn -0.7071 0.7071 -0.0000
vn -0.8910 0.4540 -0.0000
vn -0.9877 0.1564 -0.0000
vn -0.9877 -0.1564 -0.0000
vn -0.8910 -0.4540 -0.0000
vn -0.7071 -0.7071 -0.0000
vn -0.4540 -0.8910 -0.0000
vn -0.1564 -0.9877 -0.0000
vn 0.1564 -0.9877 -0.0000
vn 0.4540 -0.8910 -0.0000
vn 0.7071 -0.7071 -0.0000
vn 0.8910 -0.4540 -0.0000
vn 0.9877 -0.1564 -0.0000
vn -0.0000 -0.0000 1.0000
vn 1.0000 -0.0000 -0.0000
vn -0.0000 1.0000 -0.0000
vn -1.0000 -0.0000 -0.0000
vn -0.0000 -1.0000 -0.0000
vn 0.8660 -0.5000 -0.0000
vn 0.5000 0.8660 -0.0000
vn -0.8660 0.5000 -0.0000
vn -0.5000 -0.8660 -0.0000
vn 0.5000 -0.8660 -0.0000
vn 0.8660 0.5000 -0.0000
vn -0.5000 0.8660 -0.0000
vn -0.8660 -0.5000 -0.0000
vn 0.5707 0.8211 -0.0000
vn -0.8211 0.5707 -0.0000
vn -0.5707 -0.8211 -0.0000
vn 0.8211 -0.5707 -0.0000
vn -0.9511 0.3090 -0.0000
vn -0.3090 -0.9511 -0.0000
vn 0.9511 -0.3090 -0.0000
vn 0.3090 0.9511 -0.0000
vn 0.9239 0.3827 -0.0000
vn 0.3827 0.9239 -0.0000
vn -0.3827 0.9239 -0.0000
vn -0.9239 0.3827 -0.0000
vn -0.9239 -0.3827 -0.0000
vn -0.3827 -0.9239 -0.0000
vn 0.3827 -0.9239 -0.0000
vn 0.9239 -0.3827 -0.0000
vt 0.812500 0.312500
vt 0.437500 0.812500
vt 0.937500 0.687500
vt 0.312500 0.062500
s 0
usemtl FN_Atlas
f 1/1/1 2/1/1 3/1/1 4/1/1 5/1/1 6/1/1 7/1/1 8/1/1 9/1/1 10/1/1 11/1/1 12/1/1 13/1/1 14/1/1 15/1/1 16/1/1 17/1/1 18/1/1 19/1/1 20/1/1
f 21/1/2 22/1/2 19/1/2 20/1/2
f 22/1/3 23/1/3 18/1/3 19/1/3
f 23/1/4 24/1/4 17/1/4 18/1/4
f 24/1/5 25/1/5 16/1/5 17/1/5
f 25/1/6 26/1/6 15/1/6 16/1/6
f 26/1/7 27/1/7 14/1/7 15/1/7
f 27/1/8 28/1/8 13/1/8 14/1/8
f 28/1/9 29/1/9 12/1/9 13/1/9
f 29/1/10 30/1/10 11/1/10 12/1/10
f 30/1/11 31/1/11 10/1/11 11/1/11
f 31/1/12 32/1/12 9/1/12 10/1/12
f 32/1/13 33/1/13 8/1/13 9/1/13
f 33/1/14 34/1/14 7/1/14 8/1/14
f 34/1/15 35/1/15 6/1/15 7/1/15
f 35/1/16 36/1/16 5/1/16 6/1/16
f 36/1/17 37/1/17 4/1/17 5/1/17
f 37/1/18 38/1/18 3/1/18 4/1/18
f 38/1/19 39/1/19 2/1/19 3/1/19
f 39/1/20 40/1/20 1/1/20 2/1/20
f 40/1/21 21/1/21 20/1/21 1/1/21
f 41/1/1 42/1/1 22/1/1 21/1/1
f 42/1/1 43/1/1 23/1/1 22/1/1
f 43/1/1 44/1/1 24/1/1 23/1/1
f 44/1/1 45/1/1 25/1/1 24/1/1
f 45/1/1 46/1/1 26/1/1 25/1/1
f 46/1/1 47/1/1 27/1/1 26/1/1
f 47/1/1 48/1/1 28/1/1 27/1/1
f 48/1/1 49/1/1 29/1/1 28/1/1
f 49/1/1 50/1/1 30/1/1 29/1/1
f 50/1/1 51/1/1 31/1/1 30/1/1
f 51/1/1 52/1/1 32/1/1 31/1/1
f 52/1/1 53/1/1 33/1/1 32/1/1
f 53/1/1 54/1/1 34/1/1 33/1/1
f 54/1/1 55/1/1 35/1/1 34/1/1
f 55/1/1 56/1/1 36/1/1 35/1/1
f 56/1/1 57/1/1 37/1/1 36/1/1
f 57/1/1 58/1/1 38/1/1 37/1/1
f 58/1/1 59/1/1 39/1/1 38/1/1
f 59/1/1 60/1/1 40/1/1 39/1/1
f 60/1/1 41/1/1 21/1/1 40/1/1
f 61/1/12 62/1/12 42/1/12 41/1/12
f 62/1/13 63/1/13 43/1/13 42/1/13
f 63/1/14 64/1/14 44/1/14 43/1/14
f 64/1/15 65/1/15 45/1/15 44/1/15
f 65/1/16 66/1/16 46/1/16 45/1/16
f 66/1/17 67/1/17 47/1/17 46/1/17
f 67/1/18 68/1/18 48/1/18 47/1/18
f 68/1/19 69/1/19 49/1/19 48/1/19
f 69/1/20 70/1/20 50/1/20 49/1/20
f 70/1/21 71/1/21 51/1/21 50/1/21
f 71/1/2 72/1/2 52/1/2 51/1/2
f 72/1/3 73/1/3 53/1/3 52/1/3
f 73/1/4 74/1/4 54/1/4 53/1/4
f 74/1/5 75/1/5 55/1/5 54/1/5
f 75/1/6 76/1/6 56/1/6 55/1/6
f 76/1/7 77/1/7 57/1/7 56/1/7
f 77/1/8 78/1/8 58/1/8 57/1/8
f 78/1/9 79/1/9 59/1/9 58/1/9
f 79/1/10 80/1/10 60/1/10 59/1/10
f 80/1/11 61/1/11 41/1/11 60/1/11
f 61/2/22 62/2/22 63/2/22 64/2/22 65/2/22 66/2/22 67/2/22 68/2/22 69/2/22 70/2/22 71/2/22 72/2/22 73/2/22 74/2/22 75/2/22 76/2/22 77/2/22 78/2/22 79/2/22 80/2/22
f 81/3/22 82/3/22 83/3/22 84/3/22
f 85/3/1 86/3/1 87/3/1 88/3/1
f 81/3/23 82/3/23 87/3/23 88/3/23
f 82/3/24 83/3/24 86/3/24 87/3/24
f 83/3/25 84/3/25 85/3/25 86/3/25
f 84/3/26 81/3/26 88/3/26 85/3/26
f 89/3/22 90/3/22 91/3/22 92/3/22
f 93/3/1 94/3/1 95/3/1 96/3/1
f 89/3/27 90/3/27 95/3/27 96/3/27
f 90/3/28 91/3/28 94/3/28 95/3/28
f 91/3/29 92/3/29 93/3/29 94/3/29
f 92/3/30 89/3/30 96/3/30 93/3/30
f 97/3/22 98/3/22 99/3/22 100/3/22
f 101/3/1 102/3/1 103/3/1 104/3/1
f 97/3/31 98/3/31 103/3/31 104/3/31
f 98/3/32 99/3/32 102/3/32 103/3/32
f 99/3/33 100/3/33 101/3/33 102/3/33
f 100/3/34 97/3/34 104/3/34 101/3/34
f 105/3/22 106/3/22 107/3/22 108/3/22
f 109/3/1 110/3/1 111/3/1 112/3/1
f 105/3/26 106/3/26 111/3/26 112/3/26
f 106/3/23 107/3/23 110/3/23 111/3/23
f 107/3/24 108/3/24 109/3/24 110/3/24
f 108/3/25 105/3/25 112/3/25 109/3/25
f 113/3/22 114/3/22 115/3/22 116/3/22
f 117/3/1 118/3/1 119/3/1 120/3/1
f 113/3/30 114/3/30 119/3/30 120/3/30
f 114/3/27 115/3/27 118/3/27 119/3/27
f 115/3/28 116/3/28 117/3/28 118/3/28
f 116/3/29 113/3/29 120/3/29 117/3/29
f 121/3/22 122/3/22 123/3/22 124/3/22
f 125/3/1 126/3/1 127/3/1 128/3/1
f 121/3/34 122/3/34 127/3/34 128/3/34
f 122/3/31 123/3/31 126/3/31 127/3/31
f 123/3/32 124/3/32 125/3/32 126/3/32
f 124/3/33 121/3/33 128/3/33 125/3/33
f 129/3/22 130/3/22 131/3/22 132/3/22
f 133/3/1 134/3/1 135/3/1 136/3/1
f 129/3/25 130/3/25 135/3/25 136/3/25
f 130/3/26 131/3/26 134/3/26 135/3/26
f 131/3/23 132/3/23 133/3/23 134/3/23
f 132/3/24 129/3/24 136/3/24 133/3/24
f 137/3/22 138/3/22 139/3/22 140/3/22
f 141/3/1 142/3/1 143/3/1 144/3/1
f 137/3/29 138/3/29 143/3/29 144/3/29
f 138/3/30 139/3/30 142/3/30 143/3/30
f 139/3/27 140/3/27 141/3/27 142/3/27
f 140/3/28 137/3/28 144/3/28 141/3/28
f 145/3/22 146/3/22 147/3/22 148/3/22
f 149/3/1 150/3/1 151/3/1 152/3/1
f 145/3/33 146/3/33 151/3/33 152/3/33
f 146/3/34 147/3/34 150/3/34 151/3/34
f 147/3/31 148/3/31 149/3/31 150/3/31
f 148/3/32 145/3/32 152/3/32 149/3/32
f 153/3/22 154/3/22 155/3/22 156/3/22
f 157/3/1 158/3/1 159/3/1 160/3/1
f 153/3/24 154/3/24 159/3/24 160/3/24
f 154/3/25 155/3/25 158/3/25 159/3/25
f 155/3/26 156/3/26 157/3/26 158/3/26
f 156/3/23 153/3/23 160/3/23 157/3/23
f 161/3/22 162/3/22 163/3/22 164/3/22
f 165/3/1 166/3/1 167/3/1 168/3/1
f 161/3/28 162/3/28 167/3/28 168/3/28
f 162/3/29 163/3/29 166/3/29 167/3/29
f 163/3/30 164/3/30 165/3/30 166/3/30
f 164/3/27 161/3/27 168/3/27 165/3/27
f 169/3/22 170/3/22 171/3/22 172/3/22
f 173/3/1 174/3/1 175/3/1 176/3/1
f 169/3/32 170/3/32 175/3/32 176/3/32
f 170/3/33 171/3/33 174/3/33 175/3/33
f 171/3/34 172/3/34 173/3/34 174/3/34
f 172/3/31 169/3/31 176/3/31 173/3/31
f 177/3/22 178/3/22 179/3/22 180/3/22
f 181/3/1 182/3/1 183/3/1 184/3/1
f 177/3/35 178/3/35 183/3/35 184/3/35
f 178/3/36 179/3/36 182/3/36 183/3/36
f 179/3/37 180/3/37 181/3/37 182/3/37
f 180/3/38 177/3/38 184/3/38 181/3/38
f 185/3/22 186/3/22 187/3/22 188/3/22
f 189/3/1 190/3/1 191/3/1 192/3/1
f 185/3/31 186/3/31 191/3/31 192/3/31
f 186/3/32 187/3/32 190/3/32 191/3/32
f 187/3/33 188/3/33 189/3/33 190/3/33
f 188/3/34 185/3/34 192/3/34 189/3/34
f 193/4/22 194/4/22 195/4/22 196/4/22
f 197/4/1 198/4/1 199/4/1 200/4/1
f 193/4/39 194/4/39 199/4/39 200/4/39
f 194/4/40 195/4/40 198/4/40 199/4/40
f 195/4/41 196/4/41 197/4/41 198/4/41
f 196/4/42 193/4/42 200/4/42 197/4/42
f 201/4/22 202/4/22 203/4/22 204/4/22 205/4/22 206/4/22 207/4/22 208/4/22
f 209/4/1 210/4/1 211/4/1 212/4/1 213/4/1 214/4/1 215/4/1 216/4/1
f 201/4/43 202/4/43 215/4/43 216/4/43
f 202/4/44 203/4/44 214/4/44 215/4/44
f 203/4/45 204/4/45 213/4/45 214/4/45
f 204/4/46 205/4/46 212/4/46 213/4/46
f 205/4/47 206/4/47 211/4/47 212/4/47
f 206/4/48 207/4/48 210/4/48 211/4/48
f 207/4/49 208/4/49 209/4/49 210/4/49
f 208/4/50 201/4/50 216/4/50 209/4/50
