# Blender 5.2.0 LTS
# www.blender.org
mtllib FN_Chair_Wingback.mtl
o FN_Chair_Wingback
v -0.308584 0.000000 0.391107
v -0.320584 0.000000 0.399825
v -0.335416 0.000000 0.399825
v -0.347416 0.000000 0.391107
v -0.352000 0.000000 0.377000
v -0.347416 0.000000 0.362893
v -0.335416 0.000000 0.354175
v -0.320584 0.000000 0.354175
v -0.308584 0.000000 0.362893
v -0.304000 0.000000 0.377000
v -0.294000 0.176000 0.377000
v -0.300493 0.176000 0.357015
v -0.317493 0.176000 0.344664
v -0.338507 0.176000 0.344664
v -0.355507 0.176000 0.357015
v -0.362000 0.176000 0.377000
v -0.355507 0.176000 0.396985
v -0.338507 0.176000 0.409336
v -0.317493 0.176000 0.409336
v -0.300493 0.176000 0.396985
v -0.305348 0.014000 0.360542
v -0.300000 0.014000 0.377000
v -0.319348 0.014000 0.350370
v -0.336652 0.014000 0.350370
v -0.350652 0.014000 0.360542
v -0.356000 0.014000 0.377000
v -0.350652 0.014000 0.393458
v -0.336652 0.014000 0.403630
v -0.319348 0.014000 0.403630
v -0.305348 0.014000 0.393458
v -0.310202 0.030000 0.364069
v -0.306000 0.030000 0.377000
v -0.321202 0.030000 0.356077
v -0.334798 0.030000 0.356077
v -0.345798 0.030000 0.364069
v -0.350000 0.030000 0.377000
v -0.345798 0.030000 0.389931
v -0.334798 0.030000 0.397923
v -0.321202 0.030000 0.397923
v -0.310202 0.030000 0.389931
v -0.306966 0.058000 0.361718
v -0.302000 0.058000 0.377000
v -0.319966 0.058000 0.352273
v -0.336034 0.058000 0.352273
v -0.349034 0.058000 0.361718
v -0.354000 0.058000 0.377000
v -0.349034 0.058000 0.392282
v -0.336034 0.058000 0.401727
v -0.319966 0.058000 0.401727
v -0.306966 0.058000 0.392282
v -0.298875 0.072000 0.355840
v -0.292000 0.072000 0.377000
v -0.316875 0.072000 0.342762
v -0.339125 0.072000 0.342762
v -0.357125 0.072000 0.355840
v -0.364000 0.072000 0.377000
v -0.357125 0.072000 0.398160
v -0.339125 0.072000 0.411238
v -0.316875 0.072000 0.411238
v -0.298875 0.072000 0.398160
v -0.298875 0.092000 0.355840
v -0.292000 0.092000 0.377000
v -0.316875 0.092000 0.342762
v -0.339125 0.092000 0.342762
v -0.357125 0.092000 0.355840
v -0.364000 0.092000 0.377000
v -0.357125 0.092000 0.398160
v -0.339125 0.092000 0.411238
v -0.316875 0.092000 0.411238
v -0.298875 0.092000 0.398160
v -0.305348 0.108000 0.360542
v -0.300000 0.108000 0.377000
v -0.319348 0.108000 0.350370
v -0.336652 0.108000 0.350370
v -0.350652 0.108000 0.360542
v -0.356000 0.108000 0.377000
v -0.350652 0.108000 0.393458
v -0.336652 0.108000 0.403630
v -0.319348 0.108000 0.403630
v -0.305348 0.108000 0.393458
v -0.303730 0.150000 0.359366
v -0.298000 0.150000 0.377000
v -0.318729 0.150000 0.348468
v -0.337270 0.150000 0.348468
v -0.352271 0.150000 0.359366
v -0.358000 0.150000 0.377000
v -0.352271 0.150000 0.394634
v -0.337270 0.150000 0.405532
v -0.318729 0.150000 0.405532
v -0.303730 0.150000 0.394634
v -0.343000 0.000000 -0.352000
v -0.301000 0.000000 -0.352000
v -0.301000 0.000000 -0.310000
v -0.343000 0.000000 -0.310000
v -0.351000 0.176000 -0.302000
v -0.293000 0.176000 -0.302000
v -0.293000 0.176000 -0.360000
v -0.351000 0.176000 -0.360000
v 0.347416 0.000000 0.391107
v 0.335416 0.000000 0.399825
v 0.320584 0.000000 0.399825
v 0.308584 0.000000 0.391107
v 0.304000 0.000000 0.377000
v 0.308584 0.000000 0.362893
v 0.320584 0.000000 0.354175
v 0.335416 0.000000 0.354175
v 0.347416 0.000000 0.362893
v 0.352000 0.000000 0.377000
v 0.362000 0.176000 0.377000
v 0.355507 0.176000 0.357015
v 0.338507 0.176000 0.344664
v 0.317493 0.176000 0.344664
v 0.300493 0.176000 0.357015
v 0.294000 0.176000 0.377000
v 0.300493 0.176000 0.396985
v 0.317493 0.176000 0.409336
v 0.338507 0.176000 0.409336
v 0.355507 0.176000 0.396985
v 0.350652 0.014000 0.360542
v 0.356000 0.014000 0.377000
v 0.336652 0.014000 0.350370
v 0.319348 0.014000 0.350370
v 0.305348 0.014000 0.360542
v 0.300000 0.014000 0.377000
v 0.305348 0.014000 0.393458
v 0.319348 0.014000 0.403630
v 0.336652 0.014000 0.403630
v 0.350652 0.014000 0.393458
v 0.345798 0.030000 0.364069
v 0.350000 0.030000 0.377000
v 0.334798 0.030000 0.356077
v 0.321202 0.030000 0.356077
v 0.310202 0.030000 0.364069
v 0.306000 0.030000 0.377000
v 0.310202 0.030000 0.389931
v 0.321202 0.030000 0.397923
v 0.334798 0.030000 0.397923
v 0.345798 0.030000 0.389931
v 0.349034 0.058000 0.361718
v 0.354000 0.058000 0.377000
v 0.336034 0.058000 0.352273
v 0.319966 0.058000 0.352273
v 0.306966 0.058000 0.361718
v 0.302000 0.058000 0.377000
v 0.306966 0.058000 0.392282
v 0.319966 0.058000 0.401727
v 0.336034 0.058000 0.401727
v 0.349034 0.058000 0.392282
v 0.357125 0.072000 0.355840
v 0.364000 0.072000 0.377000
v 0.339125 0.072000 0.342762
v 0.316875 0.072000 0.342762
v 0.298875 0.072000 0.355840
v 0.292000 0.072000 0.377000
v 0.298875 0.072000 0.398160
v 0.316875 0.072000 0.411238
v 0.339125 0.072000 0.411238
v 0.357125 0.072000 0.398160
v 0.357125 0.092000 0.355840
v 0.364000 0.092000 0.377000
v 0.339125 0.092000 0.342762
v 0.316875 0.092000 0.342762
v 0.298875 0.092000 0.355840
v 0.292000 0.092000 0.377000
v 0.298875 0.092000 0.398160
v 0.316875 0.092000 0.411238
v 0.339125 0.092000 0.411238
v 0.357125 0.092000 0.398160
v 0.350652 0.108000 0.360542
v 0.356000 0.108000 0.377000
v 0.336652 0.108000 0.350370
v 0.319348 0.108000 0.350370
v 0.305348 0.108000 0.360542
v 0.300000 0.108000 0.377000
v 0.305348 0.108000 0.393458
v 0.319348 0.108000 0.403630
v 0.336652 0.108000 0.403630
v 0.350652 0.108000 0.393458
v 0.352271 0.150000 0.359366
v 0.358000 0.150000 0.377000
v 0.337270 0.150000 0.348468
v 0.318729 0.150000 0.348468
v 0.303730 0.150000 0.359366
v 0.298000 0.150000 0.377000
v 0.303730 0.150000 0.394634
v 0.318729 0.150000 0.405532
v 0.337270 0.150000 0.405532
v 0.352271 0.150000 0.394634
v 0.301000 0.000000 -0.352000
v 0.343000 0.000000 -0.352000
v 0.343000 0.000000 -0.310000
v 0.301000 0.000000 -0.310000
v 0.293000 0.176000 -0.302000
v 0.351000 0.176000 -0.302000
v 0.351000 0.176000 -0.360000
v 0.293000 0.176000 -0.360000
v -0.328363 0.176000 0.452455
v -0.363337 0.176000 0.443084
v -0.388939 0.176000 0.417481
v -0.398310 0.176000 0.382508
v -0.398310 0.176000 -0.332508
v -0.388939 0.176000 -0.367481
v -0.363337 0.176000 -0.393084
v -0.328363 0.176000 -0.402455
v 0.328363 0.176000 -0.402455
v 0.363337 0.176000 -0.393084
v 0.388939 0.176000 -0.367481
v 0.398310 0.176000 -0.332508
v 0.398310 0.176000 0.382508
v 0.388939 0.176000 0.417481
v 0.363337 0.176000 0.443084
v 0.328363 0.176000 0.452455
v 0.374000 0.198000 0.455354
v 0.338000 0.198000 0.465000
v 0.400354 0.198000 0.429000
v 0.410000 0.198000 0.393000
v 0.410000 0.198000 -0.343000
v 0.400354 0.198000 -0.379000
v 0.374000 0.198000 -0.405354
v 0.338000 0.198000 -0.415000
v -0.338000 0.198000 -0.415000
v -0.374000 0.198000 -0.405354
v -0.400354 0.198000 -0.379000
v -0.410000 0.198000 -0.343000
v -0.410000 0.198000 0.393000
v -0.400354 0.198000 0.429000
v -0.374000 0.198000 0.455354
v -0.338000 0.198000 0.465000
v 0.374000 0.364000 0.455354
v 0.338000 0.364000 0.465000
v 0.400354 0.364000 0.429000
v 0.410000 0.364000 0.393000
v 0.410000 0.364000 -0.343000
v 0.400354 0.364000 -0.379000
v 0.374000 0.364000 -0.405354
v 0.338000 0.364000 -0.415000
v -0.338000 0.364000 -0.415000
v -0.374000 0.364000 -0.405354
v -0.400354 0.364000 -0.379000
v -0.410000 0.364000 -0.343000
v -0.410000 0.364000 0.393000
v -0.400354 0.364000 0.429000
v -0.374000 0.364000 0.455354
v -0.338000 0.364000 0.465000
v 0.338000 0.368000 0.465000
v 0.374000 0.368000 0.455354
v 0.400354 0.368000 0.429000
v 0.410000 0.368000 0.393000
v 0.410000 0.368000 -0.343000
v 0.400354 0.368000 -0.379000
v 0.374000 0.368000 -0.405354
v 0.338000 0.368000 -0.415000
v -0.338000 0.368000 -0.415000
v -0.374000 0.368000 -0.405354
v -0.400354 0.368000 -0.379000
v -0.410000 0.368000 -0.343000
v -0.410000 0.368000 0.393000
v -0.400354 0.368000 0.429000
v -0.374000 0.368000 0.455354
v -0.338000 0.368000 0.465000
v -0.330000 0.338000 0.453000
v -0.301000 0.338000 0.445229
v -0.301000 0.602000 0.445229
v -0.330000 0.602000 0.453000
v -0.279771 0.338000 0.424000
v -0.279771 0.602000 0.424000
v -0.272000 0.338000 0.395000
v -0.272000 0.602000 0.395000
v -0.272000 0.338000 -0.329000
v -0.272000 0.602000 -0.329000
v -0.279771 0.338000 -0.358000
v -0.279771 0.602000 -0.358000
v -0.301000 0.338000 -0.379229
v -0.301000 0.602000 -0.379229
v -0.330000 0.338000 -0.387000
v -0.330000 0.602000 -0.387000
v -0.350000 0.338000 -0.387000
v -0.350000 0.602000 -0.387000
v -0.379000 0.338000 -0.379229
v -0.379000 0.602000 -0.379229
v -0.400229 0.338000 -0.358000
v -0.400229 0.602000 -0.358000
v -0.408000 0.338000 -0.329000
v -0.408000 0.602000 -0.329000
v -0.408000 0.338000 0.395000
v -0.408000 0.602000 0.395000
v -0.400229 0.338000 0.424000
v -0.400229 0.602000 0.424000
v -0.379000 0.338000 0.445229
v -0.379000 0.602000 0.445229
v -0.350000 0.338000 0.453000
v -0.350000 0.602000 0.453000
v -0.330801 0.648000 0.419361
v -0.304124 0.648000 0.412213
v -0.284595 0.648000 0.392683
v -0.277446 0.648000 0.366006
v -0.277446 0.648000 -0.300006
v -0.284595 0.648000 -0.326683
v -0.304124 0.648000 -0.346213
v -0.330801 0.648000 -0.353361
v -0.349199 0.648000 -0.353361
v -0.375876 0.648000 -0.346213
v -0.395405 0.648000 -0.326683
v -0.402554 0.648000 -0.300006
v -0.402554 0.648000 0.366006
v -0.395405 0.648000 0.392683
v -0.375876 0.648000 0.412213
v -0.349199 0.648000 0.419361
v 0.350000 0.338000 0.453000
v 0.379000 0.338000 0.445229
v 0.379000 0.602000 0.445229
v 0.350000 0.602000 0.453000
v 0.400229 0.338000 0.424000
v 0.400229 0.602000 0.424000
v 0.408000 0.338000 0.395000
v 0.408000 0.602000 0.395000
v 0.408000 0.338000 -0.329000
v 0.408000 0.602000 -0.329000
v 0.400229 0.338000 -0.358000
v 0.400229 0.602000 -0.358000
v 0.379000 0.338000 -0.379229
v 0.379000 0.602000 -0.379229
v 0.350000 0.338000 -0.387000
v 0.350000 0.602000 -0.387000
v 0.330000 0.338000 -0.387000
v 0.330000 0.602000 -0.387000
v 0.301000 0.338000 -0.379229
v 0.301000 0.602000 -0.379229
v 0.279771 0.338000 -0.358000
v 0.279771 0.602000 -0.358000
v 0.272000 0.338000 -0.329000
v 0.272000 0.602000 -0.329000
v 0.272000 0.338000 0.395000
v 0.272000 0.602000 0.395000
v 0.279771 0.338000 0.424000
v 0.279771 0.602000 0.424000
v 0.301000 0.338000 0.445229
v 0.301000 0.602000 0.445229
v 0.330000 0.338000 0.453000
v 0.330000 0.602000 0.453000
v 0.349199 0.648000 0.419361
v 0.375876 0.648000 0.412213
v 0.395405 0.648000 0.392683
v 0.402554 0.648000 0.366006
v 0.402554 0.648000 -0.300006
v 0.395405 0.648000 -0.326683
v 0.375876 0.648000 -0.346213
v 0.349199 0.648000 -0.353361
v 0.330801 0.648000 -0.353361
v 0.304124 0.648000 -0.346213
v 0.284595 0.648000 -0.326683
v 0.277446 0.648000 -0.300006
v 0.277446 0.648000 0.366006
v 0.284595 0.648000 0.392683
v 0.304124 0.648000 0.412213
v 0.330801 0.648000 0.419361
v 0.348000 0.338000 -0.265000
v 0.379000 0.338000 -0.273306
v 0.356000 1.048000 -0.340503
v 0.328000 1.048000 -0.333000
v 0.401694 0.338000 -0.296000
v 0.376497 1.048000 -0.361000
v 0.410000 0.338000 -0.327000
v 0.384000 1.048000 -0.389000
v 0.410000 0.338000 -0.353000
v 0.384000 1.048000 -0.409000
v 0.401694 0.338000 -0.384000
v 0.376497 1.048000 -0.437000
v 0.379000 0.338000 -0.406694
v 0.356000 1.048000 -0.457497
v 0.348000 0.338000 -0.415000
v 0.328000 1.048000 -0.465000
v -0.348000 0.338000 -0.415000
v -0.328000 1.048000 -0.465000
v -0.379000 0.338000 -0.406694
v -0.356000 1.048000 -0.457497
v -0.401694 0.338000 -0.384000
v -0.376497 1.048000 -0.437000
v -0.410000 0.338000 -0.353000
v -0.384000 1.048000 -0.409000
v -0.410000 0.338000 -0.327000
v -0.384000 1.048000 -0.389000
v -0.401694 0.338000 -0.296000
v -0.376497 1.048000 -0.361000
v -0.379000 0.338000 -0.273306
v -0.356000 1.048000 -0.340503
v -0.348000 0.338000 -0.265000
v -0.328000 1.048000 -0.333000
v 0.295602 1.100000 -0.339519
v 0.320837 1.100000 -0.346281
v 0.339310 1.100000 -0.364753
v 0.346071 1.100000 -0.389988
v 0.346071 1.100000 -0.408012
v 0.339310 1.100000 -0.433247
v 0.320837 1.100000 -0.451719
v 0.295602 1.100000 -0.458481
v -0.295602 1.100000 -0.458481
v -0.320837 1.100000 -0.451719
v -0.339310 1.100000 -0.433247
v -0.346071 1.100000 -0.408012
v -0.346071 1.100000 -0.389988
v -0.339310 1.100000 -0.364753
v -0.320837 1.100000 -0.346281
v -0.295602 1.100000 -0.339519
v -0.324000 0.690000 0.065000
v -0.297130 0.690000 0.053870
v -0.285373 1.042000 -0.116373
v -0.308000 1.042000 -0.107000
v -0.286000 0.690000 0.027000
v -0.276000 1.042000 -0.139000
v -0.286000 0.690000 -0.309000
v -0.276000 1.042000 -0.329000
v -0.297130 0.690000 -0.335870
v -0.285373 1.042000 -0.351627
v -0.324000 0.690000 -0.347000
v -0.308000 1.042000 -0.361000
v -0.372000 0.690000 -0.347000
v -0.340000 1.042000 -0.361000
v -0.398870 0.690000 -0.335870
v -0.362627 1.042000 -0.351627
v -0.410000 0.690000 -0.309000
v -0.372000 1.042000 -0.329000
v -0.410000 0.690000 0.027000
v -0.372000 1.042000 -0.139000
v -0.398870 0.690000 0.053870
v -0.362627 1.042000 -0.116373
v -0.372000 0.690000 0.065000
v -0.340000 1.042000 -0.107000
v -0.312020 1.084000 -0.138905
v -0.295077 1.084000 -0.145923
v -0.288059 1.084000 -0.162866
v -0.288059 1.084000 -0.305134
v -0.295077 1.084000 -0.322077
v -0.312020 1.084000 -0.329095
v -0.335980 1.084000 -0.329095
v -0.352923 1.084000 -0.322077
v -0.359941 1.084000 -0.305134
v -0.359941 1.084000 -0.162866
v -0.352923 1.084000 -0.145923
v -0.335980 1.084000 -0.138905
v 0.372000 0.690000 0.065000
v 0.398870 0.690000 0.053870
v 0.362627 1.042000 -0.116373
v 0.340000 1.042000 -0.107000
v 0.410000 0.690000 0.027000
v 0.372000 1.042000 -0.139000
v 0.410000 0.690000 -0.309000
v 0.372000 1.042000 -0.329000
v 0.398870 0.690000 -0.335870
v 0.362627 1.042000 -0.351627
v 0.372000 0.690000 -0.347000
v 0.340000 1.042000 -0.361000
v 0.324000 0.690000 -0.347000
v 0.308000 1.042000 -0.361000
v 0.297130 0.690000 -0.335870
v 0.285373 1.042000 -0.351627
v 0.286000 0.690000 -0.309000
v 0.276000 1.042000 -0.329000
v 0.286000 0.690000 0.027000
v 0.276000 1.042000 -0.139000
v 0.297130 0.690000 0.053870
v 0.285373 1.042000 -0.116373
v 0.324000 0.690000 0.065000
v 0.308000 1.042000 -0.107000
v 0.335980 1.084000 -0.138905
v 0.352923 1.084000 -0.145923
v 0.359941 1.084000 -0.162866
v 0.359941 1.084000 -0.305134
v 0.352923 1.084000 -0.322077
v 0.335980 1.084000 -0.329095
v 0.312020 1.084000 -0.329095
v 0.295077 1.084000 -0.322077
v 0.288059 1.084000 -0.305134
v 0.288059 1.084000 -0.162866
v 0.295077 1.084000 -0.145923
v 0.312020 1.084000 -0.138905
v -0.229622 0.368000 0.366928
v -0.256981 0.368000 0.359598
v -0.277010 0.368000 0.339569
v -0.284340 0.368000 0.312210
v -0.284340 0.368000 -0.182210
v -0.277010 0.368000 -0.209569
v -0.256981 0.368000 -0.229598
v -0.229622 0.368000 -0.236928
v 0.229622 0.368000 -0.236928
v 0.256981 0.368000 -0.229598
v 0.277010 0.368000 -0.209569
v 0.284340 0.368000 -0.182210
v 0.284340 0.368000 0.312210
v 0.277010 0.368000 0.339569
v 0.256981 0.368000 0.359598
v 0.229622 0.368000 0.366928
v 0.263000 0.377000 0.366497
v 0.235000 0.377000 0.374000
v 0.283497 0.377000 0.346000
v 0.291000 0.377000 0.318000
v 0.291000 0.377000 -0.188000
v 0.283497 0.377000 -0.216000
v 0.263000 0.377000 -0.236497
v 0.235000 0.377000 -0.244000
v -0.235000 0.377000 -0.244000
v -0.263000 0.377000 -0.236497
v -0.283497 0.377000 -0.216000
v -0.291000 0.377000 -0.188000
v -0.291000 0.377000 0.318000
v -0.283497 0.377000 0.346000
v -0.263000 0.377000 0.366497
v -0.235000 0.377000 0.374000
v 0.263000 0.405000 0.366497
v 0.235000 0.405000 0.374000
v 0.283497 0.405000 0.346000
v 0.291000 0.405000 0.318000
v 0.291000 0.405000 -0.188000
v 0.283497 0.405000 -0.216000
v 0.263000 0.405000 -0.236497
v 0.235000 0.405000 -0.244000
v -0.235000 0.405000 -0.244000
v -0.263000 0.405000 -0.236497
v -0.283497 0.405000 -0.216000
v -0.291000 0.405000 -0.188000
v -0.291000 0.405000 0.318000
v -0.283497 0.405000 0.346000
v -0.263000 0.405000 0.366497
v -0.235000 0.405000 0.374000
v 0.222451 0.420000 0.357500
v 0.248956 0.420000 0.350398
v 0.268359 0.420000 0.330995
v 0.275461 0.420000 0.304490
v 0.275461 0.420000 -0.174490
v 0.268359 0.420000 -0.200995
v 0.248956 0.420000 -0.220398
v 0.222451 0.420000 -0.227500
v -0.222451 0.420000 -0.227500
v -0.248956 0.420000 -0.220398
v -0.268359 0.420000 -0.200995
v -0.275461 0.420000 -0.174490
v -0.275461 0.420000 0.304490
v -0.268359 0.420000 0.330995
v -0.248956 0.420000 0.350398
v -0.222451 0.420000 0.357500
v -0.209730 0.416000 -0.143301
v -0.239554 0.416000 -0.151292
v -0.261386 0.416000 -0.173124
v -0.269378 0.416000 -0.202948
v -0.269378 0.416000 -0.251052
v -0.261386 0.416000 -0.280876
v -0.239554 0.416000 -0.302708
v -0.209730 0.416000 -0.310699
v 0.209730 0.416000 -0.310699
v 0.239554 0.416000 -0.302708
v 0.261386 0.416000 -0.280876
v 0.269378 0.416000 -0.251052
v 0.269378 0.416000 -0.202948
v 0.261386 0.416000 -0.173124
v 0.239554 0.416000 -0.151292
v 0.209730 0.416000 -0.143301
v 0.249000 0.430000 -0.148306
v 0.218000 0.430000 -0.140000
v 0.271694 0.430000 -0.171000
v 0.280000 0.430000 -0.202000
v 0.280000 0.430000 -0.252000
v 0.271694 0.430000 -0.283000
v 0.249000 0.430000 -0.305694
v 0.218000 0.430000 -0.314000
v -0.218000 0.430000 -0.314000
v -0.249000 0.430000 -0.305694
v -0.271694 0.430000 -0.283000
v -0.280000 0.430000 -0.252000
v -0.280000 0.430000 -0.202000
v -0.271694 0.430000 -0.171000
v -0.249000 0.430000 -0.148306
v -0.218000 0.430000 -0.140000
v 0.237000 0.760000 -0.208771
v 0.208000 0.760000 -0.201000
v 0.258229 0.760000 -0.230000
v 0.266000 0.760000 -0.259000
v 0.266000 0.760000 -0.303000
v 0.258229 0.760000 -0.332000
v 0.237000 0.760000 -0.353229
v 0.208000 0.760000 -0.361000
v -0.208000 0.760000 -0.361000
v -0.237000 0.760000 -0.353229
v -0.258229 0.760000 -0.332000
v -0.266000 0.760000 -0.303000
v -0.266000 0.760000 -0.259000
v -0.258229 0.760000 -0.230000
v -0.237000 0.760000 -0.208771
v -0.208000 0.760000 -0.201000
v 0.183059 0.790000 -0.210593
v 0.208581 0.790000 -0.217432
v 0.227265 0.790000 -0.236115
v 0.234104 0.790000 -0.261638
v 0.234104 0.790000 -0.300362
v 0.227265 0.790000 -0.325885
v 0.208581 0.790000 -0.344568
v 0.183059 0.790000 -0.351407
v -0.183059 0.790000 -0.351407
v -0.208581 0.790000 -0.344568
v -0.227265 0.790000 -0.325885
v -0.234104 0.790000 -0.300362
v -0.234104 0.790000 -0.261638
v -0.227265 0.790000 -0.236115
v -0.208581 0.790000 -0.217432
v -0.183059 0.790000 -0.210593
vn -0.0000 -1.0000 -0.0000
vn -0.0000 1.0000 -0.0000
vn 0.9178 -0.2622 -0.2982
vn 0.5672 -0.2622 -0.7807
vn -0.0000 -0.2622 -0.9650
vn -0.5672 -0.2622 -0.7807
vn -0.9178 -0.2622 -0.2982
vn -0.9178 -0.2622 0.2982
vn -0.5672 -0.2622 0.7807
vn -0.0000 -0.2622 0.9650
vn 0.5672 -0.2622 0.7807
vn 0.9178 -0.2622 0.2982
vn 0.8958 0.3359 -0.2911
vn 0.5536 0.3359 -0.7620
vn -0.0000 0.3359 -0.9419
vn -0.5536 0.3359 -0.7620
vn -0.8958 0.3359 -0.2911
vn -0.8958 0.3359 0.2911
vn -0.5536 0.3359 0.7620
vn -0.0000 0.3359 0.9419
vn 0.5536 0.3359 0.7620
vn 0.8958 0.3359 0.2911
vn 0.9424 -0.1346 -0.3062
vn 0.5824 -0.1346 -0.8017
vn -0.0000 -0.1346 -0.9909
vn -0.5824 -0.1346 -0.8017
vn -0.9424 -0.1346 -0.3062
vn -0.9424 -0.1346 0.3062
vn -0.5824 -0.1346 0.8017
vn -0.0000 -0.1346 0.9909
vn 0.5824 -0.1346 0.8017
vn 0.9424 -0.1346 0.3062
vn 0.7867 -0.5619 -0.2556
vn 0.4862 -0.5619 -0.6692
vn -0.0000 -0.5619 -0.8272
vn -0.4862 -0.5619 -0.6692
vn -0.7867 -0.5619 -0.2556
vn -0.7867 -0.5619 0.2556
vn -0.4862 -0.5619 0.6692
vn -0.0000 -0.5619 0.8272
vn 0.4862 -0.5619 0.6692
vn 0.7867 -0.5619 0.2556
vn 0.9511 -0.0000 -0.3090
vn 0.5878 -0.0000 -0.8090
vn -0.0000 -0.0000 -1.0000
vn -0.5878 -0.0000 -0.8090
vn -0.9511 -0.0000 -0.3090
vn -0.9511 -0.0000 0.3090
vn -0.5878 -0.0000 0.8090
vn -0.0000 -0.0000 1.0000
vn 0.5878 -0.0000 0.8090
vn 0.9511 -0.0000 0.3090
vn 0.8589 0.4294 -0.2791
vn 0.5308 0.4294 -0.7306
vn -0.0000 0.4294 -0.9031
vn -0.5308 0.4294 -0.7306
vn -0.8589 0.4294 -0.2791
vn -0.8589 0.4294 0.2791
vn -0.5308 0.4294 0.7306
vn -0.0000 0.4294 0.9031
vn 0.5308 0.4294 0.7306
vn 0.8589 0.4294 0.2791
vn 0.9501 -0.0452 -0.3087
vn 0.5872 -0.0452 -0.8082
vn -0.0000 -0.0452 -0.9990
vn -0.5872 -0.0452 -0.8082
vn -0.9501 -0.0452 -0.3087
vn -0.9501 -0.0452 0.3087
vn -0.5872 -0.0452 0.8082
vn -0.0000 -0.0452 0.9990
vn 0.5872 -0.0452 0.8082
vn 0.9501 -0.0452 0.3087
vn 0.9410 -0.1448 -0.3058
vn 0.5816 -0.1448 -0.8005
vn -0.0000 -0.1448 -0.9895
vn -0.5816 -0.1448 -0.8005
vn -0.9410 -0.1448 -0.3058
vn -0.9410 -0.1448 0.3058
vn -0.5816 -0.1448 0.8005
vn -0.0000 -0.1448 0.9895
vn 0.5816 -0.1448 0.8005
vn 0.9410 -0.1448 0.3058
vn -0.0000 -0.0454 0.9990
vn 0.9990 -0.0454 -0.0000
vn -0.0000 -0.0454 -0.9990
vn -0.9990 -0.0454 -0.0000
vn 0.2156 -0.5533 0.8046
vn 0.5692 -0.5933 0.5692
vn 0.8148 -0.5371 0.2183
vn 0.8831 -0.4692 -0.0000
vn 0.8148 -0.5371 -0.2183
vn 0.5692 -0.5933 -0.5692
vn 0.2156 -0.5533 -0.8046
vn -0.0000 -0.4954 -0.8687
vn -0.2156 -0.5533 -0.8046
vn -0.5692 -0.5933 -0.5692
vn -0.8148 -0.5371 -0.2183
vn -0.8831 -0.4692 -0.0000
vn -0.8148 -0.5371 0.2183
vn -0.5692 -0.5933 0.5692
vn -0.2156 -0.5533 0.8046
vn -0.0000 -0.4954 0.8687
vn 0.2588 -0.0000 0.9659
vn 0.7071 -0.0000 0.7071
vn 0.9659 -0.0000 0.2588
vn 1.0000 -0.0000 -0.0000
vn 0.9659 -0.0000 -0.2588
vn 0.7071 -0.0000 -0.7071
vn 0.2588 -0.0000 -0.9659
vn -0.2588 -0.0000 -0.9659
vn -0.7071 -0.0000 -0.7071
vn -0.9659 -0.0000 -0.2588
vn -1.0000 -0.0000 -0.0000
vn -0.9659 -0.0000 0.2588
vn -0.7071 -0.0000 0.7071
vn -0.2588 -0.0000 0.9659
vn 0.2109 0.5794 0.7873
vn 0.6181 0.4856 0.6181
vn 0.9308 0.2674 0.2494
vn 0.9931 0.1176 -0.0000
vn 0.9308 0.2674 -0.2494
vn 0.6181 0.4856 -0.6181
vn 0.2109 0.5794 -0.7873
vn -0.0000 0.5903 -0.8072
vn -0.2109 0.5794 -0.7873
vn -0.6181 0.4856 -0.6181
vn -0.9308 0.2674 -0.2494
vn -0.9931 0.1176 -0.0000
vn -0.9308 0.2674 0.2494
vn -0.6181 0.4856 0.6181
vn -0.2109 0.5794 0.7873
vn -0.0000 0.5903 0.8072
vn 0.2575 0.0993 0.9612
vn 0.7043 0.0895 0.7043
vn 0.9643 0.0579 0.2584
vn 0.9993 0.0366 -0.0000
vn 0.9658 0.0150 -0.2588
vn 0.7068 -0.0277 -0.7068
vn 0.2583 -0.0606 -0.9641
vn -0.0000 -0.0702 -0.9975
vn -0.2583 -0.0606 -0.9641
vn -0.7068 -0.0277 -0.7068
vn -0.9658 0.0150 -0.2588
vn -0.9993 0.0366 -0.0000
vn -0.9643 0.0579 0.2584
vn -0.7043 0.0895 0.7043
vn -0.2575 0.0993 0.9612
vn -0.0000 0.0953 0.9954
vn 0.2491 0.2717 0.9296
vn 0.6178 0.4864 0.6178
vn 0.7878 0.5786 0.2111
vn 0.8079 0.5893 -0.0000
vn 0.7878 0.5786 -0.2111
vn 0.6178 0.4864 -0.6178
vn 0.2491 0.2717 -0.9296
vn -0.0000 0.1244 -0.9922
vn -0.2491 0.2717 -0.9296
vn -0.6178 0.4864 -0.6178
vn -0.7878 0.5786 -0.2111
vn -0.8079 0.5893 -0.0000
vn -0.7878 0.5786 0.2111
vn -0.6178 0.4864 0.6178
vn -0.2491 0.2717 0.9296
vn -0.0000 0.1244 0.9922
vn 0.3510 0.3982 0.8475
vn 0.9131 0.1524 0.3782
vn 0.9996 -0.0284 -0.0000
vn 0.9228 -0.0479 -0.3822
vn 0.3821 -0.0541 -0.9225
vn -0.0000 -0.0397 -0.9992
vn -0.3827 -0.0020 -0.9239
vn -0.9211 0.0778 -0.3815
vn -0.9942 0.1073 -0.0000
vn -0.8896 0.2698 0.3685
vn -0.3442 0.4373 0.8309
vn -0.0000 0.4390 0.8985
vn 0.3078 0.5940 0.7432
vn 0.8320 0.4347 0.3446
vn 0.9612 0.2760 -0.0000
vn 0.8320 0.4347 -0.3446
vn 0.3078 0.5940 -0.7432
vn -0.0000 0.6049 -0.7963
vn -0.3078 0.5940 -0.7432
vn -0.8320 0.4347 -0.3446
vn -0.9612 0.2760 -0.0000
vn -0.8320 0.4347 0.3446
vn -0.3078 0.5940 0.7432
vn -0.0000 0.6049 0.7963
vn 0.3442 0.4373 0.8309
vn 0.8896 0.2698 0.3685
vn 0.9942 0.1073 -0.0000
vn 0.9211 0.0778 -0.3815
vn 0.3827 -0.0020 -0.9239
vn -0.3821 -0.0541 -0.9225
vn -0.9228 -0.0479 -0.3822
vn -0.9996 -0.0284 -0.0000
vn -0.9131 0.1524 0.3782
vn -0.3510 0.3982 0.8475
vn 0.1911 -0.6745 0.7131
vn 0.4963 -0.7123 0.4963
vn 0.7247 -0.6612 0.1942
vn 0.8039 -0.5948 -0.0000
vn 0.7247 -0.6612 -0.1942
vn 0.4963 -0.7123 -0.4963
vn 0.1911 -0.6745 -0.7131
vn -0.0000 -0.6178 -0.7863
vn -0.1911 -0.6745 -0.7131
vn -0.4963 -0.7123 -0.4963
vn -0.7247 -0.6612 -0.1942
vn -0.8039 -0.5948 -0.0000
vn -0.7247 -0.6612 0.1942
vn -0.4963 -0.7123 0.4963
vn -0.1911 -0.6745 0.7131
vn -0.0000 -0.6178 0.7863
vn 0.1594 0.7878 0.5949
vn 0.4069 0.8178 0.4069
vn 0.6082 0.7769 0.1630
vn 0.6945 0.7195 -0.0000
vn 0.6082 0.7769 -0.1630
vn 0.4069 0.8178 -0.4069
vn 0.1594 0.7878 -0.5949
vn -0.0000 0.7399 -0.6727
vn -0.1594 0.7878 -0.5949
vn -0.4069 0.8178 -0.4069
vn -0.6082 0.7769 -0.1630
vn -0.6945 0.7195 -0.0000
vn -0.6082 0.7769 0.1630
vn -0.4069 0.8178 0.4069
vn -0.1594 0.7878 0.5949
vn -0.0000 0.7399 0.6727
vn 0.2419 -0.3557 0.9027
vn 0.5988 -0.5318 0.5988
vn 0.7726 -0.6002 0.2070
vn 0.7966 -0.6044 -0.0000
vn 0.7726 -0.6002 -0.2070
vn 0.5988 -0.5318 -0.5988
vn 0.2419 -0.3557 -0.9027
vn -0.0000 -0.2295 -0.9733
vn -0.2419 -0.3557 -0.9027
vn -0.5988 -0.5318 -0.5988
vn -0.7726 -0.6002 -0.2070
vn -0.7966 -0.6044 -0.0000
vn -0.7726 -0.6002 0.2070
vn -0.5988 -0.5318 0.5988
vn -0.2419 -0.3557 0.9027
vn -0.0000 -0.2295 0.9733
vn 0.2544 0.1832 0.9496
vn 0.6987 0.1534 0.6987
vn 0.9624 0.0854 0.2579
vn 0.9991 0.0424 -0.0000
vn 0.9659 0.0010 -0.2588
vn 0.7051 -0.0759 -0.7051
vn 0.2567 -0.1287 -0.9579
vn -0.0000 -0.1410 -0.9900
vn -0.2567 -0.1287 -0.9579
vn -0.7051 -0.0759 -0.7051
vn -0.9659 0.0010 -0.2588
vn -0.9991 0.0424 -0.0000
vn -0.9624 0.0854 0.2579
vn -0.6987 0.1534 0.6987
vn -0.2544 0.1832 0.9496
vn -0.0000 0.1818 0.9833
vn 0.2292 0.4642 0.8556
vn 0.5324 0.6581 0.5324
vn 0.6662 0.7241 0.1785
vn 0.6851 0.7284 -0.0000
vn 0.6662 0.7241 -0.1785
vn 0.5324 0.6581 -0.5324
vn 0.2292 0.4642 -0.8556
vn -0.0000 0.3046 -0.9525
vn -0.2292 0.4642 -0.8556
vn -0.5324 0.6581 -0.5324
vn -0.6662 0.7241 -0.1785
vn -0.6851 0.7284 -0.0000
vn -0.6662 0.7241 0.1785
vn -0.5324 0.6581 0.5324
vn -0.2292 0.4642 0.8556
vn -0.0000 0.3046 0.9525
vt 0.687500 0.937500
vt 0.437500 0.937500
vt 0.562500 0.437500
vt 0.312500 0.687500
s 0
usemtl FN_Atlas
f 1/1/1 2/1/1 3/1/1 4/1/1 5/1/1 6/1/1 7/1/1 8/1/1 9/1/1 10/1/1
f 11/2/2 12/2/2 13/2/2 14/2/2 15/2/2 16/2/2 17/2/2 18/2/2 19/2/2 20/2/2
f 10/1/3 9/1/3 21/1/3 22/1/3
f 9/1/4 8/1/4 23/1/4 21/1/4
f 8/1/5 7/1/5 24/1/5 23/1/5
f 7/1/6 6/1/6 25/1/6 24/1/6
f 6/1/7 5/1/7 26/1/7 25/1/7
f 5/1/8 4/1/8 27/1/8 26/1/8
f 4/1/9 3/1/9 28/1/9 27/1/9
f 3/1/10 2/1/10 29/1/10 28/1/10
f 2/1/11 1/1/11 30/1/11 29/1/11
f 1/1/12 10/1/12 22/1/12 30/1/12
f 22/1/13 21/1/13 31/1/13 32/1/13
f 21/1/14 23/1/14 33/1/14 31/1/14
f 23/1/15 24/1/15 34/1/15 33/1/15
f 24/1/16 25/1/16 35/1/16 34/1/16
f 25/1/17 26/1/17 36/1/17 35/1/17
f 26/1/18 27/1/18 37/1/18 36/1/18
f 27/1/19 28/1/19 38/1/19 37/1/19
f 28/1/20 29/1/20 39/1/20 38/1/20
f 29/1/21 30/1/21 40/1/21 39/1/21
f 30/1/22 22/1/22 32/1/22 40/1/22
f 32/2/23 31/2/23 41/2/23 42/2/23
f 31/2/24 33/2/24 43/2/24 41/2/24
f 33/2/25 34/2/25 44/2/25 43/2/25
f 34/2/26 35/2/26 45/2/26 44/2/26
f 35/2/27 36/2/27 46/2/27 45/2/27
f 36/2/28 37/2/28 47/2/28 46/2/28
f 37/2/29 38/2/29 48/2/29 47/2/29
f 38/2/30 39/2/30 49/2/30 48/2/30
f 39/2/31 40/2/31 50/2/31 49/2/31
f 40/2/32 32/2/32 42/2/32 50/2/32
f 42/2/33 41/2/33 51/2/33 52/2/33
f 41/2/34 43/2/34 53/2/34 51/2/34
f 43/2/35 44/2/35 54/2/35 53/2/35
f 44/2/36 45/2/36 55/2/36 54/2/36
f 45/2/37 46/2/37 56/2/37 55/2/37
f 46/2/38 47/2/38 57/2/38 56/2/38
f 47/2/39 48/2/39 58/2/39 57/2/39
f 48/2/40 49/2/40 59/2/40 58/2/40
f 49/2/41 50/2/41 60/2/41 59/2/41
f 50/2/42 42/2/42 52/2/42 60/2/42
f 52/2/43 51/2/43 61/2/43 62/2/43
f 51/2/44 53/2/44 63/2/44 61/2/44
f 53/2/45 54/2/45 64/2/45 63/2/45
f 54/2/46 55/2/46 65/2/46 64/2/46
f 55/2/47 56/2/47 66/2/47 65/2/47
f 56/2/48 57/2/48 67/2/48 66/2/48
f 57/2/49 58/2/49 68/2/49 67/2/49
f 58/2/50 59/2/50 69/2/50 68/2/50
f 59/2/51 60/2/51 70/2/51 69/2/51
f 60/2/52 52/2/52 62/2/52 70/2/52
f 62/2/53 61/2/53 71/2/53 72/2/53
f 61/2/54 63/2/54 73/2/54 71/2/54
f 63/2/55 64/2/55 74/2/55 73/2/55
f 64/2/56 65/2/56 75/2/56 74/2/56
f 65/2/57 66/2/57 76/2/57 75/2/57
f 66/2/58 67/2/58 77/2/58 76/2/58
f 67/2/59 68/2/59 78/2/59 77/2/59
f 68/2/60 69/2/60 79/2/60 78/2/60
f 69/2/61 70/2/61 80/2/61 79/2/61
f 70/2/62 62/2/62 72/2/62 80/2/62
f 72/2/63 71/2/63 81/2/63 82/2/63
f 71/2/64 73/2/64 83/2/64 81/2/64
f 73/2/65 74/2/65 84/2/65 83/2/65
f 74/2/66 75/2/66 85/2/66 84/2/66
f 75/2/67 76/2/67 86/2/67 85/2/67
f 76/2/68 77/2/68 87/2/68 86/2/68
f 77/2/69 78/2/69 88/2/69 87/2/69
f 78/2/70 79/2/70 89/2/70 88/2/70
f 79/2/71 80/2/71 90/2/71 89/2/71
f 80/2/72 72/2/72 82/2/72 90/2/72
f 82/2/73 81/2/73 12/2/73 11/2/73
f 81/2/74 83/2/74 13/2/74 12/2/74
f 83/2/75 84/2/75 14/2/75 13/2/75
f 84/2/76 85/2/76 15/2/76 14/2/76
f 85/2/77 86/2/77 16/2/77 15/2/77
f 86/2/78 87/2/78 17/2/78 16/2/78
f 87/2/79 88/2/79 18/2/79 17/2/79
f 88/2/80 89/2/80 19/2/80 18/2/80
f 89/2/81 90/2/81 20/2/81 19/2/81
f 90/2/82 82/2/82 11/2/82 20/2/82
f 91/2/1 92/2/1 93/2/1 94/2/1
f 95/2/2 96/2/2 97/2/2 98/2/2
f 94/2/83 93/2/83 96/2/83 95/2/83
f 93/2/84 92/2/84 97/2/84 96/2/84
f 92/2/85 91/2/85 98/2/85 97/2/85
f 91/2/86 94/2/86 95/2/86 98/2/86
f 99/1/1 100/1/1 101/1/1 102/1/1 103/1/1 104/1/1 105/1/1 106/1/1 107/1/1 108/1/1
f 109/2/2 110/2/2 111/2/2 112/2/2 113/2/2 114/2/2 115/2/2 116/2/2 117/2/2 118/2/2
f 108/1/3 107/1/3 119/1/3 120/1/3
f 107/1/4 106/1/4 121/1/4 119/1/4
f 106/1/5 105/1/5 122/1/5 121/1/5
f 105/1/6 104/1/6 123/1/6 122/1/6
f 104/1/7 103/1/7 124/1/7 123/1/7
f 103/1/8 102/1/8 125/1/8 124/1/8
f 102/1/9 101/1/9 126/1/9 125/1/9
f 101/1/10 100/1/10 127/1/10 126/1/10
f 100/1/11 99/1/11 128/1/11 127/1/11
f 99/1/12 108/1/12 120/1/12 128/1/12
f 120/1/13 119/1/13 129/1/13 130/1/13
f 119/1/14 121/1/14 131/1/14 129/1/14
f 121/1/15 122/1/15 132/1/15 131/1/15
f 122/1/16 123/1/16 133/1/16 132/1/16
f 123/1/17 124/1/17 134/1/17 133/1/17
f 124/1/18 125/1/18 135/1/18 134/1/18
f 125/1/19 126/1/19 136/1/19 135/1/19
f 126/1/20 127/1/20 137/1/20 136/1/20
f 127/1/21 128/1/21 138/1/21 137/1/21
f 128/1/22 120/1/22 130/1/22 138/1/22
f 130/2/23 129/2/23 139/2/23 140/2/23
f 129/2/24 131/2/24 141/2/24 139/2/24
f 131/2/25 132/2/25 142/2/25 141/2/25
f 132/2/26 133/2/26 143/2/26 142/2/26
f 133/2/27 134/2/27 144/2/27 143/2/27
f 134/2/28 135/2/28 145/2/28 144/2/28
f 135/2/29 136/2/29 146/2/29 145/2/29
f 136/2/30 137/2/30 147/2/30 146/2/30
f 137/2/31 138/2/31 148/2/31 147/2/31
f 138/2/32 130/2/32 140/2/32 148/2/32
f 140/2/33 139/2/33 149/2/33 150/2/33
f 139/2/34 141/2/34 151/2/34 149/2/34
f 141/2/35 142/2/35 152/2/35 151/2/35
f 142/2/36 143/2/36 153/2/36 152/2/36
f 143/2/37 144/2/37 154/2/37 153/2/37
f 144/2/38 145/2/38 155/2/38 154/2/38
f 145/2/39 146/2/39 156/2/39 155/2/39
f 146/2/40 147/2/40 157/2/40 156/2/40
f 147/2/41 148/2/41 158/2/41 157/2/41
f 148/2/42 140/2/42 150/2/42 158/2/42
f 150/2/43 149/2/43 159/2/43 160/2/43
f 149/2/44 151/2/44 161/2/44 159/2/44
f 151/2/45 152/2/45 162/2/45 161/2/45
f 152/2/46 153/2/46 163/2/46 162/2/46
f 153/2/47 154/2/47 164/2/47 163/2/47
f 154/2/48 155/2/48 165/2/48 164/2/48
f 155/2/49 156/2/49 166/2/49 165/2/49
f 156/2/50 157/2/50 167/2/50 166/2/50
f 157/2/51 158/2/51 168/2/51 167/2/51
f 158/2/52 150/2/52 160/2/52 168/2/52
f 160/2/53 159/2/53 169/2/53 170/2/53
f 159/2/54 161/2/54 171/2/54 169/2/54
f 161/2/55 162/2/55 172/2/55 171/2/55
f 162/2/56 163/2/56 173/2/56 172/2/56
f 163/2/57 164/2/57 174/2/57 173/2/57
f 164/2/58 165/2/58 175/2/58 174/2/58
f 165/2/59 166/2/59 176/2/59 175/2/59
f 166/2/60 167/2/60 177/2/60 176/2/60
f 167/2/61 168/2/61 178/2/61 177/2/61
f 168/2/62 160/2/62 170/2/62 178/2/62
f 170/2/63 169/2/63 179/2/63 180/2/63
f 169/2/64 171/2/64 181/2/64 179/2/64
f 171/2/65 172/2/65 182/2/65 181/2/65
f 172/2/66 173/2/66 183/2/66 182/2/66
f 173/2/67 174/2/67 184/2/67 183/2/67
f 174/2/68 175/2/68 185/2/68 184/2/68
f 175/2/69 176/2/69 186/2/69 185/2/69
f 176/2/70 177/2/70 187/2/70 186/2/70
f 177/2/71 178/2/71 188/2/71 187/2/71
f 178/2/72 170/2/72 180/2/72 188/2/72
f 180/2/73 179/2/73 110/2/73 109/2/73
f 179/2/74 181/2/74 111/2/74 110/2/74
f 181/2/75 182/2/75 112/2/75 111/2/75
f 182/2/76 183/2/76 113/2/76 112/2/76
f 183/2/77 184/2/77 114/2/77 113/2/77
f 184/2/78 185/2/78 115/2/78 114/2/78
f 185/2/79 186/2/79 116/2/79 115/2/79
f 186/2/80 187/2/80 117/2/80 116/2/80
f 187/2/81 188/2/81 118/2/81 117/2/81
f 188/2/82 180/2/82 109/2/82 118/2/82
f 189/2/1 190/2/1 191/2/1 192/2/1
f 193/2/2 194/2/2 195/2/2 196/2/2
f 192/2/83 191/2/83 194/2/83 193/2/83
f 191/2/84 190/2/84 195/2/84 194/2/84
f 190/2/85 189/2/85 196/2/85 195/2/85
f 189/2/86 192/2/86 193/2/86 196/2/86
f 197/3/1 198/3/1 199/3/1 200/3/1 201/3/1 202/3/1 203/3/1 204/3/1 205/3/1 206/3/1 207/3/1 208/3/1 209/3/1 210/3/1 211/3/1 212/3/1
f 212/3/87 211/3/87 213/3/87 214/3/87
f 211/3/88 210/3/88 215/3/88 213/3/88
f 210/3/89 209/3/89 216/3/89 215/3/89
f 209/3/90 208/3/90 217/3/90 216/3/90
f 208/3/91 207/3/91 218/3/91 217/3/91
f 207/3/92 206/3/92 219/3/92 218/3/92
f 206/3/93 205/3/93 220/3/93 219/3/93
f 205/3/94 204/3/94 221/3/94 220/3/94
f 204/3/95 203/3/95 222/3/95 221/3/95
f 203/3/96 202/3/96 223/3/96 222/3/96
f 202/3/97 201/3/97 224/3/97 223/3/97
f 201/3/98 200/3/98 225/3/98 224/3/98
f 200/3/99 199/3/99 226/3/99 225/3/99
f 199/3/100 198/3/100 227/3/100 226/3/100
f 198/3/101 197/3/101 228/3/101 227/3/101
f 197/3/102 212/3/102 214/3/102 228/3/102
f 214/3/103 213/3/103 229/3/103 230/3/103
f 213/3/104 215/3/104 231/3/104 229/3/104
f 215/3/105 216/3/105 232/3/105 231/3/105
f 216/3/106 217/3/106 233/3/106 232/3/106
f 217/3/107 218/3/107 234/3/107 233/3/107
f 218/3/108 219/3/108 235/3/108 234/3/108
f 219/3/109 220/3/109 236/3/109 235/3/109
f 220/3/45 221/3/45 237/3/45 236/3/45
f 221/3/110 222/3/110 238/3/110 237/3/110
f 222/3/111 223/3/111 239/3/111 238/3/111
f 223/3/112 224/3/112 240/3/112 239/3/112
f 224/3/113 225/3/113 241/3/113 240/3/113
f 225/3/114 226/3/114 242/3/114 241/3/114
f 226/3/115 227/3/115 243/3/115 242/3/115
f 227/3/116 228/3/116 244/3/116 243/3/116
f 228/3/50 214/3/50 230/3/50 244/3/50
f 245/4/2 246/4/2 247/4/2 248/4/2 249/4/2 250/4/2 251/4/2 252/4/2 253/4/2 254/4/2 255/4/2 256/4/2 257/4/2 258/4/2 259/4/2 260/4/2
f 230/4/103 229/4/103 246/4/103 245/4/103
f 229/4/104 231/4/104 247/4/104 246/4/104
f 231/4/105 232/4/105 248/4/105 247/4/105
f 232/4/106 233/4/106 249/4/106 248/4/106
f 233/4/107 234/4/107 250/4/107 249/4/107
f 234/4/108 235/4/108 251/4/108 250/4/108
f 235/4/109 236/4/109 252/4/109 251/4/109
f 236/4/45 237/4/45 253/4/45 252/4/45
f 237/4/110 238/4/110 254/4/110 253/4/110
f 238/4/111 239/4/111 255/4/111 254/4/111
f 239/4/112 240/4/112 256/4/112 255/4/112
f 240/4/113 241/4/113 257/4/113 256/4/113
f 241/4/114 242/4/114 258/4/114 257/4/114
f 242/4/115 243/4/115 259/4/115 258/4/115
f 243/4/116 244/4/116 260/4/116 259/4/116
f 244/4/50 230/4/50 245/4/50 260/4/50
f 261/3/103 262/3/103 263/3/103 264/3/103
f 262/3/104 265/3/104 266/3/104 263/3/104
f 265/3/105 267/3/105 268/3/105 266/3/105
f 267/3/106 269/3/106 270/3/106 268/3/106
f 269/3/107 271/3/107 272/3/107 270/3/107
f 271/3/108 273/3/108 274/3/108 272/3/108
f 273/3/109 275/3/109 276/3/109 274/3/109
f 275/3/45 277/3/45 278/3/45 276/3/45
f 277/3/110 279/3/110 280/3/110 278/3/110
f 279/3/111 281/3/111 282/3/111 280/3/111
f 281/3/112 283/3/112 284/3/112 282/3/112
f 283/3/113 285/3/113 286/3/113 284/3/113
f 285/3/114 287/3/114 288/3/114 286/3/114
f 287/3/115 289/3/115 290/3/115 288/3/115
f 289/3/116 291/3/116 292/3/116 290/3/116
f 291/3/50 261/3/50 264/3/50 292/3/50
f 293/3/2 294/3/2 295/3/2 296/3/2 297/3/2 298/3/2 299/3/2 300/3/2 301/3/2 302/3/2 303/3/2 304/3/2 305/3/2 306/3/2 307/3/2 308/3/2
f 264/3/117 263/3/117 294/3/117 293/3/117
f 263/3/118 266/3/118 295/3/118 294/3/118
f 266/3/119 268/3/119 296/3/119 295/3/119
f 268/3/120 270/3/120 297/3/120 296/3/120
f 270/3/121 272/3/121 298/3/121 297/3/121
f 272/3/122 274/3/122 299/3/122 298/3/122
f 274/3/123 276/3/123 300/3/123 299/3/123
f 276/3/124 278/3/124 301/3/124 300/3/124
f 278/3/125 280/3/125 302/3/125 301/3/125
f 280/3/126 282/3/126 303/3/126 302/3/126
f 282/3/127 284/3/127 304/3/127 303/3/127
f 284/3/128 286/3/128 305/3/128 304/3/128
f 286/3/129 288/3/129 306/3/129 305/3/129
f 288/3/130 290/3/130 307/3/130 306/3/130
f 290/3/131 292/3/131 308/3/131 307/3/131
f 292/3/132 264/3/132 293/3/132 308/3/132
f 309/3/103 310/3/103 311/3/103 312/3/103
f 310/3/104 313/3/104 314/3/104 311/3/104
f 313/3/105 315/3/105 316/3/105 314/3/105
f 315/3/106 317/3/106 318/3/106 316/3/106
f 317/3/107 319/3/107 320/3/107 318/3/107
f 319/3/108 321/3/108 322/3/108 320/3/108
f 321/3/109 323/3/109 324/3/109 322/3/109
f 323/3/45 325/3/45 326/3/45 324/3/45
f 325/3/110 327/3/110 328/3/110 326/3/110
f 327/3/111 329/3/111 330/3/111 328/3/111
f 329/3/112 331/3/112 332/3/112 330/3/112
f 331/3/113 333/3/113 334/3/113 332/3/113
f 333/3/114 335/3/114 336/3/114 334/3/114
f 335/3/115 337/3/115 338/3/115 336/3/115
f 337/3/116 339/3/116 340/3/116 338/3/116
f 339/3/50 309/3/50 312/3/50 340/3/50
f 341/3/2 342/3/2 343/3/2 344/3/2 345/3/2 346/3/2 347/3/2 348/3/2 349/3/2 350/3/2 351/3/2 352/3/2 353/3/2 354/3/2 355/3/2 356/3/2
f 312/3/117 311/3/117 342/3/117 341/3/117
f 311/3/118 314/3/118 343/3/118 342/3/118
f 314/3/119 316/3/119 344/3/119 343/3/119
f 316/3/120 318/3/120 345/3/120 344/3/120
f 318/3/121 320/3/121 346/3/121 345/3/121
f 320/3/122 322/3/122 347/3/122 346/3/122
f 322/3/123 324/3/123 348/3/123 347/3/123
f 324/3/124 326/3/124 349/3/124 348/3/124
f 326/3/125 328/3/125 350/3/125 349/3/125
f 328/3/126 330/3/126 351/3/126 350/3/126
f 330/3/127 332/3/127 352/3/127 351/3/127
f 332/3/128 334/3/128 353/3/128 352/3/128
f 334/3/129 336/3/129 354/3/129 353/3/129
f 336/3/130 338/3/130 355/3/130 354/3/130
f 338/3/131 340/3/131 356/3/131 355/3/131
f 340/3/132 312/3/132 341/3/132 356/3/132
f 357/3/133 358/3/133 359/3/133 360/3/133
f 358/3/134 361/3/134 362/3/134 359/3/134
f 361/3/135 363/3/135 364/3/135 362/3/135
f 363/3/136 365/3/136 366/3/136 364/3/136
f 365/3/137 367/3/137 368/3/137 366/3/137
f 367/3/138 369/3/138 370/3/138 368/3/138
f 369/3/139 371/3/139 372/3/139 370/3/139
f 371/3/140 373/3/140 374/3/140 372/3/140
f 373/3/141 375/3/141 376/3/141 374/3/141
f 375/3/142 377/3/142 378/3/142 376/3/142
f 377/3/143 379/3/143 380/3/143 378/3/143
f 379/3/144 381/3/144 382/3/144 380/3/144
f 381/3/145 383/3/145 384/3/145 382/3/145
f 383/3/146 385/3/146 386/3/146 384/3/146
f 385/3/147 387/3/147 388/3/147 386/3/147
f 387/3/148 357/3/148 360/3/148 388/3/148
f 389/3/2 390/3/2 391/3/2 392/3/2 393/3/2 394/3/2 395/3/2 396/3/2 397/3/2 398/3/2 399/3/2 400/3/2 401/3/2 402/3/2 403/3/2 404/3/2
f 360/3/149 359/3/149 390/3/149 389/3/149
f 359/3/150 362/3/150 391/3/150 390/3/150
f 362/3/151 364/3/151 392/3/151 391/3/151
f 364/3/152 366/3/152 393/3/152 392/3/152
f 366/3/153 368/3/153 394/3/153 393/3/153
f 368/3/154 370/3/154 395/3/154 394/3/154
f 370/3/155 372/3/155 396/3/155 395/3/155
f 372/3/156 374/3/156 397/3/156 396/3/156
f 374/3/157 376/3/157 398/3/157 397/3/157
f 376/3/158 378/3/158 399/3/158 398/3/158
f 378/3/159 380/3/159 400/3/159 399/3/159
f 380/3/160 382/3/160 401/3/160 400/3/160
f 382/3/161 384/3/161 402/3/161 401/3/161
f 384/3/162 386/3/162 403/3/162 402/3/162
f 386/3/163 388/3/163 404/3/163 403/3/163
f 388/3/164 360/3/164 389/3/164 404/3/164
f 405/3/165 406/3/165 407/3/165 408/3/165
f 406/3/166 409/3/166 410/3/166 407/3/166
f 409/3/167 411/3/167 412/3/167 410/3/167
f 411/3/168 413/3/168 414/3/168 412/3/168
f 413/3/169 415/3/169 416/3/169 414/3/169
f 415/3/170 417/3/170 418/3/170 416/3/170
f 417/3/171 419/3/171 420/3/171 418/3/171
f 419/3/172 421/3/172 422/3/172 420/3/172
f 421/3/173 423/3/173 424/3/173 422/3/173
f 423/3/174 425/3/174 426/3/174 424/3/174
f 425/3/175 427/3/175 428/3/175 426/3/175
f 427/3/176 405/3/176 408/3/176 428/3/176
f 429/3/2 430/3/2 431/3/2 432/3/2 433/3/2 434/3/2 435/3/2 436/3/2 437/3/2 438/3/2 439/3/2 440/3/2
f 408/3/177 407/3/177 430/3/177 429/3/177
f 407/3/178 410/3/178 431/3/178 430/3/178
f 410/3/179 412/3/179 432/3/179 431/3/179
f 412/3/180 414/3/180 433/3/180 432/3/180
f 414/3/181 416/3/181 434/3/181 433/3/181
f 416/3/182 418/3/182 435/3/182 434/3/182
f 418/3/183 420/3/183 436/3/183 435/3/183
f 420/3/184 422/3/184 437/3/184 436/3/184
f 422/3/185 424/3/185 438/3/185 437/3/185
f 424/3/186 426/3/186 439/3/186 438/3/186
f 426/3/187 428/3/187 440/3/187 439/3/187
f 428/3/188 408/3/188 429/3/188 440/3/188
f 441/3/189 442/3/189 443/3/189 444/3/189
f 442/3/190 445/3/190 446/3/190 443/3/190
f 445/3/191 447/3/191 448/3/191 446/3/191
f 447/3/192 449/3/192 450/3/192 448/3/192
f 449/3/193 451/3/193 452/3/193 450/3/193
f 451/3/170 453/3/170 454/3/170 452/3/170
f 453/3/194 455/3/194 456/3/194 454/3/194
f 455/3/195 457/3/195 458/3/195 456/3/195
f 457/3/196 459/3/196 460/3/196 458/3/196
f 459/3/197 461/3/197 462/3/197 460/3/197
f 461/3/198 463/3/198 464/3/198 462/3/198
f 463/3/176 441/3/176 444/3/176 464/3/176
f 465/3/2 466/3/2 467/3/2 468/3/2 469/3/2 470/3/2 471/3/2 472/3/2 473/3/2 474/3/2 475/3/2 476/3/2
f 444/3/177 443/3/177 466/3/177 465/3/177
f 443/3/178 446/3/178 467/3/178 466/3/178
f 446/3/179 448/3/179 468/3/179 467/3/179
f 448/3/180 450/3/180 469/3/180 468/3/180
f 450/3/181 452/3/181 470/3/181 469/3/181
f 452/3/182 454/3/182 471/3/182 470/3/182
f 454/3/183 456/3/183 472/3/183 471/3/183
f 456/3/184 458/3/184 473/3/184 472/3/184
f 458/3/185 460/3/185 474/3/185 473/3/185
f 460/3/186 462/3/186 475/3/186 474/3/186
f 462/3/187 464/3/187 476/3/187 475/3/187
f 464/3/188 444/3/188 465/3/188 476/3/188
f 477/3/1 478/3/1 479/3/1 480/3/1 481/3/1 482/3/1 483/3/1 484/3/1 485/3/1 486/3/1 487/3/1 488/3/1 489/3/1 490/3/1 491/3/1 492/3/1
f 492/3/199 491/3/199 493/3/199 494/3/199
f 491/3/200 490/3/200 495/3/200 493/3/200
f 490/3/201 489/3/201 496/3/201 495/3/201
f 489/3/202 488/3/202 497/3/202 496/3/202
f 488/3/203 487/3/203 498/3/203 497/3/203
f 487/3/204 486/3/204 499/3/204 498/3/204
f 486/3/205 485/3/205 500/3/205 499/3/205
f 485/3/206 484/3/206 501/3/206 500/3/206
f 484/3/207 483/3/207 502/3/207 501/3/207
f 483/3/208 482/3/208 503/3/208 502/3/208
f 482/3/209 481/3/209 504/3/209 503/3/209
f 481/3/210 480/3/210 505/3/210 504/3/210
f 480/3/211 479/3/211 506/3/211 505/3/211
f 479/3/212 478/3/212 507/3/212 506/3/212
f 478/3/213 477/3/213 508/3/213 507/3/213
f 477/3/214 492/3/214 494/3/214 508/3/214
f 494/3/103 493/3/103 509/3/103 510/3/103
f 493/3/104 495/3/104 511/3/104 509/3/104
f 495/3/105 496/3/105 512/3/105 511/3/105
f 496/3/106 497/3/106 513/3/106 512/3/106
f 497/3/107 498/3/107 514/3/107 513/3/107
f 498/3/108 499/3/108 515/3/108 514/3/108
f 499/3/109 500/3/109 516/3/109 515/3/109
f 500/3/45 501/3/45 517/3/45 516/3/45
f 501/3/110 502/3/110 518/3/110 517/3/110
f 502/3/111 503/3/111 519/3/111 518/3/111
f 503/3/112 504/3/112 520/3/112 519/3/112
f 504/3/113 505/3/113 521/3/113 520/3/113
f 505/3/114 506/3/114 522/3/114 521/3/114
f 506/3/115 507/3/115 523/3/115 522/3/115
f 507/3/116 508/3/116 524/3/116 523/3/116
f 508/3/50 494/3/50 510/3/50 524/3/50
f 525/3/2 526/3/2 527/3/2 528/3/2 529/3/2 530/3/2 531/3/2 532/3/2 533/3/2 534/3/2 535/3/2 536/3/2 537/3/2 538/3/2 539/3/2 540/3/2
f 510/3/215 509/3/215 526/3/215 525/3/215
f 509/3/216 511/3/216 527/3/216 526/3/216
f 511/3/217 512/3/217 528/3/217 527/3/217
f 512/3/218 513/3/218 529/3/218 528/3/218
f 513/3/219 514/3/219 530/3/219 529/3/219
f 514/3/220 515/3/220 531/3/220 530/3/220
f 515/3/221 516/3/221 532/3/221 531/3/221
f 516/3/222 517/3/222 533/3/222 532/3/222
f 517/3/223 518/3/223 534/3/223 533/3/223
f 518/3/224 519/3/224 535/3/224 534/3/224
f 519/3/225 520/3/225 536/3/225 535/3/225
f 520/3/226 521/3/226 537/3/226 536/3/226
f 521/3/227 522/3/227 538/3/227 537/3/227
f 522/3/228 523/3/228 539/3/228 538/3/228
f 523/3/229 524/3/229 540/3/229 539/3/229
f 524/3/230 510/3/230 525/3/230 540/3/230
f 541/3/1 542/3/1 543/3/1 544/3/1 545/3/1 546/3/1 547/3/1 548/3/1 549/3/1 550/3/1 551/3/1 552/3/1 553/3/1 554/3/1 555/3/1 556/3/1
f 556/3/231 555/3/231 557/3/231 558/3/231
f 555/3/232 554/3/232 559/3/232 557/3/232
f 554/3/233 553/3/233 560/3/233 559/3/233
f 553/3/234 552/3/234 561/3/234 560/3/234
f 552/3/235 551/3/235 562/3/235 561/3/235
f 551/3/236 550/3/236 563/3/236 562/3/236
f 550/3/237 549/3/237 564/3/237 563/3/237
f 549/3/238 548/3/238 565/3/238 564/3/238
f 548/3/239 547/3/239 566/3/239 565/3/239
f 547/3/240 546/3/240 567/3/240 566/3/240
f 546/3/241 545/3/241 568/3/241 567/3/241
f 545/3/242 544/3/242 569/3/242 568/3/242
f 544/3/243 543/3/243 570/3/243 569/3/243
f 543/3/244 542/3/244 571/3/244 570/3/244
f 542/3/245 541/3/245 572/3/245 571/3/245
f 541/3/246 556/3/246 558/3/246 572/3/246
f 558/3/247 557/3/247 573/3/247 574/3/247
f 557/3/248 559/3/248 575/3/248 573/3/248
f 559/3/249 560/3/249 576/3/249 575/3/249
f 560/3/250 561/3/250 577/3/250 576/3/250
f 561/3/251 562/3/251 578/3/251 577/3/251
f 562/3/252 563/3/252 579/3/252 578/3/252
f 563/3/253 564/3/253 580/3/253 579/3/253
f 564/3/254 565/3/254 581/3/254 580/3/254
f 565/3/255 566/3/255 582/3/255 581/3/255
f 566/3/256 567/3/256 583/3/256 582/3/256
f 567/3/257 568/3/257 584/3/257 583/3/257
f 568/3/258 569/3/258 585/3/258 584/3/258
f 569/3/259 570/3/259 586/3/259 585/3/259
f 570/3/260 571/3/260 587/3/260 586/3/260
f 571/3/261 572/3/261 588/3/261 587/3/261
f 572/3/262 558/3/262 574/3/262 588/3/262
f 589/3/2 590/3/2 591/3/2 592/3/2 593/3/2 594/3/2 595/3/2 596/3/2 597/3/2 598/3/2 599/3/2 600/3/2 601/3/2 602/3/2 603/3/2 604/3/2
f 574/3/263 573/3/263 590/3/263 589/3/263
f 573/3/264 575/3/264 591/3/264 590/3/264
f 575/3/265 576/3/265 592/3/265 591/3/265
f 576/3/266 577/3/266 593/3/266 592/3/266
f 577/3/267 578/3/267 594/3/267 593/3/267
f 578/3/268 579/3/268 595/3/268 594/3/268
f 579/3/269 580/3/269 596/3/269 595/3/269
f 580/3/270 581/3/270 597/3/270 596/3/270
f 581/3/271 582/3/271 598/3/271 597/3/271
f 582/3/272 583/3/272 599/3/272 598/3/272
f 583/3/273 584/3/273 600/3/273 599/3/273
f 584/3/274 585/3/274 601/3/274 600/3/274
f 585/3/275 586/3/275 602/3/275 601/3/275
f 586/3/276 587/3/276 603/3/276 602/3/276
f 587/3/277 588/3/277 604/3/277 603/3/277
f 588/3/278 574/3/278 589/3/278 604/3/278
