# Blender 5.2.0 LTS
# www.blender.org
mtllib FN_Chair_Visitor.mtl
o FN_Chair_Visitor
v -0.247021 0.029021 -0.237589
v -0.235000 0.034000 -0.237589
v -0.222979 0.029021 -0.237589
v -0.218000 0.017000 -0.237589
v -0.222979 0.004979 -0.237589
v -0.235000 0.000000 -0.237589
v -0.247021 0.004979 -0.237589
v -0.252000 0.017000 -0.237589
v -0.252000 0.878000 -0.241589
v -0.247021 0.878505 -0.229579
v -0.235000 0.878714 -0.224604
v -0.222979 0.878505 -0.229579
v -0.218000 0.878000 -0.241589
v -0.222979 0.877495 -0.253600
v -0.235000 0.877286 -0.258574
v -0.247021 0.877495 -0.253600
v -0.247021 0.005003 0.197160
v -0.252000 0.017000 0.196411
v -0.235000 0.000033 0.197471
v -0.222979 0.005003 0.197160
v -0.218000 0.017000 0.196411
v -0.222979 0.028997 0.195661
v -0.235000 0.033967 0.195350
v -0.247021 0.028997 0.195661
v -0.247021 0.042536 0.253572
v -0.252000 0.047000 0.242411
v -0.235000 0.040686 0.258195
v -0.222979 0.042536 0.253572
v -0.218000 0.047000 0.242411
v -0.222979 0.051464 0.231250
v -0.235000 0.053314 0.226626
v -0.247021 0.051464 0.231250
v -0.247021 0.156919 0.264431
v -0.252000 0.157000 0.252411
v -0.235000 0.156886 0.269410
v -0.222979 0.156919 0.264431
v -0.218000 0.157000 0.252411
v -0.222979 0.157081 0.240390
v -0.235000 0.157114 0.235411
v -0.247021 0.157081 0.240390
v -0.247021 0.346457 0.256178
v -0.252000 0.344000 0.244411
v -0.235000 0.347475 0.261052
v -0.222979 0.346457 0.256178
v -0.218000 0.344000 0.244411
v -0.222979 0.341543 0.232644
v -0.235000 0.340525 0.227770
v -0.247021 0.341543 0.232644
v -0.247021 0.417875 0.202279
v -0.252000 0.406000 0.200411
v -0.235000 0.422793 0.203053
v -0.222979 0.417875 0.202279
v -0.218000 0.406000 0.200411
v -0.222979 0.394125 0.198542
v -0.235000 0.389207 0.197768
v -0.247021 0.394125 0.198542
v -0.247021 0.417935 -0.148157
v -0.252000 0.406000 -0.149589
v -0.235000 0.422879 -0.147564
v -0.222979 0.417935 -0.148157
v -0.218000 0.406000 -0.149589
v -0.222979 0.394065 -0.151022
v -0.235000 0.389121 -0.151615
v -0.247021 0.394065 -0.151022
v -0.247021 0.457975 -0.188245
v -0.252000 0.454000 -0.199589
v -0.235000 0.459622 -0.183546
v -0.222979 0.457975 -0.188245
v -0.218000 0.454000 -0.199589
v -0.222979 0.450025 -0.210934
v -0.235000 0.448378 -0.215633
v -0.247021 0.450025 -0.210934
v -0.247021 0.641185 -0.219627
v -0.252000 0.640000 -0.231589
v -0.235000 0.641676 -0.214672
v -0.222979 0.641185 -0.219627
v -0.218000 0.640000 -0.231589
v -0.222979 0.638815 -0.243552
v -0.235000 0.638324 -0.248507
v -0.247021 0.638815 -0.243552
v 0.222979 0.029021 -0.237589
v 0.235000 0.034000 -0.237589
v 0.247021 0.029021 -0.237589
v 0.252000 0.017000 -0.237589
v 0.247021 0.004979 -0.237589
v 0.235000 0.000000 -0.237589
v 0.222979 0.004979 -0.237589
v 0.218000 0.017000 -0.237589
v 0.218000 0.878000 -0.241589
v 0.222979 0.878505 -0.229579
v 0.235000 0.878714 -0.224604
v 0.247021 0.878505 -0.229579
v 0.252000 0.878000 -0.241589
v 0.247021 0.877495 -0.253600
v 0.235000 0.877286 -0.258574
v 0.222979 0.877495 -0.253600
v 0.222979 0.005003 0.197160
v 0.218000 0.017000 0.196411
v 0.235000 0.000033 0.197471
v 0.247021 0.005003 0.197160
v 0.252000 0.017000 0.196411
v 0.247021 0.028997 0.195661
v 0.235000 0.033967 0.195350
v 0.222979 0.028997 0.195661
v 0.222979 0.042536 0.253572
v 0.218000 0.047000 0.242411
v 0.235000 0.040686 0.258195
v 0.247021 0.042536 0.253572
v 0.252000 0.047000 0.242411
v 0.247021 0.051464 0.231250
v 0.235000 0.053314 0.226626
v 0.222979 0.051464 0.231250
v 0.222979 0.156919 0.264431
v 0.218000 0.157000 0.252411
v 0.235000 0.156886 0.269410
v 0.247021 0.156919 0.264431
v 0.252000 0.157000 0.252411
v 0.247021 0.157081 0.240390
v 0.235000 0.157114 0.235411
v 0.222979 0.157081 0.240390
v 0.222979 0.346457 0.256178
v 0.218000 0.344000 0.244411
v 0.235000 0.347475 0.261052
v 0.247021 0.346457 0.256178
v 0.252000 0.344000 0.244411
v 0.247021 0.341543 0.232644
v 0.235000 0.340525 0.227770
v 0.222979 0.341543 0.232644
v 0.222979 0.417875 0.202279
v 0.218000 0.406000 0.200411
v 0.235000 0.422793 0.203053
v 0.247021 0.417875 0.202279
v 0.252000 0.406000 0.200411
v 0.247021 0.394125 0.198542
v 0.235000 0.389207 0.197768
v 0.222979 0.394125 0.198542
v 0.222979 0.417935 -0.148157
v 0.218000 0.406000 -0.149589
v 0.235000 0.422879 -0.147564
v 0.247021 0.417935 -0.148157
v 0.252000 0.406000 -0.149589
v 0.247021 0.394065 -0.151022
v 0.235000 0.389121 -0.151615
v 0.222979 0.394065 -0.151022
v 0.222979 0.457975 -0.188245
v 0.218000 0.454000 -0.199589
v 0.235000 0.459622 -0.183546
v 0.247021 0.457975 -0.188245
v 0.252000 0.454000 -0.199589
v 0.247021 0.450025 -0.210934
v 0.235000 0.448378 -0.215633
v 0.222979 0.450025 -0.210934
v 0.222979 0.641185 -0.219627
v 0.218000 0.640000 -0.231589
v 0.235000 0.641676 -0.214672
v 0.247021 0.641185 -0.219627
v 0.252000 0.640000 -0.231589
v 0.247021 0.638815 -0.243552
v 0.235000 0.638324 -0.248507
v 0.222979 0.638815 -0.243552
v -0.235000 0.027578 0.206989
v -0.235000 0.031960 0.196411
v -0.235000 0.027578 0.185832
v -0.235000 0.017000 0.181451
v -0.235000 0.006422 0.185832
v -0.235000 0.002040 0.196411
v -0.235000 0.006422 0.206989
v -0.235000 0.017000 0.211371
v 0.235000 0.017000 0.211371
v 0.235000 0.006422 0.206989
v 0.235000 0.002040 0.196411
v 0.235000 0.006422 0.185832
v 0.235000 0.017000 0.181451
v 0.235000 0.027578 0.185832
v 0.235000 0.031960 0.196411
v 0.235000 0.027578 0.206989
v -0.235000 0.027578 -0.227011
v -0.235000 0.031960 -0.237589
v -0.235000 0.027578 -0.248168
v -0.235000 0.017000 -0.252549
v -0.235000 0.006422 -0.248168
v -0.235000 0.002040 -0.237589
v -0.235000 0.006422 -0.227011
v -0.235000 0.017000 -0.222629
v 0.235000 0.017000 -0.222629
v 0.235000 0.006422 -0.227011
v 0.235000 0.002040 -0.237589
v 0.235000 0.006422 -0.248168
v 0.235000 0.017000 -0.252549
v 0.235000 0.027578 -0.248168
v 0.235000 0.031960 -0.237589
v 0.235000 0.027578 -0.227011
v -0.235000 0.415857 -0.139732
v -0.235000 0.419940 -0.149589
v -0.235000 0.415857 -0.159447
v -0.235000 0.406000 -0.163529
v -0.235000 0.396143 -0.159447
v -0.235000 0.392060 -0.149589
v -0.235000 0.396143 -0.139732
v -0.235000 0.406000 -0.135649
v 0.235000 0.406000 -0.135649
v 0.235000 0.396143 -0.139732
v 0.235000 0.392060 -0.149589
v 0.235000 0.396143 -0.159447
v 0.235000 0.406000 -0.163529
v 0.235000 0.415857 -0.159447
v 0.235000 0.419940 -0.149589
v 0.235000 0.415857 -0.139732
v -0.174146 0.406000 0.250282
v -0.200901 0.406000 0.243114
v -0.220486 0.406000 0.223528
v -0.227655 0.406000 0.196774
v -0.227655 0.406000 -0.135953
v -0.220486 0.406000 -0.162707
v -0.200901 0.406000 -0.182292
v -0.174146 0.406000 -0.189461
v 0.174146 0.406000 -0.189461
v 0.200901 0.406000 -0.182292
v 0.220486 0.406000 -0.162707
v 0.227655 0.406000 -0.135953
v 0.227655 0.406000 0.196774
v 0.220486 0.406000 0.223528
v 0.200901 0.406000 0.243114
v 0.174146 0.406000 0.250282
v 0.206500 0.414000 0.249042
v 0.179000 0.414000 0.256411
v 0.226631 0.414000 0.228911
v 0.234000 0.414000 0.201411
v 0.234000 0.414000 -0.140589
v 0.226631 0.414000 -0.168089
v 0.206500 0.414000 -0.188221
v 0.179000 0.414000 -0.195589
v -0.179000 0.414000 -0.195589
v -0.206500 0.414000 -0.188221
v -0.226631 0.414000 -0.168089
v -0.234000 0.414000 -0.140589
v -0.234000 0.414000 0.201411
v -0.226631 0.414000 0.228911
v -0.206500 0.414000 0.249042
v -0.179000 0.414000 0.256411
v 0.206500 0.437000 0.249042
v 0.179000 0.437000 0.256411
v 0.226631 0.437000 0.228911
v 0.234000 0.437000 0.201411
v 0.234000 0.437000 -0.140589
v 0.226631 0.437000 -0.168089
v 0.206500 0.437000 -0.188221
v 0.179000 0.437000 -0.195589
v -0.179000 0.437000 -0.195589
v -0.206500 0.437000 -0.188221
v -0.226631 0.437000 -0.168089
v -0.234000 0.437000 -0.140589
v -0.234000 0.437000 0.201411
v -0.226631 0.437000 0.228911
v -0.206500 0.437000 0.249042
v -0.179000 0.437000 0.256411
v 0.167169 0.450000 0.241473
v 0.192851 0.450000 0.234592
v 0.211652 0.450000 0.215791
v 0.218534 0.450000 0.190108
v 0.218534 0.450000 -0.129287
v 0.211652 0.450000 -0.154970
v 0.192851 0.450000 -0.173771
v 0.167169 0.450000 -0.180652
v -0.167169 0.450000 -0.180652
v -0.192851 0.450000 -0.173771
v -0.211652 0.450000 -0.154970
v -0.218534 0.450000 -0.129287
v -0.218534 0.450000 0.190108
v -0.211652 0.450000 0.215791
v -0.192851 0.450000 0.234592
v -0.167169 0.450000 0.241473
v -0.240000 0.596000 -0.245655
v -0.160000 0.596000 -0.231211
v -0.080000 0.596000 -0.222544
v 0.000000 0.596000 -0.219655
v 0.080000 0.596000 -0.222544
v 0.160000 0.596000 -0.231211
v 0.240000 0.596000 -0.245655
v 0.240000 0.596000 -0.193655
v 0.160000 0.596000 -0.179211
v 0.080000 0.596000 -0.170544
v 0.000000 0.596000 -0.167655
v -0.080000 0.596000 -0.170544
v -0.160000 0.596000 -0.179211
v -0.240000 0.596000 -0.193655
v -0.160000 0.606000 -0.179211
v -0.240000 0.606000 -0.193655
v -0.080000 0.606000 -0.170544
v 0.000000 0.606000 -0.167655
v 0.080000 0.606000 -0.170544
v 0.160000 0.606000 -0.179211
v 0.240000 0.606000 -0.193655
v 0.240000 0.606000 -0.245655
v 0.160000 0.606000 -0.231211
v 0.080000 0.606000 -0.222544
v 0.000000 0.606000 -0.219655
v -0.080000 0.606000 -0.222544
v -0.160000 0.606000 -0.231211
v -0.240000 0.606000 -0.245655
v -0.155333 0.844000 -0.204966
v -0.233000 0.844000 -0.219410
v -0.077667 0.844000 -0.196299
v 0.000000 0.844000 -0.193410
v 0.077667 0.844000 -0.196299
v 0.155333 0.844000 -0.204966
v 0.233000 0.844000 -0.219410
v 0.233000 0.844000 -0.269410
v 0.155333 0.844000 -0.254966
v 0.077667 0.844000 -0.246299
v 0.000000 0.844000 -0.243410
v -0.077667 0.844000 -0.246299
v -0.155333 0.844000 -0.254966
v -0.233000 0.844000 -0.269410
v -0.212890 0.856000 -0.220321
v -0.141926 0.856000 -0.207124
v -0.070963 0.856000 -0.199205
v -0.000000 0.856000 -0.196565
v 0.070963 0.856000 -0.199205
v 0.141926 0.856000 -0.207124
v 0.212890 0.856000 -0.220321
v 0.212890 0.856000 -0.266006
v 0.141926 0.856000 -0.252808
v 0.070963 0.856000 -0.244889
v -0.000000 0.856000 -0.242250
v -0.070963 0.856000 -0.244889
v -0.141926 0.856000 -0.252808
v -0.212890 0.856000 -0.266006
vn -0.0000 -0.0000 -1.0000
vn -0.0000 0.9991 -0.0420
vn -0.9237 -0.3830 -0.0000
vn -0.3824 -0.9240 0.0001
vn 0.3824 -0.9240 0.0001
vn 0.9237 -0.3830 -0.0000
vn 0.9237 0.3830 -0.0000
vn 0.3824 0.9240 0.0001
vn -0.3824 0.9240 0.0001
vn -0.9237 0.3830 -0.0000
vn -0.8978 -0.3677 0.2425
vn -0.3302 -0.7851 0.5240
vn 0.3302 -0.7851 0.5240
vn 0.8978 -0.3677 0.2425
vn 0.8977 0.3706 -0.2383
vn 0.3297 0.8004 -0.5006
vn -0.3297 0.8004 -0.5006
vn -0.8977 0.3706 -0.2383
vn -0.9208 -0.0361 0.3885
vn -0.3754 -0.0883 0.9226
vn 0.3754 -0.0883 0.9226
vn 0.9208 -0.0361 0.3885
vn 0.9207 0.0345 -0.3887
vn 0.3751 0.0791 -0.9236
vn -0.3751 0.0791 -0.9236
vn -0.9207 0.0345 -0.3887
vn -0.9229 0.0166 0.3847
vn -0.3803 0.0404 0.9240
vn 0.3803 0.0404 0.9240
vn 0.9229 0.0166 0.3847
vn 0.9229 -0.0163 -0.3847
vn 0.3803 -0.0387 -0.9241
vn -0.3803 -0.0387 -0.9241
vn -0.9229 -0.0163 -0.3847
vn -0.8903 0.2694 0.3671
vn -0.3190 0.5747 0.7536
vn 0.3190 0.5747 0.7536
vn 0.8903 0.2694 0.3671
vn 0.8891 -0.2578 -0.3783
vn 0.3139 -0.5078 -0.8022
vn -0.3139 -0.5078 -0.8022
vn -0.8891 -0.2578 -0.3783
vn -0.9226 0.3859 -0.0000
vn -0.3795 0.9252 0.0002
vn 0.3795 0.9252 0.0002
vn 0.9226 0.3859 -0.0000
vn 0.9226 -0.3859 -0.0000
vn 0.3795 -0.9252 0.0002
vn -0.3795 -0.9252 0.0002
vn -0.9226 -0.3859 -0.0000
vn -0.8979 0.3149 0.3077
vn -0.3298 0.6644 0.6707
vn 0.3298 0.6644 0.6707
vn 0.8979 0.3149 0.3077
vn 0.8981 -0.3195 -0.3022
vn 0.3309 -0.6911 -0.6425
vn -0.3309 -0.6911 -0.6425
vn -0.8981 -0.3195 -0.3022
vn -0.9228 0.0652 0.3798
vn -0.3800 0.1560 0.9117
vn 0.3800 0.1560 0.9117
vn 0.9228 0.0652 0.3798
vn 0.9228 -0.0655 -0.3798
vn 0.3800 -0.1576 -0.9115
vn -0.3800 -0.1576 -0.9115
vn -0.9228 -0.0655 -0.3798
vn -0.9238 0.0161 0.3826
vn -0.3824 0.0387 0.9232
vn 0.3824 0.0387 0.9232
vn 0.9238 0.0161 0.3826
vn 0.9238 -0.0161 -0.3826
vn 0.3824 -0.0389 -0.9232
vn -0.3824 -0.0389 -0.9232
vn -0.9238 -0.0161 -0.3826
vn -1.0000 -0.0000 -0.0000
vn 1.0000 -0.0000 -0.0000
vn -0.0000 -0.3827 0.9239
vn -0.0000 -0.9239 0.3827
vn -0.0000 -0.9239 -0.3827
vn -0.0000 -0.3827 -0.9239
vn -0.0000 0.3827 -0.9239
vn -0.0000 0.9239 -0.3827
vn -0.0000 0.9239 0.3827
vn -0.0000 0.3827 0.9239
vn -0.0000 -1.0000 -0.0000
vn 0.1927 -0.6677 0.7191
vn 0.4953 -0.7137 0.4953
vn 0.7122 -0.6755 0.1908
vn 0.7835 -0.6214 -0.0000
vn 0.7122 -0.6755 -0.1908
vn 0.4953 -0.7137 -0.4953
vn 0.1927 -0.6677 -0.7191
vn -0.0000 -0.6081 -0.7939
vn -0.1927 -0.6677 -0.7191
vn -0.4953 -0.7137 -0.4953
vn -0.7122 -0.6755 -0.1908
vn -0.7835 -0.6214 -0.0000
vn -0.7122 -0.6755 0.1908
vn -0.4953 -0.7137 0.4953
vn -0.1927 -0.6677 0.7191
vn -0.0000 -0.6081 0.7939
vn 0.2588 -0.0000 0.9659
vn 0.7071 -0.0000 0.7071
vn 0.9659 -0.0000 0.2588
vn 0.9659 -0.0000 -0.2588
vn 0.7071 -0.0000 -0.7071
vn 0.2588 -0.0000 -0.9659
vn -0.2588 -0.0000 -0.9659
vn -0.7071 -0.0000 -0.7071
vn -0.9659 -0.0000 -0.2588
vn -0.9659 -0.0000 0.2588
vn -0.7071 -0.0000 0.7071
vn -0.2588 -0.0000 0.9659
vn -0.0000 -0.0000 1.0000
vn -0.0000 1.0000 -0.0000
vn 0.1544 0.8026 0.5762
vn 0.3871 0.8368 0.3871
vn 0.5684 0.8086 0.1523
vn 0.6434 0.7655 -0.0000
vn 0.5684 0.8086 -0.1523
vn 0.3871 0.8368 -0.3871
vn 0.1544 0.8026 -0.5762
vn -0.0000 0.7543 -0.6565
vn -0.1544 0.8026 -0.5762
vn -0.3871 0.8368 -0.3871
vn -0.5684 0.8086 -0.1523
vn -0.6434 0.7655 -0.0000
vn -0.5684 0.8086 0.1523
vn -0.3871 0.8368 0.3871
vn -0.1544 0.8026 0.5762
vn -0.0000 0.7543 0.6565
vn -0.1777 -0.0000 0.9841
vn -0.1077 -0.0000 0.9942
vn -0.0361 -0.0000 0.9993
vn 0.0361 -0.0000 0.9993
vn 0.1077 -0.0000 0.9942
vn 0.1777 -0.0000 0.9841
vn -0.1777 -0.0000 -0.9841
vn -0.1077 -0.0000 -0.9942
vn -0.0361 -0.0000 -0.9993
vn 0.0361 -0.0000 -0.9993
vn 0.1077 -0.0000 -0.9942
vn 0.1777 -0.0000 -0.9841
vn -0.1791 0.1102 0.9776
vn -0.1086 0.1085 0.9881
vn -0.0364 0.1077 0.9935
vn 0.0364 0.1077 0.9935
vn 0.1086 0.1085 0.9881
vn 0.1791 0.1102 0.9776
vn 0.9996 0.0294 -0.0000
vn -0.1793 -0.1021 -0.9785
vn -0.1087 -0.1003 -0.9890
vn -0.0364 -0.0994 -0.9944
vn 0.0364 -0.0994 -0.9944
vn 0.1087 -0.1003 -0.9890
vn 0.1793 -0.1021 -0.9785
vn -0.9996 0.0294 -0.0000
vn -0.1709 0.3561 0.9187
vn -0.1061 0.2896 0.9512
vn -0.0360 0.2541 0.9665
vn 0.0360 0.2541 0.9665
vn 0.1061 0.2896 0.9512
vn 0.1709 0.3561 0.9187
vn 0.5124 0.8587 -0.0000
vn -0.1828 -0.0275 -0.9828
vn -0.1107 0.0547 -0.9923
vn -0.0370 0.0962 -0.9947
vn 0.0370 0.0962 -0.9947
vn 0.1107 0.0547 -0.9923
vn 0.1828 -0.0275 -0.9828
vn -0.5124 0.8587 -0.0000
vt 0.187500 0.312500
vt 0.312500 0.437500
vt 0.187500 0.437500
s 0
usemtl FN_Atlas
f 1/1/1 2/1/1 3/1/1 4/1/1 5/1/1 6/1/1 7/1/1 8/1/1
f 9/1/2 10/1/2 11/1/2 12/1/2 13/1/2 14/1/2 15/1/2 16/1/2
f 8/1/3 7/1/3 17/1/3 18/1/3
f 7/1/4 6/1/4 19/1/4 17/1/4
f 6/1/5 5/1/5 20/1/5 19/1/5
f 5/1/6 4/1/6 21/1/6 20/1/6
f 4/1/7 3/1/7 22/1/7 21/1/7
f 3/1/8 2/1/8 23/1/8 22/1/8
f 2/1/9 1/1/9 24/1/9 23/1/9
f 1/1/10 8/1/10 18/1/10 24/1/10
f 18/1/11 17/1/11 25/1/11 26/1/11
f 17/1/12 19/1/12 27/1/12 25/1/12
f 19/1/13 20/1/13 28/1/13 27/1/13
f 20/1/14 21/1/14 29/1/14 28/1/14
f 21/1/15 22/1/15 30/1/15 29/1/15
f 22/1/16 23/1/16 31/1/16 30/1/16
f 23/1/17 24/1/17 32/1/17 31/1/17
f 24/1/18 18/1/18 26/1/18 32/1/18
f 26/1/19 25/1/19 33/1/19 34/1/19
f 25/1/20 27/1/20 35/1/20 33/1/20
f 27/1/21 28/1/21 36/1/21 35/1/21
f 28/1/22 29/1/22 37/1/22 36/1/22
f 29/1/23 30/1/23 38/1/23 37/1/23
f 30/1/24 31/1/24 39/1/24 38/1/24
f 31/1/25 32/1/25 40/1/25 39/1/25
f 32/1/26 26/1/26 34/1/26 40/1/26
f 34/1/27 33/1/27 41/1/27 42/1/27
f 33/1/28 35/1/28 43/1/28 41/1/28
f 35/1/29 36/1/29 44/1/29 43/1/29
f 36/1/30 37/1/30 45/1/30 44/1/30
f 37/1/31 38/1/31 46/1/31 45/1/31
f 38/1/32 39/1/32 47/1/32 46/1/32
f 39/1/33 40/1/33 48/1/33 47/1/33
f 40/1/34 34/1/34 42/1/34 48/1/34
f 42/1/35 41/1/35 49/1/35 50/1/35
f 41/1/36 43/1/36 51/1/36 49/1/36
f 43/1/37 44/1/37 52/1/37 51/1/37
f 44/1/38 45/1/38 53/1/38 52/1/38
f 45/1/39 46/1/39 54/1/39 53/1/39
f 46/1/40 47/1/40 55/1/40 54/1/40
f 47/1/41 48/1/41 56/1/41 55/1/41
f 48/1/42 42/1/42 50/1/42 56/1/42
f 50/1/43 49/1/43 57/1/43 58/1/43
f 49/1/44 51/1/44 59/1/44 57/1/44
f 51/1/45 52/1/45 60/1/45 59/1/45
f 52/1/46 53/1/46 61/1/46 60/1/46
f 53/1/47 54/1/47 62/1/47 61/1/47
f 54/1/48 55/1/48 63/1/48 62/1/48
f 55/1/49 56/1/49 64/1/49 63/1/49
f 56/1/50 50/1/50 58/1/50 64/1/50
f 58/1/51 57/1/51 65/1/51 66/1/51
f 57/1/52 59/1/52 67/1/52 65/1/52
f 59/1/53 60/1/53 68/1/53 67/1/53
f 60/1/54 61/1/54 69/1/54 68/1/54
f 61/1/55 62/1/55 70/1/55 69/1/55
f 62/1/56 63/1/56 71/1/56 70/1/56
f 63/1/57 64/1/57 72/1/57 71/1/57
f 64/1/58 58/1/58 66/1/58 72/1/58
f 66/1/59 65/1/59 73/1/59 74/1/59
f 65/1/60 67/1/60 75/1/60 73/1/60
f 67/1/61 68/1/61 76/1/61 75/1/61
f 68/1/62 69/1/62 77/1/62 76/1/62
f 69/1/63 70/1/63 78/1/63 77/1/63
f 70/1/64 71/1/64 79/1/64 78/1/64
f 71/1/65 72/1/65 80/1/65 79/1/65
f 72/1/66 66/1/66 74/1/66 80/1/66
f 74/1/67 73/1/67 10/1/67 9/1/67
f 73/1/68 75/1/68 11/1/68 10/1/68
f 75/1/69 76/1/69 12/1/69 11/1/69
f 76/1/70 77/1/70 13/1/70 12/1/70
f 77/1/71 78/1/71 14/1/71 13/1/71
f 78/1/72 79/1/72 15/1/72 14/1/72
f 79/1/73 80/1/73 16/1/73 15/1/73
f 80/1/74 74/1/74 9/1/74 16/1/74
f 81/1/1 82/1/1 83/1/1 84/1/1 85/1/1 86/1/1 87/1/1 88/1/1
f 89/1/2 90/1/2 91/1/2 92/1/2 93/1/2 94/1/2 95/1/2 96/1/2
f 88/1/3 87/1/3 97/1/3 98/1/3
f 87/1/4 86/1/4 99/1/4 97/1/4
f 86/1/5 85/1/5 100/1/5 99/1/5
f 85/1/6 84/1/6 101/1/6 100/1/6
f 84/1/7 83/1/7 102/1/7 101/1/7
f 83/1/8 82/1/8 103/1/8 102/1/8
f 82/1/9 81/1/9 104/1/9 103/1/9
f 81/1/10 88/1/10 98/1/10 104/1/10
f 98/1/11 97/1/11 105/1/11 106/1/11
f 97/1/12 99/1/12 107/1/12 105/1/12
f 99/1/13 100/1/13 108/1/13 107/1/13
f 100/1/14 101/1/14 109/1/14 108/1/14
f 101/1/15 102/1/15 110/1/15 109/1/15
f 102/1/16 103/1/16 111/1/16 110/1/16
f 103/1/17 104/1/17 112/1/17 111/1/17
f 104/1/18 98/1/18 106/1/18 112/1/18
f 106/1/19 105/1/19 113/1/19 114/1/19
f 105/1/20 107/1/20 115/1/20 113/1/20
f 107/1/21 108/1/21 116/1/21 115/1/21
f 108/1/22 109/1/22 117/1/22 116/1/22
f 109/1/23 110/1/23 118/1/23 117/1/23
f 110/1/24 111/1/24 119/1/24 118/1/24
f 111/1/25 112/1/25 120/1/25 119/1/25
f 112/1/26 106/1/26 114/1/26 120/1/26
f 114/1/27 113/1/27 121/1/27 122/1/27
f 113/1/28 115/1/28 123/1/28 121/1/28
f 115/1/29 116/1/29 124/1/29 123/1/29
f 116/1/30 117/1/30 125/1/30 124/1/30
f 117/1/31 118/1/31 126/1/31 125/1/31
f 118/1/32 119/1/32 127/1/32 126/1/32
f 119/1/33 120/1/33 128/1/33 127/1/33
f 120/1/34 114/1/34 122/1/34 128/1/34
f 122/1/35 121/1/35 129/1/35 130/1/35
f 121/1/36 123/1/36 131/1/36 129/1/36
f 123/1/37 124/1/37 132/1/37 131/1/37
f 124/1/38 125/1/38 133/1/38 132/1/38
f 125/1/39 126/1/39 134/1/39 133/1/39
f 126/1/40 127/1/40 135/1/40 134/1/40
f 127/1/41 128/1/41 136/1/41 135/1/41
f 128/1/42 122/1/42 130/1/42 136/1/42
f 130/1/43 129/1/43 137/1/43 138/1/43
f 129/1/44 131/1/44 139/1/44 137/1/44
f 131/1/45 132/1/45 140/1/45 139/1/45
f 132/1/46 133/1/46 141/1/46 140/1/46
f 133/1/47 134/1/47 142/1/47 141/1/47
f 134/1/48 135/1/48 143/1/48 142/1/48
f 135/1/49 136/1/49 144/1/49 143/1/49
f 136/1/50 130/1/50 138/1/50 144/1/50
f 138/1/51 137/1/51 145/1/51 146/1/51
f 137/1/52 139/1/52 147/1/52 145/1/52
f 139/1/53 140/1/53 148/1/53 147/1/53
f 140/1/54 141/1/54 149/1/54 148/1/54
f 141/1/55 142/1/55 150/1/55 149/1/55
f 142/1/56 143/1/56 151/1/56 150/1/56
f 143/1/57 144/1/57 152/1/57 151/1/57
f 144/1/58 138/1/58 146/1/58 152/1/58
f 146/1/59 145/1/59 153/1/59 154/1/59
f 145/1/60 147/1/60 155/1/60 153/1/60
f 147/1/61 148/1/61 156/1/61 155/1/61
f 148/1/62 149/1/62 157/1/62 156/1/62
f 149/1/63 150/1/63 158/1/63 157/1/63
f 150/1/64 151/1/64 159/1/64 158/1/64
f 151/1/65 152/1/65 160/1/65 159/1/65
f 152/1/66 146/1/66 154/1/66 160/1/66
f 154/1/67 153/1/67 90/1/67 89/1/67
f 153/1/68 155/1/68 91/1/68 90/1/68
f 155/1/69 156/1/69 92/1/69 91/1/69
f 156/1/70 157/1/70 93/1/70 92/1/70
f 157/1/71 158/1/71 94/1/71 93/1/71
f 158/1/72 159/1/72 95/1/72 94/1/72
f 159/1/73 160/1/73 96/1/73 95/1/73
f 160/1/74 154/1/74 89/1/74 96/1/74
f 161/1/75 162/1/75 163/1/75 164/1/75 165/1/75 166/1/75 167/1/75 168/1/75
f 169/1/76 170/1/76 171/1/76 172/1/76 173/1/76 174/1/76 175/1/76 176/1/76
f 168/1/77 167/1/77 170/1/77 169/1/77
f 167/1/78 166/1/78 171/1/78 170/1/78
f 166/1/79 165/1/79 172/1/79 171/1/79
f 165/1/80 164/1/80 173/1/80 172/1/80
f 164/1/81 163/1/81 174/1/81 173/1/81
f 163/1/82 162/1/82 175/1/82 174/1/82
f 162/1/83 161/1/83 176/1/83 175/1/83
f 161/1/84 168/1/84 169/1/84 176/1/84
f 177/1/75 178/1/75 179/1/75 180/1/75 181/1/75 182/1/75 183/1/75 184/1/75
f 185/1/76 186/1/76 187/1/76 188/1/76 189/1/76 190/1/76 191/1/76 192/1/76
f 184/1/77 183/1/77 186/1/77 185/1/77
f 183/1/78 182/1/78 187/1/78 186/1/78
f 182/1/79 181/1/79 188/1/79 187/1/79
f 181/1/80 180/1/80 189/1/80 188/1/80
f 180/1/81 179/1/81 190/1/81 189/1/81
f 179/1/82 178/1/82 191/1/82 190/1/82
f 178/1/83 177/1/83 192/1/83 191/1/83
f 177/1/84 184/1/84 185/1/84 192/1/84
f 193/1/75 194/1/75 195/1/75 196/1/75 197/1/75 198/1/75 199/1/75 200/1/75
f 201/1/76 202/1/76 203/1/76 204/1/76 205/1/76 206/1/76 207/1/76 208/1/76
f 200/1/77 199/1/77 202/1/77 201/1/77
f 199/1/78 198/1/78 203/1/78 202/1/78
f 198/1/79 197/1/79 204/1/79 203/1/79
f 197/1/80 196/1/80 205/1/80 204/1/80
f 196/1/81 195/1/81 206/1/81 205/1/81
f 195/1/82 194/1/82 207/1/82 206/1/82
f 194/1/83 193/1/83 208/1/83 207/1/83
f 193/1/84 200/1/84 201/1/84 208/1/84
f 209/2/85 210/2/85 211/2/85 212/2/85 213/2/85 214/2/85 215/2/85 216/2/85 217/2/85 218/2/85 219/2/85 220/2/85 221/2/85 222/2/85 223/2/85 224/2/85
f 224/2/86 223/2/86 225/2/86 226/2/86
f 223/2/87 222/2/87 227/2/87 225/2/87
f 222/2/88 221/2/88 228/2/88 227/2/88
f 221/2/89 220/2/89 229/2/89 228/2/89
f 220/2/90 219/2/90 230/2/90 229/2/90
f 219/2/91 218/2/91 231/2/91 230/2/91
f 218/2/92 217/2/92 232/2/92 231/2/92
f 217/2/93 216/2/93 233/2/93 232/2/93
f 216/2/94 215/2/94 234/2/94 233/2/94
f 215/2/95 214/2/95 235/2/95 234/2/95
f 214/2/96 213/2/96 236/2/96 235/2/96
f 213/2/97 212/2/97 237/2/97 236/2/97
f 212/2/98 211/2/98 238/2/98 237/2/98
f 211/2/99 210/2/99 239/2/99 238/2/99
f 210/2/100 209/2/100 240/2/100 239/2/100
f 209/2/101 224/2/101 226/2/101 240/2/101
f 226/2/102 225/2/102 241/2/102 242/2/102
f 225/2/103 227/2/103 243/2/103 241/2/103
f 227/2/104 228/2/104 244/2/104 243/2/104
f 228/2/76 229/2/76 245/2/76 244/2/76
f 229/2/105 230/2/105 246/2/105 245/2/105
f 230/2/106 231/2/106 247/2/106 246/2/106
f 231/2/107 232/2/107 248/2/107 247/2/107
f 232/2/1 233/2/1 249/2/1 248/2/1
f 233/2/108 234/2/108 250/2/108 249/2/108
f 234/2/109 235/2/109 251/2/109 250/2/109
f 235/2/110 236/2/110 252/2/110 251/2/110
f 236/2/75 237/2/75 253/2/75 252/2/75
f 237/2/111 238/2/111 254/2/111 253/2/111
f 238/2/112 239/2/112 255/2/112 254/2/112
f 239/2/113 240/2/113 256/2/113 255/2/113
f 240/2/114 226/2/114 242/2/114 256/2/114
f 257/3/115 258/3/115 259/3/115 260/3/115 261/3/115 262/3/115 263/3/115 264/3/115 265/3/115 266/3/115 267/3/115 268/3/115 269/3/115 270/3/115 271/3/115 272/3/115
f 242/3/116 241/3/116 258/3/116 257/3/116
f 241/3/117 243/3/117 259/3/117 258/3/117
f 243/3/118 244/3/118 260/3/118 259/3/118
f 244/3/119 245/3/119 261/3/119 260/3/119
f 245/3/120 246/3/120 262/3/120 261/3/120
f 246/3/121 247/3/121 263/3/121 262/3/121
f 247/3/122 248/3/122 264/3/122 263/3/122
f 248/3/123 249/3/123 265/3/123 264/3/123
f 249/3/124 250/3/124 266/3/124 265/3/124
f 250/3/125 251/3/125 267/3/125 266/3/125
f 251/3/126 252/3/126 268/3/126 267/3/126
f 252/3/127 253/3/127 269/3/127 268/3/127
f 253/3/128 254/3/128 270/3/128 269/3/128
f 254/3/129 255/3/129 271/3/129 270/3/129
f 255/3/130 256/3/130 272/3/130 271/3/130
f 256/3/131 242/3/131 257/3/131 272/3/131
f 273/2/85 274/2/85 275/2/85 276/2/85 277/2/85 278/2/85 279/2/85 280/2/85 281/2/85 282/2/85 283/2/85 284/2/85 285/2/85 286/2/85
f 286/2/132 285/2/132 287/2/132 288/2/132
f 285/2/133 284/2/133 289/2/133 287/2/133
f 284/2/134 283/2/134 290/2/134 289/2/134
f 283/2/135 282/2/135 291/2/135 290/2/135
f 282/2/136 281/2/136 292/2/136 291/2/136
f 281/2/137 280/2/137 293/2/137 292/2/137
f 280/2/76 279/2/76 294/2/76 293/2/76
f 279/2/138 278/2/138 295/2/138 294/2/138
f 278/2/139 277/2/139 296/2/139 295/2/139
f 277/2/140 276/2/140 297/2/140 296/2/140
f 276/2/141 275/2/141 298/2/141 297/2/141
f 275/2/142 274/2/142 299/2/142 298/2/142
f 274/2/143 273/2/143 300/2/143 299/2/143
f 273/2/75 286/2/75 288/2/75 300/2/75
f 288/3/144 287/3/144 301/3/144 302/3/144
f 287/3/145 289/3/145 303/3/145 301/3/145
f 289/3/146 290/3/146 304/3/146 303/3/146
f 290/3/147 291/3/147 305/3/147 304/3/147
f 291/3/148 292/3/148 306/3/148 305/3/148
f 292/3/149 293/3/149 307/3/149 306/3/149
f 293/3/150 294/3/150 308/3/150 307/3/150
f 294/3/151 295/3/151 309/3/151 308/3/151
f 295/3/152 296/3/152 310/3/152 309/3/152
f 296/3/153 297/3/153 311/3/153 310/3/153
f 297/3/154 298/3/154 312/3/154 311/3/154
f 298/3/155 299/3/155 313/3/155 312/3/155
f 299/3/156 300/3/156 314/3/156 313/3/156
f 300/3/157 288/3/157 302/3/157 314/3/157
f 315/3/115 316/3/115 317/3/115 318/3/115 319/3/115 320/3/115 321/3/115 322/3/115 323/3/115 324/3/115 325/3/115 326/3/115 327/3/115 328/3/115
f 302/2/158 301/2/158 316/2/158 315/2/158
f 301/2/159 303/2/159 317/2/159 316/2/159
f 303/2/160 304/2/160 318/2/160 317/2/160
f 304/2/161 305/2/161 319/2/161 318/2/161
f 305/2/162 306/2/162 320/2/162 319/2/162
f 306/2/163 307/2/163 321/2/163 320/2/163
f 307/2/164 308/2/164 322/2/164 321/2/164
f 308/2/165 309/2/165 323/2/165 322/2/165
f 309/2/166 310/2/166 324/2/166 323/2/166
f 310/2/167 311/2/167 325/2/167 324/2/167
f 311/2/168 312/2/168 326/2/168 325/2/168
f 312/2/169 313/2/169 327/2/169 326/2/169
f 313/2/170 314/2/170 328/2/170 327/2/170
f 314/2/171 302/2/171 315/2/171 328/2/171
