# Blender 5.2.0 LTS
# www.blender.org
mtllib FN_Cabinet_TV.mtl
o FN_Cabinet_TV
v -0.701542 0.008967 0.155962
v -0.691036 0.004647 0.151390
v -0.679922 0.002291 0.155962
v -0.674712 0.003279 0.167000
v -0.678458 0.007033 0.178038
v -0.688964 0.011353 0.182610
v -0.700078 0.013709 0.178038
v -0.705288 0.012721 0.167000
v -0.663288 0.148721 0.135000
v -0.658078 0.149709 0.146038
v -0.646964 0.147353 0.150610
v -0.636458 0.143033 0.146038
v -0.632712 0.139279 0.135000
v -0.637922 0.138291 0.123962
v -0.649036 0.140647 0.119390
v -0.659542 0.144967 0.123962
v -0.679500 0.000000 0.185187
v -0.700500 0.000000 0.185187
v -0.711000 0.000000 0.167000
v -0.700500 0.000000 0.148813
v -0.679500 0.000000 0.148813
v -0.669000 0.000000 0.167000
v -0.672000 0.014000 0.167000
v -0.681000 0.014000 0.151412
v -0.699000 0.014000 0.151412
v -0.708000 0.014000 0.167000
v -0.699000 0.014000 0.182588
v -0.681000 0.014000 0.182588
v -0.700078 0.013709 -0.208038
v -0.688964 0.011353 -0.212610
v -0.678458 0.007033 -0.208038
v -0.674712 0.003279 -0.197000
v -0.679922 0.002291 -0.185962
v -0.691036 0.004647 -0.181390
v -0.701542 0.008967 -0.185962
v -0.705288 0.012721 -0.197000
v -0.663288 0.148721 -0.165000
v -0.659542 0.144967 -0.153962
v -0.649036 0.140647 -0.149390
v -0.637922 0.138291 -0.153962
v -0.632712 0.139279 -0.165000
v -0.636458 0.143033 -0.176038
v -0.646964 0.147353 -0.180610
v -0.658078 0.149709 -0.176038
v -0.679500 0.000000 -0.178813
v -0.700500 0.000000 -0.178813
v -0.711000 0.000000 -0.197000
v -0.700500 0.000000 -0.215187
v -0.679500 0.000000 -0.215187
v -0.669000 0.000000 -0.197000
v -0.672000 0.014000 -0.197000
v -0.681000 0.014000 -0.212588
v -0.699000 0.014000 -0.212588
v -0.708000 0.014000 -0.197000
v -0.699000 0.014000 -0.181412
v -0.681000 0.014000 -0.181412
v 0.679922 0.002291 0.155962
v 0.691036 0.004647 0.151390
v 0.701542 0.008967 0.155962
v 0.705288 0.012721 0.167000
v 0.700078 0.013709 0.178038
v 0.688964 0.011353 0.182610
v 0.678458 0.007033 0.178038
v 0.674712 0.003279 0.167000
v 0.632712 0.139279 0.135000
v 0.636458 0.143033 0.146038
v 0.646964 0.147353 0.150610
v 0.658078 0.149709 0.146038
v 0.663288 0.148721 0.135000
v 0.659542 0.144967 0.123962
v 0.649036 0.140647 0.119390
v 0.637922 0.138291 0.123962
v 0.700500 0.000000 0.185187
v 0.679500 0.000000 0.185187
v 0.669000 0.000000 0.167000
v 0.679500 0.000000 0.148813
v 0.700500 0.000000 0.148813
v 0.711000 0.000000 0.167000
v 0.708000 0.014000 0.167000
v 0.699000 0.014000 0.151412
v 0.681000 0.014000 0.151412
v 0.672000 0.014000 0.167000
v 0.681000 0.014000 0.182588
v 0.699000 0.014000 0.182588
v 0.678458 0.007033 -0.208038
v 0.688964 0.011353 -0.212610
v 0.700078 0.013709 -0.208038
v 0.705288 0.012721 -0.197000
v 0.701542 0.008967 -0.185962
v 0.691036 0.004647 -0.181390
v 0.679922 0.002291 -0.185962
v 0.674712 0.003279 -0.197000
v 0.632712 0.139279 -0.165000
v 0.637922 0.138291 -0.153962
v 0.649036 0.140647 -0.149390
v 0.659542 0.144967 -0.153962
v 0.663288 0.148721 -0.165000
v 0.658078 0.149709 -0.176038
v 0.646964 0.147353 -0.180610
v 0.636458 0.143033 -0.176038
v 0.700500 0.000000 -0.178813
v 0.679500 0.000000 -0.178813
v 0.669000 0.000000 -0.197000
v 0.679500 0.000000 -0.215187
v 0.700500 0.000000 -0.215187
v 0.711000 0.000000 -0.197000
v 0.708000 0.014000 -0.197000
v 0.699000 0.014000 -0.212588
v 0.681000 0.014000 -0.212588
v 0.672000 0.014000 -0.197000
v 0.681000 0.014000 -0.181412
v 0.699000 0.014000 -0.181412
v -0.800000 0.130000 0.195000
v -0.800000 0.130000 -0.225000
v -0.782000 0.130000 -0.225000
v -0.782000 0.130000 0.195000
v -0.800000 0.500000 0.195000
v -0.782000 0.500000 0.195000
v -0.782000 0.500000 -0.225000
v -0.800000 0.500000 -0.225000
v 0.782000 0.130000 0.195000
v 0.782000 0.130000 -0.225000
v 0.800000 0.130000 -0.225000
v 0.800000 0.130000 0.195000
v 0.782000 0.500000 0.195000
v 0.800000 0.500000 0.195000
v 0.800000 0.500000 -0.225000
v 0.782000 0.500000 -0.225000
v -0.777171 0.130000 -0.223703
v 0.777171 0.130000 -0.223703
v 0.777171 0.130000 0.193703
v -0.777171 0.130000 0.193703
v 0.782000 0.135000 0.195000
v -0.782000 0.135000 0.195000
v 0.782000 0.135000 -0.225000
v -0.782000 0.135000 -0.225000
v 0.782000 0.155000 0.195000
v -0.782000 0.155000 0.195000
v 0.782000 0.155000 -0.225000
v -0.782000 0.155000 -0.225000
v -0.777171 0.160000 0.193703
v 0.777171 0.160000 0.193703
v 0.777171 0.160000 -0.223703
v -0.777171 0.160000 -0.223703
v -0.782000 0.150000 -0.207000
v -0.782000 0.150000 -0.225000
v 0.782000 0.150000 -0.225000
v 0.782000 0.150000 -0.207000
v -0.782000 0.500000 -0.207000
v 0.782000 0.500000 -0.207000
v -0.794197 0.470000 -0.223477
v 0.794197 0.470000 -0.223477
v 0.794197 0.470000 0.193477
v -0.794197 0.470000 0.193477
v 0.800000 0.476000 0.195000
v -0.800000 0.476000 0.195000
v 0.800000 0.476000 -0.225000
v -0.800000 0.476000 -0.225000
v 0.800000 0.494000 0.195000
v -0.800000 0.494000 0.195000
v 0.800000 0.494000 -0.225000
v -0.800000 0.494000 -0.225000
v -0.794197 0.500000 0.193477
v 0.794197 0.500000 0.193477
v 0.794197 0.500000 -0.223477
v -0.794197 0.500000 -0.223477
v -0.439000 0.156000 0.195000
v -0.439000 0.156000 -0.207000
v -0.421000 0.156000 -0.207000
v -0.421000 0.156000 0.195000
v -0.439000 0.470000 0.195000
v -0.421000 0.470000 0.195000
v -0.421000 0.470000 -0.207000
v -0.439000 0.470000 -0.207000
v 0.421000 0.156000 0.195000
v 0.421000 0.156000 -0.207000
v 0.439000 0.156000 -0.207000
v 0.439000 0.156000 0.195000
v 0.421000 0.470000 0.195000
v 0.439000 0.470000 0.195000
v 0.439000 0.470000 -0.207000
v 0.421000 0.470000 -0.207000
v -0.421000 0.302000 0.189000
v -0.421000 0.302000 -0.207000
v 0.421000 0.302000 -0.207000
v 0.421000 0.302000 0.189000
v -0.421000 0.324000 0.189000
v 0.421000 0.324000 0.189000
v 0.421000 0.324000 -0.207000
v -0.421000 0.324000 -0.207000
v -0.780000 0.172000 0.211000
v -0.780000 0.172000 0.195000
v -0.441000 0.172000 0.195000
v -0.441000 0.172000 0.211000
v -0.780000 0.312000 0.211000
v -0.441000 0.312000 0.211000
v -0.441000 0.312000 0.195000
v -0.780000 0.312000 0.195000
v -0.682500 0.234000 0.225000
v -0.682500 0.234000 0.212000
v -0.538500 0.234000 0.212000
v -0.538500 0.234000 0.225000
v -0.682500 0.250000 0.225000
v -0.538500 0.250000 0.225000
v -0.538500 0.250000 0.212000
v -0.682500 0.250000 0.212000
v -0.677500 0.235000 0.213000
v -0.677500 0.235000 0.207000
v -0.663500 0.235000 0.207000
v -0.663500 0.235000 0.213000
v -0.677500 0.249000 0.213000
v -0.663500 0.249000 0.213000
v -0.663500 0.249000 0.207000
v -0.677500 0.249000 0.207000
v -0.557500 0.235000 0.213000
v -0.557500 0.235000 0.207000
v -0.543500 0.235000 0.207000
v -0.543500 0.235000 0.213000
v -0.557500 0.249000 0.213000
v -0.543500 0.249000 0.213000
v -0.543500 0.249000 0.207000
v -0.557500 0.249000 0.207000
v -0.780000 0.322000 0.211000
v -0.780000 0.322000 0.195000
v -0.441000 0.322000 0.195000
v -0.441000 0.322000 0.211000
v -0.780000 0.462000 0.211000
v -0.441000 0.462000 0.211000
v -0.441000 0.462000 0.195000
v -0.780000 0.462000 0.195000
v -0.682500 0.384000 0.225000
v -0.682500 0.384000 0.212000
v -0.538500 0.384000 0.212000
v -0.538500 0.384000 0.225000
v -0.682500 0.400000 0.225000
v -0.538500 0.400000 0.225000
v -0.538500 0.400000 0.212000
v -0.682500 0.400000 0.212000
v -0.677500 0.385000 0.213000
v -0.677500 0.385000 0.207000
v -0.663500 0.385000 0.207000
v -0.663500 0.385000 0.213000
v -0.677500 0.399000 0.213000
v -0.663500 0.399000 0.213000
v -0.663500 0.399000 0.207000
v -0.677500 0.399000 0.207000
v -0.557500 0.385000 0.213000
v -0.557500 0.385000 0.207000
v -0.543500 0.385000 0.207000
v -0.543500 0.385000 0.213000
v -0.557500 0.399000 0.213000
v -0.543500 0.399000 0.213000
v -0.543500 0.399000 0.207000
v -0.557500 0.399000 0.207000
v 0.441000 0.172000 0.211000
v 0.441000 0.172000 0.195000
v 0.780000 0.172000 0.195000
v 0.780000 0.172000 0.211000
v 0.441000 0.312000 0.211000
v 0.780000 0.312000 0.211000
v 0.780000 0.312000 0.195000
v 0.441000 0.312000 0.195000
v 0.538500 0.234000 0.225000
v 0.538500 0.234000 0.212000
v 0.682500 0.234000 0.212000
v 0.682500 0.234000 0.225000
v 0.538500 0.250000 0.225000
v 0.682500 0.250000 0.225000
v 0.682500 0.250000 0.212000
v 0.538500 0.250000 0.212000
v 0.543500 0.235000 0.213000
v 0.543500 0.235000 0.207000
v 0.557500 0.235000 0.207000
v 0.557500 0.235000 0.213000
v 0.543500 0.249000 0.213000
v 0.557500 0.249000 0.213000
v 0.557500 0.249000 0.207000
v 0.543500 0.249000 0.207000
v 0.663500 0.235000 0.213000
v 0.663500 0.235000 0.207000
v 0.677500 0.235000 0.207000
v 0.677500 0.235000 0.213000
v 0.663500 0.249000 0.213000
v 0.677500 0.249000 0.213000
v 0.677500 0.249000 0.207000
v 0.663500 0.249000 0.207000
v 0.441000 0.322000 0.211000
v 0.441000 0.322000 0.195000
v 0.780000 0.322000 0.195000
v 0.780000 0.322000 0.211000
v 0.441000 0.462000 0.211000
v 0.780000 0.462000 0.211000
v 0.780000 0.462000 0.195000
v 0.441000 0.462000 0.195000
v 0.538500 0.384000 0.225000
v 0.538500 0.384000 0.212000
v 0.682500 0.384000 0.212000
v 0.682500 0.384000 0.225000
v 0.538500 0.400000 0.225000
v 0.682500 0.400000 0.225000
v 0.682500 0.400000 0.212000
v 0.538500 0.400000 0.212000
v 0.543500 0.385000 0.213000
v 0.543500 0.385000 0.207000
v 0.557500 0.385000 0.207000
v 0.557500 0.385000 0.213000
v 0.543500 0.399000 0.213000
v 0.557500 0.399000 0.213000
v 0.557500 0.399000 0.207000
v 0.543500 0.399000 0.207000
v 0.663500 0.385000 0.213000
v 0.663500 0.385000 0.207000
v 0.677500 0.385000 0.207000
v 0.677500 0.385000 0.213000
v 0.663500 0.399000 0.213000
v 0.677500 0.399000 0.213000
v 0.677500 0.399000 0.207000
v 0.663500 0.399000 0.207000
vn -0.2879 -0.9322 0.2193
vn 0.2879 0.9322 -0.2193
vn -0.8580 0.3528 0.3734
vn -0.3058 0.3065 0.9014
vn 0.4254 0.0807 0.9014
vn 0.9075 -0.1924 0.3734
vn 0.8580 -0.3528 -0.3734
vn 0.3058 -0.3065 -0.9014
vn -0.4254 -0.0807 -0.9014
vn -0.9075 0.1924 -0.3734
vn -0.0000 -1.0000 -0.0000
vn -0.0000 1.0000 -0.0000
vn 0.8515 0.1825 -0.4916
vn -0.0000 0.1825 -0.9832
vn -0.8515 0.1825 -0.4916
vn -0.8515 0.1825 0.4916
vn -0.0000 0.1825 0.9832
vn 0.8515 0.1825 0.4916
vn -0.2879 -0.9322 -0.2193
vn 0.2879 0.9322 0.2193
vn -0.9075 0.1924 0.3734
vn -0.4254 -0.0807 0.9014
vn 0.3058 -0.3065 0.9014
vn 0.8580 -0.3528 0.3734
vn 0.9075 -0.1924 -0.3734
vn 0.4254 0.0807 -0.9014
vn -0.3058 0.3065 -0.9014
vn -0.8580 0.3528 -0.3734
vn 0.2879 -0.9322 0.2193
vn -0.2879 0.9322 -0.2193
vn -0.9075 -0.1924 0.3734
vn -0.4254 0.0807 0.9014
vn 0.3058 0.3065 0.9014
vn 0.8580 0.3528 0.3734
vn 0.9075 0.1924 -0.3734
vn 0.4254 -0.0807 -0.9014
vn -0.3058 -0.3065 -0.9014
vn -0.8580 -0.3528 -0.3734
vn 0.2879 -0.9322 -0.2193
vn -0.2879 0.9322 0.2193
vn -0.8580 -0.3528 0.3734
vn -0.3058 -0.3065 0.9014
vn 0.4254 -0.0807 0.9014
vn 0.9075 0.1924 0.3734
vn 0.8580 0.3528 -0.3734
vn 0.3058 0.3065 -0.9014
vn -0.4254 0.0807 -0.9014
vn -0.9075 -0.1924 -0.3734
vn -0.0000 -0.0000 1.0000
vn -0.0000 -0.0000 -1.0000
vn -1.0000 -0.0000 -0.0000
vn 1.0000 -0.0000 -0.0000
vn -0.0000 -0.2510 0.9680
vn 0.7193 -0.6947 -0.0000
vn -0.0000 -0.2510 -0.9680
vn -0.7193 -0.6947 -0.0000
vn -0.0000 0.2510 0.9680
vn 0.7193 0.6947 -0.0000
vn -0.0000 0.2510 -0.9680
vn -0.7193 0.6947 -0.0000
vn -0.0000 -0.2461 0.9692
vn 0.7188 -0.6952 -0.0000
vn -0.0000 -0.2461 -0.9692
vn -0.7188 -0.6952 -0.0000
vn -0.0000 0.2461 0.9692
vn 0.7188 0.6952 -0.0000
vn -0.0000 0.2461 -0.9692
vn -0.7188 0.6952 -0.0000
vt 0.812500 0.312500
vt 0.937500 0.187500
vt 0.437500 0.812500
vt 0.562500 0.812500
vt 0.812500 0.937500
vt 0.687500 0.937500
vt 0.437500 0.937500
s 0
usemtl FN_Atlas
f 1/1/1 2/1/1 3/1/1 4/1/1 5/1/1 6/1/1 7/1/1 8/1/1
f 9/1/2 10/1/2 11/1/2 12/1/2 13/1/2 14/1/2 15/1/2 16/1/2
f 8/1/3 7/1/3 10/1/3 9/1/3
f 7/1/4 6/1/4 11/1/4 10/1/4
f 6/1/5 5/1/5 12/1/5 11/1/5
f 5/1/6 4/1/6 13/1/6 12/1/6
f 4/1/7 3/1/7 14/1/7 13/1/7
f 3/1/8 2/1/8 15/1/8 14/1/8
f 2/1/9 1/1/9 16/1/9 15/1/9
f 1/1/10 8/1/10 9/1/10 16/1/10
f 17/2/11 18/2/11 19/2/11 20/2/11 21/2/11 22/2/11
f 23/2/12 24/2/12 25/2/12 26/2/12 27/2/12 28/2/12
f 22/2/13 21/2/13 24/2/13 23/2/13
f 21/2/14 20/2/14 25/2/14 24/2/14
f 20/2/15 19/2/15 26/2/15 25/2/15
f 19/2/16 18/2/16 27/2/16 26/2/16
f 18/2/17 17/2/17 28/2/17 27/2/17
f 17/2/18 22/2/18 23/2/18 28/2/18
f 29/1/19 30/1/19 31/1/19 32/1/19 33/1/19 34/1/19 35/1/19 36/1/19
f 37/1/20 38/1/20 39/1/20 40/1/20 41/1/20 42/1/20 43/1/20 44/1/20
f 36/1/21 35/1/21 38/1/21 37/1/21
f 35/1/22 34/1/22 39/1/22 38/1/22
f 34/1/23 33/1/23 40/1/23 39/1/23
f 33/1/24 32/1/24 41/1/24 40/1/24
f 32/1/25 31/1/25 42/1/25 41/1/25
f 31/1/26 30/1/26 43/1/26 42/1/26
f 30/1/27 29/1/27 44/1/27 43/1/27
f 29/1/28 36/1/28 37/1/28 44/1/28
f 45/2/11 46/2/11 47/2/11 48/2/11 49/2/11 50/2/11
f 51/2/12 52/2/12 53/2/12 54/2/12 55/2/12 56/2/12
f 50/2/13 49/2/13 52/2/13 51/2/13
f 49/2/14 48/2/14 53/2/14 52/2/14
f 48/2/15 47/2/15 54/2/15 53/2/15
f 47/2/16 46/2/16 55/2/16 54/2/16
f 46/2/17 45/2/17 56/2/17 55/2/17
f 45/2/18 50/2/18 51/2/18 56/2/18
f 57/1/29 58/1/29 59/1/29 60/1/29 61/1/29 62/1/29 63/1/29 64/1/29
f 65/1/30 66/1/30 67/1/30 68/1/30 69/1/30 70/1/30 71/1/30 72/1/30
f 64/1/31 63/1/31 66/1/31 65/1/31
f 63/1/32 62/1/32 67/1/32 66/1/32
f 62/1/33 61/1/33 68/1/33 67/1/33
f 61/1/34 60/1/34 69/1/34 68/1/34
f 60/1/35 59/1/35 70/1/35 69/1/35
f 59/1/36 58/1/36 71/1/36 70/1/36
f 58/1/37 57/1/37 72/1/37 71/1/37
f 57/1/38 64/1/38 65/1/38 72/1/38
f 73/2/11 74/2/11 75/2/11 76/2/11 77/2/11 78/2/11
f 79/2/12 80/2/12 81/2/12 82/2/12 83/2/12 84/2/12
f 78/2/13 77/2/13 80/2/13 79/2/13
f 77/2/14 76/2/14 81/2/14 80/2/14
f 76/2/15 75/2/15 82/2/15 81/2/15
f 75/2/16 74/2/16 83/2/16 82/2/16
f 74/2/17 73/2/17 84/2/17 83/2/17
f 73/2/18 78/2/18 79/2/18 84/2/18
f 85/1/39 86/1/39 87/1/39 88/1/39 89/1/39 90/1/39 91/1/39 92/1/39
f 93/1/40 94/1/40 95/1/40 96/1/40 97/1/40 98/1/40 99/1/40 100/1/40
f 92/1/41 91/1/41 94/1/41 93/1/41
f 91/1/42 90/1/42 95/1/42 94/1/42
f 90/1/43 89/1/43 96/1/43 95/1/43
f 89/1/44 88/1/44 97/1/44 96/1/44
f 88/1/45 87/1/45 98/1/45 97/1/45
f 87/1/46 86/1/46 99/1/46 98/1/46
f 86/1/47 85/1/47 100/1/47 99/1/47
f 85/1/48 92/1/48 93/1/48 100/1/48
f 101/2/11 102/2/11 103/2/11 104/2/11 105/2/11 106/2/11
f 107/2/12 108/2/12 109/2/12 110/2/12 111/2/12 112/2/12
f 106/2/13 105/2/13 108/2/13 107/2/13
f 105/2/14 104/2/14 109/2/14 108/2/14
f 104/2/15 103/2/15 110/2/15 109/2/15
f 103/2/16 102/2/16 111/2/16 110/2/16
f 102/2/17 101/2/17 112/2/17 111/2/17
f 101/2/18 106/2/18 107/2/18 112/2/18
f 113/3/11 114/3/11 115/3/11 116/3/11
f 117/3/12 118/3/12 119/3/12 120/3/12
f 113/3/49 116/3/49 118/3/49 117/3/49
f 115/3/50 114/3/50 120/3/50 119/3/50
f 113/4/51 117/4/51 120/4/51 114/4/51
f 116/4/52 115/4/52 119/4/52 118/4/52
f 121/3/11 122/3/11 123/3/11 124/3/11
f 125/3/12 126/3/12 127/3/12 128/3/12
f 121/3/49 124/3/49 126/3/49 125/3/49
f 123/3/50 122/3/50 128/3/50 127/3/50
f 121/4/51 125/4/51 128/4/51 122/4/51
f 124/4/52 123/4/52 127/4/52 126/4/52
f 129/4/11 130/4/11 131/4/11 132/4/11
f 132/4/53 131/4/53 133/4/53 134/4/53
f 131/4/54 130/4/54 135/4/54 133/4/54
f 130/4/55 129/4/55 136/4/55 135/4/55
f 129/4/56 132/4/56 134/4/56 136/4/56
f 134/4/49 133/4/49 137/4/49 138/4/49
f 133/4/52 135/4/52 139/4/52 137/4/52
f 135/4/50 136/4/50 140/4/50 139/4/50
f 136/4/51 134/4/51 138/4/51 140/4/51
f 141/3/12 142/3/12 143/3/12 144/3/12
f 138/4/57 137/4/57 142/4/57 141/4/57
f 137/4/58 139/4/58 143/4/58 142/4/58
f 139/4/59 140/4/59 144/4/59 143/4/59
f 140/4/60 138/4/60 141/4/60 144/4/60
f 145/5/11 146/5/11 147/5/11 148/5/11
f 149/5/12 150/5/12 128/5/12 119/5/12
f 145/5/49 148/5/49 150/5/49 149/5/49
f 147/5/50 146/5/50 119/5/50 128/5/50
f 145/5/51 149/5/51 119/5/51 146/5/51
f 148/5/52 147/5/52 128/5/52 150/5/52
f 151/4/11 152/4/11 153/4/11 154/4/11
f 154/4/61 153/4/61 155/4/61 156/4/61
f 153/4/62 152/4/62 157/4/62 155/4/62
f 152/4/63 151/4/63 158/4/63 157/4/63
f 151/4/64 154/4/64 156/4/64 158/4/64
f 156/4/49 155/4/49 159/4/49 160/4/49
f 155/4/52 157/4/52 161/4/52 159/4/52
f 157/4/50 158/4/50 162/4/50 161/4/50
f 158/4/51 156/4/51 160/4/51 162/4/51
f 163/3/12 164/3/12 165/3/12 166/3/12
f 160/4/65 159/4/65 164/4/65 163/4/65
f 159/4/66 161/4/66 165/4/66 164/4/66
f 161/4/67 162/4/67 166/4/67 165/4/67
f 162/4/68 160/4/68 163/4/68 166/4/68
f 167/3/11 168/3/11 169/3/11 170/3/11
f 171/3/12 172/3/12 173/3/12 174/3/12
f 167/3/49 170/3/49 172/3/49 171/3/49
f 169/3/50 168/3/50 174/3/50 173/3/50
f 167/4/51 171/4/51 174/4/51 168/4/51
f 170/4/52 169/4/52 173/4/52 172/4/52
f 175/3/11 176/3/11 177/3/11 178/3/11
f 179/3/12 180/3/12 181/3/12 182/3/12
f 175/3/49 178/3/49 180/3/49 179/3/49
f 177/3/50 176/3/50 182/3/50 181/3/50
f 175/4/51 179/4/51 182/4/51 176/4/51
f 178/4/52 177/4/52 181/4/52 180/4/52
f 183/3/11 184/3/11 185/3/11 186/3/11
f 187/3/12 188/3/12 189/3/12 190/3/12
f 183/4/49 186/4/49 188/4/49 187/4/49
f 185/3/50 184/3/50 190/3/50 189/3/50
f 183/3/51 187/3/51 190/3/51 184/3/51
f 186/3/52 185/3/52 189/3/52 188/3/52
f 191/6/11 192/6/11 193/6/11 194/6/11
f 195/6/12 196/6/12 197/6/12 198/6/12
f 191/7/49 194/7/49 196/7/49 195/7/49
f 193/7/50 192/7/50 198/7/50 197/7/50
f 191/7/51 195/7/51 198/7/51 192/7/51
f 194/7/52 193/7/52 197/7/52 196/7/52
f 199/1/11 200/1/11 201/1/11 202/1/11
f 203/1/12 204/1/12 205/1/12 206/1/12
f 199/1/49 202/1/49 204/1/49 203/1/49
f 201/1/50 200/1/50 206/1/50 205/1/50
f 199/1/51 203/1/51 206/1/51 200/1/51
f 202/1/52 201/1/52 205/1/52 204/1/52
f 207/1/11 208/1/11 209/1/11 210/1/11
f 211/1/12 212/1/12 213/1/12 214/1/12
f 207/1/49 210/1/49 212/1/49 211/1/49
f 209/1/50 208/1/50 214/1/50 213/1/50
f 207/1/51 211/1/51 214/1/51 208/1/51
f 210/1/52 209/1/52 213/1/52 212/1/52
f 215/1/11 216/1/11 217/1/11 218/1/11
f 219/1/12 220/1/12 221/1/12 222/1/12
f 215/1/49 218/1/49 220/1/49 219/1/49
f 217/1/50 216/1/50 222/1/50 221/1/50
f 215/1/51 219/1/51 222/1/51 216/1/51
f 218/1/52 217/1/52 221/1/52 220/1/52
f 223/6/11 224/6/11 225/6/11 226/6/11
f 227/6/12 228/6/12 229/6/12 230/6/12
f 223/7/49 226/7/49 228/7/49 227/7/49
f 225/7/50 224/7/50 230/7/50 229/7/50
f 223/7/51 227/7/51 230/7/51 224/7/51
f 226/7/52 225/7/52 229/7/52 228/7/52
f 231/1/11 232/1/11 233/1/11 234/1/11
f 235/1/12 236/1/12 237/1/12 238/1/12
f 231/1/49 234/1/49 236/1/49 235/1/49
f 233/1/50 232/1/50 238/1/50 237/1/50
f 231/1/51 235/1/51 238/1/51 232/1/51
f 234/1/52 233/1/52 237/1/52 236/1/52
f 239/1/11 240/1/11 241/1/11 242/1/11
f 243/1/12 244/1/12 245/1/12 246/1/12
f 239/1/49 242/1/49 244/1/49 243/1/49
f 241/1/50 240/1/50 246/1/50 245/1/50
f 239/1/51 243/1/51 246/1/51 240/1/51
f 242/1/52 241/1/52 245/1/52 244/1/52
f 247/1/11 248/1/11 249/1/11 250/1/11
f 251/1/12 252/1/12 253/1/12 254/1/12
f 247/1/49 250/1/49 252/1/49 251/1/49
f 249/1/50 248/1/50 254/1/50 253/1/50
f 247/1/51 251/1/51 254/1/51 248/1/51
f 250/1/52 249/1/52 253/1/52 252/1/52
f 255/6/11 256/6/11 257/6/11 258/6/11
f 259/6/12 260/6/12 261/6/12 262/6/12
f 255/7/49 258/7/49 260/7/49 259/7/49
f 257/7/50 256/7/50 262/7/50 261/7/50
f 255/7/51 259/7/51 262/7/51 256/7/51
f 258/7/52 257/7/52 261/7/52 260/7/52
f 263/1/11 264/1/11 265/1/11 266/1/11
f 267/1/12 268/1/12 269/1/12 270/1/12
f 263/1/49 266/1/49 268/1/49 267/1/49
f 265/1/50 264/1/50 270/1/50 269/1/50
f 263/1/51 267/1/51 270/1/51 264/1/51
f 266/1/52 265/1/52 269/1/52 268/1/52
f 271/1/11 272/1/11 273/1/11 274/1/11
f 275/1/12 276/1/12 277/1/12 278/1/12
f 271/1/49 274/1/49 276/1/49 275/1/49
f 273/1/50 272/1/50 278/1/50 277/1/50
f 271/1/51 275/1/51 278/1/51 272/1/51
f 274/1/52 273/1/52 277/1/52 276/1/52
f 279/1/11 280/1/11 281/1/11 282/1/11
f 283/1/12 284/1/12 285/1/12 286/1/12
f 279/1/49 282/1/49 284/1/49 283/1/49
f 281/1/50 280/1/50 286/1/50 285/1/50
f 279/1/51 283/1/51 286/1/51 280/1/51
f 282/1/52 281/1/52 285/1/52 284/1/52
f 287/6/11 288/6/11 289/6/11 290/6/11
f 291/6/12 292/6/12 293/6/12 294/6/12
f 287/7/49 290/7/49 292/7/49 291/7/49
f 289/7/50 288/7/50 294/7/50 293/7/50
f 287/7/51 291/7/51 294/7/51 288/7/51
f 290/7/52 289/7/52 293/7/52 292/7/52
f 295/1/11 296/1/11 297/1/11 298/1/11
f 299/1/12 300/1/12 301/1/12 302/1/12
f 295/1/49 298/1/49 300/1/49 299/1/49
f 297/1/50 296/1/50 302/1/50 301/1/50
f 295/1/51 299/1/51 302/1/51 296/1/51
f 298/1/52 297/1/52 301/1/52 300/1/52
f 303/1/11 304/1/11 305/1/11 306/1/11
f 307/1/12 308/1/12 309/1/12 310/1/12
f 303/1/49 306/1/49 308/1/49 307/1/49
f 305/1/50 304/1/50 310/1/50 309/1/50
f 303/1/51 307/1/51 310/1/51 304/1/51
f 306/1/52 305/1/52 309/1/52 308/1/52
f 311/1/11 312/1/11 313/1/11 314/1/11
f 315/1/12 316/1/12 317/1/12 318/1/12
f 311/1/49 314/1/49 316/1/49 315/1/49
f 313/1/50 312/1/50 318/1/50 317/1/50
f 311/1/51 315/1/51 318/1/51 312/1/51
f 314/1/52 313/1/52 317/1/52 316/1/52
