# Blender 5.2.0 LTS
# www.blender.org
mtllib FN_Chair_Folding.mtl
o FN_Chair_Folding
v -0.161012 0.010913 -0.228395
v -0.191010 0.011268 -0.228395
v -0.190988 0.013087 -0.184433
v -0.160990 0.012732 -0.184433
v -0.150990 0.858732 -0.219433
v -0.180988 0.859087 -0.219433
v -0.181010 0.857268 -0.263395
v -0.151012 0.856913 -0.263395
v -0.167500 0.000000 -0.191692
v -0.184500 0.000000 -0.191692
v -0.193000 0.000000 -0.206414
v -0.184500 0.000000 -0.221136
v -0.167500 0.000000 -0.221136
v -0.159000 0.000000 -0.206414
v -0.161720 0.012000 -0.206414
v -0.168860 0.012000 -0.218781
v -0.183140 0.012000 -0.218781
v -0.190280 0.012000 -0.206414
v -0.183140 0.012000 -0.194047
v -0.168860 0.012000 -0.194047
v -0.167500 0.006600 -0.221136
v -0.159000 0.006600 -0.206414
v -0.184500 0.006600 -0.221136
v -0.193000 0.006600 -0.206414
v -0.184500 0.006600 -0.191692
v -0.167500 0.006600 -0.191692
v 0.191010 0.011268 -0.228395
v 0.161012 0.010913 -0.228395
v 0.160990 0.012732 -0.184433
v 0.190988 0.013087 -0.184433
v 0.180988 0.859087 -0.219433
v 0.150990 0.858732 -0.219433
v 0.151012 0.856913 -0.263395
v 0.181010 0.857268 -0.263395
v 0.184500 0.000000 -0.191692
v 0.167500 0.000000 -0.191692
v 0.159000 0.000000 -0.206414
v 0.167500 0.000000 -0.221136
v 0.184500 0.000000 -0.221136
v 0.193000 0.000000 -0.206414
v 0.190280 0.012000 -0.206414
v 0.183140 0.012000 -0.218781
v 0.168860 0.012000 -0.218781
v 0.161720 0.012000 -0.206414
v 0.168860 0.012000 -0.194047
v 0.183140 0.012000 -0.194047
v 0.184500 0.006600 -0.221136
v 0.193000 0.006600 -0.206414
v 0.167500 0.006600 -0.221136
v 0.159000 0.006600 -0.206414
v 0.167500 0.006600 -0.191692
v 0.184500 0.006600 -0.191692
v -0.204000 0.441999 0.202757
v -0.180000 0.441999 0.202757
v -0.180000 0.406001 0.202415
v -0.204000 0.406001 0.202415
v -0.204000 0.410001 -0.219585
v -0.180000 0.410001 -0.219585
v -0.180000 0.445999 -0.219243
v -0.204000 0.445999 -0.219243
v -0.204000 0.426000 -0.237542
v -0.204000 0.435899 -0.233441
v -0.204000 0.440000 -0.223542
v -0.204000 0.435899 -0.213642
v -0.204000 0.426000 -0.209542
v -0.204000 0.416101 -0.213642
v -0.204000 0.412000 -0.223542
v -0.204000 0.416101 -0.233441
v -0.219000 0.416101 -0.233441
v -0.219000 0.412000 -0.223542
v -0.219000 0.416101 -0.213642
v -0.219000 0.426000 -0.209542
v -0.219000 0.435899 -0.213642
v -0.219000 0.440000 -0.223542
v -0.219000 0.435899 -0.233441
v -0.219000 0.426000 -0.237542
v -0.193097 0.008883 0.225777
v -0.219082 0.009749 0.225777
v -0.218903 0.015117 0.263395
v -0.192918 0.014251 0.263395
v -0.178918 0.434251 0.203395
v -0.204903 0.435117 0.203395
v -0.205082 0.429749 0.165777
v -0.179097 0.428883 0.165777
v -0.197500 0.000000 0.259308
v -0.214500 0.000000 0.259308
v -0.223000 0.000000 0.244586
v -0.214500 0.000000 0.229864
v -0.197500 0.000000 0.229864
v -0.189000 0.000000 0.244586
v -0.191720 0.012000 0.244586
v -0.198860 0.012000 0.232219
v -0.213140 0.012000 0.232219
v -0.220280 0.012000 0.244586
v -0.213140 0.012000 0.256953
v -0.198860 0.012000 0.256953
v -0.197500 0.006600 0.229864
v -0.189000 0.006600 0.244586
v -0.214500 0.006600 0.229864
v -0.223000 0.006600 0.244586
v -0.214500 0.006600 0.259308
v -0.197500 0.006600 0.259308
v 0.180000 0.441999 0.202757
v 0.204000 0.441999 0.202757
v 0.204000 0.406001 0.202415
v 0.180000 0.406001 0.202415
v 0.180000 0.410001 -0.219585
v 0.204000 0.410001 -0.219585
v 0.204000 0.445999 -0.219243
v 0.180000 0.445999 -0.219243
v 0.204000 0.416101 -0.233441
v 0.204000 0.412000 -0.223542
v 0.204000 0.416101 -0.213642
v 0.204000 0.426000 -0.209542
v 0.204000 0.435899 -0.213642
v 0.204000 0.440000 -0.223542
v 0.204000 0.435899 -0.233441
v 0.204000 0.426000 -0.237542
v 0.219000 0.426000 -0.237542
v 0.219000 0.435899 -0.233441
v 0.219000 0.440000 -0.223542
v 0.219000 0.435899 -0.213642
v 0.219000 0.426000 -0.209542
v 0.219000 0.416101 -0.213642
v 0.219000 0.412000 -0.223542
v 0.219000 0.416101 -0.233441
v 0.219082 0.009749 0.225777
v 0.193097 0.008883 0.225777
v 0.192918 0.014251 0.263395
v 0.218903 0.015117 0.263395
v 0.204903 0.435117 0.203395
v 0.178918 0.434251 0.203395
v 0.179097 0.428883 0.165777
v 0.205082 0.429749 0.165777
v 0.214500 0.000000 0.259308
v 0.197500 0.000000 0.259308
v 0.189000 0.000000 0.244586
v 0.197500 0.000000 0.229864
v 0.214500 0.000000 0.229864
v 0.223000 0.000000 0.244586
v 0.220280 0.012000 0.244586
v 0.213140 0.012000 0.232219
v 0.198860 0.012000 0.232219
v 0.191720 0.012000 0.244586
v 0.198860 0.012000 0.256953
v 0.213140 0.012000 0.256953
v 0.214500 0.006600 0.229864
v 0.223000 0.006600 0.244586
v 0.197500 0.006600 0.229864
v 0.189000 0.006600 0.244586
v 0.197500 0.006600 0.259308
v 0.214500 0.006600 0.259308
v -0.184045 0.434000 0.111081
v 0.184045 0.434000 0.111081
v 0.184045 0.434000 0.166491
v -0.184045 0.434000 0.166491
v 0.188000 0.438000 0.167086
v -0.188000 0.438000 0.167086
v 0.188000 0.438000 0.110486
v -0.188000 0.438000 0.110486
v 0.188000 0.446000 0.167086
v -0.188000 0.446000 0.167086
v 0.188000 0.446000 0.110486
v -0.188000 0.446000 0.110486
v -0.184045 0.450000 0.166491
v 0.184045 0.450000 0.166491
v 0.184045 0.450000 0.111081
v -0.184045 0.450000 0.111081
v -0.184045 0.434000 0.039481
v 0.184045 0.434000 0.039481
v 0.184045 0.434000 0.094891
v -0.184045 0.434000 0.094891
v 0.188000 0.438000 0.095486
v -0.188000 0.438000 0.095486
v 0.188000 0.438000 0.038886
v -0.188000 0.438000 0.038886
v 0.188000 0.446000 0.095486
v -0.188000 0.446000 0.095486
v 0.188000 0.446000 0.038886
v -0.188000 0.446000 0.038886
v -0.184045 0.450000 0.094891
v 0.184045 0.450000 0.094891
v 0.184045 0.450000 0.039481
v -0.184045 0.450000 0.039481
v -0.184045 0.434000 -0.032119
v 0.184045 0.434000 -0.032119
v 0.184045 0.434000 0.023291
v -0.184045 0.434000 0.023291
v 0.188000 0.438000 0.023886
v -0.188000 0.438000 0.023886
v 0.188000 0.438000 -0.032714
v -0.188000 0.438000 -0.032714
v 0.188000 0.446000 0.023886
v -0.188000 0.446000 0.023886
v 0.188000 0.446000 -0.032714
v -0.188000 0.446000 -0.032714
v -0.184045 0.450000 0.023291
v 0.184045 0.450000 0.023291
v 0.184045 0.450000 -0.032119
v -0.184045 0.450000 -0.032119
v -0.184045 0.434000 -0.103719
v 0.184045 0.434000 -0.103719
v 0.184045 0.434000 -0.048309
v -0.184045 0.434000 -0.048309
v 0.188000 0.438000 -0.047714
v -0.188000 0.438000 -0.047714
v 0.188000 0.438000 -0.104314
v -0.188000 0.438000 -0.104314
v 0.188000 0.446000 -0.047714
v -0.188000 0.446000 -0.047714
v 0.188000 0.446000 -0.104314
v -0.188000 0.446000 -0.104314
v -0.184045 0.450000 -0.048309
v 0.184045 0.450000 -0.048309
v 0.184045 0.450000 -0.103719
v -0.184045 0.450000 -0.103719
v -0.184045 0.434000 -0.175319
v 0.184045 0.434000 -0.175319
v 0.184045 0.434000 -0.119909
v -0.184045 0.434000 -0.119909
v 0.188000 0.438000 -0.119314
v -0.188000 0.438000 -0.119314
v 0.188000 0.438000 -0.175914
v -0.188000 0.438000 -0.175914
v 0.188000 0.446000 -0.119314
v -0.188000 0.446000 -0.119314
v 0.188000 0.446000 -0.175914
v -0.188000 0.446000 -0.175914
v -0.184045 0.450000 -0.119909
v 0.184045 0.450000 -0.119909
v 0.184045 0.450000 -0.175319
v -0.184045 0.450000 -0.175319
v -0.155010 0.622000 -0.235339
v 0.155010 0.622000 -0.235339
v 0.155010 0.622000 -0.215962
v -0.155010 0.622000 -0.215962
v 0.160000 0.627000 -0.215650
v -0.160000 0.627000 -0.215650
v 0.160000 0.627000 -0.235650
v -0.160000 0.627000 -0.235650
v 0.160000 0.669000 -0.215650
v -0.160000 0.669000 -0.215650
v 0.160000 0.669000 -0.235650
v -0.160000 0.669000 -0.235650
v -0.155010 0.674000 -0.215962
v 0.155010 0.674000 -0.215962
v 0.155010 0.674000 -0.235339
v -0.155010 0.674000 -0.235339
v -0.155010 0.712000 -0.239062
v 0.155010 0.712000 -0.239062
v 0.155010 0.712000 -0.219686
v -0.155010 0.712000 -0.219686
v 0.160000 0.717000 -0.219374
v -0.160000 0.717000 -0.219374
v 0.160000 0.717000 -0.239374
v -0.160000 0.717000 -0.239374
v 0.160000 0.759000 -0.219374
v -0.160000 0.759000 -0.219374
v 0.160000 0.759000 -0.239374
v -0.160000 0.759000 -0.239374
v -0.155010 0.764000 -0.219686
v 0.155010 0.764000 -0.219686
v 0.155010 0.764000 -0.239062
v -0.155010 0.764000 -0.239062
v -0.155010 0.802000 -0.242785
v 0.155010 0.802000 -0.242785
v 0.155010 0.802000 -0.223409
v -0.155010 0.802000 -0.223409
v 0.160000 0.807000 -0.223097
v -0.160000 0.807000 -0.223097
v 0.160000 0.807000 -0.243097
v -0.160000 0.807000 -0.243097
v 0.160000 0.849000 -0.223097
v -0.160000 0.849000 -0.223097
v 0.160000 0.849000 -0.243097
v -0.160000 0.849000 -0.243097
v -0.155010 0.854000 -0.223409
v 0.155010 0.854000 -0.223409
v 0.155010 0.854000 -0.242785
v -0.155010 0.854000 -0.242785
v -0.176000 0.161000 -0.223123
v -0.176000 0.161000 -0.201123
v -0.176000 0.139000 -0.201123
v -0.176000 0.139000 -0.223123
v 0.176000 0.139000 -0.223123
v 0.176000 0.139000 -0.201123
v 0.176000 0.161000 -0.201123
v 0.176000 0.161000 -0.223123
v -0.202000 0.159000 0.219586
v -0.202000 0.159000 0.241586
v -0.202000 0.137000 0.241586
v -0.202000 0.137000 0.219586
v 0.202000 0.137000 0.219586
v 0.202000 0.137000 0.241586
v 0.202000 0.159000 0.241586
v 0.202000 0.159000 0.219586
vn 0.0118 0.9991 -0.0413
vn -0.0118 -0.9991 0.0413
vn -0.0005 -0.0413 -0.9991
vn 0.9999 -0.0118 -0.0000
vn 0.0005 0.0413 0.9991
vn -0.9999 0.0118 -0.0000
vn -0.0000 -1.0000 -0.0000
vn -0.0000 1.0000 -0.0000
vn 0.8660 -0.0000 -0.5000
vn -0.0000 -0.0000 -1.0000
vn -0.8660 -0.0000 -0.5000
vn -0.8660 -0.0000 0.5000
vn -0.0000 -0.0000 1.0000
vn 0.8660 -0.0000 0.5000
vn 0.7938 0.3998 -0.4583
vn -0.0000 0.3998 -0.9166
vn -0.7938 0.3998 -0.4583
vn -0.7938 0.3998 0.4583
vn -0.0000 0.3998 0.9166
vn 0.7938 0.3998 0.4583
vn -0.0118 0.9991 -0.0413
vn 0.0118 -0.9991 0.0413
vn 0.0005 -0.0413 -0.9991
vn 0.9999 0.0118 -0.0000
vn -0.0005 0.0413 0.9991
vn -0.9999 -0.0118 -0.0000
vn -0.0000 0.0095 -1.0000
vn -0.0000 -0.0095 1.0000
vn -0.0000 1.0000 0.0095
vn -1.0000 -0.0000 -0.0000
vn -0.0000 -1.0000 -0.0095
vn 1.0000 -0.0000 -0.0000
vn -0.0000 0.3827 -0.9239
vn -0.0000 0.9239 -0.3827
vn -0.0000 0.9239 0.3827
vn -0.0000 0.3827 0.9239
vn -0.0000 -0.3827 0.9239
vn -0.0000 -0.9239 0.3827
vn -0.0000 -0.9239 -0.3827
vn -0.0000 -0.3827 -0.9239
vn 0.0330 0.9894 -0.1413
vn -0.0330 -0.9894 0.1413
vn -0.0047 -0.1413 -0.9900
vn 0.9994 -0.0333 -0.0000
vn 0.0047 0.1413 0.9900
vn -0.9994 0.0333 -0.0000
vn -0.0330 0.9894 -0.1413
vn 0.0330 -0.9894 0.1413
vn 0.0047 -0.1413 -0.9900
vn 0.9994 0.0333 -0.0000
vn -0.0047 0.1413 0.9900
vn -0.9994 -0.0333 -0.0000
vn -0.0000 -0.1472 0.9891
vn 0.7111 -0.7031 -0.0000
vn -0.0000 -0.1472 -0.9891
vn -0.7111 -0.7031 -0.0000
vn -0.0000 0.1472 0.9891
vn 0.7111 0.7031 -0.0000
vn -0.0000 0.1472 -0.9891
vn -0.7111 0.7031 -0.0000
vn -0.0000 -0.0623 0.9981
vn 0.7078 -0.7064 -0.0000
vn -0.0000 -0.0623 -0.9981
vn -0.7078 -0.7064 -0.0000
vn -0.0000 0.0623 0.9981
vn 0.7078 0.7064 -0.0000
vn -0.0000 0.0623 -0.9981
vn -0.7078 0.7064 -0.0000
vt 0.312500 0.937500
vt 0.812500 0.312500
vt 0.437500 0.312500
vt 0.687500 0.937500
s 0
usemtl FN_Atlas
f 1/1/1 2/1/1 3/1/1 4/1/1
f 5/1/2 6/1/2 7/1/2 8/1/2
f 4/1/3 3/1/3 6/1/3 5/1/3
f 3/1/4 2/1/4 7/1/4 6/1/4
f 2/1/5 1/1/5 8/1/5 7/1/5
f 1/1/6 4/1/6 5/1/6 8/1/6
f 9/2/7 10/2/7 11/2/7 12/2/7 13/2/7 14/2/7
f 15/2/8 16/2/8 17/2/8 18/2/8 19/2/8 20/2/8
f 14/2/9 13/2/9 21/2/9 22/2/9
f 13/2/10 12/2/10 23/2/10 21/2/10
f 12/2/11 11/2/11 24/2/11 23/2/11
f 11/2/12 10/2/12 25/2/12 24/2/12
f 10/2/13 9/2/13 26/2/13 25/2/13
f 9/2/14 14/2/14 22/2/14 26/2/14
f 22/2/15 21/2/15 16/2/15 15/2/15
f 21/2/16 23/2/16 17/2/16 16/2/16
f 23/2/17 24/2/17 18/2/17 17/2/17
f 24/2/18 25/2/18 19/2/18 18/2/18
f 25/2/19 26/2/19 20/2/19 19/2/19
f 26/2/20 22/2/20 15/2/20 20/2/20
f 27/1/21 28/1/21 29/1/21 30/1/21
f 31/1/22 32/1/22 33/1/22 34/1/22
f 30/1/23 29/1/23 32/1/23 31/1/23
f 29/1/24 28/1/24 33/1/24 32/1/24
f 28/1/25 27/1/25 34/1/25 33/1/25
f 27/1/26 30/1/26 31/1/26 34/1/26
f 35/2/7 36/2/7 37/2/7 38/2/7 39/2/7 40/2/7
f 41/2/8 42/2/8 43/2/8 44/2/8 45/2/8 46/2/8
f 40/2/9 39/2/9 47/2/9 48/2/9
f 39/2/10 38/2/10 49/2/10 47/2/10
f 38/2/11 37/2/11 50/2/11 49/2/11
f 37/2/12 36/2/12 51/2/12 50/2/12
f 36/2/13 35/2/13 52/2/13 51/2/13
f 35/2/14 40/2/14 48/2/14 52/2/14
f 48/2/15 47/2/15 42/2/15 41/2/15
f 47/2/16 49/2/16 43/2/16 42/2/16
f 49/2/17 50/2/17 44/2/17 43/2/17
f 50/2/18 51/2/18 45/2/18 44/2/18
f 51/2/19 52/2/19 46/2/19 45/2/19
f 52/2/20 48/2/20 41/2/20 46/2/20
f 53/1/27 54/1/27 55/1/27 56/1/27
f 57/1/28 58/1/28 59/1/28 60/1/28
f 56/1/29 55/1/29 58/1/29 57/1/29
f 55/1/30 54/1/30 59/1/30 58/1/30
f 54/1/31 53/1/31 60/1/31 59/1/31
f 53/1/32 56/1/32 57/1/32 60/1/32
f 61/3/32 62/3/32 63/3/32 64/3/32 65/3/32 66/3/32 67/3/32 68/3/32
f 69/3/30 70/3/30 71/3/30 72/3/30 73/3/30 74/3/30 75/3/30 76/3/30
f 76/3/33 75/3/33 62/3/33 61/3/33
f 75/3/34 74/3/34 63/3/34 62/3/34
f 74/3/35 73/3/35 64/3/35 63/3/35
f 73/3/36 72/3/36 65/3/36 64/3/36
f 72/3/37 71/3/37 66/3/37 65/3/37
f 71/3/38 70/3/38 67/3/38 66/3/38
f 70/3/39 69/3/39 68/3/39 67/3/39
f 69/3/40 76/3/40 61/3/40 68/3/40
f 77/1/41 78/1/41 79/1/41 80/1/41
f 81/1/42 82/1/42 83/1/42 84/1/42
f 80/1/43 79/1/43 82/1/43 81/1/43
f 79/1/44 78/1/44 83/1/44 82/1/44
f 78/1/45 77/1/45 84/1/45 83/1/45
f 77/1/46 80/1/46 81/1/46 84/1/46
f 85/2/7 86/2/7 87/2/7 88/2/7 89/2/7 90/2/7
f 91/2/8 92/2/8 93/2/8 94/2/8 95/2/8 96/2/8
f 90/2/9 89/2/9 97/2/9 98/2/9
f 89/2/10 88/2/10 99/2/10 97/2/10
f 88/2/11 87/2/11 100/2/11 99/2/11
f 87/2/12 86/2/12 101/2/12 100/2/12
f 86/2/13 85/2/13 102/2/13 101/2/13
f 85/2/14 90/2/14 98/2/14 102/2/14
f 98/2/15 97/2/15 92/2/15 91/2/15
f 97/2/16 99/2/16 93/2/16 92/2/16
f 99/2/17 100/2/17 94/2/17 93/2/17
f 100/2/18 101/2/18 95/2/18 94/2/18
f 101/2/19 102/2/19 96/2/19 95/2/19
f 102/2/20 98/2/20 91/2/20 96/2/20
f 103/1/27 104/1/27 105/1/27 106/1/27
f 107/1/28 108/1/28 109/1/28 110/1/28
f 106/1/29 105/1/29 108/1/29 107/1/29
f 105/1/30 104/1/30 109/1/30 108/1/30
f 104/1/31 103/1/31 110/1/31 109/1/31
f 103/1/32 106/1/32 107/1/32 110/1/32
f 111/3/30 112/3/30 113/3/30 114/3/30 115/3/30 116/3/30 117/3/30 118/3/30
f 119/3/32 120/3/32 121/3/32 122/3/32 123/3/32 124/3/32 125/3/32 126/3/32
f 118/3/33 117/3/33 120/3/33 119/3/33
f 117/3/34 116/3/34 121/3/34 120/3/34
f 116/3/35 115/3/35 122/3/35 121/3/35
f 115/3/36 114/3/36 123/3/36 122/3/36
f 114/3/37 113/3/37 124/3/37 123/3/37
f 113/3/38 112/3/38 125/3/38 124/3/38
f 112/3/39 111/3/39 126/3/39 125/3/39
f 111/3/40 118/3/40 119/3/40 126/3/40
f 127/1/47 128/1/47 129/1/47 130/1/47
f 131/1/48 132/1/48 133/1/48 134/1/48
f 130/1/49 129/1/49 132/1/49 131/1/49
f 129/1/50 128/1/50 133/1/50 132/1/50
f 128/1/51 127/1/51 134/1/51 133/1/51
f 127/1/52 130/1/52 131/1/52 134/1/52
f 135/2/7 136/2/7 137/2/7 138/2/7 139/2/7 140/2/7
f 141/2/8 142/2/8 143/2/8 144/2/8 145/2/8 146/2/8
f 140/2/9 139/2/9 147/2/9 148/2/9
f 139/2/10 138/2/10 149/2/10 147/2/10
f 138/2/11 137/2/11 150/2/11 149/2/11
f 137/2/12 136/2/12 151/2/12 150/2/12
f 136/2/13 135/2/13 152/2/13 151/2/13
f 135/2/14 140/2/14 148/2/14 152/2/14
f 148/2/15 147/2/15 142/2/15 141/2/15
f 147/2/16 149/2/16 143/2/16 142/2/16
f 149/2/17 150/2/17 144/2/17 143/2/17
f 150/2/18 151/2/18 145/2/18 144/2/18
f 151/2/19 152/2/19 146/2/19 145/2/19
f 152/2/20 148/2/20 141/2/20 146/2/20
f 153/1/7 154/1/7 155/1/7 156/1/7
f 156/1/53 155/1/53 157/1/53 158/1/53
f 155/1/54 154/1/54 159/1/54 157/1/54
f 154/1/55 153/1/55 160/1/55 159/1/55
f 153/1/56 156/1/56 158/1/56 160/1/56
f 158/1/13 157/1/13 161/1/13 162/1/13
f 157/1/32 159/1/32 163/1/32 161/1/32
f 159/1/10 160/1/10 164/1/10 163/1/10
f 160/1/30 158/1/30 162/1/30 164/1/30
f 165/4/8 166/4/8 167/4/8 168/4/8
f 162/1/57 161/1/57 166/1/57 165/1/57
f 161/1/58 163/1/58 167/1/58 166/1/58
f 163/1/59 164/1/59 168/1/59 167/1/59
f 164/1/60 162/1/60 165/1/60 168/1/60
f 169/1/7 170/1/7 171/1/7 172/1/7
f 172/1/53 171/1/53 173/1/53 174/1/53
f 171/1/54 170/1/54 175/1/54 173/1/54
f 170/1/55 169/1/55 176/1/55 175/1/55
f 169/1/56 172/1/56 174/1/56 176/1/56
f 174/1/13 173/1/13 177/1/13 178/1/13
f 173/1/32 175/1/32 179/1/32 177/1/32
f 175/1/10 176/1/10 180/1/10 179/1/10
f 176/1/30 174/1/30 178/1/30 180/1/30
f 181/4/8 182/4/8 183/4/8 184/4/8
f 178/1/57 177/1/57 182/1/57 181/1/57
f 177/1/58 179/1/58 183/1/58 182/1/58
f 179/1/59 180/1/59 184/1/59 183/1/59
f 180/1/60 178/1/60 181/1/60 184/1/60
f 185/1/7 186/1/7 187/1/7 188/1/7
f 188/1/53 187/1/53 189/1/53 190/1/53
f 187/1/54 186/1/54 191/1/54 189/1/54
f 186/1/55 185/1/55 192/1/55 191/1/55
f 185/1/56 188/1/56 190/1/56 192/1/56
f 190/1/13 189/1/13 193/1/13 194/1/13
f 189/1/32 191/1/32 195/1/32 193/1/32
f 191/1/10 192/1/10 196/1/10 195/1/10
f 192/1/30 190/1/30 194/1/30 196/1/30
f 197/4/8 198/4/8 199/4/8 200/4/8
f 194/1/57 193/1/57 198/1/57 197/1/57
f 193/1/58 195/1/58 199/1/58 198/1/58
f 195/1/59 196/1/59 200/1/59 199/1/59
f 196/1/60 194/1/60 197/1/60 200/1/60
f 201/1/7 202/1/7 203/1/7 204/1/7
f 204/1/53 203/1/53 205/1/53 206/1/53
f 203/1/54 202/1/54 207/1/54 205/1/54
f 202/1/55 201/1/55 208/1/55 207/1/55
f 201/1/56 204/1/56 206/1/56 208/1/56
f 206/1/13 205/1/13 209/1/13 210/1/13
f 205/1/32 207/1/32 211/1/32 209/1/32
f 207/1/10 208/1/10 212/1/10 211/1/10
f 208/1/30 206/1/30 210/1/30 212/1/30
f 213/4/8 214/4/8 215/4/8 216/4/8
f 210/1/57 209/1/57 214/1/57 213/1/57
f 209/1/58 211/1/58 215/1/58 214/1/58
f 211/1/59 212/1/59 216/1/59 215/1/59
f 212/1/60 210/1/60 213/1/60 216/1/60
f 217/1/7 218/1/7 219/1/7 220/1/7
f 220/1/53 219/1/53 221/1/53 222/1/53
f 219/1/54 218/1/54 223/1/54 221/1/54
f 218/1/55 217/1/55 224/1/55 223/1/55
f 217/1/56 220/1/56 222/1/56 224/1/56
f 222/1/13 221/1/13 225/1/13 226/1/13
f 221/1/32 223/1/32 227/1/32 225/1/32
f 223/1/10 224/1/10 228/1/10 227/1/10
f 224/1/30 222/1/30 226/1/30 228/1/30
f 229/4/8 230/4/8 231/4/8 232/4/8
f 226/1/57 225/1/57 230/1/57 229/1/57
f 225/1/58 227/1/58 231/1/58 230/1/58
f 227/1/59 228/1/59 232/1/59 231/1/59
f 228/1/60 226/1/60 229/1/60 232/1/60
f 233/1/7 234/1/7 235/1/7 236/1/7
f 236/1/61 235/1/61 237/1/61 238/1/61
f 235/1/62 234/1/62 239/1/62 237/1/62
f 234/1/63 233/1/63 240/1/63 239/1/63
f 233/1/64 236/1/64 238/1/64 240/1/64
f 238/1/13 237/1/13 241/1/13 242/1/13
f 237/1/32 239/1/32 243/1/32 241/1/32
f 239/1/10 240/1/10 244/1/10 243/1/10
f 240/1/30 238/1/30 242/1/30 244/1/30
f 245/4/8 246/4/8 247/4/8 248/4/8
f 242/1/65 241/1/65 246/1/65 245/1/65
f 241/1/66 243/1/66 247/1/66 246/1/66
f 243/1/67 244/1/67 248/1/67 247/1/67
f 244/1/68 242/1/68 245/1/68 248/1/68
f 249/1/7 250/1/7 251/1/7 252/1/7
f 252/1/61 251/1/61 253/1/61 254/1/61
f 251/1/62 250/1/62 255/1/62 253/1/62
f 250/1/63 249/1/63 256/1/63 255/1/63
f 249/1/64 252/1/64 254/1/64 256/1/64
f 254/1/13 253/1/13 257/1/13 258/1/13
f 253/1/32 255/1/32 259/1/32 257/1/32
f 255/1/10 256/1/10 260/1/10 259/1/10
f 256/1/30 254/1/30 258/1/30 260/1/30
f 261/4/8 262/4/8 263/4/8 264/4/8
f 258/1/65 257/1/65 262/1/65 261/1/65
f 257/1/66 259/1/66 263/1/66 262/1/66
f 259/1/67 260/1/67 264/1/67 263/1/67
f 260/1/68 258/1/68 261/1/68 264/1/68
f 265/1/7 266/1/7 267/1/7 268/1/7
f 268/1/61 267/1/61 269/1/61 270/1/61
f 267/1/62 266/1/62 271/1/62 269/1/62
f 266/1/63 265/1/63 272/1/63 271/1/63
f 265/1/64 268/1/64 270/1/64 272/1/64
f 270/1/13 269/1/13 273/1/13 274/1/13
f 269/1/32 271/1/32 275/1/32 273/1/32
f 271/1/10 272/1/10 276/1/10 275/1/10
f 272/1/30 270/1/30 274/1/30 276/1/30
f 277/4/8 278/4/8 279/4/8 280/4/8
f 274/1/65 273/1/65 278/1/65 277/1/65
f 273/1/66 275/1/66 279/1/66 278/1/66
f 275/1/67 276/1/67 280/1/67 279/1/67
f 276/1/68 274/1/68 277/1/68 280/1/68
f 281/1/32 282/1/32 283/1/32 284/1/32
f 285/1/30 286/1/30 287/1/30 288/1/30
f 284/1/8 283/1/8 286/1/8 285/1/8
f 283/1/10 282/1/10 287/1/10 286/1/10
f 282/1/7 281/1/7 288/1/7 287/1/7
f 281/1/13 284/1/13 285/1/13 288/1/13
f 289/1/32 290/1/32 291/1/32 292/1/32
f 293/1/30 294/1/30 295/1/30 296/1/30
f 292/1/8 291/1/8 294/1/8 293/1/8
f 291/1/10 290/1/10 295/1/10 294/1/10
f 290/1/7 289/1/7 296/1/7 295/1/7
f 289/1/13 292/1/13 293/1/13 296/1/13
