# Blender 5.2.0 LTS
# www.blender.org
mtllib FN_Chair_Papasan.mtl
o FN_Chair_Papasan
v 0.294449 0.000000 0.170000
v 0.170000 0.000000 0.294449
v -0.000000 0.000000 0.340000
v -0.170000 0.000000 0.294449
v -0.294449 0.000000 0.170000
v -0.340000 0.000000 -0.000000
v -0.294449 0.000000 -0.170000
v -0.170000 0.000000 -0.294449
v 0.000000 0.000000 -0.340000
v 0.170000 0.000000 -0.294449
v 0.294449 0.000000 -0.170000
v 0.340000 0.000000 0.000000
v 0.290000 0.300000 0.000000
v 0.251147 0.300000 -0.145000
v 0.145000 0.300000 -0.251147
v 0.000000 0.300000 -0.290000
v -0.145000 0.300000 -0.251147
v -0.251147 0.300000 -0.145000
v -0.290000 0.300000 -0.000000
v -0.251147 0.300000 0.145000
v -0.145000 0.300000 0.251147
v -0.000000 0.300000 0.290000
v 0.145000 0.300000 0.251147
v 0.251147 0.300000 0.145000
v 0.100000 0.278000 0.000000
v 0.086603 0.278000 -0.050000
v 0.251147 0.315000 -0.145000
v 0.290000 0.315000 0.000000
v 0.050000 0.278000 -0.086603
v 0.145000 0.315000 -0.251147
v 0.000000 0.278000 -0.100000
v 0.000000 0.315000 -0.290000
v -0.050000 0.278000 -0.086603
v -0.145000 0.315000 -0.251147
v -0.086603 0.278000 -0.050000
v -0.251147 0.315000 -0.145000
v -0.100000 0.278000 -0.000000
v -0.290000 0.315000 -0.000000
v -0.086603 0.278000 0.050000
v -0.251147 0.315000 0.145000
v -0.050000 0.278000 0.086603
v -0.145000 0.315000 0.251147
v -0.000000 0.278000 0.100000
v -0.000000 0.315000 0.290000
v 0.050000 0.278000 0.086603
v 0.145000 0.315000 0.251147
v 0.086603 0.278000 0.050000
v 0.251147 0.315000 0.145000
v 0.381051 0.390000 -0.220000
v 0.440000 0.390000 0.000000
v 0.220000 0.390000 -0.381051
v 0.000000 0.390000 -0.440000
v -0.220000 0.390000 -0.381051
v -0.381051 0.390000 -0.220000
v -0.440000 0.390000 -0.000000
v -0.381051 0.390000 0.220000
v -0.220000 0.390000 0.381051
v -0.000000 0.390000 0.440000
v 0.220000 0.390000 0.381051
v 0.381051 0.390000 0.220000
v 0.458993 0.490000 -0.265000
v 0.530000 0.490000 0.000000
v 0.265000 0.490000 -0.458993
v 0.000000 0.490000 -0.530000
v -0.265000 0.490000 -0.458993
v -0.458993 0.490000 -0.265000
v -0.530000 0.490000 -0.000000
v -0.458993 0.490000 0.265000
v -0.265000 0.490000 0.458993
v -0.000000 0.490000 0.530000
v 0.265000 0.490000 0.458993
v 0.458993 0.490000 0.265000
v 0.484974 0.600000 -0.280000
v 0.560000 0.600000 0.000000
v 0.280000 0.600000 -0.484974
v 0.000000 0.600000 -0.560000
v -0.280000 0.600000 -0.484974
v -0.484974 0.600000 -0.280000
v -0.560000 0.600000 -0.000000
v -0.484974 0.600000 0.280000
v -0.280000 0.600000 0.484974
v -0.000000 0.600000 0.560000
v 0.280000 0.600000 0.484974
v 0.484974 0.600000 0.280000
v 0.262000 0.322000 0.000000
v 0.226899 0.322000 -0.131000
v 0.069282 0.291000 -0.040000
v 0.080000 0.291000 0.000000
v 0.131000 0.322000 -0.226899
v 0.040000 0.291000 -0.069282
v 0.000000 0.322000 -0.262000
v 0.000000 0.291000 -0.080000
v -0.131000 0.322000 -0.226899
v -0.040000 0.291000 -0.069282
v -0.226899 0.322000 -0.131000
v -0.069282 0.291000 -0.040000
v -0.262000 0.322000 -0.000000
v -0.080000 0.291000 -0.000000
v -0.226899 0.322000 0.131000
v -0.069282 0.291000 0.040000
v -0.131000 0.322000 0.226899
v -0.040000 0.291000 0.069282
v -0.000000 0.322000 0.262000
v -0.000000 0.291000 0.080000
v 0.131000 0.322000 0.226899
v 0.040000 0.291000 0.069282
v 0.226899 0.322000 0.131000
v 0.069282 0.291000 0.040000
v 0.410000 0.392000 0.000000
v 0.355070 0.392000 -0.205000
v 0.205000 0.392000 -0.355070
v 0.000000 0.392000 -0.410000
v -0.205000 0.392000 -0.355070
v -0.355070 0.392000 -0.205000
v -0.410000 0.392000 -0.000000
v -0.355070 0.392000 0.205000
v -0.205000 0.392000 0.355070
v -0.000000 0.392000 0.410000
v 0.205000 0.392000 0.355070
v 0.355070 0.392000 0.205000
v 0.500000 0.490000 0.000000
v 0.433013 0.490000 -0.250000
v 0.250000 0.490000 -0.433013
v 0.000000 0.490000 -0.500000
v -0.250000 0.490000 -0.433013
v -0.433013 0.490000 -0.250000
v -0.500000 0.490000 -0.000000
v -0.433013 0.490000 0.250000
v -0.250000 0.490000 0.433013
v -0.000000 0.490000 0.500000
v 0.250000 0.490000 0.433013
v 0.433013 0.490000 0.250000
v 0.530000 0.600000 0.000000
v 0.458993 0.600000 -0.265000
v 0.265000 0.600000 -0.458993
v 0.000000 0.600000 -0.530000
v -0.265000 0.600000 -0.458993
v -0.458993 0.600000 -0.265000
v -0.530000 0.600000 -0.000000
v -0.458993 0.600000 0.265000
v -0.265000 0.600000 0.458993
v -0.000000 0.600000 0.530000
v 0.265000 0.600000 0.458993
v 0.458993 0.600000 0.265000
v 0.251147 0.330000 0.145000
v 0.145000 0.330000 0.251147
v -0.000000 0.330000 0.290000
v -0.145000 0.330000 0.251147
v -0.251147 0.330000 0.145000
v -0.290000 0.330000 -0.000000
v -0.251147 0.330000 -0.145000
v -0.145000 0.330000 -0.251147
v 0.000000 0.330000 -0.290000
v 0.145000 0.330000 -0.251147
v 0.251147 0.330000 -0.145000
v 0.290000 0.330000 0.000000
v 0.372391 0.450000 -0.215000
v 0.430000 0.450000 0.000000
v 0.215000 0.450000 -0.372391
v 0.000000 0.450000 -0.430000
v -0.215000 0.450000 -0.372391
v -0.372391 0.450000 -0.215000
v -0.430000 0.450000 -0.000000
v -0.372391 0.450000 0.215000
v -0.215000 0.450000 0.372391
v -0.000000 0.450000 0.430000
v 0.215000 0.450000 0.372391
v 0.372391 0.450000 0.215000
v 0.415692 0.545000 -0.240000
v 0.480000 0.545000 0.000000
v 0.240000 0.545000 -0.415692
v 0.000000 0.545000 -0.480000
v -0.240000 0.545000 -0.415692
v -0.415692 0.545000 -0.240000
v -0.480000 0.545000 -0.000000
v -0.415692 0.545000 0.240000
v -0.240000 0.545000 0.415692
v -0.000000 0.545000 0.480000
v 0.240000 0.545000 0.415692
v 0.415692 0.545000 0.240000
v 0.363731 0.640000 -0.210000
v 0.420000 0.640000 0.000000
v 0.210000 0.640000 -0.363731
v 0.000000 0.640000 -0.420000
v -0.210000 0.640000 -0.363731
v -0.363731 0.640000 -0.210000
v -0.420000 0.640000 -0.000000
v -0.363731 0.640000 0.210000
v -0.210000 0.640000 0.363731
v -0.000000 0.640000 0.420000
v 0.210000 0.640000 0.363731
v 0.363731 0.640000 0.210000
vn -0.0000 -1.0000 -0.0000
vn -0.0000 1.0000 -0.0000
vn 0.9536 0.1589 -0.2555
vn 0.6981 0.1589 -0.6981
vn 0.2555 0.1589 -0.9536
vn -0.2555 0.1589 -0.9536
vn -0.6981 0.1589 -0.6981
vn -0.9536 0.1589 -0.2555
vn -0.9536 0.1589 0.2555
vn -0.6981 0.1589 0.6981
vn -0.2555 0.1589 0.9536
vn 0.2555 0.1589 0.9536
vn 0.6981 0.1589 0.6981
vn 0.9536 0.1589 0.2555
vn 0.1909 -0.9803 -0.0512
vn 0.1397 -0.9803 -0.1397
vn 0.0512 -0.9803 -0.1909
vn -0.0512 -0.9803 -0.1909
vn -0.1397 -0.9803 -0.1397
vn -0.1909 -0.9803 -0.0512
vn -0.1909 -0.9803 0.0512
vn -0.1397 -0.9803 0.1397
vn -0.0512 -0.9803 0.1909
vn 0.0512 -0.9803 0.1909
vn 0.1397 -0.9803 0.1397
vn 0.1909 -0.9803 0.0512
vn 0.4440 -0.8881 -0.1190
vn 0.3251 -0.8881 -0.3251
vn 0.1190 -0.8881 -0.4440
vn -0.1190 -0.8881 -0.4440
vn -0.3251 -0.8881 -0.3251
vn -0.4440 -0.8881 -0.1190
vn -0.4440 -0.8881 0.1190
vn -0.3251 -0.8881 0.3251
vn -0.1190 -0.8881 0.4440
vn 0.1190 -0.8881 0.4440
vn 0.3251 -0.8881 0.3251
vn 0.4440 -0.8881 0.1190
vn 0.7290 -0.6561 -0.1953
vn 0.5336 -0.6561 -0.5336
vn 0.1953 -0.6561 -0.7290
vn -0.1953 -0.6561 -0.7290
vn -0.5336 -0.6561 -0.5336
vn -0.7290 -0.6561 -0.1953
vn -0.7290 -0.6561 0.1953
vn -0.5336 -0.6561 0.5336
vn -0.1953 -0.6561 0.7290
vn 0.1953 -0.6561 0.7290
vn 0.5336 -0.6561 0.5336
vn 0.7290 -0.6561 0.1953
vn 0.9341 -0.2547 -0.2503
vn 0.6838 -0.2547 -0.6838
vn 0.2503 -0.2547 -0.9341
vn -0.2503 -0.2547 -0.9341
vn -0.6838 -0.2547 -0.6838
vn -0.9341 -0.2547 -0.2503
vn -0.9341 -0.2547 0.2503
vn -0.6838 -0.2547 0.6838
vn -0.2503 -0.2547 0.9341
vn 0.2503 -0.2547 0.9341
vn 0.6838 -0.2547 0.6838
vn 0.9341 -0.2547 0.2503
vn -0.1677 0.9848 0.0449
vn -0.1228 0.9848 0.1228
vn -0.0449 0.9848 0.1677
vn 0.0449 0.9848 0.1677
vn 0.1228 0.9848 0.1228
vn 0.1677 0.9848 0.0449
vn 0.1677 0.9848 -0.0449
vn 0.1228 0.9848 -0.1228
vn 0.0449 0.9848 -0.1677
vn -0.0449 0.9848 -0.1677
vn -0.1228 0.9848 -0.1228
vn -0.1677 0.9848 -0.0449
vn -0.4248 0.8981 0.1138
vn -0.3110 0.8981 0.3110
vn -0.1138 0.8981 0.4248
vn 0.1138 0.8981 0.4248
vn 0.3110 0.8981 0.3110
vn 0.4248 0.8981 0.1138
vn 0.4248 0.8981 -0.1138
vn 0.3110 0.8981 -0.3110
vn 0.1138 0.8981 -0.4248
vn -0.1138 0.8981 -0.4248
vn -0.3110 0.8981 -0.3110
vn -0.4248 0.8981 -0.1138
vn -0.7226 0.6636 0.1936
vn -0.5290 0.6636 0.5290
vn -0.1936 0.6636 0.7226
vn 0.1936 0.6636 0.7226
vn 0.5290 0.6636 0.5290
vn 0.7226 0.6636 0.1936
vn 0.7226 0.6636 -0.1936
vn 0.5290 0.6636 -0.5290
vn 0.1936 0.6636 -0.7226
vn -0.1936 0.6636 -0.7226
vn -0.5290 0.6636 -0.5290
vn -0.7226 0.6636 -0.1936
vn -0.9341 0.2547 0.2503
vn -0.6838 0.2547 0.6838
vn -0.2503 0.2547 0.9341
vn 0.2503 0.2547 0.9341
vn 0.6838 0.2547 0.6838
vn 0.9341 0.2547 0.2503
vn 0.9341 0.2547 -0.2503
vn 0.6838 0.2547 -0.6838
vn 0.2503 0.2547 -0.9341
vn -0.2503 0.2547 -0.9341
vn -0.6838 0.2547 -0.6838
vn -0.9341 0.2547 -0.2503
vn 0.6411 -0.7480 -0.1718
vn 0.4693 -0.7480 -0.4693
vn 0.1718 -0.7480 -0.6411
vn -0.1718 -0.7480 -0.6411
vn -0.4693 -0.7480 -0.4693
vn -0.6411 -0.7480 -0.1718
vn -0.6411 -0.7480 0.1718
vn -0.4693 -0.7480 0.4693
vn -0.1718 -0.7480 0.6411
vn 0.1718 -0.7480 0.6411
vn 0.4693 -0.7480 0.4693
vn 0.6411 -0.7480 0.1718
vn 0.8610 -0.4532 -0.2307
vn 0.6303 -0.4532 -0.6303
vn 0.2307 -0.4532 -0.8610
vn -0.2307 -0.4532 -0.8610
vn -0.6303 -0.4532 -0.6303
vn -0.8610 -0.4532 -0.2307
vn -0.8610 -0.4532 0.2307
vn -0.6303 -0.4532 0.6303
vn -0.2307 -0.4532 0.8610
vn 0.2307 -0.4532 0.8610
vn 0.6303 -0.4532 0.6303
vn 0.8610 -0.4532 0.2307
vn 0.8246 0.5208 -0.2209
vn 0.6036 0.5208 -0.6036
vn 0.2209 0.5208 -0.8246
vn -0.2209 0.5208 -0.8246
vn -0.6036 0.5208 -0.6036
vn -0.8246 0.5208 -0.2209
vn -0.8246 0.5208 0.2209
vn -0.6036 0.5208 0.6036
vn -0.2209 0.5208 0.8246
vn 0.2209 0.5208 0.8246
vn 0.6036 0.5208 0.6036
vn 0.8246 0.5208 0.2209
vt 0.812500 0.937500
vt 0.562500 0.687500
s 0
usemtl FN_Atlas
f 1/1/1 2/1/1 3/1/1 4/1/1 5/1/1 6/1/1 7/1/1 8/1/1 9/1/1 10/1/1 11/1/1 12/1/1
f 13/1/2 14/1/2 15/1/2 16/1/2 17/1/2 18/1/2 19/1/2 20/1/2 21/1/2 22/1/2 23/1/2 24/1/2
f 12/1/3 11/1/3 14/1/3 13/1/3
f 11/1/4 10/1/4 15/1/4 14/1/4
f 10/1/5 9/1/5 16/1/5 15/1/5
f 9/1/6 8/1/6 17/1/6 16/1/6
f 8/1/7 7/1/7 18/1/7 17/1/7
f 7/1/8 6/1/8 19/1/8 18/1/8
f 6/1/9 5/1/9 20/1/9 19/1/9
f 5/1/10 4/1/10 21/1/10 20/1/10
f 4/1/11 3/1/11 22/1/11 21/1/11
f 3/1/12 2/1/12 23/1/12 22/1/12
f 2/1/13 1/1/13 24/1/13 23/1/13
f 1/1/14 12/1/14 13/1/14 24/1/14
f 25/1/15 26/1/15 27/1/15 28/1/15
f 26/1/16 29/1/16 30/1/16 27/1/16
f 29/1/17 31/1/17 32/1/17 30/1/17
f 31/1/18 33/1/18 34/1/18 32/1/18
f 33/1/19 35/1/19 36/1/19 34/1/19
f 35/1/20 37/1/20 38/1/20 36/1/20
f 37/1/21 39/1/21 40/1/21 38/1/21
f 39/1/22 41/1/22 42/1/22 40/1/22
f 41/1/23 43/1/23 44/1/23 42/1/23
f 43/1/24 45/1/24 46/1/24 44/1/24
f 45/1/25 47/1/25 48/1/25 46/1/25
f 47/1/26 25/1/26 28/1/26 48/1/26
f 28/1/27 27/1/27 49/1/27 50/1/27
f 27/1/28 30/1/28 51/1/28 49/1/28
f 30/1/29 32/1/29 52/1/29 51/1/29
f 32/1/30 34/1/30 53/1/30 52/1/30
f 34/1/31 36/1/31 54/1/31 53/1/31
f 36/1/32 38/1/32 55/1/32 54/1/32
f 38/1/33 40/1/33 56/1/33 55/1/33
f 40/1/34 42/1/34 57/1/34 56/1/34
f 42/1/35 44/1/35 58/1/35 57/1/35
f 44/1/36 46/1/36 59/1/36 58/1/36
f 46/1/37 48/1/37 60/1/37 59/1/37
f 48/1/38 28/1/38 50/1/38 60/1/38
f 50/1/39 49/1/39 61/1/39 62/1/39
f 49/1/40 51/1/40 63/1/40 61/1/40
f 51/1/41 52/1/41 64/1/41 63/1/41
f 52/1/42 53/1/42 65/1/42 64/1/42
f 53/1/43 54/1/43 66/1/43 65/1/43
f 54/1/44 55/1/44 67/1/44 66/1/44
f 55/1/45 56/1/45 68/1/45 67/1/45
f 56/1/46 57/1/46 69/1/46 68/1/46
f 57/1/47 58/1/47 70/1/47 69/1/47
f 58/1/48 59/1/48 71/1/48 70/1/48
f 59/1/49 60/1/49 72/1/49 71/1/49
f 60/1/50 50/1/50 62/1/50 72/1/50
f 62/1/51 61/1/51 73/1/51 74/1/51
f 61/1/52 63/1/52 75/1/52 73/1/52
f 63/1/53 64/1/53 76/1/53 75/1/53
f 64/1/54 65/1/54 77/1/54 76/1/54
f 65/1/55 66/1/55 78/1/55 77/1/55
f 66/1/56 67/1/56 79/1/56 78/1/56
f 67/1/57 68/1/57 80/1/57 79/1/57
f 68/1/58 69/1/58 81/1/58 80/1/58
f 69/1/59 70/1/59 82/1/59 81/1/59
f 70/1/60 71/1/60 83/1/60 82/1/60
f 71/1/61 72/1/61 84/1/61 83/1/61
f 72/1/62 62/1/62 74/1/62 84/1/62
f 85/1/63 86/1/63 87/1/63 88/1/63
f 86/1/64 89/1/64 90/1/64 87/1/64
f 89/1/65 91/1/65 92/1/65 90/1/65
f 91/1/66 93/1/66 94/1/66 92/1/66
f 93/1/67 95/1/67 96/1/67 94/1/67
f 95/1/68 97/1/68 98/1/68 96/1/68
f 97/1/69 99/1/69 100/1/69 98/1/69
f 99/1/70 101/1/70 102/1/70 100/1/70
f 101/1/71 103/1/71 104/1/71 102/1/71
f 103/1/72 105/1/72 106/1/72 104/1/72
f 105/1/73 107/1/73 108/1/73 106/1/73
f 107/1/74 85/1/74 88/1/74 108/1/74
f 109/1/75 110/1/75 86/1/75 85/1/75
f 110/1/76 111/1/76 89/1/76 86/1/76
f 111/1/77 112/1/77 91/1/77 89/1/77
f 112/1/78 113/1/78 93/1/78 91/1/78
f 113/1/79 114/1/79 95/1/79 93/1/79
f 114/1/80 115/1/80 97/1/80 95/1/80
f 115/1/81 116/1/81 99/1/81 97/1/81
f 116/1/82 117/1/82 101/1/82 99/1/82
f 117/1/83 118/1/83 103/1/83 101/1/83
f 118/1/84 119/1/84 105/1/84 103/1/84
f 119/1/85 120/1/85 107/1/85 105/1/85
f 120/1/86 109/1/86 85/1/86 107/1/86
f 121/1/87 122/1/87 110/1/87 109/1/87
f 122/1/88 123/1/88 111/1/88 110/1/88
f 123/1/89 124/1/89 112/1/89 111/1/89
f 124/1/90 125/1/90 113/1/90 112/1/90
f 125/1/91 126/1/91 114/1/91 113/1/91
f 126/1/92 127/1/92 115/1/92 114/1/92
f 127/1/93 128/1/93 116/1/93 115/1/93
f 128/1/94 129/1/94 117/1/94 116/1/94
f 129/1/95 130/1/95 118/1/95 117/1/95
f 130/1/96 131/1/96 119/1/96 118/1/96
f 131/1/97 132/1/97 120/1/97 119/1/97
f 132/1/98 121/1/98 109/1/98 120/1/98
f 133/1/99 134/1/99 122/1/99 121/1/99
f 134/1/100 135/1/100 123/1/100 122/1/100
f 135/1/101 136/1/101 124/1/101 123/1/101
f 136/1/102 137/1/102 125/1/102 124/1/102
f 137/1/103 138/1/103 126/1/103 125/1/103
f 138/1/104 139/1/104 127/1/104 126/1/104
f 139/1/105 140/1/105 128/1/105 127/1/105
f 140/1/106 141/1/106 129/1/106 128/1/106
f 141/1/107 142/1/107 130/1/107 129/1/107
f 142/1/108 143/1/108 131/1/108 130/1/108
f 143/1/109 144/1/109 132/1/109 131/1/109
f 144/1/110 133/1/110 121/1/110 132/1/110
f 47/1/1 45/1/1 43/1/1 41/1/1 39/1/1 37/1/1 35/1/1 33/1/1 31/1/1 29/1/1 26/1/1 25/1/1
f 88/1/2 87/1/2 90/1/2 92/1/2 94/1/2 96/1/2 98/1/2 100/1/2 102/1/2 104/1/2 106/1/2 108/1/2
f 74/1/2 73/1/2 134/1/2 133/1/2
f 73/1/2 75/1/2 135/1/2 134/1/2
f 75/1/2 76/1/2 136/1/2 135/1/2
f 76/1/2 77/1/2 137/1/2 136/1/2
f 77/1/2 78/1/2 138/1/2 137/1/2
f 78/1/2 79/1/2 139/1/2 138/1/2
f 79/1/2 80/1/2 140/1/2 139/1/2
f 80/1/2 81/1/2 141/1/2 140/1/2
f 81/1/2 82/1/2 142/1/2 141/1/2
f 82/1/2 83/1/2 143/1/2 142/1/2
f 83/1/2 84/1/2 144/1/2 143/1/2
f 84/1/2 74/1/2 133/1/2 144/1/2
f 145/2/1 146/2/1 147/2/1 148/2/1 149/2/1 150/2/1 151/2/1 152/2/1 153/2/1 154/2/1 155/2/1 156/2/1
f 156/2/111 155/2/111 157/2/111 158/2/111
f 155/2/112 154/2/112 159/2/112 157/2/112
f 154/2/113 153/2/113 160/2/113 159/2/113
f 153/2/114 152/2/114 161/2/114 160/2/114
f 152/2/115 151/2/115 162/2/115 161/2/115
f 151/2/116 150/2/116 163/2/116 162/2/116
f 150/2/117 149/2/117 164/2/117 163/2/117
f 149/2/118 148/2/118 165/2/118 164/2/118
f 148/2/119 147/2/119 166/2/119 165/2/119
f 147/2/120 146/2/120 167/2/120 166/2/120
f 146/2/121 145/2/121 168/2/121 167/2/121
f 145/2/122 156/2/122 158/2/122 168/2/122
f 158/2/123 157/2/123 169/2/123 170/2/123
f 157/2/124 159/2/124 171/2/124 169/2/124
f 159/2/125 160/2/125 172/2/125 171/2/125
f 160/2/126 161/2/126 173/2/126 172/2/126
f 161/2/127 162/2/127 174/2/127 173/2/127
f 162/2/128 163/2/128 175/2/128 174/2/128
f 163/2/129 164/2/129 176/2/129 175/2/129
f 164/2/130 165/2/130 177/2/130 176/2/130
f 165/2/131 166/2/131 178/2/131 177/2/131
f 166/2/132 167/2/132 179/2/132 178/2/132
f 167/2/133 168/2/133 180/2/133 179/2/133
f 168/2/134 158/2/134 170/2/134 180/2/134
f 170/2/135 169/2/135 181/2/135 182/2/135
f 169/2/136 171/2/136 183/2/136 181/2/136
f 171/2/137 172/2/137 184/2/137 183/2/137
f 172/2/138 173/2/138 185/2/138 184/2/138
f 173/2/139 174/2/139 186/2/139 185/2/139
f 174/2/140 175/2/140 187/2/140 186/2/140
f 175/2/141 176/2/141 188/2/141 187/2/141
f 176/2/142 177/2/142 189/2/142 188/2/142
f 177/2/143 178/2/143 190/2/143 189/2/143
f 178/2/144 179/2/144 191/2/144 190/2/144
f 179/2/145 180/2/145 192/2/145 191/2/145
f 180/2/146 170/2/146 182/2/146 192/2/146
f 182/2/2 181/2/2 183/2/2 184/2/2 185/2/2 186/2/2 187/2/2 188/2/2 189/2/2 190/2/2 191/2/2 192/2/2
