# Blender 5.2.0 LTS
# www.blender.org
mtllib FN_Cabinet_Lateral.mtl
o FN_Cabinet_Lateral
v -0.450000 0.000000 0.052000
v -0.450000 0.000000 -0.418000
v -0.420000 0.000000 -0.418000
v -0.420000 0.000000 0.052000
v -0.450000 0.720000 0.052000
v -0.420000 0.720000 0.052000
v -0.420000 0.720000 -0.418000
v -0.450000 0.720000 -0.418000
v 0.420000 0.000000 0.052000
v 0.420000 0.000000 -0.418000
v 0.450000 0.000000 -0.418000
v 0.450000 0.000000 0.052000
v 0.420000 0.720000 0.052000
v 0.450000 0.720000 0.052000
v 0.450000 0.720000 -0.418000
v 0.420000 0.720000 -0.418000
v -0.450000 0.000000 -0.388000
v 0.450000 0.000000 -0.388000
v -0.450000 0.720000 -0.388000
v 0.450000 0.720000 -0.388000
v -0.450000 0.700000 0.052000
v -0.450000 0.700000 -0.418000
v 0.450000 0.700000 -0.418000
v 0.450000 0.700000 0.052000
v -0.430000 0.000000 0.042000
v -0.430000 0.000000 -0.408000
v 0.430000 0.000000 -0.408000
v 0.430000 0.000000 0.042000
v -0.430000 0.060000 0.042000
v 0.430000 0.060000 0.042000
v 0.430000 0.060000 -0.408000
v -0.430000 0.060000 -0.408000
v -0.450000 0.060000 0.052000
v -0.450000 0.060000 0.022000
v 0.450000 0.060000 0.022000
v 0.450000 0.060000 0.052000
v -0.450000 0.078000 0.052000
v 0.450000 0.078000 0.052000
v 0.450000 0.078000 0.022000
v -0.450000 0.078000 0.022000
v -0.450000 0.380000 0.052000
v -0.450000 0.380000 0.022000
v 0.450000 0.380000 0.022000
v 0.450000 0.380000 0.052000
v -0.450000 0.400000 0.052000
v 0.450000 0.400000 0.052000
v 0.450000 0.400000 0.022000
v -0.450000 0.400000 0.022000
v -0.414000 0.082000 0.070000
v -0.414000 0.082000 0.052000
v 0.414000 0.082000 0.052000
v 0.414000 0.082000 0.070000
v -0.414000 0.376000 0.070000
v 0.414000 0.376000 0.070000
v 0.414000 0.376000 0.052000
v -0.414000 0.376000 0.052000
v -0.404000 0.086000 0.057000
v -0.404000 0.086000 -0.353000
v -0.390000 0.086000 -0.353000
v -0.390000 0.086000 0.057000
v -0.404000 0.348000 0.057000
v -0.390000 0.348000 0.057000
v -0.390000 0.348000 -0.353000
v -0.404000 0.348000 -0.353000
v -0.428000 0.230000 0.047000
v -0.428000 0.230000 -0.353000
v -0.396000 0.230000 -0.353000
v -0.396000 0.230000 0.047000
v -0.428000 0.256000 0.047000
v -0.396000 0.256000 0.047000
v -0.396000 0.256000 -0.353000
v -0.428000 0.256000 -0.353000
v 0.390000 0.086000 0.057000
v 0.390000 0.086000 -0.353000
v 0.404000 0.086000 -0.353000
v 0.404000 0.086000 0.057000
v 0.390000 0.348000 0.057000
v 0.404000 0.348000 0.057000
v 0.404000 0.348000 -0.353000
v 0.390000 0.348000 -0.353000
v 0.396000 0.230000 0.047000
v 0.396000 0.230000 -0.353000
v 0.428000 0.230000 -0.353000
v 0.428000 0.230000 0.047000
v 0.396000 0.256000 0.047000
v 0.428000 0.256000 0.047000
v 0.428000 0.256000 -0.353000
v 0.396000 0.256000 -0.353000
v -0.404000 0.086000 -0.339000
v 0.404000 0.086000 -0.339000
v -0.404000 0.348000 -0.339000
v 0.404000 0.348000 -0.339000
v -0.404000 0.100000 0.057000
v 0.404000 0.100000 0.057000
v 0.404000 0.100000 -0.353000
v -0.404000 0.100000 -0.353000
v -0.120000 0.210000 0.098000
v -0.120000 0.210000 0.070000
v 0.120000 0.210000 0.070000
v 0.120000 0.210000 0.098000
v -0.120000 0.246000 0.098000
v 0.120000 0.246000 0.098000
v 0.120000 0.246000 0.070000
v -0.120000 0.246000 0.070000
v -0.414000 0.402000 0.390000
v -0.414000 0.402000 0.372000
v 0.414000 0.402000 0.372000
v 0.414000 0.402000 0.390000
v -0.414000 0.698000 0.390000
v 0.414000 0.698000 0.390000
v 0.414000 0.698000 0.372000
v -0.414000 0.698000 0.372000
v -0.120000 0.530000 0.418000
v -0.120000 0.530000 0.390000
v 0.120000 0.530000 0.390000
v 0.120000 0.530000 0.418000
v -0.120000 0.566000 0.418000
v 0.120000 0.566000 0.418000
v 0.120000 0.566000 0.390000
v -0.120000 0.566000 0.390000
v -0.404000 0.402000 0.372000
v -0.404000 0.402000 -0.038000
v -0.390000 0.402000 -0.038000
v -0.390000 0.402000 0.372000
v -0.404000 0.668000 0.372000
v -0.390000 0.668000 0.372000
v -0.390000 0.668000 -0.038000
v -0.404000 0.668000 -0.038000
v -0.428000 0.560000 0.357000
v -0.428000 0.560000 -0.373000
v -0.396000 0.560000 -0.373000
v -0.396000 0.560000 0.357000
v -0.428000 0.586000 0.357000
v -0.396000 0.586000 0.357000
v -0.396000 0.586000 -0.373000
v -0.428000 0.586000 -0.373000
v 0.390000 0.402000 0.372000
v 0.390000 0.402000 -0.038000
v 0.404000 0.402000 -0.038000
v 0.404000 0.402000 0.372000
v 0.390000 0.668000 0.372000
v 0.404000 0.668000 0.372000
v 0.404000 0.668000 -0.038000
v 0.390000 0.668000 -0.038000
v 0.396000 0.560000 0.357000
v 0.396000 0.560000 -0.373000
v 0.428000 0.560000 -0.373000
v 0.428000 0.560000 0.357000
v 0.396000 0.586000 0.357000
v 0.428000 0.586000 0.357000
v 0.428000 0.586000 -0.373000
v 0.396000 0.586000 -0.373000
v -0.404000 0.402000 -0.024000
v 0.404000 0.402000 -0.024000
v -0.404000 0.668000 -0.024000
v 0.404000 0.668000 -0.024000
v -0.404000 0.416000 0.372000
v 0.404000 0.416000 0.372000
v 0.404000 0.416000 -0.038000
v -0.404000 0.416000 -0.038000
v -0.400000 0.654000 0.329000
v -0.400000 0.654000 0.315000
v 0.400000 0.654000 0.315000
v 0.400000 0.654000 0.329000
v -0.400000 0.668000 0.329000
v 0.400000 0.668000 0.329000
v 0.400000 0.668000 0.315000
v -0.400000 0.668000 0.315000
v -0.400000 0.654000 0.019000
v -0.400000 0.654000 0.005000
v 0.400000 0.654000 0.005000
v 0.400000 0.654000 0.019000
v -0.400000 0.668000 0.019000
v 0.400000 0.668000 0.019000
v 0.400000 0.668000 0.005000
v -0.400000 0.668000 0.005000
v -0.277000 0.448000 0.322000
v -0.277000 0.448000 0.012000
v -0.263000 0.448000 0.012000
v -0.263000 0.448000 0.322000
v -0.277000 0.672000 0.322000
v -0.263000 0.672000 0.322000
v -0.263000 0.672000 0.012000
v -0.277000 0.672000 0.012000
v -0.187000 0.448000 0.322000
v -0.187000 0.448000 0.012000
v -0.173000 0.448000 0.012000
v -0.173000 0.448000 0.322000
v -0.187000 0.672000 0.322000
v -0.173000 0.672000 0.322000
v -0.173000 0.672000 0.012000
v -0.187000 0.672000 0.012000
v -0.097000 0.448000 0.322000
v -0.097000 0.448000 0.012000
v -0.083000 0.448000 0.012000
v -0.083000 0.448000 0.322000
v -0.097000 0.672000 0.322000
v -0.083000 0.672000 0.322000
v -0.083000 0.672000 0.012000
v -0.097000 0.672000 0.012000
v -0.007000 0.448000 0.322000
v -0.007000 0.448000 0.012000
v 0.007000 0.448000 0.012000
v 0.007000 0.448000 0.322000
v -0.007000 0.672000 0.322000
v 0.007000 0.672000 0.322000
v 0.007000 0.672000 0.012000
v -0.007000 0.672000 0.012000
v 0.083000 0.448000 0.322000
v 0.083000 0.448000 0.012000
v 0.097000 0.448000 0.012000
v 0.097000 0.448000 0.322000
v 0.083000 0.672000 0.322000
v 0.097000 0.672000 0.322000
v 0.097000 0.672000 0.012000
v 0.083000 0.672000 0.012000
v 0.173000 0.448000 0.322000
v 0.173000 0.448000 0.012000
v 0.187000 0.448000 0.012000
v 0.187000 0.448000 0.322000
v 0.173000 0.672000 0.322000
v 0.187000 0.672000 0.322000
v 0.187000 0.672000 0.012000
v 0.173000 0.672000 0.012000
v 0.263000 0.448000 0.322000
v 0.263000 0.448000 0.012000
v 0.277000 0.448000 0.012000
v 0.277000 0.448000 0.322000
v 0.263000 0.672000 0.322000
v 0.277000 0.672000 0.322000
v 0.277000 0.672000 0.012000
v 0.263000 0.672000 0.012000
vn -0.0000 -1.0000 -0.0000
vn -0.0000 1.0000 -0.0000
vn -0.0000 -0.0000 1.0000
vn -0.0000 -0.0000 -1.0000
vn -1.0000 -0.0000 -0.0000
vn 1.0000 -0.0000 -0.0000
vt 0.687500 0.312500
vt 0.312500 0.312500
vt 0.437500 0.312500
vt 0.687500 0.812500
s 0
usemtl FN_Atlas
f 1/1/1 2/1/1 3/1/1 4/1/1
f 5/1/2 6/1/2 7/1/2 8/1/2
f 1/1/3 4/1/3 6/1/3 5/1/3
f 3/1/4 2/1/4 8/1/4 7/1/4
f 1/1/5 5/1/5 8/1/5 2/1/5
f 4/1/6 3/1/6 7/1/6 6/1/6
f 9/1/1 10/1/1 11/1/1 12/1/1
f 13/1/2 14/1/2 15/1/2 16/1/2
f 9/1/3 12/1/3 14/1/3 13/1/3
f 11/1/4 10/1/4 16/1/4 15/1/4
f 9/1/5 13/1/5 16/1/5 10/1/5
f 12/1/6 11/1/6 15/1/6 14/1/6
f 17/1/1 2/1/1 11/1/1 18/1/1
f 19/1/2 20/1/2 15/1/2 8/1/2
f 17/1/3 18/1/3 20/1/3 19/1/3
f 11/1/4 2/1/4 8/1/4 15/1/4
f 17/1/5 19/1/5 8/1/5 2/1/5
f 18/1/6 11/1/6 15/1/6 20/1/6
f 21/1/1 22/1/1 23/1/1 24/1/1
f 5/1/2 14/1/2 15/1/2 8/1/2
f 21/1/3 24/1/3 14/1/3 5/1/3
f 23/1/4 22/1/4 8/1/4 15/1/4
f 21/1/5 5/1/5 8/1/5 22/1/5
f 24/1/6 23/1/6 15/1/6 14/1/6
f 25/1/1 26/1/1 27/1/1 28/1/1
f 29/1/2 30/1/2 31/1/2 32/1/2
f 25/1/3 28/1/3 30/1/3 29/1/3
f 27/1/4 26/1/4 32/1/4 31/1/4
f 25/1/5 29/1/5 32/1/5 26/1/5
f 28/1/6 27/1/6 31/1/6 30/1/6
f 33/1/1 34/1/1 35/1/1 36/1/1
f 37/1/2 38/1/2 39/1/2 40/1/2
f 33/1/3 36/1/3 38/1/3 37/1/3
f 35/1/4 34/1/4 40/1/4 39/1/4
f 33/1/5 37/1/5 40/1/5 34/1/5
f 36/1/6 35/1/6 39/1/6 38/1/6
f 41/1/1 42/1/1 43/1/1 44/1/1
f 45/1/2 46/1/2 47/1/2 48/1/2
f 41/1/3 44/1/3 46/1/3 45/1/3
f 43/1/4 42/1/4 48/1/4 47/1/4
f 41/1/5 45/1/5 48/1/5 42/1/5
f 44/1/6 43/1/6 47/1/6 46/1/6
f 49/1/1 50/1/1 51/1/1 52/1/1
f 53/1/2 54/1/2 55/1/2 56/1/2
f 49/1/3 52/1/3 54/1/3 53/1/3
f 51/1/4 50/1/4 56/1/4 55/1/4
f 49/1/5 53/1/5 56/1/5 50/1/5
f 52/1/6 51/1/6 55/1/6 54/1/6
f 57/1/1 58/1/1 59/1/1 60/1/1
f 61/1/2 62/1/2 63/1/2 64/1/2
f 57/1/3 60/1/3 62/1/3 61/1/3
f 59/1/4 58/1/4 64/1/4 63/1/4
f 57/1/5 61/1/5 64/1/5 58/1/5
f 60/1/6 59/1/6 63/1/6 62/1/6
f 65/2/1 66/2/1 67/2/1 68/2/1
f 69/2/2 70/2/2 71/2/2 72/2/2
f 65/2/3 68/2/3 70/2/3 69/2/3
f 67/2/4 66/2/4 72/2/4 71/2/4
f 65/2/5 69/2/5 72/2/5 66/2/5
f 68/2/6 67/2/6 71/2/6 70/2/6
f 73/1/1 74/1/1 75/1/1 76/1/1
f 77/1/2 78/1/2 79/1/2 80/1/2
f 73/1/3 76/1/3 78/1/3 77/1/3
f 75/1/4 74/1/4 80/1/4 79/1/4
f 73/1/5 77/1/5 80/1/5 74/1/5
f 76/1/6 75/1/6 79/1/6 78/1/6
f 81/2/1 82/2/1 83/2/1 84/2/1
f 85/2/2 86/2/2 87/2/2 88/2/2
f 81/2/3 84/2/3 86/2/3 85/2/3
f 83/2/4 82/2/4 88/2/4 87/2/4
f 81/2/5 85/2/5 88/2/5 82/2/5
f 84/2/6 83/2/6 87/2/6 86/2/6
f 89/1/1 58/1/1 75/1/1 90/1/1
f 91/1/2 92/1/2 79/1/2 64/1/2
f 89/1/3 90/1/3 92/1/3 91/1/3
f 75/1/4 58/1/4 64/1/4 79/1/4
f 89/1/5 91/1/5 64/1/5 58/1/5
f 90/1/6 75/1/6 79/1/6 92/1/6
f 57/1/1 58/1/1 75/1/1 76/1/1
f 93/1/2 94/1/2 95/1/2 96/1/2
f 57/1/3 76/1/3 94/1/3 93/1/3
f 75/1/4 58/1/4 96/1/4 95/1/4
f 57/1/5 93/1/5 96/1/5 58/1/5
f 76/1/6 75/1/6 95/1/6 94/1/6
f 97/2/1 98/2/1 99/2/1 100/2/1
f 101/2/2 102/2/2 103/2/2 104/2/2
f 97/2/3 100/2/3 102/2/3 101/2/3
f 99/2/4 98/2/4 104/2/4 103/2/4
f 97/2/5 101/2/5 104/2/5 98/2/5
f 100/2/6 99/2/6 103/2/6 102/2/6
f 105/1/1 106/1/1 107/1/1 108/1/1
f 109/1/2 110/1/2 111/1/2 112/1/2
f 105/1/3 108/1/3 110/1/3 109/1/3
f 107/1/4 106/1/4 112/1/4 111/1/4
f 105/1/5 109/1/5 112/1/5 106/1/5
f 108/1/6 107/1/6 111/1/6 110/1/6
f 113/2/1 114/2/1 115/2/1 116/2/1
f 117/2/2 118/2/2 119/2/2 120/2/2
f 113/2/3 116/2/3 118/2/3 117/2/3
f 115/2/4 114/2/4 120/2/4 119/2/4
f 113/2/5 117/2/5 120/2/5 114/2/5
f 116/2/6 115/2/6 119/2/6 118/2/6
f 121/1/1 122/1/1 123/1/1 124/1/1
f 125/1/2 126/1/2 127/1/2 128/1/2
f 121/1/3 124/1/3 126/1/3 125/1/3
f 123/1/4 122/1/4 128/1/4 127/1/4
f 121/1/5 125/1/5 128/1/5 122/1/5
f 124/1/6 123/1/6 127/1/6 126/1/6
f 129/2/1 130/2/1 131/2/1 132/2/1
f 133/2/2 134/2/2 135/2/2 136/2/2
f 129/2/3 132/2/3 134/2/3 133/2/3
f 131/2/4 130/2/4 136/2/4 135/2/4
f 129/2/5 133/2/5 136/2/5 130/2/5
f 132/2/6 131/2/6 135/2/6 134/2/6
f 137/1/1 138/1/1 139/1/1 140/1/1
f 141/1/2 142/1/2 143/1/2 144/1/2
f 137/1/3 140/1/3 142/1/3 141/1/3
f 139/1/4 138/1/4 144/1/4 143/1/4
f 137/1/5 141/1/5 144/1/5 138/1/5
f 140/1/6 139/1/6 143/1/6 142/1/6
f 145/2/1 146/2/1 147/2/1 148/2/1
f 149/2/2 150/2/2 151/2/2 152/2/2
f 145/2/3 148/2/3 150/2/3 149/2/3
f 147/2/4 146/2/4 152/2/4 151/2/4
f 145/2/5 149/2/5 152/2/5 146/2/5
f 148/2/6 147/2/6 151/2/6 150/2/6
f 153/1/1 122/1/1 139/1/1 154/1/1
f 155/1/2 156/1/2 143/1/2 128/1/2
f 153/1/3 154/1/3 156/1/3 155/1/3
f 139/1/4 122/1/4 128/1/4 143/1/4
f 153/1/5 155/1/5 128/1/5 122/1/5
f 154/1/6 139/1/6 143/1/6 156/1/6
f 121/1/1 122/1/1 139/1/1 140/1/1
f 157/1/2 158/1/2 159/1/2 160/1/2
f 121/1/3 140/1/3 158/1/3 157/1/3
f 139/1/4 122/1/4 160/1/4 159/1/4
f 121/1/5 157/1/5 160/1/5 122/1/5
f 140/1/6 139/1/6 159/1/6 158/1/6
f 161/3/1 162/3/1 163/3/1 164/3/1
f 165/3/2 166/3/2 167/3/2 168/3/2
f 161/3/3 164/3/3 166/3/3 165/3/3
f 163/3/4 162/3/4 168/3/4 167/3/4
f 161/3/5 165/3/5 168/3/5 162/3/5
f 164/3/6 163/3/6 167/3/6 166/3/6
f 169/3/1 170/3/1 171/3/1 172/3/1
f 173/3/2 174/3/2 175/3/2 176/3/2
f 169/3/3 172/3/3 174/3/3 173/3/3
f 171/3/4 170/3/4 176/3/4 175/3/4
f 169/3/5 173/3/5 176/3/5 170/3/5
f 172/3/6 171/3/6 175/3/6 174/3/6
f 177/4/1 178/4/1 179/4/1 180/4/1
f 181/4/2 182/4/2 183/4/2 184/4/2
f 177/4/3 180/4/3 182/4/3 181/4/3
f 179/4/4 178/4/4 184/4/4 183/4/4
f 177/4/5 181/4/5 184/4/5 178/4/5
f 180/4/6 179/4/6 183/4/6 182/4/6
f 185/4/1 186/4/1 187/4/1 188/4/1
f 189/4/2 190/4/2 191/4/2 192/4/2
f 185/4/3 188/4/3 190/4/3 189/4/3
f 187/4/4 186/4/4 192/4/4 191/4/4
f 185/4/5 189/4/5 192/4/5 186/4/5
f 188/4/6 187/4/6 191/4/6 190/4/6
f 193/4/1 194/4/1 195/4/1 196/4/1
f 197/4/2 198/4/2 199/4/2 200/4/2
f 193/4/3 196/4/3 198/4/3 197/4/3
f 195/4/4 194/4/4 200/4/4 199/4/4
f 193/4/5 197/4/5 200/4/5 194/4/5
f 196/4/6 195/4/6 199/4/6 198/4/6
f 201/4/1 202/4/1 203/4/1 204/4/1
f 205/4/2 206/4/2 207/4/2 208/4/2
f 201/4/3 204/4/3 206/4/3 205/4/3
f 203/4/4 202/4/4 208/4/4 207/4/4
f 201/4/5 205/4/5 208/4/5 202/4/5
f 204/4/6 203/4/6 207/4/6 206/4/6
f 209/4/1 210/4/1 211/4/1 212/4/1
f 213/4/2 214/4/2 215/4/2 216/4/2
f 209/4/3 212/4/3 214/4/3 213/4/3
f 211/4/4 210/4/4 216/4/4 215/4/4
f 209/4/5 213/4/5 216/4/5 210/4/5
f 212/4/6 211/4/6 215/4/6 214/4/6
f 217/4/1 218/4/1 219/4/1 220/4/1
f 221/4/2 222/4/2 223/4/2 224/4/2
f 217/4/3 220/4/3 222/4/3 221/4/3
f 219/4/4 218/4/4 224/4/4 223/4/4
f 217/4/5 221/4/5 224/4/5 218/4/5
f 220/4/6 219/4/6 223/4/6 222/4/6
f 225/4/1 226/4/1 227/4/1 228/4/1
f 229/4/2 230/4/2 231/4/2 232/4/2
f 225/4/3 228/4/3 230/4/3 229/4/3
f 227/4/4 226/4/4 232/4/4 231/4/4
f 225/4/5 229/4/5 232/4/5 226/4/5
f 228/4/6 227/4/6 231/4/6 230/4/6
