# Blender 5.2.0 LTS
# www.blender.org
mtllib FN_Cabinet_Filing.mtl
o FN_Cabinet_Filing
v -0.221000 0.000000 0.275000
v -0.221000 0.000000 -0.319000
v 0.221000 0.000000 -0.319000
v 0.221000 0.000000 0.275000
v -0.221000 0.062000 0.275000
v 0.221000 0.062000 0.275000
v 0.221000 0.062000 -0.319000
v -0.221000 0.062000 -0.319000
v -0.235000 0.062000 0.295000
v -0.235000 0.062000 -0.325000
v -0.221000 0.062000 -0.325000
v -0.221000 0.062000 0.295000
v -0.235000 1.320000 0.295000
v -0.221000 1.320000 0.295000
v -0.221000 1.320000 -0.325000
v -0.235000 1.320000 -0.325000
v 0.221000 0.062000 0.295000
v 0.221000 0.062000 -0.325000
v 0.235000 0.062000 -0.325000
v 0.235000 0.062000 0.295000
v 0.221000 1.320000 0.295000
v 0.235000 1.320000 0.295000
v 0.235000 1.320000 -0.325000
v 0.221000 1.320000 -0.325000
v -0.235000 0.076000 0.295000
v 0.235000 0.076000 0.295000
v 0.235000 0.076000 -0.325000
v -0.235000 0.076000 -0.325000
v -0.235000 1.306000 0.295000
v -0.235000 1.306000 -0.325000
v 0.235000 1.306000 -0.325000
v 0.235000 1.306000 0.295000
v -0.221000 0.062000 -0.315000
v 0.221000 0.062000 -0.315000
v -0.221000 1.320000 -0.315000
v 0.221000 1.320000 -0.315000
v -0.221000 0.076000 0.293000
v -0.221000 0.076000 0.281000
v 0.221000 0.076000 0.281000
v 0.221000 0.076000 0.293000
v -0.221000 1.306000 0.293000
v 0.221000 1.306000 0.293000
v 0.221000 1.306000 0.281000
v -0.221000 1.306000 0.281000
v -0.217000 0.083000 0.309000
v -0.217000 0.083000 0.291000
v 0.217000 0.083000 0.291000
v 0.217000 0.083000 0.309000
v -0.217000 0.381750 0.309000
v 0.217000 0.381750 0.309000
v 0.217000 0.381750 0.291000
v -0.217000 0.381750 0.291000
v -0.169000 0.333750 0.325000
v -0.169000 0.333750 0.307000
v 0.169000 0.333750 0.307000
v 0.169000 0.333750 0.325000
v -0.169000 0.353750 0.325000
v 0.169000 0.353750 0.325000
v 0.169000 0.353750 0.307000
v -0.169000 0.353750 0.307000
v -0.181000 0.113000 0.312000
v -0.181000 0.113000 0.309000
v -0.093000 0.113000 0.309000
v -0.093000 0.113000 0.312000
v -0.181000 0.147000 0.312000
v -0.093000 0.147000 0.312000
v -0.093000 0.147000 0.309000
v -0.181000 0.147000 0.309000
v -0.217000 0.388750 0.309000
v -0.217000 0.388750 0.291000
v 0.217000 0.388750 0.291000
v 0.217000 0.388750 0.309000
v -0.217000 0.687500 0.309000
v 0.217000 0.687500 0.309000
v 0.217000 0.687500 0.291000
v -0.217000 0.687500 0.291000
v -0.169000 0.639500 0.325000
v -0.169000 0.639500 0.307000
v 0.169000 0.639500 0.307000
v 0.169000 0.639500 0.325000
v -0.169000 0.659500 0.325000
v 0.169000 0.659500 0.325000
v 0.169000 0.659500 0.307000
v -0.169000 0.659500 0.307000
v -0.181000 0.418750 0.312000
v -0.181000 0.418750 0.309000
v -0.093000 0.418750 0.309000
v -0.093000 0.418750 0.312000
v -0.181000 0.452750 0.312000
v -0.093000 0.452750 0.312000
v -0.093000 0.452750 0.309000
v -0.181000 0.452750 0.309000
v -0.217000 0.694500 0.309000
v -0.217000 0.694500 0.291000
v 0.217000 0.694500 0.291000
v 0.217000 0.694500 0.309000
v -0.217000 0.993250 0.309000
v 0.217000 0.993250 0.309000
v 0.217000 0.993250 0.291000
v -0.217000 0.993250 0.291000
v -0.169000 0.945250 0.325000
v -0.169000 0.945250 0.307000
v 0.169000 0.945250 0.307000
v 0.169000 0.945250 0.325000
v -0.169000 0.965250 0.325000
v 0.169000 0.965250 0.325000
v 0.169000 0.965250 0.307000
v -0.169000 0.965250 0.307000
v -0.181000 0.724500 0.312000
v -0.181000 0.724500 0.309000
v -0.093000 0.724500 0.309000
v -0.093000 0.724500 0.312000
v -0.181000 0.758500 0.312000
v -0.093000 0.758500 0.312000
v -0.093000 0.758500 0.309000
v -0.181000 0.758500 0.309000
v -0.217000 1.000250 0.309000
v -0.217000 1.000250 0.291000
v 0.217000 1.000250 0.291000
v 0.217000 1.000250 0.309000
v -0.217000 1.299000 0.309000
v 0.217000 1.299000 0.309000
v 0.217000 1.299000 0.291000
v -0.217000 1.299000 0.291000
v -0.169000 1.251000 0.325000
v -0.169000 1.251000 0.307000
v 0.169000 1.251000 0.307000
v 0.169000 1.251000 0.325000
v -0.169000 1.271000 0.325000
v 0.169000 1.271000 0.325000
v 0.169000 1.271000 0.307000
v -0.169000 1.271000 0.307000
v -0.181000 1.030250 0.312000
v -0.181000 1.030250 0.309000
v -0.093000 1.030250 0.309000
v -0.093000 1.030250 0.312000
v -0.181000 1.064250 0.312000
v -0.093000 1.064250 0.312000
v -0.093000 1.064250 0.309000
v -0.181000 1.064250 0.309000
vn -0.0000 -1.0000 -0.0000
vn -0.0000 1.0000 -0.0000
vn -0.0000 -0.0000 1.0000
vn -0.0000 -0.0000 -1.0000
vn -1.0000 -0.0000 -0.0000
vn 1.0000 -0.0000 -0.0000
vt 0.812500 0.312500
vt 0.937500 0.312500
vt 0.562500 0.812500
vt 0.437500 0.812500
s 0
usemtl FN_Atlas
f 1/1/1 2/1/1 3/1/1 4/1/1
f 5/1/2 6/1/2 7/1/2 8/1/2
f 1/1/3 4/1/3 6/1/3 5/1/3
f 3/1/4 2/1/4 8/1/4 7/1/4
f 1/1/5 5/1/5 8/1/5 2/1/5
f 4/1/6 3/1/6 7/1/6 6/1/6
f 9/2/1 10/2/1 11/2/1 12/2/1
f 13/2/2 14/2/2 15/2/2 16/2/2
f 9/2/3 12/2/3 14/2/3 13/2/3
f 11/2/4 10/2/4 16/2/4 15/2/4
f 9/2/5 13/2/5 16/2/5 10/2/5
f 12/2/6 11/2/6 15/2/6 14/2/6
f 17/2/1 18/2/1 19/2/1 20/2/1
f 21/2/2 22/2/2 23/2/2 24/2/2
f 17/2/3 20/2/3 22/2/3 21/2/3
f 19/2/4 18/2/4 24/2/4 23/2/4
f 17/2/5 21/2/5 24/2/5 18/2/5
f 20/2/6 19/2/6 23/2/6 22/2/6
f 9/2/1 10/2/1 19/2/1 20/2/1
f 25/2/2 26/2/2 27/2/2 28/2/2
f 9/2/3 20/2/3 26/2/3 25/2/3
f 19/2/4 10/2/4 28/2/4 27/2/4
f 9/2/5 25/2/5 28/2/5 10/2/5
f 20/2/6 19/2/6 27/2/6 26/2/6
f 29/2/1 30/2/1 31/2/1 32/2/1
f 13/2/2 22/2/2 23/2/2 16/2/2
f 29/2/3 32/2/3 22/2/3 13/2/3
f 31/2/4 30/2/4 16/2/4 23/2/4
f 29/2/5 13/2/5 16/2/5 30/2/5
f 32/2/6 31/2/6 23/2/6 22/2/6
f 33/1/1 11/1/1 18/1/1 34/1/1
f 35/1/2 36/1/2 24/1/2 15/1/2
f 33/1/3 34/1/3 36/1/3 35/1/3
f 18/1/4 11/1/4 15/1/4 24/1/4
f 33/1/5 35/1/5 15/1/5 11/1/5
f 34/1/6 18/1/6 24/1/6 36/1/6
f 37/1/1 38/1/1 39/1/1 40/1/1
f 41/1/2 42/1/2 43/1/2 44/1/2
f 37/1/3 40/1/3 42/1/3 41/1/3
f 39/1/4 38/1/4 44/1/4 43/1/4
f 37/1/5 41/1/5 44/1/5 38/1/5
f 40/1/6 39/1/6 43/1/6 42/1/6
f 45/3/1 46/3/1 47/3/1 48/3/1
f 49/3/2 50/3/2 51/3/2 52/3/2
f 45/3/3 48/3/3 50/3/3 49/3/3
f 47/3/4 46/3/4 52/3/4 51/3/4
f 45/3/5 49/3/5 52/3/5 46/3/5
f 48/3/6 47/3/6 51/3/6 50/3/6
f 53/1/1 54/1/1 55/1/1 56/1/1
f 57/1/2 58/1/2 59/1/2 60/1/2
f 53/1/3 56/1/3 58/1/3 57/1/3
f 55/1/4 54/1/4 60/1/4 59/1/4
f 53/1/5 57/1/5 60/1/5 54/1/5
f 56/1/6 55/1/6 59/1/6 58/1/6
f 61/4/1 62/4/1 63/4/1 64/4/1
f 65/4/2 66/4/2 67/4/2 68/4/2
f 61/4/3 64/4/3 66/4/3 65/4/3
f 63/4/4 62/4/4 68/4/4 67/4/4
f 61/4/5 65/4/5 68/4/5 62/4/5
f 64/4/6 63/4/6 67/4/6 66/4/6
f 69/3/1 70/3/1 71/3/1 72/3/1
f 73/3/2 74/3/2 75/3/2 76/3/2
f 69/3/3 72/3/3 74/3/3 73/3/3
f 71/3/4 70/3/4 76/3/4 75/3/4
f 69/3/5 73/3/5 76/3/5 70/3/5
f 72/3/6 71/3/6 75/3/6 74/3/6
f 77/1/1 78/1/1 79/1/1 80/1/1
f 81/1/2 82/1/2 83/1/2 84/1/2
f 77/1/3 80/1/3 82/1/3 81/1/3
f 79/1/4 78/1/4 84/1/4 83/1/4
f 77/1/5 81/1/5 84/1/5 78/1/5
f 80/1/6 79/1/6 83/1/6 82/1/6
f 85/4/1 86/4/1 87/4/1 88/4/1
f 89/4/2 90/4/2 91/4/2 92/4/2
f 85/4/3 88/4/3 90/4/3 89/4/3
f 87/4/4 86/4/4 92/4/4 91/4/4
f 85/4/5 89/4/5 92/4/5 86/4/5
f 88/4/6 87/4/6 91/4/6 90/4/6
f 93/3/1 94/3/1 95/3/1 96/3/1
f 97/3/2 98/3/2 99/3/2 100/3/2
f 93/3/3 96/3/3 98/3/3 97/3/3
f 95/3/4 94/3/4 100/3/4 99/3/4
f 93/3/5 97/3/5 100/3/5 94/3/5
f 96/3/6 95/3/6 99/3/6 98/3/6
f 101/1/1 102/1/1 103/1/1 104/1/1
f 105/1/2 106/1/2 107/1/2 108/1/2
f 101/1/3 104/1/3 106/1/3 105/1/3
f 103/1/4 102/1/4 108/1/4 107/1/4
f 101/1/5 105/1/5 108/1/5 102/1/5
f 104/1/6 103/1/6 107/1/6 106/1/6
f 109/4/1 110/4/1 111/4/1 112/4/1
f 113/4/2 114/4/2 115/4/2 116/4/2
f 109/4/3 112/4/3 114/4/3 113/4/3
f 111/4/4 110/4/4 116/4/4 115/4/4
f 109/4/5 113/4/5 116/4/5 110/4/5
f 112/4/6 111/4/6 115/4/6 114/4/6
f 117/3/1 118/3/1 119/3/1 120/3/1
f 121/3/2 122/3/2 123/3/2 124/3/2
f 117/3/3 120/3/3 122/3/3 121/3/3
f 119/3/4 118/3/4 124/3/4 123/3/4
f 117/3/5 121/3/5 124/3/5 118/3/5
f 120/3/6 119/3/6 123/3/6 122/3/6
f 125/1/1 126/1/1 127/1/1 128/1/1
f 129/1/2 130/1/2 131/1/2 132/1/2
f 125/1/3 128/1/3 130/1/3 129/1/3
f 127/1/4 126/1/4 132/1/4 131/1/4
f 125/1/5 129/1/5 132/1/5 126/1/5
f 128/1/6 127/1/6 131/1/6 130/1/6
f 133/4/1 134/4/1 135/4/1 136/4/1
f 137/4/2 138/4/2 139/4/2 140/4/2
f 133/4/3 136/4/3 138/4/3 137/4/3
f 135/4/4 134/4/4 140/4/4 139/4/4
f 133/4/5 137/4/5 140/4/5 134/4/5
f 136/4/6 135/4/6 139/4/6 138/4/6
