# Blender 5.2.0 LTS
# www.blender.org
mtllib FN_Cabinet_Corner.mtl
o FN_Cabinet_Corner
v 0.424580 0.108000 0.256803
v 0.424580 0.108000 -0.280597
v 0.454580 0.108000 -0.280597
v 0.454580 0.108000 0.256803
v 0.424580 1.508000 0.256803
v 0.454580 1.508000 0.256803
v 0.454580 1.508000 -0.280597
v 0.424580 1.508000 -0.280597
v -0.082820 0.108000 -0.252597
v -0.082820 0.108000 -0.278597
v 0.439580 0.108000 -0.278597
v 0.439580 0.108000 -0.252597
v -0.082820 1.508000 -0.252597
v 0.439580 1.508000 -0.252597
v 0.439580 1.508000 -0.278597
v -0.082820 1.508000 -0.278597
v 0.313180 0.108000 0.253803
v 0.313180 0.108000 0.223803
v 0.454580 0.108000 0.223803
v 0.454580 0.108000 0.253803
v 0.313180 1.508000 0.253803
v 0.454580 1.508000 0.253803
v 0.454580 1.508000 0.223803
v 0.313180 1.508000 0.223803
v -0.079820 0.108000 -0.139197
v -0.079820 0.108000 -0.280597
v -0.049820 0.108000 -0.280597
v -0.049820 0.108000 -0.139197
v -0.079820 1.508000 -0.139197
v -0.049820 1.508000 -0.139197
v -0.049820 1.508000 -0.280597
v -0.079820 1.508000 -0.280597
v 0.439580 0.000000 -0.265597
v 0.439580 0.000000 0.229403
v 0.292580 0.000000 0.229403
v -0.055420 0.000000 -0.118597
v -0.055420 0.000000 -0.265597
v -0.055420 0.112000 -0.265597
v -0.055420 0.112000 -0.118597
v 0.292580 0.112000 0.229403
v 0.439580 0.112000 0.229403
v 0.439580 0.112000 -0.265597
v 0.454580 0.100000 -0.280597
v 0.454580 0.100000 0.256803
v 0.313180 0.100000 0.256803
v -0.082820 0.100000 -0.139197
v -0.082820 0.100000 -0.280597
v -0.082820 0.140000 -0.280597
v -0.082820 0.140000 -0.139197
v 0.313180 0.140000 0.256803
v 0.454580 0.140000 0.256803
v 0.454580 0.140000 -0.280597
v 0.454580 1.480000 -0.280597
v 0.454580 1.480000 0.256803
v 0.313180 1.480000 0.256803
v -0.082820 1.480000 -0.139197
v -0.082820 1.480000 -0.280597
v -0.082820 1.520000 -0.280597
v -0.082820 1.520000 -0.139197
v 0.313180 1.520000 0.256803
v 0.454580 1.520000 0.256803
v 0.454580 1.520000 -0.280597
v 0.439580 0.560000 -0.265597
v 0.439580 0.560000 0.229403
v 0.292580 0.560000 0.229403
v -0.055420 0.560000 -0.118597
v -0.055420 0.560000 -0.265597
v -0.055420 0.586000 -0.265597
v -0.055420 0.586000 -0.118597
v 0.292580 0.586000 0.229403
v 0.439580 0.586000 0.229403
v 0.439580 0.586000 -0.265597
v 0.439580 1.020000 -0.265597
v 0.439580 1.020000 0.229403
v 0.292580 1.020000 0.229403
v -0.055420 1.020000 -0.118597
v -0.055420 1.020000 -0.265597
v -0.055420 1.046000 -0.265597
v -0.055420 1.046000 -0.118597
v 0.292580 1.046000 0.229403
v 0.439580 1.046000 0.229403
v 0.439580 1.046000 -0.265597
v -0.101205 0.152000 -0.154624
v -0.453454 0.152000 0.265170
v -0.435069 0.152000 0.280597
v -0.082820 0.152000 -0.139197
v -0.082820 1.468000 -0.139197
v -0.435069 1.468000 0.280597
v -0.453454 1.468000 0.265170
v -0.101205 1.468000 -0.154624
v -0.436582 0.760000 0.198391
v -0.454580 0.760000 0.219841
v -0.431599 0.760000 0.239125
v -0.413601 0.760000 0.217675
v -0.413601 0.790000 0.217675
v -0.431599 0.790000 0.239125
v -0.454580 0.790000 0.219841
v -0.436582 0.790000 0.198391
v -0.077320 0.300000 -0.129671
v -0.088320 0.300000 -0.129671
v -0.093820 0.300000 -0.139197
v -0.088320 0.300000 -0.148723
v -0.077320 0.300000 -0.148723
v -0.071820 0.300000 -0.139197
v -0.071820 0.360000 -0.139197
v -0.077320 0.360000 -0.148723
v -0.088320 0.360000 -0.148723
v -0.093820 0.360000 -0.139197
v -0.088320 0.360000 -0.129671
v -0.077320 0.360000 -0.129671
v -0.077320 1.240000 -0.129671
v -0.088320 1.240000 -0.129671
v -0.093820 1.240000 -0.139197
v -0.088320 1.240000 -0.148723
v -0.077320 1.240000 -0.148723
v -0.071820 1.240000 -0.139197
v -0.071820 1.300000 -0.139197
v -0.077320 1.300000 -0.148723
v -0.088320 1.300000 -0.148723
v -0.093820 1.300000 -0.139197
v -0.088320 1.300000 -0.129671
v -0.077320 1.300000 -0.129671
vn -0.0000 -1.0000 -0.0000
vn -0.0000 1.0000 -0.0000
vn -0.0000 -0.0000 1.0000
vn -0.0000 -0.0000 -1.0000
vn -1.0000 -0.0000 -0.0000
vn 1.0000 -0.0000 -0.0000
vn -0.7071 -0.0000 0.7071
vn -0.7660 -0.0000 -0.6428
vn 0.6428 -0.0000 -0.7660
vn 0.7660 -0.0000 0.6428
vn -0.6428 -0.0000 0.7660
vn 0.8660 -0.0000 -0.5000
vn -0.8660 -0.0000 -0.5000
vn -0.8660 -0.0000 0.5000
vn 0.8660 -0.0000 0.5000
vt 0.937500 0.812500
vt 0.562500 0.812500
vt 0.687500 0.937500
vt 0.437500 0.312500
s 0
usemtl FN_Atlas
f 1/1/1 2/1/1 3/1/1 4/1/1
f 5/1/2 6/1/2 7/1/2 8/1/2
f 1/1/3 4/1/3 6/1/3 5/1/3
f 3/1/4 2/1/4 8/1/4 7/1/4
f 1/2/5 5/2/5 8/2/5 2/2/5
f 4/1/6 3/1/6 7/1/6 6/1/6
f 9/1/1 10/1/1 11/1/1 12/1/1
f 13/1/2 14/1/2 15/1/2 16/1/2
f 9/2/3 12/2/3 14/2/3 13/2/3
f 11/1/4 10/1/4 16/1/4 15/1/4
f 9/1/5 13/1/5 16/1/5 10/1/5
f 12/1/6 11/1/6 15/1/6 14/1/6
f 17/1/1 18/1/1 19/1/1 20/1/1
f 21/1/2 22/1/2 23/1/2 24/1/2
f 17/1/3 20/1/3 22/1/3 21/1/3
f 19/2/4 18/2/4 24/2/4 23/2/4
f 17/1/5 21/1/5 24/1/5 18/1/5
f 20/1/6 19/1/6 23/1/6 22/1/6
f 25/1/1 26/1/1 27/1/1 28/1/1
f 29/1/2 30/1/2 31/1/2 32/1/2
f 25/1/3 28/1/3 30/1/3 29/1/3
f 27/1/4 26/1/4 32/1/4 31/1/4
f 25/1/5 29/1/5 32/1/5 26/1/5
f 28/2/6 27/2/6 31/2/6 30/2/6
f 33/1/1 34/1/1 35/1/1 36/1/1 37/1/1
f 38/1/2 39/1/2 40/1/2 41/1/2 42/1/2
f 42/1/6 41/1/6 34/1/6 33/1/6
f 41/1/3 40/1/3 35/1/3 34/1/3
f 40/1/7 39/1/7 36/1/7 35/1/7
f 39/1/5 38/1/5 37/1/5 36/1/5
f 38/1/4 42/1/4 33/1/4 37/1/4
f 43/1/1 44/1/1 45/1/1 46/1/1 47/1/1
f 48/1/2 49/1/2 50/1/2 51/1/2 52/1/2
f 52/1/6 51/1/6 44/1/6 43/1/6
f 51/1/3 50/1/3 45/1/3 44/1/3
f 50/1/7 49/1/7 46/1/7 45/1/7
f 49/1/5 48/1/5 47/1/5 46/1/5
f 48/1/4 52/1/4 43/1/4 47/1/4
f 53/1/1 54/1/1 55/1/1 56/1/1 57/1/1
f 58/1/2 59/1/2 60/1/2 61/1/2 62/1/2
f 62/1/6 61/1/6 54/1/6 53/1/6
f 61/1/3 60/1/3 55/1/3 54/1/3
f 60/1/7 59/1/7 56/1/7 55/1/7
f 59/1/5 58/1/5 57/1/5 56/1/5
f 58/1/4 62/1/4 53/1/4 57/1/4
f 63/3/1 64/3/1 65/3/1 66/3/1 67/3/1
f 68/3/2 69/3/2 70/3/2 71/3/2 72/3/2
f 72/3/6 71/3/6 64/3/6 63/3/6
f 71/3/3 70/3/3 65/3/3 64/3/3
f 70/3/7 69/3/7 66/3/7 65/3/7
f 69/3/5 68/3/5 67/3/5 66/3/5
f 68/3/4 72/3/4 63/3/4 67/3/4
f 73/3/1 74/3/1 75/3/1 76/3/1 77/3/1
f 78/3/2 79/3/2 80/3/2 81/3/2 82/3/2
f 82/3/6 81/3/6 74/3/6 73/3/6
f 81/3/3 80/3/3 75/3/3 74/3/3
f 80/3/7 79/3/7 76/3/7 75/3/7
f 79/3/5 78/3/5 77/3/5 76/3/5
f 78/3/4 82/3/4 73/3/4 77/3/4
f 83/1/2 84/1/2 85/1/2 86/1/2
f 87/1/1 88/1/1 89/1/1 90/1/1
f 86/1/8 85/1/8 88/1/8 87/1/8
f 85/1/9 84/1/9 89/1/9 88/1/9
f 84/1/10 83/1/10 90/1/10 89/1/10
f 83/1/11 86/1/11 87/1/11 90/1/11
f 91/4/2 92/4/2 93/4/2 94/4/2
f 95/4/1 96/4/1 97/4/1 98/4/1
f 94/4/8 93/4/8 96/4/8 95/4/8
f 93/4/9 92/4/9 97/4/9 96/4/9
f 92/4/10 91/4/10 98/4/10 97/4/10
f 91/4/11 94/4/11 95/4/11 98/4/11
f 99/4/1 100/4/1 101/4/1 102/4/1 103/4/1 104/4/1
f 105/4/2 106/4/2 107/4/2 108/4/2 109/4/2 110/4/2
f 104/4/12 103/4/12 106/4/12 105/4/12
f 103/4/4 102/4/4 107/4/4 106/4/4
f 102/4/13 101/4/13 108/4/13 107/4/13
f 101/4/14 100/4/14 109/4/14 108/4/14
f 100/4/3 99/4/3 110/4/3 109/4/3
f 99/4/15 104/4/15 105/4/15 110/4/15
f 111/4/1 112/4/1 113/4/1 114/4/1 115/4/1 116/4/1
f 117/4/2 118/4/2 119/4/2 120/4/2 121/4/2 122/4/2
f 116/4/12 115/4/12 118/4/12 117/4/12
f 115/4/4 114/4/4 119/4/4 118/4/4
f 114/4/13 113/4/13 120/4/13 119/4/13
f 113/4/14 112/4/14 121/4/14 120/4/14
f 112/4/3 111/4/3 122/4/3 121/4/3
f 111/4/15 116/4/15 117/4/15 122/4/15
