# Blender 5.2.0 LTS
# www.blender.org
mtllib FN_Cabinet_Kitchen_Wall.mtl
o FN_Cabinet_Kitchen_Wall
v -0.400000 0.016000 0.000000
v -0.400000 0.016000 -0.332000
v 0.400000 0.016000 -0.332000
v 0.400000 0.016000 0.000000
v -0.400000 0.720000 0.000000
v 0.400000 0.720000 0.000000
v 0.400000 0.720000 -0.332000
v -0.400000 0.720000 -0.332000
v -0.398000 0.018000 -0.332000
v -0.398000 0.018000 -0.335000
v 0.398000 0.018000 -0.335000
v 0.398000 0.018000 -0.332000
v -0.398000 0.716000 -0.332000
v 0.398000 0.716000 -0.332000
v 0.398000 0.716000 -0.335000
v -0.398000 0.716000 -0.335000
v -0.394000 0.000000 -0.020000
v -0.394000 0.000000 -0.335000
v 0.394000 0.000000 -0.335000
v 0.394000 0.000000 -0.020000
v -0.394000 0.016000 -0.020000
v 0.394000 0.016000 -0.020000
v 0.394000 0.016000 -0.335000
v -0.394000 0.016000 -0.335000
v -0.394000 0.022000 -0.335000
v -0.394000 0.022000 -0.350000
v -0.005000 0.022000 -0.350000
v -0.005000 0.022000 -0.335000
v -0.394000 0.712000 -0.335000
v -0.005000 0.712000 -0.335000
v -0.005000 0.712000 -0.350000
v -0.394000 0.712000 -0.350000
v -0.394000 0.022000 -0.349000
v -0.394000 0.022000 -0.356000
v -0.005000 0.022000 -0.356000
v -0.005000 0.022000 -0.349000
v -0.394000 0.077000 -0.349000
v -0.005000 0.077000 -0.349000
v -0.005000 0.077000 -0.356000
v -0.394000 0.077000 -0.356000
v -0.394000 0.657000 -0.349000
v -0.394000 0.657000 -0.356000
v -0.005000 0.657000 -0.356000
v -0.005000 0.657000 -0.349000
v -0.394000 0.712000 -0.349000
v -0.005000 0.712000 -0.349000
v -0.005000 0.712000 -0.356000
v -0.394000 0.712000 -0.356000
v -0.339000 0.077000 -0.356000
v -0.339000 0.077000 -0.349000
v -0.339000 0.657000 -0.349000
v -0.339000 0.657000 -0.356000
v -0.060000 0.077000 -0.349000
v -0.060000 0.077000 -0.356000
v -0.060000 0.657000 -0.349000
v -0.060000 0.657000 -0.356000
v -0.038000 0.050000 -0.357000
v -0.038000 0.050000 -0.371000
v -0.022000 0.050000 -0.371000
v -0.022000 0.050000 -0.357000
v -0.038000 0.232000 -0.357000
v -0.022000 0.232000 -0.357000
v -0.022000 0.232000 -0.371000
v -0.038000 0.232000 -0.371000
v -0.038000 0.054000 -0.352000
v -0.038000 0.054000 -0.358000
v -0.022000 0.054000 -0.358000
v -0.022000 0.054000 -0.352000
v -0.038000 0.070000 -0.352000
v -0.022000 0.070000 -0.352000
v -0.022000 0.070000 -0.358000
v -0.038000 0.070000 -0.358000
v -0.038000 0.212000 -0.352000
v -0.038000 0.212000 -0.358000
v -0.022000 0.212000 -0.358000
v -0.022000 0.212000 -0.352000
v -0.038000 0.228000 -0.352000
v -0.022000 0.228000 -0.352000
v -0.022000 0.228000 -0.358000
v -0.038000 0.228000 -0.358000
v 0.005000 0.022000 -0.335000
v 0.005000 0.022000 -0.350000
v 0.394000 0.022000 -0.350000
v 0.394000 0.022000 -0.335000
v 0.005000 0.712000 -0.335000
v 0.394000 0.712000 -0.335000
v 0.394000 0.712000 -0.350000
v 0.005000 0.712000 -0.350000
v 0.005000 0.022000 -0.349000
v 0.005000 0.022000 -0.356000
v 0.394000 0.022000 -0.356000
v 0.394000 0.022000 -0.349000
v 0.005000 0.077000 -0.349000
v 0.394000 0.077000 -0.349000
v 0.394000 0.077000 -0.356000
v 0.005000 0.077000 -0.356000
v 0.005000 0.657000 -0.349000
v 0.005000 0.657000 -0.356000
v 0.394000 0.657000 -0.356000
v 0.394000 0.657000 -0.349000
v 0.005000 0.712000 -0.349000
v 0.394000 0.712000 -0.349000
v 0.394000 0.712000 -0.356000
v 0.005000 0.712000 -0.356000
v 0.060000 0.077000 -0.356000
v 0.060000 0.077000 -0.349000
v 0.060000 0.657000 -0.349000
v 0.060000 0.657000 -0.356000
v 0.339000 0.077000 -0.349000
v 0.339000 0.077000 -0.356000
v 0.339000 0.657000 -0.349000
v 0.339000 0.657000 -0.356000
v 0.022000 0.050000 -0.357000
v 0.022000 0.050000 -0.371000
v 0.038000 0.050000 -0.371000
v 0.038000 0.050000 -0.357000
v 0.022000 0.232000 -0.357000
v 0.038000 0.232000 -0.357000
v 0.038000 0.232000 -0.371000
v 0.022000 0.232000 -0.371000
v 0.022000 0.054000 -0.352000
v 0.022000 0.054000 -0.358000
v 0.038000 0.054000 -0.358000
v 0.038000 0.054000 -0.352000
v 0.022000 0.070000 -0.352000
v 0.038000 0.070000 -0.352000
v 0.038000 0.070000 -0.358000
v 0.022000 0.070000 -0.358000
v 0.022000 0.212000 -0.352000
v 0.022000 0.212000 -0.358000
v 0.038000 0.212000 -0.358000
v 0.038000 0.212000 -0.352000
v 0.022000 0.228000 -0.352000
v 0.038000 0.228000 -0.352000
v 0.038000 0.228000 -0.358000
v 0.022000 0.228000 -0.358000
vn -0.0000 -1.0000 -0.0000
vn -0.0000 1.0000 -0.0000
vn -0.0000 -0.0000 1.0000
vn -0.0000 -0.0000 -1.0000
vn -1.0000 -0.0000 -0.0000
vn 1.0000 -0.0000 -0.0000
vt 0.437500 0.812500
vt 0.687500 0.312500
vt 0.937500 0.312500
vt 0.812500 0.812500
vt 0.437500 0.312500
s 0
usemtl FN_Atlas
f 1/1/1 2/1/1 3/1/1 4/1/1
f 5/1/2 6/1/2 7/1/2 8/1/2
f 1/1/3 4/1/3 6/1/3 5/1/3
f 3/2/4 2/2/4 8/2/4 7/2/4
f 1/1/5 5/1/5 8/1/5 2/1/5
f 4/1/6 3/1/6 7/1/6 6/1/6
f 9/2/1 10/2/1 11/2/1 12/2/1
f 13/2/2 14/2/2 15/2/2 16/2/2
f 9/2/3 12/2/3 14/2/3 13/2/3
f 11/2/4 10/2/4 16/2/4 15/2/4
f 9/2/5 13/2/5 16/2/5 10/2/5
f 12/2/6 11/2/6 15/2/6 14/2/6
f 17/3/1 18/3/1 19/3/1 20/3/1
f 21/3/2 22/3/2 23/3/2 24/3/2
f 17/3/3 20/3/3 22/3/3 21/3/3
f 19/3/4 18/3/4 24/3/4 23/3/4
f 17/3/5 21/3/5 24/3/5 18/3/5
f 20/3/6 19/3/6 23/3/6 22/3/6
f 25/4/1 26/4/1 27/4/1 28/4/1
f 29/4/2 30/4/2 31/4/2 32/4/2
f 25/4/3 28/4/3 30/4/3 29/4/3
f 27/4/4 26/4/4 32/4/4 31/4/4
f 25/4/5 29/4/5 32/4/5 26/4/5
f 28/4/6 27/4/6 31/4/6 30/4/6
f 33/4/1 34/4/1 35/4/1 36/4/1
f 37/4/2 38/4/2 39/4/2 40/4/2
f 33/4/3 36/4/3 38/4/3 37/4/3
f 35/4/4 34/4/4 40/4/4 39/4/4
f 33/4/5 37/4/5 40/4/5 34/4/5
f 36/4/6 35/4/6 39/4/6 38/4/6
f 41/4/1 42/4/1 43/4/1 44/4/1
f 45/4/2 46/4/2 47/4/2 48/4/2
f 41/4/3 44/4/3 46/4/3 45/4/3
f 43/4/4 42/4/4 48/4/4 47/4/4
f 41/4/5 45/4/5 48/4/5 42/4/5
f 44/4/6 43/4/6 47/4/6 46/4/6
f 37/4/1 40/4/1 49/4/1 50/4/1
f 41/4/2 51/4/2 52/4/2 42/4/2
f 37/4/3 50/4/3 51/4/3 41/4/3
f 49/4/4 40/4/4 42/4/4 52/4/4
f 37/4/5 41/4/5 42/4/5 40/4/5
f 50/4/6 49/4/6 52/4/6 51/4/6
f 53/4/1 54/4/1 39/4/1 38/4/1
f 55/4/2 44/4/2 43/4/2 56/4/2
f 53/4/3 38/4/3 44/4/3 55/4/3
f 39/4/4 54/4/4 56/4/4 43/4/4
f 53/4/5 55/4/5 56/4/5 54/4/5
f 38/4/6 39/4/6 43/4/6 44/4/6
f 57/5/1 58/5/1 59/5/1 60/5/1
f 61/5/2 62/5/2 63/5/2 64/5/2
f 57/5/3 60/5/3 62/5/3 61/5/3
f 59/5/4 58/5/4 64/5/4 63/5/4
f 57/5/5 61/5/5 64/5/5 58/5/5
f 60/5/6 59/5/6 63/5/6 62/5/6
f 65/5/1 66/5/1 67/5/1 68/5/1
f 69/5/2 70/5/2 71/5/2 72/5/2
f 65/5/3 68/5/3 70/5/3 69/5/3
f 67/5/4 66/5/4 72/5/4 71/5/4
f 65/5/5 69/5/5 72/5/5 66/5/5
f 68/5/6 67/5/6 71/5/6 70/5/6
f 73/5/1 74/5/1 75/5/1 76/5/1
f 77/5/2 78/5/2 79/5/2 80/5/2
f 73/5/3 76/5/3 78/5/3 77/5/3
f 75/5/4 74/5/4 80/5/4 79/5/4
f 73/5/5 77/5/5 80/5/5 74/5/5
f 76/5/6 75/5/6 79/5/6 78/5/6
f 81/4/1 82/4/1 83/4/1 84/4/1
f 85/4/2 86/4/2 87/4/2 88/4/2
f 81/4/3 84/4/3 86/4/3 85/4/3
f 83/4/4 82/4/4 88/4/4 87/4/4
f 81/4/5 85/4/5 88/4/5 82/4/5
f 84/4/6 83/4/6 87/4/6 86/4/6
f 89/4/1 90/4/1 91/4/1 92/4/1
f 93/4/2 94/4/2 95/4/2 96/4/2
f 89/4/3 92/4/3 94/4/3 93/4/3
f 91/4/4 90/4/4 96/4/4 95/4/4
f 89/4/5 93/4/5 96/4/5 90/4/5
f 92/4/6 91/4/6 95/4/6 94/4/6
f 97/4/1 98/4/1 99/4/1 100/4/1
f 101/4/2 102/4/2 103/4/2 104/4/2
f 97/4/3 100/4/3 102/4/3 101/4/3
f 99/4/4 98/4/4 104/4/4 103/4/4
f 97/4/5 101/4/5 104/4/5 98/4/5
f 100/4/6 99/4/6 103/4/6 102/4/6
f 93/4/1 96/4/1 105/4/1 106/4/1
f 97/4/2 107/4/2 108/4/2 98/4/2
f 93/4/3 106/4/3 107/4/3 97/4/3
f 105/4/4 96/4/4 98/4/4 108/4/4
f 93/4/5 97/4/5 98/4/5 96/4/5
f 106/4/6 105/4/6 108/4/6 107/4/6
f 109/4/1 110/4/1 95/4/1 94/4/1
f 111/4/2 100/4/2 99/4/2 112/4/2
f 109/4/3 94/4/3 100/4/3 111/4/3
f 95/4/4 110/4/4 112/4/4 99/4/4
f 109/4/5 111/4/5 112/4/5 110/4/5
f 94/4/6 95/4/6 99/4/6 100/4/6
f 113/5/1 114/5/1 115/5/1 116/5/1
f 117/5/2 118/5/2 119/5/2 120/5/2
f 113/5/3 116/5/3 118/5/3 117/5/3
f 115/5/4 114/5/4 120/5/4 119/5/4
f 113/5/5 117/5/5 120/5/5 114/5/5
f 116/5/6 115/5/6 119/5/6 118/5/6
f 121/5/1 122/5/1 123/5/1 124/5/1
f 125/5/2 126/5/2 127/5/2 128/5/2
f 121/5/3 124/5/3 126/5/3 125/5/3
f 123/5/4 122/5/4 128/5/4 127/5/4
f 121/5/5 125/5/5 128/5/5 122/5/5
f 124/5/6 123/5/6 127/5/6 126/5/6
f 129/5/1 130/5/1 131/5/1 132/5/1
f 133/5/2 134/5/2 135/5/2 136/5/2
f 129/5/3 132/5/3 134/5/3 133/5/3
f 131/5/4 130/5/4 136/5/4 135/5/4
f 129/5/5 133/5/5 136/5/5 130/5/5
f 132/5/6 131/5/6 135/5/6 134/5/6
