# Blender 5.2.0 LTS
# www.blender.org
mtllib FN_Chair_Adirondack.mtl
o FN_Chair_Adirondack
v -0.332000 0.000000 0.352000
v -0.332000 0.000000 0.262000
v -0.332000 0.256000 0.262000
v -0.332000 0.114000 -0.188000
v -0.332000 0.000000 -0.188000
v -0.332000 0.000000 -0.278000
v -0.332000 0.180000 -0.278000
v -0.332000 0.380000 0.352000
v -0.304000 0.380000 0.352000
v -0.304000 0.180000 -0.278000
v -0.304000 0.000000 -0.278000
v -0.304000 0.000000 -0.188000
v -0.304000 0.114000 -0.188000
v -0.304000 0.256000 0.262000
v -0.304000 0.000000 0.262000
v -0.304000 0.000000 0.352000
v 0.304000 0.380000 0.352000
v 0.304000 0.180000 -0.278000
v 0.304000 0.000000 -0.278000
v 0.304000 0.000000 -0.188000
v 0.304000 0.114000 -0.188000
v 0.304000 0.256000 0.262000
v 0.304000 0.000000 0.262000
v 0.304000 0.000000 0.352000
v 0.332000 0.000000 0.352000
v 0.332000 0.000000 0.262000
v 0.332000 0.256000 0.262000
v 0.332000 0.114000 -0.188000
v 0.332000 0.000000 -0.188000
v 0.332000 0.000000 -0.278000
v 0.332000 0.180000 -0.278000
v 0.332000 0.380000 0.352000
v -0.329044 0.338730 0.203065
v 0.329044 0.338730 0.203065
v 0.329044 0.338730 0.291335
v -0.329044 0.338730 0.291335
v 0.334000 0.343730 0.292000
v -0.334000 0.343730 0.292000
v 0.334000 0.343730 0.202400
v -0.334000 0.343730 0.202400
v 0.334000 0.361730 0.292000
v -0.334000 0.361730 0.292000
v 0.334000 0.361730 0.202400
v -0.334000 0.361730 0.202400
v -0.329044 0.366730 0.291335
v 0.329044 0.366730 0.291335
v 0.329044 0.366730 0.203065
v -0.329044 0.366730 0.203065
v -0.329044 0.303937 0.093465
v 0.329044 0.303937 0.093465
v 0.329044 0.303937 0.181735
v -0.329044 0.303937 0.181735
v 0.334000 0.308937 0.182400
v -0.334000 0.308937 0.182400
v 0.334000 0.308937 0.092800
v -0.334000 0.308937 0.092800
v 0.334000 0.326937 0.182400
v -0.334000 0.326937 0.182400
v 0.334000 0.326937 0.092800
v -0.334000 0.326937 0.092800
v -0.329044 0.331937 0.181735
v 0.329044 0.331937 0.181735
v 0.329044 0.331937 0.093465
v -0.329044 0.331937 0.093465
v -0.329044 0.269143 -0.016135
v 0.329044 0.269143 -0.016135
v 0.329044 0.269143 0.072135
v -0.329044 0.269143 0.072135
v 0.334000 0.274143 0.072800
v -0.334000 0.274143 0.072800
v 0.334000 0.274143 -0.016800
v -0.334000 0.274143 -0.016800
v 0.334000 0.292143 0.072800
v -0.334000 0.292143 0.072800
v 0.334000 0.292143 -0.016800
v -0.334000 0.292143 -0.016800
v -0.329044 0.297143 0.072135
v 0.329044 0.297143 0.072135
v 0.329044 0.297143 -0.016135
v -0.329044 0.297143 -0.016135
v -0.329044 0.234349 -0.125735
v 0.329044 0.234349 -0.125735
v 0.329044 0.234349 -0.037465
v -0.329044 0.234349 -0.037465
v 0.334000 0.239349 -0.036800
v -0.334000 0.239349 -0.036800
v 0.334000 0.239349 -0.126400
v -0.334000 0.239349 -0.126400
v 0.334000 0.257349 -0.036800
v -0.334000 0.257349 -0.036800
v 0.334000 0.257349 -0.126400
v -0.334000 0.257349 -0.126400
v -0.329044 0.262349 -0.037465
v 0.329044 0.262349 -0.037465
v 0.329044 0.262349 -0.125735
v -0.329044 0.262349 -0.125735
v -0.329044 0.199556 -0.235335
v 0.329044 0.199556 -0.235335
v 0.329044 0.199556 -0.147065
v -0.329044 0.199556 -0.147065
v 0.334000 0.204556 -0.146400
v -0.334000 0.204556 -0.146400
v 0.334000 0.204556 -0.236000
v -0.334000 0.204556 -0.236000
v 0.334000 0.222556 -0.146400
v -0.334000 0.222556 -0.146400
v 0.334000 0.222556 -0.236000
v -0.334000 0.222556 -0.236000
v -0.329044 0.227556 -0.147065
v 0.329044 0.227556 -0.147065
v 0.329044 0.227556 -0.235335
v -0.329044 0.227556 -0.235335
v -0.299000 0.150000 -0.268000
v -0.229000 0.150000 -0.268000
v -0.229000 0.150000 -0.224000
v -0.299000 0.150000 -0.224000
v -0.299000 0.760000 -0.314191
v -0.229000 0.760000 -0.314191
v -0.229000 0.760000 -0.358191
v -0.299000 0.760000 -0.358191
v -0.211000 0.150000 -0.268000
v -0.141000 0.150000 -0.268000
v -0.141000 0.150000 -0.224000
v -0.211000 0.150000 -0.224000
v -0.211000 0.850000 -0.327949
v -0.141000 0.850000 -0.327949
v -0.141000 0.850000 -0.371949
v -0.211000 0.850000 -0.371949
v -0.123000 0.150000 -0.268000
v -0.053000 0.150000 -0.268000
v -0.053000 0.150000 -0.224000
v -0.123000 0.150000 -0.224000
v -0.123000 0.920000 -0.338650
v -0.053000 0.920000 -0.338650
v -0.053000 0.920000 -0.382650
v -0.123000 0.920000 -0.382650
v -0.035000 0.150000 -0.268000
v 0.035000 0.150000 -0.268000
v 0.035000 0.150000 -0.224000
v -0.035000 0.150000 -0.224000
v -0.035000 0.955000 -0.344000
v 0.035000 0.955000 -0.344000
v 0.035000 0.955000 -0.388000
v -0.035000 0.955000 -0.388000
v 0.053000 0.150000 -0.268000
v 0.123000 0.150000 -0.268000
v 0.123000 0.150000 -0.224000
v 0.053000 0.150000 -0.224000
v 0.053000 0.920000 -0.338650
v 0.123000 0.920000 -0.338650
v 0.123000 0.920000 -0.382650
v 0.053000 0.920000 -0.382650
v 0.141000 0.150000 -0.268000
v 0.211000 0.150000 -0.268000
v 0.211000 0.150000 -0.224000
v 0.141000 0.150000 -0.224000
v 0.141000 0.850000 -0.327949
v 0.211000 0.850000 -0.327949
v 0.211000 0.850000 -0.371949
v 0.141000 0.850000 -0.371949
v 0.229000 0.150000 -0.268000
v 0.299000 0.150000 -0.268000
v 0.299000 0.150000 -0.224000
v 0.229000 0.150000 -0.224000
v 0.229000 0.760000 -0.314191
v 0.299000 0.760000 -0.314191
v 0.299000 0.760000 -0.358191
v 0.229000 0.760000 -0.358191
v -0.312000 0.368000 -0.299159
v -0.312000 0.368000 -0.331159
v 0.312000 0.368000 -0.331159
v 0.312000 0.368000 -0.299159
v -0.312000 0.432000 -0.299159
v 0.312000 0.432000 -0.299159
v 0.312000 0.432000 -0.331159
v -0.312000 0.432000 -0.331159
v -0.312000 0.688000 -0.348076
v -0.312000 0.688000 -0.380076
v 0.312000 0.688000 -0.380076
v 0.312000 0.688000 -0.348076
v -0.312000 0.752000 -0.348076
v 0.312000 0.752000 -0.348076
v 0.312000 0.752000 -0.380076
v -0.312000 0.752000 -0.380076
v -0.344000 0.339841 0.350000
v -0.344000 0.339841 0.290000
v -0.292000 0.339841 0.290000
v -0.292000 0.339841 0.350000
v -0.344000 0.610000 0.350000
v -0.292000 0.610000 0.350000
v -0.292000 0.610000 0.290000
v -0.344000 0.610000 0.290000
v -0.359121 0.600000 -0.335078
v -0.230879 0.600000 -0.335078
v -0.230879 0.600000 0.383078
v -0.359121 0.600000 0.383078
v -0.230000 0.605000 0.388000
v -0.360000 0.605000 0.388000
v -0.230000 0.605000 -0.340000
v -0.360000 0.605000 -0.340000
v -0.230000 0.621000 0.388000
v -0.360000 0.621000 0.388000
v -0.230000 0.621000 -0.340000
v -0.360000 0.621000 -0.340000
v -0.359121 0.626000 0.383078
v -0.230879 0.626000 0.383078
v -0.230879 0.626000 -0.335078
v -0.359121 0.626000 -0.335078
v 0.292000 0.339841 0.350000
v 0.292000 0.339841 0.290000
v 0.344000 0.339841 0.290000
v 0.344000 0.339841 0.350000
v 0.292000 0.610000 0.350000
v 0.344000 0.610000 0.350000
v 0.344000 0.610000 0.290000
v 0.292000 0.610000 0.290000
v 0.230879 0.600000 -0.335078
v 0.359121 0.600000 -0.335078
v 0.359121 0.600000 0.383078
v 0.230879 0.600000 0.383078
v 0.360000 0.605000 0.388000
v 0.230000 0.605000 0.388000
v 0.360000 0.605000 -0.340000
v 0.230000 0.605000 -0.340000
v 0.360000 0.621000 0.388000
v 0.230000 0.621000 0.388000
v 0.360000 0.621000 -0.340000
v 0.230000 0.621000 -0.340000
v 0.230879 0.626000 0.383078
v 0.359121 0.626000 0.383078
v 0.359121 0.626000 -0.335078
v 0.230879 0.626000 -0.335078
vn 1.0000 -0.0000 -0.0000
vn -1.0000 -0.0000 -0.0000
vn -0.0000 -0.9531 0.3026
vn -0.0000 -0.0000 1.0000
vn -0.0000 1.0000 -0.0000
vn -0.0000 -0.0000 -1.0000
vn -0.0000 0.9536 -0.3009
vn -0.0000 -1.0000 -0.0000
vn -0.0000 -0.9536 0.3009
vn -0.0000 0.9531 -0.3026
vn -0.0000 -0.1318 0.9913
vn 0.7103 -0.7039 -0.0000
vn -0.0000 -0.1318 -0.9913
vn -0.7103 -0.7039 -0.0000
vn -0.0000 0.1318 0.9913
vn 0.7102 0.7040 -0.0000
vn -0.0000 0.1318 -0.9913
vn -0.7102 0.7040 -0.0000
vn 0.7103 0.7039 -0.0000
vn -0.7103 0.7039 -0.0000
vn -0.0000 0.1463 0.9892
vn -0.0000 -0.1463 -0.9892
vn -0.0000 0.1469 0.9892
vn -0.0000 -0.1469 -0.9892
vn -0.0000 0.1473 0.9891
vn -0.0000 -0.1473 -0.9891
vn -0.0000 0.1474 0.9891
vn -0.0000 -0.1474 -0.9891
vn -0.0000 -0.7015 0.7126
vn 0.9849 -0.1731 -0.0000
vn -0.0000 -0.7015 -0.7126
vn -0.9849 -0.1731 -0.0000
vn -0.0000 0.7015 0.7126
vn 0.9849 0.1731 -0.0000
vn -0.0000 0.7015 -0.7126
vn -0.9849 0.1731 -0.0000
vt 0.562500 0.562500
vt 0.812500 0.937500
vt 0.312500 0.937500
s 0
usemtl FN_Atlas
f 1/1/1 2/1/1 3/1/1 4/1/1 5/1/1 6/1/1 7/1/1 8/1/1
f 9/1/2 10/1/2 11/1/2 12/1/2 13/1/2 14/1/2 15/1/2 16/1/2
f 8/1/3 7/1/3 10/1/3 9/1/3
f 7/1/4 6/1/4 11/1/4 10/1/4
f 6/1/5 5/1/5 12/1/5 11/1/5
f 5/1/6 4/1/6 13/1/6 12/1/6
f 4/1/7 3/1/7 14/1/7 13/1/7
f 3/1/4 2/1/4 15/1/4 14/1/4
f 2/1/5 1/1/5 16/1/5 15/1/5
f 1/1/6 8/1/6 9/1/6 16/1/6
f 17/1/2 18/1/2 19/1/2 20/1/2 21/1/2 22/1/2 23/1/2 24/1/2
f 25/1/1 26/1/1 27/1/1 28/1/1 29/1/1 30/1/1 31/1/1 32/1/1
f 24/1/8 23/1/8 26/1/8 25/1/8
f 23/1/6 22/1/6 27/1/6 26/1/6
f 22/1/9 21/1/9 28/1/9 27/1/9
f 21/1/4 20/1/4 29/1/4 28/1/4
f 20/1/8 19/1/8 30/1/8 29/1/8
f 19/1/6 18/1/6 31/1/6 30/1/6
f 18/1/10 17/1/10 32/1/10 31/1/10
f 17/1/4 24/1/4 25/1/4 32/1/4
f 33/2/8 34/2/8 35/2/8 36/2/8
f 36/2/11 35/2/11 37/2/11 38/2/11
f 35/2/12 34/2/12 39/2/12 37/2/12
f 34/2/13 33/2/13 40/2/13 39/2/13
f 33/2/14 36/2/14 38/2/14 40/2/14
f 38/2/4 37/2/4 41/2/4 42/2/4
f 37/2/1 39/2/1 43/2/1 41/2/1
f 39/2/6 40/2/6 44/2/6 43/2/6
f 40/2/2 38/2/2 42/2/2 44/2/2
f 45/3/5 46/3/5 47/3/5 48/3/5
f 42/2/15 41/2/15 46/2/15 45/2/15
f 41/2/16 43/2/16 47/2/16 46/2/16
f 43/2/17 44/2/17 48/2/17 47/2/17
f 44/2/18 42/2/18 45/2/18 48/2/18
f 49/2/8 50/2/8 51/2/8 52/2/8
f 52/2/11 51/2/11 53/2/11 54/2/11
f 51/2/12 50/2/12 55/2/12 53/2/12
f 50/2/13 49/2/13 56/2/13 55/2/13
f 49/2/14 52/2/14 54/2/14 56/2/14
f 54/2/4 53/2/4 57/2/4 58/2/4
f 53/2/1 55/2/1 59/2/1 57/2/1
f 55/2/6 56/2/6 60/2/6 59/2/6
f 56/2/2 54/2/2 58/2/2 60/2/2
f 61/3/5 62/3/5 63/3/5 64/3/5
f 58/2/15 57/2/15 62/2/15 61/2/15
f 57/2/19 59/2/19 63/2/19 62/2/19
f 59/2/17 60/2/17 64/2/17 63/2/17
f 60/2/20 58/2/20 61/2/20 64/2/20
f 65/2/8 66/2/8 67/2/8 68/2/8
f 68/2/11 67/2/11 69/2/11 70/2/11
f 67/2/12 66/2/12 71/2/12 69/2/12
f 66/2/13 65/2/13 72/2/13 71/2/13
f 65/2/14 68/2/14 70/2/14 72/2/14
f 70/2/4 69/2/4 73/2/4 74/2/4
f 69/2/1 71/2/1 75/2/1 73/2/1
f 71/2/6 72/2/6 76/2/6 75/2/6
f 72/2/2 70/2/2 74/2/2 76/2/2
f 77/3/5 78/3/5 79/3/5 80/3/5
f 74/2/15 73/2/15 78/2/15 77/2/15
f 73/2/19 75/2/19 79/2/19 78/2/19
f 75/2/17 76/2/17 80/2/17 79/2/17
f 76/2/20 74/2/20 77/2/20 80/2/20
f 81/2/8 82/2/8 83/2/8 84/2/8
f 84/2/11 83/2/11 85/2/11 86/2/11
f 83/2/12 82/2/12 87/2/12 85/2/12
f 82/2/13 81/2/13 88/2/13 87/2/13
f 81/2/14 84/2/14 86/2/14 88/2/14
f 86/2/4 85/2/4 89/2/4 90/2/4
f 85/2/1 87/2/1 91/2/1 89/2/1
f 87/2/6 88/2/6 92/2/6 91/2/6
f 88/2/2 86/2/2 90/2/2 92/2/2
f 93/3/5 94/3/5 95/3/5 96/3/5
f 90/2/15 89/2/15 94/2/15 93/2/15
f 89/2/19 91/2/19 95/2/19 94/2/19
f 91/2/17 92/2/17 96/2/17 95/2/17
f 92/2/20 90/2/20 93/2/20 96/2/20
f 97/2/8 98/2/8 99/2/8 100/2/8
f 100/2/11 99/2/11 101/2/11 102/2/11
f 99/2/12 98/2/12 103/2/12 101/2/12
f 98/2/13 97/2/13 104/2/13 103/2/13
f 97/2/14 100/2/14 102/2/14 104/2/14
f 102/2/4 101/2/4 105/2/4 106/2/4
f 101/2/1 103/2/1 107/2/1 105/2/1
f 103/2/6 104/2/6 108/2/6 107/2/6
f 104/2/2 102/2/2 106/2/2 108/2/2
f 109/3/5 110/3/5 111/3/5 112/3/5
f 106/2/15 105/2/15 110/2/15 109/2/15
f 105/2/19 107/2/19 111/2/19 110/2/19
f 107/2/17 108/2/17 112/2/17 111/2/17
f 108/2/20 106/2/20 109/2/20 112/2/20
f 113/3/8 114/3/8 115/3/8 116/3/8
f 117/3/5 118/3/5 119/3/5 120/3/5
f 116/3/21 115/3/21 118/3/21 117/3/21
f 115/3/1 114/3/1 119/3/1 118/3/1
f 114/3/22 113/3/22 120/3/22 119/3/22
f 113/3/2 116/3/2 117/3/2 120/3/2
f 121/3/8 122/3/8 123/3/8 124/3/8
f 125/3/5 126/3/5 127/3/5 128/3/5
f 124/3/23 123/3/23 126/3/23 125/3/23
f 123/3/1 122/3/1 127/3/1 126/3/1
f 122/3/24 121/3/24 128/3/24 127/3/24
f 121/3/2 124/3/2 125/3/2 128/3/2
f 129/3/8 130/3/8 131/3/8 132/3/8
f 133/3/5 134/3/5 135/3/5 136/3/5
f 132/3/25 131/3/25 134/3/25 133/3/25
f 131/3/1 130/3/1 135/3/1 134/3/1
f 130/3/26 129/3/26 136/3/26 135/3/26
f 129/3/2 132/3/2 133/3/2 136/3/2
f 137/3/8 138/3/8 139/3/8 140/3/8
f 141/3/5 142/3/5 143/3/5 144/3/5
f 140/3/27 139/3/27 142/3/27 141/3/27
f 139/3/1 138/3/1 143/3/1 142/3/1
f 138/3/28 137/3/28 144/3/28 143/3/28
f 137/3/2 140/3/2 141/3/2 144/3/2
f 145/3/8 146/3/8 147/3/8 148/3/8
f 149/3/5 150/3/5 151/3/5 152/3/5
f 148/3/25 147/3/25 150/3/25 149/3/25
f 147/3/1 146/3/1 151/3/1 150/3/1
f 146/3/26 145/3/26 152/3/26 151/3/26
f 145/3/2 148/3/2 149/3/2 152/3/2
f 153/3/8 154/3/8 155/3/8 156/3/8
f 157/3/5 158/3/5 159/3/5 160/3/5
f 156/3/23 155/3/23 158/3/23 157/3/23
f 155/3/1 154/3/1 159/3/1 158/3/1
f 154/3/24 153/3/24 160/3/24 159/3/24
f 153/3/2 156/3/2 157/3/2 160/3/2
f 161/3/8 162/3/8 163/3/8 164/3/8
f 165/3/5 166/3/5 167/3/5 168/3/5
f 164/3/21 163/3/21 166/3/21 165/3/21
f 163/3/1 162/3/1 167/3/1 166/3/1
f 162/3/22 161/3/22 168/3/22 167/3/22
f 161/3/2 164/3/2 165/3/2 168/3/2
f 169/1/8 170/1/8 171/1/8 172/1/8
f 173/1/5 174/1/5 175/1/5 176/1/5
f 169/1/4 172/1/4 174/1/4 173/1/4
f 171/1/6 170/1/6 176/1/6 175/1/6
f 169/1/2 173/1/2 176/1/2 170/1/2
f 172/1/1 171/1/1 175/1/1 174/1/1
f 177/1/8 178/1/8 179/1/8 180/1/8
f 181/1/5 182/1/5 183/1/5 184/1/5
f 177/1/4 180/1/4 182/1/4 181/1/4
f 179/1/6 178/1/6 184/1/6 183/1/6
f 177/1/2 181/1/2 184/1/2 178/1/2
f 180/1/1 179/1/1 183/1/1 182/1/1
f 185/1/8 186/1/8 187/1/8 188/1/8
f 189/1/5 190/1/5 191/1/5 192/1/5
f 185/1/4 188/1/4 190/1/4 189/1/4
f 187/1/6 186/1/6 192/1/6 191/1/6
f 185/1/2 189/1/2 192/1/2 186/1/2
f 188/1/1 187/1/1 191/1/1 190/1/1
f 193/2/8 194/2/8 195/2/8 196/2/8
f 196/2/29 195/2/29 197/2/29 198/2/29
f 195/2/30 194/2/30 199/2/30 197/2/30
f 194/2/31 193/2/31 200/2/31 199/2/31
f 193/2/32 196/2/32 198/2/32 200/2/32
f 198/2/4 197/2/4 201/2/4 202/2/4
f 197/2/1 199/2/1 203/2/1 201/2/1
f 199/2/6 200/2/6 204/2/6 203/2/6
f 200/2/2 198/2/2 202/2/2 204/2/2
f 205/3/5 206/3/5 207/3/5 208/3/5
f 202/2/33 201/2/33 206/2/33 205/2/33
f 201/2/34 203/2/34 207/2/34 206/2/34
f 203/2/35 204/2/35 208/2/35 207/2/35
f 204/2/36 202/2/36 205/2/36 208/2/36
f 209/1/8 210/1/8 211/1/8 212/1/8
f 213/1/5 214/1/5 215/1/5 216/1/5
f 209/1/4 212/1/4 214/1/4 213/1/4
f 211/1/6 210/1/6 216/1/6 215/1/6
f 209/1/2 213/1/2 216/1/2 210/1/2
f 212/1/1 211/1/1 215/1/1 214/1/1
f 217/2/8 218/2/8 219/2/8 220/2/8
f 220/2/29 219/2/29 221/2/29 222/2/29
f 219/2/30 218/2/30 223/2/30 221/2/30
f 218/2/31 217/2/31 224/2/31 223/2/31
f 217/2/32 220/2/32 222/2/32 224/2/32
f 222/2/4 221/2/4 225/2/4 226/2/4
f 221/2/1 223/2/1 227/2/1 225/2/1
f 223/2/6 224/2/6 228/2/6 227/2/6
f 224/2/2 222/2/2 226/2/2 228/2/2
f 229/3/5 230/3/5 231/3/5 232/3/5
f 226/2/33 225/2/33 230/2/33 229/2/33
f 225/2/34 227/2/34 231/2/34 230/2/34
f 227/2/35 228/2/35 232/2/35 231/2/35
f 228/2/36 226/2/36 229/2/36 232/2/36
