# Blender 5.2.0 LTS
# www.blender.org
mtllib FN_Cabinet_Shoe.mtl
o FN_Cabinet_Shoe
v -0.420000 0.000000 0.105000
v -0.420000 0.000000 -0.145000
v 0.420000 0.000000 -0.145000
v 0.420000 0.000000 0.105000
v -0.420000 0.060000 0.105000
v 0.420000 0.060000 0.105000
v 0.420000 0.060000 -0.145000
v -0.420000 0.060000 -0.145000
v -0.450000 0.060000 0.135000
v -0.450000 0.060000 -0.145000
v -0.432000 0.060000 -0.145000
v -0.432000 0.060000 0.135000
v -0.450000 0.900000 0.135000
v -0.432000 0.900000 0.135000
v -0.432000 0.900000 -0.145000
v -0.450000 0.900000 -0.145000
v 0.432000 0.060000 0.135000
v 0.432000 0.060000 -0.145000
v 0.450000 0.060000 -0.145000
v 0.450000 0.060000 0.135000
v 0.432000 0.900000 0.135000
v 0.450000 0.900000 0.135000
v 0.450000 0.900000 -0.145000
v 0.432000 0.900000 -0.145000
v -0.432000 0.060000 -0.129000
v 0.432000 0.060000 -0.129000
v -0.432000 0.900000 -0.129000
v 0.432000 0.900000 -0.129000
v -0.432000 0.078000 0.135000
v 0.432000 0.078000 0.135000
v 0.432000 0.078000 -0.145000
v -0.432000 0.078000 -0.145000
v -0.444289 0.870000 -0.143160
v 0.444289 0.870000 -0.143160
v 0.444289 0.870000 0.143160
v -0.444289 0.870000 0.143160
v 0.450000 0.876000 0.145000
v -0.450000 0.876000 0.145000
v 0.450000 0.876000 -0.145000
v -0.450000 0.876000 -0.145000
v 0.450000 0.894000 0.145000
v -0.450000 0.894000 0.145000
v 0.450000 0.894000 -0.145000
v -0.450000 0.894000 -0.145000
v -0.444289 0.900000 0.143160
v 0.444289 0.900000 0.143160
v 0.444289 0.900000 -0.143160
v -0.444289 0.900000 -0.143160
v -0.432000 0.140000 -0.133000
v 0.432000 0.140000 -0.133000
v 0.432000 0.140000 -0.097000
v -0.432000 0.140000 -0.097000
v -0.432000 0.235000 0.131000
v 0.432000 0.235000 0.131000
v 0.432000 0.235000 0.095000
v -0.432000 0.235000 0.095000
v -0.432000 0.235000 0.129000
v -0.432000 0.235000 0.101000
v 0.432000 0.235000 0.101000
v 0.432000 0.235000 0.129000
v -0.432000 0.259000 0.129000
v 0.432000 0.259000 0.129000
v 0.432000 0.259000 0.101000
v -0.432000 0.259000 0.101000
v -0.432000 0.400000 -0.133000
v 0.432000 0.400000 -0.133000
v 0.432000 0.400000 -0.097000
v -0.432000 0.400000 -0.097000
v -0.432000 0.495000 0.131000
v 0.432000 0.495000 0.131000
v 0.432000 0.495000 0.095000
v -0.432000 0.495000 0.095000
v -0.432000 0.495000 0.129000
v -0.432000 0.495000 0.101000
v 0.432000 0.495000 0.101000
v 0.432000 0.495000 0.129000
v -0.432000 0.519000 0.129000
v 0.432000 0.519000 0.129000
v 0.432000 0.519000 0.101000
v -0.432000 0.519000 0.101000
v -0.432000 0.660000 -0.133000
v 0.432000 0.660000 -0.133000
v 0.432000 0.660000 -0.097000
v -0.432000 0.660000 -0.097000
v -0.432000 0.755000 0.131000
v 0.432000 0.755000 0.131000
v 0.432000 0.755000 0.095000
v -0.432000 0.755000 0.095000
v -0.432000 0.755000 0.129000
v -0.432000 0.755000 0.101000
v 0.432000 0.755000 0.101000
v 0.432000 0.755000 0.129000
v -0.432000 0.779000 0.129000
v 0.432000 0.779000 0.129000
v 0.432000 0.779000 0.101000
v -0.432000 0.779000 0.101000
vn -0.0000 -1.0000 -0.0000
vn -0.0000 1.0000 -0.0000
vn -0.0000 -0.0000 1.0000
vn -0.0000 -0.0000 -1.0000
vn -1.0000 -0.0000 -0.0000
vn 1.0000 -0.0000 -0.0000
vn -0.0000 -0.2932 0.9560
vn 0.7243 -0.6894 -0.0000
vn -0.0000 -0.2932 -0.9560
vn -0.7243 -0.6894 -0.0000
vn -0.0000 0.2932 0.9560
vn 0.7243 0.6894 -0.0000
vn -0.0000 0.2932 -0.9560
vn -0.7243 0.6894 -0.0000
vn -0.0000 -0.9231 0.3846
vn -0.0000 0.9231 -0.3846
vt 0.687500 0.312500
vt 0.437500 0.812500
vt 0.937500 0.687500
vt 0.562500 0.937500
vt 0.312500 0.937500
s 0
usemtl FN_Atlas
f 1/1/1 2/1/1 3/1/1 4/1/1
f 5/1/2 6/1/2 7/1/2 8/1/2
f 1/1/3 4/1/3 6/1/3 5/1/3
f 3/1/4 2/1/4 8/1/4 7/1/4
f 1/1/5 5/1/5 8/1/5 2/1/5
f 4/1/6 3/1/6 7/1/6 6/1/6
f 9/2/1 10/2/1 11/2/1 12/2/1
f 13/2/2 14/2/2 15/2/2 16/2/2
f 9/2/3 12/2/3 14/2/3 13/2/3
f 11/2/4 10/2/4 16/2/4 15/2/4
f 9/2/5 13/2/5 16/2/5 10/2/5
f 12/2/6 11/2/6 15/2/6 14/2/6
f 17/2/1 18/2/1 19/2/1 20/2/1
f 21/2/2 22/2/2 23/2/2 24/2/2
f 17/2/3 20/2/3 22/2/3 21/2/3
f 19/2/4 18/2/4 24/2/4 23/2/4
f 17/2/5 21/2/5 24/2/5 18/2/5
f 20/2/6 19/2/6 23/2/6 22/2/6
f 25/3/1 11/3/1 18/3/1 26/3/1
f 27/3/2 28/3/2 24/3/2 15/3/2
f 25/3/3 26/3/3 28/3/3 27/3/3
f 18/3/4 11/3/4 15/3/4 24/3/4
f 25/3/5 27/3/5 15/3/5 11/3/5
f 26/3/6 18/3/6 24/3/6 28/3/6
f 12/2/1 11/2/1 18/2/1 17/2/1
f 29/2/2 30/2/2 31/2/2 32/2/2
f 12/2/3 17/2/3 30/2/3 29/2/3
f 18/2/4 11/2/4 32/2/4 31/2/4
f 12/2/5 29/2/5 32/2/5 11/2/5
f 17/2/6 18/2/6 31/2/6 30/2/6
f 33/4/1 34/4/1 35/4/1 36/4/1
f 36/4/7 35/4/7 37/4/7 38/4/7
f 35/4/8 34/4/8 39/4/8 37/4/8
f 34/4/9 33/4/9 40/4/9 39/4/9
f 33/4/10 36/4/10 38/4/10 40/4/10
f 38/4/3 37/4/3 41/4/3 42/4/3
f 37/4/6 39/4/6 43/4/6 41/4/6
f 39/4/4 40/4/4 44/4/4 43/4/4
f 40/4/5 38/4/5 42/4/5 44/4/5
f 45/2/2 46/2/2 47/2/2 48/2/2
f 42/4/11 41/4/11 46/4/11 45/4/11
f 41/4/12 43/4/12 47/4/12 46/4/12
f 43/4/13 44/4/13 48/4/13 47/4/13
f 44/4/14 42/4/14 45/4/14 48/4/14
f 49/5/1 50/5/1 51/5/1 52/5/1
f 53/5/2 54/5/2 55/5/2 56/5/2
f 52/5/15 51/5/15 54/5/15 53/5/15
f 51/5/6 50/5/6 55/5/6 54/5/6
f 50/5/16 49/5/16 56/5/16 55/5/16
f 49/5/5 52/5/5 53/5/5 56/5/5
f 57/5/1 58/5/1 59/5/1 60/5/1
f 61/5/2 62/5/2 63/5/2 64/5/2
f 57/4/3 60/4/3 62/4/3 61/4/3
f 59/5/4 58/5/4 64/5/4 63/5/4
f 57/5/5 61/5/5 64/5/5 58/5/5
f 60/5/6 59/5/6 63/5/6 62/5/6
f 65/5/1 66/5/1 67/5/1 68/5/1
f 69/5/2 70/5/2 71/5/2 72/5/2
f 68/5/15 67/5/15 70/5/15 69/5/15
f 67/5/6 66/5/6 71/5/6 70/5/6
f 66/5/16 65/5/16 72/5/16 71/5/16
f 65/5/5 68/5/5 69/5/5 72/5/5
f 73/5/1 74/5/1 75/5/1 76/5/1
f 77/5/2 78/5/2 79/5/2 80/5/2
f 73/4/3 76/4/3 78/4/3 77/4/3
f 75/5/4 74/5/4 80/5/4 79/5/4
f 73/5/5 77/5/5 80/5/5 74/5/5
f 76/5/6 75/5/6 79/5/6 78/5/6
f 81/5/1 82/5/1 83/5/1 84/5/1
f 85/5/2 86/5/2 87/5/2 88/5/2
f 84/5/15 83/5/15 86/5/15 85/5/15
f 83/5/6 82/5/6 87/5/6 86/5/6
f 82/5/16 81/5/16 88/5/16 87/5/16
f 81/5/5 84/5/5 85/5/5 88/5/5
f 89/5/1 90/5/1 91/5/1 92/5/1
f 93/5/2 94/5/2 95/5/2 96/5/2
f 89/4/3 92/4/3 94/4/3 93/4/3
f 91/5/4 90/5/4 96/5/4 95/5/4
f 89/5/5 93/5/5 96/5/5 90/5/5
f 92/5/6 91/5/6 95/5/6 94/5/6
