# Blender 5.2.0 LTS
# www.blender.org
mtllib FN_Desk_School.mtl
o FN_Desk_School
v -0.317314 0.012000 0.186686
v -0.306000 0.012000 0.182000
v -0.294686 0.012000 0.186686
v -0.290000 0.012000 0.198000
v -0.294686 0.012000 0.209314
v -0.306000 0.012000 0.214000
v -0.317314 0.012000 0.209314
v -0.322000 0.012000 0.198000
v -0.322000 0.012000 -0.198000
v -0.317314 0.012000 -0.209314
v -0.306000 0.012000 -0.214000
v -0.294686 0.012000 -0.209314
v -0.290000 0.012000 -0.198000
v -0.294686 0.012000 -0.186686
v -0.306000 0.012000 -0.182000
v -0.317314 0.012000 -0.186686
v -0.317314 0.592572 0.209299
v -0.322000 0.592000 0.198000
v -0.306000 0.592809 0.213980
v -0.294686 0.592572 0.209299
v -0.290000 0.592000 0.198000
v -0.294686 0.591428 0.186701
v -0.306000 0.591191 0.182020
v -0.317314 0.591428 0.186701
v -0.317314 0.655200 0.167600
v -0.322000 0.644000 0.166000
v -0.306000 0.659839 0.168263
v -0.294686 0.655200 0.167600
v -0.290000 0.644000 0.166000
v -0.294686 0.632800 0.164400
v -0.306000 0.628161 0.163737
v -0.317314 0.632800 0.164400
v -0.317314 0.655200 -0.167600
v -0.322000 0.644000 -0.166000
v -0.306000 0.659839 -0.168263
v -0.294686 0.655200 -0.167600
v -0.290000 0.644000 -0.166000
v -0.294686 0.632800 -0.164400
v -0.306000 0.628161 -0.163737
v -0.317314 0.632800 -0.164400
v -0.317314 0.592572 -0.209299
v -0.322000 0.592000 -0.198000
v -0.306000 0.592809 -0.213980
v -0.294686 0.592572 -0.209299
v -0.290000 0.592000 -0.198000
v -0.294686 0.591428 -0.186701
v -0.306000 0.591191 -0.182020
v -0.317314 0.591428 -0.186701
v -0.297500 0.000000 0.212722
v -0.314500 0.000000 0.212722
v -0.323000 0.000000 0.198000
v -0.314500 0.000000 0.183278
v -0.297500 0.000000 0.183278
v -0.289000 0.000000 0.198000
v -0.291720 0.012000 0.198000
v -0.298860 0.012000 0.185633
v -0.313140 0.012000 0.185633
v -0.320280 0.012000 0.198000
v -0.313140 0.012000 0.210367
v -0.298860 0.012000 0.210367
v -0.297500 0.006600 0.183278
v -0.289000 0.006600 0.198000
v -0.314500 0.006600 0.183278
v -0.323000 0.006600 0.198000
v -0.314500 0.006600 0.212722
v -0.297500 0.006600 0.212722
v -0.297500 0.000000 -0.183278
v -0.314500 0.000000 -0.183278
v -0.323000 0.000000 -0.198000
v -0.314500 0.000000 -0.212722
v -0.297500 0.000000 -0.212722
v -0.289000 0.000000 -0.198000
v -0.291720 0.012000 -0.198000
v -0.298860 0.012000 -0.210367
v -0.313140 0.012000 -0.210367
v -0.320280 0.012000 -0.198000
v -0.313140 0.012000 -0.185633
v -0.298860 0.012000 -0.185633
v -0.297500 0.006600 -0.212722
v -0.289000 0.006600 -0.198000
v -0.314500 0.006600 -0.212722
v -0.323000 0.006600 -0.198000
v -0.314500 0.006600 -0.183278
v -0.297500 0.006600 -0.183278
v 0.294686 0.012000 0.186686
v 0.306000 0.012000 0.182000
v 0.317314 0.012000 0.186686
v 0.322000 0.012000 0.198000
v 0.317314 0.012000 0.209314
v 0.306000 0.012000 0.214000
v 0.294686 0.012000 0.209314
v 0.290000 0.012000 0.198000
v 0.290000 0.012000 -0.198000
v 0.294686 0.012000 -0.209314
v 0.306000 0.012000 -0.214000
v 0.317314 0.012000 -0.209314
v 0.322000 0.012000 -0.198000
v 0.317314 0.012000 -0.186686
v 0.306000 0.012000 -0.182000
v 0.294686 0.012000 -0.186686
v 0.294686 0.592572 0.209299
v 0.290000 0.592000 0.198000
v 0.306000 0.592809 0.213980
v 0.317314 0.592572 0.209299
v 0.322000 0.592000 0.198000
v 0.317314 0.591428 0.186701
v 0.306000 0.591191 0.182020
v 0.294686 0.591428 0.186701
v 0.294686 0.655200 0.167600
v 0.290000 0.644000 0.166000
v 0.306000 0.659839 0.168263
v 0.317314 0.655200 0.167600
v 0.322000 0.644000 0.166000
v 0.317314 0.632800 0.164400
v 0.306000 0.628161 0.163737
v 0.294686 0.632800 0.164400
v 0.294686 0.655200 -0.167600
v 0.290000 0.644000 -0.166000
v 0.306000 0.659839 -0.168263
v 0.317314 0.655200 -0.167600
v 0.322000 0.644000 -0.166000
v 0.317314 0.632800 -0.164400
v 0.306000 0.628161 -0.163737
v 0.294686 0.632800 -0.164400
v 0.294686 0.592572 -0.209299
v 0.290000 0.592000 -0.198000
v 0.306000 0.592809 -0.213980
v 0.317314 0.592572 -0.209299
v 0.322000 0.592000 -0.198000
v 0.317314 0.591428 -0.186701
v 0.306000 0.591191 -0.182020
v 0.294686 0.591428 -0.186701
v 0.314500 0.000000 0.212722
v 0.297500 0.000000 0.212722
v 0.289000 0.000000 0.198000
v 0.297500 0.000000 0.183278
v 0.314500 0.000000 0.183278
v 0.323000 0.000000 0.198000
v 0.320280 0.012000 0.198000
v 0.313140 0.012000 0.185633
v 0.298860 0.012000 0.185633
v 0.291720 0.012000 0.198000
v 0.298860 0.012000 0.210367
v 0.313140 0.012000 0.210367
v 0.314500 0.006600 0.183278
v 0.323000 0.006600 0.198000
v 0.297500 0.006600 0.183278
v 0.289000 0.006600 0.198000
v 0.297500 0.006600 0.212722
v 0.314500 0.006600 0.212722
v 0.314500 0.000000 -0.183278
v 0.297500 0.000000 -0.183278
v 0.289000 0.000000 -0.198000
v 0.297500 0.000000 -0.212722
v 0.314500 0.000000 -0.212722
v 0.323000 0.000000 -0.198000
v 0.320280 0.012000 -0.198000
v 0.313140 0.012000 -0.210367
v 0.298860 0.012000 -0.210367
v 0.291720 0.012000 -0.198000
v 0.298860 0.012000 -0.185633
v 0.313140 0.012000 -0.185633
v 0.314500 0.006600 -0.212722
v 0.323000 0.006600 -0.198000
v 0.297500 0.006600 -0.212722
v 0.289000 0.006600 -0.198000
v 0.297500 0.006600 -0.183278
v 0.314500 0.006600 -0.183278
v -0.306000 0.205617 -0.176383
v -0.306000 0.209600 -0.186000
v -0.306000 0.205617 -0.195617
v -0.306000 0.196000 -0.199600
v -0.306000 0.186383 -0.195617
v -0.306000 0.182400 -0.186000
v -0.306000 0.186383 -0.176383
v -0.306000 0.196000 -0.172400
v 0.306000 0.196000 -0.172400
v 0.306000 0.186383 -0.176383
v 0.306000 0.182400 -0.186000
v 0.306000 0.186383 -0.195617
v 0.306000 0.196000 -0.199600
v 0.306000 0.205617 -0.195617
v 0.306000 0.209600 -0.186000
v 0.306000 0.205617 -0.176383
v -0.306000 0.489617 0.199617
v -0.306000 0.493600 0.190000
v -0.306000 0.489617 0.180383
v -0.306000 0.480000 0.176400
v -0.306000 0.470383 0.180383
v -0.306000 0.466400 0.190000
v -0.306000 0.470383 0.199617
v -0.306000 0.480000 0.203600
v 0.306000 0.480000 0.203600
v 0.306000 0.470383 0.199617
v 0.306000 0.466400 0.190000
v 0.306000 0.470383 0.180383
v 0.306000 0.480000 0.176400
v 0.306000 0.489617 0.180383
v 0.306000 0.493600 0.190000
v 0.306000 0.489617 0.199617
v -0.306000 0.495617 -0.160383
v -0.306000 0.499600 -0.170000
v -0.306000 0.495617 -0.179617
v -0.306000 0.486000 -0.183600
v -0.306000 0.476383 -0.179617
v -0.306000 0.472400 -0.170000
v -0.306000 0.476383 -0.160383
v -0.306000 0.486000 -0.156400
v 0.306000 0.486000 -0.156400
v 0.306000 0.476383 -0.160383
v 0.306000 0.472400 -0.170000
v 0.306000 0.476383 -0.179617
v 0.306000 0.486000 -0.183600
v 0.306000 0.495617 -0.179617
v 0.306000 0.499600 -0.170000
v 0.306000 0.495617 -0.160383
v -0.294679 0.486000 -0.187771
v 0.294679 0.486000 -0.187771
v 0.294679 0.486000 0.207771
v -0.294679 0.486000 0.207771
v 0.298000 0.490000 0.210000
v -0.298000 0.490000 0.210000
v 0.298000 0.490000 -0.190000
v -0.298000 0.490000 -0.190000
v 0.298000 0.498000 0.210000
v -0.298000 0.498000 0.210000
v 0.298000 0.498000 -0.190000
v -0.298000 0.498000 -0.190000
v -0.294679 0.502000 0.207771
v 0.294679 0.502000 0.207771
v 0.294679 0.502000 -0.187771
v -0.294679 0.502000 -0.187771
v -0.298000 0.486000 0.218000
v -0.298000 0.486000 0.194000
v 0.298000 0.486000 0.194000
v 0.298000 0.486000 0.218000
v -0.298000 0.540000 0.218000
v 0.298000 0.540000 0.218000
v 0.298000 0.540000 0.194000
v -0.298000 0.540000 0.194000
v -0.345118 0.656000 -0.246513
v 0.345118 0.656000 -0.246513
v 0.345118 0.656000 0.246513
v -0.345118 0.656000 0.246513
v 0.350000 0.662000 0.250000
v -0.350000 0.662000 0.250000
v 0.350000 0.662000 -0.250000
v -0.350000 0.662000 -0.250000
v 0.350000 0.674000 0.250000
v -0.350000 0.674000 0.250000
v 0.350000 0.674000 -0.250000
v -0.350000 0.674000 -0.250000
v -0.345118 0.680000 0.246513
v 0.345118 0.680000 0.246513
v 0.345118 0.680000 -0.246513
v -0.345118 0.680000 -0.246513
vn -0.0000 -1.0000 -0.0000
vn -0.9238 -0.0000 0.3829
vn -0.3825 -0.0000 0.9240
vn 0.3825 -0.0000 0.9240
vn 0.9238 -0.0000 0.3829
vn 0.9238 -0.0000 -0.3829
vn 0.3825 -0.0000 -0.9240
vn -0.3825 -0.0000 -0.9240
vn -0.9238 -0.0000 -0.3829
vn -0.8783 0.2586 0.4022
vn -0.3015 0.5330 0.7906
vn 0.3015 0.5330 0.7906
vn 0.8783 0.2586 0.4022
vn 0.8765 -0.2420 -0.4161
vn 0.2950 -0.4395 -0.8484
vn -0.2950 -0.4395 -0.8484
vn -0.8765 -0.2420 -0.4161
vn -0.9225 0.3860 -0.0000
vn -0.3794 0.9252 -0.0000
vn 0.3794 0.9252 -0.0000
vn 0.9225 0.3860 -0.0000
vn 0.9225 -0.3860 -0.0000
vn 0.3794 -0.9252 -0.0000
vn -0.3794 -0.9252 -0.0000
vn -0.9225 -0.3860 -0.0000
vn -0.8783 0.2586 -0.4022
vn -0.3015 0.5330 -0.7906
vn 0.3015 0.5330 -0.7906
vn 0.8783 0.2586 -0.4022
vn 0.8765 -0.2420 0.4161
vn 0.2950 -0.4395 0.8484
vn -0.2950 -0.4395 0.8484
vn -0.8765 -0.2420 0.4161
vn -0.0000 1.0000 -0.0000
vn 0.8660 -0.0000 -0.5000
vn -0.0000 -0.0000 -1.0000
vn -0.8660 -0.0000 -0.5000
vn -0.8660 -0.0000 0.5000
vn -0.0000 -0.0000 1.0000
vn 0.8660 -0.0000 0.5000
vn 0.7938 0.3998 -0.4583
vn -0.0000 0.3998 -0.9166
vn -0.7938 0.3998 -0.4583
vn -0.7938 0.3998 0.4583
vn -0.0000 0.3998 0.9166
vn 0.7938 0.3998 0.4583
vn -1.0000 -0.0000 -0.0000
vn 1.0000 -0.0000 -0.0000
vn -0.0000 -0.3827 0.9239
vn -0.0000 -0.9239 0.3827
vn -0.0000 -0.9239 -0.3827
vn -0.0000 -0.3827 -0.9239
vn -0.0000 0.3827 -0.9239
vn -0.0000 0.9239 -0.3827
vn -0.0000 0.9239 0.3827
vn -0.0000 0.3827 0.9239
vn -0.0000 -0.4868 0.8735
vn 0.7694 -0.6388 -0.0000
vn -0.0000 -0.4868 -0.8735
vn -0.7694 -0.6388 -0.0000
vn -0.0000 0.4868 0.8735
vn 0.7694 0.6388 -0.0000
vn -0.0000 0.4868 -0.8735
vn -0.7694 0.6388 -0.0000
vn -0.0000 -0.5025 0.8646
vn 0.7756 -0.6312 -0.0000
vn -0.0000 -0.5025 -0.8646
vn -0.7756 -0.6312 -0.0000
vn -0.0000 0.5025 0.8646
vn 0.7756 0.6312 -0.0000
vn -0.0000 0.5025 -0.8646
vn -0.7756 0.6312 -0.0000
vt 0.937500 0.312500
vt 0.812500 0.312500
vt 0.687500 0.937500
vt 0.562500 0.812500
vt 0.312500 0.937500
s 0
usemtl FN_Atlas
f 1/1/1 2/1/1 3/1/1 4/1/1 5/1/1 6/1/1 7/1/1 8/1/1
f 9/1/1 10/1/1 11/1/1 12/1/1 13/1/1 14/1/1 15/1/1 16/1/1
f 8/1/2 7/1/2 17/1/2 18/1/2
f 7/1/3 6/1/3 19/1/3 17/1/3
f 6/1/4 5/1/4 20/1/4 19/1/4
f 5/1/5 4/1/5 21/1/5 20/1/5
f 4/1/6 3/1/6 22/1/6 21/1/6
f 3/1/7 2/1/7 23/1/7 22/1/7
f 2/1/8 1/1/8 24/1/8 23/1/8
f 1/1/9 8/1/9 18/1/9 24/1/9
f 18/1/10 17/1/10 25/1/10 26/1/10
f 17/1/11 19/1/11 27/1/11 25/1/11
f 19/1/12 20/1/12 28/1/12 27/1/12
f 20/1/13 21/1/13 29/1/13 28/1/13
f 21/1/14 22/1/14 30/1/14 29/1/14
f 22/1/15 23/1/15 31/1/15 30/1/15
f 23/1/16 24/1/16 32/1/16 31/1/16
f 24/1/17 18/1/17 26/1/17 32/1/17
f 26/1/18 25/1/18 33/1/18 34/1/18
f 25/1/19 27/1/19 35/1/19 33/1/19
f 27/1/20 28/1/20 36/1/20 35/1/20
f 28/1/21 29/1/21 37/1/21 36/1/21
f 29/1/22 30/1/22 38/1/22 37/1/22
f 30/1/23 31/1/23 39/1/23 38/1/23
f 31/1/24 32/1/24 40/1/24 39/1/24
f 32/1/25 26/1/25 34/1/25 40/1/25
f 34/1/26 33/1/26 41/1/26 42/1/26
f 33/1/27 35/1/27 43/1/27 41/1/27
f 35/1/28 36/1/28 44/1/28 43/1/28
f 36/1/29 37/1/29 45/1/29 44/1/29
f 37/1/30 38/1/30 46/1/30 45/1/30
f 38/1/31 39/1/31 47/1/31 46/1/31
f 39/1/32 40/1/32 48/1/32 47/1/32
f 40/1/33 34/1/33 42/1/33 48/1/33
f 42/1/9 41/1/9 10/1/9 9/1/9
f 41/1/8 43/1/8 11/1/8 10/1/8
f 43/1/7 44/1/7 12/1/7 11/1/7
f 44/1/6 45/1/6 13/1/6 12/1/6
f 45/1/5 46/1/5 14/1/5 13/1/5
f 46/1/4 47/1/4 15/1/4 14/1/4
f 47/1/3 48/1/3 16/1/3 15/1/3
f 48/1/2 42/1/2 9/1/2 16/1/2
f 49/2/1 50/2/1 51/2/1 52/2/1 53/2/1 54/2/1
f 55/2/34 56/2/34 57/2/34 58/2/34 59/2/34 60/2/34
f 54/2/35 53/2/35 61/2/35 62/2/35
f 53/2/36 52/2/36 63/2/36 61/2/36
f 52/2/37 51/2/37 64/2/37 63/2/37
f 51/2/38 50/2/38 65/2/38 64/2/38
f 50/2/39 49/2/39 66/2/39 65/2/39
f 49/2/40 54/2/40 62/2/40 66/2/40
f 62/2/41 61/2/41 56/2/41 55/2/41
f 61/2/42 63/2/42 57/2/42 56/2/42
f 63/2/43 64/2/43 58/2/43 57/2/43
f 64/2/44 65/2/44 59/2/44 58/2/44
f 65/2/45 66/2/45 60/2/45 59/2/45
f 66/2/46 62/2/46 55/2/46 60/2/46
f 67/2/1 68/2/1 69/2/1 70/2/1 71/2/1 72/2/1
f 73/2/34 74/2/34 75/2/34 76/2/34 77/2/34 78/2/34
f 72/2/35 71/2/35 79/2/35 80/2/35
f 71/2/36 70/2/36 81/2/36 79/2/36
f 70/2/37 69/2/37 82/2/37 81/2/37
f 69/2/38 68/2/38 83/2/38 82/2/38
f 68/2/39 67/2/39 84/2/39 83/2/39
f 67/2/40 72/2/40 80/2/40 84/2/40
f 80/2/41 79/2/41 74/2/41 73/2/41
f 79/2/42 81/2/42 75/2/42 74/2/42
f 81/2/43 82/2/43 76/2/43 75/2/43
f 82/2/44 83/2/44 77/2/44 76/2/44
f 83/2/45 84/2/45 78/2/45 77/2/45
f 84/2/46 80/2/46 73/2/46 78/2/46
f 85/1/1 86/1/1 87/1/1 88/1/1 89/1/1 90/1/1 91/1/1 92/1/1
f 93/1/1 94/1/1 95/1/1 96/1/1 97/1/1 98/1/1 99/1/1 100/1/1
f 92/1/2 91/1/2 101/1/2 102/1/2
f 91/1/3 90/1/3 103/1/3 101/1/3
f 90/1/4 89/1/4 104/1/4 103/1/4
f 89/1/5 88/1/5 105/1/5 104/1/5
f 88/1/6 87/1/6 106/1/6 105/1/6
f 87/1/7 86/1/7 107/1/7 106/1/7
f 86/1/8 85/1/8 108/1/8 107/1/8
f 85/1/9 92/1/9 102/1/9 108/1/9
f 102/1/10 101/1/10 109/1/10 110/1/10
f 101/1/11 103/1/11 111/1/11 109/1/11
f 103/1/12 104/1/12 112/1/12 111/1/12
f 104/1/13 105/1/13 113/1/13 112/1/13
f 105/1/14 106/1/14 114/1/14 113/1/14
f 106/1/15 107/1/15 115/1/15 114/1/15
f 107/1/16 108/1/16 116/1/16 115/1/16
f 108/1/17 102/1/17 110/1/17 116/1/17
f 110/1/18 109/1/18 117/1/18 118/1/18
f 109/1/19 111/1/19 119/1/19 117/1/19
f 111/1/20 112/1/20 120/1/20 119/1/20
f 112/1/21 113/1/21 121/1/21 120/1/21
f 113/1/22 114/1/22 122/1/22 121/1/22
f 114/1/23 115/1/23 123/1/23 122/1/23
f 115/1/24 116/1/24 124/1/24 123/1/24
f 116/1/25 110/1/25 118/1/25 124/1/25
f 118/1/26 117/1/26 125/1/26 126/1/26
f 117/1/27 119/1/27 127/1/27 125/1/27
f 119/1/28 120/1/28 128/1/28 127/1/28
f 120/1/29 121/1/29 129/1/29 128/1/29
f 121/1/30 122/1/30 130/1/30 129/1/30
f 122/1/31 123/1/31 131/1/31 130/1/31
f 123/1/32 124/1/32 132/1/32 131/1/32
f 124/1/33 118/1/33 126/1/33 132/1/33
f 126/1/9 125/1/9 94/1/9 93/1/9
f 125/1/8 127/1/8 95/1/8 94/1/8
f 127/1/7 128/1/7 96/1/7 95/1/7
f 128/1/6 129/1/6 97/1/6 96/1/6
f 129/1/5 130/1/5 98/1/5 97/1/5
f 130/1/4 131/1/4 99/1/4 98/1/4
f 131/1/3 132/1/3 100/1/3 99/1/3
f 132/1/2 126/1/2 93/1/2 100/1/2
f 133/2/1 134/2/1 135/2/1 136/2/1 137/2/1 138/2/1
f 139/2/34 140/2/34 141/2/34 142/2/34 143/2/34 144/2/34
f 138/2/35 137/2/35 145/2/35 146/2/35
f 137/2/36 136/2/36 147/2/36 145/2/36
f 136/2/37 135/2/37 148/2/37 147/2/37
f 135/2/38 134/2/38 149/2/38 148/2/38
f 134/2/39 133/2/39 150/2/39 149/2/39
f 133/2/40 138/2/40 146/2/40 150/2/40
f 146/2/41 145/2/41 140/2/41 139/2/41
f 145/2/42 147/2/42 141/2/42 140/2/42
f 147/2/43 148/2/43 142/2/43 141/2/43
f 148/2/44 149/2/44 143/2/44 142/2/44
f 149/2/45 150/2/45 144/2/45 143/2/45
f 150/2/46 146/2/46 139/2/46 144/2/46
f 151/2/1 152/2/1 153/2/1 154/2/1 155/2/1 156/2/1
f 157/2/34 158/2/34 159/2/34 160/2/34 161/2/34 162/2/34
f 156/2/35 155/2/35 163/2/35 164/2/35
f 155/2/36 154/2/36 165/2/36 163/2/36
f 154/2/37 153/2/37 166/2/37 165/2/37
f 153/2/38 152/2/38 167/2/38 166/2/38
f 152/2/39 151/2/39 168/2/39 167/2/39
f 151/2/40 156/2/40 164/2/40 168/2/40
f 164/2/41 163/2/41 158/2/41 157/2/41
f 163/2/42 165/2/42 159/2/42 158/2/42
f 165/2/43 166/2/43 160/2/43 159/2/43
f 166/2/44 167/2/44 161/2/44 160/2/44
f 167/2/45 168/2/45 162/2/45 161/2/45
f 168/2/46 164/2/46 157/2/46 162/2/46
f 169/1/47 170/1/47 171/1/47 172/1/47 173/1/47 174/1/47 175/1/47 176/1/47
f 177/1/48 178/1/48 179/1/48 180/1/48 181/1/48 182/1/48 183/1/48 184/1/48
f 176/1/49 175/1/49 178/1/49 177/1/49
f 175/1/50 174/1/50 179/1/50 178/1/50
f 174/1/51 173/1/51 180/1/51 179/1/51
f 173/1/52 172/1/52 181/1/52 180/1/52
f 172/1/53 171/1/53 182/1/53 181/1/53
f 171/1/54 170/1/54 183/1/54 182/1/54
f 170/1/55 169/1/55 184/1/55 183/1/55
f 169/1/56 176/1/56 177/1/56 184/1/56
f 185/1/47 186/1/47 187/1/47 188/1/47 189/1/47 190/1/47 191/1/47 192/1/47
f 193/1/48 194/1/48 195/1/48 196/1/48 197/1/48 198/1/48 199/1/48 200/1/48
f 192/1/49 191/1/49 194/1/49 193/1/49
f 191/1/50 190/1/50 195/1/50 194/1/50
f 190/1/51 189/1/51 196/1/51 195/1/51
f 189/1/52 188/1/52 197/1/52 196/1/52
f 188/1/53 187/1/53 198/1/53 197/1/53
f 187/1/54 186/1/54 199/1/54 198/1/54
f 186/1/55 185/1/55 200/1/55 199/1/55
f 185/1/56 192/1/56 193/1/56 200/1/56
f 201/1/47 202/1/47 203/1/47 204/1/47 205/1/47 206/1/47 207/1/47 208/1/47
f 209/1/48 210/1/48 211/1/48 212/1/48 213/1/48 214/1/48 215/1/48 216/1/48
f 208/1/49 207/1/49 210/1/49 209/1/49
f 207/1/50 206/1/50 211/1/50 210/1/50
f 206/1/51 205/1/51 212/1/51 211/1/51
f 205/1/52 204/1/52 213/1/52 212/1/52
f 204/1/53 203/1/53 214/1/53 213/1/53
f 203/1/54 202/1/54 215/1/54 214/1/54
f 202/1/55 201/1/55 216/1/55 215/1/55
f 201/1/56 208/1/56 209/1/56 216/1/56
f 217/3/1 218/3/1 219/3/1 220/3/1
f 220/3/57 219/3/57 221/3/57 222/3/57
f 219/3/58 218/3/58 223/3/58 221/3/58
f 218/3/59 217/3/59 224/3/59 223/3/59
f 217/3/60 220/3/60 222/3/60 224/3/60
f 222/3/39 221/3/39 225/3/39 226/3/39
f 221/3/48 223/3/48 227/3/48 225/3/48
f 223/3/36 224/3/36 228/3/36 227/3/36
f 224/3/47 222/3/47 226/3/47 228/3/47
f 229/4/34 230/4/34 231/4/34 232/4/34
f 226/3/61 225/3/61 230/3/61 229/3/61
f 225/3/62 227/3/62 231/3/62 230/3/62
f 227/3/63 228/3/63 232/3/63 231/3/63
f 228/3/64 226/3/64 229/3/64 232/3/64
f 233/4/1 234/4/1 235/4/1 236/4/1
f 237/4/34 238/4/34 239/4/34 240/4/34
f 233/4/39 236/4/39 238/4/39 237/4/39
f 235/4/36 234/4/36 240/4/36 239/4/36
f 233/4/47 237/4/47 240/4/47 234/4/47
f 236/4/48 235/4/48 239/4/48 238/4/48
f 241/3/1 242/3/1 243/3/1 244/3/1
f 244/3/65 243/3/65 245/3/65 246/3/65
f 243/3/66 242/3/66 247/3/66 245/3/66
f 242/3/67 241/3/67 248/3/67 247/3/67
f 241/3/68 244/3/68 246/3/68 248/3/68
f 246/3/39 245/3/39 249/3/39 250/3/39
f 245/3/48 247/3/48 251/3/48 249/3/48
f 247/3/36 248/3/36 252/3/36 251/3/36
f 248/3/47 246/3/47 250/3/47 252/3/47
f 253/5/34 254/5/34 255/5/34 256/5/34
f 250/3/69 249/3/69 254/3/69 253/3/69
f 249/3/70 251/3/70 255/3/70 254/3/70
f 251/3/71 252/3/71 256/3/71 255/3/71
f 252/3/72 250/3/72 253/3/72 256/3/72
