# Blender 5.2.0 LTS
# www.blender.org
mtllib FN_Desk_Office.mtl
o FN_Desk_Office
v -0.694633 0.710000 -0.347317
v 0.694633 0.710000 -0.347317
v 0.694633 0.710000 0.347317
v -0.694633 0.710000 0.347317
v 0.700000 0.716000 0.350000
v -0.700000 0.716000 0.350000
v 0.700000 0.716000 -0.350000
v -0.700000 0.716000 -0.350000
v 0.700000 0.734000 0.350000
v -0.700000 0.734000 0.350000
v 0.700000 0.734000 -0.350000
v -0.700000 0.734000 -0.350000
v -0.694633 0.740000 0.347317
v 0.694633 0.740000 0.347317
v 0.694633 0.740000 -0.347317
v -0.694633 0.740000 -0.347317
v -0.632000 0.000000 0.288000
v -0.632000 0.000000 -0.288000
v -0.596000 0.000000 -0.288000
v -0.596000 0.000000 0.288000
v -0.632000 0.036000 0.288000
v -0.596000 0.036000 0.288000
v -0.596000 0.036000 -0.288000
v -0.632000 0.036000 -0.288000
v -0.632000 0.680000 0.276000
v -0.632000 0.680000 -0.276000
v -0.596000 0.680000 -0.276000
v -0.596000 0.680000 0.276000
v -0.632000 0.716000 0.276000
v -0.596000 0.716000 0.276000
v -0.596000 0.716000 -0.276000
v -0.632000 0.716000 -0.276000
v -0.632000 0.000000 0.252000
v -0.596000 0.000000 0.252000
v -0.632000 0.716000 0.288000
v -0.596000 0.716000 0.288000
v -0.596000 0.716000 0.252000
v -0.632000 0.716000 0.252000
v -0.632000 0.000000 -0.252000
v -0.596000 0.000000 -0.252000
v -0.632000 0.716000 -0.252000
v -0.596000 0.716000 -0.252000
v -0.596000 0.716000 -0.288000
v -0.632000 0.716000 -0.288000
v 0.596000 0.000000 0.288000
v 0.596000 0.000000 -0.288000
v 0.632000 0.000000 -0.288000
v 0.632000 0.000000 0.288000
v 0.596000 0.036000 0.288000
v 0.632000 0.036000 0.288000
v 0.632000 0.036000 -0.288000
v 0.596000 0.036000 -0.288000
v 0.596000 0.680000 0.276000
v 0.596000 0.680000 -0.276000
v 0.632000 0.680000 -0.276000
v 0.632000 0.680000 0.276000
v 0.596000 0.716000 0.276000
v 0.632000 0.716000 0.276000
v 0.632000 0.716000 -0.276000
v 0.596000 0.716000 -0.276000
v 0.596000 0.000000 0.252000
v 0.632000 0.000000 0.252000
v 0.596000 0.716000 0.288000
v 0.632000 0.716000 0.288000
v 0.632000 0.716000 0.252000
v 0.596000 0.716000 0.252000
v 0.596000 0.000000 -0.252000
v 0.632000 0.000000 -0.252000
v 0.596000 0.716000 -0.252000
v 0.632000 0.716000 -0.252000
v 0.632000 0.716000 -0.288000
v 0.596000 0.716000 -0.288000
v -0.614000 0.598000 -0.238000
v -0.614000 0.598000 -0.270000
v 0.614000 0.598000 -0.270000
v 0.614000 0.598000 -0.238000
v -0.614000 0.630000 -0.238000
v 0.614000 0.630000 -0.238000
v 0.614000 0.630000 -0.270000
v -0.614000 0.630000 -0.270000
v -0.600000 0.420000 -0.252000
v -0.600000 0.420000 -0.268000
v 0.600000 0.420000 -0.268000
v 0.600000 0.420000 -0.252000
v -0.600000 0.712000 -0.252000
v 0.600000 0.712000 -0.252000
v 0.600000 0.712000 -0.268000
v -0.600000 0.712000 -0.268000
v 0.176000 0.286000 0.276000
v 0.176000 0.286000 -0.268000
v 0.556000 0.286000 -0.268000
v 0.556000 0.286000 0.276000
v 0.176000 0.716000 0.276000
v 0.556000 0.716000 0.276000
v 0.556000 0.716000 -0.268000
v 0.176000 0.716000 -0.268000
v 0.184000 0.298000 0.292000
v 0.184000 0.298000 0.274000
v 0.548000 0.298000 0.274000
v 0.548000 0.298000 0.292000
v 0.184000 0.474000 0.292000
v 0.548000 0.474000 0.292000
v 0.548000 0.474000 0.274000
v 0.184000 0.474000 0.274000
v 0.280000 0.379072 0.323000
v 0.280000 0.379072 0.315000
v 0.280000 0.386000 0.311000
v 0.280000 0.392928 0.315000
v 0.280000 0.392928 0.323000
v 0.280000 0.386000 0.327000
v 0.452000 0.386000 0.327000
v 0.452000 0.392928 0.323000
v 0.452000 0.392928 0.315000
v 0.452000 0.386000 0.311000
v 0.452000 0.379072 0.315000
v 0.452000 0.379072 0.323000
v 0.276000 0.379072 0.293000
v 0.284000 0.379072 0.293000
v 0.288000 0.386000 0.293000
v 0.284000 0.392928 0.293000
v 0.276000 0.392928 0.293000
v 0.272000 0.386000 0.293000
v 0.272000 0.386000 0.319000
v 0.276000 0.392928 0.319000
v 0.284000 0.392928 0.319000
v 0.288000 0.386000 0.319000
v 0.284000 0.379072 0.319000
v 0.276000 0.379072 0.319000
v 0.448000 0.379072 0.293000
v 0.456000 0.379072 0.293000
v 0.460000 0.386000 0.293000
v 0.456000 0.392928 0.293000
v 0.448000 0.392928 0.293000
v 0.444000 0.386000 0.293000
v 0.444000 0.386000 0.319000
v 0.448000 0.392928 0.319000
v 0.456000 0.392928 0.319000
v 0.460000 0.386000 0.319000
v 0.456000 0.379072 0.319000
v 0.448000 0.379072 0.319000
v 0.184000 0.502000 0.292000
v 0.184000 0.502000 0.274000
v 0.548000 0.502000 0.274000
v 0.548000 0.502000 0.292000
v 0.184000 0.678000 0.292000
v 0.548000 0.678000 0.292000
v 0.548000 0.678000 0.274000
v 0.184000 0.678000 0.274000
v 0.280000 0.583072 0.323000
v 0.280000 0.583072 0.315000
v 0.280000 0.590000 0.311000
v 0.280000 0.596928 0.315000
v 0.280000 0.596928 0.323000
v 0.280000 0.590000 0.327000
v 0.452000 0.590000 0.327000
v 0.452000 0.596928 0.323000
v 0.452000 0.596928 0.315000
v 0.452000 0.590000 0.311000
v 0.452000 0.583072 0.315000
v 0.452000 0.583072 0.323000
v 0.276000 0.583072 0.293000
v 0.284000 0.583072 0.293000
v 0.288000 0.590000 0.293000
v 0.284000 0.596928 0.293000
v 0.276000 0.596928 0.293000
v 0.272000 0.590000 0.293000
v 0.272000 0.590000 0.319000
v 0.276000 0.596928 0.319000
v 0.284000 0.596928 0.319000
v 0.288000 0.590000 0.319000
v 0.284000 0.583072 0.319000
v 0.276000 0.583072 0.319000
v 0.448000 0.583072 0.293000
v 0.456000 0.583072 0.293000
v 0.460000 0.590000 0.293000
v 0.456000 0.596928 0.293000
v 0.448000 0.596928 0.293000
v 0.444000 0.590000 0.293000
v 0.444000 0.590000 0.319000
v 0.448000 0.596928 0.319000
v 0.456000 0.596928 0.319000
v 0.460000 0.590000 0.319000
v 0.456000 0.583072 0.319000
v 0.448000 0.583072 0.319000
vn -0.0000 -1.0000 -0.0000
vn -0.0000 -0.4082 0.9129
vn 0.7454 -0.6667 -0.0000
vn -0.0000 -0.4082 -0.9129
vn -0.7454 -0.6667 -0.0000
vn -0.0000 -0.0000 1.0000
vn 1.0000 -0.0000 -0.0000
vn -0.0000 -0.0000 -1.0000
vn -1.0000 -0.0000 -0.0000
vn -0.0000 1.0000 -0.0000
vn -0.0000 0.4082 0.9129
vn 0.7454 0.6667 -0.0000
vn -0.0000 0.4082 -0.9129
vn -0.7454 0.6667 -0.0000
vn -0.0000 -0.5000 -0.8660
vn -0.0000 -0.5000 0.8660
vn -0.0000 0.5000 0.8660
vn -0.0000 0.5000 -0.8660
vn 0.8660 -0.5000 -0.0000
vn -0.8660 -0.5000 -0.0000
vn -0.8660 0.5000 -0.0000
vn 0.8660 0.5000 -0.0000
vt 0.562500 0.812500
vt 0.437500 0.812500
vt 0.812500 0.312500
vt 0.937500 0.312500
s 0
usemtl FN_Atlas
f 1/1/1 2/1/1 3/1/1 4/1/1
f 4/1/2 3/1/2 5/1/2 6/1/2
f 3/1/3 2/1/3 7/1/3 5/1/3
f 2/1/4 1/1/4 8/1/4 7/1/4
f 1/1/5 4/1/5 6/1/5 8/1/5
f 6/1/6 5/1/6 9/1/6 10/1/6
f 5/1/7 7/1/7 11/1/7 9/1/7
f 7/1/8 8/1/8 12/1/8 11/1/8
f 8/1/9 6/1/9 10/1/9 12/1/9
f 13/2/10 14/2/10 15/2/10 16/2/10
f 10/1/11 9/1/11 14/1/11 13/1/11
f 9/1/12 11/1/12 15/1/12 14/1/12
f 11/1/13 12/1/13 16/1/13 15/1/13
f 12/1/14 10/1/14 13/1/14 16/1/14
f 17/3/1 18/3/1 19/3/1 20/3/1
f 21/3/10 22/3/10 23/3/10 24/3/10
f 17/3/6 20/3/6 22/3/6 21/3/6
f 19/3/8 18/3/8 24/3/8 23/3/8
f 17/3/9 21/3/9 24/3/9 18/3/9
f 20/3/7 19/3/7 23/3/7 22/3/7
f 25/3/1 26/3/1 27/3/1 28/3/1
f 29/3/10 30/3/10 31/3/10 32/3/10
f 25/3/6 28/3/6 30/3/6 29/3/6
f 27/3/8 26/3/8 32/3/8 31/3/8
f 25/3/9 29/3/9 32/3/9 26/3/9
f 28/3/7 27/3/7 31/3/7 30/3/7
f 17/3/1 33/3/1 34/3/1 20/3/1
f 35/3/10 36/3/10 37/3/10 38/3/10
f 17/3/6 20/3/6 36/3/6 35/3/6
f 34/3/8 33/3/8 38/3/8 37/3/8
f 17/3/9 35/3/9 38/3/9 33/3/9
f 20/3/7 34/3/7 37/3/7 36/3/7
f 39/3/1 18/3/1 19/3/1 40/3/1
f 41/3/10 42/3/10 43/3/10 44/3/10
f 39/3/6 40/3/6 42/3/6 41/3/6
f 19/3/8 18/3/8 44/3/8 43/3/8
f 39/3/9 41/3/9 44/3/9 18/3/9
f 40/3/7 19/3/7 43/3/7 42/3/7
f 45/3/1 46/3/1 47/3/1 48/3/1
f 49/3/10 50/3/10 51/3/10 52/3/10
f 45/3/6 48/3/6 50/3/6 49/3/6
f 47/3/8 46/3/8 52/3/8 51/3/8
f 45/3/9 49/3/9 52/3/9 46/3/9
f 48/3/7 47/3/7 51/3/7 50/3/7
f 53/3/1 54/3/1 55/3/1 56/3/1
f 57/3/10 58/3/10 59/3/10 60/3/10
f 53/3/6 56/3/6 58/3/6 57/3/6
f 55/3/8 54/3/8 60/3/8 59/3/8
f 53/3/9 57/3/9 60/3/9 54/3/9
f 56/3/7 55/3/7 59/3/7 58/3/7
f 45/3/1 61/3/1 62/3/1 48/3/1
f 63/3/10 64/3/10 65/3/10 66/3/10
f 45/3/6 48/3/6 64/3/6 63/3/6
f 62/3/8 61/3/8 66/3/8 65/3/8
f 45/3/9 63/3/9 66/3/9 61/3/9
f 48/3/7 62/3/7 65/3/7 64/3/7
f 67/3/1 46/3/1 47/3/1 68/3/1
f 69/3/10 70/3/10 71/3/10 72/3/10
f 67/3/6 68/3/6 70/3/6 69/3/6
f 47/3/8 46/3/8 72/3/8 71/3/8
f 67/3/9 69/3/9 72/3/9 46/3/9
f 68/3/7 47/3/7 71/3/7 70/3/7
f 73/3/1 74/3/1 75/3/1 76/3/1
f 77/3/10 78/3/10 79/3/10 80/3/10
f 73/3/6 76/3/6 78/3/6 77/3/6
f 75/3/8 74/3/8 80/3/8 79/3/8
f 73/3/9 77/3/9 80/3/9 74/3/9
f 76/3/7 75/3/7 79/3/7 78/3/7
f 81/1/1 82/1/1 83/1/1 84/1/1
f 85/1/10 86/1/10 87/1/10 88/1/10
f 81/1/6 84/1/6 86/1/6 85/1/6
f 83/1/8 82/1/8 88/1/8 87/1/8
f 81/1/9 85/1/9 88/1/9 82/1/9
f 84/1/7 83/1/7 87/1/7 86/1/7
f 89/1/1 90/1/1 91/1/1 92/1/1
f 93/1/10 94/1/10 95/1/10 96/1/10
f 89/1/6 92/1/6 94/1/6 93/1/6
f 91/1/8 90/1/8 96/1/8 95/1/8
f 89/1/9 93/1/9 96/1/9 90/1/9
f 92/1/7 91/1/7 95/1/7 94/1/7
f 97/1/1 98/1/1 99/1/1 100/1/1
f 101/1/10 102/1/10 103/1/10 104/1/10
f 97/2/6 100/2/6 102/2/6 101/2/6
f 99/1/8 98/1/8 104/1/8 103/1/8
f 97/1/9 101/1/9 104/1/9 98/1/9
f 100/1/7 99/1/7 103/1/7 102/1/7
f 105/4/7 106/4/7 107/4/7 108/4/7 109/4/7 110/4/7
f 111/4/9 112/4/9 113/4/9 114/4/9 115/4/9 116/4/9
f 110/4/15 109/4/15 112/4/15 111/4/15
f 109/4/1 108/4/1 113/4/1 112/4/1
f 108/4/16 107/4/16 114/4/16 113/4/16
f 107/4/17 106/4/17 115/4/17 114/4/17
f 106/4/10 105/4/10 116/4/10 115/4/10
f 105/4/18 110/4/18 111/4/18 116/4/18
f 117/4/6 118/4/6 119/4/6 120/4/6 121/4/6 122/4/6
f 123/4/8 124/4/8 125/4/8 126/4/8 127/4/8 128/4/8
f 122/4/19 121/4/19 124/4/19 123/4/19
f 121/4/1 120/4/1 125/4/1 124/4/1
f 120/4/20 119/4/20 126/4/20 125/4/20
f 119/4/21 118/4/21 127/4/21 126/4/21
f 118/4/10 117/4/10 128/4/10 127/4/10
f 117/4/22 122/4/22 123/4/22 128/4/22
f 129/4/6 130/4/6 131/4/6 132/4/6 133/4/6 134/4/6
f 135/4/8 136/4/8 137/4/8 138/4/8 139/4/8 140/4/8
f 134/4/19 133/4/19 136/4/19 135/4/19
f 133/4/1 132/4/1 137/4/1 136/4/1
f 132/4/20 131/4/20 138/4/20 137/4/20
f 131/4/21 130/4/21 139/4/21 138/4/21
f 130/4/10 129/4/10 140/4/10 139/4/10
f 129/4/22 134/4/22 135/4/22 140/4/22
f 141/1/1 142/1/1 143/1/1 144/1/1
f 145/1/10 146/1/10 147/1/10 148/1/10
f 141/2/6 144/2/6 146/2/6 145/2/6
f 143/1/8 142/1/8 148/1/8 147/1/8
f 141/1/9 145/1/9 148/1/9 142/1/9
f 144/1/7 143/1/7 147/1/7 146/1/7
f 149/4/7 150/4/7 151/4/7 152/4/7 153/4/7 154/4/7
f 155/4/9 156/4/9 157/4/9 158/4/9 159/4/9 160/4/9
f 154/4/15 153/4/15 156/4/15 155/4/15
f 153/4/1 152/4/1 157/4/1 156/4/1
f 152/4/16 151/4/16 158/4/16 157/4/16
f 151/4/17 150/4/17 159/4/17 158/4/17
f 150/4/10 149/4/10 160/4/10 159/4/10
f 149/4/18 154/4/18 155/4/18 160/4/18
f 161/4/6 162/4/6 163/4/6 164/4/6 165/4/6 166/4/6
f 167/4/8 168/4/8 169/4/8 170/4/8 171/4/8 172/4/8
f 166/4/19 165/4/19 168/4/19 167/4/19
f 165/4/1 164/4/1 169/4/1 168/4/1
f 164/4/20 163/4/20 170/4/20 169/4/20
f 163/4/21 162/4/21 171/4/21 170/4/21
f 162/4/10 161/4/10 172/4/10 171/4/10
f 161/4/22 166/4/22 167/4/22 172/4/22
f 173/4/6 174/4/6 175/4/6 176/4/6 177/4/6 178/4/6
f 179/4/8 180/4/8 181/4/8 182/4/8 183/4/8 184/4/8
f 178/4/19 177/4/19 180/4/19 179/4/19
f 177/4/1 176/4/1 181/4/1 180/4/1
f 176/4/20 175/4/20 182/4/20 181/4/20
f 175/4/21 174/4/21 183/4/21 182/4/21
f 174/4/10 173/4/10 184/4/10 183/4/10
f 173/4/22 178/4/22 179/4/22 184/4/22
