# Blender 5.2.0 LTS
# www.blender.org
mtllib FN_Desk_Corner.mtl
o FN_Desk_Corner
v -0.760000 0.000000 -0.665000
v -0.720000 0.000000 -0.665000
v -0.720000 0.000000 -0.625000
v -0.760000 0.000000 -0.625000
v -0.766000 0.712000 -0.619000
v -0.714000 0.712000 -0.619000
v -0.714000 0.712000 -0.671000
v -0.766000 0.712000 -0.671000
v -0.760000 0.000000 -0.180000
v -0.720000 0.000000 -0.180000
v -0.720000 0.000000 -0.140000
v -0.760000 0.000000 -0.140000
v -0.766000 0.712000 -0.134000
v -0.714000 0.712000 -0.134000
v -0.714000 0.712000 -0.186000
v -0.766000 0.712000 -0.186000
v 0.720000 0.000000 -0.665000
v 0.760000 0.000000 -0.665000
v 0.760000 0.000000 -0.625000
v 0.720000 0.000000 -0.625000
v 0.714000 0.712000 -0.619000
v 0.766000 0.712000 -0.619000
v 0.766000 0.712000 -0.671000
v 0.714000 0.712000 -0.671000
v 0.720000 0.000000 0.625000
v 0.760000 0.000000 0.625000
v 0.760000 0.000000 0.665000
v 0.720000 0.000000 0.665000
v 0.714000 0.712000 0.671000
v 0.766000 0.712000 0.671000
v 0.766000 0.712000 0.619000
v 0.714000 0.712000 0.619000
v 0.240000 0.000000 0.625000
v 0.280000 0.000000 0.625000
v 0.280000 0.000000 0.665000
v 0.240000 0.000000 0.665000
v 0.234000 0.712000 0.671000
v 0.286000 0.712000 0.671000
v 0.286000 0.712000 0.619000
v 0.234000 0.712000 0.619000
v -0.744000 0.440000 -0.630000
v -0.744000 0.440000 -0.660000
v 0.760000 0.440000 -0.660000
v 0.760000 0.440000 -0.630000
v -0.744000 0.696000 -0.630000
v 0.760000 0.696000 -0.630000
v 0.760000 0.696000 -0.660000
v -0.744000 0.696000 -0.660000
v 0.725000 0.440000 0.660000
v 0.725000 0.440000 -0.660000
v 0.755000 0.440000 -0.660000
v 0.755000 0.440000 0.660000
v 0.725000 0.696000 0.660000
v 0.755000 0.696000 0.660000
v 0.755000 0.696000 -0.660000
v 0.725000 0.696000 -0.660000
v -0.800000 0.706000 -0.700000
v 0.800000 0.706000 -0.700000
v 0.800000 0.706000 0.700000
v 0.200000 0.706000 0.700000
v 0.200000 0.706000 -0.100000
v -0.800000 0.706000 -0.100000
v 0.200000 0.733000 -0.100000
v -0.800000 0.733000 -0.100000
v 0.200000 0.733000 0.700000
v 0.800000 0.733000 0.700000
v 0.800000 0.733000 -0.700000
v -0.800000 0.733000 -0.700000
v -0.792549 0.740000 -0.099427
v 0.198854 0.740000 -0.099427
v 0.198854 0.740000 0.693695
v 0.793695 0.740000 0.693695
v 0.793695 0.740000 -0.694268
v -0.792549 0.740000 -0.694268
v 0.553979 0.736000 -0.535313
v 0.532979 0.736000 -0.520056
v 0.507021 0.736000 -0.520056
v 0.486021 0.736000 -0.535313
v 0.478000 0.736000 -0.560000
v 0.486021 0.736000 -0.584687
v 0.507021 0.736000 -0.599944
v 0.532979 0.736000 -0.599944
v 0.553979 0.736000 -0.584687
v 0.562000 0.736000 -0.560000
v 0.556000 0.744000 -0.560000
v 0.549125 0.744000 -0.581160
v 0.531125 0.744000 -0.594238
v 0.508875 0.744000 -0.594238
v 0.490875 0.744000 -0.581160
v 0.484000 0.744000 -0.560000
v 0.490875 0.744000 -0.538840
v 0.508875 0.744000 -0.525762
v 0.531125 0.744000 -0.525762
v 0.549125 0.744000 -0.538840
vn -0.0000 -1.0000 -0.0000
vn -0.0000 1.0000 -0.0000
vn -0.0000 -0.0084 1.0000
vn 1.0000 -0.0084 -0.0000
vn -0.0000 -0.0084 -1.0000
vn -1.0000 -0.0084 -0.0000
vn -0.0000 -0.0000 1.0000
vn -0.0000 -0.0000 -1.0000
vn -1.0000 -0.0000 -0.0000
vn 1.0000 -0.0000 -0.0000
vn -0.0000 -0.0816 0.9967
vn -0.9869 -0.1616 -0.0000
vn -0.0000 0.6692 0.7430
vn 0.7430 0.6692 -0.0000
vn -0.0000 0.6335 -0.7737
vn -0.6847 0.7288 -0.0000
vn 0.7743 0.5807 -0.2516
vn 0.4785 0.5807 -0.6586
vn -0.0000 0.5807 -0.8141
vn -0.4785 0.5807 -0.6586
vn -0.7743 0.5807 -0.2516
vn -0.7743 0.5807 0.2516
vn -0.4785 0.5807 0.6586
vn -0.0000 0.5807 0.8141
vn 0.4785 0.5807 0.6586
vn 0.7743 0.5807 0.2516
vt 0.687500 0.312500
vt 0.312500 0.937500
vt 0.812500 0.312500
s 0
usemtl FN_Atlas
f 1/1/1 2/1/1 3/1/1 4/1/1
f 5/1/2 6/1/2 7/1/2 8/1/2
f 4/1/3 3/1/3 6/1/3 5/1/3
f 3/1/4 2/1/4 7/1/4 6/1/4
f 2/1/5 1/1/5 8/1/5 7/1/5
f 1/1/6 4/1/6 5/1/6 8/1/6
f 9/1/1 10/1/1 11/1/1 12/1/1
f 13/1/2 14/1/2 15/1/2 16/1/2
f 12/1/3 11/1/3 14/1/3 13/1/3
f 11/1/4 10/1/4 15/1/4 14/1/4
f 10/1/5 9/1/5 16/1/5 15/1/5
f 9/1/6 12/1/6 13/1/6 16/1/6
f 17/1/1 18/1/1 19/1/1 20/1/1
f 21/1/2 22/1/2 23/1/2 24/1/2
f 20/1/3 19/1/3 22/1/3 21/1/3
f 19/1/4 18/1/4 23/1/4 22/1/4
f 18/1/5 17/1/5 24/1/5 23/1/5
f 17/1/6 20/1/6 21/1/6 24/1/6
f 25/1/1 26/1/1 27/1/1 28/1/1
f 29/1/2 30/1/2 31/1/2 32/1/2
f 28/1/3 27/1/3 30/1/3 29/1/3
f 27/1/4 26/1/4 31/1/4 30/1/4
f 26/1/5 25/1/5 32/1/5 31/1/5
f 25/1/6 28/1/6 29/1/6 32/1/6
f 33/1/1 34/1/1 35/1/1 36/1/1
f 37/1/2 38/1/2 39/1/2 40/1/2
f 36/1/3 35/1/3 38/1/3 37/1/3
f 35/1/4 34/1/4 39/1/4 38/1/4
f 34/1/5 33/1/5 40/1/5 39/1/5
f 33/1/6 36/1/6 37/1/6 40/1/6
f 41/1/1 42/1/1 43/1/1 44/1/1
f 45/1/2 46/1/2 47/1/2 48/1/2
f 41/1/7 44/1/7 46/1/7 45/1/7
f 43/1/8 42/1/8 48/1/8 47/1/8
f 41/1/9 45/1/9 48/1/9 42/1/9
f 44/1/10 43/1/10 47/1/10 46/1/10
f 49/1/1 50/1/1 51/1/1 52/1/1
f 53/1/2 54/1/2 55/1/2 56/1/2
f 49/1/7 52/1/7 54/1/7 53/1/7
f 51/1/8 50/1/8 56/1/8 55/1/8
f 49/1/9 53/1/9 56/1/9 50/1/9
f 52/1/10 51/1/10 55/1/10 54/1/10
f 57/2/1 58/2/1 59/2/1 60/2/1 61/2/1 62/2/1
f 62/2/7 61/2/7 63/2/7 64/2/7
f 61/2/9 60/2/9 65/2/9 63/2/9
f 60/2/7 59/2/7 66/2/7 65/2/7
f 59/2/10 58/2/10 67/2/10 66/2/10
f 58/2/8 57/2/8 68/2/8 67/2/8
f 57/2/9 62/2/9 64/2/9 68/2/9
f 69/2/2 70/2/2 71/2/2 72/2/2 73/2/2 74/2/2
f 64/2/11 63/2/11 70/2/11 69/2/11
f 63/2/12 65/2/12 71/2/12 70/2/12
f 65/2/13 66/2/13 72/2/13 71/2/13
f 66/2/14 67/2/14 73/2/14 72/2/14
f 67/2/15 68/2/15 74/2/15 73/2/15
f 68/2/16 64/2/16 69/2/16 74/2/16
f 75/3/1 76/3/1 77/3/1 78/3/1 79/3/1 80/3/1 81/3/1 82/3/1 83/3/1 84/3/1
f 85/3/2 86/3/2 87/3/2 88/3/2 89/3/2 90/3/2 91/3/2 92/3/2 93/3/2 94/3/2
f 84/3/17 83/3/17 86/3/17 85/3/17
f 83/3/18 82/3/18 87/3/18 86/3/18
f 82/3/19 81/3/19 88/3/19 87/3/19
f 81/3/20 80/3/20 89/3/20 88/3/20
f 80/3/21 79/3/21 90/3/21 89/3/21
f 79/3/22 78/3/22 91/3/22 90/3/22
f 78/3/23 77/3/23 92/3/23 91/3/23
f 77/3/24 76/3/24 93/3/24 92/3/24
f 76/3/25 75/3/25 94/3/25 93/3/25
f 75/3/26 84/3/26 85/3/26 94/3/26
