# Blender 5.2.0 LTS
# www.blender.org
mtllib FN_Desk_Standing.mtl
o FN_Desk_Standing
v -0.600000 0.010000 -0.280000
v -0.512000 0.010000 -0.280000
v -0.512000 0.010000 0.280000
v -0.600000 0.010000 0.280000
v -0.594000 0.038000 0.260000
v -0.518000 0.038000 0.260000
v -0.518000 0.038000 -0.260000
v -0.594000 0.038000 -0.260000
v -0.586000 0.000000 0.272000
v -0.586000 0.000000 0.220000
v -0.526000 0.000000 0.220000
v -0.526000 0.000000 0.272000
v -0.586000 0.012000 0.272000
v -0.526000 0.012000 0.272000
v -0.526000 0.012000 0.220000
v -0.586000 0.012000 0.220000
v -0.586000 0.000000 -0.220000
v -0.586000 0.000000 -0.272000
v -0.526000 0.000000 -0.272000
v -0.526000 0.000000 -0.220000
v -0.586000 0.012000 -0.220000
v -0.526000 0.012000 -0.220000
v -0.526000 0.012000 -0.272000
v -0.586000 0.012000 -0.272000
v -0.601000 0.034000 0.035000
v -0.601000 0.034000 -0.035000
v -0.511000 0.034000 -0.035000
v -0.511000 0.034000 0.035000
v -0.601000 0.492000 0.035000
v -0.511000 0.492000 0.035000
v -0.511000 0.492000 -0.035000
v -0.601000 0.492000 -0.035000
v -0.594000 0.452000 0.029000
v -0.594000 0.452000 -0.029000
v -0.518000 0.452000 -0.029000
v -0.518000 0.452000 0.029000
v -0.594000 0.834000 0.029000
v -0.518000 0.834000 0.029000
v -0.518000 0.834000 -0.029000
v -0.594000 0.834000 -0.029000
v -0.587000 0.794000 0.024000
v -0.587000 0.794000 -0.024000
v -0.525000 0.794000 -0.024000
v -0.525000 0.794000 0.024000
v -0.587000 1.080000 0.024000
v -0.525000 1.080000 0.024000
v -0.525000 1.080000 -0.024000
v -0.587000 1.080000 -0.024000
v 0.512000 0.010000 -0.280000
v 0.600000 0.010000 -0.280000
v 0.600000 0.010000 0.280000
v 0.512000 0.010000 0.280000
v 0.518000 0.038000 0.260000
v 0.594000 0.038000 0.260000
v 0.594000 0.038000 -0.260000
v 0.518000 0.038000 -0.260000
v 0.526000 0.000000 0.272000
v 0.526000 0.000000 0.220000
v 0.586000 0.000000 0.220000
v 0.586000 0.000000 0.272000
v 0.526000 0.012000 0.272000
v 0.586000 0.012000 0.272000
v 0.586000 0.012000 0.220000
v 0.526000 0.012000 0.220000
v 0.526000 0.000000 -0.220000
v 0.526000 0.000000 -0.272000
v 0.586000 0.000000 -0.272000
v 0.586000 0.000000 -0.220000
v 0.526000 0.012000 -0.220000
v 0.586000 0.012000 -0.220000
v 0.586000 0.012000 -0.272000
v 0.526000 0.012000 -0.272000
v 0.511000 0.034000 0.035000
v 0.511000 0.034000 -0.035000
v 0.601000 0.034000 -0.035000
v 0.601000 0.034000 0.035000
v 0.511000 0.492000 0.035000
v 0.601000 0.492000 0.035000
v 0.601000 0.492000 -0.035000
v 0.511000 0.492000 -0.035000
v 0.518000 0.452000 0.029000
v 0.518000 0.452000 -0.029000
v 0.594000 0.452000 -0.029000
v 0.594000 0.452000 0.029000
v 0.518000 0.834000 0.029000
v 0.594000 0.834000 0.029000
v 0.594000 0.834000 -0.029000
v 0.518000 0.834000 -0.029000
v 0.525000 0.794000 0.024000
v 0.525000 0.794000 -0.024000
v 0.587000 0.794000 -0.024000
v 0.587000 0.794000 0.024000
v 0.525000 1.080000 0.024000
v 0.587000 1.080000 0.024000
v 0.587000 1.080000 -0.024000
v 0.525000 1.080000 -0.024000
v -0.556000 1.014000 0.030000
v -0.556000 1.014000 -0.030000
v 0.556000 1.014000 -0.030000
v 0.556000 1.014000 0.030000
v -0.556000 1.072000 0.030000
v 0.556000 1.072000 0.030000
v 0.556000 1.072000 -0.030000
v -0.556000 1.072000 -0.030000
v -0.695528 1.076000 -0.347764
v 0.695528 1.076000 -0.347764
v 0.695528 1.076000 0.347764
v -0.695528 1.076000 0.347764
v 0.700000 1.081000 0.350000
v -0.700000 1.081000 0.350000
v 0.700000 1.081000 -0.350000
v -0.700000 1.081000 -0.350000
v 0.700000 1.095000 0.350000
v -0.700000 1.095000 0.350000
v 0.700000 1.095000 -0.350000
v -0.700000 1.095000 -0.350000
v -0.695528 1.100000 0.347764
v 0.695528 1.100000 0.347764
v 0.695528 1.100000 -0.347764
v -0.695528 1.100000 -0.347764
v 0.286000 1.036000 0.340000
v 0.286000 1.036000 0.272000
v 0.436000 1.036000 0.272000
v 0.436000 1.036000 0.340000
v 0.286000 1.076000 0.340000
v 0.436000 1.076000 0.340000
v 0.436000 1.076000 0.272000
v 0.286000 1.076000 0.272000
v 0.302000 1.044000 0.342000
v 0.302000 1.044000 0.339000
v 0.420000 1.044000 0.339000
v 0.420000 1.044000 0.342000
v 0.302000 1.066000 0.342000
v 0.420000 1.066000 0.342000
v 0.420000 1.066000 0.339000
v 0.302000 1.066000 0.339000
vn -0.0000 -1.0000 -0.0000
vn -0.0000 1.0000 -0.0000
vn -0.0000 0.5812 0.8137
vn 0.9778 0.2095 -0.0000
vn -0.0000 0.5812 -0.8137
vn -0.9778 0.2095 -0.0000
vn -0.0000 -0.0000 1.0000
vn -0.0000 -0.0000 -1.0000
vn -1.0000 -0.0000 -0.0000
vn 1.0000 -0.0000 -0.0000
vn -0.0000 -0.4083 0.9129
vn 0.7454 -0.6667 -0.0000
vn -0.0000 -0.4083 -0.9129
vn -0.7454 -0.6667 -0.0000
vn -0.0000 0.4083 0.9129
vn 0.7454 0.6667 -0.0000
vn -0.0000 0.4083 -0.9129
vn -0.7454 0.6667 -0.0000
vt 0.812500 0.312500
vt 0.937500 0.187500
vt 0.562500 0.812500
vt 0.437500 0.812500
vt 0.937500 0.312500
vt 0.937500 0.062500
s 0
usemtl FN_Atlas
f 1/1/1 2/1/1 3/1/1 4/1/1
f 5/1/2 6/1/2 7/1/2 8/1/2
f 4/1/3 3/1/3 6/1/3 5/1/3
f 3/1/4 2/1/4 7/1/4 6/1/4
f 2/1/5 1/1/5 8/1/5 7/1/5
f 1/1/6 4/1/6 5/1/6 8/1/6
f 9/2/1 10/2/1 11/2/1 12/2/1
f 13/2/2 14/2/2 15/2/2 16/2/2
f 9/2/7 12/2/7 14/2/7 13/2/7
f 11/2/8 10/2/8 16/2/8 15/2/8
f 9/2/9 13/2/9 16/2/9 10/2/9
f 12/2/10 11/2/10 15/2/10 14/2/10
f 17/2/1 18/2/1 19/2/1 20/2/1
f 21/2/2 22/2/2 23/2/2 24/2/2
f 17/2/7 20/2/7 22/2/7 21/2/7
f 19/2/8 18/2/8 24/2/8 23/2/8
f 17/2/9 21/2/9 24/2/9 18/2/9
f 20/2/10 19/2/10 23/2/10 22/2/10
f 25/1/1 26/1/1 27/1/1 28/1/1
f 29/1/2 30/1/2 31/1/2 32/1/2
f 25/1/7 28/1/7 30/1/7 29/1/7
f 27/1/8 26/1/8 32/1/8 31/1/8
f 25/1/9 29/1/9 32/1/9 26/1/9
f 28/1/10 27/1/10 31/1/10 30/1/10
f 33/1/1 34/1/1 35/1/1 36/1/1
f 37/1/2 38/1/2 39/1/2 40/1/2
f 33/1/7 36/1/7 38/1/7 37/1/7
f 35/1/8 34/1/8 40/1/8 39/1/8
f 33/1/9 37/1/9 40/1/9 34/1/9
f 36/1/10 35/1/10 39/1/10 38/1/10
f 41/1/1 42/1/1 43/1/1 44/1/1
f 45/1/2 46/1/2 47/1/2 48/1/2
f 41/1/7 44/1/7 46/1/7 45/1/7
f 43/1/8 42/1/8 48/1/8 47/1/8
f 41/1/9 45/1/9 48/1/9 42/1/9
f 44/1/10 43/1/10 47/1/10 46/1/10
f 49/1/1 50/1/1 51/1/1 52/1/1
f 53/1/2 54/1/2 55/1/2 56/1/2
f 52/1/3 51/1/3 54/1/3 53/1/3
f 51/1/4 50/1/4 55/1/4 54/1/4
f 50/1/5 49/1/5 56/1/5 55/1/5
f 49/1/6 52/1/6 53/1/6 56/1/6
f 57/2/1 58/2/1 59/2/1 60/2/1
f 61/2/2 62/2/2 63/2/2 64/2/2
f 57/2/7 60/2/7 62/2/7 61/2/7
f 59/2/8 58/2/8 64/2/8 63/2/8
f 57/2/9 61/2/9 64/2/9 58/2/9
f 60/2/10 59/2/10 63/2/10 62/2/10
f 65/2/1 66/2/1 67/2/1 68/2/1
f 69/2/2 70/2/2 71/2/2 72/2/2
f 65/2/7 68/2/7 70/2/7 69/2/7
f 67/2/8 66/2/8 72/2/8 71/2/8
f 65/2/9 69/2/9 72/2/9 66/2/9
f 68/2/10 67/2/10 71/2/10 70/2/10
f 73/1/1 74/1/1 75/1/1 76/1/1
f 77/1/2 78/1/2 79/1/2 80/1/2
f 73/1/7 76/1/7 78/1/7 77/1/7
f 75/1/8 74/1/8 80/1/8 79/1/8
f 73/1/9 77/1/9 80/1/9 74/1/9
f 76/1/10 75/1/10 79/1/10 78/1/10
f 81/1/1 82/1/1 83/1/1 84/1/1
f 85/1/2 86/1/2 87/1/2 88/1/2
f 81/1/7 84/1/7 86/1/7 85/1/7
f 83/1/8 82/1/8 88/1/8 87/1/8
f 81/1/9 85/1/9 88/1/9 82/1/9
f 84/1/10 83/1/10 87/1/10 86/1/10
f 89/1/1 90/1/1 91/1/1 92/1/1
f 93/1/2 94/1/2 95/1/2 96/1/2
f 89/1/7 92/1/7 94/1/7 93/1/7
f 91/1/8 90/1/8 96/1/8 95/1/8
f 89/1/9 93/1/9 96/1/9 90/1/9
f 92/1/10 91/1/10 95/1/10 94/1/10
f 97/1/1 98/1/1 99/1/1 100/1/1
f 101/1/2 102/1/2 103/1/2 104/1/2
f 97/1/7 100/1/7 102/1/7 101/1/7
f 99/1/8 98/1/8 104/1/8 103/1/8
f 97/1/9 101/1/9 104/1/9 98/1/9
f 100/1/10 99/1/10 103/1/10 102/1/10
f 105/3/1 106/3/1 107/3/1 108/3/1
f 108/3/11 107/3/11 109/3/11 110/3/11
f 107/3/12 106/3/12 111/3/12 109/3/12
f 106/3/13 105/3/13 112/3/13 111/3/13
f 105/3/14 108/3/14 110/3/14 112/3/14
f 110/3/7 109/3/7 113/3/7 114/3/7
f 109/3/10 111/3/10 115/3/10 113/3/10
f 111/3/8 112/3/8 116/3/8 115/3/8
f 112/3/9 110/3/9 114/3/9 116/3/9
f 117/4/2 118/4/2 119/4/2 120/4/2
f 114/3/15 113/3/15 118/3/15 117/3/15
f 113/3/16 115/3/16 119/3/16 118/3/16
f 115/3/17 116/3/17 120/3/17 119/3/17
f 116/3/18 114/3/18 117/3/18 120/3/18
f 121/5/1 122/5/1 123/5/1 124/5/1
f 125/5/2 126/5/2 127/5/2 128/5/2
f 121/5/7 124/5/7 126/5/7 125/5/7
f 123/5/8 122/5/8 128/5/8 127/5/8
f 121/5/9 125/5/9 128/5/9 122/5/9
f 124/5/10 123/5/10 127/5/10 126/5/10
usemtl FN_Glow
f 129/6/1 130/6/1 131/6/1 132/6/1
f 133/6/2 134/6/2 135/6/2 136/6/2
f 129/6/7 132/6/7 134/6/7 133/6/7
f 131/6/8 130/6/8 136/6/8 135/6/8
f 129/6/9 133/6/9 136/6/9 130/6/9
f 132/6/10 131/6/10 135/6/10 134/6/10
