# Blender 5.2.0 LTS
# www.blender.org
mtllib FN_Hall_Tree.mtl
o FN_Hall_Tree
v -0.450000 0.000000 0.190000
v -0.450000 0.000000 -0.210000
v -0.420000 0.000000 -0.210000
v -0.420000 0.000000 0.190000
v -0.450000 0.430000 0.190000
v -0.420000 0.430000 0.190000
v -0.420000 0.430000 -0.210000
v -0.450000 0.430000 -0.210000
v 0.420000 0.000000 0.190000
v 0.420000 0.000000 -0.210000
v 0.450000 0.000000 -0.210000
v 0.450000 0.000000 0.190000
v 0.420000 0.430000 0.190000
v 0.450000 0.430000 0.190000
v 0.450000 0.430000 -0.210000
v 0.420000 0.430000 -0.210000
v -0.430000 0.000000 -0.170000
v -0.430000 0.000000 -0.206000
v 0.430000 0.000000 -0.206000
v 0.430000 0.000000 -0.170000
v -0.430000 1.900000 -0.170000
v 0.430000 1.900000 -0.170000
v 0.430000 1.900000 -0.206000
v -0.430000 1.900000 -0.206000
v -0.430000 0.060000 0.170000
v -0.430000 0.060000 -0.190000
v 0.430000 0.060000 -0.190000
v 0.430000 0.060000 0.170000
v -0.430000 0.090000 0.170000
v 0.430000 0.090000 0.170000
v 0.430000 0.090000 -0.190000
v -0.430000 0.090000 -0.190000
v -0.450000 0.420000 0.210000
v -0.450000 0.420000 -0.210000
v 0.450000 0.420000 -0.210000
v 0.450000 0.420000 0.210000
v -0.450000 0.450000 0.210000
v 0.450000 0.450000 0.210000
v 0.450000 0.450000 -0.210000
v -0.450000 0.450000 -0.210000
v -0.450000 0.440000 -0.120000
v -0.450000 0.440000 -0.180000
v -0.410000 0.440000 -0.180000
v -0.410000 0.440000 -0.120000
v -0.450000 1.720000 -0.120000
v -0.410000 1.720000 -0.120000
v -0.410000 1.720000 -0.180000
v -0.450000 1.720000 -0.180000
v 0.410000 0.440000 -0.120000
v 0.410000 0.440000 -0.180000
v 0.450000 0.440000 -0.180000
v 0.450000 0.440000 -0.120000
v 0.410000 1.720000 -0.120000
v 0.450000 1.720000 -0.120000
v 0.450000 1.720000 -0.180000
v 0.410000 1.720000 -0.180000
v -0.450000 1.660000 0.200000
v -0.450000 1.660000 -0.190000
v 0.450000 1.660000 -0.190000
v 0.450000 1.660000 0.200000
v -0.450000 1.690000 0.200000
v 0.450000 1.690000 0.200000
v 0.450000 1.690000 -0.190000
v -0.450000 1.690000 -0.190000
v -0.190000 0.700000 -0.154000
v -0.190000 0.700000 -0.174000
v 0.190000 0.700000 -0.174000
v 0.190000 0.700000 -0.154000
v -0.190000 1.240000 -0.154000
v 0.190000 1.240000 -0.154000
v 0.190000 1.240000 -0.174000
v -0.190000 1.240000 -0.174000
v -0.344000 1.420000 -0.100000
v -0.344000 1.420000 -0.178000
v -0.316000 1.420000 -0.178000
v -0.316000 1.420000 -0.100000
v -0.344000 1.450000 -0.100000
v -0.316000 1.450000 -0.100000
v -0.316000 1.450000 -0.178000
v -0.344000 1.450000 -0.178000
v -0.344000 1.440000 -0.100000
v -0.344000 1.440000 -0.128000
v -0.316000 1.440000 -0.128000
v -0.316000 1.440000 -0.100000
v -0.344000 1.484000 -0.100000
v -0.316000 1.484000 -0.100000
v -0.316000 1.484000 -0.128000
v -0.344000 1.484000 -0.128000
v -0.124000 1.420000 -0.100000
v -0.124000 1.420000 -0.178000
v -0.096000 1.420000 -0.178000
v -0.096000 1.420000 -0.100000
v -0.124000 1.450000 -0.100000
v -0.096000 1.450000 -0.100000
v -0.096000 1.450000 -0.178000
v -0.124000 1.450000 -0.178000
v -0.124000 1.440000 -0.100000
v -0.124000 1.440000 -0.128000
v -0.096000 1.440000 -0.128000
v -0.096000 1.440000 -0.100000
v -0.124000 1.484000 -0.100000
v -0.096000 1.484000 -0.100000
v -0.096000 1.484000 -0.128000
v -0.124000 1.484000 -0.128000
v 0.096000 1.420000 -0.100000
v 0.096000 1.420000 -0.178000
v 0.124000 1.420000 -0.178000
v 0.124000 1.420000 -0.100000
v 0.096000 1.450000 -0.100000
v 0.124000 1.450000 -0.100000
v 0.124000 1.450000 -0.178000
v 0.096000 1.450000 -0.178000
v 0.096000 1.440000 -0.100000
v 0.096000 1.440000 -0.128000
v 0.124000 1.440000 -0.128000
v 0.124000 1.440000 -0.100000
v 0.096000 1.484000 -0.100000
v 0.124000 1.484000 -0.100000
v 0.124000 1.484000 -0.128000
v 0.096000 1.484000 -0.128000
v 0.316000 1.420000 -0.100000
v 0.316000 1.420000 -0.178000
v 0.344000 1.420000 -0.178000
v 0.344000 1.420000 -0.100000
v 0.316000 1.450000 -0.100000
v 0.344000 1.450000 -0.100000
v 0.344000 1.450000 -0.178000
v 0.316000 1.450000 -0.178000
v 0.316000 1.440000 -0.100000
v 0.316000 1.440000 -0.128000
v 0.344000 1.440000 -0.128000
v 0.344000 1.440000 -0.100000
v 0.316000 1.484000 -0.100000
v 0.344000 1.484000 -0.100000
v 0.344000 1.484000 -0.128000
v 0.316000 1.484000 -0.128000
v -0.212000 0.678000 -0.150000
v -0.212000 0.678000 -0.172000
v 0.212000 0.678000 -0.172000
v 0.212000 0.678000 -0.150000
v -0.212000 0.700000 -0.150000
v 0.212000 0.700000 -0.150000
v 0.212000 0.700000 -0.172000
v -0.212000 0.700000 -0.172000
v -0.212000 1.240000 -0.150000
v -0.212000 1.240000 -0.172000
v 0.212000 1.240000 -0.172000
v 0.212000 1.240000 -0.150000
v -0.212000 1.262000 -0.150000
v 0.212000 1.262000 -0.150000
v 0.212000 1.262000 -0.172000
v -0.212000 1.262000 -0.172000
v -0.206000 0.690000 -0.150000
v -0.206000 0.690000 -0.172000
v -0.190000 0.690000 -0.172000
v -0.190000 0.690000 -0.150000
v -0.206000 1.250000 -0.150000
v -0.190000 1.250000 -0.150000
v -0.190000 1.250000 -0.172000
v -0.206000 1.250000 -0.172000
v 0.190000 0.690000 -0.150000
v 0.190000 0.690000 -0.172000
v 0.206000 0.690000 -0.172000
v 0.206000 0.690000 -0.150000
v 0.190000 1.250000 -0.150000
v 0.206000 1.250000 -0.150000
v 0.206000 1.250000 -0.172000
v 0.190000 1.250000 -0.172000
v 0.060000 0.082000 -0.140000
v 0.330000 0.082000 -0.140000
v 0.330000 0.082000 0.120000
v 0.060000 0.082000 0.120000
v 0.045000 0.290000 0.135000
v 0.345000 0.290000 0.135000
v 0.345000 0.290000 -0.155000
v 0.045000 0.290000 -0.155000
vn -0.0000 -1.0000 -0.0000
vn -0.0000 1.0000 -0.0000
vn -0.0000 -0.0000 1.0000
vn -0.0000 -0.0000 -1.0000
vn -1.0000 -0.0000 -0.0000
vn 1.0000 -0.0000 -0.0000
vn -0.0000 -0.0719 0.9974
vn 0.9974 -0.0719 -0.0000
vn -0.0000 -0.0719 -0.9974
vn -0.9974 -0.0719 -0.0000
vt 0.437500 0.937500
vt 0.937500 0.687500
vt 0.187500 0.312500
vt 0.812500 0.312500
vt 0.812500 0.687500
s 0
usemtl FN_Atlas
f 1/1/1 2/1/1 3/1/1 4/1/1
f 5/1/2 6/1/2 7/1/2 8/1/2
f 1/1/3 4/1/3 6/1/3 5/1/3
f 3/1/4 2/1/4 8/1/4 7/1/4
f 1/1/5 5/1/5 8/1/5 2/1/5
f 4/2/6 3/2/6 7/2/6 6/2/6
f 9/1/1 10/1/1 11/1/1 12/1/1
f 13/1/2 14/1/2 15/1/2 16/1/2
f 9/1/3 12/1/3 14/1/3 13/1/3
f 11/1/4 10/1/4 16/1/4 15/1/4
f 9/2/5 13/2/5 16/2/5 10/2/5
f 12/1/6 11/1/6 15/1/6 14/1/6
f 17/1/1 18/1/1 19/1/1 20/1/1
f 21/1/2 22/1/2 23/1/2 24/1/2
f 17/2/3 20/2/3 22/2/3 21/2/3
f 19/1/4 18/1/4 24/1/4 23/1/4
f 17/1/5 21/1/5 24/1/5 18/1/5
f 20/1/6 19/1/6 23/1/6 22/1/6
f 25/1/1 26/1/1 27/1/1 28/1/1
f 29/2/2 30/2/2 31/2/2 32/2/2
f 25/1/3 28/1/3 30/1/3 29/1/3
f 27/1/4 26/1/4 32/1/4 31/1/4
f 25/1/5 29/1/5 32/1/5 26/1/5
f 28/1/6 27/1/6 31/1/6 30/1/6
f 33/2/1 34/2/1 35/2/1 36/2/1
f 37/1/2 38/1/2 39/1/2 40/1/2
f 33/1/3 36/1/3 38/1/3 37/1/3
f 35/1/4 34/1/4 40/1/4 39/1/4
f 33/1/5 37/1/5 40/1/5 34/1/5
f 36/1/6 35/1/6 39/1/6 38/1/6
f 41/1/1 42/1/1 43/1/1 44/1/1
f 45/1/2 46/1/2 47/1/2 48/1/2
f 41/1/3 44/1/3 46/1/3 45/1/3
f 43/1/4 42/1/4 48/1/4 47/1/4
f 41/1/5 45/1/5 48/1/5 42/1/5
f 44/1/6 43/1/6 47/1/6 46/1/6
f 49/1/1 50/1/1 51/1/1 52/1/1
f 53/1/2 54/1/2 55/1/2 56/1/2
f 49/1/3 52/1/3 54/1/3 53/1/3
f 51/1/4 50/1/4 56/1/4 55/1/4
f 49/1/5 53/1/5 56/1/5 50/1/5
f 52/1/6 51/1/6 55/1/6 54/1/6
f 57/1/1 58/1/1 59/1/1 60/1/1
f 61/1/2 62/1/2 63/1/2 64/1/2
f 57/1/3 60/1/3 62/1/3 61/1/3
f 59/1/4 58/1/4 64/1/4 63/1/4
f 57/1/5 61/1/5 64/1/5 58/1/5
f 60/1/6 59/1/6 63/1/6 62/1/6
f 65/3/1 66/3/1 67/3/1 68/3/1
f 69/3/2 70/3/2 71/3/2 72/3/2
f 65/3/3 68/3/3 70/3/3 69/3/3
f 67/3/4 66/3/4 72/3/4 71/3/4
f 65/3/5 69/3/5 72/3/5 66/3/5
f 68/3/6 67/3/6 71/3/6 70/3/6
f 73/4/1 74/4/1 75/4/1 76/4/1
f 77/4/2 78/4/2 79/4/2 80/4/2
f 73/4/3 76/4/3 78/4/3 77/4/3
f 75/4/4 74/4/4 80/4/4 79/4/4
f 73/4/5 77/4/5 80/4/5 74/4/5
f 76/4/6 75/4/6 79/4/6 78/4/6
f 81/4/1 82/4/1 83/4/1 84/4/1
f 85/4/2 86/4/2 87/4/2 88/4/2
f 81/4/3 84/4/3 86/4/3 85/4/3
f 83/4/4 82/4/4 88/4/4 87/4/4
f 81/4/5 85/4/5 88/4/5 82/4/5
f 84/4/6 83/4/6 87/4/6 86/4/6
f 89/4/1 90/4/1 91/4/1 92/4/1
f 93/4/2 94/4/2 95/4/2 96/4/2
f 89/4/3 92/4/3 94/4/3 93/4/3
f 91/4/4 90/4/4 96/4/4 95/4/4
f 89/4/5 93/4/5 96/4/5 90/4/5
f 92/4/6 91/4/6 95/4/6 94/4/6
f 97/4/1 98/4/1 99/4/1 100/4/1
f 101/4/2 102/4/2 103/4/2 104/4/2
f 97/4/3 100/4/3 102/4/3 101/4/3
f 99/4/4 98/4/4 104/4/4 103/4/4
f 97/4/5 101/4/5 104/4/5 98/4/5
f 100/4/6 99/4/6 103/4/6 102/4/6
f 105/4/1 106/4/1 107/4/1 108/4/1
f 109/4/2 110/4/2 111/4/2 112/4/2
f 105/4/3 108/4/3 110/4/3 109/4/3
f 107/4/4 106/4/4 112/4/4 111/4/4
f 105/4/5 109/4/5 112/4/5 106/4/5
f 108/4/6 107/4/6 111/4/6 110/4/6
f 113/4/1 114/4/1 115/4/1 116/4/1
f 117/4/2 118/4/2 119/4/2 120/4/2
f 113/4/3 116/4/3 118/4/3 117/4/3
f 115/4/4 114/4/4 120/4/4 119/4/4
f 113/4/5 117/4/5 120/4/5 114/4/5
f 116/4/6 115/4/6 119/4/6 118/4/6
f 121/4/1 122/4/1 123/4/1 124/4/1
f 125/4/2 126/4/2 127/4/2 128/4/2
f 121/4/3 124/4/3 126/4/3 125/4/3
f 123/4/4 122/4/4 128/4/4 127/4/4
f 121/4/5 125/4/5 128/4/5 122/4/5
f 124/4/6 123/4/6 127/4/6 126/4/6
f 129/4/1 130/4/1 131/4/1 132/4/1
f 133/4/2 134/4/2 135/4/2 136/4/2
f 129/4/3 132/4/3 134/4/3 133/4/3
f 131/4/4 130/4/4 136/4/4 135/4/4
f 129/4/5 133/4/5 136/4/5 130/4/5
f 132/4/6 131/4/6 135/4/6 134/4/6
f 137/1/1 138/1/1 139/1/1 140/1/1
f 141/1/2 142/1/2 143/1/2 144/1/2
f 137/1/3 140/1/3 142/1/3 141/1/3
f 139/1/4 138/1/4 144/1/4 143/1/4
f 137/1/5 141/1/5 144/1/5 138/1/5
f 140/1/6 139/1/6 143/1/6 142/1/6
f 145/1/1 146/1/1 147/1/1 148/1/1
f 149/1/2 150/1/2 151/1/2 152/1/2
f 145/1/3 148/1/3 150/1/3 149/1/3
f 147/1/4 146/1/4 152/1/4 151/1/4
f 145/1/5 149/1/5 152/1/5 146/1/5
f 148/1/6 147/1/6 151/1/6 150/1/6
f 153/1/1 154/1/1 155/1/1 156/1/1
f 157/1/2 158/1/2 159/1/2 160/1/2
f 153/1/3 156/1/3 158/1/3 157/1/3
f 155/1/4 154/1/4 160/1/4 159/1/4
f 153/1/5 157/1/5 160/1/5 154/1/5
f 156/1/6 155/1/6 159/1/6 158/1/6
f 161/1/1 162/1/1 163/1/1 164/1/1
f 165/1/2 166/1/2 167/1/2 168/1/2
f 161/1/3 164/1/3 166/1/3 165/1/3
f 163/1/4 162/1/4 168/1/4 167/1/4
f 161/1/5 165/1/5 168/1/5 162/1/5
f 164/1/6 163/1/6 167/1/6 166/1/6
f 169/5/1 170/5/1 171/5/1 172/5/1
f 173/5/2 174/5/2 175/5/2 176/5/2
f 172/5/7 171/5/7 174/5/7 173/5/7
f 171/5/8 170/5/8 175/5/8 174/5/8
f 170/5/9 169/5/9 176/5/9 175/5/9
f 169/5/10 172/5/10 173/5/10 176/5/10
