# Blender 5.2.0 LTS
# www.blender.org
mtllib FN_Hammock_Stand.mtl
o FN_Hammock_Stand
v 0.024749 0.059749 1.100000
v -0.000000 0.070000 1.100000
v -0.024749 0.059749 1.100000
v -0.035000 0.035000 1.100000
v -0.024749 0.010251 1.100000
v 0.000000 0.000000 1.100000
v 0.024749 0.010251 1.100000
v 0.035000 0.035000 1.100000
v 0.035000 0.035000 -1.100000
v 0.024749 0.010251 -1.100000
v 0.000000 0.000000 -1.100000
v -0.024749 0.010251 -1.100000
v -0.035000 0.035000 -1.100000
v -0.024749 0.059749 -1.100000
v -0.000000 0.070000 -1.100000
v 0.024749 0.059749 -1.100000
v -0.320000 0.059749 1.104749
v -0.320000 0.070000 1.080000
v -0.320000 0.059749 1.055251
v -0.320000 0.035000 1.045000
v -0.320000 0.010251 1.055251
v -0.320000 0.000000 1.080000
v -0.320000 0.010251 1.104749
v -0.320000 0.035000 1.115000
v 0.320000 0.035000 1.115000
v 0.320000 0.010251 1.104749
v 0.320000 0.000000 1.080000
v 0.320000 0.010251 1.055251
v 0.320000 0.035000 1.045000
v 0.320000 0.059749 1.055251
v 0.320000 0.070000 1.080000
v 0.320000 0.059749 1.104749
v -0.320000 0.059749 -1.055251
v -0.320000 0.070000 -1.080000
v -0.320000 0.059749 -1.104749
v -0.320000 0.035000 -1.115000
v -0.320000 0.010251 -1.104749
v -0.320000 0.000000 -1.080000
v -0.320000 0.010251 -1.055251
v -0.320000 0.035000 -1.045000
v 0.320000 0.035000 -1.045000
v 0.320000 0.010251 -1.055251
v 0.320000 0.000000 -1.080000
v 0.320000 0.010251 -1.104749
v 0.320000 0.035000 -1.115000
v 0.320000 0.059749 -1.104749
v 0.320000 0.070000 -1.080000
v 0.320000 0.059749 -1.055251
v -0.019000 0.033149 1.047143
v 0.019000 0.033149 1.047143
v 0.038000 0.035000 1.080000
v 0.019000 0.036851 1.112857
v -0.019000 0.036851 1.112857
v -0.038000 0.035000 1.080000
v -0.035000 0.390000 1.060000
v -0.017500 0.391705 1.090263
v 0.017500 0.391705 1.090263
v 0.035000 0.390000 1.060000
v 0.017500 0.388295 1.029737
v -0.017500 0.388295 1.029737
v -0.017500 0.384056 1.030278
v 0.017500 0.384056 1.030278
v 0.017500 0.395944 1.089722
v -0.017500 0.395944 1.089722
v -0.032000 0.740000 0.990000
v -0.016000 0.745435 1.017175
v 0.016000 0.745435 1.017175
v 0.032000 0.740000 0.990000
v 0.016000 0.734565 0.962825
v -0.016000 0.734565 0.962825
v -0.016000 0.729202 0.964477
v 0.016000 0.729202 0.964477
v 0.016000 0.750798 1.015523
v -0.016000 0.750798 1.015523
v -0.029000 1.000000 0.880000
v -0.014500 1.009786 0.903130
v 0.014500 1.009786 0.903130
v 0.029000 1.000000 0.880000
v 0.014500 0.990214 0.856870
v -0.014500 0.990214 0.856870
v 0.014500 1.016344 0.899069
v -0.014500 1.016344 0.899069
v -0.014500 0.983656 0.860931
v 0.014500 0.983656 0.860931
v 0.026000 1.140000 0.760000
v 0.013000 1.125346 0.742904
v -0.013000 1.125346 0.742904
v -0.026000 1.140000 0.760000
v -0.013000 1.154654 0.777096
v 0.013000 1.154654 0.777096
v -0.019000 0.036851 -1.112857
v 0.019000 0.036851 -1.112857
v 0.038000 0.035000 -1.080000
v 0.019000 0.033149 -1.047143
v -0.019000 0.033149 -1.047143
v -0.038000 0.035000 -1.080000
v -0.035000 0.390000 -1.060000
v -0.017500 0.388295 -1.029737
v 0.017500 0.388295 -1.029737
v 0.035000 0.390000 -1.060000
v 0.017500 0.391705 -1.090263
v -0.017500 0.391705 -1.090263
v -0.017500 0.395944 -1.089722
v 0.017500 0.395944 -1.089722
v 0.017500 0.384056 -1.030278
v -0.017500 0.384056 -1.030278
v -0.032000 0.740000 -0.990000
v -0.016000 0.734565 -0.962825
v 0.016000 0.734565 -0.962825
v 0.032000 0.740000 -0.990000
v 0.016000 0.745435 -1.017175
v -0.016000 0.745435 -1.017175
v -0.016000 0.750798 -1.015523
v 0.016000 0.750798 -1.015523
v 0.016000 0.729202 -0.964477
v -0.016000 0.729202 -0.964477
v -0.029000 1.000000 -0.880000
v -0.014500 0.990214 -0.856870
v 0.014500 0.990214 -0.856870
v 0.029000 1.000000 -0.880000
v 0.014500 1.009786 -0.903130
v -0.014500 1.009786 -0.903130
v -0.014500 1.016344 -0.899069
v 0.014500 1.016344 -0.899069
v 0.014500 0.983656 -0.860931
v -0.014500 0.983656 -0.860931
v -0.026000 1.140000 -0.760000
v -0.013000 1.125346 -0.742904
v 0.013000 1.125346 -0.742904
v 0.026000 1.140000 -0.760000
v 0.013000 1.154654 -0.777096
v -0.013000 1.154654 -0.777096
v -0.183036 1.071919 0.700000
v -0.091518 1.045632 0.700000
v -0.169918 0.800758 0.525000
v -0.339836 0.849564 0.525000
v -0.339836 0.835564 0.525000
v -0.169918 0.786758 0.525000
v -0.091518 1.031632 0.700000
v -0.183036 1.057919 0.700000
v 0.000000 1.036870 0.700000
v 0.000000 0.784489 0.525000
v 0.000000 0.770489 0.525000
v 0.000000 1.022870 0.700000
v 0.091518 1.045632 0.700000
v 0.169918 0.800758 0.525000
v 0.169918 0.786758 0.525000
v 0.091518 1.031632 0.700000
v 0.183036 1.071919 0.700000
v 0.339836 0.849564 0.525000
v 0.339836 0.835564 0.525000
v 0.183036 1.057919 0.700000
v -0.208597 0.624189 0.350000
v -0.417194 0.684106 0.350000
v -0.417194 0.670106 0.350000
v -0.208597 0.610189 0.350000
v 0.000000 0.604217 0.350000
v 0.000000 0.590217 0.350000
v 0.208597 0.624189 0.350000
v 0.208597 0.610189 0.350000
v 0.417194 0.684106 0.350000
v 0.417194 0.670106 0.350000
v -0.228685 0.517950 0.175000
v -0.457370 0.583636 0.175000
v -0.457370 0.569636 0.175000
v -0.228685 0.503950 0.175000
v 0.000000 0.496054 0.175000
v 0.000000 0.482054 0.175000
v 0.228685 0.517950 0.175000
v 0.228685 0.503950 0.175000
v 0.457370 0.583636 0.175000
v 0.457370 0.569636 0.175000
v -0.235000 0.482500 0.000000
v -0.470000 0.550000 0.000000
v -0.470000 0.536000 0.000000
v -0.235000 0.468500 0.000000
v 0.000000 0.460000 0.000000
v 0.000000 0.446000 0.000000
v 0.235000 0.482500 0.000000
v 0.235000 0.468500 0.000000
v 0.470000 0.550000 0.000000
v 0.470000 0.536000 0.000000
v -0.228685 0.517950 -0.175000
v -0.457370 0.583636 -0.175000
v -0.457370 0.569636 -0.175000
v -0.228685 0.503950 -0.175000
v 0.000000 0.496054 -0.175000
v 0.000000 0.482054 -0.175000
v 0.228685 0.517950 -0.175000
v 0.228685 0.503950 -0.175000
v 0.457370 0.583636 -0.175000
v 0.457370 0.569636 -0.175000
v -0.208597 0.624189 -0.350000
v -0.417194 0.684106 -0.350000
v -0.417194 0.670106 -0.350000
v -0.208597 0.610189 -0.350000
v 0.000000 0.604217 -0.350000
v 0.000000 0.590217 -0.350000
v 0.208597 0.624189 -0.350000
v 0.208597 0.610189 -0.350000
v 0.417194 0.684106 -0.350000
v 0.417194 0.670106 -0.350000
v -0.169918 0.800758 -0.525000
v -0.339836 0.849564 -0.525000
v -0.339836 0.835564 -0.525000
v -0.169918 0.786758 -0.525000
v 0.000000 0.784489 -0.525000
v 0.000000 0.770489 -0.525000
v 0.169918 0.800758 -0.525000
v 0.169918 0.786758 -0.525000
v 0.339836 0.849564 -0.525000
v 0.339836 0.835564 -0.525000
v -0.091518 1.045632 -0.700000
v -0.183036 1.071919 -0.700000
v -0.183036 1.057919 -0.700000
v -0.091518 1.031632 -0.700000
v 0.000000 1.036870 -0.700000
v 0.000000 1.022870 -0.700000
v 0.091518 1.045632 -0.700000
v 0.091518 1.031632 -0.700000
v 0.183036 1.071919 -0.700000
v 0.183036 1.057919 -0.700000
v -0.005000 1.037102 0.692444
v 0.005000 1.037102 0.692444
v 0.010000 1.032870 0.700000
v 0.005000 1.028638 0.707556
v -0.005000 1.028638 0.707556
v -0.010000 1.032870 0.700000
v -0.010000 1.140000 0.760000
v -0.005000 1.135768 0.767556
v 0.005000 1.135768 0.767556
v 0.010000 1.140000 0.760000
v 0.005000 1.144232 0.752444
v -0.005000 1.144232 0.752444
v 0.005000 1.037102 -0.692444
v -0.005000 1.037102 -0.692444
v -0.010000 1.032870 -0.700000
v -0.005000 1.028638 -0.707556
v 0.005000 1.028638 -0.707556
v 0.010000 1.032870 -0.700000
v 0.010000 1.140000 -0.760000
v 0.005000 1.135768 -0.767556
v -0.005000 1.135768 -0.767556
v -0.010000 1.140000 -0.760000
v -0.005000 1.144232 -0.752444
v 0.005000 1.144232 -0.752444
vn -0.0000 -0.0000 1.0000
vn -0.0000 -0.0000 -1.0000
vn 0.9239 -0.3827 -0.0000
vn 0.3827 -0.9239 -0.0000
vn -0.3827 -0.9239 -0.0000
vn -0.9239 -0.3827 -0.0000
vn -0.9239 0.3827 -0.0000
vn -0.3827 0.9239 -0.0000
vn 0.3827 0.9239 -0.0000
vn 0.9239 0.3827 -0.0000
vn -1.0000 -0.0000 -0.0000
vn 1.0000 -0.0000 -0.0000
vn -0.0000 -0.3827 0.9239
vn -0.0000 -0.9239 0.3827
vn -0.0000 -0.9239 -0.3827
vn -0.0000 -0.3827 -0.9239
vn -0.0000 0.3827 -0.9239
vn -0.0000 0.9239 -0.3827
vn -0.0000 0.9239 0.3827
vn -0.0000 0.3827 0.9239
vn -0.0000 -0.9984 0.0562
vn -0.0000 0.9984 -0.0562
vn -0.8660 0.0354 0.4988
vn -0.0000 0.0635 0.9980
vn 0.8660 0.0354 0.4988
vn 0.8660 -0.0208 -0.4996
vn -0.0000 -0.0490 -0.9988
vn -0.8660 -0.0208 -0.4996
vn -0.0000 -0.9806 0.1961
vn -0.0000 0.9806 -0.1961
vn -0.8660 0.1052 0.4888
vn -0.0000 0.2032 0.9791
vn 0.8660 0.1052 0.4888
vn 0.8660 -0.0909 -0.4917
vn -0.0000 -0.1890 -0.9820
vn -0.8660 -0.0909 -0.4917
vn -0.0000 -0.9210 0.3896
vn -0.0000 0.9210 -0.3896
vn -0.8660 0.2033 0.4569
vn -0.0000 0.3981 0.9173
vn 0.8660 0.2033 0.4569
vn 0.8660 -0.1863 -0.4641
vn -0.0000 -0.3811 -0.9245
vn -0.8660 -0.1863 -0.4641
vn -0.0000 -0.7593 0.6508
vn -0.0000 0.7593 -0.6508
vn 0.8659 -0.3147 -0.3888
vn -0.0000 -0.6400 -0.7683
vn -0.8659 -0.3147 -0.3888
vn -0.8659 0.3361 0.3704
vn -0.0000 0.6614 0.7500
vn 0.8659 0.3361 0.3704
vn -0.0000 -0.9984 -0.0562
vn -0.0000 0.9984 0.0562
vn -0.8660 -0.0208 0.4996
vn -0.0000 -0.0490 0.9988
vn 0.8660 -0.0208 0.4996
vn 0.8660 0.0354 -0.4988
vn -0.0000 0.0635 -0.9980
vn -0.8660 0.0354 -0.4988
vn -0.0000 -0.9806 -0.1961
vn -0.0000 0.9806 0.1961
vn -0.8660 -0.0909 0.4917
vn -0.0000 -0.1890 0.9820
vn 0.8660 -0.0909 0.4917
vn 0.8660 0.1052 -0.4888
vn -0.0000 0.2032 -0.9791
vn -0.8660 0.1052 -0.4888
vn -0.0000 -0.9210 -0.3896
vn -0.0000 0.9210 0.3896
vn -0.8660 -0.1863 0.4641
vn -0.0000 -0.3811 0.9245
vn 0.8660 -0.1863 0.4641
vn 0.8660 0.2033 -0.4569
vn -0.0000 0.3981 -0.9173
vn -0.8660 0.2033 -0.4569
vn -0.0000 -0.7593 -0.6508
vn -0.0000 0.7593 0.6508
vn -0.8659 -0.3147 0.3888
vn -0.0000 -0.6400 0.7683
vn 0.8659 -0.3147 0.3888
vn 0.8659 0.3361 -0.3704
vn -0.0000 0.6614 -0.7500
vn -0.8659 0.3361 -0.3704
vn 0.1554 0.5410 -0.8266
vn -0.1554 -0.5410 0.8266
vn 0.0545 0.5690 -0.8206
vn -0.0545 -0.5690 0.8206
vn -0.0545 0.5690 -0.8206
vn 0.0545 -0.5690 0.8206
vn -0.1554 0.5410 -0.8266
vn 0.1554 -0.5410 0.8266
vn -0.7448 -0.0000 0.6673
vn 0.7448 -0.0000 0.6673
vn 0.1922 0.6693 -0.7177
vn -0.1922 -0.6693 0.7177
vn 0.0665 0.6950 -0.7159
vn -0.0665 -0.6950 0.7159
vn -0.0665 0.6950 -0.7159
vn 0.0665 -0.6950 0.7159
vn -0.1922 0.6693 -0.7177
vn 0.1922 -0.6693 0.7177
vn -0.9146 -0.0000 0.4043
vn 0.9146 -0.0000 0.4043
vn 0.2351 0.8186 -0.5240
vn -0.2351 -0.8186 0.5240
vn 0.0812 0.8478 -0.5240
vn -0.0812 -0.8478 0.5240
vn -0.0812 0.8478 -0.5240
vn 0.0812 -0.8478 0.5240
vn -0.2351 0.8186 -0.5240
vn 0.2351 -0.8186 0.5240
vn -0.9746 -0.0000 0.2238
vn 0.9746 -0.0000 0.2238
vn 0.2705 0.9416 -0.2005
vn -0.2705 -0.9416 0.2005
vn 0.0934 0.9752 -0.2009
vn -0.0934 -0.9752 0.2009
vn -0.0934 0.9752 -0.2009
vn 0.0934 -0.9752 0.2009
vn -0.2705 0.9416 -0.2005
vn 0.2705 -0.9416 0.2005
vn -0.9974 -0.0000 0.0720
vn 0.9974 -0.0000 0.0720
vn 0.2705 0.9416 0.2005
vn -0.2705 -0.9416 -0.2005
vn 0.0934 0.9752 0.2009
vn -0.0934 -0.9752 -0.2009
vn -0.0934 0.9752 0.2009
vn 0.0934 -0.9752 -0.2009
vn -0.2705 0.9416 0.2005
vn 0.2705 -0.9416 -0.2005
vn -0.9974 -0.0000 -0.0720
vn 0.9974 -0.0000 -0.0720
vn 0.2351 0.8186 0.5240
vn -0.2351 -0.8186 -0.5240
vn 0.0812 0.8478 0.5240
vn -0.0812 -0.8478 -0.5240
vn -0.0812 0.8478 0.5240
vn 0.0812 -0.8478 -0.5240
vn -0.2351 0.8186 0.5240
vn 0.2351 -0.8186 -0.5240
vn -0.9746 -0.0000 -0.2238
vn 0.9746 -0.0000 -0.2238
vn 0.1922 0.6693 0.7177
vn -0.1922 -0.6693 -0.7177
vn 0.0665 0.6950 0.7159
vn -0.0665 -0.6950 -0.7159
vn -0.0665 0.6950 0.7159
vn 0.0665 -0.6950 -0.7159
vn -0.1922 0.6693 0.7177
vn 0.1922 -0.6693 -0.7177
vn -0.9146 -0.0000 -0.4043
vn 0.9146 -0.0000 -0.4043
vn 0.1554 0.5410 0.8266
vn -0.1554 -0.5410 -0.8266
vn 0.0545 0.5690 0.8206
vn -0.0545 -0.5690 -0.8206
vn -0.0545 0.5690 0.8206
vn 0.0545 -0.5690 -0.8206
vn -0.1554 0.5410 0.8266
vn 0.1554 -0.5410 -0.8266
vn -0.7448 -0.0000 -0.6673
vn 0.7448 -0.0000 -0.6673
vn -0.0000 -0.8725 -0.4886
vn -0.0000 0.8725 0.4886
vn -0.8660 -0.2443 0.4362
vn -0.0000 -0.4886 0.8725
vn 0.8660 -0.2443 0.4362
vn 0.8660 0.2443 -0.4362
vn -0.0000 0.4886 -0.8725
vn -0.8660 0.2443 -0.4362
vn -0.0000 -0.8725 0.4886
vn -0.0000 0.8725 -0.4886
vn 0.8660 -0.2443 -0.4362
vn -0.0000 -0.4886 -0.8725
vn -0.8660 -0.2443 -0.4362
vn -0.8660 0.2443 0.4362
vn -0.0000 0.4886 0.8725
vn 0.8660 0.2443 0.4362
vt 0.812500 0.312500
vt 0.312500 0.562500
vt 0.812500 0.687500
vt 0.312500 0.687500
s 0
usemtl FN_Atlas
f 1/1/1 2/1/1 3/1/1 4/1/1 5/1/1 6/1/1 7/1/1 8/1/1
f 9/1/2 10/1/2 11/1/2 12/1/2 13/1/2 14/1/2 15/1/2 16/1/2
f 8/1/3 7/1/3 10/1/3 9/1/3
f 7/1/4 6/1/4 11/1/4 10/1/4
f 6/1/5 5/1/5 12/1/5 11/1/5
f 5/1/6 4/1/6 13/1/6 12/1/6
f 4/1/7 3/1/7 14/1/7 13/1/7
f 3/1/8 2/1/8 15/1/8 14/1/8
f 2/1/9 1/1/9 16/1/9 15/1/9
f 1/1/10 8/1/10 9/1/10 16/1/10
f 17/1/11 18/1/11 19/1/11 20/1/11 21/1/11 22/1/11 23/1/11 24/1/11
f 25/1/12 26/1/12 27/1/12 28/1/12 29/1/12 30/1/12 31/1/12 32/1/12
f 24/1/13 23/1/13 26/1/13 25/1/13
f 23/1/14 22/1/14 27/1/14 26/1/14
f 22/1/15 21/1/15 28/1/15 27/1/15
f 21/1/16 20/1/16 29/1/16 28/1/16
f 20/1/17 19/1/17 30/1/17 29/1/17
f 19/1/18 18/1/18 31/1/18 30/1/18
f 18/1/19 17/1/19 32/1/19 31/1/19
f 17/1/20 24/1/20 25/1/20 32/1/20
f 33/1/11 34/1/11 35/1/11 36/1/11 37/1/11 38/1/11 39/1/11 40/1/11
f 41/1/12 42/1/12 43/1/12 44/1/12 45/1/12 46/1/12 47/1/12 48/1/12
f 40/1/13 39/1/13 42/1/13 41/1/13
f 39/1/14 38/1/14 43/1/14 42/1/14
f 38/1/15 37/1/15 44/1/15 43/1/15
f 37/1/16 36/1/16 45/1/16 44/1/16
f 36/1/17 35/1/17 46/1/17 45/1/17
f 35/1/18 34/1/18 47/1/18 46/1/18
f 34/1/19 33/1/19 48/1/19 47/1/19
f 33/1/20 40/1/20 41/1/20 48/1/20
f 49/1/21 50/1/21 51/1/21 52/1/21 53/1/21 54/1/21
f 55/1/22 56/1/22 57/1/22 58/1/22 59/1/22 60/1/22
f 54/1/23 53/1/23 56/1/23 55/1/23
f 53/1/24 52/1/24 57/1/24 56/1/24
f 52/1/25 51/1/25 58/1/25 57/1/25
f 51/1/26 50/1/26 59/1/26 58/1/26
f 50/1/27 49/1/27 60/1/27 59/1/27
f 49/1/28 54/1/28 55/1/28 60/1/28
f 61/1/29 62/1/29 58/1/29 63/1/29 64/1/29 55/1/29
f 65/1/30 66/1/30 67/1/30 68/1/30 69/1/30 70/1/30
f 55/1/31 64/1/31 66/1/31 65/1/31
f 64/1/32 63/1/32 67/1/32 66/1/32
f 63/1/33 58/1/33 68/1/33 67/1/33
f 58/1/34 62/1/34 69/1/34 68/1/34
f 62/1/35 61/1/35 70/1/35 69/1/35
f 61/1/36 55/1/36 65/1/36 70/1/36
f 71/1/37 72/1/37 68/1/37 73/1/37 74/1/37 65/1/37
f 75/1/38 76/1/38 77/1/38 78/1/38 79/1/38 80/1/38
f 65/1/39 74/1/39 76/1/39 75/1/39
f 74/1/40 73/1/40 77/1/40 76/1/40
f 73/1/41 68/1/41 78/1/41 77/1/41
f 68/1/42 72/1/42 79/1/42 78/1/42
f 72/1/43 71/1/43 80/1/43 79/1/43
f 71/1/44 65/1/44 75/1/44 80/1/44
f 81/1/45 82/1/45 75/1/45 83/1/45 84/1/45 78/1/45
f 85/1/46 86/1/46 87/1/46 88/1/46 89/1/46 90/1/46
f 78/1/47 84/1/47 86/1/47 85/1/47
f 84/1/48 83/1/48 87/1/48 86/1/48
f 83/1/49 75/1/49 88/1/49 87/1/49
f 75/1/50 82/1/50 89/1/50 88/1/50
f 82/1/51 81/1/51 90/1/51 89/1/51
f 81/1/52 78/1/52 85/1/52 90/1/52
f 91/1/53 92/1/53 93/1/53 94/1/53 95/1/53 96/1/53
f 97/1/54 98/1/54 99/1/54 100/1/54 101/1/54 102/1/54
f 96/1/55 95/1/55 98/1/55 97/1/55
f 95/1/56 94/1/56 99/1/56 98/1/56
f 94/1/57 93/1/57 100/1/57 99/1/57
f 93/1/58 92/1/58 101/1/58 100/1/58
f 92/1/59 91/1/59 102/1/59 101/1/59
f 91/1/60 96/1/60 97/1/60 102/1/60
f 103/1/61 104/1/61 100/1/61 105/1/61 106/1/61 97/1/61
f 107/1/62 108/1/62 109/1/62 110/1/62 111/1/62 112/1/62
f 97/1/63 106/1/63 108/1/63 107/1/63
f 106/1/64 105/1/64 109/1/64 108/1/64
f 105/1/65 100/1/65 110/1/65 109/1/65
f 100/1/66 104/1/66 111/1/66 110/1/66
f 104/1/67 103/1/67 112/1/67 111/1/67
f 103/1/68 97/1/68 107/1/68 112/1/68
f 113/1/69 114/1/69 110/1/69 115/1/69 116/1/69 107/1/69
f 117/1/70 118/1/70 119/1/70 120/1/70 121/1/70 122/1/70
f 107/1/71 116/1/71 118/1/71 117/1/71
f 116/1/72 115/1/72 119/1/72 118/1/72
f 115/1/73 110/1/73 120/1/73 119/1/73
f 110/1/74 114/1/74 121/1/74 120/1/74
f 114/1/75 113/1/75 122/1/75 121/1/75
f 113/1/76 107/1/76 117/1/76 122/1/76
f 123/1/77 124/1/77 120/1/77 125/1/77 126/1/77 117/1/77
f 127/1/78 128/1/78 129/1/78 130/1/78 131/1/78 132/1/78
f 117/1/79 126/1/79 128/1/79 127/1/79
f 126/1/80 125/1/80 129/1/80 128/1/80
f 125/1/81 120/1/81 130/1/81 129/1/81
f 120/1/82 124/1/82 131/1/82 130/1/82
f 124/1/83 123/1/83 132/1/83 131/1/83
f 123/1/84 117/1/84 127/1/84 132/1/84
f 133/2/85 134/2/85 135/2/85 136/2/85
f 137/2/86 138/2/86 139/2/86 140/2/86
f 134/2/87 141/2/87 142/2/87 135/2/87
f 138/2/88 143/2/88 144/2/88 139/2/88
f 141/2/89 145/2/89 146/2/89 142/2/89
f 143/2/90 147/2/90 148/2/90 144/2/90
f 145/2/91 149/2/91 150/2/91 146/2/91
f 147/2/92 151/2/92 152/2/92 148/2/92
f 133/2/93 136/2/93 137/2/93 140/2/93
f 152/2/94 151/2/94 150/2/94 149/2/94
f 136/3/95 135/3/95 153/3/95 154/3/95
f 155/3/96 156/3/96 138/3/96 137/3/96
f 135/3/97 142/3/97 157/3/97 153/3/97
f 156/3/98 158/3/98 143/3/98 138/3/98
f 142/3/99 146/3/99 159/3/99 157/3/99
f 158/3/100 160/3/100 147/3/100 143/3/100
f 146/3/101 150/3/101 161/3/101 159/3/101
f 160/3/102 162/3/102 151/3/102 147/3/102
f 136/3/103 154/3/103 155/3/103 137/3/103
f 151/3/104 162/3/104 161/3/104 150/3/104
f 154/2/105 153/2/105 163/2/105 164/2/105
f 165/2/106 166/2/106 156/2/106 155/2/106
f 153/2/107 157/2/107 167/2/107 163/2/107
f 166/2/108 168/2/108 158/2/108 156/2/108
f 157/2/109 159/2/109 169/2/109 167/2/109
f 168/2/110 170/2/110 160/2/110 158/2/110
f 159/2/111 161/2/111 171/2/111 169/2/111
f 170/2/112 172/2/112 162/2/112 160/2/112
f 154/2/113 164/2/113 165/2/113 155/2/113
f 162/2/114 172/2/114 171/2/114 161/2/114
f 164/3/115 163/3/115 173/3/115 174/3/115
f 175/3/116 176/3/116 166/3/116 165/3/116
f 163/3/117 167/3/117 177/3/117 173/3/117
f 176/3/118 178/3/118 168/3/118 166/3/118
f 167/3/119 169/3/119 179/3/119 177/3/119
f 178/3/120 180/3/120 170/3/120 168/3/120
f 169/3/121 171/3/121 181/3/121 179/3/121
f 180/3/122 182/3/122 172/3/122 170/3/122
f 164/3/123 174/3/123 175/3/123 165/3/123
f 172/3/124 182/3/124 181/3/124 171/3/124
f 174/2/125 173/2/125 183/2/125 184/2/125
f 185/2/126 186/2/126 176/2/126 175/2/126
f 173/2/127 177/2/127 187/2/127 183/2/127
f 186/2/128 188/2/128 178/2/128 176/2/128
f 177/2/129 179/2/129 189/2/129 187/2/129
f 188/2/130 190/2/130 180/2/130 178/2/130
f 179/2/131 181/2/131 191/2/131 189/2/131
f 190/2/132 192/2/132 182/2/132 180/2/132
f 174/2/133 184/2/133 185/2/133 175/2/133
f 182/2/134 192/2/134 191/2/134 181/2/134
f 184/3/135 183/3/135 193/3/135 194/3/135
f 195/3/136 196/3/136 186/3/136 185/3/136
f 183/3/137 187/3/137 197/3/137 193/3/137
f 196/3/138 198/3/138 188/3/138 186/3/138
f 187/3/139 189/3/139 199/3/139 197/3/139
f 198/3/140 200/3/140 190/3/140 188/3/140
f 189/3/141 191/3/141 201/3/141 199/3/141
f 200/3/142 202/3/142 192/3/142 190/3/142
f 184/3/143 194/3/143 195/3/143 185/3/143
f 192/3/144 202/3/144 201/3/144 191/3/144
f 194/2/145 193/2/145 203/2/145 204/2/145
f 205/2/146 206/2/146 196/2/146 195/2/146
f 193/2/147 197/2/147 207/2/147 203/2/147
f 206/2/148 208/2/148 198/2/148 196/2/148
f 197/2/149 199/2/149 209/2/149 207/2/149
f 208/2/150 210/2/150 200/2/150 198/2/150
f 199/2/151 201/2/151 211/2/151 209/2/151
f 210/2/152 212/2/152 202/2/152 200/2/152
f 194/2/153 204/2/153 205/2/153 195/2/153
f 202/2/154 212/2/154 211/2/154 201/2/154
f 204/3/155 203/3/155 213/3/155 214/3/155
f 215/3/156 216/3/156 206/3/156 205/3/156
f 203/3/157 207/3/157 217/3/157 213/3/157
f 216/3/158 218/3/158 208/3/158 206/3/158
f 207/3/159 209/3/159 219/3/159 217/3/159
f 218/3/160 220/3/160 210/3/160 208/3/160
f 209/3/161 211/3/161 221/3/161 219/3/161
f 220/3/162 222/3/162 212/3/162 210/3/162
f 204/3/163 214/3/163 215/3/163 205/3/163
f 212/3/164 222/3/164 221/3/164 211/3/164
f 133/2/1 140/2/1 139/2/1 134/2/1
f 213/3/2 216/3/2 215/3/2 214/3/2
f 134/2/1 139/2/1 144/2/1 141/2/1
f 217/3/2 218/3/2 216/3/2 213/3/2
f 141/2/1 144/2/1 148/2/1 145/2/1
f 219/3/2 220/3/2 218/3/2 217/3/2
f 145/2/1 148/2/1 152/2/1 149/2/1
f 221/3/2 222/3/2 220/3/2 219/3/2
f 223/4/165 224/4/165 225/4/165 226/4/165 227/4/165 228/4/165
f 229/4/166 230/4/166 231/4/166 232/4/166 233/4/166 234/4/166
f 228/4/167 227/4/167 230/4/167 229/4/167
f 227/4/168 226/4/168 231/4/168 230/4/168
f 226/4/169 225/4/169 232/4/169 231/4/169
f 225/4/170 224/4/170 233/4/170 232/4/170
f 224/4/171 223/4/171 234/4/171 233/4/171
f 223/4/172 228/4/172 229/4/172 234/4/172
f 235/4/173 236/4/173 237/4/173 238/4/173 239/4/173 240/4/173
f 241/4/174 242/4/174 243/4/174 244/4/174 245/4/174 246/4/174
f 240/4/175 239/4/175 242/4/175 241/4/175
f 239/4/176 238/4/176 243/4/176 242/4/176
f 238/4/177 237/4/177 244/4/177 243/4/177
f 237/4/178 236/4/178 245/4/178 244/4/178
f 236/4/179 235/4/179 246/4/179 245/4/179
f 235/4/180 240/4/180 241/4/180 246/4/180
