# Blender 5.2.0 LTS
# www.blender.org
mtllib FN_Ladder_Step.mtl
o FN_Ladder_Step
v -0.220000 0.000000 0.290000
v -0.220000 0.000000 0.360000
v -0.220000 1.166000 0.190000
v -0.220000 1.166000 0.120000
v -0.190000 1.166000 0.120000
v -0.190000 1.166000 0.190000
v -0.190000 0.000000 0.360000
v -0.190000 0.000000 0.290000
v -0.220000 1.166000 -0.000000
v -0.220000 1.166000 -0.070000
v -0.220000 0.000000 -0.360000
v -0.220000 0.000000 -0.290000
v -0.190000 0.000000 -0.290000
v -0.190000 0.000000 -0.360000
v -0.190000 1.166000 -0.070000
v -0.190000 1.166000 -0.000000
v -0.220000 1.166000 0.150000
v -0.190000 1.166000 0.150000
v -0.220000 1.370000 0.190000
v -0.190000 1.370000 0.190000
v -0.190000 1.370000 0.150000
v -0.220000 1.370000 0.150000
v -0.200000 0.448867 0.248458
v -0.200000 0.408867 0.018458
v -0.200000 0.391133 0.021542
v -0.200000 0.431133 0.251542
v -0.150000 0.431133 0.251542
v -0.150000 0.391133 0.021542
v -0.150000 0.408867 0.018458
v -0.150000 0.448867 0.248458
v -0.200000 0.408993 0.019654
v -0.200000 0.398993 -0.240346
v -0.200000 0.381007 -0.239654
v -0.200000 0.391007 0.020346
v -0.150000 0.391007 0.020346
v -0.150000 0.381007 -0.239654
v -0.150000 0.398993 -0.240346
v -0.150000 0.408993 0.019654
v -0.210000 0.389608 0.014000
v -0.210000 0.389608 0.026000
v -0.210000 0.400000 0.032000
v -0.210000 0.410392 0.026000
v -0.210000 0.410392 0.014000
v -0.210000 0.400000 0.008000
v -0.140000 0.400000 0.008000
v -0.140000 0.410392 0.014000
v -0.140000 0.410392 0.026000
v -0.140000 0.400000 0.032000
v -0.140000 0.389608 0.026000
v -0.140000 0.389608 0.014000
v 0.190000 0.000000 0.290000
v 0.190000 0.000000 0.360000
v 0.190000 1.166000 0.190000
v 0.190000 1.166000 0.120000
v 0.220000 1.166000 0.120000
v 0.220000 1.166000 0.190000
v 0.220000 0.000000 0.360000
v 0.220000 0.000000 0.290000
v 0.190000 1.166000 -0.000000
v 0.190000 1.166000 -0.070000
v 0.190000 0.000000 -0.360000
v 0.190000 0.000000 -0.290000
v 0.220000 0.000000 -0.290000
v 0.220000 0.000000 -0.360000
v 0.220000 1.166000 -0.070000
v 0.220000 1.166000 -0.000000
v 0.190000 1.166000 0.150000
v 0.220000 1.166000 0.150000
v 0.190000 1.370000 0.190000
v 0.220000 1.370000 0.190000
v 0.220000 1.370000 0.150000
v 0.190000 1.370000 0.150000
v 0.150000 0.448867 0.248458
v 0.150000 0.408867 0.018458
v 0.150000 0.391133 0.021542
v 0.150000 0.431133 0.251542
v 0.200000 0.431133 0.251542
v 0.200000 0.391133 0.021542
v 0.200000 0.408867 0.018458
v 0.200000 0.448867 0.248458
v 0.150000 0.408993 0.019654
v 0.150000 0.398993 -0.240346
v 0.150000 0.381007 -0.239654
v 0.150000 0.391007 0.020346
v 0.200000 0.391007 0.020346
v 0.200000 0.381007 -0.239654
v 0.200000 0.398993 -0.240346
v 0.200000 0.408993 0.019654
v 0.140000 0.389608 0.014000
v 0.140000 0.389608 0.026000
v 0.140000 0.400000 0.032000
v 0.140000 0.410392 0.026000
v 0.140000 0.410392 0.014000
v 0.140000 0.400000 0.008000
v 0.210000 0.400000 0.008000
v 0.210000 0.410392 0.014000
v 0.210000 0.410392 0.026000
v 0.210000 0.400000 0.032000
v 0.210000 0.389608 0.026000
v 0.210000 0.389608 0.014000
v -0.220000 1.400000 0.190000
v 0.220000 1.400000 0.190000
v 0.220000 1.400000 0.150000
v -0.220000 1.400000 0.150000
v -0.220000 1.140000 0.190000
v -0.220000 1.140000 -0.070000
v 0.220000 1.140000 -0.070000
v 0.220000 1.140000 0.190000
v -0.240000 1.143474 -0.045500
v -0.240000 1.143474 -0.034500
v -0.240000 1.153000 -0.029000
v -0.240000 1.162526 -0.034500
v -0.240000 1.162526 -0.045500
v -0.240000 1.153000 -0.051000
v 0.240000 1.153000 -0.051000
v 0.240000 1.162526 -0.045500
v 0.240000 1.162526 -0.034500
v 0.240000 1.153000 -0.029000
v 0.240000 1.143474 -0.034500
v 0.240000 1.143474 -0.045500
v -0.220000 0.204000 0.311467
v -0.220000 0.204000 0.191467
v 0.220000 0.204000 0.191467
v 0.220000 0.204000 0.311467
v -0.220000 0.230000 0.311467
v 0.220000 0.230000 0.311467
v 0.220000 0.230000 0.191467
v -0.220000 0.230000 0.191467
v -0.220000 0.434000 0.277933
v -0.220000 0.434000 0.157933
v 0.220000 0.434000 0.157933
v 0.220000 0.434000 0.277933
v -0.220000 0.460000 0.277933
v 0.220000 0.460000 0.277933
v 0.220000 0.460000 0.157933
v -0.220000 0.460000 0.157933
v -0.220000 0.664000 0.244400
v -0.220000 0.664000 0.124400
v 0.220000 0.664000 0.124400
v 0.220000 0.664000 0.244400
v -0.220000 0.690000 0.244400
v 0.220000 0.690000 0.244400
v 0.220000 0.690000 0.124400
v -0.220000 0.690000 0.124400
v -0.220000 0.894000 0.210866
v -0.220000 0.894000 0.090866
v 0.220000 0.894000 0.090866
v 0.220000 0.894000 0.210866
v -0.220000 0.920000 0.210866
v 0.220000 0.920000 0.210866
v 0.220000 0.920000 0.090866
v -0.220000 0.920000 0.090866
vn -1.0000 -0.0000 -0.0000
vn 1.0000 -0.0000 -0.0000
vn -0.0000 1.0000 -0.0000
vn -0.0000 0.1443 0.9895
vn -0.0000 -1.0000 -0.0000
vn -0.0000 -0.1443 -0.9895
vn -0.0000 0.2414 -0.9704
vn -0.0000 -0.2414 0.9704
vn -0.0000 -0.0000 1.0000
vn -0.0000 -0.0000 -1.0000
vn -0.0000 0.9852 -0.1713
vn -0.0000 -0.1713 -0.9852
vn -0.0000 -0.9852 0.1713
vn -0.0000 0.1713 0.9852
vn -0.0000 0.9993 -0.0384
vn -0.0000 -0.0384 -0.9993
vn -0.0000 -0.9993 0.0384
vn -0.0000 0.0384 0.9993
vn -0.0000 0.5000 -0.8660
vn -0.0000 0.5000 0.8660
vn -0.0000 -0.5000 0.8660
vn -0.0000 -0.5000 -0.8660
vt 0.812500 0.312500
vt 0.312500 0.312500
vt 0.687500 0.062500
s 0
usemtl FN_Atlas
f 1/1/1 2/1/1 3/1/1 4/1/1
f 5/1/2 6/1/2 7/1/2 8/1/2
f 4/1/3 3/1/3 6/1/3 5/1/3
f 3/1/4 2/1/4 7/1/4 6/1/4
f 2/1/5 1/1/5 8/1/5 7/1/5
f 1/1/6 4/1/6 5/1/6 8/1/6
f 9/1/1 10/1/1 11/1/1 12/1/1
f 13/1/2 14/1/2 15/1/2 16/1/2
f 16/1/3 15/1/3 10/1/3 9/1/3
f 15/1/7 14/1/7 11/1/7 10/1/7
f 14/1/5 13/1/5 12/1/5 11/1/5
f 13/1/8 16/1/8 9/1/8 12/1/8
f 3/1/5 17/1/5 18/1/5 6/1/5
f 19/1/3 20/1/3 21/1/3 22/1/3
f 3/1/9 6/1/9 20/1/9 19/1/9
f 18/1/10 17/1/10 22/1/10 21/1/10
f 3/1/1 19/1/1 22/1/1 17/1/1
f 6/1/2 18/1/2 21/1/2 20/1/2
f 23/2/1 24/2/1 25/2/1 26/2/1
f 27/2/2 28/2/2 29/2/2 30/2/2
f 30/2/11 29/2/11 24/2/11 23/2/11
f 29/2/12 28/2/12 25/2/12 24/2/12
f 28/2/13 27/2/13 26/2/13 25/2/13
f 27/2/14 30/2/14 23/2/14 26/2/14
f 31/2/1 32/2/1 33/2/1 34/2/1
f 35/2/2 36/2/2 37/2/2 38/2/2
f 38/2/15 37/2/15 32/2/15 31/2/15
f 37/2/16 36/2/16 33/2/16 32/2/16
f 36/2/17 35/2/17 34/2/17 33/2/17
f 35/2/18 38/2/18 31/2/18 34/2/18
f 39/2/1 40/2/1 41/2/1 42/2/1 43/2/1 44/2/1
f 45/2/2 46/2/2 47/2/2 48/2/2 49/2/2 50/2/2
f 44/2/19 43/2/19 46/2/19 45/2/19
f 43/2/3 42/2/3 47/2/3 46/2/3
f 42/2/20 41/2/20 48/2/20 47/2/20
f 41/2/21 40/2/21 49/2/21 48/2/21
f 40/2/5 39/2/5 50/2/5 49/2/5
f 39/2/22 44/2/22 45/2/22 50/2/22
f 51/1/1 52/1/1 53/1/1 54/1/1
f 55/1/2 56/1/2 57/1/2 58/1/2
f 54/1/3 53/1/3 56/1/3 55/1/3
f 53/1/4 52/1/4 57/1/4 56/1/4
f 52/1/5 51/1/5 58/1/5 57/1/5
f 51/1/6 54/1/6 55/1/6 58/1/6
f 59/1/1 60/1/1 61/1/1 62/1/1
f 63/1/2 64/1/2 65/1/2 66/1/2
f 66/1/3 65/1/3 60/1/3 59/1/3
f 65/1/7 64/1/7 61/1/7 60/1/7
f 64/1/5 63/1/5 62/1/5 61/1/5
f 63/1/8 66/1/8 59/1/8 62/1/8
f 53/1/5 67/1/5 68/1/5 56/1/5
f 69/1/3 70/1/3 71/1/3 72/1/3
f 53/1/9 56/1/9 70/1/9 69/1/9
f 68/1/10 67/1/10 72/1/10 71/1/10
f 53/1/1 69/1/1 72/1/1 67/1/1
f 56/1/2 68/1/2 71/1/2 70/1/2
f 73/2/1 74/2/1 75/2/1 76/2/1
f 77/2/2 78/2/2 79/2/2 80/2/2
f 80/2/11 79/2/11 74/2/11 73/2/11
f 79/2/12 78/2/12 75/2/12 74/2/12
f 78/2/13 77/2/13 76/2/13 75/2/13
f 77/2/14 80/2/14 73/2/14 76/2/14
f 81/2/1 82/2/1 83/2/1 84/2/1
f 85/2/2 86/2/2 87/2/2 88/2/2
f 88/2/15 87/2/15 82/2/15 81/2/15
f 87/2/16 86/2/16 83/2/16 82/2/16
f 86/2/17 85/2/17 84/2/17 83/2/17
f 85/2/18 88/2/18 81/2/18 84/2/18
f 89/2/1 90/2/1 91/2/1 92/2/1 93/2/1 94/2/1
f 95/2/2 96/2/2 97/2/2 98/2/2 99/2/2 100/2/2
f 94/2/19 93/2/19 96/2/19 95/2/19
f 93/2/3 92/2/3 97/2/3 96/2/3
f 92/2/20 91/2/20 98/2/20 97/2/20
f 91/2/21 90/2/21 99/2/21 98/2/21
f 90/2/5 89/2/5 100/2/5 99/2/5
f 89/2/22 94/2/22 95/2/22 100/2/22
f 19/1/5 22/1/5 71/1/5 70/1/5
f 101/1/3 102/1/3 103/1/3 104/1/3
f 19/1/9 70/1/9 102/1/9 101/1/9
f 71/1/10 22/1/10 104/1/10 103/1/10
f 19/1/1 101/1/1 104/1/1 22/1/1
f 70/1/2 71/1/2 103/1/2 102/1/2
f 105/3/5 106/3/5 107/3/5 108/3/5
f 3/3/3 56/3/3 65/3/3 10/3/3
f 105/3/9 108/3/9 56/3/9 3/3/9
f 107/3/10 106/3/10 10/3/10 65/3/10
f 105/3/1 3/3/1 10/3/1 106/3/1
f 108/3/2 107/3/2 65/3/2 56/3/2
f 109/2/1 110/2/1 111/2/1 112/2/1 113/2/1 114/2/1
f 115/2/2 116/2/2 117/2/2 118/2/2 119/2/2 120/2/2
f 114/2/19 113/2/19 116/2/19 115/2/19
f 113/2/3 112/2/3 117/2/3 116/2/3
f 112/2/20 111/2/20 118/2/20 117/2/20
f 111/2/21 110/2/21 119/2/21 118/2/21
f 110/2/5 109/2/5 120/2/5 119/2/5
f 109/2/22 114/2/22 115/2/22 120/2/22
f 121/3/5 122/3/5 123/3/5 124/3/5
f 125/3/3 126/3/3 127/3/3 128/3/3
f 121/3/9 124/3/9 126/3/9 125/3/9
f 123/3/10 122/3/10 128/3/10 127/3/10
f 121/3/1 125/3/1 128/3/1 122/3/1
f 124/3/2 123/3/2 127/3/2 126/3/2
f 129/3/5 130/3/5 131/3/5 132/3/5
f 133/3/3 134/3/3 135/3/3 136/3/3
f 129/3/9 132/3/9 134/3/9 133/3/9
f 131/3/10 130/3/10 136/3/10 135/3/10
f 129/3/1 133/3/1 136/3/1 130/3/1
f 132/3/2 131/3/2 135/3/2 134/3/2
f 137/3/5 138/3/5 139/3/5 140/3/5
f 141/3/3 142/3/3 143/3/3 144/3/3
f 137/3/9 140/3/9 142/3/9 141/3/9
f 139/3/10 138/3/10 144/3/10 143/3/10
f 137/3/1 141/3/1 144/3/1 138/3/1
f 140/3/2 139/3/2 143/3/2 142/3/2
f 145/3/5 146/3/5 147/3/5 148/3/5
f 149/3/3 150/3/3 151/3/3 152/3/3
f 145/3/9 148/3/9 150/3/9 149/3/9
f 147/3/10 146/3/10 152/3/10 151/3/10
f 145/3/1 149/3/1 152/3/1 146/3/1
f 148/3/2 147/3/2 151/3/2 150/3/2
