# Blender 5.2.0 LTS
# www.blender.org
mtllib FN_Lamp_Pendant.mtl
o FN_Lamp_Pendant
v 0.047631 -0.020000 0.027500
v 0.027500 -0.020000 0.047631
v -0.000000 -0.020000 0.055000
v -0.027500 -0.020000 0.047631
v -0.047631 -0.020000 0.027500
v -0.055000 -0.020000 -0.000000
v -0.047631 -0.020000 -0.027500
v -0.027500 -0.020000 -0.047631
v 0.000000 -0.020000 -0.055000
v 0.027500 -0.020000 -0.047631
v 0.047631 -0.020000 -0.027500
v 0.055000 -0.020000 0.000000
v 0.055000 0.000000 0.000000
v 0.047631 0.000000 -0.027500
v 0.027500 0.000000 -0.047631
v 0.000000 0.000000 -0.055000
v -0.027500 0.000000 -0.047631
v -0.047631 0.000000 -0.027500
v -0.055000 0.000000 -0.000000
v -0.047631 0.000000 0.027500
v -0.027500 0.000000 0.047631
v -0.000000 0.000000 0.055000
v 0.027500 0.000000 0.047631
v 0.047631 0.000000 0.027500
v 0.003000 -0.590000 0.005196
v -0.003000 -0.590000 0.005196
v -0.006000 -0.590000 -0.000000
v -0.003000 -0.590000 -0.005196
v 0.003000 -0.590000 -0.005196
v 0.006000 -0.590000 0.000000
v 0.006000 -0.010000 0.000000
v 0.003000 -0.010000 -0.005196
v -0.003000 -0.010000 -0.005196
v -0.006000 -0.010000 -0.000000
v -0.003000 -0.010000 0.005196
v 0.003000 -0.010000 0.005196
v 0.032000 -0.560000 0.000000
v 0.027713 -0.560000 -0.016000
v 0.105655 -0.660000 -0.061000
v 0.122000 -0.660000 0.000000
v 0.016000 -0.560000 -0.027713
v 0.061000 -0.660000 -0.105655
v 0.000000 -0.560000 -0.032000
v 0.000000 -0.660000 -0.122000
v -0.016000 -0.560000 -0.027713
v -0.061000 -0.660000 -0.105655
v -0.027713 -0.560000 -0.016000
v -0.105655 -0.660000 -0.061000
v -0.032000 -0.560000 -0.000000
v -0.122000 -0.660000 -0.000000
v -0.027713 -0.560000 0.016000
v -0.105655 -0.660000 0.061000
v -0.016000 -0.560000 0.027713
v -0.061000 -0.660000 0.105655
v -0.000000 -0.560000 0.032000
v -0.000000 -0.660000 0.122000
v 0.016000 -0.560000 0.027713
v 0.061000 -0.660000 0.105655
v 0.027713 -0.560000 0.016000
v 0.105655 -0.660000 0.061000
v 0.110000 -0.660000 0.000000
v 0.095263 -0.660000 -0.055000
v 0.017321 -0.560000 -0.010000
v 0.020000 -0.560000 0.000000
v 0.055000 -0.660000 -0.095263
v 0.010000 -0.560000 -0.017321
v 0.000000 -0.660000 -0.110000
v 0.000000 -0.560000 -0.020000
v -0.055000 -0.660000 -0.095263
v -0.010000 -0.560000 -0.017321
v -0.095263 -0.660000 -0.055000
v -0.017321 -0.560000 -0.010000
v -0.110000 -0.660000 -0.000000
v -0.020000 -0.560000 -0.000000
v -0.095263 -0.660000 0.055000
v -0.017321 -0.560000 0.010000
v -0.055000 -0.660000 0.095263
v -0.010000 -0.560000 0.017321
v -0.000000 -0.660000 0.110000
v -0.000000 -0.560000 0.020000
v 0.055000 -0.660000 0.095263
v 0.010000 -0.560000 0.017321
v 0.095263 -0.660000 0.055000
v 0.017321 -0.560000 0.010000
v 0.155885 -0.760000 -0.090000
v 0.180000 -0.760000 0.000000
v 0.090000 -0.760000 -0.155885
v 0.000000 -0.760000 -0.180000
v -0.090000 -0.760000 -0.155885
v -0.155885 -0.760000 -0.090000
v -0.180000 -0.760000 -0.000000
v -0.155885 -0.760000 0.090000
v -0.090000 -0.760000 0.155885
v -0.000000 -0.760000 0.180000
v 0.090000 -0.760000 0.155885
v 0.155885 -0.760000 0.090000
v 0.168000 -0.760000 0.000000
v 0.145492 -0.760000 -0.084000
v 0.084000 -0.760000 -0.145492
v 0.000000 -0.760000 -0.168000
v -0.084000 -0.760000 -0.145492
v -0.145492 -0.760000 -0.084000
v -0.168000 -0.760000 -0.000000
v -0.145492 -0.760000 0.084000
v -0.084000 -0.760000 0.145492
v -0.000000 -0.760000 0.168000
v 0.084000 -0.760000 0.145492
v 0.145492 -0.760000 0.084000
v 0.011314 -0.770000 0.011314
v -0.000000 -0.770000 0.016000
v -0.011314 -0.770000 0.011314
v -0.016000 -0.770000 -0.000000
v -0.011314 -0.770000 -0.011314
v 0.000000 -0.770000 -0.016000
v 0.011314 -0.770000 -0.011314
v 0.016000 -0.770000 0.000000
v 0.016000 -0.560000 0.000000
v 0.011314 -0.560000 -0.011314
v 0.000000 -0.560000 -0.016000
v -0.011314 -0.560000 -0.011314
v -0.016000 -0.560000 -0.000000
v -0.011314 -0.560000 0.011314
v -0.000000 -0.560000 0.016000
v 0.011314 -0.560000 0.011314
v 0.023419 -0.824560 -0.023419
v 0.033120 -0.824560 0.000000
v 0.000000 -0.838000 0.000000
v 0.033120 -0.755440 0.000000
v 0.023419 -0.755440 -0.023419
v 0.000000 -0.742000 0.000000
v 0.000000 -0.824560 -0.033120
v 0.000000 -0.755440 -0.033120
v -0.023419 -0.824560 -0.023419
v -0.023419 -0.755440 -0.023419
v -0.033120 -0.824560 -0.000000
v -0.033120 -0.755440 -0.000000
v -0.023419 -0.824560 0.023419
v -0.023419 -0.755440 0.023419
v -0.000000 -0.824560 0.033120
v -0.000000 -0.755440 0.033120
v 0.023419 -0.824560 0.023419
v 0.023419 -0.755440 0.023419
v 0.032923 -0.802480 -0.032923
v 0.046560 -0.802480 0.000000
v 0.000000 -0.802480 -0.046560
v -0.032923 -0.802480 -0.032923
v -0.046560 -0.802480 -0.000000
v -0.032923 -0.802480 0.032923
v -0.000000 -0.802480 0.046560
v 0.032923 -0.802480 0.032923
v 0.032923 -0.777520 -0.032923
v 0.046560 -0.777520 0.000000
v 0.000000 -0.777520 -0.046560
v -0.032923 -0.777520 -0.032923
v -0.046560 -0.777520 -0.000000
v -0.032923 -0.777520 0.032923
v -0.000000 -0.777520 0.046560
v 0.032923 -0.777520 0.032923
vn -0.0000 -1.0000 -0.0000
vn -0.0000 1.0000 -0.0000
vn 0.9659 -0.0000 -0.2588
vn 0.7071 -0.0000 -0.7071
vn 0.2588 -0.0000 -0.9659
vn -0.2588 -0.0000 -0.9659
vn -0.7071 -0.0000 -0.7071
vn -0.9659 -0.0000 -0.2588
vn -0.9659 -0.0000 0.2588
vn -0.7071 -0.0000 0.7071
vn -0.2588 -0.0000 0.9659
vn 0.2588 -0.0000 0.9659
vn 0.7071 -0.0000 0.7071
vn 0.9659 -0.0000 0.2588
vn 0.8660 -0.0000 -0.5000
vn -0.0000 -0.0000 -1.0000
vn -0.8660 -0.0000 -0.5000
vn -0.8660 -0.0000 0.5000
vn -0.0000 -0.0000 1.0000
vn 0.8660 -0.0000 0.5000
vn -0.7290 -0.6561 0.1953
vn -0.5336 -0.6561 0.5336
vn -0.1953 -0.6561 0.7290
vn 0.1953 -0.6561 0.7290
vn 0.5336 -0.6561 0.5336
vn 0.7290 -0.6561 0.1953
vn 0.7290 -0.6561 -0.1953
vn 0.5336 -0.6561 -0.5336
vn 0.1953 -0.6561 -0.7290
vn -0.1953 -0.6561 -0.7290
vn -0.5336 -0.6561 -0.5336
vn -0.7290 -0.6561 -0.1953
vn 0.7290 0.6561 -0.1953
vn 0.5336 0.6561 -0.5336
vn 0.1953 0.6561 -0.7290
vn -0.1953 0.6561 -0.7290
vn -0.5336 0.6561 -0.5336
vn -0.7290 0.6561 -0.1953
vn -0.7290 0.6561 0.1953
vn -0.5336 0.6561 0.5336
vn -0.1953 0.6561 0.7290
vn 0.1953 0.6561 0.7290
vn 0.5336 0.6561 0.5336
vn 0.7290 0.6561 0.1953
vn -0.8427 -0.4888 0.2258
vn -0.6169 -0.4888 0.6169
vn -0.2258 -0.4888 0.8427
vn 0.2258 -0.4888 0.8427
vn 0.6169 -0.4888 0.6169
vn 0.8427 -0.4888 0.2258
vn 0.8427 -0.4888 -0.2258
vn 0.6169 -0.4888 -0.6169
vn 0.2258 -0.4888 -0.8427
vn -0.2258 -0.4888 -0.8427
vn -0.6169 -0.4888 -0.6169
vn -0.8427 -0.4888 -0.2258
vn 0.8427 0.4888 -0.2258
vn 0.6169 0.4888 -0.6169
vn 0.2258 0.4888 -0.8427
vn -0.2258 0.4888 -0.8427
vn -0.6169 0.4888 -0.6169
vn -0.8427 0.4888 -0.2258
vn -0.8427 0.4888 0.2258
vn -0.6169 0.4888 0.6169
vn -0.2258 0.4888 0.8427
vn 0.2258 0.4888 0.8427
vn 0.6169 0.4888 0.6169
vn 0.8427 0.4888 0.2258
vn 0.9239 -0.0000 -0.3827
vn 0.3827 -0.0000 -0.9239
vn -0.3827 -0.0000 -0.9239
vn -0.9239 -0.0000 -0.3827
vn -0.9239 -0.0000 0.3827
vn -0.3827 -0.0000 0.9239
vn 0.3827 -0.0000 0.9239
vn 0.9239 -0.0000 0.3827
vn 0.3715 -0.9156 -0.1539
vn 0.3715 0.9156 -0.1539
vn 0.1539 -0.9156 -0.3715
vn 0.1539 0.9156 -0.3715
vn -0.1539 -0.9156 -0.3715
vn -0.1539 0.9156 -0.3715
vn -0.3715 -0.9156 -0.1539
vn -0.3715 0.9156 -0.1539
vn -0.3715 -0.9156 0.1539
vn -0.3715 0.9156 0.1539
vn -0.1539 -0.9156 0.3715
vn -0.1539 0.9156 0.3715
vn 0.1539 -0.9156 0.3715
vn 0.1539 0.9156 0.3715
vn 0.3715 -0.9156 0.1539
vn 0.3715 0.9156 0.1539
vn 0.8053 -0.4902 -0.3336
vn 0.3336 -0.4902 -0.8053
vn -0.3336 -0.4902 -0.8053
vn -0.8053 -0.4902 -0.3336
vn -0.8053 -0.4902 0.3336
vn -0.3336 -0.4902 0.8053
vn 0.3336 -0.4902 0.8053
vn 0.8053 -0.4902 0.3336
vn 0.8053 0.4902 -0.3336
vn 0.3336 0.4902 -0.8053
vn -0.3336 0.4902 -0.8053
vn -0.8053 0.4902 -0.3336
vn -0.8053 0.4902 0.3336
vn -0.3336 0.4902 0.8053
vn 0.3336 0.4902 0.8053
vn 0.8053 0.4902 0.3336
vt 0.812500 0.312500
vt 0.437500 0.312500
vt 0.812500 0.062500
s 0
usemtl FN_Atlas
f 1/1/1 2/1/1 3/1/1 4/1/1 5/1/1 6/1/1 7/1/1 8/1/1 9/1/1 10/1/1 11/1/1 12/1/1
f 13/1/2 14/1/2 15/1/2 16/1/2 17/1/2 18/1/2 19/1/2 20/1/2 21/1/2 22/1/2 23/1/2 24/1/2
f 12/1/3 11/1/3 14/1/3 13/1/3
f 11/1/4 10/1/4 15/1/4 14/1/4
f 10/1/5 9/1/5 16/1/5 15/1/5
f 9/1/6 8/1/6 17/1/6 16/1/6
f 8/1/7 7/1/7 18/1/7 17/1/7
f 7/1/8 6/1/8 19/1/8 18/1/8
f 6/1/9 5/1/9 20/1/9 19/1/9
f 5/1/10 4/1/10 21/1/10 20/1/10
f 4/1/11 3/1/11 22/1/11 21/1/11
f 3/1/12 2/1/12 23/1/12 22/1/12
f 2/1/13 1/1/13 24/1/13 23/1/13
f 1/1/14 12/1/14 13/1/14 24/1/14
f 25/1/1 26/1/1 27/1/1 28/1/1 29/1/1 30/1/1
f 31/1/2 32/1/2 33/1/2 34/1/2 35/1/2 36/1/2
f 30/1/15 29/1/15 32/1/15 31/1/15
f 29/1/16 28/1/16 33/1/16 32/1/16
f 28/1/17 27/1/17 34/1/17 33/1/17
f 27/1/18 26/1/18 35/1/18 34/1/18
f 26/1/19 25/1/19 36/1/19 35/1/19
f 25/1/20 30/1/20 31/1/20 36/1/20
f 37/1/21 38/1/21 39/1/21 40/1/21
f 38/1/22 41/1/22 42/1/22 39/1/22
f 41/1/23 43/1/23 44/1/23 42/1/23
f 43/1/24 45/1/24 46/1/24 44/1/24
f 45/1/25 47/1/25 48/1/25 46/1/25
f 47/1/26 49/1/26 50/1/26 48/1/26
f 49/1/27 51/1/27 52/1/27 50/1/27
f 51/1/28 53/1/28 54/1/28 52/1/28
f 53/1/29 55/1/29 56/1/29 54/1/29
f 55/1/30 57/1/30 58/1/30 56/1/30
f 57/1/31 59/1/31 60/1/31 58/1/31
f 59/1/32 37/1/32 40/1/32 60/1/32
f 61/2/33 62/2/33 63/2/33 64/2/33
f 62/2/34 65/2/34 66/2/34 63/2/34
f 65/2/35 67/2/35 68/2/35 66/2/35
f 67/2/36 69/2/36 70/2/36 68/2/36
f 69/2/37 71/2/37 72/2/37 70/2/37
f 71/2/38 73/2/38 74/2/38 72/2/38
f 73/2/39 75/2/39 76/2/39 74/2/39
f 75/2/40 77/2/40 78/2/40 76/2/40
f 77/2/41 79/2/41 80/2/41 78/2/41
f 79/2/42 81/2/42 82/2/42 80/2/42
f 81/2/43 83/2/43 84/2/43 82/2/43
f 83/2/44 61/2/44 64/2/44 84/2/44
f 40/1/45 39/1/45 85/1/45 86/1/45
f 39/1/46 42/1/46 87/1/46 85/1/46
f 42/1/47 44/1/47 88/1/47 87/1/47
f 44/1/48 46/1/48 89/1/48 88/1/48
f 46/1/49 48/1/49 90/1/49 89/1/49
f 48/1/50 50/1/50 91/1/50 90/1/50
f 50/1/51 52/1/51 92/1/51 91/1/51
f 52/1/52 54/1/52 93/1/52 92/1/52
f 54/1/53 56/1/53 94/1/53 93/1/53
f 56/1/54 58/1/54 95/1/54 94/1/54
f 58/1/55 60/1/55 96/1/55 95/1/55
f 60/1/56 40/1/56 86/1/56 96/1/56
f 97/2/57 98/2/57 62/2/57 61/2/57
f 98/2/58 99/2/58 65/2/58 62/2/58
f 99/2/59 100/2/59 67/2/59 65/2/59
f 100/2/60 101/2/60 69/2/60 67/2/60
f 101/2/61 102/2/61 71/2/61 69/2/61
f 102/2/62 103/2/62 73/2/62 71/2/62
f 103/2/63 104/2/63 75/2/63 73/2/63
f 104/2/64 105/2/64 77/2/64 75/2/64
f 105/2/65 106/2/65 79/2/65 77/2/65
f 106/2/66 107/2/66 81/2/66 79/2/66
f 107/2/67 108/2/67 83/2/67 81/2/67
f 108/2/68 97/2/68 61/2/68 83/2/68
f 86/2/2 85/2/2 98/2/2 97/2/2
f 85/2/2 87/2/2 99/2/2 98/2/2
f 87/2/2 88/2/2 100/2/2 99/2/2
f 88/2/2 89/2/2 101/2/2 100/2/2
f 89/2/2 90/2/2 102/2/2 101/2/2
f 90/2/2 91/2/2 103/2/2 102/2/2
f 91/2/2 92/2/2 104/2/2 103/2/2
f 92/2/2 93/2/2 105/2/2 104/2/2
f 93/2/2 94/2/2 106/2/2 105/2/2
f 94/2/2 95/2/2 107/2/2 106/2/2
f 95/2/2 96/2/2 108/2/2 107/2/2
f 96/2/2 86/2/2 97/2/2 108/2/2
f 37/1/2 38/1/2 41/1/2 43/1/2 45/1/2 47/1/2 49/1/2 51/1/2 53/1/2 55/1/2 57/1/2 59/1/2
f 109/2/1 110/2/1 111/2/1 112/2/1 113/2/1 114/2/1 115/2/1 116/2/1
f 117/2/2 118/2/2 119/2/2 120/2/2 121/2/2 122/2/2 123/2/2 124/2/2
f 116/2/69 115/2/69 118/2/69 117/2/69
f 115/2/70 114/2/70 119/2/70 118/2/70
f 114/2/71 113/2/71 120/2/71 119/2/71
f 113/2/72 112/2/72 121/2/72 120/2/72
f 112/2/73 111/2/73 122/2/73 121/2/73
f 111/2/74 110/2/74 123/2/74 122/2/74
f 110/2/75 109/2/75 124/2/75 123/2/75
f 109/2/76 116/2/76 117/2/76 124/2/76
usemtl FN_Glow
f 125/3/77 126/3/77 127/3/77
f 128/3/78 129/3/78 130/3/78
f 131/3/79 125/3/79 127/3/79
f 129/3/80 132/3/80 130/3/80
f 133/3/81 131/3/81 127/3/81
f 132/3/82 134/3/82 130/3/82
f 135/3/83 133/3/83 127/3/83
f 134/3/84 136/3/84 130/3/84
f 137/3/85 135/3/85 127/3/85
f 136/3/86 138/3/86 130/3/86
f 139/3/87 137/3/87 127/3/87
f 138/3/88 140/3/88 130/3/88
f 141/3/89 139/3/89 127/3/89
f 140/3/90 142/3/90 130/3/90
f 126/3/91 141/3/91 127/3/91
f 142/3/92 128/3/92 130/3/92
f 126/3/93 125/3/93 143/3/93 144/3/93
f 125/3/94 131/3/94 145/3/94 143/3/94
f 131/3/95 133/3/95 146/3/95 145/3/95
f 133/3/96 135/3/96 147/3/96 146/3/96
f 135/3/97 137/3/97 148/3/97 147/3/97
f 137/3/98 139/3/98 149/3/98 148/3/98
f 139/3/99 141/3/99 150/3/99 149/3/99
f 141/3/100 126/3/100 144/3/100 150/3/100
f 144/3/69 143/3/69 151/3/69 152/3/69
f 143/3/70 145/3/70 153/3/70 151/3/70
f 145/3/71 146/3/71 154/3/71 153/3/71
f 146/3/72 147/3/72 155/3/72 154/3/72
f 147/3/73 148/3/73 156/3/73 155/3/73
f 148/3/74 149/3/74 157/3/74 156/3/74
f 149/3/75 150/3/75 158/3/75 157/3/75
f 150/3/76 144/3/76 152/3/76 158/3/76
f 152/3/101 151/3/101 129/3/101 128/3/101
f 151/3/102 153/3/102 132/3/102 129/3/102
f 153/3/103 154/3/103 134/3/103 132/3/103
f 154/3/104 155/3/104 136/3/104 134/3/104
f 155/3/105 156/3/105 138/3/105 136/3/105
f 156/3/106 157/3/106 140/3/106 138/3/106
f 157/3/107 158/3/107 142/3/107 140/3/107
f 158/3/108 152/3/108 128/3/108 142/3/108
