# Blender 5.2.0 LTS
# www.blender.org
mtllib FN_Mixer_Stand.mtl
o FN_Mixer_Stand
v -0.110000 0.000000 0.180000
v -0.110000 0.000000 -0.180000
v 0.110000 0.000000 -0.180000
v 0.110000 0.000000 0.180000
v -0.110000 0.040000 0.180000
v 0.110000 0.040000 0.180000
v 0.110000 0.040000 -0.180000
v -0.110000 0.040000 -0.180000
v 0.079284 0.040000 0.117603
v 0.030284 0.040000 0.153204
v -0.030284 0.040000 0.153204
v -0.079284 0.040000 0.117603
v -0.098000 0.040000 0.060000
v -0.079284 0.040000 0.002397
v -0.030284 0.040000 -0.033204
v 0.030284 0.040000 -0.033204
v 0.079284 0.040000 0.002397
v 0.098000 0.040000 0.060000
v 0.098000 0.052000 0.060000
v 0.079284 0.052000 0.002397
v 0.030284 0.052000 -0.033204
v -0.030284 0.052000 -0.033204
v -0.079284 0.052000 0.002397
v -0.098000 0.052000 0.060000
v -0.079284 0.052000 0.117603
v -0.030284 0.052000 0.153204
v 0.030284 0.052000 0.153204
v 0.079284 0.052000 0.117603
v -0.070000 0.040000 -0.070000
v -0.070000 0.040000 -0.180000
v 0.070000 0.040000 -0.180000
v 0.070000 0.040000 -0.070000
v -0.070000 0.235000 -0.070000
v 0.070000 0.235000 -0.070000
v 0.070000 0.235000 -0.180000
v -0.070000 0.235000 -0.180000
v -0.085000 0.182861 -0.071698
v -0.085000 0.387227 0.073678
v -0.085000 0.425795 0.027716
v -0.085000 0.247139 -0.148302
v 0.085000 0.247139 -0.148302
v 0.085000 0.425795 0.027716
v 0.085000 0.387227 0.073678
v 0.085000 0.182861 -0.071698
v -0.095000 0.199412 -0.119000
v -0.095000 0.199412 -0.101000
v -0.095000 0.215000 -0.092000
v -0.095000 0.230588 -0.101000
v -0.095000 0.230588 -0.119000
v -0.095000 0.215000 -0.128000
v 0.095000 0.215000 -0.128000
v 0.095000 0.230588 -0.119000
v 0.095000 0.230588 -0.101000
v 0.095000 0.215000 -0.092000
v 0.095000 0.199412 -0.101000
v 0.095000 0.199412 -0.119000
v -0.009000 0.314125 0.038192
v -0.009000 0.265125 0.096192
v -0.009000 0.278875 0.107808
v -0.009000 0.327875 0.049808
v 0.009000 0.327875 0.049808
v 0.009000 0.278875 0.107808
v 0.009000 0.265125 0.096192
v 0.009000 0.314125 0.038192
v -0.014000 0.253345 0.080250
v -0.014000 0.203345 0.141250
v -0.014000 0.246655 0.176750
v -0.014000 0.296655 0.115750
v 0.014000 0.296655 0.115750
v 0.014000 0.246655 0.176750
v 0.014000 0.203345 0.141250
v 0.014000 0.253345 0.080250
v 0.056631 0.046000 0.101145
v 0.021631 0.046000 0.126574
v -0.021631 0.046000 0.126574
v -0.056631 0.046000 0.101145
v -0.070000 0.046000 0.060000
v -0.056631 0.046000 0.018855
v -0.021631 0.046000 -0.006574
v 0.021631 0.046000 -0.006574
v 0.056631 0.046000 0.018855
v 0.070000 0.046000 0.060000
v 0.058249 0.075000 0.017679
v 0.072000 0.075000 0.060000
v 0.022249 0.075000 -0.008476
v -0.022249 0.075000 -0.008476
v -0.058249 0.075000 0.017679
v -0.072000 0.075000 0.060000
v -0.058249 0.075000 0.102321
v -0.022249 0.075000 0.128476
v 0.022249 0.075000 0.128476
v 0.058249 0.075000 0.102321
v 0.064000 0.080000 0.060000
v 0.051777 0.080000 0.022382
v 0.050159 0.056000 0.023557
v 0.062000 0.056000 0.060000
v 0.019777 0.080000 -0.000868
v 0.019159 0.056000 0.001034
v -0.019777 0.080000 -0.000868
v -0.019159 0.056000 0.001034
v -0.051777 0.080000 0.022382
v -0.050159 0.056000 0.023557
v -0.064000 0.080000 0.060000
v -0.062000 0.056000 0.060000
v -0.051777 0.080000 0.097618
v -0.050159 0.056000 0.096443
v -0.019777 0.080000 0.120868
v -0.019159 0.056000 0.118965
v 0.019777 0.080000 0.120868
v 0.019159 0.056000 0.118965
v 0.051777 0.080000 0.097618
v 0.050159 0.056000 0.096443
v 0.079284 0.140000 0.002397
v 0.098000 0.140000 0.060000
v 0.030284 0.140000 -0.033204
v -0.030284 0.140000 -0.033204
v -0.079284 0.140000 0.002397
v -0.098000 0.140000 0.060000
v -0.079284 0.140000 0.117603
v -0.030284 0.140000 0.153204
v 0.030284 0.140000 0.153204
v 0.079284 0.140000 0.117603
v 0.090000 0.142000 0.060000
v 0.072812 0.142000 0.007099
v 0.027812 0.142000 -0.025595
v -0.027812 0.142000 -0.025595
v -0.072812 0.142000 0.007099
v -0.090000 0.142000 0.060000
v -0.072812 0.142000 0.112901
v -0.027812 0.142000 0.145595
v 0.027812 0.142000 0.145595
v 0.072812 0.142000 0.112901
v 0.085756 0.190000 -0.002305
v 0.106000 0.190000 0.060000
v 0.032756 0.190000 -0.040812
v -0.032756 0.190000 -0.040812
v -0.085756 0.190000 -0.002305
v -0.106000 0.190000 0.060000
v -0.085756 0.190000 0.122305
v -0.032756 0.190000 0.160812
v 0.032756 0.190000 0.160812
v 0.085756 0.190000 0.122305
v 0.098000 0.190000 0.060000
v 0.079284 0.190000 0.002397
v 0.030284 0.190000 -0.033204
v -0.030284 0.190000 -0.033204
v -0.079284 0.190000 0.002397
v -0.098000 0.190000 0.060000
v -0.079284 0.190000 0.117603
v -0.030284 0.190000 0.153204
v 0.030284 0.190000 0.153204
v 0.079284 0.190000 0.117603
v 0.070000 0.140000 -0.100000
v 0.070000 0.140000 -0.150000
v 0.088000 0.140000 -0.150000
v 0.088000 0.140000 -0.100000
v 0.070000 0.158000 -0.100000
v 0.088000 0.158000 -0.100000
v 0.088000 0.158000 -0.150000
v 0.070000 0.158000 -0.150000
vn -0.0000 -1.0000 -0.0000
vn -0.0000 1.0000 -0.0000
vn -0.0000 -0.0000 1.0000
vn -0.0000 -0.0000 -1.0000
vn -1.0000 -0.0000 -0.0000
vn 1.0000 -0.0000 -0.0000
vn 0.9511 -0.0000 -0.3090
vn 0.5878 -0.0000 -0.8090
vn -0.5878 -0.0000 -0.8090
vn -0.9511 -0.0000 -0.3090
vn -0.9511 -0.0000 0.3090
vn -0.5878 -0.0000 0.8090
vn 0.5878 -0.0000 0.8090
vn 0.9511 -0.0000 0.3090
vn -0.0000 -0.5797 0.8149
vn -0.0000 0.7660 0.6428
vn -0.0000 0.7018 -0.7123
vn -0.0000 -0.7660 -0.6428
vn -0.0000 0.5000 -0.8660
vn -0.0000 0.5000 0.8660
vn -0.0000 -0.5000 0.8660
vn -0.0000 -0.5000 -0.8660
vn -0.0000 -0.7639 -0.6454
vn -0.0000 -0.6454 0.7639
vn -0.0000 0.7639 0.6454
vn -0.0000 0.6454 -0.7639
vn -0.0000 -0.7734 -0.6339
vn -0.0000 -0.6339 0.7734
vn -0.0000 0.7734 0.6339
vn -0.0000 0.6339 -0.7734
vn 0.9490 -0.0654 -0.3084
vn 0.5865 -0.0654 -0.8073
vn -0.0000 -0.0654 -0.9979
vn -0.5865 -0.0654 -0.8073
vn -0.9490 -0.0654 -0.3084
vn -0.9490 -0.0654 0.3084
vn -0.5865 -0.0654 0.8073
vn -0.0000 -0.0654 0.9979
vn 0.5865 -0.0654 0.8073
vn 0.9490 -0.0654 0.3084
vn -0.9481 0.0790 0.3081
vn -0.5859 0.0790 0.8065
vn -0.0000 0.0790 0.9969
vn 0.5859 0.0790 0.8065
vn 0.9481 0.0790 0.3081
vn 0.9481 0.0790 -0.3081
vn 0.5859 0.0790 -0.8065
vn -0.0000 0.0790 -0.9969
vn -0.5859 0.0790 -0.8065
vn -0.9481 0.0790 -0.3081
vn 0.8889 -0.3556 -0.2888
vn 0.5494 -0.3556 -0.7561
vn -0.0000 -0.3556 -0.9347
vn -0.5494 -0.3556 -0.7561
vn -0.8889 -0.3556 -0.2888
vn -0.8889 -0.3556 0.2888
vn -0.5494 -0.3556 0.7561
vn -0.0000 -0.3556 0.9347
vn 0.5494 -0.3556 0.7561
vn 0.8889 -0.3556 0.2888
vn -0.8834 0.3705 0.2870
vn -0.5460 0.3705 0.7515
vn -0.0000 0.3705 0.9289
vn 0.5460 0.3705 0.7515
vn 0.8834 0.3705 0.2870
vn 0.8834 0.3705 -0.2870
vn 0.5460 0.3705 -0.7515
vn -0.0000 0.3705 -0.9289
vn -0.5460 0.3705 -0.7515
vn -0.8834 0.3705 -0.2870
vn 0.9402 -0.1504 -0.3055
vn 0.5811 -0.1504 -0.7998
vn -0.0000 -0.1504 -0.9886
vn -0.5811 -0.1504 -0.7998
vn -0.9402 -0.1504 -0.3055
vn -0.9402 -0.1504 0.3055
vn -0.5811 -0.1504 0.7998
vn -0.0000 -0.1504 0.9886
vn 0.5811 -0.1504 0.7998
vn 0.9402 -0.1504 0.3055
vn -0.9393 0.1566 0.3052
vn -0.5805 0.1566 0.7990
vn -0.0000 0.1566 0.9877
vn 0.5805 0.1566 0.7990
vn 0.9393 0.1566 0.3052
vn 0.9393 0.1566 -0.3052
vn 0.5805 0.1566 -0.7990
vn -0.0000 0.1566 -0.9877
vn -0.5805 0.1566 -0.7990
vn -0.9393 0.1566 -0.3052
vt 0.312500 0.062500
vt 0.687500 0.062500
vt 0.312500 0.312500
s 0
usemtl FN_Atlas
f 1/1/1 2/1/1 3/1/1 4/1/1
f 5/1/2 6/1/2 7/1/2 8/1/2
f 1/1/3 4/1/3 6/1/3 5/1/3
f 3/1/4 2/1/4 8/1/4 7/1/4
f 1/1/5 5/1/5 8/1/5 2/1/5
f 4/1/6 3/1/6 7/1/6 6/1/6
f 9/2/1 10/2/1 11/2/1 12/2/1 13/2/1 14/2/1 15/2/1 16/2/1 17/2/1 18/2/1
f 19/2/2 20/2/2 21/2/2 22/2/2 23/2/2 24/2/2 25/2/2 26/2/2 27/2/2 28/2/2
f 18/2/7 17/2/7 20/2/7 19/2/7
f 17/2/8 16/2/8 21/2/8 20/2/8
f 16/2/4 15/2/4 22/2/4 21/2/4
f 15/2/9 14/2/9 23/2/9 22/2/9
f 14/2/10 13/2/10 24/2/10 23/2/10
f 13/2/11 12/2/11 25/2/11 24/2/11
f 12/2/12 11/2/12 26/2/12 25/2/12
f 11/2/3 10/2/3 27/2/3 26/2/3
f 10/2/13 9/2/13 28/2/13 27/2/13
f 9/2/14 18/2/14 19/2/14 28/2/14
f 29/1/1 30/1/1 31/1/1 32/1/1
f 33/1/2 34/1/2 35/1/2 36/1/2
f 29/1/3 32/1/3 34/1/3 33/1/3
f 31/1/4 30/1/4 36/1/4 35/1/4
f 29/1/5 33/1/5 36/1/5 30/1/5
f 32/1/6 31/1/6 35/1/6 34/1/6
f 37/1/5 38/1/5 39/1/5 40/1/5
f 41/1/6 42/1/6 43/1/6 44/1/6
f 44/1/15 43/1/15 38/1/15 37/1/15
f 43/1/16 42/1/16 39/1/16 38/1/16
f 42/1/17 41/1/17 40/1/17 39/1/17
f 41/1/18 44/1/18 37/1/18 40/1/18
f 45/3/5 46/3/5 47/3/5 48/3/5 49/3/5 50/3/5
f 51/3/6 52/3/6 53/3/6 54/3/6 55/3/6 56/3/6
f 50/3/19 49/3/19 52/3/19 51/3/19
f 49/3/2 48/3/2 53/3/2 52/3/2
f 48/3/20 47/3/20 54/3/20 53/3/20
f 47/3/21 46/3/21 55/3/21 54/3/21
f 46/3/1 45/3/1 56/3/1 55/3/1
f 45/3/22 50/3/22 51/3/22 56/3/22
f 57/3/5 58/3/5 59/3/5 60/3/5
f 61/3/6 62/3/6 63/3/6 64/3/6
f 64/3/23 63/3/23 58/3/23 57/3/23
f 63/3/24 62/3/24 59/3/24 58/3/24
f 62/3/25 61/3/25 60/3/25 59/3/25
f 61/3/26 64/3/26 57/3/26 60/3/26
f 65/3/5 66/3/5 67/3/5 68/3/5
f 69/3/6 70/3/6 71/3/6 72/3/6
f 72/3/27 71/3/27 66/3/27 65/3/27
f 71/3/28 70/3/28 67/3/28 66/3/28
f 70/3/29 69/3/29 68/3/29 67/3/29
f 69/3/30 72/3/30 65/3/30 68/3/30
f 73/2/1 74/2/1 75/2/1 76/2/1 77/2/1 78/2/1 79/2/1 80/2/1 81/2/1 82/2/1
f 82/2/31 81/2/31 83/2/31 84/2/31
f 81/2/32 80/2/32 85/2/32 83/2/32
f 80/2/33 79/2/33 86/2/33 85/2/33
f 79/2/34 78/2/34 87/2/34 86/2/34
f 78/2/35 77/2/35 88/2/35 87/2/35
f 77/2/36 76/2/36 89/2/36 88/2/36
f 76/2/37 75/2/37 90/2/37 89/2/37
f 75/2/38 74/2/38 91/2/38 90/2/38
f 74/2/39 73/2/39 92/2/39 91/2/39
f 73/2/40 82/2/40 84/2/40 92/2/40
f 93/2/41 94/2/41 95/2/41 96/2/41
f 94/2/42 97/2/42 98/2/42 95/2/42
f 97/2/43 99/2/43 100/2/43 98/2/43
f 99/2/44 101/2/44 102/2/44 100/2/44
f 101/2/45 103/2/45 104/2/45 102/2/45
f 103/2/46 105/2/46 106/2/46 104/2/46
f 105/2/47 107/2/47 108/2/47 106/2/47
f 107/2/48 109/2/48 110/2/48 108/2/48
f 109/2/49 111/2/49 112/2/49 110/2/49
f 111/2/50 93/2/50 96/2/50 112/2/50
f 84/2/51 83/2/51 113/2/51 114/2/51
f 83/2/52 85/2/52 115/2/52 113/2/52
f 85/2/53 86/2/53 116/2/53 115/2/53
f 86/2/54 87/2/54 117/2/54 116/2/54
f 87/2/55 88/2/55 118/2/55 117/2/55
f 88/2/56 89/2/56 119/2/56 118/2/56
f 89/2/57 90/2/57 120/2/57 119/2/57
f 90/2/58 91/2/58 121/2/58 120/2/58
f 91/2/59 92/2/59 122/2/59 121/2/59
f 92/2/60 84/2/60 114/2/60 122/2/60
f 123/2/61 124/2/61 94/2/61 93/2/61
f 124/2/62 125/2/62 97/2/62 94/2/62
f 125/2/63 126/2/63 99/2/63 97/2/63
f 126/2/64 127/2/64 101/2/64 99/2/64
f 127/2/65 128/2/65 103/2/65 101/2/65
f 128/2/66 129/2/66 105/2/66 103/2/66
f 129/2/67 130/2/67 107/2/67 105/2/67
f 130/2/68 131/2/68 109/2/68 107/2/68
f 131/2/69 132/2/69 111/2/69 109/2/69
f 132/2/70 123/2/70 93/2/70 111/2/70
f 114/2/71 113/2/71 133/2/71 134/2/71
f 113/2/72 115/2/72 135/2/72 133/2/72
f 115/2/73 116/2/73 136/2/73 135/2/73
f 116/2/74 117/2/74 137/2/74 136/2/74
f 117/2/75 118/2/75 138/2/75 137/2/75
f 118/2/76 119/2/76 139/2/76 138/2/76
f 119/2/77 120/2/77 140/2/77 139/2/77
f 120/2/78 121/2/78 141/2/78 140/2/78
f 121/2/79 122/2/79 142/2/79 141/2/79
f 122/2/80 114/2/80 134/2/80 142/2/80
f 143/2/81 144/2/81 124/2/81 123/2/81
f 144/2/82 145/2/82 125/2/82 124/2/82
f 145/2/83 146/2/83 126/2/83 125/2/83
f 146/2/84 147/2/84 127/2/84 126/2/84
f 147/2/85 148/2/85 128/2/85 127/2/85
f 148/2/86 149/2/86 129/2/86 128/2/86
f 149/2/87 150/2/87 130/2/87 129/2/87
f 150/2/88 151/2/88 131/2/88 130/2/88
f 151/2/89 152/2/89 132/2/89 131/2/89
f 152/2/90 143/2/90 123/2/90 132/2/90
f 96/2/2 95/2/2 98/2/2 100/2/2 102/2/2 104/2/2 106/2/2 108/2/2 110/2/2 112/2/2
f 134/2/2 133/2/2 144/2/2 143/2/2
f 133/2/2 135/2/2 145/2/2 144/2/2
f 135/2/2 136/2/2 146/2/2 145/2/2
f 136/2/2 137/2/2 147/2/2 146/2/2
f 137/2/2 138/2/2 148/2/2 147/2/2
f 138/2/2 139/2/2 149/2/2 148/2/2
f 139/2/2 140/2/2 150/2/2 149/2/2
f 140/2/2 141/2/2 151/2/2 150/2/2
f 141/2/2 142/2/2 152/2/2 151/2/2
f 142/2/2 134/2/2 143/2/2 152/2/2
f 153/3/1 154/3/1 155/3/1 156/3/1
f 157/3/2 158/3/2 159/3/2 160/3/2
f 153/3/3 156/3/3 158/3/3 157/3/3
f 155/3/4 154/3/4 160/3/4 159/3/4
f 153/3/5 157/3/5 160/3/5 154/3/5
f 156/3/6 155/3/6 159/3/6 158/3/6
