# Blender 5.2.0 LTS
# www.blender.org
mtllib FN_Mirror_Cheval.mtl
o FN_Mirror_Cheval
v -0.350000 0.060000 0.220000
v -0.350000 0.060000 -0.220000
v -0.350000 0.000000 -0.270000
v -0.350000 0.000000 0.270000
v -0.290000 0.000000 0.270000
v -0.290000 0.000000 -0.270000
v -0.290000 0.060000 -0.220000
v -0.290000 0.060000 0.220000
v -0.344000 0.050000 0.024000
v -0.344000 0.050000 -0.024000
v -0.296000 0.050000 -0.024000
v -0.296000 0.050000 0.024000
v -0.344000 1.490000 0.024000
v -0.296000 1.490000 0.024000
v -0.296000 1.490000 -0.024000
v -0.344000 1.490000 -0.024000
v 0.290000 0.060000 0.220000
v 0.290000 0.060000 -0.220000
v 0.290000 0.000000 -0.270000
v 0.290000 0.000000 0.270000
v 0.350000 0.000000 0.270000
v 0.350000 0.000000 -0.270000
v 0.350000 0.060000 -0.220000
v 0.350000 0.060000 0.220000
v 0.296000 0.050000 0.024000
v 0.296000 0.050000 -0.024000
v 0.344000 0.050000 -0.024000
v 0.344000 0.050000 0.024000
v 0.296000 1.490000 0.024000
v 0.344000 1.490000 0.024000
v 0.344000 1.490000 -0.024000
v 0.296000 1.490000 -0.024000
v -0.320000 0.180000 0.020000
v -0.320000 0.180000 -0.020000
v 0.320000 0.180000 -0.020000
v 0.320000 0.180000 0.020000
v -0.320000 0.230000 0.020000
v 0.320000 0.230000 0.020000
v 0.320000 0.230000 -0.020000
v -0.320000 0.230000 -0.020000
v -0.274000 0.359722 0.151644
v -0.274000 1.455248 -0.081217
v -0.274000 1.447763 -0.116431
v -0.274000 0.352237 0.116431
v -0.244000 0.352237 0.116431
v -0.244000 1.447763 -0.116431
v -0.244000 1.455248 -0.081217
v -0.244000 0.359722 0.151644
v 0.244000 0.359722 0.151644
v 0.244000 1.455248 -0.081217
v 0.244000 1.447763 -0.116431
v 0.244000 0.352237 0.116431
v 0.274000 0.352237 0.116431
v 0.274000 1.447763 -0.116431
v 0.274000 1.455248 -0.081217
v 0.274000 0.359722 0.151644
v -0.280000 0.359722 0.151644
v -0.280000 0.418411 0.139169
v -0.280000 0.410926 0.103956
v -0.280000 0.352237 0.116431
v 0.280000 0.352237 0.116431
v 0.280000 0.410926 0.103956
v 0.280000 0.418411 0.139169
v 0.280000 0.359722 0.151644
v -0.280000 1.396559 -0.068743
v -0.280000 1.455248 -0.081217
v -0.280000 1.447763 -0.116431
v -0.280000 1.389074 -0.103956
v 0.280000 1.389074 -0.103956
v 0.280000 1.447763 -0.116431
v 0.280000 1.455248 -0.081217
v 0.280000 1.396559 -0.068743
v -0.256000 0.405303 0.125598
v -0.256000 1.403013 -0.086472
v -0.256000 1.400519 -0.098210
v -0.256000 0.402808 0.113860
v 0.256000 0.402808 0.113860
v 0.256000 1.400519 -0.098210
v 0.256000 1.403013 -0.086472
v 0.256000 0.405303 0.125598
v -0.352000 0.880201 -0.019799
v -0.352000 0.872000 0.000000
v -0.352000 0.880201 0.019799
v -0.352000 0.900000 0.028000
v -0.352000 0.919799 0.019799
v -0.352000 0.928000 -0.000000
v -0.352000 0.919799 -0.019799
v -0.352000 0.900000 -0.028000
v -0.264000 0.900000 -0.028000
v -0.264000 0.919799 -0.019799
v -0.264000 0.928000 -0.000000
v -0.264000 0.919799 0.019799
v -0.264000 0.900000 0.028000
v -0.264000 0.880201 0.019799
v -0.264000 0.872000 0.000000
v -0.264000 0.880201 -0.019799
v 0.264000 0.880201 -0.019799
v 0.264000 0.872000 0.000000
v 0.264000 0.880201 0.019799
v 0.264000 0.900000 0.028000
v 0.264000 0.919799 0.019799
v 0.264000 0.928000 -0.000000
v 0.264000 0.919799 -0.019799
v 0.264000 0.900000 -0.028000
v 0.352000 0.900000 -0.028000
v 0.352000 0.919799 -0.019799
v 0.352000 0.928000 -0.000000
v 0.352000 0.919799 0.019799
v 0.352000 0.900000 0.028000
v 0.352000 0.880201 0.019799
v 0.352000 0.872000 0.000000
v 0.352000 0.880201 -0.019799
vn -1.0000 -0.0000 -0.0000
vn 1.0000 -0.0000 -0.0000
vn -0.0000 -1.0000 -0.0000
vn -0.0000 0.6402 -0.7682
vn -0.0000 1.0000 -0.0000
vn -0.0000 0.6402 0.7682
vn -0.0000 -0.0000 1.0000
vn -0.0000 -0.0000 -1.0000
vn -0.0000 -0.2079 -0.9781
vn -0.0000 0.9781 -0.2079
vn -0.0000 0.2079 0.9781
vn -0.0000 -0.9781 0.2079
vn -0.0000 0.3827 -0.9239
vn -0.0000 0.9239 -0.3827
vn -0.0000 0.9239 0.3827
vn -0.0000 0.3827 0.9239
vn -0.0000 -0.3827 0.9239
vn -0.0000 -0.9239 0.3827
vn -0.0000 -0.9239 -0.3827
vn -0.0000 -0.3827 -0.9239
vt 0.687500 0.937500
vt 0.187500 0.312500
vt 0.437500 0.312500
s 0
usemtl FN_Atlas
f 1/1/1 2/1/1 3/1/1 4/1/1
f 5/1/2 6/1/2 7/1/2 8/1/2
f 4/1/3 3/1/3 6/1/3 5/1/3
f 3/1/4 2/1/4 7/1/4 6/1/4
f 2/1/5 1/1/5 8/1/5 7/1/5
f 1/1/6 4/1/6 5/1/6 8/1/6
f 9/1/3 10/1/3 11/1/3 12/1/3
f 13/1/5 14/1/5 15/1/5 16/1/5
f 9/1/7 12/1/7 14/1/7 13/1/7
f 11/1/8 10/1/8 16/1/8 15/1/8
f 9/1/1 13/1/1 16/1/1 10/1/1
f 12/1/2 11/1/2 15/1/2 14/1/2
f 17/1/1 18/1/1 19/1/1 20/1/1
f 21/1/2 22/1/2 23/1/2 24/1/2
f 20/1/3 19/1/3 22/1/3 21/1/3
f 19/1/4 18/1/4 23/1/4 22/1/4
f 18/1/5 17/1/5 24/1/5 23/1/5
f 17/1/6 20/1/6 21/1/6 24/1/6
f 25/1/3 26/1/3 27/1/3 28/1/3
f 29/1/5 30/1/5 31/1/5 32/1/5
f 25/1/7 28/1/7 30/1/7 29/1/7
f 27/1/8 26/1/8 32/1/8 31/1/8
f 25/1/1 29/1/1 32/1/1 26/1/1
f 28/1/2 27/1/2 31/1/2 30/1/2
f 33/1/3 34/1/3 35/1/3 36/1/3
f 37/1/5 38/1/5 39/1/5 40/1/5
f 33/1/7 36/1/7 38/1/7 37/1/7
f 35/1/8 34/1/8 40/1/8 39/1/8
f 33/1/1 37/1/1 40/1/1 34/1/1
f 36/1/2 35/1/2 39/1/2 38/1/2
f 41/1/1 42/1/1 43/1/1 44/1/1
f 45/1/2 46/1/2 47/1/2 48/1/2
f 44/1/9 43/1/9 46/1/9 45/1/9
f 43/1/10 42/1/10 47/1/10 46/1/10
f 42/1/11 41/1/11 48/1/11 47/1/11
f 41/1/12 44/1/12 45/1/12 48/1/12
f 49/1/1 50/1/1 51/1/1 52/1/1
f 53/1/2 54/1/2 55/1/2 56/1/2
f 52/1/9 51/1/9 54/1/9 53/1/9
f 51/1/10 50/1/10 55/1/10 54/1/10
f 50/1/11 49/1/11 56/1/11 55/1/11
f 49/1/12 52/1/12 53/1/12 56/1/12
f 57/1/1 58/1/1 59/1/1 60/1/1
f 61/1/2 62/1/2 63/1/2 64/1/2
f 60/1/9 59/1/9 62/1/9 61/1/9
f 59/1/10 58/1/10 63/1/10 62/1/10
f 58/1/11 57/1/11 64/1/11 63/1/11
f 57/1/12 60/1/12 61/1/12 64/1/12
f 65/1/1 66/1/1 67/1/1 68/1/1
f 69/1/2 70/1/2 71/1/2 72/1/2
f 68/1/9 67/1/9 70/1/9 69/1/9
f 67/1/10 66/1/10 71/1/10 70/1/10
f 66/1/11 65/1/11 72/1/11 71/1/11
f 65/1/12 68/1/12 69/1/12 72/1/12
f 73/2/1 74/2/1 75/2/1 76/2/1
f 77/2/2 78/2/2 79/2/2 80/2/2
f 76/2/9 75/2/9 78/2/9 77/2/9
f 75/2/10 74/2/10 79/2/10 78/2/10
f 74/2/11 73/2/11 80/2/11 79/2/11
f 73/2/12 76/2/12 77/2/12 80/2/12
f 81/3/1 82/3/1 83/3/1 84/3/1 85/3/1 86/3/1 87/3/1 88/3/1
f 89/3/2 90/3/2 91/3/2 92/3/2 93/3/2 94/3/2 95/3/2 96/3/2
f 88/3/13 87/3/13 90/3/13 89/3/13
f 87/3/14 86/3/14 91/3/14 90/3/14
f 86/3/15 85/3/15 92/3/15 91/3/15
f 85/3/16 84/3/16 93/3/16 92/3/16
f 84/3/17 83/3/17 94/3/17 93/3/17
f 83/3/18 82/3/18 95/3/18 94/3/18
f 82/3/19 81/3/19 96/3/19 95/3/19
f 81/3/20 88/3/20 89/3/20 96/3/20
f 97/3/1 98/3/1 99/3/1 100/3/1 101/3/1 102/3/1 103/3/1 104/3/1
f 105/3/2 106/3/2 107/3/2 108/3/2 109/3/2 110/3/2 111/3/2 112/3/2
f 104/3/13 103/3/13 106/3/13 105/3/13
f 103/3/14 102/3/14 107/3/14 106/3/14
f 102/3/15 101/3/15 108/3/15 107/3/15
f 101/3/16 100/3/16 109/3/16 108/3/16
f 100/3/17 99/3/17 110/3/17 109/3/17
f 99/3/18 98/3/18 111/3/18 110/3/18
f 98/3/19 97/3/19 112/3/19 111/3/19
f 97/3/20 104/3/20 105/3/20 112/3/20
