# Blender 5.2.0 LTS
# www.blender.org
mtllib FN_Mirror_Floor.mtl
o FN_Mirror_Floor
v -0.350000 0.000000 0.100000
v 0.350000 0.000000 0.100000
v 0.350000 0.000000 0.160000
v -0.350000 0.000000 0.160000
v -0.350000 0.080000 0.147619
v 0.350000 0.080000 0.147619
v 0.350000 0.080000 0.087619
v -0.350000 0.080000 0.087619
v -0.350000 1.600000 -0.147619
v 0.350000 1.600000 -0.147619
v 0.350000 1.600000 -0.087619
v -0.350000 1.600000 -0.087619
v -0.350000 1.680000 -0.100000
v 0.350000 1.680000 -0.100000
v 0.350000 1.680000 -0.160000
v -0.350000 1.680000 -0.160000
v -0.270000 0.080000 0.087619
v -0.270000 0.080000 0.147619
v -0.270000 1.600000 -0.087619
v -0.270000 1.600000 -0.147619
v 0.270000 0.080000 0.087619
v 0.270000 0.080000 0.147619
v 0.270000 1.600000 -0.087619
v 0.270000 1.600000 -0.147619
v -0.270000 0.076000 0.114238
v 0.270000 0.076000 0.114238
v 0.270000 0.076000 0.140238
v -0.270000 0.076000 0.140238
v -0.270000 0.094000 0.137452
v 0.270000 0.094000 0.137452
v 0.270000 0.094000 0.111452
v -0.270000 0.094000 0.111452
v -0.270000 1.586000 -0.119452
v 0.270000 1.586000 -0.119452
v 0.270000 1.586000 -0.093452
v -0.270000 1.586000 -0.093452
v -0.270000 1.604000 -0.096238
v 0.270000 1.604000 -0.096238
v 0.270000 1.604000 -0.122238
v -0.270000 1.604000 -0.122238
v -0.270000 0.080000 0.113619
v -0.252000 0.080000 0.113619
v -0.252000 0.080000 0.139619
v -0.270000 0.080000 0.139619
v -0.270000 1.600000 -0.095619
v -0.252000 1.600000 -0.095619
v -0.252000 1.600000 -0.121619
v -0.270000 1.600000 -0.121619
v 0.252000 0.080000 0.113619
v 0.270000 0.080000 0.113619
v 0.270000 0.080000 0.139619
v 0.252000 0.080000 0.139619
v 0.252000 1.600000 -0.095619
v 0.270000 1.600000 -0.095619
v 0.270000 1.600000 -0.121619
v 0.252000 1.600000 -0.121619
v -0.256000 0.090000 0.110071
v 0.256000 0.090000 0.110071
v 0.256000 0.090000 0.120071
v -0.256000 0.090000 0.120071
v -0.256000 1.590000 -0.112071
v 0.256000 1.590000 -0.112071
v 0.256000 1.590000 -0.122071
v -0.256000 1.590000 -0.122071
v -0.278000 0.000000 0.152000
v -0.278000 0.000000 0.108000
v -0.182000 0.000000 0.108000
v -0.182000 0.000000 0.152000
v -0.278000 0.010000 0.152000
v -0.182000 0.010000 0.152000
v -0.182000 0.010000 0.108000
v -0.278000 0.010000 0.108000
v 0.182000 0.000000 0.152000
v 0.182000 0.000000 0.108000
v 0.278000 0.000000 0.108000
v 0.278000 0.000000 0.152000
v 0.182000 0.010000 0.152000
v 0.278000 0.010000 0.152000
v 0.278000 0.010000 0.108000
v 0.182000 0.010000 0.108000
vn -0.0000 -1.0000 -0.0000
vn -0.0000 1.0000 -0.0000
vn -0.0000 0.1529 0.9882
vn 1.0000 -0.0000 -0.0000
vn -0.0000 -0.1529 -0.9882
vn -1.0000 -0.0000 -0.0000
vn -0.0000 -0.0000 1.0000
vn -0.0000 -0.0000 -1.0000
vt 0.687500 0.937500
vt 0.437500 0.312500
vt 0.187500 0.312500
vt 0.812500 0.312500
s 0
usemtl FN_Atlas
f 1/1/1 2/1/1 3/1/1 4/1/1
f 5/1/2 6/1/2 7/1/2 8/1/2
f 4/1/3 3/1/3 6/1/3 5/1/3
f 3/1/4 2/1/4 7/1/4 6/1/4
f 2/1/5 1/1/5 8/1/5 7/1/5
f 1/1/6 4/1/6 5/1/6 8/1/6
f 9/1/1 10/1/1 11/1/1 12/1/1
f 13/1/2 14/1/2 15/1/2 16/1/2
f 12/1/3 11/1/3 14/1/3 13/1/3
f 11/1/4 10/1/4 15/1/4 14/1/4
f 10/1/5 9/1/5 16/1/5 15/1/5
f 9/1/6 12/1/6 13/1/6 16/1/6
f 8/1/1 17/1/1 18/1/1 5/1/1
f 12/1/2 19/1/2 20/1/2 9/1/2
f 5/1/3 18/1/3 19/1/3 12/1/3
f 18/1/4 17/1/4 20/1/4 19/1/4
f 17/1/5 8/1/5 9/1/5 20/1/5
f 8/1/6 5/1/6 12/1/6 9/1/6
f 21/1/1 7/1/1 6/1/1 22/1/1
f 23/1/2 11/1/2 10/1/2 24/1/2
f 22/1/3 6/1/3 11/1/3 23/1/3
f 6/1/4 7/1/4 10/1/4 11/1/4
f 7/1/5 21/1/5 24/1/5 10/1/5
f 21/1/6 22/1/6 23/1/6 24/1/6
f 25/2/1 26/2/1 27/2/1 28/2/1
f 29/2/2 30/2/2 31/2/2 32/2/2
f 28/2/3 27/2/3 30/2/3 29/2/3
f 27/2/4 26/2/4 31/2/4 30/2/4
f 26/2/5 25/2/5 32/2/5 31/2/5
f 25/2/6 28/2/6 29/2/6 32/2/6
f 33/2/1 34/2/1 35/2/1 36/2/1
f 37/2/2 38/2/2 39/2/2 40/2/2
f 36/2/3 35/2/3 38/2/3 37/2/3
f 35/2/4 34/2/4 39/2/4 38/2/4
f 34/2/5 33/2/5 40/2/5 39/2/5
f 33/2/6 36/2/6 37/2/6 40/2/6
f 41/2/1 42/2/1 43/2/1 44/2/1
f 45/2/2 46/2/2 47/2/2 48/2/2
f 44/2/3 43/2/3 46/2/3 45/2/3
f 43/2/4 42/2/4 47/2/4 46/2/4
f 42/2/5 41/2/5 48/2/5 47/2/5
f 41/2/6 44/2/6 45/2/6 48/2/6
f 49/2/1 50/2/1 51/2/1 52/2/1
f 53/2/2 54/2/2 55/2/2 56/2/2
f 52/2/3 51/2/3 54/2/3 53/2/3
f 51/2/4 50/2/4 55/2/4 54/2/4
f 50/2/5 49/2/5 56/2/5 55/2/5
f 49/2/6 52/2/6 53/2/6 56/2/6
f 57/3/1 58/3/1 59/3/1 60/3/1
f 61/3/2 62/3/2 63/3/2 64/3/2
f 60/3/3 59/3/3 62/3/3 61/3/3
f 59/3/4 58/3/4 63/3/4 62/3/4
f 58/3/5 57/3/5 64/3/5 63/3/5
f 57/3/6 60/3/6 61/3/6 64/3/6
f 65/4/1 66/4/1 67/4/1 68/4/1
f 69/4/2 70/4/2 71/4/2 72/4/2
f 65/4/7 68/4/7 70/4/7 69/4/7
f 67/4/8 66/4/8 72/4/8 71/4/8
f 65/4/6 69/4/6 72/4/6 66/4/6
f 68/4/4 67/4/4 71/4/4 70/4/4
f 73/4/1 74/4/1 75/4/1 76/4/1
f 77/4/2 78/4/2 79/4/2 80/4/2
f 73/4/7 76/4/7 78/4/7 77/4/7
f 75/4/8 74/4/8 80/4/8 79/4/8
f 73/4/6 77/4/6 80/4/6 74/4/6
f 76/4/4 75/4/4 79/4/4 78/4/4
