# Blender 5.2.0 LTS
# www.blender.org
mtllib FN_Media_Wall.mtl
o FN_Media_Wall
v -0.700000 0.000000 0.000000
v -0.700000 0.000000 -0.380000
v -0.682000 0.000000 -0.380000
v -0.682000 0.000000 0.000000
v -0.700000 0.420000 0.000000
v -0.682000 0.420000 0.000000
v -0.682000 0.420000 -0.380000
v -0.700000 0.420000 -0.380000
v 0.682000 0.000000 0.000000
v 0.682000 0.000000 -0.380000
v 0.700000 0.000000 -0.380000
v 0.700000 0.000000 0.000000
v 0.682000 0.420000 0.000000
v 0.700000 0.420000 0.000000
v 0.700000 0.420000 -0.380000
v 0.682000 0.420000 -0.380000
v -0.682000 0.018000 0.000000
v 0.682000 0.018000 0.000000
v 0.682000 0.018000 -0.380000
v -0.682000 0.018000 -0.380000
v -0.682000 0.402000 0.000000
v -0.682000 0.402000 -0.380000
v 0.682000 0.402000 -0.380000
v 0.682000 0.402000 0.000000
v -0.682000 0.018000 -0.016000
v 0.682000 0.018000 -0.016000
v 0.682000 0.402000 -0.016000
v -0.682000 0.402000 -0.016000
v -0.682000 0.170000 -0.016000
v 0.682000 0.170000 -0.016000
v 0.682000 0.170000 -0.380000
v -0.682000 0.170000 -0.380000
v -0.009000 0.164000 -0.016000
v -0.009000 0.164000 -0.380000
v 0.009000 0.164000 -0.380000
v 0.009000 0.164000 -0.016000
v -0.009000 0.410000 -0.016000
v 0.009000 0.410000 -0.016000
v 0.009000 0.410000 -0.380000
v -0.009000 0.410000 -0.380000
v -0.676000 0.024000 -0.380000
v -0.676000 0.024000 -0.392000
v 0.676000 0.024000 -0.392000
v 0.676000 0.024000 -0.380000
v -0.676000 0.164000 -0.380000
v 0.676000 0.164000 -0.380000
v 0.676000 0.164000 -0.392000
v -0.676000 0.164000 -0.392000
v -0.560000 0.128000 -0.388000
v -0.560000 0.128000 -0.402000
v 0.560000 0.128000 -0.402000
v 0.560000 0.128000 -0.388000
v -0.560000 0.152000 -0.388000
v 0.560000 0.152000 -0.388000
v 0.560000 0.152000 -0.402000
v -0.560000 0.152000 -0.402000
vn -0.0000 -1.0000 -0.0000
vn -0.0000 1.0000 -0.0000
vn -0.0000 -0.0000 1.0000
vn -0.0000 -0.0000 -1.0000
vn -1.0000 -0.0000 -0.0000
vn 1.0000 -0.0000 -0.0000
vt 0.437500 0.937500
vt 0.937500 0.687500
vt 0.437500 0.812500
vt 0.812500 0.312500
s 0
usemtl FN_Atlas
f 1/1/1 2/1/1 3/1/1 4/1/1
f 5/1/2 6/1/2 7/1/2 8/1/2
f 1/1/3 4/1/3 6/1/3 5/1/3
f 3/1/4 2/1/4 8/1/4 7/1/4
f 1/1/5 5/1/5 8/1/5 2/1/5
f 4/1/6 3/1/6 7/1/6 6/1/6
f 9/1/1 10/1/1 11/1/1 12/1/1
f 13/1/2 14/1/2 15/1/2 16/1/2
f 9/1/3 12/1/3 14/1/3 13/1/3
f 11/1/4 10/1/4 16/1/4 15/1/4
f 9/1/5 13/1/5 16/1/5 10/1/5
f 12/1/6 11/1/6 15/1/6 14/1/6
f 4/1/1 3/1/1 10/1/1 9/1/1
f 17/1/2 18/1/2 19/1/2 20/1/2
f 4/1/3 9/1/3 18/1/3 17/1/3
f 10/1/4 3/1/4 20/1/4 19/1/4
f 4/1/5 17/1/5 20/1/5 3/1/5
f 9/1/6 10/1/6 19/1/6 18/1/6
f 21/1/1 22/1/1 23/1/1 24/1/1
f 6/1/2 13/1/2 16/1/2 7/1/2
f 21/1/3 24/1/3 13/1/3 6/1/3
f 23/1/4 22/1/4 7/1/4 16/1/4
f 21/1/5 6/1/5 7/1/5 22/1/5
f 24/1/6 23/1/6 16/1/6 13/1/6
f 17/2/1 25/2/1 26/2/1 18/2/1
f 21/2/2 24/2/2 27/2/2 28/2/2
f 17/2/3 18/2/3 24/2/3 21/2/3
f 26/2/4 25/2/4 28/2/4 27/2/4
f 17/2/5 21/2/5 28/2/5 25/2/5
f 18/2/6 26/2/6 27/2/6 24/2/6
f 25/1/1 20/1/1 19/1/1 26/1/1
f 29/1/2 30/1/2 31/1/2 32/1/2
f 25/1/3 26/1/3 30/1/3 29/1/3
f 19/1/4 20/1/4 32/1/4 31/1/4
f 25/1/5 29/1/5 32/1/5 20/1/5
f 26/1/6 19/1/6 31/1/6 30/1/6
f 33/1/1 34/1/1 35/1/1 36/1/1
f 37/1/2 38/1/2 39/1/2 40/1/2
f 33/1/3 36/1/3 38/1/3 37/1/3
f 35/1/4 34/1/4 40/1/4 39/1/4
f 33/1/5 37/1/5 40/1/5 34/1/5
f 36/1/6 35/1/6 39/1/6 38/1/6
f 41/3/1 42/3/1 43/3/1 44/3/1
f 45/3/2 46/3/2 47/3/2 48/3/2
f 41/3/3 44/3/3 46/3/3 45/3/3
f 43/3/4 42/3/4 48/3/4 47/3/4
f 41/3/5 45/3/5 48/3/5 42/3/5
f 44/3/6 43/3/6 47/3/6 46/3/6
f 49/4/1 50/4/1 51/4/1 52/4/1
f 53/4/2 54/4/2 55/4/2 56/4/2
f 49/4/3 52/4/3 54/4/3 53/4/3
f 51/4/4 50/4/4 56/4/4 55/4/4
f 49/4/5 53/4/5 56/4/5 50/4/5
f 52/4/6 51/4/6 55/4/6 54/4/6
