# Blender 5.2.0 LTS
# www.blender.org
mtllib FN_Mirror_Wall.mtl
o FN_Mirror_Wall
v 0.380000 0.380000 0.000000
v 0.380000 0.380000 -0.052000
v 0.367052 0.478351 -0.052000
v 0.367052 0.478351 0.000000
v 0.329090 0.570000 -0.052000
v 0.329090 0.570000 0.000000
v 0.268701 0.648701 -0.052000
v 0.268701 0.648701 0.000000
v 0.190000 0.709090 -0.052000
v 0.190000 0.709090 0.000000
v 0.098351 0.747052 -0.052000
v 0.098351 0.747052 0.000000
v 0.000000 0.760000 -0.052000
v 0.000000 0.760000 0.000000
v -0.098351 0.747052 -0.052000
v -0.098351 0.747052 0.000000
v -0.190000 0.709090 -0.052000
v -0.190000 0.709090 0.000000
v -0.268701 0.648701 -0.052000
v -0.268701 0.648701 0.000000
v -0.329090 0.570000 -0.052000
v -0.329090 0.570000 0.000000
v -0.367052 0.478351 -0.052000
v -0.367052 0.478351 0.000000
v -0.380000 0.380000 -0.052000
v -0.380000 0.380000 0.000000
v -0.367052 0.281649 -0.052000
v -0.367052 0.281649 0.000000
v -0.329090 0.190000 -0.052000
v -0.329090 0.190000 0.000000
v -0.268701 0.111299 -0.052000
v -0.268701 0.111299 0.000000
v -0.190000 0.050910 -0.052000
v -0.190000 0.050910 0.000000
v -0.098351 0.012948 -0.052000
v -0.098351 0.012948 0.000000
v -0.000000 0.000000 -0.052000
v -0.000000 0.000000 0.000000
v 0.098351 0.012948 -0.052000
v 0.098351 0.012948 0.000000
v 0.190000 0.050910 -0.052000
v 0.190000 0.050910 0.000000
v 0.268701 0.111299 -0.052000
v 0.268701 0.111299 0.000000
v 0.329090 0.190000 -0.052000
v 0.329090 0.190000 0.000000
v 0.367052 0.281649 -0.052000
v 0.367052 0.281649 0.000000
v 0.307164 0.297696 0.000000
v 0.307164 0.297696 -0.052000
v 0.275396 0.221000 -0.052000
v 0.275396 0.221000 0.000000
v 0.224860 0.155140 -0.052000
v 0.224860 0.155140 0.000000
v 0.159000 0.104604 -0.052000
v 0.159000 0.104604 0.000000
v 0.082304 0.072836 -0.052000
v 0.082304 0.072836 0.000000
v -0.000000 0.062000 -0.052000
v -0.000000 0.062000 0.000000
v -0.082304 0.072836 -0.052000
v -0.082304 0.072836 0.000000
v -0.159000 0.104604 -0.052000
v -0.159000 0.104604 0.000000
v -0.224860 0.155140 -0.052000
v -0.224860 0.155140 0.000000
v -0.275396 0.221000 -0.052000
v -0.275396 0.221000 0.000000
v -0.307164 0.297696 -0.052000
v -0.307164 0.297696 0.000000
v -0.318000 0.380000 -0.052000
v -0.318000 0.380000 0.000000
v -0.307164 0.462304 -0.052000
v -0.307164 0.462304 0.000000
v -0.275396 0.539000 -0.052000
v -0.275396 0.539000 0.000000
v -0.224860 0.604860 -0.052000
v -0.224860 0.604860 0.000000
v -0.159000 0.655396 -0.052000
v -0.159000 0.655396 0.000000
v -0.082304 0.687164 -0.052000
v -0.082304 0.687164 0.000000
v 0.000000 0.698000 -0.052000
v 0.000000 0.698000 0.000000
v 0.082304 0.687164 -0.052000
v 0.082304 0.687164 0.000000
v 0.159000 0.655396 -0.052000
v 0.159000 0.655396 0.000000
v 0.224860 0.604860 -0.052000
v 0.224860 0.604860 0.000000
v 0.275396 0.539000 -0.052000
v 0.275396 0.539000 0.000000
v 0.307164 0.462304 -0.052000
v 0.307164 0.462304 0.000000
v 0.318000 0.380000 -0.052000
v 0.318000 0.380000 0.000000
v 0.322000 0.380000 -0.002000
v 0.311028 0.463340 -0.002000
v 0.278860 0.541000 -0.002000
v 0.227688 0.607688 -0.002000
v 0.161000 0.658860 -0.002000
v 0.083340 0.691028 -0.002000
v 0.000000 0.702000 -0.002000
v -0.083340 0.691028 -0.002000
v -0.161000 0.658860 -0.002000
v -0.227688 0.607688 -0.002000
v -0.278860 0.541000 -0.002000
v -0.311028 0.463340 -0.002000
v -0.322000 0.380000 -0.002000
v -0.311028 0.296660 -0.002000
v -0.278860 0.219000 -0.002000
v -0.227688 0.152312 -0.002000
v -0.161000 0.101140 -0.002000
v -0.083340 0.068972 -0.002000
v -0.000000 0.058000 -0.002000
v 0.083340 0.068972 -0.002000
v 0.161000 0.101140 -0.002000
v 0.227688 0.152312 -0.002000
v 0.278860 0.219000 -0.002000
v 0.311028 0.296660 -0.002000
v 0.309096 0.297178 -0.016000
v 0.277128 0.220000 -0.016000
v 0.226274 0.153726 -0.016000
v 0.160000 0.102872 -0.016000
v 0.082822 0.070904 -0.016000
v -0.000000 0.060000 -0.016000
v -0.082822 0.070904 -0.016000
v -0.160000 0.102872 -0.016000
v -0.226274 0.153726 -0.016000
v -0.277128 0.220000 -0.016000
v -0.309096 0.297178 -0.016000
v -0.320000 0.380000 -0.016000
v -0.309096 0.462822 -0.016000
v -0.277128 0.540000 -0.016000
v -0.226274 0.606274 -0.016000
v -0.160000 0.657128 -0.016000
v -0.082822 0.689096 -0.016000
v 0.000000 0.700000 -0.016000
v 0.082822 0.689096 -0.016000
v 0.160000 0.657128 -0.016000
v 0.226274 0.606274 -0.016000
v 0.277128 0.540000 -0.016000
v 0.309096 0.462822 -0.016000
v 0.320000 0.380000 -0.016000
vn 0.9914 0.1305 -0.0000
vn 0.9239 0.3827 -0.0000
vn 0.7934 0.6088 -0.0000
vn 0.6088 0.7934 -0.0000
vn 0.3827 0.9239 -0.0000
vn 0.1305 0.9914 -0.0000
vn -0.1305 0.9914 -0.0000
vn -0.3827 0.9239 -0.0000
vn -0.6088 0.7934 -0.0000
vn -0.7934 0.6088 -0.0000
vn -0.9239 0.3827 -0.0000
vn -0.9914 0.1305 -0.0000
vn -0.9914 -0.1305 -0.0000
vn -0.9239 -0.3827 -0.0000
vn -0.7934 -0.6088 -0.0000
vn -0.6088 -0.7934 -0.0000
vn -0.3827 -0.9239 -0.0000
vn -0.1305 -0.9914 -0.0000
vn 0.1305 -0.9914 -0.0000
vn 0.3827 -0.9239 -0.0000
vn 0.6088 -0.7934 -0.0000
vn 0.7934 -0.6088 -0.0000
vn 0.9239 -0.3827 -0.0000
vn 0.9914 -0.1305 -0.0000
vn -0.0000 -0.0000 -1.0000
vn -0.0000 -0.0000 1.0000
vt 0.687500 0.937500
vt 0.812500 0.937500
vt 0.187500 0.312500
s 0
usemtl FN_Atlas
f 1/1/1 2/1/1 3/1/1 4/1/1
f 4/1/2 3/1/2 5/1/2 6/1/2
f 6/1/3 5/1/3 7/1/3 8/1/3
f 8/1/4 7/1/4 9/1/4 10/1/4
f 10/1/5 9/1/5 11/1/5 12/1/5
f 12/1/6 11/1/6 13/1/6 14/1/6
f 14/1/7 13/1/7 15/1/7 16/1/7
f 16/1/8 15/1/8 17/1/8 18/1/8
f 18/1/9 17/1/9 19/1/9 20/1/9
f 20/1/10 19/1/10 21/1/10 22/1/10
f 22/1/11 21/1/11 23/1/11 24/1/11
f 24/1/12 23/1/12 25/1/12 26/1/12
f 26/1/13 25/1/13 27/1/13 28/1/13
f 28/1/14 27/1/14 29/1/14 30/1/14
f 30/1/15 29/1/15 31/1/15 32/1/15
f 32/1/16 31/1/16 33/1/16 34/1/16
f 34/1/17 33/1/17 35/1/17 36/1/17
f 36/1/18 35/1/18 37/1/18 38/1/18
f 38/1/19 37/1/19 39/1/19 40/1/19
f 40/1/20 39/1/20 41/1/20 42/1/20
f 42/1/21 41/1/21 43/1/21 44/1/21
f 44/1/22 43/1/22 45/1/22 46/1/22
f 46/1/23 45/1/23 47/1/23 48/1/23
f 48/1/24 47/1/24 2/1/24 1/1/24
f 49/2/11 50/2/11 51/2/11 52/2/11
f 52/2/10 51/2/10 53/2/10 54/2/10
f 54/2/9 53/2/9 55/2/9 56/2/9
f 56/2/8 55/2/8 57/2/8 58/2/8
f 58/2/7 57/2/7 59/2/7 60/2/7
f 60/2/6 59/2/6 61/2/6 62/2/6
f 62/2/5 61/2/5 63/2/5 64/2/5
f 64/2/4 63/2/4 65/2/4 66/2/4
f 66/2/3 65/2/3 67/2/3 68/2/3
f 68/2/2 67/2/2 69/2/2 70/2/2
f 70/2/1 69/2/1 71/2/1 72/2/1
f 72/2/24 71/2/24 73/2/24 74/2/24
f 74/2/23 73/2/23 75/2/23 76/2/23
f 76/2/22 75/2/22 77/2/22 78/2/22
f 78/2/21 77/2/21 79/2/21 80/2/21
f 80/2/20 79/2/20 81/2/20 82/2/20
f 82/2/19 81/2/19 83/2/19 84/2/19
f 84/2/18 83/2/18 85/2/18 86/2/18
f 86/2/17 85/2/17 87/2/17 88/2/17
f 88/2/16 87/2/16 89/2/16 90/2/16
f 90/2/15 89/2/15 91/2/15 92/2/15
f 92/2/14 91/2/14 93/2/14 94/2/14
f 94/2/13 93/2/13 95/2/13 96/2/13
f 96/2/12 95/2/12 50/2/12 49/2/12
f 95/1/25 93/1/25 3/1/25 2/1/25
f 93/1/25 91/1/25 5/1/25 3/1/25
f 91/1/25 89/1/25 7/1/25 5/1/25
f 89/1/25 87/1/25 9/1/25 7/1/25
f 87/1/25 85/1/25 11/1/25 9/1/25
f 85/1/25 83/1/25 13/1/25 11/1/25
f 83/1/25 81/1/25 15/1/25 13/1/25
f 81/1/25 79/1/25 17/1/25 15/1/25
f 79/1/25 77/1/25 19/1/25 17/1/25
f 77/1/25 75/1/25 21/1/25 19/1/25
f 75/1/25 73/1/25 23/1/25 21/1/25
f 73/1/25 71/1/25 25/1/25 23/1/25
f 71/1/25 69/1/25 27/1/25 25/1/25
f 69/1/25 67/1/25 29/1/25 27/1/25
f 67/1/25 65/1/25 31/1/25 29/1/25
f 65/1/25 63/1/25 33/1/25 31/1/25
f 63/1/25 61/1/25 35/1/25 33/1/25
f 61/1/25 59/1/25 37/1/25 35/1/25
f 59/1/25 57/1/25 39/1/25 37/1/25
f 57/1/25 55/1/25 41/1/25 39/1/25
f 55/1/25 53/1/25 43/1/25 41/1/25
f 53/1/25 51/1/25 45/1/25 43/1/25
f 51/1/25 50/1/25 47/1/25 45/1/25
f 50/1/25 95/1/25 2/1/25 47/1/25
f 1/2/26 4/2/26 94/2/26 96/2/26
f 4/2/26 6/2/26 92/2/26 94/2/26
f 6/2/26 8/2/26 90/2/26 92/2/26
f 8/2/26 10/2/26 88/2/26 90/2/26
f 10/2/26 12/2/26 86/2/26 88/2/26
f 12/2/26 14/2/26 84/2/26 86/2/26
f 14/2/26 16/2/26 82/2/26 84/2/26
f 16/2/26 18/2/26 80/2/26 82/2/26
f 18/2/26 20/2/26 78/2/26 80/2/26
f 20/2/26 22/2/26 76/2/26 78/2/26
f 22/2/26 24/2/26 74/2/26 76/2/26
f 24/2/26 26/2/26 72/2/26 74/2/26
f 26/2/26 28/2/26 70/2/26 72/2/26
f 28/2/26 30/2/26 68/2/26 70/2/26
f 30/2/26 32/2/26 66/2/26 68/2/26
f 32/2/26 34/2/26 64/2/26 66/2/26
f 34/2/26 36/2/26 62/2/26 64/2/26
f 36/2/26 38/2/26 60/2/26 62/2/26
f 38/2/26 40/2/26 58/2/26 60/2/26
f 40/2/26 42/2/26 56/2/26 58/2/26
f 42/2/26 44/2/26 54/2/26 56/2/26
f 44/2/26 46/2/26 52/2/26 54/2/26
f 46/2/26 48/2/26 49/2/26 52/2/26
f 48/2/26 1/2/26 96/2/26 49/2/26
f 97/2/26 98/2/26 99/2/26 100/2/26 101/2/26 102/2/26 103/2/26 104/2/26 105/2/26 106/2/26 107/2/26 108/2/26 109/2/26 110/2/26 111/2/26 112/2/26 113/2/26 114/2/26 115/2/26 116/2/26 117/2/26 118/2/26 119/2/26 120/2/26
f 121/3/25 122/3/25 123/3/25 124/3/25 125/3/25 126/3/25 127/3/25 128/3/25 129/3/25 130/3/25 131/3/25 132/3/25 133/3/25 134/3/25 135/3/25 136/3/25 137/3/25 138/3/25 139/3/25 140/3/25 141/3/25 142/3/25 143/3/25 144/3/25
