# Blender 5.2.0 LTS
# www.blender.org
mtllib FN_Machine_Coffee.mtl
o FN_Machine_Coffee
v -0.142444 0.000000 0.190000
v -0.142444 0.000000 -0.190000
v 0.137556 0.000000 -0.190000
v 0.137556 0.000000 0.190000
v -0.142444 0.020000 0.190000
v 0.137556 0.020000 0.190000
v 0.137556 0.020000 -0.190000
v -0.142444 0.020000 -0.190000
v -0.152444 0.020000 0.060000
v -0.152444 0.020000 -0.200000
v 0.147556 0.020000 -0.200000
v 0.147556 0.020000 0.060000
v -0.152444 0.360000 0.060000
v 0.147556 0.360000 0.060000
v 0.147556 0.360000 -0.200000
v -0.152444 0.360000 -0.200000
v -0.152444 0.020000 0.200000
v 0.147556 0.020000 0.200000
v -0.152444 0.070000 0.200000
v 0.147556 0.070000 0.200000
v 0.147556 0.070000 0.060000
v -0.152444 0.070000 0.060000
v -0.134444 0.070000 0.192000
v -0.134444 0.070000 0.180000
v 0.129556 0.070000 0.180000
v 0.129556 0.070000 0.192000
v -0.134444 0.092000 0.192000
v 0.129556 0.092000 0.192000
v 0.129556 0.092000 0.180000
v -0.134444 0.092000 0.180000
v -0.134444 0.070000 0.084000
v -0.134444 0.070000 0.072000
v 0.129556 0.070000 0.072000
v 0.129556 0.070000 0.084000
v -0.134444 0.092000 0.084000
v 0.129556 0.092000 0.084000
v 0.129556 0.092000 0.072000
v -0.134444 0.092000 0.072000
v -0.122444 0.070000 0.072000
v -0.122444 0.070000 0.192000
v -0.122444 0.092000 0.192000
v -0.122444 0.092000 0.072000
v 0.117556 0.070000 0.192000
v 0.117556 0.070000 0.072000
v 0.117556 0.092000 0.192000
v 0.117556 0.092000 0.072000
v -0.098444 0.080000 0.186000
v -0.098444 0.080000 0.078000
v -0.086444 0.080000 0.078000
v -0.086444 0.080000 0.186000
v -0.098444 0.092000 0.186000
v -0.086444 0.092000 0.186000
v -0.086444 0.092000 0.078000
v -0.098444 0.092000 0.078000
v -0.053444 0.080000 0.186000
v -0.053444 0.080000 0.078000
v -0.041444 0.080000 0.078000
v -0.041444 0.080000 0.186000
v -0.053444 0.092000 0.186000
v -0.041444 0.092000 0.186000
v -0.041444 0.092000 0.078000
v -0.053444 0.092000 0.078000
v -0.008444 0.080000 0.186000
v -0.008444 0.080000 0.078000
v 0.003556 0.080000 0.078000
v 0.003556 0.080000 0.186000
v -0.008444 0.092000 0.186000
v 0.003556 0.092000 0.186000
v 0.003556 0.092000 0.078000
v -0.008444 0.092000 0.078000
v 0.036556 0.080000 0.186000
v 0.036556 0.080000 0.078000
v 0.048556 0.080000 0.078000
v 0.048556 0.080000 0.186000
v 0.036556 0.092000 0.186000
v 0.048556 0.092000 0.186000
v 0.048556 0.092000 0.078000
v 0.036556 0.092000 0.078000
v 0.081556 0.080000 0.186000
v 0.081556 0.080000 0.078000
v 0.093556 0.080000 0.078000
v 0.093556 0.080000 0.186000
v 0.081556 0.092000 0.186000
v 0.093556 0.092000 0.186000
v 0.093556 0.092000 0.078000
v 0.081556 0.092000 0.078000
v -0.052444 0.200000 0.100000
v -0.052444 0.200000 0.055000
v 0.047556 0.200000 0.055000
v 0.047556 0.200000 0.100000
v -0.052444 0.240000 0.100000
v 0.047556 0.240000 0.100000
v 0.047556 0.240000 0.055000
v -0.052444 0.240000 0.055000
v 0.018770 0.160000 0.099213
v -0.002444 0.160000 0.108000
v -0.023657 0.160000 0.099213
v -0.032444 0.160000 0.078000
v -0.023657 0.160000 0.056787
v -0.002444 0.160000 0.048000
v 0.018770 0.160000 0.056787
v 0.027556 0.160000 0.078000
v 0.027556 0.204000 0.078000
v 0.018770 0.204000 0.056787
v -0.002444 0.204000 0.048000
v -0.023657 0.204000 0.056787
v -0.032444 0.204000 0.078000
v -0.023657 0.204000 0.099213
v -0.002444 0.204000 0.108000
v 0.018770 0.204000 0.099213
v 0.020184 0.150000 0.100627
v -0.002444 0.150000 0.110000
v -0.025071 0.150000 0.100627
v -0.034444 0.150000 0.078000
v -0.025071 0.150000 0.055373
v -0.002444 0.150000 0.046000
v 0.020184 0.150000 0.055373
v 0.029556 0.150000 0.078000
v 0.033556 0.172000 0.078000
v 0.023012 0.172000 0.052544
v -0.002444 0.172000 0.042000
v -0.027899 0.172000 0.052544
v -0.038444 0.172000 0.078000
v -0.027899 0.172000 0.103456
v -0.002444 0.172000 0.114000
v 0.023012 0.172000 0.103456
v -0.012444 0.170782 0.079970
v -0.012444 0.146782 0.186970
v -0.012444 0.129218 0.183030
v -0.012444 0.153218 0.076030
v 0.007556 0.153218 0.076030
v 0.007556 0.129218 0.183030
v 0.007556 0.146782 0.186970
v 0.007556 0.170782 0.079970
v 0.015941 0.092000 0.096385
v -0.002444 0.092000 0.104000
v -0.020828 0.092000 0.096385
v -0.028444 0.092000 0.078000
v -0.020828 0.092000 0.059615
v -0.002444 0.092000 0.052000
v 0.015941 0.092000 0.059615
v 0.023556 0.092000 0.078000
v 0.020184 0.145000 0.055373
v 0.029556 0.145000 0.078000
v -0.002444 0.145000 0.046000
v -0.025071 0.145000 0.055373
v -0.034444 0.145000 0.078000
v -0.025071 0.145000 0.100627
v -0.002444 0.145000 0.110000
v 0.020184 0.145000 0.100627
v 0.024556 0.145000 0.078000
v 0.016648 0.145000 0.058908
v 0.012406 0.104000 0.063151
v 0.018556 0.104000 0.078000
v -0.002444 0.145000 0.051000
v -0.002444 0.104000 0.057000
v -0.021535 0.145000 0.058908
v -0.017293 0.104000 0.063151
v -0.029444 0.145000 0.078000
v -0.023444 0.104000 0.078000
v -0.021535 0.145000 0.097092
v -0.017293 0.104000 0.092849
v -0.002444 0.145000 0.105000
v -0.002444 0.104000 0.099000
v 0.016648 0.145000 0.097092
v 0.012406 0.104000 0.092849
v 0.128261 0.245561 0.035312
v 0.121374 0.245561 0.036564
v 0.118669 0.250000 0.041252
v 0.122852 0.254439 0.044688
v 0.129739 0.254439 0.043436
v 0.132444 0.250000 0.038748
v 0.152444 0.146000 0.148748
v 0.149739 0.150439 0.153436
v 0.142852 0.150439 0.154688
v 0.138669 0.146000 0.151252
v 0.141374 0.141561 0.146564
v 0.148261 0.141561 0.145312
v 0.145556 0.160000 0.150000
v 0.145556 0.142000 0.150000
v -0.152444 0.360000 0.056000
v -0.152444 0.360000 0.044000
v 0.147556 0.360000 0.044000
v 0.147556 0.360000 0.056000
v -0.152444 0.374000 0.056000
v 0.147556 0.374000 0.056000
v 0.147556 0.374000 0.044000
v -0.152444 0.374000 0.044000
v -0.152444 0.360000 -0.184000
v -0.152444 0.360000 -0.196000
v 0.147556 0.360000 -0.196000
v 0.147556 0.360000 -0.184000
v -0.152444 0.374000 -0.184000
v 0.147556 0.374000 -0.184000
v 0.147556 0.374000 -0.196000
v -0.152444 0.374000 -0.196000
v -0.048402 0.360000 -0.035958
v -0.072444 0.360000 -0.026000
v -0.096485 0.360000 -0.035958
v -0.106444 0.360000 -0.060000
v -0.096485 0.360000 -0.084042
v -0.072444 0.360000 -0.094000
v -0.048402 0.360000 -0.084042
v -0.038444 0.360000 -0.060000
v -0.042444 0.414000 -0.060000
v -0.051230 0.414000 -0.081213
v -0.072444 0.414000 -0.090000
v -0.093657 0.414000 -0.081213
v -0.102444 0.414000 -0.060000
v -0.093657 0.414000 -0.038787
v -0.072444 0.414000 -0.030000
v -0.051230 0.414000 -0.038787
v 0.091598 0.360000 -0.091958
v 0.067556 0.360000 -0.082000
v 0.043515 0.360000 -0.091958
v 0.033556 0.360000 -0.116000
v 0.043515 0.360000 -0.140042
v 0.067556 0.360000 -0.150000
v 0.091598 0.360000 -0.140042
v 0.101556 0.360000 -0.116000
v 0.097556 0.414000 -0.116000
v 0.088770 0.414000 -0.137213
v 0.067556 0.414000 -0.146000
v 0.046343 0.414000 -0.137213
v 0.037556 0.414000 -0.116000
v 0.046343 0.414000 -0.094787
v 0.067556 0.414000 -0.086000
v 0.088770 0.414000 -0.094787
v -0.024444 0.282000 0.072000
v -0.024444 0.282000 0.058000
v 0.019556 0.282000 0.058000
v 0.019556 0.282000 0.072000
v -0.024444 0.302000 0.072000
v 0.019556 0.302000 0.072000
v 0.019556 0.302000 0.058000
v -0.024444 0.302000 0.058000
vn -0.0000 -1.0000 -0.0000
vn -0.0000 1.0000 -0.0000
vn -0.0000 -0.0000 1.0000
vn -0.0000 -0.0000 -1.0000
vn -1.0000 -0.0000 -0.0000
vn 1.0000 -0.0000 -0.0000
vn 0.9239 -0.0000 -0.3827
vn 0.3827 -0.0000 -0.9239
vn -0.3827 -0.0000 -0.9239
vn -0.9239 -0.0000 -0.3827
vn -0.9239 -0.0000 0.3827
vn -0.3827 -0.0000 0.9239
vn 0.3827 -0.0000 0.9239
vn 0.9239 -0.0000 0.3827
vn 0.9111 -0.1657 -0.3774
vn 0.3774 -0.1657 -0.9111
vn -0.3774 -0.1657 -0.9111
vn -0.9111 -0.1657 -0.3774
vn -0.9111 -0.1657 0.3774
vn -0.3774 -0.1657 0.9111
vn 0.3774 -0.1657 0.9111
vn 0.9111 -0.1657 0.3774
vn -0.0000 0.9758 0.2189
vn -0.0000 0.2189 -0.9758
vn -0.0000 -0.9758 -0.2189
vn -0.0000 -0.2189 0.9758
vn 0.9189 -0.1040 -0.3806
vn 0.3806 -0.1040 -0.9189
vn -0.3806 -0.1040 -0.9189
vn -0.9189 -0.1040 -0.3806
vn -0.9189 -0.1040 0.3806
vn -0.3806 -0.1040 0.9189
vn 0.3806 -0.1040 0.9189
vn 0.9189 -0.1040 0.3806
vn -0.9155 0.1340 0.3792
vn -0.3792 0.1340 0.9155
vn 0.3792 0.1340 0.9155
vn 0.9155 0.1340 0.3792
vn 0.9155 0.1340 -0.3792
vn 0.3792 0.1340 -0.9155
vn -0.3792 0.1340 -0.9155
vn -0.9155 0.1340 -0.3792
vn -0.1310 0.6811 -0.7204
vn 0.1310 -0.6811 0.7204
vn 0.9130 0.3661 0.1801
vn 0.1218 0.7322 0.6701
vn -0.7911 0.3661 0.4900
vn -0.9130 -0.3661 -0.1801
vn -0.1218 -0.7322 -0.6701
vn 0.7911 -0.3661 -0.4900
vn 0.9217 0.0683 -0.3818
vn 0.3818 0.0683 -0.9217
vn -0.3818 0.0683 -0.9217
vn -0.9217 0.0683 -0.3818
vn -0.9217 0.0683 0.3818
vn -0.3818 0.0683 0.9217
vn 0.3818 0.0683 0.9217
vn 0.9217 0.0683 0.3818
vt 0.812500 0.312500
vt 0.687500 0.062500
vt 0.312500 0.312500
vt 0.437500 0.812500
s 0
usemtl FN_Atlas
f 1/1/1 2/1/1 3/1/1 4/1/1
f 5/1/2 6/1/2 7/1/2 8/1/2
f 1/1/3 4/1/3 6/1/3 5/1/3
f 3/1/4 2/1/4 8/1/4 7/1/4
f 1/1/5 5/1/5 8/1/5 2/1/5
f 4/1/6 3/1/6 7/1/6 6/1/6
f 9/1/1 10/1/1 11/1/1 12/1/1
f 13/1/2 14/1/2 15/1/2 16/1/2
f 9/1/3 12/1/3 14/1/3 13/1/3
f 11/1/4 10/1/4 16/1/4 15/1/4
f 9/1/5 13/1/5 16/1/5 10/1/5
f 12/1/6 11/1/6 15/1/6 14/1/6
f 17/1/1 9/1/1 12/1/1 18/1/1
f 19/1/2 20/1/2 21/1/2 22/1/2
f 17/1/3 18/1/3 20/1/3 19/1/3
f 12/1/4 9/1/4 22/1/4 21/1/4
f 17/1/5 19/1/5 22/1/5 9/1/5
f 18/1/6 12/1/6 21/1/6 20/1/6
f 23/2/1 24/2/1 25/2/1 26/2/1
f 27/2/2 28/2/2 29/2/2 30/2/2
f 23/2/3 26/2/3 28/2/3 27/2/3
f 25/2/4 24/2/4 30/2/4 29/2/4
f 23/2/5 27/2/5 30/2/5 24/2/5
f 26/2/6 25/2/6 29/2/6 28/2/6
f 31/2/1 32/2/1 33/2/1 34/2/1
f 35/2/2 36/2/2 37/2/2 38/2/2
f 31/2/3 34/2/3 36/2/3 35/2/3
f 33/2/4 32/2/4 38/2/4 37/2/4
f 31/2/5 35/2/5 38/2/5 32/2/5
f 34/2/6 33/2/6 37/2/6 36/2/6
f 23/2/1 32/2/1 39/2/1 40/2/1
f 27/2/2 41/2/2 42/2/2 38/2/2
f 23/2/3 40/2/3 41/2/3 27/2/3
f 39/2/4 32/2/4 38/2/4 42/2/4
f 23/2/5 27/2/5 38/2/5 32/2/5
f 40/2/6 39/2/6 42/2/6 41/2/6
f 43/2/1 44/2/1 33/2/1 26/2/1
f 45/2/2 28/2/2 37/2/2 46/2/2
f 43/2/3 26/2/3 28/2/3 45/2/3
f 33/2/4 44/2/4 46/2/4 37/2/4
f 43/2/5 45/2/5 46/2/5 44/2/5
f 26/2/6 33/2/6 37/2/6 28/2/6
f 47/2/1 48/2/1 49/2/1 50/2/1
f 51/2/2 52/2/2 53/2/2 54/2/2
f 47/2/3 50/2/3 52/2/3 51/2/3
f 49/2/4 48/2/4 54/2/4 53/2/4
f 47/2/5 51/2/5 54/2/5 48/2/5
f 50/2/6 49/2/6 53/2/6 52/2/6
f 55/2/1 56/2/1 57/2/1 58/2/1
f 59/2/2 60/2/2 61/2/2 62/2/2
f 55/2/3 58/2/3 60/2/3 59/2/3
f 57/2/4 56/2/4 62/2/4 61/2/4
f 55/2/5 59/2/5 62/2/5 56/2/5
f 58/2/6 57/2/6 61/2/6 60/2/6
f 63/2/1 64/2/1 65/2/1 66/2/1
f 67/2/2 68/2/2 69/2/2 70/2/2
f 63/2/3 66/2/3 68/2/3 67/2/3
f 65/2/4 64/2/4 70/2/4 69/2/4
f 63/2/5 67/2/5 70/2/5 64/2/5
f 66/2/6 65/2/6 69/2/6 68/2/6
f 71/2/1 72/2/1 73/2/1 74/2/1
f 75/2/2 76/2/2 77/2/2 78/2/2
f 71/2/3 74/2/3 76/2/3 75/2/3
f 73/2/4 72/2/4 78/2/4 77/2/4
f 71/2/5 75/2/5 78/2/5 72/2/5
f 74/2/6 73/2/6 77/2/6 76/2/6
f 79/2/1 80/2/1 81/2/1 82/2/1
f 83/2/2 84/2/2 85/2/2 86/2/2
f 79/2/3 82/2/3 84/2/3 83/2/3
f 81/2/4 80/2/4 86/2/4 85/2/4
f 79/2/5 83/2/5 86/2/5 80/2/5
f 82/2/6 81/2/6 85/2/6 84/2/6
f 87/3/1 88/3/1 89/3/1 90/3/1
f 91/3/2 92/3/2 93/3/2 94/3/2
f 87/3/3 90/3/3 92/3/3 91/3/3
f 89/3/4 88/3/4 94/3/4 93/3/4
f 87/3/5 91/3/5 94/3/5 88/3/5
f 90/3/6 89/3/6 93/3/6 92/3/6
f 95/3/1 96/3/1 97/3/1 98/3/1 99/3/1 100/3/1 101/3/1 102/3/1
f 103/3/2 104/3/2 105/3/2 106/3/2 107/3/2 108/3/2 109/3/2 110/3/2
f 102/3/7 101/3/7 104/3/7 103/3/7
f 101/3/8 100/3/8 105/3/8 104/3/8
f 100/3/9 99/3/9 106/3/9 105/3/9
f 99/3/10 98/3/10 107/3/10 106/3/10
f 98/3/11 97/3/11 108/3/11 107/3/11
f 97/3/12 96/3/12 109/3/12 108/3/12
f 96/3/13 95/3/13 110/3/13 109/3/13
f 95/3/14 102/3/14 103/3/14 110/3/14
f 111/3/1 112/3/1 113/3/1 114/3/1 115/3/1 116/3/1 117/3/1 118/3/1
f 119/3/2 120/3/2 121/3/2 122/3/2 123/3/2 124/3/2 125/3/2 126/3/2
f 118/3/15 117/3/15 120/3/15 119/3/15
f 117/3/16 116/3/16 121/3/16 120/3/16
f 116/3/17 115/3/17 122/3/17 121/3/17
f 115/3/18 114/3/18 123/3/18 122/3/18
f 114/3/19 113/3/19 124/3/19 123/3/19
f 113/3/20 112/3/20 125/3/20 124/3/20
f 112/3/21 111/3/21 126/3/21 125/3/21
f 111/3/22 118/3/22 119/3/22 126/3/22
f 127/3/6 128/3/6 129/3/6 130/3/6
f 131/3/5 132/3/5 133/3/5 134/3/5
f 130/3/23 129/3/23 132/3/23 131/3/23
f 129/3/24 128/3/24 133/3/24 132/3/24
f 128/3/25 127/3/25 134/3/25 133/3/25
f 127/3/26 130/3/26 131/3/26 134/3/26
f 135/4/1 136/4/1 137/4/1 138/4/1 139/4/1 140/4/1 141/4/1 142/4/1
f 142/4/27 141/4/27 143/4/27 144/4/27
f 141/4/28 140/4/28 145/4/28 143/4/28
f 140/4/29 139/4/29 146/4/29 145/4/29
f 139/4/30 138/4/30 147/4/30 146/4/30
f 138/4/31 137/4/31 148/4/31 147/4/31
f 137/4/32 136/4/32 149/4/32 148/4/32
f 136/4/33 135/4/33 150/4/33 149/4/33
f 135/4/34 142/4/34 144/4/34 150/4/34
f 151/4/35 152/4/35 153/4/35 154/4/35
f 152/4/36 155/4/36 156/4/36 153/4/36
f 155/4/37 157/4/37 158/4/37 156/4/37
f 157/4/38 159/4/38 160/4/38 158/4/38
f 159/4/39 161/4/39 162/4/39 160/4/39
f 161/4/40 163/4/40 164/4/40 162/4/40
f 163/4/41 165/4/41 166/4/41 164/4/41
f 165/4/42 151/4/42 154/4/42 166/4/42
f 154/4/2 153/4/2 156/4/2 158/4/2 160/4/2 162/4/2 164/4/2 166/4/2
f 144/4/2 143/4/2 152/4/2 151/4/2
f 143/4/2 145/4/2 155/4/2 152/4/2
f 145/4/2 146/4/2 157/4/2 155/4/2
f 146/4/2 147/4/2 159/4/2 157/4/2
f 147/4/2 148/4/2 161/4/2 159/4/2
f 148/4/2 149/4/2 163/4/2 161/4/2
f 149/4/2 150/4/2 165/4/2 163/4/2
f 150/4/2 144/4/2 151/4/2 165/4/2
f 167/3/43 168/3/43 169/3/43 170/3/43 171/3/43 172/3/43
f 173/3/44 174/3/44 175/3/44 176/3/44 177/3/44 178/3/44
f 172/3/45 171/3/45 174/3/45 173/3/45
f 171/3/46 170/3/46 175/3/46 174/3/46
f 170/3/47 169/3/47 176/3/47 175/3/47
f 169/3/48 168/3/48 177/3/48 176/3/48
f 168/3/49 167/3/49 178/3/49 177/3/49
f 167/3/50 172/3/50 173/3/50 178/3/50
f 181/3/1 182/3/1 183/3/1 184/3/1
f 185/3/2 186/3/2 187/3/2 188/3/2
f 181/3/3 184/3/3 186/3/3 185/3/3
f 183/3/4 182/3/4 188/3/4 187/3/4
f 181/3/5 185/3/5 188/3/5 182/3/5
f 184/3/6 183/3/6 187/3/6 186/3/6
f 189/3/1 190/3/1 191/3/1 192/3/1
f 193/3/2 194/3/2 195/3/2 196/3/2
f 189/3/3 192/3/3 194/3/3 193/3/3
f 191/3/4 190/3/4 196/3/4 195/3/4
f 189/3/5 193/3/5 196/3/5 190/3/5
f 192/3/6 191/3/6 195/3/6 194/3/6
f 197/4/1 198/4/1 199/4/1 200/4/1 201/4/1 202/4/1 203/4/1 204/4/1
f 205/4/2 206/4/2 207/4/2 208/4/2 209/4/2 210/4/2 211/4/2 212/4/2
f 204/4/51 203/4/51 206/4/51 205/4/51
f 203/4/52 202/4/52 207/4/52 206/4/52
f 202/4/53 201/4/53 208/4/53 207/4/53
f 201/4/54 200/4/54 209/4/54 208/4/54
f 200/4/55 199/4/55 210/4/55 209/4/55
f 199/4/56 198/4/56 211/4/56 210/4/56
f 198/4/57 197/4/57 212/4/57 211/4/57
f 197/4/58 204/4/58 205/4/58 212/4/58
f 213/4/1 214/4/1 215/4/1 216/4/1 217/4/1 218/4/1 219/4/1 220/4/1
f 221/4/2 222/4/2 223/4/2 224/4/2 225/4/2 226/4/2 227/4/2 228/4/2
f 220/4/51 219/4/51 222/4/51 221/4/51
f 219/4/52 218/4/52 223/4/52 222/4/52
f 218/4/53 217/4/53 224/4/53 223/4/53
f 217/4/54 216/4/54 225/4/54 224/4/54
f 216/4/55 215/4/55 226/4/55 225/4/55
f 215/4/56 214/4/56 227/4/56 226/4/56
f 214/4/57 213/4/57 228/4/57 227/4/57
f 213/4/58 220/4/58 221/4/58 228/4/58
f 229/3/1 230/3/1 231/3/1 232/3/1
f 233/3/2 234/3/2 235/3/2 236/3/2
f 229/3/3 232/3/3 234/3/3 233/3/3
f 231/3/4 230/3/4 236/3/4 235/3/4
f 229/3/5 233/3/5 236/3/5 230/3/5
f 232/3/6 231/3/6 235/3/6 234/3/6
l 180 179
