# Blender 5.2.0 LTS
# www.blender.org
mtllib FN_Parasol_Base.mtl
o FN_Parasol_Base
v 0.230970 0.000000 0.095671
v 0.176777 0.000000 0.176777
v 0.095671 0.000000 0.230970
v -0.000000 0.000000 0.250000
v -0.095671 0.000000 0.230970
v -0.176777 0.000000 0.176777
v -0.230970 0.000000 0.095671
v -0.250000 0.000000 -0.000000
v -0.230970 0.000000 -0.095671
v -0.176777 0.000000 -0.176777
v -0.095671 0.000000 -0.230970
v 0.000000 0.000000 -0.250000
v 0.095671 0.000000 -0.230970
v 0.176777 0.000000 -0.176777
v 0.230970 0.000000 -0.095671
v 0.250000 0.000000 0.000000
v 0.225427 0.075000 -0.093375
v 0.244000 0.075000 0.000000
v 0.172534 0.075000 -0.172534
v 0.093375 0.075000 -0.225427
v 0.000000 0.075000 -0.244000
v -0.093375 0.075000 -0.225427
v -0.172534 0.075000 -0.172534
v -0.225427 0.075000 -0.093375
v -0.244000 0.075000 -0.000000
v -0.225427 0.075000 0.093375
v -0.172534 0.075000 0.172534
v -0.093375 0.075000 0.225427
v -0.000000 0.075000 0.244000
v 0.093375 0.075000 0.225427
v 0.172534 0.075000 0.172534
v 0.225427 0.075000 0.093375
v 0.182928 0.115000 -0.075771
v 0.198000 0.115000 0.000000
v 0.140007 0.115000 -0.140007
v 0.075771 0.115000 -0.182928
v 0.000000 0.115000 -0.198000
v -0.075771 0.115000 -0.182928
v -0.140007 0.115000 -0.140007
v -0.182928 0.115000 -0.075771
v -0.198000 0.115000 -0.000000
v -0.182928 0.115000 0.075771
v -0.140007 0.115000 0.140007
v -0.075771 0.115000 0.182928
v -0.000000 0.115000 0.198000
v 0.075771 0.115000 0.182928
v 0.140007 0.115000 0.140007
v 0.182928 0.115000 0.075771
v 0.175537 0.135000 -0.072710
v 0.190000 0.135000 0.000000
v 0.134350 0.135000 -0.134350
v 0.072710 0.135000 -0.175537
v 0.000000 0.135000 -0.190000
v -0.072710 0.135000 -0.175537
v -0.134350 0.135000 -0.134350
v -0.175537 0.135000 -0.072710
v -0.190000 0.135000 -0.000000
v -0.175537 0.135000 0.072710
v -0.134350 0.135000 0.134350
v -0.072710 0.135000 0.175537
v -0.000000 0.135000 0.190000
v 0.072710 0.135000 0.175537
v 0.134350 0.135000 0.134350
v 0.175537 0.135000 0.072710
v 0.044346 0.135000 -0.018369
v 0.048000 0.135000 0.000000
v 0.033941 0.135000 -0.033941
v 0.018369 0.135000 -0.044346
v 0.000000 0.135000 -0.048000
v -0.018369 0.135000 -0.044346
v -0.033941 0.135000 -0.033941
v -0.044346 0.135000 -0.018369
v -0.048000 0.135000 -0.000000
v -0.044346 0.135000 0.018369
v -0.033941 0.135000 0.033941
v -0.018369 0.135000 0.044346
v -0.000000 0.135000 0.048000
v 0.018369 0.135000 0.044346
v 0.033941 0.135000 0.033941
v 0.044346 0.135000 0.018369
v 0.048000 0.125000 0.000000
v 0.044346 0.125000 -0.018369
v 0.044346 0.300000 -0.018369
v 0.048000 0.300000 0.000000
v 0.033941 0.125000 -0.033941
v 0.033941 0.300000 -0.033941
v 0.018369 0.125000 -0.044346
v 0.018369 0.300000 -0.044346
v 0.000000 0.125000 -0.048000
v 0.000000 0.300000 -0.048000
v -0.018369 0.125000 -0.044346
v -0.018369 0.300000 -0.044346
v -0.033941 0.125000 -0.033941
v -0.033941 0.300000 -0.033941
v -0.044346 0.125000 -0.018369
v -0.044346 0.300000 -0.018369
v -0.048000 0.125000 -0.000000
v -0.048000 0.300000 -0.000000
v -0.044346 0.125000 0.018369
v -0.044346 0.300000 0.018369
v -0.033941 0.125000 0.033941
v -0.033941 0.300000 0.033941
v -0.018369 0.125000 0.044346
v -0.018369 0.300000 0.044346
v -0.000000 0.125000 0.048000
v -0.000000 0.300000 0.048000
v 0.018369 0.125000 0.044346
v 0.018369 0.300000 0.044346
v 0.033941 0.125000 0.033941
v 0.033941 0.300000 0.033941
v 0.044346 0.125000 0.018369
v 0.044346 0.300000 0.018369
v 0.030488 0.300000 -0.012629
v 0.033000 0.300000 0.000000
v 0.023335 0.300000 -0.023335
v 0.012629 0.300000 -0.030488
v 0.000000 0.300000 -0.033000
v -0.012629 0.300000 -0.030488
v -0.023335 0.300000 -0.023335
v -0.030488 0.300000 -0.012629
v -0.033000 0.300000 -0.000000
v -0.030488 0.300000 0.012629
v -0.023335 0.300000 0.023335
v -0.012629 0.300000 0.030488
v -0.000000 0.300000 0.033000
v 0.012629 0.300000 0.030488
v 0.023335 0.300000 0.023335
v 0.030488 0.300000 0.012629
v 0.030488 0.145000 -0.012629
v 0.033000 0.145000 0.000000
v 0.023335 0.145000 -0.023335
v 0.012629 0.145000 -0.030488
v 0.000000 0.145000 -0.033000
v -0.012629 0.145000 -0.030488
v -0.023335 0.145000 -0.023335
v -0.030488 0.145000 -0.012629
v -0.033000 0.145000 -0.000000
v -0.030488 0.145000 0.012629
v -0.023335 0.145000 0.023335
v -0.012629 0.145000 0.030488
v -0.000000 0.145000 0.033000
v 0.012629 0.145000 0.030488
v 0.023335 0.145000 0.023335
v 0.030488 0.145000 0.012629
v 0.040000 0.249899 0.009899
v 0.040000 0.254000 -0.000000
v 0.040000 0.249899 -0.009899
v 0.040000 0.240000 -0.014000
v 0.040000 0.230101 -0.009899
v 0.040000 0.226000 0.000000
v 0.040000 0.230101 0.009899
v 0.040000 0.240000 0.014000
v 0.078000 0.240000 0.014000
v 0.078000 0.230101 0.009899
v 0.078000 0.226000 0.000000
v 0.078000 0.230101 -0.009899
v 0.078000 0.240000 -0.014000
v 0.078000 0.249899 -0.009899
v 0.078000 0.254000 -0.000000
v 0.078000 0.249899 0.009899
vn -0.0000 -1.0000 -0.0000
vn 0.9778 0.0782 -0.1945
vn 0.8289 0.0782 -0.5539
vn 0.5539 0.0782 -0.8289
vn 0.1945 0.0782 -0.9778
vn -0.1945 0.0782 -0.9778
vn -0.5539 0.0782 -0.8289
vn -0.8289 0.0782 -0.5539
vn -0.9778 0.0782 -0.1945
vn -0.9778 0.0782 0.1945
vn -0.8289 0.0782 0.5539
vn -0.5539 0.0782 0.8289
vn -0.1945 0.0782 0.9778
vn 0.1945 0.0782 0.9778
vn 0.5539 0.0782 0.8289
vn 0.8289 0.0782 0.5539
vn 0.9778 0.0782 0.1945
vn 0.6507 0.7483 -0.1294
vn 0.5516 0.7483 -0.3686
vn 0.3686 0.7483 -0.5516
vn 0.1294 0.7483 -0.6507
vn -0.1294 0.7483 -0.6507
vn -0.3686 0.7483 -0.5516
vn -0.5516 0.7483 -0.3686
vn -0.6507 0.7483 -0.1294
vn -0.6507 0.7483 0.1294
vn -0.5516 0.7483 0.3686
vn -0.3686 0.7483 0.5516
vn -0.1294 0.7483 0.6507
vn 0.1294 0.7483 0.6507
vn 0.3686 0.7483 0.5516
vn 0.5516 0.7483 0.3686
vn 0.6507 0.7483 0.1294
vn 0.9130 0.3652 -0.1816
vn 0.7740 0.3652 -0.5172
vn 0.5172 0.3652 -0.7740
vn 0.1816 0.3652 -0.9130
vn -0.1816 0.3652 -0.9130
vn -0.5172 0.3652 -0.7740
vn -0.7740 0.3652 -0.5172
vn -0.9130 0.3652 -0.1816
vn -0.9130 0.3652 0.1816
vn -0.7740 0.3652 0.5172
vn -0.5172 0.3652 0.7740
vn -0.1816 0.3652 0.9130
vn 0.1816 0.3652 0.9130
vn 0.5172 0.3652 0.7740
vn 0.7740 0.3652 0.5172
vn 0.9130 0.3652 0.1816
vn -0.0000 1.0000 -0.0000
vn 0.9808 -0.0000 -0.1951
vn 0.8315 -0.0000 -0.5556
vn 0.5556 -0.0000 -0.8315
vn 0.1951 -0.0000 -0.9808
vn -0.1951 -0.0000 -0.9808
vn -0.5556 -0.0000 -0.8315
vn -0.8315 -0.0000 -0.5556
vn -0.9808 -0.0000 -0.1951
vn -0.9808 -0.0000 0.1951
vn -0.8315 -0.0000 0.5556
vn -0.5556 -0.0000 0.8315
vn -0.1951 -0.0000 0.9808
vn 0.1951 -0.0000 0.9808
vn 0.5556 -0.0000 0.8315
vn 0.8315 -0.0000 0.5556
vn 0.9808 -0.0000 0.1951
vn -1.0000 -0.0000 -0.0000
vn 1.0000 -0.0000 -0.0000
vn -0.0000 -0.3827 0.9239
vn -0.0000 -0.9239 0.3827
vn -0.0000 -0.9239 -0.3827
vn -0.0000 -0.3827 -0.9239
vn -0.0000 0.3827 -0.9239
vn -0.0000 0.9239 -0.3827
vn -0.0000 0.9239 0.3827
vn -0.0000 0.3827 0.9239
vt 0.312500 0.187500
vt 0.812500 0.312500
vt 0.437500 0.312500
s 0
usemtl FN_Atlas
f 1/1/1 2/1/1 3/1/1 4/1/1 5/1/1 6/1/1 7/1/1 8/1/1 9/1/1 10/1/1 11/1/1 12/1/1 13/1/1 14/1/1 15/1/1 16/1/1
f 16/1/2 15/1/2 17/1/2 18/1/2
f 15/1/3 14/1/3 19/1/3 17/1/3
f 14/1/4 13/1/4 20/1/4 19/1/4
f 13/1/5 12/1/5 21/1/5 20/1/5
f 12/1/6 11/1/6 22/1/6 21/1/6
f 11/1/7 10/1/7 23/1/7 22/1/7
f 10/1/8 9/1/8 24/1/8 23/1/8
f 9/1/9 8/1/9 25/1/9 24/1/9
f 8/1/10 7/1/10 26/1/10 25/1/10
f 7/1/11 6/1/11 27/1/11 26/1/11
f 6/1/12 5/1/12 28/1/12 27/1/12
f 5/1/13 4/1/13 29/1/13 28/1/13
f 4/1/14 3/1/14 30/1/14 29/1/14
f 3/1/15 2/1/15 31/1/15 30/1/15
f 2/1/16 1/1/16 32/1/16 31/1/16
f 1/1/17 16/1/17 18/1/17 32/1/17
f 18/1/18 17/1/18 33/1/18 34/1/18
f 17/1/19 19/1/19 35/1/19 33/1/19
f 19/1/20 20/1/20 36/1/20 35/1/20
f 20/1/21 21/1/21 37/1/21 36/1/21
f 21/1/22 22/1/22 38/1/22 37/1/22
f 22/1/23 23/1/23 39/1/23 38/1/23
f 23/1/24 24/1/24 40/1/24 39/1/24
f 24/1/25 25/1/25 41/1/25 40/1/25
f 25/1/26 26/1/26 42/1/26 41/1/26
f 26/1/27 27/1/27 43/1/27 42/1/27
f 27/1/28 28/1/28 44/1/28 43/1/28
f 28/1/29 29/1/29 45/1/29 44/1/29
f 29/1/30 30/1/30 46/1/30 45/1/30
f 30/1/31 31/1/31 47/1/31 46/1/31
f 31/1/32 32/1/32 48/1/32 47/1/32
f 32/1/33 18/1/33 34/1/33 48/1/33
f 34/1/34 33/1/34 49/1/34 50/1/34
f 33/1/35 35/1/35 51/1/35 49/1/35
f 35/1/36 36/1/36 52/1/36 51/1/36
f 36/1/37 37/1/37 53/1/37 52/1/37
f 37/1/38 38/1/38 54/1/38 53/1/38
f 38/1/39 39/1/39 55/1/39 54/1/39
f 39/1/40 40/1/40 56/1/40 55/1/40
f 40/1/41 41/1/41 57/1/41 56/1/41
f 41/1/42 42/1/42 58/1/42 57/1/42
f 42/1/43 43/1/43 59/1/43 58/1/43
f 43/1/44 44/1/44 60/1/44 59/1/44
f 44/1/45 45/1/45 61/1/45 60/1/45
f 45/1/46 46/1/46 62/1/46 61/1/46
f 46/1/47 47/1/47 63/1/47 62/1/47
f 47/1/48 48/1/48 64/1/48 63/1/48
f 48/1/49 34/1/49 50/1/49 64/1/49
f 50/1/50 49/1/50 65/1/50 66/1/50
f 49/1/50 51/1/50 67/1/50 65/1/50
f 51/1/50 52/1/50 68/1/50 67/1/50
f 52/1/50 53/1/50 69/1/50 68/1/50
f 53/1/50 54/1/50 70/1/50 69/1/50
f 54/1/50 55/1/50 71/1/50 70/1/50
f 55/1/50 56/1/50 72/1/50 71/1/50
f 56/1/50 57/1/50 73/1/50 72/1/50
f 57/1/50 58/1/50 74/1/50 73/1/50
f 58/1/50 59/1/50 75/1/50 74/1/50
f 59/1/50 60/1/50 76/1/50 75/1/50
f 60/1/50 61/1/50 77/1/50 76/1/50
f 61/1/50 62/1/50 78/1/50 77/1/50
f 62/1/50 63/1/50 79/1/50 78/1/50
f 63/1/50 64/1/50 80/1/50 79/1/50
f 64/1/50 50/1/50 66/1/50 80/1/50
f 81/2/51 82/2/51 83/2/51 84/2/51
f 82/2/52 85/2/52 86/2/52 83/2/52
f 85/2/53 87/2/53 88/2/53 86/2/53
f 87/2/54 89/2/54 90/2/54 88/2/54
f 89/2/55 91/2/55 92/2/55 90/2/55
f 91/2/56 93/2/56 94/2/56 92/2/56
f 93/2/57 95/2/57 96/2/57 94/2/57
f 95/2/58 97/2/58 98/2/58 96/2/58
f 97/2/59 99/2/59 100/2/59 98/2/59
f 99/2/60 101/2/60 102/2/60 100/2/60
f 101/2/61 103/2/61 104/2/61 102/2/61
f 103/2/62 105/2/62 106/2/62 104/2/62
f 105/2/63 107/2/63 108/2/63 106/2/63
f 107/2/64 109/2/64 110/2/64 108/2/64
f 109/2/65 111/2/65 112/2/65 110/2/65
f 111/2/66 81/2/66 84/2/66 112/2/66
f 84/2/50 83/2/50 113/2/50 114/2/50
f 83/2/50 86/2/50 115/2/50 113/2/50
f 86/2/50 88/2/50 116/2/50 115/2/50
f 88/2/50 90/2/50 117/2/50 116/2/50
f 90/2/50 92/2/50 118/2/50 117/2/50
f 92/2/50 94/2/50 119/2/50 118/2/50
f 94/2/50 96/2/50 120/2/50 119/2/50
f 96/2/50 98/2/50 121/2/50 120/2/50
f 98/2/50 100/2/50 122/2/50 121/2/50
f 100/2/50 102/2/50 123/2/50 122/2/50
f 102/2/50 104/2/50 124/2/50 123/2/50
f 104/2/50 106/2/50 125/2/50 124/2/50
f 106/2/50 108/2/50 126/2/50 125/2/50
f 108/2/50 110/2/50 127/2/50 126/2/50
f 110/2/50 112/2/50 128/2/50 127/2/50
f 112/2/50 84/2/50 114/2/50 128/2/50
f 114/2/59 113/2/59 129/2/59 130/2/59
f 113/2/60 115/2/60 131/2/60 129/2/60
f 115/2/61 116/2/61 132/2/61 131/2/61
f 116/2/62 117/2/62 133/2/62 132/2/62
f 117/2/63 118/2/63 134/2/63 133/2/63
f 118/2/64 119/2/64 135/2/64 134/2/64
f 119/2/65 120/2/65 136/2/65 135/2/65
f 120/2/66 121/2/66 137/2/66 136/2/66
f 121/2/51 122/2/51 138/2/51 137/2/51
f 122/2/52 123/2/52 139/2/52 138/2/52
f 123/2/53 124/2/53 140/2/53 139/2/53
f 124/2/54 125/2/54 141/2/54 140/2/54
f 125/2/55 126/2/55 142/2/55 141/2/55
f 126/2/56 127/2/56 143/2/56 142/2/56
f 127/2/57 128/2/57 144/2/57 143/2/57
f 128/2/58 114/2/58 130/2/58 144/2/58
f 130/2/50 129/2/50 131/2/50 132/2/50 133/2/50 134/2/50 135/2/50 136/2/50 137/2/50 138/2/50 139/2/50 140/2/50 141/2/50 142/2/50 143/2/50 144/2/50
f 145/3/67 146/3/67 147/3/67 148/3/67 149/3/67 150/3/67 151/3/67 152/3/67
f 153/3/68 154/3/68 155/3/68 156/3/68 157/3/68 158/3/68 159/3/68 160/3/68
f 152/3/69 151/3/69 154/3/69 153/3/69
f 151/3/70 150/3/70 155/3/70 154/3/70
f 150/3/71 149/3/71 156/3/71 155/3/71
f 149/3/72 148/3/72 157/3/72 156/3/72
f 148/3/73 147/3/73 158/3/73 157/3/73
f 147/3/74 146/3/74 159/3/74 158/3/74
f 146/3/75 145/3/75 160/3/75 159/3/75
f 145/3/76 152/3/76 153/3/76 160/3/76
