# Blender 5.2.0 LTS
# www.blender.org
mtllib FN_Plinth_Display.mtl
o FN_Plinth_Display
v -0.605000 0.000000 0.170000
v -0.605000 0.000000 -0.170000
v -0.265000 0.000000 -0.170000
v -0.265000 0.000000 0.170000
v -0.605000 0.060000 0.170000
v -0.265000 0.060000 0.170000
v -0.265000 0.060000 -0.170000
v -0.605000 0.060000 -0.170000
v -0.635000 0.048000 0.200000
v -0.635000 0.048000 -0.200000
v -0.235000 0.048000 -0.200000
v -0.235000 0.048000 0.200000
v -0.635000 0.892000 0.200000
v -0.235000 0.892000 0.200000
v -0.235000 0.892000 -0.200000
v -0.635000 0.892000 -0.200000
v -0.627000 0.900000 0.192000
v -0.243000 0.900000 0.192000
v -0.243000 0.900000 -0.192000
v -0.627000 0.900000 -0.192000
v -0.075000 0.000000 0.140000
v -0.075000 0.000000 -0.140000
v 0.205000 0.000000 -0.140000
v 0.205000 0.000000 0.140000
v -0.075000 0.060000 0.140000
v 0.205000 0.060000 0.140000
v 0.205000 0.060000 -0.140000
v -0.075000 0.060000 -0.140000
v -0.105000 0.048000 0.170000
v -0.105000 0.048000 -0.170000
v 0.235000 0.048000 -0.170000
v 0.235000 0.048000 0.170000
v -0.105000 0.692000 0.170000
v 0.235000 0.692000 0.170000
v 0.235000 0.692000 -0.170000
v -0.105000 0.692000 -0.170000
v -0.097000 0.700000 0.162000
v 0.227000 0.700000 0.162000
v 0.227000 0.700000 -0.162000
v -0.097000 0.700000 -0.162000
v 0.365000 0.000000 0.120000
v 0.365000 0.000000 -0.120000
v 0.605000 0.000000 -0.120000
v 0.605000 0.000000 0.120000
v 0.365000 0.060000 0.120000
v 0.605000 0.060000 0.120000
v 0.605000 0.060000 -0.120000
v 0.365000 0.060000 -0.120000
v 0.335000 0.048000 0.150000
v 0.335000 0.048000 -0.150000
v 0.635000 0.048000 -0.150000
v 0.635000 0.048000 0.150000
v 0.335000 0.492000 0.150000
v 0.635000 0.492000 0.150000
v 0.635000 0.492000 -0.150000
v 0.335000 0.492000 -0.150000
v 0.343000 0.500000 0.142000
v 0.627000 0.500000 0.142000
v 0.627000 0.500000 -0.142000
v 0.343000 0.500000 -0.142000
vn -0.0000 -1.0000 -0.0000
vn -0.0000 1.0000 -0.0000
vn -0.0000 -0.0000 1.0000
vn -0.0000 -0.0000 -1.0000
vn -1.0000 -0.0000 -0.0000
vn 1.0000 -0.0000 -0.0000
vn -0.0000 0.7071 0.7071
vn 0.7071 0.7071 -0.0000
vn -0.0000 0.7071 -0.7071
vn -0.7071 0.7071 -0.0000
vt 0.812500 0.312500
vt 0.312500 0.187500
s 0
usemtl FN_Atlas
f 1/1/1 2/1/1 3/1/1 4/1/1
f 5/1/2 6/1/2 7/1/2 8/1/2
f 1/1/3 4/1/3 6/1/3 5/1/3
f 3/1/4 2/1/4 8/1/4 7/1/4
f 1/1/5 5/1/5 8/1/5 2/1/5
f 4/1/6 3/1/6 7/1/6 6/1/6
f 9/2/1 10/2/1 11/2/1 12/2/1
f 13/2/2 14/2/2 15/2/2 16/2/2
f 9/2/3 12/2/3 14/2/3 13/2/3
f 11/2/4 10/2/4 16/2/4 15/2/4
f 9/2/5 13/2/5 16/2/5 10/2/5
f 12/2/6 11/2/6 15/2/6 14/2/6
f 17/2/2 18/2/2 19/2/2 20/2/2
f 13/2/7 14/2/7 18/2/7 17/2/7
f 14/2/8 15/2/8 19/2/8 18/2/8
f 15/2/9 16/2/9 20/2/9 19/2/9
f 16/2/10 13/2/10 17/2/10 20/2/10
f 21/1/1 22/1/1 23/1/1 24/1/1
f 25/1/2 26/1/2 27/1/2 28/1/2
f 21/1/3 24/1/3 26/1/3 25/1/3
f 23/1/4 22/1/4 28/1/4 27/1/4
f 21/1/5 25/1/5 28/1/5 22/1/5
f 24/1/6 23/1/6 27/1/6 26/1/6
f 29/2/1 30/2/1 31/2/1 32/2/1
f 33/2/2 34/2/2 35/2/2 36/2/2
f 29/2/3 32/2/3 34/2/3 33/2/3
f 31/2/4 30/2/4 36/2/4 35/2/4
f 29/2/5 33/2/5 36/2/5 30/2/5
f 32/2/6 31/2/6 35/2/6 34/2/6
f 37/2/2 38/2/2 39/2/2 40/2/2
f 33/2/7 34/2/7 38/2/7 37/2/7
f 34/2/8 35/2/8 39/2/8 38/2/8
f 35/2/9 36/2/9 40/2/9 39/2/9
f 36/2/10 33/2/10 37/2/10 40/2/10
f 41/1/1 42/1/1 43/1/1 44/1/1
f 45/1/2 46/1/2 47/1/2 48/1/2
f 41/1/3 44/1/3 46/1/3 45/1/3
f 43/1/4 42/1/4 48/1/4 47/1/4
f 41/1/5 45/1/5 48/1/5 42/1/5
f 44/1/6 43/1/6 47/1/6 46/1/6
f 49/2/1 50/2/1 51/2/1 52/2/1
f 53/2/2 54/2/2 55/2/2 56/2/2
f 49/2/3 52/2/3 54/2/3 53/2/3
f 51/2/4 50/2/4 56/2/4 55/2/4
f 49/2/5 53/2/5 56/2/5 50/2/5
f 52/2/6 51/2/6 55/2/6 54/2/6
f 57/2/2 58/2/2 59/2/2 60/2/2
f 53/2/7 54/2/7 58/2/7 57/2/7
f 54/2/8 55/2/8 59/2/8 58/2/8
f 55/2/9 56/2/9 60/2/9 59/2/9
f 56/2/10 53/2/10 57/2/10 60/2/10
