# Blender 5.2.0 LTS
# www.blender.org
mtllib FN_Plant_Small.mtl
o FN_Plant_Small
v 0.081406 0.000000 0.047000
v 0.047000 0.000000 0.081406
v -0.000000 0.000000 0.094000
v -0.047000 0.000000 0.081406
v -0.081406 0.000000 0.047000
v -0.094000 0.000000 -0.000000
v -0.081406 0.000000 -0.047000
v -0.047000 0.000000 -0.081406
v 0.000000 0.000000 -0.094000
v 0.047000 0.000000 -0.081406
v 0.081406 0.000000 -0.047000
v 0.094000 0.000000 0.000000
v 0.109119 0.206000 -0.063000
v 0.126000 0.206000 0.000000
v 0.063000 0.206000 -0.109119
v 0.000000 0.206000 -0.126000
v -0.063000 0.206000 -0.109119
v -0.109119 0.206000 -0.063000
v -0.126000 0.206000 -0.000000
v -0.109119 0.206000 0.063000
v -0.063000 0.206000 0.109119
v -0.000000 0.206000 0.126000
v 0.063000 0.206000 0.109119
v 0.109119 0.206000 0.063000
v 0.114315 0.232000 -0.066000
v 0.132000 0.232000 0.000000
v 0.066000 0.232000 -0.114315
v 0.000000 0.232000 -0.132000
v -0.066000 0.232000 -0.114315
v -0.114315 0.232000 -0.066000
v -0.132000 0.232000 -0.000000
v -0.114315 0.232000 0.066000
v -0.066000 0.232000 0.114315
v -0.000000 0.232000 0.132000
v 0.066000 0.232000 0.114315
v 0.114315 0.232000 0.066000
v 0.100459 0.232000 -0.058000
v 0.116000 0.232000 0.000000
v 0.058000 0.232000 -0.100459
v 0.000000 0.232000 -0.116000
v -0.058000 0.232000 -0.100459
v -0.100459 0.232000 -0.058000
v -0.116000 0.232000 -0.000000
v -0.100459 0.232000 0.058000
v -0.058000 0.232000 0.100459
v -0.000000 0.232000 0.116000
v 0.058000 0.232000 0.100459
v 0.100459 0.232000 0.058000
v 0.096995 0.212000 -0.056000
v 0.112000 0.212000 0.000000
v 0.056000 0.212000 -0.096995
v 0.000000 0.212000 -0.112000
v -0.056000 0.212000 -0.096995
v -0.096995 0.212000 -0.056000
v -0.112000 0.212000 -0.000000
v -0.096995 0.212000 0.056000
v -0.056000 0.212000 0.096995
v -0.000000 0.212000 0.112000
v 0.056000 0.212000 0.096995
v 0.096995 0.212000 0.056000
v 0.008316 0.192000 -0.024821
v 0.023088 0.192000 -0.027426
v 0.031076 0.192000 0.017875
v 0.016304 0.192000 0.020480
v 0.049007 0.404000 0.001513
v 0.056886 0.404000 0.000124
v 0.053413 0.404000 -0.019572
v 0.045534 0.404000 -0.018183
v -0.012117 0.192000 -0.025582
v -0.004845 0.192000 -0.038701
v 0.035388 0.192000 -0.016400
v 0.028116 0.192000 -0.003281
v 0.048501 0.322000 -0.066871
v 0.052379 0.322000 -0.073868
v 0.034887 0.322000 -0.083564
v 0.031008 0.322000 -0.076567
v -0.025259 0.192000 -0.001119
v -0.030878 0.192000 -0.015027
v 0.011773 0.192000 -0.032259
v 0.017392 0.192000 -0.018351
v -0.013205 0.380000 -0.059377
v -0.016201 0.380000 -0.066795
v -0.034745 0.380000 -0.059302
v -0.031748 0.380000 -0.051885
v -0.024416 0.192000 0.016586
v -0.038761 0.192000 0.012201
v -0.025312 0.192000 -0.031789
v -0.010967 0.192000 -0.027404
v -0.086969 0.288000 -0.037046
v -0.094619 0.288000 -0.039385
v -0.100467 0.288000 -0.020259
v -0.092816 0.288000 -0.017920
v 0.002498 0.192000 0.026058
v -0.009937 0.192000 0.034446
v -0.035660 0.192000 -0.003690
v -0.023224 0.192000 -0.012078
v -0.050360 0.394000 0.021906
v -0.056992 0.394000 0.026380
v -0.045808 0.394000 0.042960
v -0.039176 0.394000 0.038487
v 0.021474 0.192000 0.018442
v 0.020167 0.192000 0.033385
v -0.025658 0.192000 0.029376
v -0.024351 0.192000 0.014433
v -0.017457 0.310000 0.084801
v -0.018155 0.310000 0.092771
v 0.001769 0.310000 0.094514
v 0.002467 0.310000 0.086544
v 0.023530 0.192000 -0.009251
v 0.034320 0.192000 0.001169
v 0.002366 0.192000 0.034259
v -0.008424 0.192000 0.023839
v 0.040530 0.352000 0.053041
v 0.046285 0.352000 0.058598
v 0.060178 0.352000 0.044211
v 0.054423 0.352000 0.038654
vn -0.0000 -1.0000 -0.0000
vn 0.9552 -0.1484 -0.2560
vn 0.6993 -0.1484 -0.6993
vn 0.2560 -0.1484 -0.9552
vn -0.2560 -0.1484 -0.9552
vn -0.6993 -0.1484 -0.6993
vn -0.9552 -0.1484 -0.2560
vn -0.9552 -0.1484 0.2560
vn -0.6993 -0.1484 0.6993
vn -0.2560 -0.1484 0.9552
vn 0.2560 -0.1484 0.9552
vn 0.6993 -0.1484 0.6993
vn 0.9552 -0.1484 0.2560
vn 0.9428 -0.2176 -0.2526
vn 0.6902 -0.2176 -0.6902
vn 0.2526 -0.2176 -0.9428
vn -0.2526 -0.2176 -0.9428
vn -0.6902 -0.2176 -0.6902
vn -0.9428 -0.2176 -0.2526
vn -0.9428 -0.2176 0.2526
vn -0.6902 -0.2176 0.6902
vn -0.2526 -0.2176 0.9428
vn 0.2526 -0.2176 0.9428
vn 0.6902 -0.2176 0.6902
vn 0.9428 -0.2176 0.2526
vn -0.0000 1.0000 -0.0000
vn -0.9484 0.1897 0.2541
vn -0.6943 0.1897 0.6943
vn -0.2541 0.1897 0.9484
vn 0.2541 0.1897 0.9484
vn 0.6943 0.1897 0.6943
vn 0.9484 0.1897 0.2541
vn 0.9484 0.1897 -0.2541
vn 0.6943 0.1897 -0.6943
vn 0.2541 0.1897 -0.9484
vn -0.2541 0.1897 -0.9484
vn -0.6943 0.1897 -0.6943
vn -0.9484 0.1897 -0.2541
vn 0.1733 0.0612 0.9830
vn 0.9760 -0.1332 -0.1721
vn -0.1733 0.0612 -0.9830
vn -0.9713 0.1652 0.1713
vn 0.8703 0.0995 0.4824
vn 0.4421 -0.4104 -0.7976
vn -0.8703 0.0995 -0.4824
vn -0.4330 0.4500 0.7811
vn 0.9250 0.0690 -0.3737
vn -0.3654 -0.2205 -0.9044
vn -0.9250 0.0690 0.3737
vn 0.3623 0.2546 0.8966
vn 0.2897 0.1342 -0.9477
vn -0.7785 -0.5808 -0.2380
vn -0.2897 0.1342 0.9477
vn 0.7517 0.6182 0.2298
vn -0.5580 0.0642 -0.8273
vn -0.8172 -0.1684 0.5512
vn 0.5580 0.0642 0.8273
vn 0.8121 0.2012 -0.5478
vn -0.9902 0.1095 -0.0866
vn -0.0770 -0.4681 0.8803
vn 0.9902 0.1095 0.0866
vn 0.0751 0.5075 -0.8584
vn -0.6924 0.0810 0.7170
vn 0.6884 -0.2901 0.6648
vn 0.6924 0.0810 -0.7170
vn -0.6796 0.3277 -0.6563
vt 0.312500 0.187500
vt 0.687500 0.312500
vt 0.937500 0.937500
vt 0.562500 0.562500
vt 0.437500 0.562500
s 0
usemtl FN_Atlas
f 1/1/1 2/1/1 3/1/1 4/1/1 5/1/1 6/1/1 7/1/1 8/1/1 9/1/1 10/1/1 11/1/1 12/1/1
f 12/1/2 11/1/2 13/1/2 14/1/2
f 11/1/3 10/1/3 15/1/3 13/1/3
f 10/1/4 9/1/4 16/1/4 15/1/4
f 9/1/5 8/1/5 17/1/5 16/1/5
f 8/1/6 7/1/6 18/1/6 17/1/6
f 7/1/7 6/1/7 19/1/7 18/1/7
f 6/1/8 5/1/8 20/1/8 19/1/8
f 5/1/9 4/1/9 21/1/9 20/1/9
f 4/1/10 3/1/10 22/1/10 21/1/10
f 3/1/11 2/1/11 23/1/11 22/1/11
f 2/1/12 1/1/12 24/1/12 23/1/12
f 1/1/13 12/1/13 14/1/13 24/1/13
f 14/2/14 13/2/14 25/2/14 26/2/14
f 13/2/15 15/2/15 27/2/15 25/2/15
f 15/2/16 16/2/16 28/2/16 27/2/16
f 16/2/17 17/2/17 29/2/17 28/2/17
f 17/2/18 18/2/18 30/2/18 29/2/18
f 18/2/19 19/2/19 31/2/19 30/2/19
f 19/2/20 20/2/20 32/2/20 31/2/20
f 20/2/21 21/2/21 33/2/21 32/2/21
f 21/2/22 22/2/22 34/2/22 33/2/22
f 22/2/23 23/2/23 35/2/23 34/2/23
f 23/2/24 24/2/24 36/2/24 35/2/24
f 24/2/25 14/2/25 26/2/25 36/2/25
f 26/2/26 25/2/26 37/2/26 38/2/26
f 25/2/26 27/2/26 39/2/26 37/2/26
f 27/2/26 28/2/26 40/2/26 39/2/26
f 28/2/26 29/2/26 41/2/26 40/2/26
f 29/2/26 30/2/26 42/2/26 41/2/26
f 30/2/26 31/2/26 43/2/26 42/2/26
f 31/2/26 32/2/26 44/2/26 43/2/26
f 32/2/26 33/2/26 45/2/26 44/2/26
f 33/2/26 34/2/26 46/2/26 45/2/26
f 34/2/26 35/2/26 47/2/26 46/2/26
f 35/2/26 36/2/26 48/2/26 47/2/26
f 36/2/26 26/2/26 38/2/26 48/2/26
f 38/3/27 37/3/27 49/3/27 50/3/27
f 37/3/28 39/3/28 51/3/28 49/3/28
f 39/3/29 40/3/29 52/3/29 51/3/29
f 40/3/30 41/3/30 53/3/30 52/3/30
f 41/3/31 42/3/31 54/3/31 53/3/31
f 42/3/32 43/3/32 55/3/32 54/3/32
f 43/3/33 44/3/33 56/3/33 55/3/33
f 44/3/34 45/3/34 57/3/34 56/3/34
f 45/3/35 46/3/35 58/3/35 57/3/35
f 46/3/36 47/3/36 59/3/36 58/3/36
f 47/3/37 48/3/37 60/3/37 59/3/37
f 48/3/38 38/3/38 50/3/38 60/3/38
f 50/3/26 49/3/26 51/3/26 52/3/26 53/3/26 54/3/26 55/3/26 56/3/26 57/3/26 58/3/26 59/3/26 60/3/26
f 61/4/1 62/4/1 63/4/1 64/4/1
f 65/4/26 66/4/26 67/4/26 68/4/26
f 64/4/39 63/4/39 66/4/39 65/4/39
f 63/4/40 62/4/40 67/4/40 66/4/40
f 62/4/41 61/4/41 68/4/41 67/4/41
f 61/4/42 64/4/42 65/4/42 68/4/42
f 69/5/1 70/5/1 71/5/1 72/5/1
f 73/5/26 74/5/26 75/5/26 76/5/26
f 72/5/43 71/5/43 74/5/43 73/5/43
f 71/5/44 70/5/44 75/5/44 74/5/44
f 70/5/45 69/5/45 76/5/45 75/5/45
f 69/5/46 72/5/46 73/5/46 76/5/46
f 77/4/1 78/4/1 79/4/1 80/4/1
f 81/4/26 82/4/26 83/4/26 84/4/26
f 80/4/47 79/4/47 82/4/47 81/4/47
f 79/4/48 78/4/48 83/4/48 82/4/48
f 78/4/49 77/4/49 84/4/49 83/4/49
f 77/4/50 80/4/50 81/4/50 84/4/50
f 85/4/1 86/4/1 87/4/1 88/4/1
f 89/4/26 90/4/26 91/4/26 92/4/26
f 88/4/51 87/4/51 90/4/51 89/4/51
f 87/4/52 86/4/52 91/4/52 90/4/52
f 86/4/53 85/4/53 92/4/53 91/4/53
f 85/4/54 88/4/54 89/4/54 92/4/54
f 93/5/1 94/5/1 95/5/1 96/5/1
f 97/5/26 98/5/26 99/5/26 100/5/26
f 96/5/55 95/5/55 98/5/55 97/5/55
f 95/5/56 94/5/56 99/5/56 98/5/56
f 94/5/57 93/5/57 100/5/57 99/5/57
f 93/5/58 96/5/58 97/5/58 100/5/58
f 101/4/1 102/4/1 103/4/1 104/4/1
f 105/4/26 106/4/26 107/4/26 108/4/26
f 104/4/59 103/4/59 106/4/59 105/4/59
f 103/4/60 102/4/60 107/4/60 106/4/60
f 102/4/61 101/4/61 108/4/61 107/4/61
f 101/4/62 104/4/62 105/4/62 108/4/62
f 109/5/1 110/5/1 111/5/1 112/5/1
f 113/5/26 114/5/26 115/5/26 116/5/26
f 112/5/63 111/5/63 114/5/63 113/5/63
f 111/5/64 110/5/64 115/5/64 114/5/64
f 110/5/65 109/5/65 116/5/65 115/5/65
f 109/5/66 112/5/66 113/5/66 116/5/66
