# Blender 5.2.0 LTS
# www.blender.org
mtllib FN_Pit_Fire.mtl
o FN_Pit_Fire
v 0.267308 0.000000 -0.140010
v 0.315805 0.000000 -0.168010
v 0.255183 0.260000 -0.133010
v 0.206686 0.260000 -0.105010
v 0.191686 0.260000 -0.130990
v 0.240183 0.260000 -0.158990
v 0.300805 0.000000 -0.193990
v 0.252308 0.000000 -0.165990
v -0.252308 0.000000 -0.165990
v -0.300805 0.000000 -0.193990
v -0.240183 0.260000 -0.158990
v -0.191686 0.260000 -0.130990
v -0.206686 0.260000 -0.105010
v -0.255183 0.260000 -0.133010
v -0.315805 0.000000 -0.168010
v -0.267308 0.000000 -0.140010
v -0.015000 0.000000 0.297000
v -0.015000 0.000000 0.353000
v -0.015000 0.260000 0.283000
v -0.015000 0.260000 0.227000
v 0.015000 0.260000 0.227000
v 0.015000 0.260000 0.283000
v 0.015000 0.000000 0.353000
v 0.015000 0.000000 0.297000
v 0.350000 0.400000 -0.003000
v 0.323358 0.400000 -0.136939
v 0.212492 0.180000 -0.091017
v 0.230000 0.180000 -0.003000
v 0.247487 0.400000 -0.250487
v 0.162635 0.180000 -0.165635
v 0.133939 0.400000 -0.326358
v 0.088017 0.180000 -0.215492
v 0.000000 0.400000 -0.353000
v 0.000000 0.180000 -0.233000
v -0.133939 0.400000 -0.326358
v -0.088017 0.180000 -0.215492
v -0.247487 0.400000 -0.250487
v -0.162635 0.180000 -0.165635
v -0.323358 0.400000 -0.136939
v -0.212492 0.180000 -0.091017
v -0.350000 0.400000 -0.003000
v -0.230000 0.180000 -0.003000
v -0.323358 0.400000 0.130939
v -0.212492 0.180000 0.085017
v -0.247487 0.400000 0.244487
v -0.162635 0.180000 0.159635
v -0.133939 0.400000 0.320358
v -0.088017 0.180000 0.209492
v -0.000000 0.400000 0.347000
v -0.000000 0.180000 0.227000
v 0.133939 0.400000 0.320358
v 0.088017 0.180000 0.209492
v 0.247487 0.400000 0.244487
v 0.162635 0.180000 0.159635
v 0.323358 0.400000 0.130939
v 0.212492 0.180000 0.085017
v 0.308576 0.400000 -0.130816
v 0.334000 0.400000 -0.003000
v 0.236174 0.400000 -0.239174
v 0.127816 0.400000 -0.311576
v 0.000000 0.400000 -0.337000
v -0.127816 0.400000 -0.311576
v -0.236174 0.400000 -0.239174
v -0.308576 0.400000 -0.130816
v -0.334000 0.400000 -0.003000
v -0.308576 0.400000 0.124816
v -0.236174 0.400000 0.233174
v -0.127816 0.400000 0.305576
v -0.000000 0.400000 0.331000
v 0.127816 0.400000 0.305576
v 0.236174 0.400000 0.233174
v 0.308576 0.400000 0.124816
v 0.216000 0.196000 -0.003000
v 0.199558 0.196000 -0.085660
v 0.152735 0.196000 -0.155735
v 0.082660 0.196000 -0.202558
v 0.000000 0.196000 -0.219000
v -0.082660 0.196000 -0.202558
v -0.152735 0.196000 -0.155735
v -0.199558 0.196000 -0.085660
v -0.216000 0.196000 -0.003000
v -0.199558 0.196000 0.079660
v -0.152735 0.196000 0.149735
v -0.082660 0.196000 0.196558
v -0.000000 0.196000 0.213000
v 0.082660 0.196000 0.196558
v 0.152735 0.196000 0.149735
v 0.199558 0.196000 0.079660
v 0.215000 0.190000 -0.003000
v 0.186195 0.190000 -0.110500
v 0.142894 0.262000 -0.085500
v 0.165000 0.262000 -0.003000
v 0.107500 0.190000 -0.189195
v 0.082500 0.262000 -0.145894
v 0.000000 0.190000 -0.218000
v 0.000000 0.262000 -0.168000
v -0.107500 0.190000 -0.189195
v -0.082500 0.262000 -0.145894
v -0.186195 0.190000 -0.110500
v -0.142894 0.262000 -0.085500
v -0.215000 0.190000 -0.003000
v -0.165000 0.262000 -0.003000
v -0.186195 0.190000 0.104500
v -0.142894 0.262000 0.079500
v -0.107500 0.190000 0.183195
v -0.082500 0.262000 0.139894
v -0.000000 0.190000 0.212000
v -0.000000 0.262000 0.162000
v 0.107500 0.190000 0.183195
v 0.082500 0.262000 0.139894
v 0.186195 0.190000 0.104500
v 0.142894 0.262000 0.079500
v -0.162385 0.302641 0.085494
v -0.177615 0.302641 0.048506
v -0.185230 0.268000 0.030013
v -0.177615 0.233359 0.048506
v -0.162385 0.233359 0.085494
v -0.154770 0.268000 0.103987
v 0.185230 0.268000 -0.036013
v 0.177615 0.233359 -0.054506
v 0.162385 0.233359 -0.091494
v 0.154770 0.268000 -0.109987
v 0.162385 0.302641 -0.091494
v 0.177615 0.302641 -0.054506
v -0.087569 0.300909 -0.165766
v -0.052431 0.300909 -0.180234
v -0.034862 0.268000 -0.187468
v -0.052431 0.235091 -0.180234
v -0.087569 0.235091 -0.165766
v -0.105138 0.268000 -0.158532
v 0.034862 0.268000 0.181468
v 0.052431 0.235091 0.174234
v 0.087569 0.235091 0.159766
v 0.105138 0.268000 0.152532
v 0.087569 0.300909 0.159766
v 0.052431 0.300909 0.174234
v -0.164038 0.366177 -0.077434
v -0.145962 0.366177 -0.108566
v -0.136923 0.335000 -0.124132
v -0.145962 0.303823 -0.108566
v -0.164038 0.303823 -0.077434
v -0.173077 0.335000 -0.061868
v 0.136923 0.335000 0.118132
v 0.145962 0.303823 0.102566
v 0.164038 0.303823 0.071434
v 0.173077 0.335000 0.055868
v 0.164038 0.366177 0.071434
v 0.145962 0.366177 0.102566
v 0.008217 0.359445 -0.160707
v 0.041783 0.359445 -0.155293
v 0.058566 0.330000 -0.152586
v 0.041783 0.300555 -0.155293
v 0.008217 0.300555 -0.160707
v -0.008566 0.330000 -0.163414
v -0.058566 0.330000 0.146586
v -0.041783 0.300555 0.149293
v -0.008217 0.300555 0.154707
v 0.008566 0.330000 0.157414
v -0.008217 0.359445 0.154707
v -0.041783 0.359445 0.149293
v -0.052000 0.330000 -0.053000
v 0.048000 0.330000 -0.053000
v 0.048000 0.330000 0.045000
v -0.052000 0.330000 0.045000
v -0.016000 0.470000 0.011000
v 0.014000 0.470000 0.011000
v 0.014000 0.470000 -0.019000
v -0.016000 0.470000 -0.019000
v 0.030000 0.320000 -0.055000
v 0.086000 0.320000 -0.055000
v 0.086000 0.320000 0.007000
v 0.030000 0.320000 0.007000
v 0.048000 0.410000 -0.011000
v 0.070000 0.410000 -0.011000
v 0.070000 0.410000 -0.037000
v 0.048000 0.410000 -0.037000
vn 0.5000 -0.0000 0.8660
vn -0.5000 -0.0000 -0.8660
vn -0.0000 -1.0000 -0.0000
vn 0.8362 0.2600 -0.4828
vn -0.0000 1.0000 -0.0000
vn -0.8362 -0.2600 0.4828
vn 0.5000 -0.0000 -0.8660
vn -0.5000 -0.0000 0.8660
vn -0.8362 0.2600 -0.4828
vn 0.8362 -0.2600 0.4828
vn -1.0000 -0.0000 -0.0000
vn 1.0000 -0.0000 -0.0000
vn -0.0000 0.2600 0.9656
vn -0.0000 -0.2600 -0.9656
vn -0.8648 0.4717 0.1720
vn -0.7331 0.4717 0.4899
vn -0.4899 0.4717 0.7331
vn -0.1720 0.4717 0.8648
vn 0.1720 0.4717 0.8648
vn 0.4899 0.4717 0.7331
vn 0.7331 0.4717 0.4899
vn 0.8648 0.4717 0.1720
vn 0.8648 0.4717 -0.1720
vn 0.7331 0.4717 -0.4899
vn 0.4899 0.4717 -0.7331
vn 0.1720 0.4717 -0.8648
vn -0.1720 0.4717 -0.8648
vn -0.4899 0.4717 -0.7331
vn -0.7331 0.4717 -0.4899
vn -0.8648 0.4717 -0.1720
vn 0.8531 -0.4934 -0.1697
vn 0.7232 -0.4934 -0.4832
vn 0.4832 -0.4934 -0.7232
vn 0.1697 -0.4934 -0.8531
vn -0.1697 -0.4934 -0.8531
vn -0.4832 -0.4934 -0.7232
vn -0.7232 -0.4934 -0.4832
vn -0.8531 -0.4934 -0.1697
vn -0.8531 -0.4934 0.1697
vn -0.7232 -0.4934 0.4832
vn -0.4832 -0.4934 0.7232
vn -0.1697 -0.4934 0.8531
vn 0.1697 -0.4934 0.8531
vn 0.4832 -0.4934 0.7232
vn 0.7232 -0.4934 0.4832
vn 0.8531 -0.4934 0.1697
vn 0.8022 0.5571 -0.2149
vn 0.5872 0.5571 -0.5872
vn 0.2149 0.5571 -0.8022
vn -0.2149 0.5571 -0.8022
vn -0.5872 0.5571 -0.5872
vn -0.8022 0.5571 -0.2149
vn -0.8022 0.5571 0.2149
vn -0.5872 0.5571 0.5872
vn -0.2149 0.5571 0.8022
vn 0.2149 0.5571 0.8022
vn 0.5872 0.5571 0.5872
vn 0.8022 0.5571 0.2149
vn -0.9247 -0.0000 0.3808
vn 0.9247 -0.0000 -0.3807
vn 0.3297 -0.5000 0.8008
vn -0.3297 -0.5000 -0.8008
vn -0.3297 0.5000 -0.8008
vn 0.3297 0.5000 0.8008
vn -0.3807 -0.0000 -0.9247
vn 0.3807 -0.0000 0.9247
vn -0.8008 -0.5000 0.3297
vn 0.8008 -0.5000 -0.3297
vn 0.8008 0.5000 -0.3297
vn -0.8008 0.5000 0.3297
vn -0.8648 -0.0000 -0.5021
vn 0.8648 -0.0000 0.5021
vn -0.4349 -0.5000 0.7489
vn 0.4349 -0.5000 -0.7489
vn 0.4349 0.5000 -0.7489
vn -0.4349 0.5000 0.7489
vn 0.1592 -0.0000 -0.9872
vn -0.1592 -0.0000 0.9872
vn -0.8550 -0.5000 -0.1379
vn 0.8550 -0.5000 0.1379
vn 0.8550 0.5000 0.1379
vn -0.8550 0.5000 -0.1379
vn -0.0000 0.2360 0.9718
vn 0.9718 0.2360 -0.0000
vn -0.0000 0.2360 -0.9718
vn -0.9685 0.2490 -0.0000
vn -0.0000 0.1961 0.9806
vn 0.9846 0.1750 -0.0000
vn -0.0000 0.1961 -0.9806
vn -0.9806 0.1961 -0.0000
vt 0.187500 0.562500
vt 0.812500 0.312500
vt 0.812500 0.062500
vt 0.562500 0.937500
s 0
usemtl FN_Atlas
f 1/1/1 2/1/1 3/1/1 4/1/1
f 5/1/2 6/1/2 7/1/2 8/1/2
f 2/1/3 1/1/3 8/1/3 7/1/3
f 3/1/4 2/1/4 7/1/4 6/1/4
f 4/1/5 3/1/5 6/1/5 5/1/5
f 1/1/6 4/1/6 5/1/6 8/1/6
f 9/1/7 10/1/7 11/1/7 12/1/7
f 13/1/8 14/1/8 15/1/8 16/1/8
f 10/1/3 9/1/3 16/1/3 15/1/3
f 11/1/9 10/1/9 15/1/9 14/1/9
f 12/1/5 11/1/5 14/1/5 13/1/5
f 9/1/10 12/1/10 13/1/10 16/1/10
f 17/1/11 18/1/11 19/1/11 20/1/11
f 21/1/12 22/1/12 23/1/12 24/1/12
f 18/1/3 17/1/3 24/1/3 23/1/3
f 19/1/13 18/1/13 23/1/13 22/1/13
f 20/1/5 19/1/5 22/1/5 21/1/5
f 17/1/14 20/1/14 21/1/14 24/1/14
f 25/1/15 26/1/15 27/1/15 28/1/15
f 26/1/16 29/1/16 30/1/16 27/1/16
f 29/1/17 31/1/17 32/1/17 30/1/17
f 31/1/18 33/1/18 34/1/18 32/1/18
f 33/1/19 35/1/19 36/1/19 34/1/19
f 35/1/20 37/1/20 38/1/20 36/1/20
f 37/1/21 39/1/21 40/1/21 38/1/21
f 39/1/22 41/1/22 42/1/22 40/1/22
f 41/1/23 43/1/23 44/1/23 42/1/23
f 43/1/24 45/1/24 46/1/24 44/1/24
f 45/1/25 47/1/25 48/1/25 46/1/25
f 47/1/26 49/1/26 50/1/26 48/1/26
f 49/1/27 51/1/27 52/1/27 50/1/27
f 51/1/28 53/1/28 54/1/28 52/1/28
f 53/1/29 55/1/29 56/1/29 54/1/29
f 55/1/30 25/1/30 28/1/30 56/1/30
f 56/1/3 54/1/3 52/1/3 50/1/3 48/1/3 46/1/3 44/1/3 42/1/3 40/1/3 38/1/3 36/1/3 34/1/3 32/1/3 30/1/3 27/1/3 28/1/3
f 25/1/5 26/1/5 57/1/5 58/1/5
f 26/1/5 29/1/5 59/1/5 57/1/5
f 29/1/5 31/1/5 60/1/5 59/1/5
f 31/1/5 33/1/5 61/1/5 60/1/5
f 33/1/5 35/1/5 62/1/5 61/1/5
f 35/1/5 37/1/5 63/1/5 62/1/5
f 37/1/5 39/1/5 64/1/5 63/1/5
f 39/1/5 41/1/5 65/1/5 64/1/5
f 41/1/5 43/1/5 66/1/5 65/1/5
f 43/1/5 45/1/5 67/1/5 66/1/5
f 45/1/5 47/1/5 68/1/5 67/1/5
f 47/1/5 49/1/5 69/1/5 68/1/5
f 49/1/5 51/1/5 70/1/5 69/1/5
f 51/1/5 53/1/5 71/1/5 70/1/5
f 53/1/5 55/1/5 72/1/5 71/1/5
f 55/1/5 25/1/5 58/1/5 72/1/5
f 73/2/31 74/2/31 57/2/31 58/2/31
f 74/2/32 75/2/32 59/2/32 57/2/32
f 75/2/33 76/2/33 60/2/33 59/2/33
f 76/2/34 77/2/34 61/2/34 60/2/34
f 77/2/35 78/2/35 62/2/35 61/2/35
f 78/2/36 79/2/36 63/2/36 62/2/36
f 79/2/37 80/2/37 64/2/37 63/2/37
f 80/2/38 81/2/38 65/2/38 64/2/38
f 81/2/39 82/2/39 66/2/39 65/2/39
f 82/2/40 83/2/40 67/2/40 66/2/40
f 83/2/41 84/2/41 68/2/41 67/2/41
f 84/2/42 85/2/42 69/2/42 68/2/42
f 85/2/43 86/2/43 70/2/43 69/2/43
f 86/2/44 87/2/44 71/2/44 70/2/44
f 87/2/45 88/2/45 72/2/45 71/2/45
f 88/2/46 73/2/46 58/2/46 72/2/46
f 73/2/5 74/2/5 75/2/5 76/2/5 77/2/5 78/2/5 79/2/5 80/2/5 81/2/5 82/2/5 83/2/5 84/2/5 85/2/5 86/2/5 87/2/5 88/2/5
f 113/4/59 114/4/59 115/4/59 116/4/59 117/4/59 118/4/59
f 119/4/60 120/4/60 121/4/60 122/4/60 123/4/60 124/4/60
f 118/4/61 117/4/61 120/4/61 119/4/61
f 117/4/3 116/4/3 121/4/3 120/4/3
f 116/4/62 115/4/62 122/4/62 121/4/62
f 115/4/63 114/4/63 123/4/63 122/4/63
f 114/4/5 113/4/5 124/4/5 123/4/5
f 113/4/64 118/4/64 119/4/64 124/4/64
f 125/4/65 126/4/65 127/4/65 128/4/65 129/4/65 130/4/65
f 131/4/66 132/4/66 133/4/66 134/4/66 135/4/66 136/4/66
f 130/4/67 129/4/67 132/4/67 131/4/67
f 129/4/3 128/4/3 133/4/3 132/4/3
f 128/4/68 127/4/68 134/4/68 133/4/68
f 127/4/69 126/4/69 135/4/69 134/4/69
f 126/4/5 125/4/5 136/4/5 135/4/5
f 125/4/70 130/4/70 131/4/70 136/4/70
f 137/4/71 138/4/71 139/4/71 140/4/71 141/4/71 142/4/71
f 143/4/72 144/4/72 145/4/72 146/4/72 147/4/72 148/4/72
f 142/4/73 141/4/73 144/4/73 143/4/73
f 141/4/3 140/4/3 145/4/3 144/4/3
f 140/4/74 139/4/74 146/4/74 145/4/74
f 139/4/75 138/4/75 147/4/75 146/4/75
f 138/4/5 137/4/5 148/4/5 147/4/5
f 137/4/76 142/4/76 143/4/76 148/4/76
f 149/4/77 150/4/77 151/4/77 152/4/77 153/4/77 154/4/77
f 155/4/78 156/4/78 157/4/78 158/4/78 159/4/78 160/4/78
f 154/4/79 153/4/79 156/4/79 155/4/79
f 153/4/3 152/4/3 157/4/3 156/4/3
f 152/4/80 151/4/80 158/4/80 157/4/80
f 151/4/81 150/4/81 159/4/81 158/4/81
f 150/4/5 149/4/5 160/4/5 159/4/5
f 149/4/82 154/4/82 155/4/82 160/4/82
usemtl FN_Glow
f 89/3/47 90/3/47 91/3/47 92/3/47
f 90/3/48 93/3/48 94/3/48 91/3/48
f 93/3/49 95/3/49 96/3/49 94/3/49
f 95/3/50 97/3/50 98/3/50 96/3/50
f 97/3/51 99/3/51 100/3/51 98/3/51
f 99/3/52 101/3/52 102/3/52 100/3/52
f 101/3/53 103/3/53 104/3/53 102/3/53
f 103/3/54 105/3/54 106/3/54 104/3/54
f 105/3/55 107/3/55 108/3/55 106/3/55
f 107/3/56 109/3/56 110/3/56 108/3/56
f 109/3/57 111/3/57 112/3/57 110/3/57
f 111/3/58 89/3/58 92/3/58 112/3/58
f 92/3/5 91/3/5 94/3/5 96/3/5 98/3/5 100/3/5 102/3/5 104/3/5 106/3/5 108/3/5 110/3/5 112/3/5
f 161/3/3 162/3/3 163/3/3 164/3/3
f 165/3/5 166/3/5 167/3/5 168/3/5
f 164/3/83 163/3/83 166/3/83 165/3/83
f 163/3/84 162/3/84 167/3/84 166/3/84
f 162/3/85 161/3/85 168/3/85 167/3/85
f 161/3/86 164/3/86 165/3/86 168/3/86
f 169/3/3 170/3/3 171/3/3 172/3/3
f 173/3/5 174/3/5 175/3/5 176/3/5
f 172/3/87 171/3/87 174/3/87 173/3/87
f 171/3/88 170/3/88 175/3/88 174/3/88
f 170/3/89 169/3/89 176/3/89 175/3/89
f 169/3/90 172/3/90 173/3/90 176/3/90
