# Blender 5.2.0 LTS
# www.blender.org
mtllib FN_Rail_Hooks.mtl
o FN_Rail_Hooks
v -0.450000 0.000000 0.000000
v -0.450000 0.000000 -0.022000
v 0.450000 0.000000 -0.022000
v 0.450000 0.000000 0.000000
v -0.450000 0.230000 0.000000
v 0.450000 0.230000 0.000000
v 0.450000 0.230000 -0.022000
v -0.450000 0.230000 -0.022000
v -0.470000 0.222000 0.000000
v -0.470000 0.222000 -0.160000
v 0.470000 0.222000 -0.160000
v 0.470000 0.222000 0.000000
v -0.470000 0.252000 0.000000
v 0.470000 0.252000 0.000000
v 0.470000 0.252000 -0.160000
v -0.470000 0.252000 -0.160000
v -0.392000 0.170000 -0.022000
v -0.392000 0.170000 -0.120000
v -0.368000 0.170000 -0.120000
v -0.368000 0.170000 -0.022000
v -0.392000 0.226000 -0.022000
v -0.368000 0.226000 -0.022000
v -0.368000 0.226000 -0.120000
v -0.392000 0.226000 -0.120000
v 0.368000 0.170000 -0.022000
v 0.368000 0.170000 -0.120000
v 0.392000 0.170000 -0.120000
v 0.392000 0.170000 -0.022000
v 0.368000 0.226000 -0.022000
v 0.392000 0.226000 -0.022000
v 0.392000 0.226000 -0.120000
v 0.368000 0.226000 -0.120000
v -0.327000 0.106000 -0.018000
v -0.327000 0.106000 -0.070000
v -0.313000 0.106000 -0.070000
v -0.313000 0.106000 -0.018000
v -0.327000 0.122000 -0.018000
v -0.313000 0.122000 -0.018000
v -0.313000 0.122000 -0.070000
v -0.327000 0.122000 -0.070000
v -0.327000 0.052000 -0.054000
v -0.327000 0.052000 -0.070000
v -0.313000 0.052000 -0.070000
v -0.313000 0.052000 -0.054000
v -0.327000 0.122000 -0.054000
v -0.313000 0.122000 -0.054000
v -0.330000 0.040000 -0.049000
v -0.330000 0.040000 -0.075000
v -0.310000 0.040000 -0.075000
v -0.310000 0.040000 -0.049000
v -0.330000 0.056000 -0.049000
v -0.310000 0.056000 -0.049000
v -0.310000 0.056000 -0.075000
v -0.330000 0.056000 -0.075000
v -0.167000 0.106000 -0.018000
v -0.167000 0.106000 -0.070000
v -0.153000 0.106000 -0.070000
v -0.153000 0.106000 -0.018000
v -0.167000 0.122000 -0.018000
v -0.153000 0.122000 -0.018000
v -0.153000 0.122000 -0.070000
v -0.167000 0.122000 -0.070000
v -0.167000 0.052000 -0.054000
v -0.167000 0.052000 -0.070000
v -0.153000 0.052000 -0.070000
v -0.153000 0.052000 -0.054000
v -0.167000 0.122000 -0.054000
v -0.153000 0.122000 -0.054000
v -0.170000 0.040000 -0.049000
v -0.170000 0.040000 -0.075000
v -0.150000 0.040000 -0.075000
v -0.150000 0.040000 -0.049000
v -0.170000 0.056000 -0.049000
v -0.150000 0.056000 -0.049000
v -0.150000 0.056000 -0.075000
v -0.170000 0.056000 -0.075000
v -0.007000 0.106000 -0.018000
v -0.007000 0.106000 -0.070000
v 0.007000 0.106000 -0.070000
v 0.007000 0.106000 -0.018000
v -0.007000 0.122000 -0.018000
v 0.007000 0.122000 -0.018000
v 0.007000 0.122000 -0.070000
v -0.007000 0.122000 -0.070000
v -0.007000 0.052000 -0.054000
v -0.007000 0.052000 -0.070000
v 0.007000 0.052000 -0.070000
v 0.007000 0.052000 -0.054000
v -0.007000 0.122000 -0.054000
v 0.007000 0.122000 -0.054000
v -0.010000 0.040000 -0.049000
v -0.010000 0.040000 -0.075000
v 0.010000 0.040000 -0.075000
v 0.010000 0.040000 -0.049000
v -0.010000 0.056000 -0.049000
v 0.010000 0.056000 -0.049000
v 0.010000 0.056000 -0.075000
v -0.010000 0.056000 -0.075000
v 0.153000 0.106000 -0.018000
v 0.153000 0.106000 -0.070000
v 0.167000 0.106000 -0.070000
v 0.167000 0.106000 -0.018000
v 0.153000 0.122000 -0.018000
v 0.167000 0.122000 -0.018000
v 0.167000 0.122000 -0.070000
v 0.153000 0.122000 -0.070000
v 0.153000 0.052000 -0.054000
v 0.153000 0.052000 -0.070000
v 0.167000 0.052000 -0.070000
v 0.167000 0.052000 -0.054000
v 0.153000 0.122000 -0.054000
v 0.167000 0.122000 -0.054000
v 0.150000 0.040000 -0.049000
v 0.150000 0.040000 -0.075000
v 0.170000 0.040000 -0.075000
v 0.170000 0.040000 -0.049000
v 0.150000 0.056000 -0.049000
v 0.170000 0.056000 -0.049000
v 0.170000 0.056000 -0.075000
v 0.150000 0.056000 -0.075000
v 0.313000 0.106000 -0.018000
v 0.313000 0.106000 -0.070000
v 0.327000 0.106000 -0.070000
v 0.327000 0.106000 -0.018000
v 0.313000 0.122000 -0.018000
v 0.327000 0.122000 -0.018000
v 0.327000 0.122000 -0.070000
v 0.313000 0.122000 -0.070000
v 0.313000 0.052000 -0.054000
v 0.313000 0.052000 -0.070000
v 0.327000 0.052000 -0.070000
v 0.327000 0.052000 -0.054000
v 0.313000 0.122000 -0.054000
v 0.327000 0.122000 -0.054000
v 0.310000 0.040000 -0.049000
v 0.310000 0.040000 -0.075000
v 0.330000 0.040000 -0.075000
v 0.330000 0.040000 -0.049000
v 0.310000 0.056000 -0.049000
v 0.330000 0.056000 -0.049000
v 0.330000 0.056000 -0.075000
v 0.310000 0.056000 -0.075000
vn -0.0000 -1.0000 -0.0000
vn -0.0000 1.0000 -0.0000
vn -0.0000 -0.0000 1.0000
vn -0.0000 -0.0000 -1.0000
vn -1.0000 -0.0000 -0.0000
vn 1.0000 -0.0000 -0.0000
vt 0.687500 0.937500
vt 0.437500 0.312500
s 0
usemtl FN_Atlas
f 1/1/1 2/1/1 3/1/1 4/1/1
f 5/1/2 6/1/2 7/1/2 8/1/2
f 1/1/3 4/1/3 6/1/3 5/1/3
f 3/1/4 2/1/4 8/1/4 7/1/4
f 1/1/5 5/1/5 8/1/5 2/1/5
f 4/1/6 3/1/6 7/1/6 6/1/6
f 9/1/1 10/1/1 11/1/1 12/1/1
f 13/1/2 14/1/2 15/1/2 16/1/2
f 9/1/3 12/1/3 14/1/3 13/1/3
f 11/1/4 10/1/4 16/1/4 15/1/4
f 9/1/5 13/1/5 16/1/5 10/1/5
f 12/1/6 11/1/6 15/1/6 14/1/6
f 17/1/1 18/1/1 19/1/1 20/1/1
f 21/1/2 22/1/2 23/1/2 24/1/2
f 17/1/3 20/1/3 22/1/3 21/1/3
f 19/1/4 18/1/4 24/1/4 23/1/4
f 17/1/5 21/1/5 24/1/5 18/1/5
f 20/1/6 19/1/6 23/1/6 22/1/6
f 25/1/1 26/1/1 27/1/1 28/1/1
f 29/1/2 30/1/2 31/1/2 32/1/2
f 25/1/3 28/1/3 30/1/3 29/1/3
f 27/1/4 26/1/4 32/1/4 31/1/4
f 25/1/5 29/1/5 32/1/5 26/1/5
f 28/1/6 27/1/6 31/1/6 30/1/6
f 33/2/1 34/2/1 35/2/1 36/2/1
f 37/2/2 38/2/2 39/2/2 40/2/2
f 33/2/3 36/2/3 38/2/3 37/2/3
f 35/2/4 34/2/4 40/2/4 39/2/4
f 33/2/5 37/2/5 40/2/5 34/2/5
f 36/2/6 35/2/6 39/2/6 38/2/6
f 41/2/1 42/2/1 43/2/1 44/2/1
f 45/2/2 46/2/2 39/2/2 40/2/2
f 41/2/3 44/2/3 46/2/3 45/2/3
f 43/2/4 42/2/4 40/2/4 39/2/4
f 41/2/5 45/2/5 40/2/5 42/2/5
f 44/2/6 43/2/6 39/2/6 46/2/6
f 47/2/1 48/2/1 49/2/1 50/2/1
f 51/2/2 52/2/2 53/2/2 54/2/2
f 47/2/3 50/2/3 52/2/3 51/2/3
f 49/2/4 48/2/4 54/2/4 53/2/4
f 47/2/5 51/2/5 54/2/5 48/2/5
f 50/2/6 49/2/6 53/2/6 52/2/6
f 55/2/1 56/2/1 57/2/1 58/2/1
f 59/2/2 60/2/2 61/2/2 62/2/2
f 55/2/3 58/2/3 60/2/3 59/2/3
f 57/2/4 56/2/4 62/2/4 61/2/4
f 55/2/5 59/2/5 62/2/5 56/2/5
f 58/2/6 57/2/6 61/2/6 60/2/6
f 63/2/1 64/2/1 65/2/1 66/2/1
f 67/2/2 68/2/2 61/2/2 62/2/2
f 63/2/3 66/2/3 68/2/3 67/2/3
f 65/2/4 64/2/4 62/2/4 61/2/4
f 63/2/5 67/2/5 62/2/5 64/2/5
f 66/2/6 65/2/6 61/2/6 68/2/6
f 69/2/1 70/2/1 71/2/1 72/2/1
f 73/2/2 74/2/2 75/2/2 76/2/2
f 69/2/3 72/2/3 74/2/3 73/2/3
f 71/2/4 70/2/4 76/2/4 75/2/4
f 69/2/5 73/2/5 76/2/5 70/2/5
f 72/2/6 71/2/6 75/2/6 74/2/6
f 77/2/1 78/2/1 79/2/1 80/2/1
f 81/2/2 82/2/2 83/2/2 84/2/2
f 77/2/3 80/2/3 82/2/3 81/2/3
f 79/2/4 78/2/4 84/2/4 83/2/4
f 77/2/5 81/2/5 84/2/5 78/2/5
f 80/2/6 79/2/6 83/2/6 82/2/6
f 85/2/1 86/2/1 87/2/1 88/2/1
f 89/2/2 90/2/2 83/2/2 84/2/2
f 85/2/3 88/2/3 90/2/3 89/2/3
f 87/2/4 86/2/4 84/2/4 83/2/4
f 85/2/5 89/2/5 84/2/5 86/2/5
f 88/2/6 87/2/6 83/2/6 90/2/6
f 91/2/1 92/2/1 93/2/1 94/2/1
f 95/2/2 96/2/2 97/2/2 98/2/2
f 91/2/3 94/2/3 96/2/3 95/2/3
f 93/2/4 92/2/4 98/2/4 97/2/4
f 91/2/5 95/2/5 98/2/5 92/2/5
f 94/2/6 93/2/6 97/2/6 96/2/6
f 99/2/1 100/2/1 101/2/1 102/2/1
f 103/2/2 104/2/2 105/2/2 106/2/2
f 99/2/3 102/2/3 104/2/3 103/2/3
f 101/2/4 100/2/4 106/2/4 105/2/4
f 99/2/5 103/2/5 106/2/5 100/2/5
f 102/2/6 101/2/6 105/2/6 104/2/6
f 107/2/1 108/2/1 109/2/1 110/2/1
f 111/2/2 112/2/2 105/2/2 106/2/2
f 107/2/3 110/2/3 112/2/3 111/2/3
f 109/2/4 108/2/4 106/2/4 105/2/4
f 107/2/5 111/2/5 106/2/5 108/2/5
f 110/2/6 109/2/6 105/2/6 112/2/6
f 113/2/1 114/2/1 115/2/1 116/2/1
f 117/2/2 118/2/2 119/2/2 120/2/2
f 113/2/3 116/2/3 118/2/3 117/2/3
f 115/2/4 114/2/4 120/2/4 119/2/4
f 113/2/5 117/2/5 120/2/5 114/2/5
f 116/2/6 115/2/6 119/2/6 118/2/6
f 121/2/1 122/2/1 123/2/1 124/2/1
f 125/2/2 126/2/2 127/2/2 128/2/2
f 121/2/3 124/2/3 126/2/3 125/2/3
f 123/2/4 122/2/4 128/2/4 127/2/4
f 121/2/5 125/2/5 128/2/5 122/2/5
f 124/2/6 123/2/6 127/2/6 126/2/6
f 129/2/1 130/2/1 131/2/1 132/2/1
f 133/2/2 134/2/2 127/2/2 128/2/2
f 129/2/3 132/2/3 134/2/3 133/2/3
f 131/2/4 130/2/4 128/2/4 127/2/4
f 129/2/5 133/2/5 128/2/5 130/2/5
f 132/2/6 131/2/6 127/2/6 134/2/6
f 135/2/1 136/2/1 137/2/1 138/2/1
f 139/2/2 140/2/2 141/2/2 142/2/2
f 135/2/3 138/2/3 140/2/3 139/2/3
f 137/2/4 136/2/4 142/2/4 141/2/4
f 135/2/5 139/2/5 142/2/5 136/2/5
f 138/2/6 137/2/6 141/2/6 140/2/6
