# Blender 5.2.0 LTS
# www.blender.org
mtllib FN_Rack_Magazine.mtl
o FN_Rack_Magazine
v -0.170808 0.017849 0.167092
v -0.180000 0.020271 0.170029
v -0.189192 0.017849 0.167092
v -0.193000 0.012000 0.160000
v -0.189192 0.006151 0.152908
v -0.180000 0.003729 0.149971
v -0.170808 0.006151 0.152908
v -0.167000 0.012000 0.160000
v -0.167000 0.400000 -0.160000
v -0.170808 0.394151 -0.167092
v -0.180000 0.391729 -0.170029
v -0.189192 0.394151 -0.167092
v -0.193000 0.400000 -0.160000
v -0.189192 0.405849 -0.152908
v -0.180000 0.408271 -0.149971
v -0.170808 0.405849 -0.152908
v -0.201000 0.000000 0.139000
v -0.159000 0.000000 0.139000
v -0.159000 0.000000 0.181000
v -0.201000 0.000000 0.181000
v -0.197000 0.016000 0.177000
v -0.163000 0.016000 0.177000
v -0.163000 0.016000 0.143000
v -0.197000 0.016000 0.143000
v 0.189192 0.017849 0.167092
v 0.180000 0.020271 0.170029
v 0.170808 0.017849 0.167092
v 0.167000 0.012000 0.160000
v 0.170808 0.006151 0.152908
v 0.180000 0.003729 0.149971
v 0.189192 0.006151 0.152908
v 0.193000 0.012000 0.160000
v 0.193000 0.400000 -0.160000
v 0.189192 0.394151 -0.167092
v 0.180000 0.391729 -0.170029
v 0.170808 0.394151 -0.167092
v 0.167000 0.400000 -0.160000
v 0.170808 0.405849 -0.152908
v 0.180000 0.408271 -0.149971
v 0.189192 0.405849 -0.152908
v 0.159000 0.000000 0.139000
v 0.201000 0.000000 0.139000
v 0.201000 0.000000 0.181000
v 0.159000 0.000000 0.181000
v 0.163000 0.016000 0.177000
v 0.197000 0.016000 0.177000
v 0.197000 0.016000 0.143000
v 0.163000 0.016000 0.143000
v -0.180000 0.029778 0.167778
v -0.180000 0.033000 0.160000
v -0.180000 0.029778 0.152222
v -0.180000 0.022000 0.149000
v -0.180000 0.014222 0.152222
v -0.180000 0.011000 0.160000
v -0.180000 0.014222 0.167778
v -0.180000 0.022000 0.171000
v 0.180000 0.022000 0.171000
v 0.180000 0.014222 0.167778
v 0.180000 0.011000 0.160000
v 0.180000 0.014222 0.152222
v 0.180000 0.022000 0.149000
v 0.180000 0.029778 0.152222
v 0.180000 0.033000 0.160000
v 0.180000 0.029778 0.167778
v -0.180000 0.407778 -0.152222
v -0.180000 0.411000 -0.160000
v -0.180000 0.407778 -0.167778
v -0.180000 0.400000 -0.171000
v -0.180000 0.392222 -0.167778
v -0.180000 0.389000 -0.160000
v -0.180000 0.392222 -0.152222
v -0.180000 0.400000 -0.149000
v 0.180000 0.400000 -0.149000
v 0.180000 0.392222 -0.152222
v 0.180000 0.389000 -0.160000
v 0.180000 0.392222 -0.167778
v 0.180000 0.400000 -0.171000
v 0.180000 0.407778 -0.167778
v 0.180000 0.411000 -0.160000
v 0.180000 0.407778 -0.152222
v -0.159192 0.017849 -0.167092
v -0.150000 0.020271 -0.170029
v -0.140808 0.017849 -0.167092
v -0.137000 0.012000 -0.160000
v -0.140808 0.006151 -0.152908
v -0.150000 0.003729 -0.149971
v -0.159192 0.006151 -0.152908
v -0.163000 0.012000 -0.160000
v -0.163000 0.400000 0.160000
v -0.159192 0.394151 0.167092
v -0.150000 0.391729 0.170029
v -0.140808 0.394151 0.167092
v -0.137000 0.400000 0.160000
v -0.140808 0.405849 0.152908
v -0.150000 0.408271 0.149971
v -0.159192 0.405849 0.152908
v -0.171000 0.000000 -0.181000
v -0.129000 0.000000 -0.181000
v -0.129000 0.000000 -0.139000
v -0.171000 0.000000 -0.139000
v -0.167000 0.016000 -0.143000
v -0.133000 0.016000 -0.143000
v -0.133000 0.016000 -0.177000
v -0.167000 0.016000 -0.177000
v 0.140808 0.017849 -0.167092
v 0.150000 0.020271 -0.170029
v 0.159192 0.017849 -0.167092
v 0.163000 0.012000 -0.160000
v 0.159192 0.006151 -0.152908
v 0.150000 0.003729 -0.149971
v 0.140808 0.006151 -0.152908
v 0.137000 0.012000 -0.160000
v 0.137000 0.400000 0.160000
v 0.140808 0.394151 0.167092
v 0.150000 0.391729 0.170029
v 0.159192 0.394151 0.167092
v 0.163000 0.400000 0.160000
v 0.159192 0.405849 0.152908
v 0.150000 0.408271 0.149971
v 0.140808 0.405849 0.152908
v 0.129000 0.000000 -0.181000
v 0.171000 0.000000 -0.181000
v 0.171000 0.000000 -0.139000
v 0.129000 0.000000 -0.139000
v 0.133000 0.016000 -0.143000
v 0.167000 0.016000 -0.143000
v 0.167000 0.016000 -0.177000
v 0.133000 0.016000 -0.177000
v -0.150000 0.029778 -0.152222
v -0.150000 0.033000 -0.160000
v -0.150000 0.029778 -0.167778
v -0.150000 0.022000 -0.171000
v -0.150000 0.014222 -0.167778
v -0.150000 0.011000 -0.160000
v -0.150000 0.014222 -0.152222
v -0.150000 0.022000 -0.149000
v 0.150000 0.022000 -0.149000
v 0.150000 0.014222 -0.152222
v 0.150000 0.011000 -0.160000
v 0.150000 0.014222 -0.167778
v 0.150000 0.022000 -0.171000
v 0.150000 0.029778 -0.167778
v 0.150000 0.033000 -0.160000
v 0.150000 0.029778 -0.152222
v -0.150000 0.407778 0.167778
v -0.150000 0.411000 0.160000
v -0.150000 0.407778 0.152222
v -0.150000 0.400000 0.149000
v -0.150000 0.392222 0.152222
v -0.150000 0.389000 0.160000
v -0.150000 0.392222 0.167778
v -0.150000 0.400000 0.171000
v 0.150000 0.400000 0.171000
v 0.150000 0.392222 0.167778
v 0.150000 0.389000 0.160000
v 0.150000 0.392222 0.152222
v 0.150000 0.400000 0.149000
v 0.150000 0.407778 0.152222
v 0.150000 0.411000 0.160000
v 0.150000 0.407778 0.167778
v -0.146000 0.400000 0.148000
v 0.146000 0.400000 0.148000
v 0.146000 0.400000 0.172000
v -0.146000 0.400000 0.172000
v -0.146000 0.150000 0.012000
v 0.146000 0.150000 0.012000
v 0.146000 0.150000 -0.012000
v -0.146000 0.150000 -0.012000
v -0.146000 0.400000 -0.172000
v 0.146000 0.400000 -0.172000
v 0.146000 0.400000 -0.148000
v -0.146000 0.400000 -0.148000
vn -0.0000 -0.7715 0.6363
vn -0.0000 0.7715 -0.6363
vn 0.9239 -0.2435 -0.2952
vn 0.3827 -0.5878 -0.7127
vn -0.3827 -0.5878 -0.7127
vn -0.9239 -0.2435 -0.2952
vn -0.9239 0.2435 0.2952
vn -0.3827 0.5878 0.7127
vn 0.3827 0.5878 0.7127
vn 0.9239 0.2435 0.2952
vn -0.0000 -1.0000 -0.0000
vn -0.0000 1.0000 -0.0000
vn -0.0000 0.2425 0.9701
vn 0.9701 0.2425 -0.0000
vn -0.0000 0.2425 -0.9701
vn -0.9701 0.2425 -0.0000
vn -1.0000 -0.0000 -0.0000
vn 1.0000 -0.0000 -0.0000
vn -0.0000 -0.3827 0.9239
vn -0.0000 -0.9239 0.3827
vn -0.0000 -0.9239 -0.3827
vn -0.0000 -0.3827 -0.9239
vn -0.0000 0.3827 -0.9239
vn -0.0000 0.9239 -0.3827
vn -0.0000 0.9239 0.3827
vn -0.0000 0.3827 0.9239
vn -0.0000 -0.7715 -0.6363
vn -0.0000 0.7715 0.6363
vn -0.9239 -0.2435 0.2952
vn -0.3827 -0.5878 0.7127
vn 0.3827 -0.5878 0.7127
vn 0.9239 -0.2435 0.2952
vn 0.9239 0.2435 -0.2952
vn 0.3827 0.5878 -0.7127
vn -0.3827 0.5878 -0.7127
vn -0.9239 0.2435 -0.2952
vn -0.0000 0.5391 -0.8423
vn -0.0000 -0.5391 0.8423
vn -0.0000 -0.5391 -0.8423
vn -0.0000 0.5391 0.8423
vt 0.437500 0.937500
vt 0.937500 0.187500
vt 0.312500 0.437500
s 0
usemtl FN_Atlas
f 1/1/1 2/1/1 3/1/1 4/1/1 5/1/1 6/1/1 7/1/1 8/1/1
f 9/1/2 10/1/2 11/1/2 12/1/2 13/1/2 14/1/2 15/1/2 16/1/2
f 8/1/3 7/1/3 10/1/3 9/1/3
f 7/1/4 6/1/4 11/1/4 10/1/4
f 6/1/5 5/1/5 12/1/5 11/1/5
f 5/1/6 4/1/6 13/1/6 12/1/6
f 4/1/7 3/1/7 14/1/7 13/1/7
f 3/1/8 2/1/8 15/1/8 14/1/8
f 2/1/9 1/1/9 16/1/9 15/1/9
f 1/1/10 8/1/10 9/1/10 16/1/10
f 17/2/11 18/2/11 19/2/11 20/2/11
f 21/2/12 22/2/12 23/2/12 24/2/12
f 20/2/13 19/2/13 22/2/13 21/2/13
f 19/2/14 18/2/14 23/2/14 22/2/14
f 18/2/15 17/2/15 24/2/15 23/2/15
f 17/2/16 20/2/16 21/2/16 24/2/16
f 25/1/1 26/1/1 27/1/1 28/1/1 29/1/1 30/1/1 31/1/1 32/1/1
f 33/1/2 34/1/2 35/1/2 36/1/2 37/1/2 38/1/2 39/1/2 40/1/2
f 32/1/3 31/1/3 34/1/3 33/1/3
f 31/1/4 30/1/4 35/1/4 34/1/4
f 30/1/5 29/1/5 36/1/5 35/1/5
f 29/1/6 28/1/6 37/1/6 36/1/6
f 28/1/7 27/1/7 38/1/7 37/1/7
f 27/1/8 26/1/8 39/1/8 38/1/8
f 26/1/9 25/1/9 40/1/9 39/1/9
f 25/1/10 32/1/10 33/1/10 40/1/10
f 41/2/11 42/2/11 43/2/11 44/2/11
f 45/2/12 46/2/12 47/2/12 48/2/12
f 44/2/13 43/2/13 46/2/13 45/2/13
f 43/2/14 42/2/14 47/2/14 46/2/14
f 42/2/15 41/2/15 48/2/15 47/2/15
f 41/2/16 44/2/16 45/2/16 48/2/16
f 49/1/17 50/1/17 51/1/17 52/1/17 53/1/17 54/1/17 55/1/17 56/1/17
f 57/1/18 58/1/18 59/1/18 60/1/18 61/1/18 62/1/18 63/1/18 64/1/18
f 56/1/19 55/1/19 58/1/19 57/1/19
f 55/1/20 54/1/20 59/1/20 58/1/20
f 54/1/21 53/1/21 60/1/21 59/1/21
f 53/1/22 52/1/22 61/1/22 60/1/22
f 52/1/23 51/1/23 62/1/23 61/1/23
f 51/1/24 50/1/24 63/1/24 62/1/24
f 50/1/25 49/1/25 64/1/25 63/1/25
f 49/1/26 56/1/26 57/1/26 64/1/26
f 65/1/17 66/1/17 67/1/17 68/1/17 69/1/17 70/1/17 71/1/17 72/1/17
f 73/1/18 74/1/18 75/1/18 76/1/18 77/1/18 78/1/18 79/1/18 80/1/18
f 72/1/19 71/1/19 74/1/19 73/1/19
f 71/1/20 70/1/20 75/1/20 74/1/20
f 70/1/21 69/1/21 76/1/21 75/1/21
f 69/1/22 68/1/22 77/1/22 76/1/22
f 68/1/23 67/1/23 78/1/23 77/1/23
f 67/1/24 66/1/24 79/1/24 78/1/24
f 66/1/25 65/1/25 80/1/25 79/1/25
f 65/1/26 72/1/26 73/1/26 80/1/26
f 81/1/27 82/1/27 83/1/27 84/1/27 85/1/27 86/1/27 87/1/27 88/1/27
f 89/1/28 90/1/28 91/1/28 92/1/28 93/1/28 94/1/28 95/1/28 96/1/28
f 88/1/29 87/1/29 90/1/29 89/1/29
f 87/1/30 86/1/30 91/1/30 90/1/30
f 86/1/31 85/1/31 92/1/31 91/1/31
f 85/1/32 84/1/32 93/1/32 92/1/32
f 84/1/33 83/1/33 94/1/33 93/1/33
f 83/1/34 82/1/34 95/1/34 94/1/34
f 82/1/35 81/1/35 96/1/35 95/1/35
f 81/1/36 88/1/36 89/1/36 96/1/36
f 97/2/11 98/2/11 99/2/11 100/2/11
f 101/2/12 102/2/12 103/2/12 104/2/12
f 100/2/13 99/2/13 102/2/13 101/2/13
f 99/2/14 98/2/14 103/2/14 102/2/14
f 98/2/15 97/2/15 104/2/15 103/2/15
f 97/2/16 100/2/16 101/2/16 104/2/16
f 105/1/27 106/1/27 107/1/27 108/1/27 109/1/27 110/1/27 111/1/27 112/1/27
f 113/1/28 114/1/28 115/1/28 116/1/28 117/1/28 118/1/28 119/1/28 120/1/28
f 112/1/29 111/1/29 114/1/29 113/1/29
f 111/1/30 110/1/30 115/1/30 114/1/30
f 110/1/31 109/1/31 116/1/31 115/1/31
f 109/1/32 108/1/32 117/1/32 116/1/32
f 108/1/33 107/1/33 118/1/33 117/1/33
f 107/1/34 106/1/34 119/1/34 118/1/34
f 106/1/35 105/1/35 120/1/35 119/1/35
f 105/1/36 112/1/36 113/1/36 120/1/36
f 121/2/11 122/2/11 123/2/11 124/2/11
f 125/2/12 126/2/12 127/2/12 128/2/12
f 124/2/13 123/2/13 126/2/13 125/2/13
f 123/2/14 122/2/14 127/2/14 126/2/14
f 122/2/15 121/2/15 128/2/15 127/2/15
f 121/2/16 124/2/16 125/2/16 128/2/16
f 129/1/17 130/1/17 131/1/17 132/1/17 133/1/17 134/1/17 135/1/17 136/1/17
f 137/1/18 138/1/18 139/1/18 140/1/18 141/1/18 142/1/18 143/1/18 144/1/18
f 136/1/19 135/1/19 138/1/19 137/1/19
f 135/1/20 134/1/20 139/1/20 138/1/20
f 134/1/21 133/1/21 140/1/21 139/1/21
f 133/1/22 132/1/22 141/1/22 140/1/22
f 132/1/23 131/1/23 142/1/23 141/1/23
f 131/1/24 130/1/24 143/1/24 142/1/24
f 130/1/25 129/1/25 144/1/25 143/1/25
f 129/1/26 136/1/26 137/1/26 144/1/26
f 145/1/17 146/1/17 147/1/17 148/1/17 149/1/17 150/1/17 151/1/17 152/1/17
f 153/1/18 154/1/18 155/1/18 156/1/18 157/1/18 158/1/18 159/1/18 160/1/18
f 152/1/19 151/1/19 154/1/19 153/1/19
f 151/1/20 150/1/20 155/1/20 154/1/20
f 150/1/21 149/1/21 156/1/21 155/1/21
f 149/1/22 148/1/22 157/1/22 156/1/22
f 148/1/23 147/1/23 158/1/23 157/1/23
f 147/1/24 146/1/24 159/1/24 158/1/24
f 146/1/25 145/1/25 160/1/25 159/1/25
f 145/1/26 152/1/26 153/1/26 160/1/26
f 161/3/11 162/3/11 163/3/11 164/3/11
f 165/3/12 166/3/12 167/3/12 168/3/12
f 164/3/37 163/3/37 166/3/37 165/3/37
f 163/3/17 162/3/17 167/3/17 166/3/17
f 162/3/38 161/3/38 168/3/38 167/3/38
f 161/3/18 164/3/18 165/3/18 168/3/18
f 169/3/11 170/3/11 171/3/11 172/3/11
f 172/3/39 171/3/39 166/3/39 165/3/39
f 171/3/17 170/3/17 167/3/17 166/3/17
f 170/3/40 169/3/40 168/3/40 167/3/40
f 169/3/18 172/3/18 165/3/18 168/3/18
