# Blender 5.2.0 LTS
# www.blender.org
mtllib FN_Rack_Peg.mtl
o FN_Rack_Peg
v -0.560000 0.000000 0.000000
v -0.560000 0.000000 -0.022000
v 0.560000 0.000000 -0.022000
v 0.560000 0.000000 0.000000
v -0.560000 0.180000 0.000000
v 0.560000 0.180000 0.000000
v 0.560000 0.180000 -0.022000
v -0.560000 0.180000 -0.022000
v -0.439000 0.110000 -0.022000
v -0.444500 0.119526 -0.022000
v -0.455500 0.119526 -0.022000
v -0.461000 0.110000 -0.022000
v -0.455500 0.100474 -0.022000
v -0.444500 0.100474 -0.022000
v -0.444500 0.119526 -0.100000
v -0.439000 0.110000 -0.100000
v -0.455500 0.119526 -0.100000
v -0.461000 0.110000 -0.100000
v -0.455500 0.100474 -0.100000
v -0.444500 0.100474 -0.100000
v -0.439500 0.091813 -0.126000
v -0.460500 0.091813 -0.126000
v -0.471000 0.110000 -0.126000
v -0.460500 0.128187 -0.126000
v -0.439500 0.128187 -0.126000
v -0.429000 0.110000 -0.126000
v -0.259000 0.110000 -0.022000
v -0.264500 0.119526 -0.022000
v -0.275500 0.119526 -0.022000
v -0.281000 0.110000 -0.022000
v -0.275500 0.100474 -0.022000
v -0.264500 0.100474 -0.022000
v -0.264500 0.119526 -0.100000
v -0.259000 0.110000 -0.100000
v -0.275500 0.119526 -0.100000
v -0.281000 0.110000 -0.100000
v -0.275500 0.100474 -0.100000
v -0.264500 0.100474 -0.100000
v -0.259500 0.091813 -0.126000
v -0.280500 0.091813 -0.126000
v -0.291000 0.110000 -0.126000
v -0.280500 0.128187 -0.126000
v -0.259500 0.128187 -0.126000
v -0.249000 0.110000 -0.126000
v -0.079000 0.110000 -0.022000
v -0.084500 0.119526 -0.022000
v -0.095500 0.119526 -0.022000
v -0.101000 0.110000 -0.022000
v -0.095500 0.100474 -0.022000
v -0.084500 0.100474 -0.022000
v -0.084500 0.119526 -0.100000
v -0.079000 0.110000 -0.100000
v -0.095500 0.119526 -0.100000
v -0.101000 0.110000 -0.100000
v -0.095500 0.100474 -0.100000
v -0.084500 0.100474 -0.100000
v -0.079500 0.091813 -0.126000
v -0.100500 0.091813 -0.126000
v -0.111000 0.110000 -0.126000
v -0.100500 0.128187 -0.126000
v -0.079500 0.128187 -0.126000
v -0.069000 0.110000 -0.126000
v 0.101000 0.110000 -0.022000
v 0.095500 0.119526 -0.022000
v 0.084500 0.119526 -0.022000
v 0.079000 0.110000 -0.022000
v 0.084500 0.100474 -0.022000
v 0.095500 0.100474 -0.022000
v 0.095500 0.119526 -0.100000
v 0.101000 0.110000 -0.100000
v 0.084500 0.119526 -0.100000
v 0.079000 0.110000 -0.100000
v 0.084500 0.100474 -0.100000
v 0.095500 0.100474 -0.100000
v 0.100500 0.091813 -0.126000
v 0.079500 0.091813 -0.126000
v 0.069000 0.110000 -0.126000
v 0.079500 0.128187 -0.126000
v 0.100500 0.128187 -0.126000
v 0.111000 0.110000 -0.126000
v 0.281000 0.110000 -0.022000
v 0.275500 0.119526 -0.022000
v 0.264500 0.119526 -0.022000
v 0.259000 0.110000 -0.022000
v 0.264500 0.100474 -0.022000
v 0.275500 0.100474 -0.022000
v 0.275500 0.119526 -0.100000
v 0.281000 0.110000 -0.100000
v 0.264500 0.119526 -0.100000
v 0.259000 0.110000 -0.100000
v 0.264500 0.100474 -0.100000
v 0.275500 0.100474 -0.100000
v 0.280500 0.091813 -0.126000
v 0.259500 0.091813 -0.126000
v 0.249000 0.110000 -0.126000
v 0.259500 0.128187 -0.126000
v 0.280500 0.128187 -0.126000
v 0.291000 0.110000 -0.126000
v 0.461000 0.110000 -0.022000
v 0.455500 0.119526 -0.022000
v 0.444500 0.119526 -0.022000
v 0.439000 0.110000 -0.022000
v 0.444500 0.100474 -0.022000
v 0.455500 0.100474 -0.022000
v 0.455500 0.119526 -0.100000
v 0.461000 0.110000 -0.100000
v 0.444500 0.119526 -0.100000
v 0.439000 0.110000 -0.100000
v 0.444500 0.100474 -0.100000
v 0.455500 0.100474 -0.100000
v 0.460500 0.091813 -0.126000
v 0.439500 0.091813 -0.126000
v 0.429000 0.110000 -0.126000
v 0.439500 0.128187 -0.126000
v 0.460500 0.128187 -0.126000
v 0.471000 0.110000 -0.126000
v -0.185000 0.090000 -0.048000
v -0.209896 0.150104 -0.048000
v -0.209896 0.150104 -0.056000
v -0.185000 0.090000 -0.056000
v -0.270000 0.175000 -0.048000
v -0.270000 0.175000 -0.056000
v -0.330104 0.150104 -0.048000
v -0.330104 0.150104 -0.056000
v -0.355000 0.090000 -0.048000
v -0.355000 0.090000 -0.056000
v -0.330104 0.029896 -0.048000
v -0.330104 0.029896 -0.056000
v -0.270000 0.005000 -0.048000
v -0.270000 0.005000 -0.056000
v -0.209896 0.029896 -0.048000
v -0.209896 0.029896 -0.056000
v -0.234645 0.054645 -0.048000
v -0.270000 0.040000 -0.048000
v -0.270000 0.040000 -0.056000
v -0.234645 0.054645 -0.056000
v -0.305355 0.054645 -0.048000
v -0.305355 0.054645 -0.056000
v -0.320000 0.090000 -0.048000
v -0.320000 0.090000 -0.056000
v -0.305355 0.125355 -0.048000
v -0.305355 0.125355 -0.056000
v -0.270000 0.140000 -0.048000
v -0.270000 0.140000 -0.056000
v -0.234645 0.125355 -0.048000
v -0.234645 0.125355 -0.056000
v -0.220000 0.090000 -0.048000
v -0.220000 0.090000 -0.056000
v -0.238887 0.058887 -0.150000
v -0.270000 0.046000 -0.150000
v -0.301113 0.058887 -0.150000
v -0.314000 0.090000 -0.150000
v -0.301113 0.121113 -0.150000
v -0.270000 0.134000 -0.150000
v -0.238887 0.121113 -0.150000
v -0.226000 0.090000 -0.150000
v 0.180000 0.012000 -0.055000
v 0.360000 0.000000 -0.055000
v 0.344000 0.090000 -0.055000
v 0.196000 0.090000 -0.055000
v 0.196000 0.090000 -0.067000
v 0.344000 0.090000 -0.067000
v 0.360000 0.000000 -0.067000
v 0.180000 0.012000 -0.067000
v 0.244000 0.080000 -0.055000
v 0.244000 0.080000 -0.067000
v 0.256000 0.080000 -0.067000
v 0.256000 0.080000 -0.055000
v 0.244000 0.140000 -0.055000
v 0.256000 0.140000 -0.055000
v 0.256000 0.140000 -0.067000
v 0.244000 0.140000 -0.067000
v 0.284000 0.080000 -0.055000
v 0.284000 0.080000 -0.067000
v 0.296000 0.080000 -0.067000
v 0.296000 0.080000 -0.055000
v 0.284000 0.140000 -0.055000
v 0.296000 0.140000 -0.055000
v 0.296000 0.140000 -0.067000
v 0.284000 0.140000 -0.067000
v 0.244000 0.128000 -0.055000
v 0.244000 0.128000 -0.067000
v 0.296000 0.128000 -0.067000
v 0.296000 0.128000 -0.055000
vn -0.0000 -1.0000 -0.0000
vn -0.0000 1.0000 -0.0000
vn -0.0000 -0.0000 1.0000
vn -0.0000 -0.0000 -1.0000
vn -1.0000 -0.0000 -0.0000
vn 1.0000 -0.0000 -0.0000
vn -0.8660 -0.5000 -0.0000
vn 0.8660 -0.5000 -0.0000
vn 0.8660 0.5000 -0.0000
vn -0.8660 0.5000 -0.0000
vn -0.8216 -0.4744 -0.3160
vn -0.0000 -0.9488 -0.3160
vn 0.8216 -0.4744 -0.3160
vn 0.8216 0.4744 -0.3160
vn -0.0000 0.9488 -0.3160
vn -0.8216 0.4744 -0.3160
vn -0.9239 -0.3827 -0.0000
vn -0.3827 -0.9239 -0.0000
vn 0.3827 -0.9239 -0.0000
vn 0.9239 -0.3827 -0.0000
vn 0.9239 0.3827 -0.0000
vn 0.3827 0.9239 -0.0000
vn -0.3827 0.9239 -0.0000
vn -0.9239 0.3827 -0.0000
vn -0.9223 -0.3820 0.0589
vn -0.3820 -0.9223 0.0589
vn 0.3820 -0.9223 0.0589
vn 0.9223 -0.3820 0.0589
vn 0.9223 0.3820 0.0589
vn 0.3820 0.9223 0.0589
vn -0.3820 0.9223 0.0589
vn -0.9223 0.3820 0.0589
vn -0.0665 -0.9978 -0.0000
vn 0.9846 0.1750 -0.0000
vn -0.9796 0.2009 -0.0000
vt 0.937500 0.812500
vt 0.312500 0.687500
vt 0.312500 0.562500
vt 0.437500 0.562500
s 0
usemtl FN_Atlas
f 1/1/1 2/1/1 3/1/1 4/1/1
f 5/1/2 6/1/2 7/1/2 8/1/2
f 1/1/3 4/1/3 6/1/3 5/1/3
f 3/1/4 2/1/4 8/1/4 7/1/4
f 1/1/5 5/1/5 8/1/5 2/1/5
f 4/1/6 3/1/6 7/1/6 6/1/6
f 9/2/3 10/2/3 11/2/3 12/2/3 13/2/3 14/2/3
f 9/2/7 10/2/7 15/2/7 16/2/7
f 10/2/1 11/2/1 17/2/1 15/2/1
f 11/2/8 12/2/8 18/2/8 17/2/8
f 12/2/9 13/2/9 19/2/9 18/2/9
f 13/2/2 14/2/2 20/2/2 19/2/2
f 14/2/10 9/2/10 16/2/10 20/2/10
f 21/2/4 22/2/4 23/2/4 24/2/4 25/2/4 26/2/4
f 16/2/11 15/2/11 25/2/11 26/2/11
f 15/2/12 17/2/12 24/2/12 25/2/12
f 17/2/13 18/2/13 23/2/13 24/2/13
f 18/2/14 19/2/14 22/2/14 23/2/14
f 19/2/15 20/2/15 21/2/15 22/2/15
f 20/2/16 16/2/16 26/2/16 21/2/16
f 27/2/3 28/2/3 29/2/3 30/2/3 31/2/3 32/2/3
f 27/2/7 28/2/7 33/2/7 34/2/7
f 28/2/1 29/2/1 35/2/1 33/2/1
f 29/2/8 30/2/8 36/2/8 35/2/8
f 30/2/9 31/2/9 37/2/9 36/2/9
f 31/2/2 32/2/2 38/2/2 37/2/2
f 32/2/10 27/2/10 34/2/10 38/2/10
f 39/2/4 40/2/4 41/2/4 42/2/4 43/2/4 44/2/4
f 34/2/11 33/2/11 43/2/11 44/2/11
f 33/2/12 35/2/12 42/2/12 43/2/12
f 35/2/13 36/2/13 41/2/13 42/2/13
f 36/2/14 37/2/14 40/2/14 41/2/14
f 37/2/15 38/2/15 39/2/15 40/2/15
f 38/2/16 34/2/16 44/2/16 39/2/16
f 45/2/3 46/2/3 47/2/3 48/2/3 49/2/3 50/2/3
f 45/2/7 46/2/7 51/2/7 52/2/7
f 46/2/1 47/2/1 53/2/1 51/2/1
f 47/2/8 48/2/8 54/2/8 53/2/8
f 48/2/9 49/2/9 55/2/9 54/2/9
f 49/2/2 50/2/2 56/2/2 55/2/2
f 50/2/10 45/2/10 52/2/10 56/2/10
f 57/2/4 58/2/4 59/2/4 60/2/4 61/2/4 62/2/4
f 52/2/11 51/2/11 61/2/11 62/2/11
f 51/2/12 53/2/12 60/2/12 61/2/12
f 53/2/13 54/2/13 59/2/13 60/2/13
f 54/2/14 55/2/14 58/2/14 59/2/14
f 55/2/15 56/2/15 57/2/15 58/2/15
f 56/2/16 52/2/16 62/2/16 57/2/16
f 63/2/3 64/2/3 65/2/3 66/2/3 67/2/3 68/2/3
f 63/2/7 64/2/7 69/2/7 70/2/7
f 64/2/1 65/2/1 71/2/1 69/2/1
f 65/2/8 66/2/8 72/2/8 71/2/8
f 66/2/9 67/2/9 73/2/9 72/2/9
f 67/2/2 68/2/2 74/2/2 73/2/2
f 68/2/10 63/2/10 70/2/10 74/2/10
f 75/2/4 76/2/4 77/2/4 78/2/4 79/2/4 80/2/4
f 70/2/11 69/2/11 79/2/11 80/2/11
f 69/2/12 71/2/12 78/2/12 79/2/12
f 71/2/13 72/2/13 77/2/13 78/2/13
f 72/2/14 73/2/14 76/2/14 77/2/14
f 73/2/15 74/2/15 75/2/15 76/2/15
f 74/2/16 70/2/16 80/2/16 75/2/16
f 81/2/3 82/2/3 83/2/3 84/2/3 85/2/3 86/2/3
f 81/2/7 82/2/7 87/2/7 88/2/7
f 82/2/1 83/2/1 89/2/1 87/2/1
f 83/2/8 84/2/8 90/2/8 89/2/8
f 84/2/9 85/2/9 91/2/9 90/2/9
f 85/2/2 86/2/2 92/2/2 91/2/2
f 86/2/10 81/2/10 88/2/10 92/2/10
f 93/2/4 94/2/4 95/2/4 96/2/4 97/2/4 98/2/4
f 88/2/11 87/2/11 97/2/11 98/2/11
f 87/2/12 89/2/12 96/2/12 97/2/12
f 89/2/13 90/2/13 95/2/13 96/2/13
f 90/2/14 91/2/14 94/2/14 95/2/14
f 91/2/15 92/2/15 93/2/15 94/2/15
f 92/2/16 88/2/16 98/2/16 93/2/16
f 99/2/3 100/2/3 101/2/3 102/2/3 103/2/3 104/2/3
f 99/2/7 100/2/7 105/2/7 106/2/7
f 100/2/1 101/2/1 107/2/1 105/2/1
f 101/2/8 102/2/8 108/2/8 107/2/8
f 102/2/9 103/2/9 109/2/9 108/2/9
f 103/2/2 104/2/2 110/2/2 109/2/2
f 104/2/10 99/2/10 106/2/10 110/2/10
f 111/2/4 112/2/4 113/2/4 114/2/4 115/2/4 116/2/4
f 106/2/11 105/2/11 115/2/11 116/2/11
f 105/2/12 107/2/12 114/2/12 115/2/12
f 107/2/13 108/2/13 113/2/13 114/2/13
f 108/2/14 109/2/14 112/2/14 113/2/14
f 109/2/15 110/2/15 111/2/15 112/2/15
f 110/2/16 106/2/16 116/2/16 111/2/16
f 117/3/17 118/3/17 119/3/17 120/3/17
f 118/3/18 121/3/18 122/3/18 119/3/18
f 121/3/19 123/3/19 124/3/19 122/3/19
f 123/3/20 125/3/20 126/3/20 124/3/20
f 125/3/21 127/3/21 128/3/21 126/3/21
f 127/3/22 129/3/22 130/3/22 128/3/22
f 129/3/23 131/3/23 132/3/23 130/3/23
f 131/3/24 117/3/24 120/3/24 132/3/24
f 133/3/19 134/3/19 135/3/19 136/3/19
f 134/3/18 137/3/18 138/3/18 135/3/18
f 137/3/17 139/3/17 140/3/17 138/3/17
f 139/3/24 141/3/24 142/3/24 140/3/24
f 141/3/23 143/3/23 144/3/23 142/3/23
f 143/3/22 145/3/22 146/3/22 144/3/22
f 145/3/21 147/3/21 148/3/21 146/3/21
f 147/3/20 133/3/20 136/3/20 148/3/20
f 117/3/3 118/3/3 145/3/3 147/3/3
f 148/3/4 146/3/4 119/3/4 120/3/4
f 118/3/3 121/3/3 143/3/3 145/3/3
f 146/3/4 144/3/4 122/3/4 119/3/4
f 121/3/3 123/3/3 141/3/3 143/3/3
f 144/3/4 142/3/4 124/3/4 122/3/4
f 123/3/3 125/3/3 139/3/3 141/3/3
f 142/3/4 140/3/4 126/3/4 124/3/4
f 125/3/3 127/3/3 137/3/3 139/3/3
f 140/3/4 138/3/4 128/3/4 126/3/4
f 127/3/3 129/3/3 134/3/3 137/3/3
f 138/3/4 135/3/4 130/3/4 128/3/4
f 129/3/3 131/3/3 133/3/3 134/3/3
f 135/3/4 136/3/4 132/3/4 130/3/4
f 131/3/3 117/3/3 147/3/3 133/3/3
f 136/3/4 148/3/4 120/3/4 132/3/4
f 149/3/4 150/3/4 151/3/4 152/3/4 153/3/4 154/3/4 155/3/4 156/3/4
f 148/3/25 146/3/25 155/3/25 156/3/25
f 146/3/26 144/3/26 154/3/26 155/3/26
f 144/3/27 142/3/27 153/3/27 154/3/27
f 142/3/28 140/3/28 152/3/28 153/3/28
f 140/3/29 138/3/29 151/3/29 152/3/29
f 138/3/30 135/3/30 150/3/30 151/3/30
f 135/3/31 136/3/31 149/3/31 150/3/31
f 136/3/32 148/3/32 156/3/32 149/3/32
f 157/4/3 158/4/3 159/4/3 160/4/3
f 161/4/4 162/4/4 163/4/4 164/4/4
f 164/4/33 163/4/33 158/4/33 157/4/33
f 163/4/34 162/4/34 159/4/34 158/4/34
f 162/4/2 161/4/2 160/4/2 159/4/2
f 161/4/35 164/4/35 157/4/35 160/4/35
f 165/4/1 166/4/1 167/4/1 168/4/1
f 169/4/2 170/4/2 171/4/2 172/4/2
f 165/4/3 168/4/3 170/4/3 169/4/3
f 167/4/4 166/4/4 172/4/4 171/4/4
f 165/4/5 169/4/5 172/4/5 166/4/5
f 168/4/6 167/4/6 171/4/6 170/4/6
f 173/4/1 174/4/1 175/4/1 176/4/1
f 177/4/2 178/4/2 179/4/2 180/4/2
f 173/4/3 176/4/3 178/4/3 177/4/3
f 175/4/4 174/4/4 180/4/4 179/4/4
f 173/4/5 177/4/5 180/4/5 174/4/5
f 176/4/6 175/4/6 179/4/6 178/4/6
f 181/4/1 182/4/1 183/4/1 184/4/1
f 169/4/2 178/4/2 179/4/2 172/4/2
f 181/4/3 184/4/3 178/4/3 169/4/3
f 183/4/4 182/4/4 172/4/4 179/4/4
f 181/4/5 169/4/5 172/4/5 182/4/5
f 184/4/6 183/4/6 179/4/6 178/4/6
