# Blender 5.2.0 LTS
# www.blender.org
mtllib FN_Rail_Towel.mtl
o FN_Rail_Towel
v -0.208686 0.000000 -0.054686
v -0.220000 0.000000 -0.050000
v -0.231314 0.000000 -0.054686
v -0.236000 0.000000 -0.066000
v -0.231314 0.000000 -0.077314
v -0.220000 0.000000 -0.082000
v -0.208686 0.000000 -0.077314
v -0.204000 0.000000 -0.066000
v -0.204000 0.900000 -0.066000
v -0.208686 0.900000 -0.077314
v -0.220000 0.900000 -0.082000
v -0.231314 0.900000 -0.077314
v -0.236000 0.900000 -0.066000
v -0.231314 0.900000 -0.054686
v -0.220000 0.900000 -0.050000
v -0.208686 0.900000 -0.054686
v 0.231314 0.000000 -0.054686
v 0.220000 0.000000 -0.050000
v 0.208686 0.000000 -0.054686
v 0.204000 0.000000 -0.066000
v 0.208686 0.000000 -0.077314
v 0.220000 0.000000 -0.082000
v 0.231314 0.000000 -0.077314
v 0.236000 0.000000 -0.066000
v 0.236000 0.900000 -0.066000
v 0.231314 0.900000 -0.077314
v 0.220000 0.900000 -0.082000
v 0.208686 0.900000 -0.077314
v 0.204000 0.900000 -0.066000
v 0.208686 0.900000 -0.054686
v 0.220000 0.900000 -0.050000
v 0.231314 0.900000 -0.054686
v -0.230000 0.089608 -0.072000
v -0.230000 0.089608 -0.060000
v -0.230000 0.100000 -0.054000
v -0.230000 0.110392 -0.060000
v -0.230000 0.110392 -0.072000
v -0.230000 0.100000 -0.078000
v 0.230000 0.100000 -0.078000
v 0.230000 0.110392 -0.072000
v 0.230000 0.110392 -0.060000
v 0.230000 0.100000 -0.054000
v 0.230000 0.089608 -0.060000
v 0.230000 0.089608 -0.072000
v -0.230000 0.189608 -0.072000
v -0.230000 0.189608 -0.060000
v -0.230000 0.200000 -0.054000
v -0.230000 0.210392 -0.060000
v -0.230000 0.210392 -0.072000
v -0.230000 0.200000 -0.078000
v 0.230000 0.200000 -0.078000
v 0.230000 0.210392 -0.072000
v 0.230000 0.210392 -0.060000
v 0.230000 0.200000 -0.054000
v 0.230000 0.189608 -0.060000
v 0.230000 0.189608 -0.072000
v -0.230000 0.289608 -0.072000
v -0.230000 0.289608 -0.060000
v -0.230000 0.300000 -0.054000
v -0.230000 0.310392 -0.060000
v -0.230000 0.310392 -0.072000
v -0.230000 0.300000 -0.078000
v 0.230000 0.300000 -0.078000
v 0.230000 0.310392 -0.072000
v 0.230000 0.310392 -0.060000
v 0.230000 0.300000 -0.054000
v 0.230000 0.289608 -0.060000
v 0.230000 0.289608 -0.072000
v -0.230000 0.389608 -0.072000
v -0.230000 0.389608 -0.060000
v -0.230000 0.400000 -0.054000
v -0.230000 0.410392 -0.060000
v -0.230000 0.410392 -0.072000
v -0.230000 0.400000 -0.078000
v 0.230000 0.400000 -0.078000
v 0.230000 0.410392 -0.072000
v 0.230000 0.410392 -0.060000
v 0.230000 0.400000 -0.054000
v 0.230000 0.389608 -0.060000
v 0.230000 0.389608 -0.072000
v -0.230000 0.489608 -0.072000
v -0.230000 0.489608 -0.060000
v -0.230000 0.500000 -0.054000
v -0.230000 0.510392 -0.060000
v -0.230000 0.510392 -0.072000
v -0.230000 0.500000 -0.078000
v 0.230000 0.500000 -0.078000
v 0.230000 0.510392 -0.072000
v 0.230000 0.510392 -0.060000
v 0.230000 0.500000 -0.054000
v 0.230000 0.489608 -0.060000
v 0.230000 0.489608 -0.072000
v -0.230000 0.589608 -0.072000
v -0.230000 0.589608 -0.060000
v -0.230000 0.600000 -0.054000
v -0.230000 0.610392 -0.060000
v -0.230000 0.610392 -0.072000
v -0.230000 0.600000 -0.078000
v 0.230000 0.600000 -0.078000
v 0.230000 0.610392 -0.072000
v 0.230000 0.610392 -0.060000
v 0.230000 0.600000 -0.054000
v 0.230000 0.589608 -0.060000
v 0.230000 0.589608 -0.072000
v -0.230000 0.689608 -0.072000
v -0.230000 0.689608 -0.060000
v -0.230000 0.700000 -0.054000
v -0.230000 0.710392 -0.060000
v -0.230000 0.710392 -0.072000
v -0.230000 0.700000 -0.078000
v 0.230000 0.700000 -0.078000
v 0.230000 0.710392 -0.072000
v 0.230000 0.710392 -0.060000
v 0.230000 0.700000 -0.054000
v 0.230000 0.689608 -0.060000
v 0.230000 0.689608 -0.072000
v -0.230000 0.789608 -0.072000
v -0.230000 0.789608 -0.060000
v -0.230000 0.800000 -0.054000
v -0.230000 0.810392 -0.060000
v -0.230000 0.810392 -0.072000
v -0.230000 0.800000 -0.078000
v 0.230000 0.800000 -0.078000
v 0.230000 0.810392 -0.072000
v 0.230000 0.810392 -0.060000
v 0.230000 0.800000 -0.054000
v 0.230000 0.789608 -0.060000
v 0.230000 0.789608 -0.072000
v -0.238000 0.160000 0.000000
v -0.238000 0.160000 -0.060000
v -0.202000 0.160000 -0.060000
v -0.202000 0.160000 0.000000
v -0.238000 0.200000 0.000000
v -0.202000 0.200000 0.000000
v -0.202000 0.200000 -0.060000
v -0.238000 0.200000 -0.060000
v -0.238000 0.700000 0.000000
v -0.238000 0.700000 -0.060000
v -0.202000 0.700000 -0.060000
v -0.202000 0.700000 0.000000
v -0.238000 0.740000 0.000000
v -0.202000 0.740000 0.000000
v -0.202000 0.740000 -0.060000
v -0.238000 0.740000 -0.060000
v 0.202000 0.160000 0.000000
v 0.202000 0.160000 -0.060000
v 0.238000 0.160000 -0.060000
v 0.238000 0.160000 0.000000
v 0.202000 0.200000 0.000000
v 0.238000 0.200000 0.000000
v 0.238000 0.200000 -0.060000
v 0.202000 0.200000 -0.060000
v 0.202000 0.700000 0.000000
v 0.202000 0.700000 -0.060000
v 0.238000 0.700000 -0.060000
v 0.238000 0.700000 0.000000
v 0.202000 0.740000 0.000000
v 0.238000 0.740000 0.000000
v 0.238000 0.740000 -0.060000
v 0.202000 0.740000 -0.060000
v -0.180000 0.240000 -0.036000
v -0.180000 0.616000 -0.036000
v -0.180000 0.616000 -0.096000
v -0.180000 0.240000 -0.096000
v -0.180000 0.240000 -0.080000
v -0.180000 0.594000 -0.080000
v -0.180000 0.594000 -0.052000
v -0.180000 0.240000 -0.052000
v 0.140000 0.240000 -0.052000
v 0.140000 0.594000 -0.052000
v 0.140000 0.594000 -0.080000
v 0.140000 0.240000 -0.080000
v 0.140000 0.240000 -0.096000
v 0.140000 0.616000 -0.096000
v 0.140000 0.616000 -0.036000
v 0.140000 0.240000 -0.036000
vn -0.0000 -1.0000 -0.0000
vn -0.0000 1.0000 -0.0000
vn 0.9239 -0.0000 -0.3827
vn 0.3827 -0.0000 -0.9239
vn -0.3827 -0.0000 -0.9239
vn -0.9239 -0.0000 -0.3827
vn -0.9239 -0.0000 0.3827
vn -0.3827 -0.0000 0.9239
vn 0.3827 -0.0000 0.9239
vn 0.9239 -0.0000 0.3827
vn -1.0000 -0.0000 -0.0000
vn 1.0000 -0.0000 -0.0000
vn -0.0000 0.5000 -0.8660
vn -0.0000 0.5000 0.8660
vn -0.0000 -0.5000 0.8660
vn -0.0000 -0.5000 -0.8660
vn -0.0000 -0.0000 1.0000
vn -0.0000 -0.0000 -1.0000
vt 0.187500 0.312500
vt 0.687500 0.562500
s 0
usemtl FN_Atlas
f 1/1/1 2/1/1 3/1/1 4/1/1 5/1/1 6/1/1 7/1/1 8/1/1
f 9/1/2 10/1/2 11/1/2 12/1/2 13/1/2 14/1/2 15/1/2 16/1/2
f 8/1/3 7/1/3 10/1/3 9/1/3
f 7/1/4 6/1/4 11/1/4 10/1/4
f 6/1/5 5/1/5 12/1/5 11/1/5
f 5/1/6 4/1/6 13/1/6 12/1/6
f 4/1/7 3/1/7 14/1/7 13/1/7
f 3/1/8 2/1/8 15/1/8 14/1/8
f 2/1/9 1/1/9 16/1/9 15/1/9
f 1/1/10 8/1/10 9/1/10 16/1/10
f 17/1/1 18/1/1 19/1/1 20/1/1 21/1/1 22/1/1 23/1/1 24/1/1
f 25/1/2 26/1/2 27/1/2 28/1/2 29/1/2 30/1/2 31/1/2 32/1/2
f 24/1/3 23/1/3 26/1/3 25/1/3
f 23/1/4 22/1/4 27/1/4 26/1/4
f 22/1/5 21/1/5 28/1/5 27/1/5
f 21/1/6 20/1/6 29/1/6 28/1/6
f 20/1/7 19/1/7 30/1/7 29/1/7
f 19/1/8 18/1/8 31/1/8 30/1/8
f 18/1/9 17/1/9 32/1/9 31/1/9
f 17/1/10 24/1/10 25/1/10 32/1/10
f 33/1/11 34/1/11 35/1/11 36/1/11 37/1/11 38/1/11
f 39/1/12 40/1/12 41/1/12 42/1/12 43/1/12 44/1/12
f 38/1/13 37/1/13 40/1/13 39/1/13
f 37/1/2 36/1/2 41/1/2 40/1/2
f 36/1/14 35/1/14 42/1/14 41/1/14
f 35/1/15 34/1/15 43/1/15 42/1/15
f 34/1/1 33/1/1 44/1/1 43/1/1
f 33/1/16 38/1/16 39/1/16 44/1/16
f 45/1/11 46/1/11 47/1/11 48/1/11 49/1/11 50/1/11
f 51/1/12 52/1/12 53/1/12 54/1/12 55/1/12 56/1/12
f 50/1/13 49/1/13 52/1/13 51/1/13
f 49/1/2 48/1/2 53/1/2 52/1/2
f 48/1/14 47/1/14 54/1/14 53/1/14
f 47/1/15 46/1/15 55/1/15 54/1/15
f 46/1/1 45/1/1 56/1/1 55/1/1
f 45/1/16 50/1/16 51/1/16 56/1/16
f 57/1/11 58/1/11 59/1/11 60/1/11 61/1/11 62/1/11
f 63/1/12 64/1/12 65/1/12 66/1/12 67/1/12 68/1/12
f 62/1/13 61/1/13 64/1/13 63/1/13
f 61/1/2 60/1/2 65/1/2 64/1/2
f 60/1/14 59/1/14 66/1/14 65/1/14
f 59/1/15 58/1/15 67/1/15 66/1/15
f 58/1/1 57/1/1 68/1/1 67/1/1
f 57/1/16 62/1/16 63/1/16 68/1/16
f 69/1/11 70/1/11 71/1/11 72/1/11 73/1/11 74/1/11
f 75/1/12 76/1/12 77/1/12 78/1/12 79/1/12 80/1/12
f 74/1/13 73/1/13 76/1/13 75/1/13
f 73/1/2 72/1/2 77/1/2 76/1/2
f 72/1/14 71/1/14 78/1/14 77/1/14
f 71/1/15 70/1/15 79/1/15 78/1/15
f 70/1/1 69/1/1 80/1/1 79/1/1
f 69/1/16 74/1/16 75/1/16 80/1/16
f 81/1/11 82/1/11 83/1/11 84/1/11 85/1/11 86/1/11
f 87/1/12 88/1/12 89/1/12 90/1/12 91/1/12 92/1/12
f 86/1/13 85/1/13 88/1/13 87/1/13
f 85/1/2 84/1/2 89/1/2 88/1/2
f 84/1/14 83/1/14 90/1/14 89/1/14
f 83/1/15 82/1/15 91/1/15 90/1/15
f 82/1/1 81/1/1 92/1/1 91/1/1
f 81/1/16 86/1/16 87/1/16 92/1/16
f 93/1/11 94/1/11 95/1/11 96/1/11 97/1/11 98/1/11
f 99/1/12 100/1/12 101/1/12 102/1/12 103/1/12 104/1/12
f 98/1/13 97/1/13 100/1/13 99/1/13
f 97/1/2 96/1/2 101/1/2 100/1/2
f 96/1/14 95/1/14 102/1/14 101/1/14
f 95/1/15 94/1/15 103/1/15 102/1/15
f 94/1/1 93/1/1 104/1/1 103/1/1
f 93/1/16 98/1/16 99/1/16 104/1/16
f 105/1/11 106/1/11 107/1/11 108/1/11 109/1/11 110/1/11
f 111/1/12 112/1/12 113/1/12 114/1/12 115/1/12 116/1/12
f 110/1/13 109/1/13 112/1/13 111/1/13
f 109/1/2 108/1/2 113/1/2 112/1/2
f 108/1/14 107/1/14 114/1/14 113/1/14
f 107/1/15 106/1/15 115/1/15 114/1/15
f 106/1/1 105/1/1 116/1/1 115/1/1
f 105/1/16 110/1/16 111/1/16 116/1/16
f 117/1/11 118/1/11 119/1/11 120/1/11 121/1/11 122/1/11
f 123/1/12 124/1/12 125/1/12 126/1/12 127/1/12 128/1/12
f 122/1/13 121/1/13 124/1/13 123/1/13
f 121/1/2 120/1/2 125/1/2 124/1/2
f 120/1/14 119/1/14 126/1/14 125/1/14
f 119/1/15 118/1/15 127/1/15 126/1/15
f 118/1/1 117/1/1 128/1/1 127/1/1
f 117/1/16 122/1/16 123/1/16 128/1/16
f 129/1/1 130/1/1 131/1/1 132/1/1
f 133/1/2 134/1/2 135/1/2 136/1/2
f 129/1/17 132/1/17 134/1/17 133/1/17
f 131/1/18 130/1/18 136/1/18 135/1/18
f 129/1/11 133/1/11 136/1/11 130/1/11
f 132/1/12 131/1/12 135/1/12 134/1/12
f 137/1/1 138/1/1 139/1/1 140/1/1
f 141/1/2 142/1/2 143/1/2 144/1/2
f 137/1/17 140/1/17 142/1/17 141/1/17
f 139/1/18 138/1/18 144/1/18 143/1/18
f 137/1/11 141/1/11 144/1/11 138/1/11
f 140/1/12 139/1/12 143/1/12 142/1/12
f 145/1/1 146/1/1 147/1/1 148/1/1
f 149/1/2 150/1/2 151/1/2 152/1/2
f 145/1/17 148/1/17 150/1/17 149/1/17
f 147/1/18 146/1/18 152/1/18 151/1/18
f 145/1/11 149/1/11 152/1/11 146/1/11
f 148/1/12 147/1/12 151/1/12 150/1/12
f 153/1/1 154/1/1 155/1/1 156/1/1
f 157/1/2 158/1/2 159/1/2 160/1/2
f 153/1/17 156/1/17 158/1/17 157/1/17
f 155/1/18 154/1/18 160/1/18 159/1/18
f 153/1/11 157/1/11 160/1/11 154/1/11
f 156/1/12 155/1/12 159/1/12 158/1/12
f 161/2/11 162/2/11 163/2/11 164/2/11 165/2/11 166/2/11 167/2/11 168/2/11
f 169/2/12 170/2/12 171/2/12 172/2/12 173/2/12 174/2/12 175/2/12 176/2/12
f 176/2/17 175/2/17 162/2/17 161/2/17
f 175/2/2 174/2/2 163/2/2 162/2/2
f 174/2/18 173/2/18 164/2/18 163/2/18
f 173/2/1 172/2/1 165/2/1 164/2/1
f 165/2/18 166/2/18 171/2/18 172/2/18
f 166/2/2 167/2/2 170/2/2 171/2/2
f 167/2/17 168/2/17 169/2/17 170/2/17
f 169/2/1 176/2/1 161/2/1 168/2/1
