# Blender 5.2.0 LTS
# www.blender.org
mtllib FN_Reel_Hose.mtl
o FN_Reel_Hose
v -0.221000 0.059422 -0.160012
v -0.221000 0.785422 -0.130012
v -0.221000 0.786578 -0.157988
v -0.221000 0.060578 -0.187988
v -0.193000 0.060578 -0.187988
v -0.193000 0.786578 -0.157988
v -0.193000 0.785422 -0.130012
v -0.193000 0.059422 -0.160012
v -0.221000 0.037663 0.116501
v -0.221000 0.407663 -0.153499
v -0.221000 0.392337 -0.174501
v -0.221000 0.022337 0.095499
v -0.193000 0.022337 0.095499
v -0.193000 0.392337 -0.174501
v -0.193000 0.407663 -0.153499
v -0.193000 0.037663 0.116501
v -0.227000 0.000000 0.132000
v -0.227000 0.000000 0.080000
v -0.187000 0.000000 0.080000
v -0.187000 0.000000 0.132000
v -0.227000 0.026000 0.132000
v -0.187000 0.026000 0.132000
v -0.187000 0.026000 0.080000
v -0.227000 0.026000 0.080000
v -0.259000 0.026360 -0.237640
v -0.259000 0.000000 -0.174000
v -0.259000 0.026360 -0.110360
v -0.259000 0.090000 -0.084000
v -0.259000 0.153640 -0.110360
v -0.259000 0.180000 -0.174000
v -0.259000 0.153640 -0.237640
v -0.259000 0.090000 -0.264000
v -0.229000 0.090000 -0.264000
v -0.229000 0.153640 -0.237640
v -0.229000 0.180000 -0.174000
v -0.229000 0.153640 -0.110360
v -0.229000 0.090000 -0.084000
v -0.229000 0.026360 -0.110360
v -0.229000 0.000000 -0.174000
v -0.229000 0.026360 -0.237640
v -0.269000 0.065751 -0.188000
v -0.269000 0.065751 -0.160000
v -0.269000 0.090000 -0.146000
v -0.269000 0.114249 -0.160000
v -0.269000 0.114249 -0.188000
v -0.269000 0.090000 -0.202000
v -0.255000 0.090000 -0.202000
v -0.255000 0.114249 -0.188000
v -0.255000 0.114249 -0.160000
v -0.255000 0.090000 -0.146000
v -0.255000 0.065751 -0.160000
v -0.255000 0.065751 -0.188000
v -0.149000 0.261407 -0.298593
v -0.149000 0.204000 -0.160000
v -0.149000 0.261407 -0.021407
v -0.149000 0.400000 0.036000
v -0.149000 0.538593 -0.021407
v -0.149000 0.596000 -0.160000
v -0.149000 0.538593 -0.298593
v -0.149000 0.400000 -0.356000
v -0.133000 0.400000 -0.356000
v -0.133000 0.538593 -0.298593
v -0.133000 0.596000 -0.160000
v -0.133000 0.538593 -0.021407
v -0.133000 0.400000 0.036000
v -0.133000 0.261407 -0.021407
v -0.133000 0.204000 -0.160000
v -0.133000 0.261407 -0.298593
v 0.159000 0.059422 -0.160012
v 0.159000 0.785422 -0.130012
v 0.159000 0.786578 -0.157988
v 0.159000 0.060578 -0.187988
v 0.187000 0.060578 -0.187988
v 0.187000 0.786578 -0.157988
v 0.187000 0.785422 -0.130012
v 0.187000 0.059422 -0.160012
v 0.159000 0.037663 0.116501
v 0.159000 0.407663 -0.153499
v 0.159000 0.392337 -0.174501
v 0.159000 0.022337 0.095499
v 0.187000 0.022337 0.095499
v 0.187000 0.392337 -0.174501
v 0.187000 0.407663 -0.153499
v 0.187000 0.037663 0.116501
v 0.153000 0.000000 0.132000
v 0.153000 0.000000 0.080000
v 0.193000 0.000000 0.080000
v 0.193000 0.000000 0.132000
v 0.153000 0.026000 0.132000
v 0.193000 0.026000 0.132000
v 0.193000 0.026000 0.080000
v 0.153000 0.026000 0.080000
v 0.195000 0.026360 -0.237640
v 0.195000 0.000000 -0.174000
v 0.195000 0.026360 -0.110360
v 0.195000 0.090000 -0.084000
v 0.195000 0.153640 -0.110360
v 0.195000 0.180000 -0.174000
v 0.195000 0.153640 -0.237640
v 0.195000 0.090000 -0.264000
v 0.225000 0.090000 -0.264000
v 0.225000 0.153640 -0.237640
v 0.225000 0.180000 -0.174000
v 0.225000 0.153640 -0.110360
v 0.225000 0.090000 -0.084000
v 0.225000 0.026360 -0.110360
v 0.225000 0.000000 -0.174000
v 0.225000 0.026360 -0.237640
v 0.221000 0.065751 -0.188000
v 0.221000 0.065751 -0.160000
v 0.221000 0.090000 -0.146000
v 0.221000 0.114249 -0.160000
v 0.221000 0.114249 -0.188000
v 0.221000 0.090000 -0.202000
v 0.235000 0.090000 -0.202000
v 0.235000 0.114249 -0.188000
v 0.235000 0.114249 -0.160000
v 0.235000 0.090000 -0.146000
v 0.235000 0.065751 -0.160000
v 0.235000 0.065751 -0.188000
v 0.099000 0.261407 -0.298593
v 0.099000 0.204000 -0.160000
v 0.099000 0.261407 -0.021407
v 0.099000 0.400000 0.036000
v 0.099000 0.538593 -0.021407
v 0.099000 0.596000 -0.160000
v 0.099000 0.538593 -0.298593
v 0.099000 0.400000 -0.356000
v 0.115000 0.400000 -0.356000
v 0.115000 0.538593 -0.298593
v 0.115000 0.596000 -0.160000
v 0.115000 0.538593 -0.021407
v 0.115000 0.400000 0.036000
v 0.115000 0.261407 -0.021407
v 0.115000 0.204000 -0.160000
v 0.115000 0.261407 -0.298593
v -0.221000 0.773876 -0.151000
v -0.221000 0.773876 -0.137000
v -0.221000 0.786000 -0.130000
v -0.221000 0.798124 -0.137000
v -0.221000 0.798124 -0.151000
v -0.221000 0.786000 -0.158000
v 0.187000 0.786000 -0.158000
v 0.187000 0.798124 -0.151000
v 0.187000 0.798124 -0.137000
v 0.187000 0.786000 -0.130000
v 0.187000 0.773876 -0.137000
v 0.187000 0.773876 -0.151000
v -0.257000 0.081340 -0.179000
v -0.257000 0.081340 -0.169000
v -0.257000 0.090000 -0.164000
v -0.257000 0.098660 -0.169000
v -0.257000 0.098660 -0.179000
v -0.257000 0.090000 -0.184000
v 0.223000 0.090000 -0.184000
v 0.223000 0.098660 -0.179000
v 0.223000 0.098660 -0.169000
v 0.223000 0.090000 -0.164000
v 0.223000 0.081340 -0.169000
v 0.223000 0.081340 -0.179000
v -0.227000 0.390474 -0.165500
v -0.227000 0.390474 -0.154500
v -0.227000 0.400000 -0.149000
v -0.227000 0.409526 -0.154500
v -0.227000 0.409526 -0.165500
v -0.227000 0.400000 -0.171000
v 0.217000 0.400000 -0.171000
v 0.217000 0.409526 -0.165500
v 0.217000 0.409526 -0.154500
v 0.217000 0.400000 -0.149000
v 0.217000 0.390474 -0.154500
v 0.217000 0.390474 -0.165500
v -0.133000 0.278378 -0.281622
v -0.133000 0.228000 -0.160000
v -0.133000 0.278378 -0.038378
v -0.133000 0.400000 0.012000
v -0.133000 0.521622 -0.038378
v -0.133000 0.572000 -0.160000
v -0.133000 0.521622 -0.281622
v -0.133000 0.400000 -0.332000
v 0.099000 0.400000 -0.332000
v 0.099000 0.521622 -0.281622
v 0.099000 0.572000 -0.160000
v 0.099000 0.521622 -0.038378
v 0.099000 0.400000 0.012000
v 0.099000 0.278378 -0.038378
v 0.099000 0.228000 -0.160000
v 0.099000 0.278378 -0.281622
v -0.094333 0.513137 -0.273137
v -0.094333 0.400000 -0.320000
v -0.094333 0.560000 -0.160000
v -0.094333 0.513137 -0.046863
v -0.094333 0.400000 0.000000
v -0.094333 0.286863 -0.046863
v -0.094333 0.240000 -0.160000
v -0.094333 0.286863 -0.273137
v -0.055667 0.521622 -0.281622
v -0.055667 0.400000 -0.332000
v -0.055667 0.572000 -0.160000
v -0.055667 0.521622 -0.038378
v -0.055667 0.400000 0.012000
v -0.055667 0.278378 -0.038378
v -0.055667 0.228000 -0.160000
v -0.055667 0.278378 -0.281622
v -0.017000 0.513137 -0.273137
v -0.017000 0.400000 -0.320000
v -0.017000 0.560000 -0.160000
v -0.017000 0.513137 -0.046863
v -0.017000 0.400000 0.000000
v -0.017000 0.286863 -0.046863
v -0.017000 0.240000 -0.160000
v -0.017000 0.286863 -0.273137
v 0.021667 0.521622 -0.281622
v 0.021667 0.400000 -0.332000
v 0.021667 0.572000 -0.160000
v 0.021667 0.521622 -0.038378
v 0.021667 0.400000 0.012000
v 0.021667 0.278378 -0.038378
v 0.021667 0.228000 -0.160000
v 0.021667 0.278378 -0.281622
v 0.060333 0.513137 -0.273137
v 0.060333 0.400000 -0.320000
v 0.060333 0.560000 -0.160000
v 0.060333 0.513137 -0.046863
v 0.060333 0.400000 0.000000
v 0.060333 0.286863 -0.046863
v 0.060333 0.240000 -0.160000
v 0.060333 0.286863 -0.273137
v 0.195000 0.391515 -0.168485
v 0.195000 0.320805 -0.097775
v 0.195000 0.337775 -0.080805
v 0.195000 0.408485 -0.151515
v 0.213000 0.408485 -0.151515
v 0.213000 0.337775 -0.080805
v 0.213000 0.320805 -0.097775
v 0.213000 0.391515 -0.168485
v 0.213000 0.315434 -0.097290
v 0.213000 0.315434 -0.081290
v 0.213000 0.329290 -0.073290
v 0.213000 0.343146 -0.081290
v 0.213000 0.343146 -0.097290
v 0.213000 0.329290 -0.105290
v 0.269000 0.329290 -0.105290
v 0.269000 0.343146 -0.097290
v 0.269000 0.343146 -0.081290
v 0.269000 0.329290 -0.073290
v 0.269000 0.315434 -0.081290
v 0.269000 0.315434 -0.097290
v -0.031000 0.277229 -0.057026
v -0.031000 0.120229 0.095974
v -0.031000 0.139771 0.116026
v -0.031000 0.296771 -0.036974
v -0.003000 0.296771 -0.036974
v -0.003000 0.139771 0.116026
v -0.003000 0.120229 0.095974
v -0.003000 0.277229 -0.057026
v -0.031000 0.118925 0.097436
v -0.031000 0.002925 0.247436
v -0.031000 0.025075 0.264564
v -0.031000 0.141075 0.114564
v -0.003000 0.141075 0.114564
v -0.003000 0.025075 0.264564
v -0.003000 0.002925 0.247436
v -0.003000 0.118925 0.097436
v -0.035000 0.000000 0.356000
v -0.035000 0.000000 0.246000
v 0.001000 0.000000 0.246000
v 0.001000 0.000000 0.356000
v -0.035000 0.032000 0.356000
v 0.001000 0.032000 0.356000
v 0.001000 0.032000 0.246000
v -0.035000 0.032000 0.246000
v -0.041000 0.000000 0.266000
v -0.041000 0.000000 0.232000
v 0.007000 0.000000 0.232000
v 0.007000 0.000000 0.266000
v -0.041000 0.040000 0.266000
v 0.007000 0.040000 0.266000
v 0.007000 0.040000 0.232000
v -0.041000 0.040000 0.232000
vn -1.0000 -0.0000 -0.0000
vn 1.0000 -0.0000 -0.0000
vn -0.0000 -0.0413 0.9991
vn -0.0000 0.9991 0.0413
vn -0.0000 0.0413 -0.9991
vn -0.0000 -0.9991 -0.0413
vn -0.0000 0.5895 0.8078
vn -0.0000 0.8078 -0.5895
vn -0.0000 -0.5895 -0.8078
vn -0.0000 -0.8078 0.5895
vn -0.0000 -1.0000 -0.0000
vn -0.0000 1.0000 -0.0000
vn -0.0000 -0.0000 1.0000
vn -0.0000 -0.0000 -1.0000
vn -0.0000 0.3827 -0.9239
vn -0.0000 0.9239 -0.3827
vn -0.0000 0.9239 0.3827
vn -0.0000 0.3827 0.9239
vn -0.0000 -0.3827 0.9239
vn -0.0000 -0.9239 0.3827
vn -0.0000 -0.9239 -0.3827
vn -0.0000 -0.3827 -0.9239
vn -0.0000 0.5000 -0.8660
vn -0.0000 0.5000 0.8660
vn -0.0000 -0.5000 0.8660
vn -0.0000 -0.5000 -0.8660
vn 0.2756 0.3679 -0.8881
vn 0.2756 0.8881 -0.3679
vn 0.2756 0.8881 0.3679
vn 0.2756 0.3679 0.8881
vn 0.2756 -0.3679 0.8881
vn 0.2756 -0.8881 0.3679
vn 0.2756 -0.8881 -0.3679
vn 0.2756 -0.3679 -0.8881
vn -0.2756 0.3679 -0.8881
vn -0.2756 0.8881 -0.3679
vn -0.2756 0.8881 0.3679
vn -0.2756 0.3679 0.8881
vn -0.2756 -0.3679 0.8881
vn -0.2756 -0.8881 0.3679
vn -0.2756 -0.8881 -0.3679
vn -0.2756 -0.3679 -0.8881
vn -0.0000 -0.7071 -0.7071
vn -0.0000 -0.7071 0.7071
vn -0.0000 0.7071 0.7071
vn -0.0000 0.7071 -0.7071
vn -0.0000 -0.6979 -0.7162
vn -0.0000 -0.7162 0.6979
vn -0.0000 0.6979 0.7162
vn -0.0000 0.7162 -0.6979
vn -0.0000 -0.7911 -0.6117
vn -0.0000 -0.6117 0.7911
vn -0.0000 0.7911 0.6117
vn -0.0000 0.6117 -0.7911
vt 0.812500 0.312500
vt 0.687500 0.062500
vt 0.562500 0.562500
vt 0.437500 0.312500
s 0
usemtl FN_Atlas
f 1/1/1 2/1/1 3/1/1 4/1/1
f 5/1/2 6/1/2 7/1/2 8/1/2
f 8/1/3 7/1/3 2/1/3 1/1/3
f 7/1/4 6/1/4 3/1/4 2/1/4
f 6/1/5 5/1/5 4/1/5 3/1/5
f 5/1/6 8/1/6 1/1/6 4/1/6
f 9/1/1 10/1/1 11/1/1 12/1/1
f 13/1/2 14/1/2 15/1/2 16/1/2
f 16/1/7 15/1/7 10/1/7 9/1/7
f 15/1/8 14/1/8 11/1/8 10/1/8
f 14/1/9 13/1/9 12/1/9 11/1/9
f 13/1/10 16/1/10 9/1/10 12/1/10
f 17/1/11 18/1/11 19/1/11 20/1/11
f 21/1/12 22/1/12 23/1/12 24/1/12
f 17/1/13 20/1/13 22/1/13 21/1/13
f 19/1/14 18/1/14 24/1/14 23/1/14
f 17/1/1 21/1/1 24/1/1 18/1/1
f 20/1/2 19/1/2 23/1/2 22/1/2
f 25/1/1 26/1/1 27/1/1 28/1/1 29/1/1 30/1/1 31/1/1 32/1/1
f 33/1/2 34/1/2 35/1/2 36/1/2 37/1/2 38/1/2 39/1/2 40/1/2
f 32/1/15 31/1/15 34/1/15 33/1/15
f 31/1/16 30/1/16 35/1/16 34/1/16
f 30/1/17 29/1/17 36/1/17 35/1/17
f 29/1/18 28/1/18 37/1/18 36/1/18
f 28/1/19 27/1/19 38/1/19 37/1/19
f 27/1/20 26/1/20 39/1/20 38/1/20
f 26/1/21 25/1/21 40/1/21 39/1/21
f 25/1/22 32/1/22 33/1/22 40/1/22
f 41/2/1 42/2/1 43/2/1 44/2/1 45/2/1 46/2/1
f 47/2/2 48/2/2 49/2/2 50/2/2 51/2/2 52/2/2
f 46/2/23 45/2/23 48/2/23 47/2/23
f 45/2/12 44/2/12 49/2/12 48/2/12
f 44/2/24 43/2/24 50/2/24 49/2/24
f 43/2/25 42/2/25 51/2/25 50/2/25
f 42/2/11 41/2/11 52/2/11 51/2/11
f 41/2/26 46/2/26 47/2/26 52/2/26
f 53/2/1 54/2/1 55/2/1 56/2/1 57/2/1 58/2/1 59/2/1 60/2/1
f 61/2/2 62/2/2 63/2/2 64/2/2 65/2/2 66/2/2 67/2/2 68/2/2
f 60/2/15 59/2/15 62/2/15 61/2/15
f 59/2/16 58/2/16 63/2/16 62/2/16
f 58/2/17 57/2/17 64/2/17 63/2/17
f 57/2/18 56/2/18 65/2/18 64/2/18
f 56/2/19 55/2/19 66/2/19 65/2/19
f 55/2/20 54/2/20 67/2/20 66/2/20
f 54/2/21 53/2/21 68/2/21 67/2/21
f 53/2/22 60/2/22 61/2/22 68/2/22
f 69/1/1 70/1/1 71/1/1 72/1/1
f 73/1/2 74/1/2 75/1/2 76/1/2
f 76/1/3 75/1/3 70/1/3 69/1/3
f 75/1/4 74/1/4 71/1/4 70/1/4
f 74/1/5 73/1/5 72/1/5 71/1/5
f 73/1/6 76/1/6 69/1/6 72/1/6
f 77/1/1 78/1/1 79/1/1 80/1/1
f 81/1/2 82/1/2 83/1/2 84/1/2
f 84/1/7 83/1/7 78/1/7 77/1/7
f 83/1/8 82/1/8 79/1/8 78/1/8
f 82/1/9 81/1/9 80/1/9 79/1/9
f 81/1/10 84/1/10 77/1/10 80/1/10
f 85/1/11 86/1/11 87/1/11 88/1/11
f 89/1/12 90/1/12 91/1/12 92/1/12
f 85/1/13 88/1/13 90/1/13 89/1/13
f 87/1/14 86/1/14 92/1/14 91/1/14
f 85/1/1 89/1/1 92/1/1 86/1/1
f 88/1/2 87/1/2 91/1/2 90/1/2
f 93/1/1 94/1/1 95/1/1 96/1/1 97/1/1 98/1/1 99/1/1 100/1/1
f 101/1/2 102/1/2 103/1/2 104/1/2 105/1/2 106/1/2 107/1/2 108/1/2
f 100/1/15 99/1/15 102/1/15 101/1/15
f 99/1/16 98/1/16 103/1/16 102/1/16
f 98/1/17 97/1/17 104/1/17 103/1/17
f 97/1/18 96/1/18 105/1/18 104/1/18
f 96/1/19 95/1/19 106/1/19 105/1/19
f 95/1/20 94/1/20 107/1/20 106/1/20
f 94/1/21 93/1/21 108/1/21 107/1/21
f 93/1/22 100/1/22 101/1/22 108/1/22
f 109/2/1 110/2/1 111/2/1 112/2/1 113/2/1 114/2/1
f 115/2/2 116/2/2 117/2/2 118/2/2 119/2/2 120/2/2
f 114/2/23 113/2/23 116/2/23 115/2/23
f 113/2/12 112/2/12 117/2/12 116/2/12
f 112/2/24 111/2/24 118/2/24 117/2/24
f 111/2/25 110/2/25 119/2/25 118/2/25
f 110/2/11 109/2/11 120/2/11 119/2/11
f 109/2/26 114/2/26 115/2/26 120/2/26
f 121/2/1 122/2/1 123/2/1 124/2/1 125/2/1 126/2/1 127/2/1 128/2/1
f 129/2/2 130/2/2 131/2/2 132/2/2 133/2/2 134/2/2 135/2/2 136/2/2
f 128/2/15 127/2/15 130/2/15 129/2/15
f 127/2/16 126/2/16 131/2/16 130/2/16
f 126/2/17 125/2/17 132/2/17 131/2/17
f 125/2/18 124/2/18 133/2/18 132/2/18
f 124/2/19 123/2/19 134/2/19 133/2/19
f 123/2/20 122/2/20 135/2/20 134/2/20
f 122/2/21 121/2/21 136/2/21 135/2/21
f 121/2/22 128/2/22 129/2/22 136/2/22
f 137/1/1 138/1/1 139/1/1 140/1/1 141/1/1 142/1/1
f 143/1/2 144/1/2 145/1/2 146/1/2 147/1/2 148/1/2
f 142/1/23 141/1/23 144/1/23 143/1/23
f 141/1/12 140/1/12 145/1/12 144/1/12
f 140/1/24 139/1/24 146/1/24 145/1/24
f 139/1/25 138/1/25 147/1/25 146/1/25
f 138/1/11 137/1/11 148/1/11 147/1/11
f 137/1/26 142/1/26 143/1/26 148/1/26
f 149/1/1 150/1/1 151/1/1 152/1/1 153/1/1 154/1/1
f 155/1/2 156/1/2 157/1/2 158/1/2 159/1/2 160/1/2
f 154/1/23 153/1/23 156/1/23 155/1/23
f 153/1/12 152/1/12 157/1/12 156/1/12
f 152/1/24 151/1/24 158/1/24 157/1/24
f 151/1/25 150/1/25 159/1/25 158/1/25
f 150/1/11 149/1/11 160/1/11 159/1/11
f 149/1/26 154/1/26 155/1/26 160/1/26
f 161/1/1 162/1/1 163/1/1 164/1/1 165/1/1 166/1/1
f 167/1/2 168/1/2 169/1/2 170/1/2 171/1/2 172/1/2
f 166/1/23 165/1/23 168/1/23 167/1/23
f 165/1/12 164/1/12 169/1/12 168/1/12
f 164/1/24 163/1/24 170/1/24 169/1/24
f 163/1/25 162/1/25 171/1/25 170/1/25
f 162/1/11 161/1/11 172/1/11 171/1/11
f 161/1/26 166/1/26 167/1/26 172/1/26
f 173/3/1 174/3/1 175/3/1 176/3/1 177/3/1 178/3/1 179/3/1 180/3/1
f 181/3/2 182/3/2 183/3/2 184/3/2 185/3/2 186/3/2 187/3/2 188/3/2
f 180/3/27 179/3/27 189/3/27 190/3/27
f 179/3/28 178/3/28 191/3/28 189/3/28
f 178/3/29 177/3/29 192/3/29 191/3/29
f 177/3/30 176/3/30 193/3/30 192/3/30
f 176/3/31 175/3/31 194/3/31 193/3/31
f 175/3/32 174/3/32 195/3/32 194/3/32
f 174/3/33 173/3/33 196/3/33 195/3/33
f 173/3/34 180/3/34 190/3/34 196/3/34
f 190/3/35 189/3/35 197/3/35 198/3/35
f 189/3/36 191/3/36 199/3/36 197/3/36
f 191/3/37 192/3/37 200/3/37 199/3/37
f 192/3/38 193/3/38 201/3/38 200/3/38
f 193/3/39 194/3/39 202/3/39 201/3/39
f 194/3/40 195/3/40 203/3/40 202/3/40
f 195/3/41 196/3/41 204/3/41 203/3/41
f 196/3/42 190/3/42 198/3/42 204/3/42
f 198/3/27 197/3/27 205/3/27 206/3/27
f 197/3/28 199/3/28 207/3/28 205/3/28
f 199/3/29 200/3/29 208/3/29 207/3/29
f 200/3/30 201/3/30 209/3/30 208/3/30
f 201/3/31 202/3/31 210/3/31 209/3/31
f 202/3/32 203/3/32 211/3/32 210/3/32
f 203/3/33 204/3/33 212/3/33 211/3/33
f 204/3/34 198/3/34 206/3/34 212/3/34
f 206/3/35 205/3/35 213/3/35 214/3/35
f 205/3/36 207/3/36 215/3/36 213/3/36
f 207/3/37 208/3/37 216/3/37 215/3/37
f 208/3/38 209/3/38 217/3/38 216/3/38
f 209/3/39 210/3/39 218/3/39 217/3/39
f 210/3/40 211/3/40 219/3/40 218/3/40
f 211/3/41 212/3/41 220/3/41 219/3/41
f 212/3/42 206/3/42 214/3/42 220/3/42
f 214/3/27 213/3/27 221/3/27 222/3/27
f 213/3/28 215/3/28 223/3/28 221/3/28
f 215/3/29 216/3/29 224/3/29 223/3/29
f 216/3/30 217/3/30 225/3/30 224/3/30
f 217/3/31 218/3/31 226/3/31 225/3/31
f 218/3/32 219/3/32 227/3/32 226/3/32
f 219/3/33 220/3/33 228/3/33 227/3/33
f 220/3/34 214/3/34 222/3/34 228/3/34
f 222/3/35 221/3/35 182/3/35 181/3/35
f 221/3/36 223/3/36 183/3/36 182/3/36
f 223/3/37 224/3/37 184/3/37 183/3/37
f 224/3/38 225/3/38 185/3/38 184/3/38
f 225/3/39 226/3/39 186/3/39 185/3/39
f 226/3/40 227/3/40 187/3/40 186/3/40
f 227/3/41 228/3/41 188/3/41 187/3/41
f 228/3/42 222/3/42 181/3/42 188/3/42
f 229/2/1 230/2/1 231/2/1 232/2/1
f 233/2/2 234/2/2 235/2/2 236/2/2
f 236/2/43 235/2/43 230/2/43 229/2/43
f 235/2/44 234/2/44 231/2/44 230/2/44
f 234/2/45 233/2/45 232/2/45 231/2/45
f 233/2/46 236/2/46 229/2/46 232/2/46
f 237/2/1 238/2/1 239/2/1 240/2/1 241/2/1 242/2/1
f 243/2/2 244/2/2 245/2/2 246/2/2 247/2/2 248/2/2
f 242/2/23 241/2/23 244/2/23 243/2/23
f 241/2/12 240/2/12 245/2/12 244/2/12
f 240/2/24 239/2/24 246/2/24 245/2/24
f 239/2/25 238/2/25 247/2/25 246/2/25
f 238/2/11 237/2/11 248/2/11 247/2/11
f 237/2/26 242/2/26 243/2/26 248/2/26
f 249/3/1 250/3/1 251/3/1 252/3/1
f 253/3/2 254/3/2 255/3/2 256/3/2
f 256/3/47 255/3/47 250/3/47 249/3/47
f 255/3/48 254/3/48 251/3/48 250/3/48
f 254/3/49 253/3/49 252/3/49 251/3/49
f 253/3/50 256/3/50 249/3/50 252/3/50
f 257/3/1 258/3/1 259/3/1 260/3/1
f 261/3/2 262/3/2 263/3/2 264/3/2
f 264/3/51 263/3/51 258/3/51 257/3/51
f 263/3/52 262/3/52 259/3/52 258/3/52
f 262/3/53 261/3/53 260/3/53 259/3/53
f 261/3/54 264/3/54 257/3/54 260/3/54
f 265/4/11 266/4/11 267/4/11 268/4/11
f 269/4/12 270/4/12 271/4/12 272/4/12
f 265/4/13 268/4/13 270/4/13 269/4/13
f 267/4/14 266/4/14 272/4/14 271/4/14
f 265/4/1 269/4/1 272/4/1 266/4/1
f 268/4/2 267/4/2 271/4/2 270/4/2
f 273/4/11 274/4/11 275/4/11 276/4/11
f 277/4/12 278/4/12 279/4/12 280/4/12
f 273/4/13 276/4/13 278/4/13 277/4/13
f 275/4/14 274/4/14 280/4/14 279/4/14
f 273/4/1 277/4/1 280/4/1 274/4/1
f 276/4/2 275/4/2 279/4/2 278/4/2
