# Blender 5.2.0 LTS
# www.blender.org
mtllib FN_Rug_Rect.mtl
o FN_Rug_Rect
v -0.996936 0.000000 -0.697855
v 0.996936 0.000000 -0.697855
v 0.996936 0.000000 0.697855
v -0.996936 0.000000 0.697855
v 1.000000 0.003740 0.700000
v -1.000000 0.003740 0.700000
v 1.000000 0.003740 -0.700000
v -1.000000 0.003740 -0.700000
v 1.000000 0.007260 0.700000
v -1.000000 0.007260 0.700000
v 1.000000 0.007260 -0.700000
v -1.000000 0.007260 -0.700000
v -0.996936 0.011000 0.697855
v 0.996936 0.011000 0.697855
v 0.996936 0.011000 -0.697855
v -0.996936 0.011000 -0.697855
v -0.906677 0.000000 -0.607773
v 0.906677 0.000000 -0.607773
v 0.906677 0.000000 0.607773
v -0.906677 0.000000 0.607773
v 0.910000 0.004000 0.610000
v -0.910000 0.004000 0.610000
v 0.910000 0.004000 -0.610000
v -0.910000 0.004000 -0.610000
v 0.910000 0.010000 0.610000
v -0.910000 0.010000 0.610000
v 0.910000 0.010000 -0.610000
v -0.910000 0.010000 -0.610000
v -0.906677 0.014000 0.607773
v 0.906677 0.014000 0.607773
v 0.906677 0.014000 -0.607773
v -0.906677 0.014000 -0.607773
v -1.052000 0.000000 0.597667
v -1.052000 0.000000 0.575667
v -0.994000 0.000000 0.575667
v -0.994000 0.000000 0.597667
v -1.052000 0.007000 0.597667
v -0.994000 0.007000 0.597667
v -0.994000 0.007000 0.575667
v -1.052000 0.007000 0.575667
v -1.052000 0.000000 0.491000
v -1.052000 0.000000 0.469000
v -0.994000 0.000000 0.469000
v -0.994000 0.000000 0.491000
v -1.052000 0.007000 0.491000
v -0.994000 0.007000 0.491000
v -0.994000 0.007000 0.469000
v -1.052000 0.007000 0.469000
v -1.052000 0.000000 0.384333
v -1.052000 0.000000 0.362333
v -0.994000 0.000000 0.362333
v -0.994000 0.000000 0.384333
v -1.052000 0.007000 0.384333
v -0.994000 0.007000 0.384333
v -0.994000 0.007000 0.362333
v -1.052000 0.007000 0.362333
v -1.052000 0.000000 0.277667
v -1.052000 0.000000 0.255667
v -0.994000 0.000000 0.255667
v -0.994000 0.000000 0.277667
v -1.052000 0.007000 0.277667
v -0.994000 0.007000 0.277667
v -0.994000 0.007000 0.255667
v -1.052000 0.007000 0.255667
v -1.052000 0.000000 0.171000
v -1.052000 0.000000 0.149000
v -0.994000 0.000000 0.149000
v -0.994000 0.000000 0.171000
v -1.052000 0.007000 0.171000
v -0.994000 0.007000 0.171000
v -0.994000 0.007000 0.149000
v -1.052000 0.007000 0.149000
v -1.052000 0.000000 0.064333
v -1.052000 0.000000 0.042333
v -0.994000 0.000000 0.042333
v -0.994000 0.000000 0.064333
v -1.052000 0.007000 0.064333
v -0.994000 0.007000 0.064333
v -0.994000 0.007000 0.042333
v -1.052000 0.007000 0.042333
v -1.052000 0.000000 -0.042333
v -1.052000 0.000000 -0.064333
v -0.994000 0.000000 -0.064333
v -0.994000 0.000000 -0.042333
v -1.052000 0.007000 -0.042333
v -0.994000 0.007000 -0.042333
v -0.994000 0.007000 -0.064333
v -1.052000 0.007000 -0.064333
v -1.052000 0.000000 -0.149000
v -1.052000 0.000000 -0.171000
v -0.994000 0.000000 -0.171000
v -0.994000 0.000000 -0.149000
v -1.052000 0.007000 -0.149000
v -0.994000 0.007000 -0.149000
v -0.994000 0.007000 -0.171000
v -1.052000 0.007000 -0.171000
v -1.052000 0.000000 -0.255667
v -1.052000 0.000000 -0.277667
v -0.994000 0.000000 -0.277667
v -0.994000 0.000000 -0.255667
v -1.052000 0.007000 -0.255667
v -0.994000 0.007000 -0.255667
v -0.994000 0.007000 -0.277667
v -1.052000 0.007000 -0.277667
v -1.052000 0.000000 -0.362333
v -1.052000 0.000000 -0.384333
v -0.994000 0.000000 -0.384333
v -0.994000 0.000000 -0.362333
v -1.052000 0.007000 -0.362333
v -0.994000 0.007000 -0.362333
v -0.994000 0.007000 -0.384333
v -1.052000 0.007000 -0.384333
v -1.052000 0.000000 -0.469000
v -1.052000 0.000000 -0.491000
v -0.994000 0.000000 -0.491000
v -0.994000 0.000000 -0.469000
v -1.052000 0.007000 -0.469000
v -0.994000 0.007000 -0.469000
v -0.994000 0.007000 -0.491000
v -1.052000 0.007000 -0.491000
v -1.052000 0.000000 -0.575667
v -1.052000 0.000000 -0.597667
v -0.994000 0.000000 -0.597667
v -0.994000 0.000000 -0.575667
v -1.052000 0.007000 -0.575667
v -0.994000 0.007000 -0.575667
v -0.994000 0.007000 -0.597667
v -1.052000 0.007000 -0.597667
v 0.994000 0.000000 0.597667
v 0.994000 0.000000 0.575667
v 1.052000 0.000000 0.575667
v 1.052000 0.000000 0.597667
v 0.994000 0.007000 0.597667
v 1.052000 0.007000 0.597667
v 1.052000 0.007000 0.575667
v 0.994000 0.007000 0.575667
v 0.994000 0.000000 0.491000
v 0.994000 0.000000 0.469000
v 1.052000 0.000000 0.469000
v 1.052000 0.000000 0.491000
v 0.994000 0.007000 0.491000
v 1.052000 0.007000 0.491000
v 1.052000 0.007000 0.469000
v 0.994000 0.007000 0.469000
v 0.994000 0.000000 0.384333
v 0.994000 0.000000 0.362333
v 1.052000 0.000000 0.362333
v 1.052000 0.000000 0.384333
v 0.994000 0.007000 0.384333
v 1.052000 0.007000 0.384333
v 1.052000 0.007000 0.362333
v 0.994000 0.007000 0.362333
v 0.994000 0.000000 0.277667
v 0.994000 0.000000 0.255667
v 1.052000 0.000000 0.255667
v 1.052000 0.000000 0.277667
v 0.994000 0.007000 0.277667
v 1.052000 0.007000 0.277667
v 1.052000 0.007000 0.255667
v 0.994000 0.007000 0.255667
v 0.994000 0.000000 0.171000
v 0.994000 0.000000 0.149000
v 1.052000 0.000000 0.149000
v 1.052000 0.000000 0.171000
v 0.994000 0.007000 0.171000
v 1.052000 0.007000 0.171000
v 1.052000 0.007000 0.149000
v 0.994000 0.007000 0.149000
v 0.994000 0.000000 0.064333
v 0.994000 0.000000 0.042333
v 1.052000 0.000000 0.042333
v 1.052000 0.000000 0.064333
v 0.994000 0.007000 0.064333
v 1.052000 0.007000 0.064333
v 1.052000 0.007000 0.042333
v 0.994000 0.007000 0.042333
v 0.994000 0.000000 -0.042333
v 0.994000 0.000000 -0.064333
v 1.052000 0.000000 -0.064333
v 1.052000 0.000000 -0.042333
v 0.994000 0.007000 -0.042333
v 1.052000 0.007000 -0.042333
v 1.052000 0.007000 -0.064333
v 0.994000 0.007000 -0.064333
v 0.994000 0.000000 -0.149000
v 0.994000 0.000000 -0.171000
v 1.052000 0.000000 -0.171000
v 1.052000 0.000000 -0.149000
v 0.994000 0.007000 -0.149000
v 1.052000 0.007000 -0.149000
v 1.052000 0.007000 -0.171000
v 0.994000 0.007000 -0.171000
v 0.994000 0.000000 -0.255667
v 0.994000 0.000000 -0.277667
v 1.052000 0.000000 -0.277667
v 1.052000 0.000000 -0.255667
v 0.994000 0.007000 -0.255667
v 1.052000 0.007000 -0.255667
v 1.052000 0.007000 -0.277667
v 0.994000 0.007000 -0.277667
v 0.994000 0.000000 -0.362333
v 0.994000 0.000000 -0.384333
v 1.052000 0.000000 -0.384333
v 1.052000 0.000000 -0.362333
v 0.994000 0.007000 -0.362333
v 1.052000 0.007000 -0.362333
v 1.052000 0.007000 -0.384333
v 0.994000 0.007000 -0.384333
v 0.994000 0.000000 -0.469000
v 0.994000 0.000000 -0.491000
v 1.052000 0.000000 -0.491000
v 1.052000 0.000000 -0.469000
v 0.994000 0.007000 -0.469000
v 1.052000 0.007000 -0.469000
v 1.052000 0.007000 -0.491000
v 0.994000 0.007000 -0.491000
v 0.994000 0.000000 -0.575667
v 0.994000 0.000000 -0.597667
v 1.052000 0.000000 -0.597667
v 1.052000 0.000000 -0.575667
v 0.994000 0.007000 -0.575667
v 1.052000 0.007000 -0.575667
v 1.052000 0.007000 -0.597667
v 0.994000 0.007000 -0.597667
vn -0.0000 -1.0000 -0.0000
vn -0.0000 -0.4975 0.8675
vn 0.7736 -0.6337 -0.0000
vn -0.0000 -0.4975 -0.8675
vn -0.7736 -0.6337 -0.0000
vn -0.0000 -0.0000 1.0000
vn 1.0000 -0.0000 -0.0000
vn -0.0000 -0.0000 -1.0000
vn -1.0000 -0.0000 -0.0000
vn -0.0000 1.0000 -0.0000
vn -0.0000 0.4975 0.8675
vn 0.7736 0.6337 -0.0000
vn -0.0000 0.4975 -0.8675
vn -0.7736 0.6337 -0.0000
vn -0.0000 -0.4865 0.8737
vn 0.7692 -0.6390 -0.0000
vn -0.0000 -0.4865 -0.8737
vn -0.7692 -0.6390 -0.0000
vn -0.0000 0.4865 0.8737
vn 0.7692 0.6390 -0.0000
vn -0.0000 0.4865 -0.8737
vn -0.7692 0.6390 -0.0000
vt 0.937500 0.687500
vt 0.687500 0.562500
vt 0.312500 0.687500
s 0
usemtl FN_Atlas
f 1/1/1 2/1/1 3/1/1 4/1/1
f 4/1/2 3/1/2 5/1/2 6/1/2
f 3/1/3 2/1/3 7/1/3 5/1/3
f 2/1/4 1/1/4 8/1/4 7/1/4
f 1/1/5 4/1/5 6/1/5 8/1/5
f 6/1/6 5/1/6 9/1/6 10/1/6
f 5/1/7 7/1/7 11/1/7 9/1/7
f 7/1/8 8/1/8 12/1/8 11/1/8
f 8/1/9 6/1/9 10/1/9 12/1/9
f 13/1/10 14/1/10 15/1/10 16/1/10
f 10/1/11 9/1/11 14/1/11 13/1/11
f 9/1/12 11/1/12 15/1/12 14/1/12
f 11/1/13 12/1/13 16/1/13 15/1/13
f 12/1/14 10/1/14 13/1/14 16/1/14
f 17/2/1 18/2/1 19/2/1 20/2/1
f 20/2/15 19/2/15 21/2/15 22/2/15
f 19/2/16 18/2/16 23/2/16 21/2/16
f 18/2/17 17/2/17 24/2/17 23/2/17
f 17/2/18 20/2/18 22/2/18 24/2/18
f 22/2/6 21/2/6 25/2/6 26/2/6
f 21/2/7 23/2/7 27/2/7 25/2/7
f 23/2/8 24/2/8 28/2/8 27/2/8
f 24/2/9 22/2/9 26/2/9 28/2/9
f 29/2/10 30/2/10 31/2/10 32/2/10
f 26/2/19 25/2/19 30/2/19 29/2/19
f 25/2/20 27/2/20 31/2/20 30/2/20
f 27/2/21 28/2/21 32/2/21 31/2/21
f 28/2/22 26/2/22 29/2/22 32/2/22
f 33/3/1 34/3/1 35/3/1 36/3/1
f 37/3/10 38/3/10 39/3/10 40/3/10
f 33/3/6 36/3/6 38/3/6 37/3/6
f 35/3/8 34/3/8 40/3/8 39/3/8
f 33/3/9 37/3/9 40/3/9 34/3/9
f 36/3/7 35/3/7 39/3/7 38/3/7
f 41/3/1 42/3/1 43/3/1 44/3/1
f 45/3/10 46/3/10 47/3/10 48/3/10
f 41/3/6 44/3/6 46/3/6 45/3/6
f 43/3/8 42/3/8 48/3/8 47/3/8
f 41/3/9 45/3/9 48/3/9 42/3/9
f 44/3/7 43/3/7 47/3/7 46/3/7
f 49/3/1 50/3/1 51/3/1 52/3/1
f 53/3/10 54/3/10 55/3/10 56/3/10
f 49/3/6 52/3/6 54/3/6 53/3/6
f 51/3/8 50/3/8 56/3/8 55/3/8
f 49/3/9 53/3/9 56/3/9 50/3/9
f 52/3/7 51/3/7 55/3/7 54/3/7
f 57/3/1 58/3/1 59/3/1 60/3/1
f 61/3/10 62/3/10 63/3/10 64/3/10
f 57/3/6 60/3/6 62/3/6 61/3/6
f 59/3/8 58/3/8 64/3/8 63/3/8
f 57/3/9 61/3/9 64/3/9 58/3/9
f 60/3/7 59/3/7 63/3/7 62/3/7
f 65/3/1 66/3/1 67/3/1 68/3/1
f 69/3/10 70/3/10 71/3/10 72/3/10
f 65/3/6 68/3/6 70/3/6 69/3/6
f 67/3/8 66/3/8 72/3/8 71/3/8
f 65/3/9 69/3/9 72/3/9 66/3/9
f 68/3/7 67/3/7 71/3/7 70/3/7
f 73/3/1 74/3/1 75/3/1 76/3/1
f 77/3/10 78/3/10 79/3/10 80/3/10
f 73/3/6 76/3/6 78/3/6 77/3/6
f 75/3/8 74/3/8 80/3/8 79/3/8
f 73/3/9 77/3/9 80/3/9 74/3/9
f 76/3/7 75/3/7 79/3/7 78/3/7
f 81/3/1 82/3/1 83/3/1 84/3/1
f 85/3/10 86/3/10 87/3/10 88/3/10
f 81/3/6 84/3/6 86/3/6 85/3/6
f 83/3/8 82/3/8 88/3/8 87/3/8
f 81/3/9 85/3/9 88/3/9 82/3/9
f 84/3/7 83/3/7 87/3/7 86/3/7
f 89/3/1 90/3/1 91/3/1 92/3/1
f 93/3/10 94/3/10 95/3/10 96/3/10
f 89/3/6 92/3/6 94/3/6 93/3/6
f 91/3/8 90/3/8 96/3/8 95/3/8
f 89/3/9 93/3/9 96/3/9 90/3/9
f 92/3/7 91/3/7 95/3/7 94/3/7
f 97/3/1 98/3/1 99/3/1 100/3/1
f 101/3/10 102/3/10 103/3/10 104/3/10
f 97/3/6 100/3/6 102/3/6 101/3/6
f 99/3/8 98/3/8 104/3/8 103/3/8
f 97/3/9 101/3/9 104/3/9 98/3/9
f 100/3/7 99/3/7 103/3/7 102/3/7
f 105/3/1 106/3/1 107/3/1 108/3/1
f 109/3/10 110/3/10 111/3/10 112/3/10
f 105/3/6 108/3/6 110/3/6 109/3/6
f 107/3/8 106/3/8 112/3/8 111/3/8
f 105/3/9 109/3/9 112/3/9 106/3/9
f 108/3/7 107/3/7 111/3/7 110/3/7
f 113/3/1 114/3/1 115/3/1 116/3/1
f 117/3/10 118/3/10 119/3/10 120/3/10
f 113/3/6 116/3/6 118/3/6 117/3/6
f 115/3/8 114/3/8 120/3/8 119/3/8
f 113/3/9 117/3/9 120/3/9 114/3/9
f 116/3/7 115/3/7 119/3/7 118/3/7
f 121/3/1 122/3/1 123/3/1 124/3/1
f 125/3/10 126/3/10 127/3/10 128/3/10
f 121/3/6 124/3/6 126/3/6 125/3/6
f 123/3/8 122/3/8 128/3/8 127/3/8
f 121/3/9 125/3/9 128/3/9 122/3/9
f 124/3/7 123/3/7 127/3/7 126/3/7
f 129/3/1 130/3/1 131/3/1 132/3/1
f 133/3/10 134/3/10 135/3/10 136/3/10
f 129/3/6 132/3/6 134/3/6 133/3/6
f 131/3/8 130/3/8 136/3/8 135/3/8
f 129/3/9 133/3/9 136/3/9 130/3/9
f 132/3/7 131/3/7 135/3/7 134/3/7
f 137/3/1 138/3/1 139/3/1 140/3/1
f 141/3/10 142/3/10 143/3/10 144/3/10
f 137/3/6 140/3/6 142/3/6 141/3/6
f 139/3/8 138/3/8 144/3/8 143/3/8
f 137/3/9 141/3/9 144/3/9 138/3/9
f 140/3/7 139/3/7 143/3/7 142/3/7
f 145/3/1 146/3/1 147/3/1 148/3/1
f 149/3/10 150/3/10 151/3/10 152/3/10
f 145/3/6 148/3/6 150/3/6 149/3/6
f 147/3/8 146/3/8 152/3/8 151/3/8
f 145/3/9 149/3/9 152/3/9 146/3/9
f 148/3/7 147/3/7 151/3/7 150/3/7
f 153/3/1 154/3/1 155/3/1 156/3/1
f 157/3/10 158/3/10 159/3/10 160/3/10
f 153/3/6 156/3/6 158/3/6 157/3/6
f 155/3/8 154/3/8 160/3/8 159/3/8
f 153/3/9 157/3/9 160/3/9 154/3/9
f 156/3/7 155/3/7 159/3/7 158/3/7
f 161/3/1 162/3/1 163/3/1 164/3/1
f 165/3/10 166/3/10 167/3/10 168/3/10
f 161/3/6 164/3/6 166/3/6 165/3/6
f 163/3/8 162/3/8 168/3/8 167/3/8
f 161/3/9 165/3/9 168/3/9 162/3/9
f 164/3/7 163/3/7 167/3/7 166/3/7
f 169/3/1 170/3/1 171/3/1 172/3/1
f 173/3/10 174/3/10 175/3/10 176/3/10
f 169/3/6 172/3/6 174/3/6 173/3/6
f 171/3/8 170/3/8 176/3/8 175/3/8
f 169/3/9 173/3/9 176/3/9 170/3/9
f 172/3/7 171/3/7 175/3/7 174/3/7
f 177/3/1 178/3/1 179/3/1 180/3/1
f 181/3/10 182/3/10 183/3/10 184/3/10
f 177/3/6 180/3/6 182/3/6 181/3/6
f 179/3/8 178/3/8 184/3/8 183/3/8
f 177/3/9 181/3/9 184/3/9 178/3/9
f 180/3/7 179/3/7 183/3/7 182/3/7
f 185/3/1 186/3/1 187/3/1 188/3/1
f 189/3/10 190/3/10 191/3/10 192/3/10
f 185/3/6 188/3/6 190/3/6 189/3/6
f 187/3/8 186/3/8 192/3/8 191/3/8
f 185/3/9 189/3/9 192/3/9 186/3/9
f 188/3/7 187/3/7 191/3/7 190/3/7
f 193/3/1 194/3/1 195/3/1 196/3/1
f 197/3/10 198/3/10 199/3/10 200/3/10
f 193/3/6 196/3/6 198/3/6 197/3/6
f 195/3/8 194/3/8 200/3/8 199/3/8
f 193/3/9 197/3/9 200/3/9 194/3/9
f 196/3/7 195/3/7 199/3/7 198/3/7
f 201/3/1 202/3/1 203/3/1 204/3/1
f 205/3/10 206/3/10 207/3/10 208/3/10
f 201/3/6 204/3/6 206/3/6 205/3/6
f 203/3/8 202/3/8 208/3/8 207/3/8
f 201/3/9 205/3/9 208/3/9 202/3/9
f 204/3/7 203/3/7 207/3/7 206/3/7
f 209/3/1 210/3/1 211/3/1 212/3/1
f 213/3/10 214/3/10 215/3/10 216/3/10
f 209/3/6 212/3/6 214/3/6 213/3/6
f 211/3/8 210/3/8 216/3/8 215/3/8
f 209/3/9 213/3/9 216/3/9 210/3/9
f 212/3/7 211/3/7 215/3/7 214/3/7
f 217/3/1 218/3/1 219/3/1 220/3/1
f 221/3/10 222/3/10 223/3/10 224/3/10
f 217/3/6 220/3/6 222/3/6 221/3/6
f 219/3/8 218/3/8 224/3/8 223/3/8
f 217/3/9 221/3/9 224/3/9 218/3/9
f 220/3/7 219/3/7 223/3/7 222/3/7
