# Blender 5.2.0 LTS
# www.blender.org
mtllib FN_Stool_Pouffe.mtl
o FN_Stool_Pouffe
v 0.220836 0.000000 0.127500
v 0.127500 0.000000 0.220836
v -0.000000 0.000000 0.255000
v -0.127500 0.000000 0.220836
v -0.220836 0.000000 0.127500
v -0.255000 0.000000 -0.000000
v -0.220836 0.000000 -0.127500
v -0.127500 0.000000 -0.220836
v 0.000000 0.000000 -0.255000
v 0.127500 0.000000 -0.220836
v 0.220836 0.000000 -0.127500
v 0.255000 0.000000 0.000000
v 0.235559 0.045000 -0.136000
v 0.272000 0.045000 0.000000
v 0.136000 0.045000 -0.235559
v 0.000000 0.045000 -0.272000
v -0.136000 0.045000 -0.235559
v -0.235559 0.045000 -0.136000
v -0.272000 0.045000 -0.000000
v -0.235559 0.045000 0.136000
v -0.136000 0.045000 0.235559
v -0.000000 0.045000 0.272000
v 0.136000 0.045000 0.235559
v 0.235559 0.045000 0.136000
v 0.259808 0.190000 -0.150000
v 0.300000 0.190000 0.000000
v 0.150000 0.190000 -0.259808
v 0.000000 0.190000 -0.300000
v -0.150000 0.190000 -0.259808
v -0.259808 0.190000 -0.150000
v -0.300000 0.190000 -0.000000
v -0.259808 0.190000 0.150000
v -0.150000 0.190000 0.259808
v -0.000000 0.190000 0.300000
v 0.150000 0.190000 0.259808
v 0.259808 0.190000 0.150000
v 0.265004 0.205000 -0.153000
v 0.306000 0.205000 0.000000
v 0.153000 0.205000 -0.265004
v 0.000000 0.205000 -0.306000
v -0.153000 0.205000 -0.265004
v -0.265004 0.205000 -0.153000
v -0.306000 0.205000 -0.000000
v -0.265004 0.205000 0.153000
v -0.153000 0.205000 0.265004
v -0.000000 0.205000 0.306000
v 0.153000 0.205000 0.265004
v 0.265004 0.205000 0.153000
v 0.265004 0.225000 -0.153000
v 0.306000 0.225000 0.000000
v 0.153000 0.225000 -0.265004
v 0.000000 0.225000 -0.306000
v -0.153000 0.225000 -0.265004
v -0.265004 0.225000 -0.153000
v -0.306000 0.225000 -0.000000
v -0.265004 0.225000 0.153000
v -0.153000 0.225000 0.265004
v -0.000000 0.225000 0.306000
v 0.153000 0.225000 0.265004
v 0.265004 0.225000 0.153000
v 0.259808 0.240000 -0.150000
v 0.300000 0.240000 0.000000
v 0.150000 0.240000 -0.259808
v 0.000000 0.240000 -0.300000
v -0.150000 0.240000 -0.259808
v -0.259808 0.240000 -0.150000
v -0.300000 0.240000 -0.000000
v -0.259808 0.240000 0.150000
v -0.150000 0.240000 0.259808
v -0.000000 0.240000 0.300000
v 0.150000 0.240000 0.259808
v 0.259808 0.240000 0.150000
v 0.232095 0.400000 -0.134000
v 0.268000 0.400000 0.000000
v 0.134000 0.400000 -0.232095
v 0.000000 0.400000 -0.268000
v -0.134000 0.400000 -0.232095
v -0.232095 0.400000 -0.134000
v -0.268000 0.400000 -0.000000
v -0.232095 0.400000 0.134000
v -0.134000 0.400000 0.232095
v -0.000000 0.400000 0.268000
v 0.134000 0.400000 0.232095
v 0.232095 0.400000 0.134000
v 0.060622 0.400000 -0.035000
v 0.070000 0.400000 0.000000
v 0.035000 0.400000 -0.060622
v 0.000000 0.400000 -0.070000
v -0.035000 0.400000 -0.060622
v -0.060622 0.400000 -0.035000
v -0.070000 0.400000 -0.000000
v -0.060622 0.400000 0.035000
v -0.035000 0.400000 0.060622
v -0.000000 0.400000 0.070000
v 0.035000 0.400000 0.060622
v 0.060622 0.400000 0.035000
v 0.024249 0.368000 -0.014000
v 0.028000 0.368000 0.000000
v 0.014000 0.368000 -0.024249
v 0.000000 0.368000 -0.028000
v -0.014000 0.368000 -0.024249
v -0.024249 0.368000 -0.014000
v -0.028000 0.368000 -0.000000
v -0.024249 0.368000 0.014000
v -0.014000 0.368000 0.024249
v -0.000000 0.368000 0.028000
v 0.014000 0.368000 0.024249
v 0.024249 0.368000 0.014000
v 0.014000 0.362000 0.024249
v -0.014000 0.362000 0.024249
v -0.028000 0.362000 -0.000000
v -0.014000 0.362000 -0.024249
v 0.014000 0.362000 -0.024249
v 0.028000 0.362000 0.000000
v 0.028000 0.376000 0.000000
v 0.014000 0.376000 -0.024249
v -0.014000 0.376000 -0.024249
v -0.028000 0.376000 -0.000000
v -0.014000 0.376000 0.024249
v 0.014000 0.376000 0.024249
vn -0.0000 -1.0000 -0.0000
vn 0.9074 -0.3428 -0.2431
vn 0.6643 -0.3428 -0.6643
vn 0.2431 -0.3428 -0.9074
vn -0.2431 -0.3428 -0.9074
vn -0.6643 -0.3428 -0.6643
vn -0.9074 -0.3428 -0.2431
vn -0.9074 -0.3428 0.2431
vn -0.6643 -0.3428 0.6643
vn -0.2431 -0.3428 0.9074
vn 0.2431 -0.3428 0.9074
vn 0.6643 -0.3428 0.6643
vn 0.9074 -0.3428 0.2431
vn 0.9495 -0.1834 -0.2544
vn 0.6951 -0.1834 -0.6951
vn 0.2544 -0.1834 -0.9495
vn -0.2544 -0.1834 -0.9495
vn -0.6951 -0.1834 -0.6951
vn -0.9495 -0.1834 -0.2544
vn -0.9495 -0.1834 0.2544
vn -0.6951 -0.1834 0.6951
vn -0.2544 -0.1834 0.9495
vn 0.2544 -0.1834 0.9495
vn 0.6951 -0.1834 0.6951
vn 0.9495 -0.1834 0.2544
vn 0.9010 -0.3604 -0.2414
vn 0.6596 -0.3604 -0.6596
vn 0.2414 -0.3604 -0.9010
vn -0.2414 -0.3604 -0.9010
vn -0.6596 -0.3604 -0.6596
vn -0.9010 -0.3604 -0.2414
vn -0.9010 -0.3604 0.2414
vn -0.6596 -0.3604 0.6596
vn -0.2414 -0.3604 0.9010
vn 0.2414 -0.3604 0.9010
vn 0.6596 -0.3604 0.6596
vn 0.9010 -0.3604 0.2414
vn 0.9659 -0.0000 -0.2588
vn 0.7071 -0.0000 -0.7071
vn 0.2588 -0.0000 -0.9659
vn -0.2588 -0.0000 -0.9659
vn -0.7071 -0.0000 -0.7071
vn -0.9659 -0.0000 -0.2588
vn -0.9659 -0.0000 0.2588
vn -0.7071 -0.0000 0.7071
vn -0.2588 -0.0000 0.9659
vn 0.2588 -0.0000 0.9659
vn 0.7071 -0.0000 0.7071
vn 0.9659 -0.0000 0.2588
vn 0.9010 0.3604 -0.2414
vn 0.6596 0.3604 -0.6596
vn 0.2414 0.3604 -0.9010
vn -0.2414 0.3604 -0.9010
vn -0.6596 0.3604 -0.6596
vn -0.9010 0.3604 -0.2414
vn -0.9010 0.3604 0.2414
vn -0.6596 0.3604 0.6596
vn -0.2414 0.3604 0.9010
vn 0.2414 0.3604 0.9010
vn 0.6596 0.3604 0.6596
vn 0.9010 0.3604 0.2414
vn 0.9484 0.1897 -0.2541
vn 0.6943 0.1897 -0.6943
vn 0.2541 0.1897 -0.9484
vn -0.2541 0.1897 -0.9484
vn -0.6943 0.1897 -0.6943
vn -0.9484 0.1897 -0.2541
vn -0.9484 0.1897 0.2541
vn -0.6943 0.1897 0.6943
vn -0.2541 0.1897 0.9484
vn 0.2541 0.1897 0.9484
vn 0.6943 0.1897 0.6943
vn 0.9484 0.1897 0.2541
vn -0.0000 1.0000 -0.0000
vn -0.5982 0.7851 0.1603
vn -0.4379 0.7851 0.4379
vn -0.1603 0.7851 0.5982
vn 0.1603 0.7851 0.5982
vn 0.4379 0.7851 0.4379
vn 0.5982 0.7851 0.1603
vn 0.5982 0.7851 -0.1603
vn 0.4379 0.7851 -0.4379
vn 0.1603 0.7851 -0.5982
vn -0.1603 0.7851 -0.5982
vn -0.4379 0.7851 -0.4379
vn -0.5982 0.7851 -0.1603
vn 0.8660 -0.0000 -0.5000
vn -0.0000 -0.0000 -1.0000
vn -0.8660 -0.0000 -0.5000
vn -0.8660 -0.0000 0.5000
vn -0.0000 -0.0000 1.0000
vn 0.8660 -0.0000 0.5000
vt 0.937500 0.687500
vt 0.687500 0.562500
vt 0.437500 0.312500
s 0
usemtl FN_Atlas
f 1/1/1 2/1/1 3/1/1 4/1/1 5/1/1 6/1/1 7/1/1 8/1/1 9/1/1 10/1/1 11/1/1 12/1/1
f 12/1/2 11/1/2 13/1/2 14/1/2
f 11/1/3 10/1/3 15/1/3 13/1/3
f 10/1/4 9/1/4 16/1/4 15/1/4
f 9/1/5 8/1/5 17/1/5 16/1/5
f 8/1/6 7/1/6 18/1/6 17/1/6
f 7/1/7 6/1/7 19/1/7 18/1/7
f 6/1/8 5/1/8 20/1/8 19/1/8
f 5/1/9 4/1/9 21/1/9 20/1/9
f 4/1/10 3/1/10 22/1/10 21/1/10
f 3/1/11 2/1/11 23/1/11 22/1/11
f 2/1/12 1/1/12 24/1/12 23/1/12
f 1/1/13 12/1/13 14/1/13 24/1/13
f 14/2/14 13/2/14 25/2/14 26/2/14
f 13/2/15 15/2/15 27/2/15 25/2/15
f 15/2/16 16/2/16 28/2/16 27/2/16
f 16/2/17 17/2/17 29/2/17 28/2/17
f 17/2/18 18/2/18 30/2/18 29/2/18
f 18/2/19 19/2/19 31/2/19 30/2/19
f 19/2/20 20/2/20 32/2/20 31/2/20
f 20/2/21 21/2/21 33/2/21 32/2/21
f 21/2/22 22/2/22 34/2/22 33/2/22
f 22/2/23 23/2/23 35/2/23 34/2/23
f 23/2/24 24/2/24 36/2/24 35/2/24
f 24/2/25 14/2/25 26/2/25 36/2/25
f 26/1/26 25/1/26 37/1/26 38/1/26
f 25/1/27 27/1/27 39/1/27 37/1/27
f 27/1/28 28/1/28 40/1/28 39/1/28
f 28/1/29 29/1/29 41/1/29 40/1/29
f 29/1/30 30/1/30 42/1/30 41/1/30
f 30/1/31 31/1/31 43/1/31 42/1/31
f 31/1/32 32/1/32 44/1/32 43/1/32
f 32/1/33 33/1/33 45/1/33 44/1/33
f 33/1/34 34/1/34 46/1/34 45/1/34
f 34/1/35 35/1/35 47/1/35 46/1/35
f 35/1/36 36/1/36 48/1/36 47/1/36
f 36/1/37 26/1/37 38/1/37 48/1/37
f 38/1/38 37/1/38 49/1/38 50/1/38
f 37/1/39 39/1/39 51/1/39 49/1/39
f 39/1/40 40/1/40 52/1/40 51/1/40
f 40/1/41 41/1/41 53/1/41 52/1/41
f 41/1/42 42/1/42 54/1/42 53/1/42
f 42/1/43 43/1/43 55/1/43 54/1/43
f 43/1/44 44/1/44 56/1/44 55/1/44
f 44/1/45 45/1/45 57/1/45 56/1/45
f 45/1/46 46/1/46 58/1/46 57/1/46
f 46/1/47 47/1/47 59/1/47 58/1/47
f 47/1/48 48/1/48 60/1/48 59/1/48
f 48/1/49 38/1/49 50/1/49 60/1/49
f 50/1/50 49/1/50 61/1/50 62/1/50
f 49/1/51 51/1/51 63/1/51 61/1/51
f 51/1/52 52/1/52 64/1/52 63/1/52
f 52/1/53 53/1/53 65/1/53 64/1/53
f 53/1/54 54/1/54 66/1/54 65/1/54
f 54/1/55 55/1/55 67/1/55 66/1/55
f 55/1/56 56/1/56 68/1/56 67/1/56
f 56/1/57 57/1/57 69/1/57 68/1/57
f 57/1/58 58/1/58 70/1/58 69/1/58
f 58/1/59 59/1/59 71/1/59 70/1/59
f 59/1/60 60/1/60 72/1/60 71/1/60
f 60/1/61 50/1/61 62/1/61 72/1/61
f 62/2/62 61/2/62 73/2/62 74/2/62
f 61/2/63 63/2/63 75/2/63 73/2/63
f 63/2/64 64/2/64 76/2/64 75/2/64
f 64/2/65 65/2/65 77/2/65 76/2/65
f 65/2/66 66/2/66 78/2/66 77/2/66
f 66/2/67 67/2/67 79/2/67 78/2/67
f 67/2/68 68/2/68 80/2/68 79/2/68
f 68/2/69 69/2/69 81/2/69 80/2/69
f 69/2/70 70/2/70 82/2/70 81/2/70
f 70/2/71 71/2/71 83/2/71 82/2/71
f 71/2/72 72/2/72 84/2/72 83/2/72
f 72/2/73 62/2/73 74/2/73 84/2/73
f 74/2/74 73/2/74 85/2/74 86/2/74
f 73/2/74 75/2/74 87/2/74 85/2/74
f 75/2/74 76/2/74 88/2/74 87/2/74
f 76/2/74 77/2/74 89/2/74 88/2/74
f 77/2/74 78/2/74 90/2/74 89/2/74
f 78/2/74 79/2/74 91/2/74 90/2/74
f 79/2/74 80/2/74 92/2/74 91/2/74
f 80/2/74 81/2/74 93/2/74 92/2/74
f 81/2/74 82/2/74 94/2/74 93/2/74
f 82/2/74 83/2/74 95/2/74 94/2/74
f 83/2/74 84/2/74 96/2/74 95/2/74
f 84/2/74 74/2/74 86/2/74 96/2/74
f 86/2/75 85/2/75 97/2/75 98/2/75
f 85/2/76 87/2/76 99/2/76 97/2/76
f 87/2/77 88/2/77 100/2/77 99/2/77
f 88/2/78 89/2/78 101/2/78 100/2/78
f 89/2/79 90/2/79 102/2/79 101/2/79
f 90/2/80 91/2/80 103/2/80 102/2/80
f 91/2/81 92/2/81 104/2/81 103/2/81
f 92/2/82 93/2/82 105/2/82 104/2/82
f 93/2/83 94/2/83 106/2/83 105/2/83
f 94/2/84 95/2/84 107/2/84 106/2/84
f 95/2/85 96/2/85 108/2/85 107/2/85
f 96/2/86 86/2/86 98/2/86 108/2/86
f 98/2/74 97/2/74 99/2/74 100/2/74 101/2/74 102/2/74 103/2/74 104/2/74 105/2/74 106/2/74 107/2/74 108/2/74
f 109/3/1 110/3/1 111/3/1 112/3/1 113/3/1 114/3/1
f 115/3/74 116/3/74 117/3/74 118/3/74 119/3/74 120/3/74
f 114/3/87 113/3/87 116/3/87 115/3/87
f 113/3/88 112/3/88 117/3/88 116/3/88
f 112/3/89 111/3/89 118/3/89 117/3/89
f 111/3/90 110/3/90 119/3/90 118/3/90
f 110/3/91 109/3/91 120/3/91 119/3/91
f 109/3/92 114/3/92 115/3/92 120/3/92
