# Blender 5.2.0 LTS
# www.blender.org
mtllib FN_Stool_Step.mtl
o FN_Stool_Step
v -0.210000 0.014000 -0.201500
v -0.210000 0.440000 -0.201500
v -0.210000 0.440000 0.024500
v -0.210000 0.226000 0.024500
v -0.210000 0.226000 0.198500
v -0.210000 0.014000 0.198500
v -0.190000 0.014000 0.198500
v -0.190000 0.226000 0.198500
v -0.190000 0.226000 0.024500
v -0.190000 0.440000 0.024500
v -0.190000 0.440000 -0.201500
v -0.190000 0.014000 -0.201500
v -0.213000 0.000000 0.186500
v -0.213000 0.000000 0.106500
v -0.187000 0.000000 0.106500
v -0.187000 0.000000 0.186500
v -0.213000 0.016000 0.186500
v -0.187000 0.016000 0.186500
v -0.187000 0.016000 0.106500
v -0.213000 0.016000 0.106500
v -0.213000 0.000000 -0.109500
v -0.213000 0.000000 -0.189500
v -0.187000 0.000000 -0.189500
v -0.187000 0.000000 -0.109500
v -0.213000 0.016000 -0.109500
v -0.187000 0.016000 -0.109500
v -0.187000 0.016000 -0.189500
v -0.213000 0.016000 -0.189500
v 0.190000 0.014000 -0.201500
v 0.190000 0.440000 -0.201500
v 0.190000 0.440000 0.024500
v 0.190000 0.226000 0.024500
v 0.190000 0.226000 0.198500
v 0.190000 0.014000 0.198500
v 0.210000 0.014000 0.198500
v 0.210000 0.226000 0.198500
v 0.210000 0.226000 0.024500
v 0.210000 0.440000 0.024500
v 0.210000 0.440000 -0.201500
v 0.210000 0.014000 -0.201500
v 0.187000 0.000000 0.186500
v 0.187000 0.000000 0.106500
v 0.213000 0.000000 0.106500
v 0.213000 0.000000 0.186500
v 0.187000 0.016000 0.186500
v 0.213000 0.016000 0.186500
v 0.213000 0.016000 0.106500
v 0.187000 0.016000 0.106500
v 0.187000 0.000000 -0.109500
v 0.187000 0.000000 -0.189500
v 0.213000 0.000000 -0.189500
v 0.213000 0.000000 -0.109500
v 0.187000 0.016000 -0.109500
v 0.213000 0.016000 -0.109500
v 0.213000 0.016000 -0.189500
v 0.187000 0.016000 -0.189500
v -0.190000 0.204000 0.042500
v -0.190000 0.204000 0.024500
v 0.190000 0.204000 0.024500
v 0.190000 0.204000 0.042500
v -0.190000 0.418000 0.042500
v 0.190000 0.418000 0.042500
v 0.190000 0.418000 0.024500
v -0.190000 0.418000 0.024500
v -0.190000 0.060000 -0.177500
v -0.190000 0.060000 -0.197500
v 0.190000 0.060000 -0.197500
v 0.190000 0.060000 -0.177500
v -0.190000 0.150000 -0.177500
v 0.190000 0.150000 -0.177500
v 0.190000 0.150000 -0.197500
v -0.190000 0.150000 -0.197500
v -0.198372 0.204000 0.037392
v 0.198372 0.204000 0.037392
v 0.198372 0.204000 0.199608
v -0.198372 0.204000 0.199608
v 0.203000 0.209000 0.201500
v -0.203000 0.209000 0.201500
v 0.203000 0.209000 0.035500
v -0.203000 0.209000 0.035500
v 0.203000 0.221000 0.201500
v -0.203000 0.221000 0.201500
v 0.203000 0.221000 0.035500
v -0.203000 0.221000 0.035500
v -0.198372 0.226000 0.199608
v 0.198372 0.226000 0.199608
v 0.198372 0.226000 0.037392
v -0.198372 0.226000 0.037392
v -0.198724 0.418000 -0.191909
v 0.198724 0.418000 -0.191909
v 0.198724 0.418000 0.048909
v -0.198724 0.418000 0.048909
v 0.203000 0.423000 0.051500
v -0.203000 0.423000 0.051500
v 0.203000 0.423000 -0.194500
v -0.203000 0.423000 -0.194500
v 0.203000 0.435000 0.051500
v -0.203000 0.435000 0.051500
v 0.203000 0.435000 -0.194500
v -0.203000 0.435000 -0.194500
v -0.198724 0.440000 0.048909
v 0.198724 0.440000 0.048909
v 0.198724 0.440000 -0.191909
v -0.198724 0.440000 -0.191909
vn 1.0000 -0.0000 -0.0000
vn -1.0000 -0.0000 -0.0000
vn -0.0000 -0.0000 -1.0000
vn -0.0000 -1.0000 -0.0000
vn -0.0000 -0.0000 1.0000
vn -0.0000 1.0000 -0.0000
vn -0.0000 -0.3540 0.9353
vn 0.7339 -0.6793 -0.0000
vn -0.0000 -0.3540 -0.9353
vn -0.7339 -0.6793 -0.0000
vn -0.0000 0.3540 0.9353
vn 0.7339 0.6793 -0.0000
vn -0.0000 0.3540 -0.9353
vn -0.7339 0.6793 -0.0000
vn -0.0000 -0.4601 0.8879
vn 0.7600 -0.6500 -0.0000
vn -0.0000 -0.4601 -0.8879
vn -0.7600 -0.6500 -0.0000
vn -0.0000 0.4601 0.8879
vn 0.7600 0.6500 -0.0000
vn -0.0000 0.4601 -0.8879
vn -0.7600 0.6500 -0.0000
vt 0.437500 0.937500
vt 0.812500 0.312500
vt 0.812500 0.937500
vt 0.687500 0.937500
s 0
usemtl FN_Atlas
f 1/1/1 2/1/1 3/1/1 4/1/1 5/1/1 6/1/1
f 7/1/2 8/1/2 9/1/2 10/1/2 11/1/2 12/1/2
f 6/1/3 5/1/3 8/1/3 7/1/3
f 5/1/4 4/1/4 9/1/4 8/1/4
f 4/1/3 3/1/3 10/1/3 9/1/3
f 3/1/4 2/1/4 11/1/4 10/1/4
f 2/1/5 1/1/5 12/1/5 11/1/5
f 1/1/6 6/1/6 7/1/6 12/1/6
f 13/2/4 14/2/4 15/2/4 16/2/4
f 17/2/6 18/2/6 19/2/6 20/2/6
f 13/2/5 16/2/5 18/2/5 17/2/5
f 15/2/3 14/2/3 20/2/3 19/2/3
f 13/2/2 17/2/2 20/2/2 14/2/2
f 16/2/1 15/2/1 19/2/1 18/2/1
f 21/2/4 22/2/4 23/2/4 24/2/4
f 25/2/6 26/2/6 27/2/6 28/2/6
f 21/2/5 24/2/5 26/2/5 25/2/5
f 23/2/3 22/2/3 28/2/3 27/2/3
f 21/2/2 25/2/2 28/2/2 22/2/2
f 24/2/1 23/2/1 27/2/1 26/2/1
f 29/1/1 30/1/1 31/1/1 32/1/1 33/1/1 34/1/1
f 35/1/2 36/1/2 37/1/2 38/1/2 39/1/2 40/1/2
f 34/1/3 33/1/3 36/1/3 35/1/3
f 33/1/4 32/1/4 37/1/4 36/1/4
f 32/1/3 31/1/3 38/1/3 37/1/3
f 31/1/4 30/1/4 39/1/4 38/1/4
f 30/1/5 29/1/5 40/1/5 39/1/5
f 29/1/6 34/1/6 35/1/6 40/1/6
f 41/2/4 42/2/4 43/2/4 44/2/4
f 45/2/6 46/2/6 47/2/6 48/2/6
f 41/2/5 44/2/5 46/2/5 45/2/5
f 43/2/3 42/2/3 48/2/3 47/2/3
f 41/2/2 45/2/2 48/2/2 42/2/2
f 44/2/1 43/2/1 47/2/1 46/2/1
f 49/2/4 50/2/4 51/2/4 52/2/4
f 53/2/6 54/2/6 55/2/6 56/2/6
f 49/2/5 52/2/5 54/2/5 53/2/5
f 51/2/3 50/2/3 56/2/3 55/2/3
f 49/2/2 53/2/2 56/2/2 50/2/2
f 52/2/1 51/2/1 55/2/1 54/2/1
f 57/1/4 58/1/4 59/1/4 60/1/4
f 61/1/6 62/1/6 63/1/6 64/1/6
f 57/1/5 60/1/5 62/1/5 61/1/5
f 59/1/3 58/1/3 64/1/3 63/1/3
f 57/1/2 61/1/2 64/1/2 58/1/2
f 60/1/1 59/1/1 63/1/1 62/1/1
f 65/1/4 66/1/4 67/1/4 68/1/4
f 69/1/6 70/1/6 71/1/6 72/1/6
f 65/1/5 68/1/5 70/1/5 69/1/5
f 67/1/3 66/1/3 72/1/3 71/1/3
f 65/1/2 69/1/2 72/1/2 66/1/2
f 68/1/1 67/1/1 71/1/1 70/1/1
f 73/3/4 74/3/4 75/3/4 76/3/4
f 76/3/7 75/3/7 77/3/7 78/3/7
f 75/3/8 74/3/8 79/3/8 77/3/8
f 74/3/9 73/3/9 80/3/9 79/3/9
f 73/3/10 76/3/10 78/3/10 80/3/10
f 78/3/5 77/3/5 81/3/5 82/3/5
f 77/3/1 79/3/1 83/3/1 81/3/1
f 79/3/3 80/3/3 84/3/3 83/3/3
f 80/3/2 78/3/2 82/3/2 84/3/2
f 85/4/6 86/4/6 87/4/6 88/4/6
f 82/3/11 81/3/11 86/3/11 85/3/11
f 81/3/12 83/3/12 87/3/12 86/3/12
f 83/3/13 84/3/13 88/3/13 87/3/13
f 84/3/14 82/3/14 85/3/14 88/3/14
f 89/3/4 90/3/4 91/3/4 92/3/4
f 92/3/15 91/3/15 93/3/15 94/3/15
f 91/3/16 90/3/16 95/3/16 93/3/16
f 90/3/17 89/3/17 96/3/17 95/3/17
f 89/3/18 92/3/18 94/3/18 96/3/18
f 94/3/5 93/3/5 97/3/5 98/3/5
f 93/3/1 95/3/1 99/3/1 97/3/1
f 95/3/3 96/3/3 100/3/3 99/3/3
f 96/3/2 94/3/2 98/3/2 100/3/2
f 101/4/6 102/4/6 103/4/6 104/4/6
f 98/3/19 97/3/19 102/3/19 101/3/19
f 97/3/20 99/3/20 103/3/20 102/3/20
f 99/3/21 100/3/21 104/3/21 103/3/21
f 100/3/22 98/3/22 101/3/22 104/3/22
