# Blender 5.2.0 LTS
# www.blender.org
mtllib FN_Stool_Ottoman.mtl
o FN_Stool_Ottoman
v 0.158079 0.155929 -0.158768
v 0.144715 0.154085 -0.164195
v 0.131906 0.149848 -0.158768
v 0.127157 0.145700 -0.145664
v 0.133249 0.144071 -0.132560
v 0.146613 0.145915 -0.127133
v 0.159422 0.150152 -0.132560
v 0.164171 0.154300 -0.145664
v 0.189880 0.012716 -0.178191
v 0.186880 0.010096 -0.169915
v 0.178790 0.007420 -0.166487
v 0.170350 0.006255 -0.169915
v 0.166502 0.007284 -0.178191
v 0.169502 0.009904 -0.186467
v 0.177591 0.012580 -0.189895
v 0.186032 0.013745 -0.186467
v 0.186191 0.000000 -0.164335
v 0.170191 0.000000 -0.164335
v 0.162191 0.000000 -0.178191
v 0.170191 0.000000 -0.192047
v 0.186191 0.000000 -0.192047
v 0.194191 0.000000 -0.178191
v 0.191191 0.014000 -0.178191
v 0.184691 0.014000 -0.189449
v 0.171691 0.014000 -0.189449
v 0.165191 0.014000 -0.178191
v 0.171691 0.014000 -0.166933
v 0.184691 0.014000 -0.166933
v -0.131906 0.149848 -0.158768
v -0.144715 0.154085 -0.164195
v -0.158079 0.155929 -0.158768
v -0.164171 0.154300 -0.145664
v -0.159422 0.150152 -0.132560
v -0.146613 0.145915 -0.127133
v -0.133249 0.144071 -0.132560
v -0.127157 0.145700 -0.145664
v -0.166502 0.007284 -0.178191
v -0.170350 0.006255 -0.169915
v -0.178790 0.007420 -0.166487
v -0.186880 0.010096 -0.169915
v -0.189880 0.012716 -0.178191
v -0.186032 0.013745 -0.186467
v -0.177591 0.012580 -0.189895
v -0.169502 0.009904 -0.186467
v -0.170191 0.000000 -0.164335
v -0.186191 0.000000 -0.164335
v -0.194191 0.000000 -0.178191
v -0.186191 0.000000 -0.192047
v -0.170191 0.000000 -0.192047
v -0.162191 0.000000 -0.178191
v -0.165191 0.014000 -0.178191
v -0.171691 0.014000 -0.189449
v -0.184691 0.014000 -0.189449
v -0.191191 0.014000 -0.178191
v -0.184691 0.014000 -0.166933
v -0.171691 0.014000 -0.166933
v -0.133249 0.144071 0.132560
v -0.146613 0.145915 0.127133
v -0.159422 0.150152 0.132560
v -0.164171 0.154300 0.145664
v -0.158079 0.155929 0.158768
v -0.144715 0.154085 0.164195
v -0.131906 0.149848 0.158768
v -0.127157 0.145700 0.145664
v -0.166502 0.007284 0.178191
v -0.169502 0.009904 0.186467
v -0.177591 0.012580 0.189895
v -0.186032 0.013745 0.186467
v -0.189880 0.012716 0.178191
v -0.186880 0.010096 0.169915
v -0.178790 0.007420 0.166487
v -0.170350 0.006255 0.169915
v -0.170191 0.000000 0.192047
v -0.186191 0.000000 0.192047
v -0.194191 0.000000 0.178191
v -0.186191 0.000000 0.164335
v -0.170191 0.000000 0.164335
v -0.162191 0.000000 0.178191
v -0.165191 0.014000 0.178191
v -0.171691 0.014000 0.166933
v -0.184691 0.014000 0.166933
v -0.191191 0.014000 0.178191
v -0.184691 0.014000 0.189449
v -0.171691 0.014000 0.189449
v 0.159422 0.150152 0.132560
v 0.146613 0.145915 0.127133
v 0.133249 0.144071 0.132560
v 0.127157 0.145700 0.145664
v 0.131906 0.149848 0.158768
v 0.144715 0.154085 0.164195
v 0.158079 0.155929 0.158768
v 0.164171 0.154300 0.145664
v 0.189880 0.012716 0.178191
v 0.186032 0.013745 0.186467
v 0.177591 0.012580 0.189895
v 0.169502 0.009904 0.186467
v 0.166502 0.007284 0.178191
v 0.170350 0.006255 0.169915
v 0.178790 0.007420 0.166487
v 0.186880 0.010096 0.169915
v 0.186191 0.000000 0.192047
v 0.170191 0.000000 0.192047
v 0.162191 0.000000 0.178191
v 0.170191 0.000000 0.164335
v 0.186191 0.000000 0.164335
v 0.194191 0.000000 0.178191
v 0.191191 0.014000 0.178191
v 0.184691 0.014000 0.166933
v 0.171691 0.014000 0.166933
v 0.165191 0.014000 0.178191
v 0.171691 0.014000 0.189449
v 0.184691 0.014000 0.189449
v 0.223579 0.128000 0.092609
v 0.171120 0.128000 0.171120
v 0.092609 0.128000 0.223579
v -0.000000 0.128000 0.242000
v -0.092609 0.128000 0.223579
v -0.171120 0.128000 0.171120
v -0.223579 0.128000 0.092609
v -0.242000 0.128000 -0.000000
v -0.223579 0.128000 -0.092609
v -0.171120 0.128000 -0.171120
v -0.092609 0.128000 -0.223579
v 0.000000 0.128000 -0.242000
v 0.092609 0.128000 -0.223579
v 0.171120 0.128000 -0.171120
v 0.223579 0.128000 -0.092609
v 0.242000 0.128000 0.000000
v 0.251295 0.158000 -0.104090
v 0.272000 0.158000 0.000000
v 0.192333 0.158000 -0.192333
v 0.104090 0.158000 -0.251295
v 0.000000 0.158000 -0.272000
v -0.104090 0.158000 -0.251295
v -0.192333 0.158000 -0.192333
v -0.251295 0.158000 -0.104090
v -0.272000 0.158000 -0.000000
v -0.251295 0.158000 0.104090
v -0.192333 0.158000 0.192333
v -0.104090 0.158000 0.251295
v -0.000000 0.158000 0.272000
v 0.104090 0.158000 0.251295
v 0.192333 0.158000 0.192333
v 0.251295 0.158000 0.104090
v 0.258686 0.372000 -0.107151
v 0.280000 0.372000 0.000000
v 0.197990 0.372000 -0.197990
v 0.107151 0.372000 -0.258686
v 0.000000 0.372000 -0.280000
v -0.107151 0.372000 -0.258686
v -0.197990 0.372000 -0.197990
v -0.258686 0.372000 -0.107151
v -0.280000 0.372000 -0.000000
v -0.258686 0.372000 0.107151
v -0.197990 0.372000 0.197990
v -0.107151 0.372000 0.258686
v -0.000000 0.372000 0.280000
v 0.107151 0.372000 0.258686
v 0.197990 0.372000 0.197990
v 0.258686 0.372000 0.107151
v 0.258686 0.392000 -0.107151
v 0.280000 0.392000 0.000000
v 0.197990 0.392000 -0.197990
v 0.107151 0.392000 -0.258686
v 0.000000 0.392000 -0.280000
v -0.107151 0.392000 -0.258686
v -0.197990 0.392000 -0.197990
v -0.258686 0.392000 -0.107151
v -0.280000 0.392000 -0.000000
v -0.258686 0.392000 0.107151
v -0.197990 0.392000 0.197990
v -0.107151 0.392000 0.258686
v -0.000000 0.392000 0.280000
v 0.107151 0.392000 0.258686
v 0.197990 0.392000 0.197990
v 0.258686 0.392000 0.107151
v 0.262382 0.400000 -0.108682
v 0.284000 0.400000 0.000000
v 0.200818 0.400000 -0.200818
v 0.108682 0.400000 -0.262382
v 0.000000 0.400000 -0.284000
v -0.108682 0.400000 -0.262382
v -0.200818 0.400000 -0.200818
v -0.262382 0.400000 -0.108682
v -0.284000 0.400000 -0.000000
v -0.262382 0.400000 0.108682
v -0.200818 0.400000 0.200818
v -0.108682 0.400000 0.262382
v -0.000000 0.400000 0.284000
v 0.108682 0.400000 0.262382
v 0.200818 0.400000 0.200818
v 0.262382 0.400000 0.108682
v 0.256839 0.408000 -0.106386
v 0.278000 0.408000 0.000000
v 0.196576 0.408000 -0.196576
v 0.106386 0.408000 -0.256839
v 0.000000 0.408000 -0.278000
v -0.106386 0.408000 -0.256839
v -0.196576 0.408000 -0.196576
v -0.256839 0.408000 -0.106386
v -0.278000 0.408000 -0.000000
v -0.256839 0.408000 0.106386
v -0.196576 0.408000 0.196576
v -0.106386 0.408000 0.256839
v -0.000000 0.408000 0.278000
v 0.106386 0.408000 0.256839
v 0.196576 0.408000 0.196576
v 0.256839 0.408000 0.106386
v 0.214340 0.420000 -0.088783
v 0.232000 0.420000 0.000000
v 0.164049 0.420000 -0.164049
v 0.088783 0.420000 -0.214340
v 0.000000 0.420000 -0.232000
v -0.088783 0.420000 -0.214340
v -0.164049 0.420000 -0.164049
v -0.214340 0.420000 -0.088783
v -0.232000 0.420000 -0.000000
v -0.214340 0.420000 0.088783
v -0.164049 0.420000 0.164049
v -0.088783 0.420000 0.214340
v -0.000000 0.420000 0.232000
v 0.088783 0.420000 0.214340
v 0.164049 0.420000 0.164049
v 0.214340 0.420000 0.088783
vn -0.2207 0.9500 0.2207
vn 0.2207 -0.9500 -0.2207
vn 0.9278 0.0850 0.3632
vn 0.4282 -0.1536 0.8905
vn -0.3166 -0.3266 0.8905
vn -0.8703 -0.3327 0.3632
vn -0.9085 -0.1683 -0.3826
vn -0.4088 0.0703 -0.9099
vn 0.3360 0.2433 -0.9099
vn 0.8896 0.2494 -0.3826
vn -0.0000 -1.0000 -0.0000
vn -0.0000 1.0000 -0.0000
vn 0.8515 0.1825 -0.4916
vn -0.0000 0.1825 -0.9832
vn -0.8515 0.1825 -0.4916
vn -0.8515 0.1825 0.4916
vn -0.0000 0.1825 0.9832
vn 0.8515 0.1825 0.4916
vn 0.2207 0.9500 0.2207
vn -0.2207 -0.9500 -0.2207
vn 0.8703 -0.3327 0.3632
vn 0.3166 -0.3266 0.8905
vn -0.4282 -0.1536 0.8905
vn -0.9278 0.0850 0.3632
vn -0.8896 0.2494 -0.3826
vn -0.3360 0.2433 -0.9099
vn 0.4088 0.0703 -0.9099
vn 0.9085 -0.1683 -0.3826
vn 0.2207 0.9500 -0.2207
vn -0.2207 -0.9500 0.2207
vn 0.9085 -0.1683 0.3826
vn 0.4088 0.0703 0.9099
vn -0.3360 0.2433 0.9099
vn -0.8896 0.2494 0.3826
vn -0.9278 0.0850 -0.3632
vn -0.4282 -0.1536 -0.8905
vn 0.3166 -0.3266 -0.8905
vn 0.8703 -0.3327 -0.3632
vn -0.2207 0.9500 -0.2207
vn 0.2207 -0.9500 0.2207
vn 0.8896 0.2494 0.3826
vn 0.3360 0.2433 0.9099
vn -0.4088 0.0703 0.9099
vn -0.9085 -0.1683 0.3826
vn -0.8703 -0.3327 -0.3632
vn -0.3166 -0.3266 -0.8905
vn 0.4282 -0.1536 -0.8905
vn 0.9278 0.0850 -0.3632
vn 0.7002 -0.7002 -0.1393
vn 0.5936 -0.7002 -0.3966
vn 0.3966 -0.7002 -0.5936
vn 0.1393 -0.7002 -0.7002
vn -0.1393 -0.7002 -0.7002
vn -0.3966 -0.7002 -0.5936
vn -0.5936 -0.7002 -0.3966
vn -0.7002 -0.7002 -0.1393
vn -0.7002 -0.7002 0.1393
vn -0.5936 -0.7002 0.3966
vn -0.3966 -0.7002 0.5936
vn -0.1393 -0.7002 0.7002
vn 0.1393 -0.7002 0.7002
vn 0.3966 -0.7002 0.5936
vn 0.5936 -0.7002 0.3966
vn 0.7002 -0.7002 0.1393
vn 0.9801 -0.0366 -0.1950
vn 0.8309 -0.0366 -0.5552
vn 0.5552 -0.0366 -0.8309
vn 0.1950 -0.0366 -0.9801
vn -0.1950 -0.0366 -0.9801
vn -0.5552 -0.0366 -0.8309
vn -0.8309 -0.0366 -0.5552
vn -0.9801 -0.0366 -0.1950
vn -0.9801 -0.0366 0.1950
vn -0.8309 -0.0366 0.5552
vn -0.5552 -0.0366 0.8309
vn -0.1950 -0.0366 0.9801
vn 0.1950 -0.0366 0.9801
vn 0.5552 -0.0366 0.8309
vn 0.8309 -0.0366 0.5552
vn 0.9801 -0.0366 0.1950
vn 0.9808 -0.0000 -0.1951
vn 0.8315 -0.0000 -0.5556
vn 0.5556 -0.0000 -0.8315
vn 0.1951 -0.0000 -0.9808
vn -0.1951 -0.0000 -0.9808
vn -0.5556 -0.0000 -0.8315
vn -0.8315 -0.0000 -0.5556
vn -0.9808 -0.0000 -0.1951
vn -0.9808 -0.0000 0.1951
vn -0.8315 -0.0000 0.5556
vn -0.5556 -0.0000 0.8315
vn -0.1951 -0.0000 0.9808
vn 0.1951 -0.0000 0.9808
vn 0.5556 -0.0000 0.8315
vn 0.8315 -0.0000 0.5556
vn 0.9808 -0.0000 0.1951
vn 0.8806 -0.4403 -0.1752
vn 0.7465 -0.4403 -0.4988
vn 0.4988 -0.4403 -0.7465
vn 0.1752 -0.4403 -0.8806
vn -0.1752 -0.4403 -0.8806
vn -0.4988 -0.4403 -0.7465
vn -0.7465 -0.4403 -0.4988
vn -0.8806 -0.4403 -0.1752
vn -0.8806 -0.4403 0.1752
vn -0.7465 -0.4403 0.4988
vn -0.4988 -0.4403 0.7465
vn -0.1752 -0.4403 0.8806
vn 0.1752 -0.4403 0.8806
vn 0.4988 -0.4403 0.7465
vn 0.7465 -0.4403 0.4988
vn 0.8806 -0.4403 0.1752
vn 0.7901 0.5925 -0.1572
vn 0.6698 0.5925 -0.4475
vn 0.4475 0.5925 -0.6698
vn 0.1572 0.5925 -0.7901
vn -0.1572 0.5925 -0.7901
vn -0.4475 0.5925 -0.6698
vn -0.6698 0.5925 -0.4475
vn -0.7901 0.5925 -0.1572
vn -0.7901 0.5925 0.1572
vn -0.6698 0.5925 0.4475
vn -0.4475 0.5925 0.6698
vn -0.1572 0.5925 0.7901
vn 0.1572 0.5925 0.7901
vn 0.4475 0.5925 0.6698
vn 0.6698 0.5925 0.4475
vn 0.7901 0.5925 0.1572
vn 0.2521 0.9664 -0.0501
vn 0.2137 0.9664 -0.1428
vn 0.1428 0.9664 -0.2137
vn 0.0501 0.9664 -0.2521
vn -0.0501 0.9664 -0.2521
vn -0.1428 0.9664 -0.2137
vn -0.2137 0.9664 -0.1428
vn -0.2521 0.9664 -0.0501
vn -0.2521 0.9664 0.0501
vn -0.2137 0.9664 0.1428
vn -0.1428 0.9664 0.2137
vn -0.0501 0.9664 0.2521
vn 0.0501 0.9664 0.2521
vn 0.1428 0.9664 0.2137
vn 0.2137 0.9664 0.1428
vn 0.2521 0.9664 0.0501
vt 0.437500 0.312500
vt 0.562500 0.437500
vt 0.312500 0.687500
s 0
usemtl FN_Atlas
f 1/1/1 2/1/1 3/1/1 4/1/1 5/1/1 6/1/1 7/1/1 8/1/1
f 9/1/2 10/1/2 11/1/2 12/1/2 13/1/2 14/1/2 15/1/2 16/1/2
f 8/1/3 7/1/3 10/1/3 9/1/3
f 7/1/4 6/1/4 11/1/4 10/1/4
f 6/1/5 5/1/5 12/1/5 11/1/5
f 5/1/6 4/1/6 13/1/6 12/1/6
f 4/1/7 3/1/7 14/1/7 13/1/7
f 3/1/8 2/1/8 15/1/8 14/1/8
f 2/1/9 1/1/9 16/1/9 15/1/9
f 1/1/10 8/1/10 9/1/10 16/1/10
f 17/1/11 18/1/11 19/1/11 20/1/11 21/1/11 22/1/11
f 23/1/12 24/1/12 25/1/12 26/1/12 27/1/12 28/1/12
f 22/1/13 21/1/13 24/1/13 23/1/13
f 21/1/14 20/1/14 25/1/14 24/1/14
f 20/1/15 19/1/15 26/1/15 25/1/15
f 19/1/16 18/1/16 27/1/16 26/1/16
f 18/1/17 17/1/17 28/1/17 27/1/17
f 17/1/18 22/1/18 23/1/18 28/1/18
f 29/1/19 30/1/19 31/1/19 32/1/19 33/1/19 34/1/19 35/1/19 36/1/19
f 37/1/20 38/1/20 39/1/20 40/1/20 41/1/20 42/1/20 43/1/20 44/1/20
f 36/1/21 35/1/21 38/1/21 37/1/21
f 35/1/22 34/1/22 39/1/22 38/1/22
f 34/1/23 33/1/23 40/1/23 39/1/23
f 33/1/24 32/1/24 41/1/24 40/1/24
f 32/1/25 31/1/25 42/1/25 41/1/25
f 31/1/26 30/1/26 43/1/26 42/1/26
f 30/1/27 29/1/27 44/1/27 43/1/27
f 29/1/28 36/1/28 37/1/28 44/1/28
f 45/1/11 46/1/11 47/1/11 48/1/11 49/1/11 50/1/11
f 51/1/12 52/1/12 53/1/12 54/1/12 55/1/12 56/1/12
f 50/1/13 49/1/13 52/1/13 51/1/13
f 49/1/14 48/1/14 53/1/14 52/1/14
f 48/1/15 47/1/15 54/1/15 53/1/15
f 47/1/16 46/1/16 55/1/16 54/1/16
f 46/1/17 45/1/17 56/1/17 55/1/17
f 45/1/18 50/1/18 51/1/18 56/1/18
f 57/1/29 58/1/29 59/1/29 60/1/29 61/1/29 62/1/29 63/1/29 64/1/29
f 65/1/30 66/1/30 67/1/30 68/1/30 69/1/30 70/1/30 71/1/30 72/1/30
f 64/1/31 63/1/31 66/1/31 65/1/31
f 63/1/32 62/1/32 67/1/32 66/1/32
f 62/1/33 61/1/33 68/1/33 67/1/33
f 61/1/34 60/1/34 69/1/34 68/1/34
f 60/1/35 59/1/35 70/1/35 69/1/35
f 59/1/36 58/1/36 71/1/36 70/1/36
f 58/1/37 57/1/37 72/1/37 71/1/37
f 57/1/38 64/1/38 65/1/38 72/1/38
f 73/1/11 74/1/11 75/1/11 76/1/11 77/1/11 78/1/11
f 79/1/12 80/1/12 81/1/12 82/1/12 83/1/12 84/1/12
f 78/1/13 77/1/13 80/1/13 79/1/13
f 77/1/14 76/1/14 81/1/14 80/1/14
f 76/1/15 75/1/15 82/1/15 81/1/15
f 75/1/16 74/1/16 83/1/16 82/1/16
f 74/1/17 73/1/17 84/1/17 83/1/17
f 73/1/18 78/1/18 79/1/18 84/1/18
f 85/1/39 86/1/39 87/1/39 88/1/39 89/1/39 90/1/39 91/1/39 92/1/39
f 93/1/40 94/1/40 95/1/40 96/1/40 97/1/40 98/1/40 99/1/40 100/1/40
f 92/1/41 91/1/41 94/1/41 93/1/41
f 91/1/42 90/1/42 95/1/42 94/1/42
f 90/1/43 89/1/43 96/1/43 95/1/43
f 89/1/44 88/1/44 97/1/44 96/1/44
f 88/1/45 87/1/45 98/1/45 97/1/45
f 87/1/46 86/1/46 99/1/46 98/1/46
f 86/1/47 85/1/47 100/1/47 99/1/47
f 85/1/48 92/1/48 93/1/48 100/1/48
f 101/1/11 102/1/11 103/1/11 104/1/11 105/1/11 106/1/11
f 107/1/12 108/1/12 109/1/12 110/1/12 111/1/12 112/1/12
f 106/1/13 105/1/13 108/1/13 107/1/13
f 105/1/14 104/1/14 109/1/14 108/1/14
f 104/1/15 103/1/15 110/1/15 109/1/15
f 103/1/16 102/1/16 111/1/16 110/1/16
f 102/1/17 101/1/17 112/1/17 111/1/17
f 101/1/18 106/1/18 107/1/18 112/1/18
f 113/2/11 114/2/11 115/2/11 116/2/11 117/2/11 118/2/11 119/2/11 120/2/11 121/2/11 122/2/11 123/2/11 124/2/11 125/2/11 126/2/11 127/2/11 128/2/11
f 128/2/49 127/2/49 129/2/49 130/2/49
f 127/2/50 126/2/50 131/2/50 129/2/50
f 126/2/51 125/2/51 132/2/51 131/2/51
f 125/2/52 124/2/52 133/2/52 132/2/52
f 124/2/53 123/2/53 134/2/53 133/2/53
f 123/2/54 122/2/54 135/2/54 134/2/54
f 122/2/55 121/2/55 136/2/55 135/2/55
f 121/2/56 120/2/56 137/2/56 136/2/56
f 120/2/57 119/2/57 138/2/57 137/2/57
f 119/2/58 118/2/58 139/2/58 138/2/58
f 118/2/59 117/2/59 140/2/59 139/2/59
f 117/2/60 116/2/60 141/2/60 140/2/60
f 116/2/61 115/2/61 142/2/61 141/2/61
f 115/2/62 114/2/62 143/2/62 142/2/62
f 114/2/63 113/2/63 144/2/63 143/2/63
f 113/2/64 128/2/64 130/2/64 144/2/64
f 130/2/65 129/2/65 145/2/65 146/2/65
f 129/2/66 131/2/66 147/2/66 145/2/66
f 131/2/67 132/2/67 148/2/67 147/2/67
f 132/2/68 133/2/68 149/2/68 148/2/68
f 133/2/69 134/2/69 150/2/69 149/2/69
f 134/2/70 135/2/70 151/2/70 150/2/70
f 135/2/71 136/2/71 152/2/71 151/2/71
f 136/2/72 137/2/72 153/2/72 152/2/72
f 137/2/73 138/2/73 154/2/73 153/2/73
f 138/2/74 139/2/74 155/2/74 154/2/74
f 139/2/75 140/2/75 156/2/75 155/2/75
f 140/2/76 141/2/76 157/2/76 156/2/76
f 141/2/77 142/2/77 158/2/77 157/2/77
f 142/2/78 143/2/78 159/2/78 158/2/78
f 143/2/79 144/2/79 160/2/79 159/2/79
f 144/2/80 130/2/80 146/2/80 160/2/80
f 146/2/81 145/2/81 161/2/81 162/2/81
f 145/2/82 147/2/82 163/2/82 161/2/82
f 147/2/83 148/2/83 164/2/83 163/2/83
f 148/2/84 149/2/84 165/2/84 164/2/84
f 149/2/85 150/2/85 166/2/85 165/2/85
f 150/2/86 151/2/86 167/2/86 166/2/86
f 151/2/87 152/2/87 168/2/87 167/2/87
f 152/2/88 153/2/88 169/2/88 168/2/88
f 153/2/89 154/2/89 170/2/89 169/2/89
f 154/2/90 155/2/90 171/2/90 170/2/90
f 155/2/91 156/2/91 172/2/91 171/2/91
f 156/2/92 157/2/92 173/2/92 172/2/92
f 157/2/93 158/2/93 174/2/93 173/2/93
f 158/2/94 159/2/94 175/2/94 174/2/94
f 159/2/95 160/2/95 176/2/95 175/2/95
f 160/2/96 146/2/96 162/2/96 176/2/96
f 162/3/97 161/3/97 177/3/97 178/3/97
f 161/3/98 163/3/98 179/3/98 177/3/98
f 163/3/99 164/3/99 180/3/99 179/3/99
f 164/3/100 165/3/100 181/3/100 180/3/100
f 165/3/101 166/3/101 182/3/101 181/3/101
f 166/3/102 167/3/102 183/3/102 182/3/102
f 167/3/103 168/3/103 184/3/103 183/3/103
f 168/3/104 169/3/104 185/3/104 184/3/104
f 169/3/105 170/3/105 186/3/105 185/3/105
f 170/3/106 171/3/106 187/3/106 186/3/106
f 171/3/107 172/3/107 188/3/107 187/3/107
f 172/3/108 173/3/108 189/3/108 188/3/108
f 173/3/109 174/3/109 190/3/109 189/3/109
f 174/3/110 175/3/110 191/3/110 190/3/110
f 175/3/111 176/3/111 192/3/111 191/3/111
f 176/3/112 162/3/112 178/3/112 192/3/112
f 178/3/113 177/3/113 193/3/113 194/3/113
f 177/3/114 179/3/114 195/3/114 193/3/114
f 179/3/115 180/3/115 196/3/115 195/3/115
f 180/3/116 181/3/116 197/3/116 196/3/116
f 181/3/117 182/3/117 198/3/117 197/3/117
f 182/3/118 183/3/118 199/3/118 198/3/118
f 183/3/119 184/3/119 200/3/119 199/3/119
f 184/3/120 185/3/120 201/3/120 200/3/120
f 185/3/121 186/3/121 202/3/121 201/3/121
f 186/3/122 187/3/122 203/3/122 202/3/122
f 187/3/123 188/3/123 204/3/123 203/3/123
f 188/3/124 189/3/124 205/3/124 204/3/124
f 189/3/125 190/3/125 206/3/125 205/3/125
f 190/3/126 191/3/126 207/3/126 206/3/126
f 191/3/127 192/3/127 208/3/127 207/3/127
f 192/3/128 178/3/128 194/3/128 208/3/128
f 194/2/129 193/2/129 209/2/129 210/2/129
f 193/2/130 195/2/130 211/2/130 209/2/130
f 195/2/131 196/2/131 212/2/131 211/2/131
f 196/2/132 197/2/132 213/2/132 212/2/132
f 197/2/133 198/2/133 214/2/133 213/2/133
f 198/2/134 199/2/134 215/2/134 214/2/134
f 199/2/135 200/2/135 216/2/135 215/2/135
f 200/2/136 201/2/136 217/2/136 216/2/136
f 201/2/137 202/2/137 218/2/137 217/2/137
f 202/2/138 203/2/138 219/2/138 218/2/138
f 203/2/139 204/2/139 220/2/139 219/2/139
f 204/2/140 205/2/140 221/2/140 220/2/140
f 205/2/141 206/2/141 222/2/141 221/2/141
f 206/2/142 207/2/142 223/2/142 222/2/142
f 207/2/143 208/2/143 224/2/143 223/2/143
f 208/2/144 194/2/144 210/2/144 224/2/144
f 210/2/12 209/2/12 211/2/12 212/2/12 213/2/12 214/2/12 215/2/12 216/2/12 217/2/12 218/2/12 219/2/12 220/2/12 221/2/12 222/2/12 223/2/12 224/2/12
