# Blender 5.2.0 LTS
# www.blender.org
mtllib FN_Stool_Dressing.mtl
o FN_Stool_Dressing
v -0.227000 0.000000 0.123000
v -0.203000 0.000000 0.123000
v -0.203000 0.000000 0.147000
v -0.227000 0.000000 0.147000
v -0.198000 0.380000 0.128000
v -0.162000 0.380000 0.128000
v -0.162000 0.380000 0.092000
v -0.198000 0.380000 0.092000
v -0.227000 0.000000 -0.147000
v -0.203000 0.000000 -0.147000
v -0.203000 0.000000 -0.123000
v -0.227000 0.000000 -0.123000
v -0.198000 0.380000 -0.092000
v -0.162000 0.380000 -0.092000
v -0.162000 0.380000 -0.128000
v -0.198000 0.380000 -0.128000
v 0.203000 0.000000 0.123000
v 0.227000 0.000000 0.123000
v 0.227000 0.000000 0.147000
v 0.203000 0.000000 0.147000
v 0.162000 0.380000 0.128000
v 0.198000 0.380000 0.128000
v 0.198000 0.380000 0.092000
v 0.162000 0.380000 0.092000
v 0.203000 0.000000 -0.147000
v 0.227000 0.000000 -0.147000
v 0.227000 0.000000 -0.123000
v 0.203000 0.000000 -0.123000
v 0.162000 0.380000 -0.092000
v 0.198000 0.380000 -0.092000
v 0.198000 0.380000 -0.128000
v 0.162000 0.380000 -0.128000
v 0.249908 0.360000 0.105164
v 0.218633 0.360000 0.142952
v 0.160840 0.360000 0.163402
v -0.000000 0.360000 0.170000
v -0.160840 0.360000 0.163402
v -0.218633 0.360000 0.142952
v -0.249908 0.360000 0.105164
v -0.260000 0.360000 -0.000000
v -0.249908 0.360000 -0.105164
v -0.218633 0.360000 -0.142952
v -0.160840 0.360000 -0.163402
v 0.000000 0.360000 -0.170000
v 0.160840 0.360000 -0.163402
v 0.218633 0.360000 -0.142952
v 0.249908 0.360000 -0.105164
v 0.260000 0.360000 0.000000
v 0.254907 0.371000 -0.107268
v 0.265200 0.371000 0.000000
v 0.223006 0.371000 -0.145811
v 0.164056 0.371000 -0.166670
v 0.000000 0.371000 -0.173400
v -0.164056 0.371000 -0.166670
v -0.223006 0.371000 -0.145811
v -0.254907 0.371000 -0.107268
v -0.265200 0.371000 -0.000000
v -0.254907 0.371000 0.107268
v -0.223006 0.371000 0.145811
v -0.164056 0.371000 0.166670
v -0.000000 0.371000 0.173400
v 0.164056 0.371000 0.166670
v 0.223006 0.371000 0.145811
v 0.254907 0.371000 0.107268
v 0.249908 0.382000 -0.105164
v 0.260000 0.382000 0.000000
v 0.218633 0.382000 -0.142952
v 0.160840 0.382000 -0.163402
v 0.000000 0.382000 -0.170000
v -0.160840 0.382000 -0.163402
v -0.218633 0.382000 -0.142952
v -0.249908 0.382000 -0.105164
v -0.260000 0.382000 -0.000000
v -0.249908 0.382000 0.105164
v -0.218633 0.382000 0.142952
v -0.160840 0.382000 0.163402
v -0.000000 0.382000 0.170000
v 0.160840 0.382000 0.163402
v 0.218633 0.382000 0.142952
v 0.249908 0.382000 0.105164
v 0.260000 0.378000 0.000000
v 0.249908 0.378000 -0.105164
v 0.249908 0.438000 -0.105164
v 0.260000 0.438000 0.000000
v 0.218633 0.378000 -0.142952
v 0.218633 0.438000 -0.142952
v 0.160840 0.378000 -0.163402
v 0.160840 0.438000 -0.163402
v 0.000000 0.378000 -0.170000
v 0.000000 0.438000 -0.170000
v -0.160840 0.378000 -0.163402
v -0.160840 0.438000 -0.163402
v -0.218633 0.378000 -0.142952
v -0.218633 0.438000 -0.142952
v -0.249908 0.378000 -0.105164
v -0.249908 0.438000 -0.105164
v -0.260000 0.378000 -0.000000
v -0.260000 0.438000 -0.000000
v -0.249908 0.378000 0.105164
v -0.249908 0.438000 0.105164
v -0.218633 0.378000 0.142952
v -0.218633 0.438000 0.142952
v -0.160840 0.378000 0.163402
v -0.160840 0.438000 0.163402
v -0.000000 0.378000 0.170000
v -0.000000 0.438000 0.170000
v 0.160840 0.378000 0.163402
v 0.160840 0.438000 0.163402
v 0.218633 0.378000 0.142952
v 0.218633 0.438000 0.142952
v 0.249908 0.378000 0.105164
v 0.249908 0.438000 0.105164
v 0.248000 0.450000 0.000000
v 0.238374 0.450000 -0.097741
v 0.208542 0.450000 -0.132862
v 0.153416 0.450000 -0.151867
v 0.000000 0.450000 -0.158000
v -0.153416 0.450000 -0.151867
v -0.208542 0.450000 -0.132862
v -0.238374 0.450000 -0.097741
v -0.248000 0.450000 -0.000000
v -0.238374 0.450000 0.097741
v -0.208542 0.450000 0.132862
v -0.153416 0.450000 0.151867
v -0.000000 0.450000 0.158000
v 0.153416 0.450000 0.151867
v 0.208542 0.450000 0.132862
v 0.238374 0.450000 0.097741
v -0.094600 0.460000 0.000000
v -0.097541 0.460000 -0.009052
v -0.105241 0.460000 -0.014646
v -0.114759 0.460000 -0.014646
v -0.122459 0.460000 -0.009052
v -0.125400 0.460000 -0.000000
v -0.122459 0.460000 0.009052
v -0.114759 0.460000 0.014646
v -0.105241 0.460000 0.014646
v -0.097541 0.460000 0.009052
v -0.088000 0.444000 0.000000
v -0.092202 0.444000 -0.012931
v -0.103202 0.444000 -0.020923
v -0.116798 0.444000 -0.020923
v -0.127798 0.444000 -0.012931
v -0.132000 0.444000 -0.000000
v -0.127798 0.444000 0.012931
v -0.116798 0.444000 0.020923
v -0.103202 0.444000 0.020923
v -0.092202 0.444000 0.012931
v 0.015400 0.460000 0.000000
v 0.012459 0.460000 -0.009052
v 0.004759 0.460000 -0.014646
v -0.004759 0.460000 -0.014646
v -0.012459 0.460000 -0.009052
v -0.015400 0.460000 -0.000000
v -0.012459 0.460000 0.009052
v -0.004759 0.460000 0.014646
v 0.004759 0.460000 0.014646
v 0.012459 0.460000 0.009052
v 0.022000 0.444000 0.000000
v 0.017798 0.444000 -0.012931
v 0.006798 0.444000 -0.020923
v -0.006798 0.444000 -0.020923
v -0.017798 0.444000 -0.012931
v -0.022000 0.444000 -0.000000
v -0.017798 0.444000 0.012931
v -0.006798 0.444000 0.020923
v 0.006798 0.444000 0.020923
v 0.017798 0.444000 0.012931
v 0.125400 0.460000 0.000000
v 0.122459 0.460000 -0.009052
v 0.114759 0.460000 -0.014646
v 0.105241 0.460000 -0.014646
v 0.097541 0.460000 -0.009052
v 0.094600 0.460000 -0.000000
v 0.097541 0.460000 0.009052
v 0.105241 0.460000 0.014646
v 0.114759 0.460000 0.014646
v 0.122459 0.460000 0.009052
v 0.132000 0.444000 0.000000
v 0.127798 0.444000 -0.012931
v 0.116798 0.444000 -0.020923
v 0.103202 0.444000 -0.020923
v 0.092202 0.444000 -0.012931
v 0.088000 0.444000 -0.000000
v 0.092202 0.444000 0.012931
v 0.103202 0.444000 0.020923
v 0.116798 0.444000 0.020923
v 0.127798 0.444000 0.012931
vn -0.0000 -1.0000 -0.0000
vn -0.0000 1.0000 -0.0000
vn -0.0000 0.0499 0.9988
vn 0.9942 -0.1073 -0.0000
vn -0.0000 -0.0813 -0.9967
vn -0.9971 0.0761 -0.0000
vn -0.0000 -0.0813 0.9967
vn -0.0000 0.0499 -0.9988
vn 0.9971 0.0761 -0.0000
vn -0.9942 -0.1073 -0.0000
vn 0.9007 -0.4258 -0.0864
vn 0.6967 -0.4268 -0.5766
vn 0.3121 -0.3533 -0.8819
vn 0.0392 -0.2951 -0.9547
vn -0.0392 -0.2951 -0.9547
vn -0.3121 -0.3533 -0.8819
vn -0.6967 -0.4268 -0.5766
vn -0.9007 -0.4258 -0.0864
vn -0.9007 -0.4258 0.0864
vn -0.6967 -0.4268 0.5766
vn -0.3121 -0.3533 0.8819
vn -0.0392 -0.2951 0.9547
vn 0.0392 -0.2951 0.9547
vn 0.3121 -0.3533 0.8819
vn 0.6967 -0.4268 0.5766
vn 0.9007 -0.4258 0.0864
vn 0.9007 0.4258 -0.0864
vn 0.6967 0.4268 -0.5766
vn 0.3121 0.3533 -0.8819
vn 0.0392 0.2951 -0.9547
vn -0.0392 0.2951 -0.9547
vn -0.3121 0.3533 -0.8819
vn -0.6967 0.4268 -0.5766
vn -0.9007 0.4258 -0.0864
vn -0.9007 0.4258 0.0864
vn -0.6967 0.4268 0.5766
vn -0.3121 0.3533 0.8819
vn -0.0392 0.2951 0.9547
vn 0.0392 0.2951 0.9547
vn 0.3121 0.3533 0.8819
vn 0.6967 0.4268 0.5766
vn 0.9007 0.4258 0.0864
vn 0.9954 -0.0000 -0.0955
vn 0.7704 -0.0000 -0.6376
vn 0.3336 -0.0000 -0.9427
vn 0.0410 -0.0000 -0.9992
vn -0.0410 -0.0000 -0.9992
vn -0.3336 -0.0000 -0.9427
vn -0.7704 -0.0000 -0.6376
vn -0.9954 -0.0000 -0.0955
vn -0.9954 -0.0000 0.0955
vn -0.7704 -0.0000 0.6376
vn -0.3336 -0.0000 0.9427
vn -0.0410 -0.0000 0.9992
vn 0.0410 -0.0000 0.9992
vn 0.3336 -0.0000 0.9427
vn 0.7704 -0.0000 0.6376
vn 0.9954 -0.0000 0.0955
vn 0.7017 0.7092 -0.0682
vn 0.5006 0.7572 -0.4196
vn 0.2228 0.7373 -0.6378
vn 0.0287 0.7044 -0.7092
vn -0.0287 0.7044 -0.7092
vn -0.2228 0.7373 -0.6378
vn -0.5006 0.7572 -0.4196
vn -0.7017 0.7092 -0.0682
vn -0.7017 0.7092 0.0682
vn -0.5006 0.7572 0.4196
vn -0.2228 0.7373 0.6378
vn -0.0287 0.7044 0.7092
vn 0.0287 0.7044 0.7092
vn 0.2228 0.7373 0.6378
vn 0.5006 0.7572 0.4196
vn 0.7017 0.7092 0.0682
vn 0.8854 0.3652 -0.2877
vn 0.5472 0.3652 -0.7531
vn -0.0000 0.3652 -0.9309
vn -0.5472 0.3652 -0.7531
vn -0.8854 0.3652 -0.2877
vn -0.8854 0.3652 0.2877
vn -0.5472 0.3652 0.7531
vn -0.0000 0.3652 0.9309
vn 0.5472 0.3652 0.7531
vn 0.8854 0.3652 0.2877
vt 0.937500 0.937500
vt 0.062500 0.687500
vt 0.812500 0.437500
s 0
usemtl FN_Atlas
f 1/1/1 2/1/1 3/1/1 4/1/1
f 5/1/2 6/1/2 7/1/2 8/1/2
f 4/1/3 3/1/3 6/1/3 5/1/3
f 3/1/4 2/1/4 7/1/4 6/1/4
f 2/1/5 1/1/5 8/1/5 7/1/5
f 1/1/6 4/1/6 5/1/6 8/1/6
f 9/1/1 10/1/1 11/1/1 12/1/1
f 13/1/2 14/1/2 15/1/2 16/1/2
f 12/1/7 11/1/7 14/1/7 13/1/7
f 11/1/4 10/1/4 15/1/4 14/1/4
f 10/1/8 9/1/8 16/1/8 15/1/8
f 9/1/6 12/1/6 13/1/6 16/1/6
f 17/1/1 18/1/1 19/1/1 20/1/1
f 21/1/2 22/1/2 23/1/2 24/1/2
f 20/1/3 19/1/3 22/1/3 21/1/3
f 19/1/9 18/1/9 23/1/9 22/1/9
f 18/1/5 17/1/5 24/1/5 23/1/5
f 17/1/10 20/1/10 21/1/10 24/1/10
f 25/1/1 26/1/1 27/1/1 28/1/1
f 29/1/2 30/1/2 31/1/2 32/1/2
f 28/1/7 27/1/7 30/1/7 29/1/7
f 27/1/9 26/1/9 31/1/9 30/1/9
f 26/1/8 25/1/8 32/1/8 31/1/8
f 25/1/10 28/1/10 29/1/10 32/1/10
f 33/2/1 34/2/1 35/2/1 36/2/1 37/2/1 38/2/1 39/2/1 40/2/1 41/2/1 42/2/1 43/2/1 44/2/1 45/2/1 46/2/1 47/2/1 48/2/1
f 48/2/11 47/2/11 49/2/11 50/2/11
f 47/2/12 46/2/12 51/2/12 49/2/12
f 46/2/13 45/2/13 52/2/13 51/2/13
f 45/2/14 44/2/14 53/2/14 52/2/14
f 44/2/15 43/2/15 54/2/15 53/2/15
f 43/2/16 42/2/16 55/2/16 54/2/16
f 42/2/17 41/2/17 56/2/17 55/2/17
f 41/2/18 40/2/18 57/2/18 56/2/18
f 40/2/19 39/2/19 58/2/19 57/2/19
f 39/2/20 38/2/20 59/2/20 58/2/20
f 38/2/21 37/2/21 60/2/21 59/2/21
f 37/2/22 36/2/22 61/2/22 60/2/22
f 36/2/23 35/2/23 62/2/23 61/2/23
f 35/2/24 34/2/24 63/2/24 62/2/24
f 34/2/25 33/2/25 64/2/25 63/2/25
f 33/2/26 48/2/26 50/2/26 64/2/26
f 50/2/27 49/2/27 65/2/27 66/2/27
f 49/2/28 51/2/28 67/2/28 65/2/28
f 51/2/29 52/2/29 68/2/29 67/2/29
f 52/2/30 53/2/30 69/2/30 68/2/30
f 53/2/31 54/2/31 70/2/31 69/2/31
f 54/2/32 55/2/32 71/2/32 70/2/32
f 55/2/33 56/2/33 72/2/33 71/2/33
f 56/2/34 57/2/34 73/2/34 72/2/34
f 57/2/35 58/2/35 74/2/35 73/2/35
f 58/2/36 59/2/36 75/2/36 74/2/36
f 59/2/37 60/2/37 76/2/37 75/2/37
f 60/2/38 61/2/38 77/2/38 76/2/38
f 61/2/39 62/2/39 78/2/39 77/2/39
f 62/2/40 63/2/40 79/2/40 78/2/40
f 63/2/41 64/2/41 80/2/41 79/2/41
f 64/2/42 50/2/42 66/2/42 80/2/42
f 81/3/43 82/3/43 83/3/43 84/3/43
f 82/3/44 85/3/44 86/3/44 83/3/44
f 85/3/45 87/3/45 88/3/45 86/3/45
f 87/3/46 89/3/46 90/3/46 88/3/46
f 89/3/47 91/3/47 92/3/47 90/3/47
f 91/3/48 93/3/48 94/3/48 92/3/48
f 93/3/49 95/3/49 96/3/49 94/3/49
f 95/3/50 97/3/50 98/3/50 96/3/50
f 97/3/51 99/3/51 100/3/51 98/3/51
f 99/3/52 101/3/52 102/3/52 100/3/52
f 101/3/53 103/3/53 104/3/53 102/3/53
f 103/3/54 105/3/54 106/3/54 104/3/54
f 105/3/55 107/3/55 108/3/55 106/3/55
f 107/3/56 109/3/56 110/3/56 108/3/56
f 109/3/57 111/3/57 112/3/57 110/3/57
f 111/3/58 81/3/58 84/3/58 112/3/58
f 113/3/2 114/3/2 115/3/2 116/3/2 117/3/2 118/3/2 119/3/2 120/3/2 121/3/2 122/3/2 123/3/2 124/3/2 125/3/2 126/3/2 127/3/2 128/3/2
f 84/3/59 83/3/59 114/3/59 113/3/59
f 83/3/60 86/3/60 115/3/60 114/3/60
f 86/3/61 88/3/61 116/3/61 115/3/61
f 88/3/62 90/3/62 117/3/62 116/3/62
f 90/3/63 92/3/63 118/3/63 117/3/63
f 92/3/64 94/3/64 119/3/64 118/3/64
f 94/3/65 96/3/65 120/3/65 119/3/65
f 96/3/66 98/3/66 121/3/66 120/3/66
f 98/3/67 100/3/67 122/3/67 121/3/67
f 100/3/68 102/3/68 123/3/68 122/3/68
f 102/3/69 104/3/69 124/3/69 123/3/69
f 104/3/70 106/3/70 125/3/70 124/3/70
f 106/3/71 108/3/71 126/3/71 125/3/71
f 108/3/72 110/3/72 127/3/72 126/3/72
f 110/3/73 112/3/73 128/3/73 127/3/73
f 112/3/74 84/3/74 113/3/74 128/3/74
f 129/2/2 130/2/2 131/2/2 132/2/2 133/2/2 134/2/2 135/2/2 136/2/2 137/2/2 138/2/2
f 139/2/75 140/2/75 130/2/75 129/2/75
f 140/2/76 141/2/76 131/2/76 130/2/76
f 141/2/77 142/2/77 132/2/77 131/2/77
f 142/2/78 143/2/78 133/2/78 132/2/78
f 143/2/79 144/2/79 134/2/79 133/2/79
f 144/2/80 145/2/80 135/2/80 134/2/80
f 145/2/81 146/2/81 136/2/81 135/2/81
f 146/2/82 147/2/82 137/2/82 136/2/82
f 147/2/83 148/2/83 138/2/83 137/2/83
f 148/2/84 139/2/84 129/2/84 138/2/84
f 149/2/2 150/2/2 151/2/2 152/2/2 153/2/2 154/2/2 155/2/2 156/2/2 157/2/2 158/2/2
f 159/2/75 160/2/75 150/2/75 149/2/75
f 160/2/76 161/2/76 151/2/76 150/2/76
f 161/2/77 162/2/77 152/2/77 151/2/77
f 162/2/78 163/2/78 153/2/78 152/2/78
f 163/2/79 164/2/79 154/2/79 153/2/79
f 164/2/80 165/2/80 155/2/80 154/2/80
f 165/2/81 166/2/81 156/2/81 155/2/81
f 166/2/82 167/2/82 157/2/82 156/2/82
f 167/2/83 168/2/83 158/2/83 157/2/83
f 168/2/84 159/2/84 149/2/84 158/2/84
f 169/2/2 170/2/2 171/2/2 172/2/2 173/2/2 174/2/2 175/2/2 176/2/2 177/2/2 178/2/2
f 179/2/75 180/2/75 170/2/75 169/2/75
f 180/2/76 181/2/76 171/2/76 170/2/76
f 181/2/77 182/2/77 172/2/77 171/2/77
f 182/2/78 183/2/78 173/2/78 172/2/78
f 183/2/79 184/2/79 174/2/79 173/2/79
f 184/2/80 185/2/80 175/2/80 174/2/80
f 185/2/81 186/2/81 176/2/81 175/2/81
f 186/2/82 187/2/82 177/2/82 176/2/82
f 187/2/83 188/2/83 178/2/83 177/2/83
f 188/2/84 179/2/84 169/2/84 178/2/84
