# Blender 5.2.0 LTS
# www.blender.org
mtllib FN_Shelf_Garden.mtl
o FN_Shelf_Garden
v -0.580000 0.000000 0.230000
v -0.580000 0.000000 0.190000
v -0.540000 0.000000 0.190000
v -0.540000 0.000000 0.230000
v -0.580000 0.820000 0.230000
v -0.540000 0.820000 0.230000
v -0.540000 0.820000 0.190000
v -0.580000 0.820000 0.190000
v -0.580000 0.000000 -0.190000
v -0.580000 0.000000 -0.230000
v -0.540000 0.000000 -0.230000
v -0.540000 0.000000 -0.190000
v -0.580000 0.820000 -0.190000
v -0.540000 0.820000 -0.190000
v -0.540000 0.820000 -0.230000
v -0.580000 0.820000 -0.230000
v 0.540000 0.000000 0.230000
v 0.540000 0.000000 0.190000
v 0.580000 0.000000 0.190000
v 0.580000 0.000000 0.230000
v 0.540000 0.820000 0.230000
v 0.580000 0.820000 0.230000
v 0.580000 0.820000 0.190000
v 0.540000 0.820000 0.190000
v 0.540000 0.000000 -0.190000
v 0.540000 0.000000 -0.230000
v 0.580000 0.000000 -0.230000
v 0.580000 0.000000 -0.190000
v 0.540000 0.820000 -0.190000
v 0.580000 0.820000 -0.190000
v 0.580000 0.820000 -0.230000
v 0.540000 0.820000 -0.230000
v -0.584000 0.786000 0.250000
v -0.584000 0.786000 -0.250000
v -0.536000 0.786000 -0.250000
v -0.536000 0.786000 0.250000
v -0.584000 0.826000 0.250000
v -0.536000 0.826000 0.250000
v -0.536000 0.826000 -0.250000
v -0.584000 0.826000 -0.250000
v 0.536000 0.786000 0.250000
v 0.536000 0.786000 -0.250000
v 0.584000 0.786000 -0.250000
v 0.584000 0.786000 0.250000
v 0.536000 0.826000 0.250000
v 0.584000 0.826000 0.250000
v 0.584000 0.826000 -0.250000
v 0.536000 0.826000 -0.250000
v -0.584000 0.366000 0.250000
v -0.584000 0.366000 -0.250000
v -0.536000 0.366000 -0.250000
v -0.536000 0.366000 0.250000
v -0.584000 0.406000 0.250000
v -0.536000 0.406000 0.250000
v -0.536000 0.406000 -0.250000
v -0.584000 0.406000 -0.250000
v 0.536000 0.366000 0.250000
v 0.536000 0.366000 -0.250000
v 0.584000 0.366000 -0.250000
v 0.584000 0.366000 0.250000
v 0.536000 0.406000 0.250000
v 0.584000 0.406000 0.250000
v 0.584000 0.406000 -0.250000
v 0.536000 0.406000 -0.250000
v -0.600000 0.820000 0.250000
v -0.600000 0.820000 0.166000
v 0.600000 0.820000 0.166000
v 0.600000 0.820000 0.250000
v -0.600000 0.850000 0.250000
v 0.600000 0.850000 0.250000
v 0.600000 0.850000 0.166000
v -0.600000 0.850000 0.166000
v -0.600000 0.820000 0.146000
v -0.600000 0.820000 0.062000
v 0.600000 0.820000 0.062000
v 0.600000 0.820000 0.146000
v -0.600000 0.850000 0.146000
v 0.600000 0.850000 0.146000
v 0.600000 0.850000 0.062000
v -0.600000 0.850000 0.062000
v -0.600000 0.820000 0.042000
v -0.600000 0.820000 -0.042000
v 0.600000 0.820000 -0.042000
v 0.600000 0.820000 0.042000
v -0.600000 0.850000 0.042000
v 0.600000 0.850000 0.042000
v 0.600000 0.850000 -0.042000
v -0.600000 0.850000 -0.042000
v -0.600000 0.820000 -0.062000
v -0.600000 0.820000 -0.146000
v 0.600000 0.820000 -0.146000
v 0.600000 0.820000 -0.062000
v -0.600000 0.850000 -0.062000
v 0.600000 0.850000 -0.062000
v 0.600000 0.850000 -0.146000
v -0.600000 0.850000 -0.146000
v -0.600000 0.820000 -0.166000
v -0.600000 0.820000 -0.250000
v 0.600000 0.820000 -0.250000
v 0.600000 0.820000 -0.166000
v -0.600000 0.850000 -0.166000
v 0.600000 0.850000 -0.166000
v 0.600000 0.850000 -0.250000
v -0.600000 0.850000 -0.250000
v -0.600000 0.400000 0.198000
v -0.600000 0.400000 0.114000
v 0.600000 0.400000 0.114000
v 0.600000 0.400000 0.198000
v -0.600000 0.430000 0.198000
v 0.600000 0.430000 0.198000
v 0.600000 0.430000 0.114000
v -0.600000 0.430000 0.114000
v -0.600000 0.400000 0.094000
v -0.600000 0.400000 0.010000
v 0.600000 0.400000 0.010000
v 0.600000 0.400000 0.094000
v -0.600000 0.430000 0.094000
v 0.600000 0.430000 0.094000
v 0.600000 0.430000 0.010000
v -0.600000 0.430000 0.010000
v -0.600000 0.400000 -0.010000
v -0.600000 0.400000 -0.094000
v 0.600000 0.400000 -0.094000
v 0.600000 0.400000 -0.010000
v -0.600000 0.430000 -0.010000
v 0.600000 0.430000 -0.010000
v 0.600000 0.430000 -0.094000
v -0.600000 0.430000 -0.094000
v -0.600000 0.400000 -0.114000
v -0.600000 0.400000 -0.198000
v 0.600000 0.400000 -0.198000
v 0.600000 0.400000 -0.114000
v -0.600000 0.430000 -0.114000
v 0.600000 0.430000 -0.114000
v 0.600000 0.430000 -0.198000
v -0.600000 0.430000 -0.198000
v -0.600000 0.838000 -0.232000
v -0.600000 0.838000 -0.250000
v 0.600000 0.838000 -0.250000
v 0.600000 0.838000 -0.232000
v -0.600000 0.930000 -0.232000
v 0.600000 0.930000 -0.232000
v 0.600000 0.930000 -0.250000
v -0.600000 0.930000 -0.250000
v -0.306967 0.846000 0.033033
v -0.360000 0.846000 0.055000
v -0.413033 0.846000 0.033033
v -0.435000 0.846000 -0.020000
v -0.413033 0.846000 -0.073033
v -0.360000 0.846000 -0.095000
v -0.306967 0.846000 -0.073033
v -0.285000 0.846000 -0.020000
v -0.265000 0.976000 -0.020000
v -0.292825 0.976000 -0.087175
v -0.360000 0.976000 -0.115000
v -0.427175 0.976000 -0.087175
v -0.455000 0.976000 -0.020000
v -0.427175 0.976000 0.047175
v -0.360000 0.976000 0.075000
v -0.292825 0.976000 0.047175
v -0.076159 0.846000 0.083841
v -0.120000 0.846000 0.102000
v -0.163841 0.846000 0.083841
v -0.182000 0.846000 0.040000
v -0.163841 0.846000 -0.003841
v -0.120000 0.846000 -0.022000
v -0.076159 0.846000 -0.003841
v -0.058000 0.846000 0.040000
v -0.040000 0.956000 0.040000
v -0.063431 0.956000 -0.016569
v -0.120000 0.956000 -0.040000
v -0.176569 0.956000 -0.016569
v -0.200000 0.956000 0.040000
v -0.176569 0.956000 0.096569
v -0.120000 0.956000 0.120000
v -0.063431 0.956000 0.096569
v 0.212225 0.846000 0.032225
v 0.150000 0.846000 0.058000
v 0.087775 0.846000 0.032225
v 0.062000 0.846000 -0.030000
v 0.087775 0.846000 -0.092225
v 0.150000 0.846000 -0.118000
v 0.212225 0.846000 -0.092225
v 0.238000 0.846000 -0.030000
v 0.260000 0.996000 -0.030000
v 0.227782 0.996000 -0.107782
v 0.150000 0.996000 -0.140000
v 0.072218 0.996000 -0.107782
v 0.040000 0.996000 -0.030000
v 0.072218 0.996000 0.047782
v 0.150000 0.996000 0.080000
v 0.227782 0.996000 0.047782
v -0.420000 0.426000 -0.170000
v -0.060000 0.426000 -0.170000
v -0.060000 0.426000 0.170000
v -0.420000 0.426000 0.170000
v -0.436000 0.486000 0.186000
v -0.044000 0.486000 0.186000
v -0.044000 0.486000 -0.186000
v -0.436000 0.486000 -0.186000
vn -0.0000 -1.0000 -0.0000
vn -0.0000 1.0000 -0.0000
vn -0.0000 -0.0000 1.0000
vn -0.0000 -0.0000 -1.0000
vn -1.0000 -0.0000 -0.0000
vn 1.0000 -0.0000 -0.0000
vn 0.9147 -0.1407 -0.3789
vn 0.3789 -0.1407 -0.9147
vn -0.3789 -0.1407 -0.9147
vn -0.9147 -0.1407 -0.3789
vn -0.9147 -0.1407 0.3789
vn -0.3789 -0.1407 0.9147
vn 0.3789 -0.1407 0.9147
vn 0.9147 -0.1407 0.3789
vn 0.9135 -0.1495 -0.3784
vn 0.3784 -0.1495 -0.9135
vn -0.3784 -0.1495 -0.9135
vn -0.9135 -0.1495 -0.3784
vn -0.9135 -0.1495 0.3784
vn -0.3784 -0.1495 0.9135
vn 0.3784 -0.1495 0.9135
vn 0.9135 -0.1495 0.3784
vn 0.9155 -0.1343 -0.3792
vn 0.3792 -0.1343 -0.9155
vn -0.3792 -0.1343 -0.9155
vn -0.9155 -0.1343 -0.3792
vn -0.9155 -0.1343 0.3792
vn -0.3792 -0.1343 0.9155
vn 0.3792 -0.1343 0.9155
vn 0.9155 -0.1343 0.3792
vn -0.0000 -0.2577 0.9662
vn 0.9662 -0.2577 -0.0000
vn -0.0000 -0.2577 -0.9662
vn -0.9662 -0.2577 -0.0000
vt 0.312500 0.312500
vt 0.812500 0.937500
vt 0.312500 0.562500
vt 0.812500 0.312500
vt 0.687500 0.062500
s 0
usemtl FN_Atlas
f 1/1/1 2/1/1 3/1/1 4/1/1
f 5/1/2 6/1/2 7/1/2 8/1/2
f 1/1/3 4/1/3 6/1/3 5/1/3
f 3/1/4 2/1/4 8/1/4 7/1/4
f 1/1/5 5/1/5 8/1/5 2/1/5
f 4/1/6 3/1/6 7/1/6 6/1/6
f 9/1/1 10/1/1 11/1/1 12/1/1
f 13/1/2 14/1/2 15/1/2 16/1/2
f 9/1/3 12/1/3 14/1/3 13/1/3
f 11/1/4 10/1/4 16/1/4 15/1/4
f 9/1/5 13/1/5 16/1/5 10/1/5
f 12/1/6 11/1/6 15/1/6 14/1/6
f 17/1/1 18/1/1 19/1/1 20/1/1
f 21/1/2 22/1/2 23/1/2 24/1/2
f 17/1/3 20/1/3 22/1/3 21/1/3
f 19/1/4 18/1/4 24/1/4 23/1/4
f 17/1/5 21/1/5 24/1/5 18/1/5
f 20/1/6 19/1/6 23/1/6 22/1/6
f 25/1/1 26/1/1 27/1/1 28/1/1
f 29/1/2 30/1/2 31/1/2 32/1/2
f 25/1/3 28/1/3 30/1/3 29/1/3
f 27/1/4 26/1/4 32/1/4 31/1/4
f 25/1/5 29/1/5 32/1/5 26/1/5
f 28/1/6 27/1/6 31/1/6 30/1/6
f 33/1/1 34/1/1 35/1/1 36/1/1
f 37/1/2 38/1/2 39/1/2 40/1/2
f 33/1/3 36/1/3 38/1/3 37/1/3
f 35/1/4 34/1/4 40/1/4 39/1/4
f 33/1/5 37/1/5 40/1/5 34/1/5
f 36/1/6 35/1/6 39/1/6 38/1/6
f 41/1/1 42/1/1 43/1/1 44/1/1
f 45/1/2 46/1/2 47/1/2 48/1/2
f 41/1/3 44/1/3 46/1/3 45/1/3
f 43/1/4 42/1/4 48/1/4 47/1/4
f 41/1/5 45/1/5 48/1/5 42/1/5
f 44/1/6 43/1/6 47/1/6 46/1/6
f 49/1/1 50/1/1 51/1/1 52/1/1
f 53/1/2 54/1/2 55/1/2 56/1/2
f 49/1/3 52/1/3 54/1/3 53/1/3
f 51/1/4 50/1/4 56/1/4 55/1/4
f 49/1/5 53/1/5 56/1/5 50/1/5
f 52/1/6 51/1/6 55/1/6 54/1/6
f 57/1/1 58/1/1 59/1/1 60/1/1
f 61/1/2 62/1/2 63/1/2 64/1/2
f 57/1/3 60/1/3 62/1/3 61/1/3
f 59/1/4 58/1/4 64/1/4 63/1/4
f 57/1/5 61/1/5 64/1/5 58/1/5
f 60/1/6 59/1/6 63/1/6 62/1/6
f 65/2/1 66/2/1 67/2/1 68/2/1
f 69/2/2 70/2/2 71/2/2 72/2/2
f 65/2/3 68/2/3 70/2/3 69/2/3
f 67/2/4 66/2/4 72/2/4 71/2/4
f 65/2/5 69/2/5 72/2/5 66/2/5
f 68/2/6 67/2/6 71/2/6 70/2/6
f 73/2/1 74/2/1 75/2/1 76/2/1
f 77/2/2 78/2/2 79/2/2 80/2/2
f 73/2/3 76/2/3 78/2/3 77/2/3
f 75/2/4 74/2/4 80/2/4 79/2/4
f 73/2/5 77/2/5 80/2/5 74/2/5
f 76/2/6 75/2/6 79/2/6 78/2/6
f 81/2/1 82/2/1 83/2/1 84/2/1
f 85/2/2 86/2/2 87/2/2 88/2/2
f 81/2/3 84/2/3 86/2/3 85/2/3
f 83/2/4 82/2/4 88/2/4 87/2/4
f 81/2/5 85/2/5 88/2/5 82/2/5
f 84/2/6 83/2/6 87/2/6 86/2/6
f 89/2/1 90/2/1 91/2/1 92/2/1
f 93/2/2 94/2/2 95/2/2 96/2/2
f 89/2/3 92/2/3 94/2/3 93/2/3
f 91/2/4 90/2/4 96/2/4 95/2/4
f 89/2/5 93/2/5 96/2/5 90/2/5
f 92/2/6 91/2/6 95/2/6 94/2/6
f 97/2/1 98/2/1 99/2/1 100/2/1
f 101/2/2 102/2/2 103/2/2 104/2/2
f 97/2/3 100/2/3 102/2/3 101/2/3
f 99/2/4 98/2/4 104/2/4 103/2/4
f 97/2/5 101/2/5 104/2/5 98/2/5
f 100/2/6 99/2/6 103/2/6 102/2/6
f 105/2/1 106/2/1 107/2/1 108/2/1
f 109/2/2 110/2/2 111/2/2 112/2/2
f 105/2/3 108/2/3 110/2/3 109/2/3
f 107/2/4 106/2/4 112/2/4 111/2/4
f 105/2/5 109/2/5 112/2/5 106/2/5
f 108/2/6 107/2/6 111/2/6 110/2/6
f 113/2/1 114/2/1 115/2/1 116/2/1
f 117/2/2 118/2/2 119/2/2 120/2/2
f 113/2/3 116/2/3 118/2/3 117/2/3
f 115/2/4 114/2/4 120/2/4 119/2/4
f 113/2/5 117/2/5 120/2/5 114/2/5
f 116/2/6 115/2/6 119/2/6 118/2/6
f 121/2/1 122/2/1 123/2/1 124/2/1
f 125/2/2 126/2/2 127/2/2 128/2/2
f 121/2/3 124/2/3 126/2/3 125/2/3
f 123/2/4 122/2/4 128/2/4 127/2/4
f 121/2/5 125/2/5 128/2/5 122/2/5
f 124/2/6 123/2/6 127/2/6 126/2/6
f 129/2/1 130/2/1 131/2/1 132/2/1
f 133/2/2 134/2/2 135/2/2 136/2/2
f 129/2/3 132/2/3 134/2/3 133/2/3
f 131/2/4 130/2/4 136/2/4 135/2/4
f 129/2/5 133/2/5 136/2/5 130/2/5
f 132/2/6 131/2/6 135/2/6 134/2/6
f 137/1/1 138/1/1 139/1/1 140/1/1
f 141/1/2 142/1/2 143/1/2 144/1/2
f 137/1/3 140/1/3 142/1/3 141/1/3
f 139/1/4 138/1/4 144/1/4 143/1/4
f 137/1/5 141/1/5 144/1/5 138/1/5
f 140/1/6 139/1/6 143/1/6 142/1/6
f 145/3/1 146/3/1 147/3/1 148/3/1 149/3/1 150/3/1 151/3/1 152/3/1
f 153/4/2 154/4/2 155/4/2 156/4/2 157/4/2 158/4/2 159/4/2 160/4/2
f 152/3/7 151/3/7 154/3/7 153/3/7
f 151/3/8 150/3/8 155/3/8 154/3/8
f 150/3/9 149/3/9 156/3/9 155/3/9
f 149/3/10 148/3/10 157/3/10 156/3/10
f 148/3/11 147/3/11 158/3/11 157/3/11
f 147/3/12 146/3/12 159/3/12 158/3/12
f 146/3/13 145/3/13 160/3/13 159/3/13
f 145/3/14 152/3/14 153/3/14 160/3/14
f 161/3/1 162/3/1 163/3/1 164/3/1 165/3/1 166/3/1 167/3/1 168/3/1
f 169/4/2 170/4/2 171/4/2 172/4/2 173/4/2 174/4/2 175/4/2 176/4/2
f 168/3/15 167/3/15 170/3/15 169/3/15
f 167/3/16 166/3/16 171/3/16 170/3/16
f 166/3/17 165/3/17 172/3/17 171/3/17
f 165/3/18 164/3/18 173/3/18 172/3/18
f 164/3/19 163/3/19 174/3/19 173/3/19
f 163/3/20 162/3/20 175/3/20 174/3/20
f 162/3/21 161/3/21 176/3/21 175/3/21
f 161/3/22 168/3/22 169/3/22 176/3/22
f 177/3/1 178/3/1 179/3/1 180/3/1 181/3/1 182/3/1 183/3/1 184/3/1
f 185/4/2 186/4/2 187/4/2 188/4/2 189/4/2 190/4/2 191/4/2 192/4/2
f 184/3/23 183/3/23 186/3/23 185/3/23
f 183/3/24 182/3/24 187/3/24 186/3/24
f 182/3/25 181/3/25 188/3/25 187/3/25
f 181/3/26 180/3/26 189/3/26 188/3/26
f 180/3/27 179/3/27 190/3/27 189/3/27
f 179/3/28 178/3/28 191/3/28 190/3/28
f 178/3/29 177/3/29 192/3/29 191/3/29
f 177/3/30 184/3/30 185/3/30 192/3/30
f 193/5/1 194/5/1 195/5/1 196/5/1
f 197/4/2 198/4/2 199/4/2 200/4/2
f 196/5/31 195/5/31 198/5/31 197/5/31
f 195/5/32 194/5/32 199/5/32 198/5/32
f 194/5/33 193/5/33 200/5/33 199/5/33
f 193/5/34 196/5/34 197/5/34 200/5/34
