# Blender 5.2.0 LTS
# www.blender.org
mtllib FN_Shelf_Wall.mtl
o FN_Shelf_Wall
v -0.305000 0.000000 -0.014000
v -0.305000 0.182000 -0.188000
v -0.305000 0.182000 0.000000
v -0.305000 0.000000 0.000000
v -0.291000 0.000000 0.000000
v -0.291000 0.182000 0.000000
v -0.291000 0.182000 -0.188000
v -0.291000 0.000000 -0.014000
v -0.324000 0.000000 0.000000
v -0.324000 0.000000 -0.011000
v -0.272000 0.000000 -0.011000
v -0.272000 0.000000 0.000000
v -0.324000 0.182000 0.000000
v -0.272000 0.182000 0.000000
v -0.272000 0.182000 -0.011000
v -0.324000 0.182000 -0.011000
v -0.322000 0.171000 0.000000
v -0.322000 0.171000 -0.192000
v -0.274000 0.171000 -0.192000
v -0.274000 0.171000 0.000000
v -0.322000 0.182000 0.000000
v -0.274000 0.182000 0.000000
v -0.274000 0.182000 -0.192000
v -0.322000 0.182000 -0.192000
v 0.291000 0.000000 -0.014000
v 0.291000 0.182000 -0.188000
v 0.291000 0.182000 0.000000
v 0.291000 0.000000 0.000000
v 0.305000 0.000000 0.000000
v 0.305000 0.182000 0.000000
v 0.305000 0.182000 -0.188000
v 0.305000 0.000000 -0.014000
v 0.272000 0.000000 0.000000
v 0.272000 0.000000 -0.011000
v 0.324000 0.000000 -0.011000
v 0.324000 0.000000 0.000000
v 0.272000 0.182000 0.000000
v 0.324000 0.182000 0.000000
v 0.324000 0.182000 -0.011000
v 0.272000 0.182000 -0.011000
v 0.274000 0.171000 0.000000
v 0.274000 0.171000 -0.192000
v 0.322000 0.171000 -0.192000
v 0.322000 0.171000 0.000000
v 0.274000 0.182000 0.000000
v 0.322000 0.182000 0.000000
v 0.322000 0.182000 -0.192000
v 0.274000 0.182000 -0.192000
v -0.444203 0.182000 -0.238454
v 0.444203 0.182000 -0.238454
v 0.444203 0.182000 -0.001546
v -0.444203 0.182000 -0.001546
v 0.450000 0.188000 0.000000
v -0.450000 0.188000 0.000000
v 0.450000 0.188000 -0.240000
v -0.450000 0.188000 -0.240000
v 0.450000 0.208000 0.000000
v -0.450000 0.208000 0.000000
v 0.450000 0.208000 -0.240000
v -0.450000 0.208000 -0.240000
v -0.444203 0.214000 -0.001546
v 0.444203 0.214000 -0.001546
v 0.444203 0.214000 -0.238454
v -0.444203 0.214000 -0.238454
vn 1.0000 -0.0000 -0.0000
vn -1.0000 -0.0000 -0.0000
vn -0.0000 -0.0000 -1.0000
vn -0.0000 -1.0000 -0.0000
vn -0.0000 0.6910 0.7228
vn -0.0000 1.0000 -0.0000
vn -0.0000 -0.0000 1.0000
vn -0.0000 -0.2495 0.9684
vn 0.7191 -0.6949 -0.0000
vn -0.0000 -0.2495 -0.9684
vn -0.7191 -0.6949 -0.0000
vn -0.0000 0.2495 0.9684
vn 0.7191 0.6949 -0.0000
vn -0.0000 0.2495 -0.9684
vn -0.7191 0.6949 -0.0000
vt 0.812500 0.312500
vt 0.687500 0.937500
vt 0.437500 0.937500
s 0
usemtl FN_Atlas
f 1/1/1 2/1/1 3/1/1 4/1/1
f 5/1/2 6/1/2 7/1/2 8/1/2
f 4/1/3 3/1/3 6/1/3 5/1/3
f 3/1/4 2/1/4 7/1/4 6/1/4
f 2/1/5 1/1/5 8/1/5 7/1/5
f 1/1/6 4/1/6 5/1/6 8/1/6
f 9/1/4 10/1/4 11/1/4 12/1/4
f 13/1/6 14/1/6 15/1/6 16/1/6
f 9/1/7 12/1/7 14/1/7 13/1/7
f 11/1/3 10/1/3 16/1/3 15/1/3
f 9/1/2 13/1/2 16/1/2 10/1/2
f 12/1/1 11/1/1 15/1/1 14/1/1
f 17/1/4 18/1/4 19/1/4 20/1/4
f 21/1/6 22/1/6 23/1/6 24/1/6
f 17/1/7 20/1/7 22/1/7 21/1/7
f 19/1/3 18/1/3 24/1/3 23/1/3
f 17/1/2 21/1/2 24/1/2 18/1/2
f 20/1/1 19/1/1 23/1/1 22/1/1
f 25/1/1 26/1/1 27/1/1 28/1/1
f 29/1/2 30/1/2 31/1/2 32/1/2
f 28/1/3 27/1/3 30/1/3 29/1/3
f 27/1/4 26/1/4 31/1/4 30/1/4
f 26/1/5 25/1/5 32/1/5 31/1/5
f 25/1/6 28/1/6 29/1/6 32/1/6
f 33/1/4 34/1/4 35/1/4 36/1/4
f 37/1/6 38/1/6 39/1/6 40/1/6
f 33/1/7 36/1/7 38/1/7 37/1/7
f 35/1/3 34/1/3 40/1/3 39/1/3
f 33/1/2 37/1/2 40/1/2 34/1/2
f 36/1/1 35/1/1 39/1/1 38/1/1
f 41/1/4 42/1/4 43/1/4 44/1/4
f 45/1/6 46/1/6 47/1/6 48/1/6
f 41/1/7 44/1/7 46/1/7 45/1/7
f 43/1/3 42/1/3 48/1/3 47/1/3
f 41/1/2 45/1/2 48/1/2 42/1/2
f 44/1/1 43/1/1 47/1/1 46/1/1
f 49/2/4 50/2/4 51/2/4 52/2/4
f 52/2/8 51/2/8 53/2/8 54/2/8
f 51/2/9 50/2/9 55/2/9 53/2/9
f 50/2/10 49/2/10 56/2/10 55/2/10
f 49/2/11 52/2/11 54/2/11 56/2/11
f 54/2/7 53/2/7 57/2/7 58/2/7
f 53/2/1 55/2/1 59/2/1 57/2/1
f 55/2/3 56/2/3 60/2/3 59/2/3
f 56/2/2 54/2/2 58/2/2 60/2/2
f 61/3/6 62/3/6 63/3/6 64/3/6
f 58/2/12 57/2/12 62/2/12 61/2/12
f 57/2/13 59/2/13 63/2/13 62/2/13
f 59/2/14 60/2/14 64/2/14 63/2/14
f 60/2/15 58/2/15 61/2/15 64/2/15
