# Blender 5.2.0 LTS
# www.blender.org
mtllib FN_Sofa_Chaise.mtl
o FN_Sofa_Chaise
v -0.307500 0.000000 0.747500
v -0.272500 0.000000 0.747500
v -0.272500 0.000000 0.782500
v -0.307500 0.000000 0.782500
v -0.317500 0.310000 0.792500
v -0.262500 0.310000 0.792500
v -0.262500 0.310000 0.737500
v -0.317500 0.310000 0.737500
v -0.307500 0.000000 -0.012500
v -0.272500 0.000000 -0.012500
v -0.272500 0.000000 0.022500
v -0.307500 0.000000 0.022500
v -0.317500 0.310000 0.032500
v -0.262500 0.310000 0.032500
v -0.262500 0.310000 -0.022500
v -0.317500 0.310000 -0.022500
v -0.307500 0.000000 -0.772500
v -0.272500 0.000000 -0.772500
v -0.272500 0.000000 -0.737500
v -0.307500 0.000000 -0.737500
v -0.317500 0.310000 -0.727500
v -0.262500 0.310000 -0.727500
v -0.262500 0.310000 -0.782500
v -0.317500 0.310000 -0.782500
v 0.272500 0.000000 0.747500
v 0.307500 0.000000 0.747500
v 0.307500 0.000000 0.782500
v 0.272500 0.000000 0.782500
v 0.262500 0.310000 0.792500
v 0.317500 0.310000 0.792500
v 0.317500 0.310000 0.737500
v 0.262500 0.310000 0.737500
v 0.272500 0.000000 -0.012500
v 0.307500 0.000000 -0.012500
v 0.307500 0.000000 0.022500
v 0.272500 0.000000 0.022500
v 0.262500 0.310000 0.032500
v 0.317500 0.310000 0.032500
v 0.317500 0.310000 -0.022500
v 0.262500 0.310000 -0.022500
v 0.272500 0.000000 -0.772500
v 0.307500 0.000000 -0.772500
v 0.307500 0.000000 -0.737500
v 0.272500 0.000000 -0.737500
v 0.262500 0.310000 -0.727500
v 0.317500 0.310000 -0.727500
v 0.317500 0.310000 -0.782500
v 0.262500 0.310000 -0.782500
v -0.340000 0.290000 0.845000
v -0.340000 0.290000 -0.835000
v -0.300000 0.290000 -0.835000
v -0.300000 0.290000 0.845000
v -0.340000 0.360000 0.845000
v -0.300000 0.360000 0.845000
v -0.300000 0.360000 -0.835000
v -0.340000 0.360000 -0.835000
v 0.300000 0.290000 0.845000
v 0.300000 0.290000 -0.835000
v 0.340000 0.290000 -0.835000
v 0.340000 0.290000 0.845000
v 0.300000 0.360000 0.845000
v 0.340000 0.360000 0.845000
v 0.340000 0.360000 -0.835000
v 0.300000 0.360000 -0.835000
v -0.340000 0.290000 0.805000
v 0.340000 0.290000 0.805000
v 0.340000 0.360000 0.805000
v -0.340000 0.360000 0.805000
v -0.340000 0.290000 -0.795000
v 0.340000 0.290000 -0.795000
v -0.340000 0.360000 -0.795000
v 0.340000 0.360000 -0.795000
v -0.300000 0.350000 0.005000
v 0.300000 0.350000 0.005000
v 0.300000 0.350000 0.795000
v -0.300000 0.350000 0.795000
v -0.290000 0.436000 0.787000
v 0.290000 0.436000 0.787000
v 0.290000 0.436000 0.013000
v -0.290000 0.436000 0.013000
v -0.300000 0.350000 -0.785000
v 0.300000 0.350000 -0.785000
v 0.300000 0.350000 -0.005000
v -0.300000 0.350000 -0.005000
v -0.290000 0.436000 -0.013000
v 0.290000 0.436000 -0.013000
v 0.290000 0.436000 -0.777000
v -0.290000 0.436000 -0.777000
v -0.320000 0.780000 -0.775000
v -0.320000 0.780000 -0.875000
v -0.320000 0.350000 -0.835000
v -0.320000 0.350000 -0.735000
v 0.320000 0.350000 -0.735000
v 0.320000 0.350000 -0.835000
v 0.320000 0.780000 -0.875000
v 0.320000 0.780000 -0.775000
v -0.320000 0.350000 0.745000
v -0.320000 0.350000 0.845000
v -0.320000 0.510000 0.875000
v -0.320000 0.510000 0.775000
v 0.320000 0.510000 0.775000
v 0.320000 0.510000 0.875000
v 0.320000 0.350000 0.845000
v 0.320000 0.350000 0.745000
v -0.340000 0.822000 -0.773000
v -0.340000 0.822000 -0.877000
v -0.340000 0.770000 -0.887000
v -0.340000 0.770000 -0.763000
v 0.340000 0.770000 -0.763000
v 0.340000 0.770000 -0.887000
v 0.340000 0.822000 -0.877000
v 0.340000 0.822000 -0.773000
v -0.340000 0.500000 0.763000
v -0.340000 0.500000 0.887000
v -0.340000 0.552000 0.877000
v -0.340000 0.552000 0.773000
v 0.340000 0.552000 0.773000
v 0.340000 0.552000 0.877000
v 0.340000 0.500000 0.887000
v 0.340000 0.500000 0.763000
v -0.280000 0.482002 -0.753530
v -0.280000 0.436000 -0.707528
v -0.280000 0.436000 -0.642472
v -0.280000 0.482002 -0.596470
v -0.280000 0.547058 -0.596470
v -0.280000 0.593060 -0.642472
v -0.280000 0.593060 -0.707528
v -0.280000 0.547058 -0.753530
v 0.280000 0.547058 -0.753530
v 0.280000 0.593060 -0.707528
v 0.280000 0.593060 -0.642472
v 0.280000 0.547058 -0.596470
v 0.280000 0.482002 -0.596470
v 0.280000 0.436000 -0.642472
v 0.280000 0.436000 -0.707528
v 0.280000 0.482002 -0.753530
v -0.230000 0.420000 0.571000
v -0.230000 0.420000 0.763000
v -0.230000 0.600000 0.811000
v -0.230000 0.560000 0.631000
v 0.230000 0.560000 0.631000
v 0.230000 0.600000 0.811000
v 0.230000 0.420000 0.763000
v 0.230000 0.420000 0.571000
vn -0.0000 -1.0000 -0.0000
vn -0.0000 1.0000 -0.0000
vn -0.0000 -0.0322 0.9995
vn 0.9995 -0.0322 -0.0000
vn -0.0000 -0.0322 -0.9995
vn -0.9995 -0.0322 -0.0000
vn -0.0000 -0.0000 1.0000
vn -0.0000 -0.0000 -1.0000
vn -1.0000 -0.0000 -0.0000
vn 1.0000 -0.0000 -0.0000
vn -0.0000 0.0926 0.9957
vn 0.9933 0.1155 -0.0000
vn -0.0000 0.0926 -0.9957
vn -0.9933 0.1155 -0.0000
vn -0.0000 -0.0926 -0.9957
vn -0.0000 -0.1843 0.9829
vn -0.0000 0.1843 -0.9829
vn -0.0000 0.1888 -0.9820
vn -0.0000 0.1888 0.9820
vn -0.0000 0.7071 -0.7071
vn -0.0000 0.7071 0.7071
vn -0.0000 -0.7071 0.7071
vn -0.0000 -0.7071 -0.7071
vn -0.0000 -0.2577 0.9662
vn -0.0000 0.9762 -0.2169
vn -0.0000 0.3939 -0.9191
vt 0.437500 0.937500
vt 0.562500 0.437500
vt 0.312500 0.687500
s 0
usemtl FN_Atlas
f 1/1/1 2/1/1 3/1/1 4/1/1
f 5/1/2 6/1/2 7/1/2 8/1/2
f 4/1/3 3/1/3 6/1/3 5/1/3
f 3/1/4 2/1/4 7/1/4 6/1/4
f 2/1/5 1/1/5 8/1/5 7/1/5
f 1/1/6 4/1/6 5/1/6 8/1/6
f 9/1/1 10/1/1 11/1/1 12/1/1
f 13/1/2 14/1/2 15/1/2 16/1/2
f 12/1/3 11/1/3 14/1/3 13/1/3
f 11/1/4 10/1/4 15/1/4 14/1/4
f 10/1/5 9/1/5 16/1/5 15/1/5
f 9/1/6 12/1/6 13/1/6 16/1/6
f 17/1/1 18/1/1 19/1/1 20/1/1
f 21/1/2 22/1/2 23/1/2 24/1/2
f 20/1/3 19/1/3 22/1/3 21/1/3
f 19/1/4 18/1/4 23/1/4 22/1/4
f 18/1/5 17/1/5 24/1/5 23/1/5
f 17/1/6 20/1/6 21/1/6 24/1/6
f 25/1/1 26/1/1 27/1/1 28/1/1
f 29/1/2 30/1/2 31/1/2 32/1/2
f 28/1/3 27/1/3 30/1/3 29/1/3
f 27/1/4 26/1/4 31/1/4 30/1/4
f 26/1/5 25/1/5 32/1/5 31/1/5
f 25/1/6 28/1/6 29/1/6 32/1/6
f 33/1/1 34/1/1 35/1/1 36/1/1
f 37/1/2 38/1/2 39/1/2 40/1/2
f 36/1/3 35/1/3 38/1/3 37/1/3
f 35/1/4 34/1/4 39/1/4 38/1/4
f 34/1/5 33/1/5 40/1/5 39/1/5
f 33/1/6 36/1/6 37/1/6 40/1/6
f 41/1/1 42/1/1 43/1/1 44/1/1
f 45/1/2 46/1/2 47/1/2 48/1/2
f 44/1/3 43/1/3 46/1/3 45/1/3
f 43/1/4 42/1/4 47/1/4 46/1/4
f 42/1/5 41/1/5 48/1/5 47/1/5
f 41/1/6 44/1/6 45/1/6 48/1/6
f 49/1/1 50/1/1 51/1/1 52/1/1
f 53/1/2 54/1/2 55/1/2 56/1/2
f 49/1/7 52/1/7 54/1/7 53/1/7
f 51/1/8 50/1/8 56/1/8 55/1/8
f 49/1/9 53/1/9 56/1/9 50/1/9
f 52/1/10 51/1/10 55/1/10 54/1/10
f 57/1/1 58/1/1 59/1/1 60/1/1
f 61/1/2 62/1/2 63/1/2 64/1/2
f 57/1/7 60/1/7 62/1/7 61/1/7
f 59/1/8 58/1/8 64/1/8 63/1/8
f 57/1/9 61/1/9 64/1/9 58/1/9
f 60/1/10 59/1/10 63/1/10 62/1/10
f 49/1/1 65/1/1 66/1/1 60/1/1
f 53/1/2 62/1/2 67/1/2 68/1/2
f 49/1/7 60/1/7 62/1/7 53/1/7
f 66/1/8 65/1/8 68/1/8 67/1/8
f 49/1/9 53/1/9 68/1/9 65/1/9
f 60/1/10 66/1/10 67/1/10 62/1/10
f 69/1/1 50/1/1 59/1/1 70/1/1
f 71/1/2 72/1/2 63/1/2 56/1/2
f 69/1/7 70/1/7 72/1/7 71/1/7
f 59/1/8 50/1/8 56/1/8 63/1/8
f 69/1/9 71/1/9 56/1/9 50/1/9
f 70/1/10 59/1/10 63/1/10 72/1/10
f 73/2/1 74/2/1 75/2/1 76/2/1
f 77/2/2 78/2/2 79/2/2 80/2/2
f 76/2/11 75/2/11 78/2/11 77/2/11
f 75/2/12 74/2/12 79/2/12 78/2/12
f 74/2/13 73/2/13 80/2/13 79/2/13
f 73/2/14 76/2/14 77/2/14 80/2/14
f 81/2/1 82/2/1 83/2/1 84/2/1
f 85/2/2 86/2/2 87/2/2 88/2/2
f 84/2/11 83/2/11 86/2/11 85/2/11
f 83/2/12 82/2/12 87/2/12 86/2/12
f 82/2/13 81/2/13 88/2/13 87/2/13
f 81/2/14 84/2/14 85/2/14 88/2/14
f 89/2/9 90/2/9 91/2/9 92/2/9
f 93/2/10 94/2/10 95/2/10 96/2/10
f 92/2/1 91/2/1 94/2/1 93/2/1
f 91/2/15 90/2/15 95/2/15 94/2/15
f 90/2/2 89/2/2 96/2/2 95/2/2
f 89/2/11 92/2/11 93/2/11 96/2/11
f 97/2/9 98/2/9 99/2/9 100/2/9
f 101/2/10 102/2/10 103/2/10 104/2/10
f 104/2/1 103/2/1 98/2/1 97/2/1
f 103/2/16 102/2/16 99/2/16 98/2/16
f 102/2/2 101/2/2 100/2/2 99/2/2
f 101/2/17 104/2/17 97/2/17 100/2/17
f 105/1/9 106/1/9 107/1/9 108/1/9
f 109/1/10 110/1/10 111/1/10 112/1/10
f 108/1/1 107/1/1 110/1/1 109/1/1
f 107/1/18 106/1/18 111/1/18 110/1/18
f 106/1/2 105/1/2 112/1/2 111/1/2
f 105/1/19 108/1/19 109/1/19 112/1/19
f 113/1/9 114/1/9 115/1/9 116/1/9
f 117/1/10 118/1/10 119/1/10 120/1/10
f 120/1/1 119/1/1 114/1/1 113/1/1
f 119/1/19 118/1/19 115/1/19 114/1/19
f 118/1/2 117/1/2 116/1/2 115/1/2
f 117/1/18 120/1/18 113/1/18 116/1/18
f 121/3/9 122/3/9 123/3/9 124/3/9 125/3/9 126/3/9 127/3/9 128/3/9
f 129/3/10 130/3/10 131/3/10 132/3/10 133/3/10 134/3/10 135/3/10 136/3/10
f 128/3/20 127/3/20 130/3/20 129/3/20
f 127/3/2 126/3/2 131/3/2 130/3/2
f 126/3/21 125/3/21 132/3/21 131/3/21
f 125/3/7 124/3/7 133/3/7 132/3/7
f 124/3/22 123/3/22 134/3/22 133/3/22
f 123/3/1 122/3/1 135/3/1 134/3/1
f 122/3/23 121/3/23 136/3/23 135/3/23
f 121/3/8 128/3/8 129/3/8 136/3/8
f 137/3/9 138/3/9 139/3/9 140/3/9
f 141/3/10 142/3/10 143/3/10 144/3/10
f 144/3/1 143/3/1 138/3/1 137/3/1
f 143/3/24 142/3/24 139/3/24 138/3/24
f 142/3/25 141/3/25 140/3/25 139/3/25
f 141/3/26 144/3/26 137/3/26 140/3/26
