# Blender 5.2.0 LTS
# www.blender.org
mtllib FN_Stand_Cake.mtl
o FN_Stand_Cake
v 0.072812 0.000000 0.052901
v 0.027812 0.000000 0.085595
v -0.027812 0.000000 0.085595
v -0.072812 0.000000 0.052901
v -0.090000 0.000000 -0.000000
v -0.072812 0.000000 -0.052901
v -0.027812 0.000000 -0.085595
v 0.027812 0.000000 -0.085595
v 0.072812 0.000000 -0.052901
v 0.090000 0.000000 0.000000
v 0.090000 0.014000 0.000000
v 0.072812 0.014000 -0.052901
v 0.027812 0.014000 -0.085595
v -0.027812 0.014000 -0.085595
v -0.072812 0.014000 -0.052901
v -0.090000 0.014000 -0.000000
v -0.072812 0.014000 0.052901
v -0.027812 0.014000 0.085595
v 0.027812 0.014000 0.085595
v 0.072812 0.014000 0.052901
v 0.032000 0.014000 0.000000
v 0.022627 0.014000 -0.022627
v 0.018385 0.092000 -0.018385
v 0.026000 0.092000 0.000000
v 0.000000 0.014000 -0.032000
v 0.000000 0.092000 -0.026000
v -0.022627 0.014000 -0.022627
v -0.018385 0.092000 -0.018385
v -0.032000 0.014000 -0.000000
v -0.026000 0.092000 -0.000000
v -0.022627 0.014000 0.022627
v -0.018385 0.092000 0.018385
v -0.000000 0.014000 0.032000
v -0.000000 0.092000 0.026000
v 0.022627 0.014000 0.022627
v 0.018385 0.092000 0.018385
v 0.129904 0.088000 0.075000
v 0.075000 0.088000 0.129904
v -0.000000 0.088000 0.150000
v -0.075000 0.088000 0.129904
v -0.129904 0.088000 0.075000
v -0.150000 0.088000 -0.000000
v -0.129904 0.088000 -0.075000
v -0.075000 0.088000 -0.129904
v 0.000000 0.088000 -0.150000
v 0.075000 0.088000 -0.129904
v 0.129904 0.088000 -0.075000
v 0.150000 0.088000 0.000000
v 0.150000 0.100000 0.000000
v 0.129904 0.100000 -0.075000
v 0.075000 0.100000 -0.129904
v 0.000000 0.100000 -0.150000
v -0.075000 0.100000 -0.129904
v -0.129904 0.100000 -0.075000
v -0.150000 0.100000 -0.000000
v -0.129904 0.100000 0.075000
v -0.075000 0.100000 0.129904
v -0.000000 0.100000 0.150000
v 0.075000 0.100000 0.129904
v 0.129904 0.100000 0.075000
v 0.069575 0.100000 0.050550
v 0.026575 0.100000 0.081791
v -0.026575 0.100000 0.081791
v -0.069575 0.100000 0.050550
v -0.086000 0.100000 -0.000000
v -0.069575 0.100000 -0.050550
v -0.026575 0.100000 -0.081791
v 0.026575 0.100000 -0.081791
v 0.069575 0.100000 -0.050550
v 0.086000 0.100000 0.000000
v 0.069575 0.136000 -0.050550
v 0.086000 0.136000 0.000000
v 0.026575 0.136000 -0.081791
v -0.026575 0.136000 -0.081791
v -0.069575 0.136000 -0.050550
v -0.086000 0.136000 -0.000000
v -0.069575 0.136000 0.050550
v -0.026575 0.136000 0.081791
v 0.026575 0.136000 0.081791
v 0.069575 0.136000 0.050550
v 0.089000 0.136000 0.000000
v 0.072003 0.136000 -0.052313
v 0.072003 0.152000 -0.052313
v 0.089000 0.152000 0.000000
v 0.027503 0.136000 -0.084644
v 0.027503 0.152000 -0.084644
v -0.027503 0.136000 -0.084644
v -0.027503 0.152000 -0.084644
v -0.072003 0.136000 -0.052313
v -0.072003 0.152000 -0.052313
v -0.089000 0.136000 -0.000000
v -0.089000 0.152000 -0.000000
v -0.072003 0.136000 0.052313
v -0.072003 0.152000 0.052313
v -0.027503 0.136000 0.084644
v -0.027503 0.152000 0.084644
v 0.027503 0.136000 0.084644
v 0.027503 0.152000 0.084644
v 0.072003 0.136000 0.052313
v 0.072003 0.152000 0.052313
v 0.086000 0.182000 0.000000
v 0.069575 0.182000 -0.050550
v 0.026575 0.182000 -0.081791
v -0.026575 0.182000 -0.081791
v -0.069575 0.182000 -0.050550
v -0.086000 0.182000 -0.000000
v -0.069575 0.182000 0.050550
v -0.026575 0.182000 0.081791
v 0.026575 0.182000 0.081791
v 0.069575 0.182000 0.050550
v 0.086000 0.152000 0.000000
v 0.069575 0.152000 -0.050550
v 0.026575 0.152000 -0.081791
v -0.026575 0.152000 -0.081791
v -0.069575 0.152000 -0.050550
v -0.086000 0.152000 -0.000000
v -0.069575 0.152000 0.050550
v -0.026575 0.152000 0.081791
v 0.026575 0.152000 0.081791
v 0.069575 0.152000 0.050550
v 0.140000 0.100000 0.000000
v 0.113262 0.100000 -0.082290
v 0.106790 0.170000 -0.077588
v 0.132000 0.170000 0.000000
v 0.043262 0.100000 -0.133148
v 0.040790 0.170000 -0.125539
v -0.043262 0.100000 -0.133148
v -0.040790 0.170000 -0.125539
v -0.113262 0.100000 -0.082290
v -0.106790 0.170000 -0.077588
v -0.140000 0.100000 -0.000000
v -0.132000 0.170000 -0.000000
v -0.113262 0.100000 0.082290
v -0.106790 0.170000 0.077588
v -0.043262 0.100000 0.133148
v -0.040790 0.170000 0.125539
v 0.043262 0.100000 0.133148
v 0.040790 0.170000 0.125539
v 0.113262 0.100000 0.082290
v 0.106790 0.170000 0.077588
v 0.080902 0.215000 -0.058779
v 0.100000 0.215000 0.000000
v 0.030902 0.215000 -0.095106
v -0.030902 0.215000 -0.095106
v -0.080902 0.215000 -0.058779
v -0.100000 0.215000 -0.000000
v -0.080902 0.215000 0.058779
v -0.030902 0.215000 0.095106
v 0.030902 0.215000 0.095106
v 0.080902 0.215000 0.058779
v 0.027507 0.244000 -0.019985
v 0.034000 0.244000 0.000000
v 0.010507 0.244000 -0.032336
v -0.010507 0.244000 -0.032336
v -0.027507 0.244000 -0.019985
v -0.034000 0.244000 -0.000000
v -0.027507 0.244000 0.019985
v -0.010507 0.244000 0.032336
v 0.010507 0.244000 0.032336
v 0.027507 0.244000 0.019985
v 0.127000 0.170000 0.000000
v 0.102745 0.170000 -0.074649
v 0.109217 0.100000 -0.079351
v 0.135000 0.100000 0.000000
v 0.039245 0.170000 -0.120784
v 0.041717 0.100000 -0.128393
v -0.039245 0.170000 -0.120784
v -0.041717 0.100000 -0.128393
v -0.102745 0.170000 -0.074649
v -0.109217 0.100000 -0.079351
v -0.127000 0.170000 -0.000000
v -0.135000 0.100000 -0.000000
v -0.102745 0.170000 0.074649
v -0.109217 0.100000 0.079351
v -0.039245 0.170000 0.120784
v -0.041717 0.100000 0.128393
v 0.039245 0.170000 0.120784
v 0.041717 0.100000 0.128393
v 0.102745 0.170000 0.074649
v 0.109217 0.100000 0.079351
v 0.095000 0.215000 0.000000
v 0.076857 0.215000 -0.055840
v 0.029357 0.215000 -0.090350
v -0.029357 0.215000 -0.090350
v -0.076857 0.215000 -0.055840
v -0.095000 0.215000 -0.000000
v -0.076857 0.215000 0.055840
v -0.029357 0.215000 0.090350
v 0.029357 0.215000 0.090350
v 0.076857 0.215000 0.055840
v 0.029000 0.244000 0.000000
v 0.023461 0.244000 -0.017046
v 0.008961 0.244000 -0.027581
v -0.008961 0.244000 -0.027581
v -0.023461 0.244000 -0.017046
v -0.029000 0.244000 -0.000000
v -0.023461 0.244000 0.017046
v -0.008961 0.244000 0.027581
v 0.008961 0.244000 0.027581
v 0.023461 0.244000 0.017046
v 0.010000 0.244000 0.017321
v -0.010000 0.244000 0.017321
v -0.020000 0.244000 -0.000000
v -0.010000 0.244000 -0.017321
v 0.010000 0.244000 -0.017321
v 0.020000 0.244000 0.000000
v 0.014000 0.272000 0.000000
v 0.007000 0.272000 -0.012124
v -0.007000 0.272000 -0.012124
v -0.014000 0.272000 -0.000000
v -0.007000 0.272000 0.012124
v 0.007000 0.272000 0.012124
vn -0.0000 -1.0000 -0.0000
vn -0.0000 1.0000 -0.0000
vn 0.9511 -0.0000 -0.3090
vn 0.5878 -0.0000 -0.8090
vn -0.0000 -0.0000 -1.0000
vn -0.5878 -0.0000 -0.8090
vn -0.9511 -0.0000 -0.3090
vn -0.9511 -0.0000 0.3090
vn -0.5878 -0.0000 0.8090
vn -0.0000 -0.0000 1.0000
vn 0.5878 -0.0000 0.8090
vn 0.9511 -0.0000 0.3090
vn 0.9216 0.0709 -0.3817
vn 0.3817 0.0709 -0.9216
vn -0.3817 0.0709 -0.9216
vn -0.9216 0.0709 -0.3817
vn -0.9216 0.0709 0.3817
vn -0.3817 0.0709 0.9216
vn 0.3817 0.0709 0.9216
vn 0.9216 0.0709 0.3817
vn 0.9659 -0.0000 -0.2588
vn 0.7071 -0.0000 -0.7071
vn 0.2588 -0.0000 -0.9659
vn -0.2588 -0.0000 -0.9659
vn -0.7071 -0.0000 -0.7071
vn -0.9659 -0.0000 -0.2588
vn -0.9659 -0.0000 0.2588
vn -0.7071 -0.0000 0.7071
vn -0.2588 -0.0000 0.9659
vn 0.2588 -0.0000 0.9659
vn 0.7071 -0.0000 0.7071
vn 0.9659 -0.0000 0.2588
vn 0.9455 0.1081 -0.3072
vn 0.5843 0.1081 -0.8043
vn -0.0000 0.1081 -0.9941
vn -0.5843 0.1081 -0.8043
vn -0.9455 0.1081 -0.3072
vn -0.9455 0.1081 0.3072
vn -0.5843 0.1081 0.8043
vn -0.0000 0.1081 0.9941
vn 0.5843 0.1081 0.8043
vn 0.9455 0.1081 0.3072
vn 0.7878 0.5602 -0.2560
vn 0.4869 0.5602 -0.6701
vn -0.0000 0.5602 -0.8283
vn -0.4869 0.5602 -0.6701
vn -0.7878 0.5602 -0.2560
vn -0.7878 0.5602 0.2560
vn -0.4869 0.5602 0.6701
vn -0.0000 0.5602 0.8283
vn 0.4869 0.5602 0.6701
vn 0.7878 0.5602 0.2560
vn 0.3989 0.9078 -0.1296
vn 0.2465 0.9078 -0.3393
vn -0.0000 0.9078 -0.4194
vn -0.2465 0.9078 -0.3393
vn -0.3989 0.9078 -0.1296
vn -0.3989 0.9078 0.1296
vn -0.2465 0.9078 0.3393
vn -0.0000 0.9078 0.4194
vn 0.2465 0.9078 0.3393
vn 0.3989 0.9078 0.1296
vn -0.9455 -0.1081 0.3072
vn -0.5843 -0.1081 0.8043
vn -0.0000 -0.1081 0.9941
vn 0.5843 -0.1081 0.8043
vn 0.9455 -0.1081 0.3072
vn 0.9455 -0.1081 -0.3072
vn 0.5843 -0.1081 -0.8043
vn -0.0000 -0.1081 -0.9941
vn -0.5843 -0.1081 -0.8043
vn -0.9455 -0.1081 -0.3072
vn -0.7878 -0.5602 0.2560
vn -0.4869 -0.5602 0.6701
vn -0.0000 -0.5602 0.8283
vn 0.4869 -0.5602 0.6701
vn 0.7878 -0.5602 0.2560
vn 0.7878 -0.5602 -0.2560
vn 0.4869 -0.5602 -0.6701
vn -0.0000 -0.5602 -0.8283
vn -0.4869 -0.5602 -0.6701
vn -0.7878 -0.5602 -0.2560
vn -0.3989 -0.9078 0.1296
vn -0.2465 -0.9078 0.3393
vn -0.0000 -0.9078 0.4194
vn 0.2465 -0.9078 0.3393
vn 0.3989 -0.9078 0.1296
vn 0.3989 -0.9078 -0.1296
vn 0.2465 -0.9078 -0.3393
vn -0.0000 -0.9078 -0.4194
vn -0.2465 -0.9078 -0.3393
vn -0.3989 -0.9078 -0.1296
vn 0.8515 0.1825 -0.4916
vn -0.0000 0.1825 -0.9832
vn -0.8515 0.1825 -0.4916
vn -0.8515 0.1825 0.4916
vn -0.0000 0.1825 0.9832
vn 0.8515 0.1825 0.4916
vt 0.812500 0.937500
vt 0.437500 0.937500
vt 0.312500 0.687500
vt 0.437500 0.187500
s 0
usemtl FN_Atlas
f 1/1/1 2/1/1 3/1/1 4/1/1 5/1/1 6/1/1 7/1/1 8/1/1 9/1/1 10/1/1
f 11/1/2 12/1/2 13/1/2 14/1/2 15/1/2 16/1/2 17/1/2 18/1/2 19/1/2 20/1/2
f 10/1/3 9/1/3 12/1/3 11/1/3
f 9/1/4 8/1/4 13/1/4 12/1/4
f 8/1/5 7/1/5 14/1/5 13/1/5
f 7/1/6 6/1/6 15/1/6 14/1/6
f 6/1/7 5/1/7 16/1/7 15/1/7
f 5/1/8 4/1/8 17/1/8 16/1/8
f 4/1/9 3/1/9 18/1/9 17/1/9
f 3/1/10 2/1/10 19/1/10 18/1/10
f 2/1/11 1/1/11 20/1/11 19/1/11
f 1/1/12 10/1/12 11/1/12 20/1/12
f 21/1/13 22/1/13 23/1/13 24/1/13
f 22/1/14 25/1/14 26/1/14 23/1/14
f 25/1/15 27/1/15 28/1/15 26/1/15
f 27/1/16 29/1/16 30/1/16 28/1/16
f 29/1/17 31/1/17 32/1/17 30/1/17
f 31/1/18 33/1/18 34/1/18 32/1/18
f 33/1/19 35/1/19 36/1/19 34/1/19
f 35/1/20 21/1/20 24/1/20 36/1/20
f 37/1/1 38/1/1 39/1/1 40/1/1 41/1/1 42/1/1 43/1/1 44/1/1 45/1/1 46/1/1 47/1/1 48/1/1
f 49/1/2 50/1/2 51/1/2 52/1/2 53/1/2 54/1/2 55/1/2 56/1/2 57/1/2 58/1/2 59/1/2 60/1/2
f 48/1/21 47/1/21 50/1/21 49/1/21
f 47/1/22 46/1/22 51/1/22 50/1/22
f 46/1/23 45/1/23 52/1/23 51/1/23
f 45/1/24 44/1/24 53/1/24 52/1/24
f 44/1/25 43/1/25 54/1/25 53/1/25
f 43/1/26 42/1/26 55/1/26 54/1/26
f 42/1/27 41/1/27 56/1/27 55/1/27
f 41/1/28 40/1/28 57/1/28 56/1/28
f 40/1/29 39/1/29 58/1/29 57/1/29
f 39/1/30 38/1/30 59/1/30 58/1/30
f 38/1/31 37/1/31 60/1/31 59/1/31
f 37/1/32 48/1/32 49/1/32 60/1/32
f 61/2/1 62/2/1 63/2/1 64/2/1 65/2/1 66/2/1 67/2/1 68/2/1 69/2/1 70/2/1
f 70/2/3 69/2/3 71/2/3 72/2/3
f 69/2/4 68/2/4 73/2/4 71/2/4
f 68/2/5 67/2/5 74/2/5 73/2/5
f 67/2/6 66/2/6 75/2/6 74/2/6
f 66/2/7 65/2/7 76/2/7 75/2/7
f 65/2/8 64/2/8 77/2/8 76/2/8
f 64/2/9 63/2/9 78/2/9 77/2/9
f 63/2/10 62/2/10 79/2/10 78/2/10
f 62/2/11 61/2/11 80/2/11 79/2/11
f 61/2/12 70/2/12 72/2/12 80/2/12
f 81/3/3 82/3/3 83/3/3 84/3/3
f 82/3/4 85/3/4 86/3/4 83/3/4
f 85/3/5 87/3/5 88/3/5 86/3/5
f 87/3/6 89/3/6 90/3/6 88/3/6
f 89/3/7 91/3/7 92/3/7 90/3/7
f 91/3/8 93/3/8 94/3/8 92/3/8
f 93/3/9 95/3/9 96/3/9 94/3/9
f 95/3/10 97/3/10 98/3/10 96/3/10
f 97/3/11 99/3/11 100/3/11 98/3/11
f 99/3/12 81/3/12 84/3/12 100/3/12
f 101/2/2 102/2/2 103/2/2 104/2/2 105/2/2 106/2/2 107/2/2 108/2/2 109/2/2 110/2/2
f 111/2/3 112/2/3 102/2/3 101/2/3
f 112/2/4 113/2/4 103/2/4 102/2/4
f 113/2/5 114/2/5 104/2/5 103/2/5
f 114/2/6 115/2/6 105/2/6 104/2/6
f 115/2/7 116/2/7 106/2/7 105/2/7
f 116/2/8 117/2/8 107/2/8 106/2/8
f 117/2/9 118/2/9 108/2/9 107/2/9
f 118/2/10 119/2/10 109/2/10 108/2/10
f 119/2/11 120/2/11 110/2/11 109/2/11
f 120/2/12 111/2/12 101/2/12 110/2/12
usemtl FN_Glass
f 121/4/33 122/4/33 123/4/33 124/4/33
f 122/4/34 125/4/34 126/4/34 123/4/34
f 125/4/35 127/4/35 128/4/35 126/4/35
f 127/4/36 129/4/36 130/4/36 128/4/36
f 129/4/37 131/4/37 132/4/37 130/4/37
f 131/4/38 133/4/38 134/4/38 132/4/38
f 133/4/39 135/4/39 136/4/39 134/4/39
f 135/4/40 137/4/40 138/4/40 136/4/40
f 137/4/41 139/4/41 140/4/41 138/4/41
f 139/4/42 121/4/42 124/4/42 140/4/42
f 124/4/43 123/4/43 141/4/43 142/4/43
f 123/4/44 126/4/44 143/4/44 141/4/44
f 126/4/45 128/4/45 144/4/45 143/4/45
f 128/4/46 130/4/46 145/4/46 144/4/46
f 130/4/47 132/4/47 146/4/47 145/4/47
f 132/4/48 134/4/48 147/4/48 146/4/48
f 134/4/49 136/4/49 148/4/49 147/4/49
f 136/4/50 138/4/50 149/4/50 148/4/50
f 138/4/51 140/4/51 150/4/51 149/4/51
f 140/4/52 124/4/52 142/4/52 150/4/52
f 142/4/53 141/4/53 151/4/53 152/4/53
f 141/4/54 143/4/54 153/4/54 151/4/54
f 143/4/55 144/4/55 154/4/55 153/4/55
f 144/4/56 145/4/56 155/4/56 154/4/56
f 145/4/57 146/4/57 156/4/57 155/4/57
f 146/4/58 147/4/58 157/4/58 156/4/58
f 147/4/59 148/4/59 158/4/59 157/4/59
f 148/4/60 149/4/60 159/4/60 158/4/60
f 149/4/61 150/4/61 160/4/61 159/4/61
f 150/4/62 142/4/62 152/4/62 160/4/62
f 161/4/63 162/4/63 163/4/63 164/4/63
f 162/4/64 165/4/64 166/4/64 163/4/64
f 165/4/65 167/4/65 168/4/65 166/4/65
f 167/4/66 169/4/66 170/4/66 168/4/66
f 169/4/67 171/4/67 172/4/67 170/4/67
f 171/4/68 173/4/68 174/4/68 172/4/68
f 173/4/69 175/4/69 176/4/69 174/4/69
f 175/4/70 177/4/70 178/4/70 176/4/70
f 177/4/71 179/4/71 180/4/71 178/4/71
f 179/4/72 161/4/72 164/4/72 180/4/72
f 181/4/73 182/4/73 162/4/73 161/4/73
f 182/4/74 183/4/74 165/4/74 162/4/74
f 183/4/75 184/4/75 167/4/75 165/4/75
f 184/4/76 185/4/76 169/4/76 167/4/76
f 185/4/77 186/4/77 171/4/77 169/4/77
f 186/4/78 187/4/78 173/4/78 171/4/78
f 187/4/79 188/4/79 175/4/79 173/4/79
f 188/4/80 189/4/80 177/4/80 175/4/80
f 189/4/81 190/4/81 179/4/81 177/4/81
f 190/4/82 181/4/82 161/4/82 179/4/82
f 191/4/83 192/4/83 182/4/83 181/4/83
f 192/4/84 193/4/84 183/4/84 182/4/84
f 193/4/85 194/4/85 184/4/85 183/4/85
f 194/4/86 195/4/86 185/4/86 184/4/86
f 195/4/87 196/4/87 186/4/87 185/4/87
f 196/4/88 197/4/88 187/4/88 186/4/88
f 197/4/89 198/4/89 188/4/89 187/4/89
f 198/4/90 199/4/90 189/4/90 188/4/90
f 199/4/91 200/4/91 190/4/91 189/4/91
f 200/4/92 191/4/92 181/4/92 190/4/92
f 164/4/1 163/4/1 122/4/1 121/4/1
f 163/4/1 166/4/1 125/4/1 122/4/1
f 166/4/1 168/4/1 127/4/1 125/4/1
f 168/4/1 170/4/1 129/4/1 127/4/1
f 170/4/1 172/4/1 131/4/1 129/4/1
f 172/4/1 174/4/1 133/4/1 131/4/1
f 174/4/1 176/4/1 135/4/1 133/4/1
f 176/4/1 178/4/1 137/4/1 135/4/1
f 178/4/1 180/4/1 139/4/1 137/4/1
f 180/4/1 164/4/1 121/4/1 139/4/1
f 152/4/2 151/4/2 192/4/2 191/4/2
f 151/4/2 153/4/2 193/4/2 192/4/2
f 153/4/2 154/4/2 194/4/2 193/4/2
f 154/4/2 155/4/2 195/4/2 194/4/2
f 155/4/2 156/4/2 196/4/2 195/4/2
f 156/4/2 157/4/2 197/4/2 196/4/2
f 157/4/2 158/4/2 198/4/2 197/4/2
f 158/4/2 159/4/2 199/4/2 198/4/2
f 159/4/2 160/4/2 200/4/2 199/4/2
f 160/4/2 152/4/2 191/4/2 200/4/2
f 201/4/1 202/4/1 203/4/1 204/4/1 205/4/1 206/4/1
f 207/4/2 208/4/2 209/4/2 210/4/2 211/4/2 212/4/2
f 206/4/93 205/4/93 208/4/93 207/4/93
f 205/4/94 204/4/94 209/4/94 208/4/94
f 204/4/95 203/4/95 210/4/95 209/4/95
f 203/4/96 202/4/96 211/4/96 210/4/96
f 202/4/97 201/4/97 212/4/97 211/4/97
f 201/4/98 206/4/98 207/4/98 212/4/98
