# Blender 5.2.0 LTS
# www.blender.org
mtllib FN_Setting_Place.mtl
o FN_Setting_Place
v -0.260000 0.000000 0.140000
v -0.260000 0.000000 -0.140000
v 0.260000 0.000000 -0.140000
v 0.260000 0.000000 0.140000
v -0.260000 0.005000 0.140000
v 0.260000 0.005000 0.140000
v 0.260000 0.005000 -0.140000
v -0.260000 0.005000 -0.140000
v 0.090000 0.003000 0.000000
v 0.077942 0.003000 -0.045000
v 0.116913 0.021000 -0.067500
v 0.135000 0.021000 0.000000
v 0.045000 0.003000 -0.077942
v 0.067500 0.021000 -0.116913
v 0.000000 0.003000 -0.090000
v 0.000000 0.021000 -0.135000
v -0.045000 0.003000 -0.077942
v -0.067500 0.021000 -0.116913
v -0.077942 0.003000 -0.045000
v -0.116913 0.021000 -0.067500
v -0.090000 0.003000 -0.000000
v -0.135000 0.021000 -0.000000
v -0.077942 0.003000 0.045000
v -0.116913 0.021000 0.067500
v -0.045000 0.003000 0.077942
v -0.067500 0.021000 0.116913
v -0.000000 0.003000 0.090000
v -0.000000 0.021000 0.135000
v 0.045000 0.003000 0.077942
v 0.067500 0.021000 0.116913
v 0.077942 0.003000 0.045000
v 0.116913 0.021000 0.067500
v 0.107387 0.021000 -0.062000
v 0.124000 0.021000 0.000000
v 0.062000 0.021000 -0.107387
v 0.000000 0.021000 -0.124000
v -0.062000 0.021000 -0.107387
v -0.107387 0.021000 -0.062000
v -0.124000 0.021000 -0.000000
v -0.107387 0.021000 0.062000
v -0.062000 0.021000 0.107387
v -0.000000 0.021000 0.124000
v 0.062000 0.021000 0.107387
v 0.107387 0.021000 0.062000
v 0.065818 0.009000 -0.038000
v 0.076000 0.009000 0.000000
v 0.038000 0.009000 -0.065818
v 0.000000 0.009000 -0.076000
v -0.038000 0.009000 -0.065818
v -0.065818 0.009000 -0.038000
v -0.076000 0.009000 -0.000000
v -0.065818 0.009000 0.038000
v -0.038000 0.009000 0.065818
v -0.000000 0.009000 0.076000
v 0.038000 0.009000 0.065818
v 0.065818 0.009000 0.038000
v 0.038000 0.005000 0.000000
v 0.032909 0.005000 -0.019000
v 0.053694 0.050000 -0.031000
v 0.062000 0.050000 0.000000
v 0.019000 0.005000 -0.032909
v 0.031000 0.050000 -0.053694
v 0.000000 0.005000 -0.038000
v 0.000000 0.050000 -0.062000
v -0.019000 0.005000 -0.032909
v -0.031000 0.050000 -0.053694
v -0.032909 0.005000 -0.019000
v -0.053694 0.050000 -0.031000
v -0.038000 0.005000 -0.000000
v -0.062000 0.050000 -0.000000
v -0.032909 0.005000 0.019000
v -0.053694 0.050000 0.031000
v -0.019000 0.005000 0.032909
v -0.031000 0.050000 0.053694
v -0.000000 0.005000 0.038000
v -0.000000 0.050000 0.062000
v 0.019000 0.005000 0.032909
v 0.031000 0.050000 0.053694
v 0.032909 0.005000 0.019000
v 0.053694 0.050000 0.031000
v 0.046765 0.050000 -0.027000
v 0.054000 0.050000 0.000000
v 0.027000 0.050000 -0.046765
v 0.000000 0.050000 -0.054000
v -0.027000 0.050000 -0.046765
v -0.046765 0.050000 -0.027000
v -0.054000 0.050000 -0.000000
v -0.046765 0.050000 0.027000
v -0.027000 0.050000 0.046765
v -0.000000 0.050000 0.054000
v 0.027000 0.050000 0.046765
v 0.046765 0.050000 0.027000
v 0.020785 0.016000 -0.012000
v 0.024000 0.016000 0.000000
v 0.012000 0.016000 -0.020785
v 0.000000 0.016000 -0.024000
v -0.012000 0.016000 -0.020785
v -0.020785 0.016000 -0.012000
v -0.024000 0.016000 -0.000000
v -0.020785 0.016000 0.012000
v -0.012000 0.016000 0.020785
v -0.000000 0.016000 0.024000
v 0.012000 0.016000 0.020785
v 0.020785 0.016000 0.012000
v 0.240889 0.003000 -0.076191
v 0.224889 0.003000 -0.064566
v 0.205111 0.003000 -0.064566
v 0.189111 0.003000 -0.076191
v 0.183000 0.003000 -0.095000
v 0.189111 0.003000 -0.113809
v 0.205111 0.003000 -0.125434
v 0.224889 0.003000 -0.125434
v 0.240889 0.003000 -0.113809
v 0.247000 0.003000 -0.095000
v 0.247000 0.100000 -0.095000
v 0.240889 0.100000 -0.113809
v 0.224889 0.100000 -0.125434
v 0.205111 0.100000 -0.125434
v 0.189111 0.100000 -0.113809
v 0.183000 0.100000 -0.095000
v 0.189111 0.100000 -0.076191
v 0.205111 0.100000 -0.064566
v 0.224889 0.100000 -0.064566
v 0.240889 0.100000 -0.076191
v -0.193000 0.003000 0.110000
v -0.193000 0.003000 0.020000
v -0.177000 0.003000 0.020000
v -0.177000 0.003000 0.110000
v -0.193000 0.013000 0.110000
v -0.177000 0.013000 0.110000
v -0.177000 0.013000 0.020000
v -0.193000 0.013000 0.020000
v -0.199000 0.003000 0.030000
v -0.199000 0.003000 -0.060000
v -0.171000 0.003000 -0.060000
v -0.171000 0.003000 0.030000
v -0.199000 0.009000 0.030000
v -0.171000 0.009000 0.030000
v -0.171000 0.009000 -0.060000
v -0.199000 0.009000 -0.060000
v 0.147000 0.003000 0.110000
v 0.147000 0.003000 0.020000
v 0.163000 0.003000 0.020000
v 0.163000 0.003000 0.110000
v 0.147000 0.013000 0.110000
v 0.163000 0.013000 0.110000
v 0.163000 0.013000 0.020000
v 0.147000 0.013000 0.020000
v 0.143000 0.003000 0.030000
v 0.143000 0.003000 -0.060000
v 0.167000 0.003000 -0.060000
v 0.167000 0.003000 0.030000
v 0.143000 0.009000 0.030000
v 0.167000 0.009000 0.030000
v 0.167000 0.009000 -0.060000
v 0.143000 0.009000 -0.060000
vn -0.0000 -1.0000 -0.0000
vn -0.0000 1.0000 -0.0000
vn -0.0000 -0.0000 1.0000
vn -0.0000 -0.0000 -1.0000
vn -1.0000 -0.0000 -0.0000
vn 1.0000 -0.0000 -0.0000
vn 0.3696 -0.9239 -0.0990
vn 0.2705 -0.9239 -0.2705
vn 0.0990 -0.9239 -0.3696
vn -0.0990 -0.9239 -0.3696
vn -0.2705 -0.9239 -0.2705
vn -0.3696 -0.9239 -0.0990
vn -0.3696 -0.9239 0.0990
vn -0.2705 -0.9239 0.2705
vn -0.0990 -0.9239 0.3696
vn 0.0990 -0.9239 0.3696
vn 0.2705 -0.9239 0.2705
vn 0.3696 -0.9239 0.0990
vn -0.2420 0.9681 0.0649
vn -0.1772 0.9681 0.1772
vn -0.0649 0.9681 0.2420
vn 0.0649 0.9681 0.2420
vn 0.1772 0.9681 0.1772
vn 0.2420 0.9681 0.0649
vn 0.2420 0.9681 -0.0649
vn 0.1772 0.9681 -0.1772
vn 0.0649 0.9681 -0.2420
vn -0.0649 0.9681 -0.2420
vn -0.1772 0.9681 -0.1772
vn -0.2420 0.9681 -0.0649
vn 0.8587 -0.4580 -0.2301
vn 0.6286 -0.4580 -0.6286
vn 0.2301 -0.4580 -0.8587
vn -0.2301 -0.4580 -0.8587
vn -0.6286 -0.4580 -0.6286
vn -0.8587 -0.4580 -0.2301
vn -0.8587 -0.4580 0.2301
vn -0.6286 -0.4580 0.6286
vn -0.2301 -0.4580 0.8587
vn 0.2301 -0.4580 0.8587
vn 0.6286 -0.4580 0.6286
vn 0.8587 -0.4580 0.2301
vn -0.7351 0.6487 0.1970
vn -0.5382 0.6487 0.5382
vn -0.1970 0.6487 0.7351
vn 0.1970 0.6487 0.7351
vn 0.5382 0.6487 0.5382
vn 0.7351 0.6487 0.1970
vn 0.7351 0.6487 -0.1970
vn 0.5382 0.6487 -0.5382
vn 0.1970 0.6487 -0.7351
vn -0.1970 0.6487 -0.7351
vn -0.5382 0.6487 -0.5382
vn -0.7351 0.6487 -0.1970
vn 0.9511 -0.0000 -0.3090
vn 0.5878 -0.0000 -0.8090
vn -0.5878 -0.0000 -0.8090
vn -0.9511 -0.0000 -0.3090
vn -0.9511 -0.0000 0.3090
vn -0.5878 -0.0000 0.8090
vn 0.5878 -0.0000 0.8090
vn 0.9511 -0.0000 0.3090
vt 0.687500 0.687500
vt 0.437500 0.812500
vt 0.937500 0.812500
vt 0.562500 0.812500
vt 0.937500 0.312500
s 0
usemtl FN_Atlas
f 1/1/1 2/1/1 3/1/1 4/1/1
f 5/1/2 6/1/2 7/1/2 8/1/2
f 1/1/3 4/1/3 6/1/3 5/1/3
f 3/1/4 2/1/4 8/1/4 7/1/4
f 1/1/5 5/1/5 8/1/5 2/1/5
f 4/1/6 3/1/6 7/1/6 6/1/6
f 9/2/7 10/2/7 11/2/7 12/2/7
f 10/2/8 13/2/8 14/2/8 11/2/8
f 13/2/9 15/2/9 16/2/9 14/2/9
f 15/2/10 17/2/10 18/2/10 16/2/10
f 17/2/11 19/2/11 20/2/11 18/2/11
f 19/2/12 21/2/12 22/2/12 20/2/12
f 21/2/13 23/2/13 24/2/13 22/2/13
f 23/2/14 25/2/14 26/2/14 24/2/14
f 25/2/15 27/2/15 28/2/15 26/2/15
f 27/2/16 29/2/16 30/2/16 28/2/16
f 29/2/17 31/2/17 32/2/17 30/2/17
f 31/2/18 9/2/18 12/2/18 32/2/18
f 12/2/2 11/2/2 33/2/2 34/2/2
f 11/2/2 14/2/2 35/2/2 33/2/2
f 14/2/2 16/2/2 36/2/2 35/2/2
f 16/2/2 18/2/2 37/2/2 36/2/2
f 18/2/2 20/2/2 38/2/2 37/2/2
f 20/2/2 22/2/2 39/2/2 38/2/2
f 22/2/2 24/2/2 40/2/2 39/2/2
f 24/2/2 26/2/2 41/2/2 40/2/2
f 26/2/2 28/2/2 42/2/2 41/2/2
f 28/2/2 30/2/2 43/2/2 42/2/2
f 30/2/2 32/2/2 44/2/2 43/2/2
f 32/2/2 12/2/2 34/2/2 44/2/2
f 34/2/19 33/2/19 45/2/19 46/2/19
f 33/2/20 35/2/20 47/2/20 45/2/20
f 35/2/21 36/2/21 48/2/21 47/2/21
f 36/2/22 37/2/22 49/2/22 48/2/22
f 37/2/23 38/2/23 50/2/23 49/2/23
f 38/2/24 39/2/24 51/2/24 50/2/24
f 39/2/25 40/2/25 52/2/25 51/2/25
f 40/2/26 41/2/26 53/2/26 52/2/26
f 41/2/27 42/2/27 54/2/27 53/2/27
f 42/2/28 43/2/28 55/2/28 54/2/28
f 43/2/29 44/2/29 56/2/29 55/2/29
f 44/2/30 34/2/30 46/2/30 56/2/30
f 46/2/2 45/2/2 47/2/2 48/2/2 49/2/2 50/2/2 51/2/2 52/2/2 53/2/2 54/2/2 55/2/2 56/2/2
f 57/3/31 58/3/31 59/3/31 60/3/31
f 58/3/32 61/3/32 62/3/32 59/3/32
f 61/3/33 63/3/33 64/3/33 62/3/33
f 63/3/34 65/3/34 66/3/34 64/3/34
f 65/3/35 67/3/35 68/3/35 66/3/35
f 67/3/36 69/3/36 70/3/36 68/3/36
f 69/3/37 71/3/37 72/3/37 70/3/37
f 71/3/38 73/3/38 74/3/38 72/3/38
f 73/3/39 75/3/39 76/3/39 74/3/39
f 75/3/40 77/3/40 78/3/40 76/3/40
f 77/3/41 79/3/41 80/3/41 78/3/41
f 79/3/42 57/3/42 60/3/42 80/3/42
f 60/3/2 59/3/2 81/3/2 82/3/2
f 59/3/2 62/3/2 83/3/2 81/3/2
f 62/3/2 64/3/2 84/3/2 83/3/2
f 64/3/2 66/3/2 85/3/2 84/3/2
f 66/3/2 68/3/2 86/3/2 85/3/2
f 68/3/2 70/3/2 87/3/2 86/3/2
f 70/3/2 72/3/2 88/3/2 87/3/2
f 72/3/2 74/3/2 89/3/2 88/3/2
f 74/3/2 76/3/2 90/3/2 89/3/2
f 76/3/2 78/3/2 91/3/2 90/3/2
f 78/3/2 80/3/2 92/3/2 91/3/2
f 80/3/2 60/3/2 82/3/2 92/3/2
f 82/3/43 81/3/43 93/3/43 94/3/43
f 81/3/44 83/3/44 95/3/44 93/3/44
f 83/3/45 84/3/45 96/3/45 95/3/45
f 84/3/46 85/3/46 97/3/46 96/3/46
f 85/3/47 86/3/47 98/3/47 97/3/47
f 86/3/48 87/3/48 99/3/48 98/3/48
f 87/3/49 88/3/49 100/3/49 99/3/49
f 88/3/50 89/3/50 101/3/50 100/3/50
f 89/3/51 90/3/51 102/3/51 101/3/51
f 90/3/52 91/3/52 103/3/52 102/3/52
f 91/3/53 92/3/53 104/3/53 103/3/53
f 92/3/54 82/3/54 94/3/54 104/3/54
f 94/3/2 93/3/2 95/3/2 96/3/2 97/3/2 98/3/2 99/3/2 100/3/2 101/3/2 102/3/2 103/3/2 104/3/2
f 105/4/1 106/4/1 107/4/1 108/4/1 109/4/1 110/4/1 111/4/1 112/4/1 113/4/1 114/4/1
f 115/1/2 116/1/2 117/1/2 118/1/2 119/1/2 120/1/2 121/1/2 122/1/2 123/1/2 124/1/2
f 114/4/55 113/4/55 116/4/55 115/4/55
f 113/4/56 112/4/56 117/4/56 116/4/56
f 112/4/4 111/4/4 118/4/4 117/4/4
f 111/4/57 110/4/57 119/4/57 118/4/57
f 110/4/58 109/4/58 120/4/58 119/4/58
f 109/4/59 108/4/59 121/4/59 120/4/59
f 108/4/60 107/4/60 122/4/60 121/4/60
f 107/4/3 106/4/3 123/4/3 122/4/3
f 106/4/61 105/4/61 124/4/61 123/4/61
f 105/4/62 114/4/62 115/4/62 124/4/62
f 125/5/1 126/5/1 127/5/1 128/5/1
f 129/5/2 130/5/2 131/5/2 132/5/2
f 125/5/3 128/5/3 130/5/3 129/5/3
f 127/5/4 126/5/4 132/5/4 131/5/4
f 125/5/5 129/5/5 132/5/5 126/5/5
f 128/5/6 127/5/6 131/5/6 130/5/6
f 133/5/1 134/5/1 135/5/1 136/5/1
f 137/5/2 138/5/2 139/5/2 140/5/2
f 133/5/3 136/5/3 138/5/3 137/5/3
f 135/5/4 134/5/4 140/5/4 139/5/4
f 133/5/5 137/5/5 140/5/5 134/5/5
f 136/5/6 135/5/6 139/5/6 138/5/6
f 141/5/1 142/5/1 143/5/1 144/5/1
f 145/5/2 146/5/2 147/5/2 148/5/2
f 141/5/3 144/5/3 146/5/3 145/5/3
f 143/5/4 142/5/4 148/5/4 147/5/4
f 141/5/5 145/5/5 148/5/5 142/5/5
f 144/5/6 143/5/6 147/5/6 146/5/6
f 149/5/1 150/5/1 151/5/1 152/5/1
f 153/5/2 154/5/2 155/5/2 156/5/2
f 149/5/3 152/5/3 154/5/3 153/5/3
f 151/5/4 150/5/4 156/5/4 155/5/4
f 149/5/5 153/5/5 156/5/5 150/5/5
f 152/5/6 151/5/6 155/5/6 154/5/6
