# Blender 5.2.0 LTS
# www.blender.org
mtllib FN_Shelf_Ladder.mtl
o FN_Shelf_Ladder
v -0.280000 0.000000 0.012021
v -0.280000 0.000000 -0.028333
v -0.280000 1.800000 -0.268333
v -0.280000 1.800000 -0.227979
v -0.244000 1.800000 -0.227979
v -0.244000 1.800000 -0.268333
v -0.244000 0.000000 -0.028333
v -0.244000 0.000000 0.012021
v -0.284000 0.000000 0.016021
v -0.284000 0.000000 -0.032333
v -0.240000 0.000000 -0.032333
v -0.240000 0.000000 0.016021
v -0.284000 0.016000 0.016021
v -0.240000 0.016000 0.016021
v -0.240000 0.016000 -0.032333
v -0.284000 0.016000 -0.032333
v 0.244000 1.800000 -0.227979
v 0.244000 1.800000 -0.268333
v 0.244000 0.000000 -0.028333
v 0.244000 0.000000 0.012021
v 0.280000 0.000000 0.012021
v 0.280000 0.000000 -0.028333
v 0.280000 1.800000 -0.268333
v 0.280000 1.800000 -0.227979
v 0.240000 0.000000 0.016021
v 0.240000 0.000000 -0.032333
v 0.284000 0.000000 -0.032333
v 0.284000 0.000000 0.016021
v 0.240000 0.016000 0.016021
v 0.284000 0.016000 0.016021
v 0.284000 0.016000 -0.032333
v 0.240000 0.016000 -0.032333
v -0.244000 0.226000 -0.003667
v -0.244000 0.226000 -0.047667
v 0.244000 0.226000 -0.047667
v 0.244000 0.226000 -0.003667
v -0.244000 0.250000 -0.003667
v 0.244000 0.250000 -0.003667
v 0.244000 0.250000 -0.047667
v -0.244000 0.250000 -0.047667
v -0.275692 0.250000 -0.059128
v 0.275692 0.250000 -0.059128
v 0.275692 0.250000 0.265795
v -0.275692 0.250000 0.265795
v 0.280000 0.255000 0.268333
v -0.280000 0.255000 0.268333
v 0.280000 0.255000 -0.061667
v -0.280000 0.255000 -0.061667
v 0.280000 0.271000 0.268333
v -0.280000 0.271000 0.268333
v 0.280000 0.271000 -0.061667
v -0.280000 0.271000 -0.061667
v -0.275692 0.276000 0.265795
v 0.275692 0.276000 0.265795
v 0.275692 0.276000 -0.059128
v -0.275692 0.276000 -0.059128
v -0.244000 0.586000 -0.051667
v -0.244000 0.586000 -0.095667
v 0.244000 0.586000 -0.095667
v 0.244000 0.586000 -0.051667
v -0.244000 0.610000 -0.051667
v 0.244000 0.610000 -0.051667
v 0.244000 0.610000 -0.095667
v -0.244000 0.610000 -0.095667
v -0.275586 0.610000 -0.107318
v 0.275586 0.610000 -0.107318
v 0.275586 0.610000 0.185984
v -0.275586 0.610000 0.185984
v 0.280000 0.615000 0.188333
v -0.280000 0.615000 0.188333
v 0.280000 0.615000 -0.109667
v -0.280000 0.615000 -0.109667
v 0.280000 0.631000 0.188333
v -0.280000 0.631000 0.188333
v 0.280000 0.631000 -0.109667
v -0.280000 0.631000 -0.109667
v -0.275586 0.636000 0.185984
v 0.275586 0.636000 0.185984
v 0.275586 0.636000 -0.107318
v -0.275586 0.636000 -0.107318
v -0.244000 0.946000 -0.099667
v -0.244000 0.946000 -0.143667
v 0.244000 0.946000 -0.143667
v 0.244000 0.946000 -0.099667
v -0.244000 0.970000 -0.099667
v 0.244000 0.970000 -0.099667
v 0.244000 0.970000 -0.143667
v -0.244000 0.970000 -0.143667
v -0.275484 0.970000 -0.155521
v 0.275484 0.970000 -0.155521
v 0.275484 0.970000 0.106188
v -0.275484 0.970000 0.106188
v 0.280000 0.975000 0.108333
v -0.280000 0.975000 0.108333
v 0.280000 0.975000 -0.157667
v -0.280000 0.975000 -0.157667
v 0.280000 0.991000 0.108333
v -0.280000 0.991000 0.108333
v 0.280000 0.991000 -0.157667
v -0.280000 0.991000 -0.157667
v -0.275484 0.996000 0.106188
v 0.275484 0.996000 0.106188
v 0.275484 0.996000 -0.155521
v -0.275484 0.996000 -0.155521
v -0.244000 1.306000 -0.147667
v -0.244000 1.306000 -0.191667
v 0.244000 1.306000 -0.191667
v 0.244000 1.306000 -0.147667
v -0.244000 1.330000 -0.147667
v 0.244000 1.330000 -0.147667
v 0.244000 1.330000 -0.191667
v -0.244000 1.330000 -0.191667
v -0.275387 1.330000 -0.203739
v 0.275387 1.330000 -0.203739
v 0.275387 1.330000 0.026406
v -0.275387 1.330000 0.026406
v 0.280000 1.335000 0.028333
v -0.280000 1.335000 0.028333
v 0.280000 1.335000 -0.205667
v -0.280000 1.335000 -0.205667
v 0.280000 1.351000 0.028333
v -0.280000 1.351000 0.028333
v 0.280000 1.351000 -0.205667
v -0.280000 1.351000 -0.205667
v -0.275387 1.356000 0.026406
v 0.275387 1.356000 0.026406
v 0.275387 1.356000 -0.203739
v -0.275387 1.356000 -0.203739
v -0.244000 1.666000 -0.195667
v -0.244000 1.666000 -0.239667
v 0.244000 1.666000 -0.239667
v 0.244000 1.666000 -0.195667
v -0.244000 1.690000 -0.195667
v 0.244000 1.690000 -0.195667
v 0.244000 1.690000 -0.239667
v -0.244000 1.690000 -0.239667
v -0.275297 1.690000 -0.251970
v 0.275297 1.690000 -0.251970
v 0.275297 1.690000 -0.053363
v -0.275297 1.690000 -0.053363
v 0.280000 1.695000 -0.051667
v -0.280000 1.695000 -0.051667
v 0.280000 1.695000 -0.253667
v -0.280000 1.695000 -0.253667
v 0.280000 1.711000 -0.051667
v -0.280000 1.711000 -0.051667
v 0.280000 1.711000 -0.253667
v -0.280000 1.711000 -0.253667
v -0.275297 1.716000 -0.053363
v 0.275297 1.716000 -0.053363
v 0.275297 1.716000 -0.251970
v -0.275297 1.716000 -0.251970
v -0.244000 1.722000 -0.220333
v -0.244000 1.722000 -0.258333
v 0.244000 1.722000 -0.258333
v 0.244000 1.722000 -0.220333
v -0.244000 1.770000 -0.220333
v 0.244000 1.770000 -0.220333
v 0.244000 1.770000 -0.258333
v -0.244000 1.770000 -0.258333
vn 1.0000 -0.0000 -0.0000
vn -1.0000 -0.0000 -0.0000
vn -0.0000 -1.0000 -0.0000
vn -0.0000 0.1322 0.9912
vn -0.0000 1.0000 -0.0000
vn -0.0000 -0.1322 -0.9912
vn -0.0000 -0.0000 1.0000
vn -0.0000 -0.0000 -1.0000
vn -0.0000 -0.4527 0.8917
vn 0.7576 -0.6527 -0.0000
vn -0.0000 -0.4527 -0.8917
vn -0.7576 -0.6527 -0.0000
vn -0.0000 0.4527 0.8917
vn 0.7576 0.6527 -0.0000
vn -0.0000 0.4527 -0.8917
vn -0.7576 0.6527 -0.0000
vn -0.0000 -0.4252 0.9051
vn 0.7497 -0.6618 -0.0000
vn -0.0000 -0.4252 -0.9051
vn -0.7497 -0.6618 -0.0000
vn -0.0000 0.4252 0.9051
vn 0.7497 0.6618 -0.0000
vn -0.0000 0.4252 -0.9051
vn -0.7497 0.6618 -0.0000
vn -0.0000 -0.3943 0.9190
vn 0.7421 -0.6703 -0.0000
vn -0.0000 -0.3943 -0.9190
vn -0.7421 -0.6703 -0.0000
vn -0.0000 0.3943 0.9190
vn 0.7421 0.6703 -0.0000
vn -0.0000 0.3943 -0.9190
vn -0.7421 0.6703 -0.0000
vn -0.0000 -0.3597 0.9331
vn 0.7349 -0.6781 -0.0000
vn -0.0000 -0.3597 -0.9331
vn -0.7349 -0.6781 -0.0000
vn -0.0000 0.3597 0.9331
vn 0.7349 0.6781 -0.0000
vn -0.0000 0.3597 -0.9331
vn -0.7349 0.6781 -0.0000
vn -0.0000 -0.3213 0.9470
vn 0.7284 -0.6852 -0.0000
vn -0.0000 -0.3213 -0.9470
vn -0.7284 -0.6852 -0.0000
vn -0.0000 0.3213 0.9470
vn 0.7284 0.6852 -0.0000
vn -0.0000 0.3213 -0.9470
vn -0.7284 0.6852 -0.0000
vt 0.812500 0.312500
vt 0.937500 0.187500
vt 0.562500 0.937500
vt 0.312500 0.937500
s 0
usemtl FN_Atlas
f 1/1/1 2/1/1 3/1/1 4/1/1
f 5/1/2 6/1/2 7/1/2 8/1/2
f 4/1/3 3/1/3 6/1/3 5/1/3
f 3/1/4 2/1/4 7/1/4 6/1/4
f 2/1/5 1/1/5 8/1/5 7/1/5
f 1/1/6 4/1/6 5/1/6 8/1/6
f 9/2/3 10/2/3 11/2/3 12/2/3
f 13/2/5 14/2/5 15/2/5 16/2/5
f 9/2/7 12/2/7 14/2/7 13/2/7
f 11/2/8 10/2/8 16/2/8 15/2/8
f 9/2/2 13/2/2 16/2/2 10/2/2
f 12/2/1 11/2/1 15/2/1 14/2/1
f 17/1/2 18/1/2 19/1/2 20/1/2
f 21/1/1 22/1/1 23/1/1 24/1/1
f 20/1/3 19/1/3 22/1/3 21/1/3
f 19/1/6 18/1/6 23/1/6 22/1/6
f 18/1/5 17/1/5 24/1/5 23/1/5
f 17/1/4 20/1/4 21/1/4 24/1/4
f 25/2/3 26/2/3 27/2/3 28/2/3
f 29/2/5 30/2/5 31/2/5 32/2/5
f 25/2/7 28/2/7 30/2/7 29/2/7
f 27/2/8 26/2/8 32/2/8 31/2/8
f 25/2/2 29/2/2 32/2/2 26/2/2
f 28/2/1 27/2/1 31/2/1 30/2/1
f 33/1/3 34/1/3 35/1/3 36/1/3
f 37/1/5 38/1/5 39/1/5 40/1/5
f 33/1/7 36/1/7 38/1/7 37/1/7
f 35/1/8 34/1/8 40/1/8 39/1/8
f 33/1/2 37/1/2 40/1/2 34/1/2
f 36/1/1 35/1/1 39/1/1 38/1/1
f 41/3/3 42/3/3 43/3/3 44/3/3
f 44/3/9 43/3/9 45/3/9 46/3/9
f 43/3/10 42/3/10 47/3/10 45/3/10
f 42/3/11 41/3/11 48/3/11 47/3/11
f 41/3/12 44/3/12 46/3/12 48/3/12
f 46/3/7 45/3/7 49/3/7 50/3/7
f 45/3/1 47/3/1 51/3/1 49/3/1
f 47/3/8 48/3/8 52/3/8 51/3/8
f 48/3/2 46/3/2 50/3/2 52/3/2
f 53/4/5 54/4/5 55/4/5 56/4/5
f 50/3/13 49/3/13 54/3/13 53/3/13
f 49/3/14 51/3/14 55/3/14 54/3/14
f 51/3/15 52/3/15 56/3/15 55/3/15
f 52/3/16 50/3/16 53/3/16 56/3/16
f 57/1/3 58/1/3 59/1/3 60/1/3
f 61/1/5 62/1/5 63/1/5 64/1/5
f 57/1/7 60/1/7 62/1/7 61/1/7
f 59/1/8 58/1/8 64/1/8 63/1/8
f 57/1/2 61/1/2 64/1/2 58/1/2
f 60/1/1 59/1/1 63/1/1 62/1/1
f 65/3/3 66/3/3 67/3/3 68/3/3
f 68/3/17 67/3/17 69/3/17 70/3/17
f 67/3/18 66/3/18 71/3/18 69/3/18
f 66/3/19 65/3/19 72/3/19 71/3/19
f 65/3/20 68/3/20 70/3/20 72/3/20
f 70/3/7 69/3/7 73/3/7 74/3/7
f 69/3/1 71/3/1 75/3/1 73/3/1
f 71/3/8 72/3/8 76/3/8 75/3/8
f 72/3/2 70/3/2 74/3/2 76/3/2
f 77/4/5 78/4/5 79/4/5 80/4/5
f 74/3/21 73/3/21 78/3/21 77/3/21
f 73/3/22 75/3/22 79/3/22 78/3/22
f 75/3/23 76/3/23 80/3/23 79/3/23
f 76/3/24 74/3/24 77/3/24 80/3/24
f 81/1/3 82/1/3 83/1/3 84/1/3
f 85/1/5 86/1/5 87/1/5 88/1/5
f 81/1/7 84/1/7 86/1/7 85/1/7
f 83/1/8 82/1/8 88/1/8 87/1/8
f 81/1/2 85/1/2 88/1/2 82/1/2
f 84/1/1 83/1/1 87/1/1 86/1/1
f 89/3/3 90/3/3 91/3/3 92/3/3
f 92/3/25 91/3/25 93/3/25 94/3/25
f 91/3/26 90/3/26 95/3/26 93/3/26
f 90/3/27 89/3/27 96/3/27 95/3/27
f 89/3/28 92/3/28 94/3/28 96/3/28
f 94/3/7 93/3/7 97/3/7 98/3/7
f 93/3/1 95/3/1 99/3/1 97/3/1
f 95/3/8 96/3/8 100/3/8 99/3/8
f 96/3/2 94/3/2 98/3/2 100/3/2
f 101/4/5 102/4/5 103/4/5 104/4/5
f 98/3/29 97/3/29 102/3/29 101/3/29
f 97/3/30 99/3/30 103/3/30 102/3/30
f 99/3/31 100/3/31 104/3/31 103/3/31
f 100/3/32 98/3/32 101/3/32 104/3/32
f 105/1/3 106/1/3 107/1/3 108/1/3
f 109/1/5 110/1/5 111/1/5 112/1/5
f 105/1/7 108/1/7 110/1/7 109/1/7
f 107/1/8 106/1/8 112/1/8 111/1/8
f 105/1/2 109/1/2 112/1/2 106/1/2
f 108/1/1 107/1/1 111/1/1 110/1/1
f 113/3/3 114/3/3 115/3/3 116/3/3
f 116/3/33 115/3/33 117/3/33 118/3/33
f 115/3/34 114/3/34 119/3/34 117/3/34
f 114/3/35 113/3/35 120/3/35 119/3/35
f 113/3/36 116/3/36 118/3/36 120/3/36
f 118/3/7 117/3/7 121/3/7 122/3/7
f 117/3/1 119/3/1 123/3/1 121/3/1
f 119/3/8 120/3/8 124/3/8 123/3/8
f 120/3/2 118/3/2 122/3/2 124/3/2
f 125/4/5 126/4/5 127/4/5 128/4/5
f 122/3/37 121/3/37 126/3/37 125/3/37
f 121/3/38 123/3/38 127/3/38 126/3/38
f 123/3/39 124/3/39 128/3/39 127/3/39
f 124/3/40 122/3/40 125/3/40 128/3/40
f 129/1/3 130/1/3 131/1/3 132/1/3
f 133/1/5 134/1/5 135/1/5 136/1/5
f 129/1/7 132/1/7 134/1/7 133/1/7
f 131/1/8 130/1/8 136/1/8 135/1/8
f 129/1/2 133/1/2 136/1/2 130/1/2
f 132/1/1 131/1/1 135/1/1 134/1/1
f 137/3/3 138/3/3 139/3/3 140/3/3
f 140/3/41 139/3/41 141/3/41 142/3/41
f 139/3/42 138/3/42 143/3/42 141/3/42
f 138/3/43 137/3/43 144/3/43 143/3/43
f 137/3/44 140/3/44 142/3/44 144/3/44
f 142/3/7 141/3/7 145/3/7 146/3/7
f 141/3/1 143/3/1 147/3/1 145/3/1
f 143/3/8 144/3/8 148/3/8 147/3/8
f 144/3/2 142/3/2 146/3/2 148/3/2
f 149/4/5 150/4/5 151/4/5 152/4/5
f 146/3/45 145/3/45 150/3/45 149/3/45
f 145/3/46 147/3/46 151/3/46 150/3/46
f 147/3/47 148/3/47 152/3/47 151/3/47
f 148/3/48 146/3/48 149/3/48 152/3/48
f 153/1/3 154/1/3 155/1/3 156/1/3
f 157/1/5 158/1/5 159/1/5 160/1/5
f 153/1/7 156/1/7 158/1/7 157/1/7
f 155/1/8 154/1/8 160/1/8 159/1/8
f 153/1/2 157/1/2 160/1/2 154/1/2
f 156/1/1 155/1/1 159/1/1 158/1/1
