# Blender 5.2.0 LTS
# www.blender.org
mtllib FN_Stool_Piano.mtl
o FN_Stool_Piano
v -0.300000 0.380000 0.232372
v -0.300000 0.380000 -0.107628
v -0.270000 0.380000 -0.107628
v -0.270000 0.380000 0.232372
v -0.300000 0.480000 0.232372
v -0.270000 0.480000 0.232372
v -0.270000 0.480000 -0.107628
v -0.300000 0.480000 -0.107628
v 0.270000 0.380000 0.232372
v 0.270000 0.380000 -0.107628
v 0.300000 0.380000 -0.107628
v 0.300000 0.380000 0.232372
v 0.270000 0.480000 0.232372
v 0.300000 0.480000 0.232372
v 0.300000 0.480000 -0.107628
v 0.270000 0.480000 -0.107628
v -0.300000 0.380000 0.204372
v 0.300000 0.380000 0.204372
v 0.300000 0.480000 0.204372
v -0.300000 0.480000 0.204372
v -0.300000 0.380000 -0.079628
v 0.300000 0.380000 -0.079628
v -0.300000 0.480000 -0.079628
v 0.300000 0.480000 -0.079628
v -0.300000 0.404000 0.232372
v 0.300000 0.404000 0.232372
v 0.300000 0.404000 -0.107628
v -0.300000 0.404000 -0.107628
v -0.256000 0.000000 0.161372
v -0.224000 0.000000 0.161372
v -0.224000 0.000000 0.193372
v -0.256000 0.000000 0.193372
v -0.264000 0.395000 0.201372
v -0.216000 0.395000 0.201372
v -0.216000 0.395000 0.153372
v -0.264000 0.395000 0.153372
v -0.256000 0.000000 -0.068628
v -0.224000 0.000000 -0.068628
v -0.224000 0.000000 -0.036628
v -0.256000 0.000000 -0.036628
v -0.264000 0.395000 -0.028628
v -0.216000 0.395000 -0.028628
v -0.216000 0.395000 -0.076628
v -0.264000 0.395000 -0.076628
v 0.224000 0.000000 0.161372
v 0.256000 0.000000 0.161372
v 0.256000 0.000000 0.193372
v 0.224000 0.000000 0.193372
v 0.216000 0.395000 0.201372
v 0.264000 0.395000 0.201372
v 0.264000 0.395000 0.153372
v 0.216000 0.395000 0.153372
v 0.224000 0.000000 -0.068628
v 0.256000 0.000000 -0.068628
v 0.256000 0.000000 -0.036628
v 0.224000 0.000000 -0.036628
v 0.216000 0.395000 -0.028628
v 0.264000 0.395000 -0.028628
v 0.264000 0.395000 -0.076628
v 0.216000 0.395000 -0.076628
v -0.300000 0.483106 -0.082037
v -0.300000 0.811521 -0.170035
v -0.300000 0.805309 -0.193217
v -0.300000 0.476894 -0.105219
v 0.300000 0.476894 -0.105219
v 0.300000 0.805309 -0.193217
v 0.300000 0.811521 -0.170035
v 0.300000 0.483106 -0.082037
v -0.302000 0.474962 -0.104701
v -0.302000 0.807241 -0.193735
v -0.302000 0.796888 -0.232372
v -0.302000 0.464610 -0.143338
v 0.302000 0.464610 -0.143338
v 0.302000 0.796888 -0.232372
v 0.302000 0.807241 -0.193735
v 0.302000 0.474962 -0.104701
v -0.205000 0.467876 -0.100628
v -0.205000 0.467876 -0.086628
v -0.205000 0.480000 -0.079628
v -0.205000 0.492124 -0.086628
v -0.205000 0.492124 -0.100628
v -0.205000 0.480000 -0.107628
v -0.155000 0.480000 -0.107628
v -0.155000 0.492124 -0.100628
v -0.155000 0.492124 -0.086628
v -0.155000 0.480000 -0.079628
v -0.155000 0.467876 -0.086628
v -0.155000 0.467876 -0.100628
v 0.155000 0.467876 -0.100628
v 0.155000 0.467876 -0.086628
v 0.155000 0.480000 -0.079628
v 0.155000 0.492124 -0.086628
v 0.155000 0.492124 -0.100628
v 0.155000 0.480000 -0.107628
v 0.205000 0.480000 -0.107628
v 0.205000 0.492124 -0.100628
v 0.205000 0.492124 -0.086628
v 0.205000 0.480000 -0.079628
v 0.205000 0.467876 -0.086628
v 0.205000 0.467876 -0.100628
v -0.230000 0.404000 0.172372
v -0.230000 0.404000 -0.047628
v 0.100000 0.404000 -0.047628
v 0.100000 0.404000 0.172372
v -0.230000 0.430000 0.172372
v 0.100000 0.430000 0.172372
v 0.100000 0.430000 -0.047628
v -0.230000 0.430000 -0.047628
v 0.120000 0.404000 0.162372
v 0.120000 0.404000 -0.057628
v 0.250000 0.404000 -0.057628
v 0.250000 0.404000 0.162372
v 0.120000 0.436000 0.162372
v 0.250000 0.436000 0.162372
v 0.250000 0.436000 -0.057628
v 0.120000 0.436000 -0.057628
vn -0.0000 -1.0000 -0.0000
vn -0.0000 1.0000 -0.0000
vn -0.0000 -0.0000 1.0000
vn -0.0000 -0.0000 -1.0000
vn -1.0000 -0.0000 -0.0000
vn 1.0000 -0.0000 -0.0000
vn -0.0000 -0.0202 0.9998
vn 0.9998 -0.0202 -0.0000
vn -0.0000 -0.0202 -0.9998
vn -0.9998 -0.0202 -0.0000
vn -0.0000 0.2588 0.9659
vn -0.0000 0.9659 -0.2588
vn -0.0000 -0.2588 -0.9659
vn -0.0000 -0.9659 0.2588
vn -0.0000 0.5000 -0.8660
vn -0.0000 0.5000 0.8660
vn -0.0000 -0.5000 0.8660
vn -0.0000 -0.5000 -0.8660
vt 0.812500 0.937500
vt 0.812500 0.437500
vt 0.437500 0.312500
vt 0.312500 0.687500
vt 0.312500 0.562500
s 0
usemtl FN_Atlas
f 1/1/1 2/1/1 3/1/1 4/1/1
f 5/1/2 6/1/2 7/1/2 8/1/2
f 1/1/3 4/1/3 6/1/3 5/1/3
f 3/1/4 2/1/4 8/1/4 7/1/4
f 1/1/5 5/1/5 8/1/5 2/1/5
f 4/1/6 3/1/6 7/1/6 6/1/6
f 9/1/1 10/1/1 11/1/1 12/1/1
f 13/1/2 14/1/2 15/1/2 16/1/2
f 9/1/3 12/1/3 14/1/3 13/1/3
f 11/1/4 10/1/4 16/1/4 15/1/4
f 9/1/5 13/1/5 16/1/5 10/1/5
f 12/1/6 11/1/6 15/1/6 14/1/6
f 1/1/1 17/1/1 18/1/1 12/1/1
f 5/1/2 14/1/2 19/1/2 20/1/2
f 1/1/3 12/1/3 14/1/3 5/1/3
f 18/1/4 17/1/4 20/1/4 19/1/4
f 1/1/5 5/1/5 20/1/5 17/1/5
f 12/1/6 18/1/6 19/1/6 14/1/6
f 21/1/1 2/1/1 11/1/1 22/1/1
f 23/1/2 24/1/2 15/1/2 8/1/2
f 21/1/3 22/1/3 24/1/3 23/1/3
f 11/1/4 2/1/4 8/1/4 15/1/4
f 21/1/5 23/1/5 8/1/5 2/1/5
f 22/1/6 11/1/6 15/1/6 24/1/6
f 1/1/1 2/1/1 11/1/1 12/1/1
f 25/1/2 26/1/2 27/1/2 28/1/2
f 1/1/3 12/1/3 26/1/3 25/1/3
f 11/1/4 2/1/4 28/1/4 27/1/4
f 1/1/5 25/1/5 28/1/5 2/1/5
f 12/1/6 11/1/6 27/1/6 26/1/6
f 29/1/1 30/1/1 31/1/1 32/1/1
f 33/1/2 34/1/2 35/1/2 36/1/2
f 32/1/7 31/1/7 34/1/7 33/1/7
f 31/1/8 30/1/8 35/1/8 34/1/8
f 30/1/9 29/1/9 36/1/9 35/1/9
f 29/1/10 32/1/10 33/1/10 36/1/10
f 37/1/1 38/1/1 39/1/1 40/1/1
f 41/1/2 42/1/2 43/1/2 44/1/2
f 40/1/7 39/1/7 42/1/7 41/1/7
f 39/1/8 38/1/8 43/1/8 42/1/8
f 38/1/9 37/1/9 44/1/9 43/1/9
f 37/1/10 40/1/10 41/1/10 44/1/10
f 45/1/1 46/1/1 47/1/1 48/1/1
f 49/1/2 50/1/2 51/1/2 52/1/2
f 48/1/7 47/1/7 50/1/7 49/1/7
f 47/1/8 46/1/8 51/1/8 50/1/8
f 46/1/9 45/1/9 52/1/9 51/1/9
f 45/1/10 48/1/10 49/1/10 52/1/10
f 53/1/1 54/1/1 55/1/1 56/1/1
f 57/1/2 58/1/2 59/1/2 60/1/2
f 56/1/7 55/1/7 58/1/7 57/1/7
f 55/1/8 54/1/8 59/1/8 58/1/8
f 54/1/9 53/1/9 60/1/9 59/1/9
f 53/1/10 56/1/10 57/1/10 60/1/10
f 61/1/5 62/1/5 63/1/5 64/1/5
f 65/1/6 66/1/6 67/1/6 68/1/6
f 68/1/11 67/1/11 62/1/11 61/1/11
f 67/1/12 66/1/12 63/1/12 62/1/12
f 66/1/13 65/1/13 64/1/13 63/1/13
f 65/1/14 68/1/14 61/1/14 64/1/14
f 69/2/5 70/2/5 71/2/5 72/2/5
f 73/2/6 74/2/6 75/2/6 76/2/6
f 76/2/11 75/2/11 70/2/11 69/2/11
f 75/2/12 74/2/12 71/2/12 70/2/12
f 74/2/13 73/2/13 72/2/13 71/2/13
f 73/2/14 76/2/14 69/2/14 72/2/14
f 77/3/5 78/3/5 79/3/5 80/3/5 81/3/5 82/3/5
f 83/3/6 84/3/6 85/3/6 86/3/6 87/3/6 88/3/6
f 82/3/15 81/3/15 84/3/15 83/3/15
f 81/3/2 80/3/2 85/3/2 84/3/2
f 80/3/16 79/3/16 86/3/16 85/3/16
f 79/3/17 78/3/17 87/3/17 86/3/17
f 78/3/1 77/3/1 88/3/1 87/3/1
f 77/3/18 82/3/18 83/3/18 88/3/18
f 89/3/5 90/3/5 91/3/5 92/3/5 93/3/5 94/3/5
f 95/3/6 96/3/6 97/3/6 98/3/6 99/3/6 100/3/6
f 94/3/15 93/3/15 96/3/15 95/3/15
f 93/3/2 92/3/2 97/3/2 96/3/2
f 92/3/16 91/3/16 98/3/16 97/3/16
f 91/3/17 90/3/17 99/3/17 98/3/17
f 90/3/1 89/3/1 100/3/1 99/3/1
f 89/3/18 94/3/18 95/3/18 100/3/18
f 101/4/1 102/4/1 103/4/1 104/4/1
f 105/4/2 106/4/2 107/4/2 108/4/2
f 101/4/3 104/4/3 106/4/3 105/4/3
f 103/4/4 102/4/4 108/4/4 107/4/4
f 101/4/5 105/4/5 108/4/5 102/4/5
f 104/4/6 103/4/6 107/4/6 106/4/6
f 109/5/1 110/5/1 111/5/1 112/5/1
f 113/5/2 114/5/2 115/5/2 116/5/2
f 109/5/3 112/5/3 114/5/3 113/5/3
f 111/5/4 110/5/4 116/5/4 115/5/4
f 109/5/5 113/5/5 116/5/5 110/5/5
f 112/5/6 111/5/6 115/5/6 114/5/6
