# Blender 5.2.0 LTS
# www.blender.org
mtllib FN_Stand_Umbrella.mtl
o FN_Stand_Umbrella
v 0.117126 0.000000 0.056405
v 0.081054 0.000000 0.101638
v 0.028928 0.000000 0.126741
v -0.028928 0.000000 0.126741
v -0.081054 0.000000 0.101638
v -0.117126 0.000000 0.056405
v -0.130000 0.000000 -0.000000
v -0.117126 0.000000 -0.056405
v -0.081054 0.000000 -0.101638
v -0.028928 0.000000 -0.126741
v 0.028928 0.000000 -0.126741
v 0.081054 0.000000 -0.101638
v 0.117126 0.000000 -0.056405
v 0.130000 0.000000 0.000000
v 0.117126 0.022000 -0.056405
v 0.130000 0.022000 0.000000
v 0.081054 0.022000 -0.101638
v 0.028928 0.022000 -0.126741
v -0.028928 0.022000 -0.126741
v -0.081054 0.022000 -0.101638
v -0.117126 0.022000 -0.056405
v -0.130000 0.022000 -0.000000
v -0.117126 0.022000 0.056405
v -0.081054 0.022000 0.101638
v -0.028928 0.022000 0.126741
v 0.028928 0.022000 0.126741
v 0.081054 0.022000 0.101638
v 0.117126 0.022000 0.056405
v 0.099107 0.022000 -0.047727
v 0.110000 0.022000 0.000000
v 0.068584 0.022000 -0.086001
v 0.024477 0.022000 -0.107242
v -0.024477 0.022000 -0.107242
v -0.068584 0.022000 -0.086001
v -0.099107 0.022000 -0.047727
v -0.110000 0.022000 -0.000000
v -0.099107 0.022000 0.047727
v -0.068584 0.022000 0.086001
v -0.024477 0.022000 0.107242
v 0.024477 0.022000 0.107242
v 0.068584 0.022000 0.086001
v 0.099107 0.022000 0.047727
v 0.113522 0.520000 -0.054669
v 0.126000 0.520000 0.000000
v 0.078560 0.520000 -0.098511
v 0.028038 0.520000 -0.122841
v -0.028038 0.520000 -0.122841
v -0.078560 0.520000 -0.098511
v -0.113522 0.520000 -0.054669
v -0.126000 0.520000 -0.000000
v -0.113522 0.520000 0.054669
v -0.078560 0.520000 0.098511
v -0.028038 0.520000 0.122841
v 0.028038 0.520000 0.122841
v 0.078560 0.520000 0.098511
v 0.113522 0.520000 0.054669
v 0.097305 0.520000 -0.046859
v 0.108000 0.520000 0.000000
v 0.067337 0.520000 -0.084438
v 0.024032 0.520000 -0.105292
v -0.024032 0.520000 -0.105292
v -0.067337 0.520000 -0.084438
v -0.097305 0.520000 -0.046859
v -0.108000 0.520000 -0.000000
v -0.097305 0.520000 0.046859
v -0.067337 0.520000 0.084438
v -0.024032 0.520000 0.105292
v 0.024032 0.520000 0.105292
v 0.067337 0.520000 0.084438
v 0.097305 0.520000 0.046859
v 0.091899 0.060000 -0.044256
v 0.102000 0.060000 0.000000
v 0.063596 0.060000 -0.079747
v 0.022697 0.060000 -0.099443
v -0.022697 0.060000 -0.099443
v -0.063596 0.060000 -0.079747
v -0.091899 0.060000 -0.044256
v -0.102000 0.060000 -0.000000
v -0.091899 0.060000 0.044256
v -0.063596 0.060000 0.079747
v -0.022697 0.060000 0.099443
v 0.022697 0.060000 0.099443
v 0.063596 0.060000 0.079747
v 0.091899 0.060000 0.044256
v 0.020924 0.091592 0.010830
v 0.030094 0.090903 0.007032
v 0.039209 0.089686 0.010830
v 0.042930 0.088652 0.020000
v 0.039076 0.088408 0.029170
v 0.029906 0.089097 0.032968
v 0.020791 0.090314 0.029170
v 0.017070 0.091348 0.020000
v 0.052791 0.430314 0.051170
v 0.049070 0.431348 0.042000
v 0.061906 0.429097 0.054968
v 0.071076 0.428408 0.051170
v 0.074930 0.428652 0.042000
v 0.071209 0.429686 0.032830
v 0.062094 0.430903 0.029032
v 0.052924 0.431592 0.032830
v 0.061914 0.620821 0.081983
v 0.052183 0.623525 0.058000
v 0.085754 0.617637 0.091917
v 0.109738 0.615837 0.081983
v 0.119817 0.616475 0.058000
v 0.110086 0.619179 0.034017
v 0.086246 0.622363 0.024083
v 0.062262 0.624163 0.034017
v 0.099041 0.800169 0.074938
v 0.097038 0.800726 0.070000
v 0.103949 0.799514 0.076983
v 0.108887 0.799143 0.074938
v 0.110962 0.799274 0.070000
v 0.108959 0.799831 0.065062
v 0.104051 0.800486 0.063017
v 0.099113 0.800857 0.065062
v -0.047059 0.088291 -0.035166
v -0.037891 0.089015 -0.038962
v -0.028786 0.090316 -0.035166
v -0.025079 0.091431 -0.026000
v -0.028941 0.091709 -0.016834
v -0.038109 0.090985 -0.013038
v -0.047214 0.089684 -0.016834
v -0.050921 0.088569 -0.026000
v -0.079214 0.399684 -0.038834
v -0.082921 0.398569 -0.048000
v -0.070109 0.400985 -0.035038
v -0.060941 0.401709 -0.038834
v -0.057079 0.401431 -0.048000
v -0.060786 0.400316 -0.057166
v -0.069891 0.399015 -0.060962
v -0.079059 0.398291 -0.057166
v -0.114680 0.579223 -0.040438
v -0.123805 0.576477 -0.063000
v -0.092269 0.582425 -0.031093
v -0.069700 0.584206 -0.040438
v -0.060195 0.583523 -0.063000
v -0.069320 0.580777 -0.085562
v -0.091731 0.577575 -0.094907
v -0.114300 0.575794 -0.085562
v -0.114961 0.739830 -0.071065
v -0.116957 0.739229 -0.076000
v -0.110059 0.740530 -0.069020
v -0.105122 0.740920 -0.071065
v -0.103043 0.740771 -0.076000
v -0.105039 0.740170 -0.080935
v -0.109941 0.739470 -0.082980
v -0.114878 0.739080 -0.080935
vn -0.0000 -1.0000 -0.0000
vn 0.9749 -0.0000 -0.2225
vn 0.7818 -0.0000 -0.6235
vn 0.4339 -0.0000 -0.9010
vn -0.0000 -0.0000 -1.0000
vn -0.4339 -0.0000 -0.9010
vn -0.7818 -0.0000 -0.6235
vn -0.9749 -0.0000 -0.2225
vn -0.9749 -0.0000 0.2225
vn -0.7818 -0.0000 0.6235
vn -0.4339 -0.0000 0.9010
vn -0.0000 -0.0000 1.0000
vn 0.4339 -0.0000 0.9010
vn 0.7818 -0.0000 0.6235
vn 0.9749 -0.0000 0.2225
vn -0.0000 1.0000 -0.0000
vn 0.9745 -0.0313 -0.2224
vn 0.7814 -0.0313 -0.6232
vn 0.4337 -0.0313 -0.9005
vn -0.0000 -0.0313 -0.9995
vn -0.4337 -0.0313 -0.9005
vn -0.7814 -0.0313 -0.6232
vn -0.9745 -0.0313 -0.2224
vn -0.9745 -0.0313 0.2224
vn -0.7814 -0.0313 0.6232
vn -0.4337 -0.0313 0.9005
vn -0.0000 -0.0313 0.9995
vn 0.4337 -0.0313 0.9005
vn 0.7814 -0.0313 0.6232
vn 0.9745 -0.0313 0.2224
vn -0.9748 0.0127 0.2225
vn -0.7818 0.0127 0.6234
vn -0.4338 0.0127 0.9009
vn -0.0000 0.0127 0.9999
vn 0.4338 0.0127 0.9009
vn 0.7818 0.0127 0.6234
vn 0.9748 0.0127 0.2225
vn 0.9748 0.0127 -0.2225
vn 0.7818 0.0127 -0.6234
vn 0.4338 0.0127 -0.9009
vn -0.0000 0.0127 -0.9999
vn -0.4338 0.0127 -0.9009
vn -0.7818 0.0127 -0.6234
vn -0.9748 0.0127 -0.2225
vn -0.1034 -0.9922 -0.0699
vn -0.9224 0.0621 0.3812
vn -0.3872 -0.0232 0.9217
vn 0.3748 -0.0950 0.9222
vn 0.9172 -0.1111 0.3825
vn 0.9224 -0.0621 -0.3812
vn 0.3872 0.0232 -0.9217
vn -0.3748 0.0950 -0.9222
vn -0.9172 0.1111 -0.3825
vn -0.9271 -0.0161 0.3744
vn -0.3960 -0.1281 0.9093
vn 0.3587 -0.2230 0.9064
vn 0.8960 -0.2456 0.3700
vn 0.9036 -0.1830 -0.3873
vn 0.3755 -0.0713 -0.9241
vn -0.3810 0.0242 -0.9243
vn -0.9213 0.0471 -0.3859
vn -0.8995 0.2014 0.3877
vn -0.3693 0.1127 0.9224
vn 0.3848 0.0372 0.9223
vn 0.9215 0.0192 0.3878
vn 0.9271 0.0691 -0.3684
vn 0.3977 0.1578 -0.9038
vn -0.3571 0.2334 -0.9044
vn -0.8946 0.2515 -0.3693
vn 0.1034 0.9922 0.0699
vn 0.1098 -0.9910 0.0762
vn -0.9220 -0.0681 0.3812
vn -0.3878 0.0254 0.9214
vn 0.3735 0.1040 0.9218
vn 0.9160 0.1217 0.3822
vn 0.9220 0.0681 -0.3812
vn 0.3878 -0.0254 -0.9214
vn -0.3735 -0.1040 -0.9218
vn -0.9160 -0.1217 -0.3822
vn -0.9051 -0.1753 0.3874
vn -0.3760 -0.0660 0.9243
vn 0.3807 0.0264 0.9243
vn 0.9210 0.0476 0.3866
vn 0.9276 -0.0149 -0.3734
vn 0.3970 -0.1243 -0.9094
vn -0.3589 -0.2165 -0.9079
vn -0.8977 -0.2376 -0.3710
vn -0.9277 0.0683 0.3669
vn -0.3999 0.1710 0.9005
vn 0.3526 0.2556 0.9002
vn 0.8895 0.2727 0.3665
vn 0.8967 0.2122 -0.3885
vn 0.3692 0.1095 -0.9229
vn -0.3841 0.0248 -0.9229
vn -0.9214 0.0077 -0.3884
vn -0.1098 0.9910 -0.0762
vt 0.687500 0.312500
vt 0.312500 0.687500
vt 0.937500 0.687500
vt 0.562500 0.562500
s 0
usemtl FN_Atlas
f 1/1/1 2/1/1 3/1/1 4/1/1 5/1/1 6/1/1 7/1/1 8/1/1 9/1/1 10/1/1 11/1/1 12/1/1 13/1/1 14/1/1
f 14/1/2 13/1/2 15/1/2 16/1/2
f 13/1/3 12/1/3 17/1/3 15/1/3
f 12/1/4 11/1/4 18/1/4 17/1/4
f 11/1/5 10/1/5 19/1/5 18/1/5
f 10/1/6 9/1/6 20/1/6 19/1/6
f 9/1/7 8/1/7 21/1/7 20/1/7
f 8/1/8 7/1/8 22/1/8 21/1/8
f 7/1/9 6/1/9 23/1/9 22/1/9
f 6/1/10 5/1/10 24/1/10 23/1/10
f 5/1/11 4/1/11 25/1/11 24/1/11
f 4/1/12 3/1/12 26/1/12 25/1/12
f 3/1/13 2/1/13 27/1/13 26/1/13
f 2/1/14 1/1/14 28/1/14 27/1/14
f 1/1/15 14/1/15 16/1/15 28/1/15
f 16/1/16 15/1/16 29/1/16 30/1/16
f 15/1/16 17/1/16 31/1/16 29/1/16
f 17/1/16 18/1/16 32/1/16 31/1/16
f 18/1/16 19/1/16 33/1/16 32/1/16
f 19/1/16 20/1/16 34/1/16 33/1/16
f 20/1/16 21/1/16 35/1/16 34/1/16
f 21/1/16 22/1/16 36/1/16 35/1/16
f 22/1/16 23/1/16 37/1/16 36/1/16
f 23/1/16 24/1/16 38/1/16 37/1/16
f 24/1/16 25/1/16 39/1/16 38/1/16
f 25/1/16 26/1/16 40/1/16 39/1/16
f 26/1/16 27/1/16 41/1/16 40/1/16
f 27/1/16 28/1/16 42/1/16 41/1/16
f 28/1/16 16/1/16 30/1/16 42/1/16
f 30/2/17 29/2/17 43/2/17 44/2/17
f 29/2/18 31/2/18 45/2/18 43/2/18
f 31/2/19 32/2/19 46/2/19 45/2/19
f 32/2/20 33/2/20 47/2/20 46/2/20
f 33/2/21 34/2/21 48/2/21 47/2/21
f 34/2/22 35/2/22 49/2/22 48/2/22
f 35/2/23 36/2/23 50/2/23 49/2/23
f 36/2/24 37/2/24 51/2/24 50/2/24
f 37/2/25 38/2/25 52/2/25 51/2/25
f 38/2/26 39/2/26 53/2/26 52/2/26
f 39/2/27 40/2/27 54/2/27 53/2/27
f 40/2/28 41/2/28 55/2/28 54/2/28
f 41/2/29 42/2/29 56/2/29 55/2/29
f 42/2/30 30/2/30 44/2/30 56/2/30
f 44/2/16 43/2/16 57/2/16 58/2/16
f 43/2/16 45/2/16 59/2/16 57/2/16
f 45/2/16 46/2/16 60/2/16 59/2/16
f 46/2/16 47/2/16 61/2/16 60/2/16
f 47/2/16 48/2/16 62/2/16 61/2/16
f 48/2/16 49/2/16 63/2/16 62/2/16
f 49/2/16 50/2/16 64/2/16 63/2/16
f 50/2/16 51/2/16 65/2/16 64/2/16
f 51/2/16 52/2/16 66/2/16 65/2/16
f 52/2/16 53/2/16 67/2/16 66/2/16
f 53/2/16 54/2/16 68/2/16 67/2/16
f 54/2/16 55/2/16 69/2/16 68/2/16
f 55/2/16 56/2/16 70/2/16 69/2/16
f 56/2/16 44/2/16 58/2/16 70/2/16
f 58/1/31 57/1/31 71/1/31 72/1/31
f 57/1/32 59/1/32 73/1/32 71/1/32
f 59/1/33 60/1/33 74/1/33 73/1/33
f 60/1/34 61/1/34 75/1/34 74/1/34
f 61/1/35 62/1/35 76/1/35 75/1/35
f 62/1/36 63/1/36 77/1/36 76/1/36
f 63/1/37 64/1/37 78/1/37 77/1/37
f 64/1/38 65/1/38 79/1/38 78/1/38
f 65/1/39 66/1/39 80/1/39 79/1/39
f 66/1/40 67/1/40 81/1/40 80/1/40
f 67/1/41 68/1/41 82/1/41 81/1/41
f 68/1/42 69/1/42 83/1/42 82/1/42
f 69/1/43 70/1/43 84/1/43 83/1/43
f 70/1/44 58/1/44 72/1/44 84/1/44
f 72/1/16 71/1/16 73/1/16 74/1/16 75/1/16 76/1/16 77/1/16 78/1/16 79/1/16 80/1/16 81/1/16 82/1/16 83/1/16 84/1/16
f 85/3/45 86/3/45 87/3/45 88/3/45 89/3/45 90/3/45 91/3/45 92/3/45
f 92/3/46 91/3/46 93/3/46 94/3/46
f 91/3/47 90/3/47 95/3/47 93/3/47
f 90/3/48 89/3/48 96/3/48 95/3/48
f 89/3/49 88/3/49 97/3/49 96/3/49
f 88/3/50 87/3/50 98/3/50 97/3/50
f 87/3/51 86/3/51 99/3/51 98/3/51
f 86/3/52 85/3/52 100/3/52 99/3/52
f 85/3/53 92/3/53 94/3/53 100/3/53
f 94/3/54 93/3/54 101/3/54 102/3/54
f 93/3/55 95/3/55 103/3/55 101/3/55
f 95/3/56 96/3/56 104/3/56 103/3/56
f 96/3/57 97/3/57 105/3/57 104/3/57
f 97/3/58 98/3/58 106/3/58 105/3/58
f 98/3/59 99/3/59 107/3/59 106/3/59
f 99/3/60 100/3/60 108/3/60 107/3/60
f 100/3/61 94/3/61 102/3/61 108/3/61
f 102/3/62 101/3/62 109/3/62 110/3/62
f 101/3/63 103/3/63 111/3/63 109/3/63
f 103/3/64 104/3/64 112/3/64 111/3/64
f 104/3/65 105/3/65 113/3/65 112/3/65
f 105/3/66 106/3/66 114/3/66 113/3/66
f 106/3/67 107/3/67 115/3/67 114/3/67
f 107/3/68 108/3/68 116/3/68 115/3/68
f 108/3/69 102/3/69 110/3/69 116/3/69
f 110/3/70 109/3/70 111/3/70 112/3/70 113/3/70 114/3/70 115/3/70 116/3/70
f 117/4/71 118/4/71 119/4/71 120/4/71 121/4/71 122/4/71 123/4/71 124/4/71
f 124/4/72 123/4/72 125/4/72 126/4/72
f 123/4/73 122/4/73 127/4/73 125/4/73
f 122/4/74 121/4/74 128/4/74 127/4/74
f 121/4/75 120/4/75 129/4/75 128/4/75
f 120/4/76 119/4/76 130/4/76 129/4/76
f 119/4/77 118/4/77 131/4/77 130/4/77
f 118/4/78 117/4/78 132/4/78 131/4/78
f 117/4/79 124/4/79 126/4/79 132/4/79
f 126/4/80 125/4/80 133/4/80 134/4/80
f 125/4/81 127/4/81 135/4/81 133/4/81
f 127/4/82 128/4/82 136/4/82 135/4/82
f 128/4/83 129/4/83 137/4/83 136/4/83
f 129/4/84 130/4/84 138/4/84 137/4/84
f 130/4/85 131/4/85 139/4/85 138/4/85
f 131/4/86 132/4/86 140/4/86 139/4/86
f 132/4/87 126/4/87 134/4/87 140/4/87
f 134/4/88 133/4/88 141/4/88 142/4/88
f 133/4/89 135/4/89 143/4/89 141/4/89
f 135/4/90 136/4/90 144/4/90 143/4/90
f 136/4/91 137/4/91 145/4/91 144/4/91
f 137/4/92 138/4/92 146/4/92 145/4/92
f 138/4/93 139/4/93 147/4/93 146/4/93
f 139/4/94 140/4/94 148/4/94 147/4/94
f 140/4/95 134/4/95 142/4/95 148/4/95
f 142/4/96 141/4/96 143/4/96 144/4/96 145/4/96 146/4/96 147/4/96 148/4/96
