# Blender 5.2.0 LTS
# www.blender.org
mtllib FN_Sofa_2Seat.mtl
o FN_Sofa_2Seat
v -0.684000 0.000000 0.351000
v -0.644000 0.000000 0.351000
v -0.644000 0.000000 0.391000
v -0.684000 0.000000 0.391000
v -0.694000 0.146000 0.401000
v -0.634000 0.146000 0.401000
v -0.634000 0.146000 0.341000
v -0.694000 0.146000 0.341000
v -0.684000 0.000000 -0.345000
v -0.644000 0.000000 -0.345000
v -0.644000 0.000000 -0.305000
v -0.684000 0.000000 -0.305000
v -0.694000 0.146000 -0.295000
v -0.634000 0.146000 -0.295000
v -0.634000 0.146000 -0.355000
v -0.694000 0.146000 -0.355000
v 0.644000 0.000000 0.351000
v 0.684000 0.000000 0.351000
v 0.684000 0.000000 0.391000
v 0.644000 0.000000 0.391000
v 0.634000 0.146000 0.401000
v 0.694000 0.146000 0.401000
v 0.694000 0.146000 0.341000
v 0.634000 0.146000 0.341000
v 0.644000 0.000000 -0.345000
v 0.684000 0.000000 -0.345000
v 0.684000 0.000000 -0.305000
v 0.644000 0.000000 -0.305000
v 0.634000 0.146000 -0.295000
v 0.694000 0.146000 -0.295000
v 0.694000 0.146000 -0.355000
v 0.634000 0.146000 -0.355000
v -0.690740 0.146000 0.444901
v -0.728024 0.146000 0.434911
v -0.755318 0.146000 0.407617
v -0.765309 0.146000 0.370332
v -0.765309 0.146000 -0.324332
v -0.755318 0.146000 -0.361617
v -0.728024 0.146000 -0.388911
v -0.690740 0.146000 -0.398901
v 0.690740 0.146000 -0.398901
v 0.728024 0.146000 -0.388911
v 0.755318 0.146000 -0.361617
v 0.765309 0.146000 -0.324332
v 0.765309 0.146000 0.370332
v 0.755318 0.146000 0.407617
v 0.728024 0.146000 0.434911
v 0.690740 0.146000 0.444901
v 0.742000 0.166000 0.442818
v 0.704000 0.166000 0.453000
v 0.769818 0.166000 0.415000
v 0.780000 0.166000 0.377000
v 0.780000 0.166000 -0.331000
v 0.769818 0.166000 -0.369000
v 0.742000 0.166000 -0.396818
v 0.704000 0.166000 -0.407000
v -0.704000 0.166000 -0.407000
v -0.742000 0.166000 -0.396818
v -0.769818 0.166000 -0.369000
v -0.780000 0.166000 -0.331000
v -0.780000 0.166000 0.377000
v -0.769818 0.166000 0.415000
v -0.742000 0.166000 0.442818
v -0.704000 0.166000 0.453000
v 0.742000 0.346000 0.442818
v 0.704000 0.346000 0.453000
v 0.769818 0.346000 0.415000
v 0.780000 0.346000 0.377000
v 0.780000 0.346000 -0.331000
v 0.769818 0.346000 -0.369000
v 0.742000 0.346000 -0.396818
v 0.704000 0.346000 -0.407000
v -0.704000 0.346000 -0.407000
v -0.742000 0.346000 -0.396818
v -0.769818 0.346000 -0.369000
v -0.780000 0.346000 -0.331000
v -0.780000 0.346000 0.377000
v -0.769818 0.346000 0.415000
v -0.742000 0.346000 0.442818
v -0.704000 0.346000 0.453000
v 0.704000 0.354000 0.453000
v 0.742000 0.354000 0.442818
v 0.769818 0.354000 0.415000
v 0.780000 0.354000 0.377000
v 0.780000 0.354000 -0.331000
v 0.769818 0.354000 -0.369000
v 0.742000 0.354000 -0.396818
v 0.704000 0.354000 -0.407000
v -0.704000 0.354000 -0.407000
v -0.742000 0.354000 -0.396818
v -0.769818 0.354000 -0.369000
v -0.780000 0.354000 -0.331000
v -0.780000 0.354000 0.377000
v -0.769818 0.354000 0.415000
v -0.742000 0.354000 0.442818
v -0.704000 0.354000 0.453000
v -0.690000 0.324000 0.443000
v -0.659000 0.324000 0.434694
v -0.659000 0.576000 0.434694
v -0.690000 0.576000 0.443000
v -0.636306 0.324000 0.412000
v -0.636306 0.576000 0.412000
v -0.628000 0.324000 0.381000
v -0.628000 0.576000 0.381000
v -0.628000 0.324000 -0.323000
v -0.628000 0.576000 -0.323000
v -0.636306 0.324000 -0.354000
v -0.636306 0.576000 -0.354000
v -0.659000 0.324000 -0.376694
v -0.659000 0.576000 -0.376694
v -0.690000 0.324000 -0.385000
v -0.690000 0.576000 -0.385000
v -0.718000 0.324000 -0.385000
v -0.718000 0.576000 -0.385000
v -0.749000 0.324000 -0.376694
v -0.749000 0.576000 -0.376694
v -0.771694 0.324000 -0.354000
v -0.771694 0.576000 -0.354000
v -0.780000 0.324000 -0.323000
v -0.780000 0.576000 -0.323000
v -0.780000 0.324000 0.381000
v -0.780000 0.576000 0.381000
v -0.771694 0.324000 0.412000
v -0.771694 0.576000 0.412000
v -0.749000 0.324000 0.434694
v -0.749000 0.576000 0.434694
v -0.718000 0.324000 0.443000
v -0.718000 0.576000 0.443000
v -0.691212 0.622000 0.407171
v -0.662894 0.622000 0.399583
v -0.642165 0.622000 0.378854
v -0.634577 0.622000 0.350537
v -0.634577 0.622000 -0.292537
v -0.642165 0.622000 -0.320854
v -0.662894 0.622000 -0.341583
v -0.691212 0.622000 -0.349171
v -0.716788 0.622000 -0.349171
v -0.745106 0.622000 -0.341583
v -0.765835 0.622000 -0.320854
v -0.773423 0.622000 -0.292537
v -0.773423 0.622000 0.350537
v -0.765835 0.622000 0.378854
v -0.745106 0.622000 0.399583
v -0.716788 0.622000 0.407171
v 0.718000 0.324000 0.443000
v 0.749000 0.324000 0.434694
v 0.749000 0.576000 0.434694
v 0.718000 0.576000 0.443000
v 0.771694 0.324000 0.412000
v 0.771694 0.576000 0.412000
v 0.780000 0.324000 0.381000
v 0.780000 0.576000 0.381000
v 0.780000 0.324000 -0.323000
v 0.780000 0.576000 -0.323000
v 0.771694 0.324000 -0.354000
v 0.771694 0.576000 -0.354000
v 0.749000 0.324000 -0.376694
v 0.749000 0.576000 -0.376694
v 0.718000 0.324000 -0.385000
v 0.718000 0.576000 -0.385000
v 0.690000 0.324000 -0.385000
v 0.690000 0.576000 -0.385000
v 0.659000 0.324000 -0.376694
v 0.659000 0.576000 -0.376694
v 0.636306 0.324000 -0.354000
v 0.636306 0.576000 -0.354000
v 0.628000 0.324000 -0.323000
v 0.628000 0.576000 -0.323000
v 0.628000 0.324000 0.381000
v 0.628000 0.576000 0.381000
v 0.636306 0.324000 0.412000
v 0.636306 0.576000 0.412000
v 0.659000 0.324000 0.434694
v 0.659000 0.576000 0.434694
v 0.690000 0.324000 0.443000
v 0.690000 0.576000 0.443000
v 0.716788 0.622000 0.407171
v 0.745106 0.622000 0.399583
v 0.765835 0.622000 0.378854
v 0.773423 0.622000 0.350537
v 0.773423 0.622000 -0.292537
v 0.765835 0.622000 -0.320854
v 0.745106 0.622000 -0.341583
v 0.716788 0.622000 -0.349171
v 0.691212 0.622000 -0.349171
v 0.662894 0.622000 -0.341583
v 0.642165 0.622000 -0.320854
v 0.634577 0.622000 -0.292537
v 0.634577 0.622000 0.350537
v 0.642165 0.622000 0.378854
v 0.662894 0.622000 0.399583
v 0.691212 0.622000 0.407171
v 0.718000 0.324000 -0.261000
v 0.749000 0.324000 -0.269306
v 0.734000 0.744000 -0.324771
v 0.705000 0.744000 -0.317000
v 0.771694 0.324000 -0.292000
v 0.755229 0.744000 -0.346000
v 0.763000 0.744000 -0.375000
v 0.780000 0.324000 -0.345000
v 0.763000 0.744000 -0.395000
v 0.771694 0.324000 -0.376000
v 0.755229 0.744000 -0.424000
v 0.749000 0.324000 -0.398694
v 0.734000 0.744000 -0.445229
v 0.718000 0.324000 -0.407000
v 0.705000 0.744000 -0.453000
v -0.718000 0.324000 -0.407000
v -0.705000 0.744000 -0.453000
v -0.749000 0.324000 -0.398694
v -0.734000 0.744000 -0.445229
v -0.771694 0.324000 -0.376000
v -0.755229 0.744000 -0.424000
v -0.780000 0.324000 -0.345000
v -0.763000 0.744000 -0.395000
v -0.763000 0.744000 -0.375000
v -0.771694 0.324000 -0.292000
v -0.755229 0.744000 -0.346000
v -0.749000 0.324000 -0.269306
v -0.734000 0.744000 -0.324771
v -0.718000 0.324000 -0.261000
v -0.705000 0.744000 -0.317000
v 0.672652 0.792000 -0.320120
v 0.700322 0.792000 -0.327534
v 0.720577 0.792000 -0.347789
v 0.727991 0.792000 -0.375459
v 0.727991 0.792000 -0.394541
v 0.720577 0.792000 -0.422211
v 0.700322 0.792000 -0.442466
v 0.672652 0.792000 -0.449880
v -0.672652 0.792000 -0.449880
v -0.700322 0.792000 -0.442466
v -0.720577 0.792000 -0.422211
v -0.727991 0.792000 -0.394541
v -0.727991 0.792000 -0.375459
v -0.720577 0.792000 -0.347789
v -0.700322 0.792000 -0.327534
v -0.672652 0.792000 -0.320120
v -0.591329 0.354000 0.367199
v -0.618721 0.354000 0.359860
v -0.638773 0.354000 0.339808
v -0.646112 0.354000 0.312416
v -0.646112 0.354000 -0.190416
v -0.638773 0.354000 -0.217808
v -0.618721 0.354000 -0.237860
v -0.591329 0.354000 -0.245199
v -0.080671 0.354000 -0.245199
v -0.053279 0.354000 -0.237860
v -0.033227 0.354000 -0.217808
v -0.025888 0.354000 -0.190416
v -0.025888 0.354000 0.312416
v -0.033227 0.354000 0.339808
v -0.053279 0.354000 0.359860
v -0.080671 0.354000 0.367199
v -0.047000 0.363000 0.366497
v -0.075000 0.363000 0.374000
v -0.026503 0.363000 0.346000
v -0.019000 0.363000 0.318000
v -0.019000 0.363000 -0.196000
v -0.026503 0.363000 -0.224000
v -0.047000 0.363000 -0.244497
v -0.075000 0.363000 -0.252000
v -0.597000 0.363000 -0.252000
v -0.625000 0.363000 -0.244497
v -0.645497 0.363000 -0.224000
v -0.653000 0.363000 -0.196000
v -0.653000 0.363000 0.318000
v -0.645497 0.363000 0.346000
v -0.625000 0.363000 0.366497
v -0.597000 0.363000 0.374000
v -0.047000 0.405000 0.366497
v -0.075000 0.405000 0.374000
v -0.026503 0.405000 0.346000
v -0.019000 0.405000 0.318000
v -0.019000 0.405000 -0.196000
v -0.026503 0.405000 -0.224000
v -0.047000 0.405000 -0.244497
v -0.075000 0.405000 -0.252000
v -0.597000 0.405000 -0.252000
v -0.625000 0.405000 -0.244497
v -0.645497 0.405000 -0.224000
v -0.653000 0.405000 -0.196000
v -0.653000 0.405000 0.318000
v -0.645497 0.405000 0.346000
v -0.625000 0.405000 0.366497
v -0.597000 0.405000 0.374000
v -0.088232 0.420000 0.358132
v -0.061651 0.420000 0.351010
v -0.042193 0.420000 0.331551
v -0.035071 0.420000 0.304971
v -0.035071 0.420000 -0.182971
v -0.042193 0.420000 -0.209551
v -0.061651 0.420000 -0.229010
v -0.088232 0.420000 -0.236132
v -0.583768 0.420000 -0.236132
v -0.610349 0.420000 -0.229010
v -0.629807 0.420000 -0.209551
v -0.636929 0.420000 -0.182971
v -0.636929 0.420000 0.304971
v -0.629807 0.420000 0.331551
v -0.610349 0.420000 0.351010
v -0.583768 0.420000 0.358132
v 0.080671 0.354000 0.367199
v 0.053279 0.354000 0.359860
v 0.033227 0.354000 0.339808
v 0.025888 0.354000 0.312416
v 0.025888 0.354000 -0.190416
v 0.033227 0.354000 -0.217808
v 0.053279 0.354000 -0.237860
v 0.080671 0.354000 -0.245199
v 0.591329 0.354000 -0.245199
v 0.618721 0.354000 -0.237860
v 0.638773 0.354000 -0.217808
v 0.646112 0.354000 -0.190416
v 0.646112 0.354000 0.312416
v 0.638773 0.354000 0.339808
v 0.618721 0.354000 0.359860
v 0.591329 0.354000 0.367199
v 0.625000 0.363000 0.366497
v 0.597000 0.363000 0.374000
v 0.645497 0.363000 0.346000
v 0.653000 0.363000 0.318000
v 0.653000 0.363000 -0.196000
v 0.645497 0.363000 -0.224000
v 0.625000 0.363000 -0.244497
v 0.597000 0.363000 -0.252000
v 0.075000 0.363000 -0.252000
v 0.047000 0.363000 -0.244497
v 0.026503 0.363000 -0.224000
v 0.019000 0.363000 -0.196000
v 0.019000 0.363000 0.318000
v 0.026503 0.363000 0.346000
v 0.047000 0.363000 0.366497
v 0.075000 0.363000 0.374000
v 0.625000 0.405000 0.366497
v 0.597000 0.405000 0.374000
v 0.645497 0.405000 0.346000
v 0.653000 0.405000 0.318000
v 0.653000 0.405000 -0.196000
v 0.645497 0.405000 -0.224000
v 0.625000 0.405000 -0.244497
v 0.597000 0.405000 -0.252000
v 0.075000 0.405000 -0.252000
v 0.047000 0.405000 -0.244497
v 0.026503 0.405000 -0.224000
v 0.019000 0.405000 -0.196000
v 0.019000 0.405000 0.318000
v 0.026503 0.405000 0.346000
v 0.047000 0.405000 0.366497
v 0.075000 0.405000 0.374000
v 0.583768 0.420000 0.358132
v 0.610349 0.420000 0.351010
v 0.629807 0.420000 0.331551
v 0.636929 0.420000 0.304971
v 0.636929 0.420000 -0.182971
v 0.629807 0.420000 -0.209551
v 0.610349 0.420000 -0.229010
v 0.583768 0.420000 -0.236132
v 0.088232 0.420000 -0.236132
v 0.061651 0.420000 -0.229010
v 0.042193 0.420000 -0.209551
v 0.035071 0.420000 -0.182971
v 0.035071 0.420000 0.304971
v 0.042193 0.420000 0.331551
v 0.061651 0.420000 0.351010
v 0.088232 0.420000 0.358132
v -0.574581 0.416000 -0.136068
v -0.605490 0.416000 -0.144350
v -0.628118 0.416000 -0.166977
v -0.636400 0.416000 -0.197886
v -0.636400 0.416000 -0.248114
v -0.628118 0.416000 -0.279023
v -0.605490 0.416000 -0.301650
v -0.574581 0.416000 -0.309932
v -0.097419 0.416000 -0.309932
v -0.066510 0.416000 -0.301650
v -0.043882 0.416000 -0.279023
v -0.035600 0.416000 -0.248114
v -0.035600 0.416000 -0.197886
v -0.043882 0.416000 -0.166977
v -0.066510 0.416000 -0.144350
v -0.097419 0.416000 -0.136068
v -0.057000 0.430000 -0.141574
v -0.089000 0.430000 -0.133000
v -0.033574 0.430000 -0.165000
v -0.025000 0.430000 -0.197000
v -0.025000 0.430000 -0.249000
v -0.033574 0.430000 -0.281000
v -0.057000 0.430000 -0.304426
v -0.089000 0.430000 -0.313000
v -0.583000 0.430000 -0.313000
v -0.615000 0.430000 -0.304426
v -0.638426 0.430000 -0.281000
v -0.647000 0.430000 -0.249000
v -0.647000 0.430000 -0.197000
v -0.638426 0.430000 -0.165000
v -0.615000 0.430000 -0.141574
v -0.583000 0.430000 -0.133000
v -0.068000 0.706000 -0.200038
v -0.098000 0.706000 -0.192000
v -0.046038 0.706000 -0.222000
v -0.038000 0.706000 -0.252000
v -0.038000 0.706000 -0.298000
v -0.046038 0.706000 -0.328000
v -0.068000 0.706000 -0.349962
v -0.098000 0.706000 -0.358000
v -0.574000 0.706000 -0.358000
v -0.604000 0.706000 -0.349962
v -0.625962 0.706000 -0.328000
v -0.634000 0.706000 -0.298000
v -0.634000 0.706000 -0.252000
v -0.625962 0.706000 -0.222000
v -0.604000 0.706000 -0.200038
v -0.574000 0.706000 -0.192000
v -0.123409 0.734000 -0.200861
v -0.096612 0.734000 -0.208042
v -0.076995 0.734000 -0.227658
v -0.069815 0.734000 -0.254456
v -0.069815 0.734000 -0.295544
v -0.076995 0.734000 -0.322342
v -0.096612 0.734000 -0.341958
v -0.123409 0.734000 -0.349139
v -0.548591 0.734000 -0.349139
v -0.575388 0.734000 -0.341958
v -0.595005 0.734000 -0.322342
v -0.602185 0.734000 -0.295544
v -0.602185 0.734000 -0.254456
v -0.595005 0.734000 -0.227658
v -0.575388 0.734000 -0.208042
v -0.548591 0.734000 -0.200861
v 0.097419 0.416000 -0.136068
v 0.066510 0.416000 -0.144350
v 0.043882 0.416000 -0.166977
v 0.035600 0.416000 -0.197886
v 0.035600 0.416000 -0.248114
v 0.043882 0.416000 -0.279023
v 0.066510 0.416000 -0.301650
v 0.097419 0.416000 -0.309932
v 0.574581 0.416000 -0.309932
v 0.605490 0.416000 -0.301650
v 0.628118 0.416000 -0.279023
v 0.636400 0.416000 -0.248114
v 0.636400 0.416000 -0.197886
v 0.628118 0.416000 -0.166977
v 0.605490 0.416000 -0.144350
v 0.574581 0.416000 -0.136068
v 0.615000 0.430000 -0.141574
v 0.583000 0.430000 -0.133000
v 0.638426 0.430000 -0.165000
v 0.647000 0.430000 -0.197000
v 0.647000 0.430000 -0.249000
v 0.638426 0.430000 -0.281000
v 0.615000 0.430000 -0.304426
v 0.583000 0.430000 -0.313000
v 0.089000 0.430000 -0.313000
v 0.057000 0.430000 -0.304426
v 0.033574 0.430000 -0.281000
v 0.025000 0.430000 -0.249000
v 0.025000 0.430000 -0.197000
v 0.033574 0.430000 -0.165000
v 0.057000 0.430000 -0.141574
v 0.089000 0.430000 -0.133000
v 0.604000 0.706000 -0.200038
v 0.574000 0.706000 -0.192000
v 0.625962 0.706000 -0.222000
v 0.634000 0.706000 -0.252000
v 0.634000 0.706000 -0.298000
v 0.625962 0.706000 -0.328000
v 0.604000 0.706000 -0.349962
v 0.574000 0.706000 -0.358000
v 0.098000 0.706000 -0.358000
v 0.068000 0.706000 -0.349962
v 0.046038 0.706000 -0.328000
v 0.038000 0.706000 -0.298000
v 0.038000 0.706000 -0.252000
v 0.046038 0.706000 -0.222000
v 0.068000 0.706000 -0.200038
v 0.098000 0.706000 -0.192000
v 0.548591 0.734000 -0.200861
v 0.575388 0.734000 -0.208042
v 0.595005 0.734000 -0.227658
v 0.602185 0.734000 -0.254456
v 0.602185 0.734000 -0.295544
v 0.595005 0.734000 -0.322342
v 0.575388 0.734000 -0.341958
v 0.548591 0.734000 -0.349139
v 0.123409 0.734000 -0.349139
v 0.096612 0.734000 -0.341958
v 0.076995 0.734000 -0.322342
v 0.069815 0.734000 -0.295544
v 0.069815 0.734000 -0.254456
v 0.076995 0.734000 -0.227658
v 0.096612 0.734000 -0.208042
v 0.123409 0.734000 -0.200861
vn -0.0000 -1.0000 -0.0000
vn -0.0000 1.0000 -0.0000
vn -0.0000 -0.0683 0.9977
vn 0.9977 -0.0683 -0.0000
vn -0.0000 -0.0683 -0.9977
vn -0.9977 -0.0683 -0.0000
vn 0.2256 -0.4904 0.8418
vn 0.5593 -0.6119 0.5593
vn 0.7558 -0.6227 0.2025
vn 0.8059 -0.5920 -0.0000
vn 0.7558 -0.6227 -0.2025
vn 0.5593 -0.6119 -0.5593
vn 0.2256 -0.4904 -0.8418
vn -0.0000 -0.3753 -0.9269
vn -0.2256 -0.4904 -0.8418
vn -0.5593 -0.6119 -0.5593
vn -0.7558 -0.6227 -0.2025
vn -0.8059 -0.5920 -0.0000
vn -0.7558 -0.6227 0.2025
vn -0.5593 -0.6119 0.5593
vn -0.2256 -0.4904 0.8418
vn -0.0000 -0.3753 0.9269
vn 0.2588 -0.0000 0.9659
vn 0.7071 -0.0000 0.7071
vn 0.9659 -0.0000 0.2588
vn 1.0000 -0.0000 -0.0000
vn 0.9659 -0.0000 -0.2588
vn 0.7071 -0.0000 -0.7071
vn 0.2588 -0.0000 -0.9659
vn -0.0000 -0.0000 -1.0000
vn -0.2588 -0.0000 -0.9659
vn -0.7071 -0.0000 -0.7071
vn -0.9659 -0.0000 -0.2588
vn -1.0000 -0.0000 -0.0000
vn -0.9659 -0.0000 0.2588
vn -0.7071 -0.0000 0.7071
vn -0.2588 -0.0000 0.9659
vn -0.0000 -0.0000 1.0000
vn 0.2061 0.6047 0.7693
vn 0.6065 0.5142 0.6065
vn 0.9227 0.2957 0.2472
vn 0.9899 0.1415 -0.0000
vn 0.9227 0.2957 -0.2472
vn 0.6065 0.5142 -0.6065
vn 0.2061 0.6047 -0.7693
vn -0.0000 0.6145 -0.7889
vn -0.2061 0.6047 -0.7693
vn -0.6065 0.5142 -0.6065
vn -0.9227 0.2957 -0.2472
vn -0.9899 0.1415 -0.0000
vn -0.9227 0.2957 0.2472
vn -0.6065 0.5142 0.6065
vn -0.2061 0.6047 0.7693
vn -0.0000 0.6145 0.7889
vn 0.2564 0.1355 0.9570
vn 0.7022 0.1178 0.7022
vn 0.9635 0.0710 0.2582
vn 0.9992 0.0404 -0.0000
vn 0.9659 0.0083 -0.2588
vn 0.7061 -0.0530 -0.7061
vn 0.2576 -0.0973 -0.9613
vn -0.0000 -0.1089 -0.9941
vn -0.2576 -0.0973 -0.9613
vn -0.7061 -0.0530 -0.7061
vn -0.9659 0.0083 -0.2588
vn -0.9992 0.0404 -0.0000
vn -0.9635 0.0710 0.2582
vn -0.7022 0.1178 0.7022
vn -0.2564 0.1355 0.9570
vn -0.0000 0.1322 0.9912
vn 0.2518 0.2308 0.9398
vn 0.6230 0.4730 0.6230
vn 0.7887 0.5773 0.2113
vn 0.8079 0.5893 -0.0000
vn 0.7887 0.5773 -0.2113
vn 0.6230 0.4730 -0.6230
vn 0.2518 0.2308 -0.9398
vn -0.0000 0.0649 -0.9979
vn -0.2518 0.2308 -0.9398
vn -0.6230 0.4730 -0.6230
vn -0.7887 0.5773 -0.2113
vn -0.8079 0.5893 -0.0000
vn -0.7887 0.5773 0.2113
vn -0.6230 0.4730 0.6230
vn -0.2518 0.2308 0.9398
vn -0.0000 0.0649 0.9979
vn 0.1931 -0.6661 0.7205
vn 0.4963 -0.7123 0.4963
vn 0.7180 -0.6689 0.1924
vn 0.7941 -0.6077 -0.0000
vn 0.7180 -0.6689 -0.1924
vn 0.4963 -0.7123 -0.4963
vn 0.1931 -0.6661 -0.7205
vn -0.0000 -0.6029 -0.7978
vn -0.1931 -0.6661 -0.7205
vn -0.4963 -0.7123 -0.4963
vn -0.7180 -0.6689 -0.1924
vn -0.7941 -0.6077 -0.0000
vn -0.7180 -0.6689 0.1924
vn -0.4963 -0.7123 0.4963
vn -0.1931 -0.6661 0.7205
vn -0.0000 -0.6029 0.7978
vn 0.1617 0.7809 0.6034
vn 0.4070 0.8178 0.4070
vn 0.6006 0.7832 0.1609
vn 0.6823 0.7310 -0.0000
vn 0.6006 0.7832 -0.1609
vn 0.4070 0.8178 -0.4070
vn 0.1617 0.7809 -0.6034
vn -0.0000 0.7267 -0.6869
vn -0.1617 0.7809 -0.6034
vn -0.4070 0.8178 -0.4070
vn -0.6006 0.7832 -0.1609
vn -0.6823 0.7310 -0.0000
vn -0.6006 0.7832 0.1609
vn -0.4070 0.8178 0.4070
vn -0.1617 0.7809 0.6034
vn -0.0000 0.7267 0.6869
vn 0.2430 -0.3448 0.9067
vn 0.6008 -0.5272 0.6008
vn 0.7736 -0.5988 0.2073
vn 0.7972 -0.6037 -0.0000
vn 0.7736 -0.5988 -0.2073
vn 0.6008 -0.5272 -0.6008
vn 0.2430 -0.3448 -0.9067
vn -0.0000 -0.2140 -0.9768
vn -0.2430 -0.3448 -0.9067
vn -0.6008 -0.5272 -0.6008
vn -0.7736 -0.5988 -0.2073
vn -0.7972 -0.6037 -0.0000
vn -0.7736 -0.5988 0.2073
vn -0.6008 -0.5272 0.6008
vn -0.2429 -0.3448 0.9067
vn -0.0000 -0.2140 0.9768
vn 0.2530 0.2101 0.9444
vn 0.6962 0.1752 0.6962
vn 0.9614 0.0966 0.2576
vn 0.9989 0.0470 -0.0000
vn 0.9659 -0.0005 -0.2588
vn 0.7044 -0.0881 -0.7044
vn 0.2560 -0.1474 -0.9554
vn -0.0000 -0.1609 -0.9870
vn -0.2560 -0.1474 -0.9554
vn -0.7044 -0.0881 -0.7044
vn -0.9659 -0.0005 -0.2588
vn -0.9989 0.0470 -0.0000
vn -0.9614 0.0966 0.2576
vn -0.6962 0.1752 0.6962
vn -0.2530 0.2101 0.9444
vn -0.0000 0.2090 0.9779
vn 0.2277 0.4755 0.8497
vn 0.5192 0.6789 0.5192
vn 0.6432 0.7460 0.1724
vn 0.6607 0.7507 -0.0000
vn 0.6432 0.7460 -0.1724
vn 0.5192 0.6789 -0.5192
vn 0.2277 0.4755 -0.8497
vn -0.0000 0.3017 -0.9534
vn -0.2277 0.4755 -0.8497
vn -0.5192 0.6789 -0.5192
vn -0.6432 0.7460 -0.1724
vn -0.6607 0.7507 -0.0000
vn -0.6432 0.7460 0.1724
vn -0.5192 0.6789 0.5192
vn -0.2277 0.4755 0.8497
vn -0.0000 0.3017 0.9534
vn 0.2429 -0.3448 0.9067
vn -0.2430 -0.3448 0.9067
vt 0.687500 0.937500
vt 0.687500 0.687500
vt 0.812500 0.687500
vt 0.187500 0.687500
s 0
usemtl FN_Atlas
f 1/1/1 2/1/1 3/1/1 4/1/1
f 5/1/2 6/1/2 7/1/2 8/1/2
f 4/1/3 3/1/3 6/1/3 5/1/3
f 3/1/4 2/1/4 7/1/4 6/1/4
f 2/1/5 1/1/5 8/1/5 7/1/5
f 1/1/6 4/1/6 5/1/6 8/1/6
f 9/1/1 10/1/1 11/1/1 12/1/1
f 13/1/2 14/1/2 15/1/2 16/1/2
f 12/1/3 11/1/3 14/1/3 13/1/3
f 11/1/4 10/1/4 15/1/4 14/1/4
f 10/1/5 9/1/5 16/1/5 15/1/5
f 9/1/6 12/1/6 13/1/6 16/1/6
f 17/1/1 18/1/1 19/1/1 20/1/1
f 21/1/2 22/1/2 23/1/2 24/1/2
f 20/1/3 19/1/3 22/1/3 21/1/3
f 19/1/4 18/1/4 23/1/4 22/1/4
f 18/1/5 17/1/5 24/1/5 23/1/5
f 17/1/6 20/1/6 21/1/6 24/1/6
f 25/1/1 26/1/1 27/1/1 28/1/1
f 29/1/2 30/1/2 31/1/2 32/1/2
f 28/1/3 27/1/3 30/1/3 29/1/3
f 27/1/4 26/1/4 31/1/4 30/1/4
f 26/1/5 25/1/5 32/1/5 31/1/5
f 25/1/6 28/1/6 29/1/6 32/1/6
f 33/2/1 34/2/1 35/2/1 36/2/1 37/2/1 38/2/1 39/2/1 40/2/1 41/2/1 42/2/1 43/2/1 44/2/1 45/2/1 46/2/1 47/2/1 48/2/1
f 48/2/7 47/2/7 49/2/7 50/2/7
f 47/2/8 46/2/8 51/2/8 49/2/8
f 46/2/9 45/2/9 52/2/9 51/2/9
f 45/2/10 44/2/10 53/2/10 52/2/10
f 44/2/11 43/2/11 54/2/11 53/2/11
f 43/2/12 42/2/12 55/2/12 54/2/12
f 42/2/13 41/2/13 56/2/13 55/2/13
f 41/2/14 40/2/14 57/2/14 56/2/14
f 40/2/15 39/2/15 58/2/15 57/2/15
f 39/2/16 38/2/16 59/2/16 58/2/16
f 38/2/17 37/2/17 60/2/17 59/2/17
f 37/2/18 36/2/18 61/2/18 60/2/18
f 36/2/19 35/2/19 62/2/19 61/2/19
f 35/2/20 34/2/20 63/2/20 62/2/20
f 34/2/21 33/2/21 64/2/21 63/2/21
f 33/2/22 48/2/22 50/2/22 64/2/22
f 50/2/23 49/2/23 65/2/23 66/2/23
f 49/2/24 51/2/24 67/2/24 65/2/24
f 51/2/25 52/2/25 68/2/25 67/2/25
f 52/2/26 53/2/26 69/2/26 68/2/26
f 53/2/27 54/2/27 70/2/27 69/2/27
f 54/2/28 55/2/28 71/2/28 70/2/28
f 55/2/29 56/2/29 72/2/29 71/2/29
f 56/2/30 57/2/30 73/2/30 72/2/30
f 57/2/31 58/2/31 74/2/31 73/2/31
f 58/2/32 59/2/32 75/2/32 74/2/32
f 59/2/33 60/2/33 76/2/33 75/2/33
f 60/2/34 61/2/34 77/2/34 76/2/34
f 61/2/35 62/2/35 78/2/35 77/2/35
f 62/2/36 63/2/36 79/2/36 78/2/36
f 63/2/37 64/2/37 80/2/37 79/2/37
f 64/2/38 50/2/38 66/2/38 80/2/38
f 81/3/2 82/3/2 83/3/2 84/3/2 85/3/2 86/3/2 87/3/2 88/3/2 89/3/2 90/3/2 91/3/2 92/3/2 93/3/2 94/3/2 95/3/2 96/3/2
f 66/3/23 65/3/23 82/3/23 81/3/23
f 65/3/24 67/3/24 83/3/24 82/3/24
f 67/3/25 68/3/25 84/3/25 83/3/25
f 68/3/26 69/3/26 85/3/26 84/3/26
f 69/3/27 70/3/27 86/3/27 85/3/27
f 70/3/28 71/3/28 87/3/28 86/3/28
f 71/3/29 72/3/29 88/3/29 87/3/29
f 72/3/30 73/3/30 89/3/30 88/3/30
f 73/3/31 74/3/31 90/3/31 89/3/31
f 74/3/32 75/3/32 91/3/32 90/3/32
f 75/3/33 76/3/33 92/3/33 91/3/33
f 76/3/34 77/3/34 93/3/34 92/3/34
f 77/3/35 78/3/35 94/3/35 93/3/35
f 78/3/36 79/3/36 95/3/36 94/3/36
f 79/3/37 80/3/37 96/3/37 95/3/37
f 80/3/38 66/3/38 81/3/38 96/3/38
f 97/2/23 98/2/23 99/2/23 100/2/23
f 98/2/24 101/2/24 102/2/24 99/2/24
f 101/2/25 103/2/25 104/2/25 102/2/25
f 103/2/26 105/2/26 106/2/26 104/2/26
f 105/2/27 107/2/27 108/2/27 106/2/27
f 107/2/28 109/2/28 110/2/28 108/2/28
f 109/2/29 111/2/29 112/2/29 110/2/29
f 111/2/30 113/2/30 114/2/30 112/2/30
f 113/2/31 115/2/31 116/2/31 114/2/31
f 115/2/32 117/2/32 118/2/32 116/2/32
f 117/2/33 119/2/33 120/2/33 118/2/33
f 119/2/34 121/2/34 122/2/34 120/2/34
f 121/2/35 123/2/35 124/2/35 122/2/35
f 123/2/36 125/2/36 126/2/36 124/2/36
f 125/2/37 127/2/37 128/2/37 126/2/37
f 127/2/38 97/2/38 100/2/38 128/2/38
f 129/2/2 130/2/2 131/2/2 132/2/2 133/2/2 134/2/2 135/2/2 136/2/2 137/2/2 138/2/2 139/2/2 140/2/2 141/2/2 142/2/2 143/2/2 144/2/2
f 100/2/39 99/2/39 130/2/39 129/2/39
f 99/2/40 102/2/40 131/2/40 130/2/40
f 102/2/41 104/2/41 132/2/41 131/2/41
f 104/2/42 106/2/42 133/2/42 132/2/42
f 106/2/43 108/2/43 134/2/43 133/2/43
f 108/2/44 110/2/44 135/2/44 134/2/44
f 110/2/45 112/2/45 136/2/45 135/2/45
f 112/2/46 114/2/46 137/2/46 136/2/46
f 114/2/47 116/2/47 138/2/47 137/2/47
f 116/2/48 118/2/48 139/2/48 138/2/48
f 118/2/49 120/2/49 140/2/49 139/2/49
f 120/2/50 122/2/50 141/2/50 140/2/50
f 122/2/51 124/2/51 142/2/51 141/2/51
f 124/2/52 126/2/52 143/2/52 142/2/52
f 126/2/53 128/2/53 144/2/53 143/2/53
f 128/2/54 100/2/54 129/2/54 144/2/54
f 145/2/23 146/2/23 147/2/23 148/2/23
f 146/2/24 149/2/24 150/2/24 147/2/24
f 149/2/25 151/2/25 152/2/25 150/2/25
f 151/2/26 153/2/26 154/2/26 152/2/26
f 153/2/27 155/2/27 156/2/27 154/2/27
f 155/2/28 157/2/28 158/2/28 156/2/28
f 157/2/29 159/2/29 160/2/29 158/2/29
f 159/2/30 161/2/30 162/2/30 160/2/30
f 161/2/31 163/2/31 164/2/31 162/2/31
f 163/2/32 165/2/32 166/2/32 164/2/32
f 165/2/33 167/2/33 168/2/33 166/2/33
f 167/2/34 169/2/34 170/2/34 168/2/34
f 169/2/35 171/2/35 172/2/35 170/2/35
f 171/2/36 173/2/36 174/2/36 172/2/36
f 173/2/37 175/2/37 176/2/37 174/2/37
f 175/2/38 145/2/38 148/2/38 176/2/38
f 177/2/2 178/2/2 179/2/2 180/2/2 181/2/2 182/2/2 183/2/2 184/2/2 185/2/2 186/2/2 187/2/2 188/2/2 189/2/2 190/2/2 191/2/2 192/2/2
f 148/2/39 147/2/39 178/2/39 177/2/39
f 147/2/40 150/2/40 179/2/40 178/2/40
f 150/2/41 152/2/41 180/2/41 179/2/41
f 152/2/42 154/2/42 181/2/42 180/2/42
f 154/2/43 156/2/43 182/2/43 181/2/43
f 156/2/44 158/2/44 183/2/44 182/2/44
f 158/2/45 160/2/45 184/2/45 183/2/45
f 160/2/46 162/2/46 185/2/46 184/2/46
f 162/2/47 164/2/47 186/2/47 185/2/47
f 164/2/48 166/2/48 187/2/48 186/2/48
f 166/2/49 168/2/49 188/2/49 187/2/49
f 168/2/50 170/2/50 189/2/50 188/2/50
f 170/2/51 172/2/51 190/2/51 189/2/51
f 172/2/52 174/2/52 191/2/52 190/2/52
f 174/2/53 176/2/53 192/2/53 191/2/53
f 176/2/54 148/2/54 177/2/54 192/2/54
f 193/2/55 194/2/55 195/2/55 196/2/55
f 194/2/56 197/2/56 198/2/56 195/2/56
f 197/2/57 153/2/57 199/2/57 198/2/57
f 153/2/58 200/2/58 201/2/58 199/2/58
f 200/2/59 202/2/59 203/2/59 201/2/59
f 202/2/60 204/2/60 205/2/60 203/2/60
f 204/2/61 206/2/61 207/2/61 205/2/61
f 206/2/62 208/2/62 209/2/62 207/2/62
f 208/2/63 210/2/63 211/2/63 209/2/63
f 210/2/64 212/2/64 213/2/64 211/2/64
f 212/2/65 214/2/65 215/2/65 213/2/65
f 214/2/66 119/2/66 216/2/66 215/2/66
f 119/2/67 217/2/67 218/2/67 216/2/67
f 217/2/68 219/2/68 220/2/68 218/2/68
f 219/2/69 221/2/69 222/2/69 220/2/69
f 221/2/70 193/2/70 196/2/70 222/2/70
f 223/2/2 224/2/2 225/2/2 226/2/2 227/2/2 228/2/2 229/2/2 230/2/2 231/2/2 232/2/2 233/2/2 234/2/2 235/2/2 236/2/2 237/2/2 238/2/2
f 196/2/71 195/2/71 224/2/71 223/2/71
f 195/2/72 198/2/72 225/2/72 224/2/72
f 198/2/73 199/2/73 226/2/73 225/2/73
f 199/2/74 201/2/74 227/2/74 226/2/74
f 201/2/75 203/2/75 228/2/75 227/2/75
f 203/2/76 205/2/76 229/2/76 228/2/76
f 205/2/77 207/2/77 230/2/77 229/2/77
f 207/2/78 209/2/78 231/2/78 230/2/78
f 209/2/79 211/2/79 232/2/79 231/2/79
f 211/2/80 213/2/80 233/2/80 232/2/80
f 213/2/81 215/2/81 234/2/81 233/2/81
f 215/2/82 216/2/82 235/2/82 234/2/82
f 216/2/83 218/2/83 236/2/83 235/2/83
f 218/2/84 220/2/84 237/2/84 236/2/84
f 220/2/85 222/2/85 238/2/85 237/2/85
f 222/2/86 196/2/86 223/2/86 238/2/86
f 239/4/1 240/4/1 241/4/1 242/4/1 243/4/1 244/4/1 245/4/1 246/4/1 247/4/1 248/4/1 249/4/1 250/4/1 251/4/1 252/4/1 253/4/1 254/4/1
f 254/4/87 253/4/87 255/4/87 256/4/87
f 253/4/88 252/4/88 257/4/88 255/4/88
f 252/4/89 251/4/89 258/4/89 257/4/89
f 251/4/90 250/4/90 259/4/90 258/4/90
f 250/4/91 249/4/91 260/4/91 259/4/91
f 249/4/92 248/4/92 261/4/92 260/4/92
f 248/4/93 247/4/93 262/4/93 261/4/93
f 247/4/94 246/4/94 263/4/94 262/4/94
f 246/4/95 245/4/95 264/4/95 263/4/95
f 245/4/96 244/4/96 265/4/96 264/4/96
f 244/4/97 243/4/97 266/4/97 265/4/97
f 243/4/98 242/4/98 267/4/98 266/4/98
f 242/4/99 241/4/99 268/4/99 267/4/99
f 241/4/100 240/4/100 269/4/100 268/4/100
f 240/4/101 239/4/101 270/4/101 269/4/101
f 239/4/102 254/4/102 256/4/102 270/4/102
f 256/4/23 255/4/23 271/4/23 272/4/23
f 255/4/24 257/4/24 273/4/24 271/4/24
f 257/4/25 258/4/25 274/4/25 273/4/25
f 258/4/26 259/4/26 275/4/26 274/4/26
f 259/4/27 260/4/27 276/4/27 275/4/27
f 260/4/28 261/4/28 277/4/28 276/4/28
f 261/4/29 262/4/29 278/4/29 277/4/29
f 262/4/30 263/4/30 279/4/30 278/4/30
f 263/4/31 264/4/31 280/4/31 279/4/31
f 264/4/32 265/4/32 281/4/32 280/4/32
f 265/4/33 266/4/33 282/4/33 281/4/33
f 266/4/34 267/4/34 283/4/34 282/4/34
f 267/4/35 268/4/35 284/4/35 283/4/35
f 268/4/36 269/4/36 285/4/36 284/4/36
f 269/4/37 270/4/37 286/4/37 285/4/37
f 270/4/38 256/4/38 272/4/38 286/4/38
f 287/4/2 288/4/2 289/4/2 290/4/2 291/4/2 292/4/2 293/4/2 294/4/2 295/4/2 296/4/2 297/4/2 298/4/2 299/4/2 300/4/2 301/4/2 302/4/2
f 272/4/103 271/4/103 288/4/103 287/4/103
f 271/4/104 273/4/104 289/4/104 288/4/104
f 273/4/105 274/4/105 290/4/105 289/4/105
f 274/4/106 275/4/106 291/4/106 290/4/106
f 275/4/107 276/4/107 292/4/107 291/4/107
f 276/4/108 277/4/108 293/4/108 292/4/108
f 277/4/109 278/4/109 294/4/109 293/4/109
f 278/4/110 279/4/110 295/4/110 294/4/110
f 279/4/111 280/4/111 296/4/111 295/4/111
f 280/4/112 281/4/112 297/4/112 296/4/112
f 281/4/113 282/4/113 298/4/113 297/4/113
f 282/4/114 283/4/114 299/4/114 298/4/114
f 283/4/115 284/4/115 300/4/115 299/4/115
f 284/4/116 285/4/116 301/4/116 300/4/116
f 285/4/117 286/4/117 302/4/117 301/4/117
f 286/4/118 272/4/118 287/4/118 302/4/118
f 303/4/1 304/4/1 305/4/1 306/4/1 307/4/1 308/4/1 309/4/1 310/4/1 311/4/1 312/4/1 313/4/1 314/4/1 315/4/1 316/4/1 317/4/1 318/4/1
f 318/4/87 317/4/87 319/4/87 320/4/87
f 317/4/88 316/4/88 321/4/88 319/4/88
f 316/4/89 315/4/89 322/4/89 321/4/89
f 315/4/90 314/4/90 323/4/90 322/4/90
f 314/4/91 313/4/91 324/4/91 323/4/91
f 313/4/92 312/4/92 325/4/92 324/4/92
f 312/4/93 311/4/93 326/4/93 325/4/93
f 311/4/94 310/4/94 327/4/94 326/4/94
f 310/4/95 309/4/95 328/4/95 327/4/95
f 309/4/96 308/4/96 329/4/96 328/4/96
f 308/4/97 307/4/97 330/4/97 329/4/97
f 307/4/98 306/4/98 331/4/98 330/4/98
f 306/4/99 305/4/99 332/4/99 331/4/99
f 305/4/100 304/4/100 333/4/100 332/4/100
f 304/4/101 303/4/101 334/4/101 333/4/101
f 303/4/102 318/4/102 320/4/102 334/4/102
f 320/4/23 319/4/23 335/4/23 336/4/23
f 319/4/24 321/4/24 337/4/24 335/4/24
f 321/4/25 322/4/25 338/4/25 337/4/25
f 322/4/26 323/4/26 339/4/26 338/4/26
f 323/4/27 324/4/27 340/4/27 339/4/27
f 324/4/28 325/4/28 341/4/28 340/4/28
f 325/4/29 326/4/29 342/4/29 341/4/29
f 326/4/30 327/4/30 343/4/30 342/4/30
f 327/4/31 328/4/31 344/4/31 343/4/31
f 328/4/32 329/4/32 345/4/32 344/4/32
f 329/4/33 330/4/33 346/4/33 345/4/33
f 330/4/34 331/4/34 347/4/34 346/4/34
f 331/4/35 332/4/35 348/4/35 347/4/35
f 332/4/36 333/4/36 349/4/36 348/4/36
f 333/4/37 334/4/37 350/4/37 349/4/37
f 334/4/38 320/4/38 336/4/38 350/4/38
f 351/4/2 352/4/2 353/4/2 354/4/2 355/4/2 356/4/2 357/4/2 358/4/2 359/4/2 360/4/2 361/4/2 362/4/2 363/4/2 364/4/2 365/4/2 366/4/2
f 336/4/103 335/4/103 352/4/103 351/4/103
f 335/4/104 337/4/104 353/4/104 352/4/104
f 337/4/105 338/4/105 354/4/105 353/4/105
f 338/4/106 339/4/106 355/4/106 354/4/106
f 339/4/107 340/4/107 356/4/107 355/4/107
f 340/4/108 341/4/108 357/4/108 356/4/108
f 341/4/109 342/4/109 358/4/109 357/4/109
f 342/4/110 343/4/110 359/4/110 358/4/110
f 343/4/111 344/4/111 360/4/111 359/4/111
f 344/4/112 345/4/112 361/4/112 360/4/112
f 345/4/113 346/4/113 362/4/113 361/4/113
f 346/4/114 347/4/114 363/4/114 362/4/114
f 347/4/115 348/4/115 364/4/115 363/4/115
f 348/4/116 349/4/116 365/4/116 364/4/116
f 349/4/117 350/4/117 366/4/117 365/4/117
f 350/4/118 336/4/118 351/4/118 366/4/118
f 367/4/1 368/4/1 369/4/1 370/4/1 371/4/1 372/4/1 373/4/1 374/4/1 375/4/1 376/4/1 377/4/1 378/4/1 379/4/1 380/4/1 381/4/1 382/4/1
f 382/4/119 381/4/119 383/4/119 384/4/119
f 381/4/120 380/4/120 385/4/120 383/4/120
f 380/4/121 379/4/121 386/4/121 385/4/121
f 379/4/122 378/4/122 387/4/122 386/4/122
f 378/4/123 377/4/123 388/4/123 387/4/123
f 377/4/124 376/4/124 389/4/124 388/4/124
f 376/4/125 375/4/125 390/4/125 389/4/125
f 375/4/126 374/4/126 391/4/126 390/4/126
f 374/4/127 373/4/127 392/4/127 391/4/127
f 373/4/128 372/4/128 393/4/128 392/4/128
f 372/4/129 371/4/129 394/4/129 393/4/129
f 371/4/130 370/4/130 395/4/130 394/4/130
f 370/4/131 369/4/131 396/4/131 395/4/131
f 369/4/132 368/4/132 397/4/132 396/4/132
f 368/4/133 367/4/133 398/4/133 397/4/133
f 367/4/134 382/4/134 384/4/134 398/4/134
f 384/4/135 383/4/135 399/4/135 400/4/135
f 383/4/136 385/4/136 401/4/136 399/4/136
f 385/4/137 386/4/137 402/4/137 401/4/137
f 386/4/138 387/4/138 403/4/138 402/4/138
f 387/4/139 388/4/139 404/4/139 403/4/139
f 388/4/140 389/4/140 405/4/140 404/4/140
f 389/4/141 390/4/141 406/4/141 405/4/141
f 390/4/142 391/4/142 407/4/142 406/4/142
f 391/4/143 392/4/143 408/4/143 407/4/143
f 392/4/144 393/4/144 409/4/144 408/4/144
f 393/4/145 394/4/145 410/4/145 409/4/145
f 394/4/146 395/4/146 411/4/146 410/4/146
f 395/4/147 396/4/147 412/4/147 411/4/147
f 396/4/148 397/4/148 413/4/148 412/4/148
f 397/4/149 398/4/149 414/4/149 413/4/149
f 398/4/150 384/4/150 400/4/150 414/4/150
f 415/4/2 416/4/2 417/4/2 418/4/2 419/4/2 420/4/2 421/4/2 422/4/2 423/4/2 424/4/2 425/4/2 426/4/2 427/4/2 428/4/2 429/4/2 430/4/2
f 400/4/151 399/4/151 416/4/151 415/4/151
f 399/4/152 401/4/152 417/4/152 416/4/152
f 401/4/153 402/4/153 418/4/153 417/4/153
f 402/4/154 403/4/154 419/4/154 418/4/154
f 403/4/155 404/4/155 420/4/155 419/4/155
f 404/4/156 405/4/156 421/4/156 420/4/156
f 405/4/157 406/4/157 422/4/157 421/4/157
f 406/4/158 407/4/158 423/4/158 422/4/158
f 407/4/159 408/4/159 424/4/159 423/4/159
f 408/4/160 409/4/160 425/4/160 424/4/160
f 409/4/161 410/4/161 426/4/161 425/4/161
f 410/4/162 411/4/162 427/4/162 426/4/162
f 411/4/163 412/4/163 428/4/163 427/4/163
f 412/4/164 413/4/164 429/4/164 428/4/164
f 413/4/165 414/4/165 430/4/165 429/4/165
f 414/4/166 400/4/166 415/4/166 430/4/166
f 431/4/1 432/4/1 433/4/1 434/4/1 435/4/1 436/4/1 437/4/1 438/4/1 439/4/1 440/4/1 441/4/1 442/4/1 443/4/1 444/4/1 445/4/1 446/4/1
f 446/4/167 445/4/167 447/4/167 448/4/167
f 445/4/120 444/4/120 449/4/120 447/4/120
f 444/4/121 443/4/121 450/4/121 449/4/121
f 443/4/122 442/4/122 451/4/122 450/4/122
f 442/4/123 441/4/123 452/4/123 451/4/123
f 441/4/124 440/4/124 453/4/124 452/4/124
f 440/4/125 439/4/125 454/4/125 453/4/125
f 439/4/126 438/4/126 455/4/126 454/4/126
f 438/4/127 437/4/127 456/4/127 455/4/127
f 437/4/128 436/4/128 457/4/128 456/4/128
f 436/4/129 435/4/129 458/4/129 457/4/129
f 435/4/130 434/4/130 459/4/130 458/4/130
f 434/4/131 433/4/131 460/4/131 459/4/131
f 433/4/132 432/4/132 461/4/132 460/4/132
f 432/4/168 431/4/168 462/4/168 461/4/168
f 431/4/134 446/4/134 448/4/134 462/4/134
f 448/4/135 447/4/135 463/4/135 464/4/135
f 447/4/136 449/4/136 465/4/136 463/4/136
f 449/4/137 450/4/137 466/4/137 465/4/137
f 450/4/138 451/4/138 467/4/138 466/4/138
f 451/4/139 452/4/139 468/4/139 467/4/139
f 452/4/140 453/4/140 469/4/140 468/4/140
f 453/4/141 454/4/141 470/4/141 469/4/141
f 454/4/142 455/4/142 471/4/142 470/4/142
f 455/4/143 456/4/143 472/4/143 471/4/143
f 456/4/144 457/4/144 473/4/144 472/4/144
f 457/4/145 458/4/145 474/4/145 473/4/145
f 458/4/146 459/4/146 475/4/146 474/4/146
f 459/4/147 460/4/147 476/4/147 475/4/147
f 460/4/148 461/4/148 477/4/148 476/4/148
f 461/4/149 462/4/149 478/4/149 477/4/149
f 462/4/150 448/4/150 464/4/150 478/4/150
f 479/4/2 480/4/2 481/4/2 482/4/2 483/4/2 484/4/2 485/4/2 486/4/2 487/4/2 488/4/2 489/4/2 490/4/2 491/4/2 492/4/2 493/4/2 494/4/2
f 464/4/151 463/4/151 480/4/151 479/4/151
f 463/4/152 465/4/152 481/4/152 480/4/152
f 465/4/153 466/4/153 482/4/153 481/4/153
f 466/4/154 467/4/154 483/4/154 482/4/154
f 467/4/155 468/4/155 484/4/155 483/4/155
f 468/4/156 469/4/156 485/4/156 484/4/156
f 469/4/157 470/4/157 486/4/157 485/4/157
f 470/4/158 471/4/158 487/4/158 486/4/158
f 471/4/159 472/4/159 488/4/159 487/4/159
f 472/4/160 473/4/160 489/4/160 488/4/160
f 473/4/161 474/4/161 490/4/161 489/4/161
f 474/4/162 475/4/162 491/4/162 490/4/162
f 475/4/163 476/4/163 492/4/163 491/4/163
f 476/4/164 477/4/164 493/4/164 492/4/164
f 477/4/165 478/4/165 494/4/165 493/4/165
f 478/4/166 464/4/166 479/4/166 494/4/166
