# Blender 5.2.0 LTS
# www.blender.org
mtllib FN_Shelf_Cube.mtl
o FN_Shelf_Cube
v -0.524000 0.000000 0.158000
v -0.524000 0.000000 0.106000
v -0.472000 0.000000 0.106000
v -0.472000 0.000000 0.158000
v -0.524000 0.056000 0.158000
v -0.472000 0.056000 0.158000
v -0.472000 0.056000 0.106000
v -0.524000 0.056000 0.106000
v -0.524000 0.000000 -0.106000
v -0.524000 0.000000 -0.158000
v -0.472000 0.000000 -0.158000
v -0.472000 0.000000 -0.106000
v -0.524000 0.056000 -0.106000
v -0.472000 0.056000 -0.106000
v -0.472000 0.056000 -0.158000
v -0.524000 0.056000 -0.158000
v 0.472000 0.000000 0.158000
v 0.472000 0.000000 0.106000
v 0.524000 0.000000 0.106000
v 0.524000 0.000000 0.158000
v 0.472000 0.056000 0.158000
v 0.524000 0.056000 0.158000
v 0.524000 0.056000 0.106000
v 0.472000 0.056000 0.106000
v 0.472000 0.000000 -0.106000
v 0.472000 0.000000 -0.158000
v 0.524000 0.000000 -0.158000
v 0.524000 0.000000 -0.106000
v 0.472000 0.056000 -0.106000
v 0.524000 0.056000 -0.106000
v 0.524000 0.056000 -0.158000
v 0.472000 0.056000 -0.158000
v -0.550000 0.052000 0.180000
v -0.550000 0.052000 -0.180000
v -0.532000 0.052000 -0.180000
v -0.532000 0.052000 0.180000
v -0.550000 1.152000 0.180000
v -0.532000 1.152000 0.180000
v -0.532000 1.152000 -0.180000
v -0.550000 1.152000 -0.180000
v 0.532000 0.052000 0.180000
v 0.532000 0.052000 -0.180000
v 0.550000 0.052000 -0.180000
v 0.550000 0.052000 0.180000
v 0.532000 1.152000 0.180000
v 0.550000 1.152000 0.180000
v 0.550000 1.152000 -0.180000
v 0.532000 1.152000 -0.180000
v -0.550000 0.070000 0.180000
v 0.550000 0.070000 0.180000
v 0.550000 0.070000 -0.180000
v -0.550000 0.070000 -0.180000
v -0.550000 1.134000 0.180000
v -0.550000 1.134000 -0.180000
v 0.550000 1.134000 -0.180000
v 0.550000 1.134000 0.180000
v -0.532000 0.052000 -0.168000
v 0.532000 0.052000 -0.168000
v -0.532000 1.152000 -0.168000
v 0.532000 1.152000 -0.168000
v -0.189333 0.070000 0.180000
v -0.189333 0.070000 -0.168000
v -0.171333 0.070000 -0.168000
v -0.171333 0.070000 0.180000
v -0.189333 1.134000 0.180000
v -0.171333 1.134000 0.180000
v -0.171333 1.134000 -0.168000
v -0.189333 1.134000 -0.168000
v 0.171333 0.070000 0.180000
v 0.171333 0.070000 -0.168000
v 0.189333 0.070000 -0.168000
v 0.189333 0.070000 0.180000
v 0.171333 1.134000 0.180000
v 0.189333 1.134000 0.180000
v 0.189333 1.134000 -0.168000
v 0.171333 1.134000 -0.168000
v -0.532000 0.412667 0.180000
v -0.532000 0.412667 -0.168000
v 0.532000 0.412667 -0.168000
v 0.532000 0.412667 0.180000
v -0.532000 0.430667 0.180000
v 0.532000 0.430667 0.180000
v 0.532000 0.430667 -0.168000
v -0.532000 0.430667 -0.168000
v -0.532000 0.773333 0.180000
v -0.532000 0.773333 -0.168000
v 0.532000 0.773333 -0.168000
v 0.532000 0.773333 0.180000
v -0.532000 0.791333 0.180000
v 0.532000 0.791333 0.180000
v 0.532000 0.791333 -0.168000
v -0.532000 0.791333 -0.168000
vn -0.0000 -1.0000 -0.0000
vn -0.0000 1.0000 -0.0000
vn -0.0000 -0.0000 1.0000
vn -0.0000 -0.0000 -1.0000
vn -1.0000 -0.0000 -0.0000
vn 1.0000 -0.0000 -0.0000
vt 0.812500 0.312500
vt 0.437500 0.812500
vt 0.562500 0.812500
vt 0.812500 0.937500
s 0
usemtl FN_Atlas
f 1/1/1 2/1/1 3/1/1 4/1/1
f 5/1/2 6/1/2 7/1/2 8/1/2
f 1/1/3 4/1/3 6/1/3 5/1/3
f 3/1/4 2/1/4 8/1/4 7/1/4
f 1/1/5 5/1/5 8/1/5 2/1/5
f 4/1/6 3/1/6 7/1/6 6/1/6
f 9/1/1 10/1/1 11/1/1 12/1/1
f 13/1/2 14/1/2 15/1/2 16/1/2
f 9/1/3 12/1/3 14/1/3 13/1/3
f 11/1/4 10/1/4 16/1/4 15/1/4
f 9/1/5 13/1/5 16/1/5 10/1/5
f 12/1/6 11/1/6 15/1/6 14/1/6
f 17/1/1 18/1/1 19/1/1 20/1/1
f 21/1/2 22/1/2 23/1/2 24/1/2
f 17/1/3 20/1/3 22/1/3 21/1/3
f 19/1/4 18/1/4 24/1/4 23/1/4
f 17/1/5 21/1/5 24/1/5 18/1/5
f 20/1/6 19/1/6 23/1/6 22/1/6
f 25/1/1 26/1/1 27/1/1 28/1/1
f 29/1/2 30/1/2 31/1/2 32/1/2
f 25/1/3 28/1/3 30/1/3 29/1/3
f 27/1/4 26/1/4 32/1/4 31/1/4
f 25/1/5 29/1/5 32/1/5 26/1/5
f 28/1/6 27/1/6 31/1/6 30/1/6
f 33/2/1 34/2/1 35/2/1 36/2/1
f 37/2/2 38/2/2 39/2/2 40/2/2
f 33/3/3 36/3/3 38/3/3 37/3/3
f 35/2/4 34/2/4 40/2/4 39/2/4
f 33/2/5 37/2/5 40/2/5 34/2/5
f 36/2/6 35/2/6 39/2/6 38/2/6
f 41/2/1 42/2/1 43/2/1 44/2/1
f 45/2/2 46/2/2 47/2/2 48/2/2
f 41/3/3 44/3/3 46/3/3 45/3/3
f 43/2/4 42/2/4 48/2/4 47/2/4
f 41/2/5 45/2/5 48/2/5 42/2/5
f 44/2/6 43/2/6 47/2/6 46/2/6
f 33/2/1 34/2/1 43/2/1 44/2/1
f 49/2/2 50/2/2 51/2/2 52/2/2
f 33/3/3 44/3/3 50/3/3 49/3/3
f 43/2/4 34/2/4 52/2/4 51/2/4
f 33/2/5 49/2/5 52/2/5 34/2/5
f 44/2/6 43/2/6 51/2/6 50/2/6
f 53/2/1 54/2/1 55/2/1 56/2/1
f 37/2/2 46/2/2 47/2/2 40/2/2
f 53/3/3 56/3/3 46/3/3 37/3/3
f 55/2/4 54/2/4 40/2/4 47/2/4
f 53/2/5 37/2/5 40/2/5 54/2/5
f 56/2/6 55/2/6 47/2/6 46/2/6
f 57/4/1 35/4/1 42/4/1 58/4/1
f 59/4/2 60/4/2 48/4/2 39/4/2
f 57/4/3 58/4/3 60/4/3 59/4/3
f 42/4/4 35/4/4 39/4/4 48/4/4
f 57/4/5 59/4/5 39/4/5 35/4/5
f 58/4/6 42/4/6 48/4/6 60/4/6
f 61/2/1 62/2/1 63/2/1 64/2/1
f 65/2/2 66/2/2 67/2/2 68/2/2
f 61/3/3 64/3/3 66/3/3 65/3/3
f 63/2/4 62/2/4 68/2/4 67/2/4
f 61/2/5 65/2/5 68/2/5 62/2/5
f 64/2/6 63/2/6 67/2/6 66/2/6
f 69/2/1 70/2/1 71/2/1 72/2/1
f 73/2/2 74/2/2 75/2/2 76/2/2
f 69/3/3 72/3/3 74/3/3 73/3/3
f 71/2/4 70/2/4 76/2/4 75/2/4
f 69/2/5 73/2/5 76/2/5 70/2/5
f 72/2/6 71/2/6 75/2/6 74/2/6
f 77/2/1 78/2/1 79/2/1 80/2/1
f 81/2/2 82/2/2 83/2/2 84/2/2
f 77/3/3 80/3/3 82/3/3 81/3/3
f 79/2/4 78/2/4 84/2/4 83/2/4
f 77/2/5 81/2/5 84/2/5 78/2/5
f 80/2/6 79/2/6 83/2/6 82/2/6
f 85/2/1 86/2/1 87/2/1 88/2/1
f 89/2/2 90/2/2 91/2/2 92/2/2
f 85/3/3 88/3/3 90/3/3 89/3/3
f 87/2/4 86/2/4 92/2/4 91/2/4
f 85/2/5 89/2/5 92/2/5 86/2/5
f 88/2/6 87/2/6 91/2/6 90/2/6
