# Blender 5.2.0 LTS
# www.blender.org
mtllib FN_Screen_Desk.mtl
o FN_Screen_Desk
v -0.600000 0.052000 0.011000
v -0.600000 0.052000 0.001000
v 0.600000 0.052000 0.001000
v 0.600000 0.052000 0.011000
v -0.600000 0.470000 0.011000
v 0.600000 0.470000 0.011000
v 0.600000 0.470000 0.001000
v -0.600000 0.470000 0.001000
v -0.446000 0.044000 0.040000
v -0.446000 0.044000 -0.040000
v -0.394000 0.044000 -0.040000
v -0.394000 0.044000 0.040000
v -0.446000 0.070000 0.040000
v -0.394000 0.070000 0.040000
v -0.394000 0.070000 -0.040000
v -0.446000 0.070000 -0.040000
v -0.446000 0.000000 -0.024000
v -0.446000 0.000000 -0.040000
v -0.394000 0.000000 -0.040000
v -0.394000 0.000000 -0.024000
v -0.446000 0.070000 -0.024000
v -0.394000 0.070000 -0.024000
v -0.446000 0.000000 0.026000
v -0.394000 0.000000 0.026000
v -0.446000 0.018000 0.026000
v -0.394000 0.018000 0.026000
v -0.394000 0.018000 -0.040000
v -0.446000 0.018000 -0.040000
v -0.413636 0.012000 0.002364
v -0.420000 0.012000 0.005000
v -0.426364 0.012000 0.002364
v -0.429000 0.012000 -0.004000
v -0.426364 0.012000 -0.010364
v -0.420000 0.012000 -0.013000
v -0.413636 0.012000 -0.010364
v -0.411000 0.012000 -0.004000
v -0.413700 0.030000 -0.004000
v -0.415545 0.030000 -0.008455
v -0.420000 0.030000 -0.010300
v -0.424455 0.030000 -0.008455
v -0.426300 0.030000 -0.004000
v -0.424455 0.030000 0.000455
v -0.420000 0.030000 0.002300
v -0.415545 0.030000 0.000455
v 0.394000 0.044000 0.040000
v 0.394000 0.044000 -0.040000
v 0.446000 0.044000 -0.040000
v 0.446000 0.044000 0.040000
v 0.394000 0.070000 0.040000
v 0.446000 0.070000 0.040000
v 0.446000 0.070000 -0.040000
v 0.394000 0.070000 -0.040000
v 0.394000 0.000000 -0.024000
v 0.394000 0.000000 -0.040000
v 0.446000 0.000000 -0.040000
v 0.446000 0.000000 -0.024000
v 0.394000 0.070000 -0.024000
v 0.446000 0.070000 -0.024000
v 0.394000 0.000000 0.026000
v 0.446000 0.000000 0.026000
v 0.394000 0.018000 0.026000
v 0.446000 0.018000 0.026000
v 0.446000 0.018000 -0.040000
v 0.394000 0.018000 -0.040000
v 0.426364 0.012000 0.002364
v 0.420000 0.012000 0.005000
v 0.413636 0.012000 0.002364
v 0.411000 0.012000 -0.004000
v 0.413636 0.012000 -0.010364
v 0.420000 0.012000 -0.013000
v 0.426364 0.012000 -0.010364
v 0.429000 0.012000 -0.004000
v 0.426300 0.030000 -0.004000
v 0.424455 0.030000 -0.008455
v 0.420000 0.030000 -0.010300
v 0.415545 0.030000 -0.008455
v 0.413700 0.030000 -0.004000
v 0.415545 0.030000 0.000455
v 0.420000 0.030000 0.002300
v 0.424455 0.030000 0.000455
vn -0.0000 -1.0000 -0.0000
vn -0.0000 1.0000 -0.0000
vn -0.0000 -0.0000 1.0000
vn -0.0000 -0.0000 -1.0000
vn -1.0000 -0.0000 -0.0000
vn 1.0000 -0.0000 -0.0000
vn 0.9151 0.1373 -0.3791
vn 0.3791 0.1373 -0.9151
vn -0.3791 0.1373 -0.9151
vn -0.9151 0.1373 -0.3791
vn -0.9151 0.1373 0.3791
vn -0.3791 0.1373 0.9151
vn 0.3791 0.1373 0.9151
vn 0.9151 0.1373 0.3791
vt 0.937500 0.437500
vt 0.812500 0.312500
vt 0.062500 0.312500
s 0
usemtl FN_Atlas
f 1/1/1 2/1/1 3/1/1 4/1/1
f 5/1/2 6/1/2 7/1/2 8/1/2
f 1/1/3 4/1/3 6/1/3 5/1/3
f 3/1/4 2/1/4 8/1/4 7/1/4
f 1/1/5 5/1/5 8/1/5 2/1/5
f 4/1/6 3/1/6 7/1/6 6/1/6
f 9/2/1 10/2/1 11/2/1 12/2/1
f 13/2/2 14/2/2 15/2/2 16/2/2
f 9/2/3 12/2/3 14/2/3 13/2/3
f 11/2/4 10/2/4 16/2/4 15/2/4
f 9/2/5 13/2/5 16/2/5 10/2/5
f 12/2/6 11/2/6 15/2/6 14/2/6
f 17/2/1 18/2/1 19/2/1 20/2/1
f 21/2/2 22/2/2 15/2/2 16/2/2
f 17/2/3 20/2/3 22/2/3 21/2/3
f 19/2/4 18/2/4 16/2/4 15/2/4
f 17/2/5 21/2/5 16/2/5 18/2/5
f 20/2/6 19/2/6 15/2/6 22/2/6
f 23/2/1 18/2/1 19/2/1 24/2/1
f 25/2/2 26/2/2 27/2/2 28/2/2
f 23/2/3 24/2/3 26/2/3 25/2/3
f 19/2/4 18/2/4 28/2/4 27/2/4
f 23/2/5 25/2/5 28/2/5 18/2/5
f 24/2/6 19/2/6 27/2/6 26/2/6
f 29/3/1 30/3/1 31/3/1 32/3/1 33/3/1 34/3/1 35/3/1 36/3/1
f 37/3/2 38/3/2 39/3/2 40/3/2 41/3/2 42/3/2 43/3/2 44/3/2
f 36/3/7 35/3/7 38/3/7 37/3/7
f 35/3/8 34/3/8 39/3/8 38/3/8
f 34/3/9 33/3/9 40/3/9 39/3/9
f 33/3/10 32/3/10 41/3/10 40/3/10
f 32/3/11 31/3/11 42/3/11 41/3/11
f 31/3/12 30/3/12 43/3/12 42/3/12
f 30/3/13 29/3/13 44/3/13 43/3/13
f 29/3/14 36/3/14 37/3/14 44/3/14
f 45/2/1 46/2/1 47/2/1 48/2/1
f 49/2/2 50/2/2 51/2/2 52/2/2
f 45/2/3 48/2/3 50/2/3 49/2/3
f 47/2/4 46/2/4 52/2/4 51/2/4
f 45/2/5 49/2/5 52/2/5 46/2/5
f 48/2/6 47/2/6 51/2/6 50/2/6
f 53/2/1 54/2/1 55/2/1 56/2/1
f 57/2/2 58/2/2 51/2/2 52/2/2
f 53/2/3 56/2/3 58/2/3 57/2/3
f 55/2/4 54/2/4 52/2/4 51/2/4
f 53/2/5 57/2/5 52/2/5 54/2/5
f 56/2/6 55/2/6 51/2/6 58/2/6
f 59/2/1 54/2/1 55/2/1 60/2/1
f 61/2/2 62/2/2 63/2/2 64/2/2
f 59/2/3 60/2/3 62/2/3 61/2/3
f 55/2/4 54/2/4 64/2/4 63/2/4
f 59/2/5 61/2/5 64/2/5 54/2/5
f 60/2/6 55/2/6 63/2/6 62/2/6
f 65/3/1 66/3/1 67/3/1 68/3/1 69/3/1 70/3/1 71/3/1 72/3/1
f 73/3/2 74/3/2 75/3/2 76/3/2 77/3/2 78/3/2 79/3/2 80/3/2
f 72/3/7 71/3/7 74/3/7 73/3/7
f 71/3/8 70/3/8 75/3/8 74/3/8
f 70/3/9 69/3/9 76/3/9 75/3/9
f 69/3/10 68/3/10 77/3/10 76/3/10
f 68/3/11 67/3/11 78/3/11 77/3/11
f 67/3/12 66/3/12 79/3/12 78/3/12
f 66/3/13 65/3/13 80/3/13 79/3/13
f 65/3/14 72/3/14 73/3/14 80/3/14
