# Blender 5.2.0 LTS
# www.blender.org
mtllib FN_Screen_Fire.mtl
o FN_Screen_Fire
v -0.344000 0.060000 0.010000
v -0.344000 0.060000 -0.010000
v -0.320000 0.060000 -0.010000
v -0.320000 0.060000 0.010000
v -0.344000 0.600000 0.010000
v -0.320000 0.600000 0.010000
v -0.320000 0.600000 -0.010000
v -0.344000 0.600000 -0.010000
v 0.320000 0.060000 0.010000
v 0.320000 0.060000 -0.010000
v 0.344000 0.060000 -0.010000
v 0.344000 0.060000 0.010000
v 0.320000 0.600000 0.010000
v 0.344000 0.600000 0.010000
v 0.344000 0.600000 -0.010000
v 0.320000 0.600000 -0.010000
v -0.344000 0.100000 0.010000
v 0.344000 0.100000 0.010000
v 0.344000 0.100000 -0.010000
v -0.344000 0.100000 -0.010000
v -0.344000 0.560000 0.010000
v -0.344000 0.560000 -0.010000
v 0.344000 0.560000 -0.010000
v 0.344000 0.560000 0.010000
v -0.303000 0.080000 0.004000
v -0.303000 0.080000 -0.004000
v -0.297000 0.080000 -0.004000
v -0.297000 0.080000 0.004000
v -0.303000 0.580000 0.004000
v -0.297000 0.580000 0.004000
v -0.297000 0.580000 -0.004000
v -0.303000 0.580000 -0.004000
v -0.243000 0.080000 0.004000
v -0.243000 0.080000 -0.004000
v -0.237000 0.080000 -0.004000
v -0.237000 0.080000 0.004000
v -0.243000 0.580000 0.004000
v -0.237000 0.580000 0.004000
v -0.237000 0.580000 -0.004000
v -0.243000 0.580000 -0.004000
v -0.183000 0.080000 0.004000
v -0.183000 0.080000 -0.004000
v -0.177000 0.080000 -0.004000
v -0.177000 0.080000 0.004000
v -0.183000 0.580000 0.004000
v -0.177000 0.580000 0.004000
v -0.177000 0.580000 -0.004000
v -0.183000 0.580000 -0.004000
v -0.123000 0.080000 0.004000
v -0.123000 0.080000 -0.004000
v -0.117000 0.080000 -0.004000
v -0.117000 0.080000 0.004000
v -0.123000 0.580000 0.004000
v -0.117000 0.580000 0.004000
v -0.117000 0.580000 -0.004000
v -0.123000 0.580000 -0.004000
v -0.063000 0.080000 0.004000
v -0.063000 0.080000 -0.004000
v -0.057000 0.080000 -0.004000
v -0.057000 0.080000 0.004000
v -0.063000 0.580000 0.004000
v -0.057000 0.580000 0.004000
v -0.057000 0.580000 -0.004000
v -0.063000 0.580000 -0.004000
v -0.003000 0.080000 0.004000
v -0.003000 0.080000 -0.004000
v 0.003000 0.080000 -0.004000
v 0.003000 0.080000 0.004000
v -0.003000 0.580000 0.004000
v 0.003000 0.580000 0.004000
v 0.003000 0.580000 -0.004000
v -0.003000 0.580000 -0.004000
v 0.057000 0.080000 0.004000
v 0.057000 0.080000 -0.004000
v 0.063000 0.080000 -0.004000
v 0.063000 0.080000 0.004000
v 0.057000 0.580000 0.004000
v 0.063000 0.580000 0.004000
v 0.063000 0.580000 -0.004000
v 0.057000 0.580000 -0.004000
v 0.117000 0.080000 0.004000
v 0.117000 0.080000 -0.004000
v 0.123000 0.080000 -0.004000
v 0.123000 0.080000 0.004000
v 0.117000 0.580000 0.004000
v 0.123000 0.580000 0.004000
v 0.123000 0.580000 -0.004000
v 0.117000 0.580000 -0.004000
v 0.177000 0.080000 0.004000
v 0.177000 0.080000 -0.004000
v 0.183000 0.080000 -0.004000
v 0.183000 0.080000 0.004000
v 0.177000 0.580000 0.004000
v 0.183000 0.580000 0.004000
v 0.183000 0.580000 -0.004000
v 0.177000 0.580000 -0.004000
v 0.237000 0.080000 0.004000
v 0.237000 0.080000 -0.004000
v 0.243000 0.080000 -0.004000
v 0.243000 0.080000 0.004000
v 0.237000 0.580000 0.004000
v 0.243000 0.580000 0.004000
v 0.243000 0.580000 -0.004000
v 0.237000 0.580000 -0.004000
v 0.297000 0.080000 0.004000
v 0.297000 0.080000 -0.004000
v 0.303000 0.080000 -0.004000
v 0.303000 0.080000 0.004000
v 0.297000 0.580000 0.004000
v 0.303000 0.580000 0.004000
v 0.303000 0.580000 -0.004000
v 0.297000 0.580000 -0.004000
v -0.344000 0.240000 0.005000
v -0.344000 0.240000 -0.005000
v 0.344000 0.240000 -0.005000
v 0.344000 0.240000 0.005000
v -0.344000 0.250000 0.005000
v 0.344000 0.250000 0.005000
v 0.344000 0.250000 -0.005000
v -0.344000 0.250000 -0.005000
v -0.344000 0.400000 0.005000
v -0.344000 0.400000 -0.005000
v 0.344000 0.400000 -0.005000
v 0.344000 0.400000 0.005000
v -0.344000 0.410000 0.005000
v 0.344000 0.410000 0.005000
v 0.344000 0.410000 -0.005000
v -0.344000 0.410000 -0.005000
v -0.348000 0.100000 0.030000
v -0.348000 0.100000 -0.030000
v -0.348000 0.000000 -0.110000
v -0.348000 0.000000 0.110000
v -0.316000 0.000000 0.110000
v -0.316000 0.000000 -0.110000
v -0.316000 0.100000 -0.030000
v -0.316000 0.100000 0.030000
v 0.316000 0.100000 0.030000
v 0.316000 0.100000 -0.030000
v 0.316000 0.000000 -0.110000
v 0.316000 0.000000 0.110000
v 0.348000 0.000000 0.110000
v 0.348000 0.000000 -0.110000
v 0.348000 0.100000 -0.030000
v 0.348000 0.100000 0.030000
v -0.114000 0.588000 0.010000
v -0.114000 0.588000 -0.010000
v -0.100000 0.588000 -0.010000
v -0.100000 0.588000 0.010000
v -0.114000 0.622000 0.010000
v -0.100000 0.622000 0.010000
v -0.100000 0.622000 -0.010000
v -0.114000 0.622000 -0.010000
v 0.100000 0.588000 0.010000
v 0.100000 0.588000 -0.010000
v 0.114000 0.588000 -0.010000
v 0.114000 0.588000 0.010000
v 0.100000 0.622000 0.010000
v 0.114000 0.622000 0.010000
v 0.114000 0.622000 -0.010000
v 0.100000 0.622000 -0.010000
v -0.120000 0.620000 0.014000
v -0.120000 0.620000 -0.014000
v 0.120000 0.620000 -0.014000
v 0.120000 0.620000 0.014000
v -0.120000 0.644000 0.014000
v 0.120000 0.644000 0.014000
v 0.120000 0.644000 -0.014000
v -0.120000 0.644000 -0.014000
vn -0.0000 -1.0000 -0.0000
vn -0.0000 1.0000 -0.0000
vn -0.0000 -0.0000 1.0000
vn -0.0000 -0.0000 -1.0000
vn -1.0000 -0.0000 -0.0000
vn 1.0000 -0.0000 -0.0000
vn -0.0000 0.6247 -0.7809
vn -0.0000 0.6247 0.7809
vt 0.812500 0.312500
vt 0.437500 0.312500
s 0
usemtl FN_Atlas
f 1/1/1 2/1/1 3/1/1 4/1/1
f 5/1/2 6/1/2 7/1/2 8/1/2
f 1/1/3 4/1/3 6/1/3 5/1/3
f 3/1/4 2/1/4 8/1/4 7/1/4
f 1/1/5 5/1/5 8/1/5 2/1/5
f 4/1/6 3/1/6 7/1/6 6/1/6
f 9/1/1 10/1/1 11/1/1 12/1/1
f 13/1/2 14/1/2 15/1/2 16/1/2
f 9/1/3 12/1/3 14/1/3 13/1/3
f 11/1/4 10/1/4 16/1/4 15/1/4
f 9/1/5 13/1/5 16/1/5 10/1/5
f 12/1/6 11/1/6 15/1/6 14/1/6
f 1/1/1 2/1/1 11/1/1 12/1/1
f 17/1/2 18/1/2 19/1/2 20/1/2
f 1/1/3 12/1/3 18/1/3 17/1/3
f 11/1/4 2/1/4 20/1/4 19/1/4
f 1/1/5 17/1/5 20/1/5 2/1/5
f 12/1/6 11/1/6 19/1/6 18/1/6
f 21/1/1 22/1/1 23/1/1 24/1/1
f 5/1/2 14/1/2 15/1/2 8/1/2
f 21/1/3 24/1/3 14/1/3 5/1/3
f 23/1/4 22/1/4 8/1/4 15/1/4
f 21/1/5 5/1/5 8/1/5 22/1/5
f 24/1/6 23/1/6 15/1/6 14/1/6
f 25/1/1 26/1/1 27/1/1 28/1/1
f 29/1/2 30/1/2 31/1/2 32/1/2
f 25/1/3 28/1/3 30/1/3 29/1/3
f 27/1/4 26/1/4 32/1/4 31/1/4
f 25/1/5 29/1/5 32/1/5 26/1/5
f 28/1/6 27/1/6 31/1/6 30/1/6
f 33/1/1 34/1/1 35/1/1 36/1/1
f 37/1/2 38/1/2 39/1/2 40/1/2
f 33/1/3 36/1/3 38/1/3 37/1/3
f 35/1/4 34/1/4 40/1/4 39/1/4
f 33/1/5 37/1/5 40/1/5 34/1/5
f 36/1/6 35/1/6 39/1/6 38/1/6
f 41/1/1 42/1/1 43/1/1 44/1/1
f 45/1/2 46/1/2 47/1/2 48/1/2
f 41/1/3 44/1/3 46/1/3 45/1/3
f 43/1/4 42/1/4 48/1/4 47/1/4
f 41/1/5 45/1/5 48/1/5 42/1/5
f 44/1/6 43/1/6 47/1/6 46/1/6
f 49/1/1 50/1/1 51/1/1 52/1/1
f 53/1/2 54/1/2 55/1/2 56/1/2
f 49/1/3 52/1/3 54/1/3 53/1/3
f 51/1/4 50/1/4 56/1/4 55/1/4
f 49/1/5 53/1/5 56/1/5 50/1/5
f 52/1/6 51/1/6 55/1/6 54/1/6
f 57/1/1 58/1/1 59/1/1 60/1/1
f 61/1/2 62/1/2 63/1/2 64/1/2
f 57/1/3 60/1/3 62/1/3 61/1/3
f 59/1/4 58/1/4 64/1/4 63/1/4
f 57/1/5 61/1/5 64/1/5 58/1/5
f 60/1/6 59/1/6 63/1/6 62/1/6
f 65/1/1 66/1/1 67/1/1 68/1/1
f 69/1/2 70/1/2 71/1/2 72/1/2
f 65/1/3 68/1/3 70/1/3 69/1/3
f 67/1/4 66/1/4 72/1/4 71/1/4
f 65/1/5 69/1/5 72/1/5 66/1/5
f 68/1/6 67/1/6 71/1/6 70/1/6
f 73/1/1 74/1/1 75/1/1 76/1/1
f 77/1/2 78/1/2 79/1/2 80/1/2
f 73/1/3 76/1/3 78/1/3 77/1/3
f 75/1/4 74/1/4 80/1/4 79/1/4
f 73/1/5 77/1/5 80/1/5 74/1/5
f 76/1/6 75/1/6 79/1/6 78/1/6
f 81/1/1 82/1/1 83/1/1 84/1/1
f 85/1/2 86/1/2 87/1/2 88/1/2
f 81/1/3 84/1/3 86/1/3 85/1/3
f 83/1/4 82/1/4 88/1/4 87/1/4
f 81/1/5 85/1/5 88/1/5 82/1/5
f 84/1/6 83/1/6 87/1/6 86/1/6
f 89/1/1 90/1/1 91/1/1 92/1/1
f 93/1/2 94/1/2 95/1/2 96/1/2
f 89/1/3 92/1/3 94/1/3 93/1/3
f 91/1/4 90/1/4 96/1/4 95/1/4
f 89/1/5 93/1/5 96/1/5 90/1/5
f 92/1/6 91/1/6 95/1/6 94/1/6
f 97/1/1 98/1/1 99/1/1 100/1/1
f 101/1/2 102/1/2 103/1/2 104/1/2
f 97/1/3 100/1/3 102/1/3 101/1/3
f 99/1/4 98/1/4 104/1/4 103/1/4
f 97/1/5 101/1/5 104/1/5 98/1/5
f 100/1/6 99/1/6 103/1/6 102/1/6
f 105/1/1 106/1/1 107/1/1 108/1/1
f 109/1/2 110/1/2 111/1/2 112/1/2
f 105/1/3 108/1/3 110/1/3 109/1/3
f 107/1/4 106/1/4 112/1/4 111/1/4
f 105/1/5 109/1/5 112/1/5 106/1/5
f 108/1/6 107/1/6 111/1/6 110/1/6
f 113/1/1 114/1/1 115/1/1 116/1/1
f 117/1/2 118/1/2 119/1/2 120/1/2
f 113/1/3 116/1/3 118/1/3 117/1/3
f 115/1/4 114/1/4 120/1/4 119/1/4
f 113/1/5 117/1/5 120/1/5 114/1/5
f 116/1/6 115/1/6 119/1/6 118/1/6
f 121/1/1 122/1/1 123/1/1 124/1/1
f 125/1/2 126/1/2 127/1/2 128/1/2
f 121/1/3 124/1/3 126/1/3 125/1/3
f 123/1/4 122/1/4 128/1/4 127/1/4
f 121/1/5 125/1/5 128/1/5 122/1/5
f 124/1/6 123/1/6 127/1/6 126/1/6
f 129/1/5 130/1/5 131/1/5 132/1/5
f 133/1/6 134/1/6 135/1/6 136/1/6
f 132/1/1 131/1/1 134/1/1 133/1/1
f 131/1/7 130/1/7 135/1/7 134/1/7
f 130/1/2 129/1/2 136/1/2 135/1/2
f 129/1/8 132/1/8 133/1/8 136/1/8
f 137/1/5 138/1/5 139/1/5 140/1/5
f 141/1/6 142/1/6 143/1/6 144/1/6
f 140/1/1 139/1/1 142/1/1 141/1/1
f 139/1/7 138/1/7 143/1/7 142/1/7
f 138/1/2 137/1/2 144/1/2 143/1/2
f 137/1/8 140/1/8 141/1/8 144/1/8
f 145/2/1 146/2/1 147/2/1 148/2/1
f 149/2/2 150/2/2 151/2/2 152/2/2
f 145/2/3 148/2/3 150/2/3 149/2/3
f 147/2/4 146/2/4 152/2/4 151/2/4
f 145/2/5 149/2/5 152/2/5 146/2/5
f 148/2/6 147/2/6 151/2/6 150/2/6
f 153/2/1 154/2/1 155/2/1 156/2/1
f 157/2/2 158/2/2 159/2/2 160/2/2
f 153/2/3 156/2/3 158/2/3 157/2/3
f 155/2/4 154/2/4 160/2/4 159/2/4
f 153/2/5 157/2/5 160/2/5 154/2/5
f 156/2/6 155/2/6 159/2/6 158/2/6
f 161/2/1 162/2/1 163/2/1 164/2/1
f 165/2/2 166/2/2 167/2/2 168/2/2
f 161/2/3 164/2/3 166/2/3 165/2/3
f 163/2/4 162/2/4 168/2/4 167/2/4
f 161/2/5 165/2/5 168/2/5 162/2/5
f 164/2/6 163/2/6 167/2/6 166/2/6
