# Blender 5.2.0 LTS
# www.blender.org
mtllib FN_Sideboard.mtl
o FN_Sideboard
v -0.674778 0.188535 0.125525
v -0.688728 0.191024 0.119736
v -0.702252 0.195257 0.125525
v -0.707427 0.198753 0.139500
v -0.701222 0.199465 0.153475
v -0.687272 0.196976 0.159264
v -0.673748 0.192743 0.153475
v -0.668573 0.189247 0.139500
v -0.721440 0.010648 0.169544
v -0.724754 0.013114 0.178595
v -0.733485 0.016098 0.182319
v -0.742517 0.017854 0.178534
v -0.746561 0.017352 0.169456
v -0.743246 0.014886 0.160405
v -0.734515 0.011902 0.156681
v -0.725483 0.010146 0.160466
v -0.699253 0.098921 0.166036
v -0.695013 0.095919 0.154526
v -0.710374 0.102555 0.170789
v -0.721862 0.104693 0.166000
v -0.726987 0.104081 0.154474
v -0.722747 0.101079 0.142964
v -0.711626 0.097445 0.138211
v -0.700138 0.095307 0.143000
v -0.726000 0.000000 0.183356
v -0.742000 0.000000 0.183356
v -0.750000 0.000000 0.169500
v -0.742000 0.000000 0.155644
v -0.726000 0.000000 0.155644
v -0.718000 0.000000 0.169500
v -0.720560 0.014000 0.169500
v -0.727280 0.014000 0.157861
v -0.740720 0.014000 0.157861
v -0.747440 0.014000 0.169500
v -0.740720 0.014000 0.181139
v -0.727280 0.014000 0.181139
v -0.726000 0.007700 0.155644
v -0.718000 0.007700 0.169500
v -0.742000 0.007700 0.155644
v -0.750000 0.007700 0.169500
v -0.742000 0.007700 0.183356
v -0.726000 0.007700 0.183356
v -0.673748 0.192743 -0.206475
v -0.687272 0.196976 -0.212264
v -0.701222 0.199465 -0.206475
v -0.707427 0.198753 -0.192500
v -0.702252 0.195257 -0.178525
v -0.688728 0.191024 -0.172736
v -0.674778 0.188535 -0.178525
v -0.668573 0.189247 -0.192500
v -0.721440 0.010648 -0.222544
v -0.725483 0.010146 -0.213466
v -0.734515 0.011902 -0.209681
v -0.743246 0.014886 -0.213405
v -0.746561 0.017352 -0.222456
v -0.742517 0.017854 -0.231534
v -0.733485 0.016098 -0.235319
v -0.724754 0.013114 -0.231595
v -0.700138 0.095307 -0.196000
v -0.695013 0.095919 -0.207526
v -0.711626 0.097445 -0.191211
v -0.722747 0.101079 -0.195964
v -0.726987 0.104081 -0.207474
v -0.721862 0.104693 -0.219000
v -0.710374 0.102555 -0.223789
v -0.699253 0.098921 -0.219036
v -0.726000 0.000000 -0.208644
v -0.742000 0.000000 -0.208644
v -0.750000 0.000000 -0.222500
v -0.742000 0.000000 -0.236356
v -0.726000 0.000000 -0.236356
v -0.718000 0.000000 -0.222500
v -0.720560 0.014000 -0.222500
v -0.727280 0.014000 -0.234139
v -0.740720 0.014000 -0.234139
v -0.747440 0.014000 -0.222500
v -0.740720 0.014000 -0.210861
v -0.727280 0.014000 -0.210861
v -0.726000 0.007700 -0.236356
v -0.718000 0.007700 -0.222500
v -0.742000 0.007700 -0.236356
v -0.750000 0.007700 -0.222500
v -0.742000 0.007700 -0.208644
v -0.726000 0.007700 -0.208644
v 0.702252 0.195257 0.125525
v 0.688728 0.191024 0.119736
v 0.674778 0.188535 0.125525
v 0.668573 0.189247 0.139500
v 0.673748 0.192743 0.153475
v 0.687272 0.196976 0.159264
v 0.701222 0.199465 0.153475
v 0.707427 0.198753 0.139500
v 0.746561 0.017352 0.169456
v 0.742517 0.017854 0.178534
v 0.733485 0.016098 0.182319
v 0.724754 0.013114 0.178595
v 0.721440 0.010648 0.169544
v 0.725483 0.010146 0.160466
v 0.734515 0.011902 0.156681
v 0.743246 0.014886 0.160405
v 0.721862 0.104693 0.166000
v 0.726987 0.104081 0.154474
v 0.710374 0.102555 0.170789
v 0.699253 0.098921 0.166036
v 0.695013 0.095919 0.154526
v 0.700138 0.095307 0.143000
v 0.711626 0.097445 0.138211
v 0.722747 0.101079 0.142964
v 0.742000 0.000000 0.183356
v 0.726000 0.000000 0.183356
v 0.718000 0.000000 0.169500
v 0.726000 0.000000 0.155644
v 0.742000 0.000000 0.155644
v 0.750000 0.000000 0.169500
v 0.747440 0.014000 0.169500
v 0.740720 0.014000 0.157861
v 0.727280 0.014000 0.157861
v 0.720560 0.014000 0.169500
v 0.727280 0.014000 0.181139
v 0.740720 0.014000 0.181139
v 0.742000 0.007700 0.155644
v 0.750000 0.007700 0.169500
v 0.726000 0.007700 0.155644
v 0.718000 0.007700 0.169500
v 0.726000 0.007700 0.183356
v 0.742000 0.007700 0.183356
v 0.701222 0.199465 -0.206475
v 0.687272 0.196976 -0.212264
v 0.673748 0.192743 -0.206475
v 0.668573 0.189247 -0.192500
v 0.674778 0.188535 -0.178525
v 0.688728 0.191024 -0.172736
v 0.702252 0.195257 -0.178525
v 0.707427 0.198753 -0.192500
v 0.746561 0.017352 -0.222456
v 0.743246 0.014886 -0.213405
v 0.734515 0.011902 -0.209681
v 0.725483 0.010146 -0.213466
v 0.721440 0.010648 -0.222544
v 0.724754 0.013114 -0.231595
v 0.733485 0.016098 -0.235319
v 0.742517 0.017854 -0.231534
v 0.722747 0.101079 -0.195964
v 0.726987 0.104081 -0.207474
v 0.711626 0.097445 -0.191211
v 0.700138 0.095307 -0.196000
v 0.695013 0.095919 -0.207526
v 0.699253 0.098921 -0.219036
v 0.710374 0.102555 -0.223789
v 0.721862 0.104693 -0.219000
v 0.742000 0.000000 -0.208644
v 0.726000 0.000000 -0.208644
v 0.718000 0.000000 -0.222500
v 0.726000 0.000000 -0.236356
v 0.742000 0.000000 -0.236356
v 0.750000 0.000000 -0.222500
v 0.747440 0.014000 -0.222500
v 0.740720 0.014000 -0.234139
v 0.727280 0.014000 -0.234139
v 0.720560 0.014000 -0.222500
v 0.727280 0.014000 -0.210861
v 0.740720 0.014000 -0.210861
v 0.742000 0.007700 -0.236356
v 0.750000 0.007700 -0.222500
v 0.726000 0.007700 -0.236356
v 0.718000 0.007700 -0.222500
v 0.726000 0.007700 -0.208644
v 0.742000 0.007700 -0.208644
v -0.800000 0.186000 0.198500
v -0.800000 0.186000 -0.251500
v 0.800000 0.186000 -0.251500
v 0.800000 0.186000 0.198500
v -0.800000 0.204000 0.198500
v 0.800000 0.204000 0.198500
v 0.800000 0.204000 -0.251500
v -0.800000 0.204000 -0.251500
v -0.800000 0.762000 0.198500
v -0.800000 0.762000 -0.251500
v 0.800000 0.762000 -0.251500
v 0.800000 0.762000 0.198500
v -0.800000 0.780000 0.198500
v 0.800000 0.780000 0.198500
v 0.800000 0.780000 -0.251500
v -0.800000 0.780000 -0.251500
v -0.782000 0.186000 -0.251500
v -0.782000 0.186000 0.198500
v -0.782000 0.780000 0.198500
v -0.782000 0.780000 -0.251500
v 0.782000 0.186000 0.198500
v 0.782000 0.186000 -0.251500
v 0.782000 0.780000 0.198500
v 0.782000 0.780000 -0.251500
v -0.782000 0.186000 -0.239500
v 0.782000 0.186000 -0.239500
v -0.782000 0.780000 -0.239500
v 0.782000 0.780000 -0.239500
v -0.782000 0.204000 0.198500
v -0.782000 0.204000 0.184500
v 0.782000 0.204000 0.184500
v 0.782000 0.204000 0.198500
v -0.782000 0.762000 0.198500
v 0.782000 0.762000 0.198500
v 0.782000 0.762000 0.184500
v -0.782000 0.762000 0.184500
v -0.772000 0.214000 0.214500
v -0.772000 0.214000 0.196500
v -0.264000 0.214000 0.196500
v -0.264000 0.214000 0.214500
v -0.772000 0.752000 0.214500
v -0.264000 0.752000 0.214500
v -0.264000 0.752000 0.196500
v -0.772000 0.752000 0.196500
v -0.386000 0.476072 0.247500
v -0.386000 0.476072 0.239500
v -0.386000 0.483000 0.235500
v -0.386000 0.489928 0.239500
v -0.386000 0.489928 0.247500
v -0.386000 0.483000 0.251500
v -0.282000 0.483000 0.251500
v -0.282000 0.489928 0.247500
v -0.282000 0.489928 0.239500
v -0.282000 0.483000 0.235500
v -0.282000 0.476072 0.239500
v -0.282000 0.476072 0.247500
v -0.390000 0.476072 0.215500
v -0.382000 0.476072 0.215500
v -0.378000 0.483000 0.215500
v -0.382000 0.489928 0.215500
v -0.390000 0.489928 0.215500
v -0.394000 0.483000 0.215500
v -0.394000 0.483000 0.243500
v -0.390000 0.489928 0.243500
v -0.382000 0.489928 0.243500
v -0.378000 0.483000 0.243500
v -0.382000 0.476072 0.243500
v -0.390000 0.476072 0.243500
v -0.286000 0.476072 0.215500
v -0.278000 0.476072 0.215500
v -0.274000 0.483000 0.215500
v -0.278000 0.489928 0.215500
v -0.286000 0.489928 0.215500
v -0.290000 0.483000 0.215500
v -0.290000 0.483000 0.243500
v -0.286000 0.489928 0.243500
v -0.278000 0.489928 0.243500
v -0.274000 0.483000 0.243500
v -0.278000 0.476072 0.243500
v -0.286000 0.476072 0.243500
v -0.254000 0.214000 0.214500
v -0.254000 0.214000 0.196500
v 0.254000 0.214000 0.196500
v 0.254000 0.214000 0.214500
v -0.254000 0.386667 0.214500
v 0.254000 0.386667 0.214500
v 0.254000 0.386667 0.196500
v -0.254000 0.386667 0.196500
v -0.088000 0.293405 0.247500
v -0.088000 0.293405 0.239500
v -0.088000 0.300333 0.235500
v -0.088000 0.307262 0.239500
v -0.088000 0.307262 0.247500
v -0.088000 0.300333 0.251500
v 0.088000 0.300333 0.251500
v 0.088000 0.307262 0.247500
v 0.088000 0.307262 0.239500
v 0.088000 0.300333 0.235500
v 0.088000 0.293405 0.239500
v 0.088000 0.293405 0.247500
v -0.092000 0.293405 0.215500
v -0.084000 0.293405 0.215500
v -0.080000 0.300333 0.215500
v -0.084000 0.307262 0.215500
v -0.092000 0.307262 0.215500
v -0.096000 0.300333 0.215500
v -0.096000 0.300333 0.243500
v -0.092000 0.307262 0.243500
v -0.084000 0.307262 0.243500
v -0.080000 0.300333 0.243500
v -0.084000 0.293405 0.243500
v -0.092000 0.293405 0.243500
v 0.084000 0.293405 0.215500
v 0.092000 0.293405 0.215500
v 0.096000 0.300333 0.215500
v 0.092000 0.307262 0.215500
v 0.084000 0.307262 0.215500
v 0.080000 0.300333 0.215500
v 0.080000 0.300333 0.243500
v 0.084000 0.307262 0.243500
v 0.092000 0.307262 0.243500
v 0.096000 0.300333 0.243500
v 0.092000 0.293405 0.243500
v 0.084000 0.293405 0.243500
v -0.254000 0.396667 0.214500
v -0.254000 0.396667 0.196500
v 0.254000 0.396667 0.196500
v 0.254000 0.396667 0.214500
v -0.254000 0.569333 0.214500
v 0.254000 0.569333 0.214500
v 0.254000 0.569333 0.196500
v -0.254000 0.569333 0.196500
v -0.088000 0.476072 0.247500
v -0.088000 0.476072 0.239500
v -0.088000 0.483000 0.235500
v -0.088000 0.489928 0.239500
v -0.088000 0.489928 0.247500
v -0.088000 0.483000 0.251500
v 0.088000 0.483000 0.251500
v 0.088000 0.489928 0.247500
v 0.088000 0.489928 0.239500
v 0.088000 0.483000 0.235500
v 0.088000 0.476072 0.239500
v 0.088000 0.476072 0.247500
v -0.092000 0.476072 0.215500
v -0.084000 0.476072 0.215500
v -0.080000 0.483000 0.215500
v -0.084000 0.489928 0.215500
v -0.092000 0.489928 0.215500
v -0.096000 0.483000 0.215500
v -0.096000 0.483000 0.243500
v -0.092000 0.489928 0.243500
v -0.084000 0.489928 0.243500
v -0.080000 0.483000 0.243500
v -0.084000 0.476072 0.243500
v -0.092000 0.476072 0.243500
v 0.084000 0.476072 0.215500
v 0.092000 0.476072 0.215500
v 0.096000 0.483000 0.215500
v 0.092000 0.489928 0.215500
v 0.084000 0.489928 0.215500
v 0.080000 0.483000 0.215500
v 0.080000 0.483000 0.243500
v 0.084000 0.489928 0.243500
v 0.092000 0.489928 0.243500
v 0.096000 0.483000 0.243500
v 0.092000 0.476072 0.243500
v 0.084000 0.476072 0.243500
v -0.254000 0.579333 0.214500
v -0.254000 0.579333 0.196500
v 0.254000 0.579333 0.196500
v 0.254000 0.579333 0.214500
v -0.254000 0.752000 0.214500
v 0.254000 0.752000 0.214500
v 0.254000 0.752000 0.196500
v -0.254000 0.752000 0.196500
v -0.088000 0.658738 0.247500
v -0.088000 0.658738 0.239500
v -0.088000 0.665667 0.235500
v -0.088000 0.672595 0.239500
v -0.088000 0.672595 0.247500
v -0.088000 0.665667 0.251500
v 0.088000 0.665667 0.251500
v 0.088000 0.672595 0.247500
v 0.088000 0.672595 0.239500
v 0.088000 0.665667 0.235500
v 0.088000 0.658738 0.239500
v 0.088000 0.658738 0.247500
v -0.092000 0.658738 0.215500
v -0.084000 0.658738 0.215500
v -0.080000 0.665667 0.215500
v -0.084000 0.672595 0.215500
v -0.092000 0.672595 0.215500
v -0.096000 0.665667 0.215500
v -0.096000 0.665667 0.243500
v -0.092000 0.672595 0.243500
v -0.084000 0.672595 0.243500
v -0.080000 0.665667 0.243500
v -0.084000 0.658738 0.243500
v -0.092000 0.658738 0.243500
v 0.084000 0.658738 0.215500
v 0.092000 0.658738 0.215500
v 0.096000 0.665667 0.215500
v 0.092000 0.672595 0.215500
v 0.084000 0.672595 0.215500
v 0.080000 0.665667 0.215500
v 0.080000 0.665667 0.243500
v 0.084000 0.672595 0.243500
v 0.092000 0.672595 0.243500
v 0.096000 0.665667 0.243500
v 0.092000 0.658738 0.243500
v 0.084000 0.658738 0.243500
v 0.264000 0.214000 0.214500
v 0.264000 0.214000 0.196500
v 0.772000 0.214000 0.196500
v 0.772000 0.214000 0.214500
v 0.264000 0.752000 0.214500
v 0.772000 0.752000 0.214500
v 0.772000 0.752000 0.196500
v 0.264000 0.752000 0.196500
v 0.282000 0.476072 0.247500
v 0.282000 0.476072 0.239500
v 0.282000 0.483000 0.235500
v 0.282000 0.489928 0.239500
v 0.282000 0.489928 0.247500
v 0.282000 0.483000 0.251500
v 0.386000 0.483000 0.251500
v 0.386000 0.489928 0.247500
v 0.386000 0.489928 0.239500
v 0.386000 0.483000 0.235500
v 0.386000 0.476072 0.239500
v 0.386000 0.476072 0.247500
v 0.278000 0.476072 0.215500
v 0.286000 0.476072 0.215500
v 0.290000 0.483000 0.215500
v 0.286000 0.489928 0.215500
v 0.278000 0.489928 0.215500
v 0.274000 0.483000 0.215500
v 0.274000 0.483000 0.243500
v 0.278000 0.489928 0.243500
v 0.286000 0.489928 0.243500
v 0.290000 0.483000 0.243500
v 0.286000 0.476072 0.243500
v 0.278000 0.476072 0.243500
v 0.382000 0.476072 0.215500
v 0.390000 0.476072 0.215500
v 0.394000 0.483000 0.215500
v 0.390000 0.489928 0.215500
v 0.382000 0.489928 0.215500
v 0.378000 0.483000 0.215500
v 0.378000 0.483000 0.243500
v 0.382000 0.489928 0.243500
v 0.390000 0.489928 0.243500
v 0.394000 0.483000 0.243500
v 0.390000 0.476072 0.243500
v 0.382000 0.476072 0.243500
vn 0.2349 0.9599 -0.1532
vn -0.2548 -0.9526 0.1662
vn 0.9031 -0.1942 0.3831
vn 0.3972 0.0148 0.9176
vn -0.3458 0.1966 0.9175
vn -0.8907 0.2446 0.3831
vn -0.9187 0.1309 -0.3728
vn -0.4130 -0.0781 -0.9074
vn 0.3301 -0.2599 -0.9075
vn 0.8753 -0.3080 -0.3729
vn 0.8982 -0.2104 0.3860
vn 0.3972 0.0162 0.9176
vn -0.3419 0.2134 0.9152
vn -0.8861 0.2656 0.3799
vn -0.9163 0.1421 -0.3744
vn -0.4150 -0.0846 -0.9059
vn 0.3240 -0.2817 -0.9032
vn 0.8678 -0.3338 -0.3681
vn -0.0000 -1.0000 -0.0000
vn -0.0000 1.0000 -0.0000
vn 0.8660 -0.0000 -0.5000
vn -0.0000 -0.0000 -1.0000
vn -0.8660 -0.0000 -0.5000
vn -0.8660 -0.0000 0.5000
vn -0.0000 -0.0000 1.0000
vn 0.8660 -0.0000 0.5000
vn 0.8169 0.3320 -0.4716
vn -0.0000 0.3320 -0.9433
vn -0.8169 0.3320 -0.4717
vn -0.8169 0.3320 0.4717
vn -0.0000 0.3320 0.9433
vn 0.8169 0.3320 0.4716
vn 0.2349 0.9599 0.1532
vn -0.2548 -0.9526 -0.1662
vn 0.8753 -0.3080 0.3729
vn 0.3301 -0.2599 0.9075
vn -0.4130 -0.0781 0.9074
vn -0.9187 0.1309 0.3728
vn -0.8907 0.2446 -0.3831
vn -0.3458 0.1966 -0.9175
vn 0.3972 0.0148 -0.9176
vn 0.9031 -0.1942 -0.3831
vn 0.8678 -0.3338 0.3681
vn 0.3240 -0.2817 0.9032
vn -0.4150 -0.0846 0.9059
vn -0.9163 0.1421 0.3744
vn -0.8861 0.2656 -0.3799
vn -0.3419 0.2134 -0.9152
vn 0.3972 0.0162 -0.9176
vn 0.8982 -0.2104 -0.3860
vn -0.2349 0.9599 -0.1532
vn 0.2548 -0.9526 0.1662
vn 0.8907 0.2446 0.3831
vn 0.3458 0.1966 0.9175
vn -0.3972 0.0148 0.9176
vn -0.9031 -0.1942 0.3831
vn -0.8753 -0.3080 -0.3729
vn -0.3301 -0.2599 -0.9075
vn 0.4130 -0.0781 -0.9074
vn 0.9187 0.1309 -0.3728
vn 0.8861 0.2656 0.3799
vn 0.3419 0.2134 0.9152
vn -0.3972 0.0162 0.9176
vn -0.8982 -0.2104 0.3860
vn -0.8678 -0.3338 -0.3681
vn -0.3240 -0.2817 -0.9032
vn 0.4150 -0.0846 -0.9059
vn 0.9163 0.1421 -0.3744
vn 0.8169 0.3320 -0.4717
vn -0.8169 0.3320 -0.4716
vn -0.8169 0.3320 0.4716
vn 0.8169 0.3320 0.4717
vn -0.2349 0.9599 0.1532
vn 0.2548 -0.9526 -0.1662
vn 0.9187 0.1309 0.3728
vn 0.4130 -0.0781 0.9074
vn -0.3301 -0.2599 0.9075
vn -0.8753 -0.3080 0.3729
vn -0.9031 -0.1942 -0.3831
vn -0.3972 0.0148 -0.9176
vn 0.3458 0.1966 -0.9175
vn 0.8907 0.2446 -0.3831
vn 0.9163 0.1421 0.3744
vn 0.4150 -0.0846 0.9059
vn -0.3240 -0.2817 0.9032
vn -0.8678 -0.3338 0.3681
vn -0.8982 -0.2104 -0.3860
vn -0.3972 0.0162 -0.9176
vn 0.3419 0.2134 -0.9152
vn 0.8861 0.2656 -0.3799
vn -1.0000 -0.0000 -0.0000
vn 1.0000 -0.0000 -0.0000
vn -0.0000 -0.5000 -0.8660
vn -0.0000 -0.5000 0.8660
vn -0.0000 0.5000 0.8660
vn -0.0000 0.5000 -0.8660
vn 0.8660 -0.5000 -0.0000
vn -0.8660 -0.5000 -0.0000
vn -0.8660 0.5000 -0.0000
vn 0.8660 0.5000 -0.0000
vt 0.687500 0.937500
vt 0.812500 0.312500
vt 0.812500 0.937500
vt 0.437500 0.937500
vt 0.437500 0.312500
s 0
usemtl FN_Atlas
f 1/1/1 2/1/1 3/1/1 4/1/1 5/1/1 6/1/1 7/1/1 8/1/1
f 9/1/2 10/1/2 11/1/2 12/1/2 13/1/2 14/1/2 15/1/2 16/1/2
f 8/1/3 7/1/3 17/1/3 18/1/3
f 7/1/4 6/1/4 19/1/4 17/1/4
f 6/1/5 5/1/5 20/1/5 19/1/5
f 5/1/6 4/1/6 21/1/6 20/1/6
f 4/1/7 3/1/7 22/1/7 21/1/7
f 3/1/8 2/1/8 23/1/8 22/1/8
f 2/1/9 1/1/9 24/1/9 23/1/9
f 1/1/10 8/1/10 18/1/10 24/1/10
f 18/1/11 17/1/11 10/1/11 9/1/11
f 17/1/12 19/1/12 11/1/12 10/1/12
f 19/1/13 20/1/13 12/1/13 11/1/13
f 20/1/14 21/1/14 13/1/14 12/1/14
f 21/1/15 22/1/15 14/1/15 13/1/15
f 22/1/16 23/1/16 15/1/16 14/1/16
f 23/1/17 24/1/17 16/1/17 15/1/17
f 24/1/18 18/1/18 9/1/18 16/1/18
f 25/2/19 26/2/19 27/2/19 28/2/19 29/2/19 30/2/19
f 31/2/20 32/2/20 33/2/20 34/2/20 35/2/20 36/2/20
f 30/2/21 29/2/21 37/2/21 38/2/21
f 29/2/22 28/2/22 39/2/22 37/2/22
f 28/2/23 27/2/23 40/2/23 39/2/23
f 27/2/24 26/2/24 41/2/24 40/2/24
f 26/2/25 25/2/25 42/2/25 41/2/25
f 25/2/26 30/2/26 38/2/26 42/2/26
f 38/2/27 37/2/27 32/2/27 31/2/27
f 37/2/28 39/2/28 33/2/28 32/2/28
f 39/2/29 40/2/29 34/2/29 33/2/29
f 40/2/30 41/2/30 35/2/30 34/2/30
f 41/2/31 42/2/31 36/2/31 35/2/31
f 42/2/32 38/2/32 31/2/32 36/2/32
f 43/1/33 44/1/33 45/1/33 46/1/33 47/1/33 48/1/33 49/1/33 50/1/33
f 51/1/34 52/1/34 53/1/34 54/1/34 55/1/34 56/1/34 57/1/34 58/1/34
f 50/1/35 49/1/35 59/1/35 60/1/35
f 49/1/36 48/1/36 61/1/36 59/1/36
f 48/1/37 47/1/37 62/1/37 61/1/37
f 47/1/38 46/1/38 63/1/38 62/1/38
f 46/1/39 45/1/39 64/1/39 63/1/39
f 45/1/40 44/1/40 65/1/40 64/1/40
f 44/1/41 43/1/41 66/1/41 65/1/41
f 43/1/42 50/1/42 60/1/42 66/1/42
f 60/1/43 59/1/43 52/1/43 51/1/43
f 59/1/44 61/1/44 53/1/44 52/1/44
f 61/1/45 62/1/45 54/1/45 53/1/45
f 62/1/46 63/1/46 55/1/46 54/1/46
f 63/1/47 64/1/47 56/1/47 55/1/47
f 64/1/48 65/1/48 57/1/48 56/1/48
f 65/1/49 66/1/49 58/1/49 57/1/49
f 66/1/50 60/1/50 51/1/50 58/1/50
f 67/2/19 68/2/19 69/2/19 70/2/19 71/2/19 72/2/19
f 73/2/20 74/2/20 75/2/20 76/2/20 77/2/20 78/2/20
f 72/2/21 71/2/21 79/2/21 80/2/21
f 71/2/22 70/2/22 81/2/22 79/2/22
f 70/2/23 69/2/23 82/2/23 81/2/23
f 69/2/24 68/2/24 83/2/24 82/2/24
f 68/2/25 67/2/25 84/2/25 83/2/25
f 67/2/26 72/2/26 80/2/26 84/2/26
f 80/2/27 79/2/27 74/2/27 73/2/27
f 79/2/28 81/2/28 75/2/28 74/2/28
f 81/2/29 82/2/29 76/2/29 75/2/29
f 82/2/30 83/2/30 77/2/30 76/2/30
f 83/2/31 84/2/31 78/2/31 77/2/31
f 84/2/32 80/2/32 73/2/32 78/2/32
f 85/1/51 86/1/51 87/1/51 88/1/51 89/1/51 90/1/51 91/1/51 92/1/51
f 93/1/52 94/1/52 95/1/52 96/1/52 97/1/52 98/1/52 99/1/52 100/1/52
f 92/1/53 91/1/53 101/1/53 102/1/53
f 91/1/54 90/1/54 103/1/54 101/1/54
f 90/1/55 89/1/55 104/1/55 103/1/55
f 89/1/56 88/1/56 105/1/56 104/1/56
f 88/1/57 87/1/57 106/1/57 105/1/57
f 87/1/58 86/1/58 107/1/58 106/1/58
f 86/1/59 85/1/59 108/1/59 107/1/59
f 85/1/60 92/1/60 102/1/60 108/1/60
f 102/1/61 101/1/61 94/1/61 93/1/61
f 101/1/62 103/1/62 95/1/62 94/1/62
f 103/1/63 104/1/63 96/1/63 95/1/63
f 104/1/64 105/1/64 97/1/64 96/1/64
f 105/1/65 106/1/65 98/1/65 97/1/65
f 106/1/66 107/1/66 99/1/66 98/1/66
f 107/1/67 108/1/67 100/1/67 99/1/67
f 108/1/68 102/1/68 93/1/68 100/1/68
f 109/2/19 110/2/19 111/2/19 112/2/19 113/2/19 114/2/19
f 115/2/20 116/2/20 117/2/20 118/2/20 119/2/20 120/2/20
f 114/2/21 113/2/21 121/2/21 122/2/21
f 113/2/22 112/2/22 123/2/22 121/2/22
f 112/2/23 111/2/23 124/2/23 123/2/23
f 111/2/24 110/2/24 125/2/24 124/2/24
f 110/2/25 109/2/25 126/2/25 125/2/25
f 109/2/26 114/2/26 122/2/26 126/2/26
f 122/2/69 121/2/69 116/2/69 115/2/69
f 121/2/28 123/2/28 117/2/28 116/2/28
f 123/2/70 124/2/70 118/2/70 117/2/70
f 124/2/71 125/2/71 119/2/71 118/2/71
f 125/2/31 126/2/31 120/2/31 119/2/31
f 126/2/72 122/2/72 115/2/72 120/2/72
f 127/1/73 128/1/73 129/1/73 130/1/73 131/1/73 132/1/73 133/1/73 134/1/73
f 135/1/74 136/1/74 137/1/74 138/1/74 139/1/74 140/1/74 141/1/74 142/1/74
f 134/1/75 133/1/75 143/1/75 144/1/75
f 133/1/76 132/1/76 145/1/76 143/1/76
f 132/1/77 131/1/77 146/1/77 145/1/77
f 131/1/78 130/1/78 147/1/78 146/1/78
f 130/1/79 129/1/79 148/1/79 147/1/79
f 129/1/80 128/1/80 149/1/80 148/1/80
f 128/1/81 127/1/81 150/1/81 149/1/81
f 127/1/82 134/1/82 144/1/82 150/1/82
f 144/1/83 143/1/83 136/1/83 135/1/83
f 143/1/84 145/1/84 137/1/84 136/1/84
f 145/1/85 146/1/85 138/1/85 137/1/85
f 146/1/86 147/1/86 139/1/86 138/1/86
f 147/1/87 148/1/87 140/1/87 139/1/87
f 148/1/88 149/1/88 141/1/88 140/1/88
f 149/1/89 150/1/89 142/1/89 141/1/89
f 150/1/90 144/1/90 135/1/90 142/1/90
f 151/2/19 152/2/19 153/2/19 154/2/19 155/2/19 156/2/19
f 157/2/20 158/2/20 159/2/20 160/2/20 161/2/20 162/2/20
f 156/2/21 155/2/21 163/2/21 164/2/21
f 155/2/22 154/2/22 165/2/22 163/2/22
f 154/2/23 153/2/23 166/2/23 165/2/23
f 153/2/24 152/2/24 167/2/24 166/2/24
f 152/2/25 151/2/25 168/2/25 167/2/25
f 151/2/26 156/2/26 164/2/26 168/2/26
f 164/2/69 163/2/69 158/2/69 157/2/69
f 163/2/28 165/2/28 159/2/28 158/2/28
f 165/2/70 166/2/70 160/2/70 159/2/70
f 166/2/71 167/2/71 161/2/71 160/2/71
f 167/2/31 168/2/31 162/2/31 161/2/31
f 168/2/72 164/2/72 157/2/72 162/2/72
f 169/1/19 170/1/19 171/1/19 172/1/19
f 173/1/20 174/1/20 175/1/20 176/1/20
f 169/1/25 172/1/25 174/1/25 173/1/25
f 171/1/22 170/1/22 176/1/22 175/1/22
f 169/1/91 173/1/91 176/1/91 170/1/91
f 172/1/92 171/1/92 175/1/92 174/1/92
f 177/1/19 178/1/19 179/1/19 180/1/19
f 181/1/20 182/1/20 183/1/20 184/1/20
f 177/1/25 180/1/25 182/1/25 181/1/25
f 179/1/22 178/1/22 184/1/22 183/1/22
f 177/1/91 181/1/91 184/1/91 178/1/91
f 180/1/92 179/1/92 183/1/92 182/1/92
f 169/1/19 170/1/19 185/1/19 186/1/19
f 181/1/20 187/1/20 188/1/20 184/1/20
f 169/1/25 186/1/25 187/1/25 181/1/25
f 185/1/22 170/1/22 184/1/22 188/1/22
f 169/1/91 181/1/91 184/1/91 170/1/91
f 186/1/92 185/1/92 188/1/92 187/1/92
f 189/1/19 190/1/19 171/1/19 172/1/19
f 191/1/20 182/1/20 183/1/20 192/1/20
f 189/1/25 172/1/25 182/1/25 191/1/25
f 171/1/22 190/1/22 192/1/22 183/1/22
f 189/1/91 191/1/91 192/1/91 190/1/91
f 172/1/92 171/1/92 183/1/92 182/1/92
f 193/3/19 185/3/19 190/3/19 194/3/19
f 195/3/20 196/3/20 192/3/20 188/3/20
f 193/3/25 194/3/25 196/3/25 195/3/25
f 190/3/22 185/3/22 188/3/22 192/3/22
f 193/3/91 195/3/91 188/3/91 185/3/91
f 194/3/92 190/3/92 192/3/92 196/3/92
f 197/3/19 198/3/19 199/3/19 200/3/19
f 201/3/20 202/3/20 203/3/20 204/3/20
f 197/3/25 200/3/25 202/3/25 201/3/25
f 199/3/22 198/3/22 204/3/22 203/3/22
f 197/3/91 201/3/91 204/3/91 198/3/91
f 200/3/92 199/3/92 203/3/92 202/3/92
f 205/3/19 206/3/19 207/3/19 208/3/19
f 209/3/20 210/3/20 211/3/20 212/3/20
f 205/4/25 208/4/25 210/4/25 209/4/25
f 207/3/22 206/3/22 212/3/22 211/3/22
f 205/3/91 209/3/91 212/3/91 206/3/91
f 208/3/92 207/3/92 211/3/92 210/3/92
f 213/5/92 214/5/92 215/5/92 216/5/92 217/5/92 218/5/92
f 219/5/91 220/5/91 221/5/91 222/5/91 223/5/91 224/5/91
f 218/5/93 217/5/93 220/5/93 219/5/93
f 217/5/19 216/5/19 221/5/19 220/5/19
f 216/5/94 215/5/94 222/5/94 221/5/94
f 215/5/95 214/5/95 223/5/95 222/5/95
f 214/5/20 213/5/20 224/5/20 223/5/20
f 213/5/96 218/5/96 219/5/96 224/5/96
f 225/5/25 226/5/25 227/5/25 228/5/25 229/5/25 230/5/25
f 231/5/22 232/5/22 233/5/22 234/5/22 235/5/22 236/5/22
f 230/5/97 229/5/97 232/5/97 231/5/97
f 229/5/19 228/5/19 233/5/19 232/5/19
f 228/5/98 227/5/98 234/5/98 233/5/98
f 227/5/99 226/5/99 235/5/99 234/5/99
f 226/5/20 225/5/20 236/5/20 235/5/20
f 225/5/100 230/5/100 231/5/100 236/5/100
f 237/5/25 238/5/25 239/5/25 240/5/25 241/5/25 242/5/25
f 243/5/22 244/5/22 245/5/22 246/5/22 247/5/22 248/5/22
f 242/5/97 241/5/97 244/5/97 243/5/97
f 241/5/19 240/5/19 245/5/19 244/5/19
f 240/5/98 239/5/98 246/5/98 245/5/98
f 239/5/99 238/5/99 247/5/99 246/5/99
f 238/5/20 237/5/20 248/5/20 247/5/20
f 237/5/100 242/5/100 243/5/100 248/5/100
f 249/3/19 250/3/19 251/3/19 252/3/19
f 253/3/20 254/3/20 255/3/20 256/3/20
f 249/4/25 252/4/25 254/4/25 253/4/25
f 251/3/22 250/3/22 256/3/22 255/3/22
f 249/3/91 253/3/91 256/3/91 250/3/91
f 252/3/92 251/3/92 255/3/92 254/3/92
f 257/5/92 258/5/92 259/5/92 260/5/92 261/5/92 262/5/92
f 263/5/91 264/5/91 265/5/91 266/5/91 267/5/91 268/5/91
f 262/5/93 261/5/93 264/5/93 263/5/93
f 261/5/19 260/5/19 265/5/19 264/5/19
f 260/5/94 259/5/94 266/5/94 265/5/94
f 259/5/95 258/5/95 267/5/95 266/5/95
f 258/5/20 257/5/20 268/5/20 267/5/20
f 257/5/96 262/5/96 263/5/96 268/5/96
f 269/5/25 270/5/25 271/5/25 272/5/25 273/5/25 274/5/25
f 275/5/22 276/5/22 277/5/22 278/5/22 279/5/22 280/5/22
f 274/5/97 273/5/97 276/5/97 275/5/97
f 273/5/19 272/5/19 277/5/19 276/5/19
f 272/5/98 271/5/98 278/5/98 277/5/98
f 271/5/99 270/5/99 279/5/99 278/5/99
f 270/5/20 269/5/20 280/5/20 279/5/20
f 269/5/100 274/5/100 275/5/100 280/5/100
f 281/5/25 282/5/25 283/5/25 284/5/25 285/5/25 286/5/25
f 287/5/22 288/5/22 289/5/22 290/5/22 291/5/22 292/5/22
f 286/5/97 285/5/97 288/5/97 287/5/97
f 285/5/19 284/5/19 289/5/19 288/5/19
f 284/5/98 283/5/98 290/5/98 289/5/98
f 283/5/99 282/5/99 291/5/99 290/5/99
f 282/5/20 281/5/20 292/5/20 291/5/20
f 281/5/100 286/5/100 287/5/100 292/5/100
f 293/3/19 294/3/19 295/3/19 296/3/19
f 297/3/20 298/3/20 299/3/20 300/3/20
f 293/4/25 296/4/25 298/4/25 297/4/25
f 295/3/22 294/3/22 300/3/22 299/3/22
f 293/3/91 297/3/91 300/3/91 294/3/91
f 296/3/92 295/3/92 299/3/92 298/3/92
f 301/5/92 302/5/92 303/5/92 304/5/92 305/5/92 306/5/92
f 307/5/91 308/5/91 309/5/91 310/5/91 311/5/91 312/5/91
f 306/5/93 305/5/93 308/5/93 307/5/93
f 305/5/19 304/5/19 309/5/19 308/5/19
f 304/5/94 303/5/94 310/5/94 309/5/94
f 303/5/95 302/5/95 311/5/95 310/5/95
f 302/5/20 301/5/20 312/5/20 311/5/20
f 301/5/96 306/5/96 307/5/96 312/5/96
f 313/5/25 314/5/25 315/5/25 316/5/25 317/5/25 318/5/25
f 319/5/22 320/5/22 321/5/22 322/5/22 323/5/22 324/5/22
f 318/5/97 317/5/97 320/5/97 319/5/97
f 317/5/19 316/5/19 321/5/19 320/5/19
f 316/5/98 315/5/98 322/5/98 321/5/98
f 315/5/99 314/5/99 323/5/99 322/5/99
f 314/5/20 313/5/20 324/5/20 323/5/20
f 313/5/100 318/5/100 319/5/100 324/5/100
f 325/5/25 326/5/25 327/5/25 328/5/25 329/5/25 330/5/25
f 331/5/22 332/5/22 333/5/22 334/5/22 335/5/22 336/5/22
f 330/5/97 329/5/97 332/5/97 331/5/97
f 329/5/19 328/5/19 333/5/19 332/5/19
f 328/5/98 327/5/98 334/5/98 333/5/98
f 327/5/99 326/5/99 335/5/99 334/5/99
f 326/5/20 325/5/20 336/5/20 335/5/20
f 325/5/100 330/5/100 331/5/100 336/5/100
f 337/3/19 338/3/19 339/3/19 340/3/19
f 341/3/20 342/3/20 343/3/20 344/3/20
f 337/4/25 340/4/25 342/4/25 341/4/25
f 339/3/22 338/3/22 344/3/22 343/3/22
f 337/3/91 341/3/91 344/3/91 338/3/91
f 340/3/92 339/3/92 343/3/92 342/3/92
f 345/5/92 346/5/92 347/5/92 348/5/92 349/5/92 350/5/92
f 351/5/91 352/5/91 353/5/91 354/5/91 355/5/91 356/5/91
f 350/5/93 349/5/93 352/5/93 351/5/93
f 349/5/19 348/5/19 353/5/19 352/5/19
f 348/5/94 347/5/94 354/5/94 353/5/94
f 347/5/95 346/5/95 355/5/95 354/5/95
f 346/5/20 345/5/20 356/5/20 355/5/20
f 345/5/96 350/5/96 351/5/96 356/5/96
f 357/5/25 358/5/25 359/5/25 360/5/25 361/5/25 362/5/25
f 363/5/22 364/5/22 365/5/22 366/5/22 367/5/22 368/5/22
f 362/5/97 361/5/97 364/5/97 363/5/97
f 361/5/19 360/5/19 365/5/19 364/5/19
f 360/5/98 359/5/98 366/5/98 365/5/98
f 359/5/99 358/5/99 367/5/99 366/5/99
f 358/5/20 357/5/20 368/5/20 367/5/20
f 357/5/100 362/5/100 363/5/100 368/5/100
f 369/5/25 370/5/25 371/5/25 372/5/25 373/5/25 374/5/25
f 375/5/22 376/5/22 377/5/22 378/5/22 379/5/22 380/5/22
f 374/5/97 373/5/97 376/5/97 375/5/97
f 373/5/19 372/5/19 377/5/19 376/5/19
f 372/5/98 371/5/98 378/5/98 377/5/98
f 371/5/99 370/5/99 379/5/99 378/5/99
f 370/5/20 369/5/20 380/5/20 379/5/20
f 369/5/100 374/5/100 375/5/100 380/5/100
f 381/3/19 382/3/19 383/3/19 384/3/19
f 385/3/20 386/3/20 387/3/20 388/3/20
f 381/4/25 384/4/25 386/4/25 385/4/25
f 383/3/22 382/3/22 388/3/22 387/3/22
f 381/3/91 385/3/91 388/3/91 382/3/91
f 384/3/92 383/3/92 387/3/92 386/3/92
f 389/5/92 390/5/92 391/5/92 392/5/92 393/5/92 394/5/92
f 395/5/91 396/5/91 397/5/91 398/5/91 399/5/91 400/5/91
f 394/5/93 393/5/93 396/5/93 395/5/93
f 393/5/19 392/5/19 397/5/19 396/5/19
f 392/5/94 391/5/94 398/5/94 397/5/94
f 391/5/95 390/5/95 399/5/95 398/5/95
f 390/5/20 389/5/20 400/5/20 399/5/20
f 389/5/96 394/5/96 395/5/96 400/5/96
f 401/5/25 402/5/25 403/5/25 404/5/25 405/5/25 406/5/25
f 407/5/22 408/5/22 409/5/22 410/5/22 411/5/22 412/5/22
f 406/5/97 405/5/97 408/5/97 407/5/97
f 405/5/19 404/5/19 409/5/19 408/5/19
f 404/5/98 403/5/98 410/5/98 409/5/98
f 403/5/99 402/5/99 411/5/99 410/5/99
f 402/5/20 401/5/20 412/5/20 411/5/20
f 401/5/100 406/5/100 407/5/100 412/5/100
f 413/5/25 414/5/25 415/5/25 416/5/25 417/5/25 418/5/25
f 419/5/22 420/5/22 421/5/22 422/5/22 423/5/22 424/5/22
f 418/5/97 417/5/97 420/5/97 419/5/97
f 417/5/19 416/5/19 421/5/19 420/5/19
f 416/5/98 415/5/98 422/5/98 421/5/98
f 415/5/99 414/5/99 423/5/99 422/5/99
f 414/5/20 413/5/20 424/5/20 423/5/20
f 413/5/100 418/5/100 419/5/100 424/5/100
