# Blender 5.2.0 LTS
# www.blender.org
mtllib FN_Stand_Music.mtl
o FN_Stand_Music
v 0.019799 0.070000 0.094603
v -0.000000 0.070000 0.102804
v -0.019799 0.070000 0.094603
v -0.028000 0.070000 0.074804
v -0.019799 0.070000 0.055005
v 0.000000 0.070000 0.046804
v 0.019799 0.070000 0.055005
v 0.028000 0.070000 0.074804
v 0.028000 0.130000 0.074804
v 0.019799 0.130000 0.055005
v 0.000000 0.130000 0.046804
v -0.019799 0.130000 0.055005
v -0.028000 0.130000 0.074804
v -0.019799 0.130000 0.094603
v -0.000000 0.130000 0.102804
v 0.019799 0.130000 0.094603
v 0.012000 0.000000 -0.185196
v 0.012000 0.000000 -0.245196
v 0.012000 0.120000 0.014804
v 0.012000 0.120000 0.054804
v -0.012000 0.120000 0.054804
v -0.012000 0.120000 0.014804
v -0.012000 0.000000 -0.245196
v -0.012000 0.000000 -0.185196
v -0.231167 0.000000 0.194412
v -0.283128 0.000000 0.224412
v -0.057962 0.120000 0.094412
v -0.023321 0.120000 0.074412
v -0.011321 0.120000 0.095196
v -0.045962 0.120000 0.115196
v -0.271128 0.000000 0.245196
v -0.219167 0.000000 0.215196
v 0.219167 0.000000 0.215196
v 0.271128 0.000000 0.245196
v 0.045962 0.120000 0.115196
v 0.011321 0.120000 0.095196
v 0.023321 0.120000 0.074412
v 0.057962 0.120000 0.094412
v 0.283128 0.000000 0.224412
v 0.231167 0.000000 0.194412
v 0.008000 0.100000 0.088660
v -0.008000 0.100000 0.088660
v -0.016000 0.100000 0.074804
v -0.008000 0.100000 0.060947
v 0.008000 0.100000 0.060947
v 0.016000 0.100000 0.074804
v 0.016000 0.560000 0.074804
v 0.008000 0.560000 0.060947
v -0.008000 0.560000 0.060947
v -0.016000 0.560000 0.074804
v -0.008000 0.560000 0.088660
v 0.008000 0.560000 0.088660
v 0.018385 0.545000 0.093189
v -0.000000 0.545000 0.100804
v -0.018385 0.545000 0.093189
v -0.026000 0.545000 0.074804
v -0.018385 0.545000 0.056419
v 0.000000 0.545000 0.048804
v 0.018385 0.545000 0.056419
v 0.026000 0.545000 0.074804
v 0.026000 0.597000 0.074804
v 0.018385 0.597000 0.056419
v 0.000000 0.597000 0.048804
v -0.018385 0.597000 0.056419
v -0.026000 0.597000 0.074804
v -0.018385 0.597000 0.093189
v -0.000000 0.597000 0.100804
v 0.018385 0.597000 0.093189
v 0.005500 0.545000 0.084330
v -0.005500 0.545000 0.084330
v -0.011000 0.545000 0.074804
v -0.005500 0.545000 0.065278
v 0.005500 0.545000 0.065278
v 0.011000 0.545000 0.074804
v 0.011000 0.940000 0.074804
v 0.005500 0.940000 0.065278
v -0.005500 0.940000 0.065278
v -0.011000 0.940000 0.074804
v -0.005500 0.940000 0.084330
v 0.005500 0.940000 0.084330
v -0.240000 0.930000 0.044804
v -0.240000 1.211908 -0.057802
v -0.240000 1.207119 -0.070958
v -0.240000 0.925212 0.031648
v -0.226000 0.925212 0.031648
v -0.226000 1.207119 -0.070958
v -0.226000 1.211908 -0.057802
v -0.226000 0.930000 0.044804
v -0.007000 0.930000 0.044804
v -0.007000 1.211908 -0.057802
v -0.007000 1.207119 -0.070958
v -0.007000 0.925212 0.031648
v 0.007000 0.925212 0.031648
v 0.007000 1.207119 -0.070958
v 0.007000 1.211908 -0.057802
v 0.007000 0.930000 0.044804
v 0.226000 0.930000 0.044804
v 0.226000 1.211908 -0.057802
v 0.226000 1.207119 -0.070958
v 0.226000 0.925212 0.031648
v 0.240000 0.925212 0.031648
v 0.240000 1.207119 -0.070958
v 0.240000 1.211908 -0.057802
v 0.240000 0.930000 0.044804
v -0.240000 0.943156 0.040016
v -0.240000 0.938367 0.026860
v 0.240000 0.938367 0.026860
v 0.240000 0.943156 0.040016
v -0.240000 1.064376 -0.004105
v -0.240000 1.077532 -0.008893
v -0.240000 1.072743 -0.022049
v -0.240000 1.059588 -0.017261
v 0.240000 1.059588 -0.017261
v 0.240000 1.072743 -0.022049
v 0.240000 1.077532 -0.008893
v 0.240000 1.064376 -0.004105
v -0.240000 1.198752 -0.053014
v -0.240000 1.193964 -0.066170
v 0.240000 1.193964 -0.066170
v 0.240000 1.198752 -0.053014
v -0.240000 0.945733 0.088030
v -0.240000 0.964527 0.081189
v -0.240000 0.948794 0.037963
v 0.240000 0.948794 0.037963
v 0.240000 0.964527 0.081189
v 0.240000 0.945733 0.088030
v -0.014000 1.076166 -0.009655
v -0.014000 1.066166 -0.019655
v -0.014000 0.910000 0.034804
v -0.014000 0.920000 0.044804
v 0.014000 0.920000 0.044804
v 0.014000 0.910000 0.034804
v 0.014000 1.066166 -0.019655
v 0.014000 1.076166 -0.009655
vn -0.0000 -1.0000 -0.0000
vn -0.0000 1.0000 -0.0000
vn 0.9239 -0.0000 -0.3827
vn 0.3827 -0.0000 -0.9239
vn -0.3827 -0.0000 -0.9239
vn -0.9239 -0.0000 -0.3827
vn -0.9239 -0.0000 0.3827
vn -0.3827 -0.0000 0.9239
vn 0.3827 -0.0000 0.9239
vn 0.9239 -0.0000 0.3827
vn 1.0000 -0.0000 -0.0000
vn -1.0000 -0.0000 -0.0000
vn -0.0000 0.9080 -0.4191
vn -0.0000 -0.8944 0.4472
vn -0.5000 -0.0000 -0.8660
vn 0.5000 -0.0000 0.8660
vn -0.3629 0.9080 0.2095
vn 0.3873 -0.8944 -0.2236
vn -0.5000 -0.0000 0.8660
vn 0.5000 -0.0000 -0.8660
vn 0.3629 0.9080 0.2095
vn -0.3873 -0.8944 -0.2236
vn 0.8660 -0.0000 -0.5000
vn -0.0000 -0.0000 -1.0000
vn -0.8660 -0.0000 -0.5000
vn -0.8660 -0.0000 0.5000
vn -0.0000 -0.0000 1.0000
vn 0.8660 -0.0000 0.5000
vn -0.0000 -0.3420 -0.9397
vn -0.0000 0.9397 -0.3420
vn -0.0000 0.3420 0.9397
vn -0.0000 -0.9397 0.3420
vn -0.0000 -0.7071 0.7071
vn -0.0000 -0.3293 -0.9442
vn -0.0000 0.7071 -0.7071
vn -0.0000 0.3293 0.9442
vt 0.812500 0.312500
vt 0.312500 0.312500
s 0
usemtl FN_Atlas
f 1/1/1 2/1/1 3/1/1 4/1/1 5/1/1 6/1/1 7/1/1 8/1/1
f 9/1/2 10/1/2 11/1/2 12/1/2 13/1/2 14/1/2 15/1/2 16/1/2
f 8/1/3 7/1/3 10/1/3 9/1/3
f 7/1/4 6/1/4 11/1/4 10/1/4
f 6/1/5 5/1/5 12/1/5 11/1/5
f 5/1/6 4/1/6 13/1/6 12/1/6
f 4/1/7 3/1/7 14/1/7 13/1/7
f 3/1/8 2/1/8 15/1/8 14/1/8
f 2/1/9 1/1/9 16/1/9 15/1/9
f 1/1/10 8/1/10 9/1/10 16/1/10
f 17/1/11 18/1/11 19/1/11 20/1/11
f 21/1/12 22/1/12 23/1/12 24/1/12
f 20/1/2 19/1/2 22/1/2 21/1/2
f 19/1/13 18/1/13 23/1/13 22/1/13
f 18/1/1 17/1/1 24/1/1 23/1/1
f 17/1/14 20/1/14 21/1/14 24/1/14
f 25/1/15 26/1/15 27/1/15 28/1/15
f 29/1/16 30/1/16 31/1/16 32/1/16
f 28/1/2 27/1/2 30/1/2 29/1/2
f 27/1/17 26/1/17 31/1/17 30/1/17
f 26/1/1 25/1/1 32/1/1 31/1/1
f 25/1/18 28/1/18 29/1/18 32/1/18
f 33/1/19 34/1/19 35/1/19 36/1/19
f 37/1/20 38/1/20 39/1/20 40/1/20
f 36/1/2 35/1/2 38/1/2 37/1/2
f 35/1/21 34/1/21 39/1/21 38/1/21
f 34/1/1 33/1/1 40/1/1 39/1/1
f 33/1/22 36/1/22 37/1/22 40/1/22
f 41/1/1 42/1/1 43/1/1 44/1/1 45/1/1 46/1/1
f 47/1/2 48/1/2 49/1/2 50/1/2 51/1/2 52/1/2
f 46/1/23 45/1/23 48/1/23 47/1/23
f 45/1/24 44/1/24 49/1/24 48/1/24
f 44/1/25 43/1/25 50/1/25 49/1/25
f 43/1/26 42/1/26 51/1/26 50/1/26
f 42/1/27 41/1/27 52/1/27 51/1/27
f 41/1/28 46/1/28 47/1/28 52/1/28
f 53/2/1 54/2/1 55/2/1 56/2/1 57/2/1 58/2/1 59/2/1 60/2/1
f 61/2/2 62/2/2 63/2/2 64/2/2 65/2/2 66/2/2 67/2/2 68/2/2
f 60/2/3 59/2/3 62/2/3 61/2/3
f 59/2/4 58/2/4 63/2/4 62/2/4
f 58/2/5 57/2/5 64/2/5 63/2/5
f 57/2/6 56/2/6 65/2/6 64/2/6
f 56/2/7 55/2/7 66/2/7 65/2/7
f 55/2/8 54/2/8 67/2/8 66/2/8
f 54/2/9 53/2/9 68/2/9 67/2/9
f 53/2/10 60/2/10 61/2/10 68/2/10
f 69/1/1 70/1/1 71/1/1 72/1/1 73/1/1 74/1/1
f 75/1/2 76/1/2 77/1/2 78/1/2 79/1/2 80/1/2
f 74/1/23 73/1/23 76/1/23 75/1/23
f 73/1/24 72/1/24 77/1/24 76/1/24
f 72/1/25 71/1/25 78/1/25 77/1/25
f 71/1/26 70/1/26 79/1/26 78/1/26
f 70/1/27 69/1/27 80/1/27 79/1/27
f 69/1/28 74/1/28 75/1/28 80/1/28
f 81/1/12 82/1/12 83/1/12 84/1/12
f 85/1/11 86/1/11 87/1/11 88/1/11
f 84/1/29 83/1/29 86/1/29 85/1/29
f 83/1/30 82/1/30 87/1/30 86/1/30
f 82/1/31 81/1/31 88/1/31 87/1/31
f 81/1/32 84/1/32 85/1/32 88/1/32
f 89/1/12 90/1/12 91/1/12 92/1/12
f 93/1/11 94/1/11 95/1/11 96/1/11
f 92/1/29 91/1/29 94/1/29 93/1/29
f 91/1/30 90/1/30 95/1/30 94/1/30
f 90/1/31 89/1/31 96/1/31 95/1/31
f 89/1/32 92/1/32 93/1/32 96/1/32
f 97/1/12 98/1/12 99/1/12 100/1/12
f 101/1/11 102/1/11 103/1/11 104/1/11
f 100/1/29 99/1/29 102/1/29 101/1/29
f 99/1/30 98/1/30 103/1/30 102/1/30
f 98/1/31 97/1/31 104/1/31 103/1/31
f 97/1/32 100/1/32 101/1/32 104/1/32
f 81/1/12 105/1/12 106/1/12 84/1/12
f 101/1/11 107/1/11 108/1/11 104/1/11
f 84/1/29 106/1/29 107/1/29 101/1/29
f 106/1/30 105/1/30 108/1/30 107/1/30
f 105/1/31 81/1/31 104/1/31 108/1/31
f 81/1/32 84/1/32 101/1/32 104/1/32
f 109/1/12 110/1/12 111/1/12 112/1/12
f 113/1/11 114/1/11 115/1/11 116/1/11
f 112/1/29 111/1/29 114/1/29 113/1/29
f 111/1/30 110/1/30 115/1/30 114/1/30
f 110/1/31 109/1/31 116/1/31 115/1/31
f 109/1/32 112/1/32 113/1/32 116/1/32
f 117/1/12 82/1/12 83/1/12 118/1/12
f 119/1/11 102/1/11 103/1/11 120/1/11
f 118/1/29 83/1/29 102/1/29 119/1/29
f 83/1/30 82/1/30 103/1/30 102/1/30
f 82/1/31 117/1/31 120/1/31 103/1/31
f 117/1/32 118/1/32 119/1/32 120/1/32
f 121/1/12 122/1/12 123/1/12 81/1/12
f 104/1/11 124/1/11 125/1/11 126/1/11
f 81/1/29 123/1/29 124/1/29 104/1/29
f 123/1/30 122/1/30 125/1/30 124/1/30
f 122/1/31 121/1/31 126/1/31 125/1/31
f 121/1/32 81/1/32 104/1/32 126/1/32
f 127/1/12 128/1/12 129/1/12 130/1/12
f 131/1/11 132/1/11 133/1/11 134/1/11
f 130/1/33 129/1/33 132/1/33 131/1/33
f 129/1/34 128/1/34 133/1/34 132/1/34
f 128/1/35 127/1/35 134/1/35 133/1/35
f 127/1/36 130/1/36 131/1/36 134/1/36
