# Blender 5.2.0 LTS
# www.blender.org
mtllib FN_Scales_Kitchen.mtl
o FN_Scales_Kitchen
v -0.109000 0.020000 0.105260
v -0.109000 0.145000 0.025260
v -0.109000 0.145000 -0.074740
v -0.109000 0.008000 -0.074740
v -0.109000 0.008000 0.105260
v 0.091000 0.008000 0.105260
v 0.091000 0.008000 -0.074740
v 0.091000 0.145000 -0.074740
v 0.091000 0.145000 0.025260
v 0.091000 0.020000 0.105260
v -0.099000 0.000000 0.095260
v -0.099000 0.000000 0.070260
v 0.081000 0.000000 0.070260
v 0.081000 0.000000 0.095260
v -0.099000 0.008000 0.095260
v 0.081000 0.008000 0.095260
v 0.081000 0.008000 0.070260
v -0.099000 0.008000 0.070260
v -0.099000 0.000000 -0.044740
v -0.099000 0.000000 -0.069740
v 0.081000 0.000000 -0.069740
v 0.081000 0.000000 -0.044740
v -0.099000 0.008000 -0.044740
v 0.081000 0.008000 -0.044740
v 0.081000 0.008000 -0.069740
v -0.099000 0.008000 -0.069740
v 0.057000 0.082328 0.065370
v 0.048158 0.110123 0.047582
v 0.048158 0.117670 0.059373
v 0.057000 0.089875 0.077162
v 0.024000 0.130470 0.034559
v 0.024000 0.138017 0.046351
v -0.009000 0.137918 0.029793
v -0.009000 0.145465 0.041585
v -0.042000 0.130470 0.034559
v -0.042000 0.138017 0.046351
v -0.066158 0.110123 0.047582
v -0.066158 0.117670 0.059373
v -0.075000 0.082328 0.065370
v -0.075000 0.089875 0.077162
v -0.066158 0.054533 0.083159
v -0.066158 0.062080 0.094951
v -0.042000 0.034186 0.096181
v -0.042000 0.041733 0.107973
v -0.009000 0.026738 0.100948
v -0.009000 0.034285 0.112740
v 0.024000 0.034186 0.096181
v 0.024000 0.041733 0.107973
v 0.048158 0.054533 0.083159
v 0.048158 0.062080 0.094951
v 0.046000 0.089875 0.077162
v 0.038631 0.113037 0.062338
v 0.038631 0.105491 0.050546
v 0.046000 0.082328 0.065370
v 0.018500 0.129993 0.051486
v 0.018500 0.122447 0.039694
v -0.009000 0.136200 0.047514
v -0.009000 0.128653 0.035722
v -0.036500 0.129993 0.051486
v -0.036500 0.122447 0.039694
v -0.056631 0.113037 0.062338
v -0.056631 0.105491 0.050546
v -0.064000 0.089875 0.077162
v -0.064000 0.082328 0.065370
v -0.056631 0.066712 0.091986
v -0.056631 0.059166 0.080194
v -0.036500 0.049756 0.102838
v -0.036500 0.042210 0.091046
v -0.009000 0.043550 0.106810
v -0.009000 0.036003 0.095018
v 0.018500 0.049756 0.102838
v 0.018500 0.042210 0.091046
v 0.038631 0.066712 0.091986
v 0.038631 0.059166 0.080194
v 0.046000 0.085023 0.069582
v 0.038631 0.108186 0.054758
v 0.018500 0.125142 0.043906
v -0.009000 0.131348 0.039934
v -0.036500 0.125142 0.043906
v -0.056631 0.108186 0.054758
v -0.064000 0.085023 0.069582
v -0.056631 0.061861 0.084406
v -0.036500 0.044905 0.095258
v -0.009000 0.038698 0.099230
v 0.018500 0.044905 0.095258
v 0.038631 0.061861 0.084406
v -0.013000 0.122083 0.045863
v -0.013000 0.128821 0.041551
v -0.005000 0.128821 0.041551
v -0.005000 0.122083 0.045863
v -0.005000 0.123161 0.047548
v -0.005000 0.129900 0.043235
v -0.013000 0.129900 0.043235
v -0.013000 0.123161 0.047548
v 0.035000 0.088392 0.067425
v 0.043000 0.088392 0.067425
v 0.043000 0.081654 0.071738
v 0.035000 0.081654 0.071738
v 0.035000 0.082732 0.073422
v 0.043000 0.082732 0.073422
v 0.043000 0.089471 0.069110
v 0.035000 0.089471 0.069110
v -0.005000 0.047963 0.093300
v -0.005000 0.041225 0.097612
v -0.013000 0.041225 0.097612
v -0.013000 0.047963 0.093300
v -0.013000 0.049042 0.094985
v -0.013000 0.042303 0.099297
v -0.005000 0.042303 0.099297
v -0.005000 0.049042 0.094985
v -0.053000 0.081654 0.071738
v -0.061000 0.081654 0.071738
v -0.061000 0.088392 0.067425
v -0.053000 0.088392 0.067425
v -0.053000 0.089471 0.069110
v -0.061000 0.089471 0.069110
v -0.061000 0.082732 0.073422
v -0.053000 0.082732 0.073422
v -0.013132 0.081359 0.071927
v -0.050377 0.115808 0.049879
v -0.047623 0.118251 0.048316
v -0.004868 0.088687 0.067237
v -0.004868 0.091382 0.071448
v -0.047623 0.120946 0.052527
v -0.050377 0.118504 0.054091
v -0.013132 0.084055 0.076138
v 0.000000 0.085023 0.069582
v -0.004500 0.091588 0.065380
v -0.004500 0.096440 0.072961
v 0.000000 0.089875 0.077162
v -0.013500 0.091588 0.065380
v -0.013500 0.096440 0.072961
v -0.018000 0.085023 0.069582
v -0.018000 0.089875 0.077162
v -0.013500 0.078458 0.073783
v -0.013500 0.083310 0.081364
v -0.004500 0.078458 0.073783
v -0.004500 0.083310 0.081364
v 0.015000 0.145000 -0.024740
v 0.007971 0.145000 -0.041710
v 0.007971 0.176000 -0.041710
v 0.015000 0.176000 -0.024740
v -0.009000 0.145000 -0.048740
v -0.009000 0.176000 -0.048740
v -0.025971 0.145000 -0.041710
v -0.025971 0.176000 -0.041710
v -0.033000 0.145000 -0.024740
v -0.033000 0.176000 -0.024740
v -0.025971 0.145000 -0.007769
v -0.025971 0.176000 -0.007769
v -0.009000 0.145000 -0.000740
v -0.009000 0.176000 -0.000740
v 0.007971 0.145000 -0.007769
v 0.007971 0.176000 -0.007769
v 0.025000 0.160000 -0.024740
v 0.015042 0.160000 -0.048781
v 0.015042 0.176000 -0.048781
v 0.025000 0.176000 -0.024740
v -0.009000 0.160000 -0.058740
v -0.009000 0.176000 -0.058740
v -0.033042 0.160000 -0.048781
v -0.033042 0.176000 -0.048781
v -0.043000 0.160000 -0.024740
v -0.043000 0.176000 -0.024740
v -0.033042 0.160000 -0.000698
v -0.033042 0.176000 -0.000698
v -0.009000 0.160000 0.009260
v -0.009000 0.176000 0.009260
v 0.015042 0.160000 -0.000698
v 0.015042 0.176000 -0.000698
v 0.017000 0.176000 -0.024740
v 0.009385 0.176000 -0.043124
v 0.009385 0.160000 -0.043124
v 0.017000 0.160000 -0.024740
v -0.009000 0.176000 -0.050740
v -0.009000 0.160000 -0.050740
v -0.027385 0.176000 -0.043124
v -0.027385 0.160000 -0.043124
v -0.035000 0.176000 -0.024740
v -0.035000 0.160000 -0.024740
v -0.027385 0.176000 -0.006355
v -0.027385 0.160000 -0.006355
v -0.009000 0.176000 0.001260
v -0.009000 0.160000 0.001260
v 0.009385 0.176000 -0.006355
v 0.009385 0.160000 -0.006355
v 0.036033 0.176000 0.001260
v 0.017000 0.176000 0.020294
v -0.009000 0.176000 0.027260
v -0.035000 0.176000 0.020294
v -0.054033 0.176000 0.001260
v -0.061000 0.176000 -0.024740
v -0.054033 0.176000 -0.050740
v -0.035000 0.176000 -0.069773
v -0.009000 0.176000 -0.076740
v 0.017000 0.176000 -0.069773
v 0.036033 0.176000 -0.050740
v 0.043000 0.176000 -0.024740
v 0.067210 0.210000 -0.068740
v 0.079000 0.210000 -0.024740
v 0.035000 0.210000 -0.100950
v -0.009000 0.210000 -0.112740
v -0.053000 0.210000 -0.100950
v -0.085210 0.210000 -0.068740
v -0.097000 0.210000 -0.024740
v -0.085210 0.210000 0.019260
v -0.053000 0.210000 0.051471
v -0.009000 0.210000 0.063260
v 0.035000 0.210000 0.051471
v 0.067210 0.210000 0.019260
v 0.073000 0.210000 -0.024740
v 0.062014 0.210000 -0.065740
v 0.030837 0.182000 -0.047740
v 0.037000 0.182000 -0.024740
v 0.032000 0.210000 -0.095754
v 0.014000 0.182000 -0.064577
v -0.009000 0.210000 -0.106740
v -0.009000 0.182000 -0.070740
v -0.050000 0.210000 -0.095754
v -0.032000 0.182000 -0.064577
v -0.080014 0.210000 -0.065740
v -0.048837 0.182000 -0.047740
v -0.091000 0.210000 -0.024740
v -0.055000 0.182000 -0.024740
v -0.080014 0.210000 0.016260
v -0.048837 0.182000 -0.001740
v -0.050000 0.210000 0.046274
v -0.032000 0.182000 0.015097
v -0.009000 0.210000 0.057260
v -0.009000 0.182000 0.021260
v 0.032000 0.210000 0.046274
v 0.014000 0.182000 0.015097
v 0.062014 0.210000 0.016260
v 0.030837 0.182000 -0.001740
v 0.091000 0.061144 -0.012740
v 0.091000 0.061144 0.003260
v 0.091000 0.075000 0.011260
v 0.091000 0.088856 0.003260
v 0.091000 0.088856 -0.012740
v 0.091000 0.075000 -0.020740
v 0.109000 0.075000 -0.020740
v 0.109000 0.088856 -0.012740
v 0.109000 0.088856 0.003260
v 0.109000 0.075000 0.011260
v 0.109000 0.061144 0.003260
v 0.109000 0.061144 -0.012740
vn -1.0000 -0.0000 -0.0000
vn 1.0000 -0.0000 -0.0000
vn -0.0000 -1.0000 -0.0000
vn -0.0000 -0.0000 -1.0000
vn -0.0000 1.0000 -0.0000
vn -0.0000 0.5391 0.8423
vn -0.0000 -0.0000 1.0000
vn 0.9659 0.2180 -0.1395
vn 0.7071 0.5956 -0.3812
vn 0.2588 0.8136 -0.5207
vn -0.2588 0.8136 -0.5207
vn -0.7071 0.5956 -0.3812
vn -0.9659 0.2180 -0.1395
vn -0.9659 -0.2180 0.1395
vn -0.7071 -0.5956 0.3812
vn -0.2588 -0.8136 0.5207
vn 0.2588 -0.8136 0.5207
vn 0.7071 -0.5956 0.3812
vn 0.9659 -0.2180 0.1395
vn -0.0000 -0.5391 -0.8423
vn -0.0000 0.8423 -0.5391
vn -0.0000 -0.8423 0.5391
vn 0.6345 0.6510 -0.4166
vn -0.7250 0.5801 -0.3713
vn -0.7394 -0.5671 0.3629
vn 0.7250 -0.5801 0.3713
vn 0.8660 0.4211 -0.2695
vn -0.8660 0.4211 -0.2695
vn -0.8660 -0.4211 0.2695
vn 0.8660 -0.4211 0.2695
vn 0.9239 -0.0000 -0.3827
vn 0.3827 -0.0000 -0.9239
vn -0.3827 -0.0000 -0.9239
vn -0.9239 -0.0000 -0.3827
vn -0.9239 -0.0000 0.3827
vn -0.3827 -0.0000 0.9239
vn 0.3827 -0.0000 0.9239
vn 0.9239 -0.0000 0.3827
vn 0.6753 -0.7150 -0.1809
vn 0.4943 -0.7150 -0.4943
vn 0.1809 -0.7150 -0.6753
vn -0.1809 -0.7150 -0.6753
vn -0.4943 -0.7150 -0.4943
vn -0.6753 -0.7150 -0.1809
vn -0.6753 -0.7150 0.1809
vn -0.4943 -0.7150 0.4943
vn -0.1809 -0.7150 0.6753
vn 0.1809 -0.7150 0.6753
vn 0.4943 -0.7150 0.4943
vn 0.6753 -0.7150 0.1809
vn -0.6058 0.7789 0.1623
vn -0.4435 0.7789 0.4435
vn -0.1623 0.7789 0.6058
vn 0.1623 0.7789 0.6058
vn 0.4435 0.7789 0.4435
vn 0.6058 0.7789 0.1623
vn 0.6058 0.7789 -0.1623
vn 0.4435 0.7789 -0.4435
vn 0.1623 0.7789 -0.6058
vn -0.1623 0.7789 -0.6058
vn -0.4435 0.7789 -0.4435
vn -0.6058 0.7789 -0.1623
vn -0.0000 0.5000 -0.8660
vn -0.0000 0.5000 0.8660
vn -0.0000 -0.5000 0.8660
vn -0.0000 -0.5000 -0.8660
vt 0.312500 0.062500
vt 0.937500 0.937500
vt 0.312500 0.687500
vt 0.687500 0.062500
s 0
usemtl FN_Atlas
f 1/1/1 2/1/1 3/1/1 4/1/1 5/1/1
f 6/1/2 7/1/2 8/1/2 9/1/2 10/1/2
f 5/1/3 4/1/3 7/1/3 6/1/3
f 4/1/4 3/1/4 8/1/4 7/1/4
f 3/1/5 2/1/5 9/1/5 8/1/5
f 2/1/6 1/1/6 10/1/6 9/1/6
f 1/1/7 5/1/7 6/1/7 10/1/7
f 11/2/3 12/2/3 13/2/3 14/2/3
f 15/2/5 16/2/5 17/2/5 18/2/5
f 11/2/7 14/2/7 16/2/7 15/2/7
f 13/2/4 12/2/4 18/2/4 17/2/4
f 11/2/1 15/2/1 18/2/1 12/2/1
f 14/2/2 13/2/2 17/2/2 16/2/2
f 19/2/3 20/2/3 21/2/3 22/2/3
f 23/2/5 24/2/5 25/2/5 26/2/5
f 19/2/7 22/2/7 24/2/7 23/2/7
f 21/2/4 20/2/4 26/2/4 25/2/4
f 19/2/1 23/2/1 26/2/1 20/2/1
f 22/2/2 21/2/2 25/2/2 24/2/2
f 27/2/8 28/2/8 29/2/8 30/2/8
f 28/2/9 31/2/9 32/2/9 29/2/9
f 31/2/10 33/2/10 34/2/10 32/2/10
f 33/2/11 35/2/11 36/2/11 34/2/11
f 35/2/12 37/2/12 38/2/12 36/2/12
f 37/2/13 39/2/13 40/2/13 38/2/13
f 39/2/14 41/2/14 42/2/14 40/2/14
f 41/2/15 43/2/15 44/2/15 42/2/15
f 43/2/16 45/2/16 46/2/16 44/2/16
f 45/2/17 47/2/17 48/2/17 46/2/17
f 47/2/18 49/2/18 50/2/18 48/2/18
f 49/2/19 27/2/19 30/2/19 50/2/19
f 51/2/14 52/2/14 53/2/14 54/2/14
f 52/2/15 55/2/15 56/2/15 53/2/15
f 55/2/16 57/2/16 58/2/16 56/2/16
f 57/2/17 59/2/17 60/2/17 58/2/17
f 59/2/18 61/2/18 62/2/18 60/2/18
f 61/2/19 63/2/19 64/2/19 62/2/19
f 63/2/8 65/2/8 66/2/8 64/2/8
f 65/2/9 67/2/9 68/2/9 66/2/9
f 67/2/10 69/2/10 70/2/10 68/2/10
f 69/2/11 71/2/11 72/2/11 70/2/11
f 71/2/12 73/2/12 74/2/12 72/2/12
f 73/2/13 51/2/13 54/2/13 74/2/13
f 30/2/6 29/2/6 52/2/6 51/2/6
f 29/2/6 32/2/6 55/2/6 52/2/6
f 32/2/6 34/2/6 57/2/6 55/2/6
f 34/2/6 36/2/6 59/2/6 57/2/6
f 36/2/6 38/2/6 61/2/6 59/2/6
f 38/2/6 40/2/6 63/2/6 61/2/6
f 40/2/6 42/2/6 65/2/6 63/2/6
f 42/2/6 44/2/6 67/2/6 65/2/6
f 44/2/6 46/2/6 69/2/6 67/2/6
f 46/2/6 48/2/6 71/2/6 69/2/6
f 48/2/6 50/2/6 73/2/6 71/2/6
f 50/2/6 30/2/6 51/2/6 73/2/6
f 75/3/6 76/3/6 77/3/6 78/3/6 79/3/6 80/3/6 81/3/6 82/3/6 83/3/6 84/3/6 85/3/6 86/3/6
f 87/2/20 88/2/20 89/2/20 90/2/20
f 91/2/6 92/2/6 93/2/6 94/2/6
f 94/2/1 93/2/1 88/2/1 87/2/1
f 93/2/21 92/2/21 89/2/21 88/2/21
f 92/2/2 91/2/2 90/2/2 89/2/2
f 91/2/22 94/2/22 87/2/22 90/2/22
f 95/2/20 96/2/20 97/2/20 98/2/20
f 99/2/6 100/2/6 101/2/6 102/2/6
f 102/2/21 101/2/21 96/2/21 95/2/21
f 101/2/2 100/2/2 97/2/2 96/2/2
f 100/2/22 99/2/22 98/2/22 97/2/22
f 99/2/1 102/2/1 95/2/1 98/2/1
f 103/2/20 104/2/20 105/2/20 106/2/20
f 107/2/6 108/2/6 109/2/6 110/2/6
f 110/2/2 109/2/2 104/2/2 103/2/2
f 109/2/22 108/2/22 105/2/22 104/2/22
f 108/2/1 107/2/1 106/2/1 105/2/1
f 107/2/21 110/2/21 103/2/21 106/2/21
f 111/2/20 112/2/20 113/2/20 114/2/20
f 115/2/6 116/2/6 117/2/6 118/2/6
f 118/2/22 117/2/22 112/2/22 111/2/22
f 117/2/1 116/2/1 113/2/1 112/2/1
f 116/2/21 115/2/21 114/2/21 113/2/21
f 115/2/2 118/2/2 111/2/2 114/2/2
f 119/2/20 120/2/20 121/2/20 122/2/20
f 123/2/6 124/2/6 125/2/6 126/2/6
f 122/2/23 121/2/23 124/2/23 123/2/23
f 121/2/24 120/2/24 125/2/24 124/2/24
f 120/2/25 119/2/25 126/2/25 125/2/25
f 119/2/26 122/2/26 123/2/26 126/2/26
f 127/2/27 128/2/27 129/2/27 130/2/27
f 128/2/21 131/2/21 132/2/21 129/2/21
f 131/2/28 133/2/28 134/2/28 132/2/28
f 133/2/29 135/2/29 136/2/29 134/2/29
f 135/2/22 137/2/22 138/2/22 136/2/22
f 137/2/30 127/2/30 130/2/30 138/2/30
f 130/2/6 129/2/6 132/2/6 134/2/6 136/2/6 138/2/6
f 139/2/31 140/2/31 141/2/31 142/2/31
f 140/2/32 143/2/32 144/2/32 141/2/32
f 143/2/33 145/2/33 146/2/33 144/2/33
f 145/2/34 147/2/34 148/2/34 146/2/34
f 147/2/35 149/2/35 150/2/35 148/2/35
f 149/2/36 151/2/36 152/2/36 150/2/36
f 151/2/37 153/2/37 154/2/37 152/2/37
f 153/2/38 139/2/38 142/2/38 154/2/38
f 142/2/5 141/2/5 144/2/5 146/2/5 148/2/5 150/2/5 152/2/5 154/2/5
f 155/4/31 156/4/31 157/4/31 158/4/31
f 156/4/32 159/4/32 160/4/32 157/4/32
f 159/4/33 161/4/33 162/4/33 160/4/33
f 161/4/34 163/4/34 164/4/34 162/4/34
f 163/4/35 165/4/35 166/4/35 164/4/35
f 165/4/36 167/4/36 168/4/36 166/4/36
f 167/4/37 169/4/37 170/4/37 168/4/37
f 169/4/38 155/4/38 158/4/38 170/4/38
f 171/4/35 172/4/35 173/4/35 174/4/35
f 172/4/36 175/4/36 176/4/36 173/4/36
f 175/4/37 177/4/37 178/4/37 176/4/37
f 177/4/38 179/4/38 180/4/38 178/4/38
f 179/4/31 181/4/31 182/4/31 180/4/31
f 181/4/32 183/4/32 184/4/32 182/4/32
f 183/4/33 185/4/33 186/4/33 184/4/33
f 185/4/34 171/4/34 174/4/34 186/4/34
f 174/4/3 173/4/3 156/4/3 155/4/3
f 173/4/3 176/4/3 159/4/3 156/4/3
f 176/4/3 178/4/3 161/4/3 159/4/3
f 178/4/3 180/4/3 163/4/3 161/4/3
f 180/4/3 182/4/3 165/4/3 163/4/3
f 182/4/3 184/4/3 167/4/3 165/4/3
f 184/4/3 186/4/3 169/4/3 167/4/3
f 186/4/3 174/4/3 155/4/3 169/4/3
f 187/4/3 188/4/3 189/4/3 190/4/3 191/4/3 192/4/3 193/4/3 194/4/3 195/4/3 196/4/3 197/4/3 198/4/3
f 198/4/39 197/4/39 199/4/39 200/4/39
f 197/4/40 196/4/40 201/4/40 199/4/40
f 196/4/41 195/4/41 202/4/41 201/4/41
f 195/4/42 194/4/42 203/4/42 202/4/42
f 194/4/43 193/4/43 204/4/43 203/4/43
f 193/4/44 192/4/44 205/4/44 204/4/44
f 192/4/45 191/4/45 206/4/45 205/4/45
f 191/4/46 190/4/46 207/4/46 206/4/46
f 190/4/47 189/4/47 208/4/47 207/4/47
f 189/4/48 188/4/48 209/4/48 208/4/48
f 188/4/49 187/4/49 210/4/49 209/4/49
f 187/4/50 198/4/50 200/4/50 210/4/50
f 211/4/51 212/4/51 213/4/51 214/4/51
f 212/4/52 215/4/52 216/4/52 213/4/52
f 215/4/53 217/4/53 218/4/53 216/4/53
f 217/4/54 219/4/54 220/4/54 218/4/54
f 219/4/55 221/4/55 222/4/55 220/4/55
f 221/4/56 223/4/56 224/4/56 222/4/56
f 223/4/57 225/4/57 226/4/57 224/4/57
f 225/4/58 227/4/58 228/4/58 226/4/58
f 227/4/59 229/4/59 230/4/59 228/4/59
f 229/4/60 231/4/60 232/4/60 230/4/60
f 231/4/61 233/4/61 234/4/61 232/4/61
f 233/4/62 211/4/62 214/4/62 234/4/62
f 214/4/5 213/4/5 216/4/5 218/4/5 220/4/5 222/4/5 224/4/5 226/4/5 228/4/5 230/4/5 232/4/5 234/4/5
f 200/4/5 199/4/5 212/4/5 211/4/5
f 199/4/5 201/4/5 215/4/5 212/4/5
f 201/4/5 202/4/5 217/4/5 215/4/5
f 202/4/5 203/4/5 219/4/5 217/4/5
f 203/4/5 204/4/5 221/4/5 219/4/5
f 204/4/5 205/4/5 223/4/5 221/4/5
f 205/4/5 206/4/5 225/4/5 223/4/5
f 206/4/5 207/4/5 227/4/5 225/4/5
f 207/4/5 208/4/5 229/4/5 227/4/5
f 208/4/5 209/4/5 231/4/5 229/4/5
f 209/4/5 210/4/5 233/4/5 231/4/5
f 210/4/5 200/4/5 211/4/5 233/4/5
f 235/4/1 236/4/1 237/4/1 238/4/1 239/4/1 240/4/1
f 241/4/2 242/4/2 243/4/2 244/4/2 245/4/2 246/4/2
f 240/4/63 239/4/63 242/4/63 241/4/63
f 239/4/5 238/4/5 243/4/5 242/4/5
f 238/4/64 237/4/64 244/4/64 243/4/64
f 237/4/65 236/4/65 245/4/65 244/4/65
f 236/4/3 235/4/3 246/4/3 245/4/3
f 235/4/66 240/4/66 241/4/66 246/4/66
