# Blender 5.2.0 LTS
# www.blender.org
mtllib FN_Sofa_3Seat.mtl
o FN_Sofa_3Seat
v -0.972000 0.000000 0.361500
v -0.932000 0.000000 0.361500
v -0.932000 0.000000 0.401500
v -0.972000 0.000000 0.401500
v -0.982000 0.152000 0.411500
v -0.922000 0.152000 0.411500
v -0.922000 0.152000 0.351500
v -0.982000 0.152000 0.351500
v -0.972000 0.000000 -0.354500
v -0.932000 0.000000 -0.354500
v -0.932000 0.000000 -0.314500
v -0.972000 0.000000 -0.314500
v -0.982000 0.152000 -0.304500
v -0.922000 0.152000 -0.304500
v -0.922000 0.152000 -0.364500
v -0.982000 0.152000 -0.364500
v -0.020000 0.000000 0.361500
v 0.020000 0.000000 0.361500
v 0.020000 0.000000 0.401500
v -0.020000 0.000000 0.401500
v -0.030000 0.152000 0.411500
v 0.030000 0.152000 0.411500
v 0.030000 0.152000 0.351500
v -0.030000 0.152000 0.351500
v -0.020000 0.000000 -0.354500
v 0.020000 0.000000 -0.354500
v 0.020000 0.000000 -0.314500
v -0.020000 0.000000 -0.314500
v -0.030000 0.152000 -0.304500
v 0.030000 0.152000 -0.304500
v 0.030000 0.152000 -0.364500
v -0.030000 0.152000 -0.364500
v 0.932000 0.000000 0.361500
v 0.972000 0.000000 0.361500
v 0.972000 0.000000 0.401500
v 0.932000 0.000000 0.401500
v 0.922000 0.152000 0.411500
v 0.982000 0.152000 0.411500
v 0.982000 0.152000 0.351500
v 0.922000 0.152000 0.351500
v 0.932000 0.000000 -0.354500
v 0.972000 0.000000 -0.354500
v 0.972000 0.000000 -0.314500
v 0.932000 0.000000 -0.314500
v 0.922000 0.152000 -0.304500
v 0.982000 0.152000 -0.304500
v 0.982000 0.152000 -0.364500
v 0.922000 0.152000 -0.364500
v -0.975742 0.152000 0.457163
v -1.010238 0.152000 0.447920
v -1.035491 0.152000 0.422667
v -1.044734 0.152000 0.388171
v -1.044734 0.152000 -0.341171
v -1.035491 0.152000 -0.375667
v -1.010238 0.152000 -0.400920
v -0.975742 0.152000 -0.410163
v 0.975742 0.152000 -0.410163
v 1.010238 0.152000 -0.400920
v 1.035491 0.152000 -0.375667
v 1.044734 0.152000 -0.341171
v 1.044734 0.152000 0.388171
v 1.035491 0.152000 0.422667
v 1.010238 0.152000 0.447920
v 0.975742 0.152000 0.457163
v 1.025000 0.172000 0.454122
v 0.990000 0.172000 0.463500
v 1.050622 0.172000 0.428500
v 1.060000 0.172000 0.393500
v 1.060000 0.172000 -0.346500
v 1.050622 0.172000 -0.381500
v 1.025000 0.172000 -0.407122
v 0.990000 0.172000 -0.416500
v -0.990000 0.172000 -0.416500
v -1.025000 0.172000 -0.407122
v -1.050622 0.172000 -0.381500
v -1.060000 0.172000 -0.346500
v -1.060000 0.172000 0.393500
v -1.050622 0.172000 0.428500
v -1.025000 0.172000 0.454122
v -0.990000 0.172000 0.463500
v 1.025000 0.348000 0.454122
v 0.990000 0.348000 0.463500
v 1.050622 0.348000 0.428500
v 1.060000 0.348000 0.393500
v 1.060000 0.348000 -0.346500
v 1.050622 0.348000 -0.381500
v 1.025000 0.348000 -0.407122
v 0.990000 0.348000 -0.416500
v -0.990000 0.348000 -0.416500
v -1.025000 0.348000 -0.407122
v -1.050622 0.348000 -0.381500
v -1.060000 0.348000 -0.346500
v -1.060000 0.348000 0.393500
v -1.050622 0.348000 0.428500
v -1.025000 0.348000 0.454122
v -0.990000 0.348000 0.463500
v 0.990000 0.356000 0.463500
v 1.025000 0.356000 0.454122
v 1.050622 0.356000 0.428500
v 1.060000 0.356000 0.393500
v 1.060000 0.356000 -0.346500
v 1.050622 0.356000 -0.381500
v 1.025000 0.356000 -0.407122
v 0.990000 0.356000 -0.416500
v -0.990000 0.356000 -0.416500
v -1.025000 0.356000 -0.407122
v -1.050622 0.356000 -0.381500
v -1.060000 0.356000 -0.346500
v -1.060000 0.356000 0.393500
v -1.050622 0.356000 0.428500
v -1.025000 0.356000 0.454122
v -0.990000 0.356000 0.463500
v -0.974000 0.326000 0.454500
v -0.959000 0.326000 0.450481
v -0.959000 0.576000 0.450481
v -0.974000 0.576000 0.454500
v -0.948019 0.326000 0.439500
v -0.948019 0.576000 0.439500
v -0.944000 0.326000 0.424500
v -0.944000 0.576000 0.424500
v -0.944000 0.326000 -0.361500
v -0.944000 0.576000 -0.361500
v -0.948019 0.326000 -0.376500
v -0.948019 0.576000 -0.376500
v -0.959000 0.326000 -0.387481
v -0.959000 0.576000 -0.387481
v -0.974000 0.326000 -0.391500
v -0.974000 0.576000 -0.391500
v -1.026000 0.326000 -0.391500
v -1.026000 0.576000 -0.391500
v -1.041000 0.326000 -0.387481
v -1.041000 0.576000 -0.387481
v -1.051981 0.326000 -0.376500
v -1.051981 0.576000 -0.376500
v -1.056000 0.326000 -0.361500
v -1.056000 0.576000 -0.361500
v -1.056000 0.326000 0.424500
v -1.056000 0.576000 0.424500
v -1.051981 0.326000 0.439500
v -1.051981 0.576000 0.439500
v -1.041000 0.326000 0.450481
v -1.041000 0.576000 0.450481
v -1.026000 0.326000 0.454500
v -1.026000 0.576000 0.454500
v -0.974881 0.596000 0.440170
v -0.960389 0.596000 0.436287
v -0.949780 0.596000 0.425678
v -0.945897 0.596000 0.411186
v -0.945897 0.596000 -0.348186
v -0.949780 0.596000 -0.362678
v -0.960389 0.596000 -0.373287
v -0.974881 0.596000 -0.377170
v -1.025119 0.596000 -0.377170
v -1.039611 0.596000 -0.373287
v -1.050220 0.596000 -0.362678
v -1.054103 0.596000 -0.348186
v -1.054103 0.596000 0.411186
v -1.050220 0.596000 0.425678
v -1.039611 0.596000 0.436287
v -1.025119 0.596000 0.440170
v 1.026000 0.326000 0.454500
v 1.041000 0.326000 0.450481
v 1.041000 0.576000 0.450481
v 1.026000 0.576000 0.454500
v 1.051981 0.326000 0.439500
v 1.051981 0.576000 0.439500
v 1.056000 0.326000 0.424500
v 1.056000 0.576000 0.424500
v 1.056000 0.326000 -0.361500
v 1.056000 0.576000 -0.361500
v 1.051981 0.326000 -0.376500
v 1.051981 0.576000 -0.376500
v 1.041000 0.326000 -0.387481
v 1.041000 0.576000 -0.387481
v 1.026000 0.326000 -0.391500
v 1.026000 0.576000 -0.391500
v 0.974000 0.326000 -0.391500
v 0.974000 0.576000 -0.391500
v 0.959000 0.326000 -0.387481
v 0.959000 0.576000 -0.387481
v 0.948019 0.326000 -0.376500
v 0.948019 0.576000 -0.376500
v 0.944000 0.326000 -0.361500
v 0.944000 0.576000 -0.361500
v 0.944000 0.326000 0.424500
v 0.944000 0.576000 0.424500
v 0.948019 0.326000 0.439500
v 0.948019 0.576000 0.439500
v 0.959000 0.326000 0.450481
v 0.959000 0.576000 0.450481
v 0.974000 0.326000 0.454500
v 0.974000 0.576000 0.454500
v 1.025119 0.596000 0.440170
v 1.039611 0.596000 0.436287
v 1.050220 0.596000 0.425678
v 1.054103 0.596000 0.411186
v 1.054103 0.596000 -0.348186
v 1.050220 0.596000 -0.362678
v 1.039611 0.596000 -0.373287
v 1.025119 0.596000 -0.377170
v 0.974881 0.596000 -0.377170
v 0.960389 0.596000 -0.373287
v 0.949780 0.596000 -0.362678
v 0.945897 0.596000 -0.348186
v 0.945897 0.596000 0.411186
v 0.949780 0.596000 0.425678
v 0.960389 0.596000 0.436287
v 0.974881 0.596000 0.440170
v 0.998000 0.326000 -0.266500
v 1.029000 0.326000 -0.274806
v 1.013000 0.758000 -0.333271
v 0.984000 0.758000 -0.325500
v 1.051694 0.326000 -0.297500
v 1.034230 0.758000 -0.354500
v 1.060000 0.326000 -0.328500
v 1.042000 0.758000 -0.383500
v 1.060000 0.326000 -0.354500
v 1.042000 0.758000 -0.405500
v 1.051694 0.326000 -0.385500
v 1.034230 0.758000 -0.434500
v 1.029000 0.326000 -0.408194
v 1.013000 0.758000 -0.455729
v 0.998000 0.326000 -0.416500
v 0.984000 0.758000 -0.463500
v -0.998000 0.326000 -0.416500
v -0.984000 0.758000 -0.463500
v -1.029000 0.326000 -0.408194
v -1.013000 0.758000 -0.455729
v -1.051694 0.326000 -0.385500
v -1.034230 0.758000 -0.434500
v -1.060000 0.326000 -0.354500
v -1.042000 0.758000 -0.405500
v -1.060000 0.326000 -0.328500
v -1.042000 0.758000 -0.383500
v -1.051694 0.326000 -0.297500
v -1.034230 0.758000 -0.354500
v -1.029000 0.326000 -0.274806
v -1.013000 0.758000 -0.333271
v -0.998000 0.326000 -0.266500
v -0.984000 0.758000 -0.325500
v 0.951187 0.806000 -0.327801
v 0.979219 0.806000 -0.335312
v 0.999741 0.806000 -0.355834
v 1.007252 0.806000 -0.383867
v 1.007252 0.806000 -0.405133
v 0.999741 0.806000 -0.433166
v 0.979219 0.806000 -0.453688
v 0.951187 0.806000 -0.461199
v -0.951187 0.806000 -0.461199
v -0.979219 0.806000 -0.453688
v -0.999741 0.806000 -0.433166
v -1.007252 0.806000 -0.405133
v -1.007252 0.806000 -0.383867
v -0.999741 0.806000 -0.355834
v -0.979219 0.806000 -0.335312
v -0.951187 0.806000 -0.327801
v -0.898413 0.356000 0.374614
v -0.925807 0.356000 0.367274
v -0.945861 0.356000 0.347220
v -0.953201 0.356000 0.319827
v -0.953201 0.356000 -0.192827
v -0.945861 0.356000 -0.220220
v -0.925807 0.356000 -0.240274
v -0.898413 0.356000 -0.247614
v -0.393587 0.356000 -0.247614
v -0.366193 0.356000 -0.240274
v -0.346139 0.356000 -0.220220
v -0.338799 0.356000 -0.192827
v -0.338799 0.356000 0.319827
v -0.346139 0.356000 0.347220
v -0.366193 0.356000 0.367274
v -0.393587 0.356000 0.374614
v -0.360000 0.365000 0.373997
v -0.388000 0.365000 0.381500
v -0.339503 0.365000 0.353500
v -0.332000 0.365000 0.325500
v -0.332000 0.365000 -0.198500
v -0.339503 0.365000 -0.226500
v -0.360000 0.365000 -0.246997
v -0.388000 0.365000 -0.254500
v -0.904000 0.365000 -0.254500
v -0.932000 0.365000 -0.246997
v -0.952497 0.365000 -0.226500
v -0.960000 0.365000 -0.198500
v -0.960000 0.365000 0.325500
v -0.952497 0.365000 0.353500
v -0.932000 0.365000 0.373997
v -0.904000 0.365000 0.381500
v -0.360000 0.405000 0.373997
v -0.388000 0.405000 0.381500
v -0.339503 0.405000 0.353500
v -0.332000 0.405000 0.325500
v -0.332000 0.405000 -0.198500
v -0.339503 0.405000 -0.226500
v -0.360000 0.405000 -0.246997
v -0.388000 0.405000 -0.254500
v -0.904000 0.405000 -0.254500
v -0.932000 0.405000 -0.246997
v -0.952497 0.405000 -0.226500
v -0.960000 0.405000 -0.198500
v -0.960000 0.405000 0.325500
v -0.952497 0.405000 0.353500
v -0.932000 0.405000 0.373997
v -0.904000 0.405000 0.381500
v -0.401035 0.420000 0.365433
v -0.374450 0.420000 0.358310
v -0.354988 0.420000 0.338848
v -0.347865 0.420000 0.312262
v -0.347865 0.420000 -0.185262
v -0.354988 0.420000 -0.211848
v -0.374450 0.420000 -0.231310
v -0.401035 0.420000 -0.238433
v -0.890965 0.420000 -0.238433
v -0.917550 0.420000 -0.231310
v -0.937012 0.420000 -0.211848
v -0.944135 0.420000 -0.185262
v -0.944135 0.420000 0.312262
v -0.937012 0.420000 0.338848
v -0.917550 0.420000 0.358310
v -0.890965 0.420000 0.365433
v -0.252413 0.356000 0.374614
v -0.279807 0.356000 0.367274
v -0.299861 0.356000 0.347220
v -0.307201 0.356000 0.319827
v -0.307201 0.356000 -0.192827
v -0.299861 0.356000 -0.220220
v -0.279807 0.356000 -0.240274
v -0.252413 0.356000 -0.247614
v 0.252413 0.356000 -0.247614
v 0.279807 0.356000 -0.240274
v 0.299861 0.356000 -0.220220
v 0.307201 0.356000 -0.192827
v 0.307201 0.356000 0.319827
v 0.299861 0.356000 0.347220
v 0.279807 0.356000 0.367274
v 0.252413 0.356000 0.374614
v 0.286000 0.365000 0.373997
v 0.258000 0.365000 0.381500
v 0.306497 0.365000 0.353500
v 0.314000 0.365000 0.325500
v 0.314000 0.365000 -0.198500
v 0.306497 0.365000 -0.226500
v 0.286000 0.365000 -0.246997
v 0.258000 0.365000 -0.254500
v -0.258000 0.365000 -0.254500
v -0.286000 0.365000 -0.246997
v -0.306497 0.365000 -0.226500
v -0.314000 0.365000 -0.198500
v -0.314000 0.365000 0.325500
v -0.306497 0.365000 0.353500
v -0.286000 0.365000 0.373997
v -0.258000 0.365000 0.381500
v 0.286000 0.405000 0.373997
v 0.258000 0.405000 0.381500
v 0.306497 0.405000 0.353500
v 0.314000 0.405000 0.325500
v 0.314000 0.405000 -0.198500
v 0.306497 0.405000 -0.226500
v 0.286000 0.405000 -0.246997
v 0.258000 0.405000 -0.254500
v -0.258000 0.405000 -0.254500
v -0.286000 0.405000 -0.246997
v -0.306497 0.405000 -0.226500
v -0.314000 0.405000 -0.198500
v -0.314000 0.405000 0.325500
v -0.306497 0.405000 0.353500
v -0.286000 0.405000 0.373997
v -0.258000 0.405000 0.381500
v 0.244965 0.420000 0.365433
v 0.271550 0.420000 0.358310
v 0.291012 0.420000 0.338848
v 0.298135 0.420000 0.312262
v 0.298135 0.420000 -0.185262
v 0.291012 0.420000 -0.211848
v 0.271550 0.420000 -0.231310
v 0.244965 0.420000 -0.238433
v -0.244965 0.420000 -0.238433
v -0.271550 0.420000 -0.231310
v -0.291012 0.420000 -0.211848
v -0.298135 0.420000 -0.185262
v -0.298135 0.420000 0.312262
v -0.291012 0.420000 0.338848
v -0.271550 0.420000 0.358310
v -0.244965 0.420000 0.365433
v 0.393587 0.356000 0.374614
v 0.366193 0.356000 0.367274
v 0.346139 0.356000 0.347220
v 0.338799 0.356000 0.319827
v 0.338799 0.356000 -0.192827
v 0.346139 0.356000 -0.220220
v 0.366193 0.356000 -0.240274
v 0.393587 0.356000 -0.247614
v 0.898413 0.356000 -0.247614
v 0.925807 0.356000 -0.240274
v 0.945861 0.356000 -0.220220
v 0.953201 0.356000 -0.192827
v 0.953201 0.356000 0.319827
v 0.945861 0.356000 0.347220
v 0.925807 0.356000 0.367274
v 0.898413 0.356000 0.374614
v 0.932000 0.365000 0.373997
v 0.904000 0.365000 0.381500
v 0.952497 0.365000 0.353500
v 0.960000 0.365000 0.325500
v 0.960000 0.365000 -0.198500
v 0.952497 0.365000 -0.226500
v 0.932000 0.365000 -0.246997
v 0.904000 0.365000 -0.254500
v 0.388000 0.365000 -0.254500
v 0.360000 0.365000 -0.246997
v 0.339503 0.365000 -0.226500
v 0.332000 0.365000 -0.198500
v 0.332000 0.365000 0.325500
v 0.339503 0.365000 0.353500
v 0.360000 0.365000 0.373997
v 0.388000 0.365000 0.381500
v 0.932000 0.405000 0.373997
v 0.904000 0.405000 0.381500
v 0.952497 0.405000 0.353500
v 0.960000 0.405000 0.325500
v 0.960000 0.405000 -0.198500
v 0.952497 0.405000 -0.226500
v 0.932000 0.405000 -0.246997
v 0.904000 0.405000 -0.254500
v 0.388000 0.405000 -0.254500
v 0.360000 0.405000 -0.246997
v 0.339503 0.405000 -0.226500
v 0.332000 0.405000 -0.198500
v 0.332000 0.405000 0.325500
v 0.339503 0.405000 0.353500
v 0.360000 0.405000 0.373997
v 0.388000 0.405000 0.381500
v 0.890965 0.420000 0.365433
v 0.917550 0.420000 0.358310
v 0.937012 0.420000 0.338848
v 0.944135 0.420000 0.312262
v 0.944135 0.420000 -0.185262
v 0.937012 0.420000 -0.211848
v 0.917550 0.420000 -0.231310
v 0.890965 0.420000 -0.238433
v 0.401035 0.420000 -0.238433
v 0.374450 0.420000 -0.231310
v 0.354988 0.420000 -0.211848
v 0.347865 0.420000 -0.185262
v 0.347865 0.420000 0.312262
v 0.354988 0.420000 0.338848
v 0.374450 0.420000 0.358310
v 0.401035 0.420000 0.365433
v -0.881613 0.416000 -0.139662
v -0.912513 0.416000 -0.147942
v -0.935134 0.416000 -0.170562
v -0.943413 0.416000 -0.201462
v -0.943413 0.416000 -0.255538
v -0.935134 0.416000 -0.286438
v -0.912513 0.416000 -0.309058
v -0.881613 0.416000 -0.317338
v -0.410387 0.416000 -0.317338
v -0.379487 0.416000 -0.309058
v -0.356866 0.416000 -0.286438
v -0.348586 0.416000 -0.255538
v -0.348586 0.416000 -0.201462
v -0.356866 0.416000 -0.170562
v -0.379487 0.416000 -0.147942
v -0.410387 0.416000 -0.139662
v -0.370000 0.430000 -0.145074
v -0.402000 0.430000 -0.136500
v -0.346574 0.430000 -0.168500
v -0.338000 0.430000 -0.200500
v -0.338000 0.430000 -0.256500
v -0.346574 0.430000 -0.288500
v -0.370000 0.430000 -0.311926
v -0.402000 0.430000 -0.320500
v -0.890000 0.430000 -0.320500
v -0.922000 0.430000 -0.311926
v -0.945426 0.430000 -0.288500
v -0.954000 0.430000 -0.256500
v -0.954000 0.430000 -0.200500
v -0.945426 0.430000 -0.168500
v -0.922000 0.430000 -0.145074
v -0.890000 0.430000 -0.136500
v -0.381000 0.716000 -0.205538
v -0.411000 0.716000 -0.197500
v -0.359038 0.716000 -0.227500
v -0.351000 0.716000 -0.257500
v -0.351000 0.716000 -0.307500
v -0.359038 0.716000 -0.337500
v -0.381000 0.716000 -0.359462
v -0.411000 0.716000 -0.367500
v -0.881000 0.716000 -0.367500
v -0.911000 0.716000 -0.359462
v -0.932962 0.716000 -0.337500
v -0.941000 0.716000 -0.307500
v -0.941000 0.716000 -0.257500
v -0.932962 0.716000 -0.227500
v -0.911000 0.716000 -0.205538
v -0.881000 0.716000 -0.197500
v -0.436312 0.744000 -0.206655
v -0.409543 0.744000 -0.213828
v -0.389947 0.744000 -0.233424
v -0.382775 0.744000 -0.260193
v -0.382775 0.744000 -0.304807
v -0.389947 0.744000 -0.331576
v -0.409543 0.744000 -0.351172
v -0.436312 0.744000 -0.358345
v -0.855688 0.744000 -0.358345
v -0.882457 0.744000 -0.351172
v -0.902053 0.744000 -0.331576
v -0.909225 0.744000 -0.304807
v -0.909225 0.744000 -0.260193
v -0.902053 0.744000 -0.233424
v -0.882457 0.744000 -0.213828
v -0.855688 0.744000 -0.206655
v -0.235613 0.416000 -0.139662
v -0.266513 0.416000 -0.147942
v -0.289134 0.416000 -0.170562
v -0.297414 0.416000 -0.201462
v -0.297414 0.416000 -0.255538
v -0.289134 0.416000 -0.286438
v -0.266513 0.416000 -0.309058
v -0.235613 0.416000 -0.317338
v 0.235613 0.416000 -0.317338
v 0.266513 0.416000 -0.309058
v 0.289134 0.416000 -0.286438
v 0.297414 0.416000 -0.255538
v 0.297414 0.416000 -0.201462
v 0.289134 0.416000 -0.170562
v 0.266513 0.416000 -0.147942
v 0.235613 0.416000 -0.139662
v 0.276000 0.430000 -0.145074
v 0.244000 0.430000 -0.136500
v 0.299426 0.430000 -0.168500
v 0.308000 0.430000 -0.200500
v 0.308000 0.430000 -0.256500
v 0.299426 0.430000 -0.288500
v 0.276000 0.430000 -0.311926
v 0.244000 0.430000 -0.320500
v -0.244000 0.430000 -0.320500
v -0.276000 0.430000 -0.311926
v -0.299426 0.430000 -0.288500
v -0.308000 0.430000 -0.256500
v -0.308000 0.430000 -0.200500
v -0.299426 0.430000 -0.168500
v -0.276000 0.430000 -0.145074
v -0.244000 0.430000 -0.136500
v 0.265000 0.716000 -0.205538
v 0.235000 0.716000 -0.197500
v 0.286962 0.716000 -0.227500
v 0.295000 0.716000 -0.257500
v 0.295000 0.716000 -0.307500
v 0.286962 0.716000 -0.337500
v 0.265000 0.716000 -0.359462
v 0.235000 0.716000 -0.367500
v -0.235000 0.716000 -0.367500
v -0.265000 0.716000 -0.359462
v -0.286962 0.716000 -0.337500
v -0.295000 0.716000 -0.307500
v -0.295000 0.716000 -0.257500
v -0.286962 0.716000 -0.227500
v -0.265000 0.716000 -0.205538
v -0.235000 0.716000 -0.197500
v 0.209688 0.744000 -0.206655
v 0.236457 0.744000 -0.213828
v 0.256053 0.744000 -0.233424
v 0.263225 0.744000 -0.260193
v 0.263225 0.744000 -0.304807
v 0.256053 0.744000 -0.331576
v 0.236457 0.744000 -0.351172
v 0.209688 0.744000 -0.358345
v -0.209688 0.744000 -0.358345
v -0.236457 0.744000 -0.351172
v -0.256053 0.744000 -0.331576
v -0.263225 0.744000 -0.304807
v -0.263225 0.744000 -0.260193
v -0.256053 0.744000 -0.233424
v -0.236457 0.744000 -0.213828
v -0.209688 0.744000 -0.206655
v 0.410387 0.416000 -0.139662
v 0.379487 0.416000 -0.147942
v 0.356866 0.416000 -0.170562
v 0.348586 0.416000 -0.201462
v 0.348586 0.416000 -0.255538
v 0.356866 0.416000 -0.286438
v 0.379487 0.416000 -0.309058
v 0.410387 0.416000 -0.317338
v 0.881613 0.416000 -0.317338
v 0.912513 0.416000 -0.309058
v 0.935134 0.416000 -0.286438
v 0.943413 0.416000 -0.255538
v 0.943413 0.416000 -0.201462
v 0.935134 0.416000 -0.170562
v 0.912513 0.416000 -0.147942
v 0.881613 0.416000 -0.139662
v 0.922000 0.430000 -0.145074
v 0.890000 0.430000 -0.136500
v 0.945426 0.430000 -0.168500
v 0.954000 0.430000 -0.200500
v 0.954000 0.430000 -0.256500
v 0.945426 0.430000 -0.288500
v 0.922000 0.430000 -0.311926
v 0.890000 0.430000 -0.320500
v 0.402000 0.430000 -0.320500
v 0.370000 0.430000 -0.311926
v 0.346574 0.430000 -0.288500
v 0.338000 0.430000 -0.256500
v 0.338000 0.430000 -0.200500
v 0.346574 0.430000 -0.168500
v 0.370000 0.430000 -0.145074
v 0.402000 0.430000 -0.136500
v 0.911000 0.716000 -0.205538
v 0.881000 0.716000 -0.197500
v 0.932962 0.716000 -0.227500
v 0.941000 0.716000 -0.257500
v 0.941000 0.716000 -0.307500
v 0.932962 0.716000 -0.337500
v 0.911000 0.716000 -0.359462
v 0.881000 0.716000 -0.367500
v 0.411000 0.716000 -0.367500
v 0.381000 0.716000 -0.359462
v 0.359038 0.716000 -0.337500
v 0.351000 0.716000 -0.307500
v 0.351000 0.716000 -0.257500
v 0.359038 0.716000 -0.227500
v 0.381000 0.716000 -0.205538
v 0.411000 0.716000 -0.197500
v 0.855688 0.744000 -0.206655
v 0.882457 0.744000 -0.213828
v 0.902053 0.744000 -0.233424
v 0.909225 0.744000 -0.260193
v 0.909225 0.744000 -0.304807
v 0.902053 0.744000 -0.331576
v 0.882457 0.744000 -0.351172
v 0.855688 0.744000 -0.358345
v 0.436312 0.744000 -0.358345
v 0.409543 0.744000 -0.351172
v 0.389947 0.744000 -0.331576
v 0.382775 0.744000 -0.304807
v 0.382775 0.744000 -0.260193
v 0.389947 0.744000 -0.233424
v 0.409543 0.744000 -0.213828
v 0.436312 0.744000 -0.206655
vn -0.0000 -1.0000 -0.0000
vn -0.0000 1.0000 -0.0000
vn -0.0000 -0.0656 0.9978
vn 0.9978 -0.0656 -0.0000
vn -0.0000 -0.0656 -0.9978
vn -0.9978 -0.0656 -0.0000
vn 0.2324 -0.4404 0.8672
vn 0.5681 -0.5955 0.5681
vn 0.7520 -0.6277 0.2015
vn 0.7949 -0.6067 -0.0000
vn 0.7520 -0.6277 -0.2015
vn 0.5681 -0.5955 -0.5681
vn 0.2324 -0.4404 -0.8672
vn -0.0000 -0.3020 -0.9533
vn -0.2324 -0.4404 -0.8672
vn -0.5681 -0.5955 -0.5681
vn -0.7520 -0.6277 -0.2015
vn -0.7949 -0.6067 -0.0000
vn -0.7520 -0.6277 0.2015
vn -0.5681 -0.5955 0.5681
vn -0.2324 -0.4404 0.8672
vn -0.0000 -0.3020 0.9533
vn 0.2588 -0.0000 0.9659
vn 0.7071 -0.0000 0.7071
vn 0.9659 -0.0000 0.2588
vn 1.0000 -0.0000 -0.0000
vn 0.9659 -0.0000 -0.2588
vn 0.7071 -0.0000 -0.7071
vn 0.2588 -0.0000 -0.9659
vn -0.0000 -0.0000 -1.0000
vn -0.2588 -0.0000 -0.9659
vn -0.7071 -0.0000 -0.7071
vn -0.9659 -0.0000 -0.2588
vn -1.0000 -0.0000 -0.0000
vn -0.9659 -0.0000 0.2588
vn -0.7071 -0.0000 0.7071
vn -0.2588 -0.0000 0.9659
vn -0.0000 -0.0000 1.0000
vn 0.2117 0.5754 0.7900
vn 0.6193 0.4825 0.6193
vn 0.9339 0.2552 0.2503
vn 0.9955 0.0944 -0.0000
vn 0.9339 0.2552 -0.2503
vn 0.6193 0.4825 -0.6193
vn 0.2117 0.5754 -0.7900
vn -0.0000 0.5824 -0.8129
vn -0.2117 0.5754 -0.7900
vn -0.6193 0.4825 -0.6193
vn -0.9339 0.2552 -0.2503
vn -0.9955 0.0944 -0.0000
vn -0.9339 0.2552 0.2503
vn -0.6193 0.4825 0.6193
vn -0.2117 0.5754 0.7900
vn -0.0000 0.5824 0.8129
vn 0.2563 0.1389 0.9566
vn 0.7019 0.1210 0.7019
vn 0.9633 0.0730 0.2581
vn 0.9991 0.0416 -0.0000
vn 0.9659 0.0097 -0.2588
vn 0.7062 -0.0515 -0.7062
vn 0.2576 -0.0963 -0.9614
vn -0.0000 -0.1082 -0.9941
vn -0.2576 -0.0963 -0.9614
vn -0.7062 -0.0515 -0.7062
vn -0.9659 0.0097 -0.2588
vn -0.9991 0.0416 -0.0000
vn -0.9633 0.0730 0.2581
vn -0.7019 0.1210 0.7019
vn -0.2563 0.1389 0.9566
vn -0.0000 0.1353 0.9908
vn 0.2526 0.2179 0.9427
vn 0.6254 0.4667 0.6254
vn 0.7909 0.5741 0.2119
vn 0.8100 0.5864 -0.0000
vn 0.7909 0.5741 -0.2119
vn 0.6254 0.4667 -0.6254
vn 0.2526 0.2179 -0.9427
vn -0.0000 0.0479 -0.9989
vn -0.2526 0.2179 -0.9427
vn -0.6254 0.4667 -0.6254
vn -0.7909 0.5741 -0.2119
vn -0.8100 0.5864 -0.0000
vn -0.7909 0.5741 0.2119
vn -0.6254 0.4667 0.6254
vn -0.2526 0.2179 0.9427
vn -0.0000 0.0479 0.9989
vn 0.1924 -0.6688 0.7181
vn 0.4963 -0.7123 0.4963
vn 0.7205 -0.6660 0.1931
vn 0.7979 -0.6028 -0.0000
vn 0.7205 -0.6660 -0.1931
vn 0.4963 -0.7123 -0.4963
vn 0.1924 -0.6688 -0.7181
vn -0.0000 -0.6076 -0.7942
vn -0.1924 -0.6688 -0.7181
vn -0.4963 -0.7123 -0.4963
vn -0.7205 -0.6660 -0.1931
vn -0.7979 -0.6028 -0.0000
vn -0.7205 -0.6660 0.1931
vn -0.4963 -0.7123 0.4963
vn -0.1924 -0.6688 0.7181
vn -0.0000 -0.6076 0.7942
vn 0.1609 0.7832 0.6006
vn 0.4070 0.8177 0.4070
vn 0.6034 0.7809 0.1617
vn 0.6870 0.7266 -0.0000
vn 0.6034 0.7809 -0.1617
vn 0.4070 0.8177 -0.4070
vn 0.1609 0.7832 -0.6006
vn -0.0000 0.7310 -0.6824
vn -0.1609 0.7832 -0.6006
vn -0.4070 0.8177 -0.4070
vn -0.6034 0.7809 -0.1617
vn -0.6870 0.7266 -0.0000
vn -0.6034 0.7809 0.1617
vn -0.4070 0.8177 0.4070
vn -0.1609 0.7832 0.6006
vn -0.0000 0.7310 0.6824
vn 0.2425 -0.3497 0.9050
vn 0.5999 -0.5294 0.5999
vn 0.7734 -0.5991 0.2072
vn 0.7976 -0.6031 -0.0000
vn 0.7734 -0.5991 -0.2072
vn 0.5999 -0.5294 -0.5999
vn 0.2425 -0.3497 -0.9050
vn -0.0000 -0.2203 -0.9754
vn -0.2425 -0.3497 -0.9050
vn -0.5999 -0.5294 -0.5999
vn -0.7734 -0.5991 -0.2072
vn -0.7976 -0.6031 -0.0000
vn -0.7734 -0.5991 0.2072
vn -0.5999 -0.5294 0.5999
vn -0.2425 -0.3497 0.9050
vn -0.0000 -0.2203 0.9754
vn 0.2531 0.2094 0.9445
vn 0.6963 0.1740 0.6963
vn 0.9616 0.0951 0.2576
vn 0.9990 0.0454 -0.0000
vn 0.9659 -0.0022 -0.2588
vn 0.7042 -0.0900 -0.7042
vn 0.2559 -0.1489 -0.9552
vn -0.0000 -0.1622 -0.9868
vn -0.2559 -0.1489 -0.9552
vn -0.7042 -0.0900 -0.7042
vn -0.9659 -0.0022 -0.2588
vn -0.9990 0.0454 -0.0000
vn -0.9616 0.0951 0.2576
vn -0.6963 0.1740 0.6963
vn -0.2531 0.2094 0.9445
vn -0.0000 0.2086 0.9780
vn 0.2268 0.4818 0.8464
vn 0.5177 0.6811 0.5177
vn 0.6430 0.7462 0.1723
vn 0.6611 0.7503 -0.0000
vn 0.6430 0.7462 -0.1723
vn 0.5177 0.6811 -0.5178
vn 0.2268 0.4818 -0.8464
vn -0.0000 0.3108 -0.9505
vn -0.2268 0.4818 -0.8464
vn -0.5177 0.6811 -0.5177
vn -0.6430 0.7462 -0.1723
vn -0.6611 0.7503 -0.0000
vn -0.6430 0.7462 0.1723
vn -0.5177 0.6811 0.5177
vn -0.2268 0.4818 0.8464
vn -0.0000 0.3108 0.9505
vn 0.5177 0.6811 -0.5177
vn -0.5177 0.6811 -0.5178
vt 0.687500 0.937500
vt 0.812500 0.562500
vt 0.937500 0.687500
vt 0.312500 0.687500
s 0
usemtl FN_Atlas
f 1/1/1 2/1/1 3/1/1 4/1/1
f 5/1/2 6/1/2 7/1/2 8/1/2
f 4/1/3 3/1/3 6/1/3 5/1/3
f 3/1/4 2/1/4 7/1/4 6/1/4
f 2/1/5 1/1/5 8/1/5 7/1/5
f 1/1/6 4/1/6 5/1/6 8/1/6
f 9/1/1 10/1/1 11/1/1 12/1/1
f 13/1/2 14/1/2 15/1/2 16/1/2
f 12/1/3 11/1/3 14/1/3 13/1/3
f 11/1/4 10/1/4 15/1/4 14/1/4
f 10/1/5 9/1/5 16/1/5 15/1/5
f 9/1/6 12/1/6 13/1/6 16/1/6
f 17/1/1 18/1/1 19/1/1 20/1/1
f 21/1/2 22/1/2 23/1/2 24/1/2
f 20/1/3 19/1/3 22/1/3 21/1/3
f 19/1/4 18/1/4 23/1/4 22/1/4
f 18/1/5 17/1/5 24/1/5 23/1/5
f 17/1/6 20/1/6 21/1/6 24/1/6
f 25/1/1 26/1/1 27/1/1 28/1/1
f 29/1/2 30/1/2 31/1/2 32/1/2
f 28/1/3 27/1/3 30/1/3 29/1/3
f 27/1/4 26/1/4 31/1/4 30/1/4
f 26/1/5 25/1/5 32/1/5 31/1/5
f 25/1/6 28/1/6 29/1/6 32/1/6
f 33/1/1 34/1/1 35/1/1 36/1/1
f 37/1/2 38/1/2 39/1/2 40/1/2
f 36/1/3 35/1/3 38/1/3 37/1/3
f 35/1/4 34/1/4 39/1/4 38/1/4
f 34/1/5 33/1/5 40/1/5 39/1/5
f 33/1/6 36/1/6 37/1/6 40/1/6
f 41/1/1 42/1/1 43/1/1 44/1/1
f 45/1/2 46/1/2 47/1/2 48/1/2
f 44/1/3 43/1/3 46/1/3 45/1/3
f 43/1/4 42/1/4 47/1/4 46/1/4
f 42/1/5 41/1/5 48/1/5 47/1/5
f 41/1/6 44/1/6 45/1/6 48/1/6
f 49/2/1 50/2/1 51/2/1 52/2/1 53/2/1 54/2/1 55/2/1 56/2/1 57/2/1 58/2/1 59/2/1 60/2/1 61/2/1 62/2/1 63/2/1 64/2/1
f 64/2/7 63/2/7 65/2/7 66/2/7
f 63/2/8 62/2/8 67/2/8 65/2/8
f 62/2/9 61/2/9 68/2/9 67/2/9
f 61/2/10 60/2/10 69/2/10 68/2/10
f 60/2/11 59/2/11 70/2/11 69/2/11
f 59/2/12 58/2/12 71/2/12 70/2/12
f 58/2/13 57/2/13 72/2/13 71/2/13
f 57/2/14 56/2/14 73/2/14 72/2/14
f 56/2/15 55/2/15 74/2/15 73/2/15
f 55/2/16 54/2/16 75/2/16 74/2/16
f 54/2/17 53/2/17 76/2/17 75/2/17
f 53/2/18 52/2/18 77/2/18 76/2/18
f 52/2/19 51/2/19 78/2/19 77/2/19
f 51/2/20 50/2/20 79/2/20 78/2/20
f 50/2/21 49/2/21 80/2/21 79/2/21
f 49/2/22 64/2/22 66/2/22 80/2/22
f 66/2/23 65/2/23 81/2/23 82/2/23
f 65/2/24 67/2/24 83/2/24 81/2/24
f 67/2/25 68/2/25 84/2/25 83/2/25
f 68/2/26 69/2/26 85/2/26 84/2/26
f 69/2/27 70/2/27 86/2/27 85/2/27
f 70/2/28 71/2/28 87/2/28 86/2/28
f 71/2/29 72/2/29 88/2/29 87/2/29
f 72/2/30 73/2/30 89/2/30 88/2/30
f 73/2/31 74/2/31 90/2/31 89/2/31
f 74/2/32 75/2/32 91/2/32 90/2/32
f 75/2/33 76/2/33 92/2/33 91/2/33
f 76/2/34 77/2/34 93/2/34 92/2/34
f 77/2/35 78/2/35 94/2/35 93/2/35
f 78/2/36 79/2/36 95/2/36 94/2/36
f 79/2/37 80/2/37 96/2/37 95/2/37
f 80/2/38 66/2/38 82/2/38 96/2/38
f 97/3/2 98/3/2 99/3/2 100/3/2 101/3/2 102/3/2 103/3/2 104/3/2 105/3/2 106/3/2 107/3/2 108/3/2 109/3/2 110/3/2 111/3/2 112/3/2
f 82/3/23 81/3/23 98/3/23 97/3/23
f 81/3/24 83/3/24 99/3/24 98/3/24
f 83/3/25 84/3/25 100/3/25 99/3/25
f 84/3/26 85/3/26 101/3/26 100/3/26
f 85/3/27 86/3/27 102/3/27 101/3/27
f 86/3/28 87/3/28 103/3/28 102/3/28
f 87/3/29 88/3/29 104/3/29 103/3/29
f 88/3/30 89/3/30 105/3/30 104/3/30
f 89/3/31 90/3/31 106/3/31 105/3/31
f 90/3/32 91/3/32 107/3/32 106/3/32
f 91/3/33 92/3/33 108/3/33 107/3/33
f 92/3/34 93/3/34 109/3/34 108/3/34
f 93/3/35 94/3/35 110/3/35 109/3/35
f 94/3/36 95/3/36 111/3/36 110/3/36
f 95/3/37 96/3/37 112/3/37 111/3/37
f 96/3/38 82/3/38 97/3/38 112/3/38
f 113/2/23 114/2/23 115/2/23 116/2/23
f 114/2/24 117/2/24 118/2/24 115/2/24
f 117/2/25 119/2/25 120/2/25 118/2/25
f 119/2/26 121/2/26 122/2/26 120/2/26
f 121/2/27 123/2/27 124/2/27 122/2/27
f 123/2/28 125/2/28 126/2/28 124/2/28
f 125/2/29 127/2/29 128/2/29 126/2/29
f 127/2/30 129/2/30 130/2/30 128/2/30
f 129/2/31 131/2/31 132/2/31 130/2/31
f 131/2/32 133/2/32 134/2/32 132/2/32
f 133/2/33 135/2/33 136/2/33 134/2/33
f 135/2/34 137/2/34 138/2/34 136/2/34
f 137/2/35 139/2/35 140/2/35 138/2/35
f 139/2/36 141/2/36 142/2/36 140/2/36
f 141/2/37 143/2/37 144/2/37 142/2/37
f 143/2/38 113/2/38 116/2/38 144/2/38
f 145/2/2 146/2/2 147/2/2 148/2/2 149/2/2 150/2/2 151/2/2 152/2/2 153/2/2 154/2/2 155/2/2 156/2/2 157/2/2 158/2/2 159/2/2 160/2/2
f 116/2/39 115/2/39 146/2/39 145/2/39
f 115/2/40 118/2/40 147/2/40 146/2/40
f 118/2/41 120/2/41 148/2/41 147/2/41
f 120/2/42 122/2/42 149/2/42 148/2/42
f 122/2/43 124/2/43 150/2/43 149/2/43
f 124/2/44 126/2/44 151/2/44 150/2/44
f 126/2/45 128/2/45 152/2/45 151/2/45
f 128/2/46 130/2/46 153/2/46 152/2/46
f 130/2/47 132/2/47 154/2/47 153/2/47
f 132/2/48 134/2/48 155/2/48 154/2/48
f 134/2/49 136/2/49 156/2/49 155/2/49
f 136/2/50 138/2/50 157/2/50 156/2/50
f 138/2/51 140/2/51 158/2/51 157/2/51
f 140/2/52 142/2/52 159/2/52 158/2/52
f 142/2/53 144/2/53 160/2/53 159/2/53
f 144/2/54 116/2/54 145/2/54 160/2/54
f 161/2/23 162/2/23 163/2/23 164/2/23
f 162/2/24 165/2/24 166/2/24 163/2/24
f 165/2/25 167/2/25 168/2/25 166/2/25
f 167/2/26 169/2/26 170/2/26 168/2/26
f 169/2/27 171/2/27 172/2/27 170/2/27
f 171/2/28 173/2/28 174/2/28 172/2/28
f 173/2/29 175/2/29 176/2/29 174/2/29
f 175/2/30 177/2/30 178/2/30 176/2/30
f 177/2/31 179/2/31 180/2/31 178/2/31
f 179/2/32 181/2/32 182/2/32 180/2/32
f 181/2/33 183/2/33 184/2/33 182/2/33
f 183/2/34 185/2/34 186/2/34 184/2/34
f 185/2/35 187/2/35 188/2/35 186/2/35
f 187/2/36 189/2/36 190/2/36 188/2/36
f 189/2/37 191/2/37 192/2/37 190/2/37
f 191/2/38 161/2/38 164/2/38 192/2/38
f 193/2/2 194/2/2 195/2/2 196/2/2 197/2/2 198/2/2 199/2/2 200/2/2 201/2/2 202/2/2 203/2/2 204/2/2 205/2/2 206/2/2 207/2/2 208/2/2
f 164/2/39 163/2/39 194/2/39 193/2/39
f 163/2/40 166/2/40 195/2/40 194/2/40
f 166/2/41 168/2/41 196/2/41 195/2/41
f 168/2/42 170/2/42 197/2/42 196/2/42
f 170/2/43 172/2/43 198/2/43 197/2/43
f 172/2/44 174/2/44 199/2/44 198/2/44
f 174/2/45 176/2/45 200/2/45 199/2/45
f 176/2/46 178/2/46 201/2/46 200/2/46
f 178/2/47 180/2/47 202/2/47 201/2/47
f 180/2/48 182/2/48 203/2/48 202/2/48
f 182/2/49 184/2/49 204/2/49 203/2/49
f 184/2/50 186/2/50 205/2/50 204/2/50
f 186/2/51 188/2/51 206/2/51 205/2/51
f 188/2/52 190/2/52 207/2/52 206/2/52
f 190/2/53 192/2/53 208/2/53 207/2/53
f 192/2/54 164/2/54 193/2/54 208/2/54
f 209/2/55 210/2/55 211/2/55 212/2/55
f 210/2/56 213/2/56 214/2/56 211/2/56
f 213/2/57 215/2/57 216/2/57 214/2/57
f 215/2/58 217/2/58 218/2/58 216/2/58
f 217/2/59 219/2/59 220/2/59 218/2/59
f 219/2/60 221/2/60 222/2/60 220/2/60
f 221/2/61 223/2/61 224/2/61 222/2/61
f 223/2/62 225/2/62 226/2/62 224/2/62
f 225/2/63 227/2/63 228/2/63 226/2/63
f 227/2/64 229/2/64 230/2/64 228/2/64
f 229/2/65 231/2/65 232/2/65 230/2/65
f 231/2/66 233/2/66 234/2/66 232/2/66
f 233/2/67 235/2/67 236/2/67 234/2/67
f 235/2/68 237/2/68 238/2/68 236/2/68
f 237/2/69 239/2/69 240/2/69 238/2/69
f 239/2/70 209/2/70 212/2/70 240/2/70
f 241/2/2 242/2/2 243/2/2 244/2/2 245/2/2 246/2/2 247/2/2 248/2/2 249/2/2 250/2/2 251/2/2 252/2/2 253/2/2 254/2/2 255/2/2 256/2/2
f 212/2/71 211/2/71 242/2/71 241/2/71
f 211/2/72 214/2/72 243/2/72 242/2/72
f 214/2/73 216/2/73 244/2/73 243/2/73
f 216/2/74 218/2/74 245/2/74 244/2/74
f 218/2/75 220/2/75 246/2/75 245/2/75
f 220/2/76 222/2/76 247/2/76 246/2/76
f 222/2/77 224/2/77 248/2/77 247/2/77
f 224/2/78 226/2/78 249/2/78 248/2/78
f 226/2/79 228/2/79 250/2/79 249/2/79
f 228/2/80 230/2/80 251/2/80 250/2/80
f 230/2/81 232/2/81 252/2/81 251/2/81
f 232/2/82 234/2/82 253/2/82 252/2/82
f 234/2/83 236/2/83 254/2/83 253/2/83
f 236/2/84 238/2/84 255/2/84 254/2/84
f 238/2/85 240/2/85 256/2/85 255/2/85
f 240/2/86 212/2/86 241/2/86 256/2/86
f 257/4/1 258/4/1 259/4/1 260/4/1 261/4/1 262/4/1 263/4/1 264/4/1 265/4/1 266/4/1 267/4/1 268/4/1 269/4/1 270/4/1 271/4/1 272/4/1
f 272/4/87 271/4/87 273/4/87 274/4/87
f 271/4/88 270/4/88 275/4/88 273/4/88
f 270/4/89 269/4/89 276/4/89 275/4/89
f 269/4/90 268/4/90 277/4/90 276/4/90
f 268/4/91 267/4/91 278/4/91 277/4/91
f 267/4/92 266/4/92 279/4/92 278/4/92
f 266/4/93 265/4/93 280/4/93 279/4/93
f 265/4/94 264/4/94 281/4/94 280/4/94
f 264/4/95 263/4/95 282/4/95 281/4/95
f 263/4/96 262/4/96 283/4/96 282/4/96
f 262/4/97 261/4/97 284/4/97 283/4/97
f 261/4/98 260/4/98 285/4/98 284/4/98
f 260/4/99 259/4/99 286/4/99 285/4/99
f 259/4/100 258/4/100 287/4/100 286/4/100
f 258/4/101 257/4/101 288/4/101 287/4/101
f 257/4/102 272/4/102 274/4/102 288/4/102
f 274/4/23 273/4/23 289/4/23 290/4/23
f 273/4/24 275/4/24 291/4/24 289/4/24
f 275/4/25 276/4/25 292/4/25 291/4/25
f 276/4/26 277/4/26 293/4/26 292/4/26
f 277/4/27 278/4/27 294/4/27 293/4/27
f 278/4/28 279/4/28 295/4/28 294/4/28
f 279/4/29 280/4/29 296/4/29 295/4/29
f 280/4/30 281/4/30 297/4/30 296/4/30
f 281/4/31 282/4/31 298/4/31 297/4/31
f 282/4/32 283/4/32 299/4/32 298/4/32
f 283/4/33 284/4/33 300/4/33 299/4/33
f 284/4/34 285/4/34 301/4/34 300/4/34
f 285/4/35 286/4/35 302/4/35 301/4/35
f 286/4/36 287/4/36 303/4/36 302/4/36
f 287/4/37 288/4/37 304/4/37 303/4/37
f 288/4/38 274/4/38 290/4/38 304/4/38
f 305/4/2 306/4/2 307/4/2 308/4/2 309/4/2 310/4/2 311/4/2 312/4/2 313/4/2 314/4/2 315/4/2 316/4/2 317/4/2 318/4/2 319/4/2 320/4/2
f 290/4/103 289/4/103 306/4/103 305/4/103
f 289/4/104 291/4/104 307/4/104 306/4/104
f 291/4/105 292/4/105 308/4/105 307/4/105
f 292/4/106 293/4/106 309/4/106 308/4/106
f 293/4/107 294/4/107 310/4/107 309/4/107
f 294/4/108 295/4/108 311/4/108 310/4/108
f 295/4/109 296/4/109 312/4/109 311/4/109
f 296/4/110 297/4/110 313/4/110 312/4/110
f 297/4/111 298/4/111 314/4/111 313/4/111
f 298/4/112 299/4/112 315/4/112 314/4/112
f 299/4/113 300/4/113 316/4/113 315/4/113
f 300/4/114 301/4/114 317/4/114 316/4/114
f 301/4/115 302/4/115 318/4/115 317/4/115
f 302/4/116 303/4/116 319/4/116 318/4/116
f 303/4/117 304/4/117 320/4/117 319/4/117
f 304/4/118 290/4/118 305/4/118 320/4/118
f 321/4/1 322/4/1 323/4/1 324/4/1 325/4/1 326/4/1 327/4/1 328/4/1 329/4/1 330/4/1 331/4/1 332/4/1 333/4/1 334/4/1 335/4/1 336/4/1
f 336/4/87 335/4/87 337/4/87 338/4/87
f 335/4/88 334/4/88 339/4/88 337/4/88
f 334/4/89 333/4/89 340/4/89 339/4/89
f 333/4/90 332/4/90 341/4/90 340/4/90
f 332/4/91 331/4/91 342/4/91 341/4/91
f 331/4/92 330/4/92 343/4/92 342/4/92
f 330/4/93 329/4/93 344/4/93 343/4/93
f 329/4/94 328/4/94 345/4/94 344/4/94
f 328/4/95 327/4/95 346/4/95 345/4/95
f 327/4/96 326/4/96 347/4/96 346/4/96
f 326/4/97 325/4/97 348/4/97 347/4/97
f 325/4/98 324/4/98 349/4/98 348/4/98
f 324/4/99 323/4/99 350/4/99 349/4/99
f 323/4/100 322/4/100 351/4/100 350/4/100
f 322/4/101 321/4/101 352/4/101 351/4/101
f 321/4/102 336/4/102 338/4/102 352/4/102
f 338/4/23 337/4/23 353/4/23 354/4/23
f 337/4/24 339/4/24 355/4/24 353/4/24
f 339/4/25 340/4/25 356/4/25 355/4/25
f 340/4/26 341/4/26 357/4/26 356/4/26
f 341/4/27 342/4/27 358/4/27 357/4/27
f 342/4/28 343/4/28 359/4/28 358/4/28
f 343/4/29 344/4/29 360/4/29 359/4/29
f 344/4/30 345/4/30 361/4/30 360/4/30
f 345/4/31 346/4/31 362/4/31 361/4/31
f 346/4/32 347/4/32 363/4/32 362/4/32
f 347/4/33 348/4/33 364/4/33 363/4/33
f 348/4/34 349/4/34 365/4/34 364/4/34
f 349/4/35 350/4/35 366/4/35 365/4/35
f 350/4/36 351/4/36 367/4/36 366/4/36
f 351/4/37 352/4/37 368/4/37 367/4/37
f 352/4/38 338/4/38 354/4/38 368/4/38
f 369/4/2 370/4/2 371/4/2 372/4/2 373/4/2 374/4/2 375/4/2 376/4/2 377/4/2 378/4/2 379/4/2 380/4/2 381/4/2 382/4/2 383/4/2 384/4/2
f 354/4/103 353/4/103 370/4/103 369/4/103
f 353/4/104 355/4/104 371/4/104 370/4/104
f 355/4/105 356/4/105 372/4/105 371/4/105
f 356/4/106 357/4/106 373/4/106 372/4/106
f 357/4/107 358/4/107 374/4/107 373/4/107
f 358/4/108 359/4/108 375/4/108 374/4/108
f 359/4/109 360/4/109 376/4/109 375/4/109
f 360/4/110 361/4/110 377/4/110 376/4/110
f 361/4/111 362/4/111 378/4/111 377/4/111
f 362/4/112 363/4/112 379/4/112 378/4/112
f 363/4/113 364/4/113 380/4/113 379/4/113
f 364/4/114 365/4/114 381/4/114 380/4/114
f 365/4/115 366/4/115 382/4/115 381/4/115
f 366/4/116 367/4/116 383/4/116 382/4/116
f 367/4/117 368/4/117 384/4/117 383/4/117
f 368/4/118 354/4/118 369/4/118 384/4/118
f 385/4/1 386/4/1 387/4/1 388/4/1 389/4/1 390/4/1 391/4/1 392/4/1 393/4/1 394/4/1 395/4/1 396/4/1 397/4/1 398/4/1 399/4/1 400/4/1
f 400/4/87 399/4/87 401/4/87 402/4/87
f 399/4/88 398/4/88 403/4/88 401/4/88
f 398/4/89 397/4/89 404/4/89 403/4/89
f 397/4/90 396/4/90 405/4/90 404/4/90
f 396/4/91 395/4/91 406/4/91 405/4/91
f 395/4/92 394/4/92 407/4/92 406/4/92
f 394/4/93 393/4/93 408/4/93 407/4/93
f 393/4/94 392/4/94 409/4/94 408/4/94
f 392/4/95 391/4/95 410/4/95 409/4/95
f 391/4/96 390/4/96 411/4/96 410/4/96
f 390/4/97 389/4/97 412/4/97 411/4/97
f 389/4/98 388/4/98 413/4/98 412/4/98
f 388/4/99 387/4/99 414/4/99 413/4/99
f 387/4/100 386/4/100 415/4/100 414/4/100
f 386/4/101 385/4/101 416/4/101 415/4/101
f 385/4/102 400/4/102 402/4/102 416/4/102
f 402/4/23 401/4/23 417/4/23 418/4/23
f 401/4/24 403/4/24 419/4/24 417/4/24
f 403/4/25 404/4/25 420/4/25 419/4/25
f 404/4/26 405/4/26 421/4/26 420/4/26
f 405/4/27 406/4/27 422/4/27 421/4/27
f 406/4/28 407/4/28 423/4/28 422/4/28
f 407/4/29 408/4/29 424/4/29 423/4/29
f 408/4/30 409/4/30 425/4/30 424/4/30
f 409/4/31 410/4/31 426/4/31 425/4/31
f 410/4/32 411/4/32 427/4/32 426/4/32
f 411/4/33 412/4/33 428/4/33 427/4/33
f 412/4/34 413/4/34 429/4/34 428/4/34
f 413/4/35 414/4/35 430/4/35 429/4/35
f 414/4/36 415/4/36 431/4/36 430/4/36
f 415/4/37 416/4/37 432/4/37 431/4/37
f 416/4/38 402/4/38 418/4/38 432/4/38
f 433/4/2 434/4/2 435/4/2 436/4/2 437/4/2 438/4/2 439/4/2 440/4/2 441/4/2 442/4/2 443/4/2 444/4/2 445/4/2 446/4/2 447/4/2 448/4/2
f 418/4/103 417/4/103 434/4/103 433/4/103
f 417/4/104 419/4/104 435/4/104 434/4/104
f 419/4/105 420/4/105 436/4/105 435/4/105
f 420/4/106 421/4/106 437/4/106 436/4/106
f 421/4/107 422/4/107 438/4/107 437/4/107
f 422/4/108 423/4/108 439/4/108 438/4/108
f 423/4/109 424/4/109 440/4/109 439/4/109
f 424/4/110 425/4/110 441/4/110 440/4/110
f 425/4/111 426/4/111 442/4/111 441/4/111
f 426/4/112 427/4/112 443/4/112 442/4/112
f 427/4/113 428/4/113 444/4/113 443/4/113
f 428/4/114 429/4/114 445/4/114 444/4/114
f 429/4/115 430/4/115 446/4/115 445/4/115
f 430/4/116 431/4/116 447/4/116 446/4/116
f 431/4/117 432/4/117 448/4/117 447/4/117
f 432/4/118 418/4/118 433/4/118 448/4/118
f 449/4/1 450/4/1 451/4/1 452/4/1 453/4/1 454/4/1 455/4/1 456/4/1 457/4/1 458/4/1 459/4/1 460/4/1 461/4/1 462/4/1 463/4/1 464/4/1
f 464/4/119 463/4/119 465/4/119 466/4/119
f 463/4/120 462/4/120 467/4/120 465/4/120
f 462/4/121 461/4/121 468/4/121 467/4/121
f 461/4/122 460/4/122 469/4/122 468/4/122
f 460/4/123 459/4/123 470/4/123 469/4/123
f 459/4/124 458/4/124 471/4/124 470/4/124
f 458/4/125 457/4/125 472/4/125 471/4/125
f 457/4/126 456/4/126 473/4/126 472/4/126
f 456/4/127 455/4/127 474/4/127 473/4/127
f 455/4/128 454/4/128 475/4/128 474/4/128
f 454/4/129 453/4/129 476/4/129 475/4/129
f 453/4/130 452/4/130 477/4/130 476/4/130
f 452/4/131 451/4/131 478/4/131 477/4/131
f 451/4/132 450/4/132 479/4/132 478/4/132
f 450/4/133 449/4/133 480/4/133 479/4/133
f 449/4/134 464/4/134 466/4/134 480/4/134
f 466/4/135 465/4/135 481/4/135 482/4/135
f 465/4/136 467/4/136 483/4/136 481/4/136
f 467/4/137 468/4/137 484/4/137 483/4/137
f 468/4/138 469/4/138 485/4/138 484/4/138
f 469/4/139 470/4/139 486/4/139 485/4/139
f 470/4/140 471/4/140 487/4/140 486/4/140
f 471/4/141 472/4/141 488/4/141 487/4/141
f 472/4/142 473/4/142 489/4/142 488/4/142
f 473/4/143 474/4/143 490/4/143 489/4/143
f 474/4/144 475/4/144 491/4/144 490/4/144
f 475/4/145 476/4/145 492/4/145 491/4/145
f 476/4/146 477/4/146 493/4/146 492/4/146
f 477/4/147 478/4/147 494/4/147 493/4/147
f 478/4/148 479/4/148 495/4/148 494/4/148
f 479/4/149 480/4/149 496/4/149 495/4/149
f 480/4/150 466/4/150 482/4/150 496/4/150
f 497/4/2 498/4/2 499/4/2 500/4/2 501/4/2 502/4/2 503/4/2 504/4/2 505/4/2 506/4/2 507/4/2 508/4/2 509/4/2 510/4/2 511/4/2 512/4/2
f 482/4/151 481/4/151 498/4/151 497/4/151
f 481/4/152 483/4/152 499/4/152 498/4/152
f 483/4/153 484/4/153 500/4/153 499/4/153
f 484/4/154 485/4/154 501/4/154 500/4/154
f 485/4/155 486/4/155 502/4/155 501/4/155
f 486/4/156 487/4/156 503/4/156 502/4/156
f 487/4/157 488/4/157 504/4/157 503/4/157
f 488/4/158 489/4/158 505/4/158 504/4/158
f 489/4/159 490/4/159 506/4/159 505/4/159
f 490/4/160 491/4/160 507/4/160 506/4/160
f 491/4/161 492/4/161 508/4/161 507/4/161
f 492/4/162 493/4/162 509/4/162 508/4/162
f 493/4/163 494/4/163 510/4/163 509/4/163
f 494/4/164 495/4/164 511/4/164 510/4/164
f 495/4/165 496/4/165 512/4/165 511/4/165
f 496/4/166 482/4/166 497/4/166 512/4/166
f 513/4/1 514/4/1 515/4/1 516/4/1 517/4/1 518/4/1 519/4/1 520/4/1 521/4/1 522/4/1 523/4/1 524/4/1 525/4/1 526/4/1 527/4/1 528/4/1
f 528/4/119 527/4/119 529/4/119 530/4/119
f 527/4/120 526/4/120 531/4/120 529/4/120
f 526/4/121 525/4/121 532/4/121 531/4/121
f 525/4/122 524/4/122 533/4/122 532/4/122
f 524/4/123 523/4/123 534/4/123 533/4/123
f 523/4/124 522/4/124 535/4/124 534/4/124
f 522/4/125 521/4/125 536/4/125 535/4/125
f 521/4/126 520/4/126 537/4/126 536/4/126
f 520/4/127 519/4/127 538/4/127 537/4/127
f 519/4/128 518/4/128 539/4/128 538/4/128
f 518/4/129 517/4/129 540/4/129 539/4/129
f 517/4/130 516/4/130 541/4/130 540/4/130
f 516/4/131 515/4/131 542/4/131 541/4/131
f 515/4/132 514/4/132 543/4/132 542/4/132
f 514/4/133 513/4/133 544/4/133 543/4/133
f 513/4/134 528/4/134 530/4/134 544/4/134
f 530/4/135 529/4/135 545/4/135 546/4/135
f 529/4/136 531/4/136 547/4/136 545/4/136
f 531/4/137 532/4/137 548/4/137 547/4/137
f 532/4/138 533/4/138 549/4/138 548/4/138
f 533/4/139 534/4/139 550/4/139 549/4/139
f 534/4/140 535/4/140 551/4/140 550/4/140
f 535/4/141 536/4/141 552/4/141 551/4/141
f 536/4/142 537/4/142 553/4/142 552/4/142
f 537/4/143 538/4/143 554/4/143 553/4/143
f 538/4/144 539/4/144 555/4/144 554/4/144
f 539/4/145 540/4/145 556/4/145 555/4/145
f 540/4/146 541/4/146 557/4/146 556/4/146
f 541/4/147 542/4/147 558/4/147 557/4/147
f 542/4/148 543/4/148 559/4/148 558/4/148
f 543/4/149 544/4/149 560/4/149 559/4/149
f 544/4/150 530/4/150 546/4/150 560/4/150
f 561/4/2 562/4/2 563/4/2 564/4/2 565/4/2 566/4/2 567/4/2 568/4/2 569/4/2 570/4/2 571/4/2 572/4/2 573/4/2 574/4/2 575/4/2 576/4/2
f 546/4/151 545/4/151 562/4/151 561/4/151
f 545/4/152 547/4/152 563/4/152 562/4/152
f 547/4/153 548/4/153 564/4/153 563/4/153
f 548/4/154 549/4/154 565/4/154 564/4/154
f 549/4/155 550/4/155 566/4/155 565/4/155
f 550/4/167 551/4/167 567/4/167 566/4/167
f 551/4/157 552/4/157 568/4/157 567/4/157
f 552/4/158 553/4/158 569/4/158 568/4/158
f 553/4/159 554/4/159 570/4/159 569/4/159
f 554/4/160 555/4/160 571/4/160 570/4/160
f 555/4/161 556/4/161 572/4/161 571/4/161
f 556/4/162 557/4/162 573/4/162 572/4/162
f 557/4/163 558/4/163 574/4/163 573/4/163
f 558/4/164 559/4/164 575/4/164 574/4/164
f 559/4/165 560/4/165 576/4/165 575/4/165
f 560/4/166 546/4/166 561/4/166 576/4/166
f 577/4/1 578/4/1 579/4/1 580/4/1 581/4/1 582/4/1 583/4/1 584/4/1 585/4/1 586/4/1 587/4/1 588/4/1 589/4/1 590/4/1 591/4/1 592/4/1
f 592/4/119 591/4/119 593/4/119 594/4/119
f 591/4/120 590/4/120 595/4/120 593/4/120
f 590/4/121 589/4/121 596/4/121 595/4/121
f 589/4/122 588/4/122 597/4/122 596/4/122
f 588/4/123 587/4/123 598/4/123 597/4/123
f 587/4/124 586/4/124 599/4/124 598/4/124
f 586/4/125 585/4/125 600/4/125 599/4/125
f 585/4/126 584/4/126 601/4/126 600/4/126
f 584/4/127 583/4/127 602/4/127 601/4/127
f 583/4/128 582/4/128 603/4/128 602/4/128
f 582/4/129 581/4/129 604/4/129 603/4/129
f 581/4/130 580/4/130 605/4/130 604/4/130
f 580/4/131 579/4/131 606/4/131 605/4/131
f 579/4/132 578/4/132 607/4/132 606/4/132
f 578/4/133 577/4/133 608/4/133 607/4/133
f 577/4/134 592/4/134 594/4/134 608/4/134
f 594/4/135 593/4/135 609/4/135 610/4/135
f 593/4/136 595/4/136 611/4/136 609/4/136
f 595/4/137 596/4/137 612/4/137 611/4/137
f 596/4/138 597/4/138 613/4/138 612/4/138
f 597/4/139 598/4/139 614/4/139 613/4/139
f 598/4/140 599/4/140 615/4/140 614/4/140
f 599/4/141 600/4/141 616/4/141 615/4/141
f 600/4/142 601/4/142 617/4/142 616/4/142
f 601/4/143 602/4/143 618/4/143 617/4/143
f 602/4/144 603/4/144 619/4/144 618/4/144
f 603/4/145 604/4/145 620/4/145 619/4/145
f 604/4/146 605/4/146 621/4/146 620/4/146
f 605/4/147 606/4/147 622/4/147 621/4/147
f 606/4/148 607/4/148 623/4/148 622/4/148
f 607/4/149 608/4/149 624/4/149 623/4/149
f 608/4/150 594/4/150 610/4/150 624/4/150
f 625/4/2 626/4/2 627/4/2 628/4/2 629/4/2 630/4/2 631/4/2 632/4/2 633/4/2 634/4/2 635/4/2 636/4/2 637/4/2 638/4/2 639/4/2 640/4/2
f 610/4/151 609/4/151 626/4/151 625/4/151
f 609/4/152 611/4/152 627/4/152 626/4/152
f 611/4/153 612/4/153 628/4/153 627/4/153
f 612/4/154 613/4/154 629/4/154 628/4/154
f 613/4/155 614/4/155 630/4/155 629/4/155
f 614/4/167 615/4/167 631/4/167 630/4/167
f 615/4/157 616/4/157 632/4/157 631/4/157
f 616/4/158 617/4/158 633/4/158 632/4/158
f 617/4/159 618/4/159 634/4/159 633/4/159
f 618/4/168 619/4/168 635/4/168 634/4/168
f 619/4/161 620/4/161 636/4/161 635/4/161
f 620/4/162 621/4/162 637/4/162 636/4/162
f 621/4/163 622/4/163 638/4/163 637/4/163
f 622/4/164 623/4/164 639/4/164 638/4/164
f 623/4/165 624/4/165 640/4/165 639/4/165
f 624/4/166 610/4/166 625/4/166 640/4/166
