# Blender 5.2.0 LTS
# www.blender.org
mtllib FN_Sofa_Corner.mtl
o FN_Sofa_Corner
v -1.160000 0.000000 0.023500
v -1.100000 0.000000 0.023500
v -1.100000 0.000000 0.083500
v -1.160000 0.000000 0.083500
v -1.168000 0.092000 0.091500
v -1.092000 0.092000 0.091500
v -1.092000 0.092000 0.015500
v -1.168000 0.092000 0.015500
v -1.160000 0.000000 -0.776500
v -1.100000 0.000000 -0.776500
v -1.100000 0.000000 -0.716500
v -1.160000 0.000000 -0.716500
v -1.168000 0.092000 -0.708500
v -1.092000 0.092000 -0.708500
v -1.092000 0.092000 -0.784500
v -1.168000 0.092000 -0.784500
v 0.270000 0.000000 -0.776500
v 0.330000 0.000000 -0.776500
v 0.330000 0.000000 -0.716500
v 0.270000 0.000000 -0.716500
v 0.262000 0.092000 -0.708500
v 0.338000 0.092000 -0.708500
v 0.338000 0.092000 -0.784500
v 0.262000 0.092000 -0.784500
v 1.100000 0.000000 -0.776500
v 1.160000 0.000000 -0.776500
v 1.160000 0.000000 -0.716500
v 1.100000 0.000000 -0.716500
v 1.092000 0.092000 -0.708500
v 1.168000 0.092000 -0.708500
v 1.168000 0.092000 -0.784500
v 1.092000 0.092000 -0.784500
v 1.100000 0.000000 0.763500
v 1.160000 0.000000 0.763500
v 1.160000 0.000000 0.823500
v 1.100000 0.000000 0.823500
v 1.092000 0.092000 0.831500
v 1.168000 0.092000 0.831500
v 1.168000 0.092000 0.755500
v 1.092000 0.092000 0.755500
v 0.270000 0.000000 0.763500
v 0.330000 0.000000 0.763500
v 0.330000 0.000000 0.823500
v 0.270000 0.000000 0.823500
v 0.262000 0.092000 0.831500
v 0.338000 0.092000 0.831500
v 0.338000 0.092000 0.755500
v 0.262000 0.092000 0.755500
v -1.107658 0.086000 0.127364
v -1.146160 0.086000 0.117048
v -1.174345 0.086000 0.088863
v -1.184661 0.086000 0.050362
v -1.184661 0.086000 -0.743362
v -1.174345 0.086000 -0.781863
v -1.146160 0.086000 -0.810048
v -1.107658 0.086000 -0.820364
v 1.107658 0.086000 -0.820364
v 1.146160 0.086000 -0.810048
v 1.174345 0.086000 -0.781863
v 1.184661 0.086000 -0.743362
v 1.184661 0.086000 0.050362
v 1.174345 0.086000 0.088863
v 1.146160 0.086000 0.117048
v 1.107658 0.086000 0.127364
v 1.161000 0.106000 0.123050
v 1.122000 0.106000 0.133500
v 1.189550 0.106000 0.094500
v 1.200000 0.106000 0.055500
v 1.200000 0.106000 -0.748500
v 1.189550 0.106000 -0.787500
v 1.161000 0.106000 -0.816050
v 1.122000 0.106000 -0.826500
v -1.122000 0.106000 -0.826500
v -1.161000 0.106000 -0.816050
v -1.189550 0.106000 -0.787500
v -1.200000 0.106000 -0.748500
v -1.200000 0.106000 0.055500
v -1.189550 0.106000 0.094500
v -1.161000 0.106000 0.123050
v -1.122000 0.106000 0.133500
v 1.161000 0.351000 0.123050
v 1.122000 0.351000 0.133500
v 1.189550 0.351000 0.094500
v 1.200000 0.351000 0.055500
v 1.200000 0.351000 -0.748500
v 1.189550 0.351000 -0.787500
v 1.161000 0.351000 -0.816050
v 1.122000 0.351000 -0.826500
v -1.122000 0.351000 -0.826500
v -1.161000 0.351000 -0.816050
v -1.189550 0.351000 -0.787500
v -1.200000 0.351000 -0.748500
v -1.200000 0.351000 0.055500
v -1.189550 0.351000 0.094500
v -1.161000 0.351000 0.123050
v -1.122000 0.351000 0.133500
v 1.122000 0.356000 0.133500
v 1.161000 0.356000 0.123050
v 1.189550 0.356000 0.094500
v 1.200000 0.356000 0.055500
v 1.200000 0.356000 -0.748500
v 1.189550 0.356000 -0.787500
v 1.161000 0.356000 -0.816050
v 1.122000 0.356000 -0.826500
v -1.122000 0.356000 -0.826500
v -1.161000 0.356000 -0.816050
v -1.189550 0.356000 -0.787500
v -1.200000 0.356000 -0.748500
v -1.200000 0.356000 0.055500
v -1.189550 0.356000 0.094500
v -1.161000 0.356000 0.123050
v -1.122000 0.356000 0.133500
v 0.463888 0.086000 0.858425
v 0.425580 0.086000 0.848160
v 0.397536 0.086000 0.820117
v 0.387271 0.086000 0.781808
v 0.387271 0.086000 -0.734808
v 0.397536 0.086000 -0.773117
v 0.425580 0.086000 -0.801160
v 0.463888 0.086000 -0.811425
v 1.116112 0.086000 -0.811425
v 1.154420 0.086000 -0.801160
v 1.182464 0.086000 -0.773117
v 1.192729 0.086000 -0.734808
v 1.192729 0.086000 0.781808
v 1.182464 0.086000 0.820117
v 1.154420 0.086000 0.848160
v 1.116112 0.086000 0.858425
v 1.161000 0.106000 0.863050
v 1.122000 0.106000 0.873500
v 1.189550 0.106000 0.834500
v 1.200000 0.106000 0.795500
v 0.458000 0.106000 -0.826500
v 0.419000 0.106000 -0.816050
v 0.390450 0.106000 -0.787500
v 0.380000 0.106000 -0.748500
v 0.380000 0.106000 0.795500
v 0.390450 0.106000 0.834500
v 0.419000 0.106000 0.863050
v 0.458000 0.106000 0.873500
v 1.161000 0.351000 0.863050
v 1.122000 0.351000 0.873500
v 1.189550 0.351000 0.834500
v 1.200000 0.351000 0.795500
v 0.458000 0.351000 -0.826500
v 0.419000 0.351000 -0.816050
v 0.390450 0.351000 -0.787500
v 0.380000 0.351000 -0.748500
v 0.380000 0.351000 0.795500
v 0.390450 0.351000 0.834500
v 0.419000 0.351000 0.863050
v 0.458000 0.351000 0.873500
v 1.122000 0.356000 0.873500
v 1.161000 0.356000 0.863050
v 1.189550 0.356000 0.834500
v 1.200000 0.356000 0.795500
v 0.458000 0.356000 -0.826500
v 0.419000 0.356000 -0.816050
v 0.390450 0.356000 -0.787500
v 0.380000 0.356000 -0.748500
v 0.380000 0.356000 0.795500
v 0.390450 0.356000 0.834500
v 0.419000 0.356000 0.863050
v 0.458000 0.356000 0.873500
v -1.110000 0.326000 0.116500
v -1.079000 0.326000 0.108194
v -1.079000 0.560000 0.108194
v -1.110000 0.560000 0.116500
v -1.056306 0.326000 0.085500
v -1.056306 0.560000 0.085500
v -1.048000 0.326000 0.054500
v -1.048000 0.560000 0.054500
v -1.048000 0.326000 -0.747500
v -1.048000 0.560000 -0.747500
v -1.056306 0.326000 -0.778500
v -1.056306 0.560000 -0.778500
v -1.079000 0.326000 -0.801194
v -1.079000 0.560000 -0.801194
v -1.110000 0.326000 -0.809500
v -1.110000 0.560000 -0.809500
v -1.138000 0.326000 -0.809500
v -1.138000 0.560000 -0.809500
v -1.169000 0.326000 -0.801194
v -1.169000 0.560000 -0.801194
v -1.191694 0.326000 -0.778500
v -1.191694 0.560000 -0.778500
v -1.200000 0.326000 -0.747500
v -1.200000 0.560000 -0.747500
v -1.200000 0.326000 0.054500
v -1.200000 0.560000 0.054500
v -1.191694 0.326000 0.085500
v -1.191694 0.560000 0.085500
v -1.169000 0.326000 0.108194
v -1.169000 0.560000 0.108194
v -1.138000 0.326000 0.116500
v -1.138000 0.560000 0.116500
v -1.111015 0.604000 0.082933
v -1.082263 0.604000 0.075229
v -1.061214 0.604000 0.054180
v -1.053510 0.604000 0.025428
v -1.053510 0.604000 -0.718428
v -1.061214 0.604000 -0.747180
v -1.082263 0.604000 -0.768229
v -1.111015 0.604000 -0.775933
v -1.136985 0.604000 -0.775933
v -1.165738 0.604000 -0.768229
v -1.186786 0.604000 -0.747180
v -1.194490 0.604000 -0.718428
v -1.194490 0.604000 0.025428
v -1.186786 0.604000 0.054180
v -1.165738 0.604000 0.075229
v -1.136985 0.604000 0.082933
v 1.138000 0.326000 0.856500
v 1.169000 0.326000 0.848194
v 1.169000 0.560000 0.848194
v 1.138000 0.560000 0.856500
v 1.191694 0.326000 0.825500
v 1.191694 0.560000 0.825500
v 1.200000 0.326000 0.794500
v 1.200000 0.560000 0.794500
v 1.200000 0.326000 -0.747500
v 1.200000 0.560000 -0.747500
v 1.191694 0.326000 -0.778500
v 1.191694 0.560000 -0.778500
v 1.169000 0.326000 -0.801194
v 1.169000 0.560000 -0.801194
v 1.138000 0.326000 -0.809500
v 1.138000 0.560000 -0.809500
v 1.110000 0.326000 -0.809500
v 1.110000 0.560000 -0.809500
v 1.079000 0.326000 -0.801194
v 1.079000 0.560000 -0.801194
v 1.056306 0.326000 -0.778500
v 1.056306 0.560000 -0.778500
v 1.048000 0.326000 -0.747500
v 1.048000 0.560000 -0.747500
v 1.048000 0.326000 0.794500
v 1.048000 0.560000 0.794500
v 1.056306 0.326000 0.825500
v 1.056306 0.560000 0.825500
v 1.079000 0.326000 0.848194
v 1.079000 0.560000 0.848194
v 1.110000 0.326000 0.856500
v 1.110000 0.560000 0.856500
v 1.137447 0.604000 0.823577
v 1.167221 0.604000 0.815599
v 1.189018 0.604000 0.793803
v 1.196996 0.604000 0.764028
v 1.196996 0.604000 -0.717028
v 1.189018 0.604000 -0.746803
v 1.167221 0.604000 -0.768599
v 1.137447 0.604000 -0.776577
v 1.110553 0.604000 -0.776577
v 1.080778 0.604000 -0.768599
v 1.058982 0.604000 -0.746803
v 1.051004 0.604000 -0.717028
v 1.051004 0.604000 0.764028
v 1.058982 0.604000 0.793803
v 1.080778 0.604000 0.815599
v 1.110553 0.604000 0.823577
v 1.136000 0.326000 -0.670500
v 1.168000 0.326000 -0.679074
v 1.152000 0.736000 -0.739271
v 1.123000 0.736000 -0.731500
v 1.191426 0.326000 -0.702500
v 1.173229 0.736000 -0.760500
v 1.200000 0.326000 -0.734500
v 1.181000 0.736000 -0.789500
v 1.200000 0.326000 -0.762500
v 1.181000 0.736000 -0.815500
v 1.191426 0.326000 -0.794500
v 1.173229 0.736000 -0.844500
v 1.168000 0.326000 -0.817926
v 1.152000 0.736000 -0.865729
v 1.136000 0.326000 -0.826500
v 1.123000 0.736000 -0.873500
v -1.136000 0.326000 -0.826500
v -1.123000 0.736000 -0.873500
v -1.168000 0.326000 -0.817926
v -1.152000 0.736000 -0.865729
v -1.191426 0.326000 -0.794500
v -1.173229 0.736000 -0.844500
v -1.200000 0.326000 -0.762500
v -1.181000 0.736000 -0.815500
v -1.200000 0.326000 -0.734500
v -1.181000 0.736000 -0.789500
v -1.191426 0.326000 -0.702500
v -1.173229 0.736000 -0.760500
v -1.168000 0.326000 -0.679074
v -1.152000 0.736000 -0.739271
v -1.136000 0.326000 -0.670500
v -1.123000 0.736000 -0.731500
v 1.090042 0.784000 -0.733584
v 1.118191 0.784000 -0.741126
v 1.138797 0.784000 -0.761733
v 1.146340 0.784000 -0.789882
v 1.146340 0.784000 -0.815118
v 1.138797 0.784000 -0.843267
v 1.118191 0.784000 -0.863874
v 1.090042 0.784000 -0.871416
v -1.090042 0.784000 -0.871416
v -1.118191 0.784000 -0.863874
v -1.138797 0.784000 -0.843267
v -1.146340 0.784000 -0.815118
v -1.146340 0.784000 -0.789882
v -1.138797 0.784000 -0.761733
v -1.118191 0.784000 -0.741126
v -1.090042 0.784000 -0.733584
v -0.972252 0.356000 0.022780
v -1.000640 0.356000 0.015174
v -1.021420 0.356000 -0.005607
v -1.029027 0.356000 -0.033994
v -1.029027 0.356000 -0.543006
v -1.021420 0.356000 -0.571393
v -1.000640 0.356000 -0.592174
v -0.972252 0.356000 -0.599780
v -0.439748 0.356000 -0.599780
v -0.411360 0.356000 -0.592174
v -0.390579 0.356000 -0.571393
v -0.382973 0.356000 -0.543006
v -0.382973 0.356000 -0.033994
v -0.390579 0.356000 -0.005607
v -0.411360 0.356000 0.015174
v -0.439748 0.356000 0.022780
v -0.405000 0.365000 0.021729
v -0.434000 0.365000 0.029500
v -0.383771 0.365000 0.000500
v -0.376000 0.365000 -0.028500
v -0.376000 0.365000 -0.548500
v -0.383771 0.365000 -0.577500
v -0.405000 0.365000 -0.598729
v -0.434000 0.365000 -0.606500
v -0.978000 0.365000 -0.606500
v -1.007000 0.365000 -0.598729
v -1.028229 0.365000 -0.577500
v -1.036000 0.365000 -0.548500
v -1.036000 0.365000 -0.028500
v -1.028229 0.365000 0.000500
v -1.007000 0.365000 0.021729
v -0.978000 0.365000 0.029500
v -0.405000 0.406000 0.021729
v -0.434000 0.406000 0.029500
v -0.383771 0.406000 0.000500
v -0.376000 0.406000 -0.028500
v -0.376000 0.406000 -0.548500
v -0.383771 0.406000 -0.577500
v -0.405000 0.406000 -0.598729
v -0.434000 0.406000 -0.606500
v -0.978000 0.406000 -0.606500
v -1.007000 0.406000 -0.598729
v -1.028229 0.406000 -0.577500
v -1.036000 0.406000 -0.548500
v -1.036000 0.406000 -0.028500
v -1.028229 0.406000 0.000500
v -1.007000 0.406000 0.021729
v -0.978000 0.406000 0.029500
v -0.446517 0.420000 0.014866
v -0.418851 0.420000 0.007453
v -0.398599 0.420000 -0.012799
v -0.391186 0.420000 -0.040465
v -0.391186 0.420000 -0.536535
v -0.398599 0.420000 -0.564201
v -0.418851 0.420000 -0.584453
v -0.446517 0.420000 -0.591866
v -0.965483 0.420000 -0.591866
v -0.993149 0.420000 -0.584453
v -1.013401 0.420000 -0.564201
v -1.020814 0.420000 -0.536535
v -1.020814 0.420000 -0.040465
v -1.013401 0.420000 -0.012799
v -0.993149 0.420000 0.007453
v -0.965483 0.420000 0.014866
v -0.278252 0.356000 0.022780
v -0.306640 0.356000 0.015174
v -0.327421 0.356000 -0.005607
v -0.335027 0.356000 -0.033994
v -0.335027 0.356000 -0.543006
v -0.327421 0.356000 -0.571393
v -0.306640 0.356000 -0.592174
v -0.278252 0.356000 -0.599780
v 0.254252 0.356000 -0.599780
v 0.282640 0.356000 -0.592174
v 0.303421 0.356000 -0.571393
v 0.311027 0.356000 -0.543006
v 0.311027 0.356000 -0.033994
v 0.303421 0.356000 -0.005607
v 0.282640 0.356000 0.015174
v 0.254252 0.356000 0.022780
v 0.289000 0.365000 0.021729
v 0.260000 0.365000 0.029500
v 0.310229 0.365000 0.000500
v 0.318000 0.365000 -0.028500
v 0.318000 0.365000 -0.548500
v 0.310229 0.365000 -0.577500
v 0.289000 0.365000 -0.598729
v 0.260000 0.365000 -0.606500
v -0.284000 0.365000 -0.606500
v -0.313000 0.365000 -0.598729
v -0.334229 0.365000 -0.577500
v -0.342000 0.365000 -0.548500
v -0.342000 0.365000 -0.028500
v -0.334229 0.365000 0.000500
v -0.313000 0.365000 0.021729
v -0.284000 0.365000 0.029500
v 0.289000 0.406000 0.021729
v 0.260000 0.406000 0.029500
v 0.310229 0.406000 0.000500
v 0.318000 0.406000 -0.028500
v 0.318000 0.406000 -0.548500
v 0.310229 0.406000 -0.577500
v 0.289000 0.406000 -0.598729
v 0.260000 0.406000 -0.606500
v -0.284000 0.406000 -0.606500
v -0.313000 0.406000 -0.598729
v -0.334229 0.406000 -0.577500
v -0.342000 0.406000 -0.548500
v -0.342000 0.406000 -0.028500
v -0.334229 0.406000 0.000500
v -0.313000 0.406000 0.021729
v -0.284000 0.406000 0.029500
v 0.247483 0.420000 0.014866
v 0.275149 0.420000 0.007453
v 0.295401 0.420000 -0.012799
v 0.302814 0.420000 -0.040465
v 0.302814 0.420000 -0.536535
v 0.295401 0.420000 -0.564201
v 0.275149 0.420000 -0.584453
v 0.247483 0.420000 -0.591866
v -0.271483 0.420000 -0.591866
v -0.299149 0.420000 -0.584453
v -0.319401 0.420000 -0.564201
v -0.326814 0.420000 -0.536535
v -0.326814 0.420000 -0.040465
v -0.319401 0.420000 -0.012799
v -0.299149 0.420000 0.007453
v -0.271483 0.420000 0.014866
v 0.463130 0.356000 0.790941
v 0.432509 0.356000 0.782736
v 0.410093 0.356000 0.760320
v 0.401888 0.356000 0.729699
v 0.401888 0.356000 -0.530699
v 0.410093 0.356000 -0.561320
v 0.432509 0.356000 -0.583736
v 0.463130 0.356000 -0.591941
v 0.968870 0.356000 -0.591941
v 0.999491 0.356000 -0.583736
v 1.021907 0.356000 -0.561320
v 1.030112 0.356000 -0.530699
v 1.030112 0.356000 0.729699
v 1.021907 0.356000 0.760320
v 0.999491 0.356000 0.782736
v 0.968870 0.356000 0.790941
v 1.003000 0.365000 0.791193
v 0.972000 0.365000 0.799500
v 1.025694 0.365000 0.768500
v 1.034000 0.365000 0.737500
v 1.034000 0.365000 -0.538500
v 1.025694 0.365000 -0.569500
v 1.003000 0.365000 -0.592194
v 0.972000 0.365000 -0.600500
v 0.460000 0.365000 -0.600500
v 0.429000 0.365000 -0.592194
v 0.406306 0.365000 -0.569500
v 0.398000 0.365000 -0.538500
v 0.398000 0.365000 0.737500
v 0.406306 0.365000 0.768500
v 0.429000 0.365000 0.791193
v 0.460000 0.365000 0.799500
v 1.003000 0.406000 0.791193
v 0.972000 0.406000 0.799500
v 1.025694 0.406000 0.768500
v 1.034000 0.406000 0.737500
v 1.034000 0.406000 -0.538500
v 1.025694 0.406000 -0.569500
v 1.003000 0.406000 -0.592194
v 0.972000 0.406000 -0.600500
v 0.460000 0.406000 -0.600500
v 0.429000 0.406000 -0.592194
v 0.406306 0.406000 -0.569500
v 0.398000 0.406000 -0.538500
v 0.398000 0.406000 0.737500
v 0.406306 0.406000 0.768500
v 0.429000 0.406000 0.791193
v 0.460000 0.406000 0.799500
v 0.965183 0.420000 0.780860
v 0.995358 0.420000 0.772775
v 1.017447 0.420000 0.750686
v 1.025532 0.420000 0.720511
v 1.025532 0.420000 -0.521511
v 1.017447 0.420000 -0.551686
v 0.995358 0.420000 -0.573775
v 0.965183 0.420000 -0.581860
v 0.466817 0.420000 -0.581860
v 0.436642 0.420000 -0.573775
v 0.414553 0.420000 -0.551686
v 0.406468 0.420000 -0.521511
v 0.406468 0.420000 0.720511
v 0.414553 0.420000 0.750686
v 0.436642 0.420000 0.772775
v 0.466817 0.420000 0.780860
v -1.017470 0.416000 -0.545386
v -1.048444 0.416000 -0.553685
v -1.071118 0.416000 -0.576360
v -1.079418 0.416000 -0.607334
v -1.079418 0.416000 -0.657666
v -1.071118 0.416000 -0.688640
v -1.048444 0.416000 -0.711315
v -1.017470 0.416000 -0.719614
v -0.502530 0.416000 -0.719614
v -0.471556 0.416000 -0.711315
v -0.448882 0.416000 -0.688640
v -0.440582 0.416000 -0.657666
v -0.440582 0.416000 -0.607334
v -0.448882 0.416000 -0.576360
v -0.471556 0.416000 -0.553685
v -0.502530 0.416000 -0.545386
v -0.462000 0.430000 -0.551074
v -0.494000 0.430000 -0.542500
v -0.438574 0.430000 -0.574500
v -0.430000 0.430000 -0.606500
v -0.430000 0.430000 -0.658500
v -0.438574 0.430000 -0.690500
v -0.462000 0.430000 -0.713926
v -0.494000 0.430000 -0.722500
v -1.026000 0.430000 -0.722500
v -1.058000 0.430000 -0.713926
v -1.081426 0.430000 -0.690500
v -1.090000 0.430000 -0.658500
v -1.090000 0.430000 -0.606500
v -1.081426 0.430000 -0.574500
v -1.058000 0.430000 -0.551074
v -1.026000 0.430000 -0.542500
v -0.473000 0.700000 -0.609538
v -0.503000 0.700000 -0.601500
v -0.451038 0.700000 -0.631500
v -0.443000 0.700000 -0.661500
v -0.443000 0.700000 -0.707500
v -0.451038 0.700000 -0.737500
v -0.473000 0.700000 -0.759462
v -0.503000 0.700000 -0.767500
v -1.017000 0.700000 -0.767500
v -1.047000 0.700000 -0.759462
v -1.068962 0.700000 -0.737500
v -1.077000 0.700000 -0.707500
v -1.077000 0.700000 -0.661500
v -1.068962 0.700000 -0.631500
v -1.047000 0.700000 -0.609538
v -1.017000 0.700000 -0.601500
v -0.528743 0.728000 -0.609814
v -0.501748 0.728000 -0.617047
v -0.481986 0.728000 -0.636809
v -0.474753 0.728000 -0.663804
v -0.474753 0.728000 -0.705196
v -0.481986 0.728000 -0.732191
v -0.501748 0.728000 -0.751953
v -0.528743 0.728000 -0.759186
v -0.991257 0.728000 -0.759186
v -1.018252 0.728000 -0.751953
v -1.038014 0.728000 -0.732191
v -1.045247 0.728000 -0.705196
v -1.045247 0.728000 -0.663804
v -1.038014 0.728000 -0.636809
v -1.018252 0.728000 -0.617047
v -0.991257 0.728000 -0.609814
v -0.317470 0.416000 -0.545386
v -0.348444 0.416000 -0.553685
v -0.371118 0.416000 -0.576360
v -0.379418 0.416000 -0.607334
v -0.379418 0.416000 -0.657666
v -0.371118 0.416000 -0.688640
v -0.348444 0.416000 -0.711315
v -0.317470 0.416000 -0.719614
v 0.197470 0.416000 -0.719614
v 0.228444 0.416000 -0.711315
v 0.251118 0.416000 -0.688640
v 0.259418 0.416000 -0.657666
v 0.259418 0.416000 -0.607334
v 0.251118 0.416000 -0.576360
v 0.228444 0.416000 -0.553685
v 0.197470 0.416000 -0.545386
v 0.238000 0.430000 -0.551074
v 0.206000 0.430000 -0.542500
v 0.261426 0.430000 -0.574500
v 0.270000 0.430000 -0.606500
v 0.270000 0.430000 -0.658500
v 0.261426 0.430000 -0.690500
v 0.238000 0.430000 -0.713926
v 0.206000 0.430000 -0.722500
v -0.326000 0.430000 -0.722500
v -0.358000 0.430000 -0.713926
v -0.381426 0.430000 -0.690500
v -0.390000 0.430000 -0.658500
v -0.390000 0.430000 -0.606500
v -0.381426 0.430000 -0.574500
v -0.358000 0.430000 -0.551074
v -0.326000 0.430000 -0.542500
v 0.227000 0.700000 -0.609538
v 0.197000 0.700000 -0.601500
v 0.248962 0.700000 -0.631500
v 0.257000 0.700000 -0.661500
v 0.257000 0.700000 -0.707500
v 0.248962 0.700000 -0.737500
v 0.227000 0.700000 -0.759462
v 0.197000 0.700000 -0.767500
v -0.317000 0.700000 -0.767500
v -0.347000 0.700000 -0.759462
v -0.368962 0.700000 -0.737500
v -0.377000 0.700000 -0.707500
v -0.377000 0.700000 -0.661500
v -0.368962 0.700000 -0.631500
v -0.347000 0.700000 -0.609538
v -0.317000 0.700000 -0.601500
v 0.171257 0.728000 -0.609814
v 0.198252 0.728000 -0.617047
v 0.218014 0.728000 -0.636809
v 0.225247 0.728000 -0.663804
v 0.225247 0.728000 -0.705196
v 0.218014 0.728000 -0.732191
v 0.198252 0.728000 -0.751953
v 0.171257 0.728000 -0.759186
v -0.291257 0.728000 -0.759186
v -0.318252 0.728000 -0.751953
v -0.338014 0.728000 -0.732191
v -0.345247 0.728000 -0.705196
v -0.345247 0.728000 -0.663804
v -0.338014 0.728000 -0.636809
v -0.318252 0.728000 -0.617047
v -0.291257 0.728000 -0.609814
v 0.382530 0.416000 -0.545386
v 0.351556 0.416000 -0.553685
v 0.328882 0.416000 -0.576360
v 0.320582 0.416000 -0.607334
v 0.320582 0.416000 -0.657666
v 0.328882 0.416000 -0.688640
v 0.351556 0.416000 -0.711315
v 0.382530 0.416000 -0.719614
v 0.897470 0.416000 -0.719614
v 0.928444 0.416000 -0.711315
v 0.951118 0.416000 -0.688640
v 0.959418 0.416000 -0.657666
v 0.959418 0.416000 -0.607334
v 0.951118 0.416000 -0.576360
v 0.928444 0.416000 -0.553685
v 0.897470 0.416000 -0.545386
v 0.938000 0.430000 -0.551074
v 0.906000 0.430000 -0.542500
v 0.961426 0.430000 -0.574500
v 0.970000 0.430000 -0.606500
v 0.970000 0.430000 -0.658500
v 0.961426 0.430000 -0.690500
v 0.938000 0.430000 -0.713926
v 0.906000 0.430000 -0.722500
v 0.374000 0.430000 -0.722500
v 0.342000 0.430000 -0.713926
v 0.318574 0.430000 -0.690500
v 0.310000 0.430000 -0.658500
v 0.310000 0.430000 -0.606500
v 0.318574 0.430000 -0.574500
v 0.342000 0.430000 -0.551074
v 0.374000 0.430000 -0.542500
v 0.927000 0.700000 -0.609538
v 0.897000 0.700000 -0.601500
v 0.948961 0.700000 -0.631500
v 0.957000 0.700000 -0.661500
v 0.957000 0.700000 -0.707500
v 0.948961 0.700000 -0.737500
v 0.927000 0.700000 -0.759462
v 0.897000 0.700000 -0.767500
v 0.383000 0.700000 -0.767500
v 0.353000 0.700000 -0.759462
v 0.331038 0.700000 -0.737500
v 0.323000 0.700000 -0.707500
v 0.323000 0.700000 -0.661500
v 0.331038 0.700000 -0.631500
v 0.353000 0.700000 -0.609538
v 0.383000 0.700000 -0.601500
v 0.871257 0.728000 -0.609814
v 0.898252 0.728000 -0.617047
v 0.918014 0.728000 -0.636809
v 0.925247 0.728000 -0.663804
v 0.925247 0.728000 -0.705196
v 0.918014 0.728000 -0.732191
v 0.898252 0.728000 -0.751953
v 0.871257 0.728000 -0.759186
v 0.408743 0.728000 -0.759186
v 0.381748 0.728000 -0.751953
v 0.361986 0.728000 -0.732191
v 0.354753 0.728000 -0.705196
v 0.354753 0.728000 -0.663804
v 0.361986 0.728000 -0.636809
v 0.381748 0.728000 -0.617047
v 0.408743 0.728000 -0.609814
vn -0.0000 -1.0000 -0.0000
vn -0.0000 1.0000 -0.0000
vn -0.0000 -0.0866 0.9962
vn 0.9962 -0.0866 -0.0000
vn -0.0000 -0.0866 -0.9962
vn -0.9962 -0.0866 -0.0000
vn 0.2332 -0.4341 0.8702
vn 0.5693 -0.5932 0.5692
vn 0.7516 -0.6282 0.2014
vn 0.7935 -0.6086 -0.0000
vn 0.7516 -0.6282 -0.2014
vn 0.5693 -0.5932 -0.5692
vn 0.2332 -0.4341 -0.8702
vn -0.0000 -0.2933 -0.9560
vn -0.2332 -0.4341 -0.8702
vn -0.5693 -0.5932 -0.5692
vn -0.7516 -0.6282 -0.2014
vn -0.7935 -0.6086 -0.0000
vn -0.7516 -0.6282 0.2014
vn -0.5693 -0.5932 0.5692
vn -0.2332 -0.4341 0.8702
vn -0.0000 -0.2933 0.9560
vn 0.2588 -0.0000 0.9659
vn 0.7071 -0.0000 0.7071
vn 0.9659 -0.0000 0.2588
vn 1.0000 -0.0000 -0.0000
vn 0.9659 -0.0000 -0.2588
vn 0.7071 -0.0000 -0.7071
vn 0.2588 -0.0000 -0.9659
vn -0.0000 -0.0000 -1.0000
vn -0.2588 -0.0000 -0.9659
vn -0.7071 -0.0000 -0.7071
vn -0.9659 -0.0000 -0.2588
vn -1.0000 -0.0000 -0.0000
vn -0.9659 -0.0000 0.2588
vn -0.7071 -0.0000 0.7071
vn -0.2588 -0.0000 0.9659
vn -0.0000 -0.0000 1.0000
vn 0.2017 -0.6267 0.7527
vn 0.5632 -0.6046 0.5632
vn 0.8540 -0.4672 0.2288
vn 0.9398 -0.3417 -0.0000
vn 0.8540 -0.4672 -0.2288
vn 0.5632 -0.6046 -0.5632
vn 0.2017 -0.6267 -0.7527
vn -0.0000 -0.6019 -0.7986
vn -0.2017 -0.6267 -0.7527
vn -0.5632 -0.6046 -0.5632
vn -0.8540 -0.4672 -0.2288
vn -0.9398 -0.3417 -0.0000
vn -0.8540 -0.4672 0.2288
vn -0.5632 -0.6046 0.5632
vn -0.2017 -0.6267 0.7527
vn -0.0000 -0.6019 0.7986
vn 0.2078 0.5963 0.7754
vn 0.6111 0.5031 0.6111
vn 0.9272 0.2803 0.2484
vn 0.9923 0.1243 -0.0000
vn 0.9272 0.2803 -0.2484
vn 0.6111 0.5031 -0.6111
vn 0.2078 0.5963 -0.7754
vn -0.0000 0.6065 -0.7951
vn -0.2078 0.5963 -0.7754
vn -0.6111 0.5031 -0.6111
vn -0.9272 0.2803 -0.2484
vn -0.9923 0.1243 -0.0000
vn -0.9272 0.2803 0.2484
vn -0.6111 0.5031 0.6111
vn -0.2078 0.5963 0.7754
vn -0.0000 0.6065 0.7951
vn 0.2094 0.5875 0.7817
vn 0.6190 0.4835 0.6190
vn 0.9381 0.2381 0.2514
vn 0.9977 0.0681 -0.0000
vn 0.9381 0.2381 -0.2514
vn 0.6190 0.4835 -0.6190
vn 0.2094 0.5875 -0.7817
vn -0.0000 0.5991 -0.8007
vn -0.2094 0.5875 -0.7817
vn -0.6190 0.4835 -0.6190
vn -0.9381 0.2381 -0.2514
vn -0.9977 0.0681 -0.0000
vn -0.9381 0.2381 0.2514
vn -0.6189 0.4835 0.6190
vn -0.2094 0.5875 0.7817
vn -0.0000 0.5991 0.8007
vn 0.2559 0.1502 0.9550
vn 0.7011 0.1303 0.7011
vn 0.9629 0.0792 0.2580
vn 0.9989 0.0463 -0.0000
vn 0.9659 0.0113 -0.2588
vn 0.7060 -0.0548 -0.7060
vn 0.2575 -0.1020 -0.9609
vn -0.0000 -0.1139 -0.9935
vn -0.2575 -0.1020 -0.9609
vn -0.7060 -0.0548 -0.7060
vn -0.9659 0.0113 -0.2588
vn -0.9989 0.0463 -0.0000
vn -0.9629 0.0792 0.2580
vn -0.7011 0.1303 0.7011
vn -0.2559 0.1502 0.9550
vn -0.0000 0.1472 0.9891
vn 0.2528 0.2145 0.9434
vn 0.6260 0.4651 0.6260
vn 0.7915 0.5732 0.2121
vn 0.8107 0.5854 -0.0000
vn 0.7915 0.5732 -0.2121
vn 0.6260 0.4651 -0.6260
vn 0.2528 0.2145 -0.9434
vn -0.0000 0.0434 -0.9991
vn -0.2528 0.2145 -0.9434
vn -0.6260 0.4651 -0.6260
vn -0.7915 0.5732 -0.2121
vn -0.8107 0.5854 -0.0000
vn -0.7915 0.5732 0.2121
vn -0.6260 0.4651 0.6260
vn -0.2528 0.2145 0.9434
vn -0.0000 0.0434 0.9991
vn 0.1937 -0.6634 0.7228
vn 0.4963 -0.7123 0.4963
vn 0.7157 -0.6716 0.1918
vn 0.7905 -0.6125 -0.0000
vn 0.7157 -0.6716 -0.1918
vn 0.4963 -0.7123 -0.4963
vn 0.1937 -0.6634 -0.7228
vn -0.0000 -0.5983 -0.8013
vn -0.1937 -0.6634 -0.7228
vn -0.4963 -0.7123 -0.4963
vn -0.7157 -0.6716 -0.1918
vn -0.7905 -0.6125 -0.0000
vn -0.7157 -0.6716 0.1918
vn -0.4963 -0.7123 0.4963
vn -0.1937 -0.6634 0.7228
vn -0.0000 -0.5983 0.8013
vn 0.1624 0.7787 0.6060
vn 0.4070 0.8177 0.4070
vn 0.5979 0.7854 0.1602
vn 0.6778 0.7352 -0.0000
vn 0.5979 0.7854 -0.1602
vn 0.4070 0.8177 -0.4070
vn 0.1624 0.7787 -0.6060
vn -0.0000 0.7226 -0.6913
vn -0.1624 0.7787 -0.6060
vn -0.4070 0.8177 -0.4070
vn -0.5979 0.7854 -0.1602
vn -0.6778 0.7352 -0.0000
vn -0.5979 0.7854 0.1602
vn -0.4070 0.8177 0.4070
vn -0.1624 0.7787 0.6060
vn -0.0000 0.7226 0.6913
vn 0.1937 -0.6633 -0.7228
vn 0.1822 -0.7101 0.6801
vn 0.5152 -0.6850 0.5152
vn 0.8130 -0.5400 0.2178
vn 0.9180 -0.3966 -0.0000
vn 0.8130 -0.5400 -0.2178
vn 0.5152 -0.6850 -0.5152
vn 0.1822 -0.7101 -0.6801
vn -0.0000 -0.6891 -0.7246
vn -0.1822 -0.7101 -0.6801
vn -0.5152 -0.6850 -0.5152
vn -0.8130 -0.5400 -0.2178
vn -0.9180 -0.3966 -0.0000
vn -0.8130 -0.5400 0.2178
vn -0.5152 -0.6850 0.5152
vn -0.1822 -0.7101 0.6801
vn -0.0000 -0.6891 0.7246
vn 0.1496 0.8161 0.5582
vn 0.4278 0.7963 0.4278
vn 0.7186 0.6683 0.1925
vn 0.8557 0.5175 -0.0000
vn 0.7186 0.6683 -0.1925
vn 0.4278 0.7963 -0.4278
vn 0.1496 0.8161 -0.5582
vn -0.0000 0.7996 -0.6006
vn -0.1496 0.8161 -0.5582
vn -0.4278 0.7963 -0.4278
vn -0.7186 0.6683 -0.1925
vn -0.8557 0.5175 -0.0000
vn -0.7186 0.6683 0.1925
vn -0.4278 0.7963 0.4278
vn -0.1496 0.8161 0.5582
vn -0.0000 0.7996 0.6006
vn 0.2438 -0.3361 0.9097
vn 0.6024 -0.5236 0.6024
vn 0.7744 -0.5977 0.2075
vn 0.7977 -0.6030 -0.0000
vn 0.7744 -0.5977 -0.2075
vn 0.6024 -0.5236 -0.6024
vn 0.2438 -0.3361 -0.9097
vn -0.0000 -0.2019 -0.9794
vn -0.2438 -0.3361 -0.9097
vn -0.6024 -0.5236 -0.6024
vn -0.7744 -0.5977 -0.2075
vn -0.7977 -0.6030 -0.0000
vn -0.7744 -0.5977 0.2075
vn -0.6024 -0.5236 0.6024
vn -0.2438 -0.3361 0.9097
vn -0.0000 -0.2019 0.9794
vn 0.2528 0.2146 0.9434
vn 0.6957 0.1790 0.6957
vn 0.9612 0.0987 0.2576
vn 0.9988 0.0481 -0.0000
vn 0.9659 -0.0005 -0.2588
vn 0.7042 -0.0901 -0.7042
vn 0.2559 -0.1506 -0.9549
vn -0.0000 -0.1644 -0.9864
vn -0.2559 -0.1506 -0.9549
vn -0.7042 -0.0901 -0.7042
vn -0.9659 -0.0005 -0.2588
vn -0.9988 0.0481 -0.0000
vn -0.9612 0.0987 0.2576
vn -0.6957 0.1790 0.6957
vn -0.2528 0.2146 0.9434
vn -0.0000 0.2135 0.9769
vn 0.2292 0.4647 0.8553
vn 0.5215 0.6753 0.5215
vn 0.6444 0.7450 0.1727
vn 0.6614 0.7500 -0.0000
vn 0.6444 0.7450 -0.1727
vn 0.5215 0.6753 -0.5215
vn 0.2292 0.4647 -0.8553
vn -0.0000 0.2846 -0.9586
vn -0.2292 0.4647 -0.8553
vn -0.5215 0.6753 -0.5215
vn -0.6444 0.7450 -0.1727
vn -0.6614 0.7500 -0.0000
vn -0.6444 0.7450 0.1727
vn -0.5215 0.6753 0.5215
vn -0.2292 0.4647 0.8553
vn -0.0000 0.2846 0.9586
vt 0.812500 0.312500
vt 0.437500 0.687500
vt 0.562500 0.687500
vt 0.812500 0.687500
s 0
usemtl FN_Atlas
f 1/1/1 2/1/1 3/1/1 4/1/1
f 5/1/2 6/1/2 7/1/2 8/1/2
f 4/1/3 3/1/3 6/1/3 5/1/3
f 3/1/4 2/1/4 7/1/4 6/1/4
f 2/1/5 1/1/5 8/1/5 7/1/5
f 1/1/6 4/1/6 5/1/6 8/1/6
f 9/1/1 10/1/1 11/1/1 12/1/1
f 13/1/2 14/1/2 15/1/2 16/1/2
f 12/1/3 11/1/3 14/1/3 13/1/3
f 11/1/4 10/1/4 15/1/4 14/1/4
f 10/1/5 9/1/5 16/1/5 15/1/5
f 9/1/6 12/1/6 13/1/6 16/1/6
f 17/1/1 18/1/1 19/1/1 20/1/1
f 21/1/2 22/1/2 23/1/2 24/1/2
f 20/1/3 19/1/3 22/1/3 21/1/3
f 19/1/4 18/1/4 23/1/4 22/1/4
f 18/1/5 17/1/5 24/1/5 23/1/5
f 17/1/6 20/1/6 21/1/6 24/1/6
f 25/1/1 26/1/1 27/1/1 28/1/1
f 29/1/2 30/1/2 31/1/2 32/1/2
f 28/1/3 27/1/3 30/1/3 29/1/3
f 27/1/4 26/1/4 31/1/4 30/1/4
f 26/1/5 25/1/5 32/1/5 31/1/5
f 25/1/6 28/1/6 29/1/6 32/1/6
f 33/1/1 34/1/1 35/1/1 36/1/1
f 37/1/2 38/1/2 39/1/2 40/1/2
f 36/1/3 35/1/3 38/1/3 37/1/3
f 35/1/4 34/1/4 39/1/4 38/1/4
f 34/1/5 33/1/5 40/1/5 39/1/5
f 33/1/6 36/1/6 37/1/6 40/1/6
f 41/1/1 42/1/1 43/1/1 44/1/1
f 45/1/2 46/1/2 47/1/2 48/1/2
f 44/1/3 43/1/3 46/1/3 45/1/3
f 43/1/4 42/1/4 47/1/4 46/1/4
f 42/1/5 41/1/5 48/1/5 47/1/5
f 41/1/6 44/1/6 45/1/6 48/1/6
f 49/2/1 50/2/1 51/2/1 52/2/1 53/2/1 54/2/1 55/2/1 56/2/1 57/2/1 58/2/1 59/2/1 60/2/1 61/2/1 62/2/1 63/2/1 64/2/1
f 64/2/7 63/2/7 65/2/7 66/2/7
f 63/2/8 62/2/8 67/2/8 65/2/8
f 62/2/9 61/2/9 68/2/9 67/2/9
f 61/2/10 60/2/10 69/2/10 68/2/10
f 60/2/11 59/2/11 70/2/11 69/2/11
f 59/2/12 58/2/12 71/2/12 70/2/12
f 58/2/13 57/2/13 72/2/13 71/2/13
f 57/2/14 56/2/14 73/2/14 72/2/14
f 56/2/15 55/2/15 74/2/15 73/2/15
f 55/2/16 54/2/16 75/2/16 74/2/16
f 54/2/17 53/2/17 76/2/17 75/2/17
f 53/2/18 52/2/18 77/2/18 76/2/18
f 52/2/19 51/2/19 78/2/19 77/2/19
f 51/2/20 50/2/20 79/2/20 78/2/20
f 50/2/21 49/2/21 80/2/21 79/2/21
f 49/2/22 64/2/22 66/2/22 80/2/22
f 66/2/23 65/2/23 81/2/23 82/2/23
f 65/2/24 67/2/24 83/2/24 81/2/24
f 67/2/25 68/2/25 84/2/25 83/2/25
f 68/2/26 69/2/26 85/2/26 84/2/26
f 69/2/27 70/2/27 86/2/27 85/2/27
f 70/2/28 71/2/28 87/2/28 86/2/28
f 71/2/29 72/2/29 88/2/29 87/2/29
f 72/2/30 73/2/30 89/2/30 88/2/30
f 73/2/31 74/2/31 90/2/31 89/2/31
f 74/2/32 75/2/32 91/2/32 90/2/32
f 75/2/33 76/2/33 92/2/33 91/2/33
f 76/2/34 77/2/34 93/2/34 92/2/34
f 77/2/35 78/2/35 94/2/35 93/2/35
f 78/2/36 79/2/36 95/2/36 94/2/36
f 79/2/37 80/2/37 96/2/37 95/2/37
f 80/2/38 66/2/38 82/2/38 96/2/38
f 97/3/2 98/3/2 99/3/2 100/3/2 101/3/2 102/3/2 103/3/2 104/3/2 105/3/2 106/3/2 107/3/2 108/3/2 109/3/2 110/3/2 111/3/2 112/3/2
f 82/3/23 81/3/23 98/3/23 97/3/23
f 81/3/24 83/3/24 99/3/24 98/3/24
f 83/3/25 84/3/25 100/3/25 99/3/25
f 84/3/26 85/3/26 101/3/26 100/3/26
f 85/3/27 86/3/27 102/3/27 101/3/27
f 86/3/28 87/3/28 103/3/28 102/3/28
f 87/3/29 88/3/29 104/3/29 103/3/29
f 88/3/30 89/3/30 105/3/30 104/3/30
f 89/3/31 90/3/31 106/3/31 105/3/31
f 90/3/32 91/3/32 107/3/32 106/3/32
f 91/3/33 92/3/33 108/3/33 107/3/33
f 92/3/34 93/3/34 109/3/34 108/3/34
f 93/3/35 94/3/35 110/3/35 109/3/35
f 94/3/36 95/3/36 111/3/36 110/3/36
f 95/3/37 96/3/37 112/3/37 111/3/37
f 96/3/38 82/3/38 97/3/38 112/3/38
f 113/2/1 114/2/1 115/2/1 116/2/1 117/2/1 118/2/1 119/2/1 120/2/1 121/2/1 122/2/1 123/2/1 124/2/1 125/2/1 126/2/1 127/2/1 128/2/1
f 128/2/39 127/2/39 129/2/39 130/2/39
f 127/2/40 126/2/40 131/2/40 129/2/40
f 126/2/41 125/2/41 132/2/41 131/2/41
f 125/2/42 124/2/42 69/2/42 132/2/42
f 124/2/43 123/2/43 70/2/43 69/2/43
f 123/2/44 122/2/44 71/2/44 70/2/44
f 122/2/45 121/2/45 72/2/45 71/2/45
f 121/2/46 120/2/46 133/2/46 72/2/46
f 120/2/47 119/2/47 134/2/47 133/2/47
f 119/2/48 118/2/48 135/2/48 134/2/48
f 118/2/49 117/2/49 136/2/49 135/2/49
f 117/2/50 116/2/50 137/2/50 136/2/50
f 116/2/51 115/2/51 138/2/51 137/2/51
f 115/2/52 114/2/52 139/2/52 138/2/52
f 114/2/53 113/2/53 140/2/53 139/2/53
f 113/2/54 128/2/54 130/2/54 140/2/54
f 130/2/23 129/2/23 141/2/23 142/2/23
f 129/2/24 131/2/24 143/2/24 141/2/24
f 131/2/25 132/2/25 144/2/25 143/2/25
f 132/2/26 69/2/26 85/2/26 144/2/26
f 72/2/30 133/2/30 145/2/30 88/2/30
f 133/2/31 134/2/31 146/2/31 145/2/31
f 134/2/32 135/2/32 147/2/32 146/2/32
f 135/2/33 136/2/33 148/2/33 147/2/33
f 136/2/34 137/2/34 149/2/34 148/2/34
f 137/2/35 138/2/35 150/2/35 149/2/35
f 138/2/36 139/2/36 151/2/36 150/2/36
f 139/2/37 140/2/37 152/2/37 151/2/37
f 140/2/38 130/2/38 142/2/38 152/2/38
f 153/3/2 154/3/2 155/3/2 156/3/2 101/3/2 102/3/2 103/3/2 104/3/2 157/3/2 158/3/2 159/3/2 160/3/2 161/3/2 162/3/2 163/3/2 164/3/2
f 142/3/23 141/3/23 154/3/23 153/3/23
f 141/3/24 143/3/24 155/3/24 154/3/24
f 143/3/25 144/3/25 156/3/25 155/3/25
f 144/3/26 85/3/26 101/3/26 156/3/26
f 88/3/30 145/3/30 157/3/30 104/3/30
f 145/3/31 146/3/31 158/3/31 157/3/31
f 146/3/32 147/3/32 159/3/32 158/3/32
f 147/3/33 148/3/33 160/3/33 159/3/33
f 148/3/34 149/3/34 161/3/34 160/3/34
f 149/3/35 150/3/35 162/3/35 161/3/35
f 150/3/36 151/3/36 163/3/36 162/3/36
f 151/3/37 152/3/37 164/3/37 163/3/37
f 152/3/38 142/3/38 153/3/38 164/3/38
f 165/2/23 166/2/23 167/2/23 168/2/23
f 166/2/24 169/2/24 170/2/24 167/2/24
f 169/2/25 171/2/25 172/2/25 170/2/25
f 171/2/26 173/2/26 174/2/26 172/2/26
f 173/2/27 175/2/27 176/2/27 174/2/27
f 175/2/28 177/2/28 178/2/28 176/2/28
f 177/2/29 179/2/29 180/2/29 178/2/29
f 179/2/30 181/2/30 182/2/30 180/2/30
f 181/2/31 183/2/31 184/2/31 182/2/31
f 183/2/32 185/2/32 186/2/32 184/2/32
f 185/2/33 187/2/33 188/2/33 186/2/33
f 187/2/34 189/2/34 190/2/34 188/2/34
f 189/2/35 191/2/35 192/2/35 190/2/35
f 191/2/36 193/2/36 194/2/36 192/2/36
f 193/2/37 195/2/37 196/2/37 194/2/37
f 195/2/38 165/2/38 168/2/38 196/2/38
f 197/2/2 198/2/2 199/2/2 200/2/2 201/2/2 202/2/2 203/2/2 204/2/2 205/2/2 206/2/2 207/2/2 208/2/2 209/2/2 210/2/2 211/2/2 212/2/2
f 168/2/55 167/2/55 198/2/55 197/2/55
f 167/2/56 170/2/56 199/2/56 198/2/56
f 170/2/57 172/2/57 200/2/57 199/2/57
f 172/2/58 174/2/58 201/2/58 200/2/58
f 174/2/59 176/2/59 202/2/59 201/2/59
f 176/2/60 178/2/60 203/2/60 202/2/60
f 178/2/61 180/2/61 204/2/61 203/2/61
f 180/2/62 182/2/62 205/2/62 204/2/62
f 182/2/63 184/2/63 206/2/63 205/2/63
f 184/2/64 186/2/64 207/2/64 206/2/64
f 186/2/65 188/2/65 208/2/65 207/2/65
f 188/2/66 190/2/66 209/2/66 208/2/66
f 190/2/67 192/2/67 210/2/67 209/2/67
f 192/2/68 194/2/68 211/2/68 210/2/68
f 194/2/69 196/2/69 212/2/69 211/2/69
f 196/2/70 168/2/70 197/2/70 212/2/70
f 213/2/23 214/2/23 215/2/23 216/2/23
f 214/2/24 217/2/24 218/2/24 215/2/24
f 217/2/25 219/2/25 220/2/25 218/2/25
f 219/2/26 221/2/26 222/2/26 220/2/26
f 221/2/27 223/2/27 224/2/27 222/2/27
f 223/2/28 225/2/28 226/2/28 224/2/28
f 225/2/29 227/2/29 228/2/29 226/2/29
f 227/2/30 229/2/30 230/2/30 228/2/30
f 229/2/31 231/2/31 232/2/31 230/2/31
f 231/2/32 233/2/32 234/2/32 232/2/32
f 233/2/33 235/2/33 236/2/33 234/2/33
f 235/2/34 237/2/34 238/2/34 236/2/34
f 237/2/35 239/2/35 240/2/35 238/2/35
f 239/2/36 241/2/36 242/2/36 240/2/36
f 241/2/37 243/2/37 244/2/37 242/2/37
f 243/2/38 213/2/38 216/2/38 244/2/38
f 245/2/2 246/2/2 247/2/2 248/2/2 249/2/2 250/2/2 251/2/2 252/2/2 253/2/2 254/2/2 255/2/2 256/2/2 257/2/2 258/2/2 259/2/2 260/2/2
f 216/2/71 215/2/71 246/2/71 245/2/71
f 215/2/72 218/2/72 247/2/72 246/2/72
f 218/2/73 220/2/73 248/2/73 247/2/73
f 220/2/74 222/2/74 249/2/74 248/2/74
f 222/2/75 224/2/75 250/2/75 249/2/75
f 224/2/76 226/2/76 251/2/76 250/2/76
f 226/2/77 228/2/77 252/2/77 251/2/77
f 228/2/78 230/2/78 253/2/78 252/2/78
f 230/2/79 232/2/79 254/2/79 253/2/79
f 232/2/80 234/2/80 255/2/80 254/2/80
f 234/2/81 236/2/81 256/2/81 255/2/81
f 236/2/82 238/2/82 257/2/82 256/2/82
f 238/2/83 240/2/83 258/2/83 257/2/83
f 240/2/84 242/2/84 259/2/84 258/2/84
f 242/2/85 244/2/85 260/2/85 259/2/85
f 244/2/86 216/2/86 245/2/86 260/2/86
f 261/2/87 262/2/87 263/2/87 264/2/87
f 262/2/88 265/2/88 266/2/88 263/2/88
f 265/2/89 267/2/89 268/2/89 266/2/89
f 267/2/90 269/2/90 270/2/90 268/2/90
f 269/2/91 271/2/91 272/2/91 270/2/91
f 271/2/92 273/2/92 274/2/92 272/2/92
f 273/2/93 275/2/93 276/2/93 274/2/93
f 275/2/94 277/2/94 278/2/94 276/2/94
f 277/2/95 279/2/95 280/2/95 278/2/95
f 279/2/96 281/2/96 282/2/96 280/2/96
f 281/2/97 283/2/97 284/2/97 282/2/97
f 283/2/98 285/2/98 286/2/98 284/2/98
f 285/2/99 287/2/99 288/2/99 286/2/99
f 287/2/100 289/2/100 290/2/100 288/2/100
f 289/2/101 291/2/101 292/2/101 290/2/101
f 291/2/102 261/2/102 264/2/102 292/2/102
f 293/2/2 294/2/2 295/2/2 296/2/2 297/2/2 298/2/2 299/2/2 300/2/2 301/2/2 302/2/2 303/2/2 304/2/2 305/2/2 306/2/2 307/2/2 308/2/2
f 264/2/103 263/2/103 294/2/103 293/2/103
f 263/2/104 266/2/104 295/2/104 294/2/104
f 266/2/105 268/2/105 296/2/105 295/2/105
f 268/2/106 270/2/106 297/2/106 296/2/106
f 270/2/107 272/2/107 298/2/107 297/2/107
f 272/2/108 274/2/108 299/2/108 298/2/108
f 274/2/109 276/2/109 300/2/109 299/2/109
f 276/2/110 278/2/110 301/2/110 300/2/110
f 278/2/111 280/2/111 302/2/111 301/2/111
f 280/2/112 282/2/112 303/2/112 302/2/112
f 282/2/113 284/2/113 304/2/113 303/2/113
f 284/2/114 286/2/114 305/2/114 304/2/114
f 286/2/115 288/2/115 306/2/115 305/2/115
f 288/2/116 290/2/116 307/2/116 306/2/116
f 290/2/117 292/2/117 308/2/117 307/2/117
f 292/2/118 264/2/118 293/2/118 308/2/118
f 309/4/1 310/4/1 311/4/1 312/4/1 313/4/1 314/4/1 315/4/1 316/4/1 317/4/1 318/4/1 319/4/1 320/4/1 321/4/1 322/4/1 323/4/1 324/4/1
f 324/4/119 323/4/119 325/4/119 326/4/119
f 323/4/120 322/4/120 327/4/120 325/4/120
f 322/4/121 321/4/121 328/4/121 327/4/121
f 321/4/122 320/4/122 329/4/122 328/4/122
f 320/4/123 319/4/123 330/4/123 329/4/123
f 319/4/124 318/4/124 331/4/124 330/4/124
f 318/4/125 317/4/125 332/4/125 331/4/125
f 317/4/126 316/4/126 333/4/126 332/4/126
f 316/4/127 315/4/127 334/4/127 333/4/127
f 315/4/128 314/4/128 335/4/128 334/4/128
f 314/4/129 313/4/129 336/4/129 335/4/129
f 313/4/130 312/4/130 337/4/130 336/4/130
f 312/4/131 311/4/131 338/4/131 337/4/131
f 311/4/132 310/4/132 339/4/132 338/4/132
f 310/4/133 309/4/133 340/4/133 339/4/133
f 309/4/134 324/4/134 326/4/134 340/4/134
f 326/4/23 325/4/23 341/4/23 342/4/23
f 325/4/24 327/4/24 343/4/24 341/4/24
f 327/4/25 328/4/25 344/4/25 343/4/25
f 328/4/26 329/4/26 345/4/26 344/4/26
f 329/4/27 330/4/27 346/4/27 345/4/27
f 330/4/28 331/4/28 347/4/28 346/4/28
f 331/4/29 332/4/29 348/4/29 347/4/29
f 332/4/30 333/4/30 349/4/30 348/4/30
f 333/4/31 334/4/31 350/4/31 349/4/31
f 334/4/32 335/4/32 351/4/32 350/4/32
f 335/4/33 336/4/33 352/4/33 351/4/33
f 336/4/34 337/4/34 353/4/34 352/4/34
f 337/4/35 338/4/35 354/4/35 353/4/35
f 338/4/36 339/4/36 355/4/36 354/4/36
f 339/4/37 340/4/37 356/4/37 355/4/37
f 340/4/38 326/4/38 342/4/38 356/4/38
f 357/4/2 358/4/2 359/4/2 360/4/2 361/4/2 362/4/2 363/4/2 364/4/2 365/4/2 366/4/2 367/4/2 368/4/2 369/4/2 370/4/2 371/4/2 372/4/2
f 342/4/135 341/4/135 358/4/135 357/4/135
f 341/4/136 343/4/136 359/4/136 358/4/136
f 343/4/137 344/4/137 360/4/137 359/4/137
f 344/4/138 345/4/138 361/4/138 360/4/138
f 345/4/139 346/4/139 362/4/139 361/4/139
f 346/4/140 347/4/140 363/4/140 362/4/140
f 347/4/141 348/4/141 364/4/141 363/4/141
f 348/4/142 349/4/142 365/4/142 364/4/142
f 349/4/143 350/4/143 366/4/143 365/4/143
f 350/4/144 351/4/144 367/4/144 366/4/144
f 351/4/145 352/4/145 368/4/145 367/4/145
f 352/4/146 353/4/146 369/4/146 368/4/146
f 353/4/147 354/4/147 370/4/147 369/4/147
f 354/4/148 355/4/148 371/4/148 370/4/148
f 355/4/149 356/4/149 372/4/149 371/4/149
f 356/4/150 342/4/150 357/4/150 372/4/150
f 373/4/1 374/4/1 375/4/1 376/4/1 377/4/1 378/4/1 379/4/1 380/4/1 381/4/1 382/4/1 383/4/1 384/4/1 385/4/1 386/4/1 387/4/1 388/4/1
f 388/4/119 387/4/119 389/4/119 390/4/119
f 387/4/120 386/4/120 391/4/120 389/4/120
f 386/4/121 385/4/121 392/4/121 391/4/121
f 385/4/122 384/4/122 393/4/122 392/4/122
f 384/4/123 383/4/123 394/4/123 393/4/123
f 383/4/124 382/4/124 395/4/124 394/4/124
f 382/4/151 381/4/151 396/4/151 395/4/151
f 381/4/126 380/4/126 397/4/126 396/4/126
f 380/4/127 379/4/127 398/4/127 397/4/127
f 379/4/128 378/4/128 399/4/128 398/4/128
f 378/4/129 377/4/129 400/4/129 399/4/129
f 377/4/130 376/4/130 401/4/130 400/4/130
f 376/4/131 375/4/131 402/4/131 401/4/131
f 375/4/132 374/4/132 403/4/132 402/4/132
f 374/4/133 373/4/133 404/4/133 403/4/133
f 373/4/134 388/4/134 390/4/134 404/4/134
f 390/4/23 389/4/23 405/4/23 406/4/23
f 389/4/24 391/4/24 407/4/24 405/4/24
f 391/4/25 392/4/25 408/4/25 407/4/25
f 392/4/26 393/4/26 409/4/26 408/4/26
f 393/4/27 394/4/27 410/4/27 409/4/27
f 394/4/28 395/4/28 411/4/28 410/4/28
f 395/4/29 396/4/29 412/4/29 411/4/29
f 396/4/30 397/4/30 413/4/30 412/4/30
f 397/4/31 398/4/31 414/4/31 413/4/31
f 398/4/32 399/4/32 415/4/32 414/4/32
f 399/4/33 400/4/33 416/4/33 415/4/33
f 400/4/34 401/4/34 417/4/34 416/4/34
f 401/4/35 402/4/35 418/4/35 417/4/35
f 402/4/36 403/4/36 419/4/36 418/4/36
f 403/4/37 404/4/37 420/4/37 419/4/37
f 404/4/38 390/4/38 406/4/38 420/4/38
f 421/4/2 422/4/2 423/4/2 424/4/2 425/4/2 426/4/2 427/4/2 428/4/2 429/4/2 430/4/2 431/4/2 432/4/2 433/4/2 434/4/2 435/4/2 436/4/2
f 406/4/135 405/4/135 422/4/135 421/4/135
f 405/4/136 407/4/136 423/4/136 422/4/136
f 407/4/137 408/4/137 424/4/137 423/4/137
f 408/4/138 409/4/138 425/4/138 424/4/138
f 409/4/139 410/4/139 426/4/139 425/4/139
f 410/4/140 411/4/140 427/4/140 426/4/140
f 411/4/141 412/4/141 428/4/141 427/4/141
f 412/4/142 413/4/142 429/4/142 428/4/142
f 413/4/143 414/4/143 430/4/143 429/4/143
f 414/4/144 415/4/144 431/4/144 430/4/144
f 415/4/145 416/4/145 432/4/145 431/4/145
f 416/4/146 417/4/146 433/4/146 432/4/146
f 417/4/147 418/4/147 434/4/147 433/4/147
f 418/4/148 419/4/148 435/4/148 434/4/148
f 419/4/149 420/4/149 436/4/149 435/4/149
f 420/4/150 406/4/150 421/4/150 436/4/150
f 437/4/1 438/4/1 439/4/1 440/4/1 441/4/1 442/4/1 443/4/1 444/4/1 445/4/1 446/4/1 447/4/1 448/4/1 449/4/1 450/4/1 451/4/1 452/4/1
f 452/4/152 451/4/152 453/4/152 454/4/152
f 451/4/153 450/4/153 455/4/153 453/4/153
f 450/4/154 449/4/154 456/4/154 455/4/154
f 449/4/155 448/4/155 457/4/155 456/4/155
f 448/4/156 447/4/156 458/4/156 457/4/156
f 447/4/157 446/4/157 459/4/157 458/4/157
f 446/4/158 445/4/158 460/4/158 459/4/158
f 445/4/159 444/4/159 461/4/159 460/4/159
f 444/4/160 443/4/160 462/4/160 461/4/160
f 443/4/161 442/4/161 463/4/161 462/4/161
f 442/4/162 441/4/162 464/4/162 463/4/162
f 441/4/163 440/4/163 465/4/163 464/4/163
f 440/4/164 439/4/164 466/4/164 465/4/164
f 439/4/165 438/4/165 467/4/165 466/4/165
f 438/4/166 437/4/166 468/4/166 467/4/166
f 437/4/167 452/4/167 454/4/167 468/4/167
f 454/4/23 453/4/23 469/4/23 470/4/23
f 453/4/24 455/4/24 471/4/24 469/4/24
f 455/4/25 456/4/25 472/4/25 471/4/25
f 456/4/26 457/4/26 473/4/26 472/4/26
f 457/4/27 458/4/27 474/4/27 473/4/27
f 458/4/28 459/4/28 475/4/28 474/4/28
f 459/4/29 460/4/29 476/4/29 475/4/29
f 460/4/30 461/4/30 477/4/30 476/4/30
f 461/4/31 462/4/31 478/4/31 477/4/31
f 462/4/32 463/4/32 479/4/32 478/4/32
f 463/4/33 464/4/33 480/4/33 479/4/33
f 464/4/34 465/4/34 481/4/34 480/4/34
f 465/4/35 466/4/35 482/4/35 481/4/35
f 466/4/36 467/4/36 483/4/36 482/4/36
f 467/4/37 468/4/37 484/4/37 483/4/37
f 468/4/38 454/4/38 470/4/38 484/4/38
f 485/4/2 486/4/2 487/4/2 488/4/2 489/4/2 490/4/2 491/4/2 492/4/2 493/4/2 494/4/2 495/4/2 496/4/2 497/4/2 498/4/2 499/4/2 500/4/2
f 470/4/168 469/4/168 486/4/168 485/4/168
f 469/4/169 471/4/169 487/4/169 486/4/169
f 471/4/170 472/4/170 488/4/170 487/4/170
f 472/4/171 473/4/171 489/4/171 488/4/171
f 473/4/172 474/4/172 490/4/172 489/4/172
f 474/4/173 475/4/173 491/4/173 490/4/173
f 475/4/174 476/4/174 492/4/174 491/4/174
f 476/4/175 477/4/175 493/4/175 492/4/175
f 477/4/176 478/4/176 494/4/176 493/4/176
f 478/4/177 479/4/177 495/4/177 494/4/177
f 479/4/178 480/4/178 496/4/178 495/4/178
f 480/4/179 481/4/179 497/4/179 496/4/179
f 481/4/180 482/4/180 498/4/180 497/4/180
f 482/4/181 483/4/181 499/4/181 498/4/181
f 483/4/182 484/4/182 500/4/182 499/4/182
f 484/4/183 470/4/183 485/4/183 500/4/183
f 501/4/1 502/4/1 503/4/1 504/4/1 505/4/1 506/4/1 507/4/1 508/4/1 509/4/1 510/4/1 511/4/1 512/4/1 513/4/1 514/4/1 515/4/1 516/4/1
f 516/4/184 515/4/184 517/4/184 518/4/184
f 515/4/185 514/4/185 519/4/185 517/4/185
f 514/4/186 513/4/186 520/4/186 519/4/186
f 513/4/187 512/4/187 521/4/187 520/4/187
f 512/4/188 511/4/188 522/4/188 521/4/188
f 511/4/189 510/4/189 523/4/189 522/4/189
f 510/4/190 509/4/190 524/4/190 523/4/190
f 509/4/191 508/4/191 525/4/191 524/4/191
f 508/4/192 507/4/192 526/4/192 525/4/192
f 507/4/193 506/4/193 527/4/193 526/4/193
f 506/4/194 505/4/194 528/4/194 527/4/194
f 505/4/195 504/4/195 529/4/195 528/4/195
f 504/4/196 503/4/196 530/4/196 529/4/196
f 503/4/197 502/4/197 531/4/197 530/4/197
f 502/4/198 501/4/198 532/4/198 531/4/198
f 501/4/199 516/4/199 518/4/199 532/4/199
f 518/4/200 517/4/200 533/4/200 534/4/200
f 517/4/201 519/4/201 535/4/201 533/4/201
f 519/4/202 520/4/202 536/4/202 535/4/202
f 520/4/203 521/4/203 537/4/203 536/4/203
f 521/4/204 522/4/204 538/4/204 537/4/204
f 522/4/205 523/4/205 539/4/205 538/4/205
f 523/4/206 524/4/206 540/4/206 539/4/206
f 524/4/207 525/4/207 541/4/207 540/4/207
f 525/4/208 526/4/208 542/4/208 541/4/208
f 526/4/209 527/4/209 543/4/209 542/4/209
f 527/4/210 528/4/210 544/4/210 543/4/210
f 528/4/211 529/4/211 545/4/211 544/4/211
f 529/4/212 530/4/212 546/4/212 545/4/212
f 530/4/213 531/4/213 547/4/213 546/4/213
f 531/4/214 532/4/214 548/4/214 547/4/214
f 532/4/215 518/4/215 534/4/215 548/4/215
f 549/4/2 550/4/2 551/4/2 552/4/2 553/4/2 554/4/2 555/4/2 556/4/2 557/4/2 558/4/2 559/4/2 560/4/2 561/4/2 562/4/2 563/4/2 564/4/2
f 534/4/216 533/4/216 550/4/216 549/4/216
f 533/4/217 535/4/217 551/4/217 550/4/217
f 535/4/218 536/4/218 552/4/218 551/4/218
f 536/4/219 537/4/219 553/4/219 552/4/219
f 537/4/220 538/4/220 554/4/220 553/4/220
f 538/4/221 539/4/221 555/4/221 554/4/221
f 539/4/222 540/4/222 556/4/222 555/4/222
f 540/4/223 541/4/223 557/4/223 556/4/223
f 541/4/224 542/4/224 558/4/224 557/4/224
f 542/4/225 543/4/225 559/4/225 558/4/225
f 543/4/226 544/4/226 560/4/226 559/4/226
f 544/4/227 545/4/227 561/4/227 560/4/227
f 545/4/228 546/4/228 562/4/228 561/4/228
f 546/4/229 547/4/229 563/4/229 562/4/229
f 547/4/230 548/4/230 564/4/230 563/4/230
f 548/4/231 534/4/231 549/4/231 564/4/231
f 565/4/1 566/4/1 567/4/1 568/4/1 569/4/1 570/4/1 571/4/1 572/4/1 573/4/1 574/4/1 575/4/1 576/4/1 577/4/1 578/4/1 579/4/1 580/4/1
f 580/4/184 579/4/184 581/4/184 582/4/184
f 579/4/185 578/4/185 583/4/185 581/4/185
f 578/4/186 577/4/186 584/4/186 583/4/186
f 577/4/187 576/4/187 585/4/187 584/4/187
f 576/4/188 575/4/188 586/4/188 585/4/188
f 575/4/189 574/4/189 587/4/189 586/4/189
f 574/4/190 573/4/190 588/4/190 587/4/190
f 573/4/191 572/4/191 589/4/191 588/4/191
f 572/4/192 571/4/192 590/4/192 589/4/192
f 571/4/193 570/4/193 591/4/193 590/4/193
f 570/4/194 569/4/194 592/4/194 591/4/194
f 569/4/195 568/4/195 593/4/195 592/4/195
f 568/4/196 567/4/196 594/4/196 593/4/196
f 567/4/197 566/4/197 595/4/197 594/4/197
f 566/4/198 565/4/198 596/4/198 595/4/198
f 565/4/199 580/4/199 582/4/199 596/4/199
f 582/4/200 581/4/200 597/4/200 598/4/200
f 581/4/201 583/4/201 599/4/201 597/4/201
f 583/4/202 584/4/202 600/4/202 599/4/202
f 584/4/203 585/4/203 601/4/203 600/4/203
f 585/4/204 586/4/204 602/4/204 601/4/204
f 586/4/205 587/4/205 603/4/205 602/4/205
f 587/4/206 588/4/206 604/4/206 603/4/206
f 588/4/207 589/4/207 605/4/207 604/4/207
f 589/4/208 590/4/208 606/4/208 605/4/208
f 590/4/209 591/4/209 607/4/209 606/4/209
f 591/4/210 592/4/210 608/4/210 607/4/210
f 592/4/211 593/4/211 609/4/211 608/4/211
f 593/4/212 594/4/212 610/4/212 609/4/212
f 594/4/213 595/4/213 611/4/213 610/4/213
f 595/4/214 596/4/214 612/4/214 611/4/214
f 596/4/215 582/4/215 598/4/215 612/4/215
f 613/4/2 614/4/2 615/4/2 616/4/2 617/4/2 618/4/2 619/4/2 620/4/2 621/4/2 622/4/2 623/4/2 624/4/2 625/4/2 626/4/2 627/4/2 628/4/2
f 598/4/216 597/4/216 614/4/216 613/4/216
f 597/4/217 599/4/217 615/4/217 614/4/217
f 599/4/218 600/4/218 616/4/218 615/4/218
f 600/4/219 601/4/219 617/4/219 616/4/219
f 601/4/220 602/4/220 618/4/220 617/4/220
f 602/4/221 603/4/221 619/4/221 618/4/221
f 603/4/222 604/4/222 620/4/222 619/4/222
f 604/4/223 605/4/223 621/4/223 620/4/223
f 605/4/224 606/4/224 622/4/224 621/4/224
f 606/4/225 607/4/225 623/4/225 622/4/225
f 607/4/226 608/4/226 624/4/226 623/4/226
f 608/4/227 609/4/227 625/4/227 624/4/227
f 609/4/228 610/4/228 626/4/228 625/4/228
f 610/4/229 611/4/229 627/4/229 626/4/229
f 611/4/230 612/4/230 628/4/230 627/4/230
f 612/4/231 598/4/231 613/4/231 628/4/231
f 629/4/1 630/4/1 631/4/1 632/4/1 633/4/1 634/4/1 635/4/1 636/4/1 637/4/1 638/4/1 639/4/1 640/4/1 641/4/1 642/4/1 643/4/1 644/4/1
f 644/4/184 643/4/184 645/4/184 646/4/184
f 643/4/185 642/4/185 647/4/185 645/4/185
f 642/4/186 641/4/186 648/4/186 647/4/186
f 641/4/187 640/4/187 649/4/187 648/4/187
f 640/4/188 639/4/188 650/4/188 649/4/188
f 639/4/189 638/4/189 651/4/189 650/4/189
f 638/4/190 637/4/190 652/4/190 651/4/190
f 637/4/191 636/4/191 653/4/191 652/4/191
f 636/4/192 635/4/192 654/4/192 653/4/192
f 635/4/193 634/4/193 655/4/193 654/4/193
f 634/4/194 633/4/194 656/4/194 655/4/194
f 633/4/195 632/4/195 657/4/195 656/4/195
f 632/4/196 631/4/196 658/4/196 657/4/196
f 631/4/197 630/4/197 659/4/197 658/4/197
f 630/4/198 629/4/198 660/4/198 659/4/198
f 629/4/199 644/4/199 646/4/199 660/4/199
f 646/4/200 645/4/200 661/4/200 662/4/200
f 645/4/201 647/4/201 663/4/201 661/4/201
f 647/4/202 648/4/202 664/4/202 663/4/202
f 648/4/203 649/4/203 665/4/203 664/4/203
f 649/4/204 650/4/204 666/4/204 665/4/204
f 650/4/205 651/4/205 667/4/205 666/4/205
f 651/4/206 652/4/206 668/4/206 667/4/206
f 652/4/207 653/4/207 669/4/207 668/4/207
f 653/4/208 654/4/208 670/4/208 669/4/208
f 654/4/209 655/4/209 671/4/209 670/4/209
f 655/4/210 656/4/210 672/4/210 671/4/210
f 656/4/211 657/4/211 673/4/211 672/4/211
f 657/4/212 658/4/212 674/4/212 673/4/212
f 658/4/213 659/4/213 675/4/213 674/4/213
f 659/4/214 660/4/214 676/4/214 675/4/214
f 660/4/215 646/4/215 662/4/215 676/4/215
f 677/4/2 678/4/2 679/4/2 680/4/2 681/4/2 682/4/2 683/4/2 684/4/2 685/4/2 686/4/2 687/4/2 688/4/2 689/4/2 690/4/2 691/4/2 692/4/2
f 662/4/216 661/4/216 678/4/216 677/4/216
f 661/4/217 663/4/217 679/4/217 678/4/217
f 663/4/218 664/4/218 680/4/218 679/4/218
f 664/4/219 665/4/219 681/4/219 680/4/219
f 665/4/220 666/4/220 682/4/220 681/4/220
f 666/4/221 667/4/221 683/4/221 682/4/221
f 667/4/222 668/4/222 684/4/222 683/4/222
f 668/4/223 669/4/223 685/4/223 684/4/223
f 669/4/224 670/4/224 686/4/224 685/4/224
f 670/4/225 671/4/225 687/4/225 686/4/225
f 671/4/226 672/4/226 688/4/226 687/4/226
f 672/4/227 673/4/227 689/4/227 688/4/227
f 673/4/228 674/4/228 690/4/228 689/4/228
f 674/4/229 675/4/229 691/4/229 690/4/229
f 675/4/230 676/4/230 692/4/230 691/4/230
f 676/4/231 662/4/231 677/4/231 692/4/231
