# Blender 5.2.0 LTS
# www.blender.org
mtllib FN_Trolley_Butcher.mtl
o FN_Trolley_Butcher
v -0.314594 0.016347 0.214000
v -0.337094 0.000000 0.214000
v -0.364906 0.000000 0.214000
v -0.387406 0.016347 0.214000
v -0.396000 0.042798 0.214000
v -0.387406 0.069248 0.214000
v -0.364906 0.085595 0.214000
v -0.337094 0.085595 0.214000
v -0.314594 0.069248 0.214000
v -0.306000 0.042798 0.214000
v -0.306000 0.042798 0.186000
v -0.314594 0.069248 0.186000
v -0.337094 0.085595 0.186000
v -0.364906 0.085595 0.186000
v -0.387406 0.069248 0.186000
v -0.396000 0.042798 0.186000
v -0.387406 0.016347 0.186000
v -0.364906 0.000000 0.186000
v -0.337094 0.000000 0.186000
v -0.314594 0.016347 0.186000
v -0.369000 0.059798 0.222000
v -0.369000 0.059798 0.178000
v -0.333000 0.059798 0.178000
v -0.333000 0.059798 0.222000
v -0.369000 0.097798 0.222000
v -0.333000 0.097798 0.222000
v -0.333000 0.097798 0.178000
v -0.369000 0.097798 0.178000
v -0.314594 0.016347 -0.186000
v -0.337094 0.000000 -0.186000
v -0.364906 0.000000 -0.186000
v -0.387406 0.016347 -0.186000
v -0.396000 0.042798 -0.186000
v -0.387406 0.069248 -0.186000
v -0.364906 0.085595 -0.186000
v -0.337094 0.085595 -0.186000
v -0.314594 0.069248 -0.186000
v -0.306000 0.042798 -0.186000
v -0.306000 0.042798 -0.214000
v -0.314594 0.069248 -0.214000
v -0.337094 0.085595 -0.214000
v -0.364906 0.085595 -0.214000
v -0.387406 0.069248 -0.214000
v -0.396000 0.042798 -0.214000
v -0.387406 0.016347 -0.214000
v -0.364906 0.000000 -0.214000
v -0.337094 0.000000 -0.214000
v -0.314594 0.016347 -0.214000
v -0.369000 0.059798 -0.178000
v -0.369000 0.059798 -0.222000
v -0.333000 0.059798 -0.222000
v -0.333000 0.059798 -0.178000
v -0.369000 0.097798 -0.178000
v -0.333000 0.097798 -0.178000
v -0.333000 0.097798 -0.222000
v -0.369000 0.097798 -0.222000
v 0.435406 0.016347 0.214000
v 0.412906 0.000000 0.214000
v 0.385094 0.000000 0.214000
v 0.362594 0.016347 0.214000
v 0.354000 0.042798 0.214000
v 0.362594 0.069248 0.214000
v 0.385094 0.085595 0.214000
v 0.412906 0.085595 0.214000
v 0.435406 0.069248 0.214000
v 0.444000 0.042798 0.214000
v 0.444000 0.042798 0.186000
v 0.435406 0.069248 0.186000
v 0.412906 0.085595 0.186000
v 0.385094 0.085595 0.186000
v 0.362594 0.069248 0.186000
v 0.354000 0.042798 0.186000
v 0.362594 0.016347 0.186000
v 0.385094 0.000000 0.186000
v 0.412906 0.000000 0.186000
v 0.435406 0.016347 0.186000
v 0.381000 0.059798 0.222000
v 0.381000 0.059798 0.178000
v 0.417000 0.059798 0.178000
v 0.417000 0.059798 0.222000
v 0.381000 0.097798 0.222000
v 0.417000 0.097798 0.222000
v 0.417000 0.097798 0.178000
v 0.381000 0.097798 0.178000
v 0.435406 0.016347 -0.186000
v 0.412906 0.000000 -0.186000
v 0.385094 0.000000 -0.186000
v 0.362594 0.016347 -0.186000
v 0.354000 0.042798 -0.186000
v 0.362594 0.069248 -0.186000
v 0.385094 0.085595 -0.186000
v 0.412906 0.085595 -0.186000
v 0.435406 0.069248 -0.186000
v 0.444000 0.042798 -0.186000
v 0.444000 0.042798 -0.214000
v 0.435406 0.069248 -0.214000
v 0.412906 0.085595 -0.214000
v 0.385094 0.085595 -0.214000
v 0.362594 0.069248 -0.214000
v 0.354000 0.042798 -0.214000
v 0.362594 0.016347 -0.214000
v 0.385094 0.000000 -0.214000
v 0.412906 0.000000 -0.214000
v 0.435406 0.016347 -0.214000
v 0.381000 0.059798 -0.178000
v 0.381000 0.059798 -0.222000
v 0.417000 0.059798 -0.222000
v 0.417000 0.059798 -0.178000
v 0.381000 0.097798 -0.178000
v 0.417000 0.097798 -0.178000
v 0.417000 0.097798 -0.222000
v 0.381000 0.097798 -0.222000
v -0.371000 0.087798 0.220000
v -0.371000 0.087798 0.180000
v -0.331000 0.087798 0.180000
v -0.331000 0.087798 0.220000
v -0.371000 0.807798 0.220000
v -0.331000 0.807798 0.220000
v -0.331000 0.807798 0.180000
v -0.371000 0.807798 0.180000
v -0.371000 0.087798 -0.180000
v -0.371000 0.087798 -0.220000
v -0.331000 0.087798 -0.220000
v -0.331000 0.087798 -0.180000
v -0.371000 0.807798 -0.180000
v -0.331000 0.807798 -0.180000
v -0.331000 0.807798 -0.220000
v -0.371000 0.807798 -0.220000
v 0.379000 0.087798 0.220000
v 0.379000 0.087798 0.180000
v 0.419000 0.087798 0.180000
v 0.419000 0.087798 0.220000
v 0.379000 0.807798 0.220000
v 0.419000 0.807798 0.220000
v 0.419000 0.807798 0.180000
v 0.379000 0.807798 0.180000
v 0.379000 0.087798 -0.180000
v 0.379000 0.087798 -0.220000
v 0.419000 0.087798 -0.220000
v 0.419000 0.087798 -0.180000
v 0.379000 0.807798 -0.180000
v 0.419000 0.807798 -0.180000
v 0.419000 0.807798 -0.220000
v 0.379000 0.807798 -0.220000
v -0.354000 0.219798 0.210000
v -0.354000 0.219798 -0.210000
v -0.318000 0.219798 -0.210000
v -0.318000 0.219798 0.210000
v -0.354000 0.245798 0.210000
v -0.318000 0.245798 0.210000
v -0.318000 0.245798 -0.210000
v -0.354000 0.245798 -0.210000
v 0.366000 0.219798 0.210000
v 0.366000 0.219798 -0.210000
v 0.402000 0.219798 -0.210000
v 0.402000 0.219798 0.210000
v 0.366000 0.245798 0.210000
v 0.402000 0.245798 0.210000
v 0.402000 0.245798 -0.210000
v 0.366000 0.245798 -0.210000
v -0.386000 0.237798 0.210000
v -0.386000 0.237798 0.150000
v 0.434000 0.237798 0.150000
v 0.434000 0.237798 0.210000
v -0.386000 0.255798 0.210000
v 0.434000 0.255798 0.210000
v 0.434000 0.255798 0.150000
v -0.386000 0.255798 0.150000
v -0.386000 0.237798 0.120000
v -0.386000 0.237798 0.060000
v 0.434000 0.237798 0.060000
v 0.434000 0.237798 0.120000
v -0.386000 0.255798 0.120000
v 0.434000 0.255798 0.120000
v 0.434000 0.255798 0.060000
v -0.386000 0.255798 0.060000
v -0.386000 0.237798 0.030000
v -0.386000 0.237798 -0.030000
v 0.434000 0.237798 -0.030000
v 0.434000 0.237798 0.030000
v -0.386000 0.255798 0.030000
v 0.434000 0.255798 0.030000
v 0.434000 0.255798 -0.030000
v -0.386000 0.255798 -0.030000
v -0.386000 0.237798 -0.060000
v -0.386000 0.237798 -0.120000
v 0.434000 0.237798 -0.120000
v 0.434000 0.237798 -0.060000
v -0.386000 0.255798 -0.060000
v 0.434000 0.255798 -0.060000
v 0.434000 0.255798 -0.120000
v -0.386000 0.255798 -0.120000
v -0.386000 0.237798 -0.150000
v -0.386000 0.237798 -0.210000
v 0.434000 0.237798 -0.210000
v 0.434000 0.237798 -0.150000
v -0.386000 0.255798 -0.150000
v 0.434000 0.255798 -0.150000
v 0.434000 0.255798 -0.210000
v -0.386000 0.255798 -0.210000
v -0.438000 0.687798 0.210000
v -0.438000 0.687798 0.190000
v -0.356000 0.687798 0.190000
v -0.356000 0.687798 0.210000
v -0.438000 0.707798 0.210000
v -0.356000 0.707798 0.210000
v -0.356000 0.707798 0.190000
v -0.438000 0.707798 0.190000
v -0.438000 0.687798 -0.190000
v -0.438000 0.687798 -0.210000
v -0.356000 0.687798 -0.210000
v -0.356000 0.687798 -0.190000
v -0.438000 0.707798 -0.190000
v -0.356000 0.707798 -0.190000
v -0.356000 0.707798 -0.210000
v -0.438000 0.707798 -0.210000
v -0.426686 0.709111 0.200000
v -0.438000 0.713798 0.200000
v -0.449314 0.709111 0.200000
v -0.454000 0.697798 0.200000
v -0.449314 0.686484 0.200000
v -0.438000 0.681798 0.200000
v -0.426686 0.686484 0.200000
v -0.422000 0.697798 0.200000
v -0.422000 0.697798 -0.200000
v -0.426686 0.686484 -0.200000
v -0.438000 0.681798 -0.200000
v -0.449314 0.686484 -0.200000
v -0.454000 0.697798 -0.200000
v -0.449314 0.709111 -0.200000
v -0.438000 0.713798 -0.200000
v -0.426686 0.709111 -0.200000
v -0.406000 0.797798 0.250000
v -0.406000 0.797798 -0.250000
v 0.454000 0.797798 -0.250000
v 0.454000 0.797798 0.250000
v -0.406000 0.889798 0.250000
v 0.454000 0.889798 0.250000
v 0.454000 0.889798 -0.250000
v -0.406000 0.889798 -0.250000
v -0.398000 0.897798 0.242000
v 0.446000 0.897798 0.242000
v 0.446000 0.897798 -0.242000
v -0.398000 0.897798 -0.242000
vn -0.0000 -0.0000 -1.0000
vn -0.0000 -0.0000 1.0000
vn -0.9511 -0.3090 -0.0000
vn -0.5878 -0.8090 -0.0000
vn -0.0000 -1.0000 -0.0000
vn 0.5878 -0.8090 -0.0000
vn 0.9511 -0.3090 -0.0000
vn 0.9511 0.3090 -0.0000
vn 0.5878 0.8090 -0.0000
vn -0.0000 1.0000 -0.0000
vn -0.5878 0.8090 -0.0000
vn -0.9511 0.3090 -0.0000
vn -1.0000 -0.0000 -0.0000
vn 1.0000 -0.0000 -0.0000
vn 0.9239 -0.3827 -0.0000
vn 0.3827 -0.9239 -0.0000
vn -0.3827 -0.9239 -0.0000
vn -0.9239 -0.3827 -0.0000
vn -0.9239 0.3827 -0.0000
vn -0.3827 0.9239 -0.0000
vn 0.3827 0.9239 -0.0000
vn 0.9239 0.3827 -0.0000
vn -0.0000 0.7071 0.7071
vn 0.7071 0.7071 -0.0000
vn -0.0000 0.7071 -0.7071
vn -0.7071 0.7071 -0.0000
vt 0.937500 0.187500
vt 0.062500 0.312500
vt 0.687500 0.937500
vt 0.312500 0.937500
s 0
usemtl FN_Atlas
f 1/1/1 2/1/1 3/1/1 4/1/1 5/1/1 6/1/1 7/1/1 8/1/1 9/1/1 10/1/1
f 11/1/2 12/1/2 13/1/2 14/1/2 15/1/2 16/1/2 17/1/2 18/1/2 19/1/2 20/1/2
f 10/1/3 9/1/3 12/1/3 11/1/3
f 9/1/4 8/1/4 13/1/4 12/1/4
f 8/1/5 7/1/5 14/1/5 13/1/5
f 7/1/6 6/1/6 15/1/6 14/1/6
f 6/1/7 5/1/7 16/1/7 15/1/7
f 5/1/8 4/1/8 17/1/8 16/1/8
f 4/1/9 3/1/9 18/1/9 17/1/9
f 3/1/10 2/1/10 19/1/10 18/1/10
f 2/1/11 1/1/11 20/1/11 19/1/11
f 1/1/12 10/1/12 11/1/12 20/1/12
f 21/2/5 22/2/5 23/2/5 24/2/5
f 25/2/10 26/2/10 27/2/10 28/2/10
f 21/2/2 24/2/2 26/2/2 25/2/2
f 23/2/1 22/2/1 28/2/1 27/2/1
f 21/2/13 25/2/13 28/2/13 22/2/13
f 24/2/14 23/2/14 27/2/14 26/2/14
f 29/1/1 30/1/1 31/1/1 32/1/1 33/1/1 34/1/1 35/1/1 36/1/1 37/1/1 38/1/1
f 39/1/2 40/1/2 41/1/2 42/1/2 43/1/2 44/1/2 45/1/2 46/1/2 47/1/2 48/1/2
f 38/1/3 37/1/3 40/1/3 39/1/3
f 37/1/4 36/1/4 41/1/4 40/1/4
f 36/1/5 35/1/5 42/1/5 41/1/5
f 35/1/6 34/1/6 43/1/6 42/1/6
f 34/1/7 33/1/7 44/1/7 43/1/7
f 33/1/8 32/1/8 45/1/8 44/1/8
f 32/1/9 31/1/9 46/1/9 45/1/9
f 31/1/10 30/1/10 47/1/10 46/1/10
f 30/1/11 29/1/11 48/1/11 47/1/11
f 29/1/12 38/1/12 39/1/12 48/1/12
f 49/2/5 50/2/5 51/2/5 52/2/5
f 53/2/10 54/2/10 55/2/10 56/2/10
f 49/2/2 52/2/2 54/2/2 53/2/2
f 51/2/1 50/2/1 56/2/1 55/2/1
f 49/2/13 53/2/13 56/2/13 50/2/13
f 52/2/14 51/2/14 55/2/14 54/2/14
f 57/1/1 58/1/1 59/1/1 60/1/1 61/1/1 62/1/1 63/1/1 64/1/1 65/1/1 66/1/1
f 67/1/2 68/1/2 69/1/2 70/1/2 71/1/2 72/1/2 73/1/2 74/1/2 75/1/2 76/1/2
f 66/1/3 65/1/3 68/1/3 67/1/3
f 65/1/4 64/1/4 69/1/4 68/1/4
f 64/1/5 63/1/5 70/1/5 69/1/5
f 63/1/6 62/1/6 71/1/6 70/1/6
f 62/1/7 61/1/7 72/1/7 71/1/7
f 61/1/8 60/1/8 73/1/8 72/1/8
f 60/1/9 59/1/9 74/1/9 73/1/9
f 59/1/10 58/1/10 75/1/10 74/1/10
f 58/1/11 57/1/11 76/1/11 75/1/11
f 57/1/12 66/1/12 67/1/12 76/1/12
f 77/2/5 78/2/5 79/2/5 80/2/5
f 81/2/10 82/2/10 83/2/10 84/2/10
f 77/2/2 80/2/2 82/2/2 81/2/2
f 79/2/1 78/2/1 84/2/1 83/2/1
f 77/2/13 81/2/13 84/2/13 78/2/13
f 80/2/14 79/2/14 83/2/14 82/2/14
f 85/1/1 86/1/1 87/1/1 88/1/1 89/1/1 90/1/1 91/1/1 92/1/1 93/1/1 94/1/1
f 95/1/2 96/1/2 97/1/2 98/1/2 99/1/2 100/1/2 101/1/2 102/1/2 103/1/2 104/1/2
f 94/1/3 93/1/3 96/1/3 95/1/3
f 93/1/4 92/1/4 97/1/4 96/1/4
f 92/1/5 91/1/5 98/1/5 97/1/5
f 91/1/6 90/1/6 99/1/6 98/1/6
f 90/1/7 89/1/7 100/1/7 99/1/7
f 89/1/8 88/1/8 101/1/8 100/1/8
f 88/1/9 87/1/9 102/1/9 101/1/9
f 87/1/10 86/1/10 103/1/10 102/1/10
f 86/1/11 85/1/11 104/1/11 103/1/11
f 85/1/12 94/1/12 95/1/12 104/1/12
f 105/2/5 106/2/5 107/2/5 108/2/5
f 109/2/10 110/2/10 111/2/10 112/2/10
f 105/2/2 108/2/2 110/2/2 109/2/2
f 107/2/1 106/2/1 112/2/1 111/2/1
f 105/2/13 109/2/13 112/2/13 106/2/13
f 108/2/14 107/2/14 111/2/14 110/2/14
f 113/3/5 114/3/5 115/3/5 116/3/5
f 117/3/10 118/3/10 119/3/10 120/3/10
f 113/3/2 116/3/2 118/3/2 117/3/2
f 115/3/1 114/3/1 120/3/1 119/3/1
f 113/3/13 117/3/13 120/3/13 114/3/13
f 116/3/14 115/3/14 119/3/14 118/3/14
f 121/3/5 122/3/5 123/3/5 124/3/5
f 125/3/10 126/3/10 127/3/10 128/3/10
f 121/3/2 124/3/2 126/3/2 125/3/2
f 123/3/1 122/3/1 128/3/1 127/3/1
f 121/3/13 125/3/13 128/3/13 122/3/13
f 124/3/14 123/3/14 127/3/14 126/3/14
f 129/3/5 130/3/5 131/3/5 132/3/5
f 133/3/10 134/3/10 135/3/10 136/3/10
f 129/3/2 132/3/2 134/3/2 133/3/2
f 131/3/1 130/3/1 136/3/1 135/3/1
f 129/3/13 133/3/13 136/3/13 130/3/13
f 132/3/14 131/3/14 135/3/14 134/3/14
f 137/3/5 138/3/5 139/3/5 140/3/5
f 141/3/10 142/3/10 143/3/10 144/3/10
f 137/3/2 140/3/2 142/3/2 141/3/2
f 139/3/1 138/3/1 144/3/1 143/3/1
f 137/3/13 141/3/13 144/3/13 138/3/13
f 140/3/14 139/3/14 143/3/14 142/3/14
f 145/3/5 146/3/5 147/3/5 148/3/5
f 149/3/10 150/3/10 151/3/10 152/3/10
f 145/3/2 148/3/2 150/3/2 149/3/2
f 147/3/1 146/3/1 152/3/1 151/3/1
f 145/3/13 149/3/13 152/3/13 146/3/13
f 148/3/14 147/3/14 151/3/14 150/3/14
f 153/3/5 154/3/5 155/3/5 156/3/5
f 157/3/10 158/3/10 159/3/10 160/3/10
f 153/3/2 156/3/2 158/3/2 157/3/2
f 155/3/1 154/3/1 160/3/1 159/3/1
f 153/3/13 157/3/13 160/3/13 154/3/13
f 156/3/14 155/3/14 159/3/14 158/3/14
f 161/3/5 162/3/5 163/3/5 164/3/5
f 165/3/10 166/3/10 167/3/10 168/3/10
f 161/3/2 164/3/2 166/3/2 165/3/2
f 163/3/1 162/3/1 168/3/1 167/3/1
f 161/3/13 165/3/13 168/3/13 162/3/13
f 164/3/14 163/3/14 167/3/14 166/3/14
f 169/3/5 170/3/5 171/3/5 172/3/5
f 173/3/10 174/3/10 175/3/10 176/3/10
f 169/3/2 172/3/2 174/3/2 173/3/2
f 171/3/1 170/3/1 176/3/1 175/3/1
f 169/3/13 173/3/13 176/3/13 170/3/13
f 172/3/14 171/3/14 175/3/14 174/3/14
f 177/3/5 178/3/5 179/3/5 180/3/5
f 181/3/10 182/3/10 183/3/10 184/3/10
f 177/3/2 180/3/2 182/3/2 181/3/2
f 179/3/1 178/3/1 184/3/1 183/3/1
f 177/3/13 181/3/13 184/3/13 178/3/13
f 180/3/14 179/3/14 183/3/14 182/3/14
f 185/3/5 186/3/5 187/3/5 188/3/5
f 189/3/10 190/3/10 191/3/10 192/3/10
f 185/3/2 188/3/2 190/3/2 189/3/2
f 187/3/1 186/3/1 192/3/1 191/3/1
f 185/3/13 189/3/13 192/3/13 186/3/13
f 188/3/14 187/3/14 191/3/14 190/3/14
f 193/3/5 194/3/5 195/3/5 196/3/5
f 197/3/10 198/3/10 199/3/10 200/3/10
f 193/3/2 196/3/2 198/3/2 197/3/2
f 195/3/1 194/3/1 200/3/1 199/3/1
f 193/3/13 197/3/13 200/3/13 194/3/13
f 196/3/14 195/3/14 199/3/14 198/3/14
f 201/2/5 202/2/5 203/2/5 204/2/5
f 205/2/10 206/2/10 207/2/10 208/2/10
f 201/2/2 204/2/2 206/2/2 205/2/2
f 203/2/1 202/2/1 208/2/1 207/2/1
f 201/2/13 205/2/13 208/2/13 202/2/13
f 204/2/14 203/2/14 207/2/14 206/2/14
f 209/2/5 210/2/5 211/2/5 212/2/5
f 213/2/10 214/2/10 215/2/10 216/2/10
f 209/2/2 212/2/2 214/2/2 213/2/2
f 211/2/1 210/2/1 216/2/1 215/2/1
f 209/2/13 213/2/13 216/2/13 210/2/13
f 212/2/14 211/2/14 215/2/14 214/2/14
f 217/2/2 218/2/2 219/2/2 220/2/2 221/2/2 222/2/2 223/2/2 224/2/2
f 225/2/1 226/2/1 227/2/1 228/2/1 229/2/1 230/2/1 231/2/1 232/2/1
f 224/2/15 223/2/15 226/2/15 225/2/15
f 223/2/16 222/2/16 227/2/16 226/2/16
f 222/2/17 221/2/17 228/2/17 227/2/17
f 221/2/18 220/2/18 229/2/18 228/2/18
f 220/2/19 219/2/19 230/2/19 229/2/19
f 219/2/20 218/2/20 231/2/20 230/2/20
f 218/2/21 217/2/21 232/2/21 231/2/21
f 217/2/22 224/2/22 225/2/22 232/2/22
f 233/4/5 234/4/5 235/4/5 236/4/5
f 237/4/10 238/4/10 239/4/10 240/4/10
f 233/4/2 236/4/2 238/4/2 237/4/2
f 235/4/1 234/4/1 240/4/1 239/4/1
f 233/4/13 237/4/13 240/4/13 234/4/13
f 236/4/14 235/4/14 239/4/14 238/4/14
f 241/4/10 242/4/10 243/4/10 244/4/10
f 237/4/23 238/4/23 242/4/23 241/4/23
f 238/4/24 239/4/24 243/4/24 242/4/24
f 239/4/25 240/4/25 244/4/25 243/4/25
f 240/4/26 237/4/26 241/4/26 244/4/26
