# Blender 5.2.0 LTS
# www.blender.org
mtllib FN_Table_Bedside_Round.mtl
o FN_Table_Bedside_Round
v 0.014142 0.526538 -0.142984
v 0.000000 0.527590 -0.148747
v -0.014142 0.526538 -0.142984
v -0.020000 0.524000 -0.129072
v -0.014142 0.521462 -0.115159
v 0.000000 0.520410 -0.109397
v 0.014142 0.521462 -0.115159
v 0.020000 0.524000 -0.129072
v 0.013000 0.005600 -0.223072
v 0.009192 0.003967 -0.214026
v 0.000000 0.003291 -0.210278
v -0.009192 0.003967 -0.214026
v -0.013000 0.005600 -0.223072
v -0.009192 0.007233 -0.232118
v 0.000000 0.007909 -0.235865
v 0.009192 0.007233 -0.232118
v 0.011667 0.297918 -0.158461
v 0.016500 0.300000 -0.169941
v 0.000000 0.297056 -0.153706
v -0.011667 0.297918 -0.158461
v -0.016500 0.300000 -0.169941
v -0.011667 0.302082 -0.181421
v 0.000000 0.302944 -0.186177
v 0.011667 0.302082 -0.181421
v 0.008000 0.000000 -0.209215
v -0.008000 0.000000 -0.209215
v -0.016000 0.000000 -0.223072
v -0.008000 0.000000 -0.236928
v 0.008000 0.000000 -0.236928
v 0.016000 0.000000 -0.223072
v 0.013440 0.014000 -0.223072
v 0.006720 0.014000 -0.234711
v -0.006720 0.014000 -0.234711
v -0.013440 0.014000 -0.223072
v -0.006720 0.014000 -0.211432
v 0.006720 0.014000 -0.211432
v 0.008000 0.007700 -0.236928
v 0.016000 0.007700 -0.223072
v -0.008000 0.007700 -0.236928
v -0.016000 0.007700 -0.223072
v -0.008000 0.007700 -0.209215
v 0.008000 0.007700 -0.209215
v -0.121329 0.520539 0.090843
v -0.135380 0.522227 0.085009
v -0.149267 0.524954 0.090843
v -0.154855 0.527121 0.104928
v -0.148871 0.527461 0.119013
v -0.134820 0.525773 0.124848
v -0.120933 0.523046 0.119013
v -0.115345 0.520879 0.104928
v -0.203662 0.003592 0.151926
v -0.207297 0.004987 0.161083
v -0.216326 0.006740 0.164877
v -0.225461 0.007826 0.161086
v -0.229350 0.007608 0.151930
v -0.225716 0.006213 0.142774
v -0.216687 0.004460 0.138980
v -0.207552 0.003374 0.142771
v -0.158806 0.299218 0.136983
v -0.154194 0.297440 0.125362
v -0.170264 0.301454 0.141797
v -0.181858 0.302838 0.136985
v -0.186794 0.302560 0.125364
v -0.182183 0.300782 0.113743
v -0.170724 0.298546 0.108929
v -0.159130 0.297162 0.113741
v -0.208506 0.000000 0.165785
v -0.224506 0.000000 0.165785
v -0.232506 0.000000 0.151928
v -0.224506 0.000000 0.138072
v -0.208506 0.000000 0.138072
v -0.200506 0.000000 0.151928
v -0.203066 0.014000 0.151928
v -0.209786 0.014000 0.140289
v -0.223226 0.014000 0.140289
v -0.229946 0.014000 0.151928
v -0.223226 0.014000 0.163568
v -0.209786 0.014000 0.163568
v -0.208506 0.007700 0.138072
v -0.200506 0.007700 0.151928
v -0.224506 0.007700 0.138072
v -0.232506 0.007700 0.151928
v -0.224506 0.007700 0.165785
v -0.208506 0.007700 0.165785
v 0.149267 0.524954 0.090843
v 0.135380 0.522227 0.085009
v 0.121329 0.520539 0.090843
v 0.115345 0.520879 0.104928
v 0.120933 0.523046 0.119013
v 0.134820 0.525773 0.124848
v 0.148871 0.527461 0.119013
v 0.154855 0.527121 0.104928
v 0.229350 0.007608 0.151930
v 0.225461 0.007826 0.161086
v 0.216326 0.006740 0.164877
v 0.207297 0.004987 0.161083
v 0.203662 0.003592 0.151926
v 0.207552 0.003374 0.142771
v 0.216687 0.004460 0.138980
v 0.225716 0.006213 0.142774
v 0.181858 0.302838 0.136985
v 0.186794 0.302560 0.125364
v 0.170264 0.301454 0.141797
v 0.158806 0.299218 0.136983
v 0.154194 0.297440 0.125362
v 0.159130 0.297162 0.113741
v 0.170724 0.298546 0.108929
v 0.182183 0.300782 0.113743
v 0.224506 0.000000 0.165785
v 0.208506 0.000000 0.165785
v 0.200506 0.000000 0.151928
v 0.208506 0.000000 0.138072
v 0.224506 0.000000 0.138072
v 0.232506 0.000000 0.151928
v 0.229946 0.014000 0.151928
v 0.223226 0.014000 0.140289
v 0.209786 0.014000 0.140289
v 0.203066 0.014000 0.151928
v 0.209786 0.014000 0.163568
v 0.223226 0.014000 0.163568
v 0.224506 0.007700 0.138072
v 0.232506 0.007700 0.151928
v 0.208506 0.007700 0.138072
v 0.200506 0.007700 0.151928
v 0.208506 0.007700 0.165785
v 0.224506 0.007700 0.165785
v 0.107170 0.180000 0.071319
v 0.082024 0.180000 0.108953
v 0.044391 0.180000 0.134098
v -0.000000 0.180000 0.142928
v -0.044391 0.180000 0.134098
v -0.082024 0.180000 0.108953
v -0.107170 0.180000 0.071319
v -0.116000 0.180000 0.026928
v -0.107170 0.180000 -0.017463
v -0.082024 0.180000 -0.055096
v -0.044391 0.180000 -0.080242
v 0.000000 0.180000 -0.089072
v 0.044391 0.180000 -0.080242
v 0.082024 0.180000 -0.055096
v 0.107170 0.180000 -0.017463
v 0.116000 0.180000 0.026928
v 0.110866 0.184000 -0.018994
v 0.120000 0.184000 0.026928
v 0.084853 0.184000 -0.057925
v 0.045922 0.184000 -0.083937
v 0.000000 0.184000 -0.093072
v -0.045922 0.184000 -0.083937
v -0.084853 0.184000 -0.057925
v -0.110866 0.184000 -0.018994
v -0.120000 0.184000 0.026928
v -0.110866 0.184000 0.072850
v -0.084853 0.184000 0.111781
v -0.045922 0.184000 0.137794
v -0.000000 0.184000 0.146928
v 0.045922 0.184000 0.137794
v 0.084853 0.184000 0.111781
v 0.110866 0.184000 0.072850
v 0.110866 0.196000 -0.018994
v 0.120000 0.196000 0.026928
v 0.084853 0.196000 -0.057925
v 0.045922 0.196000 -0.083937
v 0.000000 0.196000 -0.093072
v -0.045922 0.196000 -0.083937
v -0.084853 0.196000 -0.057925
v -0.110866 0.196000 -0.018994
v -0.120000 0.196000 0.026928
v -0.110866 0.196000 0.072850
v -0.084853 0.196000 0.111781
v -0.045922 0.196000 0.137794
v -0.000000 0.196000 0.146928
v 0.045922 0.196000 0.137794
v 0.084853 0.196000 0.111781
v 0.110866 0.196000 0.072850
v 0.116000 0.200000 0.026928
v 0.107170 0.200000 -0.017463
v 0.082024 0.200000 -0.055096
v 0.044391 0.200000 -0.080242
v 0.000000 0.200000 -0.089072
v -0.044391 0.200000 -0.080242
v -0.082024 0.200000 -0.055096
v -0.107170 0.200000 -0.017463
v -0.116000 0.200000 0.026928
v -0.107170 0.200000 0.071319
v -0.082024 0.200000 0.108953
v -0.044391 0.200000 0.134098
v -0.000000 0.200000 0.142928
v 0.044391 0.200000 0.134098
v 0.082024 0.200000 0.108953
v 0.107170 0.200000 0.071319
v 0.005500 0.199526 -0.079072
v -0.005500 0.199526 -0.079072
v -0.011000 0.190000 -0.079072
v -0.005500 0.180474 -0.079072
v 0.005500 0.180474 -0.079072
v 0.011000 0.190000 -0.079072
v 0.011000 0.190000 -0.190376
v 0.005500 0.180474 -0.190376
v -0.005500 0.180474 -0.190376
v -0.011000 0.190000 -0.190376
v -0.005500 0.199526 -0.190376
v 0.005500 0.199526 -0.190376
v -0.094549 0.199526 0.075165
v -0.089049 0.199526 0.084691
v -0.086299 0.190000 0.089454
v -0.089049 0.180474 0.084691
v -0.094549 0.180474 0.075165
v -0.097299 0.190000 0.070402
v -0.193691 0.190000 0.126054
v -0.190941 0.180474 0.130817
v -0.185441 0.180474 0.140344
v -0.182691 0.190000 0.145107
v -0.185441 0.199526 0.140344
v -0.190941 0.199526 0.130817
v 0.089049 0.199526 0.084691
v 0.094549 0.199526 0.075165
v 0.097299 0.190000 0.070402
v 0.094549 0.180474 0.075165
v 0.089049 0.180474 0.084691
v 0.086299 0.190000 0.089454
v 0.182691 0.190000 0.145107
v 0.185441 0.180474 0.140344
v 0.190941 0.180474 0.130817
v 0.193691 0.190000 0.126054
v 0.190941 0.199526 0.130817
v 0.185441 0.199526 0.140344
v 0.193064 0.520000 0.089659
v 0.164230 0.520000 0.146249
v 0.119320 0.520000 0.191159
v 0.062730 0.520000 0.219993
v -0.000000 0.520000 0.229928
v -0.062730 0.520000 0.219993
v -0.119320 0.520000 0.191159
v -0.164230 0.520000 0.146249
v -0.193064 0.520000 0.089659
v -0.203000 0.520000 0.026928
v -0.193064 0.520000 -0.035802
v -0.164230 0.520000 -0.092392
v -0.119320 0.520000 -0.137302
v -0.062730 0.520000 -0.166136
v 0.000000 0.520000 -0.176072
v 0.062730 0.520000 -0.166136
v 0.119320 0.520000 -0.137302
v 0.164230 0.520000 -0.092392
v 0.193064 0.520000 -0.035802
v 0.203000 0.520000 0.026928
v 0.199722 0.527000 -0.037965
v 0.210000 0.527000 0.026928
v 0.169894 0.527000 -0.096507
v 0.123435 0.527000 -0.142965
v 0.064894 0.527000 -0.172794
v 0.000000 0.527000 -0.183072
v -0.064894 0.527000 -0.172794
v -0.123435 0.527000 -0.142965
v -0.169894 0.527000 -0.096507
v -0.199722 0.527000 -0.037965
v -0.210000 0.527000 0.026928
v -0.199722 0.527000 0.091822
v -0.169894 0.527000 0.150363
v -0.123435 0.527000 0.196822
v -0.064894 0.527000 0.226650
v -0.000000 0.527000 0.236928
v 0.064894 0.527000 0.226650
v 0.123435 0.527000 0.196822
v 0.169894 0.527000 0.150363
v 0.199722 0.527000 0.091822
v 0.199722 0.543000 -0.037965
v 0.210000 0.543000 0.026928
v 0.169894 0.543000 -0.096507
v 0.123435 0.543000 -0.142965
v 0.064894 0.543000 -0.172794
v 0.000000 0.543000 -0.183072
v -0.064894 0.543000 -0.172794
v -0.123435 0.543000 -0.142965
v -0.169894 0.543000 -0.096507
v -0.199722 0.543000 -0.037965
v -0.210000 0.543000 0.026928
v -0.199722 0.543000 0.091822
v -0.169894 0.543000 0.150363
v -0.123435 0.543000 0.196822
v -0.064894 0.543000 0.226650
v -0.000000 0.543000 0.236928
v 0.064894 0.543000 0.226650
v 0.123435 0.543000 0.196822
v 0.169894 0.543000 0.150363
v 0.199722 0.543000 0.091822
v 0.203000 0.550000 0.026928
v 0.193064 0.550000 -0.035802
v 0.164230 0.550000 -0.092392
v 0.119320 0.550000 -0.137302
v 0.062730 0.550000 -0.166136
v 0.000000 0.550000 -0.176072
v -0.062730 0.550000 -0.166136
v -0.119320 0.550000 -0.137302
v -0.164230 0.550000 -0.092392
v -0.193064 0.550000 -0.035802
v -0.203000 0.550000 0.026928
v -0.193064 0.550000 0.089659
v -0.164230 0.550000 0.146249
v -0.119320 0.550000 0.191159
v -0.062730 0.550000 0.219993
v -0.000000 0.550000 0.229928
v 0.062730 0.550000 0.219993
v 0.119320 0.550000 0.191159
v 0.164230 0.550000 0.146249
v 0.193064 0.550000 0.089659
vn -0.0000 0.9838 0.1795
vn -0.0000 -0.9841 -0.1776
vn 0.9238 -0.0827 0.3739
vn 0.3826 -0.1798 0.9062
vn -0.3826 -0.1798 0.9062
vn -0.9238 -0.0827 0.3739
vn -0.9238 0.0547 -0.3790
vn -0.3826 0.1518 -0.9113
vn 0.3826 0.1518 -0.9113
vn 0.9238 0.0547 -0.3790
vn 0.9238 -0.0786 0.3747
vn 0.3827 -0.1747 0.9072
vn -0.3827 -0.1747 0.9072
vn -0.9238 -0.0786 0.3747
vn -0.9238 0.0573 -0.3785
vn -0.3827 0.1534 -0.9111
vn 0.3827 0.1534 -0.9111
vn 0.9238 0.0573 -0.3785
vn -0.0000 -1.0000 -0.0000
vn -0.0000 1.0000 -0.0000
vn 0.8660 -0.0000 -0.5000
vn -0.0000 -0.0000 -1.0000
vn -0.8660 -0.0000 -0.5000
vn -0.8660 -0.0000 0.5000
vn -0.0000 -0.0000 1.0000
vn 0.8660 -0.0000 0.5000
vn 0.8169 0.3320 -0.4716
vn -0.0000 0.3320 -0.9433
vn -0.8169 0.3320 -0.4716
vn -0.8169 0.3320 0.4716
vn -0.0000 0.3320 0.9433
vn 0.8169 0.3320 0.4716
vn 0.1554 0.9838 -0.0897
vn -0.1538 -0.9841 0.0888
vn 0.9156 -0.1242 0.3824
vn 0.3887 0.0082 0.9213
vn -0.3672 0.1276 0.9213
vn -0.9093 0.1641 0.3824
vn -0.9200 0.0963 -0.3798
vn -0.3931 -0.0361 -0.9188
vn 0.3628 -0.1556 -0.9188
vn 0.9049 -0.1921 -0.3798
vn 0.9164 -0.1197 0.3820
vn 0.3892 0.0113 0.9211
vn -0.3669 0.1295 0.9212
vn -0.9091 0.1656 0.3822
vn -0.9197 0.0985 -0.3800
vn -0.3925 -0.0326 -0.9192
vn 0.3636 -0.1508 -0.9193
vn 0.9058 -0.1869 -0.3803
vn -0.1554 0.9838 -0.0897
vn 0.1538 -0.9841 0.0888
vn 0.9093 0.1641 0.3824
vn 0.3672 0.1276 0.9213
vn -0.3887 0.0082 0.9213
vn -0.9156 -0.1242 0.3824
vn -0.9049 -0.1921 -0.3798
vn -0.3628 -0.1556 -0.9188
vn 0.3931 -0.0361 -0.9188
vn 0.9200 0.0963 -0.3798
vn 0.9091 0.1656 0.3822
vn 0.3669 0.1295 0.9212
vn -0.3892 0.0113 0.9211
vn -0.9164 -0.1197 0.3820
vn -0.9058 -0.1869 -0.3803
vn -0.3636 -0.1508 -0.9193
vn 0.3925 -0.0326 -0.9192
vn 0.9197 0.0985 -0.3800
vn 0.7002 -0.7002 -0.1393
vn 0.5936 -0.7002 -0.3966
vn 0.3966 -0.7002 -0.5936
vn 0.1393 -0.7002 -0.7002
vn -0.1393 -0.7002 -0.7002
vn -0.3966 -0.7002 -0.5936
vn -0.5936 -0.7002 -0.3966
vn -0.7002 -0.7002 -0.1393
vn -0.7002 -0.7002 0.1393
vn -0.5936 -0.7002 0.3966
vn -0.3966 -0.7002 0.5936
vn -0.1393 -0.7002 0.7002
vn 0.1393 -0.7002 0.7002
vn 0.3966 -0.7002 0.5936
vn 0.5936 -0.7002 0.3966
vn 0.7002 -0.7002 0.1393
vn 0.9808 -0.0000 -0.1951
vn 0.8315 -0.0000 -0.5556
vn 0.5556 -0.0000 -0.8315
vn 0.1951 -0.0000 -0.9808
vn -0.1951 -0.0000 -0.9808
vn -0.5556 -0.0000 -0.8315
vn -0.8315 -0.0000 -0.5556
vn -0.9808 -0.0000 -0.1951
vn -0.9808 -0.0000 0.1951
vn -0.8315 -0.0000 0.5556
vn -0.5556 -0.0000 0.8315
vn -0.1951 -0.0000 0.9808
vn 0.1951 -0.0000 0.9808
vn 0.5556 -0.0000 0.8315
vn 0.8315 -0.0000 0.5556
vn 0.9808 -0.0000 0.1951
vn 0.7002 0.7002 -0.1393
vn 0.5936 0.7002 -0.3966
vn 0.3966 0.7002 -0.5936
vn 0.1393 0.7002 -0.7002
vn -0.1393 0.7002 -0.7002
vn -0.3966 0.7002 -0.5936
vn -0.5936 0.7002 -0.3966
vn -0.7002 0.7002 -0.1393
vn -0.7002 0.7002 0.1393
vn -0.5936 0.7002 0.3966
vn -0.3966 0.7002 0.5936
vn -0.1393 0.7002 0.7002
vn 0.1393 0.7002 0.7002
vn 0.3966 0.7002 0.5936
vn 0.5936 0.7002 0.3966
vn 0.7002 0.7002 0.1393
vn 0.8660 -0.5000 -0.0000
vn -0.8660 -0.5000 -0.0000
vn -0.8660 0.5000 -0.0000
vn 0.8660 0.5000 -0.0000
vn -0.4330 -0.5000 -0.7500
vn 0.4330 -0.5000 0.7500
vn 0.4330 0.5000 0.7500
vn -0.4330 0.5000 -0.7500
vn -0.4330 -0.5000 0.7500
vn 0.4330 -0.5000 -0.7500
vn 0.4330 0.5000 -0.7500
vn -0.4330 0.5000 0.7500
vn 0.7027 -0.7027 -0.1113
vn 0.6339 -0.7027 -0.3230
vn 0.5031 -0.7027 -0.5031
vn 0.3230 -0.7027 -0.6339
vn 0.1113 -0.7027 -0.7027
vn -0.1113 -0.7027 -0.7027
vn -0.3230 -0.7027 -0.6339
vn -0.5031 -0.7027 -0.5031
vn -0.6339 -0.7027 -0.3230
vn -0.7027 -0.7027 -0.1113
vn -0.7027 -0.7027 0.1113
vn -0.6339 -0.7027 0.3230
vn -0.5031 -0.7027 0.5031
vn -0.3230 -0.7027 0.6339
vn -0.1113 -0.7027 0.7027
vn 0.1113 -0.7027 0.7027
vn 0.3230 -0.7027 0.6339
vn 0.5031 -0.7027 0.5031
vn 0.6339 -0.7027 0.3230
vn 0.7027 -0.7027 0.1113
vn 0.9877 -0.0000 -0.1564
vn 0.8910 -0.0000 -0.4540
vn 0.7071 -0.0000 -0.7071
vn 0.4540 -0.0000 -0.8910
vn 0.1564 -0.0000 -0.9877
vn -0.1564 -0.0000 -0.9877
vn -0.4540 -0.0000 -0.8910
vn -0.7071 -0.0000 -0.7071
vn -0.8910 -0.0000 -0.4540
vn -0.9877 -0.0000 -0.1564
vn -0.9877 -0.0000 0.1564
vn -0.8910 -0.0000 0.4540
vn -0.7071 -0.0000 0.7071
vn -0.4540 -0.0000 0.8910
vn -0.1564 -0.0000 0.9877
vn 0.1564 -0.0000 0.9877
vn 0.4540 -0.0000 0.8910
vn 0.7071 -0.0000 0.7071
vn 0.8910 -0.0000 0.4540
vn 0.9877 -0.0000 0.1564
vn 0.7027 0.7027 -0.1113
vn 0.6339 0.7027 -0.3230
vn 0.5031 0.7027 -0.5031
vn 0.3230 0.7027 -0.6339
vn 0.1113 0.7027 -0.7027
vn -0.1113 0.7027 -0.7027
vn -0.3230 0.7027 -0.6339
vn -0.5031 0.7027 -0.5031
vn -0.6339 0.7027 -0.3230
vn -0.7027 0.7027 -0.1113
vn -0.7027 0.7027 0.1113
vn -0.6339 0.7027 0.3230
vn -0.5031 0.7027 0.5031
vn -0.3230 0.7027 0.6339
vn -0.1113 0.7027 0.7027
vn 0.1113 0.7027 0.7027
vn 0.3230 0.7027 0.6339
vn 0.5031 0.7027 0.5031
vn 0.6339 0.7027 0.3230
vn 0.7027 0.7027 0.1113
vt 0.437500 0.937500
vt 0.812500 0.312500
vt 0.812500 0.937500
vt 0.687500 0.937500
s 0
usemtl FN_Atlas
f 1/1/1 2/1/1 3/1/1 4/1/1 5/1/1 6/1/1 7/1/1 8/1/1
f 9/1/2 10/1/2 11/1/2 12/1/2 13/1/2 14/1/2 15/1/2 16/1/2
f 8/1/3 7/1/3 17/1/3 18/1/3
f 7/1/4 6/1/4 19/1/4 17/1/4
f 6/1/5 5/1/5 20/1/5 19/1/5
f 5/1/6 4/1/6 21/1/6 20/1/6
f 4/1/7 3/1/7 22/1/7 21/1/7
f 3/1/8 2/1/8 23/1/8 22/1/8
f 2/1/9 1/1/9 24/1/9 23/1/9
f 1/1/10 8/1/10 18/1/10 24/1/10
f 18/1/11 17/1/11 10/1/11 9/1/11
f 17/1/12 19/1/12 11/1/12 10/1/12
f 19/1/13 20/1/13 12/1/13 11/1/13
f 20/1/14 21/1/14 13/1/14 12/1/14
f 21/1/15 22/1/15 14/1/15 13/1/15
f 22/1/16 23/1/16 15/1/16 14/1/16
f 23/1/17 24/1/17 16/1/17 15/1/17
f 24/1/18 18/1/18 9/1/18 16/1/18
f 25/2/19 26/2/19 27/2/19 28/2/19 29/2/19 30/2/19
f 31/2/20 32/2/20 33/2/20 34/2/20 35/2/20 36/2/20
f 30/2/21 29/2/21 37/2/21 38/2/21
f 29/2/22 28/2/22 39/2/22 37/2/22
f 28/2/23 27/2/23 40/2/23 39/2/23
f 27/2/24 26/2/24 41/2/24 40/2/24
f 26/2/25 25/2/25 42/2/25 41/2/25
f 25/2/26 30/2/26 38/2/26 42/2/26
f 38/2/27 37/2/27 32/2/27 31/2/27
f 37/2/28 39/2/28 33/2/28 32/2/28
f 39/2/29 40/2/29 34/2/29 33/2/29
f 40/2/30 41/2/30 35/2/30 34/2/30
f 41/2/31 42/2/31 36/2/31 35/2/31
f 42/2/32 38/2/32 31/2/32 36/2/32
f 43/1/33 44/1/33 45/1/33 46/1/33 47/1/33 48/1/33 49/1/33 50/1/33
f 51/1/34 52/1/34 53/1/34 54/1/34 55/1/34 56/1/34 57/1/34 58/1/34
f 50/1/35 49/1/35 59/1/35 60/1/35
f 49/1/36 48/1/36 61/1/36 59/1/36
f 48/1/37 47/1/37 62/1/37 61/1/37
f 47/1/38 46/1/38 63/1/38 62/1/38
f 46/1/39 45/1/39 64/1/39 63/1/39
f 45/1/40 44/1/40 65/1/40 64/1/40
f 44/1/41 43/1/41 66/1/41 65/1/41
f 43/1/42 50/1/42 60/1/42 66/1/42
f 60/1/43 59/1/43 52/1/43 51/1/43
f 59/1/44 61/1/44 53/1/44 52/1/44
f 61/1/45 62/1/45 54/1/45 53/1/45
f 62/1/46 63/1/46 55/1/46 54/1/46
f 63/1/47 64/1/47 56/1/47 55/1/47
f 64/1/48 65/1/48 57/1/48 56/1/48
f 65/1/49 66/1/49 58/1/49 57/1/49
f 66/1/50 60/1/50 51/1/50 58/1/50
f 67/2/19 68/2/19 69/2/19 70/2/19 71/2/19 72/2/19
f 73/2/20 74/2/20 75/2/20 76/2/20 77/2/20 78/2/20
f 72/2/21 71/2/21 79/2/21 80/2/21
f 71/2/22 70/2/22 81/2/22 79/2/22
f 70/2/23 69/2/23 82/2/23 81/2/23
f 69/2/24 68/2/24 83/2/24 82/2/24
f 68/2/25 67/2/25 84/2/25 83/2/25
f 67/2/26 72/2/26 80/2/26 84/2/26
f 80/2/27 79/2/27 74/2/27 73/2/27
f 79/2/28 81/2/28 75/2/28 74/2/28
f 81/2/29 82/2/29 76/2/29 75/2/29
f 82/2/30 83/2/30 77/2/30 76/2/30
f 83/2/31 84/2/31 78/2/31 77/2/31
f 84/2/32 80/2/32 73/2/32 78/2/32
f 85/1/51 86/1/51 87/1/51 88/1/51 89/1/51 90/1/51 91/1/51 92/1/51
f 93/1/52 94/1/52 95/1/52 96/1/52 97/1/52 98/1/52 99/1/52 100/1/52
f 92/1/53 91/1/53 101/1/53 102/1/53
f 91/1/54 90/1/54 103/1/54 101/1/54
f 90/1/55 89/1/55 104/1/55 103/1/55
f 89/1/56 88/1/56 105/1/56 104/1/56
f 88/1/57 87/1/57 106/1/57 105/1/57
f 87/1/58 86/1/58 107/1/58 106/1/58
f 86/1/59 85/1/59 108/1/59 107/1/59
f 85/1/60 92/1/60 102/1/60 108/1/60
f 102/1/61 101/1/61 94/1/61 93/1/61
f 101/1/62 103/1/62 95/1/62 94/1/62
f 103/1/63 104/1/63 96/1/63 95/1/63
f 104/1/64 105/1/64 97/1/64 96/1/64
f 105/1/65 106/1/65 98/1/65 97/1/65
f 106/1/66 107/1/66 99/1/66 98/1/66
f 107/1/67 108/1/67 100/1/67 99/1/67
f 108/1/68 102/1/68 93/1/68 100/1/68
f 109/2/19 110/2/19 111/2/19 112/2/19 113/2/19 114/2/19
f 115/2/20 116/2/20 117/2/20 118/2/20 119/2/20 120/2/20
f 114/2/21 113/2/21 121/2/21 122/2/21
f 113/2/22 112/2/22 123/2/22 121/2/22
f 112/2/23 111/2/23 124/2/23 123/2/23
f 111/2/24 110/2/24 125/2/24 124/2/24
f 110/2/25 109/2/25 126/2/25 125/2/25
f 109/2/26 114/2/26 122/2/26 126/2/26
f 122/2/27 121/2/27 116/2/27 115/2/27
f 121/2/28 123/2/28 117/2/28 116/2/28
f 123/2/29 124/2/29 118/2/29 117/2/29
f 124/2/30 125/2/30 119/2/30 118/2/30
f 125/2/31 126/2/31 120/2/31 119/2/31
f 126/2/32 122/2/32 115/2/32 120/2/32
f 127/3/19 128/3/19 129/3/19 130/3/19 131/3/19 132/3/19 133/3/19 134/3/19 135/3/19 136/3/19 137/3/19 138/3/19 139/3/19 140/3/19 141/3/19 142/3/19
f 142/3/69 141/3/69 143/3/69 144/3/69
f 141/3/70 140/3/70 145/3/70 143/3/70
f 140/3/71 139/3/71 146/3/71 145/3/71
f 139/3/72 138/3/72 147/3/72 146/3/72
f 138/3/73 137/3/73 148/3/73 147/3/73
f 137/3/74 136/3/74 149/3/74 148/3/74
f 136/3/75 135/3/75 150/3/75 149/3/75
f 135/3/76 134/3/76 151/3/76 150/3/76
f 134/3/77 133/3/77 152/3/77 151/3/77
f 133/3/78 132/3/78 153/3/78 152/3/78
f 132/3/79 131/3/79 154/3/79 153/3/79
f 131/3/80 130/3/80 155/3/80 154/3/80
f 130/3/81 129/3/81 156/3/81 155/3/81
f 129/3/82 128/3/82 157/3/82 156/3/82
f 128/3/83 127/3/83 158/3/83 157/3/83
f 127/3/84 142/3/84 144/3/84 158/3/84
f 144/3/85 143/3/85 159/3/85 160/3/85
f 143/3/86 145/3/86 161/3/86 159/3/86
f 145/3/87 146/3/87 162/3/87 161/3/87
f 146/3/88 147/3/88 163/3/88 162/3/88
f 147/3/89 148/3/89 164/3/89 163/3/89
f 148/3/90 149/3/90 165/3/90 164/3/90
f 149/3/91 150/3/91 166/3/91 165/3/91
f 150/3/92 151/3/92 167/3/92 166/3/92
f 151/3/93 152/3/93 168/3/93 167/3/93
f 152/3/94 153/3/94 169/3/94 168/3/94
f 153/3/95 154/3/95 170/3/95 169/3/95
f 154/3/96 155/3/96 171/3/96 170/3/96
f 155/3/97 156/3/97 172/3/97 171/3/97
f 156/3/98 157/3/98 173/3/98 172/3/98
f 157/3/99 158/3/99 174/3/99 173/3/99
f 158/3/100 144/3/100 160/3/100 174/3/100
f 175/1/20 176/1/20 177/1/20 178/1/20 179/1/20 180/1/20 181/1/20 182/1/20 183/1/20 184/1/20 185/1/20 186/1/20 187/1/20 188/1/20 189/1/20 190/1/20
f 160/3/101 159/3/101 176/3/101 175/3/101
f 159/3/102 161/3/102 177/3/102 176/3/102
f 161/3/103 162/3/103 178/3/103 177/3/103
f 162/3/104 163/3/104 179/3/104 178/3/104
f 163/3/105 164/3/105 180/3/105 179/3/105
f 164/3/106 165/3/106 181/3/106 180/3/106
f 165/3/107 166/3/107 182/3/107 181/3/107
f 166/3/108 167/3/108 183/3/108 182/3/108
f 167/3/109 168/3/109 184/3/109 183/3/109
f 168/3/110 169/3/110 185/3/110 184/3/110
f 169/3/111 170/3/111 186/3/111 185/3/111
f 170/3/112 171/3/112 187/3/112 186/3/112
f 171/3/113 172/3/113 188/3/113 187/3/113
f 172/3/114 173/3/114 189/3/114 188/3/114
f 173/3/115 174/3/115 190/3/115 189/3/115
f 174/3/116 160/3/116 175/3/116 190/3/116
f 191/1/25 192/1/25 193/1/25 194/1/25 195/1/25 196/1/25
f 197/1/22 198/1/22 199/1/22 200/1/22 201/1/22 202/1/22
f 196/1/117 195/1/117 198/1/117 197/1/117
f 195/1/19 194/1/19 199/1/19 198/1/19
f 194/1/118 193/1/118 200/1/118 199/1/118
f 193/1/119 192/1/119 201/1/119 200/1/119
f 192/1/20 191/1/20 202/1/20 201/1/20
f 191/1/120 196/1/120 197/1/120 202/1/120
f 203/1/21 204/1/21 205/1/21 206/1/21 207/1/21 208/1/21
f 209/1/24 210/1/24 211/1/24 212/1/24 213/1/24 214/1/24
f 208/1/121 207/1/121 210/1/121 209/1/121
f 207/1/19 206/1/19 211/1/19 210/1/19
f 206/1/122 205/1/122 212/1/122 211/1/122
f 205/1/123 204/1/123 213/1/123 212/1/123
f 204/1/20 203/1/20 214/1/20 213/1/20
f 203/1/124 208/1/124 209/1/124 214/1/124
f 215/1/23 216/1/23 217/1/23 218/1/23 219/1/23 220/1/23
f 221/1/26 222/1/26 223/1/26 224/1/26 225/1/26 226/1/26
f 220/1/125 219/1/125 222/1/125 221/1/125
f 219/1/19 218/1/19 223/1/19 222/1/19
f 218/1/126 217/1/126 224/1/126 223/1/126
f 217/1/127 216/1/127 225/1/127 224/1/127
f 216/1/20 215/1/20 226/1/20 225/1/20
f 215/1/128 220/1/128 221/1/128 226/1/128
f 227/3/19 228/3/19 229/3/19 230/3/19 231/3/19 232/3/19 233/3/19 234/3/19 235/3/19 236/3/19 237/3/19 238/3/19 239/3/19 240/3/19 241/3/19 242/3/19 243/3/19 244/3/19 245/3/19 246/3/19
f 246/3/129 245/3/129 247/3/129 248/3/129
f 245/3/130 244/3/130 249/3/130 247/3/130
f 244/3/131 243/3/131 250/3/131 249/3/131
f 243/3/132 242/3/132 251/3/132 250/3/132
f 242/3/133 241/3/133 252/3/133 251/3/133
f 241/3/134 240/3/134 253/3/134 252/3/134
f 240/3/135 239/3/135 254/3/135 253/3/135
f 239/3/136 238/3/136 255/3/136 254/3/136
f 238/3/137 237/3/137 256/3/137 255/3/137
f 237/3/138 236/3/138 257/3/138 256/3/138
f 236/3/139 235/3/139 258/3/139 257/3/139
f 235/3/140 234/3/140 259/3/140 258/3/140
f 234/3/141 233/3/141 260/3/141 259/3/141
f 233/3/142 232/3/142 261/3/142 260/3/142
f 232/3/143 231/3/143 262/3/143 261/3/143
f 231/3/144 230/3/144 263/3/144 262/3/144
f 230/3/145 229/3/145 264/3/145 263/3/145
f 229/3/146 228/3/146 265/3/146 264/3/146
f 228/3/147 227/3/147 266/3/147 265/3/147
f 227/3/148 246/3/148 248/3/148 266/3/148
f 248/3/149 247/3/149 267/3/149 268/3/149
f 247/3/150 249/3/150 269/3/150 267/3/150
f 249/3/151 250/3/151 270/3/151 269/3/151
f 250/3/152 251/3/152 271/3/152 270/3/152
f 251/3/153 252/3/153 272/3/153 271/3/153
f 252/3/154 253/3/154 273/3/154 272/3/154
f 253/3/155 254/3/155 274/3/155 273/3/155
f 254/3/156 255/3/156 275/3/156 274/3/156
f 255/3/157 256/3/157 276/3/157 275/3/157
f 256/3/158 257/3/158 277/3/158 276/3/158
f 257/3/159 258/3/159 278/3/159 277/3/159
f 258/3/160 259/3/160 279/3/160 278/3/160
f 259/3/161 260/3/161 280/3/161 279/3/161
f 260/3/162 261/3/162 281/3/162 280/3/162
f 261/3/163 262/3/163 282/3/163 281/3/163
f 262/3/164 263/3/164 283/3/164 282/3/164
f 263/3/165 264/3/165 284/3/165 283/3/165
f 264/3/166 265/3/166 285/3/166 284/3/166
f 265/3/167 266/3/167 286/3/167 285/3/167
f 266/3/168 248/3/168 268/3/168 286/3/168
f 287/4/20 288/4/20 289/4/20 290/4/20 291/4/20 292/4/20 293/4/20 294/4/20 295/4/20 296/4/20 297/4/20 298/4/20 299/4/20 300/4/20 301/4/20 302/4/20 303/4/20 304/4/20 305/4/20 306/4/20
f 268/3/169 267/3/169 288/3/169 287/3/169
f 267/3/170 269/3/170 289/3/170 288/3/170
f 269/3/171 270/3/171 290/3/171 289/3/171
f 270/3/172 271/3/172 291/3/172 290/3/172
f 271/3/173 272/3/173 292/3/173 291/3/173
f 272/3/174 273/3/174 293/3/174 292/3/174
f 273/3/175 274/3/175 294/3/175 293/3/175
f 274/3/176 275/3/176 295/3/176 294/3/176
f 275/3/177 276/3/177 296/3/177 295/3/177
f 276/3/178 277/3/178 297/3/178 296/3/178
f 277/3/179 278/3/179 298/3/179 297/3/179
f 278/3/180 279/3/180 299/3/180 298/3/180
f 279/3/181 280/3/181 300/3/181 299/3/181
f 280/3/182 281/3/182 301/3/182 300/3/182
f 281/3/183 282/3/183 302/3/183 301/3/183
f 282/3/184 283/3/184 303/3/184 302/3/184
f 283/3/185 284/3/185 304/3/185 303/3/185
f 284/3/186 285/3/186 305/3/186 304/3/186
f 285/3/187 286/3/187 306/3/187 305/3/187
f 286/3/188 268/3/188 287/3/188 306/3/188
