# Blender 5.2.0 LTS
# www.blender.org
mtllib FN_Tray_Serving.mtl
o FN_Tray_Serving
v -0.230000 0.000000 0.160000
v -0.230000 0.000000 -0.160000
v 0.230000 0.000000 -0.160000
v 0.230000 0.000000 0.160000
v -0.230000 0.014000 0.160000
v 0.230000 0.014000 0.160000
v 0.230000 0.014000 -0.160000
v -0.230000 0.014000 -0.160000
v 0.230000 0.000000 0.146000
v -0.230000 0.000000 0.146000
v -0.242000 0.062000 0.158000
v 0.242000 0.062000 0.158000
v 0.242000 0.062000 0.172000
v -0.242000 0.062000 0.172000
v 0.230000 0.000000 -0.146000
v -0.230000 0.000000 -0.146000
v -0.242000 0.062000 -0.158000
v 0.242000 0.062000 -0.158000
v 0.242000 0.062000 -0.172000
v -0.242000 0.062000 -0.172000
v -0.216000 0.000000 0.060000
v -0.230000 0.000000 0.060000
v -0.216000 0.000000 0.160000
v -0.228000 0.062000 0.172000
v -0.242000 0.062000 0.064500
v -0.228000 0.062000 0.064500
v -0.216000 0.000000 -0.160000
v -0.230000 0.000000 -0.060000
v -0.216000 0.000000 -0.060000
v -0.228000 0.062000 -0.064500
v -0.242000 0.062000 -0.064500
v -0.228000 0.062000 -0.172000
v -0.221806 0.030000 0.060000
v -0.235806 0.030000 0.060000
v -0.235806 0.030000 -0.060000
v -0.221806 0.030000 -0.060000
v -0.226452 0.054000 -0.060000
v -0.240452 0.054000 -0.060000
v -0.240452 0.054000 0.060000
v -0.226452 0.054000 0.060000
v -0.228000 0.062000 0.060000
v -0.242000 0.062000 0.060000
v -0.242000 0.062000 -0.060000
v -0.228000 0.062000 -0.060000
v 0.216000 0.000000 0.060000
v 0.230000 0.000000 0.060000
v 0.216000 0.000000 0.160000
v 0.228000 0.062000 0.172000
v 0.242000 0.062000 0.064500
v 0.228000 0.062000 0.064500
v 0.216000 0.000000 -0.160000
v 0.230000 0.000000 -0.060000
v 0.216000 0.000000 -0.060000
v 0.228000 0.062000 -0.064500
v 0.242000 0.062000 -0.064500
v 0.228000 0.062000 -0.172000
v 0.221806 0.030000 0.060000
v 0.235806 0.030000 0.060000
v 0.235806 0.030000 -0.060000
v 0.221806 0.030000 -0.060000
v 0.226452 0.054000 -0.060000
v 0.240452 0.054000 -0.060000
v 0.240452 0.054000 0.060000
v 0.226452 0.054000 0.060000
v 0.228000 0.062000 0.060000
v 0.242000 0.062000 0.060000
v 0.242000 0.062000 -0.060000
v 0.228000 0.062000 -0.060000
vn -0.0000 -1.0000 -0.0000
vn -0.0000 1.0000 -0.0000
vn -0.0000 -0.0000 1.0000
vn -0.0000 -0.0000 -1.0000
vn -1.0000 -0.0000 -0.0000
vn 1.0000 -0.0000 -0.0000
vn -0.0000 -0.1900 0.9818
vn -0.9818 0.1900 -0.0000
vn -0.0000 0.1900 -0.9818
vn 0.9818 0.1900 -0.0000
vn -0.0000 0.1900 0.9818
vn 0.9818 -0.1900 -0.0000
vn -0.0000 -0.1900 -0.9818
vn -0.9818 -0.1900 -0.0000
vn -0.0000 -0.0724 0.9974
vn -0.0000 -0.0724 -0.9974
vn -0.0000 0.0724 -0.9974
vn -0.0000 0.0724 0.9974
vt 0.312500 0.187500
vt 0.687500 0.937500
s 0
usemtl FN_Atlas
f 1/1/1 2/1/1 3/1/1 4/1/1
f 5/1/2 6/1/2 7/1/2 8/1/2
f 1/1/3 4/1/3 6/1/3 5/1/3
f 3/1/4 2/1/4 8/1/4 7/1/4
f 1/1/5 5/1/5 8/1/5 2/1/5
f 4/1/6 3/1/6 7/1/6 6/1/6
f 1/2/2 4/2/2 9/2/2 10/2/2
f 11/2/1 12/2/1 13/2/1 14/2/1
f 10/2/7 9/2/7 12/2/7 11/2/7
f 9/2/8 4/2/8 13/2/8 12/2/8
f 4/2/9 1/2/9 14/2/9 13/2/9
f 1/2/10 10/2/10 11/2/10 14/2/10
f 2/2/1 3/2/1 15/2/1 16/2/1
f 17/2/2 18/2/2 19/2/2 20/2/2
f 16/2/11 15/2/11 18/2/11 17/2/11
f 15/2/12 3/2/12 19/2/12 18/2/12
f 3/2/13 2/2/13 20/2/13 19/2/13
f 2/2/14 16/2/14 17/2/14 20/2/14
f 21/2/2 22/2/2 1/2/2 23/2/2
f 24/2/1 14/2/1 25/2/1 26/2/1
f 23/2/9 1/2/9 14/2/9 24/2/9
f 1/2/10 22/2/10 25/2/10 14/2/10
f 22/2/15 21/2/15 26/2/15 25/2/15
f 21/2/14 23/2/14 24/2/14 26/2/14
f 27/2/2 2/2/2 28/2/2 29/2/2
f 30/2/1 31/2/1 20/2/1 32/2/1
f 29/2/16 28/2/16 31/2/16 30/2/16
f 28/2/10 2/2/10 20/2/10 31/2/10
f 2/2/11 27/2/11 32/2/11 20/2/11
f 27/2/14 29/2/14 30/2/14 32/2/14
f 29/2/2 28/2/2 22/2/2 21/2/2
f 33/2/1 34/2/1 35/2/1 36/2/1
f 21/2/4 22/2/4 34/2/4 33/2/4
f 22/2/10 28/2/10 35/2/10 34/2/10
f 28/2/3 29/2/3 36/2/3 35/2/3
f 29/2/14 21/2/14 33/2/14 36/2/14
f 37/2/2 38/2/2 39/2/2 40/2/2
f 41/2/1 42/2/1 43/2/1 44/2/1
f 40/2/4 39/2/4 42/2/4 41/2/4
f 39/2/10 38/2/10 43/2/10 42/2/10
f 38/2/3 37/2/3 44/2/3 43/2/3
f 37/2/14 40/2/14 41/2/14 44/2/14
f 45/2/1 46/2/1 4/2/1 47/2/1
f 48/2/2 13/2/2 49/2/2 50/2/2
f 47/2/7 4/2/7 13/2/7 48/2/7
f 4/2/12 46/2/12 49/2/12 13/2/12
f 46/2/17 45/2/17 50/2/17 49/2/17
f 45/2/8 47/2/8 48/2/8 50/2/8
f 51/2/1 3/2/1 52/2/1 53/2/1
f 54/2/2 55/2/2 19/2/2 56/2/2
f 53/2/18 52/2/18 55/2/18 54/2/18
f 52/2/12 3/2/12 19/2/12 55/2/12
f 3/2/13 51/2/13 56/2/13 19/2/13
f 51/2/8 53/2/8 54/2/8 56/2/8
f 53/2/1 52/2/1 46/2/1 45/2/1
f 57/2/2 58/2/2 59/2/2 60/2/2
f 45/2/3 46/2/3 58/2/3 57/2/3
f 46/2/12 52/2/12 59/2/12 58/2/12
f 52/2/4 53/2/4 60/2/4 59/2/4
f 53/2/8 45/2/8 57/2/8 60/2/8
f 61/2/1 62/2/1 63/2/1 64/2/1
f 65/2/2 66/2/2 67/2/2 68/2/2
f 64/2/3 63/2/3 66/2/3 65/2/3
f 63/2/12 62/2/12 67/2/12 66/2/12
f 62/2/4 61/2/4 68/2/4 67/2/4
f 61/2/8 64/2/8 65/2/8 68/2/8
