# Blender 5.2.0 LTS
# www.blender.org
mtllib FN_Table_Dressing.mtl
o FN_Table_Dressing
v -0.482000 0.088000 0.210000
v -0.482000 0.088000 -0.240000
v -0.154000 0.088000 -0.240000
v -0.154000 0.088000 0.210000
v -0.482000 0.714000 0.210000
v -0.154000 0.714000 0.210000
v -0.154000 0.714000 -0.240000
v -0.482000 0.714000 -0.240000
v -0.480000 0.092000 0.213000
v -0.480000 0.092000 0.210000
v -0.156000 0.092000 0.210000
v -0.156000 0.092000 0.213000
v -0.480000 0.710000 0.213000
v -0.156000 0.710000 0.213000
v -0.156000 0.710000 0.210000
v -0.480000 0.710000 0.210000
v -0.476000 0.100000 0.224000
v -0.476000 0.100000 0.213000
v -0.160000 0.100000 0.213000
v -0.160000 0.100000 0.224000
v -0.476000 0.390000 0.224000
v -0.160000 0.390000 0.224000
v -0.160000 0.390000 0.213000
v -0.476000 0.390000 0.213000
v -0.380000 0.235000 0.240000
v -0.380000 0.235000 0.224000
v -0.256000 0.235000 0.224000
v -0.256000 0.235000 0.240000
v -0.380000 0.255000 0.240000
v -0.256000 0.255000 0.240000
v -0.256000 0.255000 0.224000
v -0.380000 0.255000 0.224000
v -0.375000 0.238000 0.228000
v -0.375000 0.238000 0.220000
v -0.361000 0.238000 0.220000
v -0.361000 0.238000 0.228000
v -0.375000 0.252000 0.228000
v -0.361000 0.252000 0.228000
v -0.361000 0.252000 0.220000
v -0.375000 0.252000 0.220000
v -0.275000 0.238000 0.228000
v -0.275000 0.238000 0.220000
v -0.261000 0.238000 0.220000
v -0.261000 0.238000 0.228000
v -0.275000 0.252000 0.228000
v -0.261000 0.252000 0.228000
v -0.261000 0.252000 0.220000
v -0.275000 0.252000 0.220000
v -0.476000 0.402000 0.224000
v -0.476000 0.402000 0.213000
v -0.160000 0.402000 0.213000
v -0.160000 0.402000 0.224000
v -0.476000 0.692000 0.224000
v -0.160000 0.692000 0.224000
v -0.160000 0.692000 0.213000
v -0.476000 0.692000 0.213000
v -0.380000 0.537000 0.240000
v -0.380000 0.537000 0.224000
v -0.256000 0.537000 0.224000
v -0.256000 0.537000 0.240000
v -0.380000 0.557000 0.240000
v -0.256000 0.557000 0.240000
v -0.256000 0.557000 0.224000
v -0.380000 0.557000 0.224000
v -0.375000 0.540000 0.228000
v -0.375000 0.540000 0.220000
v -0.361000 0.540000 0.220000
v -0.361000 0.540000 0.228000
v -0.375000 0.554000 0.228000
v -0.361000 0.554000 0.228000
v -0.361000 0.554000 0.220000
v -0.375000 0.554000 0.220000
v -0.275000 0.540000 0.228000
v -0.275000 0.540000 0.220000
v -0.261000 0.540000 0.220000
v -0.261000 0.540000 0.228000
v -0.275000 0.554000 0.228000
v -0.261000 0.554000 0.228000
v -0.261000 0.554000 0.220000
v -0.275000 0.554000 0.220000
v -0.456000 0.000000 0.117000
v -0.408000 0.000000 0.117000
v -0.408000 0.000000 0.165000
v -0.456000 0.000000 0.165000
v -0.465000 0.092000 0.174000
v -0.399000 0.092000 0.174000
v -0.399000 0.092000 0.108000
v -0.465000 0.092000 0.108000
v -0.456000 0.000000 -0.195000
v -0.408000 0.000000 -0.195000
v -0.408000 0.000000 -0.147000
v -0.456000 0.000000 -0.147000
v -0.465000 0.092000 -0.138000
v -0.399000 0.092000 -0.138000
v -0.399000 0.092000 -0.204000
v -0.465000 0.092000 -0.204000
v -0.228000 0.000000 0.117000
v -0.180000 0.000000 0.117000
v -0.180000 0.000000 0.165000
v -0.228000 0.000000 0.165000
v -0.237000 0.092000 0.174000
v -0.171000 0.092000 0.174000
v -0.171000 0.092000 0.108000
v -0.237000 0.092000 0.108000
v -0.228000 0.000000 -0.195000
v -0.180000 0.000000 -0.195000
v -0.180000 0.000000 -0.147000
v -0.228000 0.000000 -0.147000
v -0.237000 0.092000 -0.138000
v -0.171000 0.092000 -0.138000
v -0.171000 0.092000 -0.204000
v -0.237000 0.092000 -0.204000
v 0.154000 0.088000 0.210000
v 0.154000 0.088000 -0.240000
v 0.482000 0.088000 -0.240000
v 0.482000 0.088000 0.210000
v 0.154000 0.714000 0.210000
v 0.482000 0.714000 0.210000
v 0.482000 0.714000 -0.240000
v 0.154000 0.714000 -0.240000
v 0.156000 0.092000 0.213000
v 0.156000 0.092000 0.210000
v 0.480000 0.092000 0.210000
v 0.480000 0.092000 0.213000
v 0.156000 0.710000 0.213000
v 0.480000 0.710000 0.213000
v 0.480000 0.710000 0.210000
v 0.156000 0.710000 0.210000
v 0.160000 0.100000 0.224000
v 0.160000 0.100000 0.213000
v 0.476000 0.100000 0.213000
v 0.476000 0.100000 0.224000
v 0.160000 0.390000 0.224000
v 0.476000 0.390000 0.224000
v 0.476000 0.390000 0.213000
v 0.160000 0.390000 0.213000
v 0.256000 0.235000 0.240000
v 0.256000 0.235000 0.224000
v 0.380000 0.235000 0.224000
v 0.380000 0.235000 0.240000
v 0.256000 0.255000 0.240000
v 0.380000 0.255000 0.240000
v 0.380000 0.255000 0.224000
v 0.256000 0.255000 0.224000
v 0.261000 0.238000 0.228000
v 0.261000 0.238000 0.220000
v 0.275000 0.238000 0.220000
v 0.275000 0.238000 0.228000
v 0.261000 0.252000 0.228000
v 0.275000 0.252000 0.228000
v 0.275000 0.252000 0.220000
v 0.261000 0.252000 0.220000
v 0.361000 0.238000 0.228000
v 0.361000 0.238000 0.220000
v 0.375000 0.238000 0.220000
v 0.375000 0.238000 0.228000
v 0.361000 0.252000 0.228000
v 0.375000 0.252000 0.228000
v 0.375000 0.252000 0.220000
v 0.361000 0.252000 0.220000
v 0.160000 0.402000 0.224000
v 0.160000 0.402000 0.213000
v 0.476000 0.402000 0.213000
v 0.476000 0.402000 0.224000
v 0.160000 0.692000 0.224000
v 0.476000 0.692000 0.224000
v 0.476000 0.692000 0.213000
v 0.160000 0.692000 0.213000
v 0.256000 0.537000 0.240000
v 0.256000 0.537000 0.224000
v 0.380000 0.537000 0.224000
v 0.380000 0.537000 0.240000
v 0.256000 0.557000 0.240000
v 0.380000 0.557000 0.240000
v 0.380000 0.557000 0.224000
v 0.256000 0.557000 0.224000
v 0.261000 0.540000 0.228000
v 0.261000 0.540000 0.220000
v 0.275000 0.540000 0.220000
v 0.275000 0.540000 0.228000
v 0.261000 0.554000 0.228000
v 0.275000 0.554000 0.228000
v 0.275000 0.554000 0.220000
v 0.261000 0.554000 0.220000
v 0.361000 0.540000 0.228000
v 0.361000 0.540000 0.220000
v 0.375000 0.540000 0.220000
v 0.375000 0.540000 0.228000
v 0.361000 0.554000 0.228000
v 0.375000 0.554000 0.228000
v 0.375000 0.554000 0.220000
v 0.361000 0.554000 0.220000
v 0.180000 0.000000 0.117000
v 0.228000 0.000000 0.117000
v 0.228000 0.000000 0.165000
v 0.180000 0.000000 0.165000
v 0.171000 0.092000 0.174000
v 0.237000 0.092000 0.174000
v 0.237000 0.092000 0.108000
v 0.171000 0.092000 0.108000
v 0.180000 0.000000 -0.195000
v 0.228000 0.000000 -0.195000
v 0.228000 0.000000 -0.147000
v 0.180000 0.000000 -0.147000
v 0.171000 0.092000 -0.138000
v 0.237000 0.092000 -0.138000
v 0.237000 0.092000 -0.204000
v 0.171000 0.092000 -0.204000
v 0.408000 0.000000 0.117000
v 0.456000 0.000000 0.117000
v 0.456000 0.000000 0.165000
v 0.408000 0.000000 0.165000
v 0.399000 0.092000 0.174000
v 0.465000 0.092000 0.174000
v 0.465000 0.092000 0.108000
v 0.399000 0.092000 0.108000
v 0.408000 0.000000 -0.195000
v 0.456000 0.000000 -0.195000
v 0.456000 0.000000 -0.147000
v 0.408000 0.000000 -0.147000
v 0.399000 0.092000 -0.138000
v 0.465000 0.092000 -0.138000
v 0.465000 0.092000 -0.204000
v 0.399000 0.092000 -0.204000
v -0.168000 0.634000 -0.210000
v -0.168000 0.634000 -0.240000
v 0.168000 0.634000 -0.240000
v 0.168000 0.634000 -0.210000
v -0.168000 0.714000 -0.210000
v 0.168000 0.714000 -0.210000
v 0.168000 0.714000 -0.240000
v -0.168000 0.714000 -0.240000
v -0.494528 0.714000 -0.237538
v 0.494528 0.714000 -0.237538
v 0.494528 0.714000 0.207538
v -0.494528 0.714000 0.207538
v 0.500000 0.720000 0.210000
v -0.500000 0.720000 0.210000
v 0.500000 0.720000 -0.240000
v -0.500000 0.720000 -0.240000
v 0.500000 0.734000 0.210000
v -0.500000 0.734000 0.210000
v 0.500000 0.734000 -0.240000
v -0.500000 0.734000 -0.240000
v -0.494528 0.740000 0.207538
v 0.494528 0.740000 0.207538
v 0.494528 0.740000 -0.237538
v -0.494528 0.740000 -0.237538
v -0.248000 0.736000 -0.001000
v -0.248000 0.736000 -0.041000
v -0.204000 0.736000 -0.041000
v -0.204000 0.736000 -0.001000
v -0.248000 1.004700 -0.001000
v -0.204000 1.004700 -0.001000
v -0.204000 1.004700 -0.041000
v -0.248000 1.004700 -0.041000
v 0.204000 0.736000 -0.001000
v 0.204000 0.736000 -0.041000
v 0.248000 0.736000 -0.041000
v 0.248000 0.736000 -0.001000
v 0.204000 1.004700 -0.001000
v 0.248000 1.004700 -0.001000
v 0.248000 1.004700 -0.041000
v 0.204000 1.004700 -0.041000
v 0.280000 1.130000 -0.041000
v 0.266296 1.216525 -0.041000
v 0.266296 1.216525 0.005000
v 0.280000 1.130000 0.005000
v 0.226525 1.294580 -0.041000
v 0.226525 1.294580 0.005000
v 0.164580 1.356525 -0.041000
v 0.164580 1.356525 0.005000
v 0.086525 1.396296 -0.041000
v 0.086525 1.396296 0.005000
v 0.000000 1.410000 -0.041000
v 0.000000 1.410000 0.005000
v -0.086525 1.396296 -0.041000
v -0.086525 1.396296 0.005000
v -0.164580 1.356525 -0.041000
v -0.164580 1.356525 0.005000
v -0.226525 1.294580 -0.041000
v -0.226525 1.294580 0.005000
v -0.266296 1.216525 -0.041000
v -0.266296 1.216525 0.005000
v -0.280000 1.130000 -0.041000
v -0.280000 1.130000 0.005000
v -0.266296 1.043475 -0.041000
v -0.266296 1.043475 0.005000
v -0.226525 0.965420 -0.041000
v -0.226525 0.965420 0.005000
v -0.164580 0.903475 -0.041000
v -0.164580 0.903475 0.005000
v -0.086525 0.863704 -0.041000
v -0.086525 0.863704 0.005000
v -0.000000 0.850000 -0.041000
v -0.000000 0.850000 0.005000
v 0.086525 0.863704 -0.041000
v 0.086525 0.863704 0.005000
v 0.164580 0.903475 -0.041000
v 0.164580 0.903475 0.005000
v 0.226525 0.965420 -0.041000
v 0.226525 0.965420 0.005000
v 0.266296 1.043475 -0.041000
v 0.266296 1.043475 0.005000
v 0.237764 1.207254 0.005000
v 0.250000 1.130000 0.005000
v 0.202254 1.276946 0.005000
v 0.146946 1.332254 0.005000
v 0.077254 1.367764 0.005000
v 0.000000 1.380000 0.005000
v -0.077254 1.367764 0.005000
v -0.146946 1.332254 0.005000
v -0.202254 1.276946 0.005000
v -0.237764 1.207254 0.005000
v -0.250000 1.130000 0.005000
v -0.237764 1.052746 0.005000
v -0.202254 0.983054 0.005000
v -0.146946 0.927746 0.005000
v -0.077254 0.892236 0.005000
v -0.000000 0.880000 0.005000
v 0.077254 0.892236 0.005000
v 0.146946 0.927746 0.005000
v 0.202254 0.983054 0.005000
v 0.237764 1.052746 0.005000
v 0.237764 1.052746 -0.001000
v 0.202254 0.983054 -0.001000
v 0.146946 0.927746 -0.001000
v 0.077254 0.892236 -0.001000
v -0.000000 0.880000 -0.001000
v -0.077254 0.892236 -0.001000
v -0.146946 0.927746 -0.001000
v -0.202254 0.983054 -0.001000
v -0.237764 1.052746 -0.001000
v -0.250000 1.130000 -0.001000
v -0.237764 1.207254 -0.001000
v -0.202254 1.276946 -0.001000
v -0.146946 1.332254 -0.001000
v -0.077254 1.367764 -0.001000
v 0.000000 1.380000 -0.001000
v 0.077254 1.367764 -0.001000
v 0.146946 1.332254 -0.001000
v 0.202254 1.276946 -0.001000
v 0.237764 1.207254 -0.001000
v 0.250000 1.130000 -0.001000
vn -0.0000 -1.0000 -0.0000
vn -0.0000 1.0000 -0.0000
vn -0.0000 -0.0000 1.0000
vn -0.0000 -0.0000 -1.0000
vn -1.0000 -0.0000 -0.0000
vn 1.0000 -0.0000 -0.0000
vn -0.0000 -0.0974 0.9952
vn 0.9952 -0.0974 -0.0000
vn -0.0000 -0.0974 -0.9952
vn -0.9952 -0.0974 -0.0000
vn -0.0000 -0.3796 0.9251
vn 0.7389 -0.6738 -0.0000
vn -0.0000 -0.3796 -0.9251
vn -0.7389 -0.6738 -0.0000
vn -0.0000 0.3796 0.9251
vn 0.7389 0.6738 -0.0000
vn -0.0000 0.3796 -0.9251
vn -0.7389 0.6738 -0.0000
vn 0.9877 0.1564 -0.0000
vn 0.8910 0.4540 -0.0000
vn 0.7071 0.7071 -0.0000
vn 0.4540 0.8910 -0.0000
vn 0.1564 0.9877 -0.0000
vn -0.1564 0.9877 -0.0000
vn -0.4540 0.8910 -0.0000
vn -0.7071 0.7071 -0.0000
vn -0.8910 0.4540 -0.0000
vn -0.9877 0.1564 -0.0000
vn -0.9877 -0.1564 -0.0000
vn -0.8910 -0.4540 -0.0000
vn -0.7071 -0.7071 -0.0000
vn -0.4540 -0.8910 -0.0000
vn -0.1564 -0.9877 -0.0000
vn 0.1564 -0.9877 -0.0000
vn 0.4540 -0.8910 -0.0000
vn 0.7071 -0.7071 -0.0000
vn 0.8910 -0.4540 -0.0000
vn 0.9877 -0.1564 -0.0000
vt 0.687500 0.812500
vt 0.812500 0.937500
vt 0.437500 0.312500
vt 0.687500 0.937500
vt 0.437500 0.937500
vt 0.187500 0.312500
s 0
usemtl FN_Atlas
f 1/1/1 2/1/1 3/1/1 4/1/1
f 5/1/2 6/1/2 7/1/2 8/1/2
f 1/2/3 4/2/3 6/2/3 5/2/3
f 3/1/4 2/1/4 8/1/4 7/1/4
f 1/1/5 5/1/5 8/1/5 2/1/5
f 4/1/6 3/1/6 7/1/6 6/1/6
f 9/2/1 10/2/1 11/2/1 12/2/1
f 13/2/2 14/2/2 15/2/2 16/2/2
f 9/2/3 12/2/3 14/2/3 13/2/3
f 11/2/4 10/2/4 16/2/4 15/2/4
f 9/2/5 13/2/5 16/2/5 10/2/5
f 12/2/6 11/2/6 15/2/6 14/2/6
f 17/1/1 18/1/1 19/1/1 20/1/1
f 21/1/2 22/1/2 23/1/2 24/1/2
f 17/1/3 20/1/3 22/1/3 21/1/3
f 19/1/4 18/1/4 24/1/4 23/1/4
f 17/1/5 21/1/5 24/1/5 18/1/5
f 20/1/6 19/1/6 23/1/6 22/1/6
f 25/3/1 26/3/1 27/3/1 28/3/1
f 29/3/2 30/3/2 31/3/2 32/3/2
f 25/3/3 28/3/3 30/3/3 29/3/3
f 27/3/4 26/3/4 32/3/4 31/3/4
f 25/3/5 29/3/5 32/3/5 26/3/5
f 28/3/6 27/3/6 31/3/6 30/3/6
f 33/3/1 34/3/1 35/3/1 36/3/1
f 37/3/2 38/3/2 39/3/2 40/3/2
f 33/3/3 36/3/3 38/3/3 37/3/3
f 35/3/4 34/3/4 40/3/4 39/3/4
f 33/3/5 37/3/5 40/3/5 34/3/5
f 36/3/6 35/3/6 39/3/6 38/3/6
f 41/3/1 42/3/1 43/3/1 44/3/1
f 45/3/2 46/3/2 47/3/2 48/3/2
f 41/3/3 44/3/3 46/3/3 45/3/3
f 43/3/4 42/3/4 48/3/4 47/3/4
f 41/3/5 45/3/5 48/3/5 42/3/5
f 44/3/6 43/3/6 47/3/6 46/3/6
f 49/1/1 50/1/1 51/1/1 52/1/1
f 53/1/2 54/1/2 55/1/2 56/1/2
f 49/1/3 52/1/3 54/1/3 53/1/3
f 51/1/4 50/1/4 56/1/4 55/1/4
f 49/1/5 53/1/5 56/1/5 50/1/5
f 52/1/6 51/1/6 55/1/6 54/1/6
f 57/3/1 58/3/1 59/3/1 60/3/1
f 61/3/2 62/3/2 63/3/2 64/3/2
f 57/3/3 60/3/3 62/3/3 61/3/3
f 59/3/4 58/3/4 64/3/4 63/3/4
f 57/3/5 61/3/5 64/3/5 58/3/5
f 60/3/6 59/3/6 63/3/6 62/3/6
f 65/3/1 66/3/1 67/3/1 68/3/1
f 69/3/2 70/3/2 71/3/2 72/3/2
f 65/3/3 68/3/3 70/3/3 69/3/3
f 67/3/4 66/3/4 72/3/4 71/3/4
f 65/3/5 69/3/5 72/3/5 66/3/5
f 68/3/6 67/3/6 71/3/6 70/3/6
f 73/3/1 74/3/1 75/3/1 76/3/1
f 77/3/2 78/3/2 79/3/2 80/3/2
f 73/3/3 76/3/3 78/3/3 77/3/3
f 75/3/4 74/3/4 80/3/4 79/3/4
f 73/3/5 77/3/5 80/3/5 74/3/5
f 76/3/6 75/3/6 79/3/6 78/3/6
f 81/1/1 82/1/1 83/1/1 84/1/1
f 85/1/2 86/1/2 87/1/2 88/1/2
f 84/1/7 83/1/7 86/1/7 85/1/7
f 83/1/8 82/1/8 87/1/8 86/1/8
f 82/1/9 81/1/9 88/1/9 87/1/9
f 81/1/10 84/1/10 85/1/10 88/1/10
f 89/1/1 90/1/1 91/1/1 92/1/1
f 93/1/2 94/1/2 95/1/2 96/1/2
f 92/1/7 91/1/7 94/1/7 93/1/7
f 91/1/8 90/1/8 95/1/8 94/1/8
f 90/1/9 89/1/9 96/1/9 95/1/9
f 89/1/10 92/1/10 93/1/10 96/1/10
f 97/1/1 98/1/1 99/1/1 100/1/1
f 101/1/2 102/1/2 103/1/2 104/1/2
f 100/1/7 99/1/7 102/1/7 101/1/7
f 99/1/8 98/1/8 103/1/8 102/1/8
f 98/1/9 97/1/9 104/1/9 103/1/9
f 97/1/10 100/1/10 101/1/10 104/1/10
f 105/1/1 106/1/1 107/1/1 108/1/1
f 109/1/2 110/1/2 111/1/2 112/1/2
f 108/1/7 107/1/7 110/1/7 109/1/7
f 107/1/8 106/1/8 111/1/8 110/1/8
f 106/1/9 105/1/9 112/1/9 111/1/9
f 105/1/10 108/1/10 109/1/10 112/1/10
f 113/1/1 114/1/1 115/1/1 116/1/1
f 117/1/2 118/1/2 119/1/2 120/1/2
f 113/2/3 116/2/3 118/2/3 117/2/3
f 115/1/4 114/1/4 120/1/4 119/1/4
f 113/1/5 117/1/5 120/1/5 114/1/5
f 116/1/6 115/1/6 119/1/6 118/1/6
f 121/2/1 122/2/1 123/2/1 124/2/1
f 125/2/2 126/2/2 127/2/2 128/2/2
f 121/2/3 124/2/3 126/2/3 125/2/3
f 123/2/4 122/2/4 128/2/4 127/2/4
f 121/2/5 125/2/5 128/2/5 122/2/5
f 124/2/6 123/2/6 127/2/6 126/2/6
f 129/1/1 130/1/1 131/1/1 132/1/1
f 133/1/2 134/1/2 135/1/2 136/1/2
f 129/1/3 132/1/3 134/1/3 133/1/3
f 131/1/4 130/1/4 136/1/4 135/1/4
f 129/1/5 133/1/5 136/1/5 130/1/5
f 132/1/6 131/1/6 135/1/6 134/1/6
f 137/3/1 138/3/1 139/3/1 140/3/1
f 141/3/2 142/3/2 143/3/2 144/3/2
f 137/3/3 140/3/3 142/3/3 141/3/3
f 139/3/4 138/3/4 144/3/4 143/3/4
f 137/3/5 141/3/5 144/3/5 138/3/5
f 140/3/6 139/3/6 143/3/6 142/3/6
f 145/3/1 146/3/1 147/3/1 148/3/1
f 149/3/2 150/3/2 151/3/2 152/3/2
f 145/3/3 148/3/3 150/3/3 149/3/3
f 147/3/4 146/3/4 152/3/4 151/3/4
f 145/3/5 149/3/5 152/3/5 146/3/5
f 148/3/6 147/3/6 151/3/6 150/3/6
f 153/3/1 154/3/1 155/3/1 156/3/1
f 157/3/2 158/3/2 159/3/2 160/3/2
f 153/3/3 156/3/3 158/3/3 157/3/3
f 155/3/4 154/3/4 160/3/4 159/3/4
f 153/3/5 157/3/5 160/3/5 154/3/5
f 156/3/6 155/3/6 159/3/6 158/3/6
f 161/1/1 162/1/1 163/1/1 164/1/1
f 165/1/2 166/1/2 167/1/2 168/1/2
f 161/1/3 164/1/3 166/1/3 165/1/3
f 163/1/4 162/1/4 168/1/4 167/1/4
f 161/1/5 165/1/5 168/1/5 162/1/5
f 164/1/6 163/1/6 167/1/6 166/1/6
f 169/3/1 170/3/1 171/3/1 172/3/1
f 173/3/2 174/3/2 175/3/2 176/3/2
f 169/3/3 172/3/3 174/3/3 173/3/3
f 171/3/4 170/3/4 176/3/4 175/3/4
f 169/3/5 173/3/5 176/3/5 170/3/5
f 172/3/6 171/3/6 175/3/6 174/3/6
f 177/3/1 178/3/1 179/3/1 180/3/1
f 181/3/2 182/3/2 183/3/2 184/3/2
f 177/3/3 180/3/3 182/3/3 181/3/3
f 179/3/4 178/3/4 184/3/4 183/3/4
f 177/3/5 181/3/5 184/3/5 178/3/5
f 180/3/6 179/3/6 183/3/6 182/3/6
f 185/3/1 186/3/1 187/3/1 188/3/1
f 189/3/2 190/3/2 191/3/2 192/3/2
f 185/3/3 188/3/3 190/3/3 189/3/3
f 187/3/4 186/3/4 192/3/4 191/3/4
f 185/3/5 189/3/5 192/3/5 186/3/5
f 188/3/6 187/3/6 191/3/6 190/3/6
f 193/1/1 194/1/1 195/1/1 196/1/1
f 197/1/2 198/1/2 199/1/2 200/1/2
f 196/1/7 195/1/7 198/1/7 197/1/7
f 195/1/8 194/1/8 199/1/8 198/1/8
f 194/1/9 193/1/9 200/1/9 199/1/9
f 193/1/10 196/1/10 197/1/10 200/1/10
f 201/1/1 202/1/1 203/1/1 204/1/1
f 205/1/2 206/1/2 207/1/2 208/1/2
f 204/1/7 203/1/7 206/1/7 205/1/7
f 203/1/8 202/1/8 207/1/8 206/1/8
f 202/1/9 201/1/9 208/1/9 207/1/9
f 201/1/10 204/1/10 205/1/10 208/1/10
f 209/1/1 210/1/1 211/1/1 212/1/1
f 213/1/2 214/1/2 215/1/2 216/1/2
f 212/1/7 211/1/7 214/1/7 213/1/7
f 211/1/8 210/1/8 215/1/8 214/1/8
f 210/1/9 209/1/9 216/1/9 215/1/9
f 209/1/10 212/1/10 213/1/10 216/1/10
f 217/1/1 218/1/1 219/1/1 220/1/1
f 221/1/2 222/1/2 223/1/2 224/1/2
f 220/1/7 219/1/7 222/1/7 221/1/7
f 219/1/8 218/1/8 223/1/8 222/1/8
f 218/1/9 217/1/9 224/1/9 223/1/9
f 217/1/10 220/1/10 221/1/10 224/1/10
f 225/1/1 226/1/1 227/1/1 228/1/1
f 229/1/2 230/1/2 231/1/2 232/1/2
f 225/1/3 228/1/3 230/1/3 229/1/3
f 227/1/4 226/1/4 232/1/4 231/1/4
f 225/1/5 229/1/5 232/1/5 226/1/5
f 228/1/6 227/1/6 231/1/6 230/1/6
f 233/4/1 234/4/1 235/4/1 236/4/1
f 236/4/11 235/4/11 237/4/11 238/4/11
f 235/4/12 234/4/12 239/4/12 237/4/12
f 234/4/13 233/4/13 240/4/13 239/4/13
f 233/4/14 236/4/14 238/4/14 240/4/14
f 238/4/3 237/4/3 241/4/3 242/4/3
f 237/4/6 239/4/6 243/4/6 241/4/6
f 239/4/4 240/4/4 244/4/4 243/4/4
f 240/4/5 238/4/5 242/4/5 244/4/5
f 245/5/2 246/5/2 247/5/2 248/5/2
f 242/4/15 241/4/15 246/4/15 245/4/15
f 241/4/16 243/4/16 247/4/16 246/4/16
f 243/4/17 244/4/17 248/4/17 247/4/17
f 244/4/18 242/4/18 245/4/18 248/4/18
f 249/4/1 250/4/1 251/4/1 252/4/1
f 253/4/2 254/4/2 255/4/2 256/4/2
f 249/4/3 252/4/3 254/4/3 253/4/3
f 251/4/4 250/4/4 256/4/4 255/4/4
f 249/4/5 253/4/5 256/4/5 250/4/5
f 252/4/6 251/4/6 255/4/6 254/4/6
f 257/4/1 258/4/1 259/4/1 260/4/1
f 261/4/2 262/4/2 263/4/2 264/4/2
f 257/4/3 260/4/3 262/4/3 261/4/3
f 259/4/4 258/4/4 264/4/4 263/4/4
f 257/4/5 261/4/5 264/4/5 258/4/5
f 260/4/6 259/4/6 263/4/6 262/4/6
f 265/4/19 266/4/19 267/4/19 268/4/19
f 266/4/20 269/4/20 270/4/20 267/4/20
f 269/4/21 271/4/21 272/4/21 270/4/21
f 271/4/22 273/4/22 274/4/22 272/4/22
f 273/4/23 275/4/23 276/4/23 274/4/23
f 275/4/24 277/4/24 278/4/24 276/4/24
f 277/4/25 279/4/25 280/4/25 278/4/25
f 279/4/26 281/4/26 282/4/26 280/4/26
f 281/4/27 283/4/27 284/4/27 282/4/27
f 283/4/28 285/4/28 286/4/28 284/4/28
f 285/4/29 287/4/29 288/4/29 286/4/29
f 287/4/30 289/4/30 290/4/30 288/4/30
f 289/4/31 291/4/31 292/4/31 290/4/31
f 291/4/32 293/4/32 294/4/32 292/4/32
f 293/4/33 295/4/33 296/4/33 294/4/33
f 295/4/34 297/4/34 298/4/34 296/4/34
f 297/4/35 299/4/35 300/4/35 298/4/35
f 299/4/36 301/4/36 302/4/36 300/4/36
f 301/4/37 303/4/37 304/4/37 302/4/37
f 303/4/38 265/4/38 268/4/38 304/4/38
f 268/4/3 267/4/3 305/4/3 306/4/3
f 267/4/3 270/4/3 307/4/3 305/4/3
f 270/4/3 272/4/3 308/4/3 307/4/3
f 272/4/3 274/4/3 309/4/3 308/4/3
f 274/4/3 276/4/3 310/4/3 309/4/3
f 276/4/3 278/4/3 311/4/3 310/4/3
f 278/4/3 280/4/3 312/4/3 311/4/3
f 280/4/3 282/4/3 313/4/3 312/4/3
f 282/4/3 284/4/3 314/4/3 313/4/3
f 284/4/3 286/4/3 315/4/3 314/4/3
f 286/4/3 288/4/3 316/4/3 315/4/3
f 288/4/3 290/4/3 317/4/3 316/4/3
f 290/4/3 292/4/3 318/4/3 317/4/3
f 292/4/3 294/4/3 319/4/3 318/4/3
f 294/4/3 296/4/3 320/4/3 319/4/3
f 296/4/3 298/4/3 321/4/3 320/4/3
f 298/4/3 300/4/3 322/4/3 321/4/3
f 300/4/3 302/4/3 323/4/3 322/4/3
f 302/4/3 304/4/3 324/4/3 323/4/3
f 304/4/3 268/4/3 306/4/3 324/4/3
f 325/6/4 326/6/4 327/6/4 328/6/4 329/6/4 330/6/4 331/6/4 332/6/4 333/6/4 334/6/4 335/6/4 336/6/4 337/6/4 338/6/4 339/6/4 340/6/4 341/6/4 342/6/4 343/6/4 344/6/4
f 303/4/4 301/4/4 299/4/4 297/4/4 295/4/4 293/4/4 291/4/4 289/4/4 287/4/4 285/4/4 283/4/4 281/4/4 279/4/4 277/4/4 275/4/4 273/4/4 271/4/4 269/4/4 266/4/4 265/4/4
