# Blender 5.2.0 LTS
# www.blender.org
mtllib FN_Table_Picnic.mtl
o FN_Table_Picnic
v -0.582500 0.000000 0.725914
v -0.582500 0.000000 0.674086
v -0.582500 0.700000 0.274086
v -0.582500 0.700000 0.325914
v -0.537500 0.700000 0.325914
v -0.537500 0.700000 0.274086
v -0.537500 0.000000 0.674086
v -0.537500 0.000000 0.725914
v -0.582500 0.700000 -0.274086
v -0.582500 0.700000 -0.325914
v -0.582500 0.000000 -0.725914
v -0.582500 0.000000 -0.674086
v -0.537500 0.000000 -0.674086
v -0.537500 0.000000 -0.725914
v -0.537500 0.700000 -0.325914
v -0.537500 0.700000 -0.274086
v -0.588000 0.368000 0.752000
v -0.588000 0.368000 -0.752000
v -0.532000 0.368000 -0.752000
v -0.532000 0.368000 0.752000
v -0.588000 0.418000 0.752000
v -0.532000 0.418000 0.752000
v -0.532000 0.418000 -0.752000
v -0.588000 0.418000 -0.752000
v -0.588000 0.652000 0.372000
v -0.588000 0.652000 -0.372000
v -0.532000 0.652000 -0.372000
v -0.532000 0.652000 0.372000
v -0.588000 0.704000 0.372000
v -0.532000 0.704000 0.372000
v -0.532000 0.704000 -0.372000
v -0.588000 0.704000 -0.372000
v -0.590500 0.380000 0.488429
v -0.590500 0.380000 0.462429
v -0.529500 0.380000 0.462429
v -0.529500 0.380000 0.488429
v -0.590500 0.406000 0.488429
v -0.529500 0.406000 0.488429
v -0.529500 0.406000 0.462429
v -0.590500 0.406000 0.462429
v -0.590500 0.665000 0.325571
v -0.590500 0.665000 0.299571
v -0.529500 0.665000 0.299571
v -0.529500 0.665000 0.325571
v -0.590500 0.691000 0.325571
v -0.529500 0.691000 0.325571
v -0.529500 0.691000 0.299571
v -0.590500 0.691000 0.299571
v -0.590500 0.380000 -0.462429
v -0.590500 0.380000 -0.488429
v -0.529500 0.380000 -0.488429
v -0.529500 0.380000 -0.462429
v -0.590500 0.406000 -0.462429
v -0.529500 0.406000 -0.462429
v -0.529500 0.406000 -0.488429
v -0.590500 0.406000 -0.488429
v -0.590500 0.665000 -0.299571
v -0.590500 0.665000 -0.325571
v -0.529500 0.665000 -0.325571
v -0.529500 0.665000 -0.299571
v -0.590500 0.691000 -0.299571
v -0.529500 0.691000 -0.299571
v -0.529500 0.691000 -0.325571
v -0.590500 0.691000 -0.325571
v 0.537500 0.000000 0.725914
v 0.537500 0.000000 0.674086
v 0.537500 0.700000 0.274086
v 0.537500 0.700000 0.325914
v 0.582500 0.700000 0.325914
v 0.582500 0.700000 0.274086
v 0.582500 0.000000 0.674086
v 0.582500 0.000000 0.725914
v 0.537500 0.700000 -0.274086
v 0.537500 0.700000 -0.325914
v 0.537500 0.000000 -0.725914
v 0.537500 0.000000 -0.674086
v 0.582500 0.000000 -0.674086
v 0.582500 0.000000 -0.725914
v 0.582500 0.700000 -0.325914
v 0.582500 0.700000 -0.274086
v 0.532000 0.368000 0.752000
v 0.532000 0.368000 -0.752000
v 0.588000 0.368000 -0.752000
v 0.588000 0.368000 0.752000
v 0.532000 0.418000 0.752000
v 0.588000 0.418000 0.752000
v 0.588000 0.418000 -0.752000
v 0.532000 0.418000 -0.752000
v 0.532000 0.652000 0.372000
v 0.532000 0.652000 -0.372000
v 0.588000 0.652000 -0.372000
v 0.588000 0.652000 0.372000
v 0.532000 0.704000 0.372000
v 0.588000 0.704000 0.372000
v 0.588000 0.704000 -0.372000
v 0.532000 0.704000 -0.372000
v 0.529500 0.380000 0.488429
v 0.529500 0.380000 0.462429
v 0.590500 0.380000 0.462429
v 0.590500 0.380000 0.488429
v 0.529500 0.406000 0.488429
v 0.590500 0.406000 0.488429
v 0.590500 0.406000 0.462429
v 0.529500 0.406000 0.462429
v 0.529500 0.665000 0.325571
v 0.529500 0.665000 0.299571
v 0.590500 0.665000 0.299571
v 0.590500 0.665000 0.325571
v 0.529500 0.691000 0.325571
v 0.590500 0.691000 0.325571
v 0.590500 0.691000 0.299571
v 0.529500 0.691000 0.299571
v 0.529500 0.380000 -0.462429
v 0.529500 0.380000 -0.488429
v 0.590500 0.380000 -0.488429
v 0.590500 0.380000 -0.462429
v 0.529500 0.406000 -0.462429
v 0.590500 0.406000 -0.462429
v 0.590500 0.406000 -0.488429
v 0.529500 0.406000 -0.488429
v 0.529500 0.665000 -0.299571
v 0.529500 0.665000 -0.325571
v 0.590500 0.665000 -0.325571
v 0.590500 0.665000 -0.299571
v 0.529500 0.691000 -0.299571
v 0.590500 0.691000 -0.299571
v 0.590500 0.691000 -0.325571
v 0.529500 0.691000 -0.325571
v -0.894016 0.700000 0.219432
v 0.894016 0.700000 0.219432
v 0.894016 0.700000 0.348568
v -0.894016 0.700000 0.348568
v 0.900000 0.706000 0.349000
v -0.900000 0.706000 0.349000
v 0.900000 0.706000 0.219000
v -0.900000 0.706000 0.219000
v 0.900000 0.734000 0.349000
v -0.900000 0.734000 0.349000
v 0.900000 0.734000 0.219000
v -0.900000 0.734000 0.219000
v -0.894016 0.740000 0.348568
v 0.894016 0.740000 0.348568
v 0.894016 0.740000 0.219432
v -0.894016 0.740000 0.219432
v -0.894016 0.700000 0.077432
v 0.894016 0.700000 0.077432
v 0.894016 0.700000 0.206568
v -0.894016 0.700000 0.206568
v 0.900000 0.706000 0.207000
v -0.900000 0.706000 0.207000
v 0.900000 0.706000 0.077000
v -0.900000 0.706000 0.077000
v 0.900000 0.734000 0.207000
v -0.900000 0.734000 0.207000
v 0.900000 0.734000 0.077000
v -0.900000 0.734000 0.077000
v -0.894016 0.740000 0.206568
v 0.894016 0.740000 0.206568
v 0.894016 0.740000 0.077432
v -0.894016 0.740000 0.077432
v -0.894016 0.700000 -0.064568
v 0.894016 0.700000 -0.064568
v 0.894016 0.700000 0.064568
v -0.894016 0.700000 0.064568
v 0.900000 0.706000 0.065000
v -0.900000 0.706000 0.065000
v 0.900000 0.706000 -0.065000
v -0.900000 0.706000 -0.065000
v 0.900000 0.734000 0.065000
v -0.900000 0.734000 0.065000
v 0.900000 0.734000 -0.065000
v -0.900000 0.734000 -0.065000
v -0.894016 0.740000 0.064568
v 0.894016 0.740000 0.064568
v 0.894016 0.740000 -0.064568
v -0.894016 0.740000 -0.064568
v -0.894016 0.700000 -0.206568
v 0.894016 0.700000 -0.206568
v 0.894016 0.700000 -0.077432
v -0.894016 0.700000 -0.077432
v 0.900000 0.706000 -0.077000
v -0.900000 0.706000 -0.077000
v 0.900000 0.706000 -0.207000
v -0.900000 0.706000 -0.207000
v 0.900000 0.734000 -0.077000
v -0.900000 0.734000 -0.077000
v 0.900000 0.734000 -0.207000
v -0.900000 0.734000 -0.207000
v -0.894016 0.740000 -0.077432
v 0.894016 0.740000 -0.077432
v 0.894016 0.740000 -0.206568
v -0.894016 0.740000 -0.206568
v -0.894016 0.700000 -0.348568
v 0.894016 0.700000 -0.348568
v 0.894016 0.700000 -0.219432
v -0.894016 0.700000 -0.219432
v 0.900000 0.706000 -0.219000
v -0.900000 0.706000 -0.219000
v 0.900000 0.706000 -0.349000
v -0.900000 0.706000 -0.349000
v 0.900000 0.734000 -0.219000
v -0.900000 0.734000 -0.219000
v 0.900000 0.734000 -0.349000
v -0.900000 0.734000 -0.349000
v -0.894016 0.740000 -0.219432
v 0.894016 0.740000 -0.219432
v 0.894016 0.740000 -0.348568
v -0.894016 0.740000 -0.348568
v -0.895013 0.414000 0.606360
v 0.895013 0.414000 0.606360
v 0.895013 0.414000 0.735640
v -0.895013 0.414000 0.735640
v 0.900000 0.419000 0.736000
v -0.900000 0.419000 0.736000
v 0.900000 0.419000 0.606000
v -0.900000 0.419000 0.606000
v 0.900000 0.445000 0.736000
v -0.900000 0.445000 0.736000
v 0.900000 0.445000 0.606000
v -0.900000 0.445000 0.606000
v -0.895013 0.450000 0.735640
v 0.895013 0.450000 0.735640
v 0.895013 0.450000 0.606360
v -0.895013 0.450000 0.606360
v -0.895013 0.414000 0.464360
v 0.895013 0.414000 0.464360
v 0.895013 0.414000 0.593640
v -0.895013 0.414000 0.593640
v 0.900000 0.419000 0.594000
v -0.900000 0.419000 0.594000
v 0.900000 0.419000 0.464000
v -0.900000 0.419000 0.464000
v 0.900000 0.445000 0.594000
v -0.900000 0.445000 0.594000
v 0.900000 0.445000 0.464000
v -0.900000 0.445000 0.464000
v -0.895013 0.450000 0.593640
v 0.895013 0.450000 0.593640
v 0.895013 0.450000 0.464360
v -0.895013 0.450000 0.464360
v -0.895013 0.414000 -0.593640
v 0.895013 0.414000 -0.593640
v 0.895013 0.414000 -0.464360
v -0.895013 0.414000 -0.464360
v 0.900000 0.419000 -0.464000
v -0.900000 0.419000 -0.464000
v 0.900000 0.419000 -0.594000
v -0.900000 0.419000 -0.594000
v 0.900000 0.445000 -0.464000
v -0.900000 0.445000 -0.464000
v 0.900000 0.445000 -0.594000
v -0.900000 0.445000 -0.594000
v -0.895013 0.450000 -0.464360
v 0.895013 0.450000 -0.464360
v 0.895013 0.450000 -0.593640
v -0.895013 0.450000 -0.593640
v -0.895013 0.414000 -0.735640
v 0.895013 0.414000 -0.735640
v 0.895013 0.414000 -0.606360
v -0.895013 0.414000 -0.606360
v 0.900000 0.419000 -0.606000
v -0.900000 0.419000 -0.606000
v 0.900000 0.419000 -0.736000
v -0.900000 0.419000 -0.736000
v 0.900000 0.445000 -0.606000
v -0.900000 0.445000 -0.606000
v 0.900000 0.445000 -0.736000
v -0.900000 0.445000 -0.736000
v -0.895013 0.450000 -0.606360
v 0.895013 0.450000 -0.606360
v 0.895013 0.450000 -0.735640
v -0.895013 0.450000 -0.735640
vn 1.0000 -0.0000 -0.0000
vn -1.0000 -0.0000 -0.0000
vn -0.0000 -1.0000 -0.0000
vn -0.0000 0.4961 0.8682
vn -0.0000 1.0000 -0.0000
vn -0.0000 -0.4961 -0.8682
vn -0.0000 0.4961 -0.8682
vn -0.0000 -0.4961 0.8682
vn -0.0000 -0.0000 1.0000
vn -0.0000 -0.0000 -1.0000
vn -0.0000 -0.0719 0.9974
vn 0.7080 -0.7062 -0.0000
vn -0.0000 -0.0718 -0.9974
vn -0.7080 -0.7062 -0.0000
vn -0.0000 0.0719 0.9974
vn 0.7080 0.7062 -0.0000
vn -0.0000 0.0718 -0.9974
vn -0.7080 0.7062 -0.0000
vn -0.0000 -0.0718 0.9974
vn -0.0000 0.0718 0.9974
vn -0.0000 -0.0719 -0.9974
vn -0.0000 0.0719 -0.9974
vt 0.812500 0.937500
vt 0.562500 0.937500
vt 0.062500 0.312500
vt 0.312500 0.937500
s 0
usemtl FN_Atlas
f 1/1/1 2/1/1 3/1/1 4/1/1
f 5/1/2 6/1/2 7/1/2 8/1/2
f 4/1/3 3/1/3 6/1/3 5/1/3
f 3/1/4 2/1/4 7/1/4 6/1/4
f 2/1/5 1/1/5 8/1/5 7/1/5
f 1/1/6 4/1/6 5/1/6 8/1/6
f 9/1/2 10/1/2 11/1/2 12/1/2
f 13/1/1 14/1/1 15/1/1 16/1/1
f 12/1/3 11/1/3 14/1/3 13/1/3
f 11/1/7 10/1/7 15/1/7 14/1/7
f 10/1/5 9/1/5 16/1/5 15/1/5
f 9/1/8 12/1/8 13/1/8 16/1/8
f 17/2/3 18/2/3 19/2/3 20/2/3
f 21/1/5 22/1/5 23/1/5 24/1/5
f 17/1/9 20/1/9 22/1/9 21/1/9
f 19/1/10 18/1/10 24/1/10 23/1/10
f 17/1/2 21/1/2 24/1/2 18/1/2
f 20/1/1 19/1/1 23/1/1 22/1/1
f 25/2/3 26/2/3 27/2/3 28/2/3
f 29/1/5 30/1/5 31/1/5 32/1/5
f 25/1/9 28/1/9 30/1/9 29/1/9
f 27/1/10 26/1/10 32/1/10 31/1/10
f 25/1/2 29/1/2 32/1/2 26/1/2
f 28/1/1 27/1/1 31/1/1 30/1/1
f 33/3/3 34/3/3 35/3/3 36/3/3
f 37/3/5 38/3/5 39/3/5 40/3/5
f 33/3/9 36/3/9 38/3/9 37/3/9
f 35/3/10 34/3/10 40/3/10 39/3/10
f 33/3/2 37/3/2 40/3/2 34/3/2
f 36/3/1 35/3/1 39/3/1 38/3/1
f 41/3/3 42/3/3 43/3/3 44/3/3
f 45/3/5 46/3/5 47/3/5 48/3/5
f 41/3/9 44/3/9 46/3/9 45/3/9
f 43/3/10 42/3/10 48/3/10 47/3/10
f 41/3/2 45/3/2 48/3/2 42/3/2
f 44/3/1 43/3/1 47/3/1 46/3/1
f 49/3/3 50/3/3 51/3/3 52/3/3
f 53/3/5 54/3/5 55/3/5 56/3/5
f 49/3/9 52/3/9 54/3/9 53/3/9
f 51/3/10 50/3/10 56/3/10 55/3/10
f 49/3/2 53/3/2 56/3/2 50/3/2
f 52/3/1 51/3/1 55/3/1 54/3/1
f 57/3/3 58/3/3 59/3/3 60/3/3
f 61/3/5 62/3/5 63/3/5 64/3/5
f 57/3/9 60/3/9 62/3/9 61/3/9
f 59/3/10 58/3/10 64/3/10 63/3/10
f 57/3/2 61/3/2 64/3/2 58/3/2
f 60/3/1 59/3/1 63/3/1 62/3/1
f 65/1/1 66/1/1 67/1/1 68/1/1
f 69/1/2 70/1/2 71/1/2 72/1/2
f 68/1/3 67/1/3 70/1/3 69/1/3
f 67/1/4 66/1/4 71/1/4 70/1/4
f 66/1/5 65/1/5 72/1/5 71/1/5
f 65/1/6 68/1/6 69/1/6 72/1/6
f 73/1/2 74/1/2 75/1/2 76/1/2
f 77/1/1 78/1/1 79/1/1 80/1/1
f 76/1/3 75/1/3 78/1/3 77/1/3
f 75/1/7 74/1/7 79/1/7 78/1/7
f 74/1/5 73/1/5 80/1/5 79/1/5
f 73/1/8 76/1/8 77/1/8 80/1/8
f 81/2/3 82/2/3 83/2/3 84/2/3
f 85/1/5 86/1/5 87/1/5 88/1/5
f 81/1/9 84/1/9 86/1/9 85/1/9
f 83/1/10 82/1/10 88/1/10 87/1/10
f 81/1/2 85/1/2 88/1/2 82/1/2
f 84/1/1 83/1/1 87/1/1 86/1/1
f 89/2/3 90/2/3 91/2/3 92/2/3
f 93/1/5 94/1/5 95/1/5 96/1/5
f 89/1/9 92/1/9 94/1/9 93/1/9
f 91/1/10 90/1/10 96/1/10 95/1/10
f 89/1/2 93/1/2 96/1/2 90/1/2
f 92/1/1 91/1/1 95/1/1 94/1/1
f 97/3/3 98/3/3 99/3/3 100/3/3
f 101/3/5 102/3/5 103/3/5 104/3/5
f 97/3/9 100/3/9 102/3/9 101/3/9
f 99/3/10 98/3/10 104/3/10 103/3/10
f 97/3/2 101/3/2 104/3/2 98/3/2
f 100/3/1 99/3/1 103/3/1 102/3/1
f 105/3/3 106/3/3 107/3/3 108/3/3
f 109/3/5 110/3/5 111/3/5 112/3/5
f 105/3/9 108/3/9 110/3/9 109/3/9
f 107/3/10 106/3/10 112/3/10 111/3/10
f 105/3/2 109/3/2 112/3/2 106/3/2
f 108/3/1 107/3/1 111/3/1 110/3/1
f 113/3/3 114/3/3 115/3/3 116/3/3
f 117/3/5 118/3/5 119/3/5 120/3/5
f 113/3/9 116/3/9 118/3/9 117/3/9
f 115/3/10 114/3/10 120/3/10 119/3/10
f 113/3/2 117/3/2 120/3/2 114/3/2
f 116/3/1 115/3/1 119/3/1 118/3/1
f 121/3/3 122/3/3 123/3/3 124/3/3
f 125/3/5 126/3/5 127/3/5 128/3/5
f 121/3/9 124/3/9 126/3/9 125/3/9
f 123/3/10 122/3/10 128/3/10 127/3/10
f 121/3/2 125/3/2 128/3/2 122/3/2
f 124/3/1 123/3/1 127/3/1 126/3/1
f 129/2/3 130/2/3 131/2/3 132/2/3
f 132/2/11 131/2/11 133/2/11 134/2/11
f 131/2/12 130/2/12 135/2/12 133/2/12
f 130/2/13 129/2/13 136/2/13 135/2/13
f 129/2/14 132/2/14 134/2/14 136/2/14
f 134/2/9 133/2/9 137/2/9 138/2/9
f 133/2/1 135/2/1 139/2/1 137/2/1
f 135/2/10 136/2/10 140/2/10 139/2/10
f 136/2/2 134/2/2 138/2/2 140/2/2
f 141/4/5 142/4/5 143/4/5 144/4/5
f 138/2/15 137/2/15 142/2/15 141/2/15
f 137/2/16 139/2/16 143/2/16 142/2/16
f 139/2/17 140/2/17 144/2/17 143/2/17
f 140/2/18 138/2/18 141/2/18 144/2/18
f 145/2/3 146/2/3 147/2/3 148/2/3
f 148/2/19 147/2/19 149/2/19 150/2/19
f 147/2/12 146/2/12 151/2/12 149/2/12
f 146/2/13 145/2/13 152/2/13 151/2/13
f 145/2/14 148/2/14 150/2/14 152/2/14
f 150/2/9 149/2/9 153/2/9 154/2/9
f 149/2/1 151/2/1 155/2/1 153/2/1
f 151/2/10 152/2/10 156/2/10 155/2/10
f 152/2/2 150/2/2 154/2/2 156/2/2
f 157/4/5 158/4/5 159/4/5 160/4/5
f 154/2/20 153/2/20 158/2/20 157/2/20
f 153/2/16 155/2/16 159/2/16 158/2/16
f 155/2/17 156/2/17 160/2/17 159/2/17
f 156/2/18 154/2/18 157/2/18 160/2/18
f 161/2/3 162/2/3 163/2/3 164/2/3
f 164/2/19 163/2/19 165/2/19 166/2/19
f 163/2/12 162/2/12 167/2/12 165/2/12
f 162/2/13 161/2/13 168/2/13 167/2/13
f 161/2/14 164/2/14 166/2/14 168/2/14
f 166/2/9 165/2/9 169/2/9 170/2/9
f 165/2/1 167/2/1 171/2/1 169/2/1
f 167/2/10 168/2/10 172/2/10 171/2/10
f 168/2/2 166/2/2 170/2/2 172/2/2
f 173/4/5 174/4/5 175/4/5 176/4/5
f 170/2/20 169/2/20 174/2/20 173/2/20
f 169/2/16 171/2/16 175/2/16 174/2/16
f 171/2/17 172/2/17 176/2/17 175/2/17
f 172/2/18 170/2/18 173/2/18 176/2/18
f 177/2/3 178/2/3 179/2/3 180/2/3
f 180/2/19 179/2/19 181/2/19 182/2/19
f 179/2/12 178/2/12 183/2/12 181/2/12
f 178/2/13 177/2/13 184/2/13 183/2/13
f 177/2/14 180/2/14 182/2/14 184/2/14
f 182/2/9 181/2/9 185/2/9 186/2/9
f 181/2/1 183/2/1 187/2/1 185/2/1
f 183/2/10 184/2/10 188/2/10 187/2/10
f 184/2/2 182/2/2 186/2/2 188/2/2
f 189/4/5 190/4/5 191/4/5 192/4/5
f 186/2/20 185/2/20 190/2/20 189/2/20
f 185/2/16 187/2/16 191/2/16 190/2/16
f 187/2/17 188/2/17 192/2/17 191/2/17
f 188/2/18 186/2/18 189/2/18 192/2/18
f 193/2/3 194/2/3 195/2/3 196/2/3
f 196/2/19 195/2/19 197/2/19 198/2/19
f 195/2/12 194/2/12 199/2/12 197/2/12
f 194/2/21 193/2/21 200/2/21 199/2/21
f 193/2/14 196/2/14 198/2/14 200/2/14
f 198/2/9 197/2/9 201/2/9 202/2/9
f 197/2/1 199/2/1 203/2/1 201/2/1
f 199/2/10 200/2/10 204/2/10 203/2/10
f 200/2/2 198/2/2 202/2/2 204/2/2
f 205/4/5 206/4/5 207/4/5 208/4/5
f 202/2/20 201/2/20 206/2/20 205/2/20
f 201/2/16 203/2/16 207/2/16 206/2/16
f 203/2/22 204/2/22 208/2/22 207/2/22
f 204/2/18 202/2/18 205/2/18 208/2/18
f 209/2/3 210/2/3 211/2/3 212/2/3
f 212/2/11 211/2/11 213/2/11 214/2/11
f 211/2/12 210/2/12 215/2/12 213/2/12
f 210/2/21 209/2/21 216/2/21 215/2/21
f 209/2/14 212/2/14 214/2/14 216/2/14
f 214/2/9 213/2/9 217/2/9 218/2/9
f 213/2/1 215/2/1 219/2/1 217/2/1
f 215/2/10 216/2/10 220/2/10 219/2/10
f 216/2/2 214/2/2 218/2/2 220/2/2
f 221/4/5 222/4/5 223/4/5 224/4/5
f 218/2/15 217/2/15 222/2/15 221/2/15
f 217/2/16 219/2/16 223/2/16 222/2/16
f 219/2/22 220/2/22 224/2/22 223/2/22
f 220/2/18 218/2/18 221/2/18 224/2/18
f 225/2/3 226/2/3 227/2/3 228/2/3
f 228/2/19 227/2/19 229/2/19 230/2/19
f 227/2/12 226/2/12 231/2/12 229/2/12
f 226/2/21 225/2/21 232/2/21 231/2/21
f 225/2/14 228/2/14 230/2/14 232/2/14
f 230/2/9 229/2/9 233/2/9 234/2/9
f 229/2/1 231/2/1 235/2/1 233/2/1
f 231/2/10 232/2/10 236/2/10 235/2/10
f 232/2/2 230/2/2 234/2/2 236/2/2
f 237/4/5 238/4/5 239/4/5 240/4/5
f 234/2/20 233/2/20 238/2/20 237/2/20
f 233/2/16 235/2/16 239/2/16 238/2/16
f 235/2/22 236/2/22 240/2/22 239/2/22
f 236/2/18 234/2/18 237/2/18 240/2/18
f 241/2/3 242/2/3 243/2/3 244/2/3
f 244/2/11 243/2/11 245/2/11 246/2/11
f 243/2/12 242/2/12 247/2/12 245/2/12
f 242/2/13 241/2/13 248/2/13 247/2/13
f 241/2/14 244/2/14 246/2/14 248/2/14
f 246/2/9 245/2/9 249/2/9 250/2/9
f 245/2/1 247/2/1 251/2/1 249/2/1
f 247/2/10 248/2/10 252/2/10 251/2/10
f 248/2/2 246/2/2 250/2/2 252/2/2
f 253/4/5 254/4/5 255/4/5 256/4/5
f 250/2/15 249/2/15 254/2/15 253/2/15
f 249/2/16 251/2/16 255/2/16 254/2/16
f 251/2/17 252/2/17 256/2/17 255/2/17
f 252/2/18 250/2/18 253/2/18 256/2/18
f 257/2/3 258/2/3 259/2/3 260/2/3
f 260/2/11 259/2/11 261/2/11 262/2/11
f 259/2/12 258/2/12 263/2/12 261/2/12
f 258/2/21 257/2/21 264/2/21 263/2/21
f 257/2/14 260/2/14 262/2/14 264/2/14
f 262/2/9 261/2/9 265/2/9 266/2/9
f 261/2/1 263/2/1 267/2/1 265/2/1
f 263/2/10 264/2/10 268/2/10 267/2/10
f 264/2/2 262/2/2 266/2/2 268/2/2
f 269/4/5 270/4/5 271/4/5 272/4/5
f 266/2/15 265/2/15 270/2/15 269/2/15
f 265/2/16 267/2/16 271/2/16 270/2/16
f 267/2/22 268/2/22 272/2/22 271/2/22
f 268/2/18 266/2/18 269/2/18 272/2/18
