# Blender 5.2.0 LTS
# www.blender.org
mtllib FN_Table_Nest.mtl
o FN_Table_Nest
v -0.437053 0.496000 -0.232930
v 0.095053 0.496000 -0.232930
v 0.095053 0.496000 0.180930
v -0.437053 0.496000 0.180930
v 0.099000 0.501000 0.184000
v -0.441000 0.501000 0.184000
v 0.099000 0.501000 -0.236000
v -0.441000 0.501000 -0.236000
v 0.099000 0.515000 0.184000
v -0.441000 0.515000 0.184000
v 0.099000 0.515000 -0.236000
v -0.441000 0.515000 -0.236000
v -0.437053 0.520000 0.180930
v 0.095053 0.520000 0.180930
v 0.095053 0.520000 -0.232930
v -0.437053 0.520000 -0.232930
v -0.403500 0.000000 0.132742
v -0.390500 0.000000 0.132742
v -0.384000 0.000000 0.144000
v -0.390500 0.000000 0.155258
v -0.403500 0.000000 0.155258
v -0.410000 0.000000 0.144000
v -0.410000 0.000000 -0.196000
v -0.403500 0.000000 -0.207258
v -0.390500 0.000000 -0.207258
v -0.384000 0.000000 -0.196000
v -0.390500 0.000000 -0.184742
v -0.403500 0.000000 -0.184742
v -0.403500 0.458691 0.155237
v -0.410000 0.458000 0.144000
v -0.390500 0.458691 0.155237
v -0.384000 0.458000 0.144000
v -0.390500 0.457309 0.132763
v -0.403500 0.457309 0.132763
v -0.403500 0.499206 0.115084
v -0.410000 0.488000 0.114000
v -0.390500 0.499206 0.115084
v -0.384000 0.488000 0.114000
v -0.390500 0.476794 0.112916
v -0.403500 0.476794 0.112916
v -0.403500 0.499206 -0.167084
v -0.410000 0.488000 -0.166000
v -0.390500 0.499206 -0.167084
v -0.384000 0.488000 -0.166000
v -0.390500 0.476794 -0.164916
v -0.403500 0.476794 -0.164916
v -0.403500 0.458691 -0.207237
v -0.410000 0.458000 -0.196000
v -0.390500 0.458691 -0.207237
v -0.384000 0.458000 -0.196000
v -0.390500 0.457309 -0.184763
v -0.403500 0.457309 -0.184763
v 0.048500 0.000000 0.132742
v 0.061500 0.000000 0.132742
v 0.068000 0.000000 0.144000
v 0.061500 0.000000 0.155258
v 0.048500 0.000000 0.155258
v 0.042000 0.000000 0.144000
v 0.042000 0.000000 -0.196000
v 0.048500 0.000000 -0.207258
v 0.061500 0.000000 -0.207258
v 0.068000 0.000000 -0.196000
v 0.061500 0.000000 -0.184742
v 0.048500 0.000000 -0.184742
v 0.048500 0.458691 0.155237
v 0.042000 0.458000 0.144000
v 0.061500 0.458691 0.155237
v 0.068000 0.458000 0.144000
v 0.061500 0.457309 0.132763
v 0.048500 0.457309 0.132763
v 0.048500 0.499206 0.115084
v 0.042000 0.488000 0.114000
v 0.061500 0.499206 0.115084
v 0.068000 0.488000 0.114000
v 0.061500 0.476794 0.112916
v 0.048500 0.476794 0.112916
v 0.048500 0.499206 -0.167084
v 0.042000 0.488000 -0.166000
v 0.061500 0.499206 -0.167084
v 0.068000 0.488000 -0.166000
v 0.061500 0.476794 -0.164916
v 0.048500 0.476794 -0.164916
v 0.048500 0.458691 -0.207237
v 0.042000 0.458000 -0.196000
v 0.061500 0.458691 -0.207237
v 0.068000 0.458000 -0.196000
v 0.061500 0.457309 -0.184763
v 0.048500 0.457309 -0.184763
v -0.171227 0.436000 -0.186719
v 0.281227 0.436000 -0.186719
v 0.281227 0.436000 0.206719
v -0.171227 0.436000 0.206719
v 0.285000 0.441000 0.210000
v -0.175000 0.441000 0.210000
v 0.285000 0.441000 -0.190000
v -0.175000 0.441000 -0.190000
v 0.285000 0.455000 0.210000
v -0.175000 0.455000 0.210000
v 0.285000 0.455000 -0.190000
v -0.175000 0.455000 -0.190000
v -0.171227 0.460000 0.206719
v 0.281227 0.460000 0.206719
v 0.281227 0.460000 -0.186719
v -0.171227 0.460000 -0.186719
v -0.137500 0.000000 0.158742
v -0.124500 0.000000 0.158742
v -0.118000 0.000000 0.170000
v -0.124500 0.000000 0.181258
v -0.137500 0.000000 0.181258
v -0.144000 0.000000 0.170000
v -0.144000 0.000000 -0.150000
v -0.137500 0.000000 -0.161258
v -0.124500 0.000000 -0.161258
v -0.118000 0.000000 -0.150000
v -0.124500 0.000000 -0.138742
v -0.137500 0.000000 -0.138742
v -0.137500 0.398787 0.181231
v -0.144000 0.398000 0.170000
v -0.124500 0.398787 0.181231
v -0.118000 0.398000 0.170000
v -0.124500 0.397213 0.158769
v -0.137500 0.397213 0.158769
v -0.137500 0.439199 0.141158
v -0.144000 0.428000 0.140000
v -0.124500 0.439199 0.141158
v -0.118000 0.428000 0.140000
v -0.124500 0.416801 0.138842
v -0.137500 0.416801 0.138842
v -0.137500 0.439199 -0.121158
v -0.144000 0.428000 -0.120000
v -0.124500 0.439199 -0.121158
v -0.118000 0.428000 -0.120000
v -0.124500 0.416801 -0.118842
v -0.137500 0.416801 -0.118842
v -0.137500 0.398787 -0.161231
v -0.144000 0.398000 -0.150000
v -0.124500 0.398787 -0.161231
v -0.118000 0.398000 -0.150000
v -0.124500 0.397213 -0.138769
v -0.137500 0.397213 -0.138769
v 0.234500 0.000000 0.158742
v 0.247500 0.000000 0.158742
v 0.254000 0.000000 0.170000
v 0.247500 0.000000 0.181258
v 0.234500 0.000000 0.181258
v 0.228000 0.000000 0.170000
v 0.228000 0.000000 -0.150000
v 0.234500 0.000000 -0.161258
v 0.247500 0.000000 -0.161258
v 0.254000 0.000000 -0.150000
v 0.247500 0.000000 -0.138742
v 0.234500 0.000000 -0.138742
v 0.234500 0.398787 0.181231
v 0.228000 0.398000 0.170000
v 0.247500 0.398787 0.181231
v 0.254000 0.398000 0.170000
v 0.247500 0.397213 0.158769
v 0.234500 0.397213 0.158769
v 0.234500 0.439199 0.141158
v 0.228000 0.428000 0.140000
v 0.247500 0.439199 0.141158
v 0.254000 0.428000 0.140000
v 0.247500 0.416801 0.138842
v 0.234500 0.416801 0.138842
v 0.234500 0.439199 -0.121158
v 0.228000 0.428000 -0.120000
v 0.247500 0.439199 -0.121158
v 0.254000 0.428000 -0.120000
v 0.247500 0.416801 -0.118842
v 0.234500 0.416801 -0.118842
v 0.234500 0.398787 -0.161231
v 0.228000 0.398000 -0.150000
v 0.247500 0.398787 -0.161231
v 0.254000 0.398000 -0.150000
v 0.247500 0.397213 -0.138769
v 0.234500 0.397213 -0.138769
v 0.064536 0.376000 -0.140464
v 0.437464 0.376000 -0.140464
v 0.437464 0.376000 0.232464
v 0.064536 0.376000 0.232464
v 0.441000 0.381000 0.236000
v 0.061000 0.381000 0.236000
v 0.441000 0.381000 -0.144000
v 0.061000 0.381000 -0.144000
v 0.441000 0.395000 0.236000
v 0.061000 0.395000 0.236000
v 0.441000 0.395000 -0.144000
v 0.061000 0.395000 -0.144000
v 0.064536 0.400000 0.232464
v 0.437464 0.400000 0.232464
v 0.437464 0.400000 -0.140464
v 0.064536 0.400000 -0.140464
v 0.098500 0.000000 0.184742
v 0.111500 0.000000 0.184742
v 0.118000 0.000000 0.196000
v 0.111500 0.000000 0.207258
v 0.098500 0.000000 0.207258
v 0.092000 0.000000 0.196000
v 0.092000 0.000000 -0.104000
v 0.098500 0.000000 -0.115258
v 0.111500 0.000000 -0.115258
v 0.118000 0.000000 -0.104000
v 0.111500 0.000000 -0.092742
v 0.098500 0.000000 -0.092742
v 0.098500 0.338915 0.207221
v 0.092000 0.338000 0.196000
v 0.111500 0.338915 0.207221
v 0.118000 0.338000 0.196000
v 0.111500 0.337085 0.184779
v 0.098500 0.337085 0.184779
v 0.098500 0.379189 0.167243
v 0.092000 0.368000 0.166000
v 0.111500 0.379189 0.167243
v 0.118000 0.368000 0.166000
v 0.111500 0.356811 0.164757
v 0.098500 0.356811 0.164757
v 0.098500 0.379189 -0.075243
v 0.092000 0.368000 -0.074000
v 0.111500 0.379189 -0.075243
v 0.118000 0.368000 -0.074000
v 0.111500 0.356811 -0.072757
v 0.098500 0.356811 -0.072757
v 0.098500 0.338915 -0.115221
v 0.092000 0.338000 -0.104000
v 0.111500 0.338915 -0.115221
v 0.118000 0.338000 -0.104000
v 0.111500 0.337085 -0.092779
v 0.098500 0.337085 -0.092779
v 0.390500 0.000000 0.184742
v 0.403500 0.000000 0.184742
v 0.410000 0.000000 0.196000
v 0.403500 0.000000 0.207258
v 0.390500 0.000000 0.207258
v 0.384000 0.000000 0.196000
v 0.384000 0.000000 -0.104000
v 0.390500 0.000000 -0.115258
v 0.403500 0.000000 -0.115258
v 0.410000 0.000000 -0.104000
v 0.403500 0.000000 -0.092742
v 0.390500 0.000000 -0.092742
v 0.390500 0.338915 0.207221
v 0.384000 0.338000 0.196000
v 0.403500 0.338915 0.207221
v 0.410000 0.338000 0.196000
v 0.403500 0.337085 0.184779
v 0.390500 0.337085 0.184779
v 0.390500 0.379189 0.167243
v 0.384000 0.368000 0.166000
v 0.403500 0.379189 0.167243
v 0.410000 0.368000 0.166000
v 0.403500 0.356811 0.164757
v 0.390500 0.356811 0.164757
v 0.390500 0.379189 -0.075243
v 0.384000 0.368000 -0.074000
v 0.403500 0.379189 -0.075243
v 0.410000 0.368000 -0.074000
v 0.403500 0.356811 -0.072757
v 0.390500 0.356811 -0.072757
v 0.390500 0.338915 -0.115221
v 0.384000 0.338000 -0.104000
v 0.403500 0.338915 -0.115221
v 0.410000 0.338000 -0.104000
v 0.403500 0.337085 -0.092779
v 0.390500 0.337085 -0.092779
vn -0.0000 -1.0000 -0.0000
vn -0.0000 -0.5232 0.8522
vn 0.7849 -0.6196 -0.0000
vn -0.0000 -0.5232 -0.8522
vn -0.7849 -0.6196 -0.0000
vn -0.0000 -0.0000 1.0000
vn 1.0000 -0.0000 -0.0000
vn -0.0000 -0.0000 -1.0000
vn -1.0000 -0.0000 -0.0000
vn -0.0000 1.0000 -0.0000
vn -0.0000 0.5232 0.8522
vn 0.7849 0.6196 -0.0000
vn -0.0000 0.5232 -0.8522
vn -0.7849 0.6196 -0.0000
vn -0.8658 -0.0000 0.5004
vn 0.8658 -0.0000 0.5004
vn 0.8658 -0.0000 -0.5004
vn -0.8658 -0.0000 -0.5004
vn -0.7965 0.4264 0.4286
vn -0.0000 0.7039 0.7103
vn 0.7965 0.4264 0.4286
vn 0.7965 -0.4291 -0.4260
vn -0.0000 -0.7136 -0.7006
vn -0.7965 -0.4291 -0.4260
vn -0.8650 0.5017 -0.0000
vn 0.8650 0.5017 -0.0000
vn 0.8650 -0.5017 -0.0000
vn -0.8650 -0.5017 -0.0000
vn -0.7965 0.4264 -0.4286
vn -0.0000 0.7039 -0.7103
vn 0.7965 0.4264 -0.4286
vn 0.7965 -0.4291 0.4260
vn -0.0000 -0.7136 0.7006
vn -0.7965 -0.4291 0.4260
vn -0.0000 -0.5486 0.8361
vn 0.7982 -0.6023 -0.0000
vn -0.0000 -0.5486 -0.8361
vn -0.7982 -0.6023 -0.0000
vn -0.0000 0.5486 0.8361
vn 0.7982 0.6023 -0.0000
vn -0.0000 0.5486 -0.8361
vn -0.7982 0.6024 -0.0000
vn -0.8658 -0.0000 0.5005
vn -0.0000 0.0001 1.0000
vn 0.8658 -0.0000 0.5005
vn 0.8658 -0.0000 -0.5005
vn -0.0000 0.0001 -1.0000
vn -0.8658 -0.0000 -0.5005
vn -0.7984 0.4248 0.4268
vn -0.0000 0.7041 0.7101
vn 0.7984 0.4248 0.4268
vn 0.7984 -0.4273 -0.4244
vn -0.0000 -0.7131 -0.7010
vn -0.7984 -0.4273 -0.4244
vn -0.8649 0.5020 -0.0000
vn 0.8649 0.5020 -0.0000
vn 0.8649 -0.5020 -0.0000
vn -0.8649 -0.5020 -0.0000
vn -0.7984 0.4248 -0.4268
vn -0.0000 0.7041 -0.7101
vn 0.7984 0.4248 -0.4268
vn 0.7984 -0.4273 0.4244
vn -0.0000 -0.7131 0.7010
vn -0.7984 -0.4273 0.4244
vn -0.0000 -0.5773 0.8165
vn 0.8165 -0.5773 -0.0000
vn -0.0000 -0.5773 -0.8165
vn -0.8165 -0.5773 -0.0000
vn -0.0000 0.5774 0.8165
vn 0.8165 0.5773 -0.0000
vn -0.0000 0.5774 -0.8165
vn -0.8165 0.5774 -0.0000
vn -0.8657 -0.0000 0.5006
vn 0.8657 -0.0000 0.5006
vn 0.8657 -0.0000 -0.5006
vn -0.8657 -0.0000 -0.5006
vn -0.8007 0.4227 0.4245
vn -0.0000 0.7045 0.7097
vn 0.8007 0.4227 0.4245
vn 0.8006 -0.4249 -0.4224
vn -0.0000 -0.7124 -0.7018
vn -0.8006 -0.4249 -0.4224
vn -0.8647 0.5023 -0.0000
vn 0.8647 0.5023 -0.0000
vn 0.8647 -0.5023 -0.0000
vn -0.8647 -0.5023 -0.0000
vn -0.8007 0.4227 -0.4245
vn -0.0000 0.7045 -0.7097
vn 0.8007 0.4227 -0.4245
vn 0.8006 -0.4249 0.4224
vn -0.0000 -0.7124 0.7018
vn -0.8006 -0.4249 0.4224
vt 0.687500 0.937500
vt 0.437500 0.937500
vt 0.812500 0.312500
s 0
usemtl FN_Atlas
f 1/1/1 2/1/1 3/1/1 4/1/1
f 4/1/2 3/1/2 5/1/2 6/1/2
f 3/1/3 2/1/3 7/1/3 5/1/3
f 2/1/4 1/1/4 8/1/4 7/1/4
f 1/1/5 4/1/5 6/1/5 8/1/5
f 6/1/6 5/1/6 9/1/6 10/1/6
f 5/1/7 7/1/7 11/1/7 9/1/7
f 7/1/8 8/1/8 12/1/8 11/1/8
f 8/1/9 6/1/9 10/1/9 12/1/9
f 13/2/10 14/2/10 15/2/10 16/2/10
f 10/1/11 9/1/11 14/1/11 13/1/11
f 9/1/12 11/1/12 15/1/12 14/1/12
f 11/1/13 12/1/13 16/1/13 15/1/13
f 12/1/14 10/1/14 13/1/14 16/1/14
f 17/3/1 18/3/1 19/3/1 20/3/1 21/3/1 22/3/1
f 23/3/1 24/3/1 25/3/1 26/3/1 27/3/1 28/3/1
f 22/3/15 21/3/15 29/3/15 30/3/15
f 21/3/6 20/3/6 31/3/6 29/3/6
f 20/3/16 19/3/16 32/3/16 31/3/16
f 19/3/17 18/3/17 33/3/17 32/3/17
f 18/3/8 17/3/8 34/3/8 33/3/8
f 17/3/18 22/3/18 30/3/18 34/3/18
f 30/3/19 29/3/19 35/3/19 36/3/19
f 29/3/20 31/3/20 37/3/20 35/3/20
f 31/3/21 32/3/21 38/3/21 37/3/21
f 32/3/22 33/3/22 39/3/22 38/3/22
f 33/3/23 34/3/23 40/3/23 39/3/23
f 34/3/24 30/3/24 36/3/24 40/3/24
f 36/3/25 35/3/25 41/3/25 42/3/25
f 35/3/10 37/3/10 43/3/10 41/3/10
f 37/3/26 38/3/26 44/3/26 43/3/26
f 38/3/27 39/3/27 45/3/27 44/3/27
f 39/3/1 40/3/1 46/3/1 45/3/1
f 40/3/28 36/3/28 42/3/28 46/3/28
f 42/3/29 41/3/29 47/3/29 48/3/29
f 41/3/30 43/3/30 49/3/30 47/3/30
f 43/3/31 44/3/31 50/3/31 49/3/31
f 44/3/32 45/3/32 51/3/32 50/3/32
f 45/3/33 46/3/33 52/3/33 51/3/33
f 46/3/34 42/3/34 48/3/34 52/3/34
f 48/3/18 47/3/18 24/3/18 23/3/18
f 47/3/8 49/3/8 25/3/8 24/3/8
f 49/3/17 50/3/17 26/3/17 25/3/17
f 50/3/16 51/3/16 27/3/16 26/3/16
f 51/3/6 52/3/6 28/3/6 27/3/6
f 52/3/15 48/3/15 23/3/15 28/3/15
f 53/3/1 54/3/1 55/3/1 56/3/1 57/3/1 58/3/1
f 59/3/1 60/3/1 61/3/1 62/3/1 63/3/1 64/3/1
f 58/3/15 57/3/15 65/3/15 66/3/15
f 57/3/6 56/3/6 67/3/6 65/3/6
f 56/3/16 55/3/16 68/3/16 67/3/16
f 55/3/17 54/3/17 69/3/17 68/3/17
f 54/3/8 53/3/8 70/3/8 69/3/8
f 53/3/18 58/3/18 66/3/18 70/3/18
f 66/3/19 65/3/19 71/3/19 72/3/19
f 65/3/20 67/3/20 73/3/20 71/3/20
f 67/3/21 68/3/21 74/3/21 73/3/21
f 68/3/22 69/3/22 75/3/22 74/3/22
f 69/3/23 70/3/23 76/3/23 75/3/23
f 70/3/24 66/3/24 72/3/24 76/3/24
f 72/3/25 71/3/25 77/3/25 78/3/25
f 71/3/10 73/3/10 79/3/10 77/3/10
f 73/3/26 74/3/26 80/3/26 79/3/26
f 74/3/27 75/3/27 81/3/27 80/3/27
f 75/3/1 76/3/1 82/3/1 81/3/1
f 76/3/28 72/3/28 78/3/28 82/3/28
f 78/3/29 77/3/29 83/3/29 84/3/29
f 77/3/30 79/3/30 85/3/30 83/3/30
f 79/3/31 80/3/31 86/3/31 85/3/31
f 80/3/32 81/3/32 87/3/32 86/3/32
f 81/3/33 82/3/33 88/3/33 87/3/33
f 82/3/34 78/3/34 84/3/34 88/3/34
f 84/3/18 83/3/18 60/3/18 59/3/18
f 83/3/8 85/3/8 61/3/8 60/3/8
f 85/3/17 86/3/17 62/3/17 61/3/17
f 86/3/16 87/3/16 63/3/16 62/3/16
f 87/3/6 88/3/6 64/3/6 63/3/6
f 88/3/15 84/3/15 59/3/15 64/3/15
f 89/1/1 90/1/1 91/1/1 92/1/1
f 92/1/35 91/1/35 93/1/35 94/1/35
f 91/1/36 90/1/36 95/1/36 93/1/36
f 90/1/37 89/1/37 96/1/37 95/1/37
f 89/1/38 92/1/38 94/1/38 96/1/38
f 94/1/6 93/1/6 97/1/6 98/1/6
f 93/1/7 95/1/7 99/1/7 97/1/7
f 95/1/8 96/1/8 100/1/8 99/1/8
f 96/1/9 94/1/9 98/1/9 100/1/9
f 101/2/10 102/2/10 103/2/10 104/2/10
f 98/1/39 97/1/39 102/1/39 101/1/39
f 97/1/40 99/1/40 103/1/40 102/1/40
f 99/1/41 100/1/41 104/1/41 103/1/41
f 100/1/42 98/1/42 101/1/42 104/1/42
f 105/3/1 106/3/1 107/3/1 108/3/1 109/3/1 110/3/1
f 111/3/1 112/3/1 113/3/1 114/3/1 115/3/1 116/3/1
f 110/3/43 109/3/43 117/3/43 118/3/43
f 109/3/44 108/3/44 119/3/44 117/3/44
f 108/3/45 107/3/45 120/3/45 119/3/45
f 107/3/46 106/3/46 121/3/46 120/3/46
f 106/3/47 105/3/47 122/3/47 121/3/47
f 105/3/48 110/3/48 118/3/48 122/3/48
f 118/3/49 117/3/49 123/3/49 124/3/49
f 117/3/50 119/3/50 125/3/50 123/3/50
f 119/3/51 120/3/51 126/3/51 125/3/51
f 120/3/52 121/3/52 127/3/52 126/3/52
f 121/3/53 122/3/53 128/3/53 127/3/53
f 122/3/54 118/3/54 124/3/54 128/3/54
f 124/3/55 123/3/55 129/3/55 130/3/55
f 123/3/10 125/3/10 131/3/10 129/3/10
f 125/3/56 126/3/56 132/3/56 131/3/56
f 126/3/57 127/3/57 133/3/57 132/3/57
f 127/3/1 128/3/1 134/3/1 133/3/1
f 128/3/58 124/3/58 130/3/58 134/3/58
f 130/3/59 129/3/59 135/3/59 136/3/59
f 129/3/60 131/3/60 137/3/60 135/3/60
f 131/3/61 132/3/61 138/3/61 137/3/61
f 132/3/62 133/3/62 139/3/62 138/3/62
f 133/3/63 134/3/63 140/3/63 139/3/63
f 134/3/64 130/3/64 136/3/64 140/3/64
f 136/3/48 135/3/48 112/3/48 111/3/48
f 135/3/47 137/3/47 113/3/47 112/3/47
f 137/3/46 138/3/46 114/3/46 113/3/46
f 138/3/45 139/3/45 115/3/45 114/3/45
f 139/3/44 140/3/44 116/3/44 115/3/44
f 140/3/43 136/3/43 111/3/43 116/3/43
f 141/3/1 142/3/1 143/3/1 144/3/1 145/3/1 146/3/1
f 147/3/1 148/3/1 149/3/1 150/3/1 151/3/1 152/3/1
f 146/3/43 145/3/43 153/3/43 154/3/43
f 145/3/44 144/3/44 155/3/44 153/3/44
f 144/3/45 143/3/45 156/3/45 155/3/45
f 143/3/46 142/3/46 157/3/46 156/3/46
f 142/3/47 141/3/47 158/3/47 157/3/47
f 141/3/48 146/3/48 154/3/48 158/3/48
f 154/3/49 153/3/49 159/3/49 160/3/49
f 153/3/50 155/3/50 161/3/50 159/3/50
f 155/3/51 156/3/51 162/3/51 161/3/51
f 156/3/52 157/3/52 163/3/52 162/3/52
f 157/3/53 158/3/53 164/3/53 163/3/53
f 158/3/54 154/3/54 160/3/54 164/3/54
f 160/3/55 159/3/55 165/3/55 166/3/55
f 159/3/10 161/3/10 167/3/10 165/3/10
f 161/3/56 162/3/56 168/3/56 167/3/56
f 162/3/57 163/3/57 169/3/57 168/3/57
f 163/3/1 164/3/1 170/3/1 169/3/1
f 164/3/58 160/3/58 166/3/58 170/3/58
f 166/3/59 165/3/59 171/3/59 172/3/59
f 165/3/60 167/3/60 173/3/60 171/3/60
f 167/3/61 168/3/61 174/3/61 173/3/61
f 168/3/62 169/3/62 175/3/62 174/3/62
f 169/3/63 170/3/63 176/3/63 175/3/63
f 170/3/64 166/3/64 172/3/64 176/3/64
f 172/3/48 171/3/48 148/3/48 147/3/48
f 171/3/47 173/3/47 149/3/47 148/3/47
f 173/3/46 174/3/46 150/3/46 149/3/46
f 174/3/45 175/3/45 151/3/45 150/3/45
f 175/3/44 176/3/44 152/3/44 151/3/44
f 176/3/43 172/3/43 147/3/43 152/3/43
f 177/1/1 178/1/1 179/1/1 180/1/1
f 180/1/65 179/1/65 181/1/65 182/1/65
f 179/1/66 178/1/66 183/1/66 181/1/66
f 178/1/67 177/1/67 184/1/67 183/1/67
f 177/1/68 180/1/68 182/1/68 184/1/68
f 182/1/6 181/1/6 185/1/6 186/1/6
f 181/1/7 183/1/7 187/1/7 185/1/7
f 183/1/8 184/1/8 188/1/8 187/1/8
f 184/1/9 182/1/9 186/1/9 188/1/9
f 189/2/10 190/2/10 191/2/10 192/2/10
f 186/1/69 185/1/69 190/1/69 189/1/69
f 185/1/70 187/1/70 191/1/70 190/1/70
f 187/1/71 188/1/71 192/1/71 191/1/71
f 188/1/72 186/1/72 189/1/72 192/1/72
f 193/3/1 194/3/1 195/3/1 196/3/1 197/3/1 198/3/1
f 199/3/1 200/3/1 201/3/1 202/3/1 203/3/1 204/3/1
f 198/3/73 197/3/73 205/3/73 206/3/73
f 197/3/44 196/3/44 207/3/44 205/3/44
f 196/3/74 195/3/74 208/3/74 207/3/74
f 195/3/75 194/3/75 209/3/75 208/3/75
f 194/3/47 193/3/47 210/3/47 209/3/47
f 193/3/76 198/3/76 206/3/76 210/3/76
f 206/3/77 205/3/77 211/3/77 212/3/77
f 205/3/78 207/3/78 213/3/78 211/3/78
f 207/3/79 208/3/79 214/3/79 213/3/79
f 208/3/80 209/3/80 215/3/80 214/3/80
f 209/3/81 210/3/81 216/3/81 215/3/81
f 210/3/82 206/3/82 212/3/82 216/3/82
f 212/3/83 211/3/83 217/3/83 218/3/83
f 211/3/10 213/3/10 219/3/10 217/3/10
f 213/3/84 214/3/84 220/3/84 219/3/84
f 214/3/85 215/3/85 221/3/85 220/3/85
f 215/3/1 216/3/1 222/3/1 221/3/1
f 216/3/86 212/3/86 218/3/86 222/3/86
f 218/3/87 217/3/87 223/3/87 224/3/87
f 217/3/88 219/3/88 225/3/88 223/3/88
f 219/3/89 220/3/89 226/3/89 225/3/89
f 220/3/90 221/3/90 227/3/90 226/3/90
f 221/3/91 222/3/91 228/3/91 227/3/91
f 222/3/92 218/3/92 224/3/92 228/3/92
f 224/3/76 223/3/76 200/3/76 199/3/76
f 223/3/47 225/3/47 201/3/47 200/3/47
f 225/3/75 226/3/75 202/3/75 201/3/75
f 226/3/74 227/3/74 203/3/74 202/3/74
f 227/3/44 228/3/44 204/3/44 203/3/44
f 228/3/73 224/3/73 199/3/73 204/3/73
f 229/3/1 230/3/1 231/3/1 232/3/1 233/3/1 234/3/1
f 235/3/1 236/3/1 237/3/1 238/3/1 239/3/1 240/3/1
f 234/3/73 233/3/73 241/3/73 242/3/73
f 233/3/44 232/3/44 243/3/44 241/3/44
f 232/3/74 231/3/74 244/3/74 243/3/74
f 231/3/75 230/3/75 245/3/75 244/3/75
f 230/3/47 229/3/47 246/3/47 245/3/47
f 229/3/76 234/3/76 242/3/76 246/3/76
f 242/3/77 241/3/77 247/3/77 248/3/77
f 241/3/78 243/3/78 249/3/78 247/3/78
f 243/3/79 244/3/79 250/3/79 249/3/79
f 244/3/80 245/3/80 251/3/80 250/3/80
f 245/3/81 246/3/81 252/3/81 251/3/81
f 246/3/82 242/3/82 248/3/82 252/3/82
f 248/3/83 247/3/83 253/3/83 254/3/83
f 247/3/10 249/3/10 255/3/10 253/3/10
f 249/3/84 250/3/84 256/3/84 255/3/84
f 250/3/85 251/3/85 257/3/85 256/3/85
f 251/3/1 252/3/1 258/3/1 257/3/1
f 252/3/86 248/3/86 254/3/86 258/3/86
f 254/3/87 253/3/87 259/3/87 260/3/87
f 253/3/88 255/3/88 261/3/88 259/3/88
f 255/3/89 256/3/89 262/3/89 261/3/89
f 256/3/90 257/3/90 263/3/90 262/3/90
f 257/3/91 258/3/91 264/3/91 263/3/91
f 258/3/92 254/3/92 260/3/92 264/3/92
f 260/3/76 259/3/76 236/3/76 235/3/76
f 259/3/47 261/3/47 237/3/47 236/3/47
f 261/3/75 262/3/75 238/3/75 237/3/75
f 262/3/74 263/3/74 239/3/74 238/3/74
f 263/3/44 264/3/44 240/3/44 239/3/44
f 264/3/73 260/3/73 235/3/73 240/3/73
