# Blender 5.2.0 LTS
# www.blender.org
mtllib FN_Table_Pool.mtl
o FN_Table_Pool
v -0.990000 0.760000 0.420000
v -0.990000 0.760000 -0.420000
v -0.915000 0.760000 -0.495000
v -0.100000 0.760000 -0.495000
v -0.100000 0.760000 -0.425000
v 0.100000 0.760000 -0.425000
v 0.100000 0.760000 -0.495000
v 0.915000 0.760000 -0.495000
v 0.990000 0.760000 -0.420000
v 0.990000 0.760000 0.420000
v 0.915000 0.760000 0.495000
v 0.100000 0.760000 0.495000
v 0.100000 0.760000 0.425000
v -0.100000 0.760000 0.425000
v -0.100000 0.760000 0.495000
v -0.915000 0.760000 0.495000
v -0.915000 0.790000 0.495000
v -0.100000 0.790000 0.495000
v -0.100000 0.790000 0.425000
v 0.100000 0.790000 0.425000
v 0.100000 0.790000 0.495000
v 0.915000 0.790000 0.495000
v 0.990000 0.790000 0.420000
v 0.990000 0.790000 -0.420000
v 0.915000 0.790000 -0.495000
v 0.100000 0.790000 -0.495000
v 0.100000 0.790000 -0.425000
v -0.100000 0.790000 -0.425000
v -0.100000 0.790000 -0.495000
v -0.915000 0.790000 -0.495000
v -0.990000 0.790000 -0.420000
v -0.990000 0.790000 0.420000
v -0.980000 0.790000 -0.485000
v -0.980000 0.790000 -0.573000
v -0.100000 0.790000 -0.573000
v -0.100000 0.790000 -0.485000
v -0.980000 0.840000 -0.485000
v -0.100000 0.840000 -0.485000
v -0.100000 0.840000 -0.573000
v -0.980000 0.840000 -0.573000
v 0.100000 0.790000 -0.485000
v 0.100000 0.790000 -0.573000
v 0.980000 0.790000 -0.573000
v 0.980000 0.790000 -0.485000
v 0.100000 0.840000 -0.485000
v 0.980000 0.840000 -0.485000
v 0.980000 0.840000 -0.573000
v 0.100000 0.840000 -0.573000
v -0.980000 0.790000 0.573000
v -0.980000 0.790000 0.485000
v -0.100000 0.790000 0.485000
v -0.100000 0.790000 0.573000
v -0.980000 0.840000 0.573000
v -0.100000 0.840000 0.573000
v -0.100000 0.840000 0.485000
v -0.980000 0.840000 0.485000
v 0.100000 0.790000 0.573000
v 0.100000 0.790000 0.485000
v 0.980000 0.790000 0.485000
v 0.980000 0.790000 0.573000
v 0.100000 0.840000 0.573000
v 0.980000 0.840000 0.573000
v 0.980000 0.840000 0.485000
v 0.100000 0.840000 0.485000
v -1.068000 0.790000 0.420000
v -1.068000 0.790000 -0.420000
v -0.980000 0.790000 -0.420000
v -0.980000 0.790000 0.420000
v -1.068000 0.840000 0.420000
v -0.980000 0.840000 0.420000
v -0.980000 0.840000 -0.420000
v -1.068000 0.840000 -0.420000
v 0.980000 0.790000 0.420000
v 0.980000 0.790000 -0.420000
v 1.068000 0.790000 -0.420000
v 1.068000 0.790000 0.420000
v 0.980000 0.840000 0.420000
v 1.068000 0.840000 0.420000
v 1.068000 0.840000 -0.420000
v 0.980000 0.840000 -0.420000
v -0.930000 0.680000 -0.440000
v -0.930000 0.680000 -0.500000
v -0.110000 0.680000 -0.500000
v -0.110000 0.680000 -0.440000
v -0.930000 0.768000 -0.440000
v -0.110000 0.768000 -0.440000
v -0.110000 0.768000 -0.500000
v -0.930000 0.768000 -0.500000
v 0.110000 0.680000 -0.440000
v 0.110000 0.680000 -0.500000
v 0.930000 0.680000 -0.500000
v 0.930000 0.680000 -0.440000
v 0.110000 0.768000 -0.440000
v 0.930000 0.768000 -0.440000
v 0.930000 0.768000 -0.500000
v 0.110000 0.768000 -0.500000
v -0.930000 0.680000 0.500000
v -0.930000 0.680000 0.440000
v -0.110000 0.680000 0.440000
v -0.110000 0.680000 0.500000
v -0.930000 0.768000 0.500000
v -0.110000 0.768000 0.500000
v -0.110000 0.768000 0.440000
v -0.930000 0.768000 0.440000
v 0.110000 0.680000 0.500000
v 0.110000 0.680000 0.440000
v 0.930000 0.680000 0.440000
v 0.930000 0.680000 0.500000
v 0.110000 0.768000 0.500000
v 0.930000 0.768000 0.500000
v 0.930000 0.768000 0.440000
v 0.110000 0.768000 0.440000
v -0.995000 0.680000 0.400000
v -0.995000 0.680000 -0.400000
v -0.935000 0.680000 -0.400000
v -0.935000 0.680000 0.400000
v -0.995000 0.768000 0.400000
v -0.935000 0.768000 0.400000
v -0.935000 0.768000 -0.400000
v -0.995000 0.768000 -0.400000
v 0.935000 0.680000 0.400000
v 0.935000 0.680000 -0.400000
v 0.995000 0.680000 -0.400000
v 0.995000 0.680000 0.400000
v 0.935000 0.768000 0.400000
v 0.995000 0.768000 0.400000
v 0.995000 0.768000 -0.400000
v 0.935000 0.768000 -0.400000
v -0.965000 0.000000 0.465000
v -0.965000 0.000000 0.335000
v -0.835000 0.000000 0.335000
v -0.835000 0.000000 0.465000
v -0.965000 0.690000 0.465000
v -0.835000 0.690000 0.465000
v -0.835000 0.690000 0.335000
v -0.965000 0.690000 0.335000
v -0.965000 0.000000 -0.335000
v -0.965000 0.000000 -0.465000
v -0.835000 0.000000 -0.465000
v -0.835000 0.000000 -0.335000
v -0.965000 0.690000 -0.335000
v -0.835000 0.690000 -0.335000
v -0.835000 0.690000 -0.465000
v -0.965000 0.690000 -0.465000
v 0.835000 0.000000 0.465000
v 0.835000 0.000000 0.335000
v 0.965000 0.000000 0.335000
v 0.965000 0.000000 0.465000
v 0.835000 0.690000 0.465000
v 0.965000 0.690000 0.465000
v 0.965000 0.690000 0.335000
v 0.835000 0.690000 0.335000
v 0.835000 0.000000 -0.335000
v 0.835000 0.000000 -0.465000
v 0.965000 0.000000 -0.465000
v 0.965000 0.000000 -0.335000
v 0.835000 0.690000 -0.335000
v 0.965000 0.690000 -0.335000
v 0.965000 0.690000 -0.465000
v 0.835000 0.690000 -0.465000
v -0.987500 0.660000 0.422500
v -0.917500 0.660000 0.422500
v -0.917500 0.660000 0.492500
v -0.987500 0.660000 0.492500
v -1.017500 0.765000 0.522500
v -0.887500 0.765000 0.522500
v -0.887500 0.765000 0.392500
v -1.017500 0.765000 0.392500
v 0.917500 0.660000 0.422500
v 0.987500 0.660000 0.422500
v 0.987500 0.660000 0.492500
v 0.917500 0.660000 0.492500
v 0.887500 0.765000 0.522500
v 1.017500 0.765000 0.522500
v 1.017500 0.765000 0.392500
v 0.887500 0.765000 0.392500
v 0.917500 0.660000 -0.492500
v 0.987500 0.660000 -0.492500
v 0.987500 0.660000 -0.422500
v 0.917500 0.660000 -0.422500
v 0.887500 0.765000 -0.392500
v 1.017500 0.765000 -0.392500
v 1.017500 0.765000 -0.522500
v 0.887500 0.765000 -0.522500
v -0.987500 0.660000 -0.492500
v -0.917500 0.660000 -0.492500
v -0.917500 0.660000 -0.422500
v -0.987500 0.660000 -0.422500
v -1.017500 0.765000 -0.392500
v -0.887500 0.765000 -0.392500
v -0.887500 0.765000 -0.522500
v -1.017500 0.765000 -0.522500
v -0.070000 0.660000 0.440000
v 0.070000 0.660000 0.440000
v 0.070000 0.660000 0.480000
v -0.070000 0.660000 0.480000
v -0.100000 0.765000 0.510000
v 0.100000 0.765000 0.510000
v 0.100000 0.765000 0.410000
v -0.100000 0.765000 0.410000
v -0.070000 0.660000 -0.480000
v 0.070000 0.660000 -0.480000
v 0.070000 0.660000 -0.440000
v -0.070000 0.660000 -0.440000
v -0.100000 0.765000 -0.410000
v 0.100000 0.765000 -0.410000
v 0.100000 0.765000 -0.510000
v -0.100000 0.765000 -0.510000
v -0.574885 0.804500 -0.150000
v -0.587443 0.804500 -0.171750
v -0.585500 0.819000 -0.175115
v -0.571000 0.819000 -0.150000
v -0.612557 0.804500 -0.171750
v -0.614500 0.819000 -0.175115
v -0.625115 0.804500 -0.150000
v -0.629000 0.819000 -0.150000
v -0.612557 0.804500 -0.128250
v -0.614500 0.819000 -0.124885
v -0.587443 0.804500 -0.128250
v -0.585500 0.819000 -0.124885
v -0.587443 0.833500 -0.171750
v -0.574885 0.833500 -0.150000
v -0.612557 0.833500 -0.171750
v -0.625115 0.833500 -0.150000
v -0.612557 0.833500 -0.128250
v -0.587443 0.833500 -0.128250
v -0.600000 0.848000 -0.150000
v -0.600000 0.790000 -0.150000
v 0.275115 0.804500 0.100000
v 0.262557 0.804500 0.078250
v 0.264500 0.819000 0.074885
v 0.279000 0.819000 0.100000
v 0.237443 0.804500 0.078250
v 0.235500 0.819000 0.074885
v 0.224885 0.804500 0.100000
v 0.221000 0.819000 0.100000
v 0.237443 0.804500 0.121750
v 0.235500 0.819000 0.125115
v 0.262557 0.804500 0.121750
v 0.264500 0.819000 0.125115
v 0.262557 0.833500 0.078250
v 0.275115 0.833500 0.100000
v 0.237443 0.833500 0.078250
v 0.224885 0.833500 0.100000
v 0.237443 0.833500 0.121750
v 0.262557 0.833500 0.121750
v 0.250000 0.848000 0.100000
v 0.250000 0.790000 0.100000
v 0.445115 0.804500 -0.180000
v 0.432557 0.804500 -0.201750
v 0.434500 0.819000 -0.205115
v 0.449000 0.819000 -0.180000
v 0.407443 0.804500 -0.201750
v 0.405500 0.819000 -0.205115
v 0.394885 0.804500 -0.180000
v 0.391000 0.819000 -0.180000
v 0.407443 0.804500 -0.158250
v 0.405500 0.819000 -0.154885
v 0.432557 0.804500 -0.158250
v 0.434500 0.819000 -0.154885
v 0.432557 0.833500 -0.201750
v 0.445115 0.833500 -0.180000
v 0.407443 0.833500 -0.201750
v 0.394885 0.833500 -0.180000
v 0.407443 0.833500 -0.158250
v 0.432557 0.833500 -0.158250
v 0.420000 0.848000 -0.180000
v 0.420000 0.790000 -0.180000
v -0.863452 0.792144 0.322783
v -0.856708 0.792144 0.337292
v -0.853256 0.806000 0.344509
v -0.856548 0.819856 0.337217
v -0.863292 0.819856 0.322708
v -0.866744 0.806000 0.315491
v 0.557471 0.796000 -0.335441
v 0.558766 0.801196 -0.332734
v 0.561295 0.801196 -0.327293
v 0.562529 0.796000 -0.324559
v 0.561234 0.790804 -0.327266
v 0.558705 0.790804 -0.332707
vn -0.0000 -1.0000 -0.0000
vn -0.0000 1.0000 -0.0000
vn -0.0000 -0.0000 1.0000
vn 1.0000 -0.0000 -0.0000
vn -1.0000 -0.0000 -0.0000
vn 0.7071 -0.0000 0.7071
vn 0.7071 -0.0000 -0.7071
vn -0.0000 -0.0000 -1.0000
vn -0.7071 -0.0000 -0.7071
vn -0.7071 -0.0000 0.7071
vn -0.0000 -0.2747 0.9615
vn 0.9615 -0.2747 -0.0000
vn -0.0000 -0.2747 -0.9615
vn -0.9615 -0.2747 -0.0000
vn 0.8436 -0.2260 -0.4871
vn -0.0000 -0.2260 -0.9741
vn -0.8436 -0.2260 -0.4871
vn -0.8436 -0.2260 0.4871
vn -0.0000 -0.2260 0.9741
vn 0.8436 -0.2260 0.4871
vn 0.8436 0.2260 -0.4871
vn -0.0000 0.2260 -0.9741
vn -0.8436 0.2260 -0.4871
vn -0.8436 0.2260 0.4871
vn -0.0000 0.2260 0.9741
vn 0.8436 0.2260 0.4871
vn 0.4804 0.8320 -0.2774
vn 0.4804 -0.8321 -0.2774
vn -0.0000 0.8321 -0.5547
vn -0.0000 -0.8321 -0.5547
vn -0.4804 0.8320 -0.2774
vn -0.4804 -0.8321 -0.2774
vn -0.4804 0.8321 0.2774
vn -0.4804 -0.8321 0.2774
vn -0.0000 0.8321 0.5547
vn -0.0000 -0.8321 0.5547
vn 0.4804 0.8321 0.2774
vn 0.4804 -0.8321 0.2774
vn 0.4804 0.8321 -0.2774
vn -0.4804 0.8321 -0.2773
vn -0.4804 -0.8321 -0.2773
vn -0.4804 0.8321 0.2773
vn -0.4804 -0.8321 0.2773
vn 0.4804 0.8321 -0.2773
vn 0.4804 -0.8321 -0.2773
vn -0.4804 0.8320 -0.2773
vn 0.4804 0.8321 0.2773
vn 0.4804 -0.8321 0.2773
vn -0.9068 0.0064 0.4215
vn 0.9068 -0.0064 -0.4215
vn -0.3571 0.4999 -0.7890
vn 0.0108 0.9999 -0.0050
vn 0.3729 0.4999 0.7817
vn 0.3671 -0.5000 0.7843
vn -0.0008 -1.0000 0.0004
vn -0.3629 -0.5000 -0.7863
vt 0.562500 0.562500
vt 0.437500 0.937500
vt 0.812500 0.312500
vt 0.437500 0.812500
vt 0.437500 0.312500
vt 0.312500 0.937500
s 0
usemtl FN_Atlas
f 1/1/1 2/1/1 3/1/1 4/1/1 5/1/1 6/1/1 7/1/1 8/1/1 9/1/1 10/1/1 11/1/1 12/1/1 13/1/1 14/1/1 15/1/1 16/1/1
f 17/1/2 18/1/2 19/1/2 20/1/2 21/1/2 22/1/2 23/1/2 24/1/2 25/1/2 26/1/2 27/1/2 28/1/2 29/1/2 30/1/2 31/1/2 32/1/2
f 16/1/3 15/1/3 18/1/3 17/1/3
f 15/1/4 14/1/4 19/1/4 18/1/4
f 14/1/3 13/1/3 20/1/3 19/1/3
f 13/1/5 12/1/5 21/1/5 20/1/5
f 12/1/3 11/1/3 22/1/3 21/1/3
f 11/1/6 10/1/6 23/1/6 22/1/6
f 10/1/4 9/1/4 24/1/4 23/1/4
f 9/1/7 8/1/7 25/1/7 24/1/7
f 8/1/8 7/1/8 26/1/8 25/1/8
f 7/1/5 6/1/5 27/1/5 26/1/5
f 6/1/8 5/1/8 28/1/8 27/1/8
f 5/1/4 4/1/4 29/1/4 28/1/4
f 4/1/8 3/1/8 30/1/8 29/1/8
f 3/1/9 2/1/9 31/1/9 30/1/9
f 2/1/5 1/1/5 32/1/5 31/1/5
f 1/1/10 16/1/10 17/1/10 32/1/10
f 33/2/1 34/2/1 35/2/1 36/2/1
f 37/2/2 38/2/2 39/2/2 40/2/2
f 33/2/3 36/2/3 38/2/3 37/2/3
f 35/2/8 34/2/8 40/2/8 39/2/8
f 33/2/5 37/2/5 40/2/5 34/2/5
f 36/2/4 35/2/4 39/2/4 38/2/4
f 41/2/1 42/2/1 43/2/1 44/2/1
f 45/2/2 46/2/2 47/2/2 48/2/2
f 41/2/3 44/2/3 46/2/3 45/2/3
f 43/2/8 42/2/8 48/2/8 47/2/8
f 41/2/5 45/2/5 48/2/5 42/2/5
f 44/2/4 43/2/4 47/2/4 46/2/4
f 49/2/1 50/2/1 51/2/1 52/2/1
f 53/2/2 54/2/2 55/2/2 56/2/2
f 49/2/3 52/2/3 54/2/3 53/2/3
f 51/2/8 50/2/8 56/2/8 55/2/8
f 49/2/5 53/2/5 56/2/5 50/2/5
f 52/2/4 51/2/4 55/2/4 54/2/4
f 57/2/1 58/2/1 59/2/1 60/2/1
f 61/2/2 62/2/2 63/2/2 64/2/2
f 57/2/3 60/2/3 62/2/3 61/2/3
f 59/2/8 58/2/8 64/2/8 63/2/8
f 57/2/5 61/2/5 64/2/5 58/2/5
f 60/2/4 59/2/4 63/2/4 62/2/4
f 65/2/1 66/2/1 67/2/1 68/2/1
f 69/2/2 70/2/2 71/2/2 72/2/2
f 65/2/3 68/2/3 70/2/3 69/2/3
f 67/2/8 66/2/8 72/2/8 71/2/8
f 65/2/5 69/2/5 72/2/5 66/2/5
f 68/2/4 67/2/4 71/2/4 70/2/4
f 73/2/1 74/2/1 75/2/1 76/2/1
f 77/2/2 78/2/2 79/2/2 80/2/2
f 73/2/3 76/2/3 78/2/3 77/2/3
f 75/2/8 74/2/8 80/2/8 79/2/8
f 73/2/5 77/2/5 80/2/5 74/2/5
f 76/2/4 75/2/4 79/2/4 78/2/4
f 81/2/1 82/2/1 83/2/1 84/2/1
f 85/2/2 86/2/2 87/2/2 88/2/2
f 81/2/3 84/2/3 86/2/3 85/2/3
f 83/2/8 82/2/8 88/2/8 87/2/8
f 81/2/5 85/2/5 88/2/5 82/2/5
f 84/2/4 83/2/4 87/2/4 86/2/4
f 89/2/1 90/2/1 91/2/1 92/2/1
f 93/2/2 94/2/2 95/2/2 96/2/2
f 89/2/3 92/2/3 94/2/3 93/2/3
f 91/2/8 90/2/8 96/2/8 95/2/8
f 89/2/5 93/2/5 96/2/5 90/2/5
f 92/2/4 91/2/4 95/2/4 94/2/4
f 97/2/1 98/2/1 99/2/1 100/2/1
f 101/2/2 102/2/2 103/2/2 104/2/2
f 97/2/3 100/2/3 102/2/3 101/2/3
f 99/2/8 98/2/8 104/2/8 103/2/8
f 97/2/5 101/2/5 104/2/5 98/2/5
f 100/2/4 99/2/4 103/2/4 102/2/4
f 105/2/1 106/2/1 107/2/1 108/2/1
f 109/2/2 110/2/2 111/2/2 112/2/2
f 105/2/3 108/2/3 110/2/3 109/2/3
f 107/2/8 106/2/8 112/2/8 111/2/8
f 105/2/5 109/2/5 112/2/5 106/2/5
f 108/2/4 107/2/4 111/2/4 110/2/4
f 113/2/1 114/2/1 115/2/1 116/2/1
f 117/2/2 118/2/2 119/2/2 120/2/2
f 113/2/3 116/2/3 118/2/3 117/2/3
f 115/2/8 114/2/8 120/2/8 119/2/8
f 113/2/5 117/2/5 120/2/5 114/2/5
f 116/2/4 115/2/4 119/2/4 118/2/4
f 121/2/1 122/2/1 123/2/1 124/2/1
f 125/2/2 126/2/2 127/2/2 128/2/2
f 121/2/3 124/2/3 126/2/3 125/2/3
f 123/2/8 122/2/8 128/2/8 127/2/8
f 121/2/5 125/2/5 128/2/5 122/2/5
f 124/2/4 123/2/4 127/2/4 126/2/4
f 129/2/1 130/2/1 131/2/1 132/2/1
f 133/2/2 134/2/2 135/2/2 136/2/2
f 129/2/3 132/2/3 134/2/3 133/2/3
f 131/2/8 130/2/8 136/2/8 135/2/8
f 129/2/5 133/2/5 136/2/5 130/2/5
f 132/2/4 131/2/4 135/2/4 134/2/4
f 137/2/1 138/2/1 139/2/1 140/2/1
f 141/2/2 142/2/2 143/2/2 144/2/2
f 137/2/3 140/2/3 142/2/3 141/2/3
f 139/2/8 138/2/8 144/2/8 143/2/8
f 137/2/5 141/2/5 144/2/5 138/2/5
f 140/2/4 139/2/4 143/2/4 142/2/4
f 145/2/1 146/2/1 147/2/1 148/2/1
f 149/2/2 150/2/2 151/2/2 152/2/2
f 145/2/3 148/2/3 150/2/3 149/2/3
f 147/2/8 146/2/8 152/2/8 151/2/8
f 145/2/5 149/2/5 152/2/5 146/2/5
f 148/2/4 147/2/4 151/2/4 150/2/4
f 153/2/1 154/2/1 155/2/1 156/2/1
f 157/2/2 158/2/2 159/2/2 160/2/2
f 153/2/3 156/2/3 158/2/3 157/2/3
f 155/2/8 154/2/8 160/2/8 159/2/8
f 153/2/5 157/2/5 160/2/5 154/2/5
f 156/2/4 155/2/4 159/2/4 158/2/4
f 161/3/1 162/3/1 163/3/1 164/3/1
f 165/3/2 166/3/2 167/3/2 168/3/2
f 164/3/11 163/3/11 166/3/11 165/3/11
f 163/3/12 162/3/12 167/3/12 166/3/12
f 162/3/13 161/3/13 168/3/13 167/3/13
f 161/3/14 164/3/14 165/3/14 168/3/14
f 169/3/1 170/3/1 171/3/1 172/3/1
f 173/3/2 174/3/2 175/3/2 176/3/2
f 172/3/11 171/3/11 174/3/11 173/3/11
f 171/3/12 170/3/12 175/3/12 174/3/12
f 170/3/13 169/3/13 176/3/13 175/3/13
f 169/3/14 172/3/14 173/3/14 176/3/14
f 177/3/1 178/3/1 179/3/1 180/3/1
f 181/3/2 182/3/2 183/3/2 184/3/2
f 180/3/11 179/3/11 182/3/11 181/3/11
f 179/3/12 178/3/12 183/3/12 182/3/12
f 178/3/13 177/3/13 184/3/13 183/3/13
f 177/3/14 180/3/14 181/3/14 184/3/14
f 185/3/1 186/3/1 187/3/1 188/3/1
f 189/3/2 190/3/2 191/3/2 192/3/2
f 188/3/11 187/3/11 190/3/11 189/3/11
f 187/3/12 186/3/12 191/3/12 190/3/12
f 186/3/13 185/3/13 192/3/13 191/3/13
f 185/3/14 188/3/14 189/3/14 192/3/14
f 193/3/1 194/3/1 195/3/1 196/3/1
f 197/3/2 198/3/2 199/3/2 200/3/2
f 196/3/11 195/3/11 198/3/11 197/3/11
f 195/3/12 194/3/12 199/3/12 198/3/12
f 194/3/13 193/3/13 200/3/13 199/3/13
f 193/3/14 196/3/14 197/3/14 200/3/14
f 201/3/1 202/3/1 203/3/1 204/3/1
f 205/3/2 206/3/2 207/3/2 208/3/2
f 204/3/11 203/3/11 206/3/11 205/3/11
f 203/3/12 202/3/12 207/3/12 206/3/12
f 202/3/13 201/3/13 208/3/13 207/3/13
f 201/3/14 204/3/14 205/3/14 208/3/14
f 209/4/15 210/4/15 211/4/15 212/4/15
f 210/4/16 213/4/16 214/4/16 211/4/16
f 213/4/17 215/4/17 216/4/17 214/4/17
f 215/4/18 217/4/18 218/4/18 216/4/18
f 217/4/19 219/4/19 220/4/19 218/4/19
f 219/4/20 209/4/20 212/4/20 220/4/20
f 212/4/21 211/4/21 221/4/21 222/4/21
f 211/4/22 214/4/22 223/4/22 221/4/22
f 214/4/23 216/4/23 224/4/23 223/4/23
f 216/4/24 218/4/24 225/4/24 224/4/24
f 218/4/25 220/4/25 226/4/25 225/4/25
f 220/4/26 212/4/26 222/4/26 226/4/26
f 222/4/27 221/4/27 227/4/27
f 210/4/28 209/4/28 228/4/28
f 221/4/29 223/4/29 227/4/29
f 213/4/30 210/4/30 228/4/30
f 223/4/31 224/4/31 227/4/31
f 215/4/32 213/4/32 228/4/32
f 224/4/33 225/4/33 227/4/33
f 217/4/34 215/4/34 228/4/34
f 225/4/35 226/4/35 227/4/35
f 219/4/36 217/4/36 228/4/36
f 226/4/37 222/4/37 227/4/37
f 209/4/38 219/4/38 228/4/38
f 229/3/15 230/3/15 231/3/15 232/3/15
f 230/3/16 233/3/16 234/3/16 231/3/16
f 233/3/17 235/3/17 236/3/17 234/3/17
f 235/3/18 237/3/18 238/3/18 236/3/18
f 237/3/19 239/3/19 240/3/19 238/3/19
f 239/3/20 229/3/20 232/3/20 240/3/20
f 232/3/21 231/3/21 241/3/21 242/3/21
f 231/3/22 234/3/22 243/3/22 241/3/22
f 234/3/23 236/3/23 244/3/23 243/3/23
f 236/3/24 238/3/24 245/3/24 244/3/24
f 238/3/25 240/3/25 246/3/25 245/3/25
f 240/3/26 232/3/26 242/3/26 246/3/26
f 242/3/39 241/3/39 247/3/39
f 230/3/28 229/3/28 248/3/28
f 241/3/29 243/3/29 247/3/29
f 233/3/30 230/3/30 248/3/30
f 243/3/40 244/3/40 247/3/40
f 235/3/41 233/3/41 248/3/41
f 244/3/42 245/3/42 247/3/42
f 237/3/43 235/3/43 248/3/43
f 245/3/35 246/3/35 247/3/35
f 239/3/36 237/3/36 248/3/36
f 246/3/37 242/3/37 247/3/37
f 229/3/38 239/3/38 248/3/38
f 249/5/15 250/5/15 251/5/15 252/5/15
f 250/5/16 253/5/16 254/5/16 251/5/16
f 253/5/17 255/5/17 256/5/17 254/5/17
f 255/5/18 257/5/18 258/5/18 256/5/18
f 257/5/19 259/5/19 260/5/19 258/5/19
f 259/5/20 249/5/20 252/5/20 260/5/20
f 252/5/21 251/5/21 261/5/21 262/5/21
f 251/5/22 254/5/22 263/5/22 261/5/22
f 254/5/23 256/5/23 264/5/23 263/5/23
f 256/5/24 258/5/24 265/5/24 264/5/24
f 258/5/25 260/5/25 266/5/25 265/5/25
f 260/5/26 252/5/26 262/5/26 266/5/26
f 262/5/44 261/5/44 267/5/44
f 250/5/45 249/5/45 268/5/45
f 261/5/29 263/5/29 267/5/29
f 253/5/30 250/5/30 268/5/30
f 263/5/46 264/5/46 267/5/46
f 255/5/32 253/5/32 268/5/32
f 264/5/42 265/5/42 267/5/42
f 257/5/43 255/5/43 268/5/43
f 265/5/35 266/5/35 267/5/35
f 259/5/36 257/5/36 268/5/36
f 266/5/47 262/5/47 267/5/47
f 249/5/48 259/5/48 268/5/48
f 269/6/49 270/6/49 271/6/49 272/6/49 273/6/49 274/6/49
f 275/6/50 276/6/50 277/6/50 278/6/50 279/6/50 280/6/50
f 274/6/51 273/6/51 276/6/51 275/6/51
f 273/6/52 272/6/52 277/6/52 276/6/52
f 272/6/53 271/6/53 278/6/53 277/6/53
f 271/6/54 270/6/54 279/6/54 278/6/54
f 270/6/55 269/6/55 280/6/55 279/6/55
f 269/6/56 274/6/56 275/6/56 280/6/56
