# Blender 5.2.0 LTS
# www.blender.org
mtllib FN_Table_Tennis.mtl
o FN_Table_Tennis
v -0.762500 0.735000 1.375000
v -0.762500 0.735000 0.008000
v 0.762500 0.735000 0.008000
v 0.762500 0.735000 1.375000
v -0.762500 0.760000 1.375000
v 0.762500 0.760000 1.375000
v 0.762500 0.760000 0.008000
v -0.762500 0.760000 0.008000
v -0.762500 0.735000 -0.008000
v -0.762500 0.735000 -1.375000
v 0.762500 0.735000 -1.375000
v 0.762500 0.735000 -0.008000
v -0.762500 0.760000 -0.008000
v 0.762500 0.760000 -0.008000
v 0.762500 0.760000 -1.375000
v -0.762500 0.760000 -1.375000
v -0.482000 0.722000 0.045000
v -0.491000 0.737588 0.045000
v -0.509000 0.737588 0.045000
v -0.518000 0.722000 0.045000
v -0.509000 0.706412 0.045000
v -0.491000 0.706412 0.045000
v -0.491000 0.706412 -0.045000
v -0.509000 0.706412 -0.045000
v -0.518000 0.722000 -0.045000
v -0.509000 0.737588 -0.045000
v -0.491000 0.737588 -0.045000
v -0.482000 0.722000 -0.045000
v 0.518000 0.722000 0.045000
v 0.509000 0.737588 0.045000
v 0.491000 0.737588 0.045000
v 0.482000 0.722000 0.045000
v 0.491000 0.706412 0.045000
v 0.509000 0.706412 0.045000
v 0.509000 0.706412 -0.045000
v 0.491000 0.706412 -0.045000
v 0.482000 0.722000 -0.045000
v 0.491000 0.737588 -0.045000
v 0.509000 0.737588 -0.045000
v 0.518000 0.722000 -0.045000
v -0.734000 0.700000 1.335000
v -0.734000 0.700000 0.020000
v -0.700000 0.700000 0.020000
v -0.700000 0.700000 1.335000
v -0.734000 0.735000 1.335000
v -0.700000 0.735000 1.335000
v -0.700000 0.735000 0.020000
v -0.734000 0.735000 0.020000
v -0.734000 0.700000 -0.020000
v -0.734000 0.700000 -1.335000
v -0.700000 0.700000 -1.335000
v -0.700000 0.700000 -0.020000
v -0.734000 0.735000 -0.020000
v -0.700000 0.735000 -0.020000
v -0.700000 0.735000 -1.335000
v -0.734000 0.735000 -1.335000
v 0.700000 0.700000 1.335000
v 0.700000 0.700000 0.020000
v 0.734000 0.700000 0.020000
v 0.734000 0.700000 1.335000
v 0.700000 0.735000 1.335000
v 0.734000 0.735000 1.335000
v 0.734000 0.735000 0.020000
v 0.700000 0.735000 0.020000
v 0.700000 0.700000 -0.020000
v 0.700000 0.700000 -1.335000
v 0.734000 0.700000 -1.335000
v 0.734000 0.700000 -0.020000
v 0.700000 0.735000 -0.020000
v 0.734000 0.735000 -0.020000
v 0.734000 0.735000 -1.335000
v 0.700000 0.735000 -1.335000
v -0.734000 0.700000 1.301000
v 0.734000 0.700000 1.301000
v 0.734000 0.735000 1.301000
v -0.734000 0.735000 1.301000
v -0.734000 0.700000 -1.301000
v 0.734000 0.700000 -1.301000
v -0.734000 0.735000 -1.301000
v 0.734000 0.735000 -1.301000
v -0.730000 0.040000 1.130000
v -0.730000 0.040000 1.070000
v -0.670000 0.040000 1.070000
v -0.670000 0.040000 1.130000
v -0.730000 0.705000 1.130000
v -0.670000 0.705000 1.130000
v -0.670000 0.705000 1.070000
v -0.730000 0.705000 1.070000
v -0.726000 0.000000 1.075000
v -0.726000 0.000000 1.125000
v -0.726000 0.043301 1.150000
v -0.726000 0.086603 1.125000
v -0.726000 0.086603 1.075000
v -0.726000 0.043301 1.050000
v -0.678000 0.043301 1.050000
v -0.678000 0.086603 1.075000
v -0.678000 0.086603 1.125000
v -0.678000 0.043301 1.150000
v -0.678000 0.000000 1.125000
v -0.678000 0.000000 1.075000
v 0.670000 0.040000 1.130000
v 0.670000 0.040000 1.070000
v 0.730000 0.040000 1.070000
v 0.730000 0.040000 1.130000
v 0.670000 0.705000 1.130000
v 0.730000 0.705000 1.130000
v 0.730000 0.705000 1.070000
v 0.670000 0.705000 1.070000
v 0.678000 0.000000 1.075000
v 0.678000 0.000000 1.125000
v 0.678000 0.043301 1.150000
v 0.678000 0.086603 1.125000
v 0.678000 0.086603 1.075000
v 0.678000 0.043301 1.050000
v 0.726000 0.043301 1.050000
v 0.726000 0.086603 1.075000
v 0.726000 0.086603 1.125000
v 0.726000 0.043301 1.150000
v 0.726000 0.000000 1.125000
v 0.726000 0.000000 1.075000
v -0.700000 0.640000 1.125000
v -0.700000 0.640000 1.075000
v 0.700000 0.640000 1.075000
v 0.700000 0.640000 1.125000
v -0.700000 0.680000 1.125000
v 0.700000 0.680000 1.125000
v 0.700000 0.680000 1.075000
v -0.700000 0.680000 1.075000
v -0.730000 0.040000 -1.070000
v -0.730000 0.040000 -1.130000
v -0.670000 0.040000 -1.130000
v -0.670000 0.040000 -1.070000
v -0.730000 0.705000 -1.070000
v -0.670000 0.705000 -1.070000
v -0.670000 0.705000 -1.130000
v -0.730000 0.705000 -1.130000
v -0.726000 0.000000 -1.125000
v -0.726000 0.000000 -1.075000
v -0.726000 0.043301 -1.050000
v -0.726000 0.086603 -1.075000
v -0.726000 0.086603 -1.125000
v -0.726000 0.043301 -1.150000
v -0.678000 0.043301 -1.150000
v -0.678000 0.086603 -1.125000
v -0.678000 0.086603 -1.075000
v -0.678000 0.043301 -1.050000
v -0.678000 0.000000 -1.075000
v -0.678000 0.000000 -1.125000
v 0.670000 0.040000 -1.070000
v 0.670000 0.040000 -1.130000
v 0.730000 0.040000 -1.130000
v 0.730000 0.040000 -1.070000
v 0.670000 0.705000 -1.070000
v 0.730000 0.705000 -1.070000
v 0.730000 0.705000 -1.130000
v 0.670000 0.705000 -1.130000
v 0.678000 0.000000 -1.125000
v 0.678000 0.000000 -1.075000
v 0.678000 0.043301 -1.050000
v 0.678000 0.086603 -1.075000
v 0.678000 0.086603 -1.125000
v 0.678000 0.043301 -1.150000
v 0.726000 0.043301 -1.150000
v 0.726000 0.086603 -1.125000
v 0.726000 0.086603 -1.075000
v 0.726000 0.043301 -1.050000
v 0.726000 0.000000 -1.075000
v 0.726000 0.000000 -1.125000
v -0.700000 0.640000 -1.075000
v -0.700000 0.640000 -1.125000
v 0.700000 0.640000 -1.125000
v 0.700000 0.640000 -1.075000
v -0.700000 0.680000 -1.075000
v 0.700000 0.680000 -1.075000
v 0.700000 0.680000 -1.125000
v -0.700000 0.680000 -1.125000
v -0.812000 0.760000 0.020000
v -0.812000 0.760000 -0.020000
v -0.700000 0.760000 -0.020000
v -0.700000 0.760000 0.020000
v -0.812000 0.776000 0.020000
v -0.700000 0.776000 0.020000
v -0.700000 0.776000 -0.020000
v -0.812000 0.776000 -0.020000
v -0.800000 0.700000 0.020000
v -0.800000 0.700000 -0.020000
v -0.762500 0.700000 -0.020000
v -0.762500 0.700000 0.020000
v -0.800000 0.776000 0.020000
v -0.762500 0.776000 0.020000
v -0.762500 0.776000 -0.020000
v -0.800000 0.776000 -0.020000
v -0.800000 0.716000 0.020000
v -0.700000 0.716000 0.020000
v -0.700000 0.716000 -0.020000
v -0.800000 0.716000 -0.020000
v -0.760000 0.716000 0.010000
v -0.760000 0.716000 -0.010000
v -0.730000 0.716000 -0.010000
v -0.730000 0.716000 0.010000
v -0.760000 0.737000 0.010000
v -0.730000 0.737000 0.010000
v -0.730000 0.737000 -0.010000
v -0.760000 0.737000 -0.010000
v -0.812000 0.735000 0.014000
v -0.812000 0.735000 -0.014000
v -0.790000 0.735000 -0.014000
v -0.790000 0.735000 0.014000
v -0.812000 0.913000 0.014000
v -0.790000 0.913000 0.014000
v -0.790000 0.913000 -0.014000
v -0.812000 0.913000 -0.014000
v 0.700000 0.760000 0.020000
v 0.700000 0.760000 -0.020000
v 0.812000 0.760000 -0.020000
v 0.812000 0.760000 0.020000
v 0.700000 0.776000 0.020000
v 0.812000 0.776000 0.020000
v 0.812000 0.776000 -0.020000
v 0.700000 0.776000 -0.020000
v 0.762500 0.700000 0.020000
v 0.762500 0.700000 -0.020000
v 0.800000 0.700000 -0.020000
v 0.800000 0.700000 0.020000
v 0.762500 0.776000 0.020000
v 0.800000 0.776000 0.020000
v 0.800000 0.776000 -0.020000
v 0.762500 0.776000 -0.020000
v 0.700000 0.716000 0.020000
v 0.800000 0.716000 0.020000
v 0.800000 0.716000 -0.020000
v 0.700000 0.716000 -0.020000
v 0.730000 0.716000 0.010000
v 0.730000 0.716000 -0.010000
v 0.760000 0.716000 -0.010000
v 0.760000 0.716000 0.010000
v 0.730000 0.737000 0.010000
v 0.760000 0.737000 0.010000
v 0.760000 0.737000 -0.010000
v 0.730000 0.737000 -0.010000
v 0.790000 0.735000 0.014000
v 0.790000 0.735000 -0.014000
v 0.812000 0.735000 -0.014000
v 0.812000 0.735000 0.014000
v 0.790000 0.913000 0.014000
v 0.812000 0.913000 0.014000
v 0.812000 0.913000 -0.014000
v 0.790000 0.913000 -0.014000
v -0.800000 0.760000 0.008000
v -0.800000 0.760000 -0.008000
v 0.800000 0.760000 -0.008000
v 0.800000 0.760000 0.008000
v -0.800000 0.902000 0.008000
v 0.800000 0.902000 0.008000
v 0.800000 0.902000 -0.008000
v -0.800000 0.902000 -0.008000
v -0.806000 0.902000 0.012000
v -0.806000 0.902000 -0.012000
v 0.806000 0.902000 -0.012000
v 0.806000 0.902000 0.012000
v -0.806000 0.913000 0.012000
v 0.806000 0.913000 0.012000
v 0.806000 0.913000 -0.012000
v -0.806000 0.913000 -0.012000
v 0.355154 0.760000 -0.644846
v 0.300000 0.760000 -0.622000
v 0.244846 0.760000 -0.644846
v 0.222000 0.760000 -0.700000
v 0.244846 0.760000 -0.755154
v 0.300000 0.760000 -0.778000
v 0.355154 0.760000 -0.755154
v 0.378000 0.760000 -0.700000
v 0.378000 0.768000 -0.700000
v 0.355154 0.768000 -0.755154
v 0.300000 0.768000 -0.778000
v 0.244846 0.768000 -0.755154
v 0.222000 0.768000 -0.700000
v 0.244846 0.768000 -0.644846
v 0.300000 0.768000 -0.622000
v 0.355154 0.768000 -0.644846
v 0.284000 0.760000 -0.520000
v 0.284000 0.760000 -0.634000
v 0.316000 0.760000 -0.634000
v 0.316000 0.760000 -0.520000
v 0.284000 0.772000 -0.520000
v 0.316000 0.772000 -0.520000
v 0.316000 0.772000 -0.634000
v 0.284000 0.772000 -0.634000
v -0.180000 0.780000 -0.900000
v -0.190000 0.780000 -0.917320
v -0.200000 0.800000 -0.900000
v -0.200000 0.760000 -0.900000
v -0.210000 0.780000 -0.917320
v -0.220000 0.780000 -0.900000
v -0.210000 0.780000 -0.882679
v -0.190000 0.780000 -0.882679
vn -0.0000 -1.0000 -0.0000
vn -0.0000 1.0000 -0.0000
vn -0.0000 -0.0000 1.0000
vn -0.0000 -0.0000 -1.0000
vn -1.0000 -0.0000 -0.0000
vn 1.0000 -0.0000 -0.0000
vn -0.8660 -0.5000 -0.0000
vn 0.8660 -0.5000 -0.0000
vn 0.8660 0.5000 -0.0000
vn -0.8660 0.5000 -0.0000
vn -0.0000 0.5000 -0.8660
vn -0.0000 0.5000 0.8660
vn -0.0000 -0.5000 0.8660
vn -0.0000 -0.5000 -0.8660
vn 0.9239 -0.0000 -0.3827
vn 0.3827 -0.0000 -0.9239
vn -0.3827 -0.0000 -0.9239
vn -0.9239 -0.0000 -0.3827
vn -0.9239 -0.0000 0.3827
vn -0.3827 -0.0000 0.9239
vn 0.3827 -0.0000 0.9239
vn 0.9239 -0.0000 0.3827
vn 0.6547 0.6547 -0.3780
vn 0.6547 -0.6547 -0.3780
vn -0.0000 0.6547 -0.7559
vn -0.0000 -0.6547 -0.7559
vn -0.6547 0.6547 -0.3780
vn -0.6547 -0.6547 -0.3780
vn -0.6547 0.6547 0.3780
vn -0.6547 -0.6547 0.3780
vn -0.0000 0.6546 0.7559
vn -0.0000 -0.6547 0.7559
vn 0.6547 0.6547 0.3780
vn 0.6547 -0.6547 0.3780
vt 0.937500 0.812500
vt 0.687500 0.062500
vt 0.812500 0.312500
vt 0.562500 0.812500
vt 0.437500 0.812500
vt 0.312500 0.562500
vt 0.687500 0.812500
s 0
usemtl FN_Atlas
f 1/1/1 2/1/1 3/1/1 4/1/1
f 5/1/2 6/1/2 7/1/2 8/1/2
f 1/1/3 4/1/3 6/1/3 5/1/3
f 3/1/4 2/1/4 8/1/4 7/1/4
f 1/1/5 5/1/5 8/1/5 2/1/5
f 4/1/6 3/1/6 7/1/6 6/1/6
f 9/1/1 10/1/1 11/1/1 12/1/1
f 13/1/2 14/1/2 15/1/2 16/1/2
f 9/1/3 12/1/3 14/1/3 13/1/3
f 11/1/4 10/1/4 16/1/4 15/1/4
f 9/1/5 13/1/5 16/1/5 10/1/5
f 12/1/6 11/1/6 15/1/6 14/1/6
f 17/2/3 18/2/3 19/2/3 20/2/3 21/2/3 22/2/3
f 23/2/4 24/2/4 25/2/4 26/2/4 27/2/4 28/2/4
f 17/2/7 18/2/7 27/2/7 28/2/7
f 18/2/1 19/2/1 26/2/1 27/2/1
f 19/2/8 20/2/8 25/2/8 26/2/8
f 20/2/9 21/2/9 24/2/9 25/2/9
f 21/2/2 22/2/2 23/2/2 24/2/2
f 22/2/10 17/2/10 28/2/10 23/2/10
f 29/2/3 30/2/3 31/2/3 32/2/3 33/2/3 34/2/3
f 35/2/4 36/2/4 37/2/4 38/2/4 39/2/4 40/2/4
f 29/2/7 30/2/7 39/2/7 40/2/7
f 30/2/1 31/2/1 38/2/1 39/2/1
f 31/2/8 32/2/8 37/2/8 38/2/8
f 32/2/9 33/2/9 36/2/9 37/2/9
f 33/2/2 34/2/2 35/2/2 36/2/2
f 34/2/10 29/2/10 40/2/10 35/2/10
f 41/2/1 42/2/1 43/2/1 44/2/1
f 45/2/2 46/2/2 47/2/2 48/2/2
f 41/2/3 44/2/3 46/2/3 45/2/3
f 43/2/4 42/2/4 48/2/4 47/2/4
f 41/2/5 45/2/5 48/2/5 42/2/5
f 44/2/6 43/2/6 47/2/6 46/2/6
f 49/2/1 50/2/1 51/2/1 52/2/1
f 53/2/2 54/2/2 55/2/2 56/2/2
f 49/2/3 52/2/3 54/2/3 53/2/3
f 51/2/4 50/2/4 56/2/4 55/2/4
f 49/2/5 53/2/5 56/2/5 50/2/5
f 52/2/6 51/2/6 55/2/6 54/2/6
f 57/2/1 58/2/1 59/2/1 60/2/1
f 61/2/2 62/2/2 63/2/2 64/2/2
f 57/2/3 60/2/3 62/2/3 61/2/3
f 59/2/4 58/2/4 64/2/4 63/2/4
f 57/2/5 61/2/5 64/2/5 58/2/5
f 60/2/6 59/2/6 63/2/6 62/2/6
f 65/2/1 66/2/1 67/2/1 68/2/1
f 69/2/2 70/2/2 71/2/2 72/2/2
f 65/2/3 68/2/3 70/2/3 69/2/3
f 67/2/4 66/2/4 72/2/4 71/2/4
f 65/2/5 69/2/5 72/2/5 66/2/5
f 68/2/6 67/2/6 71/2/6 70/2/6
f 41/2/1 73/2/1 74/2/1 60/2/1
f 45/2/2 62/2/2 75/2/2 76/2/2
f 41/2/3 60/2/3 62/2/3 45/2/3
f 74/2/4 73/2/4 76/2/4 75/2/4
f 41/2/5 45/2/5 76/2/5 73/2/5
f 60/2/6 74/2/6 75/2/6 62/2/6
f 77/2/1 50/2/1 67/2/1 78/2/1
f 79/2/2 80/2/2 71/2/2 56/2/2
f 77/2/3 78/2/3 80/2/3 79/2/3
f 67/2/4 50/2/4 56/2/4 71/2/4
f 77/2/5 79/2/5 56/2/5 50/2/5
f 78/2/6 67/2/6 71/2/6 80/2/6
f 81/2/1 82/2/1 83/2/1 84/2/1
f 85/2/2 86/2/2 87/2/2 88/2/2
f 81/2/3 84/2/3 86/2/3 85/2/3
f 83/2/4 82/2/4 88/2/4 87/2/4
f 81/2/5 85/2/5 88/2/5 82/2/5
f 84/2/6 83/2/6 87/2/6 86/2/6
f 89/3/5 90/3/5 91/3/5 92/3/5 93/3/5 94/3/5
f 95/3/6 96/3/6 97/3/6 98/3/6 99/3/6 100/3/6
f 94/3/11 93/3/11 96/3/11 95/3/11
f 93/3/2 92/3/2 97/3/2 96/3/2
f 92/3/12 91/3/12 98/3/12 97/3/12
f 91/3/13 90/3/13 99/3/13 98/3/13
f 90/3/1 89/3/1 100/3/1 99/3/1
f 89/3/14 94/3/14 95/3/14 100/3/14
f 101/2/1 102/2/1 103/2/1 104/2/1
f 105/2/2 106/2/2 107/2/2 108/2/2
f 101/2/3 104/2/3 106/2/3 105/2/3
f 103/2/4 102/2/4 108/2/4 107/2/4
f 101/2/5 105/2/5 108/2/5 102/2/5
f 104/2/6 103/2/6 107/2/6 106/2/6
f 109/3/5 110/3/5 111/3/5 112/3/5 113/3/5 114/3/5
f 115/3/6 116/3/6 117/3/6 118/3/6 119/3/6 120/3/6
f 114/3/11 113/3/11 116/3/11 115/3/11
f 113/3/2 112/3/2 117/3/2 116/3/2
f 112/3/12 111/3/12 118/3/12 117/3/12
f 111/3/13 110/3/13 119/3/13 118/3/13
f 110/3/1 109/3/1 120/3/1 119/3/1
f 109/3/14 114/3/14 115/3/14 120/3/14
f 121/2/1 122/2/1 123/2/1 124/2/1
f 125/2/2 126/2/2 127/2/2 128/2/2
f 121/2/3 124/2/3 126/2/3 125/2/3
f 123/2/4 122/2/4 128/2/4 127/2/4
f 121/2/5 125/2/5 128/2/5 122/2/5
f 124/2/6 123/2/6 127/2/6 126/2/6
f 129/2/1 130/2/1 131/2/1 132/2/1
f 133/2/2 134/2/2 135/2/2 136/2/2
f 129/2/3 132/2/3 134/2/3 133/2/3
f 131/2/4 130/2/4 136/2/4 135/2/4
f 129/2/5 133/2/5 136/2/5 130/2/5
f 132/2/6 131/2/6 135/2/6 134/2/6
f 137/3/5 138/3/5 139/3/5 140/3/5 141/3/5 142/3/5
f 143/3/6 144/3/6 145/3/6 146/3/6 147/3/6 148/3/6
f 142/3/11 141/3/11 144/3/11 143/3/11
f 141/3/2 140/3/2 145/3/2 144/3/2
f 140/3/12 139/3/12 146/3/12 145/3/12
f 139/3/13 138/3/13 147/3/13 146/3/13
f 138/3/1 137/3/1 148/3/1 147/3/1
f 137/3/14 142/3/14 143/3/14 148/3/14
f 149/2/1 150/2/1 151/2/1 152/2/1
f 153/2/2 154/2/2 155/2/2 156/2/2
f 149/2/3 152/2/3 154/2/3 153/2/3
f 151/2/4 150/2/4 156/2/4 155/2/4
f 149/2/5 153/2/5 156/2/5 150/2/5
f 152/2/6 151/2/6 155/2/6 154/2/6
f 157/3/5 158/3/5 159/3/5 160/3/5 161/3/5 162/3/5
f 163/3/6 164/3/6 165/3/6 166/3/6 167/3/6 168/3/6
f 162/3/11 161/3/11 164/3/11 163/3/11
f 161/3/2 160/3/2 165/3/2 164/3/2
f 160/3/12 159/3/12 166/3/12 165/3/12
f 159/3/13 158/3/13 167/3/13 166/3/13
f 158/3/1 157/3/1 168/3/1 167/3/1
f 157/3/14 162/3/14 163/3/14 168/3/14
f 169/2/1 170/2/1 171/2/1 172/2/1
f 173/2/2 174/2/2 175/2/2 176/2/2
f 169/2/3 172/2/3 174/2/3 173/2/3
f 171/2/4 170/2/4 176/2/4 175/2/4
f 169/2/5 173/2/5 176/2/5 170/2/5
f 172/2/6 171/2/6 175/2/6 174/2/6
f 177/2/1 178/2/1 179/2/1 180/2/1
f 181/2/2 182/2/2 183/2/2 184/2/2
f 177/2/3 180/2/3 182/2/3 181/2/3
f 179/2/4 178/2/4 184/2/4 183/2/4
f 177/2/5 181/2/5 184/2/5 178/2/5
f 180/2/6 179/2/6 183/2/6 182/2/6
f 185/2/1 186/2/1 187/2/1 188/2/1
f 189/2/2 190/2/2 191/2/2 192/2/2
f 185/2/3 188/2/3 190/2/3 189/2/3
f 187/2/4 186/2/4 192/2/4 191/2/4
f 185/2/5 189/2/5 192/2/5 186/2/5
f 188/2/6 187/2/6 191/2/6 190/2/6
f 185/2/1 186/2/1 52/2/1 43/2/1
f 193/2/2 194/2/2 195/2/2 196/2/2
f 185/2/3 43/2/3 194/2/3 193/2/3
f 52/2/4 186/2/4 196/2/4 195/2/4
f 185/2/5 193/2/5 196/2/5 186/2/5
f 43/2/6 52/2/6 195/2/6 194/2/6
f 197/2/1 198/2/1 199/2/1 200/2/1
f 201/2/2 202/2/2 203/2/2 204/2/2
f 197/2/3 200/2/3 202/2/3 201/2/3
f 199/2/4 198/2/4 204/2/4 203/2/4
f 197/2/5 201/2/5 204/2/5 198/2/5
f 200/2/6 199/2/6 203/2/6 202/2/6
f 205/3/1 206/3/1 207/3/1 208/3/1
f 209/3/2 210/3/2 211/3/2 212/3/2
f 205/3/3 208/3/3 210/3/3 209/3/3
f 207/3/4 206/3/4 212/3/4 211/3/4
f 205/3/5 209/3/5 212/3/5 206/3/5
f 208/3/6 207/3/6 211/3/6 210/3/6
f 213/2/1 214/2/1 215/2/1 216/2/1
f 217/2/2 218/2/2 219/2/2 220/2/2
f 213/2/3 216/2/3 218/2/3 217/2/3
f 215/2/4 214/2/4 220/2/4 219/2/4
f 213/2/5 217/2/5 220/2/5 214/2/5
f 216/2/6 215/2/6 219/2/6 218/2/6
f 221/2/1 222/2/1 223/2/1 224/2/1
f 225/2/2 226/2/2 227/2/2 228/2/2
f 221/2/3 224/2/3 226/2/3 225/2/3
f 223/2/4 222/2/4 228/2/4 227/2/4
f 221/2/5 225/2/5 228/2/5 222/2/5
f 224/2/6 223/2/6 227/2/6 226/2/6
f 58/2/1 65/2/1 223/2/1 224/2/1
f 229/2/2 230/2/2 231/2/2 232/2/2
f 58/2/3 224/2/3 230/2/3 229/2/3
f 223/2/4 65/2/4 232/2/4 231/2/4
f 58/2/5 229/2/5 232/2/5 65/2/5
f 224/2/6 223/2/6 231/2/6 230/2/6
f 233/2/1 234/2/1 235/2/1 236/2/1
f 237/2/2 238/2/2 239/2/2 240/2/2
f 233/2/3 236/2/3 238/2/3 237/2/3
f 235/2/4 234/2/4 240/2/4 239/2/4
f 233/2/5 237/2/5 240/2/5 234/2/5
f 236/2/6 235/2/6 239/2/6 238/2/6
f 241/3/1 242/3/1 243/3/1 244/3/1
f 245/3/2 246/3/2 247/3/2 248/3/2
f 241/3/3 244/3/3 246/3/3 245/3/3
f 243/3/4 242/3/4 248/3/4 247/3/4
f 241/3/5 245/3/5 248/3/5 242/3/5
f 244/3/6 243/3/6 247/3/6 246/3/6
f 249/4/1 250/4/1 251/4/1 252/4/1
f 253/4/2 254/4/2 255/4/2 256/4/2
f 249/4/3 252/4/3 254/4/3 253/4/3
f 251/4/4 250/4/4 256/4/4 255/4/4
f 249/4/5 253/4/5 256/4/5 250/4/5
f 252/4/6 251/4/6 255/4/6 254/4/6
f 257/5/1 258/5/1 259/5/1 260/5/1
f 261/5/2 262/5/2 263/5/2 264/5/2
f 257/5/3 260/5/3 262/5/3 261/5/3
f 259/5/4 258/5/4 264/5/4 263/5/4
f 257/5/5 261/5/5 264/5/5 258/5/5
f 260/5/6 259/5/6 263/5/6 262/5/6
f 265/6/1 266/6/1 267/6/1 268/6/1 269/6/1 270/6/1 271/6/1 272/6/1
f 273/6/2 274/6/2 275/6/2 276/6/2 277/6/2 278/6/2 279/6/2 280/6/2
f 272/6/15 271/6/15 274/6/15 273/6/15
f 271/6/16 270/6/16 275/6/16 274/6/16
f 270/6/17 269/6/17 276/6/17 275/6/17
f 269/6/18 268/6/18 277/6/18 276/6/18
f 268/6/19 267/6/19 278/6/19 277/6/19
f 267/6/20 266/6/20 279/6/20 278/6/20
f 266/6/21 265/6/21 280/6/21 279/6/21
f 265/6/22 272/6/22 273/6/22 280/6/22
f 281/7/1 282/7/1 283/7/1 284/7/1
f 285/7/2 286/7/2 287/7/2 288/7/2
f 281/7/3 284/7/3 286/7/3 285/7/3
f 283/7/4 282/7/4 288/7/4 287/7/4
f 281/7/5 285/7/5 288/7/5 282/7/5
f 284/7/6 283/7/6 287/7/6 286/7/6
f 289/5/23 290/5/23 291/5/23
f 290/5/24 289/5/24 292/5/24
f 290/5/25 293/5/25 291/5/25
f 293/5/26 290/5/26 292/5/26
f 293/5/27 294/5/27 291/5/27
f 294/5/28 293/5/28 292/5/28
f 294/5/29 295/5/29 291/5/29
f 295/5/30 294/5/30 292/5/30
f 295/5/31 296/5/31 291/5/31
f 296/5/32 295/5/32 292/5/32
f 296/5/33 289/5/33 291/5/33
f 289/5/34 296/5/34 292/5/34
