# Blender 5.2.0 LTS
# www.blender.org
mtllib FN_Table_Bar_Communal.mtl
o FN_Table_Bar_Communal
v -0.665000 0.000000 0.315000
v -0.615000 0.000000 0.315000
v -0.615000 0.000000 0.365000
v -0.665000 0.000000 0.365000
v -0.665000 0.980000 0.175000
v -0.615000 0.980000 0.175000
v -0.615000 0.980000 0.125000
v -0.665000 0.980000 0.125000
v -0.665000 0.000000 -0.365000
v -0.615000 0.000000 -0.365000
v -0.615000 0.000000 -0.315000
v -0.665000 0.000000 -0.315000
v -0.665000 0.980000 -0.125000
v -0.615000 0.980000 -0.125000
v -0.615000 0.980000 -0.175000
v -0.665000 0.980000 -0.175000
v 0.615000 0.000000 0.315000
v 0.665000 0.000000 0.315000
v 0.665000 0.000000 0.365000
v 0.615000 0.000000 0.365000
v 0.615000 0.980000 0.175000
v 0.665000 0.980000 0.175000
v 0.665000 0.980000 0.125000
v 0.615000 0.980000 0.125000
v 0.615000 0.000000 -0.365000
v 0.665000 0.000000 -0.365000
v 0.665000 0.000000 -0.315000
v 0.615000 0.000000 -0.315000
v 0.615000 0.980000 -0.125000
v 0.665000 0.980000 -0.125000
v 0.665000 0.980000 -0.175000
v 0.615000 0.980000 -0.175000
v -0.670000 0.892000 0.250000
v -0.670000 0.892000 -0.250000
v -0.610000 0.892000 -0.250000
v -0.610000 0.892000 0.250000
v -0.670000 1.010000 0.250000
v -0.610000 1.010000 0.250000
v -0.610000 1.010000 -0.250000
v -0.670000 1.010000 -0.250000
v 0.610000 0.892000 0.250000
v 0.610000 0.892000 -0.250000
v 0.670000 0.892000 -0.250000
v 0.670000 0.892000 0.250000
v 0.610000 1.010000 0.250000
v 0.670000 1.010000 0.250000
v 0.670000 1.010000 -0.250000
v 0.610000 1.010000 -0.250000
v -0.665000 0.870000 0.035000
v -0.665000 0.870000 -0.035000
v 0.665000 0.870000 -0.035000
v 0.665000 0.870000 0.035000
v -0.665000 0.950000 0.035000
v 0.665000 0.950000 0.035000
v 0.665000 0.950000 -0.035000
v -0.665000 0.950000 -0.035000
v -0.660000 0.180000 0.321224
v -0.660000 0.180000 0.281224
v 0.660000 0.180000 0.281224
v 0.660000 0.180000 0.321224
v -0.660000 0.220000 0.321224
v 0.660000 0.220000 0.321224
v 0.660000 0.220000 0.281224
v -0.660000 0.220000 0.281224
v -0.660000 0.180000 -0.281224
v -0.660000 0.180000 -0.321224
v 0.660000 0.180000 -0.321224
v 0.660000 0.180000 -0.281224
v -0.660000 0.220000 -0.281224
v 0.660000 0.220000 -0.281224
v 0.660000 0.220000 -0.321224
v -0.660000 0.220000 -0.321224
v -0.900000 1.000000 0.400000
v -0.900000 1.000000 -0.400000
v 0.900000 1.000000 -0.400000
v 0.900000 1.000000 0.400000
v -0.900000 1.042000 0.400000
v 0.900000 1.042000 0.400000
v 0.900000 1.042000 -0.400000
v -0.900000 1.042000 -0.400000
v -0.892000 1.050000 0.392000
v 0.892000 1.050000 0.392000
v 0.892000 1.050000 -0.392000
v -0.892000 1.050000 -0.392000
vn -0.0000 -1.0000 -0.0000
vn -0.0000 1.0000 -0.0000
vn -0.0000 0.1903 0.9817
vn 1.0000 -0.0000 -0.0000
vn -0.0000 -0.1903 -0.9817
vn -1.0000 -0.0000 -0.0000
vn -0.0000 -0.1903 0.9817
vn -0.0000 0.1903 -0.9817
vn -0.0000 -0.0000 1.0000
vn -0.0000 -0.0000 -1.0000
vn -0.0000 0.7071 0.7071
vn 0.7071 0.7071 -0.0000
vn -0.0000 0.7071 -0.7071
vn -0.7071 0.7071 -0.0000
vt 0.937500 0.812500
vt 0.437500 0.937500
s 0
usemtl FN_Atlas
f 1/1/1 2/1/1 3/1/1 4/1/1
f 5/1/2 6/1/2 7/1/2 8/1/2
f 4/1/3 3/1/3 6/1/3 5/1/3
f 3/1/4 2/1/4 7/1/4 6/1/4
f 2/1/5 1/1/5 8/1/5 7/1/5
f 1/1/6 4/1/6 5/1/6 8/1/6
f 9/1/1 10/1/1 11/1/1 12/1/1
f 13/1/2 14/1/2 15/1/2 16/1/2
f 12/1/7 11/1/7 14/1/7 13/1/7
f 11/1/4 10/1/4 15/1/4 14/1/4
f 10/1/8 9/1/8 16/1/8 15/1/8
f 9/1/6 12/1/6 13/1/6 16/1/6
f 17/1/1 18/1/1 19/1/1 20/1/1
f 21/1/2 22/1/2 23/1/2 24/1/2
f 20/1/3 19/1/3 22/1/3 21/1/3
f 19/1/4 18/1/4 23/1/4 22/1/4
f 18/1/5 17/1/5 24/1/5 23/1/5
f 17/1/6 20/1/6 21/1/6 24/1/6
f 25/1/1 26/1/1 27/1/1 28/1/1
f 29/1/2 30/1/2 31/1/2 32/1/2
f 28/1/7 27/1/7 30/1/7 29/1/7
f 27/1/4 26/1/4 31/1/4 30/1/4
f 26/1/8 25/1/8 32/1/8 31/1/8
f 25/1/6 28/1/6 29/1/6 32/1/6
f 33/1/1 34/1/1 35/1/1 36/1/1
f 37/1/2 38/1/2 39/1/2 40/1/2
f 33/1/9 36/1/9 38/1/9 37/1/9
f 35/1/10 34/1/10 40/1/10 39/1/10
f 33/1/6 37/1/6 40/1/6 34/1/6
f 36/1/4 35/1/4 39/1/4 38/1/4
f 41/1/1 42/1/1 43/1/1 44/1/1
f 45/1/2 46/1/2 47/1/2 48/1/2
f 41/1/9 44/1/9 46/1/9 45/1/9
f 43/1/10 42/1/10 48/1/10 47/1/10
f 41/1/6 45/1/6 48/1/6 42/1/6
f 44/1/4 43/1/4 47/1/4 46/1/4
f 49/1/1 50/1/1 51/1/1 52/1/1
f 53/1/2 54/1/2 55/1/2 56/1/2
f 49/1/9 52/1/9 54/1/9 53/1/9
f 51/1/10 50/1/10 56/1/10 55/1/10
f 49/1/6 53/1/6 56/1/6 50/1/6
f 52/1/4 51/1/4 55/1/4 54/1/4
f 57/1/1 58/1/1 59/1/1 60/1/1
f 61/1/2 62/1/2 63/1/2 64/1/2
f 57/1/9 60/1/9 62/1/9 61/1/9
f 59/1/10 58/1/10 64/1/10 63/1/10
f 57/1/6 61/1/6 64/1/6 58/1/6
f 60/1/4 59/1/4 63/1/4 62/1/4
f 65/1/1 66/1/1 67/1/1 68/1/1
f 69/1/2 70/1/2 71/1/2 72/1/2
f 65/1/9 68/1/9 70/1/9 69/1/9
f 67/1/10 66/1/10 72/1/10 71/1/10
f 65/1/6 69/1/6 72/1/6 66/1/6
f 68/1/4 67/1/4 71/1/4 70/1/4
f 73/2/1 74/2/1 75/2/1 76/2/1
f 77/2/2 78/2/2 79/2/2 80/2/2
f 73/2/9 76/2/9 78/2/9 77/2/9
f 75/2/10 74/2/10 80/2/10 79/2/10
f 73/2/6 77/2/6 80/2/6 74/2/6
f 76/2/4 75/2/4 79/2/4 78/2/4
f 81/2/2 82/2/2 83/2/2 84/2/2
f 77/2/11 78/2/11 82/2/11 81/2/11
f 78/2/12 79/2/12 83/2/12 82/2/12
f 79/2/13 80/2/13 84/2/13 83/2/13
f 80/2/14 77/2/14 81/2/14 84/2/14
