# Blender 5.2.0 LTS
# www.blender.org
mtllib FN_Trunk_Storage.mtl
o FN_Trunk_Storage
v -0.450000 0.026000 0.232500
v -0.450000 0.026000 -0.247500
v 0.450000 0.026000 -0.247500
v 0.450000 0.026000 0.232500
v -0.450000 0.330000 0.232500
v 0.450000 0.330000 0.232500
v 0.450000 0.330000 -0.247500
v -0.450000 0.330000 -0.247500
v -0.450000 0.000000 0.232500
v -0.450000 0.000000 0.162500
v -0.380000 0.000000 0.162500
v -0.380000 0.000000 0.232500
v -0.450000 0.030000 0.232500
v -0.380000 0.030000 0.232500
v -0.380000 0.030000 0.162500
v -0.450000 0.030000 0.162500
v -0.450000 0.000000 -0.177500
v -0.450000 0.000000 -0.247500
v -0.380000 0.000000 -0.247500
v -0.380000 0.000000 -0.177500
v -0.450000 0.030000 -0.177500
v -0.380000 0.030000 -0.177500
v -0.380000 0.030000 -0.247500
v -0.450000 0.030000 -0.247500
v 0.380000 0.000000 0.232500
v 0.380000 0.000000 0.162500
v 0.450000 0.000000 0.162500
v 0.450000 0.000000 0.232500
v 0.380000 0.030000 0.232500
v 0.450000 0.030000 0.232500
v 0.450000 0.030000 0.162500
v 0.380000 0.030000 0.162500
v 0.380000 0.000000 -0.177500
v 0.380000 0.000000 -0.247500
v 0.450000 0.000000 -0.247500
v 0.450000 0.000000 -0.177500
v 0.380000 0.030000 -0.177500
v 0.450000 0.030000 -0.177500
v 0.450000 0.030000 -0.247500
v 0.380000 0.030000 -0.247500
v -0.450000 0.300000 -0.247500
v -0.450000 0.455673 -0.187500
v -0.450000 0.494545 -0.127500
v -0.450000 0.513967 -0.067500
v -0.450000 0.520000 -0.007500
v -0.450000 0.513967 0.052500
v -0.450000 0.494545 0.112500
v -0.450000 0.455673 0.172500
v -0.450000 0.300000 0.232500
v 0.450000 0.300000 0.232500
v 0.450000 0.455673 0.172500
v 0.450000 0.494545 0.112500
v 0.450000 0.513967 0.052500
v 0.450000 0.520000 -0.007500
v 0.450000 0.513967 -0.067500
v 0.450000 0.494545 -0.127500
v 0.450000 0.455673 -0.187500
v 0.450000 0.300000 -0.247500
v -0.450000 0.296000 0.232500
v -0.450000 0.296000 0.218500
v 0.450000 0.296000 0.218500
v 0.450000 0.296000 0.232500
v -0.450000 0.350000 0.232500
v 0.450000 0.350000 0.232500
v 0.450000 0.350000 0.218500
v -0.450000 0.350000 0.218500
v -0.450000 0.296000 -0.233500
v -0.450000 0.296000 -0.247500
v 0.450000 0.296000 -0.247500
v 0.450000 0.296000 -0.233500
v -0.450000 0.350000 -0.233500
v 0.450000 0.350000 -0.233500
v 0.450000 0.350000 -0.247500
v -0.450000 0.350000 -0.247500
v -0.286000 0.300000 -0.252500
v -0.286000 0.330000 -0.252500
v -0.286000 0.458980 -0.191250
v -0.286000 0.498875 -0.130000
v -0.286000 0.518808 -0.068750
v -0.286000 0.525000 -0.007500
v -0.286000 0.518808 0.053750
v -0.286000 0.498875 0.115000
v -0.286000 0.458980 0.176250
v -0.286000 0.330000 0.237500
v -0.286000 0.300000 0.237500
v -0.214000 0.300000 0.237500
v -0.214000 0.330000 0.237500
v -0.214000 0.458980 0.176250
v -0.214000 0.498875 0.115000
v -0.214000 0.518808 0.053750
v -0.214000 0.525000 -0.007500
v -0.214000 0.518808 -0.068750
v -0.214000 0.498875 -0.130000
v -0.214000 0.458980 -0.191250
v -0.214000 0.330000 -0.252500
v -0.214000 0.300000 -0.252500
v -0.286000 0.030000 0.237500
v -0.286000 0.030000 0.226500
v -0.214000 0.030000 0.226500
v -0.214000 0.030000 0.237500
v -0.214000 0.330000 0.226500
v -0.286000 0.330000 0.226500
v -0.286000 0.030000 -0.241500
v -0.286000 0.030000 -0.252500
v -0.214000 0.030000 -0.252500
v -0.214000 0.030000 -0.241500
v -0.286000 0.330000 -0.241500
v -0.214000 0.330000 -0.241500
v 0.214000 0.300000 -0.252500
v 0.214000 0.330000 -0.252500
v 0.214000 0.458980 -0.191250
v 0.214000 0.498875 -0.130000
v 0.214000 0.518808 -0.068750
v 0.214000 0.525000 -0.007500
v 0.214000 0.518808 0.053750
v 0.214000 0.498875 0.115000
v 0.214000 0.458980 0.176250
v 0.214000 0.330000 0.237500
v 0.214000 0.300000 0.237500
v 0.286000 0.300000 0.237500
v 0.286000 0.330000 0.237500
v 0.286000 0.458980 0.176250
v 0.286000 0.498875 0.115000
v 0.286000 0.518808 0.053750
v 0.286000 0.525000 -0.007500
v 0.286000 0.518808 -0.068750
v 0.286000 0.498875 -0.130000
v 0.286000 0.458980 -0.191250
v 0.286000 0.330000 -0.252500
v 0.286000 0.300000 -0.252500
v 0.214000 0.030000 0.237500
v 0.214000 0.030000 0.226500
v 0.286000 0.030000 0.226500
v 0.286000 0.030000 0.237500
v 0.286000 0.330000 0.226500
v 0.214000 0.330000 0.226500
v 0.214000 0.030000 -0.241500
v 0.214000 0.030000 -0.252500
v 0.286000 0.030000 -0.252500
v 0.286000 0.030000 -0.241500
v 0.214000 0.330000 -0.241500
v 0.286000 0.330000 -0.241500
v -0.062000 0.240000 0.246500
v -0.062000 0.240000 0.228500
v 0.062000 0.240000 0.228500
v 0.062000 0.240000 0.246500
v -0.062000 0.378000 0.246500
v 0.062000 0.378000 0.246500
v 0.062000 0.378000 0.228500
v -0.062000 0.378000 0.228500
v -0.030000 0.274000 0.252500
v -0.030000 0.274000 0.242500
v 0.030000 0.274000 0.242500
v 0.030000 0.274000 0.252500
v -0.030000 0.316000 0.252500
v 0.030000 0.316000 0.252500
v 0.030000 0.316000 0.242500
v -0.030000 0.316000 0.242500
vn -0.0000 -1.0000 -0.0000
vn -0.0000 1.0000 -0.0000
vn -0.0000 -0.0000 1.0000
vn -0.0000 -0.0000 -1.0000
vn -1.0000 -0.0000 -0.0000
vn 1.0000 -0.0000 -0.0000
vn -0.0000 -0.4308 -0.9024
vn -0.0000 -0.8393 -0.5437
vn -0.0000 -0.9514 -0.3080
vn -0.0000 -0.9950 -0.1001
vn -0.0000 -0.9950 0.1001
vn -0.0000 -0.9514 0.3080
vn -0.0000 -0.8393 0.5437
vn -0.0000 -0.4308 0.9024
vn -0.0000 -0.4290 -0.9033
vn -0.0000 -0.8379 -0.5458
vn -0.0000 -0.9509 -0.3095
vn -0.0000 -0.9949 -0.1006
vn -0.0000 -0.9949 0.1006
vn -0.0000 -0.9509 0.3095
vn -0.0000 -0.8379 0.5458
vn -0.0000 -0.4290 0.9033
vt 0.812500 0.937500
vt 0.562500 0.937500
vt 0.437500 0.312500
vt 0.312500 0.437500
s 0
usemtl FN_Atlas
f 1/1/1 2/1/1 3/1/1 4/1/1
f 5/1/2 6/1/2 7/1/2 8/1/2
f 1/2/3 4/2/3 6/2/3 5/2/3
f 3/2/4 2/2/4 8/2/4 7/2/4
f 1/2/5 5/2/5 8/2/5 2/2/5
f 4/2/6 3/2/6 7/2/6 6/2/6
f 9/3/1 10/3/1 11/3/1 12/3/1
f 13/3/2 14/3/2 15/3/2 16/3/2
f 9/3/3 12/3/3 14/3/3 13/3/3
f 11/3/4 10/3/4 16/3/4 15/3/4
f 9/3/5 13/3/5 16/3/5 10/3/5
f 12/3/6 11/3/6 15/3/6 14/3/6
f 17/3/1 18/3/1 19/3/1 20/3/1
f 21/3/2 22/3/2 23/3/2 24/3/2
f 17/3/3 20/3/3 22/3/3 21/3/3
f 19/3/4 18/3/4 24/3/4 23/3/4
f 17/3/5 21/3/5 24/3/5 18/3/5
f 20/3/6 19/3/6 23/3/6 22/3/6
f 25/3/1 26/3/1 27/3/1 28/3/1
f 29/3/2 30/3/2 31/3/2 32/3/2
f 25/3/3 28/3/3 30/3/3 29/3/3
f 27/3/4 26/3/4 32/3/4 31/3/4
f 25/3/5 29/3/5 32/3/5 26/3/5
f 28/3/6 27/3/6 31/3/6 30/3/6
f 33/3/1 34/3/1 35/3/1 36/3/1
f 37/3/2 38/3/2 39/3/2 40/3/2
f 33/3/3 36/3/3 38/3/3 37/3/3
f 35/3/4 34/3/4 40/3/4 39/3/4
f 33/3/5 37/3/5 40/3/5 34/3/5
f 36/3/6 35/3/6 39/3/6 38/3/6
f 41/2/6 8/2/6 42/2/6 43/2/6 44/2/6 45/2/6 46/2/6 47/2/6 48/2/6 5/2/6 49/2/6
f 50/2/5 6/2/5 51/2/5 52/2/5 53/2/5 54/2/5 55/2/5 56/2/5 57/2/5 7/2/5 58/2/5
f 49/2/4 5/2/4 6/2/4 50/2/4
f 5/2/7 48/2/7 51/2/7 6/2/7
f 48/2/8 47/2/8 52/2/8 51/2/8
f 47/2/9 46/2/9 53/2/9 52/2/9
f 46/2/10 45/2/10 54/2/10 53/2/10
f 45/2/11 44/2/11 55/2/11 54/2/11
f 44/2/12 43/2/12 56/2/12 55/2/12
f 43/2/13 42/2/13 57/2/13 56/2/13
f 42/2/14 8/2/14 7/2/14 57/2/14
f 8/2/3 41/2/3 58/2/3 7/2/3
f 41/2/2 49/2/2 50/2/2 58/2/2
f 59/3/1 60/3/1 61/3/1 62/3/1
f 63/3/2 64/3/2 65/3/2 66/3/2
f 59/3/3 62/3/3 64/3/3 63/3/3
f 61/3/4 60/3/4 66/3/4 65/3/4
f 59/3/5 63/3/5 66/3/5 60/3/5
f 62/3/6 61/3/6 65/3/6 64/3/6
f 67/3/1 68/3/1 69/3/1 70/3/1
f 71/3/2 72/3/2 73/3/2 74/3/2
f 67/3/3 70/3/3 72/3/3 71/3/3
f 69/3/4 68/3/4 74/3/4 73/3/4
f 67/3/5 71/3/5 74/3/5 68/3/5
f 70/3/6 69/3/6 73/3/6 72/3/6
f 75/4/6 76/4/6 77/4/6 78/4/6 79/4/6 80/4/6 81/4/6 82/4/6 83/4/6 84/4/6 85/4/6
f 86/4/5 87/4/5 88/4/5 89/4/5 90/4/5 91/4/5 92/4/5 93/4/5 94/4/5 95/4/5 96/4/5
f 85/4/4 84/4/4 87/4/4 86/4/4
f 84/4/15 83/4/15 88/4/15 87/4/15
f 83/4/16 82/4/16 89/4/16 88/4/16
f 82/4/17 81/4/17 90/4/17 89/4/17
f 81/4/18 80/4/18 91/4/18 90/4/18
f 80/4/19 79/4/19 92/4/19 91/4/19
f 79/4/20 78/4/20 93/4/20 92/4/20
f 78/4/21 77/4/21 94/4/21 93/4/21
f 77/4/22 76/4/22 95/4/22 94/4/22
f 76/4/3 75/4/3 96/4/3 95/4/3
f 75/4/2 85/4/2 86/4/2 96/4/2
f 97/4/1 98/4/1 99/4/1 100/4/1
f 84/4/2 87/4/2 101/4/2 102/4/2
f 97/4/3 100/4/3 87/4/3 84/4/3
f 99/4/4 98/4/4 102/4/4 101/4/4
f 97/4/5 84/4/5 102/4/5 98/4/5
f 100/4/6 99/4/6 101/4/6 87/4/6
f 103/4/1 104/4/1 105/4/1 106/4/1
f 107/4/2 108/4/2 95/4/2 76/4/2
f 103/4/3 106/4/3 108/4/3 107/4/3
f 105/4/4 104/4/4 76/4/4 95/4/4
f 103/4/5 107/4/5 76/4/5 104/4/5
f 106/4/6 105/4/6 95/4/6 108/4/6
f 109/4/6 110/4/6 111/4/6 112/4/6 113/4/6 114/4/6 115/4/6 116/4/6 117/4/6 118/4/6 119/4/6
f 120/4/5 121/4/5 122/4/5 123/4/5 124/4/5 125/4/5 126/4/5 127/4/5 128/4/5 129/4/5 130/4/5
f 119/4/4 118/4/4 121/4/4 120/4/4
f 118/4/15 117/4/15 122/4/15 121/4/15
f 117/4/16 116/4/16 123/4/16 122/4/16
f 116/4/17 115/4/17 124/4/17 123/4/17
f 115/4/18 114/4/18 125/4/18 124/4/18
f 114/4/19 113/4/19 126/4/19 125/4/19
f 113/4/20 112/4/20 127/4/20 126/4/20
f 112/4/21 111/4/21 128/4/21 127/4/21
f 111/4/22 110/4/22 129/4/22 128/4/22
f 110/4/3 109/4/3 130/4/3 129/4/3
f 109/4/2 119/4/2 120/4/2 130/4/2
f 131/4/1 132/4/1 133/4/1 134/4/1
f 118/4/2 121/4/2 135/4/2 136/4/2
f 131/4/3 134/4/3 121/4/3 118/4/3
f 133/4/4 132/4/4 136/4/4 135/4/4
f 131/4/5 118/4/5 136/4/5 132/4/5
f 134/4/6 133/4/6 135/4/6 121/4/6
f 137/4/1 138/4/1 139/4/1 140/4/1
f 141/4/2 142/4/2 129/4/2 110/4/2
f 137/4/3 140/4/3 142/4/3 141/4/3
f 139/4/4 138/4/4 110/4/4 129/4/4
f 137/4/5 141/4/5 110/4/5 138/4/5
f 140/4/6 139/4/6 129/4/6 142/4/6
f 143/3/1 144/3/1 145/3/1 146/3/1
f 147/3/2 148/3/2 149/3/2 150/3/2
f 143/3/3 146/3/3 148/3/3 147/3/3
f 145/3/4 144/3/4 150/3/4 149/3/4
f 143/3/5 147/3/5 150/3/5 144/3/5
f 146/3/6 145/3/6 149/3/6 148/3/6
f 151/1/1 152/1/1 153/1/1 154/1/1
f 155/1/2 156/1/2 157/1/2 158/1/2
f 151/1/3 154/1/3 156/1/3 155/1/3
f 153/1/4 152/1/4 158/1/4 157/1/4
f 151/1/5 155/1/5 158/1/5 152/1/5
f 154/1/6 153/1/6 157/1/6 156/1/6
