# Blender 5.2.0 LTS
# www.blender.org
mtllib FN_Table_Garden_Round.mtl
o FN_Table_Garden_Round
v 0.450000 0.715000 0.000000
v 0.389711 0.715000 -0.225000
v 0.389711 0.740000 -0.225000
v 0.450000 0.740000 0.000000
v 0.225000 0.715000 -0.389711
v 0.225000 0.740000 -0.389711
v 0.000000 0.715000 -0.450000
v 0.000000 0.740000 -0.450000
v -0.225000 0.715000 -0.389711
v -0.225000 0.740000 -0.389711
v -0.389711 0.715000 -0.225000
v -0.389711 0.740000 -0.225000
v -0.450000 0.715000 -0.000000
v -0.450000 0.740000 -0.000000
v -0.389711 0.715000 0.225000
v -0.389711 0.740000 0.225000
v -0.225000 0.715000 0.389711
v -0.225000 0.740000 0.389711
v -0.000000 0.715000 0.450000
v -0.000000 0.740000 0.450000
v 0.225000 0.715000 0.389711
v 0.225000 0.740000 0.389711
v 0.389711 0.715000 0.225000
v 0.389711 0.740000 0.225000
v 0.405000 0.740000 0.000000
v 0.350740 0.740000 -0.202500
v 0.350740 0.715000 -0.202500
v 0.405000 0.715000 0.000000
v 0.202500 0.740000 -0.350740
v 0.202500 0.715000 -0.350740
v 0.000000 0.740000 -0.405000
v 0.000000 0.715000 -0.405000
v -0.202500 0.740000 -0.350740
v -0.202500 0.715000 -0.350740
v -0.350740 0.740000 -0.202500
v -0.350740 0.715000 -0.202500
v -0.405000 0.740000 -0.000000
v -0.405000 0.715000 -0.000000
v -0.350740 0.740000 0.202500
v -0.350740 0.715000 0.202500
v -0.202500 0.740000 0.350740
v -0.202500 0.715000 0.350740
v -0.000000 0.740000 0.405000
v -0.000000 0.715000 0.405000
v 0.202500 0.740000 0.350740
v 0.202500 0.715000 0.350740
v 0.350740 0.740000 0.202500
v 0.350740 0.715000 0.202500
v 0.298000 0.715000 0.000000
v 0.258076 0.715000 -0.149000
v 0.258076 0.740000 -0.149000
v 0.298000 0.740000 0.000000
v 0.149000 0.715000 -0.258076
v 0.149000 0.740000 -0.258076
v 0.000000 0.715000 -0.298000
v 0.000000 0.740000 -0.298000
v -0.149000 0.715000 -0.258076
v -0.149000 0.740000 -0.258076
v -0.258076 0.715000 -0.149000
v -0.258076 0.740000 -0.149000
v -0.298000 0.715000 -0.000000
v -0.298000 0.740000 -0.000000
v -0.258076 0.715000 0.149000
v -0.258076 0.740000 0.149000
v -0.149000 0.715000 0.258076
v -0.149000 0.740000 0.258076
v -0.000000 0.715000 0.298000
v -0.000000 0.740000 0.298000
v 0.149000 0.715000 0.258076
v 0.149000 0.740000 0.258076
v 0.258076 0.715000 0.149000
v 0.258076 0.740000 0.149000
v 0.258000 0.740000 0.000000
v 0.223435 0.740000 -0.129000
v 0.223435 0.715000 -0.129000
v 0.258000 0.715000 0.000000
v 0.129000 0.740000 -0.223435
v 0.129000 0.715000 -0.223435
v 0.000000 0.740000 -0.258000
v 0.000000 0.715000 -0.258000
v -0.129000 0.740000 -0.223435
v -0.129000 0.715000 -0.223435
v -0.223435 0.740000 -0.129000
v -0.223435 0.715000 -0.129000
v -0.258000 0.740000 -0.000000
v -0.258000 0.715000 -0.000000
v -0.223435 0.740000 0.129000
v -0.223435 0.715000 0.129000
v -0.129000 0.740000 0.223435
v -0.129000 0.715000 0.223435
v -0.000000 0.740000 0.258000
v -0.000000 0.715000 0.258000
v 0.129000 0.740000 0.223435
v 0.129000 0.715000 0.223435
v 0.223435 0.740000 0.129000
v 0.223435 0.715000 0.129000
v 0.120000 0.715000 0.014000
v 0.430000 0.715000 0.014000
v 0.430000 0.740000 0.014000
v 0.120000 0.740000 0.014000
v 0.120000 0.740000 -0.014000
v 0.430000 0.740000 -0.014000
v 0.430000 0.715000 -0.014000
v 0.120000 0.715000 -0.014000
v 0.094752 0.715000 -0.074953
v 0.313955 0.715000 -0.294156
v 0.313955 0.740000 -0.294156
v 0.094752 0.740000 -0.074953
v 0.074953 0.740000 -0.094752
v 0.294156 0.740000 -0.313955
v 0.294156 0.715000 -0.313955
v 0.074953 0.715000 -0.094752
v 0.014000 0.715000 -0.120000
v 0.014000 0.715000 -0.430000
v 0.014000 0.740000 -0.430000
v 0.014000 0.740000 -0.120000
v -0.014000 0.740000 -0.120000
v -0.014000 0.740000 -0.430000
v -0.014000 0.715000 -0.430000
v -0.014000 0.715000 -0.120000
v -0.074953 0.715000 -0.094752
v -0.294156 0.715000 -0.313955
v -0.294156 0.740000 -0.313955
v -0.074953 0.740000 -0.094752
v -0.094752 0.740000 -0.074953
v -0.313955 0.740000 -0.294156
v -0.313955 0.715000 -0.294156
v -0.094752 0.715000 -0.074953
v -0.120000 0.715000 -0.014000
v -0.430000 0.715000 -0.014000
v -0.430000 0.740000 -0.014000
v -0.120000 0.740000 -0.014000
v -0.120000 0.740000 0.014000
v -0.430000 0.740000 0.014000
v -0.430000 0.715000 0.014000
v -0.120000 0.715000 0.014000
v -0.094752 0.715000 0.074953
v -0.313955 0.715000 0.294156
v -0.313955 0.740000 0.294156
v -0.094752 0.740000 0.074953
v -0.074953 0.740000 0.094752
v -0.294156 0.740000 0.313955
v -0.294156 0.715000 0.313955
v -0.074953 0.715000 0.094752
v -0.014000 0.715000 0.120000
v -0.014000 0.715000 0.430000
v -0.014000 0.740000 0.430000
v -0.014000 0.740000 0.120000
v 0.014000 0.740000 0.120000
v 0.014000 0.740000 0.430000
v 0.014000 0.715000 0.430000
v 0.014000 0.715000 0.120000
v 0.074953 0.715000 0.094752
v 0.294156 0.715000 0.313955
v 0.294156 0.740000 0.313955
v 0.074953 0.740000 0.094752
v 0.094752 0.740000 0.074953
v 0.313955 0.740000 0.294156
v 0.313955 0.715000 0.294156
v 0.094752 0.715000 0.074953
v 0.112583 0.715000 0.065000
v 0.065000 0.715000 0.112583
v -0.000000 0.715000 0.130000
v -0.065000 0.715000 0.112583
v -0.112583 0.715000 0.065000
v -0.130000 0.715000 -0.000000
v -0.112583 0.715000 -0.065000
v -0.065000 0.715000 -0.112583
v 0.000000 0.715000 -0.130000
v 0.065000 0.715000 -0.112583
v 0.112583 0.715000 -0.065000
v 0.130000 0.715000 0.000000
v 0.130000 0.740000 0.000000
v 0.112583 0.740000 -0.065000
v 0.065000 0.740000 -0.112583
v 0.000000 0.740000 -0.130000
v -0.065000 0.740000 -0.112583
v -0.112583 0.740000 -0.065000
v -0.130000 0.740000 -0.000000
v -0.112583 0.740000 0.065000
v -0.065000 0.740000 0.112583
v -0.000000 0.740000 0.130000
v 0.065000 0.740000 0.112583
v 0.112583 0.740000 0.065000
v 0.060104 0.620000 0.060104
v -0.000000 0.620000 0.085000
v -0.060104 0.620000 0.060104
v -0.085000 0.620000 -0.000000
v -0.060104 0.620000 -0.060104
v 0.000000 0.620000 -0.085000
v 0.060104 0.620000 -0.060104
v 0.085000 0.620000 0.000000
v 0.085000 0.730000 0.000000
v 0.060104 0.730000 -0.060104
v 0.000000 0.730000 -0.085000
v -0.060104 0.730000 -0.060104
v -0.085000 0.730000 -0.000000
v -0.060104 0.730000 0.060104
v -0.000000 0.730000 0.085000
v 0.060104 0.730000 0.060104
v 0.222739 0.000000 -0.194454
v 0.272236 0.000000 -0.243952
v 0.091924 0.730000 -0.063640
v 0.045962 0.730000 -0.017678
v 0.017678 0.730000 -0.045962
v 0.063640 0.730000 -0.091924
v 0.243952 0.000000 -0.272236
v 0.194454 0.000000 -0.222739
v -0.194454 0.000000 -0.222739
v -0.243952 0.000000 -0.272236
v -0.063640 0.730000 -0.091924
v -0.017678 0.730000 -0.045962
v -0.045962 0.730000 -0.017678
v -0.091924 0.730000 -0.063640
v -0.272236 0.000000 -0.243952
v -0.222739 0.000000 -0.194454
v -0.222739 0.000000 0.194454
v -0.272236 0.000000 0.243952
v -0.091924 0.730000 0.063640
v -0.045962 0.730000 0.017678
v -0.017678 0.730000 0.045962
v -0.063640 0.730000 0.091924
v -0.243952 0.000000 0.272236
v -0.194454 0.000000 0.222739
v 0.194454 0.000000 0.222739
v 0.243952 0.000000 0.272236
v 0.063640 0.730000 0.091924
v 0.017678 0.730000 0.045962
v 0.045962 0.730000 0.017678
v 0.091924 0.730000 0.063640
v 0.272236 0.000000 0.243952
v 0.222739 0.000000 0.194454
v 0.270000 0.180000 0.000000
v 0.233827 0.180000 -0.135000
v 0.233827 0.205000 -0.135000
v 0.270000 0.205000 0.000000
v 0.135000 0.180000 -0.233827
v 0.135000 0.205000 -0.233827
v 0.000000 0.180000 -0.270000
v 0.000000 0.205000 -0.270000
v -0.135000 0.180000 -0.233827
v -0.135000 0.205000 -0.233827
v -0.233827 0.180000 -0.135000
v -0.233827 0.205000 -0.135000
v -0.270000 0.180000 -0.000000
v -0.270000 0.205000 -0.000000
v -0.233827 0.180000 0.135000
v -0.233827 0.205000 0.135000
v -0.135000 0.180000 0.233827
v -0.135000 0.205000 0.233827
v -0.000000 0.180000 0.270000
v -0.000000 0.205000 0.270000
v 0.135000 0.180000 0.233827
v 0.135000 0.205000 0.233827
v 0.233827 0.180000 0.135000
v 0.233827 0.205000 0.135000
v 0.240000 0.205000 0.000000
v 0.207846 0.205000 -0.120000
v 0.207846 0.180000 -0.120000
v 0.240000 0.180000 0.000000
v 0.120000 0.205000 -0.207846
v 0.120000 0.180000 -0.207846
v 0.000000 0.205000 -0.240000
v 0.000000 0.180000 -0.240000
v -0.120000 0.205000 -0.207846
v -0.120000 0.180000 -0.207846
v -0.207846 0.205000 -0.120000
v -0.207846 0.180000 -0.120000
v -0.240000 0.205000 -0.000000
v -0.240000 0.180000 -0.000000
v -0.207846 0.205000 0.120000
v -0.207846 0.180000 0.120000
v -0.120000 0.205000 0.207846
v -0.120000 0.180000 0.207846
v -0.000000 0.205000 0.240000
v -0.000000 0.180000 0.240000
v 0.120000 0.205000 0.207846
v 0.120000 0.180000 0.207846
v 0.207846 0.205000 0.120000
v 0.207846 0.180000 0.120000
v 0.053033 0.740000 0.053033
v -0.000000 0.740000 0.075000
v -0.053033 0.740000 0.053033
v -0.075000 0.740000 -0.000000
v -0.053033 0.740000 -0.053033
v 0.000000 0.740000 -0.075000
v 0.053033 0.740000 -0.053033
v 0.075000 0.740000 0.000000
v 0.065054 0.838000 -0.065054
v 0.092000 0.838000 0.000000
v 0.000000 0.838000 -0.092000
v -0.065054 0.838000 -0.065054
v -0.092000 0.838000 -0.000000
v -0.065054 0.838000 0.065054
v -0.000000 0.838000 0.092000
v 0.065054 0.838000 0.065054
v 0.055154 0.838000 -0.055154
v 0.078000 0.838000 0.000000
v 0.000000 0.838000 -0.078000
v -0.055154 0.838000 -0.055154
v -0.078000 0.838000 -0.000000
v -0.055154 0.838000 0.055154
v -0.000000 0.838000 0.078000
v 0.055154 0.838000 0.055154
v 0.043134 0.754000 -0.043134
v 0.061000 0.754000 0.000000
v 0.000000 0.754000 -0.061000
v -0.043134 0.754000 -0.043134
v -0.061000 0.754000 -0.000000
v -0.043134 0.754000 0.043134
v -0.000000 0.754000 0.061000
v 0.043134 0.754000 0.043134
v 0.074000 0.826000 0.000000
v 0.052326 0.826000 -0.052326
v 0.000000 0.826000 -0.074000
v -0.052326 0.826000 -0.052326
v -0.074000 0.826000 -0.000000
v -0.052326 0.826000 0.052326
v -0.000000 0.826000 0.074000
v 0.052326 0.826000 0.052326
vn 0.9659 -0.0000 -0.2588
vn 0.7071 -0.0000 -0.7071
vn 0.2588 -0.0000 -0.9659
vn -0.2588 -0.0000 -0.9659
vn -0.7071 -0.0000 -0.7071
vn -0.9659 -0.0000 -0.2588
vn -0.9659 -0.0000 0.2588
vn -0.7071 -0.0000 0.7071
vn -0.2588 -0.0000 0.9659
vn 0.2588 -0.0000 0.9659
vn 0.7071 -0.0000 0.7071
vn 0.9659 -0.0000 0.2588
vn -0.0000 1.0000 -0.0000
vn -0.0000 -1.0000 -0.0000
vn -0.0000 -0.0000 1.0000
vn -0.0000 -0.0000 -1.0000
vn 1.0000 -0.0000 -0.0000
vn -1.0000 -0.0000 -0.0000
vn 0.9239 -0.0000 -0.3827
vn 0.3827 -0.0000 -0.9239
vn -0.3827 -0.0000 -0.9239
vn -0.9239 -0.0000 -0.3827
vn -0.9239 -0.0000 0.3827
vn -0.3827 -0.0000 0.9239
vn 0.3827 -0.0000 0.9239
vn 0.9239 -0.0000 0.3827
vn 0.6676 0.3298 -0.6676
vn -0.6690 -0.3240 0.6690
vn -0.6676 0.3298 -0.6676
vn 0.6690 -0.3240 0.6690
vn -0.6676 0.3298 0.6676
vn 0.6690 -0.3240 -0.6690
vn 0.6676 0.3298 0.6676
vn -0.6690 -0.3240 -0.6690
vn 0.9122 -0.1582 -0.3779
vn 0.3779 -0.1582 -0.9122
vn -0.3779 -0.1582 -0.9122
vn -0.9122 -0.1582 -0.3779
vn -0.9122 -0.1582 0.3779
vn -0.3779 -0.1582 0.9122
vn 0.3779 -0.1582 0.9122
vn 0.9122 -0.1582 0.3779
vn -0.9081 0.1838 0.3762
vn -0.3762 0.1838 0.9081
vn 0.3762 0.1838 0.9081
vn 0.9081 0.1838 0.3762
vn 0.9081 0.1838 -0.3762
vn 0.3762 0.1838 -0.9081
vn -0.3762 0.1838 -0.9081
vn -0.9081 0.1838 -0.3762
vt 0.812500 0.312500
vt 0.312500 0.562500
vt 0.812500 0.937500
s 0
usemtl FN_Atlas
f 1/1/1 2/1/1 3/1/1 4/1/1
f 2/1/2 5/1/2 6/1/2 3/1/2
f 5/1/3 7/1/3 8/1/3 6/1/3
f 7/1/4 9/1/4 10/1/4 8/1/4
f 9/1/5 11/1/5 12/1/5 10/1/5
f 11/1/6 13/1/6 14/1/6 12/1/6
f 13/1/7 15/1/7 16/1/7 14/1/7
f 15/1/8 17/1/8 18/1/8 16/1/8
f 17/1/9 19/1/9 20/1/9 18/1/9
f 19/1/10 21/1/10 22/1/10 20/1/10
f 21/1/11 23/1/11 24/1/11 22/1/11
f 23/1/12 1/1/12 4/1/12 24/1/12
f 25/1/7 26/1/7 27/1/7 28/1/7
f 26/1/8 29/1/8 30/1/8 27/1/8
f 29/1/9 31/1/9 32/1/9 30/1/9
f 31/1/10 33/1/10 34/1/10 32/1/10
f 33/1/11 35/1/11 36/1/11 34/1/11
f 35/1/12 37/1/12 38/1/12 36/1/12
f 37/1/1 39/1/1 40/1/1 38/1/1
f 39/1/2 41/1/2 42/1/2 40/1/2
f 41/1/3 43/1/3 44/1/3 42/1/3
f 43/1/4 45/1/4 46/1/4 44/1/4
f 45/1/5 47/1/5 48/1/5 46/1/5
f 47/1/6 25/1/6 28/1/6 48/1/6
f 4/1/13 3/1/13 26/1/13 25/1/13
f 3/1/13 6/1/13 29/1/13 26/1/13
f 6/1/13 8/1/13 31/1/13 29/1/13
f 8/1/13 10/1/13 33/1/13 31/1/13
f 10/1/13 12/1/13 35/1/13 33/1/13
f 12/1/13 14/1/13 37/1/13 35/1/13
f 14/1/13 16/1/13 39/1/13 37/1/13
f 16/1/13 18/1/13 41/1/13 39/1/13
f 18/1/13 20/1/13 43/1/13 41/1/13
f 20/1/13 22/1/13 45/1/13 43/1/13
f 22/1/13 24/1/13 47/1/13 45/1/13
f 24/1/13 4/1/13 25/1/13 47/1/13
f 28/1/14 27/1/14 2/1/14 1/1/14
f 27/1/14 30/1/14 5/1/14 2/1/14
f 30/1/14 32/1/14 7/1/14 5/1/14
f 32/1/14 34/1/14 9/1/14 7/1/14
f 34/1/14 36/1/14 11/1/14 9/1/14
f 36/1/14 38/1/14 13/1/14 11/1/14
f 38/1/14 40/1/14 15/1/14 13/1/14
f 40/1/14 42/1/14 17/1/14 15/1/14
f 42/1/14 44/1/14 19/1/14 17/1/14
f 44/1/14 46/1/14 21/1/14 19/1/14
f 46/1/14 48/1/14 23/1/14 21/1/14
f 48/1/14 28/1/14 1/1/14 23/1/14
f 49/1/1 50/1/1 51/1/1 52/1/1
f 50/1/2 53/1/2 54/1/2 51/1/2
f 53/1/3 55/1/3 56/1/3 54/1/3
f 55/1/4 57/1/4 58/1/4 56/1/4
f 57/1/5 59/1/5 60/1/5 58/1/5
f 59/1/6 61/1/6 62/1/6 60/1/6
f 61/1/7 63/1/7 64/1/7 62/1/7
f 63/1/8 65/1/8 66/1/8 64/1/8
f 65/1/9 67/1/9 68/1/9 66/1/9
f 67/1/10 69/1/10 70/1/10 68/1/10
f 69/1/11 71/1/11 72/1/11 70/1/11
f 71/1/12 49/1/12 52/1/12 72/1/12
f 73/1/7 74/1/7 75/1/7 76/1/7
f 74/1/8 77/1/8 78/1/8 75/1/8
f 77/1/9 79/1/9 80/1/9 78/1/9
f 79/1/10 81/1/10 82/1/10 80/1/10
f 81/1/11 83/1/11 84/1/11 82/1/11
f 83/1/12 85/1/12 86/1/12 84/1/12
f 85/1/1 87/1/1 88/1/1 86/1/1
f 87/1/2 89/1/2 90/1/2 88/1/2
f 89/1/3 91/1/3 92/1/3 90/1/3
f 91/1/4 93/1/4 94/1/4 92/1/4
f 93/1/5 95/1/5 96/1/5 94/1/5
f 95/1/6 73/1/6 76/1/6 96/1/6
f 52/1/13 51/1/13 74/1/13 73/1/13
f 51/1/13 54/1/13 77/1/13 74/1/13
f 54/1/13 56/1/13 79/1/13 77/1/13
f 56/1/13 58/1/13 81/1/13 79/1/13
f 58/1/13 60/1/13 83/1/13 81/1/13
f 60/1/13 62/1/13 85/1/13 83/1/13
f 62/1/13 64/1/13 87/1/13 85/1/13
f 64/1/13 66/1/13 89/1/13 87/1/13
f 66/1/13 68/1/13 91/1/13 89/1/13
f 68/1/13 70/1/13 93/1/13 91/1/13
f 70/1/13 72/1/13 95/1/13 93/1/13
f 72/1/13 52/1/13 73/1/13 95/1/13
f 76/1/14 75/1/14 50/1/14 49/1/14
f 75/1/14 78/1/14 53/1/14 50/1/14
f 78/1/14 80/1/14 55/1/14 53/1/14
f 80/1/14 82/1/14 57/1/14 55/1/14
f 82/1/14 84/1/14 59/1/14 57/1/14
f 84/1/14 86/1/14 61/1/14 59/1/14
f 86/1/14 88/1/14 63/1/14 61/1/14
f 88/1/14 90/1/14 65/1/14 63/1/14
f 90/1/14 92/1/14 67/1/14 65/1/14
f 92/1/14 94/1/14 69/1/14 67/1/14
f 94/1/14 96/1/14 71/1/14 69/1/14
f 96/1/14 76/1/14 49/1/14 71/1/14
f 97/1/15 98/1/15 99/1/15 100/1/15
f 101/1/16 102/1/16 103/1/16 104/1/16
f 104/1/14 103/1/14 98/1/14 97/1/14
f 103/1/17 102/1/17 99/1/17 98/1/17
f 102/1/13 101/1/13 100/1/13 99/1/13
f 101/1/18 104/1/18 97/1/18 100/1/18
f 105/1/11 106/1/11 107/1/11 108/1/11
f 109/1/5 110/1/5 111/1/5 112/1/5
f 112/1/14 111/1/14 106/1/14 105/1/14
f 111/1/2 110/1/2 107/1/2 106/1/2
f 110/1/13 109/1/13 108/1/13 107/1/13
f 109/1/8 112/1/8 105/1/8 108/1/8
f 113/1/17 114/1/17 115/1/17 116/1/17
f 117/1/18 118/1/18 119/1/18 120/1/18
f 120/1/14 119/1/14 114/1/14 113/1/14
f 119/1/16 118/1/16 115/1/16 114/1/16
f 118/1/13 117/1/13 116/1/13 115/1/13
f 117/1/15 120/1/15 113/1/15 116/1/15
f 121/1/2 122/1/2 123/1/2 124/1/2
f 125/1/8 126/1/8 127/1/8 128/1/8
f 128/1/14 127/1/14 122/1/14 121/1/14
f 127/1/5 126/1/5 123/1/5 122/1/5
f 126/1/13 125/1/13 124/1/13 123/1/13
f 125/1/11 128/1/11 121/1/11 124/1/11
f 129/1/16 130/1/16 131/1/16 132/1/16
f 133/1/15 134/1/15 135/1/15 136/1/15
f 136/1/14 135/1/14 130/1/14 129/1/14
f 135/1/18 134/1/18 131/1/18 130/1/18
f 134/1/13 133/1/13 132/1/13 131/1/13
f 133/1/17 136/1/17 129/1/17 132/1/17
f 137/1/5 138/1/5 139/1/5 140/1/5
f 141/1/11 142/1/11 143/1/11 144/1/11
f 144/1/14 143/1/14 138/1/14 137/1/14
f 143/1/8 142/1/8 139/1/8 138/1/8
f 142/1/13 141/1/13 140/1/13 139/1/13
f 141/1/2 144/1/2 137/1/2 140/1/2
f 145/1/18 146/1/18 147/1/18 148/1/18
f 149/1/17 150/1/17 151/1/17 152/1/17
f 152/1/14 151/1/14 146/1/14 145/1/14
f 151/1/15 150/1/15 147/1/15 146/1/15
f 150/1/13 149/1/13 148/1/13 147/1/13
f 149/1/16 152/1/16 145/1/16 148/1/16
f 153/1/8 154/1/8 155/1/8 156/1/8
f 157/1/2 158/1/2 159/1/2 160/1/2
f 160/1/14 159/1/14 154/1/14 153/1/14
f 159/1/11 158/1/11 155/1/11 154/1/11
f 158/1/13 157/1/13 156/1/13 155/1/13
f 157/1/5 160/1/5 153/1/5 156/1/5
f 161/1/14 162/1/14 163/1/14 164/1/14 165/1/14 166/1/14 167/1/14 168/1/14 169/1/14 170/1/14 171/1/14 172/1/14
f 173/1/13 174/1/13 175/1/13 176/1/13 177/1/13 178/1/13 179/1/13 180/1/13 181/1/13 182/1/13 183/1/13 184/1/13
f 172/1/1 171/1/1 174/1/1 173/1/1
f 171/1/2 170/1/2 175/1/2 174/1/2
f 170/1/3 169/1/3 176/1/3 175/1/3
f 169/1/4 168/1/4 177/1/4 176/1/4
f 168/1/5 167/1/5 178/1/5 177/1/5
f 167/1/6 166/1/6 179/1/6 178/1/6
f 166/1/7 165/1/7 180/1/7 179/1/7
f 165/1/8 164/1/8 181/1/8 180/1/8
f 164/1/9 163/1/9 182/1/9 181/1/9
f 163/1/10 162/1/10 183/1/10 182/1/10
f 162/1/11 161/1/11 184/1/11 183/1/11
f 161/1/12 172/1/12 173/1/12 184/1/12
f 185/1/14 186/1/14 187/1/14 188/1/14 189/1/14 190/1/14 191/1/14 192/1/14
f 193/1/13 194/1/13 195/1/13 196/1/13 197/1/13 198/1/13 199/1/13 200/1/13
f 192/1/19 191/1/19 194/1/19 193/1/19
f 191/1/20 190/1/20 195/1/20 194/1/20
f 190/1/21 189/1/21 196/1/21 195/1/21
f 189/1/22 188/1/22 197/1/22 196/1/22
f 188/1/23 187/1/23 198/1/23 197/1/23
f 187/1/24 186/1/24 199/1/24 198/1/24
f 186/1/25 185/1/25 200/1/25 199/1/25
f 185/1/26 192/1/26 193/1/26 200/1/26
f 201/1/11 202/1/11 203/1/11 204/1/11
f 205/1/5 206/1/5 207/1/5 208/1/5
f 204/1/13 203/1/13 206/1/13 205/1/13
f 203/1/27 202/1/27 207/1/27 206/1/27
f 202/1/14 201/1/14 208/1/14 207/1/14
f 201/1/28 204/1/28 205/1/28 208/1/28
f 209/1/2 210/1/2 211/1/2 212/1/2
f 213/1/8 214/1/8 215/1/8 216/1/8
f 212/1/13 211/1/13 214/1/13 213/1/13
f 211/1/29 210/1/29 215/1/29 214/1/29
f 210/1/14 209/1/14 216/1/14 215/1/14
f 209/1/30 212/1/30 213/1/30 216/1/30
f 217/1/5 218/1/5 219/1/5 220/1/5
f 221/1/11 222/1/11 223/1/11 224/1/11
f 220/1/13 219/1/13 222/1/13 221/1/13
f 219/1/31 218/1/31 223/1/31 222/1/31
f 218/1/14 217/1/14 224/1/14 223/1/14
f 217/1/32 220/1/32 221/1/32 224/1/32
f 225/1/8 226/1/8 227/1/8 228/1/8
f 229/1/2 230/1/2 231/1/2 232/1/2
f 228/1/13 227/1/13 230/1/13 229/1/13
f 227/1/33 226/1/33 231/1/33 230/1/33
f 226/1/14 225/1/14 232/1/14 231/1/14
f 225/1/34 228/1/34 229/1/34 232/1/34
f 233/1/1 234/1/1 235/1/1 236/1/1
f 234/1/2 237/1/2 238/1/2 235/1/2
f 237/1/3 239/1/3 240/1/3 238/1/3
f 239/1/4 241/1/4 242/1/4 240/1/4
f 241/1/5 243/1/5 244/1/5 242/1/5
f 243/1/6 245/1/6 246/1/6 244/1/6
f 245/1/7 247/1/7 248/1/7 246/1/7
f 247/1/8 249/1/8 250/1/8 248/1/8
f 249/1/9 251/1/9 252/1/9 250/1/9
f 251/1/10 253/1/10 254/1/10 252/1/10
f 253/1/11 255/1/11 256/1/11 254/1/11
f 255/1/12 233/1/12 236/1/12 256/1/12
f 257/1/7 258/1/7 259/1/7 260/1/7
f 258/1/8 261/1/8 262/1/8 259/1/8
f 261/1/9 263/1/9 264/1/9 262/1/9
f 263/1/10 265/1/10 266/1/10 264/1/10
f 265/1/11 267/1/11 268/1/11 266/1/11
f 267/1/12 269/1/12 270/1/12 268/1/12
f 269/1/1 271/1/1 272/1/1 270/1/1
f 271/1/2 273/1/2 274/1/2 272/1/2
f 273/1/3 275/1/3 276/1/3 274/1/3
f 275/1/4 277/1/4 278/1/4 276/1/4
f 277/1/5 279/1/5 280/1/5 278/1/5
f 279/1/6 257/1/6 260/1/6 280/1/6
f 236/1/13 235/1/13 258/1/13 257/1/13
f 235/1/13 238/1/13 261/1/13 258/1/13
f 238/1/13 240/1/13 263/1/13 261/1/13
f 240/1/13 242/1/13 265/1/13 263/1/13
f 242/1/13 244/1/13 267/1/13 265/1/13
f 244/1/13 246/1/13 269/1/13 267/1/13
f 246/1/13 248/1/13 271/1/13 269/1/13
f 248/1/13 250/1/13 273/1/13 271/1/13
f 250/1/13 252/1/13 275/1/13 273/1/13
f 252/1/13 254/1/13 277/1/13 275/1/13
f 254/1/13 256/1/13 279/1/13 277/1/13
f 256/1/13 236/1/13 257/1/13 279/1/13
f 260/1/14 259/1/14 234/1/14 233/1/14
f 259/1/14 262/1/14 237/1/14 234/1/14
f 262/1/14 264/1/14 239/1/14 237/1/14
f 264/1/14 266/1/14 241/1/14 239/1/14
f 266/1/14 268/1/14 243/1/14 241/1/14
f 268/1/14 270/1/14 245/1/14 243/1/14
f 270/1/14 272/1/14 247/1/14 245/1/14
f 272/1/14 274/1/14 249/1/14 247/1/14
f 274/1/14 276/1/14 251/1/14 249/1/14
f 276/1/14 278/1/14 253/1/14 251/1/14
f 278/1/14 280/1/14 255/1/14 253/1/14
f 280/1/14 260/1/14 233/1/14 255/1/14
f 281/2/14 282/2/14 283/2/14 284/2/14 285/2/14 286/2/14 287/2/14 288/2/14
f 288/2/35 287/2/35 289/2/35 290/2/35
f 287/2/36 286/2/36 291/2/36 289/2/36
f 286/2/37 285/2/37 292/2/37 291/2/37
f 285/2/38 284/2/38 293/2/38 292/2/38
f 284/2/39 283/2/39 294/2/39 293/2/39
f 283/2/40 282/2/40 295/2/40 294/2/40
f 282/2/41 281/2/41 296/2/41 295/2/41
f 281/2/42 288/2/42 290/2/42 296/2/42
f 290/2/13 289/2/13 297/2/13 298/2/13
f 289/2/13 291/2/13 299/2/13 297/2/13
f 291/2/13 292/2/13 300/2/13 299/2/13
f 292/2/13 293/2/13 301/2/13 300/2/13
f 293/2/13 294/2/13 302/2/13 301/2/13
f 294/2/13 295/2/13 303/2/13 302/2/13
f 295/2/13 296/2/13 304/2/13 303/2/13
f 296/2/13 290/2/13 298/2/13 304/2/13
f 298/2/43 297/2/43 305/2/43 306/2/43
f 297/2/44 299/2/44 307/2/44 305/2/44
f 299/2/45 300/2/45 308/2/45 307/2/45
f 300/2/46 301/2/46 309/2/46 308/2/46
f 301/2/47 302/2/47 310/2/47 309/2/47
f 302/2/48 303/2/48 311/2/48 310/2/48
f 303/2/49 304/2/49 312/2/49 311/2/49
f 304/2/50 298/2/50 306/2/50 312/2/50
f 313/3/13 314/3/13 315/3/13 316/3/13 317/3/13 318/3/13 319/3/13 320/3/13
