# Blender 5.2.0 LTS
# www.blender.org
mtllib FN_Table_Side.mtl
o FN_Table_Side
v -0.215560 0.522000 -0.195964
v 0.215560 0.522000 -0.195964
v 0.215560 0.522000 0.195964
v -0.215560 0.522000 0.195964
v 0.220000 0.528000 0.200000
v -0.220000 0.528000 0.200000
v 0.220000 0.528000 -0.200000
v -0.220000 0.528000 -0.200000
v 0.220000 0.544000 0.200000
v -0.220000 0.544000 0.200000
v 0.220000 0.544000 -0.200000
v -0.220000 0.544000 -0.200000
v -0.215560 0.550000 0.195964
v 0.215560 0.550000 0.195964
v 0.215560 0.550000 -0.195964
v -0.215560 0.550000 -0.195964
v -0.202000 0.000000 0.150000
v -0.170000 0.000000 0.150000
v -0.170000 0.000000 0.182000
v -0.202000 0.000000 0.182000
v -0.209000 0.522000 0.189000
v -0.163000 0.522000 0.189000
v -0.163000 0.522000 0.143000
v -0.209000 0.522000 0.143000
v -0.202000 0.000000 -0.182000
v -0.170000 0.000000 -0.182000
v -0.170000 0.000000 -0.150000
v -0.202000 0.000000 -0.150000
v -0.209000 0.522000 -0.143000
v -0.163000 0.522000 -0.143000
v -0.163000 0.522000 -0.189000
v -0.209000 0.522000 -0.189000
v 0.170000 0.000000 0.150000
v 0.202000 0.000000 0.150000
v 0.202000 0.000000 0.182000
v 0.170000 0.000000 0.182000
v 0.163000 0.522000 0.189000
v 0.209000 0.522000 0.189000
v 0.209000 0.522000 0.143000
v 0.163000 0.522000 0.143000
v 0.170000 0.000000 -0.182000
v 0.202000 0.000000 -0.182000
v 0.202000 0.000000 -0.150000
v 0.170000 0.000000 -0.150000
v 0.163000 0.522000 -0.143000
v 0.209000 0.522000 -0.143000
v 0.209000 0.522000 -0.189000
v 0.163000 0.522000 -0.189000
v -0.178000 0.150000 0.158000
v -0.178000 0.150000 -0.158000
v -0.162000 0.150000 -0.158000
v -0.162000 0.150000 0.158000
v -0.178000 0.508000 0.158000
v -0.162000 0.508000 0.158000
v -0.162000 0.508000 -0.158000
v -0.178000 0.508000 -0.158000
v 0.162000 0.150000 0.158000
v 0.162000 0.150000 -0.158000
v 0.178000 0.150000 -0.158000
v 0.178000 0.150000 0.158000
v 0.162000 0.508000 0.158000
v 0.178000 0.508000 0.158000
v 0.178000 0.508000 -0.158000
v 0.162000 0.508000 -0.158000
v -0.178000 0.150000 -0.147000
v 0.178000 0.150000 -0.147000
v -0.178000 0.508000 -0.147000
v 0.178000 0.508000 -0.147000
v -0.178000 0.356000 0.158000
v -0.178000 0.356000 -0.158000
v 0.178000 0.356000 -0.158000
v 0.178000 0.356000 0.158000
v -0.178000 0.372000 0.158000
v 0.178000 0.372000 0.158000
v 0.178000 0.372000 -0.158000
v -0.178000 0.372000 -0.158000
v -0.174975 0.150000 -0.147383
v 0.174975 0.150000 -0.147383
v 0.174975 0.150000 0.155383
v -0.174975 0.150000 0.155383
v 0.178000 0.154000 0.158000
v -0.178000 0.154000 0.158000
v 0.178000 0.154000 -0.150000
v -0.178000 0.154000 -0.150000
v 0.178000 0.164000 0.158000
v -0.178000 0.164000 0.158000
v 0.178000 0.164000 -0.150000
v -0.178000 0.164000 -0.150000
v -0.174975 0.168000 0.155383
v 0.174975 0.168000 0.155383
v 0.174975 0.168000 -0.147383
v -0.174975 0.168000 -0.147383
v -0.162000 0.372000 0.158000
v -0.162000 0.372000 0.148000
v 0.162000 0.372000 0.148000
v 0.162000 0.372000 0.158000
v -0.162000 0.494000 0.158000
v 0.162000 0.494000 0.158000
v 0.162000 0.494000 0.148000
v -0.162000 0.494000 0.148000
v -0.158000 0.376000 0.159000
v -0.158000 0.376000 0.139000
v 0.158000 0.376000 0.139000
v 0.158000 0.376000 0.159000
v -0.158000 0.490000 0.159000
v 0.158000 0.490000 0.159000
v 0.158000 0.490000 0.139000
v -0.158000 0.490000 0.139000
v 0.004760 0.433000 0.159000
v 0.003366 0.436366 0.159000
v 0.000000 0.437760 0.159000
v -0.003366 0.436366 0.159000
v -0.004760 0.433000 0.159000
v -0.003366 0.429634 0.159000
v -0.000000 0.428240 0.159000
v 0.003366 0.429634 0.159000
v 0.007128 0.425872 0.185000
v -0.000000 0.422920 0.185000
v -0.007128 0.425872 0.185000
v -0.010080 0.433000 0.185000
v -0.007128 0.440128 0.185000
v 0.000000 0.443080 0.185000
v 0.007128 0.440128 0.185000
v 0.010080 0.433000 0.185000
v 0.004158 0.437158 0.170700
v 0.005880 0.433000 0.170700
v 0.000000 0.438880 0.170700
v -0.004158 0.437158 0.170700
v -0.005880 0.433000 0.170700
v -0.004158 0.428842 0.170700
v -0.000000 0.427120 0.170700
v 0.004158 0.428842 0.170700
v 0.009899 0.442899 0.179800
v 0.014000 0.433000 0.179800
v 0.000000 0.447000 0.179800
v -0.009899 0.442899 0.179800
v -0.014000 0.433000 0.179800
v -0.009899 0.423101 0.179800
v -0.000000 0.419000 0.179800
v 0.009899 0.423101 0.179800
vn -0.0000 -1.0000 -0.0000
vn -0.0000 -0.5581 0.8297
vn 0.8039 -0.5948 -0.0000
vn -0.0000 -0.5581 -0.8297
vn -0.8039 -0.5948 -0.0000
vn -0.0000 -0.0000 1.0000
vn 1.0000 -0.0000 -0.0000
vn -0.0000 -0.0000 -1.0000
vn -1.0000 -0.0000 -0.0000
vn -0.0000 1.0000 -0.0000
vn -0.0000 0.5581 0.8297
vn 0.8039 0.5948 -0.0000
vn -0.0000 0.5581 -0.8297
vn -0.8039 0.5948 -0.0000
vn -0.0000 -0.0134 0.9999
vn 0.9999 -0.0134 -0.0000
vn -0.0000 -0.0134 -0.9999
vn -0.9999 -0.0134 -0.0000
vn -0.0000 -0.5475 0.8368
vn 0.7976 -0.6032 -0.0000
vn -0.0000 -0.5475 -0.8368
vn -0.7976 -0.6032 -0.0000
vn -0.0000 0.5475 0.8368
vn 0.7976 0.6032 -0.0000
vn -0.0000 0.5475 -0.8368
vn -0.7976 0.6032 -0.0000
vn 0.9203 0.3812 -0.0881
vn 0.3812 0.9203 -0.0881
vn -0.3812 0.9203 -0.0881
vn -0.9203 0.3812 -0.0881
vn -0.9203 -0.3812 -0.0881
vn -0.3812 -0.9203 -0.0881
vn 0.3812 -0.9203 -0.0881
vn 0.9203 -0.3812 -0.0881
vn 0.7129 0.2953 -0.6361
vn 0.2953 0.7129 -0.6361
vn -0.2953 0.7129 -0.6361
vn -0.7129 0.2953 -0.6361
vn -0.7129 -0.2953 -0.6361
vn -0.2953 -0.7129 -0.6361
vn 0.2953 -0.7129 -0.6361
vn 0.7129 -0.2953 -0.6361
vn 0.7581 0.3140 0.5715
vn 0.3140 0.7581 0.5715
vn -0.3140 0.7581 0.5715
vn -0.7581 0.3140 0.5715
vn -0.7581 -0.3140 0.5715
vn -0.3140 -0.7581 0.5715
vn 0.3140 -0.7581 0.5715
vn 0.7581 -0.3140 0.5715
vt 0.812500 0.937500
vt 0.687500 0.937500
vt 0.437500 0.937500
vt 0.562500 0.937500
vt 0.437500 0.312500
s 0
usemtl FN_Atlas
f 1/1/1 2/1/1 3/1/1 4/1/1
f 4/1/2 3/1/2 5/1/2 6/1/2
f 3/1/3 2/1/3 7/1/3 5/1/3
f 2/1/4 1/1/4 8/1/4 7/1/4
f 1/1/5 4/1/5 6/1/5 8/1/5
f 6/1/6 5/1/6 9/1/6 10/1/6
f 5/1/7 7/1/7 11/1/7 9/1/7
f 7/1/8 8/1/8 12/1/8 11/1/8
f 8/1/9 6/1/9 10/1/9 12/1/9
f 13/2/10 14/2/10 15/2/10 16/2/10
f 10/1/11 9/1/11 14/1/11 13/1/11
f 9/1/12 11/1/12 15/1/12 14/1/12
f 11/1/13 12/1/13 16/1/13 15/1/13
f 12/1/14 10/1/14 13/1/14 16/1/14
f 17/3/1 18/3/1 19/3/1 20/3/1
f 21/3/10 22/3/10 23/3/10 24/3/10
f 20/3/15 19/3/15 22/3/15 21/3/15
f 19/3/16 18/3/16 23/3/16 22/3/16
f 18/3/17 17/3/17 24/3/17 23/3/17
f 17/3/18 20/3/18 21/3/18 24/3/18
f 25/3/1 26/3/1 27/3/1 28/3/1
f 29/3/10 30/3/10 31/3/10 32/3/10
f 28/3/15 27/3/15 30/3/15 29/3/15
f 27/3/16 26/3/16 31/3/16 30/3/16
f 26/3/17 25/3/17 32/3/17 31/3/17
f 25/3/18 28/3/18 29/3/18 32/3/18
f 33/3/1 34/3/1 35/3/1 36/3/1
f 37/3/10 38/3/10 39/3/10 40/3/10
f 36/3/15 35/3/15 38/3/15 37/3/15
f 35/3/16 34/3/16 39/3/16 38/3/16
f 34/3/17 33/3/17 40/3/17 39/3/17
f 33/3/18 36/3/18 37/3/18 40/3/18
f 41/3/1 42/3/1 43/3/1 44/3/1
f 45/3/10 46/3/10 47/3/10 48/3/10
f 44/3/15 43/3/15 46/3/15 45/3/15
f 43/3/16 42/3/16 47/3/16 46/3/16
f 42/3/17 41/3/17 48/3/17 47/3/17
f 41/3/18 44/3/18 45/3/18 48/3/18
f 49/3/1 50/3/1 51/3/1 52/3/1
f 53/3/10 54/3/10 55/3/10 56/3/10
f 49/3/6 52/3/6 54/3/6 53/3/6
f 51/3/8 50/3/8 56/3/8 55/3/8
f 49/3/9 53/3/9 56/3/9 50/3/9
f 52/3/7 51/3/7 55/3/7 54/3/7
f 57/3/1 58/3/1 59/3/1 60/3/1
f 61/3/10 62/3/10 63/3/10 64/3/10
f 57/3/6 60/3/6 62/3/6 61/3/6
f 59/3/8 58/3/8 64/3/8 63/3/8
f 57/3/9 61/3/9 64/3/9 58/3/9
f 60/3/7 59/3/7 63/3/7 62/3/7
f 65/4/1 50/4/1 59/4/1 66/4/1
f 67/4/10 68/4/10 63/4/10 56/4/10
f 65/4/6 66/4/6 68/4/6 67/4/6
f 59/4/8 50/4/8 56/4/8 63/4/8
f 65/4/9 67/4/9 56/4/9 50/4/9
f 66/4/7 59/4/7 63/4/7 68/4/7
f 69/3/1 70/3/1 71/3/1 72/3/1
f 73/3/10 74/3/10 75/3/10 76/3/10
f 69/3/6 72/3/6 74/3/6 73/3/6
f 71/3/8 70/3/8 76/3/8 75/3/8
f 69/3/9 73/3/9 76/3/9 70/3/9
f 72/3/7 71/3/7 75/3/7 74/3/7
f 77/1/1 78/1/1 79/1/1 80/1/1
f 80/1/19 79/1/19 81/1/19 82/1/19
f 79/1/20 78/1/20 83/1/20 81/1/20
f 78/1/21 77/1/21 84/1/21 83/1/21
f 77/1/22 80/1/22 82/1/22 84/1/22
f 82/1/6 81/1/6 85/1/6 86/1/6
f 81/1/7 83/1/7 87/1/7 85/1/7
f 83/1/8 84/1/8 88/1/8 87/1/8
f 84/1/9 82/1/9 86/1/9 88/1/9
f 89/3/10 90/3/10 91/3/10 92/3/10
f 86/1/23 85/1/23 90/1/23 89/1/23
f 85/1/24 87/1/24 91/1/24 90/1/24
f 87/1/25 88/1/25 92/1/25 91/1/25
f 88/1/26 86/1/26 89/1/26 92/1/26
f 93/1/1 94/1/1 95/1/1 96/1/1
f 97/1/10 98/1/10 99/1/10 100/1/10
f 93/1/6 96/1/6 98/1/6 97/1/6
f 95/1/8 94/1/8 100/1/8 99/1/8
f 93/1/9 97/1/9 100/1/9 94/1/9
f 96/1/7 95/1/7 99/1/7 98/1/7
f 101/1/1 102/1/1 103/1/1 104/1/1
f 105/1/10 106/1/10 107/1/10 108/1/10
f 101/2/6 104/2/6 106/2/6 105/2/6
f 103/1/8 102/1/8 108/1/8 107/1/8
f 101/1/9 105/1/9 108/1/9 102/1/9
f 104/1/7 103/1/7 107/1/7 106/1/7
f 109/5/6 110/5/6 111/5/6 112/5/6 113/5/6 114/5/6 115/5/6 116/5/6
f 117/5/8 118/5/8 119/5/8 120/5/8 121/5/8 122/5/8 123/5/8 124/5/8
f 109/5/27 110/5/27 125/5/27 126/5/27
f 110/5/28 111/5/28 127/5/28 125/5/28
f 111/5/29 112/5/29 128/5/29 127/5/29
f 112/5/30 113/5/30 129/5/30 128/5/30
f 113/5/31 114/5/31 130/5/31 129/5/31
f 114/5/32 115/5/32 131/5/32 130/5/32
f 115/5/33 116/5/33 132/5/33 131/5/33
f 116/5/34 109/5/34 126/5/34 132/5/34
f 126/5/35 125/5/35 133/5/35 134/5/35
f 125/5/36 127/5/36 135/5/36 133/5/36
f 127/5/37 128/5/37 136/5/37 135/5/37
f 128/5/38 129/5/38 137/5/38 136/5/38
f 129/5/39 130/5/39 138/5/39 137/5/39
f 130/5/40 131/5/40 139/5/40 138/5/40
f 131/5/41 132/5/41 140/5/41 139/5/41
f 132/5/42 126/5/42 134/5/42 140/5/42
f 134/5/43 133/5/43 123/5/43 124/5/43
f 133/5/44 135/5/44 122/5/44 123/5/44
f 135/5/45 136/5/45 121/5/45 122/5/45
f 136/5/46 137/5/46 120/5/46 121/5/46
f 137/5/47 138/5/47 119/5/47 120/5/47
f 138/5/48 139/5/48 118/5/48 119/5/48
f 139/5/49 140/5/49 117/5/49 118/5/49
f 140/5/50 134/5/50 124/5/50 117/5/50
