# Blender 5.2.0 LTS
# www.blender.org
mtllib FN_Table_Tripod.mtl
o FN_Table_Tripod
v 0.199186 0.524000 0.124000
v 0.115000 0.524000 0.208186
v -0.000000 0.524000 0.239000
v -0.115000 0.524000 0.208186
v -0.199186 0.524000 0.124000
v -0.230000 0.524000 0.009000
v -0.199186 0.524000 -0.106000
v -0.115000 0.524000 -0.190186
v 0.000000 0.524000 -0.221000
v 0.115000 0.524000 -0.190186
v 0.199186 0.524000 -0.106000
v 0.230000 0.524000 0.009000
v 0.230000 0.550000 0.009000
v 0.199186 0.550000 -0.106000
v 0.115000 0.550000 -0.190186
v 0.000000 0.550000 -0.221000
v -0.115000 0.550000 -0.190186
v -0.199186 0.550000 -0.106000
v -0.230000 0.550000 0.009000
v -0.199186 0.550000 0.124000
v -0.115000 0.550000 0.208186
v -0.000000 0.550000 0.239000
v 0.115000 0.550000 0.208186
v 0.199186 0.550000 0.124000
v 0.033941 0.120000 0.042941
v -0.000000 0.120000 0.057000
v -0.033941 0.120000 0.042941
v -0.048000 0.120000 0.009000
v -0.033941 0.120000 -0.024941
v 0.000000 0.120000 -0.039000
v 0.033941 0.120000 -0.024941
v 0.048000 0.120000 0.009000
v 0.040000 0.524000 0.009000
v 0.028284 0.524000 -0.019284
v 0.000000 0.524000 -0.031000
v -0.028284 0.524000 -0.019284
v -0.040000 0.524000 0.009000
v -0.028284 0.524000 0.037284
v -0.000000 0.524000 0.049000
v 0.028284 0.524000 0.037284
v 0.041012 0.220000 -0.032012
v 0.058000 0.220000 0.009000
v 0.000000 0.220000 -0.049000
v -0.041012 0.220000 -0.032012
v -0.058000 0.220000 0.009000
v -0.041012 0.220000 0.050012
v -0.000000 0.220000 0.067000
v 0.041012 0.220000 0.050012
v 0.028284 0.300000 -0.019284
v 0.040000 0.300000 0.009000
v 0.000000 0.300000 -0.031000
v -0.028284 0.300000 -0.019284
v -0.040000 0.300000 0.009000
v -0.028284 0.300000 0.037284
v -0.000000 0.300000 0.049000
v 0.028284 0.300000 0.037284
v 0.024042 0.460000 -0.015042
v 0.034000 0.460000 0.009000
v 0.000000 0.460000 -0.025000
v -0.024042 0.460000 -0.015042
v -0.034000 0.460000 0.009000
v -0.024042 0.460000 0.033042
v -0.000000 0.460000 0.043000
v 0.024042 0.460000 0.033042
v 0.032527 0.505000 -0.023527
v 0.046000 0.505000 0.009000
v 0.000000 0.505000 -0.037000
v -0.032527 0.505000 -0.023527
v -0.046000 0.505000 0.009000
v -0.032527 0.505000 0.041527
v -0.000000 0.505000 0.055000
v 0.032527 0.505000 0.041527
v 0.018000 0.000000 -0.186000
v 0.018000 0.000000 -0.236000
v 0.018000 0.210000 -0.071000
v 0.018000 0.210000 -0.021000
v -0.018000 0.210000 -0.021000
v -0.018000 0.210000 -0.071000
v -0.018000 0.000000 -0.236000
v -0.018000 0.000000 -0.186000
v 0.020000 0.000000 -0.181000
v 0.020000 0.000000 -0.239000
v 0.020000 0.018000 -0.239000
v 0.020000 0.030000 -0.181000
v -0.020000 0.030000 -0.181000
v -0.020000 0.018000 -0.239000
v -0.020000 0.000000 -0.239000
v -0.020000 0.000000 -0.181000
v -0.177875 0.000000 0.090912
v -0.221176 0.000000 0.115912
v -0.078282 0.210000 0.033412
v -0.034981 0.210000 0.008412
v -0.016981 0.210000 0.039588
v -0.060282 0.210000 0.064588
v -0.203176 0.000000 0.147088
v -0.159875 0.000000 0.122088
v -0.174545 0.000000 0.086679
v -0.224774 0.000000 0.115679
v -0.224774 0.018000 0.115679
v -0.174545 0.030000 0.086679
v -0.154545 0.030000 0.121321
v -0.204774 0.018000 0.150321
v -0.204774 0.000000 0.150321
v -0.154545 0.000000 0.121321
v 0.159875 0.000000 0.122088
v 0.203176 0.000000 0.147088
v 0.060282 0.210000 0.064588
v 0.016981 0.210000 0.039588
v 0.034981 0.210000 0.008412
v 0.078282 0.210000 0.033412
v 0.221176 0.000000 0.115912
v 0.177875 0.000000 0.090912
v 0.154545 0.000000 0.121321
v 0.204774 0.000000 0.150321
v 0.204774 0.018000 0.150321
v 0.154545 0.030000 0.121321
v 0.174545 0.030000 0.086679
v 0.224774 0.018000 0.115679
v 0.224774 0.000000 0.115679
v 0.174545 0.000000 0.086679
vn -0.0000 -1.0000 -0.0000
vn -0.0000 1.0000 -0.0000
vn 0.9659 -0.0000 -0.2588
vn 0.7071 -0.0000 -0.7071
vn 0.2588 -0.0000 -0.9659
vn -0.2588 -0.0000 -0.9659
vn -0.7071 -0.0000 -0.7071
vn -0.9659 -0.0000 -0.2588
vn -0.9659 -0.0000 0.2588
vn -0.7071 -0.0000 0.7071
vn -0.2588 -0.0000 0.9659
vn 0.2588 -0.0000 0.9659
vn 0.7071 -0.0000 0.7071
vn 0.9659 -0.0000 0.2588
vn 0.9200 -0.0920 -0.3811
vn 0.3811 -0.0920 -0.9200
vn -0.3811 -0.0920 -0.9200
vn -0.9200 -0.0920 -0.3811
vn -0.9200 -0.0920 0.3811
vn -0.3811 -0.0920 0.9200
vn 0.3811 -0.0920 0.9200
vn 0.9200 -0.0920 0.3811
vn 0.9045 0.2035 -0.3747
vn 0.3747 0.2035 -0.9045
vn -0.3747 0.2035 -0.9045
vn -0.9045 0.2035 -0.3747
vn -0.9045 0.2035 0.3747
vn -0.3747 0.2035 0.9045
vn 0.3747 0.2035 0.9045
vn 0.9045 0.2035 0.3747
vn 0.9233 0.0346 -0.3825
vn 0.3825 0.0346 -0.9233
vn -0.3825 0.0346 -0.9233
vn -0.9233 0.0346 -0.3825
vn -0.9233 0.0346 0.3825
vn -0.3825 0.0346 0.9233
vn 0.3825 0.0346 0.9233
vn 0.9233 0.0346 0.3825
vn 0.8971 -0.2392 -0.3716
vn 0.3716 -0.2392 -0.8971
vn -0.3716 -0.2392 -0.8971
vn -0.8971 -0.2392 -0.3716
vn -0.8971 -0.2392 0.3716
vn -0.3716 -0.2392 0.8971
vn 0.3716 -0.2392 0.8971
vn 0.8971 -0.2392 0.3716
vn 0.8869 0.2801 -0.3674
vn 0.3674 0.2801 -0.8869
vn -0.3674 0.2801 -0.8869
vn -0.8869 0.2801 -0.3674
vn -0.8869 0.2801 0.3674
vn -0.3674 0.2801 0.8869
vn 0.3674 0.2801 0.8869
vn 0.8869 0.2801 0.3674
vn 1.0000 -0.0000 -0.0000
vn -1.0000 -0.0000 -0.0000
vn -0.0000 0.6178 -0.7863
vn -0.0000 -0.6178 0.7863
vn -0.0000 -0.0000 -1.0000
vn -0.0000 0.9793 -0.2026
vn -0.0000 -0.0000 1.0000
vn -0.5000 -0.0000 -0.8660
vn 0.5000 -0.0000 0.8660
vn -0.6810 0.6178 0.3932
vn 0.6810 -0.6178 -0.3932
vn -0.8660 -0.0000 0.5000
vn -0.1755 0.9793 0.1013
vn 0.8660 -0.0000 -0.5000
vn -0.5000 -0.0000 0.8660
vn 0.5000 -0.0000 -0.8660
vn 0.6810 0.6178 0.3932
vn -0.6810 -0.6178 -0.3932
vn 0.8660 -0.0000 0.5000
vn 0.1755 0.9793 0.1013
vn -0.8660 -0.0000 -0.5000
vt 0.812500 0.937500
vt 0.437500 0.312500
s 0
usemtl FN_Atlas
f 1/1/1 2/1/1 3/1/1 4/1/1 5/1/1 6/1/1 7/1/1 8/1/1 9/1/1 10/1/1 11/1/1 12/1/1
f 13/1/2 14/1/2 15/1/2 16/1/2 17/1/2 18/1/2 19/1/2 20/1/2 21/1/2 22/1/2 23/1/2 24/1/2
f 12/1/3 11/1/3 14/1/3 13/1/3
f 11/1/4 10/1/4 15/1/4 14/1/4
f 10/1/5 9/1/5 16/1/5 15/1/5
f 9/1/6 8/1/6 17/1/6 16/1/6
f 8/1/7 7/1/7 18/1/7 17/1/7
f 7/1/8 6/1/8 19/1/8 18/1/8
f 6/1/9 5/1/9 20/1/9 19/1/9
f 5/1/10 4/1/10 21/1/10 20/1/10
f 4/1/11 3/1/11 22/1/11 21/1/11
f 3/1/12 2/1/12 23/1/12 22/1/12
f 2/1/13 1/1/13 24/1/13 23/1/13
f 1/1/14 12/1/14 13/1/14 24/1/14
f 25/1/1 26/1/1 27/1/1 28/1/1 29/1/1 30/1/1 31/1/1 32/1/1
f 33/1/2 34/1/2 35/1/2 36/1/2 37/1/2 38/1/2 39/1/2 40/1/2
f 32/1/15 31/1/15 41/1/15 42/1/15
f 31/1/16 30/1/16 43/1/16 41/1/16
f 30/1/17 29/1/17 44/1/17 43/1/17
f 29/1/18 28/1/18 45/1/18 44/1/18
f 28/1/19 27/1/19 46/1/19 45/1/19
f 27/1/20 26/1/20 47/1/20 46/1/20
f 26/1/21 25/1/21 48/1/21 47/1/21
f 25/1/22 32/1/22 42/1/22 48/1/22
f 42/1/23 41/1/23 49/1/23 50/1/23
f 41/1/24 43/1/24 51/1/24 49/1/24
f 43/1/25 44/1/25 52/1/25 51/1/25
f 44/1/26 45/1/26 53/1/26 52/1/26
f 45/1/27 46/1/27 54/1/27 53/1/27
f 46/1/28 47/1/28 55/1/28 54/1/28
f 47/1/29 48/1/29 56/1/29 55/1/29
f 48/1/30 42/1/30 50/1/30 56/1/30
f 50/1/31 49/1/31 57/1/31 58/1/31
f 49/1/32 51/1/32 59/1/32 57/1/32
f 51/1/33 52/1/33 60/1/33 59/1/33
f 52/1/34 53/1/34 61/1/34 60/1/34
f 53/1/35 54/1/35 62/1/35 61/1/35
f 54/1/36 55/1/36 63/1/36 62/1/36
f 55/1/37 56/1/37 64/1/37 63/1/37
f 56/1/38 50/1/38 58/1/38 64/1/38
f 58/1/39 57/1/39 65/1/39 66/1/39
f 57/1/40 59/1/40 67/1/40 65/1/40
f 59/1/41 60/1/41 68/1/41 67/1/41
f 60/1/42 61/1/42 69/1/42 68/1/42
f 61/1/43 62/1/43 70/1/43 69/1/43
f 62/1/44 63/1/44 71/1/44 70/1/44
f 63/1/45 64/1/45 72/1/45 71/1/45
f 64/1/46 58/1/46 66/1/46 72/1/46
f 66/1/47 65/1/47 34/1/47 33/1/47
f 65/1/48 67/1/48 35/1/48 34/1/48
f 67/1/49 68/1/49 36/1/49 35/1/49
f 68/1/50 69/1/50 37/1/50 36/1/50
f 69/1/51 70/1/51 38/1/51 37/1/51
f 70/1/52 71/1/52 39/1/52 38/1/52
f 71/1/53 72/1/53 40/1/53 39/1/53
f 72/1/54 66/1/54 33/1/54 40/1/54
f 73/1/55 74/1/55 75/1/55 76/1/55
f 77/1/56 78/1/56 79/1/56 80/1/56
f 76/1/2 75/1/2 78/1/2 77/1/2
f 75/1/57 74/1/57 79/1/57 78/1/57
f 74/1/1 73/1/1 80/1/1 79/1/1
f 73/1/58 76/1/58 77/1/58 80/1/58
f 81/2/55 82/2/55 83/2/55 84/2/55
f 85/2/56 86/2/56 87/2/56 88/2/56
f 88/2/1 87/2/1 82/2/1 81/2/1
f 87/2/59 86/2/59 83/2/59 82/2/59
f 86/2/60 85/2/60 84/2/60 83/2/60
f 85/2/61 88/2/61 81/2/61 84/2/61
f 89/1/62 90/1/62 91/1/62 92/1/62
f 93/1/63 94/1/63 95/1/63 96/1/63
f 92/1/2 91/1/2 94/1/2 93/1/2
f 91/1/64 90/1/64 95/1/64 94/1/64
f 90/1/1 89/1/1 96/1/1 95/1/1
f 89/1/65 92/1/65 93/1/65 96/1/65
f 97/2/62 98/2/62 99/2/62 100/2/62
f 101/2/63 102/2/63 103/2/63 104/2/63
f 104/2/1 103/2/1 98/2/1 97/2/1
f 103/2/66 102/2/66 99/2/66 98/2/66
f 102/2/67 101/2/67 100/2/67 99/2/67
f 101/2/68 104/2/68 97/2/68 100/2/68
f 105/1/69 106/1/69 107/1/69 108/1/69
f 109/1/70 110/1/70 111/1/70 112/1/70
f 108/1/2 107/1/2 110/1/2 109/1/2
f 107/1/71 106/1/71 111/1/71 110/1/71
f 106/1/1 105/1/1 112/1/1 111/1/1
f 105/1/72 108/1/72 109/1/72 112/1/72
f 113/2/69 114/2/69 115/2/69 116/2/69
f 117/2/70 118/2/70 119/2/70 120/2/70
f 120/2/1 119/2/1 114/2/1 113/2/1
f 119/2/73 118/2/73 115/2/73 114/2/73
f 118/2/74 117/2/74 116/2/74 115/2/74
f 117/2/75 120/2/75 113/2/75 116/2/75
