# Blender 5.2.0 LTS
# www.blender.org
mtllib FN_Table_Coffee_Nest.mtl
o FN_Table_Coffee_Nest
v -0.282000 0.000000 -0.178000
v -0.282000 0.000000 -0.222000
v -0.238000 0.000000 -0.222000
v -0.238000 0.000000 -0.178000
v -0.282000 0.014000 -0.178000
v -0.238000 0.014000 -0.178000
v -0.238000 0.014000 -0.222000
v -0.282000 0.014000 -0.222000
v -0.266500 0.019856 -0.210577
v -0.253500 0.019856 -0.210577
v -0.247000 0.016000 -0.200000
v -0.253500 0.012144 -0.189423
v -0.266500 0.012144 -0.189423
v -0.273000 0.016000 -0.200000
v -0.273000 0.400000 -0.060000
v -0.266500 0.396144 -0.049423
v -0.253500 0.396144 -0.049423
v -0.247000 0.400000 -0.060000
v -0.253500 0.403856 -0.070577
v -0.266500 0.403856 -0.070577
v -0.455205 0.000000 0.122000
v -0.455205 0.000000 0.078000
v -0.411205 0.000000 0.078000
v -0.411205 0.000000 0.122000
v -0.455205 0.014000 0.122000
v -0.411205 0.014000 0.122000
v -0.411205 0.014000 0.078000
v -0.455205 0.014000 0.078000
v -0.439984 0.016118 0.088908
v -0.427587 0.012204 0.088908
v -0.420808 0.012086 0.100000
v -0.426426 0.015882 0.111092
v -0.438823 0.019796 0.111092
v -0.445602 0.019914 0.100000
v -0.324358 0.403914 0.030000
v -0.317579 0.403796 0.041092
v -0.305183 0.399882 0.041092
v -0.299565 0.396086 0.030000
v -0.306344 0.396204 0.018908
v -0.318740 0.400118 0.018908
v -0.108795 0.000000 0.122000
v -0.108795 0.000000 0.078000
v -0.064795 0.000000 0.078000
v -0.064795 0.000000 0.122000
v -0.108795 0.014000 0.122000
v -0.064795 0.014000 0.122000
v -0.064795 0.014000 0.078000
v -0.108795 0.014000 0.078000
v -0.092413 0.012204 0.088908
v -0.080016 0.016118 0.088908
v -0.074398 0.019914 0.100000
v -0.081177 0.019796 0.111092
v -0.093574 0.015882 0.111092
v -0.099192 0.012086 0.100000
v -0.220435 0.396086 0.030000
v -0.214817 0.399882 0.041092
v -0.202421 0.403796 0.041092
v -0.195642 0.403914 0.030000
v -0.201260 0.400118 0.018908
v -0.213656 0.396204 0.018908
v -0.038269 0.388000 0.091844
v -0.090294 0.388000 0.169706
v -0.168156 0.388000 0.221731
v -0.260000 0.388000 0.240000
v -0.351844 0.388000 0.221731
v -0.429706 0.388000 0.169706
v -0.481731 0.388000 0.091844
v -0.500000 0.388000 -0.000000
v -0.481731 0.388000 -0.091844
v -0.429706 0.388000 -0.169706
v -0.351844 0.388000 -0.221731
v -0.260000 0.388000 -0.240000
v -0.168156 0.388000 -0.221731
v -0.090294 0.388000 -0.169706
v -0.038269 0.388000 -0.091844
v -0.020000 0.388000 0.000000
v -0.038269 0.414000 -0.091844
v -0.020000 0.414000 0.000000
v -0.090294 0.414000 -0.169706
v -0.168156 0.414000 -0.221731
v -0.260000 0.414000 -0.240000
v -0.351844 0.414000 -0.221731
v -0.429706 0.414000 -0.169706
v -0.481731 0.414000 -0.091844
v -0.500000 0.414000 -0.000000
v -0.481731 0.414000 0.091844
v -0.429706 0.414000 0.169706
v -0.351844 0.414000 0.221731
v -0.260000 0.414000 0.240000
v -0.168156 0.414000 0.221731
v -0.090294 0.414000 0.169706
v -0.038269 0.414000 0.091844
v -0.026000 0.420000 0.000000
v -0.043812 0.420000 -0.089548
v -0.094537 0.420000 -0.165463
v -0.170452 0.420000 -0.216188
v -0.260000 0.420000 -0.234000
v -0.349548 0.420000 -0.216188
v -0.425463 0.420000 -0.165463
v -0.476188 0.420000 -0.089548
v -0.494000 0.420000 -0.000000
v -0.476188 0.420000 0.089548
v -0.425463 0.420000 0.165463
v -0.349548 0.420000 0.216188
v -0.260000 0.420000 0.234000
v -0.170452 0.420000 0.216188
v -0.094537 0.420000 0.165463
v -0.043812 0.420000 0.089548
v 0.426564 0.000000 -0.088000
v 0.426564 0.000000 -0.132000
v 0.470564 0.000000 -0.132000
v 0.470564 0.000000 -0.088000
v 0.426564 0.014000 -0.088000
v 0.470564 0.014000 -0.088000
v 0.470564 0.014000 -0.132000
v 0.426564 0.014000 -0.132000
v 0.441836 0.015914 -0.121123
v 0.454351 0.019433 -0.121123
v 0.461079 0.019519 -0.110000
v 0.455292 0.016086 -0.098877
v 0.442777 0.012567 -0.098877
v 0.436049 0.012481 -0.110000
v 0.349447 0.320481 -0.060000
v 0.356175 0.320567 -0.048877
v 0.368689 0.324086 -0.048877
v 0.374476 0.327519 -0.060000
v 0.367748 0.327433 -0.071123
v 0.355234 0.323914 -0.071123
v 0.149436 0.000000 -0.088000
v 0.149436 0.000000 -0.132000
v 0.193436 0.000000 -0.132000
v 0.193436 0.000000 -0.088000
v 0.149436 0.014000 -0.088000
v 0.193436 0.014000 -0.088000
v 0.193436 0.014000 -0.132000
v 0.149436 0.014000 -0.132000
v 0.165649 0.019433 -0.121123
v 0.178164 0.015914 -0.121123
v 0.183951 0.012481 -0.110000
v 0.177223 0.012567 -0.098877
v 0.164708 0.016086 -0.098877
v 0.158921 0.019519 -0.110000
v 0.245524 0.327519 -0.060000
v 0.251311 0.324086 -0.048877
v 0.263825 0.320567 -0.048877
v 0.270553 0.320481 -0.060000
v 0.264766 0.323914 -0.071123
v 0.252252 0.327433 -0.071123
v 0.288000 0.000000 0.152000
v 0.288000 0.000000 0.108000
v 0.332000 0.000000 0.108000
v 0.332000 0.000000 0.152000
v 0.288000 0.014000 0.152000
v 0.332000 0.014000 0.152000
v 0.332000 0.014000 0.108000
v 0.288000 0.014000 0.108000
v 0.303500 0.012523 0.119292
v 0.316500 0.012523 0.119292
v 0.323000 0.016000 0.130000
v 0.316500 0.019477 0.140708
v 0.303500 0.019477 0.140708
v 0.297000 0.016000 0.130000
v 0.297000 0.324000 0.030000
v 0.303500 0.327477 0.040708
v 0.316500 0.327477 0.040708
v 0.323000 0.324000 0.030000
v 0.316500 0.320523 0.019292
v 0.303500 0.320523 0.019292
v 0.485537 0.312000 0.042710
v 0.444350 0.312000 0.104350
v 0.382710 0.312000 0.145537
v 0.310000 0.312000 0.160000
v 0.237290 0.312000 0.145537
v 0.175650 0.312000 0.104350
v 0.134463 0.312000 0.042710
v 0.120000 0.312000 -0.030000
v 0.134463 0.312000 -0.102710
v 0.175650 0.312000 -0.164350
v 0.237290 0.312000 -0.205537
v 0.310000 0.312000 -0.220000
v 0.382710 0.312000 -0.205537
v 0.444350 0.312000 -0.164350
v 0.485537 0.312000 -0.102710
v 0.500000 0.312000 -0.030000
v 0.485537 0.334000 -0.102710
v 0.500000 0.334000 -0.030000
v 0.444350 0.334000 -0.164350
v 0.382710 0.334000 -0.205537
v 0.310000 0.334000 -0.220000
v 0.237290 0.334000 -0.205537
v 0.175650 0.334000 -0.164350
v 0.134463 0.334000 -0.102710
v 0.120000 0.334000 -0.030000
v 0.134463 0.334000 0.042710
v 0.175650 0.334000 0.104350
v 0.237290 0.334000 0.145537
v 0.310000 0.334000 0.160000
v 0.382710 0.334000 0.145537
v 0.444350 0.334000 0.104350
v 0.485537 0.334000 0.042710
v 0.494000 0.340000 -0.030000
v 0.479994 0.340000 -0.100414
v 0.440108 0.340000 -0.160108
v 0.380414 0.340000 -0.199994
v 0.310000 0.340000 -0.214000
v 0.239586 0.340000 -0.199994
v 0.179892 0.340000 -0.160108
v 0.140006 0.340000 -0.100414
v 0.126000 0.340000 -0.030000
v 0.140006 0.340000 0.040414
v 0.179892 0.340000 0.100108
v 0.239586 0.340000 0.139994
v 0.310000 0.340000 0.154000
v 0.380414 0.340000 0.139994
v 0.440108 0.340000 0.100108
v 0.479994 0.340000 0.040414
vn -0.0000 -1.0000 -0.0000
vn -0.0000 1.0000 -0.0000
vn -0.0000 -0.0000 1.0000
vn -0.0000 -0.0000 -1.0000
vn -1.0000 -0.0000 -0.0000
vn 1.0000 -0.0000 -0.0000
vn -0.0000 -0.9395 -0.3425
vn -0.0000 0.9395 0.3425
vn -0.8660 -0.1713 0.4698
vn -0.0000 -0.3425 0.9395
vn 0.8660 -0.1713 0.4698
vn 0.8660 0.1713 -0.4698
vn -0.0000 0.3425 -0.9395
vn -0.8660 0.1713 -0.4698
vn -0.2966 -0.9395 0.1713
vn 0.2966 0.9395 -0.1713
vn -0.8001 0.3424 0.4926
vn 0.0516 0.1633 0.9852
vn 0.8516 -0.1791 0.4926
vn 0.8001 -0.3424 -0.4926
vn -0.0516 -0.1633 -0.9852
vn -0.8516 0.1791 -0.4926
vn 0.2966 -0.9395 0.1713
vn -0.2966 0.9395 -0.1713
vn -0.8516 -0.1791 0.4926
vn -0.0516 0.1633 0.9852
vn 0.8001 0.3424 0.4926
vn 0.8516 0.1791 -0.4926
vn 0.0516 -0.1633 -0.9852
vn -0.8001 -0.3424 -0.4926
vn 0.9808 -0.0000 -0.1951
vn 0.8315 -0.0000 -0.5556
vn 0.5556 -0.0000 -0.8315
vn 0.1951 -0.0000 -0.9808
vn -0.1951 -0.0000 -0.9808
vn -0.5556 -0.0000 -0.8315
vn -0.8315 -0.0000 -0.5556
vn -0.9808 -0.0000 -0.1951
vn -0.9808 -0.0000 0.1951
vn -0.8315 -0.0000 0.5556
vn -0.5556 -0.0000 0.8315
vn -0.1951 -0.0000 0.9808
vn 0.1951 -0.0000 0.9808
vn 0.5556 -0.0000 0.8315
vn 0.8315 -0.0000 0.5556
vn 0.9808 -0.0000 0.1951
vn 0.7002 0.7002 -0.1393
vn 0.5936 0.7002 -0.3966
vn 0.3966 0.7002 -0.5936
vn 0.1393 0.7002 -0.7002
vn -0.1393 0.7002 -0.7002
vn -0.3966 0.7002 -0.5936
vn -0.5936 0.7002 -0.3966
vn -0.7002 0.7002 -0.1393
vn -0.7002 0.7002 0.1393
vn -0.5936 0.7002 0.3966
vn -0.3966 0.7002 0.5936
vn -0.1393 0.7002 0.7002
vn 0.1393 0.7002 0.7002
vn 0.3966 0.7002 0.5936
vn 0.5936 0.7002 0.3966
vn 0.7002 0.7002 0.1393
vn 0.2674 -0.9511 -0.1544
vn -0.2674 0.9511 0.1544
vn -0.8128 -0.3087 0.4940
vn 0.0418 -0.1486 0.9880
vn 0.8546 0.1601 0.4940
vn 0.8128 0.3087 -0.4940
vn -0.0418 0.1486 -0.9880
vn -0.8546 -0.1601 -0.4940
vn -0.2674 -0.9511 -0.1544
vn 0.2674 0.9511 0.1544
vn -0.8546 0.1601 0.4940
vn -0.0418 -0.1486 0.9880
vn 0.8128 -0.3087 0.4940
vn 0.8546 -0.1601 -0.4940
vn 0.0418 0.1486 -0.9880
vn -0.8128 0.3087 -0.4940
vn -0.0000 -0.9511 0.3088
vn -0.0000 0.9511 -0.3088
vn -0.8660 0.1544 0.4756
vn -0.0000 0.3088 0.9511
vn 0.8660 0.1544 0.4756
vn 0.8660 -0.1544 -0.4756
vn -0.0000 -0.3088 -0.9511
vn -0.8660 -0.1544 -0.4756
vt 0.437500 0.312500
vt 0.687500 0.937500
s 0
usemtl FN_Atlas
f 1/1/1 2/1/1 3/1/1 4/1/1
f 5/1/2 6/1/2 7/1/2 8/1/2
f 1/1/3 4/1/3 6/1/3 5/1/3
f 3/1/4 2/1/4 8/1/4 7/1/4
f 1/1/5 5/1/5 8/1/5 2/1/5
f 4/1/6 3/1/6 7/1/6 6/1/6
f 9/1/7 10/1/7 11/1/7 12/1/7 13/1/7 14/1/7
f 15/1/8 16/1/8 17/1/8 18/1/8 19/1/8 20/1/8
f 14/1/9 13/1/9 16/1/9 15/1/9
f 13/1/10 12/1/10 17/1/10 16/1/10
f 12/1/11 11/1/11 18/1/11 17/1/11
f 11/1/12 10/1/12 19/1/12 18/1/12
f 10/1/13 9/1/13 20/1/13 19/1/13
f 9/1/14 14/1/14 15/1/14 20/1/14
f 21/1/1 22/1/1 23/1/1 24/1/1
f 25/1/2 26/1/2 27/1/2 28/1/2
f 21/1/3 24/1/3 26/1/3 25/1/3
f 23/1/4 22/1/4 28/1/4 27/1/4
f 21/1/5 25/1/5 28/1/5 22/1/5
f 24/1/6 23/1/6 27/1/6 26/1/6
f 29/1/15 30/1/15 31/1/15 32/1/15 33/1/15 34/1/15
f 35/1/16 36/1/16 37/1/16 38/1/16 39/1/16 40/1/16
f 34/1/17 33/1/17 36/1/17 35/1/17
f 33/1/18 32/1/18 37/1/18 36/1/18
f 32/1/19 31/1/19 38/1/19 37/1/19
f 31/1/20 30/1/20 39/1/20 38/1/20
f 30/1/21 29/1/21 40/1/21 39/1/21
f 29/1/22 34/1/22 35/1/22 40/1/22
f 41/1/1 42/1/1 43/1/1 44/1/1
f 45/1/2 46/1/2 47/1/2 48/1/2
f 41/1/3 44/1/3 46/1/3 45/1/3
f 43/1/4 42/1/4 48/1/4 47/1/4
f 41/1/5 45/1/5 48/1/5 42/1/5
f 44/1/6 43/1/6 47/1/6 46/1/6
f 49/1/23 50/1/23 51/1/23 52/1/23 53/1/23 54/1/23
f 55/1/24 56/1/24 57/1/24 58/1/24 59/1/24 60/1/24
f 54/1/25 53/1/25 56/1/25 55/1/25
f 53/1/26 52/1/26 57/1/26 56/1/26
f 52/1/27 51/1/27 58/1/27 57/1/27
f 51/1/28 50/1/28 59/1/28 58/1/28
f 50/1/29 49/1/29 60/1/29 59/1/29
f 49/1/30 54/1/30 55/1/30 60/1/30
f 61/2/1 62/2/1 63/2/1 64/2/1 65/2/1 66/2/1 67/2/1 68/2/1 69/2/1 70/2/1 71/2/1 72/2/1 73/2/1 74/2/1 75/2/1 76/2/1
f 76/2/31 75/2/31 77/2/31 78/2/31
f 75/2/32 74/2/32 79/2/32 77/2/32
f 74/2/33 73/2/33 80/2/33 79/2/33
f 73/2/34 72/2/34 81/2/34 80/2/34
f 72/2/35 71/2/35 82/2/35 81/2/35
f 71/2/36 70/2/36 83/2/36 82/2/36
f 70/2/37 69/2/37 84/2/37 83/2/37
f 69/2/38 68/2/38 85/2/38 84/2/38
f 68/2/39 67/2/39 86/2/39 85/2/39
f 67/2/40 66/2/40 87/2/40 86/2/40
f 66/2/41 65/2/41 88/2/41 87/2/41
f 65/2/42 64/2/42 89/2/42 88/2/42
f 64/2/43 63/2/43 90/2/43 89/2/43
f 63/2/44 62/2/44 91/2/44 90/2/44
f 62/2/45 61/2/45 92/2/45 91/2/45
f 61/2/46 76/2/46 78/2/46 92/2/46
f 93/2/2 94/2/2 95/2/2 96/2/2 97/2/2 98/2/2 99/2/2 100/2/2 101/2/2 102/2/2 103/2/2 104/2/2 105/2/2 106/2/2 107/2/2 108/2/2
f 78/2/47 77/2/47 94/2/47 93/2/47
f 77/2/48 79/2/48 95/2/48 94/2/48
f 79/2/49 80/2/49 96/2/49 95/2/49
f 80/2/50 81/2/50 97/2/50 96/2/50
f 81/2/51 82/2/51 98/2/51 97/2/51
f 82/2/52 83/2/52 99/2/52 98/2/52
f 83/2/53 84/2/53 100/2/53 99/2/53
f 84/2/54 85/2/54 101/2/54 100/2/54
f 85/2/55 86/2/55 102/2/55 101/2/55
f 86/2/56 87/2/56 103/2/56 102/2/56
f 87/2/57 88/2/57 104/2/57 103/2/57
f 88/2/58 89/2/58 105/2/58 104/2/58
f 89/2/59 90/2/59 106/2/59 105/2/59
f 90/2/60 91/2/60 107/2/60 106/2/60
f 91/2/61 92/2/61 108/2/61 107/2/61
f 92/2/62 78/2/62 93/2/62 108/2/62
f 109/1/1 110/1/1 111/1/1 112/1/1
f 113/1/2 114/1/2 115/1/2 116/1/2
f 109/1/3 112/1/3 114/1/3 113/1/3
f 111/1/4 110/1/4 116/1/4 115/1/4
f 109/1/5 113/1/5 116/1/5 110/1/5
f 112/1/6 111/1/6 115/1/6 114/1/6
f 117/1/63 118/1/63 119/1/63 120/1/63 121/1/63 122/1/63
f 123/1/64 124/1/64 125/1/64 126/1/64 127/1/64 128/1/64
f 122/1/65 121/1/65 124/1/65 123/1/65
f 121/1/66 120/1/66 125/1/66 124/1/66
f 120/1/67 119/1/67 126/1/67 125/1/67
f 119/1/68 118/1/68 127/1/68 126/1/68
f 118/1/69 117/1/69 128/1/69 127/1/69
f 117/1/70 122/1/70 123/1/70 128/1/70
f 129/1/1 130/1/1 131/1/1 132/1/1
f 133/1/2 134/1/2 135/1/2 136/1/2
f 129/1/3 132/1/3 134/1/3 133/1/3
f 131/1/4 130/1/4 136/1/4 135/1/4
f 129/1/5 133/1/5 136/1/5 130/1/5
f 132/1/6 131/1/6 135/1/6 134/1/6
f 137/1/71 138/1/71 139/1/71 140/1/71 141/1/71 142/1/71
f 143/1/72 144/1/72 145/1/72 146/1/72 147/1/72 148/1/72
f 142/1/73 141/1/73 144/1/73 143/1/73
f 141/1/74 140/1/74 145/1/74 144/1/74
f 140/1/75 139/1/75 146/1/75 145/1/75
f 139/1/76 138/1/76 147/1/76 146/1/76
f 138/1/77 137/1/77 148/1/77 147/1/77
f 137/1/78 142/1/78 143/1/78 148/1/78
f 149/1/1 150/1/1 151/1/1 152/1/1
f 153/1/2 154/1/2 155/1/2 156/1/2
f 149/1/3 152/1/3 154/1/3 153/1/3
f 151/1/4 150/1/4 156/1/4 155/1/4
f 149/1/5 153/1/5 156/1/5 150/1/5
f 152/1/6 151/1/6 155/1/6 154/1/6
f 157/1/79 158/1/79 159/1/79 160/1/79 161/1/79 162/1/79
f 163/1/80 164/1/80 165/1/80 166/1/80 167/1/80 168/1/80
f 162/1/81 161/1/81 164/1/81 163/1/81
f 161/1/82 160/1/82 165/1/82 164/1/82
f 160/1/83 159/1/83 166/1/83 165/1/83
f 159/1/84 158/1/84 167/1/84 166/1/84
f 158/1/85 157/1/85 168/1/85 167/1/85
f 157/1/86 162/1/86 163/1/86 168/1/86
f 169/2/1 170/2/1 171/2/1 172/2/1 173/2/1 174/2/1 175/2/1 176/2/1 177/2/1 178/2/1 179/2/1 180/2/1 181/2/1 182/2/1 183/2/1 184/2/1
f 184/2/31 183/2/31 185/2/31 186/2/31
f 183/2/32 182/2/32 187/2/32 185/2/32
f 182/2/33 181/2/33 188/2/33 187/2/33
f 181/2/34 180/2/34 189/2/34 188/2/34
f 180/2/35 179/2/35 190/2/35 189/2/35
f 179/2/36 178/2/36 191/2/36 190/2/36
f 178/2/37 177/2/37 192/2/37 191/2/37
f 177/2/38 176/2/38 193/2/38 192/2/38
f 176/2/39 175/2/39 194/2/39 193/2/39
f 175/2/40 174/2/40 195/2/40 194/2/40
f 174/2/41 173/2/41 196/2/41 195/2/41
f 173/2/42 172/2/42 197/2/42 196/2/42
f 172/2/43 171/2/43 198/2/43 197/2/43
f 171/2/44 170/2/44 199/2/44 198/2/44
f 170/2/45 169/2/45 200/2/45 199/2/45
f 169/2/46 184/2/46 186/2/46 200/2/46
f 201/2/2 202/2/2 203/2/2 204/2/2 205/2/2 206/2/2 207/2/2 208/2/2 209/2/2 210/2/2 211/2/2 212/2/2 213/2/2 214/2/2 215/2/2 216/2/2
f 186/2/47 185/2/47 202/2/47 201/2/47
f 185/2/48 187/2/48 203/2/48 202/2/48
f 187/2/49 188/2/49 204/2/49 203/2/49
f 188/2/50 189/2/50 205/2/50 204/2/50
f 189/2/51 190/2/51 206/2/51 205/2/51
f 190/2/52 191/2/52 207/2/52 206/2/52
f 191/2/53 192/2/53 208/2/53 207/2/53
f 192/2/54 193/2/54 209/2/54 208/2/54
f 193/2/55 194/2/55 210/2/55 209/2/55
f 194/2/56 195/2/56 211/2/56 210/2/56
f 195/2/57 196/2/57 212/2/57 211/2/57
f 196/2/58 197/2/58 213/2/58 212/2/58
f 197/2/59 198/2/59 214/2/59 213/2/59
f 198/2/60 199/2/60 215/2/60 214/2/60
f 199/2/61 200/2/61 216/2/61 215/2/61
f 200/2/62 186/2/62 201/2/62 216/2/62
