# Blender 5.2.0 LTS
# www.blender.org
mtllib FN_TV_Flatscreen.mtl
o FN_TV_Flatscreen
v -0.158161 0.000000 0.107393
v -0.191298 0.000000 0.093667
v -0.205023 0.000000 0.060531
v -0.205023 0.000000 -0.060531
v -0.191298 0.000000 -0.093667
v -0.158161 0.000000 -0.107393
v 0.158161 0.000000 -0.107393
v 0.191298 0.000000 -0.093667
v 0.205023 0.000000 -0.060531
v 0.205023 0.000000 0.060531
v 0.191298 0.000000 0.093667
v 0.158161 0.000000 0.107393
v 0.195941 0.005000 0.095941
v 0.162000 0.005000 0.110000
v 0.210000 0.005000 0.062000
v 0.210000 0.005000 -0.062000
v 0.195941 0.005000 -0.095941
v 0.162000 0.005000 -0.110000
v -0.162000 0.005000 -0.110000
v -0.195941 0.005000 -0.095941
v -0.210000 0.005000 -0.062000
v -0.210000 0.005000 0.062000
v -0.195941 0.005000 0.095941
v -0.162000 0.005000 0.110000
v 0.195941 0.015000 0.095941
v 0.162000 0.015000 0.110000
v 0.210000 0.015000 0.062000
v 0.210000 0.015000 -0.062000
v 0.195941 0.015000 -0.095941
v 0.162000 0.015000 -0.110000
v -0.162000 0.015000 -0.110000
v -0.195941 0.015000 -0.095941
v -0.210000 0.015000 -0.062000
v -0.210000 0.015000 0.062000
v -0.195941 0.015000 0.095941
v -0.162000 0.015000 0.110000
v 0.158161 0.020000 0.107393
v 0.191298 0.020000 0.093667
v 0.205023 0.020000 0.060531
v 0.205023 0.020000 -0.060531
v 0.191298 0.020000 -0.093667
v 0.158161 0.020000 -0.107393
v -0.158161 0.020000 -0.107393
v -0.191298 0.020000 -0.093667
v -0.205023 0.020000 -0.060531
v -0.205023 0.020000 0.060531
v -0.191298 0.020000 0.093667
v -0.158161 0.020000 0.107393
v -0.075000 0.018000 -0.041000
v 0.075000 0.018000 -0.041000
v 0.075000 0.018000 0.045000
v -0.075000 0.018000 0.045000
v -0.058000 0.098000 0.038000
v 0.058000 0.098000 0.038000
v 0.058000 0.098000 -0.018000
v -0.058000 0.098000 -0.018000
v -0.600000 0.072000 -0.025000
v 0.600000 0.072000 -0.025000
v 0.600000 0.072000 0.040000
v -0.600000 0.072000 0.040000
v -0.600000 0.760000 0.040000
v 0.600000 0.760000 0.040000
v 0.600000 0.760000 0.010000
v -0.600000 0.760000 0.010000
v -0.586000 0.086000 0.043000
v -0.586000 0.086000 0.040000
v 0.586000 0.086000 0.040000
v 0.586000 0.086000 0.043000
v -0.586000 0.746000 0.043000
v 0.586000 0.746000 0.043000
v 0.586000 0.746000 0.040000
v -0.586000 0.746000 0.040000
v -0.016000 0.076000 0.042000
v -0.016000 0.076000 0.039000
v 0.016000 0.076000 0.039000
v 0.016000 0.076000 0.042000
v -0.016000 0.081000 0.042000
v 0.016000 0.081000 0.042000
v 0.016000 0.081000 0.039000
v -0.016000 0.081000 0.039000
vn -0.0000 -1.0000 -0.0000
vn 0.3024 -0.6128 0.7301
vn 0.6429 -0.7182 0.2663
vn 0.7088 -0.7055 -0.0000
vn 0.6429 -0.7182 -0.2663
vn 0.3024 -0.6128 -0.7301
vn -0.0000 -0.4623 -0.8867
vn -0.3024 -0.6128 -0.7301
vn -0.6429 -0.7182 -0.2663
vn -0.7088 -0.7055 -0.0000
vn -0.6429 -0.7182 0.2663
vn -0.3024 -0.6128 0.7301
vn -0.0000 -0.4623 0.8867
vn 0.3827 -0.0000 0.9239
vn 0.9239 -0.0000 0.3827
vn 1.0000 -0.0000 -0.0000
vn 0.9239 -0.0000 -0.3827
vn 0.3827 -0.0000 -0.9239
vn -0.0000 -0.0000 -1.0000
vn -0.3827 -0.0000 -0.9239
vn -0.9239 -0.0000 -0.3827
vn -1.0000 -0.0000 -0.0000
vn -0.9239 -0.0000 0.3827
vn -0.3827 -0.0000 0.9239
vn -0.0000 -0.0000 1.0000
vn -0.0000 1.0000 -0.0000
vn 0.3024 0.6128 0.7301
vn 0.6429 0.7182 0.2663
vn 0.7088 0.7055 -0.0000
vn 0.6429 0.7182 -0.2663
vn 0.3024 0.6128 -0.7301
vn -0.0000 0.4623 -0.8867
vn -0.3024 0.6128 -0.7301
vn -0.6429 0.7182 -0.2663
vn -0.7088 0.7055 -0.0000
vn -0.6429 0.7182 0.2663
vn -0.3024 0.6128 0.7301
vn -0.0000 0.4623 0.8867
vn -0.0000 0.0872 0.9962
vn 0.9782 0.2079 -0.0000
vn -0.0000 0.2763 -0.9611
vn -0.9782 0.2079 -0.0000
vn -0.0000 0.0508 -0.9987
vt 0.937500 0.312500
vt 0.812500 0.312500
vt 0.937500 0.062500
vt 0.812500 0.062500
s 0
usemtl FN_Atlas
f 1/1/1 2/1/1 3/1/1 4/1/1 5/1/1 6/1/1 7/1/1 8/1/1 9/1/1 10/1/1 11/1/1 12/1/1
f 12/1/2 11/1/2 13/1/2 14/1/2
f 11/1/3 10/1/3 15/1/3 13/1/3
f 10/1/4 9/1/4 16/1/4 15/1/4
f 9/1/5 8/1/5 17/1/5 16/1/5
f 8/1/6 7/1/6 18/1/6 17/1/6
f 7/1/7 6/1/7 19/1/7 18/1/7
f 6/1/8 5/1/8 20/1/8 19/1/8
f 5/1/9 4/1/9 21/1/9 20/1/9
f 4/1/10 3/1/10 22/1/10 21/1/10
f 3/1/11 2/1/11 23/1/11 22/1/11
f 2/1/12 1/1/12 24/1/12 23/1/12
f 1/1/13 12/1/13 14/1/13 24/1/13
f 14/1/14 13/1/14 25/1/14 26/1/14
f 13/1/15 15/1/15 27/1/15 25/1/15
f 15/1/16 16/1/16 28/1/16 27/1/16
f 16/1/17 17/1/17 29/1/17 28/1/17
f 17/1/18 18/1/18 30/1/18 29/1/18
f 18/1/19 19/1/19 31/1/19 30/1/19
f 19/1/20 20/1/20 32/1/20 31/1/20
f 20/1/21 21/1/21 33/1/21 32/1/21
f 21/1/22 22/1/22 34/1/22 33/1/22
f 22/1/23 23/1/23 35/1/23 34/1/23
f 23/1/24 24/1/24 36/1/24 35/1/24
f 24/1/25 14/1/25 26/1/25 36/1/25
f 37/1/26 38/1/26 39/1/26 40/1/26 41/1/26 42/1/26 43/1/26 44/1/26 45/1/26 46/1/26 47/1/26 48/1/26
f 26/1/27 25/1/27 38/1/27 37/1/27
f 25/1/28 27/1/28 39/1/28 38/1/28
f 27/1/29 28/1/29 40/1/29 39/1/29
f 28/1/30 29/1/30 41/1/30 40/1/30
f 29/1/31 30/1/31 42/1/31 41/1/31
f 30/1/32 31/1/32 43/1/32 42/1/32
f 31/1/33 32/1/33 44/1/33 43/1/33
f 32/1/34 33/1/34 45/1/34 44/1/34
f 33/1/35 34/1/35 46/1/35 45/1/35
f 34/1/36 35/1/36 47/1/36 46/1/36
f 35/1/37 36/1/37 48/1/37 47/1/37
f 36/1/38 26/1/38 37/1/38 48/1/38
f 49/1/1 50/1/1 51/1/1 52/1/1
f 53/1/26 54/1/26 55/1/26 56/1/26
f 52/1/39 51/1/39 54/1/39 53/1/39
f 51/1/40 50/1/40 55/1/40 54/1/40
f 50/1/41 49/1/41 56/1/41 55/1/41
f 49/1/42 52/1/42 53/1/42 56/1/42
f 57/2/1 58/2/1 59/2/1 60/2/1
f 61/2/26 62/2/26 63/2/26 64/2/26
f 60/2/25 59/2/25 62/2/25 61/2/25
f 59/2/16 58/2/16 63/2/16 62/2/16
f 58/2/43 57/2/43 64/2/43 63/2/43
f 57/2/22 60/2/22 61/2/22 64/2/22
usemtl FN_Glow
f 65/3/1 66/3/1 67/3/1 68/3/1
f 69/3/26 70/3/26 71/3/26 72/3/26
f 65/3/25 68/3/25 70/3/25 69/3/25
f 67/3/19 66/3/19 72/3/19 71/3/19
f 65/3/22 69/3/22 72/3/22 66/3/22
f 68/3/16 67/3/16 71/3/16 70/3/16
f 73/4/1 74/4/1 75/4/1 76/4/1
f 77/4/26 78/4/26 79/4/26 80/4/26
f 73/4/25 76/4/25 78/4/25 77/4/25
f 75/4/19 74/4/19 80/4/19 79/4/19
f 73/4/22 77/4/22 80/4/22 74/4/22
f 76/4/16 75/4/16 79/4/16 78/4/16
