# Blender 5.2.0 LTS
# www.blender.org
mtllib FN_Table_Side_Drum.mtl
o FN_Table_Side_Drum
v 0.175537 0.000000 0.072710
v 0.134350 0.000000 0.134350
v 0.072710 0.000000 0.175537
v -0.000000 0.000000 0.190000
v -0.072710 0.000000 0.175537
v -0.134350 0.000000 0.134350
v -0.175537 0.000000 0.072710
v -0.190000 0.000000 -0.000000
v -0.175537 0.000000 -0.072710
v -0.134350 0.000000 -0.134350
v -0.072710 0.000000 -0.175537
v 0.000000 0.000000 -0.190000
v 0.072710 0.000000 -0.175537
v 0.134350 0.000000 -0.134350
v 0.175537 0.000000 -0.072710
v 0.190000 0.000000 0.000000
v 0.175537 0.080000 -0.072710
v 0.190000 0.080000 0.000000
v 0.134350 0.080000 -0.134350
v 0.072710 0.080000 -0.175537
v 0.000000 0.080000 -0.190000
v -0.072710 0.080000 -0.175537
v -0.134350 0.080000 -0.134350
v -0.175537 0.080000 -0.072710
v -0.190000 0.080000 -0.000000
v -0.175537 0.080000 0.072710
v -0.134350 0.080000 0.134350
v -0.072710 0.080000 0.175537
v -0.000000 0.080000 0.190000
v 0.072710 0.080000 0.175537
v 0.134350 0.080000 0.134350
v 0.175537 0.080000 0.072710
v 0.200000 0.068000 0.000000
v 0.210572 0.068000 -0.056423
v 0.210572 0.526000 -0.056423
v 0.200000 0.526000 0.000000
v 0.173205 0.068000 -0.100000
v 0.173205 0.526000 -0.100000
v 0.154149 0.068000 -0.154149
v 0.154149 0.526000 -0.154149
v 0.100000 0.068000 -0.173205
v 0.100000 0.526000 -0.173205
v 0.056423 0.068000 -0.210572
v 0.056423 0.526000 -0.210572
v 0.000000 0.068000 -0.200000
v 0.000000 0.526000 -0.200000
v -0.056423 0.068000 -0.210572
v -0.056423 0.526000 -0.210572
v -0.100000 0.068000 -0.173205
v -0.100000 0.526000 -0.173205
v -0.154149 0.068000 -0.154149
v -0.154149 0.526000 -0.154149
v -0.173205 0.068000 -0.100000
v -0.173205 0.526000 -0.100000
v -0.210572 0.068000 -0.056423
v -0.210572 0.526000 -0.056423
v -0.200000 0.068000 -0.000000
v -0.200000 0.526000 -0.000000
v -0.210572 0.068000 0.056423
v -0.210572 0.526000 0.056423
v -0.173205 0.068000 0.100000
v -0.173205 0.526000 0.100000
v -0.154149 0.068000 0.154149
v -0.154149 0.526000 0.154149
v -0.100000 0.068000 0.173205
v -0.100000 0.526000 0.173205
v -0.056423 0.068000 0.210572
v -0.056423 0.526000 0.210572
v -0.000000 0.068000 0.200000
v -0.000000 0.526000 0.200000
v 0.056423 0.068000 0.210572
v 0.056423 0.526000 0.210572
v 0.100000 0.068000 0.173205
v 0.100000 0.526000 0.173205
v 0.154149 0.068000 0.154149
v 0.154149 0.526000 0.154149
v 0.173205 0.068000 0.100000
v 0.173205 0.526000 0.100000
v 0.210572 0.068000 0.056423
v 0.210572 0.526000 0.056423
v 0.212492 0.518000 0.088017
v 0.162635 0.518000 0.162635
v 0.088017 0.518000 0.212492
v -0.000000 0.518000 0.230000
v -0.088017 0.518000 0.212492
v -0.162635 0.518000 0.162635
v -0.212492 0.518000 0.088017
v -0.230000 0.518000 -0.000000
v -0.212492 0.518000 -0.088017
v -0.162635 0.518000 -0.162635
v -0.088017 0.518000 -0.212492
v 0.000000 0.518000 -0.230000
v 0.088017 0.518000 -0.212492
v 0.162635 0.518000 -0.162635
v 0.212492 0.518000 -0.088017
v 0.230000 0.518000 0.000000
v 0.212492 0.544000 -0.088017
v 0.230000 0.544000 0.000000
v 0.162635 0.544000 -0.162635
v 0.088017 0.544000 -0.212492
v 0.000000 0.544000 -0.230000
v -0.088017 0.544000 -0.212492
v -0.162635 0.544000 -0.162635
v -0.212492 0.544000 -0.088017
v -0.230000 0.544000 -0.000000
v -0.212492 0.544000 0.088017
v -0.162635 0.544000 0.162635
v -0.088017 0.544000 0.212492
v -0.000000 0.544000 0.230000
v 0.088017 0.544000 0.212492
v 0.162635 0.544000 0.162635
v 0.212492 0.544000 0.088017
v 0.224000 0.550000 0.000000
v 0.206949 0.550000 -0.085721
v 0.158392 0.550000 -0.158392
v 0.085721 0.550000 -0.206949
v 0.000000 0.550000 -0.224000
v -0.085721 0.550000 -0.206949
v -0.158392 0.550000 -0.158392
v -0.206949 0.550000 -0.085721
v -0.224000 0.550000 -0.000000
v -0.206949 0.550000 0.085721
v -0.158392 0.550000 0.158392
v -0.085721 0.550000 0.206949
v -0.000000 0.550000 0.224000
v 0.085721 0.550000 0.206949
v 0.158392 0.550000 0.158392
v 0.206949 0.550000 0.085721
vn -0.0000 -1.0000 -0.0000
vn 0.9808 -0.0000 -0.1951
vn 0.8315 -0.0000 -0.5556
vn 0.5556 -0.0000 -0.8315
vn 0.1951 -0.0000 -0.9808
vn -0.1951 -0.0000 -0.9808
vn -0.5556 -0.0000 -0.8315
vn -0.8315 -0.0000 -0.5556
vn -0.9808 -0.0000 -0.1951
vn -0.9808 -0.0000 0.1951
vn -0.8315 -0.0000 0.5556
vn -0.5556 -0.0000 0.8315
vn -0.1951 -0.0000 0.9808
vn 0.1951 -0.0000 0.9808
vn 0.5556 -0.0000 0.8315
vn 0.8315 -0.0000 0.5556
vn 0.9808 -0.0000 0.1951
vn 0.9829 -0.0000 0.1842
vn 0.7591 -0.0000 -0.6509
vn 0.9433 -0.0000 -0.3320
vn 0.3320 -0.0000 -0.9433
vn 0.6509 -0.0000 -0.7591
vn -0.1842 -0.0000 -0.9829
vn 0.1842 -0.0000 -0.9829
vn -0.6509 -0.0000 -0.7591
vn -0.3320 -0.0000 -0.9433
vn -0.9433 -0.0000 -0.3320
vn -0.7591 -0.0000 -0.6509
vn -0.9829 -0.0000 0.1842
vn -0.9829 -0.0000 -0.1842
vn -0.7591 -0.0000 0.6509
vn -0.9433 -0.0000 0.3320
vn -0.3320 -0.0000 0.9433
vn -0.6509 -0.0000 0.7591
vn 0.1842 -0.0000 0.9829
vn -0.1842 -0.0000 0.9829
vn 0.6509 -0.0000 0.7591
vn 0.3320 -0.0000 0.9433
vn 0.9433 -0.0000 0.3320
vn 0.7591 -0.0000 0.6509
vn 0.9829 -0.0000 -0.1842
vn -0.0000 1.0000 -0.0000
vn 0.7002 0.7002 -0.1393
vn 0.5936 0.7002 -0.3966
vn 0.3966 0.7002 -0.5936
vn 0.1393 0.7002 -0.7002
vn -0.1393 0.7002 -0.7002
vn -0.3966 0.7002 -0.5936
vn -0.5936 0.7002 -0.3966
vn -0.7002 0.7002 -0.1393
vn -0.7002 0.7002 0.1393
vn -0.5936 0.7002 0.3966
vn -0.3966 0.7002 0.5936
vn -0.1393 0.7002 0.7002
vn 0.1393 0.7002 0.7002
vn 0.3966 0.7002 0.5936
vn 0.5936 0.7002 0.3966
vn 0.7002 0.7002 0.1393
vt 0.437500 0.312500
vt 0.812500 0.937500
vt 0.437500 0.937500
s 0
usemtl FN_Atlas
f 1/1/1 2/1/1 3/1/1 4/1/1 5/1/1 6/1/1 7/1/1 8/1/1 9/1/1 10/1/1 11/1/1 12/1/1 13/1/1 14/1/1 15/1/1 16/1/1
f 16/1/2 15/1/2 17/1/2 18/1/2
f 15/1/3 14/1/3 19/1/3 17/1/3
f 14/1/4 13/1/4 20/1/4 19/1/4
f 13/1/5 12/1/5 21/1/5 20/1/5
f 12/1/6 11/1/6 22/1/6 21/1/6
f 11/1/7 10/1/7 23/1/7 22/1/7
f 10/1/8 9/1/8 24/1/8 23/1/8
f 9/1/9 8/1/9 25/1/9 24/1/9
f 8/1/10 7/1/10 26/1/10 25/1/10
f 7/1/11 6/1/11 27/1/11 26/1/11
f 6/1/12 5/1/12 28/1/12 27/1/12
f 5/1/13 4/1/13 29/1/13 28/1/13
f 4/1/14 3/1/14 30/1/14 29/1/14
f 3/1/15 2/1/15 31/1/15 30/1/15
f 2/1/16 1/1/16 32/1/16 31/1/16
f 1/1/17 16/1/17 18/1/17 32/1/17
f 33/2/18 34/2/18 35/2/18 36/2/18
f 34/2/19 37/2/19 38/2/19 35/2/19
f 37/2/20 39/2/20 40/2/20 38/2/20
f 39/2/21 41/2/21 42/2/21 40/2/21
f 41/2/22 43/2/22 44/2/22 42/2/22
f 43/2/23 45/2/23 46/2/23 44/2/23
f 45/2/24 47/2/24 48/2/24 46/2/24
f 47/2/25 49/2/25 50/2/25 48/2/25
f 49/2/26 51/2/26 52/2/26 50/2/26
f 51/2/27 53/2/27 54/2/27 52/2/27
f 53/2/28 55/2/28 56/2/28 54/2/28
f 55/2/29 57/2/29 58/2/29 56/2/29
f 57/2/30 59/2/30 60/2/30 58/2/30
f 59/2/31 61/2/31 62/2/31 60/2/31
f 61/2/32 63/2/32 64/2/32 62/2/32
f 63/2/33 65/2/33 66/2/33 64/2/33
f 65/2/34 67/2/34 68/2/34 66/2/34
f 67/2/35 69/2/35 70/2/35 68/2/35
f 69/2/36 71/2/36 72/2/36 70/2/36
f 71/2/37 73/2/37 74/2/37 72/2/37
f 73/2/38 75/2/38 76/2/38 74/2/38
f 75/2/39 77/2/39 78/2/39 76/2/39
f 77/2/40 79/2/40 80/2/40 78/2/40
f 79/2/41 33/2/41 36/2/41 80/2/41
f 81/3/1 82/3/1 83/3/1 84/3/1 85/3/1 86/3/1 87/3/1 88/3/1 89/3/1 90/3/1 91/3/1 92/3/1 93/3/1 94/3/1 95/3/1 96/3/1
f 96/3/2 95/3/2 97/3/2 98/3/2
f 95/3/3 94/3/3 99/3/3 97/3/3
f 94/3/4 93/3/4 100/3/4 99/3/4
f 93/3/5 92/3/5 101/3/5 100/3/5
f 92/3/6 91/3/6 102/3/6 101/3/6
f 91/3/7 90/3/7 103/3/7 102/3/7
f 90/3/8 89/3/8 104/3/8 103/3/8
f 89/3/9 88/3/9 105/3/9 104/3/9
f 88/3/10 87/3/10 106/3/10 105/3/10
f 87/3/11 86/3/11 107/3/11 106/3/11
f 86/3/12 85/3/12 108/3/12 107/3/12
f 85/3/13 84/3/13 109/3/13 108/3/13
f 84/3/14 83/3/14 110/3/14 109/3/14
f 83/3/15 82/3/15 111/3/15 110/3/15
f 82/3/16 81/3/16 112/3/16 111/3/16
f 81/3/17 96/3/17 98/3/17 112/3/17
f 113/3/42 114/3/42 115/3/42 116/3/42 117/3/42 118/3/42 119/3/42 120/3/42 121/3/42 122/3/42 123/3/42 124/3/42 125/3/42 126/3/42 127/3/42 128/3/42
f 98/3/43 97/3/43 114/3/43 113/3/43
f 97/3/44 99/3/44 115/3/44 114/3/44
f 99/3/45 100/3/45 116/3/45 115/3/45
f 100/3/46 101/3/46 117/3/46 116/3/46
f 101/3/47 102/3/47 118/3/47 117/3/47
f 102/3/48 103/3/48 119/3/48 118/3/48
f 103/3/49 104/3/49 120/3/49 119/3/49
f 104/3/50 105/3/50 121/3/50 120/3/50
f 105/3/51 106/3/51 122/3/51 121/3/51
f 106/3/52 107/3/52 123/3/52 122/3/52
f 107/3/53 108/3/53 124/3/53 123/3/53
f 108/3/54 109/3/54 125/3/54 124/3/54
f 109/3/55 110/3/55 126/3/55 125/3/55
f 110/3/56 111/3/56 127/3/56 126/3/56
f 111/3/57 112/3/57 128/3/57 127/3/57
f 112/3/58 98/3/58 113/3/58 128/3/58
