# Blender 5.2.0 LTS
# www.blender.org
mtllib FN_Toilet_Close.mtl
o FN_Toilet_Close
v -0.053000 0.000000 0.218500
v -0.075961 0.000000 0.213933
v -0.095426 0.000000 0.200926
v -0.108433 0.000000 0.181461
v -0.113000 0.000000 0.158500
v -0.113000 0.000000 0.002500
v -0.108433 0.000000 -0.020461
v -0.095426 0.000000 -0.039926
v -0.075961 0.000000 -0.052933
v -0.053000 0.000000 -0.057500
v 0.053000 0.000000 -0.057500
v 0.075961 0.000000 -0.052933
v 0.095426 0.000000 -0.039926
v 0.108433 0.000000 -0.020461
v 0.113000 0.000000 0.002500
v 0.113000 0.000000 0.158500
v 0.108433 0.000000 0.181461
v 0.095426 0.000000 0.200926
v 0.075961 0.000000 0.213933
v 0.053000 0.000000 0.218500
v 0.061430 0.150000 0.207237
v 0.040000 0.150000 0.211500
v 0.079598 0.150000 0.195098
v 0.091737 0.150000 0.176930
v 0.096000 0.150000 0.155500
v 0.096000 0.150000 0.017500
v 0.091737 0.150000 -0.003930
v 0.079598 0.150000 -0.022098
v 0.061430 0.150000 -0.034237
v 0.040000 0.150000 -0.038500
v -0.040000 0.150000 -0.038500
v -0.061430 0.150000 -0.034237
v -0.079598 0.150000 -0.022098
v -0.091737 0.150000 -0.003930
v -0.096000 0.150000 0.017500
v -0.096000 0.150000 0.155500
v -0.091737 0.150000 0.176930
v -0.079598 0.150000 0.195098
v -0.061430 0.150000 0.207237
v -0.040000 0.150000 0.211500
v 0.075922 0.296000 0.295366
v 0.030000 0.296000 0.304500
v 0.114853 0.296000 0.269353
v 0.140866 0.296000 0.230422
v 0.150000 0.296000 0.184500
v 0.150000 0.296000 0.024500
v 0.140866 0.296000 -0.021422
v 0.114853 0.296000 -0.060353
v 0.075922 0.296000 -0.086366
v 0.030000 0.296000 -0.095500
v -0.030000 0.296000 -0.095500
v -0.075922 0.296000 -0.086366
v -0.114853 0.296000 -0.060353
v -0.140866 0.296000 -0.021422
v -0.150000 0.296000 0.024500
v -0.150000 0.296000 0.184500
v -0.140866 0.296000 0.230422
v -0.114853 0.296000 0.269353
v -0.075922 0.296000 0.295366
v -0.030000 0.296000 0.304500
v 0.087403 0.400000 0.334082
v 0.030000 0.400000 0.345500
v 0.136066 0.400000 0.301566
v 0.168582 0.400000 0.252903
v 0.180000 0.400000 0.195500
v 0.180000 0.400000 0.025500
v 0.168582 0.400000 -0.031903
v 0.136066 0.400000 -0.080566
v 0.087403 0.400000 -0.113082
v 0.030000 0.400000 -0.124500
v -0.030000 0.400000 -0.124500
v -0.087403 0.400000 -0.113082
v -0.136066 0.400000 -0.080566
v -0.168582 0.400000 -0.031903
v -0.180000 0.400000 0.025500
v -0.180000 0.400000 0.195500
v -0.168582 0.400000 0.252903
v -0.136066 0.400000 0.301566
v -0.087403 0.400000 0.334082
v -0.030000 0.400000 0.345500
v 0.059330 0.400000 0.277279
v 0.018000 0.400000 0.285500
v 0.094368 0.400000 0.253868
v 0.117779 0.400000 0.218830
v 0.126000 0.400000 0.177500
v 0.126000 0.400000 0.059500
v 0.117779 0.400000 0.018170
v 0.094368 0.400000 -0.016868
v 0.059330 0.400000 -0.040279
v 0.018000 0.400000 -0.048500
v -0.018000 0.400000 -0.048500
v -0.059330 0.400000 -0.040279
v -0.094368 0.400000 -0.016868
v -0.117779 0.400000 0.018170
v -0.126000 0.400000 0.059500
v -0.126000 0.400000 0.177500
v -0.117779 0.400000 0.218830
v -0.094368 0.400000 0.253868
v -0.059330 0.400000 0.277279
v -0.018000 0.400000 0.285500
v 0.040553 0.286000 0.228019
v 0.013000 0.286000 0.233500
v 0.063912 0.286000 0.212412
v 0.079519 0.286000 0.189053
v 0.085000 0.286000 0.161500
v 0.085000 0.286000 0.079500
v 0.079519 0.286000 0.051947
v 0.063912 0.286000 0.028588
v 0.040553 0.286000 0.012981
v 0.013000 0.286000 0.007500
v -0.013000 0.286000 0.007500
v -0.040553 0.286000 0.012981
v -0.063912 0.286000 0.028588
v -0.079519 0.286000 0.051947
v -0.085000 0.286000 0.079500
v -0.085000 0.286000 0.161500
v -0.079519 0.286000 0.189053
v -0.063912 0.286000 0.212412
v -0.040553 0.286000 0.228019
v -0.013000 0.286000 0.233500
v 0.030000 0.400000 0.351500
v 0.089699 0.400000 0.339625
v 0.089699 0.418000 0.339625
v 0.030000 0.418000 0.351500
v 0.140309 0.400000 0.305809
v 0.140309 0.418000 0.305809
v 0.174125 0.400000 0.255199
v 0.174125 0.418000 0.255199
v 0.186000 0.400000 0.195500
v 0.186000 0.418000 0.195500
v 0.186000 0.400000 0.025500
v 0.186000 0.418000 0.025500
v 0.174125 0.400000 -0.034199
v 0.174125 0.418000 -0.034199
v 0.140309 0.400000 -0.084809
v 0.140309 0.418000 -0.084809
v 0.089699 0.400000 -0.118625
v 0.089699 0.418000 -0.118625
v 0.030000 0.400000 -0.130500
v 0.030000 0.418000 -0.130500
v -0.030000 0.400000 -0.130500
v -0.030000 0.418000 -0.130500
v -0.089699 0.400000 -0.118625
v -0.089699 0.418000 -0.118625
v -0.140309 0.400000 -0.084809
v -0.140309 0.418000 -0.084809
v -0.174125 0.400000 -0.034199
v -0.174125 0.418000 -0.034199
v -0.186000 0.400000 0.025500
v -0.186000 0.418000 0.025500
v -0.186000 0.400000 0.195500
v -0.186000 0.418000 0.195500
v -0.174125 0.400000 0.255199
v -0.174125 0.418000 0.255199
v -0.140309 0.400000 0.305809
v -0.140309 0.418000 0.305809
v -0.089699 0.400000 0.339625
v -0.089699 0.418000 0.339625
v -0.030000 0.400000 0.351500
v -0.030000 0.418000 0.351500
v 0.057799 0.418000 0.273583
v 0.018000 0.418000 0.281500
v 0.091539 0.418000 0.251039
v 0.114083 0.418000 0.217299
v 0.122000 0.418000 0.177500
v 0.122000 0.418000 0.059500
v 0.114083 0.418000 0.019701
v 0.091539 0.418000 -0.014039
v 0.057799 0.418000 -0.036583
v 0.018000 0.418000 -0.044500
v -0.018000 0.418000 -0.044500
v -0.057799 0.418000 -0.036583
v -0.091539 0.418000 -0.014039
v -0.114083 0.418000 0.019701
v -0.122000 0.418000 0.059500
v -0.122000 0.418000 0.177500
v -0.114083 0.418000 0.217299
v -0.091539 0.418000 0.251039
v -0.057799 0.418000 0.273583
v -0.018000 0.418000 0.281500
v -0.152000 0.286000 -0.055500
v -0.152000 0.286000 -0.351500
v 0.152000 0.286000 -0.351500
v 0.152000 0.286000 -0.055500
v -0.152000 0.394000 -0.055500
v 0.152000 0.394000 -0.055500
v 0.152000 0.394000 -0.351500
v -0.152000 0.394000 -0.351500
v -0.180000 0.380000 -0.171500
v -0.180000 0.380000 -0.351500
v 0.180000 0.380000 -0.351500
v 0.180000 0.380000 -0.171500
v -0.180000 0.780000 -0.171500
v 0.180000 0.780000 -0.171500
v 0.180000 0.780000 -0.351500
v -0.180000 0.780000 -0.351500
v -0.062000 0.776000 -0.219500
v -0.062000 0.776000 -0.303500
v 0.062000 0.776000 -0.303500
v 0.062000 0.776000 -0.219500
v -0.062000 0.788000 -0.219500
v 0.062000 0.788000 -0.219500
v 0.062000 0.788000 -0.303500
v -0.062000 0.788000 -0.303500
v -0.176000 0.418000 -0.145500
v 0.176000 0.418000 -0.145500
v 0.176000 0.418000 -0.099500
v -0.176000 0.418000 -0.099500
v -0.176000 0.800000 -0.137500
v 0.176000 0.800000 -0.137500
v 0.176000 0.800000 -0.175500
v -0.176000 0.800000 -0.175500
v -0.156000 0.412000 -0.103500
v -0.156000 0.412000 -0.149500
v -0.108000 0.412000 -0.149500
v -0.108000 0.412000 -0.103500
v -0.156000 0.446000 -0.103500
v -0.108000 0.446000 -0.103500
v -0.108000 0.446000 -0.149500
v -0.156000 0.446000 -0.149500
v 0.108000 0.412000 -0.103500
v 0.108000 0.412000 -0.149500
v 0.156000 0.412000 -0.149500
v 0.156000 0.412000 -0.103500
v 0.108000 0.446000 -0.103500
v 0.156000 0.446000 -0.103500
v 0.156000 0.446000 -0.149500
v 0.108000 0.446000 -0.149500
vn -0.0000 -1.0000 -0.0000
vn 0.1947 0.0626 0.9789
vn 0.5533 0.0906 0.8281
vn 0.8265 0.1087 0.5523
vn 0.9744 0.1143 0.1938
vn 0.9936 0.1126 -0.0000
vn 0.9725 0.1296 -0.1934
vn 0.8218 0.1520 -0.5491
vn 0.5488 0.1555 -0.8214
vn 0.1932 0.1398 -0.9712
vn -0.0000 0.1257 -0.9921
vn -0.1932 0.1398 -0.9712
vn -0.5488 0.1555 -0.8214
vn -0.8218 0.1520 -0.5491
vn -0.9725 0.1296 -0.1934
vn -0.9936 0.1126 -0.0000
vn -0.9744 0.1143 0.1938
vn -0.8265 0.1087 0.5523
vn -0.5533 0.0906 0.8281
vn -0.1947 0.0626 0.9789
vn -0.0000 0.0466 0.9989
vn 0.1664 -0.5216 0.8368
vn 0.4854 -0.4866 0.7264
vn 0.7486 -0.4352 0.5002
vn 0.9102 -0.3726 0.1810
vn 0.9379 -0.3469 -0.0000
vn 0.9247 -0.3332 -0.1839
vn 0.7857 -0.3273 -0.5250
vn 0.5240 -0.3320 -0.7843
vn 0.1830 -0.3466 -0.9200
vn -0.0000 -0.3637 -0.9315
vn -0.1830 -0.3466 -0.9200
vn -0.5240 -0.3320 -0.7843
vn -0.7857 -0.3273 -0.5250
vn -0.9247 -0.3332 -0.1839
vn -0.9379 -0.3469 -0.0000
vn -0.9102 -0.3726 0.1810
vn -0.7486 -0.4352 0.5002
vn -0.4854 -0.4866 0.7264
vn -0.1664 -0.5216 0.8368
vn -0.0000 -0.5372 0.8434
vn 0.1820 -0.3606 0.9148
vn 0.5209 -0.3477 0.7796
vn 0.7868 -0.3233 0.5257
vn 0.9385 -0.2905 0.1867
vn 0.9608 -0.2772 -0.0000
vn 0.9442 -0.2706 -0.1878
vn 0.8012 -0.2675 -0.5353
vn 0.5357 -0.2651 -0.8017
vn 0.1882 -0.2638 -0.9460
vn -0.0000 -0.2686 -0.9633
vn -0.1882 -0.2638 -0.9460
vn -0.5357 -0.2651 -0.8017
vn -0.8012 -0.2675 -0.5353
vn -0.9442 -0.2706 -0.1878
vn -0.9608 -0.2772 -0.0000
vn -0.9385 -0.2905 0.1867
vn -0.7868 -0.3233 0.5257
vn -0.5209 -0.3477 0.7796
vn -0.1820 -0.3606 0.9148
vn -0.0000 -0.3668 0.9303
vn -0.0000 1.0000 -0.0000
vn -0.1775 0.4148 -0.8924
vn -0.5065 0.4110 -0.7580
vn -0.7655 0.3905 -0.5115
vn -0.9168 0.3553 -0.1824
vn -0.9410 0.3384 -0.0000
vn -0.9147 0.3609 0.1819
vn -0.7600 0.4055 0.5078
vn -0.5009 0.4327 0.7496
vn -0.1752 0.4403 0.8806
vn -0.0000 0.4409 0.8976
vn 0.1752 0.4403 0.8806
vn 0.5009 0.4327 0.7496
vn 0.7600 0.4055 0.5078
vn 0.9147 0.3609 0.1819
vn 0.9410 0.3384 -0.0000
vn 0.9168 0.3553 -0.1824
vn 0.7655 0.3905 -0.5115
vn 0.5065 0.4110 -0.7580
vn 0.1775 0.4148 -0.8924
vn -0.0000 0.4150 -0.9098
vn 0.1951 -0.0000 0.9808
vn 0.5556 -0.0000 0.8315
vn 0.8315 -0.0000 0.5556
vn 0.9808 -0.0000 0.1951
vn 1.0000 -0.0000 -0.0000
vn 0.9808 -0.0000 -0.1951
vn 0.8315 -0.0000 -0.5556
vn 0.5556 -0.0000 -0.8315
vn 0.1951 -0.0000 -0.9808
vn -0.0000 -0.0000 -1.0000
vn -0.1951 -0.0000 -0.9808
vn -0.5556 -0.0000 -0.8315
vn -0.8315 -0.0000 -0.5556
vn -0.9808 -0.0000 -0.1951
vn -1.0000 -0.0000 -0.0000
vn -0.9808 -0.0000 0.1951
vn -0.8315 -0.0000 0.5556
vn -0.5556 -0.0000 0.8315
vn -0.1951 -0.0000 0.9808
vn -0.0000 -0.0000 1.0000
vn -0.0000 0.0990 0.9951
vn -0.0000 -0.0783 -0.9969
vt 0.437500 0.812500
vt 0.562500 0.812500
vt 0.937500 0.312500
s 0
usemtl FN_Atlas
f 1/1/1 2/1/1 3/1/1 4/1/1 5/1/1 6/1/1 7/1/1 8/1/1 9/1/1 10/1/1 11/1/1 12/1/1 13/1/1 14/1/1 15/1/1 16/1/1 17/1/1 18/1/1 19/1/1 20/1/1
f 20/1/2 19/1/2 21/1/2 22/1/2
f 19/1/3 18/1/3 23/1/3 21/1/3
f 18/1/4 17/1/4 24/1/4 23/1/4
f 17/1/5 16/1/5 25/1/5 24/1/5
f 16/1/6 15/1/6 26/1/6 25/1/6
f 15/1/7 14/1/7 27/1/7 26/1/7
f 14/1/8 13/1/8 28/1/8 27/1/8
f 13/1/9 12/1/9 29/1/9 28/1/9
f 12/1/10 11/1/10 30/1/10 29/1/10
f 11/1/11 10/1/11 31/1/11 30/1/11
f 10/1/12 9/1/12 32/1/12 31/1/12
f 9/1/13 8/1/13 33/1/13 32/1/13
f 8/1/14 7/1/14 34/1/14 33/1/14
f 7/1/15 6/1/15 35/1/15 34/1/15
f 6/1/16 5/1/16 36/1/16 35/1/16
f 5/1/17 4/1/17 37/1/17 36/1/17
f 4/1/18 3/1/18 38/1/18 37/1/18
f 3/1/19 2/1/19 39/1/19 38/1/19
f 2/1/20 1/1/20 40/1/20 39/1/20
f 1/1/21 20/1/21 22/1/21 40/1/21
f 22/1/22 21/1/22 41/1/22 42/1/22
f 21/1/23 23/1/23 43/1/23 41/1/23
f 23/1/24 24/1/24 44/1/24 43/1/24
f 24/1/25 25/1/25 45/1/25 44/1/25
f 25/1/26 26/1/26 46/1/26 45/1/26
f 26/1/27 27/1/27 47/1/27 46/1/27
f 27/1/28 28/1/28 48/1/28 47/1/28
f 28/1/29 29/1/29 49/1/29 48/1/29
f 29/1/30 30/1/30 50/1/30 49/1/30
f 30/1/31 31/1/31 51/1/31 50/1/31
f 31/1/32 32/1/32 52/1/32 51/1/32
f 32/1/33 33/1/33 53/1/33 52/1/33
f 33/1/34 34/1/34 54/1/34 53/1/34
f 34/1/35 35/1/35 55/1/35 54/1/35
f 35/1/36 36/1/36 56/1/36 55/1/36
f 36/1/37 37/1/37 57/1/37 56/1/37
f 37/1/38 38/1/38 58/1/38 57/1/38
f 38/1/39 39/1/39 59/1/39 58/1/39
f 39/1/40 40/1/40 60/1/40 59/1/40
f 40/1/41 22/1/41 42/1/41 60/1/41
f 42/1/42 41/1/42 61/1/42 62/1/42
f 41/1/43 43/1/43 63/1/43 61/1/43
f 43/1/44 44/1/44 64/1/44 63/1/44
f 44/1/45 45/1/45 65/1/45 64/1/45
f 45/1/46 46/1/46 66/1/46 65/1/46
f 46/1/47 47/1/47 67/1/47 66/1/47
f 47/1/48 48/1/48 68/1/48 67/1/48
f 48/1/49 49/1/49 69/1/49 68/1/49
f 49/1/50 50/1/50 70/1/50 69/1/50
f 50/1/51 51/1/51 71/1/51 70/1/51
f 51/1/52 52/1/52 72/1/52 71/1/52
f 52/1/53 53/1/53 73/1/53 72/1/53
f 53/1/54 54/1/54 74/1/54 73/1/54
f 54/1/55 55/1/55 75/1/55 74/1/55
f 55/1/56 56/1/56 76/1/56 75/1/56
f 56/1/57 57/1/57 77/1/57 76/1/57
f 57/1/58 58/1/58 78/1/58 77/1/58
f 58/1/59 59/1/59 79/1/59 78/1/59
f 59/1/60 60/1/60 80/1/60 79/1/60
f 60/1/61 42/1/61 62/1/61 80/1/61
f 62/1/62 61/1/62 81/1/62 82/1/62
f 61/1/62 63/1/62 83/1/62 81/1/62
f 63/1/62 64/1/62 84/1/62 83/1/62
f 64/1/62 65/1/62 85/1/62 84/1/62
f 65/1/62 66/1/62 86/1/62 85/1/62
f 66/1/62 67/1/62 87/1/62 86/1/62
f 67/1/62 68/1/62 88/1/62 87/1/62
f 68/1/62 69/1/62 89/1/62 88/1/62
f 69/1/62 70/1/62 90/1/62 89/1/62
f 70/1/62 71/1/62 91/1/62 90/1/62
f 71/1/62 72/1/62 92/1/62 91/1/62
f 72/1/62 73/1/62 93/1/62 92/1/62
f 73/1/62 74/1/62 94/1/62 93/1/62
f 74/1/62 75/1/62 95/1/62 94/1/62
f 75/1/62 76/1/62 96/1/62 95/1/62
f 76/1/62 77/1/62 97/1/62 96/1/62
f 77/1/62 78/1/62 98/1/62 97/1/62
f 78/1/62 79/1/62 99/1/62 98/1/62
f 79/1/62 80/1/62 100/1/62 99/1/62
f 80/1/62 62/1/62 82/1/62 100/1/62
f 82/2/63 81/2/63 101/2/63 102/2/63
f 81/2/64 83/2/64 103/2/64 101/2/64
f 83/2/65 84/2/65 104/2/65 103/2/65
f 84/2/66 85/2/66 105/2/66 104/2/66
f 85/2/67 86/2/67 106/2/67 105/2/67
f 86/2/68 87/2/68 107/2/68 106/2/68
f 87/2/69 88/2/69 108/2/69 107/2/69
f 88/2/70 89/2/70 109/2/70 108/2/70
f 89/2/71 90/2/71 110/2/71 109/2/71
f 90/2/72 91/2/72 111/2/72 110/2/72
f 91/2/73 92/2/73 112/2/73 111/2/73
f 92/2/74 93/2/74 113/2/74 112/2/74
f 93/2/75 94/2/75 114/2/75 113/2/75
f 94/2/76 95/2/76 115/2/76 114/2/76
f 95/2/77 96/2/77 116/2/77 115/2/77
f 96/2/78 97/2/78 117/2/78 116/2/78
f 97/2/79 98/2/79 118/2/79 117/2/79
f 98/2/80 99/2/80 119/2/80 118/2/80
f 99/2/81 100/2/81 120/2/81 119/2/81
f 100/2/82 82/2/82 102/2/82 120/2/82
f 102/2/62 101/2/62 103/2/62 104/2/62 105/2/62 106/2/62 107/2/62 108/2/62 109/2/62 110/2/62 111/2/62 112/2/62 113/2/62 114/2/62 115/2/62 116/2/62 117/2/62 118/2/62 119/2/62 120/2/62
f 121/1/83 122/1/83 123/1/83 124/1/83
f 122/1/84 125/1/84 126/1/84 123/1/84
f 125/1/85 127/1/85 128/1/85 126/1/85
f 127/1/86 129/1/86 130/1/86 128/1/86
f 129/1/87 131/1/87 132/1/87 130/1/87
f 131/1/88 133/1/88 134/1/88 132/1/88
f 133/1/89 135/1/89 136/1/89 134/1/89
f 135/1/90 137/1/90 138/1/90 136/1/90
f 137/1/91 139/1/91 140/1/91 138/1/91
f 139/1/92 141/1/92 142/1/92 140/1/92
f 141/1/93 143/1/93 144/1/93 142/1/93
f 143/1/94 145/1/94 146/1/94 144/1/94
f 145/1/95 147/1/95 148/1/95 146/1/95
f 147/1/96 149/1/96 150/1/96 148/1/96
f 149/1/97 151/1/97 152/1/97 150/1/97
f 151/1/98 153/1/98 154/1/98 152/1/98
f 153/1/99 155/1/99 156/1/99 154/1/99
f 155/1/100 157/1/100 158/1/100 156/1/100
f 157/1/101 159/1/101 160/1/101 158/1/101
f 159/1/102 121/1/102 124/1/102 160/1/102
f 124/1/62 123/1/62 161/1/62 162/1/62
f 123/1/62 126/1/62 163/1/62 161/1/62
f 126/1/62 128/1/62 164/1/62 163/1/62
f 128/1/62 130/1/62 165/1/62 164/1/62
f 130/1/62 132/1/62 166/1/62 165/1/62
f 132/1/62 134/1/62 167/1/62 166/1/62
f 134/1/62 136/1/62 168/1/62 167/1/62
f 136/1/62 138/1/62 169/1/62 168/1/62
f 138/1/62 140/1/62 170/1/62 169/1/62
f 140/1/62 142/1/62 171/1/62 170/1/62
f 142/1/62 144/1/62 172/1/62 171/1/62
f 144/1/62 146/1/62 173/1/62 172/1/62
f 146/1/62 148/1/62 174/1/62 173/1/62
f 148/1/62 150/1/62 175/1/62 174/1/62
f 150/1/62 152/1/62 176/1/62 175/1/62
f 152/1/62 154/1/62 177/1/62 176/1/62
f 154/1/62 156/1/62 178/1/62 177/1/62
f 156/1/62 158/1/62 179/1/62 178/1/62
f 158/1/62 160/1/62 180/1/62 179/1/62
f 160/1/62 124/1/62 162/1/62 180/1/62
f 181/1/1 182/1/1 183/1/1 184/1/1
f 185/1/62 186/1/62 187/1/62 188/1/62
f 181/1/102 184/1/102 186/1/102 185/1/102
f 183/1/92 182/1/92 188/1/92 187/1/92
f 181/1/97 185/1/97 188/1/97 182/1/97
f 184/1/87 183/1/87 187/1/87 186/1/87
f 189/1/1 190/1/1 191/1/1 192/1/1
f 193/1/62 194/1/62 195/1/62 196/1/62
f 189/1/102 192/1/102 194/1/102 193/1/102
f 191/1/92 190/1/92 196/1/92 195/1/92
f 189/1/97 193/1/97 196/1/97 190/1/97
f 192/1/87 191/1/87 195/1/87 194/1/87
f 197/3/1 198/3/1 199/3/1 200/3/1
f 201/3/62 202/3/62 203/3/62 204/3/62
f 197/3/102 200/3/102 202/3/102 201/3/102
f 199/3/92 198/3/92 204/3/92 203/3/92
f 197/3/97 201/3/97 204/3/97 198/3/97
f 200/3/87 199/3/87 203/3/87 202/3/87
f 205/1/1 206/1/1 207/1/1 208/1/1
f 209/1/62 210/1/62 211/1/62 212/1/62
f 208/1/103 207/1/103 210/1/103 209/1/103
f 207/1/87 206/1/87 211/1/87 210/1/87
f 206/1/104 205/1/104 212/1/104 211/1/104
f 205/1/97 208/1/97 209/1/97 212/1/97
f 213/3/1 214/3/1 215/3/1 216/3/1
f 217/3/62 218/3/62 219/3/62 220/3/62
f 213/3/102 216/3/102 218/3/102 217/3/102
f 215/3/92 214/3/92 220/3/92 219/3/92
f 213/3/97 217/3/97 220/3/97 214/3/97
f 216/3/87 215/3/87 219/3/87 218/3/87
f 221/3/1 222/3/1 223/3/1 224/3/1
f 225/3/62 226/3/62 227/3/62 228/3/62
f 221/3/102 224/3/102 226/3/102 225/3/102
f 223/3/92 222/3/92 228/3/92 227/3/92
f 221/3/97 225/3/97 228/3/97 222/3/97
f 224/3/87 223/3/87 227/3/87 226/3/87
