# Blender 5.2.0 LTS
# www.blender.org
mtllib FN_Vase_Stems.mtl
o FN_Vase_Stems
v 0.070752 0.000000 0.033600
v 0.033752 0.000000 0.060482
v -0.011983 0.000000 0.060482
v -0.048983 0.000000 0.033600
v -0.063115 0.000000 -0.009896
v -0.048983 0.000000 -0.053392
v -0.011983 0.000000 -0.080274
v 0.033752 0.000000 -0.080274
v 0.070752 0.000000 -0.053392
v 0.084885 0.000000 -0.009896
v 0.091786 0.030000 -0.068675
v 0.110885 0.030000 -0.009896
v 0.041786 0.030000 -0.105002
v -0.020017 0.030000 -0.105002
v -0.070017 0.030000 -0.068675
v -0.089115 0.030000 -0.009896
v -0.070017 0.030000 0.048882
v -0.020017 0.030000 0.085209
v 0.041786 0.030000 0.085209
v 0.091786 0.030000 0.048882
v 0.116057 0.140000 -0.086308
v 0.140885 0.140000 -0.009896
v 0.051057 0.140000 -0.133534
v -0.029288 0.140000 -0.133534
v -0.094288 0.140000 -0.086308
v -0.119115 0.140000 -0.009896
v -0.094288 0.140000 0.066516
v -0.029288 0.140000 0.113741
v 0.051057 0.140000 0.113741
v 0.116057 0.140000 0.066516
v 0.080460 0.240000 -0.060446
v 0.096885 0.240000 -0.009896
v 0.037460 0.240000 -0.091687
v -0.015691 0.240000 -0.091687
v -0.058691 0.240000 -0.060446
v -0.075115 0.240000 -0.009896
v -0.058691 0.240000 0.040653
v -0.015691 0.240000 0.071895
v 0.037460 0.240000 0.071895
v 0.080460 0.240000 0.040653
v 0.065898 0.300000 -0.049866
v 0.078885 0.300000 -0.009896
v 0.031898 0.300000 -0.074568
v -0.010129 0.300000 -0.074568
v -0.044129 0.300000 -0.049866
v -0.057115 0.300000 -0.009896
v -0.044129 0.300000 0.030073
v -0.010129 0.300000 0.054776
v 0.031898 0.300000 0.054776
v 0.065898 0.300000 0.030073
v 0.073988 0.320000 -0.055743
v 0.088885 0.320000 -0.009896
v 0.034988 0.320000 -0.084079
v -0.013219 0.320000 -0.084079
v -0.052219 0.320000 -0.055743
v -0.067115 0.320000 -0.009896
v -0.052219 0.320000 0.035951
v -0.013219 0.320000 0.064286
v 0.034988 0.320000 0.064286
v 0.073988 0.320000 0.035951
v 0.061044 0.320000 -0.046339
v 0.072885 0.320000 -0.009896
v 0.030044 0.320000 -0.068862
v -0.008274 0.320000 -0.068862
v -0.039274 0.320000 -0.046339
v -0.051115 0.320000 -0.009896
v -0.039274 0.320000 0.026547
v -0.008274 0.320000 0.049069
v 0.030044 0.320000 0.049069
v 0.061044 0.320000 0.026547
v 0.057808 0.150000 -0.043988
v 0.068885 0.150000 -0.009896
v 0.028808 0.150000 -0.065057
v -0.007038 0.150000 -0.065057
v -0.036038 0.150000 -0.043988
v -0.047115 0.150000 -0.009896
v -0.036038 0.150000 0.024195
v -0.007038 0.150000 0.045265
v 0.028808 0.150000 0.045265
v 0.057808 0.150000 0.024195
v 0.007206 0.159475 -0.029828
v 0.014065 0.158078 -0.029828
v 0.017744 0.158603 -0.023896
v 0.014563 0.160525 -0.017964
v 0.007704 0.161922 -0.017964
v 0.004025 0.161397 -0.023896
v 0.028159 0.331648 -0.034811
v 0.025005 0.331198 -0.039896
v 0.034038 0.330450 -0.034811
v 0.036764 0.328802 -0.039896
v 0.033611 0.328352 -0.044981
v 0.027731 0.329550 -0.044981
v 0.083613 0.561373 -0.095659
v 0.080985 0.560998 -0.099896
v 0.088512 0.560375 -0.095659
v 0.090784 0.559002 -0.099896
v 0.088156 0.558627 -0.104133
v 0.083257 0.559625 -0.104133
v 0.118613 0.701373 -0.135659
v 0.115985 0.700998 -0.139896
v 0.123512 0.700375 -0.135659
v 0.125784 0.699002 -0.139896
v 0.123156 0.698627 -0.144133
v 0.118257 0.699625 -0.144133
v 0.108385 0.672683 -0.142897
v 0.120040 0.669829 -0.142897
v 0.126540 0.671146 -0.132896
v 0.121384 0.675317 -0.122895
v 0.109729 0.678171 -0.122895
v 0.103229 0.676854 -0.132896
v 0.122276 0.771818 -0.130560
v 0.103860 0.768088 -0.158896
v 0.155301 0.763731 -0.130560
v 0.169909 0.751912 -0.158896
v 0.151493 0.748182 -0.187232
v 0.118469 0.756269 -0.187232
v 0.137565 0.830775 -0.150060
v 0.120774 0.827374 -0.175896
v 0.167676 0.823401 -0.150060
v 0.180995 0.812626 -0.175896
v 0.164204 0.809225 -0.201732
v 0.134094 0.816599 -0.201732
v 0.157729 0.874171 -0.179895
v 0.151229 0.872854 -0.189896
v 0.169384 0.871317 -0.179895
v 0.174540 0.867146 -0.189896
v 0.168040 0.865829 -0.199897
v 0.156385 0.868683 -0.199897
v -0.008724 0.160252 -0.005889
v -0.001844 0.161545 -0.005889
v 0.001764 0.161293 0.000104
v -0.001507 0.159748 0.006097
v -0.008386 0.158455 0.006097
v -0.011995 0.158707 0.000104
v -0.021919 0.328676 0.019241
v -0.025012 0.328892 0.014104
v -0.016022 0.329784 0.019241
v -0.013219 0.331108 0.014104
v -0.016312 0.331324 0.008967
v -0.022209 0.330216 0.008967
v -0.081452 0.578897 0.064384
v -0.084029 0.579077 0.060104
v -0.076538 0.579820 0.064384
v -0.074201 0.580923 0.060104
v -0.076779 0.581103 0.055823
v -0.081693 0.580180 0.055823
v -0.116452 0.738897 0.094384
v -0.119029 0.739076 0.090104
v -0.111538 0.739820 0.094384
v -0.109201 0.740923 0.090104
v -0.111779 0.741103 0.085823
v -0.116693 0.740180 0.085823
v 0.021569 0.161810 0.000211
v 0.028523 0.161015 0.000211
v 0.031839 0.159205 0.006104
v 0.028200 0.158190 0.011997
v 0.021246 0.158985 0.011997
v 0.017930 0.160795 0.006104
v 0.033766 0.329130 0.025155
v 0.030923 0.330681 0.020104
v 0.039727 0.328448 0.025155
v 0.042846 0.329319 0.020104
v 0.040004 0.330870 0.015053
v 0.034042 0.331552 0.015053
v 0.063285 0.519275 0.089313
v 0.060917 0.520568 0.085104
v 0.068253 0.518707 0.089313
v 0.070852 0.519432 0.085104
v 0.068484 0.520725 0.080895
v 0.063516 0.521293 0.080895
v 0.078285 0.649275 0.129313
v 0.075917 0.650568 0.125104
v 0.083253 0.648707 0.129313
v 0.085852 0.649432 0.125104
v 0.083484 0.650725 0.120894
v 0.078516 0.651293 0.120894
v -0.114468 0.714495 0.074935
v -0.102888 0.717642 0.074935
v -0.096536 0.717148 0.085104
v -0.101763 0.713505 0.095273
v -0.113343 0.710358 0.095273
v -0.119695 0.710852 0.085104
v -0.149363 0.795376 0.135763
v -0.167890 0.796819 0.106104
v -0.115588 0.804558 0.135763
v -0.100341 0.815181 0.106104
v -0.118868 0.816624 0.076445
v -0.152643 0.807442 0.076445
v -0.164056 0.858287 0.146221
v -0.180995 0.859606 0.119104
v -0.133176 0.866681 0.146221
v -0.119236 0.876394 0.119104
v -0.136175 0.877713 0.091987
v -0.167055 0.869319 0.091987
v -0.169343 0.916358 0.140273
v -0.175695 0.916852 0.130104
v -0.157763 0.919505 0.140273
v -0.152536 0.923148 0.130104
v -0.158888 0.923642 0.119935
v -0.170468 0.920495 0.119935
v 0.072557 0.630787 0.108476
v 0.084414 0.628942 0.108476
v 0.089742 0.624156 0.118104
v 0.083212 0.621213 0.127732
v 0.071355 0.623057 0.127732
v 0.066027 0.627845 0.118104
v 0.072927 0.697908 0.179581
v 0.058277 0.711072 0.153104
v 0.105535 0.692836 0.179581
v 0.123492 0.700928 0.153104
v 0.108842 0.714092 0.126626
v 0.076234 0.719164 0.126626
v 0.082560 0.752644 0.198174
v 0.069241 0.764611 0.174104
v 0.112203 0.748033 0.198174
v 0.128528 0.755389 0.174104
v 0.115209 0.767356 0.150033
v 0.085566 0.771967 0.150033
v 0.099355 0.803057 0.201732
v 0.094027 0.807844 0.192104
v 0.111212 0.801213 0.201732
v 0.117742 0.804156 0.192104
v 0.112414 0.808942 0.182476
v 0.100557 0.810787 0.182476
vn -0.0000 -1.0000 -0.0000
vn 0.7339 -0.6360 -0.2385
vn 0.4536 -0.6360 -0.6243
vn -0.0000 -0.6360 -0.7717
vn -0.4536 -0.6360 -0.6243
vn -0.7339 -0.6360 -0.2385
vn -0.7339 -0.6360 0.2385
vn -0.4536 -0.6360 0.6243
vn -0.0000 -0.6360 0.7717
vn 0.4536 -0.6360 0.6243
vn 0.7339 -0.6360 0.2385
vn 0.9206 -0.2511 -0.2991
vn 0.5690 -0.2511 -0.7831
vn -0.0000 -0.2511 -0.9680
vn -0.5690 -0.2511 -0.7831
vn -0.9206 -0.2511 -0.2991
vn -0.9206 -0.2511 0.2991
vn -0.5690 -0.2511 0.7831
vn -0.0000 -0.2511 0.9680
vn 0.5690 -0.2511 0.7831
vn 0.9206 -0.2511 0.2991
vn 0.8773 0.3860 -0.2851
vn 0.5422 0.3860 -0.7463
vn -0.0000 0.3860 -0.9225
vn -0.5422 0.3860 -0.7463
vn -0.8773 0.3860 -0.2851
vn -0.8773 0.3860 0.2851
vn -0.5422 0.3860 0.7463
vn -0.0000 0.3860 0.9225
vn 0.5422 0.3860 0.7463
vn 0.8773 0.3860 0.2851
vn 0.9146 0.2744 -0.2972
vn 0.5652 0.2744 -0.7780
vn -0.0000 0.2744 -0.9616
vn -0.5652 0.2744 -0.7780
vn -0.9146 0.2744 -0.2972
vn -0.9146 0.2744 0.2972
vn -0.5652 0.2744 0.7780
vn -0.0000 0.2744 0.9616
vn 0.5652 0.2744 0.7780
vn 0.9146 0.2744 0.2972
vn 0.8589 -0.4294 -0.2791
vn 0.5308 -0.4294 -0.7306
vn -0.0000 -0.4294 -0.9031
vn -0.5308 -0.4294 -0.7306
vn -0.8589 -0.4294 -0.2791
vn -0.8589 -0.4294 0.2791
vn -0.5308 -0.4294 0.7306
vn -0.0000 -0.4294 0.9031
vn 0.5308 -0.4294 0.7306
vn 0.8589 -0.4294 0.2791
vn -0.0000 1.0000 -0.0000
vn -0.9508 0.0224 0.3089
vn -0.5876 0.0224 0.8088
vn -0.0000 0.0224 0.9997
vn 0.5876 0.0224 0.8088
vn 0.9508 0.0224 0.3089
vn 0.9508 0.0224 -0.3089
vn 0.5876 0.0224 -0.8088
vn -0.0000 0.0224 -0.9997
vn -0.5876 0.0224 -0.8088
vn -0.9508 0.0224 -0.3089
vn -0.1953 -0.9589 0.2060
vn -0.8459 0.1527 0.5111
vn 0.0196 0.0964 0.9951
vn 0.8730 -0.0520 0.4849
vn 0.8467 -0.1428 -0.5125
vn -0.0176 -0.0866 -0.9961
vn -0.8712 0.0617 -0.4871
vn -0.8167 0.3237 0.4778
vn 0.0498 0.2445 0.9684
vn 0.8683 -0.0760 0.4901
vn 0.8183 -0.3170 -0.4794
vn -0.0484 -0.2377 -0.9701
vn -0.8669 0.0828 -0.4916
vn -0.8128 0.3386 0.4741
vn 0.0534 0.2620 0.9636
vn 0.8681 -0.0769 0.4903
vn 0.8128 -0.3386 -0.4741
vn -0.0534 -0.2620 -0.9636
vn -0.8681 0.0769 -0.4903
vn 0.1953 0.9589 -0.2060
vn -0.2289 -0.9347 0.2718
vn -0.8375 0.1551 0.5239
vn 0.0193 0.0790 0.9967
vn 0.8079 -0.2643 0.5267
vn 0.7410 -0.5304 -0.4118
vn -0.1115 -0.4551 -0.8834
vn -0.9015 -0.1128 -0.4177
vn -0.8020 0.3645 0.4732
vn 0.0725 0.2962 0.9524
vn 0.8832 -0.0302 0.4680
vn 0.8198 -0.2882 -0.4948
vn -0.0539 -0.2201 -0.9740
vn -0.8651 0.1062 -0.4903
vn -0.7089 0.5925 0.3827
vn 0.1276 0.5210 0.8440
vn 0.9022 0.2044 0.3799
vn 0.8402 -0.0394 -0.5409
vn 0.0078 0.0319 -0.9995
vn -0.7667 0.3472 -0.5400
vn 0.2289 0.9347 -0.2718
vn 0.1826 -0.9716 -0.1508
vn -0.8537 -0.1072 0.5096
vn 0.0143 -0.0759 0.9970
vn 0.8731 0.0370 0.4861
vn 0.8529 0.1172 -0.5087
vn -0.0161 0.0858 -0.9962
vn -0.8745 -0.0271 -0.4843
vn -0.8266 -0.2843 0.4858
vn 0.0320 -0.1701 0.9849
vn 0.8586 0.1177 0.4990
vn 0.8250 0.2906 -0.4846
vn -0.0332 0.1765 -0.9837
vn -0.8600 -0.1113 -0.4981
vn -0.8292 -0.2729 0.4878
vn 0.0333 -0.1771 0.9836
vn 0.8631 0.0958 0.4958
vn 0.8292 0.2729 -0.4878
vn -0.0333 0.1771 -0.9836
vn -0.8631 -0.0958 -0.4958
vn -0.1826 0.9716 0.1508
vn -0.1104 -0.9658 -0.2346
vn -0.8679 0.0255 0.4962
vn -0.0087 -0.0765 0.9970
vn 0.8542 -0.0973 0.5107
vn 0.8693 -0.0156 -0.4940
vn 0.0099 0.0864 -0.9962
vn -0.8541 0.1073 -0.5089
vn -0.8748 -0.0274 0.4838
vn -0.0359 -0.3145 0.9486
vn 0.8371 -0.2833 0.4680
vn 0.8756 0.0357 -0.4817
vn 0.0369 0.3225 -0.9459
vn -0.8356 0.2914 -0.4657
vn -0.8766 -0.0462 0.4790
vn -0.0332 -0.2904 0.9563
vn 0.8433 -0.2446 0.4786
vn 0.8766 0.0462 -0.4790
vn 0.0332 0.2904 -0.9563
vn -0.8433 0.2446 -0.4786
vn 0.1104 0.9658 0.2346
vn 0.2567 -0.9442 -0.2063
vn -0.7361 -0.5189 0.4346
vn 0.1062 -0.3905 0.9144
vn 0.8963 -0.0594 0.4395
vn 0.8424 0.1439 -0.5192
vn -0.0040 0.0146 -0.9999
vn -0.7925 -0.3170 -0.5210
vn -0.8214 -0.2749 0.4997
vn 0.0419 -0.1543 0.9871
vn 0.8539 0.1583 0.4957
vn 0.8019 0.3503 -0.4839
vn -0.0624 0.2294 -0.9713
vn -0.8738 -0.0832 -0.4790
vn -0.8484 -0.0231 0.5288
vn -0.0270 0.0994 0.9947
vn 0.7452 0.4064 0.5287
vn 0.6964 0.5916 -0.4063
vn -0.1274 0.4688 -0.8740
vn -0.9000 0.1611 -0.4050
vn -0.2567 0.9442 0.2063
vn -0.1424 -0.9155 -0.3764
vn -0.8950 -0.2412 0.3753
vn -0.0880 -0.5660 0.8197
vn 0.7762 -0.5101 0.3705
vn 0.8394 -0.1282 -0.5282
vn 0.0311 0.1998 -0.9793
vn -0.8389 0.1428 -0.5253
vn -0.8768 -0.0090 0.4807
vn -0.0488 -0.3135 0.9483
vn 0.8338 -0.2640 0.4848
vn 0.8897 0.0903 -0.4474
vn 0.0615 0.3954 -0.9165
vn -0.8223 0.3457 -0.4520
vn -0.7998 0.2272 0.5555
vn -0.0104 -0.0669 0.9977
vn 0.8305 -0.0218 0.5566
vn 0.8875 0.3190 -0.3325
vn 0.0959 0.6163 -0.7817
vn -0.7505 0.5697 -0.3349
vn 0.1424 0.9155 0.3764
vt 0.312500 0.562500
vt 0.812500 0.937500
vt 0.312500 0.687500
s 0
usemtl FN_Atlas
f 1/1/1 2/1/1 3/1/1 4/1/1 5/1/1 6/1/1 7/1/1 8/1/1 9/1/1 10/1/1
f 10/1/2 9/1/2 11/1/2 12/1/2
f 9/1/3 8/1/3 13/1/3 11/1/3
f 8/1/4 7/1/4 14/1/4 13/1/4
f 7/1/5 6/1/5 15/1/5 14/1/5
f 6/1/6 5/1/6 16/1/6 15/1/6
f 5/1/7 4/1/7 17/1/7 16/1/7
f 4/1/8 3/1/8 18/1/8 17/1/8
f 3/1/9 2/1/9 19/1/9 18/1/9
f 2/1/10 1/1/10 20/1/10 19/1/10
f 1/1/11 10/1/11 12/1/11 20/1/11
f 12/1/12 11/1/12 21/1/12 22/1/12
f 11/1/13 13/1/13 23/1/13 21/1/13
f 13/1/14 14/1/14 24/1/14 23/1/14
f 14/1/15 15/1/15 25/1/15 24/1/15
f 15/1/16 16/1/16 26/1/16 25/1/16
f 16/1/17 17/1/17 27/1/17 26/1/17
f 17/1/18 18/1/18 28/1/18 27/1/18
f 18/1/19 19/1/19 29/1/19 28/1/19
f 19/1/20 20/1/20 30/1/20 29/1/20
f 20/1/21 12/1/21 22/1/21 30/1/21
f 22/1/22 21/1/22 31/1/22 32/1/22
f 21/1/23 23/1/23 33/1/23 31/1/23
f 23/1/24 24/1/24 34/1/24 33/1/24
f 24/1/25 25/1/25 35/1/25 34/1/25
f 25/1/26 26/1/26 36/1/26 35/1/26
f 26/1/27 27/1/27 37/1/27 36/1/27
f 27/1/28 28/1/28 38/1/28 37/1/28
f 28/1/29 29/1/29 39/1/29 38/1/29
f 29/1/30 30/1/30 40/1/30 39/1/30
f 30/1/31 22/1/31 32/1/31 40/1/31
f 32/1/32 31/1/32 41/1/32 42/1/32
f 31/1/33 33/1/33 43/1/33 41/1/33
f 33/1/34 34/1/34 44/1/34 43/1/34
f 34/1/35 35/1/35 45/1/35 44/1/35
f 35/1/36 36/1/36 46/1/36 45/1/36
f 36/1/37 37/1/37 47/1/37 46/1/37
f 37/1/38 38/1/38 48/1/38 47/1/38
f 38/1/39 39/1/39 49/1/39 48/1/39
f 39/1/40 40/1/40 50/1/40 49/1/40
f 40/1/41 32/1/41 42/1/41 50/1/41
f 42/1/42 41/1/42 51/1/42 52/1/42
f 41/1/43 43/1/43 53/1/43 51/1/43
f 43/1/44 44/1/44 54/1/44 53/1/44
f 44/1/45 45/1/45 55/1/45 54/1/45
f 45/1/46 46/1/46 56/1/46 55/1/46
f 46/1/47 47/1/47 57/1/47 56/1/47
f 47/1/48 48/1/48 58/1/48 57/1/48
f 48/1/49 49/1/49 59/1/49 58/1/49
f 49/1/50 50/1/50 60/1/50 59/1/50
f 50/1/51 42/1/51 52/1/51 60/1/51
f 52/1/52 51/1/52 61/1/52 62/1/52
f 51/1/52 53/1/52 63/1/52 61/1/52
f 53/1/52 54/1/52 64/1/52 63/1/52
f 54/1/52 55/1/52 65/1/52 64/1/52
f 55/1/52 56/1/52 66/1/52 65/1/52
f 56/1/52 57/1/52 67/1/52 66/1/52
f 57/1/52 58/1/52 68/1/52 67/1/52
f 58/1/52 59/1/52 69/1/52 68/1/52
f 59/1/52 60/1/52 70/1/52 69/1/52
f 60/1/52 52/1/52 62/1/52 70/1/52
f 62/1/53 61/1/53 71/1/53 72/1/53
f 61/1/54 63/1/54 73/1/54 71/1/54
f 63/1/55 64/1/55 74/1/55 73/1/55
f 64/1/56 65/1/56 75/1/56 74/1/56
f 65/1/57 66/1/57 76/1/57 75/1/57
f 66/1/58 67/1/58 77/1/58 76/1/58
f 67/1/59 68/1/59 78/1/59 77/1/59
f 68/1/60 69/1/60 79/1/60 78/1/60
f 69/1/61 70/1/61 80/1/61 79/1/61
f 70/1/62 62/1/62 72/1/62 80/1/62
f 72/1/52 71/1/52 73/1/52 74/1/52 75/1/52 76/1/52 77/1/52 78/1/52 79/1/52 80/1/52
f 81/2/63 82/2/63 83/2/63 84/2/63 85/2/63 86/2/63
f 86/2/64 85/2/64 87/2/64 88/2/64
f 85/2/65 84/2/65 89/2/65 87/2/65
f 84/2/66 83/2/66 90/2/66 89/2/66
f 83/2/67 82/2/67 91/2/67 90/2/67
f 82/2/68 81/2/68 92/2/68 91/2/68
f 81/2/69 86/2/69 88/2/69 92/2/69
f 88/2/70 87/2/70 93/2/70 94/2/70
f 87/2/71 89/2/71 95/2/71 93/2/71
f 89/2/72 90/2/72 96/2/72 95/2/72
f 90/2/73 91/2/73 97/2/73 96/2/73
f 91/2/74 92/2/74 98/2/74 97/2/74
f 92/2/75 88/2/75 94/2/75 98/2/75
f 94/2/76 93/2/76 99/2/76 100/2/76
f 93/2/77 95/2/77 101/2/77 99/2/77
f 95/2/78 96/2/78 102/2/78 101/2/78
f 96/2/79 97/2/79 103/2/79 102/2/79
f 97/2/80 98/2/80 104/2/80 103/2/80
f 98/2/81 94/2/81 100/2/81 104/2/81
f 100/2/82 99/2/82 101/2/82 102/2/82 103/2/82 104/2/82
f 105/3/83 106/3/83 107/3/83 108/3/83 109/3/83 110/3/83
f 110/3/84 109/3/84 111/3/84 112/3/84
f 109/3/85 108/3/85 113/3/85 111/3/85
f 108/3/86 107/3/86 114/3/86 113/3/86
f 107/3/87 106/3/87 115/3/87 114/3/87
f 106/3/88 105/3/88 116/3/88 115/3/88
f 105/3/89 110/3/89 112/3/89 116/3/89
f 112/3/90 111/3/90 117/3/90 118/3/90
f 111/3/91 113/3/91 119/3/91 117/3/91
f 113/3/92 114/3/92 120/3/92 119/3/92
f 114/3/93 115/3/93 121/3/93 120/3/93
f 115/3/94 116/3/94 122/3/94 121/3/94
f 116/3/95 112/3/95 118/3/95 122/3/95
f 118/3/96 117/3/96 123/3/96 124/3/96
f 117/3/97 119/3/97 125/3/97 123/3/97
f 119/3/98 120/3/98 126/3/98 125/3/98
f 120/3/99 121/3/99 127/3/99 126/3/99
f 121/3/100 122/3/100 128/3/100 127/3/100
f 122/3/101 118/3/101 124/3/101 128/3/101
f 124/3/102 123/3/102 125/3/102 126/3/102 127/3/102 128/3/102
f 129/2/103 130/2/103 131/2/103 132/2/103 133/2/103 134/2/103
f 134/2/104 133/2/104 135/2/104 136/2/104
f 133/2/105 132/2/105 137/2/105 135/2/105
f 132/2/106 131/2/106 138/2/106 137/2/106
f 131/2/107 130/2/107 139/2/107 138/2/107
f 130/2/108 129/2/108 140/2/108 139/2/108
f 129/2/109 134/2/109 136/2/109 140/2/109
f 136/2/110 135/2/110 141/2/110 142/2/110
f 135/2/111 137/2/111 143/2/111 141/2/111
f 137/2/112 138/2/112 144/2/112 143/2/112
f 138/2/113 139/2/113 145/2/113 144/2/113
f 139/2/114 140/2/114 146/2/114 145/2/114
f 140/2/115 136/2/115 142/2/115 146/2/115
f 142/2/116 141/2/116 147/2/116 148/2/116
f 141/2/117 143/2/117 149/2/117 147/2/117
f 143/2/118 144/2/118 150/2/118 149/2/118
f 144/2/119 145/2/119 151/2/119 150/2/119
f 145/2/120 146/2/120 152/2/120 151/2/120
f 146/2/121 142/2/121 148/2/121 152/2/121
f 148/2/122 147/2/122 149/2/122 150/2/122 151/2/122 152/2/122
f 153/2/123 154/2/123 155/2/123 156/2/123 157/2/123 158/2/123
f 158/2/124 157/2/124 159/2/124 160/2/124
f 157/2/125 156/2/125 161/2/125 159/2/125
f 156/2/126 155/2/126 162/2/126 161/2/126
f 155/2/127 154/2/127 163/2/127 162/2/127
f 154/2/128 153/2/128 164/2/128 163/2/128
f 153/2/129 158/2/129 160/2/129 164/2/129
f 160/2/130 159/2/130 165/2/130 166/2/130
f 159/2/131 161/2/131 167/2/131 165/2/131
f 161/2/132 162/2/132 168/2/132 167/2/132
f 162/2/133 163/2/133 169/2/133 168/2/133
f 163/2/134 164/2/134 170/2/134 169/2/134
f 164/2/135 160/2/135 166/2/135 170/2/135
f 166/2/136 165/2/136 171/2/136 172/2/136
f 165/2/137 167/2/137 173/2/137 171/2/137
f 167/2/138 168/2/138 174/2/138 173/2/138
f 168/2/139 169/2/139 175/2/139 174/2/139
f 169/2/140 170/2/140 176/2/140 175/2/140
f 170/2/141 166/2/141 172/2/141 176/2/141
f 172/2/142 171/2/142 173/2/142 174/2/142 175/2/142 176/2/142
f 177/3/143 178/3/143 179/3/143 180/3/143 181/3/143 182/3/143
f 182/3/144 181/3/144 183/3/144 184/3/144
f 181/3/145 180/3/145 185/3/145 183/3/145
f 180/3/146 179/3/146 186/3/146 185/3/146
f 179/3/147 178/3/147 187/3/147 186/3/147
f 178/3/148 177/3/148 188/3/148 187/3/148
f 177/3/149 182/3/149 184/3/149 188/3/149
f 184/3/150 183/3/150 189/3/150 190/3/150
f 183/3/151 185/3/151 191/3/151 189/3/151
f 185/3/152 186/3/152 192/3/152 191/3/152
f 186/3/153 187/3/153 193/3/153 192/3/153
f 187/3/154 188/3/154 194/3/154 193/3/154
f 188/3/155 184/3/155 190/3/155 194/3/155
f 190/3/156 189/3/156 195/3/156 196/3/156
f 189/3/157 191/3/157 197/3/157 195/3/157
f 191/3/158 192/3/158 198/3/158 197/3/158
f 192/3/159 193/3/159 199/3/159 198/3/159
f 193/3/160 194/3/160 200/3/160 199/3/160
f 194/3/161 190/3/161 196/3/161 200/3/161
f 196/3/162 195/3/162 197/3/162 198/3/162 199/3/162 200/3/162
f 201/3/163 202/3/163 203/3/163 204/3/163 205/3/163 206/3/163
f 206/3/164 205/3/164 207/3/164 208/3/164
f 205/3/165 204/3/165 209/3/165 207/3/165
f 204/3/166 203/3/166 210/3/166 209/3/166
f 203/3/167 202/3/167 211/3/167 210/3/167
f 202/3/168 201/3/168 212/3/168 211/3/168
f 201/3/169 206/3/169 208/3/169 212/3/169
f 208/3/170 207/3/170 213/3/170 214/3/170
f 207/3/171 209/3/171 215/3/171 213/3/171
f 209/3/172 210/3/172 216/3/172 215/3/172
f 210/3/173 211/3/173 217/3/173 216/3/173
f 211/3/174 212/3/174 218/3/174 217/3/174
f 212/3/175 208/3/175 214/3/175 218/3/175
f 214/3/176 213/3/176 219/3/176 220/3/176
f 213/3/177 215/3/177 221/3/177 219/3/177
f 215/3/178 216/3/178 222/3/178 221/3/178
f 216/3/179 217/3/179 223/3/179 222/3/179
f 217/3/180 218/3/180 224/3/180 223/3/180
f 218/3/181 214/3/181 220/3/181 224/3/181
f 220/3/182 219/3/182 221/3/182 222/3/182 223/3/182 224/3/182
