# Blender 5.2.0 LTS
# www.blender.org
mtllib FN_Vanity_Bathroom.mtl
o FN_Vanity_Bathroom
v -0.450000 0.000000 0.000000
v -0.450000 0.000000 -0.460000
v -0.432000 0.000000 -0.460000
v -0.432000 0.000000 0.000000
v -0.450000 0.460000 0.000000
v -0.432000 0.460000 0.000000
v -0.432000 0.460000 -0.460000
v -0.450000 0.460000 -0.460000
v 0.432000 0.000000 0.000000
v 0.432000 0.000000 -0.460000
v 0.450000 0.000000 -0.460000
v 0.450000 0.000000 0.000000
v 0.432000 0.460000 0.000000
v 0.450000 0.460000 0.000000
v 0.450000 0.460000 -0.460000
v 0.432000 0.460000 -0.460000
v -0.440000 0.008000 -0.008000
v -0.440000 0.008000 -0.026000
v 0.440000 0.008000 -0.026000
v 0.440000 0.008000 -0.008000
v -0.440000 0.452000 -0.008000
v 0.440000 0.452000 -0.008000
v 0.440000 0.452000 -0.026000
v -0.440000 0.452000 -0.026000
v -0.440000 0.004000 -0.008000
v -0.440000 0.004000 -0.454000
v 0.440000 0.004000 -0.454000
v 0.440000 0.004000 -0.008000
v -0.440000 0.022000 -0.008000
v 0.440000 0.022000 -0.008000
v 0.440000 0.022000 -0.454000
v -0.440000 0.022000 -0.454000
v -0.440000 0.222000 -0.008000
v -0.440000 0.222000 -0.454000
v 0.440000 0.222000 -0.454000
v 0.440000 0.222000 -0.008000
v -0.440000 0.240000 -0.008000
v 0.440000 0.240000 -0.008000
v 0.440000 0.240000 -0.454000
v -0.440000 0.240000 -0.454000
v -0.440000 0.442000 -0.008000
v -0.440000 0.442000 -0.454000
v 0.440000 0.442000 -0.454000
v 0.440000 0.442000 -0.008000
v -0.440000 0.460000 -0.008000
v 0.440000 0.460000 -0.008000
v 0.440000 0.460000 -0.454000
v -0.440000 0.460000 -0.454000
v -0.470000 0.448000 -0.004000
v -0.470000 0.448000 -0.484000
v 0.470000 0.448000 -0.484000
v 0.470000 0.448000 -0.004000
v -0.470000 0.484000 -0.004000
v 0.470000 0.484000 -0.004000
v 0.470000 0.484000 -0.484000
v -0.470000 0.484000 -0.484000
v -0.436000 0.028000 -0.446000
v -0.436000 0.028000 -0.474000
v 0.436000 0.028000 -0.474000
v 0.436000 0.028000 -0.446000
v -0.436000 0.212000 -0.446000
v 0.436000 0.212000 -0.446000
v 0.436000 0.212000 -0.474000
v -0.436000 0.212000 -0.474000
v -0.436000 0.250000 -0.626000
v -0.436000 0.250000 -0.654000
v 0.436000 0.250000 -0.654000
v 0.436000 0.250000 -0.626000
v -0.436000 0.434000 -0.626000
v 0.436000 0.434000 -0.626000
v 0.436000 0.434000 -0.654000
v -0.436000 0.434000 -0.654000
v -0.424000 0.252000 -0.180000
v -0.424000 0.252000 -0.640000
v -0.404000 0.252000 -0.640000
v -0.404000 0.252000 -0.180000
v -0.424000 0.400000 -0.180000
v -0.404000 0.400000 -0.180000
v -0.404000 0.400000 -0.640000
v -0.424000 0.400000 -0.640000
v -0.434000 0.260000 -0.200000
v -0.434000 0.260000 -0.454000
v -0.418000 0.260000 -0.454000
v -0.418000 0.260000 -0.200000
v -0.434000 0.280000 -0.200000
v -0.418000 0.280000 -0.200000
v -0.418000 0.280000 -0.454000
v -0.434000 0.280000 -0.454000
v 0.404000 0.252000 -0.180000
v 0.404000 0.252000 -0.640000
v 0.424000 0.252000 -0.640000
v 0.424000 0.252000 -0.180000
v 0.404000 0.400000 -0.180000
v 0.424000 0.400000 -0.180000
v 0.424000 0.400000 -0.640000
v 0.404000 0.400000 -0.640000
v 0.418000 0.260000 -0.200000
v 0.418000 0.260000 -0.454000
v 0.434000 0.260000 -0.454000
v 0.434000 0.260000 -0.200000
v 0.418000 0.280000 -0.200000
v 0.434000 0.280000 -0.200000
v 0.434000 0.280000 -0.454000
v 0.418000 0.280000 -0.454000
v -0.410000 0.252000 -0.180000
v -0.410000 0.252000 -0.200000
v 0.410000 0.252000 -0.200000
v 0.410000 0.252000 -0.180000
v -0.410000 0.400000 -0.180000
v 0.410000 0.400000 -0.180000
v 0.410000 0.400000 -0.200000
v -0.410000 0.400000 -0.200000
v -0.410000 0.252000 -0.190000
v -0.410000 0.252000 -0.634000
v 0.410000 0.252000 -0.634000
v 0.410000 0.252000 -0.190000
v -0.410000 0.272000 -0.190000
v 0.410000 0.272000 -0.190000
v 0.410000 0.272000 -0.634000
v -0.410000 0.272000 -0.634000
v 0.130000 0.478000 -0.230000
v 0.112583 0.478000 -0.295000
v 0.155885 0.600000 -0.320000
v 0.180000 0.600000 -0.230000
v 0.065000 0.478000 -0.342583
v 0.090000 0.600000 -0.385885
v 0.000000 0.478000 -0.360000
v 0.000000 0.600000 -0.410000
v -0.065000 0.478000 -0.342583
v -0.090000 0.600000 -0.385885
v -0.112583 0.478000 -0.295000
v -0.155885 0.600000 -0.320000
v -0.130000 0.478000 -0.230000
v -0.180000 0.600000 -0.230000
v -0.112583 0.478000 -0.165000
v -0.155885 0.600000 -0.140000
v -0.065000 0.478000 -0.117417
v -0.090000 0.600000 -0.074115
v -0.000000 0.478000 -0.100000
v -0.000000 0.600000 -0.050000
v 0.065000 0.478000 -0.117417
v 0.090000 0.600000 -0.074115
v 0.112583 0.478000 -0.165000
v 0.155885 0.600000 -0.140000
v 0.142028 0.600000 -0.312000
v 0.164000 0.600000 -0.230000
v 0.082000 0.600000 -0.372028
v 0.000000 0.600000 -0.394000
v -0.082000 0.600000 -0.372028
v -0.142028 0.600000 -0.312000
v -0.164000 0.600000 -0.230000
v -0.142028 0.600000 -0.148000
v -0.082000 0.600000 -0.087972
v -0.000000 0.600000 -0.066000
v 0.082000 0.600000 -0.087972
v 0.142028 0.600000 -0.148000
v 0.100459 0.522000 -0.288000
v 0.116000 0.522000 -0.230000
v 0.058000 0.522000 -0.330459
v 0.000000 0.522000 -0.346000
v -0.058000 0.522000 -0.330459
v -0.100459 0.522000 -0.288000
v -0.116000 0.522000 -0.230000
v -0.100459 0.522000 -0.172000
v -0.058000 0.522000 -0.129541
v -0.000000 0.522000 -0.114000
v 0.058000 0.522000 -0.129541
v 0.100459 0.522000 -0.172000
v 0.026000 0.516000 -0.230000
v 0.018385 0.516000 -0.248385
v 0.018385 0.528000 -0.248385
v 0.026000 0.528000 -0.230000
v 0.000000 0.516000 -0.256000
v 0.000000 0.528000 -0.256000
v -0.018385 0.516000 -0.248385
v -0.018385 0.528000 -0.248385
v -0.026000 0.516000 -0.230000
v -0.026000 0.528000 -0.230000
v -0.018385 0.516000 -0.211615
v -0.018385 0.528000 -0.211615
v -0.000000 0.516000 -0.204000
v -0.000000 0.528000 -0.204000
v 0.018385 0.516000 -0.211615
v 0.018385 0.528000 -0.211615
v -0.014000 0.472000 -0.430000
v -0.014000 0.472000 -0.458000
v 0.014000 0.472000 -0.458000
v 0.014000 0.472000 -0.430000
v -0.014000 0.760000 -0.430000
v 0.014000 0.760000 -0.430000
v 0.014000 0.760000 -0.458000
v -0.014000 0.760000 -0.458000
v -0.012000 0.726000 -0.300000
v -0.012000 0.726000 -0.440000
v 0.012000 0.726000 -0.440000
v 0.012000 0.726000 -0.300000
v -0.012000 0.750000 -0.300000
v 0.012000 0.750000 -0.300000
v 0.012000 0.750000 -0.440000
v -0.012000 0.750000 -0.440000
vn -0.0000 -1.0000 -0.0000
vn -0.0000 1.0000 -0.0000
vn -0.0000 -0.0000 1.0000
vn -0.0000 -0.0000 -1.0000
vn -1.0000 -0.0000 -0.0000
vn 1.0000 -0.0000 -0.0000
vn 0.8981 -0.3681 -0.2406
vn 0.6575 -0.3681 -0.6575
vn 0.2406 -0.3681 -0.8981
vn -0.2406 -0.3681 -0.8981
vn -0.6575 -0.3681 -0.6575
vn -0.8981 -0.3681 -0.2406
vn -0.8981 -0.3681 0.2406
vn -0.6575 -0.3681 0.6575
vn -0.2406 -0.3681 0.8981
vn 0.2406 -0.3681 0.8981
vn 0.6575 -0.3681 0.6575
vn 0.8981 -0.3681 0.2406
vn -0.8303 0.5110 0.2225
vn -0.6078 0.5110 0.6078
vn -0.2225 0.5110 0.8303
vn 0.2225 0.5110 0.8303
vn 0.6078 0.5110 0.6078
vn 0.8303 0.5110 0.2225
vn 0.8303 0.5110 -0.2225
vn 0.6078 0.5110 -0.6078
vn 0.2225 0.5110 -0.8303
vn -0.2225 0.5110 -0.8303
vn -0.6078 0.5110 -0.6078
vn -0.8303 0.5110 -0.2225
vn 0.9239 -0.0000 -0.3827
vn 0.3827 -0.0000 -0.9239
vn -0.3827 -0.0000 -0.9239
vn -0.9239 -0.0000 -0.3827
vn -0.9239 -0.0000 0.3827
vn -0.3827 -0.0000 0.9239
vn 0.3827 -0.0000 0.9239
vn 0.9239 -0.0000 0.3827
vt 0.937500 0.812500
vt 0.437500 0.937500
vt 0.187500 0.312500
vt 0.437500 0.812500
s 0
usemtl FN_Atlas
f 1/1/1 2/1/1 3/1/1 4/1/1
f 5/1/2 6/1/2 7/1/2 8/1/2
f 1/1/3 4/1/3 6/1/3 5/1/3
f 3/1/4 2/1/4 8/1/4 7/1/4
f 1/1/5 5/1/5 8/1/5 2/1/5
f 4/1/6 3/1/6 7/1/6 6/1/6
f 9/1/1 10/1/1 11/1/1 12/1/1
f 13/1/2 14/1/2 15/1/2 16/1/2
f 9/1/3 12/1/3 14/1/3 13/1/3
f 11/1/4 10/1/4 16/1/4 15/1/4
f 9/1/5 13/1/5 16/1/5 10/1/5
f 12/1/6 11/1/6 15/1/6 14/1/6
f 17/1/1 18/1/1 19/1/1 20/1/1
f 21/1/2 22/1/2 23/1/2 24/1/2
f 17/1/3 20/1/3 22/1/3 21/1/3
f 19/1/4 18/1/4 24/1/4 23/1/4
f 17/1/5 21/1/5 24/1/5 18/1/5
f 20/1/6 19/1/6 23/1/6 22/1/6
f 25/1/1 26/1/1 27/1/1 28/1/1
f 29/1/2 30/1/2 31/1/2 32/1/2
f 25/1/3 28/1/3 30/1/3 29/1/3
f 27/1/4 26/1/4 32/1/4 31/1/4
f 25/1/5 29/1/5 32/1/5 26/1/5
f 28/1/6 27/1/6 31/1/6 30/1/6
f 33/1/1 34/1/1 35/1/1 36/1/1
f 37/1/2 38/1/2 39/1/2 40/1/2
f 33/1/3 36/1/3 38/1/3 37/1/3
f 35/1/4 34/1/4 40/1/4 39/1/4
f 33/1/5 37/1/5 40/1/5 34/1/5
f 36/1/6 35/1/6 39/1/6 38/1/6
f 41/1/1 42/1/1 43/1/1 44/1/1
f 45/1/2 46/1/2 47/1/2 48/1/2
f 41/1/3 44/1/3 46/1/3 45/1/3
f 43/1/4 42/1/4 48/1/4 47/1/4
f 41/1/5 45/1/5 48/1/5 42/1/5
f 44/1/6 43/1/6 47/1/6 46/1/6
f 49/2/1 50/2/1 51/2/1 52/2/1
f 53/2/2 54/2/2 55/2/2 56/2/2
f 49/2/3 52/2/3 54/2/3 53/2/3
f 51/2/4 50/2/4 56/2/4 55/2/4
f 49/2/5 53/2/5 56/2/5 50/2/5
f 52/2/6 51/2/6 55/2/6 54/2/6
f 57/1/1 58/1/1 59/1/1 60/1/1
f 61/1/2 62/1/2 63/1/2 64/1/2
f 57/1/3 60/1/3 62/1/3 61/1/3
f 59/1/4 58/1/4 64/1/4 63/1/4
f 57/1/5 61/1/5 64/1/5 58/1/5
f 60/1/6 59/1/6 63/1/6 62/1/6
f 65/1/1 66/1/1 67/1/1 68/1/1
f 69/1/2 70/1/2 71/1/2 72/1/2
f 65/1/3 68/1/3 70/1/3 69/1/3
f 67/1/4 66/1/4 72/1/4 71/1/4
f 65/1/5 69/1/5 72/1/5 66/1/5
f 68/1/6 67/1/6 71/1/6 70/1/6
f 73/2/1 74/2/1 75/2/1 76/2/1
f 77/2/2 78/2/2 79/2/2 80/2/2
f 73/2/3 76/2/3 78/2/3 77/2/3
f 75/2/4 74/2/4 80/2/4 79/2/4
f 73/2/5 77/2/5 80/2/5 74/2/5
f 76/2/6 75/2/6 79/2/6 78/2/6
f 81/3/1 82/3/1 83/3/1 84/3/1
f 85/3/2 86/3/2 87/3/2 88/3/2
f 81/3/3 84/3/3 86/3/3 85/3/3
f 83/3/4 82/3/4 88/3/4 87/3/4
f 81/3/5 85/3/5 88/3/5 82/3/5
f 84/3/6 83/3/6 87/3/6 86/3/6
f 89/2/1 90/2/1 91/2/1 92/2/1
f 93/2/2 94/2/2 95/2/2 96/2/2
f 89/2/3 92/2/3 94/2/3 93/2/3
f 91/2/4 90/2/4 96/2/4 95/2/4
f 89/2/5 93/2/5 96/2/5 90/2/5
f 92/2/6 91/2/6 95/2/6 94/2/6
f 97/3/1 98/3/1 99/3/1 100/3/1
f 101/3/2 102/3/2 103/3/2 104/3/2
f 97/3/3 100/3/3 102/3/3 101/3/3
f 99/3/4 98/3/4 104/3/4 103/3/4
f 97/3/5 101/3/5 104/3/5 98/3/5
f 100/3/6 99/3/6 103/3/6 102/3/6
f 105/2/1 106/2/1 107/2/1 108/2/1
f 109/2/2 110/2/2 111/2/2 112/2/2
f 105/2/3 108/2/3 110/2/3 109/2/3
f 107/2/4 106/2/4 112/2/4 111/2/4
f 105/2/5 109/2/5 112/2/5 106/2/5
f 108/2/6 107/2/6 111/2/6 110/2/6
f 113/2/1 114/2/1 115/2/1 116/2/1
f 117/2/2 118/2/2 119/2/2 120/2/2
f 113/2/3 116/2/3 118/2/3 117/2/3
f 115/2/4 114/2/4 120/2/4 119/2/4
f 113/2/5 117/2/5 120/2/5 114/2/5
f 116/2/6 115/2/6 119/2/6 118/2/6
f 121/4/7 122/4/7 123/4/7 124/4/7
f 122/4/8 125/4/8 126/4/8 123/4/8
f 125/4/9 127/4/9 128/4/9 126/4/9
f 127/4/10 129/4/10 130/4/10 128/4/10
f 129/4/11 131/4/11 132/4/11 130/4/11
f 131/4/12 133/4/12 134/4/12 132/4/12
f 133/4/13 135/4/13 136/4/13 134/4/13
f 135/4/14 137/4/14 138/4/14 136/4/14
f 137/4/15 139/4/15 140/4/15 138/4/15
f 139/4/16 141/4/16 142/4/16 140/4/16
f 141/4/17 143/4/17 144/4/17 142/4/17
f 143/4/18 121/4/18 124/4/18 144/4/18
f 124/4/2 123/4/2 145/4/2 146/4/2
f 123/4/2 126/4/2 147/4/2 145/4/2
f 126/4/2 128/4/2 148/4/2 147/4/2
f 128/4/2 130/4/2 149/4/2 148/4/2
f 130/4/2 132/4/2 150/4/2 149/4/2
f 132/4/2 134/4/2 151/4/2 150/4/2
f 134/4/2 136/4/2 152/4/2 151/4/2
f 136/4/2 138/4/2 153/4/2 152/4/2
f 138/4/2 140/4/2 154/4/2 153/4/2
f 140/4/2 142/4/2 155/4/2 154/4/2
f 142/4/2 144/4/2 156/4/2 155/4/2
f 144/4/2 124/4/2 146/4/2 156/4/2
f 146/4/19 145/4/19 157/4/19 158/4/19
f 145/4/20 147/4/20 159/4/20 157/4/20
f 147/4/21 148/4/21 160/4/21 159/4/21
f 148/4/22 149/4/22 161/4/22 160/4/22
f 149/4/23 150/4/23 162/4/23 161/4/23
f 150/4/24 151/4/24 163/4/24 162/4/24
f 151/4/25 152/4/25 164/4/25 163/4/25
f 152/4/26 153/4/26 165/4/26 164/4/26
f 153/4/27 154/4/27 166/4/27 165/4/27
f 154/4/28 155/4/28 167/4/28 166/4/28
f 155/4/29 156/4/29 168/4/29 167/4/29
f 156/4/30 146/4/30 158/4/30 168/4/30
f 158/4/2 157/4/2 159/4/2 160/4/2 161/4/2 162/4/2 163/4/2 164/4/2 165/4/2 166/4/2 167/4/2 168/4/2
f 169/3/31 170/3/31 171/3/31 172/3/31
f 170/3/32 173/3/32 174/3/32 171/3/32
f 173/3/33 175/3/33 176/3/33 174/3/33
f 175/3/34 177/3/34 178/3/34 176/3/34
f 177/3/35 179/3/35 180/3/35 178/3/35
f 179/3/36 181/3/36 182/3/36 180/3/36
f 181/3/37 183/3/37 184/3/37 182/3/37
f 183/3/38 169/3/38 172/3/38 184/3/38
f 172/3/2 171/3/2 174/3/2 176/3/2 178/3/2 180/3/2 182/3/2 184/3/2
f 185/3/1 186/3/1 187/3/1 188/3/1
f 189/3/2 190/3/2 191/3/2 192/3/2
f 185/3/3 188/3/3 190/3/3 189/3/3
f 187/3/4 186/3/4 192/3/4 191/3/4
f 185/3/5 189/3/5 192/3/5 186/3/5
f 188/3/6 187/3/6 191/3/6 190/3/6
f 193/3/1 194/3/1 195/3/1 196/3/1
f 197/3/2 198/3/2 199/3/2 200/3/2
f 193/3/3 196/3/3 198/3/3 197/3/3
f 195/3/4 194/3/4 200/3/4 199/3/4
f 193/3/5 197/3/5 200/3/5 194/3/5
f 196/3/6 195/3/6 199/3/6 198/3/6
