# Blender 5.2.0 LTS
# www.blender.org
mtllib FN_Wardrobe_Double.mtl
o FN_Wardrobe_Double
v -0.475000 0.000000 0.252670
v -0.475000 0.000000 -0.313330
v 0.475000 0.000000 -0.313330
v 0.475000 0.000000 0.252670
v -0.475000 0.090000 0.252670
v 0.475000 0.090000 0.252670
v 0.475000 0.090000 -0.313330
v -0.475000 0.090000 -0.313330
v -0.500000 0.090000 0.262670
v -0.500000 0.090000 -0.319330
v -0.480000 0.090000 -0.319330
v -0.480000 0.090000 0.262670
v -0.500000 1.994000 0.262670
v -0.480000 1.994000 0.262670
v -0.480000 1.994000 -0.319330
v -0.500000 1.994000 -0.319330
v 0.480000 0.090000 0.262670
v 0.480000 0.090000 -0.319330
v 0.500000 0.090000 -0.319330
v 0.500000 0.090000 0.262670
v 0.480000 1.994000 0.262670
v 0.500000 1.994000 0.262670
v 0.500000 1.994000 -0.319330
v 0.480000 1.994000 -0.319330
v -0.500000 0.110000 0.262670
v 0.500000 0.110000 0.262670
v 0.500000 0.110000 -0.319330
v -0.500000 0.110000 -0.319330
v -0.480000 0.090000 -0.307330
v 0.480000 0.090000 -0.307330
v -0.480000 1.994000 -0.307330
v 0.480000 1.994000 -0.307330
v -0.016000 0.090000 0.266670
v -0.016000 0.090000 0.232670
v 0.016000 0.090000 0.232670
v 0.016000 0.090000 0.266670
v -0.016000 1.994000 0.266670
v 0.016000 1.994000 0.266670
v 0.016000 1.994000 0.232670
v -0.016000 1.994000 0.232670
v -0.512000 1.994000 0.276670
v -0.512000 1.994000 -0.319330
v 0.512000 1.994000 -0.319330
v 0.512000 1.994000 0.276670
v -0.512000 2.020000 0.276670
v 0.512000 2.020000 0.276670
v 0.512000 2.020000 -0.319330
v -0.512000 2.020000 -0.319330
v -0.492000 0.104000 0.280670
v -0.492000 0.104000 0.262670
v -0.006000 0.104000 0.262670
v -0.006000 0.104000 0.280670
v -0.492000 0.190000 0.280670
v -0.006000 0.190000 0.280670
v -0.006000 0.190000 0.262670
v -0.492000 0.190000 0.262670
v -0.492000 1.916000 0.280670
v -0.492000 1.916000 0.262670
v -0.006000 1.916000 0.262670
v -0.006000 1.916000 0.280670
v -0.492000 2.002000 0.280670
v -0.006000 2.002000 0.280670
v -0.006000 2.002000 0.262670
v -0.492000 2.002000 0.262670
v -0.406000 0.104000 0.262670
v -0.406000 0.104000 0.280670
v -0.406000 2.002000 0.280670
v -0.406000 2.002000 0.262670
v -0.092000 0.104000 0.280670
v -0.092000 0.104000 0.262670
v -0.092000 2.002000 0.280670
v -0.092000 2.002000 0.262670
v -0.410000 0.186000 0.272670
v -0.410000 0.186000 0.262670
v -0.088000 0.186000 0.262670
v -0.088000 0.186000 0.272670
v -0.410000 1.920000 0.272670
v -0.088000 1.920000 0.272670
v -0.088000 1.920000 0.262670
v -0.410000 1.920000 0.262670
v 0.006000 0.104000 0.280670
v 0.006000 0.104000 0.262670
v 0.492000 0.104000 0.262670
v 0.492000 0.104000 0.280670
v 0.006000 0.190000 0.280670
v 0.492000 0.190000 0.280670
v 0.492000 0.190000 0.262670
v 0.006000 0.190000 0.262670
v 0.006000 1.916000 0.280670
v 0.006000 1.916000 0.262670
v 0.492000 1.916000 0.262670
v 0.492000 1.916000 0.280670
v 0.006000 2.002000 0.280670
v 0.492000 2.002000 0.280670
v 0.492000 2.002000 0.262670
v 0.006000 2.002000 0.262670
v 0.092000 0.104000 0.262670
v 0.092000 0.104000 0.280670
v 0.092000 2.002000 0.280670
v 0.092000 2.002000 0.262670
v 0.406000 0.104000 0.280670
v 0.406000 0.104000 0.262670
v 0.406000 2.002000 0.280670
v 0.406000 2.002000 0.262670
v 0.088000 0.186000 0.272670
v 0.088000 0.186000 0.262670
v 0.410000 0.186000 0.262670
v 0.410000 0.186000 0.272670
v 0.088000 1.920000 0.272670
v 0.410000 1.920000 0.272670
v 0.410000 1.920000 0.262670
v 0.088000 1.920000 0.262670
v -0.063000 0.760000 0.319330
v -0.053000 0.760000 0.319330
v -0.048000 0.760000 0.310670
v -0.053000 0.760000 0.302010
v -0.063000 0.760000 0.302010
v -0.068000 0.760000 0.310670
v -0.068000 1.320000 0.310670
v -0.063000 1.320000 0.302010
v -0.053000 1.320000 0.302010
v -0.048000 1.320000 0.310670
v -0.053000 1.320000 0.319330
v -0.063000 1.320000 0.319330
v -0.062000 0.753072 0.280670
v -0.054000 0.753072 0.280670
v -0.050000 0.760000 0.280670
v -0.054000 0.766928 0.280670
v -0.062000 0.766928 0.280670
v -0.066000 0.760000 0.280670
v -0.066000 0.760000 0.310670
v -0.062000 0.766928 0.310670
v -0.054000 0.766928 0.310670
v -0.050000 0.760000 0.310670
v -0.054000 0.753072 0.310670
v -0.062000 0.753072 0.310670
v -0.062000 1.313072 0.280670
v -0.054000 1.313072 0.280670
v -0.050000 1.320000 0.280670
v -0.054000 1.326928 0.280670
v -0.062000 1.326928 0.280670
v -0.066000 1.320000 0.280670
v -0.066000 1.320000 0.310670
v -0.062000 1.326928 0.310670
v -0.054000 1.326928 0.310670
v -0.050000 1.320000 0.310670
v -0.054000 1.313072 0.310670
v -0.062000 1.313072 0.310670
v 0.053000 0.760000 0.319330
v 0.063000 0.760000 0.319330
v 0.068000 0.760000 0.310670
v 0.063000 0.760000 0.302010
v 0.053000 0.760000 0.302010
v 0.048000 0.760000 0.310670
v 0.048000 1.320000 0.310670
v 0.053000 1.320000 0.302010
v 0.063000 1.320000 0.302010
v 0.068000 1.320000 0.310670
v 0.063000 1.320000 0.319330
v 0.053000 1.320000 0.319330
v 0.054000 0.753072 0.280670
v 0.062000 0.753072 0.280670
v 0.066000 0.760000 0.280670
v 0.062000 0.766928 0.280670
v 0.054000 0.766928 0.280670
v 0.050000 0.760000 0.280670
v 0.050000 0.760000 0.310670
v 0.054000 0.766928 0.310670
v 0.062000 0.766928 0.310670
v 0.066000 0.760000 0.310670
v 0.062000 0.753072 0.310670
v 0.054000 0.753072 0.310670
v 0.054000 1.313072 0.280670
v 0.062000 1.313072 0.280670
v 0.066000 1.320000 0.280670
v 0.062000 1.326928 0.280670
v 0.054000 1.326928 0.280670
v 0.050000 1.320000 0.280670
v 0.050000 1.320000 0.310670
v 0.054000 1.326928 0.310670
v 0.062000 1.326928 0.310670
v 0.066000 1.320000 0.310670
v 0.062000 1.313072 0.310670
v 0.054000 1.313072 0.310670
vn -0.0000 -1.0000 -0.0000
vn -0.0000 1.0000 -0.0000
vn -0.0000 -0.0000 1.0000
vn -0.0000 -0.0000 -1.0000
vn -1.0000 -0.0000 -0.0000
vn 1.0000 -0.0000 -0.0000
vn 0.8660 -0.0000 0.5000
vn -0.8660 -0.0000 0.5000
vn -0.8660 -0.0000 -0.5000
vn 0.8660 -0.0000 -0.5000
vn 0.8660 -0.5000 -0.0000
vn -0.8660 -0.5000 -0.0000
vn -0.8660 0.5000 -0.0000
vn 0.8660 0.5000 -0.0000
vt 0.812500 0.937500
vt 0.437500 0.937500
vt 0.562500 0.937500
vt 0.937500 0.312500
s 0
usemtl FN_Atlas
f 1/1/1 2/1/1 3/1/1 4/1/1
f 5/1/2 6/1/2 7/1/2 8/1/2
f 1/1/3 4/1/3 6/1/3 5/1/3
f 3/1/4 2/1/4 8/1/4 7/1/4
f 1/1/5 5/1/5 8/1/5 2/1/5
f 4/1/6 3/1/6 7/1/6 6/1/6
f 9/2/1 10/2/1 11/2/1 12/2/1
f 13/2/2 14/2/2 15/2/2 16/2/2
f 9/2/3 12/2/3 14/2/3 13/2/3
f 11/2/4 10/2/4 16/2/4 15/2/4
f 9/2/5 13/2/5 16/2/5 10/2/5
f 12/2/6 11/2/6 15/2/6 14/2/6
f 17/2/1 18/2/1 19/2/1 20/2/1
f 21/2/2 22/2/2 23/2/2 24/2/2
f 17/2/3 20/2/3 22/2/3 21/2/3
f 19/2/4 18/2/4 24/2/4 23/2/4
f 17/2/5 21/2/5 24/2/5 18/2/5
f 20/2/6 19/2/6 23/2/6 22/2/6
f 9/2/1 10/2/1 19/2/1 20/2/1
f 25/2/2 26/2/2 27/2/2 28/2/2
f 9/2/3 20/2/3 26/2/3 25/2/3
f 19/2/4 10/2/4 28/2/4 27/2/4
f 9/2/5 25/2/5 28/2/5 10/2/5
f 20/2/6 19/2/6 27/2/6 26/2/6
f 29/1/1 11/1/1 18/1/1 30/1/1
f 31/1/2 32/1/2 24/1/2 15/1/2
f 29/1/3 30/1/3 32/1/3 31/1/3
f 18/1/4 11/1/4 15/1/4 24/1/4
f 29/1/5 31/1/5 15/1/5 11/1/5
f 30/1/6 18/1/6 24/1/6 32/1/6
f 33/1/1 34/1/1 35/1/1 36/1/1
f 37/1/2 38/1/2 39/1/2 40/1/2
f 33/1/3 36/1/3 38/1/3 37/1/3
f 35/1/4 34/1/4 40/1/4 39/1/4
f 33/1/5 37/1/5 40/1/5 34/1/5
f 36/1/6 35/1/6 39/1/6 38/1/6
f 41/2/1 42/2/1 43/2/1 44/2/1
f 45/2/2 46/2/2 47/2/2 48/2/2
f 41/2/3 44/2/3 46/2/3 45/2/3
f 43/2/4 42/2/4 48/2/4 47/2/4
f 41/2/5 45/2/5 48/2/5 42/2/5
f 44/2/6 43/2/6 47/2/6 46/2/6
f 49/2/1 50/2/1 51/2/1 52/2/1
f 53/2/2 54/2/2 55/2/2 56/2/2
f 49/2/3 52/2/3 54/2/3 53/2/3
f 51/2/4 50/2/4 56/2/4 55/2/4
f 49/2/5 53/2/5 56/2/5 50/2/5
f 52/2/6 51/2/6 55/2/6 54/2/6
f 57/2/1 58/2/1 59/2/1 60/2/1
f 61/2/2 62/2/2 63/2/2 64/2/2
f 57/2/3 60/2/3 62/2/3 61/2/3
f 59/2/4 58/2/4 64/2/4 63/2/4
f 57/2/5 61/2/5 64/2/5 58/2/5
f 60/2/6 59/2/6 63/2/6 62/2/6
f 49/2/1 50/2/1 65/2/1 66/2/1
f 61/2/2 67/2/2 68/2/2 64/2/2
f 49/2/3 66/2/3 67/2/3 61/2/3
f 65/2/4 50/2/4 64/2/4 68/2/4
f 49/2/5 61/2/5 64/2/5 50/2/5
f 66/2/6 65/2/6 68/2/6 67/2/6
f 69/2/1 70/2/1 51/2/1 52/2/1
f 71/2/2 62/2/2 63/2/2 72/2/2
f 69/2/3 52/2/3 62/2/3 71/2/3
f 51/2/4 70/2/4 72/2/4 63/2/4
f 69/2/5 71/2/5 72/2/5 70/2/5
f 52/2/6 51/2/6 63/2/6 62/2/6
f 73/3/1 74/3/1 75/3/1 76/3/1
f 77/3/2 78/3/2 79/3/2 80/3/2
f 73/3/3 76/3/3 78/3/3 77/3/3
f 75/3/4 74/3/4 80/3/4 79/3/4
f 73/3/5 77/3/5 80/3/5 74/3/5
f 76/3/6 75/3/6 79/3/6 78/3/6
f 81/2/1 82/2/1 83/2/1 84/2/1
f 85/2/2 86/2/2 87/2/2 88/2/2
f 81/2/3 84/2/3 86/2/3 85/2/3
f 83/2/4 82/2/4 88/2/4 87/2/4
f 81/2/5 85/2/5 88/2/5 82/2/5
f 84/2/6 83/2/6 87/2/6 86/2/6
f 89/2/1 90/2/1 91/2/1 92/2/1
f 93/2/2 94/2/2 95/2/2 96/2/2
f 89/2/3 92/2/3 94/2/3 93/2/3
f 91/2/4 90/2/4 96/2/4 95/2/4
f 89/2/5 93/2/5 96/2/5 90/2/5
f 92/2/6 91/2/6 95/2/6 94/2/6
f 81/2/1 82/2/1 97/2/1 98/2/1
f 93/2/2 99/2/2 100/2/2 96/2/2
f 81/2/3 98/2/3 99/2/3 93/2/3
f 97/2/4 82/2/4 96/2/4 100/2/4
f 81/2/5 93/2/5 96/2/5 82/2/5
f 98/2/6 97/2/6 100/2/6 99/2/6
f 101/2/1 102/2/1 83/2/1 84/2/1
f 103/2/2 94/2/2 95/2/2 104/2/2
f 101/2/3 84/2/3 94/2/3 103/2/3
f 83/2/4 102/2/4 104/2/4 95/2/4
f 101/2/5 103/2/5 104/2/5 102/2/5
f 84/2/6 83/2/6 95/2/6 94/2/6
f 105/3/1 106/3/1 107/3/1 108/3/1
f 109/3/2 110/3/2 111/3/2 112/3/2
f 105/3/3 108/3/3 110/3/3 109/3/3
f 107/3/4 106/3/4 112/3/4 111/3/4
f 105/3/5 109/3/5 112/3/5 106/3/5
f 108/3/6 107/3/6 111/3/6 110/3/6
f 113/4/2 114/4/2 115/4/2 116/4/2 117/4/2 118/4/2
f 119/4/1 120/4/1 121/4/1 122/4/1 123/4/1 124/4/1
f 118/4/7 117/4/7 120/4/7 119/4/7
f 117/4/3 116/4/3 121/4/3 120/4/3
f 116/4/8 115/4/8 122/4/8 121/4/8
f 115/4/9 114/4/9 123/4/9 122/4/9
f 114/4/4 113/4/4 124/4/4 123/4/4
f 113/4/10 118/4/10 119/4/10 124/4/10
f 125/4/3 126/4/3 127/4/3 128/4/3 129/4/3 130/4/3
f 131/4/4 132/4/4 133/4/4 134/4/4 135/4/4 136/4/4
f 130/4/11 129/4/11 132/4/11 131/4/11
f 129/4/1 128/4/1 133/4/1 132/4/1
f 128/4/12 127/4/12 134/4/12 133/4/12
f 127/4/13 126/4/13 135/4/13 134/4/13
f 126/4/2 125/4/2 136/4/2 135/4/2
f 125/4/14 130/4/14 131/4/14 136/4/14
f 137/4/3 138/4/3 139/4/3 140/4/3 141/4/3 142/4/3
f 143/4/4 144/4/4 145/4/4 146/4/4 147/4/4 148/4/4
f 142/4/11 141/4/11 144/4/11 143/4/11
f 141/4/1 140/4/1 145/4/1 144/4/1
f 140/4/12 139/4/12 146/4/12 145/4/12
f 139/4/13 138/4/13 147/4/13 146/4/13
f 138/4/2 137/4/2 148/4/2 147/4/2
f 137/4/14 142/4/14 143/4/14 148/4/14
f 149/4/2 150/4/2 151/4/2 152/4/2 153/4/2 154/4/2
f 155/4/1 156/4/1 157/4/1 158/4/1 159/4/1 160/4/1
f 154/4/7 153/4/7 156/4/7 155/4/7
f 153/4/3 152/4/3 157/4/3 156/4/3
f 152/4/8 151/4/8 158/4/8 157/4/8
f 151/4/9 150/4/9 159/4/9 158/4/9
f 150/4/4 149/4/4 160/4/4 159/4/4
f 149/4/10 154/4/10 155/4/10 160/4/10
f 161/4/3 162/4/3 163/4/3 164/4/3 165/4/3 166/4/3
f 167/4/4 168/4/4 169/4/4 170/4/4 171/4/4 172/4/4
f 166/4/11 165/4/11 168/4/11 167/4/11
f 165/4/1 164/4/1 169/4/1 168/4/1
f 164/4/12 163/4/12 170/4/12 169/4/12
f 163/4/13 162/4/13 171/4/13 170/4/13
f 162/4/2 161/4/2 172/4/2 171/4/2
f 161/4/14 166/4/14 167/4/14 172/4/14
f 173/4/3 174/4/3 175/4/3 176/4/3 177/4/3 178/4/3
f 179/4/4 180/4/4 181/4/4 182/4/4 183/4/4 184/4/4
f 178/4/11 177/4/11 180/4/11 179/4/11
f 177/4/1 176/4/1 181/4/1 180/4/1
f 176/4/12 175/4/12 182/4/12 181/4/12
f 175/4/13 174/4/13 183/4/13 182/4/13
f 174/4/2 173/4/2 184/4/2 183/4/2
f 173/4/14 178/4/14 179/4/14 184/4/14
