# Blender 5.2.0 LTS
# www.blender.org
mtllib FN_Appliance_Fridge.mtl
o FN_Appliance_Fridge
v -0.288000 0.000000 0.260500
v -0.288000 0.000000 -0.351500
v 0.288000 0.000000 -0.351500
v 0.288000 0.000000 0.260500
v -0.288000 0.022000 0.260500
v 0.288000 0.022000 0.260500
v 0.288000 0.022000 -0.351500
v -0.288000 0.022000 -0.351500
v -0.300000 0.022000 0.298500
v -0.300000 0.022000 -0.351500
v 0.300000 0.022000 -0.351500
v 0.300000 0.022000 0.298500
v -0.300000 1.800000 0.298500
v 0.300000 1.800000 0.298500
v 0.300000 1.800000 -0.351500
v -0.300000 1.800000 -0.351500
v -0.298000 0.024000 0.302500
v -0.298000 0.024000 0.298500
v 0.298000 0.024000 0.298500
v 0.298000 0.024000 0.302500
v -0.298000 1.796000 0.302500
v 0.298000 1.796000 0.302500
v 0.298000 1.796000 0.298500
v -0.298000 1.796000 0.298500
v -0.294000 0.028000 0.321500
v -0.294000 0.028000 0.302500
v 0.294000 0.028000 0.302500
v 0.294000 0.028000 0.321500
v -0.294000 0.640000 0.321500
v 0.294000 0.640000 0.321500
v 0.294000 0.640000 0.302500
v -0.294000 0.640000 0.302500
v -0.294000 0.652000 0.321500
v -0.294000 0.652000 0.302500
v 0.294000 0.652000 0.302500
v 0.294000 0.652000 0.321500
v -0.294000 1.790000 0.321500
v 0.294000 1.790000 0.321500
v 0.294000 1.790000 0.302500
v -0.294000 1.790000 0.302500
v 0.225000 0.114000 0.351500
v 0.225000 0.114000 0.333500
v 0.247000 0.114000 0.333500
v 0.247000 0.114000 0.351500
v 0.225000 0.512000 0.351500
v 0.247000 0.512000 0.351500
v 0.247000 0.512000 0.333500
v 0.225000 0.512000 0.333500
v 0.228000 0.131000 0.335500
v 0.228000 0.131000 0.319500
v 0.244000 0.131000 0.319500
v 0.244000 0.131000 0.335500
v 0.228000 0.149000 0.335500
v 0.244000 0.149000 0.335500
v 0.244000 0.149000 0.319500
v 0.228000 0.149000 0.319500
v 0.228000 0.477000 0.335500
v 0.228000 0.477000 0.319500
v 0.244000 0.477000 0.319500
v 0.244000 0.477000 0.335500
v 0.228000 0.495000 0.335500
v 0.244000 0.495000 0.335500
v 0.244000 0.495000 0.319500
v 0.228000 0.495000 0.319500
v 0.225000 0.740000 0.351500
v 0.225000 0.740000 0.333500
v 0.247000 0.740000 0.333500
v 0.247000 0.740000 0.351500
v 0.225000 1.540000 0.351500
v 0.247000 1.540000 0.351500
v 0.247000 1.540000 0.333500
v 0.225000 1.540000 0.333500
v 0.228000 0.757000 0.335500
v 0.228000 0.757000 0.319500
v 0.244000 0.757000 0.319500
v 0.244000 0.757000 0.335500
v 0.228000 0.775000 0.335500
v 0.244000 0.775000 0.335500
v 0.244000 0.775000 0.319500
v 0.228000 0.775000 0.319500
v 0.228000 1.505000 0.335500
v 0.228000 1.505000 0.319500
v 0.244000 1.505000 0.319500
v 0.244000 1.505000 0.335500
v 0.228000 1.523000 0.335500
v 0.244000 1.523000 0.335500
v 0.244000 1.523000 0.319500
v 0.228000 1.523000 0.319500
v -0.232000 1.556000 0.325500
v -0.232000 1.556000 0.321500
v -0.118000 1.556000 0.321500
v -0.118000 1.556000 0.325500
v -0.232000 1.632000 0.325500
v -0.118000 1.632000 0.325500
v -0.118000 1.632000 0.321500
v -0.232000 1.632000 0.321500
vn -0.0000 -1.0000 -0.0000
vn -0.0000 1.0000 -0.0000
vn -0.0000 -0.0000 1.0000
vn -0.0000 -0.0000 -1.0000
vn -1.0000 -0.0000 -0.0000
vn 1.0000 -0.0000 -0.0000
vt 0.812500 0.312500
vt 0.937500 0.312500
vt 0.062500 0.312500
vt 0.937500 0.062500
s 0
usemtl FN_Atlas
f 1/1/1 2/1/1 3/1/1 4/1/1
f 5/1/2 6/1/2 7/1/2 8/1/2
f 1/1/3 4/1/3 6/1/3 5/1/3
f 3/1/4 2/1/4 8/1/4 7/1/4
f 1/1/5 5/1/5 8/1/5 2/1/5
f 4/1/6 3/1/6 7/1/6 6/1/6
f 9/2/1 10/2/1 11/2/1 12/2/1
f 13/2/2 14/2/2 15/2/2 16/2/2
f 9/1/3 12/1/3 14/1/3 13/1/3
f 11/2/4 10/2/4 16/2/4 15/2/4
f 9/2/5 13/2/5 16/2/5 10/2/5
f 12/2/6 11/2/6 15/2/6 14/2/6
f 17/1/1 18/1/1 19/1/1 20/1/1
f 21/1/2 22/1/2 23/1/2 24/1/2
f 17/1/3 20/1/3 22/1/3 21/1/3
f 19/1/4 18/1/4 24/1/4 23/1/4
f 17/1/5 21/1/5 24/1/5 18/1/5
f 20/1/6 19/1/6 23/1/6 22/1/6
f 25/2/1 26/2/1 27/2/1 28/2/1
f 29/2/2 30/2/2 31/2/2 32/2/2
f 25/2/3 28/2/3 30/2/3 29/2/3
f 27/2/4 26/2/4 32/2/4 31/2/4
f 25/2/5 29/2/5 32/2/5 26/2/5
f 28/2/6 27/2/6 31/2/6 30/2/6
f 33/2/1 34/2/1 35/2/1 36/2/1
f 37/2/2 38/2/2 39/2/2 40/2/2
f 33/2/3 36/2/3 38/2/3 37/2/3
f 35/2/4 34/2/4 40/2/4 39/2/4
f 33/2/5 37/2/5 40/2/5 34/2/5
f 36/2/6 35/2/6 39/2/6 38/2/6
f 41/3/1 42/3/1 43/3/1 44/3/1
f 45/3/2 46/3/2 47/3/2 48/3/2
f 41/3/3 44/3/3 46/3/3 45/3/3
f 43/3/4 42/3/4 48/3/4 47/3/4
f 41/3/5 45/3/5 48/3/5 42/3/5
f 44/3/6 43/3/6 47/3/6 46/3/6
f 49/3/1 50/3/1 51/3/1 52/3/1
f 53/3/2 54/3/2 55/3/2 56/3/2
f 49/3/3 52/3/3 54/3/3 53/3/3
f 51/3/4 50/3/4 56/3/4 55/3/4
f 49/3/5 53/3/5 56/3/5 50/3/5
f 52/3/6 51/3/6 55/3/6 54/3/6
f 57/3/1 58/3/1 59/3/1 60/3/1
f 61/3/2 62/3/2 63/3/2 64/3/2
f 57/3/3 60/3/3 62/3/3 61/3/3
f 59/3/4 58/3/4 64/3/4 63/3/4
f 57/3/5 61/3/5 64/3/5 58/3/5
f 60/3/6 59/3/6 63/3/6 62/3/6
f 65/3/1 66/3/1 67/3/1 68/3/1
f 69/3/2 70/3/2 71/3/2 72/3/2
f 65/3/3 68/3/3 70/3/3 69/3/3
f 67/3/4 66/3/4 72/3/4 71/3/4
f 65/3/5 69/3/5 72/3/5 66/3/5
f 68/3/6 67/3/6 71/3/6 70/3/6
f 73/3/1 74/3/1 75/3/1 76/3/1
f 77/3/2 78/3/2 79/3/2 80/3/2
f 73/3/3 76/3/3 78/3/3 77/3/3
f 75/3/4 74/3/4 80/3/4 79/3/4
f 73/3/5 77/3/5 80/3/5 74/3/5
f 76/3/6 75/3/6 79/3/6 78/3/6
f 81/3/1 82/3/1 83/3/1 84/3/1
f 85/3/2 86/3/2 87/3/2 88/3/2
f 81/3/3 84/3/3 86/3/3 85/3/3
f 83/3/4 82/3/4 88/3/4 87/3/4
f 81/3/5 85/3/5 88/3/5 82/3/5
f 84/3/6 83/3/6 87/3/6 86/3/6
usemtl FN_Glow
f 89/4/1 90/4/1 91/4/1 92/4/1
f 93/4/2 94/4/2 95/4/2 96/4/2
f 89/4/3 92/4/3 94/4/3 93/4/3
f 91/4/4 90/4/4 96/4/4 95/4/4
f 89/4/5 93/4/5 96/4/5 90/4/5
f 92/4/6 91/4/6 95/4/6 94/4/6
