# Blender 5.2.0 LTS
# www.blender.org
mtllib FN_Airer_Clothes.mtl
o FN_Airer_Clothes
v -0.434000 1.020000 0.014000
v -0.434000 1.020000 -0.014000
v -0.434000 0.000000 0.272000
v -0.434000 0.000000 0.300000
v -0.406000 0.000000 0.300000
v -0.406000 0.000000 0.272000
v -0.406000 1.020000 -0.014000
v -0.406000 1.020000 0.014000
v 0.406000 1.020000 0.014000
v 0.406000 1.020000 -0.014000
v 0.406000 0.000000 0.272000
v 0.406000 0.000000 0.300000
v 0.434000 0.000000 0.300000
v 0.434000 0.000000 0.272000
v 0.434000 1.020000 -0.014000
v 0.434000 1.020000 0.014000
v -0.430000 0.231340 0.210412
v -0.430000 0.231340 0.220412
v -0.430000 0.240000 0.225412
v -0.430000 0.248660 0.220412
v -0.430000 0.248660 0.210412
v -0.430000 0.240000 0.205412
v 0.430000 0.240000 0.205412
v 0.430000 0.248660 0.210412
v 0.430000 0.248660 0.220412
v 0.430000 0.240000 0.225412
v 0.430000 0.231340 0.220412
v 0.430000 0.231340 0.210412
v -0.430000 0.461340 0.142765
v -0.430000 0.461340 0.152765
v -0.430000 0.470000 0.157765
v -0.430000 0.478660 0.152765
v -0.430000 0.478660 0.142765
v -0.430000 0.470000 0.137765
v 0.430000 0.470000 0.137765
v 0.430000 0.478660 0.142765
v 0.430000 0.478660 0.152765
v 0.430000 0.470000 0.157765
v 0.430000 0.461340 0.152765
v 0.430000 0.461340 0.142765
v -0.430000 0.691340 0.075118
v -0.430000 0.691340 0.085118
v -0.430000 0.700000 0.090118
v -0.430000 0.708660 0.085118
v -0.430000 0.708660 0.075118
v -0.430000 0.700000 0.070118
v 0.430000 0.700000 0.070118
v 0.430000 0.708660 0.075118
v 0.430000 0.708660 0.085118
v 0.430000 0.700000 0.090118
v 0.430000 0.691340 0.085118
v 0.430000 0.691340 0.075118
v -0.430000 0.891340 0.016294
v -0.430000 0.891340 0.026294
v -0.430000 0.900000 0.031294
v -0.430000 0.908660 0.026294
v -0.430000 0.908660 0.016294
v -0.430000 0.900000 0.011294
v 0.430000 0.900000 0.011294
v 0.430000 0.908660 0.016294
v 0.430000 0.908660 0.026294
v 0.430000 0.900000 0.031294
v 0.430000 0.891340 0.026294
v 0.430000 0.891340 0.016294
v -0.402000 0.000000 -0.300000
v -0.402000 0.000000 -0.272000
v -0.402000 1.020000 0.014000
v -0.402000 1.020000 -0.014000
v -0.374000 1.020000 -0.014000
v -0.374000 1.020000 0.014000
v -0.374000 0.000000 -0.272000
v -0.374000 0.000000 -0.300000
v 0.374000 0.000000 -0.300000
v 0.374000 0.000000 -0.272000
v 0.374000 1.020000 0.014000
v 0.374000 1.020000 -0.014000
v 0.402000 1.020000 -0.014000
v 0.402000 1.020000 0.014000
v 0.402000 0.000000 -0.272000
v 0.402000 0.000000 -0.300000
v -0.430000 0.231340 -0.220412
v -0.430000 0.231340 -0.210412
v -0.430000 0.240000 -0.205412
v -0.430000 0.248660 -0.210412
v -0.430000 0.248660 -0.220412
v -0.430000 0.240000 -0.225412
v 0.430000 0.240000 -0.225412
v 0.430000 0.248660 -0.220412
v 0.430000 0.248660 -0.210412
v 0.430000 0.240000 -0.205412
v 0.430000 0.231340 -0.210412
v 0.430000 0.231340 -0.220412
v -0.430000 0.461340 -0.152765
v -0.430000 0.461340 -0.142765
v -0.430000 0.470000 -0.137765
v -0.430000 0.478660 -0.142765
v -0.430000 0.478660 -0.152765
v -0.430000 0.470000 -0.157765
v 0.430000 0.470000 -0.157765
v 0.430000 0.478660 -0.152765
v 0.430000 0.478660 -0.142765
v 0.430000 0.470000 -0.137765
v 0.430000 0.461340 -0.142765
v 0.430000 0.461340 -0.152765
v -0.430000 0.691340 -0.085118
v -0.430000 0.691340 -0.075118
v -0.430000 0.700000 -0.070118
v -0.430000 0.708660 -0.075118
v -0.430000 0.708660 -0.085118
v -0.430000 0.700000 -0.090118
v 0.430000 0.700000 -0.090118
v 0.430000 0.708660 -0.085118
v 0.430000 0.708660 -0.075118
v 0.430000 0.700000 -0.070118
v 0.430000 0.691340 -0.075118
v 0.430000 0.691340 -0.085118
v -0.430000 0.891340 -0.026294
v -0.430000 0.891340 -0.016294
v -0.430000 0.900000 -0.011294
v -0.430000 0.908660 -0.016294
v -0.430000 0.908660 -0.026294
v -0.430000 0.900000 -0.031294
v 0.430000 0.900000 -0.031294
v 0.430000 0.908660 -0.026294
v 0.430000 0.908660 -0.016294
v 0.430000 0.900000 -0.011294
v 0.430000 0.891340 -0.016294
v 0.430000 0.891340 -0.026294
v -0.450000 1.009608 -0.006000
v -0.450000 1.009608 0.006000
v -0.450000 1.020000 0.012000
v -0.450000 1.030392 0.006000
v -0.450000 1.030392 -0.006000
v -0.450000 1.020000 -0.012000
v 0.450000 1.020000 -0.012000
v 0.450000 1.030392 -0.006000
v 0.450000 1.030392 0.006000
v 0.450000 1.020000 0.012000
v 0.450000 1.009608 0.006000
v 0.450000 1.009608 -0.006000
v -0.400000 0.300000 0.110118
v -0.400000 0.716000 0.110118
v -0.400000 0.716000 0.050118
v -0.400000 0.300000 0.050118
v -0.400000 0.300000 0.066118
v -0.400000 0.694000 0.066118
v -0.400000 0.694000 0.094118
v -0.400000 0.300000 0.094118
v 0.060000 0.300000 0.094118
v 0.060000 0.694000 0.094118
v 0.060000 0.694000 0.066118
v 0.060000 0.300000 0.066118
v 0.060000 0.300000 0.050118
v 0.060000 0.716000 0.050118
v 0.060000 0.716000 0.110118
v 0.060000 0.300000 0.110118
v -0.060000 0.070000 -0.117765
v -0.060000 0.486000 -0.117765
v -0.060000 0.486000 -0.177765
v -0.060000 0.070000 -0.177765
v -0.060000 0.070000 -0.161765
v -0.060000 0.464000 -0.161765
v -0.060000 0.464000 -0.133765
v -0.060000 0.070000 -0.133765
v 0.340000 0.070000 -0.133765
v 0.340000 0.464000 -0.133765
v 0.340000 0.464000 -0.161765
v 0.340000 0.070000 -0.161765
v 0.340000 0.070000 -0.177765
v 0.340000 0.486000 -0.177765
v 0.340000 0.486000 -0.117765
v 0.340000 0.070000 -0.117765
vn -1.0000 -0.0000 -0.0000
vn 1.0000 -0.0000 -0.0000
vn -0.0000 -1.0000 -0.0000
vn -0.0000 -0.2700 -0.9629
vn -0.0000 1.0000 -0.0000
vn -0.0000 0.2700 0.9629
vn -0.0000 0.5000 -0.8660
vn -0.0000 0.5000 0.8660
vn -0.0000 -0.5000 0.8660
vn -0.0000 -0.5000 -0.8660
vn -0.0000 -0.2700 0.9629
vn -0.0000 0.2700 -0.9629
vn -0.0000 -0.0000 1.0000
vn -0.0000 -0.0000 -1.0000
vt 0.062500 0.312500
vt 0.812500 0.562500
vt 0.187500 0.562500
s 0
usemtl FN_Atlas
f 1/1/1 2/1/1 3/1/1 4/1/1
f 5/1/2 6/1/2 7/1/2 8/1/2
f 4/1/3 3/1/3 6/1/3 5/1/3
f 3/1/4 2/1/4 7/1/4 6/1/4
f 2/1/5 1/1/5 8/1/5 7/1/5
f 1/1/6 4/1/6 5/1/6 8/1/6
f 9/1/1 10/1/1 11/1/1 12/1/1
f 13/1/2 14/1/2 15/1/2 16/1/2
f 12/1/3 11/1/3 14/1/3 13/1/3
f 11/1/4 10/1/4 15/1/4 14/1/4
f 10/1/5 9/1/5 16/1/5 15/1/5
f 9/1/6 12/1/6 13/1/6 16/1/6
f 17/1/1 18/1/1 19/1/1 20/1/1 21/1/1 22/1/1
f 23/1/2 24/1/2 25/1/2 26/1/2 27/1/2 28/1/2
f 22/1/7 21/1/7 24/1/7 23/1/7
f 21/1/5 20/1/5 25/1/5 24/1/5
f 20/1/8 19/1/8 26/1/8 25/1/8
f 19/1/9 18/1/9 27/1/9 26/1/9
f 18/1/3 17/1/3 28/1/3 27/1/3
f 17/1/10 22/1/10 23/1/10 28/1/10
f 29/1/1 30/1/1 31/1/1 32/1/1 33/1/1 34/1/1
f 35/1/2 36/1/2 37/1/2 38/1/2 39/1/2 40/1/2
f 34/1/7 33/1/7 36/1/7 35/1/7
f 33/1/5 32/1/5 37/1/5 36/1/5
f 32/1/8 31/1/8 38/1/8 37/1/8
f 31/1/9 30/1/9 39/1/9 38/1/9
f 30/1/3 29/1/3 40/1/3 39/1/3
f 29/1/10 34/1/10 35/1/10 40/1/10
f 41/1/1 42/1/1 43/1/1 44/1/1 45/1/1 46/1/1
f 47/1/2 48/1/2 49/1/2 50/1/2 51/1/2 52/1/2
f 46/1/7 45/1/7 48/1/7 47/1/7
f 45/1/5 44/1/5 49/1/5 48/1/5
f 44/1/8 43/1/8 50/1/8 49/1/8
f 43/1/9 42/1/9 51/1/9 50/1/9
f 42/1/3 41/1/3 52/1/3 51/1/3
f 41/1/10 46/1/10 47/1/10 52/1/10
f 53/1/1 54/1/1 55/1/1 56/1/1 57/1/1 58/1/1
f 59/1/2 60/1/2 61/1/2 62/1/2 63/1/2 64/1/2
f 58/1/7 57/1/7 60/1/7 59/1/7
f 57/1/5 56/1/5 61/1/5 60/1/5
f 56/1/8 55/1/8 62/1/8 61/1/8
f 55/1/9 54/1/9 63/1/9 62/1/9
f 54/1/3 53/1/3 64/1/3 63/1/3
f 53/1/10 58/1/10 59/1/10 64/1/10
f 65/1/1 66/1/1 67/1/1 68/1/1
f 69/1/2 70/1/2 71/1/2 72/1/2
f 68/1/5 67/1/5 70/1/5 69/1/5
f 67/1/11 66/1/11 71/1/11 70/1/11
f 66/1/3 65/1/3 72/1/3 71/1/3
f 65/1/12 68/1/12 69/1/12 72/1/12
f 73/1/1 74/1/1 75/1/1 76/1/1
f 77/1/2 78/1/2 79/1/2 80/1/2
f 76/1/5 75/1/5 78/1/5 77/1/5
f 75/1/11 74/1/11 79/1/11 78/1/11
f 74/1/3 73/1/3 80/1/3 79/1/3
f 73/1/12 76/1/12 77/1/12 80/1/12
f 81/1/1 82/1/1 83/1/1 84/1/1 85/1/1 86/1/1
f 87/1/2 88/1/2 89/1/2 90/1/2 91/1/2 92/1/2
f 86/1/7 85/1/7 88/1/7 87/1/7
f 85/1/5 84/1/5 89/1/5 88/1/5
f 84/1/8 83/1/8 90/1/8 89/1/8
f 83/1/9 82/1/9 91/1/9 90/1/9
f 82/1/3 81/1/3 92/1/3 91/1/3
f 81/1/10 86/1/10 87/1/10 92/1/10
f 93/1/1 94/1/1 95/1/1 96/1/1 97/1/1 98/1/1
f 99/1/2 100/1/2 101/1/2 102/1/2 103/1/2 104/1/2
f 98/1/7 97/1/7 100/1/7 99/1/7
f 97/1/5 96/1/5 101/1/5 100/1/5
f 96/1/8 95/1/8 102/1/8 101/1/8
f 95/1/9 94/1/9 103/1/9 102/1/9
f 94/1/3 93/1/3 104/1/3 103/1/3
f 93/1/10 98/1/10 99/1/10 104/1/10
f 105/1/1 106/1/1 107/1/1 108/1/1 109/1/1 110/1/1
f 111/1/2 112/1/2 113/1/2 114/1/2 115/1/2 116/1/2
f 110/1/7 109/1/7 112/1/7 111/1/7
f 109/1/5 108/1/5 113/1/5 112/1/5
f 108/1/8 107/1/8 114/1/8 113/1/8
f 107/1/9 106/1/9 115/1/9 114/1/9
f 106/1/3 105/1/3 116/1/3 115/1/3
f 105/1/10 110/1/10 111/1/10 116/1/10
f 117/1/1 118/1/1 119/1/1 120/1/1 121/1/1 122/1/1
f 123/1/2 124/1/2 125/1/2 126/1/2 127/1/2 128/1/2
f 122/1/7 121/1/7 124/1/7 123/1/7
f 121/1/5 120/1/5 125/1/5 124/1/5
f 120/1/8 119/1/8 126/1/8 125/1/8
f 119/1/9 118/1/9 127/1/9 126/1/9
f 118/1/3 117/1/3 128/1/3 127/1/3
f 117/1/10 122/1/10 123/1/10 128/1/10
f 129/1/1 130/1/1 131/1/1 132/1/1 133/1/1 134/1/1
f 135/1/2 136/1/2 137/1/2 138/1/2 139/1/2 140/1/2
f 134/1/7 133/1/7 136/1/7 135/1/7
f 133/1/5 132/1/5 137/1/5 136/1/5
f 132/1/8 131/1/8 138/1/8 137/1/8
f 131/1/9 130/1/9 139/1/9 138/1/9
f 130/1/3 129/1/3 140/1/3 139/1/3
f 129/1/10 134/1/10 135/1/10 140/1/10
f 141/2/1 142/2/1 143/2/1 144/2/1 145/2/1 146/2/1 147/2/1 148/2/1
f 149/2/2 150/2/2 151/2/2 152/2/2 153/2/2 154/2/2 155/2/2 156/2/2
f 156/2/13 155/2/13 142/2/13 141/2/13
f 155/2/5 154/2/5 143/2/5 142/2/5
f 154/2/14 153/2/14 144/2/14 143/2/14
f 153/2/3 152/2/3 145/2/3 144/2/3
f 145/2/14 146/2/14 151/2/14 152/2/14
f 146/2/5 147/2/5 150/2/5 151/2/5
f 147/2/13 148/2/13 149/2/13 150/2/13
f 149/2/3 156/2/3 141/2/3 148/2/3
f 157/3/1 158/3/1 159/3/1 160/3/1 161/3/1 162/3/1 163/3/1 164/3/1
f 165/3/2 166/3/2 167/3/2 168/3/2 169/3/2 170/3/2 171/3/2 172/3/2
f 172/3/13 171/3/13 158/3/13 157/3/13
f 171/3/5 170/3/5 159/3/5 158/3/5
f 170/3/14 169/3/14 160/3/14 159/3/14
f 169/3/3 168/3/3 161/3/3 160/3/3
f 161/3/14 162/3/14 167/3/14 168/3/14
f 162/3/5 163/3/5 166/3/5 167/3/5
f 163/3/13 164/3/13 165/3/13 166/3/13
f 165/3/3 172/3/3 157/3/3 164/3/3
