# Blender 5.2.0 LTS
# www.blender.org
mtllib FN_Appliance_Extractor.mtl
o FN_Appliance_Extractor
v -0.300000 0.000000 0.000000
v 0.300000 0.000000 0.000000
v 0.270000 0.000000 -0.032000
v -0.270000 0.000000 -0.032000
v 0.300000 0.000000 -0.500000
v 0.270000 0.000000 -0.470000
v -0.300000 0.000000 -0.500000
v -0.270000 0.000000 -0.470000
v -0.270000 0.004000 -0.470000
v 0.270000 0.004000 -0.470000
v 0.270000 0.004000 -0.032000
v -0.270000 0.004000 -0.032000
v -0.258000 0.004000 -0.060000
v -0.258000 0.004000 -0.080000
v 0.258000 0.004000 -0.080000
v 0.258000 0.004000 -0.060000
v -0.258000 0.018000 -0.060000
v 0.258000 0.018000 -0.060000
v 0.258000 0.018000 -0.080000
v -0.258000 0.018000 -0.080000
v -0.258000 0.004000 -0.164000
v -0.258000 0.004000 -0.184000
v 0.258000 0.004000 -0.184000
v 0.258000 0.004000 -0.164000
v -0.258000 0.018000 -0.164000
v 0.258000 0.018000 -0.164000
v 0.258000 0.018000 -0.184000
v -0.258000 0.018000 -0.184000
v -0.258000 0.004000 -0.268000
v -0.258000 0.004000 -0.288000
v 0.258000 0.004000 -0.288000
v 0.258000 0.004000 -0.268000
v -0.258000 0.018000 -0.268000
v 0.258000 0.018000 -0.268000
v 0.258000 0.018000 -0.288000
v -0.258000 0.018000 -0.288000
v -0.258000 0.004000 -0.372000
v -0.258000 0.004000 -0.392000
v 0.258000 0.004000 -0.392000
v 0.258000 0.004000 -0.372000
v -0.258000 0.018000 -0.372000
v 0.258000 0.018000 -0.372000
v 0.258000 0.018000 -0.392000
v -0.258000 0.018000 -0.392000
v -0.220000 0.003000 -0.416000
v -0.116000 0.003000 -0.416000
v -0.116000 0.003000 -0.320000
v -0.220000 0.003000 -0.320000
v 0.116000 0.003000 -0.416000
v 0.220000 0.003000 -0.416000
v 0.220000 0.003000 -0.320000
v 0.116000 0.003000 -0.320000
v 0.300000 0.026000 0.000000
v -0.300000 0.026000 0.000000
v 0.300000 0.026000 -0.500000
v -0.300000 0.026000 -0.500000
v 0.130000 0.200000 0.000000
v -0.130000 0.200000 0.000000
v 0.130000 0.200000 -0.190000
v -0.130000 0.200000 -0.190000
v 0.130000 0.570000 0.000000
v -0.130000 0.570000 0.000000
v 0.130000 0.570000 -0.190000
v -0.130000 0.570000 -0.190000
v -0.150000 0.004000 -0.496000
v -0.150000 0.004000 -0.504000
v 0.150000 0.004000 -0.504000
v 0.150000 0.004000 -0.496000
v -0.150000 0.022000 -0.496000
v 0.150000 0.022000 -0.496000
v 0.150000 0.022000 -0.504000
v -0.150000 0.022000 -0.504000
v -0.086000 0.009000 -0.501000
v -0.086000 0.009000 -0.505000
v 0.086000 0.009000 -0.505000
v 0.086000 0.009000 -0.501000
v -0.086000 0.017000 -0.501000
v 0.086000 0.017000 -0.501000
v 0.086000 0.017000 -0.505000
v -0.086000 0.017000 -0.505000
vn -0.0000 1.0000 -0.0000
vn -0.0000 -1.0000 -0.0000
vn -0.0000 -0.0000 1.0000
vn -0.0000 -0.0000 -1.0000
vn -1.0000 -0.0000 -0.0000
vn 1.0000 -0.0000 -0.0000
vn 0.7153 0.6988 -0.0000
vn -0.0000 0.8720 -0.4895
vn -0.7153 0.6988 -0.0000
vt 0.812500 0.312500
vt 0.937500 0.312500
vt 0.812500 0.062500
vt 0.062500 0.312500
vt 0.937500 0.062500
s 0
usemtl FN_Atlas
f 1/1/1 2/1/1 3/1/1 4/1/1
f 2/1/1 5/1/1 6/1/1 3/1/1
f 5/1/1 7/1/1 8/1/1 6/1/1
f 7/1/1 1/1/1 4/1/1 8/1/1
f 9/2/2 10/2/2 11/2/2 12/2/2
f 13/1/2 14/1/2 15/1/2 16/1/2
f 17/1/1 18/1/1 19/1/1 20/1/1
f 13/1/3 16/1/3 18/1/3 17/1/3
f 15/1/4 14/1/4 20/1/4 19/1/4
f 13/1/5 17/1/5 20/1/5 14/1/5
f 16/1/6 15/1/6 19/1/6 18/1/6
f 21/1/2 22/1/2 23/1/2 24/1/2
f 25/1/1 26/1/1 27/1/1 28/1/1
f 21/1/3 24/1/3 26/1/3 25/1/3
f 23/1/4 22/1/4 28/1/4 27/1/4
f 21/1/5 25/1/5 28/1/5 22/1/5
f 24/1/6 23/1/6 27/1/6 26/1/6
f 29/1/2 30/1/2 31/1/2 32/1/2
f 33/1/1 34/1/1 35/1/1 36/1/1
f 29/1/3 32/1/3 34/1/3 33/1/3
f 31/1/4 30/1/4 36/1/4 35/1/4
f 29/1/5 33/1/5 36/1/5 30/1/5
f 32/1/6 31/1/6 35/1/6 34/1/6
f 37/1/2 38/1/2 39/1/2 40/1/2
f 41/1/1 42/1/1 43/1/1 44/1/1
f 37/1/3 40/1/3 42/1/3 41/1/3
f 39/1/4 38/1/4 44/1/4 43/1/4
f 37/1/5 41/1/5 44/1/5 38/1/5
f 40/1/6 39/1/6 43/1/6 42/1/6
f 1/4/3 2/4/3 53/4/3 54/4/3
f 2/4/6 5/4/6 55/4/6 53/4/6
f 5/4/4 7/4/4 56/4/4 55/4/4
f 7/4/5 1/4/5 54/4/5 56/4/5
f 54/4/3 53/4/3 57/4/3 58/4/3
f 53/4/7 55/4/7 59/4/7 57/4/7
f 55/4/8 56/4/8 60/4/8 59/4/8
f 56/4/9 54/4/9 58/4/9 60/4/9
f 58/4/3 57/4/3 61/4/3 62/4/3
f 57/4/6 59/4/6 63/4/6 61/4/6
f 59/4/4 60/4/4 64/4/4 63/4/4
f 60/4/5 58/4/5 62/4/5 64/4/5
f 62/4/1 61/4/1 63/4/1 64/4/1
f 65/1/2 66/1/2 67/1/2 68/1/2
f 69/1/1 70/1/1 71/1/1 72/1/1
f 65/1/3 68/1/3 70/1/3 69/1/3
f 67/1/4 66/1/4 72/1/4 71/1/4
f 65/1/5 69/1/5 72/1/5 66/1/5
f 68/1/6 67/1/6 71/1/6 70/1/6
usemtl FN_Glow
f 45/3/2 46/3/2 47/3/2 48/3/2
f 49/3/2 50/3/2 51/3/2 52/3/2
f 73/5/2 74/5/2 75/5/2 76/5/2
f 77/5/1 78/5/1 79/5/1 80/5/1
f 73/5/3 76/5/3 78/5/3 77/5/3
f 75/5/4 74/5/4 80/5/4 79/5/4
f 73/5/5 77/5/5 80/5/5 74/5/5
f 76/5/6 75/5/6 79/5/6 78/5/6
