# Blender 5.2.0 LTS
# www.blender.org
mtllib FN_Appliance_Cooker.mtl
o FN_Appliance_Cooker
v -0.288000 0.000000 0.254000
v -0.288000 0.000000 -0.346000
v 0.288000 0.000000 -0.346000
v 0.288000 0.000000 0.254000
v -0.288000 0.060000 0.254000
v 0.288000 0.060000 0.254000
v 0.288000 0.060000 -0.346000
v -0.288000 0.060000 -0.346000
v -0.300000 0.060000 0.294000
v -0.300000 0.060000 -0.346000
v 0.300000 0.060000 -0.346000
v 0.300000 0.060000 0.294000
v -0.300000 0.900000 0.294000
v 0.300000 0.900000 0.294000
v 0.300000 0.900000 -0.346000
v -0.300000 0.900000 -0.346000
v -0.298000 0.064000 0.299000
v -0.298000 0.064000 0.294000
v 0.298000 0.064000 0.294000
v 0.298000 0.064000 0.299000
v -0.298000 0.712000 0.299000
v 0.298000 0.712000 0.299000
v 0.298000 0.712000 0.294000
v -0.298000 0.712000 0.294000
v -0.294000 0.070000 0.318000
v -0.294000 0.070000 0.299000
v 0.294000 0.070000 0.299000
v 0.294000 0.070000 0.318000
v -0.294000 0.134000 0.318000
v 0.294000 0.134000 0.318000
v 0.294000 0.134000 0.299000
v -0.294000 0.134000 0.299000
v -0.294000 0.652000 0.318000
v -0.294000 0.652000 0.299000
v 0.294000 0.652000 0.299000
v 0.294000 0.652000 0.318000
v -0.294000 0.704000 0.318000
v 0.294000 0.704000 0.318000
v 0.294000 0.704000 0.299000
v -0.294000 0.704000 0.299000
v -0.246000 0.070000 0.299000
v -0.246000 0.070000 0.318000
v -0.246000 0.704000 0.318000
v -0.246000 0.704000 0.299000
v 0.246000 0.070000 0.318000
v 0.246000 0.070000 0.299000
v 0.246000 0.704000 0.318000
v 0.246000 0.704000 0.299000
v -0.250000 0.128000 0.314000
v -0.250000 0.128000 0.306000
v 0.250000 0.128000 0.306000
v 0.250000 0.128000 0.314000
v -0.250000 0.658000 0.314000
v 0.250000 0.658000 0.314000
v 0.250000 0.658000 0.306000
v -0.250000 0.658000 0.306000
v -0.264000 0.668000 0.346000
v -0.264000 0.668000 0.328000
v 0.264000 0.668000 0.328000
v 0.264000 0.668000 0.346000
v -0.264000 0.692000 0.346000
v 0.264000 0.692000 0.346000
v 0.264000 0.692000 0.328000
v -0.264000 0.692000 0.328000
v -0.248000 0.671000 0.330000
v -0.248000 0.671000 0.316000
v -0.228000 0.671000 0.316000
v -0.228000 0.671000 0.330000
v -0.248000 0.689000 0.330000
v -0.228000 0.689000 0.330000
v -0.228000 0.689000 0.316000
v -0.248000 0.689000 0.316000
v 0.228000 0.671000 0.330000
v 0.228000 0.671000 0.316000
v 0.248000 0.671000 0.316000
v 0.248000 0.671000 0.330000
v 0.228000 0.689000 0.330000
v 0.248000 0.689000 0.330000
v 0.248000 0.689000 0.316000
v 0.228000 0.689000 0.316000
v -0.298000 0.712000 0.300000
v 0.298000 0.712000 0.300000
v -0.298000 0.900000 0.300000
v 0.298000 0.900000 0.300000
v 0.298000 0.900000 0.294000
v -0.298000 0.900000 0.294000
v -0.200000 0.806000 0.296000
v -0.207029 0.822971 0.296000
v -0.207029 0.822971 0.314000
v -0.200000 0.806000 0.314000
v -0.224000 0.830000 0.296000
v -0.224000 0.830000 0.314000
v -0.240971 0.822971 0.296000
v -0.240971 0.822971 0.314000
v -0.248000 0.806000 0.296000
v -0.248000 0.806000 0.314000
v -0.240971 0.789029 0.296000
v -0.240971 0.789029 0.314000
v -0.224000 0.782000 0.296000
v -0.224000 0.782000 0.314000
v -0.207029 0.789029 0.296000
v -0.207029 0.789029 0.314000
v -0.211272 0.818728 0.322000
v -0.206000 0.806000 0.322000
v -0.224000 0.824000 0.322000
v -0.236728 0.818728 0.322000
v -0.242000 0.806000 0.322000
v -0.236728 0.793272 0.322000
v -0.224000 0.788000 0.322000
v -0.211272 0.793272 0.322000
v -0.088000 0.806000 0.296000
v -0.095029 0.822971 0.296000
v -0.095029 0.822971 0.314000
v -0.088000 0.806000 0.314000
v -0.112000 0.830000 0.296000
v -0.112000 0.830000 0.314000
v -0.128971 0.822971 0.296000
v -0.128971 0.822971 0.314000
v -0.136000 0.806000 0.296000
v -0.136000 0.806000 0.314000
v -0.128971 0.789029 0.296000
v -0.128971 0.789029 0.314000
v -0.112000 0.782000 0.296000
v -0.112000 0.782000 0.314000
v -0.095029 0.789029 0.296000
v -0.095029 0.789029 0.314000
v -0.099272 0.818728 0.322000
v -0.094000 0.806000 0.322000
v -0.112000 0.824000 0.322000
v -0.124728 0.818728 0.322000
v -0.130000 0.806000 0.322000
v -0.124728 0.793272 0.322000
v -0.112000 0.788000 0.322000
v -0.099272 0.793272 0.322000
v 0.024000 0.806000 0.296000
v 0.016971 0.822971 0.296000
v 0.016971 0.822971 0.314000
v 0.024000 0.806000 0.314000
v 0.000000 0.830000 0.296000
v 0.000000 0.830000 0.314000
v -0.016971 0.822971 0.296000
v -0.016971 0.822971 0.314000
v -0.024000 0.806000 0.296000
v -0.024000 0.806000 0.314000
v -0.016971 0.789029 0.296000
v -0.016971 0.789029 0.314000
v -0.000000 0.782000 0.296000
v -0.000000 0.782000 0.314000
v 0.016971 0.789029 0.296000
v 0.016971 0.789029 0.314000
v 0.012728 0.818728 0.322000
v 0.018000 0.806000 0.322000
v 0.000000 0.824000 0.322000
v -0.012728 0.818728 0.322000
v -0.018000 0.806000 0.322000
v -0.012728 0.793272 0.322000
v -0.000000 0.788000 0.322000
v 0.012728 0.793272 0.322000
v 0.136000 0.806000 0.296000
v 0.128971 0.822971 0.296000
v 0.128971 0.822971 0.314000
v 0.136000 0.806000 0.314000
v 0.112000 0.830000 0.296000
v 0.112000 0.830000 0.314000
v 0.095029 0.822971 0.296000
v 0.095029 0.822971 0.314000
v 0.088000 0.806000 0.296000
v 0.088000 0.806000 0.314000
v 0.095029 0.789029 0.296000
v 0.095029 0.789029 0.314000
v 0.112000 0.782000 0.296000
v 0.112000 0.782000 0.314000
v 0.128971 0.789029 0.296000
v 0.128971 0.789029 0.314000
v 0.124728 0.818728 0.322000
v 0.130000 0.806000 0.322000
v 0.112000 0.824000 0.322000
v 0.099272 0.818728 0.322000
v 0.094000 0.806000 0.322000
v 0.099272 0.793272 0.322000
v 0.112000 0.788000 0.322000
v 0.124728 0.793272 0.322000
v 0.248000 0.806000 0.296000
v 0.240971 0.822971 0.296000
v 0.240971 0.822971 0.314000
v 0.248000 0.806000 0.314000
v 0.224000 0.830000 0.296000
v 0.224000 0.830000 0.314000
v 0.207029 0.822971 0.296000
v 0.207029 0.822971 0.314000
v 0.200000 0.806000 0.296000
v 0.200000 0.806000 0.314000
v 0.207029 0.789029 0.296000
v 0.207029 0.789029 0.314000
v 0.224000 0.782000 0.296000
v 0.224000 0.782000 0.314000
v 0.240971 0.789029 0.296000
v 0.240971 0.789029 0.314000
v 0.236728 0.818728 0.322000
v 0.242000 0.806000 0.322000
v 0.224000 0.824000 0.322000
v 0.211272 0.818728 0.322000
v 0.206000 0.806000 0.322000
v 0.211272 0.793272 0.322000
v 0.224000 0.788000 0.322000
v 0.236728 0.793272 0.322000
v -0.296580 0.900000 -0.342352
v 0.296580 0.900000 -0.342352
v 0.296580 0.900000 0.290352
v -0.296580 0.900000 0.290352
v 0.300000 0.905000 0.294000
v -0.300000 0.905000 0.294000
v 0.300000 0.905000 -0.346000
v -0.300000 0.905000 -0.346000
v 0.300000 0.915000 0.294000
v -0.300000 0.915000 0.294000
v 0.300000 0.915000 -0.346000
v -0.300000 0.915000 -0.346000
v -0.296580 0.920000 0.290352
v 0.296580 0.920000 0.290352
v 0.296580 0.920000 -0.342352
v -0.296580 0.920000 -0.342352
v -0.066000 0.920000 0.094000
v -0.080133 0.920000 0.050504
v -0.080133 0.923000 0.050504
v -0.066000 0.923000 0.094000
v -0.117133 0.920000 0.023622
v -0.117133 0.923000 0.023622
v -0.162867 0.920000 0.023622
v -0.162867 0.923000 0.023622
v -0.199867 0.920000 0.050504
v -0.199867 0.923000 0.050504
v -0.214000 0.920000 0.094000
v -0.214000 0.923000 0.094000
v -0.199867 0.920000 0.137496
v -0.199867 0.923000 0.137496
v -0.162867 0.920000 0.164378
v -0.162867 0.923000 0.164378
v -0.117133 0.920000 0.164378
v -0.117133 0.923000 0.164378
v -0.080133 0.920000 0.137496
v -0.080133 0.923000 0.137496
v -0.091459 0.923000 0.058733
v -0.080000 0.923000 0.094000
v -0.121459 0.923000 0.036937
v -0.158541 0.923000 0.036937
v -0.188541 0.923000 0.058733
v -0.200000 0.923000 0.094000
v -0.188541 0.923000 0.129267
v -0.158541 0.923000 0.151063
v -0.121459 0.923000 0.151063
v -0.091459 0.923000 0.129267
v -0.091459 0.920000 0.058733
v -0.080000 0.920000 0.094000
v -0.121459 0.920000 0.036937
v -0.158541 0.920000 0.036937
v -0.188541 0.920000 0.058733
v -0.200000 0.920000 0.094000
v -0.188541 0.920000 0.129267
v -0.158541 0.920000 0.151063
v -0.121459 0.920000 0.151063
v -0.091459 0.920000 0.129267
v 0.200000 0.920000 0.094000
v 0.188541 0.920000 0.058733
v 0.188541 0.923000 0.058733
v 0.200000 0.923000 0.094000
v 0.158541 0.920000 0.036937
v 0.158541 0.923000 0.036937
v 0.121459 0.920000 0.036937
v 0.121459 0.923000 0.036937
v 0.091459 0.920000 0.058733
v 0.091459 0.923000 0.058733
v 0.080000 0.920000 0.094000
v 0.080000 0.923000 0.094000
v 0.091459 0.920000 0.129267
v 0.091459 0.923000 0.129267
v 0.121459 0.920000 0.151063
v 0.121459 0.923000 0.151063
v 0.158541 0.920000 0.151063
v 0.158541 0.923000 0.151063
v 0.188541 0.920000 0.129267
v 0.188541 0.923000 0.129267
v 0.177215 0.923000 0.066962
v 0.186000 0.923000 0.094000
v 0.154215 0.923000 0.050251
v 0.125785 0.923000 0.050251
v 0.102785 0.923000 0.066962
v 0.094000 0.923000 0.094000
v 0.102785 0.923000 0.121038
v 0.125785 0.923000 0.137749
v 0.154215 0.923000 0.137749
v 0.177215 0.923000 0.121038
v 0.177215 0.920000 0.066962
v 0.186000 0.920000 0.094000
v 0.154215 0.920000 0.050251
v 0.125785 0.920000 0.050251
v 0.102785 0.920000 0.066962
v 0.094000 0.920000 0.094000
v 0.102785 0.920000 0.121038
v 0.125785 0.920000 0.137749
v 0.154215 0.920000 0.137749
v 0.177215 0.920000 0.121038
v -0.080000 0.920000 -0.146000
v -0.091459 0.920000 -0.181267
v -0.091459 0.923000 -0.181267
v -0.080000 0.923000 -0.146000
v -0.121459 0.920000 -0.203063
v -0.121459 0.923000 -0.203063
v -0.158541 0.920000 -0.203063
v -0.158541 0.923000 -0.203063
v -0.188541 0.920000 -0.181267
v -0.188541 0.923000 -0.181267
v -0.200000 0.920000 -0.146000
v -0.200000 0.923000 -0.146000
v -0.188541 0.920000 -0.110733
v -0.188541 0.923000 -0.110733
v -0.158541 0.920000 -0.088937
v -0.158541 0.923000 -0.088937
v -0.121459 0.920000 -0.088937
v -0.121459 0.923000 -0.088937
v -0.091459 0.920000 -0.110733
v -0.091459 0.923000 -0.110733
v -0.102785 0.923000 -0.173038
v -0.094000 0.923000 -0.146000
v -0.125785 0.923000 -0.189749
v -0.154215 0.923000 -0.189749
v -0.177215 0.923000 -0.173038
v -0.186000 0.923000 -0.146000
v -0.177215 0.923000 -0.118962
v -0.154215 0.923000 -0.102251
v -0.125785 0.923000 -0.102251
v -0.102785 0.923000 -0.118962
v -0.102785 0.920000 -0.173038
v -0.094000 0.920000 -0.146000
v -0.125785 0.920000 -0.189749
v -0.154215 0.920000 -0.189749
v -0.177215 0.920000 -0.173038
v -0.186000 0.920000 -0.146000
v -0.177215 0.920000 -0.118962
v -0.154215 0.920000 -0.102251
v -0.125785 0.920000 -0.102251
v -0.102785 0.920000 -0.118962
v 0.214000 0.920000 -0.146000
v 0.199867 0.920000 -0.189496
v 0.199867 0.923000 -0.189496
v 0.214000 0.923000 -0.146000
v 0.162867 0.920000 -0.216378
v 0.162867 0.923000 -0.216378
v 0.117133 0.920000 -0.216378
v 0.117133 0.923000 -0.216378
v 0.080133 0.920000 -0.189496
v 0.080133 0.923000 -0.189496
v 0.066000 0.920000 -0.146000
v 0.066000 0.923000 -0.146000
v 0.080133 0.920000 -0.102504
v 0.080133 0.923000 -0.102504
v 0.117133 0.920000 -0.075622
v 0.117133 0.923000 -0.075622
v 0.162867 0.920000 -0.075622
v 0.162867 0.923000 -0.075622
v 0.199867 0.920000 -0.102504
v 0.199867 0.923000 -0.102504
v 0.188541 0.923000 -0.181267
v 0.200000 0.923000 -0.146000
v 0.158541 0.923000 -0.203063
v 0.121459 0.923000 -0.203063
v 0.091459 0.923000 -0.181267
v 0.080000 0.923000 -0.146000
v 0.091459 0.923000 -0.110733
v 0.121459 0.923000 -0.088937
v 0.158541 0.923000 -0.088937
v 0.188541 0.923000 -0.110733
v 0.188541 0.920000 -0.181267
v 0.200000 0.920000 -0.146000
v 0.158541 0.920000 -0.203063
v 0.121459 0.920000 -0.203063
v 0.091459 0.920000 -0.181267
v 0.080000 0.920000 -0.146000
v 0.091459 0.920000 -0.110733
v 0.121459 0.920000 -0.088937
v 0.158541 0.920000 -0.088937
v 0.188541 0.920000 -0.110733
vn -0.0000 -1.0000 -0.0000
vn -0.0000 1.0000 -0.0000
vn -0.0000 -0.0000 1.0000
vn -0.0000 -0.0000 -1.0000
vn -1.0000 -0.0000 -0.0000
vn 1.0000 -0.0000 -0.0000
vn 0.9239 0.3827 -0.0000
vn 0.3827 0.9239 -0.0000
vn -0.3827 0.9239 -0.0000
vn -0.9239 0.3827 -0.0000
vn -0.9239 -0.3827 -0.0000
vn -0.3827 -0.9239 -0.0000
vn 0.3827 -0.9239 -0.0000
vn 0.9239 -0.3827 -0.0000
vn 0.7594 0.3145 0.5695
vn 0.3146 0.7594 0.5695
vn -0.3146 0.7594 0.5695
vn -0.7594 0.3145 0.5695
vn -0.7594 -0.3145 0.5695
vn -0.3146 -0.7594 0.5695
vn 0.3146 -0.7594 0.5695
vn 0.7594 -0.3145 0.5695
vn 0.7594 0.3146 0.5695
vn -0.7594 -0.3146 0.5695
vn 0.7594 -0.3146 0.5695
vn -0.7594 0.3146 0.5695
vn -0.0000 -0.5894 0.8079
vn 0.8254 -0.5645 -0.0000
vn -0.0000 -0.5894 -0.8079
vn -0.8254 -0.5645 -0.0000
vn -0.0000 0.5894 0.8079
vn 0.8254 0.5645 -0.0000
vn -0.0000 0.5894 -0.8079
vn -0.8254 0.5645 -0.0000
vn 0.9511 -0.0000 -0.3090
vn 0.5878 -0.0000 -0.8090
vn -0.5878 -0.0000 -0.8090
vn -0.9511 -0.0000 -0.3090
vn -0.9511 -0.0000 0.3090
vn -0.5878 -0.0000 0.8090
vn 0.5878 -0.0000 0.8090
vn 0.9511 -0.0000 0.3090
vt 0.812500 0.312500
vt 0.937500 0.312500
vt 0.937500 0.937500
vt 0.937500 0.687500
vt 0.062500 0.312500
s 0
usemtl FN_Atlas
f 1/1/1 2/1/1 3/1/1 4/1/1
f 5/1/2 6/1/2 7/1/2 8/1/2
f 1/1/3 4/1/3 6/1/3 5/1/3
f 3/1/4 2/1/4 8/1/4 7/1/4
f 1/1/5 5/1/5 8/1/5 2/1/5
f 4/1/6 3/1/6 7/1/6 6/1/6
f 9/2/1 10/2/1 11/2/1 12/2/1
f 13/2/2 14/2/2 15/2/2 16/2/2
f 9/3/3 12/3/3 14/3/3 13/3/3
f 11/2/4 10/2/4 16/2/4 15/2/4
f 9/2/5 13/2/5 16/2/5 10/2/5
f 12/2/6 11/2/6 15/2/6 14/2/6
f 17/3/1 18/3/1 19/3/1 20/3/1
f 21/3/2 22/3/2 23/3/2 24/3/2
f 17/3/3 20/3/3 22/3/3 21/3/3
f 19/3/4 18/3/4 24/3/4 23/3/4
f 17/3/5 21/3/5 24/3/5 18/3/5
f 20/3/6 19/3/6 23/3/6 22/3/6
f 25/2/1 26/2/1 27/2/1 28/2/1
f 29/2/2 30/2/2 31/2/2 32/2/2
f 25/2/3 28/2/3 30/2/3 29/2/3
f 27/2/4 26/2/4 32/2/4 31/2/4
f 25/2/5 29/2/5 32/2/5 26/2/5
f 28/2/6 27/2/6 31/2/6 30/2/6
f 33/2/1 34/2/1 35/2/1 36/2/1
f 37/2/2 38/2/2 39/2/2 40/2/2
f 33/2/3 36/2/3 38/2/3 37/2/3
f 35/2/4 34/2/4 40/2/4 39/2/4
f 33/2/5 37/2/5 40/2/5 34/2/5
f 36/2/6 35/2/6 39/2/6 38/2/6
f 25/2/1 26/2/1 41/2/1 42/2/1
f 37/2/2 43/2/2 44/2/2 40/2/2
f 25/2/3 42/2/3 43/2/3 37/2/3
f 41/2/4 26/2/4 40/2/4 44/2/4
f 25/2/5 37/2/5 40/2/5 26/2/5
f 42/2/6 41/2/6 44/2/6 43/2/6
f 45/2/1 46/2/1 27/2/1 28/2/1
f 47/2/2 38/2/2 39/2/2 48/2/2
f 45/2/3 28/2/3 38/2/3 47/2/3
f 27/2/4 46/2/4 48/2/4 39/2/4
f 45/2/5 47/2/5 48/2/5 46/2/5
f 28/2/6 27/2/6 39/2/6 38/2/6
f 49/4/1 50/4/1 51/4/1 52/4/1
f 53/4/2 54/4/2 55/4/2 56/4/2
f 49/4/3 52/4/3 54/4/3 53/4/3
f 51/4/4 50/4/4 56/4/4 55/4/4
f 49/4/5 53/4/5 56/4/5 50/4/5
f 52/4/6 51/4/6 55/4/6 54/4/6
f 57/5/1 58/5/1 59/5/1 60/5/1
f 61/5/2 62/5/2 63/5/2 64/5/2
f 57/5/3 60/5/3 62/5/3 61/5/3
f 59/5/4 58/5/4 64/5/4 63/5/4
f 57/5/5 61/5/5 64/5/5 58/5/5
f 60/5/6 59/5/6 63/5/6 62/5/6
f 65/5/1 66/5/1 67/5/1 68/5/1
f 69/5/2 70/5/2 71/5/2 72/5/2
f 65/5/3 68/5/3 70/5/3 69/5/3
f 67/5/4 66/5/4 72/5/4 71/5/4
f 65/5/5 69/5/5 72/5/5 66/5/5
f 68/5/6 67/5/6 71/5/6 70/5/6
f 73/5/1 74/5/1 75/5/1 76/5/1
f 77/5/2 78/5/2 79/5/2 80/5/2
f 73/5/3 76/5/3 78/5/3 77/5/3
f 75/5/4 74/5/4 80/5/4 79/5/4
f 73/5/5 77/5/5 80/5/5 74/5/5
f 76/5/6 75/5/6 79/5/6 78/5/6
f 81/2/1 24/2/1 23/2/1 82/2/1
f 83/2/2 84/2/2 85/2/2 86/2/2
f 81/2/3 82/2/3 84/2/3 83/2/3
f 23/2/4 24/2/4 86/2/4 85/2/4
f 81/2/5 83/2/5 86/2/5 24/2/5
f 82/2/6 23/2/6 85/2/6 84/2/6
f 87/1/7 88/1/7 89/1/7 90/1/7
f 88/1/8 91/1/8 92/1/8 89/1/8
f 91/1/9 93/1/9 94/1/9 92/1/9
f 93/1/10 95/1/10 96/1/10 94/1/10
f 95/1/11 97/1/11 98/1/11 96/1/11
f 97/1/12 99/1/12 100/1/12 98/1/12
f 99/1/13 101/1/13 102/1/13 100/1/13
f 101/1/14 87/1/14 90/1/14 102/1/14
f 90/1/15 89/1/15 103/1/15 104/1/15
f 89/1/16 92/1/16 105/1/16 103/1/16
f 92/1/17 94/1/17 106/1/17 105/1/17
f 94/1/18 96/1/18 107/1/18 106/1/18
f 96/1/19 98/1/19 108/1/19 107/1/19
f 98/1/20 100/1/20 109/1/20 108/1/20
f 100/1/21 102/1/21 110/1/21 109/1/21
f 102/1/22 90/1/22 104/1/22 110/1/22
f 104/1/3 103/1/3 105/1/3 106/1/3 107/1/3 108/1/3 109/1/3 110/1/3
f 111/1/7 112/1/7 113/1/7 114/1/7
f 112/1/8 115/1/8 116/1/8 113/1/8
f 115/1/9 117/1/9 118/1/9 116/1/9
f 117/1/10 119/1/10 120/1/10 118/1/10
f 119/1/11 121/1/11 122/1/11 120/1/11
f 121/1/12 123/1/12 124/1/12 122/1/12
f 123/1/13 125/1/13 126/1/13 124/1/13
f 125/1/14 111/1/14 114/1/14 126/1/14
f 114/1/23 113/1/23 127/1/23 128/1/23
f 113/1/16 116/1/16 129/1/16 127/1/16
f 116/1/17 118/1/17 130/1/17 129/1/17
f 118/1/18 120/1/18 131/1/18 130/1/18
f 120/1/24 122/1/24 132/1/24 131/1/24
f 122/1/20 124/1/20 133/1/20 132/1/20
f 124/1/21 126/1/21 134/1/21 133/1/21
f 126/1/25 114/1/25 128/1/25 134/1/25
f 128/1/3 127/1/3 129/1/3 130/1/3 131/1/3 132/1/3 133/1/3 134/1/3
f 135/1/7 136/1/7 137/1/7 138/1/7
f 136/1/8 139/1/8 140/1/8 137/1/8
f 139/1/9 141/1/9 142/1/9 140/1/9
f 141/1/10 143/1/10 144/1/10 142/1/10
f 143/1/11 145/1/11 146/1/11 144/1/11
f 145/1/12 147/1/12 148/1/12 146/1/12
f 147/1/13 149/1/13 150/1/13 148/1/13
f 149/1/14 135/1/14 138/1/14 150/1/14
f 138/1/15 137/1/15 151/1/15 152/1/15
f 137/1/16 140/1/16 153/1/16 151/1/16
f 140/1/17 142/1/17 154/1/17 153/1/17
f 142/1/18 144/1/18 155/1/18 154/1/18
f 144/1/19 146/1/19 156/1/19 155/1/19
f 146/1/20 148/1/20 157/1/20 156/1/20
f 148/1/21 150/1/21 158/1/21 157/1/21
f 150/1/22 138/1/22 152/1/22 158/1/22
f 152/1/3 151/1/3 153/1/3 154/1/3 155/1/3 156/1/3 157/1/3 158/1/3
f 159/1/7 160/1/7 161/1/7 162/1/7
f 160/1/8 163/1/8 164/1/8 161/1/8
f 163/1/9 165/1/9 166/1/9 164/1/9
f 165/1/10 167/1/10 168/1/10 166/1/10
f 167/1/11 169/1/11 170/1/11 168/1/11
f 169/1/12 171/1/12 172/1/12 170/1/12
f 171/1/13 173/1/13 174/1/13 172/1/13
f 173/1/14 159/1/14 162/1/14 174/1/14
f 162/1/15 161/1/15 175/1/15 176/1/15
f 161/1/16 164/1/16 177/1/16 175/1/16
f 164/1/17 166/1/17 178/1/17 177/1/17
f 166/1/26 168/1/26 179/1/26 178/1/26
f 168/1/24 170/1/24 180/1/24 179/1/24
f 170/1/20 172/1/20 181/1/20 180/1/20
f 172/1/21 174/1/21 182/1/21 181/1/21
f 174/1/25 162/1/25 176/1/25 182/1/25
f 176/1/3 175/1/3 177/1/3 178/1/3 179/1/3 180/1/3 181/1/3 182/1/3
f 183/1/7 184/1/7 185/1/7 186/1/7
f 184/1/8 187/1/8 188/1/8 185/1/8
f 187/1/9 189/1/9 190/1/9 188/1/9
f 189/1/10 191/1/10 192/1/10 190/1/10
f 191/1/11 193/1/11 194/1/11 192/1/11
f 193/1/12 195/1/12 196/1/12 194/1/12
f 195/1/13 197/1/13 198/1/13 196/1/13
f 197/1/14 183/1/14 186/1/14 198/1/14
f 186/1/15 185/1/15 199/1/15 200/1/15
f 185/1/16 188/1/16 201/1/16 199/1/16
f 188/1/17 190/1/17 202/1/17 201/1/17
f 190/1/18 192/1/18 203/1/18 202/1/18
f 192/1/19 194/1/19 204/1/19 203/1/19
f 194/1/20 196/1/20 205/1/20 204/1/20
f 196/1/21 198/1/21 206/1/21 205/1/21
f 198/1/22 186/1/22 200/1/22 206/1/22
f 200/1/3 199/1/3 201/1/3 202/1/3 203/1/3 204/1/3 205/1/3 206/1/3
f 207/5/1 208/5/1 209/5/1 210/5/1
f 210/5/27 209/5/27 211/5/27 212/5/27
f 209/5/28 208/5/28 213/5/28 211/5/28
f 208/5/29 207/5/29 214/5/29 213/5/29
f 207/5/30 210/5/30 212/5/30 214/5/30
f 212/5/3 211/5/3 215/5/3 216/5/3
f 211/5/6 213/5/6 217/5/6 215/5/6
f 213/5/4 214/5/4 218/5/4 217/5/4
f 214/5/5 212/5/5 216/5/5 218/5/5
f 219/5/2 220/5/2 221/5/2 222/5/2
f 216/5/31 215/5/31 220/5/31 219/5/31
f 215/5/32 217/5/32 221/5/32 220/5/32
f 217/5/33 218/5/33 222/5/33 221/5/33
f 218/5/34 216/5/34 219/5/34 222/5/34
f 223/1/35 224/1/35 225/1/35 226/1/35
f 224/1/36 227/1/36 228/1/36 225/1/36
f 227/1/4 229/1/4 230/1/4 228/1/4
f 229/1/37 231/1/37 232/1/37 230/1/37
f 231/1/38 233/1/38 234/1/38 232/1/38
f 233/1/39 235/1/39 236/1/39 234/1/39
f 235/1/40 237/1/40 238/1/40 236/1/40
f 237/1/3 239/1/3 240/1/3 238/1/3
f 239/1/41 241/1/41 242/1/41 240/1/41
f 241/1/42 223/1/42 226/1/42 242/1/42
f 226/1/2 225/1/2 243/1/2 244/1/2
f 225/1/2 228/1/2 245/1/2 243/1/2
f 228/1/2 230/1/2 246/1/2 245/1/2
f 230/1/2 232/1/2 247/1/2 246/1/2
f 232/1/2 234/1/2 248/1/2 247/1/2
f 234/1/2 236/1/2 249/1/2 248/1/2
f 236/1/2 238/1/2 250/1/2 249/1/2
f 238/1/2 240/1/2 251/1/2 250/1/2
f 240/1/2 242/1/2 252/1/2 251/1/2
f 242/1/2 226/1/2 244/1/2 252/1/2
f 244/1/39 243/1/39 253/1/39 254/1/39
f 243/1/40 245/1/40 255/1/40 253/1/40
f 245/1/3 246/1/3 256/1/3 255/1/3
f 246/1/41 247/1/41 257/1/41 256/1/41
f 247/1/42 248/1/42 258/1/42 257/1/42
f 248/1/35 249/1/35 259/1/35 258/1/35
f 249/1/36 250/1/36 260/1/36 259/1/36
f 250/1/4 251/1/4 261/1/4 260/1/4
f 251/1/37 252/1/37 262/1/37 261/1/37
f 252/1/38 244/1/38 254/1/38 262/1/38
f 263/1/35 264/1/35 265/1/35 266/1/35
f 264/1/36 267/1/36 268/1/36 265/1/36
f 267/1/4 269/1/4 270/1/4 268/1/4
f 269/1/37 271/1/37 272/1/37 270/1/37
f 271/1/38 273/1/38 274/1/38 272/1/38
f 273/1/39 275/1/39 276/1/39 274/1/39
f 275/1/40 277/1/40 278/1/40 276/1/40
f 277/1/3 279/1/3 280/1/3 278/1/3
f 279/1/41 281/1/41 282/1/41 280/1/41
f 281/1/42 263/1/42 266/1/42 282/1/42
f 266/1/2 265/1/2 283/1/2 284/1/2
f 265/1/2 268/1/2 285/1/2 283/1/2
f 268/1/2 270/1/2 286/1/2 285/1/2
f 270/1/2 272/1/2 287/1/2 286/1/2
f 272/1/2 274/1/2 288/1/2 287/1/2
f 274/1/2 276/1/2 289/1/2 288/1/2
f 276/1/2 278/1/2 290/1/2 289/1/2
f 278/1/2 280/1/2 291/1/2 290/1/2
f 280/1/2 282/1/2 292/1/2 291/1/2
f 282/1/2 266/1/2 284/1/2 292/1/2
f 284/1/39 283/1/39 293/1/39 294/1/39
f 283/1/40 285/1/40 295/1/40 293/1/40
f 285/1/3 286/1/3 296/1/3 295/1/3
f 286/1/41 287/1/41 297/1/41 296/1/41
f 287/1/42 288/1/42 298/1/42 297/1/42
f 288/1/35 289/1/35 299/1/35 298/1/35
f 289/1/36 290/1/36 300/1/36 299/1/36
f 290/1/4 291/1/4 301/1/4 300/1/4
f 291/1/37 292/1/37 302/1/37 301/1/37
f 292/1/38 284/1/38 294/1/38 302/1/38
f 303/1/35 304/1/35 305/1/35 306/1/35
f 304/1/36 307/1/36 308/1/36 305/1/36
f 307/1/4 309/1/4 310/1/4 308/1/4
f 309/1/37 311/1/37 312/1/37 310/1/37
f 311/1/38 313/1/38 314/1/38 312/1/38
f 313/1/39 315/1/39 316/1/39 314/1/39
f 315/1/40 317/1/40 318/1/40 316/1/40
f 317/1/3 319/1/3 320/1/3 318/1/3
f 319/1/41 321/1/41 322/1/41 320/1/41
f 321/1/42 303/1/42 306/1/42 322/1/42
f 306/1/2 305/1/2 323/1/2 324/1/2
f 305/1/2 308/1/2 325/1/2 323/1/2
f 308/1/2 310/1/2 326/1/2 325/1/2
f 310/1/2 312/1/2 327/1/2 326/1/2
f 312/1/2 314/1/2 328/1/2 327/1/2
f 314/1/2 316/1/2 329/1/2 328/1/2
f 316/1/2 318/1/2 330/1/2 329/1/2
f 318/1/2 320/1/2 331/1/2 330/1/2
f 320/1/2 322/1/2 332/1/2 331/1/2
f 322/1/2 306/1/2 324/1/2 332/1/2
f 324/1/39 323/1/39 333/1/39 334/1/39
f 323/1/40 325/1/40 335/1/40 333/1/40
f 325/1/3 326/1/3 336/1/3 335/1/3
f 326/1/41 327/1/41 337/1/41 336/1/41
f 327/1/42 328/1/42 338/1/42 337/1/42
f 328/1/35 329/1/35 339/1/35 338/1/35
f 329/1/36 330/1/36 340/1/36 339/1/36
f 330/1/4 331/1/4 341/1/4 340/1/4
f 331/1/37 332/1/37 342/1/37 341/1/37
f 332/1/38 324/1/38 334/1/38 342/1/38
f 343/1/35 344/1/35 345/1/35 346/1/35
f 344/1/36 347/1/36 348/1/36 345/1/36
f 347/1/4 349/1/4 350/1/4 348/1/4
f 349/1/37 351/1/37 352/1/37 350/1/37
f 351/1/38 353/1/38 354/1/38 352/1/38
f 353/1/39 355/1/39 356/1/39 354/1/39
f 355/1/40 357/1/40 358/1/40 356/1/40
f 357/1/3 359/1/3 360/1/3 358/1/3
f 359/1/41 361/1/41 362/1/41 360/1/41
f 361/1/42 343/1/42 346/1/42 362/1/42
f 346/1/2 345/1/2 363/1/2 364/1/2
f 345/1/2 348/1/2 365/1/2 363/1/2
f 348/1/2 350/1/2 366/1/2 365/1/2
f 350/1/2 352/1/2 367/1/2 366/1/2
f 352/1/2 354/1/2 368/1/2 367/1/2
f 354/1/2 356/1/2 369/1/2 368/1/2
f 356/1/2 358/1/2 370/1/2 369/1/2
f 358/1/2 360/1/2 371/1/2 370/1/2
f 360/1/2 362/1/2 372/1/2 371/1/2
f 362/1/2 346/1/2 364/1/2 372/1/2
f 364/1/39 363/1/39 373/1/39 374/1/39
f 363/1/40 365/1/40 375/1/40 373/1/40
f 365/1/3 366/1/3 376/1/3 375/1/3
f 366/1/41 367/1/41 377/1/41 376/1/41
f 367/1/42 368/1/42 378/1/42 377/1/42
f 368/1/35 369/1/35 379/1/35 378/1/35
f 369/1/36 370/1/36 380/1/36 379/1/36
f 370/1/4 371/1/4 381/1/4 380/1/4
f 371/1/37 372/1/37 382/1/37 381/1/37
f 372/1/38 364/1/38 374/1/38 382/1/38
