# Blender 5.2.0 LTS
# www.blender.org
mtllib FN_Appliance_Washer.mtl
o FN_Appliance_Washer
v -0.300000 0.018000 0.297000
v -0.300000 0.018000 -0.323000
v 0.300000 0.018000 -0.323000
v 0.300000 0.018000 0.297000
v -0.300000 0.850000 0.297000
v 0.300000 0.850000 0.297000
v 0.300000 0.850000 -0.323000
v -0.300000 0.850000 -0.323000
v -0.274000 0.000000 0.261000
v -0.274000 0.000000 0.213000
v -0.226000 0.000000 0.213000
v -0.226000 0.000000 0.261000
v -0.274000 0.022000 0.261000
v -0.226000 0.022000 0.261000
v -0.226000 0.022000 0.213000
v -0.274000 0.022000 0.213000
v -0.274000 0.000000 -0.239000
v -0.274000 0.000000 -0.287000
v -0.226000 0.000000 -0.287000
v -0.226000 0.000000 -0.239000
v -0.274000 0.022000 -0.239000
v -0.226000 0.022000 -0.239000
v -0.226000 0.022000 -0.287000
v -0.274000 0.022000 -0.287000
v 0.226000 0.000000 0.261000
v 0.226000 0.000000 0.213000
v 0.274000 0.000000 0.213000
v 0.274000 0.000000 0.261000
v 0.226000 0.022000 0.261000
v 0.274000 0.022000 0.261000
v 0.274000 0.022000 0.213000
v 0.226000 0.022000 0.213000
v 0.226000 0.000000 -0.239000
v 0.226000 0.000000 -0.287000
v 0.274000 0.000000 -0.287000
v 0.274000 0.000000 -0.239000
v 0.226000 0.022000 -0.239000
v 0.274000 0.022000 -0.239000
v 0.274000 0.022000 -0.287000
v 0.226000 0.022000 -0.287000
v -0.290000 0.740000 0.300000
v -0.290000 0.740000 0.297000
v 0.290000 0.740000 0.297000
v 0.290000 0.740000 0.300000
v -0.290000 0.822000 0.300000
v 0.290000 0.822000 0.300000
v 0.290000 0.822000 0.297000
v -0.290000 0.822000 0.297000
v -0.276000 0.748000 0.308000
v -0.276000 0.748000 0.300000
v -0.080000 0.748000 0.300000
v -0.080000 0.748000 0.308000
v -0.276000 0.814000 0.308000
v -0.080000 0.814000 0.308000
v -0.080000 0.814000 0.300000
v -0.276000 0.814000 0.300000
v -0.040000 0.762000 0.302000
v -0.040000 0.762000 0.300000
v 0.150000 0.762000 0.300000
v 0.150000 0.762000 0.302000
v -0.040000 0.800000 0.302000
v 0.150000 0.800000 0.302000
v 0.150000 0.800000 0.300000
v -0.040000 0.800000 0.300000
v 0.030000 0.781000 0.300000
v 0.021213 0.802213 0.300000
v 0.021213 0.802213 0.316000
v 0.030000 0.781000 0.316000
v 0.000000 0.811000 0.300000
v 0.000000 0.811000 0.316000
v -0.021213 0.802213 0.300000
v -0.021213 0.802213 0.316000
v -0.030000 0.781000 0.300000
v -0.030000 0.781000 0.316000
v -0.021213 0.759787 0.300000
v -0.021213 0.759787 0.316000
v -0.000000 0.751000 0.300000
v -0.000000 0.751000 0.316000
v 0.021213 0.759787 0.300000
v 0.021213 0.759787 0.316000
v 0.152000 0.415000 0.297000
v 0.144561 0.461971 0.297000
v 0.144561 0.461971 0.309000
v 0.152000 0.415000 0.309000
v 0.122971 0.504343 0.297000
v 0.122971 0.504343 0.309000
v 0.089343 0.537971 0.297000
v 0.089343 0.537971 0.309000
v 0.046971 0.559561 0.297000
v 0.046971 0.559561 0.309000
v 0.000000 0.567000 0.297000
v 0.000000 0.567000 0.309000
v -0.046971 0.559561 0.297000
v -0.046971 0.559561 0.309000
v -0.089343 0.537971 0.297000
v -0.089343 0.537971 0.309000
v -0.122971 0.504343 0.297000
v -0.122971 0.504343 0.309000
v -0.144561 0.461971 0.297000
v -0.144561 0.461971 0.309000
v -0.152000 0.415000 0.297000
v -0.152000 0.415000 0.309000
v -0.144561 0.368029 0.297000
v -0.144561 0.368029 0.309000
v -0.122971 0.325657 0.297000
v -0.122971 0.325657 0.309000
v -0.089343 0.292029 0.297000
v -0.089343 0.292029 0.309000
v -0.046971 0.270439 0.297000
v -0.046971 0.270439 0.309000
v -0.000000 0.263000 0.297000
v -0.000000 0.263000 0.309000
v 0.046971 0.270439 0.297000
v 0.046971 0.270439 0.309000
v 0.089343 0.292029 0.297000
v 0.089343 0.292029 0.309000
v 0.122971 0.325657 0.297000
v 0.122971 0.325657 0.309000
v 0.144561 0.368029 0.297000
v 0.144561 0.368029 0.309000
v 0.102714 0.448374 0.309000
v 0.108000 0.415000 0.309000
v 0.087374 0.478481 0.309000
v 0.063481 0.502374 0.309000
v 0.033374 0.517714 0.309000
v 0.000000 0.523000 0.309000
v -0.033374 0.517714 0.309000
v -0.063481 0.502374 0.309000
v -0.087374 0.478481 0.309000
v -0.102714 0.448374 0.309000
v -0.108000 0.415000 0.309000
v -0.102714 0.381626 0.309000
v -0.087374 0.351519 0.309000
v -0.063481 0.327626 0.309000
v -0.033374 0.312286 0.309000
v -0.000000 0.307000 0.309000
v 0.033374 0.312286 0.309000
v 0.063481 0.327626 0.309000
v 0.087374 0.351519 0.309000
v 0.102714 0.381626 0.309000
v 0.102714 0.448374 0.313000
v 0.108000 0.415000 0.313000
v 0.087374 0.478481 0.313000
v 0.063481 0.502374 0.313000
v 0.033374 0.517714 0.313000
v 0.000000 0.523000 0.313000
v -0.033374 0.517714 0.313000
v -0.063481 0.502374 0.313000
v -0.087374 0.478481 0.313000
v -0.102714 0.448374 0.313000
v -0.108000 0.415000 0.313000
v -0.102714 0.381626 0.313000
v -0.087374 0.351519 0.313000
v -0.063481 0.327626 0.313000
v -0.033374 0.312286 0.313000
v -0.000000 0.307000 0.313000
v 0.033374 0.312286 0.313000
v 0.063481 0.327626 0.313000
v 0.087374 0.351519 0.313000
v 0.102714 0.381626 0.313000
v 0.093204 0.445284 0.313000
v 0.098000 0.415000 0.313000
v 0.079284 0.472603 0.313000
v 0.057603 0.494284 0.313000
v 0.030284 0.508204 0.313000
v 0.000000 0.513000 0.313000
v -0.030284 0.508204 0.313000
v -0.057603 0.494284 0.313000
v -0.079284 0.472603 0.313000
v -0.093204 0.445284 0.313000
v -0.098000 0.415000 0.313000
v -0.093204 0.384716 0.313000
v -0.079284 0.357397 0.313000
v -0.057603 0.335716 0.313000
v -0.030284 0.321796 0.313000
v -0.000000 0.317000 0.313000
v 0.030284 0.321796 0.313000
v 0.057603 0.335716 0.313000
v 0.079284 0.357397 0.313000
v 0.093204 0.384716 0.313000
v 0.093204 0.445284 0.305000
v 0.098000 0.415000 0.305000
v 0.079284 0.472603 0.305000
v 0.057603 0.494284 0.305000
v 0.030284 0.508204 0.305000
v 0.000000 0.513000 0.305000
v -0.030284 0.508204 0.305000
v -0.057603 0.494284 0.305000
v -0.079284 0.472603 0.305000
v -0.093204 0.445284 0.305000
v -0.098000 0.415000 0.305000
v -0.093204 0.384716 0.305000
v -0.079284 0.357397 0.305000
v -0.057603 0.335716 0.305000
v -0.030284 0.321796 0.305000
v -0.000000 0.317000 0.305000
v 0.030284 0.321796 0.305000
v 0.057603 0.335716 0.305000
v 0.079284 0.357397 0.305000
v 0.093204 0.384716 0.305000
v -0.146000 0.369000 0.323000
v -0.146000 0.369000 0.309000
v -0.108000 0.369000 0.309000
v -0.108000 0.369000 0.323000
v -0.146000 0.461000 0.323000
v -0.108000 0.461000 0.323000
v -0.108000 0.461000 0.309000
v -0.146000 0.461000 0.309000
vn -0.0000 -1.0000 -0.0000
vn -0.0000 1.0000 -0.0000
vn -0.0000 -0.0000 1.0000
vn -0.0000 -0.0000 -1.0000
vn -1.0000 -0.0000 -0.0000
vn 1.0000 -0.0000 -0.0000
vn 0.9239 0.3827 -0.0000
vn 0.3827 0.9239 -0.0000
vn -0.3827 0.9239 -0.0000
vn -0.9239 0.3827 -0.0000
vn -0.9239 -0.3827 -0.0000
vn -0.3827 -0.9239 -0.0000
vn 0.3827 -0.9239 -0.0000
vn 0.9239 -0.3827 -0.0000
vn 0.9877 0.1564 -0.0000
vn 0.8910 0.4540 -0.0000
vn 0.7071 0.7071 -0.0000
vn 0.4540 0.8910 -0.0000
vn 0.1564 0.9877 -0.0000
vn -0.1564 0.9877 -0.0000
vn -0.4540 0.8910 -0.0000
vn -0.7071 0.7071 -0.0000
vn -0.8910 0.4540 -0.0000
vn -0.9877 0.1564 -0.0000
vn -0.9877 -0.1564 -0.0000
vn -0.8910 -0.4540 -0.0000
vn -0.7071 -0.7071 -0.0000
vn -0.4540 -0.8910 -0.0000
vn -0.1564 -0.9877 -0.0000
vn 0.1564 -0.9877 -0.0000
vn 0.4540 -0.8910 -0.0000
vn 0.7071 -0.7071 -0.0000
vn 0.8910 -0.4540 -0.0000
vn 0.9877 -0.1564 -0.0000
vt 0.437500 0.812500
vt 0.812500 0.312500
vt 0.562500 0.812500
vt 0.937500 0.062500
vt 0.937500 0.312500
vt 0.187500 0.312500
vt 0.937500 0.687500
s 0
usemtl FN_Atlas
f 1/1/1 2/1/1 3/1/1 4/1/1
f 5/1/2 6/1/2 7/1/2 8/1/2
f 1/1/3 4/1/3 6/1/3 5/1/3
f 3/1/4 2/1/4 8/1/4 7/1/4
f 1/1/5 5/1/5 8/1/5 2/1/5
f 4/1/6 3/1/6 7/1/6 6/1/6
f 9/2/1 10/2/1 11/2/1 12/2/1
f 13/2/2 14/2/2 15/2/2 16/2/2
f 9/2/3 12/2/3 14/2/3 13/2/3
f 11/2/4 10/2/4 16/2/4 15/2/4
f 9/2/5 13/2/5 16/2/5 10/2/5
f 12/2/6 11/2/6 15/2/6 14/2/6
f 17/2/1 18/2/1 19/2/1 20/2/1
f 21/2/2 22/2/2 23/2/2 24/2/2
f 17/2/3 20/2/3 22/2/3 21/2/3
f 19/2/4 18/2/4 24/2/4 23/2/4
f 17/2/5 21/2/5 24/2/5 18/2/5
f 20/2/6 19/2/6 23/2/6 22/2/6
f 25/2/1 26/2/1 27/2/1 28/2/1
f 29/2/2 30/2/2 31/2/2 32/2/2
f 25/2/3 28/2/3 30/2/3 29/2/3
f 27/2/4 26/2/4 32/2/4 31/2/4
f 25/2/5 29/2/5 32/2/5 26/2/5
f 28/2/6 27/2/6 31/2/6 30/2/6
f 33/2/1 34/2/1 35/2/1 36/2/1
f 37/2/2 38/2/2 39/2/2 40/2/2
f 33/2/3 36/2/3 38/2/3 37/2/3
f 35/2/4 34/2/4 40/2/4 39/2/4
f 33/2/5 37/2/5 40/2/5 34/2/5
f 36/2/6 35/2/6 39/2/6 38/2/6
f 41/3/1 42/3/1 43/3/1 44/3/1
f 45/3/2 46/3/2 47/3/2 48/3/2
f 41/3/3 44/3/3 46/3/3 45/3/3
f 43/3/4 42/3/4 48/3/4 47/3/4
f 41/3/5 45/3/5 48/3/5 42/3/5
f 44/3/6 43/3/6 47/3/6 46/3/6
f 49/1/1 50/1/1 51/1/1 52/1/1
f 53/1/2 54/1/2 55/1/2 56/1/2
f 49/1/3 52/1/3 54/1/3 53/1/3
f 51/1/4 50/1/4 56/1/4 55/1/4
f 49/1/5 53/1/5 56/1/5 50/1/5
f 52/1/6 51/1/6 55/1/6 54/1/6
f 65/5/7 66/5/7 67/5/7 68/5/7
f 66/5/8 69/5/8 70/5/8 67/5/8
f 69/5/9 71/5/9 72/5/9 70/5/9
f 71/5/10 73/5/10 74/5/10 72/5/10
f 73/5/11 75/5/11 76/5/11 74/5/11
f 75/5/12 77/5/12 78/5/12 76/5/12
f 77/5/13 79/5/13 80/5/13 78/5/13
f 79/5/14 65/5/14 68/5/14 80/5/14
f 80/5/4 78/5/4 76/5/4 74/5/4 72/5/4 70/5/4 67/5/4 68/5/4
f 81/5/15 82/5/15 83/5/15 84/5/15
f 82/5/16 85/5/16 86/5/16 83/5/16
f 85/5/17 87/5/17 88/5/17 86/5/17
f 87/5/18 89/5/18 90/5/18 88/5/18
f 89/5/19 91/5/19 92/5/19 90/5/19
f 91/5/20 93/5/20 94/5/20 92/5/20
f 93/5/21 95/5/21 96/5/21 94/5/21
f 95/5/22 97/5/22 98/5/22 96/5/22
f 97/5/23 99/5/23 100/5/23 98/5/23
f 99/5/24 101/5/24 102/5/24 100/5/24
f 101/5/25 103/5/25 104/5/25 102/5/25
f 103/5/26 105/5/26 106/5/26 104/5/26
f 105/5/27 107/5/27 108/5/27 106/5/27
f 107/5/28 109/5/28 110/5/28 108/5/28
f 109/5/29 111/5/29 112/5/29 110/5/29
f 111/5/30 113/5/30 114/5/30 112/5/30
f 113/5/31 115/5/31 116/5/31 114/5/31
f 115/5/32 117/5/32 118/5/32 116/5/32
f 117/5/33 119/5/33 120/5/33 118/5/33
f 119/5/34 81/5/34 84/5/34 120/5/34
f 84/5/3 83/5/3 121/5/3 122/5/3
f 83/5/3 86/5/3 123/5/3 121/5/3
f 86/5/3 88/5/3 124/5/3 123/5/3
f 88/5/3 90/5/3 125/5/3 124/5/3
f 90/5/3 92/5/3 126/5/3 125/5/3
f 92/5/3 94/5/3 127/5/3 126/5/3
f 94/5/3 96/5/3 128/5/3 127/5/3
f 96/5/3 98/5/3 129/5/3 128/5/3
f 98/5/3 100/5/3 130/5/3 129/5/3
f 100/5/3 102/5/3 131/5/3 130/5/3
f 102/5/3 104/5/3 132/5/3 131/5/3
f 104/5/3 106/5/3 133/5/3 132/5/3
f 106/5/3 108/5/3 134/5/3 133/5/3
f 108/5/3 110/5/3 135/5/3 134/5/3
f 110/5/3 112/5/3 136/5/3 135/5/3
f 112/5/3 114/5/3 137/5/3 136/5/3
f 114/5/3 116/5/3 138/5/3 137/5/3
f 116/5/3 118/5/3 139/5/3 138/5/3
f 118/5/3 120/5/3 140/5/3 139/5/3
f 120/5/3 84/5/3 122/5/3 140/5/3
f 122/6/15 121/6/15 141/6/15 142/6/15
f 121/6/16 123/6/16 143/6/16 141/6/16
f 123/6/17 124/6/17 144/6/17 143/6/17
f 124/6/18 125/6/18 145/6/18 144/6/18
f 125/6/19 126/6/19 146/6/19 145/6/19
f 126/6/20 127/6/20 147/6/20 146/6/20
f 127/6/21 128/6/21 148/6/21 147/6/21
f 128/6/22 129/6/22 149/6/22 148/6/22
f 129/6/23 130/6/23 150/6/23 149/6/23
f 130/6/24 131/6/24 151/6/24 150/6/24
f 131/6/25 132/6/25 152/6/25 151/6/25
f 132/6/26 133/6/26 153/6/26 152/6/26
f 133/6/27 134/6/27 154/6/27 153/6/27
f 134/6/28 135/6/28 155/6/28 154/6/28
f 135/6/29 136/6/29 156/6/29 155/6/29
f 136/6/30 137/6/30 157/6/30 156/6/30
f 137/6/31 138/6/31 158/6/31 157/6/31
f 138/6/32 139/6/32 159/6/32 158/6/32
f 139/6/33 140/6/33 160/6/33 159/6/33
f 140/6/34 122/6/34 142/6/34 160/6/34
f 142/6/3 141/6/3 161/6/3 162/6/3
f 141/6/3 143/6/3 163/6/3 161/6/3
f 143/6/3 144/6/3 164/6/3 163/6/3
f 144/6/3 145/6/3 165/6/3 164/6/3
f 145/6/3 146/6/3 166/6/3 165/6/3
f 146/6/3 147/6/3 167/6/3 166/6/3
f 147/6/3 148/6/3 168/6/3 167/6/3
f 148/6/3 149/6/3 169/6/3 168/6/3
f 149/6/3 150/6/3 170/6/3 169/6/3
f 150/6/3 151/6/3 171/6/3 170/6/3
f 151/6/3 152/6/3 172/6/3 171/6/3
f 152/6/3 153/6/3 173/6/3 172/6/3
f 153/6/3 154/6/3 174/6/3 173/6/3
f 154/6/3 155/6/3 175/6/3 174/6/3
f 155/6/3 156/6/3 176/6/3 175/6/3
f 156/6/3 157/6/3 177/6/3 176/6/3
f 157/6/3 158/6/3 178/6/3 177/6/3
f 158/6/3 159/6/3 179/6/3 178/6/3
f 159/6/3 160/6/3 180/6/3 179/6/3
f 160/6/3 142/6/3 162/6/3 180/6/3
f 162/7/25 161/7/25 181/7/25 182/7/25
f 161/7/26 163/7/26 183/7/26 181/7/26
f 163/7/27 164/7/27 184/7/27 183/7/27
f 164/7/28 165/7/28 185/7/28 184/7/28
f 165/7/29 166/7/29 186/7/29 185/7/29
f 166/7/30 167/7/30 187/7/30 186/7/30
f 167/7/31 168/7/31 188/7/31 187/7/31
f 168/7/32 169/7/32 189/7/32 188/7/32
f 169/7/33 170/7/33 190/7/33 189/7/33
f 170/7/34 171/7/34 191/7/34 190/7/34
f 171/7/15 172/7/15 192/7/15 191/7/15
f 172/7/16 173/7/16 193/7/16 192/7/16
f 173/7/17 174/7/17 194/7/17 193/7/17
f 174/7/18 175/7/18 195/7/18 194/7/18
f 175/7/19 176/7/19 196/7/19 195/7/19
f 176/7/20 177/7/20 197/7/20 196/7/20
f 177/7/21 178/7/21 198/7/21 197/7/21
f 178/7/22 179/7/22 199/7/22 198/7/22
f 179/7/23 180/7/23 200/7/23 199/7/23
f 180/7/24 162/7/24 182/7/24 200/7/24
f 200/7/4 199/7/4 198/7/4 197/7/4 196/7/4 195/7/4 194/7/4 193/7/4 192/7/4 191/7/4 190/7/4 189/7/4 188/7/4 187/7/4 186/7/4 185/7/4 184/7/4 183/7/4 181/7/4 182/7/4
f 201/6/1 202/6/1 203/6/1 204/6/1
f 205/6/2 206/6/2 207/6/2 208/6/2
f 201/6/3 204/6/3 206/6/3 205/6/3
f 203/6/4 202/6/4 208/6/4 207/6/4
f 201/6/5 205/6/5 208/6/5 202/6/5
f 204/6/6 203/6/6 207/6/6 206/6/6
usemtl FN_Glow
f 57/4/1 58/4/1 59/4/1 60/4/1
f 61/4/2 62/4/2 63/4/2 64/4/2
f 57/4/3 60/4/3 62/4/3 61/4/3
f 59/4/4 58/4/4 64/4/4 63/4/4
f 57/4/5 61/4/5 64/4/5 58/4/5
f 60/4/6 59/4/6 63/4/6 62/4/6
