# Blender 5.2.0 LTS
# www.blender.org
mtllib FN_Arch_Garden.mtl
o FN_Arch_Garden
v -0.621000 0.000000 0.223565
v -0.621000 0.000000 0.191565
v -0.581000 0.000000 0.191565
v -0.581000 0.000000 0.223565
v -0.621000 1.740000 0.223565
v -0.581000 1.740000 0.223565
v -0.581000 1.740000 0.191565
v -0.621000 1.740000 0.191565
v -0.621000 0.000000 -0.256435
v -0.621000 0.000000 -0.288435
v -0.581000 0.000000 -0.288435
v -0.581000 0.000000 -0.256435
v -0.621000 1.740000 -0.256435
v -0.581000 1.740000 -0.256435
v -0.581000 1.740000 -0.288435
v -0.621000 1.740000 -0.288435
v 0.659000 0.000000 0.223565
v 0.659000 0.000000 0.191565
v 0.699000 0.000000 0.191565
v 0.699000 0.000000 0.223565
v 0.659000 1.740000 0.223565
v 0.699000 1.740000 0.223565
v 0.699000 1.740000 0.191565
v 0.659000 1.740000 0.191565
v 0.659000 0.000000 -0.256435
v 0.659000 0.000000 -0.288435
v 0.699000 0.000000 -0.288435
v 0.699000 0.000000 -0.256435
v 0.659000 1.740000 -0.256435
v 0.699000 1.740000 -0.256435
v 0.699000 1.740000 -0.288435
v 0.659000 1.740000 -0.288435
v -0.616000 0.385000 0.211565
v -0.616000 0.385000 -0.276435
v -0.586000 0.385000 -0.276435
v -0.586000 0.385000 0.211565
v -0.616000 0.415000 0.211565
v -0.586000 0.415000 0.211565
v -0.586000 0.415000 -0.276435
v -0.616000 0.415000 -0.276435
v -0.616000 0.685000 0.211565
v -0.616000 0.685000 -0.276435
v -0.586000 0.685000 -0.276435
v -0.586000 0.685000 0.211565
v -0.616000 0.715000 0.211565
v -0.586000 0.715000 0.211565
v -0.586000 0.715000 -0.276435
v -0.616000 0.715000 -0.276435
v -0.616000 0.985000 0.211565
v -0.616000 0.985000 -0.276435
v -0.586000 0.985000 -0.276435
v -0.586000 0.985000 0.211565
v -0.616000 1.015000 0.211565
v -0.586000 1.015000 0.211565
v -0.586000 1.015000 -0.276435
v -0.616000 1.015000 -0.276435
v -0.616000 1.285000 0.211565
v -0.616000 1.285000 -0.276435
v -0.586000 1.285000 -0.276435
v -0.586000 1.285000 0.211565
v -0.616000 1.315000 0.211565
v -0.586000 1.315000 0.211565
v -0.586000 1.315000 -0.276435
v -0.616000 1.315000 -0.276435
v -0.616000 1.585000 0.211565
v -0.616000 1.585000 -0.276435
v -0.586000 1.585000 -0.276435
v -0.586000 1.585000 0.211565
v -0.616000 1.615000 0.211565
v -0.586000 1.615000 0.211565
v -0.586000 1.615000 -0.276435
v -0.616000 1.615000 -0.276435
v 0.664000 0.385000 0.211565
v 0.664000 0.385000 -0.276435
v 0.694000 0.385000 -0.276435
v 0.694000 0.385000 0.211565
v 0.664000 0.415000 0.211565
v 0.694000 0.415000 0.211565
v 0.694000 0.415000 -0.276435
v 0.664000 0.415000 -0.276435
v 0.664000 0.685000 0.211565
v 0.664000 0.685000 -0.276435
v 0.694000 0.685000 -0.276435
v 0.694000 0.685000 0.211565
v 0.664000 0.715000 0.211565
v 0.694000 0.715000 0.211565
v 0.694000 0.715000 -0.276435
v 0.664000 0.715000 -0.276435
v 0.664000 0.985000 0.211565
v 0.664000 0.985000 -0.276435
v 0.694000 0.985000 -0.276435
v 0.694000 0.985000 0.211565
v 0.664000 1.015000 0.211565
v 0.694000 1.015000 0.211565
v 0.694000 1.015000 -0.276435
v 0.664000 1.015000 -0.276435
v 0.664000 1.285000 0.211565
v 0.664000 1.285000 -0.276435
v 0.694000 1.285000 -0.276435
v 0.694000 1.285000 0.211565
v 0.664000 1.315000 0.211565
v 0.694000 1.315000 0.211565
v 0.694000 1.315000 -0.276435
v 0.664000 1.315000 -0.276435
v 0.664000 1.585000 0.211565
v 0.664000 1.585000 -0.276435
v 0.694000 1.585000 -0.276435
v 0.694000 1.585000 0.211565
v 0.664000 1.615000 0.211565
v 0.694000 1.615000 0.211565
v 0.694000 1.615000 -0.276435
v 0.664000 1.615000 -0.276435
v 0.699000 1.700000 0.227565
v 0.648760 1.952571 0.227565
v 0.611805 1.937264 0.227565
v 0.659000 1.700000 0.227565
v 0.659000 1.700000 0.187565
v 0.611805 1.937264 0.187565
v 0.648760 1.952571 0.187565
v 0.699000 1.700000 0.187565
v 0.505690 2.166691 0.227565
v 0.477406 2.138406 0.227565
v 0.477406 2.138406 0.187565
v 0.505690 2.166691 0.187565
v 0.291571 2.309761 0.227565
v 0.276264 2.272805 0.227565
v 0.276264 2.272805 0.187565
v 0.291571 2.309761 0.187565
v 0.039000 2.360000 0.227565
v 0.039000 2.320000 0.227565
v 0.039000 2.320000 0.187565
v 0.039000 2.360000 0.187565
v -0.213571 2.309761 0.227565
v -0.198264 2.272805 0.227565
v -0.198264 2.272805 0.187565
v -0.213571 2.309761 0.187565
v -0.427691 2.166691 0.227565
v -0.399406 2.138406 0.227565
v -0.399406 2.138406 0.187565
v -0.427691 2.166691 0.187565
v -0.570760 1.952571 0.227565
v -0.533805 1.937264 0.227565
v -0.533805 1.937264 0.187565
v -0.570760 1.952571 0.187565
v -0.621000 1.700000 0.227565
v -0.581000 1.700000 0.227565
v -0.581000 1.700000 0.187565
v -0.621000 1.700000 0.187565
v 0.699000 1.700000 -0.252435
v 0.648760 1.952571 -0.252435
v 0.611805 1.937264 -0.252435
v 0.659000 1.700000 -0.252435
v 0.659000 1.700000 -0.292435
v 0.611805 1.937264 -0.292435
v 0.648760 1.952571 -0.292435
v 0.699000 1.700000 -0.292435
v 0.505690 2.166691 -0.252435
v 0.477406 2.138406 -0.252435
v 0.477406 2.138406 -0.292435
v 0.505690 2.166691 -0.292435
v 0.291571 2.309761 -0.252435
v 0.276264 2.272805 -0.252435
v 0.276264 2.272805 -0.292435
v 0.291571 2.309761 -0.292435
v 0.039000 2.360000 -0.252435
v 0.039000 2.320000 -0.252435
v 0.039000 2.320000 -0.292435
v 0.039000 2.360000 -0.292435
v -0.213571 2.309761 -0.252435
v -0.198264 2.272805 -0.252435
v -0.198264 2.272805 -0.292435
v -0.213571 2.309761 -0.292435
v -0.427691 2.166691 -0.252435
v -0.399406 2.138406 -0.252435
v -0.399406 2.138406 -0.292435
v -0.427691 2.166691 -0.292435
v -0.570760 1.952571 -0.252435
v -0.533805 1.937264 -0.252435
v -0.533805 1.937264 -0.292435
v -0.570760 1.952571 -0.292435
v -0.621000 1.700000 -0.252435
v -0.581000 1.700000 -0.252435
v -0.581000 1.700000 -0.292435
v -0.621000 1.700000 -0.292435
v -0.176000 2.290000 0.207565
v -0.176000 2.290000 -0.272435
v -0.146000 2.290000 -0.272435
v -0.146000 2.290000 0.207565
v -0.176000 2.320000 0.207565
v -0.146000 2.320000 0.207565
v -0.146000 2.320000 -0.272435
v -0.176000 2.320000 -0.272435
v 0.224000 2.290000 0.207565
v 0.224000 2.290000 -0.272435
v 0.254000 2.290000 -0.272435
v 0.254000 2.290000 0.207565
v 0.224000 2.320000 0.207565
v 0.254000 2.320000 0.207565
v 0.254000 2.320000 -0.272435
v 0.224000 2.320000 -0.272435
v -0.563500 0.520000 0.272517
v -0.638500 0.520000 0.272517
v -0.676000 0.520000 0.207565
v -0.638500 0.520000 0.142613
v -0.563500 0.520000 0.142613
v -0.526000 0.520000 0.207565
v -0.506000 0.680000 0.207565
v -0.553500 0.680000 0.125292
v -0.648500 0.680000 0.125292
v -0.696000 0.680000 0.207565
v -0.648500 0.680000 0.289837
v -0.553500 0.680000 0.289837
v -0.553500 0.660000 0.289837
v -0.648500 0.660000 0.289837
v -0.696000 0.660000 0.207565
v -0.648500 0.660000 0.125292
v -0.553500 0.660000 0.125292
v -0.506000 0.660000 0.207565
v -0.531000 0.820000 0.207565
v -0.566000 0.820000 0.146943
v -0.636000 0.820000 0.146943
v -0.671000 0.820000 0.207565
v -0.636000 0.820000 0.268187
v -0.566000 0.820000 0.268187
v -0.566000 0.800000 0.268187
v -0.636000 0.800000 0.268187
v -0.671000 0.800000 0.207565
v -0.636000 0.800000 0.146943
v -0.566000 0.800000 0.146943
v -0.531000 0.800000 0.207565
v -0.503000 0.960000 0.207565
v -0.552000 0.960000 0.122694
v -0.650000 0.960000 0.122694
v -0.699000 0.960000 0.207565
v -0.650000 0.960000 0.292435
v -0.552000 0.960000 0.292435
v -0.552000 0.940000 0.292435
v -0.650000 0.940000 0.292435
v -0.699000 0.940000 0.207565
v -0.650000 0.940000 0.122694
v -0.552000 0.940000 0.122694
v -0.503000 0.940000 0.207565
v -0.523000 1.100000 0.207565
v -0.562000 1.100000 0.140015
v -0.640000 1.100000 0.140015
v -0.679000 1.100000 0.207565
v -0.640000 1.100000 0.275115
v -0.562000 1.100000 0.275115
v -0.562000 1.080000 0.275115
v -0.640000 1.080000 0.275115
v -0.679000 1.080000 0.207565
v -0.640000 1.080000 0.140015
v -0.562000 1.080000 0.140015
v -0.523000 1.080000 0.207565
v -0.509000 1.240000 0.207565
v -0.555000 1.240000 0.127890
v -0.647000 1.240000 0.127890
v -0.693000 1.240000 0.207565
v -0.647000 1.240000 0.287239
v -0.555000 1.240000 0.287239
v -0.555000 1.220000 0.287239
v -0.647000 1.220000 0.287239
v -0.693000 1.220000 0.207565
v -0.647000 1.220000 0.127890
v -0.555000 1.220000 0.127890
v -0.509000 1.220000 0.207565
v -0.529000 1.380000 0.207565
v -0.565000 1.380000 0.145211
v -0.637000 1.380000 0.145211
v -0.673000 1.380000 0.207565
v -0.637000 1.380000 0.269919
v -0.565000 1.380000 0.269919
v -0.565000 1.360000 0.269919
v -0.637000 1.360000 0.269919
v -0.673000 1.360000 0.207565
v -0.637000 1.360000 0.145211
v -0.565000 1.360000 0.145211
v -0.529000 1.360000 0.207565
v -0.513000 1.520000 0.207565
v -0.557000 1.520000 0.131355
v -0.645000 1.520000 0.131355
v -0.689000 1.520000 0.207565
v -0.645000 1.520000 0.283775
v -0.557000 1.520000 0.283775
v -0.557000 1.500000 0.283775
v -0.645000 1.500000 0.283775
v -0.689000 1.500000 0.207565
v -0.645000 1.500000 0.131355
v -0.557000 1.500000 0.131355
v -0.513000 1.500000 0.207565
v -0.533000 1.760000 0.207565
v -0.567000 1.760000 0.148675
v -0.635000 1.760000 0.148675
v -0.669000 1.760000 0.207565
v -0.635000 1.760000 0.266454
v -0.567000 1.760000 0.266454
vn -0.0000 -1.0000 -0.0000
vn -0.0000 1.0000 -0.0000
vn -0.0000 -0.0000 1.0000
vn -0.0000 -0.0000 -1.0000
vn -1.0000 -0.0000 -0.0000
vn 1.0000 -0.0000 -0.0000
vn 0.9808 0.1951 -0.0000
vn -0.9808 -0.1951 -0.0000
vn 0.8315 0.5556 -0.0000
vn -0.8315 -0.5556 -0.0000
vn 0.5556 0.8315 -0.0000
vn -0.5556 -0.8315 -0.0000
vn 0.1951 0.9808 -0.0000
vn -0.1951 -0.9808 -0.0000
vn -0.1951 0.9808 -0.0000
vn 0.1951 -0.9808 -0.0000
vn -0.5556 0.8315 -0.0000
vn 0.5556 -0.8315 -0.0000
vn -0.8315 0.5556 -0.0000
vn 0.8315 -0.5556 -0.0000
vn -0.9808 0.1951 -0.0000
vn 0.9808 -0.1951 -0.0000
vn 0.8610 -0.1076 -0.4971
vn -0.0000 -0.1076 -0.9942
vn -0.8610 -0.1076 -0.4971
vn -0.8610 -0.1076 0.4971
vn -0.0000 -0.1076 0.9942
vn 0.8610 -0.1076 0.4971
vn 0.8582 0.1341 -0.4955
vn -0.0000 0.1341 -0.9910
vn -0.8582 0.1341 -0.4955
vn -0.8582 0.1341 0.4955
vn -0.0000 0.1341 0.9910
vn 0.8582 0.1341 0.4955
vn 0.8562 -0.1498 -0.4944
vn -0.0000 -0.1498 -0.9887
vn -0.8562 -0.1498 -0.4944
vn -0.8562 -0.1498 0.4944
vn -0.0000 -0.1498 0.9887
vn 0.8562 -0.1498 0.4944
vn 0.8610 0.1076 -0.4971
vn -0.0000 0.1076 -0.9942
vn -0.8610 0.1076 -0.4971
vn -0.8610 0.1076 0.4971
vn -0.0000 0.1076 0.9942
vn 0.8610 0.1076 0.4971
vn 0.8635 -0.0756 -0.4986
vn -0.0000 -0.0756 -0.9971
vn -0.8635 -0.0756 -0.4986
vn -0.8635 -0.0756 0.4986
vn -0.0000 -0.0756 0.9971
vn 0.8635 -0.0756 0.4986
vn 0.8628 -0.0863 -0.4981
vn -0.0000 -0.0863 -0.9963
vn -0.8628 -0.0863 -0.4981
vn -0.8628 -0.0863 0.4981
vn -0.0000 -0.0863 0.9963
vn 0.8628 -0.0863 0.4981
vn 0.8641 0.0665 -0.4989
vn -0.0000 0.0665 -0.9978
vn -0.8641 0.0665 -0.4989
vn -0.8641 0.0665 0.4989
vn -0.0000 0.0665 0.9978
vn 0.8641 0.0665 0.4989
vt 0.812500 0.312500
vt 0.437500 0.562500
s 0
usemtl FN_Atlas
f 1/1/1 2/1/1 3/1/1 4/1/1
f 5/1/2 6/1/2 7/1/2 8/1/2
f 1/1/3 4/1/3 6/1/3 5/1/3
f 3/1/4 2/1/4 8/1/4 7/1/4
f 1/1/5 5/1/5 8/1/5 2/1/5
f 4/1/6 3/1/6 7/1/6 6/1/6
f 9/1/1 10/1/1 11/1/1 12/1/1
f 13/1/2 14/1/2 15/1/2 16/1/2
f 9/1/3 12/1/3 14/1/3 13/1/3
f 11/1/4 10/1/4 16/1/4 15/1/4
f 9/1/5 13/1/5 16/1/5 10/1/5
f 12/1/6 11/1/6 15/1/6 14/1/6
f 17/1/1 18/1/1 19/1/1 20/1/1
f 21/1/2 22/1/2 23/1/2 24/1/2
f 17/1/3 20/1/3 22/1/3 21/1/3
f 19/1/4 18/1/4 24/1/4 23/1/4
f 17/1/5 21/1/5 24/1/5 18/1/5
f 20/1/6 19/1/6 23/1/6 22/1/6
f 25/1/1 26/1/1 27/1/1 28/1/1
f 29/1/2 30/1/2 31/1/2 32/1/2
f 25/1/3 28/1/3 30/1/3 29/1/3
f 27/1/4 26/1/4 32/1/4 31/1/4
f 25/1/5 29/1/5 32/1/5 26/1/5
f 28/1/6 27/1/6 31/1/6 30/1/6
f 33/1/1 34/1/1 35/1/1 36/1/1
f 37/1/2 38/1/2 39/1/2 40/1/2
f 33/1/3 36/1/3 38/1/3 37/1/3
f 35/1/4 34/1/4 40/1/4 39/1/4
f 33/1/5 37/1/5 40/1/5 34/1/5
f 36/1/6 35/1/6 39/1/6 38/1/6
f 41/1/1 42/1/1 43/1/1 44/1/1
f 45/1/2 46/1/2 47/1/2 48/1/2
f 41/1/3 44/1/3 46/1/3 45/1/3
f 43/1/4 42/1/4 48/1/4 47/1/4
f 41/1/5 45/1/5 48/1/5 42/1/5
f 44/1/6 43/1/6 47/1/6 46/1/6
f 49/1/1 50/1/1 51/1/1 52/1/1
f 53/1/2 54/1/2 55/1/2 56/1/2
f 49/1/3 52/1/3 54/1/3 53/1/3
f 51/1/4 50/1/4 56/1/4 55/1/4
f 49/1/5 53/1/5 56/1/5 50/1/5
f 52/1/6 51/1/6 55/1/6 54/1/6
f 57/1/1 58/1/1 59/1/1 60/1/1
f 61/1/2 62/1/2 63/1/2 64/1/2
f 57/1/3 60/1/3 62/1/3 61/1/3
f 59/1/4 58/1/4 64/1/4 63/1/4
f 57/1/5 61/1/5 64/1/5 58/1/5
f 60/1/6 59/1/6 63/1/6 62/1/6
f 65/1/1 66/1/1 67/1/1 68/1/1
f 69/1/2 70/1/2 71/1/2 72/1/2
f 65/1/3 68/1/3 70/1/3 69/1/3
f 67/1/4 66/1/4 72/1/4 71/1/4
f 65/1/5 69/1/5 72/1/5 66/1/5
f 68/1/6 67/1/6 71/1/6 70/1/6
f 73/1/1 74/1/1 75/1/1 76/1/1
f 77/1/2 78/1/2 79/1/2 80/1/2
f 73/1/3 76/1/3 78/1/3 77/1/3
f 75/1/4 74/1/4 80/1/4 79/1/4
f 73/1/5 77/1/5 80/1/5 74/1/5
f 76/1/6 75/1/6 79/1/6 78/1/6
f 81/1/1 82/1/1 83/1/1 84/1/1
f 85/1/2 86/1/2 87/1/2 88/1/2
f 81/1/3 84/1/3 86/1/3 85/1/3
f 83/1/4 82/1/4 88/1/4 87/1/4
f 81/1/5 85/1/5 88/1/5 82/1/5
f 84/1/6 83/1/6 87/1/6 86/1/6
f 89/1/1 90/1/1 91/1/1 92/1/1
f 93/1/2 94/1/2 95/1/2 96/1/2
f 89/1/3 92/1/3 94/1/3 93/1/3
f 91/1/4 90/1/4 96/1/4 95/1/4
f 89/1/5 93/1/5 96/1/5 90/1/5
f 92/1/6 91/1/6 95/1/6 94/1/6
f 97/1/1 98/1/1 99/1/1 100/1/1
f 101/1/2 102/1/2 103/1/2 104/1/2
f 97/1/3 100/1/3 102/1/3 101/1/3
f 99/1/4 98/1/4 104/1/4 103/1/4
f 97/1/5 101/1/5 104/1/5 98/1/5
f 100/1/6 99/1/6 103/1/6 102/1/6
f 105/1/1 106/1/1 107/1/1 108/1/1
f 109/1/2 110/1/2 111/1/2 112/1/2
f 105/1/3 108/1/3 110/1/3 109/1/3
f 107/1/4 106/1/4 112/1/4 111/1/4
f 105/1/5 109/1/5 112/1/5 106/1/5
f 108/1/6 107/1/6 111/1/6 110/1/6
f 113/1/3 114/1/3 115/1/3 116/1/3
f 117/1/4 118/1/4 119/1/4 120/1/4
f 120/1/7 119/1/7 114/1/7 113/1/7
f 116/1/8 115/1/8 118/1/8 117/1/8
f 114/1/3 121/1/3 122/1/3 115/1/3
f 118/1/4 123/1/4 124/1/4 119/1/4
f 119/1/9 124/1/9 121/1/9 114/1/9
f 115/1/10 122/1/10 123/1/10 118/1/10
f 121/1/3 125/1/3 126/1/3 122/1/3
f 123/1/4 127/1/4 128/1/4 124/1/4
f 124/1/11 128/1/11 125/1/11 121/1/11
f 122/1/12 126/1/12 127/1/12 123/1/12
f 125/1/3 129/1/3 130/1/3 126/1/3
f 127/1/4 131/1/4 132/1/4 128/1/4
f 128/1/13 132/1/13 129/1/13 125/1/13
f 126/1/14 130/1/14 131/1/14 127/1/14
f 129/1/3 133/1/3 134/1/3 130/1/3
f 131/1/4 135/1/4 136/1/4 132/1/4
f 132/1/15 136/1/15 133/1/15 129/1/15
f 130/1/16 134/1/16 135/1/16 131/1/16
f 133/1/3 137/1/3 138/1/3 134/1/3
f 135/1/4 139/1/4 140/1/4 136/1/4
f 136/1/17 140/1/17 137/1/17 133/1/17
f 134/1/18 138/1/18 139/1/18 135/1/18
f 137/1/3 141/1/3 142/1/3 138/1/3
f 139/1/4 143/1/4 144/1/4 140/1/4
f 140/1/19 144/1/19 141/1/19 137/1/19
f 138/1/20 142/1/20 143/1/20 139/1/20
f 141/1/3 145/1/3 146/1/3 142/1/3
f 143/1/4 147/1/4 148/1/4 144/1/4
f 144/1/21 148/1/21 145/1/21 141/1/21
f 142/1/22 146/1/22 147/1/22 143/1/22
f 113/1/1 116/1/1 117/1/1 120/1/1
f 148/1/1 147/1/1 146/1/1 145/1/1
f 149/1/3 150/1/3 151/1/3 152/1/3
f 153/1/4 154/1/4 155/1/4 156/1/4
f 156/1/7 155/1/7 150/1/7 149/1/7
f 152/1/8 151/1/8 154/1/8 153/1/8
f 150/1/3 157/1/3 158/1/3 151/1/3
f 154/1/4 159/1/4 160/1/4 155/1/4
f 155/1/9 160/1/9 157/1/9 150/1/9
f 151/1/10 158/1/10 159/1/10 154/1/10
f 157/1/3 161/1/3 162/1/3 158/1/3
f 159/1/4 163/1/4 164/1/4 160/1/4
f 160/1/11 164/1/11 161/1/11 157/1/11
f 158/1/12 162/1/12 163/1/12 159/1/12
f 161/1/3 165/1/3 166/1/3 162/1/3
f 163/1/4 167/1/4 168/1/4 164/1/4
f 164/1/13 168/1/13 165/1/13 161/1/13
f 162/1/14 166/1/14 167/1/14 163/1/14
f 165/1/3 169/1/3 170/1/3 166/1/3
f 167/1/4 171/1/4 172/1/4 168/1/4
f 168/1/15 172/1/15 169/1/15 165/1/15
f 166/1/16 170/1/16 171/1/16 167/1/16
f 169/1/3 173/1/3 174/1/3 170/1/3
f 171/1/4 175/1/4 176/1/4 172/1/4
f 172/1/17 176/1/17 173/1/17 169/1/17
f 170/1/18 174/1/18 175/1/18 171/1/18
f 173/1/3 177/1/3 178/1/3 174/1/3
f 175/1/4 179/1/4 180/1/4 176/1/4
f 176/1/19 180/1/19 177/1/19 173/1/19
f 174/1/20 178/1/20 179/1/20 175/1/20
f 177/1/3 181/1/3 182/1/3 178/1/3
f 179/1/4 183/1/4 184/1/4 180/1/4
f 180/1/21 184/1/21 181/1/21 177/1/21
f 178/1/22 182/1/22 183/1/22 179/1/22
f 149/1/1 152/1/1 153/1/1 156/1/1
f 184/1/1 183/1/1 182/1/1 181/1/1
f 185/1/1 186/1/1 187/1/1 188/1/1
f 189/1/2 190/1/2 191/1/2 192/1/2
f 185/1/3 188/1/3 190/1/3 189/1/3
f 187/1/4 186/1/4 192/1/4 191/1/4
f 185/1/5 189/1/5 192/1/5 186/1/5
f 188/1/6 187/1/6 191/1/6 190/1/6
f 193/1/1 194/1/1 195/1/1 196/1/1
f 197/1/2 198/1/2 199/1/2 200/1/2
f 193/1/3 196/1/3 198/1/3 197/1/3
f 195/1/4 194/1/4 200/1/4 199/1/4
f 193/1/5 197/1/5 200/1/5 194/1/5
f 196/1/6 195/1/6 199/1/6 198/1/6
f 201/2/1 202/2/1 203/2/1 204/2/1 205/2/1 206/2/1
f 207/2/2 208/2/2 209/2/2 210/2/2 211/2/2 212/2/2
f 206/2/23 205/2/23 208/2/23 207/2/23
f 205/2/24 204/2/24 209/2/24 208/2/24
f 204/2/25 203/2/25 210/2/25 209/2/25
f 203/2/26 202/2/26 211/2/26 210/2/26
f 202/2/27 201/2/27 212/2/27 211/2/27
f 201/2/28 206/2/28 207/2/28 212/2/28
f 213/2/1 214/2/1 215/2/1 216/2/1 217/2/1 218/2/1
f 219/2/2 220/2/2 221/2/2 222/2/2 223/2/2 224/2/2
f 218/2/29 217/2/29 220/2/29 219/2/29
f 217/2/30 216/2/30 221/2/30 220/2/30
f 216/2/31 215/2/31 222/2/31 221/2/31
f 215/2/32 214/2/32 223/2/32 222/2/32
f 214/2/33 213/2/33 224/2/33 223/2/33
f 213/2/34 218/2/34 219/2/34 224/2/34
f 225/2/1 226/2/1 227/2/1 228/2/1 229/2/1 230/2/1
f 231/2/2 232/2/2 233/2/2 234/2/2 235/2/2 236/2/2
f 230/2/35 229/2/35 232/2/35 231/2/35
f 229/2/36 228/2/36 233/2/36 232/2/36
f 228/2/37 227/2/37 234/2/37 233/2/37
f 227/2/38 226/2/38 235/2/38 234/2/38
f 226/2/39 225/2/39 236/2/39 235/2/39
f 225/2/40 230/2/40 231/2/40 236/2/40
f 237/2/1 238/2/1 239/2/1 240/2/1 241/2/1 242/2/1
f 243/2/2 244/2/2 245/2/2 246/2/2 247/2/2 248/2/2
f 242/2/41 241/2/41 244/2/41 243/2/41
f 241/2/42 240/2/42 245/2/42 244/2/42
f 240/2/43 239/2/43 246/2/43 245/2/43
f 239/2/44 238/2/44 247/2/44 246/2/44
f 238/2/45 237/2/45 248/2/45 247/2/45
f 237/2/46 242/2/46 243/2/46 248/2/46
f 249/2/1 250/2/1 251/2/1 252/2/1 253/2/1 254/2/1
f 255/2/2 256/2/2 257/2/2 258/2/2 259/2/2 260/2/2
f 254/2/47 253/2/47 256/2/47 255/2/47
f 253/2/48 252/2/48 257/2/48 256/2/48
f 252/2/49 251/2/49 258/2/49 257/2/49
f 251/2/50 250/2/50 259/2/50 258/2/50
f 250/2/51 249/2/51 260/2/51 259/2/51
f 249/2/52 254/2/52 255/2/52 260/2/52
f 261/2/1 262/2/1 263/2/1 264/2/1 265/2/1 266/2/1
f 267/2/2 268/2/2 269/2/2 270/2/2 271/2/2 272/2/2
f 266/2/41 265/2/41 268/2/41 267/2/41
f 265/2/42 264/2/42 269/2/42 268/2/42
f 264/2/43 263/2/43 270/2/43 269/2/43
f 263/2/44 262/2/44 271/2/44 270/2/44
f 262/2/45 261/2/45 272/2/45 271/2/45
f 261/2/46 266/2/46 267/2/46 272/2/46
f 273/2/1 274/2/1 275/2/1 276/2/1 277/2/1 278/2/1
f 279/2/2 280/2/2 281/2/2 282/2/2 283/2/2 284/2/2
f 278/2/53 277/2/53 280/2/53 279/2/53
f 277/2/54 276/2/54 281/2/54 280/2/54
f 276/2/55 275/2/55 282/2/55 281/2/55
f 275/2/56 274/2/56 283/2/56 282/2/56
f 274/2/57 273/2/57 284/2/57 283/2/57
f 273/2/58 278/2/58 279/2/58 284/2/58
f 285/2/1 286/2/1 287/2/1 288/2/1 289/2/1 290/2/1
f 291/2/2 292/2/2 293/2/2 294/2/2 295/2/2 296/2/2
f 290/2/59 289/2/59 292/2/59 291/2/59
f 289/2/60 288/2/60 293/2/60 292/2/60
f 288/2/61 287/2/61 294/2/61 293/2/61
f 287/2/62 286/2/62 295/2/62 294/2/62
f 286/2/63 285/2/63 296/2/63 295/2/63
f 285/2/64 290/2/64 291/2/64 296/2/64
