# Blender 5.2.0 LTS
# www.blender.org
mtllib FN_Bookcase_Barrister.mtl
o FN_Bookcase_Barrister
v -0.450000 0.000000 0.130000
v -0.450000 0.000000 -0.190000
v 0.450000 0.000000 -0.190000
v 0.450000 0.000000 0.130000
v -0.450000 0.090000 0.130000
v 0.450000 0.090000 0.130000
v 0.450000 0.090000 -0.190000
v -0.450000 0.090000 -0.190000
v -0.440000 0.090000 0.120000
v -0.440000 0.090000 -0.190000
v -0.412000 0.090000 -0.190000
v -0.412000 0.090000 0.120000
v -0.440000 0.386000 0.120000
v -0.412000 0.386000 0.120000
v -0.412000 0.386000 -0.190000
v -0.440000 0.386000 -0.190000
v 0.412000 0.090000 0.120000
v 0.412000 0.090000 -0.190000
v 0.440000 0.090000 -0.190000
v 0.440000 0.090000 0.120000
v 0.412000 0.386000 0.120000
v 0.440000 0.386000 0.120000
v 0.440000 0.386000 -0.190000
v 0.412000 0.386000 -0.190000
v -0.412000 0.090000 -0.162000
v 0.412000 0.090000 -0.162000
v -0.412000 0.386000 -0.162000
v 0.412000 0.386000 -0.162000
v -0.440000 0.110000 0.120000
v 0.440000 0.110000 0.120000
v 0.440000 0.110000 -0.190000
v -0.440000 0.110000 -0.190000
v -0.450000 0.386000 0.130000
v -0.450000 0.386000 -0.190000
v 0.450000 0.386000 -0.190000
v 0.450000 0.386000 0.130000
v -0.450000 0.410000 0.130000
v 0.450000 0.410000 0.130000
v 0.450000 0.410000 -0.190000
v -0.450000 0.410000 -0.190000
v -0.412000 0.354000 0.100000
v -0.412000 0.354000 -0.170000
v -0.404000 0.354000 -0.170000
v -0.404000 0.354000 0.100000
v -0.412000 0.374000 0.100000
v -0.404000 0.374000 0.100000
v -0.404000 0.374000 -0.170000
v -0.412000 0.374000 -0.170000
v 0.404000 0.354000 0.100000
v 0.404000 0.354000 -0.170000
v 0.412000 0.354000 -0.170000
v 0.412000 0.354000 0.100000
v 0.404000 0.374000 0.100000
v 0.412000 0.374000 0.100000
v 0.412000 0.374000 -0.170000
v 0.404000 0.374000 -0.170000
v -0.416000 0.104000 0.122000
v -0.416000 0.104000 0.110000
v 0.416000 0.104000 0.110000
v 0.416000 0.104000 0.122000
v -0.416000 0.134000 0.122000
v 0.416000 0.134000 0.122000
v 0.416000 0.134000 0.110000
v -0.416000 0.134000 0.110000
v -0.416000 0.352000 0.122000
v -0.416000 0.352000 0.110000
v 0.416000 0.352000 0.110000
v 0.416000 0.352000 0.122000
v -0.416000 0.382000 0.122000
v 0.416000 0.382000 0.122000
v 0.416000 0.382000 0.110000
v -0.416000 0.382000 0.110000
v -0.386000 0.104000 0.110000
v -0.386000 0.104000 0.122000
v -0.386000 0.382000 0.122000
v -0.386000 0.382000 0.110000
v 0.386000 0.104000 0.122000
v 0.386000 0.104000 0.110000
v 0.386000 0.382000 0.122000
v 0.386000 0.382000 0.110000
v -0.386000 0.134000 0.119000
v -0.386000 0.134000 0.113000
v 0.386000 0.134000 0.113000
v 0.386000 0.134000 0.119000
v -0.386000 0.352000 0.119000
v 0.386000 0.352000 0.119000
v 0.386000 0.352000 0.113000
v -0.386000 0.352000 0.113000
v -0.030000 0.112000 0.134000
v -0.030000 0.112000 0.122000
v 0.030000 0.112000 0.122000
v 0.030000 0.112000 0.134000
v -0.030000 0.130000 0.134000
v 0.030000 0.130000 0.134000
v 0.030000 0.130000 0.122000
v -0.030000 0.130000 0.122000
v -0.440000 0.410000 0.120000
v -0.440000 0.410000 -0.190000
v -0.412000 0.410000 -0.190000
v -0.412000 0.410000 0.120000
v -0.440000 0.706000 0.120000
v -0.412000 0.706000 0.120000
v -0.412000 0.706000 -0.190000
v -0.440000 0.706000 -0.190000
v 0.412000 0.410000 0.120000
v 0.412000 0.410000 -0.190000
v 0.440000 0.410000 -0.190000
v 0.440000 0.410000 0.120000
v 0.412000 0.706000 0.120000
v 0.440000 0.706000 0.120000
v 0.440000 0.706000 -0.190000
v 0.412000 0.706000 -0.190000
v -0.412000 0.410000 -0.162000
v 0.412000 0.410000 -0.162000
v -0.412000 0.706000 -0.162000
v 0.412000 0.706000 -0.162000
v -0.440000 0.430000 0.120000
v 0.440000 0.430000 0.120000
v 0.440000 0.430000 -0.190000
v -0.440000 0.430000 -0.190000
v -0.450000 0.706000 0.130000
v -0.450000 0.706000 -0.190000
v 0.450000 0.706000 -0.190000
v 0.450000 0.706000 0.130000
v -0.450000 0.730000 0.130000
v 0.450000 0.730000 0.130000
v 0.450000 0.730000 -0.190000
v -0.450000 0.730000 -0.190000
v -0.412000 0.674000 0.100000
v -0.412000 0.674000 -0.170000
v -0.404000 0.674000 -0.170000
v -0.404000 0.674000 0.100000
v -0.412000 0.694000 0.100000
v -0.404000 0.694000 0.100000
v -0.404000 0.694000 -0.170000
v -0.412000 0.694000 -0.170000
v 0.404000 0.674000 0.100000
v 0.404000 0.674000 -0.170000
v 0.412000 0.674000 -0.170000
v 0.412000 0.674000 0.100000
v 0.404000 0.694000 0.100000
v 0.412000 0.694000 0.100000
v 0.412000 0.694000 -0.170000
v 0.404000 0.694000 -0.170000
v -0.416000 0.678000 0.200000
v -0.416000 0.678000 0.170000
v 0.416000 0.678000 0.170000
v 0.416000 0.678000 0.200000
v -0.416000 0.690000 0.200000
v 0.416000 0.690000 0.200000
v 0.416000 0.690000 0.170000
v -0.416000 0.690000 0.170000
v -0.416000 0.678000 -0.010000
v -0.416000 0.678000 -0.040000
v 0.416000 0.678000 -0.040000
v 0.416000 0.678000 -0.010000
v -0.416000 0.690000 -0.010000
v 0.416000 0.690000 -0.010000
v 0.416000 0.690000 -0.040000
v -0.416000 0.690000 -0.040000
v -0.386000 0.678000 -0.040000
v -0.386000 0.678000 0.200000
v -0.386000 0.690000 0.200000
v -0.386000 0.690000 -0.040000
v 0.386000 0.678000 0.200000
v 0.386000 0.678000 -0.040000
v 0.386000 0.690000 0.200000
v 0.386000 0.690000 -0.040000
v -0.386000 0.681000 0.170000
v -0.386000 0.681000 -0.010000
v 0.386000 0.681000 -0.010000
v 0.386000 0.681000 0.170000
v -0.386000 0.687000 0.170000
v 0.386000 0.687000 0.170000
v 0.386000 0.687000 -0.010000
v -0.386000 0.687000 -0.010000
v -0.030000 0.666000 0.200000
v -0.030000 0.666000 0.182000
v 0.030000 0.666000 0.182000
v 0.030000 0.666000 0.200000
v -0.030000 0.678000 0.200000
v 0.030000 0.678000 0.200000
v 0.030000 0.678000 0.182000
v -0.030000 0.678000 0.182000
v -0.440000 0.730000 0.120000
v -0.440000 0.730000 -0.190000
v -0.412000 0.730000 -0.190000
v -0.412000 0.730000 0.120000
v -0.440000 1.026000 0.120000
v -0.412000 1.026000 0.120000
v -0.412000 1.026000 -0.190000
v -0.440000 1.026000 -0.190000
v 0.412000 0.730000 0.120000
v 0.412000 0.730000 -0.190000
v 0.440000 0.730000 -0.190000
v 0.440000 0.730000 0.120000
v 0.412000 1.026000 0.120000
v 0.440000 1.026000 0.120000
v 0.440000 1.026000 -0.190000
v 0.412000 1.026000 -0.190000
v -0.412000 0.730000 -0.162000
v 0.412000 0.730000 -0.162000
v -0.412000 1.026000 -0.162000
v 0.412000 1.026000 -0.162000
v -0.440000 0.750000 0.120000
v 0.440000 0.750000 0.120000
v 0.440000 0.750000 -0.190000
v -0.440000 0.750000 -0.190000
v -0.450000 1.026000 0.130000
v -0.450000 1.026000 -0.190000
v 0.450000 1.026000 -0.190000
v 0.450000 1.026000 0.130000
v -0.450000 1.050000 0.130000
v 0.450000 1.050000 0.130000
v 0.450000 1.050000 -0.190000
v -0.450000 1.050000 -0.190000
v -0.412000 0.994000 0.100000
v -0.412000 0.994000 -0.170000
v -0.404000 0.994000 -0.170000
v -0.404000 0.994000 0.100000
v -0.412000 1.014000 0.100000
v -0.404000 1.014000 0.100000
v -0.404000 1.014000 -0.170000
v -0.412000 1.014000 -0.170000
v 0.404000 0.994000 0.100000
v 0.404000 0.994000 -0.170000
v 0.412000 0.994000 -0.170000
v 0.412000 0.994000 0.100000
v 0.404000 1.014000 0.100000
v 0.412000 1.014000 0.100000
v 0.412000 1.014000 -0.170000
v 0.404000 1.014000 -0.170000
v -0.416000 0.744000 0.122000
v -0.416000 0.744000 0.110000
v 0.416000 0.744000 0.110000
v 0.416000 0.744000 0.122000
v -0.416000 0.774000 0.122000
v 0.416000 0.774000 0.122000
v 0.416000 0.774000 0.110000
v -0.416000 0.774000 0.110000
v -0.416000 0.992000 0.122000
v -0.416000 0.992000 0.110000
v 0.416000 0.992000 0.110000
v 0.416000 0.992000 0.122000
v -0.416000 1.022000 0.122000
v 0.416000 1.022000 0.122000
v 0.416000 1.022000 0.110000
v -0.416000 1.022000 0.110000
v -0.386000 0.744000 0.110000
v -0.386000 0.744000 0.122000
v -0.386000 1.022000 0.122000
v -0.386000 1.022000 0.110000
v 0.386000 0.744000 0.122000
v 0.386000 0.744000 0.110000
v 0.386000 1.022000 0.122000
v 0.386000 1.022000 0.110000
v -0.386000 0.774000 0.119000
v -0.386000 0.774000 0.113000
v 0.386000 0.774000 0.113000
v 0.386000 0.774000 0.119000
v -0.386000 0.992000 0.119000
v 0.386000 0.992000 0.119000
v 0.386000 0.992000 0.113000
v -0.386000 0.992000 0.113000
v -0.030000 0.752000 0.134000
v -0.030000 0.752000 0.122000
v 0.030000 0.752000 0.122000
v 0.030000 0.752000 0.134000
v -0.030000 0.770000 0.134000
v 0.030000 0.770000 0.134000
v 0.030000 0.770000 0.122000
v -0.030000 0.770000 0.122000
v -0.462000 1.050000 0.140000
v -0.462000 1.050000 -0.200000
v 0.462000 1.050000 -0.200000
v 0.462000 1.050000 0.140000
v -0.462000 1.100000 0.140000
v 0.462000 1.100000 0.140000
v 0.462000 1.100000 -0.200000
v -0.462000 1.100000 -0.200000
vn -0.0000 -1.0000 -0.0000
vn -0.0000 1.0000 -0.0000
vn -0.0000 -0.0000 1.0000
vn -0.0000 -0.0000 -1.0000
vn -1.0000 -0.0000 -0.0000
vn 1.0000 -0.0000 -0.0000
vt 0.812500 0.937500
vt 0.312500 0.312500
vt 0.437500 0.937500
vt 0.437500 0.187500
s 0
usemtl FN_Atlas
f 1/1/1 2/1/1 3/1/1 4/1/1
f 5/1/2 6/1/2 7/1/2 8/1/2
f 1/1/3 4/1/3 6/1/3 5/1/3
f 3/1/4 2/1/4 8/1/4 7/1/4
f 1/1/5 5/1/5 8/1/5 2/1/5
f 4/1/6 3/1/6 7/1/6 6/1/6
f 9/1/1 10/1/1 11/1/1 12/1/1
f 13/1/2 14/1/2 15/1/2 16/1/2
f 9/1/3 12/1/3 14/1/3 13/1/3
f 11/1/4 10/1/4 16/1/4 15/1/4
f 9/1/5 13/1/5 16/1/5 10/1/5
f 12/1/6 11/1/6 15/1/6 14/1/6
f 17/1/1 18/1/1 19/1/1 20/1/1
f 21/1/2 22/1/2 23/1/2 24/1/2
f 17/1/3 20/1/3 22/1/3 21/1/3
f 19/1/4 18/1/4 24/1/4 23/1/4
f 17/1/5 21/1/5 24/1/5 18/1/5
f 20/1/6 19/1/6 23/1/6 22/1/6
f 25/1/1 11/1/1 18/1/1 26/1/1
f 27/1/2 28/1/2 24/1/2 15/1/2
f 25/1/3 26/1/3 28/1/3 27/1/3
f 18/1/4 11/1/4 15/1/4 24/1/4
f 25/1/5 27/1/5 15/1/5 11/1/5
f 26/1/6 18/1/6 24/1/6 28/1/6
f 9/1/1 10/1/1 19/1/1 20/1/1
f 29/1/2 30/1/2 31/1/2 32/1/2
f 9/1/3 20/1/3 30/1/3 29/1/3
f 19/1/4 10/1/4 32/1/4 31/1/4
f 9/1/5 29/1/5 32/1/5 10/1/5
f 20/1/6 19/1/6 31/1/6 30/1/6
f 33/1/1 34/1/1 35/1/1 36/1/1
f 37/1/2 38/1/2 39/1/2 40/1/2
f 33/1/3 36/1/3 38/1/3 37/1/3
f 35/1/4 34/1/4 40/1/4 39/1/4
f 33/1/5 37/1/5 40/1/5 34/1/5
f 36/1/6 35/1/6 39/1/6 38/1/6
f 41/2/1 42/2/1 43/2/1 44/2/1
f 45/2/2 46/2/2 47/2/2 48/2/2
f 41/2/3 44/2/3 46/2/3 45/2/3
f 43/2/4 42/2/4 48/2/4 47/2/4
f 41/2/5 45/2/5 48/2/5 42/2/5
f 44/2/6 43/2/6 47/2/6 46/2/6
f 49/2/1 50/2/1 51/2/1 52/2/1
f 53/2/2 54/2/2 55/2/2 56/2/2
f 49/2/3 52/2/3 54/2/3 53/2/3
f 51/2/4 50/2/4 56/2/4 55/2/4
f 49/2/5 53/2/5 56/2/5 50/2/5
f 52/2/6 51/2/6 55/2/6 54/2/6
f 57/3/1 58/3/1 59/3/1 60/3/1
f 61/3/2 62/3/2 63/3/2 64/3/2
f 57/3/3 60/3/3 62/3/3 61/3/3
f 59/3/4 58/3/4 64/3/4 63/3/4
f 57/3/5 61/3/5 64/3/5 58/3/5
f 60/3/6 59/3/6 63/3/6 62/3/6
f 65/3/1 66/3/1 67/3/1 68/3/1
f 69/3/2 70/3/2 71/3/2 72/3/2
f 65/3/3 68/3/3 70/3/3 69/3/3
f 67/3/4 66/3/4 72/3/4 71/3/4
f 65/3/5 69/3/5 72/3/5 66/3/5
f 68/3/6 67/3/6 71/3/6 70/3/6
f 57/3/1 58/3/1 73/3/1 74/3/1
f 69/3/2 75/3/2 76/3/2 72/3/2
f 57/3/3 74/3/3 75/3/3 69/3/3
f 73/3/4 58/3/4 72/3/4 76/3/4
f 57/3/5 69/3/5 72/3/5 58/3/5
f 74/3/6 73/3/6 76/3/6 75/3/6
f 77/3/1 78/3/1 59/3/1 60/3/1
f 79/3/2 70/3/2 71/3/2 80/3/2
f 77/3/3 60/3/3 70/3/3 79/3/3
f 59/3/4 78/3/4 80/3/4 71/3/4
f 77/3/5 79/3/5 80/3/5 78/3/5
f 60/3/6 59/3/6 71/3/6 70/3/6
f 89/2/1 90/2/1 91/2/1 92/2/1
f 93/2/2 94/2/2 95/2/2 96/2/2
f 89/2/3 92/2/3 94/2/3 93/2/3
f 91/2/4 90/2/4 96/2/4 95/2/4
f 89/2/5 93/2/5 96/2/5 90/2/5
f 92/2/6 91/2/6 95/2/6 94/2/6
f 97/1/1 98/1/1 99/1/1 100/1/1
f 101/1/2 102/1/2 103/1/2 104/1/2
f 97/1/3 100/1/3 102/1/3 101/1/3
f 99/1/4 98/1/4 104/1/4 103/1/4
f 97/1/5 101/1/5 104/1/5 98/1/5
f 100/1/6 99/1/6 103/1/6 102/1/6
f 105/1/1 106/1/1 107/1/1 108/1/1
f 109/1/2 110/1/2 111/1/2 112/1/2
f 105/1/3 108/1/3 110/1/3 109/1/3
f 107/1/4 106/1/4 112/1/4 111/1/4
f 105/1/5 109/1/5 112/1/5 106/1/5
f 108/1/6 107/1/6 111/1/6 110/1/6
f 113/1/1 99/1/1 106/1/1 114/1/1
f 115/1/2 116/1/2 112/1/2 103/1/2
f 113/1/3 114/1/3 116/1/3 115/1/3
f 106/1/4 99/1/4 103/1/4 112/1/4
f 113/1/5 115/1/5 103/1/5 99/1/5
f 114/1/6 106/1/6 112/1/6 116/1/6
f 97/1/1 98/1/1 107/1/1 108/1/1
f 117/1/2 118/1/2 119/1/2 120/1/2
f 97/1/3 108/1/3 118/1/3 117/1/3
f 107/1/4 98/1/4 120/1/4 119/1/4
f 97/1/5 117/1/5 120/1/5 98/1/5
f 108/1/6 107/1/6 119/1/6 118/1/6
f 121/1/1 122/1/1 123/1/1 124/1/1
f 125/1/2 126/1/2 127/1/2 128/1/2
f 121/1/3 124/1/3 126/1/3 125/1/3
f 123/1/4 122/1/4 128/1/4 127/1/4
f 121/1/5 125/1/5 128/1/5 122/1/5
f 124/1/6 123/1/6 127/1/6 126/1/6
f 129/2/1 130/2/1 131/2/1 132/2/1
f 133/2/2 134/2/2 135/2/2 136/2/2
f 129/2/3 132/2/3 134/2/3 133/2/3
f 131/2/4 130/2/4 136/2/4 135/2/4
f 129/2/5 133/2/5 136/2/5 130/2/5
f 132/2/6 131/2/6 135/2/6 134/2/6
f 137/2/1 138/2/1 139/2/1 140/2/1
f 141/2/2 142/2/2 143/2/2 144/2/2
f 137/2/3 140/2/3 142/2/3 141/2/3
f 139/2/4 138/2/4 144/2/4 143/2/4
f 137/2/5 141/2/5 144/2/5 138/2/5
f 140/2/6 139/2/6 143/2/6 142/2/6
f 145/3/1 146/3/1 147/3/1 148/3/1
f 149/3/2 150/3/2 151/3/2 152/3/2
f 145/3/3 148/3/3 150/3/3 149/3/3
f 147/3/4 146/3/4 152/3/4 151/3/4
f 145/3/5 149/3/5 152/3/5 146/3/5
f 148/3/6 147/3/6 151/3/6 150/3/6
f 153/3/1 154/3/1 155/3/1 156/3/1
f 157/3/2 158/3/2 159/3/2 160/3/2
f 153/3/3 156/3/3 158/3/3 157/3/3
f 155/3/4 154/3/4 160/3/4 159/3/4
f 153/3/5 157/3/5 160/3/5 154/3/5
f 156/3/6 155/3/6 159/3/6 158/3/6
f 145/3/1 154/3/1 161/3/1 162/3/1
f 149/3/2 163/3/2 164/3/2 160/3/2
f 145/3/3 162/3/3 163/3/3 149/3/3
f 161/3/4 154/3/4 160/3/4 164/3/4
f 145/3/5 149/3/5 160/3/5 154/3/5
f 162/3/6 161/3/6 164/3/6 163/3/6
f 165/3/1 166/3/1 155/3/1 148/3/1
f 167/3/2 150/3/2 159/3/2 168/3/2
f 165/3/3 148/3/3 150/3/3 167/3/3
f 155/3/4 166/3/4 168/3/4 159/3/4
f 165/3/5 167/3/5 168/3/5 166/3/5
f 148/3/6 155/3/6 159/3/6 150/3/6
f 177/2/1 178/2/1 179/2/1 180/2/1
f 181/2/2 182/2/2 183/2/2 184/2/2
f 177/2/3 180/2/3 182/2/3 181/2/3
f 179/2/4 178/2/4 184/2/4 183/2/4
f 177/2/5 181/2/5 184/2/5 178/2/5
f 180/2/6 179/2/6 183/2/6 182/2/6
f 185/1/1 186/1/1 187/1/1 188/1/1
f 189/1/2 190/1/2 191/1/2 192/1/2
f 185/1/3 188/1/3 190/1/3 189/1/3
f 187/1/4 186/1/4 192/1/4 191/1/4
f 185/1/5 189/1/5 192/1/5 186/1/5
f 188/1/6 187/1/6 191/1/6 190/1/6
f 193/1/1 194/1/1 195/1/1 196/1/1
f 197/1/2 198/1/2 199/1/2 200/1/2
f 193/1/3 196/1/3 198/1/3 197/1/3
f 195/1/4 194/1/4 200/1/4 199/1/4
f 193/1/5 197/1/5 200/1/5 194/1/5
f 196/1/6 195/1/6 199/1/6 198/1/6
f 201/1/1 187/1/1 194/1/1 202/1/1
f 203/1/2 204/1/2 200/1/2 191/1/2
f 201/1/3 202/1/3 204/1/3 203/1/3
f 194/1/4 187/1/4 191/1/4 200/1/4
f 201/1/5 203/1/5 191/1/5 187/1/5
f 202/1/6 194/1/6 200/1/6 204/1/6
f 185/1/1 186/1/1 195/1/1 196/1/1
f 205/1/2 206/1/2 207/1/2 208/1/2
f 185/1/3 196/1/3 206/1/3 205/1/3
f 195/1/4 186/1/4 208/1/4 207/1/4
f 185/1/5 205/1/5 208/1/5 186/1/5
f 196/1/6 195/1/6 207/1/6 206/1/6
f 209/1/1 210/1/1 211/1/1 212/1/1
f 213/1/2 214/1/2 215/1/2 216/1/2
f 209/1/3 212/1/3 214/1/3 213/1/3
f 211/1/4 210/1/4 216/1/4 215/1/4
f 209/1/5 213/1/5 216/1/5 210/1/5
f 212/1/6 211/1/6 215/1/6 214/1/6
f 217/2/1 218/2/1 219/2/1 220/2/1
f 221/2/2 222/2/2 223/2/2 224/2/2
f 217/2/3 220/2/3 222/2/3 221/2/3
f 219/2/4 218/2/4 224/2/4 223/2/4
f 217/2/5 221/2/5 224/2/5 218/2/5
f 220/2/6 219/2/6 223/2/6 222/2/6
f 225/2/1 226/2/1 227/2/1 228/2/1
f 229/2/2 230/2/2 231/2/2 232/2/2
f 225/2/3 228/2/3 230/2/3 229/2/3
f 227/2/4 226/2/4 232/2/4 231/2/4
f 225/2/5 229/2/5 232/2/5 226/2/5
f 228/2/6 227/2/6 231/2/6 230/2/6
f 233/3/1 234/3/1 235/3/1 236/3/1
f 237/3/2 238/3/2 239/3/2 240/3/2
f 233/3/3 236/3/3 238/3/3 237/3/3
f 235/3/4 234/3/4 240/3/4 239/3/4
f 233/3/5 237/3/5 240/3/5 234/3/5
f 236/3/6 235/3/6 239/3/6 238/3/6
f 241/3/1 242/3/1 243/3/1 244/3/1
f 245/3/2 246/3/2 247/3/2 248/3/2
f 241/3/3 244/3/3 246/3/3 245/3/3
f 243/3/4 242/3/4 248/3/4 247/3/4
f 241/3/5 245/3/5 248/3/5 242/3/5
f 244/3/6 243/3/6 247/3/6 246/3/6
f 233/3/1 234/3/1 249/3/1 250/3/1
f 245/3/2 251/3/2 252/3/2 248/3/2
f 233/3/3 250/3/3 251/3/3 245/3/3
f 249/3/4 234/3/4 248/3/4 252/3/4
f 233/3/5 245/3/5 248/3/5 234/3/5
f 250/3/6 249/3/6 252/3/6 251/3/6
f 253/3/1 254/3/1 235/3/1 236/3/1
f 255/3/2 246/3/2 247/3/2 256/3/2
f 253/3/3 236/3/3 246/3/3 255/3/3
f 235/3/4 254/3/4 256/3/4 247/3/4
f 253/3/5 255/3/5 256/3/5 254/3/5
f 236/3/6 235/3/6 247/3/6 246/3/6
f 265/2/1 266/2/1 267/2/1 268/2/1
f 269/2/2 270/2/2 271/2/2 272/2/2
f 265/2/3 268/2/3 270/2/3 269/2/3
f 267/2/4 266/2/4 272/2/4 271/2/4
f 265/2/5 269/2/5 272/2/5 266/2/5
f 268/2/6 267/2/6 271/2/6 270/2/6
f 273/1/1 274/1/1 275/1/1 276/1/1
f 277/1/2 278/1/2 279/1/2 280/1/2
f 273/1/3 276/1/3 278/1/3 277/1/3
f 275/1/4 274/1/4 280/1/4 279/1/4
f 273/1/5 277/1/5 280/1/5 274/1/5
f 276/1/6 275/1/6 279/1/6 278/1/6
usemtl FN_Glass
f 81/4/1 82/4/1 83/4/1 84/4/1
f 85/4/2 86/4/2 87/4/2 88/4/2
f 81/4/3 84/4/3 86/4/3 85/4/3
f 83/4/4 82/4/4 88/4/4 87/4/4
f 81/4/5 85/4/5 88/4/5 82/4/5
f 84/4/6 83/4/6 87/4/6 86/4/6
f 169/4/1 170/4/1 171/4/1 172/4/1
f 173/4/2 174/4/2 175/4/2 176/4/2
f 169/4/3 172/4/3 174/4/3 173/4/3
f 171/4/4 170/4/4 176/4/4 175/4/4
f 169/4/5 173/4/5 176/4/5 170/4/5
f 172/4/6 171/4/6 175/4/6 174/4/6
f 257/4/1 258/4/1 259/4/1 260/4/1
f 261/4/2 262/4/2 263/4/2 264/4/2
f 257/4/3 260/4/3 262/4/3 261/4/3
f 259/4/4 258/4/4 264/4/4 263/4/4
f 257/4/5 261/4/5 264/4/5 258/4/5
f 260/4/6 259/4/6 263/4/6 262/4/6
