# Blender 5.2.0 LTS
# www.blender.org
mtllib FN_Booth_Banquette.mtl
o FN_Booth_Banquette
v -0.660000 0.000000 0.315000
v -0.660000 0.000000 -0.335000
v 0.660000 0.000000 -0.335000
v 0.660000 0.000000 0.315000
v -0.660000 0.110000 0.315000
v 0.660000 0.110000 0.315000
v 0.660000 0.110000 -0.335000
v -0.660000 0.110000 -0.335000
v -0.700000 0.100000 0.355000
v -0.700000 0.100000 -0.345000
v 0.700000 0.100000 -0.345000
v 0.700000 0.100000 0.355000
v -0.700000 0.436000 0.355000
v 0.700000 0.436000 0.355000
v 0.700000 0.436000 -0.345000
v -0.700000 0.436000 -0.345000
v -0.686000 0.450000 0.341000
v 0.686000 0.450000 0.341000
v 0.686000 0.450000 -0.331000
v -0.686000 0.450000 -0.331000
v -0.692000 0.420000 -0.305000
v 0.692000 0.420000 -0.305000
v 0.692000 0.420000 -0.185000
v -0.692000 0.420000 -0.185000
v -0.692000 1.090000 -0.225000
v 0.692000 1.090000 -0.225000
v 0.692000 1.090000 -0.345000
v -0.692000 1.090000 -0.345000
v -0.700000 1.078000 -0.211000
v -0.700000 1.078000 -0.355000
v 0.700000 1.078000 -0.355000
v 0.700000 1.078000 -0.211000
v -0.700000 1.150000 -0.211000
v 0.700000 1.150000 -0.211000
v 0.700000 1.150000 -0.355000
v -0.700000 1.150000 -0.355000
v -0.396000 0.640000 -0.206134
v -0.403029 0.656971 -0.206134
v -0.420000 0.664000 -0.206134
v -0.436971 0.656971 -0.206134
v -0.444000 0.640000 -0.206134
v -0.436971 0.623029 -0.206134
v -0.420000 0.616000 -0.206134
v -0.403029 0.623029 -0.206134
v -0.403029 0.623029 -0.186134
v -0.420000 0.616000 -0.186134
v -0.436971 0.623029 -0.186134
v -0.444000 0.640000 -0.186134
v -0.436971 0.656971 -0.186134
v -0.420000 0.664000 -0.186134
v -0.403029 0.656971 -0.186134
v -0.396000 0.640000 -0.186134
v 0.024000 0.640000 -0.206134
v 0.016971 0.656971 -0.206134
v 0.000000 0.664000 -0.206134
v -0.016971 0.656971 -0.206134
v -0.024000 0.640000 -0.206134
v -0.016971 0.623029 -0.206134
v -0.000000 0.616000 -0.206134
v 0.016971 0.623029 -0.206134
v 0.016971 0.623029 -0.186134
v -0.000000 0.616000 -0.186134
v -0.016971 0.623029 -0.186134
v -0.024000 0.640000 -0.186134
v -0.016971 0.656971 -0.186134
v 0.000000 0.664000 -0.186134
v 0.016971 0.656971 -0.186134
v 0.024000 0.640000 -0.186134
v 0.444000 0.640000 -0.206134
v 0.436971 0.656971 -0.206134
v 0.420000 0.664000 -0.206134
v 0.403029 0.656971 -0.206134
v 0.396000 0.640000 -0.206134
v 0.403029 0.623029 -0.206134
v 0.420000 0.616000 -0.206134
v 0.436971 0.623029 -0.206134
v 0.436971 0.623029 -0.186134
v 0.420000 0.616000 -0.186134
v 0.403029 0.623029 -0.186134
v 0.396000 0.640000 -0.186134
v 0.403029 0.656971 -0.186134
v 0.420000 0.664000 -0.186134
v 0.436971 0.656971 -0.186134
v 0.444000 0.640000 -0.186134
v -0.396000 0.880000 -0.220463
v -0.403029 0.896971 -0.220463
v -0.420000 0.904000 -0.220463
v -0.436971 0.896971 -0.220463
v -0.444000 0.880000 -0.220463
v -0.436971 0.863029 -0.220463
v -0.420000 0.856000 -0.220463
v -0.403029 0.863029 -0.220463
v -0.403029 0.863029 -0.200463
v -0.420000 0.856000 -0.200463
v -0.436971 0.863029 -0.200463
v -0.444000 0.880000 -0.200463
v -0.436971 0.896971 -0.200463
v -0.420000 0.904000 -0.200463
v -0.403029 0.896971 -0.200463
v -0.396000 0.880000 -0.200463
v 0.024000 0.880000 -0.220463
v 0.016971 0.896971 -0.220463
v 0.000000 0.904000 -0.220463
v -0.016971 0.896971 -0.220463
v -0.024000 0.880000 -0.220463
v -0.016971 0.863029 -0.220463
v -0.000000 0.856000 -0.220463
v 0.016971 0.863029 -0.220463
v 0.016971 0.863029 -0.200463
v -0.000000 0.856000 -0.200463
v -0.016971 0.863029 -0.200463
v -0.024000 0.880000 -0.200463
v -0.016971 0.896971 -0.200463
v 0.000000 0.904000 -0.200463
v 0.016971 0.896971 -0.200463
v 0.024000 0.880000 -0.200463
v 0.444000 0.880000 -0.220463
v 0.436971 0.896971 -0.220463
v 0.420000 0.904000 -0.220463
v 0.403029 0.896971 -0.220463
v 0.396000 0.880000 -0.220463
v 0.403029 0.863029 -0.220463
v 0.420000 0.856000 -0.220463
v 0.436971 0.863029 -0.220463
v 0.436971 0.863029 -0.200463
v 0.420000 0.856000 -0.200463
v 0.403029 0.863029 -0.200463
v 0.396000 0.880000 -0.200463
v 0.403029 0.896971 -0.200463
v 0.420000 0.904000 -0.200463
v 0.436971 0.896971 -0.200463
v 0.444000 0.880000 -0.200463
vn -0.0000 -1.0000 -0.0000
vn -0.0000 1.0000 -0.0000
vn -0.0000 -0.0000 1.0000
vn -0.0000 -0.0000 -1.0000
vn -1.0000 -0.0000 -0.0000
vn 1.0000 -0.0000 -0.0000
vn -0.0000 0.7071 0.7071
vn 0.7071 0.7071 -0.0000
vn -0.0000 0.7071 -0.7071
vn -0.7071 0.7071 -0.0000
vn -0.0000 0.0596 0.9982
vn -0.0000 -0.0596 -0.9982
vn 0.9239 0.3827 -0.0000
vn 0.3827 0.9239 -0.0000
vn -0.3827 0.9239 -0.0000
vn -0.9239 0.3827 -0.0000
vn -0.9239 -0.3827 -0.0000
vn -0.3827 -0.9239 -0.0000
vn 0.3827 -0.9239 -0.0000
vn 0.9239 -0.3827 -0.0000
vt 0.437500 0.937500
vt 0.562500 0.437500
vt 0.437500 0.312500
s 0
usemtl FN_Atlas
f 1/1/1 2/1/1 3/1/1 4/1/1
f 5/1/2 6/1/2 7/1/2 8/1/2
f 1/1/3 4/1/3 6/1/3 5/1/3
f 3/1/4 2/1/4 8/1/4 7/1/4
f 1/1/5 5/1/5 8/1/5 2/1/5
f 4/1/6 3/1/6 7/1/6 6/1/6
f 9/2/1 10/2/1 11/2/1 12/2/1
f 13/2/2 14/2/2 15/2/2 16/2/2
f 9/2/3 12/2/3 14/2/3 13/2/3
f 11/2/4 10/2/4 16/2/4 15/2/4
f 9/2/5 13/2/5 16/2/5 10/2/5
f 12/2/6 11/2/6 15/2/6 14/2/6
f 17/2/2 18/2/2 19/2/2 20/2/2
f 13/2/7 14/2/7 18/2/7 17/2/7
f 14/2/8 15/2/8 19/2/8 18/2/8
f 15/2/9 16/2/9 20/2/9 19/2/9
f 16/2/10 13/2/10 17/2/10 20/2/10
f 21/2/1 22/2/1 23/2/1 24/2/1
f 25/2/2 26/2/2 27/2/2 28/2/2
f 24/2/11 23/2/11 26/2/11 25/2/11
f 23/2/6 22/2/6 27/2/6 26/2/6
f 22/2/12 21/2/12 28/2/12 27/2/12
f 21/2/5 24/2/5 25/2/5 28/2/5
f 29/1/1 30/1/1 31/1/1 32/1/1
f 33/1/2 34/1/2 35/1/2 36/1/2
f 29/1/3 32/1/3 34/1/3 33/1/3
f 31/1/4 30/1/4 36/1/4 35/1/4
f 29/1/5 33/1/5 36/1/5 30/1/5
f 32/1/6 31/1/6 35/1/6 34/1/6
f 37/3/3 38/3/3 39/3/3 40/3/3 41/3/3 42/3/3 43/3/3 44/3/3
f 45/3/4 46/3/4 47/3/4 48/3/4 49/3/4 50/3/4 51/3/4 52/3/4
f 37/3/13 38/3/13 51/3/13 52/3/13
f 38/3/14 39/3/14 50/3/14 51/3/14
f 39/3/15 40/3/15 49/3/15 50/3/15
f 40/3/16 41/3/16 48/3/16 49/3/16
f 41/3/17 42/3/17 47/3/17 48/3/17
f 42/3/18 43/3/18 46/3/18 47/3/18
f 43/3/19 44/3/19 45/3/19 46/3/19
f 44/3/20 37/3/20 52/3/20 45/3/20
f 53/3/3 54/3/3 55/3/3 56/3/3 57/3/3 58/3/3 59/3/3 60/3/3
f 61/3/4 62/3/4 63/3/4 64/3/4 65/3/4 66/3/4 67/3/4 68/3/4
f 53/3/13 54/3/13 67/3/13 68/3/13
f 54/3/14 55/3/14 66/3/14 67/3/14
f 55/3/15 56/3/15 65/3/15 66/3/15
f 56/3/16 57/3/16 64/3/16 65/3/16
f 57/3/17 58/3/17 63/3/17 64/3/17
f 58/3/18 59/3/18 62/3/18 63/3/18
f 59/3/19 60/3/19 61/3/19 62/3/19
f 60/3/20 53/3/20 68/3/20 61/3/20
f 69/3/3 70/3/3 71/3/3 72/3/3 73/3/3 74/3/3 75/3/3 76/3/3
f 77/3/4 78/3/4 79/3/4 80/3/4 81/3/4 82/3/4 83/3/4 84/3/4
f 69/3/13 70/3/13 83/3/13 84/3/13
f 70/3/14 71/3/14 82/3/14 83/3/14
f 71/3/15 72/3/15 81/3/15 82/3/15
f 72/3/16 73/3/16 80/3/16 81/3/16
f 73/3/17 74/3/17 79/3/17 80/3/17
f 74/3/18 75/3/18 78/3/18 79/3/18
f 75/3/19 76/3/19 77/3/19 78/3/19
f 76/3/20 69/3/20 84/3/20 77/3/20
f 85/3/3 86/3/3 87/3/3 88/3/3 89/3/3 90/3/3 91/3/3 92/3/3
f 93/3/4 94/3/4 95/3/4 96/3/4 97/3/4 98/3/4 99/3/4 100/3/4
f 85/3/13 86/3/13 99/3/13 100/3/13
f 86/3/14 87/3/14 98/3/14 99/3/14
f 87/3/15 88/3/15 97/3/15 98/3/15
f 88/3/16 89/3/16 96/3/16 97/3/16
f 89/3/17 90/3/17 95/3/17 96/3/17
f 90/3/18 91/3/18 94/3/18 95/3/18
f 91/3/19 92/3/19 93/3/19 94/3/19
f 92/3/20 85/3/20 100/3/20 93/3/20
f 101/3/3 102/3/3 103/3/3 104/3/3 105/3/3 106/3/3 107/3/3 108/3/3
f 109/3/4 110/3/4 111/3/4 112/3/4 113/3/4 114/3/4 115/3/4 116/3/4
f 101/3/13 102/3/13 115/3/13 116/3/13
f 102/3/14 103/3/14 114/3/14 115/3/14
f 103/3/15 104/3/15 113/3/15 114/3/15
f 104/3/16 105/3/16 112/3/16 113/3/16
f 105/3/17 106/3/17 111/3/17 112/3/17
f 106/3/18 107/3/18 110/3/18 111/3/18
f 107/3/19 108/3/19 109/3/19 110/3/19
f 108/3/20 101/3/20 116/3/20 109/3/20
f 117/3/3 118/3/3 119/3/3 120/3/3 121/3/3 122/3/3 123/3/3 124/3/3
f 125/3/4 126/3/4 127/3/4 128/3/4 129/3/4 130/3/4 131/3/4 132/3/4
f 117/3/13 118/3/13 131/3/13 132/3/13
f 118/3/14 119/3/14 130/3/14 131/3/14
f 119/3/15 120/3/15 129/3/15 130/3/15
f 120/3/16 121/3/16 128/3/16 129/3/16
f 121/3/17 122/3/17 127/3/17 128/3/17
f 122/3/18 123/3/18 126/3/18 127/3/18
f 123/3/19 124/3/19 125/3/19 126/3/19
f 124/3/20 117/3/20 132/3/20 125/3/20
