# Blender 5.2.0 LTS
# www.blender.org
mtllib FN_Box_Blanket.mtl
o FN_Box_Blanket
v -0.508000 0.000000 0.167000
v -0.472000 0.000000 0.167000
v -0.472000 0.000000 0.203000
v -0.508000 0.000000 0.203000
v -0.516000 0.130000 0.211000
v -0.464000 0.130000 0.211000
v -0.464000 0.130000 0.159000
v -0.516000 0.130000 0.159000
v -0.508000 0.000000 -0.203000
v -0.472000 0.000000 -0.203000
v -0.472000 0.000000 -0.167000
v -0.508000 0.000000 -0.167000
v -0.516000 0.130000 -0.159000
v -0.464000 0.130000 -0.159000
v -0.464000 0.130000 -0.211000
v -0.516000 0.130000 -0.211000
v 0.472000 0.000000 0.167000
v 0.508000 0.000000 0.167000
v 0.508000 0.000000 0.203000
v 0.472000 0.000000 0.203000
v 0.464000 0.130000 0.211000
v 0.516000 0.130000 0.211000
v 0.516000 0.130000 0.159000
v 0.464000 0.130000 0.159000
v 0.472000 0.000000 -0.203000
v 0.508000 0.000000 -0.203000
v 0.508000 0.000000 -0.167000
v 0.472000 0.000000 -0.167000
v 0.464000 0.130000 -0.159000
v 0.516000 0.130000 -0.159000
v 0.516000 0.130000 -0.211000
v 0.464000 0.130000 -0.211000
v -0.530000 0.110000 0.225000
v -0.530000 0.110000 -0.225000
v 0.530000 0.110000 -0.225000
v 0.530000 0.110000 0.225000
v -0.530000 0.330000 0.225000
v 0.530000 0.330000 0.225000
v 0.530000 0.330000 -0.225000
v -0.530000 0.330000 -0.225000
v -0.550000 0.320000 -0.245000
v 0.550000 0.320000 -0.245000
v 0.550000 0.320000 0.245000
v -0.550000 0.320000 0.245000
v 0.550000 0.358000 0.245000
v -0.550000 0.358000 0.245000
v 0.550000 0.358000 -0.245000
v -0.550000 0.358000 -0.245000
v -0.544000 0.352000 0.239000
v 0.544000 0.352000 0.239000
v 0.544000 0.438000 0.239000
v -0.544000 0.438000 0.239000
v 0.544000 0.352000 -0.239000
v 0.544000 0.438000 -0.239000
v -0.544000 0.352000 -0.239000
v -0.544000 0.438000 -0.239000
v -0.532000 0.450000 0.227000
v 0.532000 0.450000 0.227000
v 0.532000 0.450000 -0.227000
v -0.532000 0.450000 -0.227000
v -0.283200 0.460000 0.105000
v -0.288121 0.460000 0.093121
v -0.300000 0.460000 0.088200
v -0.311879 0.460000 0.093121
v -0.316800 0.460000 0.105000
v -0.311879 0.460000 0.116879
v -0.300000 0.460000 0.121800
v -0.288121 0.460000 0.116879
v -0.276000 0.444000 0.105000
v -0.283029 0.444000 0.088029
v -0.300000 0.444000 0.081000
v -0.316971 0.444000 0.088029
v -0.324000 0.444000 0.105000
v -0.316971 0.444000 0.121971
v -0.300000 0.444000 0.129000
v -0.283029 0.444000 0.121971
v -0.283200 0.460000 -0.105000
v -0.288121 0.460000 -0.116879
v -0.300000 0.460000 -0.121800
v -0.311879 0.460000 -0.116879
v -0.316800 0.460000 -0.105000
v -0.311879 0.460000 -0.093121
v -0.300000 0.460000 -0.088200
v -0.288121 0.460000 -0.093121
v -0.276000 0.444000 -0.105000
v -0.283029 0.444000 -0.121971
v -0.300000 0.444000 -0.129000
v -0.316971 0.444000 -0.121971
v -0.324000 0.444000 -0.105000
v -0.316971 0.444000 -0.088029
v -0.300000 0.444000 -0.081000
v -0.283029 0.444000 -0.088029
v 0.016800 0.460000 0.105000
v 0.011879 0.460000 0.093121
v 0.000000 0.460000 0.088200
v -0.011879 0.460000 0.093121
v -0.016800 0.460000 0.105000
v -0.011879 0.460000 0.116879
v -0.000000 0.460000 0.121800
v 0.011879 0.460000 0.116879
v 0.024000 0.444000 0.105000
v 0.016971 0.444000 0.088029
v 0.000000 0.444000 0.081000
v -0.016971 0.444000 0.088029
v -0.024000 0.444000 0.105000
v -0.016971 0.444000 0.121971
v -0.000000 0.444000 0.129000
v 0.016971 0.444000 0.121971
v 0.016800 0.460000 -0.105000
v 0.011879 0.460000 -0.116879
v 0.000000 0.460000 -0.121800
v -0.011879 0.460000 -0.116879
v -0.016800 0.460000 -0.105000
v -0.011879 0.460000 -0.093121
v -0.000000 0.460000 -0.088200
v 0.011879 0.460000 -0.093121
v 0.024000 0.444000 -0.105000
v 0.016971 0.444000 -0.121971
v 0.000000 0.444000 -0.129000
v -0.016971 0.444000 -0.121971
v -0.024000 0.444000 -0.105000
v -0.016971 0.444000 -0.088029
v -0.000000 0.444000 -0.081000
v 0.016971 0.444000 -0.088029
v 0.316800 0.460000 0.105000
v 0.311879 0.460000 0.093121
v 0.300000 0.460000 0.088200
v 0.288121 0.460000 0.093121
v 0.283200 0.460000 0.105000
v 0.288121 0.460000 0.116879
v 0.300000 0.460000 0.121800
v 0.311879 0.460000 0.116879
v 0.324000 0.444000 0.105000
v 0.316971 0.444000 0.088029
v 0.300000 0.444000 0.081000
v 0.283029 0.444000 0.088029
v 0.276000 0.444000 0.105000
v 0.283029 0.444000 0.121971
v 0.300000 0.444000 0.129000
v 0.316971 0.444000 0.121971
v 0.316800 0.460000 -0.105000
v 0.311879 0.460000 -0.116879
v 0.300000 0.460000 -0.121800
v 0.288121 0.460000 -0.116879
v 0.283200 0.460000 -0.105000
v 0.288121 0.460000 -0.093121
v 0.300000 0.460000 -0.088200
v 0.311879 0.460000 -0.093121
v 0.324000 0.444000 -0.105000
v 0.316971 0.444000 -0.121971
v 0.300000 0.444000 -0.129000
v 0.283029 0.444000 -0.121971
v 0.276000 0.444000 -0.105000
v 0.283029 0.444000 -0.088029
v 0.300000 0.444000 -0.081000
v 0.316971 0.444000 -0.088029
vn -0.0000 -1.0000 -0.0000
vn -0.0000 1.0000 -0.0000
vn -0.0000 -0.0614 0.9981
vn 0.9981 -0.0614 -0.0000
vn -0.0000 -0.0614 -0.9981
vn -0.9981 -0.0614 -0.0000
vn -0.0000 -0.0000 1.0000
vn -0.0000 -0.0000 -1.0000
vn -1.0000 -0.0000 -0.0000
vn 1.0000 -0.0000 -0.0000
vn -0.0000 0.7071 0.7071
vn 0.7071 0.7071 -0.0000
vn -0.0000 0.7071 -0.7071
vn -0.7071 0.7071 -0.0000
vn 0.8531 0.3839 -0.3534
vn 0.3534 0.3839 -0.8531
vn -0.3534 0.3839 -0.8531
vn -0.8531 0.3839 -0.3534
vn -0.8531 0.3839 0.3534
vn -0.3534 0.3839 0.8531
vn 0.3534 0.3839 0.8531
vn 0.8531 0.3839 0.3534
vt 0.437500 0.937500
vt 0.812500 0.687500
vt 0.312500 0.687500
s 0
usemtl FN_Atlas
f 1/1/1 2/1/1 3/1/1 4/1/1
f 5/1/2 6/1/2 7/1/2 8/1/2
f 4/1/3 3/1/3 6/1/3 5/1/3
f 3/1/4 2/1/4 7/1/4 6/1/4
f 2/1/5 1/1/5 8/1/5 7/1/5
f 1/1/6 4/1/6 5/1/6 8/1/6
f 9/1/1 10/1/1 11/1/1 12/1/1
f 13/1/2 14/1/2 15/1/2 16/1/2
f 12/1/3 11/1/3 14/1/3 13/1/3
f 11/1/4 10/1/4 15/1/4 14/1/4
f 10/1/5 9/1/5 16/1/5 15/1/5
f 9/1/6 12/1/6 13/1/6 16/1/6
f 17/1/1 18/1/1 19/1/1 20/1/1
f 21/1/2 22/1/2 23/1/2 24/1/2
f 20/1/3 19/1/3 22/1/3 21/1/3
f 19/1/4 18/1/4 23/1/4 22/1/4
f 18/1/5 17/1/5 24/1/5 23/1/5
f 17/1/6 20/1/6 21/1/6 24/1/6
f 25/1/1 26/1/1 27/1/1 28/1/1
f 29/1/2 30/1/2 31/1/2 32/1/2
f 28/1/3 27/1/3 30/1/3 29/1/3
f 27/1/4 26/1/4 31/1/4 30/1/4
f 26/1/5 25/1/5 32/1/5 31/1/5
f 25/1/6 28/1/6 29/1/6 32/1/6
f 33/2/1 34/2/1 35/2/1 36/2/1
f 37/2/2 38/2/2 39/2/2 40/2/2
f 33/2/7 36/2/7 38/2/7 37/2/7
f 35/2/8 34/2/8 40/2/8 39/2/8
f 33/2/9 37/2/9 40/2/9 34/2/9
f 36/2/10 35/2/10 39/2/10 38/2/10
f 41/3/1 42/3/1 43/3/1 44/3/1
f 44/3/7 43/3/7 45/3/7 46/3/7
f 43/3/10 42/3/10 47/3/10 45/3/10
f 42/3/8 41/3/8 48/3/8 47/3/8
f 41/3/9 44/3/9 46/3/9 48/3/9
f 49/2/7 50/2/7 51/2/7 52/2/7
f 50/2/10 53/2/10 54/2/10 51/2/10
f 53/2/8 55/2/8 56/2/8 54/2/8
f 55/2/9 49/2/9 52/2/9 56/2/9
f 57/2/2 58/2/2 59/2/2 60/2/2
f 52/2/11 51/2/11 58/2/11 57/2/11
f 51/2/12 54/2/12 59/2/12 58/2/12
f 54/2/13 56/2/13 60/2/13 59/2/13
f 56/2/14 52/2/14 57/2/14 60/2/14
f 61/3/2 62/3/2 63/3/2 64/3/2 65/3/2 66/3/2 67/3/2 68/3/2
f 69/3/15 70/3/15 62/3/15 61/3/15
f 70/3/16 71/3/16 63/3/16 62/3/16
f 71/3/17 72/3/17 64/3/17 63/3/17
f 72/3/18 73/3/18 65/3/18 64/3/18
f 73/3/19 74/3/19 66/3/19 65/3/19
f 74/3/20 75/3/20 67/3/20 66/3/20
f 75/3/21 76/3/21 68/3/21 67/3/21
f 76/3/22 69/3/22 61/3/22 68/3/22
f 77/3/2 78/3/2 79/3/2 80/3/2 81/3/2 82/3/2 83/3/2 84/3/2
f 85/3/15 86/3/15 78/3/15 77/3/15
f 86/3/16 87/3/16 79/3/16 78/3/16
f 87/3/17 88/3/17 80/3/17 79/3/17
f 88/3/18 89/3/18 81/3/18 80/3/18
f 89/3/19 90/3/19 82/3/19 81/3/19
f 90/3/20 91/3/20 83/3/20 82/3/20
f 91/3/21 92/3/21 84/3/21 83/3/21
f 92/3/22 85/3/22 77/3/22 84/3/22
f 93/3/2 94/3/2 95/3/2 96/3/2 97/3/2 98/3/2 99/3/2 100/3/2
f 101/3/15 102/3/15 94/3/15 93/3/15
f 102/3/16 103/3/16 95/3/16 94/3/16
f 103/3/17 104/3/17 96/3/17 95/3/17
f 104/3/18 105/3/18 97/3/18 96/3/18
f 105/3/19 106/3/19 98/3/19 97/3/19
f 106/3/20 107/3/20 99/3/20 98/3/20
f 107/3/21 108/3/21 100/3/21 99/3/21
f 108/3/22 101/3/22 93/3/22 100/3/22
f 109/3/2 110/3/2 111/3/2 112/3/2 113/3/2 114/3/2 115/3/2 116/3/2
f 117/3/15 118/3/15 110/3/15 109/3/15
f 118/3/16 119/3/16 111/3/16 110/3/16
f 119/3/17 120/3/17 112/3/17 111/3/17
f 120/3/18 121/3/18 113/3/18 112/3/18
f 121/3/19 122/3/19 114/3/19 113/3/19
f 122/3/20 123/3/20 115/3/20 114/3/20
f 123/3/21 124/3/21 116/3/21 115/3/21
f 124/3/22 117/3/22 109/3/22 116/3/22
f 125/3/2 126/3/2 127/3/2 128/3/2 129/3/2 130/3/2 131/3/2 132/3/2
f 133/3/15 134/3/15 126/3/15 125/3/15
f 134/3/16 135/3/16 127/3/16 126/3/16
f 135/3/17 136/3/17 128/3/17 127/3/17
f 136/3/18 137/3/18 129/3/18 128/3/18
f 137/3/19 138/3/19 130/3/19 129/3/19
f 138/3/20 139/3/20 131/3/20 130/3/20
f 139/3/21 140/3/21 132/3/21 131/3/21
f 140/3/22 133/3/22 125/3/22 132/3/22
f 141/3/2 142/3/2 143/3/2 144/3/2 145/3/2 146/3/2 147/3/2 148/3/2
f 149/3/15 150/3/15 142/3/15 141/3/15
f 150/3/16 151/3/16 143/3/16 142/3/16
f 151/3/17 152/3/17 144/3/17 143/3/17
f 152/3/18 153/3/18 145/3/18 144/3/18
f 153/3/19 154/3/19 146/3/19 145/3/19
f 154/3/20 155/3/20 147/3/20 146/3/20
f 155/3/21 156/3/21 148/3/21 147/3/21
f 156/3/22 149/3/22 141/3/22 148/3/22
