# Blender 5.2.0 LTS
# www.blender.org
mtllib FN_Bowl_Fruit.mtl
o FN_Bowl_Fruit
v 0.045048 0.000000 0.021694
v 0.031174 0.000000 0.039092
v 0.011126 0.000000 0.048746
v -0.011126 0.000000 0.048746
v -0.031174 0.000000 0.039092
v -0.045048 0.000000 0.021694
v -0.050000 0.000000 -0.000000
v -0.045048 0.000000 -0.021694
v -0.031174 0.000000 -0.039092
v -0.011126 0.000000 -0.048746
v 0.011126 0.000000 -0.048746
v 0.031174 0.000000 -0.039092
v 0.045048 0.000000 -0.021694
v 0.050000 0.000000 0.000000
v 0.063068 0.018000 -0.030372
v 0.070000 0.018000 0.000000
v 0.043644 0.018000 -0.054728
v 0.015576 0.018000 -0.068245
v -0.015576 0.018000 -0.068245
v -0.043644 0.018000 -0.054728
v -0.063068 0.018000 -0.030372
v -0.070000 0.018000 -0.000000
v -0.063068 0.018000 0.030372
v -0.043644 0.018000 0.054728
v -0.015576 0.018000 0.068245
v 0.015576 0.018000 0.068245
v 0.043644 0.018000 0.054728
v 0.063068 0.018000 0.030372
v 0.126136 0.060000 -0.060744
v 0.140000 0.060000 0.000000
v 0.087289 0.060000 -0.109456
v 0.031153 0.060000 -0.136490
v -0.031153 0.060000 -0.136490
v -0.087289 0.060000 -0.109456
v -0.126136 0.060000 -0.060744
v -0.140000 0.060000 -0.000000
v -0.126136 0.060000 0.060744
v -0.087289 0.060000 0.109456
v -0.031153 0.060000 0.136490
v 0.031153 0.060000 0.136490
v 0.087289 0.060000 0.109456
v 0.126136 0.060000 0.060744
v 0.135145 0.085000 -0.065083
v 0.150000 0.085000 0.000000
v 0.093523 0.085000 -0.117275
v 0.033378 0.085000 -0.146239
v -0.033378 0.085000 -0.146239
v -0.093523 0.085000 -0.117275
v -0.135145 0.085000 -0.065083
v -0.150000 0.085000 -0.000000
v -0.135145 0.085000 0.065083
v -0.093523 0.085000 0.117275
v -0.033378 0.085000 0.146239
v 0.033378 0.085000 0.146239
v 0.093523 0.085000 0.117275
v 0.135145 0.085000 0.065083
v 0.124334 0.085000 -0.059876
v 0.138000 0.085000 0.000000
v 0.086042 0.085000 -0.107893
v 0.030708 0.085000 -0.134540
v -0.030708 0.085000 -0.134540
v -0.086042 0.085000 -0.107893
v -0.124334 0.085000 -0.059876
v -0.138000 0.085000 -0.000000
v -0.124334 0.085000 0.059876
v -0.086042 0.085000 0.107893
v -0.030708 0.085000 0.134540
v 0.030708 0.085000 0.134540
v 0.086042 0.085000 0.107893
v 0.124334 0.085000 0.059876
v 0.040544 0.030000 -0.019525
v 0.045000 0.030000 0.000000
v 0.028057 0.030000 -0.035182
v 0.010013 0.030000 -0.043872
v -0.010013 0.030000 -0.043872
v -0.028057 0.030000 -0.035182
v -0.040544 0.030000 -0.019525
v -0.045000 0.030000 -0.000000
v -0.040544 0.030000 0.019525
v -0.028057 0.030000 0.035182
v -0.010013 0.030000 0.043872
v 0.010013 0.030000 0.043872
v 0.028057 0.030000 0.035182
v 0.040544 0.030000 0.019525
v 0.073047 0.034320 -0.043275
v 0.081939 0.034320 -0.021807
v 0.051579 0.022000 -0.021807
v 0.081939 0.097680 -0.021807
v 0.073047 0.097680 -0.043275
v 0.051579 0.110000 -0.021807
v 0.051579 0.034320 -0.052167
v 0.051579 0.097680 -0.052167
v 0.030112 0.034320 -0.043275
v 0.030112 0.097680 -0.043275
v 0.021219 0.034320 -0.021807
v 0.021219 0.097680 -0.021807
v 0.030112 0.034320 -0.000340
v 0.030112 0.097680 -0.000340
v 0.051579 0.034320 0.008553
v 0.051579 0.097680 0.008553
v 0.073047 0.034320 -0.000340
v 0.073047 0.097680 -0.000340
v 0.081759 0.054560 -0.051987
v 0.094259 0.054560 -0.021807
v 0.051579 0.054560 -0.064487
v 0.021400 0.054560 -0.051987
v 0.008899 0.054560 -0.021807
v 0.021400 0.054560 0.008372
v 0.051579 0.054560 0.020873
v 0.081759 0.054560 0.008372
v 0.081759 0.077440 -0.051987
v 0.094259 0.077440 -0.021807
v 0.051579 0.077440 -0.064487
v 0.021400 0.077440 -0.051987
v 0.008899 0.077440 -0.021807
v 0.021400 0.077440 0.008372
v 0.051579 0.077440 0.020873
v 0.081759 0.077440 0.008372
v -0.023208 0.034320 -0.055233
v -0.014315 0.034320 -0.033765
v -0.044675 0.022000 -0.033765
v -0.014315 0.097680 -0.033765
v -0.023208 0.097680 -0.055233
v -0.044675 0.110000 -0.033765
v -0.044675 0.034320 -0.064125
v -0.044675 0.097680 -0.064125
v -0.066143 0.034320 -0.055233
v -0.066143 0.097680 -0.055233
v -0.075035 0.034320 -0.033765
v -0.075035 0.097680 -0.033765
v -0.066143 0.034320 -0.012298
v -0.066143 0.097680 -0.012298
v -0.044675 0.034320 -0.003405
v -0.044675 0.097680 -0.003405
v -0.023208 0.034320 -0.012298
v -0.023208 0.097680 -0.012298
v -0.014496 0.054560 -0.063945
v -0.001995 0.054560 -0.033765
v -0.044675 0.054560 -0.076445
v -0.074855 0.054560 -0.063945
v -0.087355 0.054560 -0.033765
v -0.074855 0.054560 -0.003586
v -0.044675 0.054560 0.008915
v -0.014496 0.054560 -0.003586
v -0.014496 0.077440 -0.063945
v -0.001995 0.077440 -0.033765
v -0.044675 0.077440 -0.076445
v -0.074855 0.077440 -0.063945
v -0.087355 0.077440 -0.033765
v -0.074855 0.077440 -0.003586
v -0.044675 0.077440 0.008915
v -0.014496 0.077440 -0.003586
v 0.014564 0.034320 0.034105
v 0.023456 0.034320 0.055573
v -0.006904 0.022000 0.055573
v 0.023456 0.097680 0.055573
v 0.014564 0.097680 0.034105
v -0.006904 0.110000 0.055573
v -0.006904 0.034320 0.025213
v -0.006904 0.097680 0.025213
v -0.028372 0.034320 0.034105
v -0.028372 0.097680 0.034105
v -0.037264 0.034320 0.055573
v -0.037264 0.097680 0.055573
v -0.028372 0.034320 0.077041
v -0.028372 0.097680 0.077041
v -0.006904 0.034320 0.085933
v -0.006904 0.097680 0.085933
v 0.014564 0.034320 0.077041
v 0.014564 0.097680 0.077041
v 0.023275 0.054560 0.025393
v 0.035776 0.054560 0.055573
v -0.006904 0.054560 0.012893
v -0.037083 0.054560 0.025393
v -0.049584 0.054560 0.055573
v -0.037083 0.054560 0.085752
v -0.006904 0.054560 0.098253
v 0.023275 0.054560 0.085752
v 0.023275 0.077440 0.025393
v 0.035776 0.077440 0.055573
v -0.006904 0.077440 0.012893
v -0.037083 0.077440 0.025393
v -0.049584 0.077440 0.055573
v -0.037083 0.077440 0.085752
v -0.006904 0.077440 0.098253
v 0.023275 0.077440 0.085752
vn -0.0000 -1.0000 -0.0000
vn 0.6613 -0.7348 -0.1509
vn 0.5303 -0.7348 -0.4229
vn 0.2943 -0.7348 -0.6111
vn -0.0000 -0.7348 -0.6783
vn -0.2943 -0.7348 -0.6111
vn -0.5303 -0.7348 -0.4229
vn -0.6613 -0.7348 -0.1509
vn -0.6613 -0.7348 0.1509
vn -0.5303 -0.7348 0.4229
vn -0.2943 -0.7348 0.6111
vn -0.0000 -0.7348 0.6783
vn 0.2943 -0.7348 0.6111
vn 0.5303 -0.7348 0.4229
vn 0.6613 -0.7348 0.1509
vn 0.5110 -0.8516 -0.1166
vn 0.4098 -0.8516 -0.3268
vn 0.2274 -0.8516 -0.4722
vn -0.0000 -0.8516 -0.5241
vn -0.2274 -0.8516 -0.4722
vn -0.4098 -0.8516 -0.3268
vn -0.5110 -0.8516 -0.1166
vn -0.5110 -0.8516 0.1166
vn -0.4098 -0.8516 0.3268
vn -0.2274 -0.8516 0.4722
vn -0.0000 -0.8516 0.5241
vn 0.2274 -0.8516 0.4722
vn 0.4098 -0.8516 0.3268
vn 0.5110 -0.8516 0.1166
vn 0.9083 -0.3633 -0.2073
vn 0.7284 -0.3633 -0.5809
vn 0.4042 -0.3633 -0.8394
vn -0.0000 -0.3633 -0.9317
vn -0.4042 -0.3633 -0.8394
vn -0.7284 -0.3633 -0.5809
vn -0.9083 -0.3633 -0.2073
vn -0.9083 -0.3633 0.2073
vn -0.7284 -0.3633 0.5809
vn -0.4042 -0.3633 0.8394
vn -0.0000 -0.3633 0.9317
vn 0.4042 -0.3633 0.8394
vn 0.7284 -0.3633 0.5809
vn 0.9083 -0.3633 0.2073
vn -0.0000 1.0000 -0.0000
vn -0.5056 0.8550 0.1154
vn -0.4055 0.8550 0.3234
vn -0.2250 0.8550 0.4673
vn -0.0000 0.8550 0.5186
vn 0.2250 0.8550 0.4673
vn 0.4055 0.8550 0.3234
vn 0.5056 0.8550 0.1154
vn 0.5056 0.8550 -0.1154
vn 0.4055 0.8550 -0.3234
vn 0.2250 0.8550 -0.4673
vn -0.0000 0.8550 -0.5186
vn -0.2250 0.8550 -0.4673
vn -0.4055 0.8550 -0.3234
vn -0.5056 0.8550 -0.1154
vn 0.3715 -0.9156 -0.1539
vn 0.3715 0.9156 -0.1539
vn 0.1539 -0.9156 -0.3715
vn 0.1539 0.9156 -0.3715
vn -0.1539 -0.9156 -0.3715
vn -0.1539 0.9156 -0.3715
vn -0.3715 -0.9156 -0.1539
vn -0.3715 0.9156 -0.1539
vn -0.3715 -0.9156 0.1539
vn -0.3715 0.9156 0.1539
vn -0.1539 -0.9156 0.3715
vn -0.1539 0.9156 0.3715
vn 0.1539 -0.9156 0.3715
vn 0.1539 0.9156 0.3715
vn 0.3715 -0.9156 0.1539
vn 0.3715 0.9156 0.1539
vn 0.8053 -0.4902 -0.3336
vn 0.3336 -0.4902 -0.8053
vn -0.3336 -0.4902 -0.8053
vn -0.8053 -0.4902 -0.3336
vn -0.8053 -0.4902 0.3336
vn -0.3336 -0.4902 0.8053
vn 0.3336 -0.4902 0.8053
vn 0.8053 -0.4902 0.3336
vn 0.9239 -0.0000 -0.3827
vn 0.3827 -0.0000 -0.9239
vn -0.3827 -0.0000 -0.9239
vn -0.9239 -0.0000 -0.3827
vn -0.9239 -0.0000 0.3827
vn -0.3827 -0.0000 0.9239
vn 0.3827 -0.0000 0.9239
vn 0.9239 -0.0000 0.3827
vn 0.8053 0.4902 -0.3336
vn 0.3336 0.4902 -0.8053
vn -0.3336 0.4902 -0.8053
vn -0.8053 0.4902 -0.3336
vn -0.8053 0.4902 0.3336
vn -0.3336 0.4902 0.8053
vn 0.3336 0.4902 0.8053
vn 0.8053 0.4902 0.3336
vt 0.812500 0.937500
vt 0.312500 0.062500
vt 0.062500 0.562500
vt 0.562500 0.062500
s 0
usemtl FN_Atlas
f 1/1/1 2/1/1 3/1/1 4/1/1 5/1/1 6/1/1 7/1/1 8/1/1 9/1/1 10/1/1 11/1/1 12/1/1 13/1/1 14/1/1
f 14/1/2 13/1/2 15/1/2 16/1/2
f 13/1/3 12/1/3 17/1/3 15/1/3
f 12/1/4 11/1/4 18/1/4 17/1/4
f 11/1/5 10/1/5 19/1/5 18/1/5
f 10/1/6 9/1/6 20/1/6 19/1/6
f 9/1/7 8/1/7 21/1/7 20/1/7
f 8/1/8 7/1/8 22/1/8 21/1/8
f 7/1/9 6/1/9 23/1/9 22/1/9
f 6/1/10 5/1/10 24/1/10 23/1/10
f 5/1/11 4/1/11 25/1/11 24/1/11
f 4/1/12 3/1/12 26/1/12 25/1/12
f 3/1/13 2/1/13 27/1/13 26/1/13
f 2/1/14 1/1/14 28/1/14 27/1/14
f 1/1/15 14/1/15 16/1/15 28/1/15
f 16/1/16 15/1/16 29/1/16 30/1/16
f 15/1/17 17/1/17 31/1/17 29/1/17
f 17/1/18 18/1/18 32/1/18 31/1/18
f 18/1/19 19/1/19 33/1/19 32/1/19
f 19/1/20 20/1/20 34/1/20 33/1/20
f 20/1/21 21/1/21 35/1/21 34/1/21
f 21/1/22 22/1/22 36/1/22 35/1/22
f 22/1/23 23/1/23 37/1/23 36/1/23
f 23/1/24 24/1/24 38/1/24 37/1/24
f 24/1/25 25/1/25 39/1/25 38/1/25
f 25/1/26 26/1/26 40/1/26 39/1/26
f 26/1/27 27/1/27 41/1/27 40/1/27
f 27/1/28 28/1/28 42/1/28 41/1/28
f 28/1/29 16/1/29 30/1/29 42/1/29
f 30/1/30 29/1/30 43/1/30 44/1/30
f 29/1/31 31/1/31 45/1/31 43/1/31
f 31/1/32 32/1/32 46/1/32 45/1/32
f 32/1/33 33/1/33 47/1/33 46/1/33
f 33/1/34 34/1/34 48/1/34 47/1/34
f 34/1/35 35/1/35 49/1/35 48/1/35
f 35/1/36 36/1/36 50/1/36 49/1/36
f 36/1/37 37/1/37 51/1/37 50/1/37
f 37/1/38 38/1/38 52/1/38 51/1/38
f 38/1/39 39/1/39 53/1/39 52/1/39
f 39/1/40 40/1/40 54/1/40 53/1/40
f 40/1/41 41/1/41 55/1/41 54/1/41
f 41/1/42 42/1/42 56/1/42 55/1/42
f 42/1/43 30/1/43 44/1/43 56/1/43
f 44/1/44 43/1/44 57/1/44 58/1/44
f 43/1/44 45/1/44 59/1/44 57/1/44
f 45/1/44 46/1/44 60/1/44 59/1/44
f 46/1/44 47/1/44 61/1/44 60/1/44
f 47/1/44 48/1/44 62/1/44 61/1/44
f 48/1/44 49/1/44 63/1/44 62/1/44
f 49/1/44 50/1/44 64/1/44 63/1/44
f 50/1/44 51/1/44 65/1/44 64/1/44
f 51/1/44 52/1/44 66/1/44 65/1/44
f 52/1/44 53/1/44 67/1/44 66/1/44
f 53/1/44 54/1/44 68/1/44 67/1/44
f 54/1/44 55/1/44 69/1/44 68/1/44
f 55/1/44 56/1/44 70/1/44 69/1/44
f 56/1/44 44/1/44 58/1/44 70/1/44
f 58/1/45 57/1/45 71/1/45 72/1/45
f 57/1/46 59/1/46 73/1/46 71/1/46
f 59/1/47 60/1/47 74/1/47 73/1/47
f 60/1/48 61/1/48 75/1/48 74/1/48
f 61/1/49 62/1/49 76/1/49 75/1/49
f 62/1/50 63/1/50 77/1/50 76/1/50
f 63/1/51 64/1/51 78/1/51 77/1/51
f 64/1/52 65/1/52 79/1/52 78/1/52
f 65/1/53 66/1/53 80/1/53 79/1/53
f 66/1/54 67/1/54 81/1/54 80/1/54
f 67/1/55 68/1/55 82/1/55 81/1/55
f 68/1/56 69/1/56 83/1/56 82/1/56
f 69/1/57 70/1/57 84/1/57 83/1/57
f 70/1/58 58/1/58 72/1/58 84/1/58
f 72/1/44 71/1/44 73/1/44 74/1/44 75/1/44 76/1/44 77/1/44 78/1/44 79/1/44 80/1/44 81/1/44 82/1/44 83/1/44 84/1/44
f 85/2/59 86/2/59 87/2/59
f 88/2/60 89/2/60 90/2/60
f 91/2/61 85/2/61 87/2/61
f 89/2/62 92/2/62 90/2/62
f 93/2/63 91/2/63 87/2/63
f 92/2/64 94/2/64 90/2/64
f 95/2/65 93/2/65 87/2/65
f 94/2/66 96/2/66 90/2/66
f 97/2/67 95/2/67 87/2/67
f 96/2/68 98/2/68 90/2/68
f 99/2/69 97/2/69 87/2/69
f 98/2/70 100/2/70 90/2/70
f 101/2/71 99/2/71 87/2/71
f 100/2/72 102/2/72 90/2/72
f 86/2/73 101/2/73 87/2/73
f 102/2/74 88/2/74 90/2/74
f 86/2/75 85/2/75 103/2/75 104/2/75
f 85/2/76 91/2/76 105/2/76 103/2/76
f 91/2/77 93/2/77 106/2/77 105/2/77
f 93/2/78 95/2/78 107/2/78 106/2/78
f 95/2/79 97/2/79 108/2/79 107/2/79
f 97/2/80 99/2/80 109/2/80 108/2/80
f 99/2/81 101/2/81 110/2/81 109/2/81
f 101/2/82 86/2/82 104/2/82 110/2/82
f 104/2/83 103/2/83 111/2/83 112/2/83
f 103/2/84 105/2/84 113/2/84 111/2/84
f 105/2/85 106/2/85 114/2/85 113/2/85
f 106/2/86 107/2/86 115/2/86 114/2/86
f 107/2/87 108/2/87 116/2/87 115/2/87
f 108/2/88 109/2/88 117/2/88 116/2/88
f 109/2/89 110/2/89 118/2/89 117/2/89
f 110/2/90 104/2/90 112/2/90 118/2/90
f 112/2/91 111/2/91 89/2/91 88/2/91
f 111/2/92 113/2/92 92/2/92 89/2/92
f 113/2/93 114/2/93 94/2/93 92/2/93
f 114/2/94 115/2/94 96/2/94 94/2/94
f 115/2/95 116/2/95 98/2/95 96/2/95
f 116/2/96 117/2/96 100/2/96 98/2/96
f 117/2/97 118/2/97 102/2/97 100/2/97
f 118/2/98 112/2/98 88/2/98 102/2/98
f 119/3/59 120/3/59 121/3/59
f 122/3/60 123/3/60 124/3/60
f 125/3/61 119/3/61 121/3/61
f 123/3/62 126/3/62 124/3/62
f 127/3/63 125/3/63 121/3/63
f 126/3/64 128/3/64 124/3/64
f 129/3/65 127/3/65 121/3/65
f 128/3/66 130/3/66 124/3/66
f 131/3/67 129/3/67 121/3/67
f 130/3/68 132/3/68 124/3/68
f 133/3/69 131/3/69 121/3/69
f 132/3/70 134/3/70 124/3/70
f 135/3/71 133/3/71 121/3/71
f 134/3/72 136/3/72 124/3/72
f 120/3/73 135/3/73 121/3/73
f 136/3/74 122/3/74 124/3/74
f 120/3/75 119/3/75 137/3/75 138/3/75
f 119/3/76 125/3/76 139/3/76 137/3/76
f 125/3/77 127/3/77 140/3/77 139/3/77
f 127/3/78 129/3/78 141/3/78 140/3/78
f 129/3/79 131/3/79 142/3/79 141/3/79
f 131/3/80 133/3/80 143/3/80 142/3/80
f 133/3/81 135/3/81 144/3/81 143/3/81
f 135/3/82 120/3/82 138/3/82 144/3/82
f 138/3/83 137/3/83 145/3/83 146/3/83
f 137/3/84 139/3/84 147/3/84 145/3/84
f 139/3/85 140/3/85 148/3/85 147/3/85
f 140/3/86 141/3/86 149/3/86 148/3/86
f 141/3/87 142/3/87 150/3/87 149/3/87
f 142/3/88 143/3/88 151/3/88 150/3/88
f 143/3/89 144/3/89 152/3/89 151/3/89
f 144/3/90 138/3/90 146/3/90 152/3/90
f 146/3/91 145/3/91 123/3/91 122/3/91
f 145/3/92 147/3/92 126/3/92 123/3/92
f 147/3/93 148/3/93 128/3/93 126/3/93
f 148/3/94 149/3/94 130/3/94 128/3/94
f 149/3/95 150/3/95 132/3/95 130/3/95
f 150/3/96 151/3/96 134/3/96 132/3/96
f 151/3/97 152/3/97 136/3/97 134/3/97
f 152/3/98 146/3/98 122/3/98 136/3/98
f 153/4/59 154/4/59 155/4/59
f 156/4/60 157/4/60 158/4/60
f 159/4/61 153/4/61 155/4/61
f 157/4/62 160/4/62 158/4/62
f 161/4/63 159/4/63 155/4/63
f 160/4/64 162/4/64 158/4/64
f 163/4/65 161/4/65 155/4/65
f 162/4/66 164/4/66 158/4/66
f 165/4/67 163/4/67 155/4/67
f 164/4/68 166/4/68 158/4/68
f 167/4/69 165/4/69 155/4/69
f 166/4/70 168/4/70 158/4/70
f 169/4/71 167/4/71 155/4/71
f 168/4/72 170/4/72 158/4/72
f 154/4/73 169/4/73 155/4/73
f 170/4/74 156/4/74 158/4/74
f 154/4/75 153/4/75 171/4/75 172/4/75
f 153/4/76 159/4/76 173/4/76 171/4/76
f 159/4/77 161/4/77 174/4/77 173/4/77
f 161/4/78 163/4/78 175/4/78 174/4/78
f 163/4/79 165/4/79 176/4/79 175/4/79
f 165/4/80 167/4/80 177/4/80 176/4/80
f 167/4/81 169/4/81 178/4/81 177/4/81
f 169/4/82 154/4/82 172/4/82 178/4/82
f 172/4/83 171/4/83 179/4/83 180/4/83
f 171/4/84 173/4/84 181/4/84 179/4/84
f 173/4/85 174/4/85 182/4/85 181/4/85
f 174/4/86 175/4/86 183/4/86 182/4/86
f 175/4/87 176/4/87 184/4/87 183/4/87
f 176/4/88 177/4/88 185/4/88 184/4/88
f 177/4/89 178/4/89 186/4/89 185/4/89
f 178/4/90 172/4/90 180/4/90 186/4/90
f 180/4/91 179/4/91 157/4/91 156/4/91
f 179/4/92 181/4/92 160/4/92 157/4/92
f 181/4/93 182/4/93 162/4/93 160/4/93
f 182/4/94 183/4/94 164/4/94 162/4/94
f 183/4/95 184/4/95 166/4/95 164/4/95
f 184/4/96 185/4/96 168/4/96 166/4/96
f 185/4/97 186/4/97 170/4/97 168/4/97
f 186/4/98 180/4/98 156/4/98 170/4/98
