# Blender 5.2.0 LTS
# www.blender.org
mtllib FN_Bin_Bread.mtl
o FN_Bin_Bread
v -0.210000 0.230000 0.068720
v -0.210000 0.300000 -0.221280
v -0.210000 0.000000 -0.221280
v -0.210000 0.000000 0.068720
v -0.180000 0.000000 0.068720
v -0.180000 0.000000 -0.221280
v -0.180000 0.300000 -0.221280
v -0.180000 0.230000 0.068720
v 0.180000 0.230000 0.068720
v 0.180000 0.300000 -0.221280
v 0.180000 0.000000 -0.221280
v 0.180000 0.000000 0.068720
v 0.210000 0.000000 0.068720
v 0.210000 0.000000 -0.221280
v 0.210000 0.300000 -0.221280
v 0.210000 0.230000 0.068720
v -0.210000 0.000000 -0.191280
v 0.210000 0.000000 -0.191280
v -0.210000 0.300000 -0.191280
v 0.210000 0.300000 -0.191280
v -0.210000 0.040000 0.068720
v 0.210000 0.040000 0.068720
v 0.210000 0.040000 -0.221280
v -0.210000 0.040000 -0.221280
v -0.210000 0.270000 -0.221280
v -0.210000 0.200000 0.068720
v 0.210000 0.200000 0.068720
v 0.210000 0.270000 -0.221280
v -0.176000 0.042006 0.074069
v -0.176000 0.047032 0.217981
v -0.176000 0.067019 0.217283
v -0.176000 0.061994 0.073371
v 0.176000 0.061994 0.073371
v 0.176000 0.067019 0.217283
v 0.176000 0.047032 0.217981
v 0.176000 0.042006 0.074069
v -0.024000 0.065623 0.177307
v -0.024000 0.067159 0.221280
v -0.024000 0.087147 0.220582
v -0.024000 0.085611 0.176609
v 0.024000 0.085611 0.176609
v 0.024000 0.087147 0.220582
v 0.024000 0.067159 0.221280
v 0.024000 0.065623 0.177307
v -0.196000 0.041608 0.067720
v -0.196000 0.041608 0.079720
v -0.196000 0.052000 0.085720
v -0.196000 0.062392 0.079720
v -0.196000 0.062392 0.067720
v -0.196000 0.052000 0.061720
v -0.170000 0.052000 0.061720
v -0.170000 0.062392 0.067720
v -0.170000 0.062392 0.079720
v -0.170000 0.052000 0.085720
v -0.170000 0.041608 0.079720
v -0.170000 0.041608 0.067720
v -0.184000 0.072116 0.175119
v -0.184000 0.124634 0.045598
v -0.184000 0.115366 0.041841
v -0.184000 0.062849 0.171361
v -0.164000 0.062849 0.171361
v -0.164000 0.115366 0.041841
v -0.164000 0.124634 0.045598
v -0.164000 0.072116 0.175119
v 0.170000 0.041608 0.067720
v 0.170000 0.041608 0.079720
v 0.170000 0.052000 0.085720
v 0.170000 0.062392 0.079720
v 0.170000 0.062392 0.067720
v 0.170000 0.052000 0.061720
v 0.196000 0.052000 0.061720
v 0.196000 0.062392 0.067720
v 0.196000 0.062392 0.079720
v 0.196000 0.052000 0.085720
v 0.196000 0.041608 0.079720
v 0.196000 0.041608 0.067720
v 0.164000 0.072116 0.175119
v 0.164000 0.124634 0.045598
v 0.164000 0.115366 0.041841
v 0.164000 0.062849 0.171361
v 0.184000 0.062849 0.171361
v 0.184000 0.115366 0.041841
v 0.184000 0.124634 0.045598
v 0.184000 0.072116 0.175119
v -0.130000 0.040000 -0.166280
v 0.040000 0.040000 -0.166280
v 0.040000 0.040000 0.013720
v -0.130000 0.040000 0.013720
v -0.120000 0.150000 0.001720
v 0.030000 0.150000 0.001720
v 0.030000 0.150000 -0.154280
v -0.120000 0.150000 -0.154280
v 0.145000 0.065981 0.018720
v 0.130000 0.091962 0.018720
v 0.100000 0.091962 0.018720
v 0.085000 0.065981 0.018720
v 0.100000 0.040000 0.018720
v 0.130000 0.040000 0.018720
v 0.130000 0.040000 -0.171280
v 0.100000 0.040000 -0.171280
v 0.085000 0.065981 -0.171280
v 0.100000 0.091962 -0.171280
v 0.130000 0.091962 -0.171280
v 0.145000 0.065981 -0.171280
vn -1.0000 -0.0000 -0.0000
vn 1.0000 -0.0000 -0.0000
vn -0.0000 -1.0000 -0.0000
vn -0.0000 -0.0000 -1.0000
vn -0.0000 0.9721 0.2346
vn -0.0000 -0.0000 1.0000
vn -0.0000 1.0000 -0.0000
vn -0.0000 -0.9721 -0.2346
vn -0.0000 -0.9994 0.0349
vn -0.0000 0.0349 0.9994
vn -0.0000 0.9994 -0.0349
vn -0.0000 -0.0349 -0.9994
vn -0.0000 0.5000 -0.8660
vn -0.0000 0.5000 0.8660
vn -0.0000 -0.5000 0.8660
vn -0.0000 -0.5000 -0.8660
vn -0.0000 0.9267 0.3758
vn -0.0000 0.3758 -0.9267
vn -0.0000 -0.9267 -0.3758
vn -0.0000 -0.3758 0.9267
vn -0.0000 0.1084 0.9941
vn 0.9959 0.0905 -0.0000
vn -0.0000 0.1084 -0.9941
vn -0.9959 0.0905 -0.0000
vn -0.8660 -0.5000 -0.0000
vn 0.8660 -0.5000 -0.0000
vn 0.8660 0.5000 -0.0000
vn -0.8660 0.5000 -0.0000
vt 0.562500 0.562500
vt 0.437500 0.312500
vt 0.437500 0.937500
vt 0.312500 0.687500
s 0
usemtl FN_Atlas
f 1/1/1 2/1/1 3/1/1 4/1/1
f 5/1/2 6/1/2 7/1/2 8/1/2
f 4/1/3 3/1/3 6/1/3 5/1/3
f 3/1/4 2/1/4 7/1/4 6/1/4
f 2/1/5 1/1/5 8/1/5 7/1/5
f 1/1/6 4/1/6 5/1/6 8/1/6
f 9/1/1 10/1/1 11/1/1 12/1/1
f 13/1/2 14/1/2 15/1/2 16/1/2
f 12/1/3 11/1/3 14/1/3 13/1/3
f 11/1/4 10/1/4 15/1/4 14/1/4
f 10/1/5 9/1/5 16/1/5 15/1/5
f 9/1/6 12/1/6 13/1/6 16/1/6
f 17/1/3 3/1/3 14/1/3 18/1/3
f 19/1/7 20/1/7 15/1/7 2/1/7
f 17/1/6 18/1/6 20/1/6 19/1/6
f 14/1/4 3/1/4 2/1/4 15/1/4
f 17/1/1 19/1/1 2/1/1 3/1/1
f 18/1/2 14/1/2 15/1/2 20/1/2
f 4/1/3 3/1/3 14/1/3 13/1/3
f 21/1/7 22/1/7 23/1/7 24/1/7
f 4/1/6 13/1/6 22/1/6 21/1/6
f 14/1/4 3/1/4 24/1/4 23/1/4
f 4/1/1 21/1/1 24/1/1 3/1/1
f 13/1/2 14/1/2 23/1/2 22/1/2
f 1/1/1 2/1/1 25/1/1 26/1/1
f 27/1/2 28/1/2 15/1/2 16/1/2
f 26/1/8 25/1/8 28/1/8 27/1/8
f 25/1/4 2/1/4 15/1/4 28/1/4
f 2/1/5 1/1/5 16/1/5 15/1/5
f 1/1/6 26/1/6 27/1/6 16/1/6
f 29/1/1 30/1/1 31/1/1 32/1/1
f 33/1/2 34/1/2 35/1/2 36/1/2
f 36/1/9 35/1/9 30/1/9 29/1/9
f 35/1/10 34/1/10 31/1/10 30/1/10
f 34/1/11 33/1/11 32/1/11 31/1/11
f 33/1/12 36/1/12 29/1/12 32/1/12
f 37/2/1 38/2/1 39/2/1 40/2/1
f 41/2/2 42/2/2 43/2/2 44/2/2
f 44/2/9 43/2/9 38/2/9 37/2/9
f 43/2/10 42/2/10 39/2/10 38/2/10
f 42/2/11 41/2/11 40/2/11 39/2/11
f 41/2/12 44/2/12 37/2/12 40/2/12
f 45/2/1 46/2/1 47/2/1 48/2/1 49/2/1 50/2/1
f 51/2/2 52/2/2 53/2/2 54/2/2 55/2/2 56/2/2
f 50/2/13 49/2/13 52/2/13 51/2/13
f 49/2/7 48/2/7 53/2/7 52/2/7
f 48/2/14 47/2/14 54/2/14 53/2/14
f 47/2/15 46/2/15 55/2/15 54/2/15
f 46/2/3 45/2/3 56/2/3 55/2/3
f 45/2/16 50/2/16 51/2/16 56/2/16
f 57/2/1 58/2/1 59/2/1 60/2/1
f 61/2/2 62/2/2 63/2/2 64/2/2
f 64/2/17 63/2/17 58/2/17 57/2/17
f 63/2/18 62/2/18 59/2/18 58/2/18
f 62/2/19 61/2/19 60/2/19 59/2/19
f 61/2/20 64/2/20 57/2/20 60/2/20
f 65/2/1 66/2/1 67/2/1 68/2/1 69/2/1 70/2/1
f 71/2/2 72/2/2 73/2/2 74/2/2 75/2/2 76/2/2
f 70/2/13 69/2/13 72/2/13 71/2/13
f 69/2/7 68/2/7 73/2/7 72/2/7
f 68/2/14 67/2/14 74/2/14 73/2/14
f 67/2/15 66/2/15 75/2/15 74/2/15
f 66/2/3 65/2/3 76/2/3 75/2/3
f 65/2/16 70/2/16 71/2/16 76/2/16
f 77/2/1 78/2/1 79/2/1 80/2/1
f 81/2/2 82/2/2 83/2/2 84/2/2
f 84/2/17 83/2/17 78/2/17 77/2/17
f 83/2/18 82/2/18 79/2/18 78/2/18
f 82/2/19 81/2/19 80/2/19 79/2/19
f 81/2/20 84/2/20 77/2/20 80/2/20
f 85/3/3 86/3/3 87/3/3 88/3/3
f 89/3/7 90/3/7 91/3/7 92/3/7
f 88/3/21 87/3/21 90/3/21 89/3/21
f 87/3/22 86/3/22 91/3/22 90/3/22
f 86/3/23 85/3/23 92/3/23 91/3/23
f 85/3/24 88/3/24 89/3/24 92/3/24
f 93/4/6 94/4/6 95/4/6 96/4/6 97/4/6 98/4/6
f 99/4/4 100/4/4 101/4/4 102/4/4 103/4/4 104/4/4
f 93/4/25 94/4/25 103/4/25 104/4/25
f 94/4/3 95/4/3 102/4/3 103/4/3
f 95/4/26 96/4/26 101/4/26 102/4/26
f 96/4/27 97/4/27 100/4/27 101/4/27
f 97/4/7 98/4/7 99/4/7 100/4/7
f 98/4/28 93/4/28 104/4/28 99/4/28
