# Blender 5.2.0 LTS
# www.blender.org
mtllib FN_Bench_Dining.mtl
o FN_Bench_Dining
v -0.593265 0.410000 -0.168092
v 0.593265 0.410000 -0.168092
v 0.593265 0.410000 0.168092
v -0.593265 0.410000 0.168092
v 0.600000 0.417000 0.170000
v -0.600000 0.417000 0.170000
v 0.600000 0.417000 -0.170000
v -0.600000 0.417000 -0.170000
v 0.600000 0.443000 0.170000
v -0.600000 0.443000 0.170000
v 0.600000 0.443000 -0.170000
v -0.600000 0.443000 -0.170000
v -0.593265 0.450000 0.168092
v 0.593265 0.450000 0.168092
v 0.593265 0.450000 -0.168092
v -0.593265 0.450000 -0.168092
v -0.548000 0.348000 0.126000
v -0.548000 0.348000 0.106000
v 0.548000 0.348000 0.106000
v 0.548000 0.348000 0.126000
v -0.548000 0.410000 0.126000
v 0.548000 0.410000 0.126000
v 0.548000 0.410000 0.106000
v -0.548000 0.410000 0.106000
v -0.548000 0.348000 -0.106000
v -0.548000 0.348000 -0.126000
v 0.548000 0.348000 -0.126000
v 0.548000 0.348000 -0.106000
v -0.548000 0.410000 -0.106000
v 0.548000 0.410000 -0.106000
v 0.548000 0.410000 -0.126000
v -0.548000 0.410000 -0.126000
v -0.528000 0.348000 -0.106000
v -0.528000 0.348000 0.106000
v -0.528000 0.410000 0.106000
v -0.528000 0.410000 -0.106000
v 0.528000 0.348000 0.106000
v 0.528000 0.348000 -0.106000
v 0.528000 0.410000 0.106000
v 0.528000 0.410000 -0.106000
v -0.542000 0.000000 0.098000
v -0.510000 0.000000 0.098000
v -0.510000 0.000000 0.130000
v -0.542000 0.000000 0.130000
v -0.549000 0.410000 0.137000
v -0.503000 0.410000 0.137000
v -0.503000 0.410000 0.091000
v -0.549000 0.410000 0.091000
v -0.542000 0.000000 -0.130000
v -0.510000 0.000000 -0.130000
v -0.510000 0.000000 -0.098000
v -0.542000 0.000000 -0.098000
v -0.549000 0.410000 -0.091000
v -0.503000 0.410000 -0.091000
v -0.503000 0.410000 -0.137000
v -0.549000 0.410000 -0.137000
v 0.510000 0.000000 0.098000
v 0.542000 0.000000 0.098000
v 0.542000 0.000000 0.130000
v 0.510000 0.000000 0.130000
v 0.503000 0.410000 0.137000
v 0.549000 0.410000 0.137000
v 0.549000 0.410000 0.091000
v 0.503000 0.410000 0.091000
v 0.510000 0.000000 -0.130000
v 0.542000 0.000000 -0.130000
v 0.542000 0.000000 -0.098000
v 0.510000 0.000000 -0.098000
v 0.503000 0.410000 -0.091000
v 0.549000 0.410000 -0.091000
v 0.549000 0.410000 -0.137000
v 0.503000 0.410000 -0.137000
v -0.526000 0.149000 0.127000
v -0.526000 0.149000 0.101000
v -0.526000 0.175000 0.101000
v -0.526000 0.175000 0.127000
v 0.526000 0.175000 0.127000
v 0.526000 0.175000 0.101000
v 0.526000 0.149000 0.101000
v 0.526000 0.149000 0.127000
v -0.526000 0.149000 -0.101000
v -0.526000 0.149000 -0.127000
v -0.526000 0.175000 -0.127000
v -0.526000 0.175000 -0.101000
v 0.526000 0.175000 -0.101000
v 0.526000 0.175000 -0.127000
v 0.526000 0.149000 -0.127000
v 0.526000 0.149000 -0.101000
v 0.013000 0.149000 0.114000
v -0.013000 0.149000 0.114000
v -0.013000 0.175000 0.114000
v 0.013000 0.175000 0.114000
v 0.013000 0.175000 -0.114000
v -0.013000 0.175000 -0.114000
v -0.013000 0.149000 -0.114000
v 0.013000 0.149000 -0.114000
vn -0.0000 -1.0000 -0.0000
vn -0.0000 -0.2630 0.9648
vn 0.7206 -0.6933 -0.0000
vn -0.0000 -0.2630 -0.9648
vn -0.7206 -0.6933 -0.0000
vn -0.0000 -0.0000 1.0000
vn 1.0000 -0.0000 -0.0000
vn -0.0000 -0.0000 -1.0000
vn -1.0000 -0.0000 -0.0000
vn -0.0000 1.0000 -0.0000
vn -0.0000 0.2630 0.9648
vn 0.7206 0.6933 -0.0000
vn -0.0000 0.2630 -0.9648
vn -0.7206 0.6933 -0.0000
vn -0.0000 -0.0171 0.9999
vn 0.9999 -0.0171 -0.0000
vn -0.0000 -0.0171 -0.9999
vn -0.9999 -0.0171 -0.0000
vt 0.687500 0.937500
vt 0.437500 0.937500
s 0
usemtl FN_Atlas
f 1/1/1 2/1/1 3/1/1 4/1/1
f 4/1/2 3/1/2 5/1/2 6/1/2
f 3/1/3 2/1/3 7/1/3 5/1/3
f 2/1/4 1/1/4 8/1/4 7/1/4
f 1/1/5 4/1/5 6/1/5 8/1/5
f 6/1/6 5/1/6 9/1/6 10/1/6
f 5/1/7 7/1/7 11/1/7 9/1/7
f 7/1/8 8/1/8 12/1/8 11/1/8
f 8/1/9 6/1/9 10/1/9 12/1/9
f 13/2/10 14/2/10 15/2/10 16/2/10
f 10/1/11 9/1/11 14/1/11 13/1/11
f 9/1/12 11/1/12 15/1/12 14/1/12
f 11/1/13 12/1/13 16/1/13 15/1/13
f 12/1/14 10/1/14 13/1/14 16/1/14
f 17/2/1 18/2/1 19/2/1 20/2/1
f 21/2/10 22/2/10 23/2/10 24/2/10
f 17/2/6 20/2/6 22/2/6 21/2/6
f 19/2/8 18/2/8 24/2/8 23/2/8
f 17/2/9 21/2/9 24/2/9 18/2/9
f 20/2/7 19/2/7 23/2/7 22/2/7
f 25/2/1 26/2/1 27/2/1 28/2/1
f 29/2/10 30/2/10 31/2/10 32/2/10
f 25/2/6 28/2/6 30/2/6 29/2/6
f 27/2/8 26/2/8 32/2/8 31/2/8
f 25/2/9 29/2/9 32/2/9 26/2/9
f 28/2/7 27/2/7 31/2/7 30/2/7
f 18/2/1 25/2/1 33/2/1 34/2/1
f 24/2/10 35/2/10 36/2/10 29/2/10
f 18/2/6 34/2/6 35/2/6 24/2/6
f 33/2/8 25/2/8 29/2/8 36/2/8
f 18/2/9 24/2/9 29/2/9 25/2/9
f 34/2/7 33/2/7 36/2/7 35/2/7
f 37/2/1 38/2/1 28/2/1 19/2/1
f 39/2/10 23/2/10 30/2/10 40/2/10
f 37/2/6 19/2/6 23/2/6 39/2/6
f 28/2/8 38/2/8 40/2/8 30/2/8
f 37/2/9 39/2/9 40/2/9 38/2/9
f 19/2/7 28/2/7 30/2/7 23/2/7
f 41/2/1 42/2/1 43/2/1 44/2/1
f 45/2/10 46/2/10 47/2/10 48/2/10
f 44/2/15 43/2/15 46/2/15 45/2/15
f 43/2/16 42/2/16 47/2/16 46/2/16
f 42/2/17 41/2/17 48/2/17 47/2/17
f 41/2/18 44/2/18 45/2/18 48/2/18
f 49/2/1 50/2/1 51/2/1 52/2/1
f 53/2/10 54/2/10 55/2/10 56/2/10
f 52/2/15 51/2/15 54/2/15 53/2/15
f 51/2/16 50/2/16 55/2/16 54/2/16
f 50/2/17 49/2/17 56/2/17 55/2/17
f 49/2/18 52/2/18 53/2/18 56/2/18
f 57/2/1 58/2/1 59/2/1 60/2/1
f 61/2/10 62/2/10 63/2/10 64/2/10
f 60/2/15 59/2/15 62/2/15 61/2/15
f 59/2/16 58/2/16 63/2/16 62/2/16
f 58/2/17 57/2/17 64/2/17 63/2/17
f 57/2/18 60/2/18 61/2/18 64/2/18
f 65/2/1 66/2/1 67/2/1 68/2/1
f 69/2/10 70/2/10 71/2/10 72/2/10
f 68/2/15 67/2/15 70/2/15 69/2/15
f 67/2/16 66/2/16 71/2/16 70/2/16
f 66/2/17 65/2/17 72/2/17 71/2/17
f 65/2/18 68/2/18 69/2/18 72/2/18
f 73/1/7 74/1/7 75/1/7 76/1/7
f 77/1/9 78/1/9 79/1/9 80/1/9
f 76/1/1 75/1/1 78/1/1 77/1/1
f 75/1/6 74/1/6 79/1/6 78/1/6
f 74/1/10 73/1/10 80/1/10 79/1/10
f 73/1/8 76/1/8 77/1/8 80/1/8
f 81/1/7 82/1/7 83/1/7 84/1/7
f 85/1/9 86/1/9 87/1/9 88/1/9
f 84/1/1 83/1/1 86/1/1 85/1/1
f 83/1/6 82/1/6 87/1/6 86/1/6
f 82/1/10 81/1/10 88/1/10 87/1/10
f 81/1/8 84/1/8 85/1/8 88/1/8
f 89/1/8 90/1/8 91/1/8 92/1/8
f 93/1/6 94/1/6 95/1/6 96/1/6
f 92/1/1 91/1/1 94/1/1 93/1/1
f 91/1/7 90/1/7 95/1/7 94/1/7
f 90/1/10 89/1/10 96/1/10 95/1/10
f 89/1/9 92/1/9 93/1/9 96/1/9
