# Blender 5.2.0 LTS
# www.blender.org
mtllib FN_Bed_Dog.mtl
o FN_Bed_Dog
v 0.312085 0.000000 0.138733
v 0.261127 0.000000 0.208902
v 0.173416 0.000000 0.249668
v -0.000000 0.000000 0.263200
v -0.173416 0.000000 0.249668
v -0.261127 0.000000 0.208902
v -0.312085 0.000000 0.138733
v -0.329000 0.000000 -0.000000
v -0.312085 0.000000 -0.138733
v -0.261127 0.000000 -0.208902
v -0.173416 0.000000 -0.249668
v 0.000000 0.000000 -0.263200
v 0.173416 0.000000 -0.249668
v 0.261127 0.000000 -0.208902
v 0.312085 0.000000 -0.138733
v 0.329000 0.000000 0.000000
v 0.332005 0.083721 -0.147588
v 0.350000 0.074250 0.000000
v 0.318725 0.186048 -0.141685
v 0.336000 0.165000 0.000000
v 0.227661 0.186048 -0.094878
v 0.240000 0.165000 0.000000
v 0.240000 0.030000 0.000000
v 0.227661 0.030000 -0.094878
v 0.277795 0.091751 -0.222236
v 0.266683 0.203891 -0.213347
v 0.190488 0.203891 -0.142866
v 0.190488 0.030000 -0.142866
v 0.184485 0.097116 -0.265604
v 0.177106 0.215813 -0.254980
v 0.126504 0.215813 -0.170746
v 0.126504 0.030000 -0.170746
v 0.000000 0.099000 -0.280000
v 0.000000 0.220000 -0.268800
v 0.000000 0.220000 -0.180000
v 0.000000 0.030000 -0.180000
v -0.184485 0.097116 -0.265604
v -0.177106 0.215813 -0.254980
v -0.126504 0.215813 -0.170746
v -0.126504 0.030000 -0.170746
v -0.277795 0.091751 -0.222236
v -0.266683 0.203891 -0.213347
v -0.190488 0.203891 -0.142866
v -0.190488 0.030000 -0.142866
v -0.332005 0.083721 -0.147588
v -0.318725 0.186048 -0.141685
v -0.227661 0.186048 -0.094878
v -0.227661 0.030000 -0.094878
v -0.350000 0.074250 -0.000000
v -0.336000 0.165000 -0.000000
v -0.240000 0.165000 -0.000000
v -0.240000 0.030000 -0.000000
v -0.332005 0.064779 0.147588
v -0.318725 0.143952 0.141685
v -0.227661 0.143952 0.094878
v -0.227661 0.030000 0.094878
v -0.277795 0.056749 0.222236
v -0.266683 0.126109 0.213347
v -0.190488 0.126109 0.142866
v -0.190488 0.030000 0.142866
v -0.184485 0.051384 0.265604
v -0.177106 0.114187 0.254980
v -0.126504 0.114187 0.170746
v -0.126504 0.030000 0.170746
v -0.000000 0.049500 0.280000
v -0.000000 0.110000 0.268800
v -0.000000 0.110000 0.180000
v -0.000000 0.030000 0.180000
v 0.184485 0.051384 0.265604
v 0.177106 0.114187 0.254980
v 0.126504 0.114187 0.170746
v 0.126504 0.030000 0.170746
v 0.277795 0.056749 0.222236
v 0.266683 0.126109 0.213347
v 0.190488 0.126109 0.142866
v 0.190488 0.030000 0.142866
v 0.332005 0.064779 0.147588
v 0.318725 0.143952 0.141685
v 0.227661 0.143952 0.094878
v 0.227661 0.030000 0.094878
v 0.237147 0.018000 0.100149
v 0.198425 0.018000 0.150803
v 0.131775 0.018000 0.180231
v -0.000000 0.018000 0.190000
v -0.131775 0.018000 0.180231
v -0.198425 0.018000 0.150803
v -0.237147 0.018000 0.100149
v -0.250000 0.018000 -0.000000
v -0.237147 0.018000 -0.100149
v -0.198425 0.018000 -0.150803
v -0.131775 0.018000 -0.180231
v 0.000000 0.018000 -0.190000
v 0.131775 0.018000 -0.180231
v 0.198425 0.018000 -0.150803
v 0.237147 0.018000 -0.100149
v 0.250000 0.018000 0.000000
v 0.237147 0.093000 -0.100149
v 0.250000 0.093000 0.000000
v 0.225764 0.105000 -0.093824
v 0.238000 0.105000 0.000000
v 0.000000 0.092000 0.000000
v 0.198425 0.093000 -0.150803
v 0.188901 0.105000 -0.141279
v 0.131775 0.093000 -0.180231
v 0.125450 0.105000 -0.168848
v 0.000000 0.093000 -0.190000
v 0.000000 0.105000 -0.178000
v -0.131775 0.093000 -0.180231
v -0.125450 0.105000 -0.168848
v -0.198425 0.093000 -0.150803
v -0.188901 0.105000 -0.141279
v -0.237147 0.093000 -0.100149
v -0.225764 0.105000 -0.093824
v -0.250000 0.093000 -0.000000
v -0.238000 0.105000 -0.000000
v -0.237147 0.093000 0.100149
v -0.225764 0.105000 0.093824
v -0.198425 0.093000 0.150803
v -0.188901 0.105000 0.141279
v -0.131775 0.093000 0.180231
v -0.125450 0.105000 0.168848
v -0.000000 0.093000 0.190000
v -0.000000 0.105000 0.178000
v 0.131775 0.093000 0.180231
v 0.125450 0.105000 0.168848
v 0.198425 0.093000 0.150803
v 0.188901 0.105000 0.141279
v 0.237147 0.093000 0.100149
v 0.225764 0.105000 0.093824
vn -0.0000 -1.0000 -0.0000
vn 0.9587 -0.2554 -0.1253
vn 0.9842 0.1423 -0.1050
vn 0.0425 0.9845 0.1699
vn 0.9916 -0.0000 -0.1290
vn 0.7800 -0.2359 -0.5796
vn 0.8130 0.1316 -0.5672
vn 0.1336 0.9726 0.1905
vn 0.7906 -0.0000 -0.6124
vn 0.4083 -0.1981 -0.8911
vn 0.4275 0.1101 -0.8973
vn 0.1121 0.9894 0.0918
vn 0.3995 -0.0000 -0.9168
vn 0.0758 -0.1683 -0.9828
vn 0.0790 0.0928 -0.9925
vn 0.0270 0.9996 0.0079
vn 0.0730 -0.0000 -0.9973
vn -0.0758 -0.1683 -0.9828
vn -0.0790 0.0928 -0.9925
vn -0.0270 0.9996 0.0079
vn -0.0730 -0.0000 -0.9973
vn -0.4083 -0.1981 -0.8911
vn -0.4275 0.1101 -0.8973
vn -0.1121 0.9894 0.0918
vn -0.3995 -0.0000 -0.9168
vn -0.7800 -0.2359 -0.5796
vn -0.8130 0.1316 -0.5672
vn -0.1336 0.9726 0.1905
vn -0.7906 -0.0000 -0.6124
vn -0.9587 -0.2554 -0.1253
vn -0.9842 0.1423 -0.1050
vn -0.0425 0.9845 0.1699
vn -0.9916 -0.0000 -0.1290
vn -0.9520 -0.2870 0.1066
vn -0.9774 0.1616 0.1362
vn -0.9916 -0.0000 0.1290
vn -0.7720 -0.3315 0.5423
vn -0.7787 0.1875 0.5987
vn -0.7906 -0.0000 0.6124
vn -0.4054 -0.3343 0.8508
vn -0.3992 0.1883 0.8973
vn -0.3995 -0.0000 0.9168
vn -0.0755 -0.3153 0.9460
vn -0.0736 0.1781 0.9813
vn -0.0730 -0.0000 0.9973
vn 0.0755 -0.3153 0.9460
vn 0.0736 0.1781 0.9813
vn 0.0730 -0.0000 0.9973
vn 0.4054 -0.3343 0.8508
vn 0.3992 0.1883 0.8973
vn 0.3995 -0.0000 0.9168
vn 0.7720 -0.3315 0.5423
vn 0.7787 0.1875 0.5987
vn 0.7906 -0.0000 0.6124
vn 0.9520 -0.2870 0.1066
vn 0.9774 0.1616 0.1362
vn 0.9916 -0.0000 0.1290
vn -0.0000 1.0000 -0.0000
vn 0.9919 -0.0000 -0.1273
vn 0.7012 0.7071 -0.0907
vn -0.0545 0.9985 0.0071
vn 0.7945 -0.0000 -0.6073
vn 0.5347 0.7378 -0.4119
vn -0.0435 0.9985 0.0338
vn 0.4039 -0.0000 -0.9148
vn 0.2750 0.7283 -0.6276
vn -0.0252 0.9980 0.0581
vn 0.0739 -0.0000 -0.9973
vn 0.0521 0.7039 -0.7084
vn -0.0053 0.9973 0.0728
vn -0.0739 -0.0000 -0.9973
vn -0.0521 0.7039 -0.7084
vn 0.0053 0.9973 0.0728
vn -0.4039 -0.0000 -0.9148
vn -0.2750 0.7283 -0.6276
vn 0.0252 0.9980 0.0581
vn -0.7945 -0.0000 -0.6073
vn -0.5347 0.7378 -0.4119
vn 0.0435 0.9985 0.0338
vn -0.9919 -0.0000 -0.1273
vn -0.7012 0.7071 -0.0907
vn 0.0545 0.9985 0.0071
vn -0.9919 -0.0000 0.1273
vn -0.7012 0.7071 0.0907
vn 0.0545 0.9985 -0.0071
vn -0.7945 -0.0000 0.6073
vn -0.5347 0.7378 0.4119
vn 0.0435 0.9985 -0.0338
vn -0.4039 -0.0000 0.9148
vn -0.2750 0.7283 0.6276
vn 0.0252 0.9980 -0.0581
vn -0.0739 -0.0000 0.9973
vn -0.0521 0.7039 0.7084
vn 0.0053 0.9973 -0.0728
vn 0.0739 -0.0000 0.9973
vn 0.0521 0.7039 0.7084
vn -0.0053 0.9973 -0.0728
vn 0.4039 -0.0000 0.9148
vn 0.2750 0.7283 0.6276
vn -0.0252 0.9980 -0.0581
vn 0.7945 -0.0000 0.6073
vn 0.5347 0.7378 0.4119
vn -0.0435 0.9985 -0.0338
vn 0.9919 -0.0000 0.1273
vn 0.7012 0.7071 0.0907
vn -0.0545 0.9985 -0.0071
vt 0.812500 0.687500
vt 0.437500 0.687500
s 0
usemtl FN_Atlas
f 1/1/1 2/1/1 3/1/1 4/1/1 5/1/1 6/1/1 7/1/1 8/1/1 9/1/1 10/1/1 11/1/1 12/1/1 13/1/1 14/1/1 15/1/1 16/1/1
f 16/1/2 15/1/2 17/1/2 18/1/2
f 18/1/3 17/1/3 19/1/3 20/1/3
f 20/1/4 19/1/4 21/1/4 22/1/4
f 21/1/5 22/1/5 23/1/5 24/1/5
f 15/1/6 14/1/6 25/1/6 17/1/6
f 17/1/7 25/1/7 26/1/7 19/1/7
f 19/1/8 26/1/8 27/1/8 21/1/8
f 27/1/9 21/1/9 24/1/9 28/1/9
f 14/1/10 13/1/10 29/1/10 25/1/10
f 25/1/11 29/1/11 30/1/11 26/1/11
f 26/1/12 30/1/12 31/1/12 27/1/12
f 31/1/13 27/1/13 28/1/13 32/1/13
f 13/1/14 12/1/14 33/1/14 29/1/14
f 29/1/15 33/1/15 34/1/15 30/1/15
f 30/1/16 34/1/16 35/1/16 31/1/16
f 35/1/17 31/1/17 32/1/17 36/1/17
f 12/1/18 11/1/18 37/1/18 33/1/18
f 33/1/19 37/1/19 38/1/19 34/1/19
f 34/1/20 38/1/20 39/1/20 35/1/20
f 39/1/21 35/1/21 36/1/21 40/1/21
f 11/1/22 10/1/22 41/1/22 37/1/22
f 37/1/23 41/1/23 42/1/23 38/1/23
f 38/1/24 42/1/24 43/1/24 39/1/24
f 43/1/25 39/1/25 40/1/25 44/1/25
f 10/1/26 9/1/26 45/1/26 41/1/26
f 41/1/27 45/1/27 46/1/27 42/1/27
f 42/1/28 46/1/28 47/1/28 43/1/28
f 47/1/29 43/1/29 44/1/29 48/1/29
f 9/1/30 8/1/30 49/1/30 45/1/30
f 45/1/31 49/1/31 50/1/31 46/1/31
f 46/1/32 50/1/32 51/1/32 47/1/32
f 51/1/33 47/1/33 48/1/33 52/1/33
f 8/1/34 7/1/34 53/1/34 49/1/34
f 49/1/35 53/1/35 54/1/35 50/1/35
f 50/1/4 54/1/4 55/1/4 51/1/4
f 55/1/36 51/1/36 52/1/36 56/1/36
f 7/1/37 6/1/37 57/1/37 53/1/37
f 53/1/38 57/1/38 58/1/38 54/1/38
f 54/1/8 58/1/8 59/1/8 55/1/8
f 59/1/39 55/1/39 56/1/39 60/1/39
f 6/1/40 5/1/40 61/1/40 57/1/40
f 57/1/41 61/1/41 62/1/41 58/1/41
f 58/1/12 62/1/12 63/1/12 59/1/12
f 63/1/42 59/1/42 60/1/42 64/1/42
f 5/1/43 4/1/43 65/1/43 61/1/43
f 61/1/44 65/1/44 66/1/44 62/1/44
f 62/1/16 66/1/16 67/1/16 63/1/16
f 67/1/45 63/1/45 64/1/45 68/1/45
f 4/1/46 3/1/46 69/1/46 65/1/46
f 65/1/47 69/1/47 70/1/47 66/1/47
f 66/1/20 70/1/20 71/1/20 67/1/20
f 71/1/48 67/1/48 68/1/48 72/1/48
f 3/1/49 2/1/49 73/1/49 69/1/49
f 69/1/50 73/1/50 74/1/50 70/1/50
f 70/1/24 74/1/24 75/1/24 71/1/24
f 75/1/51 71/1/51 72/1/51 76/1/51
f 2/1/52 1/1/52 77/1/52 73/1/52
f 73/1/53 77/1/53 78/1/53 74/1/53
f 74/1/28 78/1/28 79/1/28 75/1/28
f 79/1/54 75/1/54 76/1/54 80/1/54
f 1/1/55 16/1/55 18/1/55 77/1/55
f 77/1/56 18/1/56 20/1/56 78/1/56
f 78/1/32 20/1/32 22/1/32 79/1/32
f 22/1/57 79/1/57 80/1/57 23/1/57
f 23/1/58 24/1/58 28/1/58 32/1/58 36/1/58 40/1/58 44/1/58 48/1/58 52/1/58 56/1/58 60/1/58 64/1/58 68/1/58 72/1/58 76/1/58 80/1/58
f 81/2/1 82/2/1 83/2/1 84/2/1 85/2/1 86/2/1 87/2/1 88/2/1 89/2/1 90/2/1 91/2/1 92/2/1 93/2/1 94/2/1 95/2/1 96/2/1
f 96/2/59 95/2/59 97/2/59 98/2/59
f 98/2/60 97/2/60 99/2/60 100/2/60
f 100/2/61 99/2/61 101/2/61
f 95/2/62 94/2/62 102/2/62 97/2/62
f 97/2/63 102/2/63 103/2/63 99/2/63
f 99/2/64 103/2/64 101/2/64
f 94/2/65 93/2/65 104/2/65 102/2/65
f 102/2/66 104/2/66 105/2/66 103/2/66
f 103/2/67 105/2/67 101/2/67
f 93/2/68 92/2/68 106/2/68 104/2/68
f 104/2/69 106/2/69 107/2/69 105/2/69
f 105/2/70 107/2/70 101/2/70
f 92/2/71 91/2/71 108/2/71 106/2/71
f 106/2/72 108/2/72 109/2/72 107/2/72
f 107/2/73 109/2/73 101/2/73
f 91/2/74 90/2/74 110/2/74 108/2/74
f 108/2/75 110/2/75 111/2/75 109/2/75
f 109/2/76 111/2/76 101/2/76
f 90/2/77 89/2/77 112/2/77 110/2/77
f 110/2/78 112/2/78 113/2/78 111/2/78
f 111/2/79 113/2/79 101/2/79
f 89/2/80 88/2/80 114/2/80 112/2/80
f 112/2/81 114/2/81 115/2/81 113/2/81
f 113/2/82 115/2/82 101/2/82
f 88/2/83 87/2/83 116/2/83 114/2/83
f 114/2/84 116/2/84 117/2/84 115/2/84
f 115/2/85 117/2/85 101/2/85
f 87/2/86 86/2/86 118/2/86 116/2/86
f 116/2/87 118/2/87 119/2/87 117/2/87
f 117/2/88 119/2/88 101/2/88
f 86/2/89 85/2/89 120/2/89 118/2/89
f 118/2/90 120/2/90 121/2/90 119/2/90
f 119/2/91 121/2/91 101/2/91
f 85/2/92 84/2/92 122/2/92 120/2/92
f 120/2/93 122/2/93 123/2/93 121/2/93
f 121/2/94 123/2/94 101/2/94
f 84/2/95 83/2/95 124/2/95 122/2/95
f 122/2/96 124/2/96 125/2/96 123/2/96
f 123/2/97 125/2/97 101/2/97
f 83/2/98 82/2/98 126/2/98 124/2/98
f 124/2/99 126/2/99 127/2/99 125/2/99
f 125/2/100 127/2/100 101/2/100
f 82/2/101 81/2/101 128/2/101 126/2/101
f 126/2/102 128/2/102 129/2/102 127/2/102
f 127/2/103 129/2/103 101/2/103
f 81/2/104 96/2/104 98/2/104 128/2/104
f 128/2/105 98/2/105 100/2/105 129/2/105
f 129/2/106 100/2/106 101/2/106
