# Blender 5.2.0 LTS
# www.blender.org
mtllib FN_Bin_Compost.mtl
o FN_Bin_Compost
v -0.430000 0.000000 0.371000
v -0.430000 0.000000 0.311000
v -0.370000 0.000000 0.311000
v -0.370000 0.000000 0.371000
v -0.430000 0.900000 0.371000
v -0.370000 0.900000 0.371000
v -0.370000 0.900000 0.311000
v -0.430000 0.900000 0.311000
v -0.430000 0.000000 -0.429000
v -0.430000 0.000000 -0.489000
v -0.370000 0.000000 -0.489000
v -0.370000 0.000000 -0.429000
v -0.430000 0.900000 -0.429000
v -0.370000 0.900000 -0.429000
v -0.370000 0.900000 -0.489000
v -0.430000 0.900000 -0.489000
v 0.370000 0.000000 0.371000
v 0.370000 0.000000 0.311000
v 0.430000 0.000000 0.311000
v 0.430000 0.000000 0.371000
v 0.370000 0.900000 0.371000
v 0.430000 0.900000 0.371000
v 0.430000 0.900000 0.311000
v 0.370000 0.900000 0.311000
v 0.370000 0.000000 -0.429000
v 0.370000 0.000000 -0.489000
v 0.430000 0.000000 -0.489000
v 0.430000 0.000000 -0.429000
v 0.370000 0.900000 -0.429000
v 0.430000 0.900000 -0.429000
v 0.430000 0.900000 -0.489000
v 0.370000 0.900000 -0.489000
v -0.395000 0.000000 -0.454000
v 0.395000 0.000000 -0.454000
v 0.395000 0.000000 0.336000
v -0.395000 0.000000 0.336000
v -0.330000 0.600000 0.271000
v 0.330000 0.600000 0.271000
v 0.330000 0.600000 -0.389000
v -0.330000 0.600000 -0.389000
v -0.430000 0.120000 -0.431000
v -0.430000 0.120000 -0.457000
v 0.430000 0.120000 -0.457000
v 0.430000 0.120000 -0.431000
v -0.430000 0.260000 -0.431000
v 0.430000 0.260000 -0.431000
v 0.430000 0.260000 -0.457000
v -0.430000 0.260000 -0.457000
v -0.398000 0.120000 0.371000
v -0.398000 0.120000 -0.489000
v -0.372000 0.120000 -0.489000
v -0.372000 0.120000 0.371000
v -0.398000 0.260000 0.371000
v -0.372000 0.260000 0.371000
v -0.372000 0.260000 -0.489000
v -0.398000 0.260000 -0.489000
v 0.372000 0.120000 0.371000
v 0.372000 0.120000 -0.489000
v 0.398000 0.120000 -0.489000
v 0.398000 0.120000 0.371000
v 0.372000 0.260000 0.371000
v 0.398000 0.260000 0.371000
v 0.398000 0.260000 -0.489000
v 0.372000 0.260000 -0.489000
v -0.372000 0.120000 0.339000
v -0.372000 0.120000 0.313000
v 0.372000 0.120000 0.313000
v 0.372000 0.120000 0.339000
v -0.372000 0.260000 0.339000
v 0.372000 0.260000 0.339000
v 0.372000 0.260000 0.313000
v -0.372000 0.260000 0.313000
v -0.430000 0.280000 -0.431000
v -0.430000 0.280000 -0.457000
v 0.430000 0.280000 -0.457000
v 0.430000 0.280000 -0.431000
v -0.430000 0.420000 -0.431000
v 0.430000 0.420000 -0.431000
v 0.430000 0.420000 -0.457000
v -0.430000 0.420000 -0.457000
v -0.398000 0.280000 0.371000
v -0.398000 0.280000 -0.489000
v -0.372000 0.280000 -0.489000
v -0.372000 0.280000 0.371000
v -0.398000 0.420000 0.371000
v -0.372000 0.420000 0.371000
v -0.372000 0.420000 -0.489000
v -0.398000 0.420000 -0.489000
v 0.372000 0.280000 0.371000
v 0.372000 0.280000 -0.489000
v 0.398000 0.280000 -0.489000
v 0.398000 0.280000 0.371000
v 0.372000 0.420000 0.371000
v 0.398000 0.420000 0.371000
v 0.398000 0.420000 -0.489000
v 0.372000 0.420000 -0.489000
v -0.372000 0.280000 0.339000
v -0.372000 0.280000 0.313000
v 0.372000 0.280000 0.313000
v 0.372000 0.280000 0.339000
v -0.372000 0.420000 0.339000
v 0.372000 0.420000 0.339000
v 0.372000 0.420000 0.313000
v -0.372000 0.420000 0.313000
v -0.430000 0.440000 -0.431000
v -0.430000 0.440000 -0.457000
v 0.430000 0.440000 -0.457000
v 0.430000 0.440000 -0.431000
v -0.430000 0.580000 -0.431000
v 0.430000 0.580000 -0.431000
v 0.430000 0.580000 -0.457000
v -0.430000 0.580000 -0.457000
v -0.398000 0.440000 0.371000
v -0.398000 0.440000 -0.489000
v -0.372000 0.440000 -0.489000
v -0.372000 0.440000 0.371000
v -0.398000 0.580000 0.371000
v -0.372000 0.580000 0.371000
v -0.372000 0.580000 -0.489000
v -0.398000 0.580000 -0.489000
v 0.372000 0.440000 0.371000
v 0.372000 0.440000 -0.489000
v 0.398000 0.440000 -0.489000
v 0.398000 0.440000 0.371000
v 0.372000 0.580000 0.371000
v 0.398000 0.580000 0.371000
v 0.398000 0.580000 -0.489000
v 0.372000 0.580000 -0.489000
v -0.372000 0.440000 0.339000
v -0.372000 0.440000 0.313000
v 0.372000 0.440000 0.313000
v 0.372000 0.440000 0.339000
v -0.372000 0.580000 0.339000
v 0.372000 0.580000 0.339000
v 0.372000 0.580000 0.313000
v -0.372000 0.580000 0.313000
v -0.430000 0.600000 -0.431000
v -0.430000 0.600000 -0.457000
v 0.430000 0.600000 -0.457000
v 0.430000 0.600000 -0.431000
v -0.430000 0.740000 -0.431000
v 0.430000 0.740000 -0.431000
v 0.430000 0.740000 -0.457000
v -0.430000 0.740000 -0.457000
v -0.398000 0.600000 0.371000
v -0.398000 0.600000 -0.489000
v -0.372000 0.600000 -0.489000
v -0.372000 0.600000 0.371000
v -0.398000 0.740000 0.371000
v -0.372000 0.740000 0.371000
v -0.372000 0.740000 -0.489000
v -0.398000 0.740000 -0.489000
v 0.372000 0.600000 0.371000
v 0.372000 0.600000 -0.489000
v 0.398000 0.600000 -0.489000
v 0.398000 0.600000 0.371000
v 0.372000 0.740000 0.371000
v 0.398000 0.740000 0.371000
v 0.398000 0.740000 -0.489000
v 0.372000 0.740000 -0.489000
v -0.372000 0.600000 0.339000
v -0.372000 0.600000 0.313000
v 0.372000 0.600000 0.313000
v 0.372000 0.600000 0.339000
v -0.372000 0.740000 0.339000
v 0.372000 0.740000 0.339000
v 0.372000 0.740000 0.313000
v -0.372000 0.740000 0.313000
v -0.430000 0.760000 -0.431000
v -0.430000 0.760000 -0.457000
v 0.430000 0.760000 -0.457000
v 0.430000 0.760000 -0.431000
v -0.430000 0.880000 -0.431000
v 0.430000 0.880000 -0.431000
v 0.430000 0.880000 -0.457000
v -0.430000 0.880000 -0.457000
v -0.398000 0.760000 0.371000
v -0.398000 0.760000 -0.489000
v -0.372000 0.760000 -0.489000
v -0.372000 0.760000 0.371000
v -0.398000 0.880000 0.371000
v -0.372000 0.880000 0.371000
v -0.372000 0.880000 -0.489000
v -0.398000 0.880000 -0.489000
v 0.372000 0.760000 0.371000
v 0.372000 0.760000 -0.489000
v 0.398000 0.760000 -0.489000
v 0.398000 0.760000 0.371000
v 0.372000 0.880000 0.371000
v 0.398000 0.880000 0.371000
v 0.398000 0.880000 -0.489000
v 0.372000 0.880000 -0.489000
v 0.120000 0.730000 0.357000
v 0.120000 0.730000 0.331000
v 0.120000 0.000000 0.463000
v 0.120000 0.000000 0.489000
v 0.260000 0.000000 0.489000
v 0.260000 0.000000 0.463000
v 0.260000 0.730000 0.331000
v 0.260000 0.730000 0.357000
vn -0.0000 -1.0000 -0.0000
vn -0.0000 1.0000 -0.0000
vn -0.0000 -0.0000 1.0000
vn -0.0000 -0.0000 -1.0000
vn -1.0000 -0.0000 -0.0000
vn 1.0000 -0.0000 -0.0000
vn -0.0000 0.1077 0.9942
vn 0.9942 0.1077 -0.0000
vn -0.0000 0.1077 -0.9942
vn -0.9942 0.1077 -0.0000
vn -0.0000 -0.1779 -0.9840
vn -0.0000 0.1779 0.9840
vt 0.437500 0.937500
vt 0.812500 0.937500
s 0
usemtl FN_Atlas
f 1/1/1 2/1/1 3/1/1 4/1/1
f 5/1/2 6/1/2 7/1/2 8/1/2
f 1/1/3 4/1/3 6/1/3 5/1/3
f 3/1/4 2/1/4 8/1/4 7/1/4
f 1/1/5 5/1/5 8/1/5 2/1/5
f 4/1/6 3/1/6 7/1/6 6/1/6
f 9/1/1 10/1/1 11/1/1 12/1/1
f 13/1/2 14/1/2 15/1/2 16/1/2
f 9/1/3 12/1/3 14/1/3 13/1/3
f 11/1/4 10/1/4 16/1/4 15/1/4
f 9/1/5 13/1/5 16/1/5 10/1/5
f 12/1/6 11/1/6 15/1/6 14/1/6
f 17/1/1 18/1/1 19/1/1 20/1/1
f 21/1/2 22/1/2 23/1/2 24/1/2
f 17/1/3 20/1/3 22/1/3 21/1/3
f 19/1/4 18/1/4 24/1/4 23/1/4
f 17/1/5 21/1/5 24/1/5 18/1/5
f 20/1/6 19/1/6 23/1/6 22/1/6
f 25/1/1 26/1/1 27/1/1 28/1/1
f 29/1/2 30/1/2 31/1/2 32/1/2
f 25/1/3 28/1/3 30/1/3 29/1/3
f 27/1/4 26/1/4 32/1/4 31/1/4
f 25/1/5 29/1/5 32/1/5 26/1/5
f 28/1/6 27/1/6 31/1/6 30/1/6
f 33/2/1 34/2/1 35/2/1 36/2/1
f 37/2/2 38/2/2 39/2/2 40/2/2
f 36/2/7 35/2/7 38/2/7 37/2/7
f 35/2/8 34/2/8 39/2/8 38/2/8
f 34/2/9 33/2/9 40/2/9 39/2/9
f 33/2/10 36/2/10 37/2/10 40/2/10
f 41/1/1 42/1/1 43/1/1 44/1/1
f 45/1/2 46/1/2 47/1/2 48/1/2
f 41/1/3 44/1/3 46/1/3 45/1/3
f 43/1/4 42/1/4 48/1/4 47/1/4
f 41/1/5 45/1/5 48/1/5 42/1/5
f 44/1/6 43/1/6 47/1/6 46/1/6
f 49/1/1 50/1/1 51/1/1 52/1/1
f 53/1/2 54/1/2 55/1/2 56/1/2
f 49/1/3 52/1/3 54/1/3 53/1/3
f 51/1/4 50/1/4 56/1/4 55/1/4
f 49/1/5 53/1/5 56/1/5 50/1/5
f 52/1/6 51/1/6 55/1/6 54/1/6
f 57/1/1 58/1/1 59/1/1 60/1/1
f 61/1/2 62/1/2 63/1/2 64/1/2
f 57/1/3 60/1/3 62/1/3 61/1/3
f 59/1/4 58/1/4 64/1/4 63/1/4
f 57/1/5 61/1/5 64/1/5 58/1/5
f 60/1/6 59/1/6 63/1/6 62/1/6
f 65/1/1 66/1/1 67/1/1 68/1/1
f 69/1/2 70/1/2 71/1/2 72/1/2
f 65/1/3 68/1/3 70/1/3 69/1/3
f 67/1/4 66/1/4 72/1/4 71/1/4
f 65/1/5 69/1/5 72/1/5 66/1/5
f 68/1/6 67/1/6 71/1/6 70/1/6
f 73/1/1 74/1/1 75/1/1 76/1/1
f 77/1/2 78/1/2 79/1/2 80/1/2
f 73/1/3 76/1/3 78/1/3 77/1/3
f 75/1/4 74/1/4 80/1/4 79/1/4
f 73/1/5 77/1/5 80/1/5 74/1/5
f 76/1/6 75/1/6 79/1/6 78/1/6
f 81/1/1 82/1/1 83/1/1 84/1/1
f 85/1/2 86/1/2 87/1/2 88/1/2
f 81/1/3 84/1/3 86/1/3 85/1/3
f 83/1/4 82/1/4 88/1/4 87/1/4
f 81/1/5 85/1/5 88/1/5 82/1/5
f 84/1/6 83/1/6 87/1/6 86/1/6
f 89/1/1 90/1/1 91/1/1 92/1/1
f 93/1/2 94/1/2 95/1/2 96/1/2
f 89/1/3 92/1/3 94/1/3 93/1/3
f 91/1/4 90/1/4 96/1/4 95/1/4
f 89/1/5 93/1/5 96/1/5 90/1/5
f 92/1/6 91/1/6 95/1/6 94/1/6
f 97/1/1 98/1/1 99/1/1 100/1/1
f 101/1/2 102/1/2 103/1/2 104/1/2
f 97/1/3 100/1/3 102/1/3 101/1/3
f 99/1/4 98/1/4 104/1/4 103/1/4
f 97/1/5 101/1/5 104/1/5 98/1/5
f 100/1/6 99/1/6 103/1/6 102/1/6
f 105/1/1 106/1/1 107/1/1 108/1/1
f 109/1/2 110/1/2 111/1/2 112/1/2
f 105/1/3 108/1/3 110/1/3 109/1/3
f 107/1/4 106/1/4 112/1/4 111/1/4
f 105/1/5 109/1/5 112/1/5 106/1/5
f 108/1/6 107/1/6 111/1/6 110/1/6
f 113/1/1 114/1/1 115/1/1 116/1/1
f 117/1/2 118/1/2 119/1/2 120/1/2
f 113/1/3 116/1/3 118/1/3 117/1/3
f 115/1/4 114/1/4 120/1/4 119/1/4
f 113/1/5 117/1/5 120/1/5 114/1/5
f 116/1/6 115/1/6 119/1/6 118/1/6
f 121/1/1 122/1/1 123/1/1 124/1/1
f 125/1/2 126/1/2 127/1/2 128/1/2
f 121/1/3 124/1/3 126/1/3 125/1/3
f 123/1/4 122/1/4 128/1/4 127/1/4
f 121/1/5 125/1/5 128/1/5 122/1/5
f 124/1/6 123/1/6 127/1/6 126/1/6
f 129/1/1 130/1/1 131/1/1 132/1/1
f 133/1/2 134/1/2 135/1/2 136/1/2
f 129/1/3 132/1/3 134/1/3 133/1/3
f 131/1/4 130/1/4 136/1/4 135/1/4
f 129/1/5 133/1/5 136/1/5 130/1/5
f 132/1/6 131/1/6 135/1/6 134/1/6
f 137/1/1 138/1/1 139/1/1 140/1/1
f 141/1/2 142/1/2 143/1/2 144/1/2
f 137/1/3 140/1/3 142/1/3 141/1/3
f 139/1/4 138/1/4 144/1/4 143/1/4
f 137/1/5 141/1/5 144/1/5 138/1/5
f 140/1/6 139/1/6 143/1/6 142/1/6
f 145/1/1 146/1/1 147/1/1 148/1/1
f 149/1/2 150/1/2 151/1/2 152/1/2
f 145/1/3 148/1/3 150/1/3 149/1/3
f 147/1/4 146/1/4 152/1/4 151/1/4
f 145/1/5 149/1/5 152/1/5 146/1/5
f 148/1/6 147/1/6 151/1/6 150/1/6
f 153/1/1 154/1/1 155/1/1 156/1/1
f 157/1/2 158/1/2 159/1/2 160/1/2
f 153/1/3 156/1/3 158/1/3 157/1/3
f 155/1/4 154/1/4 160/1/4 159/1/4
f 153/1/5 157/1/5 160/1/5 154/1/5
f 156/1/6 155/1/6 159/1/6 158/1/6
f 161/1/1 162/1/1 163/1/1 164/1/1
f 165/1/2 166/1/2 167/1/2 168/1/2
f 161/1/3 164/1/3 166/1/3 165/1/3
f 163/1/4 162/1/4 168/1/4 167/1/4
f 161/1/5 165/1/5 168/1/5 162/1/5
f 164/1/6 163/1/6 167/1/6 166/1/6
f 169/1/1 170/1/1 171/1/1 172/1/1
f 173/1/2 174/1/2 175/1/2 176/1/2
f 169/1/3 172/1/3 174/1/3 173/1/3
f 171/1/4 170/1/4 176/1/4 175/1/4
f 169/1/5 173/1/5 176/1/5 170/1/5
f 172/1/6 171/1/6 175/1/6 174/1/6
f 177/1/1 178/1/1 179/1/1 180/1/1
f 181/1/2 182/1/2 183/1/2 184/1/2
f 177/1/3 180/1/3 182/1/3 181/1/3
f 179/1/4 178/1/4 184/1/4 183/1/4
f 177/1/5 181/1/5 184/1/5 178/1/5
f 180/1/6 179/1/6 183/1/6 182/1/6
f 185/1/1 186/1/1 187/1/1 188/1/1
f 189/1/2 190/1/2 191/1/2 192/1/2
f 185/1/3 188/1/3 190/1/3 189/1/3
f 187/1/4 186/1/4 192/1/4 191/1/4
f 185/1/5 189/1/5 192/1/5 186/1/5
f 188/1/6 187/1/6 191/1/6 190/1/6
f 193/1/5 194/1/5 195/1/5 196/1/5
f 197/1/6 198/1/6 199/1/6 200/1/6
f 196/1/1 195/1/1 198/1/1 197/1/1
f 195/1/11 194/1/11 199/1/11 198/1/11
f 194/1/2 193/1/2 200/1/2 199/1/2
f 193/1/12 196/1/12 197/1/12 200/1/12
