# Blender 5.2.0 LTS
# www.blender.org
mtllib FN_Bench_Pew.mtl
o FN_Bench_Pew
v -0.900000 0.000000 0.230000
v -0.900000 0.000000 -0.230000
v -0.900000 0.520000 -0.230000
v -0.900000 0.700000 -0.196000
v -0.900000 0.870000 -0.172000
v -0.900000 0.980000 -0.150000
v -0.900000 0.920000 -0.090000
v -0.900000 0.450000 -0.090000
v -0.900000 0.450000 0.230000
v -0.870000 0.450000 0.230000
v -0.870000 0.450000 -0.090000
v -0.870000 0.920000 -0.090000
v -0.870000 0.980000 -0.150000
v -0.870000 0.870000 -0.172000
v -0.870000 0.700000 -0.196000
v -0.870000 0.520000 -0.230000
v -0.870000 0.000000 -0.230000
v -0.870000 0.000000 0.230000
v 0.870000 0.450000 0.230000
v 0.870000 0.450000 -0.090000
v 0.870000 0.920000 -0.090000
v 0.870000 0.980000 -0.150000
v 0.870000 0.870000 -0.172000
v 0.870000 0.700000 -0.196000
v 0.870000 0.520000 -0.230000
v 0.870000 0.000000 -0.230000
v 0.870000 0.000000 0.230000
v 0.900000 0.000000 0.230000
v 0.900000 0.000000 -0.230000
v 0.900000 0.520000 -0.230000
v 0.900000 0.700000 -0.196000
v 0.900000 0.870000 -0.172000
v 0.900000 0.980000 -0.150000
v 0.900000 0.920000 -0.090000
v 0.900000 0.450000 -0.090000
v 0.900000 0.450000 0.230000
v -0.894095 0.420000 -0.092937
v 0.894095 0.420000 -0.092937
v 0.894095 0.420000 0.228937
v -0.894095 0.420000 0.228937
v 0.900000 0.426000 0.230000
v -0.900000 0.426000 0.230000
v 0.900000 0.426000 -0.094000
v -0.900000 0.426000 -0.094000
v 0.900000 0.444000 0.230000
v -0.900000 0.444000 0.230000
v 0.900000 0.444000 -0.094000
v -0.900000 0.444000 -0.094000
v -0.894095 0.450000 0.228937
v 0.894095 0.450000 0.228937
v 0.894095 0.450000 -0.092937
v -0.894095 0.450000 -0.092937
v -0.900000 0.430000 -0.090000
v -0.900000 0.430000 -0.130000
v 0.900000 0.430000 -0.130000
v 0.900000 0.430000 -0.090000
v -0.900000 0.940000 -0.090000
v 0.900000 0.940000 -0.090000
v 0.900000 0.940000 -0.130000
v -0.900000 0.940000 -0.130000
v -0.885000 0.350000 0.150000
v -0.885000 0.350000 0.096000
v 0.885000 0.350000 0.096000
v 0.885000 0.350000 0.150000
v -0.885000 0.420000 0.150000
v 0.885000 0.420000 0.150000
v 0.885000 0.420000 0.096000
v -0.885000 0.420000 0.096000
v -0.851008 0.700000 -0.225753
v 0.851008 0.700000 -0.225753
v 0.851008 0.700000 -0.120247
v -0.851008 0.700000 -0.120247
v 0.855000 0.704000 -0.120000
v -0.855000 0.704000 -0.120000
v 0.855000 0.704000 -0.226000
v -0.855000 0.704000 -0.226000
v 0.855000 0.718000 -0.120000
v -0.855000 0.718000 -0.120000
v 0.855000 0.718000 -0.226000
v -0.855000 0.718000 -0.226000
v -0.851008 0.722000 -0.120247
v 0.851008 0.722000 -0.120247
v 0.851008 0.722000 -0.225753
v -0.851008 0.722000 -0.225753
v -0.584000 0.640000 -0.128000
v -0.584000 0.640000 -0.200000
v -0.536000 0.640000 -0.200000
v -0.536000 0.640000 -0.128000
v -0.584000 0.702000 -0.128000
v -0.536000 0.702000 -0.128000
v -0.536000 0.702000 -0.200000
v -0.584000 0.702000 -0.200000
v 0.536000 0.640000 -0.128000
v 0.536000 0.640000 -0.200000
v 0.584000 0.640000 -0.200000
v 0.584000 0.640000 -0.128000
v 0.536000 0.702000 -0.128000
v 0.584000 0.702000 -0.128000
v 0.584000 0.702000 -0.200000
v 0.536000 0.702000 -0.200000
vn 1.0000 -0.0000 -0.0000
vn -1.0000 -0.0000 -0.0000
vn -0.0000 -1.0000 -0.0000
vn -0.0000 -0.0000 -1.0000
vn -0.0000 -0.7071 -0.7071
vn -0.0000 -0.1961 0.9806
vn -0.0000 -0.1398 0.9902
vn -0.0000 -0.1856 0.9826
vn -0.0000 -0.0000 1.0000
vn -0.0000 1.0000 -0.0000
vn -0.0000 0.1856 -0.9826
vn -0.0000 0.1398 -0.9902
vn -0.0000 0.1961 -0.9806
vn -0.0000 0.7071 0.7071
vn -0.0000 -0.1744 0.9847
vn 0.7127 -0.7014 -0.0000
vn -0.0000 -0.1744 -0.9847
vn -0.7127 -0.7014 -0.0000
vn -0.0000 0.1744 0.9847
vn 0.7127 0.7014 -0.0000
vn -0.0000 0.1744 -0.9847
vn -0.7127 0.7014 -0.0000
vn -0.0000 -0.0618 0.9981
vn 0.7078 -0.7064 -0.0000
vn -0.0000 -0.0618 -0.9981
vn -0.7078 -0.7064 -0.0000
vn -0.0000 0.0618 0.9981
vn 0.7078 0.7064 -0.0000
vn -0.0000 0.0618 -0.9981
vn -0.7078 0.7064 -0.0000
vt 0.687500 0.937500
vt 0.812500 0.937500
vt 0.437500 0.937500
s 0
usemtl FN_Atlas
f 1/1/1 2/1/1 3/1/1 4/1/1 5/1/1 6/1/1 7/1/1 8/1/1 9/1/1
f 10/1/2 11/1/2 12/1/2 13/1/2 14/1/2 15/1/2 16/1/2 17/1/2 18/1/2
f 9/1/3 8/1/3 11/1/3 10/1/3
f 8/1/4 7/1/4 12/1/4 11/1/4
f 7/1/5 6/1/5 13/1/5 12/1/5
f 6/1/6 5/1/6 14/1/6 13/1/6
f 5/1/7 4/1/7 15/1/7 14/1/7
f 4/1/8 3/1/8 16/1/8 15/1/8
f 3/1/9 2/1/9 17/1/9 16/1/9
f 2/1/10 1/1/10 18/1/10 17/1/10
f 1/1/4 9/1/4 10/1/4 18/1/4
f 19/1/2 20/1/2 21/1/2 22/1/2 23/1/2 24/1/2 25/1/2 26/1/2 27/1/2
f 28/1/1 29/1/1 30/1/1 31/1/1 32/1/1 33/1/1 34/1/1 35/1/1 36/1/1
f 27/1/3 26/1/3 29/1/3 28/1/3
f 26/1/4 25/1/4 30/1/4 29/1/4
f 25/1/11 24/1/11 31/1/11 30/1/11
f 24/1/12 23/1/12 32/1/12 31/1/12
f 23/1/13 22/1/13 33/1/13 32/1/13
f 22/1/14 21/1/14 34/1/14 33/1/14
f 21/1/9 20/1/9 35/1/9 34/1/9
f 20/1/10 19/1/10 36/1/10 35/1/10
f 19/1/9 27/1/9 28/1/9 36/1/9
f 37/2/3 38/2/3 39/2/3 40/2/3
f 40/2/15 39/2/15 41/2/15 42/2/15
f 39/2/16 38/2/16 43/2/16 41/2/16
f 38/2/17 37/2/17 44/2/17 43/2/17
f 37/2/18 40/2/18 42/2/18 44/2/18
f 42/2/9 41/2/9 45/2/9 46/2/9
f 41/2/1 43/2/1 47/2/1 45/2/1
f 43/2/4 44/2/4 48/2/4 47/2/4
f 44/2/2 42/2/2 46/2/2 48/2/2
f 49/3/10 50/3/10 51/3/10 52/3/10
f 46/2/19 45/2/19 50/2/19 49/2/19
f 45/2/20 47/2/20 51/2/20 50/2/20
f 47/2/21 48/2/21 52/2/21 51/2/21
f 48/2/22 46/2/22 49/2/22 52/2/22
f 53/3/3 54/3/3 55/3/3 56/3/3
f 57/3/10 58/3/10 59/3/10 60/3/10
f 53/3/9 56/3/9 58/3/9 57/3/9
f 55/3/4 54/3/4 60/3/4 59/3/4
f 53/3/2 57/3/2 60/3/2 54/3/2
f 56/3/1 55/3/1 59/3/1 58/3/1
f 61/1/3 62/1/3 63/1/3 64/1/3
f 65/1/10 66/1/10 67/1/10 68/1/10
f 61/1/9 64/1/9 66/1/9 65/1/9
f 63/1/4 62/1/4 68/1/4 67/1/4
f 61/1/2 65/1/2 68/1/2 62/1/2
f 64/1/1 63/1/1 67/1/1 66/1/1
f 69/2/3 70/2/3 71/2/3 72/2/3
f 72/2/23 71/2/23 73/2/23 74/2/23
f 71/2/24 70/2/24 75/2/24 73/2/24
f 70/2/25 69/2/25 76/2/25 75/2/25
f 69/2/26 72/2/26 74/2/26 76/2/26
f 74/2/9 73/2/9 77/2/9 78/2/9
f 73/2/1 75/2/1 79/2/1 77/2/1
f 75/2/4 76/2/4 80/2/4 79/2/4
f 76/2/2 74/2/2 78/2/2 80/2/2
f 81/1/10 82/1/10 83/1/10 84/1/10
f 78/2/27 77/2/27 82/2/27 81/2/27
f 77/2/28 79/2/28 83/2/28 82/2/28
f 79/2/29 80/2/29 84/2/29 83/2/29
f 80/2/30 78/2/30 81/2/30 84/2/30
f 85/1/3 86/1/3 87/1/3 88/1/3
f 89/1/10 90/1/10 91/1/10 92/1/10
f 85/1/9 88/1/9 90/1/9 89/1/9
f 87/1/4 86/1/4 92/1/4 91/1/4
f 85/1/2 89/1/2 92/1/2 86/1/2
f 88/1/1 87/1/1 91/1/1 90/1/1
f 93/1/3 94/1/3 95/1/3 96/1/3
f 97/1/10 98/1/10 99/1/10 100/1/10
f 93/1/9 96/1/9 98/1/9 97/1/9
f 95/1/4 94/1/4 100/1/4 99/1/4
f 93/1/2 97/1/2 100/1/2 94/1/2
f 96/1/1 95/1/1 99/1/1 98/1/1
