# Blender 5.2.0 LTS
# www.blender.org
mtllib FN_Bin_Recycling.mtl
o FN_Bin_Recycling
v -0.420000 0.000000 0.171000
v -0.420000 0.000000 -0.177000
v 0.420000 0.000000 -0.177000
v 0.420000 0.000000 0.171000
v -0.420000 0.040000 0.171000
v 0.420000 0.040000 0.171000
v 0.420000 0.040000 -0.177000
v -0.420000 0.040000 -0.177000
v -0.450000 0.030000 0.197000
v -0.450000 0.030000 -0.203000
v -0.150000 0.030000 -0.203000
v -0.150000 0.030000 0.197000
v -0.450000 0.680000 0.197000
v -0.150000 0.680000 0.197000
v -0.150000 0.680000 -0.203000
v -0.450000 0.680000 -0.203000
v 0.150000 0.030000 0.197000
v 0.150000 0.030000 -0.203000
v 0.450000 0.030000 -0.203000
v 0.450000 0.030000 0.197000
v 0.150000 0.680000 0.197000
v 0.450000 0.680000 0.197000
v 0.450000 0.680000 -0.203000
v 0.150000 0.680000 -0.203000
v -0.158000 0.030000 0.201000
v -0.158000 0.030000 0.185000
v 0.158000 0.030000 0.185000
v 0.158000 0.030000 0.201000
v -0.158000 0.680000 0.201000
v 0.158000 0.680000 0.201000
v 0.158000 0.680000 0.185000
v -0.158000 0.680000 0.185000
v -0.158000 0.030000 -0.191000
v -0.158000 0.030000 -0.207000
v 0.158000 0.030000 -0.207000
v 0.158000 0.030000 -0.191000
v -0.158000 0.680000 -0.191000
v 0.158000 0.680000 -0.191000
v 0.158000 0.680000 -0.207000
v -0.158000 0.680000 -0.207000
v -0.158000 0.030000 0.189000
v -0.158000 0.030000 -0.195000
v 0.158000 0.030000 -0.195000
v 0.158000 0.030000 0.189000
v -0.158000 0.048000 0.189000
v 0.158000 0.048000 0.189000
v 0.158000 0.048000 -0.195000
v -0.158000 0.048000 -0.195000
v -0.446000 0.672000 0.193000
v -0.446000 0.672000 -0.199000
v -0.154000 0.672000 -0.199000
v -0.154000 0.672000 0.193000
v -0.446000 0.702000 0.193000
v -0.154000 0.702000 0.193000
v -0.154000 0.702000 -0.199000
v -0.446000 0.702000 -0.199000
v -0.386000 0.682000 0.207000
v -0.386000 0.682000 0.189000
v -0.214000 0.682000 0.189000
v -0.214000 0.682000 0.207000
v -0.386000 0.702000 0.207000
v -0.214000 0.702000 0.207000
v -0.214000 0.702000 0.189000
v -0.386000 0.702000 0.189000
v 0.154000 0.672000 0.193000
v 0.154000 0.672000 -0.199000
v 0.446000 0.672000 -0.199000
v 0.446000 0.672000 0.193000
v 0.154000 0.702000 0.193000
v 0.446000 0.702000 0.193000
v 0.446000 0.702000 -0.199000
v 0.154000 0.702000 -0.199000
v 0.214000 0.682000 0.207000
v 0.214000 0.682000 0.189000
v 0.386000 0.682000 0.189000
v 0.386000 0.682000 0.207000
v 0.214000 0.702000 0.207000
v 0.386000 0.702000 0.207000
v 0.386000 0.702000 0.189000
v 0.214000 0.702000 0.189000
v -0.154000 0.659288 -0.179083
v -0.154000 0.958045 0.071604
v -0.154000 0.974757 0.051687
v -0.154000 0.676000 -0.199000
v 0.154000 0.676000 -0.199000
v 0.154000 0.974757 0.051687
v 0.154000 0.958045 0.071604
v 0.154000 0.659288 -0.179083
vn -0.0000 -1.0000 -0.0000
vn -0.0000 1.0000 -0.0000
vn -0.0000 -0.0000 1.0000
vn -0.0000 -0.0000 -1.0000
vn -1.0000 -0.0000 -0.0000
vn 1.0000 -0.0000 -0.0000
vn -0.0000 0.6428 -0.7660
vn -0.0000 0.7660 0.6428
vn -0.0000 -0.6428 0.7660
vn -0.0000 -0.7660 -0.6428
vt 0.812500 0.312500
vt 0.562500 0.812500
vt 0.937500 0.687500
vt 0.437500 0.062500
vt 0.312500 0.062500
s 0
usemtl FN_Atlas
f 1/1/1 2/1/1 3/1/1 4/1/1
f 5/1/2 6/1/2 7/1/2 8/1/2
f 1/1/3 4/1/3 6/1/3 5/1/3
f 3/1/4 2/1/4 8/1/4 7/1/4
f 1/1/5 5/1/5 8/1/5 2/1/5
f 4/1/6 3/1/6 7/1/6 6/1/6
f 9/2/1 10/2/1 11/2/1 12/2/1
f 13/2/2 14/2/2 15/2/2 16/2/2
f 9/2/3 12/2/3 14/2/3 13/2/3
f 11/2/4 10/2/4 16/2/4 15/2/4
f 9/2/5 13/2/5 16/2/5 10/2/5
f 12/3/6 11/3/6 15/3/6 14/3/6
f 17/2/1 18/2/1 19/2/1 20/2/1
f 21/2/2 22/2/2 23/2/2 24/2/2
f 17/2/3 20/2/3 22/2/3 21/2/3
f 19/2/4 18/2/4 24/2/4 23/2/4
f 17/3/5 21/3/5 24/3/5 18/3/5
f 20/2/6 19/2/6 23/2/6 22/2/6
f 25/2/1 26/2/1 27/2/1 28/2/1
f 29/2/2 30/2/2 31/2/2 32/2/2
f 25/2/3 28/2/3 30/2/3 29/2/3
f 27/3/4 26/3/4 32/3/4 31/3/4
f 25/2/5 29/2/5 32/2/5 26/2/5
f 28/2/6 27/2/6 31/2/6 30/2/6
f 33/2/1 34/2/1 35/2/1 36/2/1
f 37/2/2 38/2/2 39/2/2 40/2/2
f 33/3/3 36/3/3 38/3/3 37/3/3
f 35/2/4 34/2/4 40/2/4 39/2/4
f 33/2/5 37/2/5 40/2/5 34/2/5
f 36/2/6 35/2/6 39/2/6 38/2/6
f 41/2/1 42/2/1 43/2/1 44/2/1
f 45/3/2 46/3/2 47/3/2 48/3/2
f 41/2/3 44/2/3 46/2/3 45/2/3
f 43/2/4 42/2/4 48/2/4 47/2/4
f 41/2/5 45/2/5 48/2/5 42/2/5
f 44/2/6 43/2/6 47/2/6 46/2/6
f 49/4/1 50/4/1 51/4/1 52/4/1
f 53/4/2 54/4/2 55/4/2 56/4/2
f 49/4/3 52/4/3 54/4/3 53/4/3
f 51/4/4 50/4/4 56/4/4 55/4/4
f 49/4/5 53/4/5 56/4/5 50/4/5
f 52/4/6 51/4/6 55/4/6 54/4/6
f 57/1/1 58/1/1 59/1/1 60/1/1
f 61/1/2 62/1/2 63/1/2 64/1/2
f 57/1/3 60/1/3 62/1/3 61/1/3
f 59/1/4 58/1/4 64/1/4 63/1/4
f 57/1/5 61/1/5 64/1/5 58/1/5
f 60/1/6 59/1/6 63/1/6 62/1/6
f 65/5/1 66/5/1 67/5/1 68/5/1
f 69/5/2 70/5/2 71/5/2 72/5/2
f 65/5/3 68/5/3 70/5/3 69/5/3
f 67/5/4 66/5/4 72/5/4 71/5/4
f 65/5/5 69/5/5 72/5/5 66/5/5
f 68/5/6 67/5/6 71/5/6 70/5/6
f 73/1/1 74/1/1 75/1/1 76/1/1
f 77/1/2 78/1/2 79/1/2 80/1/2
f 73/1/3 76/1/3 78/1/3 77/1/3
f 75/1/4 74/1/4 80/1/4 79/1/4
f 73/1/5 77/1/5 80/1/5 74/1/5
f 76/1/6 75/1/6 79/1/6 78/1/6
f 81/1/5 82/1/5 83/1/5 84/1/5
f 85/1/6 86/1/6 87/1/6 88/1/6
f 84/1/7 83/1/7 86/1/7 85/1/7
f 83/1/8 82/1/8 87/1/8 86/1/8
f 82/1/9 81/1/9 88/1/9 87/1/9
f 81/1/10 84/1/10 85/1/10 88/1/10
