# Blender 5.2.0 LTS
# www.blender.org
mtllib FN_Barbecue_Kettle.mtl
o FN_Barbecue_Kettle
v 0.285000 0.565190 0.032979
v 0.246817 0.565190 -0.109521
v 0.242487 0.505190 -0.107021
v 0.280000 0.505190 0.032979
v 0.142500 0.565190 -0.213839
v 0.140000 0.505190 -0.209508
v 0.000000 0.565190 -0.252021
v 0.000000 0.505190 -0.247021
v -0.142500 0.565190 -0.213839
v -0.140000 0.505190 -0.209508
v -0.246817 0.565190 -0.109521
v -0.242487 0.505190 -0.107021
v -0.285000 0.565190 0.032979
v -0.280000 0.505190 0.032979
v -0.246817 0.565190 0.175479
v -0.242487 0.505190 0.172979
v -0.142500 0.565190 0.279796
v -0.140000 0.505190 0.275466
v -0.000000 0.565190 0.317979
v -0.000000 0.505190 0.312979
v 0.142500 0.565190 0.279796
v 0.140000 0.505190 0.275466
v 0.246817 0.565190 0.175479
v 0.242487 0.505190 0.172979
v 0.216506 0.425190 -0.092021
v 0.250000 0.425190 0.032979
v 0.125000 0.425190 -0.183528
v 0.000000 0.425190 -0.217021
v -0.125000 0.425190 -0.183528
v -0.216506 0.425190 -0.092021
v -0.250000 0.425190 0.032979
v -0.216506 0.425190 0.157979
v -0.125000 0.425190 0.249485
v -0.000000 0.425190 0.282979
v 0.125000 0.425190 0.249485
v 0.216506 0.425190 0.157979
v 0.155885 0.365190 -0.057021
v 0.180000 0.365190 0.032979
v 0.090000 0.365190 -0.122906
v 0.000000 0.365190 -0.147021
v -0.090000 0.365190 -0.122906
v -0.155885 0.365190 -0.057021
v -0.180000 0.365190 0.032979
v -0.155885 0.365190 0.122979
v -0.090000 0.365190 0.188863
v -0.000000 0.365190 0.212979
v 0.090000 0.365190 0.188863
v 0.155885 0.365190 0.122979
v 0.077942 0.325190 -0.012021
v 0.090000 0.325190 0.032979
v 0.045000 0.325190 -0.044964
v 0.000000 0.325190 -0.057021
v -0.045000 0.325190 -0.044964
v -0.077942 0.325190 -0.012021
v -0.090000 0.325190 0.032979
v -0.077942 0.325190 0.077979
v -0.045000 0.325190 0.110921
v -0.000000 0.325190 0.122979
v 0.045000 0.325190 0.110921
v 0.077942 0.325190 0.077979
v 0.238157 0.625190 -0.104521
v 0.275000 0.625190 0.032979
v 0.137500 0.625190 -0.205178
v 0.000000 0.625190 -0.242021
v -0.137500 0.625190 -0.205178
v -0.238157 0.625190 -0.104521
v -0.275000 0.625190 0.032979
v -0.238157 0.625190 0.170479
v -0.137500 0.625190 0.271136
v -0.000000 0.625190 0.307979
v 0.137500 0.625190 0.271136
v 0.238157 0.625190 0.170479
v 0.203516 0.685190 -0.084521
v 0.235000 0.685190 0.032979
v 0.117500 0.685190 -0.170537
v 0.000000 0.685190 -0.202021
v -0.117500 0.685190 -0.170537
v -0.203516 0.685190 -0.084521
v -0.235000 0.685190 0.032979
v -0.203516 0.685190 0.150479
v -0.117500 0.685190 0.236495
v -0.000000 0.685190 0.267979
v 0.117500 0.685190 0.236495
v 0.203516 0.685190 0.150479
v 0.138564 0.725190 -0.047021
v 0.160000 0.725190 0.032979
v 0.080000 0.725190 -0.105585
v 0.000000 0.725190 -0.127021
v -0.080000 0.725190 -0.105585
v -0.138564 0.725190 -0.047021
v -0.160000 0.725190 0.032979
v -0.138564 0.725190 0.112979
v -0.080000 0.725190 0.171543
v -0.000000 0.725190 0.192979
v 0.080000 0.725190 0.171543
v 0.138564 0.725190 0.112979
v 0.060622 0.750190 -0.002021
v 0.070000 0.750190 0.032979
v 0.035000 0.750190 -0.027643
v 0.000000 0.750190 -0.037021
v -0.035000 0.750190 -0.027643
v -0.060622 0.750190 -0.002021
v -0.070000 0.750190 0.032979
v -0.060622 0.750190 0.067979
v -0.035000 0.750190 0.093600
v -0.000000 0.750190 0.102979
v 0.035000 0.750190 0.093600
v 0.060622 0.750190 0.067979
v 0.007000 0.390381 -0.137979
v -0.007000 0.390381 -0.137979
v -0.014000 0.385190 -0.127021
v -0.007000 0.380000 -0.116064
v 0.007000 0.380000 -0.116064
v 0.014000 0.385190 -0.127021
v 0.014000 0.005190 -0.307021
v 0.007000 0.000000 -0.296064
v -0.007000 0.000000 -0.296064
v -0.014000 0.005190 -0.307021
v -0.007000 0.010381 -0.317979
v 0.007000 0.010381 -0.317979
v -0.150985 0.391584 0.112067
v -0.143985 0.391584 0.124191
v -0.131564 0.385190 0.125103
v -0.126143 0.378796 0.113890
v -0.133143 0.378796 0.101766
v -0.145564 0.385190 0.100854
v -0.301449 0.095190 0.190854
v -0.289027 0.088796 0.191766
v -0.282027 0.088796 0.203890
v -0.287449 0.095190 0.215103
v -0.299870 0.101584 0.214191
v -0.306870 0.101584 0.202067
v -0.316449 0.095190 0.112979
v -0.316449 0.148091 0.130167
v -0.316449 0.180785 0.175167
v -0.316449 0.180785 0.230790
v -0.316449 0.148091 0.275790
v -0.316449 0.095190 0.292979
v -0.316449 0.042290 0.275790
v -0.316449 0.009595 0.230790
v -0.316449 0.009595 0.175167
v -0.316449 0.042290 0.130167
v -0.272449 0.042290 0.130167
v -0.272449 0.009595 0.175167
v -0.272449 0.009595 0.230790
v -0.272449 0.042290 0.275790
v -0.272449 0.095190 0.292979
v -0.272449 0.148091 0.275790
v -0.272449 0.180785 0.230790
v -0.272449 0.180785 0.175167
v -0.272449 0.148091 0.130167
v -0.272449 0.095190 0.112979
v 0.143985 0.391584 0.124191
v 0.150985 0.391584 0.112067
v 0.145564 0.385190 0.100854
v 0.133143 0.378796 0.101766
v 0.126143 0.378796 0.113890
v 0.131564 0.385190 0.125103
v 0.287449 0.095190 0.215103
v 0.282027 0.088796 0.203890
v 0.289027 0.088796 0.191766
v 0.301449 0.095190 0.190854
v 0.306870 0.101584 0.202067
v 0.299870 0.101584 0.214191
v 0.272449 0.095190 0.112979
v 0.272449 0.148091 0.130167
v 0.272449 0.180785 0.175167
v 0.272449 0.180785 0.230790
v 0.272449 0.148091 0.275790
v 0.272449 0.095190 0.292979
v 0.272449 0.042290 0.275790
v 0.272449 0.009595 0.230790
v 0.272449 0.009595 0.175167
v 0.272449 0.042290 0.130167
v 0.316449 0.042290 0.130167
v 0.316449 0.009595 0.175167
v 0.316449 0.009595 0.230790
v 0.316449 0.042290 0.275790
v 0.316449 0.095190 0.292979
v 0.316449 0.148091 0.275790
v 0.316449 0.180785 0.230790
v 0.316449 0.180785 0.175167
v 0.316449 0.148091 0.130167
v 0.316449 0.095190 0.112979
v -0.124000 0.740190 0.046979
v -0.124000 0.740190 0.018979
v -0.096000 0.740190 0.018979
v -0.096000 0.740190 0.046979
v -0.124000 0.815190 0.046979
v -0.096000 0.815190 0.046979
v -0.096000 0.815190 0.018979
v -0.124000 0.815190 0.018979
v 0.096000 0.740190 0.046979
v 0.096000 0.740190 0.018979
v 0.124000 0.740190 0.018979
v 0.124000 0.740190 0.046979
v 0.096000 0.815190 0.046979
v 0.124000 0.815190 0.046979
v 0.124000 0.815190 0.018979
v 0.096000 0.815190 0.018979
v -0.140000 0.807190 0.050979
v -0.140000 0.807190 0.014979
v 0.140000 0.807190 0.014979
v 0.140000 0.807190 0.050979
v -0.140000 0.835190 0.050979
v 0.140000 0.835190 0.050979
v 0.140000 0.835190 0.014979
v -0.140000 0.835190 0.014979
vn -0.9628 0.0802 0.2580
vn -0.7048 0.0802 0.7048
vn -0.2580 0.0802 0.9628
vn 0.2580 0.0802 0.9628
vn 0.7048 0.0802 0.7048
vn 0.9628 0.0802 0.2580
vn 0.9628 0.0802 -0.2580
vn 0.7048 0.0802 -0.7048
vn 0.2580 0.0802 -0.9628
vn -0.2580 0.0802 -0.9628
vn -0.7048 0.0802 -0.7048
vn -0.9628 0.0802 -0.2580
vn -0.9082 0.3406 0.2433
vn -0.6648 0.3406 0.6648
vn -0.2433 0.3406 0.9082
vn 0.2433 0.3406 0.9082
vn 0.6648 0.3406 0.6648
vn 0.9082 0.3406 0.2433
vn 0.9082 0.3406 -0.2433
vn 0.6648 0.3406 -0.6648
vn 0.2433 0.3406 -0.9082
vn -0.2433 0.3406 -0.9082
vn -0.6648 0.3406 -0.6648
vn -0.9082 0.3406 -0.2433
vn -0.6411 0.7480 0.1718
vn -0.4693 0.7480 0.4693
vn -0.1718 0.7480 0.6411
vn 0.1718 0.7480 0.6411
vn 0.4693 0.7480 0.4693
vn 0.6411 0.7480 0.1718
vn 0.6411 0.7480 -0.1718
vn 0.4693 0.7480 -0.4693
vn 0.1718 0.7480 -0.6411
vn -0.1718 0.7480 -0.6411
vn -0.4693 0.7480 -0.4693
vn -0.6411 0.7480 -0.1718
vn -0.4038 0.9084 0.1082
vn -0.2956 0.9084 0.2956
vn -0.1082 0.9084 0.4038
vn 0.1082 0.9084 0.4038
vn 0.2956 0.9084 0.2956
vn 0.4038 0.9084 0.1082
vn 0.4038 0.9084 -0.1082
vn 0.2956 0.9084 -0.2956
vn 0.1082 0.9084 -0.4038
vn -0.1082 0.9084 -0.4038
vn -0.2956 0.9084 -0.2956
vn -0.4038 0.9084 -0.1082
vn -0.0000 -1.0000 -0.0000
vn 0.9536 0.1589 -0.2555
vn 0.6981 0.1589 -0.6981
vn 0.2555 0.1589 -0.9536
vn -0.2555 0.1589 -0.9536
vn -0.6981 0.1589 -0.6981
vn -0.9536 0.1589 -0.2555
vn -0.9536 0.1589 0.2555
vn -0.6981 0.1589 0.6981
vn -0.2555 0.1589 0.9536
vn 0.2555 0.1589 0.9536
vn 0.6981 0.1589 0.6981
vn 0.9536 0.1589 0.2555
vn 0.8121 0.5414 -0.2176
vn 0.5945 0.5414 -0.5945
vn 0.2176 0.5414 -0.8121
vn -0.2176 0.5414 -0.8121
vn -0.5945 0.5414 -0.5945
vn -0.8121 0.5414 -0.2176
vn -0.8121 0.5414 0.2176
vn -0.5945 0.5414 0.5945
vn -0.2176 0.5414 0.8121
vn 0.2176 0.5414 0.8121
vn 0.5945 0.5414 0.5945
vn 0.8121 0.5414 0.2176
vn 0.4669 0.8754 -0.1251
vn 0.3418 0.8754 -0.3418
vn 0.1251 0.8754 -0.4669
vn -0.1251 0.8754 -0.4669
vn -0.3418 0.8754 -0.3418
vn -0.4669 0.8754 -0.1251
vn -0.4669 0.8754 0.1251
vn -0.3418 0.8754 0.3418
vn -0.1251 0.8754 0.4669
vn 0.1251 0.8754 0.4669
vn 0.3418 0.8754 0.3418
vn 0.4669 0.8754 0.1251
vn 0.2670 0.9610 -0.0715
vn 0.1954 0.9611 -0.1954
vn 0.0715 0.9610 -0.2670
vn -0.0715 0.9610 -0.2670
vn -0.1954 0.9610 -0.1954
vn -0.2670 0.9610 -0.0715
vn -0.2670 0.9610 0.0715
vn -0.1954 0.9610 0.1954
vn -0.0715 0.9610 0.2670
vn 0.0715 0.9610 0.2670
vn 0.1954 0.9610 0.1954
vn 0.2670 0.9610 0.0715
vn -0.0000 1.0000 -0.0000
vn -0.0000 0.9037 0.4281
vn -0.0000 -0.9037 -0.4281
vn 0.8660 -0.2140 0.4519
vn -0.0000 -0.4281 0.9037
vn -0.8660 -0.2140 0.4519
vn -0.8660 0.2140 -0.4519
vn -0.0000 0.4281 -0.9037
vn 0.8660 0.2140 -0.4519
vn 0.4567 0.8496 -0.2637
vn -0.4567 -0.8496 0.2637
vn -0.0651 -0.2637 -0.9624
vn 0.7358 -0.5274 -0.4248
vn 0.8009 -0.2637 0.5376
vn 0.0651 0.2637 0.9624
vn -0.7358 0.5274 0.4248
vn -0.8009 0.2637 -0.5376
vn 1.0000 -0.0000 -0.0000
vn -1.0000 -0.0000 -0.0000
vn -0.0000 0.3090 -0.9511
vn -0.0000 0.8090 -0.5878
vn -0.0000 0.8090 0.5878
vn -0.0000 0.3090 0.9511
vn -0.0000 -0.3090 0.9511
vn -0.0000 -0.8090 0.5878
vn -0.0000 -0.8090 -0.5878
vn -0.0000 -0.3090 -0.9511
vn -0.4567 0.8496 -0.2637
vn 0.4567 -0.8496 0.2637
vn -0.8009 -0.2637 0.5376
vn -0.7358 -0.5274 -0.4248
vn 0.0651 -0.2637 -0.9624
vn 0.8009 0.2637 -0.5376
vn 0.7358 0.5274 0.4248
vn -0.0651 0.2637 0.9624
vn -0.0000 -0.0000 1.0000
vn -0.0000 -0.0000 -1.0000
vt 0.812500 0.312500
vt 0.312500 0.062500
vt 0.062500 0.312500
vt 0.937500 0.187500
vt 0.437500 0.937500
s 0
usemtl FN_Atlas
f 1/1/1 2/1/1 3/1/1 4/1/1
f 2/1/2 5/1/2 6/1/2 3/1/2
f 5/1/3 7/1/3 8/1/3 6/1/3
f 7/1/4 9/1/4 10/1/4 8/1/4
f 9/1/5 11/1/5 12/1/5 10/1/5
f 11/1/6 13/1/6 14/1/6 12/1/6
f 13/1/7 15/1/7 16/1/7 14/1/7
f 15/1/8 17/1/8 18/1/8 16/1/8
f 17/1/9 19/1/9 20/1/9 18/1/9
f 19/1/10 21/1/10 22/1/10 20/1/10
f 21/1/11 23/1/11 24/1/11 22/1/11
f 23/1/12 1/1/12 4/1/12 24/1/12
f 4/1/13 3/1/13 25/1/13 26/1/13
f 3/1/14 6/1/14 27/1/14 25/1/14
f 6/1/15 8/1/15 28/1/15 27/1/15
f 8/1/16 10/1/16 29/1/16 28/1/16
f 10/1/17 12/1/17 30/1/17 29/1/17
f 12/1/18 14/1/18 31/1/18 30/1/18
f 14/1/19 16/1/19 32/1/19 31/1/19
f 16/1/20 18/1/20 33/1/20 32/1/20
f 18/1/21 20/1/21 34/1/21 33/1/21
f 20/1/22 22/1/22 35/1/22 34/1/22
f 22/1/23 24/1/23 36/1/23 35/1/23
f 24/1/24 4/1/24 26/1/24 36/1/24
f 26/1/25 25/1/25 37/1/25 38/1/25
f 25/1/26 27/1/26 39/1/26 37/1/26
f 27/1/27 28/1/27 40/1/27 39/1/27
f 28/1/28 29/1/28 41/1/28 40/1/28
f 29/1/29 30/1/29 42/1/29 41/1/29
f 30/1/30 31/1/30 43/1/30 42/1/30
f 31/1/31 32/1/31 44/1/31 43/1/31
f 32/1/32 33/1/32 45/1/32 44/1/32
f 33/1/33 34/1/33 46/1/33 45/1/33
f 34/1/34 35/1/34 47/1/34 46/1/34
f 35/1/35 36/1/35 48/1/35 47/1/35
f 36/1/36 26/1/36 38/1/36 48/1/36
f 38/1/37 37/1/37 49/1/37 50/1/37
f 37/1/38 39/1/38 51/1/38 49/1/38
f 39/1/39 40/1/39 52/1/39 51/1/39
f 40/1/40 41/1/40 53/1/40 52/1/40
f 41/1/41 42/1/41 54/1/41 53/1/41
f 42/1/42 43/1/42 55/1/42 54/1/42
f 43/1/43 44/1/43 56/1/43 55/1/43
f 44/1/44 45/1/44 57/1/44 56/1/44
f 45/1/45 46/1/45 58/1/45 57/1/45
f 46/1/46 47/1/46 59/1/46 58/1/46
f 47/1/47 48/1/47 60/1/47 59/1/47
f 48/1/48 38/1/48 50/1/48 60/1/48
f 60/1/49 59/1/49 58/1/49 57/1/49 56/1/49 55/1/49 54/1/49 53/1/49 52/1/49 51/1/49 49/1/49 50/1/49
f 1/2/50 2/2/50 61/2/50 62/2/50
f 2/2/51 5/2/51 63/2/51 61/2/51
f 5/2/52 7/2/52 64/2/52 63/2/52
f 7/2/53 9/2/53 65/2/53 64/2/53
f 9/2/54 11/2/54 66/2/54 65/2/54
f 11/2/55 13/2/55 67/2/55 66/2/55
f 13/2/56 15/2/56 68/2/56 67/2/56
f 15/2/57 17/2/57 69/2/57 68/2/57
f 17/2/58 19/2/58 70/2/58 69/2/58
f 19/2/59 21/2/59 71/2/59 70/2/59
f 21/2/60 23/2/60 72/2/60 71/2/60
f 23/2/61 1/2/61 62/2/61 72/2/61
f 62/2/62 61/2/62 73/2/62 74/2/62
f 61/2/63 63/2/63 75/2/63 73/2/63
f 63/2/64 64/2/64 76/2/64 75/2/64
f 64/2/65 65/2/65 77/2/65 76/2/65
f 65/2/66 66/2/66 78/2/66 77/2/66
f 66/2/67 67/2/67 79/2/67 78/2/67
f 67/2/68 68/2/68 80/2/68 79/2/68
f 68/2/69 69/2/69 81/2/69 80/2/69
f 69/2/70 70/2/70 82/2/70 81/2/70
f 70/2/71 71/2/71 83/2/71 82/2/71
f 71/2/72 72/2/72 84/2/72 83/2/72
f 72/2/73 62/2/73 74/2/73 84/2/73
f 74/2/74 73/2/74 85/2/74 86/2/74
f 73/2/75 75/2/75 87/2/75 85/2/75
f 75/2/76 76/2/76 88/2/76 87/2/76
f 76/2/77 77/2/77 89/2/77 88/2/77
f 77/2/78 78/2/78 90/2/78 89/2/78
f 78/2/79 79/2/79 91/2/79 90/2/79
f 79/2/80 80/2/80 92/2/80 91/2/80
f 80/2/81 81/2/81 93/2/81 92/2/81
f 81/2/82 82/2/82 94/2/82 93/2/82
f 82/2/83 83/2/83 95/2/83 94/2/83
f 83/2/84 84/2/84 96/2/84 95/2/84
f 84/2/85 74/2/85 86/2/85 96/2/85
f 86/2/86 85/2/86 97/2/86 98/2/86
f 85/2/87 87/2/87 99/2/87 97/2/87
f 87/2/88 88/2/88 100/2/88 99/2/88
f 88/2/89 89/2/89 101/2/89 100/2/89
f 89/2/90 90/2/90 102/2/90 101/2/90
f 90/2/91 91/2/91 103/2/91 102/2/91
f 91/2/92 92/2/92 104/2/92 103/2/92
f 92/2/93 93/2/93 105/2/93 104/2/93
f 93/2/94 94/2/94 106/2/94 105/2/94
f 94/2/95 95/2/95 107/2/95 106/2/95
f 95/2/96 96/2/96 108/2/96 107/2/96
f 96/2/97 86/2/97 98/2/97 108/2/97
f 98/2/98 97/2/98 99/2/98 100/2/98 101/2/98 102/2/98 103/2/98 104/2/98 105/2/98 106/2/98 107/2/98 108/2/98
f 109/3/99 110/3/99 111/3/99 112/3/99 113/3/99 114/3/99
f 115/3/100 116/3/100 117/3/100 118/3/100 119/3/100 120/3/100
f 114/3/101 113/3/101 116/3/101 115/3/101
f 113/3/102 112/3/102 117/3/102 116/3/102
f 112/3/103 111/3/103 118/3/103 117/3/103
f 111/3/104 110/3/104 119/3/104 118/3/104
f 110/3/105 109/3/105 120/3/105 119/3/105
f 109/3/106 114/3/106 115/3/106 120/3/106
f 121/3/107 122/3/107 123/3/107 124/3/107 125/3/107 126/3/107
f 127/3/108 128/3/108 129/3/108 130/3/108 131/3/108 132/3/108
f 126/3/109 125/3/109 128/3/109 127/3/109
f 125/3/110 124/3/110 129/3/110 128/3/110
f 124/3/111 123/3/111 130/3/111 129/3/111
f 123/3/112 122/3/112 131/3/112 130/3/112
f 122/3/113 121/3/113 132/3/113 131/3/113
f 121/3/114 126/3/114 127/3/114 132/3/114
f 133/4/115 134/4/115 135/4/115 136/4/115 137/4/115 138/4/115 139/4/115 140/4/115 141/4/115 142/4/115
f 143/4/116 144/4/116 145/4/116 146/4/116 147/4/116 148/4/116 149/4/116 150/4/116 151/4/116 152/4/116
f 133/4/117 134/4/117 151/4/117 152/4/117
f 134/4/118 135/4/118 150/4/118 151/4/118
f 135/4/98 136/4/98 149/4/98 150/4/98
f 136/4/119 137/4/119 148/4/119 149/4/119
f 137/4/120 138/4/120 147/4/120 148/4/120
f 138/4/121 139/4/121 146/4/121 147/4/121
f 139/4/122 140/4/122 145/4/122 146/4/122
f 140/4/49 141/4/49 144/4/49 145/4/49
f 141/4/123 142/4/123 143/4/123 144/4/123
f 142/4/124 133/4/124 152/4/124 143/4/124
f 153/3/125 154/3/125 155/3/125 156/3/125 157/3/125 158/3/125
f 159/3/126 160/3/126 161/3/126 162/3/126 163/3/126 164/3/126
f 158/3/127 157/3/127 160/3/127 159/3/127
f 157/3/128 156/3/128 161/3/128 160/3/128
f 156/3/129 155/3/129 162/3/129 161/3/129
f 155/3/130 154/3/130 163/3/130 162/3/130
f 154/3/131 153/3/131 164/3/131 163/3/131
f 153/3/132 158/3/132 159/3/132 164/3/132
f 165/4/115 166/4/115 167/4/115 168/4/115 169/4/115 170/4/115 171/4/115 172/4/115 173/4/115 174/4/115
f 175/4/116 176/4/116 177/4/116 178/4/116 179/4/116 180/4/116 181/4/116 182/4/116 183/4/116 184/4/116
f 165/4/117 166/4/117 183/4/117 184/4/117
f 166/4/118 167/4/118 182/4/118 183/4/118
f 167/4/98 168/4/98 181/4/98 182/4/98
f 168/4/119 169/4/119 180/4/119 181/4/119
f 169/4/120 170/4/120 179/4/120 180/4/120
f 170/4/121 171/4/121 178/4/121 179/4/121
f 171/4/122 172/4/122 177/4/122 178/4/122
f 172/4/49 173/4/49 176/4/49 177/4/49
f 173/4/123 174/4/123 175/4/123 176/4/123
f 174/4/124 165/4/124 184/4/124 175/4/124
f 185/5/49 186/5/49 187/5/49 188/5/49
f 189/5/98 190/5/98 191/5/98 192/5/98
f 185/5/133 188/5/133 190/5/133 189/5/133
f 187/5/134 186/5/134 192/5/134 191/5/134
f 185/5/116 189/5/116 192/5/116 186/5/116
f 188/5/115 187/5/115 191/5/115 190/5/115
f 193/5/49 194/5/49 195/5/49 196/5/49
f 197/5/98 198/5/98 199/5/98 200/5/98
f 193/5/133 196/5/133 198/5/133 197/5/133
f 195/5/134 194/5/134 200/5/134 199/5/134
f 193/5/116 197/5/116 200/5/116 194/5/116
f 196/5/115 195/5/115 199/5/115 198/5/115
f 201/5/49 202/5/49 203/5/49 204/5/49
f 205/5/98 206/5/98 207/5/98 208/5/98
f 201/5/133 204/5/133 206/5/133 205/5/133
f 203/5/134 202/5/134 208/5/134 207/5/134
f 201/5/116 205/5/116 208/5/116 202/5/116
f 204/5/115 203/5/115 207/5/115 206/5/115
