# Blender 5.2.0 LTS
# www.blender.org
mtllib FN_Butt_Water.mtl
o FN_Butt_Water
v -0.216000 0.000000 0.187414
v -0.216000 0.000000 0.135414
v -0.164000 0.000000 0.135414
v -0.164000 0.000000 0.187414
v -0.216000 0.310000 0.187414
v -0.164000 0.310000 0.187414
v -0.164000 0.310000 0.135414
v -0.216000 0.310000 0.135414
v -0.216000 0.000000 -0.192586
v -0.216000 0.000000 -0.244586
v -0.164000 0.000000 -0.244586
v -0.164000 0.000000 -0.192586
v -0.216000 0.310000 -0.192586
v -0.164000 0.310000 -0.192586
v -0.164000 0.310000 -0.244586
v -0.216000 0.310000 -0.244586
v 0.164000 0.000000 0.187414
v 0.164000 0.000000 0.135414
v 0.216000 0.000000 0.135414
v 0.216000 0.000000 0.187414
v 0.164000 0.310000 0.187414
v 0.216000 0.310000 0.187414
v 0.216000 0.310000 0.135414
v 0.164000 0.310000 0.135414
v 0.164000 0.000000 -0.192586
v 0.164000 0.000000 -0.244586
v 0.216000 0.000000 -0.244586
v 0.216000 0.000000 -0.192586
v 0.164000 0.310000 -0.192586
v 0.216000 0.310000 -0.192586
v 0.216000 0.310000 -0.244586
v 0.164000 0.310000 -0.244586
v -0.216000 0.180000 0.179414
v -0.216000 0.180000 0.143414
v 0.216000 0.180000 0.143414
v 0.216000 0.180000 0.179414
v -0.216000 0.230000 0.179414
v 0.216000 0.230000 0.179414
v 0.216000 0.230000 0.143414
v -0.216000 0.230000 0.143414
v -0.216000 0.180000 -0.200586
v -0.216000 0.180000 -0.236586
v 0.216000 0.180000 -0.236586
v 0.216000 0.180000 -0.200586
v -0.216000 0.230000 -0.200586
v 0.216000 0.230000 -0.200586
v 0.216000 0.230000 -0.236586
v -0.216000 0.230000 -0.236586
v -0.208000 0.186000 0.187414
v -0.208000 0.186000 -0.244586
v -0.172000 0.186000 -0.244586
v -0.172000 0.186000 0.187414
v -0.208000 0.224000 0.187414
v -0.172000 0.224000 0.187414
v -0.172000 0.224000 -0.244586
v -0.208000 0.224000 -0.244586
v 0.172000 0.186000 0.187414
v 0.172000 0.186000 -0.244586
v 0.208000 0.186000 -0.244586
v 0.208000 0.186000 0.187414
v 0.172000 0.224000 0.187414
v 0.208000 0.224000 0.187414
v 0.208000 0.224000 -0.244586
v 0.172000 0.224000 -0.244586
v 0.226525 0.300000 0.135994
v 0.086525 0.300000 0.237710
v -0.086525 0.300000 0.237710
v -0.226525 0.300000 0.135994
v -0.280000 0.300000 -0.028586
v -0.226525 0.300000 -0.193166
v -0.086525 0.300000 -0.294882
v 0.086525 0.300000 -0.294882
v 0.226525 0.300000 -0.193166
v 0.280000 0.300000 -0.028586
v 0.236233 0.560000 -0.200220
v 0.292000 0.560000 -0.028586
v 0.090233 0.560000 -0.306295
v -0.090233 0.560000 -0.306295
v -0.236233 0.560000 -0.200220
v -0.292000 0.560000 -0.028586
v -0.236233 0.560000 0.143047
v -0.090233 0.560000 0.249122
v 0.090233 0.560000 0.249122
v 0.236233 0.560000 0.143047
v 0.245941 0.580000 -0.207273
v 0.304000 0.580000 -0.028586
v 0.093941 0.580000 -0.317707
v -0.093941 0.580000 -0.317707
v -0.245941 0.580000 -0.207273
v -0.304000 0.580000 -0.028586
v -0.245941 0.580000 0.150100
v -0.093941 0.580000 0.260535
v 0.093941 0.580000 0.260535
v 0.245941 0.580000 0.150100
v 0.236233 0.600000 -0.200220
v 0.292000 0.600000 -0.028586
v 0.090233 0.600000 -0.306295
v -0.090233 0.600000 -0.306295
v -0.236233 0.600000 -0.200220
v -0.292000 0.600000 -0.028586
v -0.236233 0.600000 0.143047
v -0.090233 0.600000 0.249122
v 0.090233 0.600000 0.249122
v 0.236233 0.600000 0.143047
v 0.241087 0.900000 -0.203746
v 0.298000 0.900000 -0.028586
v 0.092087 0.900000 -0.312001
v -0.092087 0.900000 -0.312001
v -0.241087 0.900000 -0.203746
v -0.298000 0.900000 -0.028586
v -0.241087 0.900000 0.146574
v -0.092087 0.900000 0.254829
v 0.092087 0.900000 0.254829
v 0.241087 0.900000 0.146574
v 0.250795 0.920000 -0.210800
v 0.310000 0.920000 -0.028586
v 0.095795 0.920000 -0.323414
v -0.095795 0.920000 -0.323414
v -0.250795 0.920000 -0.210800
v -0.310000 0.920000 -0.028586
v -0.250795 0.920000 0.153627
v -0.095795 0.920000 0.266241
v 0.095795 0.920000 0.266241
v 0.250795 0.920000 0.153627
v 0.241087 0.940000 -0.203746
v 0.298000 0.940000 -0.028586
v 0.092087 0.940000 -0.312001
v -0.092087 0.940000 -0.312001
v -0.241087 0.940000 -0.203746
v -0.298000 0.940000 -0.028586
v -0.241087 0.940000 0.146574
v -0.092087 0.940000 0.254829
v 0.092087 0.940000 0.254829
v 0.241087 0.940000 0.146574
v 0.244323 1.200000 -0.206097
v 0.302000 1.200000 -0.028586
v 0.093323 1.200000 -0.315805
v -0.093323 1.200000 -0.315805
v -0.244323 1.200000 -0.206097
v -0.302000 1.200000 -0.028586
v -0.244323 1.200000 0.148925
v -0.093323 1.200000 0.258633
v 0.093323 1.200000 0.258633
v 0.244323 1.200000 0.148925
v 0.310000 1.190000 -0.028586
v 0.250795 1.190000 -0.210800
v 0.250795 1.236000 -0.210800
v 0.310000 1.236000 -0.028586
v 0.095795 1.190000 -0.323414
v 0.095795 1.236000 -0.323414
v -0.095795 1.190000 -0.323414
v -0.095795 1.236000 -0.323414
v -0.250795 1.190000 -0.210800
v -0.250795 1.236000 -0.210800
v -0.310000 1.190000 -0.028586
v -0.310000 1.236000 -0.028586
v -0.250795 1.190000 0.153627
v -0.250795 1.236000 0.153627
v -0.095795 1.190000 0.266241
v -0.095795 1.236000 0.266241
v 0.095795 1.190000 0.266241
v 0.095795 1.236000 0.266241
v 0.250795 1.190000 0.153627
v 0.250795 1.236000 0.153627
v 0.045000 1.230000 -0.028586
v 0.031820 1.230000 -0.060406
v 0.031820 1.270000 -0.060406
v 0.045000 1.270000 -0.028586
v 0.000000 1.230000 -0.073586
v 0.000000 1.270000 -0.073586
v -0.031820 1.230000 -0.060406
v -0.031820 1.270000 -0.060406
v -0.045000 1.230000 -0.028586
v -0.045000 1.270000 -0.028586
v -0.031820 1.230000 0.003234
v -0.031820 1.270000 0.003234
v -0.000000 1.230000 0.016414
v -0.000000 1.270000 0.016414
v 0.031820 1.230000 0.003234
v 0.031820 1.270000 0.003234
v -0.030000 0.360000 0.301414
v -0.030000 0.360000 0.226414
v 0.030000 0.360000 0.226414
v 0.030000 0.360000 0.301414
v -0.030000 0.420000 0.301414
v 0.030000 0.420000 0.301414
v 0.030000 0.420000 0.226414
v -0.030000 0.420000 0.226414
v -0.012000 0.330000 0.316414
v -0.012000 0.330000 0.286414
v 0.012000 0.330000 0.286414
v 0.012000 0.330000 0.316414
v -0.012000 0.372000 0.316414
v 0.012000 0.372000 0.316414
v 0.012000 0.372000 0.286414
v -0.012000 0.372000 0.286414
v -0.040000 0.400000 0.323414
v -0.040000 0.400000 0.293414
v 0.040000 0.400000 0.293414
v 0.040000 0.400000 0.323414
v -0.040000 0.416000 0.323414
v 0.040000 0.416000 0.323414
v 0.040000 0.416000 0.293414
v -0.040000 0.416000 0.293414
vn -0.0000 -1.0000 -0.0000
vn -0.0000 1.0000 -0.0000
vn -0.0000 -0.0000 1.0000
vn -0.0000 -0.0000 -1.0000
vn -1.0000 -0.0000 -0.0000
vn 1.0000 -0.0000 -0.0000
vn 0.9501 -0.0439 -0.3087
vn 0.5872 -0.0439 -0.8082
vn -0.0000 -0.0439 -0.9990
vn -0.5872 -0.0439 -0.8082
vn -0.9501 -0.0439 -0.3087
vn -0.9501 -0.0439 0.3087
vn -0.5872 -0.0439 0.8082
vn -0.0000 -0.0439 0.9990
vn 0.5872 -0.0439 0.8082
vn 0.9501 -0.0439 0.3087
vn 0.8260 -0.4956 -0.2684
vn 0.5105 -0.4956 -0.7027
vn -0.0000 -0.4956 -0.8685
vn -0.5105 -0.4956 -0.7027
vn -0.8260 -0.4956 -0.2684
vn -0.8260 -0.4956 0.2684
vn -0.5105 -0.4956 0.7027
vn -0.0000 -0.4956 0.8685
vn 0.5105 -0.4956 0.7027
vn 0.8260 -0.4956 0.2684
vn 0.8260 0.4956 -0.2684
vn 0.5105 0.4956 -0.7027
vn -0.0000 0.4956 -0.8685
vn -0.5105 0.4956 -0.7027
vn -0.8260 0.4956 -0.2684
vn -0.8260 0.4956 0.2684
vn -0.5105 0.4956 0.7027
vn -0.0000 0.4956 0.8685
vn 0.5105 0.4956 0.7027
vn 0.8260 0.4956 0.2684
vn 0.9509 -0.0190 -0.3090
vn 0.5877 -0.0190 -0.8089
vn -0.0000 -0.0190 -0.9998
vn -0.5877 -0.0190 -0.8089
vn -0.9509 -0.0190 -0.3090
vn -0.9509 -0.0190 0.3090
vn -0.5877 -0.0190 0.8089
vn -0.0000 -0.0190 0.9998
vn 0.5877 -0.0190 0.8089
vn 0.9509 -0.0190 0.3090
vn 0.9510 -0.0146 -0.3090
vn 0.5877 -0.0146 -0.8089
vn -0.0000 -0.0146 -0.9999
vn -0.5877 -0.0146 -0.8089
vn -0.9510 -0.0146 -0.3090
vn -0.9510 -0.0146 0.3090
vn -0.5877 -0.0146 0.8089
vn -0.0000 -0.0146 0.9999
vn 0.5877 -0.0146 0.8089
vn 0.9510 -0.0146 0.3090
vn 0.9511 -0.0000 -0.3090
vn 0.5878 -0.0000 -0.8090
vn -0.5878 -0.0000 -0.8090
vn -0.9511 -0.0000 -0.3090
vn -0.9511 -0.0000 0.3090
vn -0.5878 -0.0000 0.8090
vn 0.5878 -0.0000 0.8090
vn 0.9511 -0.0000 0.3090
vn 0.9239 -0.0000 -0.3827
vn 0.3827 -0.0000 -0.9239
vn -0.3827 -0.0000 -0.9239
vn -0.9239 -0.0000 -0.3827
vn -0.9239 -0.0000 0.3827
vn -0.3827 -0.0000 0.9239
vn 0.3827 -0.0000 0.9239
vn 0.9239 -0.0000 0.3827
vt 0.062500 0.312500
vt 0.562500 0.562500
vt 0.437500 0.312500
s 0
usemtl FN_Atlas
f 1/1/1 2/1/1 3/1/1 4/1/1
f 5/1/2 6/1/2 7/1/2 8/1/2
f 1/1/3 4/1/3 6/1/3 5/1/3
f 3/1/4 2/1/4 8/1/4 7/1/4
f 1/1/5 5/1/5 8/1/5 2/1/5
f 4/1/6 3/1/6 7/1/6 6/1/6
f 9/1/1 10/1/1 11/1/1 12/1/1
f 13/1/2 14/1/2 15/1/2 16/1/2
f 9/1/3 12/1/3 14/1/3 13/1/3
f 11/1/4 10/1/4 16/1/4 15/1/4
f 9/1/5 13/1/5 16/1/5 10/1/5
f 12/1/6 11/1/6 15/1/6 14/1/6
f 17/1/1 18/1/1 19/1/1 20/1/1
f 21/1/2 22/1/2 23/1/2 24/1/2
f 17/1/3 20/1/3 22/1/3 21/1/3
f 19/1/4 18/1/4 24/1/4 23/1/4
f 17/1/5 21/1/5 24/1/5 18/1/5
f 20/1/6 19/1/6 23/1/6 22/1/6
f 25/1/1 26/1/1 27/1/1 28/1/1
f 29/1/2 30/1/2 31/1/2 32/1/2
f 25/1/3 28/1/3 30/1/3 29/1/3
f 27/1/4 26/1/4 32/1/4 31/1/4
f 25/1/5 29/1/5 32/1/5 26/1/5
f 28/1/6 27/1/6 31/1/6 30/1/6
f 33/1/1 34/1/1 35/1/1 36/1/1
f 37/1/2 38/1/2 39/1/2 40/1/2
f 33/1/3 36/1/3 38/1/3 37/1/3
f 35/1/4 34/1/4 40/1/4 39/1/4
f 33/1/5 37/1/5 40/1/5 34/1/5
f 36/1/6 35/1/6 39/1/6 38/1/6
f 41/1/1 42/1/1 43/1/1 44/1/1
f 45/1/2 46/1/2 47/1/2 48/1/2
f 41/1/3 44/1/3 46/1/3 45/1/3
f 43/1/4 42/1/4 48/1/4 47/1/4
f 41/1/5 45/1/5 48/1/5 42/1/5
f 44/1/6 43/1/6 47/1/6 46/1/6
f 49/1/1 50/1/1 51/1/1 52/1/1
f 53/1/2 54/1/2 55/1/2 56/1/2
f 49/1/3 52/1/3 54/1/3 53/1/3
f 51/1/4 50/1/4 56/1/4 55/1/4
f 49/1/5 53/1/5 56/1/5 50/1/5
f 52/1/6 51/1/6 55/1/6 54/1/6
f 57/1/1 58/1/1 59/1/1 60/1/1
f 61/1/2 62/1/2 63/1/2 64/1/2
f 57/1/3 60/1/3 62/1/3 61/1/3
f 59/1/4 58/1/4 64/1/4 63/1/4
f 57/1/5 61/1/5 64/1/5 58/1/5
f 60/1/6 59/1/6 63/1/6 62/1/6
f 65/2/1 66/2/1 67/2/1 68/2/1 69/2/1 70/2/1 71/2/1 72/2/1 73/2/1 74/2/1
f 74/2/7 73/2/7 75/2/7 76/2/7
f 73/2/8 72/2/8 77/2/8 75/2/8
f 72/2/9 71/2/9 78/2/9 77/2/9
f 71/2/10 70/2/10 79/2/10 78/2/10
f 70/2/11 69/2/11 80/2/11 79/2/11
f 69/2/12 68/2/12 81/2/12 80/2/12
f 68/2/13 67/2/13 82/2/13 81/2/13
f 67/2/14 66/2/14 83/2/14 82/2/14
f 66/2/15 65/2/15 84/2/15 83/2/15
f 65/2/16 74/2/16 76/2/16 84/2/16
f 76/2/17 75/2/17 85/2/17 86/2/17
f 75/2/18 77/2/18 87/2/18 85/2/18
f 77/2/19 78/2/19 88/2/19 87/2/19
f 78/2/20 79/2/20 89/2/20 88/2/20
f 79/2/21 80/2/21 90/2/21 89/2/21
f 80/2/22 81/2/22 91/2/22 90/2/22
f 81/2/23 82/2/23 92/2/23 91/2/23
f 82/2/24 83/2/24 93/2/24 92/2/24
f 83/2/25 84/2/25 94/2/25 93/2/25
f 84/2/26 76/2/26 86/2/26 94/2/26
f 86/2/27 85/2/27 95/2/27 96/2/27
f 85/2/28 87/2/28 97/2/28 95/2/28
f 87/2/29 88/2/29 98/2/29 97/2/29
f 88/2/30 89/2/30 99/2/30 98/2/30
f 89/2/31 90/2/31 100/2/31 99/2/31
f 90/2/32 91/2/32 101/2/32 100/2/32
f 91/2/33 92/2/33 102/2/33 101/2/33
f 92/2/34 93/2/34 103/2/34 102/2/34
f 93/2/35 94/2/35 104/2/35 103/2/35
f 94/2/36 86/2/36 96/2/36 104/2/36
f 96/2/37 95/2/37 105/2/37 106/2/37
f 95/2/38 97/2/38 107/2/38 105/2/38
f 97/2/39 98/2/39 108/2/39 107/2/39
f 98/2/40 99/2/40 109/2/40 108/2/40
f 99/2/41 100/2/41 110/2/41 109/2/41
f 100/2/42 101/2/42 111/2/42 110/2/42
f 101/2/43 102/2/43 112/2/43 111/2/43
f 102/2/44 103/2/44 113/2/44 112/2/44
f 103/2/45 104/2/45 114/2/45 113/2/45
f 104/2/46 96/2/46 106/2/46 114/2/46
f 106/2/17 105/2/17 115/2/17 116/2/17
f 105/2/18 107/2/18 117/2/18 115/2/18
f 107/2/19 108/2/19 118/2/19 117/2/19
f 108/2/20 109/2/20 119/2/20 118/2/20
f 109/2/21 110/2/21 120/2/21 119/2/21
f 110/2/22 111/2/22 121/2/22 120/2/22
f 111/2/23 112/2/23 122/2/23 121/2/23
f 112/2/24 113/2/24 123/2/24 122/2/24
f 113/2/25 114/2/25 124/2/25 123/2/25
f 114/2/26 106/2/26 116/2/26 124/2/26
f 116/2/27 115/2/27 125/2/27 126/2/27
f 115/2/28 117/2/28 127/2/28 125/2/28
f 117/2/29 118/2/29 128/2/29 127/2/29
f 118/2/30 119/2/30 129/2/30 128/2/30
f 119/2/31 120/2/31 130/2/31 129/2/31
f 120/2/32 121/2/32 131/2/32 130/2/32
f 121/2/33 122/2/33 132/2/33 131/2/33
f 122/2/34 123/2/34 133/2/34 132/2/34
f 123/2/35 124/2/35 134/2/35 133/2/35
f 124/2/36 116/2/36 126/2/36 134/2/36
f 126/2/47 125/2/47 135/2/47 136/2/47
f 125/2/48 127/2/48 137/2/48 135/2/48
f 127/2/49 128/2/49 138/2/49 137/2/49
f 128/2/50 129/2/50 139/2/50 138/2/50
f 129/2/51 130/2/51 140/2/51 139/2/51
f 130/2/52 131/2/52 141/2/52 140/2/52
f 131/2/53 132/2/53 142/2/53 141/2/53
f 132/2/54 133/2/54 143/2/54 142/2/54
f 133/2/55 134/2/55 144/2/55 143/2/55
f 134/2/56 126/2/56 136/2/56 144/2/56
f 145/2/57 146/2/57 147/2/57 148/2/57
f 146/2/58 149/2/58 150/2/58 147/2/58
f 149/2/4 151/2/4 152/2/4 150/2/4
f 151/2/59 153/2/59 154/2/59 152/2/59
f 153/2/60 155/2/60 156/2/60 154/2/60
f 155/2/61 157/2/61 158/2/61 156/2/61
f 157/2/62 159/2/62 160/2/62 158/2/62
f 159/2/3 161/2/3 162/2/3 160/2/3
f 161/2/63 163/2/63 164/2/63 162/2/63
f 163/2/64 145/2/64 148/2/64 164/2/64
f 148/2/2 147/2/2 150/2/2 152/2/2 154/2/2 156/2/2 158/2/2 160/2/2 162/2/2 164/2/2
f 165/2/65 166/2/65 167/2/65 168/2/65
f 166/2/66 169/2/66 170/2/66 167/2/66
f 169/2/67 171/2/67 172/2/67 170/2/67
f 171/2/68 173/2/68 174/2/68 172/2/68
f 173/2/69 175/2/69 176/2/69 174/2/69
f 175/2/70 177/2/70 178/2/70 176/2/70
f 177/2/71 179/2/71 180/2/71 178/2/71
f 179/2/72 165/2/72 168/2/72 180/2/72
f 168/2/2 167/2/2 170/2/2 172/2/2 174/2/2 176/2/2 178/2/2 180/2/2
f 181/3/1 182/3/1 183/3/1 184/3/1
f 185/3/2 186/3/2 187/3/2 188/3/2
f 181/3/3 184/3/3 186/3/3 185/3/3
f 183/3/4 182/3/4 188/3/4 187/3/4
f 181/3/5 185/3/5 188/3/5 182/3/5
f 184/3/6 183/3/6 187/3/6 186/3/6
f 189/3/1 190/3/1 191/3/1 192/3/1
f 193/3/2 194/3/2 195/3/2 196/3/2
f 189/3/3 192/3/3 194/3/3 193/3/3
f 191/3/4 190/3/4 196/3/4 195/3/4
f 189/3/5 193/3/5 196/3/5 190/3/5
f 192/3/6 191/3/6 195/3/6 194/3/6
f 197/3/1 198/3/1 199/3/1 200/3/1
f 201/3/2 202/3/2 203/3/2 204/3/2
f 197/3/3 200/3/3 202/3/3 201/3/3
f 199/3/4 198/3/4 204/3/4 203/3/4
f 197/3/5 201/3/5 204/3/5 198/3/5
f 200/3/6 199/3/6 203/3/6 202/3/6
