# Blender 5.2.0 LTS
# www.blender.org
mtllib FN_Bath_Tub.mtl
o FN_Bath_Tub
v -0.765000 0.000000 0.340000
v -0.800355 0.000000 0.325355
v -0.815000 0.000000 0.290000
v -0.815000 0.000000 -0.290000
v -0.800355 0.000000 -0.325355
v -0.765000 0.000000 -0.340000
v 0.765000 0.000000 -0.340000
v 0.800355 0.000000 -0.325355
v 0.815000 0.000000 -0.290000
v 0.815000 0.000000 0.290000
v 0.800355 0.000000 0.325355
v 0.765000 0.000000 0.340000
v 0.800355 0.036000 0.325355
v 0.765000 0.036000 0.340000
v 0.815000 0.036000 0.290000
v 0.815000 0.036000 -0.290000
v 0.800355 0.036000 -0.325355
v 0.765000 0.036000 -0.340000
v -0.765000 0.036000 -0.340000
v -0.800355 0.036000 -0.325355
v -0.815000 0.036000 -0.290000
v -0.815000 0.036000 0.290000
v -0.800355 0.036000 0.325355
v -0.765000 0.036000 0.340000
v 0.829497 0.066000 0.354497
v 0.780000 0.066000 0.375000
v 0.850000 0.066000 0.305000
v 0.850000 0.066000 -0.305000
v 0.829497 0.066000 -0.354497
v 0.780000 0.066000 -0.375000
v -0.780000 0.066000 -0.375000
v -0.829497 0.066000 -0.354497
v -0.850000 0.066000 -0.305000
v -0.850000 0.066000 0.305000
v -0.829497 0.066000 0.354497
v -0.780000 0.066000 0.375000
v 0.829497 0.560000 0.354497
v 0.780000 0.560000 0.375000
v 0.850000 0.560000 0.305000
v 0.850000 0.560000 -0.305000
v 0.829497 0.560000 -0.354497
v 0.780000 0.560000 -0.375000
v -0.780000 0.560000 -0.375000
v -0.829497 0.560000 -0.354497
v -0.850000 0.560000 -0.305000
v -0.850000 0.560000 0.305000
v -0.829497 0.560000 0.354497
v -0.780000 0.560000 0.375000
v 0.747782 0.560000 0.277782
v 0.670000 0.560000 0.310000
v 0.780000 0.560000 0.200000
v 0.780000 0.560000 -0.200000
v 0.747782 0.560000 -0.277782
v 0.670000 0.560000 -0.310000
v -0.670000 0.560000 -0.310000
v -0.747782 0.560000 -0.277782
v -0.780000 0.560000 -0.200000
v -0.780000 0.560000 0.200000
v -0.747782 0.560000 0.277782
v -0.670000 0.560000 0.310000
v 0.593640 0.120000 0.183640
v 0.530000 0.120000 0.210000
v 0.620000 0.120000 0.120000
v 0.620000 0.120000 -0.120000
v 0.593640 0.120000 -0.183640
v 0.530000 0.120000 -0.210000
v -0.590000 0.120000 -0.210000
v -0.653640 0.120000 -0.183640
v -0.680000 0.120000 -0.120000
v -0.680000 0.120000 0.120000
v -0.653640 0.120000 0.183640
v -0.590000 0.120000 0.210000
v 0.600000 0.125000 0.000000
v 0.588284 0.125000 -0.028284
v 0.560000 0.125000 -0.040000
v 0.531716 0.125000 -0.028284
v 0.520000 0.125000 -0.000000
v 0.531716 0.125000 0.028284
v 0.560000 0.125000 0.040000
v 0.588284 0.125000 0.028284
v 0.600000 0.120000 0.000000
v 0.588284 0.120000 -0.028284
v 0.560000 0.120000 -0.040000
v 0.531716 0.120000 -0.028284
v 0.520000 0.120000 -0.000000
v 0.531716 0.120000 0.028284
v 0.560000 0.120000 0.040000
v 0.588284 0.120000 0.028284
v 0.734000 0.438000 0.000000
v 0.724042 0.438000 -0.024042
v 0.700000 0.438000 -0.034000
v 0.675958 0.438000 -0.024042
v 0.666000 0.438000 -0.000000
v 0.675958 0.438000 0.024042
v 0.700000 0.438000 0.034000
v 0.724042 0.438000 0.024042
v 0.734000 0.430000 0.000000
v 0.724042 0.430000 -0.024042
v 0.700000 0.430000 -0.034000
v 0.675958 0.430000 -0.024042
v 0.666000 0.430000 -0.000000
v 0.675958 0.430000 0.024042
v 0.700000 0.430000 0.034000
v 0.724042 0.430000 0.024042
v 0.771151 0.550000 -0.014849
v 0.786000 0.550000 -0.021000
v 0.800849 0.550000 -0.014849
v 0.807000 0.550000 0.000000
v 0.800849 0.550000 0.014849
v 0.786000 0.550000 0.021000
v 0.771151 0.550000 0.014849
v 0.765000 0.550000 0.000000
v 0.765000 0.612000 0.000000
v 0.771151 0.612000 0.014849
v 0.786000 0.612000 0.021000
v 0.800849 0.612000 0.014849
v 0.807000 0.612000 0.000000
v 0.800849 0.612000 -0.014849
v 0.786000 0.612000 -0.021000
v 0.771151 0.612000 -0.014849
v 0.786000 0.618728 -0.012728
v 0.786000 0.624000 0.000000
v 0.786000 0.618728 0.012728
v 0.786000 0.606000 0.018000
v 0.786000 0.593272 0.012728
v 0.786000 0.588000 -0.000000
v 0.786000 0.593272 -0.012728
v 0.786000 0.606000 -0.018000
v 0.640000 0.606000 -0.018000
v 0.640000 0.593272 -0.012728
v 0.640000 0.588000 -0.000000
v 0.640000 0.593272 0.012728
v 0.640000 0.606000 0.018000
v 0.640000 0.618728 0.012728
v 0.640000 0.624000 0.000000
v 0.640000 0.618728 -0.012728
v 0.654607 0.618000 -0.010607
v 0.644000 0.618000 -0.015000
v 0.633393 0.618000 -0.010607
v 0.629000 0.618000 0.000000
v 0.633393 0.618000 0.010607
v 0.644000 0.618000 0.015000
v 0.654607 0.618000 0.010607
v 0.659000 0.618000 0.000000
v 0.659000 0.548000 0.000000
v 0.654607 0.548000 0.010607
v 0.644000 0.548000 0.015000
v 0.633393 0.548000 0.010607
v 0.629000 0.548000 0.000000
v 0.633393 0.548000 -0.010607
v 0.644000 0.548000 -0.015000
v 0.654607 0.548000 -0.010607
v 0.777500 0.552000 0.101278
v 0.794500 0.552000 0.101278
v 0.803000 0.552000 0.116000
v 0.794500 0.552000 0.130722
v 0.777500 0.552000 0.130722
v 0.769000 0.552000 0.116000
v 0.769000 0.604000 0.116000
v 0.777500 0.604000 0.130722
v 0.794500 0.604000 0.130722
v 0.803000 0.604000 0.116000
v 0.794500 0.604000 0.101278
v 0.777500 0.604000 0.101278
v 0.777500 0.552000 -0.130722
v 0.794500 0.552000 -0.130722
v 0.803000 0.552000 -0.116000
v 0.794500 0.552000 -0.101278
v 0.777500 0.552000 -0.101278
v 0.769000 0.552000 -0.116000
v 0.769000 0.604000 -0.116000
v 0.777500 0.604000 -0.101278
v 0.794500 0.604000 -0.101278
v 0.803000 0.604000 -0.116000
v 0.794500 0.604000 -0.130722
v 0.777500 0.604000 -0.130722
vn -0.0000 -1.0000 -0.0000
vn 0.3827 -0.0000 0.9239
vn 0.9239 -0.0000 0.3827
vn 1.0000 -0.0000 -0.0000
vn 0.9239 -0.0000 -0.3827
vn 0.3827 -0.0000 -0.9239
vn -0.0000 -0.0000 -1.0000
vn -0.3827 -0.0000 -0.9239
vn -0.9239 -0.0000 -0.3827
vn -1.0000 -0.0000 -0.0000
vn -0.9239 -0.0000 0.3827
vn -0.3827 -0.0000 0.9239
vn -0.0000 -0.0000 1.0000
vn 0.2368 -0.7855 0.5718
vn 0.5718 -0.7855 0.2368
vn 0.6508 -0.7593 -0.0000
vn 0.5718 -0.7855 -0.2368
vn 0.2368 -0.7855 -0.5718
vn -0.0000 -0.7593 -0.6508
vn -0.2368 -0.7855 -0.5718
vn -0.5718 -0.7855 -0.2368
vn -0.6508 -0.7593 -0.0000
vn -0.5718 -0.7855 0.2368
vn -0.2368 -0.7855 0.5718
vn -0.0000 -0.7593 0.6508
vn -0.0000 1.0000 -0.0000
vn -0.3632 0.3149 -0.8769
vn -0.8562 0.3758 -0.3546
vn -0.9398 0.3417 -0.0000
vn -0.8562 0.3758 0.3546
vn -0.3632 0.3149 0.8769
vn -0.0000 0.2216 0.9751
vn 0.3686 0.2692 0.8898
vn 0.8898 0.2692 0.3686
vn 0.9751 0.2216 -0.0000
vn 0.8898 0.2692 -0.3686
vn 0.3686 0.2692 -0.8898
vn -0.0000 0.2216 -0.9751
vn -0.0000 -0.3827 -0.9239
vn -0.0000 -0.9239 -0.3827
vn -0.0000 -0.9239 0.3827
vn -0.0000 -0.3827 0.9239
vn -0.0000 0.3827 0.9239
vn -0.0000 0.9239 0.3827
vn -0.0000 0.9239 -0.3827
vn -0.0000 0.3827 -0.9239
vn -0.8660 -0.0000 0.5000
vn 0.8660 -0.0000 0.5000
vn 0.8660 -0.0000 -0.5000
vn -0.8660 -0.0000 -0.5000
vt 0.562500 0.812500
vt 0.437500 0.812500
vt 0.562500 0.687500
vt 0.187500 0.312500
vt 0.937500 0.312500
s 0
usemtl FN_Atlas
f 1/1/1 2/1/1 3/1/1 4/1/1 5/1/1 6/1/1 7/1/1 8/1/1 9/1/1 10/1/1 11/1/1 12/1/1
f 12/1/2 11/1/2 13/1/2 14/1/2
f 11/1/3 10/1/3 15/1/3 13/1/3
f 10/1/4 9/1/4 16/1/4 15/1/4
f 9/1/5 8/1/5 17/1/5 16/1/5
f 8/1/6 7/1/6 18/1/6 17/1/6
f 7/1/7 6/1/7 19/1/7 18/1/7
f 6/1/8 5/1/8 20/1/8 19/1/8
f 5/1/9 4/1/9 21/1/9 20/1/9
f 4/1/10 3/1/10 22/1/10 21/1/10
f 3/1/11 2/1/11 23/1/11 22/1/11
f 2/1/12 1/1/12 24/1/12 23/1/12
f 1/1/13 12/1/13 14/1/13 24/1/13
f 14/2/14 13/2/14 25/2/14 26/2/14
f 13/2/15 15/2/15 27/2/15 25/2/15
f 15/2/16 16/2/16 28/2/16 27/2/16
f 16/2/17 17/2/17 29/2/17 28/2/17
f 17/2/18 18/2/18 30/2/18 29/2/18
f 18/2/19 19/2/19 31/2/19 30/2/19
f 19/2/20 20/2/20 32/2/20 31/2/20
f 20/2/21 21/2/21 33/2/21 32/2/21
f 21/2/22 22/2/22 34/2/22 33/2/22
f 22/2/23 23/2/23 35/2/23 34/2/23
f 23/2/24 24/2/24 36/2/24 35/2/24
f 24/2/25 14/2/25 26/2/25 36/2/25
f 26/2/2 25/2/2 37/2/2 38/2/2
f 25/2/3 27/2/3 39/2/3 37/2/3
f 27/2/4 28/2/4 40/2/4 39/2/4
f 28/2/5 29/2/5 41/2/5 40/2/5
f 29/2/6 30/2/6 42/2/6 41/2/6
f 30/2/7 31/2/7 43/2/7 42/2/7
f 31/2/8 32/2/8 44/2/8 43/2/8
f 32/2/9 33/2/9 45/2/9 44/2/9
f 33/2/10 34/2/10 46/2/10 45/2/10
f 34/2/11 35/2/11 47/2/11 46/2/11
f 35/2/12 36/2/12 48/2/12 47/2/12
f 36/2/13 26/2/13 38/2/13 48/2/13
f 38/2/26 37/2/26 49/2/26 50/2/26
f 37/2/26 39/2/26 51/2/26 49/2/26
f 39/2/26 40/2/26 52/2/26 51/2/26
f 40/2/26 41/2/26 53/2/26 52/2/26
f 41/2/26 42/2/26 54/2/26 53/2/26
f 42/2/26 43/2/26 55/2/26 54/2/26
f 43/2/26 44/2/26 56/2/26 55/2/26
f 44/2/26 45/2/26 57/2/26 56/2/26
f 45/2/26 46/2/26 58/2/26 57/2/26
f 46/2/26 47/2/26 59/2/26 58/2/26
f 47/2/26 48/2/26 60/2/26 59/2/26
f 48/2/26 38/2/26 50/2/26 60/2/26
f 50/3/27 49/3/27 61/3/27 62/3/27
f 49/3/28 51/3/28 63/3/28 61/3/28
f 51/3/29 52/3/29 64/3/29 63/3/29
f 52/3/30 53/3/30 65/3/30 64/3/30
f 53/3/31 54/3/31 66/3/31 65/3/31
f 54/3/32 55/3/32 67/3/32 66/3/32
f 55/3/33 56/3/33 68/3/33 67/3/33
f 56/3/34 57/3/34 69/3/34 68/3/34
f 57/3/35 58/3/35 70/3/35 69/3/35
f 58/3/36 59/3/36 71/3/36 70/3/36
f 59/3/37 60/3/37 72/3/37 71/3/37
f 60/3/38 50/3/38 62/3/38 72/3/38
f 62/3/26 61/3/26 63/3/26 64/3/26 65/3/26 66/3/26 67/3/26 68/3/26 69/3/26 70/3/26 71/3/26 72/3/26
f 73/4/26 74/4/26 75/4/26 76/4/26 77/4/26 78/4/26 79/4/26 80/4/26
f 81/4/5 82/4/5 74/4/5 73/4/5
f 82/4/6 83/4/6 75/4/6 74/4/6
f 83/4/8 84/4/8 76/4/8 75/4/8
f 84/4/9 85/4/9 77/4/9 76/4/9
f 85/4/11 86/4/11 78/4/11 77/4/11
f 86/4/12 87/4/12 79/4/12 78/4/12
f 87/4/2 88/4/2 80/4/2 79/4/2
f 88/4/3 81/4/3 73/4/3 80/4/3
f 89/4/26 90/4/26 91/4/26 92/4/26 93/4/26 94/4/26 95/4/26 96/4/26
f 97/4/5 98/4/5 90/4/5 89/4/5
f 98/4/6 99/4/6 91/4/6 90/4/6
f 99/4/8 100/4/8 92/4/8 91/4/8
f 100/4/9 101/4/9 93/4/9 92/4/9
f 101/4/11 102/4/11 94/4/11 93/4/11
f 102/4/12 103/4/12 95/4/12 94/4/12
f 103/4/2 104/4/2 96/4/2 95/4/2
f 104/4/3 97/4/3 89/4/3 96/4/3
f 105/5/1 106/5/1 107/5/1 108/5/1 109/5/1 110/5/1 111/5/1 112/5/1
f 113/5/26 114/5/26 115/5/26 116/5/26 117/5/26 118/5/26 119/5/26 120/5/26
f 112/5/11 111/5/11 114/5/11 113/5/11
f 111/5/12 110/5/12 115/5/12 114/5/12
f 110/5/2 109/5/2 116/5/2 115/5/2
f 109/5/3 108/5/3 117/5/3 116/5/3
f 108/5/5 107/5/5 118/5/5 117/5/5
f 107/5/6 106/5/6 119/5/6 118/5/6
f 106/5/8 105/5/8 120/5/8 119/5/8
f 105/5/9 112/5/9 113/5/9 120/5/9
f 121/5/4 122/5/4 123/5/4 124/5/4 125/5/4 126/5/4 127/5/4 128/5/4
f 129/5/10 130/5/10 131/5/10 132/5/10 133/5/10 134/5/10 135/5/10 136/5/10
f 128/5/39 127/5/39 130/5/39 129/5/39
f 127/5/40 126/5/40 131/5/40 130/5/40
f 126/5/41 125/5/41 132/5/41 131/5/41
f 125/5/42 124/5/42 133/5/42 132/5/42
f 124/5/43 123/5/43 134/5/43 133/5/43
f 123/5/44 122/5/44 135/5/44 134/5/44
f 122/5/45 121/5/45 136/5/45 135/5/45
f 121/5/46 128/5/46 129/5/46 136/5/46
f 137/5/26 138/5/26 139/5/26 140/5/26 141/5/26 142/5/26 143/5/26 144/5/26
f 145/5/1 146/5/1 147/5/1 148/5/1 149/5/1 150/5/1 151/5/1 152/5/1
f 144/5/3 143/5/3 146/5/3 145/5/3
f 143/5/2 142/5/2 147/5/2 146/5/2
f 142/5/12 141/5/12 148/5/12 147/5/12
f 141/5/11 140/5/11 149/5/11 148/5/11
f 140/5/9 139/5/9 150/5/9 149/5/9
f 139/5/8 138/5/8 151/5/8 150/5/8
f 138/5/6 137/5/6 152/5/6 151/5/6
f 137/5/5 144/5/5 145/5/5 152/5/5
f 153/5/1 154/5/1 155/5/1 156/5/1 157/5/1 158/5/1
f 159/5/26 160/5/26 161/5/26 162/5/26 163/5/26 164/5/26
f 158/5/47 157/5/47 160/5/47 159/5/47
f 157/5/13 156/5/13 161/5/13 160/5/13
f 156/5/48 155/5/48 162/5/48 161/5/48
f 155/5/49 154/5/49 163/5/49 162/5/49
f 154/5/7 153/5/7 164/5/7 163/5/7
f 153/5/50 158/5/50 159/5/50 164/5/50
f 165/5/1 166/5/1 167/5/1 168/5/1 169/5/1 170/5/1
f 171/5/26 172/5/26 173/5/26 174/5/26 175/5/26 176/5/26
f 170/5/47 169/5/47 172/5/47 171/5/47
f 169/5/13 168/5/13 173/5/13 172/5/13
f 168/5/48 167/5/48 174/5/48 173/5/48
f 167/5/49 166/5/49 175/5/49 174/5/49
f 166/5/7 165/5/7 176/5/7 175/5/7
f 165/5/50 170/5/50 171/5/50 176/5/50
