# Blender 5.2.0 LTS
# www.blender.org
mtllib FN_Bed_Trundle.mtl
o FN_Bed_Trundle
v -0.450000 0.000000 0.660000
v -0.450000 0.000000 0.600000
v -0.420000 0.000000 0.600000
v -0.420000 0.000000 0.660000
v -0.450000 0.320000 0.660000
v -0.420000 0.320000 0.660000
v -0.420000 0.320000 0.600000
v -0.450000 0.320000 0.600000
v -0.450000 0.000000 -1.160000
v -0.450000 0.000000 -1.220000
v -0.420000 0.000000 -1.220000
v -0.420000 0.000000 -1.160000
v -0.450000 0.320000 -1.160000
v -0.420000 0.320000 -1.160000
v -0.420000 0.320000 -1.220000
v -0.450000 0.320000 -1.220000
v -0.450000 0.430000 0.660000
v -0.420000 0.430000 0.660000
v -0.420000 0.430000 -1.220000
v -0.450000 0.430000 -1.220000
v 0.420000 0.000000 0.660000
v 0.420000 0.000000 0.600000
v 0.450000 0.000000 0.600000
v 0.450000 0.000000 0.660000
v 0.420000 0.320000 0.660000
v 0.450000 0.320000 0.660000
v 0.450000 0.320000 0.600000
v 0.420000 0.320000 0.600000
v 0.420000 0.000000 -1.160000
v 0.420000 0.000000 -1.220000
v 0.450000 0.000000 -1.220000
v 0.450000 0.000000 -1.160000
v 0.420000 0.320000 -1.160000
v 0.450000 0.320000 -1.160000
v 0.450000 0.320000 -1.220000
v 0.420000 0.320000 -1.220000
v 0.420000 0.430000 0.660000
v 0.450000 0.430000 0.660000
v 0.450000 0.430000 -1.220000
v 0.420000 0.430000 -1.220000
v -0.450000 0.320000 -1.190000
v 0.450000 0.320000 -1.190000
v -0.450000 0.900000 -1.190000
v 0.450000 0.900000 -1.190000
v 0.450000 0.900000 -1.220000
v -0.450000 0.900000 -1.220000
v -0.450000 0.320000 0.630000
v 0.450000 0.320000 0.630000
v -0.450000 0.540000 0.660000
v 0.450000 0.540000 0.660000
v 0.450000 0.540000 0.630000
v -0.450000 0.540000 0.630000
v -0.430000 0.430000 0.640000
v -0.430000 0.430000 -1.200000
v 0.430000 0.430000 -1.200000
v 0.430000 0.430000 0.640000
v -0.430000 0.560000 0.640000
v 0.430000 0.560000 0.640000
v 0.430000 0.560000 -1.200000
v -0.430000 0.560000 -1.200000
v -0.410000 0.064000 1.220000
v -0.410000 0.064000 -0.540000
v -0.380000 0.064000 -0.540000
v -0.380000 0.064000 1.220000
v -0.410000 0.170000 1.220000
v -0.380000 0.170000 1.220000
v -0.380000 0.170000 -0.540000
v -0.410000 0.170000 -0.540000
v -0.407000 0.004689 1.132500
v -0.407000 0.004689 1.167500
v -0.407000 0.035000 1.185000
v -0.407000 0.065311 1.167500
v -0.407000 0.065311 1.132500
v -0.407000 0.035000 1.115000
v -0.383000 0.035000 1.115000
v -0.383000 0.065311 1.132500
v -0.383000 0.065311 1.167500
v -0.383000 0.035000 1.185000
v -0.383000 0.004689 1.167500
v -0.383000 0.004689 1.132500
v -0.407000 0.004689 -0.487500
v -0.407000 0.004689 -0.452500
v -0.407000 0.035000 -0.435000
v -0.407000 0.065311 -0.452500
v -0.407000 0.065311 -0.487500
v -0.407000 0.035000 -0.505000
v -0.383000 0.035000 -0.505000
v -0.383000 0.065311 -0.487500
v -0.383000 0.065311 -0.452500
v -0.383000 0.035000 -0.435000
v -0.383000 0.004689 -0.452500
v -0.383000 0.004689 -0.487500
v 0.380000 0.064000 1.220000
v 0.380000 0.064000 -0.540000
v 0.410000 0.064000 -0.540000
v 0.410000 0.064000 1.220000
v 0.380000 0.170000 1.220000
v 0.410000 0.170000 1.220000
v 0.410000 0.170000 -0.540000
v 0.380000 0.170000 -0.540000
v 0.383000 0.004689 1.132500
v 0.383000 0.004689 1.167500
v 0.383000 0.035000 1.185000
v 0.383000 0.065311 1.167500
v 0.383000 0.065311 1.132500
v 0.383000 0.035000 1.115000
v 0.407000 0.035000 1.115000
v 0.407000 0.065311 1.132500
v 0.407000 0.065311 1.167500
v 0.407000 0.035000 1.185000
v 0.407000 0.004689 1.167500
v 0.407000 0.004689 1.132500
v 0.383000 0.004689 -0.487500
v 0.383000 0.004689 -0.452500
v 0.383000 0.035000 -0.435000
v 0.383000 0.065311 -0.452500
v 0.383000 0.065311 -0.487500
v 0.383000 0.035000 -0.505000
v 0.407000 0.035000 -0.505000
v 0.407000 0.065311 -0.487500
v 0.407000 0.065311 -0.452500
v 0.407000 0.035000 -0.435000
v 0.407000 0.004689 -0.452500
v 0.407000 0.004689 -0.487500
v -0.410000 0.064000 1.190000
v 0.410000 0.064000 1.190000
v 0.410000 0.170000 1.190000
v -0.410000 0.170000 1.190000
v -0.410000 0.064000 -0.510000
v 0.410000 0.064000 -0.510000
v -0.410000 0.170000 -0.510000
v 0.410000 0.170000 -0.510000
v -0.395000 0.170000 1.190000
v -0.395000 0.170000 -0.510000
v 0.395000 0.170000 -0.510000
v 0.395000 0.170000 1.190000
v -0.395000 0.280000 1.190000
v 0.395000 0.280000 1.190000
v 0.395000 0.280000 -0.510000
v -0.395000 0.280000 -0.510000
vn -0.0000 -1.0000 -0.0000
vn -0.0000 1.0000 -0.0000
vn -0.0000 -0.0000 1.0000
vn -0.0000 -0.0000 -1.0000
vn -1.0000 -0.0000 -0.0000
vn 1.0000 -0.0000 -0.0000
vn -0.0000 0.5000 -0.8660
vn -0.0000 0.5000 0.8660
vn -0.0000 -0.5000 0.8660
vn -0.0000 -0.5000 -0.8660
vt 0.812500 0.937500
vt 0.562500 0.687500
vt 0.312500 0.312500
s 0
usemtl FN_Atlas
f 1/1/1 2/1/1 3/1/1 4/1/1
f 5/1/2 6/1/2 7/1/2 8/1/2
f 1/1/3 4/1/3 6/1/3 5/1/3
f 3/1/4 2/1/4 8/1/4 7/1/4
f 1/1/5 5/1/5 8/1/5 2/1/5
f 4/1/6 3/1/6 7/1/6 6/1/6
f 9/1/1 10/1/1 11/1/1 12/1/1
f 13/1/2 14/1/2 15/1/2 16/1/2
f 9/1/3 12/1/3 14/1/3 13/1/3
f 11/1/4 10/1/4 16/1/4 15/1/4
f 9/1/5 13/1/5 16/1/5 10/1/5
f 12/1/6 11/1/6 15/1/6 14/1/6
f 5/1/1 16/1/1 15/1/1 6/1/1
f 17/1/2 18/1/2 19/1/2 20/1/2
f 5/1/3 6/1/3 18/1/3 17/1/3
f 15/1/4 16/1/4 20/1/4 19/1/4
f 5/1/5 17/1/5 20/1/5 16/1/5
f 6/1/6 15/1/6 19/1/6 18/1/6
f 21/1/1 22/1/1 23/1/1 24/1/1
f 25/1/2 26/1/2 27/1/2 28/1/2
f 21/1/3 24/1/3 26/1/3 25/1/3
f 23/1/4 22/1/4 28/1/4 27/1/4
f 21/1/5 25/1/5 28/1/5 22/1/5
f 24/1/6 23/1/6 27/1/6 26/1/6
f 29/1/1 30/1/1 31/1/1 32/1/1
f 33/1/2 34/1/2 35/1/2 36/1/2
f 29/1/3 32/1/3 34/1/3 33/1/3
f 31/1/4 30/1/4 36/1/4 35/1/4
f 29/1/5 33/1/5 36/1/5 30/1/5
f 32/1/6 31/1/6 35/1/6 34/1/6
f 25/1/1 36/1/1 35/1/1 26/1/1
f 37/1/2 38/1/2 39/1/2 40/1/2
f 25/1/3 26/1/3 38/1/3 37/1/3
f 35/1/4 36/1/4 40/1/4 39/1/4
f 25/1/5 37/1/5 40/1/5 36/1/5
f 26/1/6 35/1/6 39/1/6 38/1/6
f 41/1/1 16/1/1 35/1/1 42/1/1
f 43/1/2 44/1/2 45/1/2 46/1/2
f 41/1/3 42/1/3 44/1/3 43/1/3
f 35/1/4 16/1/4 46/1/4 45/1/4
f 41/1/5 43/1/5 46/1/5 16/1/5
f 42/1/6 35/1/6 45/1/6 44/1/6
f 5/1/1 47/1/1 48/1/1 26/1/1
f 49/1/2 50/1/2 51/1/2 52/1/2
f 5/1/3 26/1/3 50/1/3 49/1/3
f 48/1/4 47/1/4 52/1/4 51/1/4
f 5/1/5 49/1/5 52/1/5 47/1/5
f 26/1/6 48/1/6 51/1/6 50/1/6
f 53/2/1 54/2/1 55/2/1 56/2/1
f 57/2/2 58/2/2 59/2/2 60/2/2
f 53/2/3 56/2/3 58/2/3 57/2/3
f 55/2/4 54/2/4 60/2/4 59/2/4
f 53/2/5 57/2/5 60/2/5 54/2/5
f 56/2/6 55/2/6 59/2/6 58/2/6
f 61/1/1 62/1/1 63/1/1 64/1/1
f 65/1/2 66/1/2 67/1/2 68/1/2
f 61/1/3 64/1/3 66/1/3 65/1/3
f 63/1/4 62/1/4 68/1/4 67/1/4
f 61/1/5 65/1/5 68/1/5 62/1/5
f 64/1/6 63/1/6 67/1/6 66/1/6
f 69/3/5 70/3/5 71/3/5 72/3/5 73/3/5 74/3/5
f 75/3/6 76/3/6 77/3/6 78/3/6 79/3/6 80/3/6
f 74/3/7 73/3/7 76/3/7 75/3/7
f 73/3/2 72/3/2 77/3/2 76/3/2
f 72/3/8 71/3/8 78/3/8 77/3/8
f 71/3/9 70/3/9 79/3/9 78/3/9
f 70/3/1 69/3/1 80/3/1 79/3/1
f 69/3/10 74/3/10 75/3/10 80/3/10
f 81/3/5 82/3/5 83/3/5 84/3/5 85/3/5 86/3/5
f 87/3/6 88/3/6 89/3/6 90/3/6 91/3/6 92/3/6
f 86/3/7 85/3/7 88/3/7 87/3/7
f 85/3/2 84/3/2 89/3/2 88/3/2
f 84/3/8 83/3/8 90/3/8 89/3/8
f 83/3/9 82/3/9 91/3/9 90/3/9
f 82/3/1 81/3/1 92/3/1 91/3/1
f 81/3/10 86/3/10 87/3/10 92/3/10
f 93/1/1 94/1/1 95/1/1 96/1/1
f 97/1/2 98/1/2 99/1/2 100/1/2
f 93/1/3 96/1/3 98/1/3 97/1/3
f 95/1/4 94/1/4 100/1/4 99/1/4
f 93/1/5 97/1/5 100/1/5 94/1/5
f 96/1/6 95/1/6 99/1/6 98/1/6
f 101/3/5 102/3/5 103/3/5 104/3/5 105/3/5 106/3/5
f 107/3/6 108/3/6 109/3/6 110/3/6 111/3/6 112/3/6
f 106/3/7 105/3/7 108/3/7 107/3/7
f 105/3/2 104/3/2 109/3/2 108/3/2
f 104/3/8 103/3/8 110/3/8 109/3/8
f 103/3/9 102/3/9 111/3/9 110/3/9
f 102/3/1 101/3/1 112/3/1 111/3/1
f 101/3/10 106/3/10 107/3/10 112/3/10
f 113/3/5 114/3/5 115/3/5 116/3/5 117/3/5 118/3/5
f 119/3/6 120/3/6 121/3/6 122/3/6 123/3/6 124/3/6
f 118/3/7 117/3/7 120/3/7 119/3/7
f 117/3/2 116/3/2 121/3/2 120/3/2
f 116/3/8 115/3/8 122/3/8 121/3/8
f 115/3/9 114/3/9 123/3/9 122/3/9
f 114/3/1 113/3/1 124/3/1 123/3/1
f 113/3/10 118/3/10 119/3/10 124/3/10
f 61/1/1 125/1/1 126/1/1 96/1/1
f 65/1/2 98/1/2 127/1/2 128/1/2
f 61/1/3 96/1/3 98/1/3 65/1/3
f 126/1/4 125/1/4 128/1/4 127/1/4
f 61/1/5 65/1/5 128/1/5 125/1/5
f 96/1/6 126/1/6 127/1/6 98/1/6
f 129/1/1 62/1/1 95/1/1 130/1/1
f 131/1/2 132/1/2 99/1/2 68/1/2
f 129/1/3 130/1/3 132/1/3 131/1/3
f 95/1/4 62/1/4 68/1/4 99/1/4
f 129/1/5 131/1/5 68/1/5 62/1/5
f 130/1/6 95/1/6 99/1/6 132/1/6
f 133/2/1 134/2/1 135/2/1 136/2/1
f 137/2/2 138/2/2 139/2/2 140/2/2
f 133/2/3 136/2/3 138/2/3 137/2/3
f 135/2/4 134/2/4 140/2/4 139/2/4
f 133/2/5 137/2/5 140/2/5 134/2/5
f 136/2/6 135/2/6 139/2/6 138/2/6
