# Blender 5.2.0 LTS
# www.blender.org
mtllib FN_Bin_Wire.mtl
o FN_Bin_Wire
v 0.087374 0.000000 0.063481
v 0.033374 0.000000 0.102714
v -0.033374 0.000000 0.102714
v -0.087374 0.000000 0.063481
v -0.108000 0.000000 -0.000000
v -0.087374 0.000000 -0.063481
v -0.033374 0.000000 -0.102714
v 0.033374 0.000000 -0.102714
v 0.087374 0.000000 -0.063481
v 0.108000 0.000000 0.000000
v 0.108000 0.012000 0.000000
v 0.087374 0.012000 -0.063481
v 0.033374 0.012000 -0.102714
v -0.033374 0.012000 -0.102714
v -0.087374 0.012000 -0.063481
v -0.108000 0.012000 -0.000000
v -0.087374 0.012000 0.063481
v -0.033374 0.012000 0.102714
v 0.033374 0.012000 0.102714
v 0.087374 0.012000 0.063481
v 0.105210 0.006236 0.002800
v 0.110790 0.005764 0.002800
v 0.110790 0.005764 -0.002800
v 0.105210 0.006236 -0.002800
v 0.131210 0.313236 -0.002800
v 0.136790 0.312764 -0.002800
v 0.136790 0.312764 0.002800
v 0.131210 0.313236 0.002800
v 0.086762 0.006236 -0.059576
v 0.091277 0.005764 -0.062855
v 0.087985 0.005764 -0.067386
v 0.083471 0.006236 -0.064106
v 0.104505 0.313236 -0.079389
v 0.109020 0.312764 -0.082668
v 0.112311 0.312764 -0.078138
v 0.107797 0.313236 -0.074858
v 0.035175 0.006236 -0.099195
v 0.036899 0.005764 -0.104502
v 0.031573 0.005764 -0.106233
v 0.029849 0.006236 -0.100926
v 0.037883 0.313236 -0.125653
v 0.039607 0.312764 -0.130960
v 0.044933 0.312764 -0.129230
v 0.043209 0.313236 -0.123923
v -0.029849 0.006236 -0.100926
v -0.031573 0.005764 -0.106233
v -0.036899 0.005764 -0.104502
v -0.035175 0.006236 -0.099195
v -0.043209 0.313236 -0.123923
v -0.044933 0.312764 -0.129230
v -0.039607 0.312764 -0.130960
v -0.037883 0.313236 -0.125653
v -0.083471 0.006236 -0.064106
v -0.087985 0.005764 -0.067386
v -0.091277 0.005764 -0.062855
v -0.086762 0.006236 -0.059576
v -0.107797 0.313236 -0.074858
v -0.112311 0.312764 -0.078138
v -0.109020 0.312764 -0.082668
v -0.104505 0.313236 -0.079389
v -0.105210 0.006236 -0.002800
v -0.110790 0.005764 -0.002800
v -0.110790 0.005764 0.002800
v -0.105210 0.006236 0.002800
v -0.131210 0.313236 0.002800
v -0.136790 0.312764 0.002800
v -0.136790 0.312764 -0.002800
v -0.131210 0.313236 -0.002800
v -0.086762 0.006236 0.059576
v -0.091277 0.005764 0.062855
v -0.087985 0.005764 0.067386
v -0.083471 0.006236 0.064106
v -0.104505 0.313236 0.079389
v -0.109020 0.312764 0.082668
v -0.112311 0.312764 0.078138
v -0.107797 0.313236 0.074858
v -0.035175 0.006236 0.099195
v -0.036899 0.005764 0.104502
v -0.031573 0.005764 0.106233
v -0.029849 0.006236 0.100926
v -0.037883 0.313236 0.125653
v -0.039607 0.312764 0.130960
v -0.044933 0.312764 0.129230
v -0.043209 0.313236 0.123923
v 0.029849 0.006236 0.100926
v 0.031573 0.005764 0.106233
v 0.036899 0.005764 0.104502
v 0.035175 0.006236 0.099195
v 0.043209 0.313236 0.123923
v 0.044933 0.312764 0.129230
v 0.039607 0.312764 0.130960
v 0.037883 0.313236 0.125653
v 0.083471 0.006236 0.064106
v 0.087985 0.005764 0.067386
v 0.091277 0.005764 0.062855
v 0.086762 0.006236 0.059576
v 0.107797 0.313236 0.074858
v 0.112311 0.312764 0.078138
v 0.109020 0.312764 0.082668
v 0.104505 0.313236 0.079389
v 0.126000 0.160000 0.000000
v 0.101936 0.160000 -0.074061
v 0.101936 0.169000 -0.074061
v 0.126000 0.169000 0.000000
v 0.038936 0.160000 -0.119833
v 0.038936 0.169000 -0.119833
v -0.038936 0.160000 -0.119833
v -0.038936 0.169000 -0.119833
v -0.101936 0.160000 -0.074061
v -0.101936 0.169000 -0.074061
v -0.126000 0.160000 -0.000000
v -0.126000 0.169000 -0.000000
v -0.101936 0.160000 0.074061
v -0.101936 0.169000 0.074061
v -0.038936 0.160000 0.119833
v -0.038936 0.169000 0.119833
v 0.038936 0.160000 0.119833
v 0.038936 0.169000 0.119833
v 0.101936 0.160000 0.074061
v 0.101936 0.169000 0.074061
v 0.117000 0.169000 0.000000
v 0.094655 0.169000 -0.068771
v 0.094655 0.160000 -0.068771
v 0.117000 0.160000 0.000000
v 0.036155 0.169000 -0.111274
v 0.036155 0.160000 -0.111274
v -0.036155 0.169000 -0.111274
v -0.036155 0.160000 -0.111274
v -0.094655 0.169000 -0.068771
v -0.094655 0.160000 -0.068771
v -0.117000 0.169000 -0.000000
v -0.117000 0.160000 -0.000000
v -0.094655 0.169000 0.068771
v -0.094655 0.160000 0.068771
v -0.036155 0.169000 0.111274
v -0.036155 0.160000 0.111274
v 0.036155 0.169000 0.111274
v 0.036155 0.160000 0.111274
v 0.094655 0.169000 0.068771
v 0.094655 0.160000 0.068771
v 0.140000 0.311000 0.000000
v 0.113262 0.311000 -0.082290
v 0.113262 0.320000 -0.082290
v 0.140000 0.320000 0.000000
v 0.043262 0.311000 -0.133148
v 0.043262 0.320000 -0.133148
v -0.043262 0.311000 -0.133148
v -0.043262 0.320000 -0.133148
v -0.113262 0.311000 -0.082290
v -0.113262 0.320000 -0.082290
v -0.140000 0.311000 -0.000000
v -0.140000 0.320000 -0.000000
v -0.113262 0.311000 0.082290
v -0.113262 0.320000 0.082290
v -0.043262 0.311000 0.133148
v -0.043262 0.320000 0.133148
v 0.043262 0.311000 0.133148
v 0.043262 0.320000 0.133148
v 0.113262 0.311000 0.082290
v 0.113262 0.320000 0.082290
v 0.131000 0.320000 0.000000
v 0.105981 0.320000 -0.077000
v 0.105981 0.311000 -0.077000
v 0.131000 0.311000 0.000000
v 0.040481 0.320000 -0.124588
v 0.040481 0.311000 -0.124588
v -0.040481 0.320000 -0.124588
v -0.040481 0.311000 -0.124588
v -0.105981 0.320000 -0.077000
v -0.105981 0.311000 -0.077000
v -0.131000 0.320000 -0.000000
v -0.131000 0.311000 -0.000000
v -0.105981 0.320000 0.077000
v -0.105981 0.311000 0.077000
v -0.040481 0.320000 0.124588
v -0.040481 0.311000 0.124588
v 0.040481 0.320000 0.124588
v 0.040481 0.311000 0.124588
v 0.105981 0.320000 0.077000
v 0.105981 0.311000 0.077000
v 0.078000 0.052000 0.010000
v 0.061012 0.052000 -0.031012
v 0.020000 0.095500 0.010000
v 0.020000 0.008500 0.010000
v 0.020000 0.052000 -0.048000
v -0.021012 0.052000 -0.031012
v -0.038000 0.052000 0.010000
v -0.021012 0.052000 0.051012
v 0.020000 0.052000 0.068000
v 0.061012 0.052000 0.051012
v -0.070451 0.085000 -0.059389
v -0.079384 0.085000 -0.022178
v -0.030000 0.122500 -0.030000
v -0.030000 0.047500 -0.030000
v -0.059389 0.085000 0.010451
v -0.022178 0.085000 0.019384
v 0.010451 0.085000 -0.000611
v 0.019384 0.085000 -0.037822
v -0.000611 0.085000 -0.070451
v -0.037822 0.085000 -0.079384
v 0.056743 0.070000 0.001140
v 0.078858 0.070000 -0.017748
v 0.045000 0.098500 -0.035000
v 0.045000 0.041500 -0.035000
v 0.081140 0.070000 -0.046743
v 0.062252 0.070000 -0.068858
v 0.033257 0.070000 -0.071140
v 0.011142 0.070000 -0.052252
v 0.008860 0.070000 -0.023257
v 0.027748 0.070000 -0.001142
vn -0.0000 -1.0000 -0.0000
vn -0.0000 1.0000 -0.0000
vn 0.9511 -0.0000 -0.3090
vn 0.5878 -0.0000 -0.8090
vn -0.0000 -0.0000 -1.0000
vn -0.5878 -0.0000 -0.8090
vn -0.9511 -0.0000 -0.3090
vn -0.9511 -0.0000 0.3090
vn -0.5878 -0.0000 0.8090
vn -0.0000 -0.0000 1.0000
vn 0.5878 -0.0000 0.8090
vn 0.9511 -0.0000 0.3090
vn 0.0844 0.9964 -0.0000
vn -0.0844 -0.9964 -0.0000
vn -0.9964 0.0844 -0.0000
vn 0.9964 -0.0844 -0.0000
vn 0.0683 0.9964 -0.0496
vn -0.0683 -0.9964 0.0496
vn -0.8061 0.0844 0.5857
vn 0.8061 -0.0844 -0.5857
vn 0.0261 0.9964 -0.0803
vn -0.0261 -0.9964 0.0803
vn -0.3079 0.0844 0.9477
vn 0.3079 -0.0844 -0.9477
vn -0.0261 0.9964 -0.0803
vn 0.0261 -0.9964 0.0803
vn 0.3079 0.0844 0.9477
vn -0.3079 -0.0844 -0.9477
vn -0.0683 0.9964 -0.0496
vn 0.0683 -0.9964 0.0496
vn 0.8061 0.0844 0.5857
vn -0.8061 -0.0844 -0.5857
vn -0.0844 0.9964 -0.0000
vn 0.0844 -0.9964 -0.0000
vn 0.9964 0.0844 -0.0000
vn -0.9964 -0.0844 -0.0000
vn -0.0683 0.9964 0.0496
vn 0.0683 -0.9964 -0.0496
vn 0.8061 0.0844 -0.5857
vn -0.8061 -0.0844 0.5857
vn -0.0261 0.9964 0.0803
vn 0.0261 -0.9964 -0.0803
vn 0.3079 0.0844 -0.9477
vn -0.3079 -0.0844 0.9477
vn 0.0261 0.9964 0.0803
vn -0.0261 -0.9964 -0.0803
vn -0.3079 0.0844 -0.9477
vn 0.3079 -0.0844 0.9477
vn 0.0683 0.9964 0.0496
vn -0.0683 -0.9964 -0.0496
vn -0.8061 0.0844 -0.5857
vn 0.8061 -0.0844 0.5857
vn 0.5823 0.7764 -0.2412
vn 0.5823 -0.7764 -0.2412
vn 0.2412 0.7764 -0.5823
vn 0.2412 -0.7764 -0.5823
vn -0.2412 0.7764 -0.5823
vn -0.2412 -0.7764 -0.5823
vn -0.5823 0.7764 -0.2412
vn -0.5823 -0.7764 -0.2412
vn -0.5823 0.7764 0.2412
vn -0.5823 -0.7764 0.2412
vn -0.2412 0.7764 0.5823
vn -0.2412 -0.7764 0.5823
vn 0.2412 0.7764 0.5823
vn 0.2412 -0.7764 0.5823
vn 0.5823 0.7764 0.2412
vn 0.5823 -0.7764 0.2412
vn -0.6128 0.7764 -0.1471
vn -0.6128 -0.7764 -0.1471
vn -0.5374 0.7764 0.3293
vn -0.5374 -0.7764 0.3293
vn -0.1471 0.7764 0.6128
vn -0.1471 -0.7764 0.6128
vn 0.3293 0.7764 0.5374
vn 0.3293 -0.7764 0.5374
vn 0.6128 0.7764 0.1471
vn 0.6128 -0.7764 0.1471
vn 0.5374 0.7764 -0.3293
vn 0.5374 -0.7764 -0.3293
vn 0.1471 0.7764 -0.6128
vn 0.1471 -0.7764 -0.6128
vn -0.3293 0.7764 -0.5374
vn -0.3293 -0.7764 -0.5374
vn 0.4093 0.7764 0.4793
vn 0.4093 -0.7764 0.4793
vn 0.6283 0.7764 0.0494
vn 0.6283 -0.7764 0.0494
vn 0.4793 0.7764 -0.4093
vn 0.4793 -0.7764 -0.4093
vn 0.0494 0.7764 -0.6283
vn 0.0494 -0.7764 -0.6283
vn -0.4093 0.7764 -0.4793
vn -0.4093 -0.7764 -0.4793
vn -0.6283 0.7764 -0.0494
vn -0.6283 -0.7764 -0.0494
vn -0.4793 0.7764 0.4093
vn -0.4793 -0.7764 0.4093
vn -0.0494 0.7764 0.6283
vn -0.0494 -0.7764 0.6283
vt 0.812500 0.312500
vt 0.437500 0.687500
s 0
usemtl FN_Atlas
f 1/1/1 2/1/1 3/1/1 4/1/1 5/1/1 6/1/1 7/1/1 8/1/1 9/1/1 10/1/1
f 11/1/2 12/1/2 13/1/2 14/1/2 15/1/2 16/1/2 17/1/2 18/1/2 19/1/2 20/1/2
f 10/1/3 9/1/3 12/1/3 11/1/3
f 9/1/4 8/1/4 13/1/4 12/1/4
f 8/1/5 7/1/5 14/1/5 13/1/5
f 7/1/6 6/1/6 15/1/6 14/1/6
f 6/1/7 5/1/7 16/1/7 15/1/7
f 5/1/8 4/1/8 17/1/8 16/1/8
f 4/1/9 3/1/9 18/1/9 17/1/9
f 3/1/10 2/1/10 19/1/10 18/1/10
f 2/1/11 1/1/11 20/1/11 19/1/11
f 1/1/12 10/1/12 11/1/12 20/1/12
f 21/1/13 22/1/13 23/1/13 24/1/13
f 25/1/14 26/1/14 27/1/14 28/1/14
f 24/1/10 23/1/10 26/1/10 25/1/10
f 23/1/15 22/1/15 27/1/15 26/1/15
f 22/1/5 21/1/5 28/1/5 27/1/5
f 21/1/16 24/1/16 25/1/16 28/1/16
f 29/1/17 30/1/17 31/1/17 32/1/17
f 33/1/18 34/1/18 35/1/18 36/1/18
f 32/1/11 31/1/11 34/1/11 33/1/11
f 31/1/19 30/1/19 35/1/19 34/1/19
f 30/1/6 29/1/6 36/1/6 35/1/6
f 29/1/20 32/1/20 33/1/20 36/1/20
f 37/1/21 38/1/21 39/1/21 40/1/21
f 41/1/22 42/1/22 43/1/22 44/1/22
f 40/1/12 39/1/12 42/1/12 41/1/12
f 39/1/23 38/1/23 43/1/23 42/1/23
f 38/1/7 37/1/7 44/1/7 43/1/7
f 37/1/24 40/1/24 41/1/24 44/1/24
f 45/1/25 46/1/25 47/1/25 48/1/25
f 49/1/26 50/1/26 51/1/26 52/1/26
f 48/1/3 47/1/3 50/1/3 49/1/3
f 47/1/27 46/1/27 51/1/27 50/1/27
f 46/1/8 45/1/8 52/1/8 51/1/8
f 45/1/28 48/1/28 49/1/28 52/1/28
f 53/1/29 54/1/29 55/1/29 56/1/29
f 57/1/30 58/1/30 59/1/30 60/1/30
f 56/1/4 55/1/4 58/1/4 57/1/4
f 55/1/31 54/1/31 59/1/31 58/1/31
f 54/1/9 53/1/9 60/1/9 59/1/9
f 53/1/32 56/1/32 57/1/32 60/1/32
f 61/1/33 62/1/33 63/1/33 64/1/33
f 65/1/34 66/1/34 67/1/34 68/1/34
f 64/1/5 63/1/5 66/1/5 65/1/5
f 63/1/35 62/1/35 67/1/35 66/1/35
f 62/1/10 61/1/10 68/1/10 67/1/10
f 61/1/36 64/1/36 65/1/36 68/1/36
f 69/1/37 70/1/37 71/1/37 72/1/37
f 73/1/38 74/1/38 75/1/38 76/1/38
f 72/1/6 71/1/6 74/1/6 73/1/6
f 71/1/39 70/1/39 75/1/39 74/1/39
f 70/1/11 69/1/11 76/1/11 75/1/11
f 69/1/40 72/1/40 73/1/40 76/1/40
f 77/1/41 78/1/41 79/1/41 80/1/41
f 81/1/42 82/1/42 83/1/42 84/1/42
f 80/1/7 79/1/7 82/1/7 81/1/7
f 79/1/43 78/1/43 83/1/43 82/1/43
f 78/1/12 77/1/12 84/1/12 83/1/12
f 77/1/44 80/1/44 81/1/44 84/1/44
f 85/1/45 86/1/45 87/1/45 88/1/45
f 89/1/46 90/1/46 91/1/46 92/1/46
f 88/1/8 87/1/8 90/1/8 89/1/8
f 87/1/47 86/1/47 91/1/47 90/1/47
f 86/1/3 85/1/3 92/1/3 91/1/3
f 85/1/48 88/1/48 89/1/48 92/1/48
f 93/1/49 94/1/49 95/1/49 96/1/49
f 97/1/50 98/1/50 99/1/50 100/1/50
f 96/1/9 95/1/9 98/1/9 97/1/9
f 95/1/51 94/1/51 99/1/51 98/1/51
f 94/1/4 93/1/4 100/1/4 99/1/4
f 93/1/52 96/1/52 97/1/52 100/1/52
f 101/1/3 102/1/3 103/1/3 104/1/3
f 102/1/4 105/1/4 106/1/4 103/1/4
f 105/1/5 107/1/5 108/1/5 106/1/5
f 107/1/6 109/1/6 110/1/6 108/1/6
f 109/1/7 111/1/7 112/1/7 110/1/7
f 111/1/8 113/1/8 114/1/8 112/1/8
f 113/1/9 115/1/9 116/1/9 114/1/9
f 115/1/10 117/1/10 118/1/10 116/1/10
f 117/1/11 119/1/11 120/1/11 118/1/11
f 119/1/12 101/1/12 104/1/12 120/1/12
f 121/1/8 122/1/8 123/1/8 124/1/8
f 122/1/9 125/1/9 126/1/9 123/1/9
f 125/1/10 127/1/10 128/1/10 126/1/10
f 127/1/11 129/1/11 130/1/11 128/1/11
f 129/1/12 131/1/12 132/1/12 130/1/12
f 131/1/3 133/1/3 134/1/3 132/1/3
f 133/1/4 135/1/4 136/1/4 134/1/4
f 135/1/5 137/1/5 138/1/5 136/1/5
f 137/1/6 139/1/6 140/1/6 138/1/6
f 139/1/7 121/1/7 124/1/7 140/1/7
f 104/1/2 103/1/2 122/1/2 121/1/2
f 124/1/1 123/1/1 102/1/1 101/1/1
f 103/1/2 106/1/2 125/1/2 122/1/2
f 123/1/1 126/1/1 105/1/1 102/1/1
f 106/1/2 108/1/2 127/1/2 125/1/2
f 126/1/1 128/1/1 107/1/1 105/1/1
f 108/1/2 110/1/2 129/1/2 127/1/2
f 128/1/1 130/1/1 109/1/1 107/1/1
f 110/1/2 112/1/2 131/1/2 129/1/2
f 130/1/1 132/1/1 111/1/1 109/1/1
f 112/1/2 114/1/2 133/1/2 131/1/2
f 132/1/1 134/1/1 113/1/1 111/1/1
f 114/1/2 116/1/2 135/1/2 133/1/2
f 134/1/1 136/1/1 115/1/1 113/1/1
f 116/1/2 118/1/2 137/1/2 135/1/2
f 136/1/1 138/1/1 117/1/1 115/1/1
f 118/1/2 120/1/2 139/1/2 137/1/2
f 138/1/1 140/1/1 119/1/1 117/1/1
f 120/1/2 104/1/2 121/1/2 139/1/2
f 140/1/1 124/1/1 101/1/1 119/1/1
f 141/1/3 142/1/3 143/1/3 144/1/3
f 142/1/4 145/1/4 146/1/4 143/1/4
f 145/1/5 147/1/5 148/1/5 146/1/5
f 147/1/6 149/1/6 150/1/6 148/1/6
f 149/1/7 151/1/7 152/1/7 150/1/7
f 151/1/8 153/1/8 154/1/8 152/1/8
f 153/1/9 155/1/9 156/1/9 154/1/9
f 155/1/10 157/1/10 158/1/10 156/1/10
f 157/1/11 159/1/11 160/1/11 158/1/11
f 159/1/12 141/1/12 144/1/12 160/1/12
f 161/1/8 162/1/8 163/1/8 164/1/8
f 162/1/9 165/1/9 166/1/9 163/1/9
f 165/1/10 167/1/10 168/1/10 166/1/10
f 167/1/11 169/1/11 170/1/11 168/1/11
f 169/1/12 171/1/12 172/1/12 170/1/12
f 171/1/3 173/1/3 174/1/3 172/1/3
f 173/1/4 175/1/4 176/1/4 174/1/4
f 175/1/5 177/1/5 178/1/5 176/1/5
f 177/1/6 179/1/6 180/1/6 178/1/6
f 179/1/7 161/1/7 164/1/7 180/1/7
f 144/1/2 143/1/2 162/1/2 161/1/2
f 164/1/1 163/1/1 142/1/1 141/1/1
f 143/1/2 146/1/2 165/1/2 162/1/2
f 163/1/1 166/1/1 145/1/1 142/1/1
f 146/1/2 148/1/2 167/1/2 165/1/2
f 166/1/1 168/1/1 147/1/1 145/1/1
f 148/1/2 150/1/2 169/1/2 167/1/2
f 168/1/1 170/1/1 149/1/1 147/1/1
f 150/1/2 152/1/2 171/1/2 169/1/2
f 170/1/1 172/1/1 151/1/1 149/1/1
f 152/1/2 154/1/2 173/1/2 171/1/2
f 172/1/1 174/1/1 153/1/1 151/1/1
f 154/1/2 156/1/2 175/1/2 173/1/2
f 174/1/1 176/1/1 155/1/1 153/1/1
f 156/1/2 158/1/2 177/1/2 175/1/2
f 176/1/1 178/1/1 157/1/1 155/1/1
f 158/1/2 160/1/2 179/1/2 177/1/2
f 178/1/1 180/1/1 159/1/1 157/1/1
f 160/1/2 144/1/2 161/1/2 179/1/2
f 180/1/1 164/1/1 141/1/1 159/1/1
f 181/2/53 182/2/53 183/2/53
f 182/2/54 181/2/54 184/2/54
f 182/2/55 185/2/55 183/2/55
f 185/2/56 182/2/56 184/2/56
f 185/2/57 186/2/57 183/2/57
f 186/2/58 185/2/58 184/2/58
f 186/2/59 187/2/59 183/2/59
f 187/2/60 186/2/60 184/2/60
f 187/2/61 188/2/61 183/2/61
f 188/2/62 187/2/62 184/2/62
f 188/2/63 189/2/63 183/2/63
f 189/2/64 188/2/64 184/2/64
f 189/2/65 190/2/65 183/2/65
f 190/2/66 189/2/66 184/2/66
f 190/2/67 181/2/67 183/2/67
f 181/2/68 190/2/68 184/2/68
f 191/2/69 192/2/69 193/2/69
f 192/2/70 191/2/70 194/2/70
f 192/2/71 195/2/71 193/2/71
f 195/2/72 192/2/72 194/2/72
f 195/2/73 196/2/73 193/2/73
f 196/2/74 195/2/74 194/2/74
f 196/2/75 197/2/75 193/2/75
f 197/2/76 196/2/76 194/2/76
f 197/2/77 198/2/77 193/2/77
f 198/2/78 197/2/78 194/2/78
f 198/2/79 199/2/79 193/2/79
f 199/2/80 198/2/80 194/2/80
f 199/2/81 200/2/81 193/2/81
f 200/2/82 199/2/82 194/2/82
f 200/2/83 191/2/83 193/2/83
f 191/2/84 200/2/84 194/2/84
f 201/2/85 202/2/85 203/2/85
f 202/2/86 201/2/86 204/2/86
f 202/2/87 205/2/87 203/2/87
f 205/2/88 202/2/88 204/2/88
f 205/2/89 206/2/89 203/2/89
f 206/2/90 205/2/90 204/2/90
f 206/2/91 207/2/91 203/2/91
f 207/2/92 206/2/92 204/2/92
f 207/2/93 208/2/93 203/2/93
f 208/2/94 207/2/94 204/2/94
f 208/2/95 209/2/95 203/2/95
f 209/2/96 208/2/96 204/2/96
f 209/2/97 210/2/97 203/2/97
f 210/2/98 209/2/98 204/2/98
f 210/2/99 201/2/99 203/2/99
f 201/2/100 210/2/100 204/2/100
