# Blender 5.2.0 LTS
# www.blender.org
mtllib FN_Basket_Log.mtl
o FN_Basket_Log
v 0.199186 0.000000 0.115000
v 0.115000 0.000000 0.199186
v -0.000000 0.000000 0.230000
v -0.115000 0.000000 0.199186
v -0.199186 0.000000 0.115000
v -0.230000 0.000000 -0.000000
v -0.199186 0.000000 -0.115000
v -0.115000 0.000000 -0.199186
v 0.000000 0.000000 -0.230000
v 0.115000 0.000000 -0.199186
v 0.199186 0.000000 -0.115000
v 0.230000 0.000000 0.000000
v 0.202650 0.040000 -0.117000
v 0.234000 0.040000 0.000000
v 0.117000 0.040000 -0.202650
v 0.000000 0.040000 -0.234000
v -0.117000 0.040000 -0.202650
v -0.202650 0.040000 -0.117000
v -0.234000 0.040000 -0.000000
v -0.202650 0.040000 0.117000
v -0.117000 0.040000 0.202650
v -0.000000 0.040000 0.234000
v 0.117000 0.040000 0.202650
v 0.202650 0.040000 0.117000
v 0.239023 0.320000 -0.138000
v 0.276000 0.320000 0.000000
v 0.138000 0.320000 -0.239023
v 0.000000 0.320000 -0.276000
v -0.138000 0.320000 -0.239023
v -0.239023 0.320000 -0.138000
v -0.276000 0.320000 -0.000000
v -0.239023 0.320000 0.138000
v -0.138000 0.320000 0.239023
v -0.000000 0.320000 0.276000
v 0.138000 0.320000 0.239023
v 0.239023 0.320000 0.138000
v 0.246000 0.320000 0.000000
v 0.213042 0.320000 -0.123000
v 0.187061 0.028000 -0.108000
v 0.216000 0.028000 0.000000
v 0.123000 0.320000 -0.213042
v 0.108000 0.028000 -0.187061
v 0.000000 0.320000 -0.246000
v 0.000000 0.028000 -0.216000
v -0.123000 0.320000 -0.213042
v -0.108000 0.028000 -0.187061
v -0.213042 0.320000 -0.123000
v -0.187061 0.028000 -0.108000
v -0.246000 0.320000 -0.000000
v -0.216000 0.028000 -0.000000
v -0.213042 0.320000 0.123000
v -0.187061 0.028000 0.108000
v -0.123000 0.320000 0.213042
v -0.108000 0.028000 0.187061
v -0.000000 0.320000 0.246000
v -0.000000 0.028000 0.216000
v 0.123000 0.320000 0.213042
v 0.108000 0.028000 0.187061
v 0.213042 0.320000 0.123000
v 0.187061 0.028000 0.108000
v 0.226000 0.016000 0.000000
v 0.195722 0.016000 -0.113000
v 0.195722 0.032000 -0.113000
v 0.226000 0.032000 0.000000
v 0.113000 0.016000 -0.195722
v 0.113000 0.032000 -0.195722
v 0.000000 0.016000 -0.226000
v 0.000000 0.032000 -0.226000
v -0.113000 0.016000 -0.195722
v -0.113000 0.032000 -0.195722
v -0.195722 0.016000 -0.113000
v -0.195722 0.032000 -0.113000
v -0.226000 0.016000 -0.000000
v -0.226000 0.032000 -0.000000
v -0.195722 0.016000 0.113000
v -0.195722 0.032000 0.113000
v -0.113000 0.016000 0.195722
v -0.113000 0.032000 0.195722
v -0.000000 0.016000 0.226000
v -0.000000 0.032000 0.226000
v 0.113000 0.016000 0.195722
v 0.113000 0.032000 0.195722
v 0.195722 0.016000 0.113000
v 0.195722 0.032000 0.113000
v -0.033000 0.020000 0.055000
v -0.051159 0.020000 0.011159
v -0.051159 0.372000 0.011159
v -0.033000 0.372000 0.055000
v -0.095000 0.020000 -0.007000
v -0.095000 0.372000 -0.007000
v -0.138841 0.020000 0.011159
v -0.138841 0.372000 0.011159
v -0.157000 0.020000 0.055000
v -0.157000 0.372000 0.055000
v -0.138841 0.020000 0.098841
v -0.138841 0.372000 0.098841
v -0.095000 0.020000 0.117000
v -0.095000 0.372000 0.117000
v -0.051159 0.020000 0.098841
v -0.051159 0.372000 0.098841
v 0.045000 0.020000 -0.075000
v 0.028891 0.020000 -0.113891
v 0.028891 0.400000 -0.113891
v 0.045000 0.400000 -0.075000
v -0.010000 0.020000 -0.130000
v -0.010000 0.400000 -0.130000
v -0.048891 0.020000 -0.113891
v -0.048891 0.400000 -0.113891
v -0.065000 0.020000 -0.075000
v -0.065000 0.400000 -0.075000
v -0.048891 0.020000 -0.036109
v -0.048891 0.400000 -0.036109
v -0.010000 0.020000 -0.020000
v -0.010000 0.400000 -0.020000
v 0.028891 0.020000 -0.036109
v 0.028891 0.400000 -0.036109
v 0.150000 0.020000 0.030000
v 0.129497 0.020000 -0.019497
v 0.129497 0.356000 -0.019497
v 0.150000 0.356000 0.030000
v 0.080000 0.020000 -0.040000
v 0.080000 0.356000 -0.040000
v 0.030503 0.020000 -0.019497
v 0.030503 0.356000 -0.019497
v 0.010000 0.020000 0.030000
v 0.010000 0.356000 0.030000
v 0.030503 0.020000 0.079497
v 0.030503 0.356000 0.079497
v 0.080000 0.020000 0.100000
v 0.080000 0.356000 0.100000
v 0.129497 0.020000 0.079497
v 0.129497 0.356000 0.079497
v 0.108000 0.020000 -0.105000
v 0.093941 0.020000 -0.138941
v 0.093941 0.344000 -0.138941
v 0.108000 0.344000 -0.105000
v 0.060000 0.020000 -0.153000
v 0.060000 0.344000 -0.153000
v 0.026059 0.020000 -0.138941
v 0.026059 0.344000 -0.138941
v 0.012000 0.020000 -0.105000
v 0.012000 0.344000 -0.105000
v 0.026059 0.020000 -0.071059
v 0.026059 0.344000 -0.071059
v 0.060000 0.020000 -0.057000
v 0.060000 0.344000 -0.057000
v 0.093941 0.020000 -0.071059
v 0.093941 0.344000 -0.071059
v -0.078180 0.020000 -0.106820
v -0.078180 0.360000 -0.106820
v -0.065000 0.360000 -0.075000
v -0.110000 0.020000 -0.120000
v -0.110000 0.360000 -0.120000
v -0.141820 0.020000 -0.106820
v -0.141820 0.360000 -0.106820
v -0.155000 0.020000 -0.075000
v -0.155000 0.360000 -0.075000
v -0.141820 0.020000 -0.043180
v -0.141820 0.360000 -0.043180
v -0.110000 0.020000 -0.030000
v -0.110000 0.360000 -0.030000
v -0.078180 0.020000 -0.043180
v -0.078180 0.360000 -0.043180
v -0.150000 0.394645 -0.015355
v -0.150000 0.380000 0.020000
v -0.150000 0.394645 0.055355
v -0.150000 0.430000 0.070000
v -0.150000 0.465355 0.055355
v -0.150000 0.480000 0.020000
v -0.150000 0.465355 -0.015355
v -0.150000 0.430000 -0.030000
v 0.150000 0.430000 -0.030000
v 0.150000 0.465355 -0.015355
v 0.150000 0.480000 0.020000
v 0.150000 0.465355 0.055355
v 0.150000 0.430000 0.070000
v 0.150000 0.394645 0.055355
v 0.150000 0.380000 0.020000
v 0.150000 0.394645 -0.015355
v 0.072000 0.462000 0.130000
v 0.059698 0.491698 0.130000
v 0.030000 0.504000 0.130000
v 0.000302 0.491698 0.130000
v -0.012000 0.462000 0.130000
v 0.000302 0.432302 0.130000
v 0.030000 0.420000 0.130000
v 0.059698 0.432302 0.130000
v 0.059698 0.432302 -0.130000
v 0.030000 0.420000 -0.130000
v 0.000302 0.432302 -0.130000
v -0.012000 0.462000 -0.130000
v 0.000302 0.491698 -0.130000
v 0.030000 0.504000 -0.130000
v 0.059698 0.491698 -0.130000
v 0.072000 0.462000 -0.130000
vn -0.0000 -1.0000 -0.0000
vn 0.9615 -0.0961 -0.2576
vn 0.7038 -0.0961 -0.7038
vn 0.2576 -0.0961 -0.9615
vn -0.2576 -0.0961 -0.9615
vn -0.7038 -0.0961 -0.7038
vn -0.9615 -0.0961 -0.2576
vn -0.9615 -0.0961 0.2576
vn -0.7038 -0.0961 0.7038
vn -0.2576 -0.0961 0.9615
vn 0.2576 -0.0961 0.9615
vn 0.7038 -0.0961 0.7038
vn 0.9615 -0.0961 0.2576
vn 0.9559 -0.1434 -0.2561
vn 0.6998 -0.1434 -0.6998
vn 0.2561 -0.1434 -0.9559
vn -0.2561 -0.1434 -0.9559
vn -0.6998 -0.1434 -0.6998
vn -0.9559 -0.1434 -0.2561
vn -0.9559 -0.1434 0.2561
vn -0.6998 -0.1434 0.6998
vn -0.2561 -0.1434 0.9559
vn 0.2561 -0.1434 0.9559
vn 0.6998 -0.1434 0.6998
vn 0.9559 -0.1434 0.2561
vn -0.9612 0.0988 0.2576
vn -0.7037 0.0988 0.7037
vn -0.2576 0.0988 0.9612
vn 0.2576 0.0988 0.9612
vn 0.7037 0.0988 0.7037
vn 0.9612 0.0988 0.2576
vn 0.9612 0.0988 -0.2576
vn 0.7037 0.0988 -0.7037
vn 0.2576 0.0988 -0.9612
vn -0.2576 0.0988 -0.9612
vn -0.7037 0.0988 -0.7037
vn -0.9612 0.0988 -0.2576
vn -0.0000 1.0000 -0.0000
vn 0.9659 -0.0000 -0.2588
vn 0.7071 -0.0000 -0.7071
vn 0.2588 -0.0000 -0.9659
vn -0.2588 -0.0000 -0.9659
vn -0.7071 -0.0000 -0.7071
vn -0.9659 -0.0000 -0.2588
vn -0.9659 -0.0000 0.2588
vn -0.7071 -0.0000 0.7071
vn -0.2588 -0.0000 0.9659
vn 0.2588 -0.0000 0.9659
vn 0.7071 -0.0000 0.7071
vn 0.9659 -0.0000 0.2588
vn 0.9239 -0.0000 -0.3827
vn 0.3827 -0.0000 -0.9239
vn -0.3827 -0.0000 -0.9239
vn -0.9239 -0.0000 -0.3827
vn -0.9239 -0.0000 0.3827
vn -0.3827 -0.0000 0.9239
vn 0.3827 -0.0000 0.9239
vn 0.9239 -0.0000 0.3827
vn -1.0000 -0.0000 -0.0000
vn 1.0000 -0.0000 -0.0000
vn -0.0000 0.3827 -0.9239
vn -0.0000 0.9239 -0.3827
vn -0.0000 0.9239 0.3827
vn -0.0000 0.3827 0.9239
vn -0.0000 -0.3827 0.9239
vn -0.0000 -0.9239 0.3827
vn -0.0000 -0.9239 -0.3827
vn -0.0000 -0.3827 -0.9239
vn -0.0000 -0.0000 1.0000
vn -0.0000 -0.0000 -1.0000
vn 0.9239 0.3827 -0.0000
vn 0.3827 0.9239 -0.0000
vn -0.3827 0.9239 -0.0000
vn -0.9239 0.3827 -0.0000
vn -0.9239 -0.3827 -0.0000
vn -0.3827 -0.9239 -0.0000
vn 0.3827 -0.9239 -0.0000
vn 0.9239 -0.3827 -0.0000
vt 0.312500 0.437500
vt 0.312500 0.937500
vt 0.687500 0.937500
vt 0.437500 0.937500
s 0
usemtl FN_Atlas
f 1/1/1 2/1/1 3/1/1 4/1/1 5/1/1 6/1/1 7/1/1 8/1/1 9/1/1 10/1/1 11/1/1 12/1/1
f 12/1/2 11/1/2 13/1/2 14/1/2
f 11/1/3 10/1/3 15/1/3 13/1/3
f 10/1/4 9/1/4 16/1/4 15/1/4
f 9/1/5 8/1/5 17/1/5 16/1/5
f 8/1/6 7/1/6 18/1/6 17/1/6
f 7/1/7 6/1/7 19/1/7 18/1/7
f 6/1/8 5/1/8 20/1/8 19/1/8
f 5/1/9 4/1/9 21/1/9 20/1/9
f 4/1/10 3/1/10 22/1/10 21/1/10
f 3/1/11 2/1/11 23/1/11 22/1/11
f 2/1/12 1/1/12 24/1/12 23/1/12
f 1/1/13 12/1/13 14/1/13 24/1/13
f 14/2/14 13/2/14 25/2/14 26/2/14
f 13/2/15 15/2/15 27/2/15 25/2/15
f 15/2/16 16/2/16 28/2/16 27/2/16
f 16/2/17 17/2/17 29/2/17 28/2/17
f 17/2/18 18/2/18 30/2/18 29/2/18
f 18/2/19 19/2/19 31/2/19 30/2/19
f 19/2/20 20/2/20 32/2/20 31/2/20
f 20/2/21 21/2/21 33/2/21 32/2/21
f 21/2/22 22/2/22 34/2/22 33/2/22
f 22/2/23 23/2/23 35/2/23 34/2/23
f 23/2/24 24/2/24 36/2/24 35/2/24
f 24/2/25 14/2/25 26/2/25 36/2/25
f 37/2/26 38/2/26 39/2/26 40/2/26
f 38/2/27 41/2/27 42/2/27 39/2/27
f 41/2/28 43/2/28 44/2/28 42/2/28
f 43/2/29 45/2/29 46/2/29 44/2/29
f 45/2/30 47/2/30 48/2/30 46/2/30
f 47/2/31 49/2/31 50/2/31 48/2/31
f 49/2/32 51/2/32 52/2/32 50/2/32
f 51/2/33 53/2/33 54/2/33 52/2/33
f 53/2/34 55/2/34 56/2/34 54/2/34
f 55/2/35 57/2/35 58/2/35 56/2/35
f 57/2/36 59/2/36 60/2/36 58/2/36
f 59/2/37 37/2/37 40/2/37 60/2/37
f 26/1/38 25/1/38 38/1/38 37/1/38
f 25/1/38 27/1/38 41/1/38 38/1/38
f 27/1/38 28/1/38 43/1/38 41/1/38
f 28/1/38 29/1/38 45/1/38 43/1/38
f 29/1/38 30/1/38 47/1/38 45/1/38
f 30/1/38 31/1/38 49/1/38 47/1/38
f 31/1/38 32/1/38 51/1/38 49/1/38
f 32/1/38 33/1/38 53/1/38 51/1/38
f 33/1/38 34/1/38 55/1/38 53/1/38
f 34/1/38 35/1/38 57/1/38 55/1/38
f 35/1/38 36/1/38 59/1/38 57/1/38
f 36/1/38 26/1/38 37/1/38 59/1/38
f 61/2/39 62/2/39 63/2/39 64/2/39
f 62/2/40 65/2/40 66/2/40 63/2/40
f 65/2/41 67/2/41 68/2/41 66/2/41
f 67/2/42 69/2/42 70/2/42 68/2/42
f 69/2/43 71/2/43 72/2/43 70/2/43
f 71/2/44 73/2/44 74/2/44 72/2/44
f 73/2/45 75/2/45 76/2/45 74/2/45
f 75/2/46 77/2/46 78/2/46 76/2/46
f 77/2/47 79/2/47 80/2/47 78/2/47
f 79/2/48 81/2/48 82/2/48 80/2/48
f 81/2/49 83/2/49 84/2/49 82/2/49
f 83/2/50 61/2/50 64/2/50 84/2/50
f 64/2/38 63/2/38 66/2/38 68/2/38 70/2/38 72/2/38 74/2/38 76/2/38 78/2/38 80/2/38 82/2/38 84/2/38
f 85/3/51 86/3/51 87/3/51 88/3/51
f 86/3/52 89/3/52 90/3/52 87/3/52
f 89/3/53 91/3/53 92/3/53 90/3/53
f 91/3/54 93/3/54 94/3/54 92/3/54
f 93/3/55 95/3/55 96/3/55 94/3/55
f 95/3/56 97/3/56 98/3/56 96/3/56
f 97/3/57 99/3/57 100/3/57 98/3/57
f 99/3/58 85/3/58 88/3/58 100/3/58
f 88/4/38 87/4/38 90/4/38 92/4/38 94/4/38 96/4/38 98/4/38 100/4/38
f 101/3/51 102/3/51 103/3/51 104/3/51
f 102/3/52 105/3/52 106/3/52 103/3/52
f 105/3/53 107/3/53 108/3/53 106/3/53
f 107/3/54 109/3/54 110/3/54 108/3/54
f 109/3/55 111/3/55 112/3/55 110/3/55
f 111/3/56 113/3/56 114/3/56 112/3/56
f 113/3/57 115/3/57 116/3/57 114/3/57
f 115/3/58 101/3/58 104/3/58 116/3/58
f 104/4/38 103/4/38 106/4/38 108/4/38 110/4/38 112/4/38 114/4/38 116/4/38
f 117/3/51 118/3/51 119/3/51 120/3/51
f 118/3/52 121/3/52 122/3/52 119/3/52
f 121/3/53 123/3/53 124/3/53 122/3/53
f 123/3/54 125/3/54 126/3/54 124/3/54
f 125/3/55 127/3/55 128/3/55 126/3/55
f 127/3/56 129/3/56 130/3/56 128/3/56
f 129/3/57 131/3/57 132/3/57 130/3/57
f 131/3/58 117/3/58 120/3/58 132/3/58
f 120/4/38 119/4/38 122/4/38 124/4/38 126/4/38 128/4/38 130/4/38 132/4/38
f 133/3/51 134/3/51 135/3/51 136/3/51
f 134/3/52 137/3/52 138/3/52 135/3/52
f 137/3/53 139/3/53 140/3/53 138/3/53
f 139/3/54 141/3/54 142/3/54 140/3/54
f 141/3/55 143/3/55 144/3/55 142/3/55
f 143/3/56 145/3/56 146/3/56 144/3/56
f 145/3/57 147/3/57 148/3/57 146/3/57
f 147/3/58 133/3/58 136/3/58 148/3/58
f 136/4/38 135/4/38 138/4/38 140/4/38 142/4/38 144/4/38 146/4/38 148/4/38
f 109/3/51 149/3/51 150/3/51 151/3/51
f 149/3/52 152/3/52 153/3/52 150/3/52
f 152/3/53 154/3/53 155/3/53 153/3/53
f 154/3/54 156/3/54 157/3/54 155/3/54
f 156/3/55 158/3/55 159/3/55 157/3/55
f 158/3/56 160/3/56 161/3/56 159/3/56
f 160/3/57 162/3/57 163/3/57 161/3/57
f 162/3/58 109/3/58 151/3/58 163/3/58
f 151/4/38 150/4/38 153/4/38 155/4/38 157/4/38 159/4/38 161/4/38 163/4/38
f 164/4/59 165/4/59 166/4/59 167/4/59 168/4/59 169/4/59 170/4/59 171/4/59
f 172/4/60 173/4/60 174/4/60 175/4/60 176/4/60 177/4/60 178/4/60 179/4/60
f 171/3/61 170/3/61 173/3/61 172/3/61
f 170/3/62 169/3/62 174/3/62 173/3/62
f 169/3/63 168/3/63 175/3/63 174/3/63
f 168/3/64 167/3/64 176/3/64 175/3/64
f 167/3/65 166/3/65 177/3/65 176/3/65
f 166/3/66 165/3/66 178/3/66 177/3/66
f 165/3/67 164/3/67 179/3/67 178/3/67
f 164/3/68 171/3/68 172/3/68 179/3/68
f 180/4/69 181/4/69 182/4/69 183/4/69 184/4/69 185/4/69 186/4/69 187/4/69
f 188/4/70 189/4/70 190/4/70 191/4/70 192/4/70 193/4/70 194/4/70 195/4/70
f 195/3/71 194/3/71 181/3/71 180/3/71
f 194/3/72 193/3/72 182/3/72 181/3/72
f 193/3/73 192/3/73 183/3/73 182/3/73
f 192/3/74 191/3/74 184/3/74 183/3/74
f 191/3/75 190/3/75 185/3/75 184/3/75
f 190/3/76 189/3/76 186/3/76 185/3/76
f 189/3/77 188/3/77 187/3/77 186/3/77
f 188/3/78 195/3/78 180/3/78 187/3/78
