# Blender 5.2.0 LTS
# www.blender.org
mtllib FN_Bed_Bunk.mtl
o FN_Bed_Bunk
v -1.000000 0.000000 0.455000
v -1.000000 0.000000 0.385000
v -0.930000 0.000000 0.385000
v -0.930000 0.000000 0.455000
v -1.000000 1.700000 0.455000
v -0.930000 1.700000 0.455000
v -0.930000 1.700000 0.385000
v -1.000000 1.700000 0.385000
v -1.000000 0.000000 -0.465000
v -1.000000 0.000000 -0.535000
v -0.930000 0.000000 -0.535000
v -0.930000 0.000000 -0.465000
v -1.000000 1.700000 -0.465000
v -0.930000 1.700000 -0.465000
v -0.930000 1.700000 -0.535000
v -1.000000 1.700000 -0.535000
v 0.930000 0.000000 0.455000
v 0.930000 0.000000 0.385000
v 1.000000 0.000000 0.385000
v 1.000000 0.000000 0.455000
v 0.930000 1.700000 0.455000
v 1.000000 1.700000 0.455000
v 1.000000 1.700000 0.385000
v 0.930000 1.700000 0.385000
v 0.930000 0.000000 -0.465000
v 0.930000 0.000000 -0.535000
v 1.000000 0.000000 -0.535000
v 1.000000 0.000000 -0.465000
v 0.930000 1.700000 -0.465000
v 1.000000 1.700000 -0.465000
v 1.000000 1.700000 -0.535000
v 0.930000 1.700000 -0.535000
v -0.980000 0.200000 0.450000
v -0.980000 0.200000 0.390000
v 0.980000 0.200000 0.390000
v 0.980000 0.200000 0.450000
v -0.980000 0.260000 0.450000
v 0.980000 0.260000 0.450000
v 0.980000 0.260000 0.390000
v -0.980000 0.260000 0.390000
v -0.980000 0.200000 -0.470000
v -0.980000 0.200000 -0.530000
v 0.980000 0.200000 -0.530000
v 0.980000 0.200000 -0.470000
v -0.980000 0.260000 -0.470000
v 0.980000 0.260000 -0.470000
v 0.980000 0.260000 -0.530000
v -0.980000 0.260000 -0.530000
v -0.993000 0.200000 0.440000
v -0.993000 0.200000 -0.520000
v -0.937000 0.200000 -0.520000
v -0.937000 0.200000 0.440000
v -0.993000 0.260000 0.440000
v -0.937000 0.260000 0.440000
v -0.937000 0.260000 -0.520000
v -0.993000 0.260000 -0.520000
v 0.937000 0.200000 0.440000
v 0.937000 0.200000 -0.520000
v 0.993000 0.200000 -0.520000
v 0.993000 0.200000 0.440000
v 0.937000 0.260000 0.440000
v 0.993000 0.260000 0.440000
v 0.993000 0.260000 -0.520000
v 0.937000 0.260000 -0.520000
v -0.945000 0.236000 0.410000
v -0.945000 0.236000 -0.490000
v 0.945000 0.236000 -0.490000
v 0.945000 0.236000 0.410000
v -0.945000 0.256000 0.410000
v 0.945000 0.256000 0.410000
v 0.945000 0.256000 -0.490000
v -0.945000 0.256000 -0.490000
v -0.940000 0.248000 0.385000
v -0.940000 0.248000 -0.465000
v 0.940000 0.248000 -0.465000
v 0.940000 0.248000 0.385000
v -0.940000 0.386000 0.385000
v 0.940000 0.386000 0.385000
v 0.940000 0.386000 -0.465000
v -0.940000 0.386000 -0.465000
v -0.928000 0.398000 0.373000
v 0.928000 0.398000 0.373000
v 0.928000 0.398000 -0.453000
v -0.928000 0.398000 -0.453000
v -0.520000 0.298000 0.398000
v -0.520000 0.298000 -0.478000
v 0.940000 0.298000 -0.478000
v 0.940000 0.298000 0.398000
v -0.520000 0.427000 0.398000
v 0.940000 0.427000 0.398000
v 0.940000 0.427000 -0.478000
v -0.520000 0.427000 -0.478000
v -0.504000 0.443000 0.382000
v 0.924000 0.443000 0.382000
v 0.924000 0.443000 -0.462000
v -0.504000 0.443000 -0.462000
v -0.900000 0.386000 0.260000
v -0.900000 0.386000 -0.340000
v -0.560000 0.386000 -0.340000
v -0.560000 0.386000 0.260000
v -0.900000 0.460000 0.260000
v -0.560000 0.460000 0.260000
v -0.560000 0.460000 -0.340000
v -0.900000 0.460000 -0.340000
v -0.882000 0.478000 0.242000
v -0.578000 0.478000 0.242000
v -0.578000 0.478000 -0.322000
v -0.882000 0.478000 -0.322000
v -0.980000 1.120000 0.450000
v -0.980000 1.120000 0.390000
v 0.980000 1.120000 0.390000
v 0.980000 1.120000 0.450000
v -0.980000 1.200000 0.450000
v 0.980000 1.200000 0.450000
v 0.980000 1.200000 0.390000
v -0.980000 1.200000 0.390000
v -0.980000 1.120000 -0.470000
v -0.980000 1.120000 -0.530000
v 0.980000 1.120000 -0.530000
v 0.980000 1.120000 -0.470000
v -0.980000 1.200000 -0.470000
v 0.980000 1.200000 -0.470000
v 0.980000 1.200000 -0.530000
v -0.980000 1.200000 -0.530000
v -0.993000 1.120000 0.440000
v -0.993000 1.120000 -0.520000
v -0.937000 1.120000 -0.520000
v -0.937000 1.120000 0.440000
v -0.993000 1.200000 0.440000
v -0.937000 1.200000 0.440000
v -0.937000 1.200000 -0.520000
v -0.993000 1.200000 -0.520000
v 0.937000 1.120000 0.440000
v 0.937000 1.120000 -0.520000
v 0.993000 1.120000 -0.520000
v 0.993000 1.120000 0.440000
v 0.937000 1.200000 0.440000
v 0.993000 1.200000 0.440000
v 0.993000 1.200000 -0.520000
v 0.937000 1.200000 -0.520000
v -0.945000 1.176000 0.410000
v -0.945000 1.176000 -0.490000
v 0.945000 1.176000 -0.490000
v 0.945000 1.176000 0.410000
v -0.945000 1.196000 0.410000
v 0.945000 1.196000 0.410000
v 0.945000 1.196000 -0.490000
v -0.945000 1.196000 -0.490000
v -0.940000 1.188000 0.385000
v -0.940000 1.188000 -0.465000
v 0.940000 1.188000 -0.465000
v 0.940000 1.188000 0.385000
v -0.940000 1.326000 0.385000
v 0.940000 1.326000 0.385000
v 0.940000 1.326000 -0.465000
v -0.940000 1.326000 -0.465000
v -0.928000 1.338000 0.373000
v 0.928000 1.338000 0.373000
v 0.928000 1.338000 -0.453000
v -0.928000 1.338000 -0.453000
v -0.520000 1.238000 0.398000
v -0.520000 1.238000 -0.478000
v 0.940000 1.238000 -0.478000
v 0.940000 1.238000 0.398000
v -0.520000 1.367000 0.398000
v 0.940000 1.367000 0.398000
v 0.940000 1.367000 -0.478000
v -0.520000 1.367000 -0.478000
v -0.504000 1.383000 0.382000
v 0.924000 1.383000 0.382000
v 0.924000 1.383000 -0.462000
v -0.504000 1.383000 -0.462000
v -0.900000 1.326000 0.260000
v -0.900000 1.326000 -0.340000
v -0.560000 1.326000 -0.340000
v -0.560000 1.326000 0.260000
v -0.900000 1.400000 0.260000
v -0.560000 1.400000 0.260000
v -0.560000 1.400000 -0.340000
v -0.900000 1.400000 -0.340000
v -0.882000 1.418000 0.242000
v -0.578000 1.418000 0.242000
v -0.578000 1.418000 -0.322000
v -0.882000 1.418000 -0.322000
v 0.270000 1.150000 0.450000
v 0.270000 1.150000 0.390000
v 0.330000 1.150000 0.390000
v 0.330000 1.150000 0.450000
v 0.270000 1.570000 0.450000
v 0.330000 1.570000 0.450000
v 0.330000 1.570000 0.390000
v 0.270000 1.570000 0.390000
v -0.980000 1.360000 0.450000
v -0.980000 1.360000 0.390000
v 0.330000 1.360000 0.390000
v 0.330000 1.360000 0.450000
v -0.980000 1.410000 0.450000
v 0.330000 1.410000 0.450000
v 0.330000 1.410000 0.390000
v -0.980000 1.410000 0.390000
v -0.980000 1.500000 0.450000
v -0.980000 1.500000 0.390000
v 0.330000 1.500000 0.390000
v 0.330000 1.500000 0.450000
v -0.980000 1.550000 0.450000
v 0.330000 1.550000 0.450000
v 0.330000 1.550000 0.390000
v -0.980000 1.550000 0.390000
v 0.640000 0.000000 0.535000
v 0.640000 0.000000 0.435000
v 0.680000 0.000000 0.435000
v 0.680000 0.000000 0.535000
v 0.640000 1.620000 0.535000
v 0.680000 1.620000 0.535000
v 0.680000 1.620000 0.435000
v 0.640000 1.620000 0.435000
v 0.880000 0.000000 0.535000
v 0.880000 0.000000 0.435000
v 0.920000 0.000000 0.435000
v 0.920000 0.000000 0.535000
v 0.880000 1.620000 0.535000
v 0.920000 1.620000 0.535000
v 0.920000 1.620000 0.435000
v 0.880000 1.620000 0.435000
v 0.660000 0.265000 0.523000
v 0.660000 0.265000 0.447000
v 0.900000 0.265000 0.447000
v 0.900000 0.265000 0.523000
v 0.660000 0.295000 0.523000
v 0.900000 0.295000 0.523000
v 0.900000 0.295000 0.447000
v 0.660000 0.295000 0.447000
v 0.660000 0.545000 0.523000
v 0.660000 0.545000 0.447000
v 0.900000 0.545000 0.447000
v 0.900000 0.545000 0.523000
v 0.660000 0.575000 0.523000
v 0.900000 0.575000 0.523000
v 0.900000 0.575000 0.447000
v 0.660000 0.575000 0.447000
v 0.660000 0.825000 0.523000
v 0.660000 0.825000 0.447000
v 0.900000 0.825000 0.447000
v 0.900000 0.825000 0.523000
v 0.660000 0.855000 0.523000
v 0.900000 0.855000 0.523000
v 0.900000 0.855000 0.447000
v 0.660000 0.855000 0.447000
v 0.660000 1.105000 0.523000
v 0.660000 1.105000 0.447000
v 0.900000 1.105000 0.447000
v 0.900000 1.105000 0.523000
v 0.660000 1.135000 0.523000
v 0.900000 1.135000 0.523000
v 0.900000 1.135000 0.447000
v 0.660000 1.135000 0.447000
v 0.660000 1.385000 0.523000
v 0.660000 1.385000 0.447000
v 0.900000 1.385000 0.447000
v 0.900000 1.385000 0.523000
v 0.660000 1.415000 0.523000
v 0.900000 1.415000 0.523000
v 0.900000 1.415000 0.447000
v 0.660000 1.415000 0.447000
vn -0.0000 -1.0000 -0.0000
vn -0.0000 1.0000 -0.0000
vn -0.0000 -0.0000 1.0000
vn -0.0000 -0.0000 -1.0000
vn -1.0000 -0.0000 -0.0000
vn 1.0000 -0.0000 -0.0000
vn -0.0000 0.7071 0.7071
vn 0.7071 0.7071 -0.0000
vn -0.0000 0.7071 -0.7071
vn -0.7071 0.7071 -0.0000
vt 0.062500 0.937500
vt 0.437500 0.812500
vt 0.812500 0.562500
vt 0.437500 0.687500
vt 0.562500 0.562500
s 0
usemtl FN_Atlas
f 1/1/1 2/1/1 3/1/1 4/1/1
f 5/1/2 6/1/2 7/1/2 8/1/2
f 1/1/3 4/1/3 6/1/3 5/1/3
f 3/1/4 2/1/4 8/1/4 7/1/4
f 1/1/5 5/1/5 8/1/5 2/1/5
f 4/1/6 3/1/6 7/1/6 6/1/6
f 9/1/1 10/1/1 11/1/1 12/1/1
f 13/1/2 14/1/2 15/1/2 16/1/2
f 9/1/3 12/1/3 14/1/3 13/1/3
f 11/1/4 10/1/4 16/1/4 15/1/4
f 9/1/5 13/1/5 16/1/5 10/1/5
f 12/1/6 11/1/6 15/1/6 14/1/6
f 17/1/1 18/1/1 19/1/1 20/1/1
f 21/1/2 22/1/2 23/1/2 24/1/2
f 17/1/3 20/1/3 22/1/3 21/1/3
f 19/1/4 18/1/4 24/1/4 23/1/4
f 17/1/5 21/1/5 24/1/5 18/1/5
f 20/1/6 19/1/6 23/1/6 22/1/6
f 25/1/1 26/1/1 27/1/1 28/1/1
f 29/1/2 30/1/2 31/1/2 32/1/2
f 25/1/3 28/1/3 30/1/3 29/1/3
f 27/1/4 26/1/4 32/1/4 31/1/4
f 25/1/5 29/1/5 32/1/5 26/1/5
f 28/1/6 27/1/6 31/1/6 30/1/6
f 33/1/1 34/1/1 35/1/1 36/1/1
f 37/1/2 38/1/2 39/1/2 40/1/2
f 33/1/3 36/1/3 38/1/3 37/1/3
f 35/1/4 34/1/4 40/1/4 39/1/4
f 33/1/5 37/1/5 40/1/5 34/1/5
f 36/1/6 35/1/6 39/1/6 38/1/6
f 41/1/1 42/1/1 43/1/1 44/1/1
f 45/1/2 46/1/2 47/1/2 48/1/2
f 41/1/3 44/1/3 46/1/3 45/1/3
f 43/1/4 42/1/4 48/1/4 47/1/4
f 41/1/5 45/1/5 48/1/5 42/1/5
f 44/1/6 43/1/6 47/1/6 46/1/6
f 49/1/1 50/1/1 51/1/1 52/1/1
f 53/1/2 54/1/2 55/1/2 56/1/2
f 49/1/3 52/1/3 54/1/3 53/1/3
f 51/1/4 50/1/4 56/1/4 55/1/4
f 49/1/5 53/1/5 56/1/5 50/1/5
f 52/1/6 51/1/6 55/1/6 54/1/6
f 57/1/1 58/1/1 59/1/1 60/1/1
f 61/1/2 62/1/2 63/1/2 64/1/2
f 57/1/3 60/1/3 62/1/3 61/1/3
f 59/1/4 58/1/4 64/1/4 63/1/4
f 57/1/5 61/1/5 64/1/5 58/1/5
f 60/1/6 59/1/6 63/1/6 62/1/6
f 65/1/1 66/1/1 67/1/1 68/1/1
f 69/1/2 70/1/2 71/1/2 72/1/2
f 65/1/3 68/1/3 70/1/3 69/1/3
f 67/1/4 66/1/4 72/1/4 71/1/4
f 65/1/5 69/1/5 72/1/5 66/1/5
f 68/1/6 67/1/6 71/1/6 70/1/6
f 73/2/1 74/2/1 75/2/1 76/2/1
f 77/2/2 78/2/2 79/2/2 80/2/2
f 73/2/3 76/2/3 78/2/3 77/2/3
f 75/2/4 74/2/4 80/2/4 79/2/4
f 73/2/5 77/2/5 80/2/5 74/2/5
f 76/2/6 75/2/6 79/2/6 78/2/6
f 81/2/2 82/2/2 83/2/2 84/2/2
f 77/2/7 78/2/7 82/2/7 81/2/7
f 78/2/8 79/2/8 83/2/8 82/2/8
f 79/2/9 80/2/9 84/2/9 83/2/9
f 80/2/10 77/2/10 81/2/10 84/2/10
f 85/3/1 86/3/1 87/3/1 88/3/1
f 89/3/2 90/3/2 91/3/2 92/3/2
f 85/3/3 88/3/3 90/3/3 89/3/3
f 87/3/4 86/3/4 92/3/4 91/3/4
f 85/3/5 89/3/5 92/3/5 86/3/5
f 88/3/6 87/3/6 91/3/6 90/3/6
f 93/3/2 94/3/2 95/3/2 96/3/2
f 89/3/7 90/3/7 94/3/7 93/3/7
f 90/3/8 91/3/8 95/3/8 94/3/8
f 91/3/9 92/3/9 96/3/9 95/3/9
f 92/3/10 89/3/10 93/3/10 96/3/10
f 97/4/1 98/4/1 99/4/1 100/4/1
f 101/4/2 102/4/2 103/4/2 104/4/2
f 97/4/3 100/4/3 102/4/3 101/4/3
f 99/4/4 98/4/4 104/4/4 103/4/4
f 97/4/5 101/4/5 104/4/5 98/4/5
f 100/4/6 99/4/6 103/4/6 102/4/6
f 105/4/2 106/4/2 107/4/2 108/4/2
f 101/4/7 102/4/7 106/4/7 105/4/7
f 102/4/8 103/4/8 107/4/8 106/4/8
f 103/4/9 104/4/9 108/4/9 107/4/9
f 104/4/10 101/4/10 105/4/10 108/4/10
f 109/1/1 110/1/1 111/1/1 112/1/1
f 113/1/2 114/1/2 115/1/2 116/1/2
f 109/1/3 112/1/3 114/1/3 113/1/3
f 111/1/4 110/1/4 116/1/4 115/1/4
f 109/1/5 113/1/5 116/1/5 110/1/5
f 112/1/6 111/1/6 115/1/6 114/1/6
f 117/1/1 118/1/1 119/1/1 120/1/1
f 121/1/2 122/1/2 123/1/2 124/1/2
f 117/1/3 120/1/3 122/1/3 121/1/3
f 119/1/4 118/1/4 124/1/4 123/1/4
f 117/1/5 121/1/5 124/1/5 118/1/5
f 120/1/6 119/1/6 123/1/6 122/1/6
f 125/1/1 126/1/1 127/1/1 128/1/1
f 129/1/2 130/1/2 131/1/2 132/1/2
f 125/1/3 128/1/3 130/1/3 129/1/3
f 127/1/4 126/1/4 132/1/4 131/1/4
f 125/1/5 129/1/5 132/1/5 126/1/5
f 128/1/6 127/1/6 131/1/6 130/1/6
f 133/1/1 134/1/1 135/1/1 136/1/1
f 137/1/2 138/1/2 139/1/2 140/1/2
f 133/1/3 136/1/3 138/1/3 137/1/3
f 135/1/4 134/1/4 140/1/4 139/1/4
f 133/1/5 137/1/5 140/1/5 134/1/5
f 136/1/6 135/1/6 139/1/6 138/1/6
f 141/1/1 142/1/1 143/1/1 144/1/1
f 145/1/2 146/1/2 147/1/2 148/1/2
f 141/1/3 144/1/3 146/1/3 145/1/3
f 143/1/4 142/1/4 148/1/4 147/1/4
f 141/1/5 145/1/5 148/1/5 142/1/5
f 144/1/6 143/1/6 147/1/6 146/1/6
f 149/2/1 150/2/1 151/2/1 152/2/1
f 153/2/2 154/2/2 155/2/2 156/2/2
f 149/2/3 152/2/3 154/2/3 153/2/3
f 151/2/4 150/2/4 156/2/4 155/2/4
f 149/2/5 153/2/5 156/2/5 150/2/5
f 152/2/6 151/2/6 155/2/6 154/2/6
f 157/2/2 158/2/2 159/2/2 160/2/2
f 153/2/7 154/2/7 158/2/7 157/2/7
f 154/2/8 155/2/8 159/2/8 158/2/8
f 155/2/9 156/2/9 160/2/9 159/2/9
f 156/2/10 153/2/10 157/2/10 160/2/10
f 161/5/1 162/5/1 163/5/1 164/5/1
f 165/5/2 166/5/2 167/5/2 168/5/2
f 161/5/3 164/5/3 166/5/3 165/5/3
f 163/5/4 162/5/4 168/5/4 167/5/4
f 161/5/5 165/5/5 168/5/5 162/5/5
f 164/5/6 163/5/6 167/5/6 166/5/6
f 169/5/2 170/5/2 171/5/2 172/5/2
f 165/5/7 166/5/7 170/5/7 169/5/7
f 166/5/8 167/5/8 171/5/8 170/5/8
f 167/5/9 168/5/9 172/5/9 171/5/9
f 168/5/10 165/5/10 169/5/10 172/5/10
f 173/4/1 174/4/1 175/4/1 176/4/1
f 177/4/2 178/4/2 179/4/2 180/4/2
f 173/4/3 176/4/3 178/4/3 177/4/3
f 175/4/4 174/4/4 180/4/4 179/4/4
f 173/4/5 177/4/5 180/4/5 174/4/5
f 176/4/6 175/4/6 179/4/6 178/4/6
f 181/4/2 182/4/2 183/4/2 184/4/2
f 177/4/7 178/4/7 182/4/7 181/4/7
f 178/4/8 179/4/8 183/4/8 182/4/8
f 179/4/9 180/4/9 184/4/9 183/4/9
f 180/4/10 177/4/10 181/4/10 184/4/10
f 185/1/1 186/1/1 187/1/1 188/1/1
f 189/1/2 190/1/2 191/1/2 192/1/2
f 185/1/3 188/1/3 190/1/3 189/1/3
f 187/1/4 186/1/4 192/1/4 191/1/4
f 185/1/5 189/1/5 192/1/5 186/1/5
f 188/1/6 187/1/6 191/1/6 190/1/6
f 193/1/1 194/1/1 195/1/1 196/1/1
f 197/1/2 198/1/2 199/1/2 200/1/2
f 193/1/3 196/1/3 198/1/3 197/1/3
f 195/1/4 194/1/4 200/1/4 199/1/4
f 193/1/5 197/1/5 200/1/5 194/1/5
f 196/1/6 195/1/6 199/1/6 198/1/6
f 201/1/1 202/1/1 203/1/1 204/1/1
f 205/1/2 206/1/2 207/1/2 208/1/2
f 201/1/3 204/1/3 206/1/3 205/1/3
f 203/1/4 202/1/4 208/1/4 207/1/4
f 201/1/5 205/1/5 208/1/5 202/1/5
f 204/1/6 203/1/6 207/1/6 206/1/6
f 209/1/1 210/1/1 211/1/1 212/1/1
f 213/1/2 214/1/2 215/1/2 216/1/2
f 209/1/3 212/1/3 214/1/3 213/1/3
f 211/1/4 210/1/4 216/1/4 215/1/4
f 209/1/5 213/1/5 216/1/5 210/1/5
f 212/1/6 211/1/6 215/1/6 214/1/6
f 217/1/1 218/1/1 219/1/1 220/1/1
f 221/1/2 222/1/2 223/1/2 224/1/2
f 217/1/3 220/1/3 222/1/3 221/1/3
f 219/1/4 218/1/4 224/1/4 223/1/4
f 217/1/5 221/1/5 224/1/5 218/1/5
f 220/1/6 219/1/6 223/1/6 222/1/6
f 225/1/1 226/1/1 227/1/1 228/1/1
f 229/1/2 230/1/2 231/1/2 232/1/2
f 225/1/3 228/1/3 230/1/3 229/1/3
f 227/1/4 226/1/4 232/1/4 231/1/4
f 225/1/5 229/1/5 232/1/5 226/1/5
f 228/1/6 227/1/6 231/1/6 230/1/6
f 233/1/1 234/1/1 235/1/1 236/1/1
f 237/1/2 238/1/2 239/1/2 240/1/2
f 233/1/3 236/1/3 238/1/3 237/1/3
f 235/1/4 234/1/4 240/1/4 239/1/4
f 233/1/5 237/1/5 240/1/5 234/1/5
f 236/1/6 235/1/6 239/1/6 238/1/6
f 241/1/1 242/1/1 243/1/1 244/1/1
f 245/1/2 246/1/2 247/1/2 248/1/2
f 241/1/3 244/1/3 246/1/3 245/1/3
f 243/1/4 242/1/4 248/1/4 247/1/4
f 241/1/5 245/1/5 248/1/5 242/1/5
f 244/1/6 243/1/6 247/1/6 246/1/6
f 249/1/1 250/1/1 251/1/1 252/1/1
f 253/1/2 254/1/2 255/1/2 256/1/2
f 249/1/3 252/1/3 254/1/3 253/1/3
f 251/1/4 250/1/4 256/1/4 255/1/4
f 249/1/5 253/1/5 256/1/5 250/1/5
f 252/1/6 251/1/6 255/1/6 254/1/6
f 257/1/1 258/1/1 259/1/1 260/1/1
f 261/1/2 262/1/2 263/1/2 264/1/2
f 257/1/3 260/1/3 262/1/3 261/1/3
f 259/1/4 258/1/4 264/1/4 263/1/4
f 257/1/5 261/1/5 264/1/5 258/1/5
f 260/1/6 259/1/6 263/1/6 262/1/6
