# Blender 5.2.0 LTS
# www.blender.org
mtllib FN_Board_Pin.mtl
o FN_Board_Pin
v -0.450000 0.000000 0.000000
v -0.450000 0.000000 -0.030000
v 0.450000 0.000000 -0.030000
v 0.450000 0.000000 0.000000
v -0.450000 0.030000 0.000000
v 0.450000 0.030000 0.000000
v 0.450000 0.030000 -0.030000
v -0.450000 0.030000 -0.030000
v -0.450000 0.620000 0.000000
v -0.450000 0.620000 -0.030000
v 0.450000 0.620000 -0.030000
v 0.450000 0.620000 0.000000
v -0.450000 0.650000 0.000000
v 0.450000 0.650000 0.000000
v 0.450000 0.650000 -0.030000
v -0.450000 0.650000 -0.030000
v -0.420000 0.000000 -0.030000
v -0.420000 0.000000 0.000000
v -0.420000 0.650000 0.000000
v -0.420000 0.650000 -0.030000
v 0.420000 0.000000 0.000000
v 0.420000 0.000000 -0.030000
v 0.420000 0.650000 0.000000
v 0.420000 0.650000 -0.030000
v -0.432000 0.018000 -0.006000
v -0.432000 0.018000 -0.022000
v 0.432000 0.018000 -0.022000
v 0.432000 0.018000 -0.006000
v -0.432000 0.632000 -0.006000
v 0.432000 0.632000 -0.006000
v 0.432000 0.632000 -0.022000
v -0.432000 0.632000 -0.022000
v -0.373261 0.493494 -0.018000
v -0.116462 0.534167 -0.018000
v -0.086739 0.346506 -0.018000
v -0.343538 0.305833 -0.018000
v -0.343538 0.305833 -0.026000
v -0.086739 0.346506 -0.026000
v -0.116462 0.534167 -0.026000
v -0.373261 0.493494 -0.026000
v 0.073181 0.559576 -0.018000
v 0.258312 0.516836 -0.018000
v 0.226819 0.380424 -0.018000
v 0.041688 0.423164 -0.018000
v 0.041688 0.423164 -0.026000
v 0.226819 0.380424 -0.026000
v 0.258312 0.516836 -0.026000
v 0.073181 0.559576 -0.026000
v 0.132240 0.288064 -0.018000
v 0.351035 0.311060 -0.018000
v 0.367760 0.151936 -0.018000
v 0.148965 0.128940 -0.018000
v 0.148965 0.128940 -0.026000
v 0.367760 0.151936 -0.026000
v 0.351035 0.311060 -0.026000
v 0.132240 0.288064 -0.026000
v -0.238495 0.298336 -0.018000
v -0.081435 0.267806 -0.018000
v -0.121505 0.061664 -0.018000
v -0.278565 0.092194 -0.018000
v -0.278565 0.092194 -0.026000
v -0.121505 0.061664 -0.026000
v -0.081435 0.267806 -0.026000
v -0.238495 0.298336 -0.026000
vn -0.0000 -1.0000 -0.0000
vn -0.0000 1.0000 -0.0000
vn -0.0000 -0.0000 1.0000
vn -0.0000 -0.0000 -1.0000
vn -1.0000 -0.0000 -0.0000
vn 1.0000 -0.0000 -0.0000
vn 0.1564 -0.9877 -0.0000
vn 0.9877 0.1564 -0.0000
vn -0.1564 0.9877 -0.0000
vn -0.9877 -0.1564 -0.0000
vn -0.2250 -0.9744 -0.0000
vn 0.9744 -0.2250 -0.0000
vn 0.2250 0.9744 -0.0000
vn -0.9744 0.2250 -0.0000
vn 0.1045 -0.9945 -0.0000
vn 0.9945 0.1045 -0.0000
vn -0.1045 0.9945 -0.0000
vn -0.9945 -0.1045 -0.0000
vn -0.1908 -0.9816 -0.0000
vn 0.9816 -0.1908 -0.0000
vn 0.1908 0.9816 -0.0000
vn -0.9816 0.1908 -0.0000
vt 0.437500 0.937500
vt 0.812500 0.187500
vt 0.062500 0.687500
vt 0.687500 0.562500
vt 0.937500 0.812500
vt 0.937500 0.562500
s 0
usemtl FN_Atlas
f 1/1/1 2/1/1 3/1/1 4/1/1
f 5/1/2 6/1/2 7/1/2 8/1/2
f 1/1/3 4/1/3 6/1/3 5/1/3
f 3/1/4 2/1/4 8/1/4 7/1/4
f 1/1/5 5/1/5 8/1/5 2/1/5
f 4/1/6 3/1/6 7/1/6 6/1/6
f 9/1/1 10/1/1 11/1/1 12/1/1
f 13/1/2 14/1/2 15/1/2 16/1/2
f 9/1/3 12/1/3 14/1/3 13/1/3
f 11/1/4 10/1/4 16/1/4 15/1/4
f 9/1/5 13/1/5 16/1/5 10/1/5
f 12/1/6 11/1/6 15/1/6 14/1/6
f 1/1/1 2/1/1 17/1/1 18/1/1
f 13/1/2 19/1/2 20/1/2 16/1/2
f 1/1/3 18/1/3 19/1/3 13/1/3
f 17/1/4 2/1/4 16/1/4 20/1/4
f 1/1/5 13/1/5 16/1/5 2/1/5
f 18/1/6 17/1/6 20/1/6 19/1/6
f 21/1/1 22/1/1 3/1/1 4/1/1
f 23/1/2 14/1/2 15/1/2 24/1/2
f 21/1/3 4/1/3 14/1/3 23/1/3
f 3/1/4 22/1/4 24/1/4 15/1/4
f 21/1/5 23/1/5 24/1/5 22/1/5
f 4/1/6 3/1/6 15/1/6 14/1/6
f 25/2/1 26/2/1 27/2/1 28/2/1
f 29/2/2 30/2/2 31/2/2 32/2/2
f 25/2/3 28/2/3 30/2/3 29/2/3
f 27/2/4 26/2/4 32/2/4 31/2/4
f 25/2/5 29/2/5 32/2/5 26/2/5
f 28/2/6 27/2/6 31/2/6 30/2/6
f 33/3/4 34/3/4 35/3/4 36/3/4
f 37/3/3 38/3/3 39/3/3 40/3/3
f 37/3/7 38/3/7 35/3/7 36/3/7
f 38/3/8 39/3/8 34/3/8 35/3/8
f 39/3/9 40/3/9 33/3/9 34/3/9
f 40/3/10 37/3/10 36/3/10 33/3/10
f 41/4/4 42/4/4 43/4/4 44/4/4
f 45/4/3 46/4/3 47/4/3 48/4/3
f 45/4/11 46/4/11 43/4/11 44/4/11
f 46/4/12 47/4/12 42/4/12 43/4/12
f 47/4/13 48/4/13 41/4/13 42/4/13
f 48/4/14 45/4/14 44/4/14 41/4/14
f 49/5/4 50/5/4 51/5/4 52/5/4
f 53/5/3 54/5/3 55/5/3 56/5/3
f 53/5/15 54/5/15 51/5/15 52/5/15
f 54/5/16 55/5/16 50/5/16 51/5/16
f 55/5/17 56/5/17 49/5/17 50/5/17
f 56/5/18 53/5/18 52/5/18 49/5/18
f 57/6/4 58/6/4 59/6/4 60/6/4
f 61/6/3 62/6/3 63/6/3 64/6/3
f 61/6/19 62/6/19 59/6/19 60/6/19
f 62/6/20 63/6/20 58/6/20 59/6/20
f 63/6/21 64/6/21 57/6/21 58/6/21
f 64/6/22 61/6/22 60/6/22 57/6/22
