# Blender 5.2.0 LTS
# www.blender.org
mtllib FN_Books_Stack.mtl
o FN_Books_Stack
v -0.115000 0.000000 -0.085000
v 0.115000 0.000000 -0.085000
v 0.115000 0.000000 0.085000
v -0.115000 0.000000 0.085000
v -0.115000 0.005000 0.085000
v 0.115000 0.005000 0.085000
v 0.115000 0.005000 -0.085000
v -0.115000 0.005000 -0.085000
v -0.115000 0.037000 -0.085000
v 0.115000 0.037000 -0.085000
v 0.115000 0.037000 0.085000
v -0.115000 0.037000 0.085000
v -0.115000 0.042000 0.085000
v 0.115000 0.042000 0.085000
v 0.115000 0.042000 -0.085000
v -0.115000 0.042000 -0.085000
v -0.106000 0.000000 -0.085000
v -0.106000 0.000000 0.085000
v -0.106000 0.042000 0.085000
v -0.106000 0.042000 -0.085000
v -0.105500 0.004000 -0.080000
v 0.115000 0.004000 -0.080000
v 0.115000 0.004000 0.080000
v -0.105500 0.004000 0.080000
v -0.105500 0.038000 0.080000
v 0.115000 0.038000 0.080000
v 0.115000 0.038000 -0.080000
v -0.105500 0.038000 -0.080000
v -0.115081 0.042000 -0.067478
v 0.095338 0.042000 -0.093314
v 0.115081 0.042000 0.067478
v -0.095338 0.042000 0.093314
v -0.095338 0.047000 0.093314
v 0.115081 0.047000 0.067478
v 0.095338 0.047000 -0.093314
v -0.115081 0.047000 -0.067478
v -0.115081 0.073000 -0.067478
v 0.095338 0.073000 -0.093314
v 0.115081 0.073000 0.067478
v -0.095338 0.073000 0.093314
v -0.095338 0.078000 0.093314
v 0.115081 0.078000 0.067478
v 0.095338 0.078000 -0.093314
v -0.115081 0.078000 -0.067478
v -0.106148 0.042000 -0.068575
v -0.086406 0.042000 0.092218
v -0.086406 0.078000 0.092218
v -0.106148 0.078000 -0.068575
v -0.105043 0.046000 -0.063673
v 0.095948 0.046000 -0.088352
v 0.114472 0.046000 0.062515
v -0.086519 0.046000 0.087194
v -0.086519 0.074000 0.087194
v 0.114472 0.074000 0.062515
v 0.095948 0.074000 -0.088352
v -0.105043 0.074000 -0.063673
v -0.103954 0.078000 -0.085385
v 0.117201 0.078000 -0.066037
v 0.103954 0.078000 0.085385
v -0.117201 0.078000 0.066037
v -0.117201 0.083000 0.066037
v 0.103954 0.083000 0.085385
v 0.117201 0.083000 -0.066037
v -0.103954 0.083000 -0.085385
v -0.103954 0.121000 -0.085385
v 0.117201 0.121000 -0.066037
v 0.103954 0.121000 0.085385
v -0.117201 0.121000 0.066037
v -0.117201 0.126000 0.066037
v 0.103954 0.126000 0.085385
v 0.117201 0.126000 -0.066037
v -0.103954 0.126000 -0.085385
v -0.094988 0.078000 -0.084601
v -0.108236 0.078000 0.066821
v -0.108236 0.126000 0.066821
v -0.094988 0.126000 -0.084601
v -0.094926 0.082000 -0.079576
v 0.116766 0.082000 -0.061056
v 0.104390 0.082000 0.080404
v -0.107302 0.082000 0.061884
v -0.107302 0.122000 0.061884
v 0.104390 0.122000 0.080404
v 0.116766 0.122000 -0.061056
v -0.094926 0.122000 -0.079576
v -0.109080 0.126000 -0.051445
v 0.078725 0.126000 -0.091364
v 0.109080 0.126000 0.051445
v -0.078725 0.126000 0.091364
v -0.078725 0.131000 0.091364
v 0.109080 0.131000 0.051445
v 0.078725 0.131000 -0.091364
v -0.109080 0.131000 -0.051445
v -0.109080 0.153000 -0.051445
v 0.078725 0.153000 -0.091364
v 0.109080 0.153000 0.051445
v -0.078725 0.153000 0.091364
v -0.078725 0.158000 0.091364
v 0.109080 0.158000 0.051445
v 0.078725 0.158000 -0.091364
v -0.109080 0.158000 -0.051445
v -0.100276 0.126000 -0.053316
v -0.069921 0.126000 0.089493
v -0.069921 0.158000 0.089493
v -0.100276 0.158000 -0.053316
v -0.098748 0.130000 -0.048530
v 0.079764 0.130000 -0.086474
v 0.108040 0.130000 0.046555
v -0.070472 0.130000 0.084498
v -0.070472 0.154000 0.084498
v 0.108040 0.154000 0.046555
v 0.079764 0.154000 -0.086474
v -0.098748 0.154000 -0.048530
vn -0.0000 -1.0000 -0.0000
vn -0.0000 1.0000 -0.0000
vn -0.0000 -0.0000 1.0000
vn 1.0000 -0.0000 -0.0000
vn -0.0000 -0.0000 -1.0000
vn -1.0000 -0.0000 -0.0000
vn 0.1219 -0.0000 0.9925
vn 0.9925 -0.0000 -0.1219
vn -0.1219 -0.0000 -0.9925
vn -0.9925 -0.0000 0.1219
vn -0.0872 -0.0000 0.9962
vn 0.9962 -0.0000 0.0872
vn 0.0872 -0.0000 -0.9962
vn -0.9962 -0.0000 -0.0872
vn 0.2079 -0.0000 0.9781
vn 0.9781 -0.0000 -0.2079
vn -0.2079 -0.0000 -0.9781
vn -0.9781 -0.0000 0.2079
vt 0.937500 0.687500
vt 0.062500 0.687500
vt 0.062500 0.562500
vt 0.687500 0.437500
vt 0.187500 0.562500
s 0
usemtl FN_Atlas
f 1/1/1 2/1/1 3/1/1 4/1/1
f 5/1/2 6/1/2 7/1/2 8/1/2
f 4/1/3 3/1/3 6/1/3 5/1/3
f 3/1/4 2/1/4 7/1/4 6/1/4
f 2/1/5 1/1/5 8/1/5 7/1/5
f 1/1/6 4/1/6 5/1/6 8/1/6
f 9/1/1 10/1/1 11/1/1 12/1/1
f 13/1/2 14/1/2 15/1/2 16/1/2
f 12/1/3 11/1/3 14/1/3 13/1/3
f 11/1/4 10/1/4 15/1/4 14/1/4
f 10/1/5 9/1/5 16/1/5 15/1/5
f 9/1/6 12/1/6 13/1/6 16/1/6
f 1/1/1 17/1/1 18/1/1 4/1/1
f 13/1/2 19/1/2 20/1/2 16/1/2
f 4/1/3 18/1/3 19/1/3 13/1/3
f 18/1/4 17/1/4 20/1/4 19/1/4
f 17/1/5 1/1/5 16/1/5 20/1/5
f 1/1/6 4/1/6 13/1/6 16/1/6
f 21/2/1 22/2/1 23/2/1 24/2/1
f 25/2/2 26/2/2 27/2/2 28/2/2
f 24/2/3 23/2/3 26/2/3 25/2/3
f 23/2/4 22/2/4 27/2/4 26/2/4
f 22/2/5 21/2/5 28/2/5 27/2/5
f 21/2/6 24/2/6 25/2/6 28/2/6
f 29/3/1 30/3/1 31/3/1 32/3/1
f 33/3/2 34/3/2 35/3/2 36/3/2
f 32/3/7 31/3/7 34/3/7 33/3/7
f 31/3/8 30/3/8 35/3/8 34/3/8
f 30/3/9 29/3/9 36/3/9 35/3/9
f 29/3/10 32/3/10 33/3/10 36/3/10
f 37/3/1 38/3/1 39/3/1 40/3/1
f 41/3/2 42/3/2 43/3/2 44/3/2
f 40/3/7 39/3/7 42/3/7 41/3/7
f 39/3/8 38/3/8 43/3/8 42/3/8
f 38/3/9 37/3/9 44/3/9 43/3/9
f 37/3/10 40/3/10 41/3/10 44/3/10
f 29/3/1 45/3/1 46/3/1 32/3/1
f 41/3/2 47/3/2 48/3/2 44/3/2
f 32/3/7 46/3/7 47/3/7 41/3/7
f 46/3/8 45/3/8 48/3/8 47/3/8
f 45/3/9 29/3/9 44/3/9 48/3/9
f 29/3/10 32/3/10 41/3/10 44/3/10
f 49/2/1 50/2/1 51/2/1 52/2/1
f 53/2/2 54/2/2 55/2/2 56/2/2
f 52/2/7 51/2/7 54/2/7 53/2/7
f 51/2/8 50/2/8 55/2/8 54/2/8
f 50/2/9 49/2/9 56/2/9 55/2/9
f 49/2/10 52/2/10 53/2/10 56/2/10
f 57/4/1 58/4/1 59/4/1 60/4/1
f 61/4/2 62/4/2 63/4/2 64/4/2
f 60/4/11 59/4/11 62/4/11 61/4/11
f 59/4/12 58/4/12 63/4/12 62/4/12
f 58/4/13 57/4/13 64/4/13 63/4/13
f 57/4/14 60/4/14 61/4/14 64/4/14
f 65/4/1 66/4/1 67/4/1 68/4/1
f 69/4/2 70/4/2 71/4/2 72/4/2
f 68/4/11 67/4/11 70/4/11 69/4/11
f 67/4/12 66/4/12 71/4/12 70/4/12
f 66/4/13 65/4/13 72/4/13 71/4/13
f 65/4/14 68/4/14 69/4/14 72/4/14
f 57/4/1 73/4/1 74/4/1 60/4/1
f 69/4/2 75/4/2 76/4/2 72/4/2
f 60/4/11 74/4/11 75/4/11 69/4/11
f 74/4/12 73/4/12 76/4/12 75/4/12
f 73/4/13 57/4/13 72/4/13 76/4/13
f 57/4/14 60/4/14 69/4/14 72/4/14
f 77/2/1 78/2/1 79/2/1 80/2/1
f 81/2/2 82/2/2 83/2/2 84/2/2
f 80/2/11 79/2/11 82/2/11 81/2/11
f 79/2/12 78/2/12 83/2/12 82/2/12
f 78/2/13 77/2/13 84/2/13 83/2/13
f 77/2/14 80/2/14 81/2/14 84/2/14
f 85/5/1 86/5/1 87/5/1 88/5/1
f 89/5/2 90/5/2 91/5/2 92/5/2
f 88/5/15 87/5/15 90/5/15 89/5/15
f 87/5/16 86/5/16 91/5/16 90/5/16
f 86/5/17 85/5/17 92/5/17 91/5/17
f 85/5/18 88/5/18 89/5/18 92/5/18
f 93/5/1 94/5/1 95/5/1 96/5/1
f 97/5/2 98/5/2 99/5/2 100/5/2
f 96/5/15 95/5/15 98/5/15 97/5/15
f 95/5/16 94/5/16 99/5/16 98/5/16
f 94/5/17 93/5/17 100/5/17 99/5/17
f 93/5/18 96/5/18 97/5/18 100/5/18
f 85/5/1 101/5/1 102/5/1 88/5/1
f 97/5/2 103/5/2 104/5/2 100/5/2
f 88/5/15 102/5/15 103/5/15 97/5/15
f 102/5/16 101/5/16 104/5/16 103/5/16
f 101/5/17 85/5/17 100/5/17 104/5/17
f 85/5/18 88/5/18 97/5/18 100/5/18
f 105/2/1 106/2/1 107/2/1 108/2/1
f 109/2/2 110/2/2 111/2/2 112/2/2
f 108/2/15 107/2/15 110/2/15 109/2/15
f 107/2/16 106/2/16 111/2/16 110/2/16
f 106/2/17 105/2/17 112/2/17 111/2/17
f 105/2/18 108/2/18 109/2/18 112/2/18
