# Blender 5.2.0 LTS
# www.blender.org
mtllib FN_Basin_Pedestal.mtl
o FN_Basin_Pedestal
v -0.065000 0.000000 0.120000
v -0.090000 0.000000 0.113301
v -0.108301 0.000000 0.095000
v -0.115000 0.000000 0.070000
v -0.115000 0.000000 -0.070000
v -0.108301 0.000000 -0.095000
v -0.090000 0.000000 -0.113301
v -0.065000 0.000000 -0.120000
v 0.065000 0.000000 -0.120000
v 0.090000 0.000000 -0.113301
v 0.108301 0.000000 -0.095000
v 0.115000 0.000000 -0.070000
v 0.115000 0.000000 0.070000
v 0.108301 0.000000 0.095000
v 0.090000 0.000000 0.113301
v 0.065000 0.000000 0.120000
v 0.066000 0.084000 0.087105
v 0.044000 0.084000 0.093000
v 0.082105 0.084000 0.071000
v 0.088000 0.084000 0.049000
v 0.088000 0.084000 -0.049000
v 0.082105 0.084000 -0.071000
v 0.066000 0.084000 -0.087105
v 0.044000 0.084000 -0.093000
v -0.044000 0.084000 -0.093000
v -0.066000 0.084000 -0.087105
v -0.082105 0.084000 -0.071000
v -0.088000 0.084000 -0.049000
v -0.088000 0.084000 0.049000
v -0.082105 0.084000 0.071000
v -0.066000 0.084000 0.087105
v -0.044000 0.084000 0.093000
v 0.056000 0.400000 0.077641
v 0.036000 0.400000 0.083000
v 0.070641 0.400000 0.063000
v 0.076000 0.400000 0.043000
v 0.076000 0.400000 -0.043000
v 0.070641 0.400000 -0.063000
v 0.056000 0.400000 -0.077641
v 0.036000 0.400000 -0.083000
v -0.036000 0.400000 -0.083000
v -0.056000 0.400000 -0.077641
v -0.070641 0.400000 -0.063000
v -0.076000 0.400000 -0.043000
v -0.076000 0.400000 0.043000
v -0.070641 0.400000 0.063000
v -0.056000 0.400000 0.077641
v -0.036000 0.400000 0.083000
v 0.092000 0.648000 0.116497
v 0.064000 0.648000 0.124000
v 0.112497 0.648000 0.096000
v 0.120000 0.648000 0.068000
v 0.120000 0.648000 -0.068000
v 0.112497 0.648000 -0.096000
v 0.092000 0.648000 -0.116497
v 0.064000 0.648000 -0.124000
v -0.064000 0.648000 -0.124000
v -0.092000 0.648000 -0.116497
v -0.112497 0.648000 -0.096000
v -0.120000 0.648000 -0.068000
v -0.120000 0.648000 0.068000
v -0.112497 0.648000 0.096000
v -0.092000 0.648000 0.116497
v -0.064000 0.648000 0.124000
v 0.064000 0.628000 0.124000
v 0.092000 0.628000 0.116497
v 0.176000 0.762000 0.181263
v 0.121000 0.762000 0.196000
v 0.112497 0.628000 0.096000
v 0.216263 0.762000 0.141000
v 0.120000 0.628000 0.068000
v 0.231000 0.762000 0.086000
v 0.120000 0.628000 -0.068000
v 0.231000 0.762000 -0.066000
v 0.112497 0.628000 -0.096000
v 0.216263 0.762000 -0.121000
v 0.092000 0.628000 -0.116497
v 0.176000 0.762000 -0.161263
v 0.064000 0.628000 -0.124000
v 0.121000 0.762000 -0.176000
v -0.064000 0.628000 -0.124000
v -0.121000 0.762000 -0.176000
v -0.092000 0.628000 -0.116497
v -0.176000 0.762000 -0.161263
v -0.112497 0.628000 -0.096000
v -0.216263 0.762000 -0.121000
v -0.120000 0.628000 -0.068000
v -0.231000 0.762000 -0.066000
v -0.120000 0.628000 0.068000
v -0.231000 0.762000 0.086000
v -0.112497 0.628000 0.096000
v -0.216263 0.762000 0.141000
v -0.092000 0.628000 0.116497
v -0.176000 0.762000 0.181263
v -0.064000 0.628000 0.124000
v -0.121000 0.762000 0.196000
v 0.215000 0.850000 0.202583
v 0.150000 0.850000 0.220000
v 0.262583 0.850000 0.155000
v 0.280000 0.850000 0.090000
v 0.280000 0.850000 -0.090000
v 0.262583 0.850000 -0.155000
v 0.215000 0.850000 -0.202583
v 0.150000 0.850000 -0.220000
v -0.150000 0.850000 -0.220000
v -0.215000 0.850000 -0.202583
v -0.262583 0.850000 -0.155000
v -0.280000 0.850000 -0.090000
v -0.280000 0.850000 0.090000
v -0.262583 0.850000 0.155000
v -0.215000 0.850000 0.202583
v -0.150000 0.850000 0.220000
v 0.152000 0.850000 0.156138
v 0.104000 0.850000 0.169000
v 0.187138 0.850000 0.121000
v 0.200000 0.850000 0.073000
v 0.200000 0.850000 -0.021000
v 0.187138 0.850000 -0.069000
v 0.152000 0.850000 -0.104138
v 0.104000 0.850000 -0.117000
v -0.104000 0.850000 -0.117000
v -0.152000 0.850000 -0.104138
v -0.187138 0.850000 -0.069000
v -0.200000 0.850000 -0.021000
v -0.200000 0.850000 0.073000
v -0.187138 0.850000 0.121000
v -0.152000 0.850000 0.156138
v -0.104000 0.850000 0.169000
v 0.108000 0.762000 0.114622
v 0.073000 0.762000 0.124000
v 0.133622 0.762000 0.089000
v 0.143000 0.762000 0.054000
v 0.143000 0.762000 -0.002000
v 0.133622 0.762000 -0.037000
v 0.108000 0.762000 -0.062622
v 0.073000 0.762000 -0.072000
v -0.073000 0.762000 -0.072000
v -0.108000 0.762000 -0.062622
v -0.133622 0.762000 -0.037000
v -0.143000 0.762000 -0.002000
v -0.143000 0.762000 0.054000
v -0.133622 0.762000 0.089000
v -0.108000 0.762000 0.114622
v -0.073000 0.762000 0.124000
v 0.026000 0.766000 0.026000
v 0.018385 0.766000 0.007615
v 0.000000 0.766000 0.000000
v -0.018385 0.766000 0.007615
v -0.026000 0.766000 0.026000
v -0.018385 0.766000 0.044385
v -0.000000 0.766000 0.052000
v 0.018385 0.766000 0.044385
v 0.026000 0.762000 0.026000
v 0.018385 0.762000 0.007615
v 0.000000 0.762000 0.000000
v -0.018385 0.762000 0.007615
v -0.026000 0.762000 0.026000
v -0.018385 0.762000 0.044385
v -0.000000 0.762000 0.052000
v 0.018385 0.762000 0.044385
v -0.130000 0.840000 -0.126000
v -0.130000 0.840000 -0.196000
v 0.130000 0.840000 -0.196000
v 0.130000 0.840000 -0.126000
v -0.130000 0.880000 -0.126000
v 0.130000 0.880000 -0.126000
v 0.130000 0.880000 -0.196000
v -0.130000 0.880000 -0.196000
v -0.014142 0.864000 -0.172142
v 0.000000 0.864000 -0.178000
v 0.014142 0.864000 -0.172142
v 0.020000 0.864000 -0.158000
v 0.014142 0.864000 -0.143858
v -0.000000 0.864000 -0.138000
v -0.014142 0.864000 -0.143858
v -0.020000 0.864000 -0.158000
v -0.020000 0.960000 -0.158000
v -0.014142 0.960000 -0.143858
v -0.000000 0.960000 -0.138000
v 0.014142 0.960000 -0.143858
v 0.020000 0.960000 -0.158000
v 0.014142 0.960000 -0.172142
v 0.000000 0.960000 -0.178000
v -0.014142 0.960000 -0.172142
v -0.012021 0.966021 -0.158000
v 0.000000 0.971000 -0.158000
v 0.012021 0.966021 -0.158000
v 0.017000 0.954000 -0.158000
v 0.012021 0.941979 -0.158000
v -0.000000 0.937000 -0.158000
v -0.012021 0.941979 -0.158000
v -0.017000 0.954000 -0.158000
v -0.017000 0.954000 -0.010000
v -0.012021 0.941979 -0.010000
v -0.000000 0.937000 -0.010000
v 0.012021 0.941979 -0.010000
v 0.017000 0.954000 -0.010000
v 0.012021 0.966021 -0.010000
v 0.000000 0.971000 -0.010000
v -0.012021 0.966021 -0.010000
v 0.009899 0.966000 -0.023899
v -0.000000 0.966000 -0.028000
v -0.009899 0.966000 -0.023899
v -0.014000 0.966000 -0.014000
v -0.009899 0.966000 -0.004101
v 0.000000 0.966000 0.000000
v 0.009899 0.966000 -0.004101
v 0.014000 0.966000 -0.014000
v 0.014000 0.894000 -0.014000
v 0.009899 0.894000 -0.004101
v 0.000000 0.894000 0.000000
v -0.009899 0.894000 -0.004101
v -0.014000 0.894000 -0.014000
v -0.009899 0.894000 -0.023899
v -0.000000 0.894000 -0.028000
v 0.009899 0.894000 -0.023899
v -0.094500 0.862000 -0.174722
v -0.077500 0.862000 -0.174722
v -0.069000 0.862000 -0.160000
v -0.077500 0.862000 -0.145278
v -0.094500 0.862000 -0.145278
v -0.103000 0.862000 -0.160000
v -0.103000 0.902000 -0.160000
v -0.094500 0.902000 -0.145278
v -0.077500 0.902000 -0.145278
v -0.069000 0.902000 -0.160000
v -0.077500 0.902000 -0.174722
v -0.094500 0.902000 -0.174722
v -0.120000 0.898000 -0.146000
v -0.120000 0.898000 -0.174000
v -0.052000 0.898000 -0.174000
v -0.052000 0.898000 -0.146000
v -0.120000 0.912000 -0.146000
v -0.052000 0.912000 -0.146000
v -0.052000 0.912000 -0.174000
v -0.120000 0.912000 -0.174000
v 0.077500 0.862000 -0.174722
v 0.094500 0.862000 -0.174722
v 0.103000 0.862000 -0.160000
v 0.094500 0.862000 -0.145278
v 0.077500 0.862000 -0.145278
v 0.069000 0.862000 -0.160000
v 0.069000 0.902000 -0.160000
v 0.077500 0.902000 -0.145278
v 0.094500 0.902000 -0.145278
v 0.103000 0.902000 -0.160000
v 0.094500 0.902000 -0.174722
v 0.077500 0.902000 -0.174722
v 0.052000 0.898000 -0.146000
v 0.052000 0.898000 -0.174000
v 0.120000 0.898000 -0.174000
v 0.120000 0.898000 -0.146000
v 0.052000 0.912000 -0.146000
v 0.120000 0.912000 -0.146000
v 0.120000 0.912000 -0.174000
v 0.052000 0.912000 -0.174000
vn -0.0000 -1.0000 -0.0000
vn 0.2423 0.3513 0.9044
vn 0.6513 0.3892 0.6513
vn 0.9044 0.3513 0.2423
vn 0.9520 0.3060 -0.0000
vn 0.9044 0.3513 -0.2423
vn 0.6513 0.3892 -0.6513
vn 0.2423 0.3513 -0.9044
vn -0.0000 0.3060 -0.9520
vn -0.2423 0.3513 -0.9044
vn -0.6513 0.3892 -0.6513
vn -0.9044 0.3513 -0.2423
vn -0.9520 0.3060 -0.0000
vn -0.9044 0.3513 0.2423
vn -0.6513 0.3892 0.6513
vn -0.2423 0.3513 0.9044
vn -0.0000 0.3060 0.9520
vn 0.2586 0.0371 0.9653
vn 0.7064 0.0435 0.7064
vn 0.9651 0.0416 0.2586
vn 0.9993 0.0379 -0.0000
vn 0.9651 0.0416 -0.2586
vn 0.7064 0.0435 -0.7064
vn 0.2586 0.0371 -0.9653
vn -0.0000 0.0316 -0.9995
vn -0.2586 0.0371 -0.9653
vn -0.7064 0.0435 -0.7064
vn -0.9651 0.0416 -0.2586
vn -0.9993 0.0379 -0.0000
vn -0.9651 0.0416 0.2586
vn -0.7064 0.0435 0.7064
vn -0.2586 0.0371 0.9653
vn -0.0000 0.0316 0.9995
vn 0.2543 -0.1856 0.9491
vn 0.6915 -0.2087 0.6915
vn 0.9476 -0.1937 0.2539
vn 0.9846 -0.1747 -0.0000
vn 0.9476 -0.1937 -0.2539
vn 0.6915 -0.2087 -0.6915
vn 0.2543 -0.1856 -0.9491
vn -0.0000 -0.1631 -0.9866
vn -0.2543 -0.1856 -0.9491
vn -0.6915 -0.2087 -0.6915
vn -0.9476 -0.1937 -0.2539
vn -0.9846 -0.1747 -0.0000
vn -0.9476 -0.1937 0.2539
vn -0.6915 -0.2087 0.6915
vn -0.2543 -0.1856 0.9491
vn -0.0000 -0.1631 0.9866
vn 0.2191 -0.5325 0.8176
vn 0.5562 -0.6175 0.5562
vn 0.7415 -0.6409 0.1987
vn 0.7701 -0.6379 -0.0000
vn 0.7556 -0.6229 -0.2025
vn 0.5849 -0.5620 -0.5849
vn 0.2329 -0.4363 -0.8691
vn -0.0000 -0.3618 -0.9323
vn -0.2329 -0.4363 -0.8691
vn -0.5849 -0.5620 -0.5849
vn -0.7556 -0.6229 -0.2025
vn -0.7701 -0.6379 -0.0000
vn -0.7415 -0.6409 0.1987
vn -0.5562 -0.6175 0.5562
vn -0.2191 -0.5325 0.8176
vn -0.0000 -0.4733 0.8809
vn 0.2444 -0.3293 0.9121
vn 0.6363 -0.4362 0.6363
vn 0.8465 -0.4817 0.2268
vn 0.8737 -0.4865 -0.0000
vn 0.8252 -0.5198 -0.2211
vn 0.5941 -0.5423 -0.5941
vn 0.2250 -0.4941 -0.8398
vn -0.0000 -0.4472 -0.8944
vn -0.2250 -0.4941 -0.8398
vn -0.5941 -0.5423 -0.5941
vn -0.8252 -0.5198 -0.2211
vn -0.8737 -0.4865 -0.0000
vn -0.8465 -0.4817 0.2268
vn -0.6363 -0.4362 0.6363
vn -0.2444 -0.3293 0.9121
vn -0.0000 -0.2631 0.9648
vn -0.0000 1.0000 -0.0000
vn -0.2234 0.5050 -0.8337
vn -0.5828 0.5663 -0.5828
vn -0.7982 0.5632 -0.2139
vn -0.8393 0.5436 -0.0000
vn -0.7982 0.5632 0.2139
vn -0.5828 0.5663 0.5828
vn -0.2234 0.5050 0.8337
vn -0.0000 0.4553 0.8903
vn 0.2234 0.5050 0.8337
vn 0.5828 0.5663 0.5828
vn 0.7982 0.5632 0.2139
vn 0.8393 0.5436 -0.0000
vn 0.7982 0.5632 -0.2139
vn 0.5828 0.5663 -0.5828
vn 0.2234 0.5050 -0.8337
vn -0.0000 0.4553 -0.8903
vn 0.9239 -0.0000 -0.3827
vn 0.3827 -0.0000 -0.9239
vn -0.3827 -0.0000 -0.9239
vn -0.9239 -0.0000 -0.3827
vn -0.9239 -0.0000 0.3827
vn -0.3827 -0.0000 0.9239
vn 0.3827 -0.0000 0.9239
vn 0.9239 -0.0000 0.3827
vn -0.0000 -0.0000 1.0000
vn -0.0000 -0.0000 -1.0000
vn -1.0000 -0.0000 -0.0000
vn 1.0000 -0.0000 -0.0000
vn -0.9239 -0.3827 -0.0000
vn -0.3827 -0.9239 -0.0000
vn 0.3827 -0.9239 -0.0000
vn 0.9239 -0.3827 -0.0000
vn 0.9239 0.3827 -0.0000
vn 0.3827 0.9239 -0.0000
vn -0.3827 0.9239 -0.0000
vn -0.9239 0.3827 -0.0000
vn -0.8660 -0.0000 0.5000
vn 0.8660 -0.0000 0.5000
vn 0.8660 -0.0000 -0.5000
vn -0.8660 -0.0000 -0.5000
vt 0.437500 0.812500
vt 0.562500 0.812500
vt 0.187500 0.312500
vt 0.937500 0.312500
s 0
usemtl FN_Atlas
f 1/1/1 2/1/1 3/1/1 4/1/1 5/1/1 6/1/1 7/1/1 8/1/1 9/1/1 10/1/1 11/1/1 12/1/1 13/1/1 14/1/1 15/1/1 16/1/1
f 16/1/2 15/1/2 17/1/2 18/1/2
f 15/1/3 14/1/3 19/1/3 17/1/3
f 14/1/4 13/1/4 20/1/4 19/1/4
f 13/1/5 12/1/5 21/1/5 20/1/5
f 12/1/6 11/1/6 22/1/6 21/1/6
f 11/1/7 10/1/7 23/1/7 22/1/7
f 10/1/8 9/1/8 24/1/8 23/1/8
f 9/1/9 8/1/9 25/1/9 24/1/9
f 8/1/10 7/1/10 26/1/10 25/1/10
f 7/1/11 6/1/11 27/1/11 26/1/11
f 6/1/12 5/1/12 28/1/12 27/1/12
f 5/1/13 4/1/13 29/1/13 28/1/13
f 4/1/14 3/1/14 30/1/14 29/1/14
f 3/1/15 2/1/15 31/1/15 30/1/15
f 2/1/16 1/1/16 32/1/16 31/1/16
f 1/1/17 16/1/17 18/1/17 32/1/17
f 18/1/18 17/1/18 33/1/18 34/1/18
f 17/1/19 19/1/19 35/1/19 33/1/19
f 19/1/20 20/1/20 36/1/20 35/1/20
f 20/1/21 21/1/21 37/1/21 36/1/21
f 21/1/22 22/1/22 38/1/22 37/1/22
f 22/1/23 23/1/23 39/1/23 38/1/23
f 23/1/24 24/1/24 40/1/24 39/1/24
f 24/1/25 25/1/25 41/1/25 40/1/25
f 25/1/26 26/1/26 42/1/26 41/1/26
f 26/1/27 27/1/27 43/1/27 42/1/27
f 27/1/28 28/1/28 44/1/28 43/1/28
f 28/1/29 29/1/29 45/1/29 44/1/29
f 29/1/30 30/1/30 46/1/30 45/1/30
f 30/1/31 31/1/31 47/1/31 46/1/31
f 31/1/32 32/1/32 48/1/32 47/1/32
f 32/1/33 18/1/33 34/1/33 48/1/33
f 34/1/34 33/1/34 49/1/34 50/1/34
f 33/1/35 35/1/35 51/1/35 49/1/35
f 35/1/36 36/1/36 52/1/36 51/1/36
f 36/1/37 37/1/37 53/1/37 52/1/37
f 37/1/38 38/1/38 54/1/38 53/1/38
f 38/1/39 39/1/39 55/1/39 54/1/39
f 39/1/40 40/1/40 56/1/40 55/1/40
f 40/1/41 41/1/41 57/1/41 56/1/41
f 41/1/42 42/1/42 58/1/42 57/1/42
f 42/1/43 43/1/43 59/1/43 58/1/43
f 43/1/44 44/1/44 60/1/44 59/1/44
f 44/1/45 45/1/45 61/1/45 60/1/45
f 45/1/46 46/1/46 62/1/46 61/1/46
f 46/1/47 47/1/47 63/1/47 62/1/47
f 47/1/48 48/1/48 64/1/48 63/1/48
f 48/1/49 34/1/49 50/1/49 64/1/49
f 65/1/50 66/1/50 67/1/50 68/1/50
f 66/1/51 69/1/51 70/1/51 67/1/51
f 69/1/52 71/1/52 72/1/52 70/1/52
f 71/1/53 73/1/53 74/1/53 72/1/53
f 73/1/54 75/1/54 76/1/54 74/1/54
f 75/1/55 77/1/55 78/1/55 76/1/55
f 77/1/56 79/1/56 80/1/56 78/1/56
f 79/1/57 81/1/57 82/1/57 80/1/57
f 81/1/58 83/1/58 84/1/58 82/1/58
f 83/1/59 85/1/59 86/1/59 84/1/59
f 85/1/60 87/1/60 88/1/60 86/1/60
f 87/1/61 89/1/61 90/1/61 88/1/61
f 89/1/62 91/1/62 92/1/62 90/1/62
f 91/1/63 93/1/63 94/1/63 92/1/63
f 93/1/64 95/1/64 96/1/64 94/1/64
f 95/1/65 65/1/65 68/1/65 96/1/65
f 68/1/66 67/1/66 97/1/66 98/1/66
f 67/1/67 70/1/67 99/1/67 97/1/67
f 70/1/68 72/1/68 100/1/68 99/1/68
f 72/1/69 74/1/69 101/1/69 100/1/69
f 74/1/70 76/1/70 102/1/70 101/1/70
f 76/1/71 78/1/71 103/1/71 102/1/71
f 78/1/72 80/1/72 104/1/72 103/1/72
f 80/1/73 82/1/73 105/1/73 104/1/73
f 82/1/74 84/1/74 106/1/74 105/1/74
f 84/1/75 86/1/75 107/1/75 106/1/75
f 86/1/76 88/1/76 108/1/76 107/1/76
f 88/1/77 90/1/77 109/1/77 108/1/77
f 90/1/78 92/1/78 110/1/78 109/1/78
f 92/1/79 94/1/79 111/1/79 110/1/79
f 94/1/80 96/1/80 112/1/80 111/1/80
f 96/1/81 68/1/81 98/1/81 112/1/81
f 98/1/82 97/1/82 113/1/82 114/1/82
f 97/1/82 99/1/82 115/1/82 113/1/82
f 99/1/82 100/1/82 116/1/82 115/1/82
f 100/1/82 101/1/82 117/1/82 116/1/82
f 101/1/82 102/1/82 118/1/82 117/1/82
f 102/1/82 103/1/82 119/1/82 118/1/82
f 103/1/82 104/1/82 120/1/82 119/1/82
f 104/1/82 105/1/82 121/1/82 120/1/82
f 105/1/82 106/1/82 122/1/82 121/1/82
f 106/1/82 107/1/82 123/1/82 122/1/82
f 107/1/82 108/1/82 124/1/82 123/1/82
f 108/1/82 109/1/82 125/1/82 124/1/82
f 109/1/82 110/1/82 126/1/82 125/1/82
f 110/1/82 111/1/82 127/1/82 126/1/82
f 111/1/82 112/1/82 128/1/82 127/1/82
f 112/1/82 98/1/82 114/1/82 128/1/82
f 114/2/83 113/2/83 129/2/83 130/2/83
f 113/2/84 115/2/84 131/2/84 129/2/84
f 115/2/85 116/2/85 132/2/85 131/2/85
f 116/2/86 117/2/86 133/2/86 132/2/86
f 117/2/87 118/2/87 134/2/87 133/2/87
f 118/2/88 119/2/88 135/2/88 134/2/88
f 119/2/89 120/2/89 136/2/89 135/2/89
f 120/2/90 121/2/90 137/2/90 136/2/90
f 121/2/91 122/2/91 138/2/91 137/2/91
f 122/2/92 123/2/92 139/2/92 138/2/92
f 123/2/93 124/2/93 140/2/93 139/2/93
f 124/2/94 125/2/94 141/2/94 140/2/94
f 125/2/95 126/2/95 142/2/95 141/2/95
f 126/2/96 127/2/96 143/2/96 142/2/96
f 127/2/97 128/2/97 144/2/97 143/2/97
f 128/2/98 114/2/98 130/2/98 144/2/98
f 130/2/82 129/2/82 131/2/82 132/2/82 133/2/82 134/2/82 135/2/82 136/2/82 137/2/82 138/2/82 139/2/82 140/2/82 141/2/82 142/2/82 143/2/82 144/2/82
f 145/3/82 146/3/82 147/3/82 148/3/82 149/3/82 150/3/82 151/3/82 152/3/82
f 153/3/99 154/3/99 146/3/99 145/3/99
f 154/3/100 155/3/100 147/3/100 146/3/100
f 155/3/101 156/3/101 148/3/101 147/3/101
f 156/3/102 157/3/102 149/3/102 148/3/102
f 157/3/103 158/3/103 150/3/103 149/3/103
f 158/3/104 159/3/104 151/3/104 150/3/104
f 159/3/105 160/3/105 152/3/105 151/3/105
f 160/3/106 153/3/106 145/3/106 152/3/106
f 161/1/1 162/1/1 163/1/1 164/1/1
f 165/1/82 166/1/82 167/1/82 168/1/82
f 161/1/107 164/1/107 166/1/107 165/1/107
f 163/1/108 162/1/108 168/1/108 167/1/108
f 161/1/109 165/1/109 168/1/109 162/1/109
f 164/1/110 163/1/110 167/1/110 166/1/110
f 169/4/1 170/4/1 171/4/1 172/4/1 173/4/1 174/4/1 175/4/1 176/4/1
f 177/4/82 178/4/82 179/4/82 180/4/82 181/4/82 182/4/82 183/4/82 184/4/82
f 176/4/103 175/4/103 178/4/103 177/4/103
f 175/4/104 174/4/104 179/4/104 178/4/104
f 174/4/105 173/4/105 180/4/105 179/4/105
f 173/4/106 172/4/106 181/4/106 180/4/106
f 172/4/99 171/4/99 182/4/99 181/4/99
f 171/4/100 170/4/100 183/4/100 182/4/100
f 170/4/101 169/4/101 184/4/101 183/4/101
f 169/4/102 176/4/102 177/4/102 184/4/102
f 185/4/108 186/4/108 187/4/108 188/4/108 189/4/108 190/4/108 191/4/108 192/4/108
f 193/4/107 194/4/107 195/4/107 196/4/107 197/4/107 198/4/107 199/4/107 200/4/107
f 192/4/111 191/4/111 194/4/111 193/4/111
f 191/4/112 190/4/112 195/4/112 194/4/112
f 190/4/113 189/4/113 196/4/113 195/4/113
f 189/4/114 188/4/114 197/4/114 196/4/114
f 188/4/115 187/4/115 198/4/115 197/4/115
f 187/4/116 186/4/116 199/4/116 198/4/116
f 186/4/117 185/4/117 200/4/117 199/4/117
f 185/4/118 192/4/118 193/4/118 200/4/118
f 201/4/82 202/4/82 203/4/82 204/4/82 205/4/82 206/4/82 207/4/82 208/4/82
f 209/4/1 210/4/1 211/4/1 212/4/1 213/4/1 214/4/1 215/4/1 216/4/1
f 208/4/106 207/4/106 210/4/106 209/4/106
f 207/4/105 206/4/105 211/4/105 210/4/105
f 206/4/104 205/4/104 212/4/104 211/4/104
f 205/4/103 204/4/103 213/4/103 212/4/103
f 204/4/102 203/4/102 214/4/102 213/4/102
f 203/4/101 202/4/101 215/4/101 214/4/101
f 202/4/100 201/4/100 216/4/100 215/4/100
f 201/4/99 208/4/99 209/4/99 216/4/99
f 217/4/1 218/4/1 219/4/1 220/4/1 221/4/1 222/4/1
f 223/4/82 224/4/82 225/4/82 226/4/82 227/4/82 228/4/82
f 222/4/119 221/4/119 224/4/119 223/4/119
f 221/4/107 220/4/107 225/4/107 224/4/107
f 220/4/120 219/4/120 226/4/120 225/4/120
f 219/4/121 218/4/121 227/4/121 226/4/121
f 218/4/108 217/4/108 228/4/108 227/4/108
f 217/4/122 222/4/122 223/4/122 228/4/122
f 229/4/1 230/4/1 231/4/1 232/4/1
f 233/4/82 234/4/82 235/4/82 236/4/82
f 229/4/107 232/4/107 234/4/107 233/4/107
f 231/4/108 230/4/108 236/4/108 235/4/108
f 229/4/109 233/4/109 236/4/109 230/4/109
f 232/4/110 231/4/110 235/4/110 234/4/110
f 237/4/1 238/4/1 239/4/1 240/4/1 241/4/1 242/4/1
f 243/4/82 244/4/82 245/4/82 246/4/82 247/4/82 248/4/82
f 242/4/119 241/4/119 244/4/119 243/4/119
f 241/4/107 240/4/107 245/4/107 244/4/107
f 240/4/120 239/4/120 246/4/120 245/4/120
f 239/4/121 238/4/121 247/4/121 246/4/121
f 238/4/108 237/4/108 248/4/108 247/4/108
f 237/4/122 242/4/122 243/4/122 248/4/122
f 249/4/1 250/4/1 251/4/1 252/4/1
f 253/4/82 254/4/82 255/4/82 256/4/82
f 249/4/107 252/4/107 254/4/107 253/4/107
f 251/4/108 250/4/108 256/4/108 255/4/108
f 249/4/109 253/4/109 256/4/109 250/4/109
f 252/4/110 251/4/110 255/4/110 254/4/110
