# Blender 5.2.0 LTS
# www.blender.org
mtllib FN_Bin_Pedal.mtl
o FN_Bin_Pedal
v 0.151516 0.000000 0.050760
v 0.115966 0.000000 0.103966
v 0.062760 0.000000 0.139516
v -0.000000 0.000000 0.152000
v -0.062760 0.000000 0.139516
v -0.115966 0.000000 0.103966
v -0.151516 0.000000 0.050760
v -0.164000 0.000000 -0.012000
v -0.151516 0.000000 -0.074760
v -0.115966 0.000000 -0.127966
v -0.062760 0.000000 -0.163516
v 0.000000 0.000000 -0.176000
v 0.062760 0.000000 -0.163516
v 0.115966 0.000000 -0.127966
v 0.151516 0.000000 -0.074760
v 0.164000 0.000000 -0.012000
v 0.151516 0.022000 -0.074760
v 0.164000 0.022000 -0.012000
v 0.115966 0.022000 -0.127966
v 0.062760 0.022000 -0.163516
v 0.000000 0.022000 -0.176000
v -0.062760 0.022000 -0.163516
v -0.115966 0.022000 -0.127966
v -0.151516 0.022000 -0.074760
v -0.164000 0.022000 -0.012000
v -0.151516 0.022000 0.050760
v -0.115966 0.022000 0.103966
v -0.062760 0.022000 0.139516
v -0.000000 0.022000 0.152000
v 0.062760 0.022000 0.139516
v 0.115966 0.022000 0.103966
v 0.151516 0.022000 0.050760
v 0.140430 0.022000 -0.070168
v 0.152000 0.022000 -0.012000
v 0.107480 0.022000 -0.119480
v 0.058168 0.022000 -0.152430
v 0.000000 0.022000 -0.164000
v -0.058168 0.022000 -0.152430
v -0.107480 0.022000 -0.119480
v -0.140430 0.022000 -0.070168
v -0.152000 0.022000 -0.012000
v -0.140430 0.022000 0.046168
v -0.107480 0.022000 0.095480
v -0.058168 0.022000 0.128430
v -0.000000 0.022000 0.140000
v 0.058168 0.022000 0.128430
v 0.107480 0.022000 0.095480
v 0.140430 0.022000 0.046168
v 0.145973 0.638000 -0.072464
v 0.158000 0.638000 -0.012000
v 0.111723 0.638000 -0.123723
v 0.060464 0.638000 -0.157973
v 0.000000 0.638000 -0.170000
v -0.060464 0.638000 -0.157973
v -0.111723 0.638000 -0.123723
v -0.145973 0.638000 -0.072464
v -0.158000 0.638000 -0.012000
v -0.145973 0.638000 0.048464
v -0.111723 0.638000 0.099723
v -0.060464 0.638000 0.133973
v -0.000000 0.638000 0.146000
v 0.060464 0.638000 0.133973
v 0.111723 0.638000 0.099723
v 0.145973 0.638000 0.048464
v 0.166000 0.642000 -0.012000
v 0.153364 0.642000 -0.075525
v 0.153364 0.664000 -0.075525
v 0.166000 0.664000 -0.012000
v 0.117380 0.642000 -0.129380
v 0.117380 0.664000 -0.129380
v 0.063525 0.642000 -0.165364
v 0.063525 0.664000 -0.165364
v 0.000000 0.642000 -0.178000
v 0.000000 0.664000 -0.178000
v -0.063525 0.642000 -0.165364
v -0.063525 0.664000 -0.165364
v -0.117380 0.642000 -0.129380
v -0.117380 0.664000 -0.129380
v -0.153364 0.642000 -0.075525
v -0.153364 0.664000 -0.075525
v -0.166000 0.642000 -0.012000
v -0.166000 0.664000 -0.012000
v -0.153364 0.642000 0.051525
v -0.153364 0.664000 0.051525
v -0.117380 0.642000 0.105380
v -0.117380 0.664000 0.105380
v -0.063525 0.642000 0.141364
v -0.063525 0.664000 0.141364
v -0.000000 0.642000 0.154000
v -0.000000 0.664000 0.154000
v 0.063525 0.642000 0.141364
v 0.063525 0.664000 0.141364
v 0.117380 0.642000 0.105380
v 0.117380 0.664000 0.105380
v 0.153364 0.642000 0.051525
v 0.153364 0.664000 0.051525
v 0.083149 0.700000 -0.046442
v 0.090000 0.700000 -0.012000
v 0.063640 0.700000 -0.075640
v 0.034442 0.700000 -0.095149
v 0.000000 0.700000 -0.102000
v -0.034442 0.700000 -0.095149
v -0.063640 0.700000 -0.075640
v -0.083149 0.700000 -0.046442
v -0.090000 0.700000 -0.012000
v -0.083149 0.700000 0.022442
v -0.063640 0.700000 0.051640
v -0.034442 0.700000 0.071149
v -0.000000 0.700000 0.078000
v 0.034442 0.700000 0.071149
v 0.063640 0.700000 0.051640
v 0.083149 0.700000 0.022442
v -0.052000 0.014000 0.178000
v -0.052000 0.014000 0.126000
v 0.052000 0.014000 0.126000
v 0.052000 0.014000 0.178000
v -0.052000 0.034000 0.178000
v 0.052000 0.034000 0.178000
v 0.052000 0.034000 0.126000
v -0.052000 0.034000 0.126000
v -0.014000 0.030000 0.156000
v -0.014000 0.030000 0.142000
v 0.014000 0.030000 0.142000
v 0.014000 0.030000 0.156000
v -0.014000 0.086000 0.156000
v 0.014000 0.086000 0.156000
v 0.014000 0.086000 0.142000
v -0.014000 0.086000 0.142000
vn -0.0000 -1.0000 -0.0000
vn 0.9808 -0.0000 -0.1951
vn 0.8315 -0.0000 -0.5556
vn 0.5556 -0.0000 -0.8315
vn 0.1951 -0.0000 -0.9808
vn -0.1951 -0.0000 -0.9808
vn -0.5556 -0.0000 -0.8315
vn -0.8315 -0.0000 -0.5556
vn -0.9808 -0.0000 -0.1951
vn -0.9808 -0.0000 0.1951
vn -0.8315 -0.0000 0.5556
vn -0.5556 -0.0000 0.8315
vn -0.1951 -0.0000 0.9808
vn 0.1951 -0.0000 0.9808
vn 0.5556 -0.0000 0.8315
vn 0.8315 -0.0000 0.5556
vn 0.9808 -0.0000 0.1951
vn -0.0000 1.0000 -0.0000
vn 0.9807 -0.0096 -0.1951
vn 0.8314 -0.0096 -0.5555
vn 0.5555 -0.0096 -0.8314
vn 0.1951 -0.0096 -0.9807
vn -0.1951 -0.0096 -0.9807
vn -0.5555 -0.0096 -0.8314
vn -0.8314 -0.0096 -0.5555
vn -0.9807 -0.0096 -0.1951
vn -0.9807 -0.0096 0.1951
vn -0.8314 -0.0096 0.5555
vn -0.5555 -0.0096 0.8314
vn -0.1951 -0.0096 0.9807
vn 0.1951 -0.0096 0.9807
vn 0.5555 -0.0096 0.8314
vn 0.8314 -0.0096 0.5555
vn 0.9807 -0.0096 0.1951
vn 0.4455 -0.8909 -0.0886
vn 0.3776 -0.8909 -0.2523
vn 0.2523 -0.8909 -0.3776
vn 0.0886 -0.8909 -0.4455
vn -0.0886 -0.8909 -0.4455
vn -0.2523 -0.8909 -0.3776
vn -0.3776 -0.8909 -0.2523
vn -0.4455 -0.8909 -0.0886
vn -0.4455 -0.8909 0.0886
vn -0.3776 -0.8909 0.2523
vn -0.2523 -0.8909 0.3776
vn -0.0886 -0.8909 0.4455
vn 0.0886 -0.8909 0.4455
vn 0.2523 -0.8909 0.3776
vn 0.3776 -0.8909 0.2523
vn 0.4455 -0.8909 0.0886
vn 0.4265 0.9005 -0.0848
vn 0.3616 0.9005 -0.2416
vn 0.2416 0.9005 -0.3616
vn 0.0848 0.9005 -0.4265
vn -0.0848 0.9005 -0.4265
vn -0.2416 0.9005 -0.3616
vn -0.3616 0.9005 -0.2416
vn -0.4265 0.9005 -0.0848
vn -0.4265 0.9005 0.0848
vn -0.3616 0.9005 0.2416
vn -0.2416 0.9005 0.3616
vn -0.0848 0.9005 0.4265
vn 0.0848 0.9005 0.4265
vn 0.2416 0.9005 0.3616
vn 0.3616 0.9005 0.2416
vn 0.4265 0.9005 0.0848
vn -0.0000 -0.0000 1.0000
vn -0.0000 -0.0000 -1.0000
vn -1.0000 -0.0000 -0.0000
vn 1.0000 -0.0000 -0.0000
vt 0.812500 0.312500
vt 0.062500 0.312500
vt 0.937500 0.312500
s 0
usemtl FN_Atlas
f 1/1/1 2/1/1 3/1/1 4/1/1 5/1/1 6/1/1 7/1/1 8/1/1 9/1/1 10/1/1 11/1/1 12/1/1 13/1/1 14/1/1 15/1/1 16/1/1
f 16/1/2 15/1/2 17/1/2 18/1/2
f 15/1/3 14/1/3 19/1/3 17/1/3
f 14/1/4 13/1/4 20/1/4 19/1/4
f 13/1/5 12/1/5 21/1/5 20/1/5
f 12/1/6 11/1/6 22/1/6 21/1/6
f 11/1/7 10/1/7 23/1/7 22/1/7
f 10/1/8 9/1/8 24/1/8 23/1/8
f 9/1/9 8/1/9 25/1/9 24/1/9
f 8/1/10 7/1/10 26/1/10 25/1/10
f 7/1/11 6/1/11 27/1/11 26/1/11
f 6/1/12 5/1/12 28/1/12 27/1/12
f 5/1/13 4/1/13 29/1/13 28/1/13
f 4/1/14 3/1/14 30/1/14 29/1/14
f 3/1/15 2/1/15 31/1/15 30/1/15
f 2/1/16 1/1/16 32/1/16 31/1/16
f 1/1/17 16/1/17 18/1/17 32/1/17
f 18/1/18 17/1/18 33/1/18 34/1/18
f 17/1/18 19/1/18 35/1/18 33/1/18
f 19/1/18 20/1/18 36/1/18 35/1/18
f 20/1/18 21/1/18 37/1/18 36/1/18
f 21/1/18 22/1/18 38/1/18 37/1/18
f 22/1/18 23/1/18 39/1/18 38/1/18
f 23/1/18 24/1/18 40/1/18 39/1/18
f 24/1/18 25/1/18 41/1/18 40/1/18
f 25/1/18 26/1/18 42/1/18 41/1/18
f 26/1/18 27/1/18 43/1/18 42/1/18
f 27/1/18 28/1/18 44/1/18 43/1/18
f 28/1/18 29/1/18 45/1/18 44/1/18
f 29/1/18 30/1/18 46/1/18 45/1/18
f 30/1/18 31/1/18 47/1/18 46/1/18
f 31/1/18 32/1/18 48/1/18 47/1/18
f 32/1/18 18/1/18 34/1/18 48/1/18
f 34/2/19 33/2/19 49/2/19 50/2/19
f 33/2/20 35/2/20 51/2/20 49/2/20
f 35/2/21 36/2/21 52/2/21 51/2/21
f 36/2/22 37/2/22 53/2/22 52/2/22
f 37/2/23 38/2/23 54/2/23 53/2/23
f 38/2/24 39/2/24 55/2/24 54/2/24
f 39/2/25 40/2/25 56/2/25 55/2/25
f 40/2/26 41/2/26 57/2/26 56/2/26
f 41/2/27 42/2/27 58/2/27 57/2/27
f 42/2/28 43/2/28 59/2/28 58/2/28
f 43/2/29 44/2/29 60/2/29 59/2/29
f 44/2/30 45/2/30 61/2/30 60/2/30
f 45/2/31 46/2/31 62/2/31 61/2/31
f 46/2/32 47/2/32 63/2/32 62/2/32
f 47/2/33 48/2/33 64/2/33 63/2/33
f 48/2/34 34/2/34 50/2/34 64/2/34
f 65/3/2 66/3/2 67/3/2 68/3/2
f 66/3/3 69/3/3 70/3/3 67/3/3
f 69/3/4 71/3/4 72/3/4 70/3/4
f 71/3/5 73/3/5 74/3/5 72/3/5
f 73/3/6 75/3/6 76/3/6 74/3/6
f 75/3/7 77/3/7 78/3/7 76/3/7
f 77/3/8 79/3/8 80/3/8 78/3/8
f 79/3/9 81/3/9 82/3/9 80/3/9
f 81/3/10 83/3/10 84/3/10 82/3/10
f 83/3/11 85/3/11 86/3/11 84/3/11
f 85/3/12 87/3/12 88/3/12 86/3/12
f 87/3/13 89/3/13 90/3/13 88/3/13
f 89/3/14 91/3/14 92/3/14 90/3/14
f 91/3/15 93/3/15 94/3/15 92/3/15
f 93/3/16 95/3/16 96/3/16 94/3/16
f 95/3/17 65/3/17 68/3/17 96/3/17
f 50/3/35 49/3/35 66/3/35 65/3/35
f 49/3/36 51/3/36 69/3/36 66/3/36
f 51/3/37 52/3/37 71/3/37 69/3/37
f 52/3/38 53/3/38 73/3/38 71/3/38
f 53/3/39 54/3/39 75/3/39 73/3/39
f 54/3/40 55/3/40 77/3/40 75/3/40
f 55/3/41 56/3/41 79/3/41 77/3/41
f 56/3/42 57/3/42 81/3/42 79/3/42
f 57/3/43 58/3/43 83/3/43 81/3/43
f 58/3/44 59/3/44 85/3/44 83/3/44
f 59/3/45 60/3/45 87/3/45 85/3/45
f 60/3/46 61/3/46 89/3/46 87/3/46
f 61/3/47 62/3/47 91/3/47 89/3/47
f 62/3/48 63/3/48 93/3/48 91/3/48
f 63/3/49 64/3/49 95/3/49 93/3/49
f 64/3/50 50/3/50 65/3/50 95/3/50
f 68/3/51 67/3/51 97/3/51 98/3/51
f 67/3/52 70/3/52 99/3/52 97/3/52
f 70/3/53 72/3/53 100/3/53 99/3/53
f 72/3/54 74/3/54 101/3/54 100/3/54
f 74/3/55 76/3/55 102/3/55 101/3/55
f 76/3/56 78/3/56 103/3/56 102/3/56
f 78/3/57 80/3/57 104/3/57 103/3/57
f 80/3/58 82/3/58 105/3/58 104/3/58
f 82/3/59 84/3/59 106/3/59 105/3/59
f 84/3/60 86/3/60 107/3/60 106/3/60
f 86/3/61 88/3/61 108/3/61 107/3/61
f 88/3/62 90/3/62 109/3/62 108/3/62
f 90/3/63 92/3/63 110/3/63 109/3/63
f 92/3/64 94/3/64 111/3/64 110/3/64
f 94/3/65 96/3/65 112/3/65 111/3/65
f 96/3/66 68/3/66 98/3/66 112/3/66
f 98/3/18 97/3/18 99/3/18 100/3/18 101/3/18 102/3/18 103/3/18 104/3/18 105/3/18 106/3/18 107/3/18 108/3/18 109/3/18 110/3/18 111/3/18 112/3/18
f 113/1/1 114/1/1 115/1/1 116/1/1
f 117/1/18 118/1/18 119/1/18 120/1/18
f 113/1/67 116/1/67 118/1/67 117/1/67
f 115/1/68 114/1/68 120/1/68 119/1/68
f 113/1/69 117/1/69 120/1/69 114/1/69
f 116/1/70 115/1/70 119/1/70 118/1/70
f 121/1/1 122/1/1 123/1/1 124/1/1
f 125/1/18 126/1/18 127/1/18 128/1/18
f 121/1/67 124/1/67 126/1/67 125/1/67
f 123/1/68 122/1/68 128/1/68 127/1/68
f 121/1/69 125/1/69 128/1/69 122/1/69
f 124/1/70 123/1/70 127/1/70 126/1/70
