# Blender 5.2.0 LTS
# www.blender.org
mtllib FN_Bench_Park.mtl
o FN_Bench_Park
v -0.868000 0.000000 0.277000
v -0.868000 0.000000 0.173000
v -0.816000 0.000000 0.173000
v -0.816000 0.000000 0.277000
v -0.868000 0.016000 0.277000
v -0.816000 0.016000 0.277000
v -0.816000 0.016000 0.173000
v -0.868000 0.016000 0.173000
v -0.868000 0.000000 -0.173000
v -0.868000 0.000000 -0.277000
v -0.816000 0.000000 -0.277000
v -0.816000 0.000000 -0.173000
v -0.868000 0.016000 -0.173000
v -0.816000 0.016000 -0.173000
v -0.816000 0.016000 -0.277000
v -0.868000 0.016000 -0.277000
v -0.827000 0.007087 0.199164
v -0.857000 0.007087 0.199164
v -0.857000 0.012913 0.250836
v -0.827000 0.012913 0.250836
v -0.827000 0.420913 0.204836
v -0.857000 0.420913 0.204836
v -0.857000 0.415087 0.153164
v -0.827000 0.415087 0.153164
v -0.827000 0.012662 -0.250863
v -0.857000 0.012662 -0.250863
v -0.857000 0.007338 -0.199137
v -0.827000 0.007338 -0.199137
v -0.827000 0.415338 -0.157137
v -0.857000 0.415338 -0.157137
v -0.857000 0.420662 -0.208863
v -0.827000 0.420662 -0.208863
v -0.827000 0.414953 -0.206806
v -0.857000 0.414953 -0.206806
v -0.857000 0.421047 -0.159194
v -0.827000 0.421047 -0.159194
v -0.827000 0.859047 -0.215258
v -0.857000 0.859047 -0.215258
v -0.857000 0.852953 -0.262870
v -0.827000 0.852953 -0.262870
v -0.857000 0.438000 0.199000
v -0.827000 0.438000 0.199000
v -0.827000 0.398000 0.199000
v -0.857000 0.398000 0.199000
v -0.857000 0.398000 -0.197000
v -0.827000 0.398000 -0.197000
v -0.827000 0.438000 -0.197000
v -0.857000 0.438000 -0.197000
v -0.827000 0.682000 -0.214488
v -0.857000 0.682000 -0.214488
v -0.857000 0.646000 -0.214488
v -0.827000 0.646000 -0.214488
v -0.827000 0.646000 0.203000
v -0.857000 0.646000 0.203000
v -0.857000 0.682000 0.203000
v -0.827000 0.682000 0.203000
v -0.829000 0.418553 0.178009
v -0.855000 0.418553 0.178009
v -0.855000 0.417447 0.211991
v -0.829000 0.417447 0.211991
v -0.829000 0.663447 0.219991
v -0.855000 0.663447 0.219991
v -0.855000 0.664553 0.186009
v -0.829000 0.664553 0.186009
v 0.816000 0.000000 0.277000
v 0.816000 0.000000 0.173000
v 0.868000 0.000000 0.173000
v 0.868000 0.000000 0.277000
v 0.816000 0.016000 0.277000
v 0.868000 0.016000 0.277000
v 0.868000 0.016000 0.173000
v 0.816000 0.016000 0.173000
v 0.816000 0.000000 -0.173000
v 0.816000 0.000000 -0.277000
v 0.868000 0.000000 -0.277000
v 0.868000 0.000000 -0.173000
v 0.816000 0.016000 -0.173000
v 0.868000 0.016000 -0.173000
v 0.868000 0.016000 -0.277000
v 0.816000 0.016000 -0.277000
v 0.857000 0.007087 0.199164
v 0.827000 0.007087 0.199164
v 0.827000 0.012913 0.250836
v 0.857000 0.012913 0.250836
v 0.857000 0.420913 0.204836
v 0.827000 0.420913 0.204836
v 0.827000 0.415087 0.153164
v 0.857000 0.415087 0.153164
v 0.857000 0.012662 -0.250863
v 0.827000 0.012662 -0.250863
v 0.827000 0.007338 -0.199137
v 0.857000 0.007338 -0.199137
v 0.857000 0.415338 -0.157137
v 0.827000 0.415338 -0.157137
v 0.827000 0.420662 -0.208863
v 0.857000 0.420662 -0.208863
v 0.857000 0.414953 -0.206806
v 0.827000 0.414953 -0.206806
v 0.827000 0.421047 -0.159194
v 0.857000 0.421047 -0.159194
v 0.857000 0.859047 -0.215258
v 0.827000 0.859047 -0.215258
v 0.827000 0.852953 -0.262870
v 0.857000 0.852953 -0.262870
v 0.827000 0.438000 0.199000
v 0.857000 0.438000 0.199000
v 0.857000 0.398000 0.199000
v 0.827000 0.398000 0.199000
v 0.827000 0.398000 -0.197000
v 0.857000 0.398000 -0.197000
v 0.857000 0.438000 -0.197000
v 0.827000 0.438000 -0.197000
v 0.857000 0.682000 -0.214488
v 0.827000 0.682000 -0.214488
v 0.827000 0.646000 -0.214488
v 0.857000 0.646000 -0.214488
v 0.857000 0.646000 0.203000
v 0.827000 0.646000 0.203000
v 0.827000 0.682000 0.203000
v 0.857000 0.682000 0.203000
v 0.855000 0.418553 0.178009
v 0.829000 0.418553 0.178009
v 0.829000 0.417447 0.211991
v 0.855000 0.417447 0.211991
v 0.855000 0.663447 0.219991
v 0.829000 0.663447 0.219991
v 0.829000 0.664553 0.186009
v 0.855000 0.664553 0.186009
v -0.896002 0.428000 0.136528
v 0.896002 0.428000 0.136528
v 0.896002 0.428000 0.193872
v -0.896002 0.428000 0.193872
v 0.900000 0.432000 0.194000
v -0.900000 0.432000 0.194000
v 0.900000 0.432000 0.136400
v -0.900000 0.432000 0.136400
v 0.900000 0.446000 0.194000
v -0.900000 0.446000 0.194000
v 0.900000 0.446000 0.136400
v -0.900000 0.446000 0.136400
v -0.896002 0.450000 0.193872
v 0.896002 0.450000 0.193872
v 0.896002 0.450000 0.136528
v -0.896002 0.450000 0.136528
v -0.896002 0.428000 0.056928
v 0.896002 0.428000 0.056928
v 0.896002 0.428000 0.114272
v -0.896002 0.428000 0.114272
v 0.900000 0.432000 0.114400
v -0.900000 0.432000 0.114400
v 0.900000 0.432000 0.056800
v -0.900000 0.432000 0.056800
v 0.900000 0.446000 0.114400
v -0.900000 0.446000 0.114400
v 0.900000 0.446000 0.056800
v -0.900000 0.446000 0.056800
v -0.896002 0.450000 0.114272
v 0.896002 0.450000 0.114272
v 0.896002 0.450000 0.056928
v -0.896002 0.450000 0.056928
v -0.896002 0.428000 -0.022672
v 0.896002 0.428000 -0.022672
v 0.896002 0.428000 0.034672
v -0.896002 0.428000 0.034672
v 0.900000 0.432000 0.034800
v -0.900000 0.432000 0.034800
v 0.900000 0.432000 -0.022800
v -0.900000 0.432000 -0.022800
v 0.900000 0.446000 0.034800
v -0.900000 0.446000 0.034800
v 0.900000 0.446000 -0.022800
v -0.900000 0.446000 -0.022800
v -0.896002 0.450000 0.034672
v 0.896002 0.450000 0.034672
v 0.896002 0.450000 -0.022672
v -0.896002 0.450000 -0.022672
v -0.896002 0.428000 -0.102272
v 0.896002 0.428000 -0.102272
v 0.896002 0.428000 -0.044928
v -0.896002 0.428000 -0.044928
v 0.900000 0.432000 -0.044800
v -0.900000 0.432000 -0.044800
v 0.900000 0.432000 -0.102400
v -0.900000 0.432000 -0.102400
v 0.900000 0.446000 -0.044800
v -0.900000 0.446000 -0.044800
v 0.900000 0.446000 -0.102400
v -0.900000 0.446000 -0.102400
v -0.896002 0.450000 -0.044928
v 0.896002 0.450000 -0.044928
v 0.896002 0.450000 -0.102272
v -0.896002 0.450000 -0.102272
v -0.896002 0.428000 -0.181872
v 0.896002 0.428000 -0.181872
v 0.896002 0.428000 -0.124528
v -0.896002 0.428000 -0.124528
v 0.900000 0.432000 -0.124400
v -0.900000 0.432000 -0.124400
v 0.900000 0.432000 -0.182000
v -0.900000 0.432000 -0.182000
v 0.900000 0.446000 -0.124400
v -0.900000 0.446000 -0.124400
v 0.900000 0.446000 -0.182000
v -0.900000 0.446000 -0.182000
v -0.896002 0.450000 -0.124528
v 0.896002 0.450000 -0.124528
v 0.896002 0.450000 -0.181872
v -0.896002 0.450000 -0.181872
v -0.895000 0.524000 -0.228501
v 0.895000 0.524000 -0.228501
v 0.895000 0.524000 -0.204635
v -0.895000 0.524000 -0.204635
v 0.900000 0.529000 -0.204568
v -0.900000 0.529000 -0.204568
v 0.900000 0.529000 -0.228568
v -0.900000 0.529000 -0.228568
v 0.900000 0.581000 -0.204568
v -0.900000 0.581000 -0.204568
v 0.900000 0.581000 -0.228568
v -0.900000 0.581000 -0.228568
v -0.895000 0.586000 -0.204635
v 0.895000 0.586000 -0.204635
v 0.895000 0.586000 -0.228501
v -0.895000 0.586000 -0.228501
v -0.895000 0.606000 -0.238997
v 0.895000 0.606000 -0.238997
v 0.895000 0.606000 -0.215131
v -0.895000 0.606000 -0.215131
v 0.900000 0.611000 -0.215064
v -0.900000 0.611000 -0.215064
v 0.900000 0.611000 -0.239064
v -0.900000 0.611000 -0.239064
v 0.900000 0.663000 -0.215064
v -0.900000 0.663000 -0.215064
v 0.900000 0.663000 -0.239064
v -0.900000 0.663000 -0.239064
v -0.895000 0.668000 -0.215131
v 0.895000 0.668000 -0.215131
v 0.895000 0.668000 -0.238997
v -0.895000 0.668000 -0.238997
v -0.895000 0.688000 -0.249493
v 0.895000 0.688000 -0.249493
v 0.895000 0.688000 -0.225627
v -0.895000 0.688000 -0.225627
v 0.900000 0.693000 -0.225560
v -0.900000 0.693000 -0.225560
v 0.900000 0.693000 -0.249560
v -0.900000 0.693000 -0.249560
v 0.900000 0.745000 -0.225560
v -0.900000 0.745000 -0.225560
v 0.900000 0.745000 -0.249560
v -0.900000 0.745000 -0.249560
v -0.895000 0.750000 -0.225627
v 0.895000 0.750000 -0.225627
v 0.895000 0.750000 -0.249493
v -0.895000 0.750000 -0.249493
v -0.895000 0.770000 -0.259989
v 0.895000 0.770000 -0.259989
v 0.895000 0.770000 -0.236123
v -0.895000 0.770000 -0.236123
v 0.900000 0.775000 -0.236056
v -0.900000 0.775000 -0.236056
v 0.900000 0.775000 -0.260056
v -0.900000 0.775000 -0.260056
v 0.900000 0.827000 -0.236056
v -0.900000 0.827000 -0.236056
v 0.900000 0.827000 -0.260056
v -0.900000 0.827000 -0.260056
v -0.895000 0.832000 -0.236123
v 0.895000 0.832000 -0.236123
v 0.895000 0.832000 -0.259989
v -0.895000 0.832000 -0.259989
vn -0.0000 -1.0000 -0.0000
vn -0.0000 1.0000 -0.0000
vn -0.0000 -0.0000 1.0000
vn -0.0000 -0.0000 -1.0000
vn -1.0000 -0.0000 -0.0000
vn 1.0000 -0.0000 -0.0000
vn -0.0000 0.9937 -0.1120
vn -0.0000 -0.9937 0.1120
vn -0.0000 -0.1120 -0.9937
vn -0.0000 0.1120 0.9937
vn -0.0000 0.9947 0.1024
vn -0.0000 -0.9947 -0.1024
vn -0.0000 0.1024 -0.9947
vn -0.0000 -0.1024 0.9947
vn -0.0000 0.9919 -0.1270
vn -0.0000 -0.9919 0.1270
vn -0.0000 -0.1270 -0.9919
vn -0.0000 0.1270 0.9919
vn -0.0000 0.9995 0.0325
vn -0.0000 -0.9995 -0.0325
vn -0.0000 0.0325 -0.9995
vn -0.0000 -0.0325 0.9995
vn -0.0000 -0.0320 0.9995
vn 0.7073 -0.7069 -0.0000
vn -0.0000 -0.0320 -0.9995
vn -0.7073 -0.7069 -0.0000
vn -0.0000 0.0320 0.9995
vn 0.7073 0.7069 -0.0000
vn -0.0000 0.0320 -0.9995
vn -0.7073 0.7069 -0.0000
vn -0.0000 -0.0133 0.9999
vn 0.7071 -0.7071 -0.0000
vn -0.0000 -0.0133 -0.9999
vn -0.7071 -0.7071 -0.0000
vn -0.0000 0.0133 0.9999
vn 0.7071 0.7071 -0.0000
vn -0.0000 0.0133 -0.9999
vn -0.7071 0.7071 -0.0000
vt 0.812500 0.312500
vt 0.687500 0.937500
vt 0.562500 0.937500
s 0
usemtl FN_Atlas
f 1/1/1 2/1/1 3/1/1 4/1/1
f 5/1/2 6/1/2 7/1/2 8/1/2
f 1/1/3 4/1/3 6/1/3 5/1/3
f 3/1/4 2/1/4 8/1/4 7/1/4
f 1/1/5 5/1/5 8/1/5 2/1/5
f 4/1/6 3/1/6 7/1/6 6/1/6
f 9/1/1 10/1/1 11/1/1 12/1/1
f 13/1/2 14/1/2 15/1/2 16/1/2
f 9/1/3 12/1/3 14/1/3 13/1/3
f 11/1/4 10/1/4 16/1/4 15/1/4
f 9/1/5 13/1/5 16/1/5 10/1/5
f 12/1/6 11/1/6 15/1/6 14/1/6
f 17/1/7 18/1/7 19/1/7 20/1/7
f 21/1/8 22/1/8 23/1/8 24/1/8
f 20/1/9 19/1/9 22/1/9 21/1/9
f 19/1/6 18/1/6 23/1/6 22/1/6
f 18/1/10 17/1/10 24/1/10 23/1/10
f 17/1/5 20/1/5 21/1/5 24/1/5
f 25/1/11 26/1/11 27/1/11 28/1/11
f 29/1/12 30/1/12 31/1/12 32/1/12
f 28/1/13 27/1/13 30/1/13 29/1/13
f 27/1/6 26/1/6 31/1/6 30/1/6
f 26/1/14 25/1/14 32/1/14 31/1/14
f 25/1/5 28/1/5 29/1/5 32/1/5
f 33/1/15 34/1/15 35/1/15 36/1/15
f 37/1/16 38/1/16 39/1/16 40/1/16
f 36/1/17 35/1/17 38/1/17 37/1/17
f 35/1/6 34/1/6 39/1/6 38/1/6
f 34/1/18 33/1/18 40/1/18 39/1/18
f 33/1/5 36/1/5 37/1/5 40/1/5
f 41/1/4 42/1/4 43/1/4 44/1/4
f 45/1/3 46/1/3 47/1/3 48/1/3
f 44/1/2 43/1/2 46/1/2 45/1/2
f 43/1/5 42/1/5 47/1/5 46/1/5
f 42/1/1 41/1/1 48/1/1 47/1/1
f 41/1/6 44/1/6 45/1/6 48/1/6
f 49/1/3 50/1/3 51/1/3 52/1/3
f 53/1/4 54/1/4 55/1/4 56/1/4
f 52/1/2 51/1/2 54/1/2 53/1/2
f 51/1/6 50/1/6 55/1/6 54/1/6
f 50/1/1 49/1/1 56/1/1 55/1/1
f 49/1/5 52/1/5 53/1/5 56/1/5
f 57/1/19 58/1/19 59/1/19 60/1/19
f 61/1/20 62/1/20 63/1/20 64/1/20
f 60/1/21 59/1/21 62/1/21 61/1/21
f 59/1/6 58/1/6 63/1/6 62/1/6
f 58/1/22 57/1/22 64/1/22 63/1/22
f 57/1/5 60/1/5 61/1/5 64/1/5
f 65/1/1 66/1/1 67/1/1 68/1/1
f 69/1/2 70/1/2 71/1/2 72/1/2
f 65/1/3 68/1/3 70/1/3 69/1/3
f 67/1/4 66/1/4 72/1/4 71/1/4
f 65/1/5 69/1/5 72/1/5 66/1/5
f 68/1/6 67/1/6 71/1/6 70/1/6
f 73/1/1 74/1/1 75/1/1 76/1/1
f 77/1/2 78/1/2 79/1/2 80/1/2
f 73/1/3 76/1/3 78/1/3 77/1/3
f 75/1/4 74/1/4 80/1/4 79/1/4
f 73/1/5 77/1/5 80/1/5 74/1/5
f 76/1/6 75/1/6 79/1/6 78/1/6
f 81/1/7 82/1/7 83/1/7 84/1/7
f 85/1/8 86/1/8 87/1/8 88/1/8
f 84/1/9 83/1/9 86/1/9 85/1/9
f 83/1/6 82/1/6 87/1/6 86/1/6
f 82/1/10 81/1/10 88/1/10 87/1/10
f 81/1/5 84/1/5 85/1/5 88/1/5
f 89/1/11 90/1/11 91/1/11 92/1/11
f 93/1/12 94/1/12 95/1/12 96/1/12
f 92/1/13 91/1/13 94/1/13 93/1/13
f 91/1/6 90/1/6 95/1/6 94/1/6
f 90/1/14 89/1/14 96/1/14 95/1/14
f 89/1/5 92/1/5 93/1/5 96/1/5
f 97/1/15 98/1/15 99/1/15 100/1/15
f 101/1/16 102/1/16 103/1/16 104/1/16
f 100/1/17 99/1/17 102/1/17 101/1/17
f 99/1/6 98/1/6 103/1/6 102/1/6
f 98/1/18 97/1/18 104/1/18 103/1/18
f 97/1/5 100/1/5 101/1/5 104/1/5
f 105/1/4 106/1/4 107/1/4 108/1/4
f 109/1/3 110/1/3 111/1/3 112/1/3
f 108/1/2 107/1/2 110/1/2 109/1/2
f 107/1/5 106/1/5 111/1/5 110/1/5
f 106/1/1 105/1/1 112/1/1 111/1/1
f 105/1/6 108/1/6 109/1/6 112/1/6
f 113/1/3 114/1/3 115/1/3 116/1/3
f 117/1/4 118/1/4 119/1/4 120/1/4
f 116/1/2 115/1/2 118/1/2 117/1/2
f 115/1/6 114/1/6 119/1/6 118/1/6
f 114/1/1 113/1/1 120/1/1 119/1/1
f 113/1/5 116/1/5 117/1/5 120/1/5
f 121/1/19 122/1/19 123/1/19 124/1/19
f 125/1/20 126/1/20 127/1/20 128/1/20
f 124/1/21 123/1/21 126/1/21 125/1/21
f 123/1/6 122/1/6 127/1/6 126/1/6
f 122/1/22 121/1/22 128/1/22 127/1/22
f 121/1/5 124/1/5 125/1/5 128/1/5
f 129/2/1 130/2/1 131/2/1 132/2/1
f 132/2/23 131/2/23 133/2/23 134/2/23
f 131/2/24 130/2/24 135/2/24 133/2/24
f 130/2/25 129/2/25 136/2/25 135/2/25
f 129/2/26 132/2/26 134/2/26 136/2/26
f 134/2/3 133/2/3 137/2/3 138/2/3
f 133/2/6 135/2/6 139/2/6 137/2/6
f 135/2/4 136/2/4 140/2/4 139/2/4
f 136/2/5 134/2/5 138/2/5 140/2/5
f 141/3/2 142/3/2 143/3/2 144/3/2
f 138/2/27 137/2/27 142/2/27 141/2/27
f 137/2/28 139/2/28 143/2/28 142/2/28
f 139/2/29 140/2/29 144/2/29 143/2/29
f 140/2/30 138/2/30 141/2/30 144/2/30
f 145/2/1 146/2/1 147/2/1 148/2/1
f 148/2/23 147/2/23 149/2/23 150/2/23
f 147/2/24 146/2/24 151/2/24 149/2/24
f 146/2/25 145/2/25 152/2/25 151/2/25
f 145/2/26 148/2/26 150/2/26 152/2/26
f 150/2/3 149/2/3 153/2/3 154/2/3
f 149/2/6 151/2/6 155/2/6 153/2/6
f 151/2/4 152/2/4 156/2/4 155/2/4
f 152/2/5 150/2/5 154/2/5 156/2/5
f 157/3/2 158/3/2 159/3/2 160/3/2
f 154/2/27 153/2/27 158/2/27 157/2/27
f 153/2/28 155/2/28 159/2/28 158/2/28
f 155/2/29 156/2/29 160/2/29 159/2/29
f 156/2/30 154/2/30 157/2/30 160/2/30
f 161/2/1 162/2/1 163/2/1 164/2/1
f 164/2/23 163/2/23 165/2/23 166/2/23
f 163/2/24 162/2/24 167/2/24 165/2/24
f 162/2/25 161/2/25 168/2/25 167/2/25
f 161/2/26 164/2/26 166/2/26 168/2/26
f 166/2/3 165/2/3 169/2/3 170/2/3
f 165/2/6 167/2/6 171/2/6 169/2/6
f 167/2/4 168/2/4 172/2/4 171/2/4
f 168/2/5 166/2/5 170/2/5 172/2/5
f 173/3/2 174/3/2 175/3/2 176/3/2
f 170/2/27 169/2/27 174/2/27 173/2/27
f 169/2/28 171/2/28 175/2/28 174/2/28
f 171/2/29 172/2/29 176/2/29 175/2/29
f 172/2/30 170/2/30 173/2/30 176/2/30
f 177/2/1 178/2/1 179/2/1 180/2/1
f 180/2/23 179/2/23 181/2/23 182/2/23
f 179/2/24 178/2/24 183/2/24 181/2/24
f 178/2/25 177/2/25 184/2/25 183/2/25
f 177/2/26 180/2/26 182/2/26 184/2/26
f 182/2/3 181/2/3 185/2/3 186/2/3
f 181/2/6 183/2/6 187/2/6 185/2/6
f 183/2/4 184/2/4 188/2/4 187/2/4
f 184/2/5 182/2/5 186/2/5 188/2/5
f 189/3/2 190/3/2 191/3/2 192/3/2
f 186/2/27 185/2/27 190/2/27 189/2/27
f 185/2/28 187/2/28 191/2/28 190/2/28
f 187/2/29 188/2/29 192/2/29 191/2/29
f 188/2/30 186/2/30 189/2/30 192/2/30
f 193/2/1 194/2/1 195/2/1 196/2/1
f 196/2/23 195/2/23 197/2/23 198/2/23
f 195/2/24 194/2/24 199/2/24 197/2/24
f 194/2/25 193/2/25 200/2/25 199/2/25
f 193/2/26 196/2/26 198/2/26 200/2/26
f 198/2/3 197/2/3 201/2/3 202/2/3
f 197/2/6 199/2/6 203/2/6 201/2/6
f 199/2/4 200/2/4 204/2/4 203/2/4
f 200/2/5 198/2/5 202/2/5 204/2/5
f 205/3/2 206/3/2 207/3/2 208/3/2
f 202/2/27 201/2/27 206/2/27 205/2/27
f 201/2/28 203/2/28 207/2/28 206/2/28
f 203/2/29 204/2/29 208/2/29 207/2/29
f 204/2/30 202/2/30 205/2/30 208/2/30
f 209/2/1 210/2/1 211/2/1 212/2/1
f 212/2/31 211/2/31 213/2/31 214/2/31
f 211/2/32 210/2/32 215/2/32 213/2/32
f 210/2/33 209/2/33 216/2/33 215/2/33
f 209/2/34 212/2/34 214/2/34 216/2/34
f 214/2/3 213/2/3 217/2/3 218/2/3
f 213/2/6 215/2/6 219/2/6 217/2/6
f 215/2/4 216/2/4 220/2/4 219/2/4
f 216/2/5 214/2/5 218/2/5 220/2/5
f 221/3/2 222/3/2 223/3/2 224/3/2
f 218/2/35 217/2/35 222/2/35 221/2/35
f 217/2/36 219/2/36 223/2/36 222/2/36
f 219/2/37 220/2/37 224/2/37 223/2/37
f 220/2/38 218/2/38 221/2/38 224/2/38
f 225/2/1 226/2/1 227/2/1 228/2/1
f 228/2/31 227/2/31 229/2/31 230/2/31
f 227/2/32 226/2/32 231/2/32 229/2/32
f 226/2/33 225/2/33 232/2/33 231/2/33
f 225/2/34 228/2/34 230/2/34 232/2/34
f 230/2/3 229/2/3 233/2/3 234/2/3
f 229/2/6 231/2/6 235/2/6 233/2/6
f 231/2/4 232/2/4 236/2/4 235/2/4
f 232/2/5 230/2/5 234/2/5 236/2/5
f 237/3/2 238/3/2 239/3/2 240/3/2
f 234/2/35 233/2/35 238/2/35 237/2/35
f 233/2/36 235/2/36 239/2/36 238/2/36
f 235/2/37 236/2/37 240/2/37 239/2/37
f 236/2/38 234/2/38 237/2/38 240/2/38
f 241/2/1 242/2/1 243/2/1 244/2/1
f 244/2/31 243/2/31 245/2/31 246/2/31
f 243/2/32 242/2/32 247/2/32 245/2/32
f 242/2/33 241/2/33 248/2/33 247/2/33
f 241/2/34 244/2/34 246/2/34 248/2/34
f 246/2/3 245/2/3 249/2/3 250/2/3
f 245/2/6 247/2/6 251/2/6 249/2/6
f 247/2/4 248/2/4 252/2/4 251/2/4
f 248/2/5 246/2/5 250/2/5 252/2/5
f 253/3/2 254/3/2 255/3/2 256/3/2
f 250/2/35 249/2/35 254/2/35 253/2/35
f 249/2/36 251/2/36 255/2/36 254/2/36
f 251/2/37 252/2/37 256/2/37 255/2/37
f 252/2/38 250/2/38 253/2/38 256/2/38
f 257/2/1 258/2/1 259/2/1 260/2/1
f 260/2/31 259/2/31 261/2/31 262/2/31
f 259/2/32 258/2/32 263/2/32 261/2/32
f 258/2/33 257/2/33 264/2/33 263/2/33
f 257/2/34 260/2/34 262/2/34 264/2/34
f 262/2/3 261/2/3 265/2/3 266/2/3
f 261/2/6 263/2/6 267/2/6 265/2/6
f 263/2/4 264/2/4 268/2/4 267/2/4
f 264/2/5 262/2/5 266/2/5 268/2/5
f 269/3/2 270/3/2 271/3/2 272/3/2
f 266/2/35 265/2/35 270/2/35 269/2/35
f 265/2/36 267/2/36 271/2/36 270/2/36
f 267/2/37 268/2/37 272/2/37 271/2/37
f 268/2/38 266/2/38 269/2/38 272/2/38
