# Blender 5.2.0 LTS
# www.blender.org
mtllib FN_Chair_Dining_Arm.mtl
o FN_Chair_Dining_Arm
v -0.255000 0.000000 0.236000
v -0.225000 0.000000 0.236000
v -0.225000 0.000000 0.266000
v -0.255000 0.000000 0.266000
v -0.226000 0.400000 0.237000
v -0.184000 0.400000 0.237000
v -0.184000 0.400000 0.195000
v -0.226000 0.400000 0.195000
v -0.255000 0.000000 -0.224000
v -0.225000 0.000000 -0.224000
v -0.225000 0.000000 -0.194000
v -0.255000 0.000000 -0.194000
v -0.226000 0.400000 -0.153000
v -0.184000 0.400000 -0.153000
v -0.184000 0.400000 -0.195000
v -0.226000 0.400000 -0.195000
v 0.225000 0.000000 0.236000
v 0.255000 0.000000 0.236000
v 0.255000 0.000000 0.266000
v 0.225000 0.000000 0.266000
v 0.184000 0.400000 0.237000
v 0.226000 0.400000 0.237000
v 0.226000 0.400000 0.195000
v 0.184000 0.400000 0.195000
v 0.225000 0.000000 -0.224000
v 0.255000 0.000000 -0.224000
v 0.255000 0.000000 -0.194000
v 0.225000 0.000000 -0.194000
v 0.184000 0.400000 -0.153000
v 0.226000 0.400000 -0.153000
v 0.226000 0.400000 -0.195000
v 0.184000 0.400000 -0.195000
v -0.230000 0.362000 -0.209000
v 0.230000 0.362000 -0.209000
v 0.260000 0.362000 0.261000
v -0.260000 0.362000 0.261000
v 0.260000 0.440000 0.261000
v -0.260000 0.440000 0.261000
v 0.230000 0.440000 -0.209000
v -0.230000 0.440000 -0.209000
v -0.250000 0.450000 0.261000
v 0.250000 0.450000 0.261000
v 0.220000 0.450000 -0.209000
v -0.220000 0.450000 -0.209000
v -0.234000 0.400000 -0.196000
v -0.190000 0.400000 -0.196000
v -0.190000 0.400000 -0.152000
v -0.234000 0.400000 -0.152000
v -0.234000 0.860000 -0.222000
v -0.190000 0.860000 -0.222000
v -0.190000 0.860000 -0.266000
v -0.234000 0.860000 -0.266000
v 0.190000 0.400000 -0.196000
v 0.234000 0.400000 -0.196000
v 0.234000 0.400000 -0.152000
v 0.190000 0.400000 -0.152000
v 0.190000 0.860000 -0.222000
v 0.234000 0.860000 -0.222000
v 0.234000 0.860000 -0.266000
v 0.190000 0.860000 -0.266000
v -0.214000 0.430000 -0.198565
v 0.214000 0.430000 -0.198565
v 0.214000 0.430000 -0.123565
v -0.214000 0.430000 -0.123565
v -0.214000 0.820000 -0.182913
v 0.214000 0.820000 -0.182913
v 0.214000 0.820000 -0.257913
v -0.214000 0.820000 -0.257913
v -0.234000 0.800000 -0.215435
v -0.234000 0.800000 -0.263435
v 0.234000 0.800000 -0.263435
v 0.234000 0.800000 -0.215435
v -0.234000 0.860000 -0.215435
v 0.234000 0.860000 -0.215435
v 0.234000 0.860000 -0.263435
v -0.234000 0.860000 -0.263435
v -0.245000 0.400000 0.181000
v -0.245000 0.400000 0.141000
v -0.205000 0.400000 0.141000
v -0.205000 0.400000 0.181000
v -0.245000 0.652000 0.181000
v -0.205000 0.652000 0.181000
v -0.205000 0.652000 0.141000
v -0.245000 0.652000 0.141000
v -0.249000 0.620000 0.181000
v -0.249000 0.620000 -0.223913
v -0.201000 0.620000 -0.223913
v -0.201000 0.620000 0.181000
v -0.249000 0.652000 0.181000
v -0.201000 0.652000 0.181000
v -0.201000 0.652000 -0.223913
v -0.249000 0.652000 -0.223913
v 0.205000 0.400000 0.181000
v 0.205000 0.400000 0.141000
v 0.245000 0.400000 0.141000
v 0.245000 0.400000 0.181000
v 0.205000 0.652000 0.181000
v 0.245000 0.652000 0.181000
v 0.245000 0.652000 0.141000
v 0.205000 0.652000 0.141000
v 0.201000 0.620000 0.181000
v 0.201000 0.620000 -0.223913
v 0.249000 0.620000 -0.223913
v 0.249000 0.620000 0.181000
v 0.201000 0.652000 0.181000
v 0.249000 0.652000 0.181000
v 0.249000 0.652000 -0.223913
v 0.201000 0.652000 -0.223913
vn -0.0000 -1.0000 -0.0000
vn -0.0000 1.0000 -0.0000
vn -0.0000 0.0723 0.9974
vn 0.9948 -0.1020 -0.0000
vn -0.0000 -0.1020 -0.9948
vn -0.9974 0.0723 -0.0000
vn -0.0000 -0.1020 0.9948
vn -0.0000 0.0723 -0.9974
vn 0.9974 0.0723 -0.0000
vn -0.9948 -0.1020 -0.0000
vn -0.0000 -0.0000 1.0000
vn 0.9980 -0.0000 -0.0637
vn -0.0000 -0.0000 -1.0000
vn -0.9980 -0.0000 -0.0637
vn 0.7064 0.7064 -0.0451
vn -0.7064 0.7064 -0.0451
vn -0.0000 0.1504 0.9886
vn 1.0000 -0.0000 -0.0000
vn -0.0000 -0.1504 -0.9886
vn -1.0000 -0.0000 -0.0000
vt 0.437500 0.937500
vt 0.812500 0.687500
s 0
usemtl FN_Atlas
f 1/1/1 2/1/1 3/1/1 4/1/1
f 5/1/2 6/1/2 7/1/2 8/1/2
f 4/1/3 3/1/3 6/1/3 5/1/3
f 3/1/4 2/1/4 7/1/4 6/1/4
f 2/1/5 1/1/5 8/1/5 7/1/5
f 1/1/6 4/1/6 5/1/6 8/1/6
f 9/1/1 10/1/1 11/1/1 12/1/1
f 13/1/2 14/1/2 15/1/2 16/1/2
f 12/1/7 11/1/7 14/1/7 13/1/7
f 11/1/4 10/1/4 15/1/4 14/1/4
f 10/1/8 9/1/8 16/1/8 15/1/8
f 9/1/6 12/1/6 13/1/6 16/1/6
f 17/1/1 18/1/1 19/1/1 20/1/1
f 21/1/2 22/1/2 23/1/2 24/1/2
f 20/1/3 19/1/3 22/1/3 21/1/3
f 19/1/9 18/1/9 23/1/9 22/1/9
f 18/1/5 17/1/5 24/1/5 23/1/5
f 17/1/10 20/1/10 21/1/10 24/1/10
f 25/1/1 26/1/1 27/1/1 28/1/1
f 29/1/2 30/1/2 31/1/2 32/1/2
f 28/1/7 27/1/7 30/1/7 29/1/7
f 27/1/9 26/1/9 31/1/9 30/1/9
f 26/1/8 25/1/8 32/1/8 31/1/8
f 25/1/10 28/1/10 29/1/10 32/1/10
f 33/2/1 34/2/1 35/2/1 36/2/1
f 36/2/11 35/2/11 37/2/11 38/2/11
f 35/2/12 34/2/12 39/2/12 37/2/12
f 34/2/13 33/2/13 40/2/13 39/2/13
f 33/2/14 36/2/14 38/2/14 40/2/14
f 41/2/2 42/2/2 43/2/2 44/2/2
f 38/2/11 37/2/11 42/2/11 41/2/11
f 37/2/15 39/2/15 43/2/15 42/2/15
f 39/2/13 40/2/13 44/2/13 43/2/13
f 40/2/16 38/2/16 41/2/16 44/2/16
f 45/1/1 46/1/1 47/1/1 48/1/1
f 49/1/2 50/1/2 51/1/2 52/1/2
f 48/1/17 47/1/17 50/1/17 49/1/17
f 47/1/18 46/1/18 51/1/18 50/1/18
f 46/1/19 45/1/19 52/1/19 51/1/19
f 45/1/20 48/1/20 49/1/20 52/1/20
f 53/1/1 54/1/1 55/1/1 56/1/1
f 57/1/2 58/1/2 59/1/2 60/1/2
f 56/1/17 55/1/17 58/1/17 57/1/17
f 55/1/18 54/1/18 59/1/18 58/1/18
f 54/1/19 53/1/19 60/1/19 59/1/19
f 53/1/20 56/1/20 57/1/20 60/1/20
f 61/2/1 62/2/1 63/2/1 64/2/1
f 65/2/2 66/2/2 67/2/2 68/2/2
f 64/2/17 63/2/17 66/2/17 65/2/17
f 63/2/18 62/2/18 67/2/18 66/2/18
f 62/2/19 61/2/19 68/2/19 67/2/19
f 61/2/20 64/2/20 65/2/20 68/2/20
f 69/1/1 70/1/1 71/1/1 72/1/1
f 73/1/2 74/1/2 75/1/2 76/1/2
f 69/1/11 72/1/11 74/1/11 73/1/11
f 71/1/13 70/1/13 76/1/13 75/1/13
f 69/1/20 73/1/20 76/1/20 70/1/20
f 72/1/18 71/1/18 75/1/18 74/1/18
f 77/1/1 78/1/1 79/1/1 80/1/1
f 81/1/2 82/1/2 83/1/2 84/1/2
f 77/1/11 80/1/11 82/1/11 81/1/11
f 79/1/13 78/1/13 84/1/13 83/1/13
f 77/1/20 81/1/20 84/1/20 78/1/20
f 80/1/18 79/1/18 83/1/18 82/1/18
f 85/1/1 86/1/1 87/1/1 88/1/1
f 89/1/2 90/1/2 91/1/2 92/1/2
f 85/1/11 88/1/11 90/1/11 89/1/11
f 87/1/13 86/1/13 92/1/13 91/1/13
f 85/1/20 89/1/20 92/1/20 86/1/20
f 88/1/18 87/1/18 91/1/18 90/1/18
f 93/1/1 94/1/1 95/1/1 96/1/1
f 97/1/2 98/1/2 99/1/2 100/1/2
f 93/1/11 96/1/11 98/1/11 97/1/11
f 95/1/13 94/1/13 100/1/13 99/1/13
f 93/1/20 97/1/20 100/1/20 94/1/20
f 96/1/18 95/1/18 99/1/18 98/1/18
f 101/1/1 102/1/1 103/1/1 104/1/1
f 105/1/2 106/1/2 107/1/2 108/1/2
f 101/1/11 104/1/11 106/1/11 105/1/11
f 103/1/13 102/1/13 108/1/13 107/1/13
f 101/1/20 105/1/20 108/1/20 102/1/20
f 104/1/18 103/1/18 107/1/18 106/1/18
