# Blender 5.2.0 LTS
# www.blender.org
mtllib FN_Chair_Rattan.mtl
o FN_Chair_Rattan
v -0.390000 0.000000 0.390000
v -0.390000 0.000000 0.330000
v -0.330000 0.000000 0.330000
v -0.330000 0.000000 0.390000
v -0.390000 0.122000 0.390000
v -0.330000 0.122000 0.390000
v -0.330000 0.122000 0.330000
v -0.390000 0.122000 0.330000
v -0.390000 0.000000 -0.330000
v -0.390000 0.000000 -0.390000
v -0.330000 0.000000 -0.390000
v -0.330000 0.000000 -0.330000
v -0.390000 0.122000 -0.330000
v -0.330000 0.122000 -0.330000
v -0.330000 0.122000 -0.390000
v -0.390000 0.122000 -0.390000
v 0.330000 0.000000 0.390000
v 0.330000 0.000000 0.330000
v 0.390000 0.000000 0.330000
v 0.390000 0.000000 0.390000
v 0.330000 0.122000 0.390000
v 0.390000 0.122000 0.390000
v 0.390000 0.122000 0.330000
v 0.330000 0.122000 0.330000
v 0.330000 0.000000 -0.330000
v 0.330000 0.000000 -0.390000
v 0.390000 0.000000 -0.390000
v 0.390000 0.000000 -0.330000
v 0.330000 0.122000 -0.330000
v 0.390000 0.122000 -0.330000
v 0.390000 0.122000 -0.390000
v 0.330000 0.122000 -0.390000
v -0.400000 0.110000 0.400000
v -0.400000 0.110000 -0.400000
v -0.340000 0.110000 -0.400000
v -0.340000 0.110000 0.400000
v -0.400000 0.400000 0.400000
v -0.340000 0.400000 0.400000
v -0.340000 0.400000 -0.400000
v -0.400000 0.400000 -0.400000
v -0.396000 0.380000 0.392000
v -0.396000 0.380000 0.330000
v -0.344000 0.380000 0.330000
v -0.344000 0.380000 0.392000
v -0.396000 0.560000 0.392000
v -0.344000 0.560000 0.392000
v -0.344000 0.560000 0.330000
v -0.396000 0.560000 0.330000
v -0.396000 0.380000 -0.330000
v -0.396000 0.380000 -0.392000
v -0.344000 0.380000 -0.392000
v -0.344000 0.380000 -0.330000
v -0.396000 0.560000 -0.330000
v -0.344000 0.560000 -0.330000
v -0.344000 0.560000 -0.392000
v -0.396000 0.560000 -0.392000
v -0.406000 0.548000 0.404000
v -0.406000 0.548000 -0.404000
v -0.334000 0.548000 -0.404000
v -0.334000 0.548000 0.404000
v -0.406000 0.580000 0.404000
v -0.334000 0.580000 0.404000
v -0.334000 0.580000 -0.404000
v -0.406000 0.580000 -0.404000
v 0.340000 0.110000 0.400000
v 0.340000 0.110000 -0.400000
v 0.400000 0.110000 -0.400000
v 0.400000 0.110000 0.400000
v 0.340000 0.400000 0.400000
v 0.400000 0.400000 0.400000
v 0.400000 0.400000 -0.400000
v 0.340000 0.400000 -0.400000
v 0.344000 0.380000 0.392000
v 0.344000 0.380000 0.330000
v 0.396000 0.380000 0.330000
v 0.396000 0.380000 0.392000
v 0.344000 0.560000 0.392000
v 0.396000 0.560000 0.392000
v 0.396000 0.560000 0.330000
v 0.344000 0.560000 0.330000
v 0.344000 0.380000 -0.330000
v 0.344000 0.380000 -0.392000
v 0.396000 0.380000 -0.392000
v 0.396000 0.380000 -0.330000
v 0.344000 0.560000 -0.330000
v 0.396000 0.560000 -0.330000
v 0.396000 0.560000 -0.392000
v 0.344000 0.560000 -0.392000
v 0.334000 0.548000 0.404000
v 0.334000 0.548000 -0.404000
v 0.406000 0.548000 -0.404000
v 0.406000 0.548000 0.404000
v 0.334000 0.580000 0.404000
v 0.406000 0.580000 0.404000
v 0.406000 0.580000 -0.404000
v 0.334000 0.580000 -0.404000
v -0.352000 0.110000 -0.344000
v -0.352000 0.110000 -0.396000
v 0.352000 0.110000 -0.396000
v 0.352000 0.110000 -0.344000
v -0.352000 0.700000 -0.344000
v 0.352000 0.700000 -0.344000
v 0.352000 0.700000 -0.396000
v -0.352000 0.700000 -0.396000
v -0.352000 0.110000 0.396000
v -0.352000 0.110000 0.344000
v 0.352000 0.110000 0.344000
v 0.352000 0.110000 0.396000
v -0.352000 0.330000 0.396000
v 0.352000 0.330000 0.396000
v 0.352000 0.330000 0.344000
v -0.352000 0.330000 0.344000
v -0.352000 0.290000 0.350000
v -0.352000 0.290000 -0.350000
v 0.352000 0.290000 -0.350000
v 0.352000 0.290000 0.350000
v -0.352000 0.320000 0.350000
v 0.352000 0.320000 0.350000
v 0.352000 0.320000 -0.350000
v -0.352000 0.320000 -0.350000
v -0.330000 0.312000 -0.330000
v 0.330000 0.312000 -0.330000
v 0.330000 0.312000 0.336000
v -0.330000 0.312000 0.336000
v -0.312000 0.420000 0.318000
v 0.312000 0.420000 0.318000
v 0.312000 0.420000 -0.312000
v -0.312000 0.420000 -0.312000
v -0.330000 0.672000 -0.220000
v -0.330000 0.672000 -0.336000
v -0.330000 0.400000 -0.312000
v -0.330000 0.400000 -0.196000
v 0.330000 0.400000 -0.196000
v 0.330000 0.400000 -0.312000
v 0.330000 0.672000 -0.336000
v 0.330000 0.672000 -0.220000
vn -0.0000 -1.0000 -0.0000
vn -0.0000 1.0000 -0.0000
vn -0.0000 -0.0000 1.0000
vn -0.0000 -0.0000 -1.0000
vn -1.0000 -0.0000 -0.0000
vn 1.0000 -0.0000 -0.0000
vn -0.0000 0.1644 0.9864
vn 0.9864 0.1644 -0.0000
vn -0.0000 0.1644 -0.9864
vn -0.9864 0.1644 -0.0000
vn -0.0000 -0.0879 -0.9961
vn -0.0000 0.0879 0.9961
vt 0.812500 0.937500
vt 0.562500 0.687500
s 0
usemtl FN_Atlas
f 1/1/1 2/1/1 3/1/1 4/1/1
f 5/1/2 6/1/2 7/1/2 8/1/2
f 1/1/3 4/1/3 6/1/3 5/1/3
f 3/1/4 2/1/4 8/1/4 7/1/4
f 1/1/5 5/1/5 8/1/5 2/1/5
f 4/1/6 3/1/6 7/1/6 6/1/6
f 9/1/1 10/1/1 11/1/1 12/1/1
f 13/1/2 14/1/2 15/1/2 16/1/2
f 9/1/3 12/1/3 14/1/3 13/1/3
f 11/1/4 10/1/4 16/1/4 15/1/4
f 9/1/5 13/1/5 16/1/5 10/1/5
f 12/1/6 11/1/6 15/1/6 14/1/6
f 17/1/1 18/1/1 19/1/1 20/1/1
f 21/1/2 22/1/2 23/1/2 24/1/2
f 17/1/3 20/1/3 22/1/3 21/1/3
f 19/1/4 18/1/4 24/1/4 23/1/4
f 17/1/5 21/1/5 24/1/5 18/1/5
f 20/1/6 19/1/6 23/1/6 22/1/6
f 25/1/1 26/1/1 27/1/1 28/1/1
f 29/1/2 30/1/2 31/1/2 32/1/2
f 25/1/3 28/1/3 30/1/3 29/1/3
f 27/1/4 26/1/4 32/1/4 31/1/4
f 25/1/5 29/1/5 32/1/5 26/1/5
f 28/1/6 27/1/6 31/1/6 30/1/6
f 33/1/1 34/1/1 35/1/1 36/1/1
f 37/1/2 38/1/2 39/1/2 40/1/2
f 33/1/3 36/1/3 38/1/3 37/1/3
f 35/1/4 34/1/4 40/1/4 39/1/4
f 33/1/5 37/1/5 40/1/5 34/1/5
f 36/1/6 35/1/6 39/1/6 38/1/6
f 41/1/1 42/1/1 43/1/1 44/1/1
f 45/1/2 46/1/2 47/1/2 48/1/2
f 41/1/3 44/1/3 46/1/3 45/1/3
f 43/1/4 42/1/4 48/1/4 47/1/4
f 41/1/5 45/1/5 48/1/5 42/1/5
f 44/1/6 43/1/6 47/1/6 46/1/6
f 49/1/1 50/1/1 51/1/1 52/1/1
f 53/1/2 54/1/2 55/1/2 56/1/2
f 49/1/3 52/1/3 54/1/3 53/1/3
f 51/1/4 50/1/4 56/1/4 55/1/4
f 49/1/5 53/1/5 56/1/5 50/1/5
f 52/1/6 51/1/6 55/1/6 54/1/6
f 57/1/1 58/1/1 59/1/1 60/1/1
f 61/1/2 62/1/2 63/1/2 64/1/2
f 57/1/3 60/1/3 62/1/3 61/1/3
f 59/1/4 58/1/4 64/1/4 63/1/4
f 57/1/5 61/1/5 64/1/5 58/1/5
f 60/1/6 59/1/6 63/1/6 62/1/6
f 65/1/1 66/1/1 67/1/1 68/1/1
f 69/1/2 70/1/2 71/1/2 72/1/2
f 65/1/3 68/1/3 70/1/3 69/1/3
f 67/1/4 66/1/4 72/1/4 71/1/4
f 65/1/5 69/1/5 72/1/5 66/1/5
f 68/1/6 67/1/6 71/1/6 70/1/6
f 73/1/1 74/1/1 75/1/1 76/1/1
f 77/1/2 78/1/2 79/1/2 80/1/2
f 73/1/3 76/1/3 78/1/3 77/1/3
f 75/1/4 74/1/4 80/1/4 79/1/4
f 73/1/5 77/1/5 80/1/5 74/1/5
f 76/1/6 75/1/6 79/1/6 78/1/6
f 81/1/1 82/1/1 83/1/1 84/1/1
f 85/1/2 86/1/2 87/1/2 88/1/2
f 81/1/3 84/1/3 86/1/3 85/1/3
f 83/1/4 82/1/4 88/1/4 87/1/4
f 81/1/5 85/1/5 88/1/5 82/1/5
f 84/1/6 83/1/6 87/1/6 86/1/6
f 89/1/1 90/1/1 91/1/1 92/1/1
f 93/1/2 94/1/2 95/1/2 96/1/2
f 89/1/3 92/1/3 94/1/3 93/1/3
f 91/1/4 90/1/4 96/1/4 95/1/4
f 89/1/5 93/1/5 96/1/5 90/1/5
f 92/1/6 91/1/6 95/1/6 94/1/6
f 97/1/1 98/1/1 99/1/1 100/1/1
f 101/1/2 102/1/2 103/1/2 104/1/2
f 97/1/3 100/1/3 102/1/3 101/1/3
f 99/1/4 98/1/4 104/1/4 103/1/4
f 97/1/5 101/1/5 104/1/5 98/1/5
f 100/1/6 99/1/6 103/1/6 102/1/6
f 105/1/1 106/1/1 107/1/1 108/1/1
f 109/1/2 110/1/2 111/1/2 112/1/2
f 105/1/3 108/1/3 110/1/3 109/1/3
f 107/1/4 106/1/4 112/1/4 111/1/4
f 105/1/5 109/1/5 112/1/5 106/1/5
f 108/1/6 107/1/6 111/1/6 110/1/6
f 113/1/1 114/1/1 115/1/1 116/1/1
f 117/1/2 118/1/2 119/1/2 120/1/2
f 113/1/3 116/1/3 118/1/3 117/1/3
f 115/1/4 114/1/4 120/1/4 119/1/4
f 113/1/5 117/1/5 120/1/5 114/1/5
f 116/1/6 115/1/6 119/1/6 118/1/6
f 121/2/1 122/2/1 123/2/1 124/2/1
f 125/2/2 126/2/2 127/2/2 128/2/2
f 124/2/7 123/2/7 126/2/7 125/2/7
f 123/2/8 122/2/8 127/2/8 126/2/8
f 122/2/9 121/2/9 128/2/9 127/2/9
f 121/2/10 124/2/10 125/2/10 128/2/10
f 129/2/5 130/2/5 131/2/5 132/2/5
f 133/2/6 134/2/6 135/2/6 136/2/6
f 132/2/1 131/2/1 134/2/1 133/2/1
f 131/2/11 130/2/11 135/2/11 134/2/11
f 130/2/2 129/2/2 136/2/2 135/2/2
f 129/2/12 132/2/12 133/2/12 136/2/12
