# Blender 5.2.0 LTS
# www.blender.org
mtllib FN_Chair_High.mtl
o FN_Chair_High
v -0.259000 0.000000 0.231000
v -0.211000 0.000000 0.231000
v -0.211000 0.000000 0.279000
v -0.259000 0.000000 0.279000
v -0.174000 0.560000 0.194000
v -0.126000 0.560000 0.194000
v -0.126000 0.560000 0.146000
v -0.174000 0.560000 0.146000
v -0.259000 0.000000 -0.279000
v -0.211000 0.000000 -0.279000
v -0.211000 0.000000 -0.231000
v -0.259000 0.000000 -0.231000
v -0.174000 0.560000 -0.146000
v -0.126000 0.560000 -0.146000
v -0.126000 0.560000 -0.194000
v -0.174000 0.560000 -0.194000
v 0.211000 0.000000 0.231000
v 0.259000 0.000000 0.231000
v 0.259000 0.000000 0.279000
v 0.211000 0.000000 0.279000
v 0.126000 0.560000 0.194000
v 0.174000 0.560000 0.194000
v 0.174000 0.560000 0.146000
v 0.126000 0.560000 0.146000
v 0.211000 0.000000 -0.279000
v 0.259000 0.000000 -0.279000
v 0.259000 0.000000 -0.231000
v 0.211000 0.000000 -0.231000
v 0.126000 0.560000 -0.146000
v 0.174000 0.560000 -0.146000
v 0.174000 0.560000 -0.194000
v 0.126000 0.560000 -0.194000
v -0.212000 0.240000 0.251902
v -0.212000 0.240000 0.181902
v 0.212000 0.240000 0.181902
v 0.212000 0.240000 0.251902
v -0.212000 0.262000 0.251902
v 0.212000 0.262000 0.251902
v 0.212000 0.262000 0.181902
v -0.212000 0.262000 0.181902
v -0.207464 0.288000 0.209464
v -0.207464 0.288000 -0.209464
v -0.171464 0.288000 -0.209464
v -0.171464 0.288000 0.209464
v -0.207464 0.312000 0.209464
v -0.171464 0.312000 0.209464
v -0.171464 0.312000 -0.209464
v -0.207464 0.312000 -0.209464
v 0.171464 0.288000 0.209464
v 0.171464 0.288000 -0.209464
v 0.207464 0.288000 -0.209464
v 0.207464 0.288000 0.209464
v 0.171464 0.312000 0.209464
v 0.207464 0.312000 0.209464
v 0.207464 0.312000 -0.209464
v 0.171464 0.312000 -0.209464
v -0.185000 0.530000 0.200000
v -0.185000 0.530000 -0.200000
v 0.185000 0.530000 -0.200000
v 0.185000 0.530000 0.200000
v -0.185000 0.575000 0.200000
v 0.185000 0.575000 0.200000
v 0.185000 0.575000 -0.200000
v -0.185000 0.575000 -0.200000
v -0.172000 0.540000 -0.158000
v -0.172000 0.540000 -0.202000
v -0.128000 0.540000 -0.202000
v -0.128000 0.540000 -0.158000
v -0.172000 0.900000 -0.158000
v -0.128000 0.900000 -0.158000
v -0.128000 0.900000 -0.202000
v -0.172000 0.900000 -0.202000
v 0.128000 0.540000 -0.158000
v 0.128000 0.540000 -0.202000
v 0.172000 0.540000 -0.202000
v 0.172000 0.540000 -0.158000
v 0.128000 0.900000 -0.158000
v 0.172000 0.900000 -0.158000
v 0.172000 0.900000 -0.202000
v 0.128000 0.900000 -0.202000
v -0.165000 0.620000 -0.169000
v -0.165000 0.620000 -0.191000
v 0.165000 0.620000 -0.191000
v 0.165000 0.620000 -0.169000
v -0.165000 0.660000 -0.169000
v 0.165000 0.660000 -0.169000
v 0.165000 0.660000 -0.191000
v -0.165000 0.660000 -0.191000
v -0.165000 0.860000 -0.169000
v -0.165000 0.860000 -0.191000
v 0.165000 0.860000 -0.191000
v 0.165000 0.860000 -0.169000
v -0.165000 0.900000 -0.169000
v 0.165000 0.900000 -0.169000
v 0.165000 0.900000 -0.191000
v -0.165000 0.900000 -0.191000
v -0.103000 0.640000 -0.171000
v -0.103000 0.640000 -0.189000
v -0.077000 0.640000 -0.189000
v -0.077000 0.640000 -0.171000
v -0.103000 0.880000 -0.171000
v -0.077000 0.880000 -0.171000
v -0.077000 0.880000 -0.189000
v -0.103000 0.880000 -0.189000
v -0.013000 0.640000 -0.171000
v -0.013000 0.640000 -0.189000
v 0.013000 0.640000 -0.189000
v 0.013000 0.640000 -0.171000
v -0.013000 0.880000 -0.171000
v 0.013000 0.880000 -0.171000
v 0.013000 0.880000 -0.189000
v -0.013000 0.880000 -0.189000
v 0.077000 0.640000 -0.171000
v 0.077000 0.640000 -0.189000
v 0.103000 0.640000 -0.189000
v 0.103000 0.640000 -0.171000
v 0.077000 0.880000 -0.171000
v 0.103000 0.880000 -0.171000
v 0.103000 0.880000 -0.189000
v 0.077000 0.880000 -0.189000
v -0.168000 0.740000 0.170000
v -0.168000 0.740000 -0.190000
v -0.132000 0.740000 -0.190000
v -0.132000 0.740000 0.170000
v -0.168000 0.764000 0.170000
v -0.132000 0.764000 0.170000
v -0.132000 0.764000 -0.190000
v -0.168000 0.764000 -0.190000
v 0.132000 0.740000 0.170000
v 0.132000 0.740000 -0.190000
v 0.168000 0.740000 -0.190000
v 0.168000 0.740000 0.170000
v 0.132000 0.764000 0.170000
v 0.168000 0.764000 0.170000
v 0.168000 0.764000 -0.190000
v 0.132000 0.764000 -0.190000
v -0.215000 0.756000 0.250000
v -0.215000 0.756000 0.010000
v 0.215000 0.756000 0.010000
v 0.215000 0.756000 0.250000
v -0.215000 0.786000 0.250000
v 0.215000 0.786000 0.250000
v 0.215000 0.786000 0.010000
v -0.215000 0.786000 0.010000
v -0.150000 0.567000 -0.160000
v 0.150000 0.567000 -0.160000
v 0.150000 0.567000 0.160000
v -0.150000 0.567000 0.160000
v -0.150000 0.593000 0.160000
v 0.150000 0.593000 0.160000
v 0.150000 0.593000 -0.160000
v -0.150000 0.593000 -0.160000
vn -0.0000 -1.0000 -0.0000
vn -0.0000 1.0000 -0.0000
vn -0.0000 0.1501 0.9887
vn 0.9887 -0.1501 -0.0000
vn -0.0000 -0.1501 -0.9887
vn -0.9887 0.1501 -0.0000
vn -0.0000 -0.1501 0.9887
vn -0.0000 0.1501 -0.9887
vn 0.9887 0.1501 -0.0000
vn -0.9887 -0.1501 -0.0000
vn -0.0000 -0.0000 1.0000
vn -0.0000 -0.0000 -1.0000
vn -1.0000 -0.0000 -0.0000
vn 1.0000 -0.0000 -0.0000
vt 0.687500 0.937500
vt 0.687500 0.062500
vt 0.062500 0.562500
s 0
usemtl FN_Atlas
f 1/1/1 2/1/1 3/1/1 4/1/1
f 5/1/2 6/1/2 7/1/2 8/1/2
f 4/1/3 3/1/3 6/1/3 5/1/3
f 3/1/4 2/1/4 7/1/4 6/1/4
f 2/1/5 1/1/5 8/1/5 7/1/5
f 1/1/6 4/1/6 5/1/6 8/1/6
f 9/1/1 10/1/1 11/1/1 12/1/1
f 13/1/2 14/1/2 15/1/2 16/1/2
f 12/1/7 11/1/7 14/1/7 13/1/7
f 11/1/4 10/1/4 15/1/4 14/1/4
f 10/1/8 9/1/8 16/1/8 15/1/8
f 9/1/6 12/1/6 13/1/6 16/1/6
f 17/1/1 18/1/1 19/1/1 20/1/1
f 21/1/2 22/1/2 23/1/2 24/1/2
f 20/1/3 19/1/3 22/1/3 21/1/3
f 19/1/9 18/1/9 23/1/9 22/1/9
f 18/1/5 17/1/5 24/1/5 23/1/5
f 17/1/10 20/1/10 21/1/10 24/1/10
f 25/1/1 26/1/1 27/1/1 28/1/1
f 29/1/2 30/1/2 31/1/2 32/1/2
f 28/1/7 27/1/7 30/1/7 29/1/7
f 27/1/9 26/1/9 31/1/9 30/1/9
f 26/1/8 25/1/8 32/1/8 31/1/8
f 25/1/10 28/1/10 29/1/10 32/1/10
f 33/1/1 34/1/1 35/1/1 36/1/1
f 37/1/2 38/1/2 39/1/2 40/1/2
f 33/1/11 36/1/11 38/1/11 37/1/11
f 35/1/12 34/1/12 40/1/12 39/1/12
f 33/1/13 37/1/13 40/1/13 34/1/13
f 36/1/14 35/1/14 39/1/14 38/1/14
f 41/1/1 42/1/1 43/1/1 44/1/1
f 45/1/2 46/1/2 47/1/2 48/1/2
f 41/1/11 44/1/11 46/1/11 45/1/11
f 43/1/12 42/1/12 48/1/12 47/1/12
f 41/1/13 45/1/13 48/1/13 42/1/13
f 44/1/14 43/1/14 47/1/14 46/1/14
f 49/1/1 50/1/1 51/1/1 52/1/1
f 53/1/2 54/1/2 55/1/2 56/1/2
f 49/1/11 52/1/11 54/1/11 53/1/11
f 51/1/12 50/1/12 56/1/12 55/1/12
f 49/1/13 53/1/13 56/1/13 50/1/13
f 52/1/14 51/1/14 55/1/14 54/1/14
f 57/1/1 58/1/1 59/1/1 60/1/1
f 61/1/2 62/1/2 63/1/2 64/1/2
f 57/1/11 60/1/11 62/1/11 61/1/11
f 59/1/12 58/1/12 64/1/12 63/1/12
f 57/1/13 61/1/13 64/1/13 58/1/13
f 60/1/14 59/1/14 63/1/14 62/1/14
f 65/1/1 66/1/1 67/1/1 68/1/1
f 69/1/2 70/1/2 71/1/2 72/1/2
f 65/1/11 68/1/11 70/1/11 69/1/11
f 67/1/12 66/1/12 72/1/12 71/1/12
f 65/1/13 69/1/13 72/1/13 66/1/13
f 68/1/14 67/1/14 71/1/14 70/1/14
f 73/1/1 74/1/1 75/1/1 76/1/1
f 77/1/2 78/1/2 79/1/2 80/1/2
f 73/1/11 76/1/11 78/1/11 77/1/11
f 75/1/12 74/1/12 80/1/12 79/1/12
f 73/1/13 77/1/13 80/1/13 74/1/13
f 76/1/14 75/1/14 79/1/14 78/1/14
f 81/1/1 82/1/1 83/1/1 84/1/1
f 85/1/2 86/1/2 87/1/2 88/1/2
f 81/1/11 84/1/11 86/1/11 85/1/11
f 83/1/12 82/1/12 88/1/12 87/1/12
f 81/1/13 85/1/13 88/1/13 82/1/13
f 84/1/14 83/1/14 87/1/14 86/1/14
f 89/1/1 90/1/1 91/1/1 92/1/1
f 93/1/2 94/1/2 95/1/2 96/1/2
f 89/1/11 92/1/11 94/1/11 93/1/11
f 91/1/12 90/1/12 96/1/12 95/1/12
f 89/1/13 93/1/13 96/1/13 90/1/13
f 92/1/14 91/1/14 95/1/14 94/1/14
f 97/1/1 98/1/1 99/1/1 100/1/1
f 101/1/2 102/1/2 103/1/2 104/1/2
f 97/1/11 100/1/11 102/1/11 101/1/11
f 99/1/12 98/1/12 104/1/12 103/1/12
f 97/1/13 101/1/13 104/1/13 98/1/13
f 100/1/14 99/1/14 103/1/14 102/1/14
f 105/1/1 106/1/1 107/1/1 108/1/1
f 109/1/2 110/1/2 111/1/2 112/1/2
f 105/1/11 108/1/11 110/1/11 109/1/11
f 107/1/12 106/1/12 112/1/12 111/1/12
f 105/1/13 109/1/13 112/1/13 106/1/13
f 108/1/14 107/1/14 111/1/14 110/1/14
f 113/1/1 114/1/1 115/1/1 116/1/1
f 117/1/2 118/1/2 119/1/2 120/1/2
f 113/1/11 116/1/11 118/1/11 117/1/11
f 115/1/12 114/1/12 120/1/12 119/1/12
f 113/1/13 117/1/13 120/1/13 114/1/13
f 116/1/14 115/1/14 119/1/14 118/1/14
f 121/1/1 122/1/1 123/1/1 124/1/1
f 125/1/2 126/1/2 127/1/2 128/1/2
f 121/1/11 124/1/11 126/1/11 125/1/11
f 123/1/12 122/1/12 128/1/12 127/1/12
f 121/1/13 125/1/13 128/1/13 122/1/13
f 124/1/14 123/1/14 127/1/14 126/1/14
f 129/1/1 130/1/1 131/1/1 132/1/1
f 133/1/2 134/1/2 135/1/2 136/1/2
f 129/1/11 132/1/11 134/1/11 133/1/11
f 131/1/12 130/1/12 136/1/12 135/1/12
f 129/1/13 133/1/13 136/1/13 130/1/13
f 132/1/14 131/1/14 135/1/14 134/1/14
f 137/2/1 138/2/1 139/2/1 140/2/1
f 141/2/2 142/2/2 143/2/2 144/2/2
f 137/2/11 140/2/11 142/2/11 141/2/11
f 139/2/12 138/2/12 144/2/12 143/2/12
f 137/2/13 141/2/13 144/2/13 138/2/13
f 140/2/14 139/2/14 143/2/14 142/2/14
f 145/3/1 146/3/1 147/3/1 148/3/1
f 149/3/2 150/3/2 151/3/2 152/3/2
f 148/3/11 147/3/11 150/3/11 149/3/11
f 147/3/14 146/3/14 151/3/14 150/3/14
f 146/3/12 145/3/12 152/3/12 151/3/12
f 145/3/13 148/3/13 149/3/13 152/3/13
