# Blender 5.2.0 LTS
# www.blender.org
mtllib FN_Chair_Tub.mtl
o FN_Chair_Tub
v 0.212493 0.150000 0.329227
v 0.323424 0.150000 0.219765
v 0.323424 0.663274 0.219765
v 0.212493 0.640000 0.329227
v 0.376892 0.150000 0.076724
v 0.376892 0.693687 0.076724
v 0.363396 0.150000 -0.074481
v 0.363396 0.725836 -0.074481
v 0.285334 0.150000 -0.206985
v 0.285334 0.754009 -0.206985
v 0.156577 0.150000 -0.297246
v 0.156577 0.773200 -0.297246
v 0.000000 0.150000 -0.329227
v 0.000000 0.780000 -0.329227
v -0.156577 0.150000 -0.297246
v -0.156577 0.773200 -0.297246
v -0.285334 0.150000 -0.206985
v -0.285334 0.754009 -0.206985
v -0.363396 0.150000 -0.074481
v -0.363396 0.725836 -0.074481
v -0.376892 0.150000 0.076724
v -0.376892 0.693687 0.076724
v -0.323424 0.150000 0.219765
v -0.323424 0.663274 0.219765
v -0.212493 0.150000 0.329227
v -0.212493 0.640000 0.329227
v 0.251079 0.150000 0.175142
v 0.164962 0.150000 0.258759
v 0.164962 0.640000 0.258759
v 0.251079 0.663274 0.175142
v 0.292587 0.150000 0.065875
v 0.292587 0.693687 0.065875
v 0.282110 0.150000 -0.049629
v 0.282110 0.725836 -0.049629
v 0.221510 0.150000 -0.150847
v 0.221510 0.754009 -0.150847
v 0.121553 0.150000 -0.219797
v 0.121553 0.773200 -0.219797
v 0.000000 0.150000 -0.244227
v 0.000000 0.780000 -0.244227
v -0.121553 0.150000 -0.219797
v -0.121553 0.773200 -0.219797
v -0.221510 0.150000 -0.150847
v -0.221510 0.754009 -0.150847
v -0.282110 0.150000 -0.049629
v -0.282110 0.725836 -0.049629
v -0.292587 0.150000 0.065875
v -0.292587 0.693687 0.065875
v -0.251079 0.150000 0.175142
v -0.251079 0.663274 0.175142
v -0.164962 0.150000 0.258759
v -0.164962 0.640000 0.258759
v 0.170554 0.150000 0.278773
v -0.170554 0.150000 0.278773
v -0.170554 0.150000 0.267049
v -0.259591 0.150000 0.180392
v -0.302505 0.150000 0.067151
v -0.291673 0.150000 -0.052553
v -0.229018 0.150000 -0.157452
v -0.125674 0.150000 -0.228908
v 0.000000 0.150000 -0.254227
v 0.125674 0.150000 -0.228908
v 0.229018 0.150000 -0.157452
v 0.291673 0.150000 -0.052553
v 0.302505 0.150000 0.067151
v 0.259591 0.150000 0.180392
v 0.170554 0.150000 0.267049
v 0.259591 0.410000 0.180392
v 0.170554 0.410000 0.267049
v 0.302505 0.410000 0.067151
v 0.291673 0.410000 -0.052553
v 0.229018 0.410000 -0.157452
v 0.125674 0.410000 -0.228908
v 0.000000 0.410000 -0.254227
v -0.125674 0.410000 -0.228908
v -0.229018 0.410000 -0.157452
v -0.291673 0.410000 -0.052553
v -0.302505 0.410000 0.067151
v -0.259591 0.410000 0.180392
v -0.170554 0.410000 0.267049
v -0.170554 0.410000 0.278773
v 0.170554 0.410000 0.278773
v 0.164811 0.420000 0.259078
v 0.250850 0.420000 0.175338
v 0.292320 0.420000 0.065911
v 0.281852 0.420000 -0.049763
v 0.221307 0.420000 -0.151130
v 0.121442 0.420000 -0.220180
v 0.000000 0.420000 -0.244646
v -0.121442 0.420000 -0.220180
v -0.221307 0.420000 -0.151130
v -0.281852 0.420000 -0.049763
v -0.292320 0.420000 0.065911
v -0.250850 0.420000 0.175338
v -0.164811 0.420000 0.259078
v -0.164811 0.420000 0.270407
v 0.164811 0.420000 0.270407
v 0.226800 0.000000 0.215173
v 0.260800 0.000000 0.215173
v 0.260800 0.000000 0.249173
v 0.226800 0.000000 0.249173
v 0.205000 0.156000 0.245773
v 0.255000 0.156000 0.245773
v 0.255000 0.156000 0.195773
v 0.205000 0.156000 0.195773
v -0.260800 0.000000 0.215173
v -0.226800 0.000000 0.215173
v -0.226800 0.000000 0.249173
v -0.260800 0.000000 0.249173
v -0.255000 0.156000 0.245773
v -0.205000 0.156000 0.245773
v -0.205000 0.156000 0.195773
v -0.255000 0.156000 0.195773
v 0.226800 0.000000 -0.230027
v 0.260800 0.000000 -0.230027
v 0.260800 0.000000 -0.196027
v 0.226800 0.000000 -0.196027
v 0.205000 0.156000 -0.174227
v 0.255000 0.156000 -0.174227
v 0.255000 0.156000 -0.224227
v 0.205000 0.156000 -0.224227
v -0.260800 0.000000 -0.230027
v -0.226800 0.000000 -0.230027
v -0.226800 0.000000 -0.196027
v -0.260800 0.000000 -0.196027
v -0.255000 0.156000 -0.174227
v -0.205000 0.156000 -0.174227
v -0.205000 0.156000 -0.224227
v -0.255000 0.156000 -0.224227
vn 0.7024 -0.0000 0.7118
vn 0.9367 -0.0000 0.3501
vn 0.9960 -0.0000 -0.0889
vn 0.8616 -0.0000 -0.5076
vn 0.5740 -0.0000 -0.8188
vn 0.2001 -0.0000 -0.9798
vn -0.2001 -0.0000 -0.9798
vn -0.5740 -0.0000 -0.8188
vn -0.8616 -0.0000 -0.5076
vn -0.9960 -0.0000 -0.0889
vn -0.9367 -0.0000 0.3501
vn -0.7024 -0.0000 0.7118
vn -0.6966 -0.0000 -0.7174
vn -0.9348 -0.0000 -0.3551
vn -0.9959 -0.0000 0.0903
vn -0.8580 -0.0000 0.5137
vn -0.5678 -0.0000 0.8232
vn -0.1970 -0.0000 0.9804
vn 0.1970 -0.0000 0.9804
vn 0.5678 -0.0000 0.8232
vn 0.8580 -0.0000 0.5137
vn 0.9959 -0.0000 0.0903
vn 0.9348 -0.0000 -0.3551
vn 0.6966 -0.0000 -0.7174
vn -0.1153 0.9860 0.1201
vn -0.0735 0.9755 0.2075
vn 0.0197 0.9724 0.2326
vn 0.0990 0.9792 0.1773
vn 0.1097 0.9906 0.0812
vn 0.0468 0.9989 0.0101
vn -0.0468 0.9989 0.0101
vn -0.1097 0.9906 0.0812
vn -0.0990 0.9792 0.1773
vn -0.0197 0.9724 0.2326
vn 0.0735 0.9755 0.2075
vn 0.1153 0.9860 0.1201
vn -0.0000 -1.0000 -0.0000
vn 0.8290 -0.0000 -0.5592
vn -0.8290 -0.0000 -0.5592
vn 0.6975 -0.0000 0.7166
vn 0.9351 -0.0000 0.3544
vn 0.9959 -0.0000 -0.0901
vn 0.8585 -0.0000 -0.5128
vn 0.5687 -0.0000 -0.8225
vn 0.1975 -0.0000 -0.9803
vn -0.1975 -0.0000 -0.9803
vn -0.5687 -0.0000 -0.8225
vn -0.8585 -0.0000 -0.5128
vn -0.9959 -0.0000 -0.0901
vn -0.9351 -0.0000 0.3544
vn -0.6975 -0.0000 0.7166
vn -1.0000 -0.0000 -0.0000
vn -0.0000 -0.0000 1.0000
vn 1.0000 -0.0000 -0.0000
vn -0.0000 1.0000 -0.0000
vn 0.5002 0.6969 0.5139
vn 0.6624 0.7058 0.2510
vn 0.7031 0.7082 -0.0636
vn 0.6113 0.7022 -0.3651
vn 0.4106 0.6920 -0.5938
vn 0.1440 0.6846 -0.7146
vn -0.1440 0.6846 -0.7146
vn -0.4106 0.6920 -0.5938
vn -0.6113 0.7022 -0.3651
vn -0.7031 0.7082 -0.0636
vn -0.6624 0.7058 0.2510
vn -0.5002 0.6969 0.5139
vn -0.8672 0.4980 -0.0000
vn -0.0000 0.6417 0.7670
vn 0.8672 0.4980 -0.0000
vn -0.0000 0.0218 0.9998
vn 0.9993 0.0372 -0.0000
vn -0.0000 -0.1234 -0.9924
vn -0.9904 -0.1384 -0.0000
vn 0.9904 -0.1384 -0.0000
vn -0.9993 0.0372 -0.0000
vn -0.0000 -0.1384 0.9904
vn -0.0000 0.0372 -0.9993
vt 0.687500 0.562500
vt 0.312500 0.687500
vt 0.312500 0.937500
s 0
usemtl FN_Atlas
f 1/1/1 2/1/1 3/1/1 4/1/1
f 2/1/2 5/1/2 6/1/2 3/1/2
f 5/1/3 7/1/3 8/1/3 6/1/3
f 7/1/4 9/1/4 10/1/4 8/1/4
f 9/1/5 11/1/5 12/1/5 10/1/5
f 11/1/6 13/1/6 14/1/6 12/1/6
f 13/1/7 15/1/7 16/1/7 14/1/7
f 15/1/8 17/1/8 18/1/8 16/1/8
f 17/1/9 19/1/9 20/1/9 18/1/9
f 19/1/10 21/1/10 22/1/10 20/1/10
f 21/1/11 23/1/11 24/1/11 22/1/11
f 23/1/12 25/1/12 26/1/12 24/1/12
f 27/2/13 28/2/13 29/2/13 30/2/13
f 31/2/14 27/2/14 30/2/14 32/2/14
f 33/2/15 31/2/15 32/2/15 34/2/15
f 35/2/16 33/2/16 34/2/16 36/2/16
f 37/2/17 35/2/17 36/2/17 38/2/17
f 39/2/18 37/2/18 38/2/18 40/2/18
f 41/2/19 39/2/19 40/2/19 42/2/19
f 43/2/20 41/2/20 42/2/20 44/2/20
f 45/2/21 43/2/21 44/2/21 46/2/21
f 47/2/22 45/2/22 46/2/22 48/2/22
f 49/2/23 47/2/23 48/2/23 50/2/23
f 51/2/24 49/2/24 50/2/24 52/2/24
f 4/1/25 3/1/25 30/1/25 29/1/25
f 3/1/26 6/1/26 32/1/26 30/1/26
f 6/1/27 8/1/27 34/1/27 32/1/27
f 8/1/28 10/1/28 36/1/28 34/1/28
f 10/1/29 12/1/29 38/1/29 36/1/29
f 12/1/30 14/1/30 40/1/30 38/1/30
f 14/1/31 16/1/31 42/1/31 40/1/31
f 16/1/32 18/1/32 44/1/32 42/1/32
f 18/1/33 20/1/33 46/1/33 44/1/33
f 20/1/34 22/1/34 48/1/34 46/1/34
f 22/1/35 24/1/35 50/1/35 48/1/35
f 24/1/36 26/1/36 52/1/36 50/1/36
f 28/1/37 27/1/37 2/1/37 1/1/37
f 27/1/37 31/1/37 5/1/37 2/1/37
f 31/1/37 33/1/37 7/1/37 5/1/37
f 33/1/37 35/1/37 9/1/37 7/1/37
f 35/1/37 37/1/37 11/1/37 9/1/37
f 37/1/37 39/1/37 13/1/37 11/1/37
f 39/1/37 41/1/37 15/1/37 13/1/37
f 41/1/37 43/1/37 17/1/37 15/1/37
f 43/1/37 45/1/37 19/1/37 17/1/37
f 45/1/37 47/1/37 21/1/37 19/1/37
f 47/1/37 49/1/37 23/1/37 21/1/37
f 49/1/37 51/1/37 25/1/37 23/1/37
f 1/1/38 28/1/38 29/1/38 4/1/38
f 26/1/39 52/1/39 51/1/39 25/1/39
f 53/1/37 54/1/37 55/1/37 56/1/37 57/1/37 58/1/37 59/1/37 60/1/37 61/1/37 62/1/37 63/1/37 64/1/37 65/1/37 66/1/37 67/1/37
f 67/1/40 66/1/40 68/1/40 69/1/40
f 66/1/41 65/1/41 70/1/41 68/1/41
f 65/1/42 64/1/42 71/1/42 70/1/42
f 64/1/43 63/1/43 72/1/43 71/1/43
f 63/1/44 62/1/44 73/1/44 72/1/44
f 62/1/45 61/1/45 74/1/45 73/1/45
f 61/1/46 60/1/46 75/1/46 74/1/46
f 60/1/47 59/1/47 76/1/47 75/1/47
f 59/1/48 58/1/48 77/1/48 76/1/48
f 58/1/49 57/1/49 78/1/49 77/1/49
f 57/1/50 56/1/50 79/1/50 78/1/50
f 56/1/51 55/1/51 80/1/51 79/1/51
f 55/1/52 54/1/52 81/1/52 80/1/52
f 54/1/53 53/1/53 82/1/53 81/1/53
f 53/1/54 67/1/54 69/1/54 82/1/54
f 83/1/55 84/1/55 85/1/55 86/1/55 87/1/55 88/1/55 89/1/55 90/1/55 91/1/55 92/1/55 93/1/55 94/1/55 95/1/55 96/1/55 97/1/55
f 69/1/56 68/1/56 84/1/56 83/1/56
f 68/1/57 70/1/57 85/1/57 84/1/57
f 70/1/58 71/1/58 86/1/58 85/1/58
f 71/1/59 72/1/59 87/1/59 86/1/59
f 72/1/60 73/1/60 88/1/60 87/1/60
f 73/1/61 74/1/61 89/1/61 88/1/61
f 74/1/62 75/1/62 90/1/62 89/1/62
f 75/1/63 76/1/63 91/1/63 90/1/63
f 76/1/64 77/1/64 92/1/64 91/1/64
f 77/1/65 78/1/65 93/1/65 92/1/65
f 78/1/66 79/1/66 94/1/66 93/1/66
f 79/1/67 80/1/67 95/1/67 94/1/67
f 80/1/68 81/1/68 96/1/68 95/1/68
f 81/1/69 82/1/69 97/1/69 96/1/69
f 82/1/70 69/1/70 83/1/70 97/1/70
f 98/3/37 99/3/37 100/3/37 101/3/37
f 102/3/55 103/3/55 104/3/55 105/3/55
f 101/3/71 100/3/71 103/3/71 102/3/71
f 100/3/72 99/3/72 104/3/72 103/3/72
f 99/3/73 98/3/73 105/3/73 104/3/73
f 98/3/74 101/3/74 102/3/74 105/3/74
f 106/3/37 107/3/37 108/3/37 109/3/37
f 110/3/55 111/3/55 112/3/55 113/3/55
f 109/3/71 108/3/71 111/3/71 110/3/71
f 108/3/75 107/3/75 112/3/75 111/3/75
f 107/3/73 106/3/73 113/3/73 112/3/73
f 106/3/76 109/3/76 110/3/76 113/3/76
f 114/3/37 115/3/37 116/3/37 117/3/37
f 118/3/55 119/3/55 120/3/55 121/3/55
f 117/3/77 116/3/77 119/3/77 118/3/77
f 116/3/72 115/3/72 120/3/72 119/3/72
f 115/3/78 114/3/78 121/3/78 120/3/78
f 114/3/74 117/3/74 118/3/74 121/3/74
f 122/3/37 123/3/37 124/3/37 125/3/37
f 126/3/55 127/3/55 128/3/55 129/3/55
f 125/3/77 124/3/77 127/3/77 126/3/77
f 124/3/75 123/3/75 128/3/75 127/3/75
f 123/3/78 122/3/78 129/3/78 128/3/78
f 122/3/76 125/3/76 126/3/76 129/3/76
