# Blender 5.2.0 LTS
# www.blender.org
mtllib FN_Clock_Table.mtl
o FN_Clock_Table
v -0.112000 0.000000 0.050000
v -0.112000 0.000000 -0.054000
v 0.112000 0.000000 -0.054000
v 0.112000 0.000000 0.050000
v -0.112000 0.030000 0.050000
v 0.112000 0.030000 0.050000
v 0.112000 0.030000 -0.054000
v -0.112000 0.030000 -0.054000
v -0.100000 0.180000 0.043000
v -0.086603 0.212500 0.043000
v -0.050000 0.236292 0.043000
v 0.000000 0.245000 0.043000
v 0.050000 0.236292 0.043000
v 0.086603 0.212500 0.043000
v 0.100000 0.180000 0.043000
v 0.100000 0.022000 0.043000
v -0.100000 0.022000 0.043000
v -0.100000 0.022000 -0.047000
v 0.100000 0.022000 -0.047000
v 0.100000 0.180000 -0.047000
v 0.086603 0.212500 -0.047000
v 0.050000 0.236292 -0.047000
v 0.000000 0.245000 -0.047000
v -0.050000 0.236292 -0.047000
v -0.086603 0.212500 -0.047000
v -0.100000 0.180000 -0.047000
v 0.011314 0.236000 0.009314
v -0.000000 0.236000 0.014000
v -0.011314 0.236000 0.009314
v -0.016000 0.236000 -0.002000
v -0.011314 0.236000 -0.013314
v 0.000000 0.236000 -0.018000
v 0.011314 0.236000 -0.013314
v 0.016000 0.236000 -0.002000
v 0.012000 0.260000 -0.002000
v 0.008485 0.260000 -0.010485
v 0.000000 0.260000 -0.014000
v -0.008485 0.260000 -0.010485
v -0.012000 0.260000 -0.002000
v -0.008485 0.260000 0.006485
v -0.000000 0.260000 0.010000
v 0.008485 0.260000 0.006485
v 0.062354 0.112000 0.047000
v 0.036000 0.085646 0.047000
v -0.000000 0.076000 0.047000
v -0.036000 0.085646 0.047000
v -0.062354 0.112000 0.047000
v -0.072000 0.148000 0.047000
v -0.062354 0.184000 0.047000
v -0.036000 0.210354 0.047000
v 0.000000 0.220000 0.047000
v 0.036000 0.210354 0.047000
v 0.062354 0.184000 0.047000
v 0.072000 0.148000 0.047000
v 0.072000 0.148000 0.039000
v 0.062354 0.184000 0.039000
v 0.036000 0.210354 0.039000
v 0.000000 0.220000 0.039000
v -0.036000 0.210354 0.039000
v -0.062354 0.184000 0.039000
v -0.072000 0.148000 0.039000
v -0.062354 0.112000 0.039000
v -0.036000 0.085646 0.039000
v -0.000000 0.076000 0.039000
v 0.036000 0.085646 0.039000
v 0.062354 0.112000 0.039000
v 0.053694 0.117000 0.051000
v 0.031000 0.094306 0.051000
v -0.000000 0.086000 0.051000
v -0.031000 0.094306 0.051000
v -0.053694 0.117000 0.051000
v -0.062000 0.148000 0.051000
v -0.053694 0.179000 0.051000
v -0.031000 0.201694 0.051000
v 0.000000 0.210000 0.051000
v 0.031000 0.201694 0.051000
v 0.053694 0.179000 0.051000
v 0.062000 0.148000 0.051000
v 0.062000 0.148000 0.045000
v 0.053694 0.179000 0.045000
v 0.031000 0.201694 0.045000
v 0.000000 0.210000 0.045000
v -0.031000 0.201694 0.045000
v -0.053694 0.179000 0.045000
v -0.062000 0.148000 0.045000
v -0.053694 0.117000 0.045000
v -0.031000 0.094306 0.045000
v -0.000000 0.086000 0.045000
v 0.031000 0.094306 0.045000
v 0.053694 0.117000 0.045000
v 0.011695 0.190465 0.054000
v 0.015499 0.189228 0.054000
v 0.004755 0.146455 0.054000
v -0.004755 0.149545 0.054000
v -0.004755 0.149545 0.049000
v 0.004755 0.146455 0.049000
v 0.015499 0.189228 0.049000
v 0.011695 0.190465 0.049000
v 0.028383 0.137990 0.054000
v 0.026430 0.133605 0.054000
v -0.002440 0.142519 0.054000
v 0.002440 0.153481 0.054000
v 0.002440 0.153481 0.049000
v -0.002440 0.142519 0.049000
v 0.026430 0.133605 0.049000
v 0.028383 0.137990 0.049000
vn -0.0000 -1.0000 -0.0000
vn -0.0000 1.0000 -0.0000
vn -0.0000 -0.0000 1.0000
vn -0.0000 -0.0000 -1.0000
vn -1.0000 -0.0000 -0.0000
vn 1.0000 -0.0000 -0.0000
vn 0.9245 0.3811 -0.0000
vn 0.5450 0.8384 -0.0000
vn 0.1716 0.9852 -0.0000
vn -0.1716 0.9852 -0.0000
vn -0.5450 0.8384 -0.0000
vn -0.9245 0.3811 -0.0000
vn 0.9131 0.1522 -0.3782
vn 0.3782 0.1522 -0.9131
vn -0.3782 0.1522 -0.9131
vn -0.9131 0.1522 -0.3782
vn -0.9131 0.1522 0.3782
vn -0.3782 0.1522 0.9131
vn 0.3782 0.1522 0.9131
vn 0.9131 0.1522 0.3782
vn 0.9659 0.2588 -0.0000
vn 0.7071 0.7071 -0.0000
vn 0.2588 0.9659 -0.0000
vn -0.2588 0.9659 -0.0000
vn -0.7071 0.7071 -0.0000
vn -0.9659 0.2588 -0.0000
vn -0.9659 -0.2588 -0.0000
vn -0.7071 -0.7071 -0.0000
vn -0.2588 -0.9659 -0.0000
vn 0.2588 -0.9659 -0.0000
vn 0.7071 -0.7071 -0.0000
vn 0.9659 -0.2588 -0.0000
vn -0.3090 -0.9511 -0.0000
vn 0.9699 -0.2436 -0.0000
vn 0.3090 0.9511 -0.0000
vn -0.9278 0.3730 -0.0000
vn -0.9135 0.4067 -0.0000
vn -0.2950 -0.9555 -0.0000
vn 0.9135 -0.4067 -0.0000
vn 0.5127 0.8586 -0.0000
vt 0.437500 0.312500
vt 0.687500 0.937500
vt 0.062500 0.687500
vt 0.812500 0.312500
s 0
usemtl FN_Atlas
f 1/1/1 2/1/1 3/1/1 4/1/1
f 5/1/2 6/1/2 7/1/2 8/1/2
f 1/1/3 4/1/3 6/1/3 5/1/3
f 3/1/4 2/1/4 8/1/4 7/1/4
f 1/1/5 5/1/5 8/1/5 2/1/5
f 4/1/6 3/1/6 7/1/6 6/1/6
f 9/2/4 10/2/4 11/2/4 12/2/4 13/2/4 14/2/4 15/2/4 16/2/4 17/2/4
f 18/2/3 19/2/3 20/2/3 21/2/3 22/2/3 23/2/3 24/2/3 25/2/3 26/2/3
f 18/2/1 19/2/1 16/2/1 17/2/1
f 19/2/6 20/2/6 15/2/6 16/2/6
f 20/2/7 21/2/7 14/2/7 15/2/7
f 21/2/8 22/2/8 13/2/8 14/2/8
f 22/2/9 23/2/9 12/2/9 13/2/9
f 23/2/10 24/2/10 11/2/10 12/2/10
f 24/2/11 25/2/11 10/2/11 11/2/11
f 25/2/12 26/2/12 9/2/12 10/2/12
f 26/2/5 18/2/5 17/2/5 9/2/5
f 27/1/1 28/1/1 29/1/1 30/1/1 31/1/1 32/1/1 33/1/1 34/1/1
f 35/1/2 36/1/2 37/1/2 38/1/2 39/1/2 40/1/2 41/1/2 42/1/2
f 34/1/13 33/1/13 36/1/13 35/1/13
f 33/1/14 32/1/14 37/1/14 36/1/14
f 32/1/15 31/1/15 38/1/15 37/1/15
f 31/1/16 30/1/16 39/1/16 38/1/16
f 30/1/17 29/1/17 40/1/17 39/1/17
f 29/1/18 28/1/18 41/1/18 40/1/18
f 28/1/19 27/1/19 42/1/19 41/1/19
f 27/1/20 34/1/20 35/1/20 42/1/20
f 43/1/4 44/1/4 45/1/4 46/1/4 47/1/4 48/1/4 49/1/4 50/1/4 51/1/4 52/1/4 53/1/4 54/1/4
f 55/1/3 56/1/3 57/1/3 58/1/3 59/1/3 60/1/3 61/1/3 62/1/3 63/1/3 64/1/3 65/1/3 66/1/3
f 55/1/21 56/1/21 53/1/21 54/1/21
f 56/1/22 57/1/22 52/1/22 53/1/22
f 57/1/23 58/1/23 51/1/23 52/1/23
f 58/1/24 59/1/24 50/1/24 51/1/24
f 59/1/25 60/1/25 49/1/25 50/1/25
f 60/1/26 61/1/26 48/1/26 49/1/26
f 61/1/27 62/1/27 47/1/27 48/1/27
f 62/1/28 63/1/28 46/1/28 47/1/28
f 63/1/29 64/1/29 45/1/29 46/1/29
f 64/1/30 65/1/30 44/1/30 45/1/30
f 65/1/31 66/1/31 43/1/31 44/1/31
f 66/1/32 55/1/32 54/1/32 43/1/32
f 67/3/4 68/3/4 69/3/4 70/3/4 71/3/4 72/3/4 73/3/4 74/3/4 75/3/4 76/3/4 77/3/4 78/3/4
f 79/3/3 80/3/3 81/3/3 82/3/3 83/3/3 84/3/3 85/3/3 86/3/3 87/3/3 88/3/3 89/3/3 90/3/3
f 79/3/21 80/3/21 77/3/21 78/3/21
f 80/3/22 81/3/22 76/3/22 77/3/22
f 81/3/23 82/3/23 75/3/23 76/3/23
f 82/3/24 83/3/24 74/3/24 75/3/24
f 83/3/25 84/3/25 73/3/25 74/3/25
f 84/3/26 85/3/26 72/3/26 73/3/26
f 85/3/27 86/3/27 71/3/27 72/3/27
f 86/3/28 87/3/28 70/3/28 71/3/28
f 87/3/29 88/3/29 69/3/29 70/3/29
f 88/3/30 89/3/30 68/3/30 69/3/30
f 89/3/31 90/3/31 67/3/31 68/3/31
f 90/3/32 79/3/32 78/3/32 67/3/32
f 91/4/4 92/4/4 93/4/4 94/4/4
f 95/4/3 96/4/3 97/4/3 98/4/3
f 95/4/33 96/4/33 93/4/33 94/4/33
f 96/4/34 97/4/34 92/4/34 93/4/34
f 97/4/35 98/4/35 91/4/35 92/4/35
f 98/4/36 95/4/36 94/4/36 91/4/36
f 99/4/4 100/4/4 101/4/4 102/4/4
f 103/4/3 104/4/3 105/4/3 106/4/3
f 103/4/37 104/4/37 101/4/37 102/4/37
f 104/4/38 105/4/38 100/4/38 101/4/38
f 105/4/39 106/4/39 99/4/39 100/4/39
f 106/4/40 103/4/40 102/4/40 99/4/40
