# Blender 5.2.0 LTS
# www.blender.org
mtllib FN_Chest_Plan.mtl
o FN_Chest_Plan
v -0.560000 0.000000 0.338000
v -0.560000 0.000000 -0.382000
v 0.560000 0.000000 -0.382000
v 0.560000 0.000000 0.338000
v -0.560000 0.090000 0.338000
v 0.560000 0.090000 0.338000
v 0.560000 0.090000 -0.382000
v -0.560000 0.090000 -0.382000
v -0.600000 0.080000 0.378000
v -0.600000 0.080000 -0.382000
v 0.600000 0.080000 -0.382000
v 0.600000 0.080000 0.378000
v -0.600000 0.710000 0.378000
v 0.600000 0.710000 0.378000
v 0.600000 0.710000 -0.382000
v -0.600000 0.710000 -0.382000
v -0.620000 0.700000 0.398000
v -0.620000 0.700000 -0.402000
v 0.620000 0.700000 -0.402000
v 0.620000 0.700000 0.398000
v -0.620000 0.734000 0.398000
v 0.620000 0.734000 0.398000
v 0.620000 0.734000 -0.402000
v -0.620000 0.734000 -0.402000
v -0.614000 0.740000 0.392000
v 0.614000 0.740000 0.392000
v 0.614000 0.740000 -0.396000
v -0.614000 0.740000 -0.396000
v -0.590000 0.110000 0.388000
v -0.590000 0.110000 0.378000
v 0.590000 0.110000 0.378000
v 0.590000 0.110000 0.388000
v -0.590000 0.218400 0.388000
v 0.590000 0.218400 0.388000
v 0.590000 0.218400 0.378000
v -0.590000 0.218400 0.378000
v -0.278000 0.150200 0.402000
v -0.278000 0.150200 0.384000
v -0.182000 0.150200 0.384000
v -0.182000 0.150200 0.402000
v -0.278000 0.178200 0.402000
v -0.182000 0.178200 0.402000
v -0.182000 0.178200 0.384000
v -0.278000 0.178200 0.384000
v 0.182000 0.150200 0.402000
v 0.182000 0.150200 0.384000
v 0.278000 0.150200 0.384000
v 0.278000 0.150200 0.402000
v 0.182000 0.178200 0.402000
v 0.278000 0.178200 0.402000
v 0.278000 0.178200 0.384000
v 0.182000 0.178200 0.384000
v -0.590000 0.230400 0.388000
v -0.590000 0.230400 0.378000
v 0.590000 0.230400 0.378000
v 0.590000 0.230400 0.388000
v -0.590000 0.338800 0.388000
v 0.590000 0.338800 0.388000
v 0.590000 0.338800 0.378000
v -0.590000 0.338800 0.378000
v -0.278000 0.270600 0.402000
v -0.278000 0.270600 0.384000
v -0.182000 0.270600 0.384000
v -0.182000 0.270600 0.402000
v -0.278000 0.298600 0.402000
v -0.182000 0.298600 0.402000
v -0.182000 0.298600 0.384000
v -0.278000 0.298600 0.384000
v 0.182000 0.270600 0.402000
v 0.182000 0.270600 0.384000
v 0.278000 0.270600 0.384000
v 0.278000 0.270600 0.402000
v 0.182000 0.298600 0.402000
v 0.278000 0.298600 0.402000
v 0.278000 0.298600 0.384000
v 0.182000 0.298600 0.384000
v -0.590000 0.350800 0.388000
v -0.590000 0.350800 0.378000
v 0.590000 0.350800 0.378000
v 0.590000 0.350800 0.388000
v -0.590000 0.459200 0.388000
v 0.590000 0.459200 0.388000
v 0.590000 0.459200 0.378000
v -0.590000 0.459200 0.378000
v -0.278000 0.391000 0.402000
v -0.278000 0.391000 0.384000
v -0.182000 0.391000 0.384000
v -0.182000 0.391000 0.402000
v -0.278000 0.419000 0.402000
v -0.182000 0.419000 0.402000
v -0.182000 0.419000 0.384000
v -0.278000 0.419000 0.384000
v 0.182000 0.391000 0.402000
v 0.182000 0.391000 0.384000
v 0.278000 0.391000 0.384000
v 0.278000 0.391000 0.402000
v 0.182000 0.419000 0.402000
v 0.278000 0.419000 0.402000
v 0.278000 0.419000 0.384000
v 0.182000 0.419000 0.384000
v -0.590000 0.471200 0.388000
v -0.590000 0.471200 0.378000
v 0.590000 0.471200 0.378000
v 0.590000 0.471200 0.388000
v -0.590000 0.579600 0.388000
v 0.590000 0.579600 0.388000
v 0.590000 0.579600 0.378000
v -0.590000 0.579600 0.378000
v -0.278000 0.511400 0.402000
v -0.278000 0.511400 0.384000
v -0.182000 0.511400 0.384000
v -0.182000 0.511400 0.402000
v -0.278000 0.539400 0.402000
v -0.182000 0.539400 0.402000
v -0.182000 0.539400 0.384000
v -0.278000 0.539400 0.384000
v 0.182000 0.511400 0.402000
v 0.182000 0.511400 0.384000
v 0.278000 0.511400 0.384000
v 0.278000 0.511400 0.402000
v 0.182000 0.539400 0.402000
v 0.278000 0.539400 0.402000
v 0.278000 0.539400 0.384000
v 0.182000 0.539400 0.384000
v -0.590000 0.591600 0.388000
v -0.590000 0.591600 0.378000
v 0.590000 0.591600 0.378000
v 0.590000 0.591600 0.388000
v -0.590000 0.700000 0.388000
v 0.590000 0.700000 0.388000
v 0.590000 0.700000 0.378000
v -0.590000 0.700000 0.378000
v -0.278000 0.631800 0.402000
v -0.278000 0.631800 0.384000
v -0.182000 0.631800 0.384000
v -0.182000 0.631800 0.402000
v -0.278000 0.659800 0.402000
v -0.182000 0.659800 0.402000
v -0.182000 0.659800 0.384000
v -0.278000 0.659800 0.384000
v 0.182000 0.631800 0.402000
v 0.182000 0.631800 0.384000
v 0.278000 0.631800 0.384000
v 0.278000 0.631800 0.402000
v 0.182000 0.659800 0.402000
v 0.278000 0.659800 0.402000
v 0.278000 0.659800 0.384000
v 0.182000 0.659800 0.384000
vn -0.0000 -1.0000 -0.0000
vn -0.0000 1.0000 -0.0000
vn -0.0000 -0.0000 1.0000
vn -0.0000 -0.0000 -1.0000
vn -1.0000 -0.0000 -0.0000
vn 1.0000 -0.0000 -0.0000
vn -0.0000 0.7071 0.7071
vn 0.7071 0.7071 -0.0000
vn -0.0000 0.7071 -0.7071
vn -0.7071 0.7071 -0.0000
vt 0.687500 0.312500
vt 0.062500 0.812500
vt 0.812500 0.312500
s 0
usemtl FN_Atlas
f 1/1/1 2/1/1 3/1/1 4/1/1
f 5/1/2 6/1/2 7/1/2 8/1/2
f 1/1/3 4/1/3 6/1/3 5/1/3
f 3/1/4 2/1/4 8/1/4 7/1/4
f 1/1/5 5/1/5 8/1/5 2/1/5
f 4/1/6 3/1/6 7/1/6 6/1/6
f 9/1/1 10/1/1 11/1/1 12/1/1
f 13/1/2 14/1/2 15/1/2 16/1/2
f 9/1/3 12/1/3 14/1/3 13/1/3
f 11/1/4 10/1/4 16/1/4 15/1/4
f 9/1/5 13/1/5 16/1/5 10/1/5
f 12/1/6 11/1/6 15/1/6 14/1/6
f 17/1/1 18/1/1 19/1/1 20/1/1
f 21/1/2 22/1/2 23/1/2 24/1/2
f 17/1/3 20/1/3 22/1/3 21/1/3
f 19/1/4 18/1/4 24/1/4 23/1/4
f 17/1/5 21/1/5 24/1/5 18/1/5
f 20/1/6 19/1/6 23/1/6 22/1/6
f 25/1/2 26/1/2 27/1/2 28/1/2
f 21/1/7 22/1/7 26/1/7 25/1/7
f 22/1/8 23/1/8 27/1/8 26/1/8
f 23/1/9 24/1/9 28/1/9 27/1/9
f 24/1/10 21/1/10 25/1/10 28/1/10
f 29/2/1 30/2/1 31/2/1 32/2/1
f 33/2/2 34/2/2 35/2/2 36/2/2
f 29/2/3 32/2/3 34/2/3 33/2/3
f 31/2/4 30/2/4 36/2/4 35/2/4
f 29/2/5 33/2/5 36/2/5 30/2/5
f 32/2/6 31/2/6 35/2/6 34/2/6
f 37/3/1 38/3/1 39/3/1 40/3/1
f 41/3/2 42/3/2 43/3/2 44/3/2
f 37/3/3 40/3/3 42/3/3 41/3/3
f 39/3/4 38/3/4 44/3/4 43/3/4
f 37/3/5 41/3/5 44/3/5 38/3/5
f 40/3/6 39/3/6 43/3/6 42/3/6
f 45/3/1 46/3/1 47/3/1 48/3/1
f 49/3/2 50/3/2 51/3/2 52/3/2
f 45/3/3 48/3/3 50/3/3 49/3/3
f 47/3/4 46/3/4 52/3/4 51/3/4
f 45/3/5 49/3/5 52/3/5 46/3/5
f 48/3/6 47/3/6 51/3/6 50/3/6
f 53/2/1 54/2/1 55/2/1 56/2/1
f 57/2/2 58/2/2 59/2/2 60/2/2
f 53/2/3 56/2/3 58/2/3 57/2/3
f 55/2/4 54/2/4 60/2/4 59/2/4
f 53/2/5 57/2/5 60/2/5 54/2/5
f 56/2/6 55/2/6 59/2/6 58/2/6
f 61/3/1 62/3/1 63/3/1 64/3/1
f 65/3/2 66/3/2 67/3/2 68/3/2
f 61/3/3 64/3/3 66/3/3 65/3/3
f 63/3/4 62/3/4 68/3/4 67/3/4
f 61/3/5 65/3/5 68/3/5 62/3/5
f 64/3/6 63/3/6 67/3/6 66/3/6
f 69/3/1 70/3/1 71/3/1 72/3/1
f 73/3/2 74/3/2 75/3/2 76/3/2
f 69/3/3 72/3/3 74/3/3 73/3/3
f 71/3/4 70/3/4 76/3/4 75/3/4
f 69/3/5 73/3/5 76/3/5 70/3/5
f 72/3/6 71/3/6 75/3/6 74/3/6
f 77/2/1 78/2/1 79/2/1 80/2/1
f 81/2/2 82/2/2 83/2/2 84/2/2
f 77/2/3 80/2/3 82/2/3 81/2/3
f 79/2/4 78/2/4 84/2/4 83/2/4
f 77/2/5 81/2/5 84/2/5 78/2/5
f 80/2/6 79/2/6 83/2/6 82/2/6
f 85/3/1 86/3/1 87/3/1 88/3/1
f 89/3/2 90/3/2 91/3/2 92/3/2
f 85/3/3 88/3/3 90/3/3 89/3/3
f 87/3/4 86/3/4 92/3/4 91/3/4
f 85/3/5 89/3/5 92/3/5 86/3/5
f 88/3/6 87/3/6 91/3/6 90/3/6
f 93/3/1 94/3/1 95/3/1 96/3/1
f 97/3/2 98/3/2 99/3/2 100/3/2
f 93/3/3 96/3/3 98/3/3 97/3/3
f 95/3/4 94/3/4 100/3/4 99/3/4
f 93/3/5 97/3/5 100/3/5 94/3/5
f 96/3/6 95/3/6 99/3/6 98/3/6
f 101/2/1 102/2/1 103/2/1 104/2/1
f 105/2/2 106/2/2 107/2/2 108/2/2
f 101/2/3 104/2/3 106/2/3 105/2/3
f 103/2/4 102/2/4 108/2/4 107/2/4
f 101/2/5 105/2/5 108/2/5 102/2/5
f 104/2/6 103/2/6 107/2/6 106/2/6
f 109/3/1 110/3/1 111/3/1 112/3/1
f 113/3/2 114/3/2 115/3/2 116/3/2
f 109/3/3 112/3/3 114/3/3 113/3/3
f 111/3/4 110/3/4 116/3/4 115/3/4
f 109/3/5 113/3/5 116/3/5 110/3/5
f 112/3/6 111/3/6 115/3/6 114/3/6
f 117/3/1 118/3/1 119/3/1 120/3/1
f 121/3/2 122/3/2 123/3/2 124/3/2
f 117/3/3 120/3/3 122/3/3 121/3/3
f 119/3/4 118/3/4 124/3/4 123/3/4
f 117/3/5 121/3/5 124/3/5 118/3/5
f 120/3/6 119/3/6 123/3/6 122/3/6
f 125/2/1 126/2/1 127/2/1 128/2/1
f 129/2/2 130/2/2 131/2/2 132/2/2
f 125/2/3 128/2/3 130/2/3 129/2/3
f 127/2/4 126/2/4 132/2/4 131/2/4
f 125/2/5 129/2/5 132/2/5 126/2/5
f 128/2/6 127/2/6 131/2/6 130/2/6
f 133/3/1 134/3/1 135/3/1 136/3/1
f 137/3/2 138/3/2 139/3/2 140/3/2
f 133/3/3 136/3/3 138/3/3 137/3/3
f 135/3/4 134/3/4 140/3/4 139/3/4
f 133/3/5 137/3/5 140/3/5 134/3/5
f 136/3/6 135/3/6 139/3/6 138/3/6
f 141/3/1 142/3/1 143/3/1 144/3/1
f 145/3/2 146/3/2 147/3/2 148/3/2
f 141/3/3 144/3/3 146/3/3 145/3/3
f 143/3/4 142/3/4 148/3/4 147/3/4
f 141/3/5 145/3/5 148/3/5 142/3/5
f 144/3/6 143/3/6 147/3/6 146/3/6
