# Blender 5.2.0 LTS
# www.blender.org
mtllib FN_Chair_Glider.mtl
o FN_Chair_Glider
v -0.380000 0.000000 0.325000
v -0.380000 0.000000 -0.315000
v -0.340000 0.000000 -0.315000
v -0.340000 0.000000 0.325000
v -0.380000 0.080000 0.325000
v -0.340000 0.080000 0.325000
v -0.340000 0.080000 -0.315000
v -0.380000 0.080000 -0.315000
v 0.340000 0.000000 0.325000
v 0.340000 0.000000 -0.315000
v 0.380000 0.000000 -0.315000
v 0.380000 0.000000 0.325000
v 0.340000 0.080000 0.325000
v 0.380000 0.080000 0.325000
v 0.380000 0.080000 -0.315000
v 0.340000 0.080000 -0.315000
v -0.368000 0.016000 0.319000
v -0.368000 0.016000 0.271000
v 0.368000 0.016000 0.271000
v 0.368000 0.016000 0.319000
v -0.368000 0.064000 0.319000
v 0.368000 0.064000 0.319000
v 0.368000 0.064000 0.271000
v -0.368000 0.064000 0.271000
v -0.368000 0.016000 -0.261000
v -0.368000 0.016000 -0.309000
v 0.368000 0.016000 -0.309000
v 0.368000 0.016000 -0.261000
v -0.368000 0.064000 -0.261000
v 0.368000 0.064000 -0.261000
v 0.368000 0.064000 -0.309000
v -0.368000 0.064000 -0.309000
v -0.366000 0.056357 0.204187
v -0.366000 0.294357 0.274187
v -0.366000 0.305643 0.235813
v -0.366000 0.067643 0.165813
v -0.338000 0.067643 0.165813
v -0.338000 0.305643 0.235813
v -0.338000 0.294357 0.274187
v -0.338000 0.056357 0.204187
v -0.366000 0.056357 -0.155813
v -0.366000 0.294357 -0.085813
v -0.366000 0.305643 -0.124187
v -0.366000 0.067643 -0.194187
v -0.338000 0.067643 -0.194187
v -0.338000 0.305643 -0.124187
v -0.338000 0.294357 -0.085813
v -0.338000 0.056357 -0.155813
v 0.338000 0.056357 0.204187
v 0.338000 0.294357 0.274187
v 0.338000 0.305643 0.235813
v 0.338000 0.067643 0.165813
v 0.366000 0.067643 0.165813
v 0.366000 0.305643 0.235813
v 0.366000 0.294357 0.274187
v 0.366000 0.056357 0.204187
v 0.338000 0.056357 -0.155813
v 0.338000 0.294357 -0.085813
v 0.338000 0.305643 -0.124187
v 0.338000 0.067643 -0.194187
v 0.366000 0.067643 -0.194187
v 0.366000 0.305643 -0.124187
v 0.366000 0.294357 -0.085813
v 0.366000 0.056357 -0.155813
v -0.360000 0.290000 0.305000
v -0.360000 0.290000 -0.235000
v 0.360000 0.290000 -0.235000
v 0.360000 0.290000 0.305000
v -0.360000 0.356000 0.305000
v 0.360000 0.356000 0.305000
v 0.360000 0.356000 -0.235000
v -0.360000 0.356000 -0.235000
v -0.330000 0.348000 -0.215000
v 0.330000 0.348000 -0.215000
v 0.330000 0.348000 0.295000
v -0.330000 0.348000 0.295000
v -0.310000 0.420000 0.275000
v 0.310000 0.420000 0.275000
v 0.310000 0.420000 -0.195000
v -0.310000 0.420000 -0.195000
v -0.330000 0.960000 -0.265000
v -0.330000 0.960000 -0.325000
v -0.330000 0.340000 -0.245000
v -0.330000 0.340000 -0.185000
v 0.330000 0.340000 -0.185000
v 0.330000 0.340000 -0.245000
v 0.330000 0.960000 -0.325000
v 0.330000 0.960000 -0.265000
v -0.300000 0.940000 -0.225000
v -0.300000 0.940000 -0.271000
v -0.300000 0.360000 -0.191000
v -0.300000 0.360000 -0.145000
v 0.300000 0.360000 -0.145000
v 0.300000 0.360000 -0.191000
v 0.300000 0.940000 -0.271000
v 0.300000 0.940000 -0.225000
v -0.362000 0.350000 0.285000
v -0.362000 0.350000 -0.235000
v -0.320000 0.350000 -0.235000
v -0.320000 0.350000 0.285000
v -0.362000 0.610000 0.285000
v -0.320000 0.610000 0.285000
v -0.320000 0.610000 -0.235000
v -0.362000 0.610000 -0.235000
v 0.320000 0.350000 0.285000
v 0.320000 0.350000 -0.235000
v 0.362000 0.350000 -0.235000
v 0.362000 0.350000 0.285000
v 0.320000 0.610000 0.285000
v 0.362000 0.610000 0.285000
v 0.362000 0.610000 -0.235000
v 0.320000 0.610000 -0.235000
vn -0.0000 -1.0000 -0.0000
vn -0.0000 1.0000 -0.0000
vn -0.0000 -0.0000 1.0000
vn -0.0000 -0.0000 -1.0000
vn -1.0000 -0.0000 -0.0000
vn 1.0000 -0.0000 -0.0000
vn -0.0000 -0.2822 0.9594
vn -0.0000 0.9594 0.2822
vn -0.0000 0.2822 -0.9594
vn -0.0000 -0.9594 -0.2822
vn -0.0000 0.2676 0.9635
vn 0.9635 0.2676 -0.0000
vn -0.0000 0.2676 -0.9635
vn -0.9635 0.2676 -0.0000
vn -0.0000 -0.1280 -0.9918
vn -0.0000 0.1280 0.9918
vn -0.0000 -0.1366 -0.9906
vn -0.0000 0.1366 0.9906
vt 0.687500 0.937500
vt 0.562500 0.687500
s 0
usemtl FN_Atlas
f 1/1/1 2/1/1 3/1/1 4/1/1
f 5/1/2 6/1/2 7/1/2 8/1/2
f 1/1/3 4/1/3 6/1/3 5/1/3
f 3/1/4 2/1/4 8/1/4 7/1/4
f 1/1/5 5/1/5 8/1/5 2/1/5
f 4/1/6 3/1/6 7/1/6 6/1/6
f 9/1/1 10/1/1 11/1/1 12/1/1
f 13/1/2 14/1/2 15/1/2 16/1/2
f 9/1/3 12/1/3 14/1/3 13/1/3
f 11/1/4 10/1/4 16/1/4 15/1/4
f 9/1/5 13/1/5 16/1/5 10/1/5
f 12/1/6 11/1/6 15/1/6 14/1/6
f 17/1/1 18/1/1 19/1/1 20/1/1
f 21/1/2 22/1/2 23/1/2 24/1/2
f 17/1/3 20/1/3 22/1/3 21/1/3
f 19/1/4 18/1/4 24/1/4 23/1/4
f 17/1/5 21/1/5 24/1/5 18/1/5
f 20/1/6 19/1/6 23/1/6 22/1/6
f 25/1/1 26/1/1 27/1/1 28/1/1
f 29/1/2 30/1/2 31/1/2 32/1/2
f 25/1/3 28/1/3 30/1/3 29/1/3
f 27/1/4 26/1/4 32/1/4 31/1/4
f 25/1/5 29/1/5 32/1/5 26/1/5
f 28/1/6 27/1/6 31/1/6 30/1/6
f 33/1/5 34/1/5 35/1/5 36/1/5
f 37/1/6 38/1/6 39/1/6 40/1/6
f 40/1/7 39/1/7 34/1/7 33/1/7
f 39/1/8 38/1/8 35/1/8 34/1/8
f 38/1/9 37/1/9 36/1/9 35/1/9
f 37/1/10 40/1/10 33/1/10 36/1/10
f 41/1/5 42/1/5 43/1/5 44/1/5
f 45/1/6 46/1/6 47/1/6 48/1/6
f 48/1/7 47/1/7 42/1/7 41/1/7
f 47/1/8 46/1/8 43/1/8 42/1/8
f 46/1/9 45/1/9 44/1/9 43/1/9
f 45/1/10 48/1/10 41/1/10 44/1/10
f 49/1/5 50/1/5 51/1/5 52/1/5
f 53/1/6 54/1/6 55/1/6 56/1/6
f 56/1/7 55/1/7 50/1/7 49/1/7
f 55/1/8 54/1/8 51/1/8 50/1/8
f 54/1/9 53/1/9 52/1/9 51/1/9
f 53/1/10 56/1/10 49/1/10 52/1/10
f 57/1/5 58/1/5 59/1/5 60/1/5
f 61/1/6 62/1/6 63/1/6 64/1/6
f 64/1/7 63/1/7 58/1/7 57/1/7
f 63/1/8 62/1/8 59/1/8 58/1/8
f 62/1/9 61/1/9 60/1/9 59/1/9
f 61/1/10 64/1/10 57/1/10 60/1/10
f 65/1/1 66/1/1 67/1/1 68/1/1
f 69/1/2 70/1/2 71/1/2 72/1/2
f 65/1/3 68/1/3 70/1/3 69/1/3
f 67/1/4 66/1/4 72/1/4 71/1/4
f 65/1/5 69/1/5 72/1/5 66/1/5
f 68/1/6 67/1/6 71/1/6 70/1/6
f 73/2/1 74/2/1 75/2/1 76/2/1
f 77/2/2 78/2/2 79/2/2 80/2/2
f 76/2/11 75/2/11 78/2/11 77/2/11
f 75/2/12 74/2/12 79/2/12 78/2/12
f 74/2/13 73/2/13 80/2/13 79/2/13
f 73/2/14 76/2/14 77/2/14 80/2/14
f 81/1/5 82/1/5 83/1/5 84/1/5
f 85/1/6 86/1/6 87/1/6 88/1/6
f 84/1/1 83/1/1 86/1/1 85/1/1
f 83/1/15 82/1/15 87/1/15 86/1/15
f 82/1/2 81/1/2 88/1/2 87/1/2
f 81/1/16 84/1/16 85/1/16 88/1/16
f 89/2/5 90/2/5 91/2/5 92/2/5
f 93/2/6 94/2/6 95/2/6 96/2/6
f 92/2/1 91/2/1 94/2/1 93/2/1
f 91/2/17 90/2/17 95/2/17 94/2/17
f 90/2/2 89/2/2 96/2/2 95/2/2
f 89/2/18 92/2/18 93/2/18 96/2/18
f 97/2/1 98/2/1 99/2/1 100/2/1
f 101/2/2 102/2/2 103/2/2 104/2/2
f 97/2/3 100/2/3 102/2/3 101/2/3
f 99/2/4 98/2/4 104/2/4 103/2/4
f 97/2/5 101/2/5 104/2/5 98/2/5
f 100/2/6 99/2/6 103/2/6 102/2/6
f 105/2/1 106/2/1 107/2/1 108/2/1
f 109/2/2 110/2/2 111/2/2 112/2/2
f 105/2/3 108/2/3 110/2/3 109/2/3
f 107/2/4 106/2/4 112/2/4 111/2/4
f 105/2/5 109/2/5 112/2/5 106/2/5
f 108/2/6 107/2/6 111/2/6 110/2/6
