# Blender 5.2.0 LTS
# www.blender.org
mtllib FN_Cabinet_Display.mtl
o FN_Cabinet_Display
v -0.428000 0.000000 0.166000
v -0.428000 0.000000 -0.202000
v 0.428000 0.000000 -0.202000
v 0.428000 0.000000 0.166000
v -0.428000 0.080000 0.166000
v 0.428000 0.080000 0.166000
v 0.428000 0.080000 -0.202000
v -0.428000 0.080000 -0.202000
v -0.450000 0.080000 0.192000
v -0.450000 0.080000 -0.208000
v -0.430000 0.080000 -0.208000
v -0.430000 0.080000 0.192000
v -0.450000 1.772000 0.192000
v -0.430000 1.772000 0.192000
v -0.430000 1.772000 -0.208000
v -0.450000 1.772000 -0.208000
v 0.430000 0.080000 0.192000
v 0.430000 0.080000 -0.208000
v 0.450000 0.080000 -0.208000
v 0.450000 0.080000 0.192000
v 0.430000 1.772000 0.192000
v 0.450000 1.772000 0.192000
v 0.450000 1.772000 -0.208000
v 0.430000 1.772000 -0.208000
v -0.450000 0.100000 0.192000
v 0.450000 0.100000 0.192000
v 0.450000 0.100000 -0.208000
v -0.450000 0.100000 -0.208000
v -0.430000 0.080000 -0.194000
v 0.430000 0.080000 -0.194000
v -0.430000 1.772000 -0.194000
v 0.430000 1.772000 -0.194000
v -0.453522 1.772000 -0.215553
v 0.453522 1.772000 -0.215553
v 0.453522 1.772000 0.189553
v -0.453522 1.772000 0.189553
v 0.459000 1.778000 0.192000
v -0.459000 1.778000 0.192000
v 0.459000 1.778000 -0.218000
v -0.459000 1.778000 -0.218000
v 0.459000 1.794000 0.192000
v -0.459000 1.794000 0.192000
v 0.459000 1.794000 -0.218000
v -0.459000 1.794000 -0.218000
v -0.453522 1.800000 0.189553
v 0.453522 1.800000 0.189553
v 0.453522 1.800000 -0.215553
v -0.453522 1.800000 -0.215553
v -0.429222 0.434400 -0.192868
v 0.429222 0.434400 -0.192868
v 0.429222 0.434400 0.156868
v -0.429222 0.434400 0.156868
v 0.432000 0.437400 0.158000
v -0.432000 0.437400 0.158000
v 0.432000 0.437400 -0.194000
v -0.432000 0.437400 -0.194000
v 0.432000 0.441400 0.158000
v -0.432000 0.441400 0.158000
v 0.432000 0.441400 -0.194000
v -0.432000 0.441400 -0.194000
v -0.429222 0.444400 0.156868
v 0.429222 0.444400 0.156868
v 0.429222 0.444400 -0.192868
v -0.429222 0.444400 -0.192868
v -0.430000 0.433400 0.168000
v -0.430000 0.433400 0.154000
v 0.430000 0.433400 0.154000
v 0.430000 0.433400 0.168000
v -0.430000 0.445400 0.168000
v 0.430000 0.445400 0.168000
v 0.430000 0.445400 0.154000
v -0.430000 0.445400 0.154000
v -0.429222 0.768800 -0.192868
v 0.429222 0.768800 -0.192868
v 0.429222 0.768800 0.156868
v -0.429222 0.768800 0.156868
v 0.432000 0.771800 0.158000
v -0.432000 0.771800 0.158000
v 0.432000 0.771800 -0.194000
v -0.432000 0.771800 -0.194000
v 0.432000 0.775800 0.158000
v -0.432000 0.775800 0.158000
v 0.432000 0.775800 -0.194000
v -0.432000 0.775800 -0.194000
v -0.429222 0.778800 0.156868
v 0.429222 0.778800 0.156868
v 0.429222 0.778800 -0.192868
v -0.429222 0.778800 -0.192868
v -0.430000 0.767800 0.168000
v -0.430000 0.767800 0.154000
v 0.430000 0.767800 0.154000
v 0.430000 0.767800 0.168000
v -0.430000 0.779800 0.168000
v 0.430000 0.779800 0.168000
v 0.430000 0.779800 0.154000
v -0.430000 0.779800 0.154000
v -0.429222 1.103200 -0.192868
v 0.429222 1.103200 -0.192868
v 0.429222 1.103200 0.156868
v -0.429222 1.103200 0.156868
v 0.432000 1.106200 0.158000
v -0.432000 1.106200 0.158000
v 0.432000 1.106200 -0.194000
v -0.432000 1.106200 -0.194000
v 0.432000 1.110200 0.158000
v -0.432000 1.110200 0.158000
v 0.432000 1.110200 -0.194000
v -0.432000 1.110200 -0.194000
v -0.429222 1.113200 0.156868
v 0.429222 1.113200 0.156868
v 0.429222 1.113200 -0.192868
v -0.429222 1.113200 -0.192868
v -0.430000 1.102200 0.168000
v -0.430000 1.102200 0.154000
v 0.430000 1.102200 0.154000
v 0.430000 1.102200 0.168000
v -0.430000 1.114200 0.168000
v 0.430000 1.114200 0.168000
v 0.430000 1.114200 0.154000
v -0.430000 1.114200 0.154000
v -0.429222 1.437600 -0.192868
v 0.429222 1.437600 -0.192868
v 0.429222 1.437600 0.156868
v -0.429222 1.437600 0.156868
v 0.432000 1.440600 0.158000
v -0.432000 1.440600 0.158000
v 0.432000 1.440600 -0.194000
v -0.432000 1.440600 -0.194000
v 0.432000 1.444600 0.158000
v -0.432000 1.444600 0.158000
v 0.432000 1.444600 -0.194000
v -0.432000 1.444600 -0.194000
v -0.429222 1.447600 0.156868
v 0.429222 1.447600 0.156868
v 0.429222 1.447600 -0.192868
v -0.429222 1.447600 -0.192868
v -0.430000 1.436600 0.168000
v -0.430000 1.436600 0.154000
v 0.430000 1.436600 0.154000
v 0.430000 1.436600 0.168000
v -0.430000 1.448600 0.168000
v 0.430000 1.448600 0.168000
v 0.430000 1.448600 0.154000
v -0.430000 1.448600 0.154000
v -0.426000 0.106000 0.192000
v -0.426000 0.106000 0.174000
v -0.004000 0.106000 0.174000
v -0.004000 0.106000 0.192000
v -0.426000 0.158000 0.192000
v -0.004000 0.158000 0.192000
v -0.004000 0.158000 0.174000
v -0.426000 0.158000 0.174000
v -0.426000 1.714000 0.192000
v -0.426000 1.714000 0.174000
v -0.004000 1.714000 0.174000
v -0.004000 1.714000 0.192000
v -0.426000 1.766000 0.192000
v -0.004000 1.766000 0.192000
v -0.004000 1.766000 0.174000
v -0.426000 1.766000 0.174000
v -0.374000 0.106000 0.174000
v -0.374000 0.106000 0.192000
v -0.374000 1.766000 0.192000
v -0.374000 1.766000 0.174000
v -0.056000 0.106000 0.192000
v -0.056000 0.106000 0.174000
v -0.056000 1.766000 0.192000
v -0.056000 1.766000 0.174000
v -0.378000 0.154000 0.186000
v -0.378000 0.154000 0.180000
v -0.052000 0.154000 0.180000
v -0.052000 0.154000 0.186000
v -0.378000 1.718000 0.186000
v -0.052000 1.718000 0.186000
v -0.052000 1.718000 0.180000
v -0.378000 1.718000 0.180000
v 0.004000 0.106000 0.192000
v 0.004000 0.106000 0.174000
v 0.426000 0.106000 0.174000
v 0.426000 0.106000 0.192000
v 0.004000 0.158000 0.192000
v 0.426000 0.158000 0.192000
v 0.426000 0.158000 0.174000
v 0.004000 0.158000 0.174000
v 0.004000 1.714000 0.192000
v 0.004000 1.714000 0.174000
v 0.426000 1.714000 0.174000
v 0.426000 1.714000 0.192000
v 0.004000 1.766000 0.192000
v 0.426000 1.766000 0.192000
v 0.426000 1.766000 0.174000
v 0.004000 1.766000 0.174000
v 0.056000 0.106000 0.174000
v 0.056000 0.106000 0.192000
v 0.056000 1.766000 0.192000
v 0.056000 1.766000 0.174000
v 0.374000 0.106000 0.192000
v 0.374000 0.106000 0.174000
v 0.374000 1.766000 0.192000
v 0.374000 1.766000 0.174000
v 0.052000 0.154000 0.186000
v 0.052000 0.154000 0.180000
v 0.378000 0.154000 0.180000
v 0.378000 0.154000 0.186000
v 0.052000 1.718000 0.186000
v 0.378000 1.718000 0.186000
v 0.378000 1.718000 0.180000
v 0.052000 1.718000 0.180000
v -0.039500 1.010474 0.192000
v -0.028500 1.010474 0.192000
v -0.023000 1.020000 0.192000
v -0.028500 1.029526 0.192000
v -0.039500 1.029526 0.192000
v -0.045000 1.020000 0.192000
v -0.045000 1.020000 0.218000
v -0.039500 1.029526 0.218000
v -0.028500 1.029526 0.218000
v -0.023000 1.020000 0.218000
v -0.028500 1.010474 0.218000
v -0.039500 1.010474 0.218000
v 0.028500 1.010474 0.192000
v 0.039500 1.010474 0.192000
v 0.045000 1.020000 0.192000
v 0.039500 1.029526 0.192000
v 0.028500 1.029526 0.192000
v 0.023000 1.020000 0.192000
v 0.023000 1.020000 0.218000
v 0.028500 1.029526 0.218000
v 0.039500 1.029526 0.218000
v 0.045000 1.020000 0.218000
v 0.039500 1.010474 0.218000
v 0.028500 1.010474 0.218000
vn -0.0000 -1.0000 -0.0000
vn -0.0000 1.0000 -0.0000
vn -0.0000 -0.0000 1.0000
vn -0.0000 -0.0000 -1.0000
vn -1.0000 -0.0000 -0.0000
vn 1.0000 -0.0000 -0.0000
vn -0.0000 -0.3776 0.9260
vn 0.7385 -0.6743 -0.0000
vn -0.0000 -0.3776 -0.9260
vn -0.7385 -0.6743 -0.0000
vn -0.0000 0.3776 0.9260
vn 0.7385 0.6743 -0.0000
vn -0.0000 0.3776 -0.9260
vn -0.7385 0.6743 -0.0000
vn -0.0000 -0.3530 0.9356
vn 0.7337 -0.6795 -0.0000
vn -0.0000 -0.3530 -0.9356
vn -0.7337 -0.6795 -0.0000
vn -0.0000 0.3530 0.9356
vn 0.7337 0.6795 -0.0000
vn -0.0000 0.3530 -0.9356
vn -0.7337 0.6795 -0.0000
vn 0.8660 -0.5000 -0.0000
vn -0.8660 -0.5000 -0.0000
vn -0.8660 0.5000 -0.0000
vn 0.8660 0.5000 -0.0000
vt 0.812500 0.937500
vt 0.437500 0.937500
vt 0.937500 0.937500
vt 0.437500 0.187500
vt 0.187500 0.312500
vt 0.437500 0.312500
s 0
usemtl FN_Atlas
f 1/1/1 2/1/1 3/1/1 4/1/1
f 5/1/2 6/1/2 7/1/2 8/1/2
f 1/1/3 4/1/3 6/1/3 5/1/3
f 3/1/4 2/1/4 8/1/4 7/1/4
f 1/1/5 5/1/5 8/1/5 2/1/5
f 4/1/6 3/1/6 7/1/6 6/1/6
f 9/2/1 10/2/1 11/2/1 12/2/1
f 13/2/2 14/2/2 15/2/2 16/2/2
f 9/2/3 12/2/3 14/2/3 13/2/3
f 11/2/4 10/2/4 16/2/4 15/2/4
f 9/2/5 13/2/5 16/2/5 10/2/5
f 12/3/6 11/3/6 15/3/6 14/3/6
f 17/2/1 18/2/1 19/2/1 20/2/1
f 21/2/2 22/2/2 23/2/2 24/2/2
f 17/2/3 20/2/3 22/2/3 21/2/3
f 19/2/4 18/2/4 24/2/4 23/2/4
f 17/3/5 21/3/5 24/3/5 18/3/5
f 20/2/6 19/2/6 23/2/6 22/2/6
f 9/2/1 10/2/1 19/2/1 20/2/1
f 25/3/2 26/3/2 27/3/2 28/3/2
f 9/2/3 20/2/3 26/2/3 25/2/3
f 19/2/4 10/2/4 28/2/4 27/2/4
f 9/2/5 25/2/5 28/2/5 10/2/5
f 20/2/6 19/2/6 27/2/6 26/2/6
f 29/3/1 11/3/1 18/3/1 30/3/1
f 31/3/2 32/3/2 24/3/2 15/3/2
f 29/3/3 30/3/3 32/3/3 31/3/3
f 18/3/4 11/3/4 15/3/4 24/3/4
f 29/3/5 31/3/5 15/3/5 11/3/5
f 30/3/6 18/3/6 24/3/6 32/3/6
f 33/1/1 34/1/1 35/1/1 36/1/1
f 36/1/7 35/1/7 37/1/7 38/1/7
f 35/1/8 34/1/8 39/1/8 37/1/8
f 34/1/9 33/1/9 40/1/9 39/1/9
f 33/1/10 36/1/10 38/1/10 40/1/10
f 38/1/3 37/1/3 41/1/3 42/1/3
f 37/1/6 39/1/6 43/1/6 41/1/6
f 39/1/4 40/1/4 44/1/4 43/1/4
f 40/1/5 38/1/5 42/1/5 44/1/5
f 45/2/2 46/2/2 47/2/2 48/2/2
f 42/1/11 41/1/11 46/1/11 45/1/11
f 41/1/12 43/1/12 47/1/12 46/1/12
f 43/1/13 44/1/13 48/1/13 47/1/13
f 44/1/14 42/1/14 45/1/14 48/1/14
f 65/5/1 66/5/1 67/5/1 68/5/1
f 69/5/2 70/5/2 71/5/2 72/5/2
f 65/5/3 68/5/3 70/5/3 69/5/3
f 67/5/4 66/5/4 72/5/4 71/5/4
f 65/5/5 69/5/5 72/5/5 66/5/5
f 68/5/6 67/5/6 71/5/6 70/5/6
f 89/5/1 90/5/1 91/5/1 92/5/1
f 93/5/2 94/5/2 95/5/2 96/5/2
f 89/5/3 92/5/3 94/5/3 93/5/3
f 91/5/4 90/5/4 96/5/4 95/5/4
f 89/5/5 93/5/5 96/5/5 90/5/5
f 92/5/6 91/5/6 95/5/6 94/5/6
f 113/5/1 114/5/1 115/5/1 116/5/1
f 117/5/2 118/5/2 119/5/2 120/5/2
f 113/5/3 116/5/3 118/5/3 117/5/3
f 115/5/4 114/5/4 120/5/4 119/5/4
f 113/5/5 117/5/5 120/5/5 114/5/5
f 116/5/6 115/5/6 119/5/6 118/5/6
f 137/5/1 138/5/1 139/5/1 140/5/1
f 141/5/2 142/5/2 143/5/2 144/5/2
f 137/5/3 140/5/3 142/5/3 141/5/3
f 139/5/4 138/5/4 144/5/4 143/5/4
f 137/5/5 141/5/5 144/5/5 138/5/5
f 140/5/6 139/5/6 143/5/6 142/5/6
f 145/2/1 146/2/1 147/2/1 148/2/1
f 149/2/2 150/2/2 151/2/2 152/2/2
f 145/2/3 148/2/3 150/2/3 149/2/3
f 147/2/4 146/2/4 152/2/4 151/2/4
f 145/2/5 149/2/5 152/2/5 146/2/5
f 148/2/6 147/2/6 151/2/6 150/2/6
f 153/2/1 154/2/1 155/2/1 156/2/1
f 157/2/2 158/2/2 159/2/2 160/2/2
f 153/2/3 156/2/3 158/2/3 157/2/3
f 155/2/4 154/2/4 160/2/4 159/2/4
f 153/2/5 157/2/5 160/2/5 154/2/5
f 156/2/6 155/2/6 159/2/6 158/2/6
f 145/2/1 146/2/1 161/2/1 162/2/1
f 157/2/2 163/2/2 164/2/2 160/2/2
f 145/2/3 162/2/3 163/2/3 157/2/3
f 161/2/4 146/2/4 160/2/4 164/2/4
f 145/2/5 157/2/5 160/2/5 146/2/5
f 162/2/6 161/2/6 164/2/6 163/2/6
f 165/2/1 166/2/1 147/2/1 148/2/1
f 167/2/2 158/2/2 159/2/2 168/2/2
f 165/2/3 148/2/3 158/2/3 167/2/3
f 147/2/4 166/2/4 168/2/4 159/2/4
f 165/2/5 167/2/5 168/2/5 166/2/5
f 148/2/6 147/2/6 159/2/6 158/2/6
f 177/2/1 178/2/1 179/2/1 180/2/1
f 181/2/2 182/2/2 183/2/2 184/2/2
f 177/2/3 180/2/3 182/2/3 181/2/3
f 179/2/4 178/2/4 184/2/4 183/2/4
f 177/2/5 181/2/5 184/2/5 178/2/5
f 180/2/6 179/2/6 183/2/6 182/2/6
f 185/2/1 186/2/1 187/2/1 188/2/1
f 189/2/2 190/2/2 191/2/2 192/2/2
f 185/2/3 188/2/3 190/2/3 189/2/3
f 187/2/4 186/2/4 192/2/4 191/2/4
f 185/2/5 189/2/5 192/2/5 186/2/5
f 188/2/6 187/2/6 191/2/6 190/2/6
f 177/2/1 178/2/1 193/2/1 194/2/1
f 189/2/2 195/2/2 196/2/2 192/2/2
f 177/2/3 194/2/3 195/2/3 189/2/3
f 193/2/4 178/2/4 192/2/4 196/2/4
f 177/2/5 189/2/5 192/2/5 178/2/5
f 194/2/6 193/2/6 196/2/6 195/2/6
f 197/2/1 198/2/1 179/2/1 180/2/1
f 199/2/2 190/2/2 191/2/2 200/2/2
f 197/2/3 180/2/3 190/2/3 199/2/3
f 179/2/4 198/2/4 200/2/4 191/2/4
f 197/2/5 199/2/5 200/2/5 198/2/5
f 180/2/6 179/2/6 191/2/6 190/2/6
f 209/6/3 210/6/3 211/6/3 212/6/3 213/6/3 214/6/3
f 215/6/4 216/6/4 217/6/4 218/6/4 219/6/4 220/6/4
f 214/6/23 213/6/23 216/6/23 215/6/23
f 213/6/1 212/6/1 217/6/1 216/6/1
f 212/6/24 211/6/24 218/6/24 217/6/24
f 211/6/25 210/6/25 219/6/25 218/6/25
f 210/6/2 209/6/2 220/6/2 219/6/2
f 209/6/26 214/6/26 215/6/26 220/6/26
f 221/6/3 222/6/3 223/6/3 224/6/3 225/6/3 226/6/3
f 227/6/4 228/6/4 229/6/4 230/6/4 231/6/4 232/6/4
f 226/6/23 225/6/23 228/6/23 227/6/23
f 225/6/1 224/6/1 229/6/1 228/6/1
f 224/6/24 223/6/24 230/6/24 229/6/24
f 223/6/25 222/6/25 231/6/25 230/6/25
f 222/6/2 221/6/2 232/6/2 231/6/2
f 221/6/26 226/6/26 227/6/26 232/6/26
usemtl FN_Glass
f 49/4/1 50/4/1 51/4/1 52/4/1
f 52/4/15 51/4/15 53/4/15 54/4/15
f 51/4/16 50/4/16 55/4/16 53/4/16
f 50/4/17 49/4/17 56/4/17 55/4/17
f 49/4/18 52/4/18 54/4/18 56/4/18
f 54/4/3 53/4/3 57/4/3 58/4/3
f 53/4/6 55/4/6 59/4/6 57/4/6
f 55/4/4 56/4/4 60/4/4 59/4/4
f 56/4/5 54/4/5 58/4/5 60/4/5
f 61/4/2 62/4/2 63/4/2 64/4/2
f 58/4/19 57/4/19 62/4/19 61/4/19
f 57/4/20 59/4/20 63/4/20 62/4/20
f 59/4/21 60/4/21 64/4/21 63/4/21
f 60/4/22 58/4/22 61/4/22 64/4/22
f 73/4/1 74/4/1 75/4/1 76/4/1
f 76/4/15 75/4/15 77/4/15 78/4/15
f 75/4/16 74/4/16 79/4/16 77/4/16
f 74/4/17 73/4/17 80/4/17 79/4/17
f 73/4/18 76/4/18 78/4/18 80/4/18
f 78/4/3 77/4/3 81/4/3 82/4/3
f 77/4/6 79/4/6 83/4/6 81/4/6
f 79/4/4 80/4/4 84/4/4 83/4/4
f 80/4/5 78/4/5 82/4/5 84/4/5
f 85/4/2 86/4/2 87/4/2 88/4/2
f 82/4/19 81/4/19 86/4/19 85/4/19
f 81/4/20 83/4/20 87/4/20 86/4/20
f 83/4/21 84/4/21 88/4/21 87/4/21
f 84/4/22 82/4/22 85/4/22 88/4/22
f 97/4/1 98/4/1 99/4/1 100/4/1
f 100/4/15 99/4/15 101/4/15 102/4/15
f 99/4/16 98/4/16 103/4/16 101/4/16
f 98/4/17 97/4/17 104/4/17 103/4/17
f 97/4/18 100/4/18 102/4/18 104/4/18
f 102/4/3 101/4/3 105/4/3 106/4/3
f 101/4/6 103/4/6 107/4/6 105/4/6
f 103/4/4 104/4/4 108/4/4 107/4/4
f 104/4/5 102/4/5 106/4/5 108/4/5
f 109/4/2 110/4/2 111/4/2 112/4/2
f 106/4/19 105/4/19 110/4/19 109/4/19
f 105/4/20 107/4/20 111/4/20 110/4/20
f 107/4/21 108/4/21 112/4/21 111/4/21
f 108/4/22 106/4/22 109/4/22 112/4/22
f 121/4/1 122/4/1 123/4/1 124/4/1
f 124/4/15 123/4/15 125/4/15 126/4/15
f 123/4/16 122/4/16 127/4/16 125/4/16
f 122/4/17 121/4/17 128/4/17 127/4/17
f 121/4/18 124/4/18 126/4/18 128/4/18
f 126/4/3 125/4/3 129/4/3 130/4/3
f 125/4/6 127/4/6 131/4/6 129/4/6
f 127/4/4 128/4/4 132/4/4 131/4/4
f 128/4/5 126/4/5 130/4/5 132/4/5
f 133/4/2 134/4/2 135/4/2 136/4/2
f 130/4/19 129/4/19 134/4/19 133/4/19
f 129/4/20 131/4/20 135/4/20 134/4/20
f 131/4/21 132/4/21 136/4/21 135/4/21
f 132/4/22 130/4/22 133/4/22 136/4/22
f 169/4/1 170/4/1 171/4/1 172/4/1
f 173/4/2 174/4/2 175/4/2 176/4/2
f 169/4/3 172/4/3 174/4/3 173/4/3
f 171/4/4 170/4/4 176/4/4 175/4/4
f 169/4/5 173/4/5 176/4/5 170/4/5
f 172/4/6 171/4/6 175/4/6 174/4/6
f 201/4/1 202/4/1 203/4/1 204/4/1
f 205/4/2 206/4/2 207/4/2 208/4/2
f 201/4/3 204/4/3 206/4/3 205/4/3
f 203/4/4 202/4/4 208/4/4 207/4/4
f 201/4/5 205/4/5 208/4/5 202/4/5
f 204/4/6 203/4/6 207/4/6 206/4/6
