# Blender 5.2.0 LTS
# www.blender.org
mtllib FN_Cushion_Scatter.mtl
o FN_Cushion_Scatter
v -0.111000 0.000000 0.165000
v -0.149184 0.000000 0.149184
v -0.165000 0.000000 0.111000
v -0.165000 0.000000 -0.111000
v -0.149184 0.000000 -0.149184
v -0.111000 0.000000 -0.165000
v 0.111000 0.000000 -0.165000
v 0.149184 0.000000 -0.149184
v 0.165000 0.000000 -0.111000
v 0.165000 0.000000 0.111000
v 0.149184 0.000000 0.149184
v 0.111000 0.000000 0.165000
v 0.203640 0.060000 0.203640
v 0.140000 0.060000 0.230000
v 0.230000 0.060000 0.140000
v 0.230000 0.060000 -0.140000
v 0.203640 0.060000 -0.203640
v 0.140000 0.060000 -0.230000
v -0.140000 0.060000 -0.230000
v -0.203640 0.060000 -0.203640
v -0.230000 0.060000 -0.140000
v -0.230000 0.060000 0.140000
v -0.203640 0.060000 0.203640
v -0.140000 0.060000 0.230000
v 0.206468 0.068000 0.206468
v 0.140000 0.068000 0.234000
v 0.234000 0.068000 0.140000
v 0.234000 0.068000 -0.140000
v 0.206468 0.068000 -0.206468
v 0.140000 0.068000 -0.234000
v -0.140000 0.068000 -0.234000
v -0.206468 0.068000 -0.206468
v -0.234000 0.068000 -0.140000
v -0.234000 0.068000 0.140000
v -0.206468 0.068000 0.206468
v -0.140000 0.068000 0.234000
v 0.206468 0.078000 0.206468
v 0.140000 0.078000 0.234000
v 0.234000 0.078000 0.140000
v 0.234000 0.078000 -0.140000
v 0.206468 0.078000 -0.206468
v 0.140000 0.078000 -0.234000
v -0.140000 0.078000 -0.234000
v -0.206468 0.078000 -0.206468
v -0.234000 0.078000 -0.140000
v -0.234000 0.078000 0.140000
v -0.206468 0.078000 0.206468
v -0.140000 0.078000 0.234000
v 0.203640 0.086000 0.203640
v 0.140000 0.086000 0.230000
v 0.230000 0.086000 0.140000
v 0.230000 0.086000 -0.140000
v 0.203640 0.086000 -0.203640
v 0.140000 0.086000 -0.230000
v -0.140000 0.086000 -0.230000
v -0.203640 0.086000 -0.203640
v -0.230000 0.086000 -0.140000
v -0.230000 0.086000 0.140000
v -0.203640 0.086000 0.203640
v -0.140000 0.086000 0.230000
v 0.155657 0.148000 0.155657
v 0.116200 0.148000 0.172000
v 0.172000 0.148000 0.116200
v 0.172000 0.148000 -0.116200
v 0.155657 0.148000 -0.155657
v 0.116200 0.148000 -0.172000
v -0.116200 0.148000 -0.172000
v -0.155657 0.148000 -0.155657
v -0.172000 0.148000 -0.116200
v -0.172000 0.148000 0.116200
v -0.155657 0.148000 0.155657
v -0.116200 0.148000 0.172000
vn -0.0000 -1.0000 -0.0000
vn 0.2467 -0.7645 0.5956
vn 0.5956 -0.7645 0.2467
vn 0.6783 -0.7348 -0.0000
vn 0.5956 -0.7645 -0.2467
vn 0.2467 -0.7645 -0.5956
vn -0.0000 -0.7348 -0.6783
vn -0.2467 -0.7645 -0.5956
vn -0.5956 -0.7645 -0.2467
vn -0.6783 -0.7348 -0.0000
vn -0.5956 -0.7645 0.2467
vn -0.2467 -0.7645 0.5956
vn -0.0000 -0.7348 0.6783
vn 0.3474 -0.4194 0.8387
vn 0.8387 -0.4194 0.3474
vn 0.8944 -0.4472 -0.0000
vn 0.8387 -0.4194 -0.3474
vn 0.3474 -0.4194 -0.8387
vn -0.0000 -0.4472 -0.8944
vn -0.3474 -0.4194 -0.8387
vn -0.8387 -0.4194 -0.3474
vn -0.8944 -0.4472 -0.0000
vn -0.8387 -0.4194 0.3474
vn -0.3474 -0.4194 0.8387
vn -0.0000 -0.4472 0.8944
vn 0.3827 -0.0000 0.9239
vn 0.9239 -0.0000 0.3827
vn 1.0000 -0.0000 -0.0000
vn 0.9239 -0.0000 -0.3827
vn 0.3827 -0.0000 -0.9239
vn -0.0000 -0.0000 -1.0000
vn -0.3827 -0.0000 -0.9239
vn -0.9239 -0.0000 -0.3827
vn -1.0000 -0.0000 -0.0000
vn -0.9239 -0.0000 0.3827
vn -0.3827 -0.0000 0.9239
vn -0.0000 -0.0000 1.0000
vn 0.3474 0.4194 0.8387
vn 0.8387 0.4194 0.3474
vn 0.8944 0.4472 -0.0000
vn 0.8387 0.4194 -0.3474
vn 0.3474 0.4194 -0.8387
vn -0.0000 0.4472 -0.8944
vn -0.3474 0.4194 -0.8387
vn -0.8387 0.4194 -0.3474
vn -0.8944 0.4472 -0.0000
vn -0.8387 0.4194 0.3474
vn -0.3474 0.4194 0.8387
vn -0.0000 0.4472 0.8944
vn 0.2691 0.7110 0.6496
vn 0.6496 0.7110 0.2691
vn 0.7303 0.6832 -0.0000
vn 0.6496 0.7110 -0.2691
vn 0.2691 0.7110 -0.6496
vn -0.0000 0.6832 -0.7303
vn -0.2691 0.7110 -0.6496
vn -0.6496 0.7110 -0.2691
vn -0.7303 0.6832 -0.0000
vn -0.6496 0.7110 0.2691
vn -0.2691 0.7110 0.6496
vn -0.0000 0.6832 0.7303
vn -0.0000 1.0000 -0.0000
vt 0.812500 0.437500
vt 0.312500 0.687500
s 0
usemtl FN_Atlas
f 1/1/1 2/1/1 3/1/1 4/1/1 5/1/1 6/1/1 7/1/1 8/1/1 9/1/1 10/1/1 11/1/1 12/1/1
f 12/1/2 11/1/2 13/1/2 14/1/2
f 11/1/3 10/1/3 15/1/3 13/1/3
f 10/1/4 9/1/4 16/1/4 15/1/4
f 9/1/5 8/1/5 17/1/5 16/1/5
f 8/1/6 7/1/6 18/1/6 17/1/6
f 7/1/7 6/1/7 19/1/7 18/1/7
f 6/1/8 5/1/8 20/1/8 19/1/8
f 5/1/9 4/1/9 21/1/9 20/1/9
f 4/1/10 3/1/10 22/1/10 21/1/10
f 3/1/11 2/1/11 23/1/11 22/1/11
f 2/1/12 1/1/12 24/1/12 23/1/12
f 1/1/13 12/1/13 14/1/13 24/1/13
f 14/2/14 13/2/14 25/2/14 26/2/14
f 13/2/15 15/2/15 27/2/15 25/2/15
f 15/2/16 16/2/16 28/2/16 27/2/16
f 16/2/17 17/2/17 29/2/17 28/2/17
f 17/2/18 18/2/18 30/2/18 29/2/18
f 18/2/19 19/2/19 31/2/19 30/2/19
f 19/2/20 20/2/20 32/2/20 31/2/20
f 20/2/21 21/2/21 33/2/21 32/2/21
f 21/2/22 22/2/22 34/2/22 33/2/22
f 22/2/23 23/2/23 35/2/23 34/2/23
f 23/2/24 24/2/24 36/2/24 35/2/24
f 24/2/25 14/2/25 26/2/25 36/2/25
f 26/2/26 25/2/26 37/2/26 38/2/26
f 25/2/27 27/2/27 39/2/27 37/2/27
f 27/2/28 28/2/28 40/2/28 39/2/28
f 28/2/29 29/2/29 41/2/29 40/2/29
f 29/2/30 30/2/30 42/2/30 41/2/30
f 30/2/31 31/2/31 43/2/31 42/2/31
f 31/2/32 32/2/32 44/2/32 43/2/32
f 32/2/33 33/2/33 45/2/33 44/2/33
f 33/2/34 34/2/34 46/2/34 45/2/34
f 34/2/35 35/2/35 47/2/35 46/2/35
f 35/2/36 36/2/36 48/2/36 47/2/36
f 36/2/37 26/2/37 38/2/37 48/2/37
f 38/2/38 37/2/38 49/2/38 50/2/38
f 37/2/39 39/2/39 51/2/39 49/2/39
f 39/2/40 40/2/40 52/2/40 51/2/40
f 40/2/41 41/2/41 53/2/41 52/2/41
f 41/2/42 42/2/42 54/2/42 53/2/42
f 42/2/43 43/2/43 55/2/43 54/2/43
f 43/2/44 44/2/44 56/2/44 55/2/44
f 44/2/45 45/2/45 57/2/45 56/2/45
f 45/2/46 46/2/46 58/2/46 57/2/46
f 46/2/47 47/2/47 59/2/47 58/2/47
f 47/2/48 48/2/48 60/2/48 59/2/48
f 48/2/49 38/2/49 50/2/49 60/2/49
f 50/1/50 49/1/50 61/1/50 62/1/50
f 49/1/51 51/1/51 63/1/51 61/1/51
f 51/1/52 52/1/52 64/1/52 63/1/52
f 52/1/53 53/1/53 65/1/53 64/1/53
f 53/1/54 54/1/54 66/1/54 65/1/54
f 54/1/55 55/1/55 67/1/55 66/1/55
f 55/1/56 56/1/56 68/1/56 67/1/56
f 56/1/57 57/1/57 69/1/57 68/1/57
f 57/1/58 58/1/58 70/1/58 69/1/58
f 58/1/59 59/1/59 71/1/59 70/1/59
f 59/1/60 60/1/60 72/1/60 71/1/60
f 60/1/61 50/1/61 62/1/61 72/1/61
f 62/1/62 61/1/62 63/1/62 64/1/62 65/1/62 66/1/62 67/1/62 68/1/62 69/1/62 70/1/62 71/1/62 72/1/62
