# Blender 5.2.0 LTS
# www.blender.org
mtllib FN_Chest_Drawers.mtl
o FN_Chest_Drawers
v -0.428000 0.000000 0.178500
v -0.428000 0.000000 -0.239500
v 0.428000 0.000000 -0.239500
v 0.428000 0.000000 0.178500
v -0.428000 0.080000 0.178500
v 0.428000 0.080000 0.178500
v 0.428000 0.080000 -0.239500
v -0.428000 0.080000 -0.239500
v -0.450000 0.080000 0.204500
v -0.450000 0.080000 -0.245500
v -0.432000 0.080000 -0.245500
v -0.432000 0.080000 0.204500
v -0.450000 0.950000 0.204500
v -0.432000 0.950000 0.204500
v -0.432000 0.950000 -0.245500
v -0.450000 0.950000 -0.245500
v 0.432000 0.080000 0.204500
v 0.432000 0.080000 -0.245500
v 0.450000 0.080000 -0.245500
v 0.450000 0.080000 0.204500
v 0.432000 0.950000 0.204500
v 0.450000 0.950000 0.204500
v 0.450000 0.950000 -0.245500
v 0.432000 0.950000 -0.245500
v -0.450000 0.098000 0.204500
v 0.450000 0.098000 0.204500
v 0.450000 0.098000 -0.245500
v -0.450000 0.098000 -0.245500
v -0.432000 0.080000 -0.233500
v 0.432000 0.080000 -0.233500
v -0.432000 0.950000 -0.233500
v 0.432000 0.950000 -0.233500
v -0.432000 0.098000 0.204500
v -0.432000 0.098000 0.190500
v 0.432000 0.098000 0.190500
v 0.432000 0.098000 0.204500
v 0.432000 0.950000 0.190500
v -0.432000 0.950000 0.190500
v -0.453739 0.950000 -0.252369
v 0.453739 0.950000 -0.252369
v 0.453739 0.950000 0.201369
v -0.453739 0.950000 0.201369
v 0.460000 0.957000 0.204500
v -0.460000 0.957000 0.204500
v 0.460000 0.957000 -0.255500
v -0.460000 0.957000 -0.255500
v 0.460000 0.973000 0.204500
v -0.460000 0.973000 0.204500
v 0.460000 0.973000 -0.255500
v -0.460000 0.973000 -0.255500
v -0.453739 0.980000 0.201369
v 0.453739 0.980000 0.201369
v 0.453739 0.980000 -0.252369
v -0.453739 0.980000 -0.252369
v -0.428000 0.106000 0.220500
v -0.428000 0.106000 0.202500
v 0.428000 0.106000 0.202500
v 0.428000 0.106000 0.220500
v -0.428000 0.335478 0.220500
v 0.428000 0.335478 0.220500
v 0.428000 0.335478 0.202500
v -0.428000 0.335478 0.202500
v -0.191000 0.220739 0.221500
v -0.193500 0.225069 0.221500
v -0.198500 0.225069 0.221500
v -0.201000 0.220739 0.221500
v -0.198500 0.216409 0.221500
v -0.193500 0.216409 0.221500
v -0.191000 0.212079 0.255500
v -0.201000 0.212079 0.255500
v -0.206000 0.220739 0.255500
v -0.201000 0.229399 0.255500
v -0.191000 0.229399 0.255500
v -0.186000 0.220739 0.255500
v -0.193000 0.225935 0.233500
v -0.190000 0.220739 0.233500
v -0.199000 0.225935 0.233500
v -0.202000 0.220739 0.233500
v -0.199000 0.215543 0.233500
v -0.193000 0.215543 0.233500
v -0.187500 0.235462 0.241500
v -0.179000 0.220739 0.241500
v -0.204500 0.235462 0.241500
v -0.213000 0.220739 0.241500
v -0.204500 0.206017 0.241500
v -0.187500 0.206017 0.241500
v -0.188000 0.234596 0.251500
v -0.180000 0.220739 0.251500
v -0.204000 0.234596 0.251500
v -0.212000 0.220739 0.251500
v -0.204000 0.206883 0.251500
v -0.188000 0.206883 0.251500
v 0.201000 0.220739 0.221500
v 0.198500 0.225069 0.221500
v 0.193500 0.225069 0.221500
v 0.191000 0.220739 0.221500
v 0.193500 0.216409 0.221500
v 0.198500 0.216409 0.221500
v 0.201000 0.212079 0.255500
v 0.191000 0.212079 0.255500
v 0.186000 0.220739 0.255500
v 0.191000 0.229399 0.255500
v 0.201000 0.229399 0.255500
v 0.206000 0.220739 0.255500
v 0.199000 0.225935 0.233500
v 0.202000 0.220739 0.233500
v 0.193000 0.225935 0.233500
v 0.190000 0.220739 0.233500
v 0.193000 0.215543 0.233500
v 0.199000 0.215543 0.233500
v 0.204500 0.235462 0.241500
v 0.213000 0.220739 0.241500
v 0.187500 0.235462 0.241500
v 0.179000 0.220739 0.241500
v 0.187500 0.206017 0.241500
v 0.204500 0.206017 0.241500
v 0.204000 0.234596 0.251500
v 0.212000 0.220739 0.251500
v 0.188000 0.234596 0.251500
v 0.180000 0.220739 0.251500
v 0.188000 0.206883 0.251500
v 0.204000 0.206883 0.251500
v -0.428000 0.343478 0.220500
v -0.428000 0.343478 0.202500
v 0.428000 0.343478 0.202500
v 0.428000 0.343478 0.220500
v -0.428000 0.555304 0.220500
v 0.428000 0.555304 0.220500
v 0.428000 0.555304 0.202500
v -0.428000 0.555304 0.202500
v -0.191000 0.449391 0.221500
v -0.193500 0.453721 0.221500
v -0.198500 0.453721 0.221500
v -0.201000 0.449391 0.221500
v -0.198500 0.445061 0.221500
v -0.193500 0.445061 0.221500
v -0.191000 0.440731 0.255500
v -0.201000 0.440731 0.255500
v -0.206000 0.449391 0.255500
v -0.201000 0.458052 0.255500
v -0.191000 0.458052 0.255500
v -0.186000 0.449391 0.255500
v -0.193000 0.454587 0.233500
v -0.190000 0.449391 0.233500
v -0.199000 0.454587 0.233500
v -0.202000 0.449391 0.233500
v -0.199000 0.444195 0.233500
v -0.193000 0.444195 0.233500
v -0.187500 0.464114 0.241500
v -0.179000 0.449391 0.241500
v -0.204500 0.464114 0.241500
v -0.213000 0.449391 0.241500
v -0.204500 0.434669 0.241500
v -0.187500 0.434669 0.241500
v -0.188000 0.463248 0.251500
v -0.180000 0.449391 0.251500
v -0.204000 0.463248 0.251500
v -0.212000 0.449391 0.251500
v -0.204000 0.435535 0.251500
v -0.188000 0.435535 0.251500
v 0.201000 0.449391 0.221500
v 0.198500 0.453721 0.221500
v 0.193500 0.453721 0.221500
v 0.191000 0.449391 0.221500
v 0.193500 0.445061 0.221500
v 0.198500 0.445061 0.221500
v 0.201000 0.440731 0.255500
v 0.191000 0.440731 0.255500
v 0.186000 0.449391 0.255500
v 0.191000 0.458052 0.255500
v 0.201000 0.458052 0.255500
v 0.206000 0.449391 0.255500
v 0.199000 0.454587 0.233500
v 0.202000 0.449391 0.233500
v 0.193000 0.454587 0.233500
v 0.190000 0.449391 0.233500
v 0.193000 0.444195 0.233500
v 0.199000 0.444195 0.233500
v 0.204500 0.464114 0.241500
v 0.213000 0.449391 0.241500
v 0.187500 0.464114 0.241500
v 0.179000 0.449391 0.241500
v 0.187500 0.434669 0.241500
v 0.204500 0.434669 0.241500
v 0.204000 0.463248 0.251500
v 0.212000 0.449391 0.251500
v 0.188000 0.463248 0.251500
v 0.180000 0.449391 0.251500
v 0.188000 0.435535 0.251500
v 0.204000 0.435535 0.251500
v -0.428000 0.563304 0.220500
v -0.428000 0.563304 0.202500
v 0.428000 0.563304 0.202500
v 0.428000 0.563304 0.220500
v -0.428000 0.757478 0.220500
v 0.428000 0.757478 0.220500
v 0.428000 0.757478 0.202500
v -0.428000 0.757478 0.202500
v -0.191000 0.660391 0.221500
v -0.193500 0.664721 0.221500
v -0.198500 0.664721 0.221500
v -0.201000 0.660391 0.221500
v -0.198500 0.656061 0.221500
v -0.193500 0.656061 0.221500
v -0.191000 0.651731 0.255500
v -0.201000 0.651731 0.255500
v -0.206000 0.660391 0.255500
v -0.201000 0.669052 0.255500
v -0.191000 0.669052 0.255500
v -0.186000 0.660391 0.255500
v -0.193000 0.665587 0.233500
v -0.190000 0.660391 0.233500
v -0.199000 0.665587 0.233500
v -0.202000 0.660391 0.233500
v -0.199000 0.655195 0.233500
v -0.193000 0.655195 0.233500
v -0.187500 0.675114 0.241500
v -0.179000 0.660391 0.241500
v -0.204500 0.675114 0.241500
v -0.213000 0.660391 0.241500
v -0.204500 0.645669 0.241500
v -0.187500 0.645669 0.241500
v -0.188000 0.674248 0.251500
v -0.180000 0.660391 0.251500
v -0.204000 0.674248 0.251500
v -0.212000 0.660391 0.251500
v -0.204000 0.646535 0.251500
v -0.188000 0.646535 0.251500
v 0.201000 0.660391 0.221500
v 0.198500 0.664721 0.221500
v 0.193500 0.664721 0.221500
v 0.191000 0.660391 0.221500
v 0.193500 0.656061 0.221500
v 0.198500 0.656061 0.221500
v 0.201000 0.651731 0.255500
v 0.191000 0.651731 0.255500
v 0.186000 0.660391 0.255500
v 0.191000 0.669052 0.255500
v 0.201000 0.669052 0.255500
v 0.206000 0.660391 0.255500
v 0.199000 0.665587 0.233500
v 0.202000 0.660391 0.233500
v 0.193000 0.665587 0.233500
v 0.190000 0.660391 0.233500
v 0.193000 0.655195 0.233500
v 0.199000 0.655195 0.233500
v 0.204500 0.675114 0.241500
v 0.213000 0.660391 0.241500
v 0.187500 0.675114 0.241500
v 0.179000 0.660391 0.241500
v 0.187500 0.645669 0.241500
v 0.204500 0.645669 0.241500
v 0.204000 0.674248 0.251500
v 0.212000 0.660391 0.251500
v 0.188000 0.674248 0.251500
v 0.180000 0.660391 0.251500
v 0.188000 0.646535 0.251500
v 0.204000 0.646535 0.251500
v -0.428000 0.765478 0.220500
v -0.428000 0.765478 0.202500
v 0.428000 0.765478 0.202500
v 0.428000 0.765478 0.220500
v -0.428000 0.942000 0.220500
v 0.428000 0.942000 0.220500
v 0.428000 0.942000 0.202500
v -0.428000 0.942000 0.202500
v -0.191000 0.853739 0.221500
v -0.193500 0.858069 0.221500
v -0.198500 0.858069 0.221500
v -0.201000 0.853739 0.221500
v -0.198500 0.849409 0.221500
v -0.193500 0.849409 0.221500
v -0.191000 0.845079 0.255500
v -0.201000 0.845079 0.255500
v -0.206000 0.853739 0.255500
v -0.201000 0.862399 0.255500
v -0.191000 0.862399 0.255500
v -0.186000 0.853739 0.255500
v -0.193000 0.858935 0.233500
v -0.190000 0.853739 0.233500
v -0.199000 0.858935 0.233500
v -0.202000 0.853739 0.233500
v -0.199000 0.848543 0.233500
v -0.193000 0.848543 0.233500
v -0.187500 0.868462 0.241500
v -0.179000 0.853739 0.241500
v -0.204500 0.868462 0.241500
v -0.213000 0.853739 0.241500
v -0.204500 0.839017 0.241500
v -0.187500 0.839017 0.241500
v -0.188000 0.867596 0.251500
v -0.180000 0.853739 0.251500
v -0.204000 0.867596 0.251500
v -0.212000 0.853739 0.251500
v -0.204000 0.839883 0.251500
v -0.188000 0.839883 0.251500
v 0.201000 0.853739 0.221500
v 0.198500 0.858069 0.221500
v 0.193500 0.858069 0.221500
v 0.191000 0.853739 0.221500
v 0.193500 0.849409 0.221500
v 0.198500 0.849409 0.221500
v 0.201000 0.845079 0.255500
v 0.191000 0.845079 0.255500
v 0.186000 0.853739 0.255500
v 0.191000 0.862399 0.255500
v 0.201000 0.862399 0.255500
v 0.206000 0.853739 0.255500
v 0.199000 0.858935 0.233500
v 0.202000 0.853739 0.233500
v 0.193000 0.858935 0.233500
v 0.190000 0.853739 0.233500
v 0.193000 0.848543 0.233500
v 0.199000 0.848543 0.233500
v 0.204500 0.868462 0.241500
v 0.213000 0.853739 0.241500
v 0.187500 0.868462 0.241500
v 0.179000 0.853739 0.241500
v 0.187500 0.839017 0.241500
v 0.204500 0.839017 0.241500
v 0.204000 0.867596 0.251500
v 0.212000 0.853739 0.251500
v 0.188000 0.867596 0.251500
v 0.180000 0.853739 0.251500
v 0.188000 0.839883 0.251500
v 0.204000 0.839883 0.251500
vn -0.0000 -1.0000 -0.0000
vn -0.0000 1.0000 -0.0000
vn -0.0000 -0.0000 1.0000
vn -0.0000 -0.0000 -1.0000
vn -1.0000 -0.0000 -0.0000
vn 1.0000 -0.0000 -0.0000
vn -0.0000 -0.4082 0.9129
vn 0.7454 -0.6667 -0.0000
vn -0.0000 -0.4082 -0.9129
vn -0.7454 -0.6667 -0.0000
vn -0.0000 0.4082 0.9129
vn 0.7454 0.6667 -0.0000
vn -0.0000 0.4082 -0.9129
vn -0.7454 0.6667 -0.0000
vn 0.8638 0.4987 -0.0720
vn -0.0000 0.9974 -0.0720
vn -0.8638 0.4987 -0.0720
vn -0.8638 -0.4987 -0.0720
vn -0.0000 -0.9974 -0.0720
vn 0.8638 -0.4987 -0.0720
vn 0.5569 0.3215 -0.7658
vn -0.0000 0.6431 -0.7658
vn -0.5569 0.3215 -0.7658
vn -0.5569 -0.3215 -0.7658
vn -0.0000 -0.6431 -0.7658
vn 0.5569 -0.3215 -0.7658
vn 0.8628 0.4981 0.0863
vn -0.0000 0.9963 0.0863
vn -0.8628 0.4981 0.0863
vn -0.8628 -0.4981 0.0863
vn -0.0000 -0.9963 0.0863
vn 0.8628 -0.4981 0.0863
vn 0.5283 0.3050 0.7924
vn -0.0000 0.6100 0.7924
vn -0.5283 0.3050 0.7924
vn -0.5283 -0.3050 0.7924
vn -0.0000 -0.6100 0.7924
vn 0.5283 -0.3050 0.7924
vt 0.812500 0.937500
vt 0.437500 0.937500
vt 0.687500 0.937500
s 0
usemtl FN_Atlas
f 1/1/1 2/1/1 3/1/1 4/1/1
f 5/1/2 6/1/2 7/1/2 8/1/2
f 1/1/3 4/1/3 6/1/3 5/1/3
f 3/1/4 2/1/4 8/1/4 7/1/4
f 1/1/5 5/1/5 8/1/5 2/1/5
f 4/1/6 3/1/6 7/1/6 6/1/6
f 9/2/1 10/2/1 11/2/1 12/2/1
f 13/2/2 14/2/2 15/2/2 16/2/2
f 9/1/3 12/1/3 14/1/3 13/1/3
f 11/2/4 10/2/4 16/2/4 15/2/4
f 9/2/5 13/2/5 16/2/5 10/2/5
f 12/2/6 11/2/6 15/2/6 14/2/6
f 17/2/1 18/2/1 19/2/1 20/2/1
f 21/2/2 22/2/2 23/2/2 24/2/2
f 17/1/3 20/1/3 22/1/3 21/1/3
f 19/2/4 18/2/4 24/2/4 23/2/4
f 17/2/5 21/2/5 24/2/5 18/2/5
f 20/2/6 19/2/6 23/2/6 22/2/6
f 9/2/1 10/2/1 19/2/1 20/2/1
f 25/2/2 26/2/2 27/2/2 28/2/2
f 9/1/3 20/1/3 26/1/3 25/1/3
f 19/2/4 10/2/4 28/2/4 27/2/4
f 9/2/5 25/2/5 28/2/5 10/2/5
f 20/2/6 19/2/6 27/2/6 26/2/6
f 29/1/1 11/1/1 18/1/1 30/1/1
f 31/1/2 32/1/2 24/1/2 15/1/2
f 29/1/3 30/1/3 32/1/3 31/1/3
f 18/1/4 11/1/4 15/1/4 24/1/4
f 29/1/5 31/1/5 15/1/5 11/1/5
f 30/1/6 18/1/6 24/1/6 32/1/6
f 33/1/1 34/1/1 35/1/1 36/1/1
f 14/1/2 21/1/2 37/1/2 38/1/2
f 33/1/3 36/1/3 21/1/3 14/1/3
f 35/1/4 34/1/4 38/1/4 37/1/4
f 33/1/5 14/1/5 38/1/5 34/1/5
f 36/1/6 35/1/6 37/1/6 21/1/6
f 39/1/1 40/1/1 41/1/1 42/1/1
f 42/1/7 41/1/7 43/1/7 44/1/7
f 41/1/8 40/1/8 45/1/8 43/1/8
f 40/1/9 39/1/9 46/1/9 45/1/9
f 39/1/10 42/1/10 44/1/10 46/1/10
f 44/1/3 43/1/3 47/1/3 48/1/3
f 43/1/6 45/1/6 49/1/6 47/1/6
f 45/1/4 46/1/4 50/1/4 49/1/4
f 46/1/5 44/1/5 48/1/5 50/1/5
f 51/3/2 52/3/2 53/3/2 54/3/2
f 48/1/11 47/1/11 52/1/11 51/1/11
f 47/1/12 49/1/12 53/1/12 52/1/12
f 49/1/13 50/1/13 54/1/13 53/1/13
f 50/1/14 48/1/14 51/1/14 54/1/14
f 55/1/1 56/1/1 57/1/1 58/1/1
f 59/1/2 60/1/2 61/1/2 62/1/2
f 55/2/3 58/2/3 60/2/3 59/2/3
f 57/1/4 56/1/4 62/1/4 61/1/4
f 55/1/5 59/1/5 62/1/5 56/1/5
f 58/1/6 57/1/6 61/1/6 60/1/6
f 63/3/3 64/3/3 65/3/3 66/3/3 67/3/3 68/3/3
f 69/3/4 70/3/4 71/3/4 72/3/4 73/3/4 74/3/4
f 63/3/15 64/3/15 75/3/15 76/3/15
f 64/3/16 65/3/16 77/3/16 75/3/16
f 65/3/17 66/3/17 78/3/17 77/3/17
f 66/3/18 67/3/18 79/3/18 78/3/18
f 67/3/19 68/3/19 80/3/19 79/3/19
f 68/3/20 63/3/20 76/3/20 80/3/20
f 76/3/21 75/3/21 81/3/21 82/3/21
f 75/3/22 77/3/22 83/3/22 81/3/22
f 77/3/23 78/3/23 84/3/23 83/3/23
f 78/3/24 79/3/24 85/3/24 84/3/24
f 79/3/25 80/3/25 86/3/25 85/3/25
f 80/3/26 76/3/26 82/3/26 86/3/26
f 82/3/27 81/3/27 87/3/27 88/3/27
f 81/3/28 83/3/28 89/3/28 87/3/28
f 83/3/29 84/3/29 90/3/29 89/3/29
f 84/3/30 85/3/30 91/3/30 90/3/30
f 85/3/31 86/3/31 92/3/31 91/3/31
f 86/3/32 82/3/32 88/3/32 92/3/32
f 88/3/33 87/3/33 73/3/33 74/3/33
f 87/3/34 89/3/34 72/3/34 73/3/34
f 89/3/35 90/3/35 71/3/35 72/3/35
f 90/3/36 91/3/36 70/3/36 71/3/36
f 91/3/37 92/3/37 69/3/37 70/3/37
f 92/3/38 88/3/38 74/3/38 69/3/38
f 93/3/3 94/3/3 95/3/3 96/3/3 97/3/3 98/3/3
f 99/3/4 100/3/4 101/3/4 102/3/4 103/3/4 104/3/4
f 93/3/15 94/3/15 105/3/15 106/3/15
f 94/3/16 95/3/16 107/3/16 105/3/16
f 95/3/17 96/3/17 108/3/17 107/3/17
f 96/3/18 97/3/18 109/3/18 108/3/18
f 97/3/19 98/3/19 110/3/19 109/3/19
f 98/3/20 93/3/20 106/3/20 110/3/20
f 106/3/21 105/3/21 111/3/21 112/3/21
f 105/3/22 107/3/22 113/3/22 111/3/22
f 107/3/23 108/3/23 114/3/23 113/3/23
f 108/3/24 109/3/24 115/3/24 114/3/24
f 109/3/25 110/3/25 116/3/25 115/3/25
f 110/3/26 106/3/26 112/3/26 116/3/26
f 112/3/27 111/3/27 117/3/27 118/3/27
f 111/3/28 113/3/28 119/3/28 117/3/28
f 113/3/29 114/3/29 120/3/29 119/3/29
f 114/3/30 115/3/30 121/3/30 120/3/30
f 115/3/31 116/3/31 122/3/31 121/3/31
f 116/3/32 112/3/32 118/3/32 122/3/32
f 118/3/33 117/3/33 103/3/33 104/3/33
f 117/3/34 119/3/34 102/3/34 103/3/34
f 119/3/35 120/3/35 101/3/35 102/3/35
f 120/3/36 121/3/36 100/3/36 101/3/36
f 121/3/37 122/3/37 99/3/37 100/3/37
f 122/3/38 118/3/38 104/3/38 99/3/38
f 123/1/1 124/1/1 125/1/1 126/1/1
f 127/1/2 128/1/2 129/1/2 130/1/2
f 123/2/3 126/2/3 128/2/3 127/2/3
f 125/1/4 124/1/4 130/1/4 129/1/4
f 123/1/5 127/1/5 130/1/5 124/1/5
f 126/1/6 125/1/6 129/1/6 128/1/6
f 131/3/3 132/3/3 133/3/3 134/3/3 135/3/3 136/3/3
f 137/3/4 138/3/4 139/3/4 140/3/4 141/3/4 142/3/4
f 131/3/15 132/3/15 143/3/15 144/3/15
f 132/3/16 133/3/16 145/3/16 143/3/16
f 133/3/17 134/3/17 146/3/17 145/3/17
f 134/3/18 135/3/18 147/3/18 146/3/18
f 135/3/19 136/3/19 148/3/19 147/3/19
f 136/3/20 131/3/20 144/3/20 148/3/20
f 144/3/21 143/3/21 149/3/21 150/3/21
f 143/3/22 145/3/22 151/3/22 149/3/22
f 145/3/23 146/3/23 152/3/23 151/3/23
f 146/3/24 147/3/24 153/3/24 152/3/24
f 147/3/25 148/3/25 154/3/25 153/3/25
f 148/3/26 144/3/26 150/3/26 154/3/26
f 150/3/27 149/3/27 155/3/27 156/3/27
f 149/3/28 151/3/28 157/3/28 155/3/28
f 151/3/29 152/3/29 158/3/29 157/3/29
f 152/3/30 153/3/30 159/3/30 158/3/30
f 153/3/31 154/3/31 160/3/31 159/3/31
f 154/3/32 150/3/32 156/3/32 160/3/32
f 156/3/33 155/3/33 141/3/33 142/3/33
f 155/3/34 157/3/34 140/3/34 141/3/34
f 157/3/35 158/3/35 139/3/35 140/3/35
f 158/3/36 159/3/36 138/3/36 139/3/36
f 159/3/37 160/3/37 137/3/37 138/3/37
f 160/3/38 156/3/38 142/3/38 137/3/38
f 161/3/3 162/3/3 163/3/3 164/3/3 165/3/3 166/3/3
f 167/3/4 168/3/4 169/3/4 170/3/4 171/3/4 172/3/4
f 161/3/15 162/3/15 173/3/15 174/3/15
f 162/3/16 163/3/16 175/3/16 173/3/16
f 163/3/17 164/3/17 176/3/17 175/3/17
f 164/3/18 165/3/18 177/3/18 176/3/18
f 165/3/19 166/3/19 178/3/19 177/3/19
f 166/3/20 161/3/20 174/3/20 178/3/20
f 174/3/21 173/3/21 179/3/21 180/3/21
f 173/3/22 175/3/22 181/3/22 179/3/22
f 175/3/23 176/3/23 182/3/23 181/3/23
f 176/3/24 177/3/24 183/3/24 182/3/24
f 177/3/25 178/3/25 184/3/25 183/3/25
f 178/3/26 174/3/26 180/3/26 184/3/26
f 180/3/27 179/3/27 185/3/27 186/3/27
f 179/3/28 181/3/28 187/3/28 185/3/28
f 181/3/29 182/3/29 188/3/29 187/3/29
f 182/3/30 183/3/30 189/3/30 188/3/30
f 183/3/31 184/3/31 190/3/31 189/3/31
f 184/3/32 180/3/32 186/3/32 190/3/32
f 186/3/33 185/3/33 171/3/33 172/3/33
f 185/3/34 187/3/34 170/3/34 171/3/34
f 187/3/35 188/3/35 169/3/35 170/3/35
f 188/3/36 189/3/36 168/3/36 169/3/36
f 189/3/37 190/3/37 167/3/37 168/3/37
f 190/3/38 186/3/38 172/3/38 167/3/38
f 191/1/1 192/1/1 193/1/1 194/1/1
f 195/1/2 196/1/2 197/1/2 198/1/2
f 191/2/3 194/2/3 196/2/3 195/2/3
f 193/1/4 192/1/4 198/1/4 197/1/4
f 191/1/5 195/1/5 198/1/5 192/1/5
f 194/1/6 193/1/6 197/1/6 196/1/6
f 199/3/3 200/3/3 201/3/3 202/3/3 203/3/3 204/3/3
f 205/3/4 206/3/4 207/3/4 208/3/4 209/3/4 210/3/4
f 199/3/15 200/3/15 211/3/15 212/3/15
f 200/3/16 201/3/16 213/3/16 211/3/16
f 201/3/17 202/3/17 214/3/17 213/3/17
f 202/3/18 203/3/18 215/3/18 214/3/18
f 203/3/19 204/3/19 216/3/19 215/3/19
f 204/3/20 199/3/20 212/3/20 216/3/20
f 212/3/21 211/3/21 217/3/21 218/3/21
f 211/3/22 213/3/22 219/3/22 217/3/22
f 213/3/23 214/3/23 220/3/23 219/3/23
f 214/3/24 215/3/24 221/3/24 220/3/24
f 215/3/25 216/3/25 222/3/25 221/3/25
f 216/3/26 212/3/26 218/3/26 222/3/26
f 218/3/27 217/3/27 223/3/27 224/3/27
f 217/3/28 219/3/28 225/3/28 223/3/28
f 219/3/29 220/3/29 226/3/29 225/3/29
f 220/3/30 221/3/30 227/3/30 226/3/30
f 221/3/31 222/3/31 228/3/31 227/3/31
f 222/3/32 218/3/32 224/3/32 228/3/32
f 224/3/33 223/3/33 209/3/33 210/3/33
f 223/3/34 225/3/34 208/3/34 209/3/34
f 225/3/35 226/3/35 207/3/35 208/3/35
f 226/3/36 227/3/36 206/3/36 207/3/36
f 227/3/37 228/3/37 205/3/37 206/3/37
f 228/3/38 224/3/38 210/3/38 205/3/38
f 229/3/3 230/3/3 231/3/3 232/3/3 233/3/3 234/3/3
f 235/3/4 236/3/4 237/3/4 238/3/4 239/3/4 240/3/4
f 229/3/15 230/3/15 241/3/15 242/3/15
f 230/3/16 231/3/16 243/3/16 241/3/16
f 231/3/17 232/3/17 244/3/17 243/3/17
f 232/3/18 233/3/18 245/3/18 244/3/18
f 233/3/19 234/3/19 246/3/19 245/3/19
f 234/3/20 229/3/20 242/3/20 246/3/20
f 242/3/21 241/3/21 247/3/21 248/3/21
f 241/3/22 243/3/22 249/3/22 247/3/22
f 243/3/23 244/3/23 250/3/23 249/3/23
f 244/3/24 245/3/24 251/3/24 250/3/24
f 245/3/25 246/3/25 252/3/25 251/3/25
f 246/3/26 242/3/26 248/3/26 252/3/26
f 248/3/27 247/3/27 253/3/27 254/3/27
f 247/3/28 249/3/28 255/3/28 253/3/28
f 249/3/29 250/3/29 256/3/29 255/3/29
f 250/3/30 251/3/30 257/3/30 256/3/30
f 251/3/31 252/3/31 258/3/31 257/3/31
f 252/3/32 248/3/32 254/3/32 258/3/32
f 254/3/33 253/3/33 239/3/33 240/3/33
f 253/3/34 255/3/34 238/3/34 239/3/34
f 255/3/35 256/3/35 237/3/35 238/3/35
f 256/3/36 257/3/36 236/3/36 237/3/36
f 257/3/37 258/3/37 235/3/37 236/3/37
f 258/3/38 254/3/38 240/3/38 235/3/38
f 259/1/1 260/1/1 261/1/1 262/1/1
f 263/1/2 264/1/2 265/1/2 266/1/2
f 259/2/3 262/2/3 264/2/3 263/2/3
f 261/1/4 260/1/4 266/1/4 265/1/4
f 259/1/5 263/1/5 266/1/5 260/1/5
f 262/1/6 261/1/6 265/1/6 264/1/6
f 267/3/3 268/3/3 269/3/3 270/3/3 271/3/3 272/3/3
f 273/3/4 274/3/4 275/3/4 276/3/4 277/3/4 278/3/4
f 267/3/15 268/3/15 279/3/15 280/3/15
f 268/3/16 269/3/16 281/3/16 279/3/16
f 269/3/17 270/3/17 282/3/17 281/3/17
f 270/3/18 271/3/18 283/3/18 282/3/18
f 271/3/19 272/3/19 284/3/19 283/3/19
f 272/3/20 267/3/20 280/3/20 284/3/20
f 280/3/21 279/3/21 285/3/21 286/3/21
f 279/3/22 281/3/22 287/3/22 285/3/22
f 281/3/23 282/3/23 288/3/23 287/3/23
f 282/3/24 283/3/24 289/3/24 288/3/24
f 283/3/25 284/3/25 290/3/25 289/3/25
f 284/3/26 280/3/26 286/3/26 290/3/26
f 286/3/27 285/3/27 291/3/27 292/3/27
f 285/3/28 287/3/28 293/3/28 291/3/28
f 287/3/29 288/3/29 294/3/29 293/3/29
f 288/3/30 289/3/30 295/3/30 294/3/30
f 289/3/31 290/3/31 296/3/31 295/3/31
f 290/3/32 286/3/32 292/3/32 296/3/32
f 292/3/33 291/3/33 277/3/33 278/3/33
f 291/3/34 293/3/34 276/3/34 277/3/34
f 293/3/35 294/3/35 275/3/35 276/3/35
f 294/3/36 295/3/36 274/3/36 275/3/36
f 295/3/37 296/3/37 273/3/37 274/3/37
f 296/3/38 292/3/38 278/3/38 273/3/38
f 297/3/3 298/3/3 299/3/3 300/3/3 301/3/3 302/3/3
f 303/3/4 304/3/4 305/3/4 306/3/4 307/3/4 308/3/4
f 297/3/15 298/3/15 309/3/15 310/3/15
f 298/3/16 299/3/16 311/3/16 309/3/16
f 299/3/17 300/3/17 312/3/17 311/3/17
f 300/3/18 301/3/18 313/3/18 312/3/18
f 301/3/19 302/3/19 314/3/19 313/3/19
f 302/3/20 297/3/20 310/3/20 314/3/20
f 310/3/21 309/3/21 315/3/21 316/3/21
f 309/3/22 311/3/22 317/3/22 315/3/22
f 311/3/23 312/3/23 318/3/23 317/3/23
f 312/3/24 313/3/24 319/3/24 318/3/24
f 313/3/25 314/3/25 320/3/25 319/3/25
f 314/3/26 310/3/26 316/3/26 320/3/26
f 316/3/27 315/3/27 321/3/27 322/3/27
f 315/3/28 317/3/28 323/3/28 321/3/28
f 317/3/29 318/3/29 324/3/29 323/3/29
f 318/3/30 319/3/30 325/3/30 324/3/30
f 319/3/31 320/3/31 326/3/31 325/3/31
f 320/3/32 316/3/32 322/3/32 326/3/32
f 322/3/33 321/3/33 307/3/33 308/3/33
f 321/3/34 323/3/34 306/3/34 307/3/34
f 323/3/35 324/3/35 305/3/35 306/3/35
f 324/3/36 325/3/36 304/3/36 305/3/36
f 325/3/37 326/3/37 303/3/37 304/3/37
f 326/3/38 322/3/38 308/3/38 303/3/38
