# Blender 5.2.0 LTS
# www.blender.org
mtllib FN_Cabinet_Bathroom.mtl
o FN_Cabinet_Bathroom
v -0.350000 0.000000 0.000000
v -0.350000 0.000000 -0.130000
v 0.350000 0.000000 -0.130000
v 0.350000 0.000000 0.000000
v -0.350000 0.650000 0.000000
v 0.350000 0.650000 0.000000
v 0.350000 0.650000 -0.130000
v -0.350000 0.650000 -0.130000
v -0.348000 0.002000 -0.130000
v -0.348000 0.002000 -0.133000
v 0.348000 0.002000 -0.133000
v 0.348000 0.002000 -0.130000
v -0.348000 0.648000 -0.130000
v 0.348000 0.648000 -0.130000
v 0.348000 0.648000 -0.133000
v -0.348000 0.648000 -0.133000
v -0.344000 0.008000 -0.133000
v -0.344000 0.008000 -0.150000
v -0.005000 0.008000 -0.150000
v -0.005000 0.008000 -0.133000
v -0.344000 0.044000 -0.133000
v -0.005000 0.044000 -0.133000
v -0.005000 0.044000 -0.150000
v -0.344000 0.044000 -0.150000
v -0.344000 0.606000 -0.133000
v -0.344000 0.606000 -0.150000
v -0.005000 0.606000 -0.150000
v -0.005000 0.606000 -0.133000
v -0.344000 0.642000 -0.133000
v -0.005000 0.642000 -0.133000
v -0.005000 0.642000 -0.150000
v -0.344000 0.642000 -0.150000
v -0.308000 0.044000 -0.150000
v -0.308000 0.044000 -0.133000
v -0.308000 0.606000 -0.133000
v -0.308000 0.606000 -0.150000
v -0.041000 0.044000 -0.133000
v -0.041000 0.044000 -0.150000
v -0.041000 0.606000 -0.133000
v -0.041000 0.606000 -0.150000
v -0.312000 0.040000 -0.133000
v -0.312000 0.040000 -0.142000
v -0.037000 0.040000 -0.142000
v -0.037000 0.040000 -0.133000
v -0.312000 0.610000 -0.133000
v -0.037000 0.610000 -0.133000
v -0.037000 0.610000 -0.142000
v -0.312000 0.610000 -0.142000
v 0.005000 0.008000 -0.133000
v 0.005000 0.008000 -0.150000
v 0.344000 0.008000 -0.150000
v 0.344000 0.008000 -0.133000
v 0.005000 0.044000 -0.133000
v 0.344000 0.044000 -0.133000
v 0.344000 0.044000 -0.150000
v 0.005000 0.044000 -0.150000
v 0.005000 0.606000 -0.133000
v 0.005000 0.606000 -0.150000
v 0.344000 0.606000 -0.150000
v 0.344000 0.606000 -0.133000
v 0.005000 0.642000 -0.133000
v 0.344000 0.642000 -0.133000
v 0.344000 0.642000 -0.150000
v 0.005000 0.642000 -0.150000
v 0.041000 0.044000 -0.150000
v 0.041000 0.044000 -0.133000
v 0.041000 0.606000 -0.133000
v 0.041000 0.606000 -0.150000
v 0.308000 0.044000 -0.133000
v 0.308000 0.044000 -0.150000
v 0.308000 0.606000 -0.133000
v 0.308000 0.606000 -0.150000
v 0.037000 0.040000 -0.133000
v 0.037000 0.040000 -0.142000
v 0.312000 0.040000 -0.142000
v 0.312000 0.040000 -0.133000
v 0.037000 0.610000 -0.133000
v 0.312000 0.610000 -0.133000
v 0.312000 0.610000 -0.142000
v 0.037000 0.610000 -0.142000
v -0.244000 0.644000 -0.048000
v -0.244000 0.644000 -0.130000
v 0.244000 0.644000 -0.130000
v 0.244000 0.644000 -0.048000
v -0.244000 0.690000 -0.048000
v 0.244000 0.690000 -0.048000
v 0.244000 0.690000 -0.130000
v -0.244000 0.690000 -0.130000
v -0.232000 0.658000 -0.126000
v -0.232000 0.658000 -0.130000
v 0.232000 0.658000 -0.130000
v 0.232000 0.658000 -0.126000
v -0.232000 0.682000 -0.126000
v 0.232000 0.682000 -0.126000
v 0.232000 0.682000 -0.130000
v -0.232000 0.682000 -0.130000
vn -0.0000 -1.0000 -0.0000
vn -0.0000 1.0000 -0.0000
vn -0.0000 -0.0000 1.0000
vn -0.0000 -0.0000 -1.0000
vn -1.0000 -0.0000 -0.0000
vn 1.0000 -0.0000 -0.0000
vt 0.937500 0.312500
vt 0.812500 0.312500
vt 0.187500 0.312500
vt 0.812500 0.062500
s 0
usemtl FN_Atlas
f 1/1/1 2/1/1 3/1/1 4/1/1
f 5/1/2 6/1/2 7/1/2 8/1/2
f 1/1/3 4/1/3 6/1/3 5/1/3
f 3/2/4 2/2/4 8/2/4 7/2/4
f 1/1/5 5/1/5 8/1/5 2/1/5
f 4/1/6 3/1/6 7/1/6 6/1/6
f 9/2/1 10/2/1 11/2/1 12/2/1
f 13/2/2 14/2/2 15/2/2 16/2/2
f 9/2/3 12/2/3 14/2/3 13/2/3
f 11/2/4 10/2/4 16/2/4 15/2/4
f 9/2/5 13/2/5 16/2/5 10/2/5
f 12/2/6 11/2/6 15/2/6 14/2/6
f 17/1/1 18/1/1 19/1/1 20/1/1
f 21/1/2 22/1/2 23/1/2 24/1/2
f 17/1/3 20/1/3 22/1/3 21/1/3
f 19/1/4 18/1/4 24/1/4 23/1/4
f 17/1/5 21/1/5 24/1/5 18/1/5
f 20/1/6 19/1/6 23/1/6 22/1/6
f 25/1/1 26/1/1 27/1/1 28/1/1
f 29/1/2 30/1/2 31/1/2 32/1/2
f 25/1/3 28/1/3 30/1/3 29/1/3
f 27/1/4 26/1/4 32/1/4 31/1/4
f 25/1/5 29/1/5 32/1/5 26/1/5
f 28/1/6 27/1/6 31/1/6 30/1/6
f 21/1/1 24/1/1 33/1/1 34/1/1
f 25/1/2 35/1/2 36/1/2 26/1/2
f 21/1/3 34/1/3 35/1/3 25/1/3
f 33/1/4 24/1/4 26/1/4 36/1/4
f 21/1/5 25/1/5 26/1/5 24/1/5
f 34/1/6 33/1/6 36/1/6 35/1/6
f 37/1/1 38/1/1 23/1/1 22/1/1
f 39/1/2 28/1/2 27/1/2 40/1/2
f 37/1/3 22/1/3 28/1/3 39/1/3
f 23/1/4 38/1/4 40/1/4 27/1/4
f 37/1/5 39/1/5 40/1/5 38/1/5
f 22/1/6 23/1/6 27/1/6 28/1/6
f 41/3/1 42/3/1 43/3/1 44/3/1
f 45/3/2 46/3/2 47/3/2 48/3/2
f 41/3/3 44/3/3 46/3/3 45/3/3
f 43/3/4 42/3/4 48/3/4 47/3/4
f 41/3/5 45/3/5 48/3/5 42/3/5
f 44/3/6 43/3/6 47/3/6 46/3/6
f 49/1/1 50/1/1 51/1/1 52/1/1
f 53/1/2 54/1/2 55/1/2 56/1/2
f 49/1/3 52/1/3 54/1/3 53/1/3
f 51/1/4 50/1/4 56/1/4 55/1/4
f 49/1/5 53/1/5 56/1/5 50/1/5
f 52/1/6 51/1/6 55/1/6 54/1/6
f 57/1/1 58/1/1 59/1/1 60/1/1
f 61/1/2 62/1/2 63/1/2 64/1/2
f 57/1/3 60/1/3 62/1/3 61/1/3
f 59/1/4 58/1/4 64/1/4 63/1/4
f 57/1/5 61/1/5 64/1/5 58/1/5
f 60/1/6 59/1/6 63/1/6 62/1/6
f 53/1/1 56/1/1 65/1/1 66/1/1
f 57/1/2 67/1/2 68/1/2 58/1/2
f 53/1/3 66/1/3 67/1/3 57/1/3
f 65/1/4 56/1/4 58/1/4 68/1/4
f 53/1/5 57/1/5 58/1/5 56/1/5
f 66/1/6 65/1/6 68/1/6 67/1/6
f 69/1/1 70/1/1 55/1/1 54/1/1
f 71/1/2 60/1/2 59/1/2 72/1/2
f 69/1/3 54/1/3 60/1/3 71/1/3
f 55/1/4 70/1/4 72/1/4 59/1/4
f 69/1/5 71/1/5 72/1/5 70/1/5
f 54/1/6 55/1/6 59/1/6 60/1/6
f 73/3/1 74/3/1 75/3/1 76/3/1
f 77/3/2 78/3/2 79/3/2 80/3/2
f 73/3/3 76/3/3 78/3/3 77/3/3
f 75/3/4 74/3/4 80/3/4 79/3/4
f 73/3/5 77/3/5 80/3/5 74/3/5
f 76/3/6 75/3/6 79/3/6 78/3/6
f 81/1/1 82/1/1 83/1/1 84/1/1
f 85/1/2 86/1/2 87/1/2 88/1/2
f 81/1/3 84/1/3 86/1/3 85/1/3
f 83/1/4 82/1/4 88/1/4 87/1/4
f 81/1/5 85/1/5 88/1/5 82/1/5
f 84/1/6 83/1/6 87/1/6 86/1/6
usemtl FN_Glow
f 89/4/1 90/4/1 91/4/1 92/4/1
f 93/4/2 94/4/2 95/4/2 96/4/2
f 89/4/3 92/4/3 94/4/3 93/4/3
f 91/4/4 90/4/4 96/4/4 95/4/4
f 89/4/5 93/4/5 96/4/5 90/4/5
f 92/4/6 91/4/6 95/4/6 94/4/6
