# Blender 5.2.0 LTS
# www.blender.org
mtllib FN_Candles_Pillar.mtl
o FN_Candles_Pillar
v -0.180000 0.000000 0.065000
v -0.180000 0.000000 -0.065000
v 0.180000 0.000000 -0.065000
v 0.180000 0.000000 0.065000
v -0.180000 0.005000 0.065000
v 0.180000 0.005000 0.065000
v 0.180000 0.005000 -0.065000
v -0.180000 0.005000 -0.065000
v -0.180000 0.003000 0.065000
v -0.180000 0.003000 0.057000
v 0.180000 0.003000 0.057000
v 0.180000 0.003000 0.065000
v -0.180000 0.018000 0.065000
v 0.180000 0.018000 0.065000
v 0.180000 0.018000 0.057000
v -0.180000 0.018000 0.057000
v -0.180000 0.003000 -0.057000
v -0.180000 0.003000 -0.065000
v 0.180000 0.003000 -0.065000
v 0.180000 0.003000 -0.057000
v -0.180000 0.018000 -0.057000
v 0.180000 0.018000 -0.057000
v 0.180000 0.018000 -0.065000
v -0.180000 0.018000 -0.065000
v -0.172000 0.003000 -0.065000
v -0.172000 0.003000 0.065000
v -0.172000 0.018000 0.065000
v -0.172000 0.018000 -0.065000
v 0.172000 0.003000 0.065000
v 0.172000 0.003000 -0.065000
v 0.172000 0.018000 0.065000
v 0.172000 0.018000 -0.065000
v -0.083130 0.005000 0.026870
v -0.110000 0.005000 0.038000
v -0.136870 0.005000 0.026870
v -0.148000 0.005000 -0.000000
v -0.136870 0.005000 -0.026870
v -0.110000 0.005000 -0.038000
v -0.083130 0.005000 -0.026870
v -0.072000 0.005000 0.000000
v -0.083130 0.155000 -0.026870
v -0.072000 0.155000 0.000000
v -0.110000 0.155000 -0.038000
v -0.136870 0.155000 -0.026870
v -0.148000 0.155000 -0.000000
v -0.136870 0.155000 0.026870
v -0.110000 0.155000 0.038000
v -0.083130 0.155000 0.026870
v -0.086665 0.155000 -0.023335
v -0.077000 0.155000 0.000000
v -0.110000 0.155000 -0.033000
v -0.133335 0.155000 -0.023335
v -0.143000 0.155000 -0.000000
v -0.133335 0.155000 0.023335
v -0.110000 0.155000 0.033000
v -0.086665 0.155000 0.023335
v -0.086665 0.145000 -0.023335
v -0.077000 0.145000 0.000000
v -0.110000 0.145000 -0.033000
v -0.133335 0.145000 -0.023335
v -0.143000 0.145000 -0.000000
v -0.133335 0.145000 0.023335
v -0.110000 0.145000 0.033000
v -0.086665 0.145000 0.023335
v -0.107000 0.145000 0.000000
v -0.110000 0.145000 -0.003000
v -0.110000 0.153000 -0.003000
v -0.107000 0.153000 0.000000
v -0.113000 0.145000 -0.000000
v -0.113000 0.153000 -0.000000
v -0.110000 0.145000 0.003000
v -0.110000 0.153000 0.003000
v 0.021213 0.005000 0.021213
v -0.000000 0.005000 0.030000
v -0.021213 0.005000 0.021213
v -0.030000 0.005000 -0.000000
v -0.021213 0.005000 -0.021213
v 0.000000 0.005000 -0.030000
v 0.021213 0.005000 -0.021213
v 0.030000 0.005000 0.000000
v 0.021213 0.113000 -0.021213
v 0.030000 0.113000 0.000000
v 0.000000 0.113000 -0.030000
v -0.021213 0.113000 -0.021213
v -0.030000 0.113000 -0.000000
v -0.021213 0.113000 0.021213
v -0.000000 0.113000 0.030000
v 0.021213 0.113000 0.021213
v 0.017678 0.113000 -0.017678
v 0.025000 0.113000 0.000000
v 0.000000 0.113000 -0.025000
v -0.017678 0.113000 -0.017678
v -0.025000 0.113000 -0.000000
v -0.017678 0.113000 0.017678
v -0.000000 0.113000 0.025000
v 0.017678 0.113000 0.017678
v 0.017678 0.099000 -0.017678
v 0.025000 0.099000 0.000000
v 0.000000 0.099000 -0.025000
v -0.017678 0.099000 -0.017678
v -0.025000 0.099000 -0.000000
v -0.017678 0.099000 0.017678
v -0.000000 0.099000 0.025000
v 0.017678 0.099000 0.017678
v 0.003000 0.099000 0.000000
v 0.000000 0.099000 -0.003000
v 0.000000 0.107000 -0.003000
v 0.003000 0.107000 0.000000
v -0.003000 0.099000 -0.000000
v -0.003000 0.107000 -0.000000
v -0.000000 0.099000 0.003000
v -0.000000 0.107000 0.003000
v 0.132042 0.005000 0.024042
v 0.108000 0.005000 0.034000
v 0.083958 0.005000 0.024042
v 0.074000 0.005000 -0.000000
v 0.083958 0.005000 -0.024042
v 0.108000 0.005000 -0.034000
v 0.132042 0.005000 -0.024042
v 0.142000 0.005000 0.000000
v 0.132042 0.081000 -0.024042
v 0.142000 0.081000 0.000000
v 0.108000 0.081000 -0.034000
v 0.083958 0.081000 -0.024042
v 0.074000 0.081000 -0.000000
v 0.083958 0.081000 0.024042
v 0.108000 0.081000 0.034000
v 0.132042 0.081000 0.024042
v 0.128506 0.081000 -0.020506
v 0.137000 0.081000 0.000000
v 0.108000 0.081000 -0.029000
v 0.087494 0.081000 -0.020506
v 0.079000 0.081000 -0.000000
v 0.087494 0.081000 0.020506
v 0.108000 0.081000 0.029000
v 0.128506 0.081000 0.020506
v 0.128506 0.063000 -0.020506
v 0.137000 0.063000 0.000000
v 0.108000 0.063000 -0.029000
v 0.087494 0.063000 -0.020506
v 0.079000 0.063000 -0.000000
v 0.087494 0.063000 0.020506
v 0.108000 0.063000 0.029000
v 0.128506 0.063000 0.020506
v 0.111000 0.063000 0.000000
v 0.108000 0.063000 -0.003000
v 0.108000 0.071000 -0.003000
v 0.111000 0.071000 0.000000
v 0.105000 0.063000 -0.000000
v 0.105000 0.071000 -0.000000
v 0.108000 0.063000 0.003000
v 0.108000 0.071000 0.003000
vn -0.0000 -1.0000 -0.0000
vn -0.0000 1.0000 -0.0000
vn -0.0000 -0.0000 1.0000
vn -0.0000 -0.0000 -1.0000
vn -1.0000 -0.0000 -0.0000
vn 1.0000 -0.0000 -0.0000
vn 0.9239 -0.0000 -0.3827
vn 0.3827 -0.0000 -0.9239
vn -0.3827 -0.0000 -0.9239
vn -0.9239 -0.0000 -0.3827
vn -0.9239 -0.0000 0.3827
vn -0.3827 -0.0000 0.9239
vn 0.3827 -0.0000 0.9239
vn 0.9239 -0.0000 0.3827
vn 0.7071 -0.0000 -0.7071
vn -0.7071 -0.0000 -0.7071
vn -0.7071 -0.0000 0.7071
vn 0.7071 -0.0000 0.7071
vt 0.812500 0.312500
vt 0.312500 0.687500
vt 0.562500 0.937500
vt 0.937500 0.937500
s 0
usemtl FN_Atlas
f 1/1/1 2/1/1 3/1/1 4/1/1
f 5/1/2 6/1/2 7/1/2 8/1/2
f 1/1/3 4/1/3 6/1/3 5/1/3
f 3/1/4 2/1/4 8/1/4 7/1/4
f 1/1/5 5/1/5 8/1/5 2/1/5
f 4/1/6 3/1/6 7/1/6 6/1/6
f 9/1/1 10/1/1 11/1/1 12/1/1
f 13/1/2 14/1/2 15/1/2 16/1/2
f 9/1/3 12/1/3 14/1/3 13/1/3
f 11/1/4 10/1/4 16/1/4 15/1/4
f 9/1/5 13/1/5 16/1/5 10/1/5
f 12/1/6 11/1/6 15/1/6 14/1/6
f 17/1/1 18/1/1 19/1/1 20/1/1
f 21/1/2 22/1/2 23/1/2 24/1/2
f 17/1/3 20/1/3 22/1/3 21/1/3
f 19/1/4 18/1/4 24/1/4 23/1/4
f 17/1/5 21/1/5 24/1/5 18/1/5
f 20/1/6 19/1/6 23/1/6 22/1/6
f 9/1/1 18/1/1 25/1/1 26/1/1
f 13/1/2 27/1/2 28/1/2 24/1/2
f 9/1/3 26/1/3 27/1/3 13/1/3
f 25/1/4 18/1/4 24/1/4 28/1/4
f 9/1/5 13/1/5 24/1/5 18/1/5
f 26/1/6 25/1/6 28/1/6 27/1/6
f 29/1/1 30/1/1 19/1/1 12/1/1
f 31/1/2 14/1/2 23/1/2 32/1/2
f 29/1/3 12/1/3 14/1/3 31/1/3
f 19/1/4 30/1/4 32/1/4 23/1/4
f 29/1/5 31/1/5 32/1/5 30/1/5
f 12/1/6 19/1/6 23/1/6 14/1/6
f 33/2/1 34/2/1 35/2/1 36/2/1 37/2/1 38/2/1 39/2/1 40/2/1
f 40/2/7 39/2/7 41/2/7 42/2/7
f 39/2/8 38/2/8 43/2/8 41/2/8
f 38/2/9 37/2/9 44/2/9 43/2/9
f 37/2/10 36/2/10 45/2/10 44/2/10
f 36/2/11 35/2/11 46/2/11 45/2/11
f 35/2/12 34/2/12 47/2/12 46/2/12
f 34/2/13 33/2/13 48/2/13 47/2/13
f 33/2/14 40/2/14 42/2/14 48/2/14
f 42/2/2 41/2/2 49/2/2 50/2/2
f 41/2/2 43/2/2 51/2/2 49/2/2
f 43/2/2 44/2/2 52/2/2 51/2/2
f 44/2/2 45/2/2 53/2/2 52/2/2
f 45/2/2 46/2/2 54/2/2 53/2/2
f 46/2/2 47/2/2 55/2/2 54/2/2
f 47/2/2 48/2/2 56/2/2 55/2/2
f 48/2/2 42/2/2 50/2/2 56/2/2
f 50/3/11 49/3/11 57/3/11 58/3/11
f 49/3/12 51/3/12 59/3/12 57/3/12
f 51/3/13 52/3/13 60/3/13 59/3/13
f 52/3/14 53/3/14 61/3/14 60/3/14
f 53/3/7 54/3/7 62/3/7 61/3/7
f 54/3/8 55/3/8 63/3/8 62/3/8
f 55/3/9 56/3/9 64/3/9 63/3/9
f 56/3/10 50/3/10 58/3/10 64/3/10
f 58/3/2 57/3/2 59/3/2 60/3/2 61/3/2 62/3/2 63/3/2 64/3/2
f 65/4/15 66/4/15 67/4/15 68/4/15
f 66/4/16 69/4/16 70/4/16 67/4/16
f 69/4/17 71/4/17 72/4/17 70/4/17
f 71/4/18 65/4/18 68/4/18 72/4/18
f 68/4/2 67/4/2 70/4/2 72/4/2
f 73/2/1 74/2/1 75/2/1 76/2/1 77/2/1 78/2/1 79/2/1 80/2/1
f 80/2/7 79/2/7 81/2/7 82/2/7
f 79/2/8 78/2/8 83/2/8 81/2/8
f 78/2/9 77/2/9 84/2/9 83/2/9
f 77/2/10 76/2/10 85/2/10 84/2/10
f 76/2/11 75/2/11 86/2/11 85/2/11
f 75/2/12 74/2/12 87/2/12 86/2/12
f 74/2/13 73/2/13 88/2/13 87/2/13
f 73/2/14 80/2/14 82/2/14 88/2/14
f 82/2/2 81/2/2 89/2/2 90/2/2
f 81/2/2 83/2/2 91/2/2 89/2/2
f 83/2/2 84/2/2 92/2/2 91/2/2
f 84/2/2 85/2/2 93/2/2 92/2/2
f 85/2/2 86/2/2 94/2/2 93/2/2
f 86/2/2 87/2/2 95/2/2 94/2/2
f 87/2/2 88/2/2 96/2/2 95/2/2
f 88/2/2 82/2/2 90/2/2 96/2/2
f 90/3/11 89/3/11 97/3/11 98/3/11
f 89/3/12 91/3/12 99/3/12 97/3/12
f 91/3/13 92/3/13 100/3/13 99/3/13
f 92/3/14 93/3/14 101/3/14 100/3/14
f 93/3/7 94/3/7 102/3/7 101/3/7
f 94/3/8 95/3/8 103/3/8 102/3/8
f 95/3/9 96/3/9 104/3/9 103/3/9
f 96/3/10 90/3/10 98/3/10 104/3/10
f 98/3/2 97/3/2 99/3/2 100/3/2 101/3/2 102/3/2 103/3/2 104/3/2
f 105/4/15 106/4/15 107/4/15 108/4/15
f 106/4/16 109/4/16 110/4/16 107/4/16
f 109/4/17 111/4/17 112/4/17 110/4/17
f 111/4/18 105/4/18 108/4/18 112/4/18
f 108/4/2 107/4/2 110/4/2 112/4/2
f 113/2/1 114/2/1 115/2/1 116/2/1 117/2/1 118/2/1 119/2/1 120/2/1
f 120/2/7 119/2/7 121/2/7 122/2/7
f 119/2/8 118/2/8 123/2/8 121/2/8
f 118/2/9 117/2/9 124/2/9 123/2/9
f 117/2/10 116/2/10 125/2/10 124/2/10
f 116/2/11 115/2/11 126/2/11 125/2/11
f 115/2/12 114/2/12 127/2/12 126/2/12
f 114/2/13 113/2/13 128/2/13 127/2/13
f 113/2/14 120/2/14 122/2/14 128/2/14
f 122/2/2 121/2/2 129/2/2 130/2/2
f 121/2/2 123/2/2 131/2/2 129/2/2
f 123/2/2 124/2/2 132/2/2 131/2/2
f 124/2/2 125/2/2 133/2/2 132/2/2
f 125/2/2 126/2/2 134/2/2 133/2/2
f 126/2/2 127/2/2 135/2/2 134/2/2
f 127/2/2 128/2/2 136/2/2 135/2/2
f 128/2/2 122/2/2 130/2/2 136/2/2
f 130/3/11 129/3/11 137/3/11 138/3/11
f 129/3/12 131/3/12 139/3/12 137/3/12
f 131/3/13 132/3/13 140/3/13 139/3/13
f 132/3/14 133/3/14 141/3/14 140/3/14
f 133/3/7 134/3/7 142/3/7 141/3/7
f 134/3/8 135/3/8 143/3/8 142/3/8
f 135/3/9 136/3/9 144/3/9 143/3/9
f 136/3/10 130/3/10 138/3/10 144/3/10
f 138/3/2 137/3/2 139/3/2 140/3/2 141/3/2 142/3/2 143/3/2 144/3/2
f 145/4/15 146/4/15 147/4/15 148/4/15
f 146/4/16 149/4/16 150/4/16 147/4/16
f 149/4/17 151/4/17 152/4/17 150/4/17
f 151/4/18 145/4/18 148/4/18 152/4/18
f 148/4/2 147/4/2 150/4/2 152/4/2
