# Blender 5.2.0 LTS
# www.blender.org
mtllib FN_Canister_Set.mtl
o FN_Canister_Set
v -0.200000 0.000000 0.110000
v -0.200000 0.000000 -0.110000
v 0.200000 0.000000 -0.110000
v 0.200000 0.000000 0.110000
v -0.200000 0.018000 0.110000
v 0.200000 0.018000 0.110000
v 0.200000 0.018000 -0.110000
v -0.200000 0.018000 -0.110000
v -0.068077 0.018000 -0.005908
v -0.097077 0.018000 0.015161
v -0.132923 0.018000 0.015161
v -0.161923 0.018000 -0.005908
v -0.173000 0.018000 -0.040000
v -0.161923 0.018000 -0.074092
v -0.132923 0.018000 -0.095161
v -0.097077 0.018000 -0.095161
v -0.068077 0.018000 -0.074092
v -0.057000 0.018000 -0.040000
v -0.057000 0.180000 -0.040000
v -0.068077 0.180000 -0.074092
v -0.097077 0.180000 -0.095161
v -0.132923 0.180000 -0.095161
v -0.161923 0.180000 -0.074092
v -0.173000 0.180000 -0.040000
v -0.161923 0.180000 -0.005908
v -0.132923 0.180000 0.015161
v -0.097077 0.180000 0.015161
v -0.068077 0.180000 -0.005908
v -0.064841 0.176000 -0.003557
v -0.095841 0.176000 0.018966
v -0.134159 0.176000 0.018966
v -0.165159 0.176000 -0.003557
v -0.177000 0.176000 -0.040000
v -0.165159 0.176000 -0.076443
v -0.134159 0.176000 -0.098966
v -0.095841 0.176000 -0.098966
v -0.064841 0.176000 -0.076443
v -0.053000 0.176000 -0.040000
v -0.053000 0.196000 -0.040000
v -0.064841 0.196000 -0.076443
v -0.095841 0.196000 -0.098966
v -0.134159 0.196000 -0.098966
v -0.165159 0.196000 -0.076443
v -0.177000 0.196000 -0.040000
v -0.165159 0.196000 -0.003557
v -0.134159 0.196000 0.018966
v -0.095841 0.196000 0.018966
v -0.064841 0.196000 -0.003557
v -0.108500 0.196000 -0.028742
v -0.121500 0.196000 -0.028742
v -0.128000 0.196000 -0.040000
v -0.121500 0.196000 -0.051258
v -0.108500 0.196000 -0.051258
v -0.102000 0.196000 -0.040000
v -0.102000 0.212000 -0.040000
v -0.108500 0.212000 -0.051258
v -0.121500 0.212000 -0.051258
v -0.128000 0.212000 -0.040000
v -0.121500 0.212000 -0.028742
v -0.108500 0.212000 -0.028742
v 0.055451 0.018000 -0.010611
v 0.030451 0.018000 0.007553
v -0.000451 0.018000 0.007553
v -0.025451 0.018000 -0.010611
v -0.035000 0.018000 -0.040000
v -0.025451 0.018000 -0.069389
v -0.000451 0.018000 -0.087553
v 0.030451 0.018000 -0.087553
v 0.055451 0.018000 -0.069389
v 0.065000 0.018000 -0.040000
v 0.065000 0.148000 -0.040000
v 0.055451 0.148000 -0.069389
v 0.030451 0.148000 -0.087553
v -0.000451 0.148000 -0.087553
v -0.025451 0.148000 -0.069389
v -0.035000 0.148000 -0.040000
v -0.025451 0.148000 -0.010611
v -0.000451 0.148000 0.007553
v 0.030451 0.148000 0.007553
v 0.055451 0.148000 -0.010611
v 0.058687 0.144000 -0.008260
v 0.031687 0.144000 0.011357
v -0.001687 0.144000 0.011357
v -0.028687 0.144000 -0.008260
v -0.039000 0.144000 -0.040000
v -0.028687 0.144000 -0.071740
v -0.001687 0.144000 -0.091357
v 0.031687 0.144000 -0.091357
v 0.058687 0.144000 -0.071740
v 0.069000 0.144000 -0.040000
v 0.069000 0.164000 -0.040000
v 0.058687 0.164000 -0.071740
v 0.031687 0.164000 -0.091357
v -0.001687 0.164000 -0.091357
v -0.028687 0.164000 -0.071740
v -0.039000 0.164000 -0.040000
v -0.028687 0.164000 -0.008260
v -0.001687 0.164000 0.011357
v 0.031687 0.164000 0.011357
v 0.058687 0.164000 -0.008260
v 0.021500 0.164000 -0.028742
v 0.008500 0.164000 -0.028742
v 0.002000 0.164000 -0.040000
v 0.008500 0.164000 -0.051258
v 0.021500 0.164000 -0.051258
v 0.028000 0.164000 -0.040000
v 0.028000 0.178000 -0.040000
v 0.021500 0.178000 -0.051258
v 0.008500 0.178000 -0.051258
v 0.002000 0.178000 -0.040000
v 0.008500 0.178000 -0.028742
v 0.021500 0.178000 -0.028742
v 0.163979 0.018000 -0.015313
v 0.142979 0.018000 -0.000056
v 0.117021 0.018000 -0.000056
v 0.096021 0.018000 -0.015313
v 0.088000 0.018000 -0.040000
v 0.096021 0.018000 -0.064687
v 0.117021 0.018000 -0.079944
v 0.142979 0.018000 -0.079944
v 0.163979 0.018000 -0.064687
v 0.172000 0.018000 -0.040000
v 0.163979 0.118000 -0.064687
v 0.172000 0.118000 -0.040000
v 0.142979 0.118000 -0.079944
v 0.117021 0.118000 -0.079944
v 0.096021 0.118000 -0.064687
v 0.088000 0.118000 -0.040000
v 0.096021 0.118000 -0.015313
v 0.117021 0.118000 -0.000056
v 0.142979 0.118000 -0.000056
v 0.163979 0.118000 -0.015313
v 0.162000 0.118000 -0.040000
v 0.155889 0.118000 -0.058809
v 0.155889 0.030000 -0.058809
v 0.162000 0.030000 -0.040000
v 0.139889 0.118000 -0.070434
v 0.139889 0.030000 -0.070434
v 0.120111 0.118000 -0.070434
v 0.120111 0.030000 -0.070434
v 0.104111 0.118000 -0.058809
v 0.104111 0.030000 -0.058809
v 0.098000 0.118000 -0.040000
v 0.098000 0.030000 -0.040000
v 0.104111 0.118000 -0.021191
v 0.104111 0.030000 -0.021191
v 0.120111 0.118000 -0.009566
v 0.120111 0.030000 -0.009566
v 0.139889 0.118000 -0.009566
v 0.139889 0.030000 -0.009566
v 0.155889 0.118000 -0.021191
v 0.155889 0.030000 -0.021191
v 0.112215 0.018000 0.087038
v 0.089215 0.018000 0.103749
v 0.060785 0.018000 0.103749
v 0.037785 0.018000 0.087038
v 0.029000 0.018000 0.060000
v 0.037785 0.018000 0.032962
v 0.060785 0.018000 0.016251
v 0.089215 0.018000 0.016251
v 0.112215 0.018000 0.032962
v 0.121000 0.018000 0.060000
v 0.121000 0.036000 0.060000
v 0.112215 0.036000 0.032962
v 0.089215 0.036000 0.016251
v 0.060785 0.036000 0.016251
v 0.037785 0.036000 0.032962
v 0.029000 0.036000 0.060000
v 0.037785 0.036000 0.087038
v 0.060785 0.036000 0.103749
v 0.089215 0.036000 0.103749
v 0.112215 0.036000 0.087038
v 0.081500 0.036000 0.071258
v 0.068500 0.036000 0.071258
v 0.062000 0.036000 0.060000
v 0.068500 0.036000 0.048742
v 0.081500 0.036000 0.048742
v 0.088000 0.036000 0.060000
v 0.088000 0.050000 0.060000
v 0.081500 0.050000 0.048742
v 0.068500 0.050000 0.048742
v 0.062000 0.050000 0.060000
v 0.068500 0.050000 0.071258
v 0.081500 0.050000 0.071258
vn -0.0000 -1.0000 -0.0000
vn -0.0000 1.0000 -0.0000
vn -0.0000 -0.0000 1.0000
vn -0.0000 -0.0000 -1.0000
vn -1.0000 -0.0000 -0.0000
vn 1.0000 -0.0000 -0.0000
vn 0.9511 -0.0000 -0.3090
vn 0.5878 -0.0000 -0.8090
vn -0.5878 -0.0000 -0.8090
vn -0.9511 -0.0000 -0.3090
vn -0.9511 -0.0000 0.3090
vn -0.5878 -0.0000 0.8090
vn 0.5878 -0.0000 0.8090
vn 0.9511 -0.0000 0.3090
vn 0.8660 -0.0000 -0.5000
vn -0.8660 -0.0000 -0.5000
vn -0.8660 -0.0000 0.5000
vn 0.8660 -0.0000 0.5000
vt 0.687500 0.937500
vt 0.312500 0.687500
vt 0.437500 0.937500
s 0
usemtl FN_Atlas
f 1/1/1 2/1/1 3/1/1 4/1/1
f 5/1/2 6/1/2 7/1/2 8/1/2
f 1/1/3 4/1/3 6/1/3 5/1/3
f 3/1/4 2/1/4 8/1/4 7/1/4
f 1/1/5 5/1/5 8/1/5 2/1/5
f 4/1/6 3/1/6 7/1/6 6/1/6
f 9/2/1 10/2/1 11/2/1 12/2/1 13/2/1 14/2/1 15/2/1 16/2/1 17/2/1 18/2/1
f 19/2/2 20/2/2 21/2/2 22/2/2 23/2/2 24/2/2 25/2/2 26/2/2 27/2/2 28/2/2
f 18/2/7 17/2/7 20/2/7 19/2/7
f 17/2/8 16/2/8 21/2/8 20/2/8
f 16/2/4 15/2/4 22/2/4 21/2/4
f 15/2/9 14/2/9 23/2/9 22/2/9
f 14/2/10 13/2/10 24/2/10 23/2/10
f 13/2/11 12/2/11 25/2/11 24/2/11
f 12/2/12 11/2/12 26/2/12 25/2/12
f 11/2/3 10/2/3 27/2/3 26/2/3
f 10/2/13 9/2/13 28/2/13 27/2/13
f 9/2/14 18/2/14 19/2/14 28/2/14
f 29/3/1 30/3/1 31/3/1 32/3/1 33/3/1 34/3/1 35/3/1 36/3/1 37/3/1 38/3/1
f 39/3/2 40/3/2 41/3/2 42/3/2 43/3/2 44/3/2 45/3/2 46/3/2 47/3/2 48/3/2
f 38/3/7 37/3/7 40/3/7 39/3/7
f 37/3/8 36/3/8 41/3/8 40/3/8
f 36/3/4 35/3/4 42/3/4 41/3/4
f 35/3/9 34/3/9 43/3/9 42/3/9
f 34/3/10 33/3/10 44/3/10 43/3/10
f 33/3/11 32/3/11 45/3/11 44/3/11
f 32/3/12 31/3/12 46/3/12 45/3/12
f 31/3/3 30/3/3 47/3/3 46/3/3
f 30/3/13 29/3/13 48/3/13 47/3/13
f 29/3/14 38/3/14 39/3/14 48/3/14
f 49/3/1 50/3/1 51/3/1 52/3/1 53/3/1 54/3/1
f 55/3/2 56/3/2 57/3/2 58/3/2 59/3/2 60/3/2
f 54/3/15 53/3/15 56/3/15 55/3/15
f 53/3/4 52/3/4 57/3/4 56/3/4
f 52/3/16 51/3/16 58/3/16 57/3/16
f 51/3/17 50/3/17 59/3/17 58/3/17
f 50/3/3 49/3/3 60/3/3 59/3/3
f 49/3/18 54/3/18 55/3/18 60/3/18
f 61/2/1 62/2/1 63/2/1 64/2/1 65/2/1 66/2/1 67/2/1 68/2/1 69/2/1 70/2/1
f 71/2/2 72/2/2 73/2/2 74/2/2 75/2/2 76/2/2 77/2/2 78/2/2 79/2/2 80/2/2
f 70/2/7 69/2/7 72/2/7 71/2/7
f 69/2/8 68/2/8 73/2/8 72/2/8
f 68/2/4 67/2/4 74/2/4 73/2/4
f 67/2/9 66/2/9 75/2/9 74/2/9
f 66/2/10 65/2/10 76/2/10 75/2/10
f 65/2/11 64/2/11 77/2/11 76/2/11
f 64/2/12 63/2/12 78/2/12 77/2/12
f 63/2/3 62/2/3 79/2/3 78/2/3
f 62/2/13 61/2/13 80/2/13 79/2/13
f 61/2/14 70/2/14 71/2/14 80/2/14
f 81/3/1 82/3/1 83/3/1 84/3/1 85/3/1 86/3/1 87/3/1 88/3/1 89/3/1 90/3/1
f 91/3/2 92/3/2 93/3/2 94/3/2 95/3/2 96/3/2 97/3/2 98/3/2 99/3/2 100/3/2
f 90/3/7 89/3/7 92/3/7 91/3/7
f 89/3/8 88/3/8 93/3/8 92/3/8
f 88/3/4 87/3/4 94/3/4 93/3/4
f 87/3/9 86/3/9 95/3/9 94/3/9
f 86/3/10 85/3/10 96/3/10 95/3/10
f 85/3/11 84/3/11 97/3/11 96/3/11
f 84/3/12 83/3/12 98/3/12 97/3/12
f 83/3/3 82/3/3 99/3/3 98/3/3
f 82/3/13 81/3/13 100/3/13 99/3/13
f 81/3/14 90/3/14 91/3/14 100/3/14
f 101/3/1 102/3/1 103/3/1 104/3/1 105/3/1 106/3/1
f 107/3/2 108/3/2 109/3/2 110/3/2 111/3/2 112/3/2
f 106/3/15 105/3/15 108/3/15 107/3/15
f 105/3/4 104/3/4 109/3/4 108/3/4
f 104/3/16 103/3/16 110/3/16 109/3/16
f 103/3/17 102/3/17 111/3/17 110/3/17
f 102/3/3 101/3/3 112/3/3 111/3/3
f 101/3/18 106/3/18 107/3/18 112/3/18
f 113/2/1 114/2/1 115/2/1 116/2/1 117/2/1 118/2/1 119/2/1 120/2/1 121/2/1 122/2/1
f 122/2/7 121/2/7 123/2/7 124/2/7
f 121/2/8 120/2/8 125/2/8 123/2/8
f 120/2/4 119/2/4 126/2/4 125/2/4
f 119/2/9 118/2/9 127/2/9 126/2/9
f 118/2/10 117/2/10 128/2/10 127/2/10
f 117/2/11 116/2/11 129/2/11 128/2/11
f 116/2/12 115/2/12 130/2/12 129/2/12
f 115/2/3 114/2/3 131/2/3 130/2/3
f 114/2/13 113/2/13 132/2/13 131/2/13
f 113/2/14 122/2/14 124/2/14 132/2/14
f 133/2/11 134/2/11 135/2/11 136/2/11
f 134/2/12 137/2/12 138/2/12 135/2/12
f 137/2/3 139/2/3 140/2/3 138/2/3
f 139/2/13 141/2/13 142/2/13 140/2/13
f 141/2/14 143/2/14 144/2/14 142/2/14
f 143/2/7 145/2/7 146/2/7 144/2/7
f 145/2/8 147/2/8 148/2/8 146/2/8
f 147/2/4 149/2/4 150/2/4 148/2/4
f 149/2/9 151/2/9 152/2/9 150/2/9
f 151/2/10 133/2/10 136/2/10 152/2/10
f 136/2/2 135/2/2 138/2/2 140/2/2 142/2/2 144/2/2 146/2/2 148/2/2 150/2/2 152/2/2
f 124/2/2 123/2/2 134/2/2 133/2/2
f 123/2/2 125/2/2 137/2/2 134/2/2
f 125/2/2 126/2/2 139/2/2 137/2/2
f 126/2/2 127/2/2 141/2/2 139/2/2
f 127/2/2 128/2/2 143/2/2 141/2/2
f 128/2/2 129/2/2 145/2/2 143/2/2
f 129/2/2 130/2/2 147/2/2 145/2/2
f 130/2/2 131/2/2 149/2/2 147/2/2
f 131/2/2 132/2/2 151/2/2 149/2/2
f 132/2/2 124/2/2 133/2/2 151/2/2
f 153/3/1 154/3/1 155/3/1 156/3/1 157/3/1 158/3/1 159/3/1 160/3/1 161/3/1 162/3/1
f 163/3/2 164/3/2 165/3/2 166/3/2 167/3/2 168/3/2 169/3/2 170/3/2 171/3/2 172/3/2
f 162/3/7 161/3/7 164/3/7 163/3/7
f 161/3/8 160/3/8 165/3/8 164/3/8
f 160/3/4 159/3/4 166/3/4 165/3/4
f 159/3/9 158/3/9 167/3/9 166/3/9
f 158/3/10 157/3/10 168/3/10 167/3/10
f 157/3/11 156/3/11 169/3/11 168/3/11
f 156/3/12 155/3/12 170/3/12 169/3/12
f 155/3/3 154/3/3 171/3/3 170/3/3
f 154/3/13 153/3/13 172/3/13 171/3/13
f 153/3/14 162/3/14 163/3/14 172/3/14
f 173/3/1 174/3/1 175/3/1 176/3/1 177/3/1 178/3/1
f 179/3/2 180/3/2 181/3/2 182/3/2 183/3/2 184/3/2
f 178/3/15 177/3/15 180/3/15 179/3/15
f 177/3/4 176/3/4 181/3/4 180/3/4
f 176/3/16 175/3/16 182/3/16 181/3/16
f 175/3/17 174/3/17 183/3/17 182/3/17
f 174/3/3 173/3/3 184/3/3 183/3/3
f 173/3/18 178/3/18 179/3/18 184/3/18
