# Blender 5.2.0 LTS
# www.blender.org
mtllib FN_Cabinet_Drinks.mtl
o FN_Cabinet_Drinks
v -0.385000 0.000000 0.158000
v -0.359000 0.000000 0.158000
v -0.359000 0.000000 0.184000
v -0.385000 0.000000 0.184000
v -0.350000 0.400000 0.159000
v -0.310000 0.400000 0.159000
v -0.310000 0.400000 0.119000
v -0.350000 0.400000 0.119000
v -0.385000 0.000000 -0.206000
v -0.359000 0.000000 -0.206000
v -0.359000 0.000000 -0.180000
v -0.385000 0.000000 -0.180000
v -0.350000 0.400000 -0.141000
v -0.310000 0.400000 -0.141000
v -0.310000 0.400000 -0.181000
v -0.350000 0.400000 -0.181000
v 0.359000 0.000000 0.158000
v 0.385000 0.000000 0.158000
v 0.385000 0.000000 0.184000
v 0.359000 0.000000 0.184000
v 0.310000 0.400000 0.159000
v 0.350000 0.400000 0.159000
v 0.350000 0.400000 0.119000
v 0.310000 0.400000 0.119000
v 0.359000 0.000000 -0.206000
v 0.385000 0.000000 -0.206000
v 0.385000 0.000000 -0.180000
v 0.359000 0.000000 -0.180000
v 0.310000 0.400000 -0.141000
v 0.350000 0.400000 -0.141000
v 0.350000 0.400000 -0.181000
v 0.310000 0.400000 -0.181000
v -0.400000 0.380000 0.199000
v -0.400000 0.380000 -0.221000
v 0.400000 0.380000 -0.221000
v 0.400000 0.380000 0.199000
v -0.400000 1.150000 0.199000
v 0.400000 1.150000 0.199000
v 0.400000 1.150000 -0.221000
v -0.400000 1.150000 -0.221000
v -0.416000 1.140000 0.211000
v -0.416000 1.140000 -0.233000
v 0.416000 1.140000 -0.233000
v 0.416000 1.140000 0.211000
v -0.416000 1.176000 0.211000
v 0.416000 1.176000 0.211000
v 0.416000 1.176000 -0.233000
v -0.416000 1.176000 -0.233000
v -0.410000 1.182000 0.205000
v 0.410000 1.182000 0.205000
v 0.410000 1.182000 -0.227000
v -0.410000 1.182000 -0.227000
v -0.392000 0.400000 0.211000
v -0.392000 0.400000 0.199000
v -0.004000 0.400000 0.199000
v -0.004000 0.400000 0.211000
v -0.392000 1.130000 0.211000
v -0.004000 1.130000 0.211000
v -0.004000 1.130000 0.199000
v -0.392000 1.130000 0.199000
v -0.343500 0.400000 0.205000
v -0.367750 0.400000 0.225000
v -0.392000 0.400000 0.205000
v -0.392000 1.130000 0.205000
v -0.367750 1.130000 0.225000
v -0.343500 1.130000 0.205000
v -0.295000 0.400000 0.205000
v -0.319250 0.400000 0.225000
v -0.319250 1.130000 0.225000
v -0.295000 1.130000 0.205000
v -0.246500 0.400000 0.205000
v -0.270750 0.400000 0.225000
v -0.270750 1.130000 0.225000
v -0.246500 1.130000 0.205000
v -0.198000 0.400000 0.205000
v -0.222250 0.400000 0.225000
v -0.222250 1.130000 0.225000
v -0.198000 1.130000 0.205000
v -0.149500 0.400000 0.205000
v -0.173750 0.400000 0.225000
v -0.173750 1.130000 0.225000
v -0.149500 1.130000 0.205000
v -0.101000 0.400000 0.205000
v -0.125250 0.400000 0.225000
v -0.125250 1.130000 0.225000
v -0.101000 1.130000 0.205000
v -0.052500 0.400000 0.205000
v -0.076750 0.400000 0.225000
v -0.076750 1.130000 0.225000
v -0.052500 1.130000 0.205000
v -0.004000 0.400000 0.205000
v -0.028250 0.400000 0.225000
v -0.028250 1.130000 0.225000
v -0.004000 1.130000 0.205000
v 0.004000 0.400000 0.211000
v 0.004000 0.400000 0.199000
v 0.392000 0.400000 0.199000
v 0.392000 0.400000 0.211000
v 0.004000 1.130000 0.211000
v 0.392000 1.130000 0.211000
v 0.392000 1.130000 0.199000
v 0.004000 1.130000 0.199000
v 0.052500 0.400000 0.205000
v 0.028250 0.400000 0.225000
v 0.004000 0.400000 0.205000
v 0.004000 1.130000 0.205000
v 0.028250 1.130000 0.225000
v 0.052500 1.130000 0.205000
v 0.101000 0.400000 0.205000
v 0.076750 0.400000 0.225000
v 0.076750 1.130000 0.225000
v 0.101000 1.130000 0.205000
v 0.149500 0.400000 0.205000
v 0.125250 0.400000 0.225000
v 0.125250 1.130000 0.225000
v 0.149500 1.130000 0.205000
v 0.198000 0.400000 0.205000
v 0.173750 0.400000 0.225000
v 0.173750 1.130000 0.225000
v 0.198000 1.130000 0.205000
v 0.246500 0.400000 0.205000
v 0.222250 0.400000 0.225000
v 0.222250 1.130000 0.225000
v 0.246500 1.130000 0.205000
v 0.295000 0.400000 0.205000
v 0.270750 0.400000 0.225000
v 0.270750 1.130000 0.225000
v 0.295000 1.130000 0.205000
v 0.343500 0.400000 0.205000
v 0.319250 0.400000 0.225000
v 0.319250 1.130000 0.225000
v 0.343500 1.130000 0.205000
v 0.392000 0.400000 0.205000
v 0.367750 0.400000 0.225000
v 0.367750 1.130000 0.225000
v 0.392000 1.130000 0.205000
v -0.030000 0.700000 0.233000
v -0.030000 0.700000 0.219000
v -0.014000 0.700000 0.219000
v -0.014000 0.700000 0.233000
v -0.030000 0.860000 0.233000
v -0.014000 0.860000 0.233000
v -0.014000 0.860000 0.219000
v -0.030000 0.860000 0.219000
v 0.014000 0.700000 0.233000
v 0.014000 0.700000 0.219000
v 0.030000 0.700000 0.219000
v 0.030000 0.700000 0.233000
v 0.014000 0.860000 0.233000
v 0.030000 0.860000 0.233000
v 0.030000 0.860000 0.219000
v 0.014000 0.860000 0.219000
vn -0.0000 -1.0000 -0.0000
vn -0.0000 1.0000 -0.0000
vn -0.0000 0.0624 0.9981
vn 0.9926 -0.1216 -0.0000
vn -0.0000 -0.0970 -0.9953
vn -0.9962 0.0872 -0.0000
vn -0.0000 -0.0970 0.9953
vn -0.0000 0.0624 -0.9981
vn 0.9962 0.0872 -0.0000
vn -0.9926 -0.1216 -0.0000
vn -0.0000 -0.0000 1.0000
vn -0.0000 -0.0000 -1.0000
vn -1.0000 -0.0000 -0.0000
vn 1.0000 -0.0000 -0.0000
vn -0.0000 0.7071 0.7071
vn 0.7071 0.7071 -0.0000
vn -0.0000 0.7071 -0.7071
vn -0.7071 0.7071 -0.0000
vn -0.6363 -0.0000 0.7715
vn 0.6363 -0.0000 0.7715
vt 0.812500 0.312500
vt 0.437500 0.937500
vt 0.937500 0.812500
vt 0.437500 0.312500
s 0
usemtl FN_Atlas
f 1/1/1 2/1/1 3/1/1 4/1/1
f 5/1/2 6/1/2 7/1/2 8/1/2
f 4/1/3 3/1/3 6/1/3 5/1/3
f 3/1/4 2/1/4 7/1/4 6/1/4
f 2/1/5 1/1/5 8/1/5 7/1/5
f 1/1/6 4/1/6 5/1/6 8/1/6
f 9/1/1 10/1/1 11/1/1 12/1/1
f 13/1/2 14/1/2 15/1/2 16/1/2
f 12/1/7 11/1/7 14/1/7 13/1/7
f 11/1/4 10/1/4 15/1/4 14/1/4
f 10/1/8 9/1/8 16/1/8 15/1/8
f 9/1/6 12/1/6 13/1/6 16/1/6
f 17/1/1 18/1/1 19/1/1 20/1/1
f 21/1/2 22/1/2 23/1/2 24/1/2
f 20/1/3 19/1/3 22/1/3 21/1/3
f 19/1/9 18/1/9 23/1/9 22/1/9
f 18/1/5 17/1/5 24/1/5 23/1/5
f 17/1/10 20/1/10 21/1/10 24/1/10
f 25/1/1 26/1/1 27/1/1 28/1/1
f 29/1/2 30/1/2 31/1/2 32/1/2
f 28/1/7 27/1/7 30/1/7 29/1/7
f 27/1/9 26/1/9 31/1/9 30/1/9
f 26/1/8 25/1/8 32/1/8 31/1/8
f 25/1/10 28/1/10 29/1/10 32/1/10
f 33/2/1 34/2/1 35/2/1 36/2/1
f 37/2/2 38/2/2 39/2/2 40/2/2
f 33/2/11 36/2/11 38/2/11 37/2/11
f 35/2/12 34/2/12 40/2/12 39/2/12
f 33/2/13 37/2/13 40/2/13 34/2/13
f 36/2/14 35/2/14 39/2/14 38/2/14
f 41/2/1 42/2/1 43/2/1 44/2/1
f 45/2/2 46/2/2 47/2/2 48/2/2
f 41/2/11 44/2/11 46/2/11 45/2/11
f 43/2/12 42/2/12 48/2/12 47/2/12
f 41/2/13 45/2/13 48/2/13 42/2/13
f 44/2/14 43/2/14 47/2/14 46/2/14
f 49/2/2 50/2/2 51/2/2 52/2/2
f 45/2/15 46/2/15 50/2/15 49/2/15
f 46/2/16 47/2/16 51/2/16 50/2/16
f 47/2/17 48/2/17 52/2/17 51/2/17
f 48/2/18 45/2/18 49/2/18 52/2/18
f 53/3/1 54/3/1 55/3/1 56/3/1
f 57/3/2 58/3/2 59/3/2 60/3/2
f 53/3/11 56/3/11 58/3/11 57/3/11
f 55/3/12 54/3/12 60/3/12 59/3/12
f 53/3/13 57/3/13 60/3/13 54/3/13
f 56/3/14 55/3/14 59/3/14 58/3/14
f 61/3/1 62/3/1 63/3/1
f 64/3/2 65/3/2 66/3/2
f 63/3/19 62/3/19 65/3/19 64/3/19
f 62/3/20 61/3/20 66/3/20 65/3/20
f 61/3/12 63/3/12 64/3/12 66/3/12
f 67/3/1 68/3/1 61/3/1
f 66/3/2 69/3/2 70/3/2
f 61/3/19 68/3/19 69/3/19 66/3/19
f 68/3/20 67/3/20 70/3/20 69/3/20
f 67/3/12 61/3/12 66/3/12 70/3/12
f 71/3/1 72/3/1 67/3/1
f 70/3/2 73/3/2 74/3/2
f 67/3/19 72/3/19 73/3/19 70/3/19
f 72/3/20 71/3/20 74/3/20 73/3/20
f 71/3/12 67/3/12 70/3/12 74/3/12
f 75/3/1 76/3/1 71/3/1
f 74/3/2 77/3/2 78/3/2
f 71/3/19 76/3/19 77/3/19 74/3/19
f 76/3/20 75/3/20 78/3/20 77/3/20
f 75/3/12 71/3/12 74/3/12 78/3/12
f 79/3/1 80/3/1 75/3/1
f 78/3/2 81/3/2 82/3/2
f 75/3/19 80/3/19 81/3/19 78/3/19
f 80/3/20 79/3/20 82/3/20 81/3/20
f 79/3/12 75/3/12 78/3/12 82/3/12
f 83/3/1 84/3/1 79/3/1
f 82/3/2 85/3/2 86/3/2
f 79/3/19 84/3/19 85/3/19 82/3/19
f 84/3/20 83/3/20 86/3/20 85/3/20
f 83/3/12 79/3/12 82/3/12 86/3/12
f 87/3/1 88/3/1 83/3/1
f 86/3/2 89/3/2 90/3/2
f 83/3/19 88/3/19 89/3/19 86/3/19
f 88/3/20 87/3/20 90/3/20 89/3/20
f 87/3/12 83/3/12 86/3/12 90/3/12
f 91/3/1 92/3/1 87/3/1
f 90/3/2 93/3/2 94/3/2
f 87/3/19 92/3/19 93/3/19 90/3/19
f 92/3/20 91/3/20 94/3/20 93/3/20
f 91/3/12 87/3/12 90/3/12 94/3/12
f 95/3/1 96/3/1 97/3/1 98/3/1
f 99/3/2 100/3/2 101/3/2 102/3/2
f 95/3/11 98/3/11 100/3/11 99/3/11
f 97/3/12 96/3/12 102/3/12 101/3/12
f 95/3/13 99/3/13 102/3/13 96/3/13
f 98/3/14 97/3/14 101/3/14 100/3/14
f 103/3/1 104/3/1 105/3/1
f 106/3/2 107/3/2 108/3/2
f 105/3/19 104/3/19 107/3/19 106/3/19
f 104/3/20 103/3/20 108/3/20 107/3/20
f 103/3/12 105/3/12 106/3/12 108/3/12
f 109/3/1 110/3/1 103/3/1
f 108/3/2 111/3/2 112/3/2
f 103/3/19 110/3/19 111/3/19 108/3/19
f 110/3/20 109/3/20 112/3/20 111/3/20
f 109/3/12 103/3/12 108/3/12 112/3/12
f 113/3/1 114/3/1 109/3/1
f 112/3/2 115/3/2 116/3/2
f 109/3/19 114/3/19 115/3/19 112/3/19
f 114/3/20 113/3/20 116/3/20 115/3/20
f 113/3/12 109/3/12 112/3/12 116/3/12
f 117/3/1 118/3/1 113/3/1
f 116/3/2 119/3/2 120/3/2
f 113/3/19 118/3/19 119/3/19 116/3/19
f 118/3/20 117/3/20 120/3/20 119/3/20
f 117/3/12 113/3/12 116/3/12 120/3/12
f 121/3/1 122/3/1 117/3/1
f 120/3/2 123/3/2 124/3/2
f 117/3/19 122/3/19 123/3/19 120/3/19
f 122/3/20 121/3/20 124/3/20 123/3/20
f 121/3/12 117/3/12 120/3/12 124/3/12
f 125/3/1 126/3/1 121/3/1
f 124/3/2 127/3/2 128/3/2
f 121/3/19 126/3/19 127/3/19 124/3/19
f 126/3/20 125/3/20 128/3/20 127/3/20
f 125/3/12 121/3/12 124/3/12 128/3/12
f 129/3/1 130/3/1 125/3/1
f 128/3/2 131/3/2 132/3/2
f 125/3/19 130/3/19 131/3/19 128/3/19
f 130/3/20 129/3/20 132/3/20 131/3/20
f 129/3/12 125/3/12 128/3/12 132/3/12
f 133/3/1 134/3/1 129/3/1
f 132/3/2 135/3/2 136/3/2
f 129/3/19 134/3/19 135/3/19 132/3/19
f 134/3/20 133/3/20 136/3/20 135/3/20
f 133/3/12 129/3/12 132/3/12 136/3/12
f 137/4/1 138/4/1 139/4/1 140/4/1
f 141/4/2 142/4/2 143/4/2 144/4/2
f 137/4/11 140/4/11 142/4/11 141/4/11
f 139/4/12 138/4/12 144/4/12 143/4/12
f 137/4/13 141/4/13 144/4/13 138/4/13
f 140/4/14 139/4/14 143/4/14 142/4/14
f 145/4/1 146/4/1 147/4/1 148/4/1
f 149/4/2 150/4/2 151/4/2 152/4/2
f 145/4/11 148/4/11 150/4/11 149/4/11
f 147/4/12 146/4/12 152/4/12 151/4/12
f 145/4/13 149/4/13 152/4/13 146/4/13
f 148/4/14 147/4/14 151/4/14 150/4/14
