# Blender 5.2.0 LTS
# www.blender.org
mtllib FN_Cabinet_Larder.mtl
o FN_Cabinet_Larder
v -0.470225 0.100000 0.100698
v -0.470225 0.100000 -0.519302
v -0.440225 0.100000 -0.519302
v -0.440225 0.100000 0.100698
v -0.470225 1.960000 0.100698
v -0.440225 1.960000 0.100698
v -0.440225 1.960000 -0.519302
v -0.470225 1.960000 -0.519302
v 0.199775 0.100000 0.100698
v 0.199775 0.100000 -0.519302
v 0.229775 0.100000 -0.519302
v 0.229775 0.100000 0.100698
v 0.199775 1.960000 0.100698
v 0.229775 1.960000 0.100698
v 0.229775 1.960000 -0.519302
v 0.199775 1.960000 -0.519302
v -0.470225 0.100000 -0.489302
v 0.229775 0.100000 -0.489302
v -0.470225 1.960000 -0.489302
v 0.229775 1.960000 -0.489302
v -0.470225 1.900000 0.100698
v -0.470225 1.900000 -0.519302
v 0.229775 1.900000 -0.519302
v 0.229775 1.900000 0.100698
v -0.470225 0.140000 0.100698
v 0.229775 0.140000 0.100698
v 0.229775 0.140000 -0.519302
v -0.470225 0.140000 -0.519302
v -0.490225 1.960000 0.120698
v -0.490225 1.960000 -0.529302
v 0.249775 1.960000 -0.529302
v 0.249775 1.960000 0.120698
v -0.490225 2.000000 0.120698
v 0.249775 2.000000 0.120698
v 0.249775 2.000000 -0.529302
v -0.490225 2.000000 -0.529302
v -0.455225 0.000000 0.085698
v -0.455225 0.000000 -0.504302
v 0.214775 0.000000 -0.504302
v 0.214775 0.000000 0.085698
v -0.455225 0.100000 0.085698
v 0.214775 0.100000 0.085698
v 0.214775 0.100000 -0.504302
v -0.455225 0.100000 -0.504302
v -0.470225 0.140000 0.070698
v -0.380225 0.140000 0.070698
v -0.380225 0.140000 0.100698
v -0.380225 1.900000 0.100698
v -0.380225 1.900000 0.070698
v -0.470225 1.900000 0.070698
v 0.139775 0.140000 0.100698
v 0.139775 0.140000 0.070698
v 0.229775 0.140000 0.070698
v 0.139775 1.900000 0.100698
v 0.229775 1.900000 0.070698
v 0.139775 1.900000 0.070698
v -0.470225 1.820000 0.100698
v -0.470225 1.820000 0.070698
v 0.229775 1.820000 0.070698
v 0.229775 1.820000 0.100698
v -0.470225 0.220000 0.100698
v 0.229775 0.220000 0.100698
v 0.229775 0.220000 0.070698
v -0.470225 0.220000 0.070698
v -0.440225 0.560000 -0.059302
v -0.440225 0.560000 -0.489302
v 0.199775 0.560000 -0.489302
v 0.199775 0.560000 -0.059302
v -0.440225 0.582000 -0.059302
v 0.199775 0.582000 -0.059302
v 0.199775 0.582000 -0.489302
v -0.440225 0.582000 -0.489302
v -0.440225 0.960000 -0.059302
v -0.440225 0.960000 -0.489302
v 0.199775 0.960000 -0.489302
v 0.199775 0.960000 -0.059302
v -0.440225 0.982000 -0.059302
v 0.199775 0.982000 -0.059302
v 0.199775 0.982000 -0.489302
v -0.440225 0.982000 -0.489302
v -0.440225 1.360000 -0.059302
v -0.440225 1.360000 -0.489302
v 0.199775 1.360000 -0.489302
v 0.199775 1.360000 -0.059302
v -0.440225 1.382000 -0.059302
v 0.199775 1.382000 -0.059302
v 0.199775 1.382000 -0.489302
v -0.440225 1.382000 -0.489302
v -0.279225 0.582000 -0.072929
v -0.321225 0.582000 -0.072929
v -0.342225 0.582000 -0.109302
v -0.321225 0.582000 -0.145675
v -0.279225 0.582000 -0.145675
v -0.258225 0.582000 -0.109302
v -0.258225 0.712000 -0.109302
v -0.279225 0.712000 -0.145675
v -0.321225 0.712000 -0.145675
v -0.342225 0.712000 -0.109302
v -0.321225 0.712000 -0.072929
v -0.279225 0.712000 -0.072929
v -0.043225 0.582000 -0.079857
v -0.077225 0.582000 -0.079857
v -0.094225 0.582000 -0.109302
v -0.077225 0.582000 -0.138747
v -0.043225 0.582000 -0.138747
v -0.026225 0.582000 -0.109302
v -0.026225 0.682000 -0.109302
v -0.043225 0.682000 -0.138747
v -0.077225 0.682000 -0.138747
v -0.094225 0.682000 -0.109302
v -0.077225 0.682000 -0.079857
v -0.043225 0.682000 -0.079857
v -0.201225 0.982000 -0.076393
v -0.239225 0.982000 -0.076393
v -0.258225 0.982000 -0.109302
v -0.239225 0.982000 -0.142211
v -0.201225 0.982000 -0.142211
v -0.182225 0.982000 -0.109302
v -0.182225 1.097000 -0.109302
v -0.201225 1.097000 -0.142211
v -0.239225 1.097000 -0.142211
v -0.258225 1.097000 -0.109302
v -0.239225 1.097000 -0.076393
v -0.201225 1.097000 -0.076393
v -0.020225 1.382000 -0.074661
v -0.060225 1.382000 -0.074661
v -0.080225 1.382000 -0.109302
v -0.060225 1.382000 -0.143943
v -0.020225 1.382000 -0.143943
v -0.000225 1.382000 -0.109302
v -0.000225 1.502000 -0.109302
v -0.020225 1.502000 -0.143943
v -0.060225 1.502000 -0.143943
v -0.080225 1.502000 -0.109302
v -0.060225 1.502000 -0.074661
v -0.020225 1.502000 -0.074661
v 0.148201 0.228000 0.078628
v 0.477309 0.228000 0.470842
v 0.460456 0.228000 0.484984
v 0.131348 0.228000 0.092769
v 0.131348 1.812000 0.092769
v 0.460456 1.812000 0.484984
v 0.477309 1.812000 0.470842
v 0.148201 1.812000 0.078628
v 0.148775 0.300000 0.101287
v 0.130775 0.300000 0.101287
v 0.121775 0.300000 0.085698
v 0.130775 0.300000 0.070110
v 0.148775 0.300000 0.070110
v 0.157775 0.300000 0.085698
v 0.157775 0.400000 0.085698
v 0.148775 0.400000 0.070110
v 0.130775 0.400000 0.070110
v 0.121775 0.400000 0.085698
v 0.130775 0.400000 0.101287
v 0.148775 0.400000 0.101287
v 0.148775 0.960000 0.101287
v 0.130775 0.960000 0.101287
v 0.121775 0.960000 0.085698
v 0.130775 0.960000 0.070110
v 0.148775 0.960000 0.070110
v 0.157775 0.960000 0.085698
v 0.157775 1.060000 0.085698
v 0.148775 1.060000 0.070110
v 0.130775 1.060000 0.070110
v 0.121775 1.060000 0.085698
v 0.130775 1.060000 0.101287
v 0.148775 1.060000 0.101287
v 0.148775 1.640000 0.101287
v 0.130775 1.640000 0.101287
v 0.121775 1.640000 0.085698
v 0.130775 1.640000 0.070110
v 0.148775 1.640000 0.070110
v 0.157775 1.640000 0.085698
v 0.157775 1.740000 0.085698
v 0.148775 1.740000 0.070110
v 0.130775 1.740000 0.070110
v 0.121775 1.740000 0.085698
v 0.130775 1.740000 0.101287
v 0.148775 1.740000 0.101287
v 0.456800 0.940000 0.388840
v 0.490225 0.940000 0.428674
v 0.461882 0.940000 0.452457
v 0.428457 0.940000 0.412623
v 0.428457 1.080000 0.412623
v 0.461882 1.080000 0.452457
v 0.490225 1.080000 0.428674
v 0.456800 1.080000 0.388840
v 0.169916 0.500000 0.138732
v 0.433458 0.500000 0.452810
v 0.342299 0.500000 0.529302
v 0.078756 0.500000 0.215223
v 0.078756 0.520000 0.215223
v 0.342299 0.520000 0.529302
v 0.433458 0.520000 0.452810
v 0.169916 0.520000 0.138732
v 0.087949 0.520000 0.207510
v 0.351492 0.520000 0.521588
v 0.078756 0.575000 0.215223
v 0.342299 0.575000 0.529302
v 0.351492 0.575000 0.521588
v 0.087949 0.575000 0.207510
v 0.191142 0.520000 0.263920
v 0.161142 0.520000 0.263920
v 0.146142 0.520000 0.237940
v 0.161142 0.520000 0.211959
v 0.191142 0.520000 0.211959
v 0.206142 0.520000 0.237940
v 0.206142 0.610000 0.237940
v 0.191142 0.610000 0.211959
v 0.161142 0.610000 0.211959
v 0.146142 0.610000 0.237940
v 0.161142 0.610000 0.263920
v 0.191142 0.610000 0.263920
v 0.313272 0.520000 0.409469
v 0.283272 0.520000 0.409469
v 0.268272 0.520000 0.383488
v 0.283272 0.520000 0.357507
v 0.313272 0.520000 0.357507
v 0.328272 0.520000 0.383488
v 0.328272 0.610000 0.383488
v 0.313272 0.610000 0.357507
v 0.283272 0.610000 0.357507
v 0.268272 0.610000 0.383488
v 0.283272 0.610000 0.409469
v 0.313272 0.610000 0.409469
v 0.169916 0.900000 0.138732
v 0.433458 0.900000 0.452810
v 0.342299 0.900000 0.529302
v 0.078756 0.900000 0.215223
v 0.078756 0.920000 0.215223
v 0.342299 0.920000 0.529302
v 0.433458 0.920000 0.452810
v 0.169916 0.920000 0.138732
v 0.087949 0.920000 0.207510
v 0.351492 0.920000 0.521588
v 0.078756 0.975000 0.215223
v 0.342299 0.975000 0.529302
v 0.351492 0.975000 0.521588
v 0.087949 0.975000 0.207510
v 0.191142 0.920000 0.263920
v 0.161142 0.920000 0.263920
v 0.146142 0.920000 0.237940
v 0.161142 0.920000 0.211959
v 0.191142 0.920000 0.211959
v 0.206142 0.920000 0.237940
v 0.206142 1.010000 0.237940
v 0.191142 1.010000 0.211959
v 0.161142 1.010000 0.211959
v 0.146142 1.010000 0.237940
v 0.161142 1.010000 0.263920
v 0.191142 1.010000 0.263920
v 0.313272 0.920000 0.409469
v 0.283272 0.920000 0.409469
v 0.268272 0.920000 0.383488
v 0.283272 0.920000 0.357507
v 0.313272 0.920000 0.357507
v 0.328272 0.920000 0.383488
v 0.328272 1.010000 0.383488
v 0.313272 1.010000 0.357507
v 0.283272 1.010000 0.357507
v 0.268272 1.010000 0.383488
v 0.283272 1.010000 0.409469
v 0.313272 1.010000 0.409469
v 0.169916 1.300000 0.138732
v 0.433458 1.300000 0.452810
v 0.342299 1.300000 0.529302
v 0.078756 1.300000 0.215223
v 0.078756 1.320000 0.215223
v 0.342299 1.320000 0.529302
v 0.433458 1.320000 0.452810
v 0.169916 1.320000 0.138732
v 0.087949 1.320000 0.207510
v 0.351492 1.320000 0.521588
v 0.078756 1.375000 0.215223
v 0.342299 1.375000 0.529302
v 0.351492 1.375000 0.521588
v 0.087949 1.375000 0.207510
v 0.191142 1.320000 0.263920
v 0.161142 1.320000 0.263920
v 0.146142 1.320000 0.237940
v 0.161142 1.320000 0.211959
v 0.191142 1.320000 0.211959
v 0.206142 1.320000 0.237940
v 0.206142 1.410000 0.237940
v 0.191142 1.410000 0.211959
v 0.161142 1.410000 0.211959
v 0.146142 1.410000 0.237940
v 0.161142 1.410000 0.263920
v 0.191142 1.410000 0.263920
v 0.313272 1.320000 0.409469
v 0.283272 1.320000 0.409469
v 0.268272 1.320000 0.383488
v 0.283272 1.320000 0.357507
v 0.313272 1.320000 0.357507
v 0.328272 1.320000 0.383488
v 0.328272 1.410000 0.383488
v 0.313272 1.410000 0.357507
v 0.283272 1.410000 0.357507
v 0.268272 1.410000 0.383488
v 0.283272 1.410000 0.409469
v 0.313272 1.410000 0.409469
vn -0.0000 -1.0000 -0.0000
vn -0.0000 1.0000 -0.0000
vn -0.0000 -0.0000 1.0000
vn -0.0000 -0.0000 -1.0000
vn -1.0000 -0.0000 -0.0000
vn 1.0000 -0.0000 -0.0000
vn 0.8660 -0.0000 -0.5000
vn -0.8660 -0.0000 -0.5000
vn -0.8660 -0.0000 0.5000
vn 0.8660 -0.0000 0.5000
vn 0.7660 -0.0000 -0.6428
vn 0.6428 -0.0000 0.7660
vn -0.7660 -0.0000 0.6428
vn -0.6428 -0.0000 -0.7660
vt 0.437500 0.937500
vt 0.937500 0.812500
vt 0.312500 0.687500
vt 0.812500 0.312500
s 0
usemtl FN_Atlas
f 1/1/1 2/1/1 3/1/1 4/1/1
f 5/1/2 6/1/2 7/1/2 8/1/2
f 1/1/3 4/1/3 6/1/3 5/1/3
f 3/1/4 2/1/4 8/1/4 7/1/4
f 1/1/5 5/1/5 8/1/5 2/1/5
f 4/1/6 3/1/6 7/1/6 6/1/6
f 9/1/1 10/1/1 11/1/1 12/1/1
f 13/1/2 14/1/2 15/1/2 16/1/2
f 9/1/3 12/1/3 14/1/3 13/1/3
f 11/1/4 10/1/4 16/1/4 15/1/4
f 9/1/5 13/1/5 16/1/5 10/1/5
f 12/1/6 11/1/6 15/1/6 14/1/6
f 17/1/1 2/1/1 11/1/1 18/1/1
f 19/1/2 20/1/2 15/1/2 8/1/2
f 17/1/3 18/1/3 20/1/3 19/1/3
f 11/1/4 2/1/4 8/1/4 15/1/4
f 17/1/5 19/1/5 8/1/5 2/1/5
f 18/1/6 11/1/6 15/1/6 20/1/6
f 21/1/1 22/1/1 23/1/1 24/1/1
f 5/1/2 14/1/2 15/1/2 8/1/2
f 21/1/3 24/1/3 14/1/3 5/1/3
f 23/1/4 22/1/4 8/1/4 15/1/4
f 21/1/5 5/1/5 8/1/5 22/1/5
f 24/1/6 23/1/6 15/1/6 14/1/6
f 1/1/1 2/1/1 11/1/1 12/1/1
f 25/1/2 26/1/2 27/1/2 28/1/2
f 1/1/3 12/1/3 26/1/3 25/1/3
f 11/1/4 2/1/4 28/1/4 27/1/4
f 1/1/5 25/1/5 28/1/5 2/1/5
f 12/1/6 11/1/6 27/1/6 26/1/6
f 29/1/1 30/1/1 31/1/1 32/1/1
f 33/1/2 34/1/2 35/1/2 36/1/2
f 29/1/3 32/1/3 34/1/3 33/1/3
f 31/1/4 30/1/4 36/1/4 35/1/4
f 29/1/5 33/1/5 36/1/5 30/1/5
f 32/1/6 31/1/6 35/1/6 34/1/6
f 37/1/1 38/1/1 39/1/1 40/1/1
f 41/1/2 42/1/2 43/1/2 44/1/2
f 37/1/3 40/1/3 42/1/3 41/1/3
f 39/1/4 38/1/4 44/1/4 43/1/4
f 37/1/5 41/1/5 44/1/5 38/1/5
f 40/1/6 39/1/6 43/1/6 42/1/6
f 25/1/1 45/1/1 46/1/1 47/1/1
f 21/1/2 48/1/2 49/1/2 50/1/2
f 25/1/3 47/1/3 48/1/3 21/1/3
f 46/1/4 45/1/4 50/1/4 49/1/4
f 25/1/5 21/1/5 50/1/5 45/1/5
f 47/1/6 46/1/6 49/1/6 48/1/6
f 51/1/1 52/1/1 53/1/1 26/1/1
f 54/1/2 24/1/2 55/1/2 56/1/2
f 51/1/3 26/1/3 24/1/3 54/1/3
f 53/1/4 52/1/4 56/1/4 55/1/4
f 51/1/5 54/1/5 56/1/5 52/1/5
f 26/1/6 53/1/6 55/1/6 24/1/6
f 57/1/1 58/1/1 59/1/1 60/1/1
f 21/1/2 24/1/2 55/1/2 50/1/2
f 57/1/3 60/1/3 24/1/3 21/1/3
f 59/1/4 58/1/4 50/1/4 55/1/4
f 57/1/5 21/1/5 50/1/5 58/1/5
f 60/1/6 59/1/6 55/1/6 24/1/6
f 25/1/1 45/1/1 53/1/1 26/1/1
f 61/1/2 62/1/2 63/1/2 64/1/2
f 25/1/3 26/1/3 62/1/3 61/1/3
f 53/1/4 45/1/4 64/1/4 63/1/4
f 25/1/5 61/1/5 64/1/5 45/1/5
f 26/1/6 53/1/6 63/1/6 62/1/6
f 65/1/1 66/1/1 67/1/1 68/1/1
f 69/1/2 70/1/2 71/1/2 72/1/2
f 65/1/3 68/1/3 70/1/3 69/1/3
f 67/1/4 66/1/4 72/1/4 71/1/4
f 65/1/5 69/1/5 72/1/5 66/1/5
f 68/1/6 67/1/6 71/1/6 70/1/6
f 73/1/1 74/1/1 75/1/1 76/1/1
f 77/1/2 78/1/2 79/1/2 80/1/2
f 73/1/3 76/1/3 78/1/3 77/1/3
f 75/1/4 74/1/4 80/1/4 79/1/4
f 73/1/5 77/1/5 80/1/5 74/1/5
f 76/1/6 75/1/6 79/1/6 78/1/6
f 81/1/1 82/1/1 83/1/1 84/1/1
f 85/1/2 86/1/2 87/1/2 88/1/2
f 81/1/3 84/1/3 86/1/3 85/1/3
f 83/1/4 82/1/4 88/1/4 87/1/4
f 81/1/5 85/1/5 88/1/5 82/1/5
f 84/1/6 83/1/6 87/1/6 86/1/6
f 89/2/1 90/2/1 91/2/1 92/2/1 93/2/1 94/2/1
f 95/2/2 96/2/2 97/2/2 98/2/2 99/2/2 100/2/2
f 94/2/7 93/2/7 96/2/7 95/2/7
f 93/2/4 92/2/4 97/2/4 96/2/4
f 92/2/8 91/2/8 98/2/8 97/2/8
f 91/2/9 90/2/9 99/2/9 98/2/9
f 90/2/3 89/2/3 100/2/3 99/2/3
f 89/2/10 94/2/10 95/2/10 100/2/10
f 101/3/1 102/3/1 103/3/1 104/3/1 105/3/1 106/3/1
f 107/3/2 108/3/2 109/3/2 110/3/2 111/3/2 112/3/2
f 106/3/7 105/3/7 108/3/7 107/3/7
f 105/3/4 104/3/4 109/3/4 108/3/4
f 104/3/8 103/3/8 110/3/8 109/3/8
f 103/3/9 102/3/9 111/3/9 110/3/9
f 102/3/3 101/3/3 112/3/3 111/3/3
f 101/3/10 106/3/10 107/3/10 112/3/10
f 113/3/1 114/3/1 115/3/1 116/3/1 117/3/1 118/3/1
f 119/3/2 120/3/2 121/3/2 122/3/2 123/3/2 124/3/2
f 118/3/7 117/3/7 120/3/7 119/3/7
f 117/3/4 116/3/4 121/3/4 120/3/4
f 116/3/8 115/3/8 122/3/8 121/3/8
f 115/3/9 114/3/9 123/3/9 122/3/9
f 114/3/3 113/3/3 124/3/3 123/3/3
f 113/3/10 118/3/10 119/3/10 124/3/10
f 125/2/1 126/2/1 127/2/1 128/2/1 129/2/1 130/2/1
f 131/2/2 132/2/2 133/2/2 134/2/2 135/2/2 136/2/2
f 130/2/7 129/2/7 132/2/7 131/2/7
f 129/2/4 128/2/4 133/2/4 132/2/4
f 128/2/8 127/2/8 134/2/8 133/2/8
f 127/2/9 126/2/9 135/2/9 134/2/9
f 126/2/3 125/2/3 136/2/3 135/2/3
f 125/2/10 130/2/10 131/2/10 136/2/10
f 137/1/1 138/1/1 139/1/1 140/1/1
f 141/1/2 142/1/2 143/1/2 144/1/2
f 144/1/11 143/1/11 138/1/11 137/1/11
f 143/1/12 142/1/12 139/1/12 138/1/12
f 142/1/13 141/1/13 140/1/13 139/1/13
f 141/1/14 144/1/14 137/1/14 140/1/14
f 145/4/1 146/4/1 147/4/1 148/4/1 149/4/1 150/4/1
f 151/4/2 152/4/2 153/4/2 154/4/2 155/4/2 156/4/2
f 150/4/7 149/4/7 152/4/7 151/4/7
f 149/4/4 148/4/4 153/4/4 152/4/4
f 148/4/8 147/4/8 154/4/8 153/4/8
f 147/4/9 146/4/9 155/4/9 154/4/9
f 146/4/3 145/4/3 156/4/3 155/4/3
f 145/4/10 150/4/10 151/4/10 156/4/10
f 157/4/1 158/4/1 159/4/1 160/4/1 161/4/1 162/4/1
f 163/4/2 164/4/2 165/4/2 166/4/2 167/4/2 168/4/2
f 162/4/7 161/4/7 164/4/7 163/4/7
f 161/4/4 160/4/4 165/4/4 164/4/4
f 160/4/8 159/4/8 166/4/8 165/4/8
f 159/4/9 158/4/9 167/4/9 166/4/9
f 158/4/3 157/4/3 168/4/3 167/4/3
f 157/4/10 162/4/10 163/4/10 168/4/10
f 169/4/1 170/4/1 171/4/1 172/4/1 173/4/1 174/4/1
f 175/4/2 176/4/2 177/4/2 178/4/2 179/4/2 180/4/2
f 174/4/7 173/4/7 176/4/7 175/4/7
f 173/4/4 172/4/4 177/4/4 176/4/4
f 172/4/8 171/4/8 178/4/8 177/4/8
f 171/4/9 170/4/9 179/4/9 178/4/9
f 170/4/3 169/4/3 180/4/3 179/4/3
f 169/4/10 174/4/10 175/4/10 180/4/10
f 181/4/1 182/4/1 183/4/1 184/4/1
f 185/4/2 186/4/2 187/4/2 188/4/2
f 188/4/11 187/4/11 182/4/11 181/4/11
f 187/4/12 186/4/12 183/4/12 182/4/12
f 186/4/13 185/4/13 184/4/13 183/4/13
f 185/4/14 188/4/14 181/4/14 184/4/14
f 189/1/1 190/1/1 191/1/1 192/1/1
f 193/1/2 194/1/2 195/1/2 196/1/2
f 196/1/11 195/1/11 190/1/11 189/1/11
f 195/1/12 194/1/12 191/1/12 190/1/12
f 194/1/13 193/1/13 192/1/13 191/1/13
f 193/1/14 196/1/14 189/1/14 192/1/14
f 197/1/1 198/1/1 194/1/1 193/1/1
f 199/1/2 200/1/2 201/1/2 202/1/2
f 202/1/11 201/1/11 198/1/11 197/1/11
f 201/1/12 200/1/12 194/1/12 198/1/12
f 200/1/13 199/1/13 193/1/13 194/1/13
f 199/1/14 202/1/14 197/1/14 193/1/14
f 203/2/1 204/2/1 205/2/1 206/2/1 207/2/1 208/2/1
f 209/2/2 210/2/2 211/2/2 212/2/2 213/2/2 214/2/2
f 208/2/7 207/2/7 210/2/7 209/2/7
f 207/2/4 206/2/4 211/2/4 210/2/4
f 206/2/8 205/2/8 212/2/8 211/2/8
f 205/2/9 204/2/9 213/2/9 212/2/9
f 204/2/3 203/2/3 214/2/3 213/2/3
f 203/2/10 208/2/10 209/2/10 214/2/10
f 215/3/1 216/3/1 217/3/1 218/3/1 219/3/1 220/3/1
f 221/3/2 222/3/2 223/3/2 224/3/2 225/3/2 226/3/2
f 220/3/7 219/3/7 222/3/7 221/3/7
f 219/3/4 218/3/4 223/3/4 222/3/4
f 218/3/8 217/3/8 224/3/8 223/3/8
f 217/3/9 216/3/9 225/3/9 224/3/9
f 216/3/3 215/3/3 226/3/3 225/3/3
f 215/3/10 220/3/10 221/3/10 226/3/10
f 227/1/1 228/1/1 229/1/1 230/1/1
f 231/1/2 232/1/2 233/1/2 234/1/2
f 234/1/11 233/1/11 228/1/11 227/1/11
f 233/1/12 232/1/12 229/1/12 228/1/12
f 232/1/13 231/1/13 230/1/13 229/1/13
f 231/1/14 234/1/14 227/1/14 230/1/14
f 235/1/1 236/1/1 232/1/1 231/1/1
f 237/1/2 238/1/2 239/1/2 240/1/2
f 240/1/11 239/1/11 236/1/11 235/1/11
f 239/1/12 238/1/12 232/1/12 236/1/12
f 238/1/13 237/1/13 231/1/13 232/1/13
f 237/1/14 240/1/14 235/1/14 231/1/14
f 241/2/1 242/2/1 243/2/1 244/2/1 245/2/1 246/2/1
f 247/2/2 248/2/2 249/2/2 250/2/2 251/2/2 252/2/2
f 246/2/7 245/2/7 248/2/7 247/2/7
f 245/2/4 244/2/4 249/2/4 248/2/4
f 244/2/8 243/2/8 250/2/8 249/2/8
f 243/2/9 242/2/9 251/2/9 250/2/9
f 242/2/3 241/2/3 252/2/3 251/2/3
f 241/2/10 246/2/10 247/2/10 252/2/10
f 253/3/1 254/3/1 255/3/1 256/3/1 257/3/1 258/3/1
f 259/3/2 260/3/2 261/3/2 262/3/2 263/3/2 264/3/2
f 258/3/7 257/3/7 260/3/7 259/3/7
f 257/3/4 256/3/4 261/3/4 260/3/4
f 256/3/8 255/3/8 262/3/8 261/3/8
f 255/3/9 254/3/9 263/3/9 262/3/9
f 254/3/3 253/3/3 264/3/3 263/3/3
f 253/3/10 258/3/10 259/3/10 264/3/10
f 265/1/1 266/1/1 267/1/1 268/1/1
f 269/1/2 270/1/2 271/1/2 272/1/2
f 272/1/11 271/1/11 266/1/11 265/1/11
f 271/1/12 270/1/12 267/1/12 266/1/12
f 270/1/13 269/1/13 268/1/13 267/1/13
f 269/1/14 272/1/14 265/1/14 268/1/14
f 273/1/1 274/1/1 270/1/1 269/1/1
f 275/1/2 276/1/2 277/1/2 278/1/2
f 278/1/11 277/1/11 274/1/11 273/1/11
f 277/1/12 276/1/12 270/1/12 274/1/12
f 276/1/13 275/1/13 269/1/13 270/1/13
f 275/1/14 278/1/14 273/1/14 269/1/14
f 279/2/1 280/2/1 281/2/1 282/2/1 283/2/1 284/2/1
f 285/2/2 286/2/2 287/2/2 288/2/2 289/2/2 290/2/2
f 284/2/7 283/2/7 286/2/7 285/2/7
f 283/2/4 282/2/4 287/2/4 286/2/4
f 282/2/8 281/2/8 288/2/8 287/2/8
f 281/2/9 280/2/9 289/2/9 288/2/9
f 280/2/3 279/2/3 290/2/3 289/2/3
f 279/2/10 284/2/10 285/2/10 290/2/10
f 291/3/1 292/3/1 293/3/1 294/3/1 295/3/1 296/3/1
f 297/3/2 298/3/2 299/3/2 300/3/2 301/3/2 302/3/2
f 296/3/7 295/3/7 298/3/7 297/3/7
f 295/3/4 294/3/4 299/3/4 298/3/4
f 294/3/8 293/3/8 300/3/8 299/3/8
f 293/3/9 292/3/9 301/3/9 300/3/9
f 292/3/3 291/3/3 302/3/3 301/3/3
f 291/3/10 296/3/10 297/3/10 302/3/10
