# Blender 5.2.0 LTS
# www.blender.org
mtllib FN_Chair_Office.mtl
o FN_Chair_Office
v -0.042000 0.046000 -0.020048
v -0.021000 0.046000 -0.250048
v 0.021000 0.046000 -0.250048
v 0.042000 0.046000 -0.020048
v 0.035000 0.086000 -0.020048
v 0.017000 0.086000 -0.210047
v -0.017000 0.086000 -0.210047
v -0.035000 0.086000 -0.020048
v 0.019000 0.007615 -0.221663
v 0.019000 0.026000 -0.214048
v 0.019000 0.044385 -0.221663
v 0.019000 0.052000 -0.240048
v 0.019000 0.044385 -0.258432
v 0.019000 0.026000 -0.266048
v 0.019000 0.007615 -0.258432
v 0.019000 0.000000 -0.240048
v -0.019000 0.000000 -0.240048
v -0.019000 0.007615 -0.258432
v -0.019000 0.026000 -0.266048
v -0.019000 0.044385 -0.258432
v -0.019000 0.052000 -0.240048
v -0.019000 0.044385 -0.221663
v -0.019000 0.026000 -0.214048
v -0.019000 0.007615 -0.221663
v 0.005500 0.074000 -0.249574
v -0.005500 0.074000 -0.249574
v -0.011000 0.074000 -0.240048
v -0.005500 0.074000 -0.230521
v 0.005500 0.074000 -0.230521
v 0.011000 0.074000 -0.240048
v 0.011000 0.044000 -0.240048
v 0.005500 0.044000 -0.230521
v -0.005500 0.044000 -0.230521
v -0.011000 0.044000 -0.240048
v -0.005500 0.044000 -0.249574
v 0.005500 0.044000 -0.249574
v -0.062434 0.046000 0.055828
v -0.274687 0.046000 -0.035218
v -0.261709 0.046000 -0.075162
v -0.036476 0.046000 -0.024061
v -0.038639 0.086000 -0.017403
v -0.224902 0.086000 -0.058998
v -0.235409 0.086000 -0.026662
v -0.060271 0.086000 0.049171
v -0.235331 0.007615 -0.064489
v -0.228089 0.026000 -0.062136
v -0.235331 0.044385 -0.064489
v -0.252816 0.052000 -0.070170
v -0.270301 0.044385 -0.075851
v -0.277544 0.026000 -0.078205
v -0.270301 0.007615 -0.075851
v -0.252816 0.000000 -0.070170
v -0.264559 0.000000 -0.034030
v -0.282044 0.007615 -0.039711
v -0.289286 0.026000 -0.042064
v -0.282044 0.044385 -0.039711
v -0.264559 0.052000 -0.034030
v -0.247074 0.044385 -0.028349
v -0.239831 0.026000 -0.025996
v -0.247074 0.007615 -0.028349
v -0.253187 0.074000 -0.061626
v -0.264187 0.074000 -0.061626
v -0.269687 0.074000 -0.052100
v -0.264187 0.074000 -0.042574
v -0.253187 0.074000 -0.042574
v -0.247687 0.074000 -0.052100
v -0.247687 0.044000 -0.052100
v -0.253187 0.044000 -0.042574
v -0.264187 0.044000 -0.042574
v -0.269687 0.044000 -0.052100
v -0.264187 0.044000 -0.061626
v -0.253187 0.044000 -0.061626
v 0.003414 0.046000 0.098708
v -0.148766 0.046000 0.272439
v -0.182745 0.046000 0.247752
v -0.064544 0.046000 0.049334
v -0.058880 0.086000 0.053449
v -0.155997 0.086000 0.217742
v -0.128491 0.086000 0.237727
v -0.002249 0.086000 0.094594
v -0.164443 0.007615 0.225964
v -0.159966 0.026000 0.219803
v -0.164443 0.044385 0.225964
v -0.175249 0.052000 0.240837
v -0.186055 0.044385 0.255711
v -0.190531 0.026000 0.261872
v -0.186055 0.007615 0.255711
v -0.175249 0.000000 0.240837
v -0.144506 0.000000 0.263173
v -0.155313 0.007615 0.278047
v -0.159789 0.026000 0.284207
v -0.155313 0.044385 0.278047
v -0.144506 0.052000 0.263173
v -0.133700 0.044385 0.248299
v -0.129224 0.026000 0.242139
v -0.133700 0.007615 0.248299
v -0.154378 0.074000 0.242479
v -0.165378 0.074000 0.242479
v -0.170878 0.074000 0.252005
v -0.165378 0.074000 0.261531
v -0.154378 0.074000 0.261531
v -0.148878 0.074000 0.252005
v -0.148878 0.044000 0.252005
v -0.154378 0.044000 0.261531
v -0.165378 0.044000 0.261531
v -0.170878 0.044000 0.252005
v -0.165378 0.044000 0.242479
v -0.154378 0.044000 0.242479
v 0.064544 0.046000 0.049334
v 0.182745 0.046000 0.247752
v 0.148766 0.046000 0.272439
v -0.003414 0.046000 0.098708
v 0.002249 0.086000 0.094594
v 0.128491 0.086000 0.237727
v 0.155997 0.086000 0.217742
v 0.058880 0.086000 0.053449
v 0.133700 0.007615 0.248299
v 0.129224 0.026000 0.242139
v 0.133700 0.044385 0.248299
v 0.144506 0.052000 0.263173
v 0.155313 0.044385 0.278047
v 0.159789 0.026000 0.284207
v 0.155313 0.007615 0.278047
v 0.144506 0.000000 0.263173
v 0.175249 0.000000 0.240837
v 0.186055 0.007615 0.255711
v 0.190531 0.026000 0.261872
v 0.186055 0.044385 0.255711
v 0.175249 0.052000 0.240837
v 0.164443 0.044385 0.225964
v 0.159966 0.026000 0.219803
v 0.164443 0.007615 0.225964
v 0.165378 0.074000 0.242479
v 0.154378 0.074000 0.242479
v 0.148878 0.074000 0.252005
v 0.154378 0.074000 0.261531
v 0.165378 0.074000 0.261531
v 0.170878 0.074000 0.252005
v 0.170878 0.044000 0.252005
v 0.165378 0.044000 0.261531
v 0.154378 0.044000 0.261531
v 0.148878 0.044000 0.252005
v 0.154378 0.044000 0.242479
v 0.165378 0.044000 0.242479
v 0.036476 0.046000 -0.024061
v 0.261709 0.046000 -0.075162
v 0.274687 0.046000 -0.035218
v 0.062434 0.046000 0.055828
v 0.060271 0.086000 0.049171
v 0.235409 0.086000 -0.026662
v 0.224902 0.086000 -0.058998
v 0.038639 0.086000 -0.017403
v 0.247074 0.007615 -0.028349
v 0.239831 0.026000 -0.025996
v 0.247074 0.044385 -0.028349
v 0.264559 0.052000 -0.034030
v 0.282044 0.044385 -0.039711
v 0.289286 0.026000 -0.042064
v 0.282044 0.007615 -0.039711
v 0.264559 0.000000 -0.034030
v 0.252816 0.000000 -0.070170
v 0.270301 0.007615 -0.075851
v 0.277544 0.026000 -0.078205
v 0.270301 0.044385 -0.075851
v 0.252816 0.052000 -0.070170
v 0.235331 0.044385 -0.064489
v 0.228089 0.026000 -0.062136
v 0.235331 0.007615 -0.064489
v 0.264187 0.074000 -0.061626
v 0.253187 0.074000 -0.061626
v 0.247687 0.074000 -0.052100
v 0.253187 0.074000 -0.042574
v 0.264187 0.074000 -0.042574
v 0.269687 0.074000 -0.052100
v 0.269687 0.044000 -0.052100
v 0.264187 0.044000 -0.042574
v 0.253187 0.044000 -0.042574
v 0.247687 0.044000 -0.052100
v 0.253187 0.044000 -0.061626
v 0.264187 0.044000 -0.061626
v 0.053694 0.046000 0.062953
v 0.031000 0.046000 0.085646
v -0.000000 0.046000 0.093952
v -0.031000 0.046000 0.085646
v -0.053694 0.046000 0.062953
v -0.062000 0.046000 0.031953
v -0.053694 0.046000 0.000953
v -0.031000 0.046000 -0.021741
v 0.000000 0.046000 -0.030047
v 0.031000 0.046000 -0.021741
v 0.053694 0.046000 0.000953
v 0.062000 0.046000 0.031953
v 0.032000 0.396000 0.031953
v 0.027713 0.396000 0.015952
v 0.016000 0.396000 0.004240
v 0.000000 0.396000 -0.000048
v -0.016000 0.396000 0.004240
v -0.027713 0.396000 0.015952
v -0.032000 0.396000 0.031953
v -0.027713 0.396000 0.047953
v -0.016000 0.396000 0.059665
v -0.000000 0.396000 0.063953
v 0.016000 0.396000 0.059665
v 0.027713 0.396000 0.047953
v 0.053694 0.066000 0.000953
v 0.062000 0.066000 0.031953
v 0.031000 0.066000 -0.021741
v 0.000000 0.066000 -0.030047
v -0.031000 0.066000 -0.021741
v -0.053694 0.066000 0.000953
v -0.062000 0.066000 0.031953
v -0.053694 0.066000 0.062953
v -0.031000 0.066000 0.085646
v -0.000000 0.066000 0.093952
v 0.031000 0.066000 0.085646
v 0.053694 0.066000 0.062953
v 0.041569 0.066000 0.007953
v 0.048000 0.066000 0.031953
v 0.024000 0.066000 -0.009617
v 0.000000 0.066000 -0.016048
v -0.024000 0.066000 -0.009617
v -0.041569 0.066000 0.007953
v -0.048000 0.066000 0.031953
v -0.041569 0.066000 0.055953
v -0.024000 0.066000 0.073522
v -0.000000 0.066000 0.079953
v 0.024000 0.066000 0.073522
v 0.041569 0.066000 0.055953
v 0.038971 0.300000 0.009452
v 0.045000 0.300000 0.031953
v 0.022500 0.300000 -0.007019
v 0.000000 0.300000 -0.013048
v -0.022500 0.300000 -0.007019
v -0.038971 0.300000 0.009452
v -0.045000 0.300000 0.031953
v -0.038971 0.300000 0.054453
v -0.022500 0.300000 0.070924
v -0.000000 0.300000 0.076953
v 0.022500 0.300000 0.070924
v 0.038971 0.300000 0.054453
v 0.027713 0.318000 0.015952
v 0.032000 0.318000 0.031953
v 0.016000 0.318000 0.004240
v 0.000000 0.318000 -0.000048
v -0.016000 0.318000 0.004240
v -0.027713 0.318000 0.015952
v -0.032000 0.318000 0.031953
v -0.027713 0.318000 0.047953
v -0.016000 0.318000 0.059665
v -0.000000 0.318000 0.063953
v 0.016000 0.318000 0.059665
v 0.027713 0.318000 0.047953
v -0.164803 0.388000 0.264921
v -0.198733 0.388000 0.255830
v -0.223572 0.388000 0.230991
v -0.232663 0.388000 0.197061
v -0.232663 0.388000 -0.113156
v -0.223572 0.388000 -0.147086
v -0.198733 0.388000 -0.171925
v -0.164803 0.388000 -0.181016
v 0.164803 0.388000 -0.181016
v 0.198733 0.388000 -0.171925
v 0.223572 0.388000 -0.147086
v 0.232663 0.388000 -0.113156
v 0.232663 0.388000 0.197061
v 0.223572 0.388000 0.230991
v 0.198733 0.388000 0.255830
v 0.164803 0.388000 0.264921
v 0.205000 0.397000 0.262574
v 0.170000 0.397000 0.271953
v 0.230622 0.397000 0.236952
v 0.240000 0.397000 0.201953
v 0.240000 0.397000 -0.118048
v 0.230622 0.397000 -0.153048
v 0.205000 0.397000 -0.178669
v 0.170000 0.397000 -0.188047
v -0.170000 0.397000 -0.188047
v -0.205000 0.397000 -0.178669
v -0.230622 0.397000 -0.153048
v -0.240000 0.397000 -0.118048
v -0.240000 0.397000 0.201953
v -0.230622 0.397000 0.236952
v -0.205000 0.397000 0.262574
v -0.170000 0.397000 0.271953
v 0.205000 0.436000 0.262574
v 0.170000 0.436000 0.271953
v 0.230622 0.436000 0.236952
v 0.240000 0.436000 0.201953
v 0.240000 0.436000 -0.118048
v 0.230622 0.436000 -0.153048
v 0.205000 0.436000 -0.178669
v 0.170000 0.436000 -0.188047
v -0.170000 0.436000 -0.188047
v -0.205000 0.436000 -0.178669
v -0.230622 0.436000 -0.153048
v -0.240000 0.436000 -0.118048
v -0.240000 0.436000 0.201953
v -0.230622 0.436000 0.236952
v -0.205000 0.436000 0.262574
v -0.170000 0.436000 0.271953
v 0.157066 0.450000 0.254453
v 0.189403 0.450000 0.245788
v 0.213075 0.450000 0.222116
v 0.221740 0.450000 0.189779
v 0.221740 0.450000 -0.105874
v 0.213075 0.450000 -0.138211
v 0.189403 0.450000 -0.161883
v 0.157066 0.450000 -0.170548
v -0.157066 0.450000 -0.170548
v -0.189403 0.450000 -0.161883
v -0.213075 0.450000 -0.138211
v -0.221740 0.450000 -0.105874
v -0.221740 0.450000 0.189779
v -0.213075 0.450000 0.222116
v -0.189403 0.450000 0.245788
v -0.157066 0.450000 0.254453
v -0.212000 0.470000 -0.170048
v -0.159000 0.470000 -0.183172
v -0.106000 0.470000 -0.192548
v -0.053000 0.470000 -0.198172
v 0.000000 0.470000 -0.200047
v 0.053000 0.470000 -0.198172
v 0.106000 0.470000 -0.192548
v 0.159000 0.470000 -0.183172
v 0.212000 0.470000 -0.170048
v 0.212000 0.470000 -0.118048
v 0.159000 0.470000 -0.131172
v 0.106000 0.470000 -0.140547
v 0.053000 0.470000 -0.146172
v 0.000000 0.470000 -0.148048
v -0.053000 0.470000 -0.146172
v -0.106000 0.470000 -0.140547
v -0.159000 0.470000 -0.131172
v -0.212000 0.470000 -0.118048
v -0.147000 0.914000 -0.217957
v -0.196000 0.914000 -0.202208
v -0.098000 0.914000 -0.229207
v -0.049000 0.914000 -0.235958
v 0.000000 0.914000 -0.238207
v 0.049000 0.914000 -0.235958
v 0.098000 0.914000 -0.229207
v 0.147000 0.914000 -0.217957
v 0.196000 0.914000 -0.202208
v 0.196000 0.914000 -0.248208
v 0.147000 0.914000 -0.263958
v 0.098000 0.914000 -0.275207
v 0.049000 0.914000 -0.281958
v 0.000000 0.914000 -0.284207
v -0.049000 0.914000 -0.281958
v -0.098000 0.914000 -0.275207
v -0.147000 0.914000 -0.263958
v -0.196000 0.914000 -0.248208
v -0.172024 0.930000 -0.207590
v -0.129018 0.930000 -0.221413
v -0.086012 0.930000 -0.231287
v -0.043006 0.930000 -0.237211
v 0.000000 0.930000 -0.239186
v 0.043006 0.930000 -0.237211
v 0.086012 0.930000 -0.231287
v 0.129018 0.930000 -0.221413
v 0.172024 0.930000 -0.207590
v 0.172024 0.930000 -0.247963
v 0.129018 0.930000 -0.261786
v 0.086012 0.930000 -0.271660
v 0.043006 0.930000 -0.277584
v 0.000000 0.930000 -0.279559
v -0.043006 0.930000 -0.277584
v -0.086012 0.930000 -0.271660
v -0.129018 0.930000 -0.261786
v -0.172024 0.930000 -0.247963
v 0.018385 0.426251 -0.120260
v -0.000000 0.433811 -0.121176
v -0.018385 0.426251 -0.120260
v -0.026000 0.408000 -0.118048
v -0.018385 0.389749 -0.115835
v 0.000000 0.382189 -0.114919
v 0.018385 0.389749 -0.115835
v 0.026000 0.408000 -0.118048
v -0.021000 0.500000 -0.178047
v -0.014849 0.499111 -0.163225
v -0.000000 0.498742 -0.157085
v 0.014849 0.499111 -0.163225
v 0.021000 0.500000 -0.178047
v 0.014849 0.500889 -0.192870
v 0.000000 0.501258 -0.199010
v -0.014849 0.500889 -0.192870
v 0.016617 0.390923 -0.197966
v 0.023500 0.400000 -0.184048
v 0.000000 0.387163 -0.203731
v -0.016617 0.390923 -0.197966
v -0.023500 0.400000 -0.184048
v -0.016617 0.409077 -0.170129
v -0.000000 0.412837 -0.164364
v 0.016617 0.409077 -0.170129
v -0.225096 0.404489 -0.088265
v -0.216221 0.404489 -0.074952
v -0.223125 0.402000 -0.060735
v -0.238904 0.399512 -0.059830
v -0.247779 0.399512 -0.073143
v -0.240875 0.402000 -0.087360
v -0.263998 0.634000 0.128228
v -0.255991 0.620152 0.128568
v -0.239993 0.620152 0.128292
v -0.232002 0.634000 0.127677
v -0.240009 0.647848 0.127337
v -0.256007 0.647848 0.127613
v -0.266479 0.555017 -0.047031
v -0.271661 0.560000 -0.061325
v -0.250818 0.555017 -0.043753
v -0.240339 0.560000 -0.054770
v -0.245521 0.564983 -0.069064
v -0.261182 0.564983 -0.072342
v -0.257773 0.617123 0.017410
v -0.265985 0.630000 0.012640
v -0.241787 0.617123 0.016722
v -0.234015 0.630000 0.011265
v -0.242227 0.642877 0.006495
v -0.258213 0.642877 0.007183
v -0.254693 0.634000 0.152528
v -0.268925 0.634000 0.148715
v -0.279344 0.634000 0.138296
v -0.283158 0.634000 0.124063
v -0.283158 0.634000 -0.020158
v -0.279344 0.634000 -0.034391
v -0.268925 0.634000 -0.044810
v -0.254693 0.634000 -0.048623
v -0.243307 0.634000 -0.048623
v -0.229075 0.634000 -0.044810
v -0.218656 0.634000 -0.034391
v -0.214842 0.634000 -0.020158
v -0.214842 0.634000 0.124063
v -0.218656 0.634000 0.138296
v -0.229075 0.634000 0.148715
v -0.243307 0.634000 0.152528
v -0.228000 0.639000 0.153933
v -0.243000 0.639000 0.157953
v -0.217019 0.639000 0.142953
v -0.213000 0.639000 0.127953
v -0.213000 0.639000 -0.024048
v -0.217019 0.639000 -0.039048
v -0.228000 0.639000 -0.050028
v -0.243000 0.639000 -0.054048
v -0.255000 0.639000 -0.054048
v -0.270000 0.639000 -0.050028
v -0.280981 0.639000 -0.039048
v -0.285000 0.639000 -0.024048
v -0.285000 0.639000 0.127953
v -0.280981 0.639000 0.142953
v -0.270000 0.639000 0.153933
v -0.255000 0.639000 0.157953
v -0.228000 0.652000 0.153933
v -0.243000 0.652000 0.157953
v -0.217019 0.652000 0.142953
v -0.213000 0.652000 0.127953
v -0.213000 0.652000 -0.024048
v -0.217019 0.652000 -0.039048
v -0.228000 0.652000 -0.050028
v -0.243000 0.652000 -0.054048
v -0.255000 0.652000 -0.054048
v -0.270000 0.652000 -0.050028
v -0.280981 0.652000 -0.039048
v -0.285000 0.652000 -0.024048
v -0.285000 0.652000 0.127953
v -0.280981 0.652000 0.142953
v -0.270000 0.652000 0.153933
v -0.255000 0.652000 0.157953
v -0.243786 0.660000 0.144067
v -0.230751 0.660000 0.140574
v -0.221209 0.660000 0.131032
v -0.217716 0.660000 0.117997
v -0.217716 0.660000 -0.014092
v -0.221209 0.660000 -0.027127
v -0.230751 0.660000 -0.036669
v -0.243786 0.660000 -0.040162
v -0.254214 0.660000 -0.040162
v -0.267249 0.660000 -0.036669
v -0.276791 0.660000 -0.027127
v -0.280284 0.660000 -0.014092
v -0.280284 0.660000 0.117997
v -0.276791 0.660000 0.131032
v -0.267249 0.660000 0.140574
v -0.254214 0.660000 0.144067
v 0.216221 0.404489 -0.074952
v 0.225096 0.404489 -0.088265
v 0.240875 0.402000 -0.087360
v 0.247779 0.399512 -0.073143
v 0.238904 0.399512 -0.059830
v 0.223125 0.402000 -0.060735
v 0.232002 0.634000 0.127677
v 0.239993 0.620152 0.128292
v 0.255991 0.620152 0.128568
v 0.263998 0.634000 0.128228
v 0.256007 0.647848 0.127613
v 0.240009 0.647848 0.127337
v 0.250818 0.555017 -0.043753
v 0.240339 0.560000 -0.054770
v 0.266479 0.555017 -0.047031
v 0.271661 0.560000 -0.061325
v 0.261182 0.564983 -0.072342
v 0.245521 0.564983 -0.069064
v 0.241787 0.617123 0.016722
v 0.234015 0.630000 0.011265
v 0.257773 0.617123 0.017410
v 0.265985 0.630000 0.012640
v 0.258213 0.642877 0.007183
v 0.242227 0.642877 0.006495
v 0.243307 0.634000 0.152528
v 0.229075 0.634000 0.148715
v 0.218656 0.634000 0.138296
v 0.214842 0.634000 0.124063
v 0.214842 0.634000 -0.020158
v 0.218656 0.634000 -0.034391
v 0.229075 0.634000 -0.044810
v 0.243307 0.634000 -0.048623
v 0.254693 0.634000 -0.048623
v 0.268925 0.634000 -0.044810
v 0.279344 0.634000 -0.034391
v 0.283158 0.634000 -0.020158
v 0.283158 0.634000 0.124063
v 0.279344 0.634000 0.138296
v 0.268925 0.634000 0.148715
v 0.254693 0.634000 0.152528
v 0.270000 0.639000 0.153933
v 0.255000 0.639000 0.157953
v 0.280981 0.639000 0.142953
v 0.285000 0.639000 0.127953
v 0.285000 0.639000 -0.024048
v 0.280981 0.639000 -0.039048
v 0.270000 0.639000 -0.050028
v 0.255000 0.639000 -0.054048
v 0.243000 0.639000 -0.054048
v 0.228000 0.639000 -0.050028
v 0.217019 0.639000 -0.039048
v 0.213000 0.639000 -0.024048
v 0.213000 0.639000 0.127953
v 0.217019 0.639000 0.142953
v 0.228000 0.639000 0.153933
v 0.243000 0.639000 0.157953
v 0.270000 0.652000 0.153933
v 0.255000 0.652000 0.157953
v 0.280981 0.652000 0.142953
v 0.285000 0.652000 0.127953
v 0.285000 0.652000 -0.024048
v 0.280981 0.652000 -0.039048
v 0.270000 0.652000 -0.050028
v 0.255000 0.652000 -0.054048
v 0.243000 0.652000 -0.054048
v 0.228000 0.652000 -0.050028
v 0.217019 0.652000 -0.039048
v 0.213000 0.652000 -0.024048
v 0.213000 0.652000 0.127953
v 0.217019 0.652000 0.142953
v 0.228000 0.652000 0.153933
v 0.243000 0.652000 0.157953
v 0.254214 0.660000 0.144067
v 0.267249 0.660000 0.140574
v 0.276791 0.660000 0.131032
v 0.280284 0.660000 0.117997
v 0.280284 0.660000 -0.014092
v 0.276791 0.660000 -0.027127
v 0.267249 0.660000 -0.036669
v 0.254214 0.660000 -0.040162
v 0.243786 0.660000 -0.040162
v 0.230751 0.660000 -0.036669
v 0.221209 0.660000 -0.027127
v 0.217716 0.660000 -0.014092
v 0.217716 0.660000 0.117997
v 0.221209 0.660000 0.131032
v 0.230751 0.660000 0.140574
v 0.243786 0.660000 0.144067
vn -0.0000 -1.0000 -0.0000
vn -0.0000 1.0000 -0.0000
vn 0.9794 0.1801 -0.0909
vn -0.0000 0.7071 -0.7071
vn -0.9794 0.1801 -0.0909
vn -0.0000 -0.0000 1.0000
vn -1.0000 -0.0000 -0.0000
vn 1.0000 -0.0000 -0.0000
vn -0.0000 0.9239 0.3827
vn -0.0000 0.3827 0.9239
vn -0.0000 -0.3827 0.9239
vn -0.0000 -0.9239 0.3827
vn -0.0000 -0.9239 -0.3827
vn -0.0000 -0.3827 -0.9239
vn -0.0000 0.3827 -0.9239
vn -0.0000 0.9239 -0.3827
vn 0.8660 -0.0000 0.5000
vn -0.8660 -0.0000 0.5000
vn -0.8660 -0.0000 -0.5000
vn -0.0000 -0.0000 -1.0000
vn 0.8660 -0.0000 -0.5000
vn 0.2162 0.1801 -0.9596
vn -0.6725 0.7071 -0.2185
vn -0.3892 0.1801 0.9034
vn 0.9511 -0.0000 0.3090
vn -0.3090 -0.0000 0.9511
vn 0.3090 -0.0000 -0.9511
vn 0.3640 0.9239 0.1183
vn 0.8787 0.3827 0.2855
vn 0.8787 -0.3827 0.2855
vn 0.3640 -0.9239 0.1183
vn -0.3640 -0.9239 -0.1183
vn -0.8787 -0.3827 -0.2855
vn -0.8787 0.3827 -0.2855
vn -0.3640 0.9239 -0.1183
vn -0.8458 0.1801 -0.5021
vn -0.4156 0.7071 0.5721
vn 0.7389 0.1801 0.6493
vn 0.5878 -0.0000 -0.8090
vn 0.8090 -0.0000 0.5878
vn -0.8090 -0.0000 -0.5878
vn 0.2249 0.9239 -0.3096
vn 0.5430 0.3827 -0.7474
vn 0.5430 -0.3827 -0.7474
vn 0.2249 -0.9239 -0.3096
vn -0.2249 -0.9239 0.3096
vn -0.5430 -0.3827 0.7474
vn -0.5430 0.3827 0.7474
vn -0.2249 0.9239 0.3096
vn -0.7389 0.1801 0.6493
vn 0.4156 0.7071 0.5721
vn 0.8458 0.1801 -0.5021
vn -0.5878 -0.0000 -0.8090
vn 0.8090 -0.0000 -0.5878
vn -0.8090 -0.0000 0.5878
vn -0.2249 0.9239 -0.3096
vn -0.5430 0.3827 -0.7474
vn -0.5430 -0.3827 -0.7474
vn -0.2249 -0.9239 -0.3096
vn 0.2249 -0.9239 0.3096
vn 0.5430 -0.3827 0.7474
vn 0.5430 0.3827 0.7474
vn 0.2249 0.9239 0.3096
vn 0.3892 0.1801 0.9034
vn 0.6725 0.7071 -0.2185
vn -0.2162 0.1801 -0.9596
vn -0.9511 -0.0000 0.3090
vn -0.3090 -0.0000 -0.9511
vn 0.3090 -0.0000 0.9511
vn -0.3640 0.9239 0.1183
vn -0.8787 0.3827 0.2855
vn -0.8787 -0.3827 0.2855
vn -0.3640 -0.9239 0.1183
vn 0.3640 -0.9239 -0.1183
vn 0.8787 -0.3827 -0.2855
vn 0.8787 0.3827 -0.2855
vn 0.3640 0.9239 -0.1183
vn 0.9659 -0.0000 -0.2588
vn 0.7071 -0.0000 -0.7071
vn 0.2588 -0.0000 -0.9659
vn -0.2588 -0.0000 -0.9659
vn -0.7071 -0.0000 -0.7071
vn -0.9659 -0.0000 -0.2588
vn -0.9659 -0.0000 0.2588
vn -0.7071 -0.0000 0.7071
vn -0.2588 -0.0000 0.9659
vn 0.2588 -0.0000 0.9659
vn 0.7071 -0.0000 0.7071
vn 0.9659 -0.0000 0.2588
vn 0.9659 0.0124 -0.2588
vn 0.7071 0.0124 -0.7071
vn 0.2588 0.0124 -0.9659
vn -0.2588 0.0124 -0.9659
vn -0.7071 0.0124 -0.7071
vn -0.9659 0.0124 -0.2588
vn -0.9659 0.0124 0.2588
vn -0.7071 0.0124 0.7071
vn -0.2588 0.0124 0.9659
vn 0.2588 0.0124 0.9659
vn 0.7071 0.0124 0.7071
vn 0.9659 0.0124 0.2588
vn 0.7922 0.5721 -0.2123
vn 0.5799 0.5721 -0.5799
vn 0.2123 0.5721 -0.7922
vn -0.2123 0.5721 -0.7922
vn -0.5799 0.5721 -0.5799
vn -0.7922 0.5721 -0.2123
vn -0.7922 0.5721 0.2123
vn -0.5799 0.5721 0.5799
vn -0.2123 0.5721 0.7922
vn 0.2123 0.5721 0.7922
vn 0.5799 0.5721 0.5799
vn 0.7922 0.5721 0.2123
vn 0.1920 -0.6706 0.7165
vn 0.4945 -0.7148 0.4945
vn 0.7080 -0.6803 0.1897
vn 0.7751 -0.6319 -0.0000
vn 0.7080 -0.6803 -0.1897
vn 0.4945 -0.7148 -0.4945
vn 0.1920 -0.6706 -0.7165
vn -0.0000 -0.6156 -0.7880
vn -0.1920 -0.6706 -0.7165
vn -0.4945 -0.7148 -0.4945
vn -0.7080 -0.6803 -0.1897
vn -0.7751 -0.6319 -0.0000
vn -0.7080 -0.6803 0.1897
vn -0.4945 -0.7148 0.4945
vn -0.1920 -0.6706 0.7165
vn -0.0000 -0.6156 0.7880
vn 0.1472 0.8226 0.5493
vn 0.3688 0.8532 0.3688
vn 0.5395 0.8295 0.1446
vn 0.6084 0.7936 -0.0000
vn 0.5395 0.8295 -0.1446
vn 0.3688 0.8532 -0.3688
vn 0.1472 0.8226 -0.5493
vn -0.0000 0.7809 -0.6247
vn -0.1472 0.8226 -0.5493
vn -0.3688 0.8532 -0.3688
vn -0.5395 0.8295 -0.1446
vn -0.6084 0.7936 -0.0000
vn -0.5395 0.8295 0.1446
vn -0.3688 0.8532 0.3688
vn -0.1472 0.8226 0.5493
vn -0.0000 0.7809 0.6247
vn 0.2682 0.1739 0.9475
vn 0.1947 0.1859 0.9631
vn 0.1181 0.1941 0.9738
vn 0.0396 0.1983 0.9793
vn -0.0396 0.1983 0.9793
vn -0.1182 0.1941 0.9738
vn -0.1947 0.1859 0.9631
vn -0.2682 0.1739 0.9475
vn 0.9994 0.0360 -0.0000
vn 0.2688 -0.1615 -0.9496
vn 0.1952 -0.1733 -0.9653
vn 0.1184 -0.1814 -0.9763
vn 0.0397 -0.1855 -0.9818
vn -0.0397 -0.1855 -0.9818
vn -0.1184 -0.1814 -0.9763
vn -0.1952 -0.1733 -0.9653
vn -0.2688 -0.1615 -0.9496
vn -0.9994 0.0360 -0.0000
vn 0.3031 -0.1370 0.9431
vn 0.2236 -0.0409 0.9738
vn 0.1364 0.0265 0.9903
vn 0.0458 0.0610 0.9971
vn -0.0458 0.0610 0.9971
vn -0.1364 0.0265 0.9903
vn -0.2236 -0.0409 0.9738
vn -0.3031 -0.1370 0.9431
vn 0.5551 0.8318 -0.0000
vn 0.2766 0.4277 -0.8606
vn 0.2089 0.3583 -0.9099
vn 0.1299 0.3064 -0.9430
vn 0.0441 0.2787 -0.9594
vn -0.0441 0.2787 -0.9594
vn -0.1299 0.3064 -0.9430
vn -0.2089 0.3583 -0.9099
vn -0.2766 0.4277 -0.8606
vn -0.5551 0.8318 -0.0000
vn -0.0000 0.1203 0.9927
vn -0.0000 0.9982 0.0599
vn 0.8841 -0.4673 -0.0039
vn 0.3122 -0.9493 -0.0374
vn -0.3122 -0.9493 -0.0374
vn -0.8841 -0.4673 -0.0039
vn -0.8479 0.5107 -0.1422
vn -0.2385 0.8970 -0.3722
vn 0.2385 0.8970 -0.3722
vn 0.8479 0.5107 -0.1422
vn -0.5466 -0.0357 -0.8366
vn -0.6160 0.1945 -0.7634
vn 0.6160 0.1945 -0.7634
vn 0.5466 -0.0357 -0.8366
vn 0.0106 -0.0911 -0.9958
vn -0.6299 0.3333 0.7015
vn 0.6299 0.3333 0.7015
vn -0.0106 -0.0911 -0.9958
vn 0.1494 -0.9837 -0.0996
vn 0.0172 0.0345 0.9993
vn -0.9855 -0.1396 -0.0961
vn -0.5524 -0.1652 0.8170
vn 0.4191 -0.0249 0.9076
vn 0.9854 0.1403 0.0963
vn 0.5522 0.1680 -0.8166
vn -0.4205 0.0312 -0.9067
vn -0.8891 -0.2814 0.3610
vn -0.0580 -0.7038 0.7080
vn 0.7992 -0.4616 0.3850
vn 0.8892 0.2848 -0.3579
vn 0.0580 0.7031 -0.7087
vn -0.7994 0.4545 -0.3929
vn -0.8570 -0.5144 0.0302
vn 0.0008 -0.9996 0.0272
vn 0.8615 -0.5078 0.0013
vn 0.8573 0.5137 -0.0347
vn -0.0012 0.9992 -0.0412
vn -0.8617 0.5074 -0.0040
vn 0.1773 -0.7286 0.6616
vn 0.5282 -0.6648 0.5282
vn 0.8438 -0.4867 0.2261
vn 0.9383 -0.3457 -0.0000
vn 0.8438 -0.4867 -0.2261
vn 0.5282 -0.6648 -0.5282
vn 0.1773 -0.7286 -0.6616
vn -0.0000 -0.7353 -0.6778
vn -0.1773 -0.7286 -0.6616
vn -0.5282 -0.6648 -0.5282
vn -0.8438 -0.4867 -0.2261
vn -0.9383 -0.3457 -0.0000
vn -0.8438 -0.4867 0.2261
vn -0.5282 -0.6648 0.5282
vn -0.1773 -0.7286 0.6616
vn -0.0000 -0.7353 0.6778
vn 0.1311 0.8622 0.4893
vn 0.4064 0.8184 0.4064
vn 0.7210 0.6655 0.1932
vn 0.8615 0.5078 -0.0000
vn 0.7210 0.6655 -0.1932
vn 0.4064 0.8184 -0.4064
vn 0.1311 0.8622 -0.4893
vn -0.0000 0.8665 -0.4992
vn -0.1311 0.8622 -0.4893
vn -0.4064 0.8184 -0.4064
vn -0.7210 0.6655 -0.1932
vn -0.8615 0.5078 -0.0000
vn -0.7210 0.6655 0.1932
vn -0.4064 0.8184 0.4064
vn -0.1311 0.8622 0.4893
vn -0.0000 0.8665 0.4992
vn -0.1494 -0.9837 -0.0996
vn -0.0172 0.0345 0.9993
vn -0.4191 -0.0249 0.9076
vn 0.5524 -0.1652 0.8170
vn 0.9855 -0.1396 -0.0961
vn 0.4205 0.0312 -0.9067
vn -0.5522 0.1680 -0.8166
vn -0.9854 0.1403 0.0963
vn -0.7992 -0.4616 0.3850
vn 0.0580 -0.7038 0.7080
vn 0.8891 -0.2814 0.3610
vn 0.7994 0.4545 -0.3929
vn -0.0580 0.7031 -0.7087
vn -0.8892 0.2848 -0.3579
vn -0.8615 -0.5078 0.0013
vn -0.0008 -0.9996 0.0272
vn 0.8570 -0.5144 0.0302
vn 0.8617 0.5074 -0.0040
vn 0.0012 0.9992 -0.0412
vn -0.8573 0.5137 -0.0347
vt 0.312500 0.312500
vt 0.937500 0.187500
vt 0.062500 0.312500
vt 0.812500 0.312500
vt 0.937500 0.687500
vt 0.812500 0.687500
s 0
usemtl FN_Atlas
f 1/1/1 2/1/1 3/1/1 4/1/1
f 5/1/2 6/1/2 7/1/2 8/1/2
f 4/1/3 3/1/3 6/1/3 5/1/3
f 3/1/4 2/1/4 7/1/4 6/1/4
f 2/1/5 1/1/5 8/1/5 7/1/5
f 1/1/6 4/1/6 5/1/6 8/1/6
f 9/2/7 10/2/7 11/2/7 12/2/7 13/2/7 14/2/7 15/2/7 16/2/7
f 17/2/8 18/2/8 19/2/8 20/2/8 21/2/8 22/2/8 23/2/8 24/2/8
f 16/2/9 15/2/9 18/2/9 17/2/9
f 15/2/10 14/2/10 19/2/10 18/2/10
f 14/2/11 13/2/11 20/2/11 19/2/11
f 13/2/12 12/2/12 21/2/12 20/2/12
f 12/2/13 11/2/13 22/2/13 21/2/13
f 11/2/14 10/2/14 23/2/14 22/2/14
f 10/2/15 9/2/15 24/2/15 23/2/15
f 9/2/16 16/2/16 17/2/16 24/2/16
f 25/3/2 26/3/2 27/3/2 28/3/2 29/3/2 30/3/2
f 31/3/1 32/3/1 33/3/1 34/3/1 35/3/1 36/3/1
f 30/3/17 29/3/17 32/3/17 31/3/17
f 29/3/6 28/3/6 33/3/6 32/3/6
f 28/3/18 27/3/18 34/3/18 33/3/18
f 27/3/19 26/3/19 35/3/19 34/3/19
f 26/3/20 25/3/20 36/3/20 35/3/20
f 25/3/21 30/3/21 31/3/21 36/3/21
f 37/1/1 38/1/1 39/1/1 40/1/1
f 41/1/2 42/1/2 43/1/2 44/1/2
f 40/1/22 39/1/22 42/1/22 41/1/22
f 39/1/23 38/1/23 43/1/23 42/1/23
f 38/1/24 37/1/24 44/1/24 43/1/24
f 37/1/25 40/1/25 41/1/25 44/1/25
f 45/2/26 46/2/26 47/2/26 48/2/26 49/2/26 50/2/26 51/2/26 52/2/26
f 53/2/27 54/2/27 55/2/27 56/2/27 57/2/27 58/2/27 59/2/27 60/2/27
f 52/2/28 51/2/28 54/2/28 53/2/28
f 51/2/29 50/2/29 55/2/29 54/2/29
f 50/2/30 49/2/30 56/2/30 55/2/30
f 49/2/31 48/2/31 57/2/31 56/2/31
f 48/2/32 47/2/32 58/2/32 57/2/32
f 47/2/33 46/2/33 59/2/33 58/2/33
f 46/2/34 45/2/34 60/2/34 59/2/34
f 45/2/35 52/2/35 53/2/35 60/2/35
f 61/3/2 62/3/2 63/3/2 64/3/2 65/3/2 66/3/2
f 67/3/1 68/3/1 69/3/1 70/3/1 71/3/1 72/3/1
f 66/3/17 65/3/17 68/3/17 67/3/17
f 65/3/6 64/3/6 69/3/6 68/3/6
f 64/3/18 63/3/18 70/3/18 69/3/18
f 63/3/19 62/3/19 71/3/19 70/3/19
f 62/3/20 61/3/20 72/3/20 71/3/20
f 61/3/21 66/3/21 67/3/21 72/3/21
f 73/1/1 74/1/1 75/1/1 76/1/1
f 77/1/2 78/1/2 79/1/2 80/1/2
f 76/1/36 75/1/36 78/1/36 77/1/36
f 75/1/37 74/1/37 79/1/37 78/1/37
f 74/1/38 73/1/38 80/1/38 79/1/38
f 73/1/39 76/1/39 77/1/39 80/1/39
f 81/2/40 82/2/40 83/2/40 84/2/40 85/2/40 86/2/40 87/2/40 88/2/40
f 89/2/41 90/2/41 91/2/41 92/2/41 93/2/41 94/2/41 95/2/41 96/2/41
f 88/2/42 87/2/42 90/2/42 89/2/42
f 87/2/43 86/2/43 91/2/43 90/2/43
f 86/2/44 85/2/44 92/2/44 91/2/44
f 85/2/45 84/2/45 93/2/45 92/2/45
f 84/2/46 83/2/46 94/2/46 93/2/46
f 83/2/47 82/2/47 95/2/47 94/2/47
f 82/2/48 81/2/48 96/2/48 95/2/48
f 81/2/49 88/2/49 89/2/49 96/2/49
f 97/3/2 98/3/2 99/3/2 100/3/2 101/3/2 102/3/2
f 103/3/1 104/3/1 105/3/1 106/3/1 107/3/1 108/3/1
f 102/3/17 101/3/17 104/3/17 103/3/17
f 101/3/6 100/3/6 105/3/6 104/3/6
f 100/3/18 99/3/18 106/3/18 105/3/18
f 99/3/19 98/3/19 107/3/19 106/3/19
f 98/3/20 97/3/20 108/3/20 107/3/20
f 97/3/21 102/3/21 103/3/21 108/3/21
f 109/1/1 110/1/1 111/1/1 112/1/1
f 113/1/2 114/1/2 115/1/2 116/1/2
f 112/1/50 111/1/50 114/1/50 113/1/50
f 111/1/51 110/1/51 115/1/51 114/1/51
f 110/1/52 109/1/52 116/1/52 115/1/52
f 109/1/53 112/1/53 113/1/53 116/1/53
f 117/2/54 118/2/54 119/2/54 120/2/54 121/2/54 122/2/54 123/2/54 124/2/54
f 125/2/55 126/2/55 127/2/55 128/2/55 129/2/55 130/2/55 131/2/55 132/2/55
f 124/2/56 123/2/56 126/2/56 125/2/56
f 123/2/57 122/2/57 127/2/57 126/2/57
f 122/2/58 121/2/58 128/2/58 127/2/58
f 121/2/59 120/2/59 129/2/59 128/2/59
f 120/2/60 119/2/60 130/2/60 129/2/60
f 119/2/61 118/2/61 131/2/61 130/2/61
f 118/2/62 117/2/62 132/2/62 131/2/62
f 117/2/63 124/2/63 125/2/63 132/2/63
f 133/3/2 134/3/2 135/3/2 136/3/2 137/3/2 138/3/2
f 139/3/1 140/3/1 141/3/1 142/3/1 143/3/1 144/3/1
f 138/3/17 137/3/17 140/3/17 139/3/17
f 137/3/6 136/3/6 141/3/6 140/3/6
f 136/3/18 135/3/18 142/3/18 141/3/18
f 135/3/19 134/3/19 143/3/19 142/3/19
f 134/3/20 133/3/20 144/3/20 143/3/20
f 133/3/21 138/3/21 139/3/21 144/3/21
f 145/1/1 146/1/1 147/1/1 148/1/1
f 149/1/2 150/1/2 151/1/2 152/1/2
f 148/1/64 147/1/64 150/1/64 149/1/64
f 147/1/65 146/1/65 151/1/65 150/1/65
f 146/1/66 145/1/66 152/1/66 151/1/66
f 145/1/67 148/1/67 149/1/67 152/1/67
f 153/2/68 154/2/68 155/2/68 156/2/68 157/2/68 158/2/68 159/2/68 160/2/68
f 161/2/69 162/2/69 163/2/69 164/2/69 165/2/69 166/2/69 167/2/69 168/2/69
f 160/2/70 159/2/70 162/2/70 161/2/70
f 159/2/71 158/2/71 163/2/71 162/2/71
f 158/2/72 157/2/72 164/2/72 163/2/72
f 157/2/73 156/2/73 165/2/73 164/2/73
f 156/2/74 155/2/74 166/2/74 165/2/74
f 155/2/75 154/2/75 167/2/75 166/2/75
f 154/2/76 153/2/76 168/2/76 167/2/76
f 153/2/77 160/2/77 161/2/77 168/2/77
f 169/3/2 170/3/2 171/3/2 172/3/2 173/3/2 174/3/2
f 175/3/1 176/3/1 177/3/1 178/3/1 179/3/1 180/3/1
f 174/3/17 173/3/17 176/3/17 175/3/17
f 173/3/6 172/3/6 177/3/6 176/3/6
f 172/3/18 171/3/18 178/3/18 177/3/18
f 171/3/19 170/3/19 179/3/19 178/3/19
f 170/3/20 169/3/20 180/3/20 179/3/20
f 169/3/21 174/3/21 175/3/21 180/3/21
f 181/1/1 182/1/1 183/1/1 184/1/1 185/1/1 186/1/1 187/1/1 188/1/1 189/1/1 190/1/1 191/1/1 192/1/1
f 193/3/2 194/3/2 195/3/2 196/3/2 197/3/2 198/3/2 199/3/2 200/3/2 201/3/2 202/3/2 203/3/2 204/3/2
f 192/1/78 191/1/78 205/1/78 206/1/78
f 191/1/79 190/1/79 207/1/79 205/1/79
f 190/1/80 189/1/80 208/1/80 207/1/80
f 189/1/81 188/1/81 209/1/81 208/1/81
f 188/1/82 187/1/82 210/1/82 209/1/82
f 187/1/83 186/1/83 211/1/83 210/1/83
f 186/1/84 185/1/84 212/1/84 211/1/84
f 185/1/85 184/1/85 213/1/85 212/1/85
f 184/1/86 183/1/86 214/1/86 213/1/86
f 183/1/87 182/1/87 215/1/87 214/1/87
f 182/1/88 181/1/88 216/1/88 215/1/88
f 181/1/89 192/1/89 206/1/89 216/1/89
f 206/1/2 205/1/2 217/1/2 218/1/2
f 205/1/2 207/1/2 219/1/2 217/1/2
f 207/1/2 208/1/2 220/1/2 219/1/2
f 208/1/2 209/1/2 221/1/2 220/1/2
f 209/1/2 210/1/2 222/1/2 221/1/2
f 210/1/2 211/1/2 223/1/2 222/1/2
f 211/1/2 212/1/2 224/1/2 223/1/2
f 212/1/2 213/1/2 225/1/2 224/1/2
f 213/1/2 214/1/2 226/1/2 225/1/2
f 214/1/2 215/1/2 227/1/2 226/1/2
f 215/1/2 216/1/2 228/1/2 227/1/2
f 216/1/2 206/1/2 218/1/2 228/1/2
f 218/1/90 217/1/90 229/1/90 230/1/90
f 217/1/91 219/1/91 231/1/91 229/1/91
f 219/1/92 220/1/92 232/1/92 231/1/92
f 220/1/93 221/1/93 233/1/93 232/1/93
f 221/1/94 222/1/94 234/1/94 233/1/94
f 222/1/95 223/1/95 235/1/95 234/1/95
f 223/1/96 224/1/96 236/1/96 235/1/96
f 224/1/97 225/1/97 237/1/97 236/1/97
f 225/1/98 226/1/98 238/1/98 237/1/98
f 226/1/99 227/1/99 239/1/99 238/1/99
f 227/1/100 228/1/100 240/1/100 239/1/100
f 228/1/101 218/1/101 230/1/101 240/1/101
f 230/3/102 229/3/102 241/3/102 242/3/102
f 229/3/103 231/3/103 243/3/103 241/3/103
f 231/3/104 232/3/104 244/3/104 243/3/104
f 232/3/105 233/3/105 245/3/105 244/3/105
f 233/3/106 234/3/106 246/3/106 245/3/106
f 234/3/107 235/3/107 247/3/107 246/3/107
f 235/3/108 236/3/108 248/3/108 247/3/108
f 236/3/109 237/3/109 249/3/109 248/3/109
f 237/3/110 238/3/110 250/3/110 249/3/110
f 238/3/111 239/3/111 251/3/111 250/3/111
f 239/3/112 240/3/112 252/3/112 251/3/112
f 240/3/113 230/3/113 242/3/113 252/3/113
f 242/3/78 241/3/78 194/3/78 193/3/78
f 241/3/79 243/3/79 195/3/79 194/3/79
f 243/3/80 244/3/80 196/3/80 195/3/80
f 244/3/81 245/3/81 197/3/81 196/3/81
f 245/3/82 246/3/82 198/3/82 197/3/82
f 246/3/83 247/3/83 199/3/83 198/3/83
f 247/3/84 248/3/84 200/3/84 199/3/84
f 248/3/85 249/3/85 201/3/85 200/3/85
f 249/3/86 250/3/86 202/3/86 201/3/86
f 250/3/87 251/3/87 203/3/87 202/3/87
f 251/3/88 252/3/88 204/3/88 203/3/88
f 252/3/89 242/3/89 193/3/89 204/3/89
f 253/4/1 254/4/1 255/4/1 256/4/1 257/4/1 258/4/1 259/4/1 260/4/1 261/4/1 262/4/1 263/4/1 264/4/1 265/4/1 266/4/1 267/4/1 268/4/1
f 268/4/114 267/4/114 269/4/114 270/4/114
f 267/4/115 266/4/115 271/4/115 269/4/115
f 266/4/116 265/4/116 272/4/116 271/4/116
f 265/4/117 264/4/117 273/4/117 272/4/117
f 264/4/118 263/4/118 274/4/118 273/4/118
f 263/4/119 262/4/119 275/4/119 274/4/119
f 262/4/120 261/4/120 276/4/120 275/4/120
f 261/4/121 260/4/121 277/4/121 276/4/121
f 260/4/122 259/4/122 278/4/122 277/4/122
f 259/4/123 258/4/123 279/4/123 278/4/123
f 258/4/124 257/4/124 280/4/124 279/4/124
f 257/4/125 256/4/125 281/4/125 280/4/125
f 256/4/126 255/4/126 282/4/126 281/4/126
f 255/4/127 254/4/127 283/4/127 282/4/127
f 254/4/128 253/4/128 284/4/128 283/4/128
f 253/4/129 268/4/129 270/4/129 284/4/129
f 270/4/87 269/4/87 285/4/87 286/4/87
f 269/4/88 271/4/88 287/4/88 285/4/88
f 271/4/89 272/4/89 288/4/89 287/4/89
f 272/4/8 273/4/8 289/4/8 288/4/8
f 273/4/78 274/4/78 290/4/78 289/4/78
f 274/4/79 275/4/79 291/4/79 290/4/79
f 275/4/80 276/4/80 292/4/80 291/4/80
f 276/4/20 277/4/20 293/4/20 292/4/20
f 277/4/81 278/4/81 294/4/81 293/4/81
f 278/4/82 279/4/82 295/4/82 294/4/82
f 279/4/83 280/4/83 296/4/83 295/4/83
f 280/4/7 281/4/7 297/4/7 296/4/7
f 281/4/84 282/4/84 298/4/84 297/4/84
f 282/4/85 283/4/85 299/4/85 298/4/85
f 283/4/86 284/4/86 300/4/86 299/4/86
f 284/4/6 270/4/6 286/4/6 300/4/6
f 301/5/2 302/5/2 303/5/2 304/5/2 305/5/2 306/5/2 307/5/2 308/5/2 309/5/2 310/5/2 311/5/2 312/5/2 313/5/2 314/5/2 315/5/2 316/5/2
f 286/5/130 285/5/130 302/5/130 301/5/130
f 285/5/131 287/5/131 303/5/131 302/5/131
f 287/5/132 288/5/132 304/5/132 303/5/132
f 288/5/133 289/5/133 305/5/133 304/5/133
f 289/5/134 290/5/134 306/5/134 305/5/134
f 290/5/135 291/5/135 307/5/135 306/5/135
f 291/5/136 292/5/136 308/5/136 307/5/136
f 292/5/137 293/5/137 309/5/137 308/5/137
f 293/5/138 294/5/138 310/5/138 309/5/138
f 294/5/139 295/5/139 311/5/139 310/5/139
f 295/5/140 296/5/140 312/5/140 311/5/140
f 296/5/141 297/5/141 313/5/141 312/5/141
f 297/5/142 298/5/142 314/5/142 313/5/142
f 298/5/143 299/5/143 315/5/143 314/5/143
f 299/5/144 300/5/144 316/5/144 315/5/144
f 300/5/145 286/5/145 301/5/145 316/5/145
f 317/6/1 318/6/1 319/6/1 320/6/1 321/6/1 322/6/1 323/6/1 324/6/1 325/6/1 326/6/1 327/6/1 328/6/1 329/6/1 330/6/1 331/6/1 332/6/1 333/6/1 334/6/1
f 334/6/146 333/6/146 335/6/146 336/6/146
f 333/6/147 332/6/147 337/6/147 335/6/147
f 332/6/148 331/6/148 338/6/148 337/6/148
f 331/6/149 330/6/149 339/6/149 338/6/149
f 330/6/150 329/6/150 340/6/150 339/6/150
f 329/6/151 328/6/151 341/6/151 340/6/151
f 328/6/152 327/6/152 342/6/152 341/6/152
f 327/6/153 326/6/153 343/6/153 342/6/153
f 326/6/154 325/6/154 344/6/154 343/6/154
f 325/6/155 324/6/155 345/6/155 344/6/155
f 324/6/156 323/6/156 346/6/156 345/6/156
f 323/6/157 322/6/157 347/6/157 346/6/157
f 322/6/158 321/6/158 348/6/158 347/6/158
f 321/6/159 320/6/159 349/6/159 348/6/159
f 320/6/160 319/6/160 350/6/160 349/6/160
f 319/6/161 318/6/161 351/6/161 350/6/161
f 318/6/162 317/6/162 352/6/162 351/6/162
f 317/6/163 334/6/163 336/6/163 352/6/163
f 353/6/2 354/6/2 355/6/2 356/6/2 357/6/2 358/6/2 359/6/2 360/6/2 361/6/2 362/6/2 363/6/2 364/6/2 365/6/2 366/6/2 367/6/2 368/6/2 369/6/2 370/6/2
f 336/4/164 335/4/164 354/4/164 353/4/164
f 335/4/165 337/4/165 355/4/165 354/4/165
f 337/4/166 338/4/166 356/4/166 355/4/166
f 338/4/167 339/4/167 357/4/167 356/4/167
f 339/4/168 340/4/168 358/4/168 357/4/168
f 340/4/169 341/4/169 359/4/169 358/4/169
f 341/4/170 342/4/170 360/4/170 359/4/170
f 342/4/171 343/4/171 361/4/171 360/4/171
f 343/4/172 344/4/172 362/4/172 361/4/172
f 344/4/173 345/4/173 363/4/173 362/4/173
f 345/4/174 346/4/174 364/4/174 363/4/174
f 346/4/175 347/4/175 365/4/175 364/4/175
f 347/4/176 348/4/176 366/4/176 365/4/176
f 348/4/177 349/4/177 367/4/177 366/4/177
f 349/4/178 350/4/178 368/4/178 367/4/178
f 350/4/179 351/4/179 369/4/179 368/4/179
f 351/4/180 352/4/180 370/4/180 369/4/180
f 352/4/181 336/4/181 353/4/181 370/4/181
f 371/3/182 372/3/182 373/3/182 374/3/182 375/3/182 376/3/182 377/3/182 378/3/182
f 379/3/183 380/3/183 381/3/183 382/3/183 383/3/183 384/3/183 385/3/183 386/3/183
f 378/3/184 377/3/184 387/3/184 388/3/184
f 377/3/185 376/3/185 389/3/185 387/3/185
f 376/3/186 375/3/186 390/3/186 389/3/186
f 375/3/187 374/3/187 391/3/187 390/3/187
f 374/3/188 373/3/188 392/3/188 391/3/188
f 373/3/189 372/3/189 393/3/189 392/3/189
f 372/3/190 371/3/190 394/3/190 393/3/190
f 371/3/191 378/3/191 388/3/191 394/3/191
f 388/3/192 387/3/192 380/3/192 379/3/192
f 387/3/193 389/3/193 381/3/193 380/3/193
f 389/3/194 390/3/194 382/3/194 381/3/194
f 390/3/195 391/3/195 383/3/195 382/3/195
f 391/3/196 392/3/196 384/3/196 383/3/196
f 392/3/197 393/3/197 385/3/197 384/3/197
f 393/3/198 394/3/198 386/3/198 385/3/198
f 394/3/199 388/3/199 379/3/199 386/3/199
f 395/3/200 396/3/200 397/3/200 398/3/200 399/3/200 400/3/200
f 401/3/201 402/3/201 403/3/201 404/3/201 405/3/201 406/3/201
f 400/3/202 399/3/202 407/3/202 408/3/202
f 399/3/203 398/3/203 409/3/203 407/3/203
f 398/3/204 397/3/204 410/3/204 409/3/204
f 397/3/205 396/3/205 411/3/205 410/3/205
f 396/3/206 395/3/206 412/3/206 411/3/206
f 395/3/207 400/3/207 408/3/207 412/3/207
f 408/3/208 407/3/208 413/3/208 414/3/208
f 407/3/209 409/3/209 415/3/209 413/3/209
f 409/3/210 410/3/210 416/3/210 415/3/210
f 410/3/211 411/3/211 417/3/211 416/3/211
f 411/3/212 412/3/212 418/3/212 417/3/212
f 412/3/213 408/3/213 414/3/213 418/3/213
f 414/3/214 413/3/214 402/3/214 401/3/214
f 413/3/215 415/3/215 403/3/215 402/3/215
f 415/3/216 416/3/216 404/3/216 403/3/216
f 416/3/217 417/3/217 405/3/217 404/3/217
f 417/3/218 418/3/218 406/3/218 405/3/218
f 418/3/219 414/3/219 401/3/219 406/3/219
f 419/4/1 420/4/1 421/4/1 422/4/1 423/4/1 424/4/1 425/4/1 426/4/1 427/4/1 428/4/1 429/4/1 430/4/1 431/4/1 432/4/1 433/4/1 434/4/1
f 434/4/220 433/4/220 435/4/220 436/4/220
f 433/4/221 432/4/221 437/4/221 435/4/221
f 432/4/222 431/4/222 438/4/222 437/4/222
f 431/4/223 430/4/223 439/4/223 438/4/223
f 430/4/224 429/4/224 440/4/224 439/4/224
f 429/4/225 428/4/225 441/4/225 440/4/225
f 428/4/226 427/4/226 442/4/226 441/4/226
f 427/4/227 426/4/227 443/4/227 442/4/227
f 426/4/228 425/4/228 444/4/228 443/4/228
f 425/4/229 424/4/229 445/4/229 444/4/229
f 424/4/230 423/4/230 446/4/230 445/4/230
f 423/4/231 422/4/231 447/4/231 446/4/231
f 422/4/232 421/4/232 448/4/232 447/4/232
f 421/4/233 420/4/233 449/4/233 448/4/233
f 420/4/234 419/4/234 450/4/234 449/4/234
f 419/4/235 434/4/235 436/4/235 450/4/235
f 436/4/87 435/4/87 451/4/87 452/4/87
f 435/4/88 437/4/88 453/4/88 451/4/88
f 437/4/89 438/4/89 454/4/89 453/4/89
f 438/4/8 439/4/8 455/4/8 454/4/8
f 439/4/78 440/4/78 456/4/78 455/4/78
f 440/4/79 441/4/79 457/4/79 456/4/79
f 441/4/80 442/4/80 458/4/80 457/4/80
f 442/4/20 443/4/20 459/4/20 458/4/20
f 443/4/81 444/4/81 460/4/81 459/4/81
f 444/4/82 445/4/82 461/4/82 460/4/82
f 445/4/83 446/4/83 462/4/83 461/4/83
f 446/4/7 447/4/7 463/4/7 462/4/7
f 447/4/84 448/4/84 464/4/84 463/4/84
f 448/4/85 449/4/85 465/4/85 464/4/85
f 449/4/86 450/4/86 466/4/86 465/4/86
f 450/4/6 436/4/6 452/4/6 466/4/6
f 467/5/2 468/5/2 469/5/2 470/5/2 471/5/2 472/5/2 473/5/2 474/5/2 475/5/2 476/5/2 477/5/2 478/5/2 479/5/2 480/5/2 481/5/2 482/5/2
f 452/5/236 451/5/236 468/5/236 467/5/236
f 451/5/237 453/5/237 469/5/237 468/5/237
f 453/5/238 454/5/238 470/5/238 469/5/238
f 454/5/239 455/5/239 471/5/239 470/5/239
f 455/5/240 456/5/240 472/5/240 471/5/240
f 456/5/241 457/5/241 473/5/241 472/5/241
f 457/5/242 458/5/242 474/5/242 473/5/242
f 458/5/243 459/5/243 475/5/243 474/5/243
f 459/5/244 460/5/244 476/5/244 475/5/244
f 460/5/245 461/5/245 477/5/245 476/5/245
f 461/5/246 462/5/246 478/5/246 477/5/246
f 462/5/247 463/5/247 479/5/247 478/5/247
f 463/5/248 464/5/248 480/5/248 479/5/248
f 464/5/249 465/5/249 481/5/249 480/5/249
f 465/5/250 466/5/250 482/5/250 481/5/250
f 466/5/251 452/5/251 467/5/251 482/5/251
f 483/3/252 484/3/252 485/3/252 486/3/252 487/3/252 488/3/252
f 489/3/253 490/3/253 491/3/253 492/3/253 493/3/253 494/3/253
f 488/3/254 487/3/254 495/3/254 496/3/254
f 487/3/255 486/3/255 497/3/255 495/3/255
f 486/3/256 485/3/256 498/3/256 497/3/256
f 485/3/257 484/3/257 499/3/257 498/3/257
f 484/3/258 483/3/258 500/3/258 499/3/258
f 483/3/259 488/3/259 496/3/259 500/3/259
f 496/3/260 495/3/260 501/3/260 502/3/260
f 495/3/261 497/3/261 503/3/261 501/3/261
f 497/3/262 498/3/262 504/3/262 503/3/262
f 498/3/263 499/3/263 505/3/263 504/3/263
f 499/3/264 500/3/264 506/3/264 505/3/264
f 500/3/265 496/3/265 502/3/265 506/3/265
f 502/3/266 501/3/266 490/3/266 489/3/266
f 501/3/267 503/3/267 491/3/267 490/3/267
f 503/3/268 504/3/268 492/3/268 491/3/268
f 504/3/269 505/3/269 493/3/269 492/3/269
f 505/3/270 506/3/270 494/3/270 493/3/270
f 506/3/271 502/3/271 489/3/271 494/3/271
f 507/4/1 508/4/1 509/4/1 510/4/1 511/4/1 512/4/1 513/4/1 514/4/1 515/4/1 516/4/1 517/4/1 518/4/1 519/4/1 520/4/1 521/4/1 522/4/1
f 522/4/220 521/4/220 523/4/220 524/4/220
f 521/4/221 520/4/221 525/4/221 523/4/221
f 520/4/222 519/4/222 526/4/222 525/4/222
f 519/4/223 518/4/223 527/4/223 526/4/223
f 518/4/224 517/4/224 528/4/224 527/4/224
f 517/4/225 516/4/225 529/4/225 528/4/225
f 516/4/226 515/4/226 530/4/226 529/4/226
f 515/4/227 514/4/227 531/4/227 530/4/227
f 514/4/228 513/4/228 532/4/228 531/4/228
f 513/4/229 512/4/229 533/4/229 532/4/229
f 512/4/230 511/4/230 534/4/230 533/4/230
f 511/4/231 510/4/231 535/4/231 534/4/231
f 510/4/232 509/4/232 536/4/232 535/4/232
f 509/4/233 508/4/233 537/4/233 536/4/233
f 508/4/234 507/4/234 538/4/234 537/4/234
f 507/4/235 522/4/235 524/4/235 538/4/235
f 524/4/87 523/4/87 539/4/87 540/4/87
f 523/4/88 525/4/88 541/4/88 539/4/88
f 525/4/89 526/4/89 542/4/89 541/4/89
f 526/4/8 527/4/8 543/4/8 542/4/8
f 527/4/78 528/4/78 544/4/78 543/4/78
f 528/4/79 529/4/79 545/4/79 544/4/79
f 529/4/80 530/4/80 546/4/80 545/4/80
f 530/4/20 531/4/20 547/4/20 546/4/20
f 531/4/81 532/4/81 548/4/81 547/4/81
f 532/4/82 533/4/82 549/4/82 548/4/82
f 533/4/83 534/4/83 550/4/83 549/4/83
f 534/4/7 535/4/7 551/4/7 550/4/7
f 535/4/84 536/4/84 552/4/84 551/4/84
f 536/4/85 537/4/85 553/4/85 552/4/85
f 537/4/86 538/4/86 554/4/86 553/4/86
f 538/4/6 524/4/6 540/4/6 554/4/6
f 555/5/2 556/5/2 557/5/2 558/5/2 559/5/2 560/5/2 561/5/2 562/5/2 563/5/2 564/5/2 565/5/2 566/5/2 567/5/2 568/5/2 569/5/2 570/5/2
f 540/5/236 539/5/236 556/5/236 555/5/236
f 539/5/237 541/5/237 557/5/237 556/5/237
f 541/5/238 542/5/238 558/5/238 557/5/238
f 542/5/239 543/5/239 559/5/239 558/5/239
f 543/5/240 544/5/240 560/5/240 559/5/240
f 544/5/241 545/5/241 561/5/241 560/5/241
f 545/5/242 546/5/242 562/5/242 561/5/242
f 546/5/243 547/5/243 563/5/243 562/5/243
f 547/5/244 548/5/244 564/5/244 563/5/244
f 548/5/245 549/5/245 565/5/245 564/5/245
f 549/5/246 550/5/246 566/5/246 565/5/246
f 550/5/247 551/5/247 567/5/247 566/5/247
f 551/5/248 552/5/248 568/5/248 567/5/248
f 552/5/249 553/5/249 569/5/249 568/5/249
f 553/5/250 554/5/250 570/5/250 569/5/250
f 554/5/251 540/5/251 555/5/251 570/5/251
