# Blender 5.2.0 LTS
# www.blender.org
mtllib FN_Chair_Chapel.mtl
o FN_Chair_Chapel
v -0.237000 0.000000 0.210000
v -0.207000 0.000000 0.210000
v -0.187000 0.400000 0.210000
v -0.217000 0.400000 0.210000
v -0.217000 0.400000 0.180000
v -0.187000 0.400000 0.180000
v -0.207000 0.000000 0.180000
v -0.237000 0.000000 0.180000
v -0.207000 0.860000 -0.150000
v -0.207000 0.860000 -0.180000
v -0.207000 0.000000 -0.210000
v -0.207000 0.000000 -0.180000
v -0.177000 0.000000 -0.180000
v -0.177000 0.000000 -0.210000
v -0.177000 0.860000 -0.180000
v -0.177000 0.860000 -0.150000
v -0.212000 0.372000 0.195000
v -0.212000 0.372000 -0.185000
v -0.182000 0.372000 -0.185000
v -0.182000 0.372000 0.195000
v -0.212000 0.400000 0.195000
v -0.182000 0.400000 0.195000
v -0.182000 0.400000 -0.185000
v -0.212000 0.400000 -0.185000
v -0.192000 0.300000 0.195000
v -0.192000 0.300000 -0.057000
v -0.172000 0.300000 -0.057000
v -0.172000 0.300000 0.195000
v -0.192000 0.380000 0.195000
v -0.172000 0.380000 0.195000
v -0.172000 0.380000 -0.057000
v -0.192000 0.380000 -0.057000
v 0.203000 0.000000 0.210000
v 0.233000 0.000000 0.210000
v 0.213000 0.400000 0.210000
v 0.183000 0.400000 0.210000
v 0.183000 0.400000 0.180000
v 0.213000 0.400000 0.180000
v 0.233000 0.000000 0.180000
v 0.203000 0.000000 0.180000
v 0.173000 0.860000 -0.150000
v 0.173000 0.860000 -0.180000
v 0.173000 0.000000 -0.210000
v 0.173000 0.000000 -0.180000
v 0.203000 0.000000 -0.180000
v 0.203000 0.000000 -0.210000
v 0.203000 0.860000 -0.180000
v 0.203000 0.860000 -0.150000
v 0.178000 0.372000 0.195000
v 0.178000 0.372000 -0.185000
v 0.208000 0.372000 -0.185000
v 0.208000 0.372000 0.195000
v 0.178000 0.400000 0.195000
v 0.208000 0.400000 0.195000
v 0.208000 0.400000 -0.185000
v 0.178000 0.400000 -0.185000
v 0.168000 0.300000 0.195000
v 0.168000 0.300000 -0.057000
v 0.188000 0.300000 -0.057000
v 0.188000 0.300000 0.195000
v 0.168000 0.380000 0.195000
v 0.188000 0.380000 0.195000
v 0.188000 0.380000 -0.057000
v 0.168000 0.380000 -0.057000
v -0.212000 0.372000 0.207000
v -0.212000 0.372000 0.179000
v 0.208000 0.372000 0.179000
v 0.208000 0.372000 0.207000
v -0.212000 0.400000 0.207000
v 0.208000 0.400000 0.207000
v 0.208000 0.400000 0.179000
v -0.212000 0.400000 0.179000
v -0.212000 0.372000 -0.171000
v -0.212000 0.372000 -0.199000
v 0.208000 0.372000 -0.199000
v 0.208000 0.372000 -0.171000
v -0.212000 0.400000 -0.171000
v 0.208000 0.400000 -0.171000
v 0.208000 0.400000 -0.199000
v -0.212000 0.400000 -0.199000
v -0.182000 0.300000 0.195000
v -0.182000 0.300000 -0.045000
v 0.178000 0.300000 -0.045000
v 0.178000 0.300000 0.195000
v -0.182000 0.312000 0.195000
v 0.178000 0.312000 0.195000
v 0.178000 0.312000 -0.045000
v -0.182000 0.312000 -0.045000
v -0.182000 0.312000 -0.057000
v 0.178000 0.312000 -0.057000
v -0.182000 0.380000 -0.045000
v 0.178000 0.380000 -0.045000
v 0.178000 0.380000 -0.057000
v -0.182000 0.380000 -0.057000
v -0.132000 0.312000 0.175000
v -0.132000 0.312000 -0.015000
v 0.128000 0.312000 -0.015000
v 0.128000 0.312000 0.175000
v -0.132000 0.346000 0.175000
v 0.128000 0.346000 0.175000
v 0.128000 0.346000 -0.015000
v -0.132000 0.346000 -0.015000
v -0.200000 0.400000 -0.191000
v 0.196000 0.400000 -0.191000
v 0.196000 0.400000 0.201000
v -0.200000 0.400000 0.201000
v -0.190000 0.452000 0.191000
v 0.186000 0.452000 0.191000
v 0.186000 0.452000 -0.181000
v -0.190000 0.452000 -0.181000
v -0.187000 0.640000 -0.145000
v -0.187000 0.640000 -0.183000
v 0.183000 0.640000 -0.183000
v 0.183000 0.640000 -0.145000
v -0.187000 0.820000 -0.145000
v 0.183000 0.820000 -0.145000
v 0.183000 0.820000 -0.183000
v -0.187000 0.820000 -0.183000
v -0.264000 0.380000 -0.075000
v -0.264000 0.380000 -0.091000
v -0.208000 0.380000 -0.091000
v -0.208000 0.380000 -0.075000
v -0.264000 0.396000 -0.075000
v -0.208000 0.396000 -0.075000
v -0.208000 0.396000 -0.091000
v -0.264000 0.396000 -0.091000
v -0.264000 0.380000 -0.111000
v -0.264000 0.380000 -0.127000
v -0.208000 0.380000 -0.127000
v -0.208000 0.380000 -0.111000
v -0.264000 0.396000 -0.111000
v -0.208000 0.396000 -0.111000
v -0.208000 0.396000 -0.127000
v -0.264000 0.396000 -0.127000
v -0.270000 0.376000 -0.067000
v -0.270000 0.376000 -0.135000
v -0.254000 0.376000 -0.135000
v -0.254000 0.376000 -0.067000
v -0.270000 0.400000 -0.067000
v -0.254000 0.400000 -0.067000
v -0.254000 0.400000 -0.135000
v -0.270000 0.400000 -0.135000
v 0.204000 0.380000 -0.093000
v 0.204000 0.380000 -0.109000
v 0.270000 0.380000 -0.109000
v 0.270000 0.380000 -0.093000
v 0.204000 0.396000 -0.093000
v 0.270000 0.396000 -0.093000
v 0.270000 0.396000 -0.109000
v 0.204000 0.396000 -0.109000
v 0.254000 0.352000 -0.093000
v 0.254000 0.352000 -0.109000
v 0.270000 0.352000 -0.109000
v 0.270000 0.352000 -0.093000
v 0.254000 0.396000 -0.093000
v 0.254000 0.396000 -0.109000
vn -0.0000 -0.0000 1.0000
vn -0.0000 -0.0000 -1.0000
vn -0.0000 -1.0000 -0.0000
vn 0.9988 -0.0499 -0.0000
vn -0.0000 1.0000 -0.0000
vn -0.9988 0.0499 -0.0000
vn -1.0000 -0.0000 -0.0000
vn 1.0000 -0.0000 -0.0000
vn -0.0000 0.0349 -0.9994
vn -0.0000 -0.0349 0.9994
vn 0.9988 0.0499 -0.0000
vn -0.9988 -0.0499 -0.0000
vn -0.0000 0.1888 0.9820
vn 0.9820 0.1888 -0.0000
vn -0.0000 0.1888 -0.9820
vn -0.9820 0.1888 -0.0000
vt 0.312500 0.937500
vt 0.312500 0.062500
vt 0.812500 0.562500
vt 0.812500 0.312500
s 0
usemtl FN_Atlas
f 1/1/1 2/1/1 3/1/1 4/1/1
f 5/1/2 6/1/2 7/1/2 8/1/2
f 8/1/3 7/1/3 2/1/3 1/1/3
f 7/1/4 6/1/4 3/1/4 2/1/4
f 6/1/5 5/1/5 4/1/5 3/1/5
f 5/1/6 8/1/6 1/1/6 4/1/6
f 9/1/7 10/1/7 11/1/7 12/1/7
f 13/1/8 14/1/8 15/1/8 16/1/8
f 12/1/3 11/1/3 14/1/3 13/1/3
f 11/1/9 10/1/9 15/1/9 14/1/9
f 10/1/5 9/1/5 16/1/5 15/1/5
f 9/1/10 12/1/10 13/1/10 16/1/10
f 17/1/3 18/1/3 19/1/3 20/1/3
f 21/1/5 22/1/5 23/1/5 24/1/5
f 17/1/1 20/1/1 22/1/1 21/1/1
f 19/1/2 18/1/2 24/1/2 23/1/2
f 17/1/7 21/1/7 24/1/7 18/1/7
f 20/1/8 19/1/8 23/1/8 22/1/8
f 25/1/3 26/1/3 27/1/3 28/1/3
f 29/1/5 30/1/5 31/1/5 32/1/5
f 25/1/1 28/1/1 30/1/1 29/1/1
f 27/1/2 26/1/2 32/1/2 31/1/2
f 25/1/7 29/1/7 32/1/7 26/1/7
f 28/1/8 27/1/8 31/1/8 30/1/8
f 33/1/1 34/1/1 35/1/1 36/1/1
f 37/1/2 38/1/2 39/1/2 40/1/2
f 40/1/3 39/1/3 34/1/3 33/1/3
f 39/1/11 38/1/11 35/1/11 34/1/11
f 38/1/5 37/1/5 36/1/5 35/1/5
f 37/1/12 40/1/12 33/1/12 36/1/12
f 41/1/7 42/1/7 43/1/7 44/1/7
f 45/1/8 46/1/8 47/1/8 48/1/8
f 44/1/3 43/1/3 46/1/3 45/1/3
f 43/1/9 42/1/9 47/1/9 46/1/9
f 42/1/5 41/1/5 48/1/5 47/1/5
f 41/1/10 44/1/10 45/1/10 48/1/10
f 49/1/3 50/1/3 51/1/3 52/1/3
f 53/1/5 54/1/5 55/1/5 56/1/5
f 49/1/1 52/1/1 54/1/1 53/1/1
f 51/1/2 50/1/2 56/1/2 55/1/2
f 49/1/7 53/1/7 56/1/7 50/1/7
f 52/1/8 51/1/8 55/1/8 54/1/8
f 57/1/3 58/1/3 59/1/3 60/1/3
f 61/1/5 62/1/5 63/1/5 64/1/5
f 57/1/1 60/1/1 62/1/1 61/1/1
f 59/1/2 58/1/2 64/1/2 63/1/2
f 57/1/7 61/1/7 64/1/7 58/1/7
f 60/1/8 59/1/8 63/1/8 62/1/8
f 65/1/3 66/1/3 67/1/3 68/1/3
f 69/1/5 70/1/5 71/1/5 72/1/5
f 65/1/1 68/1/1 70/1/1 69/1/1
f 67/1/2 66/1/2 72/1/2 71/1/2
f 65/1/7 69/1/7 72/1/7 66/1/7
f 68/1/8 67/1/8 71/1/8 70/1/8
f 73/1/3 74/1/3 75/1/3 76/1/3
f 77/1/5 78/1/5 79/1/5 80/1/5
f 73/1/1 76/1/1 78/1/1 77/1/1
f 75/1/2 74/1/2 80/1/2 79/1/2
f 73/1/7 77/1/7 80/1/7 74/1/7
f 76/1/8 75/1/8 79/1/8 78/1/8
f 81/1/3 82/1/3 83/1/3 84/1/3
f 85/1/5 86/1/5 87/1/5 88/1/5
f 81/1/1 84/1/1 86/1/1 85/1/1
f 83/1/2 82/1/2 88/1/2 87/1/2
f 81/1/7 85/1/7 88/1/7 82/1/7
f 84/1/8 83/1/8 87/1/8 86/1/8
f 88/1/3 89/1/3 90/1/3 87/1/3
f 91/1/5 92/1/5 93/1/5 94/1/5
f 88/1/1 87/1/1 92/1/1 91/1/1
f 90/1/2 89/1/2 94/1/2 93/1/2
f 88/1/7 91/1/7 94/1/7 89/1/7
f 87/1/8 90/1/8 93/1/8 92/1/8
f 95/2/3 96/2/3 97/2/3 98/2/3
f 99/2/5 100/2/5 101/2/5 102/2/5
f 95/2/1 98/2/1 100/2/1 99/2/1
f 97/2/2 96/2/2 102/2/2 101/2/2
f 95/2/7 99/2/7 102/2/7 96/2/7
f 98/2/8 97/2/8 101/2/8 100/2/8
f 103/3/3 104/3/3 105/3/3 106/3/3
f 107/3/5 108/3/5 109/3/5 110/3/5
f 106/3/13 105/3/13 108/3/13 107/3/13
f 105/3/14 104/3/14 109/3/14 108/3/14
f 104/3/15 103/3/15 110/3/15 109/3/15
f 103/3/16 106/3/16 107/3/16 110/3/16
f 111/3/3 112/3/3 113/3/3 114/3/3
f 115/3/5 116/3/5 117/3/5 118/3/5
f 111/3/1 114/3/1 116/3/1 115/3/1
f 113/3/2 112/3/2 118/3/2 117/3/2
f 111/3/7 115/3/7 118/3/7 112/3/7
f 114/3/8 113/3/8 117/3/8 116/3/8
f 119/4/3 120/4/3 121/4/3 122/4/3
f 123/4/5 124/4/5 125/4/5 126/4/5
f 119/4/1 122/4/1 124/4/1 123/4/1
f 121/4/2 120/4/2 126/4/2 125/4/2
f 119/4/7 123/4/7 126/4/7 120/4/7
f 122/4/8 121/4/8 125/4/8 124/4/8
f 127/4/3 128/4/3 129/4/3 130/4/3
f 131/4/5 132/4/5 133/4/5 134/4/5
f 127/4/1 130/4/1 132/4/1 131/4/1
f 129/4/2 128/4/2 134/4/2 133/4/2
f 127/4/7 131/4/7 134/4/7 128/4/7
f 130/4/8 129/4/8 133/4/8 132/4/8
f 135/4/3 136/4/3 137/4/3 138/4/3
f 139/4/5 140/4/5 141/4/5 142/4/5
f 135/4/1 138/4/1 140/4/1 139/4/1
f 137/4/2 136/4/2 142/4/2 141/4/2
f 135/4/7 139/4/7 142/4/7 136/4/7
f 138/4/8 137/4/8 141/4/8 140/4/8
f 143/4/3 144/4/3 145/4/3 146/4/3
f 147/4/5 148/4/5 149/4/5 150/4/5
f 143/4/1 146/4/1 148/4/1 147/4/1
f 145/4/2 144/4/2 150/4/2 149/4/2
f 143/4/7 147/4/7 150/4/7 144/4/7
f 146/4/8 145/4/8 149/4/8 148/4/8
f 151/4/3 152/4/3 153/4/3 154/4/3
f 155/4/5 148/4/5 149/4/5 156/4/5
f 151/4/1 154/4/1 148/4/1 155/4/1
f 153/4/2 152/4/2 156/4/2 149/4/2
f 151/4/7 155/4/7 156/4/7 152/4/7
f 154/4/8 153/4/8 149/4/8 148/4/8
