# Blender 5.2.0 LTS
# www.blender.org
mtllib FN_Chair_Bean.mtl
o FN_Chair_Bean
v 0.309933 0.000000 0.161484
v 0.214480 0.000000 0.281179
v 0.076547 0.000000 0.347604
v -0.076547 0.000000 0.347604
v -0.214480 0.000000 0.281179
v -0.309933 0.000000 0.161484
v -0.344000 0.000000 0.012228
v -0.309933 0.000000 -0.137028
v -0.214480 0.000000 -0.256722
v -0.076547 0.000000 -0.323147
v 0.076547 0.000000 -0.323147
v 0.214480 0.000000 -0.256722
v 0.309933 0.000000 -0.137028
v 0.344000 0.000000 0.012228
v 0.360388 0.006000 -0.161389
v 0.400000 0.006000 0.012165
v 0.249396 0.006000 -0.300568
v 0.089008 0.006000 -0.377806
v -0.089008 0.006000 -0.377806
v -0.249396 0.006000 -0.300568
v -0.360388 0.006000 -0.161389
v -0.400000 0.006000 0.012165
v -0.360388 0.006000 0.185718
v -0.249396 0.006000 0.324898
v -0.089008 0.006000 0.402136
v 0.089008 0.006000 0.402136
v 0.249396 0.006000 0.324898
v 0.360388 0.006000 0.185718
v 0.419851 0.080000 -0.193055
v 0.466000 0.080000 0.009135
v 0.290546 0.080000 -0.355199
v 0.103695 0.080000 -0.445182
v -0.103695 0.080000 -0.445182
v -0.290546 0.080000 -0.355199
v -0.419851 0.080000 -0.193055
v -0.466000 0.080000 0.009135
v -0.419851 0.080000 0.211325
v -0.290546 0.080000 0.373468
v -0.103695 0.080000 0.463451
v 0.103695 0.080000 0.463451
v 0.290546 0.080000 0.373468
v 0.419851 0.080000 0.211325
v 0.420752 0.090000 -0.194087
v 0.467000 0.090000 0.008537
v 0.291170 0.090000 -0.356578
v 0.103917 0.090000 -0.446754
v -0.103917 0.090000 -0.446754
v -0.291170 0.090000 -0.356578
v -0.420752 0.090000 -0.194087
v -0.467000 0.090000 0.008537
v -0.420752 0.090000 0.211161
v -0.291170 0.090000 0.373652
v -0.103917 0.090000 0.463828
v 0.103917 0.090000 0.463828
v 0.291170 0.090000 0.373652
v 0.420752 0.090000 0.211161
v 0.430663 0.200000 -0.207396
v 0.478000 0.200000 -0.000000
v 0.298028 0.200000 -0.373715
v 0.106365 0.200000 -0.466016
v -0.106365 0.200000 -0.466016
v -0.298028 0.200000 -0.373715
v -0.430663 0.200000 -0.207396
v -0.478000 0.200000 -0.000000
v -0.430663 0.200000 0.207396
v -0.298028 0.200000 0.373715
v -0.106365 0.200000 0.466016
v 0.106365 0.200000 0.466016
v 0.298028 0.200000 0.373715
v 0.430663 0.200000 0.207396
v 0.410842 0.330000 -0.211540
v 0.456000 0.330000 -0.013689
v 0.284311 0.330000 -0.370205
v 0.101470 0.330000 -0.458256
v -0.101470 0.330000 -0.458256
v -0.284311 0.330000 -0.370205
v -0.410842 0.330000 -0.211540
v -0.456000 0.330000 -0.013689
v -0.410842 0.330000 0.184162
v -0.284311 0.330000 0.342826
v -0.101470 0.330000 0.430878
v 0.101470 0.330000 0.430878
v 0.284311 0.330000 0.342826
v 0.410842 0.330000 0.184162
v 0.367595 0.440000 -0.204699
v 0.408000 0.440000 -0.027675
v 0.254384 0.440000 -0.346662
v 0.090789 0.440000 -0.425445
v -0.090789 0.440000 -0.425445
v -0.254384 0.440000 -0.346662
v -0.367595 0.440000 -0.204699
v -0.408000 0.440000 -0.027675
v -0.367595 0.440000 0.149350
v -0.254384 0.440000 0.291313
v -0.090789 0.440000 0.370096
v 0.090789 0.440000 0.370096
v 0.254384 0.440000 0.291313
v 0.367595 0.440000 0.149350
v 0.306329 0.530000 -0.188044
v 0.340000 0.530000 -0.040524
v 0.211987 0.530000 -0.306347
v 0.075657 0.530000 -0.371999
v -0.075657 0.530000 -0.371999
v -0.211987 0.530000 -0.306347
v -0.306329 0.530000 -0.188044
v -0.340000 0.530000 -0.040524
v -0.306329 0.530000 0.106997
v -0.211987 0.530000 0.225299
v -0.075657 0.530000 0.290952
v 0.075657 0.530000 0.290952
v 0.211987 0.530000 0.225299
v 0.306329 0.530000 0.106997
v 0.236054 0.600000 -0.164990
v 0.262000 0.600000 -0.051313
v 0.163354 0.600000 -0.256152
v 0.058300 0.600000 -0.306744
v -0.058300 0.600000 -0.306744
v -0.163354 0.600000 -0.256152
v -0.236054 0.600000 -0.164990
v -0.262000 0.600000 -0.051313
v -0.236054 0.600000 0.062365
v -0.163354 0.600000 0.153527
v -0.058300 0.600000 0.204118
v 0.058300 0.600000 0.204118
v 0.163354 0.600000 0.153527
v 0.236054 0.600000 0.062365
v 0.171184 0.640000 -0.140209
v 0.190000 0.640000 -0.057772
v 0.118463 0.640000 -0.206319
v 0.042279 0.640000 -0.243008
v -0.042279 0.640000 -0.243008
v -0.118463 0.640000 -0.206319
v -0.171184 0.640000 -0.140209
v -0.190000 0.640000 -0.057772
v -0.171184 0.640000 0.024666
v -0.118463 0.640000 0.090776
v -0.042279 0.640000 0.127465
v 0.042279 0.640000 0.127465
v 0.118463 0.640000 0.090776
v 0.171184 0.640000 0.024666
v 0.113522 0.615000 -0.108380
v 0.126000 0.615000 -0.053710
v 0.078560 0.615000 -0.152221
v 0.028038 0.615000 -0.176551
v -0.028038 0.615000 -0.176551
v -0.078560 0.615000 -0.152221
v -0.113522 0.615000 -0.108380
v -0.126000 0.615000 -0.053710
v -0.113522 0.615000 0.000959
v -0.078560 0.615000 0.044800
v -0.028038 0.615000 0.069131
v 0.028038 0.615000 0.069131
v 0.078560 0.615000 0.044800
v 0.113522 0.615000 0.000959
v 0.055860 0.588000 -0.076317
v 0.062000 0.588000 -0.049416
v 0.038656 0.588000 -0.097890
v 0.013796 0.588000 -0.109862
v -0.013796 0.588000 -0.109862
v -0.038656 0.588000 -0.097890
v -0.055860 0.588000 -0.076317
v -0.062000 0.588000 -0.049416
v -0.055860 0.588000 -0.022515
v -0.038656 0.588000 -0.000942
v -0.013796 0.588000 0.011030
v 0.013796 0.588000 0.011030
v 0.038656 0.588000 -0.000942
v 0.055860 0.588000 -0.022515
vn -0.0000 -1.0000 -0.0000
vn 0.1065 -0.9940 -0.0243
vn 0.0853 -0.9940 -0.0681
vn 0.0473 -0.9940 -0.0983
vn -0.0000 -0.9940 -0.1091
vn -0.0473 -0.9940 -0.0983
vn -0.0853 -0.9940 -0.0681
vn -0.1065 -0.9940 -0.0243
vn -0.1065 -0.9940 0.0243
vn -0.0855 -0.9940 0.0682
vn -0.0474 -0.9940 0.0985
vn -0.0000 -0.9940 0.1094
vn 0.0474 -0.9940 0.0985
vn 0.0855 -0.9940 0.0682
vn 0.1065 -0.9940 0.0243
vn 0.7324 -0.6601 -0.1672
vn 0.5826 -0.6669 -0.4646
vn 0.3215 -0.6716 -0.6675
vn -0.0000 -0.6732 -0.7394
vn -0.3215 -0.6716 -0.6675
vn -0.5826 -0.6669 -0.4646
vn -0.7324 -0.6601 -0.1672
vn -0.7390 -0.6522 0.1687
vn -0.5975 -0.6450 0.4765
vn -0.3334 -0.6399 0.6924
vn -0.0000 -0.6380 0.7700
vn 0.3334 -0.6399 0.6924
vn 0.5975 -0.6450 0.4765
vn 0.7390 -0.6522 0.1687
vn 0.9690 -0.1101 -0.2212
vn 0.7748 -0.1336 -0.6179
vn 0.4290 -0.1497 -0.8908
vn -0.0000 -0.1554 -0.9879
vn -0.4290 -0.1497 -0.8908
vn -0.7748 -0.1336 -0.6179
vn -0.9690 -0.1101 -0.2212
vn -0.9715 -0.0839 0.2217
vn -0.7804 -0.0601 0.6224
vn -0.4335 -0.0436 0.9001
vn -0.0000 -0.0377 0.9993
vn 0.4335 -0.0436 0.9001
vn 0.7804 -0.0601 0.6224
vn 0.9715 -0.0839 0.2217
vn 0.9686 -0.1140 -0.2211
vn 0.7736 -0.1444 -0.6170
vn 0.4279 -0.1651 -0.8886
vn -0.0000 -0.1725 -0.9850
vn -0.4279 -0.1651 -0.8886
vn -0.7736 -0.1444 -0.6170
vn -0.9686 -0.1140 -0.2211
vn -0.9718 -0.0800 0.2218
vn -0.7809 -0.0490 0.6227
vn -0.4337 -0.0276 0.9006
vn -0.0000 -0.0199 0.9998
vn 0.4337 -0.0276 0.9006
vn 0.7809 -0.0490 0.6227
vn 0.9718 -0.0800 0.2218
vn 0.9653 0.1402 -0.2203
vn 0.7780 0.0988 -0.6204
vn 0.4328 0.0699 -0.8988
vn -0.0000 0.0596 -0.9982
vn -0.4328 0.0699 -0.8988
vn -0.7780 0.0988 -0.6204
vn -0.9653 0.1402 -0.2203
vn -0.9581 0.1852 0.2187
vn -0.7618 0.2247 0.6075
vn -0.4199 0.2515 0.8720
vn -0.0000 0.2609 0.9654
vn 0.4199 0.2515 0.8720
vn 0.7618 0.2247 0.6075
vn 0.9581 0.1852 0.2187
vn 0.9061 0.3691 -0.2068
vn 0.7388 0.3271 -0.5892
vn 0.4143 0.2969 -0.8604
vn -0.0000 0.2858 -0.9583
vn -0.4143 0.2969 -0.8604
vn -0.7388 0.3271 -0.5892
vn -0.9061 0.3691 -0.2068
vn -0.8878 0.4132 0.2026
vn -0.6980 0.4506 0.5566
vn -0.3818 0.4751 0.7928
vn -0.0000 0.4836 0.8753
vn 0.3818 0.4751 0.7928
vn 0.6980 0.4506 0.5566
vn 0.8878 0.4132 0.2026
vn 0.7969 0.5761 -0.1819
vn 0.6562 0.5436 -0.5233
vn 0.3707 0.5195 -0.7699
vn -0.0000 0.5106 -0.8598
vn -0.3707 0.5195 -0.7699
vn -0.6562 0.5436 -0.5233
vn -0.7969 0.5761 -0.1819
vn -0.7731 0.6093 0.1764
vn -0.6029 0.6367 0.4808
vn -0.3281 0.6543 0.6813
vn -0.0000 0.6604 0.7509
vn 0.3281 0.6543 0.6813
vn 0.6029 0.6367 0.4808
vn 0.7731 0.6093 0.1764
vn 0.6717 0.7248 -0.1533
vn 0.5555 0.7036 -0.4430
vn 0.3150 0.6878 -0.6540
vn -0.0000 0.6819 -0.7315
vn -0.3150 0.6878 -0.6540
vn -0.5555 0.7036 -0.4430
vn -0.6717 0.7248 -0.1533
vn -0.6491 0.7461 0.1482
vn -0.5049 0.7636 0.4026
vn -0.2743 0.7747 0.5697
vn -0.0000 0.7785 0.6276
vn 0.2743 0.7747 0.5697
vn 0.5049 0.7636 0.4026
vn 0.6491 0.7461 0.1482
vn 0.4902 0.8644 -0.1119
vn 0.4045 0.8558 -0.3226
vn 0.2290 0.8494 -0.4755
vn -0.0000 0.8470 -0.5316
vn -0.2290 0.8494 -0.4755
vn -0.4045 0.8558 -0.3226
vn -0.4902 0.8644 -0.1119
vn -0.4753 0.8731 0.1085
vn -0.3709 0.8803 0.2958
vn -0.2021 0.8850 0.4196
vn -0.0000 0.8866 0.4626
vn 0.2021 0.8850 0.4196
vn 0.3709 0.8803 0.2958
vn 0.4753 0.8731 0.1085
vn -0.3581 0.9301 0.0817
vn -0.2809 0.9332 0.2240
vn -0.1536 0.9353 0.3189
vn -0.0000 0.9360 0.3521
vn 0.1536 0.9353 0.3189
vn 0.2809 0.9332 0.2240
vn 0.3581 0.9301 0.0817
vn 0.3672 0.9264 -0.0838
vn 0.3013 0.9228 -0.2403
vn 0.1699 0.9201 -0.3528
vn -0.0000 0.9191 -0.3939
vn -0.1699 0.9201 -0.3528
vn -0.3013 0.9228 -0.2403
vn -0.3672 0.9264 -0.0838
vn -0.3822 0.9199 0.0872
vn -0.2996 0.9236 0.2389
vn -0.1637 0.9261 0.3400
vn -0.0000 0.9269 0.3753
vn 0.1637 0.9261 0.3400
vn 0.2996 0.9236 0.2389
vn 0.3822 0.9199 0.0872
vn 0.3922 0.9155 -0.0895
vn 0.3221 0.9112 -0.2569
vn 0.1818 0.9080 -0.3774
vn -0.0000 0.9069 -0.4214
vn -0.1818 0.9080 -0.3774
vn -0.3221 0.9112 -0.2569
vn -0.3922 0.9155 -0.0895
vn -0.0000 1.0000 -0.0000
vt 0.812500 0.687500
vt 0.062500 0.562500
s 0
usemtl FN_Atlas
f 1/1/1 2/1/1 3/1/1 4/1/1 5/1/1 6/1/1 7/1/1 8/1/1 9/1/1 10/1/1 11/1/1 12/1/1 13/1/1 14/1/1
f 14/1/2 13/1/2 15/1/2 16/1/2
f 13/1/3 12/1/3 17/1/3 15/1/3
f 12/1/4 11/1/4 18/1/4 17/1/4
f 11/1/5 10/1/5 19/1/5 18/1/5
f 10/1/6 9/1/6 20/1/6 19/1/6
f 9/1/7 8/1/7 21/1/7 20/1/7
f 8/1/8 7/1/8 22/1/8 21/1/8
f 7/1/9 6/1/9 23/1/9 22/1/9
f 6/1/10 5/1/10 24/1/10 23/1/10
f 5/1/11 4/1/11 25/1/11 24/1/11
f 4/1/12 3/1/12 26/1/12 25/1/12
f 3/1/13 2/1/13 27/1/13 26/1/13
f 2/1/14 1/1/14 28/1/14 27/1/14
f 1/1/15 14/1/15 16/1/15 28/1/15
f 16/1/16 15/1/16 29/1/16 30/1/16
f 15/1/17 17/1/17 31/1/17 29/1/17
f 17/1/18 18/1/18 32/1/18 31/1/18
f 18/1/19 19/1/19 33/1/19 32/1/19
f 19/1/20 20/1/20 34/1/20 33/1/20
f 20/1/21 21/1/21 35/1/21 34/1/21
f 21/1/22 22/1/22 36/1/22 35/1/22
f 22/1/23 23/1/23 37/1/23 36/1/23
f 23/1/24 24/1/24 38/1/24 37/1/24
f 24/1/25 25/1/25 39/1/25 38/1/25
f 25/1/26 26/1/26 40/1/26 39/1/26
f 26/1/27 27/1/27 41/1/27 40/1/27
f 27/1/28 28/1/28 42/1/28 41/1/28
f 28/1/29 16/1/29 30/1/29 42/1/29
f 30/1/30 29/1/30 43/1/30 44/1/30
f 29/1/31 31/1/31 45/1/31 43/1/31
f 31/1/32 32/1/32 46/1/32 45/1/32
f 32/1/33 33/1/33 47/1/33 46/1/33
f 33/1/34 34/1/34 48/1/34 47/1/34
f 34/1/35 35/1/35 49/1/35 48/1/35
f 35/1/36 36/1/36 50/1/36 49/1/36
f 36/1/37 37/1/37 51/1/37 50/1/37
f 37/1/38 38/1/38 52/1/38 51/1/38
f 38/1/39 39/1/39 53/1/39 52/1/39
f 39/1/40 40/1/40 54/1/40 53/1/40
f 40/1/41 41/1/41 55/1/41 54/1/41
f 41/1/42 42/1/42 56/1/42 55/1/42
f 42/1/43 30/1/43 44/1/43 56/1/43
f 44/2/44 43/2/44 57/2/44 58/2/44
f 43/2/45 45/2/45 59/2/45 57/2/45
f 45/2/46 46/2/46 60/2/46 59/2/46
f 46/2/47 47/2/47 61/2/47 60/2/47
f 47/2/48 48/2/48 62/2/48 61/2/48
f 48/2/49 49/2/49 63/2/49 62/2/49
f 49/2/50 50/2/50 64/2/50 63/2/50
f 50/2/51 51/2/51 65/2/51 64/2/51
f 51/2/52 52/2/52 66/2/52 65/2/52
f 52/2/53 53/2/53 67/2/53 66/2/53
f 53/2/54 54/2/54 68/2/54 67/2/54
f 54/2/55 55/2/55 69/2/55 68/2/55
f 55/2/56 56/2/56 70/2/56 69/2/56
f 56/2/57 44/2/57 58/2/57 70/2/57
f 58/2/58 57/2/58 71/2/58 72/2/58
f 57/2/59 59/2/59 73/2/59 71/2/59
f 59/2/60 60/2/60 74/2/60 73/2/60
f 60/2/61 61/2/61 75/2/61 74/2/61
f 61/2/62 62/2/62 76/2/62 75/2/62
f 62/2/63 63/2/63 77/2/63 76/2/63
f 63/2/64 64/2/64 78/2/64 77/2/64
f 64/2/65 65/2/65 79/2/65 78/2/65
f 65/2/66 66/2/66 80/2/66 79/2/66
f 66/2/67 67/2/67 81/2/67 80/2/67
f 67/2/68 68/2/68 82/2/68 81/2/68
f 68/2/69 69/2/69 83/2/69 82/2/69
f 69/2/70 70/2/70 84/2/70 83/2/70
f 70/2/71 58/2/71 72/2/71 84/2/71
f 72/2/72 71/2/72 85/2/72 86/2/72
f 71/2/73 73/2/73 87/2/73 85/2/73
f 73/2/74 74/2/74 88/2/74 87/2/74
f 74/2/75 75/2/75 89/2/75 88/2/75
f 75/2/76 76/2/76 90/2/76 89/2/76
f 76/2/77 77/2/77 91/2/77 90/2/77
f 77/2/78 78/2/78 92/2/78 91/2/78
f 78/2/79 79/2/79 93/2/79 92/2/79
f 79/2/80 80/2/80 94/2/80 93/2/80
f 80/2/81 81/2/81 95/2/81 94/2/81
f 81/2/82 82/2/82 96/2/82 95/2/82
f 82/2/83 83/2/83 97/2/83 96/2/83
f 83/2/84 84/2/84 98/2/84 97/2/84
f 84/2/85 72/2/85 86/2/85 98/2/85
f 86/2/86 85/2/86 99/2/86 100/2/86
f 85/2/87 87/2/87 101/2/87 99/2/87
f 87/2/88 88/2/88 102/2/88 101/2/88
f 88/2/89 89/2/89 103/2/89 102/2/89
f 89/2/90 90/2/90 104/2/90 103/2/90
f 90/2/91 91/2/91 105/2/91 104/2/91
f 91/2/92 92/2/92 106/2/92 105/2/92
f 92/2/93 93/2/93 107/2/93 106/2/93
f 93/2/94 94/2/94 108/2/94 107/2/94
f 94/2/95 95/2/95 109/2/95 108/2/95
f 95/2/96 96/2/96 110/2/96 109/2/96
f 96/2/97 97/2/97 111/2/97 110/2/97
f 97/2/98 98/2/98 112/2/98 111/2/98
f 98/2/99 86/2/99 100/2/99 112/2/99
f 100/2/100 99/2/100 113/2/100 114/2/100
f 99/2/101 101/2/101 115/2/101 113/2/101
f 101/2/102 102/2/102 116/2/102 115/2/102
f 102/2/103 103/2/103 117/2/103 116/2/103
f 103/2/104 104/2/104 118/2/104 117/2/104
f 104/2/105 105/2/105 119/2/105 118/2/105
f 105/2/106 106/2/106 120/2/106 119/2/106
f 106/2/107 107/2/107 121/2/107 120/2/107
f 107/2/108 108/2/108 122/2/108 121/2/108
f 108/2/109 109/2/109 123/2/109 122/2/109
f 109/2/110 110/2/110 124/2/110 123/2/110
f 110/2/111 111/2/111 125/2/111 124/2/111
f 111/2/112 112/2/112 126/2/112 125/2/112
f 112/2/113 100/2/113 114/2/113 126/2/113
f 114/2/114 113/2/114 127/2/114 128/2/114
f 113/2/115 115/2/115 129/2/115 127/2/115
f 115/2/116 116/2/116 130/2/116 129/2/116
f 116/2/117 117/2/117 131/2/117 130/2/117
f 117/2/118 118/2/118 132/2/118 131/2/118
f 118/2/119 119/2/119 133/2/119 132/2/119
f 119/2/120 120/2/120 134/2/120 133/2/120
f 120/2/121 121/2/121 135/2/121 134/2/121
f 121/2/122 122/2/122 136/2/122 135/2/122
f 122/2/123 123/2/123 137/2/123 136/2/123
f 123/2/124 124/2/124 138/2/124 137/2/124
f 124/2/125 125/2/125 139/2/125 138/2/125
f 125/2/126 126/2/126 140/2/126 139/2/126
f 126/2/127 114/2/127 128/2/127 140/2/127
f 128/2/128 127/2/128 141/2/128 142/2/128
f 127/2/129 129/2/129 143/2/129 141/2/129
f 129/2/130 130/2/130 144/2/130 143/2/130
f 130/2/131 131/2/131 145/2/131 144/2/131
f 131/2/132 132/2/132 146/2/132 145/2/132
f 132/2/133 133/2/133 147/2/133 146/2/133
f 133/2/134 134/2/134 148/2/134 147/2/134
f 134/2/135 135/2/135 149/2/135 148/2/135
f 135/2/136 136/2/136 150/2/136 149/2/136
f 136/2/137 137/2/137 151/2/137 150/2/137
f 137/2/138 138/2/138 152/2/138 151/2/138
f 138/2/139 139/2/139 153/2/139 152/2/139
f 139/2/140 140/2/140 154/2/140 153/2/140
f 140/2/141 128/2/141 142/2/141 154/2/141
f 142/2/142 141/2/142 155/2/142 156/2/142
f 141/2/143 143/2/143 157/2/143 155/2/143
f 143/2/144 144/2/144 158/2/144 157/2/144
f 144/2/145 145/2/145 159/2/145 158/2/145
f 145/2/146 146/2/146 160/2/146 159/2/146
f 146/2/147 147/2/147 161/2/147 160/2/147
f 147/2/148 148/2/148 162/2/148 161/2/148
f 148/2/149 149/2/149 163/2/149 162/2/149
f 149/2/150 150/2/150 164/2/150 163/2/150
f 150/2/151 151/2/151 165/2/151 164/2/151
f 151/2/152 152/2/152 166/2/152 165/2/152
f 152/2/153 153/2/153 167/2/153 166/2/153
f 153/2/154 154/2/154 168/2/154 167/2/154
f 154/2/155 142/2/155 156/2/155 168/2/155
f 156/2/156 155/2/156 157/2/156 158/2/156 159/2/156 160/2/156 161/2/156 162/2/156 163/2/156 164/2/156 165/2/156 166/2/156 167/2/156 168/2/156
