# Blender 5.2.0 LTS
# www.blender.org
mtllib FN_Chair_Rocking.mtl
o FN_Chair_Rocking
v -0.256000 0.075000 0.450000
v -0.256000 0.041673 0.337500
v -0.256000 0.018365 0.225000
v -0.256000 0.004568 0.112500
v -0.256000 0.000000 0.000000
v -0.256000 0.004568 -0.112500
v -0.256000 0.018365 -0.225000
v -0.256000 0.041673 -0.337500
v -0.256000 0.075000 -0.450000
v -0.256000 0.125000 -0.450000
v -0.256000 0.091673 -0.337500
v -0.256000 0.068365 -0.225000
v -0.256000 0.054568 -0.112500
v -0.256000 0.050000 0.000000
v -0.256000 0.054568 0.112500
v -0.256000 0.068365 0.225000
v -0.256000 0.091673 0.337500
v -0.256000 0.125000 0.450000
v -0.204000 0.125000 0.450000
v -0.204000 0.091673 0.337500
v -0.204000 0.068365 0.225000
v -0.204000 0.054568 0.112500
v -0.204000 0.050000 0.000000
v -0.204000 0.054568 -0.112500
v -0.204000 0.068365 -0.225000
v -0.204000 0.091673 -0.337500
v -0.204000 0.125000 -0.450000
v -0.204000 0.075000 -0.450000
v -0.204000 0.041673 -0.337500
v -0.204000 0.018365 -0.225000
v -0.204000 0.004568 -0.112500
v -0.204000 0.000000 0.000000
v -0.204000 0.004568 0.112500
v -0.204000 0.018365 0.225000
v -0.204000 0.041673 0.337500
v -0.204000 0.075000 0.450000
v 0.204000 0.125000 0.450000
v 0.204000 0.091673 0.337500
v 0.204000 0.068365 0.225000
v 0.204000 0.054568 0.112500
v 0.204000 0.050000 0.000000
v 0.204000 0.054568 -0.112500
v 0.204000 0.068365 -0.225000
v 0.204000 0.091673 -0.337500
v 0.204000 0.125000 -0.450000
v 0.204000 0.075000 -0.450000
v 0.204000 0.041673 -0.337500
v 0.204000 0.018365 -0.225000
v 0.204000 0.004568 -0.112500
v 0.204000 0.000000 0.000000
v 0.204000 0.004568 0.112500
v 0.204000 0.018365 0.225000
v 0.204000 0.041673 0.337500
v 0.204000 0.075000 0.450000
v 0.256000 0.075000 0.450000
v 0.256000 0.041673 0.337500
v 0.256000 0.018365 0.225000
v 0.256000 0.004568 0.112500
v 0.256000 0.000000 0.000000
v 0.256000 0.004568 -0.112500
v 0.256000 0.018365 -0.225000
v 0.256000 0.041673 -0.337500
v 0.256000 0.075000 -0.450000
v 0.256000 0.125000 -0.450000
v 0.256000 0.091673 -0.337500
v 0.256000 0.068365 -0.225000
v 0.256000 0.054568 -0.112500
v 0.256000 0.050000 0.000000
v 0.256000 0.054568 0.112500
v 0.256000 0.068365 0.225000
v 0.256000 0.091673 0.337500
v 0.256000 0.125000 0.450000
v -0.245563 0.038926 0.214453
v -0.230013 0.038431 0.208013
v -0.214455 0.038384 0.214453
v -0.208003 0.038813 0.230000
v -0.214437 0.039466 0.245547
v -0.229987 0.039961 0.251987
v -0.245545 0.040007 0.245547
v -0.251997 0.039579 0.230000
v -0.240997 0.384296 0.218000
v -0.236012 0.384627 0.230014
v -0.223990 0.384591 0.234990
v -0.211974 0.384209 0.230014
v -0.207003 0.383704 0.218000
v -0.211988 0.383373 0.205986
v -0.224010 0.383409 0.201010
v -0.236026 0.383791 0.205986
v -0.245582 0.030566 -0.205328
v -0.230037 0.029311 -0.211676
v -0.214471 0.030258 -0.205328
v -0.208001 0.032853 -0.190000
v -0.214418 0.035575 -0.174672
v -0.229963 0.036830 -0.168324
v -0.245529 0.035883 -0.174672
v -0.251999 0.033289 -0.190000
v -0.235999 1.042159 -0.365000
v -0.231294 1.044045 -0.353853
v -0.219973 1.044734 -0.349235
v -0.208668 1.043821 -0.353853
v -0.204001 1.041841 -0.365000
v -0.208706 1.039955 -0.376147
v -0.220027 1.039266 -0.380765
v -0.231332 1.040179 -0.376147
v 0.214455 0.038384 0.214453
v 0.230013 0.038431 0.208013
v 0.245563 0.038926 0.214453
v 0.251997 0.039579 0.230000
v 0.245545 0.040007 0.245547
v 0.229987 0.039961 0.251987
v 0.214437 0.039466 0.245547
v 0.208003 0.038813 0.230000
v 0.207003 0.383704 0.218000
v 0.211974 0.384209 0.230014
v 0.223990 0.384591 0.234990
v 0.236012 0.384627 0.230014
v 0.240997 0.384296 0.218000
v 0.236026 0.383791 0.205986
v 0.224010 0.383409 0.201010
v 0.211988 0.383373 0.205986
v 0.214471 0.030258 -0.205328
v 0.230037 0.029311 -0.211676
v 0.245582 0.030566 -0.205328
v 0.251999 0.033289 -0.190000
v 0.245529 0.035883 -0.174672
v 0.229963 0.036830 -0.168324
v 0.214418 0.035575 -0.174672
v 0.208001 0.032853 -0.190000
v 0.204001 1.041841 -0.365000
v 0.208668 1.043821 -0.353853
v 0.219973 1.044734 -0.349235
v 0.231294 1.044045 -0.353853
v 0.235999 1.042159 -0.365000
v 0.231332 1.040179 -0.376147
v 0.220027 1.039266 -0.380765
v 0.208706 1.039955 -0.376147
v -0.194195 0.364000 0.258484
v -0.227484 0.364000 0.244695
v -0.241272 0.364000 0.211406
v -0.241272 0.364000 -0.155406
v -0.227484 0.364000 -0.188695
v -0.194195 0.364000 -0.202484
v 0.194195 0.364000 -0.202484
v 0.227484 0.364000 -0.188695
v 0.241272 0.364000 -0.155406
v 0.241272 0.364000 0.211406
v 0.227484 0.364000 0.244695
v 0.194195 0.364000 0.258484
v 0.231941 0.370000 0.248941
v 0.198000 0.370000 0.263000
v 0.246000 0.370000 0.215000
v 0.246000 0.370000 -0.159000
v 0.231941 0.370000 -0.192941
v 0.198000 0.370000 -0.207000
v -0.198000 0.370000 -0.207000
v -0.231941 0.370000 -0.192941
v -0.246000 0.370000 -0.159000
v -0.246000 0.370000 0.215000
v -0.231941 0.370000 0.248941
v -0.198000 0.370000 0.263000
v 0.231941 0.398000 0.248941
v 0.198000 0.398000 0.263000
v 0.246000 0.398000 0.215000
v 0.246000 0.398000 -0.159000
v 0.231941 0.398000 -0.192941
v 0.198000 0.398000 -0.207000
v -0.198000 0.398000 -0.207000
v -0.231941 0.398000 -0.192941
v -0.246000 0.398000 -0.159000
v -0.246000 0.398000 0.215000
v -0.231941 0.398000 0.248941
v -0.198000 0.398000 0.263000
v 0.194195 0.404000 0.258484
v 0.227484 0.404000 0.244695
v 0.241272 0.404000 0.211406
v 0.241272 0.404000 -0.155406
v 0.227484 0.404000 -0.188695
v 0.194195 0.404000 -0.202484
v -0.194195 0.404000 -0.202484
v -0.227484 0.404000 -0.188695
v -0.241272 0.404000 -0.155406
v -0.241272 0.404000 0.211406
v -0.227484 0.404000 0.244695
v -0.194195 0.404000 0.258484
v -0.170813 0.404000 0.230263
v -0.201356 0.404000 0.217612
v -0.214007 0.404000 0.187069
v -0.214007 0.404000 -0.127069
v -0.201356 0.404000 -0.157612
v -0.170813 0.404000 -0.170263
v 0.170813 0.404000 -0.170263
v 0.201356 0.404000 -0.157612
v 0.214007 0.404000 -0.127069
v 0.214007 0.404000 0.187069
v 0.201356 0.404000 0.217612
v 0.170813 0.404000 0.230263
v 0.205113 0.409000 0.221113
v 0.174000 0.409000 0.234000
v 0.218000 0.409000 0.190000
v 0.218000 0.409000 -0.130000
v 0.205113 0.409000 -0.161113
v 0.174000 0.409000 -0.174000
v -0.174000 0.409000 -0.174000
v -0.205113 0.409000 -0.161113
v -0.218000 0.409000 -0.130000
v -0.218000 0.409000 0.190000
v -0.205113 0.409000 0.221113
v -0.174000 0.409000 0.234000
v 0.205113 0.445000 0.221113
v 0.174000 0.445000 0.234000
v 0.218000 0.445000 0.190000
v 0.218000 0.445000 -0.130000
v 0.205113 0.445000 -0.161113
v 0.174000 0.445000 -0.174000
v -0.174000 0.445000 -0.174000
v -0.205113 0.445000 -0.161113
v -0.218000 0.445000 -0.130000
v -0.218000 0.445000 0.190000
v -0.205113 0.445000 0.221113
v -0.174000 0.445000 0.234000
v 0.170813 0.450000 0.230263
v 0.201356 0.450000 0.217612
v 0.214007 0.450000 0.187069
v 0.214007 0.450000 -0.127069
v 0.201356 0.450000 -0.157612
v 0.170813 0.450000 -0.170263
v -0.170813 0.450000 -0.170263
v -0.201356 0.450000 -0.157612
v -0.214007 0.450000 -0.127069
v -0.214007 0.450000 0.187069
v -0.201356 0.450000 0.217612
v -0.170813 0.450000 0.230263
v -0.203000 0.478000 -0.241000
v -0.217142 0.478000 -0.246858
v -0.223000 0.478000 -0.261000
v -0.223000 0.478000 -0.267000
v -0.217142 0.478000 -0.281142
v -0.203000 0.478000 -0.287000
v 0.203000 0.478000 -0.287000
v 0.217142 0.478000 -0.281142
v 0.223000 0.478000 -0.267000
v 0.223000 0.478000 -0.261000
v 0.217142 0.478000 -0.246858
v 0.203000 0.478000 -0.241000
v 0.203000 0.528000 -0.249000
v 0.217142 0.528000 -0.254858
v 0.223000 0.528000 -0.269000
v 0.223000 0.528000 -0.275000
v 0.217142 0.528000 -0.289142
v 0.203000 0.528000 -0.295000
v -0.203000 0.528000 -0.295000
v -0.217142 0.528000 -0.289142
v -0.223000 0.528000 -0.275000
v -0.223000 0.528000 -0.269000
v -0.217142 0.528000 -0.254858
v -0.203000 0.528000 -0.249000
v -0.199000 0.978000 -0.326000
v -0.214556 0.978000 -0.332444
v -0.221000 0.978000 -0.348000
v -0.221000 0.978000 -0.356000
v -0.214556 0.978000 -0.371556
v -0.199000 0.978000 -0.378000
v 0.199000 0.978000 -0.378000
v 0.214556 0.978000 -0.371556
v 0.221000 0.978000 -0.356000
v 0.221000 0.978000 -0.348000
v 0.214556 0.978000 -0.332444
v 0.199000 0.978000 -0.326000
v 0.199000 1.060000 -0.340000
v 0.214556 1.060000 -0.346444
v 0.221000 1.060000 -0.362000
v 0.221000 1.060000 -0.370000
v 0.214556 1.060000 -0.385556
v 0.199000 1.060000 -0.392000
v -0.199000 1.060000 -0.392000
v -0.214556 1.060000 -0.385556
v -0.221000 1.060000 -0.370000
v -0.221000 1.060000 -0.362000
v -0.214556 1.060000 -0.346444
v -0.199000 1.060000 -0.340000
v -0.182500 0.514126 -0.283101
v -0.169500 0.514126 -0.283101
v -0.163000 0.516000 -0.272000
v -0.169500 0.517874 -0.260899
v -0.182500 0.517874 -0.260899
v -0.189000 0.516000 -0.272000
v -0.187000 0.990000 -0.352000
v -0.181500 0.991585 -0.342607
v -0.170500 0.991585 -0.342607
v -0.165000 0.990000 -0.352000
v -0.170500 0.988415 -0.361393
v -0.181500 0.988415 -0.361393
v -0.094500 0.514126 -0.283101
v -0.081500 0.514126 -0.283101
v -0.075000 0.516000 -0.272000
v -0.081500 0.517874 -0.260899
v -0.094500 0.517874 -0.260899
v -0.101000 0.516000 -0.272000
v -0.099000 0.990000 -0.352000
v -0.093500 0.991585 -0.342607
v -0.082500 0.991585 -0.342607
v -0.077000 0.990000 -0.352000
v -0.082500 0.988415 -0.361393
v -0.093500 0.988415 -0.361393
v -0.006500 0.514126 -0.283101
v 0.006500 0.514126 -0.283101
v 0.013000 0.516000 -0.272000
v 0.006500 0.517874 -0.260899
v -0.006500 0.517874 -0.260899
v -0.013000 0.516000 -0.272000
v -0.011000 0.990000 -0.352000
v -0.005500 0.991585 -0.342607
v 0.005500 0.991585 -0.342607
v 0.011000 0.990000 -0.352000
v 0.005500 0.988415 -0.361393
v -0.005500 0.988415 -0.361393
v 0.081500 0.514126 -0.283101
v 0.094500 0.514126 -0.283101
v 0.101000 0.516000 -0.272000
v 0.094500 0.517874 -0.260899
v 0.081500 0.517874 -0.260899
v 0.075000 0.516000 -0.272000
v 0.077000 0.990000 -0.352000
v 0.082500 0.991585 -0.342607
v 0.093500 0.991585 -0.342607
v 0.099000 0.990000 -0.352000
v 0.093500 0.988415 -0.361393
v 0.082500 0.988415 -0.361393
v 0.169500 0.514126 -0.283101
v 0.182500 0.514126 -0.283101
v 0.189000 0.516000 -0.272000
v 0.182500 0.517874 -0.260899
v 0.169500 0.517874 -0.260899
v 0.163000 0.516000 -0.272000
v 0.165000 0.990000 -0.352000
v 0.170500 0.991585 -0.342607
v 0.181500 0.991585 -0.342607
v 0.187000 0.990000 -0.352000
v 0.181500 0.988415 -0.361393
v 0.170500 0.988415 -0.361393
vn 1.0000 -0.0000 -0.0000
vn -1.0000 -0.0000 -0.0000
vn -0.0000 -0.9588 0.2840
vn -0.0000 -0.9792 0.2029
vn -0.0000 -0.9926 0.1217
vn -0.0000 -0.9992 0.0406
vn -0.0000 -0.9992 -0.0406
vn -0.0000 -0.9926 -0.1217
vn -0.0000 -0.9792 -0.2029
vn -0.0000 -0.9588 -0.2840
vn -0.0000 -0.0000 1.0000
vn -0.0000 0.9588 0.2840
vn -0.0000 0.9792 0.2029
vn -0.0000 0.9926 0.1217
vn -0.0000 0.9992 0.0406
vn -0.0000 0.9992 -0.0406
vn -0.0000 0.9926 -0.1217
vn -0.0000 0.9792 -0.2029
vn -0.0000 0.9588 -0.2840
vn -0.0000 -0.0000 -1.0000
vn -0.0174 -0.9992 0.0348
vn 0.0174 0.9992 -0.0348
vn -0.9232 0.0428 0.3820
vn -0.3818 0.0522 0.9228
vn 0.3834 0.0388 0.9228
vn 0.9241 0.0106 0.3820
vn 0.9237 -0.0160 -0.3829
vn 0.3823 -0.0254 -0.9237
vn -0.3829 -0.0121 -0.9237
vn -0.9237 0.0161 -0.3829
vn -0.0098 -0.9852 0.1709
vn 0.0098 0.9852 -0.1709
vn -0.9231 0.0799 0.3761
vn -0.3810 0.1670 0.9094
vn 0.3843 0.1594 0.9094
vn 0.9245 0.0616 0.3761
vn 0.9232 -0.0692 -0.3780
vn 0.3811 -0.1563 -0.9112
vn -0.3842 -0.1487 -0.9112
vn -0.9244 -0.0509 -0.3780
vn 0.0174 -0.9992 0.0348
vn -0.0174 0.9992 -0.0348
vn -0.9241 0.0106 0.3820
vn -0.3834 0.0388 0.9228
vn 0.3818 0.0522 0.9228
vn 0.9232 0.0428 0.3820
vn 0.9237 0.0161 -0.3829
vn 0.3829 -0.0121 -0.9237
vn -0.3823 -0.0254 -0.9237
vn -0.9237 -0.0160 -0.3829
vn 0.0098 -0.9852 0.1709
vn -0.0098 0.9852 -0.1709
vn -0.9245 0.0616 0.3761
vn -0.3843 0.1594 0.9094
vn 0.3810 0.1670 0.9094
vn 0.9231 0.0799 0.3761
vn 0.9244 -0.0509 -0.3780
vn 0.3842 -0.1487 -0.9112
vn -0.3811 -0.1563 -0.9112
vn -0.9232 -0.0692 -0.3780
vn -0.0000 -1.0000 -0.0000
vn 0.2791 -0.6842 0.6738
vn 0.6674 -0.6915 0.2765
vn 0.7855 -0.6189 -0.0000
vn 0.6674 -0.6915 -0.2765
vn 0.2791 -0.6842 -0.6738
vn -0.0000 -0.6014 -0.7990
vn -0.2791 -0.6842 -0.6738
vn -0.6674 -0.6915 -0.2765
vn -0.7855 -0.6189 -0.0000
vn -0.6674 -0.6915 0.2765
vn -0.2791 -0.6842 0.6738
vn -0.0000 -0.6014 0.7990
vn 0.3827 -0.0000 0.9239
vn 0.9239 -0.0000 0.3827
vn 0.9239 -0.0000 -0.3827
vn 0.3827 -0.0000 -0.9239
vn -0.3827 -0.0000 -0.9239
vn -0.9239 -0.0000 -0.3827
vn -0.9239 -0.0000 0.3827
vn -0.3827 -0.0000 0.9239
vn -0.0000 1.0000 -0.0000
vn 0.2791 0.6842 0.6738
vn 0.6674 0.6915 0.2765
vn 0.7855 0.6189 -0.0000
vn 0.6674 0.6915 -0.2765
vn 0.2791 0.6842 -0.6738
vn -0.0000 0.6014 -0.7990
vn -0.2791 0.6842 -0.6738
vn -0.6674 0.6915 -0.2765
vn -0.7855 0.6189 -0.0000
vn -0.6674 0.6915 0.2765
vn -0.2791 0.6842 0.6738
vn -0.0000 0.6014 0.7990
vn 0.2796 -0.6827 0.6750
vn 0.6658 -0.6933 0.2758
vn 0.7814 -0.6240 -0.0000
vn 0.6658 -0.6933 -0.2758
vn 0.2796 -0.6827 -0.6750
vn -0.0000 -0.5986 -0.8010
vn -0.2796 -0.6827 -0.6750
vn -0.6658 -0.6933 -0.2758
vn -0.7814 -0.6240 -0.0000
vn -0.6658 -0.6933 0.2758
vn -0.2796 -0.6827 0.6750
vn -0.0000 -0.5986 0.8010
vn 0.2796 0.6827 0.6750
vn 0.6658 0.6933 0.2758
vn 0.7814 0.6241 -0.0000
vn 0.6658 0.6933 -0.2758
vn 0.2796 0.6827 -0.6750
vn -0.0000 0.5986 -0.8010
vn -0.2796 0.6827 -0.6750
vn -0.6658 0.6933 -0.2758
vn -0.7814 0.6241 -0.0000
vn -0.6658 0.6933 0.2758
vn -0.2796 0.6827 0.6750
vn -0.0000 0.5986 0.8010
vn 0.3786 0.1462 0.9139
vn 0.9222 0.0611 0.3820
vn 0.9222 -0.0611 -0.3820
vn 0.3786 -0.1462 -0.9139
vn -0.0000 -0.1580 -0.9874
vn -0.3786 -0.1462 -0.9139
vn -0.9222 -0.0611 -0.3820
vn -0.9222 0.0611 0.3820
vn -0.3786 0.1462 0.9139
vn -0.0000 0.1580 0.9874
vn 0.3780 0.1558 0.9126
vn 0.9219 0.0652 0.3819
vn 0.9219 -0.0652 -0.3819
vn 0.3780 -0.1558 -0.9126
vn -0.0000 -0.1683 -0.9857
vn -0.3780 -0.1558 -0.9126
vn -0.9219 -0.0652 -0.3819
vn -0.9219 0.0652 0.3819
vn -0.3780 0.1558 0.9126
vn -0.0000 0.1683 0.9857
vn -0.0000 -0.9861 0.1664
vn -0.0000 0.9861 -0.1664
vn -0.8660 0.0868 0.4924
vn -0.0000 0.1700 0.9854
vn 0.8660 0.0868 0.4924
vn 0.8660 -0.0797 -0.4936
vn -0.0000 -0.1629 -0.9866
vn -0.8660 -0.0797 -0.4936
vt 0.812500 0.937500
vt 0.437500 0.937500
vt 0.812500 0.687500
s 0
usemtl FN_Atlas
f 1/1/1 2/1/1 3/1/1 4/1/1 5/1/1 6/1/1 7/1/1 8/1/1 9/1/1 10/1/1 11/1/1 12/1/1 13/1/1 14/1/1 15/1/1 16/1/1 17/1/1 18/1/1
f 19/1/2 20/1/2 21/1/2 22/1/2 23/1/2 24/1/2 25/1/2 26/1/2 27/1/2 28/1/2 29/1/2 30/1/2 31/1/2 32/1/2 33/1/2 34/1/2 35/1/2 36/1/2
f 18/1/3 17/1/3 20/1/3 19/1/3
f 17/1/4 16/1/4 21/1/4 20/1/4
f 16/1/5 15/1/5 22/1/5 21/1/5
f 15/1/6 14/1/6 23/1/6 22/1/6
f 14/1/7 13/1/7 24/1/7 23/1/7
f 13/1/8 12/1/8 25/1/8 24/1/8
f 12/1/9 11/1/9 26/1/9 25/1/9
f 11/1/10 10/1/10 27/1/10 26/1/10
f 10/1/11 9/1/11 28/1/11 27/1/11
f 9/1/12 8/1/12 29/1/12 28/1/12
f 8/1/13 7/1/13 30/1/13 29/1/13
f 7/1/14 6/1/14 31/1/14 30/1/14
f 6/1/15 5/1/15 32/1/15 31/1/15
f 5/1/16 4/1/16 33/1/16 32/1/16
f 4/1/17 3/1/17 34/1/17 33/1/17
f 3/1/18 2/1/18 35/1/18 34/1/18
f 2/1/19 1/1/19 36/1/19 35/1/19
f 1/1/20 18/1/20 19/1/20 36/1/20
f 37/1/2 38/1/2 39/1/2 40/1/2 41/1/2 42/1/2 43/1/2 44/1/2 45/1/2 46/1/2 47/1/2 48/1/2 49/1/2 50/1/2 51/1/2 52/1/2 53/1/2 54/1/2
f 55/1/1 56/1/1 57/1/1 58/1/1 59/1/1 60/1/1 61/1/1 62/1/1 63/1/1 64/1/1 65/1/1 66/1/1 67/1/1 68/1/1 69/1/1 70/1/1 71/1/1 72/1/1
f 54/1/3 53/1/3 56/1/3 55/1/3
f 53/1/4 52/1/4 57/1/4 56/1/4
f 52/1/5 51/1/5 58/1/5 57/1/5
f 51/1/6 50/1/6 59/1/6 58/1/6
f 50/1/7 49/1/7 60/1/7 59/1/7
f 49/1/8 48/1/8 61/1/8 60/1/8
f 48/1/9 47/1/9 62/1/9 61/1/9
f 47/1/10 46/1/10 63/1/10 62/1/10
f 46/1/20 45/1/20 64/1/20 63/1/20
f 45/1/12 44/1/12 65/1/12 64/1/12
f 44/1/13 43/1/13 66/1/13 65/1/13
f 43/1/14 42/1/14 67/1/14 66/1/14
f 42/1/15 41/1/15 68/1/15 67/1/15
f 41/1/16 40/1/16 69/1/16 68/1/16
f 40/1/17 39/1/17 70/1/17 69/1/17
f 39/1/18 38/1/18 71/1/18 70/1/18
f 38/1/19 37/1/19 72/1/19 71/1/19
f 37/1/11 54/1/11 55/1/11 72/1/11
f 73/2/21 74/2/21 75/2/21 76/2/21 77/2/21 78/2/21 79/2/21 80/2/21
f 81/2/22 82/2/22 83/2/22 84/2/22 85/2/22 86/2/22 87/2/22 88/2/22
f 80/2/23 79/2/23 82/2/23 81/2/23
f 79/2/24 78/2/24 83/2/24 82/2/24
f 78/2/25 77/2/25 84/2/25 83/2/25
f 77/2/26 76/2/26 85/2/26 84/2/26
f 76/2/27 75/2/27 86/2/27 85/2/27
f 75/2/28 74/2/28 87/2/28 86/2/28
f 74/2/29 73/2/29 88/2/29 87/2/29
f 73/2/30 80/2/30 81/2/30 88/2/30
f 89/2/31 90/2/31 91/2/31 92/2/31 93/2/31 94/2/31 95/2/31 96/2/31
f 97/2/32 98/2/32 99/2/32 100/2/32 101/2/32 102/2/32 103/2/32 104/2/32
f 96/2/33 95/2/33 98/2/33 97/2/33
f 95/2/34 94/2/34 99/2/34 98/2/34
f 94/2/35 93/2/35 100/2/35 99/2/35
f 93/2/36 92/2/36 101/2/36 100/2/36
f 92/2/37 91/2/37 102/2/37 101/2/37
f 91/2/38 90/2/38 103/2/38 102/2/38
f 90/2/39 89/2/39 104/2/39 103/2/39
f 89/2/40 96/2/40 97/2/40 104/2/40
f 105/2/41 106/2/41 107/2/41 108/2/41 109/2/41 110/2/41 111/2/41 112/2/41
f 113/2/42 114/2/42 115/2/42 116/2/42 117/2/42 118/2/42 119/2/42 120/2/42
f 112/2/43 111/2/43 114/2/43 113/2/43
f 111/2/44 110/2/44 115/2/44 114/2/44
f 110/2/45 109/2/45 116/2/45 115/2/45
f 109/2/46 108/2/46 117/2/46 116/2/46
f 108/2/47 107/2/47 118/2/47 117/2/47
f 107/2/48 106/2/48 119/2/48 118/2/48
f 106/2/49 105/2/49 120/2/49 119/2/49
f 105/2/50 112/2/50 113/2/50 120/2/50
f 121/2/51 122/2/51 123/2/51 124/2/51 125/2/51 126/2/51 127/2/51 128/2/51
f 129/2/52 130/2/52 131/2/52 132/2/52 133/2/52 134/2/52 135/2/52 136/2/52
f 128/2/53 127/2/53 130/2/53 129/2/53
f 127/2/54 126/2/54 131/2/54 130/2/54
f 126/2/55 125/2/55 132/2/55 131/2/55
f 125/2/56 124/2/56 133/2/56 132/2/56
f 124/2/57 123/2/57 134/2/57 133/2/57
f 123/2/58 122/2/58 135/2/58 134/2/58
f 122/2/59 121/2/59 136/2/59 135/2/59
f 121/2/60 128/2/60 129/2/60 136/2/60
f 137/1/61 138/1/61 139/1/61 140/1/61 141/1/61 142/1/61 143/1/61 144/1/61 145/1/61 146/1/61 147/1/61 148/1/61
f 148/1/62 147/1/62 149/1/62 150/1/62
f 147/1/63 146/1/63 151/1/63 149/1/63
f 146/1/64 145/1/64 152/1/64 151/1/64
f 145/1/65 144/1/65 153/1/65 152/1/65
f 144/1/66 143/1/66 154/1/66 153/1/66
f 143/1/67 142/1/67 155/1/67 154/1/67
f 142/1/68 141/1/68 156/1/68 155/1/68
f 141/1/69 140/1/69 157/1/69 156/1/69
f 140/1/70 139/1/70 158/1/70 157/1/70
f 139/1/71 138/1/71 159/1/71 158/1/71
f 138/1/72 137/1/72 160/1/72 159/1/72
f 137/1/73 148/1/73 150/1/73 160/1/73
f 150/1/74 149/1/74 161/1/74 162/1/74
f 149/1/75 151/1/75 163/1/75 161/1/75
f 151/1/1 152/1/1 164/1/1 163/1/1
f 152/1/76 153/1/76 165/1/76 164/1/76
f 153/1/77 154/1/77 166/1/77 165/1/77
f 154/1/20 155/1/20 167/1/20 166/1/20
f 155/1/78 156/1/78 168/1/78 167/1/78
f 156/1/79 157/1/79 169/1/79 168/1/79
f 157/1/2 158/1/2 170/1/2 169/1/2
f 158/1/80 159/1/80 171/1/80 170/1/80
f 159/1/81 160/1/81 172/1/81 171/1/81
f 160/1/11 150/1/11 162/1/11 172/1/11
f 173/2/82 174/2/82 175/2/82 176/2/82 177/2/82 178/2/82 179/2/82 180/2/82 181/2/82 182/2/82 183/2/82 184/2/82
f 162/1/83 161/1/83 174/1/83 173/1/83
f 161/1/84 163/1/84 175/1/84 174/1/84
f 163/1/85 164/1/85 176/1/85 175/1/85
f 164/1/86 165/1/86 177/1/86 176/1/86
f 165/1/87 166/1/87 178/1/87 177/1/87
f 166/1/88 167/1/88 179/1/88 178/1/88
f 167/1/89 168/1/89 180/1/89 179/1/89
f 168/1/90 169/1/90 181/1/90 180/1/90
f 169/1/91 170/1/91 182/1/91 181/1/91
f 170/1/92 171/1/92 183/1/92 182/1/92
f 171/1/93 172/1/93 184/1/93 183/1/93
f 172/1/94 162/1/94 173/1/94 184/1/94
f 185/3/61 186/3/61 187/3/61 188/3/61 189/3/61 190/3/61 191/3/61 192/3/61 193/3/61 194/3/61 195/3/61 196/3/61
f 196/3/95 195/3/95 197/3/95 198/3/95
f 195/3/96 194/3/96 199/3/96 197/3/96
f 194/3/97 193/3/97 200/3/97 199/3/97
f 193/3/98 192/3/98 201/3/98 200/3/98
f 192/3/99 191/3/99 202/3/99 201/3/99
f 191/3/100 190/3/100 203/3/100 202/3/100
f 190/3/101 189/3/101 204/3/101 203/3/101
f 189/3/102 188/3/102 205/3/102 204/3/102
f 188/3/103 187/3/103 206/3/103 205/3/103
f 187/3/104 186/3/104 207/3/104 206/3/104
f 186/3/105 185/3/105 208/3/105 207/3/105
f 185/3/106 196/3/106 198/3/106 208/3/106
f 198/3/74 197/3/74 209/3/74 210/3/74
f 197/3/75 199/3/75 211/3/75 209/3/75
f 199/3/1 200/3/1 212/3/1 211/3/1
f 200/3/76 201/3/76 213/3/76 212/3/76
f 201/3/77 202/3/77 214/3/77 213/3/77
f 202/3/20 203/3/20 215/3/20 214/3/20
f 203/3/78 204/3/78 216/3/78 215/3/78
f 204/3/79 205/3/79 217/3/79 216/3/79
f 205/3/2 206/3/2 218/3/2 217/3/2
f 206/3/80 207/3/80 219/3/80 218/3/80
f 207/3/81 208/3/81 220/3/81 219/3/81
f 208/3/11 198/3/11 210/3/11 220/3/11
f 221/3/82 222/3/82 223/3/82 224/3/82 225/3/82 226/3/82 227/3/82 228/3/82 229/3/82 230/3/82 231/3/82 232/3/82
f 210/3/107 209/3/107 222/3/107 221/3/107
f 209/3/108 211/3/108 223/3/108 222/3/108
f 211/3/109 212/3/109 224/3/109 223/3/109
f 212/3/110 213/3/110 225/3/110 224/3/110
f 213/3/111 214/3/111 226/3/111 225/3/111
f 214/3/112 215/3/112 227/3/112 226/3/112
f 215/3/113 216/3/113 228/3/113 227/3/113
f 216/3/114 217/3/114 229/3/114 228/3/114
f 217/3/115 218/3/115 230/3/115 229/3/115
f 218/3/116 219/3/116 231/3/116 230/3/116
f 219/3/117 220/3/117 232/3/117 231/3/117
f 220/3/118 210/3/118 221/3/118 232/3/118
f 233/2/61 234/2/61 235/2/61 236/2/61 237/2/61 238/2/61 239/2/61 240/2/61 241/2/61 242/2/61 243/2/61 244/2/61
f 245/2/82 246/2/82 247/2/82 248/2/82 249/2/82 250/2/82 251/2/82 252/2/82 253/2/82 254/2/82 255/2/82 256/2/82
f 244/2/119 243/2/119 246/2/119 245/2/119
f 243/2/120 242/2/120 247/2/120 246/2/120
f 242/2/1 241/2/1 248/2/1 247/2/1
f 241/2/121 240/2/121 249/2/121 248/2/121
f 240/2/122 239/2/122 250/2/122 249/2/122
f 239/2/123 238/2/123 251/2/123 250/2/123
f 238/2/124 237/2/124 252/2/124 251/2/124
f 237/2/125 236/2/125 253/2/125 252/2/125
f 236/2/2 235/2/2 254/2/2 253/2/2
f 235/2/126 234/2/126 255/2/126 254/2/126
f 234/2/127 233/2/127 256/2/127 255/2/127
f 233/2/128 244/2/128 245/2/128 256/2/128
f 257/2/61 258/2/61 259/2/61 260/2/61 261/2/61 262/2/61 263/2/61 264/2/61 265/2/61 266/2/61 267/2/61 268/2/61
f 269/2/82 270/2/82 271/2/82 272/2/82 273/2/82 274/2/82 275/2/82 276/2/82 277/2/82 278/2/82 279/2/82 280/2/82
f 268/2/129 267/2/129 270/2/129 269/2/129
f 267/2/130 266/2/130 271/2/130 270/2/130
f 266/2/1 265/2/1 272/2/1 271/2/1
f 265/2/131 264/2/131 273/2/131 272/2/131
f 264/2/132 263/2/132 274/2/132 273/2/132
f 263/2/133 262/2/133 275/2/133 274/2/133
f 262/2/134 261/2/134 276/2/134 275/2/134
f 261/2/135 260/2/135 277/2/135 276/2/135
f 260/2/2 259/2/2 278/2/2 277/2/2
f 259/2/136 258/2/136 279/2/136 278/2/136
f 258/2/137 257/2/137 280/2/137 279/2/137
f 257/2/138 268/2/138 269/2/138 280/2/138
f 281/2/139 282/2/139 283/2/139 284/2/139 285/2/139 286/2/139
f 287/2/140 288/2/140 289/2/140 290/2/140 291/2/140 292/2/140
f 286/2/141 285/2/141 288/2/141 287/2/141
f 285/2/142 284/2/142 289/2/142 288/2/142
f 284/2/143 283/2/143 290/2/143 289/2/143
f 283/2/144 282/2/144 291/2/144 290/2/144
f 282/2/145 281/2/145 292/2/145 291/2/145
f 281/2/146 286/2/146 287/2/146 292/2/146
f 293/2/139 294/2/139 295/2/139 296/2/139 297/2/139 298/2/139
f 299/2/140 300/2/140 301/2/140 302/2/140 303/2/140 304/2/140
f 298/2/141 297/2/141 300/2/141 299/2/141
f 297/2/142 296/2/142 301/2/142 300/2/142
f 296/2/143 295/2/143 302/2/143 301/2/143
f 295/2/144 294/2/144 303/2/144 302/2/144
f 294/2/145 293/2/145 304/2/145 303/2/145
f 293/2/146 298/2/146 299/2/146 304/2/146
f 305/2/139 306/2/139 307/2/139 308/2/139 309/2/139 310/2/139
f 311/2/140 312/2/140 313/2/140 314/2/140 315/2/140 316/2/140
f 310/2/141 309/2/141 312/2/141 311/2/141
f 309/2/142 308/2/142 313/2/142 312/2/142
f 308/2/143 307/2/143 314/2/143 313/2/143
f 307/2/144 306/2/144 315/2/144 314/2/144
f 306/2/145 305/2/145 316/2/145 315/2/145
f 305/2/146 310/2/146 311/2/146 316/2/146
f 317/2/139 318/2/139 319/2/139 320/2/139 321/2/139 322/2/139
f 323/2/140 324/2/140 325/2/140 326/2/140 327/2/140 328/2/140
f 322/2/141 321/2/141 324/2/141 323/2/141
f 321/2/142 320/2/142 325/2/142 324/2/142
f 320/2/143 319/2/143 326/2/143 325/2/143
f 319/2/144 318/2/144 327/2/144 326/2/144
f 318/2/145 317/2/145 328/2/145 327/2/145
f 317/2/146 322/2/146 323/2/146 328/2/146
f 329/2/139 330/2/139 331/2/139 332/2/139 333/2/139 334/2/139
f 335/2/140 336/2/140 337/2/140 338/2/140 339/2/140 340/2/140
f 334/2/141 333/2/141 336/2/141 335/2/141
f 333/2/142 332/2/142 337/2/142 336/2/142
f 332/2/143 331/2/143 338/2/143 337/2/143
f 331/2/144 330/2/144 339/2/144 338/2/144
f 330/2/145 329/2/145 340/2/145 339/2/145
f 329/2/146 334/2/146 335/2/146 340/2/146
