# Blender 5.2.0 LTS
# www.blender.org
mtllib FN_Cart_Bar.mtl
o FN_Cart_Bar
v -0.362607 0.062532 0.165393
v -0.352000 0.062532 0.161000
v -0.341393 0.062532 0.165393
v -0.337000 0.062532 0.176000
v -0.341393 0.062532 0.186607
v -0.352000 0.062532 0.191000
v -0.362607 0.062532 0.186607
v -0.367000 0.062532 0.176000
v -0.367000 0.956532 0.176000
v -0.362607 0.956532 0.186607
v -0.352000 0.956532 0.191000
v -0.341393 0.956532 0.186607
v -0.337000 0.956532 0.176000
v -0.341393 0.956532 0.165393
v -0.352000 0.956532 0.161000
v -0.362607 0.956532 0.165393
v -0.376000 0.056532 0.200000
v -0.376000 0.056532 0.152000
v -0.328000 0.056532 0.152000
v -0.328000 0.056532 0.200000
v -0.376000 0.072532 0.200000
v -0.328000 0.072532 0.200000
v -0.328000 0.072532 0.152000
v -0.376000 0.072532 0.152000
v -0.373000 0.026532 0.186000
v -0.373000 0.026532 0.166000
v -0.331000 0.026532 0.166000
v -0.331000 0.026532 0.186000
v -0.373000 0.064532 0.186000
v -0.331000 0.064532 0.186000
v -0.331000 0.064532 0.166000
v -0.373000 0.064532 0.166000
v -0.363000 0.010898 0.151729
v -0.363000 0.000000 0.166729
v -0.363000 0.000000 0.185271
v -0.363000 0.010898 0.200271
v -0.363000 0.028532 0.206000
v -0.363000 0.046165 0.200271
v -0.363000 0.057063 0.185271
v -0.363000 0.057063 0.166729
v -0.363000 0.046165 0.151729
v -0.363000 0.028532 0.146000
v -0.341000 0.028532 0.146000
v -0.341000 0.046165 0.151729
v -0.341000 0.057063 0.166729
v -0.341000 0.057063 0.185271
v -0.341000 0.046165 0.200271
v -0.341000 0.028532 0.206000
v -0.341000 0.010898 0.200271
v -0.341000 0.000000 0.185271
v -0.341000 0.000000 0.166729
v -0.341000 0.010898 0.151729
v -0.362607 0.062532 -0.186607
v -0.352000 0.062532 -0.191000
v -0.341393 0.062532 -0.186607
v -0.337000 0.062532 -0.176000
v -0.341393 0.062532 -0.165393
v -0.352000 0.062532 -0.161000
v -0.362607 0.062532 -0.165393
v -0.367000 0.062532 -0.176000
v -0.367000 0.956532 -0.176000
v -0.362607 0.956532 -0.165393
v -0.352000 0.956532 -0.161000
v -0.341393 0.956532 -0.165393
v -0.337000 0.956532 -0.176000
v -0.341393 0.956532 -0.186607
v -0.352000 0.956532 -0.191000
v -0.362607 0.956532 -0.186607
v -0.376000 0.056532 -0.152000
v -0.376000 0.056532 -0.200000
v -0.328000 0.056532 -0.200000
v -0.328000 0.056532 -0.152000
v -0.376000 0.072532 -0.152000
v -0.328000 0.072532 -0.152000
v -0.328000 0.072532 -0.200000
v -0.376000 0.072532 -0.200000
v -0.373000 0.026532 -0.166000
v -0.373000 0.026532 -0.186000
v -0.331000 0.026532 -0.186000
v -0.331000 0.026532 -0.166000
v -0.373000 0.064532 -0.166000
v -0.331000 0.064532 -0.166000
v -0.331000 0.064532 -0.186000
v -0.373000 0.064532 -0.186000
v -0.363000 0.010898 -0.200271
v -0.363000 0.000000 -0.185271
v -0.363000 0.000000 -0.166729
v -0.363000 0.010898 -0.151729
v -0.363000 0.028532 -0.146000
v -0.363000 0.046165 -0.151729
v -0.363000 0.057063 -0.166729
v -0.363000 0.057063 -0.185271
v -0.363000 0.046165 -0.200271
v -0.363000 0.028532 -0.206000
v -0.341000 0.028532 -0.206000
v -0.341000 0.046165 -0.200271
v -0.341000 0.057063 -0.185271
v -0.341000 0.057063 -0.166729
v -0.341000 0.046165 -0.151729
v -0.341000 0.028532 -0.146000
v -0.341000 0.010898 -0.151729
v -0.341000 0.000000 -0.166729
v -0.341000 0.000000 -0.185271
v -0.341000 0.010898 -0.200271
v 0.341393 0.062532 0.165393
v 0.352000 0.062532 0.161000
v 0.362607 0.062532 0.165393
v 0.367000 0.062532 0.176000
v 0.362607 0.062532 0.186607
v 0.352000 0.062532 0.191000
v 0.341393 0.062532 0.186607
v 0.337000 0.062532 0.176000
v 0.337000 0.818532 0.176000
v 0.341393 0.818532 0.186607
v 0.352000 0.818532 0.191000
v 0.362607 0.818532 0.186607
v 0.367000 0.818532 0.176000
v 0.362607 0.818532 0.165393
v 0.352000 0.818532 0.161000
v 0.341393 0.818532 0.165393
v 0.328000 0.056532 0.200000
v 0.328000 0.056532 0.152000
v 0.376000 0.056532 0.152000
v 0.376000 0.056532 0.200000
v 0.328000 0.072532 0.200000
v 0.376000 0.072532 0.200000
v 0.376000 0.072532 0.152000
v 0.328000 0.072532 0.152000
v 0.331000 0.026532 0.186000
v 0.331000 0.026532 0.166000
v 0.373000 0.026532 0.166000
v 0.373000 0.026532 0.186000
v 0.331000 0.064532 0.186000
v 0.373000 0.064532 0.186000
v 0.373000 0.064532 0.166000
v 0.331000 0.064532 0.166000
v 0.341000 0.010898 0.151729
v 0.341000 0.000000 0.166729
v 0.341000 0.000000 0.185271
v 0.341000 0.010898 0.200271
v 0.341000 0.028532 0.206000
v 0.341000 0.046165 0.200271
v 0.341000 0.057063 0.185271
v 0.341000 0.057063 0.166729
v 0.341000 0.046165 0.151729
v 0.341000 0.028532 0.146000
v 0.363000 0.028532 0.146000
v 0.363000 0.046165 0.151729
v 0.363000 0.057063 0.166729
v 0.363000 0.057063 0.185271
v 0.363000 0.046165 0.200271
v 0.363000 0.028532 0.206000
v 0.363000 0.010898 0.200271
v 0.363000 0.000000 0.185271
v 0.363000 0.000000 0.166729
v 0.363000 0.010898 0.151729
v 0.341393 0.062532 -0.186607
v 0.352000 0.062532 -0.191000
v 0.362607 0.062532 -0.186607
v 0.367000 0.062532 -0.176000
v 0.362607 0.062532 -0.165393
v 0.352000 0.062532 -0.161000
v 0.341393 0.062532 -0.165393
v 0.337000 0.062532 -0.176000
v 0.337000 0.818532 -0.176000
v 0.341393 0.818532 -0.165393
v 0.352000 0.818532 -0.161000
v 0.362607 0.818532 -0.165393
v 0.367000 0.818532 -0.176000
v 0.362607 0.818532 -0.186607
v 0.352000 0.818532 -0.191000
v 0.341393 0.818532 -0.186607
v 0.328000 0.056532 -0.152000
v 0.328000 0.056532 -0.200000
v 0.376000 0.056532 -0.200000
v 0.376000 0.056532 -0.152000
v 0.328000 0.072532 -0.152000
v 0.376000 0.072532 -0.152000
v 0.376000 0.072532 -0.200000
v 0.328000 0.072532 -0.200000
v 0.331000 0.026532 -0.166000
v 0.331000 0.026532 -0.186000
v 0.373000 0.026532 -0.186000
v 0.373000 0.026532 -0.166000
v 0.331000 0.064532 -0.166000
v 0.373000 0.064532 -0.166000
v 0.373000 0.064532 -0.186000
v 0.331000 0.064532 -0.186000
v 0.341000 0.010898 -0.200271
v 0.341000 0.000000 -0.185271
v 0.341000 0.000000 -0.166729
v 0.341000 0.010898 -0.151729
v 0.341000 0.028532 -0.146000
v 0.341000 0.046165 -0.151729
v 0.341000 0.057063 -0.166729
v 0.341000 0.057063 -0.185271
v 0.341000 0.046165 -0.200271
v 0.341000 0.028532 -0.206000
v 0.363000 0.028532 -0.206000
v 0.363000 0.046165 -0.200271
v 0.363000 0.057063 -0.185271
v 0.363000 0.057063 -0.166729
v 0.363000 0.046165 -0.151729
v 0.363000 0.028532 -0.146000
v 0.363000 0.010898 -0.151729
v 0.363000 0.000000 -0.166729
v 0.363000 0.000000 -0.185271
v 0.363000 0.010898 -0.200271
v -0.341393 0.967138 0.176000
v -0.352000 0.971532 0.176000
v -0.362607 0.967138 0.176000
v -0.362607 0.945925 0.176000
v -0.352000 0.941532 0.176000
v -0.341393 0.945925 0.176000
v -0.341393 0.945925 -0.176000
v -0.352000 0.941532 -0.176000
v -0.362607 0.945925 -0.176000
v -0.362607 0.967138 -0.176000
v -0.352000 0.971532 -0.176000
v -0.341393 0.967138 -0.176000
v -0.395596 0.228532 -0.212633
v 0.395596 0.228532 -0.212633
v 0.395596 0.228532 0.212633
v -0.395596 0.228532 0.212633
v 0.400000 0.233532 0.215000
v -0.400000 0.233532 0.215000
v 0.400000 0.233532 -0.215000
v -0.400000 0.233532 -0.215000
v 0.400000 0.245532 0.215000
v -0.400000 0.245532 0.215000
v 0.400000 0.245532 -0.215000
v -0.400000 0.245532 -0.215000
v -0.395596 0.250532 0.212633
v 0.395596 0.250532 0.212633
v 0.395596 0.250532 -0.212633
v -0.395596 0.250532 -0.212633
v -0.395596 0.796532 -0.212633
v 0.395596 0.796532 -0.212633
v 0.395596 0.796532 0.212633
v -0.395596 0.796532 0.212633
v 0.400000 0.801532 0.215000
v -0.400000 0.801532 0.215000
v 0.400000 0.801532 -0.215000
v -0.400000 0.801532 -0.215000
v 0.400000 0.813532 0.215000
v -0.400000 0.813532 0.215000
v 0.400000 0.813532 -0.215000
v -0.400000 0.813532 -0.215000
v -0.395596 0.818532 0.212633
v 0.395596 0.818532 0.212633
v 0.395596 0.818532 -0.212633
v -0.395596 0.818532 -0.212633
v -0.340000 0.814532 0.153072
v -0.332000 0.814532 0.153072
v -0.328000 0.814532 0.160000
v -0.332000 0.814532 0.166928
v -0.340000 0.814532 0.166928
v -0.344000 0.814532 0.160000
v -0.344000 0.870532 0.160000
v -0.340000 0.870532 0.166928
v -0.332000 0.870532 0.166928
v -0.328000 0.870532 0.160000
v -0.332000 0.870532 0.153072
v -0.340000 0.870532 0.153072
v 0.332000 0.814532 0.153072
v 0.340000 0.814532 0.153072
v 0.344000 0.814532 0.160000
v 0.340000 0.814532 0.166928
v 0.332000 0.814532 0.166928
v 0.328000 0.814532 0.160000
v 0.328000 0.870532 0.160000
v 0.332000 0.870532 0.166928
v 0.340000 0.870532 0.166928
v 0.344000 0.870532 0.160000
v 0.340000 0.870532 0.153072
v 0.332000 0.870532 0.153072
v -0.336000 0.877460 0.164000
v -0.336000 0.877460 0.156000
v -0.336000 0.870532 0.152000
v -0.336000 0.863604 0.156000
v -0.336000 0.863604 0.164000
v -0.336000 0.870532 0.168000
v 0.336000 0.870532 0.168000
v 0.336000 0.863604 0.164000
v 0.336000 0.863604 0.156000
v 0.336000 0.870532 0.152000
v 0.336000 0.877460 0.156000
v 0.336000 0.877460 0.164000
v -0.340000 0.814532 -0.166928
v -0.332000 0.814532 -0.166928
v -0.328000 0.814532 -0.160000
v -0.332000 0.814532 -0.153072
v -0.340000 0.814532 -0.153072
v -0.344000 0.814532 -0.160000
v -0.344000 0.870532 -0.160000
v -0.340000 0.870532 -0.153072
v -0.332000 0.870532 -0.153072
v -0.328000 0.870532 -0.160000
v -0.332000 0.870532 -0.166928
v -0.340000 0.870532 -0.166928
v 0.332000 0.814532 -0.166928
v 0.340000 0.814532 -0.166928
v 0.344000 0.814532 -0.160000
v 0.340000 0.814532 -0.153072
v 0.332000 0.814532 -0.153072
v 0.328000 0.814532 -0.160000
v 0.328000 0.870532 -0.160000
v 0.332000 0.870532 -0.153072
v 0.340000 0.870532 -0.153072
v 0.344000 0.870532 -0.160000
v 0.340000 0.870532 -0.166928
v 0.332000 0.870532 -0.166928
v -0.336000 0.877460 -0.156000
v -0.336000 0.877460 -0.164000
v -0.336000 0.870532 -0.168000
v -0.336000 0.863604 -0.164000
v -0.336000 0.863604 -0.156000
v -0.336000 0.870532 -0.152000
v 0.336000 0.870532 -0.152000
v 0.336000 0.863604 -0.156000
v 0.336000 0.863604 -0.164000
v 0.336000 0.870532 -0.168000
v 0.336000 0.877460 -0.164000
v 0.336000 0.877460 -0.156000
v 0.340000 0.877460 0.160000
v 0.332000 0.877460 0.160000
v 0.332000 0.863604 0.160000
v 0.340000 0.863604 0.160000
v 0.340000 0.863604 -0.160000
v 0.332000 0.863604 -0.160000
v 0.332000 0.877460 -0.160000
v 0.340000 0.877460 -0.160000
vn -0.0000 -1.0000 -0.0000
vn -0.0000 1.0000 -0.0000
vn -0.9239 -0.0000 0.3827
vn -0.3827 -0.0000 0.9239
vn 0.3827 -0.0000 0.9239
vn 0.9239 -0.0000 0.3827
vn 0.9239 -0.0000 -0.3827
vn 0.3827 -0.0000 -0.9239
vn -0.3827 -0.0000 -0.9239
vn -0.9239 -0.0000 -0.3827
vn -0.0000 -0.0000 1.0000
vn -0.0000 -0.0000 -1.0000
vn -1.0000 -0.0000 -0.0000
vn 1.0000 -0.0000 -0.0000
vn -0.0000 0.3090 -0.9511
vn -0.0000 0.8090 -0.5878
vn -0.0000 0.8090 0.5878
vn -0.0000 0.3090 0.9511
vn -0.0000 -0.3090 0.9511
vn -0.0000 -0.8090 0.5878
vn -0.0000 -0.8090 -0.5878
vn -0.0000 -0.3090 -0.9511
vn 0.9239 -0.3827 -0.0000
vn 0.3827 -0.9239 -0.0000
vn -0.3827 -0.9239 -0.0000
vn -0.9239 -0.3827 -0.0000
vn -0.9239 0.3827 -0.0000
vn -0.3827 0.9239 -0.0000
vn 0.3827 0.9239 -0.0000
vn 0.9239 0.3827 -0.0000
vn -0.0000 -0.4279 0.9038
vn 0.7504 -0.6610 -0.0000
vn -0.0000 -0.4279 -0.9038
vn -0.7504 -0.6610 -0.0000
vn -0.0000 0.4279 0.9038
vn 0.7504 0.6610 -0.0000
vn -0.0000 0.4279 -0.9038
vn -0.7504 0.6610 -0.0000
vn -0.8660 -0.0000 0.5000
vn 0.8660 -0.0000 0.5000
vn 0.8660 -0.0000 -0.5000
vn -0.8660 -0.0000 -0.5000
vn -0.0000 -0.5000 0.8660
vn -0.0000 -0.5000 -0.8660
vn -0.0000 0.5000 -0.8660
vn -0.0000 0.5000 0.8660
vn 0.8660 -0.5000 -0.0000
vn -0.8660 -0.5000 -0.0000
vn -0.8660 0.5000 -0.0000
vn 0.8660 0.5000 -0.0000
vt 0.437500 0.312500
vt 0.812500 0.312500
vt 0.937500 0.187500
vt 0.812500 0.937500
s 0
usemtl FN_Atlas
f 1/1/1 2/1/1 3/1/1 4/1/1 5/1/1 6/1/1 7/1/1 8/1/1
f 9/1/2 10/1/2 11/1/2 12/1/2 13/1/2 14/1/2 15/1/2 16/1/2
f 8/1/3 7/1/3 10/1/3 9/1/3
f 7/1/4 6/1/4 11/1/4 10/1/4
f 6/1/5 5/1/5 12/1/5 11/1/5
f 5/1/6 4/1/6 13/1/6 12/1/6
f 4/1/7 3/1/7 14/1/7 13/1/7
f 3/1/8 2/1/8 15/1/8 14/1/8
f 2/1/9 1/1/9 16/1/9 15/1/9
f 1/1/10 8/1/10 9/1/10 16/1/10
f 17/2/1 18/2/1 19/2/1 20/2/1
f 21/2/2 22/2/2 23/2/2 24/2/2
f 17/2/11 20/2/11 22/2/11 21/2/11
f 19/2/12 18/2/12 24/2/12 23/2/12
f 17/2/13 21/2/13 24/2/13 18/2/13
f 20/2/14 19/2/14 23/2/14 22/2/14
f 25/2/1 26/2/1 27/2/1 28/2/1
f 29/2/2 30/2/2 31/2/2 32/2/2
f 25/2/11 28/2/11 30/2/11 29/2/11
f 27/2/12 26/2/12 32/2/12 31/2/12
f 25/2/13 29/2/13 32/2/13 26/2/13
f 28/2/14 27/2/14 31/2/14 30/2/14
f 33/3/13 34/3/13 35/3/13 36/3/13 37/3/13 38/3/13 39/3/13 40/3/13 41/3/13 42/3/13
f 43/3/14 44/3/14 45/3/14 46/3/14 47/3/14 48/3/14 49/3/14 50/3/14 51/3/14 52/3/14
f 42/3/15 41/3/15 44/3/15 43/3/15
f 41/3/16 40/3/16 45/3/16 44/3/16
f 40/3/2 39/3/2 46/3/2 45/3/2
f 39/3/17 38/3/17 47/3/17 46/3/17
f 38/3/18 37/3/18 48/3/18 47/3/18
f 37/3/19 36/3/19 49/3/19 48/3/19
f 36/3/20 35/3/20 50/3/20 49/3/20
f 35/3/1 34/3/1 51/3/1 50/3/1
f 34/3/21 33/3/21 52/3/21 51/3/21
f 33/3/22 42/3/22 43/3/22 52/3/22
f 53/1/1 54/1/1 55/1/1 56/1/1 57/1/1 58/1/1 59/1/1 60/1/1
f 61/1/2 62/1/2 63/1/2 64/1/2 65/1/2 66/1/2 67/1/2 68/1/2
f 60/1/3 59/1/3 62/1/3 61/1/3
f 59/1/4 58/1/4 63/1/4 62/1/4
f 58/1/5 57/1/5 64/1/5 63/1/5
f 57/1/6 56/1/6 65/1/6 64/1/6
f 56/1/7 55/1/7 66/1/7 65/1/7
f 55/1/8 54/1/8 67/1/8 66/1/8
f 54/1/9 53/1/9 68/1/9 67/1/9
f 53/1/10 60/1/10 61/1/10 68/1/10
f 69/2/1 70/2/1 71/2/1 72/2/1
f 73/2/2 74/2/2 75/2/2 76/2/2
f 69/2/11 72/2/11 74/2/11 73/2/11
f 71/2/12 70/2/12 76/2/12 75/2/12
f 69/2/13 73/2/13 76/2/13 70/2/13
f 72/2/14 71/2/14 75/2/14 74/2/14
f 77/2/1 78/2/1 79/2/1 80/2/1
f 81/2/2 82/2/2 83/2/2 84/2/2
f 77/2/11 80/2/11 82/2/11 81/2/11
f 79/2/12 78/2/12 84/2/12 83/2/12
f 77/2/13 81/2/13 84/2/13 78/2/13
f 80/2/14 79/2/14 83/2/14 82/2/14
f 85/3/13 86/3/13 87/3/13 88/3/13 89/3/13 90/3/13 91/3/13 92/3/13 93/3/13 94/3/13
f 95/3/14 96/3/14 97/3/14 98/3/14 99/3/14 100/3/14 101/3/14 102/3/14 103/3/14 104/3/14
f 94/3/15 93/3/15 96/3/15 95/3/15
f 93/3/16 92/3/16 97/3/16 96/3/16
f 92/3/2 91/3/2 98/3/2 97/3/2
f 91/3/17 90/3/17 99/3/17 98/3/17
f 90/3/18 89/3/18 100/3/18 99/3/18
f 89/3/19 88/3/19 101/3/19 100/3/19
f 88/3/20 87/3/20 102/3/20 101/3/20
f 87/3/1 86/3/1 103/3/1 102/3/1
f 86/3/21 85/3/21 104/3/21 103/3/21
f 85/3/22 94/3/22 95/3/22 104/3/22
f 105/1/1 106/1/1 107/1/1 108/1/1 109/1/1 110/1/1 111/1/1 112/1/1
f 113/1/2 114/1/2 115/1/2 116/1/2 117/1/2 118/1/2 119/1/2 120/1/2
f 112/1/3 111/1/3 114/1/3 113/1/3
f 111/1/4 110/1/4 115/1/4 114/1/4
f 110/1/5 109/1/5 116/1/5 115/1/5
f 109/1/6 108/1/6 117/1/6 116/1/6
f 108/1/7 107/1/7 118/1/7 117/1/7
f 107/1/8 106/1/8 119/1/8 118/1/8
f 106/1/9 105/1/9 120/1/9 119/1/9
f 105/1/10 112/1/10 113/1/10 120/1/10
f 121/2/1 122/2/1 123/2/1 124/2/1
f 125/2/2 126/2/2 127/2/2 128/2/2
f 121/2/11 124/2/11 126/2/11 125/2/11
f 123/2/12 122/2/12 128/2/12 127/2/12
f 121/2/13 125/2/13 128/2/13 122/2/13
f 124/2/14 123/2/14 127/2/14 126/2/14
f 129/2/1 130/2/1 131/2/1 132/2/1
f 133/2/2 134/2/2 135/2/2 136/2/2
f 129/2/11 132/2/11 134/2/11 133/2/11
f 131/2/12 130/2/12 136/2/12 135/2/12
f 129/2/13 133/2/13 136/2/13 130/2/13
f 132/2/14 131/2/14 135/2/14 134/2/14
f 137/3/13 138/3/13 139/3/13 140/3/13 141/3/13 142/3/13 143/3/13 144/3/13 145/3/13 146/3/13
f 147/3/14 148/3/14 149/3/14 150/3/14 151/3/14 152/3/14 153/3/14 154/3/14 155/3/14 156/3/14
f 146/3/15 145/3/15 148/3/15 147/3/15
f 145/3/16 144/3/16 149/3/16 148/3/16
f 144/3/2 143/3/2 150/3/2 149/3/2
f 143/3/17 142/3/17 151/3/17 150/3/17
f 142/3/18 141/3/18 152/3/18 151/3/18
f 141/3/19 140/3/19 153/3/19 152/3/19
f 140/3/20 139/3/20 154/3/20 153/3/20
f 139/3/1 138/3/1 155/3/1 154/3/1
f 138/3/21 137/3/21 156/3/21 155/3/21
f 137/3/22 146/3/22 147/3/22 156/3/22
f 157/1/1 158/1/1 159/1/1 160/1/1 161/1/1 162/1/1 163/1/1 164/1/1
f 165/1/2 166/1/2 167/1/2 168/1/2 169/1/2 170/1/2 171/1/2 172/1/2
f 164/1/3 163/1/3 166/1/3 165/1/3
f 163/1/4 162/1/4 167/1/4 166/1/4
f 162/1/5 161/1/5 168/1/5 167/1/5
f 161/1/6 160/1/6 169/1/6 168/1/6
f 160/1/7 159/1/7 170/1/7 169/1/7
f 159/1/8 158/1/8 171/1/8 170/1/8
f 158/1/9 157/1/9 172/1/9 171/1/9
f 157/1/10 164/1/10 165/1/10 172/1/10
f 173/2/1 174/2/1 175/2/1 176/2/1
f 177/2/2 178/2/2 179/2/2 180/2/2
f 173/2/11 176/2/11 178/2/11 177/2/11
f 175/2/12 174/2/12 180/2/12 179/2/12
f 173/2/13 177/2/13 180/2/13 174/2/13
f 176/2/14 175/2/14 179/2/14 178/2/14
f 181/2/1 182/2/1 183/2/1 184/2/1
f 185/2/2 186/2/2 187/2/2 188/2/2
f 181/2/11 184/2/11 186/2/11 185/2/11
f 183/2/12 182/2/12 188/2/12 187/2/12
f 181/2/13 185/2/13 188/2/13 182/2/13
f 184/2/14 183/2/14 187/2/14 186/2/14
f 189/3/13 190/3/13 191/3/13 192/3/13 193/3/13 194/3/13 195/3/13 196/3/13 197/3/13 198/3/13
f 199/3/14 200/3/14 201/3/14 202/3/14 203/3/14 204/3/14 205/3/14 206/3/14 207/3/14 208/3/14
f 198/3/15 197/3/15 200/3/15 199/3/15
f 197/3/16 196/3/16 201/3/16 200/3/16
f 196/3/2 195/3/2 202/3/2 201/3/2
f 195/3/17 194/3/17 203/3/17 202/3/17
f 194/3/18 193/3/18 204/3/18 203/3/18
f 193/3/19 192/3/19 205/3/19 204/3/19
f 192/3/20 191/3/20 206/3/20 205/3/20
f 191/3/1 190/3/1 207/3/1 206/3/1
f 190/3/21 189/3/21 208/3/21 207/3/21
f 189/3/22 198/3/22 199/3/22 208/3/22
f 209/1/11 210/1/11 211/1/11 9/1/11 212/1/11 213/1/11 214/1/11 13/1/11
f 65/1/12 215/1/12 216/1/12 217/1/12 61/1/12 218/1/12 219/1/12 220/1/12
f 13/1/23 214/1/23 215/1/23 65/1/23
f 214/1/24 213/1/24 216/1/24 215/1/24
f 213/1/25 212/1/25 217/1/25 216/1/25
f 212/1/26 9/1/26 61/1/26 217/1/26
f 9/1/27 211/1/27 218/1/27 61/1/27
f 211/1/28 210/1/28 219/1/28 218/1/28
f 210/1/29 209/1/29 220/1/29 219/1/29
f 209/1/30 13/1/30 65/1/30 220/1/30
f 221/1/1 222/1/1 223/1/1 224/1/1
f 224/1/31 223/1/31 225/1/31 226/1/31
f 223/1/32 222/1/32 227/1/32 225/1/32
f 222/1/33 221/1/33 228/1/33 227/1/33
f 221/1/34 224/1/34 226/1/34 228/1/34
f 226/1/11 225/1/11 229/1/11 230/1/11
f 225/1/14 227/1/14 231/1/14 229/1/14
f 227/1/12 228/1/12 232/1/12 231/1/12
f 228/1/13 226/1/13 230/1/13 232/1/13
f 233/4/2 234/4/2 235/4/2 236/4/2
f 230/1/35 229/1/35 234/1/35 233/1/35
f 229/1/36 231/1/36 235/1/36 234/1/36
f 231/1/37 232/1/37 236/1/37 235/1/37
f 232/1/38 230/1/38 233/1/38 236/1/38
f 237/1/1 238/1/1 239/1/1 240/1/1
f 240/1/31 239/1/31 241/1/31 242/1/31
f 239/1/32 238/1/32 243/1/32 241/1/32
f 238/1/33 237/1/33 244/1/33 243/1/33
f 237/1/34 240/1/34 242/1/34 244/1/34
f 242/1/11 241/1/11 245/1/11 246/1/11
f 241/1/14 243/1/14 247/1/14 245/1/14
f 243/1/12 244/1/12 248/1/12 247/1/12
f 244/1/13 242/1/13 246/1/13 248/1/13
f 249/4/2 250/4/2 251/4/2 252/4/2
f 246/1/35 245/1/35 250/1/35 249/1/35
f 245/1/36 247/1/36 251/1/36 250/1/36
f 247/1/37 248/1/37 252/1/37 251/1/37
f 248/1/38 246/1/38 249/1/38 252/1/38
f 253/1/1 254/1/1 255/1/1 256/1/1 257/1/1 258/1/1
f 259/1/2 260/1/2 261/1/2 262/1/2 263/1/2 264/1/2
f 258/1/39 257/1/39 260/1/39 259/1/39
f 257/1/11 256/1/11 261/1/11 260/1/11
f 256/1/40 255/1/40 262/1/40 261/1/40
f 255/1/41 254/1/41 263/1/41 262/1/41
f 254/1/12 253/1/12 264/1/12 263/1/12
f 253/1/42 258/1/42 259/1/42 264/1/42
f 265/1/1 266/1/1 267/1/1 268/1/1 269/1/1 270/1/1
f 271/1/2 272/1/2 273/1/2 274/1/2 275/1/2 276/1/2
f 270/1/39 269/1/39 272/1/39 271/1/39
f 269/1/11 268/1/11 273/1/11 272/1/11
f 268/1/40 267/1/40 274/1/40 273/1/40
f 267/1/41 266/1/41 275/1/41 274/1/41
f 266/1/12 265/1/12 276/1/12 275/1/12
f 265/1/42 270/1/42 271/1/42 276/1/42
f 277/1/13 278/1/13 279/1/13 280/1/13 281/1/13 282/1/13
f 283/1/14 284/1/14 285/1/14 286/1/14 287/1/14 288/1/14
f 282/1/43 281/1/43 284/1/43 283/1/43
f 281/1/1 280/1/1 285/1/1 284/1/1
f 280/1/44 279/1/44 286/1/44 285/1/44
f 279/1/45 278/1/45 287/1/45 286/1/45
f 278/1/2 277/1/2 288/1/2 287/1/2
f 277/1/46 282/1/46 283/1/46 288/1/46
f 289/1/1 290/1/1 291/1/1 292/1/1 293/1/1 294/1/1
f 295/1/2 296/1/2 297/1/2 298/1/2 299/1/2 300/1/2
f 294/1/39 293/1/39 296/1/39 295/1/39
f 293/1/11 292/1/11 297/1/11 296/1/11
f 292/1/40 291/1/40 298/1/40 297/1/40
f 291/1/41 290/1/41 299/1/41 298/1/41
f 290/1/12 289/1/12 300/1/12 299/1/12
f 289/1/42 294/1/42 295/1/42 300/1/42
f 301/1/1 302/1/1 303/1/1 304/1/1 305/1/1 306/1/1
f 307/1/2 308/1/2 309/1/2 310/1/2 311/1/2 312/1/2
f 306/1/39 305/1/39 308/1/39 307/1/39
f 305/1/11 304/1/11 309/1/11 308/1/11
f 304/1/40 303/1/40 310/1/40 309/1/40
f 303/1/41 302/1/41 311/1/41 310/1/41
f 302/1/12 301/1/12 312/1/12 311/1/12
f 301/1/42 306/1/42 307/1/42 312/1/42
f 313/1/13 314/1/13 315/1/13 316/1/13 317/1/13 318/1/13
f 319/1/14 320/1/14 321/1/14 322/1/14 323/1/14 324/1/14
f 318/1/43 317/1/43 320/1/43 319/1/43
f 317/1/1 316/1/1 321/1/1 320/1/1
f 316/1/44 315/1/44 322/1/44 321/1/44
f 315/1/45 314/1/45 323/1/45 322/1/45
f 314/1/2 313/1/2 324/1/2 323/1/2
f 313/1/46 318/1/46 319/1/46 324/1/46
f 325/1/11 326/1/11 271/1/11 327/1/11 328/1/11 274/1/11
f 310/1/12 329/1/12 330/1/12 307/1/12 331/1/12 332/1/12
f 274/1/47 328/1/47 329/1/47 310/1/47
f 328/1/1 327/1/1 330/1/1 329/1/1
f 327/1/48 271/1/48 307/1/48 330/1/48
f 271/1/49 326/1/49 331/1/49 307/1/49
f 326/1/2 325/1/2 332/1/2 331/1/2
f 325/1/50 274/1/50 310/1/50 332/1/50
