# Blender 5.2.0 LTS
# www.blender.org
mtllib FN_Cabinet_Tambour.mtl
o FN_Cabinet_Tambour
v -0.500000 0.100000 0.235000
v -0.500000 0.100000 -0.235000
v -0.470000 0.100000 -0.235000
v -0.470000 0.100000 0.235000
v -0.500000 1.186000 0.235000
v -0.470000 1.186000 0.235000
v -0.470000 1.186000 -0.235000
v -0.500000 1.186000 -0.235000
v 0.470000 0.100000 0.235000
v 0.470000 0.100000 -0.235000
v 0.500000 0.100000 -0.235000
v 0.500000 0.100000 0.235000
v 0.470000 1.186000 0.235000
v 0.500000 1.186000 0.235000
v 0.500000 1.186000 -0.235000
v 0.470000 1.186000 -0.235000
v -0.482000 0.108000 -0.205000
v -0.482000 0.108000 -0.229000
v 0.482000 0.108000 -0.229000
v 0.482000 0.108000 -0.205000
v -0.482000 1.180000 -0.205000
v 0.482000 1.180000 -0.205000
v 0.482000 1.180000 -0.229000
v -0.482000 1.180000 -0.229000
v -0.482000 0.100000 0.229000
v -0.482000 0.100000 -0.199000
v 0.482000 0.100000 -0.199000
v 0.482000 0.100000 0.229000
v -0.482000 0.140000 0.229000
v 0.482000 0.140000 0.229000
v 0.482000 0.140000 -0.199000
v -0.482000 0.140000 -0.199000
v -0.500000 1.170000 0.245000
v -0.500000 1.170000 -0.245000
v 0.500000 1.170000 -0.245000
v 0.500000 1.170000 0.245000
v -0.500000 1.200000 0.245000
v 0.500000 1.200000 0.245000
v 0.500000 1.200000 -0.245000
v -0.500000 1.200000 -0.245000
v -0.460000 0.000000 0.205000
v -0.460000 0.000000 -0.185000
v 0.460000 0.000000 -0.185000
v 0.460000 0.000000 0.205000
v -0.460000 0.112000 0.205000
v 0.460000 0.112000 0.205000
v 0.460000 0.112000 -0.185000
v -0.460000 0.112000 -0.185000
v -0.478000 0.400000 0.220000
v -0.478000 0.400000 -0.215000
v 0.478000 0.400000 -0.215000
v 0.478000 0.400000 0.220000
v -0.478000 0.426000 0.220000
v 0.478000 0.426000 0.220000
v 0.478000 0.426000 -0.215000
v -0.478000 0.426000 -0.215000
v -0.470000 0.140000 0.230000
v -0.470000 0.140000 0.200000
v -0.455000 0.140000 0.200000
v -0.455000 0.140000 0.230000
v -0.470000 1.100000 0.230000
v -0.455000 1.100000 0.230000
v -0.455000 1.100000 0.200000
v -0.470000 1.100000 0.200000
v 0.455000 0.140000 0.230000
v 0.455000 0.140000 0.200000
v 0.470000 0.140000 0.200000
v 0.470000 0.140000 0.230000
v 0.455000 1.100000 0.230000
v 0.470000 1.100000 0.230000
v 0.470000 1.100000 0.200000
v 0.455000 1.100000 0.200000
v -0.462000 0.970000 0.229000
v -0.462000 0.970000 0.215000
v 0.462000 0.970000 0.215000
v 0.462000 0.970000 0.229000
v -0.462000 1.010000 0.229000
v 0.462000 1.010000 0.229000
v 0.462000 1.010000 0.215000
v -0.462000 1.010000 0.215000
v -0.462000 0.928000 0.229000
v -0.462000 0.928000 0.215000
v 0.462000 0.928000 0.215000
v 0.462000 0.928000 0.229000
v -0.462000 0.968000 0.229000
v 0.462000 0.968000 0.229000
v 0.462000 0.968000 0.215000
v -0.462000 0.968000 0.215000
v -0.462000 0.886000 0.229000
v -0.462000 0.886000 0.215000
v 0.462000 0.886000 0.215000
v 0.462000 0.886000 0.229000
v -0.462000 0.926000 0.229000
v 0.462000 0.926000 0.229000
v 0.462000 0.926000 0.215000
v -0.462000 0.926000 0.215000
v -0.462000 0.844000 0.229000
v -0.462000 0.844000 0.215000
v 0.462000 0.844000 0.215000
v 0.462000 0.844000 0.229000
v -0.462000 0.884000 0.229000
v 0.462000 0.884000 0.229000
v 0.462000 0.884000 0.215000
v -0.462000 0.884000 0.215000
v -0.462000 0.802000 0.229000
v -0.462000 0.802000 0.215000
v 0.462000 0.802000 0.215000
v 0.462000 0.802000 0.229000
v -0.462000 0.842000 0.229000
v 0.462000 0.842000 0.229000
v 0.462000 0.842000 0.215000
v -0.462000 0.842000 0.215000
v -0.462000 0.760000 0.229000
v -0.462000 0.760000 0.215000
v 0.462000 0.760000 0.215000
v 0.462000 0.760000 0.229000
v -0.462000 0.800000 0.229000
v 0.462000 0.800000 0.229000
v 0.462000 0.800000 0.215000
v -0.462000 0.800000 0.215000
v -0.462000 0.718000 0.229000
v -0.462000 0.718000 0.215000
v 0.462000 0.718000 0.215000
v 0.462000 0.718000 0.229000
v -0.462000 0.758000 0.229000
v 0.462000 0.758000 0.229000
v 0.462000 0.758000 0.215000
v -0.462000 0.758000 0.215000
v -0.462000 0.668000 0.229000
v -0.462000 0.668000 0.215000
v 0.462000 0.668000 0.215000
v 0.462000 0.668000 0.229000
v -0.462000 0.724000 0.229000
v 0.462000 0.724000 0.229000
v 0.462000 0.724000 0.215000
v -0.462000 0.724000 0.215000
v -0.462000 1.004044 0.229943
v -0.462000 1.042086 0.217583
v -0.462000 1.037760 0.204268
v -0.462000 0.999717 0.216629
v 0.462000 0.999717 0.216629
v 0.462000 1.037760 0.204268
v 0.462000 1.042086 0.217583
v 0.462000 1.004044 0.229943
v -0.462000 1.036713 0.220321
v -0.462000 1.069073 0.196809
v -0.462000 1.060844 0.185483
v -0.462000 1.028484 0.208994
v 0.462000 1.028484 0.208994
v 0.462000 1.060844 0.185483
v 0.462000 1.069073 0.196809
v 0.462000 1.036713 0.220321
v -0.462000 1.064809 0.201073
v -0.462000 1.088320 0.168713
v -0.462000 1.076994 0.160484
v -0.462000 1.053483 0.192844
v 0.462000 1.053483 0.192844
v 0.462000 1.076994 0.160484
v 0.462000 1.088320 0.168713
v 0.462000 1.064809 0.201073
v -0.462000 1.085583 0.174086
v -0.462000 1.097943 0.136044
v -0.462000 1.084629 0.131717
v -0.462000 1.072268 0.169760
v 0.462000 1.072268 0.169760
v 0.462000 1.084629 0.131717
v 0.462000 1.097943 0.136044
v 0.462000 1.085583 0.174086
v -0.462000 1.097000 0.142000
v -0.462000 1.097000 0.102000
v -0.462000 1.083000 0.102000
v -0.462000 1.083000 0.142000
v 0.462000 1.083000 0.142000
v 0.462000 1.083000 0.102000
v 0.462000 1.097000 0.102000
v 0.462000 1.097000 0.142000
v -0.070000 0.686000 0.245000
v -0.070000 0.686000 0.225000
v 0.070000 0.686000 0.225000
v 0.070000 0.686000 0.245000
v -0.070000 0.712000 0.245000
v 0.070000 0.712000 0.245000
v 0.070000 0.712000 0.225000
v -0.070000 0.712000 0.225000
vn -0.0000 -1.0000 -0.0000
vn -0.0000 1.0000 -0.0000
vn -0.0000 -0.0000 1.0000
vn -0.0000 -0.0000 -1.0000
vn -1.0000 -0.0000 -0.0000
vn 1.0000 -0.0000 -0.0000
vn -0.0000 -0.3090 -0.9511
vn -0.0000 0.9511 -0.3090
vn -0.0000 0.3090 0.9511
vn -0.0000 -0.9511 0.3090
vn -0.0000 -0.5878 -0.8090
vn -0.0000 0.8090 -0.5878
vn -0.0000 0.5878 0.8090
vn -0.0000 -0.8090 0.5878
vn -0.0000 -0.8090 -0.5878
vn -0.0000 0.5878 -0.8090
vn -0.0000 0.8090 0.5878
vn -0.0000 -0.5878 0.8090
vn -0.0000 -0.9511 -0.3090
vn -0.0000 0.3090 -0.9511
vn -0.0000 0.9511 0.3090
vn -0.0000 -0.3090 0.9511
vt 0.437500 0.937500
vt 0.937500 0.687500
vt 0.312500 0.312500
s 0
usemtl FN_Atlas
f 1/1/1 2/1/1 3/1/1 4/1/1
f 5/1/2 6/1/2 7/1/2 8/1/2
f 1/1/3 4/1/3 6/1/3 5/1/3
f 3/1/4 2/1/4 8/1/4 7/1/4
f 1/1/5 5/1/5 8/1/5 2/1/5
f 4/2/6 3/2/6 7/2/6 6/2/6
f 9/1/1 10/1/1 11/1/1 12/1/1
f 13/1/2 14/1/2 15/1/2 16/1/2
f 9/1/3 12/1/3 14/1/3 13/1/3
f 11/1/4 10/1/4 16/1/4 15/1/4
f 9/2/5 13/2/5 16/2/5 10/2/5
f 12/1/6 11/1/6 15/1/6 14/1/6
f 17/1/1 18/1/1 19/1/1 20/1/1
f 21/1/2 22/1/2 23/1/2 24/1/2
f 17/2/3 20/2/3 22/2/3 21/2/3
f 19/1/4 18/1/4 24/1/4 23/1/4
f 17/1/5 21/1/5 24/1/5 18/1/5
f 20/1/6 19/1/6 23/1/6 22/1/6
f 25/1/1 26/1/1 27/1/1 28/1/1
f 29/2/2 30/2/2 31/2/2 32/2/2
f 25/1/3 28/1/3 30/1/3 29/1/3
f 27/1/4 26/1/4 32/1/4 31/1/4
f 25/1/5 29/1/5 32/1/5 26/1/5
f 28/1/6 27/1/6 31/1/6 30/1/6
f 33/1/1 34/1/1 35/1/1 36/1/1
f 37/1/2 38/1/2 39/1/2 40/1/2
f 33/1/3 36/1/3 38/1/3 37/1/3
f 35/1/4 34/1/4 40/1/4 39/1/4
f 33/1/5 37/1/5 40/1/5 34/1/5
f 36/1/6 35/1/6 39/1/6 38/1/6
f 41/1/1 42/1/1 43/1/1 44/1/1
f 45/1/2 46/1/2 47/1/2 48/1/2
f 41/1/3 44/1/3 46/1/3 45/1/3
f 43/1/4 42/1/4 48/1/4 47/1/4
f 41/1/5 45/1/5 48/1/5 42/1/5
f 44/1/6 43/1/6 47/1/6 46/1/6
f 49/1/1 50/1/1 51/1/1 52/1/1
f 53/1/2 54/1/2 55/1/2 56/1/2
f 49/1/3 52/1/3 54/1/3 53/1/3
f 51/1/4 50/1/4 56/1/4 55/1/4
f 49/1/5 53/1/5 56/1/5 50/1/5
f 52/1/6 51/1/6 55/1/6 54/1/6
f 57/1/1 58/1/1 59/1/1 60/1/1
f 61/1/2 62/1/2 63/1/2 64/1/2
f 57/1/3 60/1/3 62/1/3 61/1/3
f 59/1/4 58/1/4 64/1/4 63/1/4
f 57/1/5 61/1/5 64/1/5 58/1/5
f 60/1/6 59/1/6 63/1/6 62/1/6
f 65/1/1 66/1/1 67/1/1 68/1/1
f 69/1/2 70/1/2 71/1/2 72/1/2
f 65/1/3 68/1/3 70/1/3 69/1/3
f 67/1/4 66/1/4 72/1/4 71/1/4
f 65/1/5 69/1/5 72/1/5 66/1/5
f 68/1/6 67/1/6 71/1/6 70/1/6
f 73/3/1 74/3/1 75/3/1 76/3/1
f 77/3/2 78/3/2 79/3/2 80/3/2
f 73/3/3 76/3/3 78/3/3 77/3/3
f 75/3/4 74/3/4 80/3/4 79/3/4
f 73/3/5 77/3/5 80/3/5 74/3/5
f 76/3/6 75/3/6 79/3/6 78/3/6
f 81/3/1 82/3/1 83/3/1 84/3/1
f 85/3/2 86/3/2 87/3/2 88/3/2
f 81/3/3 84/3/3 86/3/3 85/3/3
f 83/3/4 82/3/4 88/3/4 87/3/4
f 81/3/5 85/3/5 88/3/5 82/3/5
f 84/3/6 83/3/6 87/3/6 86/3/6
f 89/3/1 90/3/1 91/3/1 92/3/1
f 93/3/2 94/3/2 95/3/2 96/3/2
f 89/3/3 92/3/3 94/3/3 93/3/3
f 91/3/4 90/3/4 96/3/4 95/3/4
f 89/3/5 93/3/5 96/3/5 90/3/5
f 92/3/6 91/3/6 95/3/6 94/3/6
f 97/3/1 98/3/1 99/3/1 100/3/1
f 101/3/2 102/3/2 103/3/2 104/3/2
f 97/3/3 100/3/3 102/3/3 101/3/3
f 99/3/4 98/3/4 104/3/4 103/3/4
f 97/3/5 101/3/5 104/3/5 98/3/5
f 100/3/6 99/3/6 103/3/6 102/3/6
f 105/3/1 106/3/1 107/3/1 108/3/1
f 109/3/2 110/3/2 111/3/2 112/3/2
f 105/3/3 108/3/3 110/3/3 109/3/3
f 107/3/4 106/3/4 112/3/4 111/3/4
f 105/3/5 109/3/5 112/3/5 106/3/5
f 108/3/6 107/3/6 111/3/6 110/3/6
f 113/3/1 114/3/1 115/3/1 116/3/1
f 117/3/2 118/3/2 119/3/2 120/3/2
f 113/3/3 116/3/3 118/3/3 117/3/3
f 115/3/4 114/3/4 120/3/4 119/3/4
f 113/3/5 117/3/5 120/3/5 114/3/5
f 116/3/6 115/3/6 119/3/6 118/3/6
f 121/3/1 122/3/1 123/3/1 124/3/1
f 125/3/2 126/3/2 127/3/2 128/3/2
f 121/3/3 124/3/3 126/3/3 125/3/3
f 123/3/4 122/3/4 128/3/4 127/3/4
f 121/3/5 125/3/5 128/3/5 122/3/5
f 124/3/6 123/3/6 127/3/6 126/3/6
f 129/3/1 130/3/1 131/3/1 132/3/1
f 133/3/2 134/3/2 135/3/2 136/3/2
f 129/3/3 132/3/3 134/3/3 133/3/3
f 131/3/4 130/3/4 136/3/4 135/3/4
f 129/3/5 133/3/5 136/3/5 130/3/5
f 132/3/6 131/3/6 135/3/6 134/3/6
f 137/3/5 138/3/5 139/3/5 140/3/5
f 141/3/6 142/3/6 143/3/6 144/3/6
f 140/3/7 139/3/7 142/3/7 141/3/7
f 139/3/8 138/3/8 143/3/8 142/3/8
f 138/3/9 137/3/9 144/3/9 143/3/9
f 137/3/10 140/3/10 141/3/10 144/3/10
f 145/3/5 146/3/5 147/3/5 148/3/5
f 149/3/6 150/3/6 151/3/6 152/3/6
f 148/3/11 147/3/11 150/3/11 149/3/11
f 147/3/12 146/3/12 151/3/12 150/3/12
f 146/3/13 145/3/13 152/3/13 151/3/13
f 145/3/14 148/3/14 149/3/14 152/3/14
f 153/3/5 154/3/5 155/3/5 156/3/5
f 157/3/6 158/3/6 159/3/6 160/3/6
f 156/3/15 155/3/15 158/3/15 157/3/15
f 155/3/16 154/3/16 159/3/16 158/3/16
f 154/3/17 153/3/17 160/3/17 159/3/17
f 153/3/18 156/3/18 157/3/18 160/3/18
f 161/3/5 162/3/5 163/3/5 164/3/5
f 165/3/6 166/3/6 167/3/6 168/3/6
f 164/3/19 163/3/19 166/3/19 165/3/19
f 163/3/20 162/3/20 167/3/20 166/3/20
f 162/3/21 161/3/21 168/3/21 167/3/21
f 161/3/22 164/3/22 165/3/22 168/3/22
f 169/3/5 170/3/5 171/3/5 172/3/5
f 173/3/6 174/3/6 175/3/6 176/3/6
f 172/3/1 171/3/1 174/3/1 173/3/1
f 171/3/4 170/3/4 175/3/4 174/3/4
f 170/3/2 169/3/2 176/3/2 175/3/2
f 169/3/3 172/3/3 173/3/3 176/3/3
f 177/3/1 178/3/1 179/3/1 180/3/1
f 181/3/2 182/3/2 183/3/2 184/3/2
f 177/3/3 180/3/3 182/3/3 181/3/3
f 179/3/4 178/3/4 184/3/4 183/3/4
f 177/3/5 181/3/5 184/3/5 178/3/5
f 180/3/6 179/3/6 183/3/6 182/3/6
