# Blender 5.2.0 LTS
# www.blender.org
mtllib FN_Chest_Toy.mtl
o FN_Chest_Toy
v -0.414000 0.000000 0.252500
v -0.414000 0.000000 -0.155500
v 0.414000 0.000000 -0.155500
v 0.414000 0.000000 0.252500
v -0.414000 0.072000 0.252500
v 0.414000 0.072000 0.252500
v 0.414000 0.072000 -0.155500
v -0.414000 0.072000 -0.155500
v -0.432000 0.060000 0.288500
v -0.432000 0.060000 0.270500
v 0.432000 0.060000 0.270500
v 0.432000 0.060000 0.288500
v -0.432000 0.420000 0.288500
v 0.432000 0.420000 0.288500
v 0.432000 0.420000 0.270500
v -0.432000 0.420000 0.270500
v -0.432000 0.060000 -0.173500
v -0.432000 0.060000 -0.191500
v 0.432000 0.060000 -0.191500
v 0.432000 0.060000 -0.173500
v -0.432000 0.420000 -0.173500
v 0.432000 0.420000 -0.173500
v 0.432000 0.420000 -0.191500
v -0.432000 0.420000 -0.191500
v -0.450000 0.060000 0.288500
v -0.450000 0.060000 -0.191500
v -0.450000 0.420000 0.288500
v -0.450000 0.420000 -0.191500
v 0.450000 0.060000 -0.191500
v 0.450000 0.060000 0.288500
v 0.450000 0.420000 0.288500
v 0.450000 0.420000 -0.191500
v -0.440000 0.066000 0.278500
v -0.440000 0.066000 -0.181500
v 0.440000 0.066000 -0.181500
v 0.440000 0.066000 0.278500
v -0.440000 0.084000 0.278500
v 0.440000 0.084000 0.278500
v 0.440000 0.084000 -0.181500
v -0.440000 0.084000 -0.181500
v -0.265000 0.078000 0.003500
v -0.265000 0.078000 -0.166500
v -0.095000 0.078000 -0.166500
v -0.095000 0.078000 0.003500
v -0.265000 0.248000 0.003500
v -0.095000 0.248000 0.003500
v -0.095000 0.248000 -0.166500
v -0.265000 0.248000 -0.166500
v -0.235000 0.242000 -0.011500
v -0.235000 0.242000 -0.181500
v -0.065000 0.242000 -0.181500
v -0.065000 0.242000 -0.011500
v -0.235000 0.412000 -0.011500
v -0.065000 0.412000 -0.011500
v -0.065000 0.412000 -0.181500
v -0.235000 0.412000 -0.181500
v -0.355000 0.404000 0.303500
v -0.355000 0.404000 0.133500
v -0.185000 0.404000 0.133500
v -0.185000 0.404000 0.303500
v -0.355000 0.574000 0.303500
v -0.185000 0.574000 0.303500
v -0.185000 0.574000 0.133500
v -0.355000 0.574000 0.133500
v 0.155000 0.404000 -0.036500
v 0.155000 0.404000 -0.206500
v 0.325000 0.404000 -0.206500
v 0.325000 0.404000 -0.036500
v 0.155000 0.574000 -0.036500
v 0.325000 0.574000 -0.036500
v 0.325000 0.574000 -0.206500
v 0.155000 0.574000 -0.206500
v -0.462000 0.382412 -0.144497
v -0.462000 0.898412 -0.268497
v -0.462000 0.890000 -0.303500
v -0.462000 0.374000 -0.179500
v 0.462000 0.374000 -0.179500
v 0.462000 0.890000 -0.303500
v 0.462000 0.898412 -0.268497
v 0.462000 0.382412 -0.144497
vn -0.0000 -1.0000 -0.0000
vn -0.0000 1.0000 -0.0000
vn -0.0000 -0.0000 1.0000
vn -0.0000 -0.0000 -1.0000
vn -1.0000 -0.0000 -0.0000
vn 1.0000 -0.0000 -0.0000
vn -0.0000 -0.2337 -0.9723
vn -0.0000 0.9723 -0.2337
vn -0.0000 0.2337 0.9723
vn -0.0000 -0.9723 0.2337
vt 0.812500 0.937500
vt 0.187500 0.937500
vt 0.312500 0.062500
vt 0.437500 0.062500
vt 0.062500 0.562500
vt 0.562500 0.062500
s 0
usemtl FN_Atlas
f 1/1/1 2/1/1 3/1/1 4/1/1
f 5/1/2 6/1/2 7/1/2 8/1/2
f 1/1/3 4/1/3 6/1/3 5/1/3
f 3/1/4 2/1/4 8/1/4 7/1/4
f 1/1/5 5/1/5 8/1/5 2/1/5
f 4/1/6 3/1/6 7/1/6 6/1/6
f 9/2/1 10/2/1 11/2/1 12/2/1
f 13/2/2 14/2/2 15/2/2 16/2/2
f 9/2/3 12/2/3 14/2/3 13/2/3
f 11/1/4 10/1/4 16/1/4 15/1/4
f 9/2/5 13/2/5 16/2/5 10/2/5
f 12/2/6 11/2/6 15/2/6 14/2/6
f 17/2/1 18/2/1 19/2/1 20/2/1
f 21/2/2 22/2/2 23/2/2 24/2/2
f 17/1/3 20/1/3 22/1/3 21/1/3
f 19/2/4 18/2/4 24/2/4 23/2/4
f 17/2/5 21/2/5 24/2/5 18/2/5
f 20/2/6 19/2/6 23/2/6 22/2/6
f 25/2/1 26/2/1 18/2/1 9/2/1
f 27/2/2 13/2/2 24/2/2 28/2/2
f 25/2/3 9/2/3 13/2/3 27/2/3
f 18/2/4 26/2/4 28/2/4 24/2/4
f 25/2/5 27/2/5 28/2/5 26/2/5
f 9/1/6 18/1/6 24/1/6 13/1/6
f 12/2/1 19/2/1 29/2/1 30/2/1
f 14/2/2 31/2/2 32/2/2 23/2/2
f 12/2/3 30/2/3 31/2/3 14/2/3
f 29/2/4 19/2/4 23/2/4 32/2/4
f 12/1/5 14/1/5 23/1/5 19/1/5
f 30/2/6 29/2/6 32/2/6 31/2/6
f 33/2/1 34/2/1 35/2/1 36/2/1
f 37/1/2 38/1/2 39/1/2 40/1/2
f 33/2/3 36/2/3 38/2/3 37/2/3
f 35/2/4 34/2/4 40/2/4 39/2/4
f 33/2/5 37/2/5 40/2/5 34/2/5
f 36/2/6 35/2/6 39/2/6 38/2/6
f 41/3/1 42/3/1 43/3/1 44/3/1
f 45/3/2 46/3/2 47/3/2 48/3/2
f 41/3/3 44/3/3 46/3/3 45/3/3
f 43/3/4 42/3/4 48/3/4 47/3/4
f 41/3/5 45/3/5 48/3/5 42/3/5
f 44/3/6 43/3/6 47/3/6 46/3/6
f 49/4/1 50/4/1 51/4/1 52/4/1
f 53/4/2 54/4/2 55/4/2 56/4/2
f 49/4/3 52/4/3 54/4/3 53/4/3
f 51/4/4 50/4/4 56/4/4 55/4/4
f 49/4/5 53/4/5 56/4/5 50/4/5
f 52/4/6 51/4/6 55/4/6 54/4/6
f 57/5/1 58/5/1 59/5/1 60/5/1
f 61/5/2 62/5/2 63/5/2 64/5/2
f 57/5/3 60/5/3 62/5/3 61/5/3
f 59/5/4 58/5/4 64/5/4 63/5/4
f 57/5/5 61/5/5 64/5/5 58/5/5
f 60/5/6 59/5/6 63/5/6 62/5/6
f 65/6/1 66/6/1 67/6/1 68/6/1
f 69/6/2 70/6/2 71/6/2 72/6/2
f 65/6/3 68/6/3 70/6/3 69/6/3
f 67/6/4 66/6/4 72/6/4 71/6/4
f 65/6/5 69/6/5 72/6/5 66/6/5
f 68/6/6 67/6/6 71/6/6 70/6/6
f 73/2/5 74/2/5 75/2/5 76/2/5
f 77/2/6 78/2/6 79/2/6 80/2/6
f 76/2/7 75/2/7 78/2/7 77/2/7
f 75/2/8 74/2/8 79/2/8 78/2/8
f 74/2/9 73/2/9 80/2/9 79/2/9
f 73/2/10 76/2/10 77/2/10 80/2/10
