# Blender 5.2.0 LTS
# www.blender.org
mtllib FN_Desk_Reception.mtl
o FN_Desk_Reception
v -0.860000 0.000000 0.289000
v -0.860000 0.000000 -0.405000
v 0.860000 0.000000 -0.405000
v 0.860000 0.000000 0.289000
v -0.860000 0.090000 0.289000
v 0.860000 0.090000 0.289000
v 0.860000 0.090000 -0.405000
v -0.860000 0.090000 -0.405000
v -0.900000 0.090000 0.335000
v -0.900000 0.090000 -0.405000
v 0.900000 0.090000 -0.405000
v 0.900000 0.090000 0.335000
v -0.900000 1.040000 0.335000
v 0.900000 1.040000 0.335000
v 0.900000 1.040000 -0.405000
v -0.900000 1.040000 -0.405000
v -0.902000 0.090000 0.341000
v -0.902000 0.090000 0.335000
v 0.902000 0.090000 0.335000
v 0.902000 0.090000 0.341000
v -0.902000 1.040000 0.341000
v 0.902000 1.040000 0.341000
v 0.902000 1.040000 0.335000
v -0.902000 1.040000 0.335000
v -0.902000 0.096000 0.371000
v -0.902000 0.096000 0.341000
v -0.779846 0.096000 0.341000
v -0.779846 0.096000 0.371000
v -0.902000 1.020000 0.371000
v -0.779846 1.020000 0.371000
v -0.779846 1.020000 0.341000
v -0.902000 1.020000 0.341000
v -0.761846 0.096000 0.371000
v -0.761846 0.096000 0.341000
v -0.639692 0.096000 0.341000
v -0.639692 0.096000 0.371000
v -0.761846 1.020000 0.371000
v -0.639692 1.020000 0.371000
v -0.639692 1.020000 0.341000
v -0.761846 1.020000 0.341000
v -0.621692 0.096000 0.371000
v -0.621692 0.096000 0.341000
v -0.499538 0.096000 0.341000
v -0.499538 0.096000 0.371000
v -0.621692 1.020000 0.371000
v -0.499538 1.020000 0.371000
v -0.499538 1.020000 0.341000
v -0.621692 1.020000 0.341000
v -0.481538 0.096000 0.371000
v -0.481538 0.096000 0.341000
v -0.359385 0.096000 0.341000
v -0.359385 0.096000 0.371000
v -0.481538 1.020000 0.371000
v -0.359385 1.020000 0.371000
v -0.359385 1.020000 0.341000
v -0.481538 1.020000 0.341000
v -0.341385 0.096000 0.371000
v -0.341385 0.096000 0.341000
v -0.219231 0.096000 0.341000
v -0.219231 0.096000 0.371000
v -0.341385 1.020000 0.371000
v -0.219231 1.020000 0.371000
v -0.219231 1.020000 0.341000
v -0.341385 1.020000 0.341000
v -0.201231 0.096000 0.371000
v -0.201231 0.096000 0.341000
v -0.079077 0.096000 0.341000
v -0.079077 0.096000 0.371000
v -0.201231 1.020000 0.371000
v -0.079077 1.020000 0.371000
v -0.079077 1.020000 0.341000
v -0.201231 1.020000 0.341000
v -0.061077 0.096000 0.371000
v -0.061077 0.096000 0.341000
v 0.061077 0.096000 0.341000
v 0.061077 0.096000 0.371000
v -0.061077 1.020000 0.371000
v 0.061077 1.020000 0.371000
v 0.061077 1.020000 0.341000
v -0.061077 1.020000 0.341000
v 0.079077 0.096000 0.371000
v 0.079077 0.096000 0.341000
v 0.201231 0.096000 0.341000
v 0.201231 0.096000 0.371000
v 0.079077 1.020000 0.371000
v 0.201231 1.020000 0.371000
v 0.201231 1.020000 0.341000
v 0.079077 1.020000 0.341000
v 0.219231 0.096000 0.371000
v 0.219231 0.096000 0.341000
v 0.341385 0.096000 0.341000
v 0.341385 0.096000 0.371000
v 0.219231 1.020000 0.371000
v 0.341385 1.020000 0.371000
v 0.341385 1.020000 0.341000
v 0.219231 1.020000 0.341000
v 0.359385 0.096000 0.371000
v 0.359385 0.096000 0.341000
v 0.481538 0.096000 0.341000
v 0.481538 0.096000 0.371000
v 0.359385 1.020000 0.371000
v 0.481538 1.020000 0.371000
v 0.481538 1.020000 0.341000
v 0.359385 1.020000 0.341000
v 0.499538 0.096000 0.371000
v 0.499538 0.096000 0.341000
v 0.621692 0.096000 0.341000
v 0.621692 0.096000 0.371000
v 0.499538 1.020000 0.371000
v 0.621692 1.020000 0.371000
v 0.621692 1.020000 0.341000
v 0.499538 1.020000 0.341000
v 0.639692 0.096000 0.371000
v 0.639692 0.096000 0.341000
v 0.761846 0.096000 0.341000
v 0.761846 0.096000 0.371000
v 0.639692 1.020000 0.371000
v 0.761846 1.020000 0.371000
v 0.761846 1.020000 0.341000
v 0.639692 1.020000 0.341000
v 0.779846 0.096000 0.371000
v 0.779846 0.096000 0.341000
v 0.902000 0.096000 0.341000
v 0.902000 0.096000 0.371000
v 0.779846 1.020000 0.371000
v 0.902000 1.020000 0.371000
v 0.902000 1.020000 0.341000
v 0.779846 1.020000 0.341000
v -0.871346 0.716000 -0.403172
v 0.871346 0.716000 -0.403172
v 0.871346 0.716000 0.281172
v -0.871346 0.716000 0.281172
v 0.876000 0.721000 0.283000
v -0.876000 0.721000 0.283000
v 0.876000 0.721000 -0.405000
v -0.876000 0.721000 -0.405000
v 0.876000 0.735000 0.283000
v -0.876000 0.735000 0.283000
v 0.876000 0.735000 -0.405000
v -0.876000 0.735000 -0.405000
v -0.871346 0.740000 0.281172
v 0.871346 0.740000 0.281172
v 0.871346 0.740000 -0.403172
v -0.871346 0.740000 -0.403172
v -0.912678 1.040000 -0.401777
v 0.912678 1.040000 -0.401777
v 0.912678 1.040000 0.401777
v -0.912678 1.040000 0.401777
v 0.920000 1.048000 0.405000
v -0.920000 1.048000 0.405000
v 0.920000 1.048000 -0.405000
v -0.920000 1.048000 -0.405000
v 0.920000 1.092000 0.405000
v -0.920000 1.092000 0.405000
v 0.920000 1.092000 -0.405000
v -0.920000 1.092000 -0.405000
v -0.912678 1.100000 0.401777
v 0.912678 1.100000 0.401777
v 0.912678 1.100000 -0.401777
v -0.912678 1.100000 -0.401777
vn -0.0000 -1.0000 -0.0000
vn -0.0000 1.0000 -0.0000
vn -0.0000 -0.0000 1.0000
vn -0.0000 -0.0000 -1.0000
vn -1.0000 -0.0000 -0.0000
vn 1.0000 -0.0000 -0.0000
vn -0.0000 -0.3433 0.9392
vn 0.7320 -0.6813 -0.0000
vn -0.0000 -0.3433 -0.9392
vn -0.7320 -0.6813 -0.0000
vn -0.0000 0.3433 0.9392
vn 0.7320 0.6813 -0.0000
vn -0.0000 0.3433 -0.9392
vn -0.7320 0.6813 -0.0000
vn -0.0000 -0.3737 0.9275
vn 0.7377 -0.6752 -0.0000
vn -0.0000 -0.3737 -0.9275
vn -0.7377 -0.6752 -0.0000
vn -0.0000 0.3737 0.9275
vn 0.7377 0.6752 -0.0000
vn -0.0000 0.3737 -0.9275
vn -0.7377 0.6752 -0.0000
vt 0.812500 0.312500
vt 0.437500 0.812500
vt 0.812500 0.937500
vt 0.687500 0.937500
vt 0.562500 0.812500
vt 0.687500 0.312500
s 0
usemtl FN_Atlas
f 1/1/1 2/1/1 3/1/1 4/1/1
f 5/1/2 6/1/2 7/1/2 8/1/2
f 1/1/3 4/1/3 6/1/3 5/1/3
f 3/1/4 2/1/4 8/1/4 7/1/4
f 1/1/5 5/1/5 8/1/5 2/1/5
f 4/1/6 3/1/6 7/1/6 6/1/6
f 9/2/1 10/2/1 11/2/1 12/2/1
f 13/2/2 14/2/2 15/2/2 16/2/2
f 9/3/3 12/3/3 14/3/3 13/3/3
f 11/2/4 10/2/4 16/2/4 15/2/4
f 9/2/5 13/2/5 16/2/5 10/2/5
f 12/2/6 11/2/6 15/2/6 14/2/6
f 17/3/1 18/3/1 19/3/1 20/3/1
f 21/3/2 22/3/2 23/3/2 24/3/2
f 17/3/3 20/3/3 22/3/3 21/3/3
f 19/3/4 18/3/4 24/3/4 23/3/4
f 17/3/5 21/3/5 24/3/5 18/3/5
f 20/3/6 19/3/6 23/3/6 22/3/6
f 25/3/1 26/3/1 27/3/1 28/3/1
f 29/3/2 30/3/2 31/3/2 32/3/2
f 25/4/3 28/4/3 30/4/3 29/4/3
f 27/4/4 26/4/4 32/4/4 31/4/4
f 25/4/5 29/4/5 32/4/5 26/4/5
f 28/4/6 27/4/6 31/4/6 30/4/6
f 33/3/1 34/3/1 35/3/1 36/3/1
f 37/3/2 38/3/2 39/3/2 40/3/2
f 33/4/3 36/4/3 38/4/3 37/4/3
f 35/4/4 34/4/4 40/4/4 39/4/4
f 33/4/5 37/4/5 40/4/5 34/4/5
f 36/4/6 35/4/6 39/4/6 38/4/6
f 41/3/1 42/3/1 43/3/1 44/3/1
f 45/3/2 46/3/2 47/3/2 48/3/2
f 41/4/3 44/4/3 46/4/3 45/4/3
f 43/4/4 42/4/4 48/4/4 47/4/4
f 41/4/5 45/4/5 48/4/5 42/4/5
f 44/4/6 43/4/6 47/4/6 46/4/6
f 49/3/1 50/3/1 51/3/1 52/3/1
f 53/3/2 54/3/2 55/3/2 56/3/2
f 49/4/3 52/4/3 54/4/3 53/4/3
f 51/4/4 50/4/4 56/4/4 55/4/4
f 49/4/5 53/4/5 56/4/5 50/4/5
f 52/4/6 51/4/6 55/4/6 54/4/6
f 57/3/1 58/3/1 59/3/1 60/3/1
f 61/3/2 62/3/2 63/3/2 64/3/2
f 57/4/3 60/4/3 62/4/3 61/4/3
f 59/4/4 58/4/4 64/4/4 63/4/4
f 57/4/5 61/4/5 64/4/5 58/4/5
f 60/4/6 59/4/6 63/4/6 62/4/6
f 65/3/1 66/3/1 67/3/1 68/3/1
f 69/3/2 70/3/2 71/3/2 72/3/2
f 65/4/3 68/4/3 70/4/3 69/4/3
f 67/4/4 66/4/4 72/4/4 71/4/4
f 65/4/5 69/4/5 72/4/5 66/4/5
f 68/4/6 67/4/6 71/4/6 70/4/6
f 73/3/1 74/3/1 75/3/1 76/3/1
f 77/3/2 78/3/2 79/3/2 80/3/2
f 73/4/3 76/4/3 78/4/3 77/4/3
f 75/4/4 74/4/4 80/4/4 79/4/4
f 73/4/5 77/4/5 80/4/5 74/4/5
f 76/4/6 75/4/6 79/4/6 78/4/6
f 81/3/1 82/3/1 83/3/1 84/3/1
f 85/3/2 86/3/2 87/3/2 88/3/2
f 81/4/3 84/4/3 86/4/3 85/4/3
f 83/4/4 82/4/4 88/4/4 87/4/4
f 81/4/5 85/4/5 88/4/5 82/4/5
f 84/4/6 83/4/6 87/4/6 86/4/6
f 89/3/1 90/3/1 91/3/1 92/3/1
f 93/3/2 94/3/2 95/3/2 96/3/2
f 89/4/3 92/4/3 94/4/3 93/4/3
f 91/4/4 90/4/4 96/4/4 95/4/4
f 89/4/5 93/4/5 96/4/5 90/4/5
f 92/4/6 91/4/6 95/4/6 94/4/6
f 97/3/1 98/3/1 99/3/1 100/3/1
f 101/3/2 102/3/2 103/3/2 104/3/2
f 97/4/3 100/4/3 102/4/3 101/4/3
f 99/4/4 98/4/4 104/4/4 103/4/4
f 97/4/5 101/4/5 104/4/5 98/4/5
f 100/4/6 99/4/6 103/4/6 102/4/6
f 105/3/1 106/3/1 107/3/1 108/3/1
f 109/3/2 110/3/2 111/3/2 112/3/2
f 105/4/3 108/4/3 110/4/3 109/4/3
f 107/4/4 106/4/4 112/4/4 111/4/4
f 105/4/5 109/4/5 112/4/5 106/4/5
f 108/4/6 107/4/6 111/4/6 110/4/6
f 113/3/1 114/3/1 115/3/1 116/3/1
f 117/3/2 118/3/2 119/3/2 120/3/2
f 113/4/3 116/4/3 118/4/3 117/4/3
f 115/4/4 114/4/4 120/4/4 119/4/4
f 113/4/5 117/4/5 120/4/5 114/4/5
f 116/4/6 115/4/6 119/4/6 118/4/6
f 121/3/1 122/3/1 123/3/1 124/3/1
f 125/3/2 126/3/2 127/3/2 128/3/2
f 121/4/3 124/4/3 126/4/3 125/4/3
f 123/4/4 122/4/4 128/4/4 127/4/4
f 121/4/5 125/4/5 128/4/5 122/4/5
f 124/4/6 123/4/6 127/4/6 126/4/6
f 129/3/1 130/3/1 131/3/1 132/3/1
f 132/3/7 131/3/7 133/3/7 134/3/7
f 131/3/8 130/3/8 135/3/8 133/3/8
f 130/3/9 129/3/9 136/3/9 135/3/9
f 129/3/10 132/3/10 134/3/10 136/3/10
f 134/3/3 133/3/3 137/3/3 138/3/3
f 133/3/6 135/3/6 139/3/6 137/3/6
f 135/3/4 136/3/4 140/3/4 139/3/4
f 136/3/5 134/3/5 138/3/5 140/3/5
f 141/5/2 142/5/2 143/5/2 144/5/2
f 138/3/11 137/3/11 142/3/11 141/3/11
f 137/3/12 139/3/12 143/3/12 142/3/12
f 139/3/13 140/3/13 144/3/13 143/3/13
f 140/3/14 138/3/14 141/3/14 144/3/14
f 145/3/1 146/3/1 147/3/1 148/3/1
f 148/3/15 147/3/15 149/3/15 150/3/15
f 147/3/16 146/3/16 151/3/16 149/3/16
f 146/3/17 145/3/17 152/3/17 151/3/17
f 145/3/18 148/3/18 150/3/18 152/3/18
f 150/3/3 149/3/3 153/3/3 154/3/3
f 149/3/6 151/3/6 155/3/6 153/3/6
f 151/3/4 152/3/4 156/3/4 155/3/4
f 152/3/5 150/3/5 154/3/5 156/3/5
f 157/6/2 158/6/2 159/6/2 160/6/2
f 154/3/19 153/3/19 158/3/19 157/3/19
f 153/3/20 155/3/20 159/3/20 158/3/20
f 155/3/21 156/3/21 160/3/21 159/3/21
f 156/3/22 154/3/22 157/3/22 160/3/22
