# Blender 5.2.0 LTS
# www.blender.org
mtllib FN_Dresser_Welsh.mtl
o FN_Dresser_Welsh
v -0.600000 0.080000 0.226000
v -0.600000 0.080000 -0.254000
v -0.570000 0.080000 -0.254000
v -0.570000 0.080000 0.226000
v -0.600000 0.880000 0.226000
v -0.570000 0.880000 0.226000
v -0.570000 0.880000 -0.254000
v -0.600000 0.880000 -0.254000
v 0.570000 0.080000 0.226000
v 0.570000 0.080000 -0.254000
v 0.600000 0.080000 -0.254000
v 0.600000 0.080000 0.226000
v 0.570000 0.880000 0.226000
v 0.600000 0.880000 0.226000
v 0.600000 0.880000 -0.254000
v 0.570000 0.880000 -0.254000
v -0.600000 0.080000 -0.224000
v 0.600000 0.080000 -0.224000
v -0.600000 0.880000 -0.224000
v 0.600000 0.880000 -0.224000
v -0.600000 0.110000 0.226000
v 0.600000 0.110000 0.226000
v 0.600000 0.110000 -0.254000
v -0.600000 0.110000 -0.254000
v -0.570000 0.080000 0.202000
v 0.570000 0.080000 0.202000
v 0.570000 0.880000 0.202000
v -0.570000 0.880000 0.202000
v -0.560000 0.000000 0.206000
v -0.560000 0.000000 -0.234000
v 0.560000 0.000000 -0.234000
v 0.560000 0.000000 0.206000
v -0.560000 0.080000 0.206000
v 0.560000 0.080000 0.206000
v 0.560000 0.080000 -0.234000
v -0.560000 0.080000 -0.234000
v -0.620000 0.880000 0.246000
v -0.620000 0.880000 -0.264000
v 0.620000 0.880000 -0.264000
v 0.620000 0.880000 0.246000
v -0.620000 0.920000 0.246000
v 0.620000 0.920000 0.246000
v 0.620000 0.920000 -0.264000
v -0.620000 0.920000 -0.264000
v -0.566000 0.740000 0.244000
v -0.566000 0.740000 0.226000
v -0.008000 0.740000 0.226000
v -0.008000 0.740000 0.244000
v -0.566000 0.870000 0.244000
v -0.008000 0.870000 0.244000
v -0.008000 0.870000 0.226000
v -0.566000 0.870000 0.226000
v -0.566000 0.120000 0.244000
v -0.566000 0.120000 0.226000
v -0.008000 0.120000 0.226000
v -0.008000 0.120000 0.244000
v -0.566000 0.730000 0.244000
v -0.008000 0.730000 0.244000
v -0.008000 0.730000 0.226000
v -0.566000 0.730000 0.226000
v 0.008000 0.740000 0.244000
v 0.008000 0.740000 0.226000
v 0.566000 0.740000 0.226000
v 0.566000 0.740000 0.244000
v 0.008000 0.870000 0.244000
v 0.566000 0.870000 0.244000
v 0.566000 0.870000 0.226000
v 0.008000 0.870000 0.226000
v 0.008000 0.120000 0.244000
v 0.008000 0.120000 0.226000
v 0.566000 0.120000 0.226000
v 0.566000 0.120000 0.244000
v 0.008000 0.730000 0.244000
v 0.566000 0.730000 0.244000
v 0.566000 0.730000 0.226000
v 0.008000 0.730000 0.226000
v -0.305000 0.777000 0.264000
v -0.305000 0.777000 0.244000
v -0.269000 0.777000 0.244000
v -0.269000 0.777000 0.264000
v -0.305000 0.813000 0.264000
v -0.269000 0.813000 0.264000
v -0.269000 0.813000 0.244000
v -0.305000 0.813000 0.244000
v 0.269000 0.777000 0.264000
v 0.269000 0.777000 0.244000
v 0.305000 0.777000 0.244000
v 0.305000 0.777000 0.264000
v 0.269000 0.813000 0.264000
v 0.305000 0.813000 0.264000
v 0.305000 0.813000 0.244000
v 0.269000 0.813000 0.244000
v -0.078000 0.622000 0.264000
v -0.078000 0.622000 0.244000
v -0.042000 0.622000 0.244000
v -0.042000 0.622000 0.264000
v -0.078000 0.658000 0.264000
v -0.042000 0.658000 0.264000
v -0.042000 0.658000 0.244000
v -0.078000 0.658000 0.244000
v 0.042000 0.622000 0.264000
v 0.042000 0.622000 0.244000
v 0.078000 0.622000 0.244000
v 0.078000 0.622000 0.264000
v 0.042000 0.658000 0.264000
v 0.078000 0.658000 0.264000
v 0.078000 0.658000 0.244000
v 0.042000 0.658000 0.244000
v -0.570000 0.920000 0.006000
v -0.570000 0.920000 -0.254000
v -0.540000 0.920000 -0.254000
v -0.540000 0.920000 0.006000
v -0.570000 1.900000 0.006000
v -0.540000 1.900000 0.006000
v -0.540000 1.900000 -0.254000
v -0.570000 1.900000 -0.254000
v 0.540000 0.920000 0.006000
v 0.540000 0.920000 -0.254000
v 0.570000 0.920000 -0.254000
v 0.570000 0.920000 0.006000
v 0.540000 1.900000 0.006000
v 0.570000 1.900000 0.006000
v 0.570000 1.900000 -0.254000
v 0.540000 1.900000 -0.254000
v -0.570000 0.920000 -0.224000
v 0.570000 0.920000 -0.224000
v -0.570000 1.900000 -0.224000
v 0.570000 1.900000 -0.224000
v -0.540000 1.240000 0.006000
v -0.540000 1.240000 -0.229000
v 0.540000 1.240000 -0.229000
v 0.540000 1.240000 0.006000
v -0.540000 1.265000 0.006000
v 0.540000 1.265000 0.006000
v 0.540000 1.265000 -0.229000
v -0.540000 1.265000 -0.229000
v -0.540000 1.560000 0.006000
v -0.540000 1.560000 -0.229000
v 0.540000 1.560000 -0.229000
v 0.540000 1.560000 0.006000
v -0.540000 1.585000 0.006000
v 0.540000 1.585000 0.006000
v 0.540000 1.585000 -0.229000
v -0.540000 1.585000 -0.229000
v -0.570000 1.930000 0.006000
v 0.570000 1.930000 0.006000
v 0.570000 1.930000 -0.254000
v -0.570000 1.930000 -0.254000
v -0.600000 1.930000 0.036000
v -0.600000 1.930000 -0.264000
v 0.600000 1.930000 -0.264000
v 0.600000 1.930000 0.036000
v -0.600000 1.980000 0.036000
v 0.600000 1.980000 0.036000
v 0.600000 1.980000 -0.264000
v -0.600000 1.980000 -0.264000
v -0.540000 0.920000 -0.124000
v -0.540000 0.920000 -0.148000
v 0.540000 0.920000 -0.148000
v 0.540000 0.920000 -0.124000
v -0.540000 0.940000 -0.124000
v 0.540000 0.940000 -0.124000
v 0.540000 0.940000 -0.148000
v -0.540000 0.940000 -0.148000
v -0.540000 1.265000 -0.124000
v -0.540000 1.265000 -0.148000
v 0.540000 1.265000 -0.148000
v 0.540000 1.265000 -0.124000
v -0.540000 1.285000 -0.124000
v 0.540000 1.285000 -0.124000
v 0.540000 1.285000 -0.148000
v -0.540000 1.285000 -0.148000
v -0.540000 1.585000 -0.124000
v -0.540000 1.585000 -0.148000
v 0.540000 1.585000 -0.148000
v 0.540000 1.585000 -0.124000
v -0.540000 1.605000 -0.124000
v 0.540000 1.605000 -0.124000
v 0.540000 1.605000 -0.148000
v -0.540000 1.605000 -0.148000
v -0.330000 1.266854 -0.154294
v -0.241612 1.301674 -0.165607
v -0.205000 1.385736 -0.192921
v -0.241612 1.469798 -0.220234
v -0.330000 1.504618 -0.231548
v -0.418388 1.469798 -0.220234
v -0.455000 1.385736 -0.192921
v -0.418388 1.301674 -0.165607
v -0.418388 1.297966 -0.177020
v -0.455000 1.382028 -0.204333
v -0.418388 1.466090 -0.231647
v -0.330000 1.500910 -0.242961
v -0.241612 1.466090 -0.231647
v -0.205000 1.382028 -0.204333
v -0.241612 1.297966 -0.177020
v -0.330000 1.263146 -0.165706
v -0.110000 1.266854 -0.154294
v -0.021612 1.301674 -0.165607
v 0.015000 1.385736 -0.192921
v -0.021612 1.469798 -0.220234
v -0.110000 1.504618 -0.231548
v -0.198388 1.469798 -0.220234
v -0.235000 1.385736 -0.192921
v -0.198388 1.301674 -0.165607
v -0.198388 1.297966 -0.177020
v -0.235000 1.382028 -0.204333
v -0.198388 1.466090 -0.231647
v -0.110000 1.500910 -0.242961
v -0.021612 1.466090 -0.231647
v 0.015000 1.382028 -0.204333
v -0.021612 1.297966 -0.177020
v -0.110000 1.263146 -0.165706
v 0.110000 1.266854 -0.154294
v 0.198388 1.301674 -0.165607
v 0.235000 1.385736 -0.192921
v 0.198388 1.469798 -0.220234
v 0.110000 1.504618 -0.231548
v 0.021612 1.469798 -0.220234
v -0.015000 1.385736 -0.192921
v 0.021612 1.301674 -0.165607
v 0.021612 1.297966 -0.177020
v -0.015000 1.382028 -0.204333
v 0.021612 1.466090 -0.231647
v 0.110000 1.500910 -0.242961
v 0.198388 1.466090 -0.231647
v 0.235000 1.382028 -0.204333
v 0.198388 1.297966 -0.177020
v 0.110000 1.263146 -0.165706
v 0.330000 1.266854 -0.154294
v 0.418388 1.301674 -0.165607
v 0.455000 1.385736 -0.192921
v 0.418388 1.469798 -0.220234
v 0.330000 1.504618 -0.231548
v 0.241612 1.469798 -0.220234
v 0.205000 1.385736 -0.192921
v 0.241612 1.301674 -0.165607
v 0.241612 1.297966 -0.177020
v 0.205000 1.382028 -0.204333
v 0.241612 1.466090 -0.231647
v 0.330000 1.500910 -0.242961
v 0.418388 1.466090 -0.231647
v 0.455000 1.382028 -0.204333
v 0.418388 1.297966 -0.177020
v 0.330000 1.263146 -0.165706
v -0.250000 1.586854 -0.154294
v -0.151005 1.625852 -0.166965
v -0.110000 1.720002 -0.197556
v -0.151005 1.814152 -0.228147
v -0.250000 1.853150 -0.240818
v -0.348995 1.814152 -0.228147
v -0.390000 1.720002 -0.197556
v -0.348995 1.625852 -0.166965
v -0.348995 1.622144 -0.178378
v -0.390000 1.716294 -0.208969
v -0.348995 1.810444 -0.239560
v -0.250000 1.849442 -0.252231
v -0.151005 1.810444 -0.239560
v -0.110000 1.716294 -0.208969
v -0.151005 1.622144 -0.178378
v -0.250000 1.583146 -0.165706
v 0.000000 1.586854 -0.154294
v 0.098995 1.625852 -0.166965
v 0.140000 1.720002 -0.197556
v 0.098995 1.814152 -0.228147
v 0.000000 1.853150 -0.240818
v -0.098995 1.814152 -0.228147
v -0.140000 1.720002 -0.197556
v -0.098995 1.625852 -0.166965
v -0.098995 1.622144 -0.178378
v -0.140000 1.716294 -0.208969
v -0.098995 1.810444 -0.239560
v 0.000000 1.849442 -0.252231
v 0.098995 1.810444 -0.239560
v 0.140000 1.716294 -0.208969
v 0.098995 1.622144 -0.178378
v 0.000000 1.583146 -0.165706
v 0.250000 1.586854 -0.154294
v 0.348995 1.625852 -0.166965
v 0.390000 1.720002 -0.197556
v 0.348995 1.814152 -0.228147
v 0.250000 1.853150 -0.240818
v 0.151005 1.814152 -0.228147
v 0.110000 1.720002 -0.197556
v 0.151005 1.625852 -0.166965
v 0.151005 1.622144 -0.178378
v 0.110000 1.716294 -0.208969
v 0.151005 1.810444 -0.239560
v 0.250000 1.849442 -0.252231
v 0.348995 1.810444 -0.239560
v 0.390000 1.716294 -0.208969
v 0.348995 1.622144 -0.178378
v 0.250000 1.583146 -0.165706
v -0.259000 0.920000 -0.047986
v -0.341000 0.920000 -0.047986
v -0.382000 0.920000 -0.119000
v -0.341000 0.920000 -0.190014
v -0.259000 0.920000 -0.190014
v -0.218000 0.920000 -0.119000
v -0.234000 1.155000 -0.119000
v -0.267000 1.155000 -0.176158
v -0.333000 1.155000 -0.176158
v -0.366000 1.155000 -0.119000
v -0.333000 1.155000 -0.061842
v -0.267000 1.155000 -0.061842
v -0.234400 0.995200 -0.104720
v -0.234400 0.995200 -0.133280
v -0.200400 0.995200 -0.133280
v -0.200400 0.995200 -0.104720
v -0.234400 1.103300 -0.104720
v -0.200400 1.103300 -0.104720
v -0.200400 1.103300 -0.133280
v -0.234400 1.103300 -0.133280
v 0.266000 0.920000 -0.075306
v 0.204000 0.920000 -0.075306
v 0.173000 0.920000 -0.129000
v 0.204000 0.920000 -0.182694
v 0.266000 0.920000 -0.182694
v 0.297000 0.920000 -0.129000
v 0.287000 1.085000 -0.129000
v 0.261000 1.085000 -0.174033
v 0.209000 1.085000 -0.174033
v 0.183000 1.085000 -0.129000
v 0.209000 1.085000 -0.083967
v 0.261000 1.085000 -0.083967
v 0.284600 0.972800 -0.118080
v 0.284600 0.972800 -0.139920
v 0.310600 0.972800 -0.139920
v 0.310600 0.972800 -0.118080
v 0.284600 1.048700 -0.118080
v 0.310600 1.048700 -0.118080
v 0.310600 1.048700 -0.139920
v 0.284600 1.048700 -0.139920
vn -0.0000 -1.0000 -0.0000
vn -0.0000 1.0000 -0.0000
vn -0.0000 -0.0000 1.0000
vn -0.0000 -0.0000 -1.0000
vn -1.0000 -0.0000 -0.0000
vn 1.0000 -0.0000 -0.0000
vn -0.0000 0.3090 0.9511
vn -0.0000 -0.3090 -0.9511
vn 0.3827 -0.8787 0.2855
vn 0.9239 -0.3640 0.1183
vn 0.9239 0.3640 -0.1183
vn 0.3827 0.8787 -0.2855
vn -0.3827 0.8787 -0.2855
vn -0.9239 0.3640 -0.1183
vn -0.9239 -0.3640 0.1183
vn -0.3827 -0.8787 0.2855
vn 0.8645 0.0589 -0.4991
vn -0.0000 0.0589 -0.9983
vn -0.8645 0.0589 -0.4991
vn -0.8645 0.0589 0.4991
vn -0.0000 0.0589 0.9983
vn 0.8645 0.0589 0.4991
vn 0.8648 0.0524 -0.4993
vn -0.0000 0.0524 -0.9986
vn -0.8648 0.0524 -0.4993
vn -0.8648 0.0524 0.4993
vn -0.0000 0.0524 0.9986
vn 0.8648 0.0524 0.4993
vt 0.437500 0.937500
vt 0.937500 0.812500
vt 0.437500 0.312500
vt 0.312500 0.687500
s 0
usemtl FN_Atlas
f 1/1/1 2/1/1 3/1/1 4/1/1
f 5/1/2 6/1/2 7/1/2 8/1/2
f 1/1/3 4/1/3 6/1/3 5/1/3
f 3/1/4 2/1/4 8/1/4 7/1/4
f 1/1/5 5/1/5 8/1/5 2/1/5
f 4/1/6 3/1/6 7/1/6 6/1/6
f 9/1/1 10/1/1 11/1/1 12/1/1
f 13/1/2 14/1/2 15/1/2 16/1/2
f 9/1/3 12/1/3 14/1/3 13/1/3
f 11/1/4 10/1/4 16/1/4 15/1/4
f 9/1/5 13/1/5 16/1/5 10/1/5
f 12/1/6 11/1/6 15/1/6 14/1/6
f 17/1/1 2/1/1 11/1/1 18/1/1
f 19/1/2 20/1/2 15/1/2 8/1/2
f 17/1/3 18/1/3 20/1/3 19/1/3
f 11/1/4 2/1/4 8/1/4 15/1/4
f 17/1/5 19/1/5 8/1/5 2/1/5
f 18/1/6 11/1/6 15/1/6 20/1/6
f 1/1/1 2/1/1 11/1/1 12/1/1
f 21/1/2 22/1/2 23/1/2 24/1/2
f 1/1/3 12/1/3 22/1/3 21/1/3
f 11/1/4 2/1/4 24/1/4 23/1/4
f 1/1/5 21/1/5 24/1/5 2/1/5
f 12/1/6 11/1/6 23/1/6 22/1/6
f 4/1/1 25/1/1 26/1/1 9/1/1
f 6/1/2 13/1/2 27/1/2 28/1/2
f 4/1/3 9/1/3 13/1/3 6/1/3
f 26/1/4 25/1/4 28/1/4 27/1/4
f 4/1/5 6/1/5 28/1/5 25/1/5
f 9/1/6 26/1/6 27/1/6 13/1/6
f 29/1/1 30/1/1 31/1/1 32/1/1
f 33/1/2 34/1/2 35/1/2 36/1/2
f 29/1/3 32/1/3 34/1/3 33/1/3
f 31/1/4 30/1/4 36/1/4 35/1/4
f 29/1/5 33/1/5 36/1/5 30/1/5
f 32/1/6 31/1/6 35/1/6 34/1/6
f 37/1/1 38/1/1 39/1/1 40/1/1
f 41/1/2 42/1/2 43/1/2 44/1/2
f 37/1/3 40/1/3 42/1/3 41/1/3
f 39/1/4 38/1/4 44/1/4 43/1/4
f 37/1/5 41/1/5 44/1/5 38/1/5
f 40/1/6 39/1/6 43/1/6 42/1/6
f 45/2/1 46/2/1 47/2/1 48/2/1
f 49/2/2 50/2/2 51/2/2 52/2/2
f 45/2/3 48/2/3 50/2/3 49/2/3
f 47/2/4 46/2/4 52/2/4 51/2/4
f 45/2/5 49/2/5 52/2/5 46/2/5
f 48/2/6 47/2/6 51/2/6 50/2/6
f 53/2/1 54/2/1 55/2/1 56/2/1
f 57/2/2 58/2/2 59/2/2 60/2/2
f 53/2/3 56/2/3 58/2/3 57/2/3
f 55/2/4 54/2/4 60/2/4 59/2/4
f 53/2/5 57/2/5 60/2/5 54/2/5
f 56/2/6 55/2/6 59/2/6 58/2/6
f 61/2/1 62/2/1 63/2/1 64/2/1
f 65/2/2 66/2/2 67/2/2 68/2/2
f 61/2/3 64/2/3 66/2/3 65/2/3
f 63/2/4 62/2/4 68/2/4 67/2/4
f 61/2/5 65/2/5 68/2/5 62/2/5
f 64/2/6 63/2/6 67/2/6 66/2/6
f 69/2/1 70/2/1 71/2/1 72/2/1
f 73/2/2 74/2/2 75/2/2 76/2/2
f 69/2/3 72/2/3 74/2/3 73/2/3
f 71/2/4 70/2/4 76/2/4 75/2/4
f 69/2/5 73/2/5 76/2/5 70/2/5
f 72/2/6 71/2/6 75/2/6 74/2/6
f 77/3/1 78/3/1 79/3/1 80/3/1
f 81/3/2 82/3/2 83/3/2 84/3/2
f 77/3/3 80/3/3 82/3/3 81/3/3
f 79/3/4 78/3/4 84/3/4 83/3/4
f 77/3/5 81/3/5 84/3/5 78/3/5
f 80/3/6 79/3/6 83/3/6 82/3/6
f 85/3/1 86/3/1 87/3/1 88/3/1
f 89/3/2 90/3/2 91/3/2 92/3/2
f 85/3/3 88/3/3 90/3/3 89/3/3
f 87/3/4 86/3/4 92/3/4 91/3/4
f 85/3/5 89/3/5 92/3/5 86/3/5
f 88/3/6 87/3/6 91/3/6 90/3/6
f 93/3/1 94/3/1 95/3/1 96/3/1
f 97/3/2 98/3/2 99/3/2 100/3/2
f 93/3/3 96/3/3 98/3/3 97/3/3
f 95/3/4 94/3/4 100/3/4 99/3/4
f 93/3/5 97/3/5 100/3/5 94/3/5
f 96/3/6 95/3/6 99/3/6 98/3/6
f 101/3/1 102/3/1 103/3/1 104/3/1
f 105/3/2 106/3/2 107/3/2 108/3/2
f 101/3/3 104/3/3 106/3/3 105/3/3
f 103/3/4 102/3/4 108/3/4 107/3/4
f 101/3/5 105/3/5 108/3/5 102/3/5
f 104/3/6 103/3/6 107/3/6 106/3/6
f 109/1/1 110/1/1 111/1/1 112/1/1
f 113/1/2 114/1/2 115/1/2 116/1/2
f 109/1/3 112/1/3 114/1/3 113/1/3
f 111/1/4 110/1/4 116/1/4 115/1/4
f 109/1/5 113/1/5 116/1/5 110/1/5
f 112/1/6 111/1/6 115/1/6 114/1/6
f 117/1/1 118/1/1 119/1/1 120/1/1
f 121/1/2 122/1/2 123/1/2 124/1/2
f 117/1/3 120/1/3 122/1/3 121/1/3
f 119/1/4 118/1/4 124/1/4 123/1/4
f 117/1/5 121/1/5 124/1/5 118/1/5
f 120/1/6 119/1/6 123/1/6 122/1/6
f 125/1/1 110/1/1 119/1/1 126/1/1
f 127/1/2 128/1/2 123/1/2 116/1/2
f 125/1/3 126/1/3 128/1/3 127/1/3
f 119/1/4 110/1/4 116/1/4 123/1/4
f 125/1/5 127/1/5 116/1/5 110/1/5
f 126/1/6 119/1/6 123/1/6 128/1/6
f 129/1/1 130/1/1 131/1/1 132/1/1
f 133/1/2 134/1/2 135/1/2 136/1/2
f 129/1/3 132/1/3 134/1/3 133/1/3
f 131/1/4 130/1/4 136/1/4 135/1/4
f 129/1/5 133/1/5 136/1/5 130/1/5
f 132/1/6 131/1/6 135/1/6 134/1/6
f 137/1/1 138/1/1 139/1/1 140/1/1
f 141/1/2 142/1/2 143/1/2 144/1/2
f 137/1/3 140/1/3 142/1/3 141/1/3
f 139/1/4 138/1/4 144/1/4 143/1/4
f 137/1/5 141/1/5 144/1/5 138/1/5
f 140/1/6 139/1/6 143/1/6 142/1/6
f 113/1/1 116/1/1 123/1/1 122/1/1
f 145/1/2 146/1/2 147/1/2 148/1/2
f 113/1/3 122/1/3 146/1/3 145/1/3
f 123/1/4 116/1/4 148/1/4 147/1/4
f 113/1/5 145/1/5 148/1/5 116/1/5
f 122/1/6 123/1/6 147/1/6 146/1/6
f 149/1/1 150/1/1 151/1/1 152/1/1
f 153/1/2 154/1/2 155/1/2 156/1/2
f 149/1/3 152/1/3 154/1/3 153/1/3
f 151/1/4 150/1/4 156/1/4 155/1/4
f 149/1/5 153/1/5 156/1/5 150/1/5
f 152/1/6 151/1/6 155/1/6 154/1/6
f 157/1/1 158/1/1 159/1/1 160/1/1
f 161/1/2 162/1/2 163/1/2 164/1/2
f 157/1/3 160/1/3 162/1/3 161/1/3
f 159/1/4 158/1/4 164/1/4 163/1/4
f 157/1/5 161/1/5 164/1/5 158/1/5
f 160/1/6 159/1/6 163/1/6 162/1/6
f 165/1/1 166/1/1 167/1/1 168/1/1
f 169/1/2 170/1/2 171/1/2 172/1/2
f 165/1/3 168/1/3 170/1/3 169/1/3
f 167/1/4 166/1/4 172/1/4 171/1/4
f 165/1/5 169/1/5 172/1/5 166/1/5
f 168/1/6 167/1/6 171/1/6 170/1/6
f 173/1/1 174/1/1 175/1/1 176/1/1
f 177/1/2 178/1/2 179/1/2 180/1/2
f 173/1/3 176/1/3 178/1/3 177/1/3
f 175/1/4 174/1/4 180/1/4 179/1/4
f 173/1/5 177/1/5 180/1/5 174/1/5
f 176/1/6 175/1/6 179/1/6 178/1/6
f 181/4/7 182/4/7 183/4/7 184/4/7 185/4/7 186/4/7 187/4/7 188/4/7
f 189/4/8 190/4/8 191/4/8 192/4/8 193/4/8 194/4/8 195/4/8 196/4/8
f 196/4/9 195/4/9 182/4/9 181/4/9
f 195/4/10 194/4/10 183/4/10 182/4/10
f 194/4/11 193/4/11 184/4/11 183/4/11
f 193/4/12 192/4/12 185/4/12 184/4/12
f 192/4/13 191/4/13 186/4/13 185/4/13
f 191/4/14 190/4/14 187/4/14 186/4/14
f 190/4/15 189/4/15 188/4/15 187/4/15
f 189/4/16 196/4/16 181/4/16 188/4/16
f 197/4/7 198/4/7 199/4/7 200/4/7 201/4/7 202/4/7 203/4/7 204/4/7
f 205/4/8 206/4/8 207/4/8 208/4/8 209/4/8 210/4/8 211/4/8 212/4/8
f 212/4/9 211/4/9 198/4/9 197/4/9
f 211/4/10 210/4/10 199/4/10 198/4/10
f 210/4/11 209/4/11 200/4/11 199/4/11
f 209/4/12 208/4/12 201/4/12 200/4/12
f 208/4/13 207/4/13 202/4/13 201/4/13
f 207/4/14 206/4/14 203/4/14 202/4/14
f 206/4/15 205/4/15 204/4/15 203/4/15
f 205/4/16 212/4/16 197/4/16 204/4/16
f 213/4/7 214/4/7 215/4/7 216/4/7 217/4/7 218/4/7 219/4/7 220/4/7
f 221/4/8 222/4/8 223/4/8 224/4/8 225/4/8 226/4/8 227/4/8 228/4/8
f 228/4/9 227/4/9 214/4/9 213/4/9
f 227/4/10 226/4/10 215/4/10 214/4/10
f 226/4/11 225/4/11 216/4/11 215/4/11
f 225/4/12 224/4/12 217/4/12 216/4/12
f 224/4/13 223/4/13 218/4/13 217/4/13
f 223/4/14 222/4/14 219/4/14 218/4/14
f 222/4/15 221/4/15 220/4/15 219/4/15
f 221/4/16 228/4/16 213/4/16 220/4/16
f 229/4/7 230/4/7 231/4/7 232/4/7 233/4/7 234/4/7 235/4/7 236/4/7
f 237/4/8 238/4/8 239/4/8 240/4/8 241/4/8 242/4/8 243/4/8 244/4/8
f 244/4/9 243/4/9 230/4/9 229/4/9
f 243/4/10 242/4/10 231/4/10 230/4/10
f 242/4/11 241/4/11 232/4/11 231/4/11
f 241/4/12 240/4/12 233/4/12 232/4/12
f 240/4/13 239/4/13 234/4/13 233/4/13
f 239/4/14 238/4/14 235/4/14 234/4/14
f 238/4/15 237/4/15 236/4/15 235/4/15
f 237/4/16 244/4/16 229/4/16 236/4/16
f 245/4/7 246/4/7 247/4/7 248/4/7 249/4/7 250/4/7 251/4/7 252/4/7
f 253/4/8 254/4/8 255/4/8 256/4/8 257/4/8 258/4/8 259/4/8 260/4/8
f 260/4/9 259/4/9 246/4/9 245/4/9
f 259/4/10 258/4/10 247/4/10 246/4/10
f 258/4/11 257/4/11 248/4/11 247/4/11
f 257/4/12 256/4/12 249/4/12 248/4/12
f 256/4/13 255/4/13 250/4/13 249/4/13
f 255/4/14 254/4/14 251/4/14 250/4/14
f 254/4/15 253/4/15 252/4/15 251/4/15
f 253/4/16 260/4/16 245/4/16 252/4/16
f 261/4/7 262/4/7 263/4/7 264/4/7 265/4/7 266/4/7 267/4/7 268/4/7
f 269/4/8 270/4/8 271/4/8 272/4/8 273/4/8 274/4/8 275/4/8 276/4/8
f 276/4/9 275/4/9 262/4/9 261/4/9
f 275/4/10 274/4/10 263/4/10 262/4/10
f 274/4/11 273/4/11 264/4/11 263/4/11
f 273/4/12 272/4/12 265/4/12 264/4/12
f 272/4/13 271/4/13 266/4/13 265/4/13
f 271/4/14 270/4/14 267/4/14 266/4/14
f 270/4/15 269/4/15 268/4/15 267/4/15
f 269/4/16 276/4/16 261/4/16 268/4/16
f 277/4/7 278/4/7 279/4/7 280/4/7 281/4/7 282/4/7 283/4/7 284/4/7
f 285/4/8 286/4/8 287/4/8 288/4/8 289/4/8 290/4/8 291/4/8 292/4/8
f 292/4/9 291/4/9 278/4/9 277/4/9
f 291/4/10 290/4/10 279/4/10 278/4/10
f 290/4/11 289/4/11 280/4/11 279/4/11
f 289/4/12 288/4/12 281/4/12 280/4/12
f 288/4/13 287/4/13 282/4/13 281/4/13
f 287/4/14 286/4/14 283/4/14 282/4/14
f 286/4/15 285/4/15 284/4/15 283/4/15
f 285/4/16 292/4/16 277/4/16 284/4/16
f 293/2/1 294/2/1 295/2/1 296/2/1 297/2/1 298/2/1
f 299/2/2 300/2/2 301/2/2 302/2/2 303/2/2 304/2/2
f 298/2/17 297/2/17 300/2/17 299/2/17
f 297/2/18 296/2/18 301/2/18 300/2/18
f 296/2/19 295/2/19 302/2/19 301/2/19
f 295/2/20 294/2/20 303/2/20 302/2/20
f 294/2/21 293/2/21 304/2/21 303/2/21
f 293/2/22 298/2/22 299/2/22 304/2/22
f 305/2/1 306/2/1 307/2/1 308/2/1
f 309/2/2 310/2/2 311/2/2 312/2/2
f 305/2/3 308/2/3 310/2/3 309/2/3
f 307/2/4 306/2/4 312/2/4 311/2/4
f 305/2/5 309/2/5 312/2/5 306/2/5
f 308/2/6 307/2/6 311/2/6 310/2/6
f 313/2/1 314/2/1 315/2/1 316/2/1 317/2/1 318/2/1
f 319/2/2 320/2/2 321/2/2 322/2/2 323/2/2 324/2/2
f 318/2/23 317/2/23 320/2/23 319/2/23
f 317/2/24 316/2/24 321/2/24 320/2/24
f 316/2/25 315/2/25 322/2/25 321/2/25
f 315/2/26 314/2/26 323/2/26 322/2/26
f 314/2/27 313/2/27 324/2/27 323/2/27
f 313/2/28 318/2/28 319/2/28 324/2/28
f 325/2/1 326/2/1 327/2/1 328/2/1
f 329/2/2 330/2/2 331/2/2 332/2/2
f 325/2/3 328/2/3 330/2/3 329/2/3
f 327/2/4 326/2/4 332/2/4 331/2/4
f 325/2/5 329/2/5 332/2/5 326/2/5
f 328/2/6 327/2/6 331/2/6 330/2/6
