# Blender 5.2.0 LTS
# www.blender.org
mtllib FN_Desk_Bureau.mtl
o FN_Desk_Bureau
v -0.450000 0.080000 -0.000000
v -0.450000 0.080000 -0.480000
v -0.420000 0.080000 -0.480000
v -0.420000 0.080000 -0.000000
v -0.450000 1.050000 -0.000000
v -0.420000 1.050000 -0.000000
v -0.420000 1.050000 -0.480000
v -0.450000 1.050000 -0.480000
v 0.420000 0.080000 -0.000000
v 0.420000 0.080000 -0.480000
v 0.450000 0.080000 -0.480000
v 0.450000 0.080000 -0.000000
v 0.420000 1.050000 -0.000000
v 0.450000 1.050000 -0.000000
v 0.450000 1.050000 -0.480000
v 0.420000 1.050000 -0.480000
v -0.450000 0.080000 -0.450000
v 0.450000 0.080000 -0.450000
v -0.450000 1.050000 -0.450000
v 0.450000 1.050000 -0.450000
v -0.450000 1.010000 -0.000000
v -0.450000 1.010000 -0.480000
v 0.450000 1.010000 -0.480000
v 0.450000 1.010000 -0.000000
v -0.435000 0.000000 -0.015000
v -0.435000 0.000000 -0.465000
v 0.435000 0.000000 -0.465000
v 0.435000 0.000000 -0.015000
v -0.435000 0.080000 -0.015000
v 0.435000 0.080000 -0.015000
v 0.435000 0.080000 -0.465000
v -0.435000 0.080000 -0.465000
v -0.420000 0.080000 -0.024000
v 0.420000 0.080000 -0.024000
v -0.420000 0.698000 -0.000000
v 0.420000 0.698000 -0.000000
v 0.420000 0.698000 -0.024000
v -0.420000 0.698000 -0.024000
v -0.436000 0.120000 0.024000
v -0.436000 0.120000 -0.000000
v 0.436000 0.120000 -0.000000
v 0.436000 0.120000 0.024000
v -0.436000 0.390000 0.024000
v 0.436000 0.390000 0.024000
v 0.436000 0.390000 -0.000000
v -0.436000 0.390000 -0.000000
v -0.110000 0.239000 0.050000
v -0.110000 0.239000 0.024000
v 0.110000 0.239000 0.024000
v 0.110000 0.239000 0.050000
v -0.110000 0.271000 0.050000
v 0.110000 0.271000 0.050000
v 0.110000 0.271000 0.024000
v -0.110000 0.271000 0.024000
v -0.436000 0.410000 0.024000
v -0.436000 0.410000 -0.000000
v 0.436000 0.410000 -0.000000
v 0.436000 0.410000 0.024000
v -0.436000 0.680000 0.024000
v 0.436000 0.680000 0.024000
v 0.436000 0.680000 -0.000000
v -0.436000 0.680000 -0.000000
v -0.110000 0.529000 0.050000
v -0.110000 0.529000 0.024000
v 0.110000 0.529000 0.024000
v 0.110000 0.529000 0.050000
v -0.110000 0.561000 0.050000
v 0.110000 0.561000 0.050000
v 0.110000 0.561000 0.024000
v -0.110000 0.561000 0.024000
v -0.450000 0.698000 -0.000000
v -0.450000 0.698000 -0.024000
v -0.360000 0.698000 -0.024000
v -0.360000 0.698000 -0.000000
v -0.450000 0.745000 -0.000000
v -0.360000 0.745000 -0.000000
v -0.360000 0.745000 -0.024000
v -0.450000 0.745000 -0.024000
v -0.300000 0.698000 -0.000000
v -0.300000 0.698000 -0.024000
v 0.300000 0.698000 -0.024000
v 0.300000 0.698000 -0.000000
v -0.300000 0.745000 -0.000000
v 0.300000 0.745000 -0.000000
v 0.300000 0.745000 -0.024000
v -0.300000 0.745000 -0.024000
v 0.360000 0.698000 -0.000000
v 0.360000 0.698000 -0.024000
v 0.450000 0.698000 -0.024000
v 0.450000 0.698000 -0.000000
v 0.360000 0.745000 -0.000000
v 0.450000 0.745000 -0.000000
v 0.450000 0.745000 -0.024000
v 0.360000 0.745000 -0.024000
v -0.354000 0.704000 0.480000
v -0.354000 0.704000 -0.420000
v -0.306000 0.704000 -0.420000
v -0.306000 0.704000 0.480000
v -0.354000 0.745000 0.480000
v -0.306000 0.745000 0.480000
v -0.306000 0.745000 -0.420000
v -0.354000 0.745000 -0.420000
v 0.306000 0.704000 0.480000
v 0.306000 0.704000 -0.420000
v 0.354000 0.704000 -0.420000
v 0.354000 0.704000 0.480000
v 0.306000 0.745000 0.480000
v 0.354000 0.745000 0.480000
v 0.354000 0.745000 -0.420000
v 0.306000 0.745000 -0.420000
v -0.418000 0.742000 0.400000
v -0.418000 0.742000 -0.000000
v 0.418000 0.742000 -0.000000
v 0.418000 0.742000 0.400000
v -0.418000 0.764000 0.400000
v 0.418000 0.764000 0.400000
v 0.418000 0.764000 -0.000000
v -0.418000 0.764000 -0.000000
v -0.230000 0.728144 -0.008000
v -0.230000 0.728144 0.008000
v -0.230000 0.742000 0.016000
v -0.230000 0.755856 0.008000
v -0.230000 0.755856 -0.008000
v -0.230000 0.742000 -0.016000
v -0.170000 0.742000 -0.016000
v -0.170000 0.755856 -0.008000
v -0.170000 0.755856 0.008000
v -0.170000 0.742000 0.016000
v -0.170000 0.728144 0.008000
v -0.170000 0.728144 -0.008000
v 0.170000 0.728144 -0.008000
v 0.170000 0.728144 0.008000
v 0.170000 0.742000 0.016000
v 0.170000 0.755856 0.008000
v 0.170000 0.755856 -0.008000
v 0.170000 0.742000 -0.016000
v 0.230000 0.742000 -0.016000
v 0.230000 0.755856 -0.008000
v 0.230000 0.755856 0.008000
v 0.230000 0.742000 0.016000
v 0.230000 0.728144 0.008000
v 0.230000 0.728144 -0.008000
v -0.420000 0.715000 -0.000000
v -0.420000 0.715000 -0.450000
v 0.420000 0.715000 -0.450000
v 0.420000 0.715000 -0.000000
v -0.420000 0.745000 -0.000000
v 0.420000 0.745000 -0.000000
v 0.420000 0.745000 -0.450000
v -0.420000 0.745000 -0.450000
v -0.420000 0.870000 -0.000000
v -0.420000 0.870000 -0.450000
v 0.420000 0.870000 -0.450000
v 0.420000 0.870000 -0.000000
v -0.420000 0.888000 -0.000000
v 0.420000 0.888000 -0.000000
v 0.420000 0.888000 -0.450000
v -0.420000 0.888000 -0.450000
v -0.217000 0.745000 -0.040000
v -0.217000 0.745000 -0.450000
v -0.203000 0.745000 -0.450000
v -0.203000 0.745000 -0.040000
v -0.217000 0.870000 -0.040000
v -0.203000 0.870000 -0.040000
v -0.203000 0.870000 -0.450000
v -0.217000 0.870000 -0.450000
v -0.217000 0.888000 -0.040000
v -0.217000 0.888000 -0.450000
v -0.203000 0.888000 -0.450000
v -0.203000 0.888000 -0.040000
v -0.217000 1.010000 -0.040000
v -0.203000 1.010000 -0.040000
v -0.203000 1.010000 -0.450000
v -0.217000 1.010000 -0.450000
v -0.007000 0.745000 -0.040000
v -0.007000 0.745000 -0.450000
v 0.007000 0.745000 -0.450000
v 0.007000 0.745000 -0.040000
v -0.007000 0.870000 -0.040000
v 0.007000 0.870000 -0.040000
v 0.007000 0.870000 -0.450000
v -0.007000 0.870000 -0.450000
v -0.007000 0.888000 -0.040000
v -0.007000 0.888000 -0.450000
v 0.007000 0.888000 -0.450000
v 0.007000 0.888000 -0.040000
v -0.007000 1.010000 -0.040000
v 0.007000 1.010000 -0.040000
v 0.007000 1.010000 -0.450000
v -0.007000 1.010000 -0.450000
v 0.203000 0.745000 -0.040000
v 0.203000 0.745000 -0.450000
v 0.217000 0.745000 -0.450000
v 0.217000 0.745000 -0.040000
v 0.203000 0.870000 -0.040000
v 0.217000 0.870000 -0.040000
v 0.217000 0.870000 -0.450000
v 0.203000 0.870000 -0.450000
v 0.203000 0.888000 -0.040000
v 0.203000 0.888000 -0.450000
v 0.217000 0.888000 -0.450000
v 0.217000 0.888000 -0.040000
v 0.203000 1.010000 -0.040000
v 0.217000 1.010000 -0.040000
v 0.217000 1.010000 -0.450000
v 0.203000 1.010000 -0.450000
v -0.190000 0.745000 -0.060000
v -0.190000 0.745000 -0.360000
v -0.030000 0.745000 -0.360000
v -0.030000 0.745000 -0.060000
v -0.190000 0.775000 -0.060000
v -0.030000 0.775000 -0.060000
v -0.030000 0.775000 -0.360000
v -0.190000 0.775000 -0.360000
v 0.030000 0.888000 -0.080000
v 0.030000 0.888000 -0.380000
v 0.180000 0.888000 -0.380000
v 0.180000 0.888000 -0.080000
v 0.030000 0.912000 -0.080000
v 0.180000 0.912000 -0.080000
v 0.180000 0.912000 -0.380000
v 0.030000 0.912000 -0.380000
vn -0.0000 -1.0000 -0.0000
vn -0.0000 1.0000 -0.0000
vn -0.0000 -0.0000 1.0000
vn -0.0000 -0.0000 -1.0000
vn -1.0000 -0.0000 -0.0000
vn 1.0000 -0.0000 -0.0000
vn -0.0000 0.5000 -0.8660
vn -0.0000 0.5000 0.8660
vn -0.0000 -0.5000 0.8660
vn -0.0000 -0.5000 -0.8660
vt 0.687500 0.937500
vt 0.437500 0.312500
vt 0.437500 0.937500
vt 0.937500 0.812500
vt 0.312500 0.687500
s 0
usemtl FN_Atlas
f 1/1/1 2/1/1 3/1/1 4/1/1
f 5/1/2 6/1/2 7/1/2 8/1/2
f 1/1/3 4/1/3 6/1/3 5/1/3
f 3/1/4 2/1/4 8/1/4 7/1/4
f 1/1/5 5/1/5 8/1/5 2/1/5
f 4/1/6 3/1/6 7/1/6 6/1/6
f 9/1/1 10/1/1 11/1/1 12/1/1
f 13/1/2 14/1/2 15/1/2 16/1/2
f 9/1/3 12/1/3 14/1/3 13/1/3
f 11/1/4 10/1/4 16/1/4 15/1/4
f 9/1/5 13/1/5 16/1/5 10/1/5
f 12/1/6 11/1/6 15/1/6 14/1/6
f 17/1/1 2/1/1 11/1/1 18/1/1
f 19/1/2 20/1/2 15/1/2 8/1/2
f 17/1/3 18/1/3 20/1/3 19/1/3
f 11/1/4 2/1/4 8/1/4 15/1/4
f 17/1/5 19/1/5 8/1/5 2/1/5
f 18/1/6 11/1/6 15/1/6 20/1/6
f 21/1/1 22/1/1 23/1/1 24/1/1
f 5/1/2 14/1/2 15/1/2 8/1/2
f 21/1/3 24/1/3 14/1/3 5/1/3
f 23/1/4 22/1/4 8/1/4 15/1/4
f 21/1/5 5/1/5 8/1/5 22/1/5
f 24/1/6 23/1/6 15/1/6 14/1/6
f 25/1/1 26/1/1 27/1/1 28/1/1
f 29/1/2 30/1/2 31/1/2 32/1/2
f 25/1/3 28/1/3 30/1/3 29/1/3
f 27/1/4 26/1/4 32/1/4 31/1/4
f 25/1/5 29/1/5 32/1/5 26/1/5
f 28/1/6 27/1/6 31/1/6 30/1/6
f 4/1/1 33/1/1 34/1/1 9/1/1
f 35/1/2 36/1/2 37/1/2 38/1/2
f 4/1/3 9/1/3 36/1/3 35/1/3
f 34/1/4 33/1/4 38/1/4 37/1/4
f 4/1/5 35/1/5 38/1/5 33/1/5
f 9/1/6 34/1/6 37/1/6 36/1/6
f 39/1/1 40/1/1 41/1/1 42/1/1
f 43/1/2 44/1/2 45/1/2 46/1/2
f 39/1/3 42/1/3 44/1/3 43/1/3
f 41/1/4 40/1/4 46/1/4 45/1/4
f 39/1/5 43/1/5 46/1/5 40/1/5
f 42/1/6 41/1/6 45/1/6 44/1/6
f 47/2/1 48/2/1 49/2/1 50/2/1
f 51/2/2 52/2/2 53/2/2 54/2/2
f 47/2/3 50/2/3 52/2/3 51/2/3
f 49/2/4 48/2/4 54/2/4 53/2/4
f 47/2/5 51/2/5 54/2/5 48/2/5
f 50/2/6 49/2/6 53/2/6 52/2/6
f 55/1/1 56/1/1 57/1/1 58/1/1
f 59/1/2 60/1/2 61/1/2 62/1/2
f 55/1/3 58/1/3 60/1/3 59/1/3
f 57/1/4 56/1/4 62/1/4 61/1/4
f 55/1/5 59/1/5 62/1/5 56/1/5
f 58/1/6 57/1/6 61/1/6 60/1/6
f 63/2/1 64/2/1 65/2/1 66/2/1
f 67/2/2 68/2/2 69/2/2 70/2/2
f 63/2/3 66/2/3 68/2/3 67/2/3
f 65/2/4 64/2/4 70/2/4 69/2/4
f 63/2/5 67/2/5 70/2/5 64/2/5
f 66/2/6 65/2/6 69/2/6 68/2/6
f 71/1/1 72/1/1 73/1/1 74/1/1
f 75/1/2 76/1/2 77/1/2 78/1/2
f 71/1/3 74/1/3 76/1/3 75/1/3
f 73/1/4 72/1/4 78/1/4 77/1/4
f 71/1/5 75/1/5 78/1/5 72/1/5
f 74/1/6 73/1/6 77/1/6 76/1/6
f 79/1/1 80/1/1 81/1/1 82/1/1
f 83/1/2 84/1/2 85/1/2 86/1/2
f 79/1/3 82/1/3 84/1/3 83/1/3
f 81/1/4 80/1/4 86/1/4 85/1/4
f 79/1/5 83/1/5 86/1/5 80/1/5
f 82/1/6 81/1/6 85/1/6 84/1/6
f 87/1/1 88/1/1 89/1/1 90/1/1
f 91/1/2 92/1/2 93/1/2 94/1/2
f 87/1/3 90/1/3 92/1/3 91/1/3
f 89/1/4 88/1/4 94/1/4 93/1/4
f 87/1/5 91/1/5 94/1/5 88/1/5
f 90/1/6 89/1/6 93/1/6 92/1/6
f 95/3/1 96/3/1 97/3/1 98/3/1
f 99/3/2 100/3/2 101/3/2 102/3/2
f 95/3/3 98/3/3 100/3/3 99/3/3
f 97/3/4 96/3/4 102/3/4 101/3/4
f 95/3/5 99/3/5 102/3/5 96/3/5
f 98/3/6 97/3/6 101/3/6 100/3/6
f 103/3/1 104/3/1 105/3/1 106/3/1
f 107/3/2 108/3/2 109/3/2 110/3/2
f 103/3/3 106/3/3 108/3/3 107/3/3
f 105/3/4 104/3/4 110/3/4 109/3/4
f 103/3/5 107/3/5 110/3/5 104/3/5
f 106/3/6 105/3/6 109/3/6 108/3/6
f 111/1/1 112/1/1 113/1/1 114/1/1
f 115/1/2 116/1/2 117/1/2 118/1/2
f 111/1/3 114/1/3 116/1/3 115/1/3
f 113/1/4 112/1/4 118/1/4 117/1/4
f 111/1/5 115/1/5 118/1/5 112/1/5
f 114/1/6 113/1/6 117/1/6 116/1/6
f 119/2/5 120/2/5 121/2/5 122/2/5 123/2/5 124/2/5
f 125/2/6 126/2/6 127/2/6 128/2/6 129/2/6 130/2/6
f 124/2/7 123/2/7 126/2/7 125/2/7
f 123/2/2 122/2/2 127/2/2 126/2/2
f 122/2/8 121/2/8 128/2/8 127/2/8
f 121/2/9 120/2/9 129/2/9 128/2/9
f 120/2/1 119/2/1 130/2/1 129/2/1
f 119/2/10 124/2/10 125/2/10 130/2/10
f 131/2/5 132/2/5 133/2/5 134/2/5 135/2/5 136/2/5
f 137/2/6 138/2/6 139/2/6 140/2/6 141/2/6 142/2/6
f 136/2/7 135/2/7 138/2/7 137/2/7
f 135/2/2 134/2/2 139/2/2 138/2/2
f 134/2/8 133/2/8 140/2/8 139/2/8
f 133/2/9 132/2/9 141/2/9 140/2/9
f 132/2/1 131/2/1 142/2/1 141/2/1
f 131/2/10 136/2/10 137/2/10 142/2/10
f 143/3/1 144/3/1 145/3/1 146/3/1
f 147/3/2 148/3/2 149/3/2 150/3/2
f 143/3/3 146/3/3 148/3/3 147/3/3
f 145/3/4 144/3/4 150/3/4 149/3/4
f 143/3/5 147/3/5 150/3/5 144/3/5
f 146/3/6 145/3/6 149/3/6 148/3/6
f 151/3/1 152/3/1 153/3/1 154/3/1
f 155/3/2 156/3/2 157/3/2 158/3/2
f 151/3/3 154/3/3 156/3/3 155/3/3
f 153/3/4 152/3/4 158/3/4 157/3/4
f 151/3/5 155/3/5 158/3/5 152/3/5
f 154/3/6 153/3/6 157/3/6 156/3/6
f 159/3/1 160/3/1 161/3/1 162/3/1
f 163/3/2 164/3/2 165/3/2 166/3/2
f 159/3/3 162/3/3 164/3/3 163/3/3
f 161/3/4 160/3/4 166/3/4 165/3/4
f 159/3/5 163/3/5 166/3/5 160/3/5
f 162/3/6 161/3/6 165/3/6 164/3/6
f 167/3/1 168/3/1 169/3/1 170/3/1
f 171/3/2 172/3/2 173/3/2 174/3/2
f 167/3/3 170/3/3 172/3/3 171/3/3
f 169/3/4 168/3/4 174/3/4 173/3/4
f 167/3/5 171/3/5 174/3/5 168/3/5
f 170/3/6 169/3/6 173/3/6 172/3/6
f 175/3/1 176/3/1 177/3/1 178/3/1
f 179/3/2 180/3/2 181/3/2 182/3/2
f 175/3/3 178/3/3 180/3/3 179/3/3
f 177/3/4 176/3/4 182/3/4 181/3/4
f 175/3/5 179/3/5 182/3/5 176/3/5
f 178/3/6 177/3/6 181/3/6 180/3/6
f 183/3/1 184/3/1 185/3/1 186/3/1
f 187/3/2 188/3/2 189/3/2 190/3/2
f 183/3/3 186/3/3 188/3/3 187/3/3
f 185/3/4 184/3/4 190/3/4 189/3/4
f 183/3/5 187/3/5 190/3/5 184/3/5
f 186/3/6 185/3/6 189/3/6 188/3/6
f 191/3/1 192/3/1 193/3/1 194/3/1
f 195/3/2 196/3/2 197/3/2 198/3/2
f 191/3/3 194/3/3 196/3/3 195/3/3
f 193/3/4 192/3/4 198/3/4 197/3/4
f 191/3/5 195/3/5 198/3/5 192/3/5
f 194/3/6 193/3/6 197/3/6 196/3/6
f 199/3/1 200/3/1 201/3/1 202/3/1
f 203/3/2 204/3/2 205/3/2 206/3/2
f 199/3/3 202/3/3 204/3/3 203/3/3
f 201/3/4 200/3/4 206/3/4 205/3/4
f 199/3/5 203/3/5 206/3/5 200/3/5
f 202/3/6 201/3/6 205/3/6 204/3/6
f 207/4/1 208/4/1 209/4/1 210/4/1
f 211/4/2 212/4/2 213/4/2 214/4/2
f 207/4/3 210/4/3 212/4/3 211/4/3
f 209/4/4 208/4/4 214/4/4 213/4/4
f 207/4/5 211/4/5 214/4/5 208/4/5
f 210/4/6 209/4/6 213/4/6 212/4/6
f 215/5/1 216/5/1 217/5/1 218/5/1
f 219/5/2 220/5/2 221/5/2 222/5/2
f 215/5/3 218/5/3 220/5/3 219/5/3
f 217/5/4 216/5/4 222/5/4 221/5/4
f 215/5/5 219/5/5 222/5/5 216/5/5
f 218/5/6 217/5/6 221/5/6 220/5/6
