# Blender 5.2.0 LTS
# www.blender.org
mtllib FN_Desk_Workbench.mtl
o FN_Desk_Workbench
v -0.742000 0.000000 0.164500
v -0.658000 0.000000 0.164500
v -0.658000 0.000000 0.248500
v -0.742000 0.000000 0.248500
v -0.737000 0.870000 0.243500
v -0.663000 0.870000 0.243500
v -0.663000 0.870000 0.169500
v -0.737000 0.870000 0.169500
v -0.742000 0.000000 -0.395500
v -0.658000 0.000000 -0.395500
v -0.658000 0.000000 -0.311500
v -0.742000 0.000000 -0.311500
v -0.737000 0.870000 -0.316500
v -0.663000 0.870000 -0.316500
v -0.663000 0.870000 -0.390500
v -0.737000 0.870000 -0.390500
v 0.658000 0.000000 0.164500
v 0.742000 0.000000 0.164500
v 0.742000 0.000000 0.248500
v 0.658000 0.000000 0.248500
v 0.663000 0.870000 0.243500
v 0.737000 0.870000 0.243500
v 0.737000 0.870000 0.169500
v 0.663000 0.870000 0.169500
v 0.658000 0.000000 -0.395500
v 0.742000 0.000000 -0.395500
v 0.742000 0.000000 -0.311500
v 0.658000 0.000000 -0.311500
v 0.663000 0.870000 -0.316500
v 0.737000 0.870000 -0.316500
v 0.737000 0.870000 -0.390500
v 0.663000 0.870000 -0.390500
v -0.700000 0.774000 0.212500
v -0.700000 0.774000 0.174500
v 0.700000 0.774000 0.174500
v 0.700000 0.774000 0.212500
v -0.700000 0.860000 0.212500
v 0.700000 0.860000 0.212500
v 0.700000 0.860000 0.174500
v -0.700000 0.860000 0.174500
v -0.700000 0.774000 -0.321500
v -0.700000 0.774000 -0.359500
v 0.700000 0.774000 -0.359500
v 0.700000 0.774000 -0.321500
v -0.700000 0.860000 -0.321500
v 0.700000 0.860000 -0.321500
v 0.700000 0.860000 -0.359500
v -0.700000 0.860000 -0.359500
v -0.706000 0.774000 0.206500
v -0.706000 0.774000 -0.353500
v -0.668000 0.774000 -0.353500
v -0.668000 0.774000 0.206500
v -0.706000 0.860000 0.206500
v -0.668000 0.860000 0.206500
v -0.668000 0.860000 -0.353500
v -0.706000 0.860000 -0.353500
v 0.668000 0.774000 0.206500
v 0.668000 0.774000 -0.353500
v 0.706000 0.774000 -0.353500
v 0.706000 0.774000 0.206500
v 0.668000 0.860000 0.206500
v 0.706000 0.860000 0.206500
v 0.706000 0.860000 -0.353500
v 0.668000 0.860000 -0.353500
v -0.700000 0.134000 0.212500
v -0.700000 0.134000 0.178500
v 0.700000 0.134000 0.178500
v 0.700000 0.134000 0.212500
v -0.700000 0.190000 0.212500
v 0.700000 0.190000 0.212500
v 0.700000 0.190000 0.178500
v -0.700000 0.190000 0.178500
v -0.700000 0.134000 -0.325500
v -0.700000 0.134000 -0.359500
v 0.700000 0.134000 -0.359500
v 0.700000 0.134000 -0.325500
v -0.700000 0.190000 -0.325500
v 0.700000 0.190000 -0.325500
v 0.700000 0.190000 -0.359500
v -0.700000 0.190000 -0.359500
v -0.705371 0.164000 -0.361609
v 0.705371 0.164000 -0.361609
v 0.705371 0.164000 0.214609
v -0.705371 0.164000 0.214609
v 0.710000 0.169000 0.216500
v -0.710000 0.169000 0.216500
v 0.710000 0.169000 -0.363500
v -0.710000 0.169000 -0.363500
v 0.710000 0.185000 0.216500
v -0.710000 0.185000 0.216500
v 0.710000 0.185000 -0.363500
v -0.710000 0.185000 -0.363500
v -0.705371 0.190000 0.214609
v 0.705371 0.190000 0.214609
v 0.705371 0.190000 -0.361609
v -0.705371 0.190000 -0.361609
v -0.792671 0.860000 -0.420293
v 0.792671 0.860000 -0.420293
v 0.792671 0.860000 0.273293
v -0.792671 0.860000 0.273293
v 0.800000 0.868000 0.276500
v -0.800000 0.868000 0.276500
v 0.800000 0.868000 -0.423500
v -0.800000 0.868000 -0.423500
v 0.800000 0.912000 0.276500
v -0.800000 0.912000 0.276500
v 0.800000 0.912000 -0.423500
v -0.800000 0.912000 -0.423500
v -0.792671 0.920000 0.273293
v 0.792671 0.920000 0.273293
v 0.792671 0.920000 -0.420293
v -0.792671 0.920000 -0.420293
v -0.558000 0.720000 0.330500
v -0.558000 0.720000 0.212500
v -0.442000 0.720000 0.212500
v -0.442000 0.720000 0.330500
v -0.558000 0.860000 0.330500
v -0.442000 0.860000 0.330500
v -0.442000 0.860000 0.212500
v -0.558000 0.860000 0.212500
v -0.562000 0.764000 0.282500
v -0.562000 0.764000 0.246500
v -0.438000 0.764000 0.246500
v -0.438000 0.764000 0.282500
v -0.562000 0.866000 0.282500
v -0.438000 0.866000 0.282500
v -0.438000 0.866000 0.246500
v -0.562000 0.866000 0.246500
v -0.562000 0.764000 0.362500
v -0.562000 0.764000 0.326500
v -0.438000 0.764000 0.326500
v -0.438000 0.764000 0.362500
v -0.562000 0.866000 0.362500
v -0.438000 0.866000 0.362500
v -0.438000 0.866000 0.326500
v -0.562000 0.866000 0.326500
v -0.509899 0.817899 0.256500
v -0.500000 0.822000 0.256500
v -0.490101 0.817899 0.256500
v -0.486000 0.808000 0.256500
v -0.490101 0.798101 0.256500
v -0.500000 0.794000 0.256500
v -0.509899 0.798101 0.256500
v -0.514000 0.808000 0.256500
v -0.514000 0.808000 0.416500
v -0.509899 0.798101 0.416500
v -0.500000 0.794000 0.416500
v -0.490101 0.798101 0.416500
v -0.486000 0.808000 0.416500
v -0.490101 0.817899 0.416500
v -0.500000 0.822000 0.416500
v -0.509899 0.817899 0.416500
v -0.584000 0.817526 0.418000
v -0.584000 0.817526 0.407000
v -0.584000 0.808000 0.401500
v -0.584000 0.798474 0.407000
v -0.584000 0.798474 0.418000
v -0.584000 0.808000 0.423500
v -0.416000 0.808000 0.423500
v -0.416000 0.798474 0.418000
v -0.416000 0.798474 0.407000
v -0.416000 0.808000 0.401500
v -0.416000 0.817526 0.407000
v -0.416000 0.817526 0.418000
vn -0.0000 -1.0000 -0.0000
vn -0.0000 1.0000 -0.0000
vn -0.0000 0.0057 1.0000
vn 1.0000 0.0057 -0.0000
vn -0.0000 0.0057 -1.0000
vn -1.0000 0.0057 -0.0000
vn -0.0000 -0.0000 1.0000
vn -0.0000 -0.0000 -1.0000
vn -1.0000 -0.0000 -0.0000
vn 1.0000 -0.0000 -0.0000
vn -0.0000 -0.3537 0.9354
vn 0.7338 -0.6793 -0.0000
vn -0.0000 -0.3537 -0.9354
vn -0.7338 -0.6793 -0.0000
vn -0.0000 0.3537 0.9354
vn 0.7338 0.6793 -0.0000
vn -0.0000 0.3537 -0.9354
vn -0.7338 0.6793 -0.0000
vn -0.0000 -0.3720 0.9282
vn 0.7373 -0.6755 -0.0000
vn -0.0000 -0.3720 -0.9282
vn -0.7373 -0.6755 -0.0000
vn -0.0000 0.3720 0.9282
vn 0.7373 0.6755 -0.0000
vn -0.0000 0.3720 -0.9282
vn -0.7373 0.6755 -0.0000
vn -0.9239 -0.3827 -0.0000
vn -0.3827 -0.9239 -0.0000
vn 0.3827 -0.9239 -0.0000
vn 0.9239 -0.3827 -0.0000
vn 0.9239 0.3827 -0.0000
vn 0.3827 0.9239 -0.0000
vn -0.3827 0.9239 -0.0000
vn -0.9239 0.3827 -0.0000
vn -0.0000 -0.5000 0.8660
vn -0.0000 -0.5000 -0.8660
vn -0.0000 0.5000 -0.8660
vn -0.0000 0.5000 0.8660
vt 0.812500 0.937500
vt 0.562500 0.937500
vt 0.312500 0.937500
vt 0.937500 0.312500
vt 0.812500 0.312500
s 0
usemtl FN_Atlas
f 1/1/1 2/1/1 3/1/1 4/1/1
f 5/1/2 6/1/2 7/1/2 8/1/2
f 4/1/3 3/1/3 6/1/3 5/1/3
f 3/1/4 2/1/4 7/1/4 6/1/4
f 2/1/5 1/1/5 8/1/5 7/1/5
f 1/1/6 4/1/6 5/1/6 8/1/6
f 9/1/1 10/1/1 11/1/1 12/1/1
f 13/1/2 14/1/2 15/1/2 16/1/2
f 12/1/3 11/1/3 14/1/3 13/1/3
f 11/1/4 10/1/4 15/1/4 14/1/4
f 10/1/5 9/1/5 16/1/5 15/1/5
f 9/1/6 12/1/6 13/1/6 16/1/6
f 17/1/1 18/1/1 19/1/1 20/1/1
f 21/1/2 22/1/2 23/1/2 24/1/2
f 20/1/3 19/1/3 22/1/3 21/1/3
f 19/1/4 18/1/4 23/1/4 22/1/4
f 18/1/5 17/1/5 24/1/5 23/1/5
f 17/1/6 20/1/6 21/1/6 24/1/6
f 25/1/1 26/1/1 27/1/1 28/1/1
f 29/1/2 30/1/2 31/1/2 32/1/2
f 28/1/3 27/1/3 30/1/3 29/1/3
f 27/1/4 26/1/4 31/1/4 30/1/4
f 26/1/5 25/1/5 32/1/5 31/1/5
f 25/1/6 28/1/6 29/1/6 32/1/6
f 33/1/1 34/1/1 35/1/1 36/1/1
f 37/1/2 38/1/2 39/1/2 40/1/2
f 33/1/7 36/1/7 38/1/7 37/1/7
f 35/1/8 34/1/8 40/1/8 39/1/8
f 33/1/9 37/1/9 40/1/9 34/1/9
f 36/1/10 35/1/10 39/1/10 38/1/10
f 41/1/1 42/1/1 43/1/1 44/1/1
f 45/1/2 46/1/2 47/1/2 48/1/2
f 41/1/7 44/1/7 46/1/7 45/1/7
f 43/1/8 42/1/8 48/1/8 47/1/8
f 41/1/9 45/1/9 48/1/9 42/1/9
f 44/1/10 43/1/10 47/1/10 46/1/10
f 49/1/1 50/1/1 51/1/1 52/1/1
f 53/1/2 54/1/2 55/1/2 56/1/2
f 49/1/7 52/1/7 54/1/7 53/1/7
f 51/1/8 50/1/8 56/1/8 55/1/8
f 49/1/9 53/1/9 56/1/9 50/1/9
f 52/1/10 51/1/10 55/1/10 54/1/10
f 57/1/1 58/1/1 59/1/1 60/1/1
f 61/1/2 62/1/2 63/1/2 64/1/2
f 57/1/7 60/1/7 62/1/7 61/1/7
f 59/1/8 58/1/8 64/1/8 63/1/8
f 57/1/9 61/1/9 64/1/9 58/1/9
f 60/1/10 59/1/10 63/1/10 62/1/10
f 65/1/1 66/1/1 67/1/1 68/1/1
f 69/1/2 70/1/2 71/1/2 72/1/2
f 65/1/7 68/1/7 70/1/7 69/1/7
f 67/1/8 66/1/8 72/1/8 71/1/8
f 65/1/9 69/1/9 72/1/9 66/1/9
f 68/1/10 67/1/10 71/1/10 70/1/10
f 73/1/1 74/1/1 75/1/1 76/1/1
f 77/1/2 78/1/2 79/1/2 80/1/2
f 73/1/7 76/1/7 78/1/7 77/1/7
f 75/1/8 74/1/8 80/1/8 79/1/8
f 73/1/9 77/1/9 80/1/9 74/1/9
f 76/1/10 75/1/10 79/1/10 78/1/10
f 81/2/1 82/2/1 83/2/1 84/2/1
f 84/2/11 83/2/11 85/2/11 86/2/11
f 83/2/12 82/2/12 87/2/12 85/2/12
f 82/2/13 81/2/13 88/2/13 87/2/13
f 81/2/14 84/2/14 86/2/14 88/2/14
f 86/2/7 85/2/7 89/2/7 90/2/7
f 85/2/10 87/2/10 91/2/10 89/2/10
f 87/2/8 88/2/8 92/2/8 91/2/8
f 88/2/9 86/2/9 90/2/9 92/2/9
f 93/1/2 94/1/2 95/1/2 96/1/2
f 90/2/15 89/2/15 94/2/15 93/2/15
f 89/2/16 91/2/16 95/2/16 94/2/16
f 91/2/17 92/2/17 96/2/17 95/2/17
f 92/2/18 90/2/18 93/2/18 96/2/18
f 97/2/1 98/2/1 99/2/1 100/2/1
f 100/2/19 99/2/19 101/2/19 102/2/19
f 99/2/20 98/2/20 103/2/20 101/2/20
f 98/2/21 97/2/21 104/2/21 103/2/21
f 97/2/22 100/2/22 102/2/22 104/2/22
f 102/2/7 101/2/7 105/2/7 106/2/7
f 101/2/10 103/2/10 107/2/10 105/2/10
f 103/2/8 104/2/8 108/2/8 107/2/8
f 104/2/9 102/2/9 106/2/9 108/2/9
f 109/3/2 110/3/2 111/3/2 112/3/2
f 106/2/23 105/2/23 110/2/23 109/2/23
f 105/2/24 107/2/24 111/2/24 110/2/24
f 107/2/25 108/2/25 112/2/25 111/2/25
f 108/2/26 106/2/26 109/2/26 112/2/26
f 113/4/1 114/4/1 115/4/1 116/4/1
f 117/4/2 118/4/2 119/4/2 120/4/2
f 113/4/7 116/4/7 118/4/7 117/4/7
f 115/4/8 114/4/8 120/4/8 119/4/8
f 113/4/9 117/4/9 120/4/9 114/4/9
f 116/4/10 115/4/10 119/4/10 118/4/10
f 121/5/1 122/5/1 123/5/1 124/5/1
f 125/5/2 126/5/2 127/5/2 128/5/2
f 121/5/7 124/5/7 126/5/7 125/5/7
f 123/5/8 122/5/8 128/5/8 127/5/8
f 121/5/9 125/5/9 128/5/9 122/5/9
f 124/5/10 123/5/10 127/5/10 126/5/10
f 129/5/1 130/5/1 131/5/1 132/5/1
f 133/5/2 134/5/2 135/5/2 136/5/2
f 129/5/7 132/5/7 134/5/7 133/5/7
f 131/5/8 130/5/8 136/5/8 135/5/8
f 129/5/9 133/5/9 136/5/9 130/5/9
f 132/5/10 131/5/10 135/5/10 134/5/10
f 137/4/8 138/4/8 139/4/8 140/4/8 141/4/8 142/4/8 143/4/8 144/4/8
f 145/4/7 146/4/7 147/4/7 148/4/7 149/4/7 150/4/7 151/4/7 152/4/7
f 144/4/27 143/4/27 146/4/27 145/4/27
f 143/4/28 142/4/28 147/4/28 146/4/28
f 142/4/29 141/4/29 148/4/29 147/4/29
f 141/4/30 140/4/30 149/4/30 148/4/30
f 140/4/31 139/4/31 150/4/31 149/4/31
f 139/4/32 138/4/32 151/4/32 150/4/32
f 138/4/33 137/4/33 152/4/33 151/4/33
f 137/4/34 144/4/34 145/4/34 152/4/34
f 153/4/9 154/4/9 155/4/9 156/4/9 157/4/9 158/4/9
f 159/4/10 160/4/10 161/4/10 162/4/10 163/4/10 164/4/10
f 158/4/35 157/4/35 160/4/35 159/4/35
f 157/4/1 156/4/1 161/4/1 160/4/1
f 156/4/36 155/4/36 162/4/36 161/4/36
f 155/4/37 154/4/37 163/4/37 162/4/37
f 154/4/2 153/4/2 164/4/2 163/4/2
f 153/4/38 158/4/38 159/4/38 164/4/38
