# Blender 5.2.0 LTS
# www.blender.org
mtllib FN_Easel_Artist.mtl
o FN_Easel_Artist
v -0.167000 1.700000 0.167000
v -0.167000 1.700000 0.133000
v -0.167000 0.000000 0.193000
v -0.167000 0.000000 0.227000
v -0.133000 0.000000 0.227000
v -0.133000 0.000000 0.193000
v -0.133000 1.700000 0.133000
v -0.133000 1.700000 0.167000
v 0.133000 1.700000 0.167000
v 0.133000 1.700000 0.133000
v 0.133000 0.000000 0.193000
v 0.133000 0.000000 0.227000
v 0.167000 0.000000 0.227000
v 0.167000 0.000000 0.193000
v 0.167000 1.700000 0.133000
v 0.167000 1.700000 0.167000
v -0.017000 1.640000 0.117000
v -0.017000 1.640000 0.083000
v -0.017000 0.000000 -0.277000
v -0.017000 0.000000 -0.243000
v 0.017000 0.000000 -0.243000
v 0.017000 0.000000 -0.277000
v 0.017000 1.640000 0.083000
v 0.017000 1.640000 0.117000
v -0.175000 1.606000 0.177000
v -0.175000 1.606000 0.107000
v 0.175000 1.606000 0.107000
v 0.175000 1.606000 0.177000
v -0.175000 1.652000 0.177000
v 0.175000 1.652000 0.177000
v 0.175000 1.652000 0.107000
v -0.175000 1.652000 0.107000
v -0.175000 0.880000 0.277000
v -0.175000 0.880000 0.167000
v 0.175000 0.880000 0.167000
v 0.175000 0.880000 0.277000
v -0.175000 0.906000 0.277000
v 0.175000 0.906000 0.277000
v 0.175000 0.906000 0.167000
v -0.175000 0.906000 0.167000
v -0.175000 0.900000 0.277000
v -0.175000 0.900000 0.263000
v 0.175000 0.900000 0.263000
v 0.175000 0.900000 0.277000
v -0.175000 0.934000 0.277000
v 0.175000 0.934000 0.277000
v 0.175000 0.934000 0.263000
v -0.175000 0.934000 0.263000
v -0.280000 1.586000 0.171000
v -0.280000 1.586000 0.151000
v -0.280000 0.892000 0.247000
v -0.280000 0.892000 0.267000
v 0.280000 0.892000 0.267000
v 0.280000 0.892000 0.247000
v 0.280000 1.586000 0.151000
v 0.280000 1.586000 0.171000
v -0.180000 1.470000 0.207000
v -0.180000 1.470000 0.157000
v 0.180000 1.470000 0.157000
v 0.180000 1.470000 0.207000
v -0.180000 1.500000 0.207000
v 0.180000 1.500000 0.207000
v 0.180000 1.500000 0.157000
v -0.180000 1.500000 0.157000
vn -1.0000 -0.0000 -0.0000
vn 1.0000 -0.0000 -0.0000
vn -0.0000 -1.0000 -0.0000
vn -0.0000 -0.0353 -0.9994
vn -0.0000 1.0000 -0.0000
vn -0.0000 0.0353 0.9994
vn -0.0000 0.2144 -0.9767
vn -0.0000 -0.2144 0.9767
vn -0.0000 -0.0000 1.0000
vn -0.0000 -0.0000 -1.0000
vn -0.0000 -0.1370 -0.9906
vn -0.0000 0.1370 0.9906
vt 0.687500 0.937500
vt 0.187500 0.687500
s 0
usemtl FN_Atlas
f 1/1/1 2/1/1 3/1/1 4/1/1
f 5/1/2 6/1/2 7/1/2 8/1/2
f 4/1/3 3/1/3 6/1/3 5/1/3
f 3/1/4 2/1/4 7/1/4 6/1/4
f 2/1/5 1/1/5 8/1/5 7/1/5
f 1/1/6 4/1/6 5/1/6 8/1/6
f 9/1/1 10/1/1 11/1/1 12/1/1
f 13/1/2 14/1/2 15/1/2 16/1/2
f 12/1/3 11/1/3 14/1/3 13/1/3
f 11/1/4 10/1/4 15/1/4 14/1/4
f 10/1/5 9/1/5 16/1/5 15/1/5
f 9/1/6 12/1/6 13/1/6 16/1/6
f 17/1/1 18/1/1 19/1/1 20/1/1
f 21/1/2 22/1/2 23/1/2 24/1/2
f 20/1/3 19/1/3 22/1/3 21/1/3
f 19/1/7 18/1/7 23/1/7 22/1/7
f 18/1/5 17/1/5 24/1/5 23/1/5
f 17/1/8 20/1/8 21/1/8 24/1/8
f 25/1/3 26/1/3 27/1/3 28/1/3
f 29/1/5 30/1/5 31/1/5 32/1/5
f 25/1/9 28/1/9 30/1/9 29/1/9
f 27/1/10 26/1/10 32/1/10 31/1/10
f 25/1/1 29/1/1 32/1/1 26/1/1
f 28/1/2 27/1/2 31/1/2 30/1/2
f 33/1/3 34/1/3 35/1/3 36/1/3
f 37/1/5 38/1/5 39/1/5 40/1/5
f 33/1/9 36/1/9 38/1/9 37/1/9
f 35/1/10 34/1/10 40/1/10 39/1/10
f 33/1/1 37/1/1 40/1/1 34/1/1
f 36/1/2 35/1/2 39/1/2 38/1/2
f 41/1/3 42/1/3 43/1/3 44/1/3
f 45/1/5 46/1/5 47/1/5 48/1/5
f 41/1/9 44/1/9 46/1/9 45/1/9
f 43/1/10 42/1/10 48/1/10 47/1/10
f 41/1/1 45/1/1 48/1/1 42/1/1
f 44/1/2 43/1/2 47/1/2 46/1/2
f 49/2/1 50/2/1 51/2/1 52/2/1
f 53/2/2 54/2/2 55/2/2 56/2/2
f 52/2/3 51/2/3 54/2/3 53/2/3
f 51/2/11 50/2/11 55/2/11 54/2/11
f 50/2/5 49/2/5 56/2/5 55/2/5
f 49/2/12 52/2/12 53/2/12 56/2/12
f 57/1/3 58/1/3 59/1/3 60/1/3
f 61/1/5 62/1/5 63/1/5 64/1/5
f 57/1/9 60/1/9 62/1/9 61/1/9
f 59/1/10 58/1/10 64/1/10 63/1/10
f 57/1/1 61/1/1 64/1/1 58/1/1
f 60/1/2 59/1/2 63/1/2 62/1/2
