# Blender 5.2.0 LTS
# www.blender.org
mtllib FN_Frame_Cold.mtl
o FN_Frame_Cold
v -0.585000 0.000000 -0.319365
v -0.585000 0.000000 -0.349365
v 0.585000 0.000000 -0.349365
v 0.585000 0.000000 -0.319365
v -0.585000 0.420000 -0.319365
v 0.585000 0.420000 -0.319365
v 0.585000 0.420000 -0.349365
v -0.585000 0.420000 -0.349365
v -0.585000 0.000000 0.350635
v -0.585000 0.000000 0.320635
v 0.585000 0.000000 0.320635
v 0.585000 0.000000 0.350635
v -0.585000 0.280000 0.350635
v 0.585000 0.280000 0.350635
v 0.585000 0.280000 0.320635
v -0.585000 0.280000 0.320635
v -0.570000 0.000000 0.350635
v -0.570000 0.000000 -0.349365
v -0.570000 0.420000 -0.349365
v -0.570000 0.280000 0.350635
v -0.600000 0.280000 0.350635
v -0.600000 0.420000 -0.349365
v -0.600000 0.000000 -0.349365
v -0.600000 0.000000 0.350635
v 0.570000 0.280000 0.350635
v 0.570000 0.420000 -0.349365
v 0.570000 0.000000 -0.349365
v 0.570000 0.000000 0.350635
v 0.600000 0.000000 0.350635
v 0.600000 0.000000 -0.349365
v 0.600000 0.420000 -0.349365
v 0.600000 0.280000 0.350635
v -0.575000 0.000000 0.325635
v -0.575000 0.000000 -0.324365
v 0.575000 0.000000 -0.324365
v 0.575000 0.000000 0.325635
v -0.575000 0.130000 0.325635
v 0.575000 0.130000 0.325635
v 0.575000 0.130000 -0.324365
v -0.575000 0.130000 -0.324365
v -0.315000 0.100000 0.176615
v -0.345000 0.100000 0.176615
v -0.360000 0.100000 0.150635
v -0.345000 0.100000 0.124654
v -0.315000 0.100000 0.124654
v -0.300000 0.100000 0.150635
v -0.258000 0.210000 0.150635
v -0.294000 0.210000 0.088281
v -0.366000 0.210000 0.088281
v -0.402000 0.210000 0.150635
v -0.366000 0.210000 0.212989
v -0.294000 0.210000 0.212989
v -0.117000 0.100000 0.173151
v -0.143000 0.100000 0.173151
v -0.156000 0.100000 0.150635
v -0.143000 0.100000 0.128118
v -0.117000 0.100000 0.128118
v -0.104000 0.100000 0.150635
v -0.066000 0.210000 0.150635
v -0.098000 0.210000 0.095209
v -0.162000 0.210000 0.095209
v -0.194000 0.210000 0.150635
v -0.162000 0.210000 0.206060
v -0.098000 0.210000 0.206060
v 0.085000 0.100000 0.176615
v 0.055000 0.100000 0.176615
v 0.040000 0.100000 0.150635
v 0.055000 0.100000 0.124654
v 0.085000 0.100000 0.124654
v 0.100000 0.100000 0.150635
v 0.140000 0.210000 0.150635
v 0.105000 0.210000 0.090013
v 0.035000 0.210000 0.090013
v 0.000000 0.210000 0.150635
v 0.035000 0.210000 0.211257
v 0.105000 0.210000 0.211257
v 0.282000 0.100000 0.171419
v 0.258000 0.100000 0.171419
v 0.246000 0.100000 0.150635
v 0.258000 0.100000 0.129850
v 0.282000 0.100000 0.129850
v 0.294000 0.100000 0.150635
v 0.330000 0.210000 0.150635
v 0.300000 0.210000 0.098673
v 0.240000 0.210000 0.098673
v 0.210000 0.210000 0.150635
v 0.240000 0.210000 0.202596
v 0.300000 0.210000 0.202596
v -0.315000 0.100000 -0.123385
v -0.345000 0.100000 -0.123385
v -0.360000 0.100000 -0.149365
v -0.345000 0.100000 -0.175346
v -0.315000 0.100000 -0.175346
v -0.300000 0.100000 -0.149365
v -0.258000 0.210000 -0.149365
v -0.294000 0.210000 -0.211719
v -0.366000 0.210000 -0.211719
v -0.402000 0.210000 -0.149365
v -0.366000 0.210000 -0.087011
v -0.294000 0.210000 -0.087011
v -0.117000 0.100000 -0.126849
v -0.143000 0.100000 -0.126849
v -0.156000 0.100000 -0.149365
v -0.143000 0.100000 -0.171882
v -0.117000 0.100000 -0.171882
v -0.104000 0.100000 -0.149365
v -0.066000 0.210000 -0.149365
v -0.098000 0.210000 -0.204791
v -0.162000 0.210000 -0.204791
v -0.194000 0.210000 -0.149365
v -0.162000 0.210000 -0.093940
v -0.098000 0.210000 -0.093940
v 0.085000 0.100000 -0.123385
v 0.055000 0.100000 -0.123385
v 0.040000 0.100000 -0.149365
v 0.055000 0.100000 -0.175346
v 0.085000 0.100000 -0.175346
v 0.100000 0.100000 -0.149365
v 0.140000 0.210000 -0.149365
v 0.105000 0.210000 -0.209987
v 0.035000 0.210000 -0.209987
v 0.000000 0.210000 -0.149365
v 0.035000 0.210000 -0.088743
v 0.105000 0.210000 -0.088743
v 0.282000 0.100000 -0.128581
v 0.258000 0.100000 -0.128581
v 0.246000 0.100000 -0.149365
v 0.258000 0.100000 -0.170150
v 0.282000 0.100000 -0.170150
v 0.294000 0.100000 -0.149365
v 0.330000 0.210000 -0.149365
v 0.300000 0.210000 -0.201327
v 0.240000 0.210000 -0.201327
v 0.210000 0.210000 -0.149365
v 0.240000 0.210000 -0.097404
v 0.300000 0.210000 -0.097404
v -0.594000 0.406000 -0.334365
v -0.594000 0.690716 0.305117
v -0.594000 0.727257 0.288847
v -0.594000 0.442542 -0.350635
v -0.550000 0.442542 -0.350635
v -0.550000 0.727257 0.288847
v -0.550000 0.690716 0.305117
v -0.550000 0.406000 -0.334365
v 0.550000 0.406000 -0.334365
v 0.550000 0.690716 0.305117
v 0.550000 0.727257 0.288847
v 0.550000 0.442542 -0.350635
v 0.594000 0.442542 -0.350635
v 0.594000 0.727257 0.288847
v 0.594000 0.690716 0.305117
v 0.594000 0.406000 -0.334365
v -0.600000 0.406000 -0.334365
v -0.600000 0.430404 -0.279553
v -0.600000 0.466946 -0.295822
v -0.600000 0.442542 -0.350635
v 0.600000 0.442542 -0.350635
v 0.600000 0.466946 -0.295822
v 0.600000 0.430404 -0.279553
v 0.600000 0.406000 -0.334365
v -0.600000 0.666311 0.250304
v -0.600000 0.690716 0.305117
v -0.600000 0.727257 0.288847
v -0.600000 0.702853 0.234034
v 0.600000 0.702853 0.234034
v 0.600000 0.727257 0.288847
v 0.600000 0.690716 0.305117
v 0.600000 0.666311 0.250304
v -0.566000 0.437299 -0.293569
v -0.566000 0.681341 0.254558
v -0.566000 0.695958 0.248051
v -0.566000 0.451916 -0.300077
v 0.566000 0.451916 -0.300077
v 0.566000 0.695958 0.248051
v 0.566000 0.681341 0.254558
v 0.566000 0.437299 -0.293569
v 0.558000 0.271715 0.347919
v 0.558000 0.646715 0.142919
v 0.558000 0.633285 0.118350
v 0.558000 0.258285 0.323350
v 0.582000 0.258285 0.323350
v 0.582000 0.633285 0.118350
v 0.582000 0.646715 0.142919
v 0.582000 0.271715 0.347919
vn -0.0000 -1.0000 -0.0000
vn -0.0000 1.0000 -0.0000
vn -0.0000 -0.0000 1.0000
vn -0.0000 -0.0000 -1.0000
vn -1.0000 -0.0000 -0.0000
vn 1.0000 -0.0000 -0.0000
vn -0.0000 0.9806 0.1961
vn 0.8222 -0.3139 -0.4747
vn -0.0000 -0.3139 -0.9494
vn -0.8222 -0.3139 -0.4747
vn -0.8222 -0.3139 0.4747
vn -0.0000 -0.3139 0.9494
vn 0.8222 -0.3139 0.4747
vn 0.8297 -0.2866 -0.4790
vn -0.0000 -0.2866 -0.9580
vn -0.8297 -0.2866 -0.4790
vn -0.8297 -0.2866 0.4790
vn -0.0000 -0.2866 0.9580
vn 0.8297 -0.2866 0.4790
vn 0.8260 -0.3004 -0.4769
vn -0.0000 -0.3004 -0.9538
vn -0.8260 -0.3004 -0.4769
vn -0.8260 -0.3004 0.4769
vn -0.0000 -0.3004 0.9538
vn 0.8260 -0.3004 0.4769
vn 0.8332 -0.2727 -0.4811
vn -0.0000 -0.2727 -0.9621
vn -0.8332 -0.2727 -0.4811
vn -0.8332 -0.2727 0.4811
vn -0.0000 -0.2727 0.9621
vn 0.8332 -0.2727 0.4811
vn -0.0000 -0.9135 0.4067
vn -0.0000 0.4067 0.9135
vn -0.0000 0.9135 -0.4067
vn -0.0000 -0.4067 -0.9135
vn -0.0000 0.4797 0.8774
vn -0.0000 0.8774 -0.4797
vn -0.0000 -0.4797 -0.8774
vn -0.0000 -0.8774 0.4797
vt 0.562500 0.937500
vt 0.812500 0.312500
vt 0.437500 0.562500
vt 0.562500 0.187500
s 0
usemtl FN_Atlas
f 1/1/1 2/1/1 3/1/1 4/1/1
f 5/1/2 6/1/2 7/1/2 8/1/2
f 1/1/3 4/1/3 6/1/3 5/1/3
f 3/1/4 2/1/4 8/1/4 7/1/4
f 1/1/5 5/1/5 8/1/5 2/1/5
f 4/1/6 3/1/6 7/1/6 6/1/6
f 9/1/1 10/1/1 11/1/1 12/1/1
f 13/1/2 14/1/2 15/1/2 16/1/2
f 9/1/3 12/1/3 14/1/3 13/1/3
f 11/1/4 10/1/4 16/1/4 15/1/4
f 9/1/5 13/1/5 16/1/5 10/1/5
f 12/1/6 11/1/6 15/1/6 14/1/6
f 17/1/6 18/1/6 19/1/6 20/1/6
f 21/1/5 22/1/5 23/1/5 24/1/5
f 24/1/1 23/1/1 18/1/1 17/1/1
f 23/1/4 22/1/4 19/1/4 18/1/4
f 22/1/7 21/1/7 20/1/7 19/1/7
f 21/1/3 24/1/3 17/1/3 20/1/3
f 25/1/5 26/1/5 27/1/5 28/1/5
f 29/1/6 30/1/6 31/1/6 32/1/6
f 28/1/1 27/1/1 30/1/1 29/1/1
f 27/1/4 26/1/4 31/1/4 30/1/4
f 26/1/7 25/1/7 32/1/7 31/1/7
f 25/1/3 28/1/3 29/1/3 32/1/3
f 33/2/1 34/2/1 35/2/1 36/2/1
f 37/2/2 38/2/2 39/2/2 40/2/2
f 33/2/3 36/2/3 38/2/3 37/2/3
f 35/2/4 34/2/4 40/2/4 39/2/4
f 33/2/5 37/2/5 40/2/5 34/2/5
f 36/2/6 35/2/6 39/2/6 38/2/6
f 41/3/1 42/3/1 43/3/1 44/3/1 45/3/1 46/3/1
f 47/3/2 48/3/2 49/3/2 50/3/2 51/3/2 52/3/2
f 46/3/8 45/3/8 48/3/8 47/3/8
f 45/3/9 44/3/9 49/3/9 48/3/9
f 44/3/10 43/3/10 50/3/10 49/3/10
f 43/3/11 42/3/11 51/3/11 50/3/11
f 42/3/12 41/3/12 52/3/12 51/3/12
f 41/3/13 46/3/13 47/3/13 52/3/13
f 53/3/1 54/3/1 55/3/1 56/3/1 57/3/1 58/3/1
f 59/3/2 60/3/2 61/3/2 62/3/2 63/3/2 64/3/2
f 58/3/14 57/3/14 60/3/14 59/3/14
f 57/3/15 56/3/15 61/3/15 60/3/15
f 56/3/16 55/3/16 62/3/16 61/3/16
f 55/3/17 54/3/17 63/3/17 62/3/17
f 54/3/18 53/3/18 64/3/18 63/3/18
f 53/3/19 58/3/19 59/3/19 64/3/19
f 65/3/1 66/3/1 67/3/1 68/3/1 69/3/1 70/3/1
f 71/3/2 72/3/2 73/3/2 74/3/2 75/3/2 76/3/2
f 70/3/20 69/3/20 72/3/20 71/3/20
f 69/3/21 68/3/21 73/3/21 72/3/21
f 68/3/22 67/3/22 74/3/22 73/3/22
f 67/3/23 66/3/23 75/3/23 74/3/23
f 66/3/24 65/3/24 76/3/24 75/3/24
f 65/3/25 70/3/25 71/3/25 76/3/25
f 77/3/1 78/3/1 79/3/1 80/3/1 81/3/1 82/3/1
f 83/3/2 84/3/2 85/3/2 86/3/2 87/3/2 88/3/2
f 82/3/26 81/3/26 84/3/26 83/3/26
f 81/3/27 80/3/27 85/3/27 84/3/27
f 80/3/28 79/3/28 86/3/28 85/3/28
f 79/3/29 78/3/29 87/3/29 86/3/29
f 78/3/30 77/3/30 88/3/30 87/3/30
f 77/3/31 82/3/31 83/3/31 88/3/31
f 89/3/1 90/3/1 91/3/1 92/3/1 93/3/1 94/3/1
f 95/3/2 96/3/2 97/3/2 98/3/2 99/3/2 100/3/2
f 94/3/8 93/3/8 96/3/8 95/3/8
f 93/3/9 92/3/9 97/3/9 96/3/9
f 92/3/10 91/3/10 98/3/10 97/3/10
f 91/3/11 90/3/11 99/3/11 98/3/11
f 90/3/12 89/3/12 100/3/12 99/3/12
f 89/3/13 94/3/13 95/3/13 100/3/13
f 101/3/1 102/3/1 103/3/1 104/3/1 105/3/1 106/3/1
f 107/3/2 108/3/2 109/3/2 110/3/2 111/3/2 112/3/2
f 106/3/14 105/3/14 108/3/14 107/3/14
f 105/3/15 104/3/15 109/3/15 108/3/15
f 104/3/16 103/3/16 110/3/16 109/3/16
f 103/3/17 102/3/17 111/3/17 110/3/17
f 102/3/18 101/3/18 112/3/18 111/3/18
f 101/3/19 106/3/19 107/3/19 112/3/19
f 113/3/1 114/3/1 115/3/1 116/3/1 117/3/1 118/3/1
f 119/3/2 120/3/2 121/3/2 122/3/2 123/3/2 124/3/2
f 118/3/20 117/3/20 120/3/20 119/3/20
f 117/3/21 116/3/21 121/3/21 120/3/21
f 116/3/22 115/3/22 122/3/22 121/3/22
f 115/3/23 114/3/23 123/3/23 122/3/23
f 114/3/24 113/3/24 124/3/24 123/3/24
f 113/3/25 118/3/25 119/3/25 124/3/25
f 125/3/1 126/3/1 127/3/1 128/3/1 129/3/1 130/3/1
f 131/3/2 132/3/2 133/3/2 134/3/2 135/3/2 136/3/2
f 130/3/26 129/3/26 132/3/26 131/3/26
f 129/3/27 128/3/27 133/3/27 132/3/27
f 128/3/28 127/3/28 134/3/28 133/3/28
f 127/3/29 126/3/29 135/3/29 134/3/29
f 126/3/30 125/3/30 136/3/30 135/3/30
f 125/3/31 130/3/31 131/3/31 136/3/31
f 137/1/5 138/1/5 139/1/5 140/1/5
f 141/1/6 142/1/6 143/1/6 144/1/6
f 144/1/32 143/1/32 138/1/32 137/1/32
f 143/1/33 142/1/33 139/1/33 138/1/33
f 142/1/34 141/1/34 140/1/34 139/1/34
f 141/1/35 144/1/35 137/1/35 140/1/35
f 145/1/5 146/1/5 147/1/5 148/1/5
f 149/1/6 150/1/6 151/1/6 152/1/6
f 152/1/32 151/1/32 146/1/32 145/1/32
f 151/1/33 150/1/33 147/1/33 146/1/33
f 150/1/34 149/1/34 148/1/34 147/1/34
f 149/1/35 152/1/35 145/1/35 148/1/35
f 153/1/5 154/1/5 155/1/5 156/1/5
f 157/1/6 158/1/6 159/1/6 160/1/6
f 160/1/32 159/1/32 154/1/32 153/1/32
f 159/1/33 158/1/33 155/1/33 154/1/33
f 158/1/34 157/1/34 156/1/34 155/1/34
f 157/1/35 160/1/35 153/1/35 156/1/35
f 161/1/5 162/1/5 163/1/5 164/1/5
f 165/1/6 166/1/6 167/1/6 168/1/6
f 168/1/32 167/1/32 162/1/32 161/1/32
f 167/1/33 166/1/33 163/1/33 162/1/33
f 166/1/34 165/1/34 164/1/34 163/1/34
f 165/1/35 168/1/35 161/1/35 164/1/35
f 177/1/5 178/1/5 179/1/5 180/1/5
f 181/1/6 182/1/6 183/1/6 184/1/6
f 184/1/36 183/1/36 178/1/36 177/1/36
f 183/1/37 182/1/37 179/1/37 178/1/37
f 182/1/38 181/1/38 180/1/38 179/1/38
f 181/1/39 184/1/39 177/1/39 180/1/39
usemtl FN_Glass
f 169/4/5 170/4/5 171/4/5 172/4/5
f 173/4/6 174/4/6 175/4/6 176/4/6
f 176/4/32 175/4/32 170/4/32 169/4/32
f 175/4/33 174/4/33 171/4/33 170/4/33
f 174/4/34 173/4/34 172/4/34 171/4/34
f 173/4/35 176/4/35 169/4/35 172/4/35
