# Blender 5.2.0 LTS
# www.blender.org
mtllib FN_Island_Kitchen.mtl
o FN_Island_Kitchen
v -0.750000 0.000000 0.113000
v -0.750000 0.000000 -0.407000
v 0.750000 0.000000 -0.407000
v 0.750000 0.000000 0.113000
v -0.750000 0.090000 0.113000
v 0.750000 0.090000 0.113000
v 0.750000 0.090000 -0.407000
v -0.750000 0.090000 -0.407000
v -0.470000 0.080000 0.153000
v -0.470000 0.080000 -0.447000
v 0.790000 0.080000 -0.447000
v 0.790000 0.080000 0.153000
v -0.470000 0.880000 0.153000
v 0.790000 0.880000 0.153000
v 0.790000 0.880000 -0.447000
v -0.470000 0.880000 -0.447000
v -0.790000 0.080000 0.179000
v -0.790000 0.080000 0.157000
v -0.450000 0.080000 0.157000
v -0.450000 0.080000 0.179000
v -0.790000 0.880000 0.179000
v -0.450000 0.880000 0.179000
v -0.450000 0.880000 0.157000
v -0.790000 0.880000 0.157000
v -0.790000 0.080000 -0.451000
v -0.790000 0.080000 -0.473000
v -0.450000 0.080000 -0.473000
v -0.450000 0.080000 -0.451000
v -0.790000 0.880000 -0.451000
v -0.450000 0.880000 -0.451000
v -0.450000 0.880000 -0.473000
v -0.790000 0.880000 -0.473000
v -0.790000 0.080000 0.153000
v -0.790000 0.080000 -0.447000
v -0.450000 0.080000 -0.447000
v -0.450000 0.080000 0.153000
v -0.790000 0.098000 0.153000
v -0.450000 0.098000 0.153000
v -0.450000 0.098000 -0.447000
v -0.790000 0.098000 -0.447000
v -0.790000 0.862000 0.153000
v -0.790000 0.862000 -0.447000
v -0.450000 0.862000 -0.447000
v -0.450000 0.862000 0.153000
v -0.790000 0.880000 0.153000
v -0.450000 0.880000 0.153000
v -0.450000 0.880000 -0.447000
v -0.790000 0.880000 -0.447000
v -0.790000 0.462000 0.153000
v -0.790000 0.462000 -0.447000
v -0.450000 0.462000 -0.447000
v -0.450000 0.462000 0.153000
v -0.790000 0.480000 0.153000
v -0.450000 0.480000 0.153000
v -0.450000 0.480000 -0.447000
v -0.790000 0.480000 -0.447000
v -0.820000 0.880000 0.473000
v -0.820000 0.880000 -0.467000
v 0.820000 0.880000 -0.467000
v 0.820000 0.880000 0.473000
v -0.820000 0.914000 0.473000
v 0.820000 0.914000 0.473000
v 0.820000 0.914000 -0.467000
v -0.820000 0.914000 -0.467000
v -0.814000 0.920000 0.467000
v 0.814000 0.920000 0.467000
v 0.814000 0.920000 -0.461000
v -0.814000 0.920000 -0.461000
v -0.450000 0.110000 -0.447000
v -0.450000 0.110000 -0.459000
v 0.160000 0.110000 -0.459000
v 0.160000 0.110000 -0.447000
v -0.450000 0.850000 -0.447000
v 0.160000 0.850000 -0.447000
v 0.160000 0.850000 -0.459000
v -0.450000 0.850000 -0.459000
v -0.390000 0.802000 -0.455000
v -0.390000 0.802000 -0.473000
v 0.100000 0.802000 -0.473000
v 0.100000 0.802000 -0.455000
v -0.390000 0.824000 -0.455000
v 0.100000 0.824000 -0.455000
v 0.100000 0.824000 -0.473000
v -0.390000 0.824000 -0.473000
v 0.170000 0.110000 -0.447000
v 0.170000 0.110000 -0.459000
v 0.780000 0.110000 -0.459000
v 0.780000 0.110000 -0.447000
v 0.170000 0.850000 -0.447000
v 0.780000 0.850000 -0.447000
v 0.780000 0.850000 -0.459000
v 0.170000 0.850000 -0.459000
v 0.230000 0.802000 -0.455000
v 0.230000 0.802000 -0.473000
v 0.720000 0.802000 -0.473000
v 0.720000 0.802000 -0.455000
v 0.230000 0.824000 -0.455000
v 0.720000 0.824000 -0.455000
v 0.720000 0.824000 -0.473000
v 0.230000 0.824000 -0.473000
v -0.514000 0.168000 0.313000
v -0.514000 0.168000 0.139000
v -0.486000 0.168000 0.139000
v -0.486000 0.168000 0.313000
v -0.514000 0.192000 0.313000
v -0.486000 0.192000 0.313000
v -0.486000 0.192000 0.139000
v -0.514000 0.192000 0.139000
v 0.486000 0.168000 0.313000
v 0.486000 0.168000 0.139000
v 0.514000 0.168000 0.139000
v 0.514000 0.168000 0.313000
v 0.486000 0.192000 0.313000
v 0.514000 0.192000 0.313000
v 0.514000 0.192000 0.139000
v 0.486000 0.192000 0.139000
v -0.700000 0.192728 0.315728
v -0.700000 0.198000 0.303000
v -0.700000 0.192728 0.290272
v -0.700000 0.180000 0.285000
v -0.700000 0.167272 0.290272
v -0.700000 0.162000 0.303000
v -0.700000 0.167272 0.315728
v -0.700000 0.180000 0.321000
v 0.700000 0.180000 0.321000
v 0.700000 0.167272 0.315728
v 0.700000 0.162000 0.303000
v 0.700000 0.167272 0.290272
v 0.700000 0.180000 0.285000
v 0.700000 0.192728 0.290272
v 0.700000 0.198000 0.303000
v 0.700000 0.192728 0.315728
vn -0.0000 -1.0000 -0.0000
vn -0.0000 1.0000 -0.0000
vn -0.0000 -0.0000 1.0000
vn -0.0000 -0.0000 -1.0000
vn -1.0000 -0.0000 -0.0000
vn 1.0000 -0.0000 -0.0000
vn -0.0000 0.7071 0.7071
vn 0.7071 0.7071 -0.0000
vn -0.0000 0.7071 -0.7071
vn -0.7071 0.7071 -0.0000
vn -0.0000 -0.3827 0.9239
vn -0.0000 -0.9239 0.3827
vn -0.0000 -0.9239 -0.3827
vn -0.0000 -0.3827 -0.9239
vn -0.0000 0.3827 -0.9239
vn -0.0000 0.9239 -0.3827
vn -0.0000 0.9239 0.3827
vn -0.0000 0.3827 0.9239
vt 0.812500 0.312500
vt 0.937500 0.812500
vt 0.437500 0.937500
vt 0.312500 0.187500
vt 0.437500 0.312500
s 0
usemtl FN_Atlas
f 1/1/1 2/1/1 3/1/1 4/1/1
f 5/1/2 6/1/2 7/1/2 8/1/2
f 1/1/3 4/1/3 6/1/3 5/1/3
f 3/1/4 2/1/4 8/1/4 7/1/4
f 1/1/5 5/1/5 8/1/5 2/1/5
f 4/1/6 3/1/6 7/1/6 6/1/6
f 9/2/1 10/2/1 11/2/1 12/2/1
f 13/2/2 14/2/2 15/2/2 16/2/2
f 9/2/3 12/2/3 14/2/3 13/2/3
f 11/2/4 10/2/4 16/2/4 15/2/4
f 9/2/5 13/2/5 16/2/5 10/2/5
f 12/2/6 11/2/6 15/2/6 14/2/6
f 17/2/1 18/2/1 19/2/1 20/2/1
f 21/2/2 22/2/2 23/2/2 24/2/2
f 17/2/3 20/2/3 22/2/3 21/2/3
f 19/3/4 18/3/4 24/3/4 23/3/4
f 17/2/5 21/2/5 24/2/5 18/2/5
f 20/2/6 19/2/6 23/2/6 22/2/6
f 25/2/1 26/2/1 27/2/1 28/2/1
f 29/2/2 30/2/2 31/2/2 32/2/2
f 25/3/3 28/3/3 30/3/3 29/3/3
f 27/2/4 26/2/4 32/2/4 31/2/4
f 25/2/5 29/2/5 32/2/5 26/2/5
f 28/2/6 27/2/6 31/2/6 30/2/6
f 33/3/1 34/3/1 35/3/1 36/3/1
f 37/3/2 38/3/2 39/3/2 40/3/2
f 33/3/3 36/3/3 38/3/3 37/3/3
f 35/3/4 34/3/4 40/3/4 39/3/4
f 33/3/5 37/3/5 40/3/5 34/3/5
f 36/3/6 35/3/6 39/3/6 38/3/6
f 41/3/1 42/3/1 43/3/1 44/3/1
f 45/3/2 46/3/2 47/3/2 48/3/2
f 41/3/3 44/3/3 46/3/3 45/3/3
f 43/3/4 42/3/4 48/3/4 47/3/4
f 41/3/5 45/3/5 48/3/5 42/3/5
f 44/3/6 43/3/6 47/3/6 46/3/6
f 49/3/1 50/3/1 51/3/1 52/3/1
f 53/3/2 54/3/2 55/3/2 56/3/2
f 49/3/3 52/3/3 54/3/3 53/3/3
f 51/3/4 50/3/4 56/3/4 55/3/4
f 49/3/5 53/3/5 56/3/5 50/3/5
f 52/3/6 51/3/6 55/3/6 54/3/6
f 57/4/1 58/4/1 59/4/1 60/4/1
f 61/4/2 62/4/2 63/4/2 64/4/2
f 57/4/3 60/4/3 62/4/3 61/4/3
f 59/4/4 58/4/4 64/4/4 63/4/4
f 57/4/5 61/4/5 64/4/5 58/4/5
f 60/4/6 59/4/6 63/4/6 62/4/6
f 65/4/2 66/4/2 67/4/2 68/4/2
f 61/4/7 62/4/7 66/4/7 65/4/7
f 62/4/8 63/4/8 67/4/8 66/4/8
f 63/4/9 64/4/9 68/4/9 67/4/9
f 64/4/10 61/4/10 65/4/10 68/4/10
f 69/2/1 70/2/1 71/2/1 72/2/1
f 73/2/2 74/2/2 75/2/2 76/2/2
f 69/2/3 72/2/3 74/2/3 73/2/3
f 71/2/4 70/2/4 76/2/4 75/2/4
f 69/2/5 73/2/5 76/2/5 70/2/5
f 72/2/6 71/2/6 75/2/6 74/2/6
f 77/5/1 78/5/1 79/5/1 80/5/1
f 81/5/2 82/5/2 83/5/2 84/5/2
f 77/5/3 80/5/3 82/5/3 81/5/3
f 79/5/4 78/5/4 84/5/4 83/5/4
f 77/5/5 81/5/5 84/5/5 78/5/5
f 80/5/6 79/5/6 83/5/6 82/5/6
f 85/2/1 86/2/1 87/2/1 88/2/1
f 89/2/2 90/2/2 91/2/2 92/2/2
f 85/2/3 88/2/3 90/2/3 89/2/3
f 87/2/4 86/2/4 92/2/4 91/2/4
f 85/2/5 89/2/5 92/2/5 86/2/5
f 88/2/6 87/2/6 91/2/6 90/2/6
f 93/5/1 94/5/1 95/5/1 96/5/1
f 97/5/2 98/5/2 99/5/2 100/5/2
f 93/5/3 96/5/3 98/5/3 97/5/3
f 95/5/4 94/5/4 100/5/4 99/5/4
f 93/5/5 97/5/5 100/5/5 94/5/5
f 96/5/6 95/5/6 99/5/6 98/5/6
f 101/5/1 102/5/1 103/5/1 104/5/1
f 105/5/2 106/5/2 107/5/2 108/5/2
f 101/5/3 104/5/3 106/5/3 105/5/3
f 103/5/4 102/5/4 108/5/4 107/5/4
f 101/5/5 105/5/5 108/5/5 102/5/5
f 104/5/6 103/5/6 107/5/6 106/5/6
f 109/5/1 110/5/1 111/5/1 112/5/1
f 113/5/2 114/5/2 115/5/2 116/5/2
f 109/5/3 112/5/3 114/5/3 113/5/3
f 111/5/4 110/5/4 116/5/4 115/5/4
f 109/5/5 113/5/5 116/5/5 110/5/5
f 112/5/6 111/5/6 115/5/6 114/5/6
f 117/5/5 118/5/5 119/5/5 120/5/5 121/5/5 122/5/5 123/5/5 124/5/5
f 125/5/6 126/5/6 127/5/6 128/5/6 129/5/6 130/5/6 131/5/6 132/5/6
f 124/5/11 123/5/11 126/5/11 125/5/11
f 123/5/12 122/5/12 127/5/12 126/5/12
f 122/5/13 121/5/13 128/5/13 127/5/13
f 121/5/14 120/5/14 129/5/14 128/5/14
f 120/5/15 119/5/15 130/5/15 129/5/15
f 119/5/16 118/5/16 131/5/16 130/5/16
f 118/5/17 117/5/17 132/5/17 131/5/17
f 117/5/18 124/5/18 125/5/18 132/5/18
