# Blender 5.2.0 LTS
# www.blender.org
mtllib FN_Kettle.mtl
o FN_Kettle
v 0.081968 0.000000 0.045000
v 0.049026 0.000000 0.077942
v 0.004026 0.000000 0.090000
v -0.040974 0.000000 0.077942
v -0.073916 0.000000 0.045000
v -0.085974 0.000000 -0.000000
v -0.073916 0.000000 -0.045000
v -0.040974 0.000000 -0.077942
v 0.004026 0.000000 -0.090000
v 0.049026 0.000000 -0.077942
v 0.081968 0.000000 -0.045000
v 0.094026 0.000000 0.000000
v 0.094026 0.020000 0.000000
v 0.081968 0.020000 -0.045000
v 0.049026 0.020000 -0.077942
v 0.004026 0.020000 -0.090000
v -0.040974 0.020000 -0.077942
v -0.073916 0.020000 -0.045000
v -0.085974 0.020000 -0.000000
v -0.073916 0.020000 0.045000
v -0.040974 0.020000 0.077942
v 0.004026 0.020000 0.090000
v 0.049026 0.020000 0.077942
v 0.081968 0.020000 0.045000
v 0.077638 0.020000 0.042500
v 0.046526 0.020000 0.073612
v 0.004026 0.020000 0.085000
v -0.038474 0.020000 0.073612
v -0.069586 0.020000 0.042500
v -0.080974 0.020000 -0.000000
v -0.069586 0.020000 -0.042500
v -0.038474 0.020000 -0.073612
v 0.004026 0.020000 -0.085000
v 0.046526 0.020000 -0.073612
v 0.077638 0.020000 -0.042500
v 0.089026 0.020000 0.000000
v 0.080236 0.055000 -0.044000
v 0.092026 0.055000 0.000000
v 0.048026 0.055000 -0.076210
v 0.004026 0.055000 -0.088000
v -0.039974 0.055000 -0.076210
v -0.072184 0.055000 -0.044000
v -0.083974 0.055000 -0.000000
v -0.072184 0.055000 0.044000
v -0.039974 0.055000 0.076210
v 0.004026 0.055000 0.088000
v 0.048026 0.055000 0.076210
v 0.080236 0.055000 0.044000
v 0.083700 0.075000 -0.046000
v 0.096026 0.075000 0.000000
v 0.050026 0.075000 -0.079674
v 0.004026 0.075000 -0.092000
v -0.041974 0.075000 -0.079674
v -0.075648 0.075000 -0.046000
v -0.087974 0.075000 -0.000000
v -0.075648 0.075000 0.046000
v -0.041974 0.075000 0.079674
v 0.004026 0.075000 0.092000
v 0.050026 0.075000 0.079674
v 0.083700 0.075000 0.046000
v 0.080236 0.095000 -0.044000
v 0.092026 0.095000 0.000000
v 0.048026 0.095000 -0.076210
v 0.004026 0.095000 -0.088000
v -0.039974 0.095000 -0.076210
v -0.072184 0.095000 -0.044000
v -0.083974 0.095000 -0.000000
v -0.072184 0.095000 0.044000
v -0.039974 0.095000 0.076210
v 0.004026 0.095000 0.088000
v 0.048026 0.095000 0.076210
v 0.080236 0.095000 0.044000
v 0.076772 0.180000 -0.042000
v 0.088026 0.180000 0.000000
v 0.046026 0.180000 -0.072746
v 0.004026 0.180000 -0.084000
v -0.037974 0.180000 -0.072746
v -0.068720 0.180000 -0.042000
v -0.079974 0.180000 -0.000000
v -0.068720 0.180000 0.042000
v -0.037974 0.180000 0.072746
v 0.004026 0.180000 0.084000
v 0.046026 0.180000 0.072746
v 0.076772 0.180000 0.042000
v 0.069844 0.226000 -0.038000
v 0.080026 0.226000 0.000000
v 0.042026 0.226000 -0.065818
v 0.004026 0.226000 -0.076000
v -0.033974 0.226000 -0.065818
v -0.061792 0.226000 -0.038000
v -0.071974 0.226000 -0.000000
v -0.061792 0.226000 0.038000
v -0.033974 0.226000 0.065818
v 0.004026 0.226000 0.076000
v 0.042026 0.226000 0.065818
v 0.069844 0.226000 0.038000
v 0.073308 0.226000 0.040000
v 0.044026 0.226000 0.069282
v 0.004026 0.226000 0.080000
v -0.035974 0.226000 0.069282
v -0.065256 0.226000 0.040000
v -0.075974 0.226000 -0.000000
v -0.065256 0.226000 -0.040000
v -0.035974 0.226000 -0.069282
v 0.004026 0.226000 -0.080000
v 0.044026 0.226000 -0.069282
v 0.073308 0.226000 -0.040000
v 0.084026 0.226000 0.000000
v 0.084026 0.244000 0.000000
v 0.073308 0.244000 -0.040000
v 0.044026 0.244000 -0.069282
v 0.004026 0.244000 -0.080000
v -0.035974 0.244000 -0.069282
v -0.065256 0.244000 -0.040000
v -0.075974 0.244000 -0.000000
v -0.065256 0.244000 0.040000
v -0.035974 0.244000 0.069282
v 0.004026 0.244000 0.080000
v 0.044026 0.244000 0.069282
v 0.073308 0.244000 0.040000
v 0.012026 0.244000 0.013856
v -0.003974 0.244000 0.013856
v -0.011974 0.244000 -0.000000
v -0.003974 0.244000 -0.013856
v 0.012026 0.244000 -0.013856
v 0.020026 0.244000 0.000000
v 0.020026 0.262000 0.000000
v 0.012026 0.262000 -0.013856
v -0.003974 0.262000 -0.013856
v -0.011974 0.262000 -0.000000
v -0.003974 0.262000 0.013856
v 0.012026 0.262000 0.013856
v 0.071045 0.153053 -0.008000
v 0.071045 0.153053 0.008000
v 0.064026 0.165000 0.016000
v 0.057007 0.176947 0.008000
v 0.057007 0.176947 -0.008000
v 0.064026 0.165000 -0.016000
v 0.144026 0.212000 -0.009000
v 0.140078 0.218720 -0.004500
v 0.140078 0.218720 0.004500
v 0.144026 0.212000 0.009000
v 0.147974 0.205280 0.004500
v 0.147974 0.205280 -0.004500
v -0.065974 0.198000 -0.014000
v -0.140974 0.208000 -0.014000
v -0.140974 0.222000 -0.014000
v -0.065974 0.212000 -0.014000
v -0.065974 0.212000 0.014000
v -0.140974 0.222000 0.014000
v -0.140974 0.208000 0.014000
v -0.065974 0.198000 0.014000
v -0.131974 0.083000 -0.014000
v -0.145974 0.083000 -0.014000
v -0.145974 0.222000 -0.014000
v -0.131974 0.222000 -0.014000
v -0.131974 0.222000 0.014000
v -0.145974 0.222000 0.014000
v -0.145974 0.083000 0.014000
v -0.131974 0.083000 0.014000
v -0.065974 0.068000 -0.014000
v -0.145974 0.097000 -0.014000
v -0.065974 0.082000 -0.014000
v -0.065974 0.082000 0.014000
v -0.145974 0.097000 0.014000
v -0.065974 0.068000 0.014000
v -0.131974 0.190000 -0.010000
v -0.147974 0.190000 -0.010000
v -0.147974 0.206000 -0.010000
v -0.131974 0.206000 -0.010000
v -0.131974 0.206000 0.010000
v -0.147974 0.206000 0.010000
v -0.147974 0.190000 0.010000
v -0.131974 0.190000 0.010000
vn -0.0000 -1.0000 -0.0000
vn -0.0000 1.0000 -0.0000
vn 0.9659 -0.0000 -0.2588
vn 0.7071 -0.0000 -0.7071
vn 0.2588 -0.0000 -0.9659
vn -0.2588 -0.0000 -0.9659
vn -0.7071 -0.0000 -0.7071
vn -0.9659 -0.0000 -0.2588
vn -0.9659 -0.0000 0.2588
vn -0.7071 -0.0000 0.7071
vn -0.2588 -0.0000 0.9659
vn 0.2588 -0.0000 0.9659
vn 0.7071 -0.0000 0.7071
vn 0.9659 -0.0000 0.2588
vn 0.9626 -0.0825 -0.2579
vn 0.7047 -0.0825 -0.7047
vn 0.2579 -0.0825 -0.9626
vn -0.2579 -0.0825 -0.9626
vn -0.7047 -0.0825 -0.7047
vn -0.9626 -0.0825 -0.2579
vn -0.9626 -0.0825 0.2579
vn -0.7047 -0.0825 0.7047
vn -0.2579 -0.0825 0.9626
vn 0.2579 -0.0825 0.9626
vn 0.7047 -0.0825 0.7047
vn 0.9626 -0.0825 0.2579
vn 0.9484 -0.1897 -0.2541
vn 0.6943 -0.1897 -0.6943
vn 0.2541 -0.1897 -0.9484
vn -0.2541 -0.1897 -0.9484
vn -0.6943 -0.1897 -0.6943
vn -0.9484 -0.1897 -0.2541
vn -0.9484 -0.1897 0.2541
vn -0.6943 -0.1897 0.6943
vn -0.2541 -0.1897 0.9484
vn 0.2541 -0.1897 0.9484
vn 0.6943 -0.1897 0.6943
vn 0.9484 -0.1897 0.2541
vn 0.9484 0.1897 -0.2541
vn 0.6943 0.1897 -0.6943
vn 0.2541 0.1897 -0.9484
vn -0.2541 0.1897 -0.9484
vn -0.6943 0.1897 -0.6943
vn -0.9484 0.1897 -0.2541
vn -0.9484 0.1897 0.2541
vn -0.6943 0.1897 0.6943
vn -0.2541 0.1897 0.9484
vn 0.2541 0.1897 0.9484
vn 0.6943 0.1897 0.6943
vn 0.9484 0.1897 0.2541
vn 0.9649 0.0454 -0.2586
vn 0.7064 0.0454 -0.7064
vn 0.2586 0.0454 -0.9649
vn -0.2586 0.0454 -0.9649
vn -0.7064 0.0454 -0.7064
vn -0.9649 0.0454 -0.2586
vn -0.9649 0.0454 0.2586
vn -0.7064 0.0454 0.7064
vn -0.2586 0.0454 0.9649
vn 0.2586 0.0454 0.9649
vn 0.7064 0.0454 0.7064
vn 0.9649 0.0454 0.2586
vn 0.9526 0.1657 -0.2552
vn 0.6973 0.1657 -0.6973
vn 0.2552 0.1657 -0.9526
vn -0.2552 0.1657 -0.9526
vn -0.6973 0.1657 -0.6973
vn -0.9526 0.1657 -0.2552
vn -0.9526 0.1657 0.2552
vn -0.6973 0.1657 0.6973
vn -0.2552 0.1657 0.9526
vn 0.2552 0.1657 0.9526
vn 0.6973 0.1657 0.6973
vn 0.9526 0.1657 0.2552
vn 0.8660 -0.0000 -0.5000
vn -0.0000 -0.0000 -1.0000
vn -0.8660 -0.0000 -0.5000
vn -0.8660 -0.0000 0.5000
vn -0.0000 -0.0000 1.0000
vn 0.8660 -0.0000 0.5000
vn -0.8622 -0.5065 -0.0000
vn 0.8622 0.5065 -0.0000
vn -0.1965 0.4632 -0.8642
vn -0.4493 0.8934 -0.0000
vn -0.1965 0.4632 0.8642
vn 0.3089 -0.3972 0.8642
vn 0.5617 -0.8274 -0.0000
vn 0.3089 -0.3972 -0.8642
vn -0.1322 -0.9912 -0.0000
vn -1.0000 -0.0000 -0.0000
vn 0.1322 0.9912 -0.0000
vn 1.0000 -0.0000 -0.0000
vn -0.1843 -0.9829 -0.0000
vn 0.1843 0.9829 -0.0000
vt 0.812500 0.312500
vt 0.687500 0.062500
vt 0.437500 0.062500
s 0
usemtl FN_Atlas
f 1/1/1 2/1/1 3/1/1 4/1/1 5/1/1 6/1/1 7/1/1 8/1/1 9/1/1 10/1/1 11/1/1 12/1/1
f 13/1/2 14/1/2 15/1/2 16/1/2 17/1/2 18/1/2 19/1/2 20/1/2 21/1/2 22/1/2 23/1/2 24/1/2
f 12/1/3 11/1/3 14/1/3 13/1/3
f 11/1/4 10/1/4 15/1/4 14/1/4
f 10/1/5 9/1/5 16/1/5 15/1/5
f 9/1/6 8/1/6 17/1/6 16/1/6
f 8/1/7 7/1/7 18/1/7 17/1/7
f 7/1/8 6/1/8 19/1/8 18/1/8
f 6/1/9 5/1/9 20/1/9 19/1/9
f 5/1/10 4/1/10 21/1/10 20/1/10
f 4/1/11 3/1/11 22/1/11 21/1/11
f 3/1/12 2/1/12 23/1/12 22/1/12
f 2/1/13 1/1/13 24/1/13 23/1/13
f 1/1/14 12/1/14 13/1/14 24/1/14
f 25/2/1 26/2/1 27/2/1 28/2/1 29/2/1 30/2/1 31/2/1 32/2/1 33/2/1 34/2/1 35/2/1 36/2/1
f 36/2/15 35/2/15 37/2/15 38/2/15
f 35/2/16 34/2/16 39/2/16 37/2/16
f 34/2/17 33/2/17 40/2/17 39/2/17
f 33/2/18 32/2/18 41/2/18 40/2/18
f 32/2/19 31/2/19 42/2/19 41/2/19
f 31/2/20 30/2/20 43/2/20 42/2/20
f 30/2/21 29/2/21 44/2/21 43/2/21
f 29/2/22 28/2/22 45/2/22 44/2/22
f 28/2/23 27/2/23 46/2/23 45/2/23
f 27/2/24 26/2/24 47/2/24 46/2/24
f 26/2/25 25/2/25 48/2/25 47/2/25
f 25/2/26 36/2/26 38/2/26 48/2/26
f 38/2/27 37/2/27 49/2/27 50/2/27
f 37/2/28 39/2/28 51/2/28 49/2/28
f 39/2/29 40/2/29 52/2/29 51/2/29
f 40/2/30 41/2/30 53/2/30 52/2/30
f 41/2/31 42/2/31 54/2/31 53/2/31
f 42/2/32 43/2/32 55/2/32 54/2/32
f 43/2/33 44/2/33 56/2/33 55/2/33
f 44/2/34 45/2/34 57/2/34 56/2/34
f 45/2/35 46/2/35 58/2/35 57/2/35
f 46/2/36 47/2/36 59/2/36 58/2/36
f 47/2/37 48/2/37 60/2/37 59/2/37
f 48/2/38 38/2/38 50/2/38 60/2/38
f 50/2/39 49/2/39 61/2/39 62/2/39
f 49/2/40 51/2/40 63/2/40 61/2/40
f 51/2/41 52/2/41 64/2/41 63/2/41
f 52/2/42 53/2/42 65/2/42 64/2/42
f 53/2/43 54/2/43 66/2/43 65/2/43
f 54/2/44 55/2/44 67/2/44 66/2/44
f 55/2/45 56/2/45 68/2/45 67/2/45
f 56/2/46 57/2/46 69/2/46 68/2/46
f 57/2/47 58/2/47 70/2/47 69/2/47
f 58/2/48 59/2/48 71/2/48 70/2/48
f 59/2/49 60/2/49 72/2/49 71/2/49
f 60/2/50 50/2/50 62/2/50 72/2/50
f 62/2/51 61/2/51 73/2/51 74/2/51
f 61/2/52 63/2/52 75/2/52 73/2/52
f 63/2/53 64/2/53 76/2/53 75/2/53
f 64/2/54 65/2/54 77/2/54 76/2/54
f 65/2/55 66/2/55 78/2/55 77/2/55
f 66/2/56 67/2/56 79/2/56 78/2/56
f 67/2/57 68/2/57 80/2/57 79/2/57
f 68/2/58 69/2/58 81/2/58 80/2/58
f 69/2/59 70/2/59 82/2/59 81/2/59
f 70/2/60 71/2/60 83/2/60 82/2/60
f 71/2/61 72/2/61 84/2/61 83/2/61
f 72/2/62 62/2/62 74/2/62 84/2/62
f 74/2/63 73/2/63 85/2/63 86/2/63
f 73/2/64 75/2/64 87/2/64 85/2/64
f 75/2/65 76/2/65 88/2/65 87/2/65
f 76/2/66 77/2/66 89/2/66 88/2/66
f 77/2/67 78/2/67 90/2/67 89/2/67
f 78/2/68 79/2/68 91/2/68 90/2/68
f 79/2/69 80/2/69 92/2/69 91/2/69
f 80/2/70 81/2/70 93/2/70 92/2/70
f 81/2/71 82/2/71 94/2/71 93/2/71
f 82/2/72 83/2/72 95/2/72 94/2/72
f 83/2/73 84/2/73 96/2/73 95/2/73
f 84/2/74 74/2/74 86/2/74 96/2/74
f 97/1/1 98/1/1 99/1/1 100/1/1 101/1/1 102/1/1 103/1/1 104/1/1 105/1/1 106/1/1 107/1/1 108/1/1
f 109/1/2 110/1/2 111/1/2 112/1/2 113/1/2 114/1/2 115/1/2 116/1/2 117/1/2 118/1/2 119/1/2 120/1/2
f 108/1/3 107/1/3 110/1/3 109/1/3
f 107/1/4 106/1/4 111/1/4 110/1/4
f 106/1/5 105/1/5 112/1/5 111/1/5
f 105/1/6 104/1/6 113/1/6 112/1/6
f 104/1/7 103/1/7 114/1/7 113/1/7
f 103/1/8 102/1/8 115/1/8 114/1/8
f 102/1/9 101/1/9 116/1/9 115/1/9
f 101/1/10 100/1/10 117/1/10 116/1/10
f 100/1/11 99/1/11 118/1/11 117/1/11
f 99/1/12 98/1/12 119/1/12 118/1/12
f 98/1/13 97/1/13 120/1/13 119/1/13
f 97/1/14 108/1/14 109/1/14 120/1/14
f 121/1/1 122/1/1 123/1/1 124/1/1 125/1/1 126/1/1
f 127/1/2 128/1/2 129/1/2 130/1/2 131/1/2 132/1/2
f 126/1/75 125/1/75 128/1/75 127/1/75
f 125/1/76 124/1/76 129/1/76 128/1/76
f 124/1/77 123/1/77 130/1/77 129/1/77
f 123/1/78 122/1/78 131/1/78 130/1/78
f 122/1/79 121/1/79 132/1/79 131/1/79
f 121/1/80 126/1/80 127/1/80 132/1/80
f 133/1/81 134/1/81 135/1/81 136/1/81 137/1/81 138/1/81
f 139/1/82 140/1/82 141/1/82 142/1/82 143/1/82 144/1/82
f 138/1/83 137/1/83 140/1/83 139/1/83
f 137/1/84 136/1/84 141/1/84 140/1/84
f 136/1/85 135/1/85 142/1/85 141/1/85
f 135/1/86 134/1/86 143/1/86 142/1/86
f 134/1/87 133/1/87 144/1/87 143/1/87
f 133/1/88 138/1/88 139/1/88 144/1/88
f 145/1/76 146/1/76 147/1/76 148/1/76
f 149/1/79 150/1/79 151/1/79 152/1/79
f 152/1/89 151/1/89 146/1/89 145/1/89
f 151/1/90 150/1/90 147/1/90 146/1/90
f 150/1/91 149/1/91 148/1/91 147/1/91
f 149/1/92 152/1/92 145/1/92 148/1/92
f 153/1/76 154/1/76 155/1/76 156/1/76
f 157/1/79 158/1/79 159/1/79 160/1/79
f 160/1/1 159/1/1 154/1/1 153/1/1
f 159/1/90 158/1/90 155/1/90 154/1/90
f 158/1/2 157/1/2 156/1/2 155/1/2
f 157/1/92 160/1/92 153/1/92 156/1/92
f 161/1/76 154/1/76 162/1/76 163/1/76
f 164/1/79 165/1/79 159/1/79 166/1/79
f 166/1/93 159/1/93 154/1/93 161/1/93
f 159/1/90 165/1/90 162/1/90 154/1/90
f 165/1/94 164/1/94 163/1/94 162/1/94
f 164/1/92 166/1/92 161/1/92 163/1/92
f 167/3/76 168/3/76 169/3/76 170/3/76
f 171/3/79 172/3/79 173/3/79 174/3/79
f 174/3/1 173/3/1 168/3/1 167/3/1
f 173/3/90 172/3/90 169/3/90 168/3/90
f 172/3/2 171/3/2 170/3/2 169/3/2
f 171/3/92 174/3/92 167/3/92 170/3/92
