# Blender 5.2.0 LTS
# www.blender.org
mtllib FN_Lamp_Wall.mtl
o FN_Lamp_Wall
v 0.048541 0.021796 0.000000
v 0.018541 0.000000 0.000000
v -0.018541 0.000000 0.000000
v -0.048541 0.021796 0.000000
v -0.060000 0.057063 0.000000
v -0.048541 0.092331 0.000000
v -0.018541 0.114127 0.000000
v 0.018541 0.114127 0.000000
v 0.048541 0.092331 0.000000
v 0.060000 0.057063 0.000000
v 0.060000 0.057063 -0.016000
v 0.048541 0.092331 -0.016000
v 0.018541 0.114127 -0.016000
v -0.018541 0.114127 -0.016000
v -0.048541 0.092331 -0.016000
v -0.060000 0.057063 -0.016000
v -0.048541 0.021796 -0.016000
v -0.018541 0.000000 -0.016000
v 0.018541 0.000000 -0.016000
v 0.048541 0.021796 -0.016000
v 0.006000 0.064954 -0.003237
v -0.006000 0.064954 -0.003237
v -0.012000 0.057063 -0.010000
v -0.006000 0.049173 -0.016763
v 0.006000 0.049173 -0.016763
v 0.012000 0.057063 -0.010000
v 0.012000 0.177063 -0.150000
v 0.006000 0.169173 -0.156763
v -0.006000 0.169173 -0.156763
v -0.012000 0.177063 -0.150000
v -0.006000 0.184954 -0.143237
v 0.006000 0.184954 -0.143237
v 0.036000 0.177063 -0.170000
v 0.029125 0.177063 -0.191160
v 0.080902 0.217063 -0.228779
v 0.100000 0.217063 -0.170000
v 0.011125 0.177063 -0.204238
v 0.030902 0.217063 -0.265106
v -0.011125 0.177063 -0.204238
v -0.030902 0.217063 -0.265106
v -0.029125 0.177063 -0.191160
v -0.080902 0.217063 -0.228779
v -0.036000 0.177063 -0.170000
v -0.100000 0.217063 -0.170000
v -0.029125 0.177063 -0.148840
v -0.080902 0.217063 -0.111221
v -0.011125 0.177063 -0.135762
v -0.030902 0.217063 -0.074894
v 0.011125 0.177063 -0.135762
v 0.030902 0.217063 -0.074894
v 0.029125 0.177063 -0.148840
v 0.080902 0.217063 -0.111221
v 0.088000 0.217063 -0.170000
v 0.071193 0.217063 -0.221725
v 0.019416 0.177063 -0.184107
v 0.024000 0.177063 -0.170000
v 0.027193 0.217063 -0.253693
v 0.007416 0.177063 -0.192825
v -0.027193 0.217063 -0.253693
v -0.007416 0.177063 -0.192825
v -0.071193 0.217063 -0.221725
v -0.019416 0.177063 -0.184107
v -0.088000 0.217063 -0.170000
v -0.024000 0.177063 -0.170000
v -0.071193 0.217063 -0.118275
v -0.019416 0.177063 -0.155893
v -0.027193 0.217063 -0.086307
v -0.007416 0.177063 -0.147175
v 0.027193 0.217063 -0.086307
v 0.007416 0.177063 -0.147175
v 0.071193 0.217063 -0.118275
v 0.019416 0.177063 -0.155893
v 0.105172 0.247063 -0.246412
v 0.130000 0.247063 -0.170000
v 0.040172 0.247063 -0.293637
v -0.040172 0.247063 -0.293637
v -0.105172 0.247063 -0.246412
v -0.130000 0.247063 -0.170000
v -0.105172 0.247063 -0.093588
v -0.040172 0.247063 -0.046363
v 0.040172 0.247063 -0.046363
v 0.105172 0.247063 -0.093588
v 0.118000 0.247063 -0.170000
v 0.095464 0.247063 -0.239359
v 0.036464 0.247063 -0.282225
v -0.036464 0.247063 -0.282225
v -0.095464 0.247063 -0.239359
v -0.118000 0.247063 -0.170000
v -0.095464 0.247063 -0.100641
v -0.036464 0.247063 -0.057775
v 0.036464 0.247063 -0.057775
v 0.095464 0.247063 -0.100641
v -0.007000 0.173063 -0.182124
v 0.007000 0.173063 -0.182124
v 0.014000 0.173063 -0.170000
v 0.007000 0.173063 -0.157876
v -0.007000 0.173063 -0.157876
v -0.014000 0.173063 -0.170000
v -0.014000 0.209063 -0.170000
v -0.007000 0.209063 -0.157876
v 0.007000 0.209063 -0.157876
v 0.014000 0.209063 -0.170000
v 0.007000 0.209063 -0.182124
v -0.007000 0.209063 -0.182124
v 0.018540 0.199703 -0.188540
v 0.026220 0.199703 -0.170000
v 0.000000 0.189063 -0.170000
v 0.026220 0.254423 -0.170000
v 0.018540 0.254423 -0.188540
v 0.000000 0.265063 -0.170000
v 0.000000 0.199703 -0.196220
v 0.000000 0.254423 -0.196220
v -0.018540 0.199703 -0.188540
v -0.018540 0.254423 -0.188540
v -0.026220 0.199703 -0.170000
v -0.026220 0.254423 -0.170000
v -0.018540 0.199703 -0.151460
v -0.018540 0.254423 -0.151460
v -0.000000 0.199703 -0.143780
v -0.000000 0.254423 -0.143780
v 0.018540 0.199703 -0.151460
v 0.018540 0.254423 -0.151460
v 0.026064 0.217183 -0.196064
v 0.036860 0.217183 -0.170000
v 0.000000 0.217183 -0.206860
v -0.026064 0.217183 -0.196064
v -0.036860 0.217183 -0.170000
v -0.026064 0.217183 -0.143936
v -0.000000 0.217183 -0.133140
v 0.026064 0.217183 -0.143936
v 0.026064 0.236943 -0.196064
v 0.036860 0.236943 -0.170000
v 0.000000 0.236943 -0.206860
v -0.026064 0.236943 -0.196064
v -0.036860 0.236943 -0.170000
v -0.026064 0.236943 -0.143936
v -0.000000 0.236943 -0.133140
v 0.026064 0.236943 -0.143936
vn -0.0000 -0.0000 -1.0000
vn -0.0000 -0.0000 1.0000
vn 0.9511 0.3090 -0.0000
vn 0.5878 0.8090 -0.0000
vn -0.0000 1.0000 -0.0000
vn -0.5878 0.8090 -0.0000
vn -0.9511 0.3090 -0.0000
vn -0.9511 -0.3090 -0.0000
vn -0.5878 -0.8090 -0.0000
vn -0.0000 -1.0000 -0.0000
vn 0.5878 -0.8090 -0.0000
vn 0.9511 -0.3090 -0.0000
vn -0.0000 -0.6508 0.7593
vn -0.0000 0.6508 -0.7593
vn 0.8660 -0.3796 -0.3254
vn -0.0000 -0.7593 -0.6508
vn -0.8660 -0.3796 -0.3254
vn -0.8660 0.3796 0.3254
vn -0.0000 0.7593 0.6508
vn 0.8660 0.3796 0.3254
vn 0.5223 -0.8357 -0.1697
vn 0.3228 -0.8357 -0.4443
vn -0.0000 -0.8357 -0.5492
vn -0.3228 -0.8357 -0.4443
vn -0.5223 -0.8357 -0.1697
vn -0.5223 -0.8357 0.1697
vn -0.3228 -0.8357 0.4443
vn -0.0000 -0.8357 0.5492
vn 0.3228 -0.8357 0.4443
vn 0.5223 -0.8357 0.1697
vn -0.5223 0.8357 0.1697
vn -0.3228 0.8357 0.4443
vn -0.0000 0.8357 0.5492
vn 0.3228 0.8357 0.4443
vn 0.5223 0.8357 0.1697
vn 0.5223 0.8357 -0.1697
vn 0.3228 0.8357 -0.4443
vn -0.0000 0.8357 -0.5492
vn -0.3228 0.8357 -0.4443
vn -0.5223 0.8357 -0.1697
vn 0.6892 -0.6892 -0.2239
vn 0.4259 -0.6892 -0.5862
vn -0.0000 -0.6892 -0.7246
vn -0.4259 -0.6892 -0.5862
vn -0.6892 -0.6892 -0.2239
vn -0.6892 -0.6892 0.2239
vn -0.4259 -0.6892 0.5862
vn -0.0000 -0.6892 0.7246
vn 0.4259 -0.6892 0.5862
vn 0.6892 -0.6892 0.2239
vn -0.6892 0.6892 0.2239
vn -0.4259 0.6892 0.5862
vn -0.0000 0.6892 0.7246
vn 0.4259 0.6892 0.5862
vn 0.6892 0.6892 0.2239
vn 0.6892 0.6892 -0.2239
vn 0.4259 0.6892 -0.5862
vn -0.0000 0.6892 -0.7246
vn -0.4259 0.6892 -0.5862
vn -0.6892 0.6892 -0.2239
vn -0.8660 -0.0000 0.5000
vn 0.8660 -0.0000 0.5000
vn 0.8660 -0.0000 -0.5000
vn -0.8660 -0.0000 -0.5000
vn 0.3715 -0.9156 -0.1539
vn 0.3715 0.9156 -0.1539
vn 0.1539 -0.9156 -0.3715
vn 0.1539 0.9156 -0.3715
vn -0.1539 -0.9156 -0.3715
vn -0.1539 0.9156 -0.3715
vn -0.3715 -0.9156 -0.1539
vn -0.3715 0.9156 -0.1539
vn -0.3715 -0.9156 0.1539
vn -0.3715 0.9156 0.1539
vn -0.1539 -0.9156 0.3715
vn -0.1539 0.9156 0.3715
vn 0.1539 -0.9156 0.3715
vn 0.1539 0.9156 0.3715
vn 0.3715 -0.9156 0.1539
vn 0.3715 0.9156 0.1539
vn 0.8053 -0.4902 -0.3336
vn 0.3336 -0.4902 -0.8053
vn -0.3336 -0.4902 -0.8053
vn -0.8053 -0.4902 -0.3336
vn -0.8053 -0.4902 0.3336
vn -0.3336 -0.4902 0.8053
vn 0.3336 -0.4902 0.8053
vn 0.8053 -0.4902 0.3336
vn 0.9239 -0.0000 -0.3827
vn 0.3827 -0.0000 -0.9239
vn -0.3827 -0.0000 -0.9239
vn -0.9239 -0.0000 -0.3827
vn -0.9239 -0.0000 0.3827
vn -0.3827 -0.0000 0.9239
vn 0.3827 -0.0000 0.9239
vn 0.9239 -0.0000 0.3827
vn 0.8053 0.4902 -0.3336
vn 0.3336 0.4902 -0.8053
vn -0.3336 0.4902 -0.8053
vn -0.8053 0.4902 -0.3336
vn -0.8053 0.4902 0.3336
vn -0.3336 0.4902 0.8053
vn 0.3336 0.4902 0.8053
vn 0.8053 0.4902 0.3336
vt 0.812500 0.312500
vt 0.437500 0.312500
vt 0.812500 0.062500
s 0
usemtl FN_Atlas
f 1/1/1 2/1/1 3/1/1 4/1/1 5/1/1 6/1/1 7/1/1 8/1/1 9/1/1 10/1/1
f 11/1/2 12/1/2 13/1/2 14/1/2 15/1/2 16/1/2 17/1/2 18/1/2 19/1/2 20/1/2
f 11/1/3 12/1/3 9/1/3 10/1/3
f 12/1/4 13/1/4 8/1/4 9/1/4
f 13/1/5 14/1/5 7/1/5 8/1/5
f 14/1/6 15/1/6 6/1/6 7/1/6
f 15/1/7 16/1/7 5/1/7 6/1/7
f 16/1/8 17/1/8 4/1/8 5/1/8
f 17/1/9 18/1/9 3/1/9 4/1/9
f 18/1/10 19/1/10 2/1/10 3/1/10
f 19/1/11 20/1/11 1/1/11 2/1/11
f 20/1/12 11/1/12 10/1/12 1/1/12
f 21/1/13 22/1/13 23/1/13 24/1/13 25/1/13 26/1/13
f 27/1/14 28/1/14 29/1/14 30/1/14 31/1/14 32/1/14
f 26/1/15 25/1/15 28/1/15 27/1/15
f 25/1/16 24/1/16 29/1/16 28/1/16
f 24/1/17 23/1/17 30/1/17 29/1/17
f 23/1/18 22/1/18 31/1/18 30/1/18
f 22/1/19 21/1/19 32/1/19 31/1/19
f 21/1/20 26/1/20 27/1/20 32/1/20
f 33/1/21 34/1/21 35/1/21 36/1/21
f 34/1/22 37/1/22 38/1/22 35/1/22
f 37/1/23 39/1/23 40/1/23 38/1/23
f 39/1/24 41/1/24 42/1/24 40/1/24
f 41/1/25 43/1/25 44/1/25 42/1/25
f 43/1/26 45/1/26 46/1/26 44/1/26
f 45/1/27 47/1/27 48/1/27 46/1/27
f 47/1/28 49/1/28 50/1/28 48/1/28
f 49/1/29 51/1/29 52/1/29 50/1/29
f 51/1/30 33/1/30 36/1/30 52/1/30
f 53/2/31 54/2/31 55/2/31 56/2/31
f 54/2/32 57/2/32 58/2/32 55/2/32
f 57/2/33 59/2/33 60/2/33 58/2/33
f 59/2/34 61/2/34 62/2/34 60/2/34
f 61/2/35 63/2/35 64/2/35 62/2/35
f 63/2/36 65/2/36 66/2/36 64/2/36
f 65/2/37 67/2/37 68/2/37 66/2/37
f 67/2/38 69/2/38 70/2/38 68/2/38
f 69/2/39 71/2/39 72/2/39 70/2/39
f 71/2/40 53/2/40 56/2/40 72/2/40
f 36/1/41 35/1/41 73/1/41 74/1/41
f 35/1/42 38/1/42 75/1/42 73/1/42
f 38/1/43 40/1/43 76/1/43 75/1/43
f 40/1/44 42/1/44 77/1/44 76/1/44
f 42/1/45 44/1/45 78/1/45 77/1/45
f 44/1/46 46/1/46 79/1/46 78/1/46
f 46/1/47 48/1/47 80/1/47 79/1/47
f 48/1/48 50/1/48 81/1/48 80/1/48
f 50/1/49 52/1/49 82/1/49 81/1/49
f 52/1/50 36/1/50 74/1/50 82/1/50
f 83/2/51 84/2/51 54/2/51 53/2/51
f 84/2/52 85/2/52 57/2/52 54/2/52
f 85/2/53 86/2/53 59/2/53 57/2/53
f 86/2/54 87/2/54 61/2/54 59/2/54
f 87/2/55 88/2/55 63/2/55 61/2/55
f 88/2/56 89/2/56 65/2/56 63/2/56
f 89/2/57 90/2/57 67/2/57 65/2/57
f 90/2/58 91/2/58 69/2/58 67/2/58
f 91/2/59 92/2/59 71/2/59 69/2/59
f 92/2/60 83/2/60 53/2/60 71/2/60
f 83/2/10 84/2/10 73/2/10 74/2/10
f 84/2/10 85/2/10 75/2/10 73/2/10
f 85/2/10 86/2/10 76/2/10 75/2/10
f 86/2/10 87/2/10 77/2/10 76/2/10
f 87/2/10 88/2/10 78/2/10 77/2/10
f 88/2/10 89/2/10 79/2/10 78/2/10
f 89/2/10 90/2/10 80/2/10 79/2/10
f 90/2/10 91/2/10 81/2/10 80/2/10
f 91/2/10 92/2/10 82/2/10 81/2/10
f 92/2/10 83/2/10 74/2/10 82/2/10
f 56/2/5 55/2/5 58/2/5 60/2/5 62/2/5 64/2/5 66/2/5 68/2/5 70/2/5 72/2/5
f 51/1/10 49/1/10 47/1/10 45/1/10 43/1/10 41/1/10 39/1/10 37/1/10 34/1/10 33/1/10
f 93/2/10 94/2/10 95/2/10 96/2/10 97/2/10 98/2/10
f 99/2/5 100/2/5 101/2/5 102/2/5 103/2/5 104/2/5
f 98/2/61 97/2/61 100/2/61 99/2/61
f 97/2/2 96/2/2 101/2/2 100/2/2
f 96/2/62 95/2/62 102/2/62 101/2/62
f 95/2/63 94/2/63 103/2/63 102/2/63
f 94/2/1 93/2/1 104/2/1 103/2/1
f 93/2/64 98/2/64 99/2/64 104/2/64
usemtl FN_Glow
f 105/3/65 106/3/65 107/3/65
f 108/3/66 109/3/66 110/3/66
f 111/3/67 105/3/67 107/3/67
f 109/3/68 112/3/68 110/3/68
f 113/3/69 111/3/69 107/3/69
f 112/3/70 114/3/70 110/3/70
f 115/3/71 113/3/71 107/3/71
f 114/3/72 116/3/72 110/3/72
f 117/3/73 115/3/73 107/3/73
f 116/3/74 118/3/74 110/3/74
f 119/3/75 117/3/75 107/3/75
f 118/3/76 120/3/76 110/3/76
f 121/3/77 119/3/77 107/3/77
f 120/3/78 122/3/78 110/3/78
f 106/3/79 121/3/79 107/3/79
f 122/3/80 108/3/80 110/3/80
f 106/3/81 105/3/81 123/3/81 124/3/81
f 105/3/82 111/3/82 125/3/82 123/3/82
f 111/3/83 113/3/83 126/3/83 125/3/83
f 113/3/84 115/3/84 127/3/84 126/3/84
f 115/3/85 117/3/85 128/3/85 127/3/85
f 117/3/86 119/3/86 129/3/86 128/3/86
f 119/3/87 121/3/87 130/3/87 129/3/87
f 121/3/88 106/3/88 124/3/88 130/3/88
f 124/3/89 123/3/89 131/3/89 132/3/89
f 123/3/90 125/3/90 133/3/90 131/3/90
f 125/3/91 126/3/91 134/3/91 133/3/91
f 126/3/92 127/3/92 135/3/92 134/3/92
f 127/3/93 128/3/93 136/3/93 135/3/93
f 128/3/94 129/3/94 137/3/94 136/3/94
f 129/3/95 130/3/95 138/3/95 137/3/95
f 130/3/96 124/3/96 132/3/96 138/3/96
f 132/3/97 131/3/97 109/3/97 108/3/97
f 131/3/98 133/3/98 112/3/98 109/3/98
f 133/3/99 134/3/99 114/3/99 112/3/99
f 134/3/100 135/3/100 116/3/100 114/3/100
f 135/3/101 136/3/101 118/3/101 116/3/101
f 136/3/102 137/3/102 120/3/102 118/3/102
f 137/3/103 138/3/103 122/3/103 120/3/103
f 138/3/104 132/3/104 108/3/104 122/3/104
