# Blender 5.2.0 LTS
# www.blender.org
mtllib FN_Ledge_Picture.mtl
o FN_Ledge_Picture
v -0.500000 0.000000 0.000000
v -0.500000 0.000000 -0.018000
v 0.500000 0.000000 -0.018000
v 0.500000 0.000000 0.000000
v -0.500000 0.130000 0.000000
v 0.500000 0.130000 0.000000
v 0.500000 0.130000 -0.018000
v -0.500000 0.130000 -0.018000
v -0.500000 0.100000 0.000000
v -0.500000 0.100000 -0.110000
v 0.500000 0.100000 -0.110000
v 0.500000 0.100000 0.000000
v -0.500000 0.126000 0.000000
v 0.500000 0.126000 0.000000
v 0.500000 0.126000 -0.110000
v -0.500000 0.126000 -0.110000
v -0.500000 0.118000 -0.096000
v -0.500000 0.118000 -0.110000
v 0.500000 0.118000 -0.110000
v 0.500000 0.118000 -0.096000
v -0.500000 0.156000 -0.096000
v 0.500000 0.156000 -0.096000
v 0.500000 0.156000 -0.110000
v -0.500000 0.156000 -0.110000
v -0.360000 0.114000 -0.078000
v -0.360000 0.404000 -0.030000
v -0.360000 0.407266 -0.049732
v -0.360000 0.117266 -0.097732
v 0.000000 0.117266 -0.097732
v 0.000000 0.407266 -0.049732
v 0.000000 0.404000 -0.030000
v 0.000000 0.114000 -0.078000
v -0.330000 0.145883 -0.086913
v -0.330000 0.376689 -0.048711
v -0.330000 0.378648 -0.060550
v -0.330000 0.147843 -0.098752
v -0.030000 0.147843 -0.098752
v -0.030000 0.378648 -0.060550
v -0.030000 0.376689 -0.048711
v -0.030000 0.145883 -0.086913
v -0.060000 0.114000 -0.076000
v -0.060000 0.344000 -0.038000
v -0.060000 0.347260 -0.057732
v -0.060000 0.117260 -0.095732
v 0.180000 0.117260 -0.095732
v 0.180000 0.347260 -0.057732
v 0.180000 0.344000 -0.038000
v 0.180000 0.114000 -0.076000
v -0.030000 0.145881 -0.084923
v -0.030000 0.316683 -0.056703
v -0.030000 0.318639 -0.068542
v -0.030000 0.147837 -0.096762
v 0.150000 0.147837 -0.096762
v 0.150000 0.318639 -0.068542
v 0.150000 0.316683 -0.056703
v 0.150000 0.145881 -0.084923
v 0.351213 0.120000 -0.040787
v 0.330000 0.120000 -0.032000
v 0.308787 0.120000 -0.040787
v 0.300000 0.120000 -0.062000
v 0.308787 0.120000 -0.083213
v 0.330000 0.120000 -0.092000
v 0.351213 0.120000 -0.083213
v 0.360000 0.120000 -0.062000
v 0.346500 0.190000 -0.062000
v 0.341667 0.190000 -0.073667
v 0.330000 0.190000 -0.078500
v 0.318333 0.190000 -0.073667
v 0.313500 0.190000 -0.062000
v 0.318333 0.190000 -0.050333
v 0.330000 0.190000 -0.045500
v 0.341667 0.190000 -0.050333
v 0.342728 0.184000 -0.049272
v 0.330000 0.184000 -0.044000
v 0.317272 0.184000 -0.049272
v 0.312000 0.184000 -0.062000
v 0.317272 0.184000 -0.074728
v 0.330000 0.184000 -0.080000
v 0.342728 0.184000 -0.074728
v 0.348000 0.184000 -0.062000
v 0.348000 0.300000 -0.062000
v 0.342728 0.300000 -0.074728
v 0.330000 0.300000 -0.080000
v 0.317272 0.300000 -0.074728
v 0.312000 0.300000 -0.062000
v 0.317272 0.300000 -0.049272
v 0.330000 0.300000 -0.044000
v 0.342728 0.300000 -0.049272
v 0.428385 0.120000 -0.043615
v 0.410000 0.120000 -0.036000
v 0.391615 0.120000 -0.043615
v 0.384000 0.120000 -0.062000
v 0.391615 0.120000 -0.080385
v 0.410000 0.120000 -0.088000
v 0.428385 0.120000 -0.080385
v 0.436000 0.120000 -0.062000
v 0.424300 0.170000 -0.062000
v 0.420112 0.170000 -0.072112
v 0.410000 0.170000 -0.076300
v 0.399888 0.170000 -0.072112
v 0.395700 0.170000 -0.062000
v 0.399888 0.170000 -0.051888
v 0.410000 0.170000 -0.047700
v 0.420112 0.170000 -0.051888
v 0.420607 0.164000 -0.051393
v 0.410000 0.164000 -0.047000
v 0.399393 0.164000 -0.051393
v 0.395000 0.164000 -0.062000
v 0.399393 0.164000 -0.072607
v 0.410000 0.164000 -0.077000
v 0.420607 0.164000 -0.072607
v 0.425000 0.164000 -0.062000
v 0.425000 0.252000 -0.062000
v 0.420607 0.252000 -0.072607
v 0.410000 0.252000 -0.077000
v 0.399393 0.252000 -0.072607
v 0.395000 0.252000 -0.062000
v 0.399393 0.252000 -0.051393
v 0.410000 0.252000 -0.047000
v 0.420607 0.252000 -0.051393
vn -0.0000 -1.0000 -0.0000
vn -0.0000 1.0000 -0.0000
vn -0.0000 -0.0000 1.0000
vn -0.0000 -0.0000 -1.0000
vn -1.0000 -0.0000 -0.0000
vn 1.0000 -0.0000 -0.0000
vn -0.0000 -0.1633 0.9866
vn -0.0000 0.9866 0.1633
vn -0.0000 0.1633 -0.9866
vn -0.0000 -0.9866 -0.1633
vn -0.0000 -0.1630 0.9866
vn -0.0000 0.9866 0.1630
vn -0.0000 0.1630 -0.9866
vn -0.0000 -0.9866 -0.1630
vn 0.9096 0.1754 -0.3768
vn 0.3767 0.1754 -0.9096
vn -0.3767 0.1754 -0.9096
vn -0.9096 0.1754 -0.3767
vn -0.9096 0.1754 0.3767
vn -0.3767 0.1754 0.9096
vn 0.3767 0.1754 0.9096
vn 0.9096 0.1754 0.3768
vn 0.9239 -0.0000 -0.3827
vn 0.3827 -0.0000 -0.9239
vn -0.3827 -0.0000 -0.9239
vn -0.9239 -0.0000 -0.3827
vn -0.9239 -0.0000 0.3827
vn -0.3827 -0.0000 0.9239
vn 0.3827 -0.0000 0.9239
vn 0.9239 -0.0000 0.3827
vn 0.9030 0.2113 -0.3740
vn 0.3740 0.2113 -0.9030
vn -0.3740 0.2113 -0.9030
vn -0.9030 0.2113 -0.3740
vn -0.9030 0.2113 0.3740
vn -0.3740 0.2113 0.9030
vn 0.3740 0.2113 0.9030
vn 0.9030 0.2113 0.3740
vt 0.437500 0.937500
vt 0.937500 0.937500
vt 0.062500 0.687500
vt 0.687500 0.562500
vt 0.437500 0.312500
s 0
usemtl FN_Atlas
f 1/1/1 2/1/1 3/1/1 4/1/1
f 5/1/2 6/1/2 7/1/2 8/1/2
f 1/1/3 4/1/3 6/1/3 5/1/3
f 3/1/4 2/1/4 8/1/4 7/1/4
f 1/1/5 5/1/5 8/1/5 2/1/5
f 4/1/6 3/1/6 7/1/6 6/1/6
f 9/1/1 10/1/1 11/1/1 12/1/1
f 13/1/2 14/1/2 15/1/2 16/1/2
f 9/1/3 12/1/3 14/1/3 13/1/3
f 11/1/4 10/1/4 16/1/4 15/1/4
f 9/1/5 13/1/5 16/1/5 10/1/5
f 12/1/6 11/1/6 15/1/6 14/1/6
f 17/1/1 18/1/1 19/1/1 20/1/1
f 21/1/2 22/1/2 23/1/2 24/1/2
f 17/1/3 20/1/3 22/1/3 21/1/3
f 19/1/4 18/1/4 24/1/4 23/1/4
f 17/1/5 21/1/5 24/1/5 18/1/5
f 20/1/6 19/1/6 23/1/6 22/1/6
f 25/2/5 26/2/5 27/2/5 28/2/5
f 29/2/6 30/2/6 31/2/6 32/2/6
f 32/2/7 31/2/7 26/2/7 25/2/7
f 31/2/8 30/2/8 27/2/8 26/2/8
f 30/2/9 29/2/9 28/2/9 27/2/9
f 29/2/10 32/2/10 25/2/10 28/2/10
f 33/3/5 34/3/5 35/3/5 36/3/5
f 37/3/6 38/3/6 39/3/6 40/3/6
f 40/3/7 39/3/7 34/3/7 33/3/7
f 39/3/8 38/3/8 35/3/8 34/3/8
f 38/3/9 37/3/9 36/3/9 35/3/9
f 37/3/10 40/3/10 33/3/10 36/3/10
f 41/2/5 42/2/5 43/2/5 44/2/5
f 45/2/6 46/2/6 47/2/6 48/2/6
f 48/2/11 47/2/11 42/2/11 41/2/11
f 47/2/12 46/2/12 43/2/12 42/2/12
f 46/2/13 45/2/13 44/2/13 43/2/13
f 45/2/14 48/2/14 41/2/14 44/2/14
f 49/4/5 50/4/5 51/4/5 52/4/5
f 53/4/6 54/4/6 55/4/6 56/4/6
f 56/4/11 55/4/11 50/4/11 49/4/11
f 55/4/12 54/4/12 51/4/12 50/4/12
f 54/4/13 53/4/13 52/4/13 51/4/13
f 53/4/14 56/4/14 49/4/14 52/4/14
f 57/5/1 58/5/1 59/5/1 60/5/1 61/5/1 62/5/1 63/5/1 64/5/1
f 65/5/2 66/5/2 67/5/2 68/5/2 69/5/2 70/5/2 71/5/2 72/5/2
f 64/5/15 63/5/15 66/5/15 65/5/15
f 63/5/16 62/5/16 67/5/16 66/5/16
f 62/5/17 61/5/17 68/5/17 67/5/17
f 61/5/18 60/5/18 69/5/18 68/5/18
f 60/5/19 59/5/19 70/5/19 69/5/19
f 59/5/20 58/5/20 71/5/20 70/5/20
f 58/5/21 57/5/21 72/5/21 71/5/21
f 57/5/22 64/5/22 65/5/22 72/5/22
f 73/3/1 74/3/1 75/3/1 76/3/1 77/3/1 78/3/1 79/3/1 80/3/1
f 81/3/2 82/3/2 83/3/2 84/3/2 85/3/2 86/3/2 87/3/2 88/3/2
f 80/3/23 79/3/23 82/3/23 81/3/23
f 79/3/24 78/3/24 83/3/24 82/3/24
f 78/3/25 77/3/25 84/3/25 83/3/25
f 77/3/26 76/3/26 85/3/26 84/3/26
f 76/3/27 75/3/27 86/3/27 85/3/27
f 75/3/28 74/3/28 87/3/28 86/3/28
f 74/3/29 73/3/29 88/3/29 87/3/29
f 73/3/30 80/3/30 81/3/30 88/3/30
f 89/5/1 90/5/1 91/5/1 92/5/1 93/5/1 94/5/1 95/5/1 96/5/1
f 97/5/2 98/5/2 99/5/2 100/5/2 101/5/2 102/5/2 103/5/2 104/5/2
f 96/5/31 95/5/31 98/5/31 97/5/31
f 95/5/32 94/5/32 99/5/32 98/5/32
f 94/5/33 93/5/33 100/5/33 99/5/33
f 93/5/34 92/5/34 101/5/34 100/5/34
f 92/5/35 91/5/35 102/5/35 101/5/35
f 91/5/36 90/5/36 103/5/36 102/5/36
f 90/5/37 89/5/37 104/5/37 103/5/37
f 89/5/38 96/5/38 97/5/38 104/5/38
f 105/3/1 106/3/1 107/3/1 108/3/1 109/3/1 110/3/1 111/3/1 112/3/1
f 113/3/2 114/3/2 115/3/2 116/3/2 117/3/2 118/3/2 119/3/2 120/3/2
f 112/3/23 111/3/23 114/3/23 113/3/23
f 111/3/24 110/3/24 115/3/24 114/3/24
f 110/3/25 109/3/25 116/3/25 115/3/25
f 109/3/26 108/3/26 117/3/26 116/3/26
f 108/3/27 107/3/27 118/3/27 117/3/27
f 107/3/28 106/3/28 119/3/28 118/3/28
f 106/3/29 105/3/29 120/3/29 119/3/29
f 105/3/30 112/3/30 113/3/30 120/3/30
