# Blender 5.2.0 LTS
# www.blender.org
mtllib FN_Lamp_Desk.mtl
o FN_Lamp_Desk
v 0.077942 0.000000 -0.108870
v 0.045000 0.000000 -0.075928
v -0.000000 0.000000 -0.063870
v -0.045000 0.000000 -0.075928
v -0.077942 0.000000 -0.108870
v -0.090000 0.000000 -0.153870
v -0.077942 0.000000 -0.198870
v -0.045000 0.000000 -0.231812
v 0.000000 0.000000 -0.243870
v 0.045000 0.000000 -0.231812
v 0.077942 0.000000 -0.198870
v 0.090000 0.000000 -0.153870
v 0.077942 0.020000 -0.198870
v 0.090000 0.020000 -0.153870
v 0.045000 0.020000 -0.231812
v 0.000000 0.020000 -0.243870
v -0.045000 0.020000 -0.231812
v -0.077942 0.020000 -0.198870
v -0.090000 0.020000 -0.153870
v -0.077942 0.020000 -0.108870
v -0.045000 0.020000 -0.075928
v -0.000000 0.020000 -0.063870
v 0.045000 0.020000 -0.075928
v 0.077942 0.020000 -0.108870
v 0.025981 0.020000 -0.168870
v 0.030000 0.020000 -0.153870
v 0.015000 0.020000 -0.179851
v 0.000000 0.020000 -0.183870
v -0.015000 0.020000 -0.179851
v -0.025981 0.020000 -0.168870
v -0.030000 0.020000 -0.153870
v -0.025981 0.020000 -0.138870
v -0.015000 0.020000 -0.127889
v -0.000000 0.020000 -0.123870
v 0.015000 0.020000 -0.127889
v 0.025981 0.020000 -0.138870
v 0.025981 0.046000 -0.168870
v 0.030000 0.046000 -0.153870
v 0.015000 0.046000 -0.179851
v 0.000000 0.046000 -0.183870
v -0.015000 0.046000 -0.179851
v -0.025981 0.046000 -0.168870
v -0.030000 0.046000 -0.153870
v -0.025981 0.046000 -0.138870
v -0.015000 0.046000 -0.127889
v -0.000000 0.046000 -0.123870
v 0.015000 0.046000 -0.127889
v 0.025981 0.046000 -0.138870
v -0.009899 0.034777 -0.163372
v 0.000000 0.035927 -0.167308
v 0.009899 0.034777 -0.163372
v 0.014000 0.032000 -0.153870
v 0.009899 0.029223 -0.144368
v -0.000000 0.028073 -0.140432
v -0.009899 0.029223 -0.144368
v -0.014000 0.032000 -0.153870
v -0.014000 0.340000 -0.063870
v -0.009899 0.337223 -0.054368
v -0.000000 0.336073 -0.050432
v 0.009899 0.337223 -0.054368
v 0.014000 0.340000 -0.063870
v 0.009899 0.342777 -0.073372
v 0.000000 0.343927 -0.077308
v -0.009899 0.342777 -0.073372
v -0.009192 0.348012 -0.068377
v 0.000000 0.351330 -0.070243
v 0.009192 0.348012 -0.068377
v 0.013000 0.340000 -0.063870
v 0.009192 0.331988 -0.059363
v -0.000000 0.328670 -0.057497
v -0.009192 0.331988 -0.059363
v -0.013000 0.340000 -0.063870
v -0.013000 0.430000 0.096130
v -0.009192 0.421988 0.100637
v -0.000000 0.418670 0.102503
v 0.009192 0.421988 0.100637
v 0.013000 0.430000 0.096130
v 0.009192 0.438012 0.091623
v 0.000000 0.441330 0.089757
v -0.009192 0.438012 0.091623
v -0.024000 0.316000 -0.039870
v -0.024000 0.316000 -0.087870
v 0.024000 0.316000 -0.087870
v 0.024000 0.316000 -0.039870
v -0.024000 0.364000 -0.039870
v 0.024000 0.364000 -0.039870
v 0.024000 0.364000 -0.087870
v -0.024000 0.364000 -0.087870
v -0.020000 0.410000 0.116130
v -0.020000 0.410000 0.076130
v 0.020000 0.410000 0.076130
v 0.020000 0.410000 0.116130
v -0.020000 0.450000 0.116130
v 0.020000 0.450000 0.116130
v 0.020000 0.450000 0.076130
v -0.020000 0.450000 0.076130
v -0.025981 0.437558 0.109087
v -0.015000 0.443091 0.118572
v 0.000000 0.445116 0.122043
v 0.015000 0.443091 0.118572
v 0.025981 0.437558 0.109087
v 0.030000 0.430000 0.096130
v 0.025981 0.422442 0.083173
v 0.015000 0.416909 0.073688
v -0.000000 0.414884 0.070217
v -0.015000 0.416909 0.073688
v -0.025981 0.422442 0.083173
v -0.030000 0.430000 0.096130
v -0.090000 0.310000 0.166130
v -0.077942 0.287326 0.127260
v -0.045000 0.270727 0.098805
v -0.000000 0.264652 0.088390
v 0.045000 0.270727 0.098805
v 0.077942 0.287326 0.127260
v 0.090000 0.310000 0.166130
v 0.077942 0.332674 0.205000
v 0.045000 0.349273 0.233455
v 0.000000 0.355348 0.243870
v -0.045000 0.349273 0.233455
v -0.077942 0.332674 0.205000
vn -0.0000 -1.0000 -0.0000
vn 0.9659 -0.0000 -0.2588
vn 0.7071 -0.0000 -0.7071
vn 0.2588 -0.0000 -0.9659
vn -0.2588 -0.0000 -0.9659
vn -0.7071 -0.0000 -0.7071
vn -0.9659 -0.0000 -0.2588
vn -0.9659 -0.0000 0.2588
vn -0.7071 -0.0000 0.7071
vn -0.2588 -0.0000 0.9659
vn 0.2588 -0.0000 0.9659
vn 0.7071 -0.0000 0.7071
vn 0.9659 -0.0000 0.2588
vn -0.0000 1.0000 -0.0000
vn -0.0000 -0.9599 -0.2805
vn -0.0000 0.9599 0.2805
vn -0.9239 -0.1073 0.3673
vn -0.3827 -0.2591 0.8868
vn 0.3827 -0.2591 0.8868
vn 0.9239 -0.1073 0.3673
vn 0.9239 0.1073 -0.3673
vn 0.3827 0.2591 -0.8868
vn -0.3827 0.2591 -0.8868
vn -0.9239 0.1073 -0.3673
vn -0.0000 -0.4903 -0.8716
vn -0.0000 0.4903 0.8716
vn -0.9239 -0.3335 0.1876
vn -0.3827 -0.8052 0.4529
vn 0.3827 -0.8052 0.4529
vn 0.9239 -0.3335 0.1876
vn 0.9239 0.3335 -0.1876
vn 0.3827 0.8052 -0.4529
vn -0.3827 0.8052 -0.4529
vn -0.9239 0.3335 -0.1876
vn -0.0000 -0.0000 1.0000
vn -0.0000 -0.0000 -1.0000
vn -1.0000 -0.0000 -0.0000
vn 1.0000 -0.0000 -0.0000
vn -0.0000 0.8638 -0.5039
vn -0.0000 -0.8638 0.5039
vn -0.8915 0.2122 -0.4003
vn -0.6526 0.0037 -0.7577
vn -0.2389 -0.1166 -0.9640
vn 0.2389 -0.1166 -0.9640
vn 0.6526 0.0037 -0.7577
vn 0.8915 0.2122 -0.4003
vn 0.8915 0.4529 0.0123
vn 0.6526 0.6614 0.3697
vn 0.2389 0.7817 0.5760
vn -0.2389 0.7817 0.5760
vn -0.6526 0.6614 0.3697
vn -0.8915 0.4529 0.0123
vt 0.937500 0.312500
vt 0.812500 0.312500
vt 0.812500 0.062500
s 0
usemtl FN_Atlas
f 1/1/1 2/1/1 3/1/1 4/1/1 5/1/1 6/1/1 7/1/1 8/1/1 9/1/1 10/1/1 11/1/1 12/1/1
f 12/1/2 11/1/2 13/1/2 14/1/2
f 11/1/3 10/1/3 15/1/3 13/1/3
f 10/1/4 9/1/4 16/1/4 15/1/4
f 9/1/5 8/1/5 17/1/5 16/1/5
f 8/1/6 7/1/6 18/1/6 17/1/6
f 7/1/7 6/1/7 19/1/7 18/1/7
f 6/1/8 5/1/8 20/1/8 19/1/8
f 5/1/9 4/1/9 21/1/9 20/1/9
f 4/1/10 3/1/10 22/1/10 21/1/10
f 3/1/11 2/1/11 23/1/11 22/1/11
f 2/1/12 1/1/12 24/1/12 23/1/12
f 1/1/13 12/1/13 14/1/13 24/1/13
f 14/1/14 13/1/14 25/1/14 26/1/14
f 13/1/14 15/1/14 27/1/14 25/1/14
f 15/1/14 16/1/14 28/1/14 27/1/14
f 16/1/14 17/1/14 29/1/14 28/1/14
f 17/1/14 18/1/14 30/1/14 29/1/14
f 18/1/14 19/1/14 31/1/14 30/1/14
f 19/1/14 20/1/14 32/1/14 31/1/14
f 20/1/14 21/1/14 33/1/14 32/1/14
f 21/1/14 22/1/14 34/1/14 33/1/14
f 22/1/14 23/1/14 35/1/14 34/1/14
f 23/1/14 24/1/14 36/1/14 35/1/14
f 24/1/14 14/1/14 26/1/14 36/1/14
f 26/1/2 25/1/2 37/1/2 38/1/2
f 25/1/3 27/1/3 39/1/3 37/1/3
f 27/1/4 28/1/4 40/1/4 39/1/4
f 28/1/5 29/1/5 41/1/5 40/1/5
f 29/1/6 30/1/6 42/1/6 41/1/6
f 30/1/7 31/1/7 43/1/7 42/1/7
f 31/1/8 32/1/8 44/1/8 43/1/8
f 32/1/9 33/1/9 45/1/9 44/1/9
f 33/1/10 34/1/10 46/1/10 45/1/10
f 34/1/11 35/1/11 47/1/11 46/1/11
f 35/1/12 36/1/12 48/1/12 47/1/12
f 36/1/13 26/1/13 38/1/13 48/1/13
f 49/2/15 50/2/15 51/2/15 52/2/15 53/2/15 54/2/15 55/2/15 56/2/15
f 57/2/16 58/2/16 59/2/16 60/2/16 61/2/16 62/2/16 63/2/16 64/2/16
f 56/2/17 55/2/17 58/2/17 57/2/17
f 55/2/18 54/2/18 59/2/18 58/2/18
f 54/2/19 53/2/19 60/2/19 59/2/19
f 53/2/20 52/2/20 61/2/20 60/2/20
f 52/2/21 51/2/21 62/2/21 61/2/21
f 51/2/22 50/2/22 63/2/22 62/2/22
f 50/2/23 49/2/23 64/2/23 63/2/23
f 49/2/24 56/2/24 57/2/24 64/2/24
f 65/2/25 66/2/25 67/2/25 68/2/25 69/2/25 70/2/25 71/2/25 72/2/25
f 73/2/26 74/2/26 75/2/26 76/2/26 77/2/26 78/2/26 79/2/26 80/2/26
f 72/2/27 71/2/27 74/2/27 73/2/27
f 71/2/28 70/2/28 75/2/28 74/2/28
f 70/2/29 69/2/29 76/2/29 75/2/29
f 69/2/30 68/2/30 77/2/30 76/2/30
f 68/2/31 67/2/31 78/2/31 77/2/31
f 67/2/32 66/2/32 79/2/32 78/2/32
f 66/2/33 65/2/33 80/2/33 79/2/33
f 65/2/34 72/2/34 73/2/34 80/2/34
f 81/1/1 82/1/1 83/1/1 84/1/1
f 85/1/14 86/1/14 87/1/14 88/1/14
f 81/1/35 84/1/35 86/1/35 85/1/35
f 83/1/36 82/1/36 88/1/36 87/1/36
f 81/1/37 85/1/37 88/1/37 82/1/37
f 84/1/38 83/1/38 87/1/38 86/1/38
f 89/1/1 90/1/1 91/1/1 92/1/1
f 93/1/14 94/1/14 95/1/14 96/1/14
f 89/1/35 92/1/35 94/1/35 93/1/35
f 91/1/36 90/1/36 96/1/36 95/1/36
f 89/1/37 93/1/37 96/1/37 90/1/37
f 92/1/38 91/1/38 95/1/38 94/1/38
f 97/2/39 98/2/39 99/2/39 100/2/39 101/2/39 102/2/39 103/2/39 104/2/39 105/2/39 106/2/39 107/2/39 108/2/39
f 108/2/41 107/2/41 110/2/41 109/2/41
f 107/2/42 106/2/42 111/2/42 110/2/42
f 106/2/43 105/2/43 112/2/43 111/2/43
f 105/2/44 104/2/44 113/2/44 112/2/44
f 104/2/45 103/2/45 114/2/45 113/2/45
f 103/2/46 102/2/46 115/2/46 114/2/46
f 102/2/47 101/2/47 116/2/47 115/2/47
f 101/2/48 100/2/48 117/2/48 116/2/48
f 100/2/49 99/2/49 118/2/49 117/2/49
f 99/2/50 98/2/50 119/2/50 118/2/50
f 98/2/51 97/2/51 120/2/51 119/2/51
f 97/2/52 108/2/52 109/2/52 120/2/52
usemtl FN_Glow
f 109/3/40 110/3/40 111/3/40 112/3/40 113/3/40 114/3/40 115/3/40 116/3/40 117/3/40 118/3/40 119/3/40 120/3/40
