# Blender 5.2.0 LTS
# www.blender.org
mtllib FN_Lamp_Arc.mtl
o FN_Lamp_Arc
v 0.194015 0.000000 0.640364
v 0.148492 0.000000 0.708492
v 0.080364 0.000000 0.754015
v -0.000000 0.000000 0.770000
v -0.080364 0.000000 0.754015
v -0.148492 0.000000 0.708492
v -0.194015 0.000000 0.640364
v -0.210000 0.000000 0.560000
v -0.194015 0.000000 0.479636
v -0.148492 0.000000 0.411508
v -0.080364 0.000000 0.365985
v 0.000000 0.000000 0.350000
v 0.080364 0.000000 0.365985
v 0.148492 0.000000 0.411508
v 0.194015 0.000000 0.479636
v 0.210000 0.000000 0.560000
v 0.190319 0.056000 0.481167
v 0.206000 0.056000 0.560000
v 0.145664 0.056000 0.414336
v 0.078833 0.056000 0.369681
v 0.000000 0.056000 0.354000
v -0.078833 0.056000 0.369681
v -0.145664 0.056000 0.414336
v -0.190319 0.056000 0.481167
v -0.206000 0.056000 0.560000
v -0.190319 0.056000 0.638833
v -0.145664 0.056000 0.705664
v -0.078833 0.056000 0.750319
v -0.000000 0.056000 0.766000
v 0.078833 0.056000 0.750319
v 0.145664 0.056000 0.705664
v 0.190319 0.056000 0.638833
v 0.166298 0.092000 0.491117
v 0.180000 0.092000 0.560000
v 0.127279 0.092000 0.432721
v 0.068883 0.092000 0.393702
v 0.000000 0.092000 0.380000
v -0.068883 0.092000 0.393702
v -0.127279 0.092000 0.432721
v -0.166298 0.092000 0.491117
v -0.180000 0.092000 0.560000
v -0.166298 0.092000 0.628883
v -0.127279 0.092000 0.687279
v -0.068883 0.092000 0.726298
v -0.000000 0.092000 0.740000
v 0.068883 0.092000 0.726298
v 0.127279 0.092000 0.687279
v 0.166298 0.092000 0.628883
v 0.031412 0.092000 0.546989
v 0.034000 0.092000 0.560000
v 0.024042 0.092000 0.535958
v 0.013011 0.092000 0.528588
v 0.000000 0.092000 0.526000
v -0.013011 0.092000 0.528588
v -0.024042 0.092000 0.535958
v -0.031412 0.092000 0.546989
v -0.034000 0.092000 0.560000
v -0.031412 0.092000 0.573011
v -0.024042 0.092000 0.584042
v -0.013011 0.092000 0.591412
v -0.000000 0.092000 0.594000
v 0.013011 0.092000 0.591412
v 0.024042 0.092000 0.584042
v 0.031412 0.092000 0.573011
v -0.018385 0.059366 0.541626
v 0.000000 0.059104 0.534015
v 0.018385 0.059366 0.541626
v 0.026000 0.060000 0.560000
v 0.018385 0.060634 0.578374
v -0.000000 0.060896 0.585985
v -0.018385 0.060634 0.578374
v -0.026000 0.060000 0.560000
v -0.024000 0.640000 0.540000
v -0.016971 0.640585 0.556960
v -0.000000 0.640827 0.563986
v 0.016971 0.640585 0.556960
v 0.024000 0.640000 0.540000
v 0.016971 0.639415 0.523040
v 0.000000 0.639173 0.516014
v -0.016971 0.639415 0.523040
v -0.016971 0.638033 0.523144
v 0.000000 0.637219 0.516162
v 0.016971 0.638033 0.523144
v 0.016971 0.641967 0.556856
v -0.000000 0.642781 0.563838
v -0.016971 0.641967 0.556856
v -0.022000 1.240000 0.470000
v -0.015556 1.241803 0.485452
v -0.000000 1.242549 0.491852
v 0.015556 1.241803 0.485452
v 0.022000 1.240000 0.470000
v 0.015556 1.238197 0.454548
v 0.000000 1.237451 0.448148
v -0.015556 1.238197 0.454548
v -0.015556 1.233765 0.455748
v 0.000000 1.231182 0.449845
v 0.015556 1.233765 0.455748
v 0.015556 1.246235 0.484252
v -0.000000 1.248818 0.490155
v -0.015556 1.246235 0.484252
v -0.020000 1.720000 0.260000
v -0.014142 1.725668 0.272956
v -0.000000 1.728016 0.278323
v 0.014142 1.725668 0.272956
v 0.020000 1.720000 0.260000
v 0.014142 1.714332 0.247044
v 0.000000 1.711984 0.241677
v -0.014142 1.714332 0.247044
v 0.014142 1.731767 0.267845
v -0.000000 1.736641 0.271094
v -0.014142 1.731767 0.267845
v -0.014142 1.708233 0.252155
v 0.000000 1.703359 0.248906
v 0.014142 1.708233 0.252155
v 0.018000 1.980000 -0.130000
v 0.012728 1.969410 -0.137060
v 0.000000 1.965023 -0.139985
v -0.012728 1.969410 -0.137060
v -0.018000 1.980000 -0.130000
v -0.012728 1.990590 -0.122940
v -0.000000 1.994977 -0.120015
v 0.012728 1.990590 -0.122940
v 0.012728 1.992603 -0.128219
v -0.000000 1.997823 -0.127482
v -0.012728 1.992603 -0.128219
v -0.012728 1.967397 -0.131781
v 0.000000 1.962177 -0.132518
v 0.012728 1.967397 -0.131781
v 0.016000 2.045000 -0.590000
v 0.011314 2.033798 -0.591583
v 0.000000 2.029157 -0.592239
v -0.011314 2.033798 -0.591583
v -0.016000 2.045000 -0.590000
v -0.011314 2.056202 -0.588417
v -0.000000 2.060843 -0.587761
v 0.011314 2.056202 -0.588417
v 0.040000 2.030000 -0.590000
v 0.036955 2.030000 -0.605307
v 0.120104 1.940000 -0.639749
v 0.130000 1.940000 -0.590000
v 0.028284 2.030000 -0.618284
v 0.091924 1.940000 -0.681924
v 0.015307 2.030000 -0.626955
v 0.049749 1.940000 -0.710104
v 0.000000 2.030000 -0.630000
v 0.000000 1.940000 -0.720000
v -0.015307 2.030000 -0.626955
v -0.049749 1.940000 -0.710104
v -0.028284 2.030000 -0.618284
v -0.091924 1.940000 -0.681924
v -0.036955 2.030000 -0.605307
v -0.120104 1.940000 -0.639749
v -0.040000 2.030000 -0.590000
v -0.130000 1.940000 -0.590000
v -0.036955 2.030000 -0.574693
v -0.120104 1.940000 -0.540251
v -0.028284 2.030000 -0.561716
v -0.091924 1.940000 -0.498076
v -0.015307 2.030000 -0.553045
v -0.049749 1.940000 -0.469896
v -0.000000 2.030000 -0.550000
v -0.000000 1.940000 -0.460000
v 0.015307 2.030000 -0.553045
v 0.049749 1.940000 -0.469896
v 0.028284 2.030000 -0.561716
v 0.091924 1.940000 -0.498076
v 0.036955 2.030000 -0.574693
v 0.120104 1.940000 -0.540251
v 0.118000 1.940000 -0.590000
v 0.109018 1.940000 -0.635157
v 0.025869 2.030000 -0.600715
v 0.028000 2.030000 -0.590000
v 0.083439 1.940000 -0.673439
v 0.019799 2.030000 -0.609799
v 0.045157 1.940000 -0.699018
v 0.010715 2.030000 -0.615869
v 0.000000 1.940000 -0.708000
v 0.000000 2.030000 -0.618000
v -0.045157 1.940000 -0.699018
v -0.010715 2.030000 -0.615869
v -0.083439 1.940000 -0.673439
v -0.019799 2.030000 -0.609799
v -0.109018 1.940000 -0.635157
v -0.025869 2.030000 -0.600715
v -0.118000 1.940000 -0.590000
v -0.028000 2.030000 -0.590000
v -0.109018 1.940000 -0.544843
v -0.025869 2.030000 -0.579285
v -0.083439 1.940000 -0.506561
v -0.019799 2.030000 -0.570201
v -0.045157 1.940000 -0.480982
v -0.010715 2.030000 -0.564131
v -0.000000 1.940000 -0.472000
v -0.000000 2.030000 -0.562000
v 0.045157 1.940000 -0.480982
v 0.010715 2.030000 -0.564131
v 0.083439 1.940000 -0.506561
v 0.019799 2.030000 -0.570201
v 0.109018 1.940000 -0.544843
v 0.025869 2.030000 -0.579285
v 0.166298 1.870000 -0.658883
v 0.180000 1.870000 -0.590000
v 0.127279 1.870000 -0.717279
v 0.068883 1.870000 -0.756298
v 0.000000 1.870000 -0.770000
v -0.068883 1.870000 -0.756298
v -0.127279 1.870000 -0.717279
v -0.166298 1.870000 -0.658883
v -0.180000 1.870000 -0.590000
v -0.166298 1.870000 -0.521117
v -0.127279 1.870000 -0.462721
v -0.068883 1.870000 -0.423702
v -0.000000 1.870000 -0.410000
v 0.068883 1.870000 -0.423702
v 0.127279 1.870000 -0.462721
v 0.166298 1.870000 -0.521117
v 0.168000 1.870000 -0.590000
v 0.155212 1.870000 -0.654291
v 0.118794 1.870000 -0.708794
v 0.064291 1.870000 -0.745212
v 0.000000 1.870000 -0.758000
v -0.064291 1.870000 -0.745212
v -0.118794 1.870000 -0.708794
v -0.155212 1.870000 -0.654291
v -0.168000 1.870000 -0.590000
v -0.155212 1.870000 -0.525709
v -0.118794 1.870000 -0.471206
v -0.064291 1.870000 -0.434788
v -0.000000 1.870000 -0.422000
v 0.064291 1.870000 -0.434788
v 0.118794 1.870000 -0.471206
v 0.155212 1.870000 -0.525709
v 0.009899 1.900000 -0.580100
v -0.000000 1.900000 -0.576000
v -0.009899 1.900000 -0.580100
v -0.014000 1.900000 -0.590000
v -0.009899 1.900000 -0.599899
v 0.000000 1.900000 -0.604000
v 0.009899 1.900000 -0.599899
v 0.014000 1.900000 -0.590000
v 0.014000 2.030000 -0.590000
v 0.009899 2.030000 -0.599899
v 0.000000 2.030000 -0.604000
v -0.009899 2.030000 -0.599899
v -0.014000 2.030000 -0.590000
v -0.009899 2.030000 -0.580100
v -0.000000 2.030000 -0.576000
v 0.009899 2.030000 -0.580100
v 0.022444 1.846880 -0.612444
v 0.031740 1.846880 -0.590000
v 0.000000 1.834000 -0.590000
v 0.031740 1.913120 -0.590000
v 0.022444 1.913120 -0.612444
v 0.000000 1.926000 -0.590000
v 0.000000 1.846880 -0.621740
v 0.000000 1.913120 -0.621740
v -0.022444 1.846880 -0.612444
v -0.022444 1.913120 -0.612444
v -0.031740 1.846880 -0.590000
v -0.031740 1.913120 -0.590000
v -0.022444 1.846880 -0.567556
v -0.022444 1.913120 -0.567556
v -0.000000 1.846880 -0.558260
v -0.000000 1.913120 -0.558260
v 0.022444 1.846880 -0.567556
v 0.022444 1.913120 -0.567556
v 0.031551 1.868040 -0.621551
v 0.044620 1.868040 -0.590000
v 0.000000 1.868040 -0.634620
v -0.031551 1.868040 -0.621551
v -0.044620 1.868040 -0.590000
v -0.031551 1.868040 -0.558449
v -0.000000 1.868040 -0.545380
v 0.031551 1.868040 -0.558449
v 0.031551 1.891960 -0.621551
v 0.044620 1.891960 -0.590000
v 0.000000 1.891960 -0.634620
v -0.031551 1.891960 -0.621551
v -0.044620 1.891960 -0.590000
v -0.031551 1.891960 -0.558449
v -0.000000 1.891960 -0.545380
v 0.031551 1.891960 -0.558449
vn -0.0000 -1.0000 -0.0000
vn 0.9784 0.0699 -0.1946
vn 0.8294 0.0699 -0.5542
vn 0.5542 0.0699 -0.8294
vn 0.1946 0.0699 -0.9784
vn -0.1946 0.0699 -0.9784
vn -0.5542 0.0699 -0.8294
vn -0.8294 0.0699 -0.5542
vn -0.9784 0.0699 -0.1946
vn -0.9784 0.0699 0.1946
vn -0.8294 0.0699 0.5542
vn -0.5542 0.0699 0.8294
vn -0.1946 0.0699 0.9784
vn 0.1946 0.0699 0.9784
vn 0.5542 0.0699 0.8294
vn 0.8294 0.0699 0.5542
vn 0.9784 0.0699 0.1946
vn 0.8003 0.5780 -0.1592
vn 0.6785 0.5780 -0.4534
vn 0.4534 0.5780 -0.6785
vn 0.1592 0.5780 -0.8003
vn -0.1592 0.5780 -0.8003
vn -0.4534 0.5780 -0.6785
vn -0.6785 0.5780 -0.4534
vn -0.8003 0.5780 -0.1592
vn -0.8003 0.5780 0.1592
vn -0.6785 0.5780 0.4534
vn -0.4534 0.5780 0.6785
vn -0.1592 0.5780 0.8003
vn 0.1592 0.5780 0.8003
vn 0.4534 0.5780 0.6785
vn 0.6785 0.5780 0.4534
vn 0.8003 0.5780 0.1592
vn -0.0000 1.0000 -0.0000
vn -0.0000 -0.9994 0.0345
vn -0.0000 0.9994 -0.0345
vn -0.9239 0.0164 0.3823
vn -0.3827 0.0350 0.9232
vn 0.3827 0.0350 0.9232
vn 0.9239 0.0164 0.3823
vn 0.9239 -0.0100 -0.3826
vn 0.3827 -0.0287 -0.9234
vn -0.3827 -0.0287 -0.9234
vn -0.9239 -0.0100 -0.3826
vn -0.0000 -0.9933 0.1159
vn -0.0000 0.9933 -0.1159
vn -0.9239 0.0474 0.3797
vn -0.3827 0.1101 0.9173
vn 0.3827 0.1101 0.9173
vn 0.9239 0.0474 0.3797
vn 0.9239 -0.0413 -0.3805
vn 0.3827 -0.1040 -0.9180
vn -0.3827 -0.1040 -0.9180
vn -0.9239 -0.0413 -0.3805
vn -0.0000 -0.9162 0.4008
vn -0.0000 0.9162 -0.4008
vn -0.9239 0.1566 0.3492
vn -0.3827 0.3735 0.8450
vn 0.3827 0.3735 0.8450
vn 0.9239 0.1566 0.3492
vn 0.9239 -0.1502 -0.3520
vn 0.3827 -0.3671 -0.8478
vn -0.3827 -0.3671 -0.8478
vn -0.9239 -0.1502 -0.3520
vn -0.0000 -0.5547 0.8321
vn -0.0000 0.5547 -0.8321
vn 0.9239 -0.3162 -0.2156
vn 0.3827 -0.7665 -0.5158
vn -0.3827 -0.7665 -0.5158
vn -0.9239 -0.3162 -0.2156
vn -0.9239 0.3206 0.2090
vn -0.3827 0.7709 0.5092
vn 0.3827 0.7709 0.5092
vn 0.9239 0.3206 0.2090
vn -0.0000 -0.1399 0.9902
vn -0.0000 0.1399 -0.9902
vn 0.9239 -0.3784 -0.0575
vn 0.3827 -0.9142 -0.1332
vn -0.3827 -0.9142 -0.1332
vn -0.9239 -0.3784 -0.0575
vn -0.9239 0.3795 0.0496
vn -0.3827 0.9153 0.1253
vn 0.3827 0.9153 0.1253
vn 0.9239 0.3795 0.0496
vn -0.7002 -0.7002 0.1393
vn -0.5936 -0.7002 0.3966
vn -0.3966 -0.7002 0.5936
vn -0.1393 -0.7002 0.7002
vn 0.1393 -0.7002 0.7002
vn 0.3966 -0.7002 0.5936
vn 0.5936 -0.7002 0.3966
vn 0.7002 -0.7002 0.1393
vn 0.7002 -0.7002 -0.1393
vn 0.5936 -0.7002 -0.3966
vn 0.3966 -0.7002 -0.5936
vn 0.1393 -0.7002 -0.7002
vn -0.1393 -0.7002 -0.7002
vn -0.3966 -0.7002 -0.5936
vn -0.5936 -0.7002 -0.3966
vn -0.7002 -0.7002 -0.1393
vn 0.7002 0.7002 -0.1393
vn 0.5936 0.7002 -0.3966
vn 0.3966 0.7002 -0.5936
vn 0.1393 0.7002 -0.7002
vn -0.1393 0.7002 -0.7002
vn -0.3966 0.7002 -0.5936
vn -0.5936 0.7002 -0.3966
vn -0.7002 0.7002 -0.1393
vn -0.7002 0.7002 0.1393
vn -0.5936 0.7002 0.3966
vn -0.3966 0.7002 0.5936
vn -0.1393 0.7002 0.7002
vn 0.1393 0.7002 0.7002
vn 0.3966 0.7002 0.5936
vn 0.5936 0.7002 0.3966
vn 0.7002 0.7002 0.1393
vn -0.8033 -0.5738 0.1598
vn -0.6810 -0.5738 0.4550
vn -0.4550 -0.5738 0.6810
vn -0.1598 -0.5738 0.8033
vn 0.1598 -0.5738 0.8033
vn 0.4550 -0.5738 0.6810
vn 0.6810 -0.5738 0.4550
vn 0.8033 -0.5738 0.1598
vn 0.8033 -0.5738 -0.1598
vn 0.6810 -0.5738 -0.4550
vn 0.4550 -0.5738 -0.6810
vn 0.1598 -0.5738 -0.8033
vn -0.1598 -0.5738 -0.8033
vn -0.4550 -0.5738 -0.6810
vn -0.6810 -0.5738 -0.4550
vn -0.8033 -0.5738 -0.1598
vn 0.8033 0.5738 -0.1598
vn 0.6810 0.5738 -0.4550
vn 0.4550 0.5738 -0.6810
vn 0.1598 0.5738 -0.8033
vn -0.1598 0.5738 -0.8033
vn -0.4550 0.5738 -0.6810
vn -0.6810 0.5738 -0.4550
vn -0.8033 0.5738 -0.1598
vn -0.8033 0.5738 0.1598
vn -0.6810 0.5738 0.4550
vn -0.4550 0.5738 0.6810
vn -0.1598 0.5738 0.8033
vn 0.1598 0.5738 0.8033
vn 0.4550 0.5738 0.6810
vn 0.6810 0.5738 0.4550
vn 0.8033 0.5738 0.1598
vn 0.9239 -0.0000 -0.3827
vn 0.3827 -0.0000 -0.9239
vn -0.3827 -0.0000 -0.9239
vn -0.9239 -0.0000 -0.3827
vn -0.9239 -0.0000 0.3827
vn -0.3827 -0.0000 0.9239
vn 0.3827 -0.0000 0.9239
vn 0.9239 -0.0000 0.3827
vn 0.3715 -0.9156 -0.1539
vn 0.3715 0.9156 -0.1539
vn 0.1539 -0.9156 -0.3715
vn 0.1539 0.9156 -0.3715
vn -0.1539 -0.9156 -0.3715
vn -0.1539 0.9156 -0.3715
vn -0.3715 -0.9156 -0.1539
vn -0.3715 0.9156 -0.1539
vn -0.3715 -0.9156 0.1539
vn -0.3715 0.9156 0.1539
vn -0.1539 -0.9156 0.3715
vn -0.1539 0.9156 0.3715
vn 0.1539 -0.9156 0.3715
vn 0.1539 0.9156 0.3715
vn 0.3715 -0.9156 0.1539
vn 0.3715 0.9156 0.1539
vn 0.8053 -0.4902 -0.3336
vn 0.3336 -0.4902 -0.8053
vn -0.3336 -0.4902 -0.8053
vn -0.8053 -0.4902 -0.3336
vn -0.8053 -0.4902 0.3336
vn -0.3336 -0.4902 0.8053
vn 0.3336 -0.4902 0.8053
vn 0.8053 -0.4902 0.3336
vn 0.8053 0.4902 -0.3336
vn 0.3336 0.4902 -0.8053
vn -0.3336 0.4902 -0.8053
vn -0.8053 0.4902 -0.3336
vn -0.8053 0.4902 0.3336
vn -0.3336 0.4902 0.8053
vn 0.3336 0.4902 0.8053
vn 0.8053 0.4902 0.3336
vt 0.937500 0.312500
vt 0.812500 0.312500
vt 0.437500 0.312500
vt 0.812500 0.062500
s 0
usemtl FN_Atlas
f 1/1/1 2/1/1 3/1/1 4/1/1 5/1/1 6/1/1 7/1/1 8/1/1 9/1/1 10/1/1 11/1/1 12/1/1 13/1/1 14/1/1 15/1/1 16/1/1
f 16/1/2 15/1/2 17/1/2 18/1/2
f 15/1/3 14/1/3 19/1/3 17/1/3
f 14/1/4 13/1/4 20/1/4 19/1/4
f 13/1/5 12/1/5 21/1/5 20/1/5
f 12/1/6 11/1/6 22/1/6 21/1/6
f 11/1/7 10/1/7 23/1/7 22/1/7
f 10/1/8 9/1/8 24/1/8 23/1/8
f 9/1/9 8/1/9 25/1/9 24/1/9
f 8/1/10 7/1/10 26/1/10 25/1/10
f 7/1/11 6/1/11 27/1/11 26/1/11
f 6/1/12 5/1/12 28/1/12 27/1/12
f 5/1/13 4/1/13 29/1/13 28/1/13
f 4/1/14 3/1/14 30/1/14 29/1/14
f 3/1/15 2/1/15 31/1/15 30/1/15
f 2/1/16 1/1/16 32/1/16 31/1/16
f 1/1/17 16/1/17 18/1/17 32/1/17
f 18/1/18 17/1/18 33/1/18 34/1/18
f 17/1/19 19/1/19 35/1/19 33/1/19
f 19/1/20 20/1/20 36/1/20 35/1/20
f 20/1/21 21/1/21 37/1/21 36/1/21
f 21/1/22 22/1/22 38/1/22 37/1/22
f 22/1/23 23/1/23 39/1/23 38/1/23
f 23/1/24 24/1/24 40/1/24 39/1/24
f 24/1/25 25/1/25 41/1/25 40/1/25
f 25/1/26 26/1/26 42/1/26 41/1/26
f 26/1/27 27/1/27 43/1/27 42/1/27
f 27/1/28 28/1/28 44/1/28 43/1/28
f 28/1/29 29/1/29 45/1/29 44/1/29
f 29/1/30 30/1/30 46/1/30 45/1/30
f 30/1/31 31/1/31 47/1/31 46/1/31
f 31/1/32 32/1/32 48/1/32 47/1/32
f 32/1/33 18/1/33 34/1/33 48/1/33
f 34/1/34 33/1/34 49/1/34 50/1/34
f 33/1/34 35/1/34 51/1/34 49/1/34
f 35/1/34 36/1/34 52/1/34 51/1/34
f 36/1/34 37/1/34 53/1/34 52/1/34
f 37/1/34 38/1/34 54/1/34 53/1/34
f 38/1/34 39/1/34 55/1/34 54/1/34
f 39/1/34 40/1/34 56/1/34 55/1/34
f 40/1/34 41/1/34 57/1/34 56/1/34
f 41/1/34 42/1/34 58/1/34 57/1/34
f 42/1/34 43/1/34 59/1/34 58/1/34
f 43/1/34 44/1/34 60/1/34 59/1/34
f 44/1/34 45/1/34 61/1/34 60/1/34
f 45/1/34 46/1/34 62/1/34 61/1/34
f 46/1/34 47/1/34 63/1/34 62/1/34
f 47/1/34 48/1/34 64/1/34 63/1/34
f 48/1/34 34/1/34 50/1/34 64/1/34
f 65/2/35 66/2/35 67/2/35 68/2/35 69/2/35 70/2/35 71/2/35 72/2/35
f 73/2/36 74/2/36 75/2/36 76/2/36 77/2/36 78/2/36 79/2/36 80/2/36
f 72/2/37 71/2/37 74/2/37 73/2/37
f 71/2/38 70/2/38 75/2/38 74/2/38
f 70/2/39 69/2/39 76/2/39 75/2/39
f 69/2/40 68/2/40 77/2/40 76/2/40
f 68/2/41 67/2/41 78/2/41 77/2/41
f 67/2/42 66/2/42 79/2/42 78/2/42
f 66/2/43 65/2/43 80/2/43 79/2/43
f 65/2/44 72/2/44 73/2/44 80/2/44
f 81/2/45 82/2/45 83/2/45 77/2/45 84/2/45 85/2/45 86/2/45 73/2/45
f 87/2/46 88/2/46 89/2/46 90/2/46 91/2/46 92/2/46 93/2/46 94/2/46
f 73/2/47 86/2/47 88/2/47 87/2/47
f 86/2/48 85/2/48 89/2/48 88/2/48
f 85/2/49 84/2/49 90/2/49 89/2/49
f 84/2/50 77/2/50 91/2/50 90/2/50
f 77/2/51 83/2/51 92/2/51 91/2/51
f 83/2/52 82/2/52 93/2/52 92/2/52
f 82/2/53 81/2/53 94/2/53 93/2/53
f 81/2/54 73/2/54 87/2/54 94/2/54
f 95/2/55 96/2/55 97/2/55 91/2/55 98/2/55 99/2/55 100/2/55 87/2/55
f 101/2/56 102/2/56 103/2/56 104/2/56 105/2/56 106/2/56 107/2/56 108/2/56
f 87/2/57 100/2/57 102/2/57 101/2/57
f 100/2/58 99/2/58 103/2/58 102/2/58
f 99/2/59 98/2/59 104/2/59 103/2/59
f 98/2/60 91/2/60 105/2/60 104/2/60
f 91/2/61 97/2/61 106/2/61 105/2/61
f 97/2/62 96/2/62 107/2/62 106/2/62
f 96/2/63 95/2/63 108/2/63 107/2/63
f 95/2/64 87/2/64 101/2/64 108/2/64
f 109/2/65 110/2/65 111/2/65 101/2/65 112/2/65 113/2/65 114/2/65 105/2/65
f 115/2/66 116/2/66 117/2/66 118/2/66 119/2/66 120/2/66 121/2/66 122/2/66
f 105/2/67 114/2/67 116/2/67 115/2/67
f 114/2/68 113/2/68 117/2/68 116/2/68
f 113/2/69 112/2/69 118/2/69 117/2/69
f 112/2/70 101/2/70 119/2/70 118/2/70
f 101/2/71 111/2/71 120/2/71 119/2/71
f 111/2/72 110/2/72 121/2/72 120/2/72
f 110/2/73 109/2/73 122/2/73 121/2/73
f 109/2/74 105/2/74 115/2/74 122/2/74
f 123/2/75 124/2/75 125/2/75 119/2/75 126/2/75 127/2/75 128/2/75 115/2/75
f 129/2/76 130/2/76 131/2/76 132/2/76 133/2/76 134/2/76 135/2/76 136/2/76
f 115/2/77 128/2/77 130/2/77 129/2/77
f 128/2/78 127/2/78 131/2/78 130/2/78
f 127/2/79 126/2/79 132/2/79 131/2/79
f 126/2/80 119/2/80 133/2/80 132/2/80
f 119/2/81 125/2/81 134/2/81 133/2/81
f 125/2/82 124/2/82 135/2/82 134/2/82
f 124/2/83 123/2/83 136/2/83 135/2/83
f 123/2/84 115/2/84 129/2/84 136/2/84
f 137/2/85 138/2/85 139/2/85 140/2/85
f 138/2/86 141/2/86 142/2/86 139/2/86
f 141/2/87 143/2/87 144/2/87 142/2/87
f 143/2/88 145/2/88 146/2/88 144/2/88
f 145/2/89 147/2/89 148/2/89 146/2/89
f 147/2/90 149/2/90 150/2/90 148/2/90
f 149/2/91 151/2/91 152/2/91 150/2/91
f 151/2/92 153/2/92 154/2/92 152/2/92
f 153/2/93 155/2/93 156/2/93 154/2/93
f 155/2/94 157/2/94 158/2/94 156/2/94
f 157/2/95 159/2/95 160/2/95 158/2/95
f 159/2/96 161/2/96 162/2/96 160/2/96
f 161/2/97 163/2/97 164/2/97 162/2/97
f 163/2/98 165/2/98 166/2/98 164/2/98
f 165/2/99 167/2/99 168/2/99 166/2/99
f 167/2/100 137/2/100 140/2/100 168/2/100
f 169/3/101 170/3/101 171/3/101 172/3/101
f 170/3/102 173/3/102 174/3/102 171/3/102
f 173/3/103 175/3/103 176/3/103 174/3/103
f 175/3/104 177/3/104 178/3/104 176/3/104
f 177/3/105 179/3/105 180/3/105 178/3/105
f 179/3/106 181/3/106 182/3/106 180/3/106
f 181/3/107 183/3/107 184/3/107 182/3/107
f 183/3/108 185/3/108 186/3/108 184/3/108
f 185/3/109 187/3/109 188/3/109 186/3/109
f 187/3/110 189/3/110 190/3/110 188/3/110
f 189/3/111 191/3/111 192/3/111 190/3/111
f 191/3/112 193/3/112 194/3/112 192/3/112
f 193/3/113 195/3/113 196/3/113 194/3/113
f 195/3/114 197/3/114 198/3/114 196/3/114
f 197/3/115 199/3/115 200/3/115 198/3/115
f 199/3/116 169/3/116 172/3/116 200/3/116
f 140/3/117 139/3/117 201/3/117 202/3/117
f 139/3/118 142/3/118 203/3/118 201/3/118
f 142/3/119 144/3/119 204/3/119 203/3/119
f 144/3/120 146/3/120 205/3/120 204/3/120
f 146/3/121 148/3/121 206/3/121 205/3/121
f 148/3/122 150/3/122 207/3/122 206/3/122
f 150/3/123 152/3/123 208/3/123 207/3/123
f 152/3/124 154/3/124 209/3/124 208/3/124
f 154/3/125 156/3/125 210/3/125 209/3/125
f 156/3/126 158/3/126 211/3/126 210/3/126
f 158/3/127 160/3/127 212/3/127 211/3/127
f 160/3/128 162/3/128 213/3/128 212/3/128
f 162/3/129 164/3/129 214/3/129 213/3/129
f 164/3/130 166/3/130 215/3/130 214/3/130
f 166/3/131 168/3/131 216/3/131 215/3/131
f 168/3/132 140/3/132 202/3/132 216/3/132
f 217/3/133 218/3/133 170/3/133 169/3/133
f 218/3/134 219/3/134 173/3/134 170/3/134
f 219/3/135 220/3/135 175/3/135 173/3/135
f 220/3/136 221/3/136 177/3/136 175/3/136
f 221/3/137 222/3/137 179/3/137 177/3/137
f 222/3/138 223/3/138 181/3/138 179/3/138
f 223/3/139 224/3/139 183/3/139 181/3/139
f 224/3/140 225/3/140 185/3/140 183/3/140
f 225/3/141 226/3/141 187/3/141 185/3/141
f 226/3/142 227/3/142 189/3/142 187/3/142
f 227/3/143 228/3/143 191/3/143 189/3/143
f 228/3/144 229/3/144 193/3/144 191/3/144
f 229/3/145 230/3/145 195/3/145 193/3/145
f 230/3/146 231/3/146 197/3/146 195/3/146
f 231/3/147 232/3/147 199/3/147 197/3/147
f 232/3/148 217/3/148 169/3/148 199/3/148
f 202/3/34 201/3/34 218/3/34 217/3/34
f 201/3/34 203/3/34 219/3/34 218/3/34
f 203/3/34 204/3/34 220/3/34 219/3/34
f 204/3/34 205/3/34 221/3/34 220/3/34
f 205/3/34 206/3/34 222/3/34 221/3/34
f 206/3/34 207/3/34 223/3/34 222/3/34
f 207/3/34 208/3/34 224/3/34 223/3/34
f 208/3/34 209/3/34 225/3/34 224/3/34
f 209/3/34 210/3/34 226/3/34 225/3/34
f 210/3/34 211/3/34 227/3/34 226/3/34
f 211/3/34 212/3/34 228/3/34 227/3/34
f 212/3/34 213/3/34 229/3/34 228/3/34
f 213/3/34 214/3/34 230/3/34 229/3/34
f 214/3/34 215/3/34 231/3/34 230/3/34
f 215/3/34 216/3/34 232/3/34 231/3/34
f 216/3/34 202/3/34 217/3/34 232/3/34
f 137/2/34 138/2/34 141/2/34 143/2/34 145/2/34 147/2/34 149/2/34 151/2/34 153/2/34 155/2/34 157/2/34 159/2/34 161/2/34 163/2/34 165/2/34 167/2/34
f 233/3/1 234/3/1 235/3/1 236/3/1 237/3/1 238/3/1 239/3/1 240/3/1
f 241/3/34 242/3/34 243/3/34 244/3/34 245/3/34 246/3/34 247/3/34 248/3/34
f 240/3/149 239/3/149 242/3/149 241/3/149
f 239/3/150 238/3/150 243/3/150 242/3/150
f 238/3/151 237/3/151 244/3/151 243/3/151
f 237/3/152 236/3/152 245/3/152 244/3/152
f 236/3/153 235/3/153 246/3/153 245/3/153
f 235/3/154 234/3/154 247/3/154 246/3/154
f 234/3/155 233/3/155 248/3/155 247/3/155
f 233/3/156 240/3/156 241/3/156 248/3/156
usemtl FN_Glow
f 249/4/157 250/4/157 251/4/157
f 252/4/158 253/4/158 254/4/158
f 255/4/159 249/4/159 251/4/159
f 253/4/160 256/4/160 254/4/160
f 257/4/161 255/4/161 251/4/161
f 256/4/162 258/4/162 254/4/162
f 259/4/163 257/4/163 251/4/163
f 258/4/164 260/4/164 254/4/164
f 261/4/165 259/4/165 251/4/165
f 260/4/166 262/4/166 254/4/166
f 263/4/167 261/4/167 251/4/167
f 262/4/168 264/4/168 254/4/168
f 265/4/169 263/4/169 251/4/169
f 264/4/170 266/4/170 254/4/170
f 250/4/171 265/4/171 251/4/171
f 266/4/172 252/4/172 254/4/172
f 250/4/173 249/4/173 267/4/173 268/4/173
f 249/4/174 255/4/174 269/4/174 267/4/174
f 255/4/175 257/4/175 270/4/175 269/4/175
f 257/4/176 259/4/176 271/4/176 270/4/176
f 259/4/177 261/4/177 272/4/177 271/4/177
f 261/4/178 263/4/178 273/4/178 272/4/178
f 263/4/179 265/4/179 274/4/179 273/4/179
f 265/4/180 250/4/180 268/4/180 274/4/180
f 268/4/149 267/4/149 275/4/149 276/4/149
f 267/4/150 269/4/150 277/4/150 275/4/150
f 269/4/151 270/4/151 278/4/151 277/4/151
f 270/4/152 271/4/152 279/4/152 278/4/152
f 271/4/153 272/4/153 280/4/153 279/4/153
f 272/4/154 273/4/154 281/4/154 280/4/154
f 273/4/155 274/4/155 282/4/155 281/4/155
f 274/4/156 268/4/156 276/4/156 282/4/156
f 276/4/181 275/4/181 253/4/181 252/4/181
f 275/4/182 277/4/182 256/4/182 253/4/182
f 277/4/183 278/4/183 258/4/183 256/4/183
f 278/4/184 279/4/184 260/4/184 258/4/184
f 279/4/185 280/4/185 262/4/185 260/4/185
f 280/4/186 281/4/186 264/4/186 262/4/186
f 281/4/187 282/4/187 266/4/187 264/4/187
f 282/4/188 276/4/188 252/4/188 266/4/188
