# Blender 5.2.0 LTS
# www.blender.org
mtllib FN_Lectern.mtl
o FN_Lectern
v -0.270000 0.000000 0.210000
v -0.270000 0.000000 -0.210000
v 0.270000 0.000000 -0.210000
v 0.270000 0.000000 0.210000
v -0.270000 0.078000 0.210000
v 0.270000 0.078000 0.210000
v 0.270000 0.078000 -0.210000
v -0.270000 0.078000 -0.210000
v -0.212000 0.070000 0.180000
v -0.212000 0.070000 -0.180000
v -0.212000 1.128000 -0.180000
v -0.212000 1.000000 0.180000
v -0.240000 1.000000 0.180000
v -0.240000 1.128000 -0.180000
v -0.240000 0.070000 -0.180000
v -0.240000 0.070000 0.180000
v 0.212000 1.000000 0.180000
v 0.212000 1.128000 -0.180000
v 0.212000 0.070000 -0.180000
v 0.212000 0.070000 0.180000
v 0.240000 0.070000 0.180000
v 0.240000 0.070000 -0.180000
v 0.240000 1.128000 -0.180000
v 0.240000 1.000000 0.180000
v -0.226000 0.070000 0.180000
v -0.226000 0.070000 0.152000
v 0.226000 0.070000 0.152000
v 0.226000 0.070000 0.180000
v -0.226000 0.995000 0.180000
v 0.226000 0.995000 0.180000
v 0.226000 0.995000 0.152000
v -0.226000 0.995000 0.152000
v -0.226000 0.070000 -0.180000
v 0.226000 0.070000 -0.180000
v -0.226000 0.098000 0.152000
v 0.226000 0.098000 0.152000
v 0.226000 0.098000 -0.180000
v -0.226000 0.098000 -0.180000
v -0.226000 0.560000 0.152000
v -0.226000 0.560000 -0.170000
v 0.226000 0.560000 -0.170000
v 0.226000 0.560000 0.152000
v -0.226000 0.586000 0.152000
v 0.226000 0.586000 0.152000
v 0.226000 0.586000 -0.170000
v -0.226000 0.586000 -0.170000
v -0.232000 0.880000 0.186000
v -0.232000 0.880000 0.176000
v 0.232000 0.880000 0.176000
v 0.232000 0.880000 0.186000
v -0.232000 0.920000 0.186000
v 0.232000 0.920000 0.186000
v 0.232000 0.920000 0.176000
v -0.232000 0.920000 0.176000
v -0.310000 1.007907 0.197515
v -0.310000 1.144715 -0.178362
v -0.310000 1.118404 -0.187939
v -0.310000 0.981596 0.187939
v 0.310000 0.981596 0.187939
v 0.310000 1.118404 -0.187939
v 0.310000 1.144715 -0.178362
v 0.310000 1.007907 0.197515
v -0.310000 1.036098 0.207776
v -0.310000 1.046359 0.179585
v -0.310000 1.010650 0.166588
v -0.310000 1.000390 0.194779
v 0.310000 1.000390 0.194779
v 0.310000 1.010650 0.166588
v 0.310000 1.046359 0.179585
v 0.310000 1.036098 0.207776
vn -0.0000 -1.0000 -0.0000
vn -0.0000 1.0000 -0.0000
vn -0.0000 -0.0000 1.0000
vn -0.0000 -0.0000 -1.0000
vn -1.0000 -0.0000 -0.0000
vn 1.0000 -0.0000 -0.0000
vn -0.0000 0.9422 0.3350
vn -0.0000 -0.9397 -0.3420
vn -0.0000 0.3420 -0.9397
vn -0.0000 0.9397 0.3420
vn -0.0000 -0.3420 0.9397
vt 0.437500 0.937500
vt 0.937500 0.687500
vt 0.437500 0.312500
vt 0.812500 0.937500
s 0
usemtl FN_Atlas
f 1/1/1 2/1/1 3/1/1 4/1/1
f 5/1/2 6/1/2 7/1/2 8/1/2
f 1/1/3 4/1/3 6/1/3 5/1/3
f 3/1/4 2/1/4 8/1/4 7/1/4
f 1/1/5 5/1/5 8/1/5 2/1/5
f 4/1/6 3/1/6 7/1/6 6/1/6
f 9/1/6 10/1/6 11/1/6 12/1/6
f 13/1/5 14/1/5 15/1/5 16/1/5
f 16/1/1 15/1/1 10/1/1 9/1/1
f 15/1/4 14/1/4 11/1/4 10/1/4
f 14/1/7 13/1/7 12/1/7 11/1/7
f 13/1/3 16/1/3 9/1/3 12/1/3
f 17/1/5 18/1/5 19/1/5 20/1/5
f 21/1/6 22/1/6 23/1/6 24/1/6
f 20/1/1 19/1/1 22/1/1 21/1/1
f 19/1/4 18/1/4 23/1/4 22/1/4
f 18/1/7 17/1/7 24/1/7 23/1/7
f 17/1/3 20/1/3 21/1/3 24/1/3
f 25/1/1 26/1/1 27/1/1 28/1/1
f 29/1/2 30/1/2 31/1/2 32/1/2
f 25/1/3 28/1/3 30/1/3 29/1/3
f 27/2/4 26/2/4 32/2/4 31/2/4
f 25/1/5 29/1/5 32/1/5 26/1/5
f 28/1/6 27/1/6 31/1/6 30/1/6
f 26/1/1 33/1/1 34/1/1 27/1/1
f 35/2/2 36/2/2 37/2/2 38/2/2
f 26/1/3 27/1/3 36/1/3 35/1/3
f 34/1/4 33/1/4 38/1/4 37/1/4
f 26/1/5 35/1/5 38/1/5 33/1/5
f 27/1/6 34/1/6 37/1/6 36/1/6
f 39/1/1 40/1/1 41/1/1 42/1/1
f 43/1/2 44/1/2 45/1/2 46/1/2
f 39/1/3 42/1/3 44/1/3 43/1/3
f 41/1/4 40/1/4 46/1/4 45/1/4
f 39/1/5 43/1/5 46/1/5 40/1/5
f 42/1/6 41/1/6 45/1/6 44/1/6
f 47/3/1 48/3/1 49/3/1 50/3/1
f 51/3/2 52/3/2 53/3/2 54/3/2
f 47/3/3 50/3/3 52/3/3 51/3/3
f 49/3/4 48/3/4 54/3/4 53/3/4
f 47/3/5 51/3/5 54/3/5 48/3/5
f 50/3/6 49/3/6 53/3/6 52/3/6
f 55/4/5 56/4/5 57/4/5 58/4/5
f 59/4/6 60/4/6 61/4/6 62/4/6
f 58/4/8 57/4/8 60/4/8 59/4/8
f 57/4/9 56/4/9 61/4/9 60/4/9
f 56/4/10 55/4/10 62/4/10 61/4/10
f 55/4/11 58/4/11 59/4/11 62/4/11
f 63/3/5 64/3/5 65/3/5 66/3/5
f 67/3/6 68/3/6 69/3/6 70/3/6
f 66/3/8 65/3/8 68/3/8 67/3/8
f 65/3/9 64/3/9 69/3/9 68/3/9
f 64/3/10 63/3/10 70/3/10 69/3/10
f 63/3/11 66/3/11 67/3/11 70/3/11
