# Blender 5.2.0 LTS
# www.blender.org
mtllib FN_Locker_Bank.mtl
o FN_Locker_Bank
v -0.436000 0.000000 0.188103
v -0.436000 0.000000 -0.235897
v 0.436000 0.000000 -0.235897
v 0.436000 0.000000 0.188103
v -0.436000 0.100000 0.188103
v 0.436000 0.100000 0.188103
v 0.436000 0.100000 -0.235897
v -0.436000 0.100000 -0.235897
v -0.450000 0.100000 0.208103
v -0.450000 0.100000 -0.241897
v -0.434000 0.100000 -0.241897
v -0.434000 0.100000 0.208103
v -0.450000 1.800000 0.208103
v -0.434000 1.800000 0.208103
v -0.434000 1.800000 -0.241897
v -0.450000 1.800000 -0.241897
v 0.434000 0.100000 0.208103
v 0.434000 0.100000 -0.241897
v 0.450000 0.100000 -0.241897
v 0.450000 0.100000 0.208103
v 0.434000 1.800000 0.208103
v 0.450000 1.800000 0.208103
v 0.450000 1.800000 -0.241897
v 0.434000 1.800000 -0.241897
v -0.450000 0.116000 0.208103
v 0.450000 0.116000 0.208103
v 0.450000 0.116000 -0.241897
v -0.450000 0.116000 -0.241897
v -0.450000 1.784000 0.208103
v -0.450000 1.784000 -0.241897
v 0.450000 1.784000 -0.241897
v 0.450000 1.784000 0.208103
v -0.434000 0.100000 -0.229897
v 0.434000 0.100000 -0.229897
v -0.434000 1.800000 -0.229897
v 0.434000 1.800000 -0.229897
v -0.152000 0.116000 0.208103
v -0.152000 0.116000 -0.229897
v -0.140000 0.116000 -0.229897
v -0.140000 0.116000 0.208103
v -0.152000 1.784000 0.208103
v -0.140000 1.784000 0.208103
v -0.140000 1.784000 -0.229897
v -0.152000 1.784000 -0.229897
v 0.140000 0.116000 0.208103
v 0.140000 0.116000 -0.229897
v 0.152000 0.116000 -0.229897
v 0.152000 0.116000 0.208103
v 0.140000 1.784000 0.208103
v 0.152000 1.784000 0.208103
v 0.152000 1.784000 -0.229897
v 0.140000 1.784000 -0.229897
v -0.434000 0.116000 0.190103
v -0.434000 0.116000 0.178103
v 0.434000 0.116000 0.178103
v 0.434000 0.116000 0.190103
v -0.434000 1.784000 0.190103
v 0.434000 1.784000 0.190103
v 0.434000 1.784000 0.178103
v -0.434000 1.784000 0.178103
v -0.434000 0.122000 0.208103
v -0.434000 0.122000 0.192103
v -0.150000 0.122000 0.192103
v -0.150000 0.122000 0.208103
v -0.434000 1.778000 0.208103
v -0.150000 1.778000 0.208103
v -0.150000 1.778000 0.192103
v -0.434000 1.778000 0.192103
v -0.388000 1.648000 0.208103
v -0.196000 1.648000 0.208103
v -0.196000 1.628000 0.208103
v -0.388000 1.628000 0.208103
v -0.388000 1.624000 0.220103
v -0.196000 1.624000 0.220103
v -0.196000 1.640000 0.220103
v -0.388000 1.640000 0.220103
v -0.388000 1.610000 0.208103
v -0.196000 1.610000 0.208103
v -0.196000 1.590000 0.208103
v -0.388000 1.590000 0.208103
v -0.388000 1.586000 0.220103
v -0.196000 1.586000 0.220103
v -0.196000 1.602000 0.220103
v -0.388000 1.602000 0.220103
v -0.388000 1.572000 0.208103
v -0.196000 1.572000 0.208103
v -0.196000 1.552000 0.208103
v -0.388000 1.552000 0.208103
v -0.388000 1.548000 0.220103
v -0.196000 1.548000 0.220103
v -0.196000 1.564000 0.220103
v -0.388000 1.564000 0.220103
v -0.388000 1.534000 0.208103
v -0.196000 1.534000 0.208103
v -0.196000 1.514000 0.208103
v -0.388000 1.514000 0.208103
v -0.388000 1.510000 0.220103
v -0.196000 1.510000 0.220103
v -0.196000 1.526000 0.220103
v -0.388000 1.526000 0.220103
v -0.382000 1.458000 0.210103
v -0.382000 1.458000 0.207103
v -0.318000 1.458000 0.207103
v -0.318000 1.458000 0.210103
v -0.382000 1.506000 0.210103
v -0.318000 1.506000 0.210103
v -0.318000 1.506000 0.207103
v -0.382000 1.506000 0.207103
v -0.196500 0.980000 0.241897
v -0.187500 0.980000 0.241897
v -0.183000 0.980000 0.234103
v -0.187500 0.980000 0.226309
v -0.196500 0.980000 0.226309
v -0.201000 0.980000 0.234103
v -0.201000 1.180000 0.234103
v -0.196500 1.180000 0.226309
v -0.187500 1.180000 0.226309
v -0.183000 1.180000 0.234103
v -0.187500 1.180000 0.241897
v -0.196500 1.180000 0.241897
v -0.195500 0.973938 0.208103
v -0.188500 0.973938 0.208103
v -0.185000 0.980000 0.208103
v -0.188500 0.986062 0.208103
v -0.195500 0.986062 0.208103
v -0.199000 0.980000 0.208103
v -0.199000 0.980000 0.234103
v -0.195500 0.986062 0.234103
v -0.188500 0.986062 0.234103
v -0.185000 0.980000 0.234103
v -0.188500 0.973938 0.234103
v -0.195500 0.973938 0.234103
v -0.195500 1.173938 0.208103
v -0.188500 1.173938 0.208103
v -0.185000 1.180000 0.208103
v -0.188500 1.186062 0.208103
v -0.195500 1.186062 0.208103
v -0.199000 1.180000 0.208103
v -0.199000 1.180000 0.234103
v -0.195500 1.186062 0.234103
v -0.188500 1.186062 0.234103
v -0.185000 1.180000 0.234103
v -0.188500 1.173938 0.234103
v -0.195500 1.173938 0.234103
v -0.142000 0.122000 0.208103
v -0.142000 0.122000 0.192103
v 0.142000 0.122000 0.192103
v 0.142000 0.122000 0.208103
v -0.142000 1.778000 0.208103
v 0.142000 1.778000 0.208103
v 0.142000 1.778000 0.192103
v -0.142000 1.778000 0.192103
v -0.096000 1.648000 0.208103
v 0.096000 1.648000 0.208103
v 0.096000 1.628000 0.208103
v -0.096000 1.628000 0.208103
v -0.096000 1.624000 0.220103
v 0.096000 1.624000 0.220103
v 0.096000 1.640000 0.220103
v -0.096000 1.640000 0.220103
v -0.096000 1.610000 0.208103
v 0.096000 1.610000 0.208103
v 0.096000 1.590000 0.208103
v -0.096000 1.590000 0.208103
v -0.096000 1.586000 0.220103
v 0.096000 1.586000 0.220103
v 0.096000 1.602000 0.220103
v -0.096000 1.602000 0.220103
v -0.096000 1.572000 0.208103
v 0.096000 1.572000 0.208103
v 0.096000 1.552000 0.208103
v -0.096000 1.552000 0.208103
v -0.096000 1.548000 0.220103
v 0.096000 1.548000 0.220103
v 0.096000 1.564000 0.220103
v -0.096000 1.564000 0.220103
v -0.096000 1.534000 0.208103
v 0.096000 1.534000 0.208103
v 0.096000 1.514000 0.208103
v -0.096000 1.514000 0.208103
v -0.096000 1.510000 0.220103
v 0.096000 1.510000 0.220103
v 0.096000 1.526000 0.220103
v -0.096000 1.526000 0.220103
v -0.090000 1.458000 0.210103
v -0.090000 1.458000 0.207103
v -0.026000 1.458000 0.207103
v -0.026000 1.458000 0.210103
v -0.090000 1.506000 0.210103
v -0.026000 1.506000 0.210103
v -0.026000 1.506000 0.207103
v -0.090000 1.506000 0.207103
v 0.095500 0.980000 0.241897
v 0.104500 0.980000 0.241897
v 0.109000 0.980000 0.234103
v 0.104500 0.980000 0.226309
v 0.095500 0.980000 0.226309
v 0.091000 0.980000 0.234103
v 0.091000 1.180000 0.234103
v 0.095500 1.180000 0.226309
v 0.104500 1.180000 0.226309
v 0.109000 1.180000 0.234103
v 0.104500 1.180000 0.241897
v 0.095500 1.180000 0.241897
v 0.096500 0.973938 0.208103
v 0.103500 0.973938 0.208103
v 0.107000 0.980000 0.208103
v 0.103500 0.986062 0.208103
v 0.096500 0.986062 0.208103
v 0.093000 0.980000 0.208103
v 0.093000 0.980000 0.234103
v 0.096500 0.986062 0.234103
v 0.103500 0.986062 0.234103
v 0.107000 0.980000 0.234103
v 0.103500 0.973938 0.234103
v 0.096500 0.973938 0.234103
v 0.096500 1.173938 0.208103
v 0.103500 1.173938 0.208103
v 0.107000 1.180000 0.208103
v 0.103500 1.186062 0.208103
v 0.096500 1.186062 0.208103
v 0.093000 1.180000 0.208103
v 0.093000 1.180000 0.234103
v 0.096500 1.186062 0.234103
v 0.103500 1.186062 0.234103
v 0.107000 1.180000 0.234103
v 0.103500 1.173938 0.234103
v 0.096500 1.173938 0.234103
v 0.150000 0.122000 0.208103
v 0.150000 0.122000 0.192103
v 0.434000 0.122000 0.192103
v 0.434000 0.122000 0.208103
v 0.150000 1.778000 0.208103
v 0.434000 1.778000 0.208103
v 0.434000 1.778000 0.192103
v 0.150000 1.778000 0.192103
v 0.196000 1.648000 0.208103
v 0.388000 1.648000 0.208103
v 0.388000 1.628000 0.208103
v 0.196000 1.628000 0.208103
v 0.196000 1.624000 0.220103
v 0.388000 1.624000 0.220103
v 0.388000 1.640000 0.220103
v 0.196000 1.640000 0.220103
v 0.196000 1.610000 0.208103
v 0.388000 1.610000 0.208103
v 0.388000 1.590000 0.208103
v 0.196000 1.590000 0.208103
v 0.196000 1.586000 0.220103
v 0.388000 1.586000 0.220103
v 0.388000 1.602000 0.220103
v 0.196000 1.602000 0.220103
v 0.196000 1.572000 0.208103
v 0.388000 1.572000 0.208103
v 0.388000 1.552000 0.208103
v 0.196000 1.552000 0.208103
v 0.196000 1.548000 0.220103
v 0.388000 1.548000 0.220103
v 0.388000 1.564000 0.220103
v 0.196000 1.564000 0.220103
v 0.196000 1.534000 0.208103
v 0.388000 1.534000 0.208103
v 0.388000 1.514000 0.208103
v 0.196000 1.514000 0.208103
v 0.196000 1.510000 0.220103
v 0.388000 1.510000 0.220103
v 0.388000 1.526000 0.220103
v 0.196000 1.526000 0.220103
v 0.202000 1.458000 0.210103
v 0.202000 1.458000 0.207103
v 0.266000 1.458000 0.207103
v 0.266000 1.458000 0.210103
v 0.202000 1.506000 0.210103
v 0.266000 1.506000 0.210103
v 0.266000 1.506000 0.207103
v 0.202000 1.506000 0.207103
v 0.387500 0.980000 0.241897
v 0.396500 0.980000 0.241897
v 0.401000 0.980000 0.234103
v 0.396500 0.980000 0.226309
v 0.387500 0.980000 0.226309
v 0.383000 0.980000 0.234103
v 0.383000 1.180000 0.234103
v 0.387500 1.180000 0.226309
v 0.396500 1.180000 0.226309
v 0.401000 1.180000 0.234103
v 0.396500 1.180000 0.241897
v 0.387500 1.180000 0.241897
v 0.388500 0.973938 0.208103
v 0.395500 0.973938 0.208103
v 0.399000 0.980000 0.208103
v 0.395500 0.986062 0.208103
v 0.388500 0.986062 0.208103
v 0.385000 0.980000 0.208103
v 0.385000 0.980000 0.234103
v 0.388500 0.986062 0.234103
v 0.395500 0.986062 0.234103
v 0.399000 0.980000 0.234103
v 0.395500 0.973938 0.234103
v 0.388500 0.973938 0.234103
v 0.388500 1.173938 0.208103
v 0.395500 1.173938 0.208103
v 0.399000 1.180000 0.208103
v 0.395500 1.186062 0.208103
v 0.388500 1.186062 0.208103
v 0.385000 1.180000 0.208103
v 0.385000 1.180000 0.234103
v 0.388500 1.186062 0.234103
v 0.395500 1.186062 0.234103
v 0.399000 1.180000 0.234103
v 0.395500 1.173938 0.234103
v 0.388500 1.173938 0.234103
vn -0.0000 -1.0000 -0.0000
vn -0.0000 1.0000 -0.0000
vn -0.0000 -0.0000 1.0000
vn -0.0000 -0.0000 -1.0000
vn -1.0000 -0.0000 -0.0000
vn 1.0000 -0.0000 -0.0000
vn -0.0000 -0.9487 -0.3162
vn -0.0000 0.8320 0.5547
vn 0.8660 -0.0000 0.5000
vn -0.8660 -0.0000 0.5000
vn -0.8660 -0.0000 -0.5000
vn 0.8660 -0.0000 -0.5000
vn 0.8660 -0.5000 -0.0000
vn -0.8660 -0.5000 -0.0000
vn -0.8660 0.5000 -0.0000
vn 0.8660 0.5000 -0.0000
vn -0.0000 0.8321 0.5547
vt 0.812500 0.312500
vt 0.937500 0.312500
vt 0.937500 0.812500
vt 0.437500 0.812500
vt 0.062500 0.312500
s 0
usemtl FN_Atlas
f 1/1/1 2/1/1 3/1/1 4/1/1
f 5/1/2 6/1/2 7/1/2 8/1/2
f 1/1/3 4/1/3 6/1/3 5/1/3
f 3/1/4 2/1/4 8/1/4 7/1/4
f 1/1/5 5/1/5 8/1/5 2/1/5
f 4/1/6 3/1/6 7/1/6 6/1/6
f 9/2/1 10/2/1 11/2/1 12/2/1
f 13/2/2 14/2/2 15/2/2 16/2/2
f 9/2/3 12/2/3 14/2/3 13/2/3
f 11/2/4 10/2/4 16/2/4 15/2/4
f 9/2/5 13/2/5 16/2/5 10/2/5
f 12/2/6 11/2/6 15/2/6 14/2/6
f 17/2/1 18/2/1 19/2/1 20/2/1
f 21/2/2 22/2/2 23/2/2 24/2/2
f 17/2/3 20/2/3 22/2/3 21/2/3
f 19/2/4 18/2/4 24/2/4 23/2/4
f 17/2/5 21/2/5 24/2/5 18/2/5
f 20/2/6 19/2/6 23/2/6 22/2/6
f 9/2/1 10/2/1 19/2/1 20/2/1
f 25/2/2 26/2/2 27/2/2 28/2/2
f 9/2/3 20/2/3 26/2/3 25/2/3
f 19/2/4 10/2/4 28/2/4 27/2/4
f 9/2/5 25/2/5 28/2/5 10/2/5
f 20/2/6 19/2/6 27/2/6 26/2/6
f 29/2/1 30/2/1 31/2/1 32/2/1
f 13/2/2 22/2/2 23/2/2 16/2/2
f 29/2/3 32/2/3 22/2/3 13/2/3
f 31/2/4 30/2/4 16/2/4 23/2/4
f 29/2/5 13/2/5 16/2/5 30/2/5
f 32/2/6 31/2/6 23/2/6 22/2/6
f 33/1/1 11/1/1 18/1/1 34/1/1
f 35/1/2 36/1/2 24/1/2 15/1/2
f 33/1/3 34/1/3 36/1/3 35/1/3
f 18/1/4 11/1/4 15/1/4 24/1/4
f 33/1/5 35/1/5 15/1/5 11/1/5
f 34/1/6 18/1/6 24/1/6 36/1/6
f 37/2/1 38/2/1 39/2/1 40/2/1
f 41/2/2 42/2/2 43/2/2 44/2/2
f 37/2/3 40/2/3 42/2/3 41/2/3
f 39/2/4 38/2/4 44/2/4 43/2/4
f 37/2/5 41/2/5 44/2/5 38/2/5
f 40/2/6 39/2/6 43/2/6 42/2/6
f 45/2/1 46/2/1 47/2/1 48/2/1
f 49/2/2 50/2/2 51/2/2 52/2/2
f 45/2/3 48/2/3 50/2/3 49/2/3
f 47/2/4 46/2/4 52/2/4 51/2/4
f 45/2/5 49/2/5 52/2/5 46/2/5
f 48/2/6 47/2/6 51/2/6 50/2/6
f 53/1/1 54/1/1 55/1/1 56/1/1
f 57/1/2 58/1/2 59/1/2 60/1/2
f 53/1/3 56/1/3 58/1/3 57/1/3
f 55/1/4 54/1/4 60/1/4 59/1/4
f 53/1/5 57/1/5 60/1/5 54/1/5
f 56/1/6 55/1/6 59/1/6 58/1/6
f 61/3/1 62/3/1 63/3/1 64/3/1
f 65/3/2 66/3/2 67/3/2 68/3/2
f 61/3/3 64/3/3 66/3/3 65/3/3
f 63/3/4 62/3/4 68/3/4 67/3/4
f 61/3/5 65/3/5 68/3/5 62/3/5
f 64/3/6 63/3/6 67/3/6 66/3/6
f 69/3/4 70/3/4 71/3/4 72/3/4
f 73/3/3 74/3/3 75/3/3 76/3/3
f 72/3/7 71/3/7 74/3/7 73/3/7
f 71/3/6 70/3/6 75/3/6 74/3/6
f 70/3/8 69/3/8 76/3/8 75/3/8
f 69/3/5 72/3/5 73/3/5 76/3/5
f 77/3/4 78/3/4 79/3/4 80/3/4
f 81/3/3 82/3/3 83/3/3 84/3/3
f 80/3/7 79/3/7 82/3/7 81/3/7
f 79/3/6 78/3/6 83/3/6 82/3/6
f 78/3/8 77/3/8 84/3/8 83/3/8
f 77/3/5 80/3/5 81/3/5 84/3/5
f 85/3/4 86/3/4 87/3/4 88/3/4
f 89/3/3 90/3/3 91/3/3 92/3/3
f 88/3/7 87/3/7 90/3/7 89/3/7
f 87/3/6 86/3/6 91/3/6 90/3/6
f 86/3/8 85/3/8 92/3/8 91/3/8
f 85/3/5 88/3/5 89/3/5 92/3/5
f 93/3/4 94/3/4 95/3/4 96/3/4
f 97/3/3 98/3/3 99/3/3 100/3/3
f 96/3/7 95/3/7 98/3/7 97/3/7
f 95/3/6 94/3/6 99/3/6 98/3/6
f 94/3/8 93/3/8 100/3/8 99/3/8
f 93/3/5 96/3/5 97/3/5 100/3/5
f 101/4/1 102/4/1 103/4/1 104/4/1
f 105/4/2 106/4/2 107/4/2 108/4/2
f 101/4/3 104/4/3 106/4/3 105/4/3
f 103/4/4 102/4/4 108/4/4 107/4/4
f 101/4/5 105/4/5 108/4/5 102/4/5
f 104/4/6 103/4/6 107/4/6 106/4/6
f 109/5/2 110/5/2 111/5/2 112/5/2 113/5/2 114/5/2
f 115/5/1 116/5/1 117/5/1 118/5/1 119/5/1 120/5/1
f 114/5/9 113/5/9 116/5/9 115/5/9
f 113/5/3 112/5/3 117/5/3 116/5/3
f 112/5/10 111/5/10 118/5/10 117/5/10
f 111/5/11 110/5/11 119/5/11 118/5/11
f 110/5/4 109/5/4 120/5/4 119/5/4
f 109/5/12 114/5/12 115/5/12 120/5/12
f 121/5/3 122/5/3 123/5/3 124/5/3 125/5/3 126/5/3
f 127/5/4 128/5/4 129/5/4 130/5/4 131/5/4 132/5/4
f 126/5/13 125/5/13 128/5/13 127/5/13
f 125/5/1 124/5/1 129/5/1 128/5/1
f 124/5/14 123/5/14 130/5/14 129/5/14
f 123/5/15 122/5/15 131/5/15 130/5/15
f 122/5/2 121/5/2 132/5/2 131/5/2
f 121/5/16 126/5/16 127/5/16 132/5/16
f 133/5/3 134/5/3 135/5/3 136/5/3 137/5/3 138/5/3
f 139/5/4 140/5/4 141/5/4 142/5/4 143/5/4 144/5/4
f 138/5/13 137/5/13 140/5/13 139/5/13
f 137/5/1 136/5/1 141/5/1 140/5/1
f 136/5/14 135/5/14 142/5/14 141/5/14
f 135/5/15 134/5/15 143/5/15 142/5/15
f 134/5/2 133/5/2 144/5/2 143/5/2
f 133/5/16 138/5/16 139/5/16 144/5/16
f 145/3/1 146/3/1 147/3/1 148/3/1
f 149/3/2 150/3/2 151/3/2 152/3/2
f 145/3/3 148/3/3 150/3/3 149/3/3
f 147/3/4 146/3/4 152/3/4 151/3/4
f 145/3/5 149/3/5 152/3/5 146/3/5
f 148/3/6 147/3/6 151/3/6 150/3/6
f 153/3/4 154/3/4 155/3/4 156/3/4
f 157/3/3 158/3/3 159/3/3 160/3/3
f 156/3/7 155/3/7 158/3/7 157/3/7
f 155/3/6 154/3/6 159/3/6 158/3/6
f 154/3/17 153/3/17 160/3/17 159/3/17
f 153/3/5 156/3/5 157/3/5 160/3/5
f 161/3/4 162/3/4 163/3/4 164/3/4
f 165/3/3 166/3/3 167/3/3 168/3/3
f 164/3/7 163/3/7 166/3/7 165/3/7
f 163/3/6 162/3/6 167/3/6 166/3/6
f 162/3/17 161/3/17 168/3/17 167/3/17
f 161/3/5 164/3/5 165/3/5 168/3/5
f 169/3/4 170/3/4 171/3/4 172/3/4
f 173/3/3 174/3/3 175/3/3 176/3/3
f 172/3/7 171/3/7 174/3/7 173/3/7
f 171/3/6 170/3/6 175/3/6 174/3/6
f 170/3/17 169/3/17 176/3/17 175/3/17
f 169/3/5 172/3/5 173/3/5 176/3/5
f 177/3/4 178/3/4 179/3/4 180/3/4
f 181/3/3 182/3/3 183/3/3 184/3/3
f 180/3/7 179/3/7 182/3/7 181/3/7
f 179/3/6 178/3/6 183/3/6 182/3/6
f 178/3/17 177/3/17 184/3/17 183/3/17
f 177/3/5 180/3/5 181/3/5 184/3/5
f 185/4/1 186/4/1 187/4/1 188/4/1
f 189/4/2 190/4/2 191/4/2 192/4/2
f 185/4/3 188/4/3 190/4/3 189/4/3
f 187/4/4 186/4/4 192/4/4 191/4/4
f 185/4/5 189/4/5 192/4/5 186/4/5
f 188/4/6 187/4/6 191/4/6 190/4/6
f 193/5/2 194/5/2 195/5/2 196/5/2 197/5/2 198/5/2
f 199/5/1 200/5/1 201/5/1 202/5/1 203/5/1 204/5/1
f 198/5/9 197/5/9 200/5/9 199/5/9
f 197/5/3 196/5/3 201/5/3 200/5/3
f 196/5/10 195/5/10 202/5/10 201/5/10
f 195/5/11 194/5/11 203/5/11 202/5/11
f 194/5/4 193/5/4 204/5/4 203/5/4
f 193/5/12 198/5/12 199/5/12 204/5/12
f 205/5/3 206/5/3 207/5/3 208/5/3 209/5/3 210/5/3
f 211/5/4 212/5/4 213/5/4 214/5/4 215/5/4 216/5/4
f 210/5/13 209/5/13 212/5/13 211/5/13
f 209/5/1 208/5/1 213/5/1 212/5/1
f 208/5/14 207/5/14 214/5/14 213/5/14
f 207/5/15 206/5/15 215/5/15 214/5/15
f 206/5/2 205/5/2 216/5/2 215/5/2
f 205/5/16 210/5/16 211/5/16 216/5/16
f 217/5/3 218/5/3 219/5/3 220/5/3 221/5/3 222/5/3
f 223/5/4 224/5/4 225/5/4 226/5/4 227/5/4 228/5/4
f 222/5/13 221/5/13 224/5/13 223/5/13
f 221/5/1 220/5/1 225/5/1 224/5/1
f 220/5/14 219/5/14 226/5/14 225/5/14
f 219/5/15 218/5/15 227/5/15 226/5/15
f 218/5/2 217/5/2 228/5/2 227/5/2
f 217/5/16 222/5/16 223/5/16 228/5/16
f 229/3/1 230/3/1 231/3/1 232/3/1
f 233/3/2 234/3/2 235/3/2 236/3/2
f 229/3/3 232/3/3 234/3/3 233/3/3
f 231/3/4 230/3/4 236/3/4 235/3/4
f 229/3/5 233/3/5 236/3/5 230/3/5
f 232/3/6 231/3/6 235/3/6 234/3/6
f 237/3/4 238/3/4 239/3/4 240/3/4
f 241/3/3 242/3/3 243/3/3 244/3/3
f 240/3/7 239/3/7 242/3/7 241/3/7
f 239/3/6 238/3/6 243/3/6 242/3/6
f 238/3/8 237/3/8 244/3/8 243/3/8
f 237/3/5 240/3/5 241/3/5 244/3/5
f 245/3/4 246/3/4 247/3/4 248/3/4
f 249/3/3 250/3/3 251/3/3 252/3/3
f 248/3/7 247/3/7 250/3/7 249/3/7
f 247/3/6 246/3/6 251/3/6 250/3/6
f 246/3/8 245/3/8 252/3/8 251/3/8
f 245/3/5 248/3/5 249/3/5 252/3/5
f 253/3/4 254/3/4 255/3/4 256/3/4
f 257/3/3 258/3/3 259/3/3 260/3/3
f 256/3/7 255/3/7 258/3/7 257/3/7
f 255/3/6 254/3/6 259/3/6 258/3/6
f 254/3/8 253/3/8 260/3/8 259/3/8
f 253/3/5 256/3/5 257/3/5 260/3/5
f 261/3/4 262/3/4 263/3/4 264/3/4
f 265/3/3 266/3/3 267/3/3 268/3/3
f 264/3/7 263/3/7 266/3/7 265/3/7
f 263/3/6 262/3/6 267/3/6 266/3/6
f 262/3/8 261/3/8 268/3/8 267/3/8
f 261/3/5 264/3/5 265/3/5 268/3/5
f 269/4/1 270/4/1 271/4/1 272/4/1
f 273/4/2 274/4/2 275/4/2 276/4/2
f 269/4/3 272/4/3 274/4/3 273/4/3
f 271/4/4 270/4/4 276/4/4 275/4/4
f 269/4/5 273/4/5 276/4/5 270/4/5
f 272/4/6 271/4/6 275/4/6 274/4/6
f 277/5/2 278/5/2 279/5/2 280/5/2 281/5/2 282/5/2
f 283/5/1 284/5/1 285/5/1 286/5/1 287/5/1 288/5/1
f 282/5/9 281/5/9 284/5/9 283/5/9
f 281/5/3 280/5/3 285/5/3 284/5/3
f 280/5/10 279/5/10 286/5/10 285/5/10
f 279/5/11 278/5/11 287/5/11 286/5/11
f 278/5/4 277/5/4 288/5/4 287/5/4
f 277/5/12 282/5/12 283/5/12 288/5/12
f 289/5/3 290/5/3 291/5/3 292/5/3 293/5/3 294/5/3
f 295/5/4 296/5/4 297/5/4 298/5/4 299/5/4 300/5/4
f 294/5/13 293/5/13 296/5/13 295/5/13
f 293/5/1 292/5/1 297/5/1 296/5/1
f 292/5/14 291/5/14 298/5/14 297/5/14
f 291/5/15 290/5/15 299/5/15 298/5/15
f 290/5/2 289/5/2 300/5/2 299/5/2
f 289/5/16 294/5/16 295/5/16 300/5/16
f 301/5/3 302/5/3 303/5/3 304/5/3 305/5/3 306/5/3
f 307/5/4 308/5/4 309/5/4 310/5/4 311/5/4 312/5/4
f 306/5/13 305/5/13 308/5/13 307/5/13
f 305/5/1 304/5/1 309/5/1 308/5/1
f 304/5/14 303/5/14 310/5/14 309/5/14
f 303/5/15 302/5/15 311/5/15 310/5/15
f 302/5/2 301/5/2 312/5/2 311/5/2
f 301/5/16 306/5/16 307/5/16 312/5/16
