# Blender 5.2.0 LTS
# www.blender.org
mtllib FN_Lamp_Floor.mtl
o FN_Lamp_Floor
v 0.133148 0.000000 0.043262
v 0.113262 0.000000 0.082290
v 0.082290 0.000000 0.113262
v 0.043262 0.000000 0.133148
v -0.000000 0.000000 0.140000
v -0.043262 0.000000 0.133148
v -0.082290 0.000000 0.113262
v -0.113262 0.000000 0.082290
v -0.133148 0.000000 0.043262
v -0.140000 0.000000 -0.000000
v -0.133148 0.000000 -0.043262
v -0.113262 0.000000 -0.082290
v -0.082290 0.000000 -0.113262
v -0.043262 0.000000 -0.133148
v 0.000000 0.000000 -0.140000
v 0.043262 0.000000 -0.133148
v 0.082290 0.000000 -0.113262
v 0.113262 0.000000 -0.082290
v 0.133148 0.000000 -0.043262
v 0.140000 0.000000 0.000000
v 0.030000 0.022000 0.000000
v 0.028532 0.022000 -0.009271
v 0.024271 0.022000 -0.017634
v 0.017634 0.022000 -0.024271
v 0.009271 0.022000 -0.028532
v 0.000000 0.022000 -0.030000
v -0.009271 0.022000 -0.028532
v -0.017634 0.022000 -0.024271
v -0.024271 0.022000 -0.017634
v -0.028532 0.022000 -0.009271
v -0.030000 0.022000 -0.000000
v -0.028532 0.022000 0.009271
v -0.024271 0.022000 0.017634
v -0.017634 0.022000 0.024271
v -0.009271 0.022000 0.028532
v -0.000000 0.022000 0.030000
v 0.009271 0.022000 0.028532
v 0.017634 0.022000 0.024271
v 0.024271 0.022000 0.017634
v 0.028532 0.022000 0.009271
v 0.133148 0.004000 -0.043262
v 0.140000 0.004000 0.000000
v 0.113262 0.004000 -0.082290
v 0.082290 0.004000 -0.113262
v 0.043262 0.004000 -0.133148
v 0.000000 0.004000 -0.140000
v -0.043262 0.004000 -0.133148
v -0.082290 0.004000 -0.113262
v -0.113262 0.004000 -0.082290
v -0.133148 0.004000 -0.043262
v -0.140000 0.004000 -0.000000
v -0.133148 0.004000 0.043262
v -0.113262 0.004000 0.082290
v -0.082290 0.004000 0.113262
v -0.043262 0.004000 0.133148
v -0.000000 0.004000 0.140000
v 0.043262 0.004000 0.133148
v 0.082290 0.004000 0.113262
v 0.113262 0.004000 0.082290
v 0.133148 0.004000 0.043262
v 0.133148 0.017000 -0.043262
v 0.140000 0.017000 0.000000
v 0.113262 0.017000 -0.082290
v 0.082290 0.017000 -0.113262
v 0.043262 0.017000 -0.133148
v 0.000000 0.017000 -0.140000
v -0.043262 0.017000 -0.133148
v -0.082290 0.017000 -0.113262
v -0.113262 0.017000 -0.082290
v -0.133148 0.017000 -0.043262
v -0.140000 0.017000 -0.000000
v -0.133148 0.017000 0.043262
v -0.113262 0.017000 0.082290
v -0.082290 0.017000 0.113262
v -0.043262 0.017000 0.133148
v -0.000000 0.017000 0.140000
v 0.043262 0.017000 0.133148
v 0.082290 0.017000 0.113262
v 0.113262 0.017000 0.082290
v 0.133148 0.017000 0.043262
v 0.125539 0.022000 -0.040790
v 0.132000 0.022000 0.000000
v 0.106790 0.022000 -0.077588
v 0.077588 0.022000 -0.106790
v 0.040790 0.022000 -0.125539
v 0.000000 0.022000 -0.132000
v -0.040790 0.022000 -0.125539
v -0.077588 0.022000 -0.106790
v -0.106790 0.022000 -0.077588
v -0.125539 0.022000 -0.040790
v -0.132000 0.022000 -0.000000
v -0.125539 0.022000 0.040790
v -0.106790 0.022000 0.077588
v -0.077588 0.022000 0.106790
v -0.040790 0.022000 0.125539
v -0.000000 0.022000 0.132000
v 0.040790 0.022000 0.125539
v 0.077588 0.022000 0.106790
v 0.106790 0.022000 0.077588
v 0.125539 0.022000 0.040790
v 0.022517 0.020000 0.013000
v 0.013000 0.020000 0.022517
v -0.000000 0.020000 0.026000
v -0.013000 0.020000 0.022517
v -0.022517 0.020000 0.013000
v -0.026000 0.020000 -0.000000
v -0.022517 0.020000 -0.013000
v -0.013000 0.020000 -0.022517
v 0.000000 0.020000 -0.026000
v 0.013000 0.020000 -0.022517
v 0.022517 0.020000 -0.013000
v 0.026000 0.020000 0.000000
v 0.016000 1.338000 0.000000
v 0.013856 1.338000 -0.008000
v 0.008000 1.338000 -0.013856
v 0.000000 1.338000 -0.016000
v -0.008000 1.338000 -0.013856
v -0.013856 1.338000 -0.008000
v -0.016000 1.338000 -0.000000
v -0.013856 1.338000 0.008000
v -0.008000 1.338000 0.013856
v -0.000000 1.338000 0.016000
v 0.008000 1.338000 0.013856
v 0.013856 1.338000 0.008000
v 0.022517 0.040000 -0.013000
v 0.026000 0.040000 0.000000
v 0.013000 0.040000 -0.022517
v 0.000000 0.040000 -0.026000
v -0.013000 0.040000 -0.022517
v -0.022517 0.040000 -0.013000
v -0.026000 0.040000 -0.000000
v -0.022517 0.040000 0.013000
v -0.013000 0.040000 0.022517
v -0.000000 0.040000 0.026000
v 0.013000 0.040000 0.022517
v 0.022517 0.040000 0.013000
v 0.009526 0.048000 -0.005500
v 0.011000 0.048000 0.000000
v 0.005500 0.048000 -0.009526
v 0.000000 0.048000 -0.011000
v -0.005500 0.048000 -0.009526
v -0.009526 0.048000 -0.005500
v -0.011000 0.048000 -0.000000
v -0.009526 0.048000 0.005500
v -0.005500 0.048000 0.009526
v -0.000000 0.048000 0.011000
v 0.005500 0.048000 0.009526
v 0.009526 0.048000 0.005500
v 0.009526 1.316000 -0.005500
v 0.011000 1.316000 0.000000
v 0.005500 1.316000 -0.009526
v 0.000000 1.316000 -0.011000
v -0.005500 1.316000 -0.009526
v -0.009526 1.316000 -0.005500
v -0.011000 1.316000 -0.000000
v -0.009526 1.316000 0.005500
v -0.005500 1.316000 0.009526
v -0.000000 1.316000 0.011000
v 0.005500 1.316000 0.009526
v 0.009526 1.316000 0.005500
v 0.010517 0.860000 0.007641
v 0.004017 0.860000 0.012364
v -0.004017 0.860000 0.012364
v -0.010517 0.860000 0.007641
v -0.013000 0.860000 -0.000000
v -0.010517 0.860000 -0.007641
v -0.004017 0.860000 -0.012364
v 0.004017 0.860000 -0.012364
v 0.010517 0.860000 -0.007641
v 0.013000 0.860000 0.000000
v 0.013000 0.914000 0.000000
v 0.010517 0.914000 -0.007641
v 0.004017 0.914000 -0.012364
v -0.004017 0.914000 -0.012364
v -0.010517 0.914000 -0.007641
v -0.013000 0.914000 -0.000000
v -0.010517 0.914000 0.007641
v -0.004017 0.914000 0.012364
v 0.004017 0.914000 0.012364
v 0.010517 0.914000 0.007641
v 0.015371 0.868000 -0.011168
v 0.019000 0.868000 0.000000
v 0.005871 0.868000 -0.018070
v -0.005871 0.868000 -0.018070
v -0.015371 0.868000 -0.011168
v -0.019000 0.868000 -0.000000
v -0.015371 0.868000 0.011168
v -0.005871 0.868000 0.018070
v 0.005871 0.868000 0.018070
v 0.015371 0.868000 0.011168
v 0.015371 0.906000 -0.011168
v 0.019000 0.906000 0.000000
v 0.005871 0.906000 -0.018070
v -0.005871 0.906000 -0.018070
v -0.015371 0.906000 -0.011168
v -0.019000 0.906000 -0.000000
v -0.015371 0.906000 0.011168
v -0.005871 0.906000 0.018070
v 0.005871 0.906000 0.018070
v 0.015371 0.906000 0.011168
v 0.188000 1.286000 0.000000
v 0.178799 1.286000 -0.058095
v 0.205428 1.560000 -0.066748
v 0.216000 1.560000 0.000000
v 0.152095 1.286000 -0.110504
v 0.174748 1.560000 -0.126962
v 0.110504 1.286000 -0.152095
v 0.126962 1.560000 -0.174748
v 0.058095 1.286000 -0.178799
v 0.066748 1.560000 -0.205428
v 0.000000 1.286000 -0.188000
v 0.000000 1.560000 -0.216000
v -0.058095 1.286000 -0.178799
v -0.066748 1.560000 -0.205428
v -0.110504 1.286000 -0.152095
v -0.126962 1.560000 -0.174748
v -0.152095 1.286000 -0.110504
v -0.174748 1.560000 -0.126962
v -0.178799 1.286000 -0.058095
v -0.205428 1.560000 -0.066748
v -0.188000 1.286000 -0.000000
v -0.216000 1.560000 -0.000000
v -0.178799 1.286000 0.058095
v -0.205428 1.560000 0.066748
v -0.152095 1.286000 0.110504
v -0.174748 1.560000 0.126962
v -0.110504 1.286000 0.152095
v -0.126962 1.560000 0.174748
v -0.058095 1.286000 0.178799
v -0.066748 1.560000 0.205428
v -0.000000 1.286000 0.188000
v -0.000000 1.560000 0.216000
v 0.058095 1.286000 0.178799
v 0.066748 1.560000 0.205428
v 0.110504 1.286000 0.152095
v 0.126962 1.560000 0.174748
v 0.152095 1.286000 0.110504
v 0.174748 1.560000 0.126962
v 0.178799 1.286000 0.058095
v 0.205428 1.560000 0.066748
v 0.174043 1.286000 0.056550
v 0.148050 1.286000 0.107565
v 0.170703 1.560000 0.124023
v 0.200673 1.560000 0.065203
v 0.107565 1.286000 0.148050
v 0.124023 1.560000 0.170703
v 0.056550 1.286000 0.174043
v 0.065203 1.560000 0.200673
v -0.000000 1.286000 0.183000
v -0.000000 1.560000 0.211000
v -0.056550 1.286000 0.174043
v -0.065203 1.560000 0.200673
v -0.107565 1.286000 0.148050
v -0.124023 1.560000 0.170703
v -0.148050 1.286000 0.107565
v -0.170703 1.560000 0.124023
v -0.174043 1.286000 0.056550
v -0.200673 1.560000 0.065203
v -0.183000 1.286000 -0.000000
v -0.211000 1.560000 -0.000000
v -0.174043 1.286000 -0.056550
v -0.200673 1.560000 -0.065203
v -0.148050 1.286000 -0.107565
v -0.170703 1.560000 -0.124023
v -0.107565 1.286000 -0.148050
v -0.124023 1.560000 -0.170703
v -0.056550 1.286000 -0.174043
v -0.065203 1.560000 -0.200673
v 0.000000 1.286000 -0.183000
v 0.000000 1.560000 -0.211000
v 0.056550 1.286000 -0.174043
v 0.065203 1.560000 -0.200673
v 0.107565 1.286000 -0.148050
v 0.124023 1.560000 -0.170703
v 0.148050 1.286000 -0.107565
v 0.170703 1.560000 -0.124023
v 0.174043 1.286000 -0.056550
v 0.200673 1.560000 -0.065203
v 0.183000 1.286000 0.000000
v 0.211000 1.560000 0.000000
v 0.158000 1.338000 0.000000
v 0.150267 1.338000 -0.048825
v 0.127825 1.338000 -0.092870
v 0.092870 1.338000 -0.127825
v 0.048825 1.338000 -0.150267
v 0.000000 1.338000 -0.158000
v -0.048825 1.338000 -0.150267
v -0.092870 1.338000 -0.127825
v -0.127825 1.338000 -0.092870
v -0.150267 1.338000 -0.048825
v -0.158000 1.338000 -0.000000
v -0.150267 1.338000 0.048825
v -0.127825 1.338000 0.092870
v -0.092870 1.338000 0.127825
v -0.048825 1.338000 0.150267
v -0.000000 1.338000 0.158000
v 0.048825 1.338000 0.150267
v 0.092870 1.338000 0.127825
v 0.127825 1.338000 0.092870
v 0.150267 1.338000 0.048825
vn -0.0000 -1.0000 -0.0000
vn -0.0000 1.0000 -0.0000
vn 0.9877 -0.0000 -0.1564
vn 0.8910 -0.0000 -0.4540
vn 0.7071 -0.0000 -0.7071
vn 0.4540 -0.0000 -0.8910
vn 0.1564 -0.0000 -0.9877
vn -0.1564 -0.0000 -0.9877
vn -0.4540 -0.0000 -0.8910
vn -0.7071 -0.0000 -0.7071
vn -0.8910 -0.0000 -0.4540
vn -0.9877 -0.0000 -0.1564
vn -0.9877 -0.0000 0.1564
vn -0.8910 -0.0000 0.4540
vn -0.7071 -0.0000 0.7071
vn -0.4540 -0.0000 0.8910
vn -0.1564 -0.0000 0.9877
vn 0.1564 -0.0000 0.9877
vn 0.4540 -0.0000 0.8910
vn 0.7071 -0.0000 0.7071
vn 0.8910 -0.0000 0.4540
vn 0.9877 -0.0000 0.1564
vn 0.5281 0.8450 -0.0836
vn 0.4764 0.8450 -0.2428
vn 0.3781 0.8450 -0.3781
vn 0.2428 0.8450 -0.4764
vn 0.0836 0.8450 -0.5281
vn -0.0836 0.8450 -0.5281
vn -0.2428 0.8450 -0.4764
vn -0.3781 0.8450 -0.3781
vn -0.4764 0.8450 -0.2428
vn -0.5281 0.8450 -0.0836
vn -0.5281 0.8450 0.0836
vn -0.4764 0.8450 0.2428
vn -0.3781 0.8450 0.3781
vn -0.2428 0.8450 0.4764
vn -0.0836 0.8450 0.5281
vn 0.0836 0.8450 0.5281
vn 0.2428 0.8450 0.4764
vn 0.3781 0.8450 0.3781
vn 0.4764 0.8450 0.2428
vn 0.5281 0.8450 0.0836
vn 0.9659 -0.0000 -0.2588
vn 0.2588 -0.0000 -0.9659
vn -0.2588 -0.0000 -0.9659
vn -0.9659 -0.0000 -0.2588
vn -0.9659 -0.0000 0.2588
vn -0.2588 -0.0000 0.9659
vn 0.2588 -0.0000 0.9659
vn 0.9659 -0.0000 0.2588
vn 0.4669 0.8754 -0.1251
vn 0.3418 0.8754 -0.3418
vn 0.1251 0.8754 -0.4669
vn -0.1251 0.8754 -0.4669
vn -0.3418 0.8754 -0.3418
vn -0.4669 0.8754 -0.1251
vn -0.4669 0.8754 0.1251
vn -0.3418 0.8754 0.3418
vn -0.1251 0.8754 0.4669
vn 0.1251 0.8754 0.4669
vn 0.3418 0.8754 0.3418
vn 0.4669 0.8754 0.1251
vn 0.9435 -0.2144 -0.2528
vn 0.6907 -0.2144 -0.6907
vn 0.2528 -0.2144 -0.9435
vn -0.2528 -0.2144 -0.9435
vn -0.6907 -0.2144 -0.6907
vn -0.9435 -0.2144 -0.2528
vn -0.9435 -0.2144 0.2528
vn -0.6907 -0.2144 0.6907
vn -0.2528 -0.2144 0.9435
vn 0.2528 -0.2144 0.9435
vn 0.6907 -0.2144 0.6907
vn 0.9435 -0.2144 0.2528
vn 0.7743 -0.5807 -0.2516
vn 0.4785 -0.5807 -0.6586
vn -0.0000 -0.5807 -0.8141
vn -0.4785 -0.5807 -0.6586
vn -0.7743 -0.5807 -0.2516
vn -0.7743 -0.5807 0.2516
vn -0.4785 -0.5807 0.6586
vn -0.0000 -0.5807 0.8141
vn 0.4785 -0.5807 0.6586
vn 0.7743 -0.5807 0.2516
vn 0.9511 -0.0000 -0.3090
vn 0.5878 -0.0000 -0.8090
vn -0.0000 -0.0000 -1.0000
vn -0.5878 -0.0000 -0.8090
vn -0.9511 -0.0000 -0.3090
vn -0.9511 -0.0000 0.3090
vn -0.5878 -0.0000 0.8090
vn -0.0000 -0.0000 1.0000
vn 0.5878 -0.0000 0.8090
vn 0.9511 -0.0000 0.3090
vn 0.7743 0.5807 -0.2516
vn 0.4785 0.5807 -0.6586
vn -0.0000 0.5807 -0.8141
vn -0.4785 0.5807 -0.6586
vn -0.7743 0.5807 -0.2516
vn -0.7743 0.5807 0.2516
vn -0.4785 0.5807 0.6586
vn -0.0000 0.5807 0.8141
vn 0.4785 0.5807 0.6586
vn 0.7743 0.5807 0.2516
vn 0.9827 -0.1004 -0.1556
vn 0.8865 -0.1004 -0.4517
vn 0.7035 -0.1004 -0.7035
vn 0.4517 -0.1004 -0.8865
vn 0.1556 -0.1004 -0.9827
vn -0.1556 -0.1004 -0.9827
vn -0.4517 -0.1004 -0.8865
vn -0.7035 -0.1004 -0.7035
vn -0.8865 -0.1004 -0.4517
vn -0.9827 -0.1004 -0.1556
vn -0.9827 -0.1004 0.1556
vn -0.8865 -0.1004 0.4517
vn -0.7035 -0.1004 0.7035
vn -0.4517 -0.1004 0.8865
vn -0.1556 -0.1004 0.9827
vn 0.1556 -0.1004 0.9827
vn 0.4517 -0.1004 0.8865
vn 0.7035 -0.1004 0.7035
vn 0.8865 -0.1004 0.4517
vn 0.9827 -0.1004 0.1556
vn -0.8865 0.1004 -0.4517
vn -0.7035 0.1004 -0.7035
vn -0.4517 0.1004 -0.8865
vn -0.1556 0.1004 -0.9827
vn 0.1556 0.1004 -0.9827
vn 0.4517 0.1004 -0.8865
vn 0.7035 0.1004 -0.7035
vn 0.8865 0.1004 -0.4517
vn 0.9827 0.1004 -0.1556
vn 0.9827 0.1004 0.1556
vn 0.8865 0.1004 0.4517
vn 0.7035 0.1004 0.7035
vn 0.4517 0.1004 0.8865
vn 0.1556 0.1004 0.9827
vn -0.1556 0.1004 0.9827
vn -0.4517 0.1004 0.8865
vn -0.7035 0.1004 0.7035
vn -0.8865 0.1004 0.4517
vn -0.9827 0.1004 0.1556
vn -0.9827 0.1004 -0.1556
vt 0.812500 0.312500
vt 0.437500 0.312500
vt 0.187500 0.687500
vt 0.062500 0.687500
vt 0.812500 0.062500
s 0
usemtl FN_Atlas
f 1/1/1 2/1/1 3/1/1 4/1/1 5/1/1 6/1/1 7/1/1 8/1/1 9/1/1 10/1/1 11/1/1 12/1/1 13/1/1 14/1/1 15/1/1 16/1/1 17/1/1 18/1/1 19/1/1 20/1/1
f 21/1/2 22/1/2 23/1/2 24/1/2 25/1/2 26/1/2 27/1/2 28/1/2 29/1/2 30/1/2 31/1/2 32/1/2 33/1/2 34/1/2 35/1/2 36/1/2 37/1/2 38/1/2 39/1/2 40/1/2
f 20/1/3 19/1/3 41/1/3 42/1/3
f 19/1/4 18/1/4 43/1/4 41/1/4
f 18/1/5 17/1/5 44/1/5 43/1/5
f 17/1/6 16/1/6 45/1/6 44/1/6
f 16/1/7 15/1/7 46/1/7 45/1/7
f 15/1/8 14/1/8 47/1/8 46/1/8
f 14/1/9 13/1/9 48/1/9 47/1/9
f 13/1/10 12/1/10 49/1/10 48/1/10
f 12/1/11 11/1/11 50/1/11 49/1/11
f 11/1/12 10/1/12 51/1/12 50/1/12
f 10/1/13 9/1/13 52/1/13 51/1/13
f 9/1/14 8/1/14 53/1/14 52/1/14
f 8/1/15 7/1/15 54/1/15 53/1/15
f 7/1/16 6/1/16 55/1/16 54/1/16
f 6/1/17 5/1/17 56/1/17 55/1/17
f 5/1/18 4/1/18 57/1/18 56/1/18
f 4/1/19 3/1/19 58/1/19 57/1/19
f 3/1/20 2/1/20 59/1/20 58/1/20
f 2/1/21 1/1/21 60/1/21 59/1/21
f 1/1/22 20/1/22 42/1/22 60/1/22
f 42/1/3 41/1/3 61/1/3 62/1/3
f 41/1/4 43/1/4 63/1/4 61/1/4
f 43/1/5 44/1/5 64/1/5 63/1/5
f 44/1/6 45/1/6 65/1/6 64/1/6
f 45/1/7 46/1/7 66/1/7 65/1/7
f 46/1/8 47/1/8 67/1/8 66/1/8
f 47/1/9 48/1/9 68/1/9 67/1/9
f 48/1/10 49/1/10 69/1/10 68/1/10
f 49/1/11 50/1/11 70/1/11 69/1/11
f 50/1/12 51/1/12 71/1/12 70/1/12
f 51/1/13 52/1/13 72/1/13 71/1/13
f 52/1/14 53/1/14 73/1/14 72/1/14
f 53/1/15 54/1/15 74/1/15 73/1/15
f 54/1/16 55/1/16 75/1/16 74/1/16
f 55/1/17 56/1/17 76/1/17 75/1/17
f 56/1/18 57/1/18 77/1/18 76/1/18
f 57/1/19 58/1/19 78/1/19 77/1/19
f 58/1/20 59/1/20 79/1/20 78/1/20
f 59/1/21 60/1/21 80/1/21 79/1/21
f 60/1/22 42/1/22 62/1/22 80/1/22
f 62/1/23 61/1/23 81/1/23 82/1/23
f 61/1/24 63/1/24 83/1/24 81/1/24
f 63/1/25 64/1/25 84/1/25 83/1/25
f 64/1/26 65/1/26 85/1/26 84/1/26
f 65/1/27 66/1/27 86/1/27 85/1/27
f 66/1/28 67/1/28 87/1/28 86/1/28
f 67/1/29 68/1/29 88/1/29 87/1/29
f 68/1/30 69/1/30 89/1/30 88/1/30
f 69/1/31 70/1/31 90/1/31 89/1/31
f 70/1/32 71/1/32 91/1/32 90/1/32
f 71/1/33 72/1/33 92/1/33 91/1/33
f 72/1/34 73/1/34 93/1/34 92/1/34
f 73/1/35 74/1/35 94/1/35 93/1/35
f 74/1/36 75/1/36 95/1/36 94/1/36
f 75/1/37 76/1/37 96/1/37 95/1/37
f 76/1/38 77/1/38 97/1/38 96/1/38
f 77/1/39 78/1/39 98/1/39 97/1/39
f 78/1/40 79/1/40 99/1/40 98/1/40
f 79/1/41 80/1/41 100/1/41 99/1/41
f 80/1/42 62/1/42 82/1/42 100/1/42
f 82/1/2 81/1/2 22/1/2 21/1/2
f 81/1/2 83/1/2 23/1/2 22/1/2
f 83/1/2 84/1/2 24/1/2 23/1/2
f 84/1/2 85/1/2 25/1/2 24/1/2
f 85/1/2 86/1/2 26/1/2 25/1/2
f 86/1/2 87/1/2 27/1/2 26/1/2
f 87/1/2 88/1/2 28/1/2 27/1/2
f 88/1/2 89/1/2 29/1/2 28/1/2
f 89/1/2 90/1/2 30/1/2 29/1/2
f 90/1/2 91/1/2 31/1/2 30/1/2
f 91/1/2 92/1/2 32/1/2 31/1/2
f 92/1/2 93/1/2 33/1/2 32/1/2
f 93/1/2 94/1/2 34/1/2 33/1/2
f 94/1/2 95/1/2 35/1/2 34/1/2
f 95/1/2 96/1/2 36/1/2 35/1/2
f 96/1/2 97/1/2 37/1/2 36/1/2
f 97/1/2 98/1/2 38/1/2 37/1/2
f 98/1/2 99/1/2 39/1/2 38/1/2
f 99/1/2 100/1/2 40/1/2 39/1/2
f 100/1/2 82/1/2 21/1/2 40/1/2
f 101/2/1 102/2/1 103/2/1 104/2/1 105/2/1 106/2/1 107/2/1 108/2/1 109/2/1 110/2/1 111/2/1 112/2/1
f 113/2/2 114/2/2 115/2/2 116/2/2 117/2/2 118/2/2 119/2/2 120/2/2 121/2/2 122/2/2 123/2/2 124/2/2
f 112/2/43 111/2/43 125/2/43 126/2/43
f 111/2/5 110/2/5 127/2/5 125/2/5
f 110/2/44 109/2/44 128/2/44 127/2/44
f 109/2/45 108/2/45 129/2/45 128/2/45
f 108/2/10 107/2/10 130/2/10 129/2/10
f 107/2/46 106/2/46 131/2/46 130/2/46
f 106/2/47 105/2/47 132/2/47 131/2/47
f 105/2/15 104/2/15 133/2/15 132/2/15
f 104/2/48 103/2/48 134/2/48 133/2/48
f 103/2/49 102/2/49 135/2/49 134/2/49
f 102/2/20 101/2/20 136/2/20 135/2/20
f 101/2/50 112/2/50 126/2/50 136/2/50
f 126/2/51 125/2/51 137/2/51 138/2/51
f 125/2/52 127/2/52 139/2/52 137/2/52
f 127/2/53 128/2/53 140/2/53 139/2/53
f 128/2/54 129/2/54 141/2/54 140/2/54
f 129/2/55 130/2/55 142/2/55 141/2/55
f 130/2/56 131/2/56 143/2/56 142/2/56
f 131/2/57 132/2/57 144/2/57 143/2/57
f 132/2/58 133/2/58 145/2/58 144/2/58
f 133/2/59 134/2/59 146/2/59 145/2/59
f 134/2/60 135/2/60 147/2/60 146/2/60
f 135/2/61 136/2/61 148/2/61 147/2/61
f 136/2/62 126/2/62 138/2/62 148/2/62
f 138/2/43 137/2/43 149/2/43 150/2/43
f 137/2/5 139/2/5 151/2/5 149/2/5
f 139/2/44 140/2/44 152/2/44 151/2/44
f 140/2/45 141/2/45 153/2/45 152/2/45
f 141/2/10 142/2/10 154/2/10 153/2/10
f 142/2/46 143/2/46 155/2/46 154/2/46
f 143/2/47 144/2/47 156/2/47 155/2/47
f 144/2/15 145/2/15 157/2/15 156/2/15
f 145/2/48 146/2/48 158/2/48 157/2/48
f 146/2/49 147/2/49 159/2/49 158/2/49
f 147/2/20 148/2/20 160/2/20 159/2/20
f 148/2/50 138/2/50 150/2/50 160/2/50
f 150/2/63 149/2/63 114/2/63 113/2/63
f 149/2/64 151/2/64 115/2/64 114/2/64
f 151/2/65 152/2/65 116/2/65 115/2/65
f 152/2/66 153/2/66 117/2/66 116/2/66
f 153/2/67 154/2/67 118/2/67 117/2/67
f 154/2/68 155/2/68 119/2/68 118/2/68
f 155/2/69 156/2/69 120/2/69 119/2/69
f 156/2/70 157/2/70 121/2/70 120/2/70
f 157/2/71 158/2/71 122/2/71 121/2/71
f 158/2/72 159/2/72 123/2/72 122/2/72
f 159/2/73 160/2/73 124/2/73 123/2/73
f 160/2/74 150/2/74 113/2/74 124/2/74
f 161/2/1 162/2/1 163/2/1 164/2/1 165/2/1 166/2/1 167/2/1 168/2/1 169/2/1 170/2/1
f 171/2/2 172/2/2 173/2/2 174/2/2 175/2/2 176/2/2 177/2/2 178/2/2 179/2/2 180/2/2
f 170/2/75 169/2/75 181/2/75 182/2/75
f 169/2/76 168/2/76 183/2/76 181/2/76
f 168/2/77 167/2/77 184/2/77 183/2/77
f 167/2/78 166/2/78 185/2/78 184/2/78
f 166/2/79 165/2/79 186/2/79 185/2/79
f 165/2/80 164/2/80 187/2/80 186/2/80
f 164/2/81 163/2/81 188/2/81 187/2/81
f 163/2/82 162/2/82 189/2/82 188/2/82
f 162/2/83 161/2/83 190/2/83 189/2/83
f 161/2/84 170/2/84 182/2/84 190/2/84
f 182/2/85 181/2/85 191/2/85 192/2/85
f 181/2/86 183/2/86 193/2/86 191/2/86
f 183/2/87 184/2/87 194/2/87 193/2/87
f 184/2/88 185/2/88 195/2/88 194/2/88
f 185/2/89 186/2/89 196/2/89 195/2/89
f 186/2/90 187/2/90 197/2/90 196/2/90
f 187/2/91 188/2/91 198/2/91 197/2/91
f 188/2/92 189/2/92 199/2/92 198/2/92
f 189/2/93 190/2/93 200/2/93 199/2/93
f 190/2/94 182/2/94 192/2/94 200/2/94
f 192/2/95 191/2/95 172/2/95 171/2/95
f 191/2/96 193/2/96 173/2/96 172/2/96
f 193/2/97 194/2/97 174/2/97 173/2/97
f 194/2/98 195/2/98 175/2/98 174/2/98
f 195/2/99 196/2/99 176/2/99 175/2/99
f 196/2/100 197/2/100 177/2/100 176/2/100
f 197/2/101 198/2/101 178/2/101 177/2/101
f 198/2/102 199/2/102 179/2/102 178/2/102
f 199/2/103 200/2/103 180/2/103 179/2/103
f 200/2/104 192/2/104 171/2/104 180/2/104
f 201/3/105 202/3/105 203/3/105 204/3/105
f 202/3/106 205/3/106 206/3/106 203/3/106
f 205/3/107 207/3/107 208/3/107 206/3/107
f 207/3/108 209/3/108 210/3/108 208/3/108
f 209/3/109 211/3/109 212/3/109 210/3/109
f 211/3/110 213/3/110 214/3/110 212/3/110
f 213/3/111 215/3/111 216/3/111 214/3/111
f 215/3/112 217/3/112 218/3/112 216/3/112
f 217/3/113 219/3/113 220/3/113 218/3/113
f 219/3/114 221/3/114 222/3/114 220/3/114
f 221/3/115 223/3/115 224/3/115 222/3/115
f 223/3/116 225/3/116 226/3/116 224/3/116
f 225/3/117 227/3/117 228/3/117 226/3/117
f 227/3/118 229/3/118 230/3/118 228/3/118
f 229/3/119 231/3/119 232/3/119 230/3/119
f 231/3/120 233/3/120 234/3/120 232/3/120
f 233/3/121 235/3/121 236/3/121 234/3/121
f 235/3/122 237/3/122 238/3/122 236/3/122
f 237/3/123 239/3/123 240/3/123 238/3/123
f 239/3/124 201/3/124 204/3/124 240/3/124
f 241/4/125 242/4/125 243/4/125 244/4/125
f 242/4/126 245/4/126 246/4/126 243/4/126
f 245/4/127 247/4/127 248/4/127 246/4/127
f 247/4/128 249/4/128 250/4/128 248/4/128
f 249/4/129 251/4/129 252/4/129 250/4/129
f 251/4/130 253/4/130 254/4/130 252/4/130
f 253/4/131 255/4/131 256/4/131 254/4/131
f 255/4/132 257/4/132 258/4/132 256/4/132
f 257/4/133 259/4/133 260/4/133 258/4/133
f 259/4/134 261/4/134 262/4/134 260/4/134
f 261/4/135 263/4/135 264/4/135 262/4/135
f 263/4/136 265/4/136 266/4/136 264/4/136
f 265/4/137 267/4/137 268/4/137 266/4/137
f 267/4/138 269/4/138 270/4/138 268/4/138
f 269/4/139 271/4/139 272/4/139 270/4/139
f 271/4/140 273/4/140 274/4/140 272/4/140
f 273/4/141 275/4/141 276/4/141 274/4/141
f 275/4/142 277/4/142 278/4/142 276/4/142
f 277/4/143 279/4/143 280/4/143 278/4/143
f 279/4/144 241/4/144 244/4/144 280/4/144
f 279/3/1 277/3/1 202/3/1 201/3/1
f 277/3/1 275/3/1 205/3/1 202/3/1
f 275/3/1 273/3/1 207/3/1 205/3/1
f 273/3/1 271/3/1 209/3/1 207/3/1
f 271/3/1 269/3/1 211/3/1 209/3/1
f 269/3/1 267/3/1 213/3/1 211/3/1
f 267/3/1 265/3/1 215/3/1 213/3/1
f 265/3/1 263/3/1 217/3/1 215/3/1
f 263/3/1 261/3/1 219/3/1 217/3/1
f 261/3/1 259/3/1 221/3/1 219/3/1
f 259/3/1 257/3/1 223/3/1 221/3/1
f 257/3/1 255/3/1 225/3/1 223/3/1
f 255/3/1 253/3/1 227/3/1 225/3/1
f 253/3/1 251/3/1 229/3/1 227/3/1
f 251/3/1 249/3/1 231/3/1 229/3/1
f 249/3/1 247/3/1 233/3/1 231/3/1
f 247/3/1 245/3/1 235/3/1 233/3/1
f 245/3/1 242/3/1 237/3/1 235/3/1
f 242/3/1 241/3/1 239/3/1 237/3/1
f 241/3/1 279/3/1 201/3/1 239/3/1
f 204/3/2 203/3/2 278/3/2 280/3/2
f 203/3/2 206/3/2 276/3/2 278/3/2
f 206/3/2 208/3/2 274/3/2 276/3/2
f 208/3/2 210/3/2 272/3/2 274/3/2
f 210/3/2 212/3/2 270/3/2 272/3/2
f 212/3/2 214/3/2 268/3/2 270/3/2
f 214/3/2 216/3/2 266/3/2 268/3/2
f 216/3/2 218/3/2 264/3/2 266/3/2
f 218/3/2 220/3/2 262/3/2 264/3/2
f 220/3/2 222/3/2 260/3/2 262/3/2
f 222/3/2 224/3/2 258/3/2 260/3/2
f 224/3/2 226/3/2 256/3/2 258/3/2
f 226/3/2 228/3/2 254/3/2 256/3/2
f 228/3/2 230/3/2 252/3/2 254/3/2
f 230/3/2 232/3/2 250/3/2 252/3/2
f 232/3/2 234/3/2 248/3/2 250/3/2
f 234/3/2 236/3/2 246/3/2 248/3/2
f 236/3/2 238/3/2 243/3/2 246/3/2
f 238/3/2 240/3/2 244/3/2 243/3/2
f 240/3/2 204/3/2 280/3/2 244/3/2
usemtl FN_Glow
f 281/5/2 282/5/2 283/5/2 284/5/2 285/5/2 286/5/2 287/5/2 288/5/2 289/5/2 290/5/2 291/5/2 292/5/2 293/5/2 294/5/2 295/5/2 296/5/2 297/5/2 298/5/2 299/5/2 300/5/2
