# Blender 5.2.0 LTS
# www.blender.org
mtllib FN_Ladder_Blanket.mtl
o FN_Ladder_Blanket
v -0.235000 1.740000 -0.114000
v -0.235000 1.740000 -0.150000
v -0.235000 0.000000 0.114000
v -0.235000 0.000000 0.150000
v -0.205000 0.000000 0.150000
v -0.205000 0.000000 0.114000
v -0.205000 1.740000 -0.150000
v -0.205000 1.740000 -0.114000
v 0.205000 1.740000 -0.114000
v 0.205000 1.740000 -0.150000
v 0.205000 0.000000 0.114000
v 0.205000 0.000000 0.150000
v 0.235000 0.000000 0.150000
v 0.235000 0.000000 0.114000
v 0.235000 1.740000 -0.150000
v 0.235000 1.740000 -0.114000
v -0.230000 0.346144 0.069379
v -0.230000 0.346144 0.085379
v -0.230000 0.360000 0.093379
v -0.230000 0.373856 0.085379
v -0.230000 0.373856 0.069379
v -0.230000 0.360000 0.061379
v 0.230000 0.360000 0.061379
v 0.230000 0.373856 0.069379
v 0.230000 0.373856 0.085379
v 0.230000 0.360000 0.093379
v 0.230000 0.346144 0.085379
v 0.230000 0.346144 0.069379
v -0.230000 0.676144 0.019310
v -0.230000 0.676144 0.035310
v -0.230000 0.690000 0.043310
v -0.230000 0.703856 0.035310
v -0.230000 0.703856 0.019310
v -0.230000 0.690000 0.011310
v 0.230000 0.690000 0.011310
v 0.230000 0.703856 0.019310
v 0.230000 0.703856 0.035310
v 0.230000 0.690000 0.043310
v 0.230000 0.676144 0.035310
v 0.230000 0.676144 0.019310
v -0.230000 1.006144 -0.030759
v -0.230000 1.006144 -0.014759
v -0.230000 1.020000 -0.006759
v -0.230000 1.033856 -0.014759
v -0.230000 1.033856 -0.030759
v -0.230000 1.020000 -0.038759
v 0.230000 1.020000 -0.038759
v 0.230000 1.033856 -0.030759
v 0.230000 1.033856 -0.014759
v 0.230000 1.020000 -0.006759
v 0.230000 1.006144 -0.014759
v 0.230000 1.006144 -0.030759
v -0.230000 1.336144 -0.080828
v -0.230000 1.336144 -0.064828
v -0.230000 1.350000 -0.056828
v -0.230000 1.363856 -0.064828
v -0.230000 1.363856 -0.080828
v -0.230000 1.350000 -0.088828
v 0.230000 1.350000 -0.088828
v 0.230000 1.363856 -0.080828
v 0.230000 1.363856 -0.064828
v 0.230000 1.350000 -0.056828
v 0.230000 1.336144 -0.064828
v 0.230000 1.336144 -0.080828
v -0.230000 1.666144 -0.130897
v -0.230000 1.666144 -0.114897
v -0.230000 1.680000 -0.106897
v -0.230000 1.693856 -0.114897
v -0.230000 1.693856 -0.130897
v -0.230000 1.680000 -0.138897
v 0.230000 1.680000 -0.138897
v 0.230000 1.693856 -0.130897
v 0.230000 1.693856 -0.114897
v 0.230000 1.680000 -0.106897
v 0.230000 1.666144 -0.114897
v 0.230000 1.666144 -0.130897
v -0.190000 0.170000 0.057310
v -0.190000 0.710000 0.057310
v -0.190000 0.710000 -0.002690
v -0.190000 0.170000 -0.002690
v -0.190000 0.170000 0.013310
v -0.190000 0.684000 0.013310
v -0.190000 0.684000 0.041310
v -0.190000 0.170000 0.041310
v 0.110000 0.170000 0.041310
v 0.110000 0.684000 0.041310
v 0.110000 0.684000 0.013310
v 0.110000 0.170000 0.013310
v 0.110000 0.170000 -0.002690
v 0.110000 0.710000 -0.002690
v 0.110000 0.710000 0.057310
v 0.110000 0.170000 0.057310
v -0.090000 0.910000 -0.042828
v -0.090000 1.370000 -0.042828
v -0.090000 1.370000 -0.102828
v -0.090000 0.910000 -0.102828
v -0.090000 0.910000 -0.086828
v -0.090000 1.344000 -0.086828
v -0.090000 1.344000 -0.058828
v -0.090000 0.910000 -0.058828
v 0.170000 0.910000 -0.058828
v 0.170000 1.344000 -0.058828
v 0.170000 1.344000 -0.086828
v 0.170000 0.910000 -0.086828
v 0.170000 0.910000 -0.102828
v 0.170000 1.370000 -0.102828
v 0.170000 1.370000 -0.042828
v 0.170000 0.910000 -0.042828
vn -1.0000 -0.0000 -0.0000
vn 1.0000 -0.0000 -0.0000
vn -0.0000 -1.0000 -0.0000
vn -0.0000 -0.1500 -0.9887
vn -0.0000 1.0000 -0.0000
vn -0.0000 0.1500 0.9887
vn -0.0000 0.5000 -0.8660
vn -0.0000 0.5000 0.8660
vn -0.0000 -0.5000 0.8660
vn -0.0000 -0.5000 -0.8660
vn -0.0000 -0.0000 1.0000
vn -0.0000 -0.0000 -1.0000
vt 0.812500 0.937500
vt 0.312500 0.687500
vt 0.187500 0.562500
s 0
usemtl FN_Atlas
f 1/1/1 2/1/1 3/1/1 4/1/1
f 5/1/2 6/1/2 7/1/2 8/1/2
f 4/1/3 3/1/3 6/1/3 5/1/3
f 3/1/4 2/1/4 7/1/4 6/1/4
f 2/1/5 1/1/5 8/1/5 7/1/5
f 1/1/6 4/1/6 5/1/6 8/1/6
f 9/1/1 10/1/1 11/1/1 12/1/1
f 13/1/2 14/1/2 15/1/2 16/1/2
f 12/1/3 11/1/3 14/1/3 13/1/3
f 11/1/4 10/1/4 15/1/4 14/1/4
f 10/1/5 9/1/5 16/1/5 15/1/5
f 9/1/6 12/1/6 13/1/6 16/1/6
f 17/1/1 18/1/1 19/1/1 20/1/1 21/1/1 22/1/1
f 23/1/2 24/1/2 25/1/2 26/1/2 27/1/2 28/1/2
f 22/1/7 21/1/7 24/1/7 23/1/7
f 21/1/5 20/1/5 25/1/5 24/1/5
f 20/1/8 19/1/8 26/1/8 25/1/8
f 19/1/9 18/1/9 27/1/9 26/1/9
f 18/1/3 17/1/3 28/1/3 27/1/3
f 17/1/10 22/1/10 23/1/10 28/1/10
f 29/1/1 30/1/1 31/1/1 32/1/1 33/1/1 34/1/1
f 35/1/2 36/1/2 37/1/2 38/1/2 39/1/2 40/1/2
f 34/1/7 33/1/7 36/1/7 35/1/7
f 33/1/5 32/1/5 37/1/5 36/1/5
f 32/1/8 31/1/8 38/1/8 37/1/8
f 31/1/9 30/1/9 39/1/9 38/1/9
f 30/1/3 29/1/3 40/1/3 39/1/3
f 29/1/10 34/1/10 35/1/10 40/1/10
f 41/1/1 42/1/1 43/1/1 44/1/1 45/1/1 46/1/1
f 47/1/2 48/1/2 49/1/2 50/1/2 51/1/2 52/1/2
f 46/1/7 45/1/7 48/1/7 47/1/7
f 45/1/5 44/1/5 49/1/5 48/1/5
f 44/1/8 43/1/8 50/1/8 49/1/8
f 43/1/9 42/1/9 51/1/9 50/1/9
f 42/1/3 41/1/3 52/1/3 51/1/3
f 41/1/10 46/1/10 47/1/10 52/1/10
f 53/1/1 54/1/1 55/1/1 56/1/1 57/1/1 58/1/1
f 59/1/2 60/1/2 61/1/2 62/1/2 63/1/2 64/1/2
f 58/1/7 57/1/7 60/1/7 59/1/7
f 57/1/5 56/1/5 61/1/5 60/1/5
f 56/1/8 55/1/8 62/1/8 61/1/8
f 55/1/9 54/1/9 63/1/9 62/1/9
f 54/1/3 53/1/3 64/1/3 63/1/3
f 53/1/10 58/1/10 59/1/10 64/1/10
f 65/1/1 66/1/1 67/1/1 68/1/1 69/1/1 70/1/1
f 71/1/2 72/1/2 73/1/2 74/1/2 75/1/2 76/1/2
f 70/1/7 69/1/7 72/1/7 71/1/7
f 69/1/5 68/1/5 73/1/5 72/1/5
f 68/1/8 67/1/8 74/1/8 73/1/8
f 67/1/9 66/1/9 75/1/9 74/1/9
f 66/1/3 65/1/3 76/1/3 75/1/3
f 65/1/10 70/1/10 71/1/10 76/1/10
f 77/2/1 78/2/1 79/2/1 80/2/1 81/2/1 82/2/1 83/2/1 84/2/1
f 85/2/2 86/2/2 87/2/2 88/2/2 89/2/2 90/2/2 91/2/2 92/2/2
f 92/2/11 91/2/11 78/2/11 77/2/11
f 91/2/5 90/2/5 79/2/5 78/2/5
f 90/2/12 89/2/12 80/2/12 79/2/12
f 89/2/3 88/2/3 81/2/3 80/2/3
f 81/2/12 82/2/12 87/2/12 88/2/12
f 82/2/5 83/2/5 86/2/5 87/2/5
f 83/2/11 84/2/11 85/2/11 86/2/11
f 85/2/3 92/2/3 77/2/3 84/2/3
f 93/3/1 94/3/1 95/3/1 96/3/1 97/3/1 98/3/1 99/3/1 100/3/1
f 101/3/2 102/3/2 103/3/2 104/3/2 105/3/2 106/3/2 107/3/2 108/3/2
f 108/3/11 107/3/11 94/3/11 93/3/11
f 107/3/5 106/3/5 95/3/5 94/3/5
f 106/3/12 105/3/12 96/3/12 95/3/12
f 105/3/3 104/3/3 97/3/3 96/3/3
f 97/3/12 98/3/12 103/3/12 104/3/12
f 98/3/5 99/3/5 102/3/5 103/3/5
f 99/3/11 100/3/11 101/3/11 102/3/11
f 101/3/3 108/3/3 93/3/3 100/3/3
