# Blender 5.2.0 LTS
# www.blender.org
mtllib FN_Laptop.mtl
o FN_Laptop
v -0.170000 0.000000 0.148868
v -0.170000 0.000000 -0.091132
v 0.170000 0.000000 -0.091132
v 0.170000 0.000000 0.148868
v -0.170000 0.018000 0.148868
v 0.170000 0.018000 0.148868
v 0.170000 0.018000 -0.091132
v -0.170000 0.018000 -0.091132
v -0.140000 0.014000 0.033868
v -0.140000 0.014000 -0.071132
v 0.140000 0.014000 -0.071132
v 0.140000 0.014000 0.033868
v -0.140000 0.018000 0.033868
v 0.140000 0.018000 0.033868
v 0.140000 0.018000 -0.071132
v -0.140000 0.018000 -0.071132
v -0.132000 0.018000 0.018868
v -0.132000 0.018000 -0.001132
v 0.132000 0.018000 -0.001132
v 0.132000 0.018000 0.018868
v -0.132000 0.021000 0.018868
v 0.132000 0.021000 0.018868
v 0.132000 0.021000 -0.001132
v -0.132000 0.021000 -0.001132
v -0.132000 0.018000 -0.004132
v -0.132000 0.018000 -0.024132
v 0.132000 0.018000 -0.024132
v 0.132000 0.018000 -0.004132
v -0.132000 0.021000 -0.004132
v 0.132000 0.021000 -0.004132
v 0.132000 0.021000 -0.024132
v -0.132000 0.021000 -0.024132
v -0.132000 0.018000 -0.027132
v -0.132000 0.018000 -0.047132
v 0.132000 0.018000 -0.047132
v 0.132000 0.018000 -0.027132
v -0.132000 0.021000 -0.027132
v 0.132000 0.021000 -0.027132
v 0.132000 0.021000 -0.047132
v -0.132000 0.021000 -0.047132
v -0.132000 0.018000 -0.050132
v -0.132000 0.018000 -0.067132
v 0.132000 0.018000 -0.067132
v 0.132000 0.018000 -0.050132
v -0.132000 0.021000 -0.050132
v 0.132000 0.021000 -0.050132
v 0.132000 0.021000 -0.067132
v -0.132000 0.021000 -0.067132
v -0.045000 0.016000 0.128868
v -0.045000 0.016000 0.048868
v 0.045000 0.016000 0.048868
v 0.045000 0.016000 0.128868
v -0.045000 0.018000 0.128868
v 0.045000 0.018000 0.128868
v 0.045000 0.018000 0.048868
v -0.045000 0.018000 0.048868
v -0.170000 0.019553 -0.080337
v -0.170000 0.232057 -0.137277
v -0.170000 0.228951 -0.148868
v -0.170000 0.016447 -0.091928
v 0.170000 0.016447 -0.091928
v 0.170000 0.228951 -0.148868
v 0.170000 0.232057 -0.137277
v 0.170000 0.019553 -0.080337
v -0.156000 0.033852 -0.081062
v -0.156000 0.219310 -0.130756
v -0.156000 0.218534 -0.133653
v -0.156000 0.033076 -0.083960
v 0.156000 0.033076 -0.083960
v 0.156000 0.218534 -0.133653
v 0.156000 0.219310 -0.130756
v 0.156000 0.033852 -0.081062
v -0.130000 0.009340 -0.091132
v -0.130000 0.009340 -0.081132
v -0.130000 0.018000 -0.076132
v -0.130000 0.026660 -0.081132
v -0.130000 0.026660 -0.091132
v -0.130000 0.018000 -0.096132
v -0.100000 0.018000 -0.096132
v -0.100000 0.026660 -0.091132
v -0.100000 0.026660 -0.081132
v -0.100000 0.018000 -0.076132
v -0.100000 0.009340 -0.081132
v -0.100000 0.009340 -0.091132
v 0.100000 0.009340 -0.091132
v 0.100000 0.009340 -0.081132
v 0.100000 0.018000 -0.076132
v 0.100000 0.026660 -0.081132
v 0.100000 0.026660 -0.091132
v 0.100000 0.018000 -0.096132
v 0.130000 0.018000 -0.096132
v 0.130000 0.026660 -0.091132
v 0.130000 0.026660 -0.081132
v 0.130000 0.018000 -0.076132
v 0.130000 0.009340 -0.081132
v 0.130000 0.009340 -0.091132
vn -0.0000 -1.0000 -0.0000
vn -0.0000 1.0000 -0.0000
vn -0.0000 -0.0000 1.0000
vn -0.0000 -0.0000 -1.0000
vn -1.0000 -0.0000 -0.0000
vn 1.0000 -0.0000 -0.0000
vn -0.0000 -0.2588 -0.9659
vn -0.0000 0.9659 -0.2588
vn -0.0000 0.2588 0.9659
vn -0.0000 -0.9659 0.2588
vn -0.0000 0.5000 -0.8660
vn -0.0000 0.5000 0.8660
vn -0.0000 -0.5000 0.8660
vn -0.0000 -0.5000 -0.8660
vt 0.937500 0.312500
vt 0.812500 0.312500
vt 0.937500 0.062500
s 0
usemtl FN_Atlas
f 1/1/1 2/1/1 3/1/1 4/1/1
f 5/1/2 6/1/2 7/1/2 8/1/2
f 1/1/3 4/1/3 6/1/3 5/1/3
f 3/1/4 2/1/4 8/1/4 7/1/4
f 1/1/5 5/1/5 8/1/5 2/1/5
f 4/1/6 3/1/6 7/1/6 6/1/6
f 9/2/1 10/2/1 11/2/1 12/2/1
f 13/2/2 14/2/2 15/2/2 16/2/2
f 9/2/3 12/2/3 14/2/3 13/2/3
f 11/2/4 10/2/4 16/2/4 15/2/4
f 9/2/5 13/2/5 16/2/5 10/2/5
f 12/2/6 11/2/6 15/2/6 14/2/6
f 17/1/1 18/1/1 19/1/1 20/1/1
f 21/1/2 22/1/2 23/1/2 24/1/2
f 17/1/3 20/1/3 22/1/3 21/1/3
f 19/1/4 18/1/4 24/1/4 23/1/4
f 17/1/5 21/1/5 24/1/5 18/1/5
f 20/1/6 19/1/6 23/1/6 22/1/6
f 25/1/1 26/1/1 27/1/1 28/1/1
f 29/1/2 30/1/2 31/1/2 32/1/2
f 25/1/3 28/1/3 30/1/3 29/1/3
f 27/1/4 26/1/4 32/1/4 31/1/4
f 25/1/5 29/1/5 32/1/5 26/1/5
f 28/1/6 27/1/6 31/1/6 30/1/6
f 33/1/1 34/1/1 35/1/1 36/1/1
f 37/1/2 38/1/2 39/1/2 40/1/2
f 33/1/3 36/1/3 38/1/3 37/1/3
f 35/1/4 34/1/4 40/1/4 39/1/4
f 33/1/5 37/1/5 40/1/5 34/1/5
f 36/1/6 35/1/6 39/1/6 38/1/6
f 41/1/1 42/1/1 43/1/1 44/1/1
f 45/1/2 46/1/2 47/1/2 48/1/2
f 41/1/3 44/1/3 46/1/3 45/1/3
f 43/1/4 42/1/4 48/1/4 47/1/4
f 41/1/5 45/1/5 48/1/5 42/1/5
f 44/1/6 43/1/6 47/1/6 46/1/6
f 49/2/1 50/2/1 51/2/1 52/2/1
f 53/2/2 54/2/2 55/2/2 56/2/2
f 49/2/3 52/2/3 54/2/3 53/2/3
f 51/2/4 50/2/4 56/2/4 55/2/4
f 49/2/5 53/2/5 56/2/5 50/2/5
f 52/2/6 51/2/6 55/2/6 54/2/6
f 57/1/5 58/1/5 59/1/5 60/1/5
f 61/1/6 62/1/6 63/1/6 64/1/6
f 60/1/7 59/1/7 62/1/7 61/1/7
f 59/1/8 58/1/8 63/1/8 62/1/8
f 58/1/9 57/1/9 64/1/9 63/1/9
f 57/1/10 60/1/10 61/1/10 64/1/10
f 73/2/5 74/2/5 75/2/5 76/2/5 77/2/5 78/2/5
f 79/2/6 80/2/6 81/2/6 82/2/6 83/2/6 84/2/6
f 78/2/11 77/2/11 80/2/11 79/2/11
f 77/2/2 76/2/2 81/2/2 80/2/2
f 76/2/12 75/2/12 82/2/12 81/2/12
f 75/2/13 74/2/13 83/2/13 82/2/13
f 74/2/1 73/2/1 84/2/1 83/2/1
f 73/2/14 78/2/14 79/2/14 84/2/14
f 85/2/5 86/2/5 87/2/5 88/2/5 89/2/5 90/2/5
f 91/2/6 92/2/6 93/2/6 94/2/6 95/2/6 96/2/6
f 90/2/11 89/2/11 92/2/11 91/2/11
f 89/2/2 88/2/2 93/2/2 92/2/2
f 88/2/12 87/2/12 94/2/12 93/2/12
f 87/2/13 86/2/13 95/2/13 94/2/13
f 86/2/1 85/2/1 96/2/1 95/2/1
f 85/2/14 90/2/14 91/2/14 96/2/14
usemtl FN_Glow
f 65/3/5 66/3/5 67/3/5 68/3/5
f 69/3/6 70/3/6 71/3/6 72/3/6
f 68/3/7 67/3/7 70/3/7 69/3/7
f 67/3/8 66/3/8 71/3/8 70/3/8
f 66/3/9 65/3/9 72/3/9 71/3/9
f 65/3/10 68/3/10 69/3/10 72/3/10
