# Blender 5.2.0 LTS
# www.blender.org
mtllib FN_Lamp_Table.mtl
o FN_Lamp_Table
v 0.072063 0.000000 0.029849
v 0.055154 0.000000 0.055154
v 0.029849 0.000000 0.072063
v -0.000000 0.000000 0.078000
v -0.029849 0.000000 0.072063
v -0.055154 0.000000 0.055154
v -0.072063 0.000000 0.029849
v -0.078000 0.000000 -0.000000
v -0.072063 0.000000 -0.029849
v -0.055154 0.000000 -0.055154
v -0.029849 0.000000 -0.072063
v 0.000000 0.000000 -0.078000
v 0.029849 0.000000 -0.072063
v 0.055154 0.000000 -0.055154
v 0.072063 0.000000 -0.029849
v 0.078000 0.000000 0.000000
v 0.072063 0.016000 -0.029849
v 0.078000 0.016000 0.000000
v 0.055154 0.016000 -0.055154
v 0.029849 0.016000 -0.072063
v 0.000000 0.016000 -0.078000
v -0.029849 0.016000 -0.072063
v -0.055154 0.016000 -0.055154
v -0.072063 0.016000 -0.029849
v -0.078000 0.016000 -0.000000
v -0.072063 0.016000 0.029849
v -0.055154 0.016000 0.055154
v -0.029849 0.016000 0.072063
v -0.000000 0.016000 0.078000
v 0.029849 0.016000 0.072063
v 0.055154 0.016000 0.055154
v 0.072063 0.016000 0.029849
v 0.062824 0.026000 -0.026022
v 0.068000 0.026000 0.000000
v 0.048083 0.026000 -0.048083
v 0.026022 0.026000 -0.062824
v 0.000000 0.026000 -0.068000
v -0.026022 0.026000 -0.062824
v -0.048083 0.026000 -0.048083
v -0.062824 0.026000 -0.026022
v -0.068000 0.026000 -0.000000
v -0.062824 0.026000 0.026022
v -0.048083 0.026000 0.048083
v -0.026022 0.026000 0.062824
v -0.000000 0.026000 0.068000
v 0.026022 0.026000 0.062824
v 0.048083 0.026000 0.048083
v 0.062824 0.026000 0.026022
v 0.042498 0.026000 -0.017603
v 0.046000 0.026000 0.000000
v 0.032527 0.026000 -0.032527
v 0.017603 0.026000 -0.042498
v 0.000000 0.026000 -0.046000
v -0.017603 0.026000 -0.042498
v -0.032527 0.026000 -0.032527
v -0.042498 0.026000 -0.017603
v -0.046000 0.026000 -0.000000
v -0.042498 0.026000 0.017603
v -0.032527 0.026000 0.032527
v -0.017603 0.026000 0.042498
v -0.000000 0.026000 0.046000
v 0.017603 0.026000 0.042498
v 0.032527 0.026000 0.032527
v 0.042498 0.026000 0.017603
v 0.042498 0.048000 -0.017603
v 0.046000 0.048000 0.000000
v 0.032527 0.048000 -0.032527
v 0.017603 0.048000 -0.042498
v 0.000000 0.048000 -0.046000
v -0.017603 0.048000 -0.042498
v -0.032527 0.048000 -0.032527
v -0.042498 0.048000 -0.017603
v -0.046000 0.048000 -0.000000
v -0.042498 0.048000 0.017603
v -0.032527 0.048000 0.032527
v -0.017603 0.048000 0.042498
v -0.000000 0.048000 0.046000
v 0.017603 0.048000 0.042498
v 0.032527 0.048000 0.032527
v 0.042498 0.048000 0.017603
v 0.013858 0.048000 -0.005740
v 0.015000 0.048000 0.000000
v 0.010607 0.048000 -0.010607
v 0.005740 0.048000 -0.013858
v 0.000000 0.048000 -0.015000
v -0.005740 0.048000 -0.013858
v -0.010607 0.048000 -0.010607
v -0.013858 0.048000 -0.005740
v -0.015000 0.048000 -0.000000
v -0.013858 0.048000 0.005740
v -0.010607 0.048000 0.010607
v -0.005740 0.048000 0.013858
v -0.000000 0.048000 0.015000
v 0.005740 0.048000 0.013858
v 0.010607 0.048000 0.010607
v 0.013858 0.048000 0.005740
v 0.015000 0.044000 0.000000
v 0.010607 0.044000 -0.010607
v 0.010607 0.326000 -0.010607
v 0.015000 0.326000 0.000000
v 0.000000 0.044000 -0.015000
v 0.000000 0.326000 -0.015000
v -0.010607 0.044000 -0.010607
v -0.010607 0.326000 -0.010607
v -0.015000 0.044000 -0.000000
v -0.015000 0.326000 -0.000000
v -0.010607 0.044000 0.010607
v -0.010607 0.326000 0.010607
v -0.000000 0.044000 0.015000
v -0.000000 0.326000 0.015000
v 0.010607 0.044000 0.010607
v 0.010607 0.326000 0.010607
v 0.140000 0.296000 0.000000
v 0.129343 0.296000 -0.053576
v 0.090540 0.430000 -0.037503
v 0.098000 0.430000 0.000000
v 0.098995 0.296000 -0.098995
v 0.069296 0.430000 -0.069296
v 0.053576 0.296000 -0.129343
v 0.037503 0.430000 -0.090540
v 0.000000 0.296000 -0.140000
v 0.000000 0.430000 -0.098000
v -0.053576 0.296000 -0.129343
v -0.037503 0.430000 -0.090540
v -0.098995 0.296000 -0.098995
v -0.069296 0.430000 -0.069296
v -0.129343 0.296000 -0.053576
v -0.090540 0.430000 -0.037503
v -0.140000 0.296000 -0.000000
v -0.098000 0.430000 -0.000000
v -0.129343 0.296000 0.053576
v -0.090540 0.430000 0.037503
v -0.098995 0.296000 0.098995
v -0.069296 0.430000 0.069296
v -0.053576 0.296000 0.129343
v -0.037503 0.430000 0.090540
v -0.000000 0.296000 0.140000
v -0.000000 0.430000 0.098000
v 0.053576 0.296000 0.129343
v 0.037503 0.430000 0.090540
v 0.098995 0.296000 0.098995
v 0.069296 0.430000 0.069296
v 0.129343 0.296000 0.053576
v 0.090540 0.430000 0.037503
v 0.064672 0.430000 -0.026788
v 0.070000 0.430000 0.000000
v 0.049497 0.430000 -0.049497
v 0.026788 0.430000 -0.064672
v 0.000000 0.430000 -0.070000
v -0.026788 0.430000 -0.064672
v -0.049497 0.430000 -0.049497
v -0.064672 0.430000 -0.026788
v -0.070000 0.430000 -0.000000
v -0.064672 0.430000 0.026788
v -0.049497 0.430000 0.049497
v -0.026788 0.430000 0.064672
v -0.000000 0.430000 0.070000
v 0.026788 0.430000 0.064672
v 0.049497 0.430000 0.049497
v 0.064672 0.430000 0.026788
v 0.070000 0.422000 0.000000
v 0.064672 0.422000 -0.026788
v 0.024021 0.422000 -0.009950
v 0.026000 0.422000 0.000000
v 0.049497 0.422000 -0.049497
v 0.018385 0.422000 -0.018385
v 0.026788 0.422000 -0.064672
v 0.009950 0.422000 -0.024021
v 0.000000 0.422000 -0.070000
v 0.000000 0.422000 -0.026000
v -0.026788 0.422000 -0.064672
v -0.009950 0.422000 -0.024021
v -0.049497 0.422000 -0.049497
v -0.018385 0.422000 -0.018385
v -0.064672 0.422000 -0.026788
v -0.024021 0.422000 -0.009950
v -0.070000 0.422000 -0.000000
v -0.026000 0.422000 -0.000000
v -0.064672 0.422000 0.026788
v -0.024021 0.422000 0.009950
v -0.049497 0.422000 0.049497
v -0.018385 0.422000 0.018385
v -0.026788 0.422000 0.064672
v -0.009950 0.422000 0.024021
v -0.000000 0.422000 0.070000
v -0.000000 0.422000 0.026000
v 0.026788 0.422000 0.064672
v 0.009950 0.422000 0.024021
v 0.049497 0.422000 0.049497
v 0.018385 0.422000 0.018385
v 0.064672 0.422000 0.026788
v 0.024021 0.422000 0.009950
v 0.026000 0.396000 0.000000
v 0.018385 0.396000 -0.018385
v 0.000000 0.396000 -0.026000
v -0.018385 0.396000 -0.018385
v -0.026000 0.396000 -0.000000
v -0.018385 0.396000 0.018385
v -0.000000 0.396000 0.026000
v 0.018385 0.396000 0.018385
v 0.021000 0.302000 0.000000
v 0.019401 0.302000 -0.008036
v 0.125648 0.302000 -0.052045
v 0.136000 0.302000 0.000000
v 0.014849 0.302000 -0.014849
v 0.096167 0.302000 -0.096167
v 0.008036 0.302000 -0.019401
v 0.052045 0.302000 -0.125648
v 0.000000 0.302000 -0.021000
v 0.000000 0.302000 -0.136000
v -0.008036 0.302000 -0.019401
v -0.052045 0.302000 -0.125648
v -0.014849 0.302000 -0.014849
v -0.096167 0.302000 -0.096167
v -0.019401 0.302000 -0.008036
v -0.125648 0.302000 -0.052045
v -0.021000 0.302000 -0.000000
v -0.136000 0.302000 -0.000000
v -0.019401 0.302000 0.008036
v -0.125648 0.302000 0.052045
v -0.014849 0.302000 0.014849
v -0.096167 0.302000 0.096167
v -0.008036 0.302000 0.019401
v -0.052045 0.302000 0.125648
v -0.000000 0.302000 0.021000
v -0.000000 0.302000 0.136000
v 0.008036 0.302000 0.019401
v 0.052045 0.302000 0.125648
v 0.014849 0.302000 0.014849
v 0.096167 0.302000 0.096167
v 0.019401 0.302000 0.008036
v 0.125648 0.302000 0.052045
v 0.138000 0.290000 0.000000
v 0.127495 0.290000 -0.052810
v 0.097581 0.290000 -0.097581
v 0.052810 0.290000 -0.127495
v 0.000000 0.290000 -0.138000
v -0.052810 0.290000 -0.127495
v -0.097581 0.290000 -0.097581
v -0.127495 0.290000 -0.052810
v -0.138000 0.290000 -0.000000
v -0.127495 0.290000 0.052810
v -0.097581 0.290000 0.097581
v -0.052810 0.290000 0.127495
v -0.000000 0.290000 0.138000
v 0.052810 0.290000 0.127495
v 0.097581 0.290000 0.097581
v 0.127495 0.290000 0.052810
v 0.129343 0.290000 -0.053576
v 0.140000 0.290000 0.000000
v 0.098995 0.290000 -0.098995
v 0.053576 0.290000 -0.129343
v 0.000000 0.290000 -0.140000
v -0.053576 0.290000 -0.129343
v -0.098995 0.290000 -0.098995
v -0.129343 0.290000 -0.053576
v -0.140000 0.290000 -0.000000
v -0.129343 0.290000 0.053576
v -0.098995 0.290000 0.098995
v -0.053576 0.290000 0.129343
v -0.000000 0.290000 0.140000
v 0.053576 0.290000 0.129343
v 0.098995 0.290000 0.098995
v 0.129343 0.290000 0.053576
vn -0.0000 -1.0000 -0.0000
vn 0.9808 -0.0000 -0.1951
vn 0.8315 -0.0000 -0.5556
vn 0.5556 -0.0000 -0.8315
vn 0.1951 -0.0000 -0.9808
vn -0.1951 -0.0000 -0.9808
vn -0.5556 -0.0000 -0.8315
vn -0.8315 -0.0000 -0.5556
vn -0.9808 -0.0000 -0.1951
vn -0.9808 -0.0000 0.1951
vn -0.8315 -0.0000 0.5556
vn -0.5556 -0.0000 0.8315
vn -0.1951 -0.0000 0.9808
vn 0.1951 -0.0000 0.9808
vn 0.5556 -0.0000 0.8315
vn 0.8315 -0.0000 0.5556
vn 0.9808 -0.0000 0.1951
vn 0.7002 0.7002 -0.1393
vn 0.5936 0.7002 -0.3966
vn 0.3966 0.7002 -0.5936
vn 0.1393 0.7002 -0.7002
vn -0.1393 0.7002 -0.7002
vn -0.3966 0.7002 -0.5936
vn -0.5936 0.7002 -0.3966
vn -0.7002 0.7002 -0.1393
vn -0.7002 0.7002 0.1393
vn -0.5936 0.7002 0.3966
vn -0.3966 0.7002 0.5936
vn -0.1393 0.7002 0.7002
vn 0.1393 0.7002 0.7002
vn 0.3966 0.7002 0.5936
vn 0.5936 0.7002 0.3966
vn 0.7002 0.7002 0.1393
vn -0.0000 1.0000 -0.0000
vn 0.9239 -0.0000 -0.3827
vn 0.3827 -0.0000 -0.9239
vn -0.3827 -0.0000 -0.9239
vn -0.9239 -0.0000 -0.3827
vn -0.9239 -0.0000 0.3827
vn -0.3827 -0.0000 0.9239
vn 0.3827 -0.0000 0.9239
vn 0.9239 -0.0000 0.3827
vn 0.9375 0.2938 -0.1865
vn 0.7948 0.2938 -0.5310
vn 0.5310 0.2938 -0.7948
vn 0.1865 0.2938 -0.9375
vn -0.1865 0.2938 -0.9375
vn -0.5310 0.2938 -0.7948
vn -0.7948 0.2938 -0.5310
vn -0.9375 0.2938 -0.1865
vn -0.9375 0.2938 0.1865
vn -0.7948 0.2938 0.5310
vn -0.5310 0.2938 0.7948
vn -0.1865 0.2938 0.9375
vn 0.1865 0.2938 0.9375
vn 0.5310 0.2938 0.7948
vn 0.7948 0.2938 0.5310
vn 0.9375 0.2938 0.1865
vn 0.9322 -0.3107 -0.1854
vn 0.7903 -0.3107 -0.5281
vn 0.5281 -0.3107 -0.7903
vn 0.1854 -0.3107 -0.9322
vn -0.1854 -0.3107 -0.9322
vn -0.5281 -0.3107 -0.7903
vn -0.7903 -0.3107 -0.5281
vn -0.9322 -0.3107 -0.1854
vn -0.9322 -0.3107 0.1854
vn -0.7903 -0.3107 0.5281
vn -0.5281 -0.3107 0.7903
vn -0.1854 -0.3107 0.9322
vn 0.1854 -0.3107 0.9322
vn 0.5281 -0.3107 0.7903
vn 0.7903 -0.3107 0.5281
vn 0.9322 -0.3107 0.1854
vt 0.437500 0.312500
vt 0.687500 0.687500
vt 0.812500 0.062500
vt 0.937500 0.312500
s 0
usemtl FN_Atlas
f 1/1/1 2/1/1 3/1/1 4/1/1 5/1/1 6/1/1 7/1/1 8/1/1 9/1/1 10/1/1 11/1/1 12/1/1 13/1/1 14/1/1 15/1/1 16/1/1
f 16/1/2 15/1/2 17/1/2 18/1/2
f 15/1/3 14/1/3 19/1/3 17/1/3
f 14/1/4 13/1/4 20/1/4 19/1/4
f 13/1/5 12/1/5 21/1/5 20/1/5
f 12/1/6 11/1/6 22/1/6 21/1/6
f 11/1/7 10/1/7 23/1/7 22/1/7
f 10/1/8 9/1/8 24/1/8 23/1/8
f 9/1/9 8/1/9 25/1/9 24/1/9
f 8/1/10 7/1/10 26/1/10 25/1/10
f 7/1/11 6/1/11 27/1/11 26/1/11
f 6/1/12 5/1/12 28/1/12 27/1/12
f 5/1/13 4/1/13 29/1/13 28/1/13
f 4/1/14 3/1/14 30/1/14 29/1/14
f 3/1/15 2/1/15 31/1/15 30/1/15
f 2/1/16 1/1/16 32/1/16 31/1/16
f 1/1/17 16/1/17 18/1/17 32/1/17
f 18/1/18 17/1/18 33/1/18 34/1/18
f 17/1/19 19/1/19 35/1/19 33/1/19
f 19/1/20 20/1/20 36/1/20 35/1/20
f 20/1/21 21/1/21 37/1/21 36/1/21
f 21/1/22 22/1/22 38/1/22 37/1/22
f 22/1/23 23/1/23 39/1/23 38/1/23
f 23/1/24 24/1/24 40/1/24 39/1/24
f 24/1/25 25/1/25 41/1/25 40/1/25
f 25/1/26 26/1/26 42/1/26 41/1/26
f 26/1/27 27/1/27 43/1/27 42/1/27
f 27/1/28 28/1/28 44/1/28 43/1/28
f 28/1/29 29/1/29 45/1/29 44/1/29
f 29/1/30 30/1/30 46/1/30 45/1/30
f 30/1/31 31/1/31 47/1/31 46/1/31
f 31/1/32 32/1/32 48/1/32 47/1/32
f 32/1/33 18/1/33 34/1/33 48/1/33
f 34/1/34 33/1/34 49/1/34 50/1/34
f 33/1/34 35/1/34 51/1/34 49/1/34
f 35/1/34 36/1/34 52/1/34 51/1/34
f 36/1/34 37/1/34 53/1/34 52/1/34
f 37/1/34 38/1/34 54/1/34 53/1/34
f 38/1/34 39/1/34 55/1/34 54/1/34
f 39/1/34 40/1/34 56/1/34 55/1/34
f 40/1/34 41/1/34 57/1/34 56/1/34
f 41/1/34 42/1/34 58/1/34 57/1/34
f 42/1/34 43/1/34 59/1/34 58/1/34
f 43/1/34 44/1/34 60/1/34 59/1/34
f 44/1/34 45/1/34 61/1/34 60/1/34
f 45/1/34 46/1/34 62/1/34 61/1/34
f 46/1/34 47/1/34 63/1/34 62/1/34
f 47/1/34 48/1/34 64/1/34 63/1/34
f 48/1/34 34/1/34 50/1/34 64/1/34
f 50/1/2 49/1/2 65/1/2 66/1/2
f 49/1/3 51/1/3 67/1/3 65/1/3
f 51/1/4 52/1/4 68/1/4 67/1/4
f 52/1/5 53/1/5 69/1/5 68/1/5
f 53/1/6 54/1/6 70/1/6 69/1/6
f 54/1/7 55/1/7 71/1/7 70/1/7
f 55/1/8 56/1/8 72/1/8 71/1/8
f 56/1/9 57/1/9 73/1/9 72/1/9
f 57/1/10 58/1/10 74/1/10 73/1/10
f 58/1/11 59/1/11 75/1/11 74/1/11
f 59/1/12 60/1/12 76/1/12 75/1/12
f 60/1/13 61/1/13 77/1/13 76/1/13
f 61/1/14 62/1/14 78/1/14 77/1/14
f 62/1/15 63/1/15 79/1/15 78/1/15
f 63/1/16 64/1/16 80/1/16 79/1/16
f 64/1/17 50/1/17 66/1/17 80/1/17
f 66/1/34 65/1/34 81/1/34 82/1/34
f 65/1/34 67/1/34 83/1/34 81/1/34
f 67/1/34 68/1/34 84/1/34 83/1/34
f 68/1/34 69/1/34 85/1/34 84/1/34
f 69/1/34 70/1/34 86/1/34 85/1/34
f 70/1/34 71/1/34 87/1/34 86/1/34
f 71/1/34 72/1/34 88/1/34 87/1/34
f 72/1/34 73/1/34 89/1/34 88/1/34
f 73/1/34 74/1/34 90/1/34 89/1/34
f 74/1/34 75/1/34 91/1/34 90/1/34
f 75/1/34 76/1/34 92/1/34 91/1/34
f 76/1/34 77/1/34 93/1/34 92/1/34
f 77/1/34 78/1/34 94/1/34 93/1/34
f 78/1/34 79/1/34 95/1/34 94/1/34
f 79/1/34 80/1/34 96/1/34 95/1/34
f 80/1/34 66/1/34 82/1/34 96/1/34
f 97/1/35 98/1/35 99/1/35 100/1/35
f 98/1/36 101/1/36 102/1/36 99/1/36
f 101/1/37 103/1/37 104/1/37 102/1/37
f 103/1/38 105/1/38 106/1/38 104/1/38
f 105/1/39 107/1/39 108/1/39 106/1/39
f 107/1/40 109/1/40 110/1/40 108/1/40
f 109/1/41 111/1/41 112/1/41 110/1/41
f 111/1/42 97/1/42 100/1/42 112/1/42
f 113/2/43 114/2/43 115/2/43 116/2/43
f 114/2/44 117/2/44 118/2/44 115/2/44
f 117/2/45 119/2/45 120/2/45 118/2/45
f 119/2/46 121/2/46 122/2/46 120/2/46
f 121/2/47 123/2/47 124/2/47 122/2/47
f 123/2/48 125/2/48 126/2/48 124/2/48
f 125/2/49 127/2/49 128/2/49 126/2/49
f 127/2/50 129/2/50 130/2/50 128/2/50
f 129/2/51 131/2/51 132/2/51 130/2/51
f 131/2/52 133/2/52 134/2/52 132/2/52
f 133/2/53 135/2/53 136/2/53 134/2/53
f 135/2/54 137/2/54 138/2/54 136/2/54
f 137/2/55 139/2/55 140/2/55 138/2/55
f 139/2/56 141/2/56 142/2/56 140/2/56
f 141/2/57 143/2/57 144/2/57 142/2/57
f 143/2/58 113/2/58 116/2/58 144/2/58
f 116/2/34 115/2/34 145/2/34 146/2/34
f 115/2/34 118/2/34 147/2/34 145/2/34
f 118/2/34 120/2/34 148/2/34 147/2/34
f 120/2/34 122/2/34 149/2/34 148/2/34
f 122/2/34 124/2/34 150/2/34 149/2/34
f 124/2/34 126/2/34 151/2/34 150/2/34
f 126/2/34 128/2/34 152/2/34 151/2/34
f 128/2/34 130/2/34 153/2/34 152/2/34
f 130/2/34 132/2/34 154/2/34 153/2/34
f 132/2/34 134/2/34 155/2/34 154/2/34
f 134/2/34 136/2/34 156/2/34 155/2/34
f 136/2/34 138/2/34 157/2/34 156/2/34
f 138/2/34 140/2/34 158/2/34 157/2/34
f 140/2/34 142/2/34 159/2/34 158/2/34
f 142/2/34 144/2/34 160/2/34 159/2/34
f 144/2/34 116/2/34 146/2/34 160/2/34
f 193/4/35 194/4/35 166/4/35 164/4/35
f 194/4/36 195/4/36 170/4/36 166/4/36
f 195/4/37 196/4/37 174/4/37 170/4/37
f 196/4/38 197/4/38 178/4/38 174/4/38
f 197/4/39 198/4/39 182/4/39 178/4/39
f 198/4/40 199/4/40 186/4/40 182/4/40
f 199/4/41 200/4/41 190/4/41 186/4/41
f 200/4/42 193/4/42 164/4/42 190/4/42
f 233/2/59 234/2/59 114/2/59 113/2/59
f 234/2/60 235/2/60 117/2/60 114/2/60
f 235/2/61 236/2/61 119/2/61 117/2/61
f 236/2/62 237/2/62 121/2/62 119/2/62
f 237/2/63 238/2/63 123/2/63 121/2/63
f 238/2/64 239/2/64 125/2/64 123/2/64
f 239/2/65 240/2/65 127/2/65 125/2/65
f 240/2/66 241/2/66 129/2/66 127/2/66
f 241/2/67 242/2/67 131/2/67 129/2/67
f 242/2/68 243/2/68 133/2/68 131/2/68
f 243/2/69 244/2/69 135/2/69 133/2/69
f 244/2/70 245/2/70 137/2/70 135/2/70
f 245/2/71 246/2/71 139/2/71 137/2/71
f 246/2/72 247/2/72 141/2/72 139/2/72
f 247/2/73 248/2/73 143/2/73 141/2/73
f 248/2/74 233/2/74 113/2/74 143/2/74
f 233/2/1 234/2/1 249/2/1 250/2/1
f 234/2/1 235/2/1 251/2/1 249/2/1
f 235/2/1 236/2/1 252/2/1 251/2/1
f 236/2/1 237/2/1 253/2/1 252/2/1
f 237/2/1 238/2/1 254/2/1 253/2/1
f 238/2/1 239/2/1 255/2/1 254/2/1
f 239/2/1 240/2/1 256/2/1 255/2/1
f 240/2/1 241/2/1 257/2/1 256/2/1
f 241/2/1 242/2/1 258/2/1 257/2/1
f 242/2/1 243/2/1 259/2/1 258/2/1
f 243/2/1 244/2/1 260/2/1 259/2/1
f 244/2/1 245/2/1 261/2/1 260/2/1
f 245/2/1 246/2/1 262/2/1 261/2/1
f 246/2/1 247/2/1 263/2/1 262/2/1
f 247/2/1 248/2/1 264/2/1 263/2/1
f 248/2/1 233/2/1 250/2/1 264/2/1
usemtl FN_Glow
f 161/3/34 162/3/34 163/3/34 164/3/34
f 162/3/34 165/3/34 166/3/34 163/3/34
f 165/3/34 167/3/34 168/3/34 166/3/34
f 167/3/34 169/3/34 170/3/34 168/3/34
f 169/3/34 171/3/34 172/3/34 170/3/34
f 171/3/34 173/3/34 174/3/34 172/3/34
f 173/3/34 175/3/34 176/3/34 174/3/34
f 175/3/34 177/3/34 178/3/34 176/3/34
f 177/3/34 179/3/34 180/3/34 178/3/34
f 179/3/34 181/3/34 182/3/34 180/3/34
f 181/3/34 183/3/34 184/3/34 182/3/34
f 183/3/34 185/3/34 186/3/34 184/3/34
f 185/3/34 187/3/34 188/3/34 186/3/34
f 187/3/34 189/3/34 190/3/34 188/3/34
f 189/3/34 191/3/34 192/3/34 190/3/34
f 191/3/34 161/3/34 164/3/34 192/3/34
f 201/3/1 202/3/1 203/3/1 204/3/1
f 202/3/1 205/3/1 206/3/1 203/3/1
f 205/3/1 207/3/1 208/3/1 206/3/1
f 207/3/1 209/3/1 210/3/1 208/3/1
f 209/3/1 211/3/1 212/3/1 210/3/1
f 211/3/1 213/3/1 214/3/1 212/3/1
f 213/3/1 215/3/1 216/3/1 214/3/1
f 215/3/1 217/3/1 218/3/1 216/3/1
f 217/3/1 219/3/1 220/3/1 218/3/1
f 219/3/1 221/3/1 222/3/1 220/3/1
f 221/3/1 223/3/1 224/3/1 222/3/1
f 223/3/1 225/3/1 226/3/1 224/3/1
f 225/3/1 227/3/1 228/3/1 226/3/1
f 227/3/1 229/3/1 230/3/1 228/3/1
f 229/3/1 231/3/1 232/3/1 230/3/1
f 231/3/1 201/3/1 204/3/1 232/3/1
