# Blender 5.2.0 LTS
# www.blender.org
mtllib FN_Lounger_Sun.mtl
o FN_Lounger_Sun
v -0.986500 0.313184 0.313435
v -0.986500 0.318749 0.300000
v -0.986500 0.313184 0.286565
v -0.986500 0.299749 0.281000
v -0.986500 0.286314 0.286565
v -0.986500 0.280749 0.300000
v -0.986500 0.286314 0.313435
v -0.986500 0.299749 0.319000
v 0.531500 0.299749 0.319000
v 0.531500 0.286314 0.313435
v 0.531500 0.280749 0.300000
v 0.531500 0.286314 0.286565
v 0.531500 0.299749 0.281000
v 0.531500 0.313184 0.286565
v 0.531500 0.318749 0.300000
v 0.531500 0.313184 0.313435
v 0.483032 0.306179 0.313435
v 0.479524 0.310499 0.300000
v 0.483032 0.306179 0.286565
v 0.491500 0.295749 0.281000
v 0.499968 0.285319 0.286565
v 0.503476 0.280998 0.300000
v 0.499968 0.285319 0.313435
v 0.491500 0.295749 0.319000
v 0.927500 0.649749 0.319000
v 0.935968 0.639319 0.313435
v 0.939476 0.634998 0.300000
v 0.935968 0.639319 0.286565
v 0.927500 0.649749 0.281000
v 0.919032 0.660179 0.286565
v 0.915524 0.664499 0.300000
v 0.919032 0.660179 0.313435
v -0.986500 0.313184 -0.286565
v -0.986500 0.318749 -0.300000
v -0.986500 0.313184 -0.313435
v -0.986500 0.299749 -0.319000
v -0.986500 0.286314 -0.313435
v -0.986500 0.280749 -0.300000
v -0.986500 0.286314 -0.286565
v -0.986500 0.299749 -0.281000
v 0.531500 0.299749 -0.281000
v 0.531500 0.286314 -0.286565
v 0.531500 0.280749 -0.300000
v 0.531500 0.286314 -0.313435
v 0.531500 0.299749 -0.319000
v 0.531500 0.313184 -0.313435
v 0.531500 0.318749 -0.300000
v 0.531500 0.313184 -0.286565
v 0.483032 0.306179 -0.286565
v 0.479524 0.310499 -0.300000
v 0.483032 0.306179 -0.313435
v 0.491500 0.295749 -0.319000
v 0.499968 0.285319 -0.313435
v 0.503476 0.280998 -0.300000
v 0.499968 0.285319 -0.286565
v 0.491500 0.295749 -0.281000
v 0.927500 0.649749 -0.281000
v 0.935968 0.639319 -0.286565
v 0.939476 0.634998 -0.300000
v 0.935968 0.639319 -0.313435
v 0.927500 0.649749 -0.319000
v 0.919032 0.660179 -0.313435
v 0.915524 0.664499 -0.300000
v 0.919032 0.660179 -0.286565
v -0.601935 0.023749 0.286565
v -0.588500 0.023749 0.281000
v -0.575065 0.023749 0.286565
v -0.569500 0.023749 0.300000
v -0.575065 0.023749 0.313435
v -0.588500 0.023749 0.319000
v -0.601935 0.023749 0.313435
v -0.607500 0.023749 0.300000
v -0.607500 0.305749 0.300000
v -0.601935 0.305749 0.313435
v -0.588500 0.305749 0.319000
v -0.575065 0.305749 0.313435
v -0.569500 0.305749 0.300000
v -0.575065 0.305749 0.286565
v -0.588500 0.305749 0.281000
v -0.601935 0.305749 0.286565
v -0.601935 0.023749 -0.313435
v -0.588500 0.023749 -0.319000
v -0.575065 0.023749 -0.313435
v -0.569500 0.023749 -0.300000
v -0.575065 0.023749 -0.286565
v -0.588500 0.023749 -0.281000
v -0.601935 0.023749 -0.286565
v -0.607500 0.023749 -0.300000
v -0.607500 0.305749 -0.300000
v -0.601935 0.305749 -0.286565
v -0.588500 0.305749 -0.281000
v -0.575065 0.305749 -0.286565
v -0.569500 0.305749 -0.300000
v -0.575065 0.305749 -0.313435
v -0.588500 0.305749 -0.319000
v -0.601935 0.305749 -0.313435
v -0.576479 0.035769 0.300000
v -0.588500 0.040749 0.300000
v -0.600521 0.035769 0.300000
v -0.605500 0.023749 0.300000
v -0.600521 0.011728 0.300000
v -0.588500 0.006749 0.300000
v -0.576479 0.011728 0.300000
v -0.571500 0.023749 0.300000
v -0.571500 0.023749 -0.300000
v -0.576479 0.011728 -0.300000
v -0.588500 0.006749 -0.300000
v -0.600521 0.011728 -0.300000
v -0.605500 0.023749 -0.300000
v -0.600521 0.035769 -0.300000
v -0.588500 0.040749 -0.300000
v -0.576479 0.035769 -0.300000
v 0.278065 0.023749 0.286565
v 0.291500 0.023749 0.281000
v 0.304935 0.023749 0.286565
v 0.310500 0.023749 0.300000
v 0.304935 0.023749 0.313435
v 0.291500 0.023749 0.319000
v 0.278065 0.023749 0.313435
v 0.272500 0.023749 0.300000
v 0.272500 0.305749 0.300000
v 0.278065 0.305749 0.313435
v 0.291500 0.305749 0.319000
v 0.304935 0.305749 0.313435
v 0.310500 0.305749 0.300000
v 0.304935 0.305749 0.286565
v 0.291500 0.305749 0.281000
v 0.278065 0.305749 0.286565
v 0.278065 0.023749 -0.313435
v 0.291500 0.023749 -0.319000
v 0.304935 0.023749 -0.313435
v 0.310500 0.023749 -0.300000
v 0.304935 0.023749 -0.286565
v 0.291500 0.023749 -0.281000
v 0.278065 0.023749 -0.286565
v 0.272500 0.023749 -0.300000
v 0.272500 0.305749 -0.300000
v 0.278065 0.305749 -0.286565
v 0.291500 0.305749 -0.281000
v 0.304935 0.305749 -0.286565
v 0.310500 0.305749 -0.300000
v 0.304935 0.305749 -0.313435
v 0.291500 0.305749 -0.319000
v 0.278065 0.305749 -0.313435
v 0.303521 0.035769 0.300000
v 0.291500 0.040749 0.300000
v 0.279479 0.035769 0.300000
v 0.274500 0.023749 0.300000
v 0.279479 0.011728 0.300000
v 0.291500 0.006749 0.300000
v 0.303521 0.011728 0.300000
v 0.308500 0.023749 0.300000
v 0.308500 0.023749 -0.300000
v 0.303521 0.011728 -0.300000
v 0.291500 0.006749 -0.300000
v 0.279479 0.011728 -0.300000
v 0.274500 0.023749 -0.300000
v 0.279479 0.035769 -0.300000
v 0.291500 0.040749 -0.300000
v 0.303521 0.035769 -0.300000
v -0.936015 0.052234 0.294000
v -0.944500 0.055749 0.294000
v -0.952985 0.052234 0.294000
v -0.956500 0.043749 0.294000
v -0.952985 0.035263 0.294000
v -0.944500 0.031749 0.294000
v -0.936015 0.035263 0.294000
v -0.932500 0.043749 0.294000
v -0.932500 0.043749 -0.294000
v -0.936015 0.035263 -0.294000
v -0.944500 0.031749 -0.294000
v -0.952985 0.035263 -0.294000
v -0.956500 0.043749 -0.294000
v -0.952985 0.052234 -0.294000
v -0.944500 0.055749 -0.294000
v -0.936015 0.052234 -0.294000
v -0.955107 0.043749 0.289393
v -0.944500 0.043749 0.285000
v -0.933893 0.043749 0.289393
v -0.929500 0.043749 0.300000
v -0.933893 0.043749 0.310607
v -0.944500 0.043749 0.315000
v -0.955107 0.043749 0.310607
v -0.959500 0.043749 0.300000
v -0.959500 0.299749 0.300000
v -0.955107 0.299749 0.310607
v -0.944500 0.299749 0.315000
v -0.933893 0.299749 0.310607
v -0.929500 0.299749 0.300000
v -0.933893 0.299749 0.289393
v -0.944500 0.299749 0.285000
v -0.955107 0.299749 0.289393
v -0.955107 0.043749 -0.310607
v -0.944500 0.043749 -0.315000
v -0.933893 0.043749 -0.310607
v -0.929500 0.043749 -0.300000
v -0.933893 0.043749 -0.289393
v -0.944500 0.043749 -0.285000
v -0.955107 0.043749 -0.289393
v -0.959500 0.043749 -0.300000
v -0.959500 0.299749 -0.300000
v -0.955107 0.299749 -0.289393
v -0.944500 0.299749 -0.285000
v -0.933893 0.299749 -0.289393
v -0.929500 0.299749 -0.300000
v -0.933893 0.299749 -0.310607
v -0.944500 0.299749 -0.315000
v -0.955107 0.299749 -0.310607
v -0.907285 0.016710 0.302000
v -0.930285 0.000000 0.302000
v -0.958715 0.000000 0.302000
v -0.981715 0.016710 0.302000
v -0.990500 0.043749 0.302000
v -0.981715 0.070787 0.302000
v -0.958715 0.087497 0.302000
v -0.930285 0.087497 0.302000
v -0.907285 0.070787 0.302000
v -0.898500 0.043749 0.302000
v -0.898500 0.043749 0.270000
v -0.907285 0.070787 0.270000
v -0.930285 0.087497 0.270000
v -0.958715 0.087497 0.270000
v -0.981715 0.070787 0.270000
v -0.990500 0.043749 0.270000
v -0.981715 0.016710 0.270000
v -0.958715 0.000000 0.270000
v -0.930285 0.000000 0.270000
v -0.907285 0.016710 0.270000
v -0.907285 0.016710 -0.270000
v -0.930285 0.000000 -0.270000
v -0.958715 0.000000 -0.270000
v -0.981715 0.016710 -0.270000
v -0.990500 0.043749 -0.270000
v -0.981715 0.070787 -0.270000
v -0.958715 0.087497 -0.270000
v -0.930285 0.087497 -0.270000
v -0.907285 0.070787 -0.270000
v -0.898500 0.043749 -0.270000
v -0.898500 0.043749 -0.302000
v -0.907285 0.070787 -0.302000
v -0.930285 0.087497 -0.302000
v -0.958715 0.087497 -0.302000
v -0.981715 0.070787 -0.302000
v -0.990500 0.043749 -0.302000
v -0.981715 0.016710 -0.302000
v -0.958715 0.000000 -0.302000
v -0.930285 0.000000 -0.302000
v -0.907285 0.016710 -0.302000
v -0.980500 0.323749 -0.288000
v 0.511500 0.323749 -0.288000
v 0.511500 0.323749 0.288000
v -0.980500 0.323749 0.288000
v -0.980500 0.357749 0.288000
v 0.511500 0.357749 0.288000
v 0.511500 0.357749 -0.288000
v -0.980500 0.357749 -0.288000
v 0.471500 0.317749 -0.288000
v 0.531500 0.317749 -0.288000
v 0.531500 0.317749 0.288000
v 0.471500 0.317749 0.288000
v 0.871500 0.679749 0.288000
v 0.931500 0.679749 0.288000
v 0.931500 0.679749 -0.288000
v 0.871500 0.679749 -0.288000
v 0.588006 0.553749 0.089898
v 0.549196 0.553749 0.073823
v 0.533121 0.553749 0.035013
v 0.533121 0.553749 -0.035013
v 0.549196 0.553749 -0.073823
v 0.588006 0.553749 -0.089898
v 0.922994 0.553749 -0.089898
v 0.961804 0.553749 -0.073823
v 0.977879 0.553749 -0.035013
v 0.977879 0.553749 0.035013
v 0.961804 0.553749 0.073823
v 0.922994 0.553749 0.089898
v 0.973512 0.565749 0.078012
v 0.932500 0.565749 0.095000
v 0.990500 0.565749 0.037000
v 0.990500 0.565749 -0.037000
v 0.973512 0.565749 -0.078012
v 0.932500 0.565749 -0.095000
v 0.578500 0.565749 -0.095000
v 0.537488 0.565749 -0.078012
v 0.520500 0.565749 -0.037000
v 0.520500 0.565749 0.037000
v 0.537488 0.565749 0.078012
v 0.578500 0.565749 0.095000
v 0.973512 0.591749 0.078012
v 0.932500 0.591749 0.095000
v 0.990500 0.591749 0.037000
v 0.990500 0.591749 -0.037000
v 0.973512 0.591749 -0.078012
v 0.932500 0.591749 -0.095000
v 0.578500 0.591749 -0.095000
v 0.537488 0.591749 -0.078012
v 0.520500 0.591749 -0.037000
v 0.520500 0.591749 0.037000
v 0.537488 0.591749 0.078012
v 0.578500 0.591749 0.095000
v 0.912538 0.609749 0.084286
v 0.948925 0.609749 0.069214
v 0.963997 0.609749 0.032827
v 0.963997 0.609749 -0.032827
v 0.948925 0.609749 -0.069214
v 0.912538 0.609749 -0.084286
v 0.598462 0.609749 -0.084286
v 0.562075 0.609749 -0.069214
v 0.547003 0.609749 -0.032827
v 0.547003 0.609749 0.032827
v 0.562075 0.609749 0.069214
v 0.598462 0.609749 0.084286
vn -1.0000 -0.0000 -0.0000
vn 1.0000 -0.0000 -0.0000
vn -0.0000 -0.3827 0.9239
vn -0.0000 -0.9239 0.3827
vn -0.0000 -0.9239 -0.3827
vn -0.0000 -0.3827 -0.9239
vn -0.0000 0.3827 -0.9239
vn -0.0000 0.9239 -0.3827
vn -0.0000 0.9239 0.3827
vn -0.0000 0.3827 0.9239
vn -0.7763 -0.6303 -0.0000
vn 0.7763 0.6303 -0.0000
vn 0.2412 -0.2971 0.9239
vn 0.5823 -0.7172 0.3827
vn 0.5823 -0.7172 -0.3827
vn 0.2412 -0.2971 -0.9239
vn -0.2412 0.2971 -0.9239
vn -0.5823 0.7172 -0.3827
vn -0.5823 0.7172 0.3827
vn -0.2412 0.2971 0.9239
vn -0.0000 -1.0000 -0.0000
vn -0.0000 1.0000 -0.0000
vn -0.9239 -0.0000 0.3827
vn -0.3827 -0.0000 0.9239
vn 0.3827 -0.0000 0.9239
vn 0.9239 -0.0000 0.3827
vn 0.9239 -0.0000 -0.3827
vn 0.3827 -0.0000 -0.9239
vn -0.3827 -0.0000 -0.9239
vn -0.9239 -0.0000 -0.3827
vn -0.0000 -0.0000 1.0000
vn -0.0000 -0.0000 -1.0000
vn 0.9239 -0.3827 -0.0000
vn 0.3827 -0.9239 -0.0000
vn -0.3827 -0.9239 -0.0000
vn -0.9239 -0.3827 -0.0000
vn -0.9239 0.3827 -0.0000
vn -0.3827 0.9239 -0.0000
vn 0.3827 0.9239 -0.0000
vn 0.9239 0.3827 -0.0000
vn -0.9511 -0.3090 -0.0000
vn -0.5878 -0.8090 -0.0000
vn 0.5878 -0.8090 -0.0000
vn 0.9511 -0.3090 -0.0000
vn 0.9511 0.3090 -0.0000
vn 0.5878 0.8090 -0.0000
vn -0.5878 0.8090 -0.0000
vn -0.9511 0.3090 -0.0000
vn 0.6710 -0.7414 -0.0000
vn -0.6710 0.7414 -0.0000
vn 0.3141 -0.5712 0.7583
vn 0.6419 -0.7192 0.2659
vn 0.6891 -0.7247 -0.0000
vn 0.6419 -0.7192 -0.2659
vn 0.3141 -0.5712 -0.7583
vn -0.0000 -0.3913 -0.9203
vn -0.3141 -0.5712 -0.7583
vn -0.6419 -0.7192 -0.2659
vn -0.6891 -0.7247 -0.0000
vn -0.6419 -0.7192 0.2659
vn -0.3141 -0.5712 0.7583
vn -0.0000 -0.3913 0.9203
vn 0.2741 0.6979 0.6617
vn 0.5247 0.8230 0.2174
vn 0.5618 0.8273 -0.0000
vn 0.5247 0.8230 -0.2174
vn 0.2741 0.6979 -0.6617
vn -0.0000 0.5115 -0.8593
vn -0.2741 0.6979 -0.6617
vn -0.5247 0.8230 -0.2174
vn -0.5618 0.8273 -0.0000
vn -0.5247 0.8230 0.2174
vn -0.2741 0.6979 0.6617
vn -0.0000 0.5115 0.8593
vt 0.312500 0.312500
vt 0.937500 0.312500
vt 0.937500 0.187500
vt 0.812500 0.562500
vt 0.062500 0.687500
s 0
usemtl FN_Atlas
f 1/1/1 2/1/1 3/1/1 4/1/1 5/1/1 6/1/1 7/1/1 8/1/1
f 9/1/2 10/1/2 11/1/2 12/1/2 13/1/2 14/1/2 15/1/2 16/1/2
f 8/1/3 7/1/3 10/1/3 9/1/3
f 7/1/4 6/1/4 11/1/4 10/1/4
f 6/1/5 5/1/5 12/1/5 11/1/5
f 5/1/6 4/1/6 13/1/6 12/1/6
f 4/1/7 3/1/7 14/1/7 13/1/7
f 3/1/8 2/1/8 15/1/8 14/1/8
f 2/1/9 1/1/9 16/1/9 15/1/9
f 1/1/10 8/1/10 9/1/10 16/1/10
f 17/1/11 18/1/11 19/1/11 20/1/11 21/1/11 22/1/11 23/1/11 24/1/11
f 25/1/12 26/1/12 27/1/12 28/1/12 29/1/12 30/1/12 31/1/12 32/1/12
f 24/1/13 23/1/13 26/1/13 25/1/13
f 23/1/14 22/1/14 27/1/14 26/1/14
f 22/1/15 21/1/15 28/1/15 27/1/15
f 21/1/16 20/1/16 29/1/16 28/1/16
f 20/1/17 19/1/17 30/1/17 29/1/17
f 19/1/18 18/1/18 31/1/18 30/1/18
f 18/1/19 17/1/19 32/1/19 31/1/19
f 17/1/20 24/1/20 25/1/20 32/1/20
f 33/1/1 34/1/1 35/1/1 36/1/1 37/1/1 38/1/1 39/1/1 40/1/1
f 41/1/2 42/1/2 43/1/2 44/1/2 45/1/2 46/1/2 47/1/2 48/1/2
f 40/1/3 39/1/3 42/1/3 41/1/3
f 39/1/4 38/1/4 43/1/4 42/1/4
f 38/1/5 37/1/5 44/1/5 43/1/5
f 37/1/6 36/1/6 45/1/6 44/1/6
f 36/1/7 35/1/7 46/1/7 45/1/7
f 35/1/8 34/1/8 47/1/8 46/1/8
f 34/1/9 33/1/9 48/1/9 47/1/9
f 33/1/10 40/1/10 41/1/10 48/1/10
f 49/1/11 50/1/11 51/1/11 52/1/11 53/1/11 54/1/11 55/1/11 56/1/11
f 57/1/12 58/1/12 59/1/12 60/1/12 61/1/12 62/1/12 63/1/12 64/1/12
f 56/1/13 55/1/13 58/1/13 57/1/13
f 55/1/14 54/1/14 59/1/14 58/1/14
f 54/1/15 53/1/15 60/1/15 59/1/15
f 53/1/16 52/1/16 61/1/16 60/1/16
f 52/1/17 51/1/17 62/1/17 61/1/17
f 51/1/18 50/1/18 63/1/18 62/1/18
f 50/1/19 49/1/19 64/1/19 63/1/19
f 49/1/20 56/1/20 57/1/20 64/1/20
f 65/1/21 66/1/21 67/1/21 68/1/21 69/1/21 70/1/21 71/1/21 72/1/21
f 73/1/22 74/1/22 75/1/22 76/1/22 77/1/22 78/1/22 79/1/22 80/1/22
f 72/1/23 71/1/23 74/1/23 73/1/23
f 71/1/24 70/1/24 75/1/24 74/1/24
f 70/1/25 69/1/25 76/1/25 75/1/25
f 69/1/26 68/1/26 77/1/26 76/1/26
f 68/1/27 67/1/27 78/1/27 77/1/27
f 67/1/28 66/1/28 79/1/28 78/1/28
f 66/1/29 65/1/29 80/1/29 79/1/29
f 65/1/30 72/1/30 73/1/30 80/1/30
f 81/1/21 82/1/21 83/1/21 84/1/21 85/1/21 86/1/21 87/1/21 88/1/21
f 89/1/22 90/1/22 91/1/22 92/1/22 93/1/22 94/1/22 95/1/22 96/1/22
f 88/1/23 87/1/23 90/1/23 89/1/23
f 87/1/24 86/1/24 91/1/24 90/1/24
f 86/1/25 85/1/25 92/1/25 91/1/25
f 85/1/26 84/1/26 93/1/26 92/1/26
f 84/1/27 83/1/27 94/1/27 93/1/27
f 83/1/28 82/1/28 95/1/28 94/1/28
f 82/1/29 81/1/29 96/1/29 95/1/29
f 81/1/30 88/1/30 89/1/30 96/1/30
f 97/1/31 98/1/31 99/1/31 100/1/31 101/1/31 102/1/31 103/1/31 104/1/31
f 105/1/32 106/1/32 107/1/32 108/1/32 109/1/32 110/1/32 111/1/32 112/1/32
f 104/1/33 103/1/33 106/1/33 105/1/33
f 103/1/34 102/1/34 107/1/34 106/1/34
f 102/1/35 101/1/35 108/1/35 107/1/35
f 101/1/36 100/1/36 109/1/36 108/1/36
f 100/1/37 99/1/37 110/1/37 109/1/37
f 99/1/38 98/1/38 111/1/38 110/1/38
f 98/1/39 97/1/39 112/1/39 111/1/39
f 97/1/40 104/1/40 105/1/40 112/1/40
f 113/1/21 114/1/21 115/1/21 116/1/21 117/1/21 118/1/21 119/1/21 120/1/21
f 121/1/22 122/1/22 123/1/22 124/1/22 125/1/22 126/1/22 127/1/22 128/1/22
f 120/1/23 119/1/23 122/1/23 121/1/23
f 119/1/24 118/1/24 123/1/24 122/1/24
f 118/1/25 117/1/25 124/1/25 123/1/25
f 117/1/26 116/1/26 125/1/26 124/1/26
f 116/1/27 115/1/27 126/1/27 125/1/27
f 115/1/28 114/1/28 127/1/28 126/1/28
f 114/1/29 113/1/29 128/1/29 127/1/29
f 113/1/30 120/1/30 121/1/30 128/1/30
f 129/1/21 130/1/21 131/1/21 132/1/21 133/1/21 134/1/21 135/1/21 136/1/21
f 137/1/22 138/1/22 139/1/22 140/1/22 141/1/22 142/1/22 143/1/22 144/1/22
f 136/1/23 135/1/23 138/1/23 137/1/23
f 135/1/24 134/1/24 139/1/24 138/1/24
f 134/1/25 133/1/25 140/1/25 139/1/25
f 133/1/26 132/1/26 141/1/26 140/1/26
f 132/1/27 131/1/27 142/1/27 141/1/27
f 131/1/28 130/1/28 143/1/28 142/1/28
f 130/1/29 129/1/29 144/1/29 143/1/29
f 129/1/30 136/1/30 137/1/30 144/1/30
f 145/1/31 146/1/31 147/1/31 148/1/31 149/1/31 150/1/31 151/1/31 152/1/31
f 153/1/32 154/1/32 155/1/32 156/1/32 157/1/32 158/1/32 159/1/32 160/1/32
f 152/1/33 151/1/33 154/1/33 153/1/33
f 151/1/34 150/1/34 155/1/34 154/1/34
f 150/1/35 149/1/35 156/1/35 155/1/35
f 149/1/36 148/1/36 157/1/36 156/1/36
f 148/1/37 147/1/37 158/1/37 157/1/37
f 147/1/38 146/1/38 159/1/38 158/1/38
f 146/1/39 145/1/39 160/1/39 159/1/39
f 145/1/40 152/1/40 153/1/40 160/1/40
f 161/2/31 162/2/31 163/2/31 164/2/31 165/2/31 166/2/31 167/2/31 168/2/31
f 169/2/32 170/2/32 171/2/32 172/2/32 173/2/32 174/2/32 175/2/32 176/2/32
f 168/2/33 167/2/33 170/2/33 169/2/33
f 167/2/34 166/2/34 171/2/34 170/2/34
f 166/2/35 165/2/35 172/2/35 171/2/35
f 165/2/36 164/2/36 173/2/36 172/2/36
f 164/2/37 163/2/37 174/2/37 173/2/37
f 163/2/38 162/2/38 175/2/38 174/2/38
f 162/2/39 161/2/39 176/2/39 175/2/39
f 161/2/40 168/2/40 169/2/40 176/2/40
f 177/1/21 178/1/21 179/1/21 180/1/21 181/1/21 182/1/21 183/1/21 184/1/21
f 185/1/22 186/1/22 187/1/22 188/1/22 189/1/22 190/1/22 191/1/22 192/1/22
f 184/1/23 183/1/23 186/1/23 185/1/23
f 183/1/24 182/1/24 187/1/24 186/1/24
f 182/1/25 181/1/25 188/1/25 187/1/25
f 181/1/26 180/1/26 189/1/26 188/1/26
f 180/1/27 179/1/27 190/1/27 189/1/27
f 179/1/28 178/1/28 191/1/28 190/1/28
f 178/1/29 177/1/29 192/1/29 191/1/29
f 177/1/30 184/1/30 185/1/30 192/1/30
f 193/1/21 194/1/21 195/1/21 196/1/21 197/1/21 198/1/21 199/1/21 200/1/21
f 201/1/22 202/1/22 203/1/22 204/1/22 205/1/22 206/1/22 207/1/22 208/1/22
f 200/1/23 199/1/23 202/1/23 201/1/23
f 199/1/24 198/1/24 203/1/24 202/1/24
f 198/1/25 197/1/25 204/1/25 203/1/25
f 197/1/26 196/1/26 205/1/26 204/1/26
f 196/1/27 195/1/27 206/1/27 205/1/27
f 195/1/28 194/1/28 207/1/28 206/1/28
f 194/1/29 193/1/29 208/1/29 207/1/29
f 193/1/30 200/1/30 201/1/30 208/1/30
f 209/3/32 210/3/32 211/3/32 212/3/32 213/3/32 214/3/32 215/3/32 216/3/32 217/3/32 218/3/32
f 219/3/31 220/3/31 221/3/31 222/3/31 223/3/31 224/3/31 225/3/31 226/3/31 227/3/31 228/3/31
f 218/3/41 217/3/41 220/3/41 219/3/41
f 217/3/42 216/3/42 221/3/42 220/3/42
f 216/3/21 215/3/21 222/3/21 221/3/21
f 215/3/43 214/3/43 223/3/43 222/3/43
f 214/3/44 213/3/44 224/3/44 223/3/44
f 213/3/45 212/3/45 225/3/45 224/3/45
f 212/3/46 211/3/46 226/3/46 225/3/46
f 211/3/22 210/3/22 227/3/22 226/3/22
f 210/3/47 209/3/47 228/3/47 227/3/47
f 209/3/48 218/3/48 219/3/48 228/3/48
f 229/3/32 230/3/32 231/3/32 232/3/32 233/3/32 234/3/32 235/3/32 236/3/32 237/3/32 238/3/32
f 239/3/31 240/3/31 241/3/31 242/3/31 243/3/31 244/3/31 245/3/31 246/3/31 247/3/31 248/3/31
f 238/3/41 237/3/41 240/3/41 239/3/41
f 237/3/42 236/3/42 241/3/42 240/3/42
f 236/3/21 235/3/21 242/3/21 241/3/21
f 235/3/43 234/3/43 243/3/43 242/3/43
f 234/3/44 233/3/44 244/3/44 243/3/44
f 233/3/45 232/3/45 245/3/45 244/3/45
f 232/3/46 231/3/46 246/3/46 245/3/46
f 231/3/22 230/3/22 247/3/22 246/3/22
f 230/3/47 229/3/47 248/3/47 247/3/47
f 229/3/48 238/3/48 239/3/48 248/3/48
f 249/4/21 250/4/21 251/4/21 252/4/21
f 253/4/22 254/4/22 255/4/22 256/4/22
f 252/4/31 251/4/31 254/4/31 253/4/31
f 251/4/2 250/4/2 255/4/2 254/4/2
f 250/4/32 249/4/32 256/4/32 255/4/32
f 249/4/1 252/4/1 253/4/1 256/4/1
f 257/4/21 258/4/21 259/4/21 260/4/21
f 261/4/22 262/4/22 263/4/22 264/4/22
f 260/4/31 259/4/31 262/4/31 261/4/31
f 259/4/49 258/4/49 263/4/49 262/4/49
f 258/4/32 257/4/32 264/4/32 263/4/32
f 257/4/50 260/4/50 261/4/50 264/4/50
f 265/5/21 266/5/21 267/5/21 268/5/21 269/5/21 270/5/21 271/5/21 272/5/21 273/5/21 274/5/21 275/5/21 276/5/21
f 276/5/51 275/5/51 277/5/51 278/5/51
f 275/5/52 274/5/52 279/5/52 277/5/52
f 274/5/53 273/5/53 280/5/53 279/5/53
f 273/5/54 272/5/54 281/5/54 280/5/54
f 272/5/55 271/5/55 282/5/55 281/5/55
f 271/5/56 270/5/56 283/5/56 282/5/56
f 270/5/57 269/5/57 284/5/57 283/5/57
f 269/5/58 268/5/58 285/5/58 284/5/58
f 268/5/59 267/5/59 286/5/59 285/5/59
f 267/5/60 266/5/60 287/5/60 286/5/60
f 266/5/61 265/5/61 288/5/61 287/5/61
f 265/5/62 276/5/62 278/5/62 288/5/62
f 278/5/25 277/5/25 289/5/25 290/5/25
f 277/5/26 279/5/26 291/5/26 289/5/26
f 279/5/2 280/5/2 292/5/2 291/5/2
f 280/5/27 281/5/27 293/5/27 292/5/27
f 281/5/28 282/5/28 294/5/28 293/5/28
f 282/5/32 283/5/32 295/5/32 294/5/32
f 283/5/29 284/5/29 296/5/29 295/5/29
f 284/5/30 285/5/30 297/5/30 296/5/30
f 285/5/1 286/5/1 298/5/1 297/5/1
f 286/5/23 287/5/23 299/5/23 298/5/23
f 287/5/24 288/5/24 300/5/24 299/5/24
f 288/5/31 278/5/31 290/5/31 300/5/31
f 301/5/22 302/5/22 303/5/22 304/5/22 305/5/22 306/5/22 307/5/22 308/5/22 309/5/22 310/5/22 311/5/22 312/5/22
f 290/5/63 289/5/63 302/5/63 301/5/63
f 289/5/64 291/5/64 303/5/64 302/5/64
f 291/5/65 292/5/65 304/5/65 303/5/65
f 292/5/66 293/5/66 305/5/66 304/5/66
f 293/5/67 294/5/67 306/5/67 305/5/67
f 294/5/68 295/5/68 307/5/68 306/5/68
f 295/5/69 296/5/69 308/5/69 307/5/69
f 296/5/70 297/5/70 309/5/70 308/5/70
f 297/5/71 298/5/71 310/5/71 309/5/71
f 298/5/72 299/5/72 311/5/72 310/5/72
f 299/5/73 300/5/73 312/5/73 311/5/73
f 300/5/74 290/5/74 301/5/74 312/5/74
