# Blender 5.2.0 LTS
# www.blender.org
mtllib FN_Mat_Scraper.mtl
o FN_Mat_Scraper
v -0.350000 0.018000 0.213000
v -0.350000 0.018000 0.195000
v -0.350000 0.000000 0.195000
v -0.350000 0.000000 0.225000
v 0.350000 0.000000 0.225000
v 0.350000 0.000000 0.195000
v 0.350000 0.018000 0.195000
v 0.350000 0.018000 0.213000
v -0.350000 0.000000 -0.225000
v -0.350000 0.000000 -0.195000
v -0.350000 0.018000 -0.195000
v -0.350000 0.018000 -0.213000
v 0.350000 0.018000 -0.213000
v 0.350000 0.018000 -0.195000
v 0.350000 0.000000 -0.195000
v 0.350000 0.000000 -0.225000
v -0.350000 0.000000 0.205000
v -0.320000 0.000000 0.205000
v -0.320000 0.018000 0.205000
v -0.338000 0.018000 0.205000
v -0.338000 0.018000 -0.205000
v -0.320000 0.018000 -0.205000
v -0.320000 0.000000 -0.205000
v -0.350000 0.000000 -0.205000
v 0.338000 0.018000 0.205000
v 0.320000 0.018000 0.205000
v 0.320000 0.000000 0.205000
v 0.350000 0.000000 0.205000
v 0.350000 0.000000 -0.205000
v 0.320000 0.000000 -0.205000
v 0.320000 0.018000 -0.205000
v 0.338000 0.018000 -0.205000
v -0.325000 0.012000 0.206000
v -0.325000 0.012000 0.186000
v -0.325000 0.000000 0.182000
v -0.325000 0.000000 0.210000
v 0.325000 0.000000 0.210000
v 0.325000 0.000000 0.182000
v 0.325000 0.012000 0.186000
v 0.325000 0.012000 0.206000
v -0.325000 0.012000 0.140667
v -0.325000 0.012000 0.120667
v -0.325000 0.000000 0.116667
v -0.325000 0.000000 0.144667
v 0.325000 0.000000 0.144667
v 0.325000 0.000000 0.116667
v 0.325000 0.012000 0.120667
v 0.325000 0.012000 0.140667
v -0.325000 0.012000 0.075333
v -0.325000 0.012000 0.055333
v -0.325000 0.000000 0.051333
v -0.325000 0.000000 0.079333
v 0.325000 0.000000 0.079333
v 0.325000 0.000000 0.051333
v 0.325000 0.012000 0.055333
v 0.325000 0.012000 0.075333
v -0.325000 0.012000 0.010000
v -0.325000 0.012000 -0.010000
v -0.325000 0.000000 -0.014000
v -0.325000 0.000000 0.014000
v 0.325000 0.000000 0.014000
v 0.325000 0.000000 -0.014000
v 0.325000 0.012000 -0.010000
v 0.325000 0.012000 0.010000
v -0.325000 0.012000 -0.055333
v -0.325000 0.012000 -0.075333
v -0.325000 0.000000 -0.079333
v -0.325000 0.000000 -0.051333
v 0.325000 0.000000 -0.051333
v 0.325000 0.000000 -0.079333
v 0.325000 0.012000 -0.075333
v 0.325000 0.012000 -0.055333
v -0.325000 0.012000 -0.120667
v -0.325000 0.012000 -0.140667
v -0.325000 0.000000 -0.144667
v -0.325000 0.000000 -0.116667
v 0.325000 0.000000 -0.116667
v 0.325000 0.000000 -0.144667
v 0.325000 0.012000 -0.140667
v 0.325000 0.012000 -0.120667
v -0.325000 0.012000 -0.186000
v -0.325000 0.012000 -0.206000
v -0.325000 0.000000 -0.210000
v -0.325000 0.000000 -0.182000
v 0.325000 0.000000 -0.182000
v 0.325000 0.000000 -0.210000
v 0.325000 0.012000 -0.206000
v 0.325000 0.012000 -0.186000
vn -1.0000 -0.0000 -0.0000
vn 1.0000 -0.0000 -0.0000
vn -0.0000 -1.0000 -0.0000
vn -0.0000 -0.0000 -1.0000
vn -0.0000 1.0000 -0.0000
vn -0.0000 0.5547 0.8320
vn -0.0000 -0.0000 1.0000
vn -0.0000 0.5547 -0.8321
vn -0.8321 0.5547 -0.0000
vn 0.8321 0.5547 -0.0000
vn -0.0000 0.3162 -0.9487
vn -0.0000 0.3162 0.9487
vt 0.687500 0.062500
vt 0.937500 0.937500
s 0
usemtl FN_Atlas
f 1/1/1 2/1/1 3/1/1 4/1/1
f 5/1/2 6/1/2 7/1/2 8/1/2
f 4/1/3 3/1/3 6/1/3 5/1/3
f 3/1/4 2/1/4 7/1/4 6/1/4
f 2/1/5 1/1/5 8/1/5 7/1/5
f 1/1/6 4/1/6 5/1/6 8/1/6
f 9/1/1 10/1/1 11/1/1 12/1/1
f 13/1/2 14/1/2 15/1/2 16/1/2
f 16/1/3 15/1/3 10/1/3 9/1/3
f 15/1/7 14/1/7 11/1/7 10/1/7
f 14/1/5 13/1/5 12/1/5 11/1/5
f 13/1/8 16/1/8 9/1/8 12/1/8
f 17/1/7 18/1/7 19/1/7 20/1/7
f 21/1/4 22/1/4 23/1/4 24/1/4
f 24/1/3 23/1/3 18/1/3 17/1/3
f 23/1/2 22/1/2 19/1/2 18/1/2
f 22/1/5 21/1/5 20/1/5 19/1/5
f 21/1/9 24/1/9 17/1/9 20/1/9
f 25/1/7 26/1/7 27/1/7 28/1/7
f 29/1/4 30/1/4 31/1/4 32/1/4
f 28/1/3 27/1/3 30/1/3 29/1/3
f 27/1/1 26/1/1 31/1/1 30/1/1
f 26/1/5 25/1/5 32/1/5 31/1/5
f 25/1/10 28/1/10 29/1/10 32/1/10
f 33/2/1 34/2/1 35/2/1 36/2/1
f 37/2/2 38/2/2 39/2/2 40/2/2
f 36/2/3 35/2/3 38/2/3 37/2/3
f 35/2/11 34/2/11 39/2/11 38/2/11
f 34/2/5 33/2/5 40/2/5 39/2/5
f 33/2/12 36/2/12 37/2/12 40/2/12
f 41/2/1 42/2/1 43/2/1 44/2/1
f 45/2/2 46/2/2 47/2/2 48/2/2
f 44/2/3 43/2/3 46/2/3 45/2/3
f 43/2/11 42/2/11 47/2/11 46/2/11
f 42/2/5 41/2/5 48/2/5 47/2/5
f 41/2/12 44/2/12 45/2/12 48/2/12
f 49/2/1 50/2/1 51/2/1 52/2/1
f 53/2/2 54/2/2 55/2/2 56/2/2
f 52/2/3 51/2/3 54/2/3 53/2/3
f 51/2/11 50/2/11 55/2/11 54/2/11
f 50/2/5 49/2/5 56/2/5 55/2/5
f 49/2/12 52/2/12 53/2/12 56/2/12
f 57/2/1 58/2/1 59/2/1 60/2/1
f 61/2/2 62/2/2 63/2/2 64/2/2
f 60/2/3 59/2/3 62/2/3 61/2/3
f 59/2/11 58/2/11 63/2/11 62/2/11
f 58/2/5 57/2/5 64/2/5 63/2/5
f 57/2/12 60/2/12 61/2/12 64/2/12
f 65/2/1 66/2/1 67/2/1 68/2/1
f 69/2/2 70/2/2 71/2/2 72/2/2
f 68/2/3 67/2/3 70/2/3 69/2/3
f 67/2/11 66/2/11 71/2/11 70/2/11
f 66/2/5 65/2/5 72/2/5 71/2/5
f 65/2/12 68/2/12 69/2/12 72/2/12
f 73/2/1 74/2/1 75/2/1 76/2/1
f 77/2/2 78/2/2 79/2/2 80/2/2
f 76/2/3 75/2/3 78/2/3 77/2/3
f 75/2/11 74/2/11 79/2/11 78/2/11
f 74/2/5 73/2/5 80/2/5 79/2/5
f 73/2/12 76/2/12 77/2/12 80/2/12
f 81/2/1 82/2/1 83/2/1 84/2/1
f 85/2/2 86/2/2 87/2/2 88/2/2
f 84/2/3 83/2/3 86/2/3 85/2/3
f 83/2/11 82/2/11 87/2/11 86/2/11
f 82/2/5 81/2/5 88/2/5 87/2/5
f 81/2/12 84/2/12 85/2/12 88/2/12
