# Blender 5.2.0 LTS
# www.blender.org
mtllib FN_Pedestal_Filing.mtl
o FN_Pedestal_Filing
v -0.210000 0.072000 0.279000
v -0.210000 0.072000 -0.301000
v 0.210000 0.072000 -0.301000
v 0.210000 0.072000 0.279000
v -0.210000 0.640000 0.279000
v 0.210000 0.640000 0.279000
v 0.210000 0.640000 -0.301000
v -0.210000 0.640000 -0.301000
v -0.163000 0.032000 0.167000
v -0.163000 0.054627 0.176373
v -0.163000 0.064000 0.199000
v -0.163000 0.054627 0.221627
v -0.163000 0.032000 0.231000
v -0.163000 0.009373 0.221627
v -0.163000 0.000000 0.199000
v -0.163000 0.009373 0.176373
v -0.137000 0.009373 0.176373
v -0.137000 0.000000 0.199000
v -0.137000 0.009373 0.221627
v -0.137000 0.032000 0.231000
v -0.137000 0.054627 0.221627
v -0.137000 0.064000 0.199000
v -0.137000 0.054627 0.176373
v -0.137000 0.032000 0.167000
v -0.166000 0.056000 0.219000
v -0.166000 0.056000 0.179000
v -0.134000 0.056000 0.179000
v -0.134000 0.056000 0.219000
v -0.166000 0.082000 0.219000
v -0.134000 0.082000 0.219000
v -0.134000 0.082000 0.179000
v -0.166000 0.082000 0.179000
v -0.163000 0.032000 -0.253000
v -0.163000 0.054627 -0.243627
v -0.163000 0.064000 -0.221000
v -0.163000 0.054627 -0.198373
v -0.163000 0.032000 -0.189000
v -0.163000 0.009373 -0.198373
v -0.163000 0.000000 -0.221000
v -0.163000 0.009373 -0.243627
v -0.137000 0.009373 -0.243627
v -0.137000 0.000000 -0.221000
v -0.137000 0.009373 -0.198373
v -0.137000 0.032000 -0.189000
v -0.137000 0.054627 -0.198373
v -0.137000 0.064000 -0.221000
v -0.137000 0.054627 -0.243627
v -0.137000 0.032000 -0.253000
v -0.166000 0.056000 -0.201000
v -0.166000 0.056000 -0.241000
v -0.134000 0.056000 -0.241000
v -0.134000 0.056000 -0.201000
v -0.166000 0.082000 -0.201000
v -0.134000 0.082000 -0.201000
v -0.134000 0.082000 -0.241000
v -0.166000 0.082000 -0.241000
v 0.137000 0.032000 0.167000
v 0.137000 0.054627 0.176373
v 0.137000 0.064000 0.199000
v 0.137000 0.054627 0.221627
v 0.137000 0.032000 0.231000
v 0.137000 0.009373 0.221627
v 0.137000 0.000000 0.199000
v 0.137000 0.009373 0.176373
v 0.163000 0.009373 0.176373
v 0.163000 0.000000 0.199000
v 0.163000 0.009373 0.221627
v 0.163000 0.032000 0.231000
v 0.163000 0.054627 0.221627
v 0.163000 0.064000 0.199000
v 0.163000 0.054627 0.176373
v 0.163000 0.032000 0.167000
v 0.134000 0.056000 0.219000
v 0.134000 0.056000 0.179000
v 0.166000 0.056000 0.179000
v 0.166000 0.056000 0.219000
v 0.134000 0.082000 0.219000
v 0.166000 0.082000 0.219000
v 0.166000 0.082000 0.179000
v 0.134000 0.082000 0.179000
v 0.137000 0.032000 -0.253000
v 0.137000 0.054627 -0.243627
v 0.137000 0.064000 -0.221000
v 0.137000 0.054627 -0.198373
v 0.137000 0.032000 -0.189000
v 0.137000 0.009373 -0.198373
v 0.137000 0.000000 -0.221000
v 0.137000 0.009373 -0.243627
v 0.163000 0.009373 -0.243627
v 0.163000 0.000000 -0.221000
v 0.163000 0.009373 -0.198373
v 0.163000 0.032000 -0.189000
v 0.163000 0.054627 -0.198373
v 0.163000 0.064000 -0.221000
v 0.163000 0.054627 -0.243627
v 0.163000 0.032000 -0.253000
v 0.134000 0.056000 -0.201000
v 0.134000 0.056000 -0.241000
v 0.166000 0.056000 -0.241000
v 0.166000 0.056000 -0.201000
v 0.134000 0.082000 -0.201000
v 0.166000 0.082000 -0.201000
v 0.166000 0.082000 -0.241000
v 0.134000 0.082000 -0.241000
v -0.202000 0.084000 0.287000
v -0.202000 0.084000 0.279000
v 0.202000 0.084000 0.279000
v 0.202000 0.084000 0.287000
v -0.202000 0.336000 0.287000
v 0.202000 0.336000 0.287000
v 0.202000 0.336000 0.279000
v -0.202000 0.336000 0.279000
v -0.070000 0.292000 0.301000
v -0.070000 0.292000 0.283000
v 0.070000 0.292000 0.283000
v 0.070000 0.292000 0.301000
v -0.070000 0.316000 0.301000
v 0.070000 0.316000 0.301000
v 0.070000 0.316000 0.283000
v -0.070000 0.316000 0.283000
v -0.202000 0.346000 0.287000
v -0.202000 0.346000 0.279000
v 0.202000 0.346000 0.279000
v 0.202000 0.346000 0.287000
v -0.202000 0.474000 0.287000
v 0.202000 0.474000 0.287000
v 0.202000 0.474000 0.279000
v -0.202000 0.474000 0.279000
v -0.070000 0.430000 0.301000
v -0.070000 0.430000 0.283000
v 0.070000 0.430000 0.283000
v 0.070000 0.430000 0.301000
v -0.070000 0.454000 0.301000
v 0.070000 0.454000 0.301000
v 0.070000 0.454000 0.283000
v -0.070000 0.454000 0.283000
v -0.202000 0.484000 0.287000
v -0.202000 0.484000 0.279000
v 0.202000 0.484000 0.279000
v 0.202000 0.484000 0.287000
v -0.202000 0.612000 0.287000
v 0.202000 0.612000 0.287000
v 0.202000 0.612000 0.279000
v -0.202000 0.612000 0.279000
v -0.070000 0.568000 0.301000
v -0.070000 0.568000 0.283000
v 0.070000 0.568000 0.283000
v 0.070000 0.568000 0.301000
v -0.070000 0.592000 0.301000
v 0.070000 0.592000 0.301000
v 0.070000 0.592000 0.283000
v -0.070000 0.592000 0.283000
vn -0.0000 -1.0000 -0.0000
vn -0.0000 1.0000 -0.0000
vn -0.0000 -0.0000 1.0000
vn -0.0000 -0.0000 -1.0000
vn -1.0000 -0.0000 -0.0000
vn 1.0000 -0.0000 -0.0000
vn -0.0000 0.3827 -0.9239
vn -0.0000 0.9239 -0.3827
vn -0.0000 0.9239 0.3827
vn -0.0000 0.3827 0.9239
vn -0.0000 -0.3827 0.9239
vn -0.0000 -0.9239 0.3827
vn -0.0000 -0.9239 -0.3827
vn -0.0000 -0.3827 -0.9239
vt 0.687500 0.312500
vt 0.937500 0.187500
vt 0.062500 0.312500
vt 0.687500 0.812500
vt 0.812500 0.312500
s 0
usemtl FN_Atlas
f 1/1/1 2/1/1 3/1/1 4/1/1
f 5/1/2 6/1/2 7/1/2 8/1/2
f 1/1/3 4/1/3 6/1/3 5/1/3
f 3/1/4 2/1/4 8/1/4 7/1/4
f 1/1/5 5/1/5 8/1/5 2/1/5
f 4/1/6 3/1/6 7/1/6 6/1/6
f 9/2/6 10/2/6 11/2/6 12/2/6 13/2/6 14/2/6 15/2/6 16/2/6
f 17/2/5 18/2/5 19/2/5 20/2/5 21/2/5 22/2/5 23/2/5 24/2/5
f 9/2/7 10/2/7 23/2/7 24/2/7
f 10/2/8 11/2/8 22/2/8 23/2/8
f 11/2/9 12/2/9 21/2/9 22/2/9
f 12/2/10 13/2/10 20/2/10 21/2/10
f 13/2/11 14/2/11 19/2/11 20/2/11
f 14/2/12 15/2/12 18/2/12 19/2/12
f 15/2/13 16/2/13 17/2/13 18/2/13
f 16/2/14 9/2/14 24/2/14 17/2/14
f 25/3/1 26/3/1 27/3/1 28/3/1
f 29/3/2 30/3/2 31/3/2 32/3/2
f 25/3/3 28/3/3 30/3/3 29/3/3
f 27/3/4 26/3/4 32/3/4 31/3/4
f 25/3/5 29/3/5 32/3/5 26/3/5
f 28/3/6 27/3/6 31/3/6 30/3/6
f 33/2/6 34/2/6 35/2/6 36/2/6 37/2/6 38/2/6 39/2/6 40/2/6
f 41/2/5 42/2/5 43/2/5 44/2/5 45/2/5 46/2/5 47/2/5 48/2/5
f 33/2/7 34/2/7 47/2/7 48/2/7
f 34/2/8 35/2/8 46/2/8 47/2/8
f 35/2/9 36/2/9 45/2/9 46/2/9
f 36/2/10 37/2/10 44/2/10 45/2/10
f 37/2/11 38/2/11 43/2/11 44/2/11
f 38/2/12 39/2/12 42/2/12 43/2/12
f 39/2/13 40/2/13 41/2/13 42/2/13
f 40/2/14 33/2/14 48/2/14 41/2/14
f 49/3/1 50/3/1 51/3/1 52/3/1
f 53/3/2 54/3/2 55/3/2 56/3/2
f 49/3/3 52/3/3 54/3/3 53/3/3
f 51/3/4 50/3/4 56/3/4 55/3/4
f 49/3/5 53/3/5 56/3/5 50/3/5
f 52/3/6 51/3/6 55/3/6 54/3/6
f 57/2/6 58/2/6 59/2/6 60/2/6 61/2/6 62/2/6 63/2/6 64/2/6
f 65/2/5 66/2/5 67/2/5 68/2/5 69/2/5 70/2/5 71/2/5 72/2/5
f 57/2/7 58/2/7 71/2/7 72/2/7
f 58/2/8 59/2/8 70/2/8 71/2/8
f 59/2/9 60/2/9 69/2/9 70/2/9
f 60/2/10 61/2/10 68/2/10 69/2/10
f 61/2/11 62/2/11 67/2/11 68/2/11
f 62/2/12 63/2/12 66/2/12 67/2/12
f 63/2/13 64/2/13 65/2/13 66/2/13
f 64/2/14 57/2/14 72/2/14 65/2/14
f 73/3/1 74/3/1 75/3/1 76/3/1
f 77/3/2 78/3/2 79/3/2 80/3/2
f 73/3/3 76/3/3 78/3/3 77/3/3
f 75/3/4 74/3/4 80/3/4 79/3/4
f 73/3/5 77/3/5 80/3/5 74/3/5
f 76/3/6 75/3/6 79/3/6 78/3/6
f 81/2/6 82/2/6 83/2/6 84/2/6 85/2/6 86/2/6 87/2/6 88/2/6
f 89/2/5 90/2/5 91/2/5 92/2/5 93/2/5 94/2/5 95/2/5 96/2/5
f 81/2/7 82/2/7 95/2/7 96/2/7
f 82/2/8 83/2/8 94/2/8 95/2/8
f 83/2/9 84/2/9 93/2/9 94/2/9
f 84/2/10 85/2/10 92/2/10 93/2/10
f 85/2/11 86/2/11 91/2/11 92/2/11
f 86/2/12 87/2/12 90/2/12 91/2/12
f 87/2/13 88/2/13 89/2/13 90/2/13
f 88/2/14 81/2/14 96/2/14 89/2/14
f 97/3/1 98/3/1 99/3/1 100/3/1
f 101/3/2 102/3/2 103/3/2 104/3/2
f 97/3/3 100/3/3 102/3/3 101/3/3
f 99/3/4 98/3/4 104/3/4 103/3/4
f 97/3/5 101/3/5 104/3/5 98/3/5
f 100/3/6 99/3/6 103/3/6 102/3/6
f 105/4/1 106/4/1 107/4/1 108/4/1
f 109/4/2 110/4/2 111/4/2 112/4/2
f 105/4/3 108/4/3 110/4/3 109/4/3
f 107/4/4 106/4/4 112/4/4 111/4/4
f 105/4/5 109/4/5 112/4/5 106/4/5
f 108/4/6 107/4/6 111/4/6 110/4/6
f 113/5/1 114/5/1 115/5/1 116/5/1
f 117/5/2 118/5/2 119/5/2 120/5/2
f 113/5/3 116/5/3 118/5/3 117/5/3
f 115/5/4 114/5/4 120/5/4 119/5/4
f 113/5/5 117/5/5 120/5/5 114/5/5
f 116/5/6 115/5/6 119/5/6 118/5/6
f 121/4/1 122/4/1 123/4/1 124/4/1
f 125/4/2 126/4/2 127/4/2 128/4/2
f 121/4/3 124/4/3 126/4/3 125/4/3
f 123/4/4 122/4/4 128/4/4 127/4/4
f 121/4/5 125/4/5 128/4/5 122/4/5
f 124/4/6 123/4/6 127/4/6 126/4/6
f 129/5/1 130/5/1 131/5/1 132/5/1
f 133/5/2 134/5/2 135/5/2 136/5/2
f 129/5/3 132/5/3 134/5/3 133/5/3
f 131/5/4 130/5/4 136/5/4 135/5/4
f 129/5/5 133/5/5 136/5/5 130/5/5
f 132/5/6 131/5/6 135/5/6 134/5/6
f 137/4/1 138/4/1 139/4/1 140/4/1
f 141/4/2 142/4/2 143/4/2 144/4/2
f 137/4/3 140/4/3 142/4/3 141/4/3
f 139/4/4 138/4/4 144/4/4 143/4/4
f 137/4/5 141/4/5 144/4/5 138/4/5
f 140/4/6 139/4/6 143/4/6 142/4/6
f 145/5/1 146/5/1 147/5/1 148/5/1
f 149/5/2 150/5/2 151/5/2 152/5/2
f 145/5/3 148/5/3 150/5/3 149/5/3
f 147/5/4 146/5/4 152/5/4 151/5/4
f 145/5/5 149/5/5 152/5/5 146/5/5
f 148/5/6 147/5/6 151/5/6 150/5/6
