# Blender 5.2.0 LTS
# www.blender.org
mtllib FN_Planter_Hanging.mtl
o FN_Planter_Hanging
v 0.050000 -0.014000 0.000000
v 0.035355 -0.014000 -0.035355
v 0.035355 0.000000 -0.035355
v 0.050000 0.000000 0.000000
v 0.000000 -0.014000 -0.050000
v 0.000000 0.000000 -0.050000
v -0.035355 -0.014000 -0.035355
v -0.035355 0.000000 -0.035355
v -0.050000 -0.014000 -0.000000
v -0.050000 0.000000 -0.000000
v -0.035355 -0.014000 0.035355
v -0.035355 0.000000 0.035355
v -0.000000 -0.014000 0.050000
v -0.000000 0.000000 0.050000
v 0.035355 -0.014000 0.035355
v 0.035355 0.000000 0.035355
v -0.008000 -0.034000 0.008000
v -0.008000 -0.034000 -0.008000
v 0.008000 -0.034000 -0.008000
v 0.008000 -0.034000 0.008000
v -0.008000 -0.010000 0.008000
v 0.008000 -0.010000 0.008000
v 0.008000 -0.010000 -0.008000
v -0.008000 -0.010000 -0.008000
v 0.003000 -0.024659 -0.005020
v -0.003000 -0.024659 -0.005020
v -0.006000 -0.026000 0.000000
v -0.003000 -0.027341 0.005020
v 0.003000 -0.027341 0.005020
v 0.006000 -0.026000 0.000000
v 0.006000 -0.520000 -0.132000
v 0.003000 -0.521341 -0.126980
v -0.003000 -0.521341 -0.126980
v -0.006000 -0.520000 -0.132000
v -0.003000 -0.518659 -0.137020
v 0.003000 -0.518659 -0.137020
v 0.002772 -0.027330 -0.005153
v -0.003074 -0.025977 -0.005153
v -0.005846 -0.024647 0.000000
v -0.002772 -0.024670 0.005153
v 0.003074 -0.026023 0.005153
v 0.005846 -0.027353 0.000000
v -0.108470 -0.521353 0.066000
v -0.111241 -0.520023 0.071153
v -0.117087 -0.518670 0.071153
v -0.120161 -0.518647 0.066000
v -0.117389 -0.519977 0.060847
v -0.111544 -0.521330 0.060847
v 0.003074 -0.025977 -0.005153
v -0.002772 -0.027330 -0.005153
v -0.005846 -0.027353 0.000000
v -0.003074 -0.026023 0.005153
v 0.002772 -0.024670 0.005153
v 0.005846 -0.024647 0.000000
v 0.120161 -0.518647 0.066000
v 0.117087 -0.518670 0.071153
v 0.111241 -0.520023 0.071153
v 0.108470 -0.521353 0.066000
v 0.111544 -0.521330 0.060847
v 0.117389 -0.519977 0.060847
v 0.145000 -0.520000 0.000000
v 0.125574 -0.520000 -0.072500
v 0.086603 -0.700000 -0.050000
v 0.100000 -0.700000 0.000000
v 0.072500 -0.520000 -0.125574
v 0.050000 -0.700000 -0.086603
v 0.000000 -0.520000 -0.145000
v 0.000000 -0.700000 -0.100000
v -0.072500 -0.520000 -0.125574
v -0.050000 -0.700000 -0.086603
v -0.125574 -0.520000 -0.072500
v -0.086603 -0.700000 -0.050000
v -0.145000 -0.520000 -0.000000
v -0.100000 -0.700000 -0.000000
v -0.125574 -0.520000 0.072500
v -0.086603 -0.700000 0.050000
v -0.072500 -0.520000 0.125574
v -0.050000 -0.700000 0.086603
v -0.000000 -0.520000 0.145000
v -0.000000 -0.700000 0.100000
v 0.072500 -0.520000 0.125574
v 0.050000 -0.700000 0.086603
v 0.125574 -0.520000 0.072500
v 0.086603 -0.700000 0.050000
v 0.112583 -0.520000 -0.065000
v 0.130000 -0.520000 0.000000
v 0.065000 -0.520000 -0.112583
v 0.000000 -0.520000 -0.130000
v -0.065000 -0.520000 -0.112583
v -0.112583 -0.520000 -0.065000
v -0.130000 -0.520000 -0.000000
v -0.112583 -0.520000 0.065000
v -0.065000 -0.520000 0.112583
v -0.000000 -0.520000 0.130000
v 0.065000 -0.520000 0.112583
v 0.112583 -0.520000 0.065000
v 0.088000 -0.678000 0.000000
v 0.076210 -0.678000 -0.044000
v 0.044000 -0.678000 -0.076210
v 0.000000 -0.678000 -0.088000
v -0.044000 -0.678000 -0.076210
v -0.076210 -0.678000 -0.044000
v -0.088000 -0.678000 -0.000000
v -0.076210 -0.678000 0.044000
v -0.044000 -0.678000 0.076210
v -0.000000 -0.678000 0.088000
v 0.044000 -0.678000 0.076210
v 0.076210 -0.678000 0.044000
v 0.126000 -0.570000 0.000000
v 0.109119 -0.570000 -0.063000
v 0.109119 -0.530000 -0.063000
v 0.126000 -0.530000 0.000000
v 0.063000 -0.570000 -0.109119
v 0.063000 -0.530000 -0.109119
v 0.000000 -0.570000 -0.126000
v 0.000000 -0.530000 -0.126000
v -0.063000 -0.570000 -0.109119
v -0.063000 -0.530000 -0.109119
v -0.109119 -0.570000 -0.063000
v -0.109119 -0.530000 -0.063000
v -0.126000 -0.570000 -0.000000
v -0.126000 -0.530000 -0.000000
v -0.109119 -0.570000 0.063000
v -0.109119 -0.530000 0.063000
v -0.063000 -0.570000 0.109119
v -0.063000 -0.530000 0.109119
v -0.000000 -0.570000 0.126000
v -0.000000 -0.530000 0.126000
v 0.063000 -0.570000 0.109119
v 0.063000 -0.530000 0.109119
v 0.109119 -0.570000 0.063000
v 0.109119 -0.530000 0.063000
v 0.060000 -0.540000 -0.020000
v 0.029246 -0.540000 -0.094246
v -0.006109 -0.430000 -0.058891
v 0.010000 -0.430000 -0.020000
v -0.045000 -0.540000 -0.125000
v -0.045000 -0.430000 -0.075000
v -0.119246 -0.540000 -0.094246
v -0.083891 -0.430000 -0.058891
v -0.150000 -0.540000 -0.020000
v -0.100000 -0.430000 -0.020000
v -0.119246 -0.540000 0.054246
v -0.083891 -0.430000 0.018891
v -0.045000 -0.540000 0.085000
v -0.045000 -0.430000 0.035000
v 0.029246 -0.540000 0.054246
v -0.006109 -0.430000 0.018891
v 0.140000 -0.540000 0.030000
v 0.113640 -0.540000 -0.033640
v 0.083941 -0.462000 -0.003941
v 0.098000 -0.462000 0.030000
v 0.050000 -0.540000 -0.060000
v 0.050000 -0.462000 -0.018000
v -0.013640 -0.540000 -0.033640
v 0.016059 -0.462000 -0.003941
v -0.040000 -0.540000 0.030000
v 0.002000 -0.462000 0.030000
v -0.013640 -0.540000 0.093640
v 0.016059 -0.462000 0.063941
v 0.050000 -0.540000 0.120000
v 0.050000 -0.462000 0.078000
v 0.113640 -0.540000 0.093640
v 0.083941 -0.462000 0.063941
v 0.083000 -0.540000 -0.055000
v 0.060154 -0.540000 -0.110154
v 0.033284 -0.448000 -0.083284
v 0.045000 -0.448000 -0.055000
v 0.005000 -0.540000 -0.133000
v 0.005000 -0.448000 -0.095000
v -0.050154 -0.540000 -0.110154
v -0.023284 -0.448000 -0.083284
v -0.073000 -0.540000 -0.055000
v -0.035000 -0.448000 -0.055000
v -0.050154 -0.540000 0.000154
v -0.023284 -0.448000 -0.026716
v 0.005000 -0.540000 0.023000
v 0.005000 -0.448000 -0.015000
v 0.060154 -0.540000 0.000154
v 0.033284 -0.448000 -0.026716
v 0.098404 -0.470000 -0.019120
v 0.154428 -0.548000 -0.034132
v 0.144769 -0.640000 -0.031544
v 0.123518 -0.706000 -0.025850
v 0.109995 -0.712000 -0.022226
v 0.129314 -0.646000 -0.027403
v 0.131246 -0.552000 -0.027920
v 0.081018 -0.472000 -0.014462
v 0.077394 -0.472000 -0.027985
v 0.127622 -0.552000 -0.041443
v 0.125690 -0.646000 -0.040926
v 0.106372 -0.712000 -0.035749
v 0.119895 -0.706000 -0.039373
v 0.141145 -0.640000 -0.045067
v 0.150805 -0.548000 -0.047655
v 0.094781 -0.470000 -0.032643
v -0.027624 -0.470000 -0.096363
v -0.047461 -0.540160 -0.150866
v -0.044041 -0.606400 -0.141469
v -0.036517 -0.653920 -0.120795
v -0.031728 -0.658240 -0.107640
v -0.038569 -0.610720 -0.126434
v -0.039253 -0.543040 -0.128313
v -0.021468 -0.472000 -0.079449
v -0.034623 -0.472000 -0.074661
v -0.052409 -0.543040 -0.123525
v -0.051725 -0.610720 -0.121645
v -0.044884 -0.658240 -0.102851
v -0.049672 -0.653920 -0.116007
v -0.057197 -0.606400 -0.136680
v -0.060617 -0.540160 -0.146077
v -0.040780 -0.470000 -0.091575
v -0.098404 -0.470000 0.019120
v -0.154428 -0.544640 0.034132
v -0.144769 -0.625600 0.031544
v -0.123518 -0.683680 0.025850
v -0.109995 -0.688960 0.022226
v -0.129314 -0.630880 0.027403
v -0.131246 -0.548160 0.027920
v -0.081018 -0.472000 0.014462
v -0.077394 -0.472000 0.027985
v -0.127622 -0.548160 0.041443
v -0.125690 -0.630880 0.040926
v -0.106372 -0.688960 0.035749
v -0.119895 -0.683680 0.039373
v -0.141145 -0.625600 0.045067
v -0.150805 -0.544640 0.047655
v -0.094781 -0.470000 0.032643
v 0.027624 -0.470000 0.096363
v 0.047461 -0.548000 0.150866
v 0.034465 -0.700000 0.115157
v 0.014627 -0.900000 0.060655
v 0.009839 -0.905000 0.047499
v 0.028992 -0.706000 0.100122
v 0.039253 -0.552000 0.128313
v 0.021468 -0.472000 0.079449
v 0.034623 -0.472000 0.074661
v 0.052409 -0.552000 0.123525
v 0.042148 -0.706000 0.095334
v 0.022995 -0.905000 0.042711
v 0.027783 -0.900000 0.055867
v 0.047620 -0.700000 0.110369
v 0.060617 -0.548000 0.146077
v 0.040780 -0.470000 0.091575
vn 0.9239 -0.0000 -0.3827
vn 0.3827 -0.0000 -0.9239
vn -0.3827 -0.0000 -0.9239
vn -0.9239 -0.0000 -0.3827
vn -0.9239 -0.0000 0.3827
vn -0.3827 -0.0000 0.9239
vn 0.3827 -0.0000 0.9239
vn 0.9239 -0.0000 0.3827
vn -0.0000 1.0000 -0.0000
vn -0.0000 -1.0000 -0.0000
vn -0.0000 -0.0000 1.0000
vn -0.0000 -0.0000 -1.0000
vn -1.0000 -0.0000 -0.0000
vn 1.0000 -0.0000 -0.0000
vn -0.0000 0.9661 0.2581
vn -0.0000 -0.9661 -0.2581
vn 0.8660 -0.1291 0.4831
vn -0.0000 -0.2581 0.9661
vn -0.8660 -0.1291 0.4831
vn -0.8660 0.1291 -0.4831
vn -0.0000 0.2581 -0.9661
vn 0.8660 0.1291 -0.4831
vn 0.2236 0.9661 -0.1291
vn -0.2236 -0.9661 0.1291
vn 0.8583 -0.1324 0.4958
vn 0.0291 0.1258 0.9916
vn -0.8292 0.2581 0.4958
vn -0.8583 0.1324 -0.4958
vn -0.0291 -0.1258 -0.9916
vn 0.8292 -0.2581 -0.4958
vn -0.2236 0.9661 -0.1291
vn 0.2236 -0.9661 0.1291
vn 0.8292 0.2581 0.4958
vn -0.0291 0.1258 0.9916
vn -0.8583 -0.1324 0.4958
vn -0.8292 -0.2581 -0.4958
vn 0.0291 -0.1258 -0.9916
vn 0.8583 0.1324 -0.4958
vn -0.9389 0.2347 0.2516
vn -0.6873 0.2347 0.6873
vn -0.2516 0.2347 0.9389
vn 0.2516 0.2347 0.9389
vn 0.6873 0.2347 0.6873
vn 0.9389 0.2347 0.2516
vn 0.9389 0.2347 -0.2516
vn 0.6873 0.2347 -0.6873
vn 0.2516 0.2347 -0.9389
vn -0.2516 0.2347 -0.9389
vn -0.6873 0.2347 -0.6873
vn -0.9389 0.2347 -0.2516
vn 0.9356 -0.2487 -0.2507
vn 0.6849 -0.2487 -0.6849
vn 0.2507 -0.2487 -0.9356
vn -0.2507 -0.2487 -0.9356
vn -0.6849 -0.2487 -0.6849
vn -0.9356 -0.2487 -0.2507
vn -0.9356 -0.2487 0.2507
vn -0.6849 -0.2487 0.6849
vn -0.2507 -0.2487 0.9356
vn 0.2507 -0.2487 0.9356
vn 0.6849 -0.2487 0.6849
vn 0.9356 -0.2487 0.2507
vn 0.9659 -0.0000 -0.2588
vn 0.7071 -0.0000 -0.7071
vn 0.2588 -0.0000 -0.9659
vn -0.2588 -0.0000 -0.9659
vn -0.7071 -0.0000 -0.7071
vn -0.9659 -0.0000 -0.2588
vn -0.9659 -0.0000 0.2588
vn -0.7071 -0.0000 0.7071
vn -0.2588 -0.0000 0.9659
vn 0.2588 -0.0000 0.9659
vn 0.7071 -0.0000 0.7071
vn 0.9659 -0.0000 0.2588
vn 0.8518 0.3872 -0.3528
vn 0.3528 0.3872 -0.8518
vn -0.3528 0.3872 -0.8518
vn -0.8518 0.3872 -0.3528
vn -0.8518 0.3872 0.3528
vn -0.3528 0.3872 0.8518
vn 0.3528 0.3872 0.8518
vn 0.8518 0.3872 0.3528
vn 0.8272 0.4454 -0.3426
vn 0.3426 0.4454 -0.8272
vn -0.3426 0.4454 -0.8272
vn -0.8272 0.4454 -0.3426
vn -0.8272 0.4454 0.3426
vn -0.3426 0.4454 0.8272
vn 0.3426 0.4454 0.8272
vn 0.8272 0.4454 0.3426
vn 0.8632 0.3565 -0.3575
vn 0.3575 0.3565 -0.8632
vn -0.3575 0.3565 -0.8632
vn -0.8632 0.3565 -0.3575
vn -0.8632 0.3565 0.3575
vn -0.3575 0.3565 0.8632
vn 0.3575 0.3565 0.8632
vn 0.8632 0.3565 0.3575
vn -0.7751 -0.5967 0.2077
vn -0.9603 0.1081 0.2573
vn -0.9164 0.3162 0.2455
vn -0.3805 0.9191 0.1020
vn 0.9244 -0.2900 -0.2477
vn 0.9657 -0.0213 -0.2588
vn 0.8099 0.5450 -0.2170
vn 0.1067 -0.9939 -0.0286
vn -0.9397 -0.0000 0.3420
vn 0.9397 -0.0000 -0.3420
vn 0.2636 -0.6372 0.7243
vn 0.3382 0.1493 0.9292
vn 0.3104 0.4201 0.8527
vn 0.1008 0.9555 0.2771
vn -0.3152 -0.3879 -0.8661
vn -0.3419 -0.0295 -0.9393
vn -0.2760 0.5907 -0.7583
vn -0.0378 -0.9939 -0.1038
vn 0.7627 -0.6136 -0.2044
vn 0.9586 0.1226 -0.2569
vn 0.9033 0.3542 -0.2420
vn 0.3409 0.9357 -0.0913
vn -0.9133 -0.3256 0.2447
vn -0.9656 -0.0242 0.2587
vn -0.7977 0.5639 0.2137
vn -0.1067 -0.9939 0.0286
vn -0.2745 -0.5967 -0.7541
vn -0.3318 0.2425 -0.9116
vn -0.3285 0.2785 -0.9025
vn -0.1150 0.9417 -0.3161
vn 0.3292 -0.2709 0.9046
vn 0.3357 -0.1912 0.9224
vn 0.2868 0.5450 0.7879
vn 0.0378 -0.9939 0.1038
vt 0.812500 0.312500
vt 0.312500 0.187500
vt 0.812500 0.937500
vt 0.562500 0.562500
s 0
usemtl FN_Atlas
f 1/1/1 2/1/1 3/1/1 4/1/1
f 2/1/2 5/1/2 6/1/2 3/1/2
f 5/1/3 7/1/3 8/1/3 6/1/3
f 7/1/4 9/1/4 10/1/4 8/1/4
f 9/1/5 11/1/5 12/1/5 10/1/5
f 11/1/6 13/1/6 14/1/6 12/1/6
f 13/1/7 15/1/7 16/1/7 14/1/7
f 15/1/8 1/1/8 4/1/8 16/1/8
f 4/1/9 3/1/9 6/1/9 8/1/9 10/1/9 12/1/9 14/1/9 16/1/9
f 15/1/10 13/1/10 11/1/10 9/1/10 7/1/10 5/1/10 2/1/10 1/1/10
f 17/1/10 18/1/10 19/1/10 20/1/10
f 21/1/9 22/1/9 23/1/9 24/1/9
f 17/1/11 20/1/11 22/1/11 21/1/11
f 19/1/12 18/1/12 24/1/12 23/1/12
f 17/1/13 21/1/13 24/1/13 18/1/13
f 20/1/14 19/1/14 23/1/14 22/1/14
f 25/1/15 26/1/15 27/1/15 28/1/15 29/1/15 30/1/15
f 31/1/16 32/1/16 33/1/16 34/1/16 35/1/16 36/1/16
f 30/1/17 29/1/17 32/1/17 31/1/17
f 29/1/18 28/1/18 33/1/18 32/1/18
f 28/1/19 27/1/19 34/1/19 33/1/19
f 27/1/20 26/1/20 35/1/20 34/1/20
f 26/1/21 25/1/21 36/1/21 35/1/21
f 25/1/22 30/1/22 31/1/22 36/1/22
f 37/1/23 38/1/23 39/1/23 40/1/23 41/1/23 42/1/23
f 43/1/24 44/1/24 45/1/24 46/1/24 47/1/24 48/1/24
f 42/1/25 41/1/25 44/1/25 43/1/25
f 41/1/26 40/1/26 45/1/26 44/1/26
f 40/1/27 39/1/27 46/1/27 45/1/27
f 39/1/28 38/1/28 47/1/28 46/1/28
f 38/1/29 37/1/29 48/1/29 47/1/29
f 37/1/30 42/1/30 43/1/30 48/1/30
f 49/1/31 50/1/31 51/1/31 52/1/31 53/1/31 54/1/31
f 55/1/32 56/1/32 57/1/32 58/1/32 59/1/32 60/1/32
f 54/1/33 53/1/33 56/1/33 55/1/33
f 53/1/34 52/1/34 57/1/34 56/1/34
f 52/1/35 51/1/35 58/1/35 57/1/35
f 51/1/36 50/1/36 59/1/36 58/1/36
f 50/1/37 49/1/37 60/1/37 59/1/37
f 49/1/38 54/1/38 55/1/38 60/1/38
f 61/2/39 62/2/39 63/2/39 64/2/39
f 62/2/40 65/2/40 66/2/40 63/2/40
f 65/2/41 67/2/41 68/2/41 66/2/41
f 67/2/42 69/2/42 70/2/42 68/2/42
f 69/2/43 71/2/43 72/2/43 70/2/43
f 71/2/44 73/2/44 74/2/44 72/2/44
f 73/2/45 75/2/45 76/2/45 74/2/45
f 75/2/46 77/2/46 78/2/46 76/2/46
f 77/2/47 79/2/47 80/2/47 78/2/47
f 79/2/48 81/2/48 82/2/48 80/2/48
f 81/2/49 83/2/49 84/2/49 82/2/49
f 83/2/50 61/2/50 64/2/50 84/2/50
f 84/2/10 82/2/10 80/2/10 78/2/10 76/2/10 74/2/10 72/2/10 70/2/10 68/2/10 66/2/10 63/2/10 64/2/10
f 61/2/9 62/2/9 85/2/9 86/2/9
f 62/2/9 65/2/9 87/2/9 85/2/9
f 65/2/9 67/2/9 88/2/9 87/2/9
f 67/2/9 69/2/9 89/2/9 88/2/9
f 69/2/9 71/2/9 90/2/9 89/2/9
f 71/2/9 73/2/9 91/2/9 90/2/9
f 73/2/9 75/2/9 92/2/9 91/2/9
f 75/2/9 77/2/9 93/2/9 92/2/9
f 77/2/9 79/2/9 94/2/9 93/2/9
f 79/2/9 81/2/9 95/2/9 94/2/9
f 81/2/9 83/2/9 96/2/9 95/2/9
f 83/2/9 61/2/9 86/2/9 96/2/9
f 97/2/51 98/2/51 85/2/51 86/2/51
f 98/2/52 99/2/52 87/2/52 85/2/52
f 99/2/53 100/2/53 88/2/53 87/2/53
f 100/2/54 101/2/54 89/2/54 88/2/54
f 101/2/55 102/2/55 90/2/55 89/2/55
f 102/2/56 103/2/56 91/2/56 90/2/56
f 103/2/57 104/2/57 92/2/57 91/2/57
f 104/2/58 105/2/58 93/2/58 92/2/58
f 105/2/59 106/2/59 94/2/59 93/2/59
f 106/2/60 107/2/60 95/2/60 94/2/60
f 107/2/61 108/2/61 96/2/61 95/2/61
f 108/2/62 97/2/62 86/2/62 96/2/62
f 97/2/9 98/2/9 99/2/9 100/2/9 101/2/9 102/2/9 103/2/9 104/2/9 105/2/9 106/2/9 107/2/9 108/2/9
f 109/3/63 110/3/63 111/3/63 112/3/63
f 110/3/64 113/3/64 114/3/64 111/3/64
f 113/3/65 115/3/65 116/3/65 114/3/65
f 115/3/66 117/3/66 118/3/66 116/3/66
f 117/3/67 119/3/67 120/3/67 118/3/67
f 119/3/68 121/3/68 122/3/68 120/3/68
f 121/3/69 123/3/69 124/3/69 122/3/69
f 123/3/70 125/3/70 126/3/70 124/3/70
f 125/3/71 127/3/71 128/3/71 126/3/71
f 127/3/72 129/3/72 130/3/72 128/3/72
f 129/3/73 131/3/73 132/3/73 130/3/73
f 131/3/74 109/3/74 112/3/74 132/3/74
f 112/3/9 111/3/9 114/3/9 116/3/9 118/3/9 120/3/9 122/3/9 124/3/9 126/3/9 128/3/9 130/3/9 132/3/9
f 133/4/75 134/4/75 135/4/75 136/4/75
f 134/4/76 137/4/76 138/4/76 135/4/76
f 137/4/77 139/4/77 140/4/77 138/4/77
f 139/4/78 141/4/78 142/4/78 140/4/78
f 141/4/79 143/4/79 144/4/79 142/4/79
f 143/4/80 145/4/80 146/4/80 144/4/80
f 145/4/81 147/4/81 148/4/81 146/4/81
f 147/4/82 133/4/82 136/4/82 148/4/82
f 136/4/9 135/4/9 138/4/9 140/4/9 142/4/9 144/4/9 146/4/9 148/4/9
f 149/4/83 150/4/83 151/4/83 152/4/83
f 150/4/84 153/4/84 154/4/84 151/4/84
f 153/4/85 155/4/85 156/4/85 154/4/85
f 155/4/86 157/4/86 158/4/86 156/4/86
f 157/4/87 159/4/87 160/4/87 158/4/87
f 159/4/88 161/4/88 162/4/88 160/4/88
f 161/4/89 163/4/89 164/4/89 162/4/89
f 163/4/90 149/4/90 152/4/90 164/4/90
f 152/4/9 151/4/9 154/4/9 156/4/9 158/4/9 160/4/9 162/4/9 164/4/9
f 165/4/91 166/4/91 167/4/91 168/4/91
f 166/4/92 169/4/92 170/4/92 167/4/92
f 169/4/93 171/4/93 172/4/93 170/4/93
f 171/4/94 173/4/94 174/4/94 172/4/94
f 173/4/95 175/4/95 176/4/95 174/4/95
f 175/4/96 177/4/96 178/4/96 176/4/96
f 177/4/97 179/4/97 180/4/97 178/4/97
f 179/4/98 165/4/98 168/4/98 180/4/98
f 168/4/9 167/4/9 170/4/9 172/4/9 174/4/9 176/4/9 178/4/9 180/4/9
f 181/4/66 182/4/66 183/4/66 184/4/66 185/4/66 186/4/66 187/4/66 188/4/66
f 189/4/72 190/4/72 191/4/72 192/4/72 193/4/72 194/4/72 195/4/72 196/4/72
f 182/4/99 181/4/99 196/4/99 195/4/99
f 183/4/100 182/4/100 195/4/100 194/4/100
f 184/4/101 183/4/101 194/4/101 193/4/101
f 185/4/102 184/4/102 193/4/102 192/4/102
f 186/4/103 185/4/103 192/4/103 191/4/103
f 187/4/104 186/4/104 191/4/104 190/4/104
f 188/4/105 187/4/105 190/4/105 189/4/105
f 181/4/106 188/4/106 189/4/106 196/4/106
f 197/4/107 198/4/107 199/4/107 200/4/107 201/4/107 202/4/107 203/4/107 204/4/107
f 205/4/108 206/4/108 207/4/108 208/4/108 209/4/108 210/4/108 211/4/108 212/4/108
f 198/4/109 197/4/109 212/4/109 211/4/109
f 199/4/110 198/4/110 211/4/110 210/4/110
f 200/4/111 199/4/111 210/4/111 209/4/111
f 201/4/112 200/4/112 209/4/112 208/4/112
f 202/4/113 201/4/113 208/4/113 207/4/113
f 203/4/114 202/4/114 207/4/114 206/4/114
f 204/4/115 203/4/115 206/4/115 205/4/115
f 197/4/116 204/4/116 205/4/116 212/4/116
f 213/4/72 214/4/72 215/4/72 216/4/72 217/4/72 218/4/72 219/4/72 220/4/72
f 221/4/66 222/4/66 223/4/66 224/4/66 225/4/66 226/4/66 227/4/66 228/4/66
f 214/4/117 213/4/117 228/4/117 227/4/117
f 215/4/118 214/4/118 227/4/118 226/4/118
f 216/4/119 215/4/119 226/4/119 225/4/119
f 217/4/120 216/4/120 225/4/120 224/4/120
f 218/4/121 217/4/121 224/4/121 223/4/121
f 219/4/122 218/4/122 223/4/122 222/4/122
f 220/4/123 219/4/123 222/4/123 221/4/123
f 213/4/124 220/4/124 221/4/124 228/4/124
f 229/4/108 230/4/108 231/4/108 232/4/108 233/4/108 234/4/108 235/4/108 236/4/108
f 237/4/107 238/4/107 239/4/107 240/4/107 241/4/107 242/4/107 243/4/107 244/4/107
f 230/4/125 229/4/125 244/4/125 243/4/125
f 231/4/126 230/4/126 243/4/126 242/4/126
f 232/4/127 231/4/127 242/4/127 241/4/127
f 233/4/128 232/4/128 241/4/128 240/4/128
f 234/4/129 233/4/129 240/4/129 239/4/129
f 235/4/130 234/4/130 239/4/130 238/4/130
f 236/4/131 235/4/131 238/4/131 237/4/131
f 229/4/132 236/4/132 237/4/132 244/4/132
