# Blender 5.2.0 LTS
# www.blender.org
mtllib FN_Parasol_Garden.mtl
o FN_Parasol_Garden
v 0.242487 0.000000 0.140000
v 0.140000 0.000000 0.242487
v -0.000000 0.000000 0.280000
v -0.140000 0.000000 0.242487
v -0.242487 0.000000 0.140000
v -0.280000 0.000000 -0.000000
v -0.242487 0.000000 -0.140000
v -0.140000 0.000000 -0.242487
v 0.000000 0.000000 -0.280000
v 0.140000 0.000000 -0.242487
v 0.242487 0.000000 -0.140000
v 0.280000 0.000000 0.000000
v 0.242487 0.054000 -0.140000
v 0.280000 0.054000 0.000000
v 0.140000 0.054000 -0.242487
v 0.000000 0.054000 -0.280000
v -0.140000 0.054000 -0.242487
v -0.242487 0.054000 -0.140000
v -0.280000 0.054000 -0.000000
v -0.242487 0.054000 0.140000
v -0.140000 0.054000 0.242487
v -0.000000 0.054000 0.280000
v 0.140000 0.054000 0.242487
v 0.242487 0.054000 0.140000
v 0.225167 0.068000 -0.130000
v 0.260000 0.068000 0.000000
v 0.130000 0.068000 -0.225167
v 0.000000 0.068000 -0.260000
v -0.130000 0.068000 -0.225167
v -0.225167 0.068000 -0.130000
v -0.260000 0.068000 -0.000000
v -0.225167 0.068000 0.130000
v -0.130000 0.068000 0.225167
v -0.000000 0.068000 0.260000
v 0.130000 0.068000 0.225167
v 0.225167 0.068000 0.130000
v 0.093531 0.068000 -0.054000
v 0.108000 0.068000 0.000000
v 0.054000 0.068000 -0.093531
v 0.000000 0.068000 -0.108000
v -0.054000 0.068000 -0.093531
v -0.093531 0.068000 -0.054000
v -0.108000 0.068000 -0.000000
v -0.093531 0.068000 0.054000
v -0.054000 0.068000 0.093531
v -0.000000 0.068000 0.108000
v 0.054000 0.068000 0.093531
v 0.093531 0.068000 0.054000
v 0.093531 0.116000 -0.054000
v 0.108000 0.116000 0.000000
v 0.054000 0.116000 -0.093531
v 0.000000 0.116000 -0.108000
v -0.054000 0.116000 -0.093531
v -0.093531 0.116000 -0.054000
v -0.108000 0.116000 -0.000000
v -0.093531 0.116000 0.054000
v -0.054000 0.116000 0.093531
v -0.000000 0.116000 0.108000
v 0.054000 0.116000 0.093531
v 0.093531 0.116000 0.054000
v 0.027713 0.116000 -0.016000
v 0.032000 0.116000 0.000000
v 0.016000 0.116000 -0.027713
v 0.000000 0.116000 -0.032000
v -0.016000 0.116000 -0.027713
v -0.027713 0.116000 -0.016000
v -0.032000 0.116000 -0.000000
v -0.027713 0.116000 0.016000
v -0.016000 0.116000 0.027713
v -0.000000 0.116000 0.032000
v 0.016000 0.116000 0.027713
v 0.027713 0.116000 0.016000
v -0.019799 0.106000 -0.019799
v 0.000000 0.106000 -0.028000
v 0.019799 0.106000 -0.019799
v 0.028000 0.106000 0.000000
v 0.019799 0.106000 0.019799
v -0.000000 0.106000 0.028000
v -0.019799 0.106000 0.019799
v -0.028000 0.106000 0.000000
v -0.028000 2.336000 0.000000
v -0.019799 2.336000 0.019799
v -0.000000 2.336000 0.028000
v 0.019799 2.336000 0.019799
v 0.028000 2.336000 0.000000
v 0.019799 2.336000 -0.019799
v 0.000000 2.336000 -0.028000
v -0.019799 2.336000 -0.019799
v 0.064275 2.297346 0.007000
v 0.064275 2.297346 -0.007000
v 0.060000 2.286000 -0.014000
v 0.055725 2.274654 -0.007000
v 0.055725 2.274654 0.007000
v 0.060000 2.286000 0.014000
v 1.180000 1.864000 0.014000
v 1.175725 1.852654 0.007000
v 1.175725 1.852654 -0.007000
v 1.180000 1.864000 -0.014000
v 1.184275 1.875346 -0.007000
v 1.184275 1.875346 0.007000
v 0.050399 2.297346 -0.040499
v 0.040499 2.297346 -0.050399
v 0.032527 2.286000 -0.052326
v 0.034454 2.274654 -0.044353
v 0.044353 2.274654 -0.034454
v 0.052326 2.286000 -0.032527
v 0.844285 1.864000 -0.824486
v 0.836313 1.852654 -0.826413
v 0.826413 1.852654 -0.836313
v 0.824486 1.864000 -0.844285
v 0.832459 1.875346 -0.842359
v 0.842359 1.875346 -0.832459
v 0.007000 2.297346 -0.064275
v -0.007000 2.297346 -0.064275
v -0.014000 2.286000 -0.060000
v -0.007000 2.274654 -0.055725
v 0.007000 2.274654 -0.055725
v 0.014000 2.286000 -0.060000
v 0.014000 1.864000 -1.180000
v 0.007000 1.852654 -1.175725
v -0.007000 1.852654 -1.175725
v -0.014000 1.864000 -1.180000
v -0.007000 1.875346 -1.184275
v 0.007000 1.875346 -1.184275
v -0.040499 2.297346 -0.050399
v -0.050399 2.297346 -0.040499
v -0.052326 2.286000 -0.032527
v -0.044353 2.274654 -0.034454
v -0.034454 2.274654 -0.044353
v -0.032527 2.286000 -0.052326
v -0.824486 1.864000 -0.844285
v -0.826413 1.852654 -0.836313
v -0.836313 1.852654 -0.826413
v -0.844285 1.864000 -0.824486
v -0.842359 1.875346 -0.832459
v -0.832459 1.875346 -0.842359
v -0.064275 2.297346 -0.007000
v -0.064275 2.297346 0.007000
v -0.060000 2.286000 0.014000
v -0.055725 2.274654 0.007000
v -0.055725 2.274654 -0.007000
v -0.060000 2.286000 -0.014000
v -1.180000 1.864000 -0.014000
v -1.175725 1.852654 -0.007000
v -1.175725 1.852654 0.007000
v -1.180000 1.864000 0.014000
v -1.184275 1.875346 0.007000
v -1.184275 1.875346 -0.007000
v -0.050399 2.297346 0.040499
v -0.040499 2.297346 0.050399
v -0.032527 2.286000 0.052326
v -0.034454 2.274654 0.044353
v -0.044353 2.274654 0.034454
v -0.052326 2.286000 0.032527
v -0.844285 1.864000 0.824486
v -0.836313 1.852654 0.826413
v -0.826413 1.852654 0.836313
v -0.824486 1.864000 0.844285
v -0.832459 1.875346 0.842359
v -0.842359 1.875346 0.832459
v -0.007000 2.297346 0.064275
v 0.007000 2.297346 0.064275
v 0.014000 2.286000 0.060000
v 0.007000 2.274654 0.055725
v -0.007000 2.274654 0.055725
v -0.014000 2.286000 0.060000
v -0.014000 1.864000 1.180000
v -0.007000 1.852654 1.175725
v 0.007000 1.852654 1.175725
v 0.014000 1.864000 1.180000
v 0.007000 1.875346 1.184275
v -0.007000 1.875346 1.184275
v 0.040499 2.297346 0.050399
v 0.050399 2.297346 0.040499
v 0.052326 2.286000 0.032527
v 0.044353 2.274654 0.034454
v 0.034454 2.274654 0.044353
v 0.032527 2.286000 0.052326
v 0.824486 1.864000 0.844285
v 0.826413 1.852654 0.836313
v 0.836313 1.852654 0.826413
v 0.844285 1.864000 0.824486
v 0.842359 1.875346 0.832459
v 0.832459 1.875346 0.842359
v 1.200000 1.876000 0.000000
v 1.030126 1.876000 -0.426692
v 0.055433 2.316000 -0.022961
v 0.060000 2.316000 0.000000
v 0.848528 1.876000 -0.848528
v 0.042426 2.316000 -0.042426
v 0.426692 1.876000 -1.030126
v 0.022961 2.316000 -0.055433
v 0.000000 1.876000 -1.200000
v 0.000000 2.316000 -0.060000
v -0.426692 1.876000 -1.030126
v -0.022961 2.316000 -0.055433
v -0.848528 1.876000 -0.848528
v -0.042426 2.316000 -0.042426
v -1.030126 1.876000 -0.426692
v -0.055433 2.316000 -0.022961
v -1.200000 1.876000 -0.000000
v -0.060000 2.316000 -0.000000
v -1.030126 1.876000 0.426692
v -0.055433 2.316000 0.022961
v -0.848528 1.876000 0.848528
v -0.042426 2.316000 0.042426
v -0.426692 1.876000 1.030126
v -0.022961 2.316000 0.055433
v -0.000000 1.876000 1.200000
v -0.000000 2.316000 0.060000
v 0.426692 1.876000 1.030126
v 0.022961 2.316000 0.055433
v 0.848528 1.876000 0.848528
v 0.042426 2.316000 0.042426
v 1.030126 1.876000 0.426692
v 0.055433 2.316000 0.022961
v 0.060000 2.290000 0.000000
v 0.055433 2.290000 -0.022961
v 1.030126 1.850000 -0.426692
v 1.200000 1.850000 0.000000
v 0.042426 2.290000 -0.042426
v 0.848528 1.850000 -0.848528
v 0.022961 2.290000 -0.055433
v 0.426692 1.850000 -1.030126
v 0.000000 2.290000 -0.060000
v 0.000000 1.850000 -1.200000
v -0.022961 2.290000 -0.055433
v -0.426692 1.850000 -1.030126
v -0.042426 2.290000 -0.042426
v -0.848528 1.850000 -0.848528
v -0.055433 2.290000 -0.022961
v -1.030126 1.850000 -0.426692
v -0.060000 2.290000 -0.000000
v -1.200000 1.850000 -0.000000
v -0.055433 2.290000 0.022961
v -1.030126 1.850000 0.426692
v -0.042426 2.290000 0.042426
v -0.848528 1.850000 0.848528
v -0.022961 2.290000 0.055433
v -0.426692 1.850000 1.030126
v -0.000000 2.290000 0.060000
v -0.000000 1.850000 1.200000
v 0.022961 2.290000 0.055433
v 0.426692 1.850000 1.030126
v 0.042426 2.290000 0.042426
v 0.848528 1.850000 0.848528
v 0.055433 2.290000 0.022961
v 1.030126 1.850000 0.426692
v 0.030000 2.316000 0.000000
v 0.021213 2.316000 -0.021213
v 0.021213 2.398000 -0.021213
v 0.030000 2.398000 0.000000
v 0.000000 2.316000 -0.030000
v 0.000000 2.398000 -0.030000
v -0.021213 2.316000 -0.021213
v -0.021213 2.398000 -0.021213
v -0.030000 2.316000 -0.000000
v -0.030000 2.398000 -0.000000
v -0.021213 2.316000 0.021213
v -0.021213 2.398000 0.021213
v -0.000000 2.316000 0.030000
v -0.000000 2.398000 0.030000
v 0.021213 2.316000 0.021213
v 0.021213 2.398000 0.021213
v 0.005657 2.436000 -0.005657
v 0.008000 2.436000 0.000000
v 0.000000 2.436000 -0.008000
v -0.005657 2.436000 -0.005657
v -0.008000 2.436000 -0.000000
v -0.005657 2.436000 0.005657
v -0.000000 2.436000 0.008000
v 0.005657 2.436000 0.005657
vn -0.0000 -1.0000 -0.0000
vn 0.9659 -0.0000 -0.2588
vn 0.7071 -0.0000 -0.7071
vn 0.2588 -0.0000 -0.9659
vn -0.2588 -0.0000 -0.9659
vn -0.7071 -0.0000 -0.7071
vn -0.9659 -0.0000 -0.2588
vn -0.9659 -0.0000 0.2588
vn -0.7071 -0.0000 0.7071
vn -0.2588 -0.0000 0.9659
vn 0.2588 -0.0000 0.9659
vn 0.7071 -0.0000 0.7071
vn 0.9659 -0.0000 0.2588
vn 0.5668 0.8097 -0.1519
vn 0.4149 0.8097 -0.4149
vn 0.1519 0.8097 -0.5668
vn -0.1519 0.8097 -0.5668
vn -0.4149 0.8097 -0.4149
vn -0.5668 0.8097 -0.1519
vn -0.5668 0.8097 0.1519
vn -0.4149 0.8097 0.4149
vn -0.1519 0.8097 0.5668
vn 0.1519 0.8097 0.5668
vn 0.4149 0.8097 0.4149
vn 0.5668 0.8097 0.1519
vn -0.0000 1.0000 -0.0000
vn -0.9239 -0.0000 0.3827
vn -0.3827 -0.0000 0.9239
vn 0.3827 -0.0000 0.9239
vn 0.9239 -0.0000 0.3827
vn 0.9239 -0.0000 -0.3827
vn 0.3827 -0.0000 -0.9239
vn -0.3827 -0.0000 -0.9239
vn -0.9239 -0.0000 -0.3827
vn -0.9358 0.3526 -0.0000
vn 0.9358 -0.3526 -0.0000
vn -0.1763 -0.4679 0.8660
vn -0.3526 -0.9358 -0.0000
vn -0.1763 -0.4679 -0.8660
vn 0.1763 0.4679 -0.8660
vn 0.3526 0.9358 -0.0000
vn 0.1763 0.4679 0.8660
vn -0.6617 0.3526 0.6617
vn 0.6617 -0.3526 -0.6617
vn 0.4877 -0.4679 0.7370
vn -0.2493 -0.9358 0.2493
vn -0.7370 -0.4679 -0.4877
vn -0.4877 0.4679 -0.7370
vn 0.2493 0.9358 -0.2493
vn 0.7370 0.4679 0.4877
vn -0.0000 0.3526 0.9358
vn -0.0000 -0.3526 -0.9358
vn 0.8660 -0.4679 0.1763
vn -0.0000 -0.9358 0.3526
vn -0.8660 -0.4679 0.1763
vn -0.8660 0.4679 -0.1763
vn -0.0000 0.9358 -0.3526
vn 0.8660 0.4679 -0.1763
vn 0.6617 0.3526 0.6617
vn -0.6617 -0.3526 -0.6617
vn 0.7370 -0.4679 -0.4877
vn 0.2493 -0.9358 0.2493
vn -0.4877 -0.4679 0.7370
vn -0.7370 0.4679 0.4877
vn -0.2493 0.9358 -0.2493
vn 0.4877 0.4679 -0.7370
vn 0.9358 0.3526 -0.0000
vn -0.9358 -0.3526 -0.0000
vn 0.1763 -0.4679 -0.8660
vn 0.3526 -0.9358 -0.0000
vn 0.1763 -0.4679 0.8660
vn -0.1763 0.4679 0.8660
vn -0.3526 0.9358 -0.0000
vn -0.1763 0.4679 -0.8660
vn 0.6617 0.3526 -0.6617
vn -0.6617 -0.3526 0.6617
vn -0.4877 -0.4679 -0.7370
vn 0.2493 -0.9358 -0.2493
vn 0.7370 -0.4679 0.4877
vn 0.4877 0.4679 0.7370
vn -0.2493 0.9358 0.2493
vn -0.7370 0.4679 -0.4877
vn -0.0000 0.3526 -0.9358
vn -0.0000 -0.3526 0.9358
vn -0.8660 -0.4679 -0.1763
vn -0.0000 -0.9358 -0.3526
vn 0.8660 -0.4679 -0.1763
vn 0.8660 0.4679 0.1763
vn -0.0000 0.9358 0.3526
vn -0.8660 0.4679 0.1763
vn -0.6617 0.3526 -0.6617
vn 0.6617 -0.3526 0.6617
vn -0.7370 -0.4679 0.4877
vn -0.2493 -0.9358 -0.2493
vn 0.4877 -0.4679 -0.7370
vn 0.7370 0.4679 -0.4877
vn 0.2493 0.9358 0.2493
vn -0.4877 0.4679 0.7370
vn 0.3578 0.9234 -0.1388
vn 0.3511 0.9234 -0.1548
vn 0.1548 0.9234 -0.3511
vn 0.1388 0.9234 -0.3578
vn -0.1388 0.9234 -0.3578
vn -0.1548 0.9234 -0.3511
vn -0.3511 0.9234 -0.1548
vn -0.3578 0.9234 -0.1388
vn -0.3578 0.9234 0.1388
vn -0.3511 0.9234 0.1548
vn -0.1548 0.9234 0.3511
vn -0.1388 0.9234 0.3578
vn 0.1388 0.9234 0.3578
vn 0.1548 0.9234 0.3511
vn 0.3511 0.9234 0.1548
vn 0.3578 0.9234 0.1388
vn -0.3578 -0.9234 0.1388
vn -0.3511 -0.9234 0.1548
vn -0.1548 -0.9234 0.3511
vn -0.1388 -0.9234 0.3578
vn 0.1388 -0.9234 0.3578
vn 0.1548 -0.9234 0.3511
vn 0.3511 -0.9234 0.1548
vn 0.3578 -0.9234 0.1388
vn 0.3578 -0.9234 -0.1388
vn 0.3511 -0.9234 -0.1548
vn 0.1548 -0.9234 -0.3511
vn 0.1388 -0.9234 -0.3578
vn -0.1388 -0.9234 -0.3578
vn -0.1548 -0.9234 -0.3511
vn -0.3511 -0.9234 -0.1548
vn -0.3578 -0.9234 -0.1388
vn 0.9291 -0.0000 -0.3699
vn 0.9185 -0.0000 -0.3954
vn 0.3954 -0.0000 -0.9185
vn 0.3699 -0.0000 -0.9291
vn -0.3699 -0.0000 -0.9291
vn -0.3954 -0.0000 -0.9185
vn -0.9185 -0.0000 -0.3954
vn -0.9291 -0.0000 -0.3699
vn -0.9291 -0.0000 0.3699
vn -0.9185 -0.0000 0.3954
vn -0.3954 -0.0000 0.9185
vn -0.3699 -0.0000 0.9291
vn 0.3699 -0.0000 0.9291
vn 0.3954 -0.0000 0.9185
vn 0.9185 -0.0000 0.3954
vn 0.9291 -0.0000 0.3699
vn 0.8147 0.4716 -0.3374
vn 0.3375 0.4716 -0.8147
vn -0.3374 0.4716 -0.8147
vn -0.8147 0.4716 -0.3374
vn -0.8147 0.4716 0.3374
vn -0.3375 0.4716 0.8147
vn 0.3374 0.4716 0.8147
vn 0.8147 0.4716 0.3374
vt 0.937500 0.312500
vt 0.312500 0.312500
vt 0.562500 0.562500
vt 0.312500 0.687500
vt 0.437500 0.312500
s 0
usemtl FN_Atlas
f 1/1/1 2/1/1 3/1/1 4/1/1 5/1/1 6/1/1 7/1/1 8/1/1 9/1/1 10/1/1 11/1/1 12/1/1
f 12/1/2 11/1/2 13/1/2 14/1/2
f 11/1/3 10/1/3 15/1/3 13/1/3
f 10/1/4 9/1/4 16/1/4 15/1/4
f 9/1/5 8/1/5 17/1/5 16/1/5
f 8/1/6 7/1/6 18/1/6 17/1/6
f 7/1/7 6/1/7 19/1/7 18/1/7
f 6/1/8 5/1/8 20/1/8 19/1/8
f 5/1/9 4/1/9 21/1/9 20/1/9
f 4/1/10 3/1/10 22/1/10 21/1/10
f 3/1/11 2/1/11 23/1/11 22/1/11
f 2/1/12 1/1/12 24/1/12 23/1/12
f 1/1/13 12/1/13 14/1/13 24/1/13
f 14/1/14 13/1/14 25/1/14 26/1/14
f 13/1/15 15/1/15 27/1/15 25/1/15
f 15/1/16 16/1/16 28/1/16 27/1/16
f 16/1/17 17/1/17 29/1/17 28/1/17
f 17/1/18 18/1/18 30/1/18 29/1/18
f 18/1/19 19/1/19 31/1/19 30/1/19
f 19/1/20 20/1/20 32/1/20 31/1/20
f 20/1/21 21/1/21 33/1/21 32/1/21
f 21/1/22 22/1/22 34/1/22 33/1/22
f 22/1/23 23/1/23 35/1/23 34/1/23
f 23/1/24 24/1/24 36/1/24 35/1/24
f 24/1/25 14/1/25 26/1/25 36/1/25
f 26/1/26 25/1/26 37/1/26 38/1/26
f 25/1/26 27/1/26 39/1/26 37/1/26
f 27/1/26 28/1/26 40/1/26 39/1/26
f 28/1/26 29/1/26 41/1/26 40/1/26
f 29/1/26 30/1/26 42/1/26 41/1/26
f 30/1/26 31/1/26 43/1/26 42/1/26
f 31/1/26 32/1/26 44/1/26 43/1/26
f 32/1/26 33/1/26 45/1/26 44/1/26
f 33/1/26 34/1/26 46/1/26 45/1/26
f 34/1/26 35/1/26 47/1/26 46/1/26
f 35/1/26 36/1/26 48/1/26 47/1/26
f 36/1/26 26/1/26 38/1/26 48/1/26
f 38/1/2 37/1/2 49/1/2 50/1/2
f 37/1/3 39/1/3 51/1/3 49/1/3
f 39/1/4 40/1/4 52/1/4 51/1/4
f 40/1/5 41/1/5 53/1/5 52/1/5
f 41/1/6 42/1/6 54/1/6 53/1/6
f 42/1/7 43/1/7 55/1/7 54/1/7
f 43/1/8 44/1/8 56/1/8 55/1/8
f 44/1/9 45/1/9 57/1/9 56/1/9
f 45/1/10 46/1/10 58/1/10 57/1/10
f 46/1/11 47/1/11 59/1/11 58/1/11
f 47/1/12 48/1/12 60/1/12 59/1/12
f 48/1/13 38/1/13 50/1/13 60/1/13
f 50/1/26 49/1/26 61/1/26 62/1/26
f 49/1/26 51/1/26 63/1/26 61/1/26
f 51/1/26 52/1/26 64/1/26 63/1/26
f 52/1/26 53/1/26 65/1/26 64/1/26
f 53/1/26 54/1/26 66/1/26 65/1/26
f 54/1/26 55/1/26 67/1/26 66/1/26
f 55/1/26 56/1/26 68/1/26 67/1/26
f 56/1/26 57/1/26 69/1/26 68/1/26
f 57/1/26 58/1/26 70/1/26 69/1/26
f 58/1/26 59/1/26 71/1/26 70/1/26
f 59/1/26 60/1/26 72/1/26 71/1/26
f 60/1/26 50/1/26 62/1/26 72/1/26
f 73/2/1 74/2/1 75/2/1 76/2/1 77/2/1 78/2/1 79/2/1 80/2/1
f 81/2/26 82/2/26 83/2/26 84/2/26 85/2/26 86/2/26 87/2/26 88/2/26
f 80/2/27 79/2/27 82/2/27 81/2/27
f 79/2/28 78/2/28 83/2/28 82/2/28
f 78/2/29 77/2/29 84/2/29 83/2/29
f 77/2/30 76/2/30 85/2/30 84/2/30
f 76/2/31 75/2/31 86/2/31 85/2/31
f 75/2/32 74/2/32 87/2/32 86/2/32
f 74/2/33 73/2/33 88/2/33 87/2/33
f 73/2/34 80/2/34 81/2/34 88/2/34
f 89/1/35 90/1/35 91/1/35 92/1/35 93/1/35 94/1/35
f 95/1/36 96/1/36 97/1/36 98/1/36 99/1/36 100/1/36
f 94/1/37 93/1/37 96/1/37 95/1/37
f 93/1/38 92/1/38 97/1/38 96/1/38
f 92/1/39 91/1/39 98/1/39 97/1/39
f 91/1/40 90/1/40 99/1/40 98/1/40
f 90/1/41 89/1/41 100/1/41 99/1/41
f 89/1/42 94/1/42 95/1/42 100/1/42
f 101/1/43 102/1/43 103/1/43 104/1/43 105/1/43 106/1/43
f 107/1/44 108/1/44 109/1/44 110/1/44 111/1/44 112/1/44
f 106/1/45 105/1/45 108/1/45 107/1/45
f 105/1/46 104/1/46 109/1/46 108/1/46
f 104/1/47 103/1/47 110/1/47 109/1/47
f 103/1/48 102/1/48 111/1/48 110/1/48
f 102/1/49 101/1/49 112/1/49 111/1/49
f 101/1/50 106/1/50 107/1/50 112/1/50
f 113/1/51 114/1/51 115/1/51 116/1/51 117/1/51 118/1/51
f 119/1/52 120/1/52 121/1/52 122/1/52 123/1/52 124/1/52
f 118/1/53 117/1/53 120/1/53 119/1/53
f 117/1/54 116/1/54 121/1/54 120/1/54
f 116/1/55 115/1/55 122/1/55 121/1/55
f 115/1/56 114/1/56 123/1/56 122/1/56
f 114/1/57 113/1/57 124/1/57 123/1/57
f 113/1/58 118/1/58 119/1/58 124/1/58
f 125/1/59 126/1/59 127/1/59 128/1/59 129/1/59 130/1/59
f 131/1/60 132/1/60 133/1/60 134/1/60 135/1/60 136/1/60
f 130/1/61 129/1/61 132/1/61 131/1/61
f 129/1/62 128/1/62 133/1/62 132/1/62
f 128/1/63 127/1/63 134/1/63 133/1/63
f 127/1/64 126/1/64 135/1/64 134/1/64
f 126/1/65 125/1/65 136/1/65 135/1/65
f 125/1/66 130/1/66 131/1/66 136/1/66
f 137/1/67 138/1/67 139/1/67 140/1/67 141/1/67 142/1/67
f 143/1/68 144/1/68 145/1/68 146/1/68 147/1/68 148/1/68
f 142/1/69 141/1/69 144/1/69 143/1/69
f 141/1/70 140/1/70 145/1/70 144/1/70
f 140/1/71 139/1/71 146/1/71 145/1/71
f 139/1/72 138/1/72 147/1/72 146/1/72
f 138/1/73 137/1/73 148/1/73 147/1/73
f 137/1/74 142/1/74 143/1/74 148/1/74
f 149/1/75 150/1/75 151/1/75 152/1/75 153/1/75 154/1/75
f 155/1/76 156/1/76 157/1/76 158/1/76 159/1/76 160/1/76
f 154/1/77 153/1/77 156/1/77 155/1/77
f 153/1/78 152/1/78 157/1/78 156/1/78
f 152/1/79 151/1/79 158/1/79 157/1/79
f 151/1/80 150/1/80 159/1/80 158/1/80
f 150/1/81 149/1/81 160/1/81 159/1/81
f 149/1/82 154/1/82 155/1/82 160/1/82
f 161/1/83 162/1/83 163/1/83 164/1/83 165/1/83 166/1/83
f 167/1/84 168/1/84 169/1/84 170/1/84 171/1/84 172/1/84
f 166/1/85 165/1/85 168/1/85 167/1/85
f 165/1/86 164/1/86 169/1/86 168/1/86
f 164/1/87 163/1/87 170/1/87 169/1/87
f 163/1/88 162/1/88 171/1/88 170/1/88
f 162/1/89 161/1/89 172/1/89 171/1/89
f 161/1/90 166/1/90 167/1/90 172/1/90
f 173/1/91 174/1/91 175/1/91 176/1/91 177/1/91 178/1/91
f 179/1/92 180/1/92 181/1/92 182/1/92 183/1/92 184/1/92
f 178/1/93 177/1/93 180/1/93 179/1/93
f 177/1/94 176/1/94 181/1/94 180/1/94
f 176/1/95 175/1/95 182/1/95 181/1/95
f 175/1/96 174/1/96 183/1/96 182/1/96
f 174/1/97 173/1/97 184/1/97 183/1/97
f 173/1/98 178/1/98 179/1/98 184/1/98
f 185/3/99 186/3/99 187/3/99 188/3/99
f 186/3/100 189/3/100 190/3/100 187/3/100
f 189/3/101 191/3/101 192/3/101 190/3/101
f 191/3/102 193/3/102 194/3/102 192/3/102
f 193/3/103 195/3/103 196/3/103 194/3/103
f 195/3/104 197/3/104 198/3/104 196/3/104
f 197/3/105 199/3/105 200/3/105 198/3/105
f 199/3/106 201/3/106 202/3/106 200/3/106
f 201/3/107 203/3/107 204/3/107 202/3/107
f 203/3/108 205/3/108 206/3/108 204/3/108
f 205/3/109 207/3/109 208/3/109 206/3/109
f 207/3/110 209/3/110 210/3/110 208/3/110
f 209/3/111 211/3/111 212/3/111 210/3/111
f 211/3/112 213/3/112 214/3/112 212/3/112
f 213/3/113 215/3/113 216/3/113 214/3/113
f 215/3/114 185/3/114 188/3/114 216/3/114
f 188/3/26 187/3/26 190/3/26 192/3/26 194/3/26 196/3/26 198/3/26 200/3/26 202/3/26 204/3/26 206/3/26 208/3/26 210/3/26 212/3/26 214/3/26 216/3/26
f 217/4/115 218/4/115 219/4/115 220/4/115
f 218/4/116 221/4/116 222/4/116 219/4/116
f 221/4/117 223/4/117 224/4/117 222/4/117
f 223/4/118 225/4/118 226/4/118 224/4/118
f 225/4/119 227/4/119 228/4/119 226/4/119
f 227/4/120 229/4/120 230/4/120 228/4/120
f 229/4/121 231/4/121 232/4/121 230/4/121
f 231/4/122 233/4/122 234/4/122 232/4/122
f 233/4/123 235/4/123 236/4/123 234/4/123
f 235/4/124 237/4/124 238/4/124 236/4/124
f 237/4/125 239/4/125 240/4/125 238/4/125
f 239/4/126 241/4/126 242/4/126 240/4/126
f 241/4/127 243/4/127 244/4/127 242/4/127
f 243/4/128 245/4/128 246/4/128 244/4/128
f 245/4/129 247/4/129 248/4/129 246/4/129
f 247/4/130 217/4/130 220/4/130 248/4/130
f 220/3/131 219/3/131 186/3/131 185/3/131
f 219/3/132 222/3/132 189/3/132 186/3/132
f 222/3/133 224/3/133 191/3/133 189/3/133
f 224/3/134 226/3/134 193/3/134 191/3/134
f 226/3/135 228/3/135 195/3/135 193/3/135
f 228/3/136 230/3/136 197/3/136 195/3/136
f 230/3/137 232/3/137 199/3/137 197/3/137
f 232/3/138 234/3/138 201/3/138 199/3/138
f 234/3/139 236/3/139 203/3/139 201/3/139
f 236/3/140 238/3/140 205/3/140 203/3/140
f 238/3/141 240/3/141 207/3/141 205/3/141
f 240/3/142 242/3/142 209/3/142 207/3/142
f 242/3/143 244/3/143 211/3/143 209/3/143
f 244/3/144 246/3/144 213/3/144 211/3/144
f 246/3/145 248/3/145 215/3/145 213/3/145
f 248/3/146 220/3/146 185/3/146 215/3/146
f 249/5/31 250/5/31 251/5/31 252/5/31
f 250/5/32 253/5/32 254/5/32 251/5/32
f 253/5/33 255/5/33 256/5/33 254/5/33
f 255/5/34 257/5/34 258/5/34 256/5/34
f 257/5/27 259/5/27 260/5/27 258/5/27
f 259/5/28 261/5/28 262/5/28 260/5/28
f 261/5/29 263/5/29 264/5/29 262/5/29
f 263/5/30 249/5/30 252/5/30 264/5/30
f 252/5/147 251/5/147 265/5/147 266/5/147
f 251/5/148 254/5/148 267/5/148 265/5/148
f 254/5/149 256/5/149 268/5/149 267/5/149
f 256/5/150 258/5/150 269/5/150 268/5/150
f 258/5/151 260/5/151 270/5/151 269/5/151
f 260/5/152 262/5/152 271/5/152 270/5/152
f 262/5/153 264/5/153 272/5/153 271/5/153
f 264/5/154 252/5/154 266/5/154 272/5/154
f 266/5/26 265/5/26 267/5/26 268/5/26 269/5/26 270/5/26 271/5/26 272/5/26
