# Blender 5.2.0 LTS
# www.blender.org
mtllib FN_Planter_Box.mtl
o FN_Planter_Box
v -0.450000 0.000000 0.185500
v -0.450000 0.000000 0.125500
v -0.390000 0.000000 0.125500
v -0.390000 0.000000 0.185500
v -0.450000 0.500000 0.185500
v -0.390000 0.500000 0.185500
v -0.390000 0.500000 0.125500
v -0.450000 0.500000 0.125500
v -0.450000 0.000000 -0.114500
v -0.450000 0.000000 -0.174500
v -0.390000 0.000000 -0.174500
v -0.390000 0.000000 -0.114500
v -0.450000 0.500000 -0.114500
v -0.390000 0.500000 -0.114500
v -0.390000 0.500000 -0.174500
v -0.450000 0.500000 -0.174500
v 0.390000 0.000000 0.185500
v 0.390000 0.000000 0.125500
v 0.450000 0.000000 0.125500
v 0.450000 0.000000 0.185500
v 0.390000 0.500000 0.185500
v 0.450000 0.500000 0.185500
v 0.450000 0.500000 0.125500
v 0.390000 0.500000 0.125500
v 0.390000 0.000000 -0.114500
v 0.390000 0.000000 -0.174500
v 0.450000 0.000000 -0.174500
v 0.450000 0.000000 -0.114500
v 0.390000 0.500000 -0.114500
v 0.450000 0.500000 -0.114500
v 0.450000 0.500000 -0.174500
v 0.390000 0.500000 -0.174500
v -0.446000 0.070000 0.185500
v -0.446000 0.070000 0.165500
v 0.446000 0.070000 0.165500
v 0.446000 0.070000 0.185500
v -0.446000 0.170000 0.185500
v 0.446000 0.170000 0.185500
v 0.446000 0.170000 0.165500
v -0.446000 0.170000 0.165500
v -0.446000 0.070000 -0.154500
v -0.446000 0.070000 -0.174500
v 0.446000 0.070000 -0.174500
v 0.446000 0.070000 -0.154500
v -0.446000 0.170000 -0.154500
v 0.446000 0.170000 -0.154500
v 0.446000 0.170000 -0.174500
v -0.446000 0.170000 -0.174500
v -0.450000 0.070000 0.181500
v -0.450000 0.070000 -0.170500
v -0.430000 0.070000 -0.170500
v -0.430000 0.070000 0.181500
v -0.450000 0.170000 0.181500
v -0.430000 0.170000 0.181500
v -0.430000 0.170000 -0.170500
v -0.450000 0.170000 -0.170500
v 0.430000 0.070000 0.181500
v 0.430000 0.070000 -0.170500
v 0.450000 0.070000 -0.170500
v 0.450000 0.070000 0.181500
v 0.430000 0.170000 0.181500
v 0.450000 0.170000 0.181500
v 0.450000 0.170000 -0.170500
v 0.430000 0.170000 -0.170500
v -0.446000 0.196000 0.185500
v -0.446000 0.196000 0.165500
v 0.446000 0.196000 0.165500
v 0.446000 0.196000 0.185500
v -0.446000 0.296000 0.185500
v 0.446000 0.296000 0.185500
v 0.446000 0.296000 0.165500
v -0.446000 0.296000 0.165500
v -0.446000 0.196000 -0.154500
v -0.446000 0.196000 -0.174500
v 0.446000 0.196000 -0.174500
v 0.446000 0.196000 -0.154500
v -0.446000 0.296000 -0.154500
v 0.446000 0.296000 -0.154500
v 0.446000 0.296000 -0.174500
v -0.446000 0.296000 -0.174500
v -0.450000 0.196000 0.181500
v -0.450000 0.196000 -0.170500
v -0.430000 0.196000 -0.170500
v -0.430000 0.196000 0.181500
v -0.450000 0.296000 0.181500
v -0.430000 0.296000 0.181500
v -0.430000 0.296000 -0.170500
v -0.450000 0.296000 -0.170500
v 0.430000 0.196000 0.181500
v 0.430000 0.196000 -0.170500
v 0.450000 0.196000 -0.170500
v 0.450000 0.196000 0.181500
v 0.430000 0.296000 0.181500
v 0.450000 0.296000 0.181500
v 0.450000 0.296000 -0.170500
v 0.430000 0.296000 -0.170500
v -0.446000 0.322000 0.185500
v -0.446000 0.322000 0.165500
v 0.446000 0.322000 0.165500
v 0.446000 0.322000 0.185500
v -0.446000 0.422000 0.185500
v 0.446000 0.422000 0.185500
v 0.446000 0.422000 0.165500
v -0.446000 0.422000 0.165500
v -0.446000 0.322000 -0.154500
v -0.446000 0.322000 -0.174500
v 0.446000 0.322000 -0.174500
v 0.446000 0.322000 -0.154500
v -0.446000 0.422000 -0.154500
v 0.446000 0.422000 -0.154500
v 0.446000 0.422000 -0.174500
v -0.446000 0.422000 -0.174500
v -0.450000 0.322000 0.181500
v -0.450000 0.322000 -0.170500
v -0.430000 0.322000 -0.170500
v -0.430000 0.322000 0.181500
v -0.450000 0.422000 0.181500
v -0.430000 0.422000 0.181500
v -0.430000 0.422000 -0.170500
v -0.450000 0.422000 -0.170500
v 0.430000 0.322000 0.181500
v 0.430000 0.322000 -0.170500
v 0.450000 0.322000 -0.170500
v 0.450000 0.322000 0.181500
v 0.430000 0.422000 0.181500
v 0.450000 0.422000 0.181500
v 0.450000 0.422000 -0.170500
v 0.430000 0.422000 -0.170500
v -0.424000 0.410000 0.159500
v -0.424000 0.410000 -0.148500
v 0.424000 0.410000 -0.148500
v 0.424000 0.410000 0.159500
v -0.424000 0.440000 0.159500
v 0.424000 0.440000 0.159500
v 0.424000 0.440000 -0.148500
v -0.424000 0.440000 -0.148500
v -0.450000 0.470000 0.185500
v -0.450000 0.470000 0.127500
v 0.450000 0.470000 0.127500
v 0.450000 0.470000 0.185500
v 0.450000 0.500000 0.127500
v -0.450000 0.500000 0.127500
v -0.450000 0.470000 -0.116500
v -0.450000 0.470000 -0.174500
v 0.450000 0.470000 -0.174500
v 0.450000 0.470000 -0.116500
v -0.450000 0.500000 -0.116500
v 0.450000 0.500000 -0.116500
v -0.392000 0.470000 -0.116500
v -0.392000 0.470000 0.127500
v -0.392000 0.500000 0.127500
v -0.392000 0.500000 -0.116500
v 0.392000 0.470000 0.127500
v 0.392000 0.470000 -0.116500
v 0.392000 0.500000 0.127500
v 0.392000 0.500000 -0.116500
v -0.058378 0.430000 0.121122
v -0.180000 0.430000 0.171500
v -0.301622 0.430000 0.121122
v -0.352000 0.430000 -0.000500
v -0.301622 0.430000 -0.122122
v -0.180000 0.430000 -0.172500
v -0.058378 0.430000 -0.122122
v -0.008000 0.430000 -0.000500
v -0.038579 0.485200 -0.141921
v 0.020000 0.485200 -0.000500
v -0.180000 0.485200 -0.200500
v -0.321421 0.485200 -0.141921
v -0.380000 0.485200 -0.000500
v -0.321421 0.485200 0.140921
v -0.180000 0.485200 0.199500
v -0.038579 0.485200 0.140921
v -0.052721 0.563400 -0.127779
v 0.000000 0.563400 -0.000500
v -0.180000 0.563400 -0.180500
v -0.307279 0.563400 -0.127779
v -0.360000 0.563400 -0.000500
v -0.307279 0.563400 0.126779
v -0.180000 0.563400 0.179500
v -0.052721 0.563400 0.126779
v -0.097976 0.623200 -0.082524
v -0.064000 0.623200 -0.000500
v -0.180000 0.623200 -0.116500
v -0.262024 0.623200 -0.082524
v -0.296000 0.623200 -0.000500
v -0.262024 0.623200 0.081524
v -0.180000 0.623200 0.115500
v -0.097976 0.623200 0.081524
v -0.148887 0.660000 -0.031613
v -0.136000 0.660000 -0.000500
v -0.180000 0.660000 -0.044500
v -0.211113 0.660000 -0.031613
v -0.224000 0.660000 -0.000500
v -0.211113 0.660000 0.030613
v -0.180000 0.660000 0.043500
v -0.148887 0.660000 0.030613
v 0.276420 0.430000 0.131920
v 0.170000 0.430000 0.176000
v 0.063580 0.430000 0.131920
v 0.019500 0.430000 0.025500
v 0.063580 0.430000 -0.080920
v 0.170000 0.430000 -0.125000
v 0.276420 0.430000 -0.080920
v 0.320500 0.430000 0.025500
v 0.293744 0.473200 -0.098244
v 0.345000 0.473200 0.025500
v 0.170000 0.473200 -0.149500
v 0.046256 0.473200 -0.098244
v -0.005000 0.473200 0.025500
v 0.046256 0.473200 0.149244
v 0.170000 0.473200 0.200500
v 0.293744 0.473200 0.149244
v 0.281369 0.534400 -0.085869
v 0.327500 0.534400 0.025500
v 0.170000 0.534400 -0.132000
v 0.058631 0.534400 -0.085869
v 0.012500 0.534400 0.025500
v 0.058631 0.534400 0.136869
v 0.170000 0.534400 0.183000
v 0.281369 0.534400 0.136869
v 0.241771 0.581200 -0.046271
v 0.271500 0.581200 0.025500
v 0.170000 0.581200 -0.076000
v 0.098229 0.581200 -0.046271
v 0.068500 0.581200 0.025500
v 0.098229 0.581200 0.097271
v 0.170000 0.581200 0.127000
v 0.241771 0.581200 0.097271
v 0.197224 0.610000 -0.001724
v 0.208500 0.610000 0.025500
v 0.170000 0.610000 -0.013000
v 0.142776 0.610000 -0.001724
v 0.131500 0.610000 0.025500
v 0.142776 0.610000 0.052724
v 0.170000 0.610000 0.064000
v 0.197224 0.610000 0.052724
v 0.095136 0.430000 0.060636
v 0.010000 0.430000 0.095900
v -0.075136 0.430000 0.060636
v -0.110400 0.430000 -0.024500
v -0.075136 0.430000 -0.109636
v 0.010000 0.430000 -0.144900
v 0.095136 0.430000 -0.109636
v 0.130400 0.430000 -0.024500
v 0.108995 0.494800 -0.123495
v 0.150000 0.494800 -0.024500
v 0.010000 0.494800 -0.164500
v -0.088995 0.494800 -0.123495
v -0.130000 0.494800 -0.024500
v -0.088995 0.494800 0.074495
v 0.010000 0.494800 0.115500
v 0.108995 0.494800 0.074495
v 0.099095 0.586600 -0.113595
v 0.136000 0.586600 -0.024500
v 0.010000 0.586600 -0.150500
v -0.079095 0.586600 -0.113595
v -0.116000 0.586600 -0.024500
v -0.079095 0.586600 0.064595
v 0.010000 0.586600 0.101500
v 0.099095 0.586600 0.064595
v 0.067417 0.656800 -0.081917
v 0.091200 0.656800 -0.024500
v 0.010000 0.656800 -0.105700
v -0.047417 0.656800 -0.081917
v -0.071200 0.656800 -0.024500
v -0.047417 0.656800 0.032917
v 0.010000 0.656800 0.056700
v 0.067417 0.656800 0.032917
v 0.031779 0.700000 -0.046279
v 0.040800 0.700000 -0.024500
v 0.010000 0.700000 -0.055300
v -0.011779 0.700000 -0.046279
v -0.020800 0.700000 -0.024500
v -0.011779 0.700000 -0.002721
v 0.010000 0.700000 0.006300
v 0.031779 0.700000 -0.002721
vn -0.0000 -1.0000 -0.0000
vn -0.0000 1.0000 -0.0000
vn -0.0000 -0.0000 1.0000
vn -0.0000 -0.0000 -1.0000
vn -1.0000 -0.0000 -0.0000
vn 1.0000 -0.0000 -0.0000
vn 0.8366 -0.4243 -0.3465
vn 0.3465 -0.4243 -0.8366
vn -0.3465 -0.4243 -0.8366
vn -0.8366 -0.4243 -0.3465
vn -0.8366 -0.4243 0.3465
vn -0.3465 -0.4243 0.8366
vn 0.3465 -0.4243 0.8366
vn 0.8366 -0.4243 0.3465
vn 0.8991 0.2300 -0.3724
vn 0.3724 0.2300 -0.8991
vn -0.3724 0.2300 -0.8991
vn -0.8991 0.2300 -0.3724
vn -0.8991 0.2300 0.3724
vn -0.3724 0.2300 0.8991
vn 0.3724 0.2300 0.8991
vn 0.8991 0.2300 0.3724
vn 0.6570 0.7031 -0.2721
vn 0.2721 0.7031 -0.6570
vn -0.2721 0.7031 -0.6570
vn -0.6570 0.7031 -0.2721
vn -0.6570 0.7031 0.2721
vn -0.2721 0.7031 0.6570
vn 0.2721 0.7031 0.6570
vn 0.6570 0.7031 0.2721
vn 0.4472 0.8750 -0.1853
vn 0.1852 0.8750 -0.4472
vn -0.1852 0.8750 -0.4472
vn -0.4472 0.8750 -0.1853
vn -0.4472 0.8750 0.1853
vn -0.1852 0.8750 0.4472
vn 0.1852 0.8750 0.4472
vn 0.4472 0.8750 0.1853
vn 0.8184 -0.4641 -0.3390
vn 0.3390 -0.4641 -0.8184
vn -0.3390 -0.4641 -0.8184
vn -0.8184 -0.4641 -0.3390
vn -0.8184 -0.4641 0.3390
vn -0.3390 -0.4641 0.8184
vn 0.3390 -0.4641 0.8184
vn 0.8184 -0.4641 0.3390
vn 0.8932 0.2554 -0.3700
vn 0.3700 0.2554 -0.8932
vn -0.3700 0.2554 -0.8932
vn -0.8932 0.2554 -0.3700
vn -0.8932 0.2554 0.3700
vn -0.3700 0.2554 0.8932
vn 0.3700 0.2554 0.8932
vn 0.8932 0.2554 0.3700
vn 0.6198 0.7416 -0.2567
vn 0.2567 0.7416 -0.6198
vn -0.2567 0.7416 -0.6198
vn -0.6198 0.7416 -0.2567
vn -0.6198 0.7416 0.2567
vn -0.2567 0.7416 0.6198
vn 0.2567 0.7416 0.6198
vn 0.6198 0.7416 0.2567
vn 0.4097 0.8963 -0.1697
vn 0.1697 0.8963 -0.4097
vn -0.1697 0.8963 -0.4097
vn -0.4097 0.8963 -0.1697
vn -0.4097 0.8963 0.1697
vn -0.1697 0.8963 0.4097
vn 0.1697 0.8963 0.4097
vn 0.4097 0.8963 0.1697
vn 0.8898 -0.2691 -0.3686
vn 0.3686 -0.2691 -0.8898
vn -0.3686 -0.2691 -0.8898
vn -0.8898 -0.2691 -0.3686
vn -0.8898 -0.2691 0.3686
vn -0.3686 -0.2691 0.8898
vn 0.3686 -0.2691 0.8898
vn 0.8898 -0.2691 0.3686
vn 0.9148 0.1395 -0.3789
vn 0.3789 0.1395 -0.9148
vn -0.3789 0.1395 -0.9148
vn -0.9148 0.1395 -0.3789
vn -0.9148 0.1395 0.3789
vn -0.3789 0.1395 0.9148
vn 0.3789 0.1395 0.9148
vn 0.9148 0.1395 0.3789
vn 0.7958 0.5079 -0.3297
vn 0.3297 0.5079 -0.7958
vn -0.3297 0.5079 -0.7958
vn -0.7958 0.5079 -0.3297
vn -0.7958 0.5079 0.3297
vn -0.3297 0.5079 0.7958
vn 0.3297 0.5079 0.7958
vn 0.7958 0.5079 0.3297
vn 0.6284 0.7331 -0.2603
vn 0.2603 0.7331 -0.6284
vn -0.2603 0.7331 -0.6284
vn -0.6284 0.7331 -0.2603
vn -0.6284 0.7331 0.2603
vn -0.2603 0.7331 0.6284
vn 0.2603 0.7331 0.6284
vn 0.6284 0.7331 0.2603
vt 0.812500 0.937500
vt 0.312500 0.687500
vt 0.937500 0.937500
vt 0.562500 0.562500
vt 0.437500 0.562500
s 0
usemtl FN_Atlas
f 1/1/1 2/1/1 3/1/1 4/1/1
f 5/1/2 6/1/2 7/1/2 8/1/2
f 1/1/3 4/1/3 6/1/3 5/1/3
f 3/1/4 2/1/4 8/1/4 7/1/4
f 1/1/5 5/1/5 8/1/5 2/1/5
f 4/1/6 3/1/6 7/1/6 6/1/6
f 9/1/1 10/1/1 11/1/1 12/1/1
f 13/1/2 14/1/2 15/1/2 16/1/2
f 9/1/3 12/1/3 14/1/3 13/1/3
f 11/1/4 10/1/4 16/1/4 15/1/4
f 9/1/5 13/1/5 16/1/5 10/1/5
f 12/1/6 11/1/6 15/1/6 14/1/6
f 17/1/1 18/1/1 19/1/1 20/1/1
f 21/1/2 22/1/2 23/1/2 24/1/2
f 17/1/3 20/1/3 22/1/3 21/1/3
f 19/1/4 18/1/4 24/1/4 23/1/4
f 17/1/5 21/1/5 24/1/5 18/1/5
f 20/1/6 19/1/6 23/1/6 22/1/6
f 25/1/1 26/1/1 27/1/1 28/1/1
f 29/1/2 30/1/2 31/1/2 32/1/2
f 25/1/3 28/1/3 30/1/3 29/1/3
f 27/1/4 26/1/4 32/1/4 31/1/4
f 25/1/5 29/1/5 32/1/5 26/1/5
f 28/1/6 27/1/6 31/1/6 30/1/6
f 33/2/1 34/2/1 35/2/1 36/2/1
f 37/2/2 38/2/2 39/2/2 40/2/2
f 33/2/3 36/2/3 38/2/3 37/2/3
f 35/2/4 34/2/4 40/2/4 39/2/4
f 33/2/5 37/2/5 40/2/5 34/2/5
f 36/2/6 35/2/6 39/2/6 38/2/6
f 41/2/1 42/2/1 43/2/1 44/2/1
f 45/2/2 46/2/2 47/2/2 48/2/2
f 41/2/3 44/2/3 46/2/3 45/2/3
f 43/2/4 42/2/4 48/2/4 47/2/4
f 41/2/5 45/2/5 48/2/5 42/2/5
f 44/2/6 43/2/6 47/2/6 46/2/6
f 49/2/1 50/2/1 51/2/1 52/2/1
f 53/2/2 54/2/2 55/2/2 56/2/2
f 49/2/3 52/2/3 54/2/3 53/2/3
f 51/2/4 50/2/4 56/2/4 55/2/4
f 49/2/5 53/2/5 56/2/5 50/2/5
f 52/2/6 51/2/6 55/2/6 54/2/6
f 57/2/1 58/2/1 59/2/1 60/2/1
f 61/2/2 62/2/2 63/2/2 64/2/2
f 57/2/3 60/2/3 62/2/3 61/2/3
f 59/2/4 58/2/4 64/2/4 63/2/4
f 57/2/5 61/2/5 64/2/5 58/2/5
f 60/2/6 59/2/6 63/2/6 62/2/6
f 65/2/1 66/2/1 67/2/1 68/2/1
f 69/2/2 70/2/2 71/2/2 72/2/2
f 65/2/3 68/2/3 70/2/3 69/2/3
f 67/2/4 66/2/4 72/2/4 71/2/4
f 65/2/5 69/2/5 72/2/5 66/2/5
f 68/2/6 67/2/6 71/2/6 70/2/6
f 73/2/1 74/2/1 75/2/1 76/2/1
f 77/2/2 78/2/2 79/2/2 80/2/2
f 73/2/3 76/2/3 78/2/3 77/2/3
f 75/2/4 74/2/4 80/2/4 79/2/4
f 73/2/5 77/2/5 80/2/5 74/2/5
f 76/2/6 75/2/6 79/2/6 78/2/6
f 81/2/1 82/2/1 83/2/1 84/2/1
f 85/2/2 86/2/2 87/2/2 88/2/2
f 81/2/3 84/2/3 86/2/3 85/2/3
f 83/2/4 82/2/4 88/2/4 87/2/4
f 81/2/5 85/2/5 88/2/5 82/2/5
f 84/2/6 83/2/6 87/2/6 86/2/6
f 89/2/1 90/2/1 91/2/1 92/2/1
f 93/2/2 94/2/2 95/2/2 96/2/2
f 89/2/3 92/2/3 94/2/3 93/2/3
f 91/2/4 90/2/4 96/2/4 95/2/4
f 89/2/5 93/2/5 96/2/5 90/2/5
f 92/2/6 91/2/6 95/2/6 94/2/6
f 97/2/1 98/2/1 99/2/1 100/2/1
f 101/2/2 102/2/2 103/2/2 104/2/2
f 97/2/3 100/2/3 102/2/3 101/2/3
f 99/2/4 98/2/4 104/2/4 103/2/4
f 97/2/5 101/2/5 104/2/5 98/2/5
f 100/2/6 99/2/6 103/2/6 102/2/6
f 105/2/1 106/2/1 107/2/1 108/2/1
f 109/2/2 110/2/2 111/2/2 112/2/2
f 105/2/3 108/2/3 110/2/3 109/2/3
f 107/2/4 106/2/4 112/2/4 111/2/4
f 105/2/5 109/2/5 112/2/5 106/2/5
f 108/2/6 107/2/6 111/2/6 110/2/6
f 113/2/1 114/2/1 115/2/1 116/2/1
f 117/2/2 118/2/2 119/2/2 120/2/2
f 113/2/3 116/2/3 118/2/3 117/2/3
f 115/2/4 114/2/4 120/2/4 119/2/4
f 113/2/5 117/2/5 120/2/5 114/2/5
f 116/2/6 115/2/6 119/2/6 118/2/6
f 121/2/1 122/2/1 123/2/1 124/2/1
f 125/2/2 126/2/2 127/2/2 128/2/2
f 121/2/3 124/2/3 126/2/3 125/2/3
f 123/2/4 122/2/4 128/2/4 127/2/4
f 121/2/5 125/2/5 128/2/5 122/2/5
f 124/2/6 123/2/6 127/2/6 126/2/6
f 129/3/1 130/3/1 131/3/1 132/3/1
f 133/3/2 134/3/2 135/3/2 136/3/2
f 129/3/3 132/3/3 134/3/3 133/3/3
f 131/3/4 130/3/4 136/3/4 135/3/4
f 129/3/5 133/3/5 136/3/5 130/3/5
f 132/3/6 131/3/6 135/3/6 134/3/6
f 137/1/1 138/1/1 139/1/1 140/1/1
f 5/1/2 22/1/2 141/1/2 142/1/2
f 137/1/3 140/1/3 22/1/3 5/1/3
f 139/1/4 138/1/4 142/1/4 141/1/4
f 137/1/5 5/1/5 142/1/5 138/1/5
f 140/1/6 139/1/6 141/1/6 22/1/6
f 143/1/1 144/1/1 145/1/1 146/1/1
f 147/1/2 148/1/2 31/1/2 16/1/2
f 143/1/3 146/1/3 148/1/3 147/1/3
f 145/1/4 144/1/4 16/1/4 31/1/4
f 143/1/5 147/1/5 16/1/5 144/1/5
f 146/1/6 145/1/6 31/1/6 148/1/6
f 138/1/1 143/1/1 149/1/1 150/1/1
f 142/1/2 151/1/2 152/1/2 147/1/2
f 138/1/3 150/1/3 151/1/3 142/1/3
f 149/1/4 143/1/4 147/1/4 152/1/4
f 138/1/5 142/1/5 147/1/5 143/1/5
f 150/1/6 149/1/6 152/1/6 151/1/6
f 153/1/1 154/1/1 146/1/1 139/1/1
f 155/1/2 141/1/2 148/1/2 156/1/2
f 153/1/3 139/1/3 141/1/3 155/1/3
f 146/1/4 154/1/4 156/1/4 148/1/4
f 153/1/5 155/1/5 156/1/5 154/1/5
f 139/1/6 146/1/6 148/1/6 141/1/6
f 157/4/1 158/4/1 159/4/1 160/4/1 161/4/1 162/4/1 163/4/1 164/4/1
f 164/4/7 163/4/7 165/4/7 166/4/7
f 163/4/8 162/4/8 167/4/8 165/4/8
f 162/4/9 161/4/9 168/4/9 167/4/9
f 161/4/10 160/4/10 169/4/10 168/4/10
f 160/4/11 159/4/11 170/4/11 169/4/11
f 159/4/12 158/4/12 171/4/12 170/4/12
f 158/4/13 157/4/13 172/4/13 171/4/13
f 157/4/14 164/4/14 166/4/14 172/4/14
f 166/4/15 165/4/15 173/4/15 174/4/15
f 165/4/16 167/4/16 175/4/16 173/4/16
f 167/4/17 168/4/17 176/4/17 175/4/17
f 168/4/18 169/4/18 177/4/18 176/4/18
f 169/4/19 170/4/19 178/4/19 177/4/19
f 170/4/20 171/4/20 179/4/20 178/4/20
f 171/4/21 172/4/21 180/4/21 179/4/21
f 172/4/22 166/4/22 174/4/22 180/4/22
f 174/4/23 173/4/23 181/4/23 182/4/23
f 173/4/24 175/4/24 183/4/24 181/4/24
f 175/4/25 176/4/25 184/4/25 183/4/25
f 176/4/26 177/4/26 185/4/26 184/4/26
f 177/4/27 178/4/27 186/4/27 185/4/27
f 178/4/28 179/4/28 187/4/28 186/4/28
f 179/4/29 180/4/29 188/4/29 187/4/29
f 180/4/30 174/4/30 182/4/30 188/4/30
f 182/4/31 181/4/31 189/4/31 190/4/31
f 181/4/32 183/4/32 191/4/32 189/4/32
f 183/4/33 184/4/33 192/4/33 191/4/33
f 184/4/34 185/4/34 193/4/34 192/4/34
f 185/4/35 186/4/35 194/4/35 193/4/35
f 186/4/36 187/4/36 195/4/36 194/4/36
f 187/4/37 188/4/37 196/4/37 195/4/37
f 188/4/38 182/4/38 190/4/38 196/4/38
f 190/4/2 189/4/2 191/4/2 192/4/2 193/4/2 194/4/2 195/4/2 196/4/2
f 197/5/1 198/5/1 199/5/1 200/5/1 201/5/1 202/5/1 203/5/1 204/5/1
f 204/5/39 203/5/39 205/5/39 206/5/39
f 203/5/40 202/5/40 207/5/40 205/5/40
f 202/5/41 201/5/41 208/5/41 207/5/41
f 201/5/42 200/5/42 209/5/42 208/5/42
f 200/5/43 199/5/43 210/5/43 209/5/43
f 199/5/44 198/5/44 211/5/44 210/5/44
f 198/5/45 197/5/45 212/5/45 211/5/45
f 197/5/46 204/5/46 206/5/46 212/5/46
f 206/5/47 205/5/47 213/5/47 214/5/47
f 205/5/48 207/5/48 215/5/48 213/5/48
f 207/5/49 208/5/49 216/5/49 215/5/49
f 208/5/50 209/5/50 217/5/50 216/5/50
f 209/5/51 210/5/51 218/5/51 217/5/51
f 210/5/52 211/5/52 219/5/52 218/5/52
f 211/5/53 212/5/53 220/5/53 219/5/53
f 212/5/54 206/5/54 214/5/54 220/5/54
f 214/5/55 213/5/55 221/5/55 222/5/55
f 213/5/56 215/5/56 223/5/56 221/5/56
f 215/5/57 216/5/57 224/5/57 223/5/57
f 216/5/58 217/5/58 225/5/58 224/5/58
f 217/5/59 218/5/59 226/5/59 225/5/59
f 218/5/60 219/5/60 227/5/60 226/5/60
f 219/5/61 220/5/61 228/5/61 227/5/61
f 220/5/62 214/5/62 222/5/62 228/5/62
f 222/5/63 221/5/63 229/5/63 230/5/63
f 221/5/64 223/5/64 231/5/64 229/5/64
f 223/5/65 224/5/65 232/5/65 231/5/65
f 224/5/66 225/5/66 233/5/66 232/5/66
f 225/5/67 226/5/67 234/5/67 233/5/67
f 226/5/68 227/5/68 235/5/68 234/5/68
f 227/5/69 228/5/69 236/5/69 235/5/69
f 228/5/70 222/5/70 230/5/70 236/5/70
f 230/5/2 229/5/2 231/5/2 232/5/2 233/5/2 234/5/2 235/5/2 236/5/2
f 237/4/1 238/4/1 239/4/1 240/4/1 241/4/1 242/4/1 243/4/1 244/4/1
f 244/4/71 243/4/71 245/4/71 246/4/71
f 243/4/72 242/4/72 247/4/72 245/4/72
f 242/4/73 241/4/73 248/4/73 247/4/73
f 241/4/74 240/4/74 249/4/74 248/4/74
f 240/4/75 239/4/75 250/4/75 249/4/75
f 239/4/76 238/4/76 251/4/76 250/4/76
f 238/4/77 237/4/77 252/4/77 251/4/77
f 237/4/78 244/4/78 246/4/78 252/4/78
f 246/4/79 245/4/79 253/4/79 254/4/79
f 245/4/80 247/4/80 255/4/80 253/4/80
f 247/4/81 248/4/81 256/4/81 255/4/81
f 248/4/82 249/4/82 257/4/82 256/4/82
f 249/4/83 250/4/83 258/4/83 257/4/83
f 250/4/84 251/4/84 259/4/84 258/4/84
f 251/4/85 252/4/85 260/4/85 259/4/85
f 252/4/86 246/4/86 254/4/86 260/4/86
f 254/4/87 253/4/87 261/4/87 262/4/87
f 253/4/88 255/4/88 263/4/88 261/4/88
f 255/4/89 256/4/89 264/4/89 263/4/89
f 256/4/90 257/4/90 265/4/90 264/4/90
f 257/4/91 258/4/91 266/4/91 265/4/91
f 258/4/92 259/4/92 267/4/92 266/4/92
f 259/4/93 260/4/93 268/4/93 267/4/93
f 260/4/94 254/4/94 262/4/94 268/4/94
f 262/4/95 261/4/95 269/4/95 270/4/95
f 261/4/96 263/4/96 271/4/96 269/4/96
f 263/4/97 264/4/97 272/4/97 271/4/97
f 264/4/98 265/4/98 273/4/98 272/4/98
f 265/4/99 266/4/99 274/4/99 273/4/99
f 266/4/100 267/4/100 275/4/100 274/4/100
f 267/4/101 268/4/101 276/4/101 275/4/101
f 268/4/102 262/4/102 270/4/102 276/4/102
f 270/4/2 269/4/2 271/4/2 272/4/2 273/4/2 274/4/2 275/4/2 276/4/2
