# Blender 5.2.0 LTS
# www.blender.org
mtllib FN_Piano_Upright.mtl
o FN_Piano_Upright
v -0.740000 0.000000 0.297500
v -0.740000 0.000000 -0.322500
v -0.700000 0.000000 -0.322500
v -0.700000 0.000000 0.297500
v -0.740000 1.240000 0.297500
v -0.700000 1.240000 0.297500
v -0.700000 1.240000 -0.322500
v -0.740000 1.240000 -0.322500
v 0.700000 0.000000 0.297500
v 0.700000 0.000000 -0.322500
v 0.740000 0.000000 -0.322500
v 0.740000 0.000000 0.297500
v 0.700000 1.240000 0.297500
v 0.740000 1.240000 0.297500
v 0.740000 1.240000 -0.322500
v 0.700000 1.240000 -0.322500
v -0.700000 0.120000 -0.282500
v -0.700000 0.120000 -0.322500
v 0.700000 0.120000 -0.322500
v 0.700000 0.120000 -0.282500
v -0.700000 1.240000 -0.282500
v 0.700000 1.240000 -0.282500
v -0.700000 0.000000 0.227500
v 0.700000 0.000000 0.227500
v -0.700000 0.120000 0.227500
v 0.700000 0.120000 0.227500
v -0.690000 0.130000 0.227500
v -0.690000 0.130000 0.183500
v 0.690000 0.130000 0.183500
v 0.690000 0.130000 0.227500
v -0.690000 0.690000 0.227500
v 0.690000 0.690000 0.227500
v 0.690000 0.690000 0.183500
v -0.690000 0.690000 0.183500
v -0.690000 0.800000 0.223500
v -0.690000 0.800000 0.183500
v 0.690000 0.800000 0.183500
v 0.690000 0.800000 0.223500
v -0.690000 0.960000 0.223500
v 0.690000 0.960000 0.223500
v 0.690000 0.960000 0.183500
v -0.690000 0.960000 0.183500
v -0.690000 0.965000 0.227500
v -0.690000 0.965000 0.183500
v 0.690000 0.965000 0.183500
v 0.690000 0.965000 0.227500
v -0.690000 1.240000 0.227500
v 0.690000 1.240000 0.227500
v 0.690000 1.240000 0.183500
v -0.690000 1.240000 0.183500
v -0.470000 0.975000 0.243500
v -0.470000 0.975000 0.217500
v 0.470000 0.975000 0.217500
v 0.470000 0.975000 0.243500
v -0.470000 1.170000 0.243500
v 0.470000 1.170000 0.243500
v 0.470000 1.170000 0.217500
v -0.470000 1.170000 0.217500
v -0.735000 0.690000 0.322500
v -0.735000 0.690000 0.177500
v 0.735000 0.690000 0.177500
v 0.735000 0.690000 0.322500
v -0.735000 0.735000 0.322500
v 0.735000 0.735000 0.322500
v 0.735000 0.735000 0.177500
v -0.735000 0.735000 0.177500
v -0.620000 0.735000 0.177500
v -0.620000 0.735000 0.322500
v -0.735000 0.800000 0.322500
v -0.620000 0.800000 0.322500
v -0.620000 0.800000 0.177500
v -0.735000 0.800000 0.177500
v 0.620000 0.735000 0.322500
v 0.620000 0.735000 0.177500
v 0.620000 0.800000 0.322500
v 0.735000 0.800000 0.322500
v 0.735000 0.800000 0.177500
v 0.620000 0.800000 0.177500
v -0.615000 0.729000 0.312500
v -0.615000 0.729000 0.192500
v 0.615000 0.729000 0.192500
v 0.615000 0.729000 0.312500
v -0.615000 0.758000 0.312500
v 0.615000 0.758000 0.312500
v 0.615000 0.758000 0.192500
v -0.615000 0.758000 0.192500
v -0.590857 0.752000 0.312500
v -0.590857 0.752000 0.242500
v -0.568857 0.752000 0.242500
v -0.568857 0.752000 0.312500
v -0.590857 0.772000 0.312500
v -0.568857 0.772000 0.312500
v -0.568857 0.772000 0.242500
v -0.590857 0.772000 0.242500
v -0.555714 0.752000 0.312500
v -0.555714 0.752000 0.242500
v -0.533714 0.752000 0.242500
v -0.533714 0.752000 0.312500
v -0.555714 0.772000 0.312500
v -0.533714 0.772000 0.312500
v -0.533714 0.772000 0.242500
v -0.555714 0.772000 0.242500
v -0.485429 0.752000 0.312500
v -0.485429 0.752000 0.242500
v -0.463429 0.752000 0.242500
v -0.463429 0.752000 0.312500
v -0.485429 0.772000 0.312500
v -0.463429 0.772000 0.312500
v -0.463429 0.772000 0.242500
v -0.485429 0.772000 0.242500
v -0.450286 0.752000 0.312500
v -0.450286 0.752000 0.242500
v -0.428286 0.752000 0.242500
v -0.428286 0.752000 0.312500
v -0.450286 0.772000 0.312500
v -0.428286 0.772000 0.312500
v -0.428286 0.772000 0.242500
v -0.450286 0.772000 0.242500
v -0.415143 0.752000 0.312500
v -0.415143 0.752000 0.242500
v -0.393143 0.752000 0.242500
v -0.393143 0.752000 0.312500
v -0.415143 0.772000 0.312500
v -0.393143 0.772000 0.312500
v -0.393143 0.772000 0.242500
v -0.415143 0.772000 0.242500
v -0.344857 0.752000 0.312500
v -0.344857 0.752000 0.242500
v -0.322857 0.752000 0.242500
v -0.322857 0.752000 0.312500
v -0.344857 0.772000 0.312500
v -0.322857 0.772000 0.312500
v -0.322857 0.772000 0.242500
v -0.344857 0.772000 0.242500
v -0.309714 0.752000 0.312500
v -0.309714 0.752000 0.242500
v -0.287714 0.752000 0.242500
v -0.287714 0.752000 0.312500
v -0.309714 0.772000 0.312500
v -0.287714 0.772000 0.312500
v -0.287714 0.772000 0.242500
v -0.309714 0.772000 0.242500
v -0.239429 0.752000 0.312500
v -0.239429 0.752000 0.242500
v -0.217429 0.752000 0.242500
v -0.217429 0.752000 0.312500
v -0.239429 0.772000 0.312500
v -0.217429 0.772000 0.312500
v -0.217429 0.772000 0.242500
v -0.239429 0.772000 0.242500
v -0.204286 0.752000 0.312500
v -0.204286 0.752000 0.242500
v -0.182286 0.752000 0.242500
v -0.182286 0.752000 0.312500
v -0.204286 0.772000 0.312500
v -0.182286 0.772000 0.312500
v -0.182286 0.772000 0.242500
v -0.204286 0.772000 0.242500
v -0.169143 0.752000 0.312500
v -0.169143 0.752000 0.242500
v -0.147143 0.752000 0.242500
v -0.147143 0.752000 0.312500
v -0.169143 0.772000 0.312500
v -0.147143 0.772000 0.312500
v -0.147143 0.772000 0.242500
v -0.169143 0.772000 0.242500
v -0.098857 0.752000 0.312500
v -0.098857 0.752000 0.242500
v -0.076857 0.752000 0.242500
v -0.076857 0.752000 0.312500
v -0.098857 0.772000 0.312500
v -0.076857 0.772000 0.312500
v -0.076857 0.772000 0.242500
v -0.098857 0.772000 0.242500
v -0.063714 0.752000 0.312500
v -0.063714 0.752000 0.242500
v -0.041714 0.752000 0.242500
v -0.041714 0.752000 0.312500
v -0.063714 0.772000 0.312500
v -0.041714 0.772000 0.312500
v -0.041714 0.772000 0.242500
v -0.063714 0.772000 0.242500
v 0.006571 0.752000 0.312500
v 0.006571 0.752000 0.242500
v 0.028571 0.752000 0.242500
v 0.028571 0.752000 0.312500
v 0.006571 0.772000 0.312500
v 0.028571 0.772000 0.312500
v 0.028571 0.772000 0.242500
v 0.006571 0.772000 0.242500
v 0.041714 0.752000 0.312500
v 0.041714 0.752000 0.242500
v 0.063714 0.752000 0.242500
v 0.063714 0.752000 0.312500
v 0.041714 0.772000 0.312500
v 0.063714 0.772000 0.312500
v 0.063714 0.772000 0.242500
v 0.041714 0.772000 0.242500
v 0.076857 0.752000 0.312500
v 0.076857 0.752000 0.242500
v 0.098857 0.752000 0.242500
v 0.098857 0.752000 0.312500
v 0.076857 0.772000 0.312500
v 0.098857 0.772000 0.312500
v 0.098857 0.772000 0.242500
v 0.076857 0.772000 0.242500
v 0.147143 0.752000 0.312500
v 0.147143 0.752000 0.242500
v 0.169143 0.752000 0.242500
v 0.169143 0.752000 0.312500
v 0.147143 0.772000 0.312500
v 0.169143 0.772000 0.312500
v 0.169143 0.772000 0.242500
v 0.147143 0.772000 0.242500
v 0.182286 0.752000 0.312500
v 0.182286 0.752000 0.242500
v 0.204286 0.752000 0.242500
v 0.204286 0.752000 0.312500
v 0.182286 0.772000 0.312500
v 0.204286 0.772000 0.312500
v 0.204286 0.772000 0.242500
v 0.182286 0.772000 0.242500
v 0.252571 0.752000 0.312500
v 0.252571 0.752000 0.242500
v 0.274571 0.752000 0.242500
v 0.274571 0.752000 0.312500
v 0.252571 0.772000 0.312500
v 0.274571 0.772000 0.312500
v 0.274571 0.772000 0.242500
v 0.252571 0.772000 0.242500
v 0.287714 0.752000 0.312500
v 0.287714 0.752000 0.242500
v 0.309714 0.752000 0.242500
v 0.309714 0.752000 0.312500
v 0.287714 0.772000 0.312500
v 0.309714 0.772000 0.312500
v 0.309714 0.772000 0.242500
v 0.287714 0.772000 0.242500
v 0.322857 0.752000 0.312500
v 0.322857 0.752000 0.242500
v 0.344857 0.752000 0.242500
v 0.344857 0.752000 0.312500
v 0.322857 0.772000 0.312500
v 0.344857 0.772000 0.312500
v 0.344857 0.772000 0.242500
v 0.322857 0.772000 0.242500
v 0.393143 0.752000 0.312500
v 0.393143 0.752000 0.242500
v 0.415143 0.752000 0.242500
v 0.415143 0.752000 0.312500
v 0.393143 0.772000 0.312500
v 0.415143 0.772000 0.312500
v 0.415143 0.772000 0.242500
v 0.393143 0.772000 0.242500
v 0.428286 0.752000 0.312500
v 0.428286 0.752000 0.242500
v 0.450286 0.752000 0.242500
v 0.450286 0.752000 0.312500
v 0.428286 0.772000 0.312500
v 0.450286 0.772000 0.312500
v 0.450286 0.772000 0.242500
v 0.428286 0.772000 0.242500
v 0.498571 0.752000 0.312500
v 0.498571 0.752000 0.242500
v 0.520571 0.752000 0.242500
v 0.520571 0.752000 0.312500
v 0.498571 0.772000 0.312500
v 0.520571 0.772000 0.312500
v 0.520571 0.772000 0.242500
v 0.498571 0.772000 0.242500
v 0.533714 0.752000 0.312500
v 0.533714 0.752000 0.242500
v 0.555714 0.752000 0.242500
v 0.555714 0.752000 0.312500
v 0.533714 0.772000 0.312500
v 0.555714 0.772000 0.312500
v 0.555714 0.772000 0.242500
v 0.533714 0.772000 0.242500
v 0.568857 0.752000 0.312500
v 0.568857 0.752000 0.242500
v 0.590857 0.752000 0.242500
v 0.590857 0.752000 0.312500
v 0.568857 0.772000 0.312500
v 0.590857 0.772000 0.312500
v 0.590857 0.772000 0.242500
v 0.568857 0.772000 0.242500
v -0.760000 1.230000 0.332500
v -0.760000 1.230000 -0.332500
v 0.760000 1.230000 -0.332500
v 0.760000 1.230000 0.332500
v -0.760000 1.270000 0.332500
v 0.760000 1.270000 0.332500
v 0.760000 1.270000 -0.332500
v -0.760000 1.270000 -0.332500
v -0.092000 0.086000 0.255500
v -0.092000 0.086000 0.187500
v -0.058000 0.086000 0.187500
v -0.058000 0.086000 0.255500
v -0.092000 0.100000 0.255500
v -0.058000 0.100000 0.255500
v -0.058000 0.100000 0.187500
v -0.092000 0.100000 0.187500
v -0.017000 0.086000 0.255500
v -0.017000 0.086000 0.187500
v 0.017000 0.086000 0.187500
v 0.017000 0.086000 0.255500
v -0.017000 0.100000 0.255500
v 0.017000 0.100000 0.255500
v 0.017000 0.100000 0.187500
v -0.017000 0.100000 0.187500
v 0.058000 0.086000 0.255500
v 0.058000 0.086000 0.187500
v 0.092000 0.086000 0.187500
v 0.092000 0.086000 0.255500
v 0.058000 0.100000 0.255500
v 0.092000 0.100000 0.255500
v 0.092000 0.100000 0.187500
v 0.058000 0.100000 0.187500
vn -0.0000 -1.0000 -0.0000
vn -0.0000 1.0000 -0.0000
vn -0.0000 -0.0000 1.0000
vn -0.0000 -0.0000 -1.0000
vn -1.0000 -0.0000 -0.0000
vn 1.0000 -0.0000 -0.0000
vt 0.937500 0.937500
vt 0.562500 0.937500
vt 0.437500 0.812500
vt 0.437500 0.312500
s 0
usemtl FN_Atlas
f 1/1/1 2/1/1 3/1/1 4/1/1
f 5/1/2 6/1/2 7/1/2 8/1/2
f 1/1/3 4/1/3 6/1/3 5/1/3
f 3/1/4 2/1/4 8/1/4 7/1/4
f 1/1/5 5/1/5 8/1/5 2/1/5
f 4/1/6 3/1/6 7/1/6 6/1/6
f 9/1/1 10/1/1 11/1/1 12/1/1
f 13/1/2 14/1/2 15/1/2 16/1/2
f 9/1/3 12/1/3 14/1/3 13/1/3
f 11/1/4 10/1/4 16/1/4 15/1/4
f 9/1/5 13/1/5 16/1/5 10/1/5
f 12/1/6 11/1/6 15/1/6 14/1/6
f 17/1/1 18/1/1 19/1/1 20/1/1
f 21/1/2 22/1/2 16/1/2 7/1/2
f 17/1/3 20/1/3 22/1/3 21/1/3
f 19/1/4 18/1/4 7/1/4 16/1/4
f 17/1/5 21/1/5 7/1/5 18/1/5
f 20/1/6 19/1/6 16/1/6 22/1/6
f 23/1/1 3/1/1 10/1/1 24/1/1
f 25/1/2 26/1/2 19/1/2 18/1/2
f 23/1/3 24/1/3 26/1/3 25/1/3
f 10/1/4 3/1/4 18/1/4 19/1/4
f 23/1/5 25/1/5 18/1/5 3/1/5
f 24/1/6 10/1/6 19/1/6 26/1/6
f 27/2/1 28/2/1 29/2/1 30/2/1
f 31/2/2 32/2/2 33/2/2 34/2/2
f 27/2/3 30/2/3 32/2/3 31/2/3
f 29/2/4 28/2/4 34/2/4 33/2/4
f 27/2/5 31/2/5 34/2/5 28/2/5
f 30/2/6 29/2/6 33/2/6 32/2/6
f 35/1/1 36/1/1 37/1/1 38/1/1
f 39/1/2 40/1/2 41/1/2 42/1/2
f 35/1/3 38/1/3 40/1/3 39/1/3
f 37/1/4 36/1/4 42/1/4 41/1/4
f 35/1/5 39/1/5 42/1/5 36/1/5
f 38/1/6 37/1/6 41/1/6 40/1/6
f 43/2/1 44/2/1 45/2/1 46/2/1
f 47/2/2 48/2/2 49/2/2 50/2/2
f 43/2/3 46/2/3 48/2/3 47/2/3
f 45/2/4 44/2/4 50/2/4 49/2/4
f 43/2/5 47/2/5 50/2/5 44/2/5
f 46/2/6 45/2/6 49/2/6 48/2/6
f 51/1/1 52/1/1 53/1/1 54/1/1
f 55/1/2 56/1/2 57/1/2 58/1/2
f 51/1/3 54/1/3 56/1/3 55/1/3
f 53/1/4 52/1/4 58/1/4 57/1/4
f 51/1/5 55/1/5 58/1/5 52/1/5
f 54/1/6 53/1/6 57/1/6 56/1/6
f 59/1/1 60/1/1 61/1/1 62/1/1
f 63/1/2 64/1/2 65/1/2 66/1/2
f 59/1/3 62/1/3 64/1/3 63/1/3
f 61/1/4 60/1/4 66/1/4 65/1/4
f 59/1/5 63/1/5 66/1/5 60/1/5
f 62/1/6 61/1/6 65/1/6 64/1/6
f 63/1/1 66/1/1 67/1/1 68/1/1
f 69/1/2 70/1/2 71/1/2 72/1/2
f 63/1/3 68/1/3 70/1/3 69/1/3
f 67/1/4 66/1/4 72/1/4 71/1/4
f 63/1/5 69/1/5 72/1/5 66/1/5
f 68/1/6 67/1/6 71/1/6 70/1/6
f 73/1/1 74/1/1 65/1/1 64/1/1
f 75/1/2 76/1/2 77/1/2 78/1/2
f 73/1/3 64/1/3 76/1/3 75/1/3
f 65/1/4 74/1/4 78/1/4 77/1/4
f 73/1/5 75/1/5 78/1/5 74/1/5
f 64/1/6 65/1/6 77/1/6 76/1/6
f 79/3/1 80/3/1 81/3/1 82/3/1
f 83/3/2 84/3/2 85/3/2 86/3/2
f 79/3/3 82/3/3 84/3/3 83/3/3
f 81/3/4 80/3/4 86/3/4 85/3/4
f 79/3/5 83/3/5 86/3/5 80/3/5
f 82/3/6 81/3/6 85/3/6 84/3/6
f 87/1/1 88/1/1 89/1/1 90/1/1
f 91/1/2 92/1/2 93/1/2 94/1/2
f 87/1/3 90/1/3 92/1/3 91/1/3
f 89/1/4 88/1/4 94/1/4 93/1/4
f 87/1/5 91/1/5 94/1/5 88/1/5
f 90/1/6 89/1/6 93/1/6 92/1/6
f 95/1/1 96/1/1 97/1/1 98/1/1
f 99/1/2 100/1/2 101/1/2 102/1/2
f 95/1/3 98/1/3 100/1/3 99/1/3
f 97/1/4 96/1/4 102/1/4 101/1/4
f 95/1/5 99/1/5 102/1/5 96/1/5
f 98/1/6 97/1/6 101/1/6 100/1/6
f 103/1/1 104/1/1 105/1/1 106/1/1
f 107/1/2 108/1/2 109/1/2 110/1/2
f 103/1/3 106/1/3 108/1/3 107/1/3
f 105/1/4 104/1/4 110/1/4 109/1/4
f 103/1/5 107/1/5 110/1/5 104/1/5
f 106/1/6 105/1/6 109/1/6 108/1/6
f 111/1/1 112/1/1 113/1/1 114/1/1
f 115/1/2 116/1/2 117/1/2 118/1/2
f 111/1/3 114/1/3 116/1/3 115/1/3
f 113/1/4 112/1/4 118/1/4 117/1/4
f 111/1/5 115/1/5 118/1/5 112/1/5
f 114/1/6 113/1/6 117/1/6 116/1/6
f 119/1/1 120/1/1 121/1/1 122/1/1
f 123/1/2 124/1/2 125/1/2 126/1/2
f 119/1/3 122/1/3 124/1/3 123/1/3
f 121/1/4 120/1/4 126/1/4 125/1/4
f 119/1/5 123/1/5 126/1/5 120/1/5
f 122/1/6 121/1/6 125/1/6 124/1/6
f 127/1/1 128/1/1 129/1/1 130/1/1
f 131/1/2 132/1/2 133/1/2 134/1/2
f 127/1/3 130/1/3 132/1/3 131/1/3
f 129/1/4 128/1/4 134/1/4 133/1/4
f 127/1/5 131/1/5 134/1/5 128/1/5
f 130/1/6 129/1/6 133/1/6 132/1/6
f 135/1/1 136/1/1 137/1/1 138/1/1
f 139/1/2 140/1/2 141/1/2 142/1/2
f 135/1/3 138/1/3 140/1/3 139/1/3
f 137/1/4 136/1/4 142/1/4 141/1/4
f 135/1/5 139/1/5 142/1/5 136/1/5
f 138/1/6 137/1/6 141/1/6 140/1/6
f 143/1/1 144/1/1 145/1/1 146/1/1
f 147/1/2 148/1/2 149/1/2 150/1/2
f 143/1/3 146/1/3 148/1/3 147/1/3
f 145/1/4 144/1/4 150/1/4 149/1/4
f 143/1/5 147/1/5 150/1/5 144/1/5
f 146/1/6 145/1/6 149/1/6 148/1/6
f 151/1/1 152/1/1 153/1/1 154/1/1
f 155/1/2 156/1/2 157/1/2 158/1/2
f 151/1/3 154/1/3 156/1/3 155/1/3
f 153/1/4 152/1/4 158/1/4 157/1/4
f 151/1/5 155/1/5 158/1/5 152/1/5
f 154/1/6 153/1/6 157/1/6 156/1/6
f 159/1/1 160/1/1 161/1/1 162/1/1
f 163/1/2 164/1/2 165/1/2 166/1/2
f 159/1/3 162/1/3 164/1/3 163/1/3
f 161/1/4 160/1/4 166/1/4 165/1/4
f 159/1/5 163/1/5 166/1/5 160/1/5
f 162/1/6 161/1/6 165/1/6 164/1/6
f 167/1/1 168/1/1 169/1/1 170/1/1
f 171/1/2 172/1/2 173/1/2 174/1/2
f 167/1/3 170/1/3 172/1/3 171/1/3
f 169/1/4 168/1/4 174/1/4 173/1/4
f 167/1/5 171/1/5 174/1/5 168/1/5
f 170/1/6 169/1/6 173/1/6 172/1/6
f 175/1/1 176/1/1 177/1/1 178/1/1
f 179/1/2 180/1/2 181/1/2 182/1/2
f 175/1/3 178/1/3 180/1/3 179/1/3
f 177/1/4 176/1/4 182/1/4 181/1/4
f 175/1/5 179/1/5 182/1/5 176/1/5
f 178/1/6 177/1/6 181/1/6 180/1/6
f 183/1/1 184/1/1 185/1/1 186/1/1
f 187/1/2 188/1/2 189/1/2 190/1/2
f 183/1/3 186/1/3 188/1/3 187/1/3
f 185/1/4 184/1/4 190/1/4 189/1/4
f 183/1/5 187/1/5 190/1/5 184/1/5
f 186/1/6 185/1/6 189/1/6 188/1/6
f 191/1/1 192/1/1 193/1/1 194/1/1
f 195/1/2 196/1/2 197/1/2 198/1/2
f 191/1/3 194/1/3 196/1/3 195/1/3
f 193/1/4 192/1/4 198/1/4 197/1/4
f 191/1/5 195/1/5 198/1/5 192/1/5
f 194/1/6 193/1/6 197/1/6 196/1/6
f 199/1/1 200/1/1 201/1/1 202/1/1
f 203/1/2 204/1/2 205/1/2 206/1/2
f 199/1/3 202/1/3 204/1/3 203/1/3
f 201/1/4 200/1/4 206/1/4 205/1/4
f 199/1/5 203/1/5 206/1/5 200/1/5
f 202/1/6 201/1/6 205/1/6 204/1/6
f 207/1/1 208/1/1 209/1/1 210/1/1
f 211/1/2 212/1/2 213/1/2 214/1/2
f 207/1/3 210/1/3 212/1/3 211/1/3
f 209/1/4 208/1/4 214/1/4 213/1/4
f 207/1/5 211/1/5 214/1/5 208/1/5
f 210/1/6 209/1/6 213/1/6 212/1/6
f 215/1/1 216/1/1 217/1/1 218/1/1
f 219/1/2 220/1/2 221/1/2 222/1/2
f 215/1/3 218/1/3 220/1/3 219/1/3
f 217/1/4 216/1/4 222/1/4 221/1/4
f 215/1/5 219/1/5 222/1/5 216/1/5
f 218/1/6 217/1/6 221/1/6 220/1/6
f 223/1/1 224/1/1 225/1/1 226/1/1
f 227/1/2 228/1/2 229/1/2 230/1/2
f 223/1/3 226/1/3 228/1/3 227/1/3
f 225/1/4 224/1/4 230/1/4 229/1/4
f 223/1/5 227/1/5 230/1/5 224/1/5
f 226/1/6 225/1/6 229/1/6 228/1/6
f 231/1/1 232/1/1 233/1/1 234/1/1
f 235/1/2 236/1/2 237/1/2 238/1/2
f 231/1/3 234/1/3 236/1/3 235/1/3
f 233/1/4 232/1/4 238/1/4 237/1/4
f 231/1/5 235/1/5 238/1/5 232/1/5
f 234/1/6 233/1/6 237/1/6 236/1/6
f 239/1/1 240/1/1 241/1/1 242/1/1
f 243/1/2 244/1/2 245/1/2 246/1/2
f 239/1/3 242/1/3 244/1/3 243/1/3
f 241/1/4 240/1/4 246/1/4 245/1/4
f 239/1/5 243/1/5 246/1/5 240/1/5
f 242/1/6 241/1/6 245/1/6 244/1/6
f 247/1/1 248/1/1 249/1/1 250/1/1
f 251/1/2 252/1/2 253/1/2 254/1/2
f 247/1/3 250/1/3 252/1/3 251/1/3
f 249/1/4 248/1/4 254/1/4 253/1/4
f 247/1/5 251/1/5 254/1/5 248/1/5
f 250/1/6 249/1/6 253/1/6 252/1/6
f 255/1/1 256/1/1 257/1/1 258/1/1
f 259/1/2 260/1/2 261/1/2 262/1/2
f 255/1/3 258/1/3 260/1/3 259/1/3
f 257/1/4 256/1/4 262/1/4 261/1/4
f 255/1/5 259/1/5 262/1/5 256/1/5
f 258/1/6 257/1/6 261/1/6 260/1/6
f 263/1/1 264/1/1 265/1/1 266/1/1
f 267/1/2 268/1/2 269/1/2 270/1/2
f 263/1/3 266/1/3 268/1/3 267/1/3
f 265/1/4 264/1/4 270/1/4 269/1/4
f 263/1/5 267/1/5 270/1/5 264/1/5
f 266/1/6 265/1/6 269/1/6 268/1/6
f 271/1/1 272/1/1 273/1/1 274/1/1
f 275/1/2 276/1/2 277/1/2 278/1/2
f 271/1/3 274/1/3 276/1/3 275/1/3
f 273/1/4 272/1/4 278/1/4 277/1/4
f 271/1/5 275/1/5 278/1/5 272/1/5
f 274/1/6 273/1/6 277/1/6 276/1/6
f 279/1/1 280/1/1 281/1/1 282/1/1
f 283/1/2 284/1/2 285/1/2 286/1/2
f 279/1/3 282/1/3 284/1/3 283/1/3
f 281/1/4 280/1/4 286/1/4 285/1/4
f 279/1/5 283/1/5 286/1/5 280/1/5
f 282/1/6 281/1/6 285/1/6 284/1/6
f 287/1/1 288/1/1 289/1/1 290/1/1
f 291/1/2 292/1/2 293/1/2 294/1/2
f 287/4/3 290/4/3 292/4/3 291/4/3
f 289/1/4 288/1/4 294/1/4 293/1/4
f 287/1/5 291/1/5 294/1/5 288/1/5
f 290/1/6 289/1/6 293/1/6 292/1/6
f 295/4/1 296/4/1 297/4/1 298/4/1
f 299/4/2 300/4/2 301/4/2 302/4/2
f 295/4/3 298/4/3 300/4/3 299/4/3
f 297/4/4 296/4/4 302/4/4 301/4/4
f 295/4/5 299/4/5 302/4/5 296/4/5
f 298/4/6 297/4/6 301/4/6 300/4/6
f 303/4/1 304/4/1 305/4/1 306/4/1
f 307/4/2 308/4/2 309/4/2 310/4/2
f 303/4/3 306/4/3 308/4/3 307/4/3
f 305/4/4 304/4/4 310/4/4 309/4/4
f 303/4/5 307/4/5 310/4/5 304/4/5
f 306/4/6 305/4/6 309/4/6 308/4/6
f 311/4/1 312/4/1 313/4/1 314/4/1
f 315/4/2 316/4/2 317/4/2 318/4/2
f 311/4/3 314/4/3 316/4/3 315/4/3
f 313/4/4 312/4/4 318/4/4 317/4/4
f 311/4/5 315/4/5 318/4/5 312/4/5
f 314/4/6 313/4/6 317/4/6 316/4/6
