# Blender 5.2.0 LTS
# www.blender.org
mtllib FN_Plant_Tall.mtl
o FN_Plant_Tall
v 0.107275 0.000000 0.068205
v 0.079528 0.000000 0.109731
v 0.038002 0.000000 0.137478
v -0.010982 0.000000 0.147222
v -0.059965 0.000000 0.137478
v -0.101491 0.000000 0.109731
v -0.129238 0.000000 0.068205
v -0.138982 0.000000 0.019222
v -0.129238 0.000000 -0.029762
v -0.101491 0.000000 -0.071288
v -0.059965 0.000000 -0.099035
v -0.010982 0.000000 -0.108778
v 0.038002 0.000000 -0.099035
v 0.079528 0.000000 -0.071288
v 0.107275 0.000000 -0.029762
v 0.117018 0.000000 0.019222
v 0.107275 0.008000 -0.029762
v 0.117018 0.008000 0.019222
v 0.079528 0.008000 -0.071288
v 0.038002 0.008000 -0.099035
v -0.010982 0.008000 -0.108778
v -0.059965 0.008000 -0.099035
v -0.101491 0.008000 -0.071288
v -0.129238 0.008000 -0.029762
v -0.138982 0.008000 0.019222
v -0.129238 0.008000 0.068205
v -0.101491 0.008000 0.109731
v -0.059965 0.008000 0.137478
v -0.010982 0.008000 0.147222
v 0.038002 0.008000 0.137478
v 0.079528 0.008000 0.109731
v 0.107275 0.008000 0.068205
v 0.144230 0.274000 -0.045069
v 0.157018 0.274000 0.019222
v 0.107812 0.274000 -0.099572
v 0.053309 0.274000 -0.135990
v -0.010982 0.274000 -0.148778
v -0.075272 0.274000 -0.135990
v -0.129776 0.274000 -0.099572
v -0.166193 0.274000 -0.045069
v -0.178982 0.274000 0.019222
v -0.166193 0.274000 0.083512
v -0.129776 0.274000 0.138016
v -0.075272 0.274000 0.174433
v -0.010982 0.274000 0.187222
v 0.053309 0.274000 0.174433
v 0.107812 0.274000 0.138016
v 0.144230 0.274000 0.083512
v 0.151621 0.286000 -0.048131
v 0.165018 0.286000 0.019222
v 0.113469 0.286000 -0.105229
v 0.056371 0.286000 -0.143381
v -0.010982 0.286000 -0.156778
v -0.078334 0.286000 -0.143381
v -0.135432 0.286000 -0.105229
v -0.173584 0.286000 -0.048131
v -0.186982 0.286000 0.019222
v -0.173584 0.286000 0.086574
v -0.135432 0.286000 0.143672
v -0.078334 0.286000 0.181824
v -0.010982 0.286000 0.195222
v 0.056371 0.286000 0.181824
v 0.113469 0.286000 0.143672
v 0.151621 0.286000 0.086574
v 0.147926 0.300000 -0.046600
v 0.161018 0.300000 0.019222
v 0.110641 0.300000 -0.102401
v 0.054840 0.300000 -0.139686
v -0.010982 0.300000 -0.152778
v -0.076803 0.300000 -0.139686
v -0.132604 0.300000 -0.102401
v -0.169889 0.300000 -0.046600
v -0.182982 0.300000 0.019222
v -0.169889 0.300000 0.085043
v -0.132604 0.300000 0.140844
v -0.076803 0.300000 0.178129
v -0.010982 0.300000 0.191222
v 0.054840 0.300000 0.178129
v 0.110641 0.300000 0.140844
v 0.147926 0.300000 0.085043
v 0.140535 0.254000 0.081982
v 0.104984 0.254000 0.135187
v 0.104984 0.300000 0.135187
v 0.140535 0.300000 0.081982
v 0.051778 0.254000 0.170738
v 0.051778 0.300000 0.170738
v -0.010982 0.254000 0.183222
v -0.010982 0.300000 0.183222
v -0.073742 0.254000 0.170738
v -0.073742 0.300000 0.170738
v -0.126947 0.254000 0.135187
v -0.126947 0.300000 0.135187
v -0.162498 0.254000 0.081982
v -0.162498 0.300000 0.081982
v -0.174982 0.254000 0.019222
v -0.174982 0.300000 0.019222
v -0.162498 0.254000 -0.043539
v -0.162498 0.300000 -0.043539
v -0.126947 0.254000 -0.096744
v -0.126947 0.300000 -0.096744
v -0.073742 0.254000 -0.132295
v -0.073742 0.300000 -0.132295
v -0.010982 0.254000 -0.144778
v -0.010982 0.300000 -0.144778
v 0.051778 0.254000 -0.132295
v 0.051778 0.300000 -0.132295
v 0.104984 0.254000 -0.096744
v 0.104984 0.300000 -0.096744
v 0.140535 0.254000 -0.043539
v 0.140535 0.300000 -0.043539
v 0.153018 0.254000 0.019222
v 0.153018 0.300000 0.019222
v 0.129018 0.264000 0.019222
v 0.118361 0.264000 -0.034354
v 0.088013 0.264000 -0.079773
v 0.042594 0.264000 -0.110122
v -0.010982 0.264000 -0.120778
v -0.064557 0.264000 -0.110122
v -0.109977 0.264000 -0.079773
v -0.140325 0.264000 -0.034354
v -0.150982 0.264000 0.019222
v -0.140325 0.264000 0.072797
v -0.109977 0.264000 0.118217
v -0.064557 0.264000 0.148565
v -0.010982 0.264000 0.159222
v 0.042594 0.264000 0.148565
v 0.088013 0.264000 0.118217
v 0.118361 0.264000 0.072797
v 0.151018 0.256000 0.019222
v 0.138687 0.256000 -0.042773
v 0.103570 0.256000 -0.095330
v 0.051013 0.256000 -0.130447
v -0.010982 0.256000 -0.142778
v -0.072976 0.256000 -0.130447
v -0.125533 0.256000 -0.095330
v -0.160650 0.256000 -0.042773
v -0.172982 0.256000 0.019222
v -0.160650 0.256000 0.081216
v -0.125533 0.256000 0.133773
v -0.072976 0.256000 0.168890
v -0.010982 0.256000 0.181222
v 0.051013 0.256000 0.168890
v 0.103570 0.256000 0.133773
v 0.138687 0.256000 0.081216
v -0.027952 0.244645 0.002263
v -0.011050 0.243094 -0.004761
v 0.005892 0.242075 0.002263
v 0.012949 0.242182 0.019222
v 0.005989 0.243355 0.036180
v -0.010913 0.244906 0.043204
v -0.027855 0.245926 0.036180
v -0.034913 0.245818 0.019222
v -0.009879 1.308507 0.027106
v -0.006625 1.307886 0.034845
v 0.001107 1.308503 0.038119
v 0.008787 1.309997 0.035009
v 0.011916 1.311493 0.027338
v 0.008661 1.312114 0.019598
v 0.000929 1.311496 0.016324
v -0.006750 1.310003 0.019434
v -0.001636 0.559240 0.021892
v -0.007727 0.559557 0.007229
v 0.013039 0.559368 0.027962
v 0.027702 0.559866 0.021882
v 0.033764 0.560443 0.007214
v 0.027673 0.560760 -0.007449
v 0.012997 0.560632 -0.013519
v -0.001666 0.560134 -0.007439
v -0.037345 0.900080 0.051607
v -0.042481 0.900169 0.039237
v -0.024967 0.899943 0.056721
v -0.012597 0.899840 0.051585
v -0.007483 0.899831 0.039206
v -0.012618 0.899920 0.026836
v -0.024997 0.900057 0.021722
v -0.037366 0.900160 0.026858
v 0.008983 1.180931 0.019295
v 0.004797 1.180902 0.009224
v 0.019047 1.180415 0.023465
v 0.029095 1.179656 0.019292
v 0.033240 1.179098 0.009219
v 0.029054 1.179069 -0.000852
v 0.018989 1.179585 -0.005022
v 0.008942 1.180344 -0.000849
v 0.003210 0.423427 0.014979
v -0.002644 0.421354 0.011635
v -0.001758 0.414646 0.009644
v 0.004645 0.412573 0.011757
v 0.007715 0.418000 0.015054
v 0.026283 0.432833 -0.026650
v 0.023212 0.427406 -0.029947
v 0.016810 0.429479 -0.032060
v 0.015924 0.436187 -0.030069
v 0.021778 0.438260 -0.026725
v 0.187859 0.467801 -0.079600
v 0.260356 0.512571 -0.198152
v 0.185889 0.562609 -0.399882
v -0.013854 0.512571 -0.320239
v -0.053446 0.467801 -0.187036
v 0.021053 0.430931 -0.029655
v 0.020550 0.434735 -0.028525
v -0.053948 0.471605 -0.185907
v -0.014357 0.516375 -0.319109
v 0.185386 0.566413 -0.398753
v 0.259853 0.516375 -0.197023
v 0.187356 0.471605 -0.078471
v 0.007034 0.486942 0.006781
v 0.012145 0.485054 0.011260
v 0.010276 0.478946 0.014251
v 0.004010 0.477058 0.011621
v 0.002006 0.482000 0.007004
v -0.020022 0.506000 0.042257
v -0.018018 0.501058 0.046873
v -0.011752 0.502946 0.049504
v -0.009883 0.509054 0.046513
v -0.014994 0.510942 0.042034
v -0.170089 0.559422 0.062311
v -0.245742 0.626396 0.151823
v -0.196262 0.701248 0.335621
v -0.009375 0.626396 0.299523
v 0.037915 0.559422 0.192286
v -0.015464 0.504268 0.046284
v -0.014404 0.507732 0.044588
v 0.038974 0.562886 0.190590
v -0.008315 0.629860 0.297826
v -0.195202 0.704712 0.333925
v -0.244683 0.629860 0.150127
v -0.169029 0.562886 0.060615
v 0.010073 0.550129 0.010328
v 0.008909 0.548170 0.003652
v 0.011849 0.541830 0.002697
v 0.014831 0.539871 0.008782
v 0.013733 0.545000 0.013498
v 0.054764 0.566042 0.000166
v 0.055862 0.560913 -0.004550
v 0.052880 0.562872 -0.010635
v 0.049939 0.569212 -0.009679
v 0.051104 0.571171 -0.003004
v 0.188586 0.613587 0.081803
v 0.310688 0.673504 0.060052
v 0.397375 0.740469 -0.117464
v 0.222902 0.673504 -0.210124
v 0.111335 0.613587 -0.155952
v 0.053744 0.564244 -0.005811
v 0.052076 0.567839 -0.005270
v 0.109667 0.617182 -0.155410
v 0.221234 0.677099 -0.209582
v 0.395707 0.744065 -0.116922
v 0.309020 0.677099 0.060594
v 0.186918 0.617182 0.082345
v 0.008057 0.627582 0.014043
v 0.001338 0.625450 0.014293
v 0.001185 0.618550 0.012835
v 0.007809 0.616418 0.011683
v 0.012056 0.622000 0.012430
v 0.007148 0.631980 -0.034264
v 0.002901 0.626398 -0.035011
v -0.003723 0.628530 -0.033859
v -0.003570 0.635429 -0.032400
v 0.003149 0.637561 -0.032651
v 0.102267 0.650930 -0.143578
v 0.104975 0.676316 -0.263953
v -0.035580 0.704689 -0.383399
v -0.148230 0.676316 -0.237340
v -0.120554 0.650930 -0.120158
v 0.001138 0.630023 -0.034051
v 0.001225 0.633936 -0.033223
v -0.120467 0.654842 -0.119331
v -0.148143 0.680229 -0.236513
v -0.035493 0.708601 -0.382572
v 0.105062 0.680229 -0.263126
v 0.102354 0.654842 -0.142751
v 0.000789 0.704731 0.019006
v -0.001351 0.702924 0.025479
v -0.005257 0.697076 0.024930
v -0.005531 0.695269 0.018118
v -0.001794 0.700000 0.014456
v -0.041200 0.726841 0.008918
v -0.044937 0.722111 0.012580
v -0.044664 0.723917 0.019392
v -0.040758 0.729765 0.019941
v -0.038617 0.731572 0.013468
v -0.123783 0.792742 -0.131188
v -0.241693 0.874777 -0.166108
v -0.397375 0.966464 -0.035080
v -0.283840 0.874777 0.133784
v -0.160872 0.792742 0.132717
v -0.043143 0.725183 0.014704
v -0.040928 0.728499 0.015015
v -0.158657 0.796058 0.133029
v -0.281625 0.878093 0.134096
v -0.395160 0.969780 -0.034769
v -0.239478 0.878093 -0.165797
v -0.121568 0.796058 -0.130877
v -0.010502 0.767362 0.023712
v -0.004619 0.765314 0.027020
v -0.005561 0.758686 0.029240
v -0.012027 0.756638 0.027305
v -0.015081 0.762000 0.023889
v -0.032705 0.778417 0.065409
v -0.029651 0.773055 0.068825
v -0.023185 0.775103 0.070760
v -0.022243 0.781731 0.068539
v -0.028126 0.783779 0.065232
v -0.174310 0.813239 0.115588
v -0.236806 0.857805 0.222078
v -0.168163 0.907613 0.399882
v 0.007422 0.857805 0.325747
v 0.040611 0.813239 0.206817
v -0.027449 0.776538 0.068383
v -0.026915 0.780296 0.067123
v 0.041146 0.816998 0.205557
v 0.007957 0.861563 0.324487
v -0.167628 0.911372 0.398623
v -0.236271 0.861563 0.220818
v -0.173775 0.816998 0.114329
v -0.022332 0.846371 0.032278
v -0.016409 0.844702 0.028830
v -0.013375 0.839298 0.032199
v -0.017423 0.837629 0.037729
v -0.022958 0.842000 0.037778
v 0.001646 0.872854 0.065103
v 0.007181 0.868483 0.065055
v 0.011229 0.870152 0.059525
v 0.008195 0.875555 0.056156
v 0.002272 0.877225 0.059603
v -0.028335 0.944639 0.211404
v 0.029873 1.033666 0.301763
v 0.215771 1.133168 0.293946
v 0.242977 1.033666 0.109883
v 0.159196 0.944639 0.042549
v 0.006965 0.871322 0.062044
v 0.005244 0.874386 0.060133
v 0.157476 0.947703 0.040639
v 0.241256 1.036730 0.107973
v 0.214051 1.136232 0.292036
v 0.028152 1.036730 0.299852
v -0.030056 0.947703 0.209493
v -0.022449 0.922942 0.040683
v -0.027064 0.921054 0.035694
v -0.024893 0.914946 0.032915
v -0.018935 0.913058 0.036186
v -0.017425 0.918000 0.040987
v 0.008168 0.942000 0.008230
v 0.006657 0.937058 0.003429
v 0.000700 0.938946 0.000158
v -0.001471 0.945054 0.002937
v 0.003144 0.946942 0.007926
v 0.150332 0.992046 0.004225
v 0.229795 1.054918 -0.071887
v 0.201246 1.125188 -0.248645
v 0.022832 1.054918 -0.233584
v -0.031795 0.992046 -0.138069
v 0.004055 0.940268 0.003748
v 0.002824 0.943732 0.005324
v -0.033027 0.995510 -0.136493
v 0.021600 1.058383 -0.232008
v 0.200015 1.128652 -0.247069
v 0.228564 1.058383 -0.070311
v 0.149101 0.995510 0.005801
v -0.007282 0.989964 0.031672
v -0.013197 0.988450 0.035204
v -0.016721 0.983550 0.031554
v -0.012985 0.982036 0.025767
v -0.007151 0.986000 0.025839
v -0.030314 1.020528 0.001854
v -0.036148 1.016564 0.001781
v -0.039884 1.018078 0.007569
v -0.036359 1.022978 0.011219
v -0.030445 1.024492 0.007687
v 0.001189 1.103347 -0.143614
v -0.054680 1.205599 -0.226932
v -0.237374 1.319881 -0.203926
v -0.266742 1.205599 -0.022146
v -0.185425 1.103347 0.036597
v -0.035629 1.019139 0.004987
v -0.033630 1.021918 0.007057
v -0.183426 1.106125 0.038667
v -0.264743 1.208377 -0.020076
v -0.235375 1.322659 -0.201856
v -0.052681 1.208377 -0.224862
v 0.003188 1.106125 -0.141544
v 0.000734 1.063213 0.019458
v 0.003750 1.061222 0.025515
v 0.001372 1.054778 0.027119
v -0.003114 1.052787 0.022054
v -0.003508 1.058000 0.017319
v -0.039862 1.077523 0.041839
v -0.039468 1.072310 0.046574
v -0.034981 1.074301 0.051640
v -0.032603 1.080745 0.050036
v -0.035619 1.082736 0.043979
v -0.171160 1.115069 0.006780
v -0.268456 1.162879 0.054563
v -0.299017 1.216313 0.223879
v -0.130582 1.162879 0.258971
v -0.049830 1.115069 0.186659
v -0.037181 1.075696 0.047269
v -0.035832 1.079350 0.046359
v -0.048481 1.118723 0.185749
v -0.129233 1.166533 0.258061
v -0.297668 1.219967 0.222969
v -0.267108 1.166533 0.053653
v -0.169811 1.118723 0.005870
v 0.007380 1.129513 0.011304
v 0.014290 1.128171 0.010864
v 0.016008 1.123829 0.016150
v 0.010159 1.122487 0.019857
v 0.004826 1.126000 0.016861
v 0.013958 1.163825 0.044967
v 0.019291 1.160311 0.047962
v 0.025140 1.161653 0.044256
v 0.023422 1.165996 0.038970
v 0.016512 1.167338 0.039409
v -0.074375 1.249518 0.146733
v -0.064644 1.355069 0.230281
v 0.095103 1.473038 0.275286
v 0.197886 1.355069 0.144979
v 0.156651 1.249518 0.071668
v 0.020152 1.162593 0.044612
v 0.019178 1.165056 0.041614
v 0.155677 1.251980 0.068670
v 0.196912 1.357532 0.141982
v 0.094128 1.475501 0.272289
v -0.065618 1.357532 0.227283
v -0.075349 1.251980 0.143735
v 0.013136 1.200105 0.013825
v 0.013701 1.198537 0.006971
v 0.018553 1.193463 0.006289
v 0.020986 1.191895 0.012721
v 0.017638 1.196000 0.017379
v 0.051830 1.229344 0.012573
v 0.055179 1.225239 0.007916
v 0.052746 1.226807 0.001484
v 0.047894 1.231881 0.002166
v 0.047328 1.233448 0.009019
v 0.132561 1.292021 0.099958
v 0.214368 1.369877 0.102750
v 0.287187 1.456892 -0.026563
v 0.181545 1.369877 -0.130795
v 0.103677 1.292021 -0.105562
v 0.052371 1.227905 0.006438
v 0.049619 1.230782 0.006825
v 0.100926 1.294899 -0.105175
v 0.178794 1.372754 -0.130408
v 0.284435 1.459769 -0.026176
v 0.211616 1.372754 0.103137
v 0.129810 1.294899 0.100344
v 0.012839 1.265024 0.020850
v 0.008422 1.263869 0.026226
v 0.002958 1.260131 0.023793
v 0.003998 1.258976 0.016913
v 0.010105 1.262000 0.015094
v -0.013132 1.302706 0.004748
v -0.019239 1.299682 0.006567
v -0.020279 1.300838 0.013448
v -0.014815 1.304575 0.015881
v -0.010398 1.305730 0.010504
v -0.020106 1.385012 -0.111833
v -0.071810 1.486241 -0.151222
v -0.187082 1.599379 -0.066131
v -0.173185 1.486241 0.076470
v -0.109316 1.385012 0.088536
v -0.017122 1.301646 0.009540
v -0.014023 1.303766 0.010919
v -0.106217 1.387131 0.089916
v -0.170086 1.488361 0.077850
v -0.183983 1.601499 -0.064751
v -0.068711 1.488361 -0.149843
v -0.017007 1.387131 -0.110453
vn -0.0000 -1.0000 -0.0000
vn 0.9808 -0.0000 -0.1951
vn 0.8315 -0.0000 -0.5556
vn 0.5556 -0.0000 -0.8315
vn 0.1951 -0.0000 -0.9808
vn -0.1951 -0.0000 -0.9808
vn -0.5556 -0.0000 -0.8315
vn -0.8315 -0.0000 -0.5556
vn -0.9808 -0.0000 -0.1951
vn -0.9808 -0.0000 0.1951
vn -0.8315 -0.0000 0.5556
vn -0.5556 -0.0000 0.8315
vn -0.1951 -0.0000 0.9808
vn 0.1951 -0.0000 0.9808
vn 0.5556 -0.0000 0.8315
vn 0.8315 -0.0000 0.5556
vn 0.9808 -0.0000 0.1951
vn 0.9703 -0.1459 -0.1930
vn 0.8226 -0.1459 -0.5496
vn 0.5496 -0.1459 -0.8226
vn 0.1930 -0.1459 -0.9703
vn -0.1930 -0.1459 -0.9703
vn -0.5496 -0.1459 -0.8226
vn -0.8226 -0.1459 -0.5496
vn -0.9703 -0.1459 -0.1930
vn -0.9703 -0.1459 0.1930
vn -0.8226 -0.1459 0.5496
vn -0.5496 -0.1459 0.8226
vn -0.1930 -0.1459 0.9703
vn 0.1930 -0.1459 0.9703
vn 0.5496 -0.1459 0.8226
vn 0.8226 -0.1459 0.5496
vn 0.9703 -0.1459 0.1930
vn 0.8209 -0.5473 -0.1633
vn 0.6959 -0.5473 -0.4650
vn 0.4650 -0.5473 -0.6959
vn 0.1633 -0.5473 -0.8209
vn -0.1633 -0.5473 -0.8209
vn -0.4650 -0.5473 -0.6959
vn -0.6959 -0.5473 -0.4650
vn -0.8209 -0.5473 -0.1633
vn -0.8209 -0.5473 0.1633
vn -0.6959 -0.5473 0.4650
vn -0.4650 -0.5473 0.6959
vn -0.1633 -0.5473 0.8209
vn 0.1633 -0.5473 0.8209
vn 0.4650 -0.5473 0.6959
vn 0.6959 -0.5473 0.4650
vn 0.8209 -0.5473 0.1633
vn 0.9444 0.2698 -0.1879
vn 0.8006 0.2698 -0.5350
vn 0.5350 0.2698 -0.8006
vn 0.1879 0.2698 -0.9444
vn -0.1879 0.2698 -0.9444
vn -0.5350 0.2698 -0.8006
vn -0.8006 0.2698 -0.5350
vn -0.9444 0.2698 -0.1879
vn -0.9444 0.2698 0.1879
vn -0.8006 0.2698 0.5350
vn -0.5350 0.2698 0.8006
vn -0.1879 0.2698 0.9444
vn 0.1879 0.2698 0.9444
vn 0.5350 0.2698 0.8006
vn 0.8006 0.2698 0.5350
vn 0.9444 0.2698 0.1879
vn -0.0000 1.0000 -0.0000
vn 0.3410 0.9376 -0.0678
vn 0.2890 0.9376 -0.1931
vn 0.1931 0.9376 -0.2890
vn 0.0678 0.9376 -0.3410
vn -0.0678 0.9376 -0.3410
vn -0.1931 0.9376 -0.2890
vn -0.2890 0.9376 -0.1931
vn -0.3410 0.9376 -0.0678
vn -0.3410 0.9376 0.0678
vn -0.2890 0.9376 0.1931
vn -0.1931 0.9376 0.2890
vn -0.0678 0.9376 0.3410
vn 0.0678 0.9376 0.3410
vn 0.1931 0.9376 0.2890
vn 0.2890 0.9376 0.1931
vn 0.3410 0.9376 0.0678
vn -0.0757 -0.9964 0.0378
vn -0.1359 0.9814 0.1359
vn -0.9190 0.0943 0.3828
vn -0.3798 0.0737 0.9221
vn 0.3838 0.0154 0.9233
vn 0.9234 -0.0461 0.3811
vn 0.9206 -0.0746 -0.3833
vn 0.3808 -0.0542 -0.9231
vn -0.3833 0.0035 -0.9236
vn -0.9223 0.0652 -0.3810
vn -0.9165 -0.1291 0.3787
vn -0.3793 -0.1198 0.9175
vn 0.3834 -0.0352 0.9229
vn 0.9210 0.0758 0.3822
vn 0.9143 0.1467 -0.3775
vn 0.3785 0.1374 -0.9154
vn -0.3834 0.0528 -0.9221
vn -0.9222 -0.0582 -0.3823
vn -0.9060 0.1928 0.3769
vn -0.3728 0.1666 0.9128
vn 0.3847 0.0490 0.9217
vn 0.9196 -0.0930 0.3816
vn 0.9094 -0.1732 -0.3782
vn 0.3745 -0.1466 -0.9156
vn -0.3843 -0.0278 -0.9228
vn -0.9174 0.1138 -0.3813
vn -0.9130 -0.1580 0.3762
vn -0.3803 -0.1579 0.9113
vn 0.3814 -0.0520 0.9230
vn 0.9192 0.0965 0.3819
vn 0.9070 0.1967 -0.3724
vn 0.3773 0.1975 -0.9048
vn -0.3817 0.0970 -0.9192
vn -0.9230 -0.0524 -0.3811
vn -0.3868 -0.3090 0.8688
vn 0.3868 0.3090 -0.8688
vn 0.8130 -0.5590 0.1631
vn -0.1628 -0.9045 -0.3942
vn -0.9135 -0.0000 -0.4067
vn -0.4018 0.9045 0.1428
vn 0.6652 0.5590 0.4950
vn -0.1257 0.9511 0.2823
vn 0.1257 -0.9511 -0.2823
vn 0.8994 0.2293 -0.3720
vn 0.9543 0.0381 0.2965
vn 0.4071 -0.2101 0.8889
vn -0.9330 -0.2101 0.2923
vn -0.8588 0.0381 -0.5108
vn -0.3254 0.2293 -0.9174
vn 0.4589 -0.5000 -0.7344
vn -0.4589 0.5000 0.7344
vn -0.8418 -0.5090 -0.1795
vn 0.0101 -0.8236 0.5670
vn 0.8480 -0.0000 0.5299
vn 0.5141 0.8236 -0.2395
vn -0.5303 0.5090 -0.6779
vn 0.2650 0.8660 -0.4240
vn -0.2650 -0.8660 0.4240
vn -0.9083 0.3717 0.1917
vn -0.8984 0.0619 -0.4349
vn -0.3080 -0.3407 -0.8883
vn 0.9334 -0.3407 -0.1125
vn 0.7847 0.0619 0.6168
vn 0.2259 0.3717 0.9004
vn -0.8548 -0.4384 0.2777
vn 0.8548 0.4384 -0.2777
vn 0.4951 -0.5283 0.6898
vn 0.3010 -0.8548 -0.4227
vn -0.3090 -0.0000 -0.9511
vn -0.4920 0.8548 -0.1651
vn 0.0049 0.5283 0.8490
vn -0.4169 0.8988 0.1355
vn 0.4169 -0.8988 -0.1355
vn 0.8420 0.3258 0.4300
vn 0.4124 0.0542 0.9094
vn -0.3558 -0.2985 0.8856
vn -0.8084 -0.2985 -0.5074
vn -0.2009 0.0542 -0.9781
vn 0.4284 0.3258 -0.8428
vn 0.1022 -0.2079 0.9728
vn -0.1022 0.2079 -0.9728
vn 0.7918 -0.5749 -0.2061
vn -0.3280 -0.9303 -0.1644
vn -0.9945 -0.0000 0.1045
vn -0.2866 0.9303 0.2290
vn 0.8174 0.5749 0.0370
vn 0.0217 0.9781 0.2068
vn -0.0217 -0.9781 -0.2068
vn 0.5882 0.1547 -0.7937
vn 0.9741 0.0258 -0.2245
vn 0.7970 -0.1418 0.5871
vn -0.6575 -0.1418 0.7400
vn -0.9995 0.0258 -0.0170
vn -0.7404 0.1547 -0.6541
vn 0.8210 -0.5592 0.1154
vn -0.8210 0.5592 -0.1154
vn -0.2129 -0.4873 -0.8469
vn -0.5697 -0.7885 0.2320
vn -0.1392 -0.0000 0.9903
vn 0.4836 0.7885 0.3800
vn 0.4381 0.4873 -0.7554
vn 0.5538 0.8290 0.0778
vn -0.5538 -0.8290 -0.0778
vn -0.5147 0.4143 -0.7506
vn 0.0372 0.0687 -0.9969
vn 0.6592 -0.3794 -0.6492
vn 0.4547 -0.3794 0.8058
vn -0.2390 0.0687 0.9686
vn -0.7017 0.4143 0.5797
vn 0.3672 -0.3420 -0.8650
vn -0.3672 0.3420 0.8650
vn -0.8233 -0.5523 -0.1311
vn 0.1573 -0.8937 0.4202
vn 0.9205 -0.0000 0.3907
vn 0.4116 0.8937 -0.1787
vn -0.6662 0.5523 -0.5012
vn 0.1336 0.9397 -0.3148
vn -0.1336 -0.9397 0.3148
vn -0.8933 0.2518 0.3724
vn -0.9582 0.0415 -0.2829
vn -0.4332 -0.2303 -0.8714
vn 0.9278 -0.2303 -0.2936
vn 0.8692 0.0415 0.4928
vn 0.3526 0.2518 0.9013
vn -0.5126 -0.6428 -0.5693
vn 0.5126 0.6428 0.5693
vn -0.3484 -0.4503 0.8221
vn 0.6387 -0.7286 0.2475
vn 0.7431 -0.0000 -0.6691
vn -0.1794 0.7286 -0.6611
vn -0.8540 0.4503 0.2606
vn -0.4301 0.7660 -0.4777
vn 0.4301 -0.7660 0.4777
vn -0.1181 0.4768 0.8710
vn -0.6743 0.0792 0.7342
vn -0.8935 -0.4368 0.1041
vn 0.1969 -0.4368 -0.8777
vn 0.8007 0.0792 -0.5938
vn 0.8786 0.4768 -0.0264
vn -0.5332 -0.5000 0.6824
vn 0.5332 0.5000 -0.6824
vn 0.8185 -0.5090 0.2665
vn 0.0492 -0.8236 -0.5650
vn -0.7880 -0.0000 -0.6157
vn -0.5363 0.8236 0.1845
vn 0.4566 0.5090 0.7297
vn -0.3078 0.8660 0.3940
vn 0.3078 -0.8660 -0.3940
vn 0.9230 0.3724 -0.0974
vn 0.8482 0.0622 0.5260
vn 0.2118 -0.3414 0.9158
vn -0.9398 -0.3414 0.0161
vn -0.7156 0.0622 -0.6957
vn -0.1288 0.3724 -0.9191
vn 0.4826 -0.7193 0.4997
vn -0.4826 0.7193 -0.4997
vn 0.2882 -0.4083 -0.8661
vn -0.6975 -0.6607 -0.2775
vn -0.7193 -0.0000 0.6947
vn 0.2530 0.6607 0.7068
vn 0.8757 0.4083 -0.2578
vn 0.4997 0.6947 0.5174
vn -0.4997 -0.6947 -0.5174
vn 0.1237 0.5340 -0.8364
vn 0.6543 0.0888 -0.7510
vn 0.8555 -0.4893 -0.1694
vn -0.1991 -0.4893 0.8491
vn -0.7734 0.0888 0.6276
vn -0.8402 0.5340 0.0944
vn 0.7574 -0.4067 -0.5108
vn -0.7574 0.4067 0.5108
vn -0.6506 -0.5370 -0.5370
vn -0.1479 -0.8688 0.4725
vn 0.5592 -0.0000 0.8290
vn 0.4935 0.8688 0.0399
vn -0.2542 0.5370 -0.8044
vn 0.3372 0.9135 -0.2274
vn -0.3372 -0.9135 0.2274
vn -0.9374 0.3035 -0.1708
vn -0.6494 0.0508 -0.7588
vn 0.1105 -0.2783 -0.9541
vn 0.9260 -0.2783 0.2550
vn 0.4602 0.0508 0.8863
vn -0.1928 0.3035 0.9331
vn -0.1902 -0.7880 -0.5855
vn 0.1902 0.7880 0.5855
vn -0.6263 -0.3619 0.6905
vn 0.5255 -0.5855 0.6173
vn 0.9511 -0.0000 -0.3090
vn 0.0623 0.5855 -0.8083
vn -0.9126 0.3619 -0.1905
vn -0.2435 0.6157 -0.7494
vn 0.2435 -0.6157 0.7494
vn -0.4986 0.5833 0.6412
vn -0.9205 0.0967 0.3785
vn -0.8282 -0.5341 -0.1697
vn 0.5703 -0.5341 -0.6241
vn 0.9672 0.0967 -0.2348
vn 0.7802 0.5833 0.2257
vn -0.7123 -0.6947 0.1001
vn 0.7123 0.6947 -0.1001
vn 0.5169 -0.4228 0.7443
vn 0.6112 -0.6841 -0.3980
vn -0.1392 -0.0000 -0.9903
vn -0.6972 0.6841 -0.2141
vn -0.2917 0.4228 0.8580
vn -0.6879 0.7193 0.0967
vn 0.6879 -0.7193 -0.0967
vn 0.6248 0.5190 0.5833
vn 0.2273 0.0870 0.9699
vn -0.3869 -0.4762 0.7897
vn -0.5896 -0.4761 -0.6524
vn -0.0488 0.0870 -0.9950
vn 0.4398 0.5190 -0.7329
vn 0.4841 -0.8481 0.2155
vn -0.4841 0.8481 -0.2155
vn -0.1263 -0.3115 -0.9418
vn -0.8625 -0.5040 -0.0457
vn -0.4067 -0.0000 0.9135
vn 0.6111 0.5040 0.6104
vn 0.7844 0.3115 -0.5363
vn 0.7747 0.5299 0.3449
vn -0.7747 -0.5299 -0.3449
vn -0.0890 0.6315 -0.7703
vn 0.3434 0.1054 -0.9333
vn 0.6277 -0.5789 -0.5205
vn 0.0332 -0.5789 0.8147
vn -0.4638 0.1054 0.8797
vn -0.6320 0.6315 0.4493
vt 0.312500 0.187500
vt 0.187500 0.187500
vt 0.812500 0.937500
vt 0.562500 0.937500
vt 0.562500 0.062500
vt 0.562500 0.562500
s 0
usemtl FN_Atlas
f 1/1/1 2/1/1 3/1/1 4/1/1 5/1/1 6/1/1 7/1/1 8/1/1 9/1/1 10/1/1 11/1/1 12/1/1 13/1/1 14/1/1 15/1/1 16/1/1
f 16/1/2 15/1/2 17/1/2 18/1/2
f 15/1/3 14/1/3 19/1/3 17/1/3
f 14/1/4 13/1/4 20/1/4 19/1/4
f 13/1/5 12/1/5 21/1/5 20/1/5
f 12/1/6 11/1/6 22/1/6 21/1/6
f 11/1/7 10/1/7 23/1/7 22/1/7
f 10/1/8 9/1/8 24/1/8 23/1/8
f 9/1/9 8/1/9 25/1/9 24/1/9
f 8/1/10 7/1/10 26/1/10 25/1/10
f 7/1/11 6/1/11 27/1/11 26/1/11
f 6/1/12 5/1/12 28/1/12 27/1/12
f 5/1/13 4/1/13 29/1/13 28/1/13
f 4/1/14 3/1/14 30/1/14 29/1/14
f 3/1/15 2/1/15 31/1/15 30/1/15
f 2/1/16 1/1/16 32/1/16 31/1/16
f 1/1/17 16/1/17 18/1/17 32/1/17
f 18/1/18 17/1/18 33/1/18 34/1/18
f 17/1/19 19/1/19 35/1/19 33/1/19
f 19/1/20 20/1/20 36/1/20 35/1/20
f 20/1/21 21/1/21 37/1/21 36/1/21
f 21/1/22 22/1/22 38/1/22 37/1/22
f 22/1/23 23/1/23 39/1/23 38/1/23
f 23/1/24 24/1/24 40/1/24 39/1/24
f 24/1/25 25/1/25 41/1/25 40/1/25
f 25/1/26 26/1/26 42/1/26 41/1/26
f 26/1/27 27/1/27 43/1/27 42/1/27
f 27/1/28 28/1/28 44/1/28 43/1/28
f 28/1/29 29/1/29 45/1/29 44/1/29
f 29/1/30 30/1/30 46/1/30 45/1/30
f 30/1/31 31/1/31 47/1/31 46/1/31
f 31/1/32 32/1/32 48/1/32 47/1/32
f 32/1/33 18/1/33 34/1/33 48/1/33
f 34/2/34 33/2/34 49/2/34 50/2/34
f 33/2/35 35/2/35 51/2/35 49/2/35
f 35/2/36 36/2/36 52/2/36 51/2/36
f 36/2/37 37/2/37 53/2/37 52/2/37
f 37/2/38 38/2/38 54/2/38 53/2/38
f 38/2/39 39/2/39 55/2/39 54/2/39
f 39/2/40 40/2/40 56/2/40 55/2/40
f 40/2/41 41/2/41 57/2/41 56/2/41
f 41/2/42 42/2/42 58/2/42 57/2/42
f 42/2/43 43/2/43 59/2/43 58/2/43
f 43/2/44 44/2/44 60/2/44 59/2/44
f 44/2/45 45/2/45 61/2/45 60/2/45
f 45/2/46 46/2/46 62/2/46 61/2/46
f 46/2/47 47/2/47 63/2/47 62/2/47
f 47/2/48 48/2/48 64/2/48 63/2/48
f 48/2/49 34/2/49 50/2/49 64/2/49
f 50/2/50 49/2/50 65/2/50 66/2/50
f 49/2/51 51/2/51 67/2/51 65/2/51
f 51/2/52 52/2/52 68/2/52 67/2/52
f 52/2/53 53/2/53 69/2/53 68/2/53
f 53/2/54 54/2/54 70/2/54 69/2/54
f 54/2/55 55/2/55 71/2/55 70/2/55
f 55/2/56 56/2/56 72/2/56 71/2/56
f 56/2/57 57/2/57 73/2/57 72/2/57
f 57/2/58 58/2/58 74/2/58 73/2/58
f 58/2/59 59/2/59 75/2/59 74/2/59
f 59/2/60 60/2/60 76/2/60 75/2/60
f 60/2/61 61/2/61 77/2/61 76/2/61
f 61/2/62 62/2/62 78/2/62 77/2/62
f 62/2/63 63/2/63 79/2/63 78/2/63
f 63/2/64 64/2/64 80/2/64 79/2/64
f 64/2/65 50/2/65 66/2/65 80/2/65
f 81/1/8 82/1/8 83/1/8 84/1/8
f 82/1/7 85/1/7 86/1/7 83/1/7
f 85/1/6 87/1/6 88/1/6 86/1/6
f 87/1/5 89/1/5 90/1/5 88/1/5
f 89/1/4 91/1/4 92/1/4 90/1/4
f 91/1/3 93/1/3 94/1/3 92/1/3
f 93/1/2 95/1/2 96/1/2 94/1/2
f 95/1/17 97/1/17 98/1/17 96/1/17
f 97/1/16 99/1/16 100/1/16 98/1/16
f 99/1/15 101/1/15 102/1/15 100/1/15
f 101/1/14 103/1/14 104/1/14 102/1/14
f 103/1/13 105/1/13 106/1/13 104/1/13
f 105/1/12 107/1/12 108/1/12 106/1/12
f 107/1/11 109/1/11 110/1/11 108/1/11
f 109/1/10 111/1/10 112/1/10 110/1/10
f 111/1/9 81/1/9 84/1/9 112/1/9
f 113/3/66 114/3/66 115/3/66 116/3/66 117/3/66 118/3/66 119/3/66 120/3/66 121/3/66 122/3/66 123/3/66 124/3/66 125/3/66 126/3/66 127/3/66 128/3/66
f 129/3/67 130/3/67 114/3/67 113/3/67
f 130/3/68 131/3/68 115/3/68 114/3/68
f 131/3/69 132/3/69 116/3/69 115/3/69
f 132/3/70 133/3/70 117/3/70 116/3/70
f 133/3/71 134/3/71 118/3/71 117/3/71
f 134/3/72 135/3/72 119/3/72 118/3/72
f 135/3/73 136/3/73 120/3/73 119/3/73
f 136/3/74 137/3/74 121/3/74 120/3/74
f 137/3/75 138/3/75 122/3/75 121/3/75
f 138/3/76 139/3/76 123/3/76 122/3/76
f 139/3/77 140/3/77 124/3/77 123/3/77
f 140/3/78 141/3/78 125/3/78 124/3/78
f 141/3/79 142/3/79 126/3/79 125/3/79
f 142/3/80 143/3/80 127/3/80 126/3/80
f 143/3/81 144/3/81 128/3/81 127/3/81
f 144/3/82 129/3/82 113/3/82 128/3/82
f 145/4/83 146/4/83 147/4/83 148/4/83 149/4/83 150/4/83 151/4/83 152/4/83
f 153/4/84 154/4/84 155/4/84 156/4/84 157/4/84 158/4/84 159/4/84 160/4/84
f 152/4/85 151/4/85 161/4/85 162/4/85
f 151/4/86 150/4/86 163/4/86 161/4/86
f 150/4/87 149/4/87 164/4/87 163/4/87
f 149/4/88 148/4/88 165/4/88 164/4/88
f 148/4/89 147/4/89 166/4/89 165/4/89
f 147/4/90 146/4/90 167/4/90 166/4/90
f 146/4/91 145/4/91 168/4/91 167/4/91
f 145/4/92 152/4/92 162/4/92 168/4/92
f 162/4/93 161/4/93 169/4/93 170/4/93
f 161/4/94 163/4/94 171/4/94 169/4/94
f 163/4/95 164/4/95 172/4/95 171/4/95
f 164/4/96 165/4/96 173/4/96 172/4/96
f 165/4/97 166/4/97 174/4/97 173/4/97
f 166/4/98 167/4/98 175/4/98 174/4/98
f 167/4/99 168/4/99 176/4/99 175/4/99
f 168/4/100 162/4/100 170/4/100 176/4/100
f 170/4/101 169/4/101 177/4/101 178/4/101
f 169/4/102 171/4/102 179/4/102 177/4/102
f 171/4/103 172/4/103 180/4/103 179/4/103
f 172/4/104 173/4/104 181/4/104 180/4/104
f 173/4/105 174/4/105 182/4/105 181/4/105
f 174/4/106 175/4/106 183/4/106 182/4/106
f 175/4/107 176/4/107 184/4/107 183/4/107
f 176/4/108 170/4/108 178/4/108 184/4/108
f 178/4/109 177/4/109 154/4/109 153/4/109
f 177/4/110 179/4/110 155/4/110 154/4/110
f 179/4/111 180/4/111 156/4/111 155/4/111
f 180/4/112 181/4/112 157/4/112 156/4/112
f 181/4/113 182/4/113 158/4/113 157/4/113
f 182/4/114 183/4/114 159/4/114 158/4/114
f 183/4/115 184/4/115 160/4/115 159/4/115
f 184/4/116 178/4/116 153/4/116 160/4/116
f 185/4/117 186/4/117 187/4/117 188/4/117 189/4/117
f 190/4/118 191/4/118 192/4/118 193/4/118 194/4/118
f 189/4/119 188/4/119 191/4/119 190/4/119
f 188/4/120 187/4/120 192/4/120 191/4/120
f 187/4/121 186/4/121 193/4/121 192/4/121
f 186/4/122 185/4/122 194/4/122 193/4/122
f 185/4/123 189/4/123 190/4/123 194/4/123
f 195/5/124 196/5/124 197/5/124 198/5/124 199/5/124 200/5/124
f 201/5/125 202/5/125 203/5/125 204/5/125 205/5/125 206/5/125
f 200/5/126 199/5/126 202/5/126 201/5/126
f 199/5/127 198/5/127 203/5/127 202/5/127
f 198/5/128 197/5/128 204/5/128 203/5/128
f 197/5/129 196/5/129 205/5/129 204/5/129
f 196/5/130 195/5/130 206/5/130 205/5/130
f 195/5/131 200/5/131 201/5/131 206/5/131
f 207/4/132 208/4/132 209/4/132 210/4/132 211/4/132
f 212/4/133 213/4/133 214/4/133 215/4/133 216/4/133
f 211/4/134 210/4/134 213/4/134 212/4/134
f 210/4/135 209/4/135 214/4/135 213/4/135
f 209/4/136 208/4/136 215/4/136 214/4/136
f 208/4/137 207/4/137 216/4/137 215/4/137
f 207/4/138 211/4/138 212/4/138 216/4/138
f 217/6/139 218/6/139 219/6/139 220/6/139 221/6/139 222/6/139
f 223/6/140 224/6/140 225/6/140 226/6/140 227/6/140 228/6/140
f 222/6/141 221/6/141 224/6/141 223/6/141
f 221/6/142 220/6/142 225/6/142 224/6/142
f 220/6/143 219/6/143 226/6/143 225/6/143
f 219/6/144 218/6/144 227/6/144 226/6/144
f 218/6/145 217/6/145 228/6/145 227/6/145
f 217/6/146 222/6/146 223/6/146 228/6/146
f 229/4/147 230/4/147 231/4/147 232/4/147 233/4/147
f 234/4/148 235/4/148 236/4/148 237/4/148 238/4/148
f 233/4/149 232/4/149 235/4/149 234/4/149
f 232/4/150 231/4/150 236/4/150 235/4/150
f 231/4/151 230/4/151 237/4/151 236/4/151
f 230/4/152 229/4/152 238/4/152 237/4/152
f 229/4/153 233/4/153 234/4/153 238/4/153
f 239/6/154 240/6/154 241/6/154 242/6/154 243/6/154 244/6/154
f 245/6/155 246/6/155 247/6/155 248/6/155 249/6/155 250/6/155
f 244/6/156 243/6/156 246/6/156 245/6/156
f 243/6/157 242/6/157 247/6/157 246/6/157
f 242/6/158 241/6/158 248/6/158 247/6/158
f 241/6/159 240/6/159 249/6/159 248/6/159
f 240/6/160 239/6/160 250/6/160 249/6/160
f 239/6/161 244/6/161 245/6/161 250/6/161
f 251/4/162 252/4/162 253/4/162 254/4/162 255/4/162
f 256/4/163 257/4/163 258/4/163 259/4/163 260/4/163
f 255/4/164 254/4/164 257/4/164 256/4/164
f 254/4/165 253/4/165 258/4/165 257/4/165
f 253/4/166 252/4/166 259/4/166 258/4/166
f 252/4/167 251/4/167 260/4/167 259/4/167
f 251/4/168 255/4/168 256/4/168 260/4/168
f 261/5/169 262/5/169 263/5/169 264/5/169 265/5/169 266/5/169
f 267/5/170 268/5/170 269/5/170 270/5/170 271/5/170 272/5/170
f 266/5/171 265/5/171 268/5/171 267/5/171
f 265/5/172 264/5/172 269/5/172 268/5/172
f 264/5/173 263/5/173 270/5/173 269/5/173
f 263/5/174 262/5/174 271/5/174 270/5/174
f 262/5/175 261/5/175 272/5/175 271/5/175
f 261/5/176 266/5/176 267/5/176 272/5/176
f 273/4/177 274/4/177 275/4/177 276/4/177 277/4/177
f 278/4/178 279/4/178 280/4/178 281/4/178 282/4/178
f 277/4/179 276/4/179 279/4/179 278/4/179
f 276/4/180 275/4/180 280/4/180 279/4/180
f 275/4/181 274/4/181 281/4/181 280/4/181
f 274/4/182 273/4/182 282/4/182 281/4/182
f 273/4/183 277/4/183 278/4/183 282/4/183
f 283/6/184 284/6/184 285/6/184 286/6/184 287/6/184 288/6/184
f 289/6/185 290/6/185 291/6/185 292/6/185 293/6/185 294/6/185
f 288/6/186 287/6/186 290/6/186 289/6/186
f 287/6/187 286/6/187 291/6/187 290/6/187
f 286/6/188 285/6/188 292/6/188 291/6/188
f 285/6/189 284/6/189 293/6/189 292/6/189
f 284/6/190 283/6/190 294/6/190 293/6/190
f 283/6/191 288/6/191 289/6/191 294/6/191
f 295/4/192 296/4/192 297/4/192 298/4/192 299/4/192
f 300/4/193 301/4/193 302/4/193 303/4/193 304/4/193
f 299/4/194 298/4/194 301/4/194 300/4/194
f 298/4/195 297/4/195 302/4/195 301/4/195
f 297/4/196 296/4/196 303/4/196 302/4/196
f 296/4/197 295/4/197 304/4/197 303/4/197
f 295/4/198 299/4/198 300/4/198 304/4/198
f 305/5/199 306/5/199 307/5/199 308/5/199 309/5/199 310/5/199
f 311/5/200 312/5/200 313/5/200 314/5/200 315/5/200 316/5/200
f 310/5/201 309/5/201 312/5/201 311/5/201
f 309/5/202 308/5/202 313/5/202 312/5/202
f 308/5/203 307/5/203 314/5/203 313/5/203
f 307/5/204 306/5/204 315/5/204 314/5/204
f 306/5/205 305/5/205 316/5/205 315/5/205
f 305/5/206 310/5/206 311/5/206 316/5/206
f 317/4/207 318/4/207 319/4/207 320/4/207 321/4/207
f 322/4/208 323/4/208 324/4/208 325/4/208 326/4/208
f 321/4/209 320/4/209 323/4/209 322/4/209
f 320/4/210 319/4/210 324/4/210 323/4/210
f 319/4/211 318/4/211 325/4/211 324/4/211
f 318/4/212 317/4/212 326/4/212 325/4/212
f 317/4/213 321/4/213 322/4/213 326/4/213
f 327/6/214 328/6/214 329/6/214 330/6/214 331/6/214 332/6/214
f 333/6/215 334/6/215 335/6/215 336/6/215 337/6/215 338/6/215
f 332/6/216 331/6/216 334/6/216 333/6/216
f 331/6/217 330/6/217 335/6/217 334/6/217
f 330/6/218 329/6/218 336/6/218 335/6/218
f 329/6/219 328/6/219 337/6/219 336/6/219
f 328/6/220 327/6/220 338/6/220 337/6/220
f 327/6/221 332/6/221 333/6/221 338/6/221
f 339/4/222 340/4/222 341/4/222 342/4/222 343/4/222
f 344/4/223 345/4/223 346/4/223 347/4/223 348/4/223
f 343/4/224 342/4/224 345/4/224 344/4/224
f 342/4/225 341/4/225 346/4/225 345/4/225
f 341/4/226 340/4/226 347/4/226 346/4/226
f 340/4/227 339/4/227 348/4/227 347/4/227
f 339/4/228 343/4/228 344/4/228 348/4/228
f 349/5/229 350/5/229 351/5/229 352/5/229 353/5/229 354/5/229
f 355/5/230 356/5/230 357/5/230 358/5/230 359/5/230 360/5/230
f 354/5/231 353/5/231 356/5/231 355/5/231
f 353/5/232 352/5/232 357/5/232 356/5/232
f 352/5/233 351/5/233 358/5/233 357/5/233
f 351/5/234 350/5/234 359/5/234 358/5/234
f 350/5/235 349/5/235 360/5/235 359/5/235
f 349/5/236 354/5/236 355/5/236 360/5/236
f 361/4/237 362/4/237 363/4/237 364/4/237 365/4/237
f 366/4/238 367/4/238 368/4/238 369/4/238 370/4/238
f 365/4/239 364/4/239 367/4/239 366/4/239
f 364/4/240 363/4/240 368/4/240 367/4/240
f 363/4/241 362/4/241 369/4/241 368/4/241
f 362/4/242 361/4/242 370/4/242 369/4/242
f 361/4/243 365/4/243 366/4/243 370/4/243
f 371/6/244 372/6/244 373/6/244 374/6/244 375/6/244 376/6/244
f 377/6/245 378/6/245 379/6/245 380/6/245 381/6/245 382/6/245
f 376/6/246 375/6/246 378/6/246 377/6/246
f 375/6/247 374/6/247 379/6/247 378/6/247
f 374/6/248 373/6/248 380/6/248 379/6/248
f 373/6/249 372/6/249 381/6/249 380/6/249
f 372/6/250 371/6/250 382/6/250 381/6/250
f 371/6/251 376/6/251 377/6/251 382/6/251
f 383/4/252 384/4/252 385/4/252 386/4/252 387/4/252
f 388/4/253 389/4/253 390/4/253 391/4/253 392/4/253
f 387/4/254 386/4/254 389/4/254 388/4/254
f 386/4/255 385/4/255 390/4/255 389/4/255
f 385/4/256 384/4/256 391/4/256 390/4/256
f 384/4/257 383/4/257 392/4/257 391/4/257
f 383/4/258 387/4/258 388/4/258 392/4/258
f 393/5/259 394/5/259 395/5/259 396/5/259 397/5/259 398/5/259
f 399/5/260 400/5/260 401/5/260 402/5/260 403/5/260 404/5/260
f 398/5/261 397/5/261 400/5/261 399/5/261
f 397/5/262 396/5/262 401/5/262 400/5/262
f 396/5/263 395/5/263 402/5/263 401/5/263
f 395/5/264 394/5/264 403/5/264 402/5/264
f 394/5/265 393/5/265 404/5/265 403/5/265
f 393/5/266 398/5/266 399/5/266 404/5/266
f 405/4/267 406/4/267 407/4/267 408/4/267 409/4/267
f 410/4/268 411/4/268 412/4/268 413/4/268 414/4/268
f 409/4/269 408/4/269 411/4/269 410/4/269
f 408/4/270 407/4/270 412/4/270 411/4/270
f 407/4/271 406/4/271 413/4/271 412/4/271
f 406/4/272 405/4/272 414/4/272 413/4/272
f 405/4/273 409/4/273 410/4/273 414/4/273
f 415/6/274 416/6/274 417/6/274 418/6/274 419/6/274 420/6/274
f 421/6/275 422/6/275 423/6/275 424/6/275 425/6/275 426/6/275
f 420/6/276 419/6/276 422/6/276 421/6/276
f 419/6/277 418/6/277 423/6/277 422/6/277
f 418/6/278 417/6/278 424/6/278 423/6/278
f 417/6/279 416/6/279 425/6/279 424/6/279
f 416/6/280 415/6/280 426/6/280 425/6/280
f 415/6/281 420/6/281 421/6/281 426/6/281
f 427/4/282 428/4/282 429/4/282 430/4/282 431/4/282
f 432/4/283 433/4/283 434/4/283 435/4/283 436/4/283
f 431/4/284 430/4/284 433/4/284 432/4/284
f 430/4/285 429/4/285 434/4/285 433/4/285
f 429/4/286 428/4/286 435/4/286 434/4/286
f 428/4/287 427/4/287 436/4/287 435/4/287
f 427/4/288 431/4/288 432/4/288 436/4/288
f 437/5/289 438/5/289 439/5/289 440/5/289 441/5/289 442/5/289
f 443/5/290 444/5/290 445/5/290 446/5/290 447/5/290 448/5/290
f 442/5/291 441/5/291 444/5/291 443/5/291
f 441/5/292 440/5/292 445/5/292 444/5/292
f 440/5/293 439/5/293 446/5/293 445/5/293
f 439/5/294 438/5/294 447/5/294 446/5/294
f 438/5/295 437/5/295 448/5/295 447/5/295
f 437/5/296 442/5/296 443/5/296 448/5/296
f 449/4/297 450/4/297 451/4/297 452/4/297 453/4/297
f 454/4/298 455/4/298 456/4/298 457/4/298 458/4/298
f 453/4/299 452/4/299 455/4/299 454/4/299
f 452/4/300 451/4/300 456/4/300 455/4/300
f 451/4/301 450/4/301 457/4/301 456/4/301
f 450/4/302 449/4/302 458/4/302 457/4/302
f 449/4/303 453/4/303 454/4/303 458/4/303
f 459/6/304 460/6/304 461/6/304 462/6/304 463/6/304 464/6/304
f 465/6/305 466/6/305 467/6/305 468/6/305 469/6/305 470/6/305
f 464/6/306 463/6/306 466/6/306 465/6/306
f 463/6/307 462/6/307 467/6/307 466/6/307
f 462/6/308 461/6/308 468/6/308 467/6/308
f 461/6/309 460/6/309 469/6/309 468/6/309
f 460/6/310 459/6/310 470/6/310 469/6/310
f 459/6/311 464/6/311 465/6/311 470/6/311
