# Blender 5.2.0 LTS
# www.blender.org
mtllib FN_Rack_Luggage.mtl
o FN_Rack_Luggage
v -0.292000 0.545000 -0.160000
v -0.292000 0.545000 -0.200000
v -0.292000 0.000000 0.180000
v -0.292000 0.000000 0.220000
v -0.268000 0.000000 0.220000
v -0.268000 0.000000 0.180000
v -0.268000 0.545000 -0.200000
v -0.268000 0.545000 -0.160000
v -0.292000 0.545000 0.200000
v -0.292000 0.545000 0.160000
v -0.292000 0.000000 -0.220000
v -0.292000 0.000000 -0.180000
v -0.268000 0.000000 -0.180000
v -0.268000 0.000000 -0.220000
v -0.268000 0.545000 0.160000
v -0.268000 0.545000 0.200000
v -0.310000 0.276608 -0.006000
v -0.310000 0.276608 0.006000
v -0.310000 0.287000 0.012000
v -0.310000 0.297392 0.006000
v -0.310000 0.297392 -0.006000
v -0.310000 0.287000 -0.012000
v -0.250000 0.287000 -0.012000
v -0.250000 0.297392 -0.006000
v -0.250000 0.297392 0.006000
v -0.250000 0.287000 0.012000
v -0.250000 0.276608 0.006000
v -0.250000 0.276608 -0.006000
v -0.298000 0.535000 0.220000
v -0.298000 0.535000 -0.220000
v -0.262000 0.535000 -0.220000
v -0.262000 0.535000 0.220000
v -0.298000 0.575000 0.220000
v -0.262000 0.575000 0.220000
v -0.262000 0.575000 -0.220000
v -0.298000 0.575000 -0.220000
v 0.268000 0.545000 -0.160000
v 0.268000 0.545000 -0.200000
v 0.268000 0.000000 0.180000
v 0.268000 0.000000 0.220000
v 0.292000 0.000000 0.220000
v 0.292000 0.000000 0.180000
v 0.292000 0.545000 -0.200000
v 0.292000 0.545000 -0.160000
v 0.268000 0.545000 0.200000
v 0.268000 0.545000 0.160000
v 0.268000 0.000000 -0.220000
v 0.268000 0.000000 -0.180000
v 0.292000 0.000000 -0.180000
v 0.292000 0.000000 -0.220000
v 0.292000 0.545000 0.160000
v 0.292000 0.545000 0.200000
v 0.250000 0.276608 -0.006000
v 0.250000 0.276608 0.006000
v 0.250000 0.287000 0.012000
v 0.250000 0.297392 0.006000
v 0.250000 0.297392 -0.006000
v 0.250000 0.287000 -0.012000
v 0.310000 0.287000 -0.012000
v 0.310000 0.297392 -0.006000
v 0.310000 0.297392 0.006000
v 0.310000 0.287000 0.012000
v 0.310000 0.276608 0.006000
v 0.310000 0.276608 -0.006000
v 0.262000 0.535000 0.220000
v 0.262000 0.535000 -0.220000
v 0.298000 0.535000 -0.220000
v 0.298000 0.535000 0.220000
v 0.262000 0.575000 0.220000
v 0.298000 0.575000 0.220000
v 0.298000 0.575000 -0.220000
v 0.262000 0.575000 -0.220000
v -0.298000 0.568000 0.184000
v -0.298000 0.568000 0.136000
v 0.298000 0.568000 0.136000
v 0.298000 0.568000 0.184000
v -0.298000 0.580000 0.184000
v 0.298000 0.580000 0.184000
v 0.298000 0.580000 0.136000
v -0.298000 0.580000 0.136000
v -0.298000 0.568000 0.104000
v -0.298000 0.568000 0.056000
v 0.298000 0.568000 0.056000
v 0.298000 0.568000 0.104000
v -0.298000 0.580000 0.104000
v 0.298000 0.580000 0.104000
v 0.298000 0.580000 0.056000
v -0.298000 0.580000 0.056000
v -0.298000 0.568000 0.024000
v -0.298000 0.568000 -0.024000
v 0.298000 0.568000 -0.024000
v 0.298000 0.568000 0.024000
v -0.298000 0.580000 0.024000
v 0.298000 0.580000 0.024000
v 0.298000 0.580000 -0.024000
v -0.298000 0.580000 -0.024000
v -0.298000 0.568000 -0.056000
v -0.298000 0.568000 -0.104000
v 0.298000 0.568000 -0.104000
v 0.298000 0.568000 -0.056000
v -0.298000 0.580000 -0.056000
v 0.298000 0.580000 -0.056000
v 0.298000 0.580000 -0.104000
v -0.298000 0.580000 -0.104000
v -0.298000 0.568000 -0.136000
v -0.298000 0.568000 -0.184000
v 0.298000 0.568000 -0.184000
v 0.298000 0.568000 -0.136000
v -0.298000 0.580000 -0.136000
v 0.298000 0.580000 -0.136000
v 0.298000 0.580000 -0.184000
v -0.298000 0.580000 -0.184000
vn -1.0000 -0.0000 -0.0000
vn 1.0000 -0.0000 -0.0000
vn -0.0000 -1.0000 -0.0000
vn -0.0000 -0.5719 -0.8203
vn -0.0000 1.0000 -0.0000
vn -0.0000 0.5719 0.8203
vn -0.0000 0.5719 -0.8203
vn -0.0000 -0.5719 0.8203
vn -0.0000 0.5000 -0.8660
vn -0.0000 0.5000 0.8660
vn -0.0000 -0.5000 0.8660
vn -0.0000 -0.5000 -0.8660
vn -0.0000 -0.0000 1.0000
vn -0.0000 -0.0000 -1.0000
vt 0.812500 0.937500
vt 0.437500 0.312500
vt 0.562500 0.687500
s 0
usemtl FN_Atlas
f 1/1/1 2/1/1 3/1/1 4/1/1
f 5/1/2 6/1/2 7/1/2 8/1/2
f 4/1/3 3/1/3 6/1/3 5/1/3
f 3/1/4 2/1/4 7/1/4 6/1/4
f 2/1/5 1/1/5 8/1/5 7/1/5
f 1/1/6 4/1/6 5/1/6 8/1/6
f 9/1/1 10/1/1 11/1/1 12/1/1
f 13/1/2 14/1/2 15/1/2 16/1/2
f 12/1/3 11/1/3 14/1/3 13/1/3
f 11/1/7 10/1/7 15/1/7 14/1/7
f 10/1/5 9/1/5 16/1/5 15/1/5
f 9/1/8 12/1/8 13/1/8 16/1/8
f 17/2/1 18/2/1 19/2/1 20/2/1 21/2/1 22/2/1
f 23/2/2 24/2/2 25/2/2 26/2/2 27/2/2 28/2/2
f 22/2/9 21/2/9 24/2/9 23/2/9
f 21/2/5 20/2/5 25/2/5 24/2/5
f 20/2/10 19/2/10 26/2/10 25/2/10
f 19/2/11 18/2/11 27/2/11 26/2/11
f 18/2/3 17/2/3 28/2/3 27/2/3
f 17/2/12 22/2/12 23/2/12 28/2/12
f 29/1/3 30/1/3 31/1/3 32/1/3
f 33/1/5 34/1/5 35/1/5 36/1/5
f 29/1/13 32/1/13 34/1/13 33/1/13
f 31/1/14 30/1/14 36/1/14 35/1/14
f 29/1/1 33/1/1 36/1/1 30/1/1
f 32/1/2 31/1/2 35/1/2 34/1/2
f 37/1/1 38/1/1 39/1/1 40/1/1
f 41/1/2 42/1/2 43/1/2 44/1/2
f 40/1/3 39/1/3 42/1/3 41/1/3
f 39/1/4 38/1/4 43/1/4 42/1/4
f 38/1/5 37/1/5 44/1/5 43/1/5
f 37/1/6 40/1/6 41/1/6 44/1/6
f 45/1/1 46/1/1 47/1/1 48/1/1
f 49/1/2 50/1/2 51/1/2 52/1/2
f 48/1/3 47/1/3 50/1/3 49/1/3
f 47/1/7 46/1/7 51/1/7 50/1/7
f 46/1/5 45/1/5 52/1/5 51/1/5
f 45/1/8 48/1/8 49/1/8 52/1/8
f 53/2/1 54/2/1 55/2/1 56/2/1 57/2/1 58/2/1
f 59/2/2 60/2/2 61/2/2 62/2/2 63/2/2 64/2/2
f 58/2/9 57/2/9 60/2/9 59/2/9
f 57/2/5 56/2/5 61/2/5 60/2/5
f 56/2/10 55/2/10 62/2/10 61/2/10
f 55/2/11 54/2/11 63/2/11 62/2/11
f 54/2/3 53/2/3 64/2/3 63/2/3
f 53/2/12 58/2/12 59/2/12 64/2/12
f 65/1/3 66/1/3 67/1/3 68/1/3
f 69/1/5 70/1/5 71/1/5 72/1/5
f 65/1/13 68/1/13 70/1/13 69/1/13
f 67/1/14 66/1/14 72/1/14 71/1/14
f 65/1/1 69/1/1 72/1/1 66/1/1
f 68/1/2 67/1/2 71/1/2 70/1/2
f 73/3/3 74/3/3 75/3/3 76/3/3
f 77/3/5 78/3/5 79/3/5 80/3/5
f 73/3/13 76/3/13 78/3/13 77/3/13
f 75/3/14 74/3/14 80/3/14 79/3/14
f 73/3/1 77/3/1 80/3/1 74/3/1
f 76/3/2 75/3/2 79/3/2 78/3/2
f 81/3/3 82/3/3 83/3/3 84/3/3
f 85/3/5 86/3/5 87/3/5 88/3/5
f 81/3/13 84/3/13 86/3/13 85/3/13
f 83/3/14 82/3/14 88/3/14 87/3/14
f 81/3/1 85/3/1 88/3/1 82/3/1
f 84/3/2 83/3/2 87/3/2 86/3/2
f 89/3/3 90/3/3 91/3/3 92/3/3
f 93/3/5 94/3/5 95/3/5 96/3/5
f 89/3/13 92/3/13 94/3/13 93/3/13
f 91/3/14 90/3/14 96/3/14 95/3/14
f 89/3/1 93/3/1 96/3/1 90/3/1
f 92/3/2 91/3/2 95/3/2 94/3/2
f 97/3/3 98/3/3 99/3/3 100/3/3
f 101/3/5 102/3/5 103/3/5 104/3/5
f 97/3/13 100/3/13 102/3/13 101/3/13
f 99/3/14 98/3/14 104/3/14 103/3/14
f 97/3/1 101/3/1 104/3/1 98/3/1
f 100/3/2 99/3/2 103/3/2 102/3/2
f 105/3/3 106/3/3 107/3/3 108/3/3
f 109/3/5 110/3/5 111/3/5 112/3/5
f 105/3/13 108/3/13 110/3/13 109/3/13
f 107/3/14 106/3/14 112/3/14 111/3/14
f 105/3/1 109/3/1 112/3/1 106/3/1
f 108/3/2 107/3/2 111/3/2 110/3/2
