# Blender 5.2.0 LTS
# www.blender.org
mtllib FN_Radiator_Panel.mtl
o FN_Radiator_Panel
v -0.350000 0.460000 0.000000
v -0.350000 0.460000 -0.012000
v -0.290000 0.460000 -0.012000
v -0.290000 0.460000 0.000000
v -0.350000 0.520000 0.000000
v -0.290000 0.520000 0.000000
v -0.290000 0.520000 -0.012000
v -0.350000 0.520000 -0.012000
v 0.290000 0.460000 0.000000
v 0.290000 0.460000 -0.012000
v 0.350000 0.460000 -0.012000
v 0.350000 0.460000 0.000000
v 0.290000 0.520000 0.000000
v 0.350000 0.520000 0.000000
v 0.350000 0.520000 -0.012000
v 0.290000 0.520000 -0.012000
v -0.500000 0.052000 -0.006000
v -0.500000 0.052000 -0.032000
v 0.500000 0.052000 -0.032000
v 0.500000 0.052000 -0.006000
v -0.500000 0.580000 -0.006000
v 0.500000 0.580000 -0.006000
v 0.500000 0.580000 -0.032000
v -0.500000 0.580000 -0.032000
v -0.500000 0.052000 -0.062000
v -0.500000 0.052000 -0.088000
v 0.500000 0.052000 -0.088000
v 0.500000 0.052000 -0.062000
v -0.500000 0.580000 -0.062000
v 0.500000 0.580000 -0.062000
v 0.500000 0.580000 -0.088000
v -0.500000 0.580000 -0.088000
v -0.474000 0.052000 -0.088000
v -0.474000 0.052000 -0.006000
v -0.474000 0.580000 -0.006000
v -0.474000 0.580000 -0.088000
v 0.474000 0.052000 -0.006000
v 0.474000 0.052000 -0.088000
v 0.474000 0.580000 -0.006000
v 0.474000 0.580000 -0.088000
v -0.474000 0.070000 -0.082000
v -0.474000 0.070000 -0.098000
v -0.400545 0.070000 -0.098000
v -0.400545 0.070000 -0.082000
v -0.474000 0.562000 -0.082000
v -0.400545 0.562000 -0.082000
v -0.400545 0.562000 -0.098000
v -0.474000 0.562000 -0.098000
v -0.386545 0.070000 -0.082000
v -0.386545 0.070000 -0.098000
v -0.313091 0.070000 -0.098000
v -0.313091 0.070000 -0.082000
v -0.386545 0.562000 -0.082000
v -0.313091 0.562000 -0.082000
v -0.313091 0.562000 -0.098000
v -0.386545 0.562000 -0.098000
v -0.299091 0.070000 -0.082000
v -0.299091 0.070000 -0.098000
v -0.225636 0.070000 -0.098000
v -0.225636 0.070000 -0.082000
v -0.299091 0.562000 -0.082000
v -0.225636 0.562000 -0.082000
v -0.225636 0.562000 -0.098000
v -0.299091 0.562000 -0.098000
v -0.211636 0.070000 -0.082000
v -0.211636 0.070000 -0.098000
v -0.138182 0.070000 -0.098000
v -0.138182 0.070000 -0.082000
v -0.211636 0.562000 -0.082000
v -0.138182 0.562000 -0.082000
v -0.138182 0.562000 -0.098000
v -0.211636 0.562000 -0.098000
v -0.124182 0.070000 -0.082000
v -0.124182 0.070000 -0.098000
v -0.050727 0.070000 -0.098000
v -0.050727 0.070000 -0.082000
v -0.124182 0.562000 -0.082000
v -0.050727 0.562000 -0.082000
v -0.050727 0.562000 -0.098000
v -0.124182 0.562000 -0.098000
v -0.036727 0.070000 -0.082000
v -0.036727 0.070000 -0.098000
v 0.036727 0.070000 -0.098000
v 0.036727 0.070000 -0.082000
v -0.036727 0.562000 -0.082000
v 0.036727 0.562000 -0.082000
v 0.036727 0.562000 -0.098000
v -0.036727 0.562000 -0.098000
v 0.050727 0.070000 -0.082000
v 0.050727 0.070000 -0.098000
v 0.124182 0.070000 -0.098000
v 0.124182 0.070000 -0.082000
v 0.050727 0.562000 -0.082000
v 0.124182 0.562000 -0.082000
v 0.124182 0.562000 -0.098000
v 0.050727 0.562000 -0.098000
v 0.138182 0.070000 -0.082000
v 0.138182 0.070000 -0.098000
v 0.211636 0.070000 -0.098000
v 0.211636 0.070000 -0.082000
v 0.138182 0.562000 -0.082000
v 0.211636 0.562000 -0.082000
v 0.211636 0.562000 -0.098000
v 0.138182 0.562000 -0.098000
v 0.225636 0.070000 -0.082000
v 0.225636 0.070000 -0.098000
v 0.299091 0.070000 -0.098000
v 0.299091 0.070000 -0.082000
v 0.225636 0.562000 -0.082000
v 0.299091 0.562000 -0.082000
v 0.299091 0.562000 -0.098000
v 0.225636 0.562000 -0.098000
v 0.313091 0.070000 -0.082000
v 0.313091 0.070000 -0.098000
v 0.386545 0.070000 -0.098000
v 0.386545 0.070000 -0.082000
v 0.313091 0.562000 -0.082000
v 0.386545 0.562000 -0.082000
v 0.386545 0.562000 -0.098000
v 0.313091 0.562000 -0.098000
v 0.400545 0.070000 -0.082000
v 0.400545 0.070000 -0.098000
v 0.474000 0.070000 -0.098000
v 0.474000 0.070000 -0.082000
v 0.400545 0.562000 -0.082000
v 0.474000 0.562000 -0.082000
v 0.474000 0.562000 -0.098000
v 0.400545 0.562000 -0.098000
v -0.500000 0.580000 -0.002000
v -0.500000 0.580000 -0.098000
v 0.500000 0.580000 -0.098000
v 0.500000 0.580000 -0.002000
v -0.500000 0.596000 -0.002000
v 0.500000 0.596000 -0.002000
v 0.500000 0.596000 -0.098000
v -0.500000 0.596000 -0.098000
v -0.460000 0.590000 -0.032000
v -0.460000 0.590000 -0.076000
v 0.460000 0.590000 -0.076000
v 0.460000 0.590000 -0.032000
v -0.460000 0.596000 -0.032000
v 0.460000 0.596000 -0.032000
v 0.460000 0.596000 -0.076000
v -0.460000 0.596000 -0.076000
v -0.454000 0.006000 -0.052000
v -0.454000 0.006000 -0.098000
v -0.402000 0.006000 -0.098000
v -0.402000 0.006000 -0.052000
v -0.454000 0.062000 -0.052000
v -0.402000 0.062000 -0.052000
v -0.402000 0.062000 -0.098000
v -0.454000 0.062000 -0.098000
v -0.421500 0.022000 -0.086258
v -0.434500 0.022000 -0.086258
v -0.441000 0.022000 -0.075000
v -0.434500 0.022000 -0.063742
v -0.421500 0.022000 -0.063742
v -0.415000 0.022000 -0.075000
v -0.415000 0.000000 -0.075000
v -0.421500 0.000000 -0.063742
v -0.434500 0.000000 -0.063742
v -0.441000 0.000000 -0.075000
v -0.434500 0.000000 -0.086258
v -0.421500 0.000000 -0.086258
v 0.402000 0.006000 -0.052000
v 0.402000 0.006000 -0.098000
v 0.454000 0.006000 -0.098000
v 0.454000 0.006000 -0.052000
v 0.402000 0.062000 -0.052000
v 0.454000 0.062000 -0.052000
v 0.454000 0.062000 -0.098000
v 0.402000 0.062000 -0.098000
v 0.434500 0.022000 -0.086258
v 0.421500 0.022000 -0.086258
v 0.415000 0.022000 -0.075000
v 0.421500 0.022000 -0.063742
v 0.434500 0.022000 -0.063742
v 0.441000 0.022000 -0.075000
v 0.441000 0.000000 -0.075000
v 0.434500 0.000000 -0.063742
v 0.421500 0.000000 -0.063742
v 0.415000 0.000000 -0.075000
v 0.421500 0.000000 -0.086258
v 0.434500 0.000000 -0.086258
vn -0.0000 -1.0000 -0.0000
vn -0.0000 1.0000 -0.0000
vn -0.0000 -0.0000 1.0000
vn -0.0000 -0.0000 -1.0000
vn -1.0000 -0.0000 -0.0000
vn 1.0000 -0.0000 -0.0000
vn 0.8660 -0.0000 0.5000
vn -0.8660 -0.0000 0.5000
vn -0.8660 -0.0000 -0.5000
vn 0.8660 -0.0000 -0.5000
vt 0.937500 0.312500
vt 0.437500 0.812500
vt 0.437500 0.312500
s 0
usemtl FN_Atlas
f 1/1/1 2/1/1 3/1/1 4/1/1
f 5/1/2 6/1/2 7/1/2 8/1/2
f 1/1/3 4/1/3 6/1/3 5/1/3
f 3/1/4 2/1/4 8/1/4 7/1/4
f 1/1/5 5/1/5 8/1/5 2/1/5
f 4/1/6 3/1/6 7/1/6 6/1/6
f 9/1/1 10/1/1 11/1/1 12/1/1
f 13/1/2 14/1/2 15/1/2 16/1/2
f 9/1/3 12/1/3 14/1/3 13/1/3
f 11/1/4 10/1/4 16/1/4 15/1/4
f 9/1/5 13/1/5 16/1/5 10/1/5
f 12/1/6 11/1/6 15/1/6 14/1/6
f 17/2/1 18/2/1 19/2/1 20/2/1
f 21/2/2 22/2/2 23/2/2 24/2/2
f 17/2/3 20/2/3 22/2/3 21/2/3
f 19/2/4 18/2/4 24/2/4 23/2/4
f 17/2/5 21/2/5 24/2/5 18/2/5
f 20/2/6 19/2/6 23/2/6 22/2/6
f 25/2/1 26/2/1 27/2/1 28/2/1
f 29/2/2 30/2/2 31/2/2 32/2/2
f 25/2/3 28/2/3 30/2/3 29/2/3
f 27/2/4 26/2/4 32/2/4 31/2/4
f 25/2/5 29/2/5 32/2/5 26/2/5
f 28/2/6 27/2/6 31/2/6 30/2/6
f 17/2/1 26/2/1 33/2/1 34/2/1
f 21/2/2 35/2/2 36/2/2 32/2/2
f 17/2/3 34/2/3 35/2/3 21/2/3
f 33/2/4 26/2/4 32/2/4 36/2/4
f 17/2/5 21/2/5 32/2/5 26/2/5
f 34/2/6 33/2/6 36/2/6 35/2/6
f 37/2/1 38/2/1 27/2/1 20/2/1
f 39/2/2 22/2/2 31/2/2 40/2/2
f 37/2/3 20/2/3 22/2/3 39/2/3
f 27/2/4 38/2/4 40/2/4 31/2/4
f 37/2/5 39/2/5 40/2/5 38/2/5
f 20/2/6 27/2/6 31/2/6 22/2/6
f 41/2/1 42/2/1 43/2/1 44/2/1
f 45/2/2 46/2/2 47/2/2 48/2/2
f 41/2/3 44/2/3 46/2/3 45/2/3
f 43/2/4 42/2/4 48/2/4 47/2/4
f 41/2/5 45/2/5 48/2/5 42/2/5
f 44/2/6 43/2/6 47/2/6 46/2/6
f 49/2/1 50/2/1 51/2/1 52/2/1
f 53/2/2 54/2/2 55/2/2 56/2/2
f 49/2/3 52/2/3 54/2/3 53/2/3
f 51/2/4 50/2/4 56/2/4 55/2/4
f 49/2/5 53/2/5 56/2/5 50/2/5
f 52/2/6 51/2/6 55/2/6 54/2/6
f 57/2/1 58/2/1 59/2/1 60/2/1
f 61/2/2 62/2/2 63/2/2 64/2/2
f 57/2/3 60/2/3 62/2/3 61/2/3
f 59/2/4 58/2/4 64/2/4 63/2/4
f 57/2/5 61/2/5 64/2/5 58/2/5
f 60/2/6 59/2/6 63/2/6 62/2/6
f 65/2/1 66/2/1 67/2/1 68/2/1
f 69/2/2 70/2/2 71/2/2 72/2/2
f 65/2/3 68/2/3 70/2/3 69/2/3
f 67/2/4 66/2/4 72/2/4 71/2/4
f 65/2/5 69/2/5 72/2/5 66/2/5
f 68/2/6 67/2/6 71/2/6 70/2/6
f 73/2/1 74/2/1 75/2/1 76/2/1
f 77/2/2 78/2/2 79/2/2 80/2/2
f 73/2/3 76/2/3 78/2/3 77/2/3
f 75/2/4 74/2/4 80/2/4 79/2/4
f 73/2/5 77/2/5 80/2/5 74/2/5
f 76/2/6 75/2/6 79/2/6 78/2/6
f 81/2/1 82/2/1 83/2/1 84/2/1
f 85/2/2 86/2/2 87/2/2 88/2/2
f 81/2/3 84/2/3 86/2/3 85/2/3
f 83/2/4 82/2/4 88/2/4 87/2/4
f 81/2/5 85/2/5 88/2/5 82/2/5
f 84/2/6 83/2/6 87/2/6 86/2/6
f 89/2/1 90/2/1 91/2/1 92/2/1
f 93/2/2 94/2/2 95/2/2 96/2/2
f 89/2/3 92/2/3 94/2/3 93/2/3
f 91/2/4 90/2/4 96/2/4 95/2/4
f 89/2/5 93/2/5 96/2/5 90/2/5
f 92/2/6 91/2/6 95/2/6 94/2/6
f 97/2/1 98/2/1 99/2/1 100/2/1
f 101/2/2 102/2/2 103/2/2 104/2/2
f 97/2/3 100/2/3 102/2/3 101/2/3
f 99/2/4 98/2/4 104/2/4 103/2/4
f 97/2/5 101/2/5 104/2/5 98/2/5
f 100/2/6 99/2/6 103/2/6 102/2/6
f 105/2/1 106/2/1 107/2/1 108/2/1
f 109/2/2 110/2/2 111/2/2 112/2/2
f 105/2/3 108/2/3 110/2/3 109/2/3
f 107/2/4 106/2/4 112/2/4 111/2/4
f 105/2/5 109/2/5 112/2/5 106/2/5
f 108/2/6 107/2/6 111/2/6 110/2/6
f 113/2/1 114/2/1 115/2/1 116/2/1
f 117/2/2 118/2/2 119/2/2 120/2/2
f 113/2/3 116/2/3 118/2/3 117/2/3
f 115/2/4 114/2/4 120/2/4 119/2/4
f 113/2/5 117/2/5 120/2/5 114/2/5
f 116/2/6 115/2/6 119/2/6 118/2/6
f 121/2/1 122/2/1 123/2/1 124/2/1
f 125/2/2 126/2/2 127/2/2 128/2/2
f 121/2/3 124/2/3 126/2/3 125/2/3
f 123/2/4 122/2/4 128/2/4 127/2/4
f 121/2/5 125/2/5 128/2/5 122/2/5
f 124/2/6 123/2/6 127/2/6 126/2/6
f 129/2/1 130/2/1 131/2/1 132/2/1
f 133/2/2 134/2/2 135/2/2 136/2/2
f 129/2/3 132/2/3 134/2/3 133/2/3
f 131/2/4 130/2/4 136/2/4 135/2/4
f 129/2/5 133/2/5 136/2/5 130/2/5
f 132/2/6 131/2/6 135/2/6 134/2/6
f 137/1/1 138/1/1 139/1/1 140/1/1
f 141/1/2 142/1/2 143/1/2 144/1/2
f 137/1/3 140/1/3 142/1/3 141/1/3
f 139/1/4 138/1/4 144/1/4 143/1/4
f 137/1/5 141/1/5 144/1/5 138/1/5
f 140/1/6 139/1/6 143/1/6 142/1/6
f 145/3/1 146/3/1 147/3/1 148/3/1
f 149/3/2 150/3/2 151/3/2 152/3/2
f 145/3/3 148/3/3 150/3/3 149/3/3
f 147/3/4 146/3/4 152/3/4 151/3/4
f 145/3/5 149/3/5 152/3/5 146/3/5
f 148/3/6 147/3/6 151/3/6 150/3/6
f 153/1/2 154/1/2 155/1/2 156/1/2 157/1/2 158/1/2
f 159/1/1 160/1/1 161/1/1 162/1/1 163/1/1 164/1/1
f 158/1/7 157/1/7 160/1/7 159/1/7
f 157/1/3 156/1/3 161/1/3 160/1/3
f 156/1/8 155/1/8 162/1/8 161/1/8
f 155/1/9 154/1/9 163/1/9 162/1/9
f 154/1/4 153/1/4 164/1/4 163/1/4
f 153/1/10 158/1/10 159/1/10 164/1/10
f 165/3/1 166/3/1 167/3/1 168/3/1
f 169/3/2 170/3/2 171/3/2 172/3/2
f 165/3/3 168/3/3 170/3/3 169/3/3
f 167/3/4 166/3/4 172/3/4 171/3/4
f 165/3/5 169/3/5 172/3/5 166/3/5
f 168/3/6 167/3/6 171/3/6 170/3/6
f 173/1/2 174/1/2 175/1/2 176/1/2 177/1/2 178/1/2
f 179/1/1 180/1/1 181/1/1 182/1/1 183/1/1 184/1/1
f 178/1/7 177/1/7 180/1/7 179/1/7
f 177/1/3 176/1/3 181/1/3 180/1/3
f 176/1/8 175/1/8 182/1/8 181/1/8
f 175/1/9 174/1/9 183/1/9 182/1/9
f 174/1/4 173/1/4 184/1/4 183/1/4
f 173/1/10 178/1/10 179/1/10 184/1/10
