# Blender 5.2.0 LTS
# www.blender.org
mtllib FN_Rack_Pot.mtl
o FN_Rack_Pot
v -0.440000 -0.480000 0.119000
v -0.440000 -0.480000 0.097000
v 0.440000 -0.480000 0.097000
v 0.440000 -0.480000 0.119000
v -0.440000 -0.440000 0.119000
v 0.440000 -0.440000 0.119000
v 0.440000 -0.440000 0.097000
v -0.440000 -0.440000 0.097000
v -0.440000 -0.480000 -0.061000
v -0.440000 -0.480000 -0.083000
v 0.440000 -0.480000 -0.083000
v 0.440000 -0.480000 -0.061000
v -0.440000 -0.440000 -0.061000
v 0.440000 -0.440000 -0.061000
v 0.440000 -0.440000 -0.083000
v -0.440000 -0.440000 -0.083000
v -0.410000 -0.480000 -0.083000
v -0.410000 -0.480000 0.119000
v -0.410000 -0.440000 0.119000
v -0.410000 -0.440000 -0.083000
v 0.410000 -0.480000 0.119000
v 0.410000 -0.480000 -0.083000
v 0.410000 -0.440000 0.119000
v 0.410000 -0.440000 -0.083000
v -0.401000 -0.450000 0.119000
v -0.401000 -0.450000 0.097000
v -0.379000 -0.450000 0.097000
v -0.379000 -0.450000 0.119000
v -0.401000 -0.015000 0.119000
v -0.379000 -0.015000 0.119000
v -0.379000 -0.015000 0.097000
v -0.401000 -0.015000 0.097000
v -0.401000 -0.450000 -0.061000
v -0.401000 -0.450000 -0.083000
v -0.379000 -0.450000 -0.083000
v -0.379000 -0.450000 -0.061000
v -0.401000 -0.015000 -0.061000
v -0.379000 -0.015000 -0.061000
v -0.379000 -0.015000 -0.083000
v -0.401000 -0.015000 -0.083000
v -0.440000 -0.040000 0.138000
v -0.440000 -0.040000 -0.102000
v -0.340000 -0.040000 -0.102000
v -0.340000 -0.040000 0.138000
v -0.440000 0.000000 0.138000
v -0.340000 0.000000 0.138000
v -0.340000 0.000000 -0.102000
v -0.440000 0.000000 -0.102000
v 0.379000 -0.450000 0.119000
v 0.379000 -0.450000 0.097000
v 0.401000 -0.450000 0.097000
v 0.401000 -0.450000 0.119000
v 0.379000 -0.015000 0.119000
v 0.401000 -0.015000 0.119000
v 0.401000 -0.015000 0.097000
v 0.379000 -0.015000 0.097000
v 0.379000 -0.450000 -0.061000
v 0.379000 -0.450000 -0.083000
v 0.401000 -0.450000 -0.083000
v 0.401000 -0.450000 -0.061000
v 0.379000 -0.015000 -0.061000
v 0.401000 -0.015000 -0.061000
v 0.401000 -0.015000 -0.083000
v 0.379000 -0.015000 -0.083000
v 0.340000 -0.040000 0.138000
v 0.340000 -0.040000 -0.102000
v 0.440000 -0.040000 -0.102000
v 0.440000 -0.040000 0.138000
v 0.340000 0.000000 0.138000
v 0.440000 0.000000 0.138000
v 0.440000 0.000000 -0.102000
v 0.340000 0.000000 -0.102000
v -0.276000 -0.560000 0.134000
v -0.276000 -0.560000 0.122000
v -0.264000 -0.560000 0.122000
v -0.264000 -0.560000 0.134000
v -0.276000 -0.425000 0.134000
v -0.264000 -0.425000 0.134000
v -0.264000 -0.425000 0.122000
v -0.276000 -0.425000 0.122000
v -0.276000 -0.458000 0.094000
v -0.276000 -0.458000 0.082000
v -0.264000 -0.458000 0.082000
v -0.264000 -0.458000 0.094000
v -0.276000 -0.425000 0.094000
v -0.264000 -0.425000 0.094000
v -0.264000 -0.425000 0.082000
v -0.276000 -0.425000 0.082000
v -0.276000 -0.437000 0.134000
v -0.276000 -0.437000 0.082000
v -0.264000 -0.437000 0.082000
v -0.264000 -0.437000 0.134000
v -0.280000 -0.605000 0.148000
v -0.280000 -0.605000 0.126000
v -0.260000 -0.605000 0.126000
v -0.260000 -0.605000 0.148000
v -0.280000 -0.530000 0.148000
v -0.260000 -0.530000 0.148000
v -0.260000 -0.530000 0.126000
v -0.280000 -0.530000 0.126000
v -0.270000 -0.663000 0.113000
v -0.199289 -0.663000 0.083711
v -0.188683 -0.595000 0.094317
v -0.270000 -0.595000 0.128000
v -0.170000 -0.663000 0.013000
v -0.155000 -0.595000 0.013000
v -0.199289 -0.663000 -0.057711
v -0.188683 -0.595000 -0.068317
v -0.270000 -0.663000 -0.087000
v -0.270000 -0.595000 -0.102000
v -0.340711 -0.663000 -0.057711
v -0.351317 -0.595000 -0.068317
v -0.370000 -0.663000 0.013000
v -0.385000 -0.595000 0.013000
v -0.340711 -0.663000 0.083711
v -0.351317 -0.595000 0.094317
v -0.270000 -0.595000 0.116000
v -0.197168 -0.595000 0.085832
v -0.207775 -0.651000 0.075225
v -0.270000 -0.651000 0.101000
v -0.167000 -0.595000 0.013000
v -0.182000 -0.651000 0.013000
v -0.197168 -0.595000 -0.059832
v -0.207775 -0.651000 -0.049225
v -0.270000 -0.595000 -0.090000
v -0.270000 -0.651000 -0.075000
v -0.342832 -0.595000 -0.059832
v -0.332225 -0.651000 -0.049225
v -0.373000 -0.595000 0.013000
v -0.358000 -0.651000 0.013000
v -0.342832 -0.595000 0.085832
v -0.332225 -0.651000 0.075225
v -0.016000 -0.560000 0.134000
v -0.016000 -0.560000 0.122000
v -0.004000 -0.560000 0.122000
v -0.004000 -0.560000 0.134000
v -0.016000 -0.425000 0.134000
v -0.004000 -0.425000 0.134000
v -0.004000 -0.425000 0.122000
v -0.016000 -0.425000 0.122000
v -0.016000 -0.458000 0.094000
v -0.016000 -0.458000 0.082000
v -0.004000 -0.458000 0.082000
v -0.004000 -0.458000 0.094000
v -0.016000 -0.425000 0.094000
v -0.004000 -0.425000 0.094000
v -0.004000 -0.425000 0.082000
v -0.016000 -0.425000 0.082000
v -0.016000 -0.437000 0.134000
v -0.016000 -0.437000 0.082000
v -0.004000 -0.437000 0.082000
v -0.004000 -0.437000 0.134000
v -0.020000 -0.605000 0.148000
v -0.020000 -0.605000 0.126000
v 0.000000 -0.605000 0.126000
v 0.000000 -0.605000 0.148000
v -0.020000 -0.530000 0.148000
v 0.000000 -0.530000 0.148000
v 0.000000 -0.530000 0.126000
v -0.020000 -0.530000 0.126000
v -0.010000 -0.653000 0.116000
v 0.043740 -0.653000 0.093740
v 0.052225 -0.595000 0.102225
v -0.010000 -0.595000 0.128000
v 0.066000 -0.653000 0.040000
v 0.078000 -0.595000 0.040000
v 0.043740 -0.653000 -0.013740
v 0.052225 -0.595000 -0.022225
v -0.010000 -0.653000 -0.036000
v -0.010000 -0.595000 -0.048000
v -0.063740 -0.653000 -0.013740
v -0.072225 -0.595000 -0.022225
v -0.086000 -0.653000 0.040000
v -0.098000 -0.595000 0.040000
v -0.063740 -0.653000 0.093740
v -0.072225 -0.595000 0.102225
v -0.010000 -0.595000 0.116000
v 0.043740 -0.595000 0.093740
v 0.035255 -0.641000 0.085255
v -0.010000 -0.641000 0.104000
v 0.066000 -0.595000 0.040000
v 0.054000 -0.641000 0.040000
v 0.043740 -0.595000 -0.013740
v 0.035255 -0.641000 -0.005255
v -0.010000 -0.595000 -0.036000
v -0.010000 -0.641000 -0.024000
v -0.063740 -0.595000 -0.013740
v -0.055255 -0.641000 -0.005255
v -0.086000 -0.595000 0.040000
v -0.074000 -0.641000 0.040000
v -0.063740 -0.595000 0.093740
v -0.055255 -0.641000 0.085255
v 0.254000 -0.560000 0.134000
v 0.254000 -0.560000 0.122000
v 0.266000 -0.560000 0.122000
v 0.266000 -0.560000 0.134000
v 0.254000 -0.425000 0.134000
v 0.266000 -0.425000 0.134000
v 0.266000 -0.425000 0.122000
v 0.254000 -0.425000 0.122000
v 0.254000 -0.458000 0.094000
v 0.254000 -0.458000 0.082000
v 0.266000 -0.458000 0.082000
v 0.266000 -0.458000 0.094000
v 0.254000 -0.425000 0.094000
v 0.266000 -0.425000 0.094000
v 0.266000 -0.425000 0.082000
v 0.254000 -0.425000 0.082000
v 0.254000 -0.437000 0.134000
v 0.254000 -0.437000 0.082000
v 0.266000 -0.437000 0.082000
v 0.266000 -0.437000 0.134000
v 0.250000 -0.605000 0.148000
v 0.250000 -0.605000 0.126000
v 0.270000 -0.605000 0.126000
v 0.270000 -0.605000 0.148000
v 0.250000 -0.530000 0.148000
v 0.270000 -0.530000 0.148000
v 0.270000 -0.530000 0.126000
v 0.250000 -0.530000 0.126000
v 0.260000 -0.673000 0.108000
v 0.343439 -0.673000 0.073439
v 0.357581 -0.595000 0.087581
v 0.260000 -0.595000 0.128000
v 0.378000 -0.673000 -0.010000
v 0.398000 -0.595000 -0.010000
v 0.343439 -0.673000 -0.093439
v 0.357581 -0.595000 -0.107581
v 0.260000 -0.673000 -0.128000
v 0.260000 -0.595000 -0.148000
v 0.176561 -0.673000 -0.093439
v 0.162419 -0.595000 -0.107581
v 0.142000 -0.673000 -0.010000
v 0.122000 -0.595000 -0.010000
v 0.176561 -0.673000 0.073439
v 0.162419 -0.595000 0.087581
v 0.260000 -0.595000 0.116000
v 0.349095 -0.595000 0.079095
v 0.334953 -0.661000 0.064953
v 0.260000 -0.661000 0.096000
v 0.386000 -0.595000 -0.010000
v 0.366000 -0.661000 -0.010000
v 0.349095 -0.595000 -0.099095
v 0.334953 -0.661000 -0.084953
v 0.260000 -0.595000 -0.136000
v 0.260000 -0.661000 -0.116000
v 0.170905 -0.595000 -0.099095
v 0.185047 -0.661000 -0.084953
v 0.134000 -0.595000 -0.010000
v 0.154000 -0.661000 -0.010000
v 0.170905 -0.595000 0.079095
v 0.185047 -0.661000 0.064953
vn -0.0000 -1.0000 -0.0000
vn -0.0000 1.0000 -0.0000
vn -0.0000 -0.0000 1.0000
vn -0.0000 -0.0000 -1.0000
vn -1.0000 -0.0000 -0.0000
vn 1.0000 -0.0000 -0.0000
vn 0.3750 -0.1997 0.9053
vn 0.9053 -0.1997 0.3750
vn 0.9053 -0.1997 -0.3750
vn 0.3750 -0.1997 -0.9053
vn -0.3750 -0.1997 -0.9053
vn -0.9053 -0.1997 -0.3750
vn -0.9053 -0.1997 0.3750
vn -0.3750 -0.1997 0.9053
vn -0.3715 0.2402 -0.8968
vn -0.8968 0.2402 -0.3715
vn -0.8968 0.2402 0.3715
vn -0.3715 0.2402 0.8968
vn 0.3715 0.2402 0.8968
vn 0.8968 0.2402 0.3715
vn 0.8968 0.2402 -0.3715
vn 0.3715 0.2402 -0.8968
vn 0.3759 -0.1877 0.9075
vn 0.9075 -0.1877 0.3759
vn 0.9075 -0.1877 -0.3759
vn 0.3759 -0.1877 -0.9075
vn -0.3759 -0.1877 -0.9075
vn -0.9075 -0.1877 -0.3759
vn -0.9075 -0.1877 0.3759
vn -0.3759 -0.1877 0.9075
vn -0.3720 0.2343 -0.8982
vn -0.8982 0.2343 -0.3720
vn -0.8982 0.2343 0.3720
vn -0.3720 0.2343 0.8982
vn 0.3720 0.2343 0.8982
vn 0.8982 0.2343 0.3720
vn 0.8982 0.2343 -0.3720
vn 0.3720 0.2343 -0.8982
vn 0.3724 -0.2305 0.8990
vn 0.8990 -0.2305 0.3724
vn 0.8990 -0.2305 -0.3724
vn 0.3724 -0.2305 -0.8990
vn -0.3724 -0.2305 -0.8990
vn -0.8990 -0.2305 -0.3724
vn -0.8990 -0.2305 0.3724
vn -0.3724 -0.2305 0.8990
vn -0.3685 0.2696 -0.8897
vn -0.8897 0.2696 -0.3685
vn -0.8897 0.2696 0.3685
vn -0.3685 0.2696 0.8897
vn 0.3685 0.2696 0.8897
vn 0.8897 0.2696 0.3685
vn 0.8897 0.2696 -0.3685
vn 0.3685 0.2696 -0.8897
vt 0.812500 0.312500
vt 0.562500 0.312500
s 0
usemtl FN_Atlas
f 1/1/1 2/1/1 3/1/1 4/1/1
f 5/1/2 6/1/2 7/1/2 8/1/2
f 1/1/3 4/1/3 6/1/3 5/1/3
f 3/1/4 2/1/4 8/1/4 7/1/4
f 1/1/5 5/1/5 8/1/5 2/1/5
f 4/1/6 3/1/6 7/1/6 6/1/6
f 9/1/1 10/1/1 11/1/1 12/1/1
f 13/1/2 14/1/2 15/1/2 16/1/2
f 9/1/3 12/1/3 14/1/3 13/1/3
f 11/1/4 10/1/4 16/1/4 15/1/4
f 9/1/5 13/1/5 16/1/5 10/1/5
f 12/1/6 11/1/6 15/1/6 14/1/6
f 1/1/1 10/1/1 17/1/1 18/1/1
f 5/1/2 19/1/2 20/1/2 16/1/2
f 1/1/3 18/1/3 19/1/3 5/1/3
f 17/1/4 10/1/4 16/1/4 20/1/4
f 1/1/5 5/1/5 16/1/5 10/1/5
f 18/1/6 17/1/6 20/1/6 19/1/6
f 21/1/1 22/1/1 11/1/1 4/1/1
f 23/1/2 6/1/2 15/1/2 24/1/2
f 21/1/3 4/1/3 6/1/3 23/1/3
f 11/1/4 22/1/4 24/1/4 15/1/4
f 21/1/5 23/1/5 24/1/5 22/1/5
f 4/1/6 11/1/6 15/1/6 6/1/6
f 25/1/1 26/1/1 27/1/1 28/1/1
f 29/1/2 30/1/2 31/1/2 32/1/2
f 25/1/3 28/1/3 30/1/3 29/1/3
f 27/1/4 26/1/4 32/1/4 31/1/4
f 25/1/5 29/1/5 32/1/5 26/1/5
f 28/1/6 27/1/6 31/1/6 30/1/6
f 33/1/1 34/1/1 35/1/1 36/1/1
f 37/1/2 38/1/2 39/1/2 40/1/2
f 33/1/3 36/1/3 38/1/3 37/1/3
f 35/1/4 34/1/4 40/1/4 39/1/4
f 33/1/5 37/1/5 40/1/5 34/1/5
f 36/1/6 35/1/6 39/1/6 38/1/6
f 41/1/1 42/1/1 43/1/1 44/1/1
f 45/1/2 46/1/2 47/1/2 48/1/2
f 41/1/3 44/1/3 46/1/3 45/1/3
f 43/1/4 42/1/4 48/1/4 47/1/4
f 41/1/5 45/1/5 48/1/5 42/1/5
f 44/1/6 43/1/6 47/1/6 46/1/6
f 49/1/1 50/1/1 51/1/1 52/1/1
f 53/1/2 54/1/2 55/1/2 56/1/2
f 49/1/3 52/1/3 54/1/3 53/1/3
f 51/1/4 50/1/4 56/1/4 55/1/4
f 49/1/5 53/1/5 56/1/5 50/1/5
f 52/1/6 51/1/6 55/1/6 54/1/6
f 57/1/1 58/1/1 59/1/1 60/1/1
f 61/1/2 62/1/2 63/1/2 64/1/2
f 57/1/3 60/1/3 62/1/3 61/1/3
f 59/1/4 58/1/4 64/1/4 63/1/4
f 57/1/5 61/1/5 64/1/5 58/1/5
f 60/1/6 59/1/6 63/1/6 62/1/6
f 65/1/1 66/1/1 67/1/1 68/1/1
f 69/1/2 70/1/2 71/1/2 72/1/2
f 65/1/3 68/1/3 70/1/3 69/1/3
f 67/1/4 66/1/4 72/1/4 71/1/4
f 65/1/5 69/1/5 72/1/5 66/1/5
f 68/1/6 67/1/6 71/1/6 70/1/6
f 73/1/1 74/1/1 75/1/1 76/1/1
f 77/1/2 78/1/2 79/1/2 80/1/2
f 73/1/3 76/1/3 78/1/3 77/1/3
f 75/1/4 74/1/4 80/1/4 79/1/4
f 73/1/5 77/1/5 80/1/5 74/1/5
f 76/1/6 75/1/6 79/1/6 78/1/6
f 81/1/1 82/1/1 83/1/1 84/1/1
f 85/1/2 86/1/2 87/1/2 88/1/2
f 81/1/3 84/1/3 86/1/3 85/1/3
f 83/1/4 82/1/4 88/1/4 87/1/4
f 81/1/5 85/1/5 88/1/5 82/1/5
f 84/1/6 83/1/6 87/1/6 86/1/6
f 89/1/1 90/1/1 91/1/1 92/1/1
f 77/1/2 78/1/2 87/1/2 88/1/2
f 89/1/3 92/1/3 78/1/3 77/1/3
f 91/1/4 90/1/4 88/1/4 87/1/4
f 89/1/5 77/1/5 88/1/5 90/1/5
f 92/1/6 91/1/6 87/1/6 78/1/6
f 93/2/1 94/2/1 95/2/1 96/2/1
f 97/2/2 98/2/2 99/2/2 100/2/2
f 93/2/3 96/2/3 98/2/3 97/2/3
f 95/2/4 94/2/4 100/2/4 99/2/4
f 93/2/5 97/2/5 100/2/5 94/2/5
f 96/2/6 95/2/6 99/2/6 98/2/6
f 101/2/7 102/2/7 103/2/7 104/2/7
f 102/2/8 105/2/8 106/2/8 103/2/8
f 105/2/9 107/2/9 108/2/9 106/2/9
f 107/2/10 109/2/10 110/2/10 108/2/10
f 109/2/11 111/2/11 112/2/11 110/2/11
f 111/2/12 113/2/12 114/2/12 112/2/12
f 113/2/13 115/2/13 116/2/13 114/2/13
f 115/2/14 101/2/14 104/2/14 116/2/14
f 115/2/1 113/2/1 111/2/1 109/2/1 107/2/1 105/2/1 102/2/1 101/2/1
f 117/2/15 118/2/15 119/2/15 120/2/15
f 118/2/16 121/2/16 122/2/16 119/2/16
f 121/2/17 123/2/17 124/2/17 122/2/17
f 123/2/18 125/2/18 126/2/18 124/2/18
f 125/2/19 127/2/19 128/2/19 126/2/19
f 127/2/20 129/2/20 130/2/20 128/2/20
f 129/2/21 131/2/21 132/2/21 130/2/21
f 131/2/22 117/2/22 120/2/22 132/2/22
f 120/2/2 119/2/2 122/2/2 124/2/2 126/2/2 128/2/2 130/2/2 132/2/2
f 104/2/2 103/2/2 118/2/2 117/2/2
f 103/2/2 106/2/2 121/2/2 118/2/2
f 106/2/2 108/2/2 123/2/2 121/2/2
f 108/2/2 110/2/2 125/2/2 123/2/2
f 110/2/2 112/2/2 127/2/2 125/2/2
f 112/2/2 114/2/2 129/2/2 127/2/2
f 114/2/2 116/2/2 131/2/2 129/2/2
f 116/2/2 104/2/2 117/2/2 131/2/2
f 133/1/1 134/1/1 135/1/1 136/1/1
f 137/1/2 138/1/2 139/1/2 140/1/2
f 133/1/3 136/1/3 138/1/3 137/1/3
f 135/1/4 134/1/4 140/1/4 139/1/4
f 133/1/5 137/1/5 140/1/5 134/1/5
f 136/1/6 135/1/6 139/1/6 138/1/6
f 141/1/1 142/1/1 143/1/1 144/1/1
f 145/1/2 146/1/2 147/1/2 148/1/2
f 141/1/3 144/1/3 146/1/3 145/1/3
f 143/1/4 142/1/4 148/1/4 147/1/4
f 141/1/5 145/1/5 148/1/5 142/1/5
f 144/1/6 143/1/6 147/1/6 146/1/6
f 149/1/1 150/1/1 151/1/1 152/1/1
f 137/1/2 138/1/2 147/1/2 148/1/2
f 149/1/3 152/1/3 138/1/3 137/1/3
f 151/1/4 150/1/4 148/1/4 147/1/4
f 149/1/5 137/1/5 148/1/5 150/1/5
f 152/1/6 151/1/6 147/1/6 138/1/6
f 153/2/1 154/2/1 155/2/1 156/2/1
f 157/2/2 158/2/2 159/2/2 160/2/2
f 153/2/3 156/2/3 158/2/3 157/2/3
f 155/2/4 154/2/4 160/2/4 159/2/4
f 153/2/5 157/2/5 160/2/5 154/2/5
f 156/2/6 155/2/6 159/2/6 158/2/6
f 161/2/23 162/2/23 163/2/23 164/2/23
f 162/2/24 165/2/24 166/2/24 163/2/24
f 165/2/25 167/2/25 168/2/25 166/2/25
f 167/2/26 169/2/26 170/2/26 168/2/26
f 169/2/27 171/2/27 172/2/27 170/2/27
f 171/2/28 173/2/28 174/2/28 172/2/28
f 173/2/29 175/2/29 176/2/29 174/2/29
f 175/2/30 161/2/30 164/2/30 176/2/30
f 175/2/1 173/2/1 171/2/1 169/2/1 167/2/1 165/2/1 162/2/1 161/2/1
f 177/2/31 178/2/31 179/2/31 180/2/31
f 178/2/32 181/2/32 182/2/32 179/2/32
f 181/2/33 183/2/33 184/2/33 182/2/33
f 183/2/34 185/2/34 186/2/34 184/2/34
f 185/2/35 187/2/35 188/2/35 186/2/35
f 187/2/36 189/2/36 190/2/36 188/2/36
f 189/2/37 191/2/37 192/2/37 190/2/37
f 191/2/38 177/2/38 180/2/38 192/2/38
f 180/2/2 179/2/2 182/2/2 184/2/2 186/2/2 188/2/2 190/2/2 192/2/2
f 164/2/2 163/2/2 178/2/2 177/2/2
f 163/2/2 166/2/2 181/2/2 178/2/2
f 166/2/2 168/2/2 183/2/2 181/2/2
f 168/2/2 170/2/2 185/2/2 183/2/2
f 170/2/2 172/2/2 187/2/2 185/2/2
f 172/2/2 174/2/2 189/2/2 187/2/2
f 174/2/2 176/2/2 191/2/2 189/2/2
f 176/2/2 164/2/2 177/2/2 191/2/2
f 193/1/1 194/1/1 195/1/1 196/1/1
f 197/1/2 198/1/2 199/1/2 200/1/2
f 193/1/3 196/1/3 198/1/3 197/1/3
f 195/1/4 194/1/4 200/1/4 199/1/4
f 193/1/5 197/1/5 200/1/5 194/1/5
f 196/1/6 195/1/6 199/1/6 198/1/6
f 201/1/1 202/1/1 203/1/1 204/1/1
f 205/1/2 206/1/2 207/1/2 208/1/2
f 201/1/3 204/1/3 206/1/3 205/1/3
f 203/1/4 202/1/4 208/1/4 207/1/4
f 201/1/5 205/1/5 208/1/5 202/1/5
f 204/1/6 203/1/6 207/1/6 206/1/6
f 209/1/1 210/1/1 211/1/1 212/1/1
f 197/1/2 198/1/2 207/1/2 208/1/2
f 209/1/3 212/1/3 198/1/3 197/1/3
f 211/1/4 210/1/4 208/1/4 207/1/4
f 209/1/5 197/1/5 208/1/5 210/1/5
f 212/1/6 211/1/6 207/1/6 198/1/6
f 213/2/1 214/2/1 215/2/1 216/2/1
f 217/2/2 218/2/2 219/2/2 220/2/2
f 213/2/3 216/2/3 218/2/3 217/2/3
f 215/2/4 214/2/4 220/2/4 219/2/4
f 213/2/5 217/2/5 220/2/5 214/2/5
f 216/2/6 215/2/6 219/2/6 218/2/6
f 221/2/39 222/2/39 223/2/39 224/2/39
f 222/2/40 225/2/40 226/2/40 223/2/40
f 225/2/41 227/2/41 228/2/41 226/2/41
f 227/2/42 229/2/42 230/2/42 228/2/42
f 229/2/43 231/2/43 232/2/43 230/2/43
f 231/2/44 233/2/44 234/2/44 232/2/44
f 233/2/45 235/2/45 236/2/45 234/2/45
f 235/2/46 221/2/46 224/2/46 236/2/46
f 235/2/1 233/2/1 231/2/1 229/2/1 227/2/1 225/2/1 222/2/1 221/2/1
f 237/2/47 238/2/47 239/2/47 240/2/47
f 238/2/48 241/2/48 242/2/48 239/2/48
f 241/2/49 243/2/49 244/2/49 242/2/49
f 243/2/50 245/2/50 246/2/50 244/2/50
f 245/2/51 247/2/51 248/2/51 246/2/51
f 247/2/52 249/2/52 250/2/52 248/2/52
f 249/2/53 251/2/53 252/2/53 250/2/53
f 251/2/54 237/2/54 240/2/54 252/2/54
f 240/2/2 239/2/2 242/2/2 244/2/2 246/2/2 248/2/2 250/2/2 252/2/2
f 224/2/2 223/2/2 238/2/2 237/2/2
f 223/2/2 226/2/2 241/2/2 238/2/2
f 226/2/2 228/2/2 243/2/2 241/2/2
f 228/2/2 230/2/2 245/2/2 243/2/2
f 230/2/2 232/2/2 247/2/2 245/2/2
f 232/2/2 234/2/2 249/2/2 247/2/2
f 234/2/2 236/2/2 251/2/2 249/2/2
f 236/2/2 224/2/2 237/2/2 251/2/2
