# Blender 5.2.0 LTS
# www.blender.org
mtllib FN_Rail_Garment.mtl
o FN_Rail_Garment
v -0.534021 0.014000 0.203979
v -0.522000 0.014000 0.199000
v -0.509979 0.014000 0.203979
v -0.505000 0.014000 0.216000
v -0.509979 0.014000 0.228021
v -0.522000 0.014000 0.233000
v -0.534021 0.014000 0.228021
v -0.539000 0.014000 0.216000
v -0.539000 1.700000 0.216000
v -0.534021 1.700000 0.228021
v -0.522000 1.700000 0.233000
v -0.509979 1.700000 0.228021
v -0.505000 1.700000 0.216000
v -0.509979 1.700000 0.203979
v -0.522000 1.700000 0.199000
v -0.534021 1.700000 0.203979
v -0.547000 0.000000 0.191000
v -0.497000 0.000000 0.191000
v -0.497000 0.000000 0.241000
v -0.547000 0.000000 0.241000
v -0.543000 0.020000 0.237000
v -0.501000 0.020000 0.237000
v -0.501000 0.020000 0.195000
v -0.543000 0.020000 0.195000
v -0.534021 0.014000 -0.228021
v -0.522000 0.014000 -0.233000
v -0.509979 0.014000 -0.228021
v -0.505000 0.014000 -0.216000
v -0.509979 0.014000 -0.203979
v -0.522000 0.014000 -0.199000
v -0.534021 0.014000 -0.203979
v -0.539000 0.014000 -0.216000
v -0.539000 1.700000 -0.216000
v -0.534021 1.700000 -0.203979
v -0.522000 1.700000 -0.199000
v -0.509979 1.700000 -0.203979
v -0.505000 1.700000 -0.216000
v -0.509979 1.700000 -0.228021
v -0.522000 1.700000 -0.233000
v -0.534021 1.700000 -0.228021
v -0.547000 0.000000 -0.241000
v -0.497000 0.000000 -0.241000
v -0.497000 0.000000 -0.191000
v -0.547000 0.000000 -0.191000
v -0.543000 0.020000 -0.195000
v -0.501000 0.020000 -0.195000
v -0.501000 0.020000 -0.237000
v -0.543000 0.020000 -0.237000
v -0.512101 1.689899 0.216000
v -0.522000 1.694000 0.216000
v -0.531900 1.689899 0.216000
v -0.536000 1.680000 0.216000
v -0.531900 1.670100 0.216000
v -0.522000 1.666000 0.216000
v -0.512101 1.670100 0.216000
v -0.508000 1.680000 0.216000
v -0.508000 1.680000 -0.216000
v -0.512101 1.670100 -0.216000
v -0.522000 1.666000 -0.216000
v -0.531900 1.670100 -0.216000
v -0.536000 1.680000 -0.216000
v -0.531900 1.689899 -0.216000
v -0.522000 1.694000 -0.216000
v -0.512101 1.689899 -0.216000
v -0.512101 0.177899 0.216000
v -0.522000 0.182000 0.216000
v -0.531900 0.177899 0.216000
v -0.536000 0.168000 0.216000
v -0.531900 0.158101 0.216000
v -0.522000 0.154000 0.216000
v -0.512101 0.158101 0.216000
v -0.508000 0.168000 0.216000
v -0.508000 0.168000 -0.216000
v -0.512101 0.158101 -0.216000
v -0.522000 0.154000 -0.216000
v -0.531900 0.158101 -0.216000
v -0.536000 0.168000 -0.216000
v -0.531900 0.177899 -0.216000
v -0.522000 0.182000 -0.216000
v -0.512101 0.177899 -0.216000
v -0.527500 0.253045 0.206944
v -0.516500 0.253045 0.206944
v -0.511000 0.256000 0.216000
v -0.516500 0.258955 0.225056
v -0.527500 0.258955 0.225056
v -0.533000 0.256000 0.216000
v -0.533000 1.580000 -0.216000
v -0.527500 1.582955 -0.206944
v -0.516500 1.582955 -0.206944
v -0.511000 1.580000 -0.216000
v -0.516500 1.577045 -0.225056
v -0.527500 1.577045 -0.225056
v 0.509979 0.014000 0.203979
v 0.522000 0.014000 0.199000
v 0.534021 0.014000 0.203979
v 0.539000 0.014000 0.216000
v 0.534021 0.014000 0.228021
v 0.522000 0.014000 0.233000
v 0.509979 0.014000 0.228021
v 0.505000 0.014000 0.216000
v 0.505000 1.700000 0.216000
v 0.509979 1.700000 0.228021
v 0.522000 1.700000 0.233000
v 0.534021 1.700000 0.228021
v 0.539000 1.700000 0.216000
v 0.534021 1.700000 0.203979
v 0.522000 1.700000 0.199000
v 0.509979 1.700000 0.203979
v 0.497000 0.000000 0.191000
v 0.547000 0.000000 0.191000
v 0.547000 0.000000 0.241000
v 0.497000 0.000000 0.241000
v 0.501000 0.020000 0.237000
v 0.543000 0.020000 0.237000
v 0.543000 0.020000 0.195000
v 0.501000 0.020000 0.195000
v 0.509979 0.014000 -0.228021
v 0.522000 0.014000 -0.233000
v 0.534021 0.014000 -0.228021
v 0.539000 0.014000 -0.216000
v 0.534021 0.014000 -0.203979
v 0.522000 0.014000 -0.199000
v 0.509979 0.014000 -0.203979
v 0.505000 0.014000 -0.216000
v 0.505000 1.700000 -0.216000
v 0.509979 1.700000 -0.203979
v 0.522000 1.700000 -0.199000
v 0.534021 1.700000 -0.203979
v 0.539000 1.700000 -0.216000
v 0.534021 1.700000 -0.228021
v 0.522000 1.700000 -0.233000
v 0.509979 1.700000 -0.228021
v 0.497000 0.000000 -0.241000
v 0.547000 0.000000 -0.241000
v 0.547000 0.000000 -0.191000
v 0.497000 0.000000 -0.191000
v 0.501000 0.020000 -0.195000
v 0.543000 0.020000 -0.195000
v 0.543000 0.020000 -0.237000
v 0.501000 0.020000 -0.237000
v 0.531900 1.689899 0.216000
v 0.522000 1.694000 0.216000
v 0.512101 1.689899 0.216000
v 0.508000 1.680000 0.216000
v 0.512101 1.670100 0.216000
v 0.522000 1.666000 0.216000
v 0.531900 1.670100 0.216000
v 0.536000 1.680000 0.216000
v 0.536000 1.680000 -0.216000
v 0.531900 1.670100 -0.216000
v 0.522000 1.666000 -0.216000
v 0.512101 1.670100 -0.216000
v 0.508000 1.680000 -0.216000
v 0.512101 1.689899 -0.216000
v 0.522000 1.694000 -0.216000
v 0.531900 1.689899 -0.216000
v 0.531900 0.177899 0.216000
v 0.522000 0.182000 0.216000
v 0.512101 0.177899 0.216000
v 0.508000 0.168000 0.216000
v 0.512101 0.158101 0.216000
v 0.522000 0.154000 0.216000
v 0.531900 0.158101 0.216000
v 0.536000 0.168000 0.216000
v 0.536000 0.168000 -0.216000
v 0.531900 0.158101 -0.216000
v 0.522000 0.154000 -0.216000
v 0.512101 0.158101 -0.216000
v 0.508000 0.168000 -0.216000
v 0.512101 0.177899 -0.216000
v 0.522000 0.182000 -0.216000
v 0.531900 0.177899 -0.216000
v 0.516500 0.253045 0.206944
v 0.527500 0.253045 0.206944
v 0.533000 0.256000 0.216000
v 0.527500 0.258955 0.225056
v 0.516500 0.258955 0.225056
v 0.511000 0.256000 0.216000
v 0.511000 1.580000 -0.216000
v 0.516500 1.582955 -0.206944
v 0.527500 1.582955 -0.206944
v 0.533000 1.580000 -0.216000
v 0.527500 1.577045 -0.225056
v 0.516500 1.577045 -0.225056
v -0.516000 1.430392 0.216000
v -0.528000 1.430392 0.216000
v -0.534000 1.420000 0.216000
v -0.528000 1.409608 0.216000
v -0.516000 1.409608 0.216000
v -0.510000 1.420000 0.216000
v -0.510000 1.420000 -0.216000
v -0.516000 1.409608 -0.216000
v -0.528000 1.409608 -0.216000
v -0.534000 1.420000 -0.216000
v -0.528000 1.430392 -0.216000
v -0.516000 1.430392 -0.216000
v 0.528000 1.430392 0.216000
v 0.516000 1.430392 0.216000
v 0.510000 1.420000 0.216000
v 0.516000 1.409608 0.216000
v 0.528000 1.409608 0.216000
v 0.534000 1.420000 0.216000
v 0.534000 1.420000 -0.216000
v 0.528000 1.409608 -0.216000
v 0.516000 1.409608 -0.216000
v 0.510000 1.420000 -0.216000
v 0.516000 1.430392 -0.216000
v 0.528000 1.430392 -0.216000
v -0.522000 1.431314 0.011314
v -0.522000 1.436000 -0.000000
v -0.522000 1.431314 -0.011314
v -0.522000 1.420000 -0.016000
v -0.522000 1.408686 -0.011314
v -0.522000 1.404000 0.000000
v -0.522000 1.408686 0.011314
v -0.522000 1.420000 0.016000
v 0.522000 1.420000 0.016000
v 0.522000 1.408686 0.011314
v 0.522000 1.404000 0.000000
v 0.522000 1.408686 -0.011314
v 0.522000 1.420000 -0.016000
v 0.522000 1.431314 -0.011314
v 0.522000 1.436000 -0.000000
v 0.522000 1.431314 0.011314
v -0.516000 1.560392 0.216000
v -0.528000 1.560392 0.216000
v -0.534000 1.550000 0.216000
v -0.528000 1.539608 0.216000
v -0.516000 1.539608 0.216000
v -0.510000 1.550000 0.216000
v -0.510000 1.550000 -0.216000
v -0.516000 1.539608 -0.216000
v -0.528000 1.539608 -0.216000
v -0.534000 1.550000 -0.216000
v -0.528000 1.560392 -0.216000
v -0.516000 1.560392 -0.216000
v 0.528000 1.560392 0.216000
v 0.516000 1.560392 0.216000
v 0.510000 1.550000 0.216000
v 0.516000 1.539608 0.216000
v 0.528000 1.539608 0.216000
v 0.534000 1.550000 0.216000
v 0.534000 1.550000 -0.216000
v 0.528000 1.539608 -0.216000
v 0.516000 1.539608 -0.216000
v 0.510000 1.550000 -0.216000
v 0.516000 1.560392 -0.216000
v 0.528000 1.560392 -0.216000
v -0.545199 1.560000 -0.158603
v 0.545199 1.560000 -0.158603
v 0.545199 1.560000 0.158603
v -0.545199 1.560000 0.158603
v 0.550000 1.565000 0.160000
v -0.550000 1.565000 0.160000
v 0.550000 1.565000 -0.160000
v -0.550000 1.565000 -0.160000
v 0.550000 1.577000 0.160000
v -0.550000 1.577000 0.160000
v 0.550000 1.577000 -0.160000
v -0.550000 1.577000 -0.160000
v -0.545199 1.582000 0.158603
v 0.545199 1.582000 0.158603
v 0.545199 1.582000 -0.158603
v -0.545199 1.582000 -0.158603
v -0.545387 0.196000 -0.228071
v 0.545387 0.196000 -0.228071
v 0.545387 0.196000 0.228071
v -0.545387 0.196000 0.228071
v 0.550000 0.201000 0.230000
v -0.550000 0.201000 0.230000
v 0.550000 0.201000 -0.230000
v -0.550000 0.201000 -0.230000
v 0.550000 0.213000 0.230000
v -0.550000 0.213000 0.230000
v 0.550000 0.213000 -0.230000
v -0.550000 0.213000 -0.230000
v -0.545387 0.218000 0.228071
v 0.545387 0.218000 0.228071
v 0.545387 0.218000 -0.228071
v -0.545387 0.218000 -0.228071
vn -0.0000 -1.0000 -0.0000
vn -0.0000 1.0000 -0.0000
vn -0.9239 -0.0000 0.3827
vn -0.3827 -0.0000 0.9239
vn 0.3827 -0.0000 0.9239
vn 0.9239 -0.0000 0.3827
vn 0.9239 -0.0000 -0.3827
vn 0.3827 -0.0000 -0.9239
vn -0.3827 -0.0000 -0.9239
vn -0.9239 -0.0000 -0.3827
vn -0.0000 0.1961 0.9806
vn 0.9806 0.1961 -0.0000
vn -0.0000 0.1961 -0.9806
vn -0.9806 0.1961 -0.0000
vn -0.0000 -0.0000 1.0000
vn -0.0000 -0.0000 -1.0000
vn 0.9239 -0.3827 -0.0000
vn 0.3827 -0.9239 -0.0000
vn -0.3827 -0.9239 -0.0000
vn -0.9239 -0.3827 -0.0000
vn -0.9239 0.3827 -0.0000
vn -0.3827 0.9239 -0.0000
vn 0.3827 0.9239 -0.0000
vn 0.9239 0.3827 -0.0000
vn -0.0000 -0.9507 0.3102
vn -0.0000 0.9507 -0.3102
vn -0.8660 0.1551 0.4753
vn -0.0000 0.3102 0.9507
vn 0.8660 0.1551 0.4753
vn 0.8660 -0.1551 -0.4753
vn -0.0000 -0.3102 -0.9507
vn -0.8660 -0.1551 -0.4753
vn 0.8660 -0.5000 -0.0000
vn -0.8660 -0.5000 -0.0000
vn -0.8660 0.5000 -0.0000
vn 0.8660 0.5000 -0.0000
vn -1.0000 -0.0000 -0.0000
vn 1.0000 -0.0000 -0.0000
vn -0.0000 -0.3827 0.9239
vn -0.0000 -0.9239 0.3827
vn -0.0000 -0.9239 -0.3827
vn -0.0000 -0.3827 -0.9239
vn -0.0000 0.3827 -0.9239
vn -0.0000 0.9239 -0.3827
vn -0.0000 0.9239 0.3827
vn -0.0000 0.3827 0.9239
vn -0.0000 -0.2690 0.9631
vn 0.7213 -0.6926 -0.0000
vn -0.0000 -0.2690 -0.9631
vn -0.7213 -0.6926 -0.0000
vn -0.0000 0.2690 0.9631
vn 0.7213 0.6926 -0.0000
vn -0.0000 0.2690 -0.9631
vn -0.7213 0.6926 -0.0000
vn -0.0000 -0.3599 0.9330
vn 0.7350 -0.6781 -0.0000
vn -0.0000 -0.3599 -0.9330
vn -0.7350 -0.6781 -0.0000
vn -0.0000 0.3599 0.9330
vn 0.7350 0.6781 -0.0000
vn -0.0000 0.3599 -0.9330
vn -0.7350 0.6781 -0.0000
vt 0.812500 0.312500
vt 0.937500 0.187500
vt 0.687500 0.937500
vt 0.437500 0.937500
s 0
usemtl FN_Atlas
f 1/1/1 2/1/1 3/1/1 4/1/1 5/1/1 6/1/1 7/1/1 8/1/1
f 9/1/2 10/1/2 11/1/2 12/1/2 13/1/2 14/1/2 15/1/2 16/1/2
f 8/1/3 7/1/3 10/1/3 9/1/3
f 7/1/4 6/1/4 11/1/4 10/1/4
f 6/1/5 5/1/5 12/1/5 11/1/5
f 5/1/6 4/1/6 13/1/6 12/1/6
f 4/1/7 3/1/7 14/1/7 13/1/7
f 3/1/8 2/1/8 15/1/8 14/1/8
f 2/1/9 1/1/9 16/1/9 15/1/9
f 1/1/10 8/1/10 9/1/10 16/1/10
f 17/2/1 18/2/1 19/2/1 20/2/1
f 21/2/2 22/2/2 23/2/2 24/2/2
f 20/2/11 19/2/11 22/2/11 21/2/11
f 19/2/12 18/2/12 23/2/12 22/2/12
f 18/2/13 17/2/13 24/2/13 23/2/13
f 17/2/14 20/2/14 21/2/14 24/2/14
f 25/1/1 26/1/1 27/1/1 28/1/1 29/1/1 30/1/1 31/1/1 32/1/1
f 33/1/2 34/1/2 35/1/2 36/1/2 37/1/2 38/1/2 39/1/2 40/1/2
f 32/1/3 31/1/3 34/1/3 33/1/3
f 31/1/4 30/1/4 35/1/4 34/1/4
f 30/1/5 29/1/5 36/1/5 35/1/5
f 29/1/6 28/1/6 37/1/6 36/1/6
f 28/1/7 27/1/7 38/1/7 37/1/7
f 27/1/8 26/1/8 39/1/8 38/1/8
f 26/1/9 25/1/9 40/1/9 39/1/9
f 25/1/10 32/1/10 33/1/10 40/1/10
f 41/2/1 42/2/1 43/2/1 44/2/1
f 45/2/2 46/2/2 47/2/2 48/2/2
f 44/2/11 43/2/11 46/2/11 45/2/11
f 43/2/12 42/2/12 47/2/12 46/2/12
f 42/2/13 41/2/13 48/2/13 47/2/13
f 41/2/14 44/2/14 45/2/14 48/2/14
f 49/1/15 50/1/15 51/1/15 52/1/15 53/1/15 54/1/15 55/1/15 56/1/15
f 57/1/16 58/1/16 59/1/16 60/1/16 61/1/16 62/1/16 63/1/16 64/1/16
f 56/1/17 55/1/17 58/1/17 57/1/17
f 55/1/18 54/1/18 59/1/18 58/1/18
f 54/1/19 53/1/19 60/1/19 59/1/19
f 53/1/20 52/1/20 61/1/20 60/1/20
f 52/1/21 51/1/21 62/1/21 61/1/21
f 51/1/22 50/1/22 63/1/22 62/1/22
f 50/1/23 49/1/23 64/1/23 63/1/23
f 49/1/24 56/1/24 57/1/24 64/1/24
f 65/1/15 66/1/15 67/1/15 68/1/15 69/1/15 70/1/15 71/1/15 72/1/15
f 73/1/16 74/1/16 75/1/16 76/1/16 77/1/16 78/1/16 79/1/16 80/1/16
f 72/1/17 71/1/17 74/1/17 73/1/17
f 71/1/18 70/1/18 75/1/18 74/1/18
f 70/1/19 69/1/19 76/1/19 75/1/19
f 69/1/20 68/1/20 77/1/20 76/1/20
f 68/1/21 67/1/21 78/1/21 77/1/21
f 67/1/22 66/1/22 79/1/22 78/1/22
f 66/1/23 65/1/23 80/1/23 79/1/23
f 65/1/24 72/1/24 73/1/24 80/1/24
f 81/1/25 82/1/25 83/1/25 84/1/25 85/1/25 86/1/25
f 87/1/26 88/1/26 89/1/26 90/1/26 91/1/26 92/1/26
f 86/1/27 85/1/27 88/1/27 87/1/27
f 85/1/28 84/1/28 89/1/28 88/1/28
f 84/1/29 83/1/29 90/1/29 89/1/29
f 83/1/30 82/1/30 91/1/30 90/1/30
f 82/1/31 81/1/31 92/1/31 91/1/31
f 81/1/32 86/1/32 87/1/32 92/1/32
f 93/1/1 94/1/1 95/1/1 96/1/1 97/1/1 98/1/1 99/1/1 100/1/1
f 101/1/2 102/1/2 103/1/2 104/1/2 105/1/2 106/1/2 107/1/2 108/1/2
f 100/1/3 99/1/3 102/1/3 101/1/3
f 99/1/4 98/1/4 103/1/4 102/1/4
f 98/1/5 97/1/5 104/1/5 103/1/5
f 97/1/6 96/1/6 105/1/6 104/1/6
f 96/1/7 95/1/7 106/1/7 105/1/7
f 95/1/8 94/1/8 107/1/8 106/1/8
f 94/1/9 93/1/9 108/1/9 107/1/9
f 93/1/10 100/1/10 101/1/10 108/1/10
f 109/2/1 110/2/1 111/2/1 112/2/1
f 113/2/2 114/2/2 115/2/2 116/2/2
f 112/2/11 111/2/11 114/2/11 113/2/11
f 111/2/12 110/2/12 115/2/12 114/2/12
f 110/2/13 109/2/13 116/2/13 115/2/13
f 109/2/14 112/2/14 113/2/14 116/2/14
f 117/1/1 118/1/1 119/1/1 120/1/1 121/1/1 122/1/1 123/1/1 124/1/1
f 125/1/2 126/1/2 127/1/2 128/1/2 129/1/2 130/1/2 131/1/2 132/1/2
f 124/1/3 123/1/3 126/1/3 125/1/3
f 123/1/4 122/1/4 127/1/4 126/1/4
f 122/1/5 121/1/5 128/1/5 127/1/5
f 121/1/6 120/1/6 129/1/6 128/1/6
f 120/1/7 119/1/7 130/1/7 129/1/7
f 119/1/8 118/1/8 131/1/8 130/1/8
f 118/1/9 117/1/9 132/1/9 131/1/9
f 117/1/10 124/1/10 125/1/10 132/1/10
f 133/2/1 134/2/1 135/2/1 136/2/1
f 137/2/2 138/2/2 139/2/2 140/2/2
f 136/2/11 135/2/11 138/2/11 137/2/11
f 135/2/12 134/2/12 139/2/12 138/2/12
f 134/2/13 133/2/13 140/2/13 139/2/13
f 133/2/14 136/2/14 137/2/14 140/2/14
f 141/1/15 142/1/15 143/1/15 144/1/15 145/1/15 146/1/15 147/1/15 148/1/15
f 149/1/16 150/1/16 151/1/16 152/1/16 153/1/16 154/1/16 155/1/16 156/1/16
f 148/1/17 147/1/17 150/1/17 149/1/17
f 147/1/18 146/1/18 151/1/18 150/1/18
f 146/1/19 145/1/19 152/1/19 151/1/19
f 145/1/20 144/1/20 153/1/20 152/1/20
f 144/1/21 143/1/21 154/1/21 153/1/21
f 143/1/22 142/1/22 155/1/22 154/1/22
f 142/1/23 141/1/23 156/1/23 155/1/23
f 141/1/24 148/1/24 149/1/24 156/1/24
f 157/1/15 158/1/15 159/1/15 160/1/15 161/1/15 162/1/15 163/1/15 164/1/15
f 165/1/16 166/1/16 167/1/16 168/1/16 169/1/16 170/1/16 171/1/16 172/1/16
f 164/1/17 163/1/17 166/1/17 165/1/17
f 163/1/18 162/1/18 167/1/18 166/1/18
f 162/1/19 161/1/19 168/1/19 167/1/19
f 161/1/20 160/1/20 169/1/20 168/1/20
f 160/1/21 159/1/21 170/1/21 169/1/21
f 159/1/22 158/1/22 171/1/22 170/1/22
f 158/1/23 157/1/23 172/1/23 171/1/23
f 157/1/24 164/1/24 165/1/24 172/1/24
f 173/1/25 174/1/25 175/1/25 176/1/25 177/1/25 178/1/25
f 179/1/26 180/1/26 181/1/26 182/1/26 183/1/26 184/1/26
f 178/1/27 177/1/27 180/1/27 179/1/27
f 177/1/28 176/1/28 181/1/28 180/1/28
f 176/1/29 175/1/29 182/1/29 181/1/29
f 175/1/30 174/1/30 183/1/30 182/1/30
f 174/1/31 173/1/31 184/1/31 183/1/31
f 173/1/32 178/1/32 179/1/32 184/1/32
f 185/1/15 186/1/15 187/1/15 188/1/15 189/1/15 190/1/15
f 191/1/16 192/1/16 193/1/16 194/1/16 195/1/16 196/1/16
f 190/1/33 189/1/33 192/1/33 191/1/33
f 189/1/1 188/1/1 193/1/1 192/1/1
f 188/1/34 187/1/34 194/1/34 193/1/34
f 187/1/35 186/1/35 195/1/35 194/1/35
f 186/1/2 185/1/2 196/1/2 195/1/2
f 185/1/36 190/1/36 191/1/36 196/1/36
f 197/1/15 198/1/15 199/1/15 200/1/15 201/1/15 202/1/15
f 203/1/16 204/1/16 205/1/16 206/1/16 207/1/16 208/1/16
f 202/1/33 201/1/33 204/1/33 203/1/33
f 201/1/1 200/1/1 205/1/1 204/1/1
f 200/1/34 199/1/34 206/1/34 205/1/34
f 199/1/35 198/1/35 207/1/35 206/1/35
f 198/1/2 197/1/2 208/1/2 207/1/2
f 197/1/36 202/1/36 203/1/36 208/1/36
f 209/1/37 210/1/37 211/1/37 212/1/37 213/1/37 214/1/37 215/1/37 216/1/37
f 217/1/38 218/1/38 219/1/38 220/1/38 221/1/38 222/1/38 223/1/38 224/1/38
f 216/1/39 215/1/39 218/1/39 217/1/39
f 215/1/40 214/1/40 219/1/40 218/1/40
f 214/1/41 213/1/41 220/1/41 219/1/41
f 213/1/42 212/1/42 221/1/42 220/1/42
f 212/1/43 211/1/43 222/1/43 221/1/43
f 211/1/44 210/1/44 223/1/44 222/1/44
f 210/1/45 209/1/45 224/1/45 223/1/45
f 209/1/46 216/1/46 217/1/46 224/1/46
f 225/1/15 226/1/15 227/1/15 228/1/15 229/1/15 230/1/15
f 231/1/16 232/1/16 233/1/16 234/1/16 235/1/16 236/1/16
f 230/1/33 229/1/33 232/1/33 231/1/33
f 229/1/1 228/1/1 233/1/1 232/1/1
f 228/1/34 227/1/34 234/1/34 233/1/34
f 227/1/35 226/1/35 235/1/35 234/1/35
f 226/1/2 225/1/2 236/1/2 235/1/2
f 225/1/36 230/1/36 231/1/36 236/1/36
f 237/1/15 238/1/15 239/1/15 240/1/15 241/1/15 242/1/15
f 243/1/16 244/1/16 245/1/16 246/1/16 247/1/16 248/1/16
f 242/1/33 241/1/33 244/1/33 243/1/33
f 241/1/1 240/1/1 245/1/1 244/1/1
f 240/1/34 239/1/34 246/1/34 245/1/34
f 239/1/35 238/1/35 247/1/35 246/1/35
f 238/1/2 237/1/2 248/1/2 247/1/2
f 237/1/36 242/1/36 243/1/36 248/1/36
f 249/3/1 250/3/1 251/3/1 252/3/1
f 252/3/47 251/3/47 253/3/47 254/3/47
f 251/3/48 250/3/48 255/3/48 253/3/48
f 250/3/49 249/3/49 256/3/49 255/3/49
f 249/3/50 252/3/50 254/3/50 256/3/50
f 254/3/15 253/3/15 257/3/15 258/3/15
f 253/3/38 255/3/38 259/3/38 257/3/38
f 255/3/16 256/3/16 260/3/16 259/3/16
f 256/3/37 254/3/37 258/3/37 260/3/37
f 261/4/2 262/4/2 263/4/2 264/4/2
f 258/3/51 257/3/51 262/3/51 261/3/51
f 257/3/52 259/3/52 263/3/52 262/3/52
f 259/3/53 260/3/53 264/3/53 263/3/53
f 260/3/54 258/3/54 261/3/54 264/3/54
f 265/3/1 266/3/1 267/3/1 268/3/1
f 268/3/55 267/3/55 269/3/55 270/3/55
f 267/3/56 266/3/56 271/3/56 269/3/56
f 266/3/57 265/3/57 272/3/57 271/3/57
f 265/3/58 268/3/58 270/3/58 272/3/58
f 270/3/15 269/3/15 273/3/15 274/3/15
f 269/3/38 271/3/38 275/3/38 273/3/38
f 271/3/16 272/3/16 276/3/16 275/3/16
f 272/3/37 270/3/37 274/3/37 276/3/37
f 277/4/2 278/4/2 279/4/2 280/4/2
f 274/3/59 273/3/59 278/3/59 277/3/59
f 273/3/60 275/3/60 279/3/60 278/3/60
f 275/3/61 276/3/61 280/3/61 279/3/61
f 276/3/62 274/3/62 277/3/62 280/3/62
