# Blender 5.2.0 LTS
# www.blender.org
mtllib FN_Rug_Round.mtl
o FN_Rug_Round
v 0.784628 0.000000 0.156072
v 0.739104 0.000000 0.306147
v 0.665176 0.000000 0.444456
v 0.565685 0.000000 0.565685
v 0.444456 0.000000 0.665176
v 0.306147 0.000000 0.739104
v 0.156072 0.000000 0.784628
v -0.000000 0.000000 0.800000
v -0.156072 0.000000 0.784628
v -0.306147 0.000000 0.739104
v -0.444456 0.000000 0.665176
v -0.565685 0.000000 0.565685
v -0.665176 0.000000 0.444456
v -0.739104 0.000000 0.306147
v -0.784628 0.000000 0.156072
v -0.800000 0.000000 -0.000000
v -0.784628 0.000000 -0.156072
v -0.739104 0.000000 -0.306147
v -0.665176 0.000000 -0.444456
v -0.565685 0.000000 -0.565685
v -0.444456 0.000000 -0.665176
v -0.306147 0.000000 -0.739104
v -0.156072 0.000000 -0.784628
v 0.000000 0.000000 -0.800000
v 0.156072 0.000000 -0.784628
v 0.306147 0.000000 -0.739104
v 0.444456 0.000000 -0.665176
v 0.565685 0.000000 -0.565685
v 0.665176 0.000000 -0.444456
v 0.739104 0.000000 -0.306147
v 0.784628 0.000000 -0.156072
v 0.800000 0.000000 0.000000
v 0.784628 0.014000 -0.156072
v 0.800000 0.014000 0.000000
v 0.739104 0.014000 -0.306147
v 0.665176 0.014000 -0.444456
v 0.565685 0.014000 -0.565685
v 0.444456 0.014000 -0.665176
v 0.306147 0.014000 -0.739104
v 0.156072 0.014000 -0.784628
v 0.000000 0.014000 -0.800000
v -0.156072 0.014000 -0.784628
v -0.306147 0.014000 -0.739104
v -0.444456 0.014000 -0.665176
v -0.565685 0.014000 -0.565685
v -0.665176 0.014000 -0.444456
v -0.739104 0.014000 -0.306147
v -0.784628 0.014000 -0.156072
v -0.800000 0.014000 -0.000000
v -0.784628 0.014000 0.156072
v -0.739104 0.014000 0.306147
v -0.665176 0.014000 0.444456
v -0.565685 0.014000 0.565685
v -0.444456 0.014000 0.665176
v -0.306147 0.014000 0.739104
v -0.156072 0.014000 0.784628
v -0.000000 0.014000 0.800000
v 0.156072 0.014000 0.784628
v 0.306147 0.014000 0.739104
v 0.444456 0.014000 0.665176
v 0.565685 0.014000 0.565685
v 0.665176 0.014000 0.444456
v 0.739104 0.014000 0.306147
v 0.784628 0.014000 0.156072
v 0.725781 0.014000 -0.144367
v 0.740000 0.014000 0.000000
v 0.683671 0.014000 -0.283186
v 0.615288 0.014000 -0.411122
v 0.523259 0.014000 -0.523259
v 0.411122 0.014000 -0.615288
v 0.283186 0.014000 -0.683671
v 0.144367 0.014000 -0.725781
v 0.000000 0.014000 -0.740000
v -0.144367 0.014000 -0.725781
v -0.283186 0.014000 -0.683671
v -0.411122 0.014000 -0.615288
v -0.523259 0.014000 -0.523259
v -0.615288 0.014000 -0.411122
v -0.683671 0.014000 -0.283186
v -0.725781 0.014000 -0.144367
v -0.740000 0.014000 -0.000000
v -0.725781 0.014000 0.144367
v -0.683671 0.014000 0.283186
v -0.615288 0.014000 0.411122
v -0.523259 0.014000 0.523259
v -0.411122 0.014000 0.615288
v -0.283186 0.014000 0.683671
v -0.144367 0.014000 0.725781
v -0.000000 0.014000 0.740000
v 0.144367 0.014000 0.725781
v 0.283186 0.014000 0.683671
v 0.411122 0.014000 0.615288
v 0.523259 0.014000 0.523259
v 0.615288 0.014000 0.411122
v 0.683671 0.014000 0.283186
v 0.725781 0.014000 0.144367
v 0.702242 0.014000 -0.139685
v 0.716000 0.014000 0.000000
v 0.661498 0.014000 -0.274001
v 0.595332 0.014000 -0.397788
v 0.506288 0.014000 -0.506288
v 0.397788 0.014000 -0.595332
v 0.274001 0.014000 -0.661498
v 0.139685 0.014000 -0.702242
v 0.000000 0.014000 -0.716000
v -0.139685 0.014000 -0.702242
v -0.274001 0.014000 -0.661498
v -0.397788 0.014000 -0.595332
v -0.506288 0.014000 -0.506288
v -0.595332 0.014000 -0.397788
v -0.661498 0.014000 -0.274001
v -0.702242 0.014000 -0.139685
v -0.716000 0.014000 -0.000000
v -0.702242 0.014000 0.139685
v -0.661498 0.014000 0.274001
v -0.595332 0.014000 0.397788
v -0.506288 0.014000 0.506288
v -0.397788 0.014000 0.595332
v -0.274001 0.014000 0.661498
v -0.139685 0.014000 0.702242
v -0.000000 0.014000 0.716000
v 0.139685 0.014000 0.702242
v 0.274001 0.014000 0.661498
v 0.397788 0.014000 0.595332
v 0.506288 0.014000 0.506288
v 0.595332 0.014000 0.397788
v 0.661498 0.014000 0.274001
v 0.702242 0.014000 0.139685
vn -0.0000 -1.0000 -0.0000
vn 0.9952 -0.0000 -0.0980
vn 0.9569 -0.0000 -0.2903
vn 0.8819 -0.0000 -0.4714
vn 0.7730 -0.0000 -0.6344
vn 0.6344 -0.0000 -0.7730
vn 0.4714 -0.0000 -0.8819
vn 0.2903 -0.0000 -0.9569
vn 0.0980 -0.0000 -0.9952
vn -0.0980 -0.0000 -0.9952
vn -0.2903 -0.0000 -0.9569
vn -0.4714 -0.0000 -0.8819
vn -0.6344 -0.0000 -0.7730
vn -0.7730 -0.0000 -0.6344
vn -0.8819 -0.0000 -0.4714
vn -0.9569 -0.0000 -0.2903
vn -0.9952 -0.0000 -0.0980
vn -0.9952 -0.0000 0.0980
vn -0.9569 -0.0000 0.2903
vn -0.8819 -0.0000 0.4714
vn -0.7730 -0.0000 0.6344
vn -0.6344 -0.0000 0.7730
vn -0.4714 -0.0000 0.8819
vn -0.2903 -0.0000 0.9569
vn -0.0980 -0.0000 0.9952
vn 0.0980 -0.0000 0.9952
vn 0.2903 -0.0000 0.9569
vn 0.4714 -0.0000 0.8819
vn 0.6344 -0.0000 0.7730
vn 0.7730 -0.0000 0.6344
vn 0.8819 -0.0000 0.4714
vn 0.9569 -0.0000 0.2903
vn 0.9952 -0.0000 0.0980
vn -0.0000 1.0000 -0.0000
vt 0.937500 0.687500
vt 0.312500 0.687500
vt 0.187500 0.562500
s 0
usemtl FN_Atlas
f 1/1/1 2/1/1 3/1/1 4/1/1 5/1/1 6/1/1 7/1/1 8/1/1 9/1/1 10/1/1 11/1/1 12/1/1 13/1/1 14/1/1 15/1/1 16/1/1 17/1/1 18/1/1 19/1/1 20/1/1 21/1/1 22/1/1 23/1/1 24/1/1 25/1/1 26/1/1 27/1/1 28/1/1 29/1/1 30/1/1 31/1/1 32/1/1
f 32/1/2 31/1/2 33/1/2 34/1/2
f 31/1/3 30/1/3 35/1/3 33/1/3
f 30/1/4 29/1/4 36/1/4 35/1/4
f 29/1/5 28/1/5 37/1/5 36/1/5
f 28/1/6 27/1/6 38/1/6 37/1/6
f 27/1/7 26/1/7 39/1/7 38/1/7
f 26/1/8 25/1/8 40/1/8 39/1/8
f 25/1/9 24/1/9 41/1/9 40/1/9
f 24/1/10 23/1/10 42/1/10 41/1/10
f 23/1/11 22/1/11 43/1/11 42/1/11
f 22/1/12 21/1/12 44/1/12 43/1/12
f 21/1/13 20/1/13 45/1/13 44/1/13
f 20/1/14 19/1/14 46/1/14 45/1/14
f 19/1/15 18/1/15 47/1/15 46/1/15
f 18/1/16 17/1/16 48/1/16 47/1/16
f 17/1/17 16/1/17 49/1/17 48/1/17
f 16/1/18 15/1/18 50/1/18 49/1/18
f 15/1/19 14/1/19 51/1/19 50/1/19
f 14/1/20 13/1/20 52/1/20 51/1/20
f 13/1/21 12/1/21 53/1/21 52/1/21
f 12/1/22 11/1/22 54/1/22 53/1/22
f 11/1/23 10/1/23 55/1/23 54/1/23
f 10/1/24 9/1/24 56/1/24 55/1/24
f 9/1/25 8/1/25 57/1/25 56/1/25
f 8/1/26 7/1/26 58/1/26 57/1/26
f 7/1/27 6/1/27 59/1/27 58/1/27
f 6/1/28 5/1/28 60/1/28 59/1/28
f 5/1/29 4/1/29 61/1/29 60/1/29
f 4/1/30 3/1/30 62/1/30 61/1/30
f 3/1/31 2/1/31 63/1/31 62/1/31
f 2/1/32 1/1/32 64/1/32 63/1/32
f 1/1/33 32/1/33 34/1/33 64/1/33
f 34/1/34 33/1/34 65/1/34 66/1/34
f 33/1/34 35/1/34 67/1/34 65/1/34
f 35/1/34 36/1/34 68/1/34 67/1/34
f 36/1/34 37/1/34 69/1/34 68/1/34
f 37/1/34 38/1/34 70/1/34 69/1/34
f 38/1/34 39/1/34 71/1/34 70/1/34
f 39/1/34 40/1/34 72/1/34 71/1/34
f 40/1/34 41/1/34 73/1/34 72/1/34
f 41/1/34 42/1/34 74/1/34 73/1/34
f 42/1/34 43/1/34 75/1/34 74/1/34
f 43/1/34 44/1/34 76/1/34 75/1/34
f 44/1/34 45/1/34 77/1/34 76/1/34
f 45/1/34 46/1/34 78/1/34 77/1/34
f 46/1/34 47/1/34 79/1/34 78/1/34
f 47/1/34 48/1/34 80/1/34 79/1/34
f 48/1/34 49/1/34 81/1/34 80/1/34
f 49/1/34 50/1/34 82/1/34 81/1/34
f 50/1/34 51/1/34 83/1/34 82/1/34
f 51/1/34 52/1/34 84/1/34 83/1/34
f 52/1/34 53/1/34 85/1/34 84/1/34
f 53/1/34 54/1/34 86/1/34 85/1/34
f 54/1/34 55/1/34 87/1/34 86/1/34
f 55/1/34 56/1/34 88/1/34 87/1/34
f 56/1/34 57/1/34 89/1/34 88/1/34
f 57/1/34 58/1/34 90/1/34 89/1/34
f 58/1/34 59/1/34 91/1/34 90/1/34
f 59/1/34 60/1/34 92/1/34 91/1/34
f 60/1/34 61/1/34 93/1/34 92/1/34
f 61/1/34 62/1/34 94/1/34 93/1/34
f 62/1/34 63/1/34 95/1/34 94/1/34
f 63/1/34 64/1/34 96/1/34 95/1/34
f 64/1/34 34/1/34 66/1/34 96/1/34
f 66/2/34 65/2/34 97/2/34 98/2/34
f 65/2/34 67/2/34 99/2/34 97/2/34
f 67/2/34 68/2/34 100/2/34 99/2/34
f 68/2/34 69/2/34 101/2/34 100/2/34
f 69/2/34 70/2/34 102/2/34 101/2/34
f 70/2/34 71/2/34 103/2/34 102/2/34
f 71/2/34 72/2/34 104/2/34 103/2/34
f 72/2/34 73/2/34 105/2/34 104/2/34
f 73/2/34 74/2/34 106/2/34 105/2/34
f 74/2/34 75/2/34 107/2/34 106/2/34
f 75/2/34 76/2/34 108/2/34 107/2/34
f 76/2/34 77/2/34 109/2/34 108/2/34
f 77/2/34 78/2/34 110/2/34 109/2/34
f 78/2/34 79/2/34 111/2/34 110/2/34
f 79/2/34 80/2/34 112/2/34 111/2/34
f 80/2/34 81/2/34 113/2/34 112/2/34
f 81/2/34 82/2/34 114/2/34 113/2/34
f 82/2/34 83/2/34 115/2/34 114/2/34
f 83/2/34 84/2/34 116/2/34 115/2/34
f 84/2/34 85/2/34 117/2/34 116/2/34
f 85/2/34 86/2/34 118/2/34 117/2/34
f 86/2/34 87/2/34 119/2/34 118/2/34
f 87/2/34 88/2/34 120/2/34 119/2/34
f 88/2/34 89/2/34 121/2/34 120/2/34
f 89/2/34 90/2/34 122/2/34 121/2/34
f 90/2/34 91/2/34 123/2/34 122/2/34
f 91/2/34 92/2/34 124/2/34 123/2/34
f 92/2/34 93/2/34 125/2/34 124/2/34
f 93/2/34 94/2/34 126/2/34 125/2/34
f 94/2/34 95/2/34 127/2/34 126/2/34
f 95/2/34 96/2/34 128/2/34 127/2/34
f 96/2/34 66/2/34 98/2/34 128/2/34
f 98/3/34 97/3/34 99/3/34 100/3/34 101/3/34 102/3/34 103/3/34 104/3/34 105/3/34 106/3/34 107/3/34 108/3/34 109/3/34 110/3/34 111/3/34 112/3/34 113/3/34 114/3/34 115/3/34 116/3/34 117/3/34 118/3/34 119/3/34 120/3/34 121/3/34 122/3/34 123/3/34 124/3/34 125/3/34 126/3/34 127/3/34 128/3/34
