# Blender 5.2.0 LTS
# www.blender.org
mtllib FN_Rack_Wine.mtl
o FN_Rack_Wine
v -0.300000 0.000000 0.159000
v -0.300000 0.000000 -0.141000
v -0.280000 0.000000 -0.141000
v -0.280000 0.000000 0.159000
v -0.300000 0.900000 0.159000
v -0.280000 0.900000 0.159000
v -0.280000 0.900000 -0.141000
v -0.300000 0.900000 -0.141000
v 0.280000 0.000000 0.159000
v 0.280000 0.000000 -0.141000
v 0.300000 0.000000 -0.141000
v 0.300000 0.000000 0.159000
v 0.280000 0.900000 0.159000
v 0.300000 0.900000 0.159000
v 0.300000 0.900000 -0.141000
v 0.280000 0.900000 -0.141000
v -0.296422 0.000000 -0.139211
v 0.296422 0.000000 -0.139211
v 0.296422 0.000000 0.157211
v -0.296422 0.000000 0.157211
v 0.300000 0.004000 0.159000
v -0.300000 0.004000 0.159000
v 0.300000 0.004000 -0.141000
v -0.300000 0.004000 -0.141000
v 0.300000 0.018000 0.159000
v -0.300000 0.018000 0.159000
v 0.300000 0.018000 -0.141000
v -0.300000 0.018000 -0.141000
v -0.296422 0.022000 0.157211
v 0.296422 0.022000 0.157211
v 0.296422 0.022000 -0.139211
v -0.296422 0.022000 -0.139211
v -0.296422 0.120000 -0.139211
v 0.296422 0.120000 -0.139211
v 0.296422 0.120000 0.157211
v -0.296422 0.120000 0.157211
v 0.300000 0.124000 0.159000
v -0.300000 0.124000 0.159000
v 0.300000 0.124000 -0.141000
v -0.300000 0.124000 -0.141000
v 0.300000 0.138000 0.159000
v -0.300000 0.138000 0.159000
v 0.300000 0.138000 -0.141000
v -0.300000 0.138000 -0.141000
v -0.296422 0.142000 0.157211
v 0.296422 0.142000 0.157211
v 0.296422 0.142000 -0.139211
v -0.296422 0.142000 -0.139211
v -0.296422 0.320000 -0.139211
v 0.296422 0.320000 -0.139211
v 0.296422 0.320000 0.157211
v -0.296422 0.320000 0.157211
v 0.300000 0.324000 0.159000
v -0.300000 0.324000 0.159000
v 0.300000 0.324000 -0.141000
v -0.300000 0.324000 -0.141000
v 0.300000 0.338000 0.159000
v -0.300000 0.338000 0.159000
v 0.300000 0.338000 -0.141000
v -0.300000 0.338000 -0.141000
v -0.296422 0.342000 0.157211
v 0.296422 0.342000 0.157211
v 0.296422 0.342000 -0.139211
v -0.296422 0.342000 -0.139211
v -0.296422 0.520000 -0.139211
v 0.296422 0.520000 -0.139211
v 0.296422 0.520000 0.157211
v -0.296422 0.520000 0.157211
v 0.300000 0.524000 0.159000
v -0.300000 0.524000 0.159000
v 0.300000 0.524000 -0.141000
v -0.300000 0.524000 -0.141000
v 0.300000 0.538000 0.159000
v -0.300000 0.538000 0.159000
v 0.300000 0.538000 -0.141000
v -0.300000 0.538000 -0.141000
v -0.296422 0.542000 0.157211
v 0.296422 0.542000 0.157211
v 0.296422 0.542000 -0.139211
v -0.296422 0.542000 -0.139211
v -0.296422 0.720000 -0.139211
v 0.296422 0.720000 -0.139211
v 0.296422 0.720000 0.157211
v -0.296422 0.720000 0.157211
v 0.300000 0.724000 0.159000
v -0.300000 0.724000 0.159000
v 0.300000 0.724000 -0.141000
v -0.300000 0.724000 -0.141000
v 0.300000 0.738000 0.159000
v -0.300000 0.738000 0.159000
v 0.300000 0.738000 -0.141000
v -0.300000 0.738000 -0.141000
v -0.296422 0.742000 0.157211
v 0.296422 0.742000 0.157211
v 0.296422 0.742000 -0.139211
v -0.296422 0.742000 -0.139211
v -0.296422 0.878000 -0.139211
v 0.296422 0.878000 -0.139211
v 0.296422 0.878000 0.157211
v -0.296422 0.878000 0.157211
v 0.300000 0.882000 0.159000
v -0.300000 0.882000 0.159000
v 0.300000 0.882000 -0.141000
v -0.300000 0.882000 -0.141000
v 0.300000 0.896000 0.159000
v -0.300000 0.896000 0.159000
v 0.300000 0.896000 -0.141000
v -0.300000 0.896000 -0.141000
v -0.296422 0.900000 0.157211
v 0.296422 0.900000 0.157211
v 0.296422 0.900000 -0.139211
v -0.296422 0.900000 -0.139211
v -0.161000 0.141091 0.149000
v -0.199000 0.141091 0.149000
v -0.218000 0.174000 0.149000
v -0.199000 0.206909 0.149000
v -0.161000 0.206909 0.149000
v -0.142000 0.174000 0.149000
v -0.161000 0.206909 -0.005000
v -0.142000 0.174000 -0.005000
v -0.199000 0.206909 -0.005000
v -0.218000 0.174000 -0.005000
v -0.199000 0.141091 -0.005000
v -0.161000 0.141091 -0.005000
v -0.173000 0.186124 -0.053000
v -0.166000 0.174000 -0.053000
v -0.187000 0.186124 -0.053000
v -0.194000 0.174000 -0.053000
v -0.187000 0.161876 -0.053000
v -0.173000 0.161876 -0.053000
v -0.173000 0.186124 -0.155000
v -0.166000 0.174000 -0.155000
v -0.187000 0.186124 -0.155000
v -0.194000 0.174000 -0.155000
v -0.187000 0.161876 -0.155000
v -0.173000 0.161876 -0.155000
v -0.163000 0.174000 -0.159000
v -0.171500 0.188722 -0.159000
v -0.188500 0.188722 -0.159000
v -0.197000 0.174000 -0.159000
v -0.188500 0.159278 -0.159000
v -0.171500 0.159278 -0.159000
v -0.163000 0.174000 -0.129000
v -0.171500 0.188722 -0.129000
v -0.188500 0.188722 -0.129000
v -0.197000 0.174000 -0.129000
v -0.188500 0.159278 -0.129000
v -0.171500 0.159278 -0.129000
v 0.019000 0.141091 0.149000
v -0.019000 0.141091 0.149000
v -0.038000 0.174000 0.149000
v -0.019000 0.206909 0.149000
v 0.019000 0.206909 0.149000
v 0.038000 0.174000 0.149000
v 0.019000 0.206909 -0.005000
v 0.038000 0.174000 -0.005000
v -0.019000 0.206909 -0.005000
v -0.038000 0.174000 -0.005000
v -0.019000 0.141091 -0.005000
v 0.019000 0.141091 -0.005000
v 0.007000 0.186124 -0.053000
v 0.014000 0.174000 -0.053000
v -0.007000 0.186124 -0.053000
v -0.014000 0.174000 -0.053000
v -0.007000 0.161876 -0.053000
v 0.007000 0.161876 -0.053000
v 0.007000 0.186124 -0.155000
v 0.014000 0.174000 -0.155000
v -0.007000 0.186124 -0.155000
v -0.014000 0.174000 -0.155000
v -0.007000 0.161876 -0.155000
v 0.007000 0.161876 -0.155000
v 0.017000 0.174000 -0.159000
v 0.008500 0.188722 -0.159000
v -0.008500 0.188722 -0.159000
v -0.017000 0.174000 -0.159000
v -0.008500 0.159278 -0.159000
v 0.008500 0.159278 -0.159000
v 0.017000 0.174000 -0.129000
v 0.008500 0.188722 -0.129000
v -0.008500 0.188722 -0.129000
v -0.017000 0.174000 -0.129000
v -0.008500 0.159278 -0.129000
v 0.008500 0.159278 -0.129000
v 0.199000 0.141091 0.149000
v 0.161000 0.141091 0.149000
v 0.142000 0.174000 0.149000
v 0.161000 0.206909 0.149000
v 0.199000 0.206909 0.149000
v 0.218000 0.174000 0.149000
v 0.199000 0.206909 -0.005000
v 0.218000 0.174000 -0.005000
v 0.161000 0.206909 -0.005000
v 0.142000 0.174000 -0.005000
v 0.161000 0.141091 -0.005000
v 0.199000 0.141091 -0.005000
v 0.187000 0.186124 -0.053000
v 0.194000 0.174000 -0.053000
v 0.173000 0.186124 -0.053000
v 0.166000 0.174000 -0.053000
v 0.173000 0.161876 -0.053000
v 0.187000 0.161876 -0.053000
v 0.187000 0.186124 -0.155000
v 0.194000 0.174000 -0.155000
v 0.173000 0.186124 -0.155000
v 0.166000 0.174000 -0.155000
v 0.173000 0.161876 -0.155000
v 0.187000 0.161876 -0.155000
v 0.197000 0.174000 -0.159000
v 0.188500 0.188722 -0.159000
v 0.171500 0.188722 -0.159000
v 0.163000 0.174000 -0.159000
v 0.171500 0.159278 -0.159000
v 0.188500 0.159278 -0.159000
v 0.197000 0.174000 -0.129000
v 0.188500 0.188722 -0.129000
v 0.171500 0.188722 -0.129000
v 0.163000 0.174000 -0.129000
v 0.171500 0.159278 -0.129000
v 0.188500 0.159278 -0.129000
v -0.161000 0.341091 0.149000
v -0.199000 0.341091 0.149000
v -0.218000 0.374000 0.149000
v -0.199000 0.406909 0.149000
v -0.161000 0.406909 0.149000
v -0.142000 0.374000 0.149000
v -0.161000 0.406909 -0.005000
v -0.142000 0.374000 -0.005000
v -0.199000 0.406909 -0.005000
v -0.218000 0.374000 -0.005000
v -0.199000 0.341091 -0.005000
v -0.161000 0.341091 -0.005000
v -0.173000 0.386124 -0.053000
v -0.166000 0.374000 -0.053000
v -0.187000 0.386124 -0.053000
v -0.194000 0.374000 -0.053000
v -0.187000 0.361876 -0.053000
v -0.173000 0.361876 -0.053000
v -0.173000 0.386124 -0.155000
v -0.166000 0.374000 -0.155000
v -0.187000 0.386124 -0.155000
v -0.194000 0.374000 -0.155000
v -0.187000 0.361876 -0.155000
v -0.173000 0.361876 -0.155000
v -0.163000 0.374000 -0.159000
v -0.171500 0.388722 -0.159000
v -0.188500 0.388722 -0.159000
v -0.197000 0.374000 -0.159000
v -0.188500 0.359278 -0.159000
v -0.171500 0.359278 -0.159000
v -0.163000 0.374000 -0.129000
v -0.171500 0.388722 -0.129000
v -0.188500 0.388722 -0.129000
v -0.197000 0.374000 -0.129000
v -0.188500 0.359278 -0.129000
v -0.171500 0.359278 -0.129000
v 0.199000 0.341091 0.149000
v 0.161000 0.341091 0.149000
v 0.142000 0.374000 0.149000
v 0.161000 0.406909 0.149000
v 0.199000 0.406909 0.149000
v 0.218000 0.374000 0.149000
v 0.199000 0.406909 -0.005000
v 0.218000 0.374000 -0.005000
v 0.161000 0.406909 -0.005000
v 0.142000 0.374000 -0.005000
v 0.161000 0.341091 -0.005000
v 0.199000 0.341091 -0.005000
v 0.187000 0.386124 -0.053000
v 0.194000 0.374000 -0.053000
v 0.173000 0.386124 -0.053000
v 0.166000 0.374000 -0.053000
v 0.173000 0.361876 -0.053000
v 0.187000 0.361876 -0.053000
v 0.187000 0.386124 -0.155000
v 0.194000 0.374000 -0.155000
v 0.173000 0.386124 -0.155000
v 0.166000 0.374000 -0.155000
v 0.173000 0.361876 -0.155000
v 0.187000 0.361876 -0.155000
v 0.197000 0.374000 -0.159000
v 0.188500 0.388722 -0.159000
v 0.171500 0.388722 -0.159000
v 0.163000 0.374000 -0.159000
v 0.171500 0.359278 -0.159000
v 0.188500 0.359278 -0.159000
v 0.197000 0.374000 -0.129000
v 0.188500 0.388722 -0.129000
v 0.171500 0.388722 -0.129000
v 0.163000 0.374000 -0.129000
v 0.171500 0.359278 -0.129000
v 0.188500 0.359278 -0.129000
v -0.161000 0.541091 0.149000
v -0.199000 0.541091 0.149000
v -0.218000 0.574000 0.149000
v -0.199000 0.606909 0.149000
v -0.161000 0.606909 0.149000
v -0.142000 0.574000 0.149000
v -0.161000 0.606909 -0.005000
v -0.142000 0.574000 -0.005000
v -0.199000 0.606909 -0.005000
v -0.218000 0.574000 -0.005000
v -0.199000 0.541091 -0.005000
v -0.161000 0.541091 -0.005000
v -0.173000 0.586124 -0.053000
v -0.166000 0.574000 -0.053000
v -0.187000 0.586124 -0.053000
v -0.194000 0.574000 -0.053000
v -0.187000 0.561876 -0.053000
v -0.173000 0.561876 -0.053000
v -0.173000 0.586124 -0.155000
v -0.166000 0.574000 -0.155000
v -0.187000 0.586124 -0.155000
v -0.194000 0.574000 -0.155000
v -0.187000 0.561876 -0.155000
v -0.173000 0.561876 -0.155000
v -0.163000 0.574000 -0.159000
v -0.171500 0.588722 -0.159000
v -0.188500 0.588722 -0.159000
v -0.197000 0.574000 -0.159000
v -0.188500 0.559278 -0.159000
v -0.171500 0.559278 -0.159000
v -0.163000 0.574000 -0.129000
v -0.171500 0.588722 -0.129000
v -0.188500 0.588722 -0.129000
v -0.197000 0.574000 -0.129000
v -0.188500 0.559278 -0.129000
v -0.171500 0.559278 -0.129000
v 0.019000 0.541091 0.149000
v -0.019000 0.541091 0.149000
v -0.038000 0.574000 0.149000
v -0.019000 0.606909 0.149000
v 0.019000 0.606909 0.149000
v 0.038000 0.574000 0.149000
v 0.019000 0.606909 -0.005000
v 0.038000 0.574000 -0.005000
v -0.019000 0.606909 -0.005000
v -0.038000 0.574000 -0.005000
v -0.019000 0.541091 -0.005000
v 0.019000 0.541091 -0.005000
v 0.007000 0.586124 -0.053000
v 0.014000 0.574000 -0.053000
v -0.007000 0.586124 -0.053000
v -0.014000 0.574000 -0.053000
v -0.007000 0.561876 -0.053000
v 0.007000 0.561876 -0.053000
v 0.007000 0.586124 -0.155000
v 0.014000 0.574000 -0.155000
v -0.007000 0.586124 -0.155000
v -0.014000 0.574000 -0.155000
v -0.007000 0.561876 -0.155000
v 0.007000 0.561876 -0.155000
v 0.017000 0.574000 -0.159000
v 0.008500 0.588722 -0.159000
v -0.008500 0.588722 -0.159000
v -0.017000 0.574000 -0.159000
v -0.008500 0.559278 -0.159000
v 0.008500 0.559278 -0.159000
v 0.017000 0.574000 -0.129000
v 0.008500 0.588722 -0.129000
v -0.008500 0.588722 -0.129000
v -0.017000 0.574000 -0.129000
v -0.008500 0.559278 -0.129000
v 0.008500 0.559278 -0.129000
v 0.199000 0.541091 0.149000
v 0.161000 0.541091 0.149000
v 0.142000 0.574000 0.149000
v 0.161000 0.606909 0.149000
v 0.199000 0.606909 0.149000
v 0.218000 0.574000 0.149000
v 0.199000 0.606909 -0.005000
v 0.218000 0.574000 -0.005000
v 0.161000 0.606909 -0.005000
v 0.142000 0.574000 -0.005000
v 0.161000 0.541091 -0.005000
v 0.199000 0.541091 -0.005000
v 0.187000 0.586124 -0.053000
v 0.194000 0.574000 -0.053000
v 0.173000 0.586124 -0.053000
v 0.166000 0.574000 -0.053000
v 0.173000 0.561876 -0.053000
v 0.187000 0.561876 -0.053000
v 0.187000 0.586124 -0.155000
v 0.194000 0.574000 -0.155000
v 0.173000 0.586124 -0.155000
v 0.166000 0.574000 -0.155000
v 0.173000 0.561876 -0.155000
v 0.187000 0.561876 -0.155000
v 0.197000 0.574000 -0.159000
v 0.188500 0.588722 -0.159000
v 0.171500 0.588722 -0.159000
v 0.163000 0.574000 -0.159000
v 0.171500 0.559278 -0.159000
v 0.188500 0.559278 -0.159000
v 0.197000 0.574000 -0.129000
v 0.188500 0.588722 -0.129000
v 0.171500 0.588722 -0.129000
v 0.163000 0.574000 -0.129000
v 0.171500 0.559278 -0.129000
v 0.188500 0.559278 -0.129000
vn -0.0000 -1.0000 -0.0000
vn -0.0000 1.0000 -0.0000
vn -0.0000 -0.0000 1.0000
vn -0.0000 -0.0000 -1.0000
vn -1.0000 -0.0000 -0.0000
vn 1.0000 -0.0000 -0.0000
vn -0.0000 -0.4082 0.9129
vn 0.7454 -0.6667 -0.0000
vn -0.0000 -0.4082 -0.9129
vn -0.7454 -0.6667 -0.0000
vn -0.0000 0.4082 0.9129
vn 0.7454 0.6667 -0.0000
vn -0.0000 0.4082 -0.9129
vn -0.7454 0.6667 -0.0000
vn -0.0000 -0.4083 0.9129
vn 0.7453 -0.6667 -0.0000
vn -0.7453 -0.6667 -0.0000
vn -0.0000 0.4083 0.9129
vn -0.8660 -0.5000 -0.0000
vn 0.8660 -0.5000 -0.0000
vn 0.8660 0.5000 -0.0000
vn -0.8660 0.5000 -0.0000
vn -0.7947 -0.4588 0.3974
vn -0.0000 -0.9177 0.3974
vn 0.7947 -0.4588 0.3974
vn 0.7947 0.4588 0.3974
vn -0.0000 0.9177 0.3974
vn -0.7947 0.4588 0.3974
vt 0.437500 0.937500
vt 0.687500 0.937500
vt 0.562500 0.562500
vt 0.312500 0.062500
vt 0.937500 0.687500
s 0
usemtl FN_Atlas
f 1/1/1 2/1/1 3/1/1 4/1/1
f 5/1/2 6/1/2 7/1/2 8/1/2
f 1/2/3 4/2/3 6/2/3 5/2/3
f 3/2/4 2/2/4 8/2/4 7/2/4
f 1/1/5 5/1/5 8/1/5 2/1/5
f 4/1/6 3/1/6 7/1/6 6/1/6
f 9/1/1 10/1/1 11/1/1 12/1/1
f 13/1/2 14/1/2 15/1/2 16/1/2
f 9/2/3 12/2/3 14/2/3 13/2/3
f 11/2/4 10/2/4 16/2/4 15/2/4
f 9/1/5 13/1/5 16/1/5 10/1/5
f 12/1/6 11/1/6 15/1/6 14/1/6
f 17/2/1 18/2/1 19/2/1 20/2/1
f 20/2/7 19/2/7 21/2/7 22/2/7
f 19/2/8 18/2/8 23/2/8 21/2/8
f 18/2/9 17/2/9 24/2/9 23/2/9
f 17/2/10 20/2/10 22/2/10 24/2/10
f 22/2/3 21/2/3 25/2/3 26/2/3
f 21/2/6 23/2/6 27/2/6 25/2/6
f 23/2/4 24/2/4 28/2/4 27/2/4
f 24/2/5 22/2/5 26/2/5 28/2/5
f 29/1/2 30/1/2 31/1/2 32/1/2
f 26/2/11 25/2/11 30/2/11 29/2/11
f 25/2/12 27/2/12 31/2/12 30/2/12
f 27/2/13 28/2/13 32/2/13 31/2/13
f 28/2/14 26/2/14 29/2/14 32/2/14
f 33/2/1 34/2/1 35/2/1 36/2/1
f 36/2/7 35/2/7 37/2/7 38/2/7
f 35/2/8 34/2/8 39/2/8 37/2/8
f 34/2/9 33/2/9 40/2/9 39/2/9
f 33/2/10 36/2/10 38/2/10 40/2/10
f 38/2/3 37/2/3 41/2/3 42/2/3
f 37/2/6 39/2/6 43/2/6 41/2/6
f 39/2/4 40/2/4 44/2/4 43/2/4
f 40/2/5 38/2/5 42/2/5 44/2/5
f 45/1/2 46/1/2 47/1/2 48/1/2
f 42/2/11 41/2/11 46/2/11 45/2/11
f 41/2/12 43/2/12 47/2/12 46/2/12
f 43/2/13 44/2/13 48/2/13 47/2/13
f 44/2/14 42/2/14 45/2/14 48/2/14
f 49/2/1 50/2/1 51/2/1 52/2/1
f 52/2/7 51/2/7 53/2/7 54/2/7
f 51/2/8 50/2/8 55/2/8 53/2/8
f 50/2/9 49/2/9 56/2/9 55/2/9
f 49/2/10 52/2/10 54/2/10 56/2/10
f 54/2/3 53/2/3 57/2/3 58/2/3
f 53/2/6 55/2/6 59/2/6 57/2/6
f 55/2/4 56/2/4 60/2/4 59/2/4
f 56/2/5 54/2/5 58/2/5 60/2/5
f 61/1/2 62/1/2 63/1/2 64/1/2
f 58/2/11 57/2/11 62/2/11 61/2/11
f 57/2/12 59/2/12 63/2/12 62/2/12
f 59/2/13 60/2/13 64/2/13 63/2/13
f 60/2/14 58/2/14 61/2/14 64/2/14
f 65/2/1 66/2/1 67/2/1 68/2/1
f 68/2/7 67/2/7 69/2/7 70/2/7
f 67/2/8 66/2/8 71/2/8 69/2/8
f 66/2/9 65/2/9 72/2/9 71/2/9
f 65/2/10 68/2/10 70/2/10 72/2/10
f 70/2/3 69/2/3 73/2/3 74/2/3
f 69/2/6 71/2/6 75/2/6 73/2/6
f 71/2/4 72/2/4 76/2/4 75/2/4
f 72/2/5 70/2/5 74/2/5 76/2/5
f 77/1/2 78/1/2 79/1/2 80/1/2
f 74/2/11 73/2/11 78/2/11 77/2/11
f 73/2/12 75/2/12 79/2/12 78/2/12
f 75/2/13 76/2/13 80/2/13 79/2/13
f 76/2/14 74/2/14 77/2/14 80/2/14
f 81/2/1 82/2/1 83/2/1 84/2/1
f 84/2/15 83/2/15 85/2/15 86/2/15
f 83/2/16 82/2/16 87/2/16 85/2/16
f 82/2/9 81/2/9 88/2/9 87/2/9
f 81/2/17 84/2/17 86/2/17 88/2/17
f 86/2/3 85/2/3 89/2/3 90/2/3
f 85/2/6 87/2/6 91/2/6 89/2/6
f 87/2/4 88/2/4 92/2/4 91/2/4
f 88/2/5 86/2/5 90/2/5 92/2/5
f 93/1/2 94/1/2 95/1/2 96/1/2
f 90/2/11 89/2/11 94/2/11 93/2/11
f 89/2/12 91/2/12 95/2/12 94/2/12
f 91/2/13 92/2/13 96/2/13 95/2/13
f 92/2/14 90/2/14 93/2/14 96/2/14
f 97/2/1 98/2/1 99/2/1 100/2/1
f 100/2/7 99/2/7 101/2/7 102/2/7
f 99/2/8 98/2/8 103/2/8 101/2/8
f 98/2/9 97/2/9 104/2/9 103/2/9
f 97/2/10 100/2/10 102/2/10 104/2/10
f 102/2/3 101/2/3 105/2/3 106/2/3
f 101/2/6 103/2/6 107/2/6 105/2/6
f 103/2/4 104/2/4 108/2/4 107/2/4
f 104/2/5 102/2/5 106/2/5 108/2/5
f 109/1/2 110/1/2 111/1/2 112/1/2
f 106/2/18 105/2/18 110/2/18 109/2/18
f 105/2/12 107/2/12 111/2/12 110/2/12
f 107/2/13 108/2/13 112/2/13 111/2/13
f 108/2/14 106/2/14 109/2/14 112/2/14
f 113/3/4 114/3/4 115/3/4 116/3/4 117/3/4 118/3/4
f 118/3/19 117/3/19 119/3/19 120/3/19
f 117/3/1 116/3/1 121/3/1 119/3/1
f 116/3/20 115/3/20 122/3/20 121/3/20
f 115/3/21 114/3/21 123/3/21 122/3/21
f 114/3/2 113/3/2 124/3/2 123/3/2
f 113/3/22 118/3/22 120/3/22 124/3/22
f 120/3/23 119/3/23 125/3/23 126/3/23
f 119/3/24 121/3/24 127/3/24 125/3/24
f 121/3/25 122/3/25 128/3/25 127/3/25
f 122/3/26 123/3/26 129/3/26 128/3/26
f 123/3/27 124/3/27 130/3/27 129/3/27
f 124/3/28 120/3/28 126/3/28 130/3/28
f 126/3/19 125/3/19 131/3/19 132/3/19
f 125/3/1 127/3/1 133/3/1 131/3/1
f 127/3/20 128/3/20 134/3/20 133/3/20
f 128/3/21 129/3/21 135/3/21 134/3/21
f 129/3/2 130/3/2 136/3/2 135/3/2
f 130/3/22 126/3/22 132/3/22 136/3/22
f 132/3/3 131/3/3 133/3/3 134/3/3 135/3/3 136/3/3
f 137/4/3 138/4/3 139/4/3 140/4/3 141/4/3 142/4/3
f 143/4/19 144/4/19 138/4/19 137/4/19
f 144/4/1 145/4/1 139/4/1 138/4/1
f 145/4/20 146/4/20 140/4/20 139/4/20
f 146/4/21 147/4/21 141/4/21 140/4/21
f 147/4/2 148/4/2 142/4/2 141/4/2
f 148/4/22 143/4/22 137/4/22 142/4/22
f 149/5/4 150/5/4 151/5/4 152/5/4 153/5/4 154/5/4
f 154/5/19 153/5/19 155/5/19 156/5/19
f 153/5/1 152/5/1 157/5/1 155/5/1
f 152/5/20 151/5/20 158/5/20 157/5/20
f 151/5/21 150/5/21 159/5/21 158/5/21
f 150/5/2 149/5/2 160/5/2 159/5/2
f 149/5/22 154/5/22 156/5/22 160/5/22
f 156/5/23 155/5/23 161/5/23 162/5/23
f 155/5/24 157/5/24 163/5/24 161/5/24
f 157/5/25 158/5/25 164/5/25 163/5/25
f 158/5/26 159/5/26 165/5/26 164/5/26
f 159/5/27 160/5/27 166/5/27 165/5/27
f 160/5/28 156/5/28 162/5/28 166/5/28
f 162/5/19 161/5/19 167/5/19 168/5/19
f 161/5/1 163/5/1 169/5/1 167/5/1
f 163/5/20 164/5/20 170/5/20 169/5/20
f 164/5/21 165/5/21 171/5/21 170/5/21
f 165/5/2 166/5/2 172/5/2 171/5/2
f 166/5/22 162/5/22 168/5/22 172/5/22
f 168/5/3 167/5/3 169/5/3 170/5/3 171/5/3 172/5/3
f 173/4/3 174/4/3 175/4/3 176/4/3 177/4/3 178/4/3
f 179/4/19 180/4/19 174/4/19 173/4/19
f 180/4/1 181/4/1 175/4/1 174/4/1
f 181/4/20 182/4/20 176/4/20 175/4/20
f 182/4/21 183/4/21 177/4/21 176/4/21
f 183/4/2 184/4/2 178/4/2 177/4/2
f 184/4/22 179/4/22 173/4/22 178/4/22
f 185/3/4 186/3/4 187/3/4 188/3/4 189/3/4 190/3/4
f 190/3/19 189/3/19 191/3/19 192/3/19
f 189/3/1 188/3/1 193/3/1 191/3/1
f 188/3/20 187/3/20 194/3/20 193/3/20
f 187/3/21 186/3/21 195/3/21 194/3/21
f 186/3/2 185/3/2 196/3/2 195/3/2
f 185/3/22 190/3/22 192/3/22 196/3/22
f 192/3/23 191/3/23 197/3/23 198/3/23
f 191/3/24 193/3/24 199/3/24 197/3/24
f 193/3/25 194/3/25 200/3/25 199/3/25
f 194/3/26 195/3/26 201/3/26 200/3/26
f 195/3/27 196/3/27 202/3/27 201/3/27
f 196/3/28 192/3/28 198/3/28 202/3/28
f 198/3/19 197/3/19 203/3/19 204/3/19
f 197/3/1 199/3/1 205/3/1 203/3/1
f 199/3/20 200/3/20 206/3/20 205/3/20
f 200/3/21 201/3/21 207/3/21 206/3/21
f 201/3/2 202/3/2 208/3/2 207/3/2
f 202/3/22 198/3/22 204/3/22 208/3/22
f 204/3/3 203/3/3 205/3/3 206/3/3 207/3/3 208/3/3
f 209/4/3 210/4/3 211/4/3 212/4/3 213/4/3 214/4/3
f 215/4/19 216/4/19 210/4/19 209/4/19
f 216/4/1 217/4/1 211/4/1 210/4/1
f 217/4/20 218/4/20 212/4/20 211/4/20
f 218/4/21 219/4/21 213/4/21 212/4/21
f 219/4/2 220/4/2 214/4/2 213/4/2
f 220/4/22 215/4/22 209/4/22 214/4/22
f 221/3/4 222/3/4 223/3/4 224/3/4 225/3/4 226/3/4
f 226/3/19 225/3/19 227/3/19 228/3/19
f 225/3/1 224/3/1 229/3/1 227/3/1
f 224/3/20 223/3/20 230/3/20 229/3/20
f 223/3/21 222/3/21 231/3/21 230/3/21
f 222/3/2 221/3/2 232/3/2 231/3/2
f 221/3/22 226/3/22 228/3/22 232/3/22
f 228/3/23 227/3/23 233/3/23 234/3/23
f 227/3/24 229/3/24 235/3/24 233/3/24
f 229/3/25 230/3/25 236/3/25 235/3/25
f 230/3/26 231/3/26 237/3/26 236/3/26
f 231/3/27 232/3/27 238/3/27 237/3/27
f 232/3/28 228/3/28 234/3/28 238/3/28
f 234/3/19 233/3/19 239/3/19 240/3/19
f 233/3/1 235/3/1 241/3/1 239/3/1
f 235/3/20 236/3/20 242/3/20 241/3/20
f 236/3/21 237/3/21 243/3/21 242/3/21
f 237/3/2 238/3/2 244/3/2 243/3/2
f 238/3/22 234/3/22 240/3/22 244/3/22
f 240/3/3 239/3/3 241/3/3 242/3/3 243/3/3 244/3/3
f 245/4/3 246/4/3 247/4/3 248/4/3 249/4/3 250/4/3
f 251/4/19 252/4/19 246/4/19 245/4/19
f 252/4/1 253/4/1 247/4/1 246/4/1
f 253/4/20 254/4/20 248/4/20 247/4/20
f 254/4/21 255/4/21 249/4/21 248/4/21
f 255/4/2 256/4/2 250/4/2 249/4/2
f 256/4/22 251/4/22 245/4/22 250/4/22
f 257/5/4 258/5/4 259/5/4 260/5/4 261/5/4 262/5/4
f 262/5/19 261/5/19 263/5/19 264/5/19
f 261/5/1 260/5/1 265/5/1 263/5/1
f 260/5/20 259/5/20 266/5/20 265/5/20
f 259/5/21 258/5/21 267/5/21 266/5/21
f 258/5/2 257/5/2 268/5/2 267/5/2
f 257/5/22 262/5/22 264/5/22 268/5/22
f 264/5/23 263/5/23 269/5/23 270/5/23
f 263/5/24 265/5/24 271/5/24 269/5/24
f 265/5/25 266/5/25 272/5/25 271/5/25
f 266/5/26 267/5/26 273/5/26 272/5/26
f 267/5/27 268/5/27 274/5/27 273/5/27
f 268/5/28 264/5/28 270/5/28 274/5/28
f 270/5/19 269/5/19 275/5/19 276/5/19
f 269/5/1 271/5/1 277/5/1 275/5/1
f 271/5/20 272/5/20 278/5/20 277/5/20
f 272/5/21 273/5/21 279/5/21 278/5/21
f 273/5/2 274/5/2 280/5/2 279/5/2
f 274/5/22 270/5/22 276/5/22 280/5/22
f 276/5/3 275/5/3 277/5/3 278/5/3 279/5/3 280/5/3
f 281/4/3 282/4/3 283/4/3 284/4/3 285/4/3 286/4/3
f 287/4/19 288/4/19 282/4/19 281/4/19
f 288/4/1 289/4/1 283/4/1 282/4/1
f 289/4/20 290/4/20 284/4/20 283/4/20
f 290/4/21 291/4/21 285/4/21 284/4/21
f 291/4/2 292/4/2 286/4/2 285/4/2
f 292/4/22 287/4/22 281/4/22 286/4/22
f 293/3/4 294/3/4 295/3/4 296/3/4 297/3/4 298/3/4
f 298/3/19 297/3/19 299/3/19 300/3/19
f 297/3/1 296/3/1 301/3/1 299/3/1
f 296/3/20 295/3/20 302/3/20 301/3/20
f 295/3/21 294/3/21 303/3/21 302/3/21
f 294/3/2 293/3/2 304/3/2 303/3/2
f 293/3/22 298/3/22 300/3/22 304/3/22
f 300/3/23 299/3/23 305/3/23 306/3/23
f 299/3/24 301/3/24 307/3/24 305/3/24
f 301/3/25 302/3/25 308/3/25 307/3/25
f 302/3/26 303/3/26 309/3/26 308/3/26
f 303/3/27 304/3/27 310/3/27 309/3/27
f 304/3/28 300/3/28 306/3/28 310/3/28
f 306/3/19 305/3/19 311/3/19 312/3/19
f 305/3/1 307/3/1 313/3/1 311/3/1
f 307/3/20 308/3/20 314/3/20 313/3/20
f 308/3/21 309/3/21 315/3/21 314/3/21
f 309/3/2 310/3/2 316/3/2 315/3/2
f 310/3/22 306/3/22 312/3/22 316/3/22
f 312/3/3 311/3/3 313/3/3 314/3/3 315/3/3 316/3/3
f 317/4/3 318/4/3 319/4/3 320/4/3 321/4/3 322/4/3
f 323/4/19 324/4/19 318/4/19 317/4/19
f 324/4/1 325/4/1 319/4/1 318/4/1
f 325/4/20 326/4/20 320/4/20 319/4/20
f 326/4/21 327/4/21 321/4/21 320/4/21
f 327/4/2 328/4/2 322/4/2 321/4/2
f 328/4/22 323/4/22 317/4/22 322/4/22
f 329/5/4 330/5/4 331/5/4 332/5/4 333/5/4 334/5/4
f 334/5/19 333/5/19 335/5/19 336/5/19
f 333/5/1 332/5/1 337/5/1 335/5/1
f 332/5/20 331/5/20 338/5/20 337/5/20
f 331/5/21 330/5/21 339/5/21 338/5/21
f 330/5/2 329/5/2 340/5/2 339/5/2
f 329/5/22 334/5/22 336/5/22 340/5/22
f 336/5/23 335/5/23 341/5/23 342/5/23
f 335/5/24 337/5/24 343/5/24 341/5/24
f 337/5/25 338/5/25 344/5/25 343/5/25
f 338/5/26 339/5/26 345/5/26 344/5/26
f 339/5/27 340/5/27 346/5/27 345/5/27
f 340/5/28 336/5/28 342/5/28 346/5/28
f 342/5/19 341/5/19 347/5/19 348/5/19
f 341/5/1 343/5/1 349/5/1 347/5/1
f 343/5/20 344/5/20 350/5/20 349/5/20
f 344/5/21 345/5/21 351/5/21 350/5/21
f 345/5/2 346/5/2 352/5/2 351/5/2
f 346/5/22 342/5/22 348/5/22 352/5/22
f 348/5/3 347/5/3 349/5/3 350/5/3 351/5/3 352/5/3
f 353/4/3 354/4/3 355/4/3 356/4/3 357/4/3 358/4/3
f 359/4/19 360/4/19 354/4/19 353/4/19
f 360/4/1 361/4/1 355/4/1 354/4/1
f 361/4/20 362/4/20 356/4/20 355/4/20
f 362/4/21 363/4/21 357/4/21 356/4/21
f 363/4/2 364/4/2 358/4/2 357/4/2
f 364/4/22 359/4/22 353/4/22 358/4/22
f 365/3/4 366/3/4 367/3/4 368/3/4 369/3/4 370/3/4
f 370/3/19 369/3/19 371/3/19 372/3/19
f 369/3/1 368/3/1 373/3/1 371/3/1
f 368/3/20 367/3/20 374/3/20 373/3/20
f 367/3/21 366/3/21 375/3/21 374/3/21
f 366/3/2 365/3/2 376/3/2 375/3/2
f 365/3/22 370/3/22 372/3/22 376/3/22
f 372/3/23 371/3/23 377/3/23 378/3/23
f 371/3/24 373/3/24 379/3/24 377/3/24
f 373/3/25 374/3/25 380/3/25 379/3/25
f 374/3/26 375/3/26 381/3/26 380/3/26
f 375/3/27 376/3/27 382/3/27 381/3/27
f 376/3/28 372/3/28 378/3/28 382/3/28
f 378/3/19 377/3/19 383/3/19 384/3/19
f 377/3/1 379/3/1 385/3/1 383/3/1
f 379/3/20 380/3/20 386/3/20 385/3/20
f 380/3/21 381/3/21 387/3/21 386/3/21
f 381/3/2 382/3/2 388/3/2 387/3/2
f 382/3/22 378/3/22 384/3/22 388/3/22
f 384/3/3 383/3/3 385/3/3 386/3/3 387/3/3 388/3/3
f 389/4/3 390/4/3 391/4/3 392/4/3 393/4/3 394/4/3
f 395/4/19 396/4/19 390/4/19 389/4/19
f 396/4/1 397/4/1 391/4/1 390/4/1
f 397/4/20 398/4/20 392/4/20 391/4/20
f 398/4/21 399/4/21 393/4/21 392/4/21
f 399/4/2 400/4/2 394/4/2 393/4/2
f 400/4/22 395/4/22 389/4/22 394/4/22
