# Blender 5.2.0 LTS
# www.blender.org
mtllib FN_Rack_Dumbbell.mtl
o FN_Rack_Dumbbell
v -0.405000 0.000000 0.287500
v -0.405000 0.000000 -0.292500
v -0.375000 0.000000 -0.292500
v -0.375000 0.000000 0.287500
v -0.405000 0.050000 0.287500
v -0.375000 0.050000 0.287500
v -0.375000 0.050000 -0.292500
v -0.405000 0.050000 -0.292500
v -0.405000 0.000000 0.227500
v -0.375000 0.000000 0.227500
v -0.405000 0.380000 0.287500
v -0.375000 0.380000 0.287500
v -0.375000 0.380000 0.227500
v -0.405000 0.380000 0.227500
v -0.405000 0.000000 0.017500
v -0.405000 0.000000 -0.042500
v -0.375000 0.000000 -0.042500
v -0.375000 0.000000 0.017500
v -0.405000 0.650000 0.017500
v -0.375000 0.650000 0.017500
v -0.375000 0.650000 -0.042500
v -0.405000 0.650000 -0.042500
v -0.405000 0.000000 -0.232500
v -0.375000 0.000000 -0.232500
v -0.405000 0.700000 -0.232500
v -0.375000 0.700000 -0.232500
v -0.375000 0.700000 -0.292500
v -0.405000 0.700000 -0.292500
v -0.405000 0.377789 0.241389
v -0.405000 0.137789 -0.023611
v -0.405000 0.102211 0.008611
v -0.405000 0.342211 0.273611
v -0.375000 0.342211 0.273611
v -0.375000 0.102211 0.008611
v -0.375000 0.137789 -0.023611
v -0.375000 0.377789 0.241389
v 0.375000 0.000000 0.287500
v 0.375000 0.000000 -0.292500
v 0.405000 0.000000 -0.292500
v 0.405000 0.000000 0.287500
v 0.375000 0.050000 0.287500
v 0.405000 0.050000 0.287500
v 0.405000 0.050000 -0.292500
v 0.375000 0.050000 -0.292500
v 0.375000 0.000000 0.227500
v 0.405000 0.000000 0.227500
v 0.375000 0.380000 0.287500
v 0.405000 0.380000 0.287500
v 0.405000 0.380000 0.227500
v 0.375000 0.380000 0.227500
v 0.375000 0.000000 0.017500
v 0.375000 0.000000 -0.042500
v 0.405000 0.000000 -0.042500
v 0.405000 0.000000 0.017500
v 0.375000 0.650000 0.017500
v 0.405000 0.650000 0.017500
v 0.405000 0.650000 -0.042500
v 0.375000 0.650000 -0.042500
v 0.375000 0.000000 -0.232500
v 0.405000 0.000000 -0.232500
v 0.375000 0.700000 -0.232500
v 0.405000 0.700000 -0.232500
v 0.405000 0.700000 -0.292500
v 0.375000 0.700000 -0.292500
v 0.375000 0.377789 0.241389
v 0.375000 0.137789 -0.023611
v 0.375000 0.102211 0.008611
v 0.375000 0.342211 0.273611
v 0.405000 0.342211 0.273611
v 0.405000 0.102211 0.008611
v 0.405000 0.137789 -0.023611
v 0.405000 0.377789 0.241389
v -0.405000 0.350000 0.277500
v -0.405000 0.350000 0.237500
v 0.405000 0.350000 0.237500
v 0.405000 0.350000 0.277500
v -0.405000 0.380000 0.277500
v 0.405000 0.380000 0.277500
v 0.405000 0.380000 0.237500
v -0.405000 0.380000 0.237500
v -0.405000 0.350000 0.007500
v -0.405000 0.350000 -0.032500
v 0.405000 0.350000 -0.032500
v 0.405000 0.350000 0.007500
v -0.405000 0.380000 0.007500
v 0.405000 0.380000 0.007500
v 0.405000 0.380000 -0.032500
v -0.405000 0.380000 -0.032500
v -0.405000 0.620000 0.007500
v -0.405000 0.620000 -0.032500
v 0.405000 0.620000 -0.032500
v 0.405000 0.620000 0.007500
v -0.405000 0.650000 0.007500
v 0.405000 0.650000 0.007500
v 0.405000 0.650000 -0.032500
v -0.405000 0.650000 -0.032500
v -0.405000 0.620000 -0.242500
v -0.405000 0.620000 -0.282500
v 0.405000 0.620000 -0.282500
v 0.405000 0.620000 -0.242500
v -0.405000 0.650000 -0.242500
v 0.405000 0.650000 -0.242500
v 0.405000 0.650000 -0.282500
v -0.405000 0.650000 -0.282500
v -0.208000 0.433694 0.295000
v -0.239000 0.487387 0.295000
v -0.301000 0.487387 0.295000
v -0.332000 0.433694 0.295000
v -0.301000 0.380000 0.295000
v -0.239000 0.380000 0.295000
v -0.239000 0.380000 0.220000
v -0.301000 0.380000 0.220000
v -0.332000 0.433694 0.220000
v -0.301000 0.487387 0.220000
v -0.239000 0.487387 0.220000
v -0.208000 0.433694 0.220000
v -0.208000 0.433694 0.025000
v -0.239000 0.487387 0.025000
v -0.301000 0.487387 0.025000
v -0.332000 0.433694 0.025000
v -0.301000 0.380000 0.025000
v -0.239000 0.380000 0.025000
v -0.239000 0.380000 -0.050000
v -0.301000 0.380000 -0.050000
v -0.332000 0.433694 -0.050000
v -0.301000 0.487387 -0.050000
v -0.239000 0.487387 -0.050000
v -0.208000 0.433694 -0.050000
v -0.288000 0.415694 0.220000
v -0.288000 0.415694 0.025000
v -0.252000 0.415694 0.025000
v -0.252000 0.415694 0.220000
v -0.288000 0.451694 0.220000
v -0.252000 0.451694 0.220000
v -0.252000 0.451694 0.025000
v -0.288000 0.451694 0.025000
v -0.028000 0.433694 0.295000
v -0.059000 0.487387 0.295000
v -0.121000 0.487387 0.295000
v -0.152000 0.433694 0.295000
v -0.121000 0.380000 0.295000
v -0.059000 0.380000 0.295000
v -0.059000 0.380000 0.220000
v -0.121000 0.380000 0.220000
v -0.152000 0.433694 0.220000
v -0.121000 0.487387 0.220000
v -0.059000 0.487387 0.220000
v -0.028000 0.433694 0.220000
v -0.028000 0.433694 0.025000
v -0.059000 0.487387 0.025000
v -0.121000 0.487387 0.025000
v -0.152000 0.433694 0.025000
v -0.121000 0.380000 0.025000
v -0.059000 0.380000 0.025000
v -0.059000 0.380000 -0.050000
v -0.121000 0.380000 -0.050000
v -0.152000 0.433694 -0.050000
v -0.121000 0.487387 -0.050000
v -0.059000 0.487387 -0.050000
v -0.028000 0.433694 -0.050000
v -0.108000 0.415694 0.220000
v -0.108000 0.415694 0.025000
v -0.072000 0.415694 0.025000
v -0.072000 0.415694 0.220000
v -0.108000 0.451694 0.220000
v -0.072000 0.451694 0.220000
v -0.072000 0.451694 0.025000
v -0.108000 0.451694 0.025000
v 0.152000 0.433694 0.295000
v 0.121000 0.487387 0.295000
v 0.059000 0.487387 0.295000
v 0.028000 0.433694 0.295000
v 0.059000 0.380000 0.295000
v 0.121000 0.380000 0.295000
v 0.121000 0.380000 0.220000
v 0.059000 0.380000 0.220000
v 0.028000 0.433694 0.220000
v 0.059000 0.487387 0.220000
v 0.121000 0.487387 0.220000
v 0.152000 0.433694 0.220000
v 0.152000 0.433694 0.025000
v 0.121000 0.487387 0.025000
v 0.059000 0.487387 0.025000
v 0.028000 0.433694 0.025000
v 0.059000 0.380000 0.025000
v 0.121000 0.380000 0.025000
v 0.121000 0.380000 -0.050000
v 0.059000 0.380000 -0.050000
v 0.028000 0.433694 -0.050000
v 0.059000 0.487387 -0.050000
v 0.121000 0.487387 -0.050000
v 0.152000 0.433694 -0.050000
v 0.072000 0.415694 0.220000
v 0.072000 0.415694 0.025000
v 0.108000 0.415694 0.025000
v 0.108000 0.415694 0.220000
v 0.072000 0.451694 0.220000
v 0.108000 0.451694 0.220000
v 0.108000 0.451694 0.025000
v 0.072000 0.451694 0.025000
v 0.332000 0.433694 0.295000
v 0.301000 0.487387 0.295000
v 0.239000 0.487387 0.295000
v 0.208000 0.433694 0.295000
v 0.239000 0.380000 0.295000
v 0.301000 0.380000 0.295000
v 0.301000 0.380000 0.220000
v 0.239000 0.380000 0.220000
v 0.208000 0.433694 0.220000
v 0.239000 0.487387 0.220000
v 0.301000 0.487387 0.220000
v 0.332000 0.433694 0.220000
v 0.332000 0.433694 0.025000
v 0.301000 0.487387 0.025000
v 0.239000 0.487387 0.025000
v 0.208000 0.433694 0.025000
v 0.239000 0.380000 0.025000
v 0.301000 0.380000 0.025000
v 0.301000 0.380000 -0.050000
v 0.239000 0.380000 -0.050000
v 0.208000 0.433694 -0.050000
v 0.239000 0.487387 -0.050000
v 0.301000 0.487387 -0.050000
v 0.332000 0.433694 -0.050000
v 0.252000 0.415694 0.220000
v 0.252000 0.415694 0.025000
v 0.288000 0.415694 0.025000
v 0.288000 0.415694 0.220000
v 0.252000 0.451694 0.220000
v 0.288000 0.451694 0.220000
v 0.288000 0.451694 0.025000
v 0.252000 0.451694 0.025000
v -0.205000 0.693301 0.020000
v -0.230000 0.736603 0.020000
v -0.280000 0.736603 0.020000
v -0.305000 0.693301 0.020000
v -0.280000 0.650000 0.020000
v -0.230000 0.650000 0.020000
v -0.230000 0.650000 -0.045000
v -0.280000 0.650000 -0.045000
v -0.305000 0.693301 -0.045000
v -0.280000 0.736603 -0.045000
v -0.230000 0.736603 -0.045000
v -0.205000 0.693301 -0.045000
v -0.205000 0.693301 -0.230000
v -0.230000 0.736603 -0.230000
v -0.280000 0.736603 -0.230000
v -0.305000 0.693301 -0.230000
v -0.280000 0.650000 -0.230000
v -0.230000 0.650000 -0.230000
v -0.230000 0.650000 -0.295000
v -0.280000 0.650000 -0.295000
v -0.305000 0.693301 -0.295000
v -0.280000 0.736603 -0.295000
v -0.230000 0.736603 -0.295000
v -0.205000 0.693301 -0.295000
v -0.273000 0.675301 -0.045000
v -0.273000 0.675301 -0.230000
v -0.237000 0.675301 -0.230000
v -0.237000 0.675301 -0.045000
v -0.273000 0.711301 -0.045000
v -0.237000 0.711301 -0.045000
v -0.237000 0.711301 -0.230000
v -0.273000 0.711301 -0.230000
v -0.035000 0.693301 0.020000
v -0.060000 0.736603 0.020000
v -0.110000 0.736603 0.020000
v -0.135000 0.693301 0.020000
v -0.110000 0.650000 0.020000
v -0.060000 0.650000 0.020000
v -0.060000 0.650000 -0.045000
v -0.110000 0.650000 -0.045000
v -0.135000 0.693301 -0.045000
v -0.110000 0.736603 -0.045000
v -0.060000 0.736603 -0.045000
v -0.035000 0.693301 -0.045000
v -0.035000 0.693301 -0.230000
v -0.060000 0.736603 -0.230000
v -0.110000 0.736603 -0.230000
v -0.135000 0.693301 -0.230000
v -0.110000 0.650000 -0.230000
v -0.060000 0.650000 -0.230000
v -0.060000 0.650000 -0.295000
v -0.110000 0.650000 -0.295000
v -0.135000 0.693301 -0.295000
v -0.110000 0.736603 -0.295000
v -0.060000 0.736603 -0.295000
v -0.035000 0.693301 -0.295000
v -0.103000 0.675301 -0.045000
v -0.103000 0.675301 -0.230000
v -0.067000 0.675301 -0.230000
v -0.067000 0.675301 -0.045000
v -0.103000 0.711301 -0.045000
v -0.067000 0.711301 -0.045000
v -0.067000 0.711301 -0.230000
v -0.103000 0.711301 -0.230000
v 0.305000 0.693301 0.020000
v 0.280000 0.736603 0.020000
v 0.230000 0.736603 0.020000
v 0.205000 0.693301 0.020000
v 0.230000 0.650000 0.020000
v 0.280000 0.650000 0.020000
v 0.280000 0.650000 -0.045000
v 0.230000 0.650000 -0.045000
v 0.205000 0.693301 -0.045000
v 0.230000 0.736603 -0.045000
v 0.280000 0.736603 -0.045000
v 0.305000 0.693301 -0.045000
v 0.305000 0.693301 -0.230000
v 0.280000 0.736603 -0.230000
v 0.230000 0.736603 -0.230000
v 0.205000 0.693301 -0.230000
v 0.230000 0.650000 -0.230000
v 0.280000 0.650000 -0.230000
v 0.280000 0.650000 -0.295000
v 0.230000 0.650000 -0.295000
v 0.205000 0.693301 -0.295000
v 0.230000 0.736603 -0.295000
v 0.280000 0.736603 -0.295000
v 0.305000 0.693301 -0.295000
v 0.237000 0.675301 -0.045000
v 0.237000 0.675301 -0.230000
v 0.273000 0.675301 -0.230000
v 0.273000 0.675301 -0.045000
v 0.237000 0.711301 -0.045000
v 0.273000 0.711301 -0.045000
v 0.273000 0.711301 -0.230000
v 0.237000 0.711301 -0.230000
vn -0.0000 -1.0000 -0.0000
vn -0.0000 1.0000 -0.0000
vn -0.0000 -0.0000 1.0000
vn -0.0000 -0.0000 -1.0000
vn -1.0000 -0.0000 -0.0000
vn 1.0000 -0.0000 -0.0000
vn -0.0000 0.7412 -0.6713
vn -0.0000 -0.6713 -0.7412
vn -0.0000 -0.7412 0.6713
vn -0.0000 0.6713 0.7412
vn -0.8660 -0.5000 -0.0000
vn 0.8660 -0.5000 -0.0000
vn 0.8660 0.5000 -0.0000
vn -0.8660 0.5000 -0.0000
vt 0.687500 0.062500
vt 0.812500 0.312500
vt 0.312500 0.312500
s 0
usemtl FN_Atlas
f 1/1/1 2/1/1 3/1/1 4/1/1
f 5/1/2 6/1/2 7/1/2 8/1/2
f 1/1/3 4/1/3 6/1/3 5/1/3
f 3/1/4 2/1/4 8/1/4 7/1/4
f 1/1/5 5/1/5 8/1/5 2/1/5
f 4/1/6 3/1/6 7/1/6 6/1/6
f 1/1/1 9/1/1 10/1/1 4/1/1
f 11/1/2 12/1/2 13/1/2 14/1/2
f 1/1/3 4/1/3 12/1/3 11/1/3
f 10/1/4 9/1/4 14/1/4 13/1/4
f 1/1/5 11/1/5 14/1/5 9/1/5
f 4/1/6 10/1/6 13/1/6 12/1/6
f 15/1/1 16/1/1 17/1/1 18/1/1
f 19/1/2 20/1/2 21/1/2 22/1/2
f 15/1/3 18/1/3 20/1/3 19/1/3
f 17/1/4 16/1/4 22/1/4 21/1/4
f 15/1/5 19/1/5 22/1/5 16/1/5
f 18/1/6 17/1/6 21/1/6 20/1/6
f 23/1/1 2/1/1 3/1/1 24/1/1
f 25/1/2 26/1/2 27/1/2 28/1/2
f 23/1/3 24/1/3 26/1/3 25/1/3
f 3/1/4 2/1/4 28/1/4 27/1/4
f 23/1/5 25/1/5 28/1/5 2/1/5
f 24/1/6 3/1/6 27/1/6 26/1/6
f 29/1/5 30/1/5 31/1/5 32/1/5
f 33/1/6 34/1/6 35/1/6 36/1/6
f 36/1/7 35/1/7 30/1/7 29/1/7
f 35/1/8 34/1/8 31/1/8 30/1/8
f 34/1/9 33/1/9 32/1/9 31/1/9
f 33/1/10 36/1/10 29/1/10 32/1/10
f 37/1/1 38/1/1 39/1/1 40/1/1
f 41/1/2 42/1/2 43/1/2 44/1/2
f 37/1/3 40/1/3 42/1/3 41/1/3
f 39/1/4 38/1/4 44/1/4 43/1/4
f 37/1/5 41/1/5 44/1/5 38/1/5
f 40/1/6 39/1/6 43/1/6 42/1/6
f 37/1/1 45/1/1 46/1/1 40/1/1
f 47/1/2 48/1/2 49/1/2 50/1/2
f 37/1/3 40/1/3 48/1/3 47/1/3
f 46/1/4 45/1/4 50/1/4 49/1/4
f 37/1/5 47/1/5 50/1/5 45/1/5
f 40/1/6 46/1/6 49/1/6 48/1/6
f 51/1/1 52/1/1 53/1/1 54/1/1
f 55/1/2 56/1/2 57/1/2 58/1/2
f 51/1/3 54/1/3 56/1/3 55/1/3
f 53/1/4 52/1/4 58/1/4 57/1/4
f 51/1/5 55/1/5 58/1/5 52/1/5
f 54/1/6 53/1/6 57/1/6 56/1/6
f 59/1/1 38/1/1 39/1/1 60/1/1
f 61/1/2 62/1/2 63/1/2 64/1/2
f 59/1/3 60/1/3 62/1/3 61/1/3
f 39/1/4 38/1/4 64/1/4 63/1/4
f 59/1/5 61/1/5 64/1/5 38/1/5
f 60/1/6 39/1/6 63/1/6 62/1/6
f 65/1/5 66/1/5 67/1/5 68/1/5
f 69/1/6 70/1/6 71/1/6 72/1/6
f 72/1/7 71/1/7 66/1/7 65/1/7
f 71/1/8 70/1/8 67/1/8 66/1/8
f 70/1/9 69/1/9 68/1/9 67/1/9
f 69/1/10 72/1/10 65/1/10 68/1/10
f 73/1/1 74/1/1 75/1/1 76/1/1
f 77/1/2 78/1/2 79/1/2 80/1/2
f 73/1/3 76/1/3 78/1/3 77/1/3
f 75/1/4 74/1/4 80/1/4 79/1/4
f 73/1/5 77/1/5 80/1/5 74/1/5
f 76/1/6 75/1/6 79/1/6 78/1/6
f 81/1/1 82/1/1 83/1/1 84/1/1
f 85/1/2 86/1/2 87/1/2 88/1/2
f 81/1/3 84/1/3 86/1/3 85/1/3
f 83/1/4 82/1/4 88/1/4 87/1/4
f 81/1/5 85/1/5 88/1/5 82/1/5
f 84/1/6 83/1/6 87/1/6 86/1/6
f 89/1/1 90/1/1 91/1/1 92/1/1
f 93/1/2 94/1/2 95/1/2 96/1/2
f 89/1/3 92/1/3 94/1/3 93/1/3
f 91/1/4 90/1/4 96/1/4 95/1/4
f 89/1/5 93/1/5 96/1/5 90/1/5
f 92/1/6 91/1/6 95/1/6 94/1/6
f 97/1/1 98/1/1 99/1/1 100/1/1
f 101/1/2 102/1/2 103/1/2 104/1/2
f 97/1/3 100/1/3 102/1/3 101/1/3
f 99/1/4 98/1/4 104/1/4 103/1/4
f 97/1/5 101/1/5 104/1/5 98/1/5
f 100/1/6 99/1/6 103/1/6 102/1/6
f 105/2/3 106/2/3 107/2/3 108/2/3 109/2/3 110/2/3
f 111/2/4 112/2/4 113/2/4 114/2/4 115/2/4 116/2/4
f 105/2/11 106/2/11 115/2/11 116/2/11
f 106/2/1 107/2/1 114/2/1 115/2/1
f 107/2/12 108/2/12 113/2/12 114/2/12
f 108/2/13 109/2/13 112/2/13 113/2/13
f 109/2/2 110/2/2 111/2/2 112/2/2
f 110/2/14 105/2/14 116/2/14 111/2/14
f 117/2/3 118/2/3 119/2/3 120/2/3 121/2/3 122/2/3
f 123/2/4 124/2/4 125/2/4 126/2/4 127/2/4 128/2/4
f 117/2/11 118/2/11 127/2/11 128/2/11
f 118/2/1 119/2/1 126/2/1 127/2/1
f 119/2/12 120/2/12 125/2/12 126/2/12
f 120/2/13 121/2/13 124/2/13 125/2/13
f 121/2/2 122/2/2 123/2/2 124/2/2
f 122/2/14 117/2/14 128/2/14 123/2/14
f 129/3/1 130/3/1 131/3/1 132/3/1
f 133/3/2 134/3/2 135/3/2 136/3/2
f 129/3/3 132/3/3 134/3/3 133/3/3
f 131/3/4 130/3/4 136/3/4 135/3/4
f 129/3/5 133/3/5 136/3/5 130/3/5
f 132/3/6 131/3/6 135/3/6 134/3/6
f 137/2/3 138/2/3 139/2/3 140/2/3 141/2/3 142/2/3
f 143/2/4 144/2/4 145/2/4 146/2/4 147/2/4 148/2/4
f 137/2/11 138/2/11 147/2/11 148/2/11
f 138/2/1 139/2/1 146/2/1 147/2/1
f 139/2/12 140/2/12 145/2/12 146/2/12
f 140/2/13 141/2/13 144/2/13 145/2/13
f 141/2/2 142/2/2 143/2/2 144/2/2
f 142/2/14 137/2/14 148/2/14 143/2/14
f 149/2/3 150/2/3 151/2/3 152/2/3 153/2/3 154/2/3
f 155/2/4 156/2/4 157/2/4 158/2/4 159/2/4 160/2/4
f 149/2/11 150/2/11 159/2/11 160/2/11
f 150/2/1 151/2/1 158/2/1 159/2/1
f 151/2/12 152/2/12 157/2/12 158/2/12
f 152/2/13 153/2/13 156/2/13 157/2/13
f 153/2/2 154/2/2 155/2/2 156/2/2
f 154/2/14 149/2/14 160/2/14 155/2/14
f 161/3/1 162/3/1 163/3/1 164/3/1
f 165/3/2 166/3/2 167/3/2 168/3/2
f 161/3/3 164/3/3 166/3/3 165/3/3
f 163/3/4 162/3/4 168/3/4 167/3/4
f 161/3/5 165/3/5 168/3/5 162/3/5
f 164/3/6 163/3/6 167/3/6 166/3/6
f 169/2/3 170/2/3 171/2/3 172/2/3 173/2/3 174/2/3
f 175/2/4 176/2/4 177/2/4 178/2/4 179/2/4 180/2/4
f 169/2/11 170/2/11 179/2/11 180/2/11
f 170/2/1 171/2/1 178/2/1 179/2/1
f 171/2/12 172/2/12 177/2/12 178/2/12
f 172/2/13 173/2/13 176/2/13 177/2/13
f 173/2/2 174/2/2 175/2/2 176/2/2
f 174/2/14 169/2/14 180/2/14 175/2/14
f 181/2/3 182/2/3 183/2/3 184/2/3 185/2/3 186/2/3
f 187/2/4 188/2/4 189/2/4 190/2/4 191/2/4 192/2/4
f 181/2/11 182/2/11 191/2/11 192/2/11
f 182/2/1 183/2/1 190/2/1 191/2/1
f 183/2/12 184/2/12 189/2/12 190/2/12
f 184/2/13 185/2/13 188/2/13 189/2/13
f 185/2/2 186/2/2 187/2/2 188/2/2
f 186/2/14 181/2/14 192/2/14 187/2/14
f 193/3/1 194/3/1 195/3/1 196/3/1
f 197/3/2 198/3/2 199/3/2 200/3/2
f 193/3/3 196/3/3 198/3/3 197/3/3
f 195/3/4 194/3/4 200/3/4 199/3/4
f 193/3/5 197/3/5 200/3/5 194/3/5
f 196/3/6 195/3/6 199/3/6 198/3/6
f 201/2/3 202/2/3 203/2/3 204/2/3 205/2/3 206/2/3
f 207/2/4 208/2/4 209/2/4 210/2/4 211/2/4 212/2/4
f 201/2/11 202/2/11 211/2/11 212/2/11
f 202/2/1 203/2/1 210/2/1 211/2/1
f 203/2/12 204/2/12 209/2/12 210/2/12
f 204/2/13 205/2/13 208/2/13 209/2/13
f 205/2/2 206/2/2 207/2/2 208/2/2
f 206/2/14 201/2/14 212/2/14 207/2/14
f 213/2/3 214/2/3 215/2/3 216/2/3 217/2/3 218/2/3
f 219/2/4 220/2/4 221/2/4 222/2/4 223/2/4 224/2/4
f 213/2/11 214/2/11 223/2/11 224/2/11
f 214/2/1 215/2/1 222/2/1 223/2/1
f 215/2/12 216/2/12 221/2/12 222/2/12
f 216/2/13 217/2/13 220/2/13 221/2/13
f 217/2/2 218/2/2 219/2/2 220/2/2
f 218/2/14 213/2/14 224/2/14 219/2/14
f 225/3/1 226/3/1 227/3/1 228/3/1
f 229/3/2 230/3/2 231/3/2 232/3/2
f 225/3/3 228/3/3 230/3/3 229/3/3
f 227/3/4 226/3/4 232/3/4 231/3/4
f 225/3/5 229/3/5 232/3/5 226/3/5
f 228/3/6 227/3/6 231/3/6 230/3/6
f 233/2/3 234/2/3 235/2/3 236/2/3 237/2/3 238/2/3
f 239/2/4 240/2/4 241/2/4 242/2/4 243/2/4 244/2/4
f 233/2/11 234/2/11 243/2/11 244/2/11
f 234/2/1 235/2/1 242/2/1 243/2/1
f 235/2/12 236/2/12 241/2/12 242/2/12
f 236/2/13 237/2/13 240/2/13 241/2/13
f 237/2/2 238/2/2 239/2/2 240/2/2
f 238/2/14 233/2/14 244/2/14 239/2/14
f 245/2/3 246/2/3 247/2/3 248/2/3 249/2/3 250/2/3
f 251/2/4 252/2/4 253/2/4 254/2/4 255/2/4 256/2/4
f 245/2/11 246/2/11 255/2/11 256/2/11
f 246/2/1 247/2/1 254/2/1 255/2/1
f 247/2/12 248/2/12 253/2/12 254/2/12
f 248/2/13 249/2/13 252/2/13 253/2/13
f 249/2/2 250/2/2 251/2/2 252/2/2
f 250/2/14 245/2/14 256/2/14 251/2/14
f 257/3/1 258/3/1 259/3/1 260/3/1
f 261/3/2 262/3/2 263/3/2 264/3/2
f 257/3/3 260/3/3 262/3/3 261/3/3
f 259/3/4 258/3/4 264/3/4 263/3/4
f 257/3/5 261/3/5 264/3/5 258/3/5
f 260/3/6 259/3/6 263/3/6 262/3/6
f 265/2/3 266/2/3 267/2/3 268/2/3 269/2/3 270/2/3
f 271/2/4 272/2/4 273/2/4 274/2/4 275/2/4 276/2/4
f 265/2/11 266/2/11 275/2/11 276/2/11
f 266/2/1 267/2/1 274/2/1 275/2/1
f 267/2/12 268/2/12 273/2/12 274/2/12
f 268/2/13 269/2/13 272/2/13 273/2/13
f 269/2/2 270/2/2 271/2/2 272/2/2
f 270/2/14 265/2/14 276/2/14 271/2/14
f 277/2/3 278/2/3 279/2/3 280/2/3 281/2/3 282/2/3
f 283/2/4 284/2/4 285/2/4 286/2/4 287/2/4 288/2/4
f 277/2/11 278/2/11 287/2/11 288/2/11
f 278/2/1 279/2/1 286/2/1 287/2/1
f 279/2/12 280/2/12 285/2/12 286/2/12
f 280/2/13 281/2/13 284/2/13 285/2/13
f 281/2/2 282/2/2 283/2/2 284/2/2
f 282/2/14 277/2/14 288/2/14 283/2/14
f 289/3/1 290/3/1 291/3/1 292/3/1
f 293/3/2 294/3/2 295/3/2 296/3/2
f 289/3/3 292/3/3 294/3/3 293/3/3
f 291/3/4 290/3/4 296/3/4 295/3/4
f 289/3/5 293/3/5 296/3/5 290/3/5
f 292/3/6 291/3/6 295/3/6 294/3/6
f 297/2/3 298/2/3 299/2/3 300/2/3 301/2/3 302/2/3
f 303/2/4 304/2/4 305/2/4 306/2/4 307/2/4 308/2/4
f 297/2/11 298/2/11 307/2/11 308/2/11
f 298/2/1 299/2/1 306/2/1 307/2/1
f 299/2/12 300/2/12 305/2/12 306/2/12
f 300/2/13 301/2/13 304/2/13 305/2/13
f 301/2/2 302/2/2 303/2/2 304/2/2
f 302/2/14 297/2/14 308/2/14 303/2/14
f 309/2/3 310/2/3 311/2/3 312/2/3 313/2/3 314/2/3
f 315/2/4 316/2/4 317/2/4 318/2/4 319/2/4 320/2/4
f 309/2/11 310/2/11 319/2/11 320/2/11
f 310/2/1 311/2/1 318/2/1 319/2/1
f 311/2/12 312/2/12 317/2/12 318/2/12
f 312/2/13 313/2/13 316/2/13 317/2/13
f 313/2/2 314/2/2 315/2/2 316/2/2
f 314/2/14 309/2/14 320/2/14 315/2/14
f 321/3/1 322/3/1 323/3/1 324/3/1
f 325/3/2 326/3/2 327/3/2 328/3/2
f 321/3/3 324/3/3 326/3/3 325/3/3
f 323/3/4 322/3/4 328/3/4 327/3/4
f 321/3/5 325/3/5 328/3/5 322/3/5
f 324/3/6 323/3/6 327/3/6 326/3/6
