# Blender 5.2.0 LTS
# www.blender.org
mtllib FN_Rack_Glass.mtl
o FN_Rack_Glass
v -0.350000 -0.270000 0.000000
v -0.350000 -0.270000 -0.018000
v 0.350000 -0.270000 -0.018000
v 0.350000 -0.270000 0.000000
v -0.350000 0.000000 0.000000
v 0.350000 0.000000 0.000000
v 0.350000 0.000000 -0.018000
v -0.350000 0.000000 -0.018000
v -0.350000 -0.022000 0.000000
v -0.350000 -0.022000 -0.240000
v 0.350000 -0.022000 -0.240000
v 0.350000 -0.022000 0.000000
v 0.350000 0.000000 -0.240000
v -0.350000 0.000000 -0.240000
v -0.230000 -0.076000 -0.040000
v -0.230000 -0.076000 -0.230000
v -0.170000 -0.076000 -0.230000
v -0.170000 -0.076000 -0.040000
v -0.230000 -0.014000 -0.040000
v -0.170000 -0.014000 -0.040000
v -0.170000 -0.014000 -0.230000
v -0.230000 -0.014000 -0.230000
v -0.130000 -0.076000 -0.040000
v -0.130000 -0.076000 -0.230000
v -0.070000 -0.076000 -0.230000
v -0.070000 -0.076000 -0.040000
v -0.130000 -0.014000 -0.040000
v -0.070000 -0.014000 -0.040000
v -0.070000 -0.014000 -0.230000
v -0.130000 -0.014000 -0.230000
v -0.030000 -0.076000 -0.040000
v -0.030000 -0.076000 -0.230000
v 0.030000 -0.076000 -0.230000
v 0.030000 -0.076000 -0.040000
v -0.030000 -0.014000 -0.040000
v 0.030000 -0.014000 -0.040000
v 0.030000 -0.014000 -0.230000
v -0.030000 -0.014000 -0.230000
v 0.070000 -0.076000 -0.040000
v 0.070000 -0.076000 -0.230000
v 0.130000 -0.076000 -0.230000
v 0.130000 -0.076000 -0.040000
v 0.070000 -0.014000 -0.040000
v 0.130000 -0.014000 -0.040000
v 0.130000 -0.014000 -0.230000
v 0.070000 -0.014000 -0.230000
v 0.170000 -0.076000 -0.040000
v 0.170000 -0.076000 -0.230000
v 0.230000 -0.076000 -0.230000
v 0.230000 -0.076000 -0.040000
v 0.170000 -0.014000 -0.040000
v 0.230000 -0.014000 -0.040000
v 0.230000 -0.014000 -0.230000
v 0.170000 -0.014000 -0.230000
v -0.134000 -0.060000 -0.107287
v -0.166000 -0.060000 -0.107287
v -0.182000 -0.060000 -0.135000
v -0.166000 -0.060000 -0.162713
v -0.134000 -0.060000 -0.162713
v -0.118000 -0.060000 -0.135000
v -0.118000 -0.050000 -0.135000
v -0.134000 -0.050000 -0.162713
v -0.166000 -0.050000 -0.162713
v -0.182000 -0.050000 -0.135000
v -0.166000 -0.050000 -0.107287
v -0.134000 -0.050000 -0.107287
v -0.144000 -0.140000 -0.135000
v -0.147000 -0.140000 -0.140196
v -0.147000 -0.055000 -0.140196
v -0.144000 -0.055000 -0.135000
v -0.153000 -0.140000 -0.140196
v -0.153000 -0.055000 -0.140196
v -0.156000 -0.140000 -0.135000
v -0.156000 -0.055000 -0.135000
v -0.153000 -0.140000 -0.129804
v -0.153000 -0.055000 -0.129804
v -0.147000 -0.140000 -0.129804
v -0.147000 -0.055000 -0.129804
v -0.118000 -0.196000 -0.135000
v -0.127373 -0.196000 -0.157627
v -0.150000 -0.196000 -0.167000
v -0.172627 -0.196000 -0.157627
v -0.182000 -0.196000 -0.135000
v -0.172627 -0.196000 -0.112373
v -0.150000 -0.196000 -0.103000
v -0.127373 -0.196000 -0.112373
v -0.140000 -0.146000 -0.135000
v -0.142929 -0.146000 -0.142071
v -0.150000 -0.146000 -0.145000
v -0.157071 -0.146000 -0.142071
v -0.160000 -0.146000 -0.135000
v -0.157071 -0.146000 -0.127929
v -0.150000 -0.146000 -0.125000
v -0.142929 -0.146000 -0.127929
v -0.121716 -0.256000 -0.163284
v -0.110000 -0.256000 -0.135000
v -0.150000 -0.256000 -0.175000
v -0.178284 -0.256000 -0.163284
v -0.190000 -0.256000 -0.135000
v -0.178284 -0.256000 -0.106716
v -0.150000 -0.256000 -0.095000
v -0.121716 -0.256000 -0.106716
v -0.034000 -0.060000 -0.107287
v -0.066000 -0.060000 -0.107287
v -0.082000 -0.060000 -0.135000
v -0.066000 -0.060000 -0.162713
v -0.034000 -0.060000 -0.162713
v -0.018000 -0.060000 -0.135000
v -0.018000 -0.050000 -0.135000
v -0.034000 -0.050000 -0.162713
v -0.066000 -0.050000 -0.162713
v -0.082000 -0.050000 -0.135000
v -0.066000 -0.050000 -0.107287
v -0.034000 -0.050000 -0.107287
v -0.044000 -0.140000 -0.135000
v -0.047000 -0.140000 -0.140196
v -0.047000 -0.055000 -0.140196
v -0.044000 -0.055000 -0.135000
v -0.053000 -0.140000 -0.140196
v -0.053000 -0.055000 -0.140196
v -0.056000 -0.140000 -0.135000
v -0.056000 -0.055000 -0.135000
v -0.053000 -0.140000 -0.129804
v -0.053000 -0.055000 -0.129804
v -0.047000 -0.140000 -0.129804
v -0.047000 -0.055000 -0.129804
v -0.018000 -0.196000 -0.135000
v -0.027373 -0.196000 -0.157627
v -0.050000 -0.196000 -0.167000
v -0.072627 -0.196000 -0.157627
v -0.082000 -0.196000 -0.135000
v -0.072627 -0.196000 -0.112373
v -0.050000 -0.196000 -0.103000
v -0.027373 -0.196000 -0.112373
v -0.040000 -0.146000 -0.135000
v -0.042929 -0.146000 -0.142071
v -0.050000 -0.146000 -0.145000
v -0.057071 -0.146000 -0.142071
v -0.060000 -0.146000 -0.135000
v -0.057071 -0.146000 -0.127929
v -0.050000 -0.146000 -0.125000
v -0.042929 -0.146000 -0.127929
v -0.021716 -0.256000 -0.163284
v -0.010000 -0.256000 -0.135000
v -0.050000 -0.256000 -0.175000
v -0.078284 -0.256000 -0.163284
v -0.090000 -0.256000 -0.135000
v -0.078284 -0.256000 -0.106716
v -0.050000 -0.256000 -0.095000
v -0.021716 -0.256000 -0.106716
v 0.066000 -0.060000 -0.107287
v 0.034000 -0.060000 -0.107287
v 0.018000 -0.060000 -0.135000
v 0.034000 -0.060000 -0.162713
v 0.066000 -0.060000 -0.162713
v 0.082000 -0.060000 -0.135000
v 0.082000 -0.050000 -0.135000
v 0.066000 -0.050000 -0.162713
v 0.034000 -0.050000 -0.162713
v 0.018000 -0.050000 -0.135000
v 0.034000 -0.050000 -0.107287
v 0.066000 -0.050000 -0.107287
v 0.056000 -0.140000 -0.135000
v 0.053000 -0.140000 -0.140196
v 0.053000 -0.055000 -0.140196
v 0.056000 -0.055000 -0.135000
v 0.047000 -0.140000 -0.140196
v 0.047000 -0.055000 -0.140196
v 0.044000 -0.140000 -0.135000
v 0.044000 -0.055000 -0.135000
v 0.047000 -0.140000 -0.129804
v 0.047000 -0.055000 -0.129804
v 0.053000 -0.140000 -0.129804
v 0.053000 -0.055000 -0.129804
v 0.082000 -0.196000 -0.135000
v 0.072627 -0.196000 -0.157627
v 0.050000 -0.196000 -0.167000
v 0.027373 -0.196000 -0.157627
v 0.018000 -0.196000 -0.135000
v 0.027373 -0.196000 -0.112373
v 0.050000 -0.196000 -0.103000
v 0.072627 -0.196000 -0.112373
v 0.060000 -0.146000 -0.135000
v 0.057071 -0.146000 -0.142071
v 0.050000 -0.146000 -0.145000
v 0.042929 -0.146000 -0.142071
v 0.040000 -0.146000 -0.135000
v 0.042929 -0.146000 -0.127929
v 0.050000 -0.146000 -0.125000
v 0.057071 -0.146000 -0.127929
v 0.078284 -0.256000 -0.163284
v 0.090000 -0.256000 -0.135000
v 0.050000 -0.256000 -0.175000
v 0.021716 -0.256000 -0.163284
v 0.010000 -0.256000 -0.135000
v 0.021716 -0.256000 -0.106716
v 0.050000 -0.256000 -0.095000
v 0.078284 -0.256000 -0.106716
v 0.166000 -0.060000 -0.107287
v 0.134000 -0.060000 -0.107287
v 0.118000 -0.060000 -0.135000
v 0.134000 -0.060000 -0.162713
v 0.166000 -0.060000 -0.162713
v 0.182000 -0.060000 -0.135000
v 0.182000 -0.050000 -0.135000
v 0.166000 -0.050000 -0.162713
v 0.134000 -0.050000 -0.162713
v 0.118000 -0.050000 -0.135000
v 0.134000 -0.050000 -0.107287
v 0.166000 -0.050000 -0.107287
v 0.156000 -0.140000 -0.135000
v 0.153000 -0.140000 -0.140196
v 0.153000 -0.055000 -0.140196
v 0.156000 -0.055000 -0.135000
v 0.147000 -0.140000 -0.140196
v 0.147000 -0.055000 -0.140196
v 0.144000 -0.140000 -0.135000
v 0.144000 -0.055000 -0.135000
v 0.147000 -0.140000 -0.129804
v 0.147000 -0.055000 -0.129804
v 0.153000 -0.140000 -0.129804
v 0.153000 -0.055000 -0.129804
v 0.182000 -0.196000 -0.135000
v 0.172627 -0.196000 -0.157627
v 0.150000 -0.196000 -0.167000
v 0.127373 -0.196000 -0.157627
v 0.118000 -0.196000 -0.135000
v 0.127373 -0.196000 -0.112373
v 0.150000 -0.196000 -0.103000
v 0.172627 -0.196000 -0.112373
v 0.160000 -0.146000 -0.135000
v 0.157071 -0.146000 -0.142071
v 0.150000 -0.146000 -0.145000
v 0.142929 -0.146000 -0.142071
v 0.140000 -0.146000 -0.135000
v 0.142929 -0.146000 -0.127929
v 0.150000 -0.146000 -0.125000
v 0.157071 -0.146000 -0.127929
v 0.178284 -0.256000 -0.163284
v 0.190000 -0.256000 -0.135000
v 0.150000 -0.256000 -0.175000
v 0.121716 -0.256000 -0.163284
v 0.110000 -0.256000 -0.135000
v 0.121716 -0.256000 -0.106716
v 0.150000 -0.256000 -0.095000
v 0.178284 -0.256000 -0.106716
vn -0.0000 -1.0000 -0.0000
vn -0.0000 1.0000 -0.0000
vn -0.0000 -0.0000 1.0000
vn -0.0000 -0.0000 -1.0000
vn -1.0000 -0.0000 -0.0000
vn 1.0000 -0.0000 -0.0000
vn 0.8660 -0.0000 -0.5000
vn -0.8660 -0.0000 -0.5000
vn -0.8660 -0.0000 0.5000
vn 0.8660 -0.0000 0.5000
vn -0.8559 -0.3766 0.3545
vn -0.3545 -0.3766 0.8559
vn 0.3545 -0.3766 0.8559
vn 0.8559 -0.3766 0.3545
vn 0.8559 -0.3766 -0.3545
vn 0.3545 -0.3766 -0.8559
vn -0.3545 -0.3766 -0.8559
vn -0.8559 -0.3766 -0.3545
vn -0.9169 -0.1223 0.3798
vn -0.3798 -0.1223 0.9169
vn 0.3798 -0.1223 0.9169
vn 0.9169 -0.1223 0.3798
vn 0.9169 -0.1223 -0.3798
vn 0.3798 -0.1223 -0.9169
vn -0.3798 -0.1223 -0.9169
vn -0.9169 -0.1223 -0.3798
vt 0.437500 0.937500
vt 0.437500 0.812500
s 0
usemtl FN_Atlas
f 1/1/1 2/1/1 3/1/1 4/1/1
f 5/1/2 6/1/2 7/1/2 8/1/2
f 1/1/3 4/1/3 6/1/3 5/1/3
f 3/1/4 2/1/4 8/1/4 7/1/4
f 1/1/5 5/1/5 8/1/5 2/1/5
f 4/1/6 3/1/6 7/1/6 6/1/6
f 9/1/1 10/1/1 11/1/1 12/1/1
f 5/1/2 6/1/2 13/1/2 14/1/2
f 9/1/3 12/1/3 6/1/3 5/1/3
f 11/1/4 10/1/4 14/1/4 13/1/4
f 9/1/5 5/1/5 14/1/5 10/1/5
f 12/1/6 11/1/6 13/1/6 6/1/6
f 15/1/1 16/1/1 17/1/1 18/1/1
f 19/1/2 20/1/2 21/1/2 22/1/2
f 15/1/3 18/1/3 20/1/3 19/1/3
f 17/1/4 16/1/4 22/1/4 21/1/4
f 15/1/5 19/1/5 22/1/5 16/1/5
f 18/1/6 17/1/6 21/1/6 20/1/6
f 23/1/1 24/1/1 25/1/1 26/1/1
f 27/1/2 28/1/2 29/1/2 30/1/2
f 23/1/3 26/1/3 28/1/3 27/1/3
f 25/1/4 24/1/4 30/1/4 29/1/4
f 23/1/5 27/1/5 30/1/5 24/1/5
f 26/1/6 25/1/6 29/1/6 28/1/6
f 31/1/1 32/1/1 33/1/1 34/1/1
f 35/1/2 36/1/2 37/1/2 38/1/2
f 31/1/3 34/1/3 36/1/3 35/1/3
f 33/1/4 32/1/4 38/1/4 37/1/4
f 31/1/5 35/1/5 38/1/5 32/1/5
f 34/1/6 33/1/6 37/1/6 36/1/6
f 39/1/1 40/1/1 41/1/1 42/1/1
f 43/1/2 44/1/2 45/1/2 46/1/2
f 39/1/3 42/1/3 44/1/3 43/1/3
f 41/1/4 40/1/4 46/1/4 45/1/4
f 39/1/5 43/1/5 46/1/5 40/1/5
f 42/1/6 41/1/6 45/1/6 44/1/6
f 47/1/1 48/1/1 49/1/1 50/1/1
f 51/1/2 52/1/2 53/1/2 54/1/2
f 47/1/3 50/1/3 52/1/3 51/1/3
f 49/1/4 48/1/4 54/1/4 53/1/4
f 47/1/5 51/1/5 54/1/5 48/1/5
f 50/1/6 49/1/6 53/1/6 52/1/6
f 55/2/1 56/2/1 57/2/1 58/2/1 59/2/1 60/2/1
f 61/2/2 62/2/2 63/2/2 64/2/2 65/2/2 66/2/2
f 60/2/7 59/2/7 62/2/7 61/2/7
f 59/2/4 58/2/4 63/2/4 62/2/4
f 58/2/8 57/2/8 64/2/8 63/2/8
f 57/2/9 56/2/9 65/2/9 64/2/9
f 56/2/3 55/2/3 66/2/3 65/2/3
f 55/2/10 60/2/10 61/2/10 66/2/10
f 67/2/7 68/2/7 69/2/7 70/2/7
f 68/2/4 71/2/4 72/2/4 69/2/4
f 71/2/8 73/2/8 74/2/8 72/2/8
f 73/2/9 75/2/9 76/2/9 74/2/9
f 75/2/3 77/2/3 78/2/3 76/2/3
f 77/2/10 67/2/10 70/2/10 78/2/10
f 79/2/2 80/2/2 81/2/2 82/2/2 83/2/2 84/2/2 85/2/2 86/2/2
f 87/2/11 88/2/11 80/2/11 79/2/11
f 88/2/12 89/2/12 81/2/12 80/2/12
f 89/2/13 90/2/13 82/2/13 81/2/13
f 90/2/14 91/2/14 83/2/14 82/2/14
f 91/2/15 92/2/15 84/2/15 83/2/15
f 92/2/16 93/2/16 85/2/16 84/2/16
f 93/2/17 94/2/17 86/2/17 85/2/17
f 94/2/18 87/2/18 79/2/18 86/2/18
f 79/2/19 80/2/19 95/2/19 96/2/19
f 80/2/20 81/2/20 97/2/20 95/2/20
f 81/2/21 82/2/21 98/2/21 97/2/21
f 82/2/22 83/2/22 99/2/22 98/2/22
f 83/2/23 84/2/23 100/2/23 99/2/23
f 84/2/24 85/2/24 101/2/24 100/2/24
f 85/2/25 86/2/25 102/2/25 101/2/25
f 86/2/26 79/2/26 96/2/26 102/2/26
f 102/2/1 101/2/1 100/2/1 99/2/1 98/2/1 97/2/1 95/2/1 96/2/1
f 103/2/1 104/2/1 105/2/1 106/2/1 107/2/1 108/2/1
f 109/2/2 110/2/2 111/2/2 112/2/2 113/2/2 114/2/2
f 108/2/7 107/2/7 110/2/7 109/2/7
f 107/2/4 106/2/4 111/2/4 110/2/4
f 106/2/8 105/2/8 112/2/8 111/2/8
f 105/2/9 104/2/9 113/2/9 112/2/9
f 104/2/3 103/2/3 114/2/3 113/2/3
f 103/2/10 108/2/10 109/2/10 114/2/10
f 115/2/7 116/2/7 117/2/7 118/2/7
f 116/2/4 119/2/4 120/2/4 117/2/4
f 119/2/8 121/2/8 122/2/8 120/2/8
f 121/2/9 123/2/9 124/2/9 122/2/9
f 123/2/3 125/2/3 126/2/3 124/2/3
f 125/2/10 115/2/10 118/2/10 126/2/10
f 127/2/2 128/2/2 129/2/2 130/2/2 131/2/2 132/2/2 133/2/2 134/2/2
f 135/2/11 136/2/11 128/2/11 127/2/11
f 136/2/12 137/2/12 129/2/12 128/2/12
f 137/2/13 138/2/13 130/2/13 129/2/13
f 138/2/14 139/2/14 131/2/14 130/2/14
f 139/2/15 140/2/15 132/2/15 131/2/15
f 140/2/16 141/2/16 133/2/16 132/2/16
f 141/2/17 142/2/17 134/2/17 133/2/17
f 142/2/18 135/2/18 127/2/18 134/2/18
f 127/2/19 128/2/19 143/2/19 144/2/19
f 128/2/20 129/2/20 145/2/20 143/2/20
f 129/2/21 130/2/21 146/2/21 145/2/21
f 130/2/22 131/2/22 147/2/22 146/2/22
f 131/2/23 132/2/23 148/2/23 147/2/23
f 132/2/24 133/2/24 149/2/24 148/2/24
f 133/2/25 134/2/25 150/2/25 149/2/25
f 134/2/26 127/2/26 144/2/26 150/2/26
f 150/2/1 149/2/1 148/2/1 147/2/1 146/2/1 145/2/1 143/2/1 144/2/1
f 151/2/1 152/2/1 153/2/1 154/2/1 155/2/1 156/2/1
f 157/2/2 158/2/2 159/2/2 160/2/2 161/2/2 162/2/2
f 156/2/7 155/2/7 158/2/7 157/2/7
f 155/2/4 154/2/4 159/2/4 158/2/4
f 154/2/8 153/2/8 160/2/8 159/2/8
f 153/2/9 152/2/9 161/2/9 160/2/9
f 152/2/3 151/2/3 162/2/3 161/2/3
f 151/2/10 156/2/10 157/2/10 162/2/10
f 163/2/7 164/2/7 165/2/7 166/2/7
f 164/2/4 167/2/4 168/2/4 165/2/4
f 167/2/8 169/2/8 170/2/8 168/2/8
f 169/2/9 171/2/9 172/2/9 170/2/9
f 171/2/3 173/2/3 174/2/3 172/2/3
f 173/2/10 163/2/10 166/2/10 174/2/10
f 175/2/2 176/2/2 177/2/2 178/2/2 179/2/2 180/2/2 181/2/2 182/2/2
f 183/2/11 184/2/11 176/2/11 175/2/11
f 184/2/12 185/2/12 177/2/12 176/2/12
f 185/2/13 186/2/13 178/2/13 177/2/13
f 186/2/14 187/2/14 179/2/14 178/2/14
f 187/2/15 188/2/15 180/2/15 179/2/15
f 188/2/16 189/2/16 181/2/16 180/2/16
f 189/2/17 190/2/17 182/2/17 181/2/17
f 190/2/18 183/2/18 175/2/18 182/2/18
f 175/2/19 176/2/19 191/2/19 192/2/19
f 176/2/20 177/2/20 193/2/20 191/2/20
f 177/2/21 178/2/21 194/2/21 193/2/21
f 178/2/22 179/2/22 195/2/22 194/2/22
f 179/2/23 180/2/23 196/2/23 195/2/23
f 180/2/24 181/2/24 197/2/24 196/2/24
f 181/2/25 182/2/25 198/2/25 197/2/25
f 182/2/26 175/2/26 192/2/26 198/2/26
f 198/2/1 197/2/1 196/2/1 195/2/1 194/2/1 193/2/1 191/2/1 192/2/1
f 199/2/1 200/2/1 201/2/1 202/2/1 203/2/1 204/2/1
f 205/2/2 206/2/2 207/2/2 208/2/2 209/2/2 210/2/2
f 204/2/7 203/2/7 206/2/7 205/2/7
f 203/2/4 202/2/4 207/2/4 206/2/4
f 202/2/8 201/2/8 208/2/8 207/2/8
f 201/2/9 200/2/9 209/2/9 208/2/9
f 200/2/3 199/2/3 210/2/3 209/2/3
f 199/2/10 204/2/10 205/2/10 210/2/10
f 211/2/7 212/2/7 213/2/7 214/2/7
f 212/2/4 215/2/4 216/2/4 213/2/4
f 215/2/8 217/2/8 218/2/8 216/2/8
f 217/2/9 219/2/9 220/2/9 218/2/9
f 219/2/3 221/2/3 222/2/3 220/2/3
f 221/2/10 211/2/10 214/2/10 222/2/10
f 223/2/2 224/2/2 225/2/2 226/2/2 227/2/2 228/2/2 229/2/2 230/2/2
f 231/2/11 232/2/11 224/2/11 223/2/11
f 232/2/12 233/2/12 225/2/12 224/2/12
f 233/2/13 234/2/13 226/2/13 225/2/13
f 234/2/14 235/2/14 227/2/14 226/2/14
f 235/2/15 236/2/15 228/2/15 227/2/15
f 236/2/16 237/2/16 229/2/16 228/2/16
f 237/2/17 238/2/17 230/2/17 229/2/17
f 238/2/18 231/2/18 223/2/18 230/2/18
f 223/2/19 224/2/19 239/2/19 240/2/19
f 224/2/20 225/2/20 241/2/20 239/2/20
f 225/2/21 226/2/21 242/2/21 241/2/21
f 226/2/22 227/2/22 243/2/22 242/2/22
f 227/2/23 228/2/23 244/2/23 243/2/23
f 228/2/24 229/2/24 245/2/24 244/2/24
f 229/2/25 230/2/25 246/2/25 245/2/25
f 230/2/26 223/2/26 240/2/26 246/2/26
f 246/2/1 245/2/1 244/2/1 243/2/1 242/2/1 241/2/1 239/2/1 240/2/1
