# Blender 5.2.0 LTS
# www.blender.org
mtllib FN_Rack_Dish.mtl
o FN_Rack_Dish
v -0.204000 0.000000 0.154000
v -0.204000 0.000000 -0.154000
v 0.204000 0.000000 -0.154000
v 0.204000 0.000000 0.154000
v -0.204000 0.010000 0.154000
v 0.204000 0.010000 0.154000
v 0.204000 0.010000 -0.154000
v -0.204000 0.010000 -0.154000
v -0.210000 0.006000 0.152000
v -0.210000 0.006000 -0.152000
v -0.196000 0.006000 -0.152000
v -0.196000 0.006000 0.152000
v -0.210000 0.034000 0.152000
v -0.196000 0.034000 0.152000
v -0.196000 0.034000 -0.152000
v -0.210000 0.034000 -0.152000
v 0.196000 0.006000 0.152000
v 0.196000 0.006000 -0.152000
v 0.210000 0.006000 -0.152000
v 0.210000 0.006000 0.152000
v 0.196000 0.034000 0.152000
v 0.210000 0.034000 0.152000
v 0.210000 0.034000 -0.152000
v 0.196000 0.034000 -0.152000
v -0.204000 0.006000 0.160000
v -0.204000 0.006000 0.146000
v 0.204000 0.006000 0.146000
v 0.204000 0.006000 0.160000
v -0.204000 0.034000 0.160000
v 0.204000 0.034000 0.160000
v 0.204000 0.034000 0.146000
v -0.204000 0.034000 0.146000
v -0.204000 0.006000 -0.146000
v -0.204000 0.006000 -0.160000
v 0.204000 0.006000 -0.160000
v 0.204000 0.006000 -0.146000
v -0.204000 0.034000 -0.146000
v 0.204000 0.034000 -0.146000
v 0.204000 0.034000 -0.160000
v -0.204000 0.034000 -0.160000
v -0.205000 0.006000 0.120000
v -0.205000 0.006000 -0.120000
v -0.195000 0.006000 -0.120000
v -0.195000 0.006000 0.120000
v -0.205000 0.120000 0.120000
v -0.195000 0.120000 0.120000
v -0.195000 0.120000 -0.120000
v -0.205000 0.120000 -0.120000
v -0.151000 0.006000 0.120000
v -0.151000 0.006000 -0.120000
v -0.141000 0.006000 -0.120000
v -0.141000 0.006000 0.120000
v -0.151000 0.120000 0.120000
v -0.141000 0.120000 0.120000
v -0.141000 0.120000 -0.120000
v -0.151000 0.120000 -0.120000
v -0.097000 0.006000 0.120000
v -0.097000 0.006000 -0.120000
v -0.087000 0.006000 -0.120000
v -0.087000 0.006000 0.120000
v -0.097000 0.120000 0.120000
v -0.087000 0.120000 0.120000
v -0.087000 0.120000 -0.120000
v -0.097000 0.120000 -0.120000
v -0.043000 0.006000 0.120000
v -0.043000 0.006000 -0.120000
v -0.033000 0.006000 -0.120000
v -0.033000 0.006000 0.120000
v -0.043000 0.120000 0.120000
v -0.033000 0.120000 0.120000
v -0.033000 0.120000 -0.120000
v -0.043000 0.120000 -0.120000
v 0.011000 0.006000 0.120000
v 0.011000 0.006000 -0.120000
v 0.021000 0.006000 -0.120000
v 0.021000 0.006000 0.120000
v 0.011000 0.120000 0.120000
v 0.021000 0.120000 0.120000
v 0.021000 0.120000 -0.120000
v 0.011000 0.120000 -0.120000
v -0.180000 0.033289 -0.070711
v -0.180000 0.004000 0.000000
v -0.180000 0.033289 0.070711
v -0.180000 0.104000 0.100000
v -0.180000 0.174711 0.070711
v -0.180000 0.204000 -0.000000
v -0.180000 0.174711 -0.070711
v -0.180000 0.104000 -0.100000
v -0.166000 0.104000 -0.100000
v -0.166000 0.174711 -0.070711
v -0.166000 0.204000 -0.000000
v -0.166000 0.174711 0.070711
v -0.166000 0.104000 0.100000
v -0.166000 0.033289 0.070711
v -0.166000 0.004000 0.000000
v -0.166000 0.033289 -0.070711
v -0.126000 0.033289 -0.070711
v -0.126000 0.004000 0.000000
v -0.126000 0.033289 0.070711
v -0.126000 0.104000 0.100000
v -0.126000 0.174711 0.070711
v -0.126000 0.204000 -0.000000
v -0.126000 0.174711 -0.070711
v -0.126000 0.104000 -0.100000
v -0.112000 0.104000 -0.100000
v -0.112000 0.174711 -0.070711
v -0.112000 0.204000 -0.000000
v -0.112000 0.174711 0.070711
v -0.112000 0.104000 0.100000
v -0.112000 0.033289 0.070711
v -0.112000 0.004000 0.000000
v -0.112000 0.033289 -0.070711
v -0.072000 0.033289 -0.070711
v -0.072000 0.004000 0.000000
v -0.072000 0.033289 0.070711
v -0.072000 0.104000 0.100000
v -0.072000 0.174711 0.070711
v -0.072000 0.204000 -0.000000
v -0.072000 0.174711 -0.070711
v -0.072000 0.104000 -0.100000
v -0.058000 0.104000 -0.100000
v -0.058000 0.174711 -0.070711
v -0.058000 0.204000 -0.000000
v -0.058000 0.174711 0.070711
v -0.058000 0.104000 0.100000
v -0.058000 0.033289 0.070711
v -0.058000 0.004000 0.000000
v -0.058000 0.033289 -0.070711
v -0.018000 0.033289 -0.070711
v -0.018000 0.004000 0.000000
v -0.018000 0.033289 0.070711
v -0.018000 0.104000 0.100000
v -0.018000 0.174711 0.070711
v -0.018000 0.204000 -0.000000
v -0.018000 0.174711 -0.070711
v -0.018000 0.104000 -0.100000
v -0.004000 0.104000 -0.100000
v -0.004000 0.174711 -0.070711
v -0.004000 0.204000 -0.000000
v -0.004000 0.174711 0.070711
v -0.004000 0.104000 0.100000
v -0.004000 0.033289 0.070711
v -0.004000 0.004000 0.000000
v -0.004000 0.033289 -0.070711
v 0.171820 0.006000 -0.028180
v 0.140000 0.006000 -0.015000
v 0.108180 0.006000 -0.028180
v 0.095000 0.006000 -0.060000
v 0.108180 0.006000 -0.091820
v 0.140000 0.006000 -0.105000
v 0.171820 0.006000 -0.091820
v 0.185000 0.006000 -0.060000
v 0.185000 0.110000 -0.060000
v 0.171820 0.110000 -0.091820
v 0.140000 0.110000 -0.105000
v 0.108180 0.110000 -0.091820
v 0.095000 0.110000 -0.060000
v 0.108180 0.110000 -0.028180
v 0.140000 0.110000 -0.015000
v 0.171820 0.110000 -0.028180
v 0.119000 0.080000 -0.039000
v 0.119000 0.080000 -0.051000
v 0.131000 0.080000 -0.051000
v 0.131000 0.080000 -0.039000
v 0.119000 0.208000 -0.039000
v 0.131000 0.208000 -0.039000
v 0.131000 0.208000 -0.051000
v 0.119000 0.208000 -0.051000
v 0.146000 0.080000 -0.066000
v 0.146000 0.080000 -0.078000
v 0.158000 0.080000 -0.078000
v 0.158000 0.080000 -0.066000
v 0.146000 0.220000 -0.066000
v 0.158000 0.220000 -0.066000
v 0.158000 0.220000 -0.078000
v 0.146000 0.220000 -0.078000
v 0.126000 0.080000 -0.078000
v 0.126000 0.080000 -0.090000
v 0.138000 0.080000 -0.090000
v 0.138000 0.080000 -0.078000
v 0.126000 0.196000 -0.078000
v 0.138000 0.196000 -0.078000
v 0.138000 0.196000 -0.090000
v 0.126000 0.196000 -0.090000
vn -0.0000 -1.0000 -0.0000
vn -0.0000 1.0000 -0.0000
vn -0.0000 -0.0000 1.0000
vn -0.0000 -0.0000 -1.0000
vn -1.0000 -0.0000 -0.0000
vn 1.0000 -0.0000 -0.0000
vn -0.0000 0.3827 -0.9239
vn -0.0000 0.9239 -0.3827
vn -0.0000 0.9239 0.3827
vn -0.0000 0.3827 0.9239
vn -0.0000 -0.3827 0.9239
vn -0.0000 -0.9239 0.3827
vn -0.0000 -0.9239 -0.3827
vn -0.0000 -0.3827 -0.9239
vn 0.9239 -0.0000 -0.3827
vn 0.3827 -0.0000 -0.9239
vn -0.3827 -0.0000 -0.9239
vn -0.9239 -0.0000 -0.3827
vn -0.9239 -0.0000 0.3827
vn -0.3827 -0.0000 0.9239
vn 0.3827 -0.0000 0.9239
vn 0.9239 -0.0000 0.3827
vt 0.687500 0.062500
vt 0.812500 0.312500
vt 0.437500 0.812500
vt 0.062500 0.312500
s 0
usemtl FN_Atlas
f 1/1/1 2/1/1 3/1/1 4/1/1
f 5/1/2 6/1/2 7/1/2 8/1/2
f 1/1/3 4/1/3 6/1/3 5/1/3
f 3/1/4 2/1/4 8/1/4 7/1/4
f 1/1/5 5/1/5 8/1/5 2/1/5
f 4/1/6 3/1/6 7/1/6 6/1/6
f 9/1/1 10/1/1 11/1/1 12/1/1
f 13/1/2 14/1/2 15/1/2 16/1/2
f 9/1/3 12/1/3 14/1/3 13/1/3
f 11/1/4 10/1/4 16/1/4 15/1/4
f 9/1/5 13/1/5 16/1/5 10/1/5
f 12/1/6 11/1/6 15/1/6 14/1/6
f 17/1/1 18/1/1 19/1/1 20/1/1
f 21/1/2 22/1/2 23/1/2 24/1/2
f 17/1/3 20/1/3 22/1/3 21/1/3
f 19/1/4 18/1/4 24/1/4 23/1/4
f 17/1/5 21/1/5 24/1/5 18/1/5
f 20/1/6 19/1/6 23/1/6 22/1/6
f 25/1/1 26/1/1 27/1/1 28/1/1
f 29/1/2 30/1/2 31/1/2 32/1/2
f 25/1/3 28/1/3 30/1/3 29/1/3
f 27/1/4 26/1/4 32/1/4 31/1/4
f 25/1/5 29/1/5 32/1/5 26/1/5
f 28/1/6 27/1/6 31/1/6 30/1/6
f 33/1/1 34/1/1 35/1/1 36/1/1
f 37/1/2 38/1/2 39/1/2 40/1/2
f 33/1/3 36/1/3 38/1/3 37/1/3
f 35/1/4 34/1/4 40/1/4 39/1/4
f 33/1/5 37/1/5 40/1/5 34/1/5
f 36/1/6 35/1/6 39/1/6 38/1/6
f 41/2/1 42/2/1 43/2/1 44/2/1
f 45/2/2 46/2/2 47/2/2 48/2/2
f 41/2/3 44/2/3 46/2/3 45/2/3
f 43/2/4 42/2/4 48/2/4 47/2/4
f 41/2/5 45/2/5 48/2/5 42/2/5
f 44/2/6 43/2/6 47/2/6 46/2/6
f 49/2/1 50/2/1 51/2/1 52/2/1
f 53/2/2 54/2/2 55/2/2 56/2/2
f 49/2/3 52/2/3 54/2/3 53/2/3
f 51/2/4 50/2/4 56/2/4 55/2/4
f 49/2/5 53/2/5 56/2/5 50/2/5
f 52/2/6 51/2/6 55/2/6 54/2/6
f 57/2/1 58/2/1 59/2/1 60/2/1
f 61/2/2 62/2/2 63/2/2 64/2/2
f 57/2/3 60/2/3 62/2/3 61/2/3
f 59/2/4 58/2/4 64/2/4 63/2/4
f 57/2/5 61/2/5 64/2/5 58/2/5
f 60/2/6 59/2/6 63/2/6 62/2/6
f 65/2/1 66/2/1 67/2/1 68/2/1
f 69/2/2 70/2/2 71/2/2 72/2/2
f 65/2/3 68/2/3 70/2/3 69/2/3
f 67/2/4 66/2/4 72/2/4 71/2/4
f 65/2/5 69/2/5 72/2/5 66/2/5
f 68/2/6 67/2/6 71/2/6 70/2/6
f 73/2/1 74/2/1 75/2/1 76/2/1
f 77/2/2 78/2/2 79/2/2 80/2/2
f 73/2/3 76/2/3 78/2/3 77/2/3
f 75/2/4 74/2/4 80/2/4 79/2/4
f 73/2/5 77/2/5 80/2/5 74/2/5
f 76/2/6 75/2/6 79/2/6 78/2/6
f 81/3/5 82/3/5 83/3/5 84/3/5 85/3/5 86/3/5 87/3/5 88/3/5
f 89/3/6 90/3/6 91/3/6 92/3/6 93/3/6 94/3/6 95/3/6 96/3/6
f 88/3/7 87/3/7 90/3/7 89/3/7
f 87/3/8 86/3/8 91/3/8 90/3/8
f 86/3/9 85/3/9 92/3/9 91/3/9
f 85/3/10 84/3/10 93/3/10 92/3/10
f 84/3/11 83/3/11 94/3/11 93/3/11
f 83/3/12 82/3/12 95/3/12 94/3/12
f 82/3/13 81/3/13 96/3/13 95/3/13
f 81/3/14 88/3/14 89/3/14 96/3/14
f 97/3/5 98/3/5 99/3/5 100/3/5 101/3/5 102/3/5 103/3/5 104/3/5
f 105/3/6 106/3/6 107/3/6 108/3/6 109/3/6 110/3/6 111/3/6 112/3/6
f 104/3/7 103/3/7 106/3/7 105/3/7
f 103/3/8 102/3/8 107/3/8 106/3/8
f 102/3/9 101/3/9 108/3/9 107/3/9
f 101/3/10 100/3/10 109/3/10 108/3/10
f 100/3/11 99/3/11 110/3/11 109/3/11
f 99/3/12 98/3/12 111/3/12 110/3/12
f 98/3/13 97/3/13 112/3/13 111/3/13
f 97/3/14 104/3/14 105/3/14 112/3/14
f 113/3/5 114/3/5 115/3/5 116/3/5 117/3/5 118/3/5 119/3/5 120/3/5
f 121/3/6 122/3/6 123/3/6 124/3/6 125/3/6 126/3/6 127/3/6 128/3/6
f 120/3/7 119/3/7 122/3/7 121/3/7
f 119/3/8 118/3/8 123/3/8 122/3/8
f 118/3/9 117/3/9 124/3/9 123/3/9
f 117/3/10 116/3/10 125/3/10 124/3/10
f 116/3/11 115/3/11 126/3/11 125/3/11
f 115/3/12 114/3/12 127/3/12 126/3/12
f 114/3/13 113/3/13 128/3/13 127/3/13
f 113/3/14 120/3/14 121/3/14 128/3/14
f 129/3/5 130/3/5 131/3/5 132/3/5 133/3/5 134/3/5 135/3/5 136/3/5
f 137/3/6 138/3/6 139/3/6 140/3/6 141/3/6 142/3/6 143/3/6 144/3/6
f 136/3/7 135/3/7 138/3/7 137/3/7
f 135/3/8 134/3/8 139/3/8 138/3/8
f 134/3/9 133/3/9 140/3/9 139/3/9
f 133/3/10 132/3/10 141/3/10 140/3/10
f 132/3/11 131/3/11 142/3/11 141/3/11
f 131/3/12 130/3/12 143/3/12 142/3/12
f 130/3/13 129/3/13 144/3/13 143/3/13
f 129/3/14 136/3/14 137/3/14 144/3/14
f 145/2/1 146/2/1 147/2/1 148/2/1 149/2/1 150/2/1 151/2/1 152/2/1
f 153/2/2 154/2/2 155/2/2 156/2/2 157/2/2 158/2/2 159/2/2 160/2/2
f 152/2/15 151/2/15 154/2/15 153/2/15
f 151/2/16 150/2/16 155/2/16 154/2/16
f 150/2/17 149/2/17 156/2/17 155/2/17
f 149/2/18 148/2/18 157/2/18 156/2/18
f 148/2/19 147/2/19 158/2/19 157/2/19
f 147/2/20 146/2/20 159/2/20 158/2/20
f 146/2/21 145/2/21 160/2/21 159/2/21
f 145/2/22 152/2/22 153/2/22 160/2/22
f 161/4/1 162/4/1 163/4/1 164/4/1
f 165/4/2 166/4/2 167/4/2 168/4/2
f 161/4/3 164/4/3 166/4/3 165/4/3
f 163/4/4 162/4/4 168/4/4 167/4/4
f 161/4/5 165/4/5 168/4/5 162/4/5
f 164/4/6 163/4/6 167/4/6 166/4/6
f 169/4/1 170/4/1 171/4/1 172/4/1
f 173/4/2 174/4/2 175/4/2 176/4/2
f 169/4/3 172/4/3 174/4/3 173/4/3
f 171/4/4 170/4/4 176/4/4 175/4/4
f 169/4/5 173/4/5 176/4/5 170/4/5
f 172/4/6 171/4/6 175/4/6 174/4/6
f 177/4/1 178/4/1 179/4/1 180/4/1
f 181/4/2 182/4/2 183/4/2 184/4/2
f 177/4/3 180/4/3 182/4/3 181/4/3
f 179/4/4 178/4/4 184/4/4 183/4/4
f 177/4/5 181/4/5 184/4/5 178/4/5
f 180/4/6 179/4/6 183/4/6 182/4/6
