# Blender 5.2.0 LTS
# www.blender.org
mtllib FN_Sofa_Daybed.mtl
o FN_Sofa_Daybed
v -0.881000 0.000000 0.333000
v -0.839000 0.000000 0.333000
v -0.839000 0.000000 0.375000
v -0.881000 0.000000 0.375000
v -0.890000 0.246000 0.384000
v -0.830000 0.246000 0.384000
v -0.830000 0.246000 0.324000
v -0.890000 0.246000 0.324000
v -0.881000 0.000000 -0.375000
v -0.839000 0.000000 -0.375000
v -0.839000 0.000000 -0.333000
v -0.881000 0.000000 -0.333000
v -0.890000 0.246000 -0.324000
v -0.830000 0.246000 -0.324000
v -0.830000 0.246000 -0.384000
v -0.890000 0.246000 -0.384000
v 0.839000 0.000000 0.333000
v 0.881000 0.000000 0.333000
v 0.881000 0.000000 0.375000
v 0.839000 0.000000 0.375000
v 0.830000 0.246000 0.384000
v 0.890000 0.246000 0.384000
v 0.890000 0.246000 0.324000
v 0.830000 0.246000 0.324000
v 0.839000 0.000000 -0.375000
v 0.881000 0.000000 -0.375000
v 0.881000 0.000000 -0.333000
v 0.839000 0.000000 -0.333000
v 0.830000 0.246000 -0.324000
v 0.890000 0.246000 -0.324000
v 0.890000 0.246000 -0.384000
v 0.830000 0.246000 -0.384000
v -0.950000 0.246000 0.410000
v -0.950000 0.246000 0.388000
v 0.950000 0.246000 0.388000
v 0.950000 0.246000 0.410000
v -0.950000 0.312000 0.410000
v 0.950000 0.312000 0.410000
v 0.950000 0.312000 0.388000
v -0.950000 0.312000 0.388000
v -0.950000 0.246000 -0.388000
v -0.950000 0.246000 -0.410000
v 0.950000 0.246000 -0.410000
v 0.950000 0.246000 -0.388000
v -0.950000 0.312000 -0.388000
v 0.950000 0.312000 -0.388000
v 0.950000 0.312000 -0.410000
v -0.950000 0.312000 -0.410000
v -0.928000 0.246000 -0.410000
v -0.928000 0.246000 0.410000
v -0.928000 0.312000 0.410000
v -0.928000 0.312000 -0.410000
v 0.928000 0.246000 0.410000
v 0.928000 0.246000 -0.410000
v 0.928000 0.312000 0.410000
v 0.928000 0.312000 -0.410000
v -0.930000 0.304000 0.390000
v -0.930000 0.304000 -0.390000
v 0.930000 0.304000 -0.390000
v 0.930000 0.304000 0.390000
v -0.930000 0.318000 0.390000
v 0.930000 0.318000 0.390000
v 0.930000 0.318000 -0.390000
v -0.930000 0.318000 -0.390000
v -0.950000 0.246000 0.326000
v -0.898000 0.246000 0.326000
v -0.898000 0.246000 0.378000
v -0.950000 0.246000 0.378000
v -0.946000 0.700000 0.374000
v -0.902000 0.700000 0.374000
v -0.902000 0.700000 0.330000
v -0.946000 0.700000 0.330000
v -0.950000 0.246000 -0.378000
v -0.898000 0.246000 -0.378000
v -0.898000 0.246000 -0.326000
v -0.950000 0.246000 -0.326000
v -0.946000 0.700000 -0.330000
v -0.902000 0.700000 -0.330000
v -0.902000 0.700000 -0.374000
v -0.946000 0.700000 -0.374000
v -0.936813 0.372000 -0.342003
v -0.911187 0.372000 -0.342003
v -0.911187 0.372000 0.342003
v -0.936813 0.372000 0.342003
v -0.911000 0.377000 0.347000
v -0.937000 0.377000 0.347000
v -0.911000 0.377000 -0.347000
v -0.937000 0.377000 -0.347000
v -0.911000 0.423000 0.347000
v -0.937000 0.423000 0.347000
v -0.911000 0.423000 -0.347000
v -0.937000 0.423000 -0.347000
v -0.936813 0.428000 0.342003
v -0.911187 0.428000 0.342003
v -0.911187 0.428000 -0.342003
v -0.936813 0.428000 -0.342003
v -0.936813 0.452000 -0.342003
v -0.911187 0.452000 -0.342003
v -0.911187 0.452000 0.342003
v -0.936813 0.452000 0.342003
v -0.911000 0.457000 0.347000
v -0.937000 0.457000 0.347000
v -0.911000 0.457000 -0.347000
v -0.937000 0.457000 -0.347000
v -0.911000 0.503000 0.347000
v -0.937000 0.503000 0.347000
v -0.911000 0.503000 -0.347000
v -0.937000 0.503000 -0.347000
v -0.936813 0.508000 0.342003
v -0.911187 0.508000 0.342003
v -0.911187 0.508000 -0.342003
v -0.936813 0.508000 -0.342003
v -0.936813 0.532000 -0.342003
v -0.911187 0.532000 -0.342003
v -0.911187 0.532000 0.342003
v -0.936813 0.532000 0.342003
v -0.911000 0.537000 0.347000
v -0.937000 0.537000 0.347000
v -0.911000 0.537000 -0.347000
v -0.937000 0.537000 -0.347000
v -0.911000 0.583000 0.347000
v -0.937000 0.583000 0.347000
v -0.911000 0.583000 -0.347000
v -0.937000 0.583000 -0.347000
v -0.936813 0.588000 0.342003
v -0.911187 0.588000 0.342003
v -0.911187 0.588000 -0.342003
v -0.936813 0.588000 -0.342003
v -0.936813 0.612000 -0.342003
v -0.911187 0.612000 -0.342003
v -0.911187 0.612000 0.342003
v -0.936813 0.612000 0.342003
v -0.911000 0.617000 0.347000
v -0.937000 0.617000 0.347000
v -0.911000 0.617000 -0.347000
v -0.937000 0.617000 -0.347000
v -0.911000 0.663000 0.347000
v -0.937000 0.663000 0.347000
v -0.911000 0.663000 -0.347000
v -0.937000 0.663000 -0.347000
v -0.936813 0.668000 0.342003
v -0.911187 0.668000 0.342003
v -0.911187 0.668000 -0.342003
v -0.936813 0.668000 -0.342003
v -0.949588 0.670000 -0.372014
v -0.898412 0.670000 -0.372014
v -0.898412 0.670000 0.372014
v -0.949588 0.670000 0.372014
v -0.898000 0.676000 0.378000
v -0.950000 0.676000 0.378000
v -0.898000 0.676000 -0.378000
v -0.950000 0.676000 -0.378000
v -0.898000 0.694000 0.378000
v -0.950000 0.694000 0.378000
v -0.898000 0.694000 -0.378000
v -0.950000 0.694000 -0.378000
v -0.949588 0.700000 0.372014
v -0.898412 0.700000 0.372014
v -0.898412 0.700000 -0.372014
v -0.949588 0.700000 -0.372014
v -0.890000 0.246000 -0.410000
v -0.838000 0.246000 -0.410000
v -0.838000 0.246000 -0.358000
v -0.890000 0.246000 -0.358000
v -0.886000 0.548000 -0.362000
v -0.842000 0.548000 -0.362000
v -0.842000 0.548000 -0.406000
v -0.886000 0.548000 -0.406000
v 0.838000 0.246000 -0.410000
v 0.890000 0.246000 -0.410000
v 0.890000 0.246000 -0.358000
v 0.838000 0.246000 -0.358000
v 0.842000 0.548000 -0.362000
v 0.886000 0.548000 -0.362000
v 0.886000 0.548000 -0.406000
v 0.842000 0.548000 -0.406000
v -0.854001 0.352000 -0.396924
v 0.854001 0.352000 -0.396924
v 0.854001 0.352000 -0.371076
v -0.854001 0.352000 -0.371076
v 0.859000 0.357000 -0.371000
v -0.859000 0.357000 -0.371000
v 0.859000 0.357000 -0.397000
v -0.859000 0.357000 -0.397000
v 0.859000 0.399000 -0.371000
v -0.859000 0.399000 -0.371000
v 0.859000 0.399000 -0.397000
v -0.859000 0.399000 -0.397000
v -0.854001 0.404000 -0.371076
v 0.854001 0.404000 -0.371076
v 0.854001 0.404000 -0.396924
v -0.854001 0.404000 -0.396924
v -0.854001 0.424000 -0.396924
v 0.854001 0.424000 -0.396924
v 0.854001 0.424000 -0.371076
v -0.854001 0.424000 -0.371076
v 0.859000 0.429000 -0.371000
v -0.859000 0.429000 -0.371000
v 0.859000 0.429000 -0.397000
v -0.859000 0.429000 -0.397000
v 0.859000 0.471000 -0.371000
v -0.859000 0.471000 -0.371000
v 0.859000 0.471000 -0.397000
v -0.859000 0.471000 -0.397000
v -0.854001 0.476000 -0.371076
v 0.854001 0.476000 -0.371076
v 0.854001 0.476000 -0.396924
v -0.854001 0.476000 -0.396924
v -0.854001 0.496000 -0.396924
v 0.854001 0.496000 -0.396924
v 0.854001 0.496000 -0.371076
v -0.854001 0.496000 -0.371076
v 0.859000 0.501000 -0.371000
v -0.859000 0.501000 -0.371000
v 0.859000 0.501000 -0.397000
v -0.859000 0.501000 -0.397000
v 0.859000 0.543000 -0.371000
v -0.859000 0.543000 -0.371000
v 0.859000 0.543000 -0.397000
v -0.859000 0.543000 -0.397000
v -0.854001 0.548000 -0.371076
v 0.854001 0.548000 -0.371076
v 0.854001 0.548000 -0.396924
v -0.854001 0.548000 -0.396924
v -0.884003 0.520000 -0.409825
v 0.884003 0.520000 -0.409825
v 0.884003 0.520000 -0.358175
v -0.884003 0.520000 -0.358175
v 0.890000 0.526000 -0.358000
v -0.890000 0.526000 -0.358000
v 0.890000 0.526000 -0.410000
v -0.890000 0.526000 -0.410000
v 0.890000 0.542000 -0.358000
v -0.890000 0.542000 -0.358000
v 0.890000 0.542000 -0.410000
v -0.890000 0.542000 -0.410000
v -0.884003 0.548000 -0.358175
v 0.884003 0.548000 -0.358175
v 0.884003 0.548000 -0.409825
v -0.884003 0.548000 -0.409825
v -0.839120 0.314000 0.376733
v -0.864821 0.314000 0.369846
v -0.883635 0.314000 0.351032
v -0.890522 0.314000 0.325331
v -0.890522 0.314000 -0.305331
v -0.883635 0.314000 -0.331032
v -0.864821 0.314000 -0.349846
v -0.839120 0.314000 -0.356733
v 0.859120 0.314000 -0.356733
v 0.884821 0.314000 -0.349846
v 0.903635 0.314000 -0.331032
v 0.910522 0.314000 -0.305331
v 0.910522 0.314000 0.325331
v 0.903635 0.314000 0.351032
v 0.884821 0.314000 0.369846
v 0.859120 0.314000 0.376733
v 0.895000 0.325000 0.374033
v 0.869000 0.325000 0.381000
v 0.914033 0.325000 0.355000
v 0.921000 0.325000 0.329000
v 0.921000 0.325000 -0.309000
v 0.914033 0.325000 -0.335000
v 0.895000 0.325000 -0.354033
v 0.869000 0.325000 -0.361000
v -0.849000 0.325000 -0.361000
v -0.875000 0.325000 -0.354033
v -0.894033 0.325000 -0.335000
v -0.901000 0.325000 -0.309000
v -0.901000 0.325000 0.329000
v -0.894033 0.325000 0.355000
v -0.875000 0.325000 0.374033
v -0.849000 0.325000 0.381000
v 0.895000 0.404000 0.374033
v 0.869000 0.404000 0.381000
v 0.914033 0.404000 0.355000
v 0.921000 0.404000 0.329000
v 0.921000 0.404000 -0.309000
v 0.914033 0.404000 -0.335000
v 0.895000 0.404000 -0.354033
v 0.869000 0.404000 -0.361000
v -0.849000 0.404000 -0.361000
v -0.875000 0.404000 -0.354033
v -0.894033 0.404000 -0.335000
v -0.901000 0.404000 -0.309000
v -0.901000 0.404000 0.329000
v -0.894033 0.404000 0.355000
v -0.875000 0.404000 0.374033
v -0.849000 0.404000 0.381000
v 0.848881 0.420000 0.372311
v 0.874272 0.420000 0.365507
v 0.892859 0.420000 0.346920
v 0.899663 0.420000 0.321528
v 0.899663 0.420000 -0.301528
v 0.892859 0.420000 -0.326919
v 0.874272 0.420000 -0.345507
v 0.848881 0.420000 -0.352311
v -0.828881 0.420000 -0.352311
v -0.854272 0.420000 -0.345507
v -0.872859 0.420000 -0.326919
v -0.879663 0.420000 -0.301528
v -0.879663 0.420000 0.321528
v -0.872859 0.420000 0.346920
v -0.854272 0.420000 0.365507
v -0.828881 0.420000 0.372311
v -0.764284 0.412000 0.314675
v -0.806177 0.412000 0.303450
v -0.836845 0.412000 0.272782
v -0.848070 0.412000 0.230890
v -0.848070 0.412000 -0.210890
v -0.836845 0.412000 -0.252782
v -0.806177 0.412000 -0.283450
v -0.764284 0.412000 -0.294675
v -0.755715 0.412000 -0.294675
v -0.713823 0.412000 -0.283450
v -0.683155 0.412000 -0.252782
v -0.671930 0.412000 -0.210890
v -0.671930 0.412000 0.230890
v -0.683155 0.412000 0.272782
v -0.713823 0.412000 0.303450
v -0.755715 0.412000 0.314675
v -0.711500 0.426000 0.318210
v -0.755500 0.426000 0.330000
v -0.679290 0.426000 0.286000
v -0.667500 0.426000 0.242000
v -0.667500 0.426000 -0.222000
v -0.679290 0.426000 -0.266000
v -0.711500 0.426000 -0.298210
v -0.755500 0.426000 -0.310000
v -0.764500 0.426000 -0.310000
v -0.808500 0.426000 -0.298210
v -0.840710 0.426000 -0.266000
v -0.852500 0.426000 -0.222000
v -0.852500 0.426000 0.242000
v -0.840710 0.426000 0.286000
v -0.808500 0.426000 0.318210
v -0.764500 0.426000 0.330000
v -0.711500 0.504000 0.318210
v -0.755500 0.504000 0.330000
v -0.679290 0.504000 0.286000
v -0.667500 0.504000 0.242000
v -0.667500 0.504000 -0.222000
v -0.679290 0.504000 -0.266000
v -0.711500 0.504000 -0.298210
v -0.755500 0.504000 -0.310000
v -0.764500 0.504000 -0.310000
v -0.808500 0.504000 -0.298210
v -0.840710 0.504000 -0.266000
v -0.852500 0.504000 -0.222000
v -0.852500 0.504000 0.242000
v -0.840710 0.504000 0.286000
v -0.808500 0.504000 0.318210
v -0.764500 0.504000 0.330000
v -0.756146 0.534000 0.284026
v -0.718468 0.534000 0.273930
v -0.690885 0.534000 0.246347
v -0.680789 0.534000 0.208669
v -0.680789 0.534000 -0.188669
v -0.690885 0.534000 -0.226347
v -0.718468 0.534000 -0.253930
v -0.756146 0.534000 -0.264026
v -0.763853 0.534000 -0.264026
v -0.801532 0.534000 -0.253930
v -0.829115 0.534000 -0.226347
v -0.839211 0.534000 -0.188669
v -0.839211 0.534000 0.208669
v -0.829115 0.534000 0.246347
v -0.801532 0.534000 0.273930
v -0.763853 0.534000 0.284026
v -0.390428 0.414000 -0.288186
v -0.410099 0.414000 -0.293457
v -0.424500 0.414000 -0.307857
v -0.429771 0.414000 -0.327529
v -0.429771 0.414000 -0.336471
v -0.424500 0.414000 -0.356143
v -0.410099 0.414000 -0.370543
v -0.390428 0.414000 -0.375814
v -0.245572 0.414000 -0.375814
v -0.225901 0.414000 -0.370543
v -0.211500 0.414000 -0.356143
v -0.206229 0.414000 -0.336471
v -0.206229 0.414000 -0.327529
v -0.211500 0.414000 -0.307857
v -0.225901 0.414000 -0.293457
v -0.245572 0.414000 -0.288186
v -0.215000 0.426000 -0.288895
v -0.237000 0.426000 -0.283000
v -0.198895 0.426000 -0.305000
v -0.193000 0.426000 -0.327000
v -0.193000 0.426000 -0.337000
v -0.198895 0.426000 -0.359000
v -0.215000 0.426000 -0.375105
v -0.237000 0.426000 -0.381000
v -0.399000 0.426000 -0.381000
v -0.421000 0.426000 -0.375105
v -0.437105 0.426000 -0.359000
v -0.443000 0.426000 -0.337000
v -0.443000 0.426000 -0.327000
v -0.437105 0.426000 -0.305000
v -0.421000 0.426000 -0.288895
v -0.399000 0.426000 -0.283000
v -0.215000 0.576000 -0.288895
v -0.237000 0.576000 -0.283000
v -0.198895 0.576000 -0.305000
v -0.193000 0.576000 -0.327000
v -0.193000 0.576000 -0.337000
v -0.198895 0.576000 -0.359000
v -0.215000 0.576000 -0.375105
v -0.237000 0.576000 -0.381000
v -0.399000 0.576000 -0.381000
v -0.421000 0.576000 -0.375105
v -0.437105 0.576000 -0.359000
v -0.443000 0.576000 -0.337000
v -0.443000 0.576000 -0.327000
v -0.437105 0.576000 -0.305000
v -0.421000 0.576000 -0.288895
v -0.399000 0.576000 -0.283000
v -0.263003 0.602000 -0.298730
v -0.248065 0.602000 -0.302733
v -0.237130 0.602000 -0.313668
v -0.233128 0.602000 -0.328605
v -0.233128 0.602000 -0.335395
v -0.237130 0.602000 -0.350332
v -0.248065 0.602000 -0.361267
v -0.263003 0.602000 -0.365270
v -0.372997 0.602000 -0.365270
v -0.387935 0.602000 -0.361267
v -0.398870 0.602000 -0.350332
v -0.402872 0.602000 -0.335395
v -0.402872 0.602000 -0.328605
v -0.398870 0.602000 -0.313668
v -0.387935 0.602000 -0.302733
v -0.372997 0.602000 -0.298730
v 0.165572 0.414000 -0.288186
v 0.145901 0.414000 -0.293457
v 0.131500 0.414000 -0.307857
v 0.126229 0.414000 -0.327529
v 0.126229 0.414000 -0.336471
v 0.131500 0.414000 -0.356143
v 0.145901 0.414000 -0.370543
v 0.165572 0.414000 -0.375814
v 0.310428 0.414000 -0.375814
v 0.330099 0.414000 -0.370543
v 0.344500 0.414000 -0.356143
v 0.349771 0.414000 -0.336471
v 0.349771 0.414000 -0.327529
v 0.344500 0.414000 -0.307857
v 0.330099 0.414000 -0.293457
v 0.310428 0.414000 -0.288186
v 0.341000 0.426000 -0.288895
v 0.319000 0.426000 -0.283000
v 0.357105 0.426000 -0.305000
v 0.363000 0.426000 -0.327000
v 0.363000 0.426000 -0.337000
v 0.357105 0.426000 -0.359000
v 0.341000 0.426000 -0.375105
v 0.319000 0.426000 -0.381000
v 0.157000 0.426000 -0.381000
v 0.135000 0.426000 -0.375105
v 0.118895 0.426000 -0.359000
v 0.113000 0.426000 -0.337000
v 0.113000 0.426000 -0.327000
v 0.118895 0.426000 -0.305000
v 0.135000 0.426000 -0.288895
v 0.157000 0.426000 -0.283000
v 0.341000 0.576000 -0.288895
v 0.319000 0.576000 -0.283000
v 0.357105 0.576000 -0.305000
v 0.363000 0.576000 -0.327000
v 0.363000 0.576000 -0.337000
v 0.357105 0.576000 -0.359000
v 0.341000 0.576000 -0.375105
v 0.319000 0.576000 -0.381000
v 0.157000 0.576000 -0.381000
v 0.135000 0.576000 -0.375105
v 0.118895 0.576000 -0.359000
v 0.113000 0.576000 -0.337000
v 0.113000 0.576000 -0.327000
v 0.118895 0.576000 -0.305000
v 0.135000 0.576000 -0.288895
v 0.157000 0.576000 -0.283000
v 0.292997 0.602000 -0.298730
v 0.307935 0.602000 -0.302733
v 0.318870 0.602000 -0.313668
v 0.322872 0.602000 -0.328605
v 0.322872 0.602000 -0.335395
v 0.318870 0.602000 -0.350332
v 0.307935 0.602000 -0.361267
v 0.292997 0.602000 -0.365270
v 0.183003 0.602000 -0.365270
v 0.168065 0.602000 -0.361267
v 0.157130 0.602000 -0.350332
v 0.153128 0.602000 -0.335395
v 0.153128 0.602000 -0.328605
v 0.157130 0.602000 -0.313668
v 0.168065 0.602000 -0.302733
v 0.183003 0.602000 -0.298730
vn -0.0000 -1.0000 -0.0000
vn -0.0000 1.0000 -0.0000
vn -0.0000 -0.0366 0.9993
vn 0.9993 -0.0366 -0.0000
vn -0.0000 -0.0366 -0.9993
vn -0.9993 -0.0366 -0.0000
vn -0.0000 -0.0000 1.0000
vn -0.0000 -0.0000 -1.0000
vn -1.0000 -0.0000 -0.0000
vn 1.0000 -0.0000 -0.0000
vn -0.0000 0.0088 1.0000
vn 1.0000 0.0088 -0.0000
vn -0.0000 0.0088 -1.0000
vn -1.0000 0.0088 -0.0000
vn -0.0000 -0.7069 0.7074
vn 0.9993 -0.0374 -0.0000
vn -0.0000 -0.7069 -0.7074
vn -0.9993 -0.0374 -0.0000
vn -0.0000 0.7069 0.7074
vn 0.9993 0.0374 -0.0000
vn -0.0000 0.7069 -0.7074
vn -0.9993 0.0374 -0.0000
vn -0.0000 -0.7063 0.7079
vn 0.9977 -0.0685 -0.0000
vn -0.0000 -0.7063 -0.7079
vn -0.9977 -0.0685 -0.0000
vn -0.0000 0.7063 0.7079
vn 0.9977 0.0685 -0.0000
vn -0.0000 0.7063 -0.7079
vn -0.9977 0.0685 -0.0000
vn -0.0000 0.0132 0.9999
vn 0.9999 0.0132 -0.0000
vn -0.0000 0.0132 -0.9999
vn -0.9999 0.0132 -0.0000
vn -0.0000 -0.0151 0.9999
vn 0.7071 -0.7071 -0.0000
vn -0.0000 -0.0151 -0.9999
vn -0.7071 -0.7071 -0.0000
vn -0.0000 0.0151 0.9999
vn 0.7071 0.7071 -0.0000
vn -0.0000 0.0151 -0.9999
vn -0.7071 0.7071 -0.0000
vn -0.0000 -0.0292 0.9996
vn 0.7073 -0.7070 -0.0000
vn -0.0000 -0.0292 -0.9996
vn -0.7073 -0.7070 -0.0000
vn -0.0000 0.0292 0.9996
vn 0.7073 0.7070 -0.0000
vn -0.0000 0.0292 -0.9996
vn -0.7073 0.7070 -0.0000
vn 0.2212 -0.5190 0.8256
vn 0.5195 -0.6784 0.5195
vn 0.6808 -0.7094 0.1824
vn 0.7241 -0.6897 -0.0000
vn 0.6808 -0.7094 -0.1824
vn 0.5195 -0.6784 -0.5195
vn 0.2212 -0.5190 -0.8257
vn -0.0000 -0.3617 -0.9323
vn -0.2212 -0.5190 -0.8257
vn -0.5195 -0.6784 -0.5195
vn -0.6808 -0.7094 -0.1824
vn -0.7241 -0.6897 -0.0000
vn -0.6808 -0.7094 0.1824
vn -0.5195 -0.6784 0.5195
vn -0.2212 -0.5190 0.8257
vn -0.0000 -0.3617 0.9323
vn 0.2588 -0.0000 0.9659
vn 0.7071 -0.0000 0.7071
vn 0.9659 -0.0000 0.2588
vn 0.9659 -0.0000 -0.2588
vn 0.7071 -0.0000 -0.7071
vn 0.2588 -0.0000 -0.9659
vn -0.2588 -0.0000 -0.9659
vn -0.7071 -0.0000 -0.7071
vn -0.9659 -0.0000 -0.2588
vn -0.9659 -0.0000 0.2588
vn -0.7071 -0.0000 0.7071
vn -0.2588 -0.0000 0.9659
vn 0.1972 0.6477 0.7360
vn 0.4326 0.7910 0.4326
vn 0.5591 0.8155 0.1498
vn 0.5999 0.8001 -0.0000
vn 0.5591 0.8155 -0.1498
vn 0.4326 0.7910 -0.4326
vn 0.1972 0.6477 -0.7360
vn -0.0000 0.4772 -0.8788
vn -0.1972 0.6477 -0.7360
vn -0.4326 0.7910 -0.4326
vn -0.5591 0.8155 -0.1498
vn -0.5999 0.8001 -0.0000
vn -0.5591 0.8155 0.1498
vn -0.4326 0.7910 0.4326
vn -0.1972 0.6477 0.7360
vn -0.0000 0.4773 0.8788
vn 0.1775 -0.7278 0.6624
vn 0.5354 -0.6533 0.5354
vn 0.8601 -0.4551 0.2305
vn 0.9534 -0.3017 -0.0000
vn 0.8601 -0.4551 -0.2305
vn 0.5354 -0.6533 -0.5354
vn 0.1775 -0.7278 -0.6624
vn -0.0000 -0.7383 -0.6745
vn -0.1775 -0.7278 -0.6624
vn -0.5354 -0.6533 -0.5354
vn -0.8601 -0.4551 -0.2305
vn -0.9534 -0.3017 -0.0000
vn -0.8601 -0.4551 0.2305
vn -0.5354 -0.6533 0.5354
vn -0.1775 -0.7278 0.6624
vn -0.0000 -0.7383 0.6745
vn 0.1445 0.8296 0.5393
vn 0.4509 0.7703 0.4509
vn 0.7856 0.5819 0.2105
vn 0.9143 0.4050 -0.0000
vn 0.7856 0.5819 -0.2105
vn 0.4509 0.7703 -0.4509
vn 0.1445 0.8296 -0.5393
vn -0.0000 0.8375 -0.5465
vn -0.1445 0.8296 -0.5393
vn -0.4509 0.7703 -0.4509
vn -0.7856 0.5819 -0.2105
vn -0.9143 0.4050 -0.0000
vn -0.7856 0.5819 0.2105
vn -0.4509 0.7703 0.4509
vn -0.1445 0.8296 0.5393
vn -0.0000 0.8375 0.5465
vn 0.2217 -0.5160 0.8274
vn 0.5227 -0.6735 0.5227
vn 0.6575 -0.7326 0.1762
vn 0.6719 -0.7407 -0.0000
vn 0.6575 -0.7326 -0.1762
vn 0.5227 -0.6735 -0.5227
vn 0.2217 -0.5160 -0.8274
vn -0.0000 -0.3967 -0.9180
vn -0.2217 -0.5159 -0.8274
vn -0.5227 -0.6735 -0.5227
vn -0.6575 -0.7326 -0.1762
vn -0.6719 -0.7407 -0.0000
vn -0.6575 -0.7326 0.1762
vn -0.5227 -0.6735 0.5227
vn -0.2217 -0.5160 0.8274
vn -0.0000 -0.3967 0.9180
vn 0.1979 0.6446 0.7384
vn 0.4363 0.7870 0.4363
vn 0.5341 0.8332 0.1431
vn 0.5438 0.8392 -0.0000
vn 0.5341 0.8332 -0.1431
vn 0.4363 0.7870 -0.4363
vn 0.1979 0.6446 -0.7384
vn -0.0000 0.5176 -0.8556
vn -0.1979 0.6446 -0.7384
vn -0.4363 0.7870 -0.4363
vn -0.5341 0.8332 -0.1431
vn -0.5438 0.8392 -0.0000
vn -0.5341 0.8332 0.1431
vn -0.4363 0.7870 0.4363
vn -0.1979 0.6446 0.7384
vn -0.0000 0.5176 0.8556
vt 0.687500 0.937500
vt 0.812500 0.937500
vt 0.312500 0.562500
vt 0.312500 0.687500
s 0
usemtl FN_Atlas
f 1/1/1 2/1/1 3/1/1 4/1/1
f 5/1/2 6/1/2 7/1/2 8/1/2
f 4/1/3 3/1/3 6/1/3 5/1/3
f 3/1/4 2/1/4 7/1/4 6/1/4
f 2/1/5 1/1/5 8/1/5 7/1/5
f 1/1/6 4/1/6 5/1/6 8/1/6
f 9/1/1 10/1/1 11/1/1 12/1/1
f 13/1/2 14/1/2 15/1/2 16/1/2
f 12/1/3 11/1/3 14/1/3 13/1/3
f 11/1/4 10/1/4 15/1/4 14/1/4
f 10/1/5 9/1/5 16/1/5 15/1/5
f 9/1/6 12/1/6 13/1/6 16/1/6
f 17/1/1 18/1/1 19/1/1 20/1/1
f 21/1/2 22/1/2 23/1/2 24/1/2
f 20/1/3 19/1/3 22/1/3 21/1/3
f 19/1/4 18/1/4 23/1/4 22/1/4
f 18/1/5 17/1/5 24/1/5 23/1/5
f 17/1/6 20/1/6 21/1/6 24/1/6
f 25/1/1 26/1/1 27/1/1 28/1/1
f 29/1/2 30/1/2 31/1/2 32/1/2
f 28/1/3 27/1/3 30/1/3 29/1/3
f 27/1/4 26/1/4 31/1/4 30/1/4
f 26/1/5 25/1/5 32/1/5 31/1/5
f 25/1/6 28/1/6 29/1/6 32/1/6
f 33/1/1 34/1/1 35/1/1 36/1/1
f 37/1/2 38/1/2 39/1/2 40/1/2
f 33/2/7 36/2/7 38/2/7 37/2/7
f 35/2/8 34/2/8 40/2/8 39/2/8
f 33/1/9 37/1/9 40/1/9 34/1/9
f 36/1/10 35/1/10 39/1/10 38/1/10
f 41/1/1 42/1/1 43/1/1 44/1/1
f 45/1/2 46/1/2 47/1/2 48/1/2
f 41/2/7 44/2/7 46/2/7 45/2/7
f 43/2/8 42/2/8 48/2/8 47/2/8
f 41/1/9 45/1/9 48/1/9 42/1/9
f 44/1/10 43/1/10 47/1/10 46/1/10
f 33/1/1 42/1/1 49/1/1 50/1/1
f 37/1/2 51/1/2 52/1/2 48/1/2
f 33/1/7 50/1/7 51/1/7 37/1/7
f 49/1/8 42/1/8 48/1/8 52/1/8
f 33/2/9 37/2/9 48/2/9 42/2/9
f 50/2/10 49/2/10 52/2/10 51/2/10
f 53/1/1 54/1/1 43/1/1 36/1/1
f 55/1/2 38/1/2 47/1/2 56/1/2
f 53/1/7 36/1/7 38/1/7 55/1/7
f 43/1/8 54/1/8 56/1/8 47/1/8
f 53/2/9 55/2/9 56/2/9 54/2/9
f 36/2/10 43/2/10 47/2/10 38/2/10
f 57/2/1 58/2/1 59/2/1 60/2/1
f 61/2/2 62/2/2 63/2/2 64/2/2
f 57/2/7 60/2/7 62/2/7 61/2/7
f 59/2/8 58/2/8 64/2/8 63/2/8
f 57/2/9 61/2/9 64/2/9 58/2/9
f 60/2/10 59/2/10 63/2/10 62/2/10
f 65/1/1 66/1/1 67/1/1 68/1/1
f 69/1/2 70/1/2 71/1/2 72/1/2
f 68/1/11 67/1/11 70/1/11 69/1/11
f 67/1/12 66/1/12 71/1/12 70/1/12
f 66/1/13 65/1/13 72/1/13 71/1/13
f 65/1/14 68/1/14 69/1/14 72/1/14
f 73/1/1 74/1/1 75/1/1 76/1/1
f 77/1/2 78/1/2 79/1/2 80/1/2
f 76/1/11 75/1/11 78/1/11 77/1/11
f 75/1/12 74/1/12 79/1/12 78/1/12
f 74/1/13 73/1/13 80/1/13 79/1/13
f 73/1/14 76/1/14 77/1/14 80/1/14
f 81/2/1 82/2/1 83/2/1 84/2/1
f 84/2/15 83/2/15 85/2/15 86/2/15
f 83/2/16 82/2/16 87/2/16 85/2/16
f 82/2/17 81/2/17 88/2/17 87/2/17
f 81/2/18 84/2/18 86/2/18 88/2/18
f 86/2/7 85/2/7 89/2/7 90/2/7
f 85/2/10 87/2/10 91/2/10 89/2/10
f 87/2/8 88/2/8 92/2/8 91/2/8
f 88/2/9 86/2/9 90/2/9 92/2/9
f 93/1/2 94/1/2 95/1/2 96/1/2
f 90/2/19 89/2/19 94/2/19 93/2/19
f 89/2/20 91/2/20 95/2/20 94/2/20
f 91/2/21 92/2/21 96/2/21 95/2/21
f 92/2/22 90/2/22 93/2/22 96/2/22
f 97/2/1 98/2/1 99/2/1 100/2/1
f 100/2/15 99/2/15 101/2/15 102/2/15
f 99/2/16 98/2/16 103/2/16 101/2/16
f 98/2/17 97/2/17 104/2/17 103/2/17
f 97/2/18 100/2/18 102/2/18 104/2/18
f 102/2/7 101/2/7 105/2/7 106/2/7
f 101/2/10 103/2/10 107/2/10 105/2/10
f 103/2/8 104/2/8 108/2/8 107/2/8
f 104/2/9 102/2/9 106/2/9 108/2/9
f 109/1/2 110/1/2 111/1/2 112/1/2
f 106/2/19 105/2/19 110/2/19 109/2/19
f 105/2/20 107/2/20 111/2/20 110/2/20
f 107/2/21 108/2/21 112/2/21 111/2/21
f 108/2/22 106/2/22 109/2/22 112/2/22
f 113/2/1 114/2/1 115/2/1 116/2/1
f 116/2/15 115/2/15 117/2/15 118/2/15
f 115/2/16 114/2/16 119/2/16 117/2/16
f 114/2/17 113/2/17 120/2/17 119/2/17
f 113/2/18 116/2/18 118/2/18 120/2/18
f 118/2/7 117/2/7 121/2/7 122/2/7
f 117/2/10 119/2/10 123/2/10 121/2/10
f 119/2/8 120/2/8 124/2/8 123/2/8
f 120/2/9 118/2/9 122/2/9 124/2/9
f 125/1/2 126/1/2 127/1/2 128/1/2
f 122/2/19 121/2/19 126/2/19 125/2/19
f 121/2/20 123/2/20 127/2/20 126/2/20
f 123/2/21 124/2/21 128/2/21 127/2/21
f 124/2/22 122/2/22 125/2/22 128/2/22
f 129/2/1 130/2/1 131/2/1 132/2/1
f 132/2/15 131/2/15 133/2/15 134/2/15
f 131/2/16 130/2/16 135/2/16 133/2/16
f 130/2/17 129/2/17 136/2/17 135/2/17
f 129/2/18 132/2/18 134/2/18 136/2/18
f 134/2/7 133/2/7 137/2/7 138/2/7
f 133/2/10 135/2/10 139/2/10 137/2/10
f 135/2/8 136/2/8 140/2/8 139/2/8
f 136/2/9 134/2/9 138/2/9 140/2/9
f 141/1/2 142/1/2 143/1/2 144/1/2
f 138/2/19 137/2/19 142/2/19 141/2/19
f 137/2/20 139/2/20 143/2/20 142/2/20
f 139/2/21 140/2/21 144/2/21 143/2/21
f 140/2/22 138/2/22 141/2/22 144/2/22
f 145/2/1 146/2/1 147/2/1 148/2/1
f 148/2/23 147/2/23 149/2/23 150/2/23
f 147/2/24 146/2/24 151/2/24 149/2/24
f 146/2/25 145/2/25 152/2/25 151/2/25
f 145/2/26 148/2/26 150/2/26 152/2/26
f 150/2/7 149/2/7 153/2/7 154/2/7
f 149/2/10 151/2/10 155/2/10 153/2/10
f 151/2/8 152/2/8 156/2/8 155/2/8
f 152/2/9 150/2/9 154/2/9 156/2/9
f 157/1/2 158/1/2 159/1/2 160/1/2
f 154/2/27 153/2/27 158/2/27 157/2/27
f 153/2/28 155/2/28 159/2/28 158/2/28
f 155/2/29 156/2/29 160/2/29 159/2/29
f 156/2/30 154/2/30 157/2/30 160/2/30
f 161/1/1 162/1/1 163/1/1 164/1/1
f 165/1/2 166/1/2 167/1/2 168/1/2
f 164/1/31 163/1/31 166/1/31 165/1/31
f 163/1/32 162/1/32 167/1/32 166/1/32
f 162/1/33 161/1/33 168/1/33 167/1/33
f 161/1/34 164/1/34 165/1/34 168/1/34
f 169/1/1 170/1/1 171/1/1 172/1/1
f 173/1/2 174/1/2 175/1/2 176/1/2
f 172/1/31 171/1/31 174/1/31 173/1/31
f 171/1/32 170/1/32 175/1/32 174/1/32
f 170/1/33 169/1/33 176/1/33 175/1/33
f 169/1/34 172/1/34 173/1/34 176/1/34
f 177/2/1 178/2/1 179/2/1 180/2/1
f 180/2/35 179/2/35 181/2/35 182/2/35
f 179/2/36 178/2/36 183/2/36 181/2/36
f 178/2/37 177/2/37 184/2/37 183/2/37
f 177/2/38 180/2/38 182/2/38 184/2/38
f 182/2/7 181/2/7 185/2/7 186/2/7
f 181/2/10 183/2/10 187/2/10 185/2/10
f 183/2/8 184/2/8 188/2/8 187/2/8
f 184/2/9 182/2/9 186/2/9 188/2/9
f 189/1/2 190/1/2 191/1/2 192/1/2
f 186/2/39 185/2/39 190/2/39 189/2/39
f 185/2/40 187/2/40 191/2/40 190/2/40
f 187/2/41 188/2/41 192/2/41 191/2/41
f 188/2/42 186/2/42 189/2/42 192/2/42
f 193/2/1 194/2/1 195/2/1 196/2/1
f 196/2/35 195/2/35 197/2/35 198/2/35
f 195/2/36 194/2/36 199/2/36 197/2/36
f 194/2/37 193/2/37 200/2/37 199/2/37
f 193/2/38 196/2/38 198/2/38 200/2/38
f 198/2/7 197/2/7 201/2/7 202/2/7
f 197/2/10 199/2/10 203/2/10 201/2/10
f 199/2/8 200/2/8 204/2/8 203/2/8
f 200/2/9 198/2/9 202/2/9 204/2/9
f 205/1/2 206/1/2 207/1/2 208/1/2
f 202/2/39 201/2/39 206/2/39 205/2/39
f 201/2/40 203/2/40 207/2/40 206/2/40
f 203/2/41 204/2/41 208/2/41 207/2/41
f 204/2/42 202/2/42 205/2/42 208/2/42
f 209/2/1 210/2/1 211/2/1 212/2/1
f 212/2/35 211/2/35 213/2/35 214/2/35
f 211/2/36 210/2/36 215/2/36 213/2/36
f 210/2/37 209/2/37 216/2/37 215/2/37
f 209/2/38 212/2/38 214/2/38 216/2/38
f 214/2/7 213/2/7 217/2/7 218/2/7
f 213/2/10 215/2/10 219/2/10 217/2/10
f 215/2/8 216/2/8 220/2/8 219/2/8
f 216/2/9 214/2/9 218/2/9 220/2/9
f 221/1/2 222/1/2 223/1/2 224/1/2
f 218/2/39 217/2/39 222/2/39 221/2/39
f 217/2/40 219/2/40 223/2/40 222/2/40
f 219/2/41 220/2/41 224/2/41 223/2/41
f 220/2/42 218/2/42 221/2/42 224/2/42
f 225/2/1 226/2/1 227/2/1 228/2/1
f 228/2/43 227/2/43 229/2/43 230/2/43
f 227/2/44 226/2/44 231/2/44 229/2/44
f 226/2/45 225/2/45 232/2/45 231/2/45
f 225/2/46 228/2/46 230/2/46 232/2/46
f 230/2/7 229/2/7 233/2/7 234/2/7
f 229/2/10 231/2/10 235/2/10 233/2/10
f 231/2/8 232/2/8 236/2/8 235/2/8
f 232/2/9 230/2/9 234/2/9 236/2/9
f 237/1/2 238/1/2 239/1/2 240/1/2
f 234/2/47 233/2/47 238/2/47 237/2/47
f 233/2/48 235/2/48 239/2/48 238/2/48
f 235/2/49 236/2/49 240/2/49 239/2/49
f 236/2/50 234/2/50 237/2/50 240/2/50
f 241/3/1 242/3/1 243/3/1 244/3/1 245/3/1 246/3/1 247/3/1 248/3/1 249/3/1 250/3/1 251/3/1 252/3/1 253/3/1 254/3/1 255/3/1 256/3/1
f 256/3/51 255/3/51 257/3/51 258/3/51
f 255/3/52 254/3/52 259/3/52 257/3/52
f 254/3/53 253/3/53 260/3/53 259/3/53
f 253/3/54 252/3/54 261/3/54 260/3/54
f 252/3/55 251/3/55 262/3/55 261/3/55
f 251/3/56 250/3/56 263/3/56 262/3/56
f 250/3/57 249/3/57 264/3/57 263/3/57
f 249/3/58 248/3/58 265/3/58 264/3/58
f 248/3/59 247/3/59 266/3/59 265/3/59
f 247/3/60 246/3/60 267/3/60 266/3/60
f 246/3/61 245/3/61 268/3/61 267/3/61
f 245/3/62 244/3/62 269/3/62 268/3/62
f 244/3/63 243/3/63 270/3/63 269/3/63
f 243/3/64 242/3/64 271/3/64 270/3/64
f 242/3/65 241/3/65 272/3/65 271/3/65
f 241/3/66 256/3/66 258/3/66 272/3/66
f 258/3/67 257/3/67 273/3/67 274/3/67
f 257/3/68 259/3/68 275/3/68 273/3/68
f 259/3/69 260/3/69 276/3/69 275/3/69
f 260/3/10 261/3/10 277/3/10 276/3/10
f 261/3/70 262/3/70 278/3/70 277/3/70
f 262/3/71 263/3/71 279/3/71 278/3/71
f 263/3/72 264/3/72 280/3/72 279/3/72
f 264/3/8 265/3/8 281/3/8 280/3/8
f 265/3/73 266/3/73 282/3/73 281/3/73
f 266/3/74 267/3/74 283/3/74 282/3/74
f 267/3/75 268/3/75 284/3/75 283/3/75
f 268/3/9 269/3/9 285/3/9 284/3/9
f 269/3/76 270/3/76 286/3/76 285/3/76
f 270/3/77 271/3/77 287/3/77 286/3/77
f 271/3/78 272/3/78 288/3/78 287/3/78
f 272/3/7 258/3/7 274/3/7 288/3/7
f 289/3/2 290/3/2 291/3/2 292/3/2 293/3/2 294/3/2 295/3/2 296/3/2 297/3/2 298/3/2 299/3/2 300/3/2 301/3/2 302/3/2 303/3/2 304/3/2
f 274/3/79 273/3/79 290/3/79 289/3/79
f 273/3/80 275/3/80 291/3/80 290/3/80
f 275/3/81 276/3/81 292/3/81 291/3/81
f 276/3/82 277/3/82 293/3/82 292/3/82
f 277/3/83 278/3/83 294/3/83 293/3/83
f 278/3/84 279/3/84 295/3/84 294/3/84
f 279/3/85 280/3/85 296/3/85 295/3/85
f 280/3/86 281/3/86 297/3/86 296/3/86
f 281/3/87 282/3/87 298/3/87 297/3/87
f 282/3/88 283/3/88 299/3/88 298/3/88
f 283/3/89 284/3/89 300/3/89 299/3/89
f 284/3/90 285/3/90 301/3/90 300/3/90
f 285/3/91 286/3/91 302/3/91 301/3/91
f 286/3/92 287/3/92 303/3/92 302/3/92
f 287/3/93 288/3/93 304/3/93 303/3/93
f 288/3/94 274/3/94 289/3/94 304/3/94
f 305/4/1 306/4/1 307/4/1 308/4/1 309/4/1 310/4/1 311/4/1 312/4/1 313/4/1 314/4/1 315/4/1 316/4/1 317/4/1 318/4/1 319/4/1 320/4/1
f 320/4/95 319/4/95 321/4/95 322/4/95
f 319/4/96 318/4/96 323/4/96 321/4/96
f 318/4/97 317/4/97 324/4/97 323/4/97
f 317/4/98 316/4/98 325/4/98 324/4/98
f 316/4/99 315/4/99 326/4/99 325/4/99
f 315/4/100 314/4/100 327/4/100 326/4/100
f 314/4/101 313/4/101 328/4/101 327/4/101
f 313/4/102 312/4/102 329/4/102 328/4/102
f 312/4/103 311/4/103 330/4/103 329/4/103
f 311/4/104 310/4/104 331/4/104 330/4/104
f 310/4/105 309/4/105 332/4/105 331/4/105
f 309/4/106 308/4/106 333/4/106 332/4/106
f 308/4/107 307/4/107 334/4/107 333/4/107
f 307/4/108 306/4/108 335/4/108 334/4/108
f 306/4/109 305/4/109 336/4/109 335/4/109
f 305/4/110 320/4/110 322/4/110 336/4/110
f 322/4/67 321/4/67 337/4/67 338/4/67
f 321/4/68 323/4/68 339/4/68 337/4/68
f 323/4/69 324/4/69 340/4/69 339/4/69
f 324/4/10 325/4/10 341/4/10 340/4/10
f 325/4/70 326/4/70 342/4/70 341/4/70
f 326/4/71 327/4/71 343/4/71 342/4/71
f 327/4/72 328/4/72 344/4/72 343/4/72
f 328/4/8 329/4/8 345/4/8 344/4/8
f 329/4/73 330/4/73 346/4/73 345/4/73
f 330/4/74 331/4/74 347/4/74 346/4/74
f 331/4/75 332/4/75 348/4/75 347/4/75
f 332/4/9 333/4/9 349/4/9 348/4/9
f 333/4/76 334/4/76 350/4/76 349/4/76
f 334/4/77 335/4/77 351/4/77 350/4/77
f 335/4/78 336/4/78 352/4/78 351/4/78
f 336/4/7 322/4/7 338/4/7 352/4/7
f 353/4/2 354/4/2 355/4/2 356/4/2 357/4/2 358/4/2 359/4/2 360/4/2 361/4/2 362/4/2 363/4/2 364/4/2 365/4/2 366/4/2 367/4/2 368/4/2
f 338/4/111 337/4/111 354/4/111 353/4/111
f 337/4/112 339/4/112 355/4/112 354/4/112
f 339/4/113 340/4/113 356/4/113 355/4/113
f 340/4/114 341/4/114 357/4/114 356/4/114
f 341/4/115 342/4/115 358/4/115 357/4/115
f 342/4/116 343/4/116 359/4/116 358/4/116
f 343/4/117 344/4/117 360/4/117 359/4/117
f 344/4/118 345/4/118 361/4/118 360/4/118
f 345/4/119 346/4/119 362/4/119 361/4/119
f 346/4/120 347/4/120 363/4/120 362/4/120
f 347/4/121 348/4/121 364/4/121 363/4/121
f 348/4/122 349/4/122 365/4/122 364/4/122
f 349/4/123 350/4/123 366/4/123 365/4/123
f 350/4/124 351/4/124 367/4/124 366/4/124
f 351/4/125 352/4/125 368/4/125 367/4/125
f 352/4/126 338/4/126 353/4/126 368/4/126
f 369/4/1 370/4/1 371/4/1 372/4/1 373/4/1 374/4/1 375/4/1 376/4/1 377/4/1 378/4/1 379/4/1 380/4/1 381/4/1 382/4/1 383/4/1 384/4/1
f 384/4/127 383/4/127 385/4/127 386/4/127
f 383/4/128 382/4/128 387/4/128 385/4/128
f 382/4/129 381/4/129 388/4/129 387/4/129
f 381/4/130 380/4/130 389/4/130 388/4/130
f 380/4/131 379/4/131 390/4/131 389/4/131
f 379/4/132 378/4/132 391/4/132 390/4/132
f 378/4/133 377/4/133 392/4/133 391/4/133
f 377/4/134 376/4/134 393/4/134 392/4/134
f 376/4/135 375/4/135 394/4/135 393/4/135
f 375/4/136 374/4/136 395/4/136 394/4/136
f 374/4/137 373/4/137 396/4/137 395/4/137
f 373/4/138 372/4/138 397/4/138 396/4/138
f 372/4/139 371/4/139 398/4/139 397/4/139
f 371/4/140 370/4/140 399/4/140 398/4/140
f 370/4/141 369/4/141 400/4/141 399/4/141
f 369/4/142 384/4/142 386/4/142 400/4/142
f 386/4/67 385/4/67 401/4/67 402/4/67
f 385/4/68 387/4/68 403/4/68 401/4/68
f 387/4/69 388/4/69 404/4/69 403/4/69
f 388/4/10 389/4/10 405/4/10 404/4/10
f 389/4/70 390/4/70 406/4/70 405/4/70
f 390/4/71 391/4/71 407/4/71 406/4/71
f 391/4/72 392/4/72 408/4/72 407/4/72
f 392/4/8 393/4/8 409/4/8 408/4/8
f 393/4/73 394/4/73 410/4/73 409/4/73
f 394/4/74 395/4/74 411/4/74 410/4/74
f 395/4/75 396/4/75 412/4/75 411/4/75
f 396/4/9 397/4/9 413/4/9 412/4/9
f 397/4/76 398/4/76 414/4/76 413/4/76
f 398/4/77 399/4/77 415/4/77 414/4/77
f 399/4/78 400/4/78 416/4/78 415/4/78
f 400/4/7 386/4/7 402/4/7 416/4/7
f 417/4/2 418/4/2 419/4/2 420/4/2 421/4/2 422/4/2 423/4/2 424/4/2 425/4/2 426/4/2 427/4/2 428/4/2 429/4/2 430/4/2 431/4/2 432/4/2
f 402/4/143 401/4/143 418/4/143 417/4/143
f 401/4/144 403/4/144 419/4/144 418/4/144
f 403/4/145 404/4/145 420/4/145 419/4/145
f 404/4/146 405/4/146 421/4/146 420/4/146
f 405/4/147 406/4/147 422/4/147 421/4/147
f 406/4/148 407/4/148 423/4/148 422/4/148
f 407/4/149 408/4/149 424/4/149 423/4/149
f 408/4/150 409/4/150 425/4/150 424/4/150
f 409/4/151 410/4/151 426/4/151 425/4/151
f 410/4/152 411/4/152 427/4/152 426/4/152
f 411/4/153 412/4/153 428/4/153 427/4/153
f 412/4/154 413/4/154 429/4/154 428/4/154
f 413/4/155 414/4/155 430/4/155 429/4/155
f 414/4/156 415/4/156 431/4/156 430/4/156
f 415/4/157 416/4/157 432/4/157 431/4/157
f 416/4/158 402/4/158 417/4/158 432/4/158
f 433/4/1 434/4/1 435/4/1 436/4/1 437/4/1 438/4/1 439/4/1 440/4/1 441/4/1 442/4/1 443/4/1 444/4/1 445/4/1 446/4/1 447/4/1 448/4/1
f 448/4/127 447/4/127 449/4/127 450/4/127
f 447/4/128 446/4/128 451/4/128 449/4/128
f 446/4/129 445/4/129 452/4/129 451/4/129
f 445/4/130 444/4/130 453/4/130 452/4/130
f 444/4/131 443/4/131 454/4/131 453/4/131
f 443/4/132 442/4/132 455/4/132 454/4/132
f 442/4/133 441/4/133 456/4/133 455/4/133
f 441/4/134 440/4/134 457/4/134 456/4/134
f 440/4/135 439/4/135 458/4/135 457/4/135
f 439/4/136 438/4/136 459/4/136 458/4/136
f 438/4/137 437/4/137 460/4/137 459/4/137
f 437/4/138 436/4/138 461/4/138 460/4/138
f 436/4/139 435/4/139 462/4/139 461/4/139
f 435/4/140 434/4/140 463/4/140 462/4/140
f 434/4/141 433/4/141 464/4/141 463/4/141
f 433/4/142 448/4/142 450/4/142 464/4/142
f 450/4/67 449/4/67 465/4/67 466/4/67
f 449/4/68 451/4/68 467/4/68 465/4/68
f 451/4/69 452/4/69 468/4/69 467/4/69
f 452/4/10 453/4/10 469/4/10 468/4/10
f 453/4/70 454/4/70 470/4/70 469/4/70
f 454/4/71 455/4/71 471/4/71 470/4/71
f 455/4/72 456/4/72 472/4/72 471/4/72
f 456/4/8 457/4/8 473/4/8 472/4/8
f 457/4/73 458/4/73 474/4/73 473/4/73
f 458/4/74 459/4/74 475/4/74 474/4/74
f 459/4/75 460/4/75 476/4/75 475/4/75
f 460/4/9 461/4/9 477/4/9 476/4/9
f 461/4/76 462/4/76 478/4/76 477/4/76
f 462/4/77 463/4/77 479/4/77 478/4/77
f 463/4/78 464/4/78 480/4/78 479/4/78
f 464/4/7 450/4/7 466/4/7 480/4/7
f 481/4/2 482/4/2 483/4/2 484/4/2 485/4/2 486/4/2 487/4/2 488/4/2 489/4/2 490/4/2 491/4/2 492/4/2 493/4/2 494/4/2 495/4/2 496/4/2
f 466/4/143 465/4/143 482/4/143 481/4/143
f 465/4/144 467/4/144 483/4/144 482/4/144
f 467/4/145 468/4/145 484/4/145 483/4/145
f 468/4/146 469/4/146 485/4/146 484/4/146
f 469/4/147 470/4/147 486/4/147 485/4/147
f 470/4/148 471/4/148 487/4/148 486/4/148
f 471/4/149 472/4/149 488/4/149 487/4/149
f 472/4/150 473/4/150 489/4/150 488/4/150
f 473/4/151 474/4/151 490/4/151 489/4/151
f 474/4/152 475/4/152 491/4/152 490/4/152
f 475/4/153 476/4/153 492/4/153 491/4/153
f 476/4/154 477/4/154 493/4/154 492/4/154
f 477/4/155 478/4/155 494/4/155 493/4/155
f 478/4/156 479/4/156 495/4/156 494/4/156
f 479/4/157 480/4/157 496/4/157 495/4/157
f 480/4/158 466/4/158 481/4/158 496/4/158
