# Blender 5.2.0 LTS
# www.blender.org
mtllib FN_Sofa_Bed.mtl
o FN_Sofa_Bed
v -0.900000 0.000000 0.115000
v -0.900000 0.000000 0.035000
v -0.820000 0.000000 0.035000
v -0.820000 0.000000 0.115000
v -0.900000 0.070000 0.115000
v -0.820000 0.070000 0.115000
v -0.820000 0.070000 0.035000
v -0.900000 0.070000 0.035000
v -0.900000 0.000000 -0.645000
v -0.900000 0.000000 -0.725000
v -0.820000 0.000000 -0.725000
v -0.820000 0.000000 -0.645000
v -0.900000 0.070000 -0.645000
v -0.820000 0.070000 -0.645000
v -0.820000 0.070000 -0.725000
v -0.900000 0.070000 -0.725000
v 0.820000 0.000000 0.115000
v 0.820000 0.000000 0.035000
v 0.900000 0.000000 0.035000
v 0.900000 0.000000 0.115000
v 0.820000 0.070000 0.115000
v 0.900000 0.070000 0.115000
v 0.900000 0.070000 0.035000
v 0.820000 0.070000 0.035000
v 0.820000 0.000000 -0.645000
v 0.820000 0.000000 -0.725000
v 0.900000 0.000000 -0.725000
v 0.900000 0.000000 -0.645000
v 0.820000 0.070000 -0.645000
v 0.900000 0.070000 -0.645000
v 0.900000 0.070000 -0.725000
v 0.820000 0.070000 -0.725000
v -0.940000 0.060000 0.135000
v -0.940000 0.060000 -0.745000
v 0.940000 0.060000 -0.745000
v 0.940000 0.060000 0.135000
v -0.940000 0.180000 0.135000
v 0.940000 0.180000 0.135000
v 0.940000 0.180000 -0.745000
v -0.940000 0.180000 -0.745000
v -0.950000 0.160000 0.145000
v -0.950000 0.160000 -0.755000
v -0.870000 0.160000 -0.755000
v -0.870000 0.160000 0.145000
v -0.950000 0.640000 0.145000
v -0.870000 0.640000 0.145000
v -0.870000 0.640000 -0.755000
v -0.950000 0.640000 -0.755000
v 0.870000 0.160000 0.145000
v 0.870000 0.160000 -0.755000
v 0.950000 0.160000 -0.755000
v 0.950000 0.160000 0.145000
v 0.870000 0.640000 0.145000
v 0.950000 0.640000 0.145000
v 0.950000 0.640000 -0.755000
v 0.870000 0.640000 -0.755000
v -0.938000 0.160000 -0.667000
v -0.938000 0.160000 -0.747000
v 0.938000 0.160000 -0.747000
v 0.938000 0.160000 -0.667000
v -0.938000 0.820000 -0.667000
v 0.938000 0.820000 -0.667000
v 0.938000 0.820000 -0.747000
v -0.938000 0.820000 -0.747000
v -0.900000 0.170000 0.135000
v -0.900000 0.170000 -0.685000
v 0.900000 0.170000 -0.685000
v 0.900000 0.170000 0.135000
v -0.900000 0.430000 0.135000
v 0.900000 0.430000 0.135000
v 0.900000 0.430000 -0.685000
v -0.900000 0.430000 -0.685000
v -0.860000 0.420000 0.135000
v -0.860000 0.420000 -0.481000
v 0.860000 0.420000 -0.481000
v 0.860000 0.420000 0.135000
v -0.860000 0.520000 0.135000
v 0.860000 0.520000 0.135000
v 0.860000 0.520000 -0.481000
v -0.860000 0.520000 -0.481000
v -0.860000 0.420000 0.755000
v -0.860000 0.420000 0.145000
v 0.860000 0.420000 0.145000
v 0.860000 0.420000 0.755000
v -0.860000 0.520000 0.755000
v 0.860000 0.520000 0.755000
v 0.860000 0.520000 0.145000
v -0.860000 0.520000 0.145000
v -0.860000 0.412000 0.157000
v -0.860000 0.412000 0.123000
v 0.860000 0.412000 0.123000
v 0.860000 0.412000 0.157000
v -0.860000 0.432000 0.157000
v 0.860000 0.432000 0.157000
v 0.860000 0.432000 0.123000
v -0.860000 0.432000 0.123000
v -0.725000 0.440000 0.685000
v -0.725000 0.440000 0.635000
v -0.725000 0.000000 0.635000
v -0.725000 0.000000 0.685000
v -0.675000 0.000000 0.685000
v -0.675000 0.000000 0.635000
v -0.675000 0.440000 0.635000
v -0.675000 0.440000 0.685000
v 0.675000 0.440000 0.685000
v 0.675000 0.440000 0.635000
v 0.675000 0.000000 0.635000
v 0.675000 0.000000 0.685000
v 0.725000 0.000000 0.685000
v 0.725000 0.000000 0.635000
v 0.725000 0.440000 0.635000
v 0.725000 0.440000 0.685000
v -0.700000 0.120000 0.680000
v -0.700000 0.120000 0.640000
v 0.700000 0.120000 0.640000
v 0.700000 0.120000 0.680000
v -0.700000 0.170000 0.680000
v 0.700000 0.170000 0.680000
v 0.700000 0.170000 0.640000
v -0.700000 0.170000 0.640000
v -0.850000 0.500000 -0.485000
v -0.850000 0.500000 -0.677000
v -0.020000 0.500000 -0.677000
v -0.020000 0.500000 -0.485000
v -0.850000 0.780000 -0.485000
v -0.020000 0.780000 -0.485000
v -0.020000 0.780000 -0.677000
v -0.850000 0.780000 -0.677000
v 0.020000 0.500000 -0.485000
v 0.020000 0.500000 -0.677000
v 0.850000 0.500000 -0.677000
v 0.850000 0.500000 -0.485000
v 0.020000 0.780000 -0.485000
v 0.850000 0.780000 -0.485000
v 0.850000 0.780000 -0.677000
v 0.020000 0.780000 -0.677000
vn -0.0000 -1.0000 -0.0000
vn -0.0000 1.0000 -0.0000
vn -0.0000 -0.0000 1.0000
vn -0.0000 -0.0000 -1.0000
vn -1.0000 -0.0000 -0.0000
vn 1.0000 -0.0000 -0.0000
vt 0.812500 0.687500
vt 0.562500 0.687500
vt 0.812500 0.312500
s 0
usemtl FN_Atlas
f 1/1/1 2/1/1 3/1/1 4/1/1
f 5/1/2 6/1/2 7/1/2 8/1/2
f 1/1/3 4/1/3 6/1/3 5/1/3
f 3/1/4 2/1/4 8/1/4 7/1/4
f 1/1/5 5/1/5 8/1/5 2/1/5
f 4/1/6 3/1/6 7/1/6 6/1/6
f 9/1/1 10/1/1 11/1/1 12/1/1
f 13/1/2 14/1/2 15/1/2 16/1/2
f 9/1/3 12/1/3 14/1/3 13/1/3
f 11/1/4 10/1/4 16/1/4 15/1/4
f 9/1/5 13/1/5 16/1/5 10/1/5
f 12/1/6 11/1/6 15/1/6 14/1/6
f 17/1/1 18/1/1 19/1/1 20/1/1
f 21/1/2 22/1/2 23/1/2 24/1/2
f 17/1/3 20/1/3 22/1/3 21/1/3
f 19/1/4 18/1/4 24/1/4 23/1/4
f 17/1/5 21/1/5 24/1/5 18/1/5
f 20/1/6 19/1/6 23/1/6 22/1/6
f 25/1/1 26/1/1 27/1/1 28/1/1
f 29/1/2 30/1/2 31/1/2 32/1/2
f 25/1/3 28/1/3 30/1/3 29/1/3
f 27/1/4 26/1/4 32/1/4 31/1/4
f 25/1/5 29/1/5 32/1/5 26/1/5
f 28/1/6 27/1/6 31/1/6 30/1/6
f 33/1/1 34/1/1 35/1/1 36/1/1
f 37/1/2 38/1/2 39/1/2 40/1/2
f 33/1/3 36/1/3 38/1/3 37/1/3
f 35/1/4 34/1/4 40/1/4 39/1/4
f 33/1/5 37/1/5 40/1/5 34/1/5
f 36/1/6 35/1/6 39/1/6 38/1/6
f 41/1/1 42/1/1 43/1/1 44/1/1
f 45/1/2 46/1/2 47/1/2 48/1/2
f 41/1/3 44/1/3 46/1/3 45/1/3
f 43/1/4 42/1/4 48/1/4 47/1/4
f 41/1/5 45/1/5 48/1/5 42/1/5
f 44/1/6 43/1/6 47/1/6 46/1/6
f 49/1/1 50/1/1 51/1/1 52/1/1
f 53/1/2 54/1/2 55/1/2 56/1/2
f 49/1/3 52/1/3 54/1/3 53/1/3
f 51/1/4 50/1/4 56/1/4 55/1/4
f 49/1/5 53/1/5 56/1/5 50/1/5
f 52/1/6 51/1/6 55/1/6 54/1/6
f 57/1/1 58/1/1 59/1/1 60/1/1
f 61/1/2 62/1/2 63/1/2 64/1/2
f 57/1/3 60/1/3 62/1/3 61/1/3
f 59/1/4 58/1/4 64/1/4 63/1/4
f 57/1/5 61/1/5 64/1/5 58/1/5
f 60/1/6 59/1/6 63/1/6 62/1/6
f 65/1/1 66/1/1 67/1/1 68/1/1
f 69/1/2 70/1/2 71/1/2 72/1/2
f 65/1/3 68/1/3 70/1/3 69/1/3
f 67/1/4 66/1/4 72/1/4 71/1/4
f 65/1/5 69/1/5 72/1/5 66/1/5
f 68/1/6 67/1/6 71/1/6 70/1/6
f 73/2/1 74/2/1 75/2/1 76/2/1
f 77/2/2 78/2/2 79/2/2 80/2/2
f 73/2/3 76/2/3 78/2/3 77/2/3
f 75/2/4 74/2/4 80/2/4 79/2/4
f 73/2/5 77/2/5 80/2/5 74/2/5
f 76/2/6 75/2/6 79/2/6 78/2/6
f 81/2/1 82/2/1 83/2/1 84/2/1
f 85/2/2 86/2/2 87/2/2 88/2/2
f 81/2/3 84/2/3 86/2/3 85/2/3
f 83/2/4 82/2/4 88/2/4 87/2/4
f 81/2/5 85/2/5 88/2/5 82/2/5
f 84/2/6 83/2/6 87/2/6 86/2/6
f 89/3/1 90/3/1 91/3/1 92/3/1
f 93/3/2 94/3/2 95/3/2 96/3/2
f 89/3/3 92/3/3 94/3/3 93/3/3
f 91/3/4 90/3/4 96/3/4 95/3/4
f 89/3/5 93/3/5 96/3/5 90/3/5
f 92/3/6 91/3/6 95/3/6 94/3/6
f 97/3/5 98/3/5 99/3/5 100/3/5
f 101/3/6 102/3/6 103/3/6 104/3/6
f 100/3/1 99/3/1 102/3/1 101/3/1
f 99/3/4 98/3/4 103/3/4 102/3/4
f 98/3/2 97/3/2 104/3/2 103/3/2
f 97/3/3 100/3/3 101/3/3 104/3/3
f 105/3/5 106/3/5 107/3/5 108/3/5
f 109/3/6 110/3/6 111/3/6 112/3/6
f 108/3/1 107/3/1 110/3/1 109/3/1
f 107/3/4 106/3/4 111/3/4 110/3/4
f 106/3/2 105/3/2 112/3/2 111/3/2
f 105/3/3 108/3/3 109/3/3 112/3/3
f 113/3/1 114/3/1 115/3/1 116/3/1
f 117/3/2 118/3/2 119/3/2 120/3/2
f 113/3/3 116/3/3 118/3/3 117/3/3
f 115/3/4 114/3/4 120/3/4 119/3/4
f 113/3/5 117/3/5 120/3/5 114/3/5
f 116/3/6 115/3/6 119/3/6 118/3/6
f 121/2/1 122/2/1 123/2/1 124/2/1
f 125/2/2 126/2/2 127/2/2 128/2/2
f 121/2/3 124/2/3 126/2/3 125/2/3
f 123/2/4 122/2/4 128/2/4 127/2/4
f 121/2/5 125/2/5 128/2/5 122/2/5
f 124/2/6 123/2/6 127/2/6 126/2/6
f 129/2/1 130/2/1 131/2/1 132/2/1
f 133/2/2 134/2/2 135/2/2 136/2/2
f 129/2/3 132/2/3 134/2/3 133/2/3
f 131/2/4 130/2/4 136/2/4 135/2/4
f 129/2/5 133/2/5 136/2/5 130/2/5
f 132/2/6 131/2/6 135/2/6 134/2/6
