# Blender 5.2.0 LTS
# www.blender.org
mtllib FN_Set_Fire_Irons.mtl
o FN_Set_Fire_Irons
v 0.102655 0.000000 0.043591
v 0.062392 0.000000 0.083854
v 0.007392 0.000000 0.098591
v -0.047608 0.000000 0.083854
v -0.087870 0.000000 0.043591
v -0.102608 0.000000 -0.011409
v -0.087870 0.000000 -0.066409
v -0.047608 0.000000 -0.106671
v 0.007392 0.000000 -0.121409
v 0.062392 0.000000 -0.106671
v 0.102655 0.000000 -0.066409
v 0.117392 0.000000 -0.011409
v 0.117392 0.018000 -0.011409
v 0.102655 0.018000 -0.066409
v 0.062392 0.018000 -0.106671
v 0.007392 0.018000 -0.121409
v -0.047608 0.018000 -0.106671
v -0.087870 0.018000 -0.066409
v -0.102608 0.018000 -0.011409
v -0.087870 0.018000 0.043591
v -0.047608 0.018000 0.083854
v 0.007392 0.018000 0.098591
v 0.062392 0.018000 0.083854
v 0.102655 0.018000 0.043591
v 0.015392 0.018000 -0.067552
v -0.000608 0.018000 -0.067552
v -0.008608 0.018000 -0.081409
v -0.000608 0.018000 -0.095265
v 0.015392 0.018000 -0.095265
v 0.023392 0.018000 -0.081409
v 0.023392 0.640000 -0.081409
v 0.015392 0.640000 -0.095265
v -0.000608 0.640000 -0.095265
v -0.008608 0.640000 -0.081409
v -0.000608 0.640000 -0.067552
v 0.015392 0.640000 -0.067552
v 0.019392 0.640000 -0.060624
v -0.004608 0.640000 -0.060624
v -0.016608 0.640000 -0.081409
v -0.004608 0.640000 -0.102193
v 0.019392 0.640000 -0.102193
v 0.031392 0.640000 -0.081409
v 0.031392 0.680000 -0.081409
v 0.019392 0.680000 -0.102193
v -0.004608 0.680000 -0.102193
v -0.016608 0.680000 -0.081409
v -0.004608 0.680000 -0.060624
v 0.019392 0.680000 -0.060624
v 0.085392 0.580000 -0.011409
v 0.062547 0.580000 -0.066563
v 0.062547 0.596000 -0.066563
v 0.085392 0.596000 -0.011409
v 0.007392 0.580000 -0.089409
v 0.007392 0.596000 -0.089409
v -0.047762 0.580000 -0.066563
v -0.047762 0.596000 -0.066563
v -0.070608 0.580000 -0.011409
v -0.070608 0.596000 -0.011409
v -0.047762 0.580000 0.043746
v -0.047762 0.596000 0.043746
v 0.007392 0.580000 0.066591
v 0.007392 0.596000 0.066591
v 0.062547 0.580000 0.043746
v 0.062547 0.596000 0.043746
v 0.065392 0.596000 -0.011409
v 0.048405 0.596000 -0.052421
v 0.048405 0.580000 -0.052421
v 0.065392 0.580000 -0.011409
v 0.007392 0.596000 -0.069409
v 0.007392 0.580000 -0.069409
v -0.033620 0.596000 -0.052421
v -0.033620 0.580000 -0.052421
v -0.050608 0.596000 -0.011409
v -0.050608 0.580000 -0.011409
v -0.033620 0.596000 0.029604
v -0.033620 0.580000 0.029604
v 0.007392 0.596000 0.046591
v 0.007392 0.580000 0.046591
v 0.048405 0.596000 0.029604
v 0.048405 0.580000 0.029604
v -0.059395 0.014000 -0.001795
v -0.074850 0.014000 0.002346
v -0.052634 0.700000 -0.003607
v -0.037179 0.700000 -0.007748
v -0.033038 0.700000 0.007707
v -0.048493 0.700000 0.011848
v -0.070709 0.014000 0.017801
v -0.055254 0.014000 0.013660
v -0.037265 0.610000 -0.011866
v -0.060447 0.610000 -0.005654
v -0.057533 0.700000 -0.006435
v -0.034350 0.700000 -0.012647
v -0.028139 0.700000 0.010535
v -0.051321 0.700000 0.016747
v -0.054236 0.610000 0.017528
v -0.031053 0.610000 0.011316
v -0.046427 0.018000 -0.038399
v -0.133360 0.018000 -0.015105
v -0.133360 0.032000 -0.015105
v -0.046427 0.032000 -0.038399
v -0.025721 0.032000 0.038875
v -0.112655 0.032000 0.062169
v -0.112655 0.018000 0.062169
v -0.025721 0.018000 0.038875
v -0.017676 0.014000 0.051238
v -0.021817 0.014000 0.066693
v -0.015864 0.700000 0.044476
v -0.011723 0.700000 0.029022
v 0.003732 0.700000 0.033163
v -0.000409 0.700000 0.048617
v -0.006362 0.014000 0.070834
v -0.002221 0.014000 0.055379
v -0.015332 0.610000 0.027037
v -0.021544 0.610000 0.050219
v -0.020763 0.700000 0.047305
v -0.014551 0.700000 0.024123
v 0.008631 0.700000 0.030334
v 0.002419 0.700000 0.053516
v 0.001638 0.610000 0.056431
v 0.007850 0.610000 0.033249
v -0.032594 0.030000 0.029641
v -0.053300 0.030000 0.106915
v -0.053300 0.066000 0.106915
v -0.032594 0.066000 0.029641
v 0.021497 0.066000 0.044135
v 0.000792 0.066000 0.121409
v 0.000792 0.030000 0.121409
v 0.021497 0.030000 0.044135
v -0.030025 0.018000 0.035506
v -0.048401 0.018000 0.104086
v -0.048401 0.032000 0.104086
v -0.030025 0.032000 0.035506
v 0.016340 0.032000 0.047929
v -0.002037 0.032000 0.116510
v -0.002037 0.018000 0.116510
v 0.016340 0.018000 0.047929
v 0.049112 0.014000 0.041624
v 0.060425 0.014000 0.052938
v 0.044162 0.700000 0.036675
v 0.032848 0.700000 0.025361
v 0.044162 0.700000 0.014047
v 0.055476 0.700000 0.025361
v 0.071739 0.014000 0.041624
v 0.060425 0.014000 0.030311
v 0.029325 0.610000 0.027495
v 0.046296 0.610000 0.044465
v 0.044162 0.700000 0.042331
v 0.027191 0.700000 0.025361
v 0.044162 0.700000 0.008390
v 0.061133 0.700000 0.025361
v 0.063266 0.610000 0.027495
v 0.046296 0.610000 0.010524
v 0.040626 0.018000 0.040210
v 0.088710 0.018000 0.088293
v 0.088710 0.055000 0.088293
v 0.040626 0.055000 0.040210
v 0.059011 0.055000 0.021825
v 0.107094 0.055000 0.069909
v 0.107094 0.018000 0.069909
v 0.059011 0.018000 0.021825
v 0.074180 0.014000 -0.021022
v 0.089635 0.014000 -0.025163
v 0.067419 0.700000 -0.019210
v 0.051964 0.700000 -0.015069
v 0.047823 0.700000 -0.030524
v 0.063277 0.700000 -0.034665
v 0.085494 0.014000 -0.040618
v 0.070039 0.014000 -0.036477
v 0.052050 0.610000 -0.010951
v 0.075232 0.610000 -0.017163
v 0.072318 0.700000 -0.016382
v 0.049135 0.700000 -0.010170
v 0.042924 0.700000 -0.033353
v 0.066106 0.700000 -0.039564
v 0.069021 0.610000 -0.040345
v 0.045838 0.610000 -0.034133
v 0.072507 0.018000 -0.019539
v 0.133360 0.018000 -0.035844
v 0.133360 0.030000 -0.035844
v 0.072507 0.030000 -0.019539
v 0.067848 0.030000 -0.036925
v 0.128702 0.030000 -0.053231
v 0.128702 0.018000 -0.053231
v 0.067848 0.018000 -0.036925
vn -0.0000 -1.0000 -0.0000
vn -0.0000 1.0000 -0.0000
vn 0.9659 -0.0000 -0.2588
vn 0.7071 -0.0000 -0.7071
vn 0.2588 -0.0000 -0.9659
vn -0.2588 -0.0000 -0.9659
vn -0.7071 -0.0000 -0.7071
vn -0.9659 -0.0000 -0.2588
vn -0.9659 -0.0000 0.2588
vn -0.7071 -0.0000 0.7071
vn -0.2588 -0.0000 0.9659
vn 0.2588 -0.0000 0.9659
vn 0.7071 -0.0000 0.7071
vn 0.9659 -0.0000 0.2588
vn 0.8660 -0.0000 -0.5000
vn -0.0000 -0.0000 -1.0000
vn -0.8660 -0.0000 -0.5000
vn -0.8660 -0.0000 0.5000
vn -0.0000 -0.0000 1.0000
vn 0.8660 -0.0000 0.5000
vn 0.9239 -0.0000 -0.3827
vn 0.3827 -0.0000 -0.9239
vn -0.3827 -0.0000 -0.9239
vn -0.9239 -0.0000 -0.3827
vn -0.9239 -0.0000 0.3827
vn -0.3827 -0.0000 0.9239
vn 0.3827 -0.0000 0.9239
vn 0.9239 -0.0000 0.3827
vn -0.9654 0.0335 0.2587
vn 0.9654 -0.0335 -0.2587
vn -0.2587 0.0335 0.9654
vn 0.2587 -0.0335 -0.9654
vn 0.7067 0.0335 0.7067
vn -0.7067 -0.0335 -0.7067
vn 0.9654 0.0335 -0.2587
vn -0.9654 -0.0335 0.2587
vt 0.937500 0.312500
vt 0.437500 0.312500
vt 0.812500 0.312500
vt 0.312500 0.687500
s 0
usemtl FN_Atlas
f 1/1/1 2/1/1 3/1/1 4/1/1 5/1/1 6/1/1 7/1/1 8/1/1 9/1/1 10/1/1 11/1/1 12/1/1
f 13/1/2 14/1/2 15/1/2 16/1/2 17/1/2 18/1/2 19/1/2 20/1/2 21/1/2 22/1/2 23/1/2 24/1/2
f 12/1/3 11/1/3 14/1/3 13/1/3
f 11/1/4 10/1/4 15/1/4 14/1/4
f 10/1/5 9/1/5 16/1/5 15/1/5
f 9/1/6 8/1/6 17/1/6 16/1/6
f 8/1/7 7/1/7 18/1/7 17/1/7
f 7/1/8 6/1/8 19/1/8 18/1/8
f 6/1/9 5/1/9 20/1/9 19/1/9
f 5/1/10 4/1/10 21/1/10 20/1/10
f 4/1/11 3/1/11 22/1/11 21/1/11
f 3/1/12 2/1/12 23/1/12 22/1/12
f 2/1/13 1/1/13 24/1/13 23/1/13
f 1/1/14 12/1/14 13/1/14 24/1/14
f 25/1/1 26/1/1 27/1/1 28/1/1 29/1/1 30/1/1
f 31/1/2 32/1/2 33/1/2 34/1/2 35/1/2 36/1/2
f 30/1/15 29/1/15 32/1/15 31/1/15
f 29/1/16 28/1/16 33/1/16 32/1/16
f 28/1/17 27/1/17 34/1/17 33/1/17
f 27/1/18 26/1/18 35/1/18 34/1/18
f 26/1/19 25/1/19 36/1/19 35/1/19
f 25/1/20 30/1/20 31/1/20 36/1/20
f 37/2/1 38/2/1 39/2/1 40/2/1 41/2/1 42/2/1
f 43/2/2 44/2/2 45/2/2 46/2/2 47/2/2 48/2/2
f 42/2/15 41/2/15 44/2/15 43/2/15
f 41/2/16 40/2/16 45/2/16 44/2/16
f 40/2/17 39/2/17 46/2/17 45/2/17
f 39/2/18 38/2/18 47/2/18 46/2/18
f 38/2/19 37/2/19 48/2/19 47/2/19
f 37/2/20 42/2/20 43/2/20 48/2/20
f 49/1/21 50/1/21 51/1/21 52/1/21
f 50/1/22 53/1/22 54/1/22 51/1/22
f 53/1/23 55/1/23 56/1/23 54/1/23
f 55/1/24 57/1/24 58/1/24 56/1/24
f 57/1/25 59/1/25 60/1/25 58/1/25
f 59/1/26 61/1/26 62/1/26 60/1/26
f 61/1/27 63/1/27 64/1/27 62/1/27
f 63/1/28 49/1/28 52/1/28 64/1/28
f 65/1/25 66/1/25 67/1/25 68/1/25
f 66/1/26 69/1/26 70/1/26 67/1/26
f 69/1/27 71/1/27 72/1/27 70/1/27
f 71/1/28 73/1/28 74/1/28 72/1/28
f 73/1/21 75/1/21 76/1/21 74/1/21
f 75/1/22 77/1/22 78/1/22 76/1/22
f 77/1/23 79/1/23 80/1/23 78/1/23
f 79/1/24 65/1/24 68/1/24 80/1/24
f 52/1/2 51/1/2 66/1/2 65/1/2
f 51/1/2 54/1/2 69/1/2 66/1/2
f 54/1/2 56/1/2 71/1/2 69/1/2
f 56/1/2 58/1/2 73/1/2 71/1/2
f 58/1/2 60/1/2 75/1/2 73/1/2
f 60/1/2 62/1/2 77/1/2 75/1/2
f 62/1/2 64/1/2 79/1/2 77/1/2
f 64/1/2 52/1/2 65/1/2 79/1/2
f 68/1/1 67/1/1 50/1/1 49/1/1
f 67/1/1 70/1/1 53/1/1 50/1/1
f 70/1/1 72/1/1 55/1/1 53/1/1
f 72/1/1 74/1/1 57/1/1 55/1/1
f 74/1/1 76/1/1 59/1/1 57/1/1
f 76/1/1 78/1/1 61/1/1 59/1/1
f 78/1/1 80/1/1 63/1/1 61/1/1
f 80/1/1 68/1/1 49/1/1 63/1/1
f 81/3/6 82/3/6 83/3/6 84/3/6
f 85/3/12 86/3/12 87/3/12 88/3/12
f 88/3/1 87/3/1 82/3/1 81/3/1
f 87/3/29 86/3/29 83/3/29 82/3/29
f 86/3/2 85/3/2 84/3/2 83/3/2
f 85/3/30 88/3/30 81/3/30 84/3/30
f 89/2/6 90/2/6 91/2/6 92/2/6
f 93/2/12 94/2/12 95/2/12 96/2/12
f 96/2/1 95/2/1 90/2/1 89/2/1
f 95/2/29 94/2/29 91/2/29 90/2/29
f 94/2/2 93/2/2 92/2/2 91/2/2
f 93/2/30 96/2/30 89/2/30 92/2/30
f 97/3/6 98/3/6 99/3/6 100/3/6
f 101/3/12 102/3/12 103/3/12 104/3/12
f 104/3/1 103/3/1 98/3/1 97/3/1
f 103/3/9 102/3/9 99/3/9 98/3/9
f 102/3/2 101/3/2 100/3/2 99/3/2
f 101/3/3 104/3/3 97/3/3 100/3/3
f 105/3/8 106/3/8 107/3/8 108/3/8
f 109/3/14 110/3/14 111/3/14 112/3/14
f 112/3/1 111/3/1 106/3/1 105/3/1
f 111/3/31 110/3/31 107/3/31 106/3/31
f 110/3/2 109/3/2 108/3/2 107/3/2
f 109/3/32 112/3/32 105/3/32 108/3/32
f 113/2/8 114/2/8 115/2/8 116/2/8
f 117/2/14 118/2/14 119/2/14 120/2/14
f 120/2/1 119/2/1 114/2/1 113/2/1
f 119/2/31 118/2/31 115/2/31 114/2/31
f 118/2/2 117/2/2 116/2/2 115/2/2
f 117/2/32 120/2/32 113/2/32 116/2/32
f 121/3/8 122/3/8 123/3/8 124/3/8
f 125/3/14 126/3/14 127/3/14 128/3/14
f 128/3/1 127/3/1 122/3/1 121/3/1
f 127/3/11 126/3/11 123/3/11 122/3/11
f 126/3/2 125/3/2 124/3/2 123/3/2
f 125/3/5 128/3/5 121/3/5 124/3/5
f 129/4/8 130/4/8 131/4/8 132/4/8
f 133/4/14 134/4/14 135/4/14 136/4/14
f 136/4/1 135/4/1 130/4/1 129/4/1
f 135/4/11 134/4/11 131/4/11 130/4/11
f 134/4/2 133/4/2 132/4/2 131/4/2
f 133/4/5 136/4/5 129/4/5 132/4/5
f 137/3/10 138/3/10 139/3/10 140/3/10
f 141/3/4 142/3/4 143/3/4 144/3/4
f 144/3/1 143/3/1 138/3/1 137/3/1
f 143/3/33 142/3/33 139/3/33 138/3/33
f 142/3/2 141/3/2 140/3/2 139/3/2
f 141/3/34 144/3/34 137/3/34 140/3/34
f 145/2/10 146/2/10 147/2/10 148/2/10
f 149/2/4 150/2/4 151/2/4 152/2/4
f 152/2/1 151/2/1 146/2/1 145/2/1
f 151/2/33 150/2/33 147/2/33 146/2/33
f 150/2/2 149/2/2 148/2/2 147/2/2
f 149/2/34 152/2/34 145/2/34 148/2/34
f 153/3/10 154/3/10 155/3/10 156/3/10
f 157/3/4 158/3/4 159/3/4 160/3/4
f 160/3/1 159/3/1 154/3/1 153/3/1
f 159/3/13 158/3/13 155/3/13 154/3/13
f 158/3/2 157/3/2 156/3/2 155/3/2
f 157/3/7 160/3/7 153/3/7 156/3/7
f 161/3/12 162/3/12 163/3/12 164/3/12
f 165/3/6 166/3/6 167/3/6 168/3/6
f 168/3/1 167/3/1 162/3/1 161/3/1
f 167/3/35 166/3/35 163/3/35 162/3/35
f 166/3/2 165/3/2 164/3/2 163/3/2
f 165/3/36 168/3/36 161/3/36 164/3/36
f 169/2/12 170/2/12 171/2/12 172/2/12
f 173/2/6 174/2/6 175/2/6 176/2/6
f 176/2/1 175/2/1 170/2/1 169/2/1
f 175/2/35 174/2/35 171/2/35 170/2/35
f 174/2/2 173/2/2 172/2/2 171/2/2
f 173/2/36 176/2/36 169/2/36 172/2/36
f 177/3/12 178/3/12 179/3/12 180/3/12
f 181/3/6 182/3/6 183/3/6 184/3/6
f 184/3/1 183/3/1 178/3/1 177/3/1
f 183/3/3 182/3/3 179/3/3 178/3/3
f 182/3/2 181/3/2 180/3/2 179/3/2
f 181/3/9 184/3/9 177/3/9 180/3/9
