# Blender 5.2.0 LTS
# www.blender.org
mtllib FN_Sofa_Loveseat.mtl
o FN_Sofa_Loveseat
v -0.583370 0.000000 0.360888
v -0.593112 0.000000 0.370630
v -0.606888 0.000000 0.370630
v -0.616630 0.000000 0.360888
v -0.616630 0.000000 0.347112
v -0.606888 0.000000 0.337370
v -0.593112 0.000000 0.337370
v -0.583370 0.000000 0.347112
v -0.535979 0.185000 0.314050
v -0.550050 0.185000 0.299979
v -0.569950 0.185000 0.299979
v -0.584021 0.185000 0.314050
v -0.584021 0.185000 0.333950
v -0.569950 0.185000 0.348021
v -0.550050 0.185000 0.348021
v -0.535979 0.185000 0.333950
v -0.583370 0.000000 -0.299112
v -0.593112 0.000000 -0.289370
v -0.606888 0.000000 -0.289370
v -0.616630 0.000000 -0.299112
v -0.616630 0.000000 -0.312888
v -0.606888 0.000000 -0.322630
v -0.593112 0.000000 -0.322630
v -0.583370 0.000000 -0.312888
v -0.535979 0.185000 -0.285950
v -0.550050 0.185000 -0.300021
v -0.569950 0.185000 -0.300021
v -0.584021 0.185000 -0.285950
v -0.584021 0.185000 -0.266050
v -0.569950 0.185000 -0.251979
v -0.550050 0.185000 -0.251979
v -0.535979 0.185000 -0.266050
v 0.616630 0.000000 0.360888
v 0.606888 0.000000 0.370630
v 0.593112 0.000000 0.370630
v 0.583370 0.000000 0.360888
v 0.583370 0.000000 0.347112
v 0.593112 0.000000 0.337370
v 0.606888 0.000000 0.337370
v 0.616630 0.000000 0.347112
v 0.584021 0.185000 0.314050
v 0.569950 0.185000 0.299979
v 0.550050 0.185000 0.299979
v 0.535979 0.185000 0.314050
v 0.535979 0.185000 0.333950
v 0.550050 0.185000 0.348021
v 0.569950 0.185000 0.348021
v 0.584021 0.185000 0.333950
v 0.616630 0.000000 -0.299112
v 0.606888 0.000000 -0.289370
v 0.593112 0.000000 -0.289370
v 0.583370 0.000000 -0.299112
v 0.583370 0.000000 -0.312888
v 0.593112 0.000000 -0.322630
v 0.606888 0.000000 -0.322630
v 0.616630 0.000000 -0.312888
v 0.584021 0.185000 -0.285950
v 0.569950 0.185000 -0.300021
v 0.550050 0.185000 -0.300021
v 0.535979 0.185000 -0.285950
v 0.535979 0.185000 -0.266050
v 0.550050 0.185000 -0.251979
v 0.569950 0.185000 -0.251979
v 0.584021 0.185000 -0.266050
v -0.560000 0.170000 0.384000
v -0.560000 0.170000 -0.376000
v 0.560000 0.170000 -0.376000
v 0.560000 0.170000 0.384000
v -0.560000 0.290000 0.384000
v 0.560000 0.290000 0.384000
v 0.560000 0.290000 -0.376000
v -0.560000 0.290000 -0.376000
v -0.670000 0.180000 0.384000
v -0.670000 0.180000 -0.356000
v -0.552000 0.180000 -0.356000
v -0.552000 0.180000 0.384000
v -0.670000 0.545000 0.384000
v -0.552000 0.545000 0.384000
v -0.552000 0.545000 -0.356000
v -0.670000 0.545000 -0.356000
v -0.570504 0.512672 0.396000
v -0.598004 0.492692 0.396000
v -0.631996 0.492692 0.396000
v -0.659496 0.512672 0.396000
v -0.670000 0.545000 0.396000
v -0.659496 0.577328 0.396000
v -0.631996 0.597308 0.396000
v -0.598004 0.597308 0.396000
v -0.570504 0.577328 0.396000
v -0.560000 0.545000 0.396000
v -0.560000 0.545000 -0.368000
v -0.570504 0.577328 -0.368000
v -0.598004 0.597308 -0.368000
v -0.631996 0.597308 -0.368000
v -0.659496 0.577328 -0.368000
v -0.670000 0.545000 -0.368000
v -0.659496 0.512672 -0.368000
v -0.631996 0.492692 -0.368000
v -0.598004 0.492692 -0.368000
v -0.570504 0.512672 -0.368000
v 0.552000 0.180000 0.384000
v 0.552000 0.180000 -0.356000
v 0.670000 0.180000 -0.356000
v 0.670000 0.180000 0.384000
v 0.552000 0.545000 0.384000
v 0.670000 0.545000 0.384000
v 0.670000 0.545000 -0.356000
v 0.552000 0.545000 -0.356000
v 0.659496 0.512672 0.396000
v 0.631996 0.492692 0.396000
v 0.598004 0.492692 0.396000
v 0.570504 0.512672 0.396000
v 0.560000 0.545000 0.396000
v 0.570504 0.577328 0.396000
v 0.598004 0.597308 0.396000
v 0.631996 0.597308 0.396000
v 0.659496 0.577328 0.396000
v 0.670000 0.545000 0.396000
v 0.670000 0.545000 -0.368000
v 0.659496 0.577328 -0.368000
v 0.631996 0.597308 -0.368000
v 0.598004 0.597308 -0.368000
v 0.570504 0.577328 -0.368000
v 0.560000 0.545000 -0.368000
v 0.570504 0.512672 -0.368000
v 0.598004 0.492692 -0.368000
v 0.631996 0.492692 -0.368000
v 0.659496 0.512672 -0.368000
v -0.568000 0.210000 -0.302780
v 0.568000 0.210000 -0.302780
v 0.568000 0.210000 -0.152780
v -0.568000 0.210000 -0.152780
v -0.568000 0.760000 -0.246000
v 0.568000 0.760000 -0.246000
v 0.568000 0.760000 -0.396000
v -0.568000 0.760000 -0.396000
v -0.537322 0.278000 -0.180525
v 0.537322 0.278000 -0.180525
v 0.537322 0.278000 0.370525
v -0.537322 0.278000 0.370525
v 0.548000 0.290000 0.376000
v -0.548000 0.290000 0.376000
v 0.548000 0.290000 -0.186000
v -0.548000 0.290000 -0.186000
v 0.548000 0.408000 0.376000
v -0.548000 0.408000 0.376000
v 0.548000 0.408000 -0.186000
v -0.548000 0.408000 -0.186000
v -0.537322 0.420000 0.370525
v 0.537322 0.420000 0.370525
v 0.537322 0.420000 -0.180525
v -0.537322 0.420000 -0.180525
v -0.548000 0.408000 -0.186339
v -0.006000 0.408000 -0.186339
v -0.006000 0.408000 -0.046339
v -0.548000 0.408000 -0.046339
v -0.548000 0.742000 -0.102949
v -0.006000 0.742000 -0.102949
v -0.006000 0.742000 -0.242949
v -0.548000 0.742000 -0.242949
v 0.006000 0.408000 -0.186339
v 0.548000 0.408000 -0.186339
v 0.548000 0.408000 -0.046339
v 0.006000 0.408000 -0.046339
v 0.006000 0.742000 -0.102949
v 0.548000 0.742000 -0.102949
v 0.548000 0.742000 -0.242949
v 0.006000 0.742000 -0.242949
vn -0.0000 -1.0000 -0.0000
vn -0.0000 1.0000 -0.0000
vn 0.6759 -0.2939 -0.6759
vn -0.0000 -0.1981 -0.9802
vn -0.7071 -0.0017 -0.7071
vn -0.9848 0.1736 -0.0000
vn -0.6895 0.2219 0.6895
vn -0.0000 0.1213 0.9926
vn 0.7050 -0.0779 0.7050
vn 0.9687 -0.2482 -0.0000
vn 0.7050 -0.0779 -0.7050
vn -0.0000 0.1213 -0.9926
vn -0.6895 0.2219 -0.6895
vn -0.7071 -0.0017 0.7071
vn -0.0000 -0.1981 0.9802
vn 0.6759 -0.2939 0.6759
vn 0.7071 -0.0017 -0.7071
vn -0.6759 -0.2939 -0.6759
vn -0.9687 -0.2482 -0.0000
vn -0.7050 -0.0779 0.7050
vn 0.6895 0.2219 0.6895
vn 0.9848 0.1736 -0.0000
vn 0.6895 0.2219 -0.6895
vn -0.7050 -0.0779 -0.7050
vn -0.6759 -0.2939 0.6759
vn 0.7071 -0.0017 0.7071
vn -0.0000 -0.0000 1.0000
vn -0.0000 -0.0000 -1.0000
vn -1.0000 -0.0000 -0.0000
vn 1.0000 -0.0000 -0.0000
vn -0.9511 -0.3090 -0.0000
vn -0.5878 -0.8090 -0.0000
vn 0.5878 -0.8090 -0.0000
vn 0.9511 -0.3090 -0.0000
vn 0.9511 0.3090 -0.0000
vn 0.5878 0.8090 -0.0000
vn -0.5878 0.8090 -0.0000
vn -0.9511 0.3090 -0.0000
vn -0.0000 0.1671 0.9859
vn -0.0000 -0.1671 -0.9859
vn -0.0000 -0.4151 0.9098
vn 0.7471 -0.6648 -0.0000
vn -0.0000 -0.4151 -0.9098
vn -0.7471 -0.6648 -0.0000
vn -0.0000 0.4151 0.9098
vn 0.7471 0.6648 -0.0000
vn -0.0000 0.4151 -0.9098
vn -0.7471 0.6648 -0.0000
vt 0.437500 0.937500
vt 0.812500 0.687500
vt 0.062500 0.562500
s 0
usemtl FN_Atlas
f 1/1/1 2/1/1 3/1/1 4/1/1 5/1/1 6/1/1 7/1/1 8/1/1
f 9/1/2 10/1/2 11/1/2 12/1/2 13/1/2 14/1/2 15/1/2 16/1/2
f 8/1/3 7/1/3 10/1/3 9/1/3
f 7/1/4 6/1/4 11/1/4 10/1/4
f 6/1/5 5/1/5 12/1/5 11/1/5
f 5/1/6 4/1/6 13/1/6 12/1/6
f 4/1/7 3/1/7 14/1/7 13/1/7
f 3/1/8 2/1/8 15/1/8 14/1/8
f 2/1/9 1/1/9 16/1/9 15/1/9
f 1/1/10 8/1/10 9/1/10 16/1/10
f 17/1/1 18/1/1 19/1/1 20/1/1 21/1/1 22/1/1 23/1/1 24/1/1
f 25/1/2 26/1/2 27/1/2 28/1/2 29/1/2 30/1/2 31/1/2 32/1/2
f 24/1/11 23/1/11 26/1/11 25/1/11
f 23/1/12 22/1/12 27/1/12 26/1/12
f 22/1/13 21/1/13 28/1/13 27/1/13
f 21/1/6 20/1/6 29/1/6 28/1/6
f 20/1/14 19/1/14 30/1/14 29/1/14
f 19/1/15 18/1/15 31/1/15 30/1/15
f 18/1/16 17/1/16 32/1/16 31/1/16
f 17/1/10 24/1/10 25/1/10 32/1/10
f 33/1/1 34/1/1 35/1/1 36/1/1 37/1/1 38/1/1 39/1/1 40/1/1
f 41/1/2 42/1/2 43/1/2 44/1/2 45/1/2 46/1/2 47/1/2 48/1/2
f 40/1/17 39/1/17 42/1/17 41/1/17
f 39/1/4 38/1/4 43/1/4 42/1/4
f 38/1/18 37/1/18 44/1/18 43/1/18
f 37/1/19 36/1/19 45/1/19 44/1/19
f 36/1/20 35/1/20 46/1/20 45/1/20
f 35/1/8 34/1/8 47/1/8 46/1/8
f 34/1/21 33/1/21 48/1/21 47/1/21
f 33/1/22 40/1/22 41/1/22 48/1/22
f 49/1/1 50/1/1 51/1/1 52/1/1 53/1/1 54/1/1 55/1/1 56/1/1
f 57/1/2 58/1/2 59/1/2 60/1/2 61/1/2 62/1/2 63/1/2 64/1/2
f 56/1/23 55/1/23 58/1/23 57/1/23
f 55/1/12 54/1/12 59/1/12 58/1/12
f 54/1/24 53/1/24 60/1/24 59/1/24
f 53/1/19 52/1/19 61/1/19 60/1/19
f 52/1/25 51/1/25 62/1/25 61/1/25
f 51/1/15 50/1/15 63/1/15 62/1/15
f 50/1/26 49/1/26 64/1/26 63/1/26
f 49/1/22 56/1/22 57/1/22 64/1/22
f 65/2/1 66/2/1 67/2/1 68/2/1
f 69/2/2 70/2/2 71/2/2 72/2/2
f 65/2/27 68/2/27 70/2/27 69/2/27
f 67/2/28 66/2/28 72/2/28 71/2/28
f 65/2/29 69/2/29 72/2/29 66/2/29
f 68/2/30 67/2/30 71/2/30 70/2/30
f 73/2/1 74/2/1 75/2/1 76/2/1
f 77/2/2 78/2/2 79/2/2 80/2/2
f 73/2/27 76/2/27 78/2/27 77/2/27
f 75/2/28 74/2/28 80/2/28 79/2/28
f 73/2/29 77/2/29 80/2/29 74/2/29
f 76/2/30 75/2/30 79/2/30 78/2/30
f 81/2/28 82/2/28 83/2/28 84/2/28 85/2/28 86/2/28 87/2/28 88/2/28 89/2/28 90/2/28
f 91/2/27 92/2/27 93/2/27 94/2/27 95/2/27 96/2/27 97/2/27 98/2/27 99/2/27 100/2/27
f 90/2/31 89/2/31 92/2/31 91/2/31
f 89/2/32 88/2/32 93/2/32 92/2/32
f 88/2/1 87/2/1 94/2/1 93/2/1
f 87/2/33 86/2/33 95/2/33 94/2/33
f 86/2/34 85/2/34 96/2/34 95/2/34
f 85/2/35 84/2/35 97/2/35 96/2/35
f 84/2/36 83/2/36 98/2/36 97/2/36
f 83/2/2 82/2/2 99/2/2 98/2/2
f 82/2/37 81/2/37 100/2/37 99/2/37
f 81/2/38 90/2/38 91/2/38 100/2/38
f 101/2/1 102/2/1 103/2/1 104/2/1
f 105/2/2 106/2/2 107/2/2 108/2/2
f 101/2/27 104/2/27 106/2/27 105/2/27
f 103/2/28 102/2/28 108/2/28 107/2/28
f 101/2/29 105/2/29 108/2/29 102/2/29
f 104/2/30 103/2/30 107/2/30 106/2/30
f 109/2/28 110/2/28 111/2/28 112/2/28 113/2/28 114/2/28 115/2/28 116/2/28 117/2/28 118/2/28
f 119/2/27 120/2/27 121/2/27 122/2/27 123/2/27 124/2/27 125/2/27 126/2/27 127/2/27 128/2/27
f 118/2/31 117/2/31 120/2/31 119/2/31
f 117/2/32 116/2/32 121/2/32 120/2/32
f 116/2/1 115/2/1 122/2/1 121/2/1
f 115/2/33 114/2/33 123/2/33 122/2/33
f 114/2/34 113/2/34 124/2/34 123/2/34
f 113/2/35 112/2/35 125/2/35 124/2/35
f 112/2/36 111/2/36 126/2/36 125/2/36
f 111/2/2 110/2/2 127/2/2 126/2/2
f 110/2/37 109/2/37 128/2/37 127/2/37
f 109/2/38 118/2/38 119/2/38 128/2/38
f 129/2/1 130/2/1 131/2/1 132/2/1
f 133/2/2 134/2/2 135/2/2 136/2/2
f 132/2/39 131/2/39 134/2/39 133/2/39
f 131/2/30 130/2/30 135/2/30 134/2/30
f 130/2/40 129/2/40 136/2/40 135/2/40
f 129/2/29 132/2/29 133/2/29 136/2/29
f 137/3/1 138/3/1 139/3/1 140/3/1
f 140/3/41 139/3/41 141/3/41 142/3/41
f 139/3/42 138/3/42 143/3/42 141/3/42
f 138/3/43 137/3/43 144/3/43 143/3/43
f 137/3/44 140/3/44 142/3/44 144/3/44
f 142/3/27 141/3/27 145/3/27 146/3/27
f 141/3/30 143/3/30 147/3/30 145/3/30
f 143/3/28 144/3/28 148/3/28 147/3/28
f 144/3/29 142/3/29 146/3/29 148/3/29
f 149/3/2 150/3/2 151/3/2 152/3/2
f 146/3/45 145/3/45 150/3/45 149/3/45
f 145/3/46 147/3/46 151/3/46 150/3/46
f 147/3/47 148/3/47 152/3/47 151/3/47
f 148/3/48 146/3/48 149/3/48 152/3/48
f 153/3/1 154/3/1 155/3/1 156/3/1
f 157/3/2 158/3/2 159/3/2 160/3/2
f 156/3/39 155/3/39 158/3/39 157/3/39
f 155/3/30 154/3/30 159/3/30 158/3/30
f 154/3/40 153/3/40 160/3/40 159/3/40
f 153/3/29 156/3/29 157/3/29 160/3/29
f 161/3/1 162/3/1 163/3/1 164/3/1
f 165/3/2 166/3/2 167/3/2 168/3/2
f 164/3/39 163/3/39 166/3/39 165/3/39
f 163/3/30 162/3/30 167/3/30 166/3/30
f 162/3/40 161/3/40 168/3/40 167/3/40
f 161/3/29 164/3/29 165/3/29 168/3/29
