# Blender 5.2.0 LTS
# www.blender.org
mtllib FN_Shelf_Corner.mtl
o FN_Shelf_Corner
v 0.237272 0.016000 -0.262728
v 0.250000 0.016000 -0.268000
v 0.262728 0.016000 -0.262728
v 0.268000 0.016000 -0.250000
v 0.262728 0.016000 -0.237272
v 0.250000 0.016000 -0.232000
v 0.237272 0.016000 -0.237272
v 0.232000 0.016000 -0.250000
v 0.232000 1.600000 -0.250000
v 0.237272 1.600000 -0.237272
v 0.250000 1.600000 -0.232000
v 0.262728 1.600000 -0.237272
v 0.268000 1.600000 -0.250000
v 0.262728 1.600000 -0.262728
v 0.250000 1.600000 -0.268000
v 0.237272 1.600000 -0.262728
v 0.262000 0.000000 -0.229215
v 0.238000 0.000000 -0.229215
v 0.226000 0.000000 -0.250000
v 0.238000 0.000000 -0.270785
v 0.262000 0.000000 -0.270785
v 0.274000 0.000000 -0.250000
v 0.270000 0.020000 -0.250000
v 0.260000 0.020000 -0.267321
v 0.240000 0.020000 -0.267321
v 0.230000 0.020000 -0.250000
v 0.240000 0.020000 -0.232679
v 0.260000 0.020000 -0.232679
v -0.260728 0.016000 -0.262728
v -0.248000 0.016000 -0.268000
v -0.235272 0.016000 -0.262728
v -0.230000 0.016000 -0.250000
v -0.235272 0.016000 -0.237272
v -0.248000 0.016000 -0.232000
v -0.260728 0.016000 -0.237272
v -0.266000 0.016000 -0.250000
v -0.266000 1.600000 -0.250000
v -0.260728 1.600000 -0.237272
v -0.248000 1.600000 -0.232000
v -0.235272 1.600000 -0.237272
v -0.230000 1.600000 -0.250000
v -0.235272 1.600000 -0.262728
v -0.248000 1.600000 -0.268000
v -0.260728 1.600000 -0.262728
v -0.236000 0.000000 -0.229215
v -0.260000 0.000000 -0.229215
v -0.272000 0.000000 -0.250000
v -0.260000 0.000000 -0.270785
v -0.236000 0.000000 -0.270785
v -0.224000 0.000000 -0.250000
v -0.228000 0.020000 -0.250000
v -0.238000 0.020000 -0.267321
v -0.258000 0.020000 -0.267321
v -0.268000 0.020000 -0.250000
v -0.258000 0.020000 -0.232679
v -0.238000 0.020000 -0.232679
v 0.237272 0.016000 0.235272
v 0.250000 0.016000 0.230000
v 0.262728 0.016000 0.235272
v 0.268000 0.016000 0.248000
v 0.262728 0.016000 0.260728
v 0.250000 0.016000 0.266000
v 0.237272 0.016000 0.260728
v 0.232000 0.016000 0.248000
v 0.232000 1.600000 0.248000
v 0.237272 1.600000 0.260728
v 0.250000 1.600000 0.266000
v 0.262728 1.600000 0.260728
v 0.268000 1.600000 0.248000
v 0.262728 1.600000 0.235272
v 0.250000 1.600000 0.230000
v 0.237272 1.600000 0.235272
v 0.262000 0.000000 0.268785
v 0.238000 0.000000 0.268785
v 0.226000 0.000000 0.248000
v 0.238000 0.000000 0.227215
v 0.262000 0.000000 0.227215
v 0.274000 0.000000 0.248000
v 0.270000 0.020000 0.248000
v 0.260000 0.020000 0.230679
v 0.240000 0.020000 0.230679
v 0.230000 0.020000 0.248000
v 0.240000 0.020000 0.265321
v 0.260000 0.020000 0.265321
v 0.275058 0.060000 0.275482
v 0.104932 0.060000 0.248537
v -0.048541 0.060000 0.170338
v -0.170338 0.060000 0.048541
v -0.248537 0.060000 -0.104932
v -0.275482 0.060000 -0.275058
v 0.275058 0.060000 -0.275058
v -0.280000 0.065000 -0.280000
v 0.280000 0.065000 -0.280000
v -0.252592 0.065000 -0.106950
v -0.173050 0.065000 0.049160
v -0.049160 0.065000 0.173050
v 0.106950 0.065000 0.252592
v 0.280000 0.065000 0.280000
v -0.280000 0.079000 -0.280000
v 0.280000 0.079000 -0.280000
v -0.252592 0.079000 -0.106950
v -0.173050 0.079000 0.049160
v -0.049160 0.079000 0.173050
v 0.106950 0.079000 0.252592
v 0.280000 0.079000 0.280000
v 0.275058 0.084000 -0.275058
v -0.275482 0.084000 -0.275058
v -0.248537 0.084000 -0.104932
v -0.170338 0.084000 0.048541
v -0.048541 0.084000 0.170338
v 0.104932 0.084000 0.248537
v 0.275058 0.084000 0.275482
v 0.275058 0.440000 0.275482
v 0.104932 0.440000 0.248537
v -0.048541 0.440000 0.170338
v -0.170338 0.440000 0.048541
v -0.248537 0.440000 -0.104932
v -0.275482 0.440000 -0.275058
v 0.275058 0.440000 -0.275058
v -0.280000 0.445000 -0.280000
v 0.280000 0.445000 -0.280000
v -0.252592 0.445000 -0.106950
v -0.173050 0.445000 0.049160
v -0.049160 0.445000 0.173050
v 0.106950 0.445000 0.252592
v 0.280000 0.445000 0.280000
v -0.280000 0.459000 -0.280000
v 0.280000 0.459000 -0.280000
v -0.252592 0.459000 -0.106950
v -0.173050 0.459000 0.049160
v -0.049160 0.459000 0.173050
v 0.106950 0.459000 0.252592
v 0.280000 0.459000 0.280000
v 0.275058 0.464000 -0.275058
v -0.275482 0.464000 -0.275058
v -0.248537 0.464000 -0.104932
v -0.170338 0.464000 0.048541
v -0.048541 0.464000 0.170338
v 0.104932 0.464000 0.248537
v 0.275058 0.464000 0.275482
v 0.275058 0.820000 0.275482
v 0.104932 0.820000 0.248537
v -0.048541 0.820000 0.170338
v -0.170338 0.820000 0.048541
v -0.248537 0.820000 -0.104932
v -0.275482 0.820000 -0.275058
v 0.275058 0.820000 -0.275058
v -0.280000 0.825000 -0.280000
v 0.280000 0.825000 -0.280000
v -0.252592 0.825000 -0.106950
v -0.173050 0.825000 0.049160
v -0.049160 0.825000 0.173050
v 0.106950 0.825000 0.252592
v 0.280000 0.825000 0.280000
v -0.280000 0.839000 -0.280000
v 0.280000 0.839000 -0.280000
v -0.252592 0.839000 -0.106950
v -0.173050 0.839000 0.049160
v -0.049160 0.839000 0.173050
v 0.106950 0.839000 0.252592
v 0.280000 0.839000 0.280000
v 0.275058 0.844000 -0.275058
v -0.275482 0.844000 -0.275058
v -0.248537 0.844000 -0.104932
v -0.170338 0.844000 0.048541
v -0.048541 0.844000 0.170338
v 0.104932 0.844000 0.248537
v 0.275058 0.844000 0.275482
v 0.275058 1.200000 0.275482
v 0.104932 1.200000 0.248537
v -0.048541 1.200000 0.170338
v -0.170338 1.200000 0.048541
v -0.248537 1.200000 -0.104932
v -0.275482 1.200000 -0.275058
v 0.275058 1.200000 -0.275058
v -0.280000 1.205000 -0.280000
v 0.280000 1.205000 -0.280000
v -0.252592 1.205000 -0.106950
v -0.173050 1.205000 0.049160
v -0.049160 1.205000 0.173050
v 0.106950 1.205000 0.252592
v 0.280000 1.205000 0.280000
v -0.280000 1.219000 -0.280000
v 0.280000 1.219000 -0.280000
v -0.252592 1.219000 -0.106950
v -0.173050 1.219000 0.049160
v -0.049160 1.219000 0.173050
v 0.106950 1.219000 0.252592
v 0.280000 1.219000 0.280000
v 0.275058 1.224000 -0.275058
v -0.275482 1.224000 -0.275058
v -0.248537 1.224000 -0.104932
v -0.170338 1.224000 0.048541
v -0.048541 1.224000 0.170338
v 0.104932 1.224000 0.248537
v 0.275058 1.224000 0.275482
v 0.275058 1.560000 0.275482
v 0.104932 1.560000 0.248537
v -0.048541 1.560000 0.170338
v -0.170338 1.560000 0.048541
v -0.248537 1.560000 -0.104932
v -0.275482 1.560000 -0.275058
v 0.275058 1.560000 -0.275058
v -0.280000 1.565000 -0.280000
v 0.280000 1.565000 -0.280000
v -0.252592 1.565000 -0.106950
v -0.173050 1.565000 0.049160
v -0.049160 1.565000 0.173050
v 0.106950 1.565000 0.252592
v 0.280000 1.565000 0.280000
v -0.280000 1.579000 -0.280000
v 0.280000 1.579000 -0.280000
v -0.252592 1.579000 -0.106950
v -0.173050 1.579000 0.049160
v -0.049160 1.579000 0.173050
v 0.106950 1.579000 0.252592
v 0.280000 1.579000 0.280000
v 0.275058 1.584000 -0.275058
v -0.275482 1.584000 -0.275058
v -0.248537 1.584000 -0.104932
v -0.170338 1.584000 0.048541
v -0.048541 1.584000 0.170338
v 0.104932 1.584000 0.248537
v 0.275058 1.584000 0.275482
vn -0.0000 -1.0000 -0.0000
vn -0.0000 1.0000 -0.0000
vn -0.9239 -0.0000 0.3827
vn -0.3827 -0.0000 0.9239
vn 0.3827 -0.0000 0.9239
vn 0.9239 -0.0000 0.3827
vn 0.9239 -0.0000 -0.3827
vn 0.3827 -0.0000 -0.9239
vn -0.3827 -0.0000 -0.9239
vn -0.9239 -0.0000 -0.3827
vn 0.8533 0.1707 -0.4927
vn -0.0000 0.1707 -0.9853
vn -0.8533 0.1707 -0.4927
vn -0.8533 0.1707 0.4927
vn -0.0000 0.1707 0.9853
vn 0.8533 0.1707 0.4927
vn -0.0000 -0.7029 -0.7112
vn -0.7948 -0.5937 0.1259
vn -0.7842 -0.4747 0.3996
vn -0.6397 -0.4260 0.6397
vn -0.3996 -0.4747 0.7842
vn -0.1259 -0.5937 0.7948
vn 0.7112 -0.7029 -0.0000
vn -0.0000 -0.0000 -1.0000
vn -0.9877 -0.0000 0.1564
vn -0.8910 -0.0000 0.4540
vn -0.7071 -0.0000 0.7071
vn -0.4540 -0.0000 0.8910
vn -0.1564 -0.0000 0.9877
vn 1.0000 -0.0000 -0.0000
vn -0.0000 0.7029 -0.7112
vn -0.7948 0.5937 0.1259
vn -0.7842 0.4747 0.3996
vn -0.6397 0.4260 0.6397
vn -0.3996 0.4747 0.7842
vn -0.1259 0.5937 0.7948
vn 0.7112 0.7029 -0.0000
vn 0.7112 0.7030 -0.0000
vn -0.3996 -0.4746 0.7842
vn 0.7113 -0.7029 -0.0000
vt 0.812500 0.312500
vt 0.937500 0.187500
vt 0.687500 0.937500
vt 0.437500 0.937500
s 0
usemtl FN_Atlas
f 1/1/1 2/1/1 3/1/1 4/1/1 5/1/1 6/1/1 7/1/1 8/1/1
f 9/1/2 10/1/2 11/1/2 12/1/2 13/1/2 14/1/2 15/1/2 16/1/2
f 8/1/3 7/1/3 10/1/3 9/1/3
f 7/1/4 6/1/4 11/1/4 10/1/4
f 6/1/5 5/1/5 12/1/5 11/1/5
f 5/1/6 4/1/6 13/1/6 12/1/6
f 4/1/7 3/1/7 14/1/7 13/1/7
f 3/1/8 2/1/8 15/1/8 14/1/8
f 2/1/9 1/1/9 16/1/9 15/1/9
f 1/1/10 8/1/10 9/1/10 16/1/10
f 17/2/1 18/2/1 19/2/1 20/2/1 21/2/1 22/2/1
f 23/2/2 24/2/2 25/2/2 26/2/2 27/2/2 28/2/2
f 22/2/11 21/2/11 24/2/11 23/2/11
f 21/2/12 20/2/12 25/2/12 24/2/12
f 20/2/13 19/2/13 26/2/13 25/2/13
f 19/2/14 18/2/14 27/2/14 26/2/14
f 18/2/15 17/2/15 28/2/15 27/2/15
f 17/2/16 22/2/16 23/2/16 28/2/16
f 29/1/1 30/1/1 31/1/1 32/1/1 33/1/1 34/1/1 35/1/1 36/1/1
f 37/1/2 38/1/2 39/1/2 40/1/2 41/1/2 42/1/2 43/1/2 44/1/2
f 36/1/3 35/1/3 38/1/3 37/1/3
f 35/1/4 34/1/4 39/1/4 38/1/4
f 34/1/5 33/1/5 40/1/5 39/1/5
f 33/1/6 32/1/6 41/1/6 40/1/6
f 32/1/7 31/1/7 42/1/7 41/1/7
f 31/1/8 30/1/8 43/1/8 42/1/8
f 30/1/9 29/1/9 44/1/9 43/1/9
f 29/1/10 36/1/10 37/1/10 44/1/10
f 45/2/1 46/2/1 47/2/1 48/2/1 49/2/1 50/2/1
f 51/2/2 52/2/2 53/2/2 54/2/2 55/2/2 56/2/2
f 50/2/11 49/2/11 52/2/11 51/2/11
f 49/2/12 48/2/12 53/2/12 52/2/12
f 48/2/13 47/2/13 54/2/13 53/2/13
f 47/2/14 46/2/14 55/2/14 54/2/14
f 46/2/15 45/2/15 56/2/15 55/2/15
f 45/2/16 50/2/16 51/2/16 56/2/16
f 57/1/1 58/1/1 59/1/1 60/1/1 61/1/1 62/1/1 63/1/1 64/1/1
f 65/1/2 66/1/2 67/1/2 68/1/2 69/1/2 70/1/2 71/1/2 72/1/2
f 64/1/3 63/1/3 66/1/3 65/1/3
f 63/1/4 62/1/4 67/1/4 66/1/4
f 62/1/5 61/1/5 68/1/5 67/1/5
f 61/1/6 60/1/6 69/1/6 68/1/6
f 60/1/7 59/1/7 70/1/7 69/1/7
f 59/1/8 58/1/8 71/1/8 70/1/8
f 58/1/9 57/1/9 72/1/9 71/1/9
f 57/1/10 64/1/10 65/1/10 72/1/10
f 73/2/1 74/2/1 75/2/1 76/2/1 77/2/1 78/2/1
f 79/2/2 80/2/2 81/2/2 82/2/2 83/2/2 84/2/2
f 78/2/11 77/2/11 80/2/11 79/2/11
f 77/2/12 76/2/12 81/2/12 80/2/12
f 76/2/13 75/2/13 82/2/13 81/2/13
f 75/2/14 74/2/14 83/2/14 82/2/14
f 74/2/15 73/2/15 84/2/15 83/2/15
f 73/2/16 78/2/16 79/2/16 84/2/16
f 85/3/1 86/3/1 87/3/1 88/3/1 89/3/1 90/3/1 91/3/1
f 91/3/17 90/3/17 92/3/17 93/3/17
f 90/3/18 89/3/18 94/3/18 92/3/18
f 89/3/19 88/3/19 95/3/19 94/3/19
f 88/3/20 87/3/20 96/3/20 95/3/20
f 87/3/21 86/3/21 97/3/21 96/3/21
f 86/3/22 85/3/22 98/3/22 97/3/22
f 85/3/23 91/3/23 93/3/23 98/3/23
f 93/3/24 92/3/24 99/3/24 100/3/24
f 92/3/25 94/3/25 101/3/25 99/3/25
f 94/3/26 95/3/26 102/3/26 101/3/26
f 95/3/27 96/3/27 103/3/27 102/3/27
f 96/3/28 97/3/28 104/3/28 103/3/28
f 97/3/29 98/3/29 105/3/29 104/3/29
f 98/3/30 93/3/30 100/3/30 105/3/30
f 106/4/2 107/4/2 108/4/2 109/4/2 110/4/2 111/4/2 112/4/2
f 100/3/31 99/3/31 107/3/31 106/3/31
f 99/3/32 101/3/32 108/3/32 107/3/32
f 101/3/33 102/3/33 109/3/33 108/3/33
f 102/3/34 103/3/34 110/3/34 109/3/34
f 103/3/35 104/3/35 111/3/35 110/3/35
f 104/3/36 105/3/36 112/3/36 111/3/36
f 105/3/37 100/3/37 106/3/37 112/3/37
f 113/3/1 114/3/1 115/3/1 116/3/1 117/3/1 118/3/1 119/3/1
f 119/3/17 118/3/17 120/3/17 121/3/17
f 118/3/18 117/3/18 122/3/18 120/3/18
f 117/3/19 116/3/19 123/3/19 122/3/19
f 116/3/20 115/3/20 124/3/20 123/3/20
f 115/3/21 114/3/21 125/3/21 124/3/21
f 114/3/22 113/3/22 126/3/22 125/3/22
f 113/3/23 119/3/23 121/3/23 126/3/23
f 121/3/24 120/3/24 127/3/24 128/3/24
f 120/3/25 122/3/25 129/3/25 127/3/25
f 122/3/26 123/3/26 130/3/26 129/3/26
f 123/3/27 124/3/27 131/3/27 130/3/27
f 124/3/28 125/3/28 132/3/28 131/3/28
f 125/3/29 126/3/29 133/3/29 132/3/29
f 126/3/30 121/3/30 128/3/30 133/3/30
f 134/4/2 135/4/2 136/4/2 137/4/2 138/4/2 139/4/2 140/4/2
f 128/3/31 127/3/31 135/3/31 134/3/31
f 127/3/32 129/3/32 136/3/32 135/3/32
f 129/3/33 130/3/33 137/3/33 136/3/33
f 130/3/34 131/3/34 138/3/34 137/3/34
f 131/3/35 132/3/35 139/3/35 138/3/35
f 132/3/36 133/3/36 140/3/36 139/3/36
f 133/3/38 128/3/38 134/3/38 140/3/38
f 141/3/1 142/3/1 143/3/1 144/3/1 145/3/1 146/3/1 147/3/1
f 147/3/17 146/3/17 148/3/17 149/3/17
f 146/3/18 145/3/18 150/3/18 148/3/18
f 145/3/19 144/3/19 151/3/19 150/3/19
f 144/3/20 143/3/20 152/3/20 151/3/20
f 143/3/21 142/3/21 153/3/21 152/3/21
f 142/3/22 141/3/22 154/3/22 153/3/22
f 141/3/23 147/3/23 149/3/23 154/3/23
f 149/3/24 148/3/24 155/3/24 156/3/24
f 148/3/25 150/3/25 157/3/25 155/3/25
f 150/3/26 151/3/26 158/3/26 157/3/26
f 151/3/27 152/3/27 159/3/27 158/3/27
f 152/3/28 153/3/28 160/3/28 159/3/28
f 153/3/29 154/3/29 161/3/29 160/3/29
f 154/3/30 149/3/30 156/3/30 161/3/30
f 162/4/2 163/4/2 164/4/2 165/4/2 166/4/2 167/4/2 168/4/2
f 156/3/31 155/3/31 163/3/31 162/3/31
f 155/3/32 157/3/32 164/3/32 163/3/32
f 157/3/33 158/3/33 165/3/33 164/3/33
f 158/3/34 159/3/34 166/3/34 165/3/34
f 159/3/35 160/3/35 167/3/35 166/3/35
f 160/3/36 161/3/36 168/3/36 167/3/36
f 161/3/38 156/3/38 162/3/38 168/3/38
f 169/3/1 170/3/1 171/3/1 172/3/1 173/3/1 174/3/1 175/3/1
f 175/3/17 174/3/17 176/3/17 177/3/17
f 174/3/18 173/3/18 178/3/18 176/3/18
f 173/3/19 172/3/19 179/3/19 178/3/19
f 172/3/20 171/3/20 180/3/20 179/3/20
f 171/3/21 170/3/21 181/3/21 180/3/21
f 170/3/22 169/3/22 182/3/22 181/3/22
f 169/3/23 175/3/23 177/3/23 182/3/23
f 177/3/24 176/3/24 183/3/24 184/3/24
f 176/3/25 178/3/25 185/3/25 183/3/25
f 178/3/26 179/3/26 186/3/26 185/3/26
f 179/3/27 180/3/27 187/3/27 186/3/27
f 180/3/28 181/3/28 188/3/28 187/3/28
f 181/3/29 182/3/29 189/3/29 188/3/29
f 182/3/30 177/3/30 184/3/30 189/3/30
f 190/4/2 191/4/2 192/4/2 193/4/2 194/4/2 195/4/2 196/4/2
f 184/3/31 183/3/31 191/3/31 190/3/31
f 183/3/32 185/3/32 192/3/32 191/3/32
f 185/3/33 186/3/33 193/3/33 192/3/33
f 186/3/34 187/3/34 194/3/34 193/3/34
f 187/3/35 188/3/35 195/3/35 194/3/35
f 188/3/36 189/3/36 196/3/36 195/3/36
f 189/3/38 184/3/38 190/3/38 196/3/38
f 197/3/1 198/3/1 199/3/1 200/3/1 201/3/1 202/3/1 203/3/1
f 203/3/17 202/3/17 204/3/17 205/3/17
f 202/3/18 201/3/18 206/3/18 204/3/18
f 201/3/19 200/3/19 207/3/19 206/3/19
f 200/3/20 199/3/20 208/3/20 207/3/20
f 199/3/39 198/3/39 209/3/39 208/3/39
f 198/3/22 197/3/22 210/3/22 209/3/22
f 197/3/40 203/3/40 205/3/40 210/3/40
f 205/3/24 204/3/24 211/3/24 212/3/24
f 204/3/25 206/3/25 213/3/25 211/3/25
f 206/3/26 207/3/26 214/3/26 213/3/26
f 207/3/27 208/3/27 215/3/27 214/3/27
f 208/3/28 209/3/28 216/3/28 215/3/28
f 209/3/29 210/3/29 217/3/29 216/3/29
f 210/3/30 205/3/30 212/3/30 217/3/30
f 218/4/2 219/4/2 220/4/2 221/4/2 222/4/2 223/4/2 224/4/2
f 212/3/31 211/3/31 219/3/31 218/3/31
f 211/3/32 213/3/32 220/3/32 219/3/32
f 213/3/33 214/3/33 221/3/33 220/3/33
f 214/3/34 215/3/34 222/3/34 221/3/34
f 215/3/35 216/3/35 223/3/35 222/3/35
f 216/3/36 217/3/36 224/3/36 223/3/36
f 217/3/38 212/3/38 218/3/38 224/3/38
