# Blender 5.2.0 LTS
# www.blender.org
mtllib FN_Swing_Garden.mtl
o FN_Swing_Garden
v -0.780000 1.870000 0.035000
v -0.780000 1.870000 -0.035000
v 0.780000 1.870000 -0.035000
v 0.780000 1.870000 0.035000
v -0.780000 1.940000 0.035000
v 0.780000 1.940000 0.035000
v 0.780000 1.940000 -0.035000
v -0.780000 1.940000 -0.035000
v -0.730000 0.000000 0.540000
v -0.730000 0.000000 0.600000
v -0.730000 1.940000 0.075000
v -0.730000 1.940000 0.015000
v -0.670000 1.940000 0.015000
v -0.670000 1.940000 0.075000
v -0.670000 0.000000 0.600000
v -0.670000 0.000000 0.540000
v -0.730000 1.940000 -0.015000
v -0.730000 1.940000 -0.075000
v -0.730000 0.000000 -0.600000
v -0.730000 0.000000 -0.540000
v -0.670000 0.000000 -0.540000
v -0.670000 0.000000 -0.600000
v -0.670000 1.940000 -0.075000
v -0.670000 1.940000 -0.015000
v -0.528000 1.900000 0.050000
v -0.534000 1.910392 0.050000
v -0.546000 1.910392 0.050000
v -0.552000 1.900000 0.050000
v -0.546000 1.889608 0.050000
v -0.534000 1.889608 0.050000
v -0.534000 1.889608 -0.050000
v -0.546000 1.889608 -0.050000
v -0.552000 1.900000 -0.050000
v -0.546000 1.910392 -0.050000
v -0.534000 1.910392 -0.050000
v -0.528000 1.900000 -0.050000
v -0.540000 1.898449 -0.009879
v -0.550000 1.900000 0.000000
v -0.540000 1.901551 0.009879
v -0.530000 1.900000 0.000000
v -0.530000 0.690000 0.190000
v -0.540000 0.691551 0.199879
v -0.550000 0.690000 0.190000
v -0.540000 0.688449 0.180121
v -0.540000 1.897822 0.009760
v -0.540000 1.902178 -0.009760
v -0.550000 0.690000 -0.270000
v -0.540000 0.692178 -0.279760
v -0.530000 0.690000 -0.270000
v -0.540000 0.687822 -0.260240
v -0.560000 0.450000 0.250000
v -0.560000 0.450000 -0.250000
v -0.520000 0.450000 -0.250000
v -0.520000 0.450000 0.250000
v -0.560000 0.480000 0.250000
v -0.520000 0.480000 0.250000
v -0.520000 0.480000 -0.250000
v -0.560000 0.480000 -0.250000
v -0.560000 0.900000 -0.400000
v -0.560000 0.900000 -0.460000
v -0.560000 0.450000 -0.310000
v -0.520000 0.450000 -0.310000
v -0.520000 0.900000 -0.460000
v -0.520000 0.900000 -0.400000
v -0.560000 0.480000 0.220000
v -0.560000 0.480000 0.180000
v -0.520000 0.480000 0.180000
v -0.520000 0.480000 0.220000
v -0.560000 0.690000 0.220000
v -0.520000 0.690000 0.220000
v -0.520000 0.690000 0.180000
v -0.560000 0.690000 0.180000
v -0.560000 0.660000 0.220000
v -0.560000 0.660000 -0.300000
v -0.520000 0.660000 -0.300000
v -0.520000 0.660000 0.220000
v -0.520000 0.690000 -0.300000
v -0.560000 0.690000 -0.300000
v 0.670000 0.000000 0.540000
v 0.670000 0.000000 0.600000
v 0.670000 1.940000 0.075000
v 0.670000 1.940000 0.015000
v 0.730000 1.940000 0.015000
v 0.730000 1.940000 0.075000
v 0.730000 0.000000 0.600000
v 0.730000 0.000000 0.540000
v 0.670000 1.940000 -0.015000
v 0.670000 1.940000 -0.075000
v 0.670000 0.000000 -0.600000
v 0.670000 0.000000 -0.540000
v 0.730000 0.000000 -0.540000
v 0.730000 0.000000 -0.600000
v 0.730000 1.940000 -0.075000
v 0.730000 1.940000 -0.015000
v 0.552000 1.900000 0.050000
v 0.546000 1.910392 0.050000
v 0.534000 1.910392 0.050000
v 0.528000 1.900000 0.050000
v 0.534000 1.889608 0.050000
v 0.546000 1.889608 0.050000
v 0.546000 1.889608 -0.050000
v 0.534000 1.889608 -0.050000
v 0.528000 1.900000 -0.050000
v 0.534000 1.910392 -0.050000
v 0.546000 1.910392 -0.050000
v 0.552000 1.900000 -0.050000
v 0.540000 1.898449 -0.009879
v 0.530000 1.900000 0.000000
v 0.540000 1.901551 0.009879
v 0.550000 1.900000 0.000000
v 0.550000 0.690000 0.190000
v 0.540000 0.691551 0.199879
v 0.530000 0.690000 0.190000
v 0.540000 0.688449 0.180121
v 0.540000 1.897822 0.009760
v 0.540000 1.902178 -0.009760
v 0.530000 0.690000 -0.270000
v 0.540000 0.692178 -0.279760
v 0.550000 0.690000 -0.270000
v 0.540000 0.687822 -0.260240
v 0.520000 0.450000 0.250000
v 0.520000 0.450000 -0.250000
v 0.560000 0.450000 -0.250000
v 0.560000 0.450000 0.250000
v 0.520000 0.480000 0.250000
v 0.560000 0.480000 0.250000
v 0.560000 0.480000 -0.250000
v 0.520000 0.480000 -0.250000
v 0.520000 0.900000 -0.400000
v 0.520000 0.900000 -0.460000
v 0.520000 0.450000 -0.310000
v 0.560000 0.450000 -0.310000
v 0.560000 0.900000 -0.460000
v 0.560000 0.900000 -0.400000
v 0.520000 0.480000 0.220000
v 0.520000 0.480000 0.180000
v 0.560000 0.480000 0.180000
v 0.560000 0.480000 0.220000
v 0.520000 0.690000 0.220000
v 0.560000 0.690000 0.220000
v 0.560000 0.690000 0.180000
v 0.520000 0.690000 0.180000
v 0.520000 0.660000 0.220000
v 0.520000 0.660000 -0.300000
v 0.560000 0.660000 -0.300000
v 0.560000 0.660000 0.220000
v 0.560000 0.690000 -0.300000
v 0.520000 0.690000 -0.300000
v -0.560000 0.480000 0.174000
v 0.560000 0.480000 0.174000
v -0.560000 0.498000 0.250000
v 0.560000 0.498000 0.250000
v 0.560000 0.498000 0.174000
v -0.560000 0.498000 0.174000
v -0.560000 0.480000 0.144000
v -0.560000 0.480000 0.068000
v 0.560000 0.480000 0.068000
v 0.560000 0.480000 0.144000
v -0.560000 0.498000 0.144000
v 0.560000 0.498000 0.144000
v 0.560000 0.498000 0.068000
v -0.560000 0.498000 0.068000
v -0.560000 0.480000 0.038000
v -0.560000 0.480000 -0.038000
v 0.560000 0.480000 -0.038000
v 0.560000 0.480000 0.038000
v -0.560000 0.498000 0.038000
v 0.560000 0.498000 0.038000
v 0.560000 0.498000 -0.038000
v -0.560000 0.498000 -0.038000
v -0.560000 0.480000 -0.068000
v -0.560000 0.480000 -0.144000
v 0.560000 0.480000 -0.144000
v 0.560000 0.480000 -0.068000
v -0.560000 0.498000 -0.068000
v 0.560000 0.498000 -0.068000
v 0.560000 0.498000 -0.144000
v -0.560000 0.498000 -0.144000
v -0.560000 0.480000 -0.174000
v 0.560000 0.480000 -0.174000
v -0.560000 0.498000 -0.174000
v 0.560000 0.498000 -0.174000
v 0.560000 0.498000 -0.250000
v -0.560000 0.498000 -0.250000
v -0.560000 0.484153 -0.242411
v -0.560000 0.560047 -0.267709
v -0.560000 0.553090 -0.288580
v -0.560000 0.477196 -0.263282
v 0.560000 0.477196 -0.263282
v 0.560000 0.553090 -0.288580
v 0.560000 0.560047 -0.267709
v 0.560000 0.484153 -0.242411
v -0.560000 0.594200 -0.279093
v -0.560000 0.670095 -0.304391
v -0.560000 0.663137 -0.325262
v -0.560000 0.587243 -0.299964
v 0.560000 0.587243 -0.299964
v 0.560000 0.663137 -0.325262
v 0.560000 0.670095 -0.304391
v 0.560000 0.594200 -0.279093
v -0.560000 0.704247 -0.315775
v -0.560000 0.780142 -0.341074
v -0.560000 0.773185 -0.361945
v -0.560000 0.697290 -0.336646
v 0.560000 0.697290 -0.336646
v 0.560000 0.773185 -0.361945
v 0.560000 0.780142 -0.341074
v 0.560000 0.704247 -0.315775
v -0.560000 0.814294 -0.352458
v -0.560000 0.890189 -0.377756
v -0.560000 0.883232 -0.398627
v -0.560000 0.807337 -0.373329
v 0.560000 0.807337 -0.373329
v 0.560000 0.883232 -0.398627
v 0.560000 0.890189 -0.377756
v 0.560000 0.814294 -0.352458
vn -0.0000 -1.0000 -0.0000
vn -0.0000 1.0000 -0.0000
vn -0.0000 -0.0000 1.0000
vn -0.0000 -0.0000 -1.0000
vn -1.0000 -0.0000 -0.0000
vn 1.0000 -0.0000 -0.0000
vn -0.0000 0.2612 0.9653
vn -0.0000 -0.2612 -0.9653
vn -0.0000 0.2612 -0.9653
vn -0.0000 -0.2612 0.9653
vn 0.8660 0.5000 -0.0000
vn -0.8660 0.5000 -0.0000
vn -0.8660 -0.5000 -0.0000
vn 0.8660 -0.5000 -0.0000
vn -0.0000 0.9879 -0.1551
vn -0.0000 -0.9879 0.1551
vn 0.7071 0.1097 0.6985
vn -0.7071 0.1097 0.6985
vn -0.7071 -0.1097 -0.6985
vn 0.7071 -0.1097 -0.6985
vn -0.0000 0.9760 0.2178
vn -0.0000 -0.9760 -0.2178
vn -0.7071 0.1540 -0.6901
vn 0.7071 0.1540 -0.6901
vn 0.7071 -0.1540 0.6901
vn -0.7071 -0.1540 0.6901
vn -0.0000 -0.3162 -0.9487
vn -0.0000 0.3162 0.9487
vn -0.0000 0.9487 -0.3162
vn -0.0000 -0.9487 0.3162
vt 0.812500 0.937500
vt 0.312500 0.312500
vt 0.562500 0.937500
s 0
usemtl FN_Atlas
f 1/1/1 2/1/1 3/1/1 4/1/1
f 5/1/2 6/1/2 7/1/2 8/1/2
f 1/1/3 4/1/3 6/1/3 5/1/3
f 3/1/4 2/1/4 8/1/4 7/1/4
f 1/1/5 5/1/5 8/1/5 2/1/5
f 4/1/6 3/1/6 7/1/6 6/1/6
f 9/1/5 10/1/5 11/1/5 12/1/5
f 13/1/6 14/1/6 15/1/6 16/1/6
f 12/1/2 11/1/2 14/1/2 13/1/2
f 11/1/7 10/1/7 15/1/7 14/1/7
f 10/1/1 9/1/1 16/1/1 15/1/1
f 9/1/8 12/1/8 13/1/8 16/1/8
f 17/1/5 18/1/5 19/1/5 20/1/5
f 21/1/6 22/1/6 23/1/6 24/1/6
f 24/1/2 23/1/2 18/1/2 17/1/2
f 23/1/9 22/1/9 19/1/9 18/1/9
f 22/1/1 21/1/1 20/1/1 19/1/1
f 21/1/10 24/1/10 17/1/10 20/1/10
f 25/2/3 26/2/3 27/2/3 28/2/3 29/2/3 30/2/3
f 31/2/4 32/2/4 33/2/4 34/2/4 35/2/4 36/2/4
f 26/2/11 25/2/11 36/2/11 35/2/11
f 27/2/2 26/2/2 35/2/2 34/2/2
f 28/2/12 27/2/12 34/2/12 33/2/12
f 29/2/13 28/2/13 33/2/13 32/2/13
f 30/2/1 29/2/1 32/2/1 31/2/1
f 25/2/14 30/2/14 31/2/14 36/2/14
f 37/2/15 38/2/15 39/2/15 40/2/15
f 41/2/16 42/2/16 43/2/16 44/2/16
f 40/2/17 39/2/17 42/2/17 41/2/17
f 39/2/18 38/2/18 43/2/18 42/2/18
f 38/2/19 37/2/19 44/2/19 43/2/19
f 37/2/20 40/2/20 41/2/20 44/2/20
f 45/2/21 40/2/21 46/2/21 38/2/21
f 47/2/22 48/2/22 49/2/22 50/2/22
f 38/2/23 46/2/23 48/2/23 47/2/23
f 46/2/24 40/2/24 49/2/24 48/2/24
f 40/2/25 45/2/25 50/2/25 49/2/25
f 45/2/26 38/2/26 47/2/26 50/2/26
f 51/3/1 52/3/1 53/3/1 54/3/1
f 55/3/2 56/3/2 57/3/2 58/3/2
f 51/3/3 54/3/3 56/3/3 55/3/3
f 53/3/4 52/3/4 58/3/4 57/3/4
f 51/3/5 55/3/5 58/3/5 52/3/5
f 54/3/6 53/3/6 57/3/6 56/3/6
f 59/3/5 60/3/5 61/3/5 52/3/5
f 53/3/6 62/3/6 63/3/6 64/3/6
f 52/3/1 61/3/1 62/3/1 53/3/1
f 61/3/27 60/3/27 63/3/27 62/3/27
f 60/3/2 59/3/2 64/3/2 63/3/2
f 59/3/28 52/3/28 53/3/28 64/3/28
f 65/3/1 66/3/1 67/3/1 68/3/1
f 69/3/2 70/3/2 71/3/2 72/3/2
f 65/3/3 68/3/3 70/3/3 69/3/3
f 67/3/4 66/3/4 72/3/4 71/3/4
f 65/3/5 69/3/5 72/3/5 66/3/5
f 68/3/6 67/3/6 71/3/6 70/3/6
f 73/3/1 74/3/1 75/3/1 76/3/1
f 69/3/2 70/3/2 77/3/2 78/3/2
f 73/3/3 76/3/3 70/3/3 69/3/3
f 75/3/4 74/3/4 78/3/4 77/3/4
f 73/3/5 69/3/5 78/3/5 74/3/5
f 76/3/6 75/3/6 77/3/6 70/3/6
f 79/1/5 80/1/5 81/1/5 82/1/5
f 83/1/6 84/1/6 85/1/6 86/1/6
f 82/1/2 81/1/2 84/1/2 83/1/2
f 81/1/7 80/1/7 85/1/7 84/1/7
f 80/1/1 79/1/1 86/1/1 85/1/1
f 79/1/8 82/1/8 83/1/8 86/1/8
f 87/1/5 88/1/5 89/1/5 90/1/5
f 91/1/6 92/1/6 93/1/6 94/1/6
f 94/1/2 93/1/2 88/1/2 87/1/2
f 93/1/9 92/1/9 89/1/9 88/1/9
f 92/1/1 91/1/1 90/1/1 89/1/1
f 91/1/10 94/1/10 87/1/10 90/1/10
f 95/2/3 96/2/3 97/2/3 98/2/3 99/2/3 100/2/3
f 101/2/4 102/2/4 103/2/4 104/2/4 105/2/4 106/2/4
f 96/2/11 95/2/11 106/2/11 105/2/11
f 97/2/2 96/2/2 105/2/2 104/2/2
f 98/2/12 97/2/12 104/2/12 103/2/12
f 99/2/13 98/2/13 103/2/13 102/2/13
f 100/2/1 99/2/1 102/2/1 101/2/1
f 95/2/14 100/2/14 101/2/14 106/2/14
f 107/2/15 108/2/15 109/2/15 110/2/15
f 111/2/16 112/2/16 113/2/16 114/2/16
f 110/2/17 109/2/17 112/2/17 111/2/17
f 109/2/18 108/2/18 113/2/18 112/2/18
f 108/2/19 107/2/19 114/2/19 113/2/19
f 107/2/20 110/2/20 111/2/20 114/2/20
f 115/2/21 110/2/21 116/2/21 108/2/21
f 117/2/22 118/2/22 119/2/22 120/2/22
f 108/2/23 116/2/23 118/2/23 117/2/23
f 116/2/24 110/2/24 119/2/24 118/2/24
f 110/2/25 115/2/25 120/2/25 119/2/25
f 115/2/26 108/2/26 117/2/26 120/2/26
f 121/3/1 122/3/1 123/3/1 124/3/1
f 125/3/2 126/3/2 127/3/2 128/3/2
f 121/3/3 124/3/3 126/3/3 125/3/3
f 123/3/4 122/3/4 128/3/4 127/3/4
f 121/3/5 125/3/5 128/3/5 122/3/5
f 124/3/6 123/3/6 127/3/6 126/3/6
f 129/3/5 130/3/5 131/3/5 122/3/5
f 123/3/6 132/3/6 133/3/6 134/3/6
f 122/3/1 131/3/1 132/3/1 123/3/1
f 131/3/27 130/3/27 133/3/27 132/3/27
f 130/3/2 129/3/2 134/3/2 133/3/2
f 129/3/28 122/3/28 123/3/28 134/3/28
f 135/3/1 136/3/1 137/3/1 138/3/1
f 139/3/2 140/3/2 141/3/2 142/3/2
f 135/3/3 138/3/3 140/3/3 139/3/3
f 137/3/4 136/3/4 142/3/4 141/3/4
f 135/3/5 139/3/5 142/3/5 136/3/5
f 138/3/6 137/3/6 141/3/6 140/3/6
f 143/3/1 144/3/1 145/3/1 146/3/1
f 139/3/2 140/3/2 147/3/2 148/3/2
f 143/3/3 146/3/3 140/3/3 139/3/3
f 145/3/4 144/3/4 148/3/4 147/3/4
f 143/3/5 139/3/5 148/3/5 144/3/5
f 146/3/6 145/3/6 147/3/6 140/3/6
f 55/3/1 149/3/1 150/3/1 126/3/1
f 151/3/2 152/3/2 153/3/2 154/3/2
f 55/3/3 126/3/3 152/3/3 151/3/3
f 150/3/4 149/3/4 154/3/4 153/3/4
f 55/3/5 151/3/5 154/3/5 149/3/5
f 126/3/6 150/3/6 153/3/6 152/3/6
f 155/3/1 156/3/1 157/3/1 158/3/1
f 159/3/2 160/3/2 161/3/2 162/3/2
f 155/3/3 158/3/3 160/3/3 159/3/3
f 157/3/4 156/3/4 162/3/4 161/3/4
f 155/3/5 159/3/5 162/3/5 156/3/5
f 158/3/6 157/3/6 161/3/6 160/3/6
f 163/3/1 164/3/1 165/3/1 166/3/1
f 167/3/2 168/3/2 169/3/2 170/3/2
f 163/3/3 166/3/3 168/3/3 167/3/3
f 165/3/4 164/3/4 170/3/4 169/3/4
f 163/3/5 167/3/5 170/3/5 164/3/5
f 166/3/6 165/3/6 169/3/6 168/3/6
f 171/3/1 172/3/1 173/3/1 174/3/1
f 175/3/2 176/3/2 177/3/2 178/3/2
f 171/3/3 174/3/3 176/3/3 175/3/3
f 173/3/4 172/3/4 178/3/4 177/3/4
f 171/3/5 175/3/5 178/3/5 172/3/5
f 174/3/6 173/3/6 177/3/6 176/3/6
f 179/3/1 58/3/1 127/3/1 180/3/1
f 181/3/2 182/3/2 183/3/2 184/3/2
f 179/3/3 180/3/3 182/3/3 181/3/3
f 127/3/4 58/3/4 184/3/4 183/3/4
f 179/3/5 181/3/5 184/3/5 58/3/5
f 180/3/6 127/3/6 183/3/6 182/3/6
f 185/3/5 186/3/5 187/3/5 188/3/5
f 189/3/6 190/3/6 191/3/6 192/3/6
f 188/3/27 187/3/27 190/3/27 189/3/27
f 187/3/29 186/3/29 191/3/29 190/3/29
f 186/3/28 185/3/28 192/3/28 191/3/28
f 185/3/30 188/3/30 189/3/30 192/3/30
f 193/3/5 194/3/5 195/3/5 196/3/5
f 197/3/6 198/3/6 199/3/6 200/3/6
f 196/3/27 195/3/27 198/3/27 197/3/27
f 195/3/29 194/3/29 199/3/29 198/3/29
f 194/3/28 193/3/28 200/3/28 199/3/28
f 193/3/30 196/3/30 197/3/30 200/3/30
f 201/3/5 202/3/5 203/3/5 204/3/5
f 205/3/6 206/3/6 207/3/6 208/3/6
f 204/3/27 203/3/27 206/3/27 205/3/27
f 203/3/29 202/3/29 207/3/29 206/3/29
f 202/3/28 201/3/28 208/3/28 207/3/28
f 201/3/30 204/3/30 205/3/30 208/3/30
f 209/3/5 210/3/5 211/3/5 212/3/5
f 213/3/6 214/3/6 215/3/6 216/3/6
f 212/3/27 211/3/27 214/3/27 213/3/27
f 211/3/29 210/3/29 215/3/29 214/3/29
f 210/3/28 209/3/28 216/3/28 215/3/28
f 209/3/30 212/3/30 213/3/30 216/3/30
