# Blender 5.2.0 LTS
# www.blender.org
mtllib FN_Stool_Counter.mtl
o FN_Stool_Counter
v -0.099056 0.582000 0.159415
v -0.136563 0.582000 0.149365
v -0.164020 0.582000 0.121908
v -0.174070 0.582000 0.084401
v -0.174070 0.582000 -0.096401
v -0.164020 0.582000 -0.133908
v -0.136563 0.582000 -0.161365
v -0.099056 0.582000 -0.171415
v 0.099056 0.582000 -0.171415
v 0.136563 0.582000 -0.161365
v 0.164020 0.582000 -0.133908
v 0.174070 0.582000 -0.096401
v 0.174070 0.582000 0.084401
v 0.164020 0.582000 0.121908
v 0.136563 0.582000 0.149365
v 0.099056 0.582000 0.159415
v 0.142000 0.590000 0.155550
v 0.103000 0.590000 0.166000
v 0.170550 0.590000 0.127000
v 0.181000 0.590000 0.088000
v 0.181000 0.590000 -0.100000
v 0.170550 0.590000 -0.139000
v 0.142000 0.590000 -0.167550
v 0.103000 0.590000 -0.178000
v -0.103000 0.590000 -0.178000
v -0.142000 0.590000 -0.167550
v -0.170550 0.590000 -0.139000
v -0.181000 0.590000 -0.100000
v -0.181000 0.590000 0.088000
v -0.170550 0.590000 0.127000
v -0.142000 0.590000 0.155550
v -0.103000 0.590000 0.166000
v 0.142000 0.612000 0.155550
v 0.103000 0.612000 0.166000
v 0.170550 0.612000 0.127000
v 0.181000 0.612000 0.088000
v 0.181000 0.612000 -0.100000
v 0.170550 0.612000 -0.139000
v 0.142000 0.612000 -0.167550
v 0.103000 0.612000 -0.178000
v -0.103000 0.612000 -0.178000
v -0.142000 0.612000 -0.167550
v -0.170550 0.612000 -0.139000
v -0.181000 0.612000 -0.100000
v -0.181000 0.612000 0.088000
v -0.170550 0.612000 0.127000
v -0.142000 0.612000 0.155550
v -0.103000 0.612000 0.166000
v 0.099056 0.620000 0.159415
v 0.136563 0.620000 0.149365
v 0.164020 0.620000 0.121908
v 0.174070 0.620000 0.084401
v 0.174070 0.620000 -0.096401
v 0.164020 0.620000 -0.133908
v 0.136563 0.620000 -0.161365
v 0.099056 0.620000 -0.171415
v -0.099056 0.620000 -0.171415
v -0.136563 0.620000 -0.161365
v -0.164020 0.620000 -0.133908
v -0.174070 0.620000 -0.096401
v -0.174070 0.620000 0.084401
v -0.164020 0.620000 0.121908
v -0.136563 0.620000 0.149365
v -0.099056 0.620000 0.159415
v -0.113446 0.592644 0.103238
v -0.128269 0.593748 0.097123
v -0.142935 0.596172 0.103238
v -0.148851 0.598495 0.118000
v -0.142554 0.599356 0.132762
v -0.127731 0.598252 0.138877
v -0.113065 0.595828 0.132762
v -0.107149 0.593505 0.118000
v -0.182113 0.009099 0.182000
v -0.186621 0.010869 0.193248
v -0.197795 0.012716 0.197906
v -0.209088 0.013557 0.193248
v -0.213887 0.012901 0.182000
v -0.209379 0.011131 0.170752
v -0.198205 0.009284 0.166094
v -0.186912 0.008443 0.170752
v -0.147869 0.319848 0.161200
v -0.142657 0.317802 0.148195
v -0.160788 0.321984 0.166587
v -0.173847 0.322957 0.161200
v -0.179395 0.322198 0.148195
v -0.174182 0.320152 0.135190
v -0.161263 0.318016 0.129803
v -0.148205 0.317043 0.135190
v -0.189000 0.000000 0.197588
v -0.207000 0.000000 0.197588
v -0.216000 0.000000 0.182000
v -0.207000 0.000000 0.166412
v -0.189000 0.000000 0.166412
v -0.180000 0.000000 0.182000
v -0.182880 0.011000 0.182000
v -0.190440 0.011000 0.168906
v -0.205560 0.011000 0.168906
v -0.213120 0.011000 0.182000
v -0.205560 0.011000 0.195094
v -0.190440 0.011000 0.195094
v -0.189000 0.006050 0.166412
v -0.180000 0.006050 0.182000
v -0.207000 0.006050 0.166412
v -0.216000 0.006050 0.182000
v -0.207000 0.006050 0.197588
v -0.189000 0.006050 0.197588
v -0.113065 0.595828 -0.132762
v -0.127731 0.598252 -0.138877
v -0.142554 0.599356 -0.132762
v -0.148851 0.598495 -0.118000
v -0.142935 0.596172 -0.103238
v -0.128269 0.593748 -0.097123
v -0.113446 0.592644 -0.103238
v -0.107149 0.593505 -0.118000
v -0.182113 0.009099 -0.182000
v -0.186912 0.008443 -0.170752
v -0.198205 0.009284 -0.166094
v -0.209379 0.011131 -0.170752
v -0.213887 0.012901 -0.182000
v -0.209088 0.013557 -0.193248
v -0.197795 0.012716 -0.197906
v -0.186621 0.010869 -0.193248
v -0.148205 0.317043 -0.135190
v -0.142657 0.317802 -0.148195
v -0.161263 0.318016 -0.129803
v -0.174182 0.320152 -0.135190
v -0.179395 0.322198 -0.148195
v -0.173847 0.322957 -0.161200
v -0.160788 0.321984 -0.166587
v -0.147869 0.319848 -0.161200
v -0.189000 0.000000 -0.166412
v -0.207000 0.000000 -0.166412
v -0.216000 0.000000 -0.182000
v -0.207000 0.000000 -0.197588
v -0.189000 0.000000 -0.197588
v -0.180000 0.000000 -0.182000
v -0.182880 0.011000 -0.182000
v -0.190440 0.011000 -0.195094
v -0.205560 0.011000 -0.195094
v -0.213120 0.011000 -0.182000
v -0.205560 0.011000 -0.168906
v -0.190440 0.011000 -0.168906
v -0.189000 0.006050 -0.197588
v -0.180000 0.006050 -0.182000
v -0.207000 0.006050 -0.197588
v -0.216000 0.006050 -0.182000
v -0.207000 0.006050 -0.166412
v -0.189000 0.006050 -0.166412
v 0.142935 0.596172 0.103238
v 0.128269 0.593748 0.097123
v 0.113446 0.592644 0.103238
v 0.107149 0.593505 0.118000
v 0.113065 0.595828 0.132762
v 0.127731 0.598252 0.138877
v 0.142554 0.599356 0.132762
v 0.148851 0.598495 0.118000
v 0.213887 0.012901 0.182000
v 0.209088 0.013557 0.193248
v 0.197795 0.012716 0.197906
v 0.186621 0.010869 0.193248
v 0.182113 0.009099 0.182000
v 0.186912 0.008443 0.170752
v 0.198205 0.009284 0.166094
v 0.209379 0.011131 0.170752
v 0.173847 0.322957 0.161200
v 0.179395 0.322198 0.148195
v 0.160788 0.321984 0.166587
v 0.147869 0.319848 0.161200
v 0.142657 0.317802 0.148195
v 0.148205 0.317043 0.135190
v 0.161263 0.318016 0.129803
v 0.174182 0.320152 0.135190
v 0.207000 0.000000 0.197588
v 0.189000 0.000000 0.197588
v 0.180000 0.000000 0.182000
v 0.189000 0.000000 0.166412
v 0.207000 0.000000 0.166412
v 0.216000 0.000000 0.182000
v 0.213120 0.011000 0.182000
v 0.205560 0.011000 0.168906
v 0.190440 0.011000 0.168906
v 0.182880 0.011000 0.182000
v 0.190440 0.011000 0.195094
v 0.205560 0.011000 0.195094
v 0.207000 0.006050 0.166412
v 0.216000 0.006050 0.182000
v 0.189000 0.006050 0.166412
v 0.180000 0.006050 0.182000
v 0.189000 0.006050 0.197588
v 0.207000 0.006050 0.197588
v 0.142554 0.599356 -0.132762
v 0.127731 0.598252 -0.138877
v 0.113065 0.595828 -0.132762
v 0.107149 0.593505 -0.118000
v 0.113446 0.592644 -0.103238
v 0.128269 0.593748 -0.097123
v 0.142935 0.596172 -0.103238
v 0.148851 0.598495 -0.118000
v 0.213887 0.012901 -0.182000
v 0.209379 0.011131 -0.170752
v 0.198205 0.009284 -0.166094
v 0.186912 0.008443 -0.170752
v 0.182113 0.009099 -0.182000
v 0.186621 0.010869 -0.193248
v 0.197795 0.012716 -0.197906
v 0.209088 0.013557 -0.193248
v 0.174182 0.320152 -0.135190
v 0.179395 0.322198 -0.148195
v 0.161263 0.318016 -0.129803
v 0.148205 0.317043 -0.135190
v 0.142657 0.317802 -0.148195
v 0.147869 0.319848 -0.161200
v 0.160788 0.321984 -0.166587
v 0.173847 0.322957 -0.161200
v 0.207000 0.000000 -0.166412
v 0.189000 0.000000 -0.166412
v 0.180000 0.000000 -0.182000
v 0.189000 0.000000 -0.197588
v 0.207000 0.000000 -0.197588
v 0.216000 0.000000 -0.182000
v 0.213120 0.011000 -0.182000
v 0.205560 0.011000 -0.195094
v 0.190440 0.011000 -0.195094
v 0.182880 0.011000 -0.182000
v 0.190440 0.011000 -0.168906
v 0.205560 0.011000 -0.168906
v 0.207000 0.006050 -0.197588
v 0.216000 0.006050 -0.182000
v 0.189000 0.006050 -0.197588
v 0.180000 0.006050 -0.182000
v 0.189000 0.006050 -0.166412
v 0.207000 0.006050 -0.166412
v -0.174786 0.217124 0.167776
v -0.174786 0.217124 0.153776
v -0.174786 0.205000 0.146776
v -0.174786 0.192876 0.153776
v -0.174786 0.192876 0.167776
v -0.174786 0.205000 0.174776
v 0.174786 0.205000 0.174776
v 0.174786 0.192876 0.167776
v 0.174786 0.192876 0.153776
v 0.174786 0.205000 0.146776
v 0.174786 0.217124 0.153776
v 0.174786 0.217124 0.167776
v -0.174786 0.217124 -0.153776
v -0.174786 0.217124 -0.167776
v -0.174786 0.205000 -0.174776
v -0.174786 0.192876 -0.167776
v -0.174786 0.192876 -0.153776
v -0.174786 0.205000 -0.146776
v 0.174786 0.205000 -0.146776
v 0.174786 0.192876 -0.153776
v 0.174786 0.192876 -0.167776
v 0.174786 0.205000 -0.174776
v 0.174786 0.217124 -0.167776
v 0.174786 0.217124 -0.153776
v -0.167786 0.217124 0.160776
v -0.181786 0.217124 0.160776
v -0.188786 0.205000 0.160776
v -0.181786 0.192876 0.160776
v -0.167786 0.192876 0.160776
v -0.160786 0.205000 0.160776
v -0.160786 0.205000 -0.160776
v -0.167786 0.192876 -0.160776
v -0.181786 0.192876 -0.160776
v -0.188786 0.205000 -0.160776
v -0.181786 0.217124 -0.160776
v -0.167786 0.217124 -0.160776
v 0.181786 0.217124 0.160776
v 0.167786 0.217124 0.160776
v 0.160786 0.205000 0.160776
v 0.167786 0.192876 0.160776
v 0.181786 0.192876 0.160776
v 0.188786 0.205000 0.160776
v 0.188786 0.205000 -0.160776
v 0.181786 0.192876 -0.160776
v 0.167786 0.192876 -0.160776
v 0.160786 0.205000 -0.160776
v 0.167786 0.217124 -0.160776
v 0.181786 0.217124 -0.160776
v -0.161466 0.569851 -0.145362
v -0.148052 0.570878 -0.150881
v -0.134820 0.573316 -0.145362
v -0.129523 0.575737 -0.132037
v -0.135263 0.576723 -0.118713
v -0.148678 0.575696 -0.113193
v -0.161909 0.573258 -0.118713
v -0.167206 0.570837 -0.132037
v 0.167206 0.570837 -0.132037
v 0.161909 0.573258 -0.118713
v 0.148678 0.575696 -0.113193
v 0.135263 0.576723 -0.118713
v 0.129523 0.575737 -0.132037
v 0.134820 0.573316 -0.145362
v 0.148052 0.570878 -0.150881
v 0.161466 0.569851 -0.145362
v -0.169657 0.633703 -0.126570
v -0.174997 0.631959 -0.139983
v -0.156316 0.634449 -0.120831
v -0.142790 0.633761 -0.126127
v -0.137003 0.632041 -0.139357
v -0.142343 0.630297 -0.152770
v -0.155684 0.629551 -0.158509
v -0.169210 0.630239 -0.153213
v -0.161567 0.695880 -0.134653
v -0.166730 0.695491 -0.148242
v -0.148670 0.693242 -0.128474
v -0.135594 0.689124 -0.133325
v -0.129999 0.685936 -0.146363
v -0.135162 0.685547 -0.159952
v -0.148059 0.688184 -0.166131
v -0.161135 0.692303 -0.161281
v -0.137961 0.752277 -0.141985
v -0.142557 0.753230 -0.155748
v -0.126479 0.746288 -0.135370
v -0.114837 0.738770 -0.139779
v -0.109856 0.734128 -0.152628
v -0.114453 0.735081 -0.166392
v -0.125935 0.741071 -0.173006
v -0.137576 0.748588 -0.168598
v -0.100787 0.797521 -0.147867
v -0.104343 0.799729 -0.161793
v -0.091905 0.788396 -0.140844
v -0.082899 0.777700 -0.144840
v -0.079046 0.771698 -0.157512
v -0.082602 0.773906 -0.171439
v -0.091484 0.783031 -0.178461
v -0.100490 0.793727 -0.174466
v -0.053268 0.826982 -0.151697
v -0.055248 0.830157 -0.165749
v -0.048324 0.815441 -0.144360
v -0.043311 0.802295 -0.148037
v -0.041165 0.795244 -0.160573
v -0.043145 0.798420 -0.174626
v -0.048090 0.809961 -0.181962
v -0.053103 0.823107 -0.178285
v 0.000000 0.837246 -0.153031
v 0.000000 0.840798 -0.167132
v 0.000000 0.824762 -0.145572
v 0.000000 0.810661 -0.149124
v 0.000000 0.803202 -0.161608
v 0.000000 0.806754 -0.175709
v 0.000000 0.819238 -0.183168
v 0.000000 0.833339 -0.179616
v 0.053268 0.826982 -0.151697
v 0.055248 0.830157 -0.165749
v 0.048324 0.815441 -0.144360
v 0.043311 0.802295 -0.148037
v 0.041165 0.795244 -0.160573
v 0.043145 0.798420 -0.174626
v 0.048090 0.809961 -0.181962
v 0.053103 0.823107 -0.178285
v 0.100787 0.797521 -0.147867
v 0.104343 0.799729 -0.161793
v 0.091905 0.788396 -0.140844
v 0.082899 0.777700 -0.144840
v 0.079046 0.771698 -0.157512
v 0.082602 0.773906 -0.171439
v 0.091484 0.783031 -0.178461
v 0.100490 0.793727 -0.174466
v 0.137961 0.752277 -0.141985
v 0.142557 0.753230 -0.155748
v 0.126479 0.746288 -0.135370
v 0.114837 0.738770 -0.139779
v 0.109856 0.734128 -0.152628
v 0.114453 0.735081 -0.166392
v 0.125935 0.741071 -0.173006
v 0.137576 0.748588 -0.168598
v 0.161567 0.695880 -0.134653
v 0.166730 0.695491 -0.148242
v 0.148670 0.693242 -0.128474
v 0.135594 0.689124 -0.133325
v 0.129999 0.685936 -0.146363
v 0.135162 0.685547 -0.159952
v 0.148059 0.688184 -0.166131
v 0.161135 0.692303 -0.161281
v 0.169657 0.633703 -0.126570
v 0.174997 0.631959 -0.139983
v 0.156316 0.634449 -0.120831
v 0.142790 0.633761 -0.126127
v 0.137003 0.632041 -0.139357
v 0.142343 0.630297 -0.152770
v 0.155684 0.629551 -0.158509
v 0.169210 0.630239 -0.153213
vn -0.0000 -1.0000 -0.0000
vn 0.1902 -0.6781 0.7099
vn 0.4932 -0.7165 0.4932
vn 0.6992 -0.6900 0.1873
vn 0.7558 -0.6547 -0.0000
vn 0.6992 -0.6900 -0.1873
vn 0.4932 -0.7165 -0.4932
vn 0.1902 -0.6781 -0.7099
vn -0.0000 -0.6355 -0.7721
vn -0.1902 -0.6781 -0.7099
vn -0.4932 -0.7165 -0.4932
vn -0.6992 -0.6900 -0.1873
vn -0.7558 -0.6547 -0.0000
vn -0.6992 -0.6900 0.1873
vn -0.4932 -0.7165 0.4932
vn -0.1902 -0.6781 0.7099
vn -0.0000 -0.6355 0.7721
vn 0.2588 -0.0000 0.9659
vn 0.7071 -0.0000 0.7071
vn 0.9659 -0.0000 0.2588
vn 1.0000 -0.0000 -0.0000
vn 0.9659 -0.0000 -0.2588
vn 0.7071 -0.0000 -0.7071
vn 0.2588 -0.0000 -0.9659
vn -0.0000 -0.0000 -1.0000
vn -0.2588 -0.0000 -0.9659
vn -0.7071 -0.0000 -0.7071
vn -0.9659 -0.0000 -0.2588
vn -1.0000 -0.0000 -0.0000
vn -0.9659 -0.0000 0.2588
vn -0.7071 -0.0000 0.7071
vn -0.2588 -0.0000 0.9659
vn -0.0000 -0.0000 1.0000
vn -0.0000 1.0000 -0.0000
vn 0.1902 0.6781 0.7099
vn 0.4932 0.7165 0.4932
vn 0.6992 0.6899 0.1873
vn 0.7559 0.6547 -0.0000
vn 0.6992 0.6899 -0.1873
vn 0.4932 0.7165 -0.4932
vn 0.1902 0.6781 -0.7099
vn -0.0000 0.6355 -0.7721
vn -0.1902 0.6781 -0.7099
vn -0.4932 0.7165 -0.4932
vn -0.6992 0.6899 -0.1873
vn -0.7559 0.6547 -0.0000
vn -0.6992 0.6899 0.1873
vn -0.4932 0.7165 0.4932
vn -0.1902 0.6781 0.7099
vn -0.0000 0.6355 0.7721
vn 0.1181 0.9871 -0.1080
vn -0.1181 -0.9871 0.1080
vn 0.9212 -0.0769 0.3813
vn 0.3908 0.0454 0.9193
vn -0.3691 0.1364 0.9193
vn -0.9134 0.1426 0.3813
vn -0.9232 0.0606 -0.3795
vn -0.3928 -0.0617 -0.9176
vn 0.3671 -0.1527 -0.9176
vn 0.9114 -0.1589 -0.3795
vn 0.9213 -0.0760 0.3812
vn 0.3909 0.0463 0.9192
vn -0.3690 0.1372 0.9192
vn -0.9133 0.1435 0.3812
vn -0.9231 0.0614 -0.3796
vn -0.3927 -0.0609 -0.9177
vn 0.3672 -0.1518 -0.9177
vn 0.9115 -0.1581 -0.3796
vn 0.8660 -0.0000 -0.5000
vn -0.8660 -0.0000 -0.5000
vn -0.8660 -0.0000 0.5000
vn 0.8660 -0.0000 0.5000
vn 0.7734 0.4500 -0.4465
vn -0.0000 0.4500 -0.8930
vn -0.7734 0.4500 -0.4465
vn -0.7734 0.4500 0.4465
vn -0.0000 0.4500 0.8930
vn 0.7734 0.4500 0.4465
vn 0.1181 0.9871 0.1080
vn -0.1181 -0.9871 -0.1080
vn 0.9114 -0.1589 0.3795
vn 0.3671 -0.1527 0.9176
vn -0.3928 -0.0617 0.9176
vn -0.9232 0.0606 0.3795
vn -0.9134 0.1426 -0.3813
vn -0.3691 0.1364 -0.9193
vn 0.3908 0.0454 -0.9193
vn 0.9212 -0.0769 -0.3813
vn 0.9115 -0.1581 0.3796
vn 0.3672 -0.1518 0.9177
vn -0.3927 -0.0609 0.9177
vn -0.9231 0.0614 0.3796
vn -0.9133 0.1435 -0.3812
vn -0.3690 0.1372 -0.9192
vn 0.3909 0.0463 -0.9192
vn 0.9213 -0.0760 -0.3812
vn -0.1181 0.9871 -0.1080
vn 0.1181 -0.9871 0.1080
vn 0.9134 0.1426 0.3813
vn 0.3691 0.1364 0.9193
vn -0.3908 0.0454 0.9193
vn -0.9212 -0.0769 0.3813
vn -0.9114 -0.1589 -0.3795
vn -0.3671 -0.1527 -0.9176
vn 0.3928 -0.0617 -0.9176
vn 0.9232 0.0606 -0.3795
vn 0.9133 0.1435 0.3812
vn 0.3690 0.1372 0.9192
vn -0.3909 0.0463 0.9192
vn -0.9213 -0.0760 0.3812
vn -0.9115 -0.1581 -0.3796
vn -0.3672 -0.1518 -0.9177
vn 0.3927 -0.0609 -0.9177
vn 0.9231 0.0614 -0.3796
vn -0.1181 0.9871 0.1080
vn 0.1181 -0.9871 -0.1080
vn 0.9232 0.0606 0.3795
vn 0.3928 -0.0617 0.9176
vn -0.3671 -0.1527 0.9176
vn -0.9114 -0.1589 0.3795
vn -0.9212 -0.0769 -0.3813
vn -0.3908 0.0454 -0.9193
vn 0.3691 0.1364 -0.9193
vn 0.9134 0.1426 -0.3813
vn 0.9231 0.0614 0.3796
vn 0.3927 -0.0609 0.9177
vn -0.3672 -0.1518 0.9177
vn -0.9115 -0.1581 0.3796
vn -0.9213 -0.0760 -0.3812
vn -0.3909 0.0463 -0.9192
vn 0.3690 0.1372 -0.9192
vn 0.9133 0.1435 -0.3812
vn -0.0000 -0.5000 0.8660
vn -0.0000 -0.5000 -0.8660
vn -0.0000 0.5000 -0.8660
vn -0.0000 0.5000 0.8660
vn 0.8660 -0.5000 -0.0000
vn -0.8660 -0.5000 -0.0000
vn -0.8660 0.5000 -0.0000
vn 0.8660 0.5000 -0.0000
vn 0.1279 -0.9835 0.1279
vn -0.1279 -0.9835 0.1279
vn -0.9232 -0.0689 0.3780
vn -0.3961 0.0679 0.9157
vn 0.3655 0.1669 0.9157
vn 0.9102 0.1696 0.3778
vn 0.9227 0.0730 -0.3785
vn 0.3961 -0.0671 -0.9158
vn -0.3656 -0.1663 -0.9158
vn -0.9107 -0.1656 -0.3785
vn -0.9235 0.1652 0.3462
vn -0.3975 0.1690 0.9019
vn 0.3669 0.0729 0.9274
vn 0.9111 -0.0655 0.4070
vn 0.9235 -0.1650 -0.3462
vn 0.3975 -0.1689 -0.9019
vn -0.3669 -0.0728 -0.9274
vn -0.9110 0.0656 -0.4070
vn -0.8601 0.4010 0.3152
vn -0.3705 0.2706 0.8885
vn 0.3421 -0.0209 0.9394
vn 0.8487 -0.2980 0.4369
vn 0.8603 -0.4006 -0.3152
vn 0.3706 -0.2705 -0.8885
vn -0.3420 0.0210 -0.9395
vn -0.8486 0.2984 -0.4369
vn -0.7222 0.6304 0.2846
vn -0.3117 0.3698 0.8753
vn 0.2878 -0.1126 0.9511
vn 0.7130 -0.5243 0.4655
vn 0.7227 -0.6298 -0.2847
vn 0.3118 -0.3697 -0.8753
vn -0.2877 0.1127 -0.9511
vn -0.7125 0.5250 -0.4656
vn -0.4940 0.8304 0.2575
vn -0.2138 0.4569 0.8634
vn 0.1975 -0.1931 0.9611
vn 0.4883 -0.7221 0.4901
vn 0.4949 -0.8299 -0.2576
vn 0.2139 -0.4568 -0.8635
vn -0.1974 0.1932 -0.9611
vn -0.4874 0.7226 -0.4901
vn -0.1778 0.9542 0.2405
vn -0.0771 0.5113 0.8560
vn 0.0713 -0.2435 0.9673
vn 0.1760 -0.8449 0.5051
vn 0.1783 -0.9541 -0.2405
vn 0.0772 -0.5113 -0.8560
vn -0.0712 0.2435 -0.9673
vn -0.1754 0.8450 -0.5051
vn 0.1778 0.9542 0.2405
vn 0.0771 0.5113 0.8560
vn -0.0713 -0.2435 0.9673
vn -0.1760 -0.8449 0.5051
vn -0.1783 -0.9541 -0.2405
vn -0.0772 -0.5113 -0.8560
vn 0.0712 0.2435 -0.9673
vn 0.1754 0.8450 -0.5051
vn 0.4940 0.8304 0.2575
vn 0.2138 0.4569 0.8634
vn -0.1975 -0.1931 0.9611
vn -0.4883 -0.7221 0.4901
vn -0.4949 -0.8299 -0.2576
vn -0.2139 -0.4568 -0.8635
vn 0.1974 0.1932 -0.9611
vn 0.4874 0.7226 -0.4901
vn 0.7222 0.6304 0.2846
vn 0.3117 0.3698 0.8753
vn -0.2878 -0.1126 0.9511
vn -0.7130 -0.5243 0.4655
vn -0.7227 -0.6298 -0.2847
vn -0.3118 -0.3697 -0.8753
vn 0.2877 0.1127 -0.9511
vn 0.7125 0.5250 -0.4656
vn 0.8601 0.4010 0.3152
vn 0.3705 0.2706 0.8885
vn -0.3421 -0.0209 0.9394
vn -0.8487 -0.2980 0.4369
vn -0.8603 -0.4006 -0.3152
vn -0.3706 -0.2705 -0.8885
vn 0.3420 0.0210 -0.9395
vn 0.8486 0.2984 -0.4369
vn 0.9235 0.1652 0.3462
vn 0.3975 0.1690 0.9019
vn -0.3669 0.0729 0.9274
vn -0.9111 -0.0655 0.4070
vn -0.9235 -0.1650 -0.3462
vn -0.3975 -0.1689 -0.9019
vn 0.3669 -0.0728 -0.9274
vn 0.9110 0.0656 -0.4070
vn 0.9232 -0.0689 0.3780
vn 0.3961 0.0679 0.9157
vn -0.3655 0.1669 0.9157
vn -0.9102 0.1696 0.3778
vn -0.9227 0.0730 -0.3785
vn -0.3961 -0.0671 -0.9158
vn 0.3656 -0.1663 -0.9158
vn 0.9107 -0.1656 -0.3785
vt 0.562500 0.937500
vt 0.437500 0.937500
vt 0.812500 0.937500
vt 0.812500 0.312500
s 0
usemtl FN_Atlas
f 1/1/1 2/1/1 3/1/1 4/1/1 5/1/1 6/1/1 7/1/1 8/1/1 9/1/1 10/1/1 11/1/1 12/1/1 13/1/1 14/1/1 15/1/1 16/1/1
f 16/1/2 15/1/2 17/1/2 18/1/2
f 15/1/3 14/1/3 19/1/3 17/1/3
f 14/1/4 13/1/4 20/1/4 19/1/4
f 13/1/5 12/1/5 21/1/5 20/1/5
f 12/1/6 11/1/6 22/1/6 21/1/6
f 11/1/7 10/1/7 23/1/7 22/1/7
f 10/1/8 9/1/8 24/1/8 23/1/8
f 9/1/9 8/1/9 25/1/9 24/1/9
f 8/1/10 7/1/10 26/1/10 25/1/10
f 7/1/11 6/1/11 27/1/11 26/1/11
f 6/1/12 5/1/12 28/1/12 27/1/12
f 5/1/13 4/1/13 29/1/13 28/1/13
f 4/1/14 3/1/14 30/1/14 29/1/14
f 3/1/15 2/1/15 31/1/15 30/1/15
f 2/1/16 1/1/16 32/1/16 31/1/16
f 1/1/17 16/1/17 18/1/17 32/1/17
f 18/1/18 17/1/18 33/1/18 34/1/18
f 17/1/19 19/1/19 35/1/19 33/1/19
f 19/1/20 20/1/20 36/1/20 35/1/20
f 20/1/21 21/1/21 37/1/21 36/1/21
f 21/1/22 22/1/22 38/1/22 37/1/22
f 22/1/23 23/1/23 39/1/23 38/1/23
f 23/1/24 24/1/24 40/1/24 39/1/24
f 24/1/25 25/1/25 41/1/25 40/1/25
f 25/1/26 26/1/26 42/1/26 41/1/26
f 26/1/27 27/1/27 43/1/27 42/1/27
f 27/1/28 28/1/28 44/1/28 43/1/28
f 28/1/29 29/1/29 45/1/29 44/1/29
f 29/1/30 30/1/30 46/1/30 45/1/30
f 30/1/31 31/1/31 47/1/31 46/1/31
f 31/1/32 32/1/32 48/1/32 47/1/32
f 32/1/33 18/1/33 34/1/33 48/1/33
f 49/2/34 50/2/34 51/2/34 52/2/34 53/2/34 54/2/34 55/2/34 56/2/34 57/2/34 58/2/34 59/2/34 60/2/34 61/2/34 62/2/34 63/2/34 64/2/34
f 34/1/35 33/1/35 50/1/35 49/1/35
f 33/1/36 35/1/36 51/1/36 50/1/36
f 35/1/37 36/1/37 52/1/37 51/1/37
f 36/1/38 37/1/38 53/1/38 52/1/38
f 37/1/39 38/1/39 54/1/39 53/1/39
f 38/1/40 39/1/40 55/1/40 54/1/40
f 39/1/41 40/1/41 56/1/41 55/1/41
f 40/1/42 41/1/42 57/1/42 56/1/42
f 41/1/43 42/1/43 58/1/43 57/1/43
f 42/1/44 43/1/44 59/1/44 58/1/44
f 43/1/45 44/1/45 60/1/45 59/1/45
f 44/1/46 45/1/46 61/1/46 60/1/46
f 45/1/47 46/1/47 62/1/47 61/1/47
f 46/1/48 47/1/48 63/1/48 62/1/48
f 47/1/49 48/1/49 64/1/49 63/1/49
f 48/1/50 34/1/50 49/1/50 64/1/50
f 65/3/51 66/3/51 67/3/51 68/3/51 69/3/51 70/3/51 71/3/51 72/3/51
f 73/3/52 74/3/52 75/3/52 76/3/52 77/3/52 78/3/52 79/3/52 80/3/52
f 72/3/53 71/3/53 81/3/53 82/3/53
f 71/3/54 70/3/54 83/3/54 81/3/54
f 70/3/55 69/3/55 84/3/55 83/3/55
f 69/3/56 68/3/56 85/3/56 84/3/56
f 68/3/57 67/3/57 86/3/57 85/3/57
f 67/3/58 66/3/58 87/3/58 86/3/58
f 66/3/59 65/3/59 88/3/59 87/3/59
f 65/3/60 72/3/60 82/3/60 88/3/60
f 82/3/61 81/3/61 74/3/61 73/3/61
f 81/3/62 83/3/62 75/3/62 74/3/62
f 83/3/63 84/3/63 76/3/63 75/3/63
f 84/3/64 85/3/64 77/3/64 76/3/64
f 85/3/65 86/3/65 78/3/65 77/3/65
f 86/3/66 87/3/66 79/3/66 78/3/66
f 87/3/67 88/3/67 80/3/67 79/3/67
f 88/3/68 82/3/68 73/3/68 80/3/68
f 89/4/1 90/4/1 91/4/1 92/4/1 93/4/1 94/4/1
f 95/4/34 96/4/34 97/4/34 98/4/34 99/4/34 100/4/34
f 94/4/69 93/4/69 101/4/69 102/4/69
f 93/4/25 92/4/25 103/4/25 101/4/25
f 92/4/70 91/4/70 104/4/70 103/4/70
f 91/4/71 90/4/71 105/4/71 104/4/71
f 90/4/33 89/4/33 106/4/33 105/4/33
f 89/4/72 94/4/72 102/4/72 106/4/72
f 102/4/73 101/4/73 96/4/73 95/4/73
f 101/4/74 103/4/74 97/4/74 96/4/74
f 103/4/75 104/4/75 98/4/75 97/4/75
f 104/4/76 105/4/76 99/4/76 98/4/76
f 105/4/77 106/4/77 100/4/77 99/4/77
f 106/4/78 102/4/78 95/4/78 100/4/78
f 107/3/79 108/3/79 109/3/79 110/3/79 111/3/79 112/3/79 113/3/79 114/3/79
f 115/3/80 116/3/80 117/3/80 118/3/80 119/3/80 120/3/80 121/3/80 122/3/80
f 114/3/81 113/3/81 123/3/81 124/3/81
f 113/3/82 112/3/82 125/3/82 123/3/82
f 112/3/83 111/3/83 126/3/83 125/3/83
f 111/3/84 110/3/84 127/3/84 126/3/84
f 110/3/85 109/3/85 128/3/85 127/3/85
f 109/3/86 108/3/86 129/3/86 128/3/86
f 108/3/87 107/3/87 130/3/87 129/3/87
f 107/3/88 114/3/88 124/3/88 130/3/88
f 124/3/89 123/3/89 116/3/89 115/3/89
f 123/3/90 125/3/90 117/3/90 116/3/90
f 125/3/91 126/3/91 118/3/91 117/3/91
f 126/3/92 127/3/92 119/3/92 118/3/92
f 127/3/93 128/3/93 120/3/93 119/3/93
f 128/3/94 129/3/94 121/3/94 120/3/94
f 129/3/95 130/3/95 122/3/95 121/3/95
f 130/3/96 124/3/96 115/3/96 122/3/96
f 131/4/1 132/4/1 133/4/1 134/4/1 135/4/1 136/4/1
f 137/4/34 138/4/34 139/4/34 140/4/34 141/4/34 142/4/34
f 136/4/69 135/4/69 143/4/69 144/4/69
f 135/4/25 134/4/25 145/4/25 143/4/25
f 134/4/70 133/4/70 146/4/70 145/4/70
f 133/4/71 132/4/71 147/4/71 146/4/71
f 132/4/33 131/4/33 148/4/33 147/4/33
f 131/4/72 136/4/72 144/4/72 148/4/72
f 144/4/73 143/4/73 138/4/73 137/4/73
f 143/4/74 145/4/74 139/4/74 138/4/74
f 145/4/75 146/4/75 140/4/75 139/4/75
f 146/4/76 147/4/76 141/4/76 140/4/76
f 147/4/77 148/4/77 142/4/77 141/4/77
f 148/4/78 144/4/78 137/4/78 142/4/78
f 149/3/97 150/3/97 151/3/97 152/3/97 153/3/97 154/3/97 155/3/97 156/3/97
f 157/3/98 158/3/98 159/3/98 160/3/98 161/3/98 162/3/98 163/3/98 164/3/98
f 156/3/99 155/3/99 165/3/99 166/3/99
f 155/3/100 154/3/100 167/3/100 165/3/100
f 154/3/101 153/3/101 168/3/101 167/3/101
f 153/3/102 152/3/102 169/3/102 168/3/102
f 152/3/103 151/3/103 170/3/103 169/3/103
f 151/3/104 150/3/104 171/3/104 170/3/104
f 150/3/105 149/3/105 172/3/105 171/3/105
f 149/3/106 156/3/106 166/3/106 172/3/106
f 166/3/107 165/3/107 158/3/107 157/3/107
f 165/3/108 167/3/108 159/3/108 158/3/108
f 167/3/109 168/3/109 160/3/109 159/3/109
f 168/3/110 169/3/110 161/3/110 160/3/110
f 169/3/111 170/3/111 162/3/111 161/3/111
f 170/3/112 171/3/112 163/3/112 162/3/112
f 171/3/113 172/3/113 164/3/113 163/3/113
f 172/3/114 166/3/114 157/3/114 164/3/114
f 173/4/1 174/4/1 175/4/1 176/4/1 177/4/1 178/4/1
f 179/4/34 180/4/34 181/4/34 182/4/34 183/4/34 184/4/34
f 178/4/69 177/4/69 185/4/69 186/4/69
f 177/4/25 176/4/25 187/4/25 185/4/25
f 176/4/70 175/4/70 188/4/70 187/4/70
f 175/4/71 174/4/71 189/4/71 188/4/71
f 174/4/33 173/4/33 190/4/33 189/4/33
f 173/4/72 178/4/72 186/4/72 190/4/72
f 186/4/73 185/4/73 180/4/73 179/4/73
f 185/4/74 187/4/74 181/4/74 180/4/74
f 187/4/75 188/4/75 182/4/75 181/4/75
f 188/4/76 189/4/76 183/4/76 182/4/76
f 189/4/77 190/4/77 184/4/77 183/4/77
f 190/4/78 186/4/78 179/4/78 184/4/78
f 191/3/115 192/3/115 193/3/115 194/3/115 195/3/115 196/3/115 197/3/115 198/3/115
f 199/3/116 200/3/116 201/3/116 202/3/116 203/3/116 204/3/116 205/3/116 206/3/116
f 198/3/117 197/3/117 207/3/117 208/3/117
f 197/3/118 196/3/118 209/3/118 207/3/118
f 196/3/119 195/3/119 210/3/119 209/3/119
f 195/3/120 194/3/120 211/3/120 210/3/120
f 194/3/121 193/3/121 212/3/121 211/3/121
f 193/3/122 192/3/122 213/3/122 212/3/122
f 192/3/123 191/3/123 214/3/123 213/3/123
f 191/3/124 198/3/124 208/3/124 214/3/124
f 208/3/125 207/3/125 200/3/125 199/3/125
f 207/3/126 209/3/126 201/3/126 200/3/126
f 209/3/127 210/3/127 202/3/127 201/3/127
f 210/3/128 211/3/128 203/3/128 202/3/128
f 211/3/129 212/3/129 204/3/129 203/3/129
f 212/3/130 213/3/130 205/3/130 204/3/130
f 213/3/131 214/3/131 206/3/131 205/3/131
f 214/3/132 208/3/132 199/3/132 206/3/132
f 215/4/1 216/4/1 217/4/1 218/4/1 219/4/1 220/4/1
f 221/4/34 222/4/34 223/4/34 224/4/34 225/4/34 226/4/34
f 220/4/69 219/4/69 227/4/69 228/4/69
f 219/4/25 218/4/25 229/4/25 227/4/25
f 218/4/70 217/4/70 230/4/70 229/4/70
f 217/4/71 216/4/71 231/4/71 230/4/71
f 216/4/33 215/4/33 232/4/33 231/4/33
f 215/4/72 220/4/72 228/4/72 232/4/72
f 228/4/73 227/4/73 222/4/73 221/4/73
f 227/4/74 229/4/74 223/4/74 222/4/74
f 229/4/75 230/4/75 224/4/75 223/4/75
f 230/4/76 231/4/76 225/4/76 224/4/76
f 231/4/77 232/4/77 226/4/77 225/4/77
f 232/4/78 228/4/78 221/4/78 226/4/78
f 233/3/29 234/3/29 235/3/29 236/3/29 237/3/29 238/3/29
f 239/3/21 240/3/21 241/3/21 242/3/21 243/3/21 244/3/21
f 238/3/133 237/3/133 240/3/133 239/3/133
f 237/3/1 236/3/1 241/3/1 240/3/1
f 236/3/134 235/3/134 242/3/134 241/3/134
f 235/3/135 234/3/135 243/3/135 242/3/135
f 234/3/34 233/3/34 244/3/34 243/3/34
f 233/3/136 238/3/136 239/3/136 244/3/136
f 245/3/29 246/3/29 247/3/29 248/3/29 249/3/29 250/3/29
f 251/3/21 252/3/21 253/3/21 254/3/21 255/3/21 256/3/21
f 250/3/133 249/3/133 252/3/133 251/3/133
f 249/3/1 248/3/1 253/3/1 252/3/1
f 248/3/134 247/3/134 254/3/134 253/3/134
f 247/3/135 246/3/135 255/3/135 254/3/135
f 246/3/34 245/3/34 256/3/34 255/3/34
f 245/3/136 250/3/136 251/3/136 256/3/136
f 257/3/33 258/3/33 259/3/33 260/3/33 261/3/33 262/3/33
f 263/3/25 264/3/25 265/3/25 266/3/25 267/3/25 268/3/25
f 262/3/137 261/3/137 264/3/137 263/3/137
f 261/3/1 260/3/1 265/3/1 264/3/1
f 260/3/138 259/3/138 266/3/138 265/3/138
f 259/3/139 258/3/139 267/3/139 266/3/139
f 258/3/34 257/3/34 268/3/34 267/3/34
f 257/3/140 262/3/140 263/3/140 268/3/140
f 269/3/33 270/3/33 271/3/33 272/3/33 273/3/33 274/3/33
f 275/3/25 276/3/25 277/3/25 278/3/25 279/3/25 280/3/25
f 274/3/137 273/3/137 276/3/137 275/3/137
f 273/3/1 272/3/1 277/3/1 276/3/1
f 272/3/138 271/3/138 278/3/138 277/3/138
f 271/3/139 270/3/139 279/3/139 278/3/139
f 270/3/34 269/3/34 280/3/34 279/3/34
f 269/3/140 274/3/140 275/3/140 280/3/140
f 281/2/141 282/2/141 283/2/141 284/2/141 285/2/141 286/2/141 287/2/141 288/2/141
f 289/2/142 290/2/142 291/2/142 292/2/142 293/2/142 294/2/142 295/2/142 296/2/142
f 288/2/143 287/2/143 297/2/143 298/2/143
f 287/2/144 286/2/144 299/2/144 297/2/144
f 286/2/145 285/2/145 300/2/145 299/2/145
f 285/2/146 284/2/146 301/2/146 300/2/146
f 284/2/147 283/2/147 302/2/147 301/2/147
f 283/2/148 282/2/148 303/2/148 302/2/148
f 282/2/149 281/2/149 304/2/149 303/2/149
f 281/2/150 288/2/150 298/2/150 304/2/150
f 298/2/151 297/2/151 305/2/151 306/2/151
f 297/2/152 299/2/152 307/2/152 305/2/152
f 299/2/153 300/2/153 308/2/153 307/2/153
f 300/2/154 301/2/154 309/2/154 308/2/154
f 301/2/155 302/2/155 310/2/155 309/2/155
f 302/2/156 303/2/156 311/2/156 310/2/156
f 303/2/157 304/2/157 312/2/157 311/2/157
f 304/2/158 298/2/158 306/2/158 312/2/158
f 306/2/159 305/2/159 313/2/159 314/2/159
f 305/2/160 307/2/160 315/2/160 313/2/160
f 307/2/161 308/2/161 316/2/161 315/2/161
f 308/2/162 309/2/162 317/2/162 316/2/162
f 309/2/163 310/2/163 318/2/163 317/2/163
f 310/2/164 311/2/164 319/2/164 318/2/164
f 311/2/165 312/2/165 320/2/165 319/2/165
f 312/2/166 306/2/166 314/2/166 320/2/166
f 314/2/167 313/2/167 321/2/167 322/2/167
f 313/2/168 315/2/168 323/2/168 321/2/168
f 315/2/169 316/2/169 324/2/169 323/2/169
f 316/2/170 317/2/170 325/2/170 324/2/170
f 317/2/171 318/2/171 326/2/171 325/2/171
f 318/2/172 319/2/172 327/2/172 326/2/172
f 319/2/173 320/2/173 328/2/173 327/2/173
f 320/2/174 314/2/174 322/2/174 328/2/174
f 322/2/175 321/2/175 329/2/175 330/2/175
f 321/2/176 323/2/176 331/2/176 329/2/176
f 323/2/177 324/2/177 332/2/177 331/2/177
f 324/2/178 325/2/178 333/2/178 332/2/178
f 325/2/179 326/2/179 334/2/179 333/2/179
f 326/2/180 327/2/180 335/2/180 334/2/180
f 327/2/181 328/2/181 336/2/181 335/2/181
f 328/2/182 322/2/182 330/2/182 336/2/182
f 330/2/183 329/2/183 337/2/183 338/2/183
f 329/2/184 331/2/184 339/2/184 337/2/184
f 331/2/185 332/2/185 340/2/185 339/2/185
f 332/2/186 333/2/186 341/2/186 340/2/186
f 333/2/187 334/2/187 342/2/187 341/2/187
f 334/2/188 335/2/188 343/2/188 342/2/188
f 335/2/189 336/2/189 344/2/189 343/2/189
f 336/2/190 330/2/190 338/2/190 344/2/190
f 338/2/191 337/2/191 345/2/191 346/2/191
f 337/2/192 339/2/192 347/2/192 345/2/192
f 339/2/193 340/2/193 348/2/193 347/2/193
f 340/2/194 341/2/194 349/2/194 348/2/194
f 341/2/195 342/2/195 350/2/195 349/2/195
f 342/2/196 343/2/196 351/2/196 350/2/196
f 343/2/197 344/2/197 352/2/197 351/2/197
f 344/2/198 338/2/198 346/2/198 352/2/198
f 346/2/199 345/2/199 353/2/199 354/2/199
f 345/2/200 347/2/200 355/2/200 353/2/200
f 347/2/201 348/2/201 356/2/201 355/2/201
f 348/2/202 349/2/202 357/2/202 356/2/202
f 349/2/203 350/2/203 358/2/203 357/2/203
f 350/2/204 351/2/204 359/2/204 358/2/204
f 351/2/205 352/2/205 360/2/205 359/2/205
f 352/2/206 346/2/206 354/2/206 360/2/206
f 354/2/207 353/2/207 361/2/207 362/2/207
f 353/2/208 355/2/208 363/2/208 361/2/208
f 355/2/209 356/2/209 364/2/209 363/2/209
f 356/2/210 357/2/210 365/2/210 364/2/210
f 357/2/211 358/2/211 366/2/211 365/2/211
f 358/2/212 359/2/212 367/2/212 366/2/212
f 359/2/213 360/2/213 368/2/213 367/2/213
f 360/2/214 354/2/214 362/2/214 368/2/214
f 362/2/215 361/2/215 369/2/215 370/2/215
f 361/2/216 363/2/216 371/2/216 369/2/216
f 363/2/217 364/2/217 372/2/217 371/2/217
f 364/2/218 365/2/218 373/2/218 372/2/218
f 365/2/219 366/2/219 374/2/219 373/2/219
f 366/2/220 367/2/220 375/2/220 374/2/220
f 367/2/221 368/2/221 376/2/221 375/2/221
f 368/2/222 362/2/222 370/2/222 376/2/222
f 370/2/223 369/2/223 377/2/223 378/2/223
f 369/2/224 371/2/224 379/2/224 377/2/224
f 371/2/225 372/2/225 380/2/225 379/2/225
f 372/2/226 373/2/226 381/2/226 380/2/226
f 373/2/227 374/2/227 382/2/227 381/2/227
f 374/2/228 375/2/228 383/2/228 382/2/228
f 375/2/229 376/2/229 384/2/229 383/2/229
f 376/2/230 370/2/230 378/2/230 384/2/230
f 378/2/231 377/2/231 290/2/231 289/2/231
f 377/2/232 379/2/232 291/2/232 290/2/232
f 379/2/233 380/2/233 292/2/233 291/2/233
f 380/2/234 381/2/234 293/2/234 292/2/234
f 381/2/235 382/2/235 294/2/235 293/2/235
f 382/2/236 383/2/236 295/2/236 294/2/236
f 383/2/237 384/2/237 296/2/237 295/2/237
f 384/2/238 378/2/238 289/2/238 296/2/238
