# Blender 5.2.0 LTS
# www.blender.org
mtllib FN_Store_Tool.mtl
o FN_Store_Tool
v -0.526789 0.000000 -0.366662
v -0.526789 0.000000 -0.396662
v 0.373211 0.000000 -0.396662
v 0.373211 0.000000 -0.366662
v -0.526789 1.500000 -0.366662
v 0.373211 1.500000 -0.366662
v 0.373211 1.500000 -0.396662
v -0.526789 1.500000 -0.396662
v -0.526789 1.400000 0.153338
v -0.526789 0.000000 0.153338
v -0.496789 0.000000 0.153338
v -0.496789 0.000000 -0.396662
v -0.496789 1.500000 -0.396662
v -0.496789 1.400000 0.153338
v 0.343211 1.400000 0.153338
v 0.343211 1.500000 -0.396662
v 0.343211 0.000000 -0.396662
v 0.343211 0.000000 0.153338
v 0.373211 0.000000 0.153338
v 0.373211 1.400000 0.153338
v -0.506789 0.000000 0.143338
v -0.506789 0.000000 -0.386662
v 0.353211 0.000000 -0.386662
v 0.353211 0.000000 0.143338
v -0.506789 0.080000 0.143338
v 0.353211 0.080000 0.143338
v 0.353211 0.080000 -0.386662
v -0.506789 0.080000 -0.386662
v -0.506789 0.000000 0.153338
v -0.506789 0.000000 0.123338
v -0.456789 0.000000 0.123338
v -0.456789 0.000000 0.153338
v -0.506789 1.400000 0.153338
v -0.456789 1.400000 0.153338
v -0.456789 1.400000 0.123338
v -0.506789 1.400000 0.123338
v 0.303211 0.000000 0.153338
v 0.303211 0.000000 0.123338
v 0.353211 0.000000 0.123338
v 0.353211 0.000000 0.153338
v 0.303211 1.400000 0.153338
v 0.353211 1.400000 0.153338
v 0.353211 1.400000 0.123338
v 0.303211 1.400000 0.123338
v -0.506789 1.340000 0.153338
v -0.506789 1.340000 0.123338
v 0.353211 1.340000 0.123338
v 0.353211 1.340000 0.153338
v -0.506789 0.080000 0.153338
v 0.353211 0.080000 0.153338
v 0.353211 0.080000 0.123338
v -0.506789 0.080000 0.123338
v -0.566789 1.425000 0.188338
v -0.566789 1.525000 -0.431662
v -0.566789 1.485000 -0.431662
v -0.566789 1.385000 0.188338
v 0.413211 1.385000 0.188338
v 0.413211 1.485000 -0.431662
v 0.413211 1.525000 -0.431662
v 0.413211 1.425000 0.188338
v -0.456789 0.088000 0.151338
v -0.084789 0.088000 0.151338
v -0.084789 0.088000 0.125338
v -0.456789 0.088000 0.125338
v -0.456789 1.332000 0.125338
v -0.084789 1.332000 0.125338
v -0.084789 1.332000 0.151338
v -0.456789 1.332000 0.151338
v -0.144789 0.680000 0.180338
v -0.096789 0.680000 0.180338
v -0.096789 0.680000 0.151338
v -0.144789 0.680000 0.151338
v -0.144789 0.740000 0.151338
v -0.096789 0.740000 0.151338
v -0.096789 0.740000 0.180338
v -0.144789 0.740000 0.180338
v -0.447289 0.240000 0.154792
v -0.466289 0.240000 0.154792
v -0.475789 0.240000 0.138338
v -0.466289 0.240000 0.121883
v -0.447289 0.240000 0.121883
v -0.437789 0.240000 0.138338
v -0.437789 0.330000 0.138338
v -0.447289 0.330000 0.121883
v -0.466289 0.330000 0.121883
v -0.475789 0.330000 0.138338
v -0.466289 0.330000 0.154792
v -0.447289 0.330000 0.154792
v -0.447289 1.100000 0.154792
v -0.466289 1.100000 0.154792
v -0.475789 1.100000 0.138338
v -0.466289 1.100000 0.121883
v -0.447289 1.100000 0.121883
v -0.437789 1.100000 0.138338
v -0.437789 1.190000 0.138338
v -0.447289 1.190000 0.121883
v -0.466289 1.190000 0.121883
v -0.475789 1.190000 0.138338
v -0.466289 1.190000 0.154792
v -0.447289 1.190000 0.154792
v 0.293253 0.088000 0.146694
v 0.532370 0.088000 0.431662
v 0.552287 0.088000 0.414950
v 0.313170 0.088000 0.129981
v 0.313170 1.332000 0.129981
v 0.552287 1.332000 0.414950
v 0.532370 1.332000 0.431662
v 0.293253 1.332000 0.146694
v 0.513720 0.680000 0.368987
v 0.544573 0.680000 0.405757
v 0.566789 0.680000 0.387117
v 0.535935 0.680000 0.350346
v 0.535935 0.740000 0.350346
v 0.566789 0.740000 0.387117
v 0.544573 0.740000 0.405757
v 0.513720 0.740000 0.368987
v 0.312711 0.240000 0.154792
v 0.293711 0.240000 0.154792
v 0.284211 0.240000 0.138338
v 0.293711 0.240000 0.121883
v 0.312711 0.240000 0.121883
v 0.322211 0.240000 0.138338
v 0.322211 0.330000 0.138338
v 0.312711 0.330000 0.121883
v 0.293711 0.330000 0.121883
v 0.284211 0.330000 0.138338
v 0.293711 0.330000 0.154792
v 0.312711 0.330000 0.154792
v 0.312711 1.100000 0.154792
v 0.293711 1.100000 0.154792
v 0.284211 1.100000 0.138338
v 0.293711 1.100000 0.121883
v 0.312711 1.100000 0.121883
v 0.322211 1.100000 0.138338
v 0.322211 1.190000 0.138338
v 0.312711 1.190000 0.121883
v 0.293711 1.190000 0.121883
v 0.284211 1.190000 0.138338
v 0.293711 1.190000 0.154792
v 0.312711 1.190000 0.154792
v -0.016789 0.080000 0.023338
v -0.016789 0.080000 -0.016662
v 0.059211 0.080000 -0.016662
v 0.059211 0.080000 0.023338
v -0.016789 0.320000 0.023338
v 0.059211 0.320000 0.023338
v 0.059211 0.320000 -0.016662
v -0.016789 0.320000 -0.016662
v 0.009211 0.285929 0.016020
v 0.009211 1.055929 -0.343980
v 0.009211 1.044071 -0.369345
v 0.009211 0.274071 -0.009345
v 0.033211 0.274071 -0.009345
v 0.033211 1.044071 -0.369345
v 0.033211 1.055929 -0.343980
v 0.033211 0.285929 0.016020
v 0.099211 0.080000 0.023338
v 0.099211 0.080000 -0.016662
v 0.179211 0.080000 -0.016662
v 0.179211 0.080000 0.023338
v 0.099211 0.260000 0.023338
v 0.179211 0.260000 0.023338
v 0.179211 0.260000 -0.016662
v 0.099211 0.260000 -0.016662
v 0.127211 0.224871 0.016463
v 0.127211 1.194871 -0.343537
v 0.127211 1.185129 -0.369788
v 0.127211 0.215129 -0.009788
v 0.151211 0.215129 -0.009788
v 0.151211 1.185129 -0.369788
v 0.151211 1.194871 -0.343537
v 0.151211 0.224871 0.016463
v 0.193211 0.080000 0.023338
v 0.193211 0.080000 -0.016662
v 0.293211 0.080000 -0.016662
v 0.293211 0.080000 0.023338
v 0.193211 0.170000 0.023338
v 0.293211 0.170000 0.023338
v 0.293211 0.170000 -0.016662
v 0.193211 0.170000 -0.016662
v 0.231211 0.134085 0.016728
v 0.231211 1.314085 -0.343272
v 0.231211 1.305915 -0.370053
v 0.231211 0.125915 -0.010053
v 0.255211 0.125915 -0.010053
v 0.255211 1.305915 -0.370053
v 0.255211 1.314085 -0.343272
v 0.255211 0.134085 0.016728
vn -0.0000 -1.0000 -0.0000
vn -0.0000 1.0000 -0.0000
vn -0.0000 -0.0000 1.0000
vn -0.0000 -0.0000 -1.0000
vn -1.0000 -0.0000 -0.0000
vn 1.0000 -0.0000 -0.0000
vn -0.0000 0.9839 0.1789
vn -0.0000 -0.9872 -0.1592
vn -0.0000 0.9872 0.1592
vn 0.8660 -0.0000 -0.5000
vn -0.8660 -0.0000 -0.5000
vn -0.8660 -0.0000 0.5000
vn 0.8660 -0.0000 0.5000
vn -0.7660 -0.0000 0.6428
vn -0.6428 -0.0000 -0.7660
vn 0.7660 -0.0000 -0.6428
vn 0.6428 -0.0000 0.7660
vn -0.0000 0.4235 0.9059
vn -0.0000 0.9059 -0.4235
vn -0.0000 -0.4235 -0.9059
vn -0.0000 -0.9059 0.4235
vn -0.0000 0.3479 0.9375
vn -0.0000 0.9375 -0.3479
vn -0.0000 -0.3479 -0.9375
vn -0.0000 -0.9375 0.3479
vn -0.0000 0.2918 0.9565
vn -0.0000 0.9565 -0.2918
vn -0.0000 -0.2918 -0.9565
vn -0.0000 -0.9565 0.2918
vt 0.562500 0.562500
vt 0.437500 0.937500
vt 0.812500 0.312500
s 0
usemtl FN_Atlas
f 1/1/1 2/1/1 3/1/1 4/1/1
f 5/1/2 6/1/2 7/1/2 8/1/2
f 1/1/3 4/1/3 6/1/3 5/1/3
f 3/1/4 2/1/4 8/1/4 7/1/4
f 1/1/5 5/1/5 8/1/5 2/1/5
f 4/1/6 3/1/6 7/1/6 6/1/6
f 9/1/5 8/1/5 2/1/5 10/1/5
f 11/1/6 12/1/6 13/1/6 14/1/6
f 10/1/1 2/1/1 12/1/1 11/1/1
f 2/1/4 8/1/4 13/1/4 12/1/4
f 8/1/7 9/1/7 14/1/7 13/1/7
f 9/1/3 10/1/3 11/1/3 14/1/3
f 15/1/5 16/1/5 17/1/5 18/1/5
f 19/1/6 3/1/6 7/1/6 20/1/6
f 18/1/1 17/1/1 3/1/1 19/1/1
f 17/1/4 16/1/4 7/1/4 3/1/4
f 16/1/7 15/1/7 20/1/7 7/1/7
f 15/1/3 18/1/3 19/1/3 20/1/3
f 21/2/1 22/2/1 23/2/1 24/2/1
f 25/2/2 26/2/2 27/2/2 28/2/2
f 21/2/3 24/2/3 26/2/3 25/2/3
f 23/2/4 22/2/4 28/2/4 27/2/4
f 21/2/5 25/2/5 28/2/5 22/2/5
f 24/2/6 23/2/6 27/2/6 26/2/6
f 29/2/1 30/2/1 31/2/1 32/2/1
f 33/2/2 34/2/2 35/2/2 36/2/2
f 29/2/3 32/2/3 34/2/3 33/2/3
f 31/2/4 30/2/4 36/2/4 35/2/4
f 29/2/5 33/2/5 36/2/5 30/2/5
f 32/2/6 31/2/6 35/2/6 34/2/6
f 37/2/1 38/2/1 39/2/1 40/2/1
f 41/2/2 42/2/2 43/2/2 44/2/2
f 37/2/3 40/2/3 42/2/3 41/2/3
f 39/2/4 38/2/4 44/2/4 43/2/4
f 37/2/5 41/2/5 44/2/5 38/2/5
f 40/2/6 39/2/6 43/2/6 42/2/6
f 45/2/1 46/2/1 47/2/1 48/2/1
f 33/2/2 42/2/2 43/2/2 36/2/2
f 45/2/3 48/2/3 42/2/3 33/2/3
f 47/2/4 46/2/4 36/2/4 43/2/4
f 45/2/5 33/2/5 36/2/5 46/2/5
f 48/2/6 47/2/6 43/2/6 42/2/6
f 29/2/1 30/2/1 39/2/1 40/2/1
f 49/2/2 50/2/2 51/2/2 52/2/2
f 29/2/3 40/2/3 50/2/3 49/2/3
f 39/2/4 30/2/4 52/2/4 51/2/4
f 29/2/5 49/2/5 52/2/5 30/2/5
f 40/2/6 39/2/6 51/2/6 50/2/6
f 53/2/5 54/2/5 55/2/5 56/2/5
f 57/2/6 58/2/6 59/2/6 60/2/6
f 56/2/8 55/2/8 58/2/8 57/2/8
f 55/2/4 54/2/4 59/2/4 58/2/4
f 54/2/9 53/2/9 60/2/9 59/2/9
f 53/2/3 56/2/3 57/2/3 60/2/3
f 61/1/2 62/1/2 63/1/2 64/1/2
f 65/1/1 66/1/1 67/1/1 68/1/1
f 64/1/3 63/1/3 66/1/3 65/1/3
f 63/1/5 62/1/5 67/1/5 66/1/5
f 62/1/4 61/1/4 68/1/4 67/1/4
f 61/1/6 64/1/6 65/1/6 68/1/6
f 69/2/2 70/2/2 71/2/2 72/2/2
f 73/2/1 74/2/1 75/2/1 76/2/1
f 72/2/3 71/2/3 74/2/3 73/2/3
f 71/2/5 70/2/5 75/2/5 74/2/5
f 70/2/4 69/2/4 76/2/4 75/2/4
f 69/2/6 72/2/6 73/2/6 76/2/6
f 77/2/1 78/2/1 79/2/1 80/2/1 81/2/1 82/2/1
f 83/2/2 84/2/2 85/2/2 86/2/2 87/2/2 88/2/2
f 82/2/10 81/2/10 84/2/10 83/2/10
f 81/2/4 80/2/4 85/2/4 84/2/4
f 80/2/11 79/2/11 86/2/11 85/2/11
f 79/2/12 78/2/12 87/2/12 86/2/12
f 78/2/3 77/2/3 88/2/3 87/2/3
f 77/2/13 82/2/13 83/2/13 88/2/13
f 89/2/1 90/2/1 91/2/1 92/2/1 93/2/1 94/2/1
f 95/2/2 96/2/2 97/2/2 98/2/2 99/2/2 100/2/2
f 94/2/10 93/2/10 96/2/10 95/2/10
f 93/2/4 92/2/4 97/2/4 96/2/4
f 92/2/11 91/2/11 98/2/11 97/2/11
f 91/2/12 90/2/12 99/2/12 98/2/12
f 90/2/3 89/2/3 100/2/3 99/2/3
f 89/2/13 94/2/13 95/2/13 100/2/13
f 101/1/2 102/1/2 103/1/2 104/1/2
f 105/1/1 106/1/1 107/1/1 108/1/1
f 104/1/14 103/1/14 106/1/14 105/1/14
f 103/1/15 102/1/15 107/1/15 106/1/15
f 102/1/16 101/1/16 108/1/16 107/1/16
f 101/1/17 104/1/17 105/1/17 108/1/17
f 109/2/2 110/2/2 111/2/2 112/2/2
f 113/2/1 114/2/1 115/2/1 116/2/1
f 112/2/14 111/2/14 114/2/14 113/2/14
f 111/2/15 110/2/15 115/2/15 114/2/15
f 110/2/16 109/2/16 116/2/16 115/2/16
f 109/2/17 112/2/17 113/2/17 116/2/17
f 117/2/1 118/2/1 119/2/1 120/2/1 121/2/1 122/2/1
f 123/2/2 124/2/2 125/2/2 126/2/2 127/2/2 128/2/2
f 122/2/10 121/2/10 124/2/10 123/2/10
f 121/2/4 120/2/4 125/2/4 124/2/4
f 120/2/11 119/2/11 126/2/11 125/2/11
f 119/2/12 118/2/12 127/2/12 126/2/12
f 118/2/3 117/2/3 128/2/3 127/2/3
f 117/2/13 122/2/13 123/2/13 128/2/13
f 129/2/1 130/2/1 131/2/1 132/2/1 133/2/1 134/2/1
f 135/2/2 136/2/2 137/2/2 138/2/2 139/2/2 140/2/2
f 134/2/10 133/2/10 136/2/10 135/2/10
f 133/2/4 132/2/4 137/2/4 136/2/4
f 132/2/11 131/2/11 138/2/11 137/2/11
f 131/2/12 130/2/12 139/2/12 138/2/12
f 130/2/3 129/2/3 140/2/3 139/2/3
f 129/2/13 134/2/13 135/2/13 140/2/13
f 141/3/1 142/3/1 143/3/1 144/3/1
f 145/3/2 146/3/2 147/3/2 148/3/2
f 141/3/3 144/3/3 146/3/3 145/3/3
f 143/3/4 142/3/4 148/3/4 147/3/4
f 141/3/5 145/3/5 148/3/5 142/3/5
f 144/3/6 143/3/6 147/3/6 146/3/6
f 149/2/5 150/2/5 151/2/5 152/2/5
f 153/2/6 154/2/6 155/2/6 156/2/6
f 156/2/18 155/2/18 150/2/18 149/2/18
f 155/2/19 154/2/19 151/2/19 150/2/19
f 154/2/20 153/2/20 152/2/20 151/2/20
f 153/2/21 156/2/21 149/2/21 152/2/21
f 157/3/1 158/3/1 159/3/1 160/3/1
f 161/3/2 162/3/2 163/3/2 164/3/2
f 157/3/3 160/3/3 162/3/3 161/3/3
f 159/3/4 158/3/4 164/3/4 163/3/4
f 157/3/5 161/3/5 164/3/5 158/3/5
f 160/3/6 159/3/6 163/3/6 162/3/6
f 165/2/5 166/2/5 167/2/5 168/2/5
f 169/2/6 170/2/6 171/2/6 172/2/6
f 172/2/22 171/2/22 166/2/22 165/2/22
f 171/2/23 170/2/23 167/2/23 166/2/23
f 170/2/24 169/2/24 168/2/24 167/2/24
f 169/2/25 172/2/25 165/2/25 168/2/25
f 173/3/1 174/3/1 175/3/1 176/3/1
f 177/3/2 178/3/2 179/3/2 180/3/2
f 173/3/3 176/3/3 178/3/3 177/3/3
f 175/3/4 174/3/4 180/3/4 179/3/4
f 173/3/5 177/3/5 180/3/5 174/3/5
f 176/3/6 175/3/6 179/3/6 178/3/6
f 181/2/5 182/2/5 183/2/5 184/2/5
f 185/2/6 186/2/6 187/2/6 188/2/6
f 188/2/26 187/2/26 182/2/26 181/2/26
f 187/2/27 186/2/27 183/2/27 182/2/27
f 186/2/28 185/2/28 184/2/28 183/2/28
f 185/2/29 188/2/29 181/2/29 184/2/29
