# Blender 5.2.0 LTS
# www.blender.org
mtllib FN_Stool_Footstool.mtl
o FN_Stool_Footstool
v -0.229000 0.000000 0.145000
v -0.195000 0.000000 0.145000
v -0.195000 0.000000 0.179000
v -0.229000 0.000000 0.179000
v -0.238000 0.128000 0.188000
v -0.186000 0.128000 0.188000
v -0.186000 0.128000 0.136000
v -0.238000 0.128000 0.136000
v -0.229000 0.000000 -0.179000
v -0.195000 0.000000 -0.179000
v -0.195000 0.000000 -0.145000
v -0.229000 0.000000 -0.145000
v -0.238000 0.128000 -0.136000
v -0.186000 0.128000 -0.136000
v -0.186000 0.128000 -0.188000
v -0.238000 0.128000 -0.188000
v 0.195000 0.000000 0.145000
v 0.229000 0.000000 0.145000
v 0.229000 0.000000 0.179000
v 0.195000 0.000000 0.179000
v 0.186000 0.128000 0.188000
v 0.238000 0.128000 0.188000
v 0.238000 0.128000 0.136000
v 0.186000 0.128000 0.136000
v 0.195000 0.000000 -0.179000
v 0.229000 0.000000 -0.179000
v 0.229000 0.000000 -0.145000
v 0.195000 0.000000 -0.145000
v 0.186000 0.128000 -0.136000
v 0.238000 0.128000 -0.136000
v 0.238000 0.128000 -0.188000
v 0.186000 0.128000 -0.188000
v -0.214541 0.128000 0.220287
v -0.241358 0.128000 0.213101
v -0.260990 0.128000 0.193470
v -0.268176 0.128000 0.166652
v -0.268176 0.128000 -0.166652
v -0.260990 0.128000 -0.193470
v -0.241358 0.128000 -0.213101
v -0.214541 0.128000 -0.220287
v 0.214541 0.128000 -0.220287
v 0.241358 0.128000 -0.213101
v 0.260990 0.128000 -0.193470
v 0.268176 0.128000 -0.166652
v 0.268176 0.128000 0.166652
v 0.260990 0.128000 0.193470
v 0.241358 0.128000 0.213101
v 0.214541 0.128000 0.220287
v 0.252000 0.146000 0.222497
v 0.224000 0.146000 0.230000
v 0.272497 0.146000 0.202000
v 0.280000 0.146000 0.174000
v 0.280000 0.146000 -0.174000
v 0.272497 0.146000 -0.202000
v 0.252000 0.146000 -0.222497
v 0.224000 0.146000 -0.230000
v -0.224000 0.146000 -0.230000
v -0.252000 0.146000 -0.222497
v -0.272497 0.146000 -0.202000
v -0.280000 0.146000 -0.174000
v -0.280000 0.146000 0.174000
v -0.272497 0.146000 0.202000
v -0.252000 0.146000 0.222497
v -0.224000 0.146000 0.230000
v 0.252000 0.360000 0.222497
v 0.224000 0.360000 0.230000
v 0.272497 0.360000 0.202000
v 0.280000 0.360000 0.174000
v 0.280000 0.360000 -0.174000
v 0.272497 0.360000 -0.202000
v 0.252000 0.360000 -0.222497
v 0.224000 0.360000 -0.230000
v -0.224000 0.360000 -0.230000
v -0.252000 0.360000 -0.222497
v -0.272497 0.360000 -0.202000
v -0.280000 0.360000 -0.174000
v -0.280000 0.360000 0.174000
v -0.272497 0.360000 0.202000
v -0.252000 0.360000 0.222497
v -0.224000 0.360000 0.230000
v 0.224000 0.368000 0.230000
v 0.252000 0.368000 0.222497
v 0.272497 0.368000 0.202000
v 0.280000 0.368000 0.174000
v 0.280000 0.368000 -0.174000
v 0.272497 0.368000 -0.202000
v 0.252000 0.368000 -0.222497
v 0.224000 0.368000 -0.230000
v -0.224000 0.368000 -0.230000
v -0.252000 0.368000 -0.222497
v -0.272497 0.368000 -0.202000
v -0.280000 0.368000 -0.174000
v -0.280000 0.368000 0.174000
v -0.272497 0.368000 0.202000
v -0.252000 0.368000 0.222497
v -0.224000 0.368000 0.230000
v 0.223000 0.364000 0.225000
v 0.249000 0.364000 0.218033
v 0.249000 0.384000 0.218033
v 0.223000 0.384000 0.225000
v 0.268033 0.364000 0.199000
v 0.268033 0.384000 0.199000
v 0.275000 0.364000 0.173000
v 0.275000 0.384000 0.173000
v 0.275000 0.364000 -0.173000
v 0.275000 0.384000 -0.173000
v 0.268033 0.364000 -0.199000
v 0.268033 0.384000 -0.199000
v 0.249000 0.364000 -0.218033
v 0.249000 0.384000 -0.218033
v 0.223000 0.364000 -0.225000
v 0.223000 0.384000 -0.225000
v -0.223000 0.364000 -0.225000
v -0.223000 0.384000 -0.225000
v -0.249000 0.364000 -0.218033
v -0.249000 0.384000 -0.218033
v -0.268033 0.364000 -0.199000
v -0.268033 0.384000 -0.199000
v -0.275000 0.364000 -0.173000
v -0.275000 0.384000 -0.173000
v -0.275000 0.364000 0.173000
v -0.275000 0.384000 0.173000
v -0.268033 0.364000 0.199000
v -0.268033 0.384000 0.199000
v -0.249000 0.364000 0.218033
v -0.249000 0.384000 0.218033
v -0.223000 0.364000 0.225000
v -0.223000 0.384000 0.225000
v 0.205248 0.400000 0.207089
v 0.229179 0.400000 0.200677
v 0.246697 0.400000 0.183159
v 0.253109 0.400000 0.159229
v 0.253109 0.400000 -0.159229
v 0.246697 0.400000 -0.183159
v 0.229179 0.400000 -0.200677
v 0.205248 0.400000 -0.207089
v -0.205248 0.400000 -0.207089
v -0.229179 0.400000 -0.200677
v -0.246697 0.400000 -0.183159
v -0.253109 0.400000 -0.159229
v -0.253109 0.400000 0.159229
v -0.246697 0.400000 0.183159
v -0.229179 0.400000 0.200677
v -0.205248 0.400000 0.207089
v -0.097000 0.398000 0.000000
v -0.103151 0.398000 -0.014849
v -0.108793 0.407000 -0.009207
v -0.104980 0.407000 0.000000
v -0.118000 0.398000 -0.021000
v -0.118000 0.407000 -0.013020
v -0.132849 0.398000 -0.014849
v -0.127207 0.407000 -0.009207
v -0.139000 0.398000 -0.000000
v -0.131020 0.407000 -0.000000
v -0.132849 0.398000 0.014849
v -0.127207 0.407000 0.009207
v -0.118000 0.398000 0.021000
v -0.118000 0.407000 0.013020
v -0.103151 0.398000 0.014849
v -0.108793 0.407000 0.009207
v 0.139000 0.398000 0.000000
v 0.132849 0.398000 -0.014849
v 0.127207 0.407000 -0.009207
v 0.131020 0.407000 0.000000
v 0.118000 0.398000 -0.021000
v 0.118000 0.407000 -0.013020
v 0.103151 0.398000 -0.014849
v 0.108793 0.407000 -0.009207
v 0.097000 0.398000 -0.000000
v 0.104980 0.407000 -0.000000
v 0.103151 0.398000 0.014849
v 0.108793 0.407000 0.009207
v 0.118000 0.398000 0.021000
v 0.118000 0.407000 0.013020
v 0.132849 0.398000 0.014849
v 0.127207 0.407000 0.009207
v 0.021000 0.398000 0.096000
v 0.014849 0.398000 0.081151
v 0.009207 0.407000 0.086793
v 0.013020 0.407000 0.096000
v 0.000000 0.398000 0.075000
v 0.000000 0.407000 0.082980
v -0.014849 0.398000 0.081151
v -0.009207 0.407000 0.086793
v -0.021000 0.398000 0.096000
v -0.013020 0.407000 0.096000
v -0.014849 0.398000 0.110849
v -0.009207 0.407000 0.105207
v -0.000000 0.398000 0.117000
v -0.000000 0.407000 0.109020
v 0.014849 0.398000 0.110849
v 0.009207 0.407000 0.105207
v 0.021000 0.398000 -0.096000
v 0.014849 0.398000 -0.110849
v 0.009207 0.407000 -0.105207
v 0.013020 0.407000 -0.096000
v 0.000000 0.398000 -0.117000
v 0.000000 0.407000 -0.109020
v -0.014849 0.398000 -0.110849
v -0.009207 0.407000 -0.105207
v -0.021000 0.398000 -0.096000
v -0.013020 0.407000 -0.096000
v -0.014849 0.398000 -0.081151
v -0.009207 0.407000 -0.086793
v -0.000000 0.398000 -0.075000
v -0.000000 0.407000 -0.082980
v 0.014849 0.398000 -0.081151
v 0.009207 0.407000 -0.086793
vn -0.0000 -1.0000 -0.0000
vn -0.0000 1.0000 -0.0000
vn -0.0000 -0.0701 0.9975
vn 0.9975 -0.0701 -0.0000
vn -0.0000 -0.0701 -0.9975
vn -0.9975 -0.0701 -0.0000
vn 0.2163 -0.5492 0.8072
vn 0.5556 -0.6185 0.5556
vn 0.7764 -0.5949 0.2080
vn 0.8358 -0.5490 -0.0000
vn 0.7764 -0.5949 -0.2080
vn 0.5556 -0.6185 -0.5556
vn 0.2163 -0.5492 -0.8072
vn -0.0000 -0.4749 -0.8801
vn -0.2163 -0.5492 -0.8072
vn -0.5556 -0.6185 -0.5556
vn -0.7764 -0.5949 -0.2080
vn -0.8358 -0.5490 -0.0000
vn -0.7764 -0.5949 0.2080
vn -0.5556 -0.6185 0.5556
vn -0.2163 -0.5492 0.8072
vn -0.0000 -0.4749 0.8801
vn 0.2588 -0.0000 0.9659
vn 0.7071 -0.0000 0.7071
vn 0.9659 -0.0000 0.2588
vn 1.0000 -0.0000 -0.0000
vn 0.9659 -0.0000 -0.2588
vn 0.7071 -0.0000 -0.7071
vn 0.2588 -0.0000 -0.9659
vn -0.0000 -0.0000 -1.0000
vn -0.2588 -0.0000 -0.9659
vn -0.7071 -0.0000 -0.7071
vn -0.9659 -0.0000 -0.2588
vn -1.0000 -0.0000 -0.0000
vn -0.9659 -0.0000 0.2588
vn -0.7071 -0.0000 0.7071
vn -0.2588 -0.0000 0.9659
vn -0.0000 -0.0000 1.0000
vn 0.1527 0.8074 0.5699
vn 0.3676 0.8542 0.3676
vn 0.5250 0.8394 0.1407
vn 0.5901 0.8073 -0.0000
vn 0.5250 0.8394 -0.1407
vn 0.3676 0.8542 -0.3676
vn 0.1527 0.8074 -0.5699
vn -0.0000 0.7458 -0.6662
vn -0.1527 0.8074 -0.5699
vn -0.3676 0.8542 -0.3676
vn -0.5250 0.8394 -0.1407
vn -0.5901 0.8073 -0.0000
vn -0.5250 0.8394 0.1407
vn -0.3676 0.8542 0.3676
vn -0.1527 0.8074 0.5699
vn -0.0000 0.7458 0.6662
vn 0.7147 0.6337 -0.2960
vn 0.2960 0.6337 -0.7147
vn -0.2960 0.6337 -0.7147
vn -0.7147 0.6337 -0.2960
vn -0.7147 0.6337 0.2960
vn -0.2960 0.6337 0.7147
vn 0.2960 0.6337 0.7147
vn 0.7147 0.6337 0.2960
vt 0.687500 0.937500
vt 0.062500 0.562500
vt 0.187500 0.562500
s 0
usemtl FN_Atlas
f 1/1/1 2/1/1 3/1/1 4/1/1
f 5/1/2 6/1/2 7/1/2 8/1/2
f 4/1/3 3/1/3 6/1/3 5/1/3
f 3/1/4 2/1/4 7/1/4 6/1/4
f 2/1/5 1/1/5 8/1/5 7/1/5
f 1/1/6 4/1/6 5/1/6 8/1/6
f 9/1/1 10/1/1 11/1/1 12/1/1
f 13/1/2 14/1/2 15/1/2 16/1/2
f 12/1/3 11/1/3 14/1/3 13/1/3
f 11/1/4 10/1/4 15/1/4 14/1/4
f 10/1/5 9/1/5 16/1/5 15/1/5
f 9/1/6 12/1/6 13/1/6 16/1/6
f 17/1/1 18/1/1 19/1/1 20/1/1
f 21/1/2 22/1/2 23/1/2 24/1/2
f 20/1/3 19/1/3 22/1/3 21/1/3
f 19/1/4 18/1/4 23/1/4 22/1/4
f 18/1/5 17/1/5 24/1/5 23/1/5
f 17/1/6 20/1/6 21/1/6 24/1/6
f 25/1/1 26/1/1 27/1/1 28/1/1
f 29/1/2 30/1/2 31/1/2 32/1/2
f 28/1/3 27/1/3 30/1/3 29/1/3
f 27/1/4 26/1/4 31/1/4 30/1/4
f 26/1/5 25/1/5 32/1/5 31/1/5
f 25/1/6 28/1/6 29/1/6 32/1/6
f 33/2/1 34/2/1 35/2/1 36/2/1 37/2/1 38/2/1 39/2/1 40/2/1 41/2/1 42/2/1 43/2/1 44/2/1 45/2/1 46/2/1 47/2/1 48/2/1
f 48/2/7 47/2/7 49/2/7 50/2/7
f 47/2/8 46/2/8 51/2/8 49/2/8
f 46/2/9 45/2/9 52/2/9 51/2/9
f 45/2/10 44/2/10 53/2/10 52/2/10
f 44/2/11 43/2/11 54/2/11 53/2/11
f 43/2/12 42/2/12 55/2/12 54/2/12
f 42/2/13 41/2/13 56/2/13 55/2/13
f 41/2/14 40/2/14 57/2/14 56/2/14
f 40/2/15 39/2/15 58/2/15 57/2/15
f 39/2/16 38/2/16 59/2/16 58/2/16
f 38/2/17 37/2/17 60/2/17 59/2/17
f 37/2/18 36/2/18 61/2/18 60/2/18
f 36/2/19 35/2/19 62/2/19 61/2/19
f 35/2/20 34/2/20 63/2/20 62/2/20
f 34/2/21 33/2/21 64/2/21 63/2/21
f 33/2/22 48/2/22 50/2/22 64/2/22
f 50/2/23 49/2/23 65/2/23 66/2/23
f 49/2/24 51/2/24 67/2/24 65/2/24
f 51/2/25 52/2/25 68/2/25 67/2/25
f 52/2/26 53/2/26 69/2/26 68/2/26
f 53/2/27 54/2/27 70/2/27 69/2/27
f 54/2/28 55/2/28 71/2/28 70/2/28
f 55/2/29 56/2/29 72/2/29 71/2/29
f 56/2/30 57/2/30 73/2/30 72/2/30
f 57/2/31 58/2/31 74/2/31 73/2/31
f 58/2/32 59/2/32 75/2/32 74/2/32
f 59/2/33 60/2/33 76/2/33 75/2/33
f 60/2/34 61/2/34 77/2/34 76/2/34
f 61/2/35 62/2/35 78/2/35 77/2/35
f 62/2/36 63/2/36 79/2/36 78/2/36
f 63/2/37 64/2/37 80/2/37 79/2/37
f 64/2/38 50/2/38 66/2/38 80/2/38
f 81/3/2 82/3/2 83/3/2 84/3/2 85/3/2 86/3/2 87/3/2 88/3/2 89/3/2 90/3/2 91/3/2 92/3/2 93/3/2 94/3/2 95/3/2 96/3/2
f 66/3/23 65/3/23 82/3/23 81/3/23
f 65/3/24 67/3/24 83/3/24 82/3/24
f 67/3/25 68/3/25 84/3/25 83/3/25
f 68/3/26 69/3/26 85/3/26 84/3/26
f 69/3/27 70/3/27 86/3/27 85/3/27
f 70/3/28 71/3/28 87/3/28 86/3/28
f 71/3/29 72/3/29 88/3/29 87/3/29
f 72/3/30 73/3/30 89/3/30 88/3/30
f 73/3/31 74/3/31 90/3/31 89/3/31
f 74/3/32 75/3/32 91/3/32 90/3/32
f 75/3/33 76/3/33 92/3/33 91/3/33
f 76/3/34 77/3/34 93/3/34 92/3/34
f 77/3/35 78/3/35 94/3/35 93/3/35
f 78/3/36 79/3/36 95/3/36 94/3/36
f 79/3/37 80/3/37 96/3/37 95/3/37
f 80/3/38 66/3/38 81/3/38 96/3/38
f 97/2/23 98/2/23 99/2/23 100/2/23
f 98/2/24 101/2/24 102/2/24 99/2/24
f 101/2/25 103/2/25 104/2/25 102/2/25
f 103/2/26 105/2/26 106/2/26 104/2/26
f 105/2/27 107/2/27 108/2/27 106/2/27
f 107/2/28 109/2/28 110/2/28 108/2/28
f 109/2/29 111/2/29 112/2/29 110/2/29
f 111/2/30 113/2/30 114/2/30 112/2/30
f 113/2/31 115/2/31 116/2/31 114/2/31
f 115/2/32 117/2/32 118/2/32 116/2/32
f 117/2/33 119/2/33 120/2/33 118/2/33
f 119/2/34 121/2/34 122/2/34 120/2/34
f 121/2/35 123/2/35 124/2/35 122/2/35
f 123/2/36 125/2/36 126/2/36 124/2/36
f 125/2/37 127/2/37 128/2/37 126/2/37
f 127/2/38 97/2/38 100/2/38 128/2/38
f 129/2/2 130/2/2 131/2/2 132/2/2 133/2/2 134/2/2 135/2/2 136/2/2 137/2/2 138/2/2 139/2/2 140/2/2 141/2/2 142/2/2 143/2/2 144/2/2
f 100/2/39 99/2/39 130/2/39 129/2/39
f 99/2/40 102/2/40 131/2/40 130/2/40
f 102/2/41 104/2/41 132/2/41 131/2/41
f 104/2/42 106/2/42 133/2/42 132/2/42
f 106/2/43 108/2/43 134/2/43 133/2/43
f 108/2/44 110/2/44 135/2/44 134/2/44
f 110/2/45 112/2/45 136/2/45 135/2/45
f 112/2/46 114/2/46 137/2/46 136/2/46
f 114/2/47 116/2/47 138/2/47 137/2/47
f 116/2/48 118/2/48 139/2/48 138/2/48
f 118/2/49 120/2/49 140/2/49 139/2/49
f 120/2/50 122/2/50 141/2/50 140/2/50
f 122/2/51 124/2/51 142/2/51 141/2/51
f 124/2/52 126/2/52 143/2/52 142/2/52
f 126/2/53 128/2/53 144/2/53 143/2/53
f 128/2/54 100/2/54 129/2/54 144/2/54
f 145/3/55 146/3/55 147/3/55 148/3/55
f 146/3/56 149/3/56 150/3/56 147/3/56
f 149/3/57 151/3/57 152/3/57 150/3/57
f 151/3/58 153/3/58 154/3/58 152/3/58
f 153/3/59 155/3/59 156/3/59 154/3/59
f 155/3/60 157/3/60 158/3/60 156/3/60
f 157/3/61 159/3/61 160/3/61 158/3/61
f 159/3/62 145/3/62 148/3/62 160/3/62
f 148/3/2 147/3/2 150/3/2 152/3/2 154/3/2 156/3/2 158/3/2 160/3/2
f 161/3/55 162/3/55 163/3/55 164/3/55
f 162/3/56 165/3/56 166/3/56 163/3/56
f 165/3/57 167/3/57 168/3/57 166/3/57
f 167/3/58 169/3/58 170/3/58 168/3/58
f 169/3/59 171/3/59 172/3/59 170/3/59
f 171/3/60 173/3/60 174/3/60 172/3/60
f 173/3/61 175/3/61 176/3/61 174/3/61
f 175/3/62 161/3/62 164/3/62 176/3/62
f 164/3/2 163/3/2 166/3/2 168/3/2 170/3/2 172/3/2 174/3/2 176/3/2
f 177/3/55 178/3/55 179/3/55 180/3/55
f 178/3/56 181/3/56 182/3/56 179/3/56
f 181/3/57 183/3/57 184/3/57 182/3/57
f 183/3/58 185/3/58 186/3/58 184/3/58
f 185/3/59 187/3/59 188/3/59 186/3/59
f 187/3/60 189/3/60 190/3/60 188/3/60
f 189/3/61 191/3/61 192/3/61 190/3/61
f 191/3/62 177/3/62 180/3/62 192/3/62
f 180/3/2 179/3/2 182/3/2 184/3/2 186/3/2 188/3/2 190/3/2 192/3/2
f 193/3/55 194/3/55 195/3/55 196/3/55
f 194/3/56 197/3/56 198/3/56 195/3/56
f 197/3/57 199/3/57 200/3/57 198/3/57
f 199/3/58 201/3/58 202/3/58 200/3/58
f 201/3/59 203/3/59 204/3/59 202/3/59
f 203/3/60 205/3/60 206/3/60 204/3/60
f 205/3/61 207/3/61 208/3/61 206/3/61
f 207/3/62 193/3/62 196/3/62 208/3/62
f 196/3/2 195/3/2 198/3/2 200/3/2 202/3/2 204/3/2 206/3/2 208/3/2
