# Blender 5.2.0 LTS
# www.blender.org
mtllib FN_Seating_Beam.mtl
o FN_Seating_Beam
v -0.770000 0.000000 0.305000
v -0.770000 0.000000 -0.255000
v -0.710000 0.000000 -0.255000
v -0.710000 0.000000 0.305000
v -0.770000 0.044000 0.305000
v -0.710000 0.044000 0.305000
v -0.710000 0.044000 -0.255000
v -0.770000 0.044000 -0.255000
v -0.764000 0.026000 0.269000
v -0.764000 0.026000 0.221000
v -0.716000 0.026000 0.221000
v -0.716000 0.026000 0.269000
v -0.764000 0.350000 0.269000
v -0.716000 0.350000 0.269000
v -0.716000 0.350000 0.221000
v -0.764000 0.350000 0.221000
v 0.710000 0.000000 0.305000
v 0.710000 0.000000 -0.255000
v 0.770000 0.000000 -0.255000
v 0.770000 0.000000 0.305000
v 0.710000 0.044000 0.305000
v 0.770000 0.044000 0.305000
v 0.770000 0.044000 -0.255000
v 0.710000 0.044000 -0.255000
v 0.716000 0.026000 0.269000
v 0.716000 0.026000 0.221000
v 0.764000 0.026000 0.221000
v 0.764000 0.026000 0.269000
v 0.716000 0.350000 0.269000
v 0.764000 0.350000 0.269000
v 0.764000 0.350000 0.221000
v 0.716000 0.350000 0.221000
v -0.880000 0.330000 0.275000
v -0.880000 0.330000 0.215000
v 0.880000 0.330000 0.215000
v 0.880000 0.330000 0.275000
v -0.880000 0.380000 0.275000
v 0.880000 0.380000 0.275000
v 0.880000 0.380000 0.215000
v -0.880000 0.380000 0.215000
v -0.856000 0.360000 0.267000
v -0.856000 0.360000 0.225000
v -0.816000 0.360000 0.225000
v -0.816000 0.360000 0.267000
v -0.856000 0.620000 0.267000
v -0.816000 0.620000 0.267000
v -0.816000 0.620000 0.225000
v -0.856000 0.620000 0.225000
v -0.866000 0.600000 0.285000
v -0.866000 0.600000 -0.035000
v -0.806000 0.600000 -0.035000
v -0.806000 0.600000 0.285000
v -0.866000 0.630000 0.285000
v -0.806000 0.630000 0.285000
v -0.806000 0.630000 -0.035000
v -0.866000 0.630000 -0.035000
v -0.300000 0.360000 0.267000
v -0.300000 0.360000 0.225000
v -0.260000 0.360000 0.225000
v -0.260000 0.360000 0.267000
v -0.300000 0.620000 0.267000
v -0.260000 0.620000 0.267000
v -0.260000 0.620000 0.225000
v -0.300000 0.620000 0.225000
v -0.310000 0.600000 0.285000
v -0.310000 0.600000 -0.035000
v -0.250000 0.600000 -0.035000
v -0.250000 0.600000 0.285000
v -0.310000 0.630000 0.285000
v -0.250000 0.630000 0.285000
v -0.250000 0.630000 -0.035000
v -0.310000 0.630000 -0.035000
v 0.260000 0.360000 0.267000
v 0.260000 0.360000 0.225000
v 0.300000 0.360000 0.225000
v 0.300000 0.360000 0.267000
v 0.260000 0.620000 0.267000
v 0.300000 0.620000 0.267000
v 0.300000 0.620000 0.225000
v 0.260000 0.620000 0.225000
v 0.250000 0.600000 0.285000
v 0.250000 0.600000 -0.035000
v 0.310000 0.600000 -0.035000
v 0.310000 0.600000 0.285000
v 0.250000 0.630000 0.285000
v 0.310000 0.630000 0.285000
v 0.310000 0.630000 -0.035000
v 0.250000 0.630000 -0.035000
v 0.816000 0.360000 0.267000
v 0.816000 0.360000 0.225000
v 0.856000 0.360000 0.225000
v 0.856000 0.360000 0.267000
v 0.816000 0.620000 0.267000
v 0.856000 0.620000 0.267000
v 0.856000 0.620000 0.225000
v 0.816000 0.620000 0.225000
v 0.806000 0.600000 0.285000
v 0.806000 0.600000 -0.035000
v 0.866000 0.600000 -0.035000
v 0.866000 0.600000 0.285000
v 0.806000 0.630000 0.285000
v 0.866000 0.630000 0.285000
v 0.866000 0.630000 -0.035000
v 0.806000 0.630000 -0.035000
v -0.620000 0.360000 0.269000
v -0.620000 0.360000 0.045000
v -0.500000 0.360000 0.045000
v -0.500000 0.360000 0.269000
v -0.620000 0.434000 0.269000
v -0.500000 0.434000 0.269000
v -0.500000 0.434000 0.045000
v -0.620000 0.434000 0.045000
v -0.800000 0.418000 0.235000
v -0.800000 0.418000 -0.185000
v -0.320000 0.418000 -0.185000
v -0.320000 0.418000 0.235000
v -0.800000 0.450000 0.235000
v -0.320000 0.450000 0.235000
v -0.320000 0.450000 -0.185000
v -0.800000 0.450000 -0.185000
v -0.800000 0.790000 -0.245000
v -0.800000 0.790000 -0.305000
v -0.800000 0.430000 -0.205000
v -0.800000 0.430000 -0.145000
v -0.320000 0.430000 -0.145000
v -0.320000 0.430000 -0.205000
v -0.320000 0.790000 -0.305000
v -0.320000 0.790000 -0.245000
v -0.060000 0.360000 0.269000
v -0.060000 0.360000 0.045000
v 0.060000 0.360000 0.045000
v 0.060000 0.360000 0.269000
v -0.060000 0.434000 0.269000
v 0.060000 0.434000 0.269000
v 0.060000 0.434000 0.045000
v -0.060000 0.434000 0.045000
v -0.240000 0.418000 0.235000
v -0.240000 0.418000 -0.185000
v 0.240000 0.418000 -0.185000
v 0.240000 0.418000 0.235000
v -0.240000 0.450000 0.235000
v 0.240000 0.450000 0.235000
v 0.240000 0.450000 -0.185000
v -0.240000 0.450000 -0.185000
v -0.240000 0.790000 -0.245000
v -0.240000 0.790000 -0.305000
v -0.240000 0.430000 -0.205000
v -0.240000 0.430000 -0.145000
v 0.240000 0.430000 -0.145000
v 0.240000 0.430000 -0.205000
v 0.240000 0.790000 -0.305000
v 0.240000 0.790000 -0.245000
v 0.500000 0.360000 0.269000
v 0.500000 0.360000 0.045000
v 0.620000 0.360000 0.045000
v 0.620000 0.360000 0.269000
v 0.500000 0.434000 0.269000
v 0.620000 0.434000 0.269000
v 0.620000 0.434000 0.045000
v 0.500000 0.434000 0.045000
v 0.320000 0.418000 0.235000
v 0.320000 0.418000 -0.185000
v 0.800000 0.418000 -0.185000
v 0.800000 0.418000 0.235000
v 0.320000 0.450000 0.235000
v 0.800000 0.450000 0.235000
v 0.800000 0.450000 -0.185000
v 0.320000 0.450000 -0.185000
v 0.320000 0.790000 -0.245000
v 0.320000 0.790000 -0.305000
v 0.320000 0.430000 -0.205000
v 0.320000 0.430000 -0.145000
v 0.800000 0.430000 -0.145000
v 0.800000 0.430000 -0.205000
v 0.800000 0.790000 -0.305000
v 0.800000 0.790000 -0.245000
vn -0.0000 -1.0000 -0.0000
vn -0.0000 1.0000 -0.0000
vn -0.0000 -0.0000 1.0000
vn -0.0000 -0.0000 -1.0000
vn -1.0000 -0.0000 -0.0000
vn 1.0000 -0.0000 -0.0000
vn -0.0000 -0.2676 -0.9635
vn -0.0000 0.2676 0.9635
vt 0.062500 0.312500
vt 0.437500 0.062500
s 0
usemtl FN_Atlas
f 1/1/1 2/1/1 3/1/1 4/1/1
f 5/1/2 6/1/2 7/1/2 8/1/2
f 1/1/3 4/1/3 6/1/3 5/1/3
f 3/1/4 2/1/4 8/1/4 7/1/4
f 1/1/5 5/1/5 8/1/5 2/1/5
f 4/1/6 3/1/6 7/1/6 6/1/6
f 9/1/1 10/1/1 11/1/1 12/1/1
f 13/1/2 14/1/2 15/1/2 16/1/2
f 9/1/3 12/1/3 14/1/3 13/1/3
f 11/1/4 10/1/4 16/1/4 15/1/4
f 9/1/5 13/1/5 16/1/5 10/1/5
f 12/1/6 11/1/6 15/1/6 14/1/6
f 17/1/1 18/1/1 19/1/1 20/1/1
f 21/1/2 22/1/2 23/1/2 24/1/2
f 17/1/3 20/1/3 22/1/3 21/1/3
f 19/1/4 18/1/4 24/1/4 23/1/4
f 17/1/5 21/1/5 24/1/5 18/1/5
f 20/1/6 19/1/6 23/1/6 22/1/6
f 25/1/1 26/1/1 27/1/1 28/1/1
f 29/1/2 30/1/2 31/1/2 32/1/2
f 25/1/3 28/1/3 30/1/3 29/1/3
f 27/1/4 26/1/4 32/1/4 31/1/4
f 25/1/5 29/1/5 32/1/5 26/1/5
f 28/1/6 27/1/6 31/1/6 30/1/6
f 33/1/1 34/1/1 35/1/1 36/1/1
f 37/1/2 38/1/2 39/1/2 40/1/2
f 33/1/3 36/1/3 38/1/3 37/1/3
f 35/1/4 34/1/4 40/1/4 39/1/4
f 33/1/5 37/1/5 40/1/5 34/1/5
f 36/1/6 35/1/6 39/1/6 38/1/6
f 41/1/1 42/1/1 43/1/1 44/1/1
f 45/1/2 46/1/2 47/1/2 48/1/2
f 41/1/3 44/1/3 46/1/3 45/1/3
f 43/1/4 42/1/4 48/1/4 47/1/4
f 41/1/5 45/1/5 48/1/5 42/1/5
f 44/1/6 43/1/6 47/1/6 46/1/6
f 49/1/1 50/1/1 51/1/1 52/1/1
f 53/1/2 54/1/2 55/1/2 56/1/2
f 49/1/3 52/1/3 54/1/3 53/1/3
f 51/1/4 50/1/4 56/1/4 55/1/4
f 49/1/5 53/1/5 56/1/5 50/1/5
f 52/1/6 51/1/6 55/1/6 54/1/6
f 57/1/1 58/1/1 59/1/1 60/1/1
f 61/1/2 62/1/2 63/1/2 64/1/2
f 57/1/3 60/1/3 62/1/3 61/1/3
f 59/1/4 58/1/4 64/1/4 63/1/4
f 57/1/5 61/1/5 64/1/5 58/1/5
f 60/1/6 59/1/6 63/1/6 62/1/6
f 65/1/1 66/1/1 67/1/1 68/1/1
f 69/1/2 70/1/2 71/1/2 72/1/2
f 65/1/3 68/1/3 70/1/3 69/1/3
f 67/1/4 66/1/4 72/1/4 71/1/4
f 65/1/5 69/1/5 72/1/5 66/1/5
f 68/1/6 67/1/6 71/1/6 70/1/6
f 73/1/1 74/1/1 75/1/1 76/1/1
f 77/1/2 78/1/2 79/1/2 80/1/2
f 73/1/3 76/1/3 78/1/3 77/1/3
f 75/1/4 74/1/4 80/1/4 79/1/4
f 73/1/5 77/1/5 80/1/5 74/1/5
f 76/1/6 75/1/6 79/1/6 78/1/6
f 81/1/1 82/1/1 83/1/1 84/1/1
f 85/1/2 86/1/2 87/1/2 88/1/2
f 81/1/3 84/1/3 86/1/3 85/1/3
f 83/1/4 82/1/4 88/1/4 87/1/4
f 81/1/5 85/1/5 88/1/5 82/1/5
f 84/1/6 83/1/6 87/1/6 86/1/6
f 89/1/1 90/1/1 91/1/1 92/1/1
f 93/1/2 94/1/2 95/1/2 96/1/2
f 89/1/3 92/1/3 94/1/3 93/1/3
f 91/1/4 90/1/4 96/1/4 95/1/4
f 89/1/5 93/1/5 96/1/5 90/1/5
f 92/1/6 91/1/6 95/1/6 94/1/6
f 97/1/1 98/1/1 99/1/1 100/1/1
f 101/1/2 102/1/2 103/1/2 104/1/2
f 97/1/3 100/1/3 102/1/3 101/1/3
f 99/1/4 98/1/4 104/1/4 103/1/4
f 97/1/5 101/1/5 104/1/5 98/1/5
f 100/1/6 99/1/6 103/1/6 102/1/6
f 105/1/1 106/1/1 107/1/1 108/1/1
f 109/1/2 110/1/2 111/1/2 112/1/2
f 105/1/3 108/1/3 110/1/3 109/1/3
f 107/1/4 106/1/4 112/1/4 111/1/4
f 105/1/5 109/1/5 112/1/5 106/1/5
f 108/1/6 107/1/6 111/1/6 110/1/6
f 113/2/1 114/2/1 115/2/1 116/2/1
f 117/2/2 118/2/2 119/2/2 120/2/2
f 113/2/3 116/2/3 118/2/3 117/2/3
f 115/2/4 114/2/4 120/2/4 119/2/4
f 113/2/5 117/2/5 120/2/5 114/2/5
f 116/2/6 115/2/6 119/2/6 118/2/6
f 121/2/5 122/2/5 123/2/5 124/2/5
f 125/2/6 126/2/6 127/2/6 128/2/6
f 124/2/1 123/2/1 126/2/1 125/2/1
f 123/2/7 122/2/7 127/2/7 126/2/7
f 122/2/2 121/2/2 128/2/2 127/2/2
f 121/2/8 124/2/8 125/2/8 128/2/8
f 129/1/1 130/1/1 131/1/1 132/1/1
f 133/1/2 134/1/2 135/1/2 136/1/2
f 129/1/3 132/1/3 134/1/3 133/1/3
f 131/1/4 130/1/4 136/1/4 135/1/4
f 129/1/5 133/1/5 136/1/5 130/1/5
f 132/1/6 131/1/6 135/1/6 134/1/6
f 137/2/1 138/2/1 139/2/1 140/2/1
f 141/2/2 142/2/2 143/2/2 144/2/2
f 137/2/3 140/2/3 142/2/3 141/2/3
f 139/2/4 138/2/4 144/2/4 143/2/4
f 137/2/5 141/2/5 144/2/5 138/2/5
f 140/2/6 139/2/6 143/2/6 142/2/6
f 145/2/5 146/2/5 147/2/5 148/2/5
f 149/2/6 150/2/6 151/2/6 152/2/6
f 148/2/1 147/2/1 150/2/1 149/2/1
f 147/2/7 146/2/7 151/2/7 150/2/7
f 146/2/2 145/2/2 152/2/2 151/2/2
f 145/2/8 148/2/8 149/2/8 152/2/8
f 153/1/1 154/1/1 155/1/1 156/1/1
f 157/1/2 158/1/2 159/1/2 160/1/2
f 153/1/3 156/1/3 158/1/3 157/1/3
f 155/1/4 154/1/4 160/1/4 159/1/4
f 153/1/5 157/1/5 160/1/5 154/1/5
f 156/1/6 155/1/6 159/1/6 158/1/6
f 161/2/1 162/2/1 163/2/1 164/2/1
f 165/2/2 166/2/2 167/2/2 168/2/2
f 161/2/3 164/2/3 166/2/3 165/2/3
f 163/2/4 162/2/4 168/2/4 167/2/4
f 161/2/5 165/2/5 168/2/5 162/2/5
f 164/2/6 163/2/6 167/2/6 166/2/6
f 169/2/5 170/2/5 171/2/5 172/2/5
f 173/2/6 174/2/6 175/2/6 176/2/6
f 172/2/1 171/2/1 174/2/1 173/2/1
f 171/2/7 170/2/7 175/2/7 174/2/7
f 170/2/2 169/2/2 176/2/2 175/2/2
f 169/2/8 172/2/8 173/2/8 176/2/8
