# Blender 5.2.0 LTS
# www.blender.org
mtllib FN_Shelf_Kitchen.mtl
o FN_Shelf_Kitchen
v -0.372000 0.330000 0.000000
v -0.372000 0.330000 -0.200000
v -0.372000 0.300000 -0.200000
v -0.372000 0.300000 -0.030000
v -0.372000 0.000000 -0.030000
v -0.372000 0.000000 0.000000
v -0.348000 0.000000 0.000000
v -0.348000 0.000000 -0.030000
v -0.348000 0.300000 -0.030000
v -0.348000 0.300000 -0.200000
v -0.348000 0.330000 -0.200000
v -0.348000 0.330000 0.000000
v 0.348000 0.330000 0.000000
v 0.348000 0.330000 -0.200000
v 0.348000 0.300000 -0.200000
v 0.348000 0.300000 -0.030000
v 0.348000 0.000000 -0.030000
v 0.348000 0.000000 0.000000
v 0.372000 0.000000 0.000000
v 0.372000 0.000000 -0.030000
v 0.372000 0.300000 -0.030000
v 0.372000 0.300000 -0.200000
v 0.372000 0.330000 -0.200000
v 0.372000 0.330000 0.000000
v -0.450000 0.324000 -0.004000
v -0.450000 0.324000 -0.220000
v 0.450000 0.324000 -0.220000
v 0.450000 0.324000 -0.004000
v -0.450000 0.348000 -0.004000
v 0.450000 0.348000 -0.004000
v 0.450000 0.348000 -0.220000
v -0.450000 0.348000 -0.220000
v -0.370000 0.230000 -0.020000
v -0.370000 0.230000 -0.132000
v -0.350000 0.230000 -0.132000
v -0.350000 0.230000 -0.020000
v -0.370000 0.250000 -0.020000
v -0.350000 0.250000 -0.020000
v -0.350000 0.250000 -0.132000
v -0.370000 0.250000 -0.132000
v 0.350000 0.230000 -0.020000
v 0.350000 0.230000 -0.132000
v 0.370000 0.230000 -0.132000
v 0.370000 0.230000 -0.020000
v 0.350000 0.250000 -0.020000
v 0.370000 0.250000 -0.020000
v 0.370000 0.250000 -0.132000
v 0.350000 0.250000 -0.132000
v -0.376000 0.232929 -0.127071
v -0.376000 0.230000 -0.120000
v -0.376000 0.232929 -0.112929
v -0.376000 0.240000 -0.110000
v -0.376000 0.247071 -0.112929
v -0.376000 0.250000 -0.120000
v -0.376000 0.247071 -0.127071
v -0.376000 0.240000 -0.130000
v 0.376000 0.240000 -0.130000
v 0.376000 0.247071 -0.127071
v 0.376000 0.250000 -0.120000
v 0.376000 0.247071 -0.112929
v 0.376000 0.240000 -0.110000
v 0.376000 0.232929 -0.112929
v 0.376000 0.230000 -0.120000
v 0.376000 0.232929 -0.127071
v -0.206000 0.186000 -0.114000
v -0.206000 0.186000 -0.126000
v -0.194000 0.186000 -0.126000
v -0.194000 0.186000 -0.114000
v -0.206000 0.258000 -0.114000
v -0.194000 0.258000 -0.114000
v -0.194000 0.258000 -0.126000
v -0.206000 0.258000 -0.126000
v -0.006000 0.186000 -0.114000
v -0.006000 0.186000 -0.126000
v 0.006000 0.186000 -0.126000
v 0.006000 0.186000 -0.114000
v -0.006000 0.258000 -0.114000
v 0.006000 0.258000 -0.114000
v 0.006000 0.258000 -0.126000
v -0.006000 0.258000 -0.126000
v 0.194000 0.186000 -0.114000
v 0.194000 0.186000 -0.126000
v 0.206000 0.186000 -0.126000
v 0.206000 0.186000 -0.114000
v 0.194000 0.258000 -0.114000
v 0.206000 0.258000 -0.114000
v 0.206000 0.258000 -0.126000
v 0.194000 0.258000 -0.126000
v -0.130000 0.078000 -0.096000
v -0.150503 0.127497 -0.096000
v -0.200000 0.148000 -0.096000
v -0.249497 0.127497 -0.096000
v -0.270000 0.078000 -0.096000
v -0.249497 0.028503 -0.096000
v -0.200000 0.008000 -0.096000
v -0.150503 0.028503 -0.096000
v -0.150503 0.028503 -0.144000
v -0.200000 0.008000 -0.144000
v -0.249497 0.028503 -0.144000
v -0.270000 0.078000 -0.144000
v -0.249497 0.127497 -0.144000
v -0.200000 0.148000 -0.144000
v -0.150503 0.127497 -0.144000
v -0.130000 0.078000 -0.144000
v -0.208000 0.138000 -0.110000
v -0.208000 0.138000 -0.130000
v -0.192000 0.138000 -0.130000
v -0.192000 0.138000 -0.110000
v -0.208000 0.196000 -0.110000
v -0.192000 0.196000 -0.110000
v -0.192000 0.196000 -0.130000
v -0.208000 0.196000 -0.130000
v 0.056000 0.094000 -0.096000
v 0.039598 0.133598 -0.096000
v 0.000000 0.150000 -0.096000
v -0.039598 0.133598 -0.096000
v -0.056000 0.094000 -0.096000
v -0.039598 0.054402 -0.096000
v -0.000000 0.038000 -0.096000
v 0.039598 0.054402 -0.096000
v 0.039598 0.054402 -0.144000
v -0.000000 0.038000 -0.144000
v -0.039598 0.054402 -0.144000
v -0.056000 0.094000 -0.144000
v -0.039598 0.133598 -0.144000
v 0.000000 0.150000 -0.144000
v 0.039598 0.133598 -0.144000
v 0.056000 0.094000 -0.144000
v -0.008000 0.140000 -0.110000
v -0.008000 0.140000 -0.130000
v 0.008000 0.140000 -0.130000
v 0.008000 0.140000 -0.110000
v -0.008000 0.196000 -0.110000
v 0.008000 0.196000 -0.110000
v 0.008000 0.196000 -0.130000
v -0.008000 0.196000 -0.130000
v 0.262000 0.086000 -0.096000
v 0.243841 0.129841 -0.096000
v 0.200000 0.148000 -0.096000
v 0.156159 0.129841 -0.096000
v 0.138000 0.086000 -0.096000
v 0.156159 0.042159 -0.096000
v 0.200000 0.024000 -0.096000
v 0.243841 0.042159 -0.096000
v 0.243841 0.042159 -0.144000
v 0.200000 0.024000 -0.144000
v 0.156159 0.042159 -0.144000
v 0.138000 0.086000 -0.144000
v 0.156159 0.129841 -0.144000
v 0.200000 0.148000 -0.144000
v 0.243841 0.129841 -0.144000
v 0.262000 0.086000 -0.144000
v 0.192000 0.138000 -0.110000
v 0.192000 0.138000 -0.130000
v 0.208000 0.138000 -0.130000
v 0.208000 0.138000 -0.110000
v 0.192000 0.196000 -0.110000
v 0.208000 0.196000 -0.110000
v 0.208000 0.196000 -0.130000
v 0.192000 0.196000 -0.130000
v 0.331000 0.344000 -0.075627
v 0.289000 0.344000 -0.075627
v 0.268000 0.344000 -0.112000
v 0.289000 0.344000 -0.148373
v 0.331000 0.344000 -0.148373
v 0.352000 0.344000 -0.112000
v 0.352000 0.478000 -0.112000
v 0.331000 0.478000 -0.148373
v 0.289000 0.478000 -0.148373
v 0.268000 0.478000 -0.112000
v 0.289000 0.478000 -0.075627
v 0.331000 0.478000 -0.075627
v 0.333000 0.470000 -0.072163
v 0.287000 0.470000 -0.072163
v 0.264000 0.470000 -0.112000
v 0.287000 0.470000 -0.151837
v 0.333000 0.470000 -0.151837
v 0.356000 0.470000 -0.112000
v 0.356000 0.492000 -0.112000
v 0.333000 0.492000 -0.151837
v 0.287000 0.492000 -0.151837
v 0.264000 0.492000 -0.112000
v 0.287000 0.492000 -0.072163
v 0.333000 0.492000 -0.072163
v 0.418000 0.344000 -0.080823
v 0.382000 0.344000 -0.080823
v 0.364000 0.344000 -0.112000
v 0.382000 0.344000 -0.143177
v 0.418000 0.344000 -0.143177
v 0.436000 0.344000 -0.112000
v 0.436000 0.452000 -0.112000
v 0.418000 0.452000 -0.143177
v 0.382000 0.452000 -0.143177
v 0.364000 0.452000 -0.112000
v 0.382000 0.452000 -0.080823
v 0.418000 0.452000 -0.080823
v 0.420000 0.444000 -0.077359
v 0.380000 0.444000 -0.077359
v 0.360000 0.444000 -0.112000
v 0.380000 0.444000 -0.146641
v 0.420000 0.444000 -0.146641
v 0.440000 0.444000 -0.112000
v 0.440000 0.464000 -0.112000
v 0.420000 0.464000 -0.146641
v 0.380000 0.464000 -0.146641
v 0.360000 0.464000 -0.112000
v 0.380000 0.464000 -0.077359
v 0.420000 0.464000 -0.077359
vn -1.0000 -0.0000 -0.0000
vn 1.0000 -0.0000 -0.0000
vn -0.0000 -1.0000 -0.0000
vn -0.0000 -0.0000 1.0000
vn -0.0000 1.0000 -0.0000
vn -0.0000 -0.0000 -1.0000
vn -0.0000 0.3827 -0.9239
vn -0.0000 0.9239 -0.3827
vn -0.0000 0.9239 0.3827
vn -0.0000 0.3827 0.9239
vn -0.0000 -0.3827 0.9239
vn -0.0000 -0.9239 0.3827
vn -0.0000 -0.9239 -0.3827
vn -0.0000 -0.3827 -0.9239
vn 0.9239 0.3827 -0.0000
vn 0.3827 0.9239 -0.0000
vn -0.3827 0.9239 -0.0000
vn -0.9239 0.3827 -0.0000
vn -0.9239 -0.3827 -0.0000
vn -0.3827 -0.9239 -0.0000
vn 0.3827 -0.9239 -0.0000
vn 0.9239 -0.3827 -0.0000
vn 0.8660 -0.0000 -0.5000
vn -0.8660 -0.0000 -0.5000
vn -0.8660 -0.0000 0.5000
vn 0.8660 -0.0000 0.5000
vt 0.812500 0.312500
vt 0.437500 0.937500
vt 0.437500 0.812500
vt 0.437500 0.312500
s 0
usemtl FN_Atlas
f 1/1/1 2/1/1 3/1/1 4/1/1 5/1/1 6/1/1
f 7/1/2 8/1/2 9/1/2 10/1/2 11/1/2 12/1/2
f 6/1/3 5/1/3 8/1/3 7/1/3
f 8/1/4 9/1/4 4/1/4 5/1/4
f 9/1/5 10/1/5 3/1/5 4/1/5
f 3/1/6 2/1/6 11/1/6 10/1/6
f 2/1/5 1/1/5 12/1/5 11/1/5
f 1/1/4 6/1/4 7/1/4 12/1/4
f 13/1/1 14/1/1 15/1/1 16/1/1 17/1/1 18/1/1
f 19/1/2 20/1/2 21/1/2 22/1/2 23/1/2 24/1/2
f 18/1/3 17/1/3 20/1/3 19/1/3
f 20/1/4 21/1/4 16/1/4 17/1/4
f 21/1/5 22/1/5 15/1/5 16/1/5
f 15/1/6 14/1/6 23/1/6 22/1/6
f 14/1/5 13/1/5 24/1/5 23/1/5
f 13/1/4 18/1/4 19/1/4 24/1/4
f 25/2/3 26/2/3 27/2/3 28/2/3
f 29/2/5 30/2/5 31/2/5 32/2/5
f 25/2/4 28/2/4 30/2/4 29/2/4
f 27/2/6 26/2/6 32/2/6 31/2/6
f 25/2/1 29/2/1 32/2/1 26/2/1
f 28/2/2 27/2/2 31/2/2 30/2/2
f 33/1/3 34/1/3 35/1/3 36/1/3
f 37/1/5 38/1/5 39/1/5 40/1/5
f 33/1/4 36/1/4 38/1/4 37/1/4
f 35/1/6 34/1/6 40/1/6 39/1/6
f 33/1/1 37/1/1 40/1/1 34/1/1
f 36/1/2 35/1/2 39/1/2 38/1/2
f 41/1/3 42/1/3 43/1/3 44/1/3
f 45/1/5 46/1/5 47/1/5 48/1/5
f 41/1/4 44/1/4 46/1/4 45/1/4
f 43/1/6 42/1/6 48/1/6 47/1/6
f 41/1/1 45/1/1 48/1/1 42/1/1
f 44/1/2 43/1/2 47/1/2 46/1/2
f 49/1/1 50/1/1 51/1/1 52/1/1 53/1/1 54/1/1 55/1/1 56/1/1
f 57/1/2 58/1/2 59/1/2 60/1/2 61/1/2 62/1/2 63/1/2 64/1/2
f 56/1/7 55/1/7 58/1/7 57/1/7
f 55/1/8 54/1/8 59/1/8 58/1/8
f 54/1/9 53/1/9 60/1/9 59/1/9
f 53/1/10 52/1/10 61/1/10 60/1/10
f 52/1/11 51/1/11 62/1/11 61/1/11
f 51/1/12 50/1/12 63/1/12 62/1/12
f 50/1/13 49/1/13 64/1/13 63/1/13
f 49/1/14 56/1/14 57/1/14 64/1/14
f 65/1/3 66/1/3 67/1/3 68/1/3
f 69/1/5 70/1/5 71/1/5 72/1/5
f 65/1/4 68/1/4 70/1/4 69/1/4
f 67/1/6 66/1/6 72/1/6 71/1/6
f 65/1/1 69/1/1 72/1/1 66/1/1
f 68/1/2 67/1/2 71/1/2 70/1/2
f 73/1/3 74/1/3 75/1/3 76/1/3
f 77/1/5 78/1/5 79/1/5 80/1/5
f 73/1/4 76/1/4 78/1/4 77/1/4
f 75/1/6 74/1/6 80/1/6 79/1/6
f 73/1/1 77/1/1 80/1/1 74/1/1
f 76/1/2 75/1/2 79/1/2 78/1/2
f 81/1/3 82/1/3 83/1/3 84/1/3
f 85/1/5 86/1/5 87/1/5 88/1/5
f 81/1/4 84/1/4 86/1/4 85/1/4
f 83/1/6 82/1/6 88/1/6 87/1/6
f 81/1/1 85/1/1 88/1/1 82/1/1
f 84/1/2 83/1/2 87/1/2 86/1/2
f 89/1/4 90/1/4 91/1/4 92/1/4 93/1/4 94/1/4 95/1/4 96/1/4
f 97/1/6 98/1/6 99/1/6 100/1/6 101/1/6 102/1/6 103/1/6 104/1/6
f 90/1/15 89/1/15 104/1/15 103/1/15
f 91/1/16 90/1/16 103/1/16 102/1/16
f 92/1/17 91/1/17 102/1/17 101/1/17
f 93/1/18 92/1/18 101/1/18 100/1/18
f 94/1/19 93/1/19 100/1/19 99/1/19
f 95/1/20 94/1/20 99/1/20 98/1/20
f 96/1/21 95/1/21 98/1/21 97/1/21
f 89/1/22 96/1/22 97/1/22 104/1/22
f 105/1/3 106/1/3 107/1/3 108/1/3
f 109/1/5 110/1/5 111/1/5 112/1/5
f 105/1/4 108/1/4 110/1/4 109/1/4
f 107/1/6 106/1/6 112/1/6 111/1/6
f 105/1/1 109/1/1 112/1/1 106/1/1
f 108/1/2 107/1/2 111/1/2 110/1/2
f 113/1/4 114/1/4 115/1/4 116/1/4 117/1/4 118/1/4 119/1/4 120/1/4
f 121/1/6 122/1/6 123/1/6 124/1/6 125/1/6 126/1/6 127/1/6 128/1/6
f 114/1/15 113/1/15 128/1/15 127/1/15
f 115/1/16 114/1/16 127/1/16 126/1/16
f 116/1/17 115/1/17 126/1/17 125/1/17
f 117/1/18 116/1/18 125/1/18 124/1/18
f 118/1/19 117/1/19 124/1/19 123/1/19
f 119/1/20 118/1/20 123/1/20 122/1/20
f 120/1/21 119/1/21 122/1/21 121/1/21
f 113/1/22 120/1/22 121/1/22 128/1/22
f 129/1/3 130/1/3 131/1/3 132/1/3
f 133/1/5 134/1/5 135/1/5 136/1/5
f 129/1/4 132/1/4 134/1/4 133/1/4
f 131/1/6 130/1/6 136/1/6 135/1/6
f 129/1/1 133/1/1 136/1/1 130/1/1
f 132/1/2 131/1/2 135/1/2 134/1/2
f 137/1/4 138/1/4 139/1/4 140/1/4 141/1/4 142/1/4 143/1/4 144/1/4
f 145/1/6 146/1/6 147/1/6 148/1/6 149/1/6 150/1/6 151/1/6 152/1/6
f 138/1/15 137/1/15 152/1/15 151/1/15
f 139/1/16 138/1/16 151/1/16 150/1/16
f 140/1/17 139/1/17 150/1/17 149/1/17
f 141/1/18 140/1/18 149/1/18 148/1/18
f 142/1/19 141/1/19 148/1/19 147/1/19
f 143/1/20 142/1/20 147/1/20 146/1/20
f 144/1/21 143/1/21 146/1/21 145/1/21
f 137/1/22 144/1/22 145/1/22 152/1/22
f 153/1/3 154/1/3 155/1/3 156/1/3
f 157/1/5 158/1/5 159/1/5 160/1/5
f 153/1/4 156/1/4 158/1/4 157/1/4
f 155/1/6 154/1/6 160/1/6 159/1/6
f 153/1/1 157/1/1 160/1/1 154/1/1
f 156/1/2 155/1/2 159/1/2 158/1/2
f 161/3/3 162/3/3 163/3/3 164/3/3 165/3/3 166/3/3
f 167/3/5 168/3/5 169/3/5 170/3/5 171/3/5 172/3/5
f 166/3/23 165/3/23 168/3/23 167/3/23
f 165/3/6 164/3/6 169/3/6 168/3/6
f 164/3/24 163/3/24 170/3/24 169/3/24
f 163/3/25 162/3/25 171/3/25 170/3/25
f 162/3/4 161/3/4 172/3/4 171/3/4
f 161/3/26 166/3/26 167/3/26 172/3/26
f 173/4/3 174/4/3 175/4/3 176/4/3 177/4/3 178/4/3
f 179/4/5 180/4/5 181/4/5 182/4/5 183/4/5 184/4/5
f 178/4/23 177/4/23 180/4/23 179/4/23
f 177/4/6 176/4/6 181/4/6 180/4/6
f 176/4/24 175/4/24 182/4/24 181/4/24
f 175/4/25 174/4/25 183/4/25 182/4/25
f 174/4/4 173/4/4 184/4/4 183/4/4
f 173/4/26 178/4/26 179/4/26 184/4/26
f 185/3/3 186/3/3 187/3/3 188/3/3 189/3/3 190/3/3
f 191/3/5 192/3/5 193/3/5 194/3/5 195/3/5 196/3/5
f 190/3/23 189/3/23 192/3/23 191/3/23
f 189/3/6 188/3/6 193/3/6 192/3/6
f 188/3/24 187/3/24 194/3/24 193/3/24
f 187/3/25 186/3/25 195/3/25 194/3/25
f 186/3/4 185/3/4 196/3/4 195/3/4
f 185/3/26 190/3/26 191/3/26 196/3/26
f 197/4/3 198/4/3 199/4/3 200/4/3 201/4/3 202/4/3
f 203/4/5 204/4/5 205/4/5 206/4/5 207/4/5 208/4/5
f 202/4/23 201/4/23 204/4/23 203/4/23
f 201/4/6 200/4/6 205/4/6 204/4/6
f 200/4/24 199/4/24 206/4/24 205/4/24
f 199/4/25 198/4/25 207/4/25 206/4/25
f 198/4/4 197/4/4 208/4/4 207/4/4
f 197/4/26 202/4/26 203/4/26 208/4/26
