# Blender 5.2.0 LTS
# www.blender.org
mtllib FN_Stove_Wood.mtl
o FN_Stove_Wood
v -0.360000 0.000000 0.300000
v -0.360000 0.000000 -0.300000
v 0.360000 0.000000 -0.300000
v 0.360000 0.000000 0.300000
v -0.360000 0.030000 0.300000
v 0.360000 0.030000 0.300000
v 0.360000 0.030000 -0.300000
v -0.360000 0.030000 -0.300000
v -0.209000 0.022000 0.154000
v -0.209000 0.022000 0.106000
v -0.161000 0.022000 0.106000
v -0.161000 0.022000 0.154000
v -0.209000 0.176000 0.154000
v -0.161000 0.176000 0.154000
v -0.161000 0.176000 0.106000
v -0.209000 0.176000 0.106000
v -0.209000 0.022000 -0.146000
v -0.209000 0.022000 -0.194000
v -0.161000 0.022000 -0.194000
v -0.161000 0.022000 -0.146000
v -0.209000 0.176000 -0.146000
v -0.161000 0.176000 -0.146000
v -0.161000 0.176000 -0.194000
v -0.209000 0.176000 -0.194000
v 0.161000 0.022000 0.154000
v 0.161000 0.022000 0.106000
v 0.209000 0.022000 0.106000
v 0.209000 0.022000 0.154000
v 0.161000 0.176000 0.154000
v 0.209000 0.176000 0.154000
v 0.209000 0.176000 0.106000
v 0.161000 0.176000 0.106000
v 0.161000 0.022000 -0.146000
v 0.161000 0.022000 -0.194000
v 0.209000 0.022000 -0.194000
v 0.209000 0.022000 -0.146000
v 0.161000 0.176000 -0.146000
v 0.209000 0.176000 -0.146000
v 0.209000 0.176000 -0.194000
v 0.161000 0.176000 -0.194000
v -0.230000 0.164000 0.180000
v -0.230000 0.164000 -0.220000
v -0.194000 0.164000 -0.220000
v -0.194000 0.164000 0.180000
v -0.230000 0.760000 0.180000
v -0.194000 0.760000 0.180000
v -0.194000 0.760000 -0.220000
v -0.230000 0.760000 -0.220000
v 0.194000 0.164000 0.180000
v 0.194000 0.164000 -0.220000
v 0.230000 0.164000 -0.220000
v 0.230000 0.164000 0.180000
v 0.194000 0.760000 0.180000
v 0.230000 0.760000 0.180000
v 0.230000 0.760000 -0.220000
v 0.194000 0.760000 -0.220000
v -0.206000 0.176000 -0.184000
v -0.206000 0.176000 -0.214000
v 0.206000 0.176000 -0.214000
v 0.206000 0.176000 -0.184000
v -0.206000 0.748000 -0.184000
v 0.206000 0.748000 -0.184000
v 0.206000 0.748000 -0.214000
v -0.206000 0.748000 -0.214000
v -0.206000 0.176000 0.174000
v -0.206000 0.176000 -0.208000
v 0.206000 0.176000 -0.208000
v 0.206000 0.176000 0.174000
v -0.206000 0.296000 0.174000
v 0.206000 0.296000 0.174000
v 0.206000 0.296000 -0.208000
v -0.206000 0.296000 -0.208000
v -0.206000 0.718000 0.174000
v -0.206000 0.718000 -0.208000
v 0.206000 0.718000 -0.208000
v 0.206000 0.718000 0.174000
v -0.206000 0.746000 0.174000
v 0.206000 0.746000 0.174000
v 0.206000 0.746000 -0.208000
v -0.206000 0.746000 -0.208000
v -0.206000 0.640000 0.166000
v -0.206000 0.640000 0.136000
v 0.206000 0.640000 0.136000
v 0.206000 0.640000 0.166000
v -0.206000 0.724000 0.166000
v 0.206000 0.724000 0.166000
v 0.206000 0.724000 0.136000
v -0.206000 0.724000 0.136000
v -0.256000 0.752000 0.206000
v -0.256000 0.752000 -0.246000
v 0.256000 0.752000 -0.246000
v 0.256000 0.752000 0.206000
v -0.256000 0.782000 0.206000
v 0.256000 0.782000 0.206000
v 0.256000 0.782000 -0.246000
v -0.256000 0.782000 -0.246000
v 0.076210 0.776000 0.024000
v 0.044000 0.776000 0.056210
v -0.000000 0.776000 0.068000
v -0.044000 0.776000 0.056210
v -0.076210 0.776000 0.024000
v -0.088000 0.776000 -0.020000
v -0.076210 0.776000 -0.064000
v -0.044000 0.776000 -0.096210
v 0.000000 0.776000 -0.108000
v 0.044000 0.776000 -0.096210
v 0.076210 0.776000 -0.064000
v 0.088000 0.776000 -0.020000
v 0.088000 0.816000 -0.020000
v 0.076210 0.816000 -0.064000
v 0.044000 0.816000 -0.096210
v 0.000000 0.816000 -0.108000
v -0.044000 0.816000 -0.096210
v -0.076210 0.816000 -0.064000
v -0.088000 0.816000 -0.020000
v -0.076210 0.816000 0.024000
v -0.044000 0.816000 0.056210
v -0.000000 0.816000 0.068000
v 0.044000 0.816000 0.056210
v 0.076210 0.816000 0.024000
v 0.064086 0.804000 0.017000
v 0.037000 0.804000 0.044086
v -0.000000 0.804000 0.054000
v -0.037000 0.804000 0.044086
v -0.064086 0.804000 0.017000
v -0.074000 0.804000 -0.020000
v -0.064086 0.804000 -0.057000
v -0.037000 0.804000 -0.084086
v 0.000000 0.804000 -0.094000
v 0.037000 0.804000 -0.084086
v 0.064086 0.804000 -0.057000
v 0.074000 0.804000 -0.020000
v 0.074000 1.520000 -0.020000
v 0.064086 1.520000 -0.057000
v 0.037000 1.520000 -0.084086
v 0.000000 1.520000 -0.094000
v -0.037000 1.520000 -0.084086
v -0.064086 1.520000 -0.057000
v -0.074000 1.520000 -0.020000
v -0.064086 1.520000 0.017000
v -0.037000 1.520000 0.044086
v -0.000000 1.520000 0.054000
v 0.037000 1.520000 0.044086
v 0.064086 1.520000 0.017000
v -0.212000 0.286000 0.206000
v -0.212000 0.286000 0.170000
v 0.212000 0.286000 0.170000
v 0.212000 0.286000 0.206000
v -0.212000 0.326000 0.206000
v 0.212000 0.326000 0.206000
v 0.212000 0.326000 0.170000
v -0.212000 0.326000 0.170000
v -0.212000 0.606000 0.206000
v -0.212000 0.606000 0.170000
v 0.212000 0.606000 0.170000
v 0.212000 0.606000 0.206000
v -0.212000 0.646000 0.206000
v 0.212000 0.646000 0.206000
v 0.212000 0.646000 0.170000
v -0.212000 0.646000 0.170000
v -0.206000 0.314000 0.206000
v -0.206000 0.314000 0.170000
v -0.170000 0.314000 0.170000
v -0.170000 0.314000 0.206000
v -0.206000 0.618000 0.206000
v -0.170000 0.618000 0.206000
v -0.170000 0.618000 0.170000
v -0.206000 0.618000 0.170000
v 0.170000 0.314000 0.206000
v 0.170000 0.314000 0.170000
v 0.206000 0.314000 0.170000
v 0.206000 0.314000 0.206000
v 0.170000 0.618000 0.206000
v 0.206000 0.618000 0.206000
v 0.206000 0.618000 0.170000
v 0.170000 0.618000 0.170000
v -0.182000 0.318000 0.180000
v -0.182000 0.318000 0.172000
v 0.182000 0.318000 0.172000
v 0.182000 0.318000 0.180000
v -0.182000 0.614000 0.180000
v 0.182000 0.614000 0.180000
v 0.182000 0.614000 0.172000
v -0.182000 0.614000 0.172000
v 0.180000 0.446000 0.232000
v 0.180000 0.446000 0.194000
v 0.206000 0.446000 0.194000
v 0.206000 0.446000 0.232000
v 0.180000 0.474000 0.232000
v 0.206000 0.474000 0.232000
v 0.206000 0.474000 0.194000
v 0.180000 0.474000 0.194000
v -0.145000 0.370000 0.140000
v -0.145000 0.370000 0.080000
v 0.145000 0.370000 0.080000
v 0.145000 0.370000 0.140000
v -0.145000 0.426000 0.140000
v 0.145000 0.426000 0.140000
v 0.145000 0.426000 0.080000
v -0.145000 0.426000 0.080000
v -0.125000 0.370000 0.075000
v -0.125000 0.370000 0.015000
v 0.125000 0.370000 0.015000
v 0.125000 0.370000 0.075000
v -0.125000 0.426000 0.075000
v 0.125000 0.426000 0.075000
v 0.125000 0.426000 0.015000
v -0.125000 0.426000 0.015000
v -0.110000 0.414000 0.115000
v -0.110000 0.414000 0.050000
v 0.110000 0.414000 0.050000
v 0.110000 0.414000 0.115000
v -0.110000 0.470000 0.115000
v 0.110000 0.470000 0.115000
v 0.110000 0.470000 0.050000
v -0.110000 0.470000 0.050000
v -0.155000 0.290000 -0.055000
v 0.155000 0.290000 -0.055000
v 0.155000 0.290000 0.155000
v -0.155000 0.290000 0.155000
v -0.110000 0.386000 0.130000
v 0.110000 0.386000 0.130000
v 0.110000 0.386000 -0.020000
v -0.110000 0.386000 -0.020000
v -0.085000 0.430000 -0.010000
v 0.055000 0.430000 -0.010000
v 0.055000 0.430000 0.090000
v -0.085000 0.430000 0.090000
v -0.030000 0.520000 0.070000
v 0.010000 0.520000 0.070000
v 0.010000 0.520000 0.040000
v -0.030000 0.520000 0.040000
vn -0.0000 -1.0000 -0.0000
vn -0.0000 1.0000 -0.0000
vn -0.0000 -0.0000 1.0000
vn -0.0000 -0.0000 -1.0000
vn -1.0000 -0.0000 -0.0000
vn 1.0000 -0.0000 -0.0000
vn 0.9659 -0.0000 -0.2588
vn 0.7071 -0.0000 -0.7071
vn 0.2588 -0.0000 -0.9659
vn -0.2588 -0.0000 -0.9659
vn -0.7071 -0.0000 -0.7071
vn -0.9659 -0.0000 -0.2588
vn -0.9659 -0.0000 0.2588
vn -0.7071 -0.0000 0.7071
vn -0.2588 -0.0000 0.9659
vn 0.2588 -0.0000 0.9659
vn 0.7071 -0.0000 0.7071
vn 0.9659 -0.0000 0.2588
vn -0.0000 0.2520 0.9677
vn 0.9055 0.4244 -0.0000
vn -0.0000 0.3425 -0.9395
vn -0.9055 0.4244 -0.0000
vn -0.0000 0.2169 0.9762
vn 0.8944 0.4472 -0.0000
vn -0.0000 0.4856 -0.8742
vn -0.8533 0.5215 -0.0000
vt 0.687500 0.687500
vt 0.812500 0.312500
vt 0.562500 0.187500
vt 0.062500 0.312500
vt 0.562500 0.937500
vt 0.812500 0.062500
s 0
usemtl FN_Atlas
f 1/1/1 2/1/1 3/1/1 4/1/1
f 5/1/2 6/1/2 7/1/2 8/1/2
f 1/1/3 4/1/3 6/1/3 5/1/3
f 3/1/4 2/1/4 8/1/4 7/1/4
f 1/1/5 5/1/5 8/1/5 2/1/5
f 4/1/6 3/1/6 7/1/6 6/1/6
f 9/2/1 10/2/1 11/2/1 12/2/1
f 13/2/2 14/2/2 15/2/2 16/2/2
f 9/2/3 12/2/3 14/2/3 13/2/3
f 11/2/4 10/2/4 16/2/4 15/2/4
f 9/2/5 13/2/5 16/2/5 10/2/5
f 12/2/6 11/2/6 15/2/6 14/2/6
f 17/2/1 18/2/1 19/2/1 20/2/1
f 21/2/2 22/2/2 23/2/2 24/2/2
f 17/2/3 20/2/3 22/2/3 21/2/3
f 19/2/4 18/2/4 24/2/4 23/2/4
f 17/2/5 21/2/5 24/2/5 18/2/5
f 20/2/6 19/2/6 23/2/6 22/2/6
f 25/2/1 26/2/1 27/2/1 28/2/1
f 29/2/2 30/2/2 31/2/2 32/2/2
f 25/2/3 28/2/3 30/2/3 29/2/3
f 27/2/4 26/2/4 32/2/4 31/2/4
f 25/2/5 29/2/5 32/2/5 26/2/5
f 28/2/6 27/2/6 31/2/6 30/2/6
f 33/2/1 34/2/1 35/2/1 36/2/1
f 37/2/2 38/2/2 39/2/2 40/2/2
f 33/2/3 36/2/3 38/2/3 37/2/3
f 35/2/4 34/2/4 40/2/4 39/2/4
f 33/2/5 37/2/5 40/2/5 34/2/5
f 36/2/6 35/2/6 39/2/6 38/2/6
f 41/2/1 42/2/1 43/2/1 44/2/1
f 45/2/2 46/2/2 47/2/2 48/2/2
f 41/2/3 44/2/3 46/2/3 45/2/3
f 43/2/4 42/2/4 48/2/4 47/2/4
f 41/2/5 45/2/5 48/2/5 42/2/5
f 44/2/6 43/2/6 47/2/6 46/2/6
f 49/2/1 50/2/1 51/2/1 52/2/1
f 53/2/2 54/2/2 55/2/2 56/2/2
f 49/2/3 52/2/3 54/2/3 53/2/3
f 51/2/4 50/2/4 56/2/4 55/2/4
f 49/2/5 53/2/5 56/2/5 50/2/5
f 52/2/6 51/2/6 55/2/6 54/2/6
f 57/2/1 58/2/1 59/2/1 60/2/1
f 61/2/2 62/2/2 63/2/2 64/2/2
f 57/2/3 60/2/3 62/2/3 61/2/3
f 59/2/4 58/2/4 64/2/4 63/2/4
f 57/2/5 61/2/5 64/2/5 58/2/5
f 60/2/6 59/2/6 63/2/6 62/2/6
f 65/2/1 66/2/1 67/2/1 68/2/1
f 69/2/2 70/2/2 71/2/2 72/2/2
f 65/2/3 68/2/3 70/2/3 69/2/3
f 67/2/4 66/2/4 72/2/4 71/2/4
f 65/2/5 69/2/5 72/2/5 66/2/5
f 68/2/6 67/2/6 71/2/6 70/2/6
f 73/2/1 74/2/1 75/2/1 76/2/1
f 77/2/2 78/2/2 79/2/2 80/2/2
f 73/2/3 76/2/3 78/2/3 77/2/3
f 75/2/4 74/2/4 80/2/4 79/2/4
f 73/2/5 77/2/5 80/2/5 74/2/5
f 76/2/6 75/2/6 79/2/6 78/2/6
f 81/2/1 82/2/1 83/2/1 84/2/1
f 85/2/2 86/2/2 87/2/2 88/2/2
f 81/2/3 84/2/3 86/2/3 85/2/3
f 83/2/4 82/2/4 88/2/4 87/2/4
f 81/2/5 85/2/5 88/2/5 82/2/5
f 84/2/6 83/2/6 87/2/6 86/2/6
f 89/2/1 90/2/1 91/2/1 92/2/1
f 93/2/2 94/2/2 95/2/2 96/2/2
f 89/2/3 92/2/3 94/2/3 93/2/3
f 91/2/4 90/2/4 96/2/4 95/2/4
f 89/2/5 93/2/5 96/2/5 90/2/5
f 92/2/6 91/2/6 95/2/6 94/2/6
f 97/2/1 98/2/1 99/2/1 100/2/1 101/2/1 102/2/1 103/2/1 104/2/1 105/2/1 106/2/1 107/2/1 108/2/1
f 109/2/2 110/2/2 111/2/2 112/2/2 113/2/2 114/2/2 115/2/2 116/2/2 117/2/2 118/2/2 119/2/2 120/2/2
f 108/2/7 107/2/7 110/2/7 109/2/7
f 107/2/8 106/2/8 111/2/8 110/2/8
f 106/2/9 105/2/9 112/2/9 111/2/9
f 105/2/10 104/2/10 113/2/10 112/2/10
f 104/2/11 103/2/11 114/2/11 113/2/11
f 103/2/12 102/2/12 115/2/12 114/2/12
f 102/2/13 101/2/13 116/2/13 115/2/13
f 101/2/14 100/2/14 117/2/14 116/2/14
f 100/2/15 99/2/15 118/2/15 117/2/15
f 99/2/16 98/2/16 119/2/16 118/2/16
f 98/2/17 97/2/17 120/2/17 119/2/17
f 97/2/18 108/2/18 109/2/18 120/2/18
f 121/2/1 122/2/1 123/2/1 124/2/1 125/2/1 126/2/1 127/2/1 128/2/1 129/2/1 130/2/1 131/2/1 132/2/1
f 133/2/2 134/2/2 135/2/2 136/2/2 137/2/2 138/2/2 139/2/2 140/2/2 141/2/2 142/2/2 143/2/2 144/2/2
f 132/2/7 131/2/7 134/2/7 133/2/7
f 131/2/8 130/2/8 135/2/8 134/2/8
f 130/2/9 129/2/9 136/2/9 135/2/9
f 129/2/10 128/2/10 137/2/10 136/2/10
f 128/2/11 127/2/11 138/2/11 137/2/11
f 127/2/12 126/2/12 139/2/12 138/2/12
f 126/2/13 125/2/13 140/2/13 139/2/13
f 125/2/14 124/2/14 141/2/14 140/2/14
f 124/2/15 123/2/15 142/2/15 141/2/15
f 123/2/16 122/2/16 143/2/16 142/2/16
f 122/2/17 121/2/17 144/2/17 143/2/17
f 121/2/18 132/2/18 133/2/18 144/2/18
f 145/2/1 146/2/1 147/2/1 148/2/1
f 149/2/2 150/2/2 151/2/2 152/2/2
f 145/2/3 148/2/3 150/2/3 149/2/3
f 147/2/4 146/2/4 152/2/4 151/2/4
f 145/2/5 149/2/5 152/2/5 146/2/5
f 148/2/6 147/2/6 151/2/6 150/2/6
f 153/2/1 154/2/1 155/2/1 156/2/1
f 157/2/2 158/2/2 159/2/2 160/2/2
f 153/2/3 156/2/3 158/2/3 157/2/3
f 155/2/4 154/2/4 160/2/4 159/2/4
f 153/2/5 157/2/5 160/2/5 154/2/5
f 156/2/6 155/2/6 159/2/6 158/2/6
f 161/2/1 162/2/1 163/2/1 164/2/1
f 165/2/2 166/2/2 167/2/2 168/2/2
f 161/2/3 164/2/3 166/2/3 165/2/3
f 163/2/4 162/2/4 168/2/4 167/2/4
f 161/2/5 165/2/5 168/2/5 162/2/5
f 164/2/6 163/2/6 167/2/6 166/2/6
f 169/2/1 170/2/1 171/2/1 172/2/1
f 173/2/2 174/2/2 175/2/2 176/2/2
f 169/2/3 172/2/3 174/2/3 173/2/3
f 171/2/4 170/2/4 176/2/4 175/2/4
f 169/2/5 173/2/5 176/2/5 170/2/5
f 172/2/6 171/2/6 175/2/6 174/2/6
f 185/4/1 186/4/1 187/4/1 188/4/1
f 189/4/2 190/4/2 191/4/2 192/4/2
f 185/4/3 188/4/3 190/4/3 189/4/3
f 187/4/4 186/4/4 192/4/4 191/4/4
f 185/4/5 189/4/5 192/4/5 186/4/5
f 188/4/6 187/4/6 191/4/6 190/4/6
f 193/5/1 194/5/1 195/5/1 196/5/1
f 197/5/2 198/5/2 199/5/2 200/5/2
f 193/5/3 196/5/3 198/5/3 197/5/3
f 195/5/4 194/5/4 200/5/4 199/5/4
f 193/5/5 197/5/5 200/5/5 194/5/5
f 196/5/6 195/5/6 199/5/6 198/5/6
f 201/5/1 202/5/1 203/5/1 204/5/1
f 205/5/2 206/5/2 207/5/2 208/5/2
f 201/5/3 204/5/3 206/5/3 205/5/3
f 203/5/4 202/5/4 208/5/4 207/5/4
f 201/5/5 205/5/5 208/5/5 202/5/5
f 204/5/6 203/5/6 207/5/6 206/5/6
f 209/5/1 210/5/1 211/5/1 212/5/1
f 213/5/2 214/5/2 215/5/2 216/5/2
f 209/5/3 212/5/3 214/5/3 213/5/3
f 211/5/4 210/5/4 216/5/4 215/5/4
f 209/5/5 213/5/5 216/5/5 210/5/5
f 212/5/6 211/5/6 215/5/6 214/5/6
usemtl FN_Glow
f 217/6/1 218/6/1 219/6/1 220/6/1
f 221/6/2 222/6/2 223/6/2 224/6/2
f 220/6/19 219/6/19 222/6/19 221/6/19
f 219/6/20 218/6/20 223/6/20 222/6/20
f 218/6/21 217/6/21 224/6/21 223/6/21
f 217/6/22 220/6/22 221/6/22 224/6/22
f 225/6/1 226/6/1 227/6/1 228/6/1
f 229/6/2 230/6/2 231/6/2 232/6/2
f 228/6/23 227/6/23 230/6/23 229/6/23
f 227/6/24 226/6/24 231/6/24 230/6/24
f 226/6/25 225/6/25 232/6/25 231/6/25
f 225/6/26 228/6/26 229/6/26 232/6/26
usemtl FN_Glass
f 177/3/1 178/3/1 179/3/1 180/3/1
f 181/3/2 182/3/2 183/3/2 184/3/2
f 177/3/3 180/3/3 182/3/3 181/3/3
f 179/3/4 178/3/4 184/3/4 183/3/4
f 177/3/5 181/3/5 184/3/5 178/3/5
f 180/3/6 179/3/6 183/3/6 182/3/6
