# Blender 5.2.0 LTS
# www.blender.org
mtllib FN_Shower_Enclosure.mtl
o FN_Shower_Enclosure
v -0.410000 0.000000 0.450000
v -0.438284 0.000000 0.438284
v -0.450000 0.000000 0.410000
v -0.450000 0.000000 -0.410000
v -0.438284 0.000000 -0.438284
v -0.410000 0.000000 -0.450000
v 0.410000 0.000000 -0.450000
v 0.438284 0.000000 -0.438284
v 0.450000 0.000000 -0.410000
v 0.450000 0.000000 0.410000
v 0.438284 0.000000 0.438284
v 0.410000 0.000000 0.450000
v 0.438284 0.090000 0.438284
v 0.410000 0.090000 0.450000
v 0.450000 0.090000 0.410000
v 0.450000 0.090000 -0.410000
v 0.438284 0.090000 -0.438284
v 0.410000 0.090000 -0.450000
v -0.410000 0.090000 -0.450000
v -0.438284 0.090000 -0.438284
v -0.450000 0.090000 -0.410000
v -0.450000 0.090000 0.410000
v -0.438284 0.090000 0.438284
v -0.410000 0.090000 0.450000
v 0.384426 0.090000 0.384426
v 0.342000 0.090000 0.402000
v 0.402000 0.090000 0.342000
v 0.402000 0.090000 -0.342000
v 0.384426 0.090000 -0.384426
v 0.342000 0.090000 -0.402000
v -0.342000 0.090000 -0.402000
v -0.384426 0.090000 -0.384426
v -0.402000 0.090000 -0.342000
v -0.402000 0.090000 0.342000
v -0.384426 0.090000 0.384426
v -0.342000 0.090000 0.402000
v 0.360355 0.030000 0.360355
v 0.325000 0.030000 0.375000
v 0.375000 0.030000 0.325000
v 0.375000 0.030000 -0.325000
v 0.360355 0.030000 -0.360355
v 0.325000 0.030000 -0.375000
v -0.325000 0.030000 -0.375000
v -0.360355 0.030000 -0.360355
v -0.375000 0.030000 -0.325000
v -0.375000 0.030000 0.325000
v -0.360355 0.030000 0.360355
v -0.325000 0.030000 0.375000
v 0.042000 0.035000 0.000000
v 0.033979 0.035000 -0.024687
v 0.012979 0.035000 -0.039944
v -0.012979 0.035000 -0.039944
v -0.033979 0.035000 -0.024687
v -0.042000 0.035000 -0.000000
v -0.033979 0.035000 0.024687
v -0.012979 0.035000 0.039944
v 0.012979 0.035000 0.039944
v 0.033979 0.035000 0.024687
v 0.042000 0.030000 0.000000
v 0.033979 0.030000 -0.024687
v 0.012979 0.030000 -0.039944
v -0.012979 0.030000 -0.039944
v -0.033979 0.030000 -0.024687
v -0.042000 0.030000 -0.000000
v -0.033979 0.030000 0.024687
v -0.012979 0.030000 0.039944
v 0.012979 0.030000 0.039944
v 0.033979 0.030000 0.024687
v -0.456000 0.080000 0.456000
v -0.456000 0.080000 0.416000
v -0.416000 0.080000 0.416000
v -0.416000 0.080000 0.456000
v -0.456000 2.000000 0.456000
v -0.416000 2.000000 0.456000
v -0.416000 2.000000 0.416000
v -0.456000 2.000000 0.416000
v -0.456000 0.080000 -0.416000
v -0.456000 0.080000 -0.456000
v -0.416000 0.080000 -0.456000
v -0.416000 0.080000 -0.416000
v -0.456000 2.000000 -0.416000
v -0.416000 2.000000 -0.416000
v -0.416000 2.000000 -0.456000
v -0.456000 2.000000 -0.456000
v 0.416000 0.080000 0.456000
v 0.416000 0.080000 0.416000
v 0.456000 0.080000 0.416000
v 0.456000 0.080000 0.456000
v 0.416000 2.000000 0.456000
v 0.456000 2.000000 0.456000
v 0.456000 2.000000 0.416000
v 0.416000 2.000000 0.416000
v -0.436000 0.086000 0.443000
v -0.436000 0.086000 0.429000
v 0.436000 0.086000 0.429000
v 0.436000 0.086000 0.443000
v -0.436000 1.900000 0.443000
v 0.436000 1.900000 0.443000
v 0.436000 1.900000 0.429000
v -0.436000 1.900000 0.429000
v -0.443000 0.086000 0.436000
v -0.443000 0.086000 -0.436000
v -0.429000 0.086000 -0.436000
v -0.429000 0.086000 0.436000
v -0.443000 1.900000 0.436000
v -0.429000 1.900000 0.436000
v -0.429000 1.900000 -0.436000
v -0.443000 1.900000 -0.436000
v -0.436000 1.890000 0.454000
v -0.436000 1.890000 0.418000
v 0.436000 1.890000 0.418000
v 0.436000 1.890000 0.454000
v -0.436000 2.000000 0.454000
v 0.436000 2.000000 0.454000
v 0.436000 2.000000 0.418000
v -0.436000 2.000000 0.418000
v -0.454000 1.890000 0.436000
v -0.454000 1.890000 -0.436000
v -0.418000 1.890000 -0.436000
v -0.418000 1.890000 0.436000
v -0.454000 2.000000 0.436000
v -0.418000 2.000000 0.436000
v -0.418000 2.000000 -0.436000
v -0.454000 2.000000 -0.436000
v 0.298000 0.086000 -0.370000
v 0.298000 0.086000 -0.430000
v 0.378000 0.086000 -0.430000
v 0.378000 0.086000 -0.370000
v 0.298000 1.790000 -0.370000
v 0.378000 1.790000 -0.370000
v 0.378000 1.790000 -0.430000
v 0.298000 1.790000 -0.430000
v 0.290000 1.100000 -0.362000
v 0.290000 1.100000 -0.438000
v 0.386000 1.100000 -0.438000
v 0.386000 1.100000 -0.362000
v 0.290000 1.170000 -0.362000
v 0.386000 1.170000 -0.362000
v 0.386000 1.170000 -0.438000
v 0.290000 1.170000 -0.438000
v 0.331000 1.758124 -0.400000
v 0.345000 1.758124 -0.400000
v 0.352000 1.746000 -0.400000
v 0.345000 1.733876 -0.400000
v 0.331000 1.733876 -0.400000
v 0.324000 1.746000 -0.400000
v 0.324000 1.746000 -0.246000
v 0.331000 1.733876 -0.246000
v 0.345000 1.733876 -0.246000
v 0.352000 1.746000 -0.246000
v 0.345000 1.758124 -0.246000
v 0.331000 1.758124 -0.246000
v 0.416000 1.696000 -0.240000
v 0.401103 1.696000 -0.285847
v 0.362103 1.696000 -0.314182
v 0.313897 1.696000 -0.314182
v 0.274897 1.696000 -0.285847
v 0.260000 1.696000 -0.240000
v 0.274897 1.696000 -0.194153
v 0.313897 1.696000 -0.165818
v 0.362103 1.696000 -0.165818
v 0.401103 1.696000 -0.194153
v 0.366000 1.752000 -0.240000
v 0.360652 1.752000 -0.256458
v 0.346652 1.752000 -0.266630
v 0.329348 1.752000 -0.266630
v 0.315348 1.752000 -0.256458
v 0.310000 1.752000 -0.240000
v 0.315348 1.752000 -0.223542
v 0.329348 1.752000 -0.213370
v 0.346652 1.752000 -0.213370
v 0.360652 1.752000 -0.223542
vn -0.0000 -1.0000 -0.0000
vn 0.3827 -0.0000 0.9239
vn 0.9239 -0.0000 0.3827
vn 1.0000 -0.0000 -0.0000
vn 0.9239 -0.0000 -0.3827
vn 0.3827 -0.0000 -0.9239
vn -0.0000 -0.0000 -1.0000
vn -0.3827 -0.0000 -0.9239
vn -0.9239 -0.0000 -0.3827
vn -1.0000 -0.0000 -0.0000
vn -0.9239 -0.0000 0.3827
vn -0.3827 -0.0000 0.9239
vn -0.0000 -0.0000 1.0000
vn -0.0000 1.0000 -0.0000
vn -0.3389 0.4643 -0.8183
vn -0.8183 0.4643 -0.3389
vn -0.9119 0.4104 -0.0000
vn -0.8183 0.4643 0.3389
vn -0.3389 0.4643 0.8183
vn -0.0000 0.4104 0.9119
vn 0.3389 0.4643 0.8183
vn 0.8183 0.4643 0.3389
vn 0.9119 0.4104 -0.0000
vn 0.8183 0.4643 -0.3389
vn 0.3389 0.4643 -0.8183
vn -0.0000 0.4104 -0.9119
vn 0.9511 -0.0000 -0.3090
vn 0.5878 -0.0000 -0.8090
vn -0.5878 -0.0000 -0.8090
vn -0.9511 -0.0000 -0.3090
vn -0.9511 -0.0000 0.3090
vn -0.5878 -0.0000 0.8090
vn 0.5878 -0.0000 0.8090
vn 0.9511 -0.0000 0.3090
vn -0.8660 -0.5000 -0.0000
vn 0.8660 -0.5000 -0.0000
vn 0.8660 0.5000 -0.0000
vn -0.8660 0.5000 -0.0000
vn -0.7249 -0.6473 0.2355
vn -0.4480 -0.6473 0.6167
vn -0.0000 -0.6473 0.7623
vn 0.4480 -0.6473 0.6167
vn 0.7249 -0.6473 0.2355
vn 0.7249 -0.6473 -0.2355
vn 0.4480 -0.6473 -0.6167
vn -0.0000 -0.6473 -0.7623
vn -0.4480 -0.6473 -0.6167
vn -0.7249 -0.6473 -0.2355
vt 0.437500 0.812500
vt 0.562500 0.687500
vt 0.187500 0.312500
vt 0.937500 0.312500
vt 0.562500 0.187500
s 0
usemtl FN_Atlas
f 1/1/1 2/1/1 3/1/1 4/1/1 5/1/1 6/1/1 7/1/1 8/1/1 9/1/1 10/1/1 11/1/1 12/1/1
f 12/1/2 11/1/2 13/1/2 14/1/2
f 11/1/3 10/1/3 15/1/3 13/1/3
f 10/1/4 9/1/4 16/1/4 15/1/4
f 9/1/5 8/1/5 17/1/5 16/1/5
f 8/1/6 7/1/6 18/1/6 17/1/6
f 7/1/7 6/1/7 19/1/7 18/1/7
f 6/1/8 5/1/8 20/1/8 19/1/8
f 5/1/9 4/1/9 21/1/9 20/1/9
f 4/1/10 3/1/10 22/1/10 21/1/10
f 3/1/11 2/1/11 23/1/11 22/1/11
f 2/1/12 1/1/12 24/1/12 23/1/12
f 1/1/13 12/1/13 14/1/13 24/1/13
f 14/1/14 13/1/14 25/1/14 26/1/14
f 13/1/14 15/1/14 27/1/14 25/1/14
f 15/1/14 16/1/14 28/1/14 27/1/14
f 16/1/14 17/1/14 29/1/14 28/1/14
f 17/1/14 18/1/14 30/1/14 29/1/14
f 18/1/14 19/1/14 31/1/14 30/1/14
f 19/1/14 20/1/14 32/1/14 31/1/14
f 20/1/14 21/1/14 33/1/14 32/1/14
f 21/1/14 22/1/14 34/1/14 33/1/14
f 22/1/14 23/1/14 35/1/14 34/1/14
f 23/1/14 24/1/14 36/1/14 35/1/14
f 24/1/14 14/1/14 26/1/14 36/1/14
f 26/2/15 25/2/15 37/2/15 38/2/15
f 25/2/16 27/2/16 39/2/16 37/2/16
f 27/2/17 28/2/17 40/2/17 39/2/17
f 28/2/18 29/2/18 41/2/18 40/2/18
f 29/2/19 30/2/19 42/2/19 41/2/19
f 30/2/20 31/2/20 43/2/20 42/2/20
f 31/2/21 32/2/21 44/2/21 43/2/21
f 32/2/22 33/2/22 45/2/22 44/2/22
f 33/2/23 34/2/23 46/2/23 45/2/23
f 34/2/24 35/2/24 47/2/24 46/2/24
f 35/2/25 36/2/25 48/2/25 47/2/25
f 36/2/26 26/2/26 38/2/26 48/2/26
f 38/2/14 37/2/14 39/2/14 40/2/14 41/2/14 42/2/14 43/2/14 44/2/14 45/2/14 46/2/14 47/2/14 48/2/14
f 49/3/14 50/3/14 51/3/14 52/3/14 53/3/14 54/3/14 55/3/14 56/3/14 57/3/14 58/3/14
f 59/3/27 60/3/27 50/3/27 49/3/27
f 60/3/28 61/3/28 51/3/28 50/3/28
f 61/3/7 62/3/7 52/3/7 51/3/7
f 62/3/29 63/3/29 53/3/29 52/3/29
f 63/3/30 64/3/30 54/3/30 53/3/30
f 64/3/31 65/3/31 55/3/31 54/3/31
f 65/3/32 66/3/32 56/3/32 55/3/32
f 66/3/13 67/3/13 57/3/13 56/3/13
f 67/3/33 68/3/33 58/3/33 57/3/33
f 68/3/34 59/3/34 49/3/34 58/3/34
f 69/4/1 70/4/1 71/4/1 72/4/1
f 73/4/14 74/4/14 75/4/14 76/4/14
f 69/4/13 72/4/13 74/4/13 73/4/13
f 71/4/7 70/4/7 76/4/7 75/4/7
f 69/4/10 73/4/10 76/4/10 70/4/10
f 72/4/4 71/4/4 75/4/4 74/4/4
f 77/4/1 78/4/1 79/4/1 80/4/1
f 81/4/14 82/4/14 83/4/14 84/4/14
f 77/4/13 80/4/13 82/4/13 81/4/13
f 79/4/7 78/4/7 84/4/7 83/4/7
f 77/4/10 81/4/10 84/4/10 78/4/10
f 80/4/4 79/4/4 83/4/4 82/4/4
f 85/4/1 86/4/1 87/4/1 88/4/1
f 89/4/14 90/4/14 91/4/14 92/4/14
f 85/4/13 88/4/13 90/4/13 89/4/13
f 87/4/7 86/4/7 92/4/7 91/4/7
f 85/4/10 89/4/10 92/4/10 86/4/10
f 88/4/4 87/4/4 91/4/4 90/4/4
f 109/4/1 110/4/1 111/4/1 112/4/1
f 113/4/14 114/4/14 115/4/14 116/4/14
f 109/4/13 112/4/13 114/4/13 113/4/13
f 111/4/7 110/4/7 116/4/7 115/4/7
f 109/4/10 113/4/10 116/4/10 110/4/10
f 112/4/4 111/4/4 115/4/4 114/4/4
f 117/4/1 118/4/1 119/4/1 120/4/1
f 121/4/14 122/4/14 123/4/14 124/4/14
f 117/4/13 120/4/13 122/4/13 121/4/13
f 119/4/7 118/4/7 124/4/7 123/4/7
f 117/4/10 121/4/10 124/4/10 118/4/10
f 120/4/4 119/4/4 123/4/4 122/4/4
f 125/4/1 126/4/1 127/4/1 128/4/1
f 129/4/14 130/4/14 131/4/14 132/4/14
f 125/4/13 128/4/13 130/4/13 129/4/13
f 127/4/7 126/4/7 132/4/7 131/4/7
f 125/4/10 129/4/10 132/4/10 126/4/10
f 128/4/4 127/4/4 131/4/4 130/4/4
f 133/4/1 134/4/1 135/4/1 136/4/1
f 137/4/14 138/4/14 139/4/14 140/4/14
f 133/4/13 136/4/13 138/4/13 137/4/13
f 135/4/7 134/4/7 140/4/7 139/4/7
f 133/4/10 137/4/10 140/4/10 134/4/10
f 136/4/4 135/4/4 139/4/4 138/4/4
f 141/4/7 142/4/7 143/4/7 144/4/7 145/4/7 146/4/7
f 147/4/13 148/4/13 149/4/13 150/4/13 151/4/13 152/4/13
f 146/4/35 145/4/35 148/4/35 147/4/35
f 145/4/1 144/4/1 149/4/1 148/4/1
f 144/4/36 143/4/36 150/4/36 149/4/36
f 143/4/37 142/4/37 151/4/37 150/4/37
f 142/4/14 141/4/14 152/4/14 151/4/14
f 141/4/38 146/4/38 147/4/38 152/4/38
f 153/4/14 154/4/14 155/4/14 156/4/14 157/4/14 158/4/14 159/4/14 160/4/14 161/4/14 162/4/14
f 163/4/39 164/4/39 154/4/39 153/4/39
f 164/4/40 165/4/40 155/4/40 154/4/40
f 165/4/41 166/4/41 156/4/41 155/4/41
f 166/4/42 167/4/42 157/4/42 156/4/42
f 167/4/43 168/4/43 158/4/43 157/4/43
f 168/4/44 169/4/44 159/4/44 158/4/44
f 169/4/45 170/4/45 160/4/45 159/4/45
f 170/4/46 171/4/46 161/4/46 160/4/46
f 171/4/47 172/4/47 162/4/47 161/4/47
f 172/4/48 163/4/48 153/4/48 162/4/48
usemtl FN_Glass
f 93/5/1 94/5/1 95/5/1 96/5/1
f 97/5/14 98/5/14 99/5/14 100/5/14
f 93/5/13 96/5/13 98/5/13 97/5/13
f 95/5/7 94/5/7 100/5/7 99/5/7
f 93/5/10 97/5/10 100/5/10 94/5/10
f 96/5/4 95/5/4 99/5/4 98/5/4
f 101/5/1 102/5/1 103/5/1 104/5/1
f 105/5/14 106/5/14 107/5/14 108/5/14
f 101/5/13 104/5/13 106/5/13 105/5/13
f 103/5/7 102/5/7 108/5/7 107/5/7
f 101/5/10 105/5/10 108/5/10 102/5/10
f 104/5/4 103/5/4 107/5/4 106/5/4
