# Blender 5.2.0 LTS
# www.blender.org
mtllib FN_Stand_Plant.mtl
o FN_Stand_Plant
v 0.141000 0.000000 0.012000
v 0.187000 0.000000 0.012000
v 0.010000 0.070000 0.012000
v -0.025000 0.070000 0.012000
v -0.025000 0.070000 -0.012000
v 0.010000 0.070000 -0.012000
v 0.187000 0.000000 -0.012000
v 0.141000 0.000000 -0.012000
v -0.127608 0.000000 -0.167081
v -0.150608 0.000000 -0.206918
v -0.062108 0.070000 -0.053631
v -0.044608 0.070000 -0.023321
v -0.065392 0.070000 -0.011321
v -0.082892 0.070000 -0.041631
v -0.171392 0.000000 -0.194918
v -0.148392 0.000000 -0.155081
v -0.148392 0.000000 0.155081
v -0.171392 0.000000 0.194918
v -0.082892 0.070000 0.041631
v -0.065392 0.070000 0.011321
v -0.044608 0.070000 0.023321
v -0.062108 0.070000 0.053631
v -0.150608 0.000000 0.206918
v -0.127608 0.000000 0.167081
v -0.022500 0.030000 0.038971
v -0.067500 0.030000 0.038971
v -0.090000 0.030000 -0.000000
v -0.067500 0.030000 -0.038971
v -0.022500 0.030000 -0.038971
v 0.000000 0.030000 0.000000
v 0.000000 0.090000 0.000000
v -0.022500 0.090000 -0.038971
v -0.067500 0.090000 -0.038971
v -0.090000 0.090000 -0.000000
v -0.067500 0.090000 0.038971
v -0.022500 0.090000 0.038971
v -0.035000 0.060000 0.017321
v -0.055000 0.060000 0.017321
v -0.065000 0.060000 -0.000000
v -0.055000 0.060000 -0.017321
v -0.035000 0.060000 -0.017321
v -0.025000 0.060000 0.000000
v -0.025000 0.760000 0.000000
v -0.035000 0.760000 -0.017321
v -0.055000 0.760000 -0.017321
v -0.065000 0.760000 -0.000000
v -0.055000 0.760000 0.017321
v -0.035000 0.760000 0.017321
v -0.035000 0.240000 0.010000
v 0.045000 0.240000 0.010000
v 0.045000 0.260000 0.010000
v -0.035000 0.260000 0.010000
v -0.035000 0.260000 -0.010000
v 0.045000 0.260000 -0.010000
v 0.045000 0.240000 -0.010000
v -0.035000 0.240000 -0.010000
v 0.240000 0.240000 0.000000
v 0.209246 0.240000 -0.074246
v 0.209246 0.264000 -0.074246
v 0.240000 0.264000 0.000000
v 0.135000 0.240000 -0.105000
v 0.135000 0.264000 -0.105000
v 0.060754 0.240000 -0.074246
v 0.060754 0.264000 -0.074246
v 0.030000 0.240000 -0.000000
v 0.030000 0.264000 -0.000000
v 0.060754 0.240000 0.074246
v 0.060754 0.264000 0.074246
v 0.135000 0.240000 0.105000
v 0.135000 0.264000 0.105000
v 0.209246 0.240000 0.074246
v 0.209246 0.264000 0.074246
v 0.213000 0.264000 0.000000
v 0.190154 0.264000 -0.055154
v 0.190154 0.240000 -0.055154
v 0.213000 0.240000 0.000000
v 0.135000 0.264000 -0.078000
v 0.135000 0.240000 -0.078000
v 0.079846 0.264000 -0.055154
v 0.079846 0.240000 -0.055154
v 0.057000 0.264000 -0.000000
v 0.057000 0.240000 -0.000000
v 0.079846 0.264000 0.055154
v 0.079846 0.240000 0.055154
v 0.135000 0.264000 0.078000
v 0.135000 0.240000 0.078000
v 0.190154 0.264000 0.055154
v 0.190154 0.240000 0.055154
v 0.159000 0.124000 0.041569
v 0.111000 0.124000 0.041569
v 0.087000 0.124000 -0.000000
v 0.111000 0.124000 -0.041569
v 0.159000 0.124000 -0.041569
v 0.183000 0.124000 0.000000
v 0.170000 0.260000 -0.060622
v 0.205000 0.260000 0.000000
v 0.100000 0.260000 -0.060622
v 0.065000 0.260000 -0.000000
v 0.100000 0.260000 0.060622
v 0.170000 0.260000 0.060622
v 0.181000 0.260000 0.079674
v 0.089000 0.260000 0.079674
v 0.043000 0.260000 -0.000000
v 0.089000 0.260000 -0.079674
v 0.181000 0.260000 -0.079674
v 0.227000 0.260000 0.000000
v 0.227000 0.280000 0.000000
v 0.181000 0.280000 -0.079674
v 0.089000 0.280000 -0.079674
v 0.043000 0.280000 -0.000000
v 0.089000 0.280000 0.079674
v 0.181000 0.280000 0.079674
v 0.221000 0.288000 0.000000
v 0.178000 0.288000 -0.074478
v 0.092000 0.288000 -0.074478
v 0.049000 0.288000 -0.000000
v 0.092000 0.288000 0.074478
v 0.178000 0.288000 0.074478
v 0.221000 0.280000 0.000000
v 0.178000 0.280000 -0.074478
v 0.092000 0.280000 -0.074478
v 0.049000 0.280000 -0.000000
v 0.092000 0.280000 0.074478
v 0.178000 0.280000 0.074478
v 0.219000 0.330000 0.000000
v 0.177000 0.330000 -0.072746
v 0.135000 0.414000 0.000000
v 0.135000 0.279600 0.000000
v 0.093000 0.330000 -0.072746
v 0.051000 0.330000 -0.000000
v 0.093000 0.330000 0.072746
v 0.177000 0.330000 0.072746
v -0.041340 0.460000 -0.013660
v -0.081340 0.460000 -0.082942
v -0.081340 0.480000 -0.082942
v -0.041340 0.480000 -0.013660
v -0.058660 0.480000 -0.003660
v -0.098660 0.480000 -0.072942
v -0.098660 0.460000 -0.072942
v -0.058660 0.460000 -0.003660
v -0.030000 0.460000 -0.155885
v -0.060754 0.460000 -0.230131
v -0.060754 0.484000 -0.230131
v -0.030000 0.484000 -0.155885
v -0.135000 0.460000 -0.260885
v -0.135000 0.484000 -0.260885
v -0.209246 0.460000 -0.230131
v -0.209246 0.484000 -0.230131
v -0.240000 0.460000 -0.155885
v -0.240000 0.484000 -0.155885
v -0.209246 0.460000 -0.081638
v -0.209246 0.484000 -0.081638
v -0.135000 0.460000 -0.050885
v -0.135000 0.484000 -0.050885
v -0.060754 0.460000 -0.081638
v -0.060754 0.484000 -0.081638
v -0.057000 0.484000 -0.155885
v -0.079846 0.484000 -0.211039
v -0.079846 0.460000 -0.211039
v -0.057000 0.460000 -0.155885
v -0.135000 0.484000 -0.233885
v -0.135000 0.460000 -0.233885
v -0.190154 0.484000 -0.211039
v -0.190154 0.460000 -0.211039
v -0.213000 0.484000 -0.155885
v -0.213000 0.460000 -0.155885
v -0.190154 0.484000 -0.100730
v -0.190154 0.460000 -0.100730
v -0.135000 0.484000 -0.077885
v -0.135000 0.460000 -0.077885
v -0.079846 0.484000 -0.100730
v -0.079846 0.460000 -0.100730
v -0.111000 0.344000 -0.114315
v -0.159000 0.344000 -0.114315
v -0.183000 0.344000 -0.155885
v -0.159000 0.344000 -0.197454
v -0.111000 0.344000 -0.197454
v -0.087000 0.344000 -0.155885
v -0.100000 0.480000 -0.216506
v -0.065000 0.480000 -0.155885
v -0.170000 0.480000 -0.216506
v -0.205000 0.480000 -0.155885
v -0.170000 0.480000 -0.095263
v -0.100000 0.480000 -0.095263
v -0.089000 0.480000 -0.076210
v -0.181000 0.480000 -0.076210
v -0.227000 0.480000 -0.155885
v -0.181000 0.480000 -0.235559
v -0.089000 0.480000 -0.235559
v -0.043000 0.480000 -0.155885
v -0.043000 0.500000 -0.155885
v -0.089000 0.500000 -0.235559
v -0.181000 0.500000 -0.235559
v -0.227000 0.500000 -0.155885
v -0.181000 0.500000 -0.076210
v -0.089000 0.500000 -0.076210
v -0.049000 0.508000 -0.155885
v -0.092000 0.508000 -0.230363
v -0.178000 0.508000 -0.230363
v -0.221000 0.508000 -0.155885
v -0.178000 0.508000 -0.081406
v -0.092000 0.508000 -0.081406
v -0.049000 0.500000 -0.155885
v -0.092000 0.500000 -0.230363
v -0.178000 0.500000 -0.230363
v -0.221000 0.500000 -0.155885
v -0.178000 0.500000 -0.081406
v -0.092000 0.500000 -0.081406
v -0.051000 0.550000 -0.155885
v -0.093000 0.550000 -0.228631
v -0.135000 0.634000 -0.155885
v -0.135000 0.499600 -0.155885
v -0.177000 0.550000 -0.228631
v -0.219000 0.550000 -0.155885
v -0.177000 0.550000 -0.083138
v -0.093000 0.550000 -0.083138
v -0.058660 0.680000 0.003660
v -0.098660 0.680000 0.072942
v -0.098660 0.700000 0.072942
v -0.058660 0.700000 0.003660
v -0.041340 0.700000 0.013660
v -0.081340 0.700000 0.082942
v -0.081340 0.680000 0.082942
v -0.041340 0.680000 0.013660
v -0.030000 0.680000 0.155885
v -0.060754 0.680000 0.081638
v -0.060754 0.704000 0.081638
v -0.030000 0.704000 0.155885
v -0.135000 0.680000 0.050885
v -0.135000 0.704000 0.050885
v -0.209246 0.680000 0.081638
v -0.209246 0.704000 0.081638
v -0.240000 0.680000 0.155885
v -0.240000 0.704000 0.155885
v -0.209246 0.680000 0.230131
v -0.209246 0.704000 0.230131
v -0.135000 0.680000 0.260885
v -0.135000 0.704000 0.260885
v -0.060754 0.680000 0.230131
v -0.060754 0.704000 0.230131
v -0.057000 0.704000 0.155885
v -0.079846 0.704000 0.100730
v -0.079846 0.680000 0.100730
v -0.057000 0.680000 0.155885
v -0.135000 0.704000 0.077885
v -0.135000 0.680000 0.077885
v -0.190154 0.704000 0.100730
v -0.190154 0.680000 0.100730
v -0.213000 0.704000 0.155885
v -0.213000 0.680000 0.155885
v -0.190154 0.704000 0.211039
v -0.190154 0.680000 0.211039
v -0.135000 0.704000 0.233885
v -0.135000 0.680000 0.233885
v -0.079846 0.704000 0.211039
v -0.079846 0.680000 0.211039
v -0.111000 0.564000 0.197454
v -0.159000 0.564000 0.197454
v -0.183000 0.564000 0.155885
v -0.159000 0.564000 0.114315
v -0.111000 0.564000 0.114315
v -0.087000 0.564000 0.155885
v -0.100000 0.700000 0.095263
v -0.065000 0.700000 0.155885
v -0.170000 0.700000 0.095263
v -0.205000 0.700000 0.155885
v -0.170000 0.700000 0.216506
v -0.100000 0.700000 0.216506
v -0.089000 0.700000 0.235559
v -0.181000 0.700000 0.235559
v -0.227000 0.700000 0.155885
v -0.181000 0.700000 0.076210
v -0.089000 0.700000 0.076210
v -0.043000 0.700000 0.155885
v -0.043000 0.720000 0.155885
v -0.089000 0.720000 0.076210
v -0.181000 0.720000 0.076210
v -0.227000 0.720000 0.155885
v -0.181000 0.720000 0.235559
v -0.089000 0.720000 0.235559
v -0.049000 0.728000 0.155885
v -0.092000 0.728000 0.081406
v -0.178000 0.728000 0.081406
v -0.221000 0.728000 0.155885
v -0.178000 0.728000 0.230363
v -0.092000 0.728000 0.230363
v -0.049000 0.720000 0.155885
v -0.092000 0.720000 0.081406
v -0.178000 0.720000 0.081406
v -0.221000 0.720000 0.155885
v -0.178000 0.720000 0.230363
v -0.092000 0.720000 0.230363
v -0.051000 0.770000 0.155885
v -0.093000 0.770000 0.083138
v -0.135000 0.854000 0.155885
v -0.135000 0.719600 0.155885
v -0.177000 0.770000 0.083138
v -0.219000 0.770000 0.155885
v -0.177000 0.770000 0.228631
v -0.093000 0.770000 0.228631
vn -0.0000 -0.0000 1.0000
vn -0.0000 -0.0000 -1.0000
vn -0.0000 1.0000 -0.0000
vn 0.3678 0.9299 -0.0000
vn -0.0000 -1.0000 -0.0000
vn -0.3886 -0.9214 -0.0000
vn 0.8660 -0.0000 -0.5000
vn -0.8660 -0.0000 0.5000
vn -0.1839 0.9299 -0.3185
vn 0.1943 -0.9214 0.3365
vn -0.8660 -0.0000 -0.5000
vn 0.8660 -0.0000 0.5000
vn -0.1839 0.9299 0.3185
vn 0.1943 -0.9214 -0.3365
vn 1.0000 -0.0000 -0.0000
vn -1.0000 -0.0000 -0.0000
vn 0.9239 -0.0000 -0.3827
vn 0.3827 -0.0000 -0.9239
vn -0.3827 -0.0000 -0.9239
vn -0.9239 -0.0000 -0.3827
vn -0.9239 -0.0000 0.3827
vn -0.3827 -0.0000 0.9239
vn 0.3827 -0.0000 0.9239
vn 0.9239 -0.0000 0.3827
vn 0.8577 -0.1387 -0.4952
vn -0.0000 -0.1387 -0.9903
vn -0.8577 -0.1387 -0.4952
vn -0.8577 -0.1387 0.4952
vn -0.0000 -0.1387 0.9903
vn 0.8577 -0.1387 0.4952
vn 0.6547 0.6547 -0.3780
vn 0.4932 -0.8220 -0.2847
vn -0.0000 0.6547 -0.7559
vn -0.0000 -0.8220 -0.5695
vn -0.6547 0.6547 -0.3780
vn -0.4932 -0.8220 -0.2847
vn -0.6547 0.6547 0.3780
vn -0.4932 -0.8220 0.2847
vn -0.0000 0.6547 0.7559
vn -0.0000 -0.8220 0.5695
vn 0.6547 0.6547 0.3780
vn 0.4932 -0.8220 0.2847
vn -0.5000 -0.0000 -0.8660
vn 0.5000 -0.0000 0.8660
vn -0.5000 -0.0000 0.8660
vn 0.5000 -0.0000 -0.8660
vt 0.812500 0.312500
vt 0.312500 0.687500
vt 0.812500 0.937500
vt 0.437500 0.562500
s 0
usemtl FN_Atlas
f 1/1/1 2/1/1 3/1/1 4/1/1
f 5/1/2 6/1/2 7/1/2 8/1/2
f 4/1/3 3/1/3 6/1/3 5/1/3
f 3/1/4 2/1/4 7/1/4 6/1/4
f 2/1/5 1/1/5 8/1/5 7/1/5
f 1/1/6 4/1/6 5/1/6 8/1/6
f 9/1/7 10/1/7 11/1/7 12/1/7
f 13/1/8 14/1/8 15/1/8 16/1/8
f 12/1/3 11/1/3 14/1/3 13/1/3
f 11/1/9 10/1/9 15/1/9 14/1/9
f 10/1/5 9/1/5 16/1/5 15/1/5
f 9/1/10 12/1/10 13/1/10 16/1/10
f 17/1/11 18/1/11 19/1/11 20/1/11
f 21/1/12 22/1/12 23/1/12 24/1/12
f 20/1/3 19/1/3 22/1/3 21/1/3
f 19/1/13 18/1/13 23/1/13 22/1/13
f 18/1/5 17/1/5 24/1/5 23/1/5
f 17/1/14 20/1/14 21/1/14 24/1/14
f 25/1/5 26/1/5 27/1/5 28/1/5 29/1/5 30/1/5
f 31/1/3 32/1/3 33/1/3 34/1/3 35/1/3 36/1/3
f 30/1/7 29/1/7 32/1/7 31/1/7
f 29/1/2 28/1/2 33/1/2 32/1/2
f 28/1/11 27/1/11 34/1/11 33/1/11
f 27/1/8 26/1/8 35/1/8 34/1/8
f 26/1/1 25/1/1 36/1/1 35/1/1
f 25/1/12 30/1/12 31/1/12 36/1/12
f 37/1/5 38/1/5 39/1/5 40/1/5 41/1/5 42/1/5
f 43/1/3 44/1/3 45/1/3 46/1/3 47/1/3 48/1/3
f 42/1/7 41/1/7 44/1/7 43/1/7
f 41/1/2 40/1/2 45/1/2 44/1/2
f 40/1/11 39/1/11 46/1/11 45/1/11
f 39/1/8 38/1/8 47/1/8 46/1/8
f 38/1/1 37/1/1 48/1/1 47/1/1
f 37/1/12 42/1/12 43/1/12 48/1/12
f 49/1/1 50/1/1 51/1/1 52/1/1
f 53/1/2 54/1/2 55/1/2 56/1/2
f 56/1/5 55/1/5 50/1/5 49/1/5
f 55/1/15 54/1/15 51/1/15 50/1/15
f 54/1/3 53/1/3 52/1/3 51/1/3
f 53/1/16 56/1/16 49/1/16 52/1/16
f 57/1/17 58/1/17 59/1/17 60/1/17
f 58/1/18 61/1/18 62/1/18 59/1/18
f 61/1/19 63/1/19 64/1/19 62/1/19
f 63/1/20 65/1/20 66/1/20 64/1/20
f 65/1/21 67/1/21 68/1/21 66/1/21
f 67/1/22 69/1/22 70/1/22 68/1/22
f 69/1/23 71/1/23 72/1/23 70/1/23
f 71/1/24 57/1/24 60/1/24 72/1/24
f 73/1/21 74/1/21 75/1/21 76/1/21
f 74/1/22 77/1/22 78/1/22 75/1/22
f 77/1/23 79/1/23 80/1/23 78/1/23
f 79/1/24 81/1/24 82/1/24 80/1/24
f 81/1/17 83/1/17 84/1/17 82/1/17
f 83/1/18 85/1/18 86/1/18 84/1/18
f 85/1/19 87/1/19 88/1/19 86/1/19
f 87/1/20 73/1/20 76/1/20 88/1/20
f 60/1/3 59/1/3 74/1/3 73/1/3
f 76/1/5 75/1/5 58/1/5 57/1/5
f 59/1/3 62/1/3 77/1/3 74/1/3
f 75/1/5 78/1/5 61/1/5 58/1/5
f 62/1/3 64/1/3 79/1/3 77/1/3
f 78/1/5 80/1/5 63/1/5 61/1/5
f 64/1/3 66/1/3 81/1/3 79/1/3
f 80/1/5 82/1/5 65/1/5 63/1/5
f 66/1/3 68/1/3 83/1/3 81/1/3
f 82/1/5 84/1/5 67/1/5 65/1/5
f 68/1/3 70/1/3 85/1/3 83/1/3
f 84/1/5 86/1/5 69/1/5 67/1/5
f 70/1/3 72/1/3 87/1/3 85/1/3
f 86/1/5 88/1/5 71/1/5 69/1/5
f 72/1/3 60/1/3 73/1/3 87/1/3
f 88/1/5 76/1/5 57/1/5 71/1/5
f 89/2/5 90/2/5 91/2/5 92/2/5 93/2/5 94/2/5
f 94/2/25 93/2/25 95/2/25 96/2/25
f 93/2/26 92/2/26 97/2/26 95/2/26
f 92/2/27 91/2/27 98/2/27 97/2/27
f 91/2/28 90/2/28 99/2/28 98/2/28
f 90/2/29 89/2/29 100/2/29 99/2/29
f 89/2/30 94/2/30 96/2/30 100/2/30
f 101/2/5 102/2/5 103/2/5 104/2/5 105/2/5 106/2/5
f 107/2/3 108/2/3 109/2/3 110/2/3 111/2/3 112/2/3
f 106/2/7 105/2/7 108/2/7 107/2/7
f 105/2/2 104/2/2 109/2/2 108/2/2
f 104/2/11 103/2/11 110/2/11 109/2/11
f 103/2/8 102/2/8 111/2/8 110/2/8
f 102/2/1 101/2/1 112/2/1 111/2/1
f 101/2/12 106/2/12 107/2/12 112/2/12
f 113/3/3 114/3/3 115/3/3 116/3/3 117/3/3 118/3/3
f 119/3/7 120/3/7 114/3/7 113/3/7
f 120/3/2 121/3/2 115/3/2 114/3/2
f 121/3/11 122/3/11 116/3/11 115/3/11
f 122/3/8 123/3/8 117/3/8 116/3/8
f 123/3/1 124/3/1 118/3/1 117/3/1
f 124/3/12 119/3/12 113/3/12 118/3/12
f 125/4/31 126/4/31 127/4/31
f 126/4/32 125/4/32 128/4/32
f 126/4/33 129/4/33 127/4/33
f 129/4/34 126/4/34 128/4/34
f 129/4/35 130/4/35 127/4/35
f 130/4/36 129/4/36 128/4/36
f 130/4/37 131/4/37 127/4/37
f 131/4/38 130/4/38 128/4/38
f 131/4/39 132/4/39 127/4/39
f 132/4/40 131/4/40 128/4/40
f 132/4/41 125/4/41 127/4/41
f 125/4/42 132/4/42 128/4/42
f 133/1/7 134/1/7 135/1/7 136/1/7
f 137/1/8 138/1/8 139/1/8 140/1/8
f 140/1/5 139/1/5 134/1/5 133/1/5
f 139/1/43 138/1/43 135/1/43 134/1/43
f 138/1/3 137/1/3 136/1/3 135/1/3
f 137/1/44 140/1/44 133/1/44 136/1/44
f 141/1/17 142/1/17 143/1/17 144/1/17
f 142/1/18 145/1/18 146/1/18 143/1/18
f 145/1/19 147/1/19 148/1/19 146/1/19
f 147/1/20 149/1/20 150/1/20 148/1/20
f 149/1/21 151/1/21 152/1/21 150/1/21
f 151/1/22 153/1/22 154/1/22 152/1/22
f 153/1/23 155/1/23 156/1/23 154/1/23
f 155/1/24 141/1/24 144/1/24 156/1/24
f 157/1/21 158/1/21 159/1/21 160/1/21
f 158/1/22 161/1/22 162/1/22 159/1/22
f 161/1/23 163/1/23 164/1/23 162/1/23
f 163/1/24 165/1/24 166/1/24 164/1/24
f 165/1/17 167/1/17 168/1/17 166/1/17
f 167/1/18 169/1/18 170/1/18 168/1/18
f 169/1/19 171/1/19 172/1/19 170/1/19
f 171/1/20 157/1/20 160/1/20 172/1/20
f 144/1/3 143/1/3 158/1/3 157/1/3
f 160/1/5 159/1/5 142/1/5 141/1/5
f 143/1/3 146/1/3 161/1/3 158/1/3
f 159/1/5 162/1/5 145/1/5 142/1/5
f 146/1/3 148/1/3 163/1/3 161/1/3
f 162/1/5 164/1/5 147/1/5 145/1/5
f 148/1/3 150/1/3 165/1/3 163/1/3
f 164/1/5 166/1/5 149/1/5 147/1/5
f 150/1/3 152/1/3 167/1/3 165/1/3
f 166/1/5 168/1/5 151/1/5 149/1/5
f 152/1/3 154/1/3 169/1/3 167/1/3
f 168/1/5 170/1/5 153/1/5 151/1/5
f 154/1/3 156/1/3 171/1/3 169/1/3
f 170/1/5 172/1/5 155/1/5 153/1/5
f 156/1/3 144/1/3 157/1/3 171/1/3
f 172/1/5 160/1/5 141/1/5 155/1/5
f 173/2/5 174/2/5 175/2/5 176/2/5 177/2/5 178/2/5
f 178/2/25 177/2/25 179/2/25 180/2/25
f 177/2/26 176/2/26 181/2/26 179/2/26
f 176/2/27 175/2/27 182/2/27 181/2/27
f 175/2/28 174/2/28 183/2/28 182/2/28
f 174/2/29 173/2/29 184/2/29 183/2/29
f 173/2/30 178/2/30 180/2/30 184/2/30
f 185/2/5 186/2/5 187/2/5 188/2/5 189/2/5 190/2/5
f 191/2/3 192/2/3 193/2/3 194/2/3 195/2/3 196/2/3
f 190/2/7 189/2/7 192/2/7 191/2/7
f 189/2/2 188/2/2 193/2/2 192/2/2
f 188/2/11 187/2/11 194/2/11 193/2/11
f 187/2/8 186/2/8 195/2/8 194/2/8
f 186/2/1 185/2/1 196/2/1 195/2/1
f 185/2/12 190/2/12 191/2/12 196/2/12
f 197/3/3 198/3/3 199/3/3 200/3/3 201/3/3 202/3/3
f 203/3/7 204/3/7 198/3/7 197/3/7
f 204/3/2 205/3/2 199/3/2 198/3/2
f 205/3/11 206/3/11 200/3/11 199/3/11
f 206/3/8 207/3/8 201/3/8 200/3/8
f 207/3/1 208/3/1 202/3/1 201/3/1
f 208/3/12 203/3/12 197/3/12 202/3/12
f 209/4/31 210/4/31 211/4/31
f 210/4/32 209/4/32 212/4/32
f 210/4/33 213/4/33 211/4/33
f 213/4/34 210/4/34 212/4/34
f 213/4/35 214/4/35 211/4/35
f 214/4/36 213/4/36 212/4/36
f 214/4/37 215/4/37 211/4/37
f 215/4/38 214/4/38 212/4/38
f 215/4/39 216/4/39 211/4/39
f 216/4/40 215/4/40 212/4/40
f 216/4/41 209/4/41 211/4/41
f 209/4/42 216/4/42 212/4/42
f 217/1/11 218/1/11 219/1/11 220/1/11
f 221/1/12 222/1/12 223/1/12 224/1/12
f 224/1/5 223/1/5 218/1/5 217/1/5
f 223/1/45 222/1/45 219/1/45 218/1/45
f 222/1/3 221/1/3 220/1/3 219/1/3
f 221/1/46 224/1/46 217/1/46 220/1/46
f 225/1/17 226/1/17 227/1/17 228/1/17
f 226/1/18 229/1/18 230/1/18 227/1/18
f 229/1/19 231/1/19 232/1/19 230/1/19
f 231/1/20 233/1/20 234/1/20 232/1/20
f 233/1/21 235/1/21 236/1/21 234/1/21
f 235/1/22 237/1/22 238/1/22 236/1/22
f 237/1/23 239/1/23 240/1/23 238/1/23
f 239/1/24 225/1/24 228/1/24 240/1/24
f 241/1/21 242/1/21 243/1/21 244/1/21
f 242/1/22 245/1/22 246/1/22 243/1/22
f 245/1/23 247/1/23 248/1/23 246/1/23
f 247/1/24 249/1/24 250/1/24 248/1/24
f 249/1/17 251/1/17 252/1/17 250/1/17
f 251/1/18 253/1/18 254/1/18 252/1/18
f 253/1/19 255/1/19 256/1/19 254/1/19
f 255/1/20 241/1/20 244/1/20 256/1/20
f 228/1/3 227/1/3 242/1/3 241/1/3
f 244/1/5 243/1/5 226/1/5 225/1/5
f 227/1/3 230/1/3 245/1/3 242/1/3
f 243/1/5 246/1/5 229/1/5 226/1/5
f 230/1/3 232/1/3 247/1/3 245/1/3
f 246/1/5 248/1/5 231/1/5 229/1/5
f 232/1/3 234/1/3 249/1/3 247/1/3
f 248/1/5 250/1/5 233/1/5 231/1/5
f 234/1/3 236/1/3 251/1/3 249/1/3
f 250/1/5 252/1/5 235/1/5 233/1/5
f 236/1/3 238/1/3 253/1/3 251/1/3
f 252/1/5 254/1/5 237/1/5 235/1/5
f 238/1/3 240/1/3 255/1/3 253/1/3
f 254/1/5 256/1/5 239/1/5 237/1/5
f 240/1/3 228/1/3 241/1/3 255/1/3
f 256/1/5 244/1/5 225/1/5 239/1/5
f 257/2/5 258/2/5 259/2/5 260/2/5 261/2/5 262/2/5
f 262/2/25 261/2/25 263/2/25 264/2/25
f 261/2/26 260/2/26 265/2/26 263/2/26
f 260/2/27 259/2/27 266/2/27 265/2/27
f 259/2/28 258/2/28 267/2/28 266/2/28
f 258/2/29 257/2/29 268/2/29 267/2/29
f 257/2/30 262/2/30 264/2/30 268/2/30
f 269/2/5 270/2/5 271/2/5 272/2/5 273/2/5 274/2/5
f 275/2/3 276/2/3 277/2/3 278/2/3 279/2/3 280/2/3
f 274/2/7 273/2/7 276/2/7 275/2/7
f 273/2/2 272/2/2 277/2/2 276/2/2
f 272/2/11 271/2/11 278/2/11 277/2/11
f 271/2/8 270/2/8 279/2/8 278/2/8
f 270/2/1 269/2/1 280/2/1 279/2/1
f 269/2/12 274/2/12 275/2/12 280/2/12
f 281/3/3 282/3/3 283/3/3 284/3/3 285/3/3 286/3/3
f 287/3/7 288/3/7 282/3/7 281/3/7
f 288/3/2 289/3/2 283/3/2 282/3/2
f 289/3/11 290/3/11 284/3/11 283/3/11
f 290/3/8 291/3/8 285/3/8 284/3/8
f 291/3/1 292/3/1 286/3/1 285/3/1
f 292/3/12 287/3/12 281/3/12 286/3/12
f 293/4/31 294/4/31 295/4/31
f 294/4/32 293/4/32 296/4/32
f 294/4/33 297/4/33 295/4/33
f 297/4/34 294/4/34 296/4/34
f 297/4/35 298/4/35 295/4/35
f 298/4/36 297/4/36 296/4/36
f 298/4/37 299/4/37 295/4/37
f 299/4/38 298/4/38 296/4/38
f 299/4/39 300/4/39 295/4/39
f 300/4/40 299/4/40 296/4/40
f 300/4/41 293/4/41 295/4/41
f 293/4/42 300/4/42 296/4/42
