# Blender 5.2.0 LTS
# www.blender.org
mtllib FN_Stack_Magazine.mtl
o FN_Stack_Magazine
v -0.088944 0.000000 -0.162777
v 0.139796 0.000000 -0.138735
v 0.108438 0.000000 0.159621
v -0.120302 0.000000 0.135580
v -0.120302 0.008000 0.135580
v 0.108438 0.008000 0.159621
v 0.139796 0.008000 -0.138735
v -0.088944 0.008000 -0.162777
v -0.103104 0.008000 -0.122091
v 0.115256 0.008000 -0.148903
v 0.150598 0.008000 0.138936
v -0.067762 0.008000 0.165747
v -0.067762 0.015000 0.165747
v 0.150598 0.015000 0.138936
v 0.115256 0.015000 -0.148903
v -0.103104 0.015000 -0.122091
v -0.079976 0.015000 -0.185609
v 0.149014 0.015000 -0.128516
v 0.075470 0.015000 0.166454
v -0.153520 0.015000 0.109360
v -0.153520 0.024000 0.109360
v 0.075470 0.024000 0.166454
v 0.149014 0.024000 -0.128516
v -0.079976 0.024000 -0.185609
v -0.085537 0.024000 -0.151731
v 0.130167 0.024000 -0.163035
v 0.145030 0.024000 0.120575
v -0.070673 0.024000 0.131880
v -0.070673 0.030000 0.131880
v 0.145030 0.030000 0.120575
v 0.130167 0.030000 -0.163035
v -0.085537 0.030000 -0.151731
v -0.137762 0.030000 -0.108879
v 0.088013 0.030000 -0.152765
v 0.145255 0.030000 0.141723
v -0.080519 0.030000 0.185609
v -0.080519 0.041000 0.185609
v 0.145255 0.041000 0.141723
v 0.088013 0.041000 -0.152765
v -0.137762 0.041000 -0.108879
v -0.067722 0.041000 -0.185276
v 0.153520 0.041000 -0.150235
v 0.107216 0.041000 0.142121
v -0.114027 0.041000 0.107080
v -0.114027 0.048000 0.107080
v 0.107216 0.048000 0.142121
v 0.153520 0.048000 -0.150235
v -0.067722 0.048000 -0.185276
v -0.126052 0.048000 -0.125806
v 0.085142 0.048000 -0.144283
v 0.109545 0.048000 0.134651
v -0.101648 0.048000 0.153128
v -0.101648 0.054000 0.153128
v 0.109545 0.054000 0.134651
v 0.085142 0.054000 -0.144283
v -0.126052 0.054000 -0.125806
v -0.092984 0.054000 -0.140465
v 0.134877 0.054000 -0.132508
v 0.124477 0.054000 0.165310
v -0.103384 0.054000 0.157353
v -0.103384 0.064000 0.157353
v 0.124477 0.064000 0.165310
v 0.134877 0.064000 -0.132508
v -0.092984 0.064000 -0.140465
v -0.125010 0.064000 -0.138113
v 0.102752 0.064000 -0.170123
v 0.144504 0.064000 0.126958
v -0.083258 0.064000 0.158967
v -0.083258 0.074000 0.158967
v 0.144504 0.074000 0.126958
v 0.102752 0.074000 -0.170123
v -0.125010 0.074000 -0.138113
vn -0.0000 -1.0000 -0.0000
vn -0.0000 1.0000 -0.0000
vn -0.1045 -0.0000 0.9945
vn 0.9945 -0.0000 0.1045
vn 0.1045 -0.0000 -0.9945
vn -0.9945 -0.0000 -0.1045
vn 0.1219 -0.0000 0.9925
vn 0.9925 -0.0000 -0.1219
vn -0.1219 -0.0000 -0.9925
vn -0.9925 -0.0000 0.1219
vn -0.2419 -0.0000 0.9703
vn 0.9703 -0.0000 0.2419
vn 0.2419 -0.0000 -0.9703
vn -0.9703 -0.0000 -0.2419
vn 0.0523 -0.0000 0.9986
vn 0.9986 -0.0000 -0.0523
vn -0.0523 -0.0000 -0.9986
vn -0.9986 -0.0000 0.0523
vn 0.1908 -0.0000 0.9816
vn 0.9816 -0.0000 -0.1908
vn -0.1908 -0.0000 -0.9816
vn -0.9816 -0.0000 0.1908
vn -0.1564 -0.0000 0.9877
vn 0.9877 -0.0000 0.1564
vn 0.1564 -0.0000 -0.9877
vn -0.9877 -0.0000 -0.1564
vn 0.0872 -0.0000 0.9962
vn 0.9962 -0.0000 -0.0872
vn -0.0872 -0.0000 -0.9962
vn -0.9962 -0.0000 0.0872
vn -0.0349 -0.0000 0.9994
vn 0.9994 -0.0000 0.0349
vn 0.0349 -0.0000 -0.9994
vn -0.9994 -0.0000 -0.0349
vn 0.1392 -0.0000 0.9903
vn 0.9903 -0.0000 -0.1392
vn -0.1392 -0.0000 -0.9903
vn -0.9903 -0.0000 0.1392
vt 0.312500 0.062500
vt 0.312500 0.687500
vt 0.937500 0.687500
vt 0.312500 0.562500
vt 0.562500 0.812500
vt 0.937500 0.562500
vt 0.812500 0.562500
s 0
usemtl FN_Atlas
f 1/1/1 2/1/1 3/1/1 4/1/1
f 5/1/2 6/1/2 7/1/2 8/1/2
f 4/1/3 3/1/3 6/1/3 5/1/3
f 3/1/4 2/1/4 7/1/4 6/1/4
f 2/1/5 1/1/5 8/1/5 7/1/5
f 1/1/6 4/1/6 5/1/6 8/1/6
f 9/2/1 10/2/1 11/2/1 12/2/1
f 13/2/2 14/2/2 15/2/2 16/2/2
f 12/2/7 11/2/7 14/2/7 13/2/7
f 11/2/8 10/2/8 15/2/8 14/2/8
f 10/2/9 9/2/9 16/2/9 15/2/9
f 9/2/10 12/2/10 13/2/10 16/2/10
f 17/3/1 18/3/1 19/3/1 20/3/1
f 21/3/2 22/3/2 23/3/2 24/3/2
f 20/3/11 19/3/11 22/3/11 21/3/11
f 19/3/12 18/3/12 23/3/12 22/3/12
f 18/3/13 17/3/13 24/3/13 23/3/13
f 17/3/14 20/3/14 21/3/14 24/3/14
f 25/4/1 26/4/1 27/4/1 28/4/1
f 29/4/2 30/4/2 31/4/2 32/4/2
f 28/4/15 27/4/15 30/4/15 29/4/15
f 27/4/16 26/4/16 31/4/16 30/4/16
f 26/4/17 25/4/17 32/4/17 31/4/17
f 25/4/18 28/4/18 29/4/18 32/4/18
f 33/5/1 34/5/1 35/5/1 36/5/1
f 37/5/2 38/5/2 39/5/2 40/5/2
f 36/5/19 35/5/19 38/5/19 37/5/19
f 35/5/20 34/5/20 39/5/20 38/5/20
f 34/5/21 33/5/21 40/5/21 39/5/21
f 33/5/22 36/5/22 37/5/22 40/5/22
f 41/6/1 42/6/1 43/6/1 44/6/1
f 45/6/2 46/6/2 47/6/2 48/6/2
f 44/6/23 43/6/23 46/6/23 45/6/23
f 43/6/24 42/6/24 47/6/24 46/6/24
f 42/6/25 41/6/25 48/6/25 47/6/25
f 41/6/26 44/6/26 45/6/26 48/6/26
f 49/2/1 50/2/1 51/2/1 52/2/1
f 53/2/2 54/2/2 55/2/2 56/2/2
f 52/2/27 51/2/27 54/2/27 53/2/27
f 51/2/28 50/2/28 55/2/28 54/2/28
f 50/2/29 49/2/29 56/2/29 55/2/29
f 49/2/30 52/2/30 53/2/30 56/2/30
f 57/7/1 58/7/1 59/7/1 60/7/1
f 61/7/2 62/7/2 63/7/2 64/7/2
f 60/7/31 59/7/31 62/7/31 61/7/31
f 59/7/32 58/7/32 63/7/32 62/7/32
f 58/7/33 57/7/33 64/7/33 63/7/33
f 57/7/34 60/7/34 61/7/34 64/7/34
f 65/3/1 66/3/1 67/3/1 68/3/1
f 69/3/2 70/3/2 71/3/2 72/3/2
f 68/3/35 67/3/35 70/3/35 69/3/35
f 67/3/36 66/3/36 71/3/36 70/3/36
f 66/3/37 65/3/37 72/3/37 71/3/37
f 65/3/38 68/3/38 69/3/38 72/3/38
