# Blender 5.2.0 LTS
# www.blender.org
mtllib FN_Stool_Bar.mtl
o FN_Stool_Bar
v 0.153364 0.710000 0.063525
v 0.117380 0.710000 0.117380
v 0.063525 0.710000 0.153364
v -0.000000 0.710000 0.166000
v -0.063525 0.710000 0.153364
v -0.117380 0.710000 0.117380
v -0.153364 0.710000 0.063525
v -0.166000 0.710000 -0.000000
v -0.153364 0.710000 -0.063525
v -0.117380 0.710000 -0.117380
v -0.063525 0.710000 -0.153364
v 0.000000 0.710000 -0.166000
v 0.063525 0.710000 -0.153364
v 0.117380 0.710000 -0.117380
v 0.153364 0.710000 -0.063525
v 0.166000 0.710000 0.000000
v 0.158907 0.716000 -0.065822
v 0.172000 0.716000 0.000000
v 0.121622 0.716000 -0.121622
v 0.065822 0.716000 -0.158907
v 0.000000 0.716000 -0.172000
v -0.065822 0.716000 -0.158907
v -0.121622 0.716000 -0.121622
v -0.158907 0.716000 -0.065822
v -0.172000 0.716000 -0.000000
v -0.158907 0.716000 0.065822
v -0.121622 0.716000 0.121622
v -0.065822 0.716000 0.158907
v -0.000000 0.716000 0.172000
v 0.065822 0.716000 0.158907
v 0.121622 0.716000 0.121622
v 0.158907 0.716000 0.065822
v 0.158907 0.732000 -0.065822
v 0.172000 0.732000 0.000000
v 0.121622 0.732000 -0.121622
v 0.065822 0.732000 -0.158907
v 0.000000 0.732000 -0.172000
v -0.065822 0.732000 -0.158907
v -0.121622 0.732000 -0.121622
v -0.158907 0.732000 -0.065822
v -0.172000 0.732000 -0.000000
v -0.158907 0.732000 0.065822
v -0.121622 0.732000 0.121622
v -0.065822 0.732000 0.158907
v -0.000000 0.732000 0.172000
v 0.065822 0.732000 0.158907
v 0.121622 0.732000 0.121622
v 0.158907 0.732000 0.065822
v 0.166000 0.738000 0.000000
v 0.153364 0.738000 -0.063525
v 0.117380 0.738000 -0.117380
v 0.063525 0.738000 -0.153364
v 0.000000 0.738000 -0.166000
v -0.063525 0.738000 -0.153364
v -0.117380 0.738000 -0.117380
v -0.153364 0.738000 -0.063525
v -0.166000 0.738000 -0.000000
v -0.153364 0.738000 0.063525
v -0.117380 0.738000 0.117380
v -0.063525 0.738000 0.153364
v -0.000000 0.738000 0.166000
v 0.063525 0.738000 0.153364
v 0.117380 0.738000 0.117380
v 0.153364 0.738000 0.063525
v 0.151516 0.734000 0.062760
v 0.115966 0.734000 0.115966
v 0.062760 0.734000 0.151516
v -0.000000 0.734000 0.164000
v -0.062760 0.734000 0.151516
v -0.115966 0.734000 0.115966
v -0.151516 0.734000 0.062760
v -0.164000 0.734000 -0.000000
v -0.151516 0.734000 -0.062760
v -0.115966 0.734000 -0.115966
v -0.062760 0.734000 -0.151516
v 0.000000 0.734000 -0.164000
v 0.062760 0.734000 -0.151516
v 0.115966 0.734000 -0.115966
v 0.151516 0.734000 -0.062760
v 0.164000 0.734000 0.000000
v 0.151516 0.744000 -0.062760
v 0.164000 0.744000 0.000000
v 0.115966 0.744000 -0.115966
v 0.062760 0.744000 -0.151516
v 0.000000 0.744000 -0.164000
v -0.062760 0.744000 -0.151516
v -0.115966 0.744000 -0.115966
v -0.151516 0.744000 -0.062760
v -0.164000 0.744000 -0.000000
v -0.151516 0.744000 0.062760
v -0.115966 0.744000 0.115966
v -0.062760 0.744000 0.151516
v -0.000000 0.744000 0.164000
v 0.062760 0.744000 0.151516
v 0.115966 0.744000 0.115966
v 0.151516 0.744000 0.062760
v 0.147600 0.750000 0.000000
v 0.136365 0.750000 -0.056484
v 0.104369 0.750000 -0.104369
v 0.056484 0.750000 -0.136365
v 0.000000 0.750000 -0.147600
v -0.056484 0.750000 -0.136365
v -0.104369 0.750000 -0.104369
v -0.136365 0.750000 -0.056484
v -0.147600 0.750000 -0.000000
v -0.136365 0.750000 0.056484
v -0.104369 0.750000 0.104369
v -0.056484 0.750000 0.136365
v -0.000000 0.750000 0.147600
v 0.056484 0.750000 0.136365
v 0.104369 0.750000 0.104369
v 0.136365 0.750000 0.056484
v -0.107219 0.719172 0.099032
v -0.129121 0.721254 0.099032
v -0.139901 0.724082 0.118000
v -0.128781 0.724828 0.136968
v -0.106879 0.722746 0.136968
v -0.096099 0.719918 0.118000
v -0.186157 0.007421 0.203081
v -0.194324 0.010924 0.217574
v -0.211126 0.013504 0.217453
v -0.219763 0.012579 0.202839
v -0.211596 0.009076 0.188346
v -0.194794 0.006496 0.188467
v -0.148246 0.300826 0.174915
v -0.138757 0.297695 0.158169
v -0.167609 0.303130 0.174866
v -0.177483 0.302305 0.158071
v -0.167994 0.299174 0.141325
v -0.148631 0.296870 0.141374
v -0.193460 0.000000 0.219414
v -0.212460 0.000000 0.219414
v -0.221960 0.000000 0.202960
v -0.212460 0.000000 0.186506
v -0.193460 0.000000 0.186506
v -0.183960 0.000000 0.202960
v -0.187000 0.010000 0.202960
v -0.194980 0.010000 0.189138
v -0.210940 0.010000 0.189138
v -0.218920 0.010000 0.202960
v -0.210940 0.010000 0.216782
v -0.194980 0.010000 0.216782
v -0.193460 0.005500 0.186506
v -0.183960 0.005500 0.202960
v -0.212460 0.005500 0.186506
v -0.221960 0.005500 0.202960
v -0.212460 0.005500 0.219414
v -0.193460 0.005500 0.219414
v 0.129121 0.721254 0.099032
v 0.107219 0.719172 0.099032
v 0.096099 0.719918 0.118000
v 0.106879 0.722746 0.136968
v 0.128781 0.724828 0.136968
v 0.139901 0.724082 0.118000
v 0.219763 0.012579 0.202839
v 0.211126 0.013504 0.217453
v 0.194324 0.010924 0.217574
v 0.186157 0.007421 0.203081
v 0.194794 0.006496 0.188467
v 0.211596 0.009076 0.188346
v 0.167609 0.303130 0.174866
v 0.177483 0.302305 0.158071
v 0.148246 0.300826 0.174915
v 0.138757 0.297695 0.158169
v 0.148631 0.296870 0.141374
v 0.167994 0.299174 0.141325
v 0.212460 0.000000 0.219414
v 0.193460 0.000000 0.219414
v 0.183960 0.000000 0.202960
v 0.193460 0.000000 0.186506
v 0.212460 0.000000 0.186506
v 0.221960 0.000000 0.202960
v 0.218920 0.010000 0.202960
v 0.210940 0.010000 0.189138
v 0.194980 0.010000 0.189138
v 0.187000 0.010000 0.202960
v 0.194980 0.010000 0.216782
v 0.210940 0.010000 0.216782
v 0.212460 0.005500 0.186506
v 0.221960 0.005500 0.202960
v 0.193460 0.005500 0.186506
v 0.183960 0.005500 0.202960
v 0.193460 0.005500 0.219414
v 0.212460 0.005500 0.219414
v -0.106879 0.722746 -0.136968
v -0.128781 0.724828 -0.136968
v -0.139901 0.724082 -0.118000
v -0.129121 0.721254 -0.099032
v -0.107219 0.719172 -0.099032
v -0.096099 0.719918 -0.118000
v -0.186157 0.007421 -0.203081
v -0.194794 0.006496 -0.188467
v -0.211596 0.009076 -0.188346
v -0.219763 0.012579 -0.202839
v -0.211126 0.013504 -0.217453
v -0.194324 0.010924 -0.217574
v -0.148631 0.296870 -0.141374
v -0.138757 0.297695 -0.158169
v -0.167994 0.299174 -0.141325
v -0.177483 0.302305 -0.158071
v -0.167609 0.303130 -0.174866
v -0.148246 0.300826 -0.174915
v -0.193460 0.000000 -0.186506
v -0.212460 0.000000 -0.186506
v -0.221960 0.000000 -0.202960
v -0.212460 0.000000 -0.219414
v -0.193460 0.000000 -0.219414
v -0.183960 0.000000 -0.202960
v -0.187000 0.010000 -0.202960
v -0.194980 0.010000 -0.216782
v -0.210940 0.010000 -0.216782
v -0.218920 0.010000 -0.202960
v -0.210940 0.010000 -0.189138
v -0.194980 0.010000 -0.189138
v -0.193460 0.005500 -0.219414
v -0.183960 0.005500 -0.202960
v -0.212460 0.005500 -0.219414
v -0.221960 0.005500 -0.202960
v -0.212460 0.005500 -0.186506
v -0.193460 0.005500 -0.186506
v 0.128781 0.724828 -0.136968
v 0.106879 0.722746 -0.136968
v 0.096099 0.719918 -0.118000
v 0.107219 0.719172 -0.099032
v 0.129121 0.721254 -0.099032
v 0.139901 0.724082 -0.118000
v 0.219763 0.012579 -0.202839
v 0.211596 0.009076 -0.188346
v 0.194794 0.006496 -0.188467
v 0.186157 0.007421 -0.203081
v 0.194324 0.010924 -0.217574
v 0.211126 0.013504 -0.217453
v 0.167994 0.299174 -0.141325
v 0.177483 0.302305 -0.158071
v 0.148631 0.296870 -0.141374
v 0.138757 0.297695 -0.158169
v 0.148246 0.300826 -0.174915
v 0.167609 0.303130 -0.174866
v 0.212460 0.000000 -0.186506
v 0.193460 0.000000 -0.186506
v 0.183960 0.000000 -0.202960
v 0.193460 0.000000 -0.219414
v 0.212460 0.000000 -0.219414
v 0.221960 0.000000 -0.202960
v 0.218920 0.010000 -0.202960
v 0.210940 0.010000 -0.216782
v 0.194980 0.010000 -0.216782
v 0.187000 0.010000 -0.202960
v 0.194980 0.010000 -0.189138
v 0.210940 0.010000 -0.189138
v 0.212460 0.005500 -0.219414
v 0.221960 0.005500 -0.202960
v 0.193460 0.005500 -0.219414
v 0.183960 0.005500 -0.202960
v 0.193460 0.005500 -0.186506
v 0.212460 0.005500 -0.186506
v 0.190761 0.205000 -0.002481
v 0.184381 0.193742 -0.001240
v 0.171065 0.193742 -0.069115
v 0.177092 0.205000 -0.071550
v 0.171619 0.193742 0.001240
v 0.159012 0.193742 -0.064245
v 0.165239 0.205000 0.002481
v 0.152985 0.205000 -0.061810
v 0.171619 0.216258 0.001240
v 0.159012 0.216258 -0.064245
v 0.184381 0.216258 -0.001240
v 0.171065 0.216258 -0.069115
v 0.132718 0.193742 -0.128164
v 0.137394 0.205000 -0.132680
v 0.123367 0.193742 -0.119134
v 0.118691 0.205000 -0.114619
v 0.123367 0.216258 -0.119134
v 0.132718 0.216258 -0.128164
v 0.075043 0.193742 -0.168549
v 0.077687 0.205000 -0.174487
v 0.069755 0.193742 -0.156673
v 0.067112 0.205000 -0.150735
v 0.069755 0.216258 -0.156673
v 0.075043 0.216258 -0.168549
v 0.006439 0.193742 -0.184388
v 0.006666 0.205000 -0.190884
v 0.005985 0.193742 -0.171396
v 0.005758 0.205000 -0.164899
v 0.005985 0.216258 -0.171396
v 0.006439 0.216258 -0.184388
v -0.063103 0.193742 -0.173373
v -0.065326 0.205000 -0.179481
v -0.058656 0.193742 -0.161157
v -0.056433 0.205000 -0.155049
v -0.058656 0.216258 -0.161157
v -0.063103 0.216258 -0.173373
v -0.123455 0.193742 -0.137110
v -0.127804 0.205000 -0.141941
v -0.114756 0.193742 -0.127449
v -0.110407 0.205000 -0.122619
v -0.114756 0.216258 -0.127449
v -0.123455 0.216258 -0.137110
v -0.165827 0.193742 -0.080879
v -0.171670 0.205000 -0.083729
v -0.154143 0.193742 -0.075181
v -0.148301 0.205000 -0.072331
v -0.154143 0.216258 -0.075181
v -0.165827 0.216258 -0.080879
v -0.184051 0.193742 -0.012870
v -0.190535 0.205000 -0.013323
v -0.171082 0.193742 -0.011963
v -0.164598 0.205000 -0.011510
v -0.171082 0.216258 -0.011963
v -0.184051 0.216258 -0.012870
v -0.175470 0.193742 0.057014
v -0.181652 0.205000 0.059022
v -0.163106 0.193742 0.052996
v -0.156924 0.205000 0.050988
v -0.163106 0.216258 0.052996
v -0.175470 0.216258 0.057014
v -0.141335 0.193742 0.118594
v -0.146314 0.205000 0.122772
v -0.131377 0.193742 0.110238
v -0.126397 0.205000 0.106060
v -0.131377 0.216258 0.110238
v -0.141335 0.216258 0.118594
v -0.086617 0.193742 0.162904
v -0.089669 0.205000 0.168643
v -0.080514 0.193742 0.151426
v -0.077463 0.205000 0.145686
v -0.080514 0.216258 0.151426
v -0.086617 0.216258 0.162904
v -0.019286 0.193742 0.183489
v -0.019965 0.205000 0.189954
v -0.017927 0.193742 0.170561
v -0.017247 0.205000 0.164096
v -0.017927 0.216258 0.170561
v -0.019286 0.216258 0.183489
v 0.050855 0.193742 0.177353
v 0.052647 0.205000 0.183601
v 0.047272 0.193742 0.164856
v 0.045480 0.205000 0.158608
v 0.047272 0.216258 0.164856
v 0.050855 0.216258 0.177353
v 0.113590 0.193742 0.145388
v 0.117591 0.205000 0.150510
v 0.105586 0.193742 0.135144
v 0.101584 0.205000 0.130022
v 0.105586 0.216258 0.135144
v 0.113590 0.216258 0.145388
v 0.159782 0.193742 0.092250
v 0.165411 0.205000 0.095500
v 0.148523 0.193742 0.085750
v 0.142894 0.205000 0.082500
v 0.148523 0.216258 0.085750
v 0.159782 0.216258 0.092250
v 0.182546 0.193742 0.026455
v 0.188825 0.205000 0.028137
v 0.169989 0.193742 0.023090
v 0.163711 0.205000 0.021408
v 0.169989 0.216258 0.023090
v 0.182546 0.216258 0.026455
v 0.184484 0.193742 0.000453
v 0.190968 0.205000 0.000907
v 0.171516 0.193742 -0.000453
v 0.165032 0.205000 -0.000907
v 0.171516 0.216258 -0.000453
v 0.184484 0.216258 0.000453
vn -0.0000 -1.0000 -0.0000
vn 0.7002 -0.7002 -0.1393
vn 0.5936 -0.7002 -0.3966
vn 0.3966 -0.7002 -0.5936
vn 0.1393 -0.7002 -0.7002
vn -0.1393 -0.7002 -0.7002
vn -0.3966 -0.7002 -0.5936
vn -0.5936 -0.7002 -0.3966
vn -0.7002 -0.7002 -0.1393
vn -0.7002 -0.7002 0.1393
vn -0.5936 -0.7002 0.3966
vn -0.3966 -0.7002 0.5936
vn -0.1393 -0.7002 0.7002
vn 0.1393 -0.7002 0.7002
vn 0.3966 -0.7002 0.5936
vn 0.5936 -0.7002 0.3966
vn 0.7002 -0.7002 0.1393
vn 0.9808 -0.0000 -0.1951
vn 0.8315 -0.0000 -0.5556
vn 0.5556 -0.0000 -0.8315
vn 0.1951 -0.0000 -0.9808
vn -0.1951 -0.0000 -0.9808
vn -0.5556 -0.0000 -0.8315
vn -0.8315 -0.0000 -0.5556
vn -0.9808 -0.0000 -0.1951
vn -0.9808 -0.0000 0.1951
vn -0.8315 -0.0000 0.5556
vn -0.5556 -0.0000 0.8315
vn -0.1951 -0.0000 0.9808
vn 0.1951 -0.0000 0.9808
vn 0.5556 -0.0000 0.8315
vn 0.8315 -0.0000 0.5556
vn 0.9808 -0.0000 0.1951
vn -0.0000 1.0000 -0.0000
vn 0.7002 0.7002 -0.1393
vn 0.5936 0.7002 -0.3966
vn 0.3966 0.7002 -0.5936
vn 0.1393 0.7002 -0.7002
vn -0.1393 0.7002 -0.7002
vn -0.3966 0.7002 -0.5936
vn -0.5936 0.7002 -0.3966
vn -0.7002 0.7002 -0.1393
vn -0.7002 0.7002 0.1393
vn -0.5936 0.7002 0.3966
vn -0.3966 0.7002 0.5936
vn -0.1393 0.7002 0.7002
vn 0.1393 0.7002 0.7002
vn 0.3966 0.7002 0.5936
vn 0.5936 0.7002 0.3966
vn 0.7002 0.7002 0.1393
vn 0.3428 0.9369 -0.0682
vn 0.2906 0.9369 -0.1942
vn 0.1942 0.9369 -0.2906
vn 0.0682 0.9369 -0.3428
vn -0.0682 0.9369 -0.3428
vn -0.1942 0.9369 -0.2906
vn -0.2906 0.9369 -0.1942
vn -0.3428 0.9369 -0.0682
vn -0.3428 0.9369 0.0682
vn -0.2906 0.9369 0.1942
vn -0.1942 0.9369 0.2906
vn -0.0682 0.9369 0.3428
vn 0.0682 0.9369 0.3428
vn 0.1942 0.9369 0.2906
vn 0.2906 0.9369 0.1942
vn 0.3428 0.9369 0.0682
vn 0.0942 0.9911 -0.0942
vn -0.1511 -0.9769 0.1511
vn 0.8661 -0.0401 0.4983
vn 0.0082 0.0888 0.9960
vn -0.8581 0.1238 0.4983
vn -0.8671 0.0300 -0.4972
vn -0.0093 -0.0989 -0.9951
vn 0.8572 -0.1339 -0.4973
vn 0.8630 -0.0634 0.5012
vn 0.0147 0.1433 0.9896
vn -0.8490 0.1995 0.4893
vn -0.8650 0.0491 -0.4993
vn -0.0166 -0.1575 -0.9874
vn 0.8468 -0.2136 -0.4872
vn 0.8660 -0.0000 -0.5000
vn -0.0000 -0.0000 -1.0000
vn -0.8660 -0.0000 -0.5000
vn -0.8660 -0.0000 0.5000
vn -0.0000 -0.0000 1.0000
vn 0.8660 -0.0000 0.5000
vn 0.7475 0.5050 -0.4316
vn -0.0000 0.5050 -0.8631
vn -0.7475 0.5050 -0.4316
vn -0.7475 0.5050 0.4316
vn -0.0000 0.5050 0.8631
vn 0.7475 0.5050 0.4316
vn -0.0942 0.9911 -0.0942
vn 0.1511 -0.9769 0.1511
vn 0.8581 0.1238 0.4983
vn -0.0082 0.0888 0.9960
vn -0.8661 -0.0401 0.4983
vn -0.8572 -0.1339 -0.4973
vn 0.0093 -0.0989 -0.9951
vn 0.8671 0.0300 -0.4972
vn 0.8490 0.1995 0.4893
vn -0.0147 0.1433 0.9896
vn -0.8630 -0.0634 0.5012
vn -0.8468 -0.2136 -0.4872
vn 0.0166 -0.1575 -0.9874
vn 0.8650 0.0491 -0.4993
vn 0.0942 0.9911 0.0942
vn -0.1511 -0.9769 -0.1511
vn 0.8572 -0.1339 0.4973
vn -0.0093 -0.0989 0.9951
vn -0.8671 0.0300 0.4972
vn -0.8581 0.1238 -0.4983
vn 0.0082 0.0888 -0.9960
vn 0.8661 -0.0401 -0.4983
vn 0.8468 -0.2136 0.4872
vn -0.0166 -0.1575 0.9874
vn -0.8650 0.0491 0.4993
vn -0.8490 0.1995 -0.4893
vn 0.0147 0.1433 -0.9896
vn 0.8630 -0.0634 -0.5012
vn -0.0942 0.9911 0.0942
vn 0.1511 -0.9769 -0.1511
vn 0.8671 0.0300 0.4972
vn 0.0093 -0.0989 0.9951
vn -0.8572 -0.1339 0.4973
vn -0.8661 -0.0401 -0.4983
vn -0.0082 0.0888 -0.9960
vn 0.8581 0.1238 -0.4983
vn 0.8650 0.0491 0.4993
vn 0.0166 -0.1575 0.9874
vn -0.8468 -0.2136 0.4872
vn -0.8630 -0.0634 -0.5012
vn -0.0147 0.1433 -0.9896
vn 0.8490 0.1995 -0.4893
vn 0.8516 -0.4966 -0.1678
vn -0.8526 -0.4964 0.1633
vn -0.8526 0.4964 0.1633
vn 0.8516 0.4966 -0.1678
vn 0.7296 -0.4931 -0.4738
vn -0.7296 -0.4931 0.4738
vn -0.7296 0.4931 0.4738
vn 0.7296 0.4931 -0.4738
vn 0.4990 -0.4931 -0.7127
vn -0.4990 -0.4931 0.7127
vn -0.4990 0.4931 0.7127
vn 0.4990 0.4931 -0.7127
vn 0.1957 -0.4931 -0.8477
vn -0.1957 -0.4931 0.8477
vn -0.1957 0.4931 0.8477
vn 0.1957 0.4931 -0.8477
vn -0.1361 -0.4931 -0.8593
vn 0.1361 -0.4931 0.8593
vn 0.1361 0.4931 0.8593
vn -0.1361 0.4931 -0.8593
vn -0.4481 -0.4931 -0.7457
vn 0.4481 -0.4931 0.7457
vn 0.4481 0.4931 0.7457
vn -0.4481 0.4931 -0.7457
vn -0.6948 -0.4931 -0.5236
vn 0.6948 -0.4931 0.5236
vn 0.6948 0.4931 0.5236
vn -0.6948 0.4931 -0.5236
vn -0.8403 -0.4931 -0.2252
vn 0.8403 -0.4931 0.2252
vn 0.8403 0.4931 0.2252
vn -0.8403 0.4931 -0.2252
vn -0.8635 -0.4931 0.1060
vn 0.8635 -0.4931 -0.1060
vn 0.8635 0.4931 -0.1060
vn -0.8635 0.4931 0.1060
vn -0.7609 -0.4931 0.4218
vn 0.7609 -0.4931 -0.4218
vn 0.7609 0.4931 -0.4218
vn -0.7609 0.4931 0.4218
vn -0.5475 -0.4931 0.6761
vn 0.5475 -0.4931 -0.6761
vn 0.5475 0.4931 -0.6761
vn -0.5475 0.4931 0.6761
vn -0.2544 -0.4931 0.8320
vn 0.2544 -0.4931 -0.8320
vn 0.2544 0.4931 -0.8320
vn -0.2544 0.4931 0.8320
vn 0.0758 -0.4931 0.8667
vn -0.0758 -0.4931 -0.8667
vn -0.0758 0.4931 -0.8667
vn 0.0758 0.4931 0.8667
vn 0.3950 -0.4931 0.7752
vn -0.3950 -0.4931 -0.7752
vn -0.3950 0.4931 -0.7752
vn 0.3950 0.4931 0.7752
vn 0.6566 -0.4931 0.5708
vn -0.6566 -0.4931 -0.5708
vn -0.6566 0.4931 -0.5708
vn 0.6566 0.4931 0.5708
vn 0.8203 -0.4961 0.2845
vn -0.8217 -0.4960 -0.2807
vn -0.8217 0.4960 -0.2807
vn 0.8203 0.4961 0.2845
vn 0.8653 -0.4968 0.0663
vn -0.8665 -0.4963 -0.0538
vn -0.8665 0.4963 -0.0538
vn 0.8653 0.4968 0.0663
vt 0.687500 0.937500
vt 0.437500 0.937500
vt 0.062500 0.562500
vt 0.937500 0.312500
vt 0.812500 0.312500
vt 0.437500 0.312500
s 0
usemtl FN_Atlas
f 1/1/1 2/1/1 3/1/1 4/1/1 5/1/1 6/1/1 7/1/1 8/1/1 9/1/1 10/1/1 11/1/1 12/1/1 13/1/1 14/1/1 15/1/1 16/1/1
f 16/1/2 15/1/2 17/1/2 18/1/2
f 15/1/3 14/1/3 19/1/3 17/1/3
f 14/1/4 13/1/4 20/1/4 19/1/4
f 13/1/5 12/1/5 21/1/5 20/1/5
f 12/1/6 11/1/6 22/1/6 21/1/6
f 11/1/7 10/1/7 23/1/7 22/1/7
f 10/1/8 9/1/8 24/1/8 23/1/8
f 9/1/9 8/1/9 25/1/9 24/1/9
f 8/1/10 7/1/10 26/1/10 25/1/10
f 7/1/11 6/1/11 27/1/11 26/1/11
f 6/1/12 5/1/12 28/1/12 27/1/12
f 5/1/13 4/1/13 29/1/13 28/1/13
f 4/1/14 3/1/14 30/1/14 29/1/14
f 3/1/15 2/1/15 31/1/15 30/1/15
f 2/1/16 1/1/16 32/1/16 31/1/16
f 1/1/17 16/1/17 18/1/17 32/1/17
f 18/1/18 17/1/18 33/1/18 34/1/18
f 17/1/19 19/1/19 35/1/19 33/1/19
f 19/1/20 20/1/20 36/1/20 35/1/20
f 20/1/21 21/1/21 37/1/21 36/1/21
f 21/1/22 22/1/22 38/1/22 37/1/22
f 22/1/23 23/1/23 39/1/23 38/1/23
f 23/1/24 24/1/24 40/1/24 39/1/24
f 24/1/25 25/1/25 41/1/25 40/1/25
f 25/1/26 26/1/26 42/1/26 41/1/26
f 26/1/27 27/1/27 43/1/27 42/1/27
f 27/1/28 28/1/28 44/1/28 43/1/28
f 28/1/29 29/1/29 45/1/29 44/1/29
f 29/1/30 30/1/30 46/1/30 45/1/30
f 30/1/31 31/1/31 47/1/31 46/1/31
f 31/1/32 32/1/32 48/1/32 47/1/32
f 32/1/33 18/1/33 34/1/33 48/1/33
f 49/2/34 50/2/34 51/2/34 52/2/34 53/2/34 54/2/34 55/2/34 56/2/34 57/2/34 58/2/34 59/2/34 60/2/34 61/2/34 62/2/34 63/2/34 64/2/34
f 34/1/35 33/1/35 50/1/35 49/1/35
f 33/1/36 35/1/36 51/1/36 50/1/36
f 35/1/37 36/1/37 52/1/37 51/1/37
f 36/1/38 37/1/38 53/1/38 52/1/38
f 37/1/39 38/1/39 54/1/39 53/1/39
f 38/1/40 39/1/40 55/1/40 54/1/40
f 39/1/41 40/1/41 56/1/41 55/1/41
f 40/1/42 41/1/42 57/1/42 56/1/42
f 41/1/43 42/1/43 58/1/43 57/1/43
f 42/1/44 43/1/44 59/1/44 58/1/44
f 43/1/45 44/1/45 60/1/45 59/1/45
f 44/1/46 45/1/46 61/1/46 60/1/46
f 45/1/47 46/1/47 62/1/47 61/1/47
f 46/1/48 47/1/48 63/1/48 62/1/48
f 47/1/49 48/1/49 64/1/49 63/1/49
f 48/1/50 34/1/50 49/1/50 64/1/50
f 65/3/1 66/3/1 67/3/1 68/3/1 69/3/1 70/3/1 71/3/1 72/3/1 73/3/1 74/3/1 75/3/1 76/3/1 77/3/1 78/3/1 79/3/1 80/3/1
f 80/3/18 79/3/18 81/3/18 82/3/18
f 79/3/19 78/3/19 83/3/19 81/3/19
f 78/3/20 77/3/20 84/3/20 83/3/20
f 77/3/21 76/3/21 85/3/21 84/3/21
f 76/3/22 75/3/22 86/3/22 85/3/22
f 75/3/23 74/3/23 87/3/23 86/3/23
f 74/3/24 73/3/24 88/3/24 87/3/24
f 73/3/25 72/3/25 89/3/25 88/3/25
f 72/3/26 71/3/26 90/3/26 89/3/26
f 71/3/27 70/3/27 91/3/27 90/3/27
f 70/3/28 69/3/28 92/3/28 91/3/28
f 69/3/29 68/3/29 93/3/29 92/3/29
f 68/3/30 67/3/30 94/3/30 93/3/30
f 67/3/31 66/3/31 95/3/31 94/3/31
f 66/3/32 65/3/32 96/3/32 95/3/32
f 65/3/33 80/3/33 82/3/33 96/3/33
f 97/3/34 98/3/34 99/3/34 100/3/34 101/3/34 102/3/34 103/3/34 104/3/34 105/3/34 106/3/34 107/3/34 108/3/34 109/3/34 110/3/34 111/3/34 112/3/34
f 82/3/51 81/3/51 98/3/51 97/3/51
f 81/3/52 83/3/52 99/3/52 98/3/52
f 83/3/53 84/3/53 100/3/53 99/3/53
f 84/3/54 85/3/54 101/3/54 100/3/54
f 85/3/55 86/3/55 102/3/55 101/3/55
f 86/3/56 87/3/56 103/3/56 102/3/56
f 87/3/57 88/3/57 104/3/57 103/3/57
f 88/3/58 89/3/58 105/3/58 104/3/58
f 89/3/59 90/3/59 106/3/59 105/3/59
f 90/3/60 91/3/60 107/3/60 106/3/60
f 91/3/61 92/3/61 108/3/61 107/3/61
f 92/3/62 93/3/62 109/3/62 108/3/62
f 93/3/63 94/3/63 110/3/63 109/3/63
f 94/3/64 95/3/64 111/3/64 110/3/64
f 95/3/65 96/3/65 112/3/65 111/3/65
f 96/3/66 82/3/66 97/3/66 112/3/66
f 113/4/67 114/4/67 115/4/67 116/4/67 117/4/67 118/4/67
f 119/4/68 120/4/68 121/4/68 122/4/68 123/4/68 124/4/68
f 118/4/69 117/4/69 125/4/69 126/4/69
f 117/4/70 116/4/70 127/4/70 125/4/70
f 116/4/71 115/4/71 128/4/71 127/4/71
f 115/4/72 114/4/72 129/4/72 128/4/72
f 114/4/73 113/4/73 130/4/73 129/4/73
f 113/4/74 118/4/74 126/4/74 130/4/74
f 126/4/75 125/4/75 120/4/75 119/4/75
f 125/4/76 127/4/76 121/4/76 120/4/76
f 127/4/77 128/4/77 122/4/77 121/4/77
f 128/4/78 129/4/78 123/4/78 122/4/78
f 129/4/79 130/4/79 124/4/79 123/4/79
f 130/4/80 126/4/80 119/4/80 124/4/80
f 131/5/1 132/5/1 133/5/1 134/5/1 135/5/1 136/5/1
f 137/5/34 138/5/34 139/5/34 140/5/34 141/5/34 142/5/34
f 136/5/81 135/5/81 143/5/81 144/5/81
f 135/5/82 134/5/82 145/5/82 143/5/82
f 134/5/83 133/5/83 146/5/83 145/5/83
f 133/5/84 132/5/84 147/5/84 146/5/84
f 132/5/85 131/5/85 148/5/85 147/5/85
f 131/5/86 136/5/86 144/5/86 148/5/86
f 144/5/87 143/5/87 138/5/87 137/5/87
f 143/5/88 145/5/88 139/5/88 138/5/88
f 145/5/89 146/5/89 140/5/89 139/5/89
f 146/5/90 147/5/90 141/5/90 140/5/90
f 147/5/91 148/5/91 142/5/91 141/5/91
f 148/5/92 144/5/92 137/5/92 142/5/92
f 149/4/93 150/4/93 151/4/93 152/4/93 153/4/93 154/4/93
f 155/4/94 156/4/94 157/4/94 158/4/94 159/4/94 160/4/94
f 154/4/95 153/4/95 161/4/95 162/4/95
f 153/4/96 152/4/96 163/4/96 161/4/96
f 152/4/97 151/4/97 164/4/97 163/4/97
f 151/4/98 150/4/98 165/4/98 164/4/98
f 150/4/99 149/4/99 166/4/99 165/4/99
f 149/4/100 154/4/100 162/4/100 166/4/100
f 162/4/101 161/4/101 156/4/101 155/4/101
f 161/4/102 163/4/102 157/4/102 156/4/102
f 163/4/103 164/4/103 158/4/103 157/4/103
f 164/4/104 165/4/104 159/4/104 158/4/104
f 165/4/105 166/4/105 160/4/105 159/4/105
f 166/4/106 162/4/106 155/4/106 160/4/106
f 167/5/1 168/5/1 169/5/1 170/5/1 171/5/1 172/5/1
f 173/5/34 174/5/34 175/5/34 176/5/34 177/5/34 178/5/34
f 172/5/81 171/5/81 179/5/81 180/5/81
f 171/5/82 170/5/82 181/5/82 179/5/82
f 170/5/83 169/5/83 182/5/83 181/5/83
f 169/5/84 168/5/84 183/5/84 182/5/84
f 168/5/85 167/5/85 184/5/85 183/5/85
f 167/5/86 172/5/86 180/5/86 184/5/86
f 180/5/87 179/5/87 174/5/87 173/5/87
f 179/5/88 181/5/88 175/5/88 174/5/88
f 181/5/89 182/5/89 176/5/89 175/5/89
f 182/5/90 183/5/90 177/5/90 176/5/90
f 183/5/91 184/5/91 178/5/91 177/5/91
f 184/5/92 180/5/92 173/5/92 178/5/92
f 185/4/107 186/4/107 187/4/107 188/4/107 189/4/107 190/4/107
f 191/4/108 192/4/108 193/4/108 194/4/108 195/4/108 196/4/108
f 190/4/109 189/4/109 197/4/109 198/4/109
f 189/4/110 188/4/110 199/4/110 197/4/110
f 188/4/111 187/4/111 200/4/111 199/4/111
f 187/4/112 186/4/112 201/4/112 200/4/112
f 186/4/113 185/4/113 202/4/113 201/4/113
f 185/4/114 190/4/114 198/4/114 202/4/114
f 198/4/115 197/4/115 192/4/115 191/4/115
f 197/4/116 199/4/116 193/4/116 192/4/116
f 199/4/117 200/4/117 194/4/117 193/4/117
f 200/4/118 201/4/118 195/4/118 194/4/118
f 201/4/119 202/4/119 196/4/119 195/4/119
f 202/4/120 198/4/120 191/4/120 196/4/120
f 203/5/1 204/5/1 205/5/1 206/5/1 207/5/1 208/5/1
f 209/5/34 210/5/34 211/5/34 212/5/34 213/5/34 214/5/34
f 208/5/81 207/5/81 215/5/81 216/5/81
f 207/5/82 206/5/82 217/5/82 215/5/82
f 206/5/83 205/5/83 218/5/83 217/5/83
f 205/5/84 204/5/84 219/5/84 218/5/84
f 204/5/85 203/5/85 220/5/85 219/5/85
f 203/5/86 208/5/86 216/5/86 220/5/86
f 216/5/87 215/5/87 210/5/87 209/5/87
f 215/5/88 217/5/88 211/5/88 210/5/88
f 217/5/89 218/5/89 212/5/89 211/5/89
f 218/5/90 219/5/90 213/5/90 212/5/90
f 219/5/91 220/5/91 214/5/91 213/5/91
f 220/5/92 216/5/92 209/5/92 214/5/92
f 221/4/121 222/4/121 223/4/121 224/4/121 225/4/121 226/4/121
f 227/4/122 228/4/122 229/4/122 230/4/122 231/4/122 232/4/122
f 226/4/123 225/4/123 233/4/123 234/4/123
f 225/4/124 224/4/124 235/4/124 233/4/124
f 224/4/125 223/4/125 236/4/125 235/4/125
f 223/4/126 222/4/126 237/4/126 236/4/126
f 222/4/127 221/4/127 238/4/127 237/4/127
f 221/4/128 226/4/128 234/4/128 238/4/128
f 234/4/129 233/4/129 228/4/129 227/4/129
f 233/4/130 235/4/130 229/4/130 228/4/130
f 235/4/131 236/4/131 230/4/131 229/4/131
f 236/4/132 237/4/132 231/4/132 230/4/132
f 237/4/133 238/4/133 232/4/133 231/4/133
f 238/4/134 234/4/134 227/4/134 232/4/134
f 239/5/1 240/5/1 241/5/1 242/5/1 243/5/1 244/5/1
f 245/5/34 246/5/34 247/5/34 248/5/34 249/5/34 250/5/34
f 244/5/81 243/5/81 251/5/81 252/5/81
f 243/5/82 242/5/82 253/5/82 251/5/82
f 242/5/83 241/5/83 254/5/83 253/5/83
f 241/5/84 240/5/84 255/5/84 254/5/84
f 240/5/85 239/5/85 256/5/85 255/5/85
f 239/5/86 244/5/86 252/5/86 256/5/86
f 252/5/87 251/5/87 246/5/87 245/5/87
f 251/5/88 253/5/88 247/5/88 246/5/88
f 253/5/89 254/5/89 248/5/89 247/5/89
f 254/5/90 255/5/90 249/5/90 248/5/90
f 255/5/91 256/5/91 250/5/91 249/5/91
f 256/5/92 252/5/92 245/5/92 250/5/92
f 257/6/135 258/6/135 259/6/135 260/6/135
f 258/6/1 261/6/1 262/6/1 259/6/1
f 261/6/136 263/6/136 264/6/136 262/6/136
f 263/6/137 265/6/137 266/6/137 264/6/137
f 265/6/34 267/6/34 268/6/34 266/6/34
f 267/6/138 257/6/138 260/6/138 268/6/138
f 260/6/139 259/6/139 269/6/139 270/6/139
f 259/6/1 262/6/1 271/6/1 269/6/1
f 262/6/140 264/6/140 272/6/140 271/6/140
f 264/6/141 266/6/141 273/6/141 272/6/141
f 266/6/34 268/6/34 274/6/34 273/6/34
f 268/6/142 260/6/142 270/6/142 274/6/142
f 270/6/143 269/6/143 275/6/143 276/6/143
f 269/6/1 271/6/1 277/6/1 275/6/1
f 271/6/144 272/6/144 278/6/144 277/6/144
f 272/6/145 273/6/145 279/6/145 278/6/145
f 273/6/34 274/6/34 280/6/34 279/6/34
f 274/6/146 270/6/146 276/6/146 280/6/146
f 276/6/147 275/6/147 281/6/147 282/6/147
f 275/6/1 277/6/1 283/6/1 281/6/1
f 277/6/148 278/6/148 284/6/148 283/6/148
f 278/6/149 279/6/149 285/6/149 284/6/149
f 279/6/34 280/6/34 286/6/34 285/6/34
f 280/6/150 276/6/150 282/6/150 286/6/150
f 282/6/151 281/6/151 287/6/151 288/6/151
f 281/6/1 283/6/1 289/6/1 287/6/1
f 283/6/152 284/6/152 290/6/152 289/6/152
f 284/6/153 285/6/153 291/6/153 290/6/153
f 285/6/34 286/6/34 292/6/34 291/6/34
f 286/6/154 282/6/154 288/6/154 292/6/154
f 288/6/155 287/6/155 293/6/155 294/6/155
f 287/6/1 289/6/1 295/6/1 293/6/1
f 289/6/156 290/6/156 296/6/156 295/6/156
f 290/6/157 291/6/157 297/6/157 296/6/157
f 291/6/34 292/6/34 298/6/34 297/6/34
f 292/6/158 288/6/158 294/6/158 298/6/158
f 294/6/159 293/6/159 299/6/159 300/6/159
f 293/6/1 295/6/1 301/6/1 299/6/1
f 295/6/160 296/6/160 302/6/160 301/6/160
f 296/6/161 297/6/161 303/6/161 302/6/161
f 297/6/34 298/6/34 304/6/34 303/6/34
f 298/6/162 294/6/162 300/6/162 304/6/162
f 300/6/163 299/6/163 305/6/163 306/6/163
f 299/6/1 301/6/1 307/6/1 305/6/1
f 301/6/164 302/6/164 308/6/164 307/6/164
f 302/6/165 303/6/165 309/6/165 308/6/165
f 303/6/34 304/6/34 310/6/34 309/6/34
f 304/6/166 300/6/166 306/6/166 310/6/166
f 306/6/167 305/6/167 311/6/167 312/6/167
f 305/6/1 307/6/1 313/6/1 311/6/1
f 307/6/168 308/6/168 314/6/168 313/6/168
f 308/6/169 309/6/169 315/6/169 314/6/169
f 309/6/34 310/6/34 316/6/34 315/6/34
f 310/6/170 306/6/170 312/6/170 316/6/170
f 312/6/171 311/6/171 317/6/171 318/6/171
f 311/6/1 313/6/1 319/6/1 317/6/1
f 313/6/172 314/6/172 320/6/172 319/6/172
f 314/6/173 315/6/173 321/6/173 320/6/173
f 315/6/34 316/6/34 322/6/34 321/6/34
f 316/6/174 312/6/174 318/6/174 322/6/174
f 318/6/175 317/6/175 323/6/175 324/6/175
f 317/6/1 319/6/1 325/6/1 323/6/1
f 319/6/176 320/6/176 326/6/176 325/6/176
f 320/6/177 321/6/177 327/6/177 326/6/177
f 321/6/34 322/6/34 328/6/34 327/6/34
f 322/6/178 318/6/178 324/6/178 328/6/178
f 324/6/179 323/6/179 329/6/179 330/6/179
f 323/6/1 325/6/1 331/6/1 329/6/1
f 325/6/180 326/6/180 332/6/180 331/6/180
f 326/6/181 327/6/181 333/6/181 332/6/181
f 327/6/34 328/6/34 334/6/34 333/6/34
f 328/6/182 324/6/182 330/6/182 334/6/182
f 330/6/183 329/6/183 335/6/183 336/6/183
f 329/6/1 331/6/1 337/6/1 335/6/1
f 331/6/184 332/6/184 338/6/184 337/6/184
f 332/6/185 333/6/185 339/6/185 338/6/185
f 333/6/34 334/6/34 340/6/34 339/6/34
f 334/6/186 330/6/186 336/6/186 340/6/186
f 336/6/187 335/6/187 341/6/187 342/6/187
f 335/6/1 337/6/1 343/6/1 341/6/1
f 337/6/188 338/6/188 344/6/188 343/6/188
f 338/6/189 339/6/189 345/6/189 344/6/189
f 339/6/34 340/6/34 346/6/34 345/6/34
f 340/6/190 336/6/190 342/6/190 346/6/190
f 342/6/191 341/6/191 347/6/191 348/6/191
f 341/6/1 343/6/1 349/6/1 347/6/1
f 343/6/192 344/6/192 350/6/192 349/6/192
f 344/6/193 345/6/193 351/6/193 350/6/193
f 345/6/34 346/6/34 352/6/34 351/6/34
f 346/6/194 342/6/194 348/6/194 352/6/194
f 348/6/195 347/6/195 353/6/195 354/6/195
f 347/6/1 349/6/1 355/6/1 353/6/1
f 349/6/196 350/6/196 356/6/196 355/6/196
f 350/6/197 351/6/197 357/6/197 356/6/197
f 351/6/34 352/6/34 358/6/34 357/6/34
f 352/6/198 348/6/198 354/6/198 358/6/198
f 354/6/199 353/6/199 359/6/199 360/6/199
f 353/6/1 355/6/1 361/6/1 359/6/1
f 355/6/200 356/6/200 362/6/200 361/6/200
f 356/6/201 357/6/201 363/6/201 362/6/201
f 357/6/34 358/6/34 364/6/34 363/6/34
f 358/6/202 354/6/202 360/6/202 364/6/202
