# Blender 5.2.0 LTS
# www.blender.org
mtllib FN_Shelf_Etagere.mtl
o FN_Shelf_Etagere
v -0.459000 0.000000 0.206000
v -0.459000 0.000000 0.158000
v -0.411000 0.000000 0.158000
v -0.411000 0.000000 0.206000
v -0.459000 0.026000 0.206000
v -0.411000 0.026000 0.206000
v -0.411000 0.026000 0.158000
v -0.459000 0.026000 0.158000
v -0.459000 0.000000 -0.164000
v -0.459000 0.000000 -0.212000
v -0.411000 0.000000 -0.212000
v -0.411000 0.000000 -0.164000
v -0.459000 0.026000 -0.164000
v -0.411000 0.026000 -0.164000
v -0.411000 0.026000 -0.212000
v -0.459000 0.026000 -0.212000
v 0.411000 0.000000 0.206000
v 0.411000 0.000000 0.158000
v 0.459000 0.000000 0.158000
v 0.459000 0.000000 0.206000
v 0.411000 0.026000 0.206000
v 0.459000 0.026000 0.206000
v 0.459000 0.026000 0.158000
v 0.411000 0.026000 0.158000
v 0.411000 0.000000 -0.164000
v 0.411000 0.000000 -0.212000
v 0.459000 0.000000 -0.212000
v 0.459000 0.000000 -0.164000
v 0.411000 0.026000 -0.164000
v 0.459000 0.026000 -0.164000
v 0.459000 0.026000 -0.212000
v 0.411000 0.026000 -0.212000
v -0.453000 0.014000 0.200000
v -0.453000 0.014000 0.164000
v -0.417000 0.014000 0.164000
v -0.417000 0.014000 0.200000
v -0.453000 1.800000 0.200000
v -0.417000 1.800000 0.200000
v -0.417000 1.800000 0.164000
v -0.453000 1.800000 0.164000
v -0.453000 0.014000 -0.170000
v -0.453000 0.014000 -0.206000
v -0.417000 0.014000 -0.206000
v -0.417000 0.014000 -0.170000
v -0.453000 1.800000 -0.170000
v -0.417000 1.800000 -0.170000
v -0.417000 1.800000 -0.206000
v -0.453000 1.800000 -0.206000
v 0.417000 0.014000 0.200000
v 0.417000 0.014000 0.164000
v 0.453000 0.014000 0.164000
v 0.453000 0.014000 0.200000
v 0.417000 1.800000 0.200000
v 0.453000 1.800000 0.200000
v 0.453000 1.800000 0.164000
v 0.417000 1.800000 0.164000
v 0.417000 0.014000 -0.170000
v 0.417000 0.014000 -0.206000
v 0.453000 0.014000 -0.206000
v 0.453000 0.014000 -0.170000
v 0.417000 1.800000 -0.170000
v 0.453000 1.800000 -0.170000
v 0.453000 1.800000 -0.206000
v 0.417000 1.800000 -0.206000
v -0.465000 0.148000 0.212000
v -0.465000 0.148000 -0.189000
v 0.465000 0.148000 -0.189000
v 0.465000 0.148000 0.212000
v -0.465000 0.180000 0.212000
v 0.465000 0.180000 0.212000
v 0.465000 0.180000 -0.189000
v -0.465000 0.180000 -0.189000
v -0.465000 0.508000 0.212000
v -0.465000 0.508000 -0.189000
v 0.465000 0.508000 -0.189000
v 0.465000 0.508000 0.212000
v -0.465000 0.540000 0.212000
v 0.465000 0.540000 0.212000
v 0.465000 0.540000 -0.189000
v -0.465000 0.540000 -0.189000
v -0.465000 0.868000 0.212000
v -0.465000 0.868000 -0.189000
v 0.465000 0.868000 -0.189000
v 0.465000 0.868000 0.212000
v -0.465000 0.900000 0.212000
v 0.465000 0.900000 0.212000
v 0.465000 0.900000 -0.189000
v -0.465000 0.900000 -0.189000
v -0.465000 1.228000 0.212000
v -0.465000 1.228000 -0.189000
v 0.465000 1.228000 -0.189000
v 0.465000 1.228000 0.212000
v -0.465000 1.260000 0.212000
v 0.465000 1.260000 0.212000
v 0.465000 1.260000 -0.189000
v -0.465000 1.260000 -0.189000
v -0.465000 1.588000 0.212000
v -0.465000 1.588000 -0.189000
v 0.465000 1.588000 -0.189000
v 0.465000 1.588000 0.212000
v -0.465000 1.620000 0.212000
v 0.465000 1.620000 0.212000
v 0.465000 1.620000 -0.189000
v -0.465000 1.620000 -0.189000
v -0.417882 0.179658 -0.193000
v 0.452118 1.619658 -0.193000
v 0.417882 1.640342 -0.193000
v -0.452118 0.200342 -0.193000
v -0.452118 0.200342 -0.203000
v 0.417882 1.640342 -0.203000
v 0.452118 1.619658 -0.203000
v -0.417882 0.179658 -0.203000
v -0.452118 1.619658 -0.201000
v 0.417882 0.179658 -0.201000
v 0.452118 0.200342 -0.201000
v -0.417882 1.640342 -0.201000
v -0.417882 1.640342 -0.211000
v 0.452118 0.200342 -0.211000
v 0.417882 0.179658 -0.211000
v -0.452118 1.619658 -0.211000
vn -0.0000 -1.0000 -0.0000
vn -0.0000 1.0000 -0.0000
vn -0.0000 -0.0000 1.0000
vn -0.0000 -0.0000 -1.0000
vn -1.0000 -0.0000 -0.0000
vn 1.0000 -0.0000 -0.0000
vn -0.8559 0.5171 -0.0000
vn 0.5171 0.8559 -0.0000
vn 0.8559 -0.5171 -0.0000
vn -0.5171 -0.8559 -0.0000
vn 0.8559 0.5171 -0.0000
vn 0.5171 -0.8559 -0.0000
vn -0.8559 -0.5171 -0.0000
vn -0.5171 0.8559 -0.0000
vt 0.812500 0.312500
vt 0.562500 0.937500
s 0
usemtl FN_Atlas
f 1/1/1 2/1/1 3/1/1 4/1/1
f 5/1/2 6/1/2 7/1/2 8/1/2
f 1/1/3 4/1/3 6/1/3 5/1/3
f 3/1/4 2/1/4 8/1/4 7/1/4
f 1/1/5 5/1/5 8/1/5 2/1/5
f 4/1/6 3/1/6 7/1/6 6/1/6
f 9/1/1 10/1/1 11/1/1 12/1/1
f 13/1/2 14/1/2 15/1/2 16/1/2
f 9/1/3 12/1/3 14/1/3 13/1/3
f 11/1/4 10/1/4 16/1/4 15/1/4
f 9/1/5 13/1/5 16/1/5 10/1/5
f 12/1/6 11/1/6 15/1/6 14/1/6
f 17/1/1 18/1/1 19/1/1 20/1/1
f 21/1/2 22/1/2 23/1/2 24/1/2
f 17/1/3 20/1/3 22/1/3 21/1/3
f 19/1/4 18/1/4 24/1/4 23/1/4
f 17/1/5 21/1/5 24/1/5 18/1/5
f 20/1/6 19/1/6 23/1/6 22/1/6
f 25/1/1 26/1/1 27/1/1 28/1/1
f 29/1/2 30/1/2 31/1/2 32/1/2
f 25/1/3 28/1/3 30/1/3 29/1/3
f 27/1/4 26/1/4 32/1/4 31/1/4
f 25/1/5 29/1/5 32/1/5 26/1/5
f 28/1/6 27/1/6 31/1/6 30/1/6
f 33/1/1 34/1/1 35/1/1 36/1/1
f 37/1/2 38/1/2 39/1/2 40/1/2
f 33/1/3 36/1/3 38/1/3 37/1/3
f 35/1/4 34/1/4 40/1/4 39/1/4
f 33/1/5 37/1/5 40/1/5 34/1/5
f 36/1/6 35/1/6 39/1/6 38/1/6
f 41/1/1 42/1/1 43/1/1 44/1/1
f 45/1/2 46/1/2 47/1/2 48/1/2
f 41/1/3 44/1/3 46/1/3 45/1/3
f 43/1/4 42/1/4 48/1/4 47/1/4
f 41/1/5 45/1/5 48/1/5 42/1/5
f 44/1/6 43/1/6 47/1/6 46/1/6
f 49/1/1 50/1/1 51/1/1 52/1/1
f 53/1/2 54/1/2 55/1/2 56/1/2
f 49/1/3 52/1/3 54/1/3 53/1/3
f 51/1/4 50/1/4 56/1/4 55/1/4
f 49/1/5 53/1/5 56/1/5 50/1/5
f 52/1/6 51/1/6 55/1/6 54/1/6
f 57/1/1 58/1/1 59/1/1 60/1/1
f 61/1/2 62/1/2 63/1/2 64/1/2
f 57/1/3 60/1/3 62/1/3 61/1/3
f 59/1/4 58/1/4 64/1/4 63/1/4
f 57/1/5 61/1/5 64/1/5 58/1/5
f 60/1/6 59/1/6 63/1/6 62/1/6
f 65/2/1 66/2/1 67/2/1 68/2/1
f 69/2/2 70/2/2 71/2/2 72/2/2
f 65/2/3 68/2/3 70/2/3 69/2/3
f 67/2/4 66/2/4 72/2/4 71/2/4
f 65/2/5 69/2/5 72/2/5 66/2/5
f 68/2/6 67/2/6 71/2/6 70/2/6
f 73/2/1 74/2/1 75/2/1 76/2/1
f 77/2/2 78/2/2 79/2/2 80/2/2
f 73/2/3 76/2/3 78/2/3 77/2/3
f 75/2/4 74/2/4 80/2/4 79/2/4
f 73/2/5 77/2/5 80/2/5 74/2/5
f 76/2/6 75/2/6 79/2/6 78/2/6
f 81/2/1 82/2/1 83/2/1 84/2/1
f 85/2/2 86/2/2 87/2/2 88/2/2
f 81/2/3 84/2/3 86/2/3 85/2/3
f 83/2/4 82/2/4 88/2/4 87/2/4
f 81/2/5 85/2/5 88/2/5 82/2/5
f 84/2/6 83/2/6 87/2/6 86/2/6
f 89/2/1 90/2/1 91/2/1 92/2/1
f 93/2/2 94/2/2 95/2/2 96/2/2
f 89/2/3 92/2/3 94/2/3 93/2/3
f 91/2/4 90/2/4 96/2/4 95/2/4
f 89/2/5 93/2/5 96/2/5 90/2/5
f 92/2/6 91/2/6 95/2/6 94/2/6
f 97/2/1 98/2/1 99/2/1 100/2/1
f 101/2/2 102/2/2 103/2/2 104/2/2
f 97/2/3 100/2/3 102/2/3 101/2/3
f 99/2/4 98/2/4 104/2/4 103/2/4
f 97/2/5 101/2/5 104/2/5 98/2/5
f 100/2/6 99/2/6 103/2/6 102/2/6
f 105/1/3 106/1/3 107/1/3 108/1/3
f 109/1/4 110/1/4 111/1/4 112/1/4
f 108/1/7 107/1/7 110/1/7 109/1/7
f 107/1/8 106/1/8 111/1/8 110/1/8
f 106/1/9 105/1/9 112/1/9 111/1/9
f 105/1/10 108/1/10 109/1/10 112/1/10
f 113/1/3 114/1/3 115/1/3 116/1/3
f 117/1/4 118/1/4 119/1/4 120/1/4
f 116/1/11 115/1/11 118/1/11 117/1/11
f 115/1/12 114/1/12 119/1/12 118/1/12
f 114/1/13 113/1/13 120/1/13 119/1/13
f 113/1/14 116/1/14 117/1/14 120/1/14
