# Blender 5.2.0 LTS
# www.blender.org
mtllib FN_Screen_Folding.mtl
o FN_Screen_Folding
v -0.592279 0.000000 -0.152881
v -0.525980 0.000000 -0.108681
v -0.542620 0.000000 -0.083719
v -0.608921 0.000000 -0.127919
v -0.608921 1.700000 -0.127919
v -0.542620 1.700000 -0.083719
v -0.525980 1.700000 -0.108681
v -0.592279 1.700000 -0.152881
v -0.237379 0.000000 0.083719
v -0.171080 0.000000 0.127919
v -0.187721 0.000000 0.152881
v -0.254021 0.000000 0.108681
v -0.254021 1.700000 0.108681
v -0.187721 1.700000 0.152881
v -0.171080 1.700000 0.127919
v -0.237379 1.700000 0.083719
v -0.529880 0.000000 -0.111281
v -0.233479 0.000000 0.086319
v -0.250120 0.000000 0.111281
v -0.546521 0.000000 -0.086319
v -0.546521 0.120000 -0.086319
v -0.250120 0.120000 0.111281
v -0.233479 0.120000 0.086319
v -0.529880 0.120000 -0.111281
v -0.529880 0.820000 -0.111281
v -0.233479 0.820000 0.086319
v -0.250120 0.820000 0.111281
v -0.546521 0.820000 -0.086319
v -0.546521 0.880000 -0.086319
v -0.250120 0.880000 0.111281
v -0.233479 0.880000 0.086319
v -0.529880 0.880000 -0.111281
v -0.529880 1.580000 -0.111281
v -0.233479 1.580000 0.086319
v -0.250120 1.580000 0.111281
v -0.546521 1.580000 -0.086319
v -0.546521 1.700000 -0.086319
v -0.250120 1.700000 0.111281
v -0.233479 1.700000 0.086319
v -0.529880 1.700000 -0.111281
v -0.533208 0.110000 -0.106288
v -0.236808 0.110000 0.091312
v -0.246792 0.110000 0.106288
v -0.543192 0.110000 -0.091312
v -0.543192 0.830000 -0.091312
v -0.246792 0.830000 0.106288
v -0.236808 0.830000 0.091312
v -0.533208 0.830000 -0.106288
v -0.533208 0.870000 -0.106288
v -0.236808 0.870000 0.091312
v -0.246792 0.870000 0.106288
v -0.543192 0.870000 -0.091312
v -0.543192 1.590000 -0.091312
v -0.246792 1.590000 0.106288
v -0.236808 1.590000 0.091312
v -0.533208 1.590000 -0.106288
v -0.218920 0.000000 0.127919
v -0.152621 0.000000 0.083719
v -0.135980 0.000000 0.108681
v -0.202279 0.000000 0.152881
v -0.202279 1.700000 0.152881
v -0.135980 1.700000 0.108681
v -0.152621 1.700000 0.083719
v -0.218920 1.700000 0.127919
v 0.135980 0.000000 -0.108681
v 0.202279 0.000000 -0.152881
v 0.218920 0.000000 -0.127919
v 0.152621 0.000000 -0.083719
v 0.152621 1.700000 -0.083719
v 0.218920 1.700000 -0.127919
v 0.202279 1.700000 -0.152881
v 0.135980 1.700000 -0.108681
v -0.156521 0.000000 0.086319
v 0.139879 0.000000 -0.111281
v 0.156521 0.000000 -0.086319
v -0.139879 0.000000 0.111281
v -0.139879 0.120000 0.111281
v 0.156521 0.120000 -0.086319
v 0.139879 0.120000 -0.111281
v -0.156521 0.120000 0.086319
v -0.156521 0.820000 0.086319
v 0.139879 0.820000 -0.111281
v 0.156521 0.820000 -0.086319
v -0.139879 0.820000 0.111281
v -0.139879 0.880000 0.111281
v 0.156521 0.880000 -0.086319
v 0.139879 0.880000 -0.111281
v -0.156521 0.880000 0.086319
v -0.156521 1.580000 0.086319
v 0.139879 1.580000 -0.111281
v 0.156521 1.580000 -0.086319
v -0.139879 1.580000 0.111281
v -0.139879 1.700000 0.111281
v 0.156521 1.700000 -0.086319
v 0.139879 1.700000 -0.111281
v -0.156521 1.700000 0.086319
v -0.153192 0.110000 0.091312
v 0.143208 0.110000 -0.106288
v 0.153192 0.110000 -0.091312
v -0.143208 0.110000 0.106288
v -0.143208 0.830000 0.106288
v 0.153192 0.830000 -0.091312
v 0.143208 0.830000 -0.106288
v -0.153192 0.830000 0.091312
v -0.153192 0.870000 0.091312
v 0.143208 0.870000 -0.106288
v 0.153192 0.870000 -0.091312
v -0.143208 0.870000 0.106288
v -0.143208 1.590000 0.106288
v 0.153192 1.590000 -0.091312
v 0.143208 1.590000 -0.106288
v -0.153192 1.590000 0.091312
v 0.187721 0.000000 -0.152881
v 0.254021 0.000000 -0.108681
v 0.237379 0.000000 -0.083719
v 0.171080 0.000000 -0.127919
v 0.171080 1.700000 -0.127919
v 0.237379 1.700000 -0.083719
v 0.254021 1.700000 -0.108681
v 0.187721 1.700000 -0.152881
v 0.542620 0.000000 0.083719
v 0.608921 0.000000 0.127919
v 0.592279 0.000000 0.152881
v 0.525980 0.000000 0.108681
v 0.525980 1.700000 0.108681
v 0.592279 1.700000 0.152881
v 0.608921 1.700000 0.127919
v 0.542620 1.700000 0.083719
v 0.250120 0.000000 -0.111281
v 0.546521 0.000000 0.086319
v 0.529880 0.000000 0.111281
v 0.233479 0.000000 -0.086319
v 0.233479 0.120000 -0.086319
v 0.529880 0.120000 0.111281
v 0.546521 0.120000 0.086319
v 0.250120 0.120000 -0.111281
v 0.250120 0.820000 -0.111281
v 0.546521 0.820000 0.086319
v 0.529880 0.820000 0.111281
v 0.233479 0.820000 -0.086319
v 0.233479 0.880000 -0.086319
v 0.529880 0.880000 0.111281
v 0.546521 0.880000 0.086319
v 0.250120 0.880000 -0.111281
v 0.250120 1.580000 -0.111281
v 0.546521 1.580000 0.086319
v 0.529880 1.580000 0.111281
v 0.233479 1.580000 -0.086319
v 0.233479 1.700000 -0.086319
v 0.529880 1.700000 0.111281
v 0.546521 1.700000 0.086319
v 0.250120 1.700000 -0.111281
v 0.246792 0.110000 -0.106288
v 0.543192 0.110000 0.091312
v 0.533208 0.110000 0.106288
v 0.236808 0.110000 -0.091312
v 0.236808 0.830000 -0.091312
v 0.533208 0.830000 0.106288
v 0.543192 0.830000 0.091312
v 0.246792 0.830000 -0.106288
v 0.246792 0.870000 -0.106288
v 0.543192 0.870000 0.091312
v 0.533208 0.870000 0.106288
v 0.236808 0.870000 -0.091312
v 0.236808 1.590000 -0.091312
v 0.533208 1.590000 0.106288
v 0.543192 1.590000 0.091312
v 0.246792 1.590000 -0.106288
vn -0.0000 -1.0000 -0.0000
vn -0.0000 1.0000 -0.0000
vn -0.5547 -0.0000 0.8321
vn 0.8321 -0.0000 0.5547
vn 0.5547 -0.0000 -0.8321
vn -0.8320 -0.0000 -0.5547
vn -0.8321 -0.0000 -0.5547
vn 0.5547 -0.0000 0.8321
vn 0.8321 -0.0000 -0.5547
vn -0.5547 -0.0000 -0.8321
vn -0.8321 -0.0000 0.5547
vn 0.8320 -0.0000 0.5547
vt 0.687500 0.937500
vt 0.687500 0.187500
s 0
usemtl FN_Atlas
f 1/1/1 2/1/1 3/1/1 4/1/1
f 5/1/2 6/1/2 7/1/2 8/1/2
f 4/1/3 3/1/3 6/1/3 5/1/3
f 3/1/4 2/1/4 7/1/4 6/1/4
f 2/1/5 1/1/5 8/1/5 7/1/5
f 1/1/6 4/1/6 5/1/6 8/1/6
f 9/1/1 10/1/1 11/1/1 12/1/1
f 13/1/2 14/1/2 15/1/2 16/1/2
f 12/1/3 11/1/3 14/1/3 13/1/3
f 11/1/4 10/1/4 15/1/4 14/1/4
f 10/1/5 9/1/5 16/1/5 15/1/5
f 9/1/7 12/1/7 13/1/7 16/1/7
f 17/1/1 18/1/1 19/1/1 20/1/1
f 21/1/2 22/1/2 23/1/2 24/1/2
f 20/1/3 19/1/3 22/1/3 21/1/3
f 19/1/4 18/1/4 23/1/4 22/1/4
f 18/1/5 17/1/5 24/1/5 23/1/5
f 17/1/7 20/1/7 21/1/7 24/1/7
f 25/1/1 26/1/1 27/1/1 28/1/1
f 29/1/2 30/1/2 31/1/2 32/1/2
f 28/1/3 27/1/3 30/1/3 29/1/3
f 27/1/4 26/1/4 31/1/4 30/1/4
f 26/1/5 25/1/5 32/1/5 31/1/5
f 25/1/6 28/1/6 29/1/6 32/1/6
f 33/1/1 34/1/1 35/1/1 36/1/1
f 37/1/2 38/1/2 39/1/2 40/1/2
f 36/1/3 35/1/3 38/1/3 37/1/3
f 35/1/4 34/1/4 39/1/4 38/1/4
f 34/1/5 33/1/5 40/1/5 39/1/5
f 33/1/6 36/1/6 37/1/6 40/1/6
f 41/2/1 42/2/1 43/2/1 44/2/1
f 45/2/2 46/2/2 47/2/2 48/2/2
f 44/2/3 43/2/3 46/2/3 45/2/3
f 43/2/4 42/2/4 47/2/4 46/2/4
f 42/2/5 41/2/5 48/2/5 47/2/5
f 41/2/6 44/2/6 45/2/6 48/2/6
f 49/2/1 50/2/1 51/2/1 52/2/1
f 53/2/2 54/2/2 55/2/2 56/2/2
f 52/2/3 51/2/3 54/2/3 53/2/3
f 51/2/4 50/2/4 55/2/4 54/2/4
f 50/2/5 49/2/5 56/2/5 55/2/5
f 49/2/7 52/2/7 53/2/7 56/2/7
f 57/1/1 58/1/1 59/1/1 60/1/1
f 61/1/2 62/1/2 63/1/2 64/1/2
f 60/1/8 59/1/8 62/1/8 61/1/8
f 59/1/9 58/1/9 63/1/9 62/1/9
f 58/1/10 57/1/10 64/1/10 63/1/10
f 57/1/11 60/1/11 61/1/11 64/1/11
f 65/1/1 66/1/1 67/1/1 68/1/1
f 69/1/2 70/1/2 71/1/2 72/1/2
f 68/1/8 67/1/8 70/1/8 69/1/8
f 67/1/9 66/1/9 71/1/9 70/1/9
f 66/1/10 65/1/10 72/1/10 71/1/10
f 65/1/11 68/1/11 69/1/11 72/1/11
f 73/1/1 74/1/1 75/1/1 76/1/1
f 77/1/2 78/1/2 79/1/2 80/1/2
f 76/1/8 75/1/8 78/1/8 77/1/8
f 75/1/9 74/1/9 79/1/9 78/1/9
f 74/1/10 73/1/10 80/1/10 79/1/10
f 73/1/11 76/1/11 77/1/11 80/1/11
f 81/1/1 82/1/1 83/1/1 84/1/1
f 85/1/2 86/1/2 87/1/2 88/1/2
f 84/1/8 83/1/8 86/1/8 85/1/8
f 83/1/9 82/1/9 87/1/9 86/1/9
f 82/1/10 81/1/10 88/1/10 87/1/10
f 81/1/11 84/1/11 85/1/11 88/1/11
f 89/1/1 90/1/1 91/1/1 92/1/1
f 93/1/2 94/1/2 95/1/2 96/1/2
f 92/1/8 91/1/8 94/1/8 93/1/8
f 91/1/9 90/1/9 95/1/9 94/1/9
f 90/1/10 89/1/10 96/1/10 95/1/10
f 89/1/11 92/1/11 93/1/11 96/1/11
f 97/2/1 98/2/1 99/2/1 100/2/1
f 101/2/2 102/2/2 103/2/2 104/2/2
f 100/2/8 99/2/8 102/2/8 101/2/8
f 99/2/9 98/2/9 103/2/9 102/2/9
f 98/2/10 97/2/10 104/2/10 103/2/10
f 97/2/11 100/2/11 101/2/11 104/2/11
f 105/2/1 106/2/1 107/2/1 108/2/1
f 109/2/2 110/2/2 111/2/2 112/2/2
f 108/2/8 107/2/8 110/2/8 109/2/8
f 107/2/9 106/2/9 111/2/9 110/2/9
f 106/2/10 105/2/10 112/2/10 111/2/10
f 105/2/11 108/2/11 109/2/11 112/2/11
f 113/1/1 114/1/1 115/1/1 116/1/1
f 117/1/2 118/1/2 119/1/2 120/1/2
f 116/1/3 115/1/3 118/1/3 117/1/3
f 115/1/4 114/1/4 119/1/4 118/1/4
f 114/1/5 113/1/5 120/1/5 119/1/5
f 113/1/7 116/1/7 117/1/7 120/1/7
f 121/1/1 122/1/1 123/1/1 124/1/1
f 125/1/2 126/1/2 127/1/2 128/1/2
f 124/1/3 123/1/3 126/1/3 125/1/3
f 123/1/12 122/1/12 127/1/12 126/1/12
f 122/1/5 121/1/5 128/1/5 127/1/5
f 121/1/7 124/1/7 125/1/7 128/1/7
f 129/1/1 130/1/1 131/1/1 132/1/1
f 133/1/2 134/1/2 135/1/2 136/1/2
f 132/1/3 131/1/3 134/1/3 133/1/3
f 131/1/4 130/1/4 135/1/4 134/1/4
f 130/1/5 129/1/5 136/1/5 135/1/5
f 129/1/7 132/1/7 133/1/7 136/1/7
f 137/1/1 138/1/1 139/1/1 140/1/1
f 141/1/2 142/1/2 143/1/2 144/1/2
f 140/1/3 139/1/3 142/1/3 141/1/3
f 139/1/12 138/1/12 143/1/12 142/1/12
f 138/1/5 137/1/5 144/1/5 143/1/5
f 137/1/7 140/1/7 141/1/7 144/1/7
f 145/1/1 146/1/1 147/1/1 148/1/1
f 149/1/2 150/1/2 151/1/2 152/1/2
f 148/1/3 147/1/3 150/1/3 149/1/3
f 147/1/12 146/1/12 151/1/12 150/1/12
f 146/1/5 145/1/5 152/1/5 151/1/5
f 145/1/7 148/1/7 149/1/7 152/1/7
f 153/2/1 154/2/1 155/2/1 156/2/1
f 157/2/2 158/2/2 159/2/2 160/2/2
f 156/2/3 155/2/3 158/2/3 157/2/3
f 155/2/12 154/2/12 159/2/12 158/2/12
f 154/2/5 153/2/5 160/2/5 159/2/5
f 153/2/7 156/2/7 157/2/7 160/2/7
f 161/2/1 162/2/1 163/2/1 164/2/1
f 165/2/2 166/2/2 167/2/2 168/2/2
f 164/2/3 163/2/3 166/2/3 165/2/3
f 163/2/4 162/2/4 167/2/4 166/2/4
f 162/2/5 161/2/5 168/2/5 167/2/5
f 161/2/7 164/2/7 165/2/7 168/2/7
