# Blender 5.2.0 LTS
# www.blender.org
mtllib FN_Table_Dining.mtl
o FN_Table_Dining
v -0.793027 0.700000 -0.446078
v 0.793027 0.700000 -0.446078
v 0.793027 0.700000 0.446078
v -0.793027 0.700000 0.446078
v 0.800000 0.708000 0.450000
v -0.800000 0.708000 0.450000
v 0.800000 0.708000 -0.450000
v -0.800000 0.708000 -0.450000
v 0.800000 0.732000 0.450000
v -0.800000 0.732000 0.450000
v 0.800000 0.732000 -0.450000
v -0.800000 0.732000 -0.450000
v -0.793027 0.740000 0.446078
v 0.793027 0.740000 0.446078
v 0.793027 0.740000 -0.446078
v -0.793027 0.740000 -0.446078
v -0.728000 0.620000 0.378000
v -0.728000 0.620000 0.354000
v 0.728000 0.620000 0.354000
v 0.728000 0.620000 0.378000
v -0.728000 0.700000 0.378000
v 0.728000 0.700000 0.378000
v 0.728000 0.700000 0.354000
v -0.728000 0.700000 0.354000
v -0.728000 0.620000 -0.354000
v -0.728000 0.620000 -0.378000
v 0.728000 0.620000 -0.378000
v 0.728000 0.620000 -0.354000
v -0.728000 0.700000 -0.354000
v 0.728000 0.700000 -0.354000
v 0.728000 0.700000 -0.378000
v -0.728000 0.700000 -0.378000
v -0.704000 0.620000 -0.354000
v -0.704000 0.620000 0.354000
v -0.704000 0.700000 0.354000
v -0.704000 0.700000 -0.354000
v 0.704000 0.620000 0.354000
v 0.704000 0.620000 -0.354000
v 0.704000 0.700000 0.354000
v 0.704000 0.700000 -0.354000
v -0.729000 0.620000 0.379000
v -0.729000 0.620000 0.354000
v 0.729000 0.620000 0.354000
v 0.729000 0.620000 0.379000
v -0.729000 0.630000 0.379000
v 0.729000 0.630000 0.379000
v 0.729000 0.630000 0.354000
v -0.729000 0.630000 0.354000
v -0.729000 0.620000 -0.354000
v -0.729000 0.620000 -0.379000
v 0.729000 0.620000 -0.379000
v 0.729000 0.620000 -0.354000
v -0.729000 0.630000 -0.354000
v 0.729000 0.630000 -0.354000
v 0.729000 0.630000 -0.379000
v -0.729000 0.630000 -0.379000
v -0.704000 0.630000 0.354000
v -0.704000 0.630000 -0.354000
v 0.704000 0.630000 0.354000
v 0.704000 0.630000 -0.354000
v -0.741000 0.000000 0.353000
v -0.703000 0.000000 0.353000
v -0.703000 0.000000 0.391000
v -0.741000 0.000000 0.391000
v -0.750000 0.700000 0.400000
v -0.694000 0.700000 0.400000
v -0.694000 0.700000 0.344000
v -0.750000 0.700000 0.344000
v -0.741000 0.000000 -0.391000
v -0.703000 0.000000 -0.391000
v -0.703000 0.000000 -0.353000
v -0.741000 0.000000 -0.353000
v -0.750000 0.700000 -0.344000
v -0.694000 0.700000 -0.344000
v -0.694000 0.700000 -0.400000
v -0.750000 0.700000 -0.400000
v 0.703000 0.000000 0.353000
v 0.741000 0.000000 0.353000
v 0.741000 0.000000 0.391000
v 0.703000 0.000000 0.391000
v 0.694000 0.700000 0.400000
v 0.750000 0.700000 0.400000
v 0.750000 0.700000 0.344000
v 0.694000 0.700000 0.344000
v 0.703000 0.000000 -0.391000
v 0.741000 0.000000 -0.391000
v 0.741000 0.000000 -0.353000
v 0.703000 0.000000 -0.353000
v 0.694000 0.700000 -0.344000
v 0.750000 0.700000 -0.344000
v 0.750000 0.700000 -0.400000
v 0.694000 0.700000 -0.400000
vn -0.0000 -1.0000 -0.0000
vn -0.0000 -0.4402 0.8979
vn 0.7539 -0.6570 -0.0000
vn -0.0000 -0.4402 -0.8979
vn -0.7539 -0.6570 -0.0000
vn -0.0000 -0.0000 1.0000
vn 1.0000 -0.0000 -0.0000
vn -0.0000 -0.0000 -1.0000
vn -1.0000 -0.0000 -0.0000
vn -0.0000 1.0000 -0.0000
vn -0.0000 0.4402 0.8979
vn 0.7539 0.6570 -0.0000
vn -0.0000 0.4402 -0.8979
vn -0.7539 0.6570 -0.0000
vn -0.0000 -0.0129 0.9999
vn 0.9999 -0.0129 -0.0000
vn -0.0000 -0.0129 -0.9999
vn -0.9999 -0.0129 -0.0000
vt 0.687500 0.937500
vt 0.437500 0.937500
s 0
usemtl FN_Atlas
f 1/1/1 2/1/1 3/1/1 4/1/1
f 4/1/2 3/1/2 5/1/2 6/1/2
f 3/1/3 2/1/3 7/1/3 5/1/3
f 2/1/4 1/1/4 8/1/4 7/1/4
f 1/1/5 4/1/5 6/1/5 8/1/5
f 6/1/6 5/1/6 9/1/6 10/1/6
f 5/1/7 7/1/7 11/1/7 9/1/7
f 7/1/8 8/1/8 12/1/8 11/1/8
f 8/1/9 6/1/9 10/1/9 12/1/9
f 13/2/10 14/2/10 15/2/10 16/2/10
f 10/1/11 9/1/11 14/1/11 13/1/11
f 9/1/12 11/1/12 15/1/12 14/1/12
f 11/1/13 12/1/13 16/1/13 15/1/13
f 12/1/14 10/1/14 13/1/14 16/1/14
f 17/2/1 18/2/1 19/2/1 20/2/1
f 21/2/10 22/2/10 23/2/10 24/2/10
f 17/2/6 20/2/6 22/2/6 21/2/6
f 19/2/8 18/2/8 24/2/8 23/2/8
f 17/2/9 21/2/9 24/2/9 18/2/9
f 20/2/7 19/2/7 23/2/7 22/2/7
f 25/2/1 26/2/1 27/2/1 28/2/1
f 29/2/10 30/2/10 31/2/10 32/2/10
f 25/2/6 28/2/6 30/2/6 29/2/6
f 27/2/8 26/2/8 32/2/8 31/2/8
f 25/2/9 29/2/9 32/2/9 26/2/9
f 28/2/7 27/2/7 31/2/7 30/2/7
f 18/2/1 25/2/1 33/2/1 34/2/1
f 24/2/10 35/2/10 36/2/10 29/2/10
f 18/2/6 34/2/6 35/2/6 24/2/6
f 33/2/8 25/2/8 29/2/8 36/2/8
f 18/2/9 24/2/9 29/2/9 25/2/9
f 34/2/7 33/2/7 36/2/7 35/2/7
f 37/2/1 38/2/1 28/2/1 19/2/1
f 39/2/10 23/2/10 30/2/10 40/2/10
f 37/2/6 19/2/6 23/2/6 39/2/6
f 28/2/8 38/2/8 40/2/8 30/2/8
f 37/2/9 39/2/9 40/2/9 38/2/9
f 19/2/7 28/2/7 30/2/7 23/2/7
f 41/1/1 42/1/1 43/1/1 44/1/1
f 45/1/10 46/1/10 47/1/10 48/1/10
f 41/1/6 44/1/6 46/1/6 45/1/6
f 43/1/8 42/1/8 48/1/8 47/1/8
f 41/1/9 45/1/9 48/1/9 42/1/9
f 44/1/7 43/1/7 47/1/7 46/1/7
f 49/1/1 50/1/1 51/1/1 52/1/1
f 53/1/10 54/1/10 55/1/10 56/1/10
f 49/1/6 52/1/6 54/1/6 53/1/6
f 51/1/8 50/1/8 56/1/8 55/1/8
f 49/1/9 53/1/9 56/1/9 50/1/9
f 52/1/7 51/1/7 55/1/7 54/1/7
f 42/1/1 49/1/1 33/1/1 34/1/1
f 48/1/10 57/1/10 58/1/10 53/1/10
f 42/1/6 34/1/6 57/1/6 48/1/6
f 33/1/8 49/1/8 53/1/8 58/1/8
f 42/1/9 48/1/9 53/1/9 49/1/9
f 34/1/7 33/1/7 58/1/7 57/1/7
f 37/1/1 38/1/1 52/1/1 43/1/1
f 59/1/10 47/1/10 54/1/10 60/1/10
f 37/1/6 43/1/6 47/1/6 59/1/6
f 52/1/8 38/1/8 60/1/8 54/1/8
f 37/1/9 59/1/9 60/1/9 38/1/9
f 43/1/7 52/1/7 54/1/7 47/1/7
f 61/2/1 62/2/1 63/2/1 64/2/1
f 65/2/10 66/2/10 67/2/10 68/2/10
f 64/2/15 63/2/15 66/2/15 65/2/15
f 63/2/16 62/2/16 67/2/16 66/2/16
f 62/2/17 61/2/17 68/2/17 67/2/17
f 61/2/18 64/2/18 65/2/18 68/2/18
f 69/2/1 70/2/1 71/2/1 72/2/1
f 73/2/10 74/2/10 75/2/10 76/2/10
f 72/2/15 71/2/15 74/2/15 73/2/15
f 71/2/16 70/2/16 75/2/16 74/2/16
f 70/2/17 69/2/17 76/2/17 75/2/17
f 69/2/18 72/2/18 73/2/18 76/2/18
f 77/2/1 78/2/1 79/2/1 80/2/1
f 81/2/10 82/2/10 83/2/10 84/2/10
f 80/2/15 79/2/15 82/2/15 81/2/15
f 79/2/16 78/2/16 83/2/16 82/2/16
f 78/2/17 77/2/17 84/2/17 83/2/17
f 77/2/18 80/2/18 81/2/18 84/2/18
f 85/2/1 86/2/1 87/2/1 88/2/1
f 89/2/10 90/2/10 91/2/10 92/2/10
f 88/2/15 87/2/15 90/2/15 89/2/15
f 87/2/16 86/2/16 91/2/16 90/2/16
f 86/2/17 85/2/17 92/2/17 91/2/17
f 85/2/18 88/2/18 89/2/18 92/2/18
