# Blender 5.2.0 LTS
# www.blender.org
mtllib FN_Table_Demilune.mtl
o FN_Table_Demilune
v -0.401000 0.000000 -0.169000
v -0.401000 0.000000 -0.211000
v -0.359000 0.000000 -0.211000
v -0.359000 0.000000 -0.169000
v -0.401000 0.020000 -0.169000
v -0.359000 0.020000 -0.169000
v -0.359000 0.020000 -0.211000
v -0.401000 0.020000 -0.211000
v -0.395000 0.014000 -0.205000
v -0.365000 0.014000 -0.205000
v -0.365000 0.014000 -0.175000
v -0.395000 0.014000 -0.175000
v -0.404000 0.700000 -0.166000
v -0.356000 0.700000 -0.166000
v -0.356000 0.700000 -0.214000
v -0.404000 0.700000 -0.214000
v 0.359000 0.000000 -0.169000
v 0.359000 0.000000 -0.211000
v 0.401000 0.000000 -0.211000
v 0.401000 0.000000 -0.169000
v 0.359000 0.020000 -0.169000
v 0.401000 0.020000 -0.169000
v 0.401000 0.020000 -0.211000
v 0.359000 0.020000 -0.211000
v 0.365000 0.014000 -0.205000
v 0.395000 0.014000 -0.205000
v 0.395000 0.014000 -0.175000
v 0.365000 0.014000 -0.175000
v 0.356000 0.700000 -0.166000
v 0.404000 0.700000 -0.166000
v 0.404000 0.700000 -0.214000
v 0.356000 0.700000 -0.214000
v -0.021000 0.000000 0.181000
v -0.021000 0.000000 0.139000
v 0.021000 0.000000 0.139000
v 0.021000 0.000000 0.181000
v -0.021000 0.020000 0.181000
v 0.021000 0.020000 0.181000
v 0.021000 0.020000 0.139000
v -0.021000 0.020000 0.139000
v -0.015000 0.014000 0.145000
v 0.015000 0.014000 0.145000
v 0.015000 0.014000 0.175000
v -0.015000 0.014000 0.175000
v -0.024000 0.700000 0.184000
v 0.024000 0.700000 0.184000
v 0.024000 0.700000 0.136000
v -0.024000 0.700000 0.136000
v 0.422000 0.668000 -0.225000
v 0.407621 0.668000 -0.115778
v 0.365463 0.668000 -0.014000
v 0.298399 0.668000 0.073399
v 0.211000 0.668000 0.140463
v 0.109222 0.668000 0.182621
v -0.000000 0.668000 0.197000
v -0.109222 0.668000 0.182621
v -0.211000 0.668000 0.140463
v -0.298399 0.668000 0.073399
v -0.365463 0.668000 -0.014000
v -0.407621 0.668000 -0.115778
v -0.422000 0.668000 -0.225000
v -0.422000 0.678000 -0.225000
v -0.407621 0.678000 -0.115778
v -0.365463 0.678000 -0.014000
v -0.298399 0.678000 0.073399
v -0.211000 0.678000 0.140463
v -0.109222 0.678000 0.182621
v -0.000000 0.678000 0.197000
v 0.109222 0.678000 0.182621
v 0.211000 0.678000 0.140463
v 0.298399 0.678000 0.073399
v 0.365463 0.678000 -0.014000
v 0.407621 0.678000 -0.115778
v 0.422000 0.678000 -0.225000
v 0.420000 0.676000 -0.225000
v 0.405689 0.676000 -0.116296
v 0.363731 0.676000 -0.015000
v 0.296985 0.676000 0.071985
v 0.210000 0.676000 0.138731
v 0.108704 0.676000 0.180689
v -0.000000 0.676000 0.195000
v -0.108704 0.676000 0.180689
v -0.210000 0.676000 0.138731
v -0.296985 0.676000 0.071985
v -0.363731 0.676000 -0.015000
v -0.405689 0.676000 -0.116296
v -0.420000 0.676000 -0.225000
v -0.420000 0.752000 -0.225000
v -0.405689 0.752000 -0.116296
v -0.363731 0.752000 -0.015000
v -0.296985 0.752000 0.071985
v -0.210000 0.752000 0.138731
v -0.108704 0.752000 0.180689
v -0.000000 0.752000 0.195000
v 0.108704 0.752000 0.180689
v 0.210000 0.752000 0.138731
v 0.296985 0.752000 0.071985
v 0.363731 0.752000 -0.015000
v 0.405689 0.752000 -0.116296
v 0.420000 0.752000 -0.225000
v 0.450000 0.748000 -0.225000
v 0.434667 0.748000 -0.108531
v 0.389711 0.748000 -0.000000
v 0.318198 0.748000 0.093198
v 0.225000 0.748000 0.164711
v 0.116469 0.748000 0.209667
v -0.000000 0.748000 0.225000
v -0.116469 0.748000 0.209667
v -0.225000 0.748000 0.164711
v -0.318198 0.748000 0.093198
v -0.389711 0.748000 -0.000000
v -0.434667 0.748000 -0.108531
v -0.450000 0.748000 -0.225000
v -0.434667 0.774000 -0.108531
v -0.450000 0.774000 -0.225000
v -0.389711 0.774000 -0.000000
v -0.318198 0.774000 0.093198
v -0.225000 0.774000 0.164711
v -0.116469 0.774000 0.209667
v -0.000000 0.774000 0.225000
v 0.116469 0.774000 0.209667
v 0.225000 0.774000 0.164711
v 0.318198 0.774000 0.093198
v 0.389711 0.774000 -0.000000
v 0.434667 0.774000 -0.108531
v 0.450000 0.774000 -0.225000
v -0.442213 0.780000 -0.220450
v -0.427145 0.780000 -0.105997
v -0.382967 0.780000 0.000656
v -0.312692 0.780000 0.092242
v -0.221106 0.780000 0.162517
v -0.114453 0.780000 0.206695
v -0.000000 0.780000 0.221763
v 0.114453 0.780000 0.206695
v 0.221106 0.780000 0.162517
v 0.312692 0.780000 0.092242
v 0.382967 0.780000 0.000656
v 0.427145 0.780000 -0.105997
v 0.442213 0.780000 -0.220450
vn -0.0000 -1.0000 -0.0000
vn -0.0000 1.0000 -0.0000
vn -0.0000 -0.0000 1.0000
vn -0.0000 -0.0000 -1.0000
vn -1.0000 -0.0000 -0.0000
vn 1.0000 -0.0000 -0.0000
vn -0.0000 -0.0131 0.9999
vn 0.9999 -0.0131 -0.0000
vn -0.0000 -0.0131 -0.9999
vn -0.9999 -0.0131 -0.0000
vn -0.9914 -0.0000 0.1305
vn -0.9239 -0.0000 0.3827
vn -0.7934 -0.0000 0.6088
vn -0.6088 -0.0000 0.7934
vn -0.3827 -0.0000 0.9239
vn -0.1305 -0.0000 0.9914
vn 0.1305 -0.0000 0.9914
vn 0.3827 -0.0000 0.9239
vn 0.6088 -0.0000 0.7934
vn 0.7934 -0.0000 0.6088
vn 0.9239 -0.0000 0.3827
vn 0.9914 -0.0000 0.1305
vn -0.6385 0.7650 0.0841
vn -0.6544 0.7059 0.2711
vn -0.6119 0.6364 0.4696
vn -0.5022 0.5652 0.6545
vn -0.3302 0.5057 0.7970
vn -0.1151 0.4717 0.8742
vn 0.1151 0.4717 0.8742
vn 0.3301 0.5057 0.7970
vn 0.5022 0.5652 0.6545
vn 0.6119 0.6364 0.4696
vn 0.6544 0.7059 0.2711
vn 0.6385 0.7650 0.0841
vn -0.0000 0.6042 -0.7968
vt 0.437500 0.312500
vt 0.687500 0.937500
vt 0.312500 0.187500
s 0
usemtl FN_Atlas
f 1/1/1 2/1/1 3/1/1 4/1/1
f 5/1/2 6/1/2 7/1/2 8/1/2
f 1/1/3 4/1/3 6/1/3 5/1/3
f 3/1/4 2/1/4 8/1/4 7/1/4
f 1/1/5 5/1/5 8/1/5 2/1/5
f 4/1/6 3/1/6 7/1/6 6/1/6
f 9/2/1 10/2/1 11/2/1 12/2/1
f 13/2/2 14/2/2 15/2/2 16/2/2
f 12/2/7 11/2/7 14/2/7 13/2/7
f 11/2/8 10/2/8 15/2/8 14/2/8
f 10/2/9 9/2/9 16/2/9 15/2/9
f 9/2/10 12/2/10 13/2/10 16/2/10
f 17/1/1 18/1/1 19/1/1 20/1/1
f 21/1/2 22/1/2 23/1/2 24/1/2
f 17/1/3 20/1/3 22/1/3 21/1/3
f 19/1/4 18/1/4 24/1/4 23/1/4
f 17/1/5 21/1/5 24/1/5 18/1/5
f 20/1/6 19/1/6 23/1/6 22/1/6
f 25/2/1 26/2/1 27/2/1 28/2/1
f 29/2/2 30/2/2 31/2/2 32/2/2
f 28/2/7 27/2/7 30/2/7 29/2/7
f 27/2/8 26/2/8 31/2/8 30/2/8
f 26/2/9 25/2/9 32/2/9 31/2/9
f 25/2/10 28/2/10 29/2/10 32/2/10
f 33/1/1 34/1/1 35/1/1 36/1/1
f 37/1/2 38/1/2 39/1/2 40/1/2
f 33/1/3 36/1/3 38/1/3 37/1/3
f 35/1/4 34/1/4 40/1/4 39/1/4
f 33/1/5 37/1/5 40/1/5 34/1/5
f 36/1/6 35/1/6 39/1/6 38/1/6
f 41/2/1 42/2/1 43/2/1 44/2/1
f 45/2/2 46/2/2 47/2/2 48/2/2
f 44/2/7 43/2/7 46/2/7 45/2/7
f 43/2/8 42/2/8 47/2/8 46/2/8
f 42/2/9 41/2/9 48/2/9 47/2/9
f 41/2/10 44/2/10 45/2/10 48/2/10
f 49/1/1 50/1/1 51/1/1 52/1/1 53/1/1 54/1/1 55/1/1 56/1/1 57/1/1 58/1/1 59/1/1 60/1/1 61/1/1
f 62/1/2 63/1/2 64/1/2 65/1/2 66/1/2 67/1/2 68/1/2 69/1/2 70/1/2 71/1/2 72/1/2 73/1/2 74/1/2
f 61/1/11 60/1/11 63/1/11 62/1/11
f 60/1/12 59/1/12 64/1/12 63/1/12
f 59/1/13 58/1/13 65/1/13 64/1/13
f 58/1/14 57/1/14 66/1/14 65/1/14
f 57/1/15 56/1/15 67/1/15 66/1/15
f 56/1/16 55/1/16 68/1/16 67/1/16
f 55/1/17 54/1/17 69/1/17 68/1/17
f 54/1/18 53/1/18 70/1/18 69/1/18
f 53/1/19 52/1/19 71/1/19 70/1/19
f 52/1/20 51/1/20 72/1/20 71/1/20
f 51/1/21 50/1/21 73/1/21 72/1/21
f 50/1/22 49/1/22 74/1/22 73/1/22
f 49/1/4 61/1/4 62/1/4 74/1/4
f 75/2/1 76/2/1 77/2/1 78/2/1 79/2/1 80/2/1 81/2/1 82/2/1 83/2/1 84/2/1 85/2/1 86/2/1 87/2/1
f 88/2/2 89/2/2 90/2/2 91/2/2 92/2/2 93/2/2 94/2/2 95/2/2 96/2/2 97/2/2 98/2/2 99/2/2 100/2/2
f 87/2/11 86/2/11 89/2/11 88/2/11
f 86/2/12 85/2/12 90/2/12 89/2/12
f 85/2/13 84/2/13 91/2/13 90/2/13
f 84/2/14 83/2/14 92/2/14 91/2/14
f 83/2/15 82/2/15 93/2/15 92/2/15
f 82/2/16 81/2/16 94/2/16 93/2/16
f 81/2/17 80/2/17 95/2/17 94/2/17
f 80/2/18 79/2/18 96/2/18 95/2/18
f 79/2/19 78/2/19 97/2/19 96/2/19
f 78/2/20 77/2/20 98/2/20 97/2/20
f 77/2/21 76/2/21 99/2/21 98/2/21
f 76/2/22 75/2/22 100/2/22 99/2/22
f 75/2/4 87/2/4 88/2/4 100/2/4
f 101/3/1 102/3/1 103/3/1 104/3/1 105/3/1 106/3/1 107/3/1 108/3/1 109/3/1 110/3/1 111/3/1 112/3/1 113/3/1
f 113/3/11 112/3/11 114/3/11 115/3/11
f 112/3/12 111/3/12 116/3/12 114/3/12
f 111/3/13 110/3/13 117/3/13 116/3/13
f 110/3/14 109/3/14 118/3/14 117/3/14
f 109/3/15 108/3/15 119/3/15 118/3/15
f 108/3/16 107/3/16 120/3/16 119/3/16
f 107/3/17 106/3/17 121/3/17 120/3/17
f 106/3/18 105/3/18 122/3/18 121/3/18
f 105/3/19 104/3/19 123/3/19 122/3/19
f 104/3/20 103/3/20 124/3/20 123/3/20
f 103/3/21 102/3/21 125/3/21 124/3/21
f 102/3/22 101/3/22 126/3/22 125/3/22
f 101/3/4 113/3/4 115/3/4 126/3/4
f 127/3/2 128/3/2 129/3/2 130/3/2 131/3/2 132/3/2 133/3/2 134/3/2 135/3/2 136/3/2 137/3/2 138/3/2 139/3/2
f 115/3/23 114/3/23 128/3/23 127/3/23
f 114/3/24 116/3/24 129/3/24 128/3/24
f 116/3/25 117/3/25 130/3/25 129/3/25
f 117/3/26 118/3/26 131/3/26 130/3/26
f 118/3/27 119/3/27 132/3/27 131/3/27
f 119/3/28 120/3/28 133/3/28 132/3/28
f 120/3/29 121/3/29 134/3/29 133/3/29
f 121/3/30 122/3/30 135/3/30 134/3/30
f 122/3/31 123/3/31 136/3/31 135/3/31
f 123/3/32 124/3/32 137/3/32 136/3/32
f 124/3/33 125/3/33 138/3/33 137/3/33
f 125/3/34 126/3/34 139/3/34 138/3/34
f 126/3/35 115/3/35 127/3/35 139/3/35
