# Blender 5.2.0 LTS
# www.blender.org
mtllib FN_Table_Lift.mtl
o FN_Table_Lift
v -0.300000 0.060000 0.460000
v -0.300000 0.060000 -0.640000
v -0.270000 0.060000 -0.640000
v -0.270000 0.060000 0.460000
v -0.300000 0.400000 0.460000
v -0.270000 0.400000 0.460000
v -0.270000 0.400000 -0.640000
v -0.300000 0.400000 -0.640000
v 0.270000 0.060000 0.460000
v 0.270000 0.060000 -0.640000
v 0.300000 0.060000 -0.640000
v 0.300000 0.060000 0.460000
v 0.270000 0.400000 0.460000
v 0.300000 0.400000 0.460000
v 0.300000 0.400000 -0.640000
v 0.270000 0.400000 -0.640000
v -0.300000 0.060000 0.430000
v 0.300000 0.060000 0.430000
v 0.300000 0.400000 0.430000
v -0.300000 0.400000 0.430000
v -0.300000 0.060000 -0.610000
v 0.300000 0.060000 -0.610000
v -0.300000 0.400000 -0.610000
v 0.300000 0.400000 -0.610000
v -0.300000 0.090000 0.460000
v 0.300000 0.090000 0.460000
v 0.300000 0.090000 -0.640000
v -0.300000 0.090000 -0.640000
v -0.260000 0.000000 0.420000
v -0.260000 0.000000 -0.600000
v 0.260000 0.000000 -0.600000
v 0.260000 0.000000 0.420000
v -0.260000 0.060000 0.420000
v 0.260000 0.060000 0.420000
v 0.260000 0.060000 -0.600000
v -0.260000 0.060000 -0.600000
v -0.310000 0.660000 0.640000
v -0.310000 0.660000 -0.460000
v 0.310000 0.660000 -0.460000
v 0.310000 0.660000 0.640000
v -0.310000 0.700000 0.640000
v 0.310000 0.700000 0.640000
v 0.310000 0.700000 -0.460000
v -0.310000 0.700000 -0.460000
v -0.225000 0.610000 0.230000
v -0.225000 0.610000 -0.130000
v -0.195000 0.610000 -0.130000
v -0.195000 0.610000 0.230000
v -0.225000 0.665000 0.230000
v -0.195000 0.665000 0.230000
v -0.195000 0.665000 -0.130000
v -0.225000 0.665000 -0.130000
v -0.258000 0.316966 -0.256163
v -0.258000 0.626966 -0.076163
v -0.258000 0.643034 -0.103837
v -0.258000 0.333034 -0.283837
v -0.230000 0.333034 -0.283837
v -0.230000 0.643034 -0.103837
v -0.230000 0.626966 -0.076163
v -0.230000 0.316966 -0.256163
v -0.258000 0.316966 0.023837
v -0.258000 0.626966 0.203837
v -0.258000 0.643034 0.176163
v -0.258000 0.333034 -0.003837
v -0.230000 0.333034 -0.003837
v -0.230000 0.643034 0.176163
v -0.230000 0.626966 0.203837
v -0.230000 0.316966 0.023837
v 0.195000 0.610000 0.230000
v 0.195000 0.610000 -0.130000
v 0.225000 0.610000 -0.130000
v 0.225000 0.610000 0.230000
v 0.195000 0.665000 0.230000
v 0.225000 0.665000 0.230000
v 0.225000 0.665000 -0.130000
v 0.195000 0.665000 -0.130000
v 0.230000 0.316966 -0.256163
v 0.230000 0.626966 -0.076163
v 0.230000 0.643034 -0.103837
v 0.230000 0.333034 -0.283837
v 0.258000 0.333034 -0.283837
v 0.258000 0.643034 -0.103837
v 0.258000 0.626966 -0.076163
v 0.258000 0.316966 -0.256163
v 0.230000 0.316966 0.023837
v 0.230000 0.626966 0.203837
v 0.230000 0.643034 0.176163
v 0.230000 0.333034 -0.003837
v 0.258000 0.333034 -0.003837
v 0.258000 0.643034 0.176163
v 0.258000 0.626966 0.203837
v 0.258000 0.316966 0.023837
v -0.305000 0.315474 -0.275500
v -0.305000 0.315474 -0.264500
v -0.305000 0.325000 -0.259000
v -0.305000 0.334526 -0.264500
v -0.305000 0.334526 -0.275500
v -0.305000 0.325000 -0.281000
v 0.305000 0.325000 -0.281000
v 0.305000 0.334526 -0.275500
v 0.305000 0.334526 -0.264500
v 0.305000 0.325000 -0.259000
v 0.305000 0.315474 -0.264500
v 0.305000 0.315474 -0.275500
v -0.263000 0.625474 -0.095500
v -0.263000 0.625474 -0.084500
v -0.263000 0.635000 -0.079000
v -0.263000 0.644526 -0.084500
v -0.263000 0.644526 -0.095500
v -0.263000 0.635000 -0.101000
v 0.263000 0.635000 -0.101000
v 0.263000 0.644526 -0.095500
v 0.263000 0.644526 -0.084500
v 0.263000 0.635000 -0.079000
v 0.263000 0.625474 -0.084500
v 0.263000 0.625474 -0.095500
v -0.305000 0.315474 0.004500
v -0.305000 0.315474 0.015500
v -0.305000 0.325000 0.021000
v -0.305000 0.334526 0.015500
v -0.305000 0.334526 0.004500
v -0.305000 0.325000 -0.001000
v 0.305000 0.325000 -0.001000
v 0.305000 0.334526 0.004500
v 0.305000 0.334526 0.015500
v 0.305000 0.325000 0.021000
v 0.305000 0.315474 0.015500
v 0.305000 0.315474 0.004500
v -0.263000 0.625474 0.184500
v -0.263000 0.625474 0.195500
v -0.263000 0.635000 0.201000
v -0.263000 0.644526 0.195500
v -0.263000 0.644526 0.184500
v -0.263000 0.635000 0.179000
v 0.263000 0.635000 0.179000
v 0.263000 0.644526 0.184500
v 0.263000 0.644526 0.195500
v 0.263000 0.635000 0.201000
v 0.263000 0.625474 0.195500
v 0.263000 0.625474 0.184500
v -0.170000 0.090000 -0.270000
v -0.170000 0.090000 -0.520000
v 0.130000 0.090000 -0.520000
v 0.130000 0.090000 -0.270000
v -0.170000 0.170000 -0.270000
v 0.130000 0.170000 -0.270000
v 0.130000 0.170000 -0.520000
v -0.170000 0.170000 -0.520000
v 0.150000 0.090000 -0.270000
v 0.150000 0.090000 -0.420000
v 0.220000 0.090000 -0.420000
v 0.220000 0.090000 -0.270000
v 0.150000 0.140000 -0.270000
v 0.220000 0.140000 -0.270000
v 0.220000 0.140000 -0.420000
v 0.150000 0.140000 -0.420000
vn -0.0000 -1.0000 -0.0000
vn -0.0000 1.0000 -0.0000
vn -0.0000 -0.0000 1.0000
vn -0.0000 -0.0000 -1.0000
vn -1.0000 -0.0000 -0.0000
vn 1.0000 -0.0000 -0.0000
vn -0.0000 -0.5021 0.8648
vn -0.0000 0.8648 0.5021
vn -0.0000 0.5021 -0.8648
vn -0.0000 -0.8648 -0.5021
vn -0.0000 0.5000 -0.8660
vn -0.0000 0.5000 0.8660
vn -0.0000 -0.5000 0.8660
vn -0.0000 -0.5000 -0.8660
vt 0.437500 0.937500
vt 0.312500 0.312500
vt 0.937500 0.812500
s 0
usemtl FN_Atlas
f 1/1/1 2/1/1 3/1/1 4/1/1
f 5/1/2 6/1/2 7/1/2 8/1/2
f 1/1/3 4/1/3 6/1/3 5/1/3
f 3/1/4 2/1/4 8/1/4 7/1/4
f 1/1/5 5/1/5 8/1/5 2/1/5
f 4/1/6 3/1/6 7/1/6 6/1/6
f 9/1/1 10/1/1 11/1/1 12/1/1
f 13/1/2 14/1/2 15/1/2 16/1/2
f 9/1/3 12/1/3 14/1/3 13/1/3
f 11/1/4 10/1/4 16/1/4 15/1/4
f 9/1/5 13/1/5 16/1/5 10/1/5
f 12/1/6 11/1/6 15/1/6 14/1/6
f 1/1/1 17/1/1 18/1/1 12/1/1
f 5/1/2 14/1/2 19/1/2 20/1/2
f 1/1/3 12/1/3 14/1/3 5/1/3
f 18/1/4 17/1/4 20/1/4 19/1/4
f 1/1/5 5/1/5 20/1/5 17/1/5
f 12/1/6 18/1/6 19/1/6 14/1/6
f 21/1/1 2/1/1 11/1/1 22/1/1
f 23/1/2 24/1/2 15/1/2 8/1/2
f 21/1/3 22/1/3 24/1/3 23/1/3
f 11/1/4 2/1/4 8/1/4 15/1/4
f 21/1/5 23/1/5 8/1/5 2/1/5
f 22/1/6 11/1/6 15/1/6 24/1/6
f 1/1/1 2/1/1 11/1/1 12/1/1
f 25/1/2 26/1/2 27/1/2 28/1/2
f 1/1/3 12/1/3 26/1/3 25/1/3
f 11/1/4 2/1/4 28/1/4 27/1/4
f 1/1/5 25/1/5 28/1/5 2/1/5
f 12/1/6 11/1/6 27/1/6 26/1/6
f 29/1/1 30/1/1 31/1/1 32/1/1
f 33/1/2 34/1/2 35/1/2 36/1/2
f 29/1/3 32/1/3 34/1/3 33/1/3
f 31/1/4 30/1/4 36/1/4 35/1/4
f 29/1/5 33/1/5 36/1/5 30/1/5
f 32/1/6 31/1/6 35/1/6 34/1/6
f 37/1/1 38/1/1 39/1/1 40/1/1
f 41/1/2 42/1/2 43/1/2 44/1/2
f 37/1/3 40/1/3 42/1/3 41/1/3
f 39/1/4 38/1/4 44/1/4 43/1/4
f 37/1/5 41/1/5 44/1/5 38/1/5
f 40/1/6 39/1/6 43/1/6 42/1/6
f 45/1/1 46/1/1 47/1/1 48/1/1
f 49/1/2 50/1/2 51/1/2 52/1/2
f 45/1/3 48/1/3 50/1/3 49/1/3
f 47/1/4 46/1/4 52/1/4 51/1/4
f 45/1/5 49/1/5 52/1/5 46/1/5
f 48/1/6 47/1/6 51/1/6 50/1/6
f 53/2/5 54/2/5 55/2/5 56/2/5
f 57/2/6 58/2/6 59/2/6 60/2/6
f 60/2/7 59/2/7 54/2/7 53/2/7
f 59/2/8 58/2/8 55/2/8 54/2/8
f 58/2/9 57/2/9 56/2/9 55/2/9
f 57/2/10 60/2/10 53/2/10 56/2/10
f 61/2/5 62/2/5 63/2/5 64/2/5
f 65/2/6 66/2/6 67/2/6 68/2/6
f 68/2/7 67/2/7 62/2/7 61/2/7
f 67/2/8 66/2/8 63/2/8 62/2/8
f 66/2/9 65/2/9 64/2/9 63/2/9
f 65/2/10 68/2/10 61/2/10 64/2/10
f 69/1/1 70/1/1 71/1/1 72/1/1
f 73/1/2 74/1/2 75/1/2 76/1/2
f 69/1/3 72/1/3 74/1/3 73/1/3
f 71/1/4 70/1/4 76/1/4 75/1/4
f 69/1/5 73/1/5 76/1/5 70/1/5
f 72/1/6 71/1/6 75/1/6 74/1/6
f 77/2/5 78/2/5 79/2/5 80/2/5
f 81/2/6 82/2/6 83/2/6 84/2/6
f 84/2/7 83/2/7 78/2/7 77/2/7
f 83/2/8 82/2/8 79/2/8 78/2/8
f 82/2/9 81/2/9 80/2/9 79/2/9
f 81/2/10 84/2/10 77/2/10 80/2/10
f 85/2/5 86/2/5 87/2/5 88/2/5
f 89/2/6 90/2/6 91/2/6 92/2/6
f 92/2/7 91/2/7 86/2/7 85/2/7
f 91/2/8 90/2/8 87/2/8 86/2/8
f 90/2/9 89/2/9 88/2/9 87/2/9
f 89/2/10 92/2/10 85/2/10 88/2/10
f 93/2/5 94/2/5 95/2/5 96/2/5 97/2/5 98/2/5
f 99/2/6 100/2/6 101/2/6 102/2/6 103/2/6 104/2/6
f 98/2/11 97/2/11 100/2/11 99/2/11
f 97/2/2 96/2/2 101/2/2 100/2/2
f 96/2/12 95/2/12 102/2/12 101/2/12
f 95/2/13 94/2/13 103/2/13 102/2/13
f 94/2/1 93/2/1 104/2/1 103/2/1
f 93/2/14 98/2/14 99/2/14 104/2/14
f 105/2/5 106/2/5 107/2/5 108/2/5 109/2/5 110/2/5
f 111/2/6 112/2/6 113/2/6 114/2/6 115/2/6 116/2/6
f 110/2/11 109/2/11 112/2/11 111/2/11
f 109/2/2 108/2/2 113/2/2 112/2/2
f 108/2/12 107/2/12 114/2/12 113/2/12
f 107/2/13 106/2/13 115/2/13 114/2/13
f 106/2/1 105/2/1 116/2/1 115/2/1
f 105/2/14 110/2/14 111/2/14 116/2/14
f 117/2/5 118/2/5 119/2/5 120/2/5 121/2/5 122/2/5
f 123/2/6 124/2/6 125/2/6 126/2/6 127/2/6 128/2/6
f 122/2/11 121/2/11 124/2/11 123/2/11
f 121/2/2 120/2/2 125/2/2 124/2/2
f 120/2/12 119/2/12 126/2/12 125/2/12
f 119/2/13 118/2/13 127/2/13 126/2/13
f 118/2/1 117/2/1 128/2/1 127/2/1
f 117/2/14 122/2/14 123/2/14 128/2/14
f 129/2/5 130/2/5 131/2/5 132/2/5 133/2/5 134/2/5
f 135/2/6 136/2/6 137/2/6 138/2/6 139/2/6 140/2/6
f 134/2/11 133/2/11 136/2/11 135/2/11
f 133/2/2 132/2/2 137/2/2 136/2/2
f 132/2/12 131/2/12 138/2/12 137/2/12
f 131/2/13 130/2/13 139/2/13 138/2/13
f 130/2/1 129/2/1 140/2/1 139/2/1
f 129/2/14 134/2/14 135/2/14 140/2/14
f 141/3/1 142/3/1 143/3/1 144/3/1
f 145/3/2 146/3/2 147/3/2 148/3/2
f 141/3/3 144/3/3 146/3/3 145/3/3
f 143/3/4 142/3/4 148/3/4 147/3/4
f 141/3/5 145/3/5 148/3/5 142/3/5
f 144/3/6 143/3/6 147/3/6 146/3/6
f 149/3/1 150/3/1 151/3/1 152/3/1
f 153/3/2 154/3/2 155/3/2 156/3/2
f 149/3/3 152/3/3 154/3/3 153/3/3
f 151/3/4 150/3/4 156/3/4 155/3/4
f 149/3/5 153/3/5 156/3/5 150/3/5
f 152/3/6 151/3/6 155/3/6 154/3/6
