# Blender 5.2.0 LTS
# www.blender.org
mtllib FN_Table_Trestle.mtl
o FN_Table_Trestle
v -0.900000 0.708000 0.375000
v -0.900000 0.708000 -0.375000
v 0.900000 0.708000 -0.375000
v 0.900000 0.708000 0.375000
v -0.900000 0.740000 0.375000
v 0.900000 0.740000 0.375000
v 0.900000 0.740000 -0.375000
v -0.900000 0.740000 -0.375000
v -0.595000 0.640000 0.372000
v -0.595000 0.640000 -0.372000
v -0.525000 0.640000 -0.372000
v -0.525000 0.640000 0.372000
v -0.595000 0.710000 0.372000
v -0.525000 0.710000 0.372000
v -0.525000 0.710000 -0.372000
v -0.595000 0.710000 -0.372000
v -0.633000 0.676000 0.372000
v -0.633000 0.676000 0.344000
v -0.597000 0.676000 0.344000
v -0.597000 0.676000 0.372000
v -0.633000 0.712000 0.372000
v -0.597000 0.712000 0.372000
v -0.597000 0.712000 0.344000
v -0.633000 0.712000 0.344000
v -0.523000 0.676000 0.372000
v -0.523000 0.676000 0.344000
v -0.487000 0.676000 0.344000
v -0.487000 0.676000 0.372000
v -0.523000 0.712000 0.372000
v -0.487000 0.712000 0.372000
v -0.487000 0.712000 0.344000
v -0.523000 0.712000 0.344000
v -0.633000 0.676000 -0.344000
v -0.633000 0.676000 -0.372000
v -0.597000 0.676000 -0.372000
v -0.597000 0.676000 -0.344000
v -0.633000 0.712000 -0.344000
v -0.597000 0.712000 -0.344000
v -0.597000 0.712000 -0.372000
v -0.633000 0.712000 -0.372000
v -0.523000 0.676000 -0.344000
v -0.523000 0.676000 -0.372000
v -0.487000 0.676000 -0.372000
v -0.487000 0.676000 -0.344000
v -0.523000 0.712000 -0.344000
v -0.487000 0.712000 -0.344000
v -0.487000 0.712000 -0.372000
v -0.523000 0.712000 -0.372000
v -0.595000 0.700000 0.310000
v -0.655000 0.700000 0.310000
v -0.805000 0.000000 0.310000
v -0.745000 0.000000 0.310000
v -0.745000 0.000000 0.250000
v -0.805000 0.000000 0.250000
v -0.655000 0.700000 0.250000
v -0.595000 0.700000 0.250000
v -0.595000 0.700000 -0.250000
v -0.655000 0.700000 -0.250000
v -0.805000 0.000000 -0.250000
v -0.745000 0.000000 -0.250000
v -0.745000 0.000000 -0.310000
v -0.805000 0.000000 -0.310000
v -0.655000 0.700000 -0.310000
v -0.595000 0.700000 -0.310000
v -0.755000 0.185000 0.290000
v -0.755000 0.185000 -0.290000
v -0.710000 0.185000 -0.290000
v -0.710000 0.185000 0.290000
v -0.755000 0.215000 0.290000
v -0.710000 0.215000 0.290000
v -0.710000 0.215000 -0.290000
v -0.755000 0.215000 -0.290000
v -0.584000 0.660000 0.330000
v -0.589500 0.669526 0.330000
v -0.600500 0.669526 0.330000
v -0.606000 0.660000 0.330000
v -0.600500 0.650474 0.330000
v -0.589500 0.650474 0.330000
v -0.589500 0.650474 -0.330000
v -0.600500 0.650474 -0.330000
v -0.606000 0.660000 -0.330000
v -0.600500 0.669526 -0.330000
v -0.589500 0.669526 -0.330000
v -0.584000 0.660000 -0.330000
v -0.375000 0.000000 0.310000
v -0.315000 0.000000 0.310000
v -0.465000 0.700000 0.310000
v -0.525000 0.700000 0.310000
v -0.525000 0.700000 0.250000
v -0.465000 0.700000 0.250000
v -0.315000 0.000000 0.250000
v -0.375000 0.000000 0.250000
v -0.375000 0.000000 -0.250000
v -0.315000 0.000000 -0.250000
v -0.465000 0.700000 -0.250000
v -0.525000 0.700000 -0.250000
v -0.525000 0.700000 -0.310000
v -0.465000 0.700000 -0.310000
v -0.315000 0.000000 -0.310000
v -0.375000 0.000000 -0.310000
v -0.410000 0.185000 0.290000
v -0.410000 0.185000 -0.290000
v -0.365000 0.185000 -0.290000
v -0.365000 0.185000 0.290000
v -0.410000 0.215000 0.290000
v -0.365000 0.215000 0.290000
v -0.365000 0.215000 -0.290000
v -0.410000 0.215000 -0.290000
v -0.514000 0.660000 0.330000
v -0.519500 0.669526 0.330000
v -0.530500 0.669526 0.330000
v -0.536000 0.660000 0.330000
v -0.530500 0.650474 0.330000
v -0.519500 0.650474 0.330000
v -0.519500 0.650474 -0.330000
v -0.530500 0.650474 -0.330000
v -0.536000 0.660000 -0.330000
v -0.530500 0.669526 -0.330000
v -0.519500 0.669526 -0.330000
v -0.514000 0.660000 -0.330000
v 0.525000 0.640000 0.372000
v 0.525000 0.640000 -0.372000
v 0.595000 0.640000 -0.372000
v 0.595000 0.640000 0.372000
v 0.525000 0.710000 0.372000
v 0.595000 0.710000 0.372000
v 0.595000 0.710000 -0.372000
v 0.525000 0.710000 -0.372000
v 0.487000 0.676000 0.372000
v 0.487000 0.676000 0.344000
v 0.523000 0.676000 0.344000
v 0.523000 0.676000 0.372000
v 0.487000 0.712000 0.372000
v 0.523000 0.712000 0.372000
v 0.523000 0.712000 0.344000
v 0.487000 0.712000 0.344000
v 0.597000 0.676000 0.372000
v 0.597000 0.676000 0.344000
v 0.633000 0.676000 0.344000
v 0.633000 0.676000 0.372000
v 0.597000 0.712000 0.372000
v 0.633000 0.712000 0.372000
v 0.633000 0.712000 0.344000
v 0.597000 0.712000 0.344000
v 0.487000 0.676000 -0.344000
v 0.487000 0.676000 -0.372000
v 0.523000 0.676000 -0.372000
v 0.523000 0.676000 -0.344000
v 0.487000 0.712000 -0.344000
v 0.523000 0.712000 -0.344000
v 0.523000 0.712000 -0.372000
v 0.487000 0.712000 -0.372000
v 0.597000 0.676000 -0.344000
v 0.597000 0.676000 -0.372000
v 0.633000 0.676000 -0.372000
v 0.633000 0.676000 -0.344000
v 0.597000 0.712000 -0.344000
v 0.633000 0.712000 -0.344000
v 0.633000 0.712000 -0.372000
v 0.597000 0.712000 -0.372000
v 0.525000 0.700000 0.310000
v 0.465000 0.700000 0.310000
v 0.315000 0.000000 0.310000
v 0.375000 0.000000 0.310000
v 0.375000 0.000000 0.250000
v 0.315000 0.000000 0.250000
v 0.465000 0.700000 0.250000
v 0.525000 0.700000 0.250000
v 0.525000 0.700000 -0.250000
v 0.465000 0.700000 -0.250000
v 0.315000 0.000000 -0.250000
v 0.375000 0.000000 -0.250000
v 0.375000 0.000000 -0.310000
v 0.315000 0.000000 -0.310000
v 0.465000 0.700000 -0.310000
v 0.525000 0.700000 -0.310000
v 0.365000 0.185000 0.290000
v 0.365000 0.185000 -0.290000
v 0.410000 0.185000 -0.290000
v 0.410000 0.185000 0.290000
v 0.365000 0.215000 0.290000
v 0.410000 0.215000 0.290000
v 0.410000 0.215000 -0.290000
v 0.365000 0.215000 -0.290000
v 0.536000 0.660000 0.330000
v 0.530500 0.669526 0.330000
v 0.519500 0.669526 0.330000
v 0.514000 0.660000 0.330000
v 0.519500 0.650474 0.330000
v 0.530500 0.650474 0.330000
v 0.530500 0.650474 -0.330000
v 0.519500 0.650474 -0.330000
v 0.514000 0.660000 -0.330000
v 0.519500 0.669526 -0.330000
v 0.530500 0.669526 -0.330000
v 0.536000 0.660000 -0.330000
v 0.745000 0.000000 0.310000
v 0.805000 0.000000 0.310000
v 0.655000 0.700000 0.310000
v 0.595000 0.700000 0.310000
v 0.595000 0.700000 0.250000
v 0.655000 0.700000 0.250000
v 0.805000 0.000000 0.250000
v 0.745000 0.000000 0.250000
v 0.745000 0.000000 -0.250000
v 0.805000 0.000000 -0.250000
v 0.655000 0.700000 -0.250000
v 0.595000 0.700000 -0.250000
v 0.595000 0.700000 -0.310000
v 0.655000 0.700000 -0.310000
v 0.805000 0.000000 -0.310000
v 0.745000 0.000000 -0.310000
v 0.710000 0.185000 0.290000
v 0.710000 0.185000 -0.290000
v 0.755000 0.185000 -0.290000
v 0.755000 0.185000 0.290000
v 0.710000 0.215000 0.290000
v 0.755000 0.215000 0.290000
v 0.755000 0.215000 -0.290000
v 0.710000 0.215000 -0.290000
v 0.606000 0.660000 0.330000
v 0.600500 0.669526 0.330000
v 0.589500 0.669526 0.330000
v 0.584000 0.660000 0.330000
v 0.589500 0.650474 0.330000
v 0.600500 0.650474 0.330000
v 0.600500 0.650474 -0.330000
v 0.589500 0.650474 -0.330000
v 0.584000 0.660000 -0.330000
v 0.589500 0.669526 -0.330000
v 0.600500 0.669526 -0.330000
v 0.606000 0.660000 -0.330000
vn -0.0000 -1.0000 -0.0000
vn -0.0000 1.0000 -0.0000
vn -0.0000 -0.0000 1.0000
vn -0.0000 -0.0000 -1.0000
vn -1.0000 -0.0000 -0.0000
vn 1.0000 -0.0000 -0.0000
vn -0.9778 0.2095 -0.0000
vn 0.9778 -0.2095 -0.0000
vn 0.8660 0.5000 -0.0000
vn -0.8660 0.5000 -0.0000
vn -0.8660 -0.5000 -0.0000
vn 0.8660 -0.5000 -0.0000
vn 0.9778 0.2095 -0.0000
vn -0.9778 -0.2095 -0.0000
vt 0.437500 0.937500
vt 0.812500 0.312500
vt 0.312500 0.312500
s 0
usemtl FN_Atlas
f 1/1/1 2/1/1 3/1/1 4/1/1
f 5/1/2 6/1/2 7/1/2 8/1/2
f 1/1/3 4/1/3 6/1/3 5/1/3
f 3/1/4 2/1/4 8/1/4 7/1/4
f 1/1/5 5/1/5 8/1/5 2/1/5
f 4/1/6 3/1/6 7/1/6 6/1/6
f 9/2/1 10/2/1 11/2/1 12/2/1
f 13/2/2 14/2/2 15/2/2 16/2/2
f 9/2/3 12/2/3 14/2/3 13/2/3
f 11/2/4 10/2/4 16/2/4 15/2/4
f 9/2/5 13/2/5 16/2/5 10/2/5
f 12/2/6 11/2/6 15/2/6 14/2/6
f 17/3/1 18/3/1 19/3/1 20/3/1
f 21/3/2 22/3/2 23/3/2 24/3/2
f 17/3/3 20/3/3 22/3/3 21/3/3
f 19/3/4 18/3/4 24/3/4 23/3/4
f 17/3/5 21/3/5 24/3/5 18/3/5
f 20/3/6 19/3/6 23/3/6 22/3/6
f 25/3/1 26/3/1 27/3/1 28/3/1
f 29/3/2 30/3/2 31/3/2 32/3/2
f 25/3/3 28/3/3 30/3/3 29/3/3
f 27/3/4 26/3/4 32/3/4 31/3/4
f 25/3/5 29/3/5 32/3/5 26/3/5
f 28/3/6 27/3/6 31/3/6 30/3/6
f 33/3/1 34/3/1 35/3/1 36/3/1
f 37/3/2 38/3/2 39/3/2 40/3/2
f 33/3/3 36/3/3 38/3/3 37/3/3
f 35/3/4 34/3/4 40/3/4 39/3/4
f 33/3/5 37/3/5 40/3/5 34/3/5
f 36/3/6 35/3/6 39/3/6 38/3/6
f 41/3/1 42/3/1 43/3/1 44/3/1
f 45/3/2 46/3/2 47/3/2 48/3/2
f 41/3/3 44/3/3 46/3/3 45/3/3
f 43/3/4 42/3/4 48/3/4 47/3/4
f 41/3/5 45/3/5 48/3/5 42/3/5
f 44/3/6 43/3/6 47/3/6 46/3/6
f 49/2/3 50/2/3 51/2/3 52/2/3
f 53/2/4 54/2/4 55/2/4 56/2/4
f 56/2/2 55/2/2 50/2/2 49/2/2
f 55/2/7 54/2/7 51/2/7 50/2/7
f 54/2/1 53/2/1 52/2/1 51/2/1
f 53/2/8 56/2/8 49/2/8 52/2/8
f 57/2/3 58/2/3 59/2/3 60/2/3
f 61/2/4 62/2/4 63/2/4 64/2/4
f 64/2/2 63/2/2 58/2/2 57/2/2
f 63/2/7 62/2/7 59/2/7 58/2/7
f 62/2/1 61/2/1 60/2/1 59/2/1
f 61/2/8 64/2/8 57/2/8 60/2/8
f 65/2/1 66/2/1 67/2/1 68/2/1
f 69/2/2 70/2/2 71/2/2 72/2/2
f 65/2/3 68/2/3 70/2/3 69/2/3
f 67/2/4 66/2/4 72/2/4 71/2/4
f 65/2/5 69/2/5 72/2/5 66/2/5
f 68/2/6 67/2/6 71/2/6 70/2/6
f 73/3/3 74/3/3 75/3/3 76/3/3 77/3/3 78/3/3
f 79/3/4 80/3/4 81/3/4 82/3/4 83/3/4 84/3/4
f 74/3/9 73/3/9 84/3/9 83/3/9
f 75/3/2 74/3/2 83/3/2 82/3/2
f 76/3/10 75/3/10 82/3/10 81/3/10
f 77/3/11 76/3/11 81/3/11 80/3/11
f 78/3/1 77/3/1 80/3/1 79/3/1
f 73/3/12 78/3/12 79/3/12 84/3/12
f 85/2/3 86/2/3 87/2/3 88/2/3
f 89/2/4 90/2/4 91/2/4 92/2/4
f 88/2/2 87/2/2 90/2/2 89/2/2
f 87/2/13 86/2/13 91/2/13 90/2/13
f 86/2/1 85/2/1 92/2/1 91/2/1
f 85/2/14 88/2/14 89/2/14 92/2/14
f 93/2/3 94/2/3 95/2/3 96/2/3
f 97/2/4 98/2/4 99/2/4 100/2/4
f 96/2/2 95/2/2 98/2/2 97/2/2
f 95/2/13 94/2/13 99/2/13 98/2/13
f 94/2/1 93/2/1 100/2/1 99/2/1
f 93/2/14 96/2/14 97/2/14 100/2/14
f 101/2/1 102/2/1 103/2/1 104/2/1
f 105/2/2 106/2/2 107/2/2 108/2/2
f 101/2/3 104/2/3 106/2/3 105/2/3
f 103/2/4 102/2/4 108/2/4 107/2/4
f 101/2/5 105/2/5 108/2/5 102/2/5
f 104/2/6 103/2/6 107/2/6 106/2/6
f 109/3/3 110/3/3 111/3/3 112/3/3 113/3/3 114/3/3
f 115/3/4 116/3/4 117/3/4 118/3/4 119/3/4 120/3/4
f 110/3/9 109/3/9 120/3/9 119/3/9
f 111/3/2 110/3/2 119/3/2 118/3/2
f 112/3/10 111/3/10 118/3/10 117/3/10
f 113/3/11 112/3/11 117/3/11 116/3/11
f 114/3/1 113/3/1 116/3/1 115/3/1
f 109/3/12 114/3/12 115/3/12 120/3/12
f 121/2/1 122/2/1 123/2/1 124/2/1
f 125/2/2 126/2/2 127/2/2 128/2/2
f 121/2/3 124/2/3 126/2/3 125/2/3
f 123/2/4 122/2/4 128/2/4 127/2/4
f 121/2/5 125/2/5 128/2/5 122/2/5
f 124/2/6 123/2/6 127/2/6 126/2/6
f 129/3/1 130/3/1 131/3/1 132/3/1
f 133/3/2 134/3/2 135/3/2 136/3/2
f 129/3/3 132/3/3 134/3/3 133/3/3
f 131/3/4 130/3/4 136/3/4 135/3/4
f 129/3/5 133/3/5 136/3/5 130/3/5
f 132/3/6 131/3/6 135/3/6 134/3/6
f 137/3/1 138/3/1 139/3/1 140/3/1
f 141/3/2 142/3/2 143/3/2 144/3/2
f 137/3/3 140/3/3 142/3/3 141/3/3
f 139/3/4 138/3/4 144/3/4 143/3/4
f 137/3/5 141/3/5 144/3/5 138/3/5
f 140/3/6 139/3/6 143/3/6 142/3/6
f 145/3/1 146/3/1 147/3/1 148/3/1
f 149/3/2 150/3/2 151/3/2 152/3/2
f 145/3/3 148/3/3 150/3/3 149/3/3
f 147/3/4 146/3/4 152/3/4 151/3/4
f 145/3/5 149/3/5 152/3/5 146/3/5
f 148/3/6 147/3/6 151/3/6 150/3/6
f 153/3/1 154/3/1 155/3/1 156/3/1
f 157/3/2 158/3/2 159/3/2 160/3/2
f 153/3/3 156/3/3 158/3/3 157/3/3
f 155/3/4 154/3/4 160/3/4 159/3/4
f 153/3/5 157/3/5 160/3/5 154/3/5
f 156/3/6 155/3/6 159/3/6 158/3/6
f 161/2/3 162/2/3 163/2/3 164/2/3
f 165/2/4 166/2/4 167/2/4 168/2/4
f 168/2/2 167/2/2 162/2/2 161/2/2
f 167/2/7 166/2/7 163/2/7 162/2/7
f 166/2/1 165/2/1 164/2/1 163/2/1
f 165/2/8 168/2/8 161/2/8 164/2/8
f 169/2/3 170/2/3 171/2/3 172/2/3
f 173/2/4 174/2/4 175/2/4 176/2/4
f 176/2/2 175/2/2 170/2/2 169/2/2
f 175/2/7 174/2/7 171/2/7 170/2/7
f 174/2/1 173/2/1 172/2/1 171/2/1
f 173/2/8 176/2/8 169/2/8 172/2/8
f 177/2/1 178/2/1 179/2/1 180/2/1
f 181/2/2 182/2/2 183/2/2 184/2/2
f 177/2/3 180/2/3 182/2/3 181/2/3
f 179/2/4 178/2/4 184/2/4 183/2/4
f 177/2/5 181/2/5 184/2/5 178/2/5
f 180/2/6 179/2/6 183/2/6 182/2/6
f 185/3/3 186/3/3 187/3/3 188/3/3 189/3/3 190/3/3
f 191/3/4 192/3/4 193/3/4 194/3/4 195/3/4 196/3/4
f 186/3/9 185/3/9 196/3/9 195/3/9
f 187/3/2 186/3/2 195/3/2 194/3/2
f 188/3/10 187/3/10 194/3/10 193/3/10
f 189/3/11 188/3/11 193/3/11 192/3/11
f 190/3/1 189/3/1 192/3/1 191/3/1
f 185/3/12 190/3/12 191/3/12 196/3/12
f 197/2/3 198/2/3 199/2/3 200/2/3
f 201/2/4 202/2/4 203/2/4 204/2/4
f 200/2/2 199/2/2 202/2/2 201/2/2
f 199/2/13 198/2/13 203/2/13 202/2/13
f 198/2/1 197/2/1 204/2/1 203/2/1
f 197/2/14 200/2/14 201/2/14 204/2/14
f 205/2/3 206/2/3 207/2/3 208/2/3
f 209/2/4 210/2/4 211/2/4 212/2/4
f 208/2/2 207/2/2 210/2/2 209/2/2
f 207/2/13 206/2/13 211/2/13 210/2/13
f 206/2/1 205/2/1 212/2/1 211/2/1
f 205/2/14 208/2/14 209/2/14 212/2/14
f 213/2/1 214/2/1 215/2/1 216/2/1
f 217/2/2 218/2/2 219/2/2 220/2/2
f 213/2/3 216/2/3 218/2/3 217/2/3
f 215/2/4 214/2/4 220/2/4 219/2/4
f 213/2/5 217/2/5 220/2/5 214/2/5
f 216/2/6 215/2/6 219/2/6 218/2/6
f 221/3/3 222/3/3 223/3/3 224/3/3 225/3/3 226/3/3
f 227/3/4 228/3/4 229/3/4 230/3/4 231/3/4 232/3/4
f 222/3/9 221/3/9 232/3/9 231/3/9
f 223/3/2 222/3/2 231/3/2 230/3/2
f 224/3/10 223/3/10 230/3/10 229/3/10
f 225/3/11 224/3/11 229/3/11 228/3/11
f 226/3/1 225/3/1 228/3/1 227/3/1
f 221/3/12 226/3/12 227/3/12 232/3/12
