# Blender 5.2.0 LTS
# www.blender.org
mtllib FN_Table_Folding.mtl
o FN_Table_Folding
v -0.744000 0.676000 0.318000
v -0.744000 0.676000 0.292000
v 0.744000 0.676000 0.292000
v 0.744000 0.676000 0.318000
v -0.744000 0.718000 0.318000
v 0.744000 0.718000 0.318000
v 0.744000 0.718000 0.292000
v -0.744000 0.718000 0.292000
v -0.744000 0.676000 -0.292000
v -0.744000 0.676000 -0.318000
v 0.744000 0.676000 -0.318000
v 0.744000 0.676000 -0.292000
v -0.744000 0.718000 -0.292000
v 0.744000 0.718000 -0.292000
v 0.744000 0.718000 -0.318000
v -0.744000 0.718000 -0.318000
v -0.718000 0.676000 -0.318000
v -0.718000 0.676000 0.318000
v -0.718000 0.718000 0.318000
v -0.718000 0.718000 -0.318000
v 0.718000 0.676000 0.318000
v 0.718000 0.676000 -0.318000
v 0.718000 0.718000 0.318000
v 0.718000 0.718000 -0.318000
v -0.653435 0.020000 0.286565
v -0.640000 0.020000 0.281000
v -0.626565 0.020000 0.286565
v -0.621000 0.020000 0.300000
v -0.626565 0.020000 0.313435
v -0.640000 0.020000 0.319000
v -0.653435 0.020000 0.313435
v -0.659000 0.020000 0.300000
v -0.659000 0.706000 0.300000
v -0.653435 0.706000 0.313435
v -0.640000 0.706000 0.319000
v -0.626565 0.706000 0.313435
v -0.621000 0.706000 0.300000
v -0.626565 0.706000 0.286565
v -0.640000 0.706000 0.281000
v -0.653435 0.706000 0.286565
v -0.651000 0.000000 0.329000
v -0.663728 0.000000 0.323728
v -0.669000 0.000000 0.311000
v -0.669000 0.000000 0.289000
v -0.663728 0.000000 0.276272
v -0.651000 0.000000 0.271000
v -0.629000 0.000000 0.271000
v -0.616272 0.000000 0.276272
v -0.611000 0.000000 0.289000
v -0.611000 0.000000 0.311000
v -0.616272 0.000000 0.323728
v -0.629000 0.000000 0.329000
v -0.631000 0.030000 0.325000
v -0.619686 0.030000 0.320314
v -0.615000 0.030000 0.309000
v -0.615000 0.030000 0.291000
v -0.619686 0.030000 0.279686
v -0.631000 0.030000 0.275000
v -0.649000 0.030000 0.275000
v -0.660314 0.030000 0.279686
v -0.665000 0.030000 0.291000
v -0.665000 0.030000 0.309000
v -0.660314 0.030000 0.320314
v -0.649000 0.030000 0.325000
v -0.653435 0.020000 -0.313435
v -0.640000 0.020000 -0.319000
v -0.626565 0.020000 -0.313435
v -0.621000 0.020000 -0.300000
v -0.626565 0.020000 -0.286565
v -0.640000 0.020000 -0.281000
v -0.653435 0.020000 -0.286565
v -0.659000 0.020000 -0.300000
v -0.659000 0.706000 -0.300000
v -0.653435 0.706000 -0.286565
v -0.640000 0.706000 -0.281000
v -0.626565 0.706000 -0.286565
v -0.621000 0.706000 -0.300000
v -0.626565 0.706000 -0.313435
v -0.640000 0.706000 -0.319000
v -0.653435 0.706000 -0.313435
v -0.651000 0.000000 -0.271000
v -0.663728 0.000000 -0.276272
v -0.669000 0.000000 -0.289000
v -0.669000 0.000000 -0.311000
v -0.663728 0.000000 -0.323728
v -0.651000 0.000000 -0.329000
v -0.629000 0.000000 -0.329000
v -0.616272 0.000000 -0.323728
v -0.611000 0.000000 -0.311000
v -0.611000 0.000000 -0.289000
v -0.616272 0.000000 -0.276272
v -0.629000 0.000000 -0.271000
v -0.631000 0.030000 -0.275000
v -0.619686 0.030000 -0.279686
v -0.615000 0.030000 -0.291000
v -0.615000 0.030000 -0.309000
v -0.619686 0.030000 -0.320314
v -0.631000 0.030000 -0.325000
v -0.649000 0.030000 -0.325000
v -0.660314 0.030000 -0.320314
v -0.665000 0.030000 -0.309000
v -0.665000 0.030000 -0.291000
v -0.660314 0.030000 -0.279686
v -0.649000 0.030000 -0.275000
v -0.629393 0.066607 0.300000
v -0.640000 0.071000 0.300000
v -0.650607 0.066607 0.300000
v -0.655000 0.056000 0.300000
v -0.650607 0.045393 0.300000
v -0.640000 0.041000 0.300000
v -0.629393 0.045393 0.300000
v -0.625000 0.056000 0.300000
v -0.625000 0.056000 -0.300000
v -0.629393 0.045393 -0.300000
v -0.640000 0.041000 -0.300000
v -0.650607 0.045393 -0.300000
v -0.655000 0.056000 -0.300000
v -0.650607 0.066607 -0.300000
v -0.640000 0.071000 -0.300000
v -0.629393 0.066607 -0.300000
v -0.627979 0.698021 0.300000
v -0.640000 0.703000 0.300000
v -0.652021 0.698021 0.300000
v -0.657000 0.686000 0.300000
v -0.652021 0.673979 0.300000
v -0.640000 0.669000 0.300000
v -0.627979 0.673979 0.300000
v -0.623000 0.686000 0.300000
v -0.623000 0.686000 -0.300000
v -0.627979 0.673979 -0.300000
v -0.640000 0.669000 -0.300000
v -0.652021 0.673979 -0.300000
v -0.657000 0.686000 -0.300000
v -0.652021 0.698021 -0.300000
v -0.640000 0.703000 -0.300000
v -0.627979 0.698021 -0.300000
v -0.648542 0.293334 0.306500
v -0.648542 0.293334 0.293500
v -0.640000 0.286000 0.287000
v -0.631458 0.278666 0.293500
v -0.631458 0.278666 0.306500
v -0.640000 0.286000 0.313000
v -0.300000 0.682000 0.313000
v -0.291458 0.674666 0.306500
v -0.291458 0.674666 0.293500
v -0.300000 0.682000 0.287000
v -0.308542 0.689334 0.293500
v -0.308542 0.689334 0.306500
v -0.648542 0.293334 -0.293500
v -0.648542 0.293334 -0.306500
v -0.640000 0.286000 -0.313000
v -0.631458 0.278666 -0.306500
v -0.631458 0.278666 -0.293500
v -0.640000 0.286000 -0.287000
v -0.300000 0.682000 -0.287000
v -0.291458 0.674666 -0.293500
v -0.291458 0.674666 -0.306500
v -0.300000 0.682000 -0.313000
v -0.308542 0.689334 -0.306500
v -0.308542 0.689334 -0.293500
v 0.626565 0.020000 0.286565
v 0.640000 0.020000 0.281000
v 0.653435 0.020000 0.286565
v 0.659000 0.020000 0.300000
v 0.653435 0.020000 0.313435
v 0.640000 0.020000 0.319000
v 0.626565 0.020000 0.313435
v 0.621000 0.020000 0.300000
v 0.621000 0.706000 0.300000
v 0.626565 0.706000 0.313435
v 0.640000 0.706000 0.319000
v 0.653435 0.706000 0.313435
v 0.659000 0.706000 0.300000
v 0.653435 0.706000 0.286565
v 0.640000 0.706000 0.281000
v 0.626565 0.706000 0.286565
v 0.629000 0.000000 0.329000
v 0.616272 0.000000 0.323728
v 0.611000 0.000000 0.311000
v 0.611000 0.000000 0.289000
v 0.616272 0.000000 0.276272
v 0.629000 0.000000 0.271000
v 0.651000 0.000000 0.271000
v 0.663728 0.000000 0.276272
v 0.669000 0.000000 0.289000
v 0.669000 0.000000 0.311000
v 0.663728 0.000000 0.323728
v 0.651000 0.000000 0.329000
v 0.649000 0.030000 0.325000
v 0.660314 0.030000 0.320314
v 0.665000 0.030000 0.309000
v 0.665000 0.030000 0.291000
v 0.660314 0.030000 0.279686
v 0.649000 0.030000 0.275000
v 0.631000 0.030000 0.275000
v 0.619686 0.030000 0.279686
v 0.615000 0.030000 0.291000
v 0.615000 0.030000 0.309000
v 0.619686 0.030000 0.320314
v 0.631000 0.030000 0.325000
v 0.626565 0.020000 -0.313435
v 0.640000 0.020000 -0.319000
v 0.653435 0.020000 -0.313435
v 0.659000 0.020000 -0.300000
v 0.653435 0.020000 -0.286565
v 0.640000 0.020000 -0.281000
v 0.626565 0.020000 -0.286565
v 0.621000 0.020000 -0.300000
v 0.621000 0.706000 -0.300000
v 0.626565 0.706000 -0.286565
v 0.640000 0.706000 -0.281000
v 0.653435 0.706000 -0.286565
v 0.659000 0.706000 -0.300000
v 0.653435 0.706000 -0.313435
v 0.640000 0.706000 -0.319000
v 0.626565 0.706000 -0.313435
v 0.629000 0.000000 -0.271000
v 0.616272 0.000000 -0.276272
v 0.611000 0.000000 -0.289000
v 0.611000 0.000000 -0.311000
v 0.616272 0.000000 -0.323728
v 0.629000 0.000000 -0.329000
v 0.651000 0.000000 -0.329000
v 0.663728 0.000000 -0.323728
v 0.669000 0.000000 -0.311000
v 0.669000 0.000000 -0.289000
v 0.663728 0.000000 -0.276272
v 0.651000 0.000000 -0.271000
v 0.649000 0.030000 -0.275000
v 0.660314 0.030000 -0.279686
v 0.665000 0.030000 -0.291000
v 0.665000 0.030000 -0.309000
v 0.660314 0.030000 -0.320314
v 0.649000 0.030000 -0.325000
v 0.631000 0.030000 -0.325000
v 0.619686 0.030000 -0.320314
v 0.615000 0.030000 -0.309000
v 0.615000 0.030000 -0.291000
v 0.619686 0.030000 -0.279686
v 0.631000 0.030000 -0.275000
v 0.650607 0.066607 0.300000
v 0.640000 0.071000 0.300000
v 0.629393 0.066607 0.300000
v 0.625000 0.056000 0.300000
v 0.629393 0.045393 0.300000
v 0.640000 0.041000 0.300000
v 0.650607 0.045393 0.300000
v 0.655000 0.056000 0.300000
v 0.655000 0.056000 -0.300000
v 0.650607 0.045393 -0.300000
v 0.640000 0.041000 -0.300000
v 0.629393 0.045393 -0.300000
v 0.625000 0.056000 -0.300000
v 0.629393 0.066607 -0.300000
v 0.640000 0.071000 -0.300000
v 0.650607 0.066607 -0.300000
v 0.652021 0.698021 0.300000
v 0.640000 0.703000 0.300000
v 0.627979 0.698021 0.300000
v 0.623000 0.686000 0.300000
v 0.627979 0.673979 0.300000
v 0.640000 0.669000 0.300000
v 0.652021 0.673979 0.300000
v 0.657000 0.686000 0.300000
v 0.657000 0.686000 -0.300000
v 0.652021 0.673979 -0.300000
v 0.640000 0.669000 -0.300000
v 0.627979 0.673979 -0.300000
v 0.623000 0.686000 -0.300000
v 0.627979 0.698021 -0.300000
v 0.640000 0.703000 -0.300000
v 0.652021 0.698021 -0.300000
v 0.648542 0.293334 0.293500
v 0.648542 0.293334 0.306500
v 0.640000 0.286000 0.313000
v 0.631458 0.278666 0.306500
v 0.631458 0.278666 0.293500
v 0.640000 0.286000 0.287000
v 0.300000 0.682000 0.287000
v 0.291458 0.674666 0.293500
v 0.291458 0.674666 0.306500
v 0.300000 0.682000 0.313000
v 0.308542 0.689334 0.306500
v 0.308542 0.689334 0.293500
v 0.648542 0.293334 -0.306500
v 0.648542 0.293334 -0.293500
v 0.640000 0.286000 -0.287000
v 0.631458 0.278666 -0.293500
v 0.631458 0.278666 -0.306500
v 0.640000 0.286000 -0.313000
v 0.300000 0.682000 -0.313000
v 0.291458 0.674666 -0.306500
v 0.291458 0.674666 -0.293500
v 0.300000 0.682000 -0.287000
v 0.308542 0.689334 -0.293500
v 0.308542 0.689334 -0.306500
v -0.868540 0.710000 0.372657
v -0.886810 0.710000 0.365090
v -0.894378 0.710000 0.346820
v -0.894378 0.710000 -0.346820
v -0.886810 0.710000 -0.365090
v -0.868540 0.710000 -0.372657
v 0.868540 0.710000 -0.372657
v 0.886810 0.710000 -0.365090
v 0.894378 0.710000 -0.346820
v 0.894378 0.710000 0.346820
v 0.886810 0.710000 0.365090
v 0.868540 0.710000 0.372657
v 0.892385 0.716000 0.367385
v 0.874000 0.716000 0.375000
v 0.900000 0.716000 0.349000
v 0.900000 0.716000 -0.349000
v 0.892385 0.716000 -0.367385
v 0.874000 0.716000 -0.375000
v -0.874000 0.716000 -0.375000
v -0.892385 0.716000 -0.367385
v -0.900000 0.716000 -0.349000
v -0.900000 0.716000 0.349000
v -0.892385 0.716000 0.367385
v -0.874000 0.716000 0.375000
v 0.892385 0.734000 0.367385
v 0.874000 0.734000 0.375000
v 0.900000 0.734000 0.349000
v 0.900000 0.734000 -0.349000
v 0.892385 0.734000 -0.367385
v 0.874000 0.734000 -0.375000
v -0.874000 0.734000 -0.375000
v -0.892385 0.734000 -0.367385
v -0.900000 0.734000 -0.349000
v -0.900000 0.734000 0.349000
v -0.892385 0.734000 0.367385
v -0.874000 0.734000 0.375000
v 0.868540 0.740000 0.372657
v 0.886810 0.740000 0.365090
v 0.894378 0.740000 0.346820
v 0.894378 0.740000 -0.346820
v 0.886810 0.740000 -0.365090
v 0.868540 0.740000 -0.372657
v -0.868540 0.740000 -0.372657
v -0.886810 0.740000 -0.365090
v -0.894378 0.740000 -0.346820
v -0.894378 0.740000 0.346820
v -0.886810 0.740000 0.365090
v -0.868540 0.740000 0.372657
vn -0.0000 -1.0000 -0.0000
vn -0.0000 1.0000 -0.0000
vn -0.0000 -0.0000 1.0000
vn -0.0000 -0.0000 -1.0000
vn -1.0000 -0.0000 -0.0000
vn 1.0000 -0.0000 -0.0000
vn -0.9239 -0.0000 0.3827
vn -0.3827 -0.0000 0.9239
vn 0.3827 -0.0000 0.9239
vn 0.9239 -0.0000 0.3827
vn 0.9239 -0.0000 -0.3827
vn 0.3827 -0.0000 -0.9239
vn -0.3827 -0.0000 -0.9239
vn -0.9239 -0.0000 -0.3827
vn 0.3785 0.1471 0.9138
vn 0.9138 0.1471 0.3785
vn 0.9912 0.1322 -0.0000
vn 0.9138 0.1471 -0.3785
vn 0.3785 0.1471 -0.9138
vn -0.0000 0.1322 -0.9912
vn -0.3785 0.1471 -0.9138
vn -0.9138 0.1471 -0.3785
vn -0.9912 0.1322 -0.0000
vn -0.9138 0.1471 0.3785
vn -0.3785 0.1471 0.9138
vn -0.0000 0.1322 0.9912
vn 0.9239 -0.3827 -0.0000
vn 0.3827 -0.9239 -0.0000
vn -0.3827 -0.9239 -0.0000
vn -0.9239 -0.3827 -0.0000
vn -0.9239 0.3827 -0.0000
vn -0.3827 0.9239 -0.0000
vn 0.3827 0.9239 -0.0000
vn 0.9239 0.3827 -0.0000
vn -0.6514 -0.7587 -0.0000
vn 0.6514 0.7587 -0.0000
vn 0.3794 -0.3257 0.8660
vn 0.7587 -0.6514 -0.0000
vn 0.3794 -0.3257 -0.8660
vn -0.3794 0.3257 -0.8660
vn -0.7587 0.6514 -0.0000
vn -0.3794 0.3257 0.8660
vn 0.6514 -0.7587 -0.0000
vn -0.6514 0.7587 -0.0000
vn -0.3794 -0.3257 -0.8660
vn -0.7587 -0.6514 -0.0000
vn -0.3794 -0.3257 0.8660
vn 0.3794 0.3257 0.8660
vn 0.7587 0.6514 -0.0000
vn 0.3794 0.3257 -0.8660
vn 0.3122 -0.5783 0.7537
vn 0.6517 -0.7088 0.2700
vn 0.7297 -0.6838 -0.0000
vn 0.6517 -0.7088 -0.2700
vn 0.3122 -0.5783 -0.7537
vn -0.0000 -0.3637 -0.9315
vn -0.3122 -0.5783 -0.7537
vn -0.6517 -0.7088 -0.2700
vn -0.7297 -0.6838 -0.0000
vn -0.6517 -0.7088 0.2700
vn -0.3122 -0.5783 0.7537
vn -0.0000 -0.3637 0.9315
vn 0.3122 0.5783 0.7537
vn 0.6517 0.7088 0.2700
vn 0.7297 0.6838 -0.0000
vn 0.6517 0.7088 -0.2700
vn 0.3122 0.5783 -0.7537
vn -0.0000 0.3637 -0.9315
vn -0.3122 0.5783 -0.7537
vn -0.6517 0.7088 -0.2700
vn -0.7297 0.6838 -0.0000
vn -0.6517 0.7088 0.2700
vn -0.3122 0.5783 0.7537
vn -0.0000 0.3637 0.9315
vt 0.812500 0.312500
vt 0.937500 0.187500
vt 0.562500 0.937500
vt 0.312500 0.937500
s 0
usemtl FN_Atlas
f 1/1/1 2/1/1 3/1/1 4/1/1
f 5/1/2 6/1/2 7/1/2 8/1/2
f 1/1/3 4/1/3 6/1/3 5/1/3
f 3/1/4 2/1/4 8/1/4 7/1/4
f 1/1/5 5/1/5 8/1/5 2/1/5
f 4/1/6 3/1/6 7/1/6 6/1/6
f 9/1/1 10/1/1 11/1/1 12/1/1
f 13/1/2 14/1/2 15/1/2 16/1/2
f 9/1/3 12/1/3 14/1/3 13/1/3
f 11/1/4 10/1/4 16/1/4 15/1/4
f 9/1/5 13/1/5 16/1/5 10/1/5
f 12/1/6 11/1/6 15/1/6 14/1/6
f 1/1/1 10/1/1 17/1/1 18/1/1
f 5/1/2 19/1/2 20/1/2 16/1/2
f 1/1/3 18/1/3 19/1/3 5/1/3
f 17/1/4 10/1/4 16/1/4 20/1/4
f 1/1/5 5/1/5 16/1/5 10/1/5
f 18/1/6 17/1/6 20/1/6 19/1/6
f 21/1/1 22/1/1 11/1/1 4/1/1
f 23/1/2 6/1/2 15/1/2 24/1/2
f 21/1/3 4/1/3 6/1/3 23/1/3
f 11/1/4 22/1/4 24/1/4 15/1/4
f 21/1/5 23/1/5 24/1/5 22/1/5
f 4/1/6 11/1/6 15/1/6 6/1/6
f 25/1/1 26/1/1 27/1/1 28/1/1 29/1/1 30/1/1 31/1/1 32/1/1
f 33/1/2 34/1/2 35/1/2 36/1/2 37/1/2 38/1/2 39/1/2 40/1/2
f 32/1/7 31/1/7 34/1/7 33/1/7
f 31/1/8 30/1/8 35/1/8 34/1/8
f 30/1/9 29/1/9 36/1/9 35/1/9
f 29/1/10 28/1/10 37/1/10 36/1/10
f 28/1/11 27/1/11 38/1/11 37/1/11
f 27/1/12 26/1/12 39/1/12 38/1/12
f 26/1/13 25/1/13 40/1/13 39/1/13
f 25/1/14 32/1/14 33/1/14 40/1/14
f 41/2/1 42/2/1 43/2/1 44/2/1 45/2/1 46/2/1 47/2/1 48/2/1 49/2/1 50/2/1 51/2/1 52/2/1
f 53/2/2 54/2/2 55/2/2 56/2/2 57/2/2 58/2/2 59/2/2 60/2/2 61/2/2 62/2/2 63/2/2 64/2/2
f 52/2/15 51/2/15 54/2/15 53/2/15
f 51/2/16 50/2/16 55/2/16 54/2/16
f 50/2/17 49/2/17 56/2/17 55/2/17
f 49/2/18 48/2/18 57/2/18 56/2/18
f 48/2/19 47/2/19 58/2/19 57/2/19
f 47/2/20 46/2/20 59/2/20 58/2/20
f 46/2/21 45/2/21 60/2/21 59/2/21
f 45/2/22 44/2/22 61/2/22 60/2/22
f 44/2/23 43/2/23 62/2/23 61/2/23
f 43/2/24 42/2/24 63/2/24 62/2/24
f 42/2/25 41/2/25 64/2/25 63/2/25
f 41/2/26 52/2/26 53/2/26 64/2/26
f 65/1/1 66/1/1 67/1/1 68/1/1 69/1/1 70/1/1 71/1/1 72/1/1
f 73/1/2 74/1/2 75/1/2 76/1/2 77/1/2 78/1/2 79/1/2 80/1/2
f 72/1/7 71/1/7 74/1/7 73/1/7
f 71/1/8 70/1/8 75/1/8 74/1/8
f 70/1/9 69/1/9 76/1/9 75/1/9
f 69/1/10 68/1/10 77/1/10 76/1/10
f 68/1/11 67/1/11 78/1/11 77/1/11
f 67/1/12 66/1/12 79/1/12 78/1/12
f 66/1/13 65/1/13 80/1/13 79/1/13
f 65/1/14 72/1/14 73/1/14 80/1/14
f 81/2/1 82/2/1 83/2/1 84/2/1 85/2/1 86/2/1 87/2/1 88/2/1 89/2/1 90/2/1 91/2/1 92/2/1
f 93/2/2 94/2/2 95/2/2 96/2/2 97/2/2 98/2/2 99/2/2 100/2/2 101/2/2 102/2/2 103/2/2 104/2/2
f 92/2/15 91/2/15 94/2/15 93/2/15
f 91/2/16 90/2/16 95/2/16 94/2/16
f 90/2/17 89/2/17 96/2/17 95/2/17
f 89/2/18 88/2/18 97/2/18 96/2/18
f 88/2/19 87/2/19 98/2/19 97/2/19
f 87/2/20 86/2/20 99/2/20 98/2/20
f 86/2/21 85/2/21 100/2/21 99/2/21
f 85/2/22 84/2/22 101/2/22 100/2/22
f 84/2/23 83/2/23 102/2/23 101/2/23
f 83/2/24 82/2/24 103/2/24 102/2/24
f 82/2/25 81/2/25 104/2/25 103/2/25
f 81/2/26 92/2/26 93/2/26 104/2/26
f 105/1/3 106/1/3 107/1/3 108/1/3 109/1/3 110/1/3 111/1/3 112/1/3
f 113/1/4 114/1/4 115/1/4 116/1/4 117/1/4 118/1/4 119/1/4 120/1/4
f 112/1/27 111/1/27 114/1/27 113/1/27
f 111/1/28 110/1/28 115/1/28 114/1/28
f 110/1/29 109/1/29 116/1/29 115/1/29
f 109/1/30 108/1/30 117/1/30 116/1/30
f 108/1/31 107/1/31 118/1/31 117/1/31
f 107/1/32 106/1/32 119/1/32 118/1/32
f 106/1/33 105/1/33 120/1/33 119/1/33
f 105/1/34 112/1/34 113/1/34 120/1/34
f 121/1/3 122/1/3 123/1/3 124/1/3 125/1/3 126/1/3 127/1/3 128/1/3
f 129/1/4 130/1/4 131/1/4 132/1/4 133/1/4 134/1/4 135/1/4 136/1/4
f 128/1/27 127/1/27 130/1/27 129/1/27
f 127/1/28 126/1/28 131/1/28 130/1/28
f 126/1/29 125/1/29 132/1/29 131/1/29
f 125/1/30 124/1/30 133/1/30 132/1/30
f 124/1/31 123/1/31 134/1/31 133/1/31
f 123/1/32 122/1/32 135/1/32 134/1/32
f 122/1/33 121/1/33 136/1/33 135/1/33
f 121/1/34 128/1/34 129/1/34 136/1/34
f 137/1/35 138/1/35 139/1/35 140/1/35 141/1/35 142/1/35
f 143/1/36 144/1/36 145/1/36 146/1/36 147/1/36 148/1/36
f 142/1/37 141/1/37 144/1/37 143/1/37
f 141/1/38 140/1/38 145/1/38 144/1/38
f 140/1/39 139/1/39 146/1/39 145/1/39
f 139/1/40 138/1/40 147/1/40 146/1/40
f 138/1/41 137/1/41 148/1/41 147/1/41
f 137/1/42 142/1/42 143/1/42 148/1/42
f 149/1/35 150/1/35 151/1/35 152/1/35 153/1/35 154/1/35
f 155/1/36 156/1/36 157/1/36 158/1/36 159/1/36 160/1/36
f 154/1/37 153/1/37 156/1/37 155/1/37
f 153/1/38 152/1/38 157/1/38 156/1/38
f 152/1/39 151/1/39 158/1/39 157/1/39
f 151/1/40 150/1/40 159/1/40 158/1/40
f 150/1/41 149/1/41 160/1/41 159/1/41
f 149/1/42 154/1/42 155/1/42 160/1/42
f 161/1/1 162/1/1 163/1/1 164/1/1 165/1/1 166/1/1 167/1/1 168/1/1
f 169/1/2 170/1/2 171/1/2 172/1/2 173/1/2 174/1/2 175/1/2 176/1/2
f 168/1/7 167/1/7 170/1/7 169/1/7
f 167/1/8 166/1/8 171/1/8 170/1/8
f 166/1/9 165/1/9 172/1/9 171/1/9
f 165/1/10 164/1/10 173/1/10 172/1/10
f 164/1/11 163/1/11 174/1/11 173/1/11
f 163/1/12 162/1/12 175/1/12 174/1/12
f 162/1/13 161/1/13 176/1/13 175/1/13
f 161/1/14 168/1/14 169/1/14 176/1/14
f 177/2/1 178/2/1 179/2/1 180/2/1 181/2/1 182/2/1 183/2/1 184/2/1 185/2/1 186/2/1 187/2/1 188/2/1
f 189/2/2 190/2/2 191/2/2 192/2/2 193/2/2 194/2/2 195/2/2 196/2/2 197/2/2 198/2/2 199/2/2 200/2/2
f 188/2/15 187/2/15 190/2/15 189/2/15
f 187/2/16 186/2/16 191/2/16 190/2/16
f 186/2/17 185/2/17 192/2/17 191/2/17
f 185/2/18 184/2/18 193/2/18 192/2/18
f 184/2/19 183/2/19 194/2/19 193/2/19
f 183/2/20 182/2/20 195/2/20 194/2/20
f 182/2/21 181/2/21 196/2/21 195/2/21
f 181/2/22 180/2/22 197/2/22 196/2/22
f 180/2/23 179/2/23 198/2/23 197/2/23
f 179/2/24 178/2/24 199/2/24 198/2/24
f 178/2/25 177/2/25 200/2/25 199/2/25
f 177/2/26 188/2/26 189/2/26 200/2/26
f 201/1/1 202/1/1 203/1/1 204/1/1 205/1/1 206/1/1 207/1/1 208/1/1
f 209/1/2 210/1/2 211/1/2 212/1/2 213/1/2 214/1/2 215/1/2 216/1/2
f 208/1/7 207/1/7 210/1/7 209/1/7
f 207/1/8 206/1/8 211/1/8 210/1/8
f 206/1/9 205/1/9 212/1/9 211/1/9
f 205/1/10 204/1/10 213/1/10 212/1/10
f 204/1/11 203/1/11 214/1/11 213/1/11
f 203/1/12 202/1/12 215/1/12 214/1/12
f 202/1/13 201/1/13 216/1/13 215/1/13
f 201/1/14 208/1/14 209/1/14 216/1/14
f 217/2/1 218/2/1 219/2/1 220/2/1 221/2/1 222/2/1 223/2/1 224/2/1 225/2/1 226/2/1 227/2/1 228/2/1
f 229/2/2 230/2/2 231/2/2 232/2/2 233/2/2 234/2/2 235/2/2 236/2/2 237/2/2 238/2/2 239/2/2 240/2/2
f 228/2/15 227/2/15 230/2/15 229/2/15
f 227/2/16 226/2/16 231/2/16 230/2/16
f 226/2/17 225/2/17 232/2/17 231/2/17
f 225/2/18 224/2/18 233/2/18 232/2/18
f 224/2/19 223/2/19 234/2/19 233/2/19
f 223/2/20 222/2/20 235/2/20 234/2/20
f 222/2/21 221/2/21 236/2/21 235/2/21
f 221/2/22 220/2/22 237/2/22 236/2/22
f 220/2/23 219/2/23 238/2/23 237/2/23
f 219/2/24 218/2/24 239/2/24 238/2/24
f 218/2/25 217/2/25 240/2/25 239/2/25
f 217/2/26 228/2/26 229/2/26 240/2/26
f 241/1/3 242/1/3 243/1/3 244/1/3 245/1/3 246/1/3 247/1/3 248/1/3
f 249/1/4 250/1/4 251/1/4 252/1/4 253/1/4 254/1/4 255/1/4 256/1/4
f 248/1/27 247/1/27 250/1/27 249/1/27
f 247/1/28 246/1/28 251/1/28 250/1/28
f 246/1/29 245/1/29 252/1/29 251/1/29
f 245/1/30 244/1/30 253/1/30 252/1/30
f 244/1/31 243/1/31 254/1/31 253/1/31
f 243/1/32 242/1/32 255/1/32 254/1/32
f 242/1/33 241/1/33 256/1/33 255/1/33
f 241/1/34 248/1/34 249/1/34 256/1/34
f 257/1/3 258/1/3 259/1/3 260/1/3 261/1/3 262/1/3 263/1/3 264/1/3
f 265/1/4 266/1/4 267/1/4 268/1/4 269/1/4 270/1/4 271/1/4 272/1/4
f 264/1/27 263/1/27 266/1/27 265/1/27
f 263/1/28 262/1/28 267/1/28 266/1/28
f 262/1/29 261/1/29 268/1/29 267/1/29
f 261/1/30 260/1/30 269/1/30 268/1/30
f 260/1/31 259/1/31 270/1/31 269/1/31
f 259/1/32 258/1/32 271/1/32 270/1/32
f 258/1/33 257/1/33 272/1/33 271/1/33
f 257/1/34 264/1/34 265/1/34 272/1/34
f 273/1/43 274/1/43 275/1/43 276/1/43 277/1/43 278/1/43
f 279/1/44 280/1/44 281/1/44 282/1/44 283/1/44 284/1/44
f 278/1/45 277/1/45 280/1/45 279/1/45
f 277/1/46 276/1/46 281/1/46 280/1/46
f 276/1/47 275/1/47 282/1/47 281/1/47
f 275/1/48 274/1/48 283/1/48 282/1/48
f 274/1/49 273/1/49 284/1/49 283/1/49
f 273/1/50 278/1/50 279/1/50 284/1/50
f 285/1/43 286/1/43 287/1/43 288/1/43 289/1/43 290/1/43
f 291/1/44 292/1/44 293/1/44 294/1/44 295/1/44 296/1/44
f 290/1/45 289/1/45 292/1/45 291/1/45
f 289/1/46 288/1/46 293/1/46 292/1/46
f 288/1/47 287/1/47 294/1/47 293/1/47
f 287/1/48 286/1/48 295/1/48 294/1/48
f 286/1/49 285/1/49 296/1/49 295/1/49
f 285/1/50 290/1/50 291/1/50 296/1/50
f 297/3/1 298/3/1 299/3/1 300/3/1 301/3/1 302/3/1 303/3/1 304/3/1 305/3/1 306/3/1 307/3/1 308/3/1
f 308/3/51 307/3/51 309/3/51 310/3/51
f 307/3/52 306/3/52 311/3/52 309/3/52
f 306/3/53 305/3/53 312/3/53 311/3/53
f 305/3/54 304/3/54 313/3/54 312/3/54
f 304/3/55 303/3/55 314/3/55 313/3/55
f 303/3/56 302/3/56 315/3/56 314/3/56
f 302/3/57 301/3/57 316/3/57 315/3/57
f 301/3/58 300/3/58 317/3/58 316/3/58
f 300/3/59 299/3/59 318/3/59 317/3/59
f 299/3/60 298/3/60 319/3/60 318/3/60
f 298/3/61 297/3/61 320/3/61 319/3/61
f 297/3/62 308/3/62 310/3/62 320/3/62
f 310/3/9 309/3/9 321/3/9 322/3/9
f 309/3/10 311/3/10 323/3/10 321/3/10
f 311/3/6 312/3/6 324/3/6 323/3/6
f 312/3/11 313/3/11 325/3/11 324/3/11
f 313/3/12 314/3/12 326/3/12 325/3/12
f 314/3/4 315/3/4 327/3/4 326/3/4
f 315/3/13 316/3/13 328/3/13 327/3/13
f 316/3/14 317/3/14 329/3/14 328/3/14
f 317/3/5 318/3/5 330/3/5 329/3/5
f 318/3/7 319/3/7 331/3/7 330/3/7
f 319/3/8 320/3/8 332/3/8 331/3/8
f 320/3/3 310/3/3 322/3/3 332/3/3
f 333/4/2 334/4/2 335/4/2 336/4/2 337/4/2 338/4/2 339/4/2 340/4/2 341/4/2 342/4/2 343/4/2 344/4/2
f 322/3/63 321/3/63 334/3/63 333/3/63
f 321/3/64 323/3/64 335/3/64 334/3/64
f 323/3/65 324/3/65 336/3/65 335/3/65
f 324/3/66 325/3/66 337/3/66 336/3/66
f 325/3/67 326/3/67 338/3/67 337/3/67
f 326/3/68 327/3/68 339/3/68 338/3/68
f 327/3/69 328/3/69 340/3/69 339/3/69
f 328/3/70 329/3/70 341/3/70 340/3/70
f 329/3/71 330/3/71 342/3/71 341/3/71
f 330/3/72 331/3/72 343/3/72 342/3/72
f 331/3/73 332/3/73 344/3/73 343/3/73
f 332/3/74 322/3/74 333/3/74 344/3/74
