# Blender 5.2.0 LTS
# www.blender.org
mtllib FN_Table_Garden.mtl
o FN_Table_Garden
v -0.660000 0.000000 0.410000
v -0.660000 0.000000 0.370000
v -0.620000 0.000000 0.370000
v -0.620000 0.000000 0.410000
v -0.660000 0.690000 0.410000
v -0.620000 0.690000 0.410000
v -0.620000 0.690000 0.370000
v -0.660000 0.690000 0.370000
v -0.660000 0.000000 -0.370000
v -0.660000 0.000000 -0.410000
v -0.620000 0.000000 -0.410000
v -0.620000 0.000000 -0.370000
v -0.660000 0.690000 -0.370000
v -0.620000 0.690000 -0.370000
v -0.620000 0.690000 -0.410000
v -0.660000 0.690000 -0.410000
v 0.620000 0.000000 0.410000
v 0.620000 0.000000 0.370000
v 0.660000 0.000000 0.370000
v 0.660000 0.000000 0.410000
v 0.620000 0.690000 0.410000
v 0.660000 0.690000 0.410000
v 0.660000 0.690000 0.370000
v 0.620000 0.690000 0.370000
v 0.620000 0.000000 -0.370000
v 0.620000 0.000000 -0.410000
v 0.660000 0.000000 -0.410000
v 0.660000 0.000000 -0.370000
v 0.620000 0.690000 -0.370000
v 0.660000 0.690000 -0.370000
v 0.660000 0.690000 -0.410000
v 0.620000 0.690000 -0.410000
v -0.660000 0.140000 0.410000
v -0.660000 0.140000 -0.410000
v -0.620000 0.140000 -0.410000
v -0.620000 0.140000 0.410000
v -0.660000 0.180000 0.410000
v -0.620000 0.180000 0.410000
v -0.620000 0.180000 -0.410000
v -0.660000 0.180000 -0.410000
v 0.620000 0.140000 0.410000
v 0.620000 0.140000 -0.410000
v 0.660000 0.140000 -0.410000
v 0.660000 0.140000 0.410000
v 0.620000 0.180000 0.410000
v 0.660000 0.180000 0.410000
v 0.660000 0.180000 -0.410000
v 0.620000 0.180000 -0.410000
v -0.660000 0.148000 0.020000
v -0.660000 0.148000 -0.020000
v 0.660000 0.148000 -0.020000
v 0.660000 0.148000 0.020000
v -0.660000 0.172000 0.020000
v 0.660000 0.172000 0.020000
v 0.660000 0.172000 -0.020000
v -0.660000 0.172000 -0.020000
v -0.660000 0.660000 0.410000
v -0.660000 0.660000 -0.410000
v -0.620000 0.660000 -0.410000
v -0.620000 0.660000 0.410000
v -0.660000 0.700000 0.410000
v -0.620000 0.700000 0.410000
v -0.620000 0.700000 -0.410000
v -0.660000 0.700000 -0.410000
v 0.620000 0.660000 0.410000
v 0.620000 0.660000 -0.410000
v 0.660000 0.660000 -0.410000
v 0.660000 0.660000 0.410000
v 0.620000 0.700000 0.410000
v 0.660000 0.700000 0.410000
v 0.660000 0.700000 -0.410000
v 0.620000 0.700000 -0.410000
v -0.760000 0.690000 0.354000
v -0.760000 0.690000 0.306000
v 0.760000 0.690000 0.306000
v 0.760000 0.690000 0.354000
v -0.760000 0.726000 0.354000
v 0.760000 0.726000 0.354000
v 0.760000 0.726000 0.306000
v -0.760000 0.726000 0.306000
v -0.760000 0.690000 -0.306000
v -0.760000 0.690000 -0.354000
v 0.760000 0.690000 -0.354000
v 0.760000 0.690000 -0.306000
v -0.760000 0.726000 -0.306000
v 0.760000 0.726000 -0.306000
v 0.760000 0.726000 -0.354000
v -0.760000 0.726000 -0.354000
v -0.137700 0.720000 0.450000
v -0.137700 0.720000 -0.450000
v -0.048000 0.720000 -0.450000
v -0.048000 0.720000 0.450000
v -0.137700 0.740000 0.450000
v -0.048000 0.740000 0.450000
v -0.048000 0.740000 -0.450000
v -0.137700 0.740000 -0.450000
v -0.241400 0.720000 0.450000
v -0.241400 0.720000 -0.450000
v -0.151700 0.720000 -0.450000
v -0.151700 0.720000 0.450000
v -0.241400 0.740000 0.450000
v -0.151700 0.740000 0.450000
v -0.151700 0.740000 -0.450000
v -0.241400 0.740000 -0.450000
v -0.345100 0.720000 0.450000
v -0.345100 0.720000 -0.450000
v -0.255400 0.720000 -0.450000
v -0.255400 0.720000 0.450000
v -0.345100 0.740000 0.450000
v -0.255400 0.740000 0.450000
v -0.255400 0.740000 -0.450000
v -0.345100 0.740000 -0.450000
v -0.448800 0.720000 0.450000
v -0.448800 0.720000 -0.450000
v -0.359100 0.720000 -0.450000
v -0.359100 0.720000 0.450000
v -0.448800 0.740000 0.450000
v -0.359100 0.740000 0.450000
v -0.359100 0.740000 -0.450000
v -0.448800 0.740000 -0.450000
v -0.552500 0.720000 0.450000
v -0.552500 0.720000 -0.450000
v -0.462800 0.720000 -0.450000
v -0.462800 0.720000 0.450000
v -0.552500 0.740000 0.450000
v -0.462800 0.740000 0.450000
v -0.462800 0.740000 -0.450000
v -0.552500 0.740000 -0.450000
v -0.656200 0.720000 0.450000
v -0.656200 0.720000 -0.450000
v -0.566500 0.720000 -0.450000
v -0.566500 0.720000 0.450000
v -0.656200 0.740000 0.450000
v -0.566500 0.740000 0.450000
v -0.566500 0.740000 -0.450000
v -0.656200 0.740000 -0.450000
v -0.759900 0.720000 0.450000
v -0.759900 0.720000 -0.450000
v -0.670200 0.720000 -0.450000
v -0.670200 0.720000 0.450000
v -0.759900 0.740000 0.450000
v -0.670200 0.740000 0.450000
v -0.670200 0.740000 -0.450000
v -0.759900 0.740000 -0.450000
v 0.048000 0.720000 0.450000
v 0.048000 0.720000 -0.450000
v 0.137700 0.720000 -0.450000
v 0.137700 0.720000 0.450000
v 0.048000 0.740000 0.450000
v 0.137700 0.740000 0.450000
v 0.137700 0.740000 -0.450000
v 0.048000 0.740000 -0.450000
v 0.151700 0.720000 0.450000
v 0.151700 0.720000 -0.450000
v 0.241400 0.720000 -0.450000
v 0.241400 0.720000 0.450000
v 0.151700 0.740000 0.450000
v 0.241400 0.740000 0.450000
v 0.241400 0.740000 -0.450000
v 0.151700 0.740000 -0.450000
v 0.255400 0.720000 0.450000
v 0.255400 0.720000 -0.450000
v 0.345100 0.720000 -0.450000
v 0.345100 0.720000 0.450000
v 0.255400 0.740000 0.450000
v 0.345100 0.740000 0.450000
v 0.345100 0.740000 -0.450000
v 0.255400 0.740000 -0.450000
v 0.359100 0.720000 0.450000
v 0.359100 0.720000 -0.450000
v 0.448800 0.720000 -0.450000
v 0.448800 0.720000 0.450000
v 0.359100 0.740000 0.450000
v 0.448800 0.740000 0.450000
v 0.448800 0.740000 -0.450000
v 0.359100 0.740000 -0.450000
v 0.462800 0.720000 0.450000
v 0.462800 0.720000 -0.450000
v 0.552500 0.720000 -0.450000
v 0.552500 0.720000 0.450000
v 0.462800 0.740000 0.450000
v 0.552500 0.740000 0.450000
v 0.552500 0.740000 -0.450000
v 0.462800 0.740000 -0.450000
v 0.566500 0.720000 0.450000
v 0.566500 0.720000 -0.450000
v 0.656200 0.720000 -0.450000
v 0.656200 0.720000 0.450000
v 0.566500 0.740000 0.450000
v 0.656200 0.740000 0.450000
v 0.656200 0.740000 -0.450000
v 0.566500 0.740000 -0.450000
v 0.670200 0.720000 0.450000
v 0.670200 0.720000 -0.450000
v 0.759900 0.720000 -0.450000
v 0.759900 0.720000 0.450000
v 0.670200 0.740000 0.450000
v 0.759900 0.740000 0.450000
v 0.759900 0.740000 -0.450000
v 0.670200 0.740000 -0.450000
v -0.041000 0.720000 0.450000
v -0.041000 0.720000 0.042000
v 0.041000 0.720000 0.042000
v 0.041000 0.720000 0.450000
v -0.041000 0.740000 0.450000
v 0.041000 0.740000 0.450000
v 0.041000 0.740000 0.042000
v -0.041000 0.740000 0.042000
v -0.041000 0.720000 -0.042000
v -0.041000 0.720000 -0.450000
v 0.041000 0.720000 -0.450000
v 0.041000 0.720000 -0.042000
v -0.041000 0.740000 -0.042000
v 0.041000 0.740000 -0.042000
v 0.041000 0.740000 -0.450000
v -0.041000 0.740000 -0.450000
v -0.070000 0.734000 0.071000
v -0.070000 0.734000 0.037000
v 0.070000 0.734000 0.037000
v 0.070000 0.734000 0.071000
v -0.070000 0.750000 0.071000
v 0.070000 0.750000 0.071000
v 0.070000 0.750000 0.037000
v -0.070000 0.750000 0.037000
v -0.070000 0.734000 -0.037000
v -0.070000 0.734000 -0.071000
v 0.070000 0.734000 -0.071000
v 0.070000 0.734000 -0.037000
v -0.070000 0.750000 -0.037000
v 0.070000 0.750000 -0.037000
v 0.070000 0.750000 -0.071000
v -0.070000 0.750000 -0.071000
v -0.066000 0.734000 0.052000
v -0.066000 0.734000 -0.052000
v -0.036000 0.734000 -0.052000
v -0.036000 0.734000 0.052000
v -0.066000 0.750000 0.052000
v -0.036000 0.750000 0.052000
v -0.036000 0.750000 -0.052000
v -0.066000 0.750000 -0.052000
v 0.036000 0.734000 0.052000
v 0.036000 0.734000 -0.052000
v 0.066000 0.734000 -0.052000
v 0.066000 0.734000 0.052000
v 0.036000 0.750000 0.052000
v 0.066000 0.750000 0.052000
v 0.066000 0.750000 -0.052000
v 0.036000 0.750000 -0.052000
vn -0.0000 -1.0000 -0.0000
vn -0.0000 1.0000 -0.0000
vn -0.0000 -0.0000 1.0000
vn -0.0000 -0.0000 -1.0000
vn -1.0000 -0.0000 -0.0000
vn 1.0000 -0.0000 -0.0000
vt 0.812500 0.312500
vt 0.437500 0.937500
s 0
usemtl FN_Atlas
f 1/1/1 2/1/1 3/1/1 4/1/1
f 5/1/2 6/1/2 7/1/2 8/1/2
f 1/1/3 4/1/3 6/1/3 5/1/3
f 3/1/4 2/1/4 8/1/4 7/1/4
f 1/1/5 5/1/5 8/1/5 2/1/5
f 4/1/6 3/1/6 7/1/6 6/1/6
f 9/1/1 10/1/1 11/1/1 12/1/1
f 13/1/2 14/1/2 15/1/2 16/1/2
f 9/1/3 12/1/3 14/1/3 13/1/3
f 11/1/4 10/1/4 16/1/4 15/1/4
f 9/1/5 13/1/5 16/1/5 10/1/5
f 12/1/6 11/1/6 15/1/6 14/1/6
f 17/1/1 18/1/1 19/1/1 20/1/1
f 21/1/2 22/1/2 23/1/2 24/1/2
f 17/1/3 20/1/3 22/1/3 21/1/3
f 19/1/4 18/1/4 24/1/4 23/1/4
f 17/1/5 21/1/5 24/1/5 18/1/5
f 20/1/6 19/1/6 23/1/6 22/1/6
f 25/1/1 26/1/1 27/1/1 28/1/1
f 29/1/2 30/1/2 31/1/2 32/1/2
f 25/1/3 28/1/3 30/1/3 29/1/3
f 27/1/4 26/1/4 32/1/4 31/1/4
f 25/1/5 29/1/5 32/1/5 26/1/5
f 28/1/6 27/1/6 31/1/6 30/1/6
f 33/1/1 34/1/1 35/1/1 36/1/1
f 37/1/2 38/1/2 39/1/2 40/1/2
f 33/1/3 36/1/3 38/1/3 37/1/3
f 35/1/4 34/1/4 40/1/4 39/1/4
f 33/1/5 37/1/5 40/1/5 34/1/5
f 36/1/6 35/1/6 39/1/6 38/1/6
f 41/1/1 42/1/1 43/1/1 44/1/1
f 45/1/2 46/1/2 47/1/2 48/1/2
f 41/1/3 44/1/3 46/1/3 45/1/3
f 43/1/4 42/1/4 48/1/4 47/1/4
f 41/1/5 45/1/5 48/1/5 42/1/5
f 44/1/6 43/1/6 47/1/6 46/1/6
f 49/1/1 50/1/1 51/1/1 52/1/1
f 53/1/2 54/1/2 55/1/2 56/1/2
f 49/1/3 52/1/3 54/1/3 53/1/3
f 51/1/4 50/1/4 56/1/4 55/1/4
f 49/1/5 53/1/5 56/1/5 50/1/5
f 52/1/6 51/1/6 55/1/6 54/1/6
f 57/1/1 58/1/1 59/1/1 60/1/1
f 61/1/2 62/1/2 63/1/2 64/1/2
f 57/1/3 60/1/3 62/1/3 61/1/3
f 59/1/4 58/1/4 64/1/4 63/1/4
f 57/1/5 61/1/5 64/1/5 58/1/5
f 60/1/6 59/1/6 63/1/6 62/1/6
f 65/1/1 66/1/1 67/1/1 68/1/1
f 69/1/2 70/1/2 71/1/2 72/1/2
f 65/1/3 68/1/3 70/1/3 69/1/3
f 67/1/4 66/1/4 72/1/4 71/1/4
f 65/1/5 69/1/5 72/1/5 66/1/5
f 68/1/6 67/1/6 71/1/6 70/1/6
f 73/1/1 74/1/1 75/1/1 76/1/1
f 77/1/2 78/1/2 79/1/2 80/1/2
f 73/1/3 76/1/3 78/1/3 77/1/3
f 75/1/4 74/1/4 80/1/4 79/1/4
f 73/1/5 77/1/5 80/1/5 74/1/5
f 76/1/6 75/1/6 79/1/6 78/1/6
f 81/1/1 82/1/1 83/1/1 84/1/1
f 85/1/2 86/1/2 87/1/2 88/1/2
f 81/1/3 84/1/3 86/1/3 85/1/3
f 83/1/4 82/1/4 88/1/4 87/1/4
f 81/1/5 85/1/5 88/1/5 82/1/5
f 84/1/6 83/1/6 87/1/6 86/1/6
f 89/2/1 90/2/1 91/2/1 92/2/1
f 93/2/2 94/2/2 95/2/2 96/2/2
f 89/2/3 92/2/3 94/2/3 93/2/3
f 91/2/4 90/2/4 96/2/4 95/2/4
f 89/2/5 93/2/5 96/2/5 90/2/5
f 92/2/6 91/2/6 95/2/6 94/2/6
f 97/2/1 98/2/1 99/2/1 100/2/1
f 101/2/2 102/2/2 103/2/2 104/2/2
f 97/2/3 100/2/3 102/2/3 101/2/3
f 99/2/4 98/2/4 104/2/4 103/2/4
f 97/2/5 101/2/5 104/2/5 98/2/5
f 100/2/6 99/2/6 103/2/6 102/2/6
f 105/2/1 106/2/1 107/2/1 108/2/1
f 109/2/2 110/2/2 111/2/2 112/2/2
f 105/2/3 108/2/3 110/2/3 109/2/3
f 107/2/4 106/2/4 112/2/4 111/2/4
f 105/2/5 109/2/5 112/2/5 106/2/5
f 108/2/6 107/2/6 111/2/6 110/2/6
f 113/2/1 114/2/1 115/2/1 116/2/1
f 117/2/2 118/2/2 119/2/2 120/2/2
f 113/2/3 116/2/3 118/2/3 117/2/3
f 115/2/4 114/2/4 120/2/4 119/2/4
f 113/2/5 117/2/5 120/2/5 114/2/5
f 116/2/6 115/2/6 119/2/6 118/2/6
f 121/2/1 122/2/1 123/2/1 124/2/1
f 125/2/2 126/2/2 127/2/2 128/2/2
f 121/2/3 124/2/3 126/2/3 125/2/3
f 123/2/4 122/2/4 128/2/4 127/2/4
f 121/2/5 125/2/5 128/2/5 122/2/5
f 124/2/6 123/2/6 127/2/6 126/2/6
f 129/2/1 130/2/1 131/2/1 132/2/1
f 133/2/2 134/2/2 135/2/2 136/2/2
f 129/2/3 132/2/3 134/2/3 133/2/3
f 131/2/4 130/2/4 136/2/4 135/2/4
f 129/2/5 133/2/5 136/2/5 130/2/5
f 132/2/6 131/2/6 135/2/6 134/2/6
f 137/2/1 138/2/1 139/2/1 140/2/1
f 141/2/2 142/2/2 143/2/2 144/2/2
f 137/2/3 140/2/3 142/2/3 141/2/3
f 139/2/4 138/2/4 144/2/4 143/2/4
f 137/2/5 141/2/5 144/2/5 138/2/5
f 140/2/6 139/2/6 143/2/6 142/2/6
f 145/2/1 146/2/1 147/2/1 148/2/1
f 149/2/2 150/2/2 151/2/2 152/2/2
f 145/2/3 148/2/3 150/2/3 149/2/3
f 147/2/4 146/2/4 152/2/4 151/2/4
f 145/2/5 149/2/5 152/2/5 146/2/5
f 148/2/6 147/2/6 151/2/6 150/2/6
f 153/2/1 154/2/1 155/2/1 156/2/1
f 157/2/2 158/2/2 159/2/2 160/2/2
f 153/2/3 156/2/3 158/2/3 157/2/3
f 155/2/4 154/2/4 160/2/4 159/2/4
f 153/2/5 157/2/5 160/2/5 154/2/5
f 156/2/6 155/2/6 159/2/6 158/2/6
f 161/2/1 162/2/1 163/2/1 164/2/1
f 165/2/2 166/2/2 167/2/2 168/2/2
f 161/2/3 164/2/3 166/2/3 165/2/3
f 163/2/4 162/2/4 168/2/4 167/2/4
f 161/2/5 165/2/5 168/2/5 162/2/5
f 164/2/6 163/2/6 167/2/6 166/2/6
f 169/2/1 170/2/1 171/2/1 172/2/1
f 173/2/2 174/2/2 175/2/2 176/2/2
f 169/2/3 172/2/3 174/2/3 173/2/3
f 171/2/4 170/2/4 176/2/4 175/2/4
f 169/2/5 173/2/5 176/2/5 170/2/5
f 172/2/6 171/2/6 175/2/6 174/2/6
f 177/2/1 178/2/1 179/2/1 180/2/1
f 181/2/2 182/2/2 183/2/2 184/2/2
f 177/2/3 180/2/3 182/2/3 181/2/3
f 179/2/4 178/2/4 184/2/4 183/2/4
f 177/2/5 181/2/5 184/2/5 178/2/5
f 180/2/6 179/2/6 183/2/6 182/2/6
f 185/2/1 186/2/1 187/2/1 188/2/1
f 189/2/2 190/2/2 191/2/2 192/2/2
f 185/2/3 188/2/3 190/2/3 189/2/3
f 187/2/4 186/2/4 192/2/4 191/2/4
f 185/2/5 189/2/5 192/2/5 186/2/5
f 188/2/6 187/2/6 191/2/6 190/2/6
f 193/2/1 194/2/1 195/2/1 196/2/1
f 197/2/2 198/2/2 199/2/2 200/2/2
f 193/2/3 196/2/3 198/2/3 197/2/3
f 195/2/4 194/2/4 200/2/4 199/2/4
f 193/2/5 197/2/5 200/2/5 194/2/5
f 196/2/6 195/2/6 199/2/6 198/2/6
f 201/2/1 202/2/1 203/2/1 204/2/1
f 205/2/2 206/2/2 207/2/2 208/2/2
f 201/2/3 204/2/3 206/2/3 205/2/3
f 203/2/4 202/2/4 208/2/4 207/2/4
f 201/2/5 205/2/5 208/2/5 202/2/5
f 204/2/6 203/2/6 207/2/6 206/2/6
f 209/2/1 210/2/1 211/2/1 212/2/1
f 213/2/2 214/2/2 215/2/2 216/2/2
f 209/2/3 212/2/3 214/2/3 213/2/3
f 211/2/4 210/2/4 216/2/4 215/2/4
f 209/2/5 213/2/5 216/2/5 210/2/5
f 212/2/6 211/2/6 215/2/6 214/2/6
f 217/1/1 218/1/1 219/1/1 220/1/1
f 221/1/2 222/1/2 223/1/2 224/1/2
f 217/1/3 220/1/3 222/1/3 221/1/3
f 219/1/4 218/1/4 224/1/4 223/1/4
f 217/1/5 221/1/5 224/1/5 218/1/5
f 220/1/6 219/1/6 223/1/6 222/1/6
f 225/1/1 226/1/1 227/1/1 228/1/1
f 229/1/2 230/1/2 231/1/2 232/1/2
f 225/1/3 228/1/3 230/1/3 229/1/3
f 227/1/4 226/1/4 232/1/4 231/1/4
f 225/1/5 229/1/5 232/1/5 226/1/5
f 228/1/6 227/1/6 231/1/6 230/1/6
f 233/1/1 234/1/1 235/1/1 236/1/1
f 237/1/2 238/1/2 239/1/2 240/1/2
f 233/1/3 236/1/3 238/1/3 237/1/3
f 235/1/4 234/1/4 240/1/4 239/1/4
f 233/1/5 237/1/5 240/1/5 234/1/5
f 236/1/6 235/1/6 239/1/6 238/1/6
f 241/1/1 242/1/1 243/1/1 244/1/1
f 245/1/2 246/1/2 247/1/2 248/1/2
f 241/1/3 244/1/3 246/1/3 245/1/3
f 243/1/4 242/1/4 248/1/4 247/1/4
f 241/1/5 245/1/5 248/1/5 242/1/5
f 244/1/6 243/1/6 247/1/6 246/1/6
