# Blender 5.2.0 LTS
# www.blender.org
mtllib FN_Throw_Folded.mtl
o FN_Throw_Folded
v -0.250000 0.006000 -0.191000
v -0.250000 0.000000 -0.181000
v -0.250000 0.003800 0.189000
v -0.250000 0.026000 0.185000
v -0.250000 0.026000 -0.181000
v -0.250000 0.020000 -0.191000
v 0.250000 0.020000 -0.191000
v 0.250000 0.026000 -0.181000
v 0.250000 0.026000 0.185000
v 0.250000 0.003800 0.189000
v 0.250000 0.000000 -0.181000
v 0.250000 0.006000 -0.191000
v -0.250000 0.026000 0.190000
v -0.250000 0.026000 0.173000
v -0.250000 0.016000 0.175000
v -0.250000 0.016000 0.191000
v 0.250000 0.016000 0.191000
v 0.250000 0.016000 0.175000
v 0.250000 0.026000 0.173000
v 0.250000 0.026000 0.190000
v -0.244000 0.030000 -0.183000
v -0.244000 0.024000 -0.173000
v -0.244000 0.027800 0.175000
v -0.244000 0.050000 0.171000
v -0.244000 0.050000 -0.173000
v -0.244000 0.044000 -0.183000
v 0.244000 0.044000 -0.183000
v 0.244000 0.050000 -0.173000
v 0.244000 0.050000 0.171000
v 0.244000 0.027800 0.175000
v 0.244000 0.024000 -0.173000
v 0.244000 0.030000 -0.183000
v -0.244000 0.050000 0.176000
v -0.244000 0.050000 0.159000
v -0.244000 0.040000 0.161000
v -0.244000 0.040000 0.177000
v 0.244000 0.040000 0.177000
v 0.244000 0.040000 0.161000
v 0.244000 0.050000 0.159000
v 0.244000 0.050000 0.176000
v -0.240000 0.054000 -0.181000
v -0.240000 0.048000 -0.171000
v -0.240000 0.051800 0.167000
v -0.240000 0.074000 0.163000
v -0.240000 0.074000 -0.171000
v -0.240000 0.068000 -0.181000
v 0.240000 0.068000 -0.181000
v 0.240000 0.074000 -0.171000
v 0.240000 0.074000 0.163000
v 0.240000 0.051800 0.167000
v 0.240000 0.048000 -0.171000
v 0.240000 0.054000 -0.181000
v -0.240000 0.074000 0.168000
v -0.240000 0.074000 0.151000
v -0.240000 0.064000 0.153000
v -0.240000 0.064000 0.169000
v 0.240000 0.064000 0.169000
v 0.240000 0.064000 0.153000
v 0.240000 0.074000 0.151000
v 0.240000 0.074000 0.168000
v -0.232000 0.078000 -0.171000
v -0.232000 0.072000 -0.161000
v -0.232000 0.075800 0.151000
v -0.232000 0.098000 0.147000
v -0.232000 0.098000 -0.161000
v -0.232000 0.092000 -0.171000
v 0.232000 0.092000 -0.171000
v 0.232000 0.098000 -0.161000
v 0.232000 0.098000 0.147000
v 0.232000 0.075800 0.151000
v 0.232000 0.072000 -0.161000
v 0.232000 0.078000 -0.171000
v -0.232000 0.098000 0.152000
v -0.232000 0.098000 0.135000
v -0.232000 0.088000 0.137000
v -0.232000 0.088000 0.153000
v 0.232000 0.088000 0.153000
v 0.232000 0.088000 0.137000
v 0.232000 0.098000 0.135000
v 0.232000 0.098000 0.152000
v -0.229000 0.102000 -0.167000
v -0.229000 0.096000 -0.157000
v -0.229000 0.099800 0.145000
v -0.229000 0.122000 0.141000
v -0.229000 0.122000 -0.157000
v -0.229000 0.116000 -0.167000
v 0.229000 0.116000 -0.167000
v 0.229000 0.122000 -0.157000
v 0.229000 0.122000 0.141000
v 0.229000 0.099800 0.145000
v 0.229000 0.096000 -0.157000
v 0.229000 0.102000 -0.167000
v -0.229000 0.122000 0.146000
v -0.229000 0.122000 0.129000
v -0.229000 0.112000 0.131000
v -0.229000 0.112000 0.147000
v 0.229000 0.112000 0.147000
v 0.229000 0.112000 0.131000
v 0.229000 0.122000 0.129000
v 0.229000 0.122000 0.146000
vn -1.0000 -0.0000 -0.0000
vn 1.0000 -0.0000 -0.0000
vn -0.0000 -0.8575 -0.5145
vn -0.0000 -0.9999 0.0103
vn -0.0000 0.1773 0.9842
vn -0.0000 1.0000 -0.0000
vn -0.0000 0.8575 -0.5145
vn -0.0000 -0.0000 -1.0000
vn -0.0000 -1.0000 -0.0000
vn -0.0000 -0.1961 -0.9806
vn -0.0000 0.0995 0.9950
vn -0.0000 -0.9999 0.0109
vn -0.0000 -0.9999 0.0112
vn -0.0000 -0.9999 0.0122
vn -0.0000 -0.9999 0.0126
vt 0.562500 0.687500
vt 0.812500 0.687500
s 0
usemtl FN_Atlas
f 1/1/1 2/1/1 3/1/1 4/1/1 5/1/1 6/1/1
f 7/1/2 8/1/2 9/1/2 10/1/2 11/1/2 12/1/2
f 12/1/3 11/1/3 2/1/3 1/1/3
f 11/1/4 10/1/4 3/1/4 2/1/4
f 10/1/5 9/1/5 4/1/5 3/1/5
f 9/1/6 8/1/6 5/1/6 4/1/6
f 8/1/7 7/1/7 6/1/7 5/1/7
f 7/1/8 12/1/8 1/1/8 6/1/8
f 13/2/1 14/2/1 15/2/1 16/2/1
f 17/2/2 18/2/2 19/2/2 20/2/2
f 16/2/9 15/2/9 18/2/9 17/2/9
f 15/2/10 14/2/10 19/2/10 18/2/10
f 14/2/6 13/2/6 20/2/6 19/2/6
f 13/2/11 16/2/11 17/2/11 20/2/11
f 21/1/1 22/1/1 23/1/1 24/1/1 25/1/1 26/1/1
f 27/1/2 28/1/2 29/1/2 30/1/2 31/1/2 32/1/2
f 32/1/3 31/1/3 22/1/3 21/1/3
f 31/1/12 30/1/12 23/1/12 22/1/12
f 30/1/5 29/1/5 24/1/5 23/1/5
f 29/1/6 28/1/6 25/1/6 24/1/6
f 28/1/7 27/1/7 26/1/7 25/1/7
f 27/1/8 32/1/8 21/1/8 26/1/8
f 33/2/1 34/2/1 35/2/1 36/2/1
f 37/2/2 38/2/2 39/2/2 40/2/2
f 36/2/9 35/2/9 38/2/9 37/2/9
f 35/2/10 34/2/10 39/2/10 38/2/10
f 34/2/6 33/2/6 40/2/6 39/2/6
f 33/2/11 36/2/11 37/2/11 40/2/11
f 41/1/1 42/1/1 43/1/1 44/1/1 45/1/1 46/1/1
f 47/1/2 48/1/2 49/1/2 50/1/2 51/1/2 52/1/2
f 52/1/3 51/1/3 42/1/3 41/1/3
f 51/1/13 50/1/13 43/1/13 42/1/13
f 50/1/5 49/1/5 44/1/5 43/1/5
f 49/1/6 48/1/6 45/1/6 44/1/6
f 48/1/7 47/1/7 46/1/7 45/1/7
f 47/1/8 52/1/8 41/1/8 46/1/8
f 53/2/1 54/2/1 55/2/1 56/2/1
f 57/2/2 58/2/2 59/2/2 60/2/2
f 56/2/9 55/2/9 58/2/9 57/2/9
f 55/2/10 54/2/10 59/2/10 58/2/10
f 54/2/6 53/2/6 60/2/6 59/2/6
f 53/2/11 56/2/11 57/2/11 60/2/11
f 61/1/1 62/1/1 63/1/1 64/1/1 65/1/1 66/1/1
f 67/1/2 68/1/2 69/1/2 70/1/2 71/1/2 72/1/2
f 72/1/3 71/1/3 62/1/3 61/1/3
f 71/1/14 70/1/14 63/1/14 62/1/14
f 70/1/5 69/1/5 64/1/5 63/1/5
f 69/1/6 68/1/6 65/1/6 64/1/6
f 68/1/7 67/1/7 66/1/7 65/1/7
f 67/1/8 72/1/8 61/1/8 66/1/8
f 73/2/1 74/2/1 75/2/1 76/2/1
f 77/2/2 78/2/2 79/2/2 80/2/2
f 76/2/9 75/2/9 78/2/9 77/2/9
f 75/2/10 74/2/10 79/2/10 78/2/10
f 74/2/6 73/2/6 80/2/6 79/2/6
f 73/2/11 76/2/11 77/2/11 80/2/11
f 81/1/1 82/1/1 83/1/1 84/1/1 85/1/1 86/1/1
f 87/1/2 88/1/2 89/1/2 90/1/2 91/1/2 92/1/2
f 92/1/3 91/1/3 82/1/3 81/1/3
f 91/1/15 90/1/15 83/1/15 82/1/15
f 90/1/5 89/1/5 84/1/5 83/1/5
f 89/1/6 88/1/6 85/1/6 84/1/6
f 88/1/7 87/1/7 86/1/7 85/1/7
f 87/1/8 92/1/8 81/1/8 86/1/8
f 93/2/1 94/2/1 95/2/1 96/2/1
f 97/2/2 98/2/2 99/2/2 100/2/2
f 96/2/9 95/2/9 98/2/9 97/2/9
f 95/2/10 94/2/10 99/2/10 98/2/10
f 94/2/6 93/2/6 100/2/6 99/2/6
f 93/2/11 96/2/11 97/2/11 100/2/11
