# Blender 5.2.0 LTS
# www.blender.org
mtllib FN_Table_Changing.mtl
o FN_Table_Changing
v -0.438000 0.000000 0.263000
v -0.438000 0.000000 0.227000
v -0.402000 0.000000 0.227000
v -0.402000 0.000000 0.263000
v -0.438000 0.940000 0.263000
v -0.402000 0.940000 0.263000
v -0.402000 0.940000 0.227000
v -0.438000 0.940000 0.227000
v -0.438000 0.000000 -0.227000
v -0.438000 0.000000 -0.263000
v -0.402000 0.000000 -0.263000
v -0.402000 0.000000 -0.227000
v -0.438000 0.940000 -0.227000
v -0.402000 0.940000 -0.227000
v -0.402000 0.940000 -0.263000
v -0.438000 0.940000 -0.263000
v 0.402000 0.000000 0.263000
v 0.402000 0.000000 0.227000
v 0.438000 0.000000 0.227000
v 0.438000 0.000000 0.263000
v 0.402000 0.940000 0.263000
v 0.438000 0.940000 0.263000
v 0.438000 0.940000 0.227000
v 0.402000 0.940000 0.227000
v 0.402000 0.000000 -0.227000
v 0.402000 0.000000 -0.263000
v 0.438000 0.000000 -0.263000
v 0.438000 0.000000 -0.227000
v 0.402000 0.940000 -0.227000
v 0.438000 0.940000 -0.227000
v 0.438000 0.940000 -0.263000
v 0.402000 0.940000 -0.263000
v -0.430000 0.300000 0.255000
v -0.430000 0.300000 -0.255000
v 0.430000 0.300000 -0.255000
v 0.430000 0.300000 0.255000
v -0.430000 0.326000 0.255000
v 0.430000 0.326000 0.255000
v 0.430000 0.326000 -0.255000
v -0.430000 0.326000 -0.255000
v -0.430000 0.580000 0.255000
v -0.430000 0.580000 -0.255000
v 0.430000 0.580000 -0.255000
v 0.430000 0.580000 0.255000
v -0.430000 0.606000 0.255000
v 0.430000 0.606000 0.255000
v 0.430000 0.606000 -0.255000
v -0.430000 0.606000 -0.255000
v -0.440000 0.870000 0.265000
v -0.440000 0.870000 -0.265000
v 0.440000 0.870000 -0.265000
v 0.440000 0.870000 0.265000
v -0.440000 0.900000 0.265000
v 0.440000 0.900000 0.265000
v 0.440000 0.900000 -0.265000
v -0.440000 0.900000 -0.265000
v -0.440000 0.900000 -0.235000
v 0.440000 0.900000 -0.235000
v -0.440000 1.000000 -0.235000
v 0.440000 1.000000 -0.235000
v 0.440000 1.000000 -0.265000
v -0.440000 1.000000 -0.265000
v -0.436000 0.900000 0.265000
v -0.436000 0.900000 -0.250000
v -0.406000 0.900000 -0.250000
v -0.406000 0.900000 0.265000
v -0.436000 1.000000 0.265000
v -0.406000 1.000000 0.265000
v -0.406000 1.000000 -0.250000
v -0.436000 1.000000 -0.250000
v 0.406000 0.900000 0.265000
v 0.406000 0.900000 -0.250000
v 0.436000 0.900000 -0.250000
v 0.436000 0.900000 0.265000
v 0.406000 1.000000 0.265000
v 0.436000 1.000000 0.265000
v 0.436000 1.000000 -0.250000
v 0.406000 1.000000 -0.250000
v -0.400000 0.896000 -0.230000
v 0.400000 0.896000 -0.230000
v 0.400000 0.896000 0.250000
v -0.400000 0.896000 0.250000
v -0.370000 0.964000 0.220000
v 0.370000 0.964000 0.220000
v 0.370000 0.964000 -0.200000
v -0.370000 0.964000 -0.200000
v -0.360000 0.320000 -0.210000
v -0.020000 0.320000 -0.210000
v -0.020000 0.320000 0.210000
v -0.360000 0.320000 0.210000
v -0.376000 0.470000 0.226000
v -0.004000 0.470000 0.226000
v -0.004000 0.470000 -0.226000
v -0.376000 0.470000 -0.226000
v 0.040000 0.600000 -0.200000
v 0.360000 0.600000 -0.200000
v 0.360000 0.600000 0.200000
v 0.040000 0.600000 0.200000
v 0.024000 0.730000 0.216000
v 0.376000 0.730000 0.216000
v 0.376000 0.730000 -0.216000
v 0.024000 0.730000 -0.216000
vn -0.0000 -1.0000 -0.0000
vn -0.0000 1.0000 -0.0000
vn -0.0000 -0.0000 1.0000
vn -0.0000 -0.0000 -1.0000
vn -1.0000 -0.0000 -0.0000
vn 1.0000 -0.0000 -0.0000
vn -0.0000 0.4036 0.9149
vn 0.9149 0.4036 -0.0000
vn -0.0000 0.4036 -0.9149
vn -0.9149 0.4036 -0.0000
vn -0.0000 -0.1061 0.9944
vn 0.9944 -0.1061 -0.0000
vn -0.0000 -0.1061 -0.9944
vn -0.9944 -0.1061 -0.0000
vn -0.0000 -0.1222 0.9925
vn 0.9925 -0.1222 -0.0000
vn -0.0000 -0.1222 -0.9925
vn -0.9925 -0.1222 -0.0000
vt 0.437500 0.937500
vt 0.562500 0.562500
vt 0.812500 0.687500
s 0
usemtl FN_Atlas
f 1/1/1 2/1/1 3/1/1 4/1/1
f 5/1/2 6/1/2 7/1/2 8/1/2
f 1/1/3 4/1/3 6/1/3 5/1/3
f 3/1/4 2/1/4 8/1/4 7/1/4
f 1/1/5 5/1/5 8/1/5 2/1/5
f 4/1/6 3/1/6 7/1/6 6/1/6
f 9/1/1 10/1/1 11/1/1 12/1/1
f 13/1/2 14/1/2 15/1/2 16/1/2
f 9/1/3 12/1/3 14/1/3 13/1/3
f 11/1/4 10/1/4 16/1/4 15/1/4
f 9/1/5 13/1/5 16/1/5 10/1/5
f 12/1/6 11/1/6 15/1/6 14/1/6
f 17/1/1 18/1/1 19/1/1 20/1/1
f 21/1/2 22/1/2 23/1/2 24/1/2
f 17/1/3 20/1/3 22/1/3 21/1/3
f 19/1/4 18/1/4 24/1/4 23/1/4
f 17/1/5 21/1/5 24/1/5 18/1/5
f 20/1/6 19/1/6 23/1/6 22/1/6
f 25/1/1 26/1/1 27/1/1 28/1/1
f 29/1/2 30/1/2 31/1/2 32/1/2
f 25/1/3 28/1/3 30/1/3 29/1/3
f 27/1/4 26/1/4 32/1/4 31/1/4
f 25/1/5 29/1/5 32/1/5 26/1/5
f 28/1/6 27/1/6 31/1/6 30/1/6
f 33/1/1 34/1/1 35/1/1 36/1/1
f 37/1/2 38/1/2 39/1/2 40/1/2
f 33/1/3 36/1/3 38/1/3 37/1/3
f 35/1/4 34/1/4 40/1/4 39/1/4
f 33/1/5 37/1/5 40/1/5 34/1/5
f 36/1/6 35/1/6 39/1/6 38/1/6
f 41/1/1 42/1/1 43/1/1 44/1/1
f 45/1/2 46/1/2 47/1/2 48/1/2
f 41/1/3 44/1/3 46/1/3 45/1/3
f 43/1/4 42/1/4 48/1/4 47/1/4
f 41/1/5 45/1/5 48/1/5 42/1/5
f 44/1/6 43/1/6 47/1/6 46/1/6
f 49/1/1 50/1/1 51/1/1 52/1/1
f 53/1/2 54/1/2 55/1/2 56/1/2
f 49/1/3 52/1/3 54/1/3 53/1/3
f 51/1/4 50/1/4 56/1/4 55/1/4
f 49/1/5 53/1/5 56/1/5 50/1/5
f 52/1/6 51/1/6 55/1/6 54/1/6
f 57/1/1 56/1/1 55/1/1 58/1/1
f 59/1/2 60/1/2 61/1/2 62/1/2
f 57/1/3 58/1/3 60/1/3 59/1/3
f 55/1/4 56/1/4 62/1/4 61/1/4
f 57/1/5 59/1/5 62/1/5 56/1/5
f 58/1/6 55/1/6 61/1/6 60/1/6
f 63/1/1 64/1/1 65/1/1 66/1/1
f 67/1/2 68/1/2 69/1/2 70/1/2
f 63/1/3 66/1/3 68/1/3 67/1/3
f 65/1/4 64/1/4 70/1/4 69/1/4
f 63/1/5 67/1/5 70/1/5 64/1/5
f 66/1/6 65/1/6 69/1/6 68/1/6
f 71/1/1 72/1/1 73/1/1 74/1/1
f 75/1/2 76/1/2 77/1/2 78/1/2
f 71/1/3 74/1/3 76/1/3 75/1/3
f 73/1/4 72/1/4 78/1/4 77/1/4
f 71/1/5 75/1/5 78/1/5 72/1/5
f 74/1/6 73/1/6 77/1/6 76/1/6
f 79/2/1 80/2/1 81/2/1 82/2/1
f 83/2/2 84/2/2 85/2/2 86/2/2
f 82/2/7 81/2/7 84/2/7 83/2/7
f 81/2/8 80/2/8 85/2/8 84/2/8
f 80/2/9 79/2/9 86/2/9 85/2/9
f 79/2/10 82/2/10 83/2/10 86/2/10
f 87/3/1 88/3/1 89/3/1 90/3/1
f 91/3/2 92/3/2 93/3/2 94/3/2
f 90/3/11 89/3/11 92/3/11 91/3/11
f 89/3/12 88/3/12 93/3/12 92/3/12
f 88/3/13 87/3/13 94/3/13 93/3/13
f 87/3/14 90/3/14 91/3/14 94/3/14
f 95/3/1 96/3/1 97/3/1 98/3/1
f 99/3/2 100/3/2 101/3/2 102/3/2
f 98/3/15 97/3/15 100/3/15 99/3/15
f 97/3/16 96/3/16 101/3/16 100/3/16
f 96/3/17 95/3/17 102/3/17 101/3/17
f 95/3/18 98/3/18 99/3/18 102/3/18
