# Blender 5.2.0 LTS
# www.blender.org
mtllib FN_Table_Bistro.mtl
o FN_Table_Bistro
v -0.289601 0.699158 0.272000
v -0.289601 0.699158 0.256000
v -0.300000 0.690000 0.248000
v -0.310399 0.680843 0.256000
v -0.310399 0.680843 0.272000
v -0.300000 0.690000 0.280000
v 0.290000 0.020000 0.280000
v 0.279601 0.010843 0.272000
v 0.279601 0.010843 0.256000
v 0.290000 0.020000 0.248000
v 0.300399 0.029158 0.256000
v 0.300399 0.029158 0.272000
v -0.289601 0.699158 -0.256000
v -0.289601 0.699158 -0.272000
v -0.300000 0.690000 -0.280000
v -0.310399 0.680843 -0.272000
v -0.310399 0.680843 -0.256000
v -0.300000 0.690000 -0.248000
v 0.290000 0.020000 -0.248000
v 0.279601 0.010843 -0.256000
v 0.279601 0.010843 -0.272000
v 0.290000 0.020000 -0.280000
v 0.300399 0.029158 -0.272000
v 0.300399 0.029158 -0.256000
v 0.298000 0.027713 0.290000
v 0.282000 0.027713 0.290000
v 0.274000 0.013856 0.290000
v 0.282000 0.000000 0.290000
v 0.298000 0.000000 0.290000
v 0.306000 0.013856 0.290000
v 0.306000 0.013856 -0.290000
v 0.298000 0.000000 -0.290000
v 0.282000 0.000000 -0.290000
v 0.274000 0.013856 -0.290000
v 0.282000 0.027713 -0.290000
v 0.298000 0.027713 -0.290000
v 0.289601 0.699158 0.222000
v 0.289601 0.699158 0.238000
v 0.300000 0.690000 0.246000
v 0.310399 0.680843 0.238000
v 0.310399 0.680843 0.222000
v 0.300000 0.690000 0.214000
v -0.290000 0.020000 0.214000
v -0.279601 0.010843 0.222000
v -0.279601 0.010843 0.238000
v -0.290000 0.020000 0.246000
v -0.300399 0.029158 0.238000
v -0.300399 0.029158 0.222000
v 0.289601 0.699158 -0.238000
v 0.289601 0.699158 -0.222000
v 0.300000 0.690000 -0.214000
v 0.310399 0.680843 -0.222000
v 0.310399 0.680843 -0.238000
v 0.300000 0.690000 -0.246000
v -0.290000 0.020000 -0.246000
v -0.279601 0.010843 -0.238000
v -0.279601 0.010843 -0.222000
v -0.290000 0.020000 -0.214000
v -0.300399 0.029158 -0.222000
v -0.300399 0.029158 -0.238000
v -0.282000 0.027713 0.290000
v -0.298000 0.027713 0.290000
v -0.306000 0.013856 0.290000
v -0.298000 0.000000 0.290000
v -0.282000 0.000000 0.290000
v -0.274000 0.013856 0.290000
v -0.274000 0.013856 -0.290000
v -0.282000 0.000000 -0.290000
v -0.298000 0.000000 -0.290000
v -0.306000 0.013856 -0.290000
v -0.298000 0.027713 -0.290000
v -0.282000 0.027713 -0.290000
v 0.009000 0.364589 0.290000
v -0.009000 0.364589 0.290000
v -0.018000 0.349000 0.290000
v -0.009000 0.333412 0.290000
v 0.009000 0.333412 0.290000
v 0.018000 0.349000 0.290000
v 0.018000 0.349000 -0.290000
v 0.009000 0.333412 -0.290000
v -0.009000 0.333412 -0.290000
v -0.018000 0.349000 -0.290000
v -0.009000 0.364589 -0.290000
v 0.009000 0.364589 -0.290000
v -0.330000 0.684000 0.284000
v -0.330000 0.684000 0.236000
v 0.330000 0.684000 0.236000
v 0.330000 0.684000 0.284000
v -0.330000 0.722000 0.284000
v 0.330000 0.722000 0.284000
v 0.330000 0.722000 0.236000
v -0.330000 0.722000 0.236000
v -0.330000 0.684000 -0.236000
v -0.330000 0.684000 -0.284000
v 0.330000 0.684000 -0.284000
v 0.330000 0.684000 -0.236000
v -0.330000 0.722000 -0.236000
v 0.330000 0.722000 -0.236000
v 0.330000 0.722000 -0.284000
v -0.330000 0.722000 -0.284000
v -0.350000 0.716000 0.350000
v -0.350000 0.716000 -0.350000
v -0.262000 0.716000 -0.350000
v -0.262000 0.716000 0.350000
v -0.350000 0.740000 0.350000
v -0.262000 0.740000 0.350000
v -0.262000 0.740000 -0.350000
v -0.350000 0.740000 -0.350000
v -0.248000 0.716000 0.350000
v -0.248000 0.716000 -0.350000
v -0.160000 0.716000 -0.350000
v -0.160000 0.716000 0.350000
v -0.248000 0.740000 0.350000
v -0.160000 0.740000 0.350000
v -0.160000 0.740000 -0.350000
v -0.248000 0.740000 -0.350000
v -0.146000 0.716000 0.350000
v -0.146000 0.716000 -0.350000
v -0.058000 0.716000 -0.350000
v -0.058000 0.716000 0.350000
v -0.146000 0.740000 0.350000
v -0.058000 0.740000 0.350000
v -0.058000 0.740000 -0.350000
v -0.146000 0.740000 -0.350000
v -0.044000 0.716000 0.350000
v -0.044000 0.716000 -0.350000
v 0.044000 0.716000 -0.350000
v 0.044000 0.716000 0.350000
v -0.044000 0.740000 0.350000
v 0.044000 0.740000 0.350000
v 0.044000 0.740000 -0.350000
v -0.044000 0.740000 -0.350000
v 0.058000 0.716000 0.350000
v 0.058000 0.716000 -0.350000
v 0.146000 0.716000 -0.350000
v 0.146000 0.716000 0.350000
v 0.058000 0.740000 0.350000
v 0.146000 0.740000 0.350000
v 0.146000 0.740000 -0.350000
v 0.058000 0.740000 -0.350000
v 0.160000 0.716000 0.350000
v 0.160000 0.716000 -0.350000
v 0.248000 0.716000 -0.350000
v 0.248000 0.716000 0.350000
v 0.160000 0.740000 0.350000
v 0.248000 0.740000 0.350000
v 0.248000 0.740000 -0.350000
v 0.160000 0.740000 -0.350000
v 0.262000 0.716000 0.350000
v 0.262000 0.716000 -0.350000
v 0.350000 0.716000 -0.350000
v 0.350000 0.716000 0.350000
v 0.262000 0.740000 0.350000
v 0.350000 0.740000 0.350000
v 0.350000 0.740000 -0.350000
v 0.262000 0.740000 -0.350000
vn -0.6609 0.7505 -0.0000
vn 0.6609 -0.7505 -0.0000
vn -0.3752 -0.3304 0.8660
vn -0.7505 -0.6609 -0.0000
vn -0.3752 -0.3304 -0.8660
vn 0.3752 0.3304 -0.8660
vn 0.7505 0.6609 -0.0000
vn 0.3752 0.3304 0.8660
vn -0.0000 -0.0000 1.0000
vn -0.0000 -0.0000 -1.0000
vn 0.8660 -0.5000 -0.0000
vn -0.0000 -1.0000 -0.0000
vn -0.8660 -0.5000 -0.0000
vn -0.8660 0.5000 -0.0000
vn -0.0000 1.0000 -0.0000
vn 0.8660 0.5000 -0.0000
vn 0.6609 0.7505 -0.0000
vn -0.6609 -0.7505 -0.0000
vn 0.3752 -0.3304 -0.8660
vn 0.7505 -0.6609 -0.0000
vn 0.3752 -0.3304 0.8660
vn -0.3752 0.3304 0.8660
vn -0.7505 0.6609 -0.0000
vn -0.3752 0.3304 -0.8660
vn -1.0000 -0.0000 -0.0000
vn 1.0000 -0.0000 -0.0000
vt 0.812500 0.312500
vt 0.687500 0.062500
s 0
usemtl FN_Atlas
f 1/1/1 2/1/1 3/1/1 4/1/1 5/1/1 6/1/1
f 7/1/2 8/1/2 9/1/2 10/1/2 11/1/2 12/1/2
f 6/1/3 5/1/3 8/1/3 7/1/3
f 5/1/4 4/1/4 9/1/4 8/1/4
f 4/1/5 3/1/5 10/1/5 9/1/5
f 3/1/6 2/1/6 11/1/6 10/1/6
f 2/1/7 1/1/7 12/1/7 11/1/7
f 1/1/8 6/1/8 7/1/8 12/1/8
f 13/1/1 14/1/1 15/1/1 16/1/1 17/1/1 18/1/1
f 19/1/2 20/1/2 21/1/2 22/1/2 23/1/2 24/1/2
f 18/1/3 17/1/3 20/1/3 19/1/3
f 17/1/4 16/1/4 21/1/4 20/1/4
f 16/1/5 15/1/5 22/1/5 21/1/5
f 15/1/6 14/1/6 23/1/6 22/1/6
f 14/1/7 13/1/7 24/1/7 23/1/7
f 13/1/8 18/1/8 19/1/8 24/1/8
f 25/1/9 26/1/9 27/1/9 28/1/9 29/1/9 30/1/9
f 31/1/10 32/1/10 33/1/10 34/1/10 35/1/10 36/1/10
f 30/1/11 29/1/11 32/1/11 31/1/11
f 29/1/12 28/1/12 33/1/12 32/1/12
f 28/1/13 27/1/13 34/1/13 33/1/13
f 27/1/14 26/1/14 35/1/14 34/1/14
f 26/1/15 25/1/15 36/1/15 35/1/15
f 25/1/16 30/1/16 31/1/16 36/1/16
f 37/1/17 38/1/17 39/1/17 40/1/17 41/1/17 42/1/17
f 43/1/18 44/1/18 45/1/18 46/1/18 47/1/18 48/1/18
f 42/1/19 41/1/19 44/1/19 43/1/19
f 41/1/20 40/1/20 45/1/20 44/1/20
f 40/1/21 39/1/21 46/1/21 45/1/21
f 39/1/22 38/1/22 47/1/22 46/1/22
f 38/1/23 37/1/23 48/1/23 47/1/23
f 37/1/24 42/1/24 43/1/24 48/1/24
f 49/1/17 50/1/17 51/1/17 52/1/17 53/1/17 54/1/17
f 55/1/18 56/1/18 57/1/18 58/1/18 59/1/18 60/1/18
f 54/1/19 53/1/19 56/1/19 55/1/19
f 53/1/20 52/1/20 57/1/20 56/1/20
f 52/1/21 51/1/21 58/1/21 57/1/21
f 51/1/22 50/1/22 59/1/22 58/1/22
f 50/1/23 49/1/23 60/1/23 59/1/23
f 49/1/24 54/1/24 55/1/24 60/1/24
f 61/1/9 62/1/9 63/1/9 64/1/9 65/1/9 66/1/9
f 67/1/10 68/1/10 69/1/10 70/1/10 71/1/10 72/1/10
f 66/1/11 65/1/11 68/1/11 67/1/11
f 65/1/12 64/1/12 69/1/12 68/1/12
f 64/1/13 63/1/13 70/1/13 69/1/13
f 63/1/14 62/1/14 71/1/14 70/1/14
f 62/1/15 61/1/15 72/1/15 71/1/15
f 61/1/16 66/1/16 67/1/16 72/1/16
f 73/1/9 74/1/9 75/1/9 76/1/9 77/1/9 78/1/9
f 79/1/10 80/1/10 81/1/10 82/1/10 83/1/10 84/1/10
f 78/1/11 77/1/11 80/1/11 79/1/11
f 77/1/12 76/1/12 81/1/12 80/1/12
f 76/1/13 75/1/13 82/1/13 81/1/13
f 75/1/14 74/1/14 83/1/14 82/1/14
f 74/1/15 73/1/15 84/1/15 83/1/15
f 73/1/16 78/1/16 79/1/16 84/1/16
f 85/1/12 86/1/12 87/1/12 88/1/12
f 89/1/15 90/1/15 91/1/15 92/1/15
f 85/1/9 88/1/9 90/1/9 89/1/9
f 87/1/10 86/1/10 92/1/10 91/1/10
f 85/1/25 89/1/25 92/1/25 86/1/25
f 88/1/26 87/1/26 91/1/26 90/1/26
f 93/1/12 94/1/12 95/1/12 96/1/12
f 97/1/15 98/1/15 99/1/15 100/1/15
f 93/1/9 96/1/9 98/1/9 97/1/9
f 95/1/10 94/1/10 100/1/10 99/1/10
f 93/1/25 97/1/25 100/1/25 94/1/25
f 96/1/26 95/1/26 99/1/26 98/1/26
f 101/2/12 102/2/12 103/2/12 104/2/12
f 105/2/15 106/2/15 107/2/15 108/2/15
f 101/2/9 104/2/9 106/2/9 105/2/9
f 103/2/10 102/2/10 108/2/10 107/2/10
f 101/2/25 105/2/25 108/2/25 102/2/25
f 104/2/26 103/2/26 107/2/26 106/2/26
f 109/2/12 110/2/12 111/2/12 112/2/12
f 113/2/15 114/2/15 115/2/15 116/2/15
f 109/2/9 112/2/9 114/2/9 113/2/9
f 111/2/10 110/2/10 116/2/10 115/2/10
f 109/2/25 113/2/25 116/2/25 110/2/25
f 112/2/26 111/2/26 115/2/26 114/2/26
f 117/2/12 118/2/12 119/2/12 120/2/12
f 121/2/15 122/2/15 123/2/15 124/2/15
f 117/2/9 120/2/9 122/2/9 121/2/9
f 119/2/10 118/2/10 124/2/10 123/2/10
f 117/2/25 121/2/25 124/2/25 118/2/25
f 120/2/26 119/2/26 123/2/26 122/2/26
f 125/2/12 126/2/12 127/2/12 128/2/12
f 129/2/15 130/2/15 131/2/15 132/2/15
f 125/2/9 128/2/9 130/2/9 129/2/9
f 127/2/10 126/2/10 132/2/10 131/2/10
f 125/2/25 129/2/25 132/2/25 126/2/25
f 128/2/26 127/2/26 131/2/26 130/2/26
f 133/2/12 134/2/12 135/2/12 136/2/12
f 137/2/15 138/2/15 139/2/15 140/2/15
f 133/2/9 136/2/9 138/2/9 137/2/9
f 135/2/10 134/2/10 140/2/10 139/2/10
f 133/2/25 137/2/25 140/2/25 134/2/25
f 136/2/26 135/2/26 139/2/26 138/2/26
f 141/2/12 142/2/12 143/2/12 144/2/12
f 145/2/15 146/2/15 147/2/15 148/2/15
f 141/2/9 144/2/9 146/2/9 145/2/9
f 143/2/10 142/2/10 148/2/10 147/2/10
f 141/2/25 145/2/25 148/2/25 142/2/25
f 144/2/26 143/2/26 147/2/26 146/2/26
f 149/2/12 150/2/12 151/2/12 152/2/12
f 153/2/15 154/2/15 155/2/15 156/2/15
f 149/2/9 152/2/9 154/2/9 153/2/9
f 151/2/10 150/2/10 156/2/10 155/2/10
f 149/2/25 153/2/25 156/2/25 150/2/25
f 152/2/26 151/2/26 155/2/26 154/2/26
