# Blender 5.2.0 LTS
# www.blender.org
mtllib FN_Table_Conference.mtl
o FN_Table_Conference
v -0.795000 0.014000 0.430000
v -0.810000 0.014000 0.425981
v -0.820981 0.014000 0.415000
v -0.825000 0.014000 0.400000
v -0.825000 0.014000 -0.400000
v -0.820981 0.014000 -0.415000
v -0.810000 0.014000 -0.425981
v -0.795000 0.014000 -0.430000
v -0.725000 0.014000 -0.430000
v -0.710000 0.014000 -0.425981
v -0.699019 0.014000 -0.415000
v -0.695000 0.014000 -0.400000
v -0.695000 0.014000 0.400000
v -0.699019 0.014000 0.415000
v -0.710000 0.014000 0.425981
v -0.725000 0.014000 0.430000
v -0.731000 0.058000 0.410000
v -0.718000 0.058000 0.406517
v -0.708483 0.058000 0.397000
v -0.705000 0.058000 0.384000
v -0.705000 0.058000 -0.384000
v -0.708483 0.058000 -0.397000
v -0.718000 0.058000 -0.406517
v -0.731000 0.058000 -0.410000
v -0.789000 0.058000 -0.410000
v -0.802000 0.058000 -0.406517
v -0.811517 0.058000 -0.397000
v -0.815000 0.058000 -0.384000
v -0.815000 0.058000 0.384000
v -0.811517 0.058000 0.397000
v -0.802000 0.058000 0.406517
v -0.789000 0.058000 0.410000
v -0.808000 0.000000 0.406000
v -0.808000 0.000000 0.346000
v -0.712000 0.000000 0.346000
v -0.712000 0.000000 0.406000
v -0.808000 0.016000 0.406000
v -0.712000 0.016000 0.406000
v -0.712000 0.016000 0.346000
v -0.808000 0.016000 0.346000
v -0.808000 0.000000 -0.346000
v -0.808000 0.000000 -0.406000
v -0.712000 0.000000 -0.406000
v -0.712000 0.000000 -0.346000
v -0.808000 0.016000 -0.346000
v -0.712000 0.016000 -0.346000
v -0.712000 0.016000 -0.406000
v -0.808000 0.016000 -0.406000
v -0.815000 0.052000 0.110000
v -0.825000 0.052000 0.107321
v -0.832321 0.052000 0.100000
v -0.835000 0.052000 0.090000
v -0.835000 0.052000 -0.090000
v -0.832321 0.052000 -0.100000
v -0.825000 0.052000 -0.107321
v -0.815000 0.052000 -0.110000
v -0.705000 0.052000 -0.110000
v -0.695000 0.052000 -0.107321
v -0.687679 0.052000 -0.100000
v -0.685000 0.052000 -0.090000
v -0.685000 0.052000 0.090000
v -0.687679 0.052000 0.100000
v -0.695000 0.052000 0.107321
v -0.705000 0.052000 0.110000
v -0.716000 0.648000 0.095000
v -0.707000 0.648000 0.092588
v -0.700412 0.648000 0.086000
v -0.698000 0.648000 0.077000
v -0.698000 0.648000 -0.077000
v -0.700412 0.648000 -0.086000
v -0.707000 0.648000 -0.092588
v -0.716000 0.648000 -0.095000
v -0.804000 0.648000 -0.095000
v -0.813000 0.648000 -0.092588
v -0.819588 0.648000 -0.086000
v -0.822000 0.648000 -0.077000
v -0.822000 0.648000 0.077000
v -0.819588 0.648000 0.086000
v -0.813000 0.648000 0.092588
v -0.804000 0.648000 0.095000
v -0.799000 0.640000 0.380000
v -0.811000 0.640000 0.376785
v -0.819785 0.640000 0.368000
v -0.823000 0.640000 0.356000
v -0.823000 0.640000 -0.356000
v -0.819785 0.640000 -0.368000
v -0.811000 0.640000 -0.376785
v -0.799000 0.640000 -0.380000
v -0.721000 0.640000 -0.380000
v -0.709000 0.640000 -0.376785
v -0.700215 0.640000 -0.368000
v -0.697000 0.640000 -0.356000
v -0.697000 0.640000 0.356000
v -0.700215 0.640000 0.368000
v -0.709000 0.640000 0.376785
v -0.721000 0.640000 0.380000
v -0.721000 0.710000 0.400000
v -0.709000 0.710000 0.396785
v -0.700215 0.710000 0.388000
v -0.697000 0.710000 0.376000
v -0.697000 0.710000 -0.376000
v -0.700215 0.710000 -0.388000
v -0.709000 0.710000 -0.396785
v -0.721000 0.710000 -0.400000
v -0.799000 0.710000 -0.400000
v -0.811000 0.710000 -0.396785
v -0.819785 0.710000 -0.388000
v -0.823000 0.710000 -0.376000
v -0.823000 0.710000 0.376000
v -0.819785 0.710000 0.388000
v -0.811000 0.710000 0.396785
v -0.799000 0.710000 0.400000
v 0.725000 0.014000 0.430000
v 0.710000 0.014000 0.425981
v 0.699019 0.014000 0.415000
v 0.695000 0.014000 0.400000
v 0.695000 0.014000 -0.400000
v 0.699019 0.014000 -0.415000
v 0.710000 0.014000 -0.425981
v 0.725000 0.014000 -0.430000
v 0.795000 0.014000 -0.430000
v 0.810000 0.014000 -0.425981
v 0.820981 0.014000 -0.415000
v 0.825000 0.014000 -0.400000
v 0.825000 0.014000 0.400000
v 0.820981 0.014000 0.415000
v 0.810000 0.014000 0.425981
v 0.795000 0.014000 0.430000
v 0.789000 0.058000 0.410000
v 0.802000 0.058000 0.406517
v 0.811517 0.058000 0.397000
v 0.815000 0.058000 0.384000
v 0.815000 0.058000 -0.384000
v 0.811517 0.058000 -0.397000
v 0.802000 0.058000 -0.406517
v 0.789000 0.058000 -0.410000
v 0.731000 0.058000 -0.410000
v 0.718000 0.058000 -0.406517
v 0.708483 0.058000 -0.397000
v 0.705000 0.058000 -0.384000
v 0.705000 0.058000 0.384000
v 0.708483 0.058000 0.397000
v 0.718000 0.058000 0.406517
v 0.731000 0.058000 0.410000
v 0.712000 0.000000 0.406000
v 0.712000 0.000000 0.346000
v 0.808000 0.000000 0.346000
v 0.808000 0.000000 0.406000
v 0.712000 0.016000 0.406000
v 0.808000 0.016000 0.406000
v 0.808000 0.016000 0.346000
v 0.712000 0.016000 0.346000
v 0.712000 0.000000 -0.346000
v 0.712000 0.000000 -0.406000
v 0.808000 0.000000 -0.406000
v 0.808000 0.000000 -0.346000
v 0.712000 0.016000 -0.346000
v 0.808000 0.016000 -0.346000
v 0.808000 0.016000 -0.406000
v 0.712000 0.016000 -0.406000
v 0.705000 0.052000 0.110000
v 0.695000 0.052000 0.107321
v 0.687679 0.052000 0.100000
v 0.685000 0.052000 0.090000
v 0.685000 0.052000 -0.090000
v 0.687679 0.052000 -0.100000
v 0.695000 0.052000 -0.107321
v 0.705000 0.052000 -0.110000
v 0.815000 0.052000 -0.110000
v 0.825000 0.052000 -0.107321
v 0.832321 0.052000 -0.100000
v 0.835000 0.052000 -0.090000
v 0.835000 0.052000 0.090000
v 0.832321 0.052000 0.100000
v 0.825000 0.052000 0.107321
v 0.815000 0.052000 0.110000
v 0.804000 0.648000 0.095000
v 0.813000 0.648000 0.092588
v 0.819588 0.648000 0.086000
v 0.822000 0.648000 0.077000
v 0.822000 0.648000 -0.077000
v 0.819588 0.648000 -0.086000
v 0.813000 0.648000 -0.092588
v 0.804000 0.648000 -0.095000
v 0.716000 0.648000 -0.095000
v 0.707000 0.648000 -0.092588
v 0.700412 0.648000 -0.086000
v 0.698000 0.648000 -0.077000
v 0.698000 0.648000 0.077000
v 0.700412 0.648000 0.086000
v 0.707000 0.648000 0.092588
v 0.716000 0.648000 0.095000
v 0.721000 0.640000 0.380000
v 0.709000 0.640000 0.376785
v 0.700215 0.640000 0.368000
v 0.697000 0.640000 0.356000
v 0.697000 0.640000 -0.356000
v 0.700215 0.640000 -0.368000
v 0.709000 0.640000 -0.376785
v 0.721000 0.640000 -0.380000
v 0.799000 0.640000 -0.380000
v 0.811000 0.640000 -0.376785
v 0.819785 0.640000 -0.368000
v 0.823000 0.640000 -0.356000
v 0.823000 0.640000 0.356000
v 0.819785 0.640000 0.368000
v 0.811000 0.640000 0.376785
v 0.799000 0.640000 0.380000
v 0.799000 0.710000 0.400000
v 0.811000 0.710000 0.396785
v 0.819785 0.710000 0.388000
v 0.823000 0.710000 0.376000
v 0.823000 0.710000 -0.376000
v 0.819785 0.710000 -0.388000
v 0.811000 0.710000 -0.396785
v 0.799000 0.710000 -0.400000
v 0.721000 0.710000 -0.400000
v 0.709000 0.710000 -0.396785
v 0.700215 0.710000 -0.388000
v 0.697000 0.710000 -0.376000
v 0.697000 0.710000 0.376000
v 0.700215 0.710000 0.388000
v 0.709000 0.710000 0.396785
v 0.721000 0.710000 0.400000
v -0.760000 0.470000 0.056000
v -0.760000 0.470000 -0.056000
v 0.760000 0.470000 -0.056000
v 0.760000 0.470000 0.056000
v -0.760000 0.556000 0.056000
v 0.760000 0.556000 0.056000
v 0.760000 0.556000 -0.056000
v -0.760000 0.556000 -0.056000
v -1.123833 0.704000 0.546999
v -1.158642 0.704000 0.537671
v -1.184124 0.704000 0.512190
v -1.193451 0.704000 0.477380
v -1.193451 0.704000 -0.477380
v -1.184124 0.704000 -0.512190
v -1.158642 0.704000 -0.537671
v -1.123833 0.704000 -0.546999
v 1.123833 0.704000 -0.546999
v 1.158642 0.704000 -0.537671
v 1.184124 0.704000 -0.512190
v 1.193451 0.704000 -0.477380
v 1.193451 0.704000 0.477380
v 1.184124 0.704000 0.512190
v 1.158642 0.704000 0.537671
v 1.123833 0.704000 0.546999
v 1.165000 0.711000 0.540622
v 1.130000 0.711000 0.550000
v 1.190622 0.711000 0.515000
v 1.200000 0.711000 0.480000
v 1.200000 0.711000 -0.480000
v 1.190622 0.711000 -0.515000
v 1.165000 0.711000 -0.540622
v 1.130000 0.711000 -0.550000
v -1.130000 0.711000 -0.550000
v -1.165000 0.711000 -0.540622
v -1.190622 0.711000 -0.515000
v -1.200000 0.711000 -0.480000
v -1.200000 0.711000 0.480000
v -1.190622 0.711000 0.515000
v -1.165000 0.711000 0.540622
v -1.130000 0.711000 0.550000
v 1.165000 0.733000 0.540622
v 1.130000 0.733000 0.550000
v 1.190622 0.733000 0.515000
v 1.200000 0.733000 0.480000
v 1.200000 0.733000 -0.480000
v 1.190622 0.733000 -0.515000
v 1.165000 0.733000 -0.540622
v 1.130000 0.733000 -0.550000
v -1.130000 0.733000 -0.550000
v -1.165000 0.733000 -0.540622
v -1.190622 0.733000 -0.515000
v -1.200000 0.733000 -0.480000
v -1.200000 0.733000 0.480000
v -1.190622 0.733000 0.515000
v -1.165000 0.733000 0.540622
v -1.130000 0.733000 0.550000
v 1.123833 0.740000 0.546999
v 1.158642 0.740000 0.537671
v 1.184124 0.740000 0.512190
v 1.193451 0.740000 0.477380
v 1.193451 0.740000 -0.477380
v 1.184124 0.740000 -0.512190
v 1.158642 0.740000 -0.537671
v 1.123833 0.740000 -0.546999
v -1.123833 0.740000 -0.546999
v -1.158642 0.740000 -0.537671
v -1.184124 0.740000 -0.512190
v -1.193451 0.740000 -0.477380
v -1.193451 0.740000 0.477380
v -1.184124 0.740000 0.512190
v -1.158642 0.740000 0.537671
v -1.123833 0.740000 0.546999
v -0.509771 0.740000 0.029000
v -0.531000 0.740000 0.050229
v -0.560000 0.740000 0.058000
v -0.589000 0.740000 0.050229
v -0.610229 0.740000 0.029000
v -0.618000 0.740000 -0.000000
v -0.610229 0.740000 -0.029000
v -0.589000 0.740000 -0.050229
v -0.560000 0.740000 -0.058000
v -0.531000 0.740000 -0.050229
v -0.509771 0.740000 -0.029000
v -0.502000 0.740000 0.000000
v -0.509771 0.746000 -0.029000
v -0.502000 0.746000 0.000000
v -0.531000 0.746000 -0.050229
v -0.560000 0.746000 -0.058000
v -0.589000 0.746000 -0.050229
v -0.610229 0.746000 -0.029000
v -0.618000 0.746000 -0.000000
v -0.610229 0.746000 0.029000
v -0.589000 0.746000 0.050229
v -0.560000 0.746000 0.058000
v -0.531000 0.746000 0.050229
v -0.509771 0.746000 0.029000
v -0.534019 0.746000 -0.015000
v -0.530000 0.746000 0.000000
v -0.545000 0.746000 -0.025981
v -0.560000 0.746000 -0.030000
v -0.575000 0.746000 -0.025981
v -0.585981 0.746000 -0.015000
v -0.590000 0.746000 -0.000000
v -0.585981 0.746000 0.015000
v -0.575000 0.746000 0.025981
v -0.560000 0.746000 0.030000
v -0.545000 0.746000 0.025981
v -0.534019 0.746000 0.015000
v -0.530000 0.742000 0.000000
v -0.534019 0.742000 -0.015000
v -0.545000 0.742000 -0.025981
v -0.560000 0.742000 -0.030000
v -0.575000 0.742000 -0.025981
v -0.585981 0.742000 -0.015000
v -0.590000 0.742000 -0.000000
v -0.585981 0.742000 0.015000
v -0.575000 0.742000 0.025981
v -0.560000 0.742000 0.030000
v -0.545000 0.742000 0.025981
v -0.534019 0.742000 0.015000
v 0.610229 0.740000 0.029000
v 0.589000 0.740000 0.050229
v 0.560000 0.740000 0.058000
v 0.531000 0.740000 0.050229
v 0.509771 0.740000 0.029000
v 0.502000 0.740000 -0.000000
v 0.509771 0.740000 -0.029000
v 0.531000 0.740000 -0.050229
v 0.560000 0.740000 -0.058000
v 0.589000 0.740000 -0.050229
v 0.610229 0.740000 -0.029000
v 0.618000 0.740000 0.000000
v 0.610229 0.746000 -0.029000
v 0.618000 0.746000 0.000000
v 0.589000 0.746000 -0.050229
v 0.560000 0.746000 -0.058000
v 0.531000 0.746000 -0.050229
v 0.509771 0.746000 -0.029000
v 0.502000 0.746000 -0.000000
v 0.509771 0.746000 0.029000
v 0.531000 0.746000 0.050229
v 0.560000 0.746000 0.058000
v 0.589000 0.746000 0.050229
v 0.610229 0.746000 0.029000
v 0.585981 0.746000 -0.015000
v 0.590000 0.746000 0.000000
v 0.575000 0.746000 -0.025981
v 0.560000 0.746000 -0.030000
v 0.545000 0.746000 -0.025981
v 0.534019 0.746000 -0.015000
v 0.530000 0.746000 -0.000000
v 0.534019 0.746000 0.015000
v 0.545000 0.746000 0.025981
v 0.560000 0.746000 0.030000
v 0.575000 0.746000 0.025981
v 0.585981 0.746000 0.015000
v 0.590000 0.742000 0.000000
v 0.585981 0.742000 -0.015000
v 0.575000 0.742000 -0.025981
v 0.560000 0.742000 -0.030000
v 0.545000 0.742000 -0.025981
v 0.534019 0.742000 -0.015000
v 0.530000 0.742000 -0.000000
v 0.534019 0.742000 0.015000
v 0.545000 0.742000 0.025981
v 0.560000 0.742000 0.030000
v 0.575000 0.742000 0.025981
v 0.585981 0.742000 0.015000
vn -0.0000 -1.0000 -0.0000
vn -0.0000 1.0000 -0.0000
vn 0.2338 0.4286 0.8727
vn 0.6469 0.4038 0.6469
vn 0.9217 0.2993 0.2470
vn 0.9751 0.2216 -0.0000
vn 0.9217 0.2993 -0.2470
vn 0.6469 0.4038 -0.6469
vn 0.2338 0.4286 -0.8727
vn -0.0000 0.4138 -0.9104
vn -0.2338 0.4286 -0.8727
vn -0.6469 0.4038 -0.6469
vn -0.9217 0.2993 -0.2470
vn -0.9751 0.2216 -0.0000
vn -0.9217 0.2993 0.2470
vn -0.6469 0.4038 0.6469
vn -0.2338 0.4286 0.8727
vn -0.0000 0.4138 0.9104
vn -0.0000 -0.0000 1.0000
vn -0.0000 -0.0000 -1.0000
vn -1.0000 -0.0000 -0.0000
vn 1.0000 -0.0000 -0.0000
vn 0.2587 0.0291 0.9655
vn 0.7068 0.0317 0.7067
vn 0.9656 0.0267 0.2587
vn 0.9998 0.0218 -0.0000
vn 0.9656 0.0267 -0.2587
vn 0.7068 0.0317 -0.7067
vn 0.2587 0.0291 -0.9655
vn -0.0000 0.0252 -0.9997
vn -0.2587 0.0291 -0.9655
vn -0.7068 0.0317 -0.7068
vn -0.9656 0.0267 -0.2587
vn -0.9998 0.0218 -0.0000
vn -0.9656 0.0267 0.2587
vn -0.7068 0.0317 0.7068
vn -0.2587 0.0291 0.9655
vn -0.0000 0.0252 0.9997
vn 0.2495 -0.2660 0.9311
vn 0.6931 -0.1980 0.6931
vn 0.9633 -0.0737 0.2581
vn 0.9633 -0.0737 -0.2581
vn 0.6931 -0.1980 -0.6931
vn 0.2495 -0.2660 -0.9311
vn -0.0000 -0.2747 -0.9615
vn -0.2495 -0.2660 -0.9311
vn -0.6931 -0.1980 -0.6931
vn -0.9633 -0.0737 -0.2581
vn -0.9633 -0.0737 0.2581
vn -0.6931 -0.1980 0.6931
vn -0.2495 -0.2660 0.9311
vn -0.0000 -0.2747 0.9615
vn 0.7068 0.0317 0.7068
vn 0.7068 0.0317 -0.7068
vn -0.7068 0.0317 -0.7067
vn -0.7068 0.0317 0.7067
vn 0.2178 -0.5404 0.8128
vn 0.5152 -0.6850 0.5152
vn 0.6828 -0.7073 0.1830
vn 0.7303 -0.6832 -0.0000
vn 0.6828 -0.7073 -0.1830
vn 0.5152 -0.6850 -0.5152
vn 0.2178 -0.5404 -0.8128
vn -0.0000 -0.3941 -0.9191
vn -0.2178 -0.5404 -0.8128
vn -0.5152 -0.6850 -0.5152
vn -0.6828 -0.7073 -0.1830
vn -0.7303 -0.6832 -0.0000
vn -0.6828 -0.7073 0.1830
vn -0.5152 -0.6850 0.5152
vn -0.2178 -0.5404 0.8128
vn -0.0000 -0.3941 0.9191
vn 0.2588 -0.0000 0.9659
vn 0.7071 -0.0000 0.7071
vn 0.9659 -0.0000 0.2588
vn 0.9659 -0.0000 -0.2588
vn 0.7071 -0.0000 -0.7071
vn 0.2588 -0.0000 -0.9659
vn -0.2588 -0.0000 -0.9659
vn -0.7071 -0.0000 -0.7071
vn -0.9659 -0.0000 -0.2588
vn -0.9659 -0.0000 0.2588
vn -0.7071 -0.0000 0.7071
vn -0.2588 -0.0000 0.9659
vn 0.2178 0.5404 0.8128
vn 0.5152 0.6850 0.5152
vn 0.6828 0.7073 0.1830
vn 0.7303 0.6832 -0.0000
vn 0.6828 0.7073 -0.1830
vn 0.5152 0.6850 -0.5152
vn 0.2178 0.5404 -0.8128
vn -0.0000 0.3941 -0.9191
vn -0.2178 0.5404 -0.8128
vn -0.5152 0.6850 -0.5152
vn -0.6828 0.7073 -0.1830
vn -0.7303 0.6832 -0.0000
vn -0.6828 0.7073 0.1830
vn -0.5152 0.6850 0.5152
vn -0.2178 0.5404 0.8128
vn -0.0000 0.3941 0.9191
vt 0.812500 0.312500
vt 0.937500 0.187500
vt 0.437500 0.937500
vt 0.937500 0.312500
s 0
usemtl FN_Atlas
f 1/1/1 2/1/1 3/1/1 4/1/1 5/1/1 6/1/1 7/1/1 8/1/1 9/1/1 10/1/1 11/1/1 12/1/1 13/1/1 14/1/1 15/1/1 16/1/1
f 17/1/2 18/1/2 19/1/2 20/1/2 21/1/2 22/1/2 23/1/2 24/1/2 25/1/2 26/1/2 27/1/2 28/1/2 29/1/2 30/1/2 31/1/2 32/1/2
f 16/1/3 15/1/3 18/1/3 17/1/3
f 15/1/4 14/1/4 19/1/4 18/1/4
f 14/1/5 13/1/5 20/1/5 19/1/5
f 13/1/6 12/1/6 21/1/6 20/1/6
f 12/1/7 11/1/7 22/1/7 21/1/7
f 11/1/8 10/1/8 23/1/8 22/1/8
f 10/1/9 9/1/9 24/1/9 23/1/9
f 9/1/10 8/1/10 25/1/10 24/1/10
f 8/1/11 7/1/11 26/1/11 25/1/11
f 7/1/12 6/1/12 27/1/12 26/1/12
f 6/1/13 5/1/13 28/1/13 27/1/13
f 5/1/14 4/1/14 29/1/14 28/1/14
f 4/1/15 3/1/15 30/1/15 29/1/15
f 3/1/16 2/1/16 31/1/16 30/1/16
f 2/1/17 1/1/17 32/1/17 31/1/17
f 1/1/18 16/1/18 17/1/18 32/1/18
f 33/2/1 34/2/1 35/2/1 36/2/1
f 37/2/2 38/2/2 39/2/2 40/2/2
f 33/2/19 36/2/19 38/2/19 37/2/19
f 35/2/20 34/2/20 40/2/20 39/2/20
f 33/2/21 37/2/21 40/2/21 34/2/21
f 36/2/22 35/2/22 39/2/22 38/2/22
f 41/2/1 42/2/1 43/2/1 44/2/1
f 45/2/2 46/2/2 47/2/2 48/2/2
f 41/2/19 44/2/19 46/2/19 45/2/19
f 43/2/20 42/2/20 48/2/20 47/2/20
f 41/2/21 45/2/21 48/2/21 42/2/21
f 44/2/22 43/2/22 47/2/22 46/2/22
f 49/1/1 50/1/1 51/1/1 52/1/1 53/1/1 54/1/1 55/1/1 56/1/1 57/1/1 58/1/1 59/1/1 60/1/1 61/1/1 62/1/1 63/1/1 64/1/1
f 65/1/2 66/1/2 67/1/2 68/1/2 69/1/2 70/1/2 71/1/2 72/1/2 73/1/2 74/1/2 75/1/2 76/1/2 77/1/2 78/1/2 79/1/2 80/1/2
f 64/1/23 63/1/23 66/1/23 65/1/23
f 63/1/24 62/1/24 67/1/24 66/1/24
f 62/1/25 61/1/25 68/1/25 67/1/25
f 61/1/26 60/1/26 69/1/26 68/1/26
f 60/1/27 59/1/27 70/1/27 69/1/27
f 59/1/28 58/1/28 71/1/28 70/1/28
f 58/1/29 57/1/29 72/1/29 71/1/29
f 57/1/30 56/1/30 73/1/30 72/1/30
f 56/1/31 55/1/31 74/1/31 73/1/31
f 55/1/32 54/1/32 75/1/32 74/1/32
f 54/1/33 53/1/33 76/1/33 75/1/33
f 53/1/34 52/1/34 77/1/34 76/1/34
f 52/1/35 51/1/35 78/1/35 77/1/35
f 51/1/36 50/1/36 79/1/36 78/1/36
f 50/1/37 49/1/37 80/1/37 79/1/37
f 49/1/38 64/1/38 65/1/38 80/1/38
f 81/1/1 82/1/1 83/1/1 84/1/1 85/1/1 86/1/1 87/1/1 88/1/1 89/1/1 90/1/1 91/1/1 92/1/1 93/1/1 94/1/1 95/1/1 96/1/1
f 97/1/2 98/1/2 99/1/2 100/1/2 101/1/2 102/1/2 103/1/2 104/1/2 105/1/2 106/1/2 107/1/2 108/1/2 109/1/2 110/1/2 111/1/2 112/1/2
f 96/1/39 95/1/39 98/1/39 97/1/39
f 95/1/40 94/1/40 99/1/40 98/1/40
f 94/1/41 93/1/41 100/1/41 99/1/41
f 93/1/22 92/1/22 101/1/22 100/1/22
f 92/1/42 91/1/42 102/1/42 101/1/42
f 91/1/43 90/1/43 103/1/43 102/1/43
f 90/1/44 89/1/44 104/1/44 103/1/44
f 89/1/45 88/1/45 105/1/45 104/1/45
f 88/1/46 87/1/46 106/1/46 105/1/46
f 87/1/47 86/1/47 107/1/47 106/1/47
f 86/1/48 85/1/48 108/1/48 107/1/48
f 85/1/21 84/1/21 109/1/21 108/1/21
f 84/1/49 83/1/49 110/1/49 109/1/49
f 83/1/50 82/1/50 111/1/50 110/1/50
f 82/1/51 81/1/51 112/1/51 111/1/51
f 81/1/52 96/1/52 97/1/52 112/1/52
f 113/1/1 114/1/1 115/1/1 116/1/1 117/1/1 118/1/1 119/1/1 120/1/1 121/1/1 122/1/1 123/1/1 124/1/1 125/1/1 126/1/1 127/1/1 128/1/1
f 129/1/2 130/1/2 131/1/2 132/1/2 133/1/2 134/1/2 135/1/2 136/1/2 137/1/2 138/1/2 139/1/2 140/1/2 141/1/2 142/1/2 143/1/2 144/1/2
f 128/1/3 127/1/3 130/1/3 129/1/3
f 127/1/4 126/1/4 131/1/4 130/1/4
f 126/1/5 125/1/5 132/1/5 131/1/5
f 125/1/6 124/1/6 133/1/6 132/1/6
f 124/1/7 123/1/7 134/1/7 133/1/7
f 123/1/8 122/1/8 135/1/8 134/1/8
f 122/1/9 121/1/9 136/1/9 135/1/9
f 121/1/10 120/1/10 137/1/10 136/1/10
f 120/1/11 119/1/11 138/1/11 137/1/11
f 119/1/12 118/1/12 139/1/12 138/1/12
f 118/1/13 117/1/13 140/1/13 139/1/13
f 117/1/14 116/1/14 141/1/14 140/1/14
f 116/1/15 115/1/15 142/1/15 141/1/15
f 115/1/16 114/1/16 143/1/16 142/1/16
f 114/1/17 113/1/17 144/1/17 143/1/17
f 113/1/18 128/1/18 129/1/18 144/1/18
f 145/2/1 146/2/1 147/2/1 148/2/1
f 149/2/2 150/2/2 151/2/2 152/2/2
f 145/2/19 148/2/19 150/2/19 149/2/19
f 147/2/20 146/2/20 152/2/20 151/2/20
f 145/2/21 149/2/21 152/2/21 146/2/21
f 148/2/22 147/2/22 151/2/22 150/2/22
f 153/2/1 154/2/1 155/2/1 156/2/1
f 157/2/2 158/2/2 159/2/2 160/2/2
f 153/2/19 156/2/19 158/2/19 157/2/19
f 155/2/20 154/2/20 160/2/20 159/2/20
f 153/2/21 157/2/21 160/2/21 154/2/21
f 156/2/22 155/2/22 159/2/22 158/2/22
f 161/1/1 162/1/1 163/1/1 164/1/1 165/1/1 166/1/1 167/1/1 168/1/1 169/1/1 170/1/1 171/1/1 172/1/1 173/1/1 174/1/1 175/1/1 176/1/1
f 177/1/2 178/1/2 179/1/2 180/1/2 181/1/2 182/1/2 183/1/2 184/1/2 185/1/2 186/1/2 187/1/2 188/1/2 189/1/2 190/1/2 191/1/2 192/1/2
f 176/1/23 175/1/23 178/1/23 177/1/23
f 175/1/53 174/1/53 179/1/53 178/1/53
f 174/1/25 173/1/25 180/1/25 179/1/25
f 173/1/26 172/1/26 181/1/26 180/1/26
f 172/1/27 171/1/27 182/1/27 181/1/27
f 171/1/54 170/1/54 183/1/54 182/1/54
f 170/1/29 169/1/29 184/1/29 183/1/29
f 169/1/30 168/1/30 185/1/30 184/1/30
f 168/1/31 167/1/31 186/1/31 185/1/31
f 167/1/55 166/1/55 187/1/55 186/1/55
f 166/1/33 165/1/33 188/1/33 187/1/33
f 165/1/34 164/1/34 189/1/34 188/1/34
f 164/1/35 163/1/35 190/1/35 189/1/35
f 163/1/56 162/1/56 191/1/56 190/1/56
f 162/1/37 161/1/37 192/1/37 191/1/37
f 161/1/38 176/1/38 177/1/38 192/1/38
f 193/1/1 194/1/1 195/1/1 196/1/1 197/1/1 198/1/1 199/1/1 200/1/1 201/1/1 202/1/1 203/1/1 204/1/1 205/1/1 206/1/1 207/1/1 208/1/1
f 209/1/2 210/1/2 211/1/2 212/1/2 213/1/2 214/1/2 215/1/2 216/1/2 217/1/2 218/1/2 219/1/2 220/1/2 221/1/2 222/1/2 223/1/2 224/1/2
f 208/1/39 207/1/39 210/1/39 209/1/39
f 207/1/40 206/1/40 211/1/40 210/1/40
f 206/1/41 205/1/41 212/1/41 211/1/41
f 205/1/22 204/1/22 213/1/22 212/1/22
f 204/1/42 203/1/42 214/1/42 213/1/42
f 203/1/43 202/1/43 215/1/43 214/1/43
f 202/1/44 201/1/44 216/1/44 215/1/44
f 201/1/45 200/1/45 217/1/45 216/1/45
f 200/1/46 199/1/46 218/1/46 217/1/46
f 199/1/47 198/1/47 219/1/47 218/1/47
f 198/1/48 197/1/48 220/1/48 219/1/48
f 197/1/21 196/1/21 221/1/21 220/1/21
f 196/1/49 195/1/49 222/1/49 221/1/49
f 195/1/50 194/1/50 223/1/50 222/1/50
f 194/1/51 193/1/51 224/1/51 223/1/51
f 193/1/52 208/1/52 209/1/52 224/1/52
f 225/1/1 226/1/1 227/1/1 228/1/1
f 229/1/2 230/1/2 231/1/2 232/1/2
f 225/1/19 228/1/19 230/1/19 229/1/19
f 227/1/20 226/1/20 232/1/20 231/1/20
f 225/1/21 229/1/21 232/1/21 226/1/21
f 228/1/22 227/1/22 231/1/22 230/1/22
f 233/3/1 234/3/1 235/3/1 236/3/1 237/3/1 238/3/1 239/3/1 240/3/1 241/3/1 242/3/1 243/3/1 244/3/1 245/3/1 246/3/1 247/3/1 248/3/1
f 248/3/57 247/3/57 249/3/57 250/3/57
f 247/3/58 246/3/58 251/3/58 249/3/58
f 246/3/59 245/3/59 252/3/59 251/3/59
f 245/3/60 244/3/60 253/3/60 252/3/60
f 244/3/61 243/3/61 254/3/61 253/3/61
f 243/3/62 242/3/62 255/3/62 254/3/62
f 242/3/63 241/3/63 256/3/63 255/3/63
f 241/3/64 240/3/64 257/3/64 256/3/64
f 240/3/65 239/3/65 258/3/65 257/3/65
f 239/3/66 238/3/66 259/3/66 258/3/66
f 238/3/67 237/3/67 260/3/67 259/3/67
f 237/3/68 236/3/68 261/3/68 260/3/68
f 236/3/69 235/3/69 262/3/69 261/3/69
f 235/3/70 234/3/70 263/3/70 262/3/70
f 234/3/71 233/3/71 264/3/71 263/3/71
f 233/3/72 248/3/72 250/3/72 264/3/72
f 250/3/73 249/3/73 265/3/73 266/3/73
f 249/3/74 251/3/74 267/3/74 265/3/74
f 251/3/75 252/3/75 268/3/75 267/3/75
f 252/3/22 253/3/22 269/3/22 268/3/22
f 253/3/76 254/3/76 270/3/76 269/3/76
f 254/3/77 255/3/77 271/3/77 270/3/77
f 255/3/78 256/3/78 272/3/78 271/3/78
f 256/3/20 257/3/20 273/3/20 272/3/20
f 257/3/79 258/3/79 274/3/79 273/3/79
f 258/3/80 259/3/80 275/3/80 274/3/80
f 259/3/81 260/3/81 276/3/81 275/3/81
f 260/3/21 261/3/21 277/3/21 276/3/21
f 261/3/82 262/3/82 278/3/82 277/3/82
f 262/3/83 263/3/83 279/3/83 278/3/83
f 263/3/84 264/3/84 280/3/84 279/3/84
f 264/3/19 250/3/19 266/3/19 280/3/19
f 281/3/2 282/3/2 283/3/2 284/3/2 285/3/2 286/3/2 287/3/2 288/3/2 289/3/2 290/3/2 291/3/2 292/3/2 293/3/2 294/3/2 295/3/2 296/3/2
f 266/3/85 265/3/85 282/3/85 281/3/85
f 265/3/86 267/3/86 283/3/86 282/3/86
f 267/3/87 268/3/87 284/3/87 283/3/87
f 268/3/88 269/3/88 285/3/88 284/3/88
f 269/3/89 270/3/89 286/3/89 285/3/89
f 270/3/90 271/3/90 287/3/90 286/3/90
f 271/3/91 272/3/91 288/3/91 287/3/91
f 272/3/92 273/3/92 289/3/92 288/3/92
f 273/3/93 274/3/93 290/3/93 289/3/93
f 274/3/94 275/3/94 291/3/94 290/3/94
f 275/3/95 276/3/95 292/3/95 291/3/95
f 276/3/96 277/3/96 293/3/96 292/3/96
f 277/3/97 278/3/97 294/3/97 293/3/97
f 278/3/98 279/3/98 295/3/98 294/3/98
f 279/3/99 280/3/99 296/3/99 295/3/99
f 280/3/100 266/3/100 281/3/100 296/3/100
f 297/4/1 298/4/1 299/4/1 300/4/1 301/4/1 302/4/1 303/4/1 304/4/1 305/4/1 306/4/1 307/4/1 308/4/1
f 308/4/76 307/4/76 309/4/76 310/4/76
f 307/4/77 306/4/77 311/4/77 309/4/77
f 306/4/78 305/4/78 312/4/78 311/4/78
f 305/4/79 304/4/79 313/4/79 312/4/79
f 304/4/80 303/4/80 314/4/80 313/4/80
f 303/4/81 302/4/81 315/4/81 314/4/81
f 302/4/82 301/4/82 316/4/82 315/4/82
f 301/4/83 300/4/83 317/4/83 316/4/83
f 300/4/84 299/4/84 318/4/84 317/4/84
f 299/4/73 298/4/73 319/4/73 318/4/73
f 298/4/74 297/4/74 320/4/74 319/4/74
f 297/4/75 308/4/75 310/4/75 320/4/75
f 310/4/2 309/4/2 321/4/2 322/4/2
f 309/4/2 311/4/2 323/4/2 321/4/2
f 311/4/2 312/4/2 324/4/2 323/4/2
f 312/4/2 313/4/2 325/4/2 324/4/2
f 313/4/2 314/4/2 326/4/2 325/4/2
f 314/4/2 315/4/2 327/4/2 326/4/2
f 315/4/2 316/4/2 328/4/2 327/4/2
f 316/4/2 317/4/2 329/4/2 328/4/2
f 317/4/2 318/4/2 330/4/2 329/4/2
f 318/4/2 319/4/2 331/4/2 330/4/2
f 319/4/2 320/4/2 332/4/2 331/4/2
f 320/4/2 310/4/2 322/4/2 332/4/2
f 333/4/2 334/4/2 335/4/2 336/4/2 337/4/2 338/4/2 339/4/2 340/4/2 341/4/2 342/4/2 343/4/2 344/4/2
f 322/4/82 321/4/82 334/4/82 333/4/82
f 321/4/83 323/4/83 335/4/83 334/4/83
f 323/4/84 324/4/84 336/4/84 335/4/84
f 324/4/73 325/4/73 337/4/73 336/4/73
f 325/4/74 326/4/74 338/4/74 337/4/74
f 326/4/75 327/4/75 339/4/75 338/4/75
f 327/4/76 328/4/76 340/4/76 339/4/76
f 328/4/77 329/4/77 341/4/77 340/4/77
f 329/4/78 330/4/78 342/4/78 341/4/78
f 330/4/79 331/4/79 343/4/79 342/4/79
f 331/4/80 332/4/80 344/4/80 343/4/80
f 332/4/81 322/4/81 333/4/81 344/4/81
f 345/4/1 346/4/1 347/4/1 348/4/1 349/4/1 350/4/1 351/4/1 352/4/1 353/4/1 354/4/1 355/4/1 356/4/1
f 356/4/76 355/4/76 357/4/76 358/4/76
f 355/4/77 354/4/77 359/4/77 357/4/77
f 354/4/78 353/4/78 360/4/78 359/4/78
f 353/4/79 352/4/79 361/4/79 360/4/79
f 352/4/80 351/4/80 362/4/80 361/4/80
f 351/4/81 350/4/81 363/4/81 362/4/81
f 350/4/82 349/4/82 364/4/82 363/4/82
f 349/4/83 348/4/83 365/4/83 364/4/83
f 348/4/84 347/4/84 366/4/84 365/4/84
f 347/4/73 346/4/73 367/4/73 366/4/73
f 346/4/74 345/4/74 368/4/74 367/4/74
f 345/4/75 356/4/75 358/4/75 368/4/75
f 358/4/2 357/4/2 369/4/2 370/4/2
f 357/4/2 359/4/2 371/4/2 369/4/2
f 359/4/2 360/4/2 372/4/2 371/4/2
f 360/4/2 361/4/2 373/4/2 372/4/2
f 361/4/2 362/4/2 374/4/2 373/4/2
f 362/4/2 363/4/2 375/4/2 374/4/2
f 363/4/2 364/4/2 376/4/2 375/4/2
f 364/4/2 365/4/2 377/4/2 376/4/2
f 365/4/2 366/4/2 378/4/2 377/4/2
f 366/4/2 367/4/2 379/4/2 378/4/2
f 367/4/2 368/4/2 380/4/2 379/4/2
f 368/4/2 358/4/2 370/4/2 380/4/2
f 381/4/2 382/4/2 383/4/2 384/4/2 385/4/2 386/4/2 387/4/2 388/4/2 389/4/2 390/4/2 391/4/2 392/4/2
f 370/4/82 369/4/82 382/4/82 381/4/82
f 369/4/83 371/4/83 383/4/83 382/4/83
f 371/4/84 372/4/84 384/4/84 383/4/84
f 372/4/73 373/4/73 385/4/73 384/4/73
f 373/4/74 374/4/74 386/4/74 385/4/74
f 374/4/75 375/4/75 387/4/75 386/4/75
f 375/4/76 376/4/76 388/4/76 387/4/76
f 376/4/77 377/4/77 389/4/77 388/4/77
f 377/4/78 378/4/78 390/4/78 389/4/78
f 378/4/79 379/4/79 391/4/79 390/4/79
f 379/4/80 380/4/80 392/4/80 391/4/80
f 380/4/81 370/4/81 381/4/81 392/4/81
