# Blender 5.2.0 LTS
# www.blender.org
mtllib FN_Table_Drafting.mtl
o FN_Table_Drafting
v -0.500000 0.000000 -0.328023
v -0.500000 0.000000 -0.284023
v -0.500000 0.840000 -0.210023
v -0.500000 0.840000 -0.254023
v -0.460000 0.840000 -0.254023
v -0.460000 0.840000 -0.210023
v -0.460000 0.000000 -0.284023
v -0.460000 0.000000 -0.328023
v -0.500000 0.000000 0.267977
v -0.500000 0.000000 0.311977
v -0.500000 0.840000 0.237977
v -0.500000 0.840000 0.193977
v -0.460000 0.840000 0.193977
v -0.460000 0.840000 0.237977
v -0.460000 0.000000 0.311977
v -0.460000 0.000000 0.267977
v 0.460000 0.840000 0.237977
v 0.460000 0.840000 0.193977
v 0.460000 0.000000 0.267977
v 0.460000 0.000000 0.311977
v 0.500000 0.000000 0.311977
v 0.500000 0.000000 0.267977
v 0.500000 0.840000 0.193977
v 0.500000 0.840000 0.237977
v 0.460000 0.840000 -0.210023
v 0.460000 0.840000 -0.254023
v 0.460000 0.000000 -0.328023
v 0.460000 0.000000 -0.284023
v 0.500000 0.000000 -0.284023
v 0.500000 0.000000 -0.328023
v 0.500000 0.840000 -0.254023
v 0.500000 0.840000 -0.210023
v -0.496000 0.700000 0.271977
v -0.496000 0.700000 -0.288023
v -0.464000 0.700000 -0.288023
v -0.464000 0.700000 0.271977
v -0.496000 0.745000 0.271977
v -0.464000 0.745000 0.271977
v -0.464000 0.745000 -0.288023
v -0.496000 0.745000 -0.288023
v -0.494000 0.735000 0.011977
v -0.494000 0.735000 -0.028023
v -0.466000 0.735000 -0.028023
v -0.466000 0.735000 0.011977
v -0.494000 0.858000 0.011977
v -0.466000 0.858000 0.011977
v -0.466000 0.858000 -0.028023
v -0.494000 0.858000 -0.028023
v -0.502000 0.848787 -0.029237
v -0.502000 0.840000 -0.008023
v -0.502000 0.848787 0.013190
v -0.502000 0.870000 0.021977
v -0.502000 0.891213 0.013190
v -0.502000 0.900000 -0.008023
v -0.502000 0.891213 -0.029237
v -0.502000 0.870000 -0.038023
v -0.464000 0.870000 -0.038023
v -0.464000 0.891213 -0.029237
v -0.464000 0.900000 -0.008023
v -0.464000 0.891213 0.013190
v -0.464000 0.870000 0.021977
v -0.464000 0.848787 0.013190
v -0.464000 0.840000 -0.008023
v -0.464000 0.848787 -0.029237
v 0.464000 0.700000 0.271977
v 0.464000 0.700000 -0.288023
v 0.496000 0.700000 -0.288023
v 0.496000 0.700000 0.271977
v 0.464000 0.745000 0.271977
v 0.496000 0.745000 0.271977
v 0.496000 0.745000 -0.288023
v 0.464000 0.745000 -0.288023
v 0.466000 0.735000 0.011977
v 0.466000 0.735000 -0.028023
v 0.494000 0.735000 -0.028023
v 0.494000 0.735000 0.011977
v 0.466000 0.858000 0.011977
v 0.494000 0.858000 0.011977
v 0.494000 0.858000 -0.028023
v 0.466000 0.858000 -0.028023
v 0.464000 0.848787 -0.029237
v 0.464000 0.840000 -0.008023
v 0.464000 0.848787 0.013190
v 0.464000 0.870000 0.021977
v 0.464000 0.891213 0.013190
v 0.464000 0.900000 -0.008023
v 0.464000 0.891213 -0.029237
v 0.464000 0.870000 -0.038023
v 0.502000 0.870000 -0.038023
v 0.502000 0.891213 -0.029237
v 0.502000 0.900000 -0.008023
v 0.502000 0.891213 0.013190
v 0.502000 0.870000 0.021977
v 0.502000 0.848787 0.013190
v 0.502000 0.840000 -0.008023
v 0.502000 0.848787 -0.029237
v -0.500000 0.240000 0.281977
v -0.500000 0.240000 0.247977
v 0.500000 0.240000 0.247977
v 0.500000 0.240000 0.281977
v -0.500000 0.284000 0.281977
v 0.500000 0.284000 0.281977
v 0.500000 0.284000 0.247977
v -0.500000 0.284000 0.247977
v -0.500000 0.240000 -0.264023
v -0.500000 0.240000 -0.298023
v 0.500000 0.240000 -0.298023
v 0.500000 0.240000 -0.264023
v -0.500000 0.284000 -0.264023
v 0.500000 0.284000 -0.264023
v 0.500000 0.284000 -0.298023
v -0.500000 0.284000 -0.298023
v -0.024000 0.250000 0.271977
v -0.024000 0.250000 -0.288023
v 0.024000 0.250000 -0.288023
v 0.024000 0.250000 0.271977
v -0.024000 0.274000 0.271977
v 0.024000 0.274000 0.271977
v 0.024000 0.274000 -0.288023
v -0.024000 0.274000 -0.288023
v -0.550000 0.808391 0.337815
v -0.550000 0.989564 -0.338333
v -0.550000 0.960587 -0.346097
v -0.550000 0.779413 0.330051
v 0.550000 0.779413 0.330051
v 0.550000 0.960587 -0.346097
v 0.550000 0.989564 -0.338333
v 0.550000 0.808391 0.337815
v -0.550000 0.839301 0.346097
v -0.550000 0.849653 0.307460
v -0.550000 0.809085 0.296590
v -0.550000 0.798732 0.335227
v 0.550000 0.798732 0.335227
v 0.550000 0.809085 0.296590
v 0.550000 0.849653 0.307460
v 0.550000 0.839301 0.346097
v -0.270000 0.825196 0.290554
v -0.270000 0.964958 -0.231046
v -0.270000 0.957231 -0.233116
v -0.270000 0.817468 0.288484
v 0.270000 0.817468 0.288484
v 0.270000 0.957231 -0.233116
v 0.270000 0.964958 -0.231046
v 0.270000 0.825196 0.290554
vn -1.0000 -0.0000 -0.0000
vn 1.0000 -0.0000 -0.0000
vn -0.0000 -1.0000 -0.0000
vn -0.0000 -0.0878 0.9961
vn -0.0000 1.0000 -0.0000
vn -0.0000 0.0878 -0.9961
vn -0.0000 0.0878 0.9961
vn -0.0000 -0.0878 -0.9961
vn -0.0000 -0.0000 1.0000
vn -0.0000 -0.0000 -1.0000
vn -0.0000 0.3827 -0.9239
vn -0.0000 0.9239 -0.3827
vn -0.0000 0.9239 0.3827
vn -0.0000 0.3827 0.9239
vn -0.0000 -0.3827 0.9239
vn -0.0000 -0.9239 0.3827
vn -0.0000 -0.9239 -0.3827
vn -0.0000 -0.3827 -0.9239
vn -0.0000 -0.9659 -0.2588
vn -0.0000 0.2588 -0.9659
vn -0.0000 0.9659 0.2588
vn -0.0000 -0.2588 0.9659
vt 0.062500 0.312500
vt 0.562500 0.562500
vt 0.562500 0.687500
s 0
usemtl FN_Atlas
f 1/1/1 2/1/1 3/1/1 4/1/1
f 5/1/2 6/1/2 7/1/2 8/1/2
f 8/1/3 7/1/3 2/1/3 1/1/3
f 7/1/4 6/1/4 3/1/4 2/1/4
f 6/1/5 5/1/5 4/1/5 3/1/5
f 5/1/6 8/1/6 1/1/6 4/1/6
f 9/1/1 10/1/1 11/1/1 12/1/1
f 13/1/2 14/1/2 15/1/2 16/1/2
f 16/1/3 15/1/3 10/1/3 9/1/3
f 15/1/7 14/1/7 11/1/7 10/1/7
f 14/1/5 13/1/5 12/1/5 11/1/5
f 13/1/8 16/1/8 9/1/8 12/1/8
f 17/1/1 18/1/1 19/1/1 20/1/1
f 21/1/2 22/1/2 23/1/2 24/1/2
f 20/1/3 19/1/3 22/1/3 21/1/3
f 19/1/8 18/1/8 23/1/8 22/1/8
f 18/1/5 17/1/5 24/1/5 23/1/5
f 17/1/7 20/1/7 21/1/7 24/1/7
f 25/1/1 26/1/1 27/1/1 28/1/1
f 29/1/2 30/1/2 31/1/2 32/1/2
f 28/1/3 27/1/3 30/1/3 29/1/3
f 27/1/6 26/1/6 31/1/6 30/1/6
f 26/1/5 25/1/5 32/1/5 31/1/5
f 25/1/4 28/1/4 29/1/4 32/1/4
f 33/1/3 34/1/3 35/1/3 36/1/3
f 37/1/5 38/1/5 39/1/5 40/1/5
f 33/1/9 36/1/9 38/1/9 37/1/9
f 35/1/10 34/1/10 40/1/10 39/1/10
f 33/1/1 37/1/1 40/1/1 34/1/1
f 36/1/2 35/1/2 39/1/2 38/1/2
f 41/1/3 42/1/3 43/1/3 44/1/3
f 45/1/5 46/1/5 47/1/5 48/1/5
f 41/1/9 44/1/9 46/1/9 45/1/9
f 43/1/10 42/1/10 48/1/10 47/1/10
f 41/1/1 45/1/1 48/1/1 42/1/1
f 44/1/2 43/1/2 47/1/2 46/1/2
f 49/1/1 50/1/1 51/1/1 52/1/1 53/1/1 54/1/1 55/1/1 56/1/1
f 57/1/2 58/1/2 59/1/2 60/1/2 61/1/2 62/1/2 63/1/2 64/1/2
f 56/1/11 55/1/11 58/1/11 57/1/11
f 55/1/12 54/1/12 59/1/12 58/1/12
f 54/1/13 53/1/13 60/1/13 59/1/13
f 53/1/14 52/1/14 61/1/14 60/1/14
f 52/1/15 51/1/15 62/1/15 61/1/15
f 51/1/16 50/1/16 63/1/16 62/1/16
f 50/1/17 49/1/17 64/1/17 63/1/17
f 49/1/18 56/1/18 57/1/18 64/1/18
f 65/1/3 66/1/3 67/1/3 68/1/3
f 69/1/5 70/1/5 71/1/5 72/1/5
f 65/1/9 68/1/9 70/1/9 69/1/9
f 67/1/10 66/1/10 72/1/10 71/1/10
f 65/1/1 69/1/1 72/1/1 66/1/1
f 68/1/2 67/1/2 71/1/2 70/1/2
f 73/1/3 74/1/3 75/1/3 76/1/3
f 77/1/5 78/1/5 79/1/5 80/1/5
f 73/1/9 76/1/9 78/1/9 77/1/9
f 75/1/10 74/1/10 80/1/10 79/1/10
f 73/1/1 77/1/1 80/1/1 74/1/1
f 76/1/2 75/1/2 79/1/2 78/1/2
f 81/1/1 82/1/1 83/1/1 84/1/1 85/1/1 86/1/1 87/1/1 88/1/1
f 89/1/2 90/1/2 91/1/2 92/1/2 93/1/2 94/1/2 95/1/2 96/1/2
f 88/1/11 87/1/11 90/1/11 89/1/11
f 87/1/12 86/1/12 91/1/12 90/1/12
f 86/1/13 85/1/13 92/1/13 91/1/13
f 85/1/14 84/1/14 93/1/14 92/1/14
f 84/1/15 83/1/15 94/1/15 93/1/15
f 83/1/16 82/1/16 95/1/16 94/1/16
f 82/1/17 81/1/17 96/1/17 95/1/17
f 81/1/18 88/1/18 89/1/18 96/1/18
f 97/1/3 98/1/3 99/1/3 100/1/3
f 101/1/5 102/1/5 103/1/5 104/1/5
f 97/1/9 100/1/9 102/1/9 101/1/9
f 99/1/10 98/1/10 104/1/10 103/1/10
f 97/1/1 101/1/1 104/1/1 98/1/1
f 100/1/2 99/1/2 103/1/2 102/1/2
f 105/1/3 106/1/3 107/1/3 108/1/3
f 109/1/5 110/1/5 111/1/5 112/1/5
f 105/1/9 108/1/9 110/1/9 109/1/9
f 107/1/10 106/1/10 112/1/10 111/1/10
f 105/1/1 109/1/1 112/1/1 106/1/1
f 108/1/2 107/1/2 111/1/2 110/1/2
f 113/1/3 114/1/3 115/1/3 116/1/3
f 117/1/5 118/1/5 119/1/5 120/1/5
f 113/1/9 116/1/9 118/1/9 117/1/9
f 115/1/10 114/1/10 120/1/10 119/1/10
f 113/1/1 117/1/1 120/1/1 114/1/1
f 116/1/2 115/1/2 119/1/2 118/1/2
f 121/2/1 122/2/1 123/2/1 124/2/1
f 125/2/2 126/2/2 127/2/2 128/2/2
f 124/2/19 123/2/19 126/2/19 125/2/19
f 123/2/20 122/2/20 127/2/20 126/2/20
f 122/2/21 121/2/21 128/2/21 127/2/21
f 121/2/22 124/2/22 125/2/22 128/2/22
f 129/1/1 130/1/1 131/1/1 132/1/1
f 133/1/2 134/1/2 135/1/2 136/1/2
f 132/1/19 131/1/19 134/1/19 133/1/19
f 131/1/20 130/1/20 135/1/20 134/1/20
f 130/1/21 129/1/21 136/1/21 135/1/21
f 129/1/22 132/1/22 133/1/22 136/1/22
f 137/3/1 138/3/1 139/3/1 140/3/1
f 141/3/2 142/3/2 143/3/2 144/3/2
f 140/3/19 139/3/19 142/3/19 141/3/19
f 139/3/20 138/3/20 143/3/20 142/3/20
f 138/3/21 137/3/21 144/3/21 143/3/21
f 137/3/22 140/3/22 141/3/22 144/3/22
