# Blender 5.2.0 LTS
# www.blender.org
mtllib FN_Table_Drop_Leaf.mtl
o FN_Table_Drop_Leaf
v -0.381000 0.716000 0.364000
v -0.329000 0.716000 0.364000
v -0.329000 0.716000 0.416000
v -0.381000 0.716000 0.416000
v -0.374000 0.000000 0.409000
v -0.336000 0.000000 0.409000
v -0.336000 0.000000 0.371000
v -0.374000 0.000000 0.371000
v -0.381000 0.716000 -0.416000
v -0.329000 0.716000 -0.416000
v -0.329000 0.716000 -0.364000
v -0.381000 0.716000 -0.364000
v -0.374000 0.000000 -0.371000
v -0.336000 0.000000 -0.371000
v -0.336000 0.000000 -0.409000
v -0.374000 0.000000 -0.409000
v -0.001000 0.716000 0.364000
v 0.051000 0.716000 0.364000
v 0.051000 0.716000 0.416000
v -0.001000 0.716000 0.416000
v 0.006000 0.000000 0.409000
v 0.044000 0.000000 0.409000
v 0.044000 0.000000 0.371000
v 0.006000 0.000000 0.371000
v -0.001000 0.716000 -0.416000
v 0.051000 0.716000 -0.416000
v 0.051000 0.716000 -0.364000
v -0.001000 0.716000 -0.364000
v 0.006000 0.000000 -0.371000
v 0.044000 0.000000 -0.371000
v 0.044000 0.000000 -0.409000
v 0.006000 0.000000 -0.409000
v -0.385000 0.628000 0.400000
v -0.385000 0.628000 0.366000
v 0.055000 0.628000 0.366000
v 0.055000 0.628000 0.400000
v -0.385000 0.710000 0.400000
v 0.055000 0.710000 0.400000
v 0.055000 0.710000 0.366000
v -0.385000 0.710000 0.366000
v -0.385000 0.628000 -0.366000
v -0.385000 0.628000 -0.400000
v 0.055000 0.628000 -0.400000
v 0.055000 0.628000 -0.366000
v -0.385000 0.710000 -0.366000
v 0.055000 0.710000 -0.366000
v 0.055000 0.710000 -0.400000
v -0.385000 0.710000 -0.400000
v -0.385000 0.628000 0.390000
v -0.385000 0.628000 -0.390000
v -0.361000 0.628000 -0.390000
v -0.361000 0.628000 0.390000
v -0.385000 0.710000 0.390000
v -0.361000 0.710000 0.390000
v -0.361000 0.710000 -0.390000
v -0.385000 0.710000 -0.390000
v 0.031000 0.628000 0.390000
v 0.031000 0.628000 -0.390000
v 0.055000 0.628000 -0.390000
v 0.055000 0.628000 0.390000
v 0.031000 0.710000 0.390000
v 0.055000 0.710000 0.390000
v 0.055000 0.710000 -0.390000
v 0.031000 0.710000 -0.390000
v -0.402176 0.710000 -0.444706
v 0.072176 0.710000 -0.444706
v 0.072176 0.710000 0.444706
v -0.402176 0.710000 0.444706
v 0.075000 0.716000 0.450000
v -0.405000 0.716000 0.450000
v 0.075000 0.716000 -0.450000
v -0.405000 0.716000 -0.450000
v 0.075000 0.734000 0.450000
v -0.405000 0.734000 0.450000
v 0.075000 0.734000 -0.450000
v -0.405000 0.734000 -0.450000
v -0.402176 0.740000 0.444706
v 0.072176 0.740000 0.444706
v 0.072176 0.740000 -0.444706
v -0.402176 0.740000 -0.444706
v 0.069271 0.710000 -0.444446
v 0.432729 0.710000 -0.444446
v 0.432729 0.710000 0.444446
v 0.069271 0.710000 0.444446
v 0.435000 0.716000 0.450000
v 0.067000 0.716000 0.450000
v 0.435000 0.716000 -0.450000
v 0.067000 0.716000 -0.450000
v 0.435000 0.734000 0.450000
v 0.067000 0.734000 0.450000
v 0.435000 0.734000 -0.450000
v 0.067000 0.734000 -0.450000
v 0.069271 0.740000 0.444446
v 0.432729 0.740000 0.444446
v 0.432729 0.740000 -0.444446
v 0.069271 0.740000 -0.444446
v 0.039000 0.654000 0.324000
v 0.039000 0.654000 0.276000
v 0.325000 0.654000 0.276000
v 0.325000 0.654000 0.324000
v 0.039000 0.696000 0.324000
v 0.325000 0.696000 0.324000
v 0.325000 0.696000 0.276000
v 0.039000 0.696000 0.276000
v 0.039000 0.654000 -0.276000
v 0.039000 0.654000 -0.324000
v 0.325000 0.654000 -0.324000
v 0.325000 0.654000 -0.276000
v 0.039000 0.696000 -0.276000
v 0.325000 0.696000 -0.276000
v 0.325000 0.696000 -0.324000
v 0.039000 0.696000 -0.324000
v -0.434747 0.362000 -0.444005
v -0.397253 0.362000 -0.444005
v -0.397253 0.362000 0.444005
v -0.434747 0.362000 0.444005
v -0.397000 0.368000 0.450000
v -0.435000 0.368000 0.450000
v -0.397000 0.368000 -0.450000
v -0.435000 0.368000 -0.450000
v -0.397000 0.734000 0.450000
v -0.435000 0.734000 0.450000
v -0.397000 0.734000 -0.450000
v -0.435000 0.734000 -0.450000
v -0.434747 0.740000 0.444005
v -0.397253 0.740000 0.444005
v -0.397253 0.740000 -0.444005
v -0.434747 0.740000 -0.444005
vn -0.0000 -1.0000 -0.0000
vn -0.0000 1.0000 -0.0000
vn -0.0000 0.0098 -1.0000
vn -1.0000 0.0098 -0.0000
vn -0.0000 0.0098 1.0000
vn 1.0000 0.0098 -0.0000
vn -0.0000 -0.0000 1.0000
vn -0.0000 -0.0000 -1.0000
vn -1.0000 -0.0000 -0.0000
vn 1.0000 -0.0000 -0.0000
vn -0.0000 -0.6616 0.7498
vn 0.9048 -0.4258 -0.0000
vn -0.0000 -0.6616 -0.7498
vn -0.9048 -0.4258 -0.0000
vn -0.0000 0.6616 0.7498
vn 0.9048 0.4258 -0.0000
vn -0.0000 0.6616 -0.7498
vn -0.9048 0.4258 -0.0000
vn -0.0000 -0.6793 0.7339
vn 0.9353 -0.3540 -0.0000
vn -0.0000 -0.6793 -0.7339
vn -0.9353 -0.3540 -0.0000
vn -0.0000 0.6793 0.7339
vn 0.9353 0.3540 -0.0000
vn -0.0000 0.6793 -0.7339
vn -0.9353 0.3540 -0.0000
vn -0.0000 -0.7068 0.7074
vn 0.9991 -0.0421 -0.0000
vn -0.0000 -0.7068 -0.7074
vn -0.9991 -0.0421 -0.0000
vn -0.0000 0.7068 0.7074
vn 0.9991 0.0421 -0.0000
vn -0.0000 0.7068 -0.7074
vn -0.9991 0.0421 -0.0000
vt 0.687500 0.937500
vt 0.437500 0.937500
s 0
usemtl FN_Atlas
f 1/1/1 2/1/1 3/1/1 4/1/1
f 5/1/2 6/1/2 7/1/2 8/1/2
f 4/1/3 3/1/3 6/1/3 5/1/3
f 3/1/4 2/1/4 7/1/4 6/1/4
f 2/1/5 1/1/5 8/1/5 7/1/5
f 1/1/6 4/1/6 5/1/6 8/1/6
f 9/1/1 10/1/1 11/1/1 12/1/1
f 13/1/2 14/1/2 15/1/2 16/1/2
f 12/1/3 11/1/3 14/1/3 13/1/3
f 11/1/4 10/1/4 15/1/4 14/1/4
f 10/1/5 9/1/5 16/1/5 15/1/5
f 9/1/6 12/1/6 13/1/6 16/1/6
f 17/1/1 18/1/1 19/1/1 20/1/1
f 21/1/2 22/1/2 23/1/2 24/1/2
f 20/1/3 19/1/3 22/1/3 21/1/3
f 19/1/4 18/1/4 23/1/4 22/1/4
f 18/1/5 17/1/5 24/1/5 23/1/5
f 17/1/6 20/1/6 21/1/6 24/1/6
f 25/1/1 26/1/1 27/1/1 28/1/1
f 29/1/2 30/1/2 31/1/2 32/1/2
f 28/1/3 27/1/3 30/1/3 29/1/3
f 27/1/4 26/1/4 31/1/4 30/1/4
f 26/1/5 25/1/5 32/1/5 31/1/5
f 25/1/6 28/1/6 29/1/6 32/1/6
f 33/1/1 34/1/1 35/1/1 36/1/1
f 37/1/2 38/1/2 39/1/2 40/1/2
f 33/1/7 36/1/7 38/1/7 37/1/7
f 35/1/8 34/1/8 40/1/8 39/1/8
f 33/1/9 37/1/9 40/1/9 34/1/9
f 36/1/10 35/1/10 39/1/10 38/1/10
f 41/1/1 42/1/1 43/1/1 44/1/1
f 45/1/2 46/1/2 47/1/2 48/1/2
f 41/1/7 44/1/7 46/1/7 45/1/7
f 43/1/8 42/1/8 48/1/8 47/1/8
f 41/1/9 45/1/9 48/1/9 42/1/9
f 44/1/10 43/1/10 47/1/10 46/1/10
f 49/1/1 50/1/1 51/1/1 52/1/1
f 53/1/2 54/1/2 55/1/2 56/1/2
f 49/1/7 52/1/7 54/1/7 53/1/7
f 51/1/8 50/1/8 56/1/8 55/1/8
f 49/1/9 53/1/9 56/1/9 50/1/9
f 52/1/10 51/1/10 55/1/10 54/1/10
f 57/1/1 58/1/1 59/1/1 60/1/1
f 61/1/2 62/1/2 63/1/2 64/1/2
f 57/1/7 60/1/7 62/1/7 61/1/7
f 59/1/8 58/1/8 64/1/8 63/1/8
f 57/1/9 61/1/9 64/1/9 58/1/9
f 60/1/10 59/1/10 63/1/10 62/1/10
f 65/1/1 66/1/1 67/1/1 68/1/1
f 68/1/11 67/1/11 69/1/11 70/1/11
f 67/1/12 66/1/12 71/1/12 69/1/12
f 66/1/13 65/1/13 72/1/13 71/1/13
f 65/1/14 68/1/14 70/1/14 72/1/14
f 70/1/7 69/1/7 73/1/7 74/1/7
f 69/1/10 71/1/10 75/1/10 73/1/10
f 71/1/8 72/1/8 76/1/8 75/1/8
f 72/1/9 70/1/9 74/1/9 76/1/9
f 77/2/2 78/2/2 79/2/2 80/2/2
f 74/1/15 73/1/15 78/1/15 77/1/15
f 73/1/16 75/1/16 79/1/16 78/1/16
f 75/1/17 76/1/17 80/1/17 79/1/17
f 76/1/18 74/1/18 77/1/18 80/1/18
f 81/1/1 82/1/1 83/1/1 84/1/1
f 84/1/19 83/1/19 85/1/19 86/1/19
f 83/1/20 82/1/20 87/1/20 85/1/20
f 82/1/21 81/1/21 88/1/21 87/1/21
f 81/1/22 84/1/22 86/1/22 88/1/22
f 86/1/7 85/1/7 89/1/7 90/1/7
f 85/1/10 87/1/10 91/1/10 89/1/10
f 87/1/8 88/1/8 92/1/8 91/1/8
f 88/1/9 86/1/9 90/1/9 92/1/9
f 93/2/2 94/2/2 95/2/2 96/2/2
f 90/1/23 89/1/23 94/1/23 93/1/23
f 89/1/24 91/1/24 95/1/24 94/1/24
f 91/1/25 92/1/25 96/1/25 95/1/25
f 92/1/26 90/1/26 93/1/26 96/1/26
f 97/1/1 98/1/1 99/1/1 100/1/1
f 101/1/2 102/1/2 103/1/2 104/1/2
f 97/1/7 100/1/7 102/1/7 101/1/7
f 99/1/8 98/1/8 104/1/8 103/1/8
f 97/1/9 101/1/9 104/1/9 98/1/9
f 100/1/10 99/1/10 103/1/10 102/1/10
f 105/1/1 106/1/1 107/1/1 108/1/1
f 109/1/2 110/1/2 111/1/2 112/1/2
f 105/1/7 108/1/7 110/1/7 109/1/7
f 107/1/8 106/1/8 112/1/8 111/1/8
f 105/1/9 109/1/9 112/1/9 106/1/9
f 108/1/10 107/1/10 111/1/10 110/1/10
f 113/1/1 114/1/1 115/1/1 116/1/1
f 116/1/27 115/1/27 117/1/27 118/1/27
f 115/1/28 114/1/28 119/1/28 117/1/28
f 114/1/29 113/1/29 120/1/29 119/1/29
f 113/1/30 116/1/30 118/1/30 120/1/30
f 118/1/7 117/1/7 121/1/7 122/1/7
f 117/1/10 119/1/10 123/1/10 121/1/10
f 119/1/8 120/1/8 124/1/8 123/1/8
f 120/1/9 118/1/9 122/1/9 124/1/9
f 125/2/2 126/2/2 127/2/2 128/2/2
f 122/1/31 121/1/31 126/1/31 125/1/31
f 121/1/32 123/1/32 127/1/32 126/1/32
f 123/1/33 124/1/33 128/1/33 127/1/33
f 124/1/34 122/1/34 125/1/34 128/1/34
