# Blender 5.2.0 LTS
# www.blender.org
mtllib FN_Table_Console.mtl
o FN_Table_Console
v -0.593295 0.770000 -0.177989
v 0.593295 0.770000 -0.177989
v 0.593295 0.770000 0.177989
v -0.593295 0.770000 0.177989
v 0.600000 0.777000 0.180000
v -0.600000 0.777000 0.180000
v 0.600000 0.777000 -0.180000
v -0.600000 0.777000 -0.180000
v 0.600000 0.793000 0.180000
v -0.600000 0.793000 0.180000
v 0.600000 0.793000 -0.180000
v -0.600000 0.793000 -0.180000
v -0.593295 0.800000 0.177989
v 0.593295 0.800000 0.177989
v 0.593295 0.800000 -0.177989
v -0.593295 0.800000 -0.177989
v -0.571000 0.000000 0.152000
v -0.571000 0.000000 -0.152000
v -0.541000 0.000000 -0.152000
v -0.541000 0.000000 0.152000
v -0.571000 0.030000 0.152000
v -0.541000 0.030000 0.152000
v -0.541000 0.030000 -0.152000
v -0.571000 0.030000 -0.152000
v -0.571000 0.752000 0.152000
v -0.571000 0.752000 -0.152000
v -0.541000 0.752000 -0.152000
v -0.541000 0.752000 0.152000
v -0.571000 0.782000 0.152000
v -0.541000 0.782000 0.152000
v -0.541000 0.782000 -0.152000
v -0.571000 0.782000 -0.152000
v -0.571000 0.000000 0.122000
v -0.541000 0.000000 0.122000
v -0.541000 0.782000 0.122000
v -0.571000 0.782000 0.122000
v -0.571000 0.000000 -0.122000
v -0.541000 0.000000 -0.122000
v -0.571000 0.782000 -0.122000
v -0.541000 0.782000 -0.122000
v -0.543000 0.031919 0.126372
v -0.569000 0.031919 0.126372
v -0.569000 0.036081 0.137628
v -0.543000 0.036081 0.137628
v -0.543000 0.750081 -0.126372
v -0.569000 0.750081 -0.126372
v -0.569000 0.745919 -0.137628
v -0.543000 0.745919 -0.137628
v -0.543000 0.036081 -0.137628
v -0.569000 0.036081 -0.137628
v -0.569000 0.031919 -0.126372
v -0.543000 0.031919 -0.126372
v -0.543000 0.745919 0.137628
v -0.569000 0.745919 0.137628
v -0.569000 0.750081 0.126372
v -0.543000 0.750081 0.126372
v 0.541000 0.000000 0.152000
v 0.541000 0.000000 -0.152000
v 0.571000 0.000000 -0.152000
v 0.571000 0.000000 0.152000
v 0.541000 0.030000 0.152000
v 0.571000 0.030000 0.152000
v 0.571000 0.030000 -0.152000
v 0.541000 0.030000 -0.152000
v 0.541000 0.752000 0.152000
v 0.541000 0.752000 -0.152000
v 0.571000 0.752000 -0.152000
v 0.571000 0.752000 0.152000
v 0.541000 0.782000 0.152000
v 0.571000 0.782000 0.152000
v 0.571000 0.782000 -0.152000
v 0.541000 0.782000 -0.152000
v 0.541000 0.000000 0.122000
v 0.571000 0.000000 0.122000
v 0.571000 0.782000 0.122000
v 0.541000 0.782000 0.122000
v 0.541000 0.000000 -0.122000
v 0.571000 0.000000 -0.122000
v 0.541000 0.782000 -0.122000
v 0.571000 0.782000 -0.122000
v 0.569000 0.031919 0.126372
v 0.543000 0.031919 0.126372
v 0.543000 0.036081 0.137628
v 0.569000 0.036081 0.137628
v 0.569000 0.750081 -0.126372
v 0.543000 0.750081 -0.126372
v 0.543000 0.745919 -0.137628
v 0.569000 0.745919 -0.137628
v 0.569000 0.036081 -0.137628
v 0.543000 0.036081 -0.137628
v 0.543000 0.031919 -0.126372
v 0.569000 0.031919 -0.126372
v 0.569000 0.745919 0.137628
v 0.543000 0.745919 0.137628
v 0.543000 0.750081 0.126372
v 0.569000 0.750081 0.126372
v -0.556000 0.160000 0.150000
v -0.556000 0.160000 0.124000
v 0.556000 0.160000 0.124000
v 0.556000 0.160000 0.150000
v -0.556000 0.186000 0.150000
v 0.556000 0.186000 0.150000
v 0.556000 0.186000 0.124000
v -0.556000 0.186000 0.124000
v -0.556000 0.160000 -0.124000
v -0.556000 0.160000 -0.150000
v 0.556000 0.160000 -0.150000
v 0.556000 0.160000 -0.124000
v -0.556000 0.186000 -0.124000
v 0.556000 0.186000 -0.124000
v 0.556000 0.186000 -0.150000
v -0.556000 0.186000 -0.150000
v -0.553194 0.182000 -0.158622
v 0.553194 0.182000 -0.158622
v 0.553194 0.182000 0.158622
v -0.553194 0.182000 0.158622
v 0.558000 0.187000 0.160000
v -0.558000 0.187000 0.160000
v 0.558000 0.187000 -0.160000
v -0.558000 0.187000 -0.160000
v 0.558000 0.201000 0.160000
v -0.558000 0.201000 0.160000
v 0.558000 0.201000 -0.160000
v -0.558000 0.201000 -0.160000
v -0.553194 0.206000 0.158622
v 0.553194 0.206000 0.158622
v 0.553194 0.206000 -0.158622
v -0.553194 0.206000 -0.158622
vn -0.0000 -1.0000 -0.0000
vn -0.0000 -0.2762 0.9611
vn 0.7222 -0.6917 -0.0000
vn -0.0000 -0.2762 -0.9611
vn -0.7222 -0.6917 -0.0000
vn -0.0000 -0.0000 1.0000
vn 1.0000 -0.0000 -0.0000
vn -0.0000 -0.0000 -1.0000
vn -1.0000 -0.0000 -0.0000
vn -0.0000 1.0000 -0.0000
vn -0.0000 0.2762 0.9611
vn 0.7222 0.6917 -0.0000
vn -0.0000 0.2762 -0.9611
vn -0.7222 0.6917 -0.0000
vn -0.0000 0.9379 -0.3468
vn -0.0000 -0.9379 0.3468
vn -0.0000 -0.3468 -0.9379
vn -0.0000 0.3468 0.9379
vn -0.0000 0.9379 0.3468
vn -0.0000 -0.9379 -0.3468
vn -0.0000 0.3468 -0.9379
vn -0.0000 -0.3468 0.9379
vn -0.0000 -0.2657 0.9640
vn 0.7209 -0.6930 -0.0000
vn -0.0000 -0.2657 -0.9640
vn -0.7209 -0.6930 -0.0000
vn -0.0000 0.2657 0.9640
vn 0.7209 0.6930 -0.0000
vn -0.0000 0.2657 -0.9640
vn -0.7209 0.6930 -0.0000
vt 0.687500 0.937500
vt 0.437500 0.937500
vt 0.812500 0.312500
s 0
usemtl FN_Atlas
f 1/1/1 2/1/1 3/1/1 4/1/1
f 4/1/2 3/1/2 5/1/2 6/1/2
f 3/1/3 2/1/3 7/1/3 5/1/3
f 2/1/4 1/1/4 8/1/4 7/1/4
f 1/1/5 4/1/5 6/1/5 8/1/5
f 6/1/6 5/1/6 9/1/6 10/1/6
f 5/1/7 7/1/7 11/1/7 9/1/7
f 7/1/8 8/1/8 12/1/8 11/1/8
f 8/1/9 6/1/9 10/1/9 12/1/9
f 13/2/10 14/2/10 15/2/10 16/2/10
f 10/1/11 9/1/11 14/1/11 13/1/11
f 9/1/12 11/1/12 15/1/12 14/1/12
f 11/1/13 12/1/13 16/1/13 15/1/13
f 12/1/14 10/1/14 13/1/14 16/1/14
f 17/3/1 18/3/1 19/3/1 20/3/1
f 21/3/10 22/3/10 23/3/10 24/3/10
f 17/3/6 20/3/6 22/3/6 21/3/6
f 19/3/8 18/3/8 24/3/8 23/3/8
f 17/3/9 21/3/9 24/3/9 18/3/9
f 20/3/7 19/3/7 23/3/7 22/3/7
f 25/3/1 26/3/1 27/3/1 28/3/1
f 29/3/10 30/3/10 31/3/10 32/3/10
f 25/3/6 28/3/6 30/3/6 29/3/6
f 27/3/8 26/3/8 32/3/8 31/3/8
f 25/3/9 29/3/9 32/3/9 26/3/9
f 28/3/7 27/3/7 31/3/7 30/3/7
f 17/3/1 33/3/1 34/3/1 20/3/1
f 29/3/10 30/3/10 35/3/10 36/3/10
f 17/3/6 20/3/6 30/3/6 29/3/6
f 34/3/8 33/3/8 36/3/8 35/3/8
f 17/3/9 29/3/9 36/3/9 33/3/9
f 20/3/7 34/3/7 35/3/7 30/3/7
f 37/3/1 18/3/1 19/3/1 38/3/1
f 39/3/10 40/3/10 31/3/10 32/3/10
f 37/3/6 38/3/6 40/3/6 39/3/6
f 19/3/8 18/3/8 32/3/8 31/3/8
f 37/3/9 39/3/9 32/3/9 18/3/9
f 38/3/7 19/3/7 31/3/7 40/3/7
f 41/3/15 42/3/15 43/3/15 44/3/15
f 45/3/16 46/3/16 47/3/16 48/3/16
f 44/3/17 43/3/17 46/3/17 45/3/17
f 43/3/7 42/3/7 47/3/7 46/3/7
f 42/3/18 41/3/18 48/3/18 47/3/18
f 41/3/9 44/3/9 45/3/9 48/3/9
f 49/3/19 50/3/19 51/3/19 52/3/19
f 53/3/20 54/3/20 55/3/20 56/3/20
f 52/3/21 51/3/21 54/3/21 53/3/21
f 51/3/7 50/3/7 55/3/7 54/3/7
f 50/3/22 49/3/22 56/3/22 55/3/22
f 49/3/9 52/3/9 53/3/9 56/3/9
f 57/3/1 58/3/1 59/3/1 60/3/1
f 61/3/10 62/3/10 63/3/10 64/3/10
f 57/3/6 60/3/6 62/3/6 61/3/6
f 59/3/8 58/3/8 64/3/8 63/3/8
f 57/3/9 61/3/9 64/3/9 58/3/9
f 60/3/7 59/3/7 63/3/7 62/3/7
f 65/3/1 66/3/1 67/3/1 68/3/1
f 69/3/10 70/3/10 71/3/10 72/3/10
f 65/3/6 68/3/6 70/3/6 69/3/6
f 67/3/8 66/3/8 72/3/8 71/3/8
f 65/3/9 69/3/9 72/3/9 66/3/9
f 68/3/7 67/3/7 71/3/7 70/3/7
f 57/3/1 73/3/1 74/3/1 60/3/1
f 69/3/10 70/3/10 75/3/10 76/3/10
f 57/3/6 60/3/6 70/3/6 69/3/6
f 74/3/8 73/3/8 76/3/8 75/3/8
f 57/3/9 69/3/9 76/3/9 73/3/9
f 60/3/7 74/3/7 75/3/7 70/3/7
f 77/3/1 58/3/1 59/3/1 78/3/1
f 79/3/10 80/3/10 71/3/10 72/3/10
f 77/3/6 78/3/6 80/3/6 79/3/6
f 59/3/8 58/3/8 72/3/8 71/3/8
f 77/3/9 79/3/9 72/3/9 58/3/9
f 78/3/7 59/3/7 71/3/7 80/3/7
f 81/3/15 82/3/15 83/3/15 84/3/15
f 85/3/16 86/3/16 87/3/16 88/3/16
f 84/3/17 83/3/17 86/3/17 85/3/17
f 83/3/7 82/3/7 87/3/7 86/3/7
f 82/3/18 81/3/18 88/3/18 87/3/18
f 81/3/9 84/3/9 85/3/9 88/3/9
f 89/3/19 90/3/19 91/3/19 92/3/19
f 93/3/20 94/3/20 95/3/20 96/3/20
f 92/3/21 91/3/21 94/3/21 93/3/21
f 91/3/7 90/3/7 95/3/7 94/3/7
f 90/3/22 89/3/22 96/3/22 95/3/22
f 89/3/9 92/3/9 93/3/9 96/3/9
f 97/3/1 98/3/1 99/3/1 100/3/1
f 101/3/10 102/3/10 103/3/10 104/3/10
f 97/3/6 100/3/6 102/3/6 101/3/6
f 99/3/8 98/3/8 104/3/8 103/3/8
f 97/3/9 101/3/9 104/3/9 98/3/9
f 100/3/7 99/3/7 103/3/7 102/3/7
f 105/3/1 106/3/1 107/3/1 108/3/1
f 109/3/10 110/3/10 111/3/10 112/3/10
f 105/3/6 108/3/6 110/3/6 109/3/6
f 107/3/8 106/3/8 112/3/8 111/3/8
f 105/3/9 109/3/9 112/3/9 106/3/9
f 108/3/7 107/3/7 111/3/7 110/3/7
f 113/1/1 114/1/1 115/1/1 116/1/1
f 116/1/23 115/1/23 117/1/23 118/1/23
f 115/1/24 114/1/24 119/1/24 117/1/24
f 114/1/25 113/1/25 120/1/25 119/1/25
f 113/1/26 116/1/26 118/1/26 120/1/26
f 118/1/6 117/1/6 121/1/6 122/1/6
f 117/1/7 119/1/7 123/1/7 121/1/7
f 119/1/8 120/1/8 124/1/8 123/1/8
f 120/1/9 118/1/9 122/1/9 124/1/9
f 125/2/10 126/2/10 127/2/10 128/2/10
f 122/1/27 121/1/27 126/1/27 125/1/27
f 121/1/28 123/1/28 127/1/28 126/1/28
f 123/1/29 124/1/29 128/1/29 127/1/29
f 124/1/30 122/1/30 125/1/30 128/1/30
