# Blender 5.2.0 LTS
# www.blender.org
mtllib FN_Table_Cafe_Round.mtl
o FN_Table_Cafe_Round
v 0.175537 0.006000 0.072710
v 0.134350 0.006000 0.134350
v 0.072710 0.006000 0.175537
v -0.000000 0.006000 0.190000
v -0.072710 0.006000 0.175537
v -0.134350 0.006000 0.134350
v -0.175537 0.006000 0.072710
v -0.190000 0.006000 -0.000000
v -0.175537 0.006000 -0.072710
v -0.134350 0.006000 -0.134350
v -0.072710 0.006000 -0.175537
v 0.000000 0.006000 -0.190000
v 0.072710 0.006000 -0.175537
v 0.134350 0.006000 -0.134350
v 0.175537 0.006000 -0.072710
v 0.190000 0.006000 0.000000
v 0.175537 0.048000 -0.072710
v 0.190000 0.048000 0.000000
v 0.134350 0.048000 -0.134350
v 0.072710 0.048000 -0.175537
v 0.000000 0.048000 -0.190000
v -0.072710 0.048000 -0.175537
v -0.134350 0.048000 -0.134350
v -0.175537 0.048000 -0.072710
v -0.190000 0.048000 -0.000000
v -0.175537 0.048000 0.072710
v -0.134350 0.048000 0.134350
v -0.072710 0.048000 0.175537
v -0.000000 0.048000 0.190000
v 0.072710 0.048000 0.175537
v 0.134350 0.048000 0.134350
v 0.175537 0.048000 0.072710
v 0.164451 0.058000 -0.068118
v 0.178000 0.058000 0.000000
v 0.125865 0.058000 -0.125865
v 0.068118 0.058000 -0.164451
v 0.000000 0.058000 -0.178000
v -0.068118 0.058000 -0.164451
v -0.125865 0.058000 -0.125865
v -0.164451 0.058000 -0.068118
v -0.178000 0.058000 -0.000000
v -0.164451 0.058000 0.068118
v -0.125865 0.058000 0.125865
v -0.068118 0.058000 0.164451
v -0.000000 0.058000 0.178000
v 0.068118 0.058000 0.164451
v 0.125865 0.058000 0.125865
v 0.164451 0.058000 0.068118
v 0.072063 0.058000 -0.029849
v 0.078000 0.058000 0.000000
v 0.055154 0.058000 -0.055154
v 0.029849 0.058000 -0.072063
v 0.000000 0.058000 -0.078000
v -0.029849 0.058000 -0.072063
v -0.055154 0.058000 -0.055154
v -0.072063 0.058000 -0.029849
v -0.078000 0.058000 -0.000000
v -0.072063 0.058000 0.029849
v -0.055154 0.058000 0.055154
v -0.029849 0.058000 0.072063
v -0.000000 0.058000 0.078000
v 0.029849 0.058000 0.072063
v 0.055154 0.058000 0.055154
v 0.072063 0.058000 0.029849
v 0.072063 0.084000 -0.029849
v 0.078000 0.084000 0.000000
v 0.055154 0.084000 -0.055154
v 0.029849 0.084000 -0.072063
v 0.000000 0.084000 -0.078000
v -0.029849 0.084000 -0.072063
v -0.055154 0.084000 -0.055154
v -0.072063 0.084000 -0.029849
v -0.078000 0.084000 -0.000000
v -0.072063 0.084000 0.029849
v -0.055154 0.084000 0.055154
v -0.029849 0.084000 0.072063
v -0.000000 0.084000 0.078000
v 0.029849 0.084000 0.072063
v 0.055154 0.084000 0.055154
v 0.072063 0.084000 0.029849
v 0.033260 0.084000 -0.013777
v 0.036000 0.084000 0.000000
v 0.025456 0.084000 -0.025456
v 0.013777 0.084000 -0.033260
v 0.000000 0.084000 -0.036000
v -0.013777 0.084000 -0.033260
v -0.025456 0.084000 -0.025456
v -0.033260 0.084000 -0.013777
v -0.036000 0.084000 -0.000000
v -0.033260 0.084000 0.013777
v -0.025456 0.084000 0.025456
v -0.013777 0.084000 0.033260
v -0.000000 0.084000 0.036000
v 0.013777 0.084000 0.033260
v 0.025456 0.084000 0.025456
v 0.033260 0.084000 0.013777
v 0.135976 0.000000 -0.048483
v 0.109976 0.000000 -0.048483
v 0.096976 0.000000 -0.071000
v 0.109976 0.000000 -0.093517
v 0.135976 0.000000 -0.093517
v 0.148976 0.000000 -0.071000
v 0.144976 0.012000 -0.071000
v 0.133976 0.012000 -0.090053
v 0.111976 0.012000 -0.090053
v 0.100976 0.012000 -0.071000
v 0.111976 0.012000 -0.051947
v 0.133976 0.012000 -0.051947
v -0.109976 0.000000 -0.048483
v -0.135976 0.000000 -0.048483
v -0.148976 0.000000 -0.071000
v -0.135976 0.000000 -0.093517
v -0.109976 0.000000 -0.093517
v -0.096976 0.000000 -0.071000
v -0.100976 0.012000 -0.071000
v -0.111976 0.012000 -0.090053
v -0.133976 0.012000 -0.090053
v -0.144976 0.012000 -0.071000
v -0.133976 0.012000 -0.051947
v -0.111976 0.012000 -0.051947
v 0.013000 0.000000 0.164517
v -0.013000 0.000000 0.164517
v -0.026000 0.000000 0.142000
v -0.013000 0.000000 0.119483
v 0.013000 0.000000 0.119483
v 0.026000 0.000000 0.142000
v 0.022000 0.012000 0.142000
v 0.011000 0.012000 0.122947
v -0.011000 0.012000 0.122947
v -0.022000 0.012000 0.142000
v -0.011000 0.012000 0.161053
v 0.011000 0.012000 0.161053
v 0.033000 0.688000 0.000000
v 0.023335 0.688000 -0.023335
v 0.000000 0.688000 -0.033000
v -0.023335 0.688000 -0.023335
v -0.033000 0.688000 -0.000000
v -0.023335 0.688000 0.023335
v -0.000000 0.688000 0.033000
v 0.023335 0.688000 0.023335
v 0.033000 0.080000 0.000000
v 0.023335 0.080000 -0.023335
v 0.000000 0.080000 -0.033000
v -0.023335 0.080000 -0.023335
v -0.033000 0.080000 -0.000000
v -0.023335 0.080000 0.023335
v -0.000000 0.080000 0.033000
v 0.023335 0.080000 0.023335
v 0.032043 0.686000 0.018500
v 0.018500 0.686000 0.032043
v -0.000000 0.686000 0.037000
v -0.018500 0.686000 0.032043
v -0.032043 0.686000 0.018500
v -0.037000 0.686000 -0.000000
v -0.032043 0.686000 -0.018500
v -0.018500 0.686000 -0.032043
v 0.000000 0.686000 -0.037000
v 0.018500 0.686000 -0.032043
v 0.032043 0.686000 -0.018500
v 0.037000 0.686000 0.000000
v 0.086000 0.712000 0.000000
v 0.074478 0.712000 -0.043000
v 0.043000 0.712000 -0.074478
v 0.000000 0.712000 -0.086000
v -0.043000 0.712000 -0.074478
v -0.074478 0.712000 -0.043000
v -0.086000 0.712000 -0.000000
v -0.074478 0.712000 0.043000
v -0.043000 0.712000 0.074478
v -0.000000 0.712000 0.086000
v 0.043000 0.712000 0.074478
v 0.074478 0.712000 0.043000
v 0.074478 0.696000 -0.043000
v 0.086000 0.696000 0.000000
v 0.043000 0.696000 -0.074478
v 0.000000 0.696000 -0.086000
v -0.043000 0.696000 -0.074478
v -0.074478 0.696000 -0.043000
v -0.086000 0.696000 -0.000000
v -0.074478 0.696000 0.043000
v -0.043000 0.696000 0.074478
v -0.000000 0.696000 0.086000
v 0.043000 0.696000 0.074478
v 0.074478 0.696000 0.043000
v 0.326212 0.710000 0.105993
v 0.277493 0.710000 0.201610
v 0.201610 0.710000 0.277493
v 0.105993 0.710000 0.326212
v -0.000000 0.710000 0.343000
v -0.105993 0.710000 0.326212
v -0.201610 0.710000 0.277493
v -0.277493 0.710000 0.201610
v -0.326212 0.710000 0.105993
v -0.343000 0.710000 -0.000000
v -0.326212 0.710000 -0.105993
v -0.277493 0.710000 -0.201610
v -0.201610 0.710000 -0.277493
v -0.105993 0.710000 -0.326212
v 0.000000 0.710000 -0.343000
v 0.105993 0.710000 -0.326212
v 0.201610 0.710000 -0.277493
v 0.277493 0.710000 -0.201610
v 0.326212 0.710000 -0.105993
v 0.343000 0.710000 0.000000
v 0.332870 0.717000 -0.108156
v 0.350000 0.717000 0.000000
v 0.283156 0.717000 -0.205725
v 0.205725 0.717000 -0.283156
v 0.108156 0.717000 -0.332870
v 0.000000 0.717000 -0.350000
v -0.108156 0.717000 -0.332870
v -0.205725 0.717000 -0.283156
v -0.283156 0.717000 -0.205725
v -0.332870 0.717000 -0.108156
v -0.350000 0.717000 -0.000000
v -0.332870 0.717000 0.108156
v -0.283156 0.717000 0.205725
v -0.205725 0.717000 0.283156
v -0.108156 0.717000 0.332870
v -0.000000 0.717000 0.350000
v 0.108156 0.717000 0.332870
v 0.205725 0.717000 0.283156
v 0.283156 0.717000 0.205725
v 0.332870 0.717000 0.108156
v 0.332870 0.733000 -0.108156
v 0.350000 0.733000 0.000000
v 0.283156 0.733000 -0.205725
v 0.205725 0.733000 -0.283156
v 0.108156 0.733000 -0.332870
v 0.000000 0.733000 -0.350000
v -0.108156 0.733000 -0.332870
v -0.205725 0.733000 -0.283156
v -0.283156 0.733000 -0.205725
v -0.332870 0.733000 -0.108156
v -0.350000 0.733000 -0.000000
v -0.332870 0.733000 0.108156
v -0.283156 0.733000 0.205725
v -0.205725 0.733000 0.283156
v -0.108156 0.733000 0.332870
v -0.000000 0.733000 0.350000
v 0.108156 0.733000 0.332870
v 0.205725 0.733000 0.283156
v 0.283156 0.733000 0.205725
v 0.332870 0.733000 0.108156
v 0.343000 0.740000 0.000000
v 0.326212 0.740000 -0.105993
v 0.277493 0.740000 -0.201610
v 0.201610 0.740000 -0.277493
v 0.105993 0.740000 -0.326212
v 0.000000 0.740000 -0.343000
v -0.105993 0.740000 -0.326212
v -0.201610 0.740000 -0.277493
v -0.277493 0.740000 -0.201610
v -0.326212 0.740000 -0.105993
v -0.343000 0.740000 -0.000000
v -0.326212 0.740000 0.105993
v -0.277493 0.740000 0.201610
v -0.201610 0.740000 0.277493
v -0.105993 0.740000 0.326212
v -0.000000 0.740000 0.343000
v 0.105993 0.740000 0.326212
v 0.201610 0.740000 0.277493
v 0.277493 0.740000 0.201610
v 0.326212 0.740000 0.105993
vn -0.0000 -1.0000 -0.0000
vn 0.9808 -0.0000 -0.1951
vn 0.8315 -0.0000 -0.5556
vn 0.5556 -0.0000 -0.8315
vn 0.1951 -0.0000 -0.9808
vn -0.1951 -0.0000 -0.9808
vn -0.5556 -0.0000 -0.8315
vn -0.8315 -0.0000 -0.5556
vn -0.9808 -0.0000 -0.1951
vn -0.9808 -0.0000 0.1951
vn -0.8315 -0.0000 0.5556
vn -0.5556 -0.0000 0.8315
vn -0.1951 -0.0000 0.9808
vn 0.1951 -0.0000 0.9808
vn 0.5556 -0.0000 0.8315
vn 0.8315 -0.0000 0.5556
vn 0.9808 -0.0000 0.1951
vn 0.6351 0.7621 -0.1263
vn 0.5384 0.7621 -0.3597
vn 0.3597 0.7621 -0.5384
vn 0.1263 0.7621 -0.6351
vn -0.1263 0.7621 -0.6351
vn -0.3597 0.7621 -0.5384
vn -0.5384 0.7621 -0.3597
vn -0.6351 0.7621 -0.1263
vn -0.6351 0.7621 0.1263
vn -0.5384 0.7621 0.3597
vn -0.3597 0.7621 0.5384
vn -0.1263 0.7621 0.6351
vn 0.1263 0.7621 0.6351
vn 0.3597 0.7621 0.5384
vn 0.5384 0.7621 0.3597
vn 0.6351 0.7621 0.1263
vn -0.0000 1.0000 -0.0000
vn 0.8321 0.2774 -0.4804
vn -0.0000 0.2774 -0.9608
vn -0.8321 0.2774 -0.4804
vn -0.8321 0.2774 0.4804
vn -0.0000 0.2774 0.9608
vn 0.8321 0.2774 0.4804
vn -0.0000 0.2773 -0.9608
vn 0.9239 -0.0000 -0.3827
vn 0.3827 -0.0000 -0.9239
vn -0.3827 -0.0000 -0.9239
vn -0.9239 -0.0000 -0.3827
vn -0.9239 -0.0000 0.3827
vn -0.3827 -0.0000 0.9239
vn 0.3827 -0.0000 0.9239
vn 0.9239 -0.0000 0.3827
vn 0.1997 -0.9784 -0.0535
vn 0.1462 -0.9784 -0.1462
vn 0.0535 -0.9784 -0.1997
vn -0.0535 -0.9784 -0.1997
vn -0.1462 -0.9784 -0.1462
vn -0.1997 -0.9784 -0.0535
vn -0.1997 -0.9784 0.0535
vn -0.1462 -0.9784 0.1462
vn -0.0535 -0.9784 0.1997
vn 0.0535 -0.9784 0.1997
vn 0.1462 -0.9784 0.1462
vn 0.1997 -0.9784 0.0535
vn 0.9659 -0.0000 -0.2588
vn 0.7071 -0.0000 -0.7071
vn 0.2588 -0.0000 -0.9659
vn -0.2588 -0.0000 -0.9659
vn -0.7071 -0.0000 -0.7071
vn -0.9659 -0.0000 -0.2588
vn -0.9659 -0.0000 0.2588
vn -0.7071 -0.0000 0.7071
vn -0.2588 -0.0000 0.9659
vn 0.2588 -0.0000 0.9659
vn 0.7071 -0.0000 0.7071
vn 0.9659 -0.0000 0.2588
vn 0.7027 -0.7027 -0.1113
vn 0.6339 -0.7027 -0.3230
vn 0.5031 -0.7027 -0.5031
vn 0.3230 -0.7027 -0.6339
vn 0.1113 -0.7027 -0.7027
vn -0.1113 -0.7027 -0.7027
vn -0.3230 -0.7027 -0.6339
vn -0.5031 -0.7027 -0.5031
vn -0.6339 -0.7027 -0.3230
vn -0.7027 -0.7027 -0.1113
vn -0.7027 -0.7027 0.1113
vn -0.6339 -0.7027 0.3230
vn -0.5031 -0.7027 0.5031
vn -0.3230 -0.7027 0.6339
vn -0.1113 -0.7027 0.7027
vn 0.1113 -0.7027 0.7027
vn 0.3230 -0.7027 0.6339
vn 0.5031 -0.7027 0.5031
vn 0.6339 -0.7027 0.3230
vn 0.7027 -0.7027 0.1113
vn 0.9877 -0.0000 -0.1564
vn 0.8910 -0.0000 -0.4540
vn 0.4540 -0.0000 -0.8910
vn 0.1564 -0.0000 -0.9877
vn -0.1564 -0.0000 -0.9877
vn -0.4540 -0.0000 -0.8910
vn -0.8910 -0.0000 -0.4540
vn -0.9877 -0.0000 -0.1564
vn -0.9877 -0.0000 0.1564
vn -0.8910 -0.0000 0.4540
vn -0.4540 -0.0000 0.8910
vn -0.1564 -0.0000 0.9877
vn 0.1564 -0.0000 0.9877
vn 0.4540 -0.0000 0.8910
vn 0.8910 -0.0000 0.4540
vn 0.9877 -0.0000 0.1564
vn 0.7027 0.7027 -0.1113
vn 0.6339 0.7027 -0.3230
vn 0.5031 0.7027 -0.5031
vn 0.3230 0.7027 -0.6339
vn 0.1113 0.7027 -0.7027
vn -0.1113 0.7027 -0.7027
vn -0.3230 0.7027 -0.6339
vn -0.5031 0.7027 -0.5031
vn -0.6339 0.7027 -0.3230
vn -0.7027 0.7027 -0.1113
vn -0.7027 0.7027 0.1113
vn -0.6339 0.7027 0.3230
vn -0.5031 0.7027 0.5031
vn -0.3230 0.7027 0.6339
vn -0.1113 0.7027 0.7027
vn 0.1113 0.7027 0.7027
vn 0.3230 0.7027 0.6339
vn 0.5031 0.7027 0.5031
vn 0.6339 0.7027 0.3230
vn 0.7027 0.7027 0.1113
vt 0.812500 0.312500
vt 0.937500 0.187500
vt 0.687500 0.312500
vt 0.062500 0.187500
s 0
usemtl FN_Atlas
f 1/1/1 2/1/1 3/1/1 4/1/1 5/1/1 6/1/1 7/1/1 8/1/1 9/1/1 10/1/1 11/1/1 12/1/1 13/1/1 14/1/1 15/1/1 16/1/1
f 16/1/2 15/1/2 17/1/2 18/1/2
f 15/1/3 14/1/3 19/1/3 17/1/3
f 14/1/4 13/1/4 20/1/4 19/1/4
f 13/1/5 12/1/5 21/1/5 20/1/5
f 12/1/6 11/1/6 22/1/6 21/1/6
f 11/1/7 10/1/7 23/1/7 22/1/7
f 10/1/8 9/1/8 24/1/8 23/1/8
f 9/1/9 8/1/9 25/1/9 24/1/9
f 8/1/10 7/1/10 26/1/10 25/1/10
f 7/1/11 6/1/11 27/1/11 26/1/11
f 6/1/12 5/1/12 28/1/12 27/1/12
f 5/1/13 4/1/13 29/1/13 28/1/13
f 4/1/14 3/1/14 30/1/14 29/1/14
f 3/1/15 2/1/15 31/1/15 30/1/15
f 2/1/16 1/1/16 32/1/16 31/1/16
f 1/1/17 16/1/17 18/1/17 32/1/17
f 18/1/18 17/1/18 33/1/18 34/1/18
f 17/1/19 19/1/19 35/1/19 33/1/19
f 19/1/20 20/1/20 36/1/20 35/1/20
f 20/1/21 21/1/21 37/1/21 36/1/21
f 21/1/22 22/1/22 38/1/22 37/1/22
f 22/1/23 23/1/23 39/1/23 38/1/23
f 23/1/24 24/1/24 40/1/24 39/1/24
f 24/1/25 25/1/25 41/1/25 40/1/25
f 25/1/26 26/1/26 42/1/26 41/1/26
f 26/1/27 27/1/27 43/1/27 42/1/27
f 27/1/28 28/1/28 44/1/28 43/1/28
f 28/1/29 29/1/29 45/1/29 44/1/29
f 29/1/30 30/1/30 46/1/30 45/1/30
f 30/1/31 31/1/31 47/1/31 46/1/31
f 31/1/32 32/1/32 48/1/32 47/1/32
f 32/1/33 18/1/33 34/1/33 48/1/33
f 34/1/34 33/1/34 49/1/34 50/1/34
f 33/1/34 35/1/34 51/1/34 49/1/34
f 35/1/34 36/1/34 52/1/34 51/1/34
f 36/1/34 37/1/34 53/1/34 52/1/34
f 37/1/34 38/1/34 54/1/34 53/1/34
f 38/1/34 39/1/34 55/1/34 54/1/34
f 39/1/34 40/1/34 56/1/34 55/1/34
f 40/1/34 41/1/34 57/1/34 56/1/34
f 41/1/34 42/1/34 58/1/34 57/1/34
f 42/1/34 43/1/34 59/1/34 58/1/34
f 43/1/34 44/1/34 60/1/34 59/1/34
f 44/1/34 45/1/34 61/1/34 60/1/34
f 45/1/34 46/1/34 62/1/34 61/1/34
f 46/1/34 47/1/34 63/1/34 62/1/34
f 47/1/34 48/1/34 64/1/34 63/1/34
f 48/1/34 34/1/34 50/1/34 64/1/34
f 50/1/2 49/1/2 65/1/2 66/1/2
f 49/1/3 51/1/3 67/1/3 65/1/3
f 51/1/4 52/1/4 68/1/4 67/1/4
f 52/1/5 53/1/5 69/1/5 68/1/5
f 53/1/6 54/1/6 70/1/6 69/1/6
f 54/1/7 55/1/7 71/1/7 70/1/7
f 55/1/8 56/1/8 72/1/8 71/1/8
f 56/1/9 57/1/9 73/1/9 72/1/9
f 57/1/10 58/1/10 74/1/10 73/1/10
f 58/1/11 59/1/11 75/1/11 74/1/11
f 59/1/12 60/1/12 76/1/12 75/1/12
f 60/1/13 61/1/13 77/1/13 76/1/13
f 61/1/14 62/1/14 78/1/14 77/1/14
f 62/1/15 63/1/15 79/1/15 78/1/15
f 63/1/16 64/1/16 80/1/16 79/1/16
f 64/1/17 50/1/17 66/1/17 80/1/17
f 66/1/34 65/1/34 81/1/34 82/1/34
f 65/1/34 67/1/34 83/1/34 81/1/34
f 67/1/34 68/1/34 84/1/34 83/1/34
f 68/1/34 69/1/34 85/1/34 84/1/34
f 69/1/34 70/1/34 86/1/34 85/1/34
f 70/1/34 71/1/34 87/1/34 86/1/34
f 71/1/34 72/1/34 88/1/34 87/1/34
f 72/1/34 73/1/34 89/1/34 88/1/34
f 73/1/34 74/1/34 90/1/34 89/1/34
f 74/1/34 75/1/34 91/1/34 90/1/34
f 75/1/34 76/1/34 92/1/34 91/1/34
f 76/1/34 77/1/34 93/1/34 92/1/34
f 77/1/34 78/1/34 94/1/34 93/1/34
f 78/1/34 79/1/34 95/1/34 94/1/34
f 79/1/34 80/1/34 96/1/34 95/1/34
f 80/1/34 66/1/34 82/1/34 96/1/34
f 97/2/1 98/2/1 99/2/1 100/2/1 101/2/1 102/2/1
f 103/2/34 104/2/34 105/2/34 106/2/34 107/2/34 108/2/34
f 102/2/35 101/2/35 104/2/35 103/2/35
f 101/2/36 100/2/36 105/2/36 104/2/36
f 100/2/37 99/2/37 106/2/37 105/2/37
f 99/2/38 98/2/38 107/2/38 106/2/38
f 98/2/39 97/2/39 108/2/39 107/2/39
f 97/2/40 102/2/40 103/2/40 108/2/40
f 109/2/1 110/2/1 111/2/1 112/2/1 113/2/1 114/2/1
f 115/2/34 116/2/34 117/2/34 118/2/34 119/2/34 120/2/34
f 114/2/35 113/2/35 116/2/35 115/2/35
f 113/2/36 112/2/36 117/2/36 116/2/36
f 112/2/37 111/2/37 118/2/37 117/2/37
f 111/2/38 110/2/38 119/2/38 118/2/38
f 110/2/39 109/2/39 120/2/39 119/2/39
f 109/2/40 114/2/40 115/2/40 120/2/40
f 121/2/1 122/2/1 123/2/1 124/2/1 125/2/1 126/2/1
f 127/2/34 128/2/34 129/2/34 130/2/34 131/2/34 132/2/34
f 126/2/35 125/2/35 128/2/35 127/2/35
f 125/2/41 124/2/41 129/2/41 128/2/41
f 124/2/37 123/2/37 130/2/37 129/2/37
f 123/2/38 122/2/38 131/2/38 130/2/38
f 122/2/39 121/2/39 132/2/39 131/2/39
f 121/2/40 126/2/40 127/2/40 132/2/40
f 133/1/34 134/1/34 135/1/34 136/1/34 137/1/34 138/1/34 139/1/34 140/1/34
f 141/1/42 142/1/42 134/1/42 133/1/42
f 142/1/43 143/1/43 135/1/43 134/1/43
f 143/1/44 144/1/44 136/1/44 135/1/44
f 144/1/45 145/1/45 137/1/45 136/1/45
f 145/1/46 146/1/46 138/1/46 137/1/46
f 146/1/47 147/1/47 139/1/47 138/1/47
f 147/1/48 148/1/48 140/1/48 139/1/48
f 148/1/49 141/1/49 133/1/49 140/1/49
f 149/1/1 150/1/1 151/1/1 152/1/1 153/1/1 154/1/1 155/1/1 156/1/1 157/1/1 158/1/1 159/1/1 160/1/1
f 161/1/34 162/1/34 163/1/34 164/1/34 165/1/34 166/1/34 167/1/34 168/1/34 169/1/34 170/1/34 171/1/34 172/1/34
f 160/1/50 159/1/50 173/1/50 174/1/50
f 159/1/51 158/1/51 175/1/51 173/1/51
f 158/1/52 157/1/52 176/1/52 175/1/52
f 157/1/53 156/1/53 177/1/53 176/1/53
f 156/1/54 155/1/54 178/1/54 177/1/54
f 155/1/55 154/1/55 179/1/55 178/1/55
f 154/1/56 153/1/56 180/1/56 179/1/56
f 153/1/57 152/1/57 181/1/57 180/1/57
f 152/1/58 151/1/58 182/1/58 181/1/58
f 151/1/59 150/1/59 183/1/59 182/1/59
f 150/1/60 149/1/60 184/1/60 183/1/60
f 149/1/61 160/1/61 174/1/61 184/1/61
f 174/1/62 173/1/62 162/1/62 161/1/62
f 173/1/63 175/1/63 163/1/63 162/1/63
f 175/1/64 176/1/64 164/1/64 163/1/64
f 176/1/65 177/1/65 165/1/65 164/1/65
f 177/1/66 178/1/66 166/1/66 165/1/66
f 178/1/67 179/1/67 167/1/67 166/1/67
f 179/1/68 180/1/68 168/1/68 167/1/68
f 180/1/69 181/1/69 169/1/69 168/1/69
f 181/1/70 182/1/70 170/1/70 169/1/70
f 182/1/71 183/1/71 171/1/71 170/1/71
f 183/1/72 184/1/72 172/1/72 171/1/72
f 184/1/73 174/1/73 161/1/73 172/1/73
f 185/3/1 186/3/1 187/3/1 188/3/1 189/3/1 190/3/1 191/3/1 192/3/1 193/3/1 194/3/1 195/3/1 196/3/1 197/3/1 198/3/1 199/3/1 200/3/1 201/3/1 202/3/1 203/3/1 204/3/1
f 204/3/74 203/3/74 205/3/74 206/3/74
f 203/3/75 202/3/75 207/3/75 205/3/75
f 202/3/76 201/3/76 208/3/76 207/3/76
f 201/3/77 200/3/77 209/3/77 208/3/77
f 200/3/78 199/3/78 210/3/78 209/3/78
f 199/3/79 198/3/79 211/3/79 210/3/79
f 198/3/80 197/3/80 212/3/80 211/3/80
f 197/3/81 196/3/81 213/3/81 212/3/81
f 196/3/82 195/3/82 214/3/82 213/3/82
f 195/3/83 194/3/83 215/3/83 214/3/83
f 194/3/84 193/3/84 216/3/84 215/3/84
f 193/3/85 192/3/85 217/3/85 216/3/85
f 192/3/86 191/3/86 218/3/86 217/3/86
f 191/3/87 190/3/87 219/3/87 218/3/87
f 190/3/88 189/3/88 220/3/88 219/3/88
f 189/3/89 188/3/89 221/3/89 220/3/89
f 188/3/90 187/3/90 222/3/90 221/3/90
f 187/3/91 186/3/91 223/3/91 222/3/91
f 186/3/92 185/3/92 224/3/92 223/3/92
f 185/3/93 204/3/93 206/3/93 224/3/93
f 206/3/94 205/3/94 225/3/94 226/3/94
f 205/3/95 207/3/95 227/3/95 225/3/95
f 207/3/63 208/3/63 228/3/63 227/3/63
f 208/3/96 209/3/96 229/3/96 228/3/96
f 209/3/97 210/3/97 230/3/97 229/3/97
f 210/3/98 211/3/98 231/3/98 230/3/98
f 211/3/99 212/3/99 232/3/99 231/3/99
f 212/3/66 213/3/66 233/3/66 232/3/66
f 213/3/100 214/3/100 234/3/100 233/3/100
f 214/3/101 215/3/101 235/3/101 234/3/101
f 215/3/102 216/3/102 236/3/102 235/3/102
f 216/3/103 217/3/103 237/3/103 236/3/103
f 217/3/69 218/3/69 238/3/69 237/3/69
f 218/3/104 219/3/104 239/3/104 238/3/104
f 219/3/105 220/3/105 240/3/105 239/3/105
f 220/3/106 221/3/106 241/3/106 240/3/106
f 221/3/107 222/3/107 242/3/107 241/3/107
f 222/3/72 223/3/72 243/3/72 242/3/72
f 223/3/108 224/3/108 244/3/108 243/3/108
f 224/3/109 206/3/109 226/3/109 244/3/109
f 245/4/34 246/4/34 247/4/34 248/4/34 249/4/34 250/4/34 251/4/34 252/4/34 253/4/34 254/4/34 255/4/34 256/4/34 257/4/34 258/4/34 259/4/34 260/4/34 261/4/34 262/4/34 263/4/34 264/4/34
f 226/3/110 225/3/110 246/3/110 245/3/110
f 225/3/111 227/3/111 247/3/111 246/3/111
f 227/3/112 228/3/112 248/3/112 247/3/112
f 228/3/113 229/3/113 249/3/113 248/3/113
f 229/3/114 230/3/114 250/3/114 249/3/114
f 230/3/115 231/3/115 251/3/115 250/3/115
f 231/3/116 232/3/116 252/3/116 251/3/116
f 232/3/117 233/3/117 253/3/117 252/3/117
f 233/3/118 234/3/118 254/3/118 253/3/118
f 234/3/119 235/3/119 255/3/119 254/3/119
f 235/3/120 236/3/120 256/3/120 255/3/120
f 236/3/121 237/3/121 257/3/121 256/3/121
f 237/3/122 238/3/122 258/3/122 257/3/122
f 238/3/123 239/3/123 259/3/123 258/3/123
f 239/3/124 240/3/124 260/3/124 259/3/124
f 240/3/125 241/3/125 261/3/125 260/3/125
f 241/3/126 242/3/126 262/3/126 261/3/126
f 242/3/127 243/3/127 263/3/127 262/3/127
f 243/3/128 244/3/128 264/3/128 263/3/128
f 244/3/129 226/3/129 245/3/129 264/3/129
