# Blender 5.2.0 LTS
# www.blender.org
mtllib FN_Table_Cframe.mtl
o FN_Table_Cframe
v -0.220000 0.000000 0.150000
v -0.220000 0.000000 -0.186000
v 0.220000 0.000000 -0.186000
v 0.220000 0.000000 0.150000
v -0.220000 0.014000 0.150000
v 0.220000 0.014000 0.150000
v 0.220000 0.014000 -0.186000
v -0.220000 0.014000 -0.186000
v -0.220000 0.008000 -0.152000
v -0.220000 0.008000 -0.180000
v 0.220000 0.008000 -0.180000
v 0.220000 0.008000 -0.152000
v -0.220000 0.596000 -0.152000
v 0.220000 0.596000 -0.152000
v 0.220000 0.596000 -0.180000
v -0.220000 0.596000 -0.180000
v -0.240000 0.578000 0.190000
v -0.240000 0.578000 -0.190000
v 0.240000 0.578000 -0.190000
v 0.240000 0.578000 0.190000
v -0.240000 0.606000 0.190000
v 0.240000 0.606000 0.190000
v 0.240000 0.606000 -0.190000
v -0.240000 0.606000 -0.190000
v -0.170000 0.602000 0.120000
v -0.170000 0.602000 -0.050000
v 0.010000 0.602000 -0.050000
v 0.010000 0.602000 0.120000
v -0.170000 0.612000 0.120000
v 0.010000 0.612000 0.120000
v 0.010000 0.612000 -0.050000
v -0.170000 0.612000 -0.050000
v -0.170000 0.620000 0.120000
v -0.170000 0.620000 -0.050000
v 0.010000 0.620000 -0.050000
v 0.010000 0.620000 0.120000
v -0.170000 0.630000 0.120000
v 0.010000 0.630000 0.120000
v 0.010000 0.630000 -0.050000
v -0.170000 0.630000 -0.050000
v -0.164000 0.606000 0.114000
v -0.164000 0.606000 -0.044000
v 0.004000 0.606000 -0.044000
v 0.004000 0.606000 0.114000
v -0.164000 0.626000 0.114000
v 0.004000 0.626000 0.114000
v 0.004000 0.626000 -0.044000
v -0.164000 0.626000 -0.044000
v 0.159698 0.602000 0.029698
v 0.130000 0.602000 0.042000
v 0.100302 0.602000 0.029698
v 0.088000 0.602000 -0.000000
v 0.100302 0.602000 -0.029698
v 0.130000 0.602000 -0.042000
v 0.159698 0.602000 -0.029698
v 0.172000 0.602000 -0.000000
v 0.172000 0.700000 -0.000000
v 0.159698 0.700000 -0.029698
v 0.130000 0.700000 -0.042000
v 0.100302 0.700000 -0.029698
v 0.088000 0.700000 -0.000000
v 0.100302 0.700000 0.029698
v 0.130000 0.700000 0.042000
v 0.159698 0.700000 0.029698
v 0.172000 0.622000 0.020000
v 0.172000 0.622000 -0.000000
v 0.196000 0.622000 -0.000000
v 0.196000 0.622000 0.020000
v 0.172000 0.638000 0.020000
v 0.196000 0.638000 0.020000
v 0.196000 0.638000 -0.000000
v 0.172000 0.638000 -0.000000
v 0.172000 0.664000 0.020000
v 0.172000 0.664000 -0.000000
v 0.196000 0.664000 -0.000000
v 0.196000 0.664000 0.020000
v 0.172000 0.680000 0.020000
v 0.196000 0.680000 0.020000
v 0.196000 0.680000 -0.000000
v 0.172000 0.680000 -0.000000
v 0.186000 0.630000 0.020000
v 0.186000 0.630000 -0.000000
v 0.200000 0.630000 -0.000000
v 0.200000 0.630000 0.020000
v 0.186000 0.672000 0.020000
v 0.200000 0.672000 0.020000
v 0.200000 0.672000 -0.000000
v 0.186000 0.672000 -0.000000
vn -0.0000 -1.0000 -0.0000
vn -0.0000 1.0000 -0.0000
vn -0.0000 -0.0000 1.0000
vn -0.0000 -0.0000 -1.0000
vn -1.0000 -0.0000 -0.0000
vn 1.0000 -0.0000 -0.0000
vn 0.9239 -0.0000 -0.3827
vn 0.3827 -0.0000 -0.9239
vn -0.3827 -0.0000 -0.9239
vn -0.9239 -0.0000 -0.3827
vn -0.9239 -0.0000 0.3827
vn -0.3827 -0.0000 0.9239
vn 0.3827 -0.0000 0.9239
vn 0.9239 -0.0000 0.3827
vt 0.812500 0.312500
vt 0.437500 0.937500
vt 0.937500 0.812500
vt 0.437500 0.812500
vt 0.062500 0.062500
vt 0.937500 0.687500
s 0
usemtl FN_Atlas
f 1/1/1 2/1/1 3/1/1 4/1/1
f 5/1/2 6/1/2 7/1/2 8/1/2
f 1/1/3 4/1/3 6/1/3 5/1/3
f 3/1/4 2/1/4 8/1/4 7/1/4
f 1/1/5 5/1/5 8/1/5 2/1/5
f 4/1/6 3/1/6 7/1/6 6/1/6
f 9/1/1 10/1/1 11/1/1 12/1/1
f 13/1/2 14/1/2 15/1/2 16/1/2
f 9/1/3 12/1/3 14/1/3 13/1/3
f 11/1/4 10/1/4 16/1/4 15/1/4
f 9/1/5 13/1/5 16/1/5 10/1/5
f 12/1/6 11/1/6 15/1/6 14/1/6
f 17/2/1 18/2/1 19/2/1 20/2/1
f 21/2/2 22/2/2 23/2/2 24/2/2
f 17/2/3 20/2/3 22/2/3 21/2/3
f 19/2/4 18/2/4 24/2/4 23/2/4
f 17/2/5 21/2/5 24/2/5 18/2/5
f 20/2/6 19/2/6 23/2/6 22/2/6
f 25/3/1 26/3/1 27/3/1 28/3/1
f 29/3/2 30/3/2 31/3/2 32/3/2
f 25/3/3 28/3/3 30/3/3 29/3/3
f 27/3/4 26/3/4 32/3/4 31/3/4
f 25/3/5 29/3/5 32/3/5 26/3/5
f 28/3/6 27/3/6 31/3/6 30/3/6
f 33/3/1 34/3/1 35/3/1 36/3/1
f 37/3/2 38/3/2 39/3/2 40/3/2
f 33/3/3 36/3/3 38/3/3 37/3/3
f 35/3/4 34/3/4 40/3/4 39/3/4
f 33/3/5 37/3/5 40/3/5 34/3/5
f 36/3/6 35/3/6 39/3/6 38/3/6
f 41/4/1 42/4/1 43/4/1 44/4/1
f 45/4/2 46/4/2 47/4/2 48/4/2
f 41/4/3 44/4/3 46/4/3 45/4/3
f 43/4/4 42/4/4 48/4/4 47/4/4
f 41/4/5 45/4/5 48/4/5 42/4/5
f 44/4/6 43/4/6 47/4/6 46/4/6
f 49/5/1 50/5/1 51/5/1 52/5/1 53/5/1 54/5/1 55/5/1 56/5/1
f 57/6/2 58/6/2 59/6/2 60/6/2 61/6/2 62/6/2 63/6/2 64/6/2
f 56/5/7 55/5/7 58/5/7 57/5/7
f 55/5/8 54/5/8 59/5/8 58/5/8
f 54/5/9 53/5/9 60/5/9 59/5/9
f 53/5/10 52/5/10 61/5/10 60/5/10
f 52/5/11 51/5/11 62/5/11 61/5/11
f 51/5/12 50/5/12 63/5/12 62/5/12
f 50/5/13 49/5/13 64/5/13 63/5/13
f 49/5/14 56/5/14 57/5/14 64/5/14
f 65/5/1 66/5/1 67/5/1 68/5/1
f 69/5/2 70/5/2 71/5/2 72/5/2
f 65/5/3 68/5/3 70/5/3 69/5/3
f 67/5/4 66/5/4 72/5/4 71/5/4
f 65/5/5 69/5/5 72/5/5 66/5/5
f 68/5/6 67/5/6 71/5/6 70/5/6
f 73/5/1 74/5/1 75/5/1 76/5/1
f 77/5/2 78/5/2 79/5/2 80/5/2
f 73/5/3 76/5/3 78/5/3 77/5/3
f 75/5/4 74/5/4 80/5/4 79/5/4
f 73/5/5 77/5/5 80/5/5 74/5/5
f 76/5/6 75/5/6 79/5/6 78/5/6
f 81/5/1 82/5/1 83/5/1 84/5/1
f 85/5/2 86/5/2 87/5/2 88/5/2
f 81/5/3 84/5/3 86/5/3 85/5/3
f 83/5/4 82/5/4 88/5/4 87/5/4
f 81/5/5 85/5/5 88/5/5 82/5/5
f 84/5/6 83/5/6 87/5/6 86/5/6
