# Blender 5.2.0 LTS
# www.blender.org
mtllib FN_Table_Console_Slab.mtl
o FN_Table_Console_Slab
v -0.600000 0.000000 0.180000
v -0.560000 0.000000 0.180000
v -0.560000 0.760000 0.180000
v 0.560000 0.760000 0.180000
v 0.560000 0.000000 0.180000
v 0.600000 0.000000 0.180000
v 0.600000 0.800000 0.180000
v -0.600000 0.800000 0.180000
v -0.600000 0.800000 -0.180000
v 0.600000 0.800000 -0.180000
v 0.600000 0.000000 -0.180000
v 0.560000 0.000000 -0.180000
v 0.560000 0.760000 -0.180000
v -0.560000 0.760000 -0.180000
v -0.560000 0.000000 -0.180000
v -0.600000 0.000000 -0.180000
v -0.575000 0.180000 0.160000
v -0.575000 0.180000 -0.160000
v 0.575000 0.180000 -0.160000
v 0.575000 0.180000 0.160000
v -0.575000 0.216000 0.160000
v 0.575000 0.216000 0.160000
v 0.575000 0.216000 -0.160000
v -0.575000 0.216000 -0.160000
v -0.407764 0.800000 -0.097726
v -0.178639 0.800000 -0.077680
v -0.192236 0.800000 0.077726
v -0.421361 0.800000 0.057680
v -0.421361 0.826000 0.057680
v -0.192236 0.826000 0.077726
v -0.178639 0.826000 -0.077680
v -0.407764 0.826000 -0.097726
v -0.402934 0.826000 -0.062317
v -0.188118 0.826000 -0.084895
v -0.173066 0.826000 0.058317
v -0.387882 0.826000 0.080895
v -0.387882 0.848000 0.080895
v -0.173066 0.848000 0.058317
v -0.188118 0.848000 -0.084895
v -0.402934 0.848000 -0.062317
v -0.403566 0.848000 -0.091449
v -0.203688 0.848000 -0.084469
v -0.208434 0.848000 0.051449
v -0.408312 0.848000 0.044469
v -0.408312 0.868000 0.044469
v -0.208434 0.868000 0.051449
v -0.203688 0.868000 -0.084469
v -0.403566 0.868000 -0.091449
v 0.329497 0.800000 0.049497
v 0.280000 0.800000 0.070000
v 0.230503 0.800000 0.049497
v 0.210000 0.800000 -0.000000
v 0.230503 0.800000 -0.049497
v 0.280000 0.800000 -0.070000
v 0.329497 0.800000 -0.049497
v 0.350000 0.800000 0.000000
v 0.357782 0.868000 -0.077782
v 0.390000 0.868000 0.000000
v 0.280000 0.868000 -0.110000
v 0.202218 0.868000 -0.077782
v 0.170000 0.868000 -0.000000
v 0.202218 0.868000 0.077782
v 0.280000 0.868000 0.110000
v 0.357782 0.868000 0.077782
v 0.376000 0.868000 0.000000
v 0.347882 0.868000 -0.067882
v 0.319598 0.812000 -0.039598
v 0.336000 0.812000 0.000000
v 0.280000 0.868000 -0.096000
v 0.280000 0.812000 -0.056000
v 0.212118 0.868000 -0.067882
v 0.240402 0.812000 -0.039598
v 0.184000 0.868000 -0.000000
v 0.224000 0.812000 -0.000000
v 0.212118 0.868000 0.067882
v 0.240402 0.812000 0.039598
v 0.280000 0.868000 0.096000
v 0.280000 0.812000 0.056000
v 0.347882 0.868000 0.067882
v 0.319598 0.812000 0.039598
vn -0.0000 -0.0000 1.0000
vn -0.0000 -0.0000 -1.0000
vn -0.0000 -1.0000 -0.0000
vn 1.0000 -0.0000 -0.0000
vn -1.0000 -0.0000 -0.0000
vn -0.0000 1.0000 -0.0000
vn -0.0872 -0.0000 0.9962
vn 0.9962 -0.0000 0.0872
vn 0.0872 -0.0000 -0.9962
vn -0.9962 -0.0000 -0.0872
vn 0.1045 -0.0000 0.9945
vn 0.9945 -0.0000 -0.1045
vn -0.1045 -0.0000 -0.9945
vn -0.9945 -0.0000 0.1045
vn -0.0349 -0.0000 0.9994
vn 0.9994 -0.0000 0.0349
vn 0.0349 -0.0000 -0.9994
vn -0.9994 -0.0000 -0.0349
vn 0.8117 -0.4775 -0.3362
vn 0.3362 -0.4775 -0.8117
vn -0.3362 -0.4775 -0.8117
vn -0.8117 -0.4775 -0.3362
vn -0.8117 -0.4775 0.3362
vn -0.3362 -0.4775 0.8117
vn 0.3362 -0.4775 0.8117
vn 0.8117 -0.4775 0.3362
vn -0.7711 0.5508 0.3194
vn -0.3194 0.5508 0.7711
vn 0.3194 0.5508 0.7711
vn 0.7711 0.5508 0.3194
vn 0.7711 0.5508 -0.3194
vn 0.3194 0.5508 -0.7711
vn -0.3194 0.5508 -0.7711
vn -0.7711 0.5508 -0.3194
vt 0.812500 0.937500
vt 0.312500 0.562500
vt 0.312500 0.687500
vt 0.687500 0.062500
s 0
usemtl FN_Atlas
f 1/1/1 2/1/1 3/1/1 4/1/1 5/1/1 6/1/1 7/1/1 8/1/1
f 9/1/2 10/1/2 11/1/2 12/1/2 13/1/2 14/1/2 15/1/2 16/1/2
f 2/1/3 1/1/3 16/1/3 15/1/3
f 3/1/4 2/1/4 15/1/4 14/1/4
f 4/1/3 3/1/3 14/1/3 13/1/3
f 5/1/5 4/1/5 13/1/5 12/1/5
f 6/1/3 5/1/3 12/1/3 11/1/3
f 7/1/4 6/1/4 11/1/4 10/1/4
f 8/1/6 7/1/6 10/1/6 9/1/6
f 1/1/5 8/1/5 9/1/5 16/1/5
f 17/1/3 18/1/3 19/1/3 20/1/3
f 21/1/6 22/1/6 23/1/6 24/1/6
f 17/1/1 20/1/1 22/1/1 21/1/1
f 19/1/2 18/1/2 24/1/2 23/1/2
f 17/1/5 21/1/5 24/1/5 18/1/5
f 20/1/4 19/1/4 23/1/4 22/1/4
f 25/2/3 26/2/3 27/2/3 28/2/3
f 29/2/6 30/2/6 31/2/6 32/2/6
f 28/2/7 27/2/7 30/2/7 29/2/7
f 27/2/8 26/2/8 31/2/8 30/2/8
f 26/2/9 25/2/9 32/2/9 31/2/9
f 25/2/10 28/2/10 29/2/10 32/2/10
f 33/3/3 34/3/3 35/3/3 36/3/3
f 37/3/6 38/3/6 39/3/6 40/3/6
f 36/3/11 35/3/11 38/3/11 37/3/11
f 35/3/12 34/3/12 39/3/12 38/3/12
f 34/3/13 33/3/13 40/3/13 39/3/13
f 33/3/14 36/3/14 37/3/14 40/3/14
f 41/2/3 42/2/3 43/2/3 44/2/3
f 45/2/6 46/2/6 47/2/6 48/2/6
f 44/2/15 43/2/15 46/2/15 45/2/15
f 43/2/16 42/2/16 47/2/16 46/2/16
f 42/2/17 41/2/17 48/2/17 47/2/17
f 41/2/18 44/2/18 45/2/18 48/2/18
f 49/4/3 50/4/3 51/4/3 52/4/3 53/4/3 54/4/3 55/4/3 56/4/3
f 56/4/19 55/4/19 57/4/19 58/4/19
f 55/4/20 54/4/20 59/4/20 57/4/20
f 54/4/21 53/4/21 60/4/21 59/4/21
f 53/4/22 52/4/22 61/4/22 60/4/22
f 52/4/23 51/4/23 62/4/23 61/4/23
f 51/4/24 50/4/24 63/4/24 62/4/24
f 50/4/25 49/4/25 64/4/25 63/4/25
f 49/4/26 56/4/26 58/4/26 64/4/26
f 65/4/27 66/4/27 67/4/27 68/4/27
f 66/4/28 69/4/28 70/4/28 67/4/28
f 69/4/29 71/4/29 72/4/29 70/4/29
f 71/4/30 73/4/30 74/4/30 72/4/30
f 73/4/31 75/4/31 76/4/31 74/4/31
f 75/4/32 77/4/32 78/4/32 76/4/32
f 77/4/33 79/4/33 80/4/33 78/4/33
f 79/4/34 65/4/34 68/4/34 80/4/34
f 68/4/6 67/4/6 70/4/6 72/4/6 74/4/6 76/4/6 78/4/6 80/4/6
f 58/4/6 57/4/6 66/4/6 65/4/6
f 57/4/6 59/4/6 69/4/6 66/4/6
f 59/4/6 60/4/6 71/4/6 69/4/6
f 60/4/6 61/4/6 73/4/6 71/4/6
f 61/4/6 62/4/6 75/4/6 73/4/6
f 62/4/6 63/4/6 77/4/6 75/4/6
f 63/4/6 64/4/6 79/4/6 77/4/6
f 64/4/6 58/4/6 65/4/6 79/4/6
