# Blender 5.2.0 LTS
# www.blender.org
mtllib FN_Tree_Cat.mtl
o FN_Tree_Cat
v -0.300000 0.000000 0.240000
v -0.300000 0.000000 -0.240000
v 0.300000 0.000000 -0.240000
v 0.300000 0.000000 0.240000
v -0.300000 0.050000 0.240000
v 0.300000 0.050000 0.240000
v 0.300000 0.050000 -0.240000
v -0.300000 0.050000 -0.240000
v -0.051109 0.042000 0.038891
v -0.090000 0.042000 0.055000
v -0.128891 0.042000 0.038891
v -0.145000 0.042000 -0.000000
v -0.128891 0.042000 -0.038891
v -0.090000 0.042000 -0.055000
v -0.051109 0.042000 -0.038891
v -0.035000 0.042000 0.000000
v -0.035000 0.412000 0.000000
v -0.051109 0.412000 -0.038891
v -0.090000 0.412000 -0.055000
v -0.128891 0.412000 -0.038891
v -0.145000 0.412000 -0.000000
v -0.128891 0.412000 0.038891
v -0.090000 0.412000 0.055000
v -0.051109 0.412000 0.038891
v 0.168891 0.042000 0.038891
v 0.130000 0.042000 0.055000
v 0.091109 0.042000 0.038891
v 0.075000 0.042000 -0.000000
v 0.091109 0.042000 -0.038891
v 0.130000 0.042000 -0.055000
v 0.168891 0.042000 -0.038891
v 0.185000 0.042000 0.000000
v 0.185000 0.412000 0.000000
v 0.168891 0.412000 -0.038891
v 0.130000 0.412000 -0.055000
v 0.091109 0.412000 -0.038891
v 0.075000 0.412000 -0.000000
v 0.091109 0.412000 0.038891
v 0.130000 0.412000 0.055000
v 0.168891 0.412000 0.038891
v 0.163941 0.750000 -0.006059
v 0.130000 0.750000 0.008000
v 0.096059 0.750000 -0.006059
v 0.082000 0.750000 -0.040000
v 0.096059 0.750000 -0.073941
v 0.130000 0.750000 -0.088000
v 0.163941 0.750000 -0.073941
v 0.178000 0.750000 -0.040000
v 0.178000 0.990000 -0.040000
v 0.163941 0.990000 -0.073941
v 0.130000 0.990000 -0.088000
v 0.096059 0.990000 -0.073941
v 0.082000 0.990000 -0.040000
v 0.096059 0.990000 -0.006059
v 0.130000 0.990000 0.008000
v 0.163941 0.990000 -0.006059
v -0.290000 0.400000 0.150000
v -0.290000 0.400000 -0.150000
v 0.010000 0.400000 -0.150000
v 0.010000 0.400000 0.150000
v -0.290000 0.436000 0.150000
v 0.010000 0.436000 0.150000
v 0.010000 0.436000 -0.150000
v -0.290000 0.436000 -0.150000
v -0.040000 0.400000 0.170000
v -0.040000 0.400000 -0.170000
v 0.300000 0.400000 -0.170000
v 0.300000 0.400000 0.170000
v -0.040000 0.428000 0.170000
v 0.300000 0.428000 0.170000
v 0.300000 0.428000 -0.170000
v -0.040000 0.428000 -0.170000
v -0.040000 0.420000 0.170000
v -0.040000 0.420000 -0.170000
v -0.012000 0.420000 -0.170000
v -0.012000 0.420000 0.170000
v -0.040000 0.752000 0.170000
v -0.012000 0.752000 0.170000
v -0.012000 0.752000 -0.170000
v -0.040000 0.752000 -0.170000
v 0.272000 0.420000 0.170000
v 0.272000 0.420000 -0.170000
v 0.300000 0.420000 -0.170000
v 0.300000 0.420000 0.170000
v 0.272000 0.752000 0.170000
v 0.300000 0.752000 0.170000
v 0.300000 0.752000 -0.170000
v 0.272000 0.752000 -0.170000
v -0.030000 0.420000 -0.144000
v -0.030000 0.420000 -0.166000
v 0.290000 0.420000 -0.166000
v 0.290000 0.420000 -0.144000
v -0.030000 0.752000 -0.144000
v 0.290000 0.752000 -0.144000
v 0.290000 0.752000 -0.166000
v -0.030000 0.752000 -0.166000
v -0.040000 0.744000 0.170000
v -0.040000 0.744000 -0.170000
v 0.300000 0.744000 -0.170000
v 0.300000 0.744000 0.170000
v -0.040000 0.772000 0.170000
v 0.300000 0.772000 0.170000
v 0.300000 0.772000 -0.170000
v -0.040000 0.772000 -0.170000
v -0.040000 0.426000 0.166000
v -0.040000 0.426000 0.140000
v 0.300000 0.426000 0.140000
v 0.300000 0.426000 0.166000
v -0.040000 0.478000 0.166000
v 0.300000 0.478000 0.166000
v 0.300000 0.478000 0.140000
v -0.040000 0.478000 0.140000
v -0.040000 0.646000 0.166000
v -0.040000 0.646000 0.140000
v 0.300000 0.646000 0.140000
v 0.300000 0.646000 0.166000
v -0.040000 0.744000 0.166000
v 0.300000 0.744000 0.166000
v 0.300000 0.744000 0.140000
v -0.040000 0.744000 0.140000
v -0.030000 0.470000 0.166000
v -0.030000 0.470000 0.140000
v 0.060000 0.470000 0.140000
v 0.060000 0.470000 0.166000
v -0.030000 0.652000 0.166000
v 0.060000 0.652000 0.166000
v 0.060000 0.652000 0.140000
v -0.030000 0.652000 0.140000
v 0.212000 0.470000 0.166000
v 0.212000 0.470000 0.140000
v 0.290000 0.470000 0.140000
v 0.290000 0.470000 0.166000
v 0.212000 0.652000 0.166000
v 0.290000 0.652000 0.166000
v 0.290000 0.652000 0.140000
v 0.212000 0.652000 0.140000
v 0.236066 0.982000 0.066066
v 0.130000 0.982000 0.110000
v 0.023934 0.982000 0.066066
v -0.020000 0.982000 -0.040000
v 0.023934 0.982000 -0.146066
v 0.130000 0.982000 -0.190000
v 0.236066 0.982000 -0.146066
v 0.280000 0.982000 -0.040000
v 0.280000 1.020000 -0.040000
v 0.236066 1.020000 -0.146066
v 0.130000 1.020000 -0.190000
v 0.023934 1.020000 -0.146066
v -0.020000 1.020000 -0.040000
v 0.023934 1.020000 0.066066
v 0.130000 1.020000 0.110000
v 0.236066 1.020000 0.066066
vn -0.0000 -1.0000 -0.0000
vn -0.0000 1.0000 -0.0000
vn -0.0000 -0.0000 1.0000
vn -0.0000 -0.0000 -1.0000
vn -1.0000 -0.0000 -0.0000
vn 1.0000 -0.0000 -0.0000
vn 0.9239 -0.0000 -0.3827
vn 0.3827 -0.0000 -0.9239
vn -0.3827 -0.0000 -0.9239
vn -0.9239 -0.0000 -0.3827
vn -0.9239 -0.0000 0.3827
vn -0.3827 -0.0000 0.9239
vn 0.3827 -0.0000 0.9239
vn 0.9239 -0.0000 0.3827
vt 0.687500 0.687500
vt 0.312500 0.687500
vt 0.937500 0.687500
s 0
usemtl FN_Atlas
f 1/1/1 2/1/1 3/1/1 4/1/1
f 5/1/2 6/1/2 7/1/2 8/1/2
f 1/1/3 4/1/3 6/1/3 5/1/3
f 3/1/4 2/1/4 8/1/4 7/1/4
f 1/1/5 5/1/5 8/1/5 2/1/5
f 4/1/6 3/1/6 7/1/6 6/1/6
f 9/2/1 10/2/1 11/2/1 12/2/1 13/2/1 14/2/1 15/2/1 16/2/1
f 17/2/2 18/2/2 19/2/2 20/2/2 21/2/2 22/2/2 23/2/2 24/2/2
f 16/2/7 15/2/7 18/2/7 17/2/7
f 15/2/8 14/2/8 19/2/8 18/2/8
f 14/2/9 13/2/9 20/2/9 19/2/9
f 13/2/10 12/2/10 21/2/10 20/2/10
f 12/2/11 11/2/11 22/2/11 21/2/11
f 11/2/12 10/2/12 23/2/12 22/2/12
f 10/2/13 9/2/13 24/2/13 23/2/13
f 9/2/14 16/2/14 17/2/14 24/2/14
f 25/2/1 26/2/1 27/2/1 28/2/1 29/2/1 30/2/1 31/2/1 32/2/1
f 33/2/2 34/2/2 35/2/2 36/2/2 37/2/2 38/2/2 39/2/2 40/2/2
f 32/2/7 31/2/7 34/2/7 33/2/7
f 31/2/8 30/2/8 35/2/8 34/2/8
f 30/2/9 29/2/9 36/2/9 35/2/9
f 29/2/10 28/2/10 37/2/10 36/2/10
f 28/2/11 27/2/11 38/2/11 37/2/11
f 27/2/12 26/2/12 39/2/12 38/2/12
f 26/2/13 25/2/13 40/2/13 39/2/13
f 25/2/14 32/2/14 33/2/14 40/2/14
f 41/2/1 42/2/1 43/2/1 44/2/1 45/2/1 46/2/1 47/2/1 48/2/1
f 49/2/2 50/2/2 51/2/2 52/2/2 53/2/2 54/2/2 55/2/2 56/2/2
f 48/2/7 47/2/7 50/2/7 49/2/7
f 47/2/8 46/2/8 51/2/8 50/2/8
f 46/2/9 45/2/9 52/2/9 51/2/9
f 45/2/10 44/2/10 53/2/10 52/2/10
f 44/2/11 43/2/11 54/2/11 53/2/11
f 43/2/12 42/2/12 55/2/12 54/2/12
f 42/2/13 41/2/13 56/2/13 55/2/13
f 41/2/14 48/2/14 49/2/14 56/2/14
f 57/1/1 58/1/1 59/1/1 60/1/1
f 61/1/2 62/1/2 63/1/2 64/1/2
f 57/1/3 60/1/3 62/1/3 61/1/3
f 59/1/4 58/1/4 64/1/4 63/1/4
f 57/1/5 61/1/5 64/1/5 58/1/5
f 60/1/6 59/1/6 63/1/6 62/1/6
f 65/1/1 66/1/1 67/1/1 68/1/1
f 69/3/2 70/3/2 71/3/2 72/3/2
f 65/1/3 68/1/3 70/1/3 69/1/3
f 67/1/4 66/1/4 72/1/4 71/1/4
f 65/1/5 69/1/5 72/1/5 66/1/5
f 68/1/6 67/1/6 71/1/6 70/1/6
f 73/1/1 74/1/1 75/1/1 76/1/1
f 77/1/2 78/1/2 79/1/2 80/1/2
f 73/1/3 76/1/3 78/1/3 77/1/3
f 75/1/4 74/1/4 80/1/4 79/1/4
f 73/1/5 77/1/5 80/1/5 74/1/5
f 76/3/6 75/3/6 79/3/6 78/3/6
f 81/1/1 82/1/1 83/1/1 84/1/1
f 85/1/2 86/1/2 87/1/2 88/1/2
f 81/1/3 84/1/3 86/1/3 85/1/3
f 83/1/4 82/1/4 88/1/4 87/1/4
f 81/3/5 85/3/5 88/3/5 82/3/5
f 84/1/6 83/1/6 87/1/6 86/1/6
f 89/1/1 90/1/1 91/1/1 92/1/1
f 93/1/2 94/1/2 95/1/2 96/1/2
f 89/3/3 92/3/3 94/3/3 93/3/3
f 91/1/4 90/1/4 96/1/4 95/1/4
f 89/1/5 93/1/5 96/1/5 90/1/5
f 92/1/6 91/1/6 95/1/6 94/1/6
f 97/3/1 98/3/1 99/3/1 100/3/1
f 101/1/2 102/1/2 103/1/2 104/1/2
f 97/1/3 100/1/3 102/1/3 101/1/3
f 99/1/4 98/1/4 104/1/4 103/1/4
f 97/1/5 101/1/5 104/1/5 98/1/5
f 100/1/6 99/1/6 103/1/6 102/1/6
f 105/1/1 106/1/1 107/1/1 108/1/1
f 109/1/2 110/1/2 111/1/2 112/1/2
f 105/1/3 108/1/3 110/1/3 109/1/3
f 107/1/4 106/1/4 112/1/4 111/1/4
f 105/1/5 109/1/5 112/1/5 106/1/5
f 108/1/6 107/1/6 111/1/6 110/1/6
f 113/1/1 114/1/1 115/1/1 116/1/1
f 117/1/2 118/1/2 119/1/2 120/1/2
f 113/1/3 116/1/3 118/1/3 117/1/3
f 115/1/4 114/1/4 120/1/4 119/1/4
f 113/1/5 117/1/5 120/1/5 114/1/5
f 116/1/6 115/1/6 119/1/6 118/1/6
f 121/1/1 122/1/1 123/1/1 124/1/1
f 125/1/2 126/1/2 127/1/2 128/1/2
f 121/1/3 124/1/3 126/1/3 125/1/3
f 123/1/4 122/1/4 128/1/4 127/1/4
f 121/1/5 125/1/5 128/1/5 122/1/5
f 124/1/6 123/1/6 127/1/6 126/1/6
f 129/1/1 130/1/1 131/1/1 132/1/1
f 133/1/2 134/1/2 135/1/2 136/1/2
f 129/1/3 132/1/3 134/1/3 133/1/3
f 131/1/4 130/1/4 136/1/4 135/1/4
f 129/1/5 133/1/5 136/1/5 130/1/5
f 132/1/6 131/1/6 135/1/6 134/1/6
f 137/1/1 138/1/1 139/1/1 140/1/1 141/1/1 142/1/1 143/1/1 144/1/1
f 145/1/2 146/1/2 147/1/2 148/1/2 149/1/2 150/1/2 151/1/2 152/1/2
f 144/1/7 143/1/7 146/1/7 145/1/7
f 143/1/8 142/1/8 147/1/8 146/1/8
f 142/1/9 141/1/9 148/1/9 147/1/9
f 141/1/10 140/1/10 149/1/10 148/1/10
f 140/1/11 139/1/11 150/1/11 149/1/11
f 139/1/12 138/1/12 151/1/12 150/1/12
f 138/1/13 137/1/13 152/1/13 151/1/13
f 137/1/14 144/1/14 145/1/14 152/1/14
