# Blender 5.2.0 LTS
# www.blender.org
mtllib FN_Toaster.mtl
o FN_Toaster
v -0.140000 0.000000 0.065000
v -0.140000 0.000000 -0.085000
v 0.140000 0.000000 -0.085000
v 0.140000 0.000000 0.065000
v -0.140000 0.020000 0.065000
v 0.140000 0.020000 0.065000
v 0.140000 0.020000 -0.085000
v -0.140000 0.020000 -0.085000
v -0.150000 0.020000 0.075000
v -0.150000 0.020000 -0.095000
v -0.130000 0.020000 -0.095000
v -0.130000 0.020000 0.075000
v -0.150000 0.190000 0.075000
v -0.130000 0.190000 0.075000
v -0.130000 0.190000 -0.095000
v -0.150000 0.190000 -0.095000
v 0.130000 0.020000 0.075000
v 0.130000 0.020000 -0.095000
v 0.150000 0.020000 -0.095000
v 0.150000 0.020000 0.075000
v 0.130000 0.190000 0.075000
v 0.150000 0.190000 0.075000
v 0.150000 0.190000 -0.095000
v 0.130000 0.190000 -0.095000
v -0.150000 0.020000 0.055000
v 0.150000 0.020000 0.055000
v 0.150000 0.190000 0.055000
v -0.150000 0.190000 0.055000
v -0.150000 0.020000 -0.075000
v 0.150000 0.020000 -0.075000
v -0.150000 0.190000 -0.075000
v 0.150000 0.190000 -0.075000
v -0.150000 0.040000 0.075000
v 0.150000 0.040000 0.075000
v 0.150000 0.040000 -0.095000
v -0.150000 0.040000 -0.095000
v -0.150000 0.175000 0.075000
v -0.150000 0.175000 -0.095000
v -0.075000 0.175000 -0.095000
v -0.075000 0.175000 0.075000
v -0.075000 0.190000 0.075000
v -0.075000 0.190000 -0.095000
v -0.030000 0.175000 0.075000
v -0.030000 0.175000 -0.095000
v 0.030000 0.175000 -0.095000
v 0.030000 0.175000 0.075000
v -0.030000 0.190000 0.075000
v 0.030000 0.190000 0.075000
v 0.030000 0.190000 -0.095000
v -0.030000 0.190000 -0.095000
v 0.075000 0.175000 0.075000
v 0.075000 0.175000 -0.095000
v 0.150000 0.175000 -0.095000
v 0.150000 0.175000 0.075000
v 0.075000 0.190000 0.075000
v 0.075000 0.190000 -0.095000
v -0.130000 0.040000 0.055000
v -0.130000 0.040000 -0.075000
v -0.118000 0.040000 -0.075000
v -0.118000 0.040000 0.055000
v -0.130000 0.174000 0.055000
v -0.118000 0.174000 0.055000
v -0.118000 0.174000 -0.075000
v -0.130000 0.174000 -0.075000
v 0.118000 0.040000 0.055000
v 0.118000 0.040000 -0.075000
v 0.130000 0.040000 -0.075000
v 0.130000 0.040000 0.055000
v 0.118000 0.174000 0.055000
v 0.130000 0.174000 0.055000
v 0.130000 0.174000 -0.075000
v 0.118000 0.174000 -0.075000
v -0.130000 0.040000 0.043000
v 0.130000 0.040000 0.043000
v 0.130000 0.174000 0.043000
v -0.130000 0.174000 0.043000
v -0.130000 0.040000 -0.063000
v 0.130000 0.040000 -0.063000
v -0.130000 0.174000 -0.063000
v 0.130000 0.174000 -0.063000
v -0.130000 0.050000 0.055000
v -0.130000 0.050000 -0.075000
v 0.130000 0.050000 -0.075000
v 0.130000 0.050000 0.055000
v -0.130000 0.062000 0.055000
v 0.130000 0.062000 0.055000
v 0.130000 0.062000 -0.075000
v -0.130000 0.062000 -0.075000
v -0.070000 0.062000 0.038000
v -0.070000 0.062000 -0.058000
v -0.035000 0.062000 -0.058000
v -0.035000 0.062000 0.038000
v -0.070000 0.243000 0.038000
v -0.035000 0.243000 0.038000
v -0.035000 0.243000 -0.058000
v -0.070000 0.243000 -0.058000
v -0.070000 0.255000 0.038000
v -0.035000 0.255000 0.038000
v -0.035000 0.255000 -0.058000
v -0.070000 0.255000 -0.058000
v 0.096000 0.060000 0.089000
v 0.096000 0.060000 0.055000
v 0.110000 0.060000 0.055000
v 0.110000 0.060000 0.089000
v 0.096000 0.150000 0.089000
v 0.110000 0.150000 0.089000
v 0.110000 0.150000 0.055000
v 0.096000 0.150000 0.055000
v 0.088000 0.100000 0.095000
v 0.088000 0.100000 0.075000
v 0.118000 0.100000 0.075000
v 0.118000 0.100000 0.095000
v 0.088000 0.128000 0.095000
v 0.118000 0.128000 0.095000
v 0.118000 0.128000 0.075000
v 0.088000 0.128000 0.075000
vn -0.0000 -1.0000 -0.0000
vn -0.0000 1.0000 -0.0000
vn -0.0000 -0.0000 1.0000
vn -0.0000 -0.0000 -1.0000
vn -1.0000 -0.0000 -0.0000
vn 1.0000 -0.0000 -0.0000
vt 0.812500 0.312500
vt 0.687500 0.062500
vt 0.687500 0.812500
vt 0.687500 0.937500
s 0
usemtl FN_Atlas
f 1/1/1 2/1/1 3/1/1 4/1/1
f 5/1/2 6/1/2 7/1/2 8/1/2
f 1/1/3 4/1/3 6/1/3 5/1/3
f 3/1/4 2/1/4 8/1/4 7/1/4
f 1/1/5 5/1/5 8/1/5 2/1/5
f 4/1/6 3/1/6 7/1/6 6/1/6
f 9/2/1 10/2/1 11/2/1 12/2/1
f 13/2/2 14/2/2 15/2/2 16/2/2
f 9/2/3 12/2/3 14/2/3 13/2/3
f 11/2/4 10/2/4 16/2/4 15/2/4
f 9/2/5 13/2/5 16/2/5 10/2/5
f 12/2/6 11/2/6 15/2/6 14/2/6
f 17/2/1 18/2/1 19/2/1 20/2/1
f 21/2/2 22/2/2 23/2/2 24/2/2
f 17/2/3 20/2/3 22/2/3 21/2/3
f 19/2/4 18/2/4 24/2/4 23/2/4
f 17/2/5 21/2/5 24/2/5 18/2/5
f 20/2/6 19/2/6 23/2/6 22/2/6
f 9/2/1 25/2/1 26/2/1 20/2/1
f 13/2/2 22/2/2 27/2/2 28/2/2
f 9/2/3 20/2/3 22/2/3 13/2/3
f 26/2/4 25/2/4 28/2/4 27/2/4
f 9/2/5 13/2/5 28/2/5 25/2/5
f 20/2/6 26/2/6 27/2/6 22/2/6
f 29/2/1 10/2/1 19/2/1 30/2/1
f 31/2/2 32/2/2 23/2/2 16/2/2
f 29/2/3 30/2/3 32/2/3 31/2/3
f 19/2/4 10/2/4 16/2/4 23/2/4
f 29/2/5 31/2/5 16/2/5 10/2/5
f 30/2/6 19/2/6 23/2/6 32/2/6
f 9/2/1 10/2/1 19/2/1 20/2/1
f 33/2/2 34/2/2 35/2/2 36/2/2
f 9/2/3 20/2/3 34/2/3 33/2/3
f 19/2/4 10/2/4 36/2/4 35/2/4
f 9/2/5 33/2/5 36/2/5 10/2/5
f 20/2/6 19/2/6 35/2/6 34/2/6
f 37/2/1 38/2/1 39/2/1 40/2/1
f 13/2/2 41/2/2 42/2/2 16/2/2
f 37/2/3 40/2/3 41/2/3 13/2/3
f 39/2/4 38/2/4 16/2/4 42/2/4
f 37/2/5 13/2/5 16/2/5 38/2/5
f 40/2/6 39/2/6 42/2/6 41/2/6
f 43/2/1 44/2/1 45/2/1 46/2/1
f 47/2/2 48/2/2 49/2/2 50/2/2
f 43/2/3 46/2/3 48/2/3 47/2/3
f 45/2/4 44/2/4 50/2/4 49/2/4
f 43/2/5 47/2/5 50/2/5 44/2/5
f 46/2/6 45/2/6 49/2/6 48/2/6
f 51/2/1 52/2/1 53/2/1 54/2/1
f 55/2/2 22/2/2 23/2/2 56/2/2
f 51/2/3 54/2/3 22/2/3 55/2/3
f 53/2/4 52/2/4 56/2/4 23/2/4
f 51/2/5 55/2/5 56/2/5 52/2/5
f 54/2/6 53/2/6 23/2/6 22/2/6
f 57/1/1 58/1/1 59/1/1 60/1/1
f 61/1/2 62/1/2 63/1/2 64/1/2
f 57/1/3 60/1/3 62/1/3 61/1/3
f 59/1/4 58/1/4 64/1/4 63/1/4
f 57/1/5 61/1/5 64/1/5 58/1/5
f 60/1/6 59/1/6 63/1/6 62/1/6
f 65/1/1 66/1/1 67/1/1 68/1/1
f 69/1/2 70/1/2 71/1/2 72/1/2
f 65/1/3 68/1/3 70/1/3 69/1/3
f 67/1/4 66/1/4 72/1/4 71/1/4
f 65/1/5 69/1/5 72/1/5 66/1/5
f 68/1/6 67/1/6 71/1/6 70/1/6
f 57/1/1 73/1/1 74/1/1 68/1/1
f 61/1/2 70/1/2 75/1/2 76/1/2
f 57/1/3 68/1/3 70/1/3 61/1/3
f 74/1/4 73/1/4 76/1/4 75/1/4
f 57/1/5 61/1/5 76/1/5 73/1/5
f 68/1/6 74/1/6 75/1/6 70/1/6
f 77/1/1 58/1/1 67/1/1 78/1/1
f 79/1/2 80/1/2 71/1/2 64/1/2
f 77/1/3 78/1/3 80/1/3 79/1/3
f 67/1/4 58/1/4 64/1/4 71/1/4
f 77/1/5 79/1/5 64/1/5 58/1/5
f 78/1/6 67/1/6 71/1/6 80/1/6
f 81/1/1 82/1/1 83/1/1 84/1/1
f 85/1/2 86/1/2 87/1/2 88/1/2
f 81/1/3 84/1/3 86/1/3 85/1/3
f 83/1/4 82/1/4 88/1/4 87/1/4
f 81/1/5 85/1/5 88/1/5 82/1/5
f 84/1/6 83/1/6 87/1/6 86/1/6
f 89/3/1 90/3/1 91/3/1 92/3/1
f 93/3/2 94/3/2 95/3/2 96/3/2
f 89/3/3 92/3/3 94/3/3 93/3/3
f 91/3/4 90/3/4 96/3/4 95/3/4
f 89/3/5 93/3/5 96/3/5 90/3/5
f 92/3/6 91/3/6 95/3/6 94/3/6
f 97/4/2 98/4/2 99/4/2 100/4/2
f 93/4/3 94/4/3 98/4/3 97/4/3
f 95/4/4 96/4/4 100/4/4 99/4/4
f 93/4/5 97/4/5 100/4/5 96/4/5
f 94/4/6 95/4/6 99/4/6 98/4/6
f 101/1/1 102/1/1 103/1/1 104/1/1
f 105/1/2 106/1/2 107/1/2 108/1/2
f 101/1/3 104/1/3 106/1/3 105/1/3
f 103/1/4 102/1/4 108/1/4 107/1/4
f 101/1/5 105/1/5 108/1/5 102/1/5
f 104/1/6 103/1/6 107/1/6 106/1/6
f 109/1/1 110/1/1 111/1/1 112/1/1
f 113/1/2 114/1/2 115/1/2 116/1/2
f 109/1/3 112/1/3 114/1/3 113/1/3
f 111/1/4 110/1/4 116/1/4 115/1/4
f 109/1/5 113/1/5 116/1/5 110/1/5
f 112/1/6 111/1/6 115/1/6 114/1/6
