# Blender 5.2.0 LTS
# www.blender.org
mtllib FN_Table_Poseur.mtl
o FN_Table_Poseur
v -0.009000 0.015534 -0.335182
v 0.009000 0.015534 -0.335182
v 0.018000 0.012000 -0.320000
v 0.009000 0.008466 -0.304817
v -0.009000 0.008466 -0.304817
v -0.018000 0.012000 -0.320000
v -0.018000 1.000000 -0.090000
v -0.009000 0.996466 -0.074818
v 0.009000 0.996466 -0.074818
v 0.018000 1.000000 -0.090000
v 0.009000 1.003534 -0.105182
v -0.009000 1.003534 -0.105182
v -0.026000 0.000000 -0.294000
v -0.026000 0.000000 -0.346000
v 0.026000 0.000000 -0.346000
v 0.026000 0.000000 -0.294000
v -0.026000 0.014000 -0.294000
v 0.026000 0.014000 -0.294000
v 0.026000 0.014000 -0.346000
v -0.026000 0.014000 -0.346000
v -0.286300 0.012046 0.144512
v -0.268655 0.008489 0.144512
v -0.259483 0.008443 0.160000
v -0.267956 0.011954 0.175488
v -0.285601 0.015511 0.175488
v -0.294773 0.015557 0.160000
v -0.095587 1.003557 0.045000
v -0.086416 1.003511 0.060488
v -0.068771 0.999954 0.060488
v -0.060297 0.996443 0.045000
v -0.069469 0.996489 0.029512
v -0.087114 1.000046 0.029512
v -0.303128 0.000000 0.186000
v -0.303128 0.000000 0.134000
v -0.251128 0.000000 0.134000
v -0.251128 0.000000 0.186000
v -0.303128 0.014000 0.186000
v -0.251128 0.014000 0.186000
v -0.251128 0.014000 0.134000
v -0.303128 0.014000 0.134000
v 0.268655 0.008489 0.144512
v 0.286300 0.012046 0.144512
v 0.294773 0.015557 0.160000
v 0.285601 0.015511 0.175488
v 0.267956 0.011954 0.175488
v 0.259483 0.008443 0.160000
v 0.060297 0.996443 0.045000
v 0.068771 0.999954 0.060488
v 0.086416 1.003511 0.060488
v 0.095587 1.003557 0.045000
v 0.087114 1.000046 0.029512
v 0.069469 0.996489 0.029512
v 0.251128 0.000000 0.186000
v 0.251128 0.000000 0.134000
v 0.303128 0.000000 0.134000
v 0.303128 0.000000 0.186000
v 0.251128 0.014000 0.186000
v 0.303128 0.014000 0.186000
v 0.303128 0.014000 0.134000
v 0.251128 0.014000 0.134000
v -0.005196 0.240392 -0.272251
v 0.005196 0.240392 -0.266251
v 0.010392 0.230000 -0.263251
v 0.005196 0.219608 -0.266251
v -0.005196 0.219608 -0.272251
v -0.010392 0.230000 -0.275251
v -0.243571 0.230000 0.128626
v -0.238374 0.219608 0.131626
v -0.227982 0.219608 0.137626
v -0.222786 0.230000 0.140626
v -0.227982 0.240392 0.137626
v -0.238374 0.240392 0.131626
v -0.233178 0.240392 0.140626
v -0.233178 0.240392 0.128626
v -0.233178 0.230000 0.122626
v -0.233178 0.219608 0.128626
v -0.233178 0.219608 0.140626
v -0.233178 0.230000 0.146626
v 0.233178 0.230000 0.146626
v 0.233178 0.219608 0.140626
v 0.233178 0.219608 0.128626
v 0.233178 0.230000 0.122626
v 0.233178 0.240392 0.128626
v 0.233178 0.240392 0.140626
v 0.238374 0.240392 0.131626
v 0.227982 0.240392 0.137626
v 0.222786 0.230000 0.140626
v 0.227982 0.219608 0.137626
v 0.238374 0.219608 0.131626
v 0.243571 0.230000 0.128626
v 0.010392 0.230000 -0.275251
v 0.005196 0.219608 -0.272251
v -0.005196 0.219608 -0.266251
v -0.010392 0.230000 -0.263251
v -0.005196 0.240392 -0.266251
v 0.005196 0.240392 -0.272251
v 0.095263 0.958000 0.055000
v 0.055000 0.958000 0.095263
v -0.000000 0.958000 0.110000
v -0.055000 0.958000 0.095263
v -0.095263 0.958000 0.055000
v -0.110000 0.958000 -0.000000
v -0.095263 0.958000 -0.055000
v -0.055000 0.958000 -0.095263
v 0.000000 0.958000 -0.110000
v 0.055000 0.958000 -0.095263
v 0.095263 0.958000 -0.055000
v 0.110000 0.958000 0.000000
v 0.110000 1.016000 0.000000
v 0.095263 1.016000 -0.055000
v 0.055000 1.016000 -0.095263
v 0.000000 1.016000 -0.110000
v -0.055000 1.016000 -0.095263
v -0.095263 1.016000 -0.055000
v -0.110000 1.016000 -0.000000
v -0.095263 1.016000 0.055000
v -0.055000 1.016000 0.095263
v -0.000000 1.016000 0.110000
v 0.055000 1.016000 0.095263
v 0.095263 1.016000 0.055000
v 0.323358 1.010000 0.133939
v 0.247487 1.010000 0.247487
v 0.133939 1.010000 0.323358
v -0.000000 1.010000 0.350000
v -0.133939 1.010000 0.323358
v -0.247487 1.010000 0.247487
v -0.323358 1.010000 0.133939
v -0.350000 1.010000 -0.000000
v -0.323358 1.010000 -0.133939
v -0.247487 1.010000 -0.247487
v -0.133939 1.010000 -0.323358
v 0.000000 1.010000 -0.350000
v 0.133939 1.010000 -0.323358
v 0.247487 1.010000 -0.247487
v 0.323358 1.010000 -0.133939
v 0.350000 1.010000 0.000000
v 0.323358 1.043000 -0.133939
v 0.350000 1.043000 0.000000
v 0.247487 1.043000 -0.247487
v 0.133939 1.043000 -0.323358
v 0.000000 1.043000 -0.350000
v -0.133939 1.043000 -0.323358
v -0.247487 1.043000 -0.247487
v -0.323358 1.043000 -0.133939
v -0.350000 1.043000 -0.000000
v -0.323358 1.043000 0.133939
v -0.247487 1.043000 0.247487
v -0.133939 1.043000 0.323358
v -0.000000 1.043000 0.350000
v 0.133939 1.043000 0.323358
v 0.247487 1.043000 0.247487
v 0.323358 1.043000 0.133939
v 0.343000 1.050000 0.000000
v 0.316891 1.050000 -0.131260
v 0.242538 1.050000 -0.242538
v 0.131260 1.050000 -0.316891
v 0.000000 1.050000 -0.343000
v -0.131260 1.050000 -0.316891
v -0.242538 1.050000 -0.242538
v -0.316891 1.050000 -0.131260
v -0.343000 1.050000 -0.000000
v -0.316891 1.050000 0.131260
v -0.242538 1.050000 0.242538
v -0.131260 1.050000 0.316891
v -0.000000 1.050000 0.343000
v 0.131260 1.050000 0.316891
v 0.242538 1.050000 0.242538
v 0.316891 1.050000 0.131260
vn -0.0000 -0.9740 -0.2267
vn -0.0000 0.9740 0.2267
vn -0.8660 -0.1134 0.4870
vn -0.0000 -0.2267 0.9740
vn 0.8660 -0.1134 0.4870
vn 0.8660 0.1134 -0.4870
vn -0.0000 0.2267 -0.9740
vn -0.8660 0.1134 -0.4870
vn -0.0000 -1.0000 -0.0000
vn -0.0000 1.0000 -0.0000
vn -0.0000 -0.0000 1.0000
vn -0.0000 -0.0000 -1.0000
vn -1.0000 -0.0000 -0.0000
vn 1.0000 -0.0000 -0.0000
vn -0.1964 -0.9740 0.1134
vn 0.1964 0.9740 -0.1134
vn -0.8377 0.2267 0.4968
vn 0.0224 0.1111 0.9936
vn 0.8601 -0.1156 0.4968
vn 0.8377 -0.2267 -0.4968
vn -0.0224 -0.1111 -0.9936
vn -0.8601 0.1156 -0.4968
vn 0.1964 -0.9740 0.1134
vn -0.1964 0.9740 -0.1134
vn -0.8601 -0.1156 0.4968
vn -0.0224 0.1111 0.9936
vn 0.8377 0.2267 0.4968
vn 0.8601 0.1156 -0.4968
vn 0.0224 -0.1111 -0.9936
vn -0.8377 -0.2267 -0.4968
vn 0.5000 -0.0000 -0.8660
vn -0.5000 -0.0000 0.8660
vn -0.7500 -0.5000 -0.4330
vn 0.7500 -0.5000 0.4330
vn 0.7500 0.5000 0.4330
vn -0.7500 0.5000 -0.4330
vn -0.0000 -0.5000 0.8660
vn -0.0000 -0.5000 -0.8660
vn -0.0000 0.5000 -0.8660
vn -0.0000 0.5000 0.8660
vn 0.5000 -0.0000 0.8660
vn -0.5000 -0.0000 -0.8660
vn 0.7500 -0.5000 -0.4330
vn -0.7500 -0.5000 0.4330
vn -0.7500 0.5000 0.4330
vn 0.7500 0.5000 -0.4330
vn 0.9659 -0.0000 -0.2588
vn 0.7071 -0.0000 -0.7071
vn 0.2588 -0.0000 -0.9659
vn -0.2588 -0.0000 -0.9659
vn -0.7071 -0.0000 -0.7071
vn -0.9659 -0.0000 -0.2588
vn -0.9659 -0.0000 0.2588
vn -0.7071 -0.0000 0.7071
vn -0.2588 -0.0000 0.9659
vn 0.2588 -0.0000 0.9659
vn 0.7071 -0.0000 0.7071
vn 0.9659 -0.0000 0.2588
vn 0.9808 -0.0000 -0.1951
vn 0.8315 -0.0000 -0.5556
vn 0.5556 -0.0000 -0.8315
vn 0.1951 -0.0000 -0.9808
vn -0.1951 -0.0000 -0.9808
vn -0.5556 -0.0000 -0.8315
vn -0.8315 -0.0000 -0.5556
vn -0.9808 -0.0000 -0.1951
vn -0.9808 -0.0000 0.1951
vn -0.8315 -0.0000 0.5556
vn -0.5556 -0.0000 0.8315
vn -0.1951 -0.0000 0.9808
vn 0.1951 -0.0000 0.9808
vn 0.5556 -0.0000 0.8315
vn 0.8315 -0.0000 0.5556
vn 0.9808 -0.0000 0.1951
vn 0.7002 0.7002 -0.1393
vn 0.5936 0.7002 -0.3966
vn 0.3966 0.7002 -0.5936
vn 0.1393 0.7002 -0.7002
vn -0.1393 0.7002 -0.7002
vn -0.3966 0.7002 -0.5936
vn -0.5936 0.7002 -0.3966
vn -0.7002 0.7002 -0.1393
vn -0.7002 0.7002 0.1393
vn -0.5936 0.7002 0.3966
vn -0.3966 0.7002 0.5936
vn -0.1393 0.7002 0.7002
vn 0.1393 0.7002 0.7002
vn 0.3966 0.7002 0.5936
vn 0.5936 0.7002 0.3966
vn 0.7002 0.7002 0.1393
vt 0.062500 0.312500
vt 0.812500 0.312500
vt 0.687500 0.937500
s 0
usemtl FN_Atlas
f 1/1/1 2/1/1 3/1/1 4/1/1 5/1/1 6/1/1
f 7/1/2 8/1/2 9/1/2 10/1/2 11/1/2 12/1/2
f 6/1/3 5/1/3 8/1/3 7/1/3
f 5/1/4 4/1/4 9/1/4 8/1/4
f 4/1/5 3/1/5 10/1/5 9/1/5
f 3/1/6 2/1/6 11/1/6 10/1/6
f 2/1/7 1/1/7 12/1/7 11/1/7
f 1/1/8 6/1/8 7/1/8 12/1/8
f 13/2/9 14/2/9 15/2/9 16/2/9
f 17/2/10 18/2/10 19/2/10 20/2/10
f 13/2/11 16/2/11 18/2/11 17/2/11
f 15/2/12 14/2/12 20/2/12 19/2/12
f 13/2/13 17/2/13 20/2/13 14/2/13
f 16/2/14 15/2/14 19/2/14 18/2/14
f 21/1/15 22/1/15 23/1/15 24/1/15 25/1/15 26/1/15
f 27/1/16 28/1/16 29/1/16 30/1/16 31/1/16 32/1/16
f 26/1/17 25/1/17 28/1/17 27/1/17
f 25/1/18 24/1/18 29/1/18 28/1/18
f 24/1/19 23/1/19 30/1/19 29/1/19
f 23/1/20 22/1/20 31/1/20 30/1/20
f 22/1/21 21/1/21 32/1/21 31/1/21
f 21/1/22 26/1/22 27/1/22 32/1/22
f 33/2/9 34/2/9 35/2/9 36/2/9
f 37/2/10 38/2/10 39/2/10 40/2/10
f 33/2/11 36/2/11 38/2/11 37/2/11
f 35/2/12 34/2/12 40/2/12 39/2/12
f 33/2/13 37/2/13 40/2/13 34/2/13
f 36/2/14 35/2/14 39/2/14 38/2/14
f 41/1/23 42/1/23 43/1/23 44/1/23 45/1/23 46/1/23
f 47/1/24 48/1/24 49/1/24 50/1/24 51/1/24 52/1/24
f 46/1/25 45/1/25 48/1/25 47/1/25
f 45/1/26 44/1/26 49/1/26 48/1/26
f 44/1/27 43/1/27 50/1/27 49/1/27
f 43/1/28 42/1/28 51/1/28 50/1/28
f 42/1/29 41/1/29 52/1/29 51/1/29
f 41/1/30 46/1/30 47/1/30 52/1/30
f 53/2/9 54/2/9 55/2/9 56/2/9
f 57/2/10 58/2/10 59/2/10 60/2/10
f 53/2/11 56/2/11 58/2/11 57/2/11
f 55/2/12 54/2/12 60/2/12 59/2/12
f 53/2/13 57/2/13 60/2/13 54/2/13
f 56/2/14 55/2/14 59/2/14 58/2/14
f 61/1/31 62/1/31 63/1/31 64/1/31 65/1/31 66/1/31
f 67/1/32 68/1/32 69/1/32 70/1/32 71/1/32 72/1/32
f 66/1/33 65/1/33 68/1/33 67/1/33
f 65/1/9 64/1/9 69/1/9 68/1/9
f 64/1/34 63/1/34 70/1/34 69/1/34
f 63/1/35 62/1/35 71/1/35 70/1/35
f 62/1/10 61/1/10 72/1/10 71/1/10
f 61/1/36 66/1/36 67/1/36 72/1/36
f 73/1/13 74/1/13 75/1/13 76/1/13 77/1/13 78/1/13
f 79/1/14 80/1/14 81/1/14 82/1/14 83/1/14 84/1/14
f 78/1/37 77/1/37 80/1/37 79/1/37
f 77/1/9 76/1/9 81/1/9 80/1/9
f 76/1/38 75/1/38 82/1/38 81/1/38
f 75/1/39 74/1/39 83/1/39 82/1/39
f 74/1/10 73/1/10 84/1/10 83/1/10
f 73/1/40 78/1/40 79/1/40 84/1/40
f 85/1/41 86/1/41 87/1/41 88/1/41 89/1/41 90/1/41
f 91/1/42 92/1/42 93/1/42 94/1/42 95/1/42 96/1/42
f 90/1/43 89/1/43 92/1/43 91/1/43
f 89/1/9 88/1/9 93/1/9 92/1/9
f 88/1/44 87/1/44 94/1/44 93/1/44
f 87/1/45 86/1/45 95/1/45 94/1/45
f 86/1/10 85/1/10 96/1/10 95/1/10
f 85/1/46 90/1/46 91/1/46 96/1/46
f 97/1/9 98/1/9 99/1/9 100/1/9 101/1/9 102/1/9 103/1/9 104/1/9 105/1/9 106/1/9 107/1/9 108/1/9
f 109/1/10 110/1/10 111/1/10 112/1/10 113/1/10 114/1/10 115/1/10 116/1/10 117/1/10 118/1/10 119/1/10 120/1/10
f 108/1/47 107/1/47 110/1/47 109/1/47
f 107/1/48 106/1/48 111/1/48 110/1/48
f 106/1/49 105/1/49 112/1/49 111/1/49
f 105/1/50 104/1/50 113/1/50 112/1/50
f 104/1/51 103/1/51 114/1/51 113/1/51
f 103/1/52 102/1/52 115/1/52 114/1/52
f 102/1/53 101/1/53 116/1/53 115/1/53
f 101/1/54 100/1/54 117/1/54 116/1/54
f 100/1/55 99/1/55 118/1/55 117/1/55
f 99/1/56 98/1/56 119/1/56 118/1/56
f 98/1/57 97/1/57 120/1/57 119/1/57
f 97/1/58 108/1/58 109/1/58 120/1/58
f 121/3/9 122/3/9 123/3/9 124/3/9 125/3/9 126/3/9 127/3/9 128/3/9 129/3/9 130/3/9 131/3/9 132/3/9 133/3/9 134/3/9 135/3/9 136/3/9
f 136/3/59 135/3/59 137/3/59 138/3/59
f 135/3/60 134/3/60 139/3/60 137/3/60
f 134/3/61 133/3/61 140/3/61 139/3/61
f 133/3/62 132/3/62 141/3/62 140/3/62
f 132/3/63 131/3/63 142/3/63 141/3/63
f 131/3/64 130/3/64 143/3/64 142/3/64
f 130/3/65 129/3/65 144/3/65 143/3/65
f 129/3/66 128/3/66 145/3/66 144/3/66
f 128/3/67 127/3/67 146/3/67 145/3/67
f 127/3/68 126/3/68 147/3/68 146/3/68
f 126/3/69 125/3/69 148/3/69 147/3/69
f 125/3/70 124/3/70 149/3/70 148/3/70
f 124/3/71 123/3/71 150/3/71 149/3/71
f 123/3/72 122/3/72 151/3/72 150/3/72
f 122/3/73 121/3/73 152/3/73 151/3/73
f 121/3/74 136/3/74 138/3/74 152/3/74
f 153/3/10 154/3/10 155/3/10 156/3/10 157/3/10 158/3/10 159/3/10 160/3/10 161/3/10 162/3/10 163/3/10 164/3/10 165/3/10 166/3/10 167/3/10 168/3/10
f 138/3/75 137/3/75 154/3/75 153/3/75
f 137/3/76 139/3/76 155/3/76 154/3/76
f 139/3/77 140/3/77 156/3/77 155/3/77
f 140/3/78 141/3/78 157/3/78 156/3/78
f 141/3/79 142/3/79 158/3/79 157/3/79
f 142/3/80 143/3/80 159/3/80 158/3/80
f 143/3/81 144/3/81 160/3/81 159/3/81
f 144/3/82 145/3/82 161/3/82 160/3/82
f 145/3/83 146/3/83 162/3/83 161/3/83
f 146/3/84 147/3/84 163/3/84 162/3/84
f 147/3/85 148/3/85 164/3/85 163/3/85
f 148/3/86 149/3/86 165/3/86 164/3/86
f 149/3/87 150/3/87 166/3/87 165/3/87
f 150/3/88 151/3/88 167/3/88 166/3/88
f 151/3/89 152/3/89 168/3/89 167/3/89
f 152/3/90 138/3/90 153/3/90 168/3/90
