# Blender 5.2.0 LTS
# www.blender.org
mtllib FN_Table_Coffee.mtl
o FN_Table_Coffee
v -0.543762 0.388000 -0.276824
v 0.543762 0.388000 -0.276824
v 0.543762 0.388000 0.276824
v -0.543762 0.388000 0.276824
v 0.550000 0.395000 0.280000
v -0.550000 0.395000 0.280000
v 0.550000 0.395000 -0.280000
v -0.550000 0.395000 -0.280000
v 0.550000 0.413000 0.280000
v -0.550000 0.413000 0.280000
v 0.550000 0.413000 -0.280000
v -0.550000 0.413000 -0.280000
v -0.543762 0.420000 0.276824
v 0.543762 0.420000 0.276824
v 0.543762 0.420000 -0.276824
v -0.543762 0.420000 -0.276824
v -0.455391 0.389069 0.203202
v -0.470200 0.390265 0.197073
v -0.484893 0.392477 0.203202
v -0.490861 0.394410 0.218000
v -0.484609 0.394931 0.232798
v -0.469800 0.393735 0.238927
v -0.455107 0.391523 0.232798
v -0.449139 0.389590 0.218000
v -0.501090 0.014473 0.250003
v -0.504781 0.015698 0.259161
v -0.513873 0.017099 0.262953
v -0.523039 0.017857 0.259157
v -0.526910 0.017527 0.249997
v -0.523219 0.016302 0.240839
v -0.514127 0.014901 0.237047
v -0.504961 0.014143 0.240843
v -0.477815 0.219609 0.244431
v -0.472986 0.218024 0.232454
v -0.489707 0.221422 0.249391
v -0.501694 0.222403 0.244428
v -0.506756 0.221976 0.232450
v -0.501927 0.220391 0.220472
v -0.490035 0.218578 0.215512
v -0.478048 0.217597 0.220475
v -0.506080 0.000000 0.257920
v -0.514000 0.000000 0.261200
v -0.521920 0.000000 0.257920
v -0.525200 0.000000 0.250000
v -0.521920 0.000000 0.242080
v -0.514000 0.000000 0.238800
v -0.506080 0.000000 0.242080
v -0.502800 0.000000 0.250000
v -0.500840 0.016000 0.250000
v -0.504694 0.016000 0.240694
v -0.514000 0.016000 0.236840
v -0.523306 0.016000 0.240694
v -0.527160 0.016000 0.250000
v -0.523306 0.016000 0.259306
v -0.514000 0.016000 0.263160
v -0.504694 0.016000 0.259306
v -0.504101 0.008000 0.240101
v -0.500000 0.008000 0.250000
v -0.514000 0.008000 0.236000
v -0.523899 0.008000 0.240101
v -0.528000 0.008000 0.250000
v -0.523899 0.008000 0.259899
v -0.514000 0.008000 0.264000
v -0.504101 0.008000 0.259899
v -0.455107 0.391523 -0.232798
v -0.469800 0.393735 -0.238927
v -0.484609 0.394931 -0.232798
v -0.490861 0.394410 -0.218000
v -0.484893 0.392477 -0.203202
v -0.470200 0.390265 -0.197073
v -0.455391 0.389069 -0.203202
v -0.449139 0.389590 -0.218000
v -0.501090 0.014473 -0.250003
v -0.504961 0.014143 -0.240843
v -0.514127 0.014901 -0.237047
v -0.523219 0.016302 -0.240839
v -0.526910 0.017527 -0.249997
v -0.523039 0.017857 -0.259157
v -0.513873 0.017099 -0.262953
v -0.504781 0.015698 -0.259161
v -0.478048 0.217597 -0.220475
v -0.472986 0.218024 -0.232454
v -0.490035 0.218578 -0.215512
v -0.501927 0.220391 -0.220472
v -0.506756 0.221976 -0.232450
v -0.501694 0.222403 -0.244428
v -0.489707 0.221422 -0.249391
v -0.477815 0.219609 -0.244431
v -0.506080 0.000000 -0.242080
v -0.514000 0.000000 -0.238800
v -0.521920 0.000000 -0.242080
v -0.525200 0.000000 -0.250000
v -0.521920 0.000000 -0.257920
v -0.514000 0.000000 -0.261200
v -0.506080 0.000000 -0.257920
v -0.502800 0.000000 -0.250000
v -0.500840 0.016000 -0.250000
v -0.504694 0.016000 -0.259306
v -0.514000 0.016000 -0.263160
v -0.523306 0.016000 -0.259306
v -0.527160 0.016000 -0.250000
v -0.523306 0.016000 -0.240694
v -0.514000 0.016000 -0.236840
v -0.504694 0.016000 -0.240694
v -0.504101 0.008000 -0.259899
v -0.500000 0.008000 -0.250000
v -0.514000 0.008000 -0.264000
v -0.523899 0.008000 -0.259899
v -0.528000 0.008000 -0.250000
v -0.523899 0.008000 -0.240101
v -0.514000 0.008000 -0.236000
v -0.504101 0.008000 -0.240101
v 0.484893 0.392477 0.203202
v 0.470200 0.390265 0.197073
v 0.455391 0.389069 0.203202
v 0.449139 0.389590 0.218000
v 0.455107 0.391523 0.232798
v 0.469800 0.393735 0.238927
v 0.484609 0.394931 0.232798
v 0.490861 0.394410 0.218000
v 0.526910 0.017527 0.249997
v 0.523039 0.017857 0.259157
v 0.513873 0.017099 0.262953
v 0.504781 0.015698 0.259161
v 0.501090 0.014473 0.250003
v 0.504961 0.014143 0.240843
v 0.514127 0.014901 0.237047
v 0.523219 0.016302 0.240839
v 0.501694 0.222403 0.244428
v 0.506756 0.221976 0.232450
v 0.489707 0.221422 0.249391
v 0.477815 0.219609 0.244431
v 0.472986 0.218024 0.232454
v 0.478048 0.217597 0.220475
v 0.490035 0.218578 0.215512
v 0.501927 0.220391 0.220472
v 0.521920 0.000000 0.257920
v 0.514000 0.000000 0.261200
v 0.506080 0.000000 0.257920
v 0.502800 0.000000 0.250000
v 0.506080 0.000000 0.242080
v 0.514000 0.000000 0.238800
v 0.521920 0.000000 0.242080
v 0.525200 0.000000 0.250000
v 0.527160 0.016000 0.250000
v 0.523306 0.016000 0.240694
v 0.514000 0.016000 0.236840
v 0.504694 0.016000 0.240694
v 0.500840 0.016000 0.250000
v 0.504694 0.016000 0.259306
v 0.514000 0.016000 0.263160
v 0.523306 0.016000 0.259306
v 0.523899 0.008000 0.240101
v 0.528000 0.008000 0.250000
v 0.514000 0.008000 0.236000
v 0.504101 0.008000 0.240101
v 0.500000 0.008000 0.250000
v 0.504101 0.008000 0.259899
v 0.514000 0.008000 0.264000
v 0.523899 0.008000 0.259899
v 0.484609 0.394931 -0.232798
v 0.469800 0.393735 -0.238927
v 0.455107 0.391523 -0.232798
v 0.449139 0.389590 -0.218000
v 0.455391 0.389069 -0.203202
v 0.470200 0.390265 -0.197073
v 0.484893 0.392477 -0.203202
v 0.490861 0.394410 -0.218000
v 0.526910 0.017527 -0.249997
v 0.523219 0.016302 -0.240839
v 0.514127 0.014901 -0.237047
v 0.504961 0.014143 -0.240843
v 0.501090 0.014473 -0.250003
v 0.504781 0.015698 -0.259161
v 0.513873 0.017099 -0.262953
v 0.523039 0.017857 -0.259157
v 0.501927 0.220391 -0.220472
v 0.506756 0.221976 -0.232450
v 0.490035 0.218578 -0.215512
v 0.478048 0.217597 -0.220475
v 0.472986 0.218024 -0.232454
v 0.477815 0.219609 -0.244431
v 0.489707 0.221422 -0.249391
v 0.501694 0.222403 -0.244428
v 0.521920 0.000000 -0.242080
v 0.514000 0.000000 -0.238800
v 0.506080 0.000000 -0.242080
v 0.502800 0.000000 -0.250000
v 0.506080 0.000000 -0.257920
v 0.514000 0.000000 -0.261200
v 0.521920 0.000000 -0.257920
v 0.525200 0.000000 -0.250000
v 0.527160 0.016000 -0.250000
v 0.523306 0.016000 -0.259306
v 0.514000 0.016000 -0.263160
v 0.504694 0.016000 -0.259306
v 0.500840 0.016000 -0.250000
v 0.504694 0.016000 -0.240694
v 0.514000 0.016000 -0.236840
v 0.523306 0.016000 -0.240694
v 0.523899 0.008000 -0.259899
v 0.528000 0.008000 -0.250000
v 0.514000 0.008000 -0.264000
v 0.504101 0.008000 -0.259899
v 0.500000 0.008000 -0.250000
v 0.504101 0.008000 -0.240101
v 0.514000 0.008000 -0.236000
v 0.523899 0.008000 -0.240101
v -0.489436 0.144607 0.239849
v -0.500043 0.149000 0.239849
v -0.510650 0.144607 0.239849
v -0.515043 0.134000 0.239849
v -0.510650 0.123393 0.239849
v -0.500043 0.119000 0.239849
v -0.489436 0.123393 0.239849
v -0.485043 0.134000 0.239849
v -0.485043 0.134000 -0.239849
v -0.489436 0.123393 -0.239849
v -0.500043 0.119000 -0.239849
v -0.510650 0.123393 -0.239849
v -0.515043 0.134000 -0.239849
v -0.510650 0.144607 -0.239849
v -0.500043 0.149000 -0.239849
v -0.489436 0.144607 -0.239849
v 0.510650 0.144607 0.239849
v 0.500043 0.149000 0.239849
v 0.489436 0.144607 0.239849
v 0.485043 0.134000 0.239849
v 0.489436 0.123393 0.239849
v 0.500043 0.119000 0.239849
v 0.510650 0.123393 0.239849
v 0.515043 0.134000 0.239849
v 0.515043 0.134000 -0.239849
v 0.510650 0.123393 -0.239849
v 0.500043 0.119000 -0.239849
v 0.489436 0.123393 -0.239849
v 0.485043 0.134000 -0.239849
v 0.489436 0.144607 -0.239849
v 0.500043 0.149000 -0.239849
v 0.510650 0.144607 -0.239849
v -0.503052 0.126000 0.137185
v 0.503052 0.126000 0.137185
v 0.503052 0.126000 0.206574
v -0.503052 0.126000 0.206574
v 0.507043 0.130000 0.206849
v -0.507043 0.130000 0.206849
v 0.507043 0.130000 0.136910
v -0.507043 0.130000 0.136910
v 0.507043 0.138000 0.206849
v -0.507043 0.138000 0.206849
v 0.507043 0.138000 0.136910
v -0.507043 0.138000 0.136910
v -0.503052 0.142000 0.206574
v 0.503052 0.142000 0.206574
v 0.503052 0.142000 0.137185
v -0.503052 0.142000 0.137185
v -0.503052 0.126000 0.051245
v 0.503052 0.126000 0.051245
v 0.503052 0.126000 0.120634
v -0.503052 0.126000 0.120634
v 0.507043 0.130000 0.120910
v -0.507043 0.130000 0.120910
v 0.507043 0.130000 0.050970
v -0.507043 0.130000 0.050970
v 0.507043 0.138000 0.120910
v -0.507043 0.138000 0.120910
v 0.507043 0.138000 0.050970
v -0.507043 0.138000 0.050970
v -0.503052 0.142000 0.120634
v 0.503052 0.142000 0.120634
v 0.503052 0.142000 0.051245
v -0.503052 0.142000 0.051245
v -0.503052 0.126000 -0.034695
v 0.503052 0.126000 -0.034695
v 0.503052 0.126000 0.034695
v -0.503052 0.126000 0.034695
v 0.507043 0.130000 0.034970
v -0.507043 0.130000 0.034970
v 0.507043 0.130000 -0.034970
v -0.507043 0.130000 -0.034970
v 0.507043 0.138000 0.034970
v -0.507043 0.138000 0.034970
v 0.507043 0.138000 -0.034970
v -0.507043 0.138000 -0.034970
v -0.503052 0.142000 0.034695
v 0.503052 0.142000 0.034695
v 0.503052 0.142000 -0.034695
v -0.503052 0.142000 -0.034695
v -0.503052 0.126000 -0.120634
v 0.503052 0.126000 -0.120634
v 0.503052 0.126000 -0.051245
v -0.503052 0.126000 -0.051245
v 0.507043 0.130000 -0.050970
v -0.507043 0.130000 -0.050970
v 0.507043 0.130000 -0.120910
v -0.507043 0.130000 -0.120910
v 0.507043 0.138000 -0.050970
v -0.507043 0.138000 -0.050970
v 0.507043 0.138000 -0.120910
v -0.507043 0.138000 -0.120910
v -0.503052 0.142000 -0.051245
v 0.503052 0.142000 -0.051245
v 0.503052 0.142000 -0.120634
v -0.503052 0.142000 -0.120634
v -0.503052 0.126000 -0.206574
v 0.503052 0.126000 -0.206574
v 0.503052 0.126000 -0.137185
v -0.503052 0.126000 -0.137185
v 0.507043 0.130000 -0.136910
v -0.507043 0.130000 -0.136910
v 0.507043 0.130000 -0.206849
v -0.507043 0.130000 -0.206849
v 0.507043 0.138000 -0.136910
v -0.507043 0.138000 -0.136910
v 0.507043 0.138000 -0.206849
v -0.507043 0.138000 -0.206849
v -0.503052 0.142000 -0.137185
v 0.503052 0.142000 -0.137185
v 0.503052 0.142000 -0.206574
v -0.503052 0.142000 -0.206574
vn -0.0000 -1.0000 -0.0000
vn -0.0000 -0.4131 0.9107
vn 0.7466 -0.6653 -0.0000
vn -0.0000 -0.4131 -0.9107
vn -0.7466 -0.6653 -0.0000
vn -0.0000 -0.0000 1.0000
vn 1.0000 -0.0000 -0.0000
vn -0.0000 -0.0000 -1.0000
vn -1.0000 -0.0000 -0.0000
vn -0.0000 1.0000 -0.0000
vn -0.0000 0.4131 0.9107
vn 0.7466 0.6653 -0.0000
vn -0.0000 0.4131 -0.9107
vn -0.7466 0.6653 -0.0000
vn 0.1144 0.9900 -0.0832
vn -0.1170 -0.9895 0.0851
vn 0.9188 -0.0954 0.3831
vn 0.3864 0.0114 0.9222
vn -0.3737 0.0992 0.9222
vn -0.9163 0.1166 0.3830
vn -0.9237 0.0533 -0.3795
vn -0.3913 -0.0535 -0.9187
vn 0.3688 -0.1413 -0.9187
vn 0.9115 -0.1587 -0.3795
vn 0.9190 -0.0939 0.3830
vn 0.3869 0.0154 0.9220
vn -0.3730 0.1053 0.9218
vn -0.9157 0.1231 0.3825
vn -0.9232 0.0584 -0.3799
vn -0.3911 -0.0509 -0.9189
vn 0.3689 -0.1408 -0.9188
vn 0.9115 -0.1586 -0.3795
vn 0.8791 -0.3077 -0.3641
vn 0.3641 -0.3077 -0.8791
vn -0.3641 -0.3077 -0.8791
vn -0.8791 -0.3077 -0.3641
vn -0.8791 -0.3077 0.3641
vn -0.3641 -0.3077 0.8791
vn 0.3641 -0.3077 0.8791
vn 0.8791 -0.3077 0.3641
vn 0.9196 0.0966 -0.3809
vn 0.3809 0.0966 -0.9196
vn -0.3809 0.0966 -0.9196
vn -0.9196 0.0966 -0.3809
vn -0.9196 0.0966 0.3809
vn -0.3809 0.0966 0.9196
vn 0.3809 0.0966 0.9196
vn 0.9196 0.0966 0.3809
vn 0.1144 0.9900 0.0832
vn -0.1170 -0.9895 -0.0851
vn 0.9115 -0.1587 0.3795
vn 0.3688 -0.1413 0.9187
vn -0.3913 -0.0535 0.9187
vn -0.9237 0.0533 0.3795
vn -0.9163 0.1166 -0.3830
vn -0.3737 0.0992 -0.9222
vn 0.3864 0.0114 -0.9222
vn 0.9188 -0.0954 -0.3831
vn 0.9115 -0.1586 0.3795
vn 0.3689 -0.1408 0.9188
vn -0.3911 -0.0509 0.9189
vn -0.9232 0.0584 0.3799
vn -0.9157 0.1231 -0.3825
vn -0.3730 0.1053 -0.9218
vn 0.3869 0.0154 -0.9220
vn 0.9190 -0.0939 -0.3830
vn -0.1144 0.9900 -0.0832
vn 0.1170 -0.9895 0.0851
vn 0.9163 0.1166 0.3830
vn 0.3737 0.0992 0.9222
vn -0.3864 0.0114 0.9222
vn -0.9188 -0.0954 0.3831
vn -0.9115 -0.1587 -0.3795
vn -0.3688 -0.1413 -0.9187
vn 0.3913 -0.0535 -0.9187
vn 0.9237 0.0533 -0.3795
vn 0.9157 0.1231 0.3825
vn 0.3730 0.1053 0.9218
vn -0.3869 0.0154 0.9220
vn -0.9190 -0.0939 0.3830
vn -0.9115 -0.1586 -0.3795
vn -0.3689 -0.1408 -0.9188
vn 0.3911 -0.0509 -0.9189
vn 0.9232 0.0584 -0.3799
vn -0.1144 0.9900 0.0832
vn 0.1170 -0.9895 -0.0851
vn 0.9237 0.0533 0.3795
vn 0.3913 -0.0535 0.9187
vn -0.3688 -0.1413 0.9187
vn -0.9115 -0.1587 0.3795
vn -0.9188 -0.0954 -0.3831
vn -0.3864 0.0114 -0.9222
vn 0.3737 0.0992 -0.9222
vn 0.9163 0.1166 -0.3830
vn 0.9232 0.0584 0.3799
vn 0.3911 -0.0509 0.9189
vn -0.3689 -0.1408 0.9188
vn -0.9115 -0.1586 0.3795
vn -0.9190 -0.0939 -0.3830
vn -0.3869 0.0154 -0.9220
vn 0.3730 0.1053 -0.9218
vn 0.9157 0.1231 -0.3825
vn 0.9239 -0.3827 -0.0000
vn 0.3827 -0.9239 -0.0000
vn -0.3827 -0.9239 -0.0000
vn -0.9239 -0.3827 -0.0000
vn -0.9239 0.3827 -0.0000
vn -0.3827 0.9239 -0.0000
vn 0.3827 0.9239 -0.0000
vn 0.9239 0.3827 -0.0000
vn -0.0000 -0.0686 0.9976
vn 0.7079 -0.7063 -0.0000
vn -0.0000 -0.0686 -0.9976
vn -0.7079 -0.7063 -0.0000
vn -0.0000 0.0686 0.9976
vn 0.7079 0.7063 -0.0000
vn -0.0000 0.0686 -0.9976
vn -0.7079 0.7063 -0.0000
vt 0.812500 0.937500
vt 0.687500 0.937500
vt 0.437500 0.312500
vt 0.187500 0.937500
s 0
usemtl FN_Atlas
f 1/1/1 2/1/1 3/1/1 4/1/1
f 4/1/2 3/1/2 5/1/2 6/1/2
f 3/1/3 2/1/3 7/1/3 5/1/3
f 2/1/4 1/1/4 8/1/4 7/1/4
f 1/1/5 4/1/5 6/1/5 8/1/5
f 6/1/6 5/1/6 9/1/6 10/1/6
f 5/1/7 7/1/7 11/1/7 9/1/7
f 7/1/8 8/1/8 12/1/8 11/1/8
f 8/1/9 6/1/9 10/1/9 12/1/9
f 13/2/10 14/2/10 15/2/10 16/2/10
f 10/1/11 9/1/11 14/1/11 13/1/11
f 9/1/12 11/1/12 15/1/12 14/1/12
f 11/1/13 12/1/13 16/1/13 15/1/13
f 12/1/14 10/1/14 13/1/14 16/1/14
f 17/2/15 18/2/15 19/2/15 20/2/15 21/2/15 22/2/15 23/2/15 24/2/15
f 25/2/16 26/2/16 27/2/16 28/2/16 29/2/16 30/2/16 31/2/16 32/2/16
f 24/2/17 23/2/17 33/2/17 34/2/17
f 23/2/18 22/2/18 35/2/18 33/2/18
f 22/2/19 21/2/19 36/2/19 35/2/19
f 21/2/20 20/2/20 37/2/20 36/2/20
f 20/2/21 19/2/21 38/2/21 37/2/21
f 19/2/22 18/2/22 39/2/22 38/2/22
f 18/2/23 17/2/23 40/2/23 39/2/23
f 17/2/24 24/2/24 34/2/24 40/2/24
f 34/2/25 33/2/25 26/2/25 25/2/25
f 33/2/26 35/2/26 27/2/26 26/2/26
f 35/2/27 36/2/27 28/2/27 27/2/27
f 36/2/28 37/2/28 29/2/28 28/2/28
f 37/2/29 38/2/29 30/2/29 29/2/29
f 38/2/30 39/2/30 31/2/30 30/2/30
f 39/2/31 40/2/31 32/2/31 31/2/31
f 40/2/32 34/2/32 25/2/32 32/2/32
f 41/3/1 42/3/1 43/3/1 44/3/1 45/3/1 46/3/1 47/3/1 48/3/1
f 49/3/10 50/3/10 51/3/10 52/3/10 53/3/10 54/3/10 55/3/10 56/3/10
f 48/3/33 47/3/33 57/3/33 58/3/33
f 47/3/34 46/3/34 59/3/34 57/3/34
f 46/3/35 45/3/35 60/3/35 59/3/35
f 45/3/36 44/3/36 61/3/36 60/3/36
f 44/3/37 43/3/37 62/3/37 61/3/37
f 43/3/38 42/3/38 63/3/38 62/3/38
f 42/3/39 41/3/39 64/3/39 63/3/39
f 41/3/40 48/3/40 58/3/40 64/3/40
f 58/3/41 57/3/41 50/3/41 49/3/41
f 57/3/42 59/3/42 51/3/42 50/3/42
f 59/3/43 60/3/43 52/3/43 51/3/43
f 60/3/44 61/3/44 53/3/44 52/3/44
f 61/3/45 62/3/45 54/3/45 53/3/45
f 62/3/46 63/3/46 55/3/46 54/3/46
f 63/3/47 64/3/47 56/3/47 55/3/47
f 64/3/48 58/3/48 49/3/48 56/3/48
f 65/2/49 66/2/49 67/2/49 68/2/49 69/2/49 70/2/49 71/2/49 72/2/49
f 73/2/50 74/2/50 75/2/50 76/2/50 77/2/50 78/2/50 79/2/50 80/2/50
f 72/2/51 71/2/51 81/2/51 82/2/51
f 71/2/52 70/2/52 83/2/52 81/2/52
f 70/2/53 69/2/53 84/2/53 83/2/53
f 69/2/54 68/2/54 85/2/54 84/2/54
f 68/2/55 67/2/55 86/2/55 85/2/55
f 67/2/56 66/2/56 87/2/56 86/2/56
f 66/2/57 65/2/57 88/2/57 87/2/57
f 65/2/58 72/2/58 82/2/58 88/2/58
f 82/2/59 81/2/59 74/2/59 73/2/59
f 81/2/60 83/2/60 75/2/60 74/2/60
f 83/2/61 84/2/61 76/2/61 75/2/61
f 84/2/62 85/2/62 77/2/62 76/2/62
f 85/2/63 86/2/63 78/2/63 77/2/63
f 86/2/64 87/2/64 79/2/64 78/2/64
f 87/2/65 88/2/65 80/2/65 79/2/65
f 88/2/66 82/2/66 73/2/66 80/2/66
f 89/3/1 90/3/1 91/3/1 92/3/1 93/3/1 94/3/1 95/3/1 96/3/1
f 97/3/10 98/3/10 99/3/10 100/3/10 101/3/10 102/3/10 103/3/10 104/3/10
f 96/3/33 95/3/33 105/3/33 106/3/33
f 95/3/34 94/3/34 107/3/34 105/3/34
f 94/3/35 93/3/35 108/3/35 107/3/35
f 93/3/36 92/3/36 109/3/36 108/3/36
f 92/3/37 91/3/37 110/3/37 109/3/37
f 91/3/38 90/3/38 111/3/38 110/3/38
f 90/3/39 89/3/39 112/3/39 111/3/39
f 89/3/40 96/3/40 106/3/40 112/3/40
f 106/3/41 105/3/41 98/3/41 97/3/41
f 105/3/42 107/3/42 99/3/42 98/3/42
f 107/3/43 108/3/43 100/3/43 99/3/43
f 108/3/44 109/3/44 101/3/44 100/3/44
f 109/3/45 110/3/45 102/3/45 101/3/45
f 110/3/46 111/3/46 103/3/46 102/3/46
f 111/3/47 112/3/47 104/3/47 103/3/47
f 112/3/48 106/3/48 97/3/48 104/3/48
f 113/2/67 114/2/67 115/2/67 116/2/67 117/2/67 118/2/67 119/2/67 120/2/67
f 121/2/68 122/2/68 123/2/68 124/2/68 125/2/68 126/2/68 127/2/68 128/2/68
f 120/2/69 119/2/69 129/2/69 130/2/69
f 119/2/70 118/2/70 131/2/70 129/2/70
f 118/2/71 117/2/71 132/2/71 131/2/71
f 117/2/72 116/2/72 133/2/72 132/2/72
f 116/2/73 115/2/73 134/2/73 133/2/73
f 115/2/74 114/2/74 135/2/74 134/2/74
f 114/2/75 113/2/75 136/2/75 135/2/75
f 113/2/76 120/2/76 130/2/76 136/2/76
f 130/2/77 129/2/77 122/2/77 121/2/77
f 129/2/78 131/2/78 123/2/78 122/2/78
f 131/2/79 132/2/79 124/2/79 123/2/79
f 132/2/80 133/2/80 125/2/80 124/2/80
f 133/2/81 134/2/81 126/2/81 125/2/81
f 134/2/82 135/2/82 127/2/82 126/2/82
f 135/2/83 136/2/83 128/2/83 127/2/83
f 136/2/84 130/2/84 121/2/84 128/2/84
f 137/3/1 138/3/1 139/3/1 140/3/1 141/3/1 142/3/1 143/3/1 144/3/1
f 145/3/10 146/3/10 147/3/10 148/3/10 149/3/10 150/3/10 151/3/10 152/3/10
f 144/3/33 143/3/33 153/3/33 154/3/33
f 143/3/34 142/3/34 155/3/34 153/3/34
f 142/3/35 141/3/35 156/3/35 155/3/35
f 141/3/36 140/3/36 157/3/36 156/3/36
f 140/3/37 139/3/37 158/3/37 157/3/37
f 139/3/38 138/3/38 159/3/38 158/3/38
f 138/3/39 137/3/39 160/3/39 159/3/39
f 137/3/40 144/3/40 154/3/40 160/3/40
f 154/3/41 153/3/41 146/3/41 145/3/41
f 153/3/42 155/3/42 147/3/42 146/3/42
f 155/3/43 156/3/43 148/3/43 147/3/43
f 156/3/44 157/3/44 149/3/44 148/3/44
f 157/3/45 158/3/45 150/3/45 149/3/45
f 158/3/46 159/3/46 151/3/46 150/3/46
f 159/3/47 160/3/47 152/3/47 151/3/47
f 160/3/48 154/3/48 145/3/48 152/3/48
f 161/2/85 162/2/85 163/2/85 164/2/85 165/2/85 166/2/85 167/2/85 168/2/85
f 169/2/86 170/2/86 171/2/86 172/2/86 173/2/86 174/2/86 175/2/86 176/2/86
f 168/2/87 167/2/87 177/2/87 178/2/87
f 167/2/88 166/2/88 179/2/88 177/2/88
f 166/2/89 165/2/89 180/2/89 179/2/89
f 165/2/90 164/2/90 181/2/90 180/2/90
f 164/2/91 163/2/91 182/2/91 181/2/91
f 163/2/92 162/2/92 183/2/92 182/2/92
f 162/2/93 161/2/93 184/2/93 183/2/93
f 161/2/94 168/2/94 178/2/94 184/2/94
f 178/2/95 177/2/95 170/2/95 169/2/95
f 177/2/96 179/2/96 171/2/96 170/2/96
f 179/2/97 180/2/97 172/2/97 171/2/97
f 180/2/98 181/2/98 173/2/98 172/2/98
f 181/2/99 182/2/99 174/2/99 173/2/99
f 182/2/100 183/2/100 175/2/100 174/2/100
f 183/2/101 184/2/101 176/2/101 175/2/101
f 184/2/102 178/2/102 169/2/102 176/2/102
f 185/3/1 186/3/1 187/3/1 188/3/1 189/3/1 190/3/1 191/3/1 192/3/1
f 193/3/10 194/3/10 195/3/10 196/3/10 197/3/10 198/3/10 199/3/10 200/3/10
f 192/3/33 191/3/33 201/3/33 202/3/33
f 191/3/34 190/3/34 203/3/34 201/3/34
f 190/3/35 189/3/35 204/3/35 203/3/35
f 189/3/36 188/3/36 205/3/36 204/3/36
f 188/3/37 187/3/37 206/3/37 205/3/37
f 187/3/38 186/3/38 207/3/38 206/3/38
f 186/3/39 185/3/39 208/3/39 207/3/39
f 185/3/40 192/3/40 202/3/40 208/3/40
f 202/3/41 201/3/41 194/3/41 193/3/41
f 201/3/42 203/3/42 195/3/42 194/3/42
f 203/3/43 204/3/43 196/3/43 195/3/43
f 204/3/44 205/3/44 197/3/44 196/3/44
f 205/3/45 206/3/45 198/3/45 197/3/45
f 206/3/46 207/3/46 199/3/46 198/3/46
f 207/3/47 208/3/47 200/3/47 199/3/47
f 208/3/48 202/3/48 193/3/48 200/3/48
f 209/2/6 210/2/6 211/2/6 212/2/6 213/2/6 214/2/6 215/2/6 216/2/6
f 217/2/8 218/2/8 219/2/8 220/2/8 221/2/8 222/2/8 223/2/8 224/2/8
f 216/2/103 215/2/103 218/2/103 217/2/103
f 215/2/104 214/2/104 219/2/104 218/2/104
f 214/2/105 213/2/105 220/2/105 219/2/105
f 213/2/106 212/2/106 221/2/106 220/2/106
f 212/2/107 211/2/107 222/2/107 221/2/107
f 211/2/108 210/2/108 223/2/108 222/2/108
f 210/2/109 209/2/109 224/2/109 223/2/109
f 209/2/110 216/2/110 217/2/110 224/2/110
f 225/2/6 226/2/6 227/2/6 228/2/6 229/2/6 230/2/6 231/2/6 232/2/6
f 233/2/8 234/2/8 235/2/8 236/2/8 237/2/8 238/2/8 239/2/8 240/2/8
f 232/2/103 231/2/103 234/2/103 233/2/103
f 231/2/104 230/2/104 235/2/104 234/2/104
f 230/2/105 229/2/105 236/2/105 235/2/105
f 229/2/106 228/2/106 237/2/106 236/2/106
f 228/2/107 227/2/107 238/2/107 237/2/107
f 227/2/108 226/2/108 239/2/108 238/2/108
f 226/2/109 225/2/109 240/2/109 239/2/109
f 225/2/110 232/2/110 233/2/110 240/2/110
f 241/1/1 242/1/1 243/1/1 244/1/1
f 244/1/111 243/1/111 245/1/111 246/1/111
f 243/1/112 242/1/112 247/1/112 245/1/112
f 242/1/113 241/1/113 248/1/113 247/1/113
f 241/1/114 244/1/114 246/1/114 248/1/114
f 246/1/6 245/1/6 249/1/6 250/1/6
f 245/1/7 247/1/7 251/1/7 249/1/7
f 247/1/8 248/1/8 252/1/8 251/1/8
f 248/1/9 246/1/9 250/1/9 252/1/9
f 253/4/10 254/4/10 255/4/10 256/4/10
f 250/1/115 249/1/115 254/1/115 253/1/115
f 249/1/116 251/1/116 255/1/116 254/1/116
f 251/1/117 252/1/117 256/1/117 255/1/117
f 252/1/118 250/1/118 253/1/118 256/1/118
f 257/1/1 258/1/1 259/1/1 260/1/1
f 260/1/111 259/1/111 261/1/111 262/1/111
f 259/1/112 258/1/112 263/1/112 261/1/112
f 258/1/113 257/1/113 264/1/113 263/1/113
f 257/1/114 260/1/114 262/1/114 264/1/114
f 262/1/6 261/1/6 265/1/6 266/1/6
f 261/1/7 263/1/7 267/1/7 265/1/7
f 263/1/8 264/1/8 268/1/8 267/1/8
f 264/1/9 262/1/9 266/1/9 268/1/9
f 269/4/10 270/4/10 271/4/10 272/4/10
f 266/1/115 265/1/115 270/1/115 269/1/115
f 265/1/116 267/1/116 271/1/116 270/1/116
f 267/1/117 268/1/117 272/1/117 271/1/117
f 268/1/118 266/1/118 269/1/118 272/1/118
f 273/1/1 274/1/1 275/1/1 276/1/1
f 276/1/111 275/1/111 277/1/111 278/1/111
f 275/1/112 274/1/112 279/1/112 277/1/112
f 274/1/113 273/1/113 280/1/113 279/1/113
f 273/1/114 276/1/114 278/1/114 280/1/114
f 278/1/6 277/1/6 281/1/6 282/1/6
f 277/1/7 279/1/7 283/1/7 281/1/7
f 279/1/8 280/1/8 284/1/8 283/1/8
f 280/1/9 278/1/9 282/1/9 284/1/9
f 285/4/10 286/4/10 287/4/10 288/4/10
f 282/1/115 281/1/115 286/1/115 285/1/115
f 281/1/116 283/1/116 287/1/116 286/1/116
f 283/1/117 284/1/117 288/1/117 287/1/117
f 284/1/118 282/1/118 285/1/118 288/1/118
f 289/1/1 290/1/1 291/1/1 292/1/1
f 292/1/111 291/1/111 293/1/111 294/1/111
f 291/1/112 290/1/112 295/1/112 293/1/112
f 290/1/113 289/1/113 296/1/113 295/1/113
f 289/1/114 292/1/114 294/1/114 296/1/114
f 294/1/6 293/1/6 297/1/6 298/1/6
f 293/1/7 295/1/7 299/1/7 297/1/7
f 295/1/8 296/1/8 300/1/8 299/1/8
f 296/1/9 294/1/9 298/1/9 300/1/9
f 301/4/10 302/4/10 303/4/10 304/4/10
f 298/1/115 297/1/115 302/1/115 301/1/115
f 297/1/116 299/1/116 303/1/116 302/1/116
f 299/1/117 300/1/117 304/1/117 303/1/117
f 300/1/118 298/1/118 301/1/118 304/1/118
f 305/1/1 306/1/1 307/1/1 308/1/1
f 308/1/111 307/1/111 309/1/111 310/1/111
f 307/1/112 306/1/112 311/1/112 309/1/112
f 306/1/113 305/1/113 312/1/113 311/1/113
f 305/1/114 308/1/114 310/1/114 312/1/114
f 310/1/6 309/1/6 313/1/6 314/1/6
f 309/1/7 311/1/7 315/1/7 313/1/7
f 311/1/8 312/1/8 316/1/8 315/1/8
f 312/1/9 310/1/9 314/1/9 316/1/9
f 317/4/10 318/4/10 319/4/10 320/4/10
f 314/1/115 313/1/115 318/1/115 317/1/115
f 313/1/116 315/1/116 319/1/116 318/1/116
f 315/1/117 316/1/117 320/1/117 319/1/117
f 316/1/118 314/1/118 317/1/118 320/1/118
