# Blender 5.2.0 LTS
# www.blender.org
mtllib FN_Table_Round_Dining.mtl
o FN_Table_Round_Dining
v 0.068517 0.308890 -0.028517
v 0.053384 0.318372 -0.053384
v 0.028517 0.308890 -0.068517
v 0.008485 0.286000 -0.065054
v 0.005022 0.263110 -0.045022
v 0.020156 0.253628 -0.020156
v 0.045022 0.263110 -0.005022
v 0.065054 0.286000 -0.008485
v 0.329512 0.038000 -0.295571
v 0.320209 0.022174 -0.296209
v 0.306415 0.015618 -0.306415
v 0.296209 0.022174 -0.320209
v 0.295571 0.038000 -0.329512
v 0.304873 0.053826 -0.328873
v 0.318667 0.060382 -0.318667
v 0.328873 0.053826 -0.304873
v 0.131367 0.176407 -0.096701
v 0.148964 0.196000 -0.099938
v 0.109719 0.168292 -0.109719
v 0.096701 0.176407 -0.131367
v 0.099938 0.196000 -0.148964
v 0.117534 0.215593 -0.152201
v 0.139182 0.223708 -0.139182
v 0.152201 0.215593 -0.117534
v 0.232037 0.068167 -0.202703
v 0.245602 0.086000 -0.204118
v 0.214267 0.060780 -0.214267
v 0.202703 0.068167 -0.232037
v 0.204118 0.086000 -0.245602
v 0.217683 0.103833 -0.247017
v 0.235453 0.111220 -0.235453
v 0.247017 0.103833 -0.217683
v -0.028517 0.308890 -0.068517
v -0.053384 0.318372 -0.053384
v -0.068517 0.308890 -0.028517
v -0.065054 0.286000 -0.008485
v -0.045022 0.263110 -0.005022
v -0.020156 0.253628 -0.020156
v -0.005022 0.263110 -0.045022
v -0.008485 0.286000 -0.065054
v -0.295571 0.038000 -0.329512
v -0.296209 0.022174 -0.320209
v -0.306415 0.015618 -0.306415
v -0.320209 0.022174 -0.296209
v -0.329512 0.038000 -0.295571
v -0.328873 0.053826 -0.304873
v -0.318667 0.060382 -0.318667
v -0.304873 0.053826 -0.328873
v -0.096701 0.176407 -0.131367
v -0.099938 0.196000 -0.148964
v -0.109719 0.168292 -0.109719
v -0.131367 0.176407 -0.096701
v -0.148964 0.196000 -0.099938
v -0.152201 0.215593 -0.117534
v -0.139182 0.223708 -0.139182
v -0.117534 0.215593 -0.152201
v -0.202703 0.068167 -0.232037
v -0.204118 0.086000 -0.245602
v -0.214267 0.060780 -0.214267
v -0.232037 0.068167 -0.202703
v -0.245602 0.086000 -0.204118
v -0.247017 0.103833 -0.217683
v -0.235453 0.111220 -0.235453
v -0.217683 0.103833 -0.247017
v -0.068517 0.308890 0.028517
v -0.053384 0.318372 0.053384
v -0.028517 0.308890 0.068517
v -0.008485 0.286000 0.065054
v -0.005022 0.263110 0.045022
v -0.020156 0.253628 0.020156
v -0.045022 0.263110 0.005022
v -0.065054 0.286000 0.008485
v -0.329512 0.038000 0.295571
v -0.320209 0.022174 0.296209
v -0.306415 0.015618 0.306415
v -0.296209 0.022174 0.320209
v -0.295571 0.038000 0.329512
v -0.304873 0.053826 0.328873
v -0.318667 0.060382 0.318667
v -0.328873 0.053826 0.304873
v -0.131367 0.176407 0.096701
v -0.148964 0.196000 0.099938
v -0.109719 0.168292 0.109719
v -0.096701 0.176407 0.131367
v -0.099938 0.196000 0.148964
v -0.117534 0.215593 0.152201
v -0.139182 0.223708 0.139182
v -0.152201 0.215593 0.117534
v -0.232037 0.068167 0.202703
v -0.245602 0.086000 0.204118
v -0.214267 0.060780 0.214267
v -0.202703 0.068167 0.232037
v -0.204118 0.086000 0.245602
v -0.217683 0.103833 0.247017
v -0.235453 0.111220 0.235453
v -0.247017 0.103833 0.217683
v 0.028517 0.308890 0.068517
v 0.053384 0.318372 0.053384
v 0.068517 0.308890 0.028517
v 0.065054 0.286000 0.008485
v 0.045022 0.263110 0.005022
v 0.020156 0.253628 0.020156
v 0.005022 0.263110 0.045022
v 0.008485 0.286000 0.065054
v 0.295571 0.038000 0.329512
v 0.296209 0.022174 0.320209
v 0.306415 0.015618 0.306415
v 0.320209 0.022174 0.296209
v 0.329512 0.038000 0.295571
v 0.328873 0.053826 0.304873
v 0.318667 0.060382 0.318667
v 0.304873 0.053826 0.328873
v 0.096701 0.176407 0.131367
v 0.099938 0.196000 0.148964
v 0.109719 0.168292 0.109719
v 0.131367 0.176407 0.096701
v 0.148964 0.196000 0.099938
v 0.152201 0.215593 0.117534
v 0.139182 0.223708 0.139182
v 0.117534 0.215593 0.152201
v 0.202703 0.068167 0.232037
v 0.204118 0.086000 0.245602
v 0.214267 0.060780 0.214267
v 0.232037 0.068167 0.202703
v 0.245602 0.086000 0.204118
v 0.247017 0.103833 0.217683
v 0.235453 0.111220 0.235453
v 0.217683 0.103833 0.247017
v 0.336583 0.000000 -0.288500
v 0.312541 0.000000 -0.278541
v 0.288500 0.000000 -0.288500
v 0.278541 0.000000 -0.312541
v 0.288500 0.000000 -0.336583
v 0.312541 0.000000 -0.346541
v 0.336583 0.000000 -0.336583
v 0.346541 0.000000 -0.312541
v 0.342541 0.024000 -0.312541
v 0.333754 0.024000 -0.333754
v 0.312541 0.024000 -0.342541
v 0.291328 0.024000 -0.333754
v 0.282541 0.024000 -0.312541
v 0.291328 0.024000 -0.291328
v 0.312541 0.024000 -0.282541
v 0.333754 0.024000 -0.291328
v 0.337997 0.012000 -0.337997
v 0.348541 0.012000 -0.312541
v 0.312541 0.012000 -0.348541
v 0.287085 0.012000 -0.337997
v 0.276541 0.012000 -0.312541
v 0.287085 0.012000 -0.287085
v 0.312541 0.012000 -0.276541
v 0.337997 0.012000 -0.287085
v -0.288500 0.000000 -0.288500
v -0.312541 0.000000 -0.278541
v -0.336583 0.000000 -0.288500
v -0.346541 0.000000 -0.312541
v -0.336583 0.000000 -0.336583
v -0.312541 0.000000 -0.346541
v -0.288500 0.000000 -0.336583
v -0.278541 0.000000 -0.312541
v -0.282541 0.024000 -0.312541
v -0.291328 0.024000 -0.333754
v -0.312541 0.024000 -0.342541
v -0.333754 0.024000 -0.333754
v -0.342541 0.024000 -0.312541
v -0.333754 0.024000 -0.291328
v -0.312541 0.024000 -0.282541
v -0.291328 0.024000 -0.291328
v -0.287085 0.012000 -0.337997
v -0.276541 0.012000 -0.312541
v -0.312541 0.012000 -0.348541
v -0.337997 0.012000 -0.337997
v -0.348541 0.012000 -0.312541
v -0.337997 0.012000 -0.287085
v -0.312541 0.012000 -0.276541
v -0.287085 0.012000 -0.287085
v -0.288500 0.000000 0.336583
v -0.312541 0.000000 0.346541
v -0.336583 0.000000 0.336583
v -0.346541 0.000000 0.312541
v -0.336583 0.000000 0.288500
v -0.312541 0.000000 0.278541
v -0.288500 0.000000 0.288500
v -0.278541 0.000000 0.312541
v -0.282541 0.024000 0.312541
v -0.291328 0.024000 0.291328
v -0.312541 0.024000 0.282541
v -0.333754 0.024000 0.291328
v -0.342541 0.024000 0.312541
v -0.333754 0.024000 0.333754
v -0.312541 0.024000 0.342541
v -0.291328 0.024000 0.333754
v -0.287085 0.012000 0.287085
v -0.276541 0.012000 0.312541
v -0.312541 0.012000 0.276541
v -0.337997 0.012000 0.287085
v -0.348541 0.012000 0.312541
v -0.337997 0.012000 0.337997
v -0.312541 0.012000 0.348541
v -0.287085 0.012000 0.337997
v 0.336583 0.000000 0.336583
v 0.312541 0.000000 0.346541
v 0.288500 0.000000 0.336583
v 0.278541 0.000000 0.312541
v 0.288500 0.000000 0.288500
v 0.312541 0.000000 0.278541
v 0.336583 0.000000 0.288500
v 0.346541 0.000000 0.312541
v 0.342541 0.024000 0.312541
v 0.333754 0.024000 0.291328
v 0.312541 0.024000 0.282541
v 0.291328 0.024000 0.291328
v 0.282541 0.024000 0.312541
v 0.291328 0.024000 0.333754
v 0.312541 0.024000 0.342541
v 0.333754 0.024000 0.333754
v 0.337997 0.012000 0.287085
v 0.348541 0.012000 0.312541
v 0.312541 0.012000 0.276541
v 0.287085 0.012000 0.287085
v 0.276541 0.012000 0.312541
v 0.287085 0.012000 0.337997
v 0.312541 0.012000 0.348541
v 0.337997 0.012000 0.337997
v 0.079285 0.240000 0.038182
v 0.054867 0.240000 0.068801
v 0.019582 0.240000 0.085794
v -0.019582 0.240000 0.085794
v -0.054867 0.240000 0.068801
v -0.079285 0.240000 0.038182
v -0.088000 0.240000 -0.000000
v -0.079285 0.240000 -0.038182
v -0.054867 0.240000 -0.068801
v -0.019582 0.240000 -0.085794
v 0.019582 0.240000 -0.085794
v 0.054867 0.240000 -0.068801
v 0.079285 0.240000 -0.038182
v 0.088000 0.240000 0.000000
v 0.066000 0.704000 0.000000
v 0.059464 0.704000 -0.028636
v 0.041150 0.704000 -0.051601
v 0.014686 0.704000 -0.064345
v -0.014686 0.704000 -0.064345
v -0.041150 0.704000 -0.051601
v -0.059464 0.704000 -0.028636
v -0.066000 0.704000 -0.000000
v -0.059464 0.704000 0.028636
v -0.041150 0.704000 0.051601
v -0.014686 0.704000 0.064345
v 0.014686 0.704000 0.064345
v 0.041150 0.704000 0.051601
v 0.059464 0.704000 0.028636
v 0.068474 0.286000 -0.032975
v 0.076000 0.286000 0.000000
v 0.047385 0.286000 -0.059419
v 0.016912 0.286000 -0.074095
v -0.016912 0.286000 -0.074095
v -0.047385 0.286000 -0.059419
v -0.068474 0.286000 -0.032975
v -0.076000 0.286000 -0.000000
v -0.068474 0.286000 0.032975
v -0.047385 0.286000 0.059419
v -0.016912 0.286000 0.074095
v 0.016912 0.286000 0.074095
v 0.047385 0.286000 0.059419
v 0.068474 0.286000 0.032975
v 0.055860 0.320000 -0.026901
v 0.062000 0.320000 0.000000
v 0.038656 0.320000 -0.048474
v 0.013796 0.320000 -0.060446
v -0.013796 0.320000 -0.060446
v -0.038656 0.320000 -0.048474
v -0.055860 0.320000 -0.026901
v -0.062000 0.320000 -0.000000
v -0.055860 0.320000 0.026901
v -0.038656 0.320000 0.048474
v -0.013796 0.320000 0.060446
v 0.013796 0.320000 0.060446
v 0.038656 0.320000 0.048474
v 0.055860 0.320000 0.026901
v 0.052256 0.612000 -0.025165
v 0.058000 0.612000 0.000000
v 0.036162 0.612000 -0.045346
v 0.012906 0.612000 -0.056546
v -0.012906 0.612000 -0.056546
v -0.036162 0.612000 -0.045346
v -0.052256 0.612000 -0.025165
v -0.058000 0.612000 -0.000000
v -0.052256 0.612000 0.025165
v -0.036162 0.612000 0.045346
v -0.012906 0.612000 0.056546
v 0.012906 0.612000 0.056546
v 0.036162 0.612000 0.045346
v 0.052256 0.612000 0.025165
v 0.068474 0.640000 -0.032975
v 0.076000 0.640000 0.000000
v 0.047385 0.640000 -0.059419
v 0.016912 0.640000 -0.074095
v -0.016912 0.640000 -0.074095
v -0.047385 0.640000 -0.059419
v -0.068474 0.640000 -0.032975
v -0.076000 0.640000 -0.000000
v -0.068474 0.640000 0.032975
v -0.047385 0.640000 0.059419
v -0.016912 0.640000 0.074095
v 0.016912 0.640000 0.074095
v 0.047385 0.640000 0.059419
v 0.068474 0.640000 0.032975
v 0.068474 0.664000 -0.032975
v 0.076000 0.664000 0.000000
v 0.047385 0.664000 -0.059419
v 0.016912 0.664000 -0.074095
v -0.016912 0.664000 -0.074095
v -0.047385 0.664000 -0.059419
v -0.068474 0.664000 -0.032975
v -0.076000 0.664000 -0.000000
v -0.068474 0.664000 0.032975
v -0.047385 0.664000 0.059419
v -0.016912 0.664000 0.074095
v 0.016912 0.664000 0.074095
v 0.047385 0.664000 0.059419
v 0.068474 0.664000 0.032975
v 0.164877 0.674000 0.079401
v 0.114099 0.674000 0.143075
v 0.040721 0.674000 0.178412
v -0.040721 0.674000 0.178412
v -0.114099 0.674000 0.143075
v -0.164877 0.674000 0.079401
v -0.183000 0.674000 -0.000000
v -0.164877 0.674000 -0.079401
v -0.114099 0.674000 -0.143075
v -0.040721 0.674000 -0.178412
v 0.040721 0.674000 -0.178412
v 0.114099 0.674000 -0.143075
v 0.164877 0.674000 -0.079401
v 0.183000 0.674000 0.000000
v 0.169382 0.679000 -0.081570
v 0.188000 0.679000 0.000000
v 0.117216 0.679000 -0.146984
v 0.041834 0.679000 -0.183286
v -0.041834 0.679000 -0.183286
v -0.117216 0.679000 -0.146984
v -0.169382 0.679000 -0.081570
v -0.188000 0.679000 -0.000000
v -0.169382 0.679000 0.081570
v -0.117216 0.679000 0.146984
v -0.041834 0.679000 0.183286
v 0.041834 0.679000 0.183286
v 0.117216 0.679000 0.146984
v 0.169382 0.679000 0.081570
v 0.169382 0.699000 -0.081570
v 0.188000 0.699000 0.000000
v 0.117216 0.699000 -0.146984
v 0.041834 0.699000 -0.183286
v -0.041834 0.699000 -0.183286
v -0.117216 0.699000 -0.146984
v -0.169382 0.699000 -0.081570
v -0.188000 0.699000 -0.000000
v -0.169382 0.699000 0.081570
v -0.117216 0.699000 0.146984
v -0.041834 0.699000 0.183286
v 0.041834 0.699000 0.183286
v 0.117216 0.699000 0.146984
v 0.169382 0.699000 0.081570
v 0.183000 0.704000 0.000000
v 0.164877 0.704000 -0.079401
v 0.114099 0.704000 -0.143075
v 0.040721 0.704000 -0.178412
v -0.040721 0.704000 -0.178412
v -0.114099 0.704000 -0.143075
v -0.164877 0.704000 -0.079401
v -0.183000 0.704000 -0.000000
v -0.164877 0.704000 0.079401
v -0.114099 0.704000 0.143075
v -0.040721 0.704000 0.178412
v 0.040721 0.704000 0.178412
v 0.114099 0.704000 0.143075
v 0.164877 0.704000 0.079401
v 0.571828 0.700000 0.153221
v 0.512687 0.700000 0.296000
v 0.418607 0.700000 0.418607
v 0.296000 0.700000 0.512687
v 0.153221 0.700000 0.571828
v -0.000000 0.700000 0.592000
v -0.153221 0.700000 0.571828
v -0.296000 0.700000 0.512687
v -0.418607 0.700000 0.418607
v -0.512687 0.700000 0.296000
v -0.571828 0.700000 0.153221
v -0.592000 0.700000 -0.000000
v -0.571828 0.700000 -0.153221
v -0.512687 0.700000 -0.296000
v -0.418607 0.700000 -0.418607
v -0.296000 0.700000 -0.512687
v -0.153221 0.700000 -0.571828
v 0.000000 0.700000 -0.592000
v 0.153221 0.700000 -0.571828
v 0.296000 0.700000 -0.512687
v 0.418607 0.700000 -0.418607
v 0.512687 0.700000 -0.296000
v 0.571828 0.700000 -0.153221
v 0.592000 0.700000 0.000000
v 0.579556 0.708000 -0.155291
v 0.600000 0.708000 0.000000
v 0.519615 0.708000 -0.300000
v 0.424264 0.708000 -0.424264
v 0.300000 0.708000 -0.519615
v 0.155291 0.708000 -0.579556
v 0.000000 0.708000 -0.600000
v -0.155291 0.708000 -0.579556
v -0.300000 0.708000 -0.519615
v -0.424264 0.708000 -0.424264
v -0.519615 0.708000 -0.300000
v -0.579556 0.708000 -0.155291
v -0.600000 0.708000 -0.000000
v -0.579556 0.708000 0.155291
v -0.519615 0.708000 0.300000
v -0.424264 0.708000 0.424264
v -0.300000 0.708000 0.519615
v -0.155291 0.708000 0.579556
v -0.000000 0.708000 0.600000
v 0.155291 0.708000 0.579556
v 0.300000 0.708000 0.519615
v 0.424264 0.708000 0.424264
v 0.519615 0.708000 0.300000
v 0.579556 0.708000 0.155291
v 0.579556 0.732000 -0.155291
v 0.600000 0.732000 0.000000
v 0.519615 0.732000 -0.300000
v 0.424264 0.732000 -0.424264
v 0.300000 0.732000 -0.519615
v 0.155291 0.732000 -0.579556
v 0.000000 0.732000 -0.600000
v -0.155291 0.732000 -0.579556
v -0.300000 0.732000 -0.519615
v -0.424264 0.732000 -0.424264
v -0.519615 0.732000 -0.300000
v -0.579556 0.732000 -0.155291
v -0.600000 0.732000 -0.000000
v -0.579556 0.732000 0.155291
v -0.519615 0.732000 0.300000
v -0.424264 0.732000 0.424264
v -0.300000 0.732000 0.519615
v -0.155291 0.732000 0.579556
v -0.000000 0.732000 0.600000
v 0.155291 0.732000 0.579556
v 0.300000 0.732000 0.519615
v 0.424264 0.732000 0.424264
v 0.519615 0.732000 0.300000
v 0.579556 0.732000 0.155291
v 0.592000 0.740000 0.000000
v 0.571828 0.740000 -0.153221
v 0.512687 0.740000 -0.296000
v 0.418607 0.740000 -0.418607
v 0.296000 0.740000 -0.512687
v 0.153221 0.740000 -0.571828
v 0.000000 0.740000 -0.592000
v -0.153221 0.740000 -0.571828
v -0.296000 0.740000 -0.512687
v -0.418607 0.740000 -0.418607
v -0.512687 0.740000 -0.296000
v -0.571828 0.740000 -0.153221
v -0.592000 0.740000 -0.000000
v -0.571828 0.740000 0.153221
v -0.512687 0.740000 0.296000
v -0.418607 0.740000 0.418607
v -0.296000 0.740000 0.512687
v -0.153221 0.740000 0.571828
v -0.000000 0.740000 0.592000
v 0.153221 0.740000 0.571828
v 0.296000 0.740000 0.512687
v 0.418607 0.740000 0.418607
v 0.512687 0.740000 0.296000
v 0.571828 0.740000 0.153221
vn -0.5723 0.5874 0.5723
vn 0.6594 -0.3610 -0.6594
vn 0.5123 -0.3286 0.7934
vn -0.0947 -0.7663 0.6355
vn -0.6355 -0.7663 0.0947
vn -0.7934 -0.3286 -0.5123
vn -0.4758 0.2905 -0.8302
vn 0.1314 0.7285 -0.6724
vn 0.6724 0.7285 -0.1314
vn 0.8302 0.2905 0.4758
vn 0.5030 -0.3189 0.8033
vn -0.1142 -0.7474 0.6545
vn -0.6545 -0.7474 0.1142
vn -0.8033 -0.3189 -0.5030
vn -0.4699 0.2875 -0.8346
vn 0.1471 0.7130 -0.6855
vn 0.6855 0.7130 -0.1471
vn 0.8346 0.2875 0.4699
vn 0.5761 -0.3747 0.7264
vn 0.0540 -0.8746 0.4818
vn -0.4819 -0.8746 -0.0540
vn -0.7264 -0.3747 -0.5761
vn -0.5310 0.3429 -0.7749
vn -0.0101 0.8486 -0.5289
vn 0.5289 0.8486 0.0101
vn 0.7749 0.3429 0.5310
vn 0.5723 0.5874 0.5723
vn -0.6594 -0.3610 -0.6594
vn 0.7934 -0.3286 -0.5123
vn 0.6355 -0.7663 0.0947
vn 0.0947 -0.7663 0.6355
vn -0.5123 -0.3286 0.7934
vn -0.8302 0.2905 0.4758
vn -0.6724 0.7285 -0.1314
vn -0.1314 0.7285 -0.6724
vn 0.4758 0.2905 -0.8302
vn 0.8033 -0.3189 -0.5030
vn 0.6545 -0.7474 0.1142
vn 0.1142 -0.7474 0.6545
vn -0.5030 -0.3189 0.8033
vn -0.8346 0.2875 0.4699
vn -0.6855 0.7130 -0.1471
vn -0.1471 0.7130 -0.6855
vn 0.4699 0.2875 -0.8346
vn 0.7264 -0.3747 -0.5761
vn 0.4819 -0.8746 -0.0540
vn -0.0540 -0.8746 0.4818
vn -0.5761 -0.3747 0.7264
vn -0.7749 0.3429 0.5310
vn -0.5289 0.8486 0.0101
vn 0.0101 0.8486 -0.5289
vn 0.5310 0.3429 -0.7749
vn 0.5723 0.5874 -0.5723
vn -0.6594 -0.3610 0.6594
vn -0.5123 -0.3286 -0.7934
vn 0.0947 -0.7663 -0.6355
vn 0.6355 -0.7663 -0.0947
vn 0.7934 -0.3286 0.5123
vn 0.4758 0.2905 0.8302
vn -0.1314 0.7285 0.6724
vn -0.6724 0.7285 0.1314
vn -0.8302 0.2905 -0.4758
vn -0.5030 -0.3189 -0.8033
vn 0.1142 -0.7474 -0.6545
vn 0.6545 -0.7474 -0.1142
vn 0.8033 -0.3189 0.5030
vn 0.4699 0.2875 0.8346
vn -0.1471 0.7130 0.6855
vn -0.6855 0.7130 0.1471
vn -0.8346 0.2875 -0.4699
vn -0.5761 -0.3747 -0.7264
vn -0.0540 -0.8746 -0.4818
vn 0.4819 -0.8746 0.0540
vn 0.7264 -0.3747 0.5761
vn 0.5310 0.3429 0.7749
vn 0.0101 0.8486 0.5289
vn -0.5289 0.8486 -0.0101
vn -0.7749 0.3429 -0.5310
vn -0.5723 0.5874 -0.5723
vn 0.6594 -0.3610 0.6594
vn -0.7934 -0.3286 0.5123
vn -0.6355 -0.7663 -0.0947
vn -0.0947 -0.7663 -0.6355
vn 0.5123 -0.3286 -0.7934
vn 0.8302 0.2905 -0.4758
vn 0.6724 0.7285 0.1314
vn 0.1314 0.7285 0.6724
vn -0.4758 0.2905 0.8302
vn -0.8033 -0.3189 0.5030
vn -0.6545 -0.7474 -0.1142
vn -0.1142 -0.7474 -0.6545
vn 0.5030 -0.3189 -0.8033
vn 0.8346 0.2875 -0.4699
vn 0.6855 0.7130 0.1471
vn 0.1471 0.7130 0.6855
vn -0.4699 0.2875 0.8346
vn -0.7264 -0.3747 0.5761
vn -0.4819 -0.8746 0.0540
vn 0.0540 -0.8746 -0.4818
vn 0.5761 -0.3747 -0.7264
vn 0.7749 0.3429 -0.5310
vn 0.5289 0.8486 -0.0101
vn -0.0101 0.8486 0.5289
vn -0.5310 0.3429 0.7749
vn -0.0000 -1.0000 -0.0000
vn -0.0000 1.0000 -0.0000
vn 0.9131 -0.1522 -0.3782
vn 0.3782 -0.1522 -0.9131
vn -0.3782 -0.1522 -0.9131
vn -0.9131 -0.1522 -0.3782
vn -0.9131 -0.1522 0.3782
vn -0.3782 -0.1522 0.9131
vn 0.3782 -0.1522 0.9131
vn 0.9131 -0.1522 0.3782
vn 0.8387 0.4194 -0.3474
vn 0.3474 0.4194 -0.8387
vn -0.3474 0.4194 -0.8387
vn -0.8387 0.4194 -0.3474
vn -0.8387 0.4194 0.3474
vn -0.3474 0.4194 0.8387
vn 0.3474 0.4194 0.8387
vn 0.8387 0.4194 0.3474
vn 0.9448 0.2465 -0.2157
vn 0.7577 0.2465 -0.6043
vn 0.4205 0.2465 -0.8732
vn -0.0000 0.2465 -0.9691
vn -0.4205 0.2465 -0.8732
vn -0.7577 0.2465 -0.6043
vn -0.9448 0.2465 -0.2157
vn -0.9448 0.2465 0.2157
vn -0.7577 0.2465 0.6043
vn -0.4205 0.2465 0.8732
vn -0.0000 0.2465 0.9691
vn 0.4205 0.2465 0.8732
vn 0.7577 0.2465 0.6043
vn 0.9448 0.2465 0.2157
vn 0.9047 0.3725 -0.2065
vn 0.7256 0.3725 -0.5786
vn 0.4027 0.3725 -0.8361
vn -0.0000 0.3725 -0.9280
vn -0.4027 0.3725 -0.8361
vn -0.7256 0.3725 -0.5786
vn -0.9047 0.3725 -0.2065
vn -0.9047 0.3725 0.2065
vn -0.7256 0.3725 0.5786
vn -0.4027 0.3725 0.8361
vn -0.0000 0.3725 0.9280
vn 0.4027 0.3725 0.8361
vn 0.7256 0.3725 0.5786
vn 0.9047 0.3725 0.2065
vn 0.9748 0.0134 -0.2225
vn 0.7818 0.0134 -0.6234
vn 0.4338 0.0134 -0.9009
vn -0.0000 0.0134 -0.9999
vn -0.4338 0.0134 -0.9009
vn -0.7818 0.0134 -0.6234
vn -0.9748 0.0134 -0.2225
vn -0.9748 0.0134 0.2225
vn -0.7818 0.0134 0.6234
vn -0.4338 0.0134 0.9009
vn -0.0000 0.0134 0.9999
vn 0.4338 0.0134 0.9009
vn 0.7818 0.0134 0.6234
vn 0.9748 0.0134 0.2225
vn 0.8261 -0.5311 -0.1885
vn 0.6625 -0.5311 -0.5283
vn 0.3676 -0.5311 -0.7634
vn -0.0000 -0.5311 -0.8473
vn -0.3676 -0.5311 -0.7634
vn -0.6625 -0.5311 -0.5283
vn -0.8261 -0.5311 -0.1885
vn -0.8261 -0.5311 0.1885
vn -0.6625 -0.5311 0.5283
vn -0.3676 -0.5311 0.7634
vn -0.0000 -0.5311 0.8473
vn 0.3676 -0.5311 0.7634
vn 0.6625 -0.5311 0.5283
vn 0.8261 -0.5311 0.1885
vn 0.9749 -0.0000 -0.2225
vn 0.7818 -0.0000 -0.6235
vn 0.4339 -0.0000 -0.9010
vn -0.0000 -0.0000 -1.0000
vn -0.4339 -0.0000 -0.9010
vn -0.7818 -0.0000 -0.6235
vn -0.9749 -0.0000 -0.2225
vn -0.9749 -0.0000 0.2225
vn -0.7818 -0.0000 0.6235
vn -0.4339 -0.0000 0.9010
vn -0.0000 -0.0000 1.0000
vn 0.4339 -0.0000 0.9010
vn 0.7818 -0.0000 0.6235
vn 0.9749 -0.0000 0.2225
vn 0.9472 0.2368 -0.2162
vn 0.7596 0.2368 -0.6058
vn 0.4215 0.2368 -0.8753
vn -0.0000 0.2368 -0.9716
vn -0.4215 0.2368 -0.8753
vn -0.7596 0.2368 -0.6058
vn -0.9472 0.2368 -0.2162
vn -0.9472 0.2368 0.2162
vn -0.7596 0.2368 0.6058
vn -0.4215 0.2368 0.8753
vn -0.0000 0.2368 0.9716
vn 0.4215 0.2368 0.8753
vn 0.7596 0.2368 0.6058
vn 0.9472 0.2368 0.2162
vn 0.6981 -0.6981 -0.1593
vn 0.5598 -0.6981 -0.4464
vn 0.3107 -0.6981 -0.6451
vn -0.0000 -0.6981 -0.7160
vn -0.3107 -0.6981 -0.6451
vn -0.5598 -0.6981 -0.4464
vn -0.6981 -0.6981 -0.1593
vn -0.6981 -0.6981 0.1593
vn -0.5598 -0.6981 0.4464
vn -0.3107 -0.6981 0.6451
vn -0.0000 -0.6981 0.7160
vn 0.3107 -0.6981 0.6451
vn 0.5598 -0.6981 0.4464
vn 0.6981 -0.6981 0.1593
vn 0.6981 0.6981 -0.1593
vn 0.5598 0.6981 -0.4464
vn 0.3107 0.6981 -0.6451
vn -0.0000 0.6981 -0.7160
vn -0.3107 0.6981 -0.6451
vn -0.5598 0.6981 -0.4464
vn -0.6981 0.6981 -0.1593
vn -0.6981 0.6981 0.1593
vn -0.5598 0.6981 0.4464
vn -0.3107 0.6981 0.6451
vn -0.0000 0.6981 0.7160
vn 0.3107 0.6981 0.6451
vn 0.5598 0.6981 0.4464
vn 0.6981 0.6981 0.1593
vn 0.7041 -0.7041 -0.0927
vn 0.6561 -0.7041 -0.2718
vn 0.5634 -0.7041 -0.4323
vn 0.4323 -0.7041 -0.5634
vn 0.2718 -0.7041 -0.6561
vn 0.0927 -0.7041 -0.7041
vn -0.0927 -0.7041 -0.7041
vn -0.2718 -0.7041 -0.6561
vn -0.4323 -0.7041 -0.5634
vn -0.5634 -0.7041 -0.4323
vn -0.6561 -0.7041 -0.2718
vn -0.7041 -0.7041 -0.0927
vn -0.7041 -0.7041 0.0927
vn -0.6561 -0.7041 0.2718
vn -0.5634 -0.7041 0.4323
vn -0.4323 -0.7041 0.5634
vn -0.2718 -0.7041 0.6561
vn -0.0927 -0.7041 0.7041
vn 0.0927 -0.7041 0.7041
vn 0.2718 -0.7041 0.6561
vn 0.4323 -0.7041 0.5634
vn 0.5634 -0.7041 0.4323
vn 0.6561 -0.7041 0.2718
vn 0.7041 -0.7041 0.0927
vn 0.9914 -0.0000 -0.1305
vn 0.9239 -0.0000 -0.3827
vn 0.7934 -0.0000 -0.6088
vn 0.6088 -0.0000 -0.7934
vn 0.3827 -0.0000 -0.9239
vn 0.1305 -0.0000 -0.9914
vn -0.1305 -0.0000 -0.9914
vn -0.3827 -0.0000 -0.9239
vn -0.6088 -0.0000 -0.7934
vn -0.7934 -0.0000 -0.6088
vn -0.9239 -0.0000 -0.3827
vn -0.9914 -0.0000 -0.1305
vn -0.9914 -0.0000 0.1305
vn -0.9239 -0.0000 0.3827
vn -0.7934 -0.0000 0.6088
vn -0.6088 -0.0000 0.7934
vn -0.3827 -0.0000 0.9239
vn -0.1305 -0.0000 0.9914
vn 0.1305 -0.0000 0.9914
vn 0.3827 -0.0000 0.9239
vn 0.6088 -0.0000 0.7934
vn 0.7934 -0.0000 0.6088
vn 0.9239 -0.0000 0.3827
vn 0.9914 -0.0000 0.1305
vn 0.7041 0.7041 -0.0927
vn 0.6561 0.7041 -0.2718
vn 0.5634 0.7041 -0.4323
vn 0.4323 0.7041 -0.5634
vn 0.2718 0.7041 -0.6561
vn 0.0927 0.7041 -0.7041
vn -0.0927 0.7041 -0.7041
vn -0.2718 0.7041 -0.6561
vn -0.4323 0.7041 -0.5634
vn -0.5634 0.7041 -0.4323
vn -0.6561 0.7041 -0.2718
vn -0.7041 0.7041 -0.0927
vn -0.7041 0.7041 0.0927
vn -0.6561 0.7041 0.2718
vn -0.5634 0.7041 0.4323
vn -0.4323 0.7041 0.5634
vn -0.2718 0.7041 0.6561
vn -0.0927 0.7041 0.7041
vn 0.0927 0.7041 0.7041
vn 0.2718 0.7041 0.6561
vn 0.4323 0.7041 0.5634
vn 0.5634 0.7041 0.4323
vn 0.6561 0.7041 0.2718
vn 0.7041 0.7041 0.0927
vt 0.812500 0.937500
vt 0.812500 0.312500
vt 0.687500 0.937500
vt 0.437500 0.937500
s 0
usemtl FN_Atlas
f 1/1/1 2/1/1 3/1/1 4/1/1 5/1/1 6/1/1 7/1/1 8/1/1
f 9/1/2 10/1/2 11/1/2 12/1/2 13/1/2 14/1/2 15/1/2 16/1/2
f 8/1/3 7/1/3 17/1/3 18/1/3
f 7/1/4 6/1/4 19/1/4 17/1/4
f 6/1/5 5/1/5 20/1/5 19/1/5
f 5/1/6 4/1/6 21/1/6 20/1/6
f 4/1/7 3/1/7 22/1/7 21/1/7
f 3/1/8 2/1/8 23/1/8 22/1/8
f 2/1/9 1/1/9 24/1/9 23/1/9
f 1/1/10 8/1/10 18/1/10 24/1/10
f 18/1/11 17/1/11 25/1/11 26/1/11
f 17/1/12 19/1/12 27/1/12 25/1/12
f 19/1/13 20/1/13 28/1/13 27/1/13
f 20/1/14 21/1/14 29/1/14 28/1/14
f 21/1/15 22/1/15 30/1/15 29/1/15
f 22/1/16 23/1/16 31/1/16 30/1/16
f 23/1/17 24/1/17 32/1/17 31/1/17
f 24/1/18 18/1/18 26/1/18 32/1/18
f 26/1/19 25/1/19 10/1/19 9/1/19
f 25/1/20 27/1/20 11/1/20 10/1/20
f 27/1/21 28/1/21 12/1/21 11/1/21
f 28/1/22 29/1/22 13/1/22 12/1/22
f 29/1/23 30/1/23 14/1/23 13/1/23
f 30/1/24 31/1/24 15/1/24 14/1/24
f 31/1/25 32/1/25 16/1/25 15/1/25
f 32/1/26 26/1/26 9/1/26 16/1/26
f 33/1/27 34/1/27 35/1/27 36/1/27 37/1/27 38/1/27 39/1/27 40/1/27
f 41/1/28 42/1/28 43/1/28 44/1/28 45/1/28 46/1/28 47/1/28 48/1/28
f 40/1/29 39/1/29 49/1/29 50/1/29
f 39/1/30 38/1/30 51/1/30 49/1/30
f 38/1/31 37/1/31 52/1/31 51/1/31
f 37/1/32 36/1/32 53/1/32 52/1/32
f 36/1/33 35/1/33 54/1/33 53/1/33
f 35/1/34 34/1/34 55/1/34 54/1/34
f 34/1/35 33/1/35 56/1/35 55/1/35
f 33/1/36 40/1/36 50/1/36 56/1/36
f 50/1/37 49/1/37 57/1/37 58/1/37
f 49/1/38 51/1/38 59/1/38 57/1/38
f 51/1/39 52/1/39 60/1/39 59/1/39
f 52/1/40 53/1/40 61/1/40 60/1/40
f 53/1/41 54/1/41 62/1/41 61/1/41
f 54/1/42 55/1/42 63/1/42 62/1/42
f 55/1/43 56/1/43 64/1/43 63/1/43
f 56/1/44 50/1/44 58/1/44 64/1/44
f 58/1/45 57/1/45 42/1/45 41/1/45
f 57/1/46 59/1/46 43/1/46 42/1/46
f 59/1/47 60/1/47 44/1/47 43/1/47
f 60/1/48 61/1/48 45/1/48 44/1/48
f 61/1/49 62/1/49 46/1/49 45/1/49
f 62/1/50 63/1/50 47/1/50 46/1/50
f 63/1/51 64/1/51 48/1/51 47/1/51
f 64/1/52 58/1/52 41/1/52 48/1/52
f 65/1/53 66/1/53 67/1/53 68/1/53 69/1/53 70/1/53 71/1/53 72/1/53
f 73/1/54 74/1/54 75/1/54 76/1/54 77/1/54 78/1/54 79/1/54 80/1/54
f 72/1/55 71/1/55 81/1/55 82/1/55
f 71/1/56 70/1/56 83/1/56 81/1/56
f 70/1/57 69/1/57 84/1/57 83/1/57
f 69/1/58 68/1/58 85/1/58 84/1/58
f 68/1/59 67/1/59 86/1/59 85/1/59
f 67/1/60 66/1/60 87/1/60 86/1/60
f 66/1/61 65/1/61 88/1/61 87/1/61
f 65/1/62 72/1/62 82/1/62 88/1/62
f 82/1/63 81/1/63 89/1/63 90/1/63
f 81/1/64 83/1/64 91/1/64 89/1/64
f 83/1/65 84/1/65 92/1/65 91/1/65
f 84/1/66 85/1/66 93/1/66 92/1/66
f 85/1/67 86/1/67 94/1/67 93/1/67
f 86/1/68 87/1/68 95/1/68 94/1/68
f 87/1/69 88/1/69 96/1/69 95/1/69
f 88/1/70 82/1/70 90/1/70 96/1/70
f 90/1/71 89/1/71 74/1/71 73/1/71
f 89/1/72 91/1/72 75/1/72 74/1/72
f 91/1/73 92/1/73 76/1/73 75/1/73
f 92/1/74 93/1/74 77/1/74 76/1/74
f 93/1/75 94/1/75 78/1/75 77/1/75
f 94/1/76 95/1/76 79/1/76 78/1/76
f 95/1/77 96/1/77 80/1/77 79/1/77
f 96/1/78 90/1/78 73/1/78 80/1/78
f 97/1/79 98/1/79 99/1/79 100/1/79 101/1/79 102/1/79 103/1/79 104/1/79
f 105/1/80 106/1/80 107/1/80 108/1/80 109/1/80 110/1/80 111/1/80 112/1/80
f 104/1/81 103/1/81 113/1/81 114/1/81
f 103/1/82 102/1/82 115/1/82 113/1/82
f 102/1/83 101/1/83 116/1/83 115/1/83
f 101/1/84 100/1/84 117/1/84 116/1/84
f 100/1/85 99/1/85 118/1/85 117/1/85
f 99/1/86 98/1/86 119/1/86 118/1/86
f 98/1/87 97/1/87 120/1/87 119/1/87
f 97/1/88 104/1/88 114/1/88 120/1/88
f 114/1/89 113/1/89 121/1/89 122/1/89
f 113/1/90 115/1/90 123/1/90 121/1/90
f 115/1/91 116/1/91 124/1/91 123/1/91
f 116/1/92 117/1/92 125/1/92 124/1/92
f 117/1/93 118/1/93 126/1/93 125/1/93
f 118/1/94 119/1/94 127/1/94 126/1/94
f 119/1/95 120/1/95 128/1/95 127/1/95
f 120/1/96 114/1/96 122/1/96 128/1/96
f 122/1/97 121/1/97 106/1/97 105/1/97
f 121/1/98 123/1/98 107/1/98 106/1/98
f 123/1/99 124/1/99 108/1/99 107/1/99
f 124/1/100 125/1/100 109/1/100 108/1/100
f 125/1/101 126/1/101 110/1/101 109/1/101
f 126/1/102 127/1/102 111/1/102 110/1/102
f 127/1/103 128/1/103 112/1/103 111/1/103
f 128/1/104 122/1/104 105/1/104 112/1/104
f 129/2/105 130/2/105 131/2/105 132/2/105 133/2/105 134/2/105 135/2/105 136/2/105
f 137/2/106 138/2/106 139/2/106 140/2/106 141/2/106 142/2/106 143/2/106 144/2/106
f 136/2/107 135/2/107 145/2/107 146/2/107
f 135/2/108 134/2/108 147/2/108 145/2/108
f 134/2/109 133/2/109 148/2/109 147/2/109
f 133/2/110 132/2/110 149/2/110 148/2/110
f 132/2/111 131/2/111 150/2/111 149/2/111
f 131/2/112 130/2/112 151/2/112 150/2/112
f 130/2/113 129/2/113 152/2/113 151/2/113
f 129/2/114 136/2/114 146/2/114 152/2/114
f 146/2/115 145/2/115 138/2/115 137/2/115
f 145/2/116 147/2/116 139/2/116 138/2/116
f 147/2/117 148/2/117 140/2/117 139/2/117
f 148/2/118 149/2/118 141/2/118 140/2/118
f 149/2/119 150/2/119 142/2/119 141/2/119
f 150/2/120 151/2/120 143/2/120 142/2/120
f 151/2/121 152/2/121 144/2/121 143/2/121
f 152/2/122 146/2/122 137/2/122 144/2/122
f 153/2/105 154/2/105 155/2/105 156/2/105 157/2/105 158/2/105 159/2/105 160/2/105
f 161/2/106 162/2/106 163/2/106 164/2/106 165/2/106 166/2/106 167/2/106 168/2/106
f 160/2/107 159/2/107 169/2/107 170/2/107
f 159/2/108 158/2/108 171/2/108 169/2/108
f 158/2/109 157/2/109 172/2/109 171/2/109
f 157/2/110 156/2/110 173/2/110 172/2/110
f 156/2/111 155/2/111 174/2/111 173/2/111
f 155/2/112 154/2/112 175/2/112 174/2/112
f 154/2/113 153/2/113 176/2/113 175/2/113
f 153/2/114 160/2/114 170/2/114 176/2/114
f 170/2/115 169/2/115 162/2/115 161/2/115
f 169/2/116 171/2/116 163/2/116 162/2/116
f 171/2/117 172/2/117 164/2/117 163/2/117
f 172/2/118 173/2/118 165/2/118 164/2/118
f 173/2/119 174/2/119 166/2/119 165/2/119
f 174/2/120 175/2/120 167/2/120 166/2/120
f 175/2/121 176/2/121 168/2/121 167/2/121
f 176/2/122 170/2/122 161/2/122 168/2/122
f 177/2/105 178/2/105 179/2/105 180/2/105 181/2/105 182/2/105 183/2/105 184/2/105
f 185/2/106 186/2/106 187/2/106 188/2/106 189/2/106 190/2/106 191/2/106 192/2/106
f 184/2/107 183/2/107 193/2/107 194/2/107
f 183/2/108 182/2/108 195/2/108 193/2/108
f 182/2/109 181/2/109 196/2/109 195/2/109
f 181/2/110 180/2/110 197/2/110 196/2/110
f 180/2/111 179/2/111 198/2/111 197/2/111
f 179/2/112 178/2/112 199/2/112 198/2/112
f 178/2/113 177/2/113 200/2/113 199/2/113
f 177/2/114 184/2/114 194/2/114 200/2/114
f 194/2/115 193/2/115 186/2/115 185/2/115
f 193/2/116 195/2/116 187/2/116 186/2/116
f 195/2/117 196/2/117 188/2/117 187/2/117
f 196/2/118 197/2/118 189/2/118 188/2/118
f 197/2/119 198/2/119 190/2/119 189/2/119
f 198/2/120 199/2/120 191/2/120 190/2/120
f 199/2/121 200/2/121 192/2/121 191/2/121
f 200/2/122 194/2/122 185/2/122 192/2/122
f 201/2/105 202/2/105 203/2/105 204/2/105 205/2/105 206/2/105 207/2/105 208/2/105
f 209/2/106 210/2/106 211/2/106 212/2/106 213/2/106 214/2/106 215/2/106 216/2/106
f 208/2/107 207/2/107 217/2/107 218/2/107
f 207/2/108 206/2/108 219/2/108 217/2/108
f 206/2/109 205/2/109 220/2/109 219/2/109
f 205/2/110 204/2/110 221/2/110 220/2/110
f 204/2/111 203/2/111 222/2/111 221/2/111
f 203/2/112 202/2/112 223/2/112 222/2/112
f 202/2/113 201/2/113 224/2/113 223/2/113
f 201/2/114 208/2/114 218/2/114 224/2/114
f 218/2/115 217/2/115 210/2/115 209/2/115
f 217/2/116 219/2/116 211/2/116 210/2/116
f 219/2/117 220/2/117 212/2/117 211/2/117
f 220/2/118 221/2/118 213/2/118 212/2/118
f 221/2/119 222/2/119 214/2/119 213/2/119
f 222/2/120 223/2/120 215/2/120 214/2/120
f 223/2/121 224/2/121 216/2/121 215/2/121
f 224/2/122 218/2/122 209/2/122 216/2/122
f 225/3/105 226/3/105 227/3/105 228/3/105 229/3/105 230/3/105 231/3/105 232/3/105 233/3/105 234/3/105 235/3/105 236/3/105 237/3/105 238/3/105
f 239/3/106 240/3/106 241/3/106 242/3/106 243/3/106 244/3/106 245/3/106 246/3/106 247/3/106 248/3/106 249/3/106 250/3/106 251/3/106 252/3/106
f 238/3/123 237/3/123 253/3/123 254/3/123
f 237/3/124 236/3/124 255/3/124 253/3/124
f 236/3/125 235/3/125 256/3/125 255/3/125
f 235/3/126 234/3/126 257/3/126 256/3/126
f 234/3/127 233/3/127 258/3/127 257/3/127
f 233/3/128 232/3/128 259/3/128 258/3/128
f 232/3/129 231/3/129 260/3/129 259/3/129
f 231/3/130 230/3/130 261/3/130 260/3/130
f 230/3/131 229/3/131 262/3/131 261/3/131
f 229/3/132 228/3/132 263/3/132 262/3/132
f 228/3/133 227/3/133 264/3/133 263/3/133
f 227/3/134 226/3/134 265/3/134 264/3/134
f 226/3/135 225/3/135 266/3/135 265/3/135
f 225/3/136 238/3/136 254/3/136 266/3/136
f 254/3/137 253/3/137 267/3/137 268/3/137
f 253/3/138 255/3/138 269/3/138 267/3/138
f 255/3/139 256/3/139 270/3/139 269/3/139
f 256/3/140 257/3/140 271/3/140 270/3/140
f 257/3/141 258/3/141 272/3/141 271/3/141
f 258/3/142 259/3/142 273/3/142 272/3/142
f 259/3/143 260/3/143 274/3/143 273/3/143
f 260/3/144 261/3/144 275/3/144 274/3/144
f 261/3/145 262/3/145 276/3/145 275/3/145
f 262/3/146 263/3/146 277/3/146 276/3/146
f 263/3/147 264/3/147 278/3/147 277/3/147
f 264/3/148 265/3/148 279/3/148 278/3/148
f 265/3/149 266/3/149 280/3/149 279/3/149
f 266/3/150 254/3/150 268/3/150 280/3/150
f 268/3/151 267/3/151 281/3/151 282/3/151
f 267/3/152 269/3/152 283/3/152 281/3/152
f 269/3/153 270/3/153 284/3/153 283/3/153
f 270/3/154 271/3/154 285/3/154 284/3/154
f 271/3/155 272/3/155 286/3/155 285/3/155
f 272/3/156 273/3/156 287/3/156 286/3/156
f 273/3/157 274/3/157 288/3/157 287/3/157
f 274/3/158 275/3/158 289/3/158 288/3/158
f 275/3/159 276/3/159 290/3/159 289/3/159
f 276/3/160 277/3/160 291/3/160 290/3/160
f 277/3/161 278/3/161 292/3/161 291/3/161
f 278/3/162 279/3/162 293/3/162 292/3/162
f 279/3/163 280/3/163 294/3/163 293/3/163
f 280/3/164 268/3/164 282/3/164 294/3/164
f 282/3/165 281/3/165 295/3/165 296/3/165
f 281/3/166 283/3/166 297/3/166 295/3/166
f 283/3/167 284/3/167 298/3/167 297/3/167
f 284/3/168 285/3/168 299/3/168 298/3/168
f 285/3/169 286/3/169 300/3/169 299/3/169
f 286/3/170 287/3/170 301/3/170 300/3/170
f 287/3/171 288/3/171 302/3/171 301/3/171
f 288/3/172 289/3/172 303/3/172 302/3/172
f 289/3/173 290/3/173 304/3/173 303/3/173
f 290/3/174 291/3/174 305/3/174 304/3/174
f 291/3/175 292/3/175 306/3/175 305/3/175
f 292/3/176 293/3/176 307/3/176 306/3/176
f 293/3/177 294/3/177 308/3/177 307/3/177
f 294/3/178 282/3/178 296/3/178 308/3/178
f 296/3/179 295/3/179 309/3/179 310/3/179
f 295/3/180 297/3/180 311/3/180 309/3/180
f 297/3/181 298/3/181 312/3/181 311/3/181
f 298/3/182 299/3/182 313/3/182 312/3/182
f 299/3/183 300/3/183 314/3/183 313/3/183
f 300/3/184 301/3/184 315/3/184 314/3/184
f 301/3/185 302/3/185 316/3/185 315/3/185
f 302/3/186 303/3/186 317/3/186 316/3/186
f 303/3/187 304/3/187 318/3/187 317/3/187
f 304/3/188 305/3/188 319/3/188 318/3/188
f 305/3/189 306/3/189 320/3/189 319/3/189
f 306/3/190 307/3/190 321/3/190 320/3/190
f 307/3/191 308/3/191 322/3/191 321/3/191
f 308/3/192 296/3/192 310/3/192 322/3/192
f 310/3/193 309/3/193 240/3/193 239/3/193
f 309/3/194 311/3/194 241/3/194 240/3/194
f 311/3/195 312/3/195 242/3/195 241/3/195
f 312/3/196 313/3/196 243/3/196 242/3/196
f 313/3/197 314/3/197 244/3/197 243/3/197
f 314/3/198 315/3/198 245/3/198 244/3/198
f 315/3/199 316/3/199 246/3/199 245/3/199
f 316/3/200 317/3/200 247/3/200 246/3/200
f 317/3/201 318/3/201 248/3/201 247/3/201
f 318/3/202 319/3/202 249/3/202 248/3/202
f 319/3/203 320/3/203 250/3/203 249/3/203
f 320/3/204 321/3/204 251/3/204 250/3/204
f 321/3/205 322/3/205 252/3/205 251/3/205
f 322/3/206 310/3/206 239/3/206 252/3/206
f 323/3/105 324/3/105 325/3/105 326/3/105 327/3/105 328/3/105 329/3/105 330/3/105 331/3/105 332/3/105 333/3/105 334/3/105 335/3/105 336/3/105
f 336/3/207 335/3/207 337/3/207 338/3/207
f 335/3/208 334/3/208 339/3/208 337/3/208
f 334/3/209 333/3/209 340/3/209 339/3/209
f 333/3/210 332/3/210 341/3/210 340/3/210
f 332/3/211 331/3/211 342/3/211 341/3/211
f 331/3/212 330/3/212 343/3/212 342/3/212
f 330/3/213 329/3/213 344/3/213 343/3/213
f 329/3/214 328/3/214 345/3/214 344/3/214
f 328/3/215 327/3/215 346/3/215 345/3/215
f 327/3/216 326/3/216 347/3/216 346/3/216
f 326/3/217 325/3/217 348/3/217 347/3/217
f 325/3/218 324/3/218 349/3/218 348/3/218
f 324/3/219 323/3/219 350/3/219 349/3/219
f 323/3/220 336/3/220 338/3/220 350/3/220
f 338/3/179 337/3/179 351/3/179 352/3/179
f 337/3/180 339/3/180 353/3/180 351/3/180
f 339/3/181 340/3/181 354/3/181 353/3/181
f 340/3/182 341/3/182 355/3/182 354/3/182
f 341/3/183 342/3/183 356/3/183 355/3/183
f 342/3/184 343/3/184 357/3/184 356/3/184
f 343/3/185 344/3/185 358/3/185 357/3/185
f 344/3/186 345/3/186 359/3/186 358/3/186
f 345/3/187 346/3/187 360/3/187 359/3/187
f 346/3/188 347/3/188 361/3/188 360/3/188
f 347/3/189 348/3/189 362/3/189 361/3/189
f 348/3/190 349/3/190 363/3/190 362/3/190
f 349/3/191 350/3/191 364/3/191 363/3/191
f 350/3/192 338/3/192 352/3/192 364/3/192
f 365/3/106 366/3/106 367/3/106 368/3/106 369/3/106 370/3/106 371/3/106 372/3/106 373/3/106 374/3/106 375/3/106 376/3/106 377/3/106 378/3/106
f 352/3/221 351/3/221 366/3/221 365/3/221
f 351/3/222 353/3/222 367/3/222 366/3/222
f 353/3/223 354/3/223 368/3/223 367/3/223
f 354/3/224 355/3/224 369/3/224 368/3/224
f 355/3/225 356/3/225 370/3/225 369/3/225
f 356/3/226 357/3/226 371/3/226 370/3/226
f 357/3/227 358/3/227 372/3/227 371/3/227
f 358/3/228 359/3/228 373/3/228 372/3/228
f 359/3/229 360/3/229 374/3/229 373/3/229
f 360/3/230 361/3/230 375/3/230 374/3/230
f 361/3/231 362/3/231 376/3/231 375/3/231
f 362/3/232 363/3/232 377/3/232 376/3/232
f 363/3/233 364/3/233 378/3/233 377/3/233
f 364/3/234 352/3/234 365/3/234 378/3/234
f 379/3/105 380/3/105 381/3/105 382/3/105 383/3/105 384/3/105 385/3/105 386/3/105 387/3/105 388/3/105 389/3/105 390/3/105 391/3/105 392/3/105 393/3/105 394/3/105 395/3/105 396/3/105 397/3/105 398/3/105 399/3/105 400/3/105 401/3/105 402/3/105
f 402/3/235 401/3/235 403/3/235 404/3/235
f 401/3/236 400/3/236 405/3/236 403/3/236
f 400/3/237 399/3/237 406/3/237 405/3/237
f 399/3/238 398/3/238 407/3/238 406/3/238
f 398/3/239 397/3/239 408/3/239 407/3/239
f 397/3/240 396/3/240 409/3/240 408/3/240
f 396/3/241 395/3/241 410/3/241 409/3/241
f 395/3/242 394/3/242 411/3/242 410/3/242
f 394/3/243 393/3/243 412/3/243 411/3/243
f 393/3/244 392/3/244 413/3/244 412/3/244
f 392/3/245 391/3/245 414/3/245 413/3/245
f 391/3/246 390/3/246 415/3/246 414/3/246
f 390/3/247 389/3/247 416/3/247 415/3/247
f 389/3/248 388/3/248 417/3/248 416/3/248
f 388/3/249 387/3/249 418/3/249 417/3/249
f 387/3/250 386/3/250 419/3/250 418/3/250
f 386/3/251 385/3/251 420/3/251 419/3/251
f 385/3/252 384/3/252 421/3/252 420/3/252
f 384/3/253 383/3/253 422/3/253 421/3/253
f 383/3/254 382/3/254 423/3/254 422/3/254
f 382/3/255 381/3/255 424/3/255 423/3/255
f 381/3/256 380/3/256 425/3/256 424/3/256
f 380/3/257 379/3/257 426/3/257 425/3/257
f 379/3/258 402/3/258 404/3/258 426/3/258
f 404/3/259 403/3/259 427/3/259 428/3/259
f 403/3/260 405/3/260 429/3/260 427/3/260
f 405/3/261 406/3/261 430/3/261 429/3/261
f 406/3/262 407/3/262 431/3/262 430/3/262
f 407/3/263 408/3/263 432/3/263 431/3/263
f 408/3/264 409/3/264 433/3/264 432/3/264
f 409/3/265 410/3/265 434/3/265 433/3/265
f 410/3/266 411/3/266 435/3/266 434/3/266
f 411/3/267 412/3/267 436/3/267 435/3/267
f 412/3/268 413/3/268 437/3/268 436/3/268
f 413/3/269 414/3/269 438/3/269 437/3/269
f 414/3/270 415/3/270 439/3/270 438/3/270
f 415/3/271 416/3/271 440/3/271 439/3/271
f 416/3/272 417/3/272 441/3/272 440/3/272
f 417/3/273 418/3/273 442/3/273 441/3/273
f 418/3/274 419/3/274 443/3/274 442/3/274
f 419/3/275 420/3/275 444/3/275 443/3/275
f 420/3/276 421/3/276 445/3/276 444/3/276
f 421/3/277 422/3/277 446/3/277 445/3/277
f 422/3/278 423/3/278 447/3/278 446/3/278
f 423/3/279 424/3/279 448/3/279 447/3/279
f 424/3/280 425/3/280 449/3/280 448/3/280
f 425/3/281 426/3/281 450/3/281 449/3/281
f 426/3/282 404/3/282 428/3/282 450/3/282
f 451/4/106 452/4/106 453/4/106 454/4/106 455/4/106 456/4/106 457/4/106 458/4/106 459/4/106 460/4/106 461/4/106 462/4/106 463/4/106 464/4/106 465/4/106 466/4/106 467/4/106 468/4/106 469/4/106 470/4/106 471/4/106 472/4/106 473/4/106 474/4/106
f 428/3/283 427/3/283 452/3/283 451/3/283
f 427/3/284 429/3/284 453/3/284 452/3/284
f 429/3/285 430/3/285 454/3/285 453/3/285
f 430/3/286 431/3/286 455/3/286 454/3/286
f 431/3/287 432/3/287 456/3/287 455/3/287
f 432/3/288 433/3/288 457/3/288 456/3/288
f 433/3/289 434/3/289 458/3/289 457/3/289
f 434/3/290 435/3/290 459/3/290 458/3/290
f 435/3/291 436/3/291 460/3/291 459/3/291
f 436/3/292 437/3/292 461/3/292 460/3/292
f 437/3/293 438/3/293 462/3/293 461/3/293
f 438/3/294 439/3/294 463/3/294 462/3/294
f 439/3/295 440/3/295 464/3/295 463/3/295
f 440/3/296 441/3/296 465/3/296 464/3/296
f 441/3/297 442/3/297 466/3/297 465/3/297
f 442/3/298 443/3/298 467/3/298 466/3/298
f 443/3/299 444/3/299 468/3/299 467/3/299
f 444/3/300 445/3/300 469/3/300 468/3/300
f 445/3/301 446/3/301 470/3/301 469/3/301
f 446/3/302 447/3/302 471/3/302 470/3/302
f 447/3/303 448/3/303 472/3/303 471/3/303
f 448/3/304 449/3/304 473/3/304 472/3/304
f 449/3/305 450/3/305 474/3/305 473/3/305
f 450/3/306 428/3/306 451/3/306 474/3/306
