# Blender 5.2.0 LTS
# www.blender.org
mtllib FN_Wardrobe_Sliding.mtl
o FN_Wardrobe_Sliding
v -0.860000 0.000000 0.286500
v -0.860000 0.000000 -0.293500
v 0.860000 0.000000 -0.293500
v 0.860000 0.000000 0.286500
v -0.860000 0.070000 0.286500
v 0.860000 0.070000 0.286500
v 0.860000 0.070000 -0.293500
v -0.860000 0.070000 -0.293500
v -0.900000 0.060000 0.321500
v -0.900000 0.060000 -0.328500
v -0.880000 0.060000 -0.328500
v -0.880000 0.060000 0.321500
v -0.900000 2.200000 0.321500
v -0.880000 2.200000 0.321500
v -0.880000 2.200000 -0.328500
v -0.900000 2.200000 -0.328500
v 0.880000 0.060000 0.321500
v 0.880000 0.060000 -0.328500
v 0.900000 0.060000 -0.328500
v 0.900000 0.060000 0.321500
v 0.880000 2.200000 0.321500
v 0.900000 2.200000 0.321500
v 0.900000 2.200000 -0.328500
v 0.880000 2.200000 -0.328500
v -0.880000 0.090000 0.321500
v 0.880000 0.090000 0.321500
v 0.880000 0.090000 -0.328500
v -0.880000 0.090000 -0.328500
v -0.880000 2.170000 0.321500
v -0.880000 2.170000 -0.328500
v 0.880000 2.170000 -0.328500
v 0.880000 2.170000 0.321500
v -0.880000 0.090000 -0.298500
v 0.880000 0.090000 -0.298500
v -0.880000 2.170000 -0.298500
v 0.880000 2.170000 -0.298500
v -0.895000 0.086000 0.318500
v -0.895000 0.086000 0.262500
v 0.895000 0.086000 0.262500
v 0.895000 0.086000 0.318500
v -0.895000 0.110000 0.318500
v 0.895000 0.110000 0.318500
v 0.895000 0.110000 0.262500
v -0.895000 0.110000 0.262500
v -0.895000 2.130000 0.318500
v -0.895000 2.130000 0.262500
v 0.895000 2.130000 0.262500
v 0.895000 2.130000 0.318500
v -0.895000 2.170000 0.318500
v 0.895000 2.170000 0.318500
v 0.895000 2.170000 0.262500
v -0.895000 2.170000 0.262500
v -0.878000 0.100000 0.314500
v -0.878000 0.100000 0.294500
v 0.030000 0.100000 0.294500
v 0.030000 0.100000 0.314500
v -0.878000 2.150000 0.314500
v 0.030000 2.150000 0.314500
v 0.030000 2.150000 0.294500
v -0.878000 2.150000 0.294500
v -0.030000 0.100000 0.290500
v -0.030000 0.100000 0.270500
v 0.878000 0.100000 0.270500
v 0.878000 0.100000 0.290500
v -0.030000 2.150000 0.290500
v 0.878000 2.150000 0.290500
v 0.878000 2.150000 0.270500
v -0.030000 2.150000 0.270500
v -0.052000 0.900000 0.328500
v -0.052000 0.900000 0.308500
v -0.028000 0.900000 0.308500
v -0.028000 0.900000 0.328500
v -0.052000 1.500000 0.328500
v -0.028000 1.500000 0.328500
v -0.028000 1.500000 0.308500
v -0.052000 1.500000 0.308500
v 0.088000 0.900000 0.304500
v 0.088000 0.900000 0.284500
v 0.112000 0.900000 0.284500
v 0.112000 0.900000 0.304500
v 0.088000 1.500000 0.304500
v 0.112000 1.500000 0.304500
v 0.112000 1.500000 0.284500
v 0.088000 1.500000 0.284500
vn -0.0000 -1.0000 -0.0000
vn -0.0000 1.0000 -0.0000
vn -0.0000 -0.0000 1.0000
vn -0.0000 -0.0000 -1.0000
vn -1.0000 -0.0000 -0.0000
vn 1.0000 -0.0000 -0.0000
vt 0.812500 0.312500
vt 0.687500 0.312500
vt 0.437500 0.812500
vt 0.437500 0.937500
s 0
usemtl FN_Atlas
f 1/1/1 2/1/1 3/1/1 4/1/1
f 5/1/2 6/1/2 7/1/2 8/1/2
f 1/1/3 4/1/3 6/1/3 5/1/3
f 3/1/4 2/1/4 8/1/4 7/1/4
f 1/1/5 5/1/5 8/1/5 2/1/5
f 4/1/6 3/1/6 7/1/6 6/1/6
f 9/2/1 10/2/1 11/2/1 12/2/1
f 13/2/2 14/2/2 15/2/2 16/2/2
f 9/2/3 12/2/3 14/2/3 13/2/3
f 11/2/4 10/2/4 16/2/4 15/2/4
f 9/2/5 13/2/5 16/2/5 10/2/5
f 12/2/6 11/2/6 15/2/6 14/2/6
f 17/2/1 18/2/1 19/2/1 20/2/1
f 21/2/2 22/2/2 23/2/2 24/2/2
f 17/2/3 20/2/3 22/2/3 21/2/3
f 19/2/4 18/2/4 24/2/4 23/2/4
f 17/2/5 21/2/5 24/2/5 18/2/5
f 20/2/6 19/2/6 23/2/6 22/2/6
f 12/2/1 11/2/1 18/2/1 17/2/1
f 25/2/2 26/2/2 27/2/2 28/2/2
f 12/2/3 17/2/3 26/2/3 25/2/3
f 18/2/4 11/2/4 28/2/4 27/2/4
f 12/2/5 25/2/5 28/2/5 11/2/5
f 17/2/6 18/2/6 27/2/6 26/2/6
f 29/2/1 30/2/1 31/2/1 32/2/1
f 14/2/2 21/2/2 24/2/2 15/2/2
f 29/2/3 32/2/3 21/2/3 14/2/3
f 31/2/4 30/2/4 15/2/4 24/2/4
f 29/2/5 14/2/5 15/2/5 30/2/5
f 32/2/6 31/2/6 24/2/6 21/2/6
f 33/2/1 28/2/1 27/2/1 34/2/1
f 35/2/2 36/2/2 31/2/2 30/2/2
f 33/2/3 34/2/3 36/2/3 35/2/3
f 27/2/4 28/2/4 30/2/4 31/2/4
f 33/2/5 35/2/5 30/2/5 28/2/5
f 34/2/6 27/2/6 31/2/6 36/2/6
f 37/2/1 38/2/1 39/2/1 40/2/1
f 41/2/2 42/2/2 43/2/2 44/2/2
f 37/2/3 40/2/3 42/2/3 41/2/3
f 39/2/4 38/2/4 44/2/4 43/2/4
f 37/2/5 41/2/5 44/2/5 38/2/5
f 40/2/6 39/2/6 43/2/6 42/2/6
f 45/2/1 46/2/1 47/2/1 48/2/1
f 49/2/2 50/2/2 51/2/2 52/2/2
f 45/2/3 48/2/3 50/2/3 49/2/3
f 47/2/4 46/2/4 52/2/4 51/2/4
f 45/2/5 49/2/5 52/2/5 46/2/5
f 48/2/6 47/2/6 51/2/6 50/2/6
f 53/3/1 54/3/1 55/3/1 56/3/1
f 57/3/2 58/3/2 59/3/2 60/3/2
f 53/3/3 56/3/3 58/3/3 57/3/3
f 55/3/4 54/3/4 60/3/4 59/3/4
f 53/3/5 57/3/5 60/3/5 54/3/5
f 56/3/6 55/3/6 59/3/6 58/3/6
f 61/4/1 62/4/1 63/4/1 64/4/1
f 65/4/2 66/4/2 67/4/2 68/4/2
f 61/4/3 64/4/3 66/4/3 65/4/3
f 63/4/4 62/4/4 68/4/4 67/4/4
f 61/4/5 65/4/5 68/4/5 62/4/5
f 64/4/6 63/4/6 67/4/6 66/4/6
f 69/1/1 70/1/1 71/1/1 72/1/1
f 73/1/2 74/1/2 75/1/2 76/1/2
f 69/1/3 72/1/3 74/1/3 73/1/3
f 71/1/4 70/1/4 76/1/4 75/1/4
f 69/1/5 73/1/5 76/1/5 70/1/5
f 72/1/6 71/1/6 75/1/6 74/1/6
f 77/1/1 78/1/1 79/1/1 80/1/1
f 81/1/2 82/1/2 83/1/2 84/1/2
f 77/1/3 80/1/3 82/1/3 81/1/3
f 79/1/4 78/1/4 84/1/4 83/1/4
f 77/1/5 81/1/5 84/1/5 78/1/5
f 80/1/6 79/1/6 83/1/6 82/1/6
