# Blender 5.2.0 LTS
# www.blender.org
mtllib FN_Wardrobe_Single.mtl
o FN_Wardrobe_Single
v -0.276000 0.000000 0.242500
v -0.276000 0.000000 -0.303500
v 0.276000 0.000000 -0.303500
v 0.276000 0.000000 0.242500
v -0.276000 0.090000 0.242500
v 0.276000 0.090000 0.242500
v 0.276000 0.090000 -0.303500
v -0.276000 0.090000 -0.303500
v -0.300000 0.090000 0.252500
v -0.300000 0.090000 -0.309500
v -0.280000 0.090000 -0.309500
v -0.280000 0.090000 0.252500
v -0.300000 1.994000 0.252500
v -0.280000 1.994000 0.252500
v -0.280000 1.994000 -0.309500
v -0.300000 1.994000 -0.309500
v 0.280000 0.090000 0.252500
v 0.280000 0.090000 -0.309500
v 0.300000 0.090000 -0.309500
v 0.300000 0.090000 0.252500
v 0.280000 1.994000 0.252500
v 0.300000 1.994000 0.252500
v 0.300000 1.994000 -0.309500
v 0.280000 1.994000 -0.309500
v -0.300000 0.110000 0.252500
v 0.300000 0.110000 0.252500
v 0.300000 0.110000 -0.309500
v -0.300000 0.110000 -0.309500
v -0.280000 0.090000 -0.297500
v 0.280000 0.090000 -0.297500
v -0.280000 1.994000 -0.297500
v 0.280000 1.994000 -0.297500
v -0.280000 0.110000 0.256500
v -0.280000 0.110000 0.226500
v 0.280000 0.110000 0.226500
v 0.280000 0.110000 0.256500
v -0.280000 1.994000 0.256500
v 0.280000 1.994000 0.256500
v 0.280000 1.994000 0.226500
v -0.280000 1.994000 0.226500
v -0.312000 1.994000 0.266500
v -0.312000 1.994000 -0.309500
v 0.312000 1.994000 -0.309500
v 0.312000 1.994000 0.266500
v -0.312000 2.020000 0.266500
v 0.312000 2.020000 0.266500
v 0.312000 2.020000 -0.309500
v -0.312000 2.020000 -0.309500
v -0.292000 0.104000 0.270500
v -0.292000 0.104000 0.252500
v 0.292000 0.104000 0.252500
v 0.292000 0.104000 0.270500
v -0.292000 0.386000 0.270500
v 0.292000 0.386000 0.270500
v 0.292000 0.386000 0.252500
v -0.292000 0.386000 0.252500
v -0.128000 0.237206 0.305000
v -0.128000 0.237206 0.296000
v -0.128000 0.245000 0.291500
v -0.128000 0.252794 0.296000
v -0.128000 0.252794 0.305000
v -0.128000 0.245000 0.309500
v 0.128000 0.245000 0.309500
v 0.128000 0.252794 0.305000
v 0.128000 0.252794 0.296000
v 0.128000 0.245000 0.291500
v 0.128000 0.237206 0.296000
v 0.128000 0.237206 0.305000
v -0.132000 0.238072 0.270500
v -0.124000 0.238072 0.270500
v -0.120000 0.245000 0.270500
v -0.124000 0.251928 0.270500
v -0.132000 0.251928 0.270500
v -0.136000 0.245000 0.270500
v -0.136000 0.245000 0.300500
v -0.132000 0.251928 0.300500
v -0.124000 0.251928 0.300500
v -0.120000 0.245000 0.300500
v -0.124000 0.238072 0.300500
v -0.132000 0.238072 0.300500
v 0.124000 0.238072 0.270500
v 0.132000 0.238072 0.270500
v 0.136000 0.245000 0.270500
v 0.132000 0.251928 0.270500
v 0.124000 0.251928 0.270500
v 0.120000 0.245000 0.270500
v 0.120000 0.245000 0.300500
v 0.124000 0.251928 0.300500
v 0.132000 0.251928 0.300500
v 0.136000 0.245000 0.300500
v 0.132000 0.238072 0.300500
v 0.124000 0.238072 0.300500
v -0.292000 0.404000 0.270500
v -0.292000 0.404000 0.252500
v 0.292000 0.404000 0.252500
v 0.292000 0.404000 0.270500
v -0.292000 0.482000 0.270500
v 0.292000 0.482000 0.270500
v 0.292000 0.482000 0.252500
v -0.292000 0.482000 0.252500
v -0.292000 1.924000 0.270500
v -0.292000 1.924000 0.252500
v 0.292000 1.924000 0.252500
v 0.292000 1.924000 0.270500
v -0.292000 2.002000 0.270500
v 0.292000 2.002000 0.270500
v 0.292000 2.002000 0.252500
v -0.292000 2.002000 0.252500
v -0.214000 0.404000 0.252500
v -0.214000 0.404000 0.270500
v -0.214000 2.002000 0.270500
v -0.214000 2.002000 0.252500
v 0.214000 0.404000 0.270500
v 0.214000 0.404000 0.252500
v 0.214000 2.002000 0.270500
v 0.214000 2.002000 0.252500
v -0.218000 0.478000 0.264500
v -0.218000 0.478000 0.252500
v 0.218000 0.478000 0.252500
v 0.218000 0.478000 0.264500
v -0.218000 1.928000 0.264500
v 0.218000 1.928000 0.264500
v 0.218000 1.928000 0.252500
v -0.218000 1.928000 0.252500
v 0.235000 0.900000 0.309160
v 0.245000 0.900000 0.309160
v 0.250000 0.900000 0.300500
v 0.245000 0.900000 0.291840
v 0.235000 0.900000 0.291840
v 0.230000 0.900000 0.300500
v 0.230000 1.400000 0.300500
v 0.235000 1.400000 0.291840
v 0.245000 1.400000 0.291840
v 0.250000 1.400000 0.300500
v 0.245000 1.400000 0.309160
v 0.235000 1.400000 0.309160
v 0.236000 0.893072 0.270500
v 0.244000 0.893072 0.270500
v 0.248000 0.900000 0.270500
v 0.244000 0.906928 0.270500
v 0.236000 0.906928 0.270500
v 0.232000 0.900000 0.270500
v 0.232000 0.900000 0.300500
v 0.236000 0.906928 0.300500
v 0.244000 0.906928 0.300500
v 0.248000 0.900000 0.300500
v 0.244000 0.893072 0.300500
v 0.236000 0.893072 0.300500
v 0.236000 1.393072 0.270500
v 0.244000 1.393072 0.270500
v 0.248000 1.400000 0.270500
v 0.244000 1.406928 0.270500
v 0.236000 1.406928 0.270500
v 0.232000 1.400000 0.270500
v 0.232000 1.400000 0.300500
v 0.236000 1.406928 0.300500
v 0.244000 1.406928 0.300500
v 0.248000 1.400000 0.300500
v 0.244000 1.393072 0.300500
v 0.236000 1.393072 0.300500
vn -0.0000 -1.0000 -0.0000
vn -0.0000 1.0000 -0.0000
vn -0.0000 -0.0000 1.0000
vn -0.0000 -0.0000 -1.0000
vn -1.0000 -0.0000 -0.0000
vn 1.0000 -0.0000 -0.0000
vn -0.0000 -0.5000 -0.8660
vn -0.0000 -0.5000 0.8660
vn -0.0000 0.5000 0.8660
vn -0.0000 0.5000 -0.8660
vn 0.8660 -0.5000 -0.0000
vn -0.8660 -0.5000 -0.0000
vn -0.8660 0.5000 -0.0000
vn 0.8660 0.5000 -0.0000
vn 0.8660 -0.0000 0.5000
vn -0.8660 -0.0000 0.5000
vn -0.8660 -0.0000 -0.5000
vn 0.8660 -0.0000 -0.5000
vt 0.812500 0.937500
vt 0.437500 0.937500
vt 0.937500 0.312500
vt 0.187500 0.312500
s 0
usemtl FN_Atlas
f 1/1/1 2/1/1 3/1/1 4/1/1
f 5/1/2 6/1/2 7/1/2 8/1/2
f 1/1/3 4/1/3 6/1/3 5/1/3
f 3/1/4 2/1/4 8/1/4 7/1/4
f 1/1/5 5/1/5 8/1/5 2/1/5
f 4/1/6 3/1/6 7/1/6 6/1/6
f 9/2/1 10/2/1 11/2/1 12/2/1
f 13/2/2 14/2/2 15/2/2 16/2/2
f 9/2/3 12/2/3 14/2/3 13/2/3
f 11/2/4 10/2/4 16/2/4 15/2/4
f 9/2/5 13/2/5 16/2/5 10/2/5
f 12/2/6 11/2/6 15/2/6 14/2/6
f 17/2/1 18/2/1 19/2/1 20/2/1
f 21/2/2 22/2/2 23/2/2 24/2/2
f 17/2/3 20/2/3 22/2/3 21/2/3
f 19/2/4 18/2/4 24/2/4 23/2/4
f 17/2/5 21/2/5 24/2/5 18/2/5
f 20/2/6 19/2/6 23/2/6 22/2/6
f 9/2/1 10/2/1 19/2/1 20/2/1
f 25/2/2 26/2/2 27/2/2 28/2/2
f 9/2/3 20/2/3 26/2/3 25/2/3
f 19/2/4 10/2/4 28/2/4 27/2/4
f 9/2/5 25/2/5 28/2/5 10/2/5
f 20/2/6 19/2/6 27/2/6 26/2/6
f 29/1/1 11/1/1 18/1/1 30/1/1
f 31/1/2 32/1/2 24/1/2 15/1/2
f 29/1/3 30/1/3 32/1/3 31/1/3
f 18/1/4 11/1/4 15/1/4 24/1/4
f 29/1/5 31/1/5 15/1/5 11/1/5
f 30/1/6 18/1/6 24/1/6 32/1/6
f 33/1/1 34/1/1 35/1/1 36/1/1
f 37/1/2 38/1/2 39/1/2 40/1/2
f 33/1/3 36/1/3 38/1/3 37/1/3
f 35/1/4 34/1/4 40/1/4 39/1/4
f 33/1/5 37/1/5 40/1/5 34/1/5
f 36/1/6 35/1/6 39/1/6 38/1/6
f 41/2/1 42/2/1 43/2/1 44/2/1
f 45/2/2 46/2/2 47/2/2 48/2/2
f 41/2/3 44/2/3 46/2/3 45/2/3
f 43/2/4 42/2/4 48/2/4 47/2/4
f 41/2/5 45/2/5 48/2/5 42/2/5
f 44/2/6 43/2/6 47/2/6 46/2/6
f 49/2/1 50/2/1 51/2/1 52/2/1
f 53/2/2 54/2/2 55/2/2 56/2/2
f 49/2/3 52/2/3 54/2/3 53/2/3
f 51/2/4 50/2/4 56/2/4 55/2/4
f 49/2/5 53/2/5 56/2/5 50/2/5
f 52/2/6 51/2/6 55/2/6 54/2/6
f 57/3/6 58/3/6 59/3/6 60/3/6 61/3/6 62/3/6
f 63/3/5 64/3/5 65/3/5 66/3/5 67/3/5 68/3/5
f 62/3/7 61/3/7 64/3/7 63/3/7
f 61/3/1 60/3/1 65/3/1 64/3/1
f 60/3/8 59/3/8 66/3/8 65/3/8
f 59/3/9 58/3/9 67/3/9 66/3/9
f 58/3/2 57/3/2 68/3/2 67/3/2
f 57/3/10 62/3/10 63/3/10 68/3/10
f 69/3/3 70/3/3 71/3/3 72/3/3 73/3/3 74/3/3
f 75/3/4 76/3/4 77/3/4 78/3/4 79/3/4 80/3/4
f 74/3/11 73/3/11 76/3/11 75/3/11
f 73/3/1 72/3/1 77/3/1 76/3/1
f 72/3/12 71/3/12 78/3/12 77/3/12
f 71/3/13 70/3/13 79/3/13 78/3/13
f 70/3/2 69/3/2 80/3/2 79/3/2
f 69/3/14 74/3/14 75/3/14 80/3/14
f 81/3/3 82/3/3 83/3/3 84/3/3 85/3/3 86/3/3
f 87/3/4 88/3/4 89/3/4 90/3/4 91/3/4 92/3/4
f 86/3/11 85/3/11 88/3/11 87/3/11
f 85/3/1 84/3/1 89/3/1 88/3/1
f 84/3/12 83/3/12 90/3/12 89/3/12
f 83/3/13 82/3/13 91/3/13 90/3/13
f 82/3/2 81/3/2 92/3/2 91/3/2
f 81/3/14 86/3/14 87/3/14 92/3/14
f 93/2/1 94/2/1 95/2/1 96/2/1
f 97/2/2 98/2/2 99/2/2 100/2/2
f 93/2/3 96/2/3 98/2/3 97/2/3
f 95/2/4 94/2/4 100/2/4 99/2/4
f 93/2/5 97/2/5 100/2/5 94/2/5
f 96/2/6 95/2/6 99/2/6 98/2/6
f 101/2/1 102/2/1 103/2/1 104/2/1
f 105/2/2 106/2/2 107/2/2 108/2/2
f 101/2/3 104/2/3 106/2/3 105/2/3
f 103/2/4 102/2/4 108/2/4 107/2/4
f 101/2/5 105/2/5 108/2/5 102/2/5
f 104/2/6 103/2/6 107/2/6 106/2/6
f 93/2/1 94/2/1 109/2/1 110/2/1
f 105/2/2 111/2/2 112/2/2 108/2/2
f 93/2/3 110/2/3 111/2/3 105/2/3
f 109/2/4 94/2/4 108/2/4 112/2/4
f 93/2/5 105/2/5 108/2/5 94/2/5
f 110/2/6 109/2/6 112/2/6 111/2/6
f 113/2/1 114/2/1 95/2/1 96/2/1
f 115/2/2 106/2/2 107/2/2 116/2/2
f 113/2/3 96/2/3 106/2/3 115/2/3
f 95/2/4 114/2/4 116/2/4 107/2/4
f 113/2/5 115/2/5 116/2/5 114/2/5
f 96/2/6 95/2/6 107/2/6 106/2/6
f 117/4/1 118/4/1 119/4/1 120/4/1
f 121/4/2 122/4/2 123/4/2 124/4/2
f 117/4/3 120/4/3 122/4/3 121/4/3
f 119/4/4 118/4/4 124/4/4 123/4/4
f 117/4/5 121/4/5 124/4/5 118/4/5
f 120/4/6 119/4/6 123/4/6 122/4/6
f 125/3/2 126/3/2 127/3/2 128/3/2 129/3/2 130/3/2
f 131/3/1 132/3/1 133/3/1 134/3/1 135/3/1 136/3/1
f 130/3/15 129/3/15 132/3/15 131/3/15
f 129/3/3 128/3/3 133/3/3 132/3/3
f 128/3/16 127/3/16 134/3/16 133/3/16
f 127/3/17 126/3/17 135/3/17 134/3/17
f 126/3/4 125/3/4 136/3/4 135/3/4
f 125/3/18 130/3/18 131/3/18 136/3/18
f 137/3/3 138/3/3 139/3/3 140/3/3 141/3/3 142/3/3
f 143/3/4 144/3/4 145/3/4 146/3/4 147/3/4 148/3/4
f 142/3/11 141/3/11 144/3/11 143/3/11
f 141/3/1 140/3/1 145/3/1 144/3/1
f 140/3/12 139/3/12 146/3/12 145/3/12
f 139/3/13 138/3/13 147/3/13 146/3/13
f 138/3/2 137/3/2 148/3/2 147/3/2
f 137/3/14 142/3/14 143/3/14 148/3/14
f 149/3/3 150/3/3 151/3/3 152/3/3 153/3/3 154/3/3
f 155/3/4 156/3/4 157/3/4 158/3/4 159/3/4 160/3/4
f 154/3/11 153/3/11 156/3/11 155/3/11
f 153/3/1 152/3/1 157/3/1 156/3/1
f 152/3/12 151/3/12 158/3/12 157/3/12
f 151/3/13 150/3/13 159/3/13 158/3/13
f 150/3/2 149/3/2 160/3/2 159/3/2
f 149/3/14 154/3/14 155/3/14 160/3/14
